<svg xmlns="http://www.w3.org/2000/svg" viewBox="0 0 1260 1012.04">
  <g>
    <path d="M0,90.08V396.74C420,125.43,840,580,1260,308.63V2C840,273.28,420-181.24,0,90.08Z" style="fill: #00732f"/>
    <path d="M0,703.41C420,432.09,840,886.62,1260,615.3V308.63C840,580,420,125.43,0,396.74Z" style="fill: #fff"/>
    <path d="M0,1010.08C420,738.76,840,1193.28,1260,922V615.3C840,886.62,420,432.09,0,703.41Z"/>
    <path d="M0,90.08v920c105-67.83,210-90.3,315-90.08V0C210-.22,105,22.25,0,90.08Z" style="fill: red"/>
  </g>
</svg>
