<svg xmlns="http://www.w3.org/2000/svg" viewBox="0 0 1260 1012.04">
  <g>
    <path d="M0,90.08v920C420,738.76,840,1193.28,1260,922V2C840,273.28,420-181.24,0,90.08Z" style="fill: #fff"/>
    <path d="M0,90.08v460C420,278.76,840,733.28,1260,462V2C840,273.28,420-181.24,0,90.08Z"/>
    <path d="M630,463.45V348.6c-91.3-.77-182.61-1.55-273.91,12.59C447.39,385.34,538.7,424.39,630,463.45Z" style="fill: #fcd116"/>
    <path d="M609.94,454.7Q630,406,650.06,357.34C559,317,468,275.53,376.94,247.78,454.6,309.85,532.27,381.88,609.94,454.7Z" style="fill: #fcd116"/>
    <path d="M592.93,438.58c24.71-21.76,49.43-43.36,74.14-65.11-76.92-73.73-153.84-148.88-230.76-216.55C488.52,248.29,540.72,343.1,592.93,438.58Z" style="fill: #fcd116"/>
    <path d="M581.56,417.51c32.29-7.77,64.59-15.21,96.88-23-51.09-95.95-102.17-192.72-153.26-287.7Q553.37,261.87,581.56,417.51Z" style="fill: #fcd116"/>
    <path d="M577.57,394.69c34.95,7.42,69.91,15.25,104.86,22.66Q656.21,261.8,630,106,603.78,250.31,577.57,394.69Z" style="fill: #fcd116"/>
    <path d="M678.44,438.48q28.18-143.57,56.38-287.6C683.73,226,632.65,299.38,581.56,373.56,613.85,395.09,646.15,417,678.44,438.48Z" style="fill: #fcd116"/>
    <path d="M667.07,454.68c52.21-73,104.41-146.7,156.62-223.82-76.92,46.68-153.84,85.88-230.76,126.51C617.64,389.75,642.36,422.29,667.07,454.68Z" style="fill: #fcd116"/>
    <path d="M650.06,463.44c77.67-39.08,155.34-78.95,233-128.79-91,13.42-182.08,13.14-273.12,14Z" style="fill: #fcd116"/>
    <path d="M630,463.45c91.3.77,182.61,1.54,273.91-12.6C812.61,426.71,721.3,387.65,630,348.6Z" style="fill: #fcd116"/>
    <path d="M0,650.08C420,378.76,840,833.28,1260,562V362C840,633.28,420,178.76,0,450.08Z" style="fill: #0072c6"/>
    <path d="M0,1010.08C210,874.42,420,920.22,630,966,420,613.55,210,261.08,0,90.08Z" style="fill: #ce1126"/>
    <path d="M630,966c210,45.8,420,91.61,630-44V2C1050,444.29,840,705.16,630,966Z" style="fill: #ce1126"/>
  </g>
</svg>
