<svg xmlns="http://www.w3.org/2000/svg" xmlns:xlink="http://www.w3.org/1999/xlink" viewBox="0 0 1260 1012.04">
  <defs>
    <clipPath id="a">
      <path d="M0,90.08v230c245-158.27,490-69.55,735-22v230c-35-6.79-70-14.42-105-22.06C420,306.89,210,107.75,0,90.08ZM630,46C525,23.12,420,.22,315,0V536.67c-105-.22-210,22.24-315,90.07V550.08C210,261.09,420,153.55,630,46Z" style="fill: none"/>
    </clipPath>
  </defs>
  <g>
    <path d="M0,90.08v920C420,738.76,840,1193.28,1260,922V2C840,273.28,420-181.24,0,90.08Z" style="fill: #00247d"/>
    <path d="M0,90.08C210,107.75,420,306.89,630,506m0-460C420,153.55,210,261.09,0,550.08"/>
    <path d="M315,281.43C415.3,354.88,515.61,449,615.91,544.09L644.09,468C557.87,386.23,471.65,303.83,385.44,233.3c86.21-55.38,172.43-98.88,258.65-143.06Q637,68.13,630,46c-23.48-5.12-47-10.24-70.44-15.11C478,73.54,396.52,119.22,315,178.57,233.48,118.88,152,72.86,70.44,51.13A575.74,575.74,0,0,0,0,90.08v51.43c81.52,6.86,163,41.06,244.56,92C163,301.62,81.52,386.46,0,498.65v51.43q7.05,16,14.09,32.31C114.39,448.19,214.7,354.46,315,281.43Z" style="fill: #fff"/>
    <g style="clip-path: url(#a)">
      <path d="M0,90.08C210,107.75,420,306.89,630,506m0-460C420,153.55,210,261.09,0,550.08"/>
      <path d="M315,264.29C416.87,338.88,518.74,434.82,620.61,531.4l18.78-50.76C546.91,393,454.44,304.76,362,231.54c92.48-61.82,185-108.67,277.43-156L630,46c-15.65-3.41-31.31-6.83-47-10.16C493.69,82,404.35,130.66,315,195.71c-89.35-65.42-178.69-114.42-268-133Q23.49,74.94,0,90.08v34.28c89.35,7.52,178.7,47.89,268,107.13C178.7,302.73,89.35,392.83,0,515.79v34.29q4.7,10.68,9.39,21.48C111.26,434,213.13,338.46,315,264.29Z" style="fill: #cf142b"/>
    </g>
    <path d="M315,0V536.67M0,320.08c245-158.27,490-69.55,735-22"/>
    <path d="M367.5,1.9a728.67,728.67,0,0,0-105,0h0a728.67,728.67,0,0,1,105,0Z" style="fill: #fff"/>
    <path d="M262.5,538.55a731.56,731.56,0,0,1,105,0v-230C490,316.9,612.5,351,735,374.75V221.42c-122.5-23.78-245-57.85-367.5-66.19V1.9a728.67,728.67,0,0,0-105,0V155.22C175,161.86,87.5,186.88,0,243.41V396.74c87.5-56.52,175-81.54,262.5-88.19Z" style="fill: #fff"/>
    <path d="M315,0V536.67M0,320.08c245-158.27,490-69.55,735-22"/>
    <path d="M346.5.72c-21-.9-42-1-63-.08h0c21-.91,42-.82,63,.09Z" style="fill: #cf142b"/>
    <path d="M283.5,537.31c21-.91,42-.82,63,.08V276.72C476,282.31,605.5,319,735,344.08v-92C605.5,227,476,190.31,346.5,184.72V.73c-21-.91-42-1-63-.09v184C189,188.73,94.5,213,0,274.08v92C94.5,305,189,280.73,283.5,276.64Z" style="fill: #cf142b"/>
    <path d="M840,85.1C770,76.56,700,61.29,630,46V506c-210-45.8-420-91.6-630,44.06V703.41c280-180.88,560-39.16,840-5Z" style="fill: #00247d"/>
    <path d="M942.25,322c-10.89,10-26.69,22-55.07,21.29-32.79-.64-43.18-9.83-67.57-24.7h0c0,228,12.47,311.54,55.24,378.15,42.77,66.08,59,75.49,70.9,85.27,13.75-11.26,29.61-22.9,68.37-83.18,38.34-60.14,56.88-145.62,56.88-386.6-27.89,22.92-41.77,30.42-66.16,32.67C986.78,349.25,958.91,333.32,942.25,322Z" style="fill: #cc3"/>
    <path d="M1000.31,354.37c-18.42-.5-35.44-5.69-55.26-21.3-17.19,14.15-23.19,20.77-51.58,20.73-22.1,0-40,.71-66.31-19.73h0c0,70.59-2.85,166.45,7.36,223.44,10.26,57.19,12.61,65.64,20.33,86,59.92,5.83,119.84,6.38,179.76-2.56,11.11-29.68,11.67-47.2,19.9-93.47s10.28-146.31,10.52-220.59C1047,343.83,1023.28,356.74,1000.31,354.37Z" style="fill: #fff"/>
    <path d="M946,771.4c20.13-16.22,73.34-90.95,88.17-130-59.64,8.21-119.28,7-178.92.6C868,681.51,928.35,757.29,946,771.4Z" style="fill: #9cf"/>
    <path d="M1027.27,503.61c-8.78-17.64-16.57-38-35.34-42.16-14.24-3.32-13.18,2-22.31-6.29-5.68-5.9-23-17.39-20.19-8h0c5.69,18.67,23.91,38.76,28.92,48.52-6.38,10.36-7.65,9.28-6.81,28,11.08-16.59,11.28-18.33,18.41-16.3,15.63,20.57,2.8,68.25-10.11,79-12.91,11.32-10.57.18-29.91,14,8.87,10.53,19.14-1.83,27.54,1,4.57,7.32-2.17,21.38,1.38,34.15,7.42-1.36,6.53-22.2,8.26-29.86,5.42-27.75,38-50.2,39.68-76.1,6.88-5.36,13.75-3.23,22.11,1.94C1044.73,508.41,1031,510.65,1027.27,503.61Z" style="fill: #f90"/>
    <path d="M1010.22,398.61c-4.1-8.24-16.93,3.64-22.55,5.34-20.13,7.62-47.64-23.34-64.56-14.14-6.06-6.56-7.31-16.53-7.07-29.85-13.18,15.67-6.58,32.77-9.58,40.66-7.77,19.16-17.67,38-12.42,64,4,19.77,7,16.07,5.72,31.29-1.26,9.79-.59,36.55,4.12,29h0c9.17-15.2,13.71-47.09,17.76-57.82,9.38,3.41,9.28,5.52,20.77-4.14-15.44-6.25-16.6-5.87-18.37-15.81,6.48-28.92,42.08-34.86,54.55-24.6,12.89,10.13,4.7,13.05,22.34,29.25,2.56-16-9.93-22.08-11.8-33.85C991.79,408.69,1003.66,409.69,1010.22,398.61Z" style="fill: #f90"/>
    <path d="M978.35,536.45h0c-14.39-2-36.43,9.2-45.21,9.75-2.92-12.87-1.59-13.73-13.54-22.76,4.23,21.7,5.17,22.83,0,29.91-21.41,6.76-43.51-34.53-43.09-55.12,0-21,5.67-11.94,7.29-41.89-11.07,4.25-8.91,22.91-15.23,30.69-7,.9-12-14.71-21.78-18.27-3.21,9,10.1,20.21,13.87,26.53,14.27,22.13,9.38,70.56,24.18,86.85-.78,10.45-6.22,16.66-14.55,22.5,16.81,8.82,23.75-7.38,30.23-7.54,16,.11,33.17,2.24,46.24-17.33,9.93-14.89,6-16.38,16-23C969.52,553.07,985.59,537.69,978.35,536.45Z" style="fill: #f90"/>
    <path d="M987.44,463c-1.64.1-3,2-3,4.31s1.33,4.06,3,4,3-2,3-4.32S989.08,462.91,987.44,463Z" style="fill: #fff"/>
    <path d="M898.18,464.28c-1.45,1-2,3.44-1.24,5.51s2.57,2.95,4,2,2-3.45,1.23-5.52S899.63,463.31,898.18,464.28Z" style="fill: #fff"/>
    <path d="M947.27,568.08c-1.4-1.17-3.23-.54-4.07,1.41a5.15,5.15,0,0,0,1,5.68c1.41,1.18,3.23.54,4.08-1.42A5.14,5.14,0,0,0,947.27,568.08Z" style="fill: #fff"/>
  </g>
</svg>
