<svg xmlns="http://www.w3.org/2000/svg" viewBox="0 0 1260 1012.04">
  <g>
    <path d="M0,90.08v920C420,738.76,840,1193.28,1260,922V2C840,273.28,420-181.24,0,90.08Z" style="fill: #e41e20"/>
    <path d="M718.54,264.49c6.37,1.28,10.41-.44,10.41-3.27s-4-5.65-10.41-6.93-10.36.19-10.36,3S712.14,263.2,718.54,264.49Z" style="fill-rule: evenodd"/>
    <path d="M872.37,651.47c-4.81-9.09-22.21-10.88-24.72-1.41q-17.56-1.51-35.13-3.59,10.43-6.08,20.84-12.32c7.78,5.71,18.7,1.73,20.89-6.58,3.1-3.44,6.92-4.79,14.45-1.52-3.88-7.39-9.35-10-19.22-6.35-9-8-20.88-1.07-19.08,6.19q-13.87,7.83-27.73,15.34c-20.14-9.08-56.59-25.37-56.59-25.44,4.34-3.85,8.74-7.37,13.07-11.31,1.57-2.49-.82-6.15-4.14-7.43-32.53-12.91-51.16-30.32-62.44-66.72-4.72-15.26,5.48-17.38,9-7.93,4.85,13.13,10.2,27.53,24.81,40.71,5,4.61,20,4.55,11.16-5.76-9.18-9.51-13.14-13.64-17.66-33.35,0-9.52,9.5-11.9,14.8-1.74,5.67,19.82,6.25,28,16.51,42,7.78,10.59,17.92,18.54,23,19.26,9.06,1.43,18.18-7.08,6.06-16.36-17.79-10.31-24.3-21.51-26.92-31.45-2.86-17.07.27-24.46,10-14.57,13.84,18.62,40.25,52.86,54.08,68.68,15.51,14.35,33.3,16.89,47.45,5.93,8.11-8.78,5.23-19.26-7.46-18.37-28.63-.6-50.32-18.38-74.11-61.59-4.65-9.65-5.93-22.58,4.35-11.4,11.85,18.35,29.14,34.93,45.21,43s29.46,6.06,34.63,1.36c6.23-5.8,4.59-21.94-6.18-19.14-8.87,2.3-21.37,1.68-34.38-5.2S800.36,504.23,786,482.86c-4.92-11.55-3.32-20.33,6.63-13.19,23.54,24.29,53.9,44.67,69.39,36.2,11.42-6.17,11.61-24.79-2.86-25-29.16.87-40.19-7.32-68.19-37-6.37-5.91-5.93-18.16,4.21-8.66,23.54,19.41,55.68,29.4,68.31,22.4,11.35-6.21,9.69-28.46-9.44-22.59-15.31,7.81-32.21,5.64-66.08-24.57-8.54-8.69-2.17-17.09,4.85-11.89,27.23,20.47,66.91,31.85,77.23.34,4-12-3.25-19.79-13.9-12.39-23.41,19.69-49.94,4.92-64.79-8.65-4.26-3.26-12.06-17.51,1.65-12.87,35.46,14.11,70.54,10.46,76.92-14.71,3.7-8-3.58-23.33-16.52-12.4-17,15.33-35.08,13.58-57.78,9.86-11.55-4.33-11.67-17.36-2-17.71,17.92,3.27,35.59-2.31,49.75-8.77,13.84-6.47,25.32-16.82,29-32.29,2.23-13.92-11.1-30.14-19.14-16.05-11.86,20.67-38.14,38.12-67.36,37-1.52-2.85-5.35-10.16-10.07-9.1-8.58,1.93-18.8,4.65-29.32,7.77-22.69,6.7-32.14,10-29.42,29.6,2.85,20.42-12.12,29.95-24.49,23.89-10.78-5.23-16.74-16.48-14.8-33.33,1.55-13.44,15.06-27.19,30.29-32.8,9.87-3.63,24.75-3.7,42.67-4.43,10.91-.16,16.47-3.54,17.1-8,0,0-7.45,4.28-19.39,1.2-5.64-1.47-9.42-4.74-10.84-7.6,4.14-.06,11.67,2.37,18.43,3.61,9,1.62,29.86,3.14,35.4-8.95,1.72-8.26-3.76-10.67-8.87-6.06-5.48,5-7.74,9.93-18.75,9.95-6.69,0-13.39.17-22-3.6,4.85-5,12.55-9.55,19.13-7.25,2.16.76,5,3.31,7.34,7.38,1.4-9.12-1.09-20-25.52-20.16.39-7-14.16-12.84-22.89-14.47-5-.87-15.12.07-22.45,2.13a141.91,141.91,0,0,1-36.61-.44c7.84,8.56,9.31,9.28,17.15,16.75a43,43,0,0,0-25.19,14.58s13.84,2.6,17.35,4.95c-14.48,1.21-21,2.39-28.64,8.72a73.63,73.63,0,0,1,8.42,3.78c1.79,1.05,1.33,2.15-.12,3-3.13,1.76-16,14.26-19.78,17.1-3.76-4.48-16.65-22.6-19.77-25.71-1.46-1.45-1.92-2.75-.13-3a54.34,54.34,0,0,1,8.42-.11c-7.65-9.67-14.16-13.69-28.64-21.13,3.51-.85,17.35,2.54,17.35,2.54-4.15-7-13.34-18.37-25.19-25.42,7.84-4.13,9.31-4.22,17.15-9.39a191.68,191.68,0,0,1-36.61-15.12c-7.33-5.13-17.47-10.2-22.45-11.32-8.73-1.91-23.28-1.63-22.89,5.52-24.43-9-26.92,1.24-25.52,10.78,2.3-3.26,5.18-4.78,7.34-4.76,6.58.07,14.28,7.55,19.13,14.36-8.61.49-15.31-2.14-22-4.54-11-3.94-13.27-9.62-18.75-16.45-5.11-6.33-10.59-5.67-8.87,3.14,5.54,13.79,26.41,19.42,35.4,21.19,6.76,1.24,14.29,1.67,18.43,3.33-1.42,2.32-5.2,4.13-10.84,3.48a37.16,37.16,0,0,1-19.39-8.27c.63,4.65,6.19,9.95,17.09,14.17,17.93,7.42,32.81,13.52,42.68,21.18C567.17,274.4,580.68,294,582.23,308c1.94,17.69-4,26.36-14.8,27.07-12.37.86-27.34-14.7-24.49-34,2.72-18.44-6.73-25.76-29.42-41.09C503,253,492.78,246.56,484.2,241.69c-4.72-2.68-8.55,3.35-10.07,5.7-29.22-8.61-55.5-32.51-67.36-55.7-8-15.92-21.37-2.13-19.14,12.22,3.64,16.13,15.12,28.58,29,38.37,14.16,9.8,31.83,20.24,49.75,22.72,9.69,3.5,9.57,16.47-2,17.08-22.7-3.45-40.75-6.4-57.78-25.47-12.94-13.74-20.22.4-16.52,9.06,6.38,26.17,41.46,36.93,76.92,34.5,13.71-.17,5.91,11.53,1.65,13.4-14.85,8.69-41.38,15.66-64.79-8.92-10.65-9.67-17.92-3.08-13.9,9.61,10.32,33,50,30.81,77.23,19.54,7-2.94,13.39,7.61,4.85,13.46-33.87,19.26-50.77,17.62-66.08,6.35-19.13-9.86-20.79,12.31-9.44,20.63,12.63,9.26,44.77,7.13,68.31-4.54,10.14-6.25,10.58,6.18,4.21,10-28,20.88-39,25.89-68.19,18.63-14.47-2.64-14.28,16.08-2.86,24.45,15.49,11.39,45.85-1.29,69.39-17.82,9.95-3.92,11.55,5.44,6.63,15.35-14.35,16.63-27.87,25.81-40.88,29.27a52,52,0,0,1-34.38-2.92c-10.77-4.94-12.41,11-6.18,17.92,5.17,5.68,18.49,10.27,34.63,6.43s33.36-15.25,45.21-29.69c10.28-7.77,9,4.77,4.35,12.85-23.8,35.35-45.48,46.64-74.11,41.09-12.69-3.5-15.57,6.55-7.46,16.85,14.15,13.69,31.94,15.44,47.45,5.52,13.83-12.05,40.24-37.68,54.08-51.2,9.75-6.38,12.88,2.23,10,18.22-2.62,9-9.13,17.67-26.92,21.9-12.12,5.26-3,16.75,6.06,18.44,5,1,15.18-3.33,23-11,10.26-10.15,10.84-18.09,16.51-35.74,5.3-8.11,14.8-1.94,14.8,7.59-4.52,17.91-8.48,20.44-17.66,26.4-8.87,6.89,6.12,12.71,11.16,10.12,14.61-7.37,20-19.51,24.81-30.65,3.51-8,13.71-1.61,9,11.67-11.28,31.75-29.91,41.14-62.44,42-3.32.06-5.71,2.86-4.14,5.91,4.33,5.52,8.73,10.68,13.07,16.16,0-.06-36.45,2.77-56.59,6q-13.86-11.76-27.73-23.23c1.8-6.79-10.07-16.81-19.08-10.84-9.87-5.88-15.34-4.29-19.22,2.36,7.53-1.84,11.35.35,14.45,4.45,2.19,8.76,13.11,15.21,20.89,11.53q10.42,8.93,20.84,18-17.57-3.06-35.13-5.6c-2.51-10.13-19.91-12-24.72-3.67-6.33-.57-10.54,2.72-12.71,11,6.88-4.7,9.86-3.79,13.39-2.49,4.12,7.81,18.27,8.88,22.19,2.27q16.86,2.38,33.73,5.3-9.86,4.37-19.71,8.91c-11.35-8.31-26,.46-23.27,11.45-4.77,3.56-5.41,9.34-2.36,17.92,1.65-5.57,4.78-10.61,9.65-13.16,10.34,4,20.27,2,20.27-8.77q13.69-6.15,27.39-12,13.56,7.51,27.11,15.29c0,7.41,10.82,14.87,20.11,12.66,6.5,2,7.43,8.12,8.51,12.91,3.55-5.91,4.22-12.62-4-20,0-8.53-10.5-15.77-19.2-12.37q-11.5-6.18-23-12.2c20.64-3.73,58.55-3.49,58.55-3.42,5.17,6.06,9.3,10.6,14.46,16.16,2.75,2.29,6.62,3,10.84-1.8,12.89-16.91,25.07-49.93,43.69-50.83,6.85-.32,15.08,6.21,13.34,21.48-2.67,23.24-19.71,39.3-41.15,49.62-11.92,5.65-17,1-26.21-1.3-11.92-1-15.11,4.48-5.29,14.82,9.12,6.74,17.34,9.08,24,9.12,5.74.12,12.44-6.21,17.22-9.4,5.36-5.33,14.29,4.25,8.23,10.55-11,11.39-22.13,18.05-35.72,15.08-14.35-.83-11.67,8.12-2.17,14.1,17.1,10.86,32.59.36,40.38-7.11,6.06-5.57,10.4-4.89,9.31,5.54-6,18.1-14.22,23.86-27.62,22-10.84-3.27-11,5.45-3.06,13,18.11,16.85,31.25-2.57,37.38-14.71,4.33-11.27,11-4,11.73,6.14.13,13.44-9.26,25.3-17,30.5S630,780.52,630,780.53s41.15-34.72,33.4-43.28-17.14-24.49-17-37.86c.7-9.85,7.4-14.2,11.73-1.06,6.13,14.79,19.27,39.92,37.38,30.64,7.91-4.29,7.78-13.05-3.06-14.31-13.4-3.75-21.62-13.06-27.62-33.74-1.09-10.91,3.25-9.7,9.31-1.54,7.79,10.79,23.28,27.9,40.38,24,9.5-2.16,12.18-10-2.17-15-13.59-2.57-24.68-13.91-35.72-30-6.06-8.89,2.87-14.65,8.23-7,4.78,5.21,11.48,14.35,17.22,16.6a33.45,33.45,0,0,0,24,.6c9.82-6.48,6.63-13.15-5.29-16.92-9.25-1.39-14.29,1.18-26.21-9.44-21.44-19.3-38.48-42.82-41.15-67.2-1.74-16,6.49-19,13.34-15.71,18.62,8.9,30.8,47,43.69,69.2,4.22,6.49,8.09,7.37,10.84,6.18,5.16-3.5,9.29-6.41,14.46-10.47,0,.07,37.91,14.22,58.55,24.25q-11.49,2.34-23,4.51c-8.7-6.43-19.2-3.08-19.2,5.44-8.24,4.29-7.57,11.22-4,18.48,1.08-4.38,2-10.16,8.51-9.75,9.29,5.64,20.11,1.89,20.11-5.53q13.54-3.12,27.11-6.49,13.69,10,27.39,19.72c0,10.72,9.93,15.42,20.27,13.67,4.87,3.63,8,9.31,9.65,15.22,3-8,2.41-13.87-2.36-18.42,2.74-10.4-11.92-22.19-23.27-16.81q-9.86-7-19.71-14.22,16.88,1.92,33.73,3.37c3.92,7.56,18.07,9.4,22.19,2.27,3.53-.68,6.51-1,13.39,4.73C882.91,656,878.7,652,872.37,651.47ZM718.54,254.29c6.37,1.28,10.41,4.15,10.41,6.93s-4,4.55-10.41,3.27-10.36-4.4-10.36-7.23S712.14,253,718.54,254.29ZM541.46,226.88c-6.37-1.28-10.41-4.58-10.41-7.42s4-4.07,10.41-2.79,10.36,4.4,10.36,7.18S547.86,228.17,541.46,226.88Z" style="fill-rule: evenodd"/>
  </g>
</svg>
