<svg xmlns="http://www.w3.org/2000/svg" viewBox="0 0 1260 1012.04">
  <g>
    <path d="M0,90.08v920C420,738.76,840,1193.28,1260,922V2C840,273.28,420-181.24,0,90.08Z" style="fill: #d8241b"/>
    <path d="M0,1010.08C420,738.76,840,1193.28,1260,922V460.63C840,732,420,277.45,0,548.77Z" style="fill: #1f1916"/>
    <path d="M793.08,451.17q-.48-3.35-1-6.67,9.56-3.21,19.1-6.54-5.52-20.71-11-41.49-9.74,1.23-19.47,2.31a313.77,313.77,0,0,0-26.32-58.1q7.14-7,14.29-14.14-11.91-18.17-23.8-36.49-8.77,5.61-17.56,11.13a315.67,315.67,0,0,0-32.34-34.7q3.76-10.28,7.54-20.58-16.55-13.07-33.08-26.29l-10.88,18.16a259.33,259.33,0,0,0-36.67-20.38q-3.18,16.28-6.38,32.57c76.22,34.83,134.55,114.22,147,201.55,10.8,76.07-15.07,145.84-66.25,181.87q20.22,22.53,40.45,44.78,5.1-4,10.21-8Q740,660.06,733.26,650A178.93,178.93,0,0,0,759,619.52q10.47,5.64,20.93,11.15,7.76-17.65,15.5-35.39Q787,589,778.53,582.66a231.42,231.42,0,0,0,12.67-43q10.93,1.21,21.87,2.26l2.73-41.2q-10-2.83-19.93-5.83A278.81,278.81,0,0,0,793.08,451.17Z" style="fill: #f7d418"/>
    <path d="M716.13,664.05c1.43-1,2.83-2.06,4.23-3.14M676.89,684.6q2.43-.87,4.83-1.82" style="fill: lime"/>
    <path d="M645.5,655.61c-62,13.49-133.25-13.11-186.45-68.31q-9.66,12.09-19.34,24.32a299.27,299.27,0,0,0,26.08,23.78q-2.91,10.25-5.81,20.51,17.11,11,34.22,22.4l8.52-17.43a266.67,266.67,0,0,0,37.86,18.19q1,11.88,2.06,23.78Q561.32,707,580,711.42q.69-10.32,1.37-20.63a200.62,200.62,0,0,0,41.37,3.56l8.79,23.22Q649.27,715,667,712.41q-2.64-11.61-5.27-23.22a157.78,157.78,0,0,0,15.13-4.6Q661.2,670.15,645.5,655.61Z" style="fill: #f7d418"/>
    <path d="M650.89,654.31q-2.68.71-5.39,1.3" style="fill: lime"/>
    <path d="M568.57,431q21.81-13.61,43.62-27,22.32,23.05,44.63,46.11L639.27,388.6q21.06-13.32,42.11-26.74-26.32-5.6-52.64-11.38-8-29.46-16-58.92-8.28,25.92-16.55,51.84V344q-26.58-5.73-53.15-11.15,21.56,22.28,43.12,44.82Z" style="fill: #f7d418;fill-rule: evenodd"/>
    <path d="M590.21,541.76c-1.2-1.25-.61-3.25.89-3a1.88,1.88,0,0,1,1,.59c62.12,66.19,124.24,133.32,186.35,196.72l2.91-3.21C672.12,621.11,611.13,556.18,576,515.79,541,475,531.78,458.73,526.13,435.1h0c-24.73,52.85-13,84.07,28.34,127.78,41.36,43.33,112.4,99.14,206.36,192.53q7.78-8.48,15.56-17C714.33,675,652.27,607.86,590.21,541.76Z" style="fill: #f7d418;fill-rule: evenodd"/>
    <polygon points="786.44 738.37 786.45 738.37 786.45 738.36 786.44 738.37" style="fill: #f7d418;fill-rule: evenodd"/>
    <path d="M853.47,806.77c-22.35-22.14-44.69-45-67-68.4q-8.57,10.36-17.13,20.65,27.39,27.88,54.78,54.73c7.15,23.07,22.45,25.8,31.21,17.14C859.2,827.05,860.49,813.73,853.47,806.77Zm-47.44-37a2.18,2.18,0,0,1-2.44,2.37h0a3.15,3.15,0,0,1-2.45-3.11h0a2.18,2.18,0,0,1,2.44-2.36h0a3.14,3.14,0,0,1,2.45,3.1Zm13.16,12.86a2.21,2.21,0,0,1-2.45,2.38A3.09,3.09,0,0,1,814.3,782a2.2,2.2,0,0,1,2.44-2.39h0a3.11,3.11,0,0,1,2.45,3.08ZM832,795.33a2.22,2.22,0,0,1-2.44,2.41,3,3,0,0,1-2.45-3,2.22,2.22,0,0,1,2.45-2.4h0a3,3,0,0,1,2.44,3.05Z" style="fill: #f7d418;fill-rule: evenodd"/>
  </g>
</svg>
