<svg xmlns="http://www.w3.org/2000/svg" viewBox="0 0 1260 1012.04">
  <g>
    <path d="M0,90.08v920C420,738.76,840,1193.28,1260,922V2C840,273.28,420-181.24,0,90.08Z" style="fill: #3a7dce"/>
    <path d="M979.57,603.85c13.73-19.55-6.44-22.94,14.15-39.25-10.3-25.64-13.94-23.36-3.64-50.27-41.19,12.91-17.17-9.73-68.65-21.61,6.86-11,20.59-29.61,6.86-41.16,3.43-7.43,8.9-11.23,8.9-18.75,0-5.62-11.23-28.14-9.27-41.35-7.38-13.09-8.21-19.11-9.93-26.69-3.43-22.69,0-37.59,0-41.35a47.41,47.41,0,0,0-17.16-19.63c-6.87-4.17-9.12-.21-16,3-3.33-.61.78-5.71-4.85-10.3-6.82.69-10.08-3.08-13.44-10.14-7.23-4.28-16.71-6.75-35.32-16.11-6.93-2.23-9.36-3.42-15.37-5.21-2.52-.53-5.12,6.52-8,9a4.87,4.87,0,0,1-5.88.35c0-9.73-12.56-26.76-11-39.57-5.64-2.86-3.81,2.26-10.26,2.38-4-.29-10.13-16.85-15.17-17.75-3-1-42.47,14.9-53.95-22.22-1.93-3.09-10.86,3.45-16.31-6.89-3.86-17.84-10.73-13.29-18-22.83-9.87-.93-16.73,3.46-27-1.72-13.73-7.09-46.45-17.78-60.93-21.45-2.58-12.54-4.83-21.48-7.72-16a67.58,67.58,0,0,0-5.8,16.86c-.91,4.26-7.08,3-9.65,3.38s-3,9.2-5.58,5.06c-8-13.06-13.3-14.61-20.17-15-4.07,1.42,6.33,9.38,3.44,15.73-20.6-4.13-24,2.81-27.46,24.69-6.44-8-12.45,7.24-30.9,9.43.33,4.87,2.15,17.64,0,22.55-.24,1.28,3.93,4.78,2.6,10.09s-11.28,5.19-12.93,11.65,4.22,5.75,3,10.42-6.62,4-3.73,21.08c-.64,2.94-6.11,7.81-6.11,7.81s-4,4.22,1.94,12c-9.72,6.7-9.07,25.16-8.81,32.06a17.55,17.55,0,0,0-17.16,1.19q1.72,7.77,3.43,15.54c-27.46,7.34-37.22-1.85-41.29,2.93-4,6.23-14.32,7.84-34.5,7.46-3.58.19-5.73,7-16.89,6.4-10.29-4.28-17.16-19.62-30.89-31.14q-15.45-5.85-30.89-11.06c-10.3-7.18-13.73-14.59-27.46-21.2q-12-4.8-24-9.12C224.6,267.71,212.7,230.8,204,241.13c0,26.34,6.86,62.6,20.59,79.45,10.3,6.12,13.73,9.48,24,12.18,6.87,10.64,6.87,10.6,17.17,17.35-17.17,8.83-17.17,5.24-24,24.72,10.62,3,3.86,9.25,9.44,13.55s8.79,2.22,13.19,5.42c3.11-1.4,1.4-6.1,1.4-6.1s4-8.15,6.86-4.2c5.9,15.37,13.73,10.59,13.73,10.6.86,3.72-1.61,12.39.38,13.73,6.16,4.12.48,14.78,1.55,16.15,6.44,2.6,7.19-11.84,9.17-11.31s2.63-.18,6.07-.23c0,15.05,0,15,6.86,30,0,0-7.72.17-10.35,1.29,4.13,11.72-17.22,24.77-16.9,29.78-.75,2.5,3.44,39,6.65,44.51,2,3.35-20.59.9-20.59,1,0,30.2,6.86,36.8,34.33,40,0,0-4.94-10.26-3.44-11.23,7.4-7.52,6.87,14.95,6.87,14.95,29.39,13.62-3.43,9.71,10.29,30.05q6.87-1.85,13.74-3.56c3.43,41.43,10.29,19.09,3.43,64q8.58.24,17.16.67V676.5c34.33-9.2,24,9.08,44.62,18.39q12,5,24,10.18,13.74,9.2,27.46,18.73v-7.52c0-.19,42.27,9.32,46.45,11.78,9.23,2.14,4-10.47,17.7-7.92.91.16,15.66,13.88,19.67.44-1,14.41,25.82,13,31.61,14.11,6.33,1.27,42.69,35.61,63.28,32.62,10.09-1.8,10.09-16.36,17-12.75,2.26.49,13.73,36.82,13.73,36.81,3.87,11.3,3.84,14.18-.79,25-2.58,7.65,5.89,13.61-8.85,21.33-11.31,4.93-5.61,9.08-8.4,16.14-3.64,4.52-14.92,2-13.17,10.25,2.14,8,24.14,9.61,27.78,28,4.45,3.49,4-5.06,12.19-3.55,4.08.75,4.5,8.79,9.09,8.47,7.19-.53,6-3.18,13,2.43,5.25-20.79,10.62,19.28,44.41,12.93,6.57.05,14.23,10.32,16.17,10.31s7.25-12.92,10-12.84,3.73,5,6.9,5.15S778,903.22,781.2,903.35s2.89,11.2,4.24,11.28l2.11.12q8.58-.48,17.17-1s-3,8.94-3.22,11.49c.94.53,7.94-7.3,13.13-10.14s9.46-11.55,12.41-1.94c6.68-8.79,10.84-7.1,19.64-9.25,8-13.89,16.39-11.87,19.82-12.49,6.87.65,9.34,1.09,13.73,5,1.4-3.75-6.86-8.09-6.86-8.1s7.08-20.9,23.17-23.25c.86-4.62-13.3-15.49-9.44-24.5,14.8.69,33.79-10.46,34.33-13.18-1-6.84-7.19-8.84-6.87-15.3,3.86.67,17.16.56,17.16.53-10.29-19-3.43-22.63,0-41.35q5.16,2,10.3,3.89c6.87-11.28,6.87-11.2,20.6-15.21,3.54-21.8-5.8-23.48-6.87-45,18.24,3.18,7.29-30.56,34.33-31.38-3.44-44.89,6.86-34.28,10.3-64.66C987.72,619.87,978.71,605.05,979.57,603.85Z" style="fill: #fff"/>
    <path d="M1010.58,640.42a1.92,1.92,0,0,0-1.87-1.58,2.37,2.37,0,0,0-2.12,1.56,10.07,10.07,0,0,0,.37,8.87,1.87,1.87,0,0,0,1.76.9h0a2.34,2.34,0,0,0,1.76-1.2,7.45,7.45,0,0,0,.5-7.35A8.65,8.65,0,0,1,1010.58,640.42Z" style="fill: #fff"/>
    <path d="M202.66,282a7.54,7.54,0,0,0-5.52,2.9,6.64,6.64,0,0,0-.87,5.51,1.72,1.72,0,0,0,1.84,1.38.76.76,0,0,0,.21,0,2.7,2.7,0,0,0,1.91-1.66,6.54,6.54,0,0,1,2.67-3.53,3.2,3.2,0,0,0,1.4-1.53,2.48,2.48,0,0,0,0-2.12A1.68,1.68,0,0,0,202.66,282Z" style="fill: #fff"/>
    <path d="M203.5,270l-.93.18c-1.93.37-4.33.85-5.72,3.11a6.92,6.92,0,0,0-.58,5.51,1.73,1.73,0,0,0,1.84,1.39l.21,0a2.7,2.7,0,0,0,1.91-1.66,7.43,7.43,0,0,1,3.61-3.86,3.29,3.29,0,0,0,1.64-1.64,2.47,2.47,0,0,0-.12-2.27A1.72,1.72,0,0,0,203.5,270Z" style="fill: #fff"/>
    <path d="M223.21,334.21a2.65,2.65,0,0,0-1.74,3.6,2.23,2.23,0,0,0,.86.91c.35.24,1.3.85,2.45,3.29a1.79,1.79,0,0,0,1.9,1.05l.22,0a2.63,2.63,0,0,0,1.84-2c.66-3-.08-4.62-.82-5.49C226.27,333.6,223.52,334.14,223.21,334.21Z" style="fill: #fff"/>
  </g>
</svg>
