<svg xmlns="http://www.w3.org/2000/svg" viewBox="0 0 1260 1012.04">
  <g>
    <path d="M0,90.08v920C420,738.76,840,1193.28,1260,922V2C840,273.28,420-181.24,0,90.08Z" style="fill: #74acdf"/>
    <path d="M0,703.42c420-271.31,840,183.21,1260-88.11V308.64C840,580,420,125.43,0,396.75Z" style="fill: #fff"/>
    <path d="M633.9,548.85c-.54,17.23,8.59,28.76,7.4,44s6.09,25.58,7.78,32-1.83,9.23-.32,10.41,4.84-2.85,3.76-11.65-6.65-12.55-5.34-31.19c1.19-17-5.31-23.65-5-37.52q-.83-2.26-1.63-4.51Z" style="fill: #f6b40e"/>
    <path d="M635,504.7l-10,2.65,15.57,43,1.9.43c-.17,1.44-.24,2.78-.27,4.08Q656,593,669.84,631.14s.77,2.35,2,2,.47-2.68.47-2.68Q653.65,567.64,635,504.7Z" style="fill: #f6b40e"/>
    <path d="M640.59,550.35q.81,2.25,1.63,4.51c0-1.3.1-2.64.27-4.08Z" style="fill: #f6b40e"/>
    <path d="M635.8,504.53l-1.65.35q18.69,62.93,37.36,125.81c.07.2.36,1.35,0,1.45s-.81-1-.89-1.25q-13.77-38-27.55-76.1c0-1.18.12-2.4.27-3.69l-1.73-.65,0,.23-15.77-43.59-1.59.51q8.53,23.61,17.08,47.21c-.14,6.41,1.14,11.26,2.48,16.34,1.55,5.85,3.15,11.9,2.52,21-.89,12.58,1.29,18.5,3.21,23.73a33,33,0,0,1,2.13,7.69c.77,6.26-.79,9.56-1.83,10.52a1.3,1.3,0,0,1-.55.33,10.88,10.88,0,0,1,.31-1.13,14.14,14.14,0,0,0,.33-8.58,47.94,47.94,0,0,0-2.38-6.24c-2.62-6.11-6.21-14.49-5.36-25.31.61-7.86-1.39-14.61-3.52-21.75-2-6.84-4.14-13.9-3.87-22.29l-1.75-.46c-.28,8.8,1.88,16.07,4,23.1s4,13.43,3.41,20.84c-.89,11.43,2.85,20.16,5.58,26.53a47.72,47.72,0,0,1,2.24,5.85,11.82,11.82,0,0,1-.32,7.29c-.38,1.24-.87,2.79.46,3.83a1.91,1.91,0,0,0,.77.37,1.85,1.85,0,0,0,1.45-.31c1.93-1.24,3.62-5.68,2.78-12.51a34.89,34.89,0,0,0-2.28-8.29c-1.82-5-3.89-10.62-3.05-22.66.67-9.47-1-15.73-2.59-21.79a66.62,66.62,0,0,1-2.2-10.68Q656.15,595.8,669,631.36c.53,1.61,1.74,3.19,3.16,2.81a1.54,1.54,0,0,0,1.07-1,5.08,5.08,0,0,0-.11-2.87Q654.48,567.45,635.8,504.53Z" style="fill: #85340a"/>
    <path d="M626,548.71c0,1.53.09,3.06.14,4.59a33.8,33.8,0,0,1,1.61-3.35Z" style="fill: #f6b40e"/>
    <path d="M619.86,544.34c-6.19,14.43-.88,28.49-7.06,40.92s-2.31,24.62-2.73,30.85-4.84,7-3.72,8.74,5.75-.19,7.55-8.2-2.5-13.77,4.91-29.06c6.77-14,2.46-22.62,7.35-34.29,0-1.53-.1-3.06-.14-4.59Z" style="fill: #f6b40e"/>
    <path d="M626,548.71l1.75,1.24a33.8,33.8,0,0,0-1.61,3.35l2.49,77.85s0,2.36,1.35,2.65,1.34-2.06,1.34-2.06q2-62.28,4-124.54l-10.77-2.35Z" style="fill: #f6b40e"/>
    <path d="M630.47,631.54c0,.21-.1,1.32-.47,1.24s-.47-1.24-.47-1.48L627,553.65a33.59,33.59,0,0,1,1.48-3L627,549.27a1.62,1.62,0,0,0-.1.18q-.72-22.22-1.42-44.45l-1.75-.3q.76,24.07,1.54,48.15c-2.24,5.39-2.56,10.12-2.88,15.07-.38,5.71-.77,11.61-4.37,19-5,10.31-4.77,16.37-4.58,21.71a27.59,27.59,0,0,1-.4,7.55c-1.28,5.7-3.91,7.78-5.26,8.12a1.54,1.54,0,0,1-.66,0,8.9,8.9,0,0,1,.68-.82,10.73,10.73,0,0,0,3.14-7.17,43.51,43.51,0,0,0-.32-6.41c-.61-6.43-1.44-15.23,3-24.07,3.19-6.41,3.4-13.1,3.62-20.17.22-6.77.44-13.76,3.45-20.8l-1.59-1.19c-3.16,7.37-3.39,14.57-3.61,21.53s-.42,13.3-3.42,19.35c-4.64,9.33-3.77,18.5-3.14,25.2a41.68,41.68,0,0,1,.31,6,9.08,9.08,0,0,1-2.7,6.06c-.8.88-1.78,2-.8,3.48a2.34,2.34,0,0,0,2.19,1.08c2.32-.17,5.46-3.17,6.86-9.38a30,30,0,0,0,.45-8.13c-.19-5.08-.4-10.85,4.39-20.73,3.76-7.76,4.16-13.87,4.55-19.77a54.72,54.72,0,0,1,1.31-10.12q1.17,36.31,2.33,72.62c0,1.63.69,3.53,2.22,3.87.93.2,1.67-.33,2-1.45a5.77,5.77,0,0,0,.21-1.41q2-62.28,4-124.54l-1.75-.46Q632.48,569.25,630.47,631.54Z" style="fill: #85340a"/>
    <path d="M612.05,540.57l-1.35,3.95a26.07,26.07,0,0,1,2.69-2.08Z" style="fill: #f6b40e"/>
    <path d="M607.35,534c-10.88,9.45-10.2,23.89-20.42,31.67s-10.37,20-12.82,25.1-7.12,3.8-6.57,5.78,5.78,2.44,10.2-3.57,2-12.92,14.4-22.56c11.33-8.83,9.83-18.2,18.56-25.9l1.35-3.95Z" style="fill: #f6b40e"/>
    <path d="M612.05,540.57l1.34,1.87a26.07,26.07,0,0,0-2.69,2.08l-23,67.59s-.77,2,.47,2.89,2-1.15,2-1.15q22.4-52.22,44.81-104.34l-10-7Z" style="fill: #f6b40e"/>
    <path d="M589.35,613.28c-.07.18-.53,1.08-.87.85s-.07-1.27,0-1.48q11.49-33.72,23-67.4a28.3,28.3,0,0,1,2.46-1.89l-1.07-1.85-.15.11,13.14-38.56L624.2,502q-7.12,20.88-14.24,41.77c-4,3.56-5.86,7.45-7.81,11.53-2.24,4.69-4.56,9.54-10.58,14.22C583.22,576,581.46,581.3,579.91,586a21.38,21.38,0,0,1-2.87,6.26c-3.15,4.29-6.5,4.82-7.91,4.54a1.68,1.68,0,0,1-.65-.28,9,9,0,0,1,.94-.39,8.56,8.56,0,0,0,5.47-4.69,33,33,0,0,0,1.78-5.63c1.5-5.77,3.56-13.67,10.82-19.2,5.28-4,7.68-9.62,10.22-15.55,2.42-5.67,4.94-11.54,10.24-16.15l-1.19-1.75c-5.56,4.82-8.15,10.86-10.65,16.7s-4.77,11.16-9.74,14.94c-7.67,5.85-9.82,14.08-11.38,20.09a33.36,33.36,0,0,1-1.66,5.3,7.3,7.3,0,0,1-4.68,4c-1.08.39-2.42.88-1.94,2.61a2.89,2.89,0,0,0,1.83,1.91c2.36.91,6.47-.21,9.9-4.88a22.78,22.78,0,0,0,3.11-6.73c1.48-4.43,3.16-9.46,11.16-15.69,6.28-4.9,8.68-9.92,11-14.77a41,41,0,0,1,4.62-8q-10.74,31.5-21.48,63c-.53,1.39-.47,3.34.94,4.32a2.28,2.28,0,0,0,.77.35,1.74,1.74,0,0,0,1.71-.66,4.19,4.19,0,0,0,.67-1.11q22.41-52.22,44.82-104.34l-1.59-1.19Q611.76,561.08,589.35,613.28Z" style="fill: #85340a"/>
    <path d="M600.82,527.18l.72,2.21a26.41,26.41,0,0,0-3.38.57q-22.51,23.49-45,47.2s-1.43,1.37-.47,2.68,2.38-.07,2.38-.07c26.25-23,52.51-45.75,78.77-68.47l-7.62-10.56Z" style="fill: #f6b40e"/>
    <path d="M598.3,519.41c-13.93,3.05-18,15.69-30.69,17.65s-16.84,12.37-21,15.66-8.31,0-8.41,2,4.93,4.71,11.29,1.56,6.24-10.16,21.71-12.75c14.14-2.34,15.75-11,26.92-13.55l2.66-2.78Z" style="fill: #f6b40e"/>
    <path d="M600.82,527.18,598.16,530a26.41,26.41,0,0,1,3.38-.57Z" style="fill: #f6b40e"/>
    <path d="M554.42,578.92c-.13.12-.88.69-1.14.33s.35-1.12.5-1.26q22.46-23.68,44.91-47.09a28.59,28.59,0,0,1,3.08-.47c-.16-.69-.31-1.38-.46-2.08l-.19,0Q614,515,626.83,501.58c-.43-.56-.85-1.12-1.28-1.67q-13.93,14.5-27.85,29c-5.15,1.2-8.27,3.66-11.55,6.24-3.77,3-7.66,6.05-15.18,7.3-10.44,1.74-13.92,5.47-17,8.75a17,17,0,0,1-4.91,4.06c-4.52,2.24-8,1.26-9.33.32a2.39,2.39,0,0,1-.56-.54,8.91,8.91,0,0,1,1.06.09,8.44,8.44,0,0,0,7-1.55,26,26,0,0,0,3.61-4c3.39-4.26,8-10.1,17-11.51,6.56-1,10.78-4.7,15.25-8.6,4.28-3.73,8.7-7.58,15.48-9.06-.2-.68-.4-1.36-.61-2-7.11,1.56-11.66,5.52-16.06,9.36s-8.4,7.33-14.58,8.29c-9.54,1.49-14.36,7.57-17.88,12a26,26,0,0,1-3.39,3.79,7.17,7.17,0,0,1-5.94,1.27c-1.2-.15-2.69-.34-2.78,1.37a3.15,3.15,0,0,0,1.19,2.47c2.05,1.86,6.5,2.73,11.43.29a18.08,18.08,0,0,0,5.3-4.36c2.92-3.12,6.23-6.66,16.23-8.33,7.85-1.3,11.88-4.49,15.78-7.56a32.92,32.92,0,0,1,7.23-4.72q-21,21.93-42,44a3.11,3.11,0,0,0-.48,4.13,2.24,2.24,0,0,0,1.39,1,2,2,0,0,0,1.16-.11,3.39,3.39,0,0,0,1-.64c26.26-23,52.51-45.75,78.77-68.47l-1.19-1.76C607,533.15,580.68,555.87,554.42,578.92Z" style="fill: #85340a"/>
    <path d="M636.79,552.42c.71,16.81,8.8,26,7.21,40.79,3.49-11.25-4.92-22.39-4.44-40Z" style="fill: #85340a"/>
    <path d="M627.51,506.85q15.35,42.52,30.69,85-12.86-43.15-25.71-86.34Z" style="fill: #85340a"/>
    <path d="M615.38,586.82c7.15-8,2.43-21.36,8.68-36.16l-2.5-1.95C616.76,563.38,621.81,574.91,615.38,586.82Z" style="fill: #85340a"/>
    <path d="M629.94,592.27l2.7-85.52-5.39-1.17Q628.6,548.93,629.94,592.27Z" style="fill: #85340a"/>
    <path d="M607.61,538.51C598,548.81,599.29,561,589,568.18c9.73-3.52,9.42-17.11,20.49-26.85Z" style="fill: #85340a"/>
    <path d="M601.69,579.53q15.34-35.85,30.69-71.67l-5-3.49Q614.56,541.94,601.69,579.53Z" style="fill: #85340a"/>
    <path d="M597.08,523.38c-12.9,4.37-15.64,15.33-28.26,16.77,10.83,1.45,15-10.3,29.18-13.51Z" style="fill: #85340a"/>
    <path d="M577.75,555.68q27-23.61,54-47L628,503.42Q602.85,529.49,577.75,555.68Z" style="fill: #85340a"/>
    <path d="M594.07,502.78c-14.85-3.83-23,5.11-36.28,1s-20.75,2.9-25.91,3.85-8.24-3.74-9-2.11,3.34,6.28,10.68,6.47,9.5-5.89,25.7-1c14.81,4.48,19.25-2.16,31.2.8l3.55-1.14C594,508,594.06,505.38,594.07,502.78Z" style="fill: #f6b40e"/>
    <path d="M594,510.58l-3.55,1.14a34.57,34.57,0,0,1,3.54,1.07C594,512.06,594,511.32,594,510.58Z" style="fill: #f6b40e"/>
    <path d="M594,510.58c0,.74,0,1.48,0,2.21a34.57,34.57,0,0,0-3.54-1.07c-20.06,6.45-40.12,13-60.18,19.82,0,0-1.87.53-1.35,2.09s2.38,1,2.38,1c33.57-7.93,67.15-15.14,100.73-22.36Q630,506,627.94,499.76,611,505.15,594,510.58Z" style="fill: #f6b40e"/>
    <path d="M531,533.63c-.17,0-1.1.2-1.24-.24s.71-.79.91-.85c20-6.8,40-13.33,60-19.77,1,.27,2.08.6,3.21,1,.07-.66.15-1.32.22-2l-.19-.08q17.17-5.5,34.36-11c-.24-.68-.49-1.35-.73-2q-18.62,5.92-37.22,11.89c-5.51-1.35-9.42-.69-13.52,0-4.72.81-9.6,1.64-17.48-.73-10.94-3.3-15.6-1.68-19.71-.27a16.48,16.48,0,0,1-6.19,1.26c-5.22-.13-8.33-2.55-9.34-4a2.62,2.62,0,0,1-.39-.72c.26.12.69.37,1,.57,1.64,1,4.12,2.43,7.4,1.83a22.84,22.84,0,0,0,4.9-1.81c4.75-2.11,11.25-5,20.67-2.06,6.84,2.12,12.24.92,18-.36,5.47-1.21,11.13-2.47,18.36-.6l.06-2c-7.59-1.93-13.4-.67-19,.59s-10.75,2.4-17.2.39c-10-3.11-16.72-.09-21.67,2.12a23.41,23.41,0,0,1-4.59,1.71c-2.73.5-4.79-.72-6.3-1.61-1.14-.67-2.55-1.51-3.19-.08a2.9,2.9,0,0,0,.36,2.66c1.42,2.53,5.53,5.3,11.22,5.45a17.94,17.94,0,0,0,6.68-1.34c3.92-1.34,8.36-2.87,18.83.28,8.22,2.48,13.28,1.61,18.16.78a34.58,34.58,0,0,1,8.73-.71Q558,521,530,530.53a3.12,3.12,0,0,0-1.11.58,2.4,2.4,0,0,0-.72,2.75,2.75,2.75,0,0,0,1.06,1.46,2.53,2.53,0,0,0,1,.39,3.22,3.22,0,0,0,1.47-.05c33.58-7.93,67.16-15.13,100.73-22.35-.2-.69-.4-1.37-.61-2.06C598.17,518.48,564.58,525.69,531,533.63Z" style="fill: #85340a"/>
    <path d="M595.31,486.64C581.8,476.5,570.76,480.36,559,470.7s-21.51-7.09-26.92-8.64-6.92-7-8.17-5.94,1.23,6.94,8.42,10.47,11.33-.69,25.79,10.94c13.22,10.66,19.82,7,30.72,15.08l3.91.66Z" style="fill: #f6b40e"/>
    <path d="M592.72,493.27l-3.91-.66c1,.75,2.07,1.57,3.17,2.55Z" style="fill: #f6b40e"/>
    <path d="M592,495.16c-1.1-1-2.15-1.8-3.17-2.55-22-3.76-44.11-7.39-66.17-10.68,0,0-2-.39-2,1.18s2,2,2,2c35.79,8.48,71.57,17.86,107.36,27.24V499.73q-18.64-3.25-37.28-6.46Z" style="fill: #f6b40e"/>
    <path d="M630,498.7q-20.47-3.57-40.93-7.08c-5-3.7-9.14-4.94-13.44-6.23-5-1.49-10.08-3-17.11-8.69-9.76-7.85-14.9-8.62-19.44-9.3a20.51,20.51,0,0,1-6.54-1.76c-5.11-2.51-7.39-6-7.92-7.71a2.24,2.24,0,0,1-.15-.79c.22.21.56.63.83.95a13.39,13.39,0,0,0,6.71,5,27.2,27.2,0,0,0,5.43.7c5.39.37,12.77.89,21.15,7.75,6.09,5,11.85,6.44,18,8,5.83,1.48,11.86,3,18.44,8,.24-.57.48-1.14.73-1.71-6.9-5.17-13.11-6.77-19.11-8.29s-11.46-2.91-17.2-7.61c-8.85-7.26-16.54-7.8-22.15-8.18a26.26,26.26,0,0,1-5.11-.64,11.37,11.37,0,0,1-5.69-4.28c-.9-1.1-2-2.47-3.13-1.54-.32.27-.81.95-.51,2.46.57,2.82,3.73,7.1,9.31,9.83a22,22,0,0,0,7,1.93c4.32.65,9.22,1.38,18.57,8.9a45.49,45.49,0,0,0,17.77,9,44,44,0,0,1,8.91,3.43c-20.58-3.49-41.15-6.86-61.73-9.92h0c-1.39-.27-2.89.25-2.89,2a3,3,0,0,0,1.61,2.66,5,5,0,0,0,1.25.49C558.39,494.57,594.18,504,630,513.32l.06-2c-35.79-9.38-71.59-18.76-107.39-27.24-.17,0-1.14-.33-1.14-.77s1-.36,1.18-.32c22,3.28,44,6.9,66,10.65.92.69,1.88,1.46,2.87,2.34l.87-1.58-.17-.15q18.88,3.22,37.78,6.54Z" style="fill: #85340a"/>
    <path d="M601.83,473.44C591.72,458.53,579.49,456.71,571,443s-19-16.07-23.83-19.92-4.54-9.23-6.13-8.91-1,6.54,4.9,12.91,11.42,4.69,22,21.35c9.64,15.26,17.39,15.16,25.6,27.13l3.63,2.36Z" style="fill: #f6b40e"/>
    <path d="M597.08,477.9l-3.63-2.36c.76,1.11,1.52,2.3,2.28,3.63Z" style="fill: #f6b40e"/>
    <path d="M595.73,479.17c-.76-1.33-1.52-2.52-2.28-3.63-20.71-13.42-41.41-26.75-62.12-39.79,0,0-1.86-1.27-2.38.08s1.35,2.62,1.35,2.62c32.55,23.84,65.09,48.38,97.64,72.93l4.12-10.72q-17.49-11.4-35-22.76Z" style="fill: #f6b40e"/>
    <path d="M582.65,463.24c-4.44-3.57-9-7.25-14.14-15.35-7.1-11.25-11.94-14.31-16.21-17a26.58,26.58,0,0,1-5.88-4.55c-4.24-4.53-5.33-8.6-5.31-10.3a2,2,0,0,1,.11-.75c.15.29.35.8.51,1.21a16,16,0,0,0,5,7.39,36.29,36.29,0,0,0,5.15,3.14c5.21,2.82,12.34,6.7,18.4,16.46,4.41,7.09,9.65,11,15.19,15.16,5.31,4,10.8,8.08,15.72,15.34l1.29-1.11c-5.17-7.61-10.82-11.85-16.28-15.94s-10.42-7.8-14.57-14.48c-6.41-10.31-13.84-14.36-19.27-17.3a35.68,35.68,0,0,1-4.84-2.93,13.64,13.64,0,0,1-4.22-6.32c-.53-1.37-1.18-3.06-2.58-2.78-.41.08-1.12.44-1.31,1.87-.37,2.69,1.34,7.83,6,12.77a28.9,28.9,0,0,0,6.33,4.92c4.07,2.56,8.67,5.47,15.48,16.24,5.35,8.47,10.09,12.28,14.68,16a57.89,57.89,0,0,1,7.72,7.05q-29-18.76-57.91-37.08c-1.29-.88-2.94-1.13-3.53.41a2.59,2.59,0,0,0,0,1.76,5.06,5.06,0,0,0,1.81,2.27c32.54,23.84,65.09,48.37,97.63,72.92.25-.56.49-1.13.73-1.7-32.55-24.55-65.11-49.1-97.66-73-.17-.11-1-.82-.88-1.19s1.07.14,1.27.27c20.64,13,41.29,26.28,61.93,39.67.69,1,1.38,2.11,2.08,3.32l1.38-.94a2,2,0,0,0-.12-.21Q614,490,631.76,501.55c.2-.6.4-1.19.61-1.79q-19.22-12.5-38.41-25C590.17,469.3,586.5,466.34,582.65,463.24Z" style="fill: #85340a"/>
    <path d="M612.64,465.2c-5.17-17.39-16.74-24.63-20.71-40.32s-13.57-22.59-17.1-28.15-1.47-10-3.15-10.49-3.19,5.1.62,13.33,9.78,9.36,14.77,28.5c4.56,17.49,12.27,21,16.52,35l2.87,3.73Z" style="fill: #f6b40e"/>
    <path d="M604.7,467.26c-.33-1.51-.71-2.87-1.11-4.18q-24.27-31.56-48.55-62.9s-1.43-2-2.38-1.05.48,2.88.48,2.88q36.52,53.51,73.05,107.63l7.62-7.24-27.35-35.59Z" style="fill: #f6b40e"/>
    <path d="M606.46,466.81l-2.87-3.73c.4,1.31.78,2.67,1.11,4.18Z" style="fill: #f6b40e"/>
    <path d="M596.91,447.61c-3.24-5.11-6.59-10.38-9-19.68-3.37-12.92-7.16-17.79-10.51-22.08a32.18,32.18,0,0,1-4.34-6.65c-2.71-5.85-2.46-9.85-1.88-11.29a1.48,1.48,0,0,1,.36-.59c.05.32.08.85.1,1.27a16.49,16.49,0,0,0,2.53,8.67,47.24,47.24,0,0,0,4.07,5.09c4.24,4.85,10,11.5,12.87,22.65,2,8.1,6,13.88,10.12,20,4,5.85,8.08,11.91,10.6,20.38l1.64-.35c-2.64-8.89-6.87-15.12-11-21.14s-7.81-11.51-9.74-19.14c-3-11.79-9-18.72-13.45-23.77a44.53,44.53,0,0,1-3.83-4.77,13.93,13.93,0,0,1-2.11-7.39c-.08-1.41-.17-3.18-1.65-3.59-.43-.12-1.25-.15-1.91,1-1.24,2.13-1.23,7.33,1.73,13.72a34.83,34.83,0,0,0,4.65,7.16c3.19,4.09,6.81,8.73,10,21.1,2.54,9.72,6,15.17,9.35,20.45a68.92,68.92,0,0,1,5.37,9.6q-22.65-29.43-45.29-58.67c-1-1.35-2.54-2.34-3.62-1.3a2,2,0,0,0-.58,1.51,5.44,5.44,0,0,0,1,2.78q36.53,53.51,73,107.62l1.28-1.11q-36.54-54-73.07-107.67a2.93,2.93,0,0,1-.55-1.26.19.19,0,0,1,.07-.17c.27-.25,1,.63,1.17.83q24.21,31.21,48.43,62.74c.35,1.18.67,2.44,1,3.8l1.69-.17a1.55,1.55,0,0,0,0-.23q13.86,18,27.72,36.07l1.19-1.24q-15-19.54-30-39.07C602.4,456.26,599.72,452,596.91,447.61Z" style="fill: #85340a"/>
    <path d="M591.41,508.81c.05-1.07.1-2.13.14-3.2-14.26-2.22-20.57,5.88-33.57,1.33C568.26,513.14,576.23,505,591.41,508.81Z" style="fill: #85340a"/>
    <path d="M561.76,524.32c23-5.22,46.09-10.21,69.13-15.2l-2.07-6.26C606.47,509.93,584.12,517,561.76,524.32Z" style="fill: #85340a"/>
    <path d="M591.88,487.89c-13.44-8.49-22.37-4.48-33.77-14.36,8.16,10,18.74,6.75,32.58,17Z" style="fill: #85340a"/>
    <path d="M556.17,490.15c24.56,6.11,49.13,12.52,73.7,18.92v-6.29C605.3,498.47,580.73,494.16,556.17,490.15Z" style="fill: #85340a"/>
    <path d="M596,474.64l2.06-1.72c-10.58-13.48-20.77-14.19-28.83-27.93C574,457.37,585.56,459.46,596,474.64Z" style="fill: #85340a"/>
    <path d="M628.87,508.56l2.06-5.36c-23-15-46.08-30.08-69.12-44.89C584.16,474.91,606.52,491.73,628.87,508.56Z" style="fill: #85340a"/>
    <path d="M609,463c-6.12-16.4-16-21.73-19.51-37.22.71,12.8,11.52,20,16.89,37.73Z" style="fill: #85340a"/>
    <path d="M628,507.66l3.81-3.62q-27-35.22-54-70.33Q602.94,470.58,628,507.66Z" style="fill: #85340a"/>
    <path d="M626.1,463.19c.54-17.22-8.59-28.76-7.4-44s-6.09-25.57-7.78-32,1.83-9.23.32-10.42-4.84,2.85-3.76,11.65,6.65,12.55,5.34,31.19c-1.19,17,5.31,23.65,5,37.53q.83,2.25,1.63,4.5Z" style="fill: #f6b40e"/>
    <path d="M619.41,461.69q-.81-2.25-1.63-4.5c0,1.3-.1,2.64-.27,4.08Z" style="fill: #f6b40e"/>
    <path d="M617.51,461.27c.17-1.44.24-2.78.27-4.08Q604,419,590.16,380.9s-.77-2.34-2-2-.47,2.68-.47,2.68Q606.36,444.41,625,507.34l10-2.64-15.57-43Z" style="fill: #f6b40e"/>
    <path d="M616.21,440.89c-1.55-5.85-3.15-11.9-2.52-21,.89-12.58-1.29-18.5-3.21-23.73a32.81,32.81,0,0,1-2.13-7.69c-.77-6.26.79-9.55,1.83-10.51a1.25,1.25,0,0,1,.55-.34,10.88,10.88,0,0,1-.31,1.13,14.14,14.14,0,0,0-.33,8.58,47.94,47.94,0,0,0,2.38,6.24c2.62,6.12,6.21,14.49,5.36,25.31-.61,7.86,1.39,14.61,3.52,21.76,2,6.83,4.14,13.89,3.87,22.29l1.75.45c.28-8.79-1.88-16.06-4-23.1s-4-13.43-3.41-20.83c.89-11.44-2.85-20.16-5.58-26.54a46.14,46.14,0,0,1-2.24-5.85,11.82,11.82,0,0,1,.32-7.29c.38-1.24.87-2.79-.46-3.83a1.81,1.81,0,0,0-2.22-.05c-1.93,1.23-3.62,5.67-2.78,12.5a34.89,34.89,0,0,0,2.28,8.29c1.82,5,3.89,10.62,3.05,22.67-.67,9.46,1,15.72,2.59,21.78a66.62,66.62,0,0,1,2.2,10.68q-12.88-35.6-25.77-71.16c-.53-1.62-1.75-3.19-3.16-2.82-.86.24-1.32,1.1-1.24,2.37a7.19,7.19,0,0,0,.28,1.51q18.67,62.83,37.36,125.77l1.64-.35q-18.69-62.94-37.37-125.81c-.06-.21-.35-1.36,0-1.45s.8,1,.89,1.25q13.77,38,27.55,76.1-.06,1.75-.27,3.69l1.73.64,0-.23L634.18,505l1.59-.51q-8.53-23.6-17.08-47.21C618.83,450.83,617.55,446,616.21,440.89Z" style="fill: #85340a"/>
    <path d="M653.65,387.19c-1.12-1.71-5.75.2-7.55,8.2s2.5,13.78-4.91,29.06c-6.77,14-2.46,22.62-7.35,34.29,0,1.53.1,3.06.14,4.6q3.09,2.18,6.16,4.37c6.19-14.44.88-28.49,7.06-40.93s2.31-24.62,2.73-30.85S654.77,388.9,653.65,387.19Z" style="fill: #f6b40e"/>
    <path d="M633.84,458.74l-2.49-77.84s0-2.36-1.35-2.66-1.34,2.07-1.34,2.07q-2,62.26-4,124.54l10.77,2.34L634,463.34l-1.75-1.25A33.8,33.8,0,0,0,633.84,458.74Z" style="fill: #f6b40e"/>
    <path d="M632.23,462.09l1.75,1.25c0-1.54-.09-3.07-.14-4.6A33.8,33.8,0,0,1,632.23,462.09Z" style="fill: #f6b40e"/>
    <path d="M652.11,385.58c-2.32.16-5.46,3.16-6.86,9.38a29.88,29.88,0,0,0-.45,8.12c.19,5.09.4,10.86-4.39,20.74-3.76,7.76-4.16,13.86-4.55,19.77a54.61,54.61,0,0,1-1.31,10.11q-1.17-36.3-2.33-72.61c0-1.63-.69-3.54-2.22-3.87h0c-.93-.2-1.66.32-2,1.44a5.83,5.83,0,0,0-.21,1.42q-2,62.26-4,124.54l1.75.46q2-62.29,4-124.58c0-.21.1-1.32.47-1.24s.47,1.24.47,1.48L633,458.4c-.43,1-.91,2-1.48,3l1.51,1.35a1.62,1.62,0,0,0,.1-.18q.72,22.23,1.42,44.45l1.75.31q-.76-24.08-1.54-48.15c2.25-5.4,2.56-10.13,2.88-15.08.38-5.7.77-11.6,4.37-19,5-10.32,4.77-16.38,4.58-21.72a27.59,27.59,0,0,1,.4-7.55c1.28-5.69,3.91-7.78,5.26-8.11a1.39,1.39,0,0,1,.66,0,8.9,8.9,0,0,1-.68.82,10.72,10.72,0,0,0-3.14,7.16,45,45,0,0,0,.32,6.42c.61,6.43,1.44,15.23-3,24.06-3.19,6.42-3.4,13.1-3.62,20.18-.22,6.76-.44,13.76-3.45,20.79l1.59,1.2c3.16-7.37,3.39-14.57,3.61-21.54s.42-13.29,3.42-19.34c4.64-9.34,3.77-18.51,3.14-25.2a41.81,41.81,0,0,1-.31-6,9.08,9.08,0,0,1,2.7-6.07c.8-.88,1.78-2,.8-3.48A2.3,2.3,0,0,0,652.11,385.58Z" style="fill: #85340a"/>
    <path d="M646.61,469.61l1.34,1.87,1.35-4A29.19,29.19,0,0,1,646.61,469.61Z" style="fill: #f6b40e"/>
    <path d="M649.3,467.53q11.51-33.79,23-67.6s.77-2-.47-2.88-2,1.14-2,1.14Q647.44,450.42,625,502.53l10,7q6.48-19,13-38l-1.34-1.87A29.19,29.19,0,0,0,649.3,467.53Z" style="fill: #f6b40e"/>
    <path d="M682.26,419.06c-4.42,6-2,12.92-14.4,22.57-11.33,8.82-9.83,18.2-18.56,25.9l-1.35,4,4.7,6.57c10.88-9.46,10.2-23.9,20.42-31.67s10.37-20,12.82-25.11,7.12-3.8,6.57-5.77S686.68,413.05,682.26,419.06Z" style="fill: #f6b40e"/>
    <path d="M691.46,413.42c-2.36-.91-6.47.21-9.9,4.88a23,23,0,0,0-3.11,6.74c-1.48,4.43-3.16,9.46-11.16,15.69-6.28,4.89-8.68,9.91-11,14.77a41.19,41.19,0,0,1-4.62,8q10.74-31.5,21.48-63c.53-1.39.46-3.33-.94-4.32a1.8,1.8,0,0,0-1.51-.33c-1.05.28-1.6,1.63-1.64,1.75q-22.41,52.23-44.82,104.34l1.59,1.2Q648.24,451,670.65,398.76c.07-.18.53-1.08.87-.84s.07,1.27,0,1.48q-11.49,33.71-23,67.39a28.3,28.3,0,0,1-2.46,1.89c.35.62.71,1.24,1.07,1.85l.15-.1L634.16,509l1.64,1.07q7.13-20.88,14.24-41.77c4-3.56,5.86-7.45,7.81-11.52,2.24-4.69,4.56-9.54,10.58-14.23,8.35-6.51,10.11-11.79,11.66-16.44a21.43,21.43,0,0,1,2.87-6.27c3.12-4.24,6.39-4.85,7.86-4.54h0a1.69,1.69,0,0,1,.66.27,6.07,6.07,0,0,1-.94.39,8.57,8.57,0,0,0-5.47,4.69,33.48,33.48,0,0,0-1.78,5.64c-1.5,5.76-3.56,13.66-10.82,19.19-5.28,4-7.67,9.62-10.21,15.55-2.43,5.68-4.95,11.54-10.25,16.15.4.58.8,1.17,1.19,1.76,5.56-4.83,8.15-10.87,10.65-16.71s4.77-11.15,9.74-14.94c7.67-5.84,9.82-14.07,11.38-20.08a32.26,32.26,0,0,1,1.67-5.3,7.23,7.23,0,0,1,4.67-3.95c1.08-.39,2.42-.88,1.94-2.62A2.89,2.89,0,0,0,691.46,413.42Z" style="fill: #85340a"/>
    <path d="M661.84,482.09q22.51-23.5,45-47.2s1.43-1.38.47-2.69-2.38.07-2.38.07c-26.25,23-52.51,45.75-78.77,68.47l7.62,10.56q12.69-13.21,25.37-26.44l-.72-2.21A26.47,26.47,0,0,0,661.84,482.09Z" style="fill: #f6b40e"/>
    <path d="M710.47,455.78c-6.36,3.14-6.24,10.17-21.71,12.75-14.14,2.34-15.75,11-26.92,13.56l-2.66,2.77,2.52,7.78c13.93-3.05,18-15.7,30.69-17.66s16.84-12.37,21-15.66,8.31,0,8.41-2S716.83,452.63,710.47,455.78Z" style="fill: #f6b40e"/>
    <path d="M658.46,482.65l.72,2.21,2.66-2.77A26.47,26.47,0,0,1,658.46,482.65Z" style="fill: #f6b40e"/>
    <path d="M721.45,455.11c-2-1.86-6.49-2.74-11.43-.3a18.24,18.24,0,0,0-5.3,4.36c-2.92,3.12-6.23,6.67-16.23,8.33-7.85,1.31-11.88,4.49-15.78,7.57a33.28,33.28,0,0,1-7.23,4.72q21-21.93,42-44.05a3.11,3.11,0,0,0,.48-4.13,2.09,2.09,0,0,0-2.55-.86,3.32,3.32,0,0,0-1,.65c-26.26,23-52.51,45.74-78.77,68.46.4.59.79,1.18,1.19,1.76,26.26-22.73,52.53-45.44,78.79-68.5a2.57,2.57,0,0,1,.61-.38c.39-.15.49,0,.53.06.27.36-.35,1.11-.5,1.26q-22.46,23.67-44.91,47.08a26.23,26.23,0,0,1-3.08.48c.16.69.31,1.38.46,2.07l.19,0-25.71,26.8c.43.55.86,1.11,1.28,1.67q13.93-14.5,27.85-29c5.15-1.2,8.27-3.66,11.55-6.25,3.77-3,7.66-6.05,15.18-7.3,10.44-1.74,13.92-5.46,17-8.74a16.71,16.71,0,0,1,4.9-4.07c4.52-2.24,8-1.25,9.33-.31a2.21,2.21,0,0,1,.56.53,7.21,7.21,0,0,1-1.06-.09,8.51,8.51,0,0,0-7,1.55,26.16,26.16,0,0,0-3.61,4c-3.39,4.26-8,10.09-17,11.5-6.55,1-10.78,4.7-15.25,8.6-4.27,3.73-8.69,7.58-15.47,9.06.2.69.4,1.37.61,2.05,7.11-1.55,11.66-5.52,16.06-9.36s8.4-7.33,14.58-8.29c9.54-1.49,14.36-7.57,17.89-12a24.76,24.76,0,0,1,3.38-3.78,7.14,7.14,0,0,1,5.94-1.27c1.2.15,2.69.33,2.78-1.37A3.15,3.15,0,0,0,721.45,455.11Z" style="fill: #85340a"/>
    <path d="M623.21,459.63c-.71-16.82-8.8-26-7.21-40.79-3.49,11.25,4.92,22.38,4.44,40Z" style="fill: #85340a"/>
    <path d="M627.51,506.52l5-1.33-30.69-85Q614.66,463.33,627.51,506.52Z" style="fill: #85340a"/>
    <path d="M627.36,505.29l5.39,1.17q-1.35-43.33-2.69-86.68Z" style="fill: #85340a"/>
    <path d="M638.44,463.33c4.8-14.66-.25-26.19,6.18-38.11-7.15,8-2.43,21.36-8.68,36.17Z" style="fill: #85340a"/>
    <path d="M650.53,470.72l1.86,2.81c9.57-10.3,8.32-22.46,18.63-29.67C661.29,447.38,661.6,461,650.53,470.72Z" style="fill: #85340a"/>
    <path d="M627.62,504.18l5,3.49,25.72-75.16Q643,468.36,627.62,504.18Z" style="fill: #85340a"/>
    <path d="M628.23,503.35l3.81,5.28q25.11-26.08,50.21-52.26Q655.24,480,628.23,503.35Z" style="fill: #85340a"/>
    <path d="M662.92,488.66c12.9-4.37,15.64-15.33,28.26-16.77-10.83-1.45-15,10.31-29.18,13.52C662.31,486.49,662.61,487.58,662.92,488.66Z" style="fill: #85340a"/>
    <path d="M666,499.25c0,.74,0,1.48,0,2.22l3.55-1.14A34.75,34.75,0,0,1,666,499.25Z" style="fill: #f6b40e"/>
    <path d="M669.52,500.33c20.06-6.45,40.12-13,60.18-19.82,0,0,1.87-.54,1.35-2.09s-2.38-1-2.38-1c-33.57,7.93-67.15,15.14-100.73,22.36q2.07,6.27,4.12,12.53,17-5.4,33.91-10.82c0-.74,0-1.48,0-2.22A34.75,34.75,0,0,0,669.52,500.33Z" style="fill: #f6b40e"/>
    <path d="M726.42,500.1c-7.33-.2-9.5,5.89-25.7,1-14.81-4.48-19.26,2.17-31.2-.79L666,501.47c0,2.6,0,5.2,0,7.8,14.85,3.82,23-5.11,36.28-1s20.75-2.9,25.91-3.85,8.24,3.75,9,2.12S733.76,500.28,726.42,500.1Z" style="fill: #f6b40e"/>
    <path d="M726.3,499.06a17.74,17.74,0,0,0-6.68,1.33c-3.92,1.35-8.36,2.88-18.83-.28-8.23-2.48-13.27-1.61-18.16-.77a34.6,34.6,0,0,1-8.73.7c18.71-6,37.42-12.16,56.13-18.52a3.43,3.43,0,0,0,1.11-.59,2.38,2.38,0,0,0,.72-2.74,2.83,2.83,0,0,0-1.06-1.47,3.13,3.13,0,0,0-2.43-.34c-33.58,7.93-67.16,15.14-100.73,22.36.2.68.4,1.36.61,2.05,33.58-7.23,67.17-14.44,100.76-22.38a1.68,1.68,0,0,1,1.12.07.26.26,0,0,1,.11.17c.15.43-.71.8-.9.86-20,6.79-40,13.33-60,19.76a32.35,32.35,0,0,1-3.21-1c-.07.66-.15,1.32-.22,2l.19.07q-17.17,5.52-34.36,11c.24.67.48,1.34.73,2q18.62-5.92,37.22-11.89c5.47,1.35,9.43.69,13.52,0,4.72-.8,9.61-1.64,17.48.73,10.92,3.29,15.59,1.69,19.71.27a16.48,16.48,0,0,1,6.19-1.26c5.23.14,8.33,2.56,9.34,4a2.62,2.62,0,0,1,.39.72,11.16,11.16,0,0,1-1-.56c-1.64-1-4.12-2.44-7.4-1.83a23.3,23.3,0,0,0-4.9,1.8c-4.74,2.12-11.24,5-20.67,2.07-6.84-2.14-12.24-.92-18,.35-5.47,1.22-11.13,2.48-18.36.6l-.06,2c7.59,2,13.4.67,19-.58s10.76-2.41,17.2-.4c10,3.1,16.72.09,21.67-2.11a22.19,22.19,0,0,1,4.59-1.71,8.72,8.72,0,0,1,6.3,1.6c1.14.68,2.55,1.51,3.19.08a2.9,2.9,0,0,0-.36-2.66C736.1,502,732,499.2,726.3,499.06Z" style="fill: #85340a"/>
    <path d="M664.69,525.41c13.51,10.14,24.55,6.27,36.34,15.93S722.54,548.43,728,550s6.92,7,8.17,5.95-1.23-6.95-8.42-10.47-11.33.68-25.79-11c-13.22-10.65-19.82-7-30.72-15.07l-3.91-.67Z" style="fill: #f6b40e"/>
    <path d="M667.28,518.77l3.91.67c-1-.76-2.07-1.58-3.17-2.56Z" style="fill: #f6b40e"/>
    <path d="M737.36,527c-35.79-8.48-71.57-17.86-107.36-27.24v12.59q18.64,3.24,37.28,6.45l.74-1.89c1.1,1,2.15,1.8,3.17,2.56,22,3.76,44.11,7.39,66.17,10.67,0,0,2,.4,2-1.18S737.36,527,737.36,527Z" style="fill: #f6b40e"/>
    <path d="M738.64,526.44a4.32,4.32,0,0,0-1.25-.49c-35.78-8.47-71.57-17.85-107.36-27.23l-.06,2c35.8,9.38,71.59,18.76,107.39,27.24a2.67,2.67,0,0,1,.73.29c.41.24.41.4.41.48,0,.44-1,.36-1.18.33-22-3.28-44-6.9-66-10.65-.92-.69-1.87-1.47-2.86-2.35-.3.53-.59,1.06-.88,1.59l.17.15q-18.88-3.24-37.78-6.54l.06,2.06q20.47,3.55,40.93,7.07c5,3.7,9.14,4.94,13.45,6.24a43.6,43.6,0,0,1,17.1,8.68c9.76,7.86,14.91,8.63,19.44,9.3a20.35,20.35,0,0,1,6.54,1.77c5.11,2.51,7.39,6,7.93,7.7a2.45,2.45,0,0,1,.14.8c-.22-.22-.56-.63-.83-1a13.39,13.39,0,0,0-6.71-5,27.2,27.2,0,0,0-5.43-.7c-5.39-.37-12.77-.89-21.15-7.75-6.09-5-11.85-6.44-18-8-5.83-1.49-11.86-3-18.44-8-.24.56-.48,1.13-.73,1.7,6.9,5.18,13.11,6.77,19.11,8.3s11.46,2.91,17.2,7.61c8.85,7.25,16.54,7.79,22.15,8.17a25.54,25.54,0,0,1,5.11.65,11.32,11.32,0,0,1,5.69,4.28c.63.77,1.37,1.67,2.14,1.82a1.11,1.11,0,0,0,1-.29c.32-.27.81-.95.51-2.46-.57-2.82-3.73-7.09-9.31-9.83a21.71,21.71,0,0,0-7-1.92c-4.32-.65-9.22-1.38-18.57-8.91-7.34-5.91-12.65-7.5-17.77-9a44.57,44.57,0,0,1-8.91-3.42c20.58,3.49,41.15,6.85,61.73,9.92h0a3.79,3.79,0,0,0,1.28,0,1.91,1.91,0,0,0,1.61-2A3.05,3.05,0,0,0,738.64,526.44Z" style="fill: #85340a"/>
    <path d="M662.92,534.14l3.63,2.36c-.76-1.1-1.52-2.3-2.28-3.63Z" style="fill: #f6b40e"/>
    <path d="M658.17,538.61c10.11,14.9,22.34,16.72,30.87,30.46s19,16.07,23.83,19.91,4.54,9.23,6.13,8.91,1-6.54-4.9-12.9-11.42-4.69-22-21.36c-9.64-15.26-17.39-15.16-25.6-27.13l-3.63-2.36Z" style="fill: #f6b40e"/>
    <path d="M729.7,573.6c-32.55-23.85-65.09-48.39-97.64-72.94Q630,506,627.94,511.39q17.49,11.39,35,22.75l1.35-1.27c.76,1.33,1.52,2.53,2.28,3.63q31.07,20.14,62.12,39.8s1.86,1.27,2.38-.08S729.7,573.6,729.7,573.6Z" style="fill: #f6b40e"/>
    <path d="M730.06,572.74c-32.54-23.84-65.09-48.38-97.63-72.93-.25.57-.49,1.14-.73,1.7,32.55,24.56,65.11,49.11,97.67,73a2.78,2.78,0,0,1,.88,1,.21.21,0,0,1,0,.19c-.14.38-1.07-.13-1.27-.26-20.64-13-41.29-26.29-61.93-39.67-.69-1-1.38-2.12-2.08-3.33l-1.39,1,.13.21q-17.73-11.5-35.46-23.07l-.6,1.79q19.2,12.51,38.4,25c3.79,5.49,7.47,8.45,11.31,11.54,4.44,3.57,9,7.25,14.14,15.36,7.1,11.25,11.94,14.3,16.21,17a26.58,26.58,0,0,1,5.88,4.55c4.24,4.53,5.33,8.61,5.31,10.3a2,2,0,0,1-.11.75c-.15-.28-.35-.8-.51-1.2a16.07,16.07,0,0,0-5-7.4,35.41,35.41,0,0,0-5.15-3.13c-5.21-2.82-12.34-6.71-18.4-16.47-4.41-7.08-9.65-11-15.19-15.15-5.31-4-10.79-8.09-15.72-15.35l-1.28,1.11c5.16,7.61,10.81,11.85,16.27,15.94s10.43,7.8,14.57,14.48c6.41,10.32,13.84,14.36,19.27,17.3a35.68,35.68,0,0,1,4.84,2.93,13.69,13.69,0,0,1,4.22,6.32c.45,1.17,1,2.59,2,2.79a1.32,1.32,0,0,0,.56,0c.41-.09,1.12-.44,1.31-1.88.37-2.69-1.35-7.83-6-12.77a29.21,29.21,0,0,0-6.33-4.92c-4.07-2.56-8.67-5.47-15.48-16.24-5.35-8.46-10.09-12.27-14.67-16a58.11,58.11,0,0,1-7.73-7.06q29,18.76,57.91,37.08a4.75,4.75,0,0,0,1.27.6,1.71,1.71,0,0,0,2.26-1,2.62,2.62,0,0,0,0-1.77A5,5,0,0,0,730.06,572.74Z" style="fill: #85340a"/>
    <path d="M647.36,546.84c5.17,17.4,16.74,24.63,20.71,40.33s13.57,22.59,17.1,28.14,1.47,10,3.15,10.49,3.19-5.1-.62-13.33-9.78-9.36-14.77-28.49c-4.56-17.5-12.27-21.05-16.52-35l-2.87-3.72Z" style="fill: #f6b40e"/>
    <path d="M633.81,502.41l-7.62,7.23,27.35,35.6,1.76-.46c.33,1.51.71,2.88,1.11,4.18q24.27,31.56,48.55,62.9s1.43,2,2.38,1-.48-2.88-.48-2.88Q670.34,556.53,633.81,502.41Z" style="fill: #f6b40e"/>
    <path d="M653.54,545.24l2.87,3.72c-.4-1.3-.78-2.67-1.11-4.18Z" style="fill: #f6b40e"/>
    <path d="M707.5,609.47Q671,556,634.45,501.85L633.17,503q36.52,54,73.07,107.67c.13.17.75,1.17.48,1.43s-1-.62-1.17-.82Q681.34,580,657.12,548.5c-.35-1.19-.68-2.45-1-3.8l-1.69.16c0,.08,0,.16,0,.24L626.79,509l-1.19,1.24,30,39.08c2,6.44,4.65,10.67,7.46,15.1,3.24,5.1,6.59,10.37,9,19.67,3.37,12.92,7.16,17.79,10.51,22.09a32.1,32.1,0,0,1,4.34,6.64c2.71,5.86,2.46,9.86,1.88,11.3a1.67,1.67,0,0,1-.36.59c-.05-.32-.08-.86-.1-1.27a16.49,16.49,0,0,0-2.53-8.68,46.26,46.26,0,0,0-4.07-5.08c-4.24-4.85-10-11.51-12.87-22.66-2-8.1-6-13.88-10.12-20-4-5.85-8.08-11.91-10.6-20.38l-1.64.36c2.64,8.88,6.87,15.11,11,21.14s7.81,11.5,9.74,19.13c3,11.79,9,18.72,13.45,23.77a44.53,44.53,0,0,1,3.83,4.78,13.9,13.9,0,0,1,2.11,7.38c.08,1.42.17,3.18,1.65,3.59l.1,0a1.64,1.64,0,0,0,1.81-1c1.24-2.13,1.23-7.33-1.73-13.72a34.91,34.91,0,0,0-4.65-7.17c-3.19-4.09-6.81-8.73-10-21.1-2.54-9.72-6-15.17-9.35-20.45a68.92,68.92,0,0,1-5.37-9.6q22.65,29.43,45.29,58.67c1,1.36,2.54,2.34,3.62,1.3a2.62,2.62,0,0,0,.28-2.93A6.28,6.28,0,0,0,707.5,609.47Z" style="fill: #85340a"/>
    <path d="M629.11,502.93l2.07,6.26c22.35-7.08,44.7-14.16,67.06-21.47C675.19,493,652.15,497.94,629.11,502.93Z" style="fill: #85340a"/>
    <path d="M668.59,503.23c-.05,1.07-.09,2.14-.14,3.21,14.26,2.22,20.57-5.89,33.57-1.34C691.74,498.9,683.77,507.05,668.59,503.23Z" style="fill: #85340a"/>
    <path d="M668.12,524.16c13.44,8.49,22.37,4.47,33.77,14.36-8.16-10-18.74-6.76-32.58-17Z" style="fill: #85340a"/>
    <path d="M630.13,509.26c24.57,4.31,49.14,8.62,73.7,12.64-24.56-6.12-49.13-12.52-73.7-18.93Z" style="fill: #85340a"/>
    <path d="M664.05,537.41c-.69.57-1.38,1.14-2.06,1.72,10.58,13.47,20.77,14.18,28.83,27.92C686,554.68,674.44,552.58,664.05,537.41Z" style="fill: #85340a"/>
    <path d="M629.07,508.85c23,15,46.08,30.08,69.12,44.88-22.35-16.6-44.71-33.42-67.06-50.25Z" style="fill: #85340a"/>
    <path d="M651,549.05c6.12,16.4,16,21.74,19.51,37.22-.71-12.8-11.52-20-16.89-37.73Z" style="fill: #85340a"/>
    <path d="M628.15,508q27,35.22,54,70.34-25.11-36.89-50.21-74Z" style="fill: #85340a"/>
    <path d="M630,454.91c-24.16-5.28-43.75,13.4-43.75,41.63s19.59,55.31,43.75,60.59,43.75-13.39,43.75-41.63S654.16,460.19,630,454.91Z" style="fill: #f6b40e"/>
    <path d="M630,453.53c-24.78-5.42-44.93,13.81-44.93,42.76s20.15,56.8,44.93,62.22,44.93-13.8,44.93-42.75S654.78,459,630,453.53Zm0,102.22c-23.47-5.13-42.57-31.54-42.57-59s19.1-45.63,42.57-40.5,42.57,31.54,42.57,59S653.47,560.89,630,555.75Z" style="fill: #85340a"/>
    <path d="M644.92,498.34a6.68,6.68,0,0,0-7.54,3c3.37,4.27,10.8,6.28,15.85,3.05a14.23,14.23,0,0,0-8.32-6.07Zm6,5.15c-3.36,3.59-8.74,2.05-12.11-1.83a5.46,5.46,0,0,1,6.11-2.52h0C647.77,499.71,650.49,501.86,650.87,503.49Z" style="fill: #843511"/>
    <path d="M645.48,496h0c-4.37-1-5.38,0-7.4,1.53s-3,.91-3.37,1.23,0,1.57.68,1.33a14.36,14.36,0,0,0,4-2.27c2-1.52,4-1.08,6.06-.64,6.06,1.32,9.42,7.94,10.1,7.69S652.21,497.5,645.48,496Z" style="fill: #85340a"/>
    <path d="M632.69,491.67a24.69,24.69,0,0,0-1.06,4.25c-.87,5.64.07,12,2.74,18.53a1.94,1.94,0,0,1,1.35-.49c-3-5.61-4.2-10.71-3.52-15a13.52,13.52,0,0,1,2.51-6c5.38-4.72,15.13-1.42,22.87,8.11C650.18,487.62,640.09,486.21,632.69,491.67Z" style="fill: #85340a"/>
    <path d="M657.59,501Z" style="fill: #85340a"/>
    <path d="M644.81,498.63c-1.68-.37-3,.92-3,2.88a4.32,4.32,0,0,0,3,4.19c1.67.37,3-.92,3-2.88A4.32,4.32,0,0,0,644.81,498.63Z" style="fill: #85340a"/>
    <path d="M640.1,505.09c-2.7-2.16-3.37-3.1-4-3.24s-.67.64,2.69,3.73a11.61,11.61,0,0,0,14.81.86h0C646.83,508.13,642.79,507.25,640.1,505.09Z" style="fill: #85340a"/>
    <path d="M637.09,514.63a3.08,3.08,0,0,1,1.33,2.54c0,1.3-.9,2.16-2,1.91a2.89,2.89,0,0,1-2-2.68,3.9,3.9,0,0,1-4.18,2.25c-2.56-.67-3.86-3.24-4.19-4.07a1.7,1.7,0,0,1-2,1.8,2.89,2.89,0,0,1-2-2.8,1.83,1.83,0,0,1,1.33-2h0c-1.44,0-2.46,1.26-2.46,3a4.31,4.31,0,0,0,3,4.17,2.27,2.27,0,0,0,2.46-1,7.11,7.11,0,0,0,3.64,2l.39.08a5.08,5.08,0,0,0,3.65-.35,3.82,3.82,0,0,0,2.46,2c1.67.36,3-.89,3-2.84A4.5,4.5,0,0,0,637.09,514.63Z" style="fill: #85340a"/>
    <path d="M630,524.76h0a10,10,0,0,0-3.34-1.93c-3.37-.74-4.7,2.53-7.73,4.23,1.68-.41,3-1.68,5.37-2.74s4.36,1.3,5.7,1.59h0c1.35.3,3.36-1.18,5.71.9s3.73,3.94,5.42,5.09c-3-3-4.41-6.88-7.78-7.61A7,7,0,0,0,630,524.76Z" style="fill: #85340a"/>
    <path d="M630,528.67h0c-1.26-.28-2.26-1.07-4.48-1.44h0a19,19,0,0,0-5.61,0c6.06-.25,7.4,2.42,10.09,3h0c2.7.59,4-1.5,10.09,1.4C633.35,527.85,632,529.11,630,528.67Z" style="fill: #85340a"/>
    <path d="M630,533.8h0c-5.68-1.24-3.93-5.32-9.79-6.51-.39-.08-.82-.17-1.28-.22,7.07,2.33,3.67,6.32,11.07,7.93h0c7.4,1.62,4-3.84,11.12-3.09C633.72,529.51,636.06,535.12,630,533.8Z" style="fill: #85340a"/>
    <polygon points="620.16 527.28 620.16 527.28 620.16 527.28 620.16 527.28" style="fill: #85340a"/>
    <path d="M630,535.12c-3.35-.73-6.06,1.85-6.06,5.76.66-3.14,3.17-4.9,6.06-4.27s5.39,3.49,6,6.91C636.06,539.61,633.35,535.85,630,535.12Z" style="fill: #85340a"/>
    <path d="M602.8,489.1h0Z" style="fill: #85340a"/>
    <path d="M627.71,490.59c-7.4-8.69-17.49-11.68-24.9-1.5,7.74-6.17,17.49-5.23,22.87,1.84a20.49,20.49,0,0,1,2.51,7.12,18.48,18.48,0,0,1-3.52,13.5,3.15,3.15,0,0,1,1.35,1.08,29.14,29.14,0,0,0,2.74-17.33A34,34,0,0,0,627.71,490.59Z" style="fill: #85340a"/>
    <path d="M622.32,494.13c-2-2.4-3-3.8-7.41-4.75h0c-6.73-1.46-10.76,4-10.09,4.5s4-4.63,10.09-3.31a9.37,9.37,0,0,1,6.06,3.28,26.48,26.48,0,0,0,4,4c.67.55,1-.56.67-1S624.34,496.54,622.32,494.13Z" style="fill: #85340a"/>
    <path d="M614.71,491.76a6.68,6.68,0,0,0-7.54,3c3.37,4.27,10.8,6.27,15.85,3.05a14.23,14.23,0,0,0-8.32-6.07Zm5.95,5.15c-3.36,3.59-8.74,2-12.11-1.83a5.48,5.48,0,0,1,6.11-2.53h0C617.56,493.12,620.28,495.28,620.66,496.91Z" style="fill: #843511"/>
    <path d="M615.1,492.15c-1.67-.36-3,.93-3,2.88a4.34,4.34,0,0,0,3,4.2c1.67.36,3-.93,3-2.88A4.34,4.34,0,0,0,615.1,492.15Z" style="fill: #85340a"/>
    <path d="M620.3,500.77c-2.7,1-6.73.11-13.46-4.5h0c5.72,6.35,11.44,7.2,14.81,5.58s3.37-2.41,2.69-2.56S623,499.78,620.3,500.77Z" style="fill: #85340a"/>
  </g>
</svg>
