<svg xmlns="http://www.w3.org/2000/svg" viewBox="0 0 1260 932.86">
  <g>
    <path d="M0,922.8C419.79,672,839.58,1085.2,1259.37,835.07V0C839.58,250.13,419.79-163.06,0,87.73Z" style="fill: #006"/>
    <path d="M1259.37,835.07V0C839.58,389.31,419.79,115.29,0,505.27,419.79,393.65,839.58,946,1259.37,835.07Z" style="fill: #bd1021"/>
    <path d="M1259.37,790.32V44.74C884.56,392.34,509.74,211.13,134.93,445.89,509.74,459.66,884.56,889.39,1259.37,790.32Z" style="fill: #fff"/>
    <path d="M1260,916.16c-2.29,2.2-4.45,4.17-6.4,5.8-1.56-3.64-7.26,1.44-14.86,9.21q10.63-5.79,21.26-12.14Z" style="fill: #aa5323"/>
    <path d="M1253.81,923.25c.65-.54,1.33-1.14,2-1.75l-3.09,1.8C1253,923.6,1253.39,923.6,1253.81,923.25Z"/>
    <path d="M1252.62,923.12a.63.63,0,0,0,.12.18c1-.59,2.06-1.2,3.09-1.8,1.33-1.17,2.72-2.46,4.17-3.85v-3c-2.08,2-4,3.83-5.85,5.37-2.57-3.35-9.55,3.52-18.53,12.83q3.24-1.74,6.48-3.53C1247.47,924.05,1251.61,920.76,1252.62,923.12Z"/>
    <path d="M1234.94,280.82c-3.66-1.6-4.88-1.83-6.46-1.5,0-.06-1.43-6-15.78-.56,0,0-6.31-1.34-13.78,5.15,0,0-6.31-.1-15.28,7.63s-17.07,15.47-23,23.06-11.91,15.36-16.29,11.91c0,.07,15.93-14.79,20.52-30.21,0,.07-15.28,11.5-17.22,10,0,0-.57-.59,10.48-10s20-22.62,22-35.59c0,.16-23.75,23.72-32.28,24.91,0,.05,12.26-16.75,10.61-22.53,0,0-9.54,12.3-11,10.76s3.15-7.9,5.74-11,5.59-9.11,2.43-11.68c0,.14,21.6-24.77,23.75-40.91,0,0-3.37,4-5.38,4.73,0,0,11.55-16.86,9.76-30,0,0-1.87,3.7-4.38,5.22,0,0,6.46-16-.65-21.17,0,.12-19.36,25.57-23.53,29.9a18.89,18.89,0,0,0-1.36-4.71,28.88,28.88,0,0,0,7.53-20.45c0,.18-25.39,29.06-32.42,39.57,0,0,.64-6-.58-9.51,0,.11-42.54,59.15-85.72,85.09a19,19,0,0,0-1.58-8.6s-7.61,9.18-23.39,20.14-17.79,14.84-18.08,15.19a30.2,30.2,0,0,0-2.87-6.48c0-.12.29,7.41-27.11,24.42-27.41,16.65-43.33,53.34-21.24,60.42,0,.05-16.46,17.11-12.27,41a10.55,10.55,0,0,0,6.24,8.28s5.67,3.22,13.92-6.47,17.08-10.61,18.15-10.1a57.79,57.79,0,0,0-5.09,8.18,2.44,2.44,0,0,1-.79-1,79,79,0,0,0-6.82,14s-3.08-1.14-3.15-8.62c0,0-14.22,24.65-24.39,39.31-8.33,12-16.43,20-16.56,30.46-.2,15.4-2,15.16-3.72,19.54,0,0-4.78,9.33,0,14.81s14.15,4,17.22.4c0,.06,18.74-13.56,21-24.87,0,0,4.4,1.1,12.24-9.18s17.41-17.21,20.09-19.47a29.93,29.93,0,0,1,18-7.14s6.51-.92,9.76.65a19,19,0,0,0,1.91-3.8s5.93.72,6.7,1.95c0,0,.76-3.12,0-3.8,0,0,7.84,1,5.54-2,0,0,9.38-2.5,10.53-.4s7.46-9.61,8-2.48,3.25,18.52,8.34,25.83c0,0,2.18,5.76,7.54,8.43s4.59,2.44-4.4,32.47c0,.11-21.09-.68-24,19.3a40.69,40.69,0,0,1-14.35-7.64c-7.22-6-11.17-7.28-15,6.78q-14.86.81-29.72,1s.28-11-8.11-11.6c-2.22-.1-4.45-.21-6.67-.33,0,0-5.88,3-6.74,14.57,0,0-22.75-.13-46.92-20.47,0-.12-23.17,15.65-67,17.35,0-.06,28.27,8.91,64.35,35.08,0-.1,17.72-13.92,49.58-14.87,0,0,.07,13.76,5.95,17.78,3.52-.31,7-.64,10.55-1,0,0,4.66-3.38,5.16-11.52q14.47-.63,29-1.86s.38,21.29,13.65,9.27c14.86-13.59,15.93-13.28,18-14.72,0,0,3.59,3.58,5.31,3.62s5.09-.59,7.1,1.95c0,0-8.61,10.68-19.94,15.46s-13.2,11.18-15.86,16.72c0,.36-41.1,10.49-46,11.67,0,0-5.81,3.18-12.84-.94s-14.93,4-15.86,4.89c0,0-4.52-4-6.89-.87s-2.36,2.75-6,2.95a7.86,7.86,0,0,0-7.34,7.38c-.29,3.1-16.26,6.57-10.52,19.6,0,0,1.05,1.11-2.51,5.58-4.09,5.12.07,15.4,4.52,19.14s5.09,4.32,8.46,11.34,8.4,14.23,19.44,11.56c0,0,12.84,19,27.48,9.86a17.6,17.6,0,0,0,4.59,1s8.11,11.42,22,6.92c0,0,6.67-3.64,9.18-.43,0,0,6.48,4.68,4.38,8.91-2.73,5.49.14,7.47,1.72,9.18a8.72,8.72,0,0,1,.07-5.84c1.22-2.67,2-3,2.08-5.38,0,0,.29,5.89,4,5.82,0,0-1.65-.84-1.07-3.88s-.94-4.68-4.31-8.66c0,0,.36-2.31,2.08-2.53,0-.07,6,8.28,26.26,2,20.3-6.44,27.19-2.1,27,5.56s-7.39,5.18-7.67,12.48c0,0,4-5.15,6.81-4.93,0,0,.72,6.94,6,4.69,0,0-6-3.25-1.8-7.22,0,0,11.48-9.21,3.09-19.51a17.19,17.19,0,0,1,16.28,1.71c8.61,5.53,12.63,3,15.07,5.51,0,0,.5-3.39-4.09-6.93,0,0,9.9-.25,11.41-6.08,0,0-8.33,7-20.31-5.21,0,0,4.45-6,10.41-7.58s18.65-1.12,12.77,9.12a10.41,10.41,0,0,0,5.16-8.79,8.32,8.32,0,0,1,6.1,4.64s1.72-6.25-2.8-7.26-3.43,1-9.25-1.06a62.53,62.53,0,0,1-8.86-3.63c-1.83-1.07-8.25-1.34-10.44-.43,0,0,5.45-12.33,11.84-3.23,0,0,4.23-4.47-.22-7.42,0,0,2.08-3.26,9.11-5.6,0,0-4.3-3.53-12.7.7s-7.17,3.59-10.69,4.74a43.83,43.83,0,0,0-10.68,5s-.08-2.75,5-6.09,24.32-13.14,8.39-21.27c0,0,1.22,4.28-.65,7.41a9.89,9.89,0,0,0-7-4s.5,6.23-.22,9c0,.09-19.3-7-23.39-7s-9.68.72-25.39,7.06c0,0-7.89,2.87-2.15-2.93,0,0,2.87-2.18,3.22-5.11,0,0-3.94,3.43-6.2,3.48,0,0-1.58-1.56-.86-5.56a7,7,0,0,0-3,5.48c-.4,4-2.41,5.91-8.25,3.77s-15.25-4.48-18.62-4.28-11.12.1-19,5.48-15,10.16-18.83,4.69,3.86-7,3.48-15c-.36-7.53-3-11-4.34-12.18,0,0,4.89-6.51,3.26-9.22a11.67,11.67,0,0,1,3.63-3q22.8-3.78,45.58-9s-.38,7.26,4.12,9.38,7.93,3.07,13.39-.72c0,0,4.11,5.52,12.53-3.26,0,0,6.88,0,9.08-2.39s6.51-6.46,6-11.8c0,0,6-.54,7.56-6.52a663.66,663.66,0,0,0,72.21-28.14s10.24-4.44,8.52-11-5.93-5.46-9.76-3.79c-3.82,3.14-74.23,33.43-74.23,32.12,0,0-12,3.61-7.74-6.4s7.07-7.16,9.75,3.1c0,0,4.69-5.78,6.6-9.94,0,0,12,8.2,12.82-1.8s-.19-5.08,3-8,2.86-5,2.87-5a565.24,565.24,0,0,0,60-14.83s4.88-2,4.78-9.9-3.35-7.19-4.11-7A563.6,563.6,0,0,1,1092.44,553a1.21,1.21,0,0,1-1-1.78c.67-1.48,2.2-1.92,6.41-1.8,0,0-1.62-10.52-.76-18.52a54.18,54.18,0,0,0,10-16.94s3.35.35,3.64,5.11c0,0,6.79-10.86,8.22-19.06,0,0,.29-5,5.84-2.92,0,0-.14-12.2.76-21,0,0,.29-6.5,8.13-1.71,0,0,1.15-4-.19-7.21s-2.15-3.69,2.34-7,10.62-11.73,12.1-18c0,0-6.12,2.65-9.37,3.11,0,0,8.42-16.2,6.07-23.92,0,0-4.44-.67-11.81,7.55,0,0-3.87-1.07,1.72-7.75,0,0-8.75,6-14.54,4.35s-7-.84-.33-8.4,18.27-25.52,20.09-29c0,0,5.64.33,16.74-15.73s6.17-4,15.49-13.75a15.19,15.19,0,0,1,4-3c0-.1,11.43-4.12,33.6-14.72,22.16-10.89,25.75-26.13,25.75-28.06a15.07,15.07,0,0,1,.79-5.7c.72-1.88,1.86-2.5,2-8S1238.6,282.41,1234.94,280.82Z"/>
    <path d="M1088.88,696.68c5-2.45,12.09-2.82,12.09-2.83-3.66-6.83-17.83-2.27-22.35-1.07s-6.28.8-6.28.8c.72-.6,1.47-1.74,5-2.5s7-1.12,11.05-5.69a14.23,14.23,0,0,1,9.53-4.68c-1.34-3.19-7.7-2.9-13.3,3.06s-10.66,5.45-10.66,5.45c8.85-3.44,11.43-8.2,11.43-8.18-2.68-.27-4.16,1.2-9.47,3.66s-6.74.27-6.74.28a76.49,76.49,0,0,1,9.9-8.43,33.87,33.87,0,0,1-9.57-2.28c-5.16,7.41-9.18,11.82-19.08,6.53s-15.07-3.89-15.07-3.88c8.71-8,17.65-6.46,24.16-2.43s8.37-.57,8.37-.56c-2.06-1.33-1.77-2.85-1.77-2.85,15.78,7.71,22.62-.64,26.11-4.55s-1.58-6.94-1.58-6.94c-.33,6.87-6.79,11.42-11.86,10.18s-9.76-3.19-17-5.92-16.43.81-24.94,4.34-9.61,2.45-10.38,1.65-1.19-3.5-5.55-.64-14.49-2.44-20.8-4-16.65.29-25.59,7.16-13.34,5.33-16,3.79-4.35-6-1.48-10,3.11-5.15,2.87-10.88a13,13,0,0,0-4.5-9.07c3.92-5.44,4.88-6.66,3.54-9s.77-2.29,3-3.68,1.25-1.55.72-3.29-1.82-1.43-1.82-1.43c-5.21.41-8.08-1.46-8.08-1.46-8.63-5.14-16.64,5-16.64,5-4.91-5-6-1.82-6.89-.6s-2.58,2-4.88,2.29c-2.09.21-5.24,1.21-6.34,3.77a5.23,5.23,0,0,0,.24,4.36s1.34,2.72-1.1,5.89-3.3,3.92-2.54,7a10.67,10.67,0,0,1-.4,7.39,6.29,6.29,0,0,1-.82-3.84,10,10,0,0,0-.07-4.45s-2.41,3-2.84,5.27c0,0-1-3.48,2.48-8s5.06-6.78,4.09-8.59c-.72-1.34-3.27.71-3.88,1.17-9.16,6.79-7.5,10.71-6.7,12.94s.9,4.41-1.58,7.63-2.25,4.37-2.25,4.37c.38,11.83,6.69,14.61,9.32,17.59,2.2,2.51,5.94,10.22,5.94,10.21,4.68,9.06,9.66,9.26,13.34,9.3s3.35-.38,1.48-2.59-5.45-6.15-5.45-6.16c4.92,2.37,9.61,9.23,9.61,9.23,9.31,13.57,17.89,11.65,21.67,10.9s3.11-3.63,3.11-3.63c-.2-.47-3.88-.76-3.88-.77a22.06,22.06,0,0,1-18.17-13.75c8.42,11,21.62,13,25.68,12.65s3.83,1.21,3,1.53-2.11.07-4-.06-1.87.47-1.44,1.51,2.19,1.09,4.41.91.43.21,6.21,5.93,20.16.06,20.16,0c-9.29-2.44-10.58-8-10.58-8-12.63,2.62-17.76-7.35-17.76-7.33-2.26-2.91-9-7.39-9-7.4-7.14-3.94-8.25-12.52-8.25-12.51,2,3.77,5.92,8.08,10.87,9.79a34.35,34.35,0,0,1,6.35,2.61,5,5,0,0,1-3.77-.46c-5-1.81-2.15.79-2.15.79,5.45,5.64,7,5.15,7,5.16,14.31,1.43,7.21-5.91,7.21-5.89,10.18,2.76,11.87-2.46,11.87-2.44,2.11,5.84,9.83,3.18,9.83,3.17-10.26,7.25-2.48,4.85-2.48,4.85,10.37-3.31,12.4,0,12.4,0,2.81,3.22,5.64,2.47,5.64,2.47a30.81,30.81,0,0,1,5.81.54c4,.64,10,4.42,15.72,2.73s6.67.55,6.67.55c-1.08-.34-3.59-.49-8,2.71s-12.12,5-23.31,2.52-12.06-2.1-12.05-2.08c2.65,2.44,5,6,5.52,8.48s2.44,2.5,2.44,2.5c.79-3.34,4.16-5.06,4.16-5.06,2.21,2.52,8.11,5.49,8.11,5.48a3.94,3.94,0,0,0,0-3c4.3,5,9.32,2.78,9.32,2.78,1.36-1.44.93-4.46.93-4.46,1.73-.27,2,1.12,3.23,2s5.1-.29,5.1-.29c-1.44-.6-2.44-3.39-2.44-3.39,5.66-5.88,17.93-5.45,17.93-5.48,8.86.64,7.75,8.47,7.75,8.49,1.79.83,4.16,4,4.16,4a12,12,0,0,0,.07-5.46c4.05,1.84,4.92,7.93,4.92,7.93,4.69-8-4.49-14.29-4.49-14.31a41.2,41.2,0,0,1,12.34-2,16.76,16.76,0,0,1,10.73,4.23c3.48,3.09,9.72,3.41,9.72,3.41-.19-1.55-3.52-3.45-4.27-3.85s-1.08-1.71-1.08-1.71a14.63,14.63,0,0,0,5.17-.85c-10.73-6.17-13.42-9.82-13.42-9.8,4-.18,6.24-4,6.24-4-8.46,2.12-8.75-.79-8.75-.78A16.69,16.69,0,0,0,1088.88,696.68Z" style="fill: #ffc221"/>
    <path d="M919.21,684.79c.53-6.11.44-6.88,0-8.17,0,0-.79.59-.77,3a23.45,23.45,0,0,1-.38,5s-2.25-5.14-3.16-6.12c0,0,.77-5.29-.48-7.61s-2.44-2.5-3.87-1.85c-2,.91-3.46,3.3,3.17,10.75,0,0,2.47,2.69,4.2,8.53s4.59,6.82,5.16,7.16C923,695.42,918.69,690.9,919.21,684.79Z"/>
    <path d="M934.57,656.15c2.77,5.53,2.48,5.81,2,8.09,0,0-7.5-5.34-4.87-13.86a26.25,26.25,0,0,1,4.35-7.27c2.87-3.5,1.14.78,7-3.63a28.93,28.93,0,0,0,7.08-8.64,28.77,28.77,0,0,1-4.16,3s-6.75,1.64-9.47,5.41S928,649.57,930,657c0,0-6.75-1.2-8.28-10.55,0-.06-12.48,20.22,13.73,30.13a44.66,44.66,0,0,0,9.18,2.15s-.33-3.46,2-9.6a17.34,17.34,0,0,0,.41-12.19c-.52-1.52-.84-.95,1.52-3.6,2.91-3.27-1.12-7.31,3.66-13a40,40,0,0,0,3.88-5.12s-5.07,3.7-8.37,5.52S931.79,650.64,934.57,656.15Z"/>
    <path d="M1131.56,569.5c-5.15,3.24-61.88,28.5-71.67,31.18-1.49.56-.6,1.69-.6,1.69a28.91,28.91,0,0,1,2.5,4.15s.74,1.56,4.06.44a667.63,667.63,0,0,0,67.63-26.85s9.85-3.24,7.74-9.41C1139.37,565.27,1137.2,567,1131.56,569.5Z" style="fill: #ffc221"/>
    <path d="M937,651.23c-3.45,5.25,4.66,9.29-.15,15,0,0-4-2-6.38-7.76,0,0-5.6.06-9.11-7.5,0-.11-7.32,20.48,21.45,25.74a19.72,19.72,0,0,1,1.22-5.48c1.14-3.21,3.66-9.71,1.29-13.89s1.93-2,2.58-7.5-.43-4.69,1.58-8.27C949.49,641.61,940.45,646,937,651.23Z" style="fill: #5a3719"/>
    <path d="M1000.85,678.71c-12.62-6-19.94,2.36-19.94,2.38,0-2.28-1.65-5.65-1.65-5.65-2.15,4.55-5.74,7.74-14.2,8.36s-15.57-7.49-15.57-7.49c-.29,21.65,32.64,23.45,45.27,14.61,11.09-7.54,16.52-7.75,17.48-7.69C1009.77,683.05,1013.21,684.49,1000.85,678.71Z"/>
    <path d="M1012.24,683.23h0Z"/>
    <path d="M937.72,640.27s3.2.66,6.39-4.12C944.11,636.15,939.8,637.23,937.72,640.27Z" style="fill: #5a3719"/>
    <path d="M911.47,670.28c-3.81,1.07,2.13,7.48,2.13,7.48C914.17,669.8,911.47,670.28,911.47,670.28Z" style="fill: #5a3719"/>
    <path d="M1042.82,710a11.47,11.47,0,0,1,10.55-2.06c9.6,3.21,23.38-4.7,23.38-4.72-11.48,1.21-12.55-4.18-21.66-2.62A16.53,16.53,0,0,0,1042.82,710Z"/>
    <path d="M980.26,684.12A12.8,12.8,0,0,0,978.4,680c-12.12,12.5-25.75,1.72-25.75,1.71,8.17,17.9,33.39,13.13,43.47,6.47,7.74-5,9.76-4.93,9.76-4.92C989.45,672,980.26,684.08,980.26,684.12Z" style="fill: #5a3719"/>
    <path d="M1053.58,687.63c-15.64,4.4-17.43,4.2-13.77.69s-3.69-.85-10.48.52c-11,2.27-24.1,1.41-24.1,1.4,32.89,24,59,1.28,59,1.32C1053.44,691.6,1069.22,683,1053.58,687.63Z"/>
    <path d="M1039.52,675.31c4.53.65,6.6,1.35,14.42,5.14s11.12-3.16,11.12-3.15c-4.74.21-3.66-.31-10.76-3.53S1039.52,675.32,1039.52,675.31Z" style="fill: #5a3719"/>
    <path d="M1048.06,705.31a35.68,35.68,0,0,1,8.39,1.28c6.54,1.6,12.91-2.25,12.91-2.25a19.45,19.45,0,0,1-5.44-1.49C1055.59,699.19,1048.06,705.31,1048.06,705.31Z" style="fill: #5a3719"/>
    <path d="M1057.81,689.48c.72-1.32-5.16.52-5.16.51-26.47,7.14-15.93-1.35-15.93-1.25-9.11,3.73-25.89,3.38-25.89,3.34,29.05,15.8,48.71.32,48.71.38C1056.67,691.82,1057.1,690.82,1057.81,689.48Z" style="fill: #5a3719"/>
    <path d="M937.36,688.55a16.77,16.77,0,0,0-6.52-8.36c-3.73-2.26-3.88-4-3.88-4h-.14c-7.21,6.44-2.74,13.07-2.74,13.07,5.9,9.25,19.06,5.66,19.06,5.63C940.05,693.9,938.15,690.69,937.36,688.55Z"/>
    <path d="M1005.23,705.76c-4-3.62-12.12-.54-13.63-.17s-5.81.38-.43-4.6c0,0-4.31.14-6-2.62,0,0-1.93,2.63-9.18,2,0,0,3.23,6.63-9.75,5.16,0,0,3.87,5.85,8.53,6.86s6.61.49,9.62-.84c0,0-.87,5.26,5.16,6.88s7.25,3.06,10.33,4.46c0,0,.43-3.35-7.6-10.55a31.77,31.77,0,0,1,10.47.92c6.17,1.52,20.16,4.87,27.76-2a35.92,35.92,0,0,1-12.34-2.27C1011.11,706.46,1009.25,709.39,1005.23,705.76Z" style="fill: #5a3719"/>
    <path d="M1044.28,714.64s-7.94,1.72-10.47,4.17a3.9,3.9,0,0,0,5.26,2.38c4-1.46,10.49-4,16.81-.76C1055.88,720.4,1057,713.2,1044.28,714.64Z" style="fill: #5a3719"/>
    <path d="M935.93,689.68c-1.58-3.15-1.63-5.26-4.95-7.31s-3.85-2.7-4.5-3.64c0,0-4.87,5.22-.45,10.84,4,5.14,10.28,4.75,13.27,4.61A13.6,13.6,0,0,1,935.93,689.68Z" style="fill: #5a3719"/>
    <path d="M937,651.23c-3.45,5.25,4.66,9.29-.15,15,0,0-4-2-6.38-7.76,0,0-5.6.06-9.11-7.5,0-.11-7.32,20.48,21.45,25.74a19.72,19.72,0,0,1,1.22-5.48c1.14-3.21,3.66-9.71,1.29-13.89s1.93-2,2.58-7.5-.43-4.69,1.58-8.27C949.49,641.61,940.45,646,937,651.23Z" style="fill: #5a3719"/>
    <path d="M1018.36,700.78c-15.35-6-21.38-4.43-21.38-4.4,10.69,4.85,11.48,2.16,23.34,7.84,13.41,6.35,22.07-1,22.07-1C1040.1,703.76,1033.71,706.72,1018.36,700.78Z"/>
    <path d="M1093.09,677.3s3.5-1,5.54-.21a10.68,10.68,0,0,1,4.55-3.09S1101.07,671.76,1093.09,677.3Z" style="fill: #ffc221"/>
    <path d="M1082.68,661.5a22.27,22.27,0,0,1-.09,6.88s3.51-1,4.57-3.44A9.76,9.76,0,0,0,1082.68,661.5Z" style="fill: #ffc221"/>
    <path d="M1079.46,606.66" style="fill: #ffc221"/>
    <path d="M1019.12,613.76c0,.5-47.82,13-51.48,13.35-3.66.83-3,3.08-3,3.09.28,3,3.51,2.17,3.51,2.16,0,.16,30.49-6.4,42-9.52,11.55-2.92,12.23-4.87,11.84-7.19C1021.66,613.48,1019.12,613.76,1019.12,613.76Z" style="fill: #ffc221"/>
    <path d="M1028.48,616.47a7.88,7.88,0,0,0-4.72,1.28c-2.3,1.57-4.44,3.33-3.68,4.78,1.63,3.1,1.94,3.82,1.34,4.13-1.65.83-2.87-1-3.21-2.26-.42-1.63.92-2.83-3.58-1.48-1.84.54-3.35.61-3.35,1.66,0,0,0,9,6.89,9.6,6.68.57,9-1.58,10.76-6.46C1029.4,626.44,1031.45,616.82,1028.48,616.47Z" style="fill: #ffc221"/>
    <path d="M1039.93,614.29a19.77,19.77,0,0,0-6.82,1.25c-1.17.48-2,1.4-1.7,2.37.94,3,.15,7.68-1.53,11.26-1.77,3.78-2.05,3.39.23,4.38,0,0,4.33,1.19,8.86-4.25C1043.18,624.24,1043.45,614.32,1039.93,614.29Z" style="fill: #ffc221"/>
    <path d="M1051.36,615.67c-1.82.43-.34-1.28.43-1.69s3.13-1.94-3-6.21a1.9,1.9,0,0,0-2.2-.38c-.94.54-4.22,2.81-4.21,5.33a4.22,4.22,0,0,0,.62,2s2.51,3.82-.62,12c0,0-1.39,2.49,1.72,1.7s10-6.31,9.32-11.85C1053.41,616.57,1053.18,615.23,1051.36,615.67Z" style="fill: #ffc221"/>
    <path d="M1055.18,601.11c-2.46-.73-3.08.91-5.19,3.36,0,0-1.53,1.47-.28,2.13,0,0,4.9,3.87,4.88,5.26s-.46,3.33.83,2.95,6.6-2.79,5.14-7.19S1057.65,601.84,1055.18,601.11Z" style="fill: #ffc221"/>
    <path d="M1047.34,541" style="fill: #ffc221"/>
    <path d="M1025.2,610.84a6,6,0,0,0-5.6,1.59c4.4.79,3.59,4.34,3.59,4.34a14.27,14.27,0,0,1,5.29-1.57A3.74,3.74,0,0,0,1025.2,610.84Z" style="fill: #ffc221"/>
    <path d="M1030.82,609.33s2.44,3.34,1.93,5.47c0,0,5.1-1.86,7.37-1.81C1040.12,613,1037.61,605.92,1030.82,609.33Z" style="fill: #ffc221"/>
    <path d="M1036.77,607.38s3.64,1.17,4.71,4.38c0,0,0-2.27,4.33-5.2a5.62,5.62,0,0,0-5-1.64C1037.44,605.68,1036.77,607.38,1036.77,607.38Z" style="fill: #ffc221"/>
    <path d="M1043.18,603.72a9.65,9.65,0,0,1,4.35,2.15s2.54-4.06,4.69-5.2C1052.22,600.67,1048,598.37,1043.18,603.72Z" style="fill: #ffc221"/>
    <path d="M906,581s-14.64-11.42-29.78-6.07c0,0,16.43,9.07,26.12,17,0,0,11.81-12.76,18.43-11s3.3.59,10.55-.79,14.71-2.43,17.72-2c0,0-8.75-8.17-24.39-8.34C924.67,569.84,913.62,574.63,906,581Z" style="fill: #5a3719"/>
    <path d="M1028,610.82a4.59,4.59,0,0,1,1.4,2.55c.35,1.55-.41,2.47,1.48,2.18,2.42-.37-.91-5.42-.91-5.42Z" style="fill: #ffc221"/>
    <path d="M1054.34,582.72c-2.16.33-5.78-.21-7,1.12s-11.94,12.24-18.19,14.55-12,5.3-16,14.49c0,0-1.19,2.07,1,1.39,2.71-.83,2.19-.1,5.16-3.09a4.46,4.46,0,0,1,5.24-1.56,6.15,6.15,0,0,0,5.2-.88c2.33-1.79,2.87-1.75,4.13-1.77s1.17.34,2.84-1.5,4.58-1,6.41-3.31,4.13-.94,0-4.24a3.33,3.33,0,0,1-.79-2,6.55,6.55,0,0,1,2.83,1.69c1.26,1.31,3.34.52,3.7.22a20.28,20.28,0,0,1,3.87-10C1056.45,582.77,1056.49,582.4,1054.34,582.72Z" style="fill: #ffc221"/>
    <path d="M846.62,560.2s19.15,8.37,23.45,11.41c0,0,1-4.15-7.67-8.21,0,0,21.14,1.06,43.52,15.45,0-.16,10.79-11.36,45.51-7.76,0,0,.07-4.07.31-7.2,0,0-24.39-.63-46.78-19.74C905,544.05,884.92,556.75,846.62,560.2Z" style="fill: #ffc221"/>
    <path d="M931.2,527.45" style="fill: #5a3719"/>
    <path d="M959.25,549s-7.51,2.47-6.17,28.41c0,0-.16,3.43,4.78,3.33s4.4-3.1,4.4-3.09c-1.58-18.52,4.35-28,4.35-28A45.11,45.11,0,0,0,959.25,549Z" style="fill: #ffc221"/>
    <path d="M957.76,582.59c-3.68-.07-3.58,1.39-3.58,1.39a22.6,22.6,0,0,0,4,10.56c2.81-.17,5.61-.35,8.42-.55-.57-.65-2.9-6.41-3.78-9.15S961.44,582.65,957.76,582.59Z" style="fill: #5a3719"/>
    <path d="M966.23,553.41c-3.15,9.47-2.92,15.56-2.54,23a50.85,50.85,0,0,0,1,8.49c.45-1.16.9-2.33,1.36-3.49a79.63,79.63,0,0,1-.41-9.86c.24-14.48,2.06-13.25,2.77-11.47l3.74,0S969.43,543.77,966.23,553.41Z" style="fill: #ffc221"/>
    <path d="M1030.84,571a8.83,8.83,0,0,1-3.62-.16s-1.54-2.23-2.58-1.18-3.48.79-1.58,3.63,2.47,2,3.4,1,5.06-3.68,1.26,1.31-6.78-1.7-8-2.85q-5.75,3.11-11.48,6.1s7.21.81-3.84,5.29c0,0,.54,17.73,13.6,4,0,0,7.71-7.37,13.06-10.72,0,0,2.69-1.58,2.36-4.21C1033.42,573.21,1033.64,570,1030.84,571Z" style="fill: #5a3719"/>
    <path d="M966.06,581.37c-.46,1.16-.91,2.33-1.36,3.49,0,0,4,18.89,7.46-1.66l-3.21,0S967.23,586.7,966.06,581.37Z" style="fill: #5a3719"/>
    <path d="M997.89,559.79s-.67,10.07,0,16.19l-.81.08a118.87,118.87,0,0,1,.05-16.21l-4.07.29a134.55,134.55,0,0,0-.14,16.29l-.77.06a122.51,122.51,0,0,1,.1-16.29l-4,.26a99.18,99.18,0,0,0,.05,16.16l-1,0a90.75,90.75,0,0,1,.05-16.14l-4.45.26a69.78,69.78,0,0,0,0,16.23l-.91,0a71.82,71.82,0,0,1,.1-16.24l-4.45.23a80.28,80.28,0,0,0-.14,16.24l-.86,0a91.08,91.08,0,0,1,.24-16.25l-4.16.18a73.18,73.18,0,0,0-.19,16.24l-.91,0a94.11,94.11,0,0,1,.19-16.24l-4.12.15s-1.62,12.49.44,20.11q17.33-.16,34.67-1.16s-.43-8.89.09-21Z" style="fill: #ffc221"/>
    <path d="M1029.88,561.24a106.79,106.79,0,0,1-13.87-8.68c-5.54-4.08-6.21-5.17-9.46.91s-2.3,28.5-2.3,28.5c6.22-3.54,17.79-9.89,21.14-11.45s2.35-1.16,1-3.45c-1.53-2.71-6.84-5.19-2.56-3.87,1.61.5,3.85,2.95,4.57,3.63,4.78,4.53,4.21,3.35,4.21-.72S1031,561.66,1029.88,561.24Z" style="fill: #ffc221"/>
    <path d="M1017.07,559.47c-3.2,1.29-.69,5.24-.68,5.24.64,1.38,5.2,10.12,4.66,5.58S1020.26,558.17,1017.07,559.47Z"/>
    <path d="M1017.39,582.15a37.21,37.21,0,0,0-5.67,2.64s-3.73,2.17-1.29,3.54S1019.76,581.41,1017.39,582.15Z"/>
    <path d="M1016.78,577.34c-2.51.51-.18,1.33.32,1.7s1.69,1.43,2.33-.53S1016.78,577.34,1016.78,577.34Z"/>
    <path d="M1046.84,543.46c-7.75,2.68-10,7.94-10.52,9s-2.66,7.24-2,16.9c0,0,.88,8.47,6.43,9.86,0,0,3.2.59,2.53-3.06a39.24,39.24,0,0,0-1-4.29c-.46-1.24-2.68-1.75-2.92-1.86s-.52-1,1-.53,1.76.49,1.65-.92-1-.7-2.43-1.42c-.54-.27.06-.83.63-.75s1.94.44,2-2.51c0,0,.31-1.68-1.38-1.55-1.85.13-1.7-1-1.13-1.23s2.5,1.25,3-1.74-2.66-.89-2.22-2.5,2.7.5,2.89-1.36,2-2.85-1.11-3c-1.48-.06-.11-1.13,1.55-1.06s2.86-3,3.89-4.13S1054.59,540.73,1046.84,543.46Z" style="fill: #ffc221"/>
    <path d="M1052.41,573.36a20.6,20.6,0,0,1-6.21,1.07c-1.18,0-2.18.27-1.92,1.65,0,0,.86,4.48,3.16,5s2.34,1.06,4-1.77,4.55-2.07,3.27-5.32C1054.34,573.15,1053.4,573,1052.41,573.36Z" style="fill: #ffc221"/>
    <path d="M1051.29,569.55a13.92,13.92,0,0,1-6,.64c-1-.13-1.79.29-1.28,2.63a1.28,1.28,0,0,0,1.47,1c1.32-.06,5.14-.21,7.41-1.55,0,0,.84-.36.46-2.26C1053.36,570,1053.33,568.7,1051.29,569.55Z" style="fill: #ffc221"/>
    <path d="M1051.69,564.39a12.93,12.93,0,0,1-5.9,1.11c-.31,0-2-.48-2.08,1.14,0,0-.07,2.72,2,2.77a17.09,17.09,0,0,0,5.68-.82c.82-.34,2.28-1,2.4-2.59S1054.23,563.15,1051.69,564.39Z" style="fill: #ffc221"/>
    <path d="M1052.39,560.1c-2.11.77-4.76,1.3-5.81.89s-1.76-.5-1.94.06a7,7,0,0,0-.43,2.48c.07,1.18,1.55,1.36,4.23,1s5.07-1.29,5.24-2.5S1054.49,559.33,1052.39,560.1Z" style="fill: #ffc221"/>
    <path d="M1071.43,567.57c-.28,3.89-1.37,5-1.37,5A565.08,565.08,0,0,0,1144.4,556a8,8,0,0,1-1.43-4.44A565.9,565.9,0,0,1,1071.43,567.57Z" style="fill: #5a3719"/>
    <path d="M1071.3,530.79c-3.3,7.72-5.24,12.22-9.72,10.85-6.47-2-9.77,3-10.78,4-1.55,1.51,3.25,1.36.45,1.88s-2.8.83-3.08,1.44,0,1.08.46,1,1.58,1.22-.14,1.41-2.94,0-2.44,2.38c0,0,0,.52,1,.51s1.36,1.32-.5,1.61c-1.2.18-1.32.81-1.35,1,0,0-.65,2.59.69,2.89a11.63,11.63,0,0,0,6.67-.64s1.53-.11,2.06-2.36.47-1-3.86-1.46c0,0-1.36-.3,2.59-1,0,0,2.2-.27,2.54-.83s3.25-4.11-.53-3.28-1.91-.56,0-.88,2.51.1,3.13-.81,0-.27-1-1.47-.31-.92.43-.29,1.2.79,2-.33-.64-2.28,0-2.23,1,1.63,3.4-.38,5.74-1.81,6.64-1.09a3.43,3.43,0,0,0,5-1c1.54-2.41-1.83-3.45-.39-4s2.44-.1,3-1.75-2.22-2.53.47-4,.43-11-.51-11.79C1077.61,520.09,1074.6,523.07,1071.3,530.79Z" style="fill: #ffc221"/>
    <path d="M1057.38,577.76c-1.65-1.53-2.76-.31-5.27,2.76,0,0-1.33,1.46.5,1.31s2.8.15,3.37-1.25S1059,579.3,1057.38,577.76Z" style="fill: #ffc221"/>
    <path d="M1080,553.28c-.76-.95-.86-1.85-2.41-.54s-2.9,1.63-1.5-.29.86-2.39.79-2.48-.58-.76-5.75-5-11.36,4.59-11.36,4.59c-.33.43-1.58,2.19-.43,3.13,1.82,1.5.79,2,.14,1.69s-1-1.54-2.37,1.76,1.22,1.71,1.94,3.9-2.3-1.59-2.94,1.61.5,3.19,3.26,3.86,3.12,1.3,1.83,1.61-3.19-.56-4.8-.93-1.33,2.5.1,2.94,2.3,2.14-.1,1.91,1.43,4.31,2.43,5,7.07.59,3.74,1.4-1.48,1.65-1.48,1.65c4.09,3.09,7-2.45,8.51-4.23s.32-1.16-1.76-.44-.43-.78-.43-.78c1.5-.86,4.37-7.81.39-10.07-3.6-2.06,1.76-2.86-3.15-2.74s-.08-1.3.93-1.45,3.15-1.16,1.22-1.72-.86-2,.36-2.17a4.54,4.54,0,0,0,3-2.24c.54-1-.28-2.11.61-2.14s1.15,2.16-.61,4.39,1.73,1.16,1.73,1.16,5.12-1,7.51-1.52S1080.77,554.22,1080,553.28Z" style="fill: #ffc221"/>
    <path d="M1066.46,548.91c-.32.27,0,.93-1.15,1a1,1,0,0,0-1.08,1c.26.83,1.77.89,2.73.25C1069.56,549.43,1066.78,548.64,1066.46,548.91Z"/>
    <path d="M1070,562.94c1.61,2.17,1.6,2.95,1.47,4.63-.14,3.08,71.54-14.54,71.54-16,0,0-.13-6,2.94-10.52,0,.15-39.17,12.06-75.76,17.55A3.12,3.12,0,0,0,1070,562.94Z" style="fill: #ffc221"/>
    <path d="M1146.63,541.79c-2.15,2.43-2.44,7.67-2.44,7.68s-.36,3.57,1.31,5.15,5.52-4.67,4.55-10.24C1149.37,540.46,1147.81,540.45,1146.63,541.79Z" style="fill: #5a3719"/>
    <path d="M1070.26,575.85c-1.86,3-5.7,6.68-9.29,4.76a2,2,0,0,0-3,.26c-1.52,1.72-1.6,2.16-.34,3.51s3.94,5.69,4.45,8.13c0,0,4.77-6.24,5.48-8.8,0,0,12.92,9.6,12.13-1.42,0,0,0-3,.39-5.91a6.16,6.16,0,0,0,5.38-5.5q-6,1.1-12,2S1072.13,572.82,1070.26,575.85Z" style="fill: #7b3c20"/>
    <path d="M1093.43,531.18c-1-2.29-1.29.19-1.47,1a28.62,28.62,0,0,1-1.4,4.91c-1,2.86-8.35-4.29-9.43-5.82s-.79.7-.9,2.18a16.62,16.62,0,0,1-3.76,8.44c-2.84,3.56-1.37,4.12-1.37,4.12a40.33,40.33,0,0,1,7.61,8.56c2.35-.38,4.71-.79,7.06-1.2-2.87-7.36,6.39-5.57,6.39-5.59-.75-2.17-.93-8.61-.93-8.61C1095.19,532.65,1094.47,533.46,1093.43,531.18Z" style="fill: #7b3c20"/>
    <path d="M1080.05,481.17c-7.38,0-22-2.43-25.82-9.4s-5.53-2.18-5.6-1.88-1.29,6,2.51,15.48,7,15.34,10.69,17.94,7,3.75,5.1,10.8-5.1,19.59-7.82,25.47c0,0,5.38,3,8-2.87s4.45-7.11,2.44-11.92.06-7.63,1.57-10.06,2.81-2.33,3-10.64,4.52-11.94,6.46-14.92S1087.44,481.23,1080.05,481.17Z" style="fill: #7b3c20"/>
    <path d="M1102.44,467.83c-3.23.31-5.38-.67-2.23-2.16s-.57-4.83-4.23-4.16-11.55,4.43-5.31-3.6-9,.25-2.73-5.51-2.08-1.94-3.22-1.78-1.14.25-.71-2.05-.87-3-2.67-1.28-1.79,1.73-1.72-1.35-2.15-.33-3.51.73-4.81,5.16-6.17,3.57-2.15-3.36-6.39.83-3.23.93-3.15-.58,1.65-7.68-4.16-.35-1.08-6.65-5.67-1.42-5.09,6-5.81,4.17-1.59-3.39-6.64,1.59-1.33-2.38-.61-4,2.87-11.57-1.58-3.42c0,0-2.15,5.57-7-3.23,0,0-5.1,9.95-6.39,6s-2.58-4.27-4.23-1.39-.43-.1-1.15-2.3-1.15-6.33-9.61,2.65,2.94,2-3.52,6.22-22,17-7.75,13.29-7,7.93-2,9.4,3.37,7.44,21.95-1.13c18.58-8.82,15.57-2.89,25-9.57s-2.15,2.22,10.55-.11,2.15-.28,4.59,2.81,13.2,9.48,23.24,8.71,12.49-6.41,9.62,0-3.88,8.84-5.6,11.21-6.45,7.92-6.53,15.9-7.89,10.83-5,19.09c0,0,4.45-6.57,6.82-10.2,0,0,.93,17,10.4,21,0,0,2.15-7.19,1.29-13.61,0,0,3.09-.36,3.95,1.29,0,0,.14-5-4.31-5.8s-2.29-12.48-.72-14.11,1.08-3.76,0-5.53-1.36-4.77,2.37-4.35,3.16-2.09.93-4-2.15-4.91,1-5.64,8.39-6.1,5.24-6.6-4.16-1.63.14-4.31S1105.66,467.5,1102.44,467.83Z" style="fill: #5a3719"/>
    <path d="M1154.57,253.6c-2.38-.54-11.91,10.35-15.45,17.44s-11.77,16.75-15.78,21.74-16.84,18-20.14,21.24-3.68,6.42-4.59,8.5.33.27-6.84,9.6-8.18,9.75-11.86,18.89S1064,373.59,1061.5,375.6a14.66,14.66,0,0,0-4.79,7.34c-.9,2.91-7.41,8.86-8.27,7.89S1050,388,1050,388c11-11.63,1.68-16.14,1.69-16.14,6.49-2.48,8.28-8.87,11-13.24s2.41-9.43-2.47-8.53-8.36,11.44-8.36,11.44c16.72-12.32-16.39,18.73-15.71,19.35.68.83,1.36,1.2,3.94,2.76s-3.47,2-.64,3.9-.54,4.42-1.54,4.63-1-3.14.21-5.51a2.44,2.44,0,0,0-.86-3.44,20.28,20.28,0,0,0-4.45-1.9c-3-1-.89-.52,2.55-5.75s-4.52-7.05-4.52-7.07c2.22,9.95-5.77,13.43-5.77,13.42,2.76,3.1,9.61,4.43,9.61,4.42-1.87,4.88-7.21,7.84-10.58,7.9s4.7-5.82,3.44-5.75-5.2-2.94-5.95-3.11.1-2.65,0-9.29,3.44,1.35,3.44,1.35c.83-.67,2.69-4,3.59-6.56s2.69-7.42.75-9.46-2.47-.22-5.85-.29,4.45-7.06,7.21-12.55-3.62-6.87-6.45-6.48-9,5.94-9.44,9.71-1.07,6.38,1.4,4.63,7.64-8.88,7.14-7.15-.5,2.73-3.77,6.68-3.22,2.09-5.84,4.17-2.12,4.77-.65,4.8,1.87-.5,1.79,1.67.69,2.86,4.2.38,2.26-1.46,2,3.13-2,2.75-2.19,1.27-1.37-1.6-3.3-1.19-2.69.24-3-1.65-1.29-2-2.29-2.35-.29-1.47-.65-4.14-.79-4,.57-5.32a8.11,8.11,0,0,0,1.87-5.31c-.07-1.27-1.29-.65,2-4.11s16.64-15.3,17.43-25.13-7.17.36-14.35,5.09-8,6.78-13,13.2,1.15,2.56,6.53,4.11-6.1,1.25-12.7,2.94,3.58-6.24,5.59-9.64,6.32-8.18,17.51-15.53,15.28-17.06,17.79-22.66.29-4.46-1.36-3-8,7.91-10.48,13.74-8.46,7.92-16.57,12.47-11.19-.47-11.19-.46c1.79,9.71-11.26,22.66-17.86,29.72s-5.71,7.79-2.59,6.72,11-8.52,6-3-5.13,7.54-5.13,7.54c6,1.47,7.17-4.69,13-1.77a8.9,8.9,0,0,0,11.59-2.56c1,2.89-.65,7.82-4.23,11.67s4.95,4.78,9.29,8.88,5.2-1.12,5.2-1.11c3.84,2.63,5.45,9.53,5.45,9.53,6.39,22.72-3,.55-1.43,15.9s.21,13.15-2.3,13.63-.72,5.21-7.17,4.4-4.38,2-5.53,3.56-8.39-3.61-8.39-3.62-.86.07,1,7.26-.78,4.63-5,5.05-.21,6.49-1.86,7.17a10.43,10.43,0,0,1-4.31.33c.15,4.48,3.45,4.78,3.45,4.78-3.3,2.91-4.59,8.39-4.59,8.39,5.23-1.53,17.86-1.49,17.86-1.51,1.65-6,15-17,15-17.07a14.67,14.67,0,0,0,2.08,8,6.64,6.64,0,0,0,1.22-2.48c.29,1.46,2.73,4,2.73,4s1.79-.71,3.23-6.93,1.43-4.94,2.87-1.63,5.52,8,5.52,8c2.22-1.07,6.1-8.88,6.1-8.89s2.37,1,1.72,7.59.22,4.17,1.51,3.06,2.72-3.62,2.51-.38,1.5,2,1.5,2c2.06-2,4.74-7.49,4.74-7.49,1.39,4.71,3.06,5.76,3.06,5.76,12.44-12.43,12.72-8.8,10.81-6.51s-2.82,7.11-2.82,7.12c8-4.84,8.41-3.93,9-3a1.8,1.8,0,0,0,1.29,1c3.35-4,10.57-7.7,10.57-7.71,0,2.47-2.44,5.8-2.44,5.8a18,18,0,0,0,7.46-2.55c-.19,2.66-2.58,5.38-2.58,5.38,2,.94,8-1,8-1a17.56,17.56,0,0,0-2.73,6.19c3.11-.11,3.92,1.07,2.2,3.9s-3.16,5.11,1.24,2.7,5.55,0,8.32,2.27,0,4.79,0,4.79a17.93,17.93,0,0,0,5.5-1.23c-.47,1.31-.9,2-4.11,5.86s-6.79,4-3.2,6-7.51,11.21-7.51,11.18a10.21,10.21,0,0,0,3.08,2.63c1.74.86,2.28,1.82-1.65,3.67s-4.06,2-2.09,5,1.57,3.95-.78,4.55-5.78,9.7,1.13,11.22,1.12,11.56,1.12,11.56a2.68,2.68,0,0,0-2.25-1.23,6.46,6.46,0,0,0,2.25,5.4c6.7-7.71,10.86-19.26,10.86-19.26a11.19,11.19,0,0,1,4.88,2.37c.71-1,4.3-3.78,4.16-12.33s6.55-7.54,6.55-7.55c.19-1.62-.1-7.33-.34-12.91s-2.82-8.63,5.55-10.27-1.58-3.44,6.6-10,9.81-14.18,9.81-14.17c-2.87,1.5-9.62,2.78-9.62,2.77,10.91-17.52,8.66-24.36,8.66-24.33-4.45.82-12.29,9.23-12.29,9.22a8.54,8.54,0,0,0-2.34-5.7c-4.58,5.33-5.46,8.34-5.46,8.35a11.2,11.2,0,0,0,4.21-1.14c-1.19,3.11-6.26,10.38-6.26,10.37a26.44,26.44,0,0,1,9.18,6.74c-3.44,1.47-6.7,5.4-6.7,5.4,2.49.84,4.5,6.23,4.5,6.23-6.79,1.54-7.41,5.48-9.33,9.35s-1.81,6.68-1.38,10.07,1.38,3.67-3.93,12.05-1.86,6.58-5.07,10.22-6.31,6.74-6.31,6.74c3.64-9.55,3.25-9.69,6.22-11.17s-1.29-1.71,1.48-3.38,2.06-8.1,2.06-8.1a17.3,17.3,0,0,1,3.44-1.41c.24-1.15-.28-4.48-.57-5.92s-1.63-3.35,0-4.22,1.48-1.93,1.48-4.63,1.39,0,2-4.74a6.21,6.21,0,0,1,5.26-5.34,13.6,13.6,0,0,0-2.44-5.62c1.05-2.71,5.21-5.64,5.21-5.64-1.1-2.65-7.94-5.77-7.94-5.78a17.63,17.63,0,0,0,3-5.92,9.63,9.63,0,0,1-2.39-.61c.28-3.21,3.68-7.36,3.68-7.36-12.91,1.92-16.59,10.8-16.59,10.84,15.3-4.38,10.76-.16,8.13,2.83s6.5,4.38,3.82,8.58,2.25,3.27-.38,7.37-.67,2.9-2.92,6.84,1,5.23-1.24,8.17-2.06,2.16-2,5.22,0,3.59-4.26,9.81a53,53,0,0,0-6.17,12.53c-.29-11.88,6.79-13.2,7.94-18s-1.82-7.73.72-8.73,1.82-1.34,1.91-4.78.86-5.78,3.68-10.78-2.15-2.35-.19-5.88.15-3.83-2.48-5.3-1.53-5.86-1.53-5.86c-2.11-.57-6.37,1.28-6.37,1.28-.77-3.65-4.68-5.81-4.68-5.81,1.29-1.65,4.54-4.05,11.05-6.34a48.18,48.18,0,0,0,12.29-7c-2.73.89-6.8,1.19-12-2s-7-2.36-10.42.4-4.79,3.69-9.47,2-12.87,1.4-15.79,4-8.63,6.54-4.78,2.08,4.83-6.27,1.68-10.91-4.88-1.34-7.61,2.24-4.49-2.46-8.46,1.48-3.11,2.84-3-1-7.36-3-11.09.28-3.54,2.54-3.58-.4a3.62,3.62,0,0,0-3.79-3.71c-1.15.15-3.06,1.3-.76-2s.14-4.48-1.34-5.57-1.77-.77.57-3.21.72-4.17-1-4.57-1.68-1.21-.62-3.67-.1-6-.1-6,2.92.43,2.73,4.11-.43,3.62,2,2.11.38,2.14-.48,5.43-1.72,2,.33,6.56,3,4.2,5.55,2.55,1.87.21.67,1.38-4.26,4-1.53,4.58,4.83-2.54,10.09-9.06-3.78-5.13-7.46-4.61-5.93,2.65-1-4,5.84-10.46,4.36-10.57-8.8,1.81-3.26-1.08,9,2.89,9,2.89c.66-1.2,3-4.38,4.68-3.76s-3.25,1.92-3.35,6.35-3.25,1.57-4,1.26-5.6-.1-4.07,4.23,8.18,2.92,12.63,1.39-3,4-4.78,6.35-4.69,4.36-1.53,7.89,6.93-1.48,6.93-1.48c-.29,2.55.19,7.29,6,2.2s7.65-3.35,8.94-2.23.38,4.82,3.73,4.71,3.3-6.24,2-8.43.43-4.73,4.35-6.43,4.16-4.29,4.07-5.07.09-1,2-5.1,1.43-5.41.86-6-.77-2.76-5.12,2.57-12.43,4.88-12.43,4.87c4.25-4,10-6.31,13.86-9.93s5.07-5.9,1.39-8.53-8,5.31-8,5.31c6.12,1,6.36,1.59-.48,3.19s-12.77,7.56-12.77,7.56a9.21,9.21,0,0,1-1.72,9.81c-3.54,4.11-2,.51-2,.51,7.93-13-3.25-8.75-3.25-8.77.33-.49,0,.52,4.44-6.87s-3-9.29-3-9.3c4.16-2.45,15.64-15.75,19.56-21.51s2.77-5.86,3.06-9.05,5.17-8.73,7.22-11.4,8.13-12.08,10.76-16.54,2.16-6.38,6.56-8.28,16.16-16.61,18.41-19.6,16.12-22.11,21.71-29.75S1157,254.17,1154.57,253.6Z" style="fill: #5a3719"/>
    <path d="M1177.83,337.51c-1.22,1.92-.71.58-2.51-.2s-4.45,3.68-4.45,3.67,2.66,1.67.65,3.6-3.94,6.45-7.75,6.45-7.75,7.47-7.75,7.46,3.3,2.45-1.14,6.32-3.73,4.38-6.46,2.82c0,0-4.73,9.59-7.46,12.11a2.18,2.18,0,0,1-2.15-.94s-3.09,5.62-4.67,7a8.37,8.37,0,0,0-3.73-2.13s-3.73,7.27-6.88,10.11a7,7,0,0,0-2.94-3,27.79,27.79,0,0,1-7.61,14.87s.43-2.25-2.87-4.29c0,0-8.18,11.54-11.4,13.23s-.22-1.94.21-3.25,2.44-5.8-1.51-6.47-3.3,1.92-4.16,2.62-.93-.7-3.58.4-2.23,2.57-3.38,3.4-5.73.24-5.52,4.25,2.37,6.34-1.65,9.53,1.51,1.57,6.82-.67c0,0,2.29-1,6.17,1.31s7.67-5.25,3.37-5.92.07-3.71,3.94-.53,5.38.72,6.82-1.08,3.15-3,.5-4.75,1.79-1.75,3.8-.58a2.69,2.69,0,0,1,.94,3.74c-.29.57-.51,6.2,3.44-.08s5.88-12.05,5.81-14.59a5.47,5.47,0,0,1,2.44,4.35c.29,3.2,3.3-2.75,4.3-4.83s2.73-7.1,2.51-10.41c0,0,2.66,4.64,6.6-2.05s2.23-2.73,7-5.93,10.69-9.91,13.92-16.28,3.44-3,7.6-5.8,12.56-13.85,13.35-18.39S1179.05,335.59,1177.83,337.51Z" style="fill: #7b3c20"/>
    <path d="M1172,333.23c-1.07,7-9,6.89-9,6.87a13.76,13.76,0,0,1-1,7.14c-1.22-1.53-6-2.43-6-2.44a17.83,17.83,0,0,1-2.58,6.4c-1.65-3-6.46-4.81-6.46-4.82.36,1.31-.57,4.18-.57,4.18-1.72-1.61-7.32-1.84-7.32-1.85a13.24,13.24,0,0,1-1.43,6.87c-7.83-7.62-13-6.14-13-6.13.65,1.8.29,1.49,4.31,7.12s-11.63,2.31-12.92,1.95-6.1,5.93-5.42,5.61,5.14-3.37,9.73,3.58-14.85,17.73-14.85,17.62c16.35,6.69-5.31,16.8-5.31,16.72,3.37,1.66,2.44,7,2.44,7a42.56,42.56,0,0,0,7.67-11.38,6.16,6.16,0,0,1,4.09,3.24c4.81-5.53,5.17-13.83,5.17-13.83,2.44.31,4.73,2.62,4.73,2.62,2.44-2.77,6.39-10,6.39-10a9.79,9.79,0,0,1,4.09,3.22,50.68,50.68,0,0,0,3.57-7.11,8.92,8.92,0,0,0,2.45,1.7,82.51,82.51,0,0,0,4.59-9c1.8-4.31,1.8-5.94,4.38-3.27s4.84-5.38,6.72-5.18c2.56.26,5.53-6.58,10.86-13.51,6.86-9,.84,0,7.54-8C1180,332.35,1172,333.25,1172,333.23Z" style="fill: #5a3719"/>
    <path d="M1116.14,367.08c-7-5.18-12.88,5.84-7-4.24,4.73-8.1.93-10.43.93-10.43s-14,16-17.07,18.93-7.53,8.34-2.3,9.43,8.83-9.64,9.33-7.56-10.55,12.85-9,16.24,1.22,6.63,4,5.27,10.11-.62,4.09.58-8,4-8,4-2.63,3.28-.93,5.76,1.79-.91,3.94-1.7,28.7-13.56,4.67-17c0,0,1-1.45,5.16-3S1123.17,372.26,1116.14,367.08Z" style="fill: #5a3719"/>
    <path d="M1100.71,379.25s-2.43,2.88.79.94,9.69-5.49,8.47-7.38S1104.44,374.71,1100.71,379.25Z"/>
    <path d="M1143.33,330.19s-9.62,3.29-20.16,6.26-7.68-.83-10.33,11.46,13.49,9.48,13.48,9.41a98.25,98.25,0,0,1-6.38-9.32c8-3.46,16.93,3,16.93,3,.65-1.56,0-4.77,0-4.77,3.23-1.09,7.46.7,7.46.7a19.75,19.75,0,0,0,1.51-3.71c3.94.1,7.46,3.56,7.46,3.56a16.34,16.34,0,0,0,1.65-4.29,15.15,15.15,0,0,1,6.31,1.42,16.56,16.56,0,0,0,.43-6.07c7.89,1.47,8.11-4.87,8.11-4.85-1.51-.06-4-2.1-9-4.78S1143.33,330.22,1143.33,330.19Z" style="fill: #7b3c20"/>
    <path d="M1110.63,317c-3.39,2.4-3,1.28-5.18,5.35s-14.35,22.55-16.57,25.29-2.87,4.41-3.06,9.1c-.09,2.19-13.94,18.93-18.18,24.89,0,0-1.86,2.37,0,3.72s8.25-6,9.11-7.05,3.16-1.36,0,2.42a73.25,73.25,0,0,0-8.39,11.62s10.69-5.89,17.65-15.44-.33-2.68,11.55-13.06,18.08-24.5,11.69-21.48-12.12,14.05-17.07,18.91-7.75,5.94-7,3.63,4.45-2.24,11.26-11.13,5.31-8.07,5.38-10.65-2.58-8.21,7.68-18c10.26-9.47,42.18-44.5,44.91-54.25,0,0-9.33,4.73-21.6,20.56S1114,314.54,1110.63,317Z" style="fill: #5a3719"/>
    <path d="M1105.16,341c2.3.87,4.67-1.21,4.66-1.21,4.38-3.7,3.38-7.85,3.38-7.85,15.85-11.52,16.57-20.42,16.57-20.36-5.09,2.43-15.14,11.12-20.66,16.47S1102.87,340.11,1105.16,341Z" style="fill: #5a3719"/>
    <path d="M1142.32,291.35c-1.79,2-14.42,18.14-17.79,21.14,0,0,7.1-2.89,9.61-6.76,0,0-4.93,19.26-18.72,27a10,10,0,0,1,0,4c0,.19,29.49-4.66,44.69-34.33,0,.11-20.87,10-29.19,19,0,0,5.23-10.14,20.87-22.72s22-24.33,23.39-29.74c0,.1-19.78,16.89-29.2,19.91A9.19,9.19,0,0,0,1142.32,291.35Z" style="fill: #aa5323"/>
    <path d="M1077.74,342.23s-11.32,1.32-10.93,10.4-7.28,14.42-7.85,15.09c0,0-3.8,4.21-2.22,5.72s4.29,1.41,10.07-6.07S1086.58,341,1077.74,342.23Z" style="fill: #5a3719"/>
    <path d="M1053.94,342.36c-6.46-4.49-11.55,6.7-10,7.54s5-1.68,3.73.5-13.42,14.85-14.85,15.85c0,0,7.46,4.77,4.66,9.92C1037.51,376.29,1060.4,346.93,1053.94,342.36Z" style="fill: #5a3719"/>
    <path d="M1032.85,343.54c-.36,6.39,7.46-1.64,4.73,3.28-3.57,6.48-9.61,10.73-10.68,11.84,0,0,5,1.38,5.23,4.2s15.14-16.05,11.19-22.55C1041.51,337.36,1033.21,337.17,1032.85,343.54Z" style="fill: #5a3719"/>
    <path d="M1147.42,247.42c-2.15,2-5.17,3.16-6.75,5.88s-1.43,5.33-7,13.21c-5.59,8.15-34.5,43-38,47.47-3.51,4.73-15,21.83-15,21.8s-3.2,3.75-.33,5,4.73-2.08,6.17-4.11,8.54-10.56,10.19-15.38,4.08-6.76,6.67-9.69,20.8-19.75,32-36.71,6.53-11.95,18.15-24.5,19.23-23.54,21.67-33.76A84.62,84.62,0,0,0,1165,227C1160.26,232.84,1149.57,245.52,1147.42,247.42Z" style="fill: #5a3719"/>
    <path d="M1131,252.47c-9.47,13.77-35.78,44.69-40.46,49.46-4.69,4.95-8.42,12.53-16.26,22.56s-15.6,18.48-16.93,24.68a16.73,16.73,0,0,1,9.08-3.39c5.93-.4,29.37-35.57,36.16-43.52,6.79-7.63,28-34.05,30.9-38.78s3.34-8.75,5.83-11.73,4.78-3.44,10.52-9.78c5.74-6.07,33.29-38.64,31.66-50.91C1181.49,191.57,1140.46,239.55,1131,252.47Z" style="fill: #aa5323"/>
    <path d="M1155.67,208.59c-4.31,5.23-6.13,3.77-10.53,9.81s-14.06,18.22-15.78,21.56-16.45,22.7-23.62,30.83-23.25,24.31-31,34.71c-7.74,10.55-22.76,29.62-26,33.49,0,0,7.59-2.24,8.61,2.49,0,.07,16.26-17.71,20-24.63s-1.25-2.28,8-12.34c9.28-9.79,40.08-46.65,44.48-53.4,4.4-6.45,12.72-15.83,19.42-24.13,6.69-8,32.9-35.25,29.94-48.17C1179.2,178.92,1160,203.49,1155.67,208.59Z" style="fill: #aa5323"/>
    <path d="M1135,220c-6.89,12.1-6.32,3.39-13.3,13.78s-17.79,24.67-26.78,32.67-3.54,6.05-10,13-6,5.93-8.41,7.19a22.94,22.94,0,0,0-8.42,8.39c-2.39,4.16-8.8,10.38-15.78,16.72s-24.16,22.28-27.21,27.55c0,0,3.84-.38,5,1.46,0,0,7.1-9.14,14.66-2.1,0,.18,27.74-29.44,30.51-36.48,2.78-6.84,7.27-7.79,18.08-20.74s17.6-19.19,24.77-28.59,13.2-19.62,18.37-25.72,18.17-21.83,16-30.87C1152.41,196.28,1141.89,207.89,1135,220Z" style="fill: #aa5323"/>
    <path d="M1113.48,225.25c-3.08,4-18,20.85-27.83,31s-27.26,24.33-34.94,29.68-7.1,4.49-7.89,9.46-5.59,13.34-8.25,16.6a7.76,7.76,0,0,0-1.15,7.2c1.15,4.83-.42,7.18-.42,7.18.79-.87,26.82-23.39,30.48-27.37,3.66-3.81,4.66-9.54,10.26-12.35s10.19-8.16,11.77-10,2.65-5.64,5.45-8.2,12.91-13,16.14-16.7,11.69-15.81,14.35-19.95.57-3.58-.72-4.2-2.94,1.78-8.9,9.23-26.75,29-29.27,31.28-8.32,9.29-11.76,13.58-15,13.36-18,16.16-9.32,7.43-9.75,6.78.21-1.57,14.3-13,13.67-12.7,16.83-16.78,12-12,15.64-15.45,15.28-16.68,17.36-19.11,14.78-17.66,18.08-22.46a12.42,12.42,0,0,0,1.84-9.81C1124.05,212.18,1116.57,221.3,1113.48,225.25Z" style="fill: #aa5323"/>
    <path d="M1122.88,225.67c1,1,4.67,3.28,9.18-4.07s16.67-24.26,20.6-28.75,5.8-8.06,5.66-12.2a507.84,507.84,0,0,0-34.79,42.2S1122.09,225,1122.88,225.67Z" style="fill: #aa5323"/>
    <path d="M1159.11,196.6a65.42,65.42,0,0,0-9.9,15.82,33.35,33.35,0,0,0,8.32-8.2c1.29-1.79,12-15.25,17.58-22.13s3-9.62,3-9.61C1176.69,175.2,1166.14,188.09,1159.11,196.6Z" style="fill: #aa5323"/>
    <path d="M1006.23,311.33s-7.82,6.21-5,9.47,7,1.82,8.68.66a53.13,53.13,0,0,1,5.53-2.82c.5-.25,7.31-3.55,9-8s6.31-9.79,10-13.77,5-7.65,4.45-10.07C1038.87,287.05,1008.08,309.89,1006.23,311.33Z" style="fill: #7b3c20"/>
    <path d="M1013.84,385c-.07.43-.58,2.64-6.17-2.4a38.16,38.16,0,0,0-14.49-8.53c-3.8-1.17-1.15-1.34,1.07-2.57s5.24-2.09,6.24-5.45c0,0-2.22.9-6.31-.74s-12.27-1.33-18.87,5.5c0,0,2.09-10.2-3.94-9.38s-10.26.7-16.64,7.5c0,0-.36-10.16,5.66-15.56s5.24-2.21,8.61-3.68,3.66-6,2.23-7.34c0,0,7.89,1.55,21.16-13.94,0,0-7.13,12.9-15.8,15.78a11.74,11.74,0,0,1-9.24,8.41c-7.87,1.69-7.67,7.68-7.6,9.18a14.59,14.59,0,0,1,13-2,8.17,8.17,0,0,0-1.5-3.66s9.18-3.58,11.19-9.12,2.44-4.4,4.23-6.08,14.2-15.77,12.77-18.54-1.72-6.41-2.8-7.83c0,0-2.58,5-14.63,13.39s-25.47,14.59-35.23,32.08S938,387.67,949.92,392c0-.06,8.39-6.9,28.84-5.4s27.4,10.67,28.69,12.47,5.46,8,1.44,19.73c0,0,4.09,2,4.45-3.27s.57-4,1.5-3.36,2.08.72,1.65-3.23-1.86-12.69-3.73-15.57.22-1.73,1.44-1.21,5.52,4.69,2.94-3.58S1013.91,384.59,1013.84,385Z" style="fill: #7b3c20"/>
    <path d="M991.43,390.63c-3.78-1.41-9.8-4-28.79-1.46-21.67,2.69-25.54,33.1-25.54,33.17s-.67,4.25.62,11.72c1.51,8.71,9,11.33,15.83,3.43s11.82-10.83,17.17-12.17,5.12-1.16,9.62-4.51,6-7.31,6.31-9.56-1.15-1.4-2.25-.91-3.44.52-.72-2.19,4.64.11,4.64.11c1.87-2.11,2.11-5.22,2.63-7.81s.87-5.66,4.64-4.88-.38,7.19-.38,7.19,2.06.57,5.64-3.66S995.21,392,991.43,390.63Z" style="fill: #5a3719"/>
    <path d="M982.49,390.48c-9,6.67-11.41,5.15-14.13,4.19a6.77,6.77,0,0,0-7.68,1.86c-1.94,2.32-.43,5.71-.43,5.71.5-3.21,5.38-4.91,8-4.37s5,3.26-2.72,7.5-20.09,5.21-20.09,5.19c3.37,4.6,14.78,1.81,14.78,1.79,3.73,2.68,1.65,8.79,1.65,8.79,6.46-5.1,1.15-11.5,1.15-11.5,4.16-.32,9.61-4.8,9.61-4.81,6.6,2.07,3.93,12.15,3.93,12.15,2.28-2.24,3.1-5.06,4.46-8.33s2.73-3,3.81-2.92,1.72-1.31,2.15-2,.93-2.7.79-7.32S982.49,390.49,982.49,390.48Z"/>
    <path d="M974.6,398.34c-3.3.53-.79,4.1-.79,4.1,2.87,3.94,6.74,3.85,7.6,1.1S977.9,397.81,974.6,398.34Z" style="fill: #5a3719"/>
    <path d="M1230.6,307.3c1.9-2.18,3-1.65,4.73-6s1.59-3.74.65-4.55-2.91-.72-1.94-2.91,1.94-7.69-2.26-2.54-12.46,16.88-16.28,19.91-6.75,6-11.91,9.79-8.37,6.67-13.87,13.08-5.12-.06-4.16-1.31c0,0,2.1,4,7.7-4.78s3.77-2,17.45-14.37c13.69-12.62,10.34-12,15.69-18.42s10.43-9.35,6.7-12.29-4.16-3.16-9,4.68-18.18,23-26.17,26.78c0,.33,30.85-32.31,27.7-33.54-3.16-.94-6.56-1.52-8.71-1.08s-2.72,0-7.7,5.34-5.79,6.36-7.22,7.21-5.6,3.85-11.48,10.43-9,9.48-13,14.25c0,0,2.73-8.31,14.87-18.4s18.37-17.74,17-17.88a12.2,12.2,0,0,0-6.65,2.12c-2.29,1.51-1.62.54-9,7.72s-4.25,4.9-10.23,9.13a78.59,78.59,0,0,0-11.38,9.73s1.2-2.6,5.23-6.18c2.07-1.84-2.26-1.11,3.48-3.76a5.92,5.92,0,0,0,1.62-.73c7.42-5.88,15.54-13.4,14.3-13.13s-8.47,2.49-15.79,9.95-4,4.55-6.55,6.3-8,8.4-9.85,11a37.16,37.16,0,0,1-4.35,5s-6,4.47-.43,7.35,8.32,6.08,12.41,5.9,8.32.08,8.25,5.52-.86,7.91-3.09,12.51,1.22,4.86,4.16,1.51,5.46-5.56,7.39-7.89,5.17-3.52,2.23-.24-6,5.78-2.23,4.3c3.8-1.29,26.69-11.31,31.5-16,4.8-4.46,11-8.38,11.62-16.95a13.64,13.64,0,0,1,2-6.26c1.79-2.49,3-6.67.39-2.88s-4.63,6-5.13,5.59S1228.7,309.47,1230.6,307.3Z" style="fill: #fff"/>
    <path d="M980.66,395.07c-3.12,2.65-1.56,2.48-1.08,2.69a6,6,0,0,1,3.59,3.62c.72,2.63,2.51-1.32,2.44-2.53S983.78,392.41,980.66,395.07Z" style="fill: #5a3719"/>
    <path d="M1004.23,398.3s-1.58,3.57-7.75,5.75-6.12,3.77-8.66,10.09-4.76,6.52-9.92,11.18-8.31,13.74-8.6,14.53a19.8,19.8,0,0,1,2.28,11s6.13-4.05,11.27-3.87c0,0-2-9.5,1.58-8.06s2.58.84,3.3.73c0,0,.21-6.35-.72-8.78a28.35,28.35,0,0,0,7.39.72s-3.52-8.87.36-15.4c0,0,2.12,5.84,6.91,6.94,0,0,0-2.56,0-5.27a7.7,7.7,0,0,1,5.07.71C1009,420,1010.82,401.71,1004.23,398.3Z" style="fill: #7b3c20"/>
    <path d="M1230.6,307.3c1.9-2.18,3-1.65,4.73-6s1.59-3.74.65-4.55c-.48-.42-1.23-.6-1.72-1,0,0-1.38-.86-3,1.34s-8.63,9.78-11.46,11.62-5.73,4.9-10.8,10.58-13.49,16.16-14.83,10.54c0,0-3.67,3.34-4.47,4.22-5.66,6.24-5.16.59-4.16-1.31,0,0-3,5.66-2.85,1.59s2-4.16,5.33-6.85,8.52-7.84,6.37-9.26-4.43,4.29-6.82,6.76-7.17,5.73-7.92,1.42-.71-7.49-7.19-5.42-6.24-3.47-4.47-6.43,3.32-7.5,9.39-11.36c2.25-1.43-2.26-1.11,3.48-3.76a5.92,5.92,0,0,0,1.62-.73c7.42-5.88,15.54-13.4,14.3-13.13s-8.47,2.49-15.79,9.95-4,4.55-6.55,6.3-8,8.4-9.85,11a37.16,37.16,0,0,1-4.35,5s-6,4.47-.43,7.35,8.32,6.08,12.41,5.9,8.32.08,8.25,5.52-.86,7.91-3.09,12.51,1.22,4.86,4.16,1.51,5.46-5.56,7.39-7.89,5.17-3.52,2.23-.24-6,5.78-2.23,4.3c3.8-1.29,26.69-11.31,31.5-16,4.8-4.46,11-8.38,11.62-16.95a13.64,13.64,0,0,1,2-6.26c1.79-2.49,3-6.67.39-2.88s-4.63,6-5.13,5.59S1228.7,309.47,1230.6,307.3Z" style="fill: #999"/>
    <path d="M1217.36,317.85a239.15,239.15,0,0,0-19.37,18.2c-2.31,2.38-3,4.48.38.87s17.84-16.72,19.42-18.24S1226.64,310.32,1217.36,317.85Z"/>
    <path d="M1213.77,328.49c-2.1-1-13.43,9.25-13.43,9.21s-1.63,1.26.19.48,8.65-5.47,11.14-7.16S1215.88,329.55,1213.77,328.49Z"/>
    <path d="M1218.51,323.83c-2,1.43-1,1.81.24,1.4s2.39-1.14,2.15-2.07S1218.51,323.84,1218.51,323.83Z"/>
    <path d="M1000.57,455.29c-6.6-.86-19.23,1.72-19.23,1.69.14-3.07,3.52-8.52,3.52-8.52a30.62,30.62,0,0,0-15,4.9c.51-7.78-2.36-11.56-2.36-11.57-3.23,3.63-7.32,13.07-7.32,13.07a12,12,0,0,0-3.3-8.18c-3.73,9.6-28.12,43.25-33.15,49.71s-4.59,19.77-4.59,19.78c1.9-.51,4-.86,4-.86,1.29-3.24,3.22-6,7.88-10.68s5.6-8.27,6.89-13,3.51-6.33,3.51-6.33c-.07.49.58.28-2.15,5.55s4.45,2.93,3.59,11.82-10.69,7.09-13.13,6.89-5.09,5.39-5.09,5.39c3.73-.6,15.49-.72,15.49-.74,2.66-3.77,6.46-4.78,9.76-3.39s2.3,5.95,2.3,5.95c4.44.23,8.6-5.78,10.83-8.83s8.25-9.16,10.76-12.05a11.34,11.34,0,0,0,2.78-5.82c.06,3.27.88,3.74.88,3.74a48,48,0,0,1,19.65-12.24c-2.22-3.14-13.41-2.23-13.41-2.25,8.82-2,14.35-9.93,14.35-9.92a24.35,24.35,0,0,1-10,.76C983.21,469.4,1000.57,455.35,1000.57,455.29Z" style="fill: #fff"/>
    <path d="M1209,320.72c-10.54,11.4-19.44,18.24-22.84,20.25s-.43-.62-4-1.67c0,0,1.48,2.05.57,3.66s-2.2,3.33-1.57,5a8.58,8.58,0,0,1,4-5.31c3.31-1.89,11.39-8.58,16.46-13.63s16.88-18.33,20.85-20.2C1222.48,308.76,1219.56,309.28,1209,320.72Z"/>
    <path d="M1176.78,323.08c-.86-.32-1.31-.24-2,.67s-1,1.34-.43,1.86a.74.74,0,0,0,1.05.46c.86-.3,1.82-1.8,2-2S1177.64,323.39,1176.78,323.08Z"/>
    <path d="M938.3,496.06c-3.35,5-1.29,5-.86,6s.28,3.13-3.16,3.86-3.83,2.52-3.83,2.52c14.45,1.33,10.67-9.48,9.86-10.69A4.53,4.53,0,0,0,938.3,496.06Z" style="fill: #fff"/>
    <path d="M922.18,499a29.29,29.29,0,0,0-2.32,7.7s5.48,1.2,4.9,5.46a41.25,41.25,0,0,1,6.29-7.48S922.36,507.76,922.18,499Z" style="fill: #999"/>
    <path d="M1000.57,455.29c-6.6-.86-19.23,1.72-19.23,1.69.14-3.07,3.52-8.52,3.52-8.52a30.57,30.57,0,0,0-15,4.9c.5-7.78-2.36-11.56-2.36-11.57-3.23,3.63-7.32,13.07-7.32,13.07a12,12,0,0,0-3.3-8.18,45.44,45.44,0,0,1-2.75,5.41c3.4,3.22,4.21,12,4.21,12,2.44-4.68,7.79-8.92,7.79-8.92a13.53,13.53,0,0,0,.91,7.56c2.2-8.69,11.05-7.16,11.05-7.18-3.35,2.39-3.49,7.32-3.49,7.33,3-3,7.6-1.93,7.6-1.94-6.5,6.46,1.39,13.27,1.39,13.27,4-4.26,6.5,0,6.5,0-5.75,2.12-13,7.84-13,7.84,9.33-1,12.55,2.73,12.55,2.75a42.44,42.44,0,0,1,7.49-3.16c-2.22-3.14-13.41-2.23-13.41-2.25,8.82-2,14.35-9.93,14.35-9.92a24.35,24.35,0,0,1-10,.76C983.21,469.4,1000.57,455.35,1000.57,455.29Z" style="fill: #999"/>
    <path d="M932.52,506.46c-1.83.83-2.07,2-2.07,2A16.5,16.5,0,0,0,937,508C933,507.92,932.52,506.46,932.52,506.46Z" style="fill: #999"/>
    <path d="M979.83,467.74s-3.3.38-4.73-.92c0,0,.21,6.54.07,9.68a37.53,37.53,0,0,0-5.87-2,10.71,10.71,0,0,1-1.59,2.69,16.84,16.84,0,0,1-3.51-5.73S960.46,476,959,478c0,0-3.51-3.2-5.95-3.31a47.84,47.84,0,0,1,5.45,6.67s3.66-3.5,5-6.32a13.45,13.45,0,0,1,3.87,6.07,9.12,9.12,0,0,0,2.44-4.5s5.07,1.23,6.73,3.36c0,0,.78-6.52,0-10.54a17.37,17.37,0,0,1,5.68,1.29s-2-4.13,8.22-10.25C990.49,460.44,982.76,463.11,979.83,467.74Z"/>
    <path d="M943.75,512.89c-3.44,2.07-2,6.06-1.87,7.34s.22,6.28-5.38,13.15-6.52,7.91-6.52,7.91,1.57,1,5.3-2.93,14.28-12.88,15.28-20S947.19,510.82,943.75,512.89Z" style="fill: #ffc221"/>
    <path d="M937.29,521.57c-2.79,1.79-13.56,8-15.21,2,0,0,4.45,2.39,10-1.1s10-4.57,6.52-6.07-16.21.16-18.29.86-1.58.6-1.94,3.37-2.72,8.53-3.58,10.21-2.94,8.74.93,12,10,3.18,13.06.73c0,0-8.47-4.86-.86-9.77s11-6.3,11.83-10.49S940.09,519.8,937.29,521.57Z" style="fill: #ffc221"/>
    <path d="M925.46,519s-1.94.31-1.58,1.32.86.87,1.58,1a2,2,0,0,0,1.93-1.11C927.54,519.53,926.18,518.8,925.46,519Z"/>
    <path d="M928.76,535.22c-4.52,3.2-.51,5.83-.51,5.83,8.4-9.42,10.55-13.5,10.55-13.49C938.15,528.91,933.28,532,928.76,535.22Z" style="fill: #fff"/>
  </g>
</svg>
