<svg xmlns="http://www.w3.org/2000/svg" xmlns:xlink="http://www.w3.org/1999/xlink" viewBox="0 0 1260 1011.55">
  <defs>
    <clipPath id="a" transform="translate(0 0)">
      <path d="M0,171.72V380.8C245,79.16,490,248.15,735,338.7V547.78c-35-12.93-70-27.47-105-42C420,279.17,210,52.56,0,171.72ZM630,87.59C525,44,420,.39,315,0V487.86c-105-.4-210,42.43-315,171.7V589.88C210,192,420,139.78,630,87.59Z" style="fill: none"/>
    </clipPath>
  </defs>
  <g>
    <path d="M319.92.05Q315,0,310.08,0,315,0,319.92.05Z" transform="translate(0 0)" style="fill: #00008b"/>
    <path d="M516.8,42.6q4.92,1.78,9.84,3.61Q521.72,44.38,516.8,42.6Z" transform="translate(0 0)" style="fill: #00008b"/>
    <path d="M546.33,53.67q4.92,1.9,9.84,3.84Q551.25,55.58,546.33,53.67Z" transform="translate(0 0)" style="fill: #00008b"/>
    <path d="M526.64,46.21q4.92,1.83,9.84,3.69Q531.56,48,526.64,46.21Z" transform="translate(0 0)" style="fill: #00008b"/>
    <path d="M447.89,20.33q7.38,2,14.77,4.26Q455.27,22.39,447.89,20.33Z" transform="translate(0 0)" style="fill: #00008b"/>
    <path d="M477.42,29.15q7.38,2.36,14.77,4.84Q484.81,31.52,477.42,29.15Z" transform="translate(0 0)" style="fill: #00008b"/>
    <path d="M438.05,17.67Q443,19,447.89,20.33,443,19,438.05,17.67Z" transform="translate(0 0)" style="fill: #00008b"/>
    <path d="M364.22,3.19c3.28.4,6.56.83,9.84,1.31C370.78,4,367.5,3.59,364.22,3.19Z" transform="translate(0 0)" style="fill: #00008b"/>
    <path d="M349.45,1.63c3.28.29,6.57.62,9.85,1C356,2.25,352.73,1.92,349.45,1.63Z" transform="translate(0 0)" style="fill: #00008b"/>
    <path d="M383.91,6q4.92.81,9.84,1.71Q388.83,6.82,383.91,6Z" transform="translate(0 0)" style="fill: #00008b"/>
    <path d="M398.67,8.65c4.92.95,9.85,2,14.77,3.06C408.52,10.63,403.59,9.6,398.67,8.65Z" transform="translate(0 0)" style="fill: #00008b"/>
    <path d="M561.09,59.45q4.92,1.95,9.85,3.92Q566,61.39,561.09,59.45Z" transform="translate(0 0)" style="fill: #00008b"/>
    <path d="M157.5,37.24q-7.38,3.76-14.77,8Q150.13,41,157.5,37.24Z" transform="translate(0 0)" style="fill: #00008b"/>
    <path d="M196.88,20.08q-12.31,4.46-24.61,10Q184.57,24.53,196.88,20.08Z" transform="translate(0 0)" style="fill: #00008b"/>
    <path d="M142.73,45.21Q128,53.63,113.2,63.83,128,53.6,142.73,45.21Z" transform="translate(0 0)" style="fill: #00008b"/>
    <path d="M605.39,77.41l9.84,4.08Z" transform="translate(0 0)" style="fill: #00008b"/>
    <path d="M0,171.72H0c26.25-32.32,52.5-59.24,78.75-81.43C52.5,112.48,26.25,139.4,0,171.72Z" transform="translate(0 0)" style="fill: #00008b"/>
    <path d="M113.2,63.83q-12.3,8.52-24.61,18.36Q100.91,72.35,113.2,63.83Z" transform="translate(0 0)" style="fill: #00008b"/>
    <path d="M172.27,30.12q-7.4,3.35-14.77,7.12Q164.88,33.46,172.27,30.12Z" transform="translate(0 0)" style="fill: #00008b"/>
    <path d="M300.23.24q-4.92.18-9.84.48C293.67.52,297,.35,300.23.24Z" transform="translate(0 0)" style="fill: #00008b"/>
    <path d="M275.62,2c-3.28.34-6.56.74-9.84,1.18C269.06,2.71,272.34,2.31,275.62,2Z" transform="translate(0 0)" style="fill: #00008b"/>
    <path d="M743.2,132.63q4.92,1.78,9.85,3.52Q748.13,134.41,743.2,132.63Z" transform="translate(0 0)" style="fill: #00008b"/>
    <path d="M241.17,7.41Q233.79,9,226.41,10.89,233.79,9,241.17,7.41Z" transform="translate(0 0)" style="fill: #00008b"/>
    <path d="M226.41,10.89q-14.78,3.86-29.53,9.19Q211.64,14.73,226.41,10.89Z" transform="translate(0 0)" style="fill: #00008b"/>
    <path d="M265.78,3.15q-7.38,1-14.76,2.33Q258.4,4.14,265.78,3.15Z" transform="translate(0 0)" style="fill: #00008b"/>
    <path d="M306.36.07q7.2-.08,14.4,0Q313.56-.06,306.36.07Z" transform="translate(0 0)" style="fill: #00008b"/>
    <path d="M950.91,1011.53q-4.26,0-8.5,0Q946.66,1011.58,950.91,1011.53Z" transform="translate(0 0)" style="fill: #00008b"/>
    <path d="M320.76.07q-7.2-.08-14.4,0C204.24,2,102.12,46,0,171.72V1008c314.13-386.75,628.27.2,942.41,3.5q4.25,0,8.5,0c103-1.22,206.06-44.83,309.09-171.67V3.54C946.92,389,633.84,5.9,320.76.07Z" transform="translate(0 0)" style="fill: #00008b"/>
    <path d="M630,87.59c-105,26.1-210,52.19-315,121.49,14.53,9.7,29.06,20.23,43.59,31.46C449.06,179.92,539.53,133.76,630,87.59Z" transform="translate(0 0)"/>
    <path d="M630,505.75c-90.47-97.61-180.94-195.23-271.41-265.21Q336.8,255.15,315,270.93C420,334.14,525,419.94,630,505.75Z" transform="translate(0 0)"/>
    <path d="M267.18,243.79C178.12,314.55,89.06,421.12,0,589.88c105-144,210-242.77,315-318.95Q291.09,256.54,267.18,243.79Z" transform="translate(0 0)"/>
    <path d="M315,209.08C210,139,105,112.14,0,171.72c89.06-3.9,178.12,24.72,267.18,72.07C283.12,231.12,299.06,219.6,315,209.08Z" transform="translate(0 0)"/>
    <path d="M315,255.83c100.31,66.95,200.61,173.32,300.91,281.5q14.08-31.58,28.18-63.07c-86.22-93-172.44-187.27-258.65-258.91,86.21-42.82,172.43-63,258.65-84.49Q637,109.23,630,87.59c-23.48-9.75-47-19.51-70.43-28.76C478,80.76,396.52,108.53,315,162.33,233.48,107.92,152,79.55,70.44,97.48A620.9,620.9,0,0,0,0,171.72v46.75c81.52-46.25,163-40.4,244.57-2.69C163,286.28,81.52,388.65,0,543.12v46.76q7.05,10,14.09,20.56C114.39,427.68,214.7,322,315,255.83Z" transform="translate(0 0)" style="fill: #fff"/>
    <g style="clip-path: url(#a)">
      <path d="M630,87.59c-105,26.1-210,52.19-315,121.49,14.53,9.7,29.06,20.23,43.59,31.46C449.06,179.92,539.53,133.76,630,87.59Z" transform="translate(0 0)"/>
      <path d="M630,505.75c-90.47-97.61-180.94-195.23-271.41-265.21Q336.8,255.15,315,270.93C420,334.14,525,419.94,630,505.75Z" transform="translate(0 0)"/>
      <path d="M315,209.08C210,139,105,112.14,0,171.72c89.06-3.9,178.12,24.72,267.18,72.07C283.12,231.12,299.06,219.6,315,209.08Z" transform="translate(0 0)"/>
      <path d="M267.18,243.79C178.12,314.55,89.06,421.12,0,589.88c105-144,210-242.77,315-318.95Q291.09,256.54,267.18,243.79Z" transform="translate(0 0)"/>
      <path d="M315,240.25c101.87,68,203.74,176.67,305.61,286.55l18.78-42.06C546.92,385,454.44,284.23,362,212c92.48-50.53,185-72.53,277.43-95.51Q634.72,102,630,87.59q-23.47-9.75-47-19.36c-89.31,23-178.65,50.71-268,109.69-89.35-59.64-178.69-88-268-58.4a662.2,662.2,0,0,0-47,52.2v31.16c89.35-50.69,178.7-38.8,268,9.05C178.7,282.69,89.35,389.39,0,558.71v31.16q4.7,6.69,9.39,13.61C111.26,415.43,213.13,307.49,315,240.25Z" transform="translate(0 0)" style="fill: red"/>
    </g>
    <path d="M735,338.7C595,287,455,209.6,315,209.09V282.4C455,278.84,595,315.47,735,338.7Z" transform="translate(0 0)"/>
    <path d="M315,209.09C210,208.7,105,251.52,0,380.8c105-70.47,210-95.74,315-98.4Z" transform="translate(0 0)"/>
    <path d="M0,282.23v0Z" transform="translate(0 0)" style="fill: #fff"/>
    <path d="M308.4.05q6.6,0,13.2,0C317.2,0,312.8,0,308.4.05Z" transform="translate(0 0)" style="fill: #fff"/>
    <path d="M262.5,491.46a384.22,384.22,0,0,1,105,0V282.36c122.5,15.87,245,80.79,367.5,126V269C612.5,223.73,490,158.85,367.5,143V3.6A407,407,0,0,0,321.6.08Q315,0,308.4.05a369,369,0,0,0-45.9,3.57V143C175,155.68,87.5,203.38,0,311.1V450.48c87.5-107.72,175-155.41,262.5-168.1Z" transform="translate(0 0)" style="fill: #fff"/>
    <path d="M735,338.7C595,287,455,209.6,315,209.09V282.4C455,278.84,595,315.47,735,338.7Z" transform="translate(0 0)"/>
    <path d="M315,209.09C210,208.7,105,251.52,0,380.8c105-70.47,210-95.74,315-98.4Z" transform="translate(0 0)"/>
    <path d="M320,.06h.67q-7.34-.13-14.66,0h.34Q313.16,0,320,.06Z" transform="translate(0 0)" style="fill: red"/>
    <path d="M346.5,1.38h0Q333.59.3,320.66.07H320Q333.25.28,346.5,1.38Z" transform="translate(0 0)" style="fill: red"/>
    <path d="M306.34.07H306q-11.25.23-22.5,1.14Q294.92.29,306.34.07Z" transform="translate(0 0)" style="fill: red"/>
    <path d="M306.34.07Q313.16,0,320,.06,313.16,0,306.34.07Z" transform="translate(0 0)" style="fill: red"/>
    <path d="M283.5,489.08a384.13,384.13,0,0,1,63,.14v-237C476,262.88,605.5,332.7,735,380.51V296.88C605.5,249.07,476,179.25,346.5,168.63V1.38Q333.24.29,320,.06q-6.83-.06-13.65,0c-7.61.15-15.23.52-22.84,1.15V168.49C189,176.31,94.5,222.61,0,339V422.6C94.5,306.3,189,259.94,283.5,252.12Z" transform="translate(0 0)" style="fill: red"/>
    <path d="M840,162v0c-70-16.27-140-45.34-210-74.42C700,116.69,770,145.76,840,162Z" transform="translate(0 0)" style="fill: #00008b"/>
    <path d="M0,561v0Z" transform="translate(0 0)" style="fill: #00008b"/>
    <path d="M840,719.55V162c-70-16.27-140-45.34-210-74.44V505.75C420,418.53,210,331.31,0,589.86v139.4C280,384.53,560,654.5,840,719.55Z" transform="translate(0 0)" style="fill: #00008b"/>
    <path d="M356,617.09q16.47-31.19,32.93-61.23a564.14,564.14,0,0,0-55.71,21.64q-9.11-38.07-18.22-75.71-9.11,37.59-18.22,75.6a409,409,0,0,0-55.66-20.95q16.47,29.4,32.93,60.53-25.59,23-51.18,50a324.51,324.51,0,0,1,59.29-3.68q-4.08,39.5-8.16,79.07,20.5-30.92,41-59.41,20.5,28.71,41,59.52-4.08-39.54-8.16-79a477.63,477.63,0,0,1,59.29,2Q381.54,640,356,617.09Z" transform="translate(0 0)" style="fill: #fff"/>
    <path d="M964.5,865.83q7.85-16.05,15.68-32.45-13.24,7.92-26.5,14.81L945,812.42q-4.34,17.9-8.68,35.7-13.25-7-26.5-14.88,7.84,16.37,15.68,32.45-12.18,9-24.37,17.21,14.11,3.2,28.23,5.45-1.93,18.55-3.88,37.09,9.75-13.12,19.52-26.71,9.76,13.65,19.53,26.83-1.95-18.54-3.89-37.1,14.11-2.16,28.23-5.46Q976.69,874.84,964.5,865.83Z" transform="translate(0 0)" style="fill: #fff"/>
    <path d="M807,513.44q7.85-13.43,15.68-27.05-13.24,3.21-26.5,5.86-4.33-19.22-8.68-38.47-4.34,16.58-8.68,33.06-13.25-10.95-26.5-22.31Q760.17,483,768,501.28q-12.18,5.5-24.37,10.68,14.11,6.75,28.23,13.07-1.93,18-3.88,36,9.75-10.35,19.52-20.93,9.76,16.68,19.53,33.11-1.95-19.2-3.89-38.39,14.11,2.48,28.23,4.35Q819.19,526.54,807,513.44Z" transform="translate(0 0)" style="fill: #fff"/>
    <path d="M964.5,308.27q7.85-16,15.68-32.45-13.24,7.92-26.5,14.8-4.33-17.83-8.68-35.75-4.34,17.89-8.68,35.69-13.25-7-26.5-14.89,7.84,16.38,15.68,32.47-12.18,9-24.37,17.2,14.11,3.2,28.23,5.45-1.93,18.56-3.88,37.08,9.75-13.11,19.52-26.71,9.76,13.65,19.53,26.84-1.95-18.56-3.89-37.1,14.11-2.17,28.23-5.47Q976.69,317.3,964.5,308.27Z" transform="translate(0 0)" style="fill: #fff"/>
    <path d="M1104.5,441.19q7.85-19.74,15.68-40-13.25,14.38-26.5,27.33-4.34-15.84-8.68-31.83-4.34,19.84-8.68,39.53-13.24-1.22-26.5-3.7,7.85,13.18,15.68,25.94-12.18,14.13-24.37,27.2,14.11-2.4,28.23-6.19-1.93,19.37-3.88,38.73Q1075.23,501,1085,483q9.76,9.32,19.52,17.89-1.93-17.65-3.88-35.33,14.11-8.74,28.23-19.06Q1116.69,444.49,1104.5,441.19Z" transform="translate(0 0)" style="fill: #fff"/>
    <path d="M1014.86,609.11q-3.43-10.47-6.86-21-3.43,11.77-6.86,23.47-9,2.28-18.1,4.09,6.93,7.08,13.86,13.85-2.16,12-4.33,24,7.71-7.35,15.43-15.07,7.71,5,15.43,9.58-2.16-11.21-4.33-22.45,6.93-9.24,13.87-18.82Q1023.91,608.2,1014.86,609.11Z" transform="translate(0 0)" style="fill: #fff"/>
  </g>
</svg>
