<svg xmlns="http://www.w3.org/2000/svg" viewBox="0 0 1260 1012.04">
  <g>
    <path d="M0,90.08v920C420,738.76,840,1193.28,1260,922V2C840,273.28,420-181.24,0,90.08Z" style="fill: #4189dd"/>
    <path d="M0,856.74C420,585.43,840,1040,1260,768.63V717.52C840,988.84,420,534.32,0,805.63Z" style="fill: #f9d616"/>
    <path d="M0,754.52c420-271.31,840,183.21,1260-88.11V615.3C840,886.62,420,432.09,0,703.41Z" style="fill: #f9d616"/>
    <path d="M186.67,81.54Q172.08,136.37,157.5,192A815.08,815.08,0,0,0,63,259.09a443.85,443.85,0,0,1,94.52-3.18q14.58,47.85,29.17,96.56,14.58-54.81,29.16-108.83a795.08,795.08,0,0,1,94.52-39.19,691.23,691.23,0,0,0-94.52-24.7Q201.25,130.25,186.67,81.54Z" style="fill: #d21034"/>
    <path d="M186.67,64.21Q170.21,126,153.77,189A826.19,826.19,0,0,0,47.15,267a437.76,437.76,0,0,1,106.62-6q16.44,53.85,32.9,108.8Q203.11,308,219.56,247.16a804.33,804.33,0,0,1,106.62-42.61c-35.54-12.62-71.08-22.73-106.62-29.46Q203.12,119.16,186.67,64.21ZM212.1,240.14q-12.72,47.21-25.43,95-12.72-42.47-25.44-84.3a451.2,451.2,0,0,0-82.42.93,806.33,806.33,0,0,1,82.42-56.65Q174,146.67,186.67,98.88q12.71,42.47,25.43,85.55a665.53,665.53,0,0,1,82.43,20.27A785.76,785.76,0,0,0,212.1,240.14Z" style="fill: #fff"/>
  </g>
</svg>
