<svg xmlns="http://www.w3.org/2000/svg" viewBox="0 0 1260 1012.04">
  <g>
    <path d="M0,90.08v920C420,738.76,840,1193.28,1260,922V2C840,273.28,420-181.24,0,90.08Z" style="fill: #0053a5"/>
    <path d="M387.69,3.5v920C468.46,930.79,549.23,948.41,630,966V46C549.23,28.41,468.46,10.79,387.69,3.5Z" style="fill: #ffce00"/>
    <path d="M0,685.37c420-271.32,840,183.21,1260-88.11V326.67C840,598,420,143.47,0,414.78Z" style="fill: #ffce00"/>
    <path d="M460.38,12.57v920c32.31,5,64.62,11.2,96.93,17.88v-920C525,23.77,492.69,17.59,460.38,12.57Z" style="fill: #d21034"/>
    <path d="M0,604.19c420-271.31,840,183.21,1260-88.1V407.85C840,679.17,420,224.64,0,496Z" style="fill: #d21034"/>
  </g>
</svg>
