<svg xmlns="http://www.w3.org/2000/svg" viewBox="0 0 1260 1012.04">
  <g>
    <path d="M0,90.08v920C420,738.76,840,1193.28,1260,922V2C840,273.28,420-181.24,0,90.08Z" style="fill: #3f9c35"/>
    <path d="M0,90.08V703.41C420,432.09,840,886.62,1260,615.3V2C840,273.28,420-181.24,0,90.08Z" style="fill: #ed2939"/>
    <path d="M0,90.08V396.74C420,125.43,840,580,1260,308.63V2C840,273.28,420-181.24,0,90.08Z" style="fill: #00b9e4"/>
    <path d="M609,363.45C556.81,352,514.5,405.67,514.5,482s42.31,146,94.5,157.5,94.5-41.39,94.5-117.69C703.5,445.63,661.19,374.92,609,363.45Z" style="fill: #fff"/>
    <path d="M630,391c-43.49-9.57-78.75,34.63-78.75,98.18S586.51,611.45,630,621s78.75-34.62,78.75-98.18S673.49,400.59,630,391Z" style="fill: #ed2939"/>
    <path d="M738.25,514q6.43-18.52,12.87-37.1-13.53,6.87-27.07,13.57l-10-43.26-10,39.19Q690.42,474.26,676.88,462q6.43,21.15,12.87,42.27-14.13,4.36-28.25,8.64,14.13,10.38,28.25,20.7-6.43,18.42-12.87,36.81,13.53-6.51,27.07-13.11l10,43.31,10-39.23q13.53,12.09,27.07,24-6.43-21-12.87-42,14.13-4.62,28.25-9.43Q752.37,524.11,738.25,514Z" style="fill: #fff"/>
  </g>
</svg>
