<svg xmlns="http://www.w3.org/2000/svg" viewBox="0 0 1260 1012.01">
  <g>
    <path d="M0,90.07v920c420-271.31,840,183.2,1260-88.11V2C840,273.27,420-181.23,0,90.07Z" style="fill: #002395"/>
    <path d="M333.9.28c210,312.37,420,710,630,1011.51v-920C753.9,97,543.9,6,333.9.28Z" style="fill: #fecb00"/>
    <path d="M242.25,3.76v0l0,0Z" style="fill: #fff"/>
    <path d="M198.76,10.13v0h0Z" style="fill: #fff"/>
    <path d="M198.79,10.16q10.86,9.49,21.71,19.41,10.86-13.11,21.71-25.81Q220.51,6.15,198.79,10.16Z" style="fill: #fff"/>
    <path d="M220.5,29.57q-10.86-9.91-21.71-19.41h0Q192,41.6,185.32,73.2,202.92,50.81,220.5,29.57Z" style="fill: #fff"/>
    <path d="M220.5,29.57q17.59,16.08,35.18,33.23-6.72-29.59-13.43-59h0Q231.35,16.47,220.5,29.57Z" style="fill: #fff"/>
    <path d="M242.33,81.39q17.6,16.74,35.18,34.5,4.15-18.89,8.3-37.71Q264.08,79.05,242.33,81.39Z" style="fill: #fff"/>
    <path d="M264.07,177.12q17.6-20,35.18-39-10.87-11.31-21.74-22.28Q270.79,146.43,264.07,177.12Z" style="fill: #fff"/>
    <path d="M334.43,175.65Q327.71,145.26,321,115q-10.87,11.43-21.74,23.17Q316.85,156.49,334.43,175.65Z" style="fill: #fff"/>
    <path d="M299.25,17.39q-6.72,30.33-13.44,60.79,13.44-.53,26.88-.54Q306,47.44,299.25,17.39Z" style="fill: #fff"/>
    <path d="M312.69,77.64Q316.84,96.3,321,115q17.6-18.48,35.18-36.16Q334.44,77.64,312.69,77.64Z" style="fill: #fff"/>
    <path d="M285.81,78.18q-4.15,18.82-8.3,37.71,10.88,11,21.74,22.28Q310.13,126.43,321,115q-4.15-18.7-8.3-37.36Q299.25,77.66,285.81,78.18Z" style="fill: #fff"/>
    <path d="M342.82,290.92q17.6-18,35.18-35.22-10.87-12.4-21.74-24.54Q349.54,261,342.82,290.92Z" style="fill: #fff"/>
    <path d="M413.18,296.48q-6.72-31-13.44-61.86Q388.87,245,378,255.7,395.6,275.76,413.18,296.48Z" style="fill: #fff"/>
    <path d="M321.08,192.67q17.6,18.86,35.18,38.49,4.15-18.43,8.3-36.82Q342.83,192.93,321.08,192.67Z" style="fill: #fff"/>
    <path d="M364.56,194.34q-4.15,18.39-8.3,36.82Q367.14,243.3,378,255.7q10.88-10.66,21.74-21.08-4.15-19.1-8.3-38.14Q378,195.21,364.56,194.34Z" style="fill: #fff"/>
    <path d="M378,134.92q-6.72,29.66-13.44,59.42,13.44.87,26.88,2.14Q384.72,165.66,378,134.92Z" style="fill: #fff"/>
    <path d="M391.44,196.48q4.15,19.05,8.3,38.14,17.6-16.86,35.18-33.12Q413.19,198.56,391.44,196.48Z" style="fill: #fff"/>
    <path d="M421.57,412.48Q439.17,396,456.75,380q-10.87-13.2-21.74-26.2Q428.29,383.11,421.57,412.48Z" style="fill: #fff"/>
    <path d="M491.93,423.16q-6.72-31.38-13.44-62.71-10.87,9.71-21.74,19.58Q474.35,401.38,491.93,423.16Z" style="fill: #fff"/>
    <path d="M399.83,312.3q17.6,20.47,35.18,41.53,4.15-18.1,8.3-36.17Q421.58,314.55,399.83,312.3Z" style="fill: #fff"/>
    <path d="M470.19,321.76q4.15,19.33,8.3,38.69,17.6-15.7,35.18-31Q491.94,325.33,470.19,321.76Z" style="fill: #fff"/>
    <path d="M443.31,317.66q-4.15,18.06-8.3,36.17,10.88,13,21.74,26.2,10.88-9.87,21.74-19.58-4.15-19.35-8.3-38.69Q456.75,319.57,443.31,317.66Z" style="fill: #fff"/>
    <path d="M456.75,259.25q-6.72,29.17-13.44,58.41,13.44,1.9,26.88,4.1Q463.47,290.47,456.75,259.25Z" style="fill: #fff"/>
    <path d="M500.32,539.66Q517.92,524.2,535.5,509q-10.87-13.69-21.74-27.28Q507,510.68,500.32,539.66Z" style="fill: #fff"/>
    <path d="M478.58,438.14q17.6,21.62,35.18,43.62,4.15-17.88,8.3-35.74Q500.33,441.82,478.58,438.14Z" style="fill: #fff"/>
    <path d="M570.68,553.57l-13.44-63.19Q546.37,499.67,535.5,509,553.1,531.19,570.68,553.57Z" style="fill: #fff"/>
    <path d="M548.94,451.35q4.15,19.51,8.3,39,17.6-15,35.18-29.89Q570.68,455.81,548.94,451.35Z" style="fill: #fff"/>
    <path d="M535.5,388.26q-6.72,28.86-13.44,57.76,13.44,2.58,26.88,5.33Q542.22,419.79,535.5,388.26Z" style="fill: #fff"/>
    <path d="M522.06,446q-4.15,17.87-8.3,35.74Q524.64,495.34,535.5,509q10.88-9.37,21.74-18.66-4.15-19.51-8.3-39Q535.5,448.62,522.06,446Z" style="fill: #fff"/>
    <path d="M557.33,568.07q17.59,22.29,35.18,44.76,4.15-17.77,8.3-35.54Q579.08,572.6,557.33,568.07Z" style="fill: #fff"/>
    <path d="M627.69,583.14q4.15,19.56,8.3,39.13,17.6-14.82,35.18-29.7Q649.43,587.91,627.69,583.14Z" style="fill: #fff"/>
    <path d="M649.43,685.59,636,622.27,614.25,640.6Q631.85,663.09,649.43,685.59Z" style="fill: #fff"/>
    <path d="M579.07,670.34q17.59-14.93,35.18-29.74-10.87-13.9-21.74-27.77Q585.79,641.57,579.07,670.34Z" style="fill: #fff"/>
    <path d="M614.25,519.82l-13.44,57.47,26.88,5.85Z" style="fill: #fff"/>
    <path d="M600.81,577.29q-4.15,17.78-8.3,35.54,10.88,13.86,21.74,27.77L636,622.27q-4.15-19.56-8.3-39.13Z" style="fill: #fff"/>
    <path d="M636.08,700q17.59,22.5,35.18,44.95,4.15-17.77,8.3-35.55Q657.83,704.72,636.08,700Z" style="fill: #fff"/>
    <path d="M657.82,802.4q17.59-14.85,35.18-29.81-10.87-13.82-21.74-27.68Z" style="fill: #fff"/>
    <path d="M728.18,817.08q-6.72-31.53-13.44-63.08-10.87,9.33-21.74,18.59Q710.6,794.93,728.18,817.08Z" style="fill: #fff"/>
    <path d="M679.56,709.36q-4.15,17.77-8.3,35.55,10.88,13.86,21.74,27.68,10.88-9.27,21.74-18.59-4.15-19.5-8.3-39Q693,712.22,679.56,709.36Z" style="fill: #fff"/>
    <path d="M706.44,715q4.15,19.51,8.3,39,17.6-15.11,35.18-30.46Q728.19,719.48,706.44,715Z" style="fill: #fff"/>
    <path d="M693,651.81l-13.44,57.55Q693,712.21,706.44,715Z" style="fill: #fff"/>
    <path d="M736.57,933.71q17.59-15.26,35.18-30.84-10.87-13.43-21.74-27Q743.29,904.82,736.57,933.71Z" style="fill: #fff"/>
    <path d="M714.83,831.69q17.59,22.23,35.18,44.18,4.15-17.88,8.3-35.79Q736.58,836.12,714.83,831.69Z" style="fill: #fff"/>
    <path d="M806.93,945.91q-6.72-31.2-13.44-62.47-10.87,9.79-21.74,19.43Q789.35,924.61,806.93,945.91Z" style="fill: #fff"/>
    <path d="M771.75,782.09q-6.72,29-13.44,58,13.44,2.46,26.88,4.69Q778.47,813.45,771.75,782.09Z" style="fill: #fff"/>
    <path d="M758.31,840.08Q754.16,858,750,875.87q10.88,13.57,21.74,27,10.88-9.63,21.74-19.43-4.15-19.32-8.3-38.67Q771.75,842.54,758.31,840.08Z" style="fill: #fff"/>
    <path d="M785.19,844.77q4.15,19.35,8.3,38.67,17.6-15.84,35.18-32.17Q806.94,848.41,785.19,844.77Z" style="fill: #fff"/>
    <path d="M907.42,973.64c-14.49-.73-29-1.85-43.48-3.28q4.15,19.07,8.3,38.11Q889.84,991.4,907.42,973.64Z" style="fill: #fff"/>
    <path d="M850.5,908.55q-6.72,29.44-13.44,58.8,13.44,1.67,26.88,3Q857.22,939.5,850.5,908.55Z" style="fill: #fff"/>
    <path d="M793.58,961.13q17.59,21.47,35.18,42.47,4.15-18.11,8.3-36.25Q815.33,964.64,793.58,961.13Z" style="fill: #fff"/>
    <path d="M872.21,1008.5h0v0Z" style="fill: #fff"/>
    <path d="M828.76,1003.6v0h0Z" style="fill: #fff"/>
    <path d="M872.21,1008.5l0,0q-4.15-19-8.3-38.11-13.44-1.33-26.88-3-4.15,18.14-8.3,36.25l0,0Q850.5,1006.5,872.21,1008.5Z" style="fill: #fff"/>
  </g>
</svg>
