<svg xmlns="http://www.w3.org/2000/svg" viewBox="0 0 1260 1012.04">
  <g>
    <path d="M0,90.08v920C420,738.76,840,1193.28,1260,922V2C840,273.28,420-181.24,0,90.08Z" style="fill: #00267f"/>
    <path d="M420,6.94v920C560,944,700,988,840,1005.1V85.1C700,68,560,24,420,6.94Z" style="fill: #ffc726"/>
    <path d="M572.67,386.47c9.24-1.39,25.41-.9,35.8,1.65V559.58q-22.1-1.2-44.2-2.25c-1.58-.5-2.1-3.32-2.1-7-4.25-54.12-15.75-101.25-29-150.15-1-6.53-17.69-33.93-4.78-27.16,1.58.52,18.85,11.68,16.12,7.46C521,349,486.62,323.22,453.23,312.55c-2.94-1.25-4.67.11-2,4.23,44.31,81.31,81.37,177.2,81.05,281.64,17.22,3.31,59,1,76.23,4.8v121L630.26,729q2.49-168.39,5-336.78l-5.25-109C616.35,321,602.44,360.3,572.67,386.47Z"/>
    <path d="M806.77,381.64c-33.39.71-67.78,13.31-91.3,35.22-2.73,3.14,14.54-1.11,16.12-1.05,12.91-1.74-3.83,19.15-4.78,25.28-13.23,43.67-24.73,86-29,138.38,0,3.68-.52,6.27-2.1,6.12q-22.11-8.21-44.2-16.63V397.49c10.39,2,26.56,8.44,35.8,13.72-29.77-38.8-43.68-84.33-57.33-128.06l-5.25,106.73q2.49,169.47,5,339l21.79,4.75v-121c17.27,3.8,59,23.8,76.22,27.11C727.44,535,764.5,454.56,808.81,386.49,811.44,383.13,809.71,381.27,806.77,381.64Z"/>
  </g>
</svg>
