<svg xmlns="http://www.w3.org/2000/svg" viewBox="0 0 1260 1012.04">
  <g>
    <path d="M0,90.08v920C420,738.76,840,1193.28,1260,922V2C840,273.28,420-181.24,0,90.08Z" style="fill: #006a4e"/>
    <path d="M567,185.8c-69.59-15.06-132.59,9.59-178.19,61C343.21,297.86,315,375.7,315,460c0,85.07,28.21,160.56,73.81,220.47,45.6,59.6,108.6,103.61,178.19,118.66s132.59-5.31,178.19-52.27C790.79,700.2,819,626.8,819,542.34c0-84.9-28.21-164.84-73.81-229.17C699.59,249.14,636.59,200.71,567,185.8Z" style="fill: #f42a41"/>
  </g>
</svg>
