<svg xmlns="http://www.w3.org/2000/svg" viewBox="0 0 1260 1012.04">
  <g>
    <path d="M0,90.08v920C420,738.76,840,1193.28,1260,922V2C840,273.28,420-181.24,0,90.08Z" style="fill: #fff"/>
    <path d="M310.8,0C375.2,30.43,439.6,69.51,504,112c-64.4,18.85-128.8,41.11-193.2,72,64.4,30.43,128.8,69.51,193.2,112-64.4,18.85-128.8,41.11-193.2,72,64.4,30.43,128.8,69.51,193.2,112-64.4,18.85-128.8,41.11-193.2,72,64.4,30.43,128.8,69.51,193.2,112-64.4,18.85-128.8,41.11-193.2,72,64.4,30.43,128.8,69.51,193.2,112-64.4,18.85-128.8,41.11-193.2,72,316.4-1.17,632.8,206.36,949.2,2V2C943.6,206.36,627.2-1.17,310.8,0Z" style="fill: #ce1126"/>
  </g>
</svg>
