<svg xmlns="http://www.w3.org/2000/svg" viewBox="0 0 1260 1012.04">
  <g>
    <path d="M1260,2C840,273.28,420-181.24,0,90.08,210,107.75,420,306.89,630,506,840,398.49,1050,291,1260,2Z" style="fill: #ce1126"/>
    <path d="M0,1010.08C420,738.76,840,1193.28,1260,922,1050,904.29,840,705.16,630,506,420,613.55,210,721.08,0,1010.08Z" style="fill: #ce1126"/>
    <path d="M0,90.08v920C210,721.08,420,613.55,630,506,420,306.89,210,107.75,0,90.08Z" style="fill: #1eb53a"/>
    <path d="M630,506c210,199.14,420,398.27,630,416V2C1050,291,840,398.49,630,506Z" style="fill: #1eb53a"/>
    <path d="M0,90.08C420,125.43,840,886.62,1260,922m0-920C840,580,420,432.09,0,1010.08"/>
    <path d="M1260,850.44C1082.65,835.52,905.31,691.17,728,526.7c177.35-94.51,354.69-209.15,532-453.21V2a566.16,566.16,0,0,1-98,50.8C984.69,252.87,807.35,343.68,630,434.5,452.65,266.32,275.31,98.15,98,39.27A566.23,566.23,0,0,0,0,90.08V161.6c177.35,14.93,354.69,159.27,532,323.74C354.69,579.86,177.35,694.5,0,938.55v71.53a566.23,566.23,0,0,1,98-50.81c177.35-200.1,354.69-290.91,532-381.72,177.35,168.17,354.69,336.34,532,395.22a566.16,566.16,0,0,0,98-50.8Z" style="fill: #fff"/>
    <path d="M630,245.36c-118.3-27.49-214.2,76.3-214.2,221.08,0,143.15,95.9,272.77,214.2,300.25s214.2-76.31,214.2-221.08C844.2,402.46,748.3,272.84,630,245.36Z" style="fill: #fff"/>
    <path d="M604.8,357.39q21.83,20.06,43.65,40.17L630,309.76Q617.4,333.57,604.8,357.39Z" style="fill: #1eb53a"/>
    <path d="M611.55,389.52q21.83-10.59,43.65-21.16L630,309.76Z" style="fill: #1eb53a"/>
    <path d="M604.8,373.82c23,12.46,45.9,25,68.85,37.39q-12.6-29.25-25.2-58.55Q626.63,363.25,604.8,373.82Z" style="fill: #1eb53a"/>
    <path d="M623.25,400.28q25.2,5.5,50.4,10.93-25.2-36-50.4-72.26Z" style="fill: #1eb53a"/>
    <path d="M636.75,403.23V341.89q-25.2,25.19-50.4,50.41C603.15,395.89,620,399.57,636.75,403.23Z" style="fill: #1eb53a"/>
    <path d="M586.35,392.3c22.95-2.58,45.9-5,68.85-7.51q-21.83-20.07-43.65-40.17Q599,368.44,586.35,392.3Z" style="fill: #1eb53a"/>
    <path d="M630,432.42q12.6-23.81,25.2-47.63-21.83-20.07-43.65-40.17Z" style="fill: #1eb53a"/>
    <path d="M630,432.42l18.45-79.76q-21.83,10.59-43.65,21.16Z" style="fill: #1eb53a"/>
    <path d="M611.55,389.52q21.83-10.59,43.65-21.16c-23-12.46-45.9-25-68.85-37.4Z" style="fill: #1eb53a"/>
    <path d="M636.75,403.23V341.89q-25.2-5.49-50.4-10.93Q611.55,367,636.75,403.23Z" style="fill: #1eb53a"/>
    <path d="M623.25,400.28q25.2-25.17,50.4-50.4c-16.8-3.59-33.6-7.27-50.4-10.93Z" style="fill: #1eb53a"/>
    <path d="M648.45,397.56q12.6-23.82,25.2-47.68c-22.95,2.57-45.9,5-68.85,7.51Q626.63,377.45,648.45,397.56Z" style="fill: #1eb53a"/>
    <path d="M609.34,359.85l35.79,32.94q-7.57-36-15.13-72Q619.67,340.32,609.34,359.85Z" style="fill: #ce1126"/>
    <path d="M614.87,386.2l35.79-17.35L630,320.8Q622.44,353.5,614.87,386.2Z" style="fill: #ce1126"/>
    <path d="M609.34,373.33q28.21,15.33,56.45,30.68-10.34-24-20.66-48Q627.24,364.65,609.34,373.33Z" style="fill: #ce1126"/>
    <path d="M624.46,395q20.67,4.5,41.33,9-20.65-29.6-41.33-59.28Z" style="fill: #ce1126"/>
    <path d="M635.54,397.44V347.15q-20.67,20.64-41.33,41.31Q614.87,392.92,635.54,397.44Z" style="fill: #ce1126"/>
    <path d="M594.21,388.46c18.82-2.08,37.64-4.08,56.45-6.13l-35.79-32.95Q604.54,368.91,594.21,388.46Z" style="fill: #ce1126"/>
    <path d="M630,421.38q10.34-19.51,20.66-39.05l-35.79-32.95Q622.44,385.38,630,421.38Z" style="fill: #ce1126"/>
    <path d="M630,421.38q7.56-32.7,15.13-65.4-17.89,8.67-35.79,17.35Z" style="fill: #ce1126"/>
    <path d="M614.87,386.2l35.79-17.35q-28.21-15.33-56.45-30.68Q604.55,362.17,614.87,386.2Z" style="fill: #ce1126"/>
    <path d="M635.54,397.44V347.15q-20.67-4.5-41.33-9Q614.87,367.77,635.54,397.44Z" style="fill: #ce1126"/>
    <path d="M624.46,395q20.67-20.64,41.33-41.32-20.65-4.44-41.33-9Z" style="fill: #ce1126"/>
    <path d="M645.13,392.79q10.33-19.53,20.66-39.08c-18.82,2.09-37.64,4.09-56.45,6.14Z" style="fill: #ce1126"/>
    <path d="M700.82,596.89c22.95,12.24,45.9,24.24,68.85,35.75q-12.6-28.77-25.2-57.72Q722.65,586.11,700.82,596.89Z" style="fill: #1eb53a"/>
    <path d="M719.27,623.11c16.8,3.37,33.6,6.58,50.4,9.53q-25.2-35.08-50.4-70.86Z" style="fill: #1eb53a"/>
    <path d="M732.78,625.78V564.45q-25.2,25.75-50.4,51Q707.58,620.82,732.78,625.78Z" style="fill: #1eb53a"/>
    <path d="M682.38,615.47c23-2.61,45.9-5.41,68.84-8.62q-21.81-19.4-43.64-39.23Q695,591.59,682.38,615.47Z" style="fill: #1eb53a"/>
    <path d="M700.82,580.46q21.82,19.86,43.65,39.36-9.22-43.65-18.45-87.36Q713.42,556.52,700.82,580.46Z" style="fill: #1eb53a"/>
    <path d="M707.58,612.52q21.82-10.86,43.64-22.1-12.6-28.9-25.2-58Q716.81,572.52,707.58,612.52Z" style="fill: #1eb53a"/>
    <path d="M707.58,612.52q21.82-10.86,43.64-22.1c-22.94-11.76-45.89-23.93-68.84-36.28Q695,583.38,707.58,612.52Z" style="fill: #1eb53a"/>
    <path d="M732.78,625.78V564.45q-25.2-4.92-50.4-10.31Q707.58,590.16,732.78,625.78Z" style="fill: #1eb53a"/>
    <path d="M719.27,623.11q25.2-25.61,50.4-51.8c-16.8-2.95-33.6-6.16-50.4-9.53Z" style="fill: #1eb53a"/>
    <path d="M744.47,619.82q12.6-24.18,25.2-48.51c-22.95,3.45-45.9,6.42-68.85,9.15Q722.65,600.32,744.47,619.82Z" style="fill: #1eb53a"/>
    <path d="M726,655.12q12.6-24.06,25.2-48.27-21.81-19.4-43.64-39.23Z" style="fill: #1eb53a"/>
    <path d="M726,655.12q9.22-40.07,18.45-80.2-21.83,11.19-43.65,22Q713.42,626.07,726,655.12Z" style="fill: #1eb53a"/>
    <path d="M705.36,596.35q28.23,15,56.46,29.37-10.34-23.64-20.67-47.39Q723.26,587.48,705.36,596.35Z" style="fill: #ce1126"/>
    <path d="M720.49,617.83q20.65,4.14,41.33,7.89-20.67-28.87-41.33-58.18Z" style="fill: #ce1126"/>
    <path d="M731.56,620v-50.3q-20.65,21.1-41.33,41.88Q710.9,616,731.56,620Z" style="fill: #ce1126"/>
    <path d="M690.23,611.61c18.82-2.18,37.64-4.5,56.46-7.09q-17.9-15.94-35.79-32.18Q700.57,592,690.23,611.61Z" style="fill: #ce1126"/>
    <path d="M705.36,582.88q17.89,16.25,35.79,32.26Q733.59,579.35,726,543.5,715.7,563.22,705.36,582.88Z" style="fill: #ce1126"/>
    <path d="M710.9,609.16q17.9-8.92,35.79-18.11Q736.35,567.32,726,543.5,718.46,576.35,710.9,609.16Z" style="fill: #ce1126"/>
    <path d="M710.9,609.16q17.9-8.92,35.79-18.11-28.23-14.53-56.46-29.73Q700.57,585.27,710.9,609.16Z" style="fill: #ce1126"/>
    <path d="M731.56,620v-50.3q-20.65-4-41.33-8.41Q710.9,590.81,731.56,620Z" style="fill: #ce1126"/>
    <path d="M720.49,617.83q20.65-21,41.33-42.4-20.67-3.72-41.33-7.89Z" style="fill: #ce1126"/>
    <path d="M741.15,615.14q10.33-19.8,20.67-39.71c-18.82,2.74-37.64,5.18-56.46,7.45Q723.25,599.13,741.15,615.14Z" style="fill: #ce1126"/>
    <path d="M726,644.08q10.34-19.73,20.67-39.56-17.9-15.94-35.79-32.18Q718.46,608.23,726,644.08Z" style="fill: #ce1126"/>
    <path d="M726,644.08q7.58-32.85,15.13-65.75-17.89,9.15-35.79,18Q715.7,620.26,726,644.08Z" style="fill: #ce1126"/>
    <path d="M540.73,585.2V523.87q-25.2,25.61-50.4,51.8C507.13,578.62,523.93,581.83,540.73,585.2Z" style="fill: #1eb53a"/>
    <path d="M490.33,575.67c22.95-3.45,45.9-6.43,68.85-9.15q-21.82-19.86-43.65-39.36Q502.93,551.33,490.33,575.67Z" style="fill: #1eb53a"/>
    <path d="M508.78,540.12q21.81,19.39,43.64,39.24-9.23-43.79-18.44-87.51Q521.38,515.92,508.78,540.12Z" style="fill: #1eb53a"/>
    <path d="M515.53,572.06q21.83-11.19,43.65-22-12.6-29.16-25.2-58.23Q524.76,531.92,515.53,572.06Z" style="fill: #1eb53a"/>
    <path d="M508.78,556.56c22.94,11.75,45.89,23.92,68.84,36.28q-12.6-29.24-25.2-58.38Q530.6,545.32,508.78,556.56Z" style="fill: #1eb53a"/>
    <path d="M527.22,582.53q25.2,4.9,50.4,10.31-25.2-36-50.4-71.65Z" style="fill: #1eb53a"/>
    <path d="M527.22,582.53q25.2-25.75,50.4-51-25.2-5.34-50.4-10.31Z" style="fill: #1eb53a"/>
    <path d="M552.42,579.36q12.6-24,25.2-47.86c-23,2.62-45.9,5.41-68.84,8.62Q530.59,559.51,552.42,579.36Z" style="fill: #1eb53a"/>
    <path d="M534,614.52q12.6-24.06,25.2-48-21.82-19.86-43.65-39.36Q524.75,570.8,534,614.52Z" style="fill: #1eb53a"/>
    <path d="M534,614.52q9.21-40.07,18.44-80.06-21.82,10.86-43.64,22.1Q521.38,585.47,534,614.52Z" style="fill: #1eb53a"/>
    <path d="M515.53,572.06q21.83-11.19,43.65-22c-22.95-12.24-45.9-24.23-68.85-35.74Q502.93,543.11,515.53,572.06Z" style="fill: #1eb53a"/>
    <path d="M540.73,585.2V523.87q-25.2-5.07-50.4-9.53Q515.53,549.42,540.73,585.2Z" style="fill: #1eb53a"/>
    <path d="M539.51,579.44v-50.3q-20.65,21-41.33,42.41Q518.85,575.27,539.51,579.44Z" style="fill: #ce1126"/>
    <path d="M498.18,571.55c18.82-2.75,37.64-5.18,56.46-7.45q-17.89-16.26-35.79-32.27Q508.52,551.65,498.18,571.55Z" style="fill: #ce1126"/>
    <path d="M513.31,542.45q17.9,15.94,35.79,32.19-7.56-35.89-15.12-71.75Q523.65,522.63,513.31,542.45Z" style="fill: #ce1126"/>
    <path d="M518.85,568.65q17.89-9.15,35.79-18Q544.31,526.73,534,502.89,526.41,535.75,518.85,568.65Z" style="fill: #ce1126"/>
    <path d="M513.31,555.93q28.23,14.52,56.46,29.73-10.34-24-20.67-47.84Q531.2,546.74,513.31,555.93Z" style="fill: #ce1126"/>
    <path d="M528.44,577.24q20.65,4.05,41.33,8.42Q549.1,556.17,528.44,527Z" style="fill: #ce1126"/>
    <path d="M528.44,577.24q20.65-21.09,41.33-41.88Q549.1,531,528.44,527Z" style="fill: #ce1126"/>
    <path d="M549.1,574.64q10.33-19.68,20.67-39.28c-18.82,2.18-37.64,4.5-56.46,7.09Q531.21,558.4,549.1,574.64Z" style="fill: #ce1126"/>
    <path d="M534,603.48q10.32-19.72,20.66-39.38-17.89-16.26-35.79-32.27Q526.41,567.64,534,603.48Z" style="fill: #ce1126"/>
    <path d="M534,603.48q7.56-32.85,15.12-65.66-17.9,8.92-35.79,18.11Q523.65,579.66,534,603.48Z" style="fill: #ce1126"/>
    <path d="M518.85,568.65q17.89-9.15,35.79-18c-18.82-10-37.64-19.84-56.46-29.37Q508.52,544.89,518.85,568.65Z" style="fill: #ce1126"/>
    <path d="M539.51,579.44v-50.3q-20.65-4.14-41.33-7.89Q518.85,550.13,539.51,579.44Z" style="fill: #ce1126"/>
  </g>
</svg>
