<svg xmlns="http://www.w3.org/2000/svg" viewBox="0 0 1260 1012.04">
  <g>
    <path d="M0,90.08v920C420,738.76,840,1193.28,1260,922V2C840,273.28,420-181.24,0,90.08Z" style="fill: #cf142b"/>
    <path d="M630,46C420,.22,210-45.58,0,90.08v460C210,414.42,420,460.22,630,506Z" style="fill: #00247d"/>
    <path d="M559.57,490.91C583,495.78,606.52,500.9,630,506V454.59C548.48,377.29,467,300,385.43,233.3c-23.47,15.08-46.95,31-70.43,48.13C396.52,341.12,478,414.49,559.57,490.91Z" style="fill: #fff"/>
    <path d="M315,281.43c-23.48-17.19-47-33.25-70.43-47.92C163,301.62,81.52,386.46,0,498.65v51.43a576.37,576.37,0,0,1,70.43-39C152,413.81,233.48,340.78,315,281.43Z" style="fill: #fff"/>
    <path d="M385.43,233.3C467,180.94,548.48,139.19,630,97.45V46c-23.48-5.12-47-10.24-70.43-15.11C478,73.54,396.52,119.22,315,178.57,338.48,195.77,362,214.09,385.43,233.3Z" style="fill: #fff"/>
    <path d="M315,178.57C233.48,118.88,152,72.86,70.43,51.13A576.37,576.37,0,0,0,0,90.08V141.5c81.52,6.87,163,41.07,244.57,92C268,213.9,291.52,195.67,315,178.57Z" style="fill: #fff"/>
    <path d="M262.5,155.22C175,161.86,87.5,186.89,0,243.41V396.74c87.5-56.52,175-81.54,262.5-88.19Z" style="fill: #fff"/>
    <path d="M262.5,461.89a728.67,728.67,0,0,1,105,0V308.56a731.56,731.56,0,0,0-105,0Z" style="fill: #fff"/>
    <path d="M630,352.69V199.36c-87.5-19.09-175-38.17-262.5-44.13V308.56C455,314.52,542.5,333.6,630,352.69Z" style="fill: #fff"/>
    <path d="M262.5,308.55a731.56,731.56,0,0,1,105,0V155.23a730.11,730.11,0,0,0-105,0Z" style="fill: #fff"/>
    <path d="M367.5,155.23V1.9a728.67,728.67,0,0,0-105,0V155.22A730.11,730.11,0,0,1,367.5,155.23Z" style="fill: #fff"/>
    <path d="M283.5,460.64c21-.91,42-.82,63,.08v-184c-21-.9-42-1-63-.08Z" style="fill: #cf142b"/>
    <path d="M630,322V230c-94.5-20.61-189-41.22-283.5-45.3v92C441,280.8,535.5,301.41,630,322Z" style="fill: #cf142b"/>
    <path d="M346.5,184.72V.72c-21-.9-42-1-63-.08v184C304.5,183.73,325.5,183.82,346.5,184.72Z" style="fill: #cf142b"/>
    <path d="M283.5,276.64c21-.91,42-.82,63,.08v-92c-21-.9-42-1-63-.08Z" style="fill: #cf142b"/>
    <path d="M283.5,184.64C189,188.73,94.5,213,0,274.08v92C94.5,305,189,280.73,283.5,276.64Z" style="fill: #cf142b"/>
    <path d="M420,160.27C490,117.71,560,81.87,630,46c-15.65-3.41-31.3-6.83-47-10.16C513,72,443,109.72,373,155.62Q396.53,157.38,420,160.27Z" style="fill: #cf142b"/>
    <path d="M210,161.52C140,122,70,96,0,90.08v34.28c54.35,4.58,108.7,21.3,163,47Q186.53,165.37,210,161.52Z" style="fill: #cf142b"/>
    <path d="M257,309c-15.66,1.33-31.31,3.25-47,5.85C140,377.58,70,453.75,0,550.08q23.48-15.18,47-27.39C117,435,187,366.05,257,309Z" style="fill: #cf142b"/>
    <path d="M420,313.61c70,59.66,140,126,210,192.41V471.74C575.65,420.2,521.3,368.66,467,320.27,451.3,317.77,435.65,315.52,420,313.61Z" style="fill: #cf142b"/>
    <path d="M805.44,666.22c0,51.87,35.61,92.28,71.23,116.48,35.61,24.72,71.23,33.23,71.23,33.08a220.12,220.12,0,0,0,71.23-33.9c35.61-25.08,71.23-68.21,71.22-120.4V271.89c-95,23.1-189.94,19.09-284.91,4.74Z" style="fill: #fff"/>
    <path d="M1088.35,649.31c-.78,14.64-4.32,18.82-4.32,18.82a65.18,65.18,0,0,0,.79-14.64c-3.06,13.44-7.62,15.59-7.62,15.59,4.24-11.11,3-16.39,3-16.38-4.64,15.14-9.5,17.87-9.5,17.86,7.14-15.93,5.33-27,5.33-27-1.25,12.66-9.57,25.8-9.57,25.79,4.08-17.34.31-22.61.31-22.61a51,51,0,0,1-7.46,23.62c6.36-17.37.79-28.12.79-28.12.39,21.36-12.95,34-12.95,34,7.14-14.75,4.63-24,4.63-24-3.14,16.5-10.52,21.23-10.52,21.22,8.24-16.3,4.86-29.78,4.86-29.77-1.25,14.67-10,28.68-10,28.66a33.73,33.73,0,0,0,1.17-21.09c-2.51,18.3-10.36,21.4-10.36,21.39,7.93-17.09,2.91-26.62,2.91-26.61q-6.36,8.79-12.72,17.46a680,680,0,0,1-73.71,11.3q-12.29-.91-24.58-2.22-23.72-2.57-47.45-6.46c-1.92,10.08,3,19.84,3,19.84-7.38-5.63-7.85-17.74-7.85-17.74-2.12,8.22.15,16.92.15,16.92-3.76-2.79-6.51-17.55-6.51-17.55-1.26,4.59.39,10.93.39,10.93a23.62,23.62,0,0,1,1.26,10C853.16,684,854,668.12,854,668.13c-4.16,2.08-1.17,21.26-1.17,21.26-6.9-9.79-5.66-21.69-5.66-21.68-.55-.29-3.93,3.12-1.57,14.27s.62,13.36.62,13.36c-5.65-6.21-6-30.19-6-30.18-.63,20.84-3,24.83-3,24.83.4-29-7.06-34.3-7.06-34.31,4.32,13.39,1.33,33,1.33,33-10.83-8.36-7.77-42.77-7.77-42.76-6.2,20.42-.7,40.25-.7,40.25-10-14.8-7.38-37.81-7.38-37.8-7,17.14.15,36.64.15,36.64-9.1-14.41-7.53-31.5-7.53-31.5-2.9,4.34-2.9,12.71-2.9,12.71,0,51.87,35.61,92.28,71.23,116.48,35.61,24.72,71.23,33.23,71.23,33.08a220.12,220.12,0,0,0,71.23-33.9c35.61-25.08,71.23-68.21,71.22-120.4,0,0,0,3.87,0-2A26.91,26.91,0,0,0,1088.35,649.31Z" style="fill: #2f8f22"/>
    <path d="M1005.69,448.52c-6.36-2.27-8.93-.95-10.9.87,0,0,2.57-7.63-3.7-13.09,0,0,2,7.39-.79,11.1,0,0-1.26,1.8-2.75-.71a53.28,53.28,0,0,0-4.51-5.58s5.34-3,4.36-10.88-3.89-8.73-5.46-9.64a20,20,0,0,1,0,6s-5.81-4.44,2.08-11.55,6.44-11,5-14.34a26.44,26.44,0,0,0-5.92-8.16,15.58,15.58,0,0,1,1.29,6.58c-.27,3.08-3.84,5.23-3.14-.18s0-4.45-.12-10.17c0,0,7,3.1,9.78-7.09,0,0,2.71-10.5-6.16-15.12,0,0,2.15,4.1,1.09,7.34,0,0-1.88,5.31-4.12,1.2s-3.65-4.85-3.41-9.83c0,0,8,1.21,5.85-11.45,0,0-1.3,8.62-11.74-2.41,0,0,6.79-10.45,4.16-18.55,0,0-.82-3.7-8.2-1.25,0,0,6.4-6.12,3.69-11.05,0,0-1.38-3.29-7.34,1.27,0,0,2.31-5.89-3.53-12.06a39.15,39.15,0,0,0-6,5.88s-4-7.36-6.55-10.3c0,0-4.64,2.61-5.81,10.34a14.21,14.21,0,0,0-7.07-5.56s-2.35,6.33.71,11.92c0,0-2.28-.14-6.44-2.89,0,0-4.75-3.41-4,2.56s1.06,7.31,2,10.11c0,0-10.66-3.93-10.2,4.47.31,5.85,1.8,10.94,5.1,15.27,0,0-6,11.2-11.07,2.4,0,0-1.77,2.7,2,10.15,0,0,3.81,6.29.67,10,0,0-4.2,4.73-6.24-4.91,0,0-6.79,9.54,1.21,17.52,0,0,5.15,4.53,10.41-1.88,0,0-1.61,18.91-6.64,15.05,0,0-3-3.36,2.4-7,0,0-7.81-1.78-9.07,9.18,0,0-1,8.75,5.85,12.25,0,0,5.26,3-.2,8.72,0,0-3.85,4.1-1.33,10.57,0,0,3,7.15-4.64,7.46,0,0-4.16-.27-5.65-1.18a18.76,18.76,0,0,0-.5,9.74s-3.82-4.35-12.49-.39-8,.72-8.71,2.06-2.4,5.87-2.4,5.87,4.56,8.47,4.63,8.3-.86,9.18-.86,9.18l2.24,1.74q8.93-5.1,17.86-10.38,9.06-6.37,18.13-12.93,7.29.92,14.58,1.7,4.62,1.69,9.25,3.33,6.07.68,12.14,1.26,4.35-3.44,8.7-6.93,6.3-.15,12.6-.41,6.93,4.74,13.86,9.35,7.91,6.39,15.81,12.57,4.13.69,8.24,1.33l6.35-1.18V455.43c-1-2.14-2.05-4.28-3.08-6.43A18.11,18.11,0,0,1,1005.69,448.52Z" style="fill: #d40000"/>
    <path d="M1017.43,448.53a.42.42,0,0,0-.52-.27,18,18,0,0,1-11.07-.49c-5.18-1.84-8-1.43-10.19.07a13.24,13.24,0,0,0-4.28-12.21.41.41,0,0,0-.62.1,1,1,0,0,0-.15.88c0,.07,1.87,6.94-.66,10.25a.93.93,0,0,1-.74.4c-.4,0-.82-.37-1.27-1.12a56.05,56.05,0,0,0-3.89-4.92c1.55-1.28,4.67-4.75,3.87-11.16-.95-7.61-3.71-9.07-5.36-10l-.4-.22a.41.41,0,0,0-.54.14,1.05,1.05,0,0,0-.18.77,22,22,0,0,1,.17,4.54,4.88,4.88,0,0,1-1.2-3.08c0-2,1.33-4.25,3.88-6.55,3.79-3.43,5.78-6.39,6.28-9.28a10.41,10.41,0,0,0-1.07-6.14,26.88,26.88,0,0,0-6.1-8.39c-.21-.18-.47-.11-.65.15a1.06,1.06,0,0,0-.06.95,14.73,14.73,0,0,1,1.21,6.07,3.17,3.17,0,0,1-1.24,2.3c-.14.09-.49.27-.7,0a3.63,3.63,0,0,1-.16-2.31,20.24,20.24,0,0,0,.16-6c-.09-.8-.2-1.76-.25-3.34,1.94.5,7.35,1,9.72-7.82,0-.13,2.78-11.27-6.46-16.08a.46.46,0,0,0-.61.28,1.06,1.06,0,0,0,0,.92s1.95,3.78,1,6.52c-.21.6-.94,2.18-1.76,2.32-.48.09-1-.34-1.48-1.27s-1-1.7-1.4-2.38c-1.28-2.08-2-3.21-1.93-6.16a5.6,5.6,0,0,0,5-2.82c1.29-2.18,1.58-5.43.85-9.65-.06-.33-.27-.56-.51-.54h0c-.24,0-.45.27-.5.61a3.45,3.45,0,0,1-1.43,2.26c-1.32.76-4,.56-9-4.66,1.48-2.47,6.25-11.38,3.88-18.67-.09-.4-1-3.53-6.7-2.31a13.57,13.57,0,0,0,2.83-6.2,6.55,6.55,0,0,0-.69-3.94c-.16-.38-1.61-3.35-6.93.21.31-2.4.1-6.8-4.08-11.21a.4.4,0,0,0-.56-.05,42.36,42.36,0,0,0-5.69,5.45c-1-1.85-4.14-7.31-6.3-9.8a.39.39,0,0,0-.51-.11c-.19.11-4.4,2.55-5.9,9.59a15,15,0,0,0-6.67-4.84c-.22-.08-.47.07-.58.37a17.26,17.26,0,0,0,.06,11.27,19.91,19.91,0,0,1-5.1-2.56c-.28-.2-2.77-1.91-4.11-.47-.67.72-.89,2-.68,3.83a46,46,0,0,0,1.6,8.93c-2-.55-6.54-1.43-8.65,1.15a6.27,6.27,0,0,0-1.16,4.43c.33,6.15,1.94,11.16,4.9,15.28-.83,1.37-3.26,4.94-6,5-1.43,0-2.79-1-4-3.09a.48.48,0,0,0-.38-.28.43.43,0,0,0-.4.23c-.21.32-2,3.38,2,11.18a12.86,12.86,0,0,1,1.77,6.1,4.59,4.59,0,0,1-1,2.82s-1.36,1.52-2.77.83c-1.12-.55-2-2.35-2.64-5.33a.71.71,0,0,0-.38-.53.39.39,0,0,0-.49.17,17,17,0,0,0-2.81,10.07,13.35,13.35,0,0,0,4.13,8.66s4.85,4.15,10-.79c-.5,4.18-1.75,11.24-3.81,12.77a1.38,1.38,0,0,1-1.8-.06,2.87,2.87,0,0,1-.62-1.89c.06-.88.61-2.25,2.94-3.82a.88.88,0,0,0,.28-.8.7.7,0,0,0-.45-.65c-.08,0-8.32-1.77-9.65,9.78,0,.09-1,9.44,6.19,13.11a4.16,4.16,0,0,1,1.92,2.79c.13,1.32-.65,2.91-2.26,4.6,0,0-4.18,4.57-1.46,11.58a6.36,6.36,0,0,1,.3,3.91c-.53,1.47-2.09,2.3-4.48,2.4-1.13-.07-4.32-.43-5.48-1.12-.24-.15-.52,0-.64.32a19.61,19.61,0,0,0-.84,8.63c-1.73-1.12-5.56-2.5-11.87.37-5.76,2.62-7.26,2-7.82,1.78-.4-.16-.74-.23-1.13.52-.73,1.36-2.37,5.77-2.44,6a1.05,1.05,0,0,0,.06.85c2.83,5.27,4,7.32,4.5,8.11-.1,1.25-.55,5.85-.85,8.77a1,1,0,0,0,.3.82l2.23,1.74a.35.35,0,0,0,.23.09.33.33,0,0,0,.21-.05q8.94-5.1,17.89-10.4,9-6.33,18-12.84,7.19.9,14.35,1.66,4.66,1.71,9.33,3.35,6.07.68,12.14,1.26a.45.45,0,0,0,.29-.09q4.29-3.39,8.58-6.84,6.18-.15,12.35-.4,6.85,4.7,13.71,9.25,7.9,6.39,15.81,12.58a.36.36,0,0,0,.18.08c2.79.46,5.58.91,8.36,1.33l6.35-1.18a.81.81,0,0,0,.5-.82V455.37a.91.91,0,0,0-.09-.41Zm2.13,24.94q-2.87.55-5.74,1.08c-2.71-.41-5.43-.85-8.14-1.3q-7.89-6.17-15.77-12.53-6.93-4.61-13.86-9.35a.39.39,0,0,0-.23-.07q-6.3.27-12.6.42a.4.4,0,0,0-.25.09q-4.28,3.44-8.56,6.82c-4-.38-7.94-.78-11.91-1.23q-4.66-1.63-9.34-3.34-7.29-.78-14.58-1.7a.33.33,0,0,0-.27.07q-9.06,6.56-18.11,12.91-8.81,5.21-17.63,10.25l-1.68-1.3c.89-8.79.92-9.18.54-9.44-.42-.64-2.42-4.28-4.25-7.68.43-1.13,1.59-4.17,2.22-5.38l0,0c.7.28,2.35,1,8.4-1.8,8.25-3.76,12,.21,12,.25a.4.4,0,0,0,.62.05.92.92,0,0,0,.19-.85,18,18,0,0,1,.3-8.58,21.73,21.73,0,0,0,5.4,1c2.86-.11,4.67-1.2,5.38-3.2a8.45,8.45,0,0,0-.33-5.39c-2.25-5.78,1.06-9.44,1.19-9.58,2-2.06,2.86-4.09,2.66-6a5.56,5.56,0,0,0-2.61-4c-6.29-3.22-5.53-11.06-5.49-11.38.79-6.95,4.37-8.41,6.62-8.64a5.66,5.66,0,0,0-1.82,3.66,4.71,4.71,0,0,0,1.12,3.34,2.16,2.16,0,0,0,2.83.15c3.39-2.53,4.51-15.23,4.55-15.77a.93.93,0,0,0-.27-.78.39.39,0,0,0-.59.07c-4.9,6-9.6,2-9.77,1.85a11.61,11.61,0,0,1-3.64-7.48,14.91,14.91,0,0,1,1.94-7.92c.73,2.75,1.75,4.46,3,5.09,1.92.94,3.66-1,3.75-1.07a6.35,6.35,0,0,0,1.41-3.89,14.58,14.58,0,0,0-2-7.18c-2.32-4.54-2.46-7.14-2.3-8.34,1.28,1.85,2.72,2.78,4.25,2.77,3.82,0,6.94-5.82,7.07-6.07a1,1,0,0,0-.07-1c-3-3.92-4.6-8.75-4.92-14.74a4.41,4.41,0,0,1,.79-3.17c2.33-2.83,8.71-.54,8.77-.52a.44.44,0,0,0,.53-.26,1,1,0,0,0,.06-.81c-.9-2.67-1.25-3.9-2-9.9a3.57,3.57,0,0,1,.28-2.37c.71-.76,2.46.22,3,.62,4.21,2.78,6.53,2.95,6.63,3s.39-.15.49-.41a1.08,1.08,0,0,0-.06-.83c-2.34-4.27-1.29-9-.83-10.54a13.76,13.76,0,0,1,6.38,5.15.44.44,0,0,0,.52.25.7.7,0,0,0,.39-.57c.94-6.17,4.24-8.93,5.22-9.62a87.49,87.49,0,0,1,6.22,9.89.51.51,0,0,0,.37.28.43.43,0,0,0,.39-.2,37.42,37.42,0,0,1,5.61-5.53c5,5.55,3.2,10.56,3.12,10.77a1.07,1.07,0,0,0,.08.91.4.4,0,0,0,.61.14c5.35-4.08,6.65-1.55,6.7-1.46a4.51,4.51,0,0,1,.51,2.82c-.41,3.58-4,7.08-4.07,7.11a1,1,0,0,0-.21.94c.1.34.35.52.59.44,6.68-2.21,7.6.75,7.63.85,2.44,7.53-4,17.6-4.06,17.69a1,1,0,0,0-.15.6.83.83,0,0,0,.21.54c4.63,4.91,8.17,6.68,10.49,5.3a3.87,3.87,0,0,0,1.32-1.35c.27,2.74,0,4.85-.88,6.29a4.85,4.85,0,0,1-4.66,2.24.42.42,0,0,0-.4.18,1,1,0,0,0-.19.55,11.49,11.49,0,0,0,2.16,8c.4.66.86,1.41,1.36,2.32.74,1.36,1.55,2,2.4,1.81,1.55-.28,2.56-3.06,2.6-3.2a10,10,0,0,0-.29-6c6.51,4.58,4.49,12.87,4.4,13.24-2.52,9.37-8.85,6.75-9.12,6.62a.42.42,0,0,0-.48.13,1.05,1.05,0,0,0-.21.65,41.26,41.26,0,0,0,.28,4.55,18,18,0,0,1-.15,5.45c-.3,2.27.12,3.3.52,3.76a1.25,1.25,0,0,0,1.75.17,4.84,4.84,0,0,0,1.9-3.56,12.85,12.85,0,0,0-.44-4.31,26,26,0,0,1,4.11,6.24,8.43,8.43,0,0,1,.95,5c-.42,2.42-2.32,5.15-5.79,8.29-2.94,2.66-4.42,5.31-4.4,7.92a6.53,6.53,0,0,0,2.33,5,.36.36,0,0,0,.44,0,.75.75,0,0,0,.31-.49,17.68,17.68,0,0,0,.17-5c1.51.86,3.5,2.44,4.27,8.61.89,7.11-3.81,9.89-4,10a.78.78,0,0,0-.35.62.94.94,0,0,0,.2.72,52.49,52.49,0,0,1,4.43,5.47c.62,1,1.28,1.57,2,1.58a1.94,1.94,0,0,0,1.5-.83c2.09-2.74,1.81-7.14,1.39-9.78a11.78,11.78,0,0,1,2.29,10.91,1,1,0,0,0,.11.89.4.4,0,0,0,.62.06c1.71-1.59,4.08-3.06,10.48-.78a18.76,18.76,0,0,0,11.21.6l2.82,5.86Z"/>
    <path d="M878.44,456.36s4.5-7.52-.33-15.2a5.05,5.05,0,0,0-7-1.65s-1.82-5.71-6.12-6c0,0-3.77-.46-5.06,5.48,0,0-5.18-3.66-8.07.52a11.46,11.46,0,0,0,1.88,14.17l4.79,1.15,4.71-2.7,5.26,2.7s-1.35,7.66,4.6,16.26c0,0,6.91,5.75,9.79-.27C882.94,470.85,886.71,460.67,878.44,456.36Z" style="fill: #d40000"/>
    <path d="M879.27,456c1.05-2.29,3.35-8.81-.78-15.37-.11-.18-2.67-4.22-7.1-2.1-.65-1.6-2.61-5.51-6.34-5.77-.06,0-3.85-.4-5.39,5.22-1.45-.84-5.56-2.75-8.14,1a12.4,12.4,0,0,0,2,15.33.43.43,0,0,0,.24.14l4.79,1.15a.31.31,0,0,0,.26,0l4.54-2.6,4.62,2.38a25.44,25.44,0,0,0,4.83,16.3.77.77,0,0,0,.12.13,11.78,11.78,0,0,0,5.61,2.57c1.8.15,3.65-.53,4.88-3.11a16.49,16.49,0,0,0,.44-9.2A10,10,0,0,0,879.27,456Zm3.24,14.36c-2.45,5.13-8.39.67-9.06.13-5.38-7.83-4.51-14.67-4.39-15.42a1.09,1.09,0,0,0-.16-.76.71.71,0,0,0-.2-.19l-5.26-2.7a.35.35,0,0,0-.37,0l-4.58,2.63L854,453a10.81,10.81,0,0,1-3.15-6.45,11.06,11.06,0,0,1,1.47-6.42c2.6-3.78,7.44-.44,7.49-.41a.36.36,0,0,0,.42,0,.71.71,0,0,0,.28-.44c1.14-5.23,4.34-5,4.57-5h0c3.94.23,5.56,5.26,5.63,5.48.13.38.43.57.69.43a4.58,4.58,0,0,1,6.36,1.43c4.43,7.06.46,13.89.29,14.18a1,1,0,0,0-.1.7.83.83,0,0,0,.35.54,8.74,8.74,0,0,1,4.6,5.48A14.72,14.72,0,0,1,882.51,470.39Z"/>
    <path d="M1034.5,490.05a47.36,47.36,0,0,0-.79-7.63,24.31,24.31,0,0,0,4.9-23.62s-2.94-9.79-11.26-7.58l2.28,9.67c-4,21.33-24.49,12.23-24.49,12.13,0,.1-21.2-15.67-27.09-20.87-5.88-5-24.25,7.81-24.25,7.74q-6.36.24-12.72.37c-17.43-13.17-16.51-9-47.1,9.67-30.59,18.2-28.5-12.52-28.49-12.4l2-5.37c-8.32-2-11.26,8-11.26,8-4.36,14.49,4.9,23.45,4.9,23.44a47.9,47.9,0,0,0-.79,7.66c-13,.94-10.75,22.52-10.75,22.54s5-8.52,12.34-4.11S875.3,532.07,876.32,536s3.71,23,.94,33.83-6.36,21.66-14.37,27.57-7.29,4.21-7.53,4.31c0,0,4.79,15.88,7.22,29.3,0,0,9,36.21,11.15,40.46,0,0,9.23,17.39,20.08,6.9s7.71,3.35,7.63,5.1-.32,10.18,8.95,17.23,17.74,11.18,22.76,15.77,4.24,4.57,5.58,7,14.75,4.45,18,1.47,6.6-11.62,26-24c19.39-12.61,8.73-24.14,10.67-26.45s2.91-5.19,6.75-.5,17.12,13.29,23.47-11.22,16.18-62.71,16.18-62.73-20.73-8.3-21.67-26.92-3.61-25.62,2-42,13.35-26.69,20.88-23.54l4.32,4.54S1047.53,490.5,1034.5,490.05Z" style="fill: #64b4d1"/>
    <path d="M1034.88,489.5a48.6,48.6,0,0,0-.71-6.9,25.34,25.34,0,0,0,4.8-24.07c0-.12-3.15-10.15-11.65-7.88l-.5.13,2.4,10.17c-.9,4.62-2.69,8.12-5.33,10.39-7.22,6.23-18.5,1.21-18.56,1.17-.21-.06-21.26-15.73-27.07-20.85s-23.08,6.73-24.55,7.66q-6.27.24-12.54.36c-14.88-11.16-16.46-10-35.45,2.27-3.41,2.19-7.27,4.65-11.9,7.44-11.39,6.86-19.5,7.56-24.09,2.36-4.16-4.73-3.91-13-3.86-14l2.25-6-.58-.14c-8.52-2-11.63,8.17-11.66,8.28a24.76,24.76,0,0,0,4.8,23.9,48.76,48.76,0,0,0-.7,6.92,10.11,10.11,0,0,0-8.12,5.64c-3.72,6.77-2.69,17.05-2.65,17.49l.14,1.3.56-1c.19-.34,4.87-8.18,11.91-4s13,21.84,14.13,26c1.12,4.28,3.6,23.07.94,33.43-2.57,10-6,21.24-14.19,27.29-5.84,4.29-6.9,4.44-7,4.45l-.24-.27-.62.24.18.6c0,.16,4.81,16,7.21,29.27.37,1.49,9.08,36.34,11.21,40.62.1.18,9.59,17.72,20.62,7.05,4.3-4.16,6.06-4.19,6.79-3.46,1.14,1.15.6,5,.35,6.91-.07.5-.12.89-.13,1.11-.15,3.12.46,11.17,9.17,17.8,4.18,3.17,8.23,5.78,11.81,8.06,4.39,2.8,8.18,5.18,10.92,7.69,3.89,3.56,4.22,4.26,4.81,5.56.18.37.37.79.66,1.32,1,1.77,6.91,3.21,11.93,3.17,2.83,0,5.38-.48,6.56-1.56a24.17,24.17,0,0,0,2.57-3.1c3.22-4.32,8.61-11.41,23.35-20.85,14.88-9.65,12.45-19,11.15-23.84-.33-1.23-.64-2.39-.38-2.7s.53-.66.77-1c1.45-2,2.42-3.24,5.48.5,2.3,2.8,8.19,7.39,14.1,4.7,4.36-2,7.72-7.44,10-16.2,6.36-24.43,16.17-62.73,16.17-62.74l.15-.57-.38-.14c-.2,0-20.5-8.42-21.41-26.46-.22-4.26-.53-8-.8-11.22-.95-11.23-1.52-18,2.72-30.42,5.92-17.36,13.52-26,20.33-23.24l4.8,5.05c0-.34.07-.68.11-1s1.07-10.76-2.65-17.37A9.65,9.65,0,0,0,1034.88,489.5Zm10.06,21.6-3.76-4-.1-.08c-7.25-3-15.24,5.88-21.37,23.88-4.36,12.75-3.74,20-2.81,31.09.27,3.25.58,6.93.8,11.17.39,7.75,4.32,15,11.36,20.92a43.59,43.59,0,0,0,10.19,6.33c-1.23,4.81-10.12,39.46-16,62.16-2.18,8.37-5.36,13.58-9.45,15.44-5.19,2.35-10.85-1.41-13.4-4.51-3.57-4.36-5-2.46-6.52-.43-.23.31-.47.63-.73,1-.71.87-.35,2.26.12,4,1.29,4.86,3.46,13.16-10.7,22.33C967.66,710,962.21,717.12,959,721.49a22.27,22.27,0,0,1-2.45,3c-3.13,2.9-16.32.8-17.47-1.34-.27-.5-.45-.89-.61-1.25-.66-1.43-1-2.2-5.06-5.89-2.79-2.56-6.61-5-11-7.77-3.57-2.27-7.61-4.88-11.77-8-8.28-6.29-8.86-13.77-8.73-16.66,0-.19.06-.52.12-1,.31-2.28.89-6.51-.69-8.11a1.86,1.86,0,0,0-1.25-.56c-1.46-.09-3.58,1.24-6.43,4-4.36,4.21-9,4.38-13.68.48a27.84,27.84,0,0,1-5.86-7.22C872,667,863,631.2,863,630.88c-2.09-11.51-6-25-7-28.51.85-.2,2.71-1.22,7.11-4.47,8-5.92,11.73-16.9,14.54-27.86,2.93-11.43-.08-30.92-1-34.24-1.1-4.23-7.18-22.23-14.61-26.67-6.07-3.63-10.59,1.24-12.17,3.36-.15-2.92-.2-10.33,2.59-15.4a9.43,9.43,0,0,1,7.91-5.28l.34,0c0-.16,0-.33,0-.49a46.63,46.63,0,0,1,.77-7.52l.09-.42-.27-.26c-.37-.34-8.91-8.84-4.74-22.7.11-.38,2.79-9,10.27-7.78l-1.73,4.62,0,.2c0,.39-.61,9.75,4.18,15.2s13.21,4.86,24.87-2.17c4.64-2.8,8.51-5.26,11.92-7.45,18.7-12.13,20.23-13.21,34.84-2.24l.09.06q6.4-.12,12.82-.36l.15-.06c.19-.06,18.25-12.53,23.89-7.76,5.83,5.14,26.88,20.83,27.15,20.92.48.24,11.72,5.24,19.24-1.25,2.88-2.47,4.82-6.29,5.77-11.33l0-.17-2.16-9.15c7.55-1.62,10.26,7,10.37,7.41a23.35,23.35,0,0,1-4.74,22.87l-.26.27.09.42a46.84,46.84,0,0,1,.76,7.48v.5h.34a9.07,9.07,0,0,1,7.91,5C1045.22,500.68,1045.09,508.33,1044.94,511.1Z"/>
    <path d="M1016.09,561.26s.82-4.24-3.3-14-10.83-4.4-10.83-4.41c-5-10.67-11.74-4.64-11.74-4.65-4.9-9.87-10.62-3.26-10.62-3.26-2.46-5.42-7.55-3-7.55-3-4.71,1.39-7.77,8.62-7.77,8.62-9.62-10.58-13.66-.9-14,.22s-4,1.27-4,1.26c-3.7.8-6.69,6.63-6.68,6.63l-4.81,8c-3.87,6.62-1.6,16.18-1.6,16.18,1.12,6.09,2.18,15.47,2.18,15.47q-7.89,9.93-15.78,19.71,5.6,9.83,11.19,19.57,20.07-1.83,40.15-4.76,11.31-4.82,22.61-10,5.65-.39,11.3-.89,12.6-8,25.2-16.61-5.42-9.06-10.83-18.23Z" style="fill: #fff"/>
    <path d="M1016.63,561.18c.12-1.07.31-5.6-3.39-14.36s-9.48-5.94-11.09-4.94c-4.4-8.94-10.16-5.77-11.76-4.66-1.62-3.06-3.5-4.79-5.58-5.15a6.26,6.26,0,0,0-5.08,1.81c-2.73-5-7.78-2.68-7.77-2.68-4.06,1.2-6.89,6.37-7.81,8.28-3.65-3.85-6.93-5.29-9.77-4.25-3.25,1.18-4.57,5.18-4.57,5.18-.25.4-1.94.81-3.67.89-3.87.83-6.9,6.67-7,6.88l-4.81,8c-4,6.87-1.79,16.51-1.71,16.87,1,5.25,1.9,13.09,2.13,15q-8,10-16,19.91,5.85,10.26,11.69,20.46,20.26-1.85,40.52-4.82,11.26-4.8,22.54-10,5.61-.39,11.23-.88,13-8.29,26.07-17.15-5.62-9.37-11.23-18.87Q1018.12,568.94,1016.63,561.18Zm-11.94,50q-5.61.49-11.21.88-11.33,5.2-22.65,10Q950.9,625,931,626.83q-5.34-9.3-10.68-18.67,7.8-9.67,15.6-19.52l0-.42c0-.09-1.08-9.49-2.21-15.59,0-.1-2.13-9.22,1.51-15.43l4.83-8.06s2.9-5.59,6.27-6.32c1.83-.08,4.1-.45,4.51-1.71,0,0,1.16-3.4,3.89-4.4s5.76.55,9.33,4.48l.45.5c.11-.24.21-.48.31-.72,0-.07,3-7,7.48-8.29a5,5,0,0,1,7,2.69l.3.67.45-.52s2.13-2.39,4.76-1.93c1.89.33,3.62,2,5.12,5.07l.27.55.42-.37c.26-.22,6.41-5.52,11,4.45.08.18.17.36.25.55l.42-.33c.25-.2,6.33-4.87,10.15,4.18,3.9,9.25,3.25,13.38,3.24,13.41l0,.22q1.56,8,3.1,16,5.25,8.93,10.48,17.74Q1016.91,603.41,1004.69,611.2Z" style="fill: #00247d"/>
    <path d="M884.68,721.15c.19-.35.38-.71.56-1.1C885.24,720.05,885,720.46,884.68,721.15Z" style="fill: #d40000"/>
    <path d="M901.37,684.54s-6,.17-9.07,2.2a99.69,99.69,0,0,0-8.94,7.32s-1.65,3.1-8.6.55c0,0-12-5.31-12,8.36,0,0-14.37.22-8.48,19.23,0,0,4,14.85,12.25,5.42,0,0-5.3,10.6,4.94,15.9,0,0,7.3,3.25,9.42-7.52,0,0,1.18-4.23-1.65-9.84,0,0,3-.65,5.45-5,.33-.69.56-1.1.56-1.1-.18.39-.37.75-.56,1.1-1.58,3.3-5.55,13.2,1.27,17.87,0,0,10.36,4.54,10.95-11.23,0,0-.85-7.33,3.16-9.69,0,0,8.26-2.3,12-15.58C912.09,702.54,900.22,692.69,901.37,684.54Z" style="fill: #d40000"/>
    <path d="M912.33,701.85c-3.21-2.61-11.33-10.87-10.45-17.13a1.06,1.06,0,0,0-.11-.66.57.57,0,0,0-.43-.29c-.25,0-6.15.2-9.27,2.28a63.77,63.77,0,0,0-6.73,5.39l-2.27,2a1.12,1.12,0,0,0-.13.16s-1.66,2.66-8.06.31c-.26-.11-6.6-2.83-10.23,1-1.51,1.59-2.32,4.06-2.41,7.38a10.6,10.6,0,0,0-8.93,6.31c-1.45,3.5-1.29,8.18.48,13.89.07.28,1.9,6.91,5.7,8.67,1.77.81,3.65.43,5.61-1.16a14.08,14.08,0,0,0-.15,6.62,11.5,11.5,0,0,0,6.39,7.68,6.78,6.78,0,0,0,2,.45c2.46.22,6.56-.68,8.07-8.37,0-.18,1.13-4.24-1.28-9.67a8.68,8.68,0,0,0,2.47-1.67,18.51,18.51,0,0,0-.8,8.37,9.35,9.35,0,0,0,4.06,6.39c.2.09,4.84,2.08,8.24-1.36,2.05-2.06,3.17-5.61,3.35-10.69,0-.28-.72-6.78,2.77-8.84.35-.09,8.56-2.54,12.39-16A1,1,0,0,0,912.33,701.85Zm-12.48,15.54c-4.31,2.53-3.49,10.33-3.48,10.33-.16,4.43-1.15,7.6-2.92,9.39-3,3-7.28,1.22-7.3,1.22a7.84,7.84,0,0,1-3.38-5.27c-.74-4.24,1.27-9.19,2.31-11.38.2-.36.4-.76.6-1.18a1,1,0,0,0-.14-1,.41.41,0,0,0-.71.09c0,.07-.29.51-.63,1.23-2.25,4-5,4.62-5.07,4.63a.59.59,0,0,0-.39.45,1.11,1.11,0,0,0,.08.74c2.59,5.15,1.62,8.94,1.56,9.16-2,9.92-8.52,7.17-8.77,7-3.1-1.6-5-3.84-5.67-6.64a13.43,13.43,0,0,1,1-8.06,1.06,1.06,0,0,0-.08-1,.56.56,0,0,0-.35-.24.41.41,0,0,0-.34.15c-2.32,2.66-4.48,3.55-6.43,2.65-3.29-1.51-5-7.62-5-7.72-1.63-5.24-1.8-9.45-.54-12.51,2.28-5.49,8.52-5.68,8.58-5.68.27,0,.48-.32.48-.72,0-3.16.69-5.48,2-6.9,3.23-3.4,9.28-.8,9.36-.77,6.54,2.4,8.62,0,9-.68.79-.67,1.52-1.3,2.21-1.91a63.82,63.82,0,0,1,6.63-5.32c2.36-1.57,6.63-2,8.23-2.1-.23,7.52,8.51,15.66,10.65,17.48C907.73,715,900,717.34,899.85,717.39Z"/>
    <path d="M839.91,602.11c0-.07.05-.15.08-.22Z" style="fill: #d40000"/>
    <path d="M863.46,543.23s-6.12-6.14-12.56-1.33A71.71,71.71,0,0,0,840.54,553s-3,3.37-1.89,15.26c0,0,1.57,8.48.63,12.53,0,0-2-.84-6.12,5.7,0,0-5.18,8.1-9.73-.26,0,0,1.41,11,10,10.35,0,0-4.16,4.2-.55,16.92a31.69,31.69,0,0,1-1.56,19.34s7.45-3.44,7.14-16.32c0,0-.61-8.52,1.49-14.38l.08-.22c0,.07,0,.15-.08.22-.34,1.12-1.52,6.54,3,17.58,0,0,3.93,9,.71,17.54,0,0,7.38-3.07,6.67-16.22s-5.18-8.22-2.27-19.91c0,0,.7,6.24,2.9,9.59a24.08,24.08,0,0,1,3.85,17.4s4.39-7.51,3.37-15.82S856,601.35,856,601.35q6.94-5,13.9-10.11l6.9-17.65q.16-14.55.32-29.1S867.86,537.45,863.46,543.23Z" style="fill: #d40000"/>
    <path d="M877.34,543.82c-.38-.28-9.26-6.93-14-1.53-1.43-1.26-6.93-5.43-12.78-1.06a72.44,72.44,0,0,0-10.41,11.12c-.13.15-3.19,3.75-2.05,16,0,.08,1.39,7.63.73,11.59-.89,0-2.94.86-6.12,5.95,0,0-2.37,3.65-5.14,3.28h0c-1.37-.18-2.65-1.34-3.79-3.43-.15-.29-.41-.4-.62-.28a.81.81,0,0,0-.29.8c0,.1,1.45,10.48,9.24,11.05-1.08,2.2-2.41,7.16.22,16.4a30.9,30.9,0,0,1-1.55,18.64,1.07,1.07,0,0,0,.06.89.48.48,0,0,0,.59.28c.08,0,7.8-3.75,7.47-17.07a50.79,50.79,0,0,1,.22-8.31,45,45,0,0,0,3.3,11.9c0,.09,3.7,8.74.68,16.76a1.1,1.1,0,0,0,.06.87.59.59,0,0,0,.4.31.38.38,0,0,0,.18,0c.08,0,7.74-3.39,7-17-.32-6.09-1.47-8.52-2.3-10.29s-1.33-2.82-.56-6.81a22.21,22.21,0,0,0,2.61,7.29,23.07,23.07,0,0,1,3.69,16.69,1,1,0,0,0,.29.87.4.4,0,0,0,.63-.14c.19-.32,4.54-7.87,3.49-16.43a63.07,63.07,0,0,0-1.94-10.46q6.72-4.86,13.45-9.81a.51.51,0,0,0,.2-.27q3.46-8.82,6.91-17.65a1,1,0,0,0,.07-.36l.31-29.09A.89.89,0,0,0,877.34,543.82Zm-1.06,29.52q-3.37,8.65-6.77,17.3-6.88,5.05-13.77,10a.68.68,0,0,0-.24.45,1.06,1.06,0,0,0,.06.61s1.07,2.65,2.05,10.63a26,26,0,0,1-2.07,12.71,24.61,24.61,0,0,0-4.28-14.88c-2-3.12-2.74-9.09-2.75-9.15a.76.76,0,0,0-.47-.69c-.26-.06-.46.13-.54.45-1.62,6.51-1,8.24.14,10.73.81,1.71,1.81,3.84,2.11,9.49.49,9.2-3.09,13.22-5.07,14.72,2.16-8.17-1.2-16.05-1.34-16.39-4.63-11.33-3.07-16.53-2.91-17a.14.14,0,0,0,0-.06,1,1,0,0,0-.21-1c-.25-.23-.56-.15-.71.2l0,.11c-2.21,6-1.62,14.58-1.59,14.89.21,8.82-3.31,13-5.38,14.67a32.24,32.24,0,0,0,.81-17.89c-3.39-11.93.23-15.87.39-16a1,1,0,0,0,.16-.88c-.09-.33-.32-.56-.56-.53-5.29.38-7.65-3.82-8.67-6.8a4.93,4.93,0,0,0,3,1.73h0c3.25.43,5.83-3.54,5.94-3.71,3.72-6,5.62-5.52,5.62-5.51.26.11.52-.08.6-.44,1-4.21-.55-12.61-.61-12.87-1-11.23,1.68-14.56,1.75-14.64a70.82,70.82,0,0,1,10.25-11c6.07-4.54,12,1.21,12,1.26a.4.4,0,0,0,.64,0c3.66-4.81,11.16,0,12.77,1.13Z"/>
    <path d="M849.84,586.12l-1,.2a9.68,9.68,0,0,0,7.15,8.45c0-.51,0-1,.07-1.52A8.45,8.45,0,0,1,849.84,586.12Z"/>
    <path d="M843.46,583.27c-2-3.1-4.11-3.27-4.2-3.28l0,1.54s1.78.13,3.35,2.61c.06.13,1.41,3.19,3.46,3.43a2.38,2.38,0,0,0,.38,0c0-.51-.08-1-.13-1.53C844.76,586.14,843.53,583.41,843.46,583.27Z"/>
    <path d="M857.1,568.46s-1.57,3.77,1.34,5.81c0,0,3.61,3-2.12,7.75,0,0,6.83-2.87,4.08-8,0,0-3-3.43-1.89-4.47,0,0,.32-.9,1.5.38a3.75,3.75,0,0,0,4.47.34,7.19,7.19,0,0,1-4.63-2.55S858.12,565.8,857.1,568.46Z"/>
    <path d="M934.32,481.05q10.14,58.74,20.28,117.22l3.51-1.78q-11.48-57.71-23-115.76Z" style="fill: #784421"/>
    <path d="M933.84,480.63q10.2,59,20.38,117.78c0,.2.07.4.11.6l4.27-2.16Q947,538.62,935.43,480Zm21,116.89q-10.05-57.88-20.09-116.06l.1,0q11.37,57.52,22.74,114.7Z"/>
    <path d="M879.2,713.21c-5.18-1.13-7,6.32-7,6.32a5.15,5.15,0,0,0-3.88,3.81c4.48-4.78,9.89.12,9.89.12a5.84,5.84,0,0,0-3.92-3.86A39.26,39.26,0,0,0,879.2,713.21Z"/>
    <path d="M859.1,715.86c-2.59-1.05-4,2.62-4,2.62a21.31,21.31,0,0,0,4,21.57c-.94-4,1.18-10.8,1.18-10.8C864.46,718.84,859.1,715.87,859.1,715.86Z" style="fill: #64b4d1"/>
    <path d="M859.18,715.31c-2.85-1.17-4.36,2.83-4.37,2.87a22.25,22.25,0,0,0,4.08,22.34l.58-.62c-.86-3.64,1-10,1.16-10.35,1.59-4,2-7.39,1.29-10.16A6.55,6.55,0,0,0,859.18,715.31Zm.78,13.58c0,.05-1.77,5.52-1.46,9.76a20.46,20.46,0,0,1-3-19.87c0-.12,1-2.72,2.89-2.53a2.23,2.23,0,0,1,.59.15,5.52,5.52,0,0,1,2.22,3.36C861.83,722.18,861.41,725.27,860,728.89Z" style="fill: #00247d"/>
    <path d="M875.71,737.3c.94-9.1-3.78-9.87-3.78-9.87-2.72-.59-3.88,4-3.88,4-3.77,13.53,8.48,22.81,8.48,22.79C874.29,746.2,875.7,737.3,875.71,737.3Z" style="fill: #64b4d1"/>
    <path d="M876.09,737.42c.35-3.32,0-6-1-7.89a4.81,4.81,0,0,0-3.11-2.67c-3-.65-4.23,4.11-4.28,4.3a20.65,20.65,0,0,0,2.92,17.1,26.86,26.86,0,0,0,5.76,6.44l.53-.7C874.73,746.28,876.07,737.55,876.09,737.42Zm-.29,15.51c-2.7-2.42-10.38-10.54-7.38-21.29,0,0,1-3.88,3.24-3.68l.25,0a4,4,0,0,1,2.56,2.21c.87,1.64,1.16,4,.85,6.93A47,47,0,0,0,875.8,752.93Z" style="fill: #00247d"/>
    <path d="M865.3,703.66a20.76,20.76,0,0,1,3.46,4.69,42.66,42.66,0,0,1,5.18-6.15,8.09,8.09,0,0,0-5.18,2.84A4.16,4.16,0,0,0,865.3,703.66Z"/>
    <path d="M887.65,728.12s-4.89,1.45-1.7,10.9c0,0,1.88,6.71-1.12,12.38,0,0,9.59-2.86,7.83-17.47C892.66,733.93,891.72,727.55,887.65,728.12Z" style="fill: #64b4d1"/>
    <path d="M887.56,727.56a4.55,4.55,0,0,0-2.71,3.14c-.69,2.17-.44,5,.73,8.51,0,.07,1.76,6.49-1.07,11.83.14.31.28.61.41.92.1,0,9.93-3.13,8.12-18.12C893,733.77,892,726.94,887.56,727.56Zm-1.79,22.85a20,20,0,0,0,.53-11.62c-1.07-3.17-1.32-5.7-.73-7.55a3.86,3.86,0,0,1,2.14-2.55c3.65-.53,4.53,5.1,4.56,5.32C893.62,745.2,888.15,749.23,885.77,750.41Z" style="fill: #00247d"/>
    <path d="M966.75,447.25c-1,.36-8.71,5-8.71,5-11.37,6.08-20.32,0-20.32,0-3.35-2-9.53-4.94-9.53-4.94l5.94,10.35c.73,2.77,1.45,5.55,2.18,8.33l-5.65,9.11c4,.22,8.77-4.45,8.77-4.46,8.72-8.14,16,0,16,0,6.59,5.81,8.8,4.43,8.8,4.43-1.23-2.59-2.46-5.2-3.68-7.8.1-2.26.19-4.51.29-6.77Z" style="fill: #f5ce00"/>
    <path d="M967.18,447.65l-.54-1.15c-1,.37-8,4.54-8.78,5-11,5.89-19.83.12-19.94.05-3.34-2-9.52-4.93-9.58-5l-.55,1.21q2.94,5.15,5.89,10.25,1,3.9,2,7.78-3.11,5-6.2,10l1.14.06h.16c4.09.1,8.72-4.39,8.91-4.58,8.28-7.75,15.12-.38,15.45,0,4.62,4.07,7.18,4.71,8.39,4.68a1.8,1.8,0,0,0,.89-.2l.6-.37L961.1,467q.14-3.15.28-6.3Q964.27,454.2,967.18,447.65Zm-3.87,26.77c-1.09-.08-3.42-.77-7.54-4.41a12.5,12.5,0,0,0-8.35-3.73c-2.46,0-5.3.94-8.28,3.73,0,0-3.75,3.63-7.24,4.25l5-8.1c-.76-2.92-1.52-5.85-2.29-8.77l-4.86-8.53c2.07,1,5.55,2.75,7.75,4.08.37.25,9.27,6.1,20.72,0,2.24-1.33,5.42-3.2,7.26-4.22l-5.14,11.55c-.11,2.41-.21,4.82-.32,7.23Q961.68,471,963.31,474.42Z"/>
    <path d="M888.54,734.38s.35-.67-.06-1c0,0-.41-.29-.71.53a8.91,8.91,0,0,0-.15,5.49,10.15,10.15,0,0,1,.41,4.52s0,.65.3.76a.75.75,0,0,0,.4-.62,8.93,8.93,0,0,0-.34-4.46S887.39,736.12,888.54,734.38Z" style="fill: #fff"/>
    <path d="M1034.64,437.87c-1.3-5.89-5.07-5.3-5.07-5.31-4.3.38-6.12,6.14-6.12,6.14-4.42-2.34-7,1.82-7,1.83a15.18,15.18,0,0,0-.32,15.2c-8.28,4.5-4.51,14.59-4.51,14.6,2.89,6,9.8.06,9.8.05,5.94-8.77,4.59-16.4,4.59-16.39,1.75-.95,3.51-1.9,5.26-2.87l4.71,2.54,4.79-1.33c6.65-7.17,1.88-14.25,1.88-14.25C1039.82,434,1034.64,437.87,1034.64,437.87Z" style="fill: #d40000"/>
    <path d="M1035,436.84c-1.54-5.56-5.38-5.06-5.36-5-3.71.37-5.72,4.34-6.37,6-4.43-2-7,2.1-7.1,2.27a16.22,16.22,0,0,0-.78,15.39,10.3,10.3,0,0,0-4.57,6.12,16.39,16.39,0,0,0,.47,9.26c1.22,2.52,3,3.14,4.83,2.95a12.07,12.07,0,0,0,5.63-2.72.49.49,0,0,0,.12-.13c5.1-7.51,5-14.22,4.84-16.44q2.31-1.24,4.62-2.52l4.53,2.44a.32.32,0,0,0,.27,0l4.78-1.33a.45.45,0,0,0,.24-.15,13.35,13.35,0,0,0,3.73-7.86,12.36,12.36,0,0,0-1.75-7.57C1040.51,433.88,1036.4,436,1035,436.84Zm8.84,8.19a11.33,11.33,0,0,1-3.15,6.58l-4.52,1.25c-1.53-.81-3-1.63-4.58-2.46a.35.35,0,0,0-.37,0c-1.75,1-3.5,1.92-5.25,2.86a.55.55,0,0,0-.18.16,1.05,1.05,0,0,0-.19.8c0,.3,1.11,7.39-4.38,15.54-.68.57-6.61,5.17-9,.16a14.45,14.45,0,0,1-.41-7.89,9,9,0,0,1,4.6-5.59.79.79,0,0,0,.35-.55,1,1,0,0,0-.1-.7,14,14,0,0,1,.3-14.19,5,5,0,0,1,3.42-2.23,4.92,4.92,0,0,1,2.94.65c.26.13.56-.07.68-.45.07-.22,1.74-5.29,5.66-5.65h0c.22,0,3.4-.36,4.55,4.83a.61.61,0,0,0,.27.43.38.38,0,0,0,.42,0c.05,0,4.89-3.55,7.48.1A10.75,10.75,0,0,1,1043.79,445Z"/>
    <path d="M962.72,465.76a4.25,4.25,0,0,0,.07.53C962.76,466.13,962.74,465.93,962.72,465.76Z" style="fill: #f5ce00"/>
    <path d="M1026.8,451.34a5.63,5.63,0,0,0-3.1,3s-1.69,3.78.28,6.21c0,0,2.55,2,3.45-3,0,0,0-.35.12.07a14.35,14.35,0,0,1-.73,7.17c0-.05-6.53,15.43-24.51,2Q990.46,458.14,978.6,449s-11.89-8.38-19,5.64c0,0-5.73,11.66,1.64,19.1,0,0,5.5,4.68,9-3.08,0,0,2.87-7.61-1.65-10.75,0,0-4-2.6-5.53,3.21a8.13,8.13,0,0,0-.3,2.67c0,.17,0,.37.07.53s0,.18,0,.27a3.37,3.37,0,0,0,1.06,1.72.33.33,0,0,0,.1.06.53.53,0,0,0,.1.06,1.36,1.36,0,0,0,1.08.07l.05,0a2.53,2.53,0,0,0,1.29-2.27s.12-1,.24-.06c0,0-.17,2-1.53,2.33l-.05,0h0a1.28,1.28,0,0,1-1.07-.07l-.1-.06-.1-.06a2.84,2.84,0,0,1-1.06-1.72v0s0-.11,0-.25a4.25,4.25,0,0,1-.07-.53.49.49,0,0,1,0-.12,10.2,10.2,0,0,1,2.27-7.86s4.36-5.28,12.68.65c0,0,6.59,4.32,11.15,8,0,0,11.77,8.44,13.19,9a23.6,23.6,0,0,0,13.11,3.05s10.83,0,15.42-11.76c0,0,3.49-8.9,0-13.82C1030.53,452.84,1029.12,450.61,1026.8,451.34Z" style="fill: #f5ce00"/>
    <path d="M965.17,468.47l.05,0Z" style="fill: #f5ce00"/>
    <path d="M963.89,468.28a3.44,3.44,0,0,1-1.06-1.72A2.84,2.84,0,0,0,963.89,468.28Z" style="fill: #f5ce00"/>
    <path d="M964,468.34l.1.06A.53.53,0,0,1,964,468.34Z" style="fill: #f5ce00"/>
    <path d="M1026.73,450.59a6.39,6.39,0,0,0-3.46,3.36c-.67,1.51-1.46,5,.43,7.28a2.13,2.13,0,0,0,2.48.11,3.21,3.21,0,0,0,1-1.24,11.92,11.92,0,0,1-.8,4.35c-.26.55-6.53,14.6-23.82,1.71q-11.87-8.71-23.73-17.88c-.12-.06-12.37-8.49-19.66,5.89a23.85,23.85,0,0,0-2.1,11.86,13.62,13.62,0,0,0,3.91,8.34c0,.06,6,4.95,9.67-3.38a15.49,15.49,0,0,0,.74-7.65,6.55,6.55,0,0,0-2.62-4.16,3.89,3.89,0,0,0-3.87-.18l-.2.13c.18-.25.38-.51.6-.76s4.23-4.87,12.13.76c.06.05,6.62,4.35,11.12,7.95.48.38,11.83,8.48,13.2,9a23.7,23.7,0,0,0,13.31,3.11,9.6,9.6,0,0,0,1-.06c2.86-.29,11-2.11,14.91-12.12.15-.39,3.66-9.49,0-14.7C1030.86,452.19,1029.31,449.76,1026.73,450.59Zm3.35,15.73a17,17,0,0,1-14.95,11.33,23.52,23.52,0,0,1-13-3c-1.12-.44-9.84-6.55-13.08-8.92-4.53-3.6-11.13-7.93-11.18-8-3.23-2.3-5.89-3-8-2.9a7.34,7.34,0,0,0-5.27,2.34,11.18,11.18,0,0,0-2.48,8.56v0a5,5,0,0,0,.7,2.4,2.76,2.76,0,0,0,.75.8,1.52,1.52,0,0,0,1.54.28l.1,0c1.4-.32,1.91-2.11,2-3v-.11l0-.12c0-.25-.12-1-.62-1h0c-.44,0-.58.66-.63,1v.13a1.9,1.9,0,0,1-.86,1.62l-.12.05h0a1.1,1.1,0,0,1-1.12-.36,3,3,0,0,1-.54-1s-.09-.54-.11-.82a.13.13,0,0,1,0-.06,7.24,7.24,0,0,1,.29-2.1,4.74,4.74,0,0,1,1.78-2.95,3.11,3.11,0,0,1,3,.15,5.11,5.11,0,0,1,2.08,3.25,13.77,13.77,0,0,1-.63,6.41c-3.14,7-8,3-8.21,2.85a12,12,0,0,1-3.45-7.3A21.91,21.91,0,0,1,960,455.06c6.75-13.34,17.86-5.71,18.32-5.41q11.85,9.15,23.7,17.88c18.2,13.57,25.14-2.24,25.21-2.35a15.66,15.66,0,0,0,.79-7.79c-.12-.69-.42-.74-.6-.71l-.42.21-.1.55a4,4,0,0,1-1.13,2.53,1,1,0,0,1-.5.19,1.49,1.49,0,0,1-1-.22c-1.59-2-.25-5.09-.23-5.15a5.17,5.17,0,0,1,2.76-2.7,3,3,0,0,1,3.29,1.33C1033.33,457.89,1030.11,466.24,1030.08,466.32Z"/>
    <path d="M934,527.45c-1.53-5.92-5.83-6.19-5.83-6.19-1.82-.57-3.71-3-3.71-3-1.64-2.65-1.63-7.32-1.63-7.32a17.54,17.54,0,0,0-1.43-6.82c-.82-2.44-6.82-11.17-6.82-11.18-3.54-5.35-6.72-1.69-6.72-1.69l-4.12,5.33c-.23-15.09-5.53-10.38-5.53-10.38-2.24,1.42-5.07,7.48-5.07,7.48-2.11-5.69-5.18-2.1-5.18-2.1-1.76,1.09-7.06,8.82-7.06,8.82-2.71-9.59-4.59-6.45-6.36-4.53a6.24,6.24,0,0,0-1.77,5.05v21.67q1.83,6.5,3.65,13,1.3,11.21,2.59,22.41l-8,30.86q-7.37,6.27-14.72,12.42,1.69,8.32,3.41,16.65,7.59,5.39,15.19,10.65Q894,638.16,913.05,647q11.9-20.21,23.79-40.76V554.73C934.72,526.44,934,527.45,934,527.45Z" style="fill: #e4cb5e"/>
    <path d="M934.34,527.11c-1.61-6-6-6.4-6.08-6.41h0c-1.69-.52-3.49-2.87-3.5-2.87-1.52-2.44-1.53-6.88-1.53-6.94a18.18,18.18,0,0,0-1.46-7.06c-.85-2.51-6.66-11-6.91-11.33-3.74-5.67-7.2-1.8-7.25-1.74l-3.5,4.53c-.19-5.25-1.07-8.55-2.62-9.83a2.69,2.69,0,0,0-3.44.16c-1.86,1.19-4,5.29-4.88,7a4.44,4.44,0,0,0-2.35-2.63c-1.52-.51-2.81.8-3.06,1.08-1.57,1-5.45,6.48-6.73,8.31-1.08-3.61-2.13-5.53-3.27-6s-2.19.61-3.08,1.62l-.38.42a6.86,6.86,0,0,0-1.92,5.48v21.68q1.83,6.54,3.67,13.07,1.28,11.13,2.57,22.27-4,15.28-7.93,30.54-7.43,6.32-14.86,12.52,1.78,8.67,3.56,17.35,7.7,5.46,15.4,10.79,19.2,9.71,38.4,18.59,12-20.34,23.95-41l.09-.16V554.67C935.51,531.72,934.73,527.85,934.34,527.11ZM936.45,606q-11.78,20.34-23.53,40.32Q894,637.58,875.05,628q-7.51-5.21-15-10.52l-3.27-16q7.23-6,14.47-12.2l.11-.1q4-15.5,8-31l0-.15-2.64-22.69q-1.8-6.44-3.62-12.87V500.9a5.57,5.57,0,0,1,1.63-4.61l.39-.44c.81-.92,1.58-1.79,2.39-1.44s1.93,2.47,3,6.13c.07.28.15.55.23.83l.41-.6c1.82-2.65,5.61-7.88,6.95-8.71l.09-.07s1.17-1.35,2.45-.92c.82.28,1.54,1.22,2.13,2.81.11.28.21.57.32.85.12-.26.23-.51.35-.76,0-.06,2.79-6,4.95-7.33a2.15,2.15,0,0,1,2.69-.19c1,.8,2.13,3.19,2.24,10.07,0,.42,0,.85,0,1.27l4.74-6.14c.12-.13,3-3.26,6.19,1.64,1.66,2.42,6.1,9.09,6.79,11.11a17.14,17.14,0,0,1,1.35,6.48c0,.2,0,4.93,1.76,7.75.09.11,2,2.6,4,3.2,0,0,4.05.32,5.48,5.82l.21.82,0-.06c.31,1.54,1.09,7,2.54,26.31Z"/>
    <path d="M990.93,581.76v-7.85c-.32-5.48-6.91-30.36-6.91-30.37l-4.32,5.08-1.8,4h0V616l3.69,3.75q6.39,4.88,12.79,9.63,4.1-11.28,8.17-22.6C1000.82,584.74,990.93,581.78,990.93,581.76Z" style="fill: #784421"/>
    <path d="M991.32,581.31v-7.47c-.31-5.5-6.66-29.49-6.93-30.52-.07-.24-.13-.47-.19-.71l-4.74,5.57q-1.14,2.54-2.3,5.06h.35V616.3q1.93,2,3.89,4,6.57,5,13.14,9.89,4.2-11.62,8.41-23.29v-.18C1001.37,586.66,993,582.07,991.32,581.31Zm2.91,47.28Q988,624,981.82,619.26l-3.53-3.58V552.79c.57-1.26,1.14-2.52,1.7-3.78l3.85-4.53c1.08,4.11,6.42,24.67,6.7,29.46v8.29l.29.09c.1,0,9.6,3.14,11.31,24.37Q998.2,617.67,994.23,628.59Z"/>
    <path d="M856.1,721.05s-2.6,4-.53,10.72c0,0,.23,1,.64.7,0,0,.36-.22,0-1,0,0-1.85-5.57.47-9.62,0,0,.48-.86.15-1.28C856.86,720.53,856.65,720.07,856.1,721.05Z" style="fill: #fff"/>
    <path d="M894.86,713.46l-1-.33a8.9,8.9,0,0,0,.47,4,6.21,6.21,0,0,1,.48,3.45l.51.24-.5-.24.5.24.5.25a8.49,8.49,0,0,0-.6-4.7A6.66,6.66,0,0,1,894.86,713.46Z"/>
    <path d="M905.21,505.81a45.39,45.39,0,0,1-1.06-9.26l-.79,0a46.57,46.57,0,0,0,1.12,9.68,59.89,59.89,0,0,0,2.1,5.91c1.23,3.12,2.62,6.66,2.75,8.79l.78-.06c-.15-2.39-1.52-5.89-2.85-9.28A59.56,59.56,0,0,1,905.21,505.81Z"/>
    <path d="M1010.17,720.63c-.33-.68-.56-1.09-.56-1.09C1009.79,719.93,1010,720.29,1010.17,720.63Z" style="fill: #d40000"/>
    <path d="M1032.1,701.88c0-13.66-12-8-12-8-7,2.72-8.6-.36-8.59-.35a98.76,98.76,0,0,0-9-7.16c-3.07-2-9.07-2.07-9.07-2.08,1.15,8.15-10.72,18.12-10.72,18.08,3.77,13.26,12,15.48,12,15.47,4,2.31,3.16,9.65,3.17,9.65.59,15.76,10.94,11.07,10.94,11,6.82-4.81,2.86-14.63,1.27-17.9-.19-.34-.38-.7-.56-1.09,0,0,.23.41.56,1.09,2.42,4.32,5.45,4.9,5.45,4.9-2.83,5.67-1.65,9.88-1.65,9.88,2.12,10.72,9.42,7.29,9.42,7.28,10.24-5.6,4.94-16.06,4.94-16,8.25,9.17,12.25-5.87,12.25-5.86C1046.47,701.55,1032.1,701.93,1032.1,701.88Z" style="fill: #d40000"/>
    <path d="M1032.61,701.13c-.09-3.31-.9-5.76-2.41-7.3-3.64-3.7-10-.81-10.21-.7-6.42,2.52-8.07-.1-8.08-.11a.45.45,0,0,0-.13-.17l-2.27-1.92a64.34,64.34,0,0,0-6.73-5.27c-3.12-2-9-2.13-9.27-2.14a.54.54,0,0,0-.43.29,1.06,1.06,0,0,0-.11.66c1,7.47-10.33,17.16-10.45,17.23a1,1,0,0,0-.24,1c3.83,13.47,12,15.82,12.29,15.86,3.59,2.07,2.9,8.57,2.86,9,.19,4.91,1.32,8.44,3.36,10.48,3.4,3.39,8.05,1.31,8.31,1.17a9.57,9.57,0,0,0,4-6.43,18.41,18.41,0,0,0-.8-8.35,8.49,8.49,0,0,0,2.47,1.62c-2.41,5.48-1.33,9.51-1.29,9.62,1.52,7.72,5.62,8.54,8.1,8.25a7,7,0,0,0,2-.51,11.94,11.94,0,0,0,6.37-7.87,14,14,0,0,0-.15-6.6c2,1.52,3.84,1.84,5.61,1,3.8-1.9,5.63-8.61,5.69-8.85,1.78-5.82,1.94-10.51.49-13.95C1039.35,701.92,1034.21,701.23,1032.61,701.13Zm7.49,19.45c0,.06-1.71,6.24-5,7.87-1.94,1-4.11.15-6.43-2.43-.2-.23-.49-.18-.69.1a1.09,1.09,0,0,0-.08,1,13.19,13.19,0,0,1,1,8,10.48,10.48,0,0,1-5.64,6.8c-.29.14-6.85,3.07-8.81-6.88-.05-.16-1-3.93,1.57-9.13a1.11,1.11,0,0,0,.08-.74.56.56,0,0,0-.39-.44s-2.81-.58-5.07-4.52c-.34-.71-.59-1.15-.63-1.22a.4.4,0,0,0-.71-.08,1,1,0,0,0-.14,1c.2.42.4.81.6,1.18,1,2.16,3.05,7.07,2.31,11.32a8,8,0,0,1-3.3,5.3s-4.38,1.94-7.37-1c-1.78-1.77-2.76-4.92-2.94-9.18,0-.09.87-8-3.57-10.49-.07,0-7.79-2.24-11.48-14.44a56.07,56.07,0,0,0,4.92-5c3.93-4.69,5.86-8.93,5.74-12.56,1.6.1,5.87.46,8.23,2a64.66,64.66,0,0,1,6.63,5.2c.69.6,1.42,1.22,2.21,1.88.42.63,2.5,3,9.06.46.06,0,6.11-2.78,9.34.51,1.35,1.38,2,3.68,2,6.84,0,.39.21.7.48.7.06,0,6.3,0,8.58,5.36C1041.9,711,1041.73,715.24,1040.1,720.58Z"/>
    <path d="M898.63,520.32q4.89,58,9.8,116.06l.78-.11q-4.9-58-9.8-116Z"/>
    <path d="M900.89,520.22q5.5,54.15,11,108.24l.78-.13q-5.49-54.08-11-108.23Z"/>
    <path d="M903,519.85q6.33,53.74,12.66,107.4l.78-.16q-6.33-53.65-12.66-107.39Z"/>
    <path d="M903.08,500.19q10.14,59.15,20.28,118.05l3.51-1.64q-11.48-58.19-23-116.69Z" style="fill: #784421"/>
    <path d="M902.6,499.76Q912.79,559.19,923,618.37c0,.2.07.4.1.6l4.27-2q-11.58-58.71-23.16-117.76Zm21,117.74q-10-58.31-20.09-116.88l.1,0q11.37,58,22.74,115.63Z"/>
    <path d="M910,516.09q11.6,43.3,23.18,86.3l.73-.41q-11.6-43-23.18-86.28Z"/>
    <path d="M908.45,517.38q11.19,45.23,22.37,90.15l.74-.38Q920.37,562.24,909.19,517Z"/>
    <path d="M869.78,734.86s.15-1.43-.34-1.67c0,0-.53-.37-.61,1.3,0,0-.74,7,2.52,11.33,0,0,.22.42.58.34,0,0,.38-.09.16-.56C872.09,745.6,869.4,741.58,869.78,734.86Z" style="fill: #fff"/>
    <path d="M911.05,515q12,39.56,23.9,78.77l.72-.46q-12-39.18-23.9-78.75Z"/>
    <path d="M904.49,519.4q7.32,52.94,14.66,105.75l.77-.21q-7.33-52.8-14.66-105.73Z"/>
    <path d="M1014.62,532.63a86.19,86.19,0,0,0-2.59,34.6s2.29,19.07,12.76,26.51q-2.17-6.93-4.34-13.89c-2.18-9.72-1.65-6.49-3.07-19.25s1.06-26.13,1.06-26.13c3.18-15.83,14.55-28.79,14.55-28.82S1021.39,511.07,1014.62,532.63Z" style="fill: #f5ce00"/>
    <path d="M1014.15,532.34a88.19,88.19,0,0,0-2.64,35.07c0,.17,2.46,19.52,13,27,.25-.36.5-.71.74-1.07q-2.16-6.89-4.33-13.81c-.22-1-.45-2-.68-3a69.63,69.63,0,0,1-1.87-11.7c-.17-1.47-.33-2.94-.49-4.42-1.38-12.44,1-25.67,1-25.78,3.1-15.39,14.24-28.25,14.35-28.4l-.42-1.32C1032.75,505,1020.94,510.7,1014.15,532.34Zm3.79,2c0,.13-2.49,13.67-1.07,26.45l.48,4.41a71.07,71.07,0,0,0,1.92,11.93c.23,1,.46,2.06.7,3.1,1.22,3.9,2.44,7.81,3.66,11.7-8.93-7.83-11.07-24.71-11.09-24.89a86,86,0,0,1,2.55-34.12c4.43-14.11,11-21.19,14.87-24.37C1026.35,513.49,1020.19,523.1,1017.94,534.33Z"/>
    <path d="M981.59,583.67s-2.59-26-1.89-35q-22,11.21-44,21l-2.4,28.58c-10.44,22-31.66,24.87-31.66,24.81q8.25,13.31,16.51,26.44,15.86,5.46,31.71,10.25,8.32-9.41,16.64-19,7.54-10.38,15.08-20.94c-1.57-10.79-.71-27-.71-27C980.88,590.07,981.59,583.67,981.59,583.67Z" style="fill: #784421"/>
    <path d="M981.12,592.77c0-2.66.7-9,.7-9v-.11c0-.26-2.57-26.06-1.88-35,0-.18,0-.36,0-.54q-22.17,11.31-44.35,21.17l-.14.06q-1.22,14.37-2.41,28.72c-10.27,21.55-31.25,24.62-31.46,24.59l-.47.06q8.42,13.56,16.83,27l.06.08q15.88,5.46,31.78,10.27l.11,0q8.37-9.46,16.75-19.12,7.58-10.47,15.17-21.09l0-.19C980.28,609,981.11,593,981.12,592.77Zm-14.75,47.64q-8.28,9.55-16.56,18.9-15.76-4.75-31.53-10.18-8.07-12.86-16.14-25.86a44.72,44.72,0,0,0,31.37-24.87q1.2-14.26,2.42-28.52,21.75-9.71,43.5-20.75c-.56,9.23,1.79,33.25,1.91,34.55-.07.67-.7,6.5-.7,9.09,0,.16-.84,16.15.68,26.86Q973.85,630.1,966.37,640.41Z"/>
    <path d="M933.8,590.46l.23,1.1c.29,0,29.19-13,46.29-24.55-.1-.34-.2-.69-.31-1C963,577.48,934.08,590.45,933.8,590.46Z"/>
    <path d="M981.39,583.18c-25.08,22.42-61.1,31.07-61.46,31,.05.38.1.76.14,1.14.37,0,36.51-8.64,61.74-31.2q4.66-4.86,9.34-9.77c-.15-.3-.29-.61-.44-.92Q986,578.36,981.39,583.18Z"/>
    <path d="M962.73,396.77" style="fill: none;stroke: #000;stroke-miterlimit: 2.61299991607666;stroke-width: 0.2076999992132187px"/>
    <path d="M980.71,592.27c-.4.5-40.7,29-71.05,27.84,0,.38,0,.76,0,1.14,30.51,1.12,71-27.45,71.43-28q5-5.47,10-11c-.16-.3-.31-.6-.46-.91Q985.71,586.82,980.71,592.27Z"/>
    <path d="M932,636c0,.39,0,.77,0,1.15,17.71.25,48.76-24.08,49.07-24.49l-.36-1C980.38,612,949.49,636.22,932,636Z"/>
    <path d="M1055.14,600a1.4,1.4,0,0,0-.08-.22C1055.09,599.85,1055.11,599.93,1055.14,600Z" style="fill: #d40000"/>
    <path d="M1061.89,584c-4.08-6.3-6.12-5.36-6.12-5.35-.94-4,.63-12.57.63-12.57,1.1-11.95-1.89-15.15-1.89-15.15a67.33,67.33,0,0,0-10.36-10.58c-6.43-4.53-12.56,1.81-12.56,1.81-4.39-5.61-13.66,1.68-13.66,1.66q.17,14.54.32,29.09,3.45,8.75,6.91,17.46,6.94,4.9,13.89,9.64s-1.1,2.65-2.12,11,3.38,15.7,3.38,15.69a24.76,24.76,0,0,1,3.84-17.56c2.2-3.45,2.91-9.72,2.91-9.72,2.9,11.55-1.57,6.84-2.28,20s6.67,15.93,6.67,15.91c-3.21-8.36.71-17.57.71-17.57,4.51-11.27,3.32-16.64,3-17.74,0-.07-.05-.15-.08-.22a.74.74,0,0,1,.08.22c2.1,5.74,1.49,14.3,1.49,14.3-.31,12.9,7.15,15.92,7.15,15.9a31.37,31.37,0,0,1-1.57-19.23c3.61-13-.55-16.89-.55-16.9,8.55.11,10-11,10-11C1067.07,591.76,1061.89,584,1061.89,584Z" style="fill: #d40000"/>
    <path d="M1071.86,582.35c-.22-.11-.47,0-.63.32-1.14,2.17-2.41,3.41-3.78,3.68h0c-2.77.55-5.13-2.92-5.15-3-3.18-4.9-5.22-5.6-6.12-5.61-.66-3.92.72-11.55.75-11.72,1.12-12.24-1.93-15.67-2-15.77a68.81,68.81,0,0,0-10.47-10.68c-5.83-4.1-11.33.27-12.76,1.57-4.68-5.23-13.56,1.65-14,1.93a1,1,0,0,0-.3.74l.31,29.08a1.35,1.35,0,0,0,.07.36q3.45,8.75,6.91,17.46a.6.6,0,0,0,.2.28q6.72,4.74,13.45,9.35a65.2,65.2,0,0,0-1.93,10.53c-1.06,8.6,3.29,16,3.48,16.29a.39.39,0,0,0,.63.13,1,1,0,0,0,.29-.89,23.63,23.63,0,0,1,3.7-16.84,23.38,23.38,0,0,0,2.6-7.41c.77,3.95.24,5.1-.55,6.83s-2,4.29-2.31,10.4c-.73,13.61,6.94,16.62,7,16.63a.37.37,0,0,0,.18,0,.6.6,0,0,0,.4-.33,1.11,1.11,0,0,0,.07-.87c-3-7.87.64-16.7.68-16.81a47,47,0,0,0,3.29-12.06,50.17,50.17,0,0,1,.22,8.36c-.32,13.28,7.39,16.57,7.47,16.58s.44-.05.59-.32a1.07,1.07,0,0,0,.06-.89,30.67,30.67,0,0,1-1.54-18.56c2.62-9.4,1.3-14.27.22-16.4,7.74-1.07,9.22-11.56,9.23-11.66A.73.73,0,0,0,1071.86,582.35Zm-10.13,11c-.23,0-.46.22-.55.55a.93.93,0,0,0,.15.88c.16.15,3.78,3.87.4,16a32.11,32.11,0,0,0,.79,17.82c-2.06-1.59-5.58-5.61-5.37-14.27,0-.37.62-9-1.59-14.87l0-.1a.41.41,0,0,0-.71-.17,1.07,1.07,0,0,0-.21,1.06s0,0,0,0c.14.4,1.75,5.51-2.89,17.13-.16.36-3.51,8.39-1.36,16.44-2-1.44-5.55-5.35-5.07-14.45.31-5.67,1.31-7.84,2.11-9.58,1.18-2.55,1.76-4.3.14-10.74-.07-.3-.27-.47-.49-.43h0a.79.79,0,0,0-.47.71s-.71,6.06-2.75,9.27a25.38,25.38,0,0,0-4.27,15.06,25.31,25.31,0,0,1-2.07-12.64c1-8,2-10.68,2-10.71a1.12,1.12,0,0,0,.07-.6.73.73,0,0,0-.25-.45q-6.88-4.69-13.77-9.55-3.39-8.54-6.77-17.12l-.31-28.38c1.62-1.15,9.11-6.18,12.77-1.5a.4.4,0,0,0,.64,0c.06-.06,5.92-6,12-1.74a67.82,67.82,0,0,1,10.3,10.52s2.75,3.22,1.72,14.41c-.06.36-1.6,8.84-.62,13,.08.33.33.5.58.42,0,0,1.92-.57,5.65,5.19.11.16,2.69,4,5.94,3.33h0a5.43,5.43,0,0,0,3-1.93C1069.39,589,1067,593.38,1061.73,593.31Z"/>
    <path d="M1024.92,592.44c-25.55-2.51-32.66,32.16-32.66,32.27a8.77,8.77,0,0,0-6.67-7.21c-3.41-.63-16.84,2.2-22.61,17.21s-11,17.7-16.76,18.91-12.67-11.9-12.67-11.9c9.06-19.51-4.83-25.91-4.83-25.94-14.25-6.61-21.17,16.68-21.17,16.7l-1.72-2.75c3.38-21.07-5.68-20.77-5.68-20.79-5.26-1.09-8.41,5.45-8.41,5.45,0-1-.58-16.82-11.3-17.15s-12.72,14.07-12.72,14.08c-5.89-4.09-7.18,4.72-7.18,4.73q6.06,26.19,12.13,52.32,5.72,6.15,11.42,12.23l7.65-.75c1.75-2.79,3.49-5.6,5.24-8.4l4.67,3.32q2.33,11,4.63,22.05,12.81,9.48,25.62,18.57,3.3,4.65,6.59,9.29c.78,2.79,1.56,5.57,2.33,8.36a14.1,14.1,0,0,1,13.29,0q1.32-5,2.63-10.11,5.65-5.71,11.31-11.52,5.12-3.24,10.24-6.56,7.38-8.1,14.75-16.35.16-7,.32-14l3.89-3.32q5.6,4.26,11.18,8.42,5.36-2.91,10.72-5.91,7.05-24.08,14.11-48.32,2.9-12.33,5.79-24.69l-3.89-2Q1030,595.59,1024.92,592.44Z" style="fill: #fff"/>
    <path d="M1025.15,591.73l-.16-.06c-22.11-2.12-30.73,23.35-32.74,30.88a9.17,9.17,0,0,0-6.57-5.81c-3.22-.59-17.19,2.11-23.15,17.6-5.8,15.12-11.06,17.42-16.39,18.53-4.84,1-10.72-9-11.95-11.18,2.78-6.16,3.6-11.69,2.45-16.46a15.57,15.57,0,0,0-7.77-10.18c-12.78-5.93-19.88,11.57-21.46,16.09l-1-1.61c1.25-8.09.83-14-1.23-17.74s-4.94-3.61-5-3.6c-4-.83-6.75,2.35-8.05,4.32-.26-2.68-1.07-7.59-3.56-11.29a9.85,9.85,0,0,0-8.17-4.74c-9.46-.33-12.4,10.61-13.06,13.79-1.67-1-3.15-1.06-4.39-.22-2.29,1.54-2.92,5.61-2.94,5.78l0,.21q6.09,26.31,12.17,52.53l.06.25q5.87,6.31,11.73,12.56l8-.78,5.12-8.22,4.1,2.92q2.32,11,4.63,22Q918.72,706.9,931.6,716l6.45,9.09c.83,3,1.65,5.94,2.48,8.9l.48-.25a13.79,13.79,0,0,1,12.9,0l.5.3,2.76-10.63q5.54-5.61,11.07-11.31,5.18-3.29,10.35-6.65,7.49-8.22,15-16.6.15-7,.31-13.91,1.7-1.42,3.37-2.88,5.57,4.25,11.13,8.38,5.58-3,11.16-6.16,7.11-24.27,14.22-48.72,3-12.67,6-25.37l-4.3-2.27Q1030.27,594.87,1025.15,591.73Zm7.63,33.39q-7,24.07-14,48-5.13,2.88-10.26,5.66-5.62-4.17-11.24-8.45l-4.41,3.76q-.17,7-.32,14-7.21,8.1-14.44,16-5.18,3.36-10.34,6.64-5.71,5.87-11.44,11.65-1.24,4.82-2.5,9.62a14.44,14.44,0,0,0-12.69,0q-1.08-3.84-2.14-7.69-3.36-4.75-6.72-9.55-12.78-9.06-25.55-18.55-2.31-11-4.63-22l-5.24-3.73q-2.69,4.31-5.36,8.6-3.63.38-7.26.7-5.55-5.91-11.11-11.89-6-25.89-12-51.85c.15-.76.78-3.55,2.38-4.63,1.1-.73,2.46-.54,4.06.57l.59.4c0-.29.08-.59.13-.89,0-.15,2-13.87,12.22-13.51a9,9,0,0,1,7.4,4.25c3.22,4.77,3.36,12,3.36,12.1v2.47l1-2c0-.06,3-6.19,8-5.14,0,0,2.51,0,4.21,3,1.84,3.3,2.16,9.1.93,16.77l-.06.39,2.45,3.94c.11-.35.21-.7.32-1.06.27-.95,6.91-22.62,20.53-16.29a14.39,14.39,0,0,1,7.09,9.22c1.07,4.4.21,9.64-2.54,15.55l-.21.46c.08.14.15.29.23.44.29.55,7.12,13.49,13.16,12.2,5.59-1.17,11.11-3.57,17.15-19.31,5.69-14.79,19-17.37,22.06-16.81a8.22,8.22,0,0,1,6.25,6.66c.15.92.3,1.85.44,2.78l.57-2.8c.29-1.52,7.26-34,32-31.7q5.1,3.12,10.18,6.16l3.46,1.81Q1035.58,613.17,1032.78,625.12Z" style="fill: #00247d"/>
    <path d="M964.68,454.08c-1.79,2.64-2.65,6.35-2.54,11l1.05-.07c-.1-4.23.65-7.55,2.22-9.88a8.45,8.45,0,0,1,6.66-3.76l0-1.53A9.22,9.22,0,0,0,964.68,454.08Z"/>
    <path d="M1037.78,503.46s-13.15,1.84-20.93,29.28c0,0-5.59,18.1-2.12,37.77,0-.06,4.66,26.37,21.67,31.67-.31,1-.63,2-.94,3-2.42,7.63-5.44,22-5.44,22-3.45,16.61-8,32.17-8.57,33.6s-2.3,7.2-5,10.68c-2.51,3.2-6.62,5.74-11.61,4-3.58-1.27-5.17-5.82-5.17-5.82a5.17,5.17,0,0,1-2.67-.4,3.22,3.22,0,0,1-1.18-2.56c.07-2.11,1-2.63,1-2.63a2.12,2.12,0,0,1,2,0c.09,0,.06.1.06.1s-.09.05-.09.05c-2.52-1-2.85,1.73-2.85,1.73-.39,3,1.7,3.52,1.7,3.52,6,1.22,5.83-6.2,5.83-6.2.06-6.84-5.42-5.79-5.42-5.8-5.59,1.11-4.94,10.07-4.94,10.07,0,9.91,9.3,15.18,9.3,15.16,15.66,7.14,22.69-14.66,22.69-14.63,5.28-15.21,10.81-43,10.81-43,4.89-21.67,7.66-27.92,7.66-27.92-25.56-5.58-24.56-42-24.56-41.83a85.87,85.87,0,0,1,7.89-34.74c6-11.67,11.13-10.81,11.13-10.81,2.63,0,2.24,4,2.24,4s0,0,0,.08,0,0,0-.08.19-3.23-1.57-3.77a2.81,2.81,0,0,0-3.38,1.81,8.1,8.1,0,0,0,.44,6.7s2.84,4.47,7.36.2c0,0,2.8-2.55,2.18-8.29C1045.16,510.32,1044.37,502.24,1037.78,503.46Z" style="fill: #f5ce00"/>
    <path d="M1035.22,519s3.18,4.86,8,.29c.12-.12,3.13-2.92,2.46-9.12,0-.1-.91-8.73-7.91-7.44-.14,0-3.47.55-7.79,4.49-4,3.61-9.53,10.9-13.6,25.28-.06.19-5.63,18.57-2.15,38.28,0,.21,4.81,26.25,21.44,32-.23.72-.46,1.44-.68,2.16-2.41,7.58-5.44,21.9-5.47,22.05-3.46,16.63-8,32.11-8.53,33.43-.07.2-.17.47-.28.8-.7,2-2.34,6.74-4.62,9.65-1.43,1.81-5.37,5.82-11.14,3.79-2.43-.86-3.9-3.38-4.51-4.67a4.26,4.26,0,0,0,2-1.5,9.7,9.7,0,0,0,1.54-5.36,7.63,7.63,0,0,0-1.3-4.82,5.07,5.07,0,0,0-4.68-1.71,5.75,5.75,0,0,0-4,3.11c-1.75,3.23-1.45,7.65-1.44,7.76,0,10.29,9.22,15.64,9.64,15.85a14.28,14.28,0,0,0,7.37,1.42c10.83-1.06,15.9-16.32,16-16.48,5.24-15.11,10.8-42.83,10.85-43.08,4.79-21.24,7.56-27.67,7.59-27.73l.43-1-.74-.16c-10.41-2.18-17.64-9.91-21.48-22.61a66,66,0,0,1-2.67-18.52c0-18.55,7.7-34.09,7.77-34.25,2.84-5.52,5.47-8.14,7.41-9.38A9.18,9.18,0,0,0,1035.22,519Zm-8.77,1.09c-.08.17-8,16.12-8,35.19,0,.24-.71,36.27,24.26,42.41-.93,2.46-3.46,10-7.34,27.16,0,.28-5.58,27.85-10.78,42.83-.28.83-7,21-22,14.19-.09,0-9-5.19-9-14.55,0,0-.26-4,1.21-6.7a4.67,4.67,0,0,1,3.25-2.5l.29,0a4.12,4.12,0,0,1,3.6,1.4,6,6,0,0,1,1,3.74,7.88,7.88,0,0,1-1.18,4.16,3.71,3.71,0,0,1-4,1.21c-.16,0-1.58-.46-1.3-2.65a1.86,1.86,0,0,1,.48-1,1.68,1.68,0,0,1,1.79-.09h.54l.11-.56.09-.25c-.07-.23-.15-.47-.23-.7l-.2-.11a2.47,2.47,0,0,0-2.38,0c-.05,0-1.27.74-1.36,3.34a4.11,4.11,0,0,0,1.53,3.29,6.33,6.33,0,0,0,2.56.48c.51,1.22,2.18,4.64,5.31,5.75,6.24,2.21,10.53-2.18,12.09-4.16,2.46-3.13,4.17-8.06,4.89-10.16.11-.32.2-.58.27-.76.5-1.34,5.14-17,8.62-33.75,0-.15,3-14.36,5.41-21.85.4-1.28.8-2.55,1.21-3.83l-.59-.18c-16.52-5.14-21.26-31-21.31-31.16-3.38-19.17,2-37.07,2.1-37.28,7.53-26.6,20.31-28.71,20.45-28.76,6-1.12,6.82,6,6.85,6.3.56,5.1-1.81,7.35-1.91,7.45-4.07,3.85-6.61,0-6.7-.08a7,7,0,0,1-.42-5.79,2.32,2.32,0,0,1,2.8-1.45c1.32.41,1.2,2.93,1.2,3v.09c.05.27.09.54.14.8l.44-.06.48-.26.15-.89,0-.06a6.37,6.37,0,0,0-.64-3.16,2.28,2.28,0,0,0-2-1.25C1037.88,508.87,1032.59,508.13,1026.45,520.06Z"/>
    <path d="M989,668.49c-4.71-.53-5.88,5.24-5.88,5.24-1.77,8.22,3.21,9.54,3.21,9.53,5,1,5.24-5,5.24-5,0-4.14-3.18-3.3-3.18-3.3s-.07,0-.07,0a.08.08,0,0,1,0,0,3,3,0,0,1,2.08.31c1.95.89,1.33,5.62,1.34,5.62a26.8,26.8,0,0,1-2.89,10.07c-2.51,4.49-6.38,7.61-10.6,10.22-6,3.72-11.78,7.55-14.83,9.45a23.79,23.79,0,0,0-7.91,8.47c-2.79,4.9-2.61,14.31.54,19.1a6.92,6.92,0,0,0,5.19,3.16c4.2-.08,5.47-5.1,5.47-5.09,1.44-5.45-2-7.86-2-7.87-4-2.35-5.65,1.81-5.65,1.82a6,6,0,0,0,.25,5.53c1.47,1.78,2.86.72,2.86.72a3.6,3.6,0,0,0,1.18-2.43c0-.07,0-.07,0-.07a.25.25,0,0,1,0,.13c-.33,2.87-2.24,2.78-2.24,2.78-1.68,0-2.8-2.46-2.8-2.46-2.89-6.56,3.65-13.76,3.65-13.77,4.27-4.74,18.58-13.52,18.58-13.57,3.57-2.3,11-7.58,13.89-15.15,2.62-6.78,1.09-14.34,1.09-14.34C993.57,668.5,989,668.5,989,668.49Z" style="fill: #f5ce00"/>
    <path d="M989.07,667.73c-5.11-.57-6.44,5.74-6.45,5.8a12.21,12.21,0,0,0,.23,7.11,5.48,5.48,0,0,0,3.38,3.38,4.16,4.16,0,0,0,4.34-1.38,5.68,5.68,0,0,0,.55-.83,25.26,25.26,0,0,1-2.63,8.55c-2.67,4.78-7,7.87-10.39,10-4.11,2.55-8.05,5.1-11.22,7.14-1.42.92-2.66,1.71-3.62,2.31a24.08,24.08,0,0,0-8.11,8.68c-3,5.31-2.75,15.1.56,20.13a7.37,7.37,0,0,0,5.57,3.39h0c4.5-.1,5.94-5.56,6-5.6,1.27-4.83-1-7.88-2.33-8.84-4.33-2.57-6.29,2.09-6.32,2.16a9.15,9.15,0,0,0-.42,1.47c-.28-5.08,4.1-10,4.16-10.07,4.16-4.62,18.31-13.33,18.45-13.47,7.25-4.7,12-10,14.15-15.5,2.7-7,1.21-14.62,1.14-15C994,667.85,989.23,667.73,989.07,667.73Zm5,23.71c-2,5.22-6.61,10.26-13.64,14.81-.58.41-14.42,8.92-18.69,13.66-.28.32-6.9,7.73-3.78,14.8.06.12,1.3,2.84,3.21,2.81h0c.82,0,2.47-.64,2.77-3.35l0-.45-.27-.65-.79.1-.06.66a2.76,2.76,0,0,1-.89,1.83s-1.12.79-2.26-.6a5,5,0,0,1-.17-4.59,3.22,3.22,0,0,1,5-1.51c.12.09,3,2.21,1.79,6.92,0,.18-1.21,4.51-5,4.59h0a6.52,6.52,0,0,1-4.83-2.93c-2.92-4.44-3.18-13.4-.5-18.12a23.31,23.31,0,0,1,7.68-8.22c1-.6,2.21-1.39,3.64-2.31,3.16-2,7.09-4.59,11.19-7.13,3.55-2.2,8-5.4,10.8-10.45a27.55,27.55,0,0,0,3-10.44c0-.22.68-5.39-1.63-6.45a3.58,3.58,0,0,0-1.83-.43,2.94,2.94,0,0,0-.49.08l-.38.07-.05.21-.23.2c0,.21.09.41.14.62l.21.62.43-.13a2.13,2.13,0,0,1,2,.58,3,3,0,0,1,.53,2,6.34,6.34,0,0,1-1.13,3.28,3.32,3.32,0,0,1-3.47,1,4.49,4.49,0,0,1-2.69-2.69,10.25,10.25,0,0,1-.13-5.89c0-.22,1.12-5.14,5.36-4.67.17,0,4.23.16,6.09,8.45C995.08,677.78,996.5,685.05,994,691.44Z"/>
    <path d="M988.56,674.11l.18,1.5c.13-.05,3.18-.92,5.15,4.41a36.24,36.24,0,0,1,1.46,5.87l1-.28a36.83,36.83,0,0,0-1.56-6.34C992.48,672.92,988.71,674.07,988.56,674.11Z"/>
    <path d="M995.8,671.85a9.67,9.67,0,0,1-.15-5.57,2.71,2.71,0,0,1,1.46-1.67c-.07-.5-.13-1-.19-1.5a4,4,0,0,0-2.17,2.45,11.62,11.62,0,0,0,.06,6.88c1.58,6.21,4.32,8.52,5.64,9.63.15.13.28.23.38.33.2-.44.39-.87.59-1.3-.11-.11-.25-.23-.42-.37C999.78,679.71,997.25,677.57,995.8,671.85Z"/>
    <path d="M932.21,465.82c0,.14,0,.29-.05.43C932.18,466.11,932.2,466,932.21,465.82Z" style="fill: #f5ce00"/>
    <path d="M916.33,449.09q-11.85,9.24-23.71,18.14c-18,13.7-24.51-1.51-24.51-1.47a14.39,14.39,0,0,1-.73-7.15c.08-.43.12-.08.12-.08.9,4.91,3.46,2.87,3.46,2.87,2-2.48.27-6.22.27-6.22a5.42,5.42,0,0,0-3.09-2.91c-2.33-.66-3.74,1.62-3.74,1.62-3.49,5,0,13.82,0,13.82,4.59,11.57,15.43,11.35,15.43,11.33a24.22,24.22,0,0,0,13.11-3.29c1.41-.57,13.18-9.13,13.18-9.15,4.56-3.69,11.15-8.05,11.15-8.05,8.32-6,12.68-.72,12.68-.71a10.22,10.22,0,0,1,2.28,7.85s0,.08,0,.13,0,.29-.05.43-.06.34-.06.34v0a2.78,2.78,0,0,1-1.05,1.71l-.11.07-.09.05a1.31,1.31,0,0,1-1.08.09h0l-.06,0c-1.35-.31-1.53-2.32-1.53-2.32.12-.93.24.06.24.06a2.51,2.51,0,0,0,1.29,2.26l.06,0a1.32,1.32,0,0,0,1.08-.08l.09-.05.11-.07a3.4,3.4,0,0,0,1.05-1.71l.06-.36c0-.14,0-.29.05-.43a7.92,7.92,0,0,0-.3-2.68c-1.57-5.81-5.53-3.19-5.53-3.19-4.52,3.16-1.65,10.76-1.65,10.76,3.45,7.73,8.95,3,8.95,3,7.38-7.46,1.65-19.11,1.65-19.11C928.22,440.64,916.33,449.11,916.33,449.09Z" style="fill: #f5ce00"/>
    <path d="M930.94,468.39l-.09.05Z" style="fill: #f5ce00"/>
    <path d="M931.05,468.32a2.78,2.78,0,0,0,1.05-1.71A3.4,3.4,0,0,1,931.05,468.32Z" style="fill: #f5ce00"/>
    <path d="M929.77,468.52l-.06,0Z" style="fill: #f5ce00"/>
    <path d="M916.07,448.42q-11.85,9.22-23.71,18.13c-17.29,13.17-23.56-.62-23.81-1.16a11.66,11.66,0,0,1-.81-4.34,3.25,3.25,0,0,0,1,1.21,2.18,2.18,0,0,0,2.56-.27c1.82-2.29,1-5.72.32-7.27a6.09,6.09,0,0,0-3.42-3.2c-2.59-.74-4.14,1.73-4.19,1.81-3.72,5.36-.22,14.35-.07,14.73,3.93,9.88,12.06,11.48,14.9,11.71a9.57,9.57,0,0,0,1,0,24.16,24.16,0,0,0,13.25-3.33c1.44-.58,12.79-8.82,13.29-9.21,4.48-3.63,11-8,11.12-8,7.88-5.67,11.94-1,12.12-.8s.42.5.6.75l-.21-.14a3.88,3.88,0,0,0-3.88.21,6.55,6.55,0,0,0-2.61,4.16,15.65,15.65,0,0,0,.76,7.7c3.69,8.26,9.6,3.35,9.69,3.26a13.79,13.79,0,0,0,3.88-8.32,24,24,0,0,0-2.11-11.87C928.46,439.84,916.21,448.34,916.07,448.42Zm20.75,17.38a12.09,12.09,0,0,1-3.41,7.29c-.21.18-5.11,4.23-8.22-2.74a13.44,13.44,0,0,1-.66-6.45,5.09,5.09,0,0,1,2.07-3.25,3.08,3.08,0,0,1,3-.18,4.67,4.67,0,0,1,1.79,2.94,7.39,7.39,0,0,1,.28,2.13v0c0,.23-.09.68-.09.69a2.46,2.46,0,0,1-.93,1.44,1,1,0,0,1-.9,0,1.82,1.82,0,0,1-.85-1.5s0-1.14-.6-1.23c-.23,0-.56.1-.67,1l0,.12v.12c.08.92.6,2.72,1.92,3l.11,0a1.5,1.5,0,0,0,1.14,0,2.55,2.55,0,0,0,1.21-1.05,4.9,4.9,0,0,0,.7-2.37s0,0,0-.07a11.19,11.19,0,0,0-2.47-8.52c-.19-.23-4.72-5.52-13.24.6-.06,0-6.66,4.42-11.16,8.06-3.27,2.41-12,8.64-13.18,9.14a24.13,24.13,0,0,1-12.91,3.23,16.61,16.61,0,0,1-14.94-10.92c0-.08-3.24-8.33-.05-12.93a3.23,3.23,0,0,1,2.77-1.5,2.33,2.33,0,0,1,.5.1,4.85,4.85,0,0,1,2.73,2.54c.06.13,1.41,3.2-.12,5.15a1.42,1.42,0,0,1-1.55.15,3.73,3.73,0,0,1-1.11-2.41l-.12-.76-.42-.06c-.18,0-.47,0-.6.72a15.62,15.62,0,0,0,.79,7.78,14.13,14.13,0,0,0,5.8,6.19c3.64,1.95,10,2.8,19.41-4.42q11.83-8.9,23.69-18.13c.47-.31,11.59-8,18.33,5.3A22,22,0,0,1,936.82,465.8Zm-8.1.37a0,0,0,0,1,0,0v0Z"/>
    <path d="M861.94,506.78s11.37,12.63,14.55,28.4c0,0,2.47,13.3,1.06,26.1s-.88,9.55-3.06,19.33l-4.35,14c10.47-7.73,12.77-26.85,12.77-26.83a85.84,85.84,0,0,0-2.59-34.54C873.54,511.82,861.94,506.8,861.94,506.78Z" style="fill: #f5ce00"/>
    <path d="M862.06,506.05l-.41,1.33c.11.14,11.25,12.64,14.33,28,0,.13,2.43,13.28,1,25.78l-.48,4.42a69.37,69.37,0,0,1-1.88,11.75l-.66,3-4.35,14c.25.35.49.7.74,1,10.56-7.79,13-27.16,13-27.33a87.67,87.67,0,0,0-2.63-35C874,511.44,862.18,506.12,862.06,506.05Zm20.33,61.57c0,.16-2.16,17.07-11.09,25.15L875,580.88c.22-1,.45-2,.68-3a71.32,71.32,0,0,0,1.91-12c.16-1.48.32-3,.49-4.43C879.48,548.63,877,535.15,877,535c-2.25-11.16-8.4-20.6-12-25.42,3.86,3.05,10.44,9.94,14.87,24A85.51,85.51,0,0,1,882.39,567.62Z"/>
    <path d="M930.32,399" style="fill: none;stroke: #000;stroke-miterlimit: 2.61299991607666;stroke-width: 0.2076999992132187px"/>
    <path d="M922.82,450c0,.51,0,1,0,1.52a8.38,8.38,0,0,1,6.65,3.74c1.58,2.32,2.32,5.64,2.22,9.86l1,.08c.11-4.68-.74-8.38-2.54-11A9.15,9.15,0,0,0,922.82,450Z"/>
    <path d="M896.92,657.65s-5.48-1-5.42,5.89c0,0-.15,7.41,5.83,6.1,0,0,2.09-.52,1.71-3.53,0,0-.34-2.71-2.86-1.7,0,0-.08,0-.09,0a.08.08,0,0,1,.06-.1,2.12,2.12,0,0,1,2,0s.92.5,1,2.61a3.25,3.25,0,0,1-1.18,2.57,5.17,5.17,0,0,1-2.68.44s-1.58,4.57-5.17,5.9c-5,1.85-9.1-.61-11.61-3.74-2.74-3.42-4.51-9.15-5-10.56s-5.13-16.85-8.58-33.35c0,0-3-14.22-5.44-21.76-.31-1-.62-2-.94-2.95,17-5.9,21.67-32.35,21.67-32.32,3.47-19.74-2.12-37.71-2.12-37.71-7.77-27.28-20.92-28.62-20.92-28.64-6.6-1-7.39,7.16-7.39,7.17-.62,5.77,2.19,8.19,2.19,8.19,4.51,4.08,7.36-.48,7.36-.48a8.14,8.14,0,0,0,.43-6.72,2.71,2.71,0,0,0-3.38-1.68c-1.75.6-1.57,3.83-1.57,3.83s0,.08,0,.08,0-.08,0-.08-.39-4,2.24-4.09c0,0,5.12-1.07,11.13,10.42A84,84,0,0,1,876,555.94c0-.08,1,36.09-24.55,42.65,0,0,2.76,6.13,7.65,27.62,0,0,5.53,27.54,10.82,42.61,0,0,7,21.53,22.68,14.12,0,0,9.33-5.38,9.3-15.28C901.86,667.66,902.51,658.69,896.92,657.65Z" style="fill: #f5ce00"/>
    <path d="M897,656.89a5.06,5.06,0,0,0-4.68,1.78,7.68,7.68,0,0,0-1.3,4.81,9.69,9.69,0,0,0,1.54,5.36,4.18,4.18,0,0,0,2,1.48c-.62,1.3-2.09,3.84-4.52,4.74-5.77,2.13-9.71-1.79-11.13-3.57-2.29-2.86-3.93-7.54-4.63-9.53-.11-.34-.21-.6-.28-.8-.49-1.31-5.07-16.66-8.53-33.19,0-.14-3.06-14.36-5.46-21.86-.23-.71-.46-1.42-.68-2.13,16.62-6.33,21.39-32.39,21.44-32.63,3.48-19.77-2.1-38-2.15-38.2C870.75,505.74,857.31,504,857.17,504h0c-7-1.06-7.91,7.67-7.91,7.75-.68,6.24,2.33,8.91,2.45,9,4.83,4.38,8-.54,8-.61a9.22,9.22,0,0,0,.52-7.45c1.93,1.17,4.57,3.7,7.41,9.14a84,84,0,0,1,7.78,34.08,67,67,0,0,1-2.67,18.55c-3.85,12.81-11.08,20.74-21.49,23.36l-.73.18c.14.32.28.64.43,1,0,.06,2.8,6.36,7.58,27.39.05.28,5.61,27.8,10.85,42.74.06.17,5.13,15.26,16,16.1a14.58,14.58,0,0,0,7.39-1.55c.4-.21,9.64-5.69,9.61-15.89,0-.19.31-4.62-1.44-7.82A5.65,5.65,0,0,0,897,656.89Zm4.38,10.74c0,9.28-8.9,14.56-9,14.58-15,7.11-21.76-12.86-22-13.71-5.2-14.82-10.72-42.18-10.78-42.49-3.88-17-6.41-24.42-7.33-26.84,25-7.09,24.26-42.93,24.25-43.18a86,86,0,0,0-8-35c-6.14-11.74-11.42-10.79-11.59-10.75a2.45,2.45,0,0,0-2.09,1.34,6.58,6.58,0,0,0-.64,3.19l0,.08.21.91.36.18.56,0c0-.24,0-.48.08-.72v-.09c0-.11-.12-2.63,1.21-3.09a2.23,2.23,0,0,1,2.78,1.32,7,7,0,0,1-.39,5.8s-2.63,4.08-6.72.37c-.1-.09-2.46-2.24-1.91-7.38,0-.3.77-7.22,6.58-6.6l.29,0c.13,0,12.89,1.63,20.44,28.15.06.18,5.48,18,2.09,37.2,0,.23-4.78,26.08-21.31,31.8l-.58.2,1.2,3.79c2.37,7.39,5.38,21.51,5.41,21.65,3.48,16.64,8.12,32.18,8.62,33.51q.11.27.27.75c.73,2.08,2.43,7,4.89,10,1.56,1.94,5.85,6.22,12.09,3.91,3.13-1.16,4.81-4.6,5.32-5.83a6.74,6.74,0,0,0,2.62-.56,4.11,4.11,0,0,0,1.46-3.27c-.09-2.6-1.3-3.29-1.35-3.31a2.45,2.45,0,0,0-2.32-.05h0l-.31.14c-.07.25-.13.5-.19.75.1.32.21.63.31,1l.52-.21a1.57,1.57,0,0,1,1.7.09,1.83,1.83,0,0,1,.48,1c.28,2.19-1.14,2.64-1.29,2.67a3.66,3.66,0,0,1-4-1.14,7.78,7.78,0,0,1-1.19-4.18,6,6,0,0,1,1-3.72,4.31,4.31,0,0,1,3.87-1.43,4.59,4.59,0,0,1,3.26,2.46C901.6,663.56,901.35,667.51,901.34,667.63Z"/>
    <path d="M931.48,710.55c-3.06-1.89-8.83-5.7-14.84-9.37-4.22-2.59-8.09-5.67-10.6-10.14a26.62,26.62,0,0,1-2.88-10s-.62-4.72,1.33-5.64a3.05,3.05,0,0,1,2.08-.32,0,0,0,0,1,0,0s0,.08-.06,0-3.18-.8-3.18,3.34c0,0,.19,6.07,5.24,5,0,0,5-1.36,3.21-9.56,0,0-1.18-5.77-5.89-5.18,0,0-4.56.06-6.57,9,0,0-1.53,7.59,1.09,14.33,2.93,7.54,10.33,12.75,13.9,15,0,0,14.3,8.74,18.57,13.47,0,0,6.55,7.2,3.65,13.76,0,0-1.12,2.5-2.8,2.47,0,0-1.91.1-2.23-2.77a.25.25,0,0,1,0-.13s0,0,0,.07a3.55,3.55,0,0,0,1.17,2.42s1.4,1.06,2.86-.73a6,6,0,0,0,.25-5.53s-1.69-4.17-5.65-1.79c0,0-3.48,2.43-2.05,7.87,0,0,1.28,5,5.48,5.07a6.94,6.94,0,0,0,5.18-3.17c3.16-4.81,3.33-14.22.55-19.11A23.66,23.66,0,0,0,931.48,710.55Z" style="fill: #f5ce00"/>
    <path d="M931.68,709.84c-1-.59-2.2-1.38-3.63-2.29-3.17-2-7.1-4.56-11.22-7.08-3.43-2.1-7.71-5.15-10.4-9.92a25,25,0,0,1-2.61-8.5,4.84,4.84,0,0,0,.54.82,4.12,4.12,0,0,0,4.36,1.33,5.52,5.52,0,0,0,3.36-3.4,12.3,12.3,0,0,0,.24-7.11c0-.06-1.36-6.36-6.41-5.75-.21,0-4.95.17-7,9.56-.06.32-1.56,8,1.14,14.93,2.14,5.5,6.9,10.71,14.15,15.37.15.12,14.3,8.75,18.46,13.37,0,.06,4.45,5,4.15,10.06a8.58,8.58,0,0,0-.43-1.5c0-.05-2-4.7-6.33-2.09-1.35.94-3.58,4-2.31,8.81,0,.06,1.45,5.5,6,5.59h0a7.4,7.4,0,0,0,5.55-3.41c3.31-5,3.59-14.82.59-20.09A24.12,24.12,0,0,0,931.68,709.84Zm6.78,27.72a6.54,6.54,0,0,1-4.8,3c-3.72,0-4.94-4.39-5-4.58-1.24-4.7,1.67-6.83,1.77-6.9a4,4,0,0,1,2.15-.67,3.46,3.46,0,0,1,2.84,2.13,5,5,0,0,1-.14,4.57c-1.16,1.43-2.24.68-2.31.62a2.72,2.72,0,0,1-.87-1.88c-.05-.22-.09-.44-.13-.67h-.72l-.27.73,0,.28c.32,2.8,2,3.5,2.75,3.42,2,0,3.19-2.69,3.24-2.81,3.12-7.08-3.49-14.47-3.77-14.78-4.28-4.74-18.11-13.17-18.7-13.57-7-4.5-11.62-9.48-13.64-14.68-2.47-6.35-1-13.65-1-13.7,1.86-8.33,5.92-8.53,6.13-8.54,4.2-.51,5.28,4.41,5.33,4.63a10.21,10.21,0,0,1-.14,5.88,4.57,4.57,0,0,1-2.66,2.71,3.31,3.31,0,0,1-3.5-1,6.28,6.28,0,0,1-1.13-3.24,3.12,3.12,0,0,1,.53-2,2.16,2.16,0,0,1,2.06-.6h0l.37.08.38-.76c-.09-.26-.18-.53-.28-.8l-.31-.1a3.35,3.35,0,0,0-2.33.35c-2.34,1.1-1.69,6.26-1.67,6.45a27.35,27.35,0,0,0,3,10.42c2.83,5,7.26,8.2,10.81,10.37,4.1,2.51,8,5,11.19,7.07,1.43.92,2.67,1.7,3.64,2.3a23.36,23.36,0,0,1,7.71,8.23C941.65,724.16,941.39,733.12,938.46,737.56Z"/>
    <path d="M900.1,679.57a35.66,35.66,0,0,0-1.55,6.34l1,.27a36.5,36.5,0,0,1,1.45-5.87c2-5.38,5-4.53,5.16-4.49l.18-1.5C906.21,674.28,902.46,673.17,900.1,679.57Z"/>
    <path d="M898,663.42l-.18,1.49a2.64,2.64,0,0,1,1.45,1.66,9.56,9.56,0,0,1-.14,5.57c-1.46,5.74-4,7.91-5.21,9l-.42.37.6,1.3c.1-.1.23-.21.38-.34,1.31-1.12,4-3.48,5.63-9.7.71-2.83.73-5.14.06-6.88A3.88,3.88,0,0,0,898,663.42Z"/>
    <path d="M938.68,463.72l.56,1.31c.08-.08,8.33-7.31,16.62.79.19-.42.39-.85.59-1.27C947.58,455.89,938.77,463.65,938.68,463.72Z"/>
    <path d="M881.28,500.17l-.74.36c1.87,7.2,5.4,18.55,5.46,18.74,5.23,12.12,4.19,18.86,4.18,18.93l.77.33c0-.3,1.15-7.23-4.27-19.77C886.65,518.65,883.13,507.33,881.28,500.17Z"/>
    <path d="M893.52,493.43l-.73.39c0,.11,3.08,11.15,4.12,16.06,0,.14,3.82,14,4.62,16.75l.72-.41c-.8-2.78-4.57-16.58-4.6-16.68C896.6,504.62,893.55,493.55,893.52,493.43Z"/>
    <path d="M894.4,546.64a25.51,25.51,0,0,1,2.73,13.28l.78.12c.37-8.62-2.8-13.92-2.93-14.14Z"/>
    <path d="M887.78,556.61c.24-13.89-3.37-16.85-3.52-17-.12.34-.23.67-.34,1,0,0,3.3,2.85,3.08,15.87,0,.42-.31,10.38,5.12,15.91.14-.31.28-.62.43-.93C887.51,566.35,887.78,556.72,887.78,556.61Z"/>
    <path d="M899.35,594.12c-3.41-1.15-3.68-10.17-3.68-10.29a10,10,0,0,0-2-5.77c-3.4-4.3-9.8-3.81-10.07-3.79,0,.38.06.76.08,1.14.07,0,6.34-.47,9.49,3.5a8.57,8.57,0,0,1,1.74,4.94c0,.4.3,10,4.36,11.4.22,0,5.37,1.15,6.42,8.32l.76-.2C905.26,595.37,899.37,594.13,899.35,594.12Z"/>
    <path d="M887.42,585.85l-.65.59c.08.18,2,4.52,3.93,6.51l.44-.93C889.34,590.17,887.44,585.89,887.42,585.85Z"/>
    <path d="M901,576.89c0,.06,2.78,6.32,3.28,9.84l.77-.2c-.54-3.73-3.27-10-3.39-10.24Z"/>
    <path d="M913.76,502.05l-.63.66c.11.21,2.66,5.37,5.2,7.92.15-.32.29-.63.44-.94C916.34,507.26,913.79,502.11,913.76,502.05Z"/>
    <path d="M928.76,557.56c.94-20.36-4.54-24.67-4.78-24.85l-.34,1c.05,0,5.25,4.14,4.33,23.72,0,.49-.69,12.09,1.61,18.69l.7-.51C928.09,569.33,928.75,557.68,928.76,557.56Z"/>
    <path d="M897.93,518.3c.11.64.23,1.28.35,1.93a15.91,15.91,0,0,0,15.17-8.4l-.57-1.9S904.28,508.91,897.93,518.3Z" style="fill: #784421"/>
    <path d="M912.9,509.36c-.09,0-8.85-.93-15.26,8.53l-.15.22.48,2.65.29,0,.43,0a16.11,16.11,0,0,0,15.07-8.64c0-.09.09-.18.14-.26-.25-.85-.51-1.7-.76-2.55Zm-14.32,10.32c-.07-.4-.15-.8-.22-1.19,5.53-8,12.79-8.06,14.24-8h0c.13.42.25.83.37,1.24A15.65,15.65,0,0,1,898.58,519.68Z"/>
    <path d="M933.3,596.36c.08.37.15.73.23,1.1.34.06,34.25-14.72,47.25-24.23l-.32-1C967.5,581.67,933.65,596.41,933.3,596.36Z"/>
    <path d="M929.36,503.43c.14.55.27,1.09.4,1.64q8.43-4.49,16.86-9.16c-.14-.55-.27-1.1-.4-1.65Q937.79,498.94,929.36,503.43Z" style="fill: #784421"/>
    <path d="M929.06,503.22c.19.76.37,1.53.56,2.3q8.64-4.61,17.3-9.4c-.19-.77-.37-1.54-.56-2.31Q937.71,498.61,929.06,503.22Zm.84,1.4c-.07-.33-.15-.65-.23-1q8.21-4.36,16.4-8.92l.24,1Q938.11,500.26,929.9,504.62Z"/>
    <path d="M930.8,504.41q5.6,40.17,11.19,80.24l.77-.22q-5.6-40.08-11.19-80.23Z"/>
    <path d="M932.75,503.39q6.4,40,12.81,79.85l.77-.26q-6.42-39.87-12.82-79.84Z"/>
    <path d="M934.93,502.23q7,39.67,14,79.22l.76-.29q-7-39.52-14-79.2Z"/>
    <path d="M940.45,499.35q9.56,29.79,19.1,59.31l.71-.5q-9.54-29.52-19.1-59.29Z"/>
    <path d="M943,498q10.18,29.58,20.37,58.86l.7-.53Q953.87,527,943.68,497.47Z"/>
    <path d="M944.86,497q11,29.25,22,58.17l.68-.57q-11-28.91-22-58.15Z"/>
    <path d="M941.5,584.62l.24,1.09q4.32-2,8.65-4.15c-.08-.36-.17-.72-.25-1.09Q945.82,582.57,941.5,584.62Z"/>
    <path d="M935,576.62l.22,1.11c.26-.05,25.59-10.6,44.56-22.83-.09-.35-.19-.7-.29-1C960.51,566.05,935.22,576.58,935,576.62Z"/>
    <path d="M934.63,580.66c.07.37.14.74.2,1.11.33.06,32.31-12.34,44.94-22.19l-.35-1C966.86,568.35,935,580.72,934.63,580.66Z"/>
    <path d="M948.87,617.55q.72,3.45,1.46,6.89l-3.86,1.82-1.56-7-.75.36,1.8,8.06,5.35-2.51q-.85-4-1.69-8Z"/>
    <path d="M961.84,612c.49,2.29,1,4.58,1.46,6.87l-3.86,1.88-1.56-6.94-.75.36q.92,4,1.81,8l5.34-2.61q-.84-4-1.69-8Z"/>
    <path d="M934.9,559l.42,10.62.78,0c-.13-3.24-.25-6.48-.38-9.73q20.73-8.88,41.47-19c.72,2.65,1.43,5.3,2.15,8l.73-.45c-.8-3-1.61-6-2.41-8.94Q956.29,549.9,934.9,559Z"/>
    <path d="M952.8,551.78c.77,3,1.53,6,2.3,9l.73-.41c-.76-3-1.53-6-2.29-9Z"/>
    <path d="M967.54,545c.89,2.82,1.79,5.63,2.68,8.45l.71-.51q-1.33-4.22-2.68-8.44Z"/>
    <path d="M971,543.34q1.25,4,2.51,8l.71-.5q-1.25-4-2.51-8Z"/>
    <path d="M974.36,541.74l2.64,8.33.71-.51c-.88-2.77-1.75-5.55-2.63-8.32Z"/>
    <path d="M977.23,539.68l.39,1q2.11-1.83,4.23-3.69l1.8,6.8.74-.45-2.13-8Q979.76,537.51,977.23,539.68Z"/>
    <path d="M979.34,538.44q1.18,3.84,2.36,7.66l.72-.5c-.79-2.55-1.57-5.1-2.36-7.66Z"/>
    <path d="M876.15,628.55l-.66-.53c-.09-.06-8.57-7-7.26-16.5l-1-.4c-1.27,9.09,5.11,15.79,7.19,17.69-7.69,11.4.4,24.38.49,24.51.24-.34.49-.67.74-1-.32-.5-7.77-12.49,0-23Z" style="fill: #00247d"/>
    <path d="M890.3,669c-2.95,1-6.61-.76-7.5-1.63-3.21-3.13-4-8.65-3.09-12.25.72-2.85,2.27-7.33,3.4-10.47-.48,7.94.35,13.63,2.48,16.94,2,3.11,4.36,2.85,4.46,2.83l-.14-1.53c-.08,0-2,.2-3.6-2.34s-3.08-7.79-1.82-19.76c.15-1.45.3-2.9.46-4.35l-1.44,3.8c-.14.38-3.57,9.44-4.78,14.28-1,4.16-.16,10.52,3.52,14.11a10.41,10.41,0,0,0,5.57,2.2,6.94,6.94,0,0,0,2.78-.34,6.68,6.68,0,0,0,4-4.48l-.94-.74A5.54,5.54,0,0,1,890.3,669Z" style="fill: #00247d"/>
    <path d="M879,639.21l1-.51c-2.29-8.14.74-12.17.88-12.34l-.72-1.18C879.93,625.37,876.37,630,879,639.21Z" style="fill: #00247d"/>
    <path d="M883.51,627.19c0,.36.46,8.68,3.37,13.72l.78-1c-2.67-4.62-3.1-12.71-3.11-12.79Z" style="fill: #00247d"/>
    <path d="M887,624.11l-1-.08c0,.41,0,10.23,5,16.81.23-.37.46-.74.68-1.11C887,633.65,887,624.21,887,624.11Z" style="fill: #00247d"/>
    <path d="M889.4,620.9l-1-.07c0,.46.11,11.47,5.83,18.77l.66-1.14C889.51,631.66,889.4,621,889.4,620.9Z" style="fill: #00247d"/>
    <path d="M927.41,643.34c-4.54-.74-4.31-6.71-4.29-7a6.25,6.25,0,0,1,2.52-5.34l1.94-1.25-2.13-.21-.46,0c-5.91-.17-8.7,8.37-8.82,8.74l1,.68c0-.08,2.17-6.61,6.47-7.73a8.3,8.3,0,0,0-1.52,5.07c0,.07-.33,7.72,5.22,8.63a6.82,6.82,0,0,0,1.16.11,6.07,6.07,0,0,0,5.48-2.73l-.77-1C931.31,644.12,927.47,643.35,927.41,643.34Z" style="fill: #00247d"/>
    <path d="M918.11,655.33c0-.09.64-8.44,6.22-12.19-.15-.46-.31-.92-.46-1.39-6.11,4.11-6.78,13-6.8,13.35-1.57,14.84,12.81,25.35,13.43,25.75.15-.46.29-.92.44-1.38C930.8,679.41,916.65,669.09,918.11,655.33Z" style="fill: #00247d"/>
    <path d="M921.51,651.78l-1-.48c0,.27-1.35,6.68,1.72,11.39l.75-1C920.34,657.62,921.49,651.83,921.51,651.78Z" style="fill: #00247d"/>
    <path d="M924.79,647.68l-1-.57c-.07.3-1.84,7.28,1.27,12.77l.8-1C923.17,654.14,924.78,647.74,924.79,647.68Z" style="fill: #00247d"/>
    <path d="M928.29,644.54l-.92-.75c-.09.25-2.24,6.09.45,11.6l.85-.87C926.37,649.81,928.21,644.76,928.29,644.54Z" style="fill: #00247d"/>
    <path d="M914.13,681.68c.33.44,8.22,10.67,14.58,10.9,0-.51,0-1,0-1.52-6-.22-13.83-10.4-13.91-10.51C914.58,680.93,914.35,681.3,914.13,681.68Z" style="fill: #00247d"/>
    <path d="M911.61,684.8c.31.38,7.64,9.31,12.39,10.76.07-.5.13-1,.2-1.49-4.5-1.37-11.86-10.34-11.93-10.43Z" style="fill: #00247d"/>
    <path d="M908.77,687.14c.38.53,9.44,12.51,15.27,13.55,0-.51.08-1,.11-1.52-5.5-1-14.6-13-14.69-13.14Z" style="fill: #00247d"/>
    <path d="M947,711.87c-.16-.45-.33-.9-.5-1.35-.19.16-4.74,3.78-5,8.86a9.65,9.65,0,0,0,2.88,7.15l.62-1.23a8,8,0,0,1-2.46-5.81C942.74,715.25,946.94,711.9,947,711.87Z" style="fill: #00247d"/>
    <path d="M940.72,702.6c.16.46.32.91.49,1.36.1-.06,10.34-7.87,14.75-10.86l-.43-1.39C951.09,694.72,940.82,702.54,940.72,702.6Z" style="fill: #00247d"/>
    <path d="M944.4,706.73l.54,1.3c.15-.09,14.92-13.33,19.26-16.3-.15-.46-.29-.92-.43-1.38C959.38,693.35,945,706.22,944.4,706.73Z" style="fill: #00247d"/>
    <path d="M952,707.59l.58,1.27c.12-.1,12.77-12.59,19.5-18.18-.16-.44-.33-.88-.5-1.33C964.85,695,952.16,707.49,952,707.59Z" style="fill: #00247d"/>
    <path d="M960.42,707.07l.65,1.2a235.8,235.8,0,0,1,17.19-17.86l-.53-1.29A241.38,241.38,0,0,0,960.42,707.07Z" style="fill: #00247d"/>
    <path d="M966.05,674.82a57.8,57.8,0,0,1,12.12-9.1c-.12-.48-.23-1-.35-1.43-10.22,5.77-15.39,12.57-15.6,12.87l-2.42,3.26,3-2c13.5-9.13,17.75-1,17.79-.9l.86-.91C981.26,676.23,977.51,668.87,966.05,674.82Z" style="fill: #00247d"/>
    <path d="M991.75,624.92c0,.07,1.11,7.2,0,11.51.32.17.64.34,1,.5,1.28-4.76.15-12.11.1-12.42Z" style="fill: #00247d"/>
    <path d="M981.91,628.91c0,.5,0,1-.07,1.52,9.49.48,11.3,9.86,11.37,10.29.79,4.13.61,7.66-.55,10.49a9.73,9.73,0,0,1-5.17,5.48c-5.31,1.83-7.17-4.59-7.24-4.86l-.18-.63-.45.22a22.87,22.87,0,0,0-10.71,10.18l.86.83a22.05,22.05,0,0,1,9.72-9.36c.68,1.81,3.07,6.89,8.2,5.11a10.86,10.86,0,0,0,5.85-6.22c1.32-3.21,1.55-7.16.68-11.7C994.2,640.13,992.19,629.41,981.91,628.91Z" style="fill: #00247d"/>
    <path d="M1011.77,609.08c-.07.51-.13,1-.19,1.53.4.08,9.74,1.69,9.58,13.09,0,.14.65,17.57-11.88,22.2l.19,1.49c13.43-5,12.74-23.76,12.74-23.85C1022.39,610.9,1011.87,609.13,1011.77,609.08Z" style="fill: #00247d"/>
    <path d="M1019.76,616.15l1,.53c0-.1,2.79-8.95,8.76-13.2l-.39-1.37C1022.72,606.64,1019.88,615.75,1019.76,616.15Z" style="fill: #00247d"/>
    <path d="M1022.14,598.07l-.89.91c.29.66,2.94,6.44,5,7.19l.33-1.49C1025.13,604.16,1022.88,599.73,1022.14,598.07Z" style="fill: #00247d"/>
    <path d="M1020.64,603.37l-.81,1.06c.28.46,2.71,4.49,3.64,5.21l.54-1.38A33.49,33.49,0,0,1,1020.64,603.37Z" style="fill: #00247d"/>
    <path d="M1019.82,608l-.87,1c.06.12,1.47,3,2.8,3.84l.48-1.4A11,11,0,0,1,1019.82,608Z" style="fill: #00247d"/>
    <path d="M966.54,541.37l.89.78a4.85,4.85,0,0,1,6.32-2.59c.1-.49.19-1,.28-1.48C968.78,536.16,966.56,541.31,966.54,541.37Z" style="fill: #00247d"/>
    <path d="M999.81,562.12c-4.7,3.77-6.25,13-6.31,13.37l1,.28c0-.09,1.5-8.9,5.76-12.32,2.15-1.73,4.69-1.81,7.53-.23l.42-1.44C1005.09,560,1002.26,560.16,999.81,562.12Z" style="fill: #00247d"/>
    <path d="M1001.62,548.78c2.51,3.92,1.48,12.37,1.47,12.46l1,.19c0-.38,1.14-9.28-1.71-13.73Z" style="fill: #00247d"/>
    <path d="M995.73,561.72s1.23,3.19.21,5.82l.9.7a11.17,11.17,0,0,0-.2-7.33Z" style="fill: #00247d"/>
    <path d="M1022.92,726.61s-4.72.89-3.77,10c0,0,1.41,8.86-.82,16.91,0,0,12.24-9.6,8.47-23C1026.8,730.48,1025.64,725.94,1022.92,726.61Z" style="fill: #64b4d1"/>
    <path d="M1022.9,726a5,5,0,0,0-3.12,2.76c-1,1.94-1.37,4.6-1,8,.06.35,1.35,8.84-.8,16.56.18.22.35.45.53.68a27.78,27.78,0,0,0,5.76-6.59c3.51-5.53,4.52-11.49,2.92-17.17C1027.12,730,1025.88,725.36,1022.9,726Zm-3.85,26.18a47.37,47.37,0,0,0,.48-15.76c-.3-3,0-5.33.85-7a4.2,4.2,0,0,1,2.58-2.29l.24,0c2.21-.27,3.22,3.54,3.24,3.6C1029.43,741.39,1021.75,749.74,1019.05,752.22Z" style="fill: #00247d"/>
    <path d="M1025.41,732.3c-.49.26-.33,1.69-.33,1.69a19,19,0,0,1-2.32,10.8c-.22.47.16.55.16.55.36.08.59-.36.59-.36,3.25-4.43,2.51-11.4,2.51-11.4C1025.94,731.92,1025.41,732.3,1025.41,732.3Z" style="fill: #fff"/>
    <path d="M1035.75,714.64s-5.35,3.16-1.18,13.43c0,0,2.12,6.73,1.18,10.76,0,0,8.6-9.14,4-21.72C1039.7,717.11,1038.34,713.5,1035.75,714.64Z" style="fill: #64b4d1"/>
    <path d="M1035.64,714.11a6.9,6.9,0,0,0-2.71,4.16c-.73,2.79-.29,6.21,1.29,10.08,0,.07,2,6.58,1.16,10.34l.58.6c.09-.08,8.85-9.62,4.09-22.5C1040,716.75,1038.52,712.83,1035.64,714.11Zm.71,23.29c.29-4.11-1.34-9.36-1.43-9.66-1.47-3.61-1.9-6.69-1.26-9.13a5.88,5.88,0,0,1,2.17-3.42h0c2.28-1,3.47,2.1,3.52,2.23A20.8,20.8,0,0,1,1036.35,737.4Z" style="fill: #00247d"/>
    <path d="M1037.75,719.26c-.32.43.15,1.27.15,1.27,2.33,4,.47,9.6.47,9.6-.32.83,0,1,0,1,.41.24.65-.72.65-.72,2.07-6.83-.53-10.7-.53-10.7C1038,718.79,1037.75,719.26,1037.75,719.26Z" style="fill: #fff"/>
    <path d="M1008.9,738.53c3.19-9.51-1.7-10.87-1.7-10.87-4.06-.5-5,5.89-5,5.9-1.76,14.64,7.83,17.35,7.83,17.33C1007,745.28,1008.9,738.53,1008.9,738.53Z" style="fill: #64b4d1"/>
    <path d="M1010,730.19a4.47,4.47,0,0,0-2.75-3.11c-4.35-.51-5.43,6.32-5.44,6.41-1.81,15,8,18,8.12,18l.41-.93c-2.83-5.29-1.09-11.74-1.08-11.77C1010.44,735.22,1010.69,732.34,1010,730.19Zm-.92,19.72c-2.38-1.13-7.85-5.07-6.5-16.26,0-.23.8-5.17,3.86-5.44a2.93,2.93,0,0,1,.66,0,3.74,3.74,0,0,1,2.19,2.52c.58,1.83.33,4.38-.75,7.6A20,20,0,0,0,1009.08,749.91Z" style="fill: #00247d"/>
    <path d="M1006.37,732.93c-.41.34-.06,1-.06,1,1.15,1.71.15,5.21.15,5.21a9,9,0,0,0-.34,4.47.78.78,0,0,0,.4.62c.35-.12.3-.77.3-.77a10.3,10.3,0,0,1,.41-4.54,8.85,8.85,0,0,0-.15-5.48C1006.79,732.64,1006.37,732.93,1006.37,732.93Z" style="fill: #fff"/>
    <path d="M1022.92,718.7s-1.85-7.4-7-6.15a37.85,37.85,0,0,0,5,6.27,6,6,0,0,0-3.93,4s5.42-5,9.89-.39A4.93,4.93,0,0,0,1022.92,718.7Z"/>
    <path d="M1026.09,704.13a7.82,7.82,0,0,0-5.17-2.69,40.49,40.49,0,0,1,5.17,6,21.65,21.65,0,0,1,3.46-4.8A4.28,4.28,0,0,0,1026.09,704.13Z"/>
    <path d="M1000,713.12a6.74,6.74,0,0,1-.31,2.94,8.5,8.5,0,0,0-.62,4.73l1-.5a6.37,6.37,0,0,1,.49-3.48,8.88,8.88,0,0,0,.46-4Z"/>
    <path d="M1039,591.89c0,.5,0,1,.07,1.51a10.2,10.2,0,0,0,7.15-8.75l-1-.15A9,9,0,0,1,1039,591.89Z"/>
    <path d="M1048.69,584.26c0,.52-.08,1-.13,1.54l.39,0c2-.33,3.39-3.45,3.39-3.48,1.61-2.65,3.35-2.9,3.41-2.91,0-.51,0-1,0-1.53-.09,0-2.25.29-4.26,3.61C1051.52,581.49,1050.3,584.27,1048.69,584.26Z"/>
    <path d="M1036.62,573c2.9-2.15,1.33-5.86,1.33-5.85-1-2.63-2.75-.65-2.75-.65a7.37,7.37,0,0,1-4.63,2.7,3.77,3.77,0,0,0,4.48-.49c1.17-1.32,1.49-.44,1.49-.44,1.1,1-1.89,4.55-1.89,4.55-2.74,5.23,4.09,7.87,4.09,7.85C1033,576.17,1036.62,573,1036.62,573Z"/>
    <path d="M1041.49,445c-1.84-2-6.61-.42-6.06,7.53s-.8,10.82-.8,10.82a22.38,22.38,0,0,0,7-10.87C1043.39,447.14,1041.49,445,1041.49,445Z" style="fill: #64b4d1"/>
    <path d="M1041.74,444.55a3.11,3.11,0,0,0-4.47.11c-1,.89-2.57,3.1-2.24,8,.53,7.57-.71,10.39-.72,10.42.16.26.33.52.49.79A23.07,23.07,0,0,0,1042,452.7C1043.85,447,1041.83,444.65,1041.74,444.55Zm-.45,7.74a22,22,0,0,1-5.86,9.71,34.84,34.84,0,0,0,.38-9.56c-.21-3.14.43-5.56,1.82-6.81a3.08,3.08,0,0,1,1.61-.81,2.26,2.26,0,0,1,2,.67C1041.3,445.57,1042.87,447.46,1041.29,452.29Z" style="fill: #00247d"/>
    <path d="M1037.59,447.4c-.24.07-.23.68-.23.68.85,6-.94,9-.94,9a.9.9,0,0,0,0,.93c.25.49.62-.09.62-.09,2-3.82,1.06-10.19,1.06-10.19C1038,447.18,1037.59,447.4,1037.59,447.4Z" style="fill: #fff"/>
    <path d="M1030.79,441.69c-2.34.27-5.49,5.74-1.66,10.75s4,8.22,4,8.22a29,29,0,0,0,1-13.94C1033.23,441.43,1030.8,441.7,1030.79,441.69Z" style="fill: #64b4d1"/>
    <path d="M1030.8,441.12h0c-1.41.18-2.92,1.95-3.52,4.13a8.58,8.58,0,0,0,1.61,7.63c3.64,4.75,3.86,7.83,3.86,7.87h0l.73.09a30,30,0,0,0,1-14.31C1033.55,440.88,1030.91,441.11,1030.8,441.12Zm2.36,17.81a21.32,21.32,0,0,0-3.76-6.93,7.28,7.28,0,0,1-1.44-6.39c.49-1.77,1.69-3.19,2.8-3.34h0c.08,0,2.14-.13,2.93,4.63A27.83,27.83,0,0,1,1033.16,458.93Z" style="fill: #00247d"/>
    <path d="M1029.58,445.12c-.34-.37-.6.2-.6.2-.16.27.12.72.13.72a11.94,11.94,0,0,1,3.4,7.66c0,.7.42.69.42.69.43.13.47-.64.47-.64C1033.31,449,1029.58,445.12,1029.58,445.12Z" style="fill: #fff"/>
    <path d="M1020.7,444.9c-2,1.51-3.27,7.7,1.46,9.61s5.74,4.39,5.74,4.4c-.1-6.42-1.64-9.61-2.92-11.8C1022.77,443.34,1020.7,444.9,1020.7,444.9Z" style="fill: #64b4d1"/>
    <path d="M1020.54,444.39c-1.23.94-2.08,3.18-2,5.34a5.61,5.61,0,0,0,3.51,5.34c4.48,1.8,5.52,4.14,5.53,4.16l.73-.38c-.1-6.35-1.57-9.69-3-12.13C1022.91,442.67,1020.64,444.32,1020.54,444.39Zm1.75,9.57a4.6,4.6,0,0,1-3-4.37,5.56,5.56,0,0,1,1.55-4.18,1.63,1.63,0,0,1,.71-.25c.71-.08,1.87.22,3.11,2.35a20.06,20.06,0,0,1,2.78,9.87A13,13,0,0,0,1022.29,454Z" style="fill: #00247d"/>
    <path d="M1020.59,448.63c-.42-.12-.5.54-.5.54-.07.34.32.56.32.56a7.46,7.46,0,0,1,5.41,4.59c.25.58.61.34.6.33.45-.14.27-.85.26-.85C1025.23,449.72,1020.59,448.64,1020.59,448.63Z" style="fill: #fff"/>
    <path d="M1023.59,459.41c-5.07-3-7.29,3.47-6.4,6.7,0,0,.93,3.35,4.85,2.29,2.26-.61,5.3-1.84,8.82-7.23C1030.86,461.16,1028.66,462.38,1023.59,459.41Z" style="fill: #64b4d1"/>
    <path d="M1023.76,458.88c-3.15-1.85-5-.12-5.82,1.08a8.4,8.4,0,0,0-1.12,6.4,3.91,3.91,0,0,0,4.32,2.79,5.94,5.94,0,0,0,.94-.18c2.53-.69,5.58-2.11,9.06-7.42-.13-.31-.25-.62-.38-.92C1030.74,460.63,1028.58,461.7,1023.76,458.88Zm-1.76,9c-3.55,1-4.41-1.86-4.45-2a6.83,6.83,0,0,1,.93-5.12,3.16,3.16,0,0,1,2.27-1.49,4.31,4.31,0,0,1,2.67.7c3.11,1.82,5.18,2.1,6.36,2C1026.83,466,1024.3,467.21,1022,467.84Z" style="fill: #00247d"/>
    <path d="M1025.55,463.92c-4.17,2.86-6.47,1-6.47,1a.46.46,0,0,0-.66.24.67.67,0,0,0,.11.88c2.85,2,7.29-1.16,7.29-1.17.41-.26.22-.84.22-.84C1026,463.75,1025.55,463.92,1025.55,463.92Z" style="fill: #fff"/>
    <path d="M1023.68,438c-.16.47-.31.95-.46,1.43.09.05,2.16,1.35,1.66,5.09l1,.17C1026.43,440.73,1024.68,438.58,1023.68,438Z"/>
    <path d="M1034.13,438.17c.26,1.14.75,4.53,0,6.4l.88.71c1.21-2.9.21-7.52.16-7.71Z"/>
    <path d="M859.19,453.74c.55-8-4.23-9.4-6.06-7.3,0,0-1.9,2.19-.16,7.48a21.34,21.34,0,0,0,7,10.61S858.64,461.71,859.19,453.74Z" style="fill: #64b4d1"/>
    <path d="M859.58,453.83c.34-4.91-1.26-7.07-2.24-7.92a3.11,3.11,0,0,0-4.47.07c-.09.1-2.11,2.52-.25,8.16A22,22,0,0,0,859.81,465l.49-.8S859.06,461.42,859.58,453.83Zm-6.26-.13c-1.57-4.77,0-6.72.06-6.79a2.32,2.32,0,0,1,2-.76,3,3,0,0,1,1.6.74c1.39,1.21,2,3.6,1.82,6.75a34.67,34.67,0,0,0,.38,9.55A21.1,21.1,0,0,1,853.32,453.7Z" style="fill: #00247d"/>
    <path d="M857.25,449.33s0-.6-.23-.66c0,0-.43-.21-.51.38,0,0-1,6.41,1.06,10.16,0,0,.37.56.62.06a.9.9,0,0,0,0-.92S856.4,455.35,857.25,449.33Z" style="fill: #fff"/>
    <path d="M863.82,442.72s-2.43-.19-3.31,5.14a29.07,29.07,0,0,0,1,13.9s.14-3.22,4-8.34S866.17,442.91,863.82,442.72Z" style="fill: #64b4d1"/>
    <path d="M863.85,442.15h0c-.11,0-2.75-.15-3.68,5.53a30,30,0,0,0,1,14.28l.75-.11s.22-3.13,3.86-8a8.7,8.7,0,0,0,1.61-7.68C866.77,444,865.26,442.29,863.85,442.15ZM865.21,453a22.47,22.47,0,0,0-3.76,7,27.68,27.68,0,0,1-.56-12c.79-4.79,2.85-4.74,2.93-4.73h0c.95.09,2.24,1.25,2.8,3.24A7.39,7.39,0,0,1,865.21,453Z" style="fill: #00247d"/>
    <path d="M865,446.11s-3.74,4-3.83,8.75c0,0,0,.78.47.63,0,0,.38,0,.43-.71a12.24,12.24,0,0,1,3.4-7.77s.28-.45.12-.72C865.63,446.29,865.37,445.72,865,446.11Z" style="fill: #fff"/>
    <path d="M873.91,445.63s-2.06-1.51-4.28,2.33c-1.28,2.23-2.81,5.46-2.91,11.88,0,0,1-2.53,5.73-4.55S875.91,447.1,873.91,445.63Z" style="fill: #64b4d1"/>
    <path d="M874.07,445.12c-.1-.06-2.37-1.66-4.74,2.46-1.43,2.48-2.91,5.87-3,12.21l.74.37s1-2.4,5.52-4.32a5.76,5.76,0,0,0,3.51-5.43C876.15,448.25,875.3,446,874.07,445.12Zm-1.75,9.62a13.41,13.41,0,0,0-5.16,3.56,20.79,20.79,0,0,1,2.78-9.95c1.25-2.17,2.41-2.5,3.12-2.43a1.51,1.51,0,0,1,.69.22,5.4,5.4,0,0,1,1.56,4.15A4.75,4.75,0,0,1,872.32,454.74Z" style="fill: #00247d"/>
    <path d="M874,449.36s-4.64,1.22-6.09,5.34c0,0-.19.71.26.85,0,0,.36.23.6-.36a7.77,7.77,0,0,1,5.41-4.74s.39-.22.32-.56C874.52,449.89,874.44,449.23,874,449.36Z" style="fill: #fff"/>
    <path d="M871,460.23c-5.07,3.1-7.28,2-7.28,2,3.52,5.27,6.56,6.42,8.82,7,3.93,1,4.86-2.41,4.86-2.41C878.31,463.51,876.09,457.12,871,460.23Z" style="fill: #64b4d1"/>
    <path d="M870.85,459.69c-4.82,3-7,2-7,2l-.37.93c3.47,5.2,6.53,6.54,9,7.16a7.25,7.25,0,0,0,1,.16,4,4,0,0,0,4.31-2.9,8.32,8.32,0,0,0-1.12-6.38C875.85,459.44,874,457.77,870.85,459.69Zm6.21,6.82c0,.12-.88,3-4.44,2.1-2.31-.57-4.84-1.67-7.79-5.64,1.18,0,3.26-.31,6.37-2.21,2-1.25,3.77-1,4.94.66A6.73,6.73,0,0,1,877.06,466.51Z" style="fill: #00247d"/>
    <path d="M875.54,465.65s-2.3,1.88-6.47-.87c0,0-.43-.16-.5.17,0,0-.19.58.23.84,0,0,4.43,3,7.28,1a.68.68,0,0,0,.11-.88A.45.45,0,0,0,875.54,465.65Z" style="fill: #fff"/>
    <path d="M868.71,445.56l1-.21c-.51-3.72,1.57-5.08,1.66-5.13-.16-.48-.31-1-.46-1.42C869.94,439.42,868.18,441.62,868.71,445.56Z"/>
    <path d="M860.48,439.31l-1-.56c0,.19-1.05,4.84.16,7.7.3-.24.59-.49.88-.74C859.74,443.86,860.22,440.46,860.48,439.31Z"/>
    <path d="M972.35,421.83c-1.34-1-2.19-2.39-1.57-7.83a42.12,42.12,0,0,0-.91-12.72c.35,5.8-.37,12.45-.65,16.25-.26,3.64,1.23,5.89,2.86,6.56,2.29,1,4.15-2.24,4.15-2.24-.15,8.77-5.1,9-5.09,9-7.16.93-5.86-13.25-5.86-13.24.64-7.88-1.89-11.76-1.89-11.76a38.86,38.86,0,0,1,.65,13.2c-.65,4.83-.06,10,1.27,11.85,3.76,5.24,8.21,1.08,8.21,1.08,6.18-6.37,3-15.3,3-15.3C976.2,421,973.51,422.72,972.35,421.83Z"/>
    <path d="M954.39,438.67s1-2-.59-7.56a19.71,19.71,0,0,1-1.41-8.25s-2.23,2.55.31,9.24c1.53,4,.2,8.9-.27,9.08s11.53-2.48,9.34-16.5C961.77,424.67,961.37,435.87,954.39,438.67Z"/>
    <path d="M949.36,395.82a51.81,51.81,0,0,1,.63,9,23.74,23.74,0,0,0,.47,7s-3.81.88-6.2-7.22c-2.29-7.74-4.59-7.14-5.73-7.09,0,0,1.33.23,4,7.31s3.42,8.53,10.17,9c0,0-1.69-2.76-1.81-9.18S950,396.57,949.36,395.82Z"/>
    <path d="M935.66,405.75c-3.17-1.63-4.12-8.29-4.12-8.28-6.35,2.63-6.08,10-6.08,10a24.06,24.06,0,0,1-5.06-4.32,16.48,16.48,0,0,0,6.83,8.24c-2-9.24,3.45-11.82,3.45-11.82a13.6,13.6,0,0,0,6.48,9.07c-.08-4.05-2.28-11.77-2.28-11.77C935.43,401.58,935.66,405.75,935.66,405.75Z"/>
    <path d="M948.66,387.73c-3.61-.16-5.38-3.93-5.38-3.93,0,6.88,5.38,6.6,5.38,6.59,5.14-.08,5.37-6.63,5.37-6.62C952.24,387.23,950.38,387.81,948.66,387.73Z"/>
    <path d="M927.77,432.16c-1.61,3.43-3.5.69-3.5.69A55.42,55.42,0,0,0,921,428a42.28,42.28,0,0,0,2.55,6.23c1.34,2.09,2.23,1.78,2.93,1.7,1.5-.18,2-2.11,2-2.11,2-5.21,3.82-7,3.82-7C929.84,426.65,927.77,432.16,927.77,432.16Z"/>
    <path d="M959.06,363.58s2.81,7-.79,9.81-8.89-.08-8.77-9.71c0,0,4.53-6.09-.84-6.06s-.85,6.07-.85,6.07c.12,9.62-5.17,12.59-8.77,9.76s-.78-9.81-.78-9.81a8.41,8.41,0,0,0-1.48,9.52c2.59,5.68,9.38,3.2,11.88-2,2.49,5.21,9.28,7.65,11.87,1.95A8.38,8.38,0,0,0,959.06,363.58Z"/>
    <path d="M953.39,359s1.7-7.12-1.48-11.77A29.51,29.51,0,0,1,953.39,359Z"/>
    <path d="M931.6,352.53a22,22,0,0,1,3.83,5.61S935,353,931.6,352.53Z"/>
    <path d="M961.92,358.06a22.49,22.49,0,0,1,3.83-5.64C962.34,352.94,961.92,358.06,961.92,358.06Z"/>
    <path d="M934.37,364.2s-3.12,1.16-4.36,1.65A3.34,3.34,0,0,0,934.37,364.2Z"/>
    <path d="M921.24,334.22a10.87,10.87,0,0,1,4,6.1,7.46,7.46,0,0,0-1.54,4.2c.77-1.45,3.89-3.79,3.89-3.79C924.39,333.8,921.24,334.22,921.24,334.22Z"/>
    <path d="M974,334.11s-3.15-.4-6.3,6.55c0,0,3.12,2.33,3.89,3.77a7.49,7.49,0,0,0-1.53-4.2A10.89,10.89,0,0,1,974,334.11Z"/>
    <path d="M956,338c-3.54,2.91-6.36,1.79-6.36,1.79,1.76,3.72,6.41-.05,6.41-.06,4.65-3.36,7.07-1.86,7.07-1.86C960.39,334.52,956,338,956,338Z"/>
    <path d="M952.62,343.9c7.77,3.56,9.77-5.12,9.77-5.11A8.83,8.83,0,0,0,952.62,343.9Z" style="fill: #fff"/>
    <path d="M957.7,339.22c-.81,0-1.46,1.23-1.46,2.72s.65,2.68,1.46,2.67,1.45-1.23,1.45-2.72S958.5,339.21,957.7,339.22Z" style="fill: #784421"/>
    <path d="M957.7,340.26c-.48,0-.87.76-.87,1.67s.39,1.65.87,1.64.86-.75.86-1.67S958.17,340.26,957.7,340.26Z"/>
    <path d="M946.32,326.49s.3-2.33,3.36-6.68a9.4,9.4,0,0,0-4.95,6.94,20.8,20.8,0,0,0,2.36,5.56s-.77.52-2.77-1.31c0,0-4.36-2.18-7.48-.32,0,0,4.65.49,7.48,3.09,0,0,3,2.62,6.42-1.13a29.89,29.89,0,0,0,6.09-7.52s-5.68,5.79-7.8,6.66A13.58,13.58,0,0,1,946.32,326.49Z"/>
    <path d="M948.66,371.53c-4,5.08,0,4.56,0,4.56S952.68,376.59,948.66,371.53Z"/>
    <path d="M940,338s-4.36-3.43-7.13-.1c0,0,2.42-1.52,7.07,1.83,0,0,4.65,3.75,6.42,0C946.33,339.76,943.5,340.89,940,338Z"/>
    <path d="M933.61,338.85s2,8.66,9.77,5.06A8.78,8.78,0,0,0,933.61,338.85Z" style="fill: #fff"/>
    <path d="M938.31,339.26c-.81,0-1.46,1.19-1.46,2.68s.65,2.7,1.46,2.71,1.45-1.19,1.45-2.68S939.11,339.27,938.31,339.26Z" style="fill: #784421"/>
    <path d="M938.31,340.31c-.48,0-.87.73-.87,1.64s.39,1.66.87,1.66.86-.73.86-1.64S938.79,340.31,938.31,340.31Z"/>
    <path d="M804.63,666.1c0,43.16,24.9,85.69,72,118.35C912,809,947.79,817.59,948.15,817.59l.2,0,.2,0c.36-.07,36.17-8.57,71.51-34,47.11-33.95,72-79.43,72-122.49V269.63c-95.81,23.64-191.62,19.57-287.44,5Zm2.52-387.37c94.14,14.1,188.27,17.94,282.4-4.81V661.68c0,49.85-33.77,91.75-68.31,116.76a222.8,222.8,0,0,1-72.89,35.47c-3.05-.55-38.35-10-72.89-34.51-34.53-24.09-68.31-63.33-68.31-112.92Z"/>
  </g>
</svg>
