<svg xmlns="http://www.w3.org/2000/svg" viewBox="0 0 1260 1012.04">
  <g>
    <path d="M0,90.08v920C420,738.76,840,1193.28,1260,922V2C840,273.28,420-181.24,0,90.08Z" style="fill: #f7e017"/>
    <path d="M0,562.85c420-207.42,840,311,1260,103.56V449.19C840,592.73,420,10.43,0,154Z" style="fill: #fff"/>
    <path d="M0,562.85c420-143.53,840,438.77,1260,295.23V666.41C840,810,420,227.65,0,371.19Z"/>
    <path d="M768.55,754.55c-4-1.66-4.84-2.15-4.84-2.88a32.73,32.73,0,0,1,2-5.19c3-6.73,2.64-12.15-1.22-18.19-4.38-6.86-12.51-10.08-19.11-7.58-4.88,1.84-5.3,1.22-2.84-4.18a21.41,21.41,0,0,0,2.31-9.65c.28-6.35-.6-10.52-3.2-15.23-2.85-5.14-5.64-7.56-9.62-8.31-4.58-.87-7.27.63-12.85,7.19-20.15,23.68-45.95,37-71.56,37.06-8.48,0-22.94-2.51-30.12-5.25C589,711.47,564.61,689,542.17,653.26c-7.52-12-10.69-15.08-15.78-15.54-6.24-.55-11.33,5.95-11.78,15-.36,7.14.21,10.23,3,16.83,2.46,5.69,3,7.62,2.11,7.45a28.08,28.08,0,0,1-3.54-2.4c-6.78-5.06-14.45-5.6-19-1.35s-5.47,10.26-2.94,17.2a25.51,25.51,0,0,1,1.42,4.92c0,.57-1.55,1.59-3.44,2.26a14.06,14.06,0,0,0-8.26,7.84c-1,2.63-1.12,11.36-.17,11.52a5.46,5.46,0,0,0,2.41-1.18,28.34,28.34,0,0,1,6.28-2.71c5.33-1.67,12.7-.67,18.26,2.49,6.74,3.82,14.72,11.75,21.62,21.48,6.67,9.39,14.89,15.18,20.28,14.24,5.64-1,7.88-4.61,7.88-12.75,0-2.87.25-5.15.57-5.08a32.8,32.8,0,0,1,4.36,4.72c10.79,13,26.32,24.22,43.26,31.18h0c22.41,9.2,51.68,10.56,72,3.14a50.2,50.2,0,0,0,16.16-9.16,29.09,29.09,0,0,1,4.37-3.14c.18,0,.22,2.75.06,6-.23,5-.09,6.43.88,8.88a13.48,13.48,0,0,0,10.3,8.53c5.43,1.16,8.94-.42,14.51-6.57,5.06-5.58,11.26-9.72,17.06-11.39,3.79-1.09,5.67-1.1,11.1-.15,7.14,1.25,10.61,2.81,16.72,7.56a37.45,37.45,0,0,0,4.41,3.13c.27,0,.49-2,.49-4.65C776.79,762.89,773.79,756.7,768.55,754.55Z" style="fill: #cf1126"/>
    <path d="M724.51,448.94a235.3,235.3,0,0,1,9.8,92.54C730.9,597.7,703,643.09,666.26,654c-16.63,4.31-34.65,8.13-52.06-3-44-19-80.81-80.17-88.67-145.21-5.06-32.82-1.86-65.91,7.64-93.43-11.92,14.27-18.89,36.32-22.35,59-6.51,50.08.21,107.31,21.53,154,19.64,44.55,51.94,77,85.7,89.14h0c17.69,5.21,35.66,6.69,52.55,2.25,37.23-9.1,65.39-50.75,76.57-102.46,8.25-40.74,7.61-88.3-6.4-130.57C736.75,471.9,729.92,454.2,724.51,448.94Z" style="fill: #cf1126"/>
    <path d="M490.51,619.57c-2.68.38-5.2,1.72-7.86,2.28a35.15,35.15,0,0,1-17.77-.36,45.28,45.28,0,0,1-12.61-7.23c-1.39-1.11-2.71-2.62-4.25-3.13h0c-2.21-.83-4.65,2-3.82,5.45,1.6,3.59,4.34,5.64,6.82,7.61a40,40,0,0,0,18,7.41l.78.12-.78-.12c.2,0,1.79.31,2.36.38a29.57,29.57,0,0,0,14.82-1.32c2.64-.9,6-1.53,7.09-5.61C494.36,622.46,492.44,619.35,490.51,619.57Z" style="fill: #cf1126"/>
    <path d="M469,631.6l.78.12Z" style="fill: #cf1126"/>
    <path d="M468.82,618.3c.2,0,.39.07.59.09Z" style="fill: #cf1126"/>
    <path d="M488.06,605.87c-1.69-.42-3.14.9-4.71,1.34a26.57,26.57,0,0,1-18,1.12c-3.81-1.32-7.46-3.94-10.91-6.84-1.3-1.11-2.47-2.72-3.93-3.26h0c-2.24-.82-4.17,2.66-3.23,5.8,1.72,3.89,4.6,6.25,7.31,8.36a31.25,31.25,0,0,0,14.26,5.91l.59.09c-.2,0-.39-.06-.59-.09.36.07,1.52.26,2,.32a22.3,22.3,0,0,0,12.53-1.53c2.43-1,5.4-1.78,6.41-5.5C490.51,609.58,489.91,606.36,488.06,605.87Z" style="fill: #cf1126"/>
    <path d="M486.25,593.2c-1.37-1.36-2.73.13-4,.61a20.28,20.28,0,0,1-13.57,2.56c-4.07-.45-7.9-3.55-11.43-6.79-1.28-1.15-2.34-3-3.78-3.61h0c-1.92-.63-3.24,2.34-2.92,4.91.29,2.25,1.65,3.94,2.78,5.47a24.91,24.91,0,0,0,16.29,9.37c-2.22-.37,3,.54,1.4.22a16.57,16.57,0,0,0,10.47-1.87c2.18-1,4.73-2.17,5.47-5.67C487.34,596.77,487.56,594.37,486.25,593.2Z" style="fill: #cf1126"/>
    <polygon points="421.34 393.89 421.34 393.89 421.34 393.89 421.34 393.89 421.34 393.89" style="fill: #cf1126"/>
    <path d="M469.94,460.76a242.54,242.54,0,0,1-12.42-22.53c-2.29-6-11.26-9.37-8,.94,1.91,8.77,6.76,15.84,8,25,.26,4.94,4.26,14.56.85,16.89-2.18-5.73-5.33-10.8-9.35-14.13-3.88-4.8-10.29-7.45-11.69-15.1a75.56,75.56,0,0,0-9.53-29.36c1.24-9.34,0-21.39-5.62-28.17l-.8-.37c-2.85,3.82-.68,11.76-.83,17.2,1.48,17,3.31,34.25,7.61,50.63,5.26,16.13,16.44,25.94,23.22,40.63,2.42,6.94,1.56,14.74,2.07,22,.4,19.7.28,39.33,0,58.93,6.07,5.36,12.66,10.87,19.65,10.31,4.14-.77,11.82-.36,12.68-6.22-.33-33.92-.55-67.83-.86-101.74C482.57,474.86,475.34,468.27,469.94,460.76Z" style="fill: #cf1126"/>
    <path d="M454.58,462.76c-2.39-4.12-5.38-7.92-8.86-9.57-.3-5.3-2-10.37-3.59-15.24-1.76-4.7-3.59-9.72-6.6-13,.12-7.77,0-16-2.26-23.46-.68-1.94-1.67-4.27-3.26-4.58h0c-2.59.27-2.5,5.11-1.3,7.8a51.23,51.23,0,0,1,.93,17.25,77.69,77.69,0,0,1,9.25,28.9c0,3.89,2.83,5.57,4.65,7.75,4.26,4.57,9,8.15,12.85,13.69.8,1.37,1.4,2.81.83.18C456.63,469.12,456.33,465.48,454.58,462.76Z" style="fill: #cf1126"/>
    <path d="M447.33,436.89a26.88,26.88,0,0,1-3.45-15.77,35.64,35.64,0,0,0-4-17.58c-.71-1.11-1.55-2.35-2.59-2.57h0c-1.8.54-1.46,3.84-.89,5.91a102.83,102.83,0,0,1,.94,17c3.31,4.29,5.39,10.15,7.28,15.83a63.69,63.69,0,0,1,2.76,11.72c2.69,1.7,5,4.51,7.15,7.55-.84-3.81-2.69-6.94-3.94-10.48A56.68,56.68,0,0,1,447.33,436.89Z" style="fill: #cf1126"/>
    <path d="M448.81,410.4a17.14,17.14,0,0,0-2.44-6,1.15,1.15,0,0,0-.86-.54h0c-1,.11-1.58,1.39-2.11,2.43-.2,1.09.73,2.42.88,3.65a41.37,41.37,0,0,1,1.24,13.5,24.72,24.72,0,0,0,1.82,9.29c.33-2,1.59-3.2,3-3.19.5-.06,1.23.42.94-.74A102.51,102.51,0,0,0,448.81,410.4Z" style="fill: #cf1126"/>
    <path d="M790.19,695.63l.78.13Z" style="fill: #cf1126"/>
    <path d="M812,681.77h0c-1.54.05-2.86,1.17-4.25,1.86A31.5,31.5,0,0,1,795.12,687a38.57,38.57,0,0,1-17.77-5.5c-2.66-1.47-5.18-3.69-7.86-5-1.93-.89-3.85,1.54-2.79,4.51,1.08,4.45,4.45,6.28,7.09,8.09a35.9,35.9,0,0,0,14.82,6.3c.57.12,2.16.37,2.36.39l-.78-.13.78.13a30.91,30.91,0,0,0,18-1.82c2.48-1.24,5.22-2.48,6.82-5.62C816.63,685.11,814.19,681.58,812,681.77Z" style="fill: #cf1126"/>
    <path d="M790.59,682.43l.59.1Z" style="fill: #cf1126"/>
    <path d="M809.52,668.14h0c-1.46.11-2.63,1.37-3.93,2.09-3.45,1.86-7.1,3.35-10.91,3.46-6.12-.2-12.36-2.69-18-7.09-1.57-1-3-2.79-4.71-3-1.85-.15-2.45,2.86-1.66,5.14,1,4.08,4,5.93,6.41,7.73a28,28,0,0,0,12.53,5.71c.44.09,1.6.27,2,.32l-.59-.1.59.1a24.4,24.4,0,0,0,14.26-1.44c2.71-1.3,5.59-2.81,7.31-6.2C813.69,672,811.76,668,809.52,668.14Z" style="fill: #cf1126"/>
    <path d="M806.5,655h0c-1.44.21-2.5,1.71-3.78,2.47-3.53,2.15-7.36,4-11.43,3.19-4.71-.73-9.38-3.24-13.57-7.07-1.24-.91-2.6-2.86-4-2-1.31.72-1.09,3.19-.74,4.94.74,3.76,3.29,5.81,5.47,7.56A21.71,21.71,0,0,0,789,669.44c-1.59-.19,3.62.59,1.4.24a18,18,0,0,0,16.29-4.28c1.13-1.18,2.49-2.47,2.78-4.64C809.74,658.28,808.42,654.93,806.5,655Z" style="fill: #cf1126"/>
    <polygon points="838.66 471.72 838.66 471.72 838.66 471.72 838.66 471.72 838.66 471.72" style="fill: #cf1126"/>
    <path d="M838.66,471.72l-.8.17c-5.63,5.37-6.86,17.09-5.62,26.75a59.61,59.61,0,0,0-9.53,26.83c-1.4,7.27-7.81,8.13-11.69,11.77-4,2.15-7.17,6.26-9.35,11.32-3.41-3.38.59-11.77.85-16.62,1.22-8.75,6.07-14.35,8-22.58,3.24-9.34-5.73-8.62-8-3.34a154,154,0,0,1-12.42,18.61c-5.4,5.76-12.63,9.9-15,19.87-.31,33.8-.53,67.64-.86,101.44.86,6.17,8.54,8.38,12.68,10.5,7,2.86,13.58-.58,19.65-4.12-.24-19.67-.36-39.34,0-58.91.51-7.13-.35-15.18,2.07-21.41,6.78-12.64,18-19.37,23.22-34.16,4.3-15.28,6.13-32.08,7.61-48.71C839.34,483.65,841.51,476.24,838.66,471.72Z" style="fill: #cf1126"/>
    <path d="M830,472.52h0c-1.59-.09-2.58,2-3.26,3.72-2.29,6.89-2.38,15.05-2.26,22.86-3,2.47-4.84,7-6.6,11.17-1.58,4.43-3.29,9-3.59,14.23-3.48.64-6.47,3.55-8.86,6.94-1.75,2.2-2,5.74-2.64,8.91-.57,2.46,0,1.2.83.08,3.8-4.38,8.59-6.54,12.85-9.9,1.82-1.66,4.62-2.56,4.65-6.45a61.22,61.22,0,0,1,9.25-26.4,49.12,49.12,0,0,1,.93-17C832.49,478.28,832.58,473.47,830,472.52Z" style="fill: #cf1126"/>
    <path d="M822.74,474.65h0c-1-.06-1.88.94-2.59,1.86-2.8,4.21-4.14,10.32-4,16.44a22.39,22.39,0,0,1-3.45,14.77,44.74,44.74,0,0,1-3.23,10.64c-1.25,3.17-3.1,5.74-3.94,9.3,2.11-2.4,4.46-4.52,7.15-5.43a52.39,52.39,0,0,1,2.76-10.93c1.89-5.14,4-10.4,7.29-13.78a97.35,97.35,0,0,1,.93-16.72C824.2,478.89,824.54,475.68,822.74,474.65Z" style="fill: #cf1126"/>
    <path d="M814.48,475.22h0a.86.86,0,0,0-.85.29c-1.23,1.24-1.87,3.31-2.44,5.29a91.22,91.22,0,0,0-2.45,17.68c-.29,1.07.44.81.94,1a4.94,4.94,0,0,1,3,4.06,20.94,20.94,0,0,0,1.82-8.76,38.25,38.25,0,0,1,1.24-13.15c.15-1.19,1.08-2.25.88-3.4C816.06,477.06,815.47,475.61,814.48,475.22Z" style="fill: #cf1126"/>
    <path d="M656.39,631.7c-2.68,1.7-5.95,1.18-8.5,3.23-2.92,2.91-5.8,6.08-9.32,7.57-2.85,1.33-2.15-4.31-1.08-6,1.09-5-1.16-10.57-3-15.16-1.35-2.12-2.61-7.83-4.49-7.32a54.28,54.28,0,0,0-6.77,12.87c-1,2.77-.2,6.25.95,9.1.91,5.19-4,1-5.36-.82-3-3-4.89-7.89-8-10.52-2.47-.75-4.79-2.69-6.93-4.89-1.15-.55-3.56-5.49-3.76-2.7,3.64,17.25,14.29,32.12,26.1,36.34h0a31.92,31.92,0,0,0,11.56,1.72c6.43-.1,12.18-4.18,16.43-10.35a51.58,51.58,0,0,0,6.55-14.19C660.21,628.45,657.63,631.51,656.39,631.7Z" style="fill: #cf1126"/>
    <path d="M641.05,563.83a21.57,21.57,0,0,1,5.4-12.4c1.92-2-.56-3.62-2-2.72-3.59.27-5.59,4.65-8.39,6.91-2.34-.66-.82-6.25-2.26-9-.7-2.87-2.83-9.16-4.88-5.52-2.08,2.27-2.28,6.4-3.28,9.67-2.54,1.11-4-5.91-6.81-6.79-1.62-2.19-6.72-2.54-3.62,1.68,3.25,4.65,4.06,11.3,3.87,17.13.28,7.85-2.47,14.18-4.16,20.95a84.65,84.65,0,0,0-3.17,25.61c-.27,5.52,1.37,11.15,3.52,16.08,1.14,2.16,3.76,8.53,5.16,5.64.16-6.84,3.29-11.75,5.79-16.67,1.61-1.59,2.95-8,5.36-5.44a130.48,130.48,0,0,1,7,16.82,25.86,25.86,0,0,1,1.49,10.46h0c.14.88.81,1.06,1.24.77a20.74,20.74,0,0,0,7-13c2-12.92-1-27.13-4.93-40C641.4,577.57,640.24,570.44,641.05,563.83Z" style="fill: #cf1126"/>
    <path d="M646.12,470.55c-2.1-2-4.86-2.37-6.81-.85-2,1.09-3,4.23-5.13,4.91-2.22-2.21-.45-7.31-2.16-10.46-1.15-4.6-3.92-1.2-4,1.84-.72,2-.09,6.74-1.64,7.09-2.2-3.16-3.95-7.35-6.89-9.07-1.33-.67-4.84-2.5-5-.58,2.75,5.67,6.33,11,7.49,17.72.92,5.87,1.29,12.18-.22,17.38-2.37,8.31-5,16.78-4.8,26.53,0,6,.66,13.39,4.55,17.55,2.44,4.06,3.65-.18,4.64-2.66,1.42-1.71,2.7-5.26,4.78-4.8a35.69,35.69,0,0,1,5,10h0a18.88,18.88,0,0,0,1.44,3.61,10.19,10.19,0,0,0,6-7.7,73.26,73.26,0,0,0,.42-21.83c-.73-6.59-2.87-12.85-4.07-19.33-1.52-8.26-.27-16.81,3.27-22.43C643.81,475.22,646.86,473.53,646.12,470.55Z" style="fill: #cf1126"/>
    <path d="M739.34,411.38a34.05,34.05,0,0,0-4.67.45c-5.44.75-16-2-22-5.7s-16-13.14-20.92-19.69-10-11.88-14.68-15.25c-11-8-24.71-10.75-32.63-6.61-3.66,1.91-7.09,5.62-8,8.68-.43,1.41-1.12,2.23-1.77,2.09-1-.21-1.07-1-1.07-11-.67-1.45-3.85-1.7-3.85-1.7-.09,6.11-.39,11.39-.66,11.73s-2-2-4.11-5.51c-6.1-10.37-13-15.52-23.81-17.8-11.73-2.46-20.92.51-32.2,10.46-5.9,5.19-14.52,9.8-21,11.22-3.88.85-5.81.73-13.08-.74-5.2-1-9.51-2.31-11-3.26-1.36-.83-2.62-1.34-2.8-1.11-.76,1,3.12,11.35,5.86,15.68,4.19,6.6,7.11,9.11,12.27,10.6,5.66,1.62,8.67.89,19.42-4.61,8.36-4.27,13.1-5.53,16.18-4.34,2.4.92,2.27,2.65-.2,2.7-5.48.14-7.85.88-15.82,5-5.06,2.65-10.37,4.77-13,5.21a21.87,21.87,0,0,0-4.81,1.14c-.17.21.19,1.83.8,3.6,3.53,10.29,14.52,13.36,21.8,6.12,6.21-6.2,16.61-11.11,21.85-10.32,2.71.4,3.6,2.38,1.18,2.6-7.63.7-17.25,5.37-22.33,10.82a22.15,22.15,0,0,1-3.93,3.32c-1,.57-1.81,1.42-1.81,1.88,0,1.75,3.57,7.4,5.52,8.75,2.76,1.91,9,2.46,12.15,1.09a22.76,22.76,0,0,0,6-5c6.34-7.16,14.71-13.3,17.32-12.74,2,.44,1.27,1.82-1.82,3.44-3.82,2-11.51,8.44-14.09,11.81a21.55,21.55,0,0,1-3.84,3.9c-2.23,1.55-2.33,3.4-.41,7.15,3.76,7.32,12,7.76,20.59,1.14,1.5-1.16,6-6.25,10-11.33,5-6.36,7.46-8.92,7.86-8.24s-.34,2.43-2.4,5.61c-2.58,4-3,5.06-2.92,7.87.16,5.76,2.36,8,7,7.08,2.86-.58,3.23.79,1.21,4.44a12.2,12.2,0,0,0-1.76,7.06c0,5.95,1,9.16,3.91,12.94h0c1.44,1.88,2.66,3.42,2.69,3.44s.79-1.5,1.69-3.39c2.59-5.4,4.93-4.93,7.59,1.55.76,1.84,1.67,3.41,2,3.49s1.71-.94,3-2.26c4.14-4.27,4.64-11.69,1.26-18.57-2.27-4.61-1.72-5.73,1.73-3.61s5,1.61,6-1.65c1.12-3.68.55-6.52-2.4-12-2.39-4.43-3.12-7-1.88-6.76.33.07,3.56,5.26,7.18,11.52,9.27,16.06,15.16,22.66,22.72,25.44,3.79,1.4,6.72.54,8.48-2.46s1.8-4.73.22-6.29a58.55,58.55,0,0,1-4.44-6.25,105.89,105.89,0,0,0-13.85-17.06c-3.78-3.74-4.74-5.68-2.59-5.21,2.62.56,10.82,10,19.52,22.5,4.12,5.91,8.1,8.74,12.68,9a8.19,8.19,0,0,0,8.09-5.11c.78-2,.76-2.24-.23-3.28-.58-.64-2.9-3.52-5.12-6.42-7.21-9.39-14.25-15.78-20.25-18.41-1.78-.77-2.61-1.56-2.74-2.59-.67-5.14,16.58,7.91,23.5,17.75,4.14,5.88,6.71,7.89,11.34,8.87q7.27,1.5,10.3-4.42c1.91-3.71,1.85-5.57-.2-6-2.82-.57-7.57-4-16-11.63-7.82-7-13.43-11.06-16.34-11.68a1.55,1.55,0,0,1-1.3-1.51c0-3.58,10,2.13,18.35,10.41,13.4,13.32,22.93,15.26,30.25,6.23C737.93,420.86,741.34,411.76,739.34,411.38Z" style="fill: #cf1126"/>
    <path d="M627.32,344V379.4l8.52,2V345.06l-4.49,4.2Z" style="fill: #cf1126"/>
    <path d="M654.8,311.78c-10.63,9.24-35.9,5.8-46.77-9.56-.89,16.56-3.81,27.62-7.86,39.64l9.71-11.05L616.64,344,624,333.67l7.47,11.7,7.17-8.91q3.74,7.17,7.46,14.36l6.47-9.07,11,13.87C659.51,341.87,654.12,329.78,654.8,311.78Z" style="fill: #cf1126"/>
    <path d="M635.81,299.77c0,3,0,6,0,9l-8.5-1.89v-9c-3.9-.75-8-1.57-11.72-1.32a11.88,11.88,0,0,0-6.83,2.48c.32,11,35.88,23.27,45.41,10.09a20.53,20.53,0,0,0-7.14-5.72A52.47,52.47,0,0,0,635.81,299.77Z" style="fill: #cf1126"/>
    <path d="M628.77,242.56v63.09l5.63,1.27q-.06-31.6-.11-63.22Z" style="fill: #cf1126"/>
    <path d="M634.28,245.32q-1,14.87-2.11,29.74l21.28,19.82L642.68,271.5l14.71-3.77Q645.82,256.54,634.28,245.32Z" style="fill: #cf1126"/>
    <path d="M631.91,236.93c-3.23-.71-5.62.54-5.62,2.63s2.39,4.4,5.62,5.1,5.6-.56,5.6-2.65S635.14,237.63,631.91,236.93Z" style="fill: #cf1126"/>
    <path d="M626.67,748.37c-1.13,1.14-1.27,1.82-.95,4.72.83,7.34-.91,8.73-10.18,8.17a29.59,29.59,0,0,1-5.93-1.8c-4.41-1.76-6-1.46-4.38.83a10.21,10.21,0,0,0,2.72,2.34c2.48,1.47,11.57,2.82,14.22,2.12h0c3.49-.92,5.48-3.58,6.9-9.23a28.2,28.2,0,0,0,1.07-6.61C629.84,746.94,628.34,746.71,626.67,748.37Z" style="fill: #f7e017"/>
    <path d="M643.09,743.81c-1.5,3.25-1.46,3.49.69,4.77a7.42,7.42,0,0,1,2.81,3.75c2.35,6.43,1.65,9.95-1.82,9.23-3.15-.64-4-.18-4.86,2.61a18.82,18.82,0,0,0-.81,3.49c0,1.26,1.19,1.3,2.29.09h0a10.23,10.23,0,0,1,4-1.83,5.8,5.8,0,0,0,4.34-3.29c2.72-5.32,2.21-10.53-1.78-18.28C645.79,740.15,644.82,740,643.09,743.81Z" style="fill: #f7e017"/>
    <path d="M635.43,732.16c-.53-.88-3.12,1-3.46,2.49a10.81,10.81,0,0,0,.64,4.33c.8,2.46.91,4.62.66,13.52-.31,11.26.19,13.27,1.81,7.18h0c.6-2.22.81-6.4.74-15C635.77,738.06,635.6,732.45,635.43,732.16Z" style="fill: #f7e017"/>
    <path d="M619.76,729.39,618,730.86l.36,6.43c.34,5.8-.28,16.33-1.18,20.28-.24,1,.11.84,1.1-.63a17.6,17.6,0,0,0,2-5.88c.31-2,.72-6.27.9-9.38a74.65,74.65,0,0,1,1-8.66C623.05,728.8,622.15,727.44,619.76,729.39Z" style="fill: #f7e017"/>
    <path d="M607.9,733.4c.12,4.8,0,10-1.67,13.83-1.38,2.47-5.73.84-5.53-3,1.09-5.65-3.74-3.83-5.62-2.7-1.46,1.17-4.54.62-3.47-2.86-.7-5.09-5.05-2.93-7.42-3.46s-.18-6.65-3.39-6.18c-5.95-2-12.53-2.58-17.68-8.9-3-2.75-2.57-8-1-11.06,1.88-4.29,2.41-10,5.39-13,3-3.51-2.78-3-4.07-1.84-2.87,1.69-.21,8.16-2.56,11-1.37,3.12-3.18,7.44-6.36,6.14-4.58-2.21-7.23-9-10.51-13.82-2.82-1.39-1.23,6.43.22,8.3a35.59,35.59,0,0,0,9.7,8.77c3.46-.1,3.57,6.53,6.52,8.17,5.41,4.81,11.45,7.18,17.35,8.88,2.32.78,1,6.53,4.07,6,1.7,1,5.55.26,5.74,3.2-2.58,3.92,2.48,4.91,4.36,4.51,2.4,0,5.46-.7,6.1,4.24a6,6,0,0,0,8.12,2.62,4.49,4.49,0,0,0,.95-.81h0c3.19-3.21,2.82-10,3.53-15.23-.07-3.63,1.58-7.6.51-11C608.21,725.22,606.37,729,607.9,733.4Z" style="fill: #f7e017"/>
    <path d="M558.93,684.39c-1.31.15-1.84.74-2.06,2.36-.75,5.26-2.09,10.53-3.29,12.87-2.17,4.23-2.23,4.41-1.33,4.59.46.1,1.63-1.12,2.6-2.71h0a42,42,0,0,0,3.23-7.43,29.07,29.07,0,0,1,2.66-6.19C562.27,685.78,561.42,684.1,558.93,684.39Z" style="fill: #f7e017"/>
    <path d="M544.2,676.84c-.94-.19-2.72.55-4.13,1.76-4.41,3.78-9.13,1.91-11.71-4.67-2.12-5.42-4.33-8.6-6.28-9h0c-2.45-.48-2.56,1.77-.17,3.44,1.16.81,2.14,2.42,2.92,4.88,2.33,7.22,3.7,8.68,9.87,10.68l4,1.31c.06,1.19.13,2.37.19,3.55.1,2,.41,3.64.72,3.7a12,12,0,0,0,3.38-1.44c2.91-1.56,5.67-6,5.66-9.11C548.62,679.94,546.31,677.27,544.2,676.84Zm.1,8.65c-.44,1.57-1.86,1.33-2.29-.39-.51-2,.2-3.72,1.47-3.46S544.94,683.2,544.3,685.49Z" style="fill: #f7e017"/>
    <path d="M710.26,709.31l-.78-.16h0c-1.6-.24-2.07.18-3.08,2.17-1.67,3.26-1.83,11-.3,14.11.95,1.91,1.09,2,3.11,1.16,2.82-1.15,3.29-1,3.28,1.22,0,5.64-5.56,15.4-11.37,20A11.52,11.52,0,0,0,698,751c-.43,1.52,1.73,1.62,4.37.19,3.61-1.93,8.34-8,10.28-13.18,1.54-4.12,1.76-5.59,1.94-13.31.17-7.11,0-9.23-.79-11.77C712.88,710.09,712.58,709.78,710.26,709.31Zm0,12.34c-1.09,1.21-1.18,1.18-2.14-1.15-1.35-3.29-.51-6.74,1.51-6.32h0c1.2.24,1.42.68,1.56,3.24C711.36,719.54,711.1,720.77,710.31,721.65Z" style="fill: #f7e017"/>
    <path d="M690.83,742.25c-1.51-.31-1.81-1.9-1.16-6s-.13-9.26-1.37-9.52c-.45-.1-1.23.69-1.76,1.75-.8,1.63-.85,2.39-.25,5.13.87,4.07.18,6.83-2.2,8.8a4.5,4.5,0,0,0-1.75,3.48,5.61,5.61,0,0,0,.21,2.06,18.45,18.45,0,0,0,2.77-1.5l2.55-1.54,1.51,2a7.9,7.9,0,0,1,1.5,3.75c0,4.55-8.88,10.33-15,9.74-3.24-.31-3.79-.6-4.92-2.48a5.85,5.85,0,0,1-1-4.25c.18-1.18.49-3.32.7-4.76.56-3.84-.6-3.55-2.61.64-1.66,3.47-2.15,7.44-1.22,9.78.76,1.92,5.82,4.68,9.4,5.12a11.56,11.56,0,0,0,6.82-1.34h0a19.05,19.05,0,0,0,10.08-11.69,40.72,40.72,0,0,0,1.67-5.65C694.86,744.81,692.34,742.57,690.83,742.25Z" style="fill: #f7e017"/>
    <path d="M728.94,707.59c-1.1,1.94-2.56,3-7.91,5.48-1.34.64-1.43,1.11-1.74,9.3-.35,9.45-1.24,12.84-4.88,18.61-2.23,3.5-2.31,4-.76,4.33.64.13,2.27-1.17,3.62-2.89,3.22-4,4.59-9.48,4.61-18.3v-6.63l2.66-1.31c3.46-1.72,6.73-5.86,6.73-8.52S730.44,704.91,728.94,707.59Z" style="fill: #f7e017"/>
    <path d="M680,728.13a2,2,0,0,0-.19,1.78,1.24,1.24,0,0,0,2.43-.07h0C682.51,728.53,680.73,727.19,680,728.13Z" style="fill: #f7e017"/>
    <path d="M728.33,719.8a2,2,0,0,0-.2,1.79,1.24,1.24,0,0,0,2.43-.12h0C730.88,720.16,729.09,718.84,728.33,719.8Z" style="fill: #f7e017"/>
    <path d="M675,670.13c-.73-3.2-1.23-6.49-2.08-9.65-.1-.27-.3-.53-.51-.53h0c-1.25.6-1.9,2.44-2.77,3.76-.63.48-.12,1.17.24,1.83,2.2,4,3.14,8.84,4.19,13.44,1,5.38,2.32,11.2,1.24,16.35-.42,2-1.53,3.86-3.19,2.82-2.65-.81-5.26-2.4-7.92-2.93-2.36-.33-4.19,2.42-6.61,1.56-1.55-.19-1.48-4.95-2.92-4-.71,2.33-.36,5.18-.44,7.8.26.43,1,.26,1.47.47l4.76,1c.34,2.48.29,5.22,1.48,7.39,1.65,1.22,3.51.88,5.08.27,1.69-.78,1.91-3.69,2.39-5.89.5-2.37,2.73-1.24,4-1.94,3.2-.68,5.3-5.1,5.12-9.93C678.31,684.65,676.4,677.36,675,670.13Zm-8.35,35.54c-.67,2.74-3.09.37-3.58-1.81-.9-2.05-.35-4.43,1.4-3.8h0C666.2,700.27,667,703.63,666.6,705.67Z" style="fill: #f7e017"/>
    <path d="M658.05,685a28.7,28.7,0,0,1-6-3.46,15.38,15.38,0,0,0-4.59-2.6,3.49,3.49,0,0,0-4.35,3.21c0,1.38.33,1.59,3,1.77,2.5.18,3.22.54,4.54,2.34.86,1.19,1.44,2.49,1.26,2.87-.59,1.27-5.8,3.6-8.1,3.63a5.27,5.27,0,0,1-4-1.66c-2-2-5-2.85-5.55-1.66-.24.53-.88,0-1.75-1.37l-1.37-2.18L628,687.08c-3.14,1.21-4.3.89-4.29-1.3,0-1-.92-1.31-5.55-1.89-5.1-.62-5.64-.86-6.59-2.63s-.9-2.13-.27-3.46a2.44,2.44,0,0,0,0-2.74c-.55-.92-1.26-1.07-3.28-.71-5.07.88-6.51-.54-6.51-6.33,0-3.48-1.36-5.88-3.11-6.3h0a3,3,0,0,0-2.57.76c-4.65,3.76-5.84,9.12-2.68,12,2.32,2.12,1.73,3.9-1.92,5.78-5.22,2.69-9.83,1.23-18.59-5.91-2.16-1.76-2.71-1.38-2.22,1.6s2.25,4.84,6.65,7.23c4.72,2.59,10.43,3.3,14.11,1.78a15.32,15.32,0,0,0,5.71-5.11l2.85-4,3.3,1.32c4.08,1.61,4.16,1.69,4.16,4.54,0,2.26.09,2.33,3.83,3.66,2.11.75,4.89,1.62,6.18,1.9a3.92,3.92,0,0,1,3.14,2.24c.74,1.66,1.17,1.83,7.33,2.37,5.76.49,6.89.8,9.49,2.66a11.26,11.26,0,0,0,5.42,2.22c4.4.24,10.49-3.71,11.37-7.39.11-.45,1.71-.93,3.55-1.07C662,688,662.21,686.63,658.05,685Zm-59.52-14.65c-.46,1.62-2.61,1.09-3.07-.74a2.32,2.32,0,0,1,.71-2.33c.46-.39.75-.57,1-.49h0c.27.05.5.35.85.93A4,4,0,0,1,598.53,670.33Z" style="fill: #f7e017"/>
    <path d="M590.76,654.15c-1.51-.32-2.3,1.94-2.3,6.56,0,3-.31,4.23-1.4,5.57-2.57,3.2-9,.13-9.76-4.7-.27-1.66.08-3,1.42-5.52,2.79-5.19,2.16-6.75-1.26-3.08-2.36,2.51-2.78,2.51-2.33,0,.41-2.3-.45-3.43-2.36-3.13-1,.15-1.52.93-1.75,2.62s-.77,2.48-1.69,2.62c-1.55.25-4.19-2.45-4.19-4.28,0-1.35,4-7.58,9-14.2,1.91-2.51,3.48-4.88,3.48-5.29s-1-1-2.28-1.23c-1.83-.38-2.27-.18-2.27,1.06,0,.84-2.56,5.19-5.69,9.69-6.53,9.37-7.07,11.49-3.84,15,2.6,2.86,5.93,3.38,8.55,1.34l2.12-1.66v3.82c0,4.88.66,6.77,3.29,9.36,3.3,3.24,7.29,3.79,10.56,1.46h0c3.09-2.2,3-2,3.46-9.85C591.86,654.81,591.81,654.37,590.76,654.15Z" style="fill: #f7e017"/>
    <path d="M725.08,633.07h0c-2.42,1.63-.53,6.44-.16,9.46-1,3.83-4.53,4.21-7.11,4.43-3.65.15-6.24,4.08-7.62,8.54-.76,2.92-2.57,7.33-4.55,2.23-1.72-2.9-4.89-5.57-6.92-3-1.55,1.83-1.94,4.91-2.52,7.66-.91-2.4-1.32-5.77-3.25-6.87-3.09,0-2,5.9-.52,8.55,1.32,3,2.58,6.88,1.29,9.85-1.14,3.66-5.08,5.46-7.4,1.64-2.16-2.13-.72-7.77-2.85-8.55-1.05.89-1.14,7.1-2.82,3.36-1.22-3.14-.57-7-2.06-9.87-1.76-.06-3.18,4.06-2.59,6.56,2.35,5.13,3.31,11.13,4.23,16.83.57,2.33-.09,6.67,1.33,7.84,1-3.34.07-7.56.84-11,2.29.06,4.84,2.13,7.24,1.82,3.44.07,6.09-3.61,7.3-7.87.36-3.32-.07-6.85-.14-10.27,2.72,1.18,5.54,1.75,8.15,3.58,1.3,3.16-.41,6.87-.77,10-1.36,6.18-4.82,10.15-8.19,13.76-1.41.92-1.6,4.11.48,2.8,4.53-1.88,7.9-7.17,9.84-13.25,1.42-4.7.28-10.48,1.21-15.39,1.36-3.55,4.65-2.07,7.09-1.57s4.67-3.48,3.82-7.23c-.8-4.31,2.21-5.7,4.26-6.77,2.73-1.47,4.81-5.13,4.6-9.77C727.18,638.17,727.26,633.72,725.08,633.07Zm-24,29c-1.66-1.57-1.11-4.48.78-3.94C705.69,658.61,704.32,666.43,701.11,662.09Zm12.24-3.3c-.48-2.06.65-4,2.08-3.69C718.34,656.82,714.9,664.26,713.35,658.79Z" style="fill: #f7e017"/>
    <path d="M563.79,658.41c-1.06-.22-1.7,1-1.2,2.28s1.65.87,1.87-.76h0C564.57,659.15,564.29,658.52,563.79,658.41Z" style="fill: #f7e017"/>
    <path d="M608,660.52c-1.49.09-1.65,2.81-.19,3.13.81.18,1.18-.28,1.18-1.47S608.64,660.48,608,660.52Z" style="fill: #f7e017"/>
    <path d="M571.08,625.11c-1.72.58-2.26,3.3-3.45,4.85-2,3.16-4.09,6.36-6.64,8.64-1.86.74-4-.2-5.91-1.22-.8-1.19,1.58-1.52,1.92-2.59,1.09-1.37,2.39-2.62,3-4.58-.61-2.07-2.47-2.61-3.78-2.92-3.22-.1-5.69,3.35-8.94,3.06-2.47-.37-1.19-4-.07-5.13,2.18-3.34,4.53-6.42,6.81-9.6.65-1,3-1.6,1.49-3.51a4.29,4.29,0,0,0-1.64-.62h0c-1.77-.9-2.89,1.07-3.5,3-1.33,3-2.95,6-5.33,7.23-1.71.35-3.58-1-5.06-2.57-1.76-1.63-1.36-4.65-2.12-6.94-1.27-1.71-3.53-.07-3.48,2.21-.14,3,1.81,5.17,3.43,6.67,1.38,1.51,3.38,2.6,3.93,5.2,0,2.12.54,4.66,2.31,4.2,2,.35,2.49,4,1.69,5.92a15.88,15.88,0,0,0-1,7.62c.94,1.35,1.91-1.57,2.59-2.32l1.4-2.44c3.5,1,7,2.36,10.5,2.91,2.49.45,4.62-1.36,6.2-3.66,2.25-3,4.09-6.59,6.65-9C574,629.29,573,624.06,571.08,625.11Zm-19.55,12.12c-1.27,1.17-2.7-2-1-2.32C551.41,635.07,553.35,636.77,551.53,637.23Zm1.8-3.51c-1.47.35-1.5-1.85-.19-2a4.24,4.24,0,0,1,2.35-.76C557.11,632.62,554.45,634.25,553.33,633.72Z" style="fill: #f7e017"/>
    <path d="M587.42,646.24c-.16,1.14.1,1.48,1.13,1.48a1.27,1.27,0,0,0,1.33-1.23C589.88,644.68,587.67,644.47,587.42,646.24Z" style="fill: #f7e017"/>
    <path d="M685.64,652.91c-.86,1.09-.07,3.66,1.1,3.57.55,0,1.08-.7,1.19-1.47h0C688.15,653.33,686.51,651.83,685.64,652.91Z" style="fill: #f7e017"/>
    <path d="M542.09,591.11a12.87,12.87,0,0,0-6.13-3.18c-4-.8-4.57.36-3.49,7.41,1.28,8.26-.45,9-4.87,2.1-3.28-5.13-4.58-10-4.56-17.39,0-7.88,2.07-11.38,6.73-11.39,3.09,0,3-1.07-.17-2.38-4.64-1.93-8.55,1.84-10,9.63-1.66,8.64,2.13,20.27,8.84,27.2,3.5,3.63,4.9,4,6.94,1.83,1.54-1.62,1.56-1.75.89-6.12-.94-6.13-.88-6.76.67-7,2-.34,6.94,4.56,8,7.9.86,2.59.83,2.75-.62,4.42s-1.56,4.26,0,4.58c1.29.26,4.87-4,4.87-5.73C549.2,600.51,545.23,593.87,542.09,591.11Z" style="fill: #f7e017"/>
    <polygon points="718.08 633.86 718.08 633.86 718.08 633.86 718.08 633.86" style="fill: #f7e017"/>
    <path d="M718.43,623.21c-1.44,1.35-2.51,1.17-2.51-.43,0-.4.68-1.08,1.52-1.51,2.08-1.06,2.26-2.5.5-4-2.26-1.94-4.53.33-4.76,4.79-.15,3,0,3.55,1.61,5.24s1.72,2.26,1.48,4c-.42,3,.46,4.28,1.81,2.59a5.1,5.1,0,0,0,.68-2.61,11.19,11.19,0,0,1,1.42-4.28,12.48,12.48,0,0,0,1.42-3.23C721.6,622.17,719.83,621.87,718.43,623.21Z" style="fill: #f7e017"/>
    <path d="M735.66,600.9c-3.45-5.21-6.63-9.56-7-9.64-1.22-.24-1,6.38.24,7.2,2.24,1.49,3.59,3.1,7.12,8.42,4.1,6.2,6,11.6,4.95,14.22s-2.3,1.44-5.91-4.92c-1.9-3.35-3.78-6.15-4.17-6.22s-.71.94-.71,2.45c0,1.89.69,3.83,2.56,7.24,3,5.55,3.35,8.58,1.06,10.77a5.28,5.28,0,0,1-1.88,1.36,12.24,12.24,0,0,1-1.49-3.58c-1.28-4-9.09-17.62-10.27-17.86-.53-.11-.79.81-.79,2.72,0,2.32.31,3.2,1.57,4.4,1.55,1.48,5.38,7.88,9.24,15.43a18.35,18.35,0,0,0,2.42,4,10.72,10.72,0,0,0,2.69-2.48h0c1.26-1.41,2.29-3.09,2.29-3.71s1.08-2.08,2.41-3.22c3.77-3.24,4.6-7.08,2.92-13.55C742.21,611.4,740.15,607.68,735.66,600.9Z" style="fill: #f7e017"/>
    <path d="M742.92,603.86c-.51-2.48-11-20.26-12.07-20.48-.56-.11-.73.83-.6,3.36.15,3.07.37,3.64,1.81,4.47.89.52,3.66,4.22,6.13,8.22s4.64,7.07,4.82,6.83a4.91,4.91,0,0,0-.09-2.4Z" style="fill: #f7e017"/>
    <path d="M678.75,766.07c-.86-.19-1.55.6-1.55,1.75a2.43,2.43,0,0,0,1.55,2.42c.86.18,1.56-.6,1.56-1.76A2.41,2.41,0,0,0,678.75,766.07Z" style="fill: #f7e017"/>
    <path d="M684.26,764.55c-.86-.18-1.56.61-1.56,1.76a2.42,2.42,0,0,0,1.56,2.41c.86.19,1.56-.6,1.56-1.75A2.43,2.43,0,0,0,684.26,764.55Z" style="fill: #f7e017"/>
  </g>
</svg>
