<svg xmlns="http://www.w3.org/2000/svg" viewBox="0 0 1260 1012.04">
  <g>
    <path d="M0,90.08v920C420,738.76,840,1193.28,1260,922V2C840,273.28,420-181.24,0,90.08Z" style="fill: #fff"/>
    <path d="M0,1010.08C420,738.76,840,1193.28,1260,922V2C840,580,420,432.09,0,1010.08Z" style="fill: #012a87"/>
    <path d="M0,90.08V473.41C175,232.58,350,117.77,525,24,350-10,175-23,0,90.08Z" style="fill: #f9d90f"/>
    <path d="M346.5,202C247.5,196.37,167,306.4,167,415c0,108.29,80.55,174.69,179.55,180.3,99,4.91,179.55-64,179.55-173.22C526.05,314.45,445.5,206.89,346.5,202Zm0,368c-86.27-4.64-156.45-65.8-156.45-160.22S260.23,222.63,346.5,227.27C432.77,231.39,503,323.79,503,417.7,503,512.75,432.77,574.09,346.5,570Z"/>
    <path d="M315,220.38c21,0,42,1,63,2.67q-15.75-31.14-31.5-61.71Q330.75,190.55,315,220.38Z"/>
    <path d="M346.5,635.91q15.75-29.2,31.5-57.81c-21-1.68-42-2.63-63-2.67Q330.75,605.34,346.5,635.91Z"/>
    <path d="M508.59,453.24q27.27-12.18,54.56-23.68-27.28-22.93-54.56-45.32Z"/>
    <path d="M184.41,445.44v-69q-27.27,23.1-54.56,49.19C148,431.19,166.23,437.84,184.41,445.44Z"/>
    <path d="M253.75,459.16c61.83-5.57,123.67-1.74,185.5,6.85-30.92-62.95-61.83-124.7-92.75-184.69C315.58,338.64,284.67,397.73,253.75,459.16Z" style="fill: #dc171d"/>
    <path d="M346.5,515.92c30.92-57.31,61.83-112.86,92.75-167.21-61.83-8.59-123.67-12.42-185.5-6.85C284.67,397.73,315.58,455.94,346.5,515.92Z" style="fill: #dc171d"/>
  </g>
</svg>
