<svg xmlns="http://www.w3.org/2000/svg" xmlns:xlink="http://www.w3.org/1999/xlink" viewBox="0 0 1260 1012.04">
  <defs>
    <clipPath id="a">
      <path d="M630,276c121.78,28.4,220.5,144.17,220.5,270.31C850.5,674.24,751.78,764.42,630,736S409.5,591.85,409.5,465.71C409.5,337.8,508.22,247.63,630,276Z" style="fill: none"/>
    </clipPath>
    <clipPath id="b">
      <path d="M698.4,489.64l8.37-18.35q8.67,5.7,17.33,11.36l-8.37,18.41Q707.06,495.38,698.4,489.64ZM712.69,483l-1.44,3.16,8.67,5.68c.47-1.05,1-2.11,1.43-3.16Q717,485.87,712.69,483Z" style="fill: none"/>
    </clipPath>
  </defs>
  <g>
    <path d="M0,1010.08C420,738.76,840,1193.28,1260,922h0C840,1193.28,420,738.76,0,1010.08Z" style="fill: #009b3a"/>
    <path d="M0,1010.08C420,738.76,840,1193.28,1260,922V2C840,273.28,420-181.24,0,90.08Z" style="fill: #009b3a"/>
    <path d="M107.1,495.73C281.4,546.09,455.7,700.2,630,854.31c174.3-78.08,348.6-156.16,522.9-338C978.6,466,804.3,311.85,630,157.74,455.7,235.82,281.4,313.9,107.1,495.73Z" style="fill: #fedf00"/>
    <path d="M630,276C508.22,247.63,409.5,337.8,409.5,465.71,409.5,591.85,508.22,707.63,630,736s220.5-61.78,220.5-189.69C850.5,420.19,751.78,304.42,630,276Z" style="fill: #002776"/>
    <g style="clip-path: url(#a)">
      <path d="M1008,1009.27q15.75-1.47,31.5-3.77h0q-15.75,2.32-31.5,3.77Z" style="fill: #fff"/>
      <path d="M504,381.42c-116-22.57-223.48,11.87-311.18,95.37C105.12,558.6,37.15,689.48,0,821v189.12H0c0-144,56.41-318,147.62-439.47,45.6-60.77,99.9-108.15,160.2-135,60.3-27.22,126.59-33.94,196.18-21.3,139.18,28.24,265.18,117.46,356.38,221.2C951.59,741.64,1008,862.31,1008,1009.27q15.75-1.47,31.5-3.77c0-156.43-59.94-280.5-156.84-391.26C785.75,506.38,651.87,411.83,504,381.42Z" style="fill: #fff"/>
    </g>
    <path d="M439.85,384.6c-3,0-5.14,3.06-4.7,6.9s3.27,7,6.31,7,5.15-3,4.71-6.87S442.9,384.64,439.85,384.6Z" style="fill: #009b3a;fill-rule: evenodd"/>
    <path d="M439.38,380.5c-5.18-.06-8.81,4.88-8.1,11s5.48,11.06,10.66,11.13,8.8-4.79,8.1-10.9S444.56,380.56,439.38,380.5Zm2.08,18c-3,0-5.87-3.17-6.31-7s1.66-6.93,4.7-6.9,5.87,3.19,6.32,7S444.5,398.53,441.46,398.5Z" style="fill: #009b3a;fill-rule: evenodd"/>
    <path d="M469.83,386.19l-8.08-.69c.12,1.89.25,3.78.37,5.67l8.08.7a2.3,2.3,0,0,0,2.51-2.59A3.37,3.37,0,0,0,469.83,386.19Z" style="fill: #009b3a;fill-rule: evenodd"/>
    <path d="M469.85,382.12q-6-.54-12-1l1.17,22,3.89.33-.54-8.21,8.38.73c3.63.33,6.37-2.5,6.12-6.33A8.2,8.2,0,0,0,469.85,382.12Zm.35,9.75-8.08-.7c-.12-1.89-.25-3.78-.37-5.67l8.08.69a3.37,3.37,0,0,1,2.88,3.09A2.3,2.3,0,0,1,470.2,391.87Z" style="fill: #009b3a;fill-rule: evenodd"/>
    <path d="M471.7,394.2l-5.69-.5c6.59.58,7.05,7.53,7.25,10.69l3.6.33C476.65,401.56,476.19,394.61,471.7,394.2Z" style="fill: #009b3a"/>
    <path d="M495,389.41l-5.7-.9.24,13.8,5.69.91a4.74,4.74,0,0,0,5.6-5l0-1.88A7.26,7.26,0,0,0,495,389.41Z" style="fill: #009b3a;fill-rule: evenodd"/>
    <path d="M495.2,385.38l-9.9-1.56.36,22q4.95.76,9.9,1.56c5,.79,8.93-2.75,8.84-8,0-1,0-2.09,0-3.14C504.26,391.06,500.17,386.18,495.2,385.38Zm0,17.84-5.69-.91-.24-13.8,5.7.9a7.26,7.26,0,0,1,5.8,6.89l0,1.88A4.74,4.74,0,0,1,495.19,403.22Z" style="fill: #009b3a;fill-rule: evenodd"/>
    <path d="M516.25,401.51q6,1.35,12,2.75c0-1.25.09-2.49.13-3.73q-6-1.39-12-2.75c0-1.45.09-2.9.14-4.35q7.2,1.62,14.39,3.31c.05-1.35.09-2.7.14-4q-9-2.1-18-4.12-.36,10.88-.73,21.75,9.43,2.12,18.89,4.32c0-1.34.09-2.69.13-4q-7.64-1.77-15.29-3.51C516.12,405.24,516.19,403.37,516.25,401.51Z" style="fill: #009b3a"/>
    <path d="M549,412.71q-1.47-8-2.93-15.95l-5.23-1.53L539,416.69l3.59,1q.62-7.35,1.25-14.71,1.47,8,2.93,15.94l3.29,1q2.72-6.74,5.44-13.46l-1.26,14.7,3.59,1.07,1.83-21.45-5.23-1.55Q551.69,406,549,412.71Z" style="fill: #009b3a"/>
    <path d="M582.48,430.83,598,436.94c.21-1.19.41-2.38.61-3.57l-12-4.72.81-4.76,9.76,3.85c.2-1.19.4-2.38.61-3.57l-9.76-3.85c.19-1.09.37-2.18.56-3.27l11.6,4.57c.21-1.18.41-2.37.61-3.56l-15.15-6Q584.08,421.46,582.48,430.83Z" style="fill: #009b3a"/>
    <path d="M638.26,437l-7.85-3.83-1.35,5.16,7.84,3.83a2.2,2.2,0,0,0,3.29-1.31A3.53,3.53,0,0,0,638.26,437Z" style="fill: #009b3a;fill-rule: evenodd"/>
    <path d="M639.52,433.36l-11.61-5.66-5.55,19.92,3.77,1.84q1-3.73,2-7.45l8.13,4c3.53,1.73,7.13.3,8-3.18S643.05,435.09,639.52,433.36Zm.67,7.44a2.2,2.2,0,0,1-3.29,1.31l-7.84-3.83,1.35-5.16,7.85,3.83A3.53,3.53,0,0,1,640.19,440.8Z" style="fill: #009b3a;fill-rule: evenodd"/>
    <path d="M664.71,450.74l-7.73-4.2-1.62,5,7.72,4.21a2.24,2.24,0,0,0,3.39-1.11A3.51,3.51,0,0,0,664.71,450.74Z" style="fill: #009b3a;fill-rule: evenodd"/>
    <path d="M666.17,447.27,654.72,441l-6.6,19.36,3.72,2q1.17-3.62,2.35-7.25l8,4.37c3.47,1.89,7.18.68,8.28-2.71S669.64,449.16,666.17,447.27Zm.3,7.39a2.24,2.24,0,0,1-3.39,1.11l-7.72-4.21,1.62-5,7.73,4.2A3.51,3.51,0,0,1,666.47,454.66Z" style="fill: #009b3a;fill-rule: evenodd"/>
    <path d="M663.74,458.42l-5.44-3c6.3,3.43,4.31,9.57,3.41,12.36l3.44,1.87C666.05,466.89,668,460.76,663.74,458.42Z" style="fill: #009b3a"/>
    <path d="M688.33,464.34c-2.87-1.72-6.23-.46-7.51,2.83a7.68,7.68,0,0,0,2.89,9.09c2.87,1.73,6.23.46,7.51-2.84A7.66,7.66,0,0,0,688.33,464.34Z" style="fill: #009b3a;fill-rule: evenodd"/>
    <path d="M689.7,460.82c-4.89-2.94-10.5-1.08-12.53,4.15a12.62,12.62,0,0,0,5.17,14.81c4.89,3,10.5,1.08,12.53-4.17A12.58,12.58,0,0,0,689.7,460.82Zm1.52,12.6c-1.28,3.3-4.64,4.57-7.51,2.84a7.69,7.69,0,0,1-2.89-9.09c1.28-3.29,4.64-4.55,7.51-2.83A7.66,7.66,0,0,1,691.22,473.42Z" style="fill: #009b3a;fill-rule: evenodd"/>
    <g style="clip-path: url(#b)">
      <path d="M713.88,480.4a5.16,5.16,0,0,0-7.72,2.43,7.5,7.5,0,0,0,2.46,9.12,5.16,5.16,0,0,0,7.72-2.43A7.49,7.49,0,0,0,713.88,480.4Z" style="fill: #009b3a;fill-rule: evenodd"/>
      <path d="M715.44,477c-4.79-3.14-10.54-1.58-12.86,3.49a12.36,12.36,0,0,0,4.48,14.89c4.79,3.16,10.54,1.58,12.86-3.5A12.33,12.33,0,0,0,715.44,477Zm.9,12.54a5.16,5.16,0,0,1-7.72,2.43,7.5,7.5,0,0,1-2.46-9.12,5.16,5.16,0,0,1,7.72-2.43A7.49,7.49,0,0,1,716.34,489.52Z" style="fill: #009b3a;fill-rule: evenodd"/>
    </g>
    <path d="M711.43,489.71l7.29,4.78,1.2-2.63-7.29-4.78Z" style="fill: #009b3a"/>
    <path d="M713,499.25l2.75,1.81q2.09-4.6,4.19-9.2l-2.76-1.8Z" style="fill: #009b3a"/>
    <path d="M741.14,499.11l-7.25-5.17-2.41,4.57,7.25,5.18a2.38,2.38,0,0,0,3.62-.57A3.28,3.28,0,0,0,741.14,499.11Z" style="fill: #009b3a;fill-rule: evenodd"/>
    <path d="M743.15,496l-10.74-7.65-9.64,17.56,3.49,2.51,3.48-6.6q3.76,2.7,7.52,5.37c3.26,2.33,7.22,1.7,8.85-1.39S746.41,498.31,743.15,496Zm-.8,7.13a2.38,2.38,0,0,1-3.62.57l-7.25-5.18,2.41-4.57,7.25,5.17A3.28,3.28,0,0,1,742.35,503.12Z" style="fill: #009b3a;fill-rule: evenodd"/>
    <path d="M739,506.33l-5.1-3.64c5.91,4.22,3,9.81,1.62,12.35,1.08.76,2.15,1.53,3.22,2.3C740.08,514.79,743,509.19,739,506.33Z" style="fill: #009b3a"/>
    <path d="M746.54,523.11q8.24,6.4,16.45,12.74l1.92-3.2q-6.66-5.11-13.31-10.28l2.65-4.41L764.7,526l1.77-2.95L756,515l2.07-3.44q6.25,4.84,12.53,9.64l1.92-3.21q-7.83-6-15.67-12Q751.72,514.55,746.54,523.11Z" style="fill: #009b3a"/>
    <path d="M789.66,531.92c-2.28-1.88-8.31-7.26-11.84-2.24-4.09,5.87,9.18,13.6,6.89,17-.73,1.07-2.45.84-5-1.27s-3.68-4.36-2.55-6l-4-3.33c-2.84,4.12,1.51,9.43,4.42,11.86,3.42,2.86,8.53,5.81,11.48,1.47,4-5.87-9-13.79-7.07-16.53,1.17-1.72,2.76-.86,4.72.77s3.35,3.8,2.14,5.58l3.86,3.19C795.6,538.3,791.94,533.8,789.66,531.92Z" style="fill: #009b3a"/>
    <path d="M812.65,551.7c-2.2-2-8-7.52-11.81-2.69-4.42,5.65,8.57,13.84,6.08,17.09-.78,1-2.51.73-4.95-1.46s-3.48-4.48-2.26-6.07l-3.85-3.46c-3.06,4,1,9.41,3.86,11.93,3.3,3,8.31,6.1,11.49,1.92,4.31-5.67-8.4-14-6.29-16.67,1.26-1.65,2.82-.74,4.72,1s3.18,3.89,1.87,5.61l3.73,3.31C818.3,558.25,814.85,553.65,812.65,551.7Z" style="fill: #009b3a"/>
    <path d="M823.21,575a6.68,6.68,0,0,0,.23,9,5.73,5.73,0,0,0,8.46-.66,6.69,6.69,0,0,0-.24-9A5.75,5.75,0,0,0,823.21,575Z" style="fill: #009b3a;fill-rule: evenodd"/>
    <path d="M834.09,571.51a9.48,9.48,0,0,0-13.93.57,11,11,0,0,0,.86,14.83,9.4,9.4,0,0,0,13.93-.58A11,11,0,0,0,834.09,571.51ZM831.9,583.4a5.73,5.73,0,0,1-8.46.66,6.68,6.68,0,0,1-.23-9,5.75,5.75,0,0,1,8.45-.66A6.69,6.69,0,0,1,831.9,583.4Z" style="fill: #009b3a;fill-rule: evenodd"/>
    <path d="M447.08,428.78l4.49,2.18q-.78-5.56-1.57-11.13Z" style="fill: #fff"/>
    <path d="M448.43,430.5l4.49-.86q-1.46-4.9-2.92-9.81Q449.22,425.17,448.43,430.5Z" style="fill: #fff"/>
    <path d="M449.54,431.5q4.72-1.77,9.45-3.5-4.73-.74-9.45-1.42Z" style="fill: #fff"/>
    <path d="M451.34,432.64q3.82-2.34,7.65-4.64-5.22.11-10.42.24Z" style="fill: #fff"/>
    <path d="M448.66,432.24l2.78-3.58Q446.22,427,441,425.35Z" style="fill: #fff"/>
    <path d="M450.46,431.64v-4.93c-3.15-.46-6.3-.92-9.45-1.36Q445.74,428.47,450.46,431.64Z" style="fill: #fff"/>
    <path d="M448.14,429.54q3.71,4.47,7.41,9-1.46-4.92-2.92-9.82Z" style="fill: #fff"/>
    <path d="M447.91,431.56q3.82,3.46,7.64,6.94L450.69,428Z" style="fill: #fff"/>
    <path d="M444.45,436.86q3.81-2.36,7.64-4.68l-2.78-4.4Z" style="fill: #fff"/>
    <path d="M444.45,436.86q3.71-3.41,7.41-6.77l-4.49-2.19C446.39,430.89,445.42,433.87,444.45,436.86Z" style="fill: #fff"/>
    <path d="M466.58,528.45l4.49,2.25q-.78-5.58-1.57-11.15C468.53,522.51,467.55,525.48,466.58,528.45Z" style="fill: #fff"/>
    <path d="M467.93,530.19l4.49-.79q-1.46-4.93-2.92-9.85Q468.72,524.86,467.93,530.19Z" style="fill: #fff"/>
    <path d="M469,531.21l9.45-3.37q-4.73-.8-9.45-1.56Z" style="fill: #fff"/>
    <path d="M470.84,532.37l7.65-4.53c-3.48,0-6.95,0-10.43.09Q469.46,530.15,470.84,532.37Z" style="fill: #fff"/>
    <path d="M468.16,531.94l2.77-3.54q-5.21-1.75-10.42-3.47Q464.34,528.42,468.16,531.94Z" style="fill: #fff"/>
    <path d="M470,531.36v-4.93l-9.45-1.5Q465.24,528.13,470,531.36Z" style="fill: #fff"/>
    <path d="M467.64,529.23l7.41,9.06q-1.46-4.93-2.92-9.86Z" style="fill: #fff"/>
    <path d="M467.41,531.25l7.64,7-4.86-10.58Z" style="fill: #fff"/>
    <path d="M464,536.49q3.81-2.29,7.64-4.56l-2.78-4.44Z" style="fill: #fff"/>
    <path d="M464,536.49q3.71-3.35,7.41-6.66l-4.49-2.25Q465.4,532,464,536.49Z" style="fill: #fff"/>
    <path d="M440.07,545.21l3.74,1.8c-.44-3.09-.87-6.18-1.31-9.27Z" style="fill: #fff"/>
    <path d="M441.19,546.63l3.74-.73-2.43-8.16C442.06,540.7,441.63,543.67,441.19,546.63Z" style="fill: #fff"/>
    <path d="M442.11,547.47c2.63-1,5.25-2,7.88-3-2.63-.39-5.25-.77-7.88-1.14Z" style="fill: #fff"/>
    <path d="M443.62,548.4c2.12-1.31,4.25-2.61,6.37-3.9-2.9.07-5.79.16-8.69.25Z" style="fill: #fff"/>
    <path d="M441.38,548.08l2.32-3c-2.9-.92-5.79-1.82-8.69-2.71Z" style="fill: #fff"/>
    <path d="M442.89,547.58v-4.11c-2.63-.37-5.25-.74-7.88-1.09Q439,545,442.89,547.58Z" style="fill: #fff"/>
    <path d="M441,545.84l6.18,7.42-2.43-8.16Z" style="fill: #fff"/>
    <path d="M440.76,547.52l6.37,5.74-4.06-8.73Z" style="fill: #fff"/>
    <path d="M437.87,552c2.12-1.32,4.25-2.63,6.37-3.93l-2.31-3.65Z" style="fill: #fff"/>
    <path d="M437.87,552l6.18-5.68-3.75-1.79Z" style="fill: #fff"/>
    <path d="M489.71,518.5l2.14,1.11-.75-5.33C490.64,515.69,490.17,517.1,489.71,518.5Z" style="fill: #fff"/>
    <path d="M490.35,519.34l2.14-.35c-.46-1.57-.93-3.14-1.39-4.71Z" style="fill: #fff"/>
    <path d="M490.88,519.84l4.5-1.55-4.5-.8Z" style="fill: #fff"/>
    <path d="M491.74,520.4l3.64-2.11-5,0Z" style="fill: #fff"/>
    <path d="M490.46,520.17l1.32-1.66-5-1.73Z" style="fill: #fff"/>
    <path d="M491.32,519.91v-2.34l-4.5-.79Z" style="fill: #fff"/>
    <path d="M490.21,518.88l3.54,4.36c-.47-1.57-.93-3.14-1.4-4.71Z" style="fill: #fff"/>
    <path d="M490.1,519.84l3.65,3.4q-1.17-2.54-2.32-5.06C491,518.73,490.55,519.29,490.1,519.84Z" style="fill: #fff"/>
    <path d="M488.45,522.31l3.65-2.12c-.45-.71-.89-1.42-1.33-2.13Z" style="fill: #fff"/>
    <path d="M488.45,522.31l3.54-3.12-2.14-1.1Z" style="fill: #fff"/>
    <path d="M513,559.49l3.74,2c-.44-3.11-.87-6.22-1.31-9.33Z" style="fill: #fff"/>
    <path d="M514.09,561l3.74-.56-2.43-8.27C515,555.08,514.53,558,514.09,561Z" style="fill: #fff"/>
    <path d="M515,561.85c2.63-.88,5.25-1.74,7.88-2.6L515,557.74Z" style="fill: #fff"/>
    <path d="M516.52,562.85l6.37-3.6-8.69-.16C515,560.34,515.75,561.6,516.52,562.85Z" style="fill: #fff"/>
    <path d="M514.28,562.43l2.32-2.89-8.69-3.13Z" style="fill: #fff"/>
    <path d="M515.79,562v-4.1c-2.63-.5-5.25-1-7.88-1.48C510.54,558.26,513.16,560.13,515.79,562Z" style="fill: #fff"/>
    <path d="M513.85,560.16l6.18,7.72-2.43-8.28Z" style="fill: #fff"/>
    <path d="M513.66,561.84l6.37,6q-2-4.47-4.06-8.93Z" style="fill: #fff"/>
    <path d="M510.77,566.12l6.37-3.62-2.31-3.76Z" style="fill: #fff"/>
    <path d="M510.77,566.12l6.18-5.37-3.75-2Z" style="fill: #fff"/>
    <path d="M506.85,581.27l3,1.57-1.05-7.46Z" style="fill: #fff"/>
    <path d="M507.75,582.45l3-.45-1.95-6.62Z" style="fill: #fff"/>
    <path d="M508.49,583.15l6.3-2.1-6.3-1.18Z" style="fill: #fff"/>
    <path d="M509.69,584l5.1-2.9-6.95-.1C508.46,582,509.08,583,509.69,584Z" style="fill: #fff"/>
    <path d="M507.91,583.62l1.85-2.31-6.95-2.49Z" style="fill: #fff"/>
    <path d="M509.11,583.27V580l-6.3-1.16Z" style="fill: #fff"/>
    <path d="M507.56,581.81,512.5,588c-.65-2.2-1.29-4.41-1.94-6.61Z" style="fill: #fff"/>
    <path d="M507.41,583.15,512.5,588l-3.24-7.12Z" style="fill: #fff"/>
    <path d="M505.1,586.59l5.09-2.92-1.85-3Z" style="fill: #fff"/>
    <path d="M505.1,586.59q2.46-2.18,4.94-4.32l-3-1.57C506.39,582.66,505.75,584.62,505.1,586.59Z" style="fill: #fff"/>
    <path d="M695.48,448.27l4.49,2.46q-.78-5.61-1.57-11.23C697.43,442.43,696.45,445.35,695.48,448.27Z" style="fill: #fff"/>
    <path d="M696.83,450.07l4.49-.59q-1.46-5-2.92-10Q697.62,444.79,696.83,450.07Z" style="fill: #fff"/>
    <path d="M697.94,451.15l9.45-3-9.45-1.95Z" style="fill: #fff"/>
    <path d="M699.74,452.39l7.65-4.22L697,447.82Z" style="fill: #fff"/>
    <path d="M697.06,451.83l2.77-3.41-10.42-4Z" style="fill: #fff"/>
    <path d="M698.86,451.34v-4.93l-9.45-2Z" style="fill: #fff"/>
    <path d="M696.54,449.1l7.41,9.39q-1.46-5-2.92-10Z" style="fill: #fff"/>
    <path d="M696.31,451.11l7.64,7.38-4.86-10.79C698.16,448.83,697.24,450,696.31,451.11Z" style="fill: #fff"/>
    <path d="M692.85,456.18l7.64-4.2q-1.38-2.3-2.78-4.57Z" style="fill: #fff"/>
    <path d="M692.85,456.18l7.41-6.31-4.49-2.46C694.79,450.33,693.82,453.26,692.85,456.18Z" style="fill: #fff"/>
    <path d="M781.58,616.81l4.49,2.27q-.78-5.58-1.57-11.16Z" style="fill: #fff"/>
    <path d="M782.93,618.56l4.49-.78q-1.45-4.93-2.92-9.86Q783.72,613.25,782.93,618.56Z" style="fill: #fff"/>
    <path d="M784,619.58q4.73-1.68,9.45-3.38c-3.15-.51-6.3-1-9.45-1.55Z" style="fill: #fff"/>
    <path d="M785.84,620.75l7.65-4.55c-3.48,0-7,.08-10.43.1Z" style="fill: #fff"/>
    <path d="M783.16,620.3l2.77-3.52-10.42-3.57Z" style="fill: #fff"/>
    <path d="M785,619.74v-4.93c-3.15-.52-6.3-1.06-9.45-1.6Q780.23,616.49,785,619.74Z" style="fill: #fff"/>
    <path d="M782.64,617.59q3.71,4.54,7.41,9.07-1.45-4.92-2.92-9.85Z" style="fill: #fff"/>
    <path d="M782.41,619.61l7.64,7-4.86-10.58C784.26,617.26,783.34,618.44,782.41,619.61Z" style="fill: #fff"/>
    <path d="M779,624.82q3.81-2.25,7.64-4.52l-2.78-4.44Z" style="fill: #fff"/>
    <path d="M779,624.82l7.41-6.61-4.49-2.27Q780.4,620.38,779,624.82Z" style="fill: #fff"/>
    <path d="M813.15,624.11l3,1.45-1-7.42Z" style="fill: #fff"/>
    <path d="M814.05,625.26l3-.59-1.95-6.53Z" style="fill: #fff"/>
    <path d="M814.79,625.93l6.3-2.4-6.3-.89Z" style="fill: #fff"/>
    <path d="M816,626.68l5.1-3.15-7,.22C814.76,624.73,815.38,625.7,816,626.68Z" style="fill: #fff"/>
    <path d="M814.21,626.42c.61-.8,1.23-1.6,1.85-2.39-2.32-.74-4.64-1.47-6.95-2.22Z" style="fill: #fff"/>
    <path d="M815.41,626v-3.28l-6.3-.92Q812.26,623.93,815.41,626Z" style="fill: #fff"/>
    <path d="M813.86,624.62l4.94,5.94L816.86,624Z" style="fill: #fff"/>
    <path d="M813.71,626l5.09,4.59-3.24-7C814.94,624.37,814.32,625.17,813.71,626Z" style="fill: #fff"/>
    <path d="M811.4,629.5l5.09-3.13c-.61-1-1.23-2-1.85-2.92Z" style="fill: #fff"/>
    <path d="M811.4,629.5l4.94-4.53-3-1.44C812.69,625.52,812.05,627.51,811.4,629.5Z" style="fill: #fff"/>
    <path d="M791.07,638.79l3.74,1.87c-.44-3.1-.87-6.19-1.31-9.29Z" style="fill: #fff"/>
    <path d="M792.19,640.24l3.74-.67-2.43-8.2C793.06,634.33,792.63,637.28,792.19,640.24Z" style="fill: #fff"/>
    <path d="M793.11,641.09c2.63-1,5.25-1.9,7.88-2.87-2.63-.4-5.25-.81-7.88-1.24Z" style="fill: #fff"/>
    <path d="M794.62,642.05c2.12-1.27,4.25-2.54,6.37-3.83-2.9.06-5.79.1-8.69.14Q793.47,640.21,794.62,642.05Z" style="fill: #fff"/>
    <path d="M792.38,641.7l2.32-3c-2.9-1-5.79-1.93-8.69-2.91Z" style="fill: #fff"/>
    <path d="M793.89,641.22v-4.11L786,635.83Z" style="fill: #fff"/>
    <path d="M792,639.44l6.18,7.52-2.43-8.19Z" style="fill: #fff"/>
    <path d="M791.76,641.12l6.37,5.84-4.06-8.79Z" style="fill: #fff"/>
    <path d="M788.87,645.48l6.37-3.8L792.93,638Z" style="fill: #fff"/>
    <path d="M788.87,645.48l6.18-5.55-3.75-1.86Z" style="fill: #fff"/>
    <path d="M738,677.52l3.74,2c-.44-3.11-.87-6.22-1.31-9.33Z" style="fill: #fff"/>
    <path d="M739.09,679l3.74-.55-2.43-8.27C740,673.12,739.53,676.06,739.09,679Z" style="fill: #fff"/>
    <path d="M740,679.88c2.63-.86,5.25-1.73,7.88-2.61L740,675.78Z" style="fill: #fff"/>
    <path d="M741.52,680.89l6.37-3.62-8.69-.14C740,678.38,740.75,679.64,741.52,680.89Z" style="fill: #fff"/>
    <path d="M739.28,680.46l2.32-2.87-8.69-3.19Q736.09,677.45,739.28,680.46Z" style="fill: #fff"/>
    <path d="M740.79,680v-4.11c-2.63-.5-5.25-1-7.88-1.52Z" style="fill: #fff"/>
    <path d="M738.85,678.19l6.18,7.73-2.43-8.28Z" style="fill: #fff"/>
    <path d="M738.66,679.87l6.37,6q-2-4.47-4.06-8.93Z" style="fill: #fff"/>
    <path d="M735.77,684.14l6.37-3.6-2.31-3.77Z" style="fill: #fff"/>
    <path d="M735.77,684.14l6.18-5.35-3.75-2Z" style="fill: #fff"/>
    <path d="M738.15,700.79l3,1.59-1-7.46Z" style="fill: #fff"/>
    <path d="M739.05,702l3-.44-1.95-6.62Z" style="fill: #fff"/>
    <path d="M739.79,702.68l6.3-2.08-6.3-1.2Z" style="fill: #fff"/>
    <path d="M741,703.49l5.1-2.89-7-.12Z" style="fill: #fff"/>
    <path d="M739.21,703.15c.61-.77,1.23-1.54,1.85-2.3l-6.95-2.55Z" style="fill: #fff"/>
    <path d="M740.41,702.8v-3.28l-6.3-1.22Z" style="fill: #fff"/>
    <path d="M738.86,701.33l4.94,6.18-1.94-6.62Z" style="fill: #fff"/>
    <path d="M738.71,702.67l5.09,4.84-3.24-7.14Z" style="fill: #fff"/>
    <path d="M736.4,706.09l5.09-2.88c-.61-1-1.23-2-1.85-3Z" style="fill: #fff"/>
    <path d="M736.4,706.09l4.94-4.28-3-1.59Z" style="fill: #fff"/>
    <path d="M760.35,663.64l3,1.55-1.05-7.45Z" style="fill: #fff"/>
    <path d="M761.25,664.82l3-.48-2-6.6Z" style="fill: #fff"/>
    <path d="M762,665.51l6.3-2.16-6.3-1.12Z" style="fill: #fff"/>
    <path d="M763.19,666.3l5.1-2.95-6.95,0Z" style="fill: #fff"/>
    <path d="M761.41,666l1.85-2.32-7-2.47Z" style="fill: #fff"/>
    <path d="M762.61,665.62v-3.28l-6.3-1.15Z" style="fill: #fff"/>
    <path d="M761.06,664.17l4.94,6.12c-.65-2.2-1.29-4.4-1.94-6.6Z" style="fill: #fff"/>
    <path d="M760.91,665.51l5.09,4.78-3.24-7.1Z" style="fill: #fff"/>
    <path d="M758.6,669l5.09-2.94c-.61-1-1.23-2-1.85-3Z" style="fill: #fff"/>
    <path d="M758.6,669l4.94-4.34-3-1.56Z" style="fill: #fff"/>
    <path d="M777.57,655c1.24.64,2.49,1.27,3.74,1.9-.44-3.1-.87-6.2-1.31-9.3Z" style="fill: #fff"/>
    <path d="M778.69,656.47l3.74-.64L780,647.61C779.56,650.56,779.13,653.52,778.69,656.47Z" style="fill: #fff"/>
    <path d="M779.61,657.33l7.88-2.79-7.88-1.32Z" style="fill: #fff"/>
    <path d="M781.12,658.3l6.37-3.76-8.69.05Z" style="fill: #fff"/>
    <path d="M778.88,657.93,781.2,655c-2.9-1-5.79-2-8.69-3Z" style="fill: #fff"/>
    <path d="M780.39,657.46v-4.11c-2.63-.44-5.25-.89-7.88-1.35Q776.46,654.75,780.39,657.46Z" style="fill: #fff"/>
    <path d="M778.45,655.67l6.18,7.58L782.2,655Z" style="fill: #fff"/>
    <path d="M778.26,657.35l6.37,5.9-4.06-8.83Z" style="fill: #fff"/>
    <path d="M775.37,661.68l6.37-3.74-2.31-3.72Z" style="fill: #fff"/>
    <path d="M775.37,661.68l6.18-5.49-3.75-1.9Z" style="fill: #fff"/>
    <path d="M737.55,655l3,1.59-1-7.47Z" style="fill: #fff"/>
    <path d="M738.45,656.18l3-.44-2-6.63Z" style="fill: #fff"/>
    <path d="M739.19,656.88l6.3-2.08-6.3-1.2Z" style="fill: #fff"/>
    <path d="M740.39,657.69l5.1-2.89-7-.12Z" style="fill: #fff"/>
    <path d="M738.61,657.35l1.85-2.31-7-2.54Z" style="fill: #fff"/>
    <path d="M739.81,657v-3.29l-6.3-1.21Z" style="fill: #fff"/>
    <path d="M738.26,655.53l4.94,6.18-1.94-6.62Z" style="fill: #fff"/>
    <path d="M738.11,656.87l5.09,4.84L740,654.57C739.34,655.34,738.72,656.1,738.11,656.87Z" style="fill: #fff"/>
    <path d="M735.8,660.29l5.09-2.88c-.61-1-1.23-2-1.85-3Z" style="fill: #fff"/>
    <path d="M735.8,660.29l4.94-4.28-3-1.6C737.09,656.37,736.45,658.33,735.8,660.29Z" style="fill: #fff"/>
    <path d="M543.57,496.62l3.74,2c-.44-3.11-.87-6.23-1.31-9.35Z" style="fill: #fff"/>
    <path d="M544.69,498.12l3.74-.51L546,489.3C545.56,492.24,545.13,495.18,544.69,498.12Z" style="fill: #fff"/>
    <path d="M545.61,499l7.88-2.5-7.88-1.61Z" style="fill: #fff"/>
    <path d="M547.12,500l6.37-3.53-8.69-.27Z" style="fill: #fff"/>
    <path d="M544.88,499.58l2.32-2.85-8.69-3.26Z" style="fill: #fff"/>
    <path d="M546.39,499.17v-4.11l-7.88-1.59Z" style="fill: #fff"/>
    <path d="M544.45,497.31c2.06,2.6,4.12,5.19,6.18,7.8l-2.43-8.31Z" style="fill: #fff"/>
    <path d="M544.26,499l6.37,6.13q-2-4.5-4.06-9Z" style="fill: #fff"/>
    <path d="M541.37,503.23l6.37-3.54-2.31-3.79C544.08,498.34,542.72,500.78,541.37,503.23Z" style="fill: #fff"/>
    <path d="M541.37,503.23l6.18-5.29-3.75-2Z" style="fill: #fff"/>
    <path d="M688.05,506.64l3,1.65-1-7.49Z" style="fill: #fff"/>
    <path d="M689,507.85l3-.39-2-6.66Z" style="fill: #fff"/>
    <path d="M689.69,508.56l6.3-2-6.3-1.32Z" style="fill: #fff"/>
    <path d="M690.89,509.39l5.1-2.79-7-.25Z" style="fill: #fff"/>
    <path d="M689.11,509c.61-.76,1.23-1.52,1.85-2.27l-7-2.67Z" style="fill: #fff"/>
    <path d="M690.31,508.69v-3.28l-6.3-1.33Z" style="fill: #fff"/>
    <path d="M688.76,507.19l4.94,6.28c-.65-2.22-1.29-4.44-1.94-6.66Z" style="fill: #fff"/>
    <path d="M688.61,508.53l5.09,4.94-3.24-7.21Z" style="fill: #fff"/>
    <path d="M686.3,511.91l5.09-2.79c-.61-1-1.23-2-1.85-3.05Z" style="fill: #fff"/>
    <path d="M686.3,511.91l4.94-4.19-3-1.65Z" style="fill: #fff"/>
    <path d="M627.08,608.17l4.49,2.5q-.78-5.62-1.57-11.24Z" style="fill: #fff"/>
    <path d="M628.43,610l4.49-.54q-1.45-5-2.92-10Q629.22,604.71,628.43,610Z" style="fill: #fff"/>
    <path d="M629.54,611.07,639,608.2l-9.45-2.06Z" style="fill: #fff"/>
    <path d="M631.34,612.33,639,608.2l-10.42-.47C629.49,609.27,630.42,610.8,631.34,612.33Z" style="fill: #fff"/>
    <path d="M628.66,611.74l2.77-3.38L621,604.28Z" style="fill: #fff"/>
    <path d="M630.46,611.27v-4.93L621,604.28Z" style="fill: #fff"/>
    <path d="M628.14,609l7.41,9.47q-1.45-5-2.92-10Z" style="fill: #fff"/>
    <path d="M627.91,611l7.64,7.46-4.86-10.84Z" style="fill: #fff"/>
    <path d="M624.45,616.05l7.64-4.13-2.78-4.59Z" style="fill: #fff"/>
    <path d="M624.45,616.05l7.41-6.23-4.49-2.51Q625.9,611.69,624.45,616.05Z" style="fill: #fff"/>
    <path d="M653.07,568.22l3.74,2.08c-.44-3.12-.87-6.24-1.31-9.36Z" style="fill: #fff"/>
    <path d="M654.19,569.73l3.74-.46-2.43-8.33C655.06,563.87,654.63,566.8,654.19,569.73Z" style="fill: #fff"/>
    <path d="M655.11,570.64l7.88-2.41-7.88-1.7Z" style="fill: #fff"/>
    <path d="M656.62,571.68l6.37-3.45-8.69-.37C655.08,569.13,655.85,570.41,656.62,571.68Z" style="fill: #fff"/>
    <path d="M654.38,571.2l2.32-2.82L648,565Z" style="fill: #fff"/>
    <path d="M655.89,570.8v-4.11L648,565Z" style="fill: #fff"/>
    <path d="M654,568.92l6.18,7.88-2.43-8.34Z" style="fill: #fff"/>
    <path d="M653.76,570.59l6.37,6.21-4.06-9Z" style="fill: #fff"/>
    <path d="M650.87,574.79l6.37-3.45-2.31-3.82Z" style="fill: #fff"/>
    <path d="M650.87,574.79l6.18-5.2-3.75-2.08Z" style="fill: #fff"/>
    <path d="M627.57,542l3.74,2.09c-.44-3.12-.87-6.24-1.31-9.37Z" style="fill: #fff"/>
    <path d="M628.69,543.53l3.74-.45L630,534.73C629.56,537.66,629.13,540.6,628.69,543.53Z" style="fill: #fff"/>
    <path d="M629.61,544.43l7.88-2.39-7.88-1.72Z" style="fill: #fff"/>
    <path d="M631.12,545.48l6.37-3.44-8.69-.39Z" style="fill: #fff"/>
    <path d="M628.88,545l2.32-2.82-8.69-3.39Z" style="fill: #fff"/>
    <path d="M630.39,544.6v-4.11l-7.88-1.71Z" style="fill: #fff"/>
    <path d="M628.45,542.71l6.18,7.89-2.43-8.34Z" style="fill: #fff"/>
    <path d="M628.26,544.38l6.37,6.22-4.06-9Z" style="fill: #fff"/>
    <path d="M625.37,548.58l6.37-3.44-2.31-3.82Z" style="fill: #fff"/>
    <path d="M625.37,548.58l6.18-5.19-3.75-2.09Z" style="fill: #fff"/>
    <path d="M605.85,558l3,1.67-1.05-7.5Z" style="fill: #fff"/>
    <path d="M606.75,559.23l3-.36-2-6.68Z" style="fill: #fff"/>
    <path d="M607.49,560l6.3-1.91-6.3-1.37Z" style="fill: #fff"/>
    <path d="M608.69,560.79l5.1-2.75-6.95-.31C607.46,558.75,608.08,559.77,608.69,560.79Z" style="fill: #fff"/>
    <path d="M606.91,560.4l1.85-2.25-7-2.71Z" style="fill: #fff"/>
    <path d="M608.11,560.09V556.8l-6.3-1.36Z" style="fill: #fff"/>
    <path d="M606.56,558.58q2.48,3.15,4.94,6.31l-1.94-6.68Z" style="fill: #fff"/>
    <path d="M606.41,559.92l5.09,5-3.24-7.23Z" style="fill: #fff"/>
    <path d="M604.1,563.28l5.09-2.76c-.61-1-1.23-2-1.85-3.06Z" style="fill: #fff"/>
    <path d="M604.1,563.28l4.94-4.16-3-1.67C605.39,559.39,604.75,561.34,604.1,563.28Z" style="fill: #fff"/>
    <path d="M617.51,576.61l2.14,1.19-.75-5.35C618.44,573.83,618,575.22,617.51,576.61Z" style="fill: #fff"/>
    <path d="M618.15,577.47l2.14-.26c-.46-1.59-.93-3.18-1.39-4.76Z" style="fill: #fff"/>
    <path d="M618.68,578l4.5-1.37-4.5-1Z" style="fill: #fff"/>
    <path d="M619.54,578.59l3.64-2-5-.22Z" style="fill: #fff"/>
    <path d="M618.26,578.31l1.32-1.61-5-1.94Z" style="fill: #fff"/>
    <path d="M619.12,578.08v-2.34l-4.5-1Z" style="fill: #fff"/>
    <path d="M618,577l3.53,4.51q-.69-2.38-1.39-4.76Z" style="fill: #fff"/>
    <path d="M617.9,578l3.64,3.55-2.31-5.16Z" style="fill: #fff"/>
    <path d="M616.25,580.36l3.65-2c-.45-.72-.89-1.45-1.33-2.18C617.8,577.59,617,579,616.25,580.36Z" style="fill: #fff"/>
    <path d="M616.25,580.36l3.54-3-2.14-1.19Z" style="fill: #fff"/>
    <path d="M693.57,674.2l3.74,2c-.44-3.12-.87-6.24-1.31-9.36Z" style="fill: #fff"/>
    <path d="M694.69,675.7l3.74-.49L696,666.89C695.56,669.83,695.13,672.76,694.69,675.7Z" style="fill: #fff"/>
    <path d="M695.61,676.59l7.88-2.47-7.88-1.63Z" style="fill: #fff"/>
    <path d="M697.12,677.63l6.37-3.51c-2.9-.09-5.79-.19-8.69-.3Q696,675.73,697.12,677.63Z" style="fill: #fff"/>
    <path d="M694.88,677.16l2.32-2.84L688.51,671Z" style="fill: #fff"/>
    <path d="M696.39,676.76v-4.11L688.51,671Z" style="fill: #fff"/>
    <path d="M694.45,674.88l6.18,7.83-2.43-8.31Z" style="fill: #fff"/>
    <path d="M694.26,676.56l6.37,6.15q-2-4.49-4.06-9Z" style="fill: #fff"/>
    <path d="M691.37,680.78l6.37-3.49-2.31-3.81C694.08,675.92,692.72,678.35,691.37,680.78Z" style="fill: #fff"/>
    <path d="M691.37,680.78l6.18-5.25-3.75-2Z" style="fill: #fff"/>
    <path d="M713,657.94l3,1.62-1.05-7.48Z" style="fill: #fff"/>
    <path d="M713.85,659.13l3-.41-2-6.64Z" style="fill: #fff"/>
    <path d="M714.59,659.85l6.3-2-6.3-1.27Z" style="fill: #fff"/>
    <path d="M715.79,660.67l5.1-2.84-6.95-.2C714.56,658.64,715.18,659.65,715.79,660.67Z" style="fill: #fff"/>
    <path d="M714,660.3l1.85-2.28-7-2.62Z" style="fill: #fff"/>
    <path d="M715.21,660v-3.29l-6.3-1.28Z" style="fill: #fff"/>
    <path d="M713.66,658.48l4.94,6.24-1.94-6.65Z" style="fill: #fff"/>
    <path d="M713.51,659.82l5.09,4.9-3.24-7.18Z" style="fill: #fff"/>
    <path d="M711.2,663.22l5.09-2.83c-.61-1-1.23-2-1.85-3Z" style="fill: #fff"/>
    <path d="M711.2,663.22l4.94-4.23-3-1.63C712.49,659.31,711.85,661.27,711.2,663.22Z" style="fill: #fff"/>
    <path d="M676.65,644.73l3,1.65-1-7.49Z" style="fill: #fff"/>
    <path d="M677.55,645.93l3-.37-1.95-6.67Z" style="fill: #fff"/>
    <path d="M678.29,646.65l6.3-1.95-6.3-1.33Z" style="fill: #fff"/>
    <path d="M679.49,647.49l5.1-2.79-7-.27C678.26,645.45,678.88,646.47,679.49,647.49Z" style="fill: #fff"/>
    <path d="M677.71,647.1l1.85-2.26-6.95-2.69C674.31,643.8,676,645.46,677.71,647.1Z" style="fill: #fff"/>
    <path d="M678.91,646.78V643.5l-6.3-1.35Z" style="fill: #fff"/>
    <path d="M677.36,645.28c1.65,2.1,3.3,4.19,4.94,6.29-.65-2.22-1.29-4.44-1.94-6.67Z" style="fill: #fff"/>
    <path d="M677.21,646.62l5.09,5-3.24-7.21Z" style="fill: #fff"/>
    <path d="M674.9,650l5.09-2.78-1.85-3.05Z" style="fill: #fff"/>
    <path d="M674.9,650l4.94-4.18-3-1.65C676.2,646.1,675.55,648.05,674.9,650Z" style="fill: #fff"/>
    <path d="M538.58,608.2l4.49,2.42q-.78-5.61-1.57-11.21C540.53,602.34,539.55,605.27,538.58,608.2Z" style="fill: #fff"/>
    <path d="M539.93,610l4.49-.62q-1.45-5-2.92-10Q540.72,604.69,539.93,610Z" style="fill: #fff"/>
    <path d="M541,611.05l9.45-3L541,606.12Z" style="fill: #fff"/>
    <path d="M542.84,612.28l7.65-4.24-10.42-.3Z" style="fill: #fff"/>
    <path d="M540.16,611.74l2.78-3.43q-5.22-1.95-10.43-3.88Z" style="fill: #fff"/>
    <path d="M542,611.24v-4.93l-9.45-1.88Z" style="fill: #fff"/>
    <path d="M539.64,609l7.41,9.35q-1.45-5-2.92-10Z" style="fill: #fff"/>
    <path d="M539.41,611l7.64,7.34-4.86-10.76Z" style="fill: #fff"/>
    <path d="M536,616.13q3.81-2.14,7.64-4.26c-.93-1.52-1.85-3-2.78-4.55Z" style="fill: #fff"/>
    <path d="M536,616.13l7.41-6.37-4.49-2.43Q537.4,611.74,536,616.13Z" style="fill: #fff"/>
    <path d="M629,685.58l1.49.84c-.17-1.25-.35-2.5-.52-3.75Z" style="fill: #fff"/>
    <path d="M629.48,686.19,631,686l-1-3.34C629.83,683.84,629.65,685,629.48,686.19Z" style="fill: #fff"/>
    <path d="M629.85,686.55l3.15-1-3.15-.69Z" style="fill: #fff"/>
    <path d="M630.45,687l2.55-1.38-3.48-.15Z" style="fill: #fff"/>
    <path d="M629.55,686.77l.93-1.13L627,684.29Z" style="fill: #fff"/>
    <path d="M630.15,686.61V685l-3.15-.68Z" style="fill: #fff"/>
    <path d="M629.38,685.86c.82,1,1.65,2.1,2.47,3.16-.32-1.12-.65-2.23-1-3.34Z" style="fill: #fff"/>
    <path d="M629.3,686.53l2.55,2.49-1.62-3.62Z" style="fill: #fff"/>
    <path d="M628.15,688.21l2.55-1.38-.93-1.53Z" style="fill: #fff"/>
    <path d="M628.15,688.21l2.47-2.08-1.5-.83Z" style="fill: #fff"/>
  </g>
</svg>
