<svg xmlns="http://www.w3.org/2000/svg" viewBox="0 0 1260 1012.04">
  <g>
    <path d="M0,90.08v920C420,738.76,840,1193.28,1260,922V2C840,273.28,420-181.24,0,90.08Z" style="fill: #c8313e"/>
    <path d="M0,1010.08C420,738.76,840,1193.28,1260,922V615.3C840,886.62,420,432.09,0,703.41Z" style="fill: #4aa657"/>
    <path d="M140,24.53C93.33,38.74,46.67,59.93,0,90.08v920c46.67-30.15,93.33-51.34,140-65.55Z" style="fill: #fff"/>
    <path d="M24.35,165.64q3-1.77,6.08-3.48v15.08q3-1.73,6.09-3.39V158.77q3-1.67,6.09-3.29V140.39q3-1.62,6.09-3.19V122.12q-3,1.57-6.09,3.19V110.23q-3,1.62-6.09,3.29V98.44q-3,1.66-6.09,3.39v15.08q-3,1.73-6.08,3.49v15.08q-3,1.77-6.09,3.58v15.08q3-1.81,6.09-3.58ZM30.43,132q3-1.71,6.09-3.38v15.08q-3,1.67-6.09,3.38Z" style="fill: #c8313e;fill-rule: evenodd"/>
    <path d="M36.52,128.61q-3,1.66-6.09,3.38v15.08q3-1.71,6.09-3.38Z" style="fill: #c8313e;fill-rule: evenodd"/>
    <path d="M6.09,176.69c2-1.28,4.05-2.54,6.08-3.78V188c2-1.25,4.06-2.47,6.09-3.68v15.08c2-1.21,4.06-2.41,6.09-3.58v15.08q3-1.77,6.08-3.49v15.08q3-1.71,6.09-3.38V204q3-1.66,6.09-3.29V185.64q3-1.62,6.09-3.2V167.36q3-1.58,6.08-3.1V149.18q3-1.53,6.09-3V131.08q3-1.49,6.09-2.92V113.08q-3,1.44-6.09,2.92V100.92q-3,1.48-6.09,3V88.85q-3,1.53-6.08,3.1V76.87q-3,1.57-6.09,3.2V65q-9.13,4.86-18.26,10.16V90.23q-3,1.77-6.09,3.58V108.9c-2,1.21-4.06,2.43-6.09,3.68v15.08c-2,1.24-4.05,2.5-6.08,3.78v15.08Q3,148.44,0,150.4v15.09c2-1.32,4.06-2.61,6.09-3.89Zm12.17-37.63q3-1.81,6.09-3.58V120.4q3-1.77,6.08-3.49V101.83q3-1.72,6.09-3.39v15.08q3-1.67,6.09-3.29v15.08q3-1.62,6.09-3.19V137.2q-3,1.58-6.09,3.19v15.09q-3,1.62-6.09,3.29v15.08q-3,1.67-6.09,3.39V162.16q-3,1.71-6.08,3.48V150.56q-3,1.77-6.09,3.58Z" style="fill: #c8313e;fill-rule: evenodd"/>
    <path d="M6.09,191.77Q3,193.69,0,195.65v15.08q3-2,6.09-3.88Z" style="fill: #c8313e;fill-rule: evenodd"/>
    <path d="M6.09,101.28c-2,1.27-4.06,2.57-6.09,3.88v15.08q3-2,6.09-3.88Z" style="fill: #c8313e;fill-rule: evenodd"/>
    <path d="M70.61,81.21V51.05L67,52.75V82.92C68.17,82.34,69.39,81.77,70.61,81.21Z" style="fill: #c8313e;fill-rule: evenodd"/>
    <path d="M67,188.49l3.65-1.71V156.62c-1.22.56-2.44,1.13-3.65,1.71Z" style="fill: #c8313e;fill-rule: evenodd"/>
    <path d="M67,218.66c-2,1-4.06,1.93-6.09,2.91V206.49q-3,1.48-6.09,3V194.42q-3,1.53-6.08,3.11v15.08q-3,1.57-6.09,3.19v15.09q-3,1.62-6.09,3.29v15.08q3-1.66,6.09-3.29v15.08q3-1.62,6.09-3.2v15.09c2-1.06,4-2.09,6.08-3.11V254.75q3-1.53,6.09-3V236.66q3-1.49,6.09-2.92Zm-12.18,21q-3,1.53-6.08,3.1V227.69c2-1.05,4-2.09,6.08-3.1Z" style="fill: #c8313e;fill-rule: evenodd"/>
    <path d="M67,294.07c1.21-.58,2.43-1.15,3.65-1.71V262.19L67,263.9Z" style="fill: #c8313e;fill-rule: evenodd"/>
    <path d="M18.26,244.63q-3,1.81-6.09,3.69V263.4c2-1.25,4.06-2.47,6.09-3.68Z" style="fill: #c8313e;fill-rule: evenodd"/>
    <path d="M48.7,242.77q3-1.58,6.08-3.1V224.59c-2,1-4.06,2-6.08,3.1Z" style="fill: #c8313e;fill-rule: evenodd"/>
    <path d="M6.09,312.42C4.06,313.7,2,315,0,316.31v15.08c2-1.31,4.06-2.61,6.09-3.88Z" style="fill: #c8313e;fill-rule: evenodd"/>
    <path d="M6.09,282.26c2-1.28,4.05-2.54,6.08-3.78v15.08q3-1.86,6.09-3.68V274.8c2-1.21,4.06-2.41,6.09-3.58V256.13c2-1.17,4.06-2.34,6.08-3.48V237.57q-3,1.71-6.08,3.48V226q-3,1.77-6.09,3.58V214.47q-3,1.82-6.09,3.68v15.08c-2,1.25-4.05,2.51-6.08,3.78V252.1C4.06,253.37,2,254.67,0,256v15.08c2-1.31,4.06-2.61,6.09-3.88Zm6.08-33.94q3-1.87,6.09-3.69v15.09c-2,1.21-4.06,2.43-6.09,3.68Z" style="fill: #c8313e;fill-rule: evenodd"/>
    <path d="M6.09,418c-2,1.27-4.06,2.57-6.09,3.88V437q3-2,6.09-3.88Z" style="fill: #c8313e;fill-rule: evenodd"/>
    <path d="M6.09,508.49c2-1.28,4.05-2.54,6.08-3.78v15.08q3-1.86,6.09-3.68v15.08q3-1.82,6.09-3.58v9q6.09-3.54,12.17-6.87V490.57q3-1.67,6.09-3.29V472.2q3-1.62,6.09-3.2V453.92q3-1.57,6.08-3.11V435.73q3-1.53,6.09-3V417.64q3-1.49,6.09-2.92V399.64c1.21-.58,2.43-1.14,3.65-1.71V337.6L67,339.31V324.23q-3,1.44-6.09,2.92V312.07c-2,1-4.06,2-6.09,3V300c-2,1-4.06,2.05-6.08,3.1V288q-3,1.58-6.09,3.19V276.13q-3,1.62-6.09,3.29V264.34q-3,1.68-6.09,3.39v15.08q-3,1.72-6.08,3.49v15.08q-3,1.77-6.09,3.58V320q-3,1.81-6.09,3.69v15.08c-2,1.24-4.05,2.5-6.08,3.78v15.08Q3,359.59,0,361.55v30.17c2-1.32,4.06-2.61,6.09-3.89v15.09c2-1.28,4.05-2.54,6.08-3.79v15.09c2-1.25,4.06-2.47,6.09-3.68v15.08c2-1.21,4.06-2.41,6.09-3.58V407c2-1.17,4.06-2.34,6.08-3.48V388.39q3-1.72,6.09-3.39V369.92q-6.09,3.33-12.17,6.87V361.71q9.12-5.31,18.26-10.17v15.08q3-1.62,6.09-3.19v15.08c2-1.05,4-2.09,6.08-3.1v15.08q-3,1.53-6.08,3.1v15.08q-3,1.57-6.09,3.2V427q-3,1.62-6.09,3.29v15.09q-3,1.67-6.09,3.38V463.8q-3,1.71-6.08,3.48v15.08c-2,1.18-4.06,2.37-6.09,3.59V470.86q-3,1.81-6.09,3.68V459.46c-2,1.25-4.05,2.51-6.08,3.78V448.16Q3,450.08,0,452v45.25c2-1.31,4.06-2.61,6.09-3.88Z" style="fill: #c8313e;fill-rule: evenodd"/>
    <path d="M67,444.88l3.65-1.7V428.1L67,429.8Z" style="fill: #c8313e;fill-rule: evenodd"/>
    <path d="M42.61,526.49q3-1.62,6.09-3.19v-9q-3,1.57-6.09,3.19Z" style="fill: #c8313e;fill-rule: evenodd"/>
    <path d="M67,475.05q-3,1.44-6.09,2.92V462.89c-2,1-4.06,2-6.09,3v30.16q3-1.53,6.09-3v15.08q3-1.49,6.09-2.92v9.05l3.65-1.71V488.42L67,490.13Z" style="fill: #c8313e;fill-rule: evenodd"/>
    <path d="M73,155.5l-3.65,1.69v30.16L73,185.66Z" style="fill: #c8313e;fill-rule: evenodd"/>
    <path d="M69.39,292.92,73,291.24V261.07l-3.65,1.69Z" style="fill: #c8313e;fill-rule: evenodd"/>
    <path d="M73,80.09V49.93l-3.65,1.68V81.78Z" style="fill: #c8313e;fill-rule: evenodd"/>
    <path d="M109.57,95.14q-3,1.13-6.09,2.3v15.08q3-1.17,6.09-2.3Z" style="fill: #c8313e;fill-rule: evenodd"/>
    <path d="M85.22,225.52q3-1.31,6.08-2.56V207.88q-3,1.26-6.08,2.56Z" style="fill: #c8313e;fill-rule: evenodd"/>
    <path d="M91.3,57.06V72.14q-3,1.26-6.08,2.56V89.78c-2,.87-4.06,1.76-6.09,2.65v15.09c-2,.89-4.06,1.81-6.09,2.73v15.09c2-.93,4.06-1.85,6.09-2.74v15.08q3-1.35,6.09-2.65v15.08q3-1.31,6.08-2.56v15.08q3-1.26,6.09-2.47v15.08q3-1.22,6.09-2.39v15.08q3-1.17,6.09-2.3V170.55q3-1.14,6.08-2.22V153.24q3-1.08,6.09-2.13V136q3-1,6.09-2.06V118.89c2-.67,4-1.33,6.08-2V101.83q3-1,6.09-1.89V84.86c-2,.61-4.06,1.25-6.09,1.89V71.67c-2,.64-4,1.3-6.08,2V58.56q-3,1-6.09,2.06V45.53q-3,1-6.09,2.14V32.59q-9.12,3.27-18.26,6.91V54.58Q94.35,55.8,91.3,57.06Zm12.18,25.3V67.28c2-.79,4.06-1.55,6.09-2.31V80.05q3-1.12,6.08-2.22V92.92q3-1.1,6.09-2.14v15.08q-3,1-6.09,2.14v15.08q-3,1.1-6.08,2.22v15.08c-2,.76-4.06,1.52-6.09,2.31V127.6c-2,.79-4.06,1.58-6.09,2.39V114.91q-3,1.22-6.09,2.48V102.3q3-1.26,6.09-2.47V84.75Q100.44,83.54,103.48,82.36Z" style="fill: #c8313e;fill-rule: evenodd"/>
    <path d="M97.39,99.83q-3,1.22-6.09,2.47v15.09q3-1.26,6.09-2.48V130c2-.81,4.06-1.6,6.09-2.39v15.09c2-.79,4.06-1.55,6.09-2.31V125.3q3-1.12,6.08-2.22V108q3-1.09,6.09-2.14V90.78q-3,1.05-6.09,2.14V77.83q-3,1.1-6.08,2.22V65c-2,.76-4.06,1.52-6.09,2.31V82.36q-3,1.17-6.09,2.39Zm6.09-2.39q3-1.17,6.09-2.3v15.08q-3,1.13-6.09,2.3Z" style="fill: #c8313e;fill-rule: evenodd"/>
    <path d="M133.91,177.24c-2,.65-4,1.3-6.08,2V164.13c-2,.68-4.06,1.36-6.09,2.06v15.08q-3,1-6.09,2.14v15.08q-3,1.09-6.08,2.22v15.08q3-1.12,6.08-2.22v15.08q3-1.08,6.09-2.13V241.6c2-.7,4.06-1.38,6.09-2.06V224.46c2-.67,4-1.33,6.08-2V207.41q3-1,6.09-1.9V190.43l-6.09,1.89Zm-6.08,32.14q-3,1-6.09,2.06V196.35q3-1,6.09-2Z" style="fill: #c8313e;fill-rule: evenodd"/>
    <path d="M97.39,190.32q-3,1.22-6.09,2.48V177.71q-3,1.26-6.08,2.57v15.08q-3,1.3-6.09,2.65v15.08q-3,1.35-6.09,2.74v15.08q3-1.4,6.09-2.74v15.08q3-1.35,6.09-2.65v15.09q3-1.31,6.08-2.57V238q3-1.26,6.09-2.47V220.48q3-1.22,6.09-2.38V203c-2,.79-4.06,1.58-6.09,2.39ZM91.3,223q-3,1.26-6.08,2.56V210.44q3-1.31,6.08-2.56Z" style="fill: #c8313e;fill-rule: evenodd"/>
    <path d="M133.91,56.59q3-1,6.09-1.9V39.61q-3,.93-6.09,1.89Z" style="fill: #c8313e;fill-rule: evenodd"/>
    <path d="M133.91,147.08q3-1,6.09-1.9V130.1q-3,.93-6.09,1.9Z" style="fill: #c8313e;fill-rule: evenodd"/>
    <path d="M121.74,211.44q3-1,6.09-2.06V194.3q-3,1-6.09,2Z" style="fill: #c8313e;fill-rule: evenodd"/>
    <path d="M133.91,267.73q3-1,6.09-1.89V250.76q-3,.93-6.09,1.89Z" style="fill: #c8313e;fill-rule: evenodd"/>
    <path d="M79.13,469.48q-3,1.35-6.09,2.74V487.3L69.39,489v24.13L73,511.43v-9.05c2-.92,4.06-1.84,6.09-2.73V484.56c2-.89,4.06-1.78,6.09-2.65V451.75q-3,1.31-6.09,2.65Z" style="fill: #c8313e;fill-rule: evenodd"/>
    <path d="M91.3,503.48q3-1.26,6.09-2.47V492q-3,1.21-6.09,2.48Z" style="fill: #c8313e;fill-rule: evenodd"/>
    <path d="M73,427l-3.65,1.69v15.08L73,442.06Z" style="fill: #c8313e;fill-rule: evenodd"/>
    <path d="M133.91,282.82c-2,.64-4,1.3-6.08,2V269.71q-3,1-6.09,2.05V256.68q-3,1.05-6.09,2.14V243.74q-3,1.08-6.08,2.22V230.87q-3,1.14-6.09,2.31v15.08q-3,1.17-6.09,2.39v15.08q-3,1.22-6.09,2.48v15.08q-3,1.26-6.08,2.56v15.08q-3,1.31-6.09,2.65v15.08q-3,1.35-6.09,2.74v15.08l-3.65,1.69V398.5L73,396.81v15.08c2-.92,4.06-1.84,6.09-2.74v15.09q3-1.35,6.09-2.65v15.08q3-1.31,6.08-2.56v15.08q3-1.26,6.09-2.48V461.8q3-1.21,6.09-2.39v39.21q6.09-2.34,12.17-4.52v-9.05q3-1.1,6.09-2.14V467.83c2-.7,4.06-1.38,6.09-2.06V450.69c2-.67,4-1.33,6.08-2V433.64q3-1,6.09-1.9V386.5c-2,.61-4.06,1.25-6.09,1.89v15.08c-2,.65-4,1.3-6.08,2v15.08q-3,1-6.09,2.05v15.08c-2,.7-4.06,1.42-6.09,2.14V424.72q-3,1.09-6.08,2.22V411.86q-3,1.13-6.09,2.3V399.08q-3,1.17-6.09,2.39V386.39q-3,1.22-6.09,2.47V373.78q-3,1.26-6.08,2.56V361.26q3-1.31,6.08-2.56V343.62q3-1.26,6.09-2.48V326.06q9.14-3.65,18.26-6.91v15.08q-6.09,2.17-12.17,4.52v15.08q3-1.17,6.09-2.3v15.08q3-1.12,6.08-2.22v15.08l6.09-2.13V362.25c2-.69,4.06-1.38,6.09-2.05V345.12c2-.67,4-1.33,6.08-2V328.06l6.09-1.89V296q-3,.93-6.09,1.9Z" style="fill: #c8313e;fill-rule: evenodd"/>
    <path d="M133.91,373.31q3-1,6.09-1.9V356.33q-3,.93-6.09,1.9Z" style="fill: #c8313e;fill-rule: evenodd"/>
    <path d="M6.09,885.54Q3,887.46,0,889.42V904.5q3-2,6.09-3.88Z" style="fill: #c8313e;fill-rule: evenodd"/>
    <path d="M24.35,949.9c2-1.17,4.06-2.34,6.08-3.48V961.5l6.09-3.39V943q3-1.66,6.09-3.29V924.66q3-1.62,6.09-3.2V906.38c-2,1-4.06,2.11-6.09,3.2V894.49q-3,1.62-6.09,3.3V882.7l-6.09,3.39v15.08q-3,1.73-6.08,3.49v15.08q-3,1.77-6.09,3.58V938.4q3-1.81,6.09-3.58Zm6.08-33.64q3-1.72,6.09-3.39V928q-3,1.66-6.09,3.39Z" style="fill: #c8313e;fill-rule: evenodd"/>
    <path d="M36.52,912.87q-3,1.67-6.09,3.39v15.08q3-1.73,6.09-3.39Z" style="fill: #c8313e;fill-rule: evenodd"/>
    <path d="M6.09,764.88Q3,766.8,0,768.76v15.09q3-2,6.09-3.89Z" style="fill: #c8313e;fill-rule: evenodd"/>
    <path d="M18.26,817.75q-3,1.82-6.09,3.68v15.08q3-1.86,6.09-3.68Z" style="fill: #c8313e;fill-rule: evenodd"/>
    <path d="M6.09,855.37c2-1.27,4.05-2.53,6.08-3.78v15.09c2-1.25,4.06-2.47,6.09-3.69V847.91q3-1.81,6.09-3.58V829.25q3-1.77,6.08-3.49V810.68q-3,1.73-6.08,3.49V799.08q-3,1.77-6.09,3.59V787.58c-2,1.22-4.06,2.44-6.09,3.69v15.08c-2,1.24-4.05,2.5-6.08,3.78v15.08Q3,827.13,0,829.09v15.08q3-2,6.09-3.88Zm6.08-33.94q3-1.86,6.09-3.68v15.08q-3,1.81-6.09,3.68Z" style="fill: #c8313e;fill-rule: evenodd"/>
    <path d="M67,791.77q-3,1.44-6.09,2.92V779.61q-3,1.49-6.09,3V767.54q-3,1.53-6.08,3.1v15.08q-3,1.57-6.09,3.2V804q-3,1.62-6.09,3.29v15.09q3-1.68,6.09-3.3v15.09c2-1.09,4.06-2.15,6.09-3.2v15.08q3-1.57,6.08-3.1V827.86c2-1,4.06-2,6.09-3V809.77q3-1.49,6.09-2.92Zm-12.18,21q-3,1.53-6.08,3.11V800.8q3-1.57,6.08-3.1Z" style="fill: #c8313e;fill-rule: evenodd"/>
    <path d="M6.09,961c2-1.28,4.05-2.54,6.08-3.78v15.08q3-1.86,6.09-3.68v15.08q3-1.81,6.09-3.58v15.08q9.12-5.29,18.26-10.16V969.9q3-1.62,6.09-3.19V951.62q3-1.57,6.08-3.1V933.44q3-1.53,6.09-3V915.35c2-1,4.06-2,6.09-2.92V897.34q-3,1.44-6.09,2.92V885.18q-3,1.49-6.09,3V873.11q-3,1.53-6.08,3.1V861.13q-3,1.57-6.09,3.2V849.25q-3,1.62-6.09,3.29V837.46q-3,1.66-6.09,3.39v15.08q-3,1.71-6.08,3.48v15.08q-3,1.77-6.09,3.59v15.08q-3,1.82-6.09,3.68v15.08c-2,1.25-4.05,2.51-6.08,3.78v15.08Q3,932.7,0,934.67v15.08c2-1.31,4.06-2.61,6.09-3.88Zm12.17-37.63q3-1.82,6.09-3.58V904.66q3-1.77,6.08-3.49V886.09l6.09-3.39v15.09q3-1.68,6.09-3.3v15.09c2-1.09,4.06-2.15,6.09-3.2v15.08q-3,1.57-6.09,3.2v15.08q-3,1.62-6.09,3.29v15.08l-6.09,3.39V946.42c-2,1.14-4.05,2.31-6.08,3.48V934.82q-3,1.77-6.09,3.58Z" style="fill: #c8313e;fill-rule: evenodd"/>
    <path d="M67,867.18l3.65-1.71V835.31c-1.22.56-2.44,1.13-3.65,1.71Z" style="fill: #c8313e;fill-rule: evenodd"/>
    <path d="M67,761.61c1.21-.58,2.43-1.15,3.65-1.71V729.73L67,731.44Z" style="fill: #c8313e;fill-rule: evenodd"/>
    <path d="M67,972.75l3.65-1.7V940.88L67,942.59Z" style="fill: #c8313e;fill-rule: evenodd"/>
    <path d="M48.7,815.89q3-1.57,6.08-3.11V797.7q-3,1.53-6.08,3.1Z" style="fill: #c8313e;fill-rule: evenodd"/>
    <path d="M6.09,976Q3,978,0,979.91V995q3-2,6.09-3.88Z" style="fill: #c8313e;fill-rule: evenodd"/>
    <path d="M6.09,659.31Q3,661.23,0,663.19v15.08q3-2,6.09-3.88Z" style="fill: #c8313e;fill-rule: evenodd"/>
    <path d="M6.09,749.8c2-1.28,4.05-2.54,6.08-3.78V761.1q3-1.86,6.09-3.68V772.5q3-1.82,6.09-3.58V784q3-1.77,6.08-3.48V795.6c2-1.15,4.06-2.27,6.09-3.39V777.13q3-1.67,6.09-3.29V758.76c2-1.09,4.06-2.15,6.09-3.2V740.48q3-1.58,6.08-3.11V722.29q3-1.53,6.09-3V704.2q3-1.49,6.09-2.92V686.2c1.21-.58,2.43-1.15,3.65-1.71V624.16c-1.22.56-2.44,1.13-3.65,1.71V610.79c-2,1-4.06,1.93-6.09,2.92V598.62c-2,1-4.06,2-6.09,3V586.55q-3,1.53-6.08,3.11V574.57q-3,1.57-6.09,3.2V562.69q-3,1.62-6.09,3.29V526.77q-6.09,3.35-12.17,6.87v9.05q-3,1.77-6.09,3.58v15.09c-2,1.21-4.06,2.43-6.09,3.68v15.08c-2,1.24-4.05,2.5-6.08,3.78V599Q3,600.9,0,602.86v45.25c2-1.31,4.06-2.61,6.09-3.88V629.15c2-1.28,4.05-2.54,6.08-3.79V610.28q3-1.86,6.09-3.68V591.52c2-1.21,4.06-2.41,6.09-3.58V603q3-1.77,6.08-3.49v15.09q3-1.73,6.09-3.39v15.08q3-1.66,6.09-3.29V638.1q3-1.62,6.09-3.2V650q3-1.58,6.08-3.1V662q-3,1.53-6.08,3.11v15.08c-2,1.05-4.06,2.11-6.09,3.2v15.08q-9.13,4.86-18.26,10.16V693.51q6.09-3.53,12.17-6.87V671.56q-3,1.66-6.09,3.38V659.86q-3,1.73-6.08,3.49V648.26q-3,1.77-6.09,3.59v15.08q-3,1.82-6.09,3.68v15.08c-2,1.25-4.05,2.51-6.08,3.78v15.09c-2,1.27-4.06,2.57-6.09,3.88V738.6q3-2,6.09-3.88Z" style="fill: #c8313e;fill-rule: evenodd"/>
    <path d="M67,520.29c-2,1-4.06,1.94-6.09,2.92V538.3c-2,1-4.06,2-6.09,3v30.16q3-1.53,6.09-3V553.38q3-1.49,6.09-2.92V535.38c1.21-.58,2.43-1.15,3.65-1.71V509.54c-1.22.56-2.44,1.13-3.65,1.71Z" style="fill: #c8313e;fill-rule: evenodd"/>
    <path d="M67,595.7l3.65-1.7V578.91L67,580.62Z" style="fill: #c8313e;fill-rule: evenodd"/>
    <path d="M42.61,532.53c2-1.09,4.06-2.15,6.09-3.2v-9.05q-3,1.58-6.09,3.2Z" style="fill: #c8313e;fill-rule: evenodd"/>
    <path d="M73,834.19l-3.65,1.68V866L73,864.35Z" style="fill: #c8313e;fill-rule: evenodd"/>
    <path d="M69.39,971.61,73,969.93V939.76l-3.65,1.69Z" style="fill: #c8313e;fill-rule: evenodd"/>
    <path d="M73,804c2-.92,4.06-1.84,6.09-2.73v15.08q3-1.35,6.09-2.65V828.8q3-1.31,6.08-2.56V811.16q3-1.26,6.09-2.48V793.6q3-1.22,6.09-2.39V776.13q-3,1.17-6.09,2.39V763.44q-3,1.21-6.09,2.47V750.83q-3,1.26-6.08,2.56v15.08q-3,1.31-6.09,2.65V786.2q-3,1.35-6.09,2.74Zm12.18-20.47c2-.86,4.06-1.72,6.08-2.56v15.08q-3,1.26-6.08,2.57Z" style="fill: #c8313e;fill-rule: evenodd"/>
    <path d="M73,728.61l-3.65,1.69v30.16L73,758.78Z" style="fill: #c8313e;fill-rule: evenodd"/>
    <path d="M91.3,781c-2,.84-4,1.7-6.08,2.56v15.09q3-1.3,6.08-2.57Z" style="fill: #c8313e;fill-rule: evenodd"/>
    <path d="M133.91,931.34l6.09-1.89V914.37q-3,.92-6.09,1.89Z" style="fill: #c8313e;fill-rule: evenodd"/>
    <path d="M133.91,840.85q3-1,6.09-1.89V823.87q-3,.93-6.09,1.9Z" style="fill: #c8313e;fill-rule: evenodd"/>
    <path d="M103.48,896.78q3-1.17,6.09-2.3V879.4q-3,1.13-6.09,2.3Z" style="fill: #c8313e;fill-rule: evenodd"/>
    <path d="M133.91,720.19q3-1,6.09-1.89V703.22l-6.09,1.89Z" style="fill: #c8313e;fill-rule: evenodd"/>
    <path d="M121.74,784.55q3-1,6.09-2V767.41q-3,1-6.09,2.06Z" style="fill: #c8313e;fill-rule: evenodd"/>
    <path d="M133.91,750.36c-2,.64-4,1.3-6.08,2V737.25c-2,.67-4.06,1.36-6.09,2v15.09c-2,.69-4.06,1.41-6.09,2.13v15.09q-3,1.08-6.08,2.22v15.08q3-1.14,6.08-2.22v15.08q3-1.1,6.09-2.14v15.08c2-.69,4.06-1.38,6.09-2.05V797.58c2-.67,4-1.33,6.08-2V780.52l6.09-1.89V763.55q-3,.91-6.09,1.89Zm-6.08,32.14q-3,1-6.09,2V769.47q3-1.05,6.09-2.06Z" style="fill: #c8313e;fill-rule: evenodd"/>
    <path d="M115.65,862.1q-3,1.08-6.08,2.22V849.23l-6.09,2.31v15.08q-3,1.17-6.09,2.39v15.08q-3,1.21-6.09,2.48v15.08q3-1.26,6.09-2.48v15.09c2-.82,4.06-1.61,6.09-2.39V927q3-1.17,6.09-2.31V909.56q3-1.12,6.08-2.22V892.26q3-1.1,6.09-2.14V875q-3,1.05-6.09,2.14Zm-6.08,32.38q-3,1.13-6.09,2.3V881.7q3-1.17,6.09-2.3Z" style="fill: #c8313e;fill-rule: evenodd"/>
    <path d="M133.91,855.93c-2,.65-4,1.3-6.08,2V842.82q-3,1-6.09,2.06V829.8c-2,.69-4.06,1.41-6.09,2.13V816.85q-3,1.1-6.08,2.22V804q-3,1.13-6.09,2.3v15.08c-2,.79-4.06,1.58-6.09,2.39v15.09q-3,1.21-6.09,2.47V856.4c-2,.84-4,1.7-6.08,2.56v15.09c-2,.86-4.06,1.75-6.09,2.65v15.08q-3,1.35-6.09,2.74V909.6q3-1.4,6.09-2.74v15.08q3-1.35,6.09-2.65v15.08c2-.86,4.06-1.72,6.08-2.56v15.08q3-1.26,6.09-2.47V959.5q9.14-3.64,18.26-6.91V937.51q3-1.1,6.09-2.14V920.29q3-1,6.09-2.06V903.15c2-.67,4-1.33,6.08-2V886.1q3-1,6.09-1.9V869.12L133.91,871Zm-12.17,34.19q-3,1.05-6.09,2.14v15.08q-3,1.1-6.08,2.22v15.08q-3,1.14-6.09,2.31V911.87c-2,.78-4.06,1.57-6.09,2.39V899.17q-3,1.22-6.09,2.48V886.57q3-1.26,6.09-2.48V869q3-1.21,6.09-2.39V851.54l6.09-2.31v15.09q3-1.14,6.08-2.22v15.08q3-1.09,6.09-2.14Z" style="fill: #c8313e;fill-rule: evenodd"/>
    <path d="M73,577.79l-3.65,1.69v15.08L73,592.88Z" style="fill: #c8313e;fill-rule: evenodd"/>
    <path d="M97.39,498q-3,1.22-6.09,2.48v9q3-1.26,6.09-2.48Z" style="fill: #c8313e;fill-rule: evenodd"/>
    <path d="M73,547.63q3-1.39,6.09-2.74V560c2-.89,4.06-1.78,6.09-2.65V527.16q-3,1.3-6.09,2.65V514.73q-3,1.35-6.09,2.74v-9.05l-3.65,1.68v24.13L73,532.55Z" style="fill: #c8313e;fill-rule: evenodd"/>
    <path d="M133.91,614.62c2-.64,4.06-1.28,6.09-1.89V597.64q-3,.93-6.09,1.9Z" style="fill: #c8313e;fill-rule: evenodd"/>
    <path d="M133.91,524.13c-2,.64-4,1.3-6.08,2V511c-2,.67-4.06,1.36-6.09,2.05V498q-3,1-6.09,2.14v-9.05q-6.09,2.18-12.17,4.52v39.22q-3,1.17-6.09,2.39v15.08q-3,1.22-6.09,2.47v15.08q-3,1.26-6.08,2.57v15.08q-3,1.31-6.09,2.65v15.08q-3,1.35-6.09,2.74V623l-3.65,1.69v60.32L73,683.37v15.08q3-1.4,6.09-2.74v15.08c2-.89,4.06-1.78,6.09-2.65v15.09q3-1.31,6.08-2.57v15.09q3-1.26,6.09-2.48v15.08c2-.81,4.06-1.6,6.09-2.39v15.09c2-.79,4.06-1.55,6.09-2.31V743.66q3-1.12,6.08-2.22V726.36q3-1.1,6.09-2.14V709.14q3-1,6.09-2V692c2-.67,4-1.33,6.08-2V675q3-1,6.09-1.9V642.89l-6.09,1.89V629.7c-2,.65-4,1.3-6.08,2V616.59q-3,1-6.09,2.06V603.57q-3,1-6.09,2.13v15.09q-3,1.08-6.08,2.22v15.08q-3,1.13-6.09,2.3v15.08q6.09-2.34,12.17-4.52V666q-9.12,3.27-18.26,6.91V657.86q-3,1.21-6.09,2.48V645.25q-3,1.26-6.08,2.57V632.73c2-.86,4.06-1.72,6.08-2.56V615.09q3-1.26,6.09-2.47V597.53q3-1.21,6.09-2.38V580.06q3-1.17,6.09-2.3V562.68q3-1.14,6.08-2.22V545.38q3-1.1,6.09-2.14v15.08q3-1.05,6.09-2.05v15.08c2-.67,4-1.33,6.08-2v15.09q3-1,6.09-1.9V537.32c-2,.61-4.06,1.25-6.09,1.89Z" style="fill: #c8313e;fill-rule: evenodd"/>
  </g>
</svg>
