<svg xmlns="http://www.w3.org/2000/svg" xmlns:xlink="http://www.w3.org/1999/xlink" viewBox="0 0 1260 1012.04">
  <defs>
    <clipPath id="a">
      <path d="M474.4,581.21C577,598.17,679.53,625.83,782.09,643q.39,29.37.76,58.75-11.73,12.3-23.47,24.43c-43.15,21.33-86.31,41.09-129.46,60.85-43.68-41.74-87.36-83.48-131-123.58-14.88-13-24.63-37-24.63-61.12q.08-10.58.16-21.15" style="fill: none"/>
    </clipPath>
  </defs>
  <g>
    <path d="M0,90.08v920C420,738.76,840,1193.28,1260,922V2C840,273.28,420-181.24,0,90.08Z" style="fill: #0d3692"/>
    <path d="M474.24,441.88C578,459,681.8,487.14,785.58,504.31V405.59C681.8,388.42,578,360.31,474.24,343.16Z" style="fill: #0d3692"/>
    <path d="M756.87,448.48q-7.56-4.83-15.13-9.71l-6-2.19-3.87-3.4q-13.85,7.49-27.7,14.82-6.09-7-12.19-14l-8.29-4.2q-13.35,6.75-26.69,13.43-6.82-10.74-13.66-21.51L618.06,397q-4.8,4-9.59,8-21.53,7.75-43.05,15.66-8.79-10.8-17.57-21.55-12.68-6.45-25.35-12.77-24.35,15-48.68,30.6-.65,25.44-1.27,50.88c104.65,17.67,209.3,46.6,314,64.34q-.4-28.26-.8-56.51Q771.3,462.2,756.87,448.48Z" style="fill: #bdbdbd"/>
    <path d="M474.24,575.35C578,592.5,681.8,620.61,785.58,637.78V579.21C681.8,562.05,578,533.93,474.24,516.78Z" style="fill: #bdbdbd"/>
    <path d="M473.85,575.84C577.89,593,681.93,621.22,786,638.4V578.71c-104-17.18-208.08-45.39-312.12-62.56Zm.77-58.44c103.53,17.14,207.06,45.16,310.58,62.31v57.44C681.68,620,578.15,592,474.62,574.85Z" style="fill: #231f20"/>
    <path d="M472.26,337.16c105.1,17.23,210.2,45.84,315.3,63.08V251.62c-105.1-17.24-210.2-45.85-315.3-63.08Z" style="fill: #fff"/>
    <path d="M474.25,602.36c0,24.08,9.75,48.12,24.63,61.12,43.68,40.1,87.36,81.84,131,123.58,43.72-22.7,87.44-45.39,131.17-69.72,14.88-7.63,24.63-28.53,24.63-52.59l.17-21.09c-103.83-17.15-207.65-45.28-311.48-62.45Q474.34,591.79,474.25,602.36Z" style="fill: #feba35"/>
    <polygon points="474.4 581.21 474.41 581.21 474.41 581.21 474.4 581.21" style="fill: #feba35"/>
    <path d="M651.53,224.71l-43-9.38v49.94c-45.91-10-91.82-19.63-137.73-27.11v49c45.91,7.48,91.82,17.15,137.73,27.12V364q21.53,4.66,43,9.37V323.7c45.47,9.88,91,19.46,136.42,26.91V301.55c-45.47-7.45-91-17-136.42-26.9Z" style="fill: #fc1921"/>
    <path d="M469.15,342.33C574.77,359.41,680.4,388.22,786,405.66c.07-3.12.15-6.24.22-9.36C680.55,378.87,574.86,350,469.16,332.93,469.16,336.06,469.15,339.19,469.15,342.33Z" style="fill: #0b0b0b"/>
    <path d="M474.24,516.79C578.07,534,681.9,562.08,785.72,579.24v-4.66c-103.82-17.16-207.65-45.29-311.48-62.45Z"/>
    <path d="M474.24,581.19c103.83,17.16,207.66,45.29,311.48,62.45V637.8c-103.82-17.16-207.65-45.29-311.48-62.45Z" style="fill: #0b0b0b"/>
    <polygon points="712.01 598.97 712.01 598.97 712.01 598.97 712.01 598.97"/>
    <path d="M773.87,624.93a6.49,6.49,0,0,0-4-2.44c-.89,1-.91,1.55-2.09,1.09-2.06-1.1-2.89-2.06-4.87-1.31l-.8.15c-3.36,0-7.67-3-11.33-3.53a5.07,5.07,0,0,0-3.09.44,2.35,2.35,0,0,1-1.19-.66c-1.73-1.92-2.54-3.11-4.77-3.23l-.2-.33c-1.22-5.14-3-7.59-6.27-5.27-2.1-2.56-4.34.1-5.77,1.78-1-1.23-3.13-.82-4.17-.54-.68.12-.83-.11-1.49-.73l-1.2.2c-1.76-2.25-2.63-5.35-5.37-4.13-.46-.09-2.67-5.2-3.38-6.34L712,599c-2.1,1.35-4.33,2.91-5.47,6l-.49-.11-.9.25c-1.68.83-3.43,1.93-3.68,4.76a3.46,3.46,0,0,1-1.09-.22c-1.47-3.56-4.72-4.55-5.47-.42-.55.94-3.17.71-4,0-1.22-1.23-2.42-2.41-3.68-2.37a2,2,0,0,0-1.69,1l-.1-.31c-2-1.9-2.93-2.13-4.87-.89-1.31,1.08-1.78.82-3.38.73-3.11,1.3-2,4.85-.2,7.8l1.79.09a52.29,52.29,0,0,1,8.45,1.65,46.76,46.76,0,0,0,7.06,1.48c3,0,6.11,1.46,9.05,1.88,15.76,2.09,31.63,6.08,47.44,8.78,2.15.4,4.32.63,6.46.9a86.26,86.26,0,0,1,16.21,2.74c2.23.81,3.16.88,4.17-1.89C777.27,626.2,775.85,627.11,773.87,624.93Z"/>
    <path d="M781.83,607.42c-1.51-3.88-3.58-8.38-6.87-7-1.34,1-1.14.91-2.48,0l-.9.71-.2,0-.39-.51c-1-2-2.14-3.32-3.28-3.62h0c-1.15-.31-2.29.32-3.49,1.7-1.13.85-2.33.09-3.67-.52l-1.1,1.11-.3.09c-2.32,0-3.94-2.77-6-.07a2.62,2.62,0,0,1-2.39.42c-2.69-.44-6-3.26-8-.19-1.39-2.29-3.86-4-5.46-2.06l-.1,0c-1.22-.67-2.78-2.34-4.08-3.26-.8,1.25-1.07,2-2.29,1.73-2-.64-3.44-1.24-5.17.14-2.35,2.17-1.93,3.86-.79,7.4,3.53,1.81,7,1.88,10.64,2.95,2.69,1.08,5.15,0,7.75,1.06,2.57.36,5,1.89,7.46,2.71a8.19,8.19,0,0,0,4.48.54,4.55,4.55,0,0,1,1.19-.51c3.65,2.08,7.07,1,10.64,2.06,3.24,1.62,6.51,1.14,9.74,2l2.09.79,3.58-3.75-.4-2.54C782,608.32,781.93,607.87,781.83,607.42Z"/>
    <path d="M759.36,580.39c-1.44.78-3.21.78-4.48,1.65l-.6-.55a21.3,21.3,0,0,1-3.48-2.24,6.89,6.89,0,0,0-3-1.29c-1.6-1-2.57-.19-3.88.72-.2-.57-.4-1.14-.59-1.71-4.34-1.06-8.94-1.27-13.23-3.28-1.6-.93-2.17-1.69-3.68-.58a3.91,3.91,0,0,0-1.89-1.25h0c-2.13-.66-4.9.07-6.66.12-3.24-1-5.6-3-8.75-1.92-1.52.92-4.95-.43-6.67-.79-3.15-.47-6.65-.51-8.25,3.52a14.74,14.74,0,0,0,1.79,4c6,1.25,12.08,2,18.1,3.73a7.23,7.23,0,0,0,1.69,1.5c2.53,1.19,5.06,0,7.46,1.79,5.42-.27,10.53,2.17,15.91,3,3.66.09,7.86,2.66,11.63,2.63a6.16,6.16,0,0,0,3.68-1.06c4.71,3.94,9.47,2.31,14.42,3.18l1.2-5c-3.07-3.55-4.55-4.15-8.26-4.81A15.61,15.61,0,0,1,759.36,580.39Z"/>
    <path d="M696.8,594.09c-1.68-2.82-3.84-1.92-5.27-3.57-1.21-2.47-2.76-3.62-4.27-3.08a3.66,3.66,0,0,0-1.49,1.14,47.26,47.26,0,0,0-1.79-5,2.31,2.31,0,0,1-1.4-1.17c-1-2.48-2.17-3.74-3.48-4.08h0c-1.31-.34-2.72.3-4,1.62-2.19-3.66-3.82-2.54-6-.55-1.56,3.29-4.25,2.54-6.86,1.43-.8,1.12-1.32,2.18-2.49,2.37-2.1-2.49-3.61-1.42-5.67-.94-1,0-2-.72-3.18-1s-3.15,1-4.08.56c-1.76-1.06-2.59.24-4,.74l-.8-1c-1.93,0-2.76-.66-4.57-2.16-2.27-1.41-3.37-1.6-5.28,0a22.67,22.67,0,0,0-3.87,2.78V584c.46.92.92,1.85,1.39,2.77,4.45,1.4,9,2.64,13.42,3.8,3,.65,6.13,2,8.95,1.65,2.77.24,5.18,2,8,1l10.44,3.27.9-.83c2.19-.7,5.28,1,7.55,2,2.74,1.19,5.52,1.34,8.26,1.61a16.62,16.62,0,0,1,5.76,1.5,8.88,8.88,0,0,1,1.79.08c2.53.53,3.07-.25,4.28-3.32A10.52,10.52,0,0,0,696.8,594.09Z"/>
    <path d="M649.77,557.47l-1.4.28c-3.06-.36-6-3.14-9-3.13-.64,0-1.32.53-2,.44-1.77-1.12-3.69-2.71-5.37-1.61a8.89,8.89,0,0,0-2.49-1.12c-.38,0-.72.15-1.09.19-1.27.34-2.54.84-3.88.17a44.93,44.93,0,0,0-10-3.93h0c-2.43,1.24-4.77.66-6.66,3.63l-.1-.6a7.27,7.27,0,0,0-3.28-1.88c-2.23-.65-4.76-4.24-6.86-2.79-1.56,1-4.17-1.13-5.77-2.4-3.24,1.7-5.32,1.1-8.85-.88-2.39,1.88-4.71,3.4-6.76,6l.6,2.16c1.55,3.71,3.21,2.68,5.56,2.63,6.94.13,13.85,3,20.79,4,1.9.22,3.28.34,4.37-1.81a7.1,7.1,0,0,0,2.49,2.71c5.92,1.78,12.07,2.34,18,3.63l.4.09c9,1.66,18.44,4.44,27.44,6.7,2.23.06,2.59-2,2.59-5-1.73-2.89-3.19-3.93-5.67-4.71C651.07,559.57,651,559.41,649.77,557.47Z"/>
    <path d="M628.36,584.07v-2l-.63.6Z"/>
    <path d="M627.93,596.47c-.21-.6-.59-1.3-1-2.38-.76,0-2.14.09-2.82-.61-1.25-1-2.48-2.39-3.78-3.22-1.47-3-3.62-3.06-5.72-3.15l0-.05c.06-.42.11-.84.17-1.25s0-1-.08-1.56c-2.31-6.09-5-4.76-8-2.66-1.68-2.27-2.65-2.3-4.54-1.48l-.42-.7-1.48-2c-1.26.4-2.23,1-3.27-.52-4.84-3.81-5.64.93-8.12,4.58-2.27-2.15-4.5.14-6.22,1.55-1.05.82-1.39.14-2.65-.93a6.82,6.82,0,0,0-2.15,1.88c-1.93-1.58-4-1.9-5.84-.69-2.26-2.56-3.53-.86-5.72-.22-2.77.78-6.55-3.45-6.17,4a8.85,8.85,0,0,0,2.73,3.14c7.19,1.69,14.46,1.5,21.61,2.47,7.69,1.41,15.51,3.22,23.21,4.89,6.14,1.63,12.44,2.89,18.58,4.22l1.72-1.34h0Z"/>
    <path d="M532.08,576.39c-1.34-1.13-4.08-2.77-5.55-2.38l-.37-.44-1.14-.9c-2.78-1.21-2.65-.7-3.7-4.89a7.36,7.36,0,0,1-2.6.3c-2.11-.9-3.53-2.82-5.85-2.34-.54.21-1.31,1.24-1.85.82h0a7.2,7.2,0,0,1-1-1c-2.27-3.74-3.95-5-7.18-4.89-1.94-3.18-3.71-3.43-5.51-.81-.55.76-1.18,2.43-1.9,2.91-2.31-.41-5.34-1.25-6.13,2.66-.38.18-.89.64-1.3.88-1.4.92-1.65,1.74-2.4,3.69,1.59,3.17,2.23,3.34,4.84,3.92,3.94.94,8.44,2.42,12.31,2.39,9.38,4.23,19.13,4.93,28.59,7.28C533.64,582.35,534.94,579.41,532.08,576.39Z"/>
    <path d="M571.61,559.68c-1.26-1.13-1.47-1.85-3-1.6h0a10.42,10.42,0,0,1-1.85-.08c-3.31-.27-7.43-6-10.13-2.67a13.7,13.7,0,0,1-2-1.58,2,2,0,0,1-1.55-.5c-2.15-3-4.5-4.73-6.35-1-1.09.82-3-2.39-3.66-3.57-1.8-1.83-3.15-1.79-4.66-.19-.59-1.84-3.87-1.52-4.92-1.1-2,1.13-4.12,3.66-6.31,1-1.47-2.19-3.15-2.52-4.58-.77-1.22.93-2.36.4-3.74-.47-2.9.92-3.83,2.4-5.13,6.27l1.47,1.87c1.85,1.88,5.63,3.28,7.48,1.87l.09.07c3.69,2.5,7.86,2.39,11.73,3.15,2.9,0,6,1.69,8.91,1.48q15.36,3.17,30.73,6.48l.5.11c2.36-.61,3.07-1.32,2.19-5.61A44.12,44.12,0,0,1,571.61,559.68Z"/>
    <path d="M521.16,532c-1.94-.49-2.06.22-3-2.48a5.32,5.32,0,0,0-4.2.06h0c-.63.31-1.27.62-1.9.87-2.81.27-5.42-3.72-8.53-2.5-2-2-3.82-1.07-5.88-1.44-.72-.25-1-.8-1.69-1.59-2.94.82-6.81.57-9,3.74-.71.12-1.8.06-2.56.18l-1.3.81c-.11.85-.23,1.69-.34,2.53l1.05,3.12c3.07.71,6.1.87,9.16,1.42,4.22,1.24,8.71,1.61,12.91,3.13a7,7,0,0,1,4.12,0c1.94.54,5.59,2.34,7.11,1.52l.33-.06c2.61-.61,6.77,2.53,8.88,1.22,2.6,0,2.77-.87,3.57-4.58a14.06,14.06,0,0,0-5.84-3.48C522.84,533.89,522.42,532.64,521.16,532Z"/>
    <path d="M759.49,583c-1.47,1.45-4.38-.31-4.38,3.25,4,3.69,8.21,1.8,12.57,2.57l.43-1.63h0C765.54,583.68,762.35,585.14,759.49,583Z" style="fill: #0d6826"/>
    <polygon points="712.22 601.77 712.22 601.77 712.22 601.77 712.22 601.77" style="fill: #0d6826"/>
    <path d="M770.59,625.09c-1.68,2.84-4.33-.29-6.27-.82-5.21,2.51-10.49-4-15.61-2.86-3.07,1.76-4.15-4.48-7.26-3.41-1.88-1.41-1.47-4.41-3-6.24-1.18-1.15-2.2.75-3.38,1-2.32-3.7-3.77,1.55-5.57,1.81-1.94-3.14-4,.81-5.87-1.59-2.43.87-2.95-3.58-5-4.48-3,2.23-3.76-3.94-5.57-6.21l-.9-.47c-1.93,1.2-4,2.89-4.57,6-1.89-1.31-3,.76-4.37,1.57-.22,1-.06,2.43-.9,2.87a2.91,2.91,0,0,1-3.68-2.22c-.5-.59-1.57-1.55-2-.41-.42,3.78-3.35,2.62-5.37,2.51-1.39-.29-2.81-3.64-4.27-2.79a3.27,3.27,0,0,0-.7.87c-.63.78-1.67.11-2.09-1-1.47-2-3,.34-4.27.69-.85.8-2.23-.86-3,.52a3.54,3.54,0,0,0,.6,2.31c2.94,0,6.2.91,9.45,1.71a49.56,49.56,0,0,0,6.56,1.53,23.56,23.56,0,0,1,8,1.67c16.74,2,33.16,6.17,49.43,8.89,8.06,1.81,16.29,1.14,24.06,4.32l.6-.48c.33-.37,0-1.25-.4-1.81C773.56,628.4,772.53,625.12,770.59,625.09Z" style="fill: #0d6826"/>
    <path d="M696,596.26c-1.51-3.45-5-1.37-6.27-5.38-1.09-1.58-1.93-1.24-2.68-.42-.43.46-.75,1.09-1.09,1.51-2-1.35-1.79-4.47-2.89-6.42-2-.32-2-4.58-3.78-4.87h0a1.59,1.59,0,0,0-.89.1c-1.18-.25-2.17,1.07-2.89,2.15-1-.21-1.62-1.61-2.38-2.69-1-.71-1.93.14-2.69,1-1.46,3.31-4.59,3.55-7.46,2.32-1,1.5-2.29,2.24-3.67,1.82-2.14-3.42-4.13.43-6.57-.7-2.44-2.75-4.33,1.06-6.76-.89-1.39.19-3,2.66-4.38.21-2.94.28-4.47-3.8-7.45-3.22-1.18,1.65-2.95,1.45-4.08,2.74.17.37.33.75.5,1.12,6.39,2.2,13.79,3.6,20.18,5.42,3-1.5,6.15,2.66,9,.65l10.24,3.08c1.94-1.79,5,.05,7.26.54,3.24,2.47,6.5,2.16,9.75,2.35a14.71,14.71,0,0,1,6,1.69c1.38-.45,3.57,1.16,4.07-.89C696.81,596.77,696.43,596.35,696,596.26Z" style="fill: #0d6826"/>
    <polygon points="727.99 574.9 727.99 574.9 727.99 574.9 727.99 574.9" style="fill: #0d6826"/>
    <path d="M753.72,583.69c-2-.5-3.9-3.67-6.05-3.28-2.23-2.32-3.74,4.27-5.34-1.19-5.21-1.61-9.79-.78-14.34-4.32-.75.17-1.17,1.31-2,.53-1.85-2.58-4.08-.81-6-1.19-3.62,1.61-7.36-4.12-10.76-1.39-4.17.08-9.46-3.05-13,0-.43.53.12,1.07.42,1.62,6.18,1.41,11.8,2,18,3.83,2.65,3.66,5.76.54,8.74,3,5.51-.81,11.27,3,16.61,2.94,4.87.44,9.88,4.82,14,1.53A1.62,1.62,0,0,0,753.72,583.69Z" style="fill: #0d6826"/>
    <polygon points="772.7 603.25 772.7 603.25 772.7 603.25 772.7 603.25" style="fill: #0d6826"/>
    <path d="M772.7,603.24c-1.39,1.36-2.86-.8-3.75-2.8-.84-1.56-2.3-1-3.2-.26-1.38,1.91-3,1.62-4.78.68-1.81,2.5-4.13-.44-6.14-.32-2.9,4.57-6.81-1-10.47.38-1.89,4-3.16-2.33-5.42-1.84-1.48,2.54-3.5-.8-5.22-1.93-2.1,4-5.85-2.25-7.86,2.2-.54.51,0,1.53.21,2.19,3.4,1.78,7.65,1.2,11,2.94,2.11.11,4.59-.34,6.48.63,4.5.06,8.74,5.4,12.78,2.39,3.53,2.8,7.44,1.17,11.05,2.3,3.41,2,7.36,1,11.1,2.54.74-.75,1.49-1.5,2.23-2.26-.21-2.37-1.81-4.79-3.11-7C775.76,601,774.58,605.17,772.7,603.24Z" style="fill: #0d6826"/>
    <path d="M639,557.22c-2.65,1.76-4.58-3.76-6.89-.82-2.15-3-4.37-.53-6.6-.7h0a43,43,0,0,0-10.68-4.36c-1.89,1.3-5.42-.07-6.06,4.15,1.1,2.39,3,1.75,4.5,2.69,14.47,2.05,28.09,5.52,42.47,9.25.71.15,1.13-.68,1-1.8-1.94-3.55-5.43-2-7.44-5.48C645.38,561,642.61,556.48,639,557.22Z" style="fill: #0d6826"/>
    <path d="M605.28,552.58c-2.48.08-4.16-2.92-6.52-3.43h0c-2,1.71-4.66,0-6.89-1.67-2.57,1.65-5.76.6-8.62-.92-1.73,1.53-3.87,2.3-5.13,4.18a2.92,2.92,0,0,0,.84,1.59c8.33-1.36,16.82,3.29,25.77,4a2.43,2.43,0,0,0,1.6-2.47C606.46,552.84,605.57,553.08,605.28,552.58Z" style="fill: #0d6826"/>
    <path d="M626.13,596.56c-2.78.32-4.46-3.3-6.82-4.3-1.59-4.22-4.24-1.67-6.59-3.16-1.18-1.48.74-2.6.33-4.41-1.81-5.24-4.5-.36-6.73-.54l-1.05-1.33c-.75-1.21-1.72-.68-2.44-.35-1.38.81-1.93-1.33-2.89-2.34h0c-1.27.34-2.78.63-3.83-1.26-3.49-3.45-4.59,3.5-6.81,5.48l-.42-.09c-3.74-4.06-5,4.57-8.83.63-1.09.26-1.52,3.11-2.56,1.48-1.94-1.82-4-1.76-5.64,0-.63-.75-1.18-2.09-2-2.15-2.23,1.13-4.71,2.27-7.23.7-.46,0-1.18.18-.88,1.35a4.07,4.07,0,0,0,1.3,1.5c9.37,2.44,17.32.88,26.28,3.54,12.57,2,24.25,5.55,36.4,7.89l1.06-.82C627,597.67,626.34,597.23,626.13,596.56Z" style="fill: #0d6826"/>
    <path d="M526.08,576.5c-1.68-3-5-1.27-5.76-6-3.2,1.11-5.85-5.1-8.29-1.08-3.4-.51-4.24-6.25-7.56-6.38h0l-2.32.07c-3.32-7.29-3.86,2.67-6.84,2-1.48.48-3.08-1.46-4.25.61-.29,3.07-3,2.17-3.41,4.25.22.65.76.75,1.18,1,4.58,1.11,9.67,2.63,14.05,2.82,9.24,4.34,18.83,4.75,28.11,7.19a1.56,1.56,0,0,0,.93-2A7.23,7.23,0,0,0,526.08,576.5Z" style="fill: #0d6826"/>
    <path d="M569.51,560.46a9.8,9.8,0,0,1-8.29-2.84c-1-.51-2.69-1.47-3.4-.21-1,1.46-2.36-.49-3.41-1.2-2.47.61-3.11-4.68-5.76-3.32h0c-1.6,4.64-5,.64-6.6-2.44-1-1.3-2.22-.63-2.86.65-.54.38-1.51,0-1.93-1-3.53-2.92-5.76,4.44-9.92,1.29-1.05-.7-1.89-3-3.07-2.31-1.47,2-3.41,2-5.34.68a4.59,4.59,0,0,0-3.07,3.29,5.32,5.32,0,0,0,6.81,1.49c3.53,2.83,7.65,2.59,11.73,3.39,3.07-.19,5.93,1.92,8.83,1.46q15.46,3.18,30.94,6.53c.68.14,1.82-.11,1.39-1.24A23.12,23.12,0,0,1,569.51,560.46Z" style="fill: #0d6826"/>
    <path d="M517.11,531.69c-1.47-.71-2.65.6-3.91,1-3.53,1.85-6.51-4.47-9.92-1.84h0c-2.1-3.76-5.29.14-7.65-3.23-2.56.77-5.55.24-7.57,3-.92,1.56-4.79-.83-3.27,2.51,3.69,1.12,6,.41,9.37,1.51,3.61,1.26,8,1.44,11.47,2.7,3.33-1.11,6.82,1.13,10.22,1.91,2.78-1.62,6.18,1,9.46,1,.76-.78,2.27.62,2.48-1.36-1.72-2-4.79-1.12-6.3-4.17C520,533.84,517.87,534.53,517.11,531.69Z" style="fill: #0d6826"/>
    <path d="M746.92,462.49a21.68,21.68,0,0,1,.5-4.7c0-4.91-2.72-6.44-5.27-8-2.7-3.15-4-7.39-4.38-12-2.53-2-4.26-4.5-7.16-5.31h0c-4.92,2.6-10.1,5.57-15,8.2-12.91,6.78-25.87,14-38.69,21.13-1.59.89-3.21,1.72-4.77,2.61a15,15,0,0,0-2.69-4.79c-7.18-10.44-14.23-21.49-21.67-31.7h-1.3c-2.74.14-5.05,2.91-7.65,3.56-2.15,1.62-3.74,1.72-3.48,6.5l9.54,20.24c2.44,4.33,4.91,2.51,7.86,2.72,8,4.06,16.13,8.79,24.16,12.9,1.72.86,3.41,1.76,5.17,2.55,5.35,5.38,10.5,10.84,16.31,14.76l3.18,1.67c2.65,1.78,3.81,2.47,6.47,1.48,1.17-4.73-.55-5.86-3.28-8.08-3.37-2.35-7.71-4.51-10.45-8.7,1.48-1.84,4.72-.09,6.57.35,5.55,1.64,11.35,3.22,16.9,4.76,3.69,1.3,4.49.68,6.17-4.14-4.45-5-9.21-9.3-13.92-13.7,4.46-.68,9.05-.36,13.42-1.21,4.62,4.79,8.71,11.09,13.62,15.6,6.82,1.31,13.29,9.12,19.1,1.71a21.45,21.45,0,0,0,1.59-1.46,9.25,9.25,0,0,0,1.39-3.95l-1.49-2.16C754.42,469.06,750.45,466.1,746.92,462.49Z"/>
    <path d="M676.87,431.75h0v16c.59-1,.71-2.67.88-4.78,1.43-1.48,3.7-1.73,5.51-2.08.59.74,1.22,1.67,1.89,2.36l.84.61h.88c2.91.24,3.63.89,5-3.37-2.69-4.48-5.34-8.85-8.87-11.81C680.94,429.67,678.93,430.71,676.87,431.75Z"/>
    <path d="M761.09,466.79c2.69,2.34,5,6.31,7.65,9,1.85,1.62,5.55,3.93,7.39,2h0c1.14-.91,1.23-2.25,1.52-4.1-5-4.53-10.09-9.66-15.26-13.66C759.91,460.82,759,463.66,761.09,466.79Z"/>
    <path d="M676.87,431.76c-5.09,2.66-10.09,5.57-15,8.56.89,3.88,1.22,5.12,3.28,7.71,2.26,3,3,4.82,6.06,3.26a11.42,11.42,0,0,1,2.73-2.05,2.87,2.87,0,0,0,2.94-1.52h0Z"/>
    <path d="M499.51,424.09A14,14,0,0,0,497,421c-3.62-.29-7.14-2.59-10.84-2.93h0a9.09,9.09,0,0,0-2.18,4.12,49.27,49.27,0,0,1-1.6,7l1.89,3.52a13.23,13.23,0,0,1,3.78-.8c3.95.69,7.62,3.7,11.44,5.37a12.73,12.73,0,0,0,2,.8l2.09-1.8c-1.06-3.32-2.1-8-3.48-11.09A9.83,9.83,0,0,0,499.51,424.09Z"/>
    <path d="M623.6,424.56c-3-3.29-6.51-6-9.44-9.31a36.46,36.46,0,0,0,10.24-2.86c0-.76.07-1.53.1-2.3a29.06,29.06,0,0,0-.8-4.38c-.88-8.91-6-12.16-10.84-16.16h0c-20.56,11-40.7,24.19-61.25,35.63-6.1,3.18-12.13,7.68-18.4,10.24-3.11-1.6-8.11-2.3-9.45-7.66.93-.61,3-.11,4.08-.07,2.18.05,3-.57,4.77-2.26,0-1.59-.52-8.37.7-8.87,2.1-1.18,4.23-2.89,6.46-3.79,3.07-.86,5.47.52,5.47-5.44.34-.91,3.35.4,4.28.29,2.1,2.21,4.16,5.24,6,1.37,1.1-5.18-2.82-8.66-5.46-11.29-7.53-6.57-15.82-11.53-23.47-17.75L525,381.09l-.8.72c-8.15,4.92-16.63,9.43-24.66,15-1.39,1-2.84,2-4.18,3,.92,3.17,1.57,7.16,4.18,6l.2-.11c1.34-.25,1.68-1,3,.83-.26,1.12-1.85,2.74-2.49,3.62a9.94,9.94,0,0,0-.69,1.76,5.92,5.92,0,0,0,0,3.63,21.14,21.14,0,0,0,2.19,4.17c2.35,3.19,4,2.47,6.76,3,.69,1.05,1.39,2.1,2.09,3.15-.93,1.79-.87,2.47-.7,4.95l2.49,3.37c4.75,5.8,9.93,10.81,14.81,16.49l2.89,1.29,9.84-10.39c5.34.52,10.77.19,16.11.37,2.73,1.85,6.37,7.31,9.35,6.16,2.73-.79,3.39-1.25,5.07-4.46l-1.19-2.43c-1.43-2.69-3.76-4.93-5.57-7a33.19,33.19,0,0,1,4.87-2c2.4-1.1,3.19-1.3,5.67,1.19a33.59,33.59,0,0,0,4.48,4c3.86,1.8,3.72-3.59,5.07-6.62l7.36,3.32c.29.45.59.9.89,1.35,2.23,9.75,8.14,10.15,13.23,15.06,3.61.22,4.93.64,6.86-3.59A176.47,176.47,0,0,0,604,428.73c.84-.68,3.18-2.65,4.28-2.42,3.19,4.19,5.64,9.51,9.05,13.44a17.07,17.07,0,0,0,9-1.07C626.93,433.7,627,428.26,623.6,424.56Z"/>
    <path d="M745.73,456.16c-.84-2.68-2.67-3.23-4.27-4.15a23.41,23.41,0,0,1-5.17-12.76c-1.81-1.39-3.17-3.66-5.28-4.07h0c-18.07,10-36.19,19-54.09,29.24-1.43.8-2.89,1.76-4.28,2.57-2,1.91-1.71-2.62-2.88-3.66-7.36-10.42-14.82-22.67-22.48-33-3-.16-5,2.93-7.65,3.56-.93.91-3.12,1.08-2.69,3.63l9.25,19.44c2,3.69,4.54.79,7.06,1.83,7.82,4.09,15.76,8.41,23.67,12.5,1.93,1,3.83,2.06,5.76,3,6.19,5.66,11.76,12.94,18.7,16,1.68,1,3.68,3,5.27,2.1A2,2,0,0,0,706,490c-4.59-4.2-10-5.55-13.53-12.25,0-2.75,2-3,3.38-3.79,6.73,2,13.79,3.68,20.39,5.93,2.1-.19,4.92,2.7,5.67-.89-4.92-5.66-10.29-9.51-15.22-14.7-.13-.32-.26-.64-.4-1,5.35-2.15,11.78-1.2,17.41-2.28,4.88,4.53,8.9,11.39,13.82,15.78,5.75.61,12.51,9.12,17.3,2.39.84-.95,2.27-1.49,2.49-3.18-3.41-4.91-7.8-7.87-11.54-12C744.35,461.59,745.86,459,745.73,456.16Z" style="fill: #fff"/>
    <path d="M676.91,434.51c-4.38,2.33-8.79,4.73-13,7.37.42,3.23,2.71,4.36,4,7,2.56,2.27,4-2.75,6.46-2.1,2.24.05,1.39-3.65,1.89-5.26a5.55,5.55,0,0,1,.7-.87c1.84-1.88,4.36-1.58,6.46-2.55,1,.84,1.82,2.7,2.78,3.21,1.4-.14,3.39,1.1,3.68-.68-2.22-3.6-4.2-7.12-6.76-9.27C681,432.36,679,433.48,676.91,434.51Z" style="fill: #fff"/>
    <polygon points="683.07 431.32 683.07 431.32 683.07 431.32 683.07 431.32" style="fill: #fff"/>
    <path d="M762.05,464.94c4.24,3.53,7.31,11.87,12.86,10.92.21-.26.76-.48.76-1.21h0c-4.5-3.91-8.75-8.52-13.33-12C761.62,462.65,761.41,464.15,762.05,464.94Z" style="fill: #fff"/>
    <path d="M496.62,423.42c-3.53-.33-6.34-2.57-9.74-2.74h0c-1.89,1.58-1.44,5.79-2.49,8.43.13.27.27.53.4.8,5.17-2.12,9.88,3,14.72,5.07a7.83,7.83,0,0,0,1.59.43l.4-.36c-.8-2.11-1.24-4.52-2-6.75A10.7,10.7,0,0,0,496.62,423.42Z" style="fill: #fff"/>
    <path d="M610.78,414.08l.39-.93c4-.5,8-1,11.64-2.7a11.36,11.36,0,0,0-.7-4.36c-.42-7.59-5.53-10.82-9.15-13.76-21.39,11.31-43.24,25.67-64.63,37.27-4.88,2.63-9.68,6.54-15,8.31-4.37-2.46-10.68-2.66-11.43-11.53,2.35-3.1,6.67.56,9.14-2.57.21-3.21-.72-7.25.8-9.28,3.48-1.77,6.77-5.14,10.94-4.79,1.13-.38.56-2.67.89-3.89,1.18-3,4.18-.2,6.07-.8,1.3.94,2.8,3.69,4,3.14,3.62-5.47-17.45-17.91-27-25.44-8.45,6-18.59,10.57-27.25,16.8-.67.5-1.42,1-2.09,1.51l.7,2.16c.42.69,1-.12,1.39,0,1.73-1.35,3.8.26,5,2.94.13,2.78-2.29,4.19-3.38,6.64-.84,1.69.82,3.55,1.79,5.26,1.51,2.61,4.14,1.93,6.17,2.3q1.63,2.49,3.28,5c.63,1.85-1.23,2.58-.9,4.48,5,7,11,12.46,16.41,18.68l1.59.75,9.75-10.12c5.63.52,11.24,0,17,.55,2.73,1.79,4.87,5.16,7.86,6.28,1.47-.81,3.43-.44,4.27-2.59-2-4.29-5.29-6.09-7.55-10,2.77-2.49,6.35-3.06,9.54-4.54,2.7-.66,4.94,3.42,7.46,5.06,4.16,5.18,2.78-4.7,5.47-5.66l8.65,3.74,1.59,2.37c1.39,8.84,7.87,9.44,12,13.79,1.6-.15,3.9.75,4.57-1.63-2.14-6.17-5.27-11.81-8-17.55v-1.45c2-1.9,4.21-3.87,6.56-3.66,3.28,4,6.08,9.84,9.15,13.46,2.34,0,4.85.56,7-.52.46-3.21.32-6.73-1.19-9.41C619.57,422.7,614.6,419.39,610.78,414.08Z" style="fill: #fff"/>
    <path d="M742.35,437.23l-5.77-2.13L731.9,431q-13.92,7-27.84,13.86-6.27-7-12.53-14.08l-8.55-3q-12.74,6.23-25.46,12.4L644.3,419.63l-14.13-13.82-16.9-16.61h0q-23.82,13.19-47.64,26.54-8.21-10.14-16.4-20.24-11.49-8.07-23-16.05-27.7,16.83-55.39,34.47c1,1,2,2.07,3,3.1q26.36-16.84,52.7-32.87,10.65,7.46,21.29,15,8.79,10.73,17.6,21.49,23.91-13.36,47.83-26.5l16.9,16.47,12.43,12.14L657,445.34q13.23-6.51,26.46-13.06l7.06,2.36q6.66,7.58,13.32,15.12,14-6.92,28-14l3.88,3.37,6,2.16q6.91,3.87,13.82,7.68,15.07,14.38,30.13,28.5l2.39-2.8q-15.76-14.62-31.52-29.58Z"/>
    <path d="M775.37,512.06h0c-11.89.83-23.21,4.41-34.68,7.31l-.3-.48c-25.93-10.51-51.84-22.58-77.82-33.35-10.59-4.18-21.44-8.51-32.12-11.33a185.79,185.79,0,0,0-34.26-6.9c-14.08-.88-28.13-.92-41.88,1.66a182,182,0,0,0-23.83,5.45c-11.94-8.79-24.09-17.47-36.57-23.62-6.94-4-14.72-6.81-21.82-9.08V514.3c105,17.2,210,45.76,315,63q0-32.67-.08-65.34A84.84,84.84,0,0,0,775.37,512.06Z" style="fill: #0d6826"/>
    <path d="M697.81,529.42c-20.34,4.67-40.82,7-62,3.88A138.39,138.39,0,0,1,615,527.67c-36.58-14.34-70-46.95-104.76-69.49a199.65,199.65,0,0,0-30.4-15.8c-3.24-1.15-2.89-1.71-6-2.47l.42,4.73c55.54,18.94,100.32,79.85,155.77,91.89,60,13.24,116.34-26.5,156.07-22.63l1.56-3.55c-17.36-.56-36.69,4-53.12,8.85C722.45,522.87,710,526.44,697.81,529.42Z"/>
    <path d="M731.41,513.32c-29.22-12.16-58.52-26.32-88-36.91a237.28,237.28,0,0,0-41.5-10.32,172.43,172.43,0,0,0-37.08-.54,211,211,0,0,0-36.53,7.58l4.2,3.34h0c75.88-21.9,118.93,8.27,205.24,43.85l3.78-1.3-.59-1.77Z"/>
    <g style="clip-path: url(#a)">
      <path d="M498.37,608.51c-.12,0-.21,0-.34,0-.93-.17-1.85-4.64-3.53-10.59s-2.53-7.93-3.2-8-1.51,1.57-3.19,6.93-2.61,9.5-3.53,9.34c-.16,0-.34-.13-.47-.15l-3.86-6.67-.93,1V722.51c0,3.81,3.11,15.07,6.9,21.81h0V757c3.37.56,6.75,1.14,10.12,1.72V745.91c3.79-5.39,6.86-15.39,6.86-19.2V629.1l0-.13c0-.13,0-.3,0-.49V604.54c-.31-.44-.62-.89-.92-1.34Z"/>
      <path d="M493.61,748.85a3.28,3.28,0,0,1-2.35.57,4.23,4.23,0,0,1-2.27-1.25v9.2l-.72-.13v2.84q3,.51,6,1v-2.84l-.63-.11Z" style="fill: #ffeb43"/>
      <path d="M481.84,611.57h0v12.21c0,1.59.72,5.77,1.56,7.08s1.22,1.55,1.93-.83,2.23-4.53,2.27-6.86-1.77-5.4-2.57-7.19S481.84,608.06,481.84,611.57Z" style="fill: #ffeb43"/>
      <path d="M497.48,618.17c-.8,1.51-2.61,4-2.57,6.29s1.55,5,2.27,7.66,1.09,2.53,1.93,1.51,1.56-4.94,1.56-6.54V614.88h0C500.67,611.38,498.27,616.65,497.48,618.17Z" style="fill: #ffeb43"/>
      <polygon points="493.44 619.89 493.44 619.89 493.44 619.89 493.44 619.89" style="fill: #ffeb43"/>
      <path d="M492.89,600.83c-1.22-4.2-1.64-3.24-1.64-3.3s-.41-1-1.63,2.72-2.83,6.51-2.83,10a20.62,20.62,0,0,0,2.41,9.14c1-2.9,1.6-3.84,2.14-3.74s1.13,1.18,2.1,4.23c1.42-1.95,2.27-5.73,2.27-8.06C495.71,608.33,494.11,605,492.89,600.83Z" style="fill: #ffeb43"/>
      <path d="M481.84,636.11h0v12.22c0,1.6.72,5.78,1.56,7.08s1.22,1.56,1.93-.83,2.23-4.52,2.27-6.86-1.77-5.39-2.57-7.19S481.84,632.62,481.84,636.11Z" style="fill: #ffeb43"/>
      <path d="M497.48,642.73c-.8,1.51-2.61,3.95-2.57,6.28s1.55,5,2.27,7.66,1.09,2.52,1.93,1.51,1.56-4.93,1.56-6.53V639.43h0C500.67,635.94,498.27,641.21,497.48,642.73Z" style="fill: #ffeb43"/>
      <polygon points="493.44 644.46 493.44 644.46 493.44 644.46 493.44 644.46" style="fill: #ffeb43"/>
      <path d="M492.89,625.39c-1.22-4.21-1.64-3.24-1.64-3.3s-.41-1.05-1.63,2.72-2.83,6.51-2.83,10A20.55,20.55,0,0,0,489.2,644c1-2.89,1.6-3.83,2.14-3.74s1.13,1.18,2.1,4.25c1.42-2,2.27-5.74,2.27-8.07C495.71,632.89,494.11,629.59,492.89,625.39Z" style="fill: #ffeb43"/>
      <path d="M481.84,660.68h0v12.21c0,1.6.72,5.77,1.56,7.08s1.22,1.56,1.93-.83,2.23-4.53,2.27-6.85-1.77-5.41-2.57-7.2S481.84,657.17,481.84,660.68Z" style="fill: #ffeb43"/>
      <path d="M497.48,667.28c-.8,1.51-2.61,4-2.57,6.29s1.55,5,2.27,7.65,1.09,2.53,1.93,1.52,1.56-4.93,1.56-6.53V664h0C500.67,660.49,498.27,665.77,497.48,667.28Z" style="fill: #ffeb43"/>
      <path d="M492.89,650c-1.22-4.2-1.64-3.23-1.64-3.29s-.41-1.06-1.63,2.72-2.83,6.5-2.83,10a20.62,20.62,0,0,0,2.41,9.13c1-2.89,1.6-3.83,2.14-3.74s1.13,1.18,2.1,4.24c1.42-2,2.27-5.73,2.27-8.06C495.71,657.46,494.11,654.15,492.89,650Z" style="fill: #ffeb43"/>
      <polygon points="493.44 669.02 493.44 669.02 493.44 669.02 493.44 669.02" style="fill: #ffeb43"/>
      <path d="M481.84,685.24h0v12.22c0,1.59.72,5.77,1.56,7.07s1.22,1.57,1.93-.83,2.23-4.52,2.27-6.84-1.77-5.41-2.57-7.21S481.84,681.74,481.84,685.24Z" style="fill: #ffeb43"/>
      <path d="M497.48,691.85c-.8,1.51-2.61,4-2.57,6.29s1.55,5,2.27,7.65,1.09,2.53,1.93,1.51,1.56-4.93,1.56-6.52V688.56h0C500.67,685.05,498.27,690.33,497.48,691.85Z" style="fill: #ffeb43"/>
      <polygon points="493.44 693.59 493.44 693.59 493.44 693.59 493.44 693.59" style="fill: #ffeb43"/>
      <path d="M492.89,674.51c-1.22-4.2-1.64-3.23-1.64-3.29s-.41-1.06-1.63,2.72-2.83,6.5-2.83,10a20.58,20.58,0,0,0,2.41,9.13c1-2.9,1.6-3.84,2.14-3.74s1.13,1.18,2.1,4.25a16.27,16.27,0,0,0,2.27-8.07C495.71,682,494.11,678.71,492.89,674.51Z" style="fill: #ffeb43"/>
      <path d="M481.84,709.8h0V722c0,1.6.72,5.78,1.56,7.08s1.22,1.57,1.93-.83,2.23-4.52,2.27-6.85-1.77-5.4-2.57-7.19S481.84,706.3,481.84,709.8Z" style="fill: #ffeb43"/>
      <path d="M497.48,716.41c-.8,1.51-2.61,4-2.57,6.29s1.55,5,2.27,7.65,1.09,2.53,1.93,1.51,1.56-4.93,1.56-6.53V713.12h0C500.67,709.62,498.27,714.89,497.48,716.41Z" style="fill: #ffeb43"/>
      <polygon points="493.44 718.13 493.44 718.13 493.44 718.13 493.44 718.13" style="fill: #ffeb43"/>
      <path d="M492.89,699.06c-1.22-4.2-1.64-3.24-1.64-3.3s-.41-1-1.63,2.73-2.83,6.5-2.83,10a20.59,20.59,0,0,0,2.41,9.14c1-2.9,1.6-3.83,2.14-3.74s1.13,1.18,2.1,4.24c1.42-2,2.27-5.74,2.27-8.07C495.71,706.56,494.11,703.26,492.89,699.06Z" style="fill: #ffeb43"/>
      <path d="M491.26,720.81c-1.52.28-4,7.83-4,12.37,0,3.2,1.14,12.23,4,12.74s4-8.14,4-11.33C495.25,730.05,492.77,721.62,491.26,720.81Z" style="fill: #ffeb43"/>
      <path d="M526.11,613.72c-.12,0-.21,0-.34,0-.92-.18-1.85-4.66-3.53-10.63s-2.52-8-3.19-8.1-1.52,1.55-3.19,6.88-2.61,9.45-3.53,9.28c-.17,0-.34-.13-.48-.16q-1.92-3.37-3.86-6.73l-.92,1V727.42c0,3.81,3.11,15.13,6.89,21.92h0V762q5.07.91,10.13,1.87V751.09c3.79-5.33,6.85-15.29,6.85-19.1V634.37l0-.13c0-.12,0-.29,0-.48V609.82l-.92-1.35Z"/>
      <path d="M521.36,754a3.29,3.29,0,0,1-2.36.54,4.35,4.35,0,0,1-2.27-1.29v9.2l-.71-.14v2.84l6,1.14v-2.84l-.63-.12Z" style="fill: #ffeb43"/>
      <path d="M509.59,616.52h0v12.21c0,1.6.71,5.79,1.56,7.11s1.22,1.58,1.92-.79,2.24-4.5,2.28-6.83-1.77-5.42-2.57-7.23S509.59,613,509.59,616.52Z" style="fill: #ffeb43"/>
      <path d="M525.22,623.37c-.8,1.5-2.61,3.92-2.57,6.25s1.56,5,2.28,7.69,1.09,2.54,1.93,1.54,1.55-4.92,1.55-6.52V620.12h0C528.41,616.62,526,621.86,525.22,623.37Z" style="fill: #ffeb43"/>
      <polygon points="521.18 625.03 521.18 625.03 521.18 625.03 521.18 625.03" style="fill: #ffeb43"/>
      <path d="M520.63,606c-1.21-4.22-1.63-3.26-1.63-3.32s-.42-1.06-1.64,2.7-2.82,6.46-2.82,10a20.93,20.93,0,0,0,2.4,9.17c1-2.88,1.6-3.81,2.14-3.7s1.14,1.2,2.1,4.26c1.43-1.93,2.28-5.7,2.28-8C523.46,613.5,521.86,610.19,520.63,606Z" style="fill: #ffeb43"/>
      <path d="M509.59,641.07h0v12.22c0,1.6.71,5.79,1.56,7.11s1.22,1.57,1.92-.8,2.24-4.5,2.28-6.83-1.77-5.42-2.57-7.23S509.59,637.58,509.59,641.07Z" style="fill: #ffeb43"/>
      <path d="M525.22,647.92c-.8,1.5-2.61,3.92-2.57,6.25s1.56,5,2.28,7.69,1.09,2.54,1.93,1.54,1.55-4.91,1.55-6.51V644.67h0C528.41,641.18,526,646.42,525.22,647.92Z" style="fill: #ffeb43"/>
      <polygon points="521.18 649.6 521.18 649.6 521.18 649.6 521.18 649.6" style="fill: #ffeb43"/>
      <path d="M520.63,630.52c-1.21-4.22-1.63-3.26-1.63-3.32s-.42-1.06-1.64,2.69-2.82,6.47-2.82,10a20.94,20.94,0,0,0,2.4,9.18c1-2.88,1.6-3.81,2.14-3.71s1.14,1.2,2.1,4.28c1.43-1.94,2.28-5.7,2.28-8C523.46,638.06,521.86,634.74,520.63,630.52Z" style="fill: #ffeb43"/>
      <path d="M509.59,665.63h0v12.22c0,1.6.71,5.78,1.56,7.1s1.22,1.58,1.92-.8,2.24-4.49,2.28-6.81-1.77-5.43-2.57-7.24S509.59,662.13,509.59,665.63Z" style="fill: #ffeb43"/>
      <path d="M525.22,672.48c-.8,1.5-2.61,3.92-2.57,6.25s1.56,5,2.28,7.69S526,689,526.86,688s1.55-4.91,1.55-6.51V669.23h0C528.41,665.73,526,671,525.22,672.48Z" style="fill: #ffeb43"/>
      <polygon points="521.18 674.16 521.18 674.16 521.18 674.16 521.18 674.16" style="fill: #ffeb43"/>
      <path d="M520.63,655.08c-1.21-4.22-1.63-3.26-1.63-3.32s-.42-1.06-1.64,2.7-2.82,6.46-2.82,10a20.9,20.9,0,0,0,2.4,9.17c1-2.87,1.6-3.8,2.14-3.7s1.14,1.2,2.1,4.27c1.43-1.94,2.28-5.7,2.28-8C523.46,662.63,521.86,659.3,520.63,655.08Z" style="fill: #ffeb43"/>
      <path d="M509.59,690.2h0v12.22c0,1.59.71,5.78,1.56,7.1s1.22,1.58,1.92-.8,2.24-4.49,2.28-6.81-1.77-5.44-2.57-7.25S509.59,686.7,509.59,690.2Z" style="fill: #ffeb43"/>
      <path d="M525.22,697c-.8,1.5-2.61,3.93-2.57,6.26s1.56,5,2.28,7.69,1.09,2.54,1.93,1.53,1.55-4.91,1.55-6.5V693.8h0C528.41,690.29,526,695.54,525.22,697Z" style="fill: #ffeb43"/>
      <polygon points="521.18 698.72 521.18 698.72 521.18 698.72 521.18 698.72" style="fill: #ffeb43"/>
      <path d="M520.63,679.64c-1.21-4.22-1.63-3.26-1.63-3.31s-.42-1.07-1.64,2.69-2.82,6.46-2.82,10a21,21,0,0,0,2.4,9.18c1-2.89,1.6-3.82,2.14-3.71s1.14,1.2,2.1,4.27c1.43-1.94,2.28-5.7,2.28-8C523.46,687.19,521.86,683.86,520.63,679.64Z" style="fill: #ffeb43"/>
      <path d="M509.59,714.76h0V727c0,1.6.71,5.79,1.56,7.11s1.22,1.58,1.92-.8,2.24-4.5,2.28-6.82-1.77-5.43-2.57-7.23S509.59,711.26,509.59,714.76Z" style="fill: #ffeb43"/>
      <path d="M525.22,721.61c-.8,1.49-2.61,3.91-2.57,6.25s1.56,5,2.28,7.68,1.09,2.55,1.93,1.54,1.55-4.91,1.55-6.51V718.36h0C528.41,714.86,526,720.1,525.22,721.61Z" style="fill: #ffeb43"/>
      <polygon points="521.18 723.27 521.18 723.27 521.18 723.27 521.18 723.27" style="fill: #ffeb43"/>
      <path d="M520.63,704.19c-1.21-4.22-1.63-3.26-1.63-3.32s-.42-1.06-1.64,2.7-2.82,6.46-2.82,10a20.86,20.86,0,0,0,2.4,9.17c1-2.89,1.6-3.81,2.14-3.7s1.14,1.2,2.1,4.27c1.43-1.94,2.28-5.71,2.28-8C523.46,711.73,521.86,708.41,520.63,704.19Z" style="fill: #ffeb43"/>
      <path d="M519,725.91c-1.51.26-4,7.78-4,12.32,0,3.19,1.13,12.25,4,12.79s4-8.07,4-11.27C523,735.22,520.52,726.75,519,725.91Z" style="fill: #ffeb43"/>
      <path d="M553.87,619.28c-.13,0-.22,0-.35,0-.92-.19-1.85-4.68-3.52-10.68s-2.53-8-3.2-8.13-1.51,1.53-3.19,6.84-2.61,9.42-3.53,9.24c-.17,0-.34-.14-.47-.17l-3.87-6.78c-.3.33-.61.66-.92,1V732.75c0,3.81,3.11,15.17,6.89,22h0V767.4l10.13,2V756.63c3.79-5.3,6.85-15.22,6.85-19V640l0-.13c0-.12,0-.29,0-.48V615.43l-.92-1.36Z"/>
      <path d="M549.11,759.5a3.37,3.37,0,0,1-2.36.51,4.43,4.43,0,0,1-2.27-1.32v9.2l-.71-.14h0v2.83l6,1.21V769l-.63-.13Z" style="fill: #ffeb43"/>
      <path d="M537.34,621.89h0V634.1c0,1.59.71,5.8,1.56,7.13s1.22,1.58,1.93-.78,2.23-4.47,2.27-6.79-1.77-5.45-2.57-7.27S537.34,618.38,537.34,621.89Z" style="fill: #ffeb43"/>
      <path d="M553,628.92c-.81,1.49-2.61,3.89-2.57,6.22s1.55,5.05,2.27,7.72,1.09,2.55,1.93,1.56,1.56-4.9,1.56-6.5V625.71h0C556.17,622.21,553.77,627.42,553,628.92Z" style="fill: #ffeb43"/>
      <path d="M546.75,608.12c0,.06-.42-1.07-1.64,2.68s-2.82,6.42-2.82,9.92a21.16,21.16,0,0,0,2.4,9.21c1-2.87,1.6-3.79,2.14-3.68s1.14,1.21,2.1,4.29c1.43-1.92,2.28-5.68,2.28-8,0-3.5-1.6-6.83-2.83-11.07S546.75,608.18,546.75,608.12Z" style="fill: #ffeb43"/>
      <path d="M537.34,646.43h0v12.22c0,1.6.71,5.8,1.56,7.13s1.22,1.59,1.93-.78,2.23-4.46,2.27-6.79-1.77-5.45-2.57-7.26S537.34,642.94,537.34,646.43Z" style="fill: #ffeb43"/>
      <path d="M553,653.47c-.81,1.49-2.61,3.89-2.57,6.22s1.55,5,2.27,7.72,1.09,2.55,1.93,1.56,1.56-4.9,1.56-6.49V650.25h0C556.17,646.76,553.77,652,553,653.47Z" style="fill: #ffeb43"/>
      <path d="M546.75,632.68c0,.06-.42-1.07-1.64,2.67s-2.82,6.43-2.82,9.93a21.09,21.09,0,0,0,2.4,9.2c1-2.87,1.6-3.79,2.14-3.68s1.14,1.21,2.1,4.3c1.43-1.92,2.28-5.67,2.28-8,0-3.5-1.6-6.84-2.83-11.07S546.75,632.74,546.75,632.68Z" style="fill: #ffeb43"/>
      <path d="M537.34,671h0v12.21c0,1.61.71,5.79,1.56,7.13s1.22,1.59,1.93-.78,2.23-4.46,2.27-6.79-1.77-5.45-2.57-7.27S537.34,667.49,537.34,671Z" style="fill: #ffeb43"/>
      <path d="M553,678c-.81,1.49-2.61,3.89-2.57,6.22s1.55,5.06,2.27,7.71,1.09,2.56,1.93,1.57,1.56-4.89,1.56-6.5V674.82h0C556.17,671.31,553.77,676.54,553,678Z" style="fill: #ffeb43"/>
      <path d="M546.75,657.24c0,.06-.42-1.07-1.64,2.68s-2.82,6.43-2.82,9.93a21.12,21.12,0,0,0,2.4,9.2c1-2.87,1.6-3.79,2.14-3.68s1.14,1.21,2.1,4.29c1.43-1.92,2.28-5.67,2.28-8,0-3.5-1.6-6.84-2.83-11.08S546.75,657.3,546.75,657.24Z" style="fill: #ffeb43"/>
      <path d="M537.34,695.56h0v12.22c0,1.59.71,5.79,1.56,7.12s1.22,1.6,1.93-.77,2.23-4.47,2.27-6.79-1.77-5.46-2.57-7.27S537.34,692.06,537.34,695.56Z" style="fill: #ffeb43"/>
      <path d="M553,702.59c-.81,1.49-2.61,3.9-2.57,6.23s1.55,5,2.27,7.71,1.09,2.56,1.93,1.56,1.56-4.9,1.56-6.49V699.38h0C556.17,695.88,553.77,701.1,553,702.59Z" style="fill: #ffeb43"/>
      <path d="M546.75,681.8c0,.06-.42-1.06-1.64,2.68s-2.82,6.43-2.82,9.93a21.12,21.12,0,0,0,2.4,9.2c1-2.87,1.6-3.79,2.14-3.68s1.14,1.21,2.1,4.3c1.43-1.93,2.28-5.68,2.28-8,0-3.5-1.6-6.85-2.83-11.08S546.75,681.86,546.75,681.8Z" style="fill: #ffeb43"/>
      <path d="M537.34,720.12h0v12.21c0,1.59.71,5.79,1.56,7.12s1.22,1.6,1.93-.78,2.23-4.46,2.27-6.78-1.77-5.46-2.57-7.27S537.34,716.62,537.34,720.12Z" style="fill: #ffeb43"/>
      <path d="M553,727.16c-.81,1.48-2.61,3.88-2.57,6.22s1.55,5,2.27,7.71,1.09,2.56,1.93,1.56,1.56-4.9,1.56-6.49V724h0C556.17,720.44,553.77,725.66,553,727.16Z" style="fill: #ffeb43"/>
      <path d="M546.75,706.35c0,.06-.42-1.07-1.64,2.68s-2.82,6.42-2.82,9.92a21.13,21.13,0,0,0,2.4,9.21c1-2.88,1.6-3.79,2.14-3.68s1.14,1.21,2.1,4.29c1.43-1.92,2.28-5.68,2.28-8,0-3.5-1.6-6.84-2.83-11.07S546.75,706.41,546.75,706.35Z" style="fill: #ffeb43"/>
      <path d="M546.75,731.39c-1.51.24-4,7.73-4,12.27,0,3.19,1.13,12.26,4,12.84s4-8,4-11.22C550.75,740.74,548.27,732.25,546.75,731.39Z" style="fill: #ffeb43"/>
      <path d="M581.62,625.09c-.12,0-.21,0-.34,0-.93-.2-1.85-4.69-3.53-10.7s-2.53-8-3.2-8.17-1.51,1.53-3.19,6.82-2.61,9.4-3.53,9.21c-.17,0-.34-.14-.47-.17l-3.86-6.82-.93,1V738.4c0,3.81,3.11,15.2,6.9,22.08h0v12.64l10.12,2.08V762.43c3.79-5.27,6.86-15.17,6.86-19V645.83l0-.13c0-.13,0-.29,0-.48V621.28l-.93-1.37Z"/>
      <path d="M576.86,765.28a3.31,3.31,0,0,1-2.35.49,4.44,4.44,0,0,1-2.27-1.34v9.2l-.72-.15h0v2.83l6,1.27v-2.84l-.63-.13Z" style="fill: #ffeb43"/>
      <path d="M565.09,627.56h0v12.21c0,1.6.72,5.81,1.56,7.15s1.22,1.59,1.93-.76,2.23-4.45,2.27-6.78-1.77-5.46-2.57-7.28S565.09,624.06,565.09,627.56Z" style="fill: #ffeb43"/>
      <path d="M580.73,634.73c-.8,1.48-2.61,3.86-2.57,6.2s1.55,5.06,2.27,7.73,1.09,2.57,1.93,1.58,1.56-4.89,1.56-6.49V631.54h0C583.92,628,581.52,633.24,580.73,634.73Z" style="fill: #ffeb43"/>
      <path d="M574.5,613.88s-.42-1.07-1.63,2.66-2.83,6.4-2.83,9.9a21.16,21.16,0,0,0,2.41,9.23c1-2.87,1.6-3.78,2.14-3.66s1.13,1.22,2.1,4.3c1.42-1.9,2.27-5.65,2.27-8,0-3.5-1.6-6.85-2.82-11.1S574.5,613.93,574.5,613.88Z" style="fill: #ffeb43"/>
      <path d="M565.09,652.11h0v12.22c0,1.6.72,5.8,1.56,7.14s1.22,1.6,1.93-.76,2.23-4.44,2.27-6.78-1.77-5.46-2.57-7.28S565.09,648.62,565.09,652.11Z" style="fill: #ffeb43"/>
      <path d="M580.73,659.28c-.8,1.48-2.61,3.87-2.57,6.2s1.55,5.06,2.27,7.74,1.09,2.55,1.93,1.57,1.56-4.89,1.56-6.48V656.09h0C583.92,652.59,581.52,657.79,580.73,659.28Z" style="fill: #ffeb43"/>
      <path d="M574.5,638.43c0,.07-.42-1.07-1.63,2.67S570,647.5,570,651a21.08,21.08,0,0,0,2.41,9.22c1-2.86,1.6-3.78,2.14-3.66s1.13,1.22,2.1,4.32c1.42-1.91,2.27-5.66,2.27-8,0-3.49-1.6-6.85-2.82-11.09S574.5,638.5,574.5,638.43Z" style="fill: #ffeb43"/>
      <path d="M565.09,676.67h0v12.22c0,1.6.72,5.79,1.56,7.14s1.22,1.6,1.93-.77,2.23-4.44,2.27-6.76-1.77-5.47-2.57-7.29S565.09,673.17,565.09,676.67Z" style="fill: #ffeb43"/>
      <path d="M580.73,683.84c-.8,1.48-2.61,3.86-2.57,6.2s1.55,5.07,2.27,7.73,1.09,2.57,1.93,1.58,1.56-4.88,1.56-6.48V680.65h0C583.92,677.15,581.52,682.35,580.73,683.84Z" style="fill: #ffeb43"/>
      <path d="M574.5,663c0,.06-.42-1.07-1.63,2.66s-2.83,6.41-2.83,9.91a21.12,21.12,0,0,0,2.41,9.22c1-2.86,1.6-3.78,2.14-3.66s1.13,1.22,2.1,4.31c1.42-1.91,2.27-5.66,2.27-8,0-3.5-1.6-6.85-2.82-11.1S574.5,663.06,574.5,663Z" style="fill: #ffeb43"/>
      <path d="M565.09,701.24h0v12.22c0,1.59.72,5.79,1.56,7.13s1.22,1.61,1.93-.76,2.23-4.44,2.27-6.76-1.77-5.48-2.57-7.3S565.09,697.73,565.09,701.24Z" style="fill: #ffeb43"/>
      <path d="M580.73,708.4c-.8,1.49-2.61,3.87-2.57,6.21s1.55,5.06,2.27,7.73,1.09,2.56,1.93,1.57,1.56-4.88,1.56-6.47V705.21h0C583.92,701.71,581.52,706.91,580.73,708.4Z" style="fill: #ffeb43"/>
      <path d="M574.5,687.56c0,.06-.42-1.07-1.63,2.66s-2.83,6.4-2.83,9.91a21.12,21.12,0,0,0,2.41,9.22c1-2.86,1.6-3.78,2.14-3.66s1.13,1.22,2.1,4.31c1.42-1.91,2.27-5.66,2.27-8,0-3.5-1.6-6.85-2.82-11.1S574.5,687.62,574.5,687.56Z" style="fill: #ffeb43"/>
      <path d="M565.09,725.8h0V738c0,1.6.72,5.8,1.56,7.14s1.22,1.61,1.93-.76,2.23-4.44,2.27-6.76-1.77-5.48-2.57-7.29S565.09,722.3,565.09,725.8Z" style="fill: #ffeb43"/>
      <path d="M580.73,733c-.8,1.47-2.61,3.86-2.57,6.2s1.55,5.06,2.27,7.73,1.09,2.56,1.93,1.57,1.56-4.89,1.56-6.48V729.78h0C583.92,726.27,581.52,731.47,580.73,733Z" style="fill: #ffeb43"/>
      <path d="M574.5,712.11c0,.06-.42-1.07-1.63,2.66s-2.83,6.4-2.83,9.9a21.12,21.12,0,0,0,2.41,9.23c1-2.87,1.6-3.78,2.14-3.66s1.13,1.22,2.1,4.31c1.42-1.91,2.27-5.66,2.27-8,0-3.5-1.6-6.85-2.82-11.1S574.5,712.17,574.5,712.11Z" style="fill: #ffeb43"/>
      <path d="M574.51,737.15c-1.52.23-4,7.69-4,12.23,0,3.2,1.14,12.27,4,12.88s4-8,4-11.19C578.5,746.53,576,738,574.51,737.15Z" style="fill: #ffeb43"/>
      <path d="M609.36,631.07c-.12,0-.21,0-.34,0-.93-.2-1.85-4.7-3.53-10.71s-2.52-8-3.19-8.18-1.52,1.51-3.2,6.79-2.6,9.39-3.52,9.19c-.17,0-.35-.14-.48-.17q-1.92-3.42-3.86-6.84l-.92,1V744.28c0,3.81,3.11,15.21,6.89,22.11h0V779l10.13,2.12V768.4c3.79-5.25,6.85-15.15,6.85-19V651.83l0-.13c0-.13,0-.3,0-.48v-24l-.92-1.37Q611.32,628.5,609.36,631.07Z"/>
      <path d="M604.61,771.23a3.34,3.34,0,0,1-2.36.48,4.5,4.5,0,0,1-2.27-1.35v9.2l-.71-.15v2.83l6,1.29V780.7l-.63-.14Z" style="fill: #ffeb43"/>
      <path d="M592.84,633.45h0v12.21c0,1.6.71,5.81,1.55,7.16s1.23,1.6,1.93-.75,2.24-4.44,2.28-6.76-1.77-5.48-2.57-7.3S592.84,630,592.84,633.45Z" style="fill: #ffeb43"/>
      <path d="M608.47,640.7c-.8,1.48-2.61,3.85-2.57,6.19s1.56,5.07,2.28,7.75,1.09,2.56,1.93,1.58,1.55-4.89,1.55-6.49V637.52h0C611.66,634,609.27,639.21,608.47,640.7Z" style="fill: #ffeb43"/>
      <polygon points="604.43 642.27 604.43 642.27 604.43 642.27 604.43 642.27" style="fill: #ffeb43"/>
      <path d="M603.88,623.18c-1.21-4.25-1.63-3.3-1.63-3.36s-.42-1.07-1.64,2.65-2.82,6.39-2.82,9.89a21.36,21.36,0,0,0,2.4,9.24c1-2.86,1.6-3.77,2.14-3.65s1.14,1.23,2.1,4.32c1.43-1.9,2.28-5.65,2.28-8C606.71,630.79,605.11,627.44,603.88,623.18Z" style="fill: #ffeb43"/>
      <path d="M592.84,658h0v12.22c0,1.6.71,5.8,1.55,7.15s1.23,1.61,1.93-.75,2.24-4.43,2.28-6.76-1.77-5.47-2.57-7.3S592.84,654.51,592.84,658Z" style="fill: #ffeb43"/>
      <path d="M608.47,665.25c-.8,1.48-2.61,3.86-2.57,6.19s1.56,5.07,2.28,7.75,1.09,2.56,1.93,1.58,1.55-4.88,1.55-6.48V662.07h0C611.66,658.58,609.27,663.76,608.47,665.25Z" style="fill: #ffeb43"/>
      <polygon points="604.43 666.83 604.43 666.83 604.43 666.83 604.43 666.83" style="fill: #ffeb43"/>
      <path d="M603.88,647.74c-1.21-4.25-1.63-3.3-1.63-3.36s-.42-1.08-1.64,2.65-2.82,6.39-2.82,9.89a21.36,21.36,0,0,0,2.4,9.24c1-2.86,1.6-3.78,2.14-3.66s1.14,1.23,2.1,4.33c1.43-1.9,2.28-5.65,2.28-8C606.71,655.35,605.11,652,603.88,647.74Z" style="fill: #ffeb43"/>
      <path d="M592.84,682.56h0v12.22c0,1.6.71,5.8,1.55,7.15s1.23,1.61,1.93-.76,2.24-4.42,2.28-6.75-1.77-5.48-2.57-7.3S592.84,679.06,592.84,682.56Z" style="fill: #ffeb43"/>
      <path d="M608.47,689.81c-.8,1.48-2.61,3.85-2.57,6.19s1.56,5.07,2.28,7.74,1.09,2.57,1.93,1.59,1.55-4.88,1.55-6.48V686.63h0C611.66,683.13,609.27,688.33,608.47,689.81Z" style="fill: #ffeb43"/>
      <polygon points="604.43 691.39 604.43 691.39 604.43 691.39 604.43 691.39" style="fill: #ffeb43"/>
      <path d="M603.88,672.3c-1.21-4.25-1.63-3.3-1.63-3.36s-.42-1.07-1.64,2.66-2.82,6.39-2.82,9.89a21.31,21.31,0,0,0,2.4,9.23c1-2.85,1.6-3.77,2.14-3.65s1.14,1.23,2.1,4.32c1.43-1.9,2.28-5.64,2.28-8C606.71,679.92,605.11,676.55,603.88,672.3Z" style="fill: #ffeb43"/>
      <path d="M592.84,707.13h0v12.22c0,1.59.71,5.8,1.55,7.14s1.23,1.62,1.93-.75,2.24-4.43,2.28-6.75-1.77-5.48-2.57-7.31S592.84,703.62,592.84,707.13Z" style="fill: #ffeb43"/>
      <path d="M608.47,714.37c-.8,1.48-2.61,3.86-2.57,6.2s1.56,5.07,2.28,7.74,1.09,2.57,1.93,1.58,1.55-4.88,1.55-6.47V711.2h0C611.66,707.7,609.27,712.89,608.47,714.37Z" style="fill: #ffeb43"/>
      <polygon points="604.43 715.96 604.43 715.96 604.43 715.96 604.43 715.96" style="fill: #ffeb43"/>
      <path d="M603.88,696.86c-1.21-4.25-1.63-3.3-1.63-3.35s-.42-1.08-1.64,2.64-2.82,6.39-2.82,9.9a21.31,21.31,0,0,0,2.4,9.23c1-2.86,1.6-3.77,2.14-3.65s1.14,1.23,2.1,4.33c1.43-1.91,2.28-5.65,2.28-8C606.71,704.47,605.11,701.11,603.88,696.86Z" style="fill: #ffeb43"/>
      <path d="M592.84,731.69h0V743.9c0,1.6.71,5.8,1.55,7.15s1.23,1.61,1.93-.75,2.24-4.43,2.28-6.75-1.77-5.48-2.57-7.31S592.84,728.19,592.84,731.69Z" style="fill: #ffeb43"/>
      <path d="M608.47,738.94c-.8,1.47-2.61,3.85-2.57,6.19s1.56,5.07,2.28,7.74,1.09,2.57,1.93,1.58,1.55-4.88,1.55-6.48V735.76h0C611.66,732.26,609.27,737.45,608.47,738.94Z" style="fill: #ffeb43"/>
      <polygon points="604.43 740.5 604.43 740.5 604.43 740.5 604.43 740.5" style="fill: #ffeb43"/>
      <path d="M603.88,721.41c-1.21-4.25-1.63-3.3-1.63-3.36s-.42-1.07-1.64,2.66-2.82,6.38-2.82,9.88a21.32,21.32,0,0,0,2.4,9.24c1-2.86,1.6-3.77,2.14-3.65s1.14,1.23,2.1,4.32c1.43-1.9,2.28-5.65,2.28-8C606.71,729,605.11,725.66,603.88,721.41Z" style="fill: #ffeb43"/>
      <path d="M602.25,743.09c-1.51.22-4,7.68-4,12.21,0,3.2,1.13,12.28,4,12.9s4-8,4-11.17C606.25,752.49,603.77,744,602.25,743.09Z" style="fill: #ffeb43"/>
      <path d="M637.12,637.11c-.13,0-.22,0-.35,0-.92-.2-1.85-4.7-3.53-10.72s-2.52-8-3.19-8.19-1.52,1.52-3.19,6.8-2.61,9.38-3.53,9.18c-.17,0-.34-.15-.48-.18L619,627.15l-.92,1V750.29c0,3.81,3.11,15.22,6.89,22.13h0v12.64l10.13,2.15V774.44c3.79-5.24,6.85-15.14,6.85-19V657.88l0-.13c0-.13,0-.3,0-.48V633.32L641,632Z"/>
      <path d="M632.36,777.27a3.29,3.29,0,0,1-2.36.48,4.53,4.53,0,0,1-2.27-1.36v9.2l-.71-.15h0v2.83l6,1.3v-2.83l-.63-.14Z" style="fill: #ffeb43"/>
      <path d="M620.59,639.47h0v12.21c0,1.6.71,5.81,1.56,7.16s1.22,1.6,1.93-.75,2.23-4.43,2.27-6.75-1.77-5.48-2.57-7.31S620.59,636,620.59,639.47Z" style="fill: #ffeb43"/>
      <path d="M636.23,646.75c-.81,1.48-2.61,3.85-2.57,6.18s1.55,5.07,2.27,7.75,1.09,2.57,1.93,1.58,1.56-4.88,1.56-6.48V643.57h0C639.41,640.07,637,645.26,636.23,646.75Z" style="fill: #ffeb43"/>
      <path d="M630,625.86s-.42-1.08-1.64,2.65-2.82,6.38-2.82,9.88a21.36,21.36,0,0,0,2.4,9.24c1-2.85,1.6-3.76,2.14-3.64s1.14,1.23,2.1,4.32c1.43-1.9,2.28-5.65,2.28-8,0-3.49-1.6-6.85-2.83-11.11S630,625.91,630,625.86Z" style="fill: #ffeb43"/>
      <path d="M620.59,664h0v12.23c0,1.59.71,5.8,1.56,7.15s1.22,1.61,1.93-.74,2.23-4.43,2.27-6.76-1.77-5.48-2.57-7.31S620.59,660.52,620.59,664Z" style="fill: #ffeb43"/>
      <path d="M636.23,671.3c-.81,1.48-2.61,3.85-2.57,6.18s1.55,5.07,2.27,7.75,1.09,2.56,1.93,1.58,1.56-4.87,1.56-6.47V668.12h0C639.41,664.63,637,669.81,636.23,671.3Z" style="fill: #ffeb43"/>
      <path d="M630,650.41c0,.07-.42-1.07-1.64,2.66s-2.82,6.38-2.82,9.88a21.36,21.36,0,0,0,2.4,9.24c1-2.85,1.6-3.77,2.14-3.65s1.14,1.23,2.1,4.33c1.43-1.9,2.28-5.64,2.28-8,0-3.49-1.6-6.86-2.83-11.11S630,650.48,630,650.41Z" style="fill: #ffeb43"/>
      <path d="M620.59,688.58h0v12.21c0,1.61.71,5.8,1.56,7.16s1.22,1.61,1.93-.75,2.23-4.42,2.27-6.75-1.77-5.48-2.57-7.31S620.59,685.07,620.59,688.58Z" style="fill: #ffeb43"/>
      <path d="M636.23,695.86c-.81,1.48-2.61,3.85-2.57,6.18s1.55,5.08,2.27,7.74,1.09,2.58,1.93,1.59,1.56-4.87,1.56-6.47V692.68h0C639.41,689.18,637,694.37,636.23,695.86Z" style="fill: #ffeb43"/>
      <path d="M630,675c0,.06-.42-1.07-1.64,2.65s-2.82,6.38-2.82,9.89a21.35,21.35,0,0,0,2.4,9.23c1-2.84,1.6-3.76,2.14-3.64s1.14,1.23,2.1,4.32c1.43-1.9,2.28-5.64,2.28-8,0-3.5-1.6-6.86-2.83-11.12S630,675,630,675Z" style="fill: #ffeb43"/>
      <path d="M620.59,713.14h0v12.22c0,1.59.71,5.8,1.56,7.15s1.22,1.62,1.93-.74,2.23-4.43,2.27-6.75-1.77-5.49-2.57-7.31S620.59,709.64,620.59,713.14Z" style="fill: #ffeb43"/>
      <path d="M636.23,720.42c-.81,1.48-2.61,3.86-2.57,6.19s1.55,5.07,2.27,7.74,1.09,2.57,1.93,1.59,1.56-4.88,1.56-6.47V717.25h0C639.41,713.74,637,718.93,636.23,720.42Z" style="fill: #ffeb43"/>
      <path d="M630,699.54c0,.06-.42-1.07-1.64,2.65s-2.82,6.38-2.82,9.89a21.39,21.39,0,0,0,2.4,9.24c1-2.86,1.6-3.77,2.14-3.65s1.14,1.23,2.1,4.33c1.43-1.91,2.28-5.65,2.28-8,0-3.5-1.6-6.87-2.83-11.12S630,699.6,630,699.54Z" style="fill: #ffeb43"/>
      <path d="M620.59,737.71h0v12.21c0,1.59.71,5.8,1.56,7.15s1.22,1.62,1.93-.74,2.23-4.43,2.27-6.75-1.77-5.49-2.57-7.31S620.59,734.2,620.59,737.71Z" style="fill: #ffeb43"/>
      <path d="M636.23,745c-.81,1.48-2.61,3.85-2.57,6.19s1.55,5.07,2.27,7.74,1.09,2.57,1.93,1.58,1.56-4.87,1.56-6.47V741.81h0C639.41,738.31,637,743.5,636.23,745Z" style="fill: #ffeb43"/>
      <path d="M630,724.09c0,.06-.42-1.08-1.64,2.65s-2.82,6.38-2.82,9.88a21.32,21.32,0,0,0,2.4,9.24c1-2.86,1.6-3.76,2.14-3.64s1.14,1.23,2.1,4.32c1.43-1.9,2.28-5.65,2.28-8,0-3.51-1.6-6.86-2.83-11.12S630,724.15,630,724.09Z" style="fill: #ffeb43"/>
      <path d="M630,749.13c-1.51.22-4,7.67-4,12.2,0,3.2,1.13,12.29,4,12.91s4-8,4-11.17C634,758.54,631.52,750,630,749.13Z" style="fill: #ffeb43"/>
      <path d="M664.85,643.13c-.12,0-.21,0-.34,0-.93-.2-1.85-4.7-3.53-10.71s-2.53-8-3.2-8.18-1.51,1.51-3.19,6.79-2.61,9.39-3.53,9.19c-.16,0-.34-.15-.47-.17-1.29-2.29-2.58-4.57-3.86-6.86l-.93,1V756.33c0,3.81,3.11,15.23,6.9,22.13h0V791.1l10.12,2.13V780.46c3.79-5.25,6.86-15.15,6.86-19V663.88l0-.13c0-.13,0-.29,0-.48V639.33c-.31-.46-.62-.91-.92-1.37C667.45,639.68,666.15,641.41,664.85,643.13Z"/>
      <path d="M660.09,783.3a3.21,3.21,0,0,1-2.35.48,4.46,4.46,0,0,1-2.27-1.35v9.2l-.72-.15v2.83l6,1.29v-2.83l-.63-.14Z" style="fill: #ffeb43"/>
      <path d="M648.32,645.51h0v12.21c0,1.6.72,5.81,1.56,7.16s1.22,1.61,1.93-.74,2.24-4.44,2.27-6.77-1.77-5.47-2.57-7.3S648.32,642,648.32,645.51Z" style="fill: #ffeb43"/>
      <path d="M664,652.77c-.8,1.48-2.61,3.85-2.57,6.19s1.56,5.07,2.27,7.74,1.09,2.57,1.93,1.58,1.56-4.89,1.56-6.49V649.58h0C667.15,646.08,664.75,651.28,664,652.77Z" style="fill: #ffeb43"/>
      <polygon points="659.92 654.34 659.92 654.34 659.92 654.34 659.92 654.34" style="fill: #ffeb43"/>
      <path d="M659.37,635.25c-1.22-4.25-1.64-3.3-1.64-3.36s-.41-1.07-1.63,2.65-2.83,6.39-2.83,9.89a21.23,21.23,0,0,0,2.41,9.24c1-2.86,1.6-3.77,2.14-3.65s1.13,1.23,2.1,4.32c1.42-1.9,2.27-5.65,2.27-8C662.19,642.86,660.59,639.51,659.37,635.25Z" style="fill: #ffeb43"/>
      <path d="M648.32,670.06h0v12.22c0,1.6.72,5.81,1.56,7.15s1.22,1.61,1.93-.74,2.24-4.43,2.27-6.76-1.77-5.48-2.57-7.31S648.32,666.57,648.32,670.06Z" style="fill: #ffeb43"/>
      <path d="M664,677.32c-.8,1.48-2.61,3.86-2.57,6.19s1.56,5.07,2.27,7.74,1.09,2.56,1.93,1.58,1.56-4.88,1.56-6.48V674.13h0C667.15,670.64,664.75,675.83,664,677.32Z" style="fill: #ffeb43"/>
      <polygon points="659.92 678.9 659.92 678.9 659.92 678.9 659.92 678.9" style="fill: #ffeb43"/>
      <path d="M659.37,659.81c-1.22-4.25-1.64-3.3-1.64-3.36s-.41-1.07-1.63,2.65-2.83,6.39-2.83,9.89a21.23,21.23,0,0,0,2.41,9.24c1-2.86,1.6-3.78,2.14-3.66s1.13,1.23,2.1,4.33c1.42-1.9,2.27-5.65,2.27-8C662.19,667.42,660.59,664.06,659.37,659.81Z" style="fill: #ffeb43"/>
      <path d="M648.32,694.62h0v12.22c0,1.6.72,5.8,1.56,7.15s1.22,1.61,1.93-.75,2.24-4.42,2.27-6.75-1.77-5.48-2.57-7.31S648.32,691.12,648.32,694.62Z" style="fill: #ffeb43"/>
      <path d="M664,701.88c-.8,1.48-2.61,3.85-2.57,6.19s1.56,5.07,2.27,7.74,1.09,2.57,1.93,1.58,1.56-4.88,1.56-6.48V698.69h0C667.15,695.19,664.75,700.39,664,701.88Z" style="fill: #ffeb43"/>
      <polygon points="659.92 703.46 659.92 703.46 659.92 703.46 659.92 703.46" style="fill: #ffeb43"/>
      <path d="M659.37,684.37c-1.22-4.25-1.64-3.29-1.64-3.36s-.41-1.07-1.63,2.66-2.83,6.38-2.83,9.89a21.23,21.23,0,0,0,2.41,9.23c1-2.85,1.6-3.77,2.14-3.65s1.13,1.23,2.1,4.32c1.42-1.9,2.27-5.64,2.27-8C662.19,692,660.59,688.62,659.37,684.37Z" style="fill: #ffeb43"/>
      <path d="M648.32,719.19h0v12.22c0,1.59.72,5.8,1.56,7.14s1.22,1.62,1.93-.74,2.24-4.43,2.27-6.75-1.77-5.48-2.57-7.31S648.32,715.68,648.32,719.19Z" style="fill: #ffeb43"/>
      <path d="M664,726.44c-.8,1.48-2.61,3.86-2.57,6.2s1.56,5.06,2.27,7.74,1.09,2.56,1.93,1.57,1.56-4.88,1.56-6.47V723.26h0C667.15,719.76,664.75,725,664,726.44Z" style="fill: #ffeb43"/>
      <polygon points="659.92 728.03 659.92 728.03 659.92 728.03 659.92 728.03" style="fill: #ffeb43"/>
      <path d="M659.37,708.93c-1.22-4.24-1.64-3.3-1.64-3.35s-.41-1.08-1.63,2.64-2.83,6.39-2.83,9.89a21.2,21.2,0,0,0,2.41,9.24c1-2.86,1.6-3.77,2.14-3.65s1.13,1.23,2.1,4.33c1.42-1.91,2.27-5.66,2.27-8C662.19,716.54,660.59,713.18,659.37,708.93Z" style="fill: #ffeb43"/>
      <path d="M648.32,743.75h0V756c0,1.6.72,5.81,1.56,7.15s1.22,1.62,1.93-.74,2.24-4.43,2.27-6.75-1.77-5.49-2.57-7.31S648.32,740.25,648.32,743.75Z" style="fill: #ffeb43"/>
      <path d="M664,751c-.8,1.48-2.61,3.86-2.57,6.2s1.56,5.06,2.27,7.73,1.09,2.57,1.93,1.58,1.56-4.88,1.56-6.48V747.82h0C667.15,744.32,664.75,749.51,664,751Z" style="fill: #ffeb43"/>
      <path d="M659.37,733.48c-1.22-4.25-1.64-3.3-1.64-3.36s-.41-1.07-1.63,2.66-2.83,6.38-2.83,9.88a21.2,21.2,0,0,0,2.41,9.24c1-2.86,1.6-3.77,2.14-3.65s1.13,1.23,2.1,4.32c1.42-1.9,2.27-5.65,2.27-8C662.19,741.09,660.59,737.73,659.37,733.48Z" style="fill: #ffeb43"/>
      <polygon points="659.92 752.57 659.92 752.57 659.92 752.57 659.92 752.57" style="fill: #ffeb43"/>
      <path d="M657.74,755.16c-1.52.23-4,7.68-4,12.21,0,3.2,1.14,12.28,4,12.9s4-8,4-11.17C661.73,764.56,659.25,756,657.74,755.16Z" style="fill: #ffeb43"/>
      <path d="M692.59,649c-.12,0-.21,0-.34,0-.92-.19-1.85-4.68-3.53-10.69s-2.52-8-3.19-8.16S684,631.7,682.34,637s-2.61,9.4-3.53,9.2c-.17,0-.34-.14-.48-.17q-1.92-3.42-3.86-6.83l-.92,1V762.32c0,3.81,3.11,15.22,6.89,22.11h0v12.64l10.13,2.08V786.38c3.79-5.28,6.85-15.2,6.85-19V669.75l0-.13c0-.12,0-.29,0-.48V645.2l-.92-1.36Z"/>
      <path d="M687.84,789.23a3.3,3.3,0,0,1-2.36.49,4.47,4.47,0,0,1-2.27-1.34v9.2l-.71-.15h0v2.84l6,1.26v-2.84l-.63-.13Z" style="fill: #ffeb43"/>
      <path d="M676.07,651.5h0v12.21c0,1.59.71,5.81,1.56,7.15s1.22,1.6,1.92-.75,2.24-4.45,2.28-6.77-1.77-5.47-2.57-7.29S676.07,648,676.07,651.5Z" style="fill: #ffeb43"/>
      <path d="M691.7,658.68c-.8,1.48-2.61,3.87-2.57,6.2s1.56,5.06,2.28,7.73,1.09,2.56,1.93,1.57,1.55-4.9,1.55-6.5V655.47h0C694.89,652,692.5,657.18,691.7,658.68Z" style="fill: #ffeb43"/>
      <path d="M685.48,637.83c0,.06-.42-1.07-1.64,2.67s-2.82,6.4-2.82,9.89a21.24,21.24,0,0,0,2.4,9.23c1-2.86,1.6-3.77,2.14-3.66s1.14,1.22,2.1,4.31c1.43-1.91,2.28-5.66,2.28-8,0-3.5-1.6-6.84-2.83-11.09S685.48,637.89,685.48,637.83Z" style="fill: #ffeb43"/>
      <path d="M676.07,676h0v12.22c0,1.6.71,5.81,1.56,7.15s1.22,1.61,1.92-.75,2.24-4.44,2.28-6.77-1.77-5.47-2.57-7.29S676.07,672.55,676.07,676Z" style="fill: #ffeb43"/>
      <path d="M691.7,683.23c-.8,1.48-2.61,3.87-2.57,6.2s1.56,5.06,2.28,7.73,1.09,2.56,1.93,1.57,1.55-4.89,1.55-6.49V680h0C694.89,676.53,692.5,681.73,691.7,683.23Z" style="fill: #ffeb43"/>
      <path d="M685.48,662.39c0,.06-.42-1.07-1.64,2.66S681,671.45,681,675a21.28,21.28,0,0,0,2.4,9.23c1-2.86,1.6-3.78,2.14-3.67s1.14,1.23,2.1,4.32c1.43-1.91,2.28-5.66,2.28-8,0-3.5-1.6-6.85-2.83-11.1S685.48,662.45,685.48,662.39Z" style="fill: #ffeb43"/>
      <path d="M676.07,700.61h0v12.21c0,1.61.71,5.8,1.56,7.15s1.22,1.61,1.92-.76,2.24-4.43,2.28-6.76-1.77-5.47-2.57-7.3S676.07,697.1,676.07,700.61Z" style="fill: #ffeb43"/>
      <path d="M691.7,707.79c-.8,1.48-2.61,3.87-2.57,6.2s1.56,5.07,2.28,7.73,1.09,2.56,1.93,1.57,1.55-4.89,1.55-6.49V704.58h0C694.89,701.08,692.5,706.3,691.7,707.79Z" style="fill: #ffeb43"/>
      <path d="M685.48,687c0,.07-.42-1.07-1.64,2.67S681,696,681,699.52a21.24,21.24,0,0,0,2.4,9.22c1-2.85,1.6-3.77,2.14-3.66s1.14,1.23,2.1,4.32c1.43-1.92,2.28-5.67,2.28-8,0-3.51-1.6-6.86-2.83-11.1S685.48,687,685.48,687Z" style="fill: #ffeb43"/>
      <path d="M676.07,725.17h0v12.22c0,1.59.71,5.8,1.56,7.14s1.22,1.62,1.92-.75,2.24-4.44,2.28-6.76-1.77-5.48-2.57-7.3S676.07,721.67,676.07,725.17Z" style="fill: #ffeb43"/>
      <path d="M691.7,732.35c-.8,1.49-2.61,3.88-2.57,6.21s1.56,5.06,2.28,7.73,1.09,2.55,1.93,1.56,1.55-4.89,1.55-6.48V729.15h0C694.89,725.65,692.5,730.86,691.7,732.35Z" style="fill: #ffeb43"/>
      <path d="M685.48,711.52c0,.06-.42-1.07-1.64,2.66s-2.82,6.4-2.82,9.9a21.31,21.31,0,0,0,2.4,9.23c1-2.87,1.6-3.78,2.14-3.67s1.14,1.22,2.1,4.32c1.43-1.92,2.28-5.67,2.28-8,0-3.5-1.6-6.85-2.83-11.09S685.48,711.58,685.48,711.52Z" style="fill: #ffeb43"/>
      <path d="M676.07,749.73h0v12.21c0,1.6.71,5.81,1.56,7.15s1.22,1.61,1.92-.75,2.24-4.44,2.28-6.76-1.77-5.48-2.57-7.3S676.07,746.23,676.07,749.73Z" style="fill: #ffeb43"/>
      <path d="M691.7,756.91c-.8,1.48-2.61,3.88-2.57,6.21s1.56,5.06,2.28,7.72,1.09,2.57,1.93,1.57,1.55-4.89,1.55-6.49V753.71h0C694.89,750.21,692.5,755.42,691.7,756.91Z" style="fill: #ffeb43"/>
      <path d="M685.48,736.06c0,.06-.42-1.07-1.64,2.67s-2.82,6.39-2.82,9.89a21.24,21.24,0,0,0,2.4,9.23c1-2.86,1.6-3.77,2.14-3.66s1.14,1.23,2.1,4.32c1.43-1.92,2.28-5.67,2.28-8,0-3.5-1.6-6.85-2.83-11.09S685.48,736.12,685.48,736.06Z" style="fill: #ffeb43"/>
      <path d="M685.48,761.1c-1.51.24-4,7.7-4,12.23,0,3.2,1.13,12.28,4,12.89s4-8,4-11.2C689.48,770.49,687,762,685.48,761.1Z" style="fill: #ffeb43"/>
      <path d="M720.35,654.73c-.13,0-.21,0-.35,0-.92-.18-1.85-4.67-3.52-10.66s-2.53-8-3.2-8.13-1.51,1.53-3.19,6.84-2.61,9.41-3.53,9.22c-.17,0-.34-.14-.47-.16L702.22,645l-.92,1V768.17c0,3.81,3.11,15.2,6.89,22.06h0v12.64l10.13,2V792.09c3.79-5.31,6.85-15.26,6.85-19.07V675.4l0-.13c0-.12,0-.29,0-.48V650.85l-.92-1.35Z"/>
      <path d="M715.59,795a3.32,3.32,0,0,1-2.36.51,4.43,4.43,0,0,1-2.27-1.32v9.2l-.71-.14v2.83l6,1.21v-2.83l-.63-.13Z" style="fill: #ffeb43"/>
      <path d="M703.82,657.33h0v12.21c0,1.6.71,5.8,1.56,7.14s1.22,1.59,1.93-.77,2.23-4.46,2.27-6.79-1.77-5.45-2.57-7.27S703.82,653.83,703.82,657.33Z" style="fill: #ffeb43"/>
      <path d="M719.46,664.38c-.81,1.49-2.61,3.89-2.57,6.23s1.55,5,2.27,7.71,1.09,2.55,1.93,1.55,1.56-4.91,1.56-6.51V661.15h0C722.65,657.65,720.25,662.88,719.46,664.38Z" style="fill: #ffeb43"/>
      <polygon points="715.41 666.01 715.41 666.01 715.41 666.01 715.41 666.01" style="fill: #ffeb43"/>
      <path d="M714.86,646.93c-1.21-4.24-1.63-3.28-1.63-3.34s-.42-1.07-1.64,2.68-2.82,6.42-2.82,9.92a21.16,21.16,0,0,0,2.4,9.21c1-2.87,1.6-3.79,2.14-3.68s1.14,1.21,2.1,4.29c1.43-1.92,2.28-5.68,2.28-8C717.69,654.5,716.09,651.17,714.86,646.93Z" style="fill: #ffeb43"/>
      <path d="M703.82,681.87h0V694.1c0,1.59.71,5.79,1.56,7.13s1.22,1.6,1.93-.77,2.23-4.45,2.27-6.79-1.77-5.45-2.57-7.27S703.82,678.38,703.82,681.87Z" style="fill: #ffeb43"/>
      <path d="M719.46,688.93c-.81,1.5-2.61,3.9-2.57,6.23s1.55,5.05,2.27,7.71,1.09,2.54,1.93,1.55,1.56-4.91,1.56-6.5V685.69h0C722.65,682.2,720.25,687.43,719.46,688.93Z" style="fill: #ffeb43"/>
      <path d="M714.86,671.49c-1.21-4.24-1.63-3.28-1.63-3.34s-.42-1.07-1.64,2.68-2.82,6.42-2.82,9.92a21.09,21.09,0,0,0,2.4,9.2c1-2.86,1.6-3.79,2.14-3.68s1.14,1.21,2.1,4.3c1.43-1.92,2.28-5.68,2.28-8C717.69,679.06,716.09,675.72,714.86,671.49Z" style="fill: #ffeb43"/>
      <polygon points="715.41 690.57 715.41 690.57 715.41 690.57 715.41 690.57" style="fill: #ffeb43"/>
      <path d="M703.82,706.44h0v12.21c0,1.61.71,5.8,1.56,7.14s1.22,1.6,1.93-.77,2.23-4.45,2.27-6.78-1.77-5.46-2.57-7.28S703.82,702.94,703.82,706.44Z" style="fill: #ffeb43"/>
      <path d="M719.46,713.49c-.81,1.49-2.61,3.89-2.57,6.23s1.55,5,2.27,7.7,1.09,2.56,1.93,1.56,1.56-4.9,1.56-6.51V710.26h0C722.65,706.76,720.25,712,719.46,713.49Z" style="fill: #ffeb43"/>
      <polygon points="715.41 715.13 715.41 715.13 715.41 715.13 715.41 715.13" style="fill: #ffeb43"/>
      <path d="M714.86,696.05c-1.21-4.23-1.63-3.27-1.63-3.34s-.42-1.06-1.64,2.68-2.82,6.42-2.82,9.93a21.16,21.16,0,0,0,2.4,9.2c1-2.86,1.6-3.79,2.14-3.68s1.14,1.21,2.1,4.3c1.43-1.93,2.28-5.69,2.28-8C717.69,703.62,716.09,700.29,714.86,696.05Z" style="fill: #ffeb43"/>
      <path d="M703.82,731h0v12.22c0,1.59.71,5.8,1.56,7.13s1.22,1.61,1.93-.76,2.23-4.46,2.27-6.78-1.77-5.46-2.57-7.28S703.82,727.5,703.82,731Z" style="fill: #ffeb43"/>
      <path d="M719.46,738.05c-.81,1.5-2.61,3.9-2.57,6.24s1.55,5,2.27,7.7,1.09,2.55,1.93,1.55,1.56-4.9,1.56-6.5V734.82h0C722.65,731.32,720.25,736.55,719.46,738.05Z" style="fill: #ffeb43"/>
      <polygon points="715.41 739.7 715.41 739.7 715.41 739.7 715.41 739.7" style="fill: #ffeb43"/>
      <path d="M714.86,720.61c-1.21-4.23-1.63-3.28-1.63-3.33s-.42-1.07-1.64,2.67-2.82,6.42-2.82,9.92a21.13,21.13,0,0,0,2.4,9.21c1-2.87,1.6-3.79,2.14-3.68s1.14,1.21,2.1,4.3c1.43-1.93,2.28-5.69,2.28-8C717.69,728.18,716.09,724.84,714.86,720.61Z" style="fill: #ffeb43"/>
      <path d="M703.82,755.57h0v12.21c0,1.59.71,5.79,1.56,7.13s1.22,1.6,1.93-.77,2.23-4.45,2.27-6.77-1.77-5.47-2.57-7.28S703.82,752.06,703.82,755.57Z" style="fill: #ffeb43"/>
      <path d="M719.46,762.62c-.81,1.49-2.61,3.89-2.57,6.23s1.55,5,2.27,7.7,1.09,2.55,1.93,1.55,1.56-4.91,1.56-6.5V759.39h0C722.65,755.88,720.25,761.12,719.46,762.62Z" style="fill: #ffeb43"/>
      <path d="M714.86,745.16c-1.21-4.23-1.63-3.28-1.63-3.34s-.42-1.06-1.64,2.68-2.82,6.42-2.82,9.92a21.13,21.13,0,0,0,2.4,9.21c1-2.88,1.6-3.79,2.14-3.68s1.14,1.21,2.1,4.29c1.43-1.92,2.28-5.68,2.28-8C717.69,752.73,716.09,749.4,714.86,745.16Z" style="fill: #ffeb43"/>
      <polygon points="715.41 764.25 715.41 764.25 715.41 764.25 715.41 764.25" style="fill: #ffeb43"/>
      <path d="M713.23,766.86c-1.51.25-4,7.73-4,12.26,0,3.2,1.13,12.27,4,12.85s4-8,4-11.22C717.23,776.21,714.75,767.72,713.23,766.86Z" style="fill: #ffeb43"/>
      <path d="M748.1,660.12c-.12,0-.21,0-.34,0-.93-.17-1.85-4.65-3.53-10.62s-2.53-8-3.2-8.09-1.51,1.55-3.19,6.87-2.61,9.45-3.53,9.27c-.17,0-.34-.14-.47-.16-1.29-2.26-2.58-4.51-3.86-6.77l-.93,1V773.78c0,3.81,3.11,15.17,6.9,22h0v12.64l10.12,1.87V797.51c3.79-5.35,6.86-15.35,6.86-19.16V680.73l0-.12c0-.13,0-.3,0-.49V656.18l-.93-1.34Z"/>
      <path d="M743.34,800.42A3.26,3.26,0,0,1,741,801a4.32,4.32,0,0,1-2.27-1.29v9.2l-.72-.14v2.83l6,1.15v-2.84l-.63-.12Z" style="fill: #ffeb43"/>
      <path d="M731.57,662.91h0v12.21c0,1.6.72,5.8,1.56,7.13s1.22,1.58,1.93-.79,2.23-4.49,2.27-6.82-1.77-5.43-2.57-7.24S731.57,659.41,731.57,662.91Z" style="fill: #ffeb43"/>
      <path d="M747.21,669.78c-.81,1.51-2.61,3.93-2.57,6.26s1.55,5,2.27,7.69,1.09,2.53,1.93,1.52,1.56-4.93,1.56-6.53V666.51h0C750.4,663,748,668.27,747.21,669.78Z" style="fill: #ffeb43"/>
      <path d="M742.62,652.39c-1.22-4.22-1.64-3.26-1.64-3.32s-.42-1.06-1.63,2.7-2.83,6.45-2.83,10a20.85,20.85,0,0,0,2.41,9.18c1-2.88,1.6-3.81,2.14-3.7s1.13,1.2,2.1,4.26c1.42-1.93,2.27-5.71,2.27-8C745.44,659.93,743.84,656.61,742.62,652.39Z" style="fill: #ffeb43"/>
      <polygon points="743.17 671.46 743.17 671.46 743.17 671.46 743.17 671.46" style="fill: #ffeb43"/>
      <path d="M731.57,687.46h0v12.22c0,1.6.72,5.79,1.56,7.12s1.22,1.58,1.93-.79,2.23-4.48,2.27-6.81-1.77-5.44-2.57-7.25S731.57,684,731.57,687.46Z" style="fill: #ffeb43"/>
      <path d="M747.21,694.33c-.81,1.51-2.61,3.93-2.57,6.26s1.55,5,2.27,7.69,1.09,2.53,1.93,1.52,1.56-4.92,1.56-6.52V691.06h0C750.4,687.57,748,692.82,747.21,694.33Z" style="fill: #ffeb43"/>
      <polygon points="743.17 696.02 743.17 696.02 743.17 696.02 743.17 696.02" style="fill: #ffeb43"/>
      <path d="M742.62,677c-1.22-4.22-1.64-3.26-1.64-3.32s-.42-1.06-1.63,2.69-2.83,6.46-2.83,10a20.85,20.85,0,0,0,2.41,9.18c1-2.88,1.6-3.81,2.14-3.71s1.13,1.2,2.1,4.27c1.42-1.94,2.27-5.7,2.27-8C745.44,684.48,743.84,681.17,742.62,677Z" style="fill: #ffeb43"/>
      <path d="M731.57,712h0v12.22c0,1.6.72,5.78,1.56,7.12s1.22,1.58,1.93-.8,2.23-4.47,2.27-6.8-1.77-5.44-2.57-7.25S731.57,708.52,731.57,712Z" style="fill: #ffeb43"/>
      <path d="M747.21,718.89c-.81,1.51-2.61,3.93-2.57,6.27s1.55,5,2.27,7.67,1.09,2.54,1.93,1.53,1.56-4.92,1.56-6.52V715.62h0C750.4,712.12,748,717.39,747.21,718.89Z" style="fill: #ffeb43"/>
      <polygon points="743.17 720.59 743.17 720.59 743.17 720.59 743.17 720.59" style="fill: #ffeb43"/>
      <path d="M742.62,701.51c-1.22-4.22-1.64-3.25-1.64-3.32s-.42-1.06-1.63,2.7-2.83,6.45-2.83,10a20.85,20.85,0,0,0,2.41,9.17c1-2.87,1.6-3.8,2.14-3.7s1.13,1.2,2.1,4.27c1.42-1.94,2.27-5.71,2.27-8C745.44,709.05,743.84,705.73,742.62,701.51Z" style="fill: #ffeb43"/>
      <path d="M731.57,736.59h0v12.22c0,1.59.72,5.78,1.56,7.11s1.22,1.59,1.93-.79,2.23-4.48,2.27-6.8-1.77-5.44-2.57-7.25S731.57,733.08,731.57,736.59Z" style="fill: #ffeb43"/>
      <path d="M747.21,743.46c-.81,1.5-2.61,3.93-2.57,6.27s1.55,5,2.27,7.67,1.09,2.53,1.93,1.52,1.56-4.92,1.56-6.51V740.19h0C750.4,736.68,748,742,747.21,743.46Z" style="fill: #ffeb43"/>
      <path d="M742.62,726.07c-1.22-4.21-1.64-3.26-1.64-3.31s-.42-1.07-1.63,2.69-2.83,6.45-2.83,9.95a20.89,20.89,0,0,0,2.41,9.19c1-2.89,1.6-3.82,2.14-3.71s1.13,1.2,2.1,4.27c1.42-1.94,2.27-5.71,2.27-8C745.44,733.61,743.84,730.29,742.62,726.07Z" style="fill: #ffeb43"/>
      <polygon points="743.17 745.15 743.17 745.15 743.17 745.15 743.17 745.15" style="fill: #ffeb43"/>
      <path d="M731.57,761.15h0v12.21c0,1.6.72,5.79,1.56,7.12s1.22,1.59,1.93-.79,2.23-4.48,2.27-6.8-1.77-5.44-2.57-7.25S731.57,757.65,731.57,761.15Z" style="fill: #ffeb43"/>
      <path d="M747.21,768c-.81,1.5-2.61,3.93-2.57,6.27s1.55,5,2.27,7.67,1.09,2.54,1.93,1.52,1.56-4.92,1.56-6.52V764.75h0C750.4,761.25,748,766.51,747.21,768Z" style="fill: #ffeb43"/>
      <polygon points="743.17 769.7 743.17 769.7 743.17 769.7 743.17 769.7" style="fill: #ffeb43"/>
      <path d="M742.62,750.62c-1.22-4.22-1.64-3.26-1.64-3.32s-.42-1.06-1.63,2.7-2.83,6.45-2.83,10a20.82,20.82,0,0,0,2.41,9.18c1-2.88,1.6-3.8,2.14-3.7s1.13,1.2,2.1,4.27c1.42-1.94,2.27-5.72,2.27-8C745.44,758.15,743.84,754.84,742.62,750.62Z" style="fill: #ffeb43"/>
      <path d="M741,772.34c-1.52.26-4,7.77-4,12.31,0,3.19,1.14,12.26,4,12.8s4-8.08,4-11.27C745,781.64,742.5,773.18,741,772.34Z" style="fill: #ffeb43"/>
      <path d="M775.84,665.12c-.12,0-.21,0-.34,0-.93-.16-1.85-4.62-3.53-10.56s-2.52-7.93-3.19-8.05-1.52,1.58-3.19,6.92-2.61,9.49-3.53,9.32c-.17,0-.34-.13-.48-.15q-1.92-3.36-3.86-6.72l-.92,1V779.06c0,3.81,3.1,15.12,6.89,21.88h0v12.64l10.13,1.72V802.54c3.79-5.42,6.85-15.46,6.85-19.27V685.65l0-.13c0-.12,0-.29,0-.48V661.1l-.92-1.33Q777.8,662.46,775.84,665.12Z"/>
      <path d="M771.09,805.49a3.38,3.38,0,0,1-2.36.58,4.35,4.35,0,0,1-2.27-1.26V814l-.71-.13v2.83l6,1.06v-2.84l-.63-.11Z" style="fill: #ffeb43"/>
      <path d="M759.32,668.15h0v12.21c0,1.59.71,5.78,1.55,7.1s1.23,1.56,1.93-.82,2.24-4.52,2.28-6.85-1.77-5.4-2.57-7.2S759.32,664.65,759.32,668.15Z" style="fill: #ffeb43"/>
      <path d="M775,674.79c-.8,1.52-2.61,4-2.57,6.3s1.56,5,2.28,7.65,1.09,2.52,1.93,1.49,1.55-5,1.55-6.55V671.47h0C778.14,668,775.75,673.27,775,674.79Z" style="fill: #ffeb43"/>
      <path d="M770.36,657.47c-1.21-4.2-1.63-3.24-1.63-3.29s-.42-1.06-1.64,2.72-2.82,6.49-2.82,10a20.78,20.78,0,0,0,2.4,9.15c1-2.9,1.6-3.83,2.14-3.74s1.14,1.18,2.1,4.23c1.43-1.95,2.28-5.74,2.28-8.07C773.19,665,771.59,661.68,770.36,657.47Z" style="fill: #ffeb43"/>
      <polygon points="770.91 676.53 770.91 676.53 770.91 676.53 770.91 676.53" style="fill: #ffeb43"/>
      <path d="M759.32,692.7h0v12.22c0,1.6.71,5.78,1.55,7.1s1.23,1.57,1.93-.82,2.24-4.51,2.28-6.84-1.77-5.41-2.57-7.21S759.32,689.21,759.32,692.7Z" style="fill: #ffeb43"/>
      <path d="M775,699.34c-.8,1.52-2.61,4-2.57,6.3s1.56,5,2.28,7.65,1.09,2.51,1.93,1.5,1.55-4.95,1.55-6.55V696h0C778.14,692.53,775.75,697.82,775,699.34Z" style="fill: #ffeb43"/>
      <polygon points="770.91 701.1 770.91 701.1 770.91 701.1 770.91 701.1" style="fill: #ffeb43"/>
      <path d="M770.36,682c-1.21-4.2-1.63-3.23-1.63-3.3s-.42-1.05-1.64,2.72-2.82,6.5-2.82,10a20.7,20.7,0,0,0,2.4,9.14c1-2.89,1.6-3.83,2.14-3.74s1.14,1.19,2.1,4.25c1.43-2,2.28-5.75,2.28-8.08C773.19,689.52,771.59,686.23,770.36,682Z" style="fill: #ffeb43"/>
      <path d="M759.32,717.26h0v12.22c0,1.6.71,5.78,1.55,7.1s1.23,1.56,1.93-.82,2.24-4.51,2.28-6.84-1.77-5.41-2.57-7.21S759.32,713.76,759.32,717.26Z" style="fill: #ffeb43"/>
      <path d="M775,723.9c-.8,1.52-2.61,4-2.57,6.31s1.56,5,2.28,7.63,1.09,2.53,1.93,1.5,1.55-4.94,1.55-6.54V720.58h0C778.14,717.08,775.75,722.38,775,723.9Z" style="fill: #ffeb43"/>
      <polygon points="770.91 725.66 770.91 725.66 770.91 725.66 770.91 725.66" style="fill: #ffeb43"/>
      <path d="M770.36,706.59c-1.21-4.2-1.63-3.23-1.63-3.29s-.42-1.06-1.64,2.72-2.82,6.49-2.82,10a20.77,20.77,0,0,0,2.4,9.14c1-2.89,1.6-3.83,2.14-3.74s1.14,1.19,2.1,4.24c1.43-2,2.28-5.74,2.28-8.07C773.19,714.09,771.59,710.79,770.36,706.59Z" style="fill: #ffeb43"/>
      <path d="M759.32,741.83h0v12.22c0,1.59.71,5.78,1.55,7.09s1.23,1.57,1.93-.81,2.24-4.52,2.28-6.84-1.77-5.42-2.57-7.22S759.32,738.33,759.32,741.83Z" style="fill: #ffeb43"/>
      <path d="M775,748.47c-.8,1.51-2.61,4-2.57,6.31s1.56,5,2.28,7.63,1.09,2.52,1.93,1.5,1.55-4.95,1.55-6.54V745.14h0C778.14,741.64,775.75,746.94,775,748.47Z" style="fill: #ffeb43"/>
      <path d="M770.36,731.15c-1.21-4.2-1.63-3.23-1.63-3.29s-.42-1.05-1.64,2.72-2.82,6.49-2.82,10a20.74,20.74,0,0,0,2.4,9.14c1-2.9,1.6-3.83,2.14-3.74s1.14,1.18,2.1,4.25c1.43-2,2.28-5.75,2.28-8.08C773.19,738.64,771.59,735.35,770.36,731.15Z" style="fill: #ffeb43"/>
      <polygon points="770.91 750.23 770.91 750.23 770.91 750.23 770.91 750.23" style="fill: #ffeb43"/>
      <path d="M759.32,766.39h0V778.6c0,1.6.71,5.78,1.55,7.1s1.23,1.57,1.93-.82,2.24-4.51,2.28-6.83-1.77-5.42-2.57-7.21S759.32,762.89,759.32,766.39Z" style="fill: #ffeb43"/>
      <path d="M775,773c-.8,1.51-2.61,4-2.57,6.3s1.56,5,2.28,7.64,1.09,2.53,1.93,1.5,1.55-5,1.55-6.55V769.71h0C778.14,766.21,775.75,771.51,775,773Z" style="fill: #ffeb43"/>
      <polygon points="770.91 774.77 770.91 774.77 770.91 774.77 770.91 774.77" style="fill: #ffeb43"/>
      <path d="M770.36,755.7c-1.21-4.2-1.63-3.23-1.63-3.29s-.42-1.06-1.64,2.72-2.82,6.49-2.82,10a20.75,20.75,0,0,0,2.4,9.15c1-2.9,1.6-3.83,2.14-3.74s1.14,1.19,2.1,4.24c1.43-2,2.28-5.75,2.28-8.08C773.19,763.19,771.59,759.9,770.36,755.7Z" style="fill: #ffeb43"/>
      <path d="M768.73,777.45c-1.51.28-4,7.83-4,12.36,0,3.2,1.13,12.24,4,12.75s4-8.14,4-11.34C772.73,786.69,770.25,778.27,768.73,777.45Z" style="fill: #ffeb43"/>
      <path d="M803.6,669.63c-.13,0-.22,0-.35,0-.92-.14-1.85-4.58-3.53-10.49s-2.52-7.88-3.19-8-1.52,1.61-3.19,7-2.61,9.53-3.53,9.38c-.17,0-.34-.12-.47-.14l-3.87-6.65-.92,1V783.91c0,3.81,3.11,15.07,6.89,21.77h0v12.64c3.38.52,6.75,1,10.13,1.53V807.08c3.79-5.48,6.85-15.59,6.85-19.4V690.06l0-.12c0-.13,0-.3,0-.49V665.51l-.92-1.3Z"/>
      <path d="M798.84,810.09a3.41,3.41,0,0,1-2.36.62,4.19,4.19,0,0,1-2.27-1.22v9.2l-.71-.11h0v2.83l6,.94v-2.83l-.63-.1Z" style="fill: #ffeb43"/>
      <path d="M787.07,673h0v12.21c0,1.59.71,5.77,1.56,7.07s1.22,1.54,1.93-.85,2.23-4.56,2.27-6.89-1.77-5.37-2.57-7.16S787.07,669.46,787.07,673Z" style="fill: #ffeb43"/>
      <path d="M802.71,679.32c-.81,1.53-2.61,4-2.57,6.35s1.55,5,2.27,7.6,1.09,2.5,1.93,1.46,1.56-5,1.56-6.59V675.93h0C805.9,672.43,803.5,677.78,802.71,679.32Z" style="fill: #ffeb43"/>
      <path d="M796.48,658.82c0,.06-.42-1.05-1.64,2.75s-2.82,6.55-2.82,10a20.48,20.48,0,0,0,2.4,9.11c1-2.92,1.6-3.86,2.14-3.78s1.14,1.16,2.1,4.19c1.43-2,2.28-5.78,2.28-8.11,0-3.5-1.6-6.75-2.83-10.94S796.48,658.88,796.48,658.82Z" style="fill: #ffeb43"/>
      <path d="M787.07,697.51h0v12.22c0,1.6.71,5.77,1.56,7.07s1.22,1.55,1.93-.85,2.23-4.55,2.27-6.89-1.77-5.37-2.57-7.15S787.07,694,787.07,697.51Z" style="fill: #ffeb43"/>
      <path d="M802.71,703.87c-.81,1.53-2.61,4-2.57,6.35s1.55,5,2.27,7.6,1.09,2.49,1.93,1.46,1.56-5,1.56-6.58V700.48h0C805.9,697,803.5,702.33,802.71,703.87Z" style="fill: #ffeb43"/>
      <path d="M796.48,683.38c0,.06-.42-1-1.64,2.75s-2.82,6.54-2.82,10a20.48,20.48,0,0,0,2.4,9.1c1-2.91,1.6-3.86,2.14-3.78s1.14,1.17,2.1,4.21a16.42,16.42,0,0,0,2.28-8.12c0-3.5-1.6-6.76-2.83-10.94S796.48,683.44,796.48,683.38Z" style="fill: #ffeb43"/>
      <path d="M787.07,722.07h0v12.22c0,1.6.71,5.76,1.56,7.07s1.22,1.55,1.93-.85,2.23-4.55,2.27-6.88-1.77-5.38-2.57-7.17S787.07,718.57,787.07,722.07Z" style="fill: #ffeb43"/>
      <path d="M802.71,728.43c-.81,1.53-2.61,4-2.57,6.35s1.55,5,2.27,7.6,1.09,2.5,1.93,1.46,1.56-5,1.56-6.58V725h0C805.9,721.54,803.5,726.89,802.71,728.43Z" style="fill: #ffeb43"/>
      <path d="M796.48,707.94c0,.06-.42-1.05-1.64,2.75s-2.82,6.55-2.82,10a20.48,20.48,0,0,0,2.4,9.1c1-2.91,1.6-3.86,2.14-3.78s1.14,1.17,2.1,4.2a16.38,16.38,0,0,0,2.28-8.11c0-3.51-1.6-6.77-2.83-10.94S796.48,708,796.48,707.94Z" style="fill: #ffeb43"/>
      <path d="M787.07,746.64h0v12.22c0,1.59.71,5.76,1.56,7.06s1.22,1.56,1.93-.85,2.23-4.55,2.27-6.87-1.77-5.39-2.57-7.17S787.07,743.14,787.07,746.64Z" style="fill: #ffeb43"/>
      <path d="M802.71,753c-.81,1.53-2.61,4-2.57,6.36s1.55,5,2.27,7.6,1.09,2.49,1.93,1.45,1.56-5,1.56-6.57V749.61h0C805.9,746.11,803.5,751.45,802.71,753Z" style="fill: #ffeb43"/>
      <path d="M796.48,732.5c0,.06-.42-1-1.64,2.75s-2.82,6.55-2.82,10a20.48,20.48,0,0,0,2.4,9.1c1-2.92,1.6-3.86,2.14-3.78s1.14,1.16,2.1,4.21a16.48,16.48,0,0,0,2.28-8.12c0-3.51-1.6-6.77-2.83-11S796.48,732.56,796.48,732.5Z" style="fill: #ffeb43"/>
      <path d="M787.07,771.2h0v12.21c0,1.6.71,5.77,1.56,7.07s1.22,1.55,1.93-.85,2.23-4.55,2.27-6.87-1.77-5.39-2.57-7.17S787.07,767.7,787.07,771.2Z" style="fill: #ffeb43"/>
      <path d="M802.71,777.55c-.81,1.53-2.61,4-2.57,6.36s1.55,5,2.27,7.59,1.09,2.5,1.93,1.46,1.56-5,1.56-6.58V774.17h0C805.9,770.67,803.5,776,802.71,777.55Z" style="fill: #ffeb43"/>
      <path d="M796.48,757.05c0,.06-.42-1-1.64,2.75s-2.82,6.54-2.82,10a20.48,20.48,0,0,0,2.4,9.11c1-2.92,1.6-3.86,2.14-3.78s1.14,1.17,2.1,4.2a16.42,16.42,0,0,0,2.28-8.12c0-3.5-1.6-6.76-2.83-10.93S796.48,757.11,796.48,757.05Z" style="fill: #ffeb43"/>
      <path d="M796.48,782.09c-1.51.31-4,7.9-4,12.44,0,3.19,1.13,12.22,4,12.67s4-8.22,4-11.41C800.48,791.25,798,782.88,796.48,782.09Z" style="fill: #ffeb43"/>
    </g>
    <path d="M630.06,223.81C682,235.12,733.84,246.44,785.73,255q0,204.87,0,409.74c0,24-9.75,45-24.64,52.59-43.69,24.31-87.38,47-131.07,69.68h0V798.7c44.7-23.2,89.4-46.4,134.1-71.35,17.41-8.92,28.76-33.31,28.76-61.42V245.69c-54.29-8.7-108.58-20.54-162.86-32.38Z" style="fill: #0b0b0b"/>
    <path d="M498.93,663.5c-14.89-13-24.64-37-24.64-61.12q0-204.9,0-409.81c51.94,8.59,103.87,19.92,155.81,31.24h0v-10.5c-54.32-11.85-108.64-23.7-163-32.41V601.22c0,28.13,11.4,56,28.81,71.2,44.7,40.94,89.41,83.64,134.11,126.34l0-.11V787l-.09,0C586.29,745.35,542.61,703.61,498.93,663.5Z" style="fill: #0b0b0b"/>
  </g>
</svg>
