<?xml version="1.0" encoding="utf-8"?>
<!-- Generator: Adobe Illustrator 24.2.0, SVG Export Plug-In . SVG Version: 6.00 Build 0)  -->
<svg version="1.1" id="Layer_1" xmlns="http://www.w3.org/2000/svg" xmlns:xlink="http://www.w3.org/1999/xlink" x="0px" y="0px"
	 viewBox="0 0 1260 1260" style="enable-background:new 0 0 1260 1260;" xml:space="preserve">
<style type="text/css">
	.st0{fill:#0D3692;}
	.st1{fill:#BDBDBD;}
	.st2{fill:#231F20;}
	.st3{fill:#FFFFFF;}
	.st4{fill:#FEBA35;}
	.st5{fill:#FC1921;}
	.st6{fill:#0B0B0B;}
	.st7{fill:#0D6826;}
	.st8{clip-path:url(#SVGID_2_);}
	.st9{fill:#FFEB43;}
</style>
<g>
	<path class="st0" d="M63,294.7v736c378-217.1,756,146.6,1134-70.5v-736C819,441.3,441,77.7,63,294.7z"/>
	<path class="st0" d="M489.8,576.2c93.4,13.7,186.8,36.2,280.2,49.9v-79c-93.4-13.7-186.8-36.2-280.2-49.9V576.2z"/>
	<path class="st1" d="M744.2,581.4c-4.5-2.6-9.1-5.2-13.6-7.8l-5.4-1.8l-3.5-2.7c-8.3,4-16.6,7.9-24.9,11.9
		c-3.7-3.7-7.3-7.5-11-11.2l-7.5-3.4c-8,3.6-16,7.2-24,10.7c-4.1-5.7-8.2-11.5-12.3-17.2l-22.8-19.8c-2.9,2.1-5.8,4.3-8.6,6.4
		c-12.9,4.1-25.8,8.3-38.7,12.5c-5.3-5.8-10.5-11.5-15.8-17.2c-7.6-3.4-15.2-6.8-22.8-10.2c-14.6,8-29.2,16.2-43.8,24.5
		c-0.4,13.6-0.8,27.1-1.1,40.7c94.2,14.1,188.4,37.3,282.6,51.5c-0.2-15.1-0.5-30.1-0.7-45.2C761.5,596,752.8,588.8,744.2,581.4z"/>
	<path class="st1" d="M489.8,682.9c93.4,13.7,186.8,36.2,280.2,49.9V686c-93.4-13.7-186.8-36.2-280.2-49.9V682.9z"/>
	<path class="st2" d="M489.5,683.3c93.6,13.7,187.3,36.3,280.9,50v-47.8c-93.6-13.7-187.3-36.3-280.9-50L489.5,683.3z M490.2,636.6
		c93.2,13.7,186.4,36.1,279.5,49.8v46c-93.2-13.7-186.3-36.1-279.5-49.8V636.6z"/>
	<path class="st3" d="M488,492.4c94.6,13.8,189.2,36.7,283.8,50.5V424c-94.6-13.8-189.2-36.7-283.8-50.5V492.4z"/>
	<path class="st4" d="M489.8,704.5c0,19.3,8.8,38.5,22.2,48.9c39.3,32.1,78.6,65.5,117.9,98.9c39.3-18.2,78.7-36.3,118.1-55.8
		c13.4-6.1,22.2-22.8,22.2-42.1l0.2-16.9c-93.4-13.7-186.9-36.2-280.3-50C489.9,693.3,489.9,698.9,489.8,704.5z"/>
	<polygon class="st4" points="490,687.6 490,687.6 490,687.6 	"/>
	<path class="st5" d="M649.4,402.4l-38.7-7.5v40c-41.3-8-82.6-15.7-124-21.7v39.2c41.3,6,82.6,13.7,124,21.7v39.8
		c12.9,2.5,25.8,5,38.7,7.5v-39.7c40.9,7.9,81.9,15.6,122.8,21.5v-39.2c-40.9-6-81.9-13.6-122.8-21.5V402.4z"/>
	<path class="st6" d="M485.2,496.5c95.1,13.7,190.1,36.7,285.2,50.7c0.1-2.5,0.1-5,0.2-7.5c-95.1-13.9-190.2-37-285.4-50.7
		C485.2,491.5,485.2,494,485.2,496.5z"/>
	<path d="M489.8,636.1c93.4,13.8,186.9,36.2,280.3,50v-3.7c-93.4-13.7-186.9-36.2-280.3-50V636.1z"/>
	<path class="st6" d="M489.8,687.6c93.4,13.7,186.9,36.2,280.3,50v-4.7c-93.4-13.7-186.9-36.2-280.3-50V687.6z"/>
	<polygon points="703.8,701.8 703.8,701.8 703.8,701.8 	"/>
	<path d="M759.5,722.6c-0.9-1-2.2-1.7-3.6-2c-0.8,0.8-0.8,1.2-1.9,0.9c-1.9-0.9-2.6-1.6-4.4-1l-0.7,0.1c-3,0-6.9-2.4-10.2-2.8
		c-0.9-0.1-1.9,0-2.8,0.4c-0.4-0.1-0.8-0.3-1.1-0.5c-1.6-1.5-2.3-2.5-4.3-2.6l-0.2-0.3c-1.1-4.1-2.7-6.1-5.6-4.2
		c-1.9-2-3.9,0.1-5.2,1.4c-0.9-1-2.8-0.7-3.8-0.4c-0.6,0.1-0.7-0.1-1.3-0.6l-1.1,0.2c-1.6-1.8-2.4-4.3-4.8-3.3
		c-0.4-0.1-2.4-4.2-3-5.1l-1.7-0.9c-1.9,1.1-3.9,2.3-4.9,4.8l-0.4-0.1l-0.8,0.2c-1.5,0.7-3.1,1.5-3.3,3.8c-0.3,0-0.7-0.1-1-0.2
		c-1.3-2.8-4.2-3.6-4.9-0.3c-0.5,0.8-2.9,0.6-3.6,0c-1.1-1-2.2-1.9-3.3-1.9c-0.6,0-1.2,0.3-1.5,0.8l-0.1-0.2
		c-1.8-1.5-2.6-1.7-4.4-0.7c-1.2,0.9-1.6,0.7-3,0.6c-2.8,1-1.8,3.9-0.2,6.2l1.6,0.1c2.6,0.3,5.1,0.7,7.6,1.3
		c2.1,0.5,4.2,0.9,6.4,1.2c2.7,0,5.5,1.2,8.1,1.5c14.2,1.7,28.5,4.9,42.7,7c1.9,0.3,3.9,0.5,5.8,0.7c4.9,0.3,9.8,1.1,14.6,2.2
		c2,0.6,2.8,0.7,3.8-1.5C762.5,723.6,761.3,724.3,759.5,722.6z"/>
	<path d="M766.6,708.6c-1.4-3.1-3.2-6.7-6.2-5.6c-1.2,0.8-1,0.7-2.2,0l-0.8,0.6h-0.2l-0.4-0.4c-0.9-1.6-1.9-2.7-3-2.9l0,0
		c-1-0.2-2.1,0.3-3.1,1.4c-1,0.7-2.1,0.1-3.3-0.4l-1,0.9l-0.3,0.1c-2.1,0-3.5-2.2-5.4-0.1c-0.6,0.4-1.4,0.5-2.2,0.3
		c-2.4-0.4-5.4-2.6-7.2-0.2c-1.3-1.8-3.5-3.2-4.9-1.6h-0.1c-1.1-0.5-2.5-1.9-3.7-2.6c-0.7,1-1,1.6-2.1,1.4c-1.8-0.5-3.1-1-4.7,0.1
		c-2.1,1.7-1.7,3.1-0.7,5.9c3.2,1.4,6.3,1.5,9.6,2.4c2.4,0.9,4.6,0,7,0.8c2.3,0.3,4.5,1.5,6.7,2.2c1.3,0.5,2.7,0.6,4,0.4
		c0.3-0.2,0.7-0.3,1.1-0.4c3.3,1.7,6.4,0.8,9.6,1.6c2.9,1.3,5.9,0.9,8.8,1.6l1.9,0.6l3.2-3l-0.4-2
		C766.8,709.3,766.7,709,766.6,708.6z"/>
	<path d="M746.4,687c-1.3,0.6-2.9,0.6-4,1.3l-0.5-0.4c-1.1-0.5-2.2-1.1-3.1-1.8c-0.8-0.5-1.7-0.9-2.7-1c-1.4-0.8-2.3-0.2-3.5,0.6
		c-0.2-0.5-0.4-0.9-0.5-1.4c-3.9-0.8-8-1-11.9-2.6c-1.4-0.7-2-1.4-3.3-0.5c-0.4-0.5-1-0.8-1.7-1l0,0c-1.9-0.5-4.4,0.1-6,0.1
		c-2.9-0.8-5-2.4-7.9-1.5c-1.4,0.7-4.5-0.3-6-0.6c-2.8-0.4-6-0.4-7.4,2.8c0.4,1.1,0.9,2.2,1.6,3.2c5.4,1,10.9,1.6,16.3,3
		c0.4,0.5,0.9,0.9,1.5,1.2c2.3,1,4.6,0,6.7,1.4c4.9-0.2,9.5,1.7,14.3,2.4c3.3,0.1,7.1,2.1,10.5,2.1c1.2,0,2.3-0.3,3.3-0.8
		c4.2,3.2,8.5,1.8,13,2.5l1.1-4c-2.8-2.8-4.1-3.3-7.4-3.8C747.9,687.8,747.1,687.4,746.4,687z"/>
	<path d="M690.1,697.9c-1.5-2.3-3.5-1.5-4.7-2.9c-1.1-2-2.5-2.9-3.8-2.5c-0.5,0.2-1,0.5-1.3,0.9c-0.5-1.4-1-2.7-1.6-4
		c-0.5-0.1-1-0.5-1.3-0.9c-0.9-2-2-3-3.1-3.3l0,0c-1.2-0.3-2.4,0.2-3.6,1.3c-2-2.9-3.4-2-5.4-0.4c-1.4,2.6-3.8,2-6.2,1.1
		c-0.7,0.9-1.2,1.7-2.2,1.9c-1.9-2-3.2-1.1-5.1-0.8c-0.9,0-1.8-0.6-2.9-0.8c-1.1-0.2-2.8,0.8-3.7,0.4c-1.6-0.8-2.3,0.2-3.6,0.6
		l-0.7-0.8c-1.7,0-2.5-0.5-4.1-1.7c-2-1.1-3-1.3-4.8,0c-1.2,0.6-2.4,1.4-3.5,2.2v1.5c0.4,0.7,0.8,1.5,1.3,2.2c4,1.1,8.1,2.1,12.1,3
		c2.7,0.5,5.5,1.6,8.1,1.3c2.5,0.2,4.7,1.6,7.2,0.8l9.4,2.6l0.8-0.7c2-0.6,4.8,0.8,6.8,1.6c2.5,1,5,1.1,7.4,1.3
		c1.8,0.1,3.6,0.5,5.2,1.2c0.5,0,1.1,0,1.6,0.1c2.3,0.4,2.8-0.2,3.9-2.7C691.7,699.7,691,698.7,690.1,697.9z"/>
	<path d="M647.8,668.6l-1.3,0.2c-2.8-0.3-5.4-2.5-8.1-2.5c-0.6,0-1.2,0.4-1.8,0.4c-1.6-0.9-3.3-2.2-4.8-1.3
		c-0.7-0.4-1.4-0.7-2.2-0.9c-0.3,0-0.6,0.1-1,0.2c-1.1,0.3-2.3,0.7-3.5,0.1c-2.8-1.4-5.9-2.4-9-3.1l0,0c-2.2,1-4.3,0.5-6,2.9
		l-0.1-0.5c-0.8-0.7-1.8-1.2-3-1.5c-2-0.5-4.3-3.4-6.2-2.2c-1.4,0.8-3.8-0.9-5.2-1.9c-2.9,1.4-4.8,0.9-8-0.7
		c-2.2,1.5-4.2,2.7-6.1,4.8l0.5,1.7c1.4,3,2.9,2.1,5,2.1c6.2,0.1,12.5,2.4,18.7,3.2c1.7,0.2,3,0.3,3.9-1.4c0.5,0.9,1.3,1.6,2.2,2.2
		c5.3,1.4,10.9,1.9,16.2,2.9l0.4,0.1c8.1,1.3,16.6,3.6,24.7,5.4c2,0,2.3-1.6,2.3-4c-1.6-2.3-2.9-3.1-5.1-3.8
		C649,670.3,648.9,670.2,647.8,668.6z"/>
	<path d="M628.5,689.9v-1.6l-0.6,0.5L628.5,689.9z"/>
	<path d="M628.1,699.8c-0.2-0.5-0.5-1-0.9-1.9c-0.7,0-1.9,0.1-2.5-0.5c-1.1-0.8-2.2-1.9-3.4-2.6c-1.3-2.4-3.3-2.4-5.1-2.5v0
		c0.1-0.3,0.1-0.7,0.2-1c0.1-0.3,0-0.8-0.1-1.2c-2.1-4.9-4.5-3.8-7.2-2.1c-1.5-1.8-2.4-1.8-4.1-1.2l-0.4-0.6l-1.3-1.6
		c-1.1,0.3-2,0.8-2.9-0.4c-4.4-3-5.1,0.7-7.3,3.7c-2-1.7-4,0.1-5.6,1.2c-0.9,0.7-1.3,0.1-2.4-0.7c-0.8,0.4-1.4,0.9-1.9,1.5
		c-1.7-1.3-3.6-1.5-5.3-0.6c-2-2-3.2-0.7-5.1-0.2c-2.5,0.6-5.9-2.8-5.6,3.2c0.6,1,1.4,1.9,2.5,2.5c6.5,1.4,13,1.2,19.4,2
		c6.9,1.1,14,2.6,20.9,3.9c5.5,1.3,11.2,2.3,16.7,3.4l1.5-1.1l0,0L628.1,699.8z"/>
	<path d="M541.9,683.8c-1.2-0.9-3.7-2.2-5-1.9l-0.3-0.4l-1-0.7c-2.5-1-2.4-0.6-3.3-3.9c-0.8,0.2-1.6,0.3-2.3,0.2
		c-1.9-0.7-3.2-2.3-5.3-1.9c-0.5,0.2-1.2,1-1.7,0.7l0,0c-0.3-0.2-0.6-0.5-0.9-0.8c-2-3-3.6-4-6.5-3.9c-1.7-2.5-3.3-2.7-5-0.6
		c-0.5,0.6-1.1,1.9-1.7,2.3c-2.1-0.3-4.8-1-5.5,2.1c-0.3,0.1-0.8,0.5-1.2,0.7c-1.3,0.7-1.5,1.4-2.2,3c1.4,2.5,2,2.7,4.4,3.1
		c3.5,0.8,7.6,1.9,11.1,1.9c8.4,3.4,17.2,3.9,25.7,5.8C543.3,688.5,544.4,686.2,541.9,683.8z"/>
	<path d="M577.4,670.4c-1.1-0.9-1.3-1.5-2.7-1.3l0,0c-0.6,0-1.1,0-1.7-0.1c-3-0.2-6.7-4.8-9.1-2.1c-0.6-0.4-1.2-0.8-1.8-1.3
		c-0.5,0-1-0.1-1.4-0.4c-1.9-2.4-4-3.8-5.7-0.8c-1,0.7-2.7-1.9-3.3-2.9c-1.6-1.5-2.8-1.4-4.2-0.2c-0.5-1.5-3.5-1.2-4.4-0.9
		c-1.8,0.9-3.7,2.9-5.7,0.8c-1.3-1.8-2.8-2-4.1-0.6c-1.1,0.7-2.1,0.3-3.4-0.4c-2.6,0.7-3.4,1.9-4.6,5l1.3,1.5
		c1.7,1.5,5.1,2.6,6.7,1.5l0.1,0.1c3.3,2,7.1,1.9,10.6,2.5c2.6,0,5.4,1.4,8,1.2c9.2,1.7,18.4,3.4,27.7,5.2l0.5,0.1
		c2.1-0.5,2.8-1.1,2-4.5C580.5,672.2,578.9,671.3,577.4,670.4z"/>
	<path d="M532,648.3c-1.7-0.4-1.9,0.2-2.7-2c-1.2-0.4-2.6-0.4-3.8,0l0,0c-0.6,0.2-1.1,0.5-1.7,0.7c-2.5,0.2-4.9-3-7.7-2
		c-1.8-1.6-3.4-0.9-5.3-1.2c-0.6-0.2-0.9-0.6-1.5-1.3c-2.6,0.7-6.1,0.5-8.1,3c-0.6,0.1-1.6,0-2.3,0.1l-1.2,0.6
		c-0.1,0.7-0.2,1.4-0.3,2l0.9,2.5c2.8,0.6,5.5,0.7,8.2,1.1c3.8,1,7.8,1.3,11.6,2.5c1.2-0.3,2.5-0.3,3.7,0c1.7,0.4,5,1.9,6.4,1.2
		l0.3,0c2.3-0.5,6.1,2,8,1c2.3,0,2.5-0.7,3.2-3.7c-1.5-1.3-3.3-2.3-5.3-2.8C533.6,649.8,533.2,648.8,532,648.3z"/>
	<path class="st7" d="M746.5,689.1c-1.3,1.2-3.9-0.2-3.9,2.6c3.6,3,7.4,1.4,11.3,2.1l0.4-1.3l0,0C752,689.6,749.1,690.8,746.5,689.1
		z"/>
	<polygon class="st7" points="704,704.1 704,704.1 704,704.1 	"/>
	<path class="st7" d="M756.5,722.7c-1.5,2.3-3.9-0.2-5.6-0.7c-4.7,2-9.4-3.2-14-2.3c-2.8,1.4-3.7-3.6-6.5-2.7
		c-1.7-1.1-1.3-3.5-2.7-5c-1.1-0.9-2,0.6-3,0.8c-2.1-3-3.4,1.2-5,1.4c-1.7-2.5-3.6,0.6-5.3-1.3c-2.2,0.7-2.7-2.9-4.5-3.6
		c-2.7,1.8-3.4-3.2-5-5l-0.8-0.4c-1.7,1-3.6,2.3-4.1,4.8c-1.7-1-2.7,0.6-3.9,1.3c-0.2,0.8-0.1,1.9-0.8,2.3c-1.4,0.4-2.8-0.3-3.3-1.6
		c0-0.1,0-0.1-0.1-0.2c-0.5-0.5-1.4-1.2-1.8-0.3c-0.4,3-3,2.1-4.8,2c-1.3-0.2-2.5-2.9-3.8-2.2c-0.3,0.2-0.5,0.4-0.6,0.7
		c-0.6,0.6-1.5,0.1-1.9-0.8c-1.3-1.6-2.7,0.3-3.8,0.6c-0.8,0.6-2-0.7-2.7,0.4c-0.1,0.7,0.1,1.3,0.5,1.8c2.6,0,5.6,0.7,8.5,1.4
		c1.9,0.5,3.9,0.9,5.9,1.2c2.5,0.1,4.9,0.5,7.2,1.3c15.1,1.6,29.8,4.9,44.5,7.1c7.3,1.4,14.7,0.9,21.7,3.5l0.5-0.4
		c0.3-0.3,0-1-0.4-1.4C759.2,725.4,758.3,722.8,756.5,722.7z"/>
	<path class="st7" d="M689.4,699.7c-1.4-2.8-4.5-1.1-5.6-4.3c-1-1.3-1.7-1-2.4-0.3c-0.4,0.4-0.7,0.9-1,1.2c-1.8-1.1-1.6-3.6-2.6-5.1
		c-1.8-0.3-1.8-3.7-3.4-3.9l0,0c-0.3,0-0.5,0-0.8,0.1c-1.1-0.2-2,0.9-2.6,1.7c-0.9-0.2-1.5-1.3-2.1-2.2c-0.9-0.6-1.7,0.1-2.4,0.8
		c-1.3,2.6-4.1,2.8-6.7,1.9c-0.9,1.2-2.1,1.8-3.3,1.5c-1.9-2.7-3.7,0.3-5.9-0.6c-2.2-2.2-3.9,0.8-6.1-0.7c-1.3,0.2-2.7,2.1-3.9,0.2
		c-2.6,0.2-4-3-6.7-2.6c-1.1,1.3-2.7,1.2-3.7,2.2c0.2,0.3,0.3,0.6,0.4,0.9c5.8,1.8,12.4,2.9,18.2,4.3c2.7-1.2,5.5,2.1,8.1,0.5
		l9.2,2.5c1.7-1.4,4.5,0,6.5,0.4c2.9,2,5.8,1.7,8.8,1.9c1.9,0.1,3.7,0.6,5.4,1.4c1.2-0.4,3.2,0.9,3.7-0.7
		C690.1,700.1,689.8,699.7,689.4,699.7z"/>
	<polygon class="st7" points="718.2,682.6 718.2,682.6 718.2,682.6 	"/>
	<path class="st7" d="M741.3,689.6c-1.8-0.4-3.5-2.9-5.4-2.6c-2-1.9-3.4,3.4-4.8-1c-4.7-1.3-8.8-0.6-12.9-3.5
		c-0.7,0.1-1.1,1-1.8,0.4c-1.7-2.1-3.7-0.6-5.4-1c-3.3,1.3-6.6-3.3-9.7-1.1c-3.8,0.1-8.5-2.4-11.7,0c-0.4,0.4,0.1,0.9,0.4,1.3
		c5.6,1.1,10.6,1.6,16.2,3.1c2.4,2.9,5.2,0.4,7.9,2.4c5-0.6,10.1,2.4,14.9,2.4c4.4,0.4,8.9,3.9,12.6,1.2
		C742,690.7,741.9,690,741.3,689.6z"/>
	<polygon class="st7" points="758.4,705.3 758.4,705.3 758.4,705.3 	"/>
	<path class="st7" d="M758.4,705.3c-1.3,1.1-2.6-0.6-3.4-2.2c-0.8-1.2-2.1-0.8-2.9-0.2c-1.2,1.5-2.7,1.3-4.3,0.5
		c-1.6,2-3.7-0.4-5.5-0.3c-2.6,3.7-6.1-0.8-9.4,0.3c-1.7,3.2-2.8-1.9-4.9-1.5c-1.3,2-3.2-0.6-4.7-1.5c-1.9,3.2-5.3-1.8-7.1,1.8
		c-0.5,0.4,0,1.2,0.2,1.8c3.1,1.4,6.9,1,9.9,2.4c1.9,0.1,4.1-0.3,5.8,0.5c4,0,7.9,4.3,11.5,1.9c3.2,2.2,6.7,0.9,9.9,1.8
		c3.1,1.6,6.6,0.8,10,2c0.7-0.6,1.3-1.2,2-1.8c-0.2-1.9-1.6-3.8-2.8-5.6C761.2,703.5,760.1,706.8,758.4,705.3z"/>
	<path class="st7" d="M638.1,668.4c-2.4,1.4-4.1-3-6.2-0.7c-1.9-2.4-3.9-0.4-5.9-0.6l0,0c-3-1.5-6.2-2.7-9.6-3.5
		c-1.7,1-4.9-0.1-5.5,3.3c1,1.9,2.7,1.4,4,2.2c13,1.6,25.3,4.4,38.2,7.4c0.6,0.1,1-0.5,0.9-1.4c-1.7-2.8-4.9-1.6-6.7-4.4
		C643.8,671.5,641.3,667.8,638.1,668.4z"/>
	<path class="st7" d="M607.8,664.7c-2.2,0.1-3.7-2.3-5.9-2.7l0,0c-1.8,1.4-4.2,0-6.2-1.3c-2.3,1.3-5.2,0.5-7.8-0.7
		c-1.6,1.2-3.5,1.8-4.6,3.3c0.1,0.5,0.4,0.9,0.8,1.3c7.5-1.1,15.1,2.6,23.2,3.2c0.9-0.3,1.5-1.1,1.4-2
		C608.8,664.9,608,665.1,607.8,664.7z"/>
	<path class="st7" d="M626.5,699.9c-2.5,0.3-4-2.6-6.1-3.4c-1.4-3.4-3.8-1.3-5.9-2.5c-1.1-1.2,0.7-2.1,0.3-3.5
		c-1.6-4.2-4-0.3-6.1-0.4l-0.9-1.1c-0.7-1-1.5-0.5-2.2-0.3c-1.2,0.6-1.7-1.1-2.6-1.9l0,0c-1.1,0.3-2.5,0.5-3.4-1
		c-3.1-2.8-4.1,2.8-6.1,4.4l-0.4-0.1c-3.4-3.2-4.5,3.7-7.9,0.5c-1,0.2-1.4,2.5-2.3,1.2c-1.7-1.5-3.6-1.4-5.1,0
		c-0.6-0.6-1.1-1.7-1.8-1.7c-2,0.9-4.2,1.8-6.5,0.6c-0.4,0-1.1,0.1-0.8,1.1c0.3,0.5,0.7,0.9,1.2,1.2c8.4,2,15.6,0.7,23.7,2.8
		c11.3,1.6,21.8,4.4,32.8,6.3l1-0.7C627.3,700.8,626.7,700.4,626.5,699.9z"/>
	<path class="st7" d="M536.5,683.9c-1.5-2.4-4.5-1-5.2-4.8c-2.9,0.9-5.3-4.1-7.5-0.9c-3.1-0.4-3.8-5-6.8-5.1l0,0l-2.1,0.1
		c-3-5.8-3.5,2.1-6.2,1.6c-1.3,0.4-2.8-1.2-3.8,0.5c-0.3,2.5-2.7,1.7-3.1,3.4c0.2,0.5,0.7,0.6,1.1,0.8c4.1,0.9,8.7,2.1,12.6,2.3
		c8.3,3.5,16.9,3.8,25.3,5.8c0.7-0.2,1.1-1,0.8-1.6C540.4,684.5,538.5,683.8,536.5,683.9z"/>
	<path class="st7" d="M575.6,671c-2.8,0.3-5.5-0.5-7.5-2.3c-0.9-0.4-2.4-1.2-3.1-0.2c-0.9,1.2-2.1-0.4-3.1-1
		c-2.2,0.5-2.8-3.7-5.2-2.7l0,0c-1.4,3.7-4.5,0.5-5.9-2c-0.9-1-2-0.5-2.6,0.5c-0.5,0.3-1.4,0-1.7-0.8c-3.2-2.3-5.2,3.6-8.9,1
		c-0.9-0.6-1.7-2.4-2.8-1.8c-1.3,1.6-3.1,1.6-4.8,0.5c-1.4,0.4-2.4,1.4-2.8,2.6c1.4,1.7,4,2.2,6.1,1.2c3.2,2.3,6.9,2.1,10.6,2.7
		c2.8-0.2,5.3,1.5,7.9,1.2c9.3,1.7,18.6,3.4,27.8,5.2c0.6,0.1,1.6-0.1,1.3-1C579,673.5,577.2,672.4,575.6,671z"/>
	<path class="st7" d="M528.4,648c-1.3-0.6-2.4,0.5-3.5,0.8c-3.2,1.5-5.9-3.6-8.9-1.5l0,0c-1.9-3-4.8,0.1-6.9-2.6
		c-2.3,0.6-5,0.2-6.8,2.4c-0.8,1.2-4.3-0.7-2.9,2c3.3,0.9,5.4,0.3,8.4,1.2c3.2,1,7.2,1.2,10.3,2.2c3-0.9,6.1,0.9,9.2,1.5
		c2.5-1.3,5.6,0.8,8.5,0.8c0.7-0.6,2,0.5,2.2-1.1c-1.5-1.6-4.3-0.9-5.7-3.3C531,649.7,529.1,650.3,528.4,648z"/>
	<path d="M735.2,592.7c0-1.3,0.1-2.5,0.5-3.8c0-3.9-2.4-5.2-4.7-6.4c-2.4-2.5-3.6-5.9-3.9-9.6c-2.3-1.6-3.8-3.6-6.4-4.2l0,0
		c-4.4,2.1-9.1,4.5-13.5,6.6c-11.6,5.4-23.3,11.2-34.8,16.9c-1.4,0.7-2.9,1.4-4.3,2.1c-0.5-1.4-1.4-2.7-2.4-3.8
		c-6.5-8.4-12.8-17.2-19.5-25.4h-1.2c-2.5,0.1-4.5,2.3-6.9,2.8c-1.9,1.3-3.4,1.4-3.1,5.2l8.6,16.2c2.2,3.5,4.4,2,7.1,2.2
		c7.2,3.2,14.5,7,21.7,10.3c1.5,0.7,3.1,1.4,4.7,2c4.8,4.3,9.5,8.7,14.7,11.8l2.9,1.3c2.4,1.4,3.4,2,5.8,1.2c1.1-3.8-0.5-4.7-3-6.5
		c-3-1.9-6.9-3.6-9.4-7c1.3-1.5,4.2-0.1,5.9,0.3c5,1.3,10.2,2.6,15.2,3.8c3.3,1,4,0.5,5.6-3.3c-4-4-8.3-7.4-12.5-11
		c4-0.5,8.1-0.3,12.1-1c4.2,3.8,7.8,8.9,12.3,12.5c6.1,1,12,7.3,17.2,1.4c0.5-0.4,1-0.8,1.4-1.2c0.7-1,1.1-2,1.3-3.2l-1.3-1.7
		C742,597.9,738.4,595.5,735.2,592.7z"/>
	<path d="M672.2,568.1L672.2,568.1v12.8c0.5-0.8,0.6-2.1,0.8-3.8c1.3-1.2,3.3-1.4,5-1.7c0.5,0.6,1.1,1.3,1.7,1.9l0.8,0.5h0.8
		c2.6,0.2,3.3,0.7,4.5-2.7c-2.4-3.6-4.8-7.1-8-9.4C675.8,566.4,674,567.2,672.2,568.1z"/>
	<path d="M748,596.1c2.4,1.9,4.5,5,6.9,7.2c1.7,1.3,5,3.1,6.7,1.6l0,0c1-0.7,1.1-1.8,1.4-3.3c-4.5-3.6-9.1-7.7-13.7-10.9
		C746.9,591.3,746.1,593.6,748,596.1z"/>
	<path d="M672.2,568.1c-4.6,2.1-9.1,4.5-13.5,6.8c0.8,3.1,1.1,4.1,3,6.2c2,2.4,2.7,3.9,5.5,2.6c0.7-0.7,1.6-1.2,2.5-1.6
		c1.1,0.1,2.1-0.4,2.6-1.2l0,0L672.2,568.1z"/>
	<path d="M512.6,561.9c-0.6-0.9-1.4-1.7-2.3-2.5c-3.3-0.2-6.4-2.1-9.8-2.3l0,0c-1,0.9-1.6,2.1-2,3.3c-0.3,1.9-0.8,3.8-1.4,5.6
		l1.7,2.8c1.1-0.4,2.2-0.6,3.4-0.6c3.6,0.6,6.9,3,10.3,4.3c0.6,0.3,1.2,0.5,1.8,0.6l1.9-1.4c-1-2.7-1.9-6.4-3.1-8.9
		C512.9,562.5,512.8,562.2,512.6,561.9z"/>
	<path d="M624.2,562.3c-2.7-2.6-5.9-4.8-8.5-7.4c3.2-0.4,6.3-1.1,9.2-2.3c0-0.6,0.1-1.2,0.1-1.8c-0.1-1.2-0.4-2.4-0.7-3.5
		c-0.8-7.1-5.4-9.7-9.8-12.9l0,0c-18.5,8.8-36.6,19.4-55.1,28.5c-5.5,2.5-10.9,6.1-16.6,8.2c-2.8-1.3-7.3-1.8-8.5-6.1
		c0.8-0.5,2.7-0.1,3.7-0.1c2,0,2.7-0.5,4.3-1.8c0-1.3-0.5-6.7,0.6-7.1c1.9-0.9,3.8-2.3,5.8-3c2.8-0.7,4.9,0.4,4.9-4.4
		c0.3-0.7,3,0.3,3.9,0.2c1.9,1.8,3.7,4.2,5.4,1.1c1-4.1-2.5-6.9-4.9-9c-6.8-5.3-14.2-9.2-21.1-14.2l-1.4,0.9l-0.7,0.6
		c-7.3,3.9-15,7.5-22.2,12c-1.3,0.8-2.6,1.6-3.8,2.4c0.8,2.5,1.4,5.7,3.8,4.8l0.2-0.1c1.2-0.2,1.5-0.8,2.7,0.7
		c-0.2,0.9-1.7,2.2-2.2,2.9c-0.3,0.5-0.5,0.9-0.6,1.4c-0.3,0.9-0.3,2,0,2.9c0.5,1.2,1.2,2.3,2,3.3c2.1,2.6,3.6,2,6.1,2.4
		c0.6,0.8,1.3,1.7,1.9,2.5c-0.8,1.4-0.8,2-0.6,4l2.2,2.7c4.3,4.6,8.9,8.6,13.3,13.2l2.6,1l8.9-8.3c4.8,0.4,9.7,0.2,14.5,0.3
		c2.5,1.5,5.7,5.8,8.4,4.9c2.5-0.6,3.1-1,4.6-3.6l-1.1-1.9c-1.3-2.2-3.4-3.9-5-5.6c1.4-0.6,2.9-1.2,4.4-1.6c2.2-0.9,2.9-1,5.1,1
		c1.2,1.2,2.6,2.2,4,3.2c3.5,1.4,3.3-2.9,4.6-5.3l6.6,2.7c0.3,0.4,0.5,0.7,0.8,1.1c2,7.8,7.3,8.1,11.9,12c3.2,0.2,4.4,0.5,6.2-2.9
		c-2.1-5-4.6-9.8-7.3-14.6c0.8-0.5,2.9-2.1,3.9-1.9c2.9,3.4,5.1,7.6,8.1,10.8c2.7,0.4,5.5,0.1,8.1-0.9
		C627.2,569.6,627.3,565.3,624.2,562.3z"/>
	<path class="st3" d="M734.2,587.6c-0.8-2.1-2.4-2.6-3.8-3.3c-2.7-2.9-4.3-6.5-4.7-10.2c-1.6-1.1-2.9-2.9-4.8-3.3l0,0
		c-16.3,8-32.6,15.2-48.7,23.4c-1.3,0.6-2.6,1.4-3.9,2.1c-1.8,1.5-1.5-2.1-2.6-2.9c-6.6-8.3-13.3-18.1-20.2-26.4
		c-2.7-0.1-4.5,2.3-6.9,2.8c-0.8,0.7-2.8,0.9-2.4,2.9l8.3,15.6c1.8,3,4.1,0.6,6.4,1.5c7,3.3,14.2,6.7,21.3,10
		c1.7,0.8,3.4,1.6,5.2,2.4c5.6,4.5,10.6,10.4,16.8,12.8c1.5,0.8,3.3,2.4,4.7,1.7c0.3-0.7,0.1-1.5-0.6-1.9c-4.1-3.4-9-4.4-12.2-9.8
		c0-2.2,1.8-2.4,3-3c6.1,1.6,12.4,2.9,18.4,4.7c1.9-0.2,4.4,2.2,5.1-0.7c-4.4-4.5-9.3-7.6-13.7-11.8c-0.1-0.3-0.2-0.5-0.4-0.8
		c4.8-1.7,10.6-1,15.7-1.8c4.4,3.6,8,9.1,12.4,12.6c5.2,0.5,11.3,7.3,15.6,1.9c0.8-0.8,2-1.2,2.2-2.5c-3.1-3.9-7-6.3-10.4-9.6
		C732.9,591.9,734.3,589.9,734.2,587.6z"/>
	<path class="st3" d="M672.2,570.3c-3.9,1.9-7.9,3.8-11.7,5.9c0.4,2.6,2.4,3.5,3.6,5.6c2.3,1.8,3.6-2.2,5.8-1.7c2,0,1.3-2.9,1.7-4.2
		c0.2-0.3,0.4-0.5,0.6-0.7c1.7-1.5,3.9-1.3,5.8-2c0.9,0.7,1.6,2.2,2.5,2.6c1.3-0.1,3.1,0.9,3.3-0.5c-2-2.9-3.8-5.7-6.1-7.4
		C675.9,568.5,674.1,569.4,672.2,570.3z"/>
	<polygon class="st3" points="677.8,567.7 677.8,567.7 677.8,567.7 	"/>
	<path class="st3" d="M748.8,594.6c3.8,2.8,6.6,9.5,11.6,8.7c0.2-0.2,0.7-0.4,0.7-1l0,0c-4-3.1-7.9-6.8-12-9.6
		C748.5,592.8,748.3,594,748.8,594.6z"/>
	<path class="st3" d="M510,561.4c-3.2-0.3-5.7-2.1-8.8-2.2l0,0c-1.7,1.3-1.3,4.6-2.2,6.7c0.1,0.2,0.2,0.4,0.4,0.6
		c4.7-1.7,8.9,2.4,13.2,4.1c0.5,0.2,0.9,0.3,1.4,0.3l0.4-0.3c-0.7-1.7-1.1-3.6-1.8-5.4C512.1,563.8,511.2,562.5,510,561.4z"/>
	<path class="st3" d="M612.7,553.9l0.4-0.7c3.6-0.4,7.2-0.8,10.5-2.2c0-1.2-0.2-2.4-0.6-3.5c-0.4-6.1-5-8.7-8.2-11
		c-19.3,9-38.9,20.5-58.2,29.8c-4.4,2.1-8.7,5.2-13.5,6.6c-3.9-2-9.6-2.1-10.3-9.2c2.1-2.5,6,0.4,8.2-2.1c0.2-2.6-0.6-5.8,0.7-7.4
		c3.1-1.4,6.1-4.1,9.8-3.8c1-0.3,0.5-2.1,0.8-3.1c1.1-2.4,3.8-0.2,5.5-0.6c1.2,0.8,2.5,3,3.6,2.5c3.3-4.4-15.7-14.3-24.3-20.4
		c-7.6,4.8-16.7,8.5-24.5,13.4c-0.6,0.4-1.3,0.8-1.9,1.2l0.6,1.7c0.4,0.6,0.9-0.1,1.3,0c1.6-1.1,3.4,0.2,4.5,2.4
		c0.1,2.2-2.1,3.4-3,5.3c-0.8,1.4,0.7,2.8,1.6,4.2c1.4,2.1,3.7,1.5,5.6,1.8c1,1.3,2,2.7,3,4c0.6,1.5-1.1,2.1-0.8,3.6
		c4.5,5.6,9.9,10,14.8,14.9l1.4,0.6l8.8-8.1c5.1,0.4,10.1,0,15.3,0.4c2.5,1.4,4.4,4.1,7.1,5c1.3-0.6,3.1-0.4,3.8-2.1
		c-1.8-3.4-4.8-4.9-6.8-8c2.5-2,5.7-2.4,8.6-3.6c2.4-0.5,4.4,2.7,6.7,4c3.7,4.1,2.5-3.8,4.9-4.5l7.8,3l1.4,1.9
		c1.3,7.1,7.1,7.6,10.8,11c1.4-0.1,3.5,0.6,4.1-1.3c-1.9-4.9-4.7-9.4-7.2-14v-1.2c1.8-1.5,3.8-3.1,5.9-2.9c3,3.2,5.5,7.9,8.2,10.8
		c2.1,0,4.4,0.4,6.3-0.4c0.4-2.6,0.3-5.4-1.1-7.5C620.6,560.8,616.1,558.2,612.7,553.9z"/>
	<path d="M731.1,572.4l-5.2-1.7l-4.2-3.3c-8.4,3.7-16.7,7.4-25.1,11.1c-3.8-3.7-7.5-7.5-11.3-11.3l-7.7-2.4
		c-7.6,3.3-15.3,6.6-22.9,9.9l-11.9-16.4l-12.7-11.1L614.9,534l0,0c-14.3,7-28.6,14.1-42.9,21.2c-4.9-5.4-9.8-10.8-14.8-16.2
		c-6.9-4.3-13.8-8.6-20.7-12.8c-16.6,9-33.2,18.2-49.9,27.6c0.9,0.8,1.8,1.7,2.7,2.5c15.8-9,31.6-17.7,47.4-26.3
		c6.4,4,12.8,8,19.2,12c5.3,5.7,10.6,11.5,15.8,17.2c14.3-7.1,28.7-14.2,43-21.2l15.2,13.2l11.2,9.7l13,18.1
		c7.9-3.5,15.9-7,23.8-10.4l6.4,1.9c4,4,8,8.1,12,12.1c8.4-3.7,16.8-7.4,25.2-11.2l3.5,2.7l5.4,1.7c4.1,2.1,8.3,4.1,12.4,6.1
		c9,7.7,18.1,15.3,27.1,22.8l2.2-2.2c-9.5-7.8-18.9-15.7-28.4-23.7L731.1,572.4z"/>
	<path class="st7" d="M760.8,632.3L760.8,632.3c-10.7,0.7-20.9,3.5-31.2,5.8l-0.3-0.4c-23.3-8.4-46.7-18.1-70-26.7
		c-9.5-3.3-19.3-6.8-28.9-9.1c-10.1-2.7-20.4-4.5-30.8-5.5c-12.7-0.7-25.3-0.7-37.7,1.3c-7.3,1-14.4,2.5-21.4,4.4
		c-10.7-7-21.7-14-32.9-18.9c-6.2-3.2-13.2-5.4-19.6-7.3v58.1c94.5,13.8,189,36.6,283.5,50.4c0-17.4,0-34.8-0.1-52.3
		C767.8,632,764.3,632.1,760.8,632.3z"/>
	<path d="M691,646.2c-18.3,3.7-36.7,5.6-55.8,3.1c-6.4-1.1-12.6-2.6-18.7-4.5c-32.9-11.5-63-37.6-94.3-55.6
		c-8.7-4.9-17.8-9.1-27.4-12.6c-2.9-0.9-2.6-1.4-5.4-2l0.4,3.8c50,15.2,90.3,63.9,140.2,73.5c54,10.6,104.7-21.2,140.5-18.1l1.4-2.8
		c-15.6-0.4-33,3.2-47.8,7.1C713.2,641,702,643.8,691,646.2z"/>
	<path d="M721.3,633.3c-26.3-9.7-52.7-21.1-79.2-29.5c-12.1-3.7-24.6-6.5-37.3-8.3c-11.1-1.2-22.3-1.4-33.4-0.4
		c-11.1,1.2-22.1,3.2-32.9,6.1l3.8,2.7l0,0c68.3-17.5,107,6.6,184.7,35.1l3.4-1l-0.5-1.4L721.3,633.3z"/>
	<g>
		<defs>
			<path id="SVGID_1_" d="M490,687.6c92.3,13.6,184.6,35.7,276.9,49.4c0.2,15.7,0.5,31.3,0.7,47c-7,6.6-14.1,13.1-21.1,19.5
				c-38.8,17.1-77.7,32.9-116.5,48.7c-39.3-33.4-78.6-66.8-117.9-98.9c-13.4-10.4-22.2-29.6-22.2-48.9
				C489.9,698.9,490,693.2,490,687.6"/>
		</defs>
		<clipPath id="SVGID_2_">
			<use xlink:href="#SVGID_1_"  style="overflow:visible;"/>
		</clipPath>
		<g class="st8">
			<path d="M511.5,709.5c-0.1,0-0.2,0-0.3,0c-0.8-0.1-1.7-3.7-3.2-8.5s-2.3-6.3-2.9-6.4c-0.6-0.1-1.4,1.3-2.9,5.5
				c-1.5,4.3-2.3,7.6-3.2,7.5c-0.1,0-0.3-0.1-0.4-0.1l-3.5-5.3l-0.8,0.8v97.7c0,3,2.8,12.1,6.2,17.4l0,0v10.1c3,0.4,6.1,0.9,9.1,1.4
				v-10.2c3.4-4.3,6.2-12.3,6.2-15.4v-78.1v-0.1c0-0.1,0-0.2,0-0.4v-19.2c-0.3-0.4-0.6-0.7-0.8-1.1L511.5,709.5z"/>
			<path class="st9" d="M507.2,821.7c-0.6,0.4-1.4,0.5-2.1,0.5c-0.8-0.1-1.5-0.5-2-1v7.4l-0.6-0.1v2.3c1.8,0.3,3.6,0.5,5.4,0.8v-2.3
				l-0.6-0.1L507.2,821.7z"/>
			<path class="st9" d="M496.7,711.9L496.7,711.9v9.8c0,1.3,0.6,4.6,1.4,5.7c0.8,1,1.1,1.2,1.7-0.7c0.6-1.9,2-3.6,2-5.5
				s-1.6-4.3-2.3-5.8C498.8,714,496.7,709.1,496.7,711.9z"/>
			<path class="st9" d="M510.7,717.2c-0.7,1.2-2.3,3.2-2.3,5s1.4,4,2,6.1c0.6,2.1,1,2,1.7,1.2c0.8-0.8,1.4-4,1.4-5.2v-9.8l0,0
				C513.6,711.8,511.4,716,510.7,717.2z"/>
			<polygon class="st9" points="507.1,718.6 507.1,718.6 507.1,718.6 			"/>
			<path class="st9" d="M506.6,703.3c-1.1-3.4-1.5-2.6-1.5-2.6s-0.4-0.8-1.5,2.2c-1.1,3-2.5,5.2-2.5,8c0.1,2.6,0.8,5.1,2.2,7.3
				c0.9-2.3,1.4-3.1,1.9-3c0.5,0.1,1,0.9,1.9,3.4c1.3-1.6,2-4.6,2-6.4C509.1,709.3,507.7,706.7,506.6,703.3z"/>
			<path class="st9" d="M496.7,731.5L496.7,731.5v9.8c0,1.3,0.6,4.6,1.4,5.7c0.8,1,1.1,1.2,1.7-0.7c0.6-1.9,2-3.6,2-5.5
				c0-1.9-1.6-4.3-2.3-5.8C498.8,733.6,496.7,728.8,496.7,731.5z"/>
			<path class="st9" d="M510.7,736.8c-0.7,1.2-2.3,3.2-2.3,5s1.4,4,2,6.1c0.6,2.1,1,2,1.7,1.2c0.8-0.8,1.4-3.9,1.4-5.2v-9.8l0,0
				C513.6,731.4,511.4,735.6,510.7,736.8z"/>
			<polygon class="st9" points="507.1,738.2 507.1,738.2 507.1,738.2 			"/>
			<path class="st9" d="M506.6,723c-1.1-3.4-1.5-2.6-1.5-2.6c0,0-0.4-0.8-1.5,2.2s-2.5,5.2-2.5,8c0.1,2.6,0.8,5.1,2.2,7.4
				c0.9-2.3,1.4-3.1,1.9-3s1,0.9,1.9,3.4c1.3-1.6,2-4.6,2-6.5C509.1,729,507.7,726.3,506.6,723z"/>
			<path class="st9" d="M496.7,751.2L496.7,751.2v9.8c0,1.3,0.6,4.6,1.4,5.7c0.8,1,1.1,1.2,1.7-0.7c0.6-1.9,2-3.6,2-5.5
				s-1.6-4.3-2.3-5.8C498.8,753.3,496.7,748.4,496.7,751.2z"/>
			<path class="st9" d="M510.7,756.5c-0.7,1.2-2.3,3.2-2.3,5s1.4,4,2,6.1c0.6,2.1,1,2,1.7,1.2c0.8-0.8,1.4-3.9,1.4-5.2v-9.8l0,0
				C513.6,751.1,511.4,755.3,510.7,756.5z"/>
			<path class="st9" d="M506.6,742.7c-1.1-3.4-1.5-2.6-1.5-2.6s-0.4-0.8-1.5,2.2s-2.5,5.2-2.5,8c0.1,2.6,0.8,5.1,2.2,7.3
				c0.9-2.3,1.4-3.1,1.9-3s1,0.9,1.9,3.4c1.3-1.6,2-4.6,2-6.4C509.1,748.6,507.7,746,506.6,742.7z"/>
			<polygon class="st9" points="507.1,757.9 507.1,757.9 507.1,757.9 			"/>
			<path class="st9" d="M496.7,770.9L496.7,770.9v9.8c0,1.3,0.6,4.6,1.4,5.7c0.8,1,1.1,1.3,1.7-0.7c0.6-1.9,2-3.6,2-5.5
				s-1.6-4.3-2.3-5.8C498.8,772.9,496.7,768.1,496.7,770.9z"/>
			<path class="st9" d="M510.7,776.1c-0.7,1.2-2.3,3.2-2.3,5c0,1.8,1.4,4,2,6.1c0.6,2.1,1,2,1.7,1.2c0.8-0.8,1.4-3.9,1.4-5.2v-9.8
				l0,0C513.6,770.7,511.4,774.9,510.7,776.1z"/>
			<polygon class="st9" points="507.1,777.5 507.1,777.5 507.1,777.5 			"/>
			<path class="st9" d="M506.6,762.3c-1.1-3.4-1.5-2.6-1.5-2.6c0,0-0.4-0.8-1.5,2.2s-2.5,5.2-2.5,8c0.1,2.6,0.8,5.1,2.2,7.3
				c0.9-2.3,1.4-3.1,1.9-3s1,0.9,1.9,3.4c1.3-2,2-4.2,2-6.5C509.1,768.3,507.7,765.6,506.6,762.3z"/>
			<path class="st9" d="M496.7,790.5L496.7,790.5v9.8c0,1.3,0.6,4.6,1.4,5.7c0.8,1,1.1,1.3,1.7-0.7c0.6-1.9,2-3.6,2-5.5
				s-1.6-4.3-2.3-5.8C498.8,792.6,496.7,787.7,496.7,790.5z"/>
			<path class="st9" d="M510.7,795.8c-0.7,1.2-2.3,3.2-2.3,5s1.4,4,2,6.1c0.6,2.1,1,2,1.7,1.2c0.8-0.8,1.4-3.9,1.4-5.2v-9.8l0,0
				C513.6,790.4,511.4,794.6,510.7,795.8z"/>
			<polygon class="st9" points="507.1,797.2 507.1,797.2 507.1,797.2 			"/>
			<path class="st9" d="M506.6,781.9c-1.1-3.4-1.5-2.6-1.5-2.6s-0.4-0.8-1.5,2.2c-1.1,3-2.5,5.2-2.5,8c0.1,2.6,0.8,5.1,2.2,7.3
				c0.9-2.3,1.4-3.1,1.9-3s1,0.9,1.9,3.4c1.3-1.6,2-4.6,2-6.5C509.1,787.9,507.7,785.3,506.6,781.9z"/>
			<path class="st9" d="M505.1,799.3c-1.4,0.2-3.6,6.3-3.6,9.9c0,2.6,1,9.8,3.6,10.2c2.6,0.4,3.6-6.5,3.6-9.1
				C508.7,806.7,506.5,800,505.1,799.3z"/>
			<path d="M536.5,713.6c-0.1,0-0.2,0-0.3,0c-0.8-0.1-1.7-3.7-3.2-8.5c-1.5-4.8-2.3-6.4-2.9-6.5c-0.6-0.1-1.4,1.2-2.9,5.5
				c-1.5,4.3-2.3,7.6-3.2,7.4c-0.2,0-0.3-0.1-0.4-0.1c-1.2-1.8-2.3-3.6-3.5-5.4l-0.8,0.8v97.7c0,3,2.8,12.1,6.2,17.5l0,0v10.1
				c3,0.5,6.1,1,9.1,1.5v-10.2c3.4-4.3,6.2-12.2,6.2-15.3v-78.1v-0.1c0-0.1,0-0.2,0-0.4v-19.2l-0.8-1.1L536.5,713.6z"/>
			<path class="st9" d="M532.2,825.9c-0.6,0.4-1.4,0.5-2.1,0.4c-0.8-0.1-1.5-0.5-2-1v7.4l-0.6-0.1v2.3l5.4,0.9v-2.3l-0.6-0.1
				L532.2,825.9z"/>
			<path class="st9" d="M521.6,715.9L521.6,715.9v9.8c0,1.3,0.6,4.6,1.4,5.7c0.8,1.1,1.1,1.3,1.7-0.6s2-3.6,2.1-5.5
				c0-1.9-1.6-4.3-2.3-5.8C523.8,718,521.6,713.1,521.6,715.9z"/>
			<path class="st9" d="M535.7,721.4c-0.7,1.2-2.3,3.1-2.3,5c0,1.9,1.4,4,2.1,6.2c0.6,2.2,1,2,1.7,1.2c0.8-0.8,1.4-3.9,1.4-5.2v-9.8
				l0,0C538.6,716,536.4,720.1,535.7,721.4z"/>
			<polygon class="st9" points="532.1,722.7 532.1,722.7 532.1,722.7 			"/>
			<path class="st9" d="M531.6,707.5c-1.1-3.4-1.5-2.6-1.5-2.7c0,0-0.4-0.8-1.5,2.2c-1.1,3-2.5,5.2-2.5,8c0.1,2.6,0.8,5.1,2.2,7.3
				c0.9-2.3,1.4-3,1.9-3c0.5,0.1,1,1,1.9,3.4c1.3-1.5,2.1-4.6,2.1-6.4C534.1,713.5,532.7,710.8,531.6,707.5z"/>
			<path class="st9" d="M521.6,735.5L521.6,735.5v9.8c0,1.3,0.6,4.6,1.4,5.7c0.8,1.1,1.1,1.3,1.7-0.6s2-3.6,2.1-5.5
				c0-1.9-1.6-4.3-2.3-5.8C523.8,737.6,521.6,732.7,521.6,735.5z"/>
			<path class="st9" d="M535.7,741c-0.7,1.2-2.3,3.1-2.3,5c0,1.9,1.4,4,2.1,6.2c0.6,2.2,1,2,1.7,1.2c0.8-0.8,1.4-3.9,1.4-5.2v-9.8
				l0,0C538.6,735.6,536.4,739.8,535.7,741z"/>
			<polygon class="st9" points="532.1,742.3 532.1,742.3 532.1,742.3 			"/>
			<path class="st9" d="M531.6,727.1c-1.1-3.4-1.5-2.6-1.5-2.7c0,0-0.4-0.8-1.5,2.2c-1.1,3-2.5,5.2-2.5,8c0.1,2.6,0.8,5.1,2.2,7.3
				c0.9-2.3,1.4-3,1.9-3c0.5,0.1,1,1,1.9,3.4c1.3-1.6,2.1-4.6,2.1-6.4C534.1,733.1,532.7,730.5,531.6,727.1z"/>
			<path class="st9" d="M521.6,755.2L521.6,755.2v9.8c0,1.3,0.6,4.6,1.4,5.7c0.8,1.1,1.1,1.3,1.7-0.6s2-3.6,2.1-5.4
				c0-1.9-1.6-4.3-2.3-5.8C523.8,757.3,521.6,752.4,521.6,755.2z"/>
			<path class="st9" d="M535.7,760.6c-0.7,1.2-2.3,3.1-2.3,5c0,1.9,1.4,4,2.1,6.2c0.6,2.2,1,2.1,1.7,1.3s1.4-3.9,1.4-5.2V758l0,0
				C538.6,755.2,536.4,759.5,535.7,760.6z"/>
			<polygon class="st9" points="532.1,762 532.1,762 532.1,762 			"/>
			<path class="st9" d="M531.6,746.7c-1.1-3.4-1.5-2.6-1.5-2.7c0,0-0.4-0.8-1.5,2.2c-1.1,3-2.5,5.2-2.5,8c0.1,2.6,0.8,5.1,2.2,7.3
				c0.9-2.3,1.4-3,1.9-3c0.5,0.1,1,1,1.9,3.4c1.3-1.6,2.1-4.6,2.1-6.4C534.1,752.8,532.7,750.1,531.6,746.7z"/>
			<path class="st9" d="M521.6,774.8L521.6,774.8v9.8c0,1.3,0.6,4.6,1.4,5.7c0.8,1.1,1.1,1.3,1.7-0.6s2-3.6,2.1-5.4
				c0-1.9-1.6-4.4-2.3-5.8C523.8,776.9,521.6,772,521.6,774.8z"/>
			<path class="st9" d="M535.7,780.3c-0.7,1.2-2.3,3.1-2.3,5c0,1.9,1.4,4,2.1,6.2c0.6,2.2,1,2,1.7,1.2c0.8-0.8,1.4-3.9,1.4-5.2v-9.7
				l0,0C538.6,774.9,536.4,779.1,535.7,780.3z"/>
			<polygon class="st9" points="532.1,781.6 532.1,781.6 532.1,781.6 			"/>
			<path class="st9" d="M531.6,766.4c-1.1-3.4-1.5-2.6-1.5-2.6s-0.4-0.9-1.5,2.2c-1.1,3-2.5,5.2-2.5,8c0.1,2.6,0.8,5.1,2.2,7.3
				c0.9-2.3,1.4-3.1,1.9-3c0.5,0.1,1,1,1.9,3.4c1.3-1.6,2.1-4.6,2.1-6.4C534.1,772.4,532.7,769.7,531.6,766.4z"/>
			<path class="st9" d="M521.6,794.5L521.6,794.5v9.8c0,1.3,0.6,4.6,1.4,5.7c0.8,1.1,1.1,1.3,1.7-0.6s2-3.6,2.1-5.5
				c0-1.9-1.6-4.3-2.3-5.8C523.8,796.6,521.6,791.7,521.6,794.5z"/>
			<path class="st9" d="M535.7,799.9c-0.7,1.2-2.3,3.1-2.3,5c0,1.9,1.4,4,2.1,6.1c0.6,2.1,1,2,1.7,1.2c0.8-0.8,1.4-3.9,1.4-5.2v-9.8
				l0,0C538.6,794.5,536.4,798.7,535.7,799.9z"/>
			<polygon class="st9" points="532.1,801.3 532.1,801.3 532.1,801.3 			"/>
			<path class="st9" d="M531.6,786c-1.1-3.4-1.5-2.6-1.5-2.7c0,0-0.4-0.8-1.5,2.2c-1.1,3-2.5,5.2-2.5,8c0.1,2.6,0.8,5.1,2.2,7.3
				c0.9-2.3,1.4-3,1.9-3c0.5,0.1,1,1,1.9,3.4c1.3-1.6,2.1-4.6,2.1-6.4C534.1,792,532.7,789.4,531.6,786z"/>
			<path class="st9" d="M530.1,803.4c-1.4,0.2-3.6,6.2-3.6,9.9c0,2.6,1,9.8,3.6,10.2c2.6,0.4,3.6-6.5,3.6-9
				C533.7,810.8,531.5,804.1,530.1,803.4z"/>
			<path d="M561.5,718.1c-0.1,0-0.2,0-0.3,0c-0.8-0.2-1.7-3.7-3.2-8.5s-2.3-6.4-2.9-6.5s-1.4,1.2-2.9,5.5c-1.5,4.2-2.3,7.5-3.2,7.4
				c-0.2,0-0.3-0.1-0.4-0.1l-3.5-5.4c-0.3,0.3-0.5,0.5-0.8,0.8v97.7c0,3,2.8,12.1,6.2,17.6l0,0v10.1l9.1,1.6V828
				c3.4-4.2,6.2-12.2,6.2-15.2v-78.1v-0.1c0-0.1,0-0.2,0-0.4V715l-0.8-1.1L561.5,718.1z"/>
			<path class="st9" d="M557.2,830.3c-0.6,0.4-1.4,0.5-2.1,0.4c-0.8-0.2-1.5-0.5-2-1.1v7.4l-0.6-0.1l0,0v2.3l5.4,1v-2.2l-0.6-0.1
				L557.2,830.3z"/>
			<path class="st9" d="M546.6,720.2L546.6,720.2v9.8c0,1.3,0.6,4.6,1.4,5.7c0.8,1.1,1.1,1.3,1.7-0.6s2-3.6,2-5.4
				c0-1.9-1.6-4.4-2.3-5.8C548.8,722.3,546.6,717.4,546.6,720.2z"/>
			<path class="st9" d="M560.7,725.8c-0.7,1.2-2.3,3.1-2.3,5c0,1.9,1.4,4,2,6.2c0.6,2.1,1,2,1.7,1.2s1.4-3.9,1.4-5.2v-9.8l0,0
				C563.6,720.4,561.4,724.6,560.7,725.8z"/>
			<path class="st9" d="M555.1,709.2c0,0-0.4-0.9-1.5,2.1s-2.5,5.1-2.5,7.9c0.1,2.6,0.8,5.1,2.2,7.4c0.9-2.3,1.4-3,1.9-2.9
				c0.5,0.1,1,1,1.9,3.4c1.3-1.5,2.1-4.5,2.1-6.4c0-2.8-1.4-5.5-2.5-8.9C555.4,708.4,555.1,709.2,555.1,709.2z"/>
			<path class="st9" d="M546.6,739.8L546.6,739.8v9.8c0,1.3,0.6,4.6,1.4,5.7c0.8,1.1,1.1,1.3,1.7-0.6c0.6-1.9,2-3.6,2-5.4
				s-1.6-4.4-2.3-5.8C548.8,742,546.6,737,546.6,739.8z"/>
			<path class="st9" d="M560.7,745.4c-0.7,1.2-2.3,3.1-2.3,5c0,1.9,1.4,4,2,6.2c0.6,2.2,1,2,1.7,1.2s1.4-3.9,1.4-5.2v-9.8l0,0
				C563.6,740.1,561.4,744.3,560.7,745.4z"/>
			<path class="st9" d="M555.1,728.8c0,0-0.4-0.9-1.5,2.1c-1.1,3-2.5,5.1-2.5,7.9c0.1,2.6,0.8,5.1,2.2,7.4c0.9-2.3,1.4-3,1.9-2.9
				s1,1,1.9,3.4c1.3-1.5,2.1-4.5,2.1-6.4c0-2.8-1.4-5.5-2.5-8.9C555.4,728.1,555.1,728.9,555.1,728.8z"/>
			<path class="st9" d="M546.6,759.5L546.6,759.5v9.8c0,1.3,0.6,4.6,1.4,5.7c0.8,1.1,1.1,1.3,1.7-0.6s2-3.6,2-5.4
				c0-1.9-1.6-4.4-2.3-5.8C548.8,761.6,546.6,756.7,546.6,759.5z"/>
			<path class="st9" d="M560.7,765.1c-0.7,1.2-2.3,3.1-2.3,5c0,1.9,1.4,4,2,6.2c0.6,2.1,1,2,1.7,1.3s1.4-3.9,1.4-5.2v-9.7l0,0
				C563.6,759.7,561.4,763.9,560.7,765.1z"/>
			<path class="st9" d="M555.1,748.5c0,0-0.4-0.9-1.5,2.1s-2.5,5.1-2.5,7.9c0.1,2.6,0.8,5.1,2.2,7.4c0.9-2.3,1.4-3,1.9-2.9
				s1,1,1.9,3.4c1.3-1.5,2.1-4.5,2.1-6.4c0-2.8-1.4-5.5-2.5-8.9S555.1,748.5,555.1,748.5z"/>
			<path class="st9" d="M546.6,779.1L546.6,779.1v9.8c0,1.3,0.6,4.6,1.4,5.7c0.8,1.1,1.1,1.3,1.7-0.6s2-3.6,2-5.4s-1.6-4.4-2.3-5.8
				C548.8,781.3,546.6,776.3,546.6,779.1z"/>
			<path class="st9" d="M560.7,784.7c-0.7,1.2-2.3,3.1-2.3,5c0,1.9,1.4,4,2,6.2c0.6,2.2,1,2,1.7,1.2s1.4-3.9,1.4-5.2v-9.8l0,0
				C563.6,779.4,561.4,783.5,560.7,784.7z"/>
			<path class="st9" d="M555.1,768.1c0,0-0.4-0.8-1.5,2.1c-1.1,3-2.5,5.1-2.5,7.9c0.1,2.6,0.8,5.1,2.2,7.4c0.9-2.3,1.4-3,1.9-2.9
				c0.5,0.1,1,1,1.9,3.4c1.3-1.5,2.1-4.5,2.1-6.4c0-2.8-1.4-5.5-2.5-8.9S555.1,768.1,555.1,768.1z"/>
			<path class="st9" d="M546.6,798.8L546.6,798.8v9.8c0,1.3,0.6,4.6,1.4,5.7c0.8,1.1,1.1,1.3,1.7-0.6c0.6-1.9,2-3.6,2-5.4
				c0-1.9-1.6-4.4-2.3-5.8C548.8,800.9,546.6,796,546.6,798.8z"/>
			<path class="st9" d="M560.7,804.4c-0.7,1.2-2.3,3.1-2.3,5c0,1.9,1.4,4,2,6.2c0.6,2.2,1,2,1.7,1.2s1.4-3.9,1.4-5.2v-9.7l0,0
				C563.6,799,561.4,803.2,560.7,804.4z"/>
			<path class="st9" d="M555.1,787.7c0,0-0.4-0.9-1.5,2.1s-2.5,5.1-2.5,7.9c0.1,2.6,0.8,5.1,2.2,7.4c0.9-2.3,1.4-3,1.9-2.9
				c0.5,0.1,1,1,1.9,3.4c1.3-1.5,2.1-4.5,2.1-6.4c0-2.8-1.4-5.5-2.5-8.9C555.4,787,555.1,787.8,555.1,787.7z"/>
			<path class="st9" d="M555.1,807.8c-1.4,0.2-3.6,6.2-3.6,9.8c0,2.6,1,9.8,3.6,10.3s3.6-6.4,3.6-9
				C558.7,815.3,556.4,808.5,555.1,807.8z"/>
			<path d="M586.5,722.7c-0.1,0-0.2,0-0.3,0c-0.8-0.2-1.7-3.8-3.2-8.6c-1.5-4.8-2.3-6.4-2.9-6.5c-0.6-0.1-1.4,1.2-2.9,5.5
				c-1.5,4.2-2.3,7.5-3.2,7.4c-0.2,0-0.3-0.1-0.4-0.1l-3.5-5.5l-0.8,0.8v97.7c0,3,2.8,12.2,6.2,17.7l0,0v10.1l9.1,1.7v-10.2
				c3.4-4.2,6.2-12.1,6.2-15.2v-78.1v-0.1c0-0.1,0-0.2,0-0.4v-19.2l-0.8-1.1L586.5,722.7z"/>
			<path class="st9" d="M582.2,834.9c-0.6,0.4-1.4,0.5-2.1,0.4c-0.8-0.2-1.5-0.5-2-1.1v7.4l-0.6-0.1l0,0v2.3l5.4,1v-2.3l-0.6-0.1
				L582.2,834.9z"/>
			<path class="st9" d="M571.6,724.7L571.6,724.7v9.8c0,1.3,0.6,4.6,1.4,5.7c0.8,1.1,1.1,1.3,1.7-0.6c0.6-1.9,2-3.6,2-5.4
				c0-1.9-1.6-4.4-2.3-5.8S571.6,721.9,571.6,724.7z"/>
			<path class="st9" d="M585.7,730.4c-0.7,1.2-2.3,3.1-2.3,5c0,1.9,1.4,4,2,6.2c0.6,2.1,1,2.1,1.7,1.3c0.8-0.8,1.4-3.9,1.4-5.2v-9.8
				l0,0C588.5,725.1,586.4,729.3,585.7,730.4z"/>
			<path class="st9" d="M580,713.8c0,0-0.4-0.9-1.5,2.1c-1.1,3-2.5,5.1-2.5,7.9c0.1,2.6,0.8,5.1,2.2,7.4c0.9-2.3,1.4-3,1.9-2.9
				s1,1,1.9,3.4c1.3-1.5,2-4.5,2-6.4c0-2.8-1.4-5.5-2.5-8.9C580.4,713,580,713.8,580,713.8z"/>
			<path class="st9" d="M571.6,744.3L571.6,744.3v9.8c0,1.3,0.6,4.6,1.4,5.7c0.8,1.1,1.1,1.3,1.7-0.6c0.6-1.9,2-3.6,2-5.4
				c0-1.9-1.6-4.4-2.3-5.8S571.6,741.6,571.6,744.3z"/>
			<path class="st9" d="M585.7,750.1c-0.7,1.2-2.3,3.1-2.3,5c0,1.9,1.4,4,2,6.2c0.6,2.1,1,2,1.7,1.3c0.8-0.8,1.4-3.9,1.4-5.2v-9.8
				l0,0C588.5,744.7,586.4,748.9,585.7,750.1z"/>
			<path class="st9" d="M580,733.4c0,0.1-0.4-0.9-1.5,2.1c-1.1,3-2.6,5.1-2.6,7.9c0.1,2.6,0.8,5.1,2.2,7.4c0.9-2.3,1.4-3,1.9-2.9
				c0.5,0.1,1,1,1.9,3.5c1.3-1.5,2-4.5,2-6.4c0-2.8-1.4-5.5-2.5-8.9S580,733.5,580,733.4z"/>
			<path class="st9" d="M571.6,764L571.6,764v9.8c0,1.3,0.6,4.6,1.4,5.7c0.8,1.1,1.1,1.3,1.7-0.6c0.6-1.9,2-3.6,2-5.4
				c0-1.9-1.6-4.4-2.3-5.8C573.7,766.2,571.6,761.2,571.6,764z"/>
			<path class="st9" d="M585.7,769.7c-0.7,1.2-2.3,3.1-2.3,5c0,1.9,1.4,4.1,2,6.2c0.6,2.1,1,2.1,1.7,1.3c0.8-0.8,1.4-3.9,1.4-5.2
				v-9.8l0,0C588.5,764.4,586.4,768.5,585.7,769.7z"/>
			<path class="st9" d="M580,753.1c0,0-0.4-0.9-1.5,2.1c-1.1,3-2.5,5.1-2.5,7.9c0.1,2.6,0.8,5.1,2.2,7.4c0.9-2.3,1.4-3,1.9-2.9
				c0.5,0.1,1,1,1.9,3.4c1.3-1.5,2-4.5,2-6.4c0-2.8-1.4-5.5-2.5-8.9C580.4,752.3,580,753.1,580,753.1z"/>
			<path class="st9" d="M571.6,783.7L571.6,783.7v9.8c0,1.3,0.6,4.6,1.4,5.7c0.8,1.1,1.1,1.3,1.7-0.6c0.6-1.9,2-3.6,2-5.4
				c0-1.9-1.6-4.4-2.3-5.8C573.7,785.8,571.6,780.8,571.6,783.7z"/>
			<path class="st9" d="M585.7,789.4c-0.7,1.2-2.3,3.1-2.3,5c0,1.9,1.4,4,2,6.2c0.6,2.1,1,2,1.7,1.3c0.8-0.8,1.4-3.9,1.4-5.2v-9.8
				l0,0C588.5,784,586.4,788.2,585.7,789.4z"/>
			<path class="st9" d="M580,772.7c0,0-0.4-0.9-1.5,2.1c-1.1,3-2.5,5.1-2.5,7.9c0.1,2.6,0.8,5.1,2.2,7.4c0.9-2.3,1.4-3,1.9-2.9
				c0.5,0.1,1,1,1.9,3.4c1.3-1.5,2-4.5,2-6.4c0-2.8-1.4-5.5-2.5-8.9C580.4,772,580,772.8,580,772.7z"/>
			<path class="st9" d="M571.6,803.3L571.6,803.3v9.8c0,1.3,0.6,4.6,1.4,5.7c0.8,1.1,1.1,1.3,1.7-0.6c0.6-1.9,2-3.6,2-5.4
				c0-1.9-1.6-4.4-2.3-5.8S571.6,800.5,571.6,803.3z"/>
			<path class="st9" d="M585.7,809.1c-0.7,1.2-2.3,3.1-2.3,5c0,1.9,1.4,4,2,6.2c0.6,2.1,1,2,1.7,1.3c0.8-0.8,1.4-3.9,1.4-5.2v-9.8
				l0,0C588.5,803.7,586.4,807.8,585.7,809.1z"/>
			<path class="st9" d="M580,792.3c0,0-0.4-0.9-1.5,2.1c-1.1,3-2.5,5.1-2.5,7.9c0.1,2.6,0.8,5.1,2.2,7.4c0.9-2.3,1.4-3,1.9-2.9
				s1,1,1.9,3.4c1.3-1.5,2-4.5,2-6.4c0-2.8-1.4-5.5-2.5-8.9C580.4,791.6,580,792.4,580,792.3z"/>
			<path class="st9" d="M580.1,812.4c-1.4,0.2-3.6,6.2-3.6,9.8c0,2.6,1,9.8,3.6,10.3s3.6-6.4,3.6-9
				C583.7,819.9,581.4,813.1,580.1,812.4z"/>
			<path d="M611.4,727.5c-0.1,0-0.2,0-0.3,0c-0.8-0.2-1.7-3.8-3.2-8.6c-1.5-4.8-2.3-6.4-2.9-6.5c-0.6-0.1-1.4,1.2-2.9,5.4
				c-1.5,4.2-2.3,7.5-3.2,7.4c-0.2,0-0.3-0.1-0.4-0.1c-1.2-1.8-2.3-3.6-3.5-5.5l-0.8,0.8v97.7c0,3,2.8,12.2,6.2,17.7l0,0v10.1
				l9.1,1.7v-10.2c3.4-4.2,6.2-12.1,6.2-15.2v-78.1V744c0-0.1,0-0.2,0-0.4v-19.2l-0.8-1.1C613.8,724.8,612.6,726.1,611.4,727.5z"/>
			<path class="st9" d="M607.1,839.6c-0.6,0.4-1.4,0.5-2.1,0.4c-0.8-0.2-1.5-0.5-2-1.1v7.4l-0.6-0.1v2.3l5.4,1v-2.3l-0.6-0.1
				L607.1,839.6z"/>
			<path class="st9" d="M596.6,729.4L596.6,729.4v9.8c0,1.3,0.6,4.6,1.4,5.7c0.8,1.1,1.1,1.3,1.7-0.6c0.6-1.9,2-3.6,2.1-5.4
				c0-1.9-1.6-4.4-2.3-5.8C598.7,731.6,596.6,726.7,596.6,729.4z"/>
			<path class="st9" d="M610.6,735.2c-0.7,1.2-2.3,3.1-2.3,5c0,1.9,1.4,4.1,2.1,6.2s1,2,1.7,1.3c0.8-0.8,1.4-3.9,1.4-5.2v-9.8l0,0
				C613.5,729.9,611.3,734,610.6,735.2z"/>
			<polygon class="st9" points="607,736.5 607,736.5 607,736.5 			"/>
			<path class="st9" d="M606.5,721.2c-1.1-3.4-1.5-2.6-1.5-2.7c0,0-0.4-0.9-1.5,2.1c-1.1,3-2.5,5.1-2.5,7.9c0.1,2.6,0.8,5.1,2.2,7.4
				c0.9-2.3,1.4-3,1.9-2.9c0.5,0.1,1,1,1.9,3.5c1.3-1.5,2.1-4.5,2.1-6.4C609,727.3,607.6,724.6,606.5,721.2z"/>
			<path class="st9" d="M596.6,749.1L596.6,749.1v9.8c0,1.3,0.6,4.6,1.4,5.7c0.8,1.1,1.1,1.3,1.7-0.6s2-3.5,2.1-5.4
				c0-1.9-1.6-4.4-2.3-5.8C598.7,751.2,596.6,746.3,596.6,749.1z"/>
			<path class="st9" d="M610.6,754.9c-0.7,1.2-2.3,3.1-2.3,5c0,1.9,1.4,4.1,2.1,6.2c0.6,2.1,1,2,1.7,1.3s1.4-3.9,1.4-5.2v-9.8l0,0
				C613.5,749.5,611.3,753.7,610.6,754.9z"/>
			<polygon class="st9" points="607,756.1 607,756.1 607,756.1 			"/>
			<path class="st9" d="M606.5,740.9c-1.1-3.4-1.5-2.6-1.5-2.7s-0.4-0.9-1.5,2.1c-1.1,3-2.5,5.1-2.5,7.9c0.1,2.6,0.8,5.1,2.2,7.4
				c0.9-2.3,1.4-3,1.9-2.9c0.5,0.1,1,1,1.9,3.5c1.3-1.5,2.1-4.5,2.1-6.4C609,746.9,607.6,744.3,606.5,740.9z"/>
			<path class="st9" d="M596.6,768.7L596.6,768.7v9.8c0,1.3,0.6,4.6,1.4,5.7c0.8,1.1,1.1,1.3,1.7-0.6s2-3.5,2.1-5.4
				c0-1.9-1.6-4.4-2.3-5.8C598.7,770.9,596.6,765.9,596.6,768.7z"/>
			<path class="st9" d="M610.6,774.5c-0.7,1.2-2.3,3.1-2.3,5c0,1.9,1.4,4.1,2.1,6.2s1,2.1,1.7,1.3s1.4-3.9,1.4-5.2V772l0,0
				C613.5,769.2,611.3,773.3,610.6,774.5z"/>
			<polygon class="st9" points="607,775.8 607,775.8 607,775.8 			"/>
			<path class="st9" d="M606.5,760.5c-1.1-3.4-1.5-2.6-1.5-2.7c0,0-0.4-0.9-1.5,2.1c-1.1,3-2.5,5.1-2.5,7.9c0.1,2.6,0.8,5.1,2.2,7.4
				c0.9-2.3,1.4-3,1.9-2.9c0.5,0.1,1,1,1.9,3.5c1.3-1.5,2.1-4.5,2.1-6.4C609,766.6,607.6,763.9,606.5,760.5z"/>
			<path class="st9" d="M596.6,788.4L596.6,788.4v9.8c0,1.3,0.6,4.6,1.4,5.7c0.8,1.1,1.1,1.3,1.7-0.6s2-3.5,2.1-5.4
				c0-1.9-1.6-4.4-2.3-5.8C598.7,790.5,596.6,785.6,596.6,788.4z"/>
			<path class="st9" d="M610.6,794.2c-0.7,1.2-2.3,3.1-2.3,5c0,1.9,1.4,4.1,2.1,6.2s1,2.1,1.7,1.3s1.4-3.9,1.4-5.2v-9.8l0,0
				C613.5,788.8,611.3,793,610.6,794.2z"/>
			<polygon class="st9" points="607,795.4 607,795.4 607,795.4 			"/>
			<path class="st9" d="M606.5,780.1c-1.1-3.4-1.5-2.6-1.5-2.7s-0.4-0.9-1.5,2.1c-1.1,3-2.5,5.1-2.5,7.9c0.1,2.6,0.8,5.1,2.2,7.4
				c0.9-2.3,1.4-3,1.9-2.9c0.5,0.1,1,1,1.9,3.5c1.3-1.5,2.1-4.5,2.1-6.4C609,786.2,607.6,783.5,606.5,780.1z"/>
			<path class="st9" d="M596.6,808L596.6,808v9.8c0,1.3,0.6,4.6,1.4,5.7c0.8,1.1,1.1,1.3,1.7-0.6s2-3.5,2.1-5.4
				c0-1.9-1.6-4.4-2.3-5.8C598.7,810.2,596.6,805.2,596.6,808z"/>
			<path class="st9" d="M610.6,813.8c-0.7,1.2-2.3,3.1-2.3,5c0,1.9,1.4,4.1,2.1,6.2s1,2.1,1.7,1.3s1.4-3.9,1.4-5.2v-9.8l0,0
				C613.5,808.5,611.3,812.6,610.6,813.8z"/>
			<polygon class="st9" points="607,815.1 607,815.1 607,815.1 			"/>
			<path class="st9" d="M606.5,799.8c-1.1-3.4-1.5-2.6-1.5-2.7c0,0-0.4-0.9-1.5,2.1c-1.1,3-2.5,5.1-2.5,7.9c0.1,2.6,0.8,5.1,2.2,7.4
				c0.9-2.3,1.4-3,1.9-2.9c0.5,0.1,1,1,1.9,3.5c1.3-1.5,2.1-4.5,2.1-6.4C609,805.9,607.6,803.2,606.5,799.8z"/>
			<path class="st9" d="M605,817.1c-1.4,0.2-3.6,6.1-3.6,9.8c0,2.6,1,9.8,3.6,10.3c2.6,0.5,3.6-6.4,3.6-8.9
				C608.6,824.7,606.4,817.9,605,817.1z"/>
			<path d="M636.4,732.3c-0.1,0-0.2,0-0.3,0c-0.8-0.2-1.7-3.8-3.2-8.6c-1.5-4.8-2.3-6.4-2.9-6.6c-0.6-0.2-1.4,1.2-2.9,5.4
				c-1.5,4.2-2.3,7.5-3.2,7.3c-0.2,0-0.3-0.1-0.4-0.1l-3.5-5.5l-0.8,0.8v97.7c0,3,2.8,12.2,6.2,17.7l0,0v10.1l9.1,1.7v-10.2
				c3.4-4.2,6.2-12.1,6.2-15.2v-78v-0.1c0-0.1,0-0.2,0-0.4v-19.2l-0.9-1.1L636.4,732.3z"/>
			<path class="st9" d="M632.1,844.5c-0.6,0.4-1.4,0.5-2.1,0.4c-0.8-0.2-1.5-0.6-2-1.1v7.4l-0.6-0.1l0,0v2.3l5.4,1v-2.3l-0.6-0.1
				L632.1,844.5z"/>
			<path class="st9" d="M621.5,734.2L621.5,734.2v9.8c0,1.3,0.6,4.6,1.4,5.7c0.8,1.1,1.1,1.3,1.7-0.6c0.6-1.9,2-3.5,2-5.4
				c0-1.9-1.6-4.4-2.3-5.8C623.7,736.4,621.5,731.5,621.5,734.2z"/>
			<path class="st9" d="M635.6,740.1c-0.7,1.2-2.3,3.1-2.3,4.9c0,1.9,1.4,4.1,2,6.2c0.6,2.1,1,2.1,1.7,1.3s1.4-3.9,1.4-5.2v-9.8l0,0
				C638.5,734.7,636.3,738.9,635.6,740.1z"/>
			<path class="st9" d="M630,723.3c0,0-0.4-0.9-1.5,2.1c-1.1,3-2.5,5.1-2.5,7.9c0.1,2.6,0.8,5.1,2.2,7.4c0.9-2.3,1.4-3,1.9-2.9
				s1,1,1.9,3.5c1.3-1.5,2.1-4.5,2.1-6.4c0-2.8-1.4-5.5-2.5-8.9C630.4,722.6,630,723.4,630,723.3z"/>
			<path class="st9" d="M621.5,753.9L621.5,753.9v9.8c0,1.3,0.6,4.6,1.4,5.7c0.8,1.1,1.1,1.3,1.7-0.6c0.6-1.9,2-3.5,2-5.4
				c0-1.9-1.6-4.4-2.3-5.8C623.7,756.1,621.5,751.1,621.5,753.9z"/>
			<path class="st9" d="M635.6,759.7c-0.7,1.2-2.3,3.1-2.3,4.9c0,1.9,1.4,4.1,2,6.2c0.6,2.1,1,2,1.7,1.3c0.8-0.8,1.4-3.9,1.4-5.2
				v-9.8l0,0C638.5,754.4,636.3,758.5,635.6,759.7z"/>
			<path class="st9" d="M630,743c0,0.1-0.4-0.9-1.5,2.1c-1.1,3-2.5,5.1-2.5,7.9c0.1,2.6,0.8,5.1,2.2,7.4c0.9-2.3,1.4-3,1.9-2.9
				s1,1,1.9,3.5c1.3-1.5,2.1-4.5,2.1-6.4c0-2.8-1.4-5.5-2.5-8.9C630.4,742.3,630,743,630,743z"/>
			<path class="st9" d="M621.5,773.5L621.5,773.5v9.8c0,1.3,0.6,4.6,1.4,5.7c0.8,1.1,1.1,1.3,1.7-0.6c0.6-1.9,2-3.5,2-5.4
				c0-1.9-1.6-4.4-2.3-5.8C623.7,775.7,621.5,770.7,621.5,773.5z"/>
			<path class="st9" d="M635.6,779.3c-0.7,1.2-2.3,3.1-2.3,4.9c0,1.9,1.4,4.1,2,6.2c0.6,2.1,1,2.1,1.7,1.3s1.4-3.9,1.4-5.2v-9.8l0,0
				C638.5,774,636.3,778.2,635.6,779.3z"/>
			<path class="st9" d="M630,762.7c0,0-0.4-0.9-1.5,2.1s-2.5,5.1-2.5,7.9c0.1,2.6,0.8,5.1,2.2,7.4c0.9-2.3,1.4-3,1.9-2.9
				s1,1,1.9,3.5c1.3-1.5,2.1-4.5,2.1-6.4c0-2.8-1.4-5.5-2.5-8.9C630.4,761.9,630,762.7,630,762.7z"/>
			<path class="st9" d="M621.5,793.2L621.5,793.2v9.8c0,1.3,0.6,4.6,1.4,5.7c0.8,1.1,1.1,1.3,1.7-0.6c0.6-1.9,2-3.5,2-5.4
				c0-1.9-1.6-4.4-2.3-5.8C623.7,795.4,621.5,790.4,621.5,793.2z"/>
			<path class="st9" d="M635.6,799c-0.7,1.2-2.3,3.1-2.3,5c0,1.9,1.4,4.1,2,6.2c0.6,2.1,1,2.1,1.7,1.3s1.4-3.9,1.4-5.2v-9.8l0,0
				C638.5,793.7,636.3,797.8,635.6,799z"/>
			<path class="st9" d="M630,782.3c0,0-0.4-0.9-1.5,2.1s-2.5,5.1-2.5,7.9c0.1,2.6,0.8,5.1,2.2,7.4c0.9-2.3,1.4-3,1.9-2.9
				c0.5,0.1,1,1,1.9,3.5c1.3-1.5,2.1-4.5,2.1-6.4c0-2.8-1.4-5.5-2.5-8.9C630.4,781.6,630,782.3,630,782.3z"/>
			<path class="st9" d="M621.5,812.8L621.5,812.8v9.8c0,1.3,0.6,4.6,1.4,5.7c0.8,1.1,1.1,1.3,1.7-0.6c0.6-1.9,2-3.5,2-5.4
				c0-1.9-1.6-4.4-2.3-5.8C623.7,815,621.5,810,621.5,812.8z"/>
			<path class="st9" d="M635.6,818.7c-0.7,1.2-2.3,3.1-2.3,5c0,1.9,1.4,4.1,2,6.2c0.6,2.1,1,2.1,1.7,1.3s1.4-3.9,1.4-5.2v-9.8l0,0
				C638.5,813.3,636.3,817.5,635.6,818.7z"/>
			<path class="st9" d="M630,801.9c0,0-0.4-0.9-1.5,2.1c-1.1,3-2.5,5.1-2.5,7.9c0.1,2.6,0.8,5.1,2.2,7.4c0.9-2.3,1.4-3,1.9-2.9
				s1,1,1.9,3.5c1.3-1.5,2.1-4.5,2.1-6.4c0-2.8-1.4-5.5-2.5-8.9C630.4,801.2,630,802,630,801.9z"/>
			<path class="st9" d="M630,822c-1.4,0.2-3.6,6.1-3.6,9.8c0,2.6,1,9.8,3.6,10.3c2.6,0.5,3.6-6.4,3.6-8.9
				C633.6,829.5,631.4,822.7,630,822z"/>
			<path d="M661.4,737.2c-0.1,0-0.2,0-0.3,0c-0.8-0.2-1.7-3.8-3.2-8.6c-1.5-4.8-2.3-6.4-2.9-6.5c-0.6-0.1-1.4,1.2-2.9,5.4
				c-1.5,4.2-2.3,7.5-3.2,7.4c-0.1,0-0.3-0.1-0.4-0.1c-1.2-1.8-2.3-3.7-3.5-5.5l-0.8,0.8v97.7c0,3,2.8,12.2,6.2,17.7l0,0v10.1
				l9.1,1.7V847c3.4-4.2,6.2-12.1,6.2-15.2v-78.1v-0.1c0-0.1,0-0.2,0-0.4v-19.2c-0.3-0.4-0.6-0.7-0.8-1.1
				C663.7,734.4,662.5,735.8,661.4,737.2z"/>
			<path class="st9" d="M657.1,849.3c-0.6,0.4-1.4,0.5-2.1,0.4c-0.8-0.2-1.5-0.5-2-1.1v7.4l-0.6-0.1v2.3l5.4,1v-2.3l-0.6-0.1
				L657.1,849.3z"/>
			<path class="st9" d="M646.5,739.1L646.5,739.1v9.8c0,1.3,0.6,4.6,1.4,5.7c0.8,1.1,1.1,1.3,1.7-0.6c0.6-1.9,2-3.6,2-5.4
				c0-1.9-1.6-4.4-2.3-5.8S646.5,736.3,646.5,739.1z"/>
			<path class="st9" d="M660.6,744.9c-0.7,1.2-2.3,3.1-2.3,5c0,1.9,1.4,4.1,2,6.2s1,2.1,1.7,1.3s1.4-3.9,1.4-5.2v-9.8l0,0
				C663.4,739.5,661.3,743.7,660.6,744.9z"/>
			<polygon class="st9" points="656.9,746.1 656.9,746.1 656.9,746.1 			"/>
			<path class="st9" d="M656.4,730.9c-1.1-3.4-1.5-2.6-1.5-2.7c0,0-0.4-0.9-1.5,2.1c-1.1,3-2.5,5.1-2.5,7.9c0.1,2.6,0.8,5.1,2.2,7.4
				c0.9-2.3,1.4-3,1.9-2.9s1,1,1.9,3.5c1.3-1.5,2-4.5,2-6.4C659,736.9,657.5,734.3,656.4,730.9z"/>
			<path class="st9" d="M646.5,758.7L646.5,758.7v9.8c0,1.3,0.6,4.6,1.4,5.7c0.8,1.1,1.1,1.3,1.7-0.6c0.6-1.9,2-3.5,2-5.4
				c0-1.9-1.6-4.4-2.3-5.8C648.6,760.9,646.5,755.9,646.5,758.7z"/>
			<path class="st9" d="M660.6,764.5c-0.7,1.2-2.3,3.1-2.3,5c0,1.9,1.4,4.1,2,6.2s1,2,1.7,1.3s1.4-3.9,1.4-5.2V762l0,0
				C663.4,759.2,661.3,763.3,660.6,764.5z"/>
			<polygon class="st9" points="656.9,765.8 656.9,765.8 656.9,765.8 			"/>
			<path class="st9" d="M656.4,750.5c-1.1-3.4-1.5-2.6-1.5-2.7s-0.4-0.9-1.5,2.1c-1.1,3-2.5,5.1-2.5,7.9c0.1,2.6,0.8,5.1,2.2,7.4
				c0.9-2.3,1.4-3,1.9-2.9c0.5,0.1,1,1,1.9,3.5c1.3-1.5,2-4.5,2-6.4C659,756.6,657.5,753.9,656.4,750.5z"/>
			<path class="st9" d="M646.5,778.4L646.5,778.4v9.8c0,1.3,0.6,4.6,1.4,5.7c0.8,1.1,1.1,1.3,1.7-0.6c0.6-1.9,2-3.5,2-5.4
				c0-1.9-1.6-4.4-2.3-5.8C648.6,780.5,646.5,775.6,646.5,778.4z"/>
			<path class="st9" d="M660.6,784.2c-0.7,1.2-2.3,3.1-2.3,5c0,1.9,1.4,4.1,2,6.2s1,2.1,1.7,1.3s1.4-3.9,1.4-5.2v-9.8l0,0
				C663.4,778.8,661.3,783,660.6,784.2z"/>
			<polygon class="st9" points="656.9,785.4 656.9,785.4 656.9,785.4 			"/>
			<path class="st9" d="M656.4,770.2c-1.1-3.4-1.5-2.6-1.5-2.7c0-0.1-0.4-0.9-1.5,2.1c-1.1,3-2.5,5.1-2.5,7.9
				c0.1,2.6,0.8,5.1,2.2,7.4c0.9-2.3,1.4-3,1.9-2.9c0.5,0.1,1,1,1.9,3.5c1.3-1.5,2-4.5,2-6.4C659,776.3,657.5,773.6,656.4,770.2z"/>
			<path class="st9" d="M646.5,798L646.5,798v9.8c0,1.3,0.6,4.6,1.4,5.7c0.8,1.1,1.1,1.3,1.7-0.6c0.6-1.9,2-3.5,2-5.4
				c0-1.9-1.6-4.4-2.3-5.8C648.6,800.2,646.5,795.2,646.5,798z"/>
			<path class="st9" d="M660.6,803.8c-0.7,1.2-2.3,3.1-2.3,5c0,1.9,1.4,4,2,6.2s1,2,1.7,1.3s1.4-3.9,1.4-5.2v-9.8l0,0
				C663.4,798.5,661.3,802.7,660.6,803.8z"/>
			<polygon class="st9" points="656.9,805.1 656.9,805.1 656.9,805.1 			"/>
			<path class="st9" d="M656.4,789.8c-1.1-3.4-1.5-2.6-1.5-2.7s-0.4-0.9-1.5,2.1s-2.5,5.1-2.5,7.9c0.1,2.6,0.8,5.1,2.2,7.4
				c0.9-2.3,1.4-3,1.9-2.9s1,1,1.9,3.5c1.3-1.5,2-4.5,2-6.4C659,795.9,657.5,793.2,656.4,789.8z"/>
			<path class="st9" d="M646.5,817.7L646.5,817.7v9.8c0,1.3,0.6,4.6,1.4,5.7c0.8,1.1,1.1,1.3,1.7-0.6c0.6-1.9,2-3.5,2-5.4
				c0-1.9-1.6-4.4-2.3-5.8S646.5,814.9,646.5,817.7z"/>
			<path class="st9" d="M660.6,823.5c-0.7,1.2-2.3,3.1-2.3,5c0,1.9,1.4,4,2,6.2s1,2.1,1.7,1.3s1.4-3.9,1.4-5.2v-9.8l0,0
				C663.4,818.1,661.3,822.3,660.6,823.5z"/>
			<path class="st9" d="M656.4,809.4c-1.1-3.4-1.5-2.6-1.5-2.7c0,0-0.4-0.9-1.5,2.1s-2.5,5.1-2.5,7.9c0.1,2.6,0.8,5.1,2.2,7.4
				c0.9-2.3,1.4-3,1.9-2.9s1,1,1.9,3.5c1.3-1.5,2-4.5,2-6.4C659,815.5,657.5,812.8,656.4,809.4z"/>
			<polygon class="st9" points="656.9,824.7 656.9,824.7 656.9,824.7 			"/>
			<path class="st9" d="M655,826.8c-1.4,0.2-3.6,6.1-3.6,9.8c0,2.6,1,9.8,3.6,10.3c2.6,0.5,3.6-6.4,3.6-8.9
				C658.6,834.3,656.3,827.5,655,826.8z"/>
			<path d="M686.3,741.9c-0.1,0-0.2,0-0.3,0c-0.8-0.2-1.7-3.7-3.2-8.6c-1.5-4.8-2.3-6.4-2.9-6.5c-0.6-0.1-1.4,1.2-2.9,5.5
				s-2.3,7.5-3.2,7.4c-0.2,0-0.3-0.1-0.4-0.1c-1.2-1.8-2.3-3.6-3.5-5.5l-0.8,0.8v97.7c0,3,2.8,12.2,6.2,17.7l0,0v10.1l9.1,1.7v-10.2
				c3.4-4.2,6.2-12.2,6.2-15.2v-78.1v-0.1c0-0.1,0-0.2,0-0.4v-19.2l-0.8-1.1L686.3,741.9z"/>
			<path class="st9" d="M682.1,854c-0.6,0.4-1.4,0.5-2.1,0.4c-0.8-0.2-1.5-0.5-2-1.1v7.4l-0.6-0.1l0,0v2.3l5.4,1v-2.3l-0.6-0.1
				L682.1,854z"/>
			<path class="st9" d="M671.5,743.9L671.5,743.9v9.8c0,1.3,0.6,4.6,1.4,5.7s1.1,1.3,1.7-0.6c0.6-1.9,2-3.6,2.1-5.4
				c0-1.9-1.6-4.4-2.3-5.8C673.6,746,671.5,741.1,671.5,743.9z"/>
			<path class="st9" d="M685.5,749.6c-0.7,1.2-2.3,3.1-2.3,5c0,1.9,1.4,4,2.1,6.2c0.6,2.1,1,2,1.7,1.3c0.8-0.8,1.4-3.9,1.4-5.2V747
				l0,0C688.4,744.3,686.2,748.4,685.5,749.6z"/>
			<path class="st9" d="M679.9,732.9c0,0-0.4-0.9-1.5,2.1c-1.1,3-2.5,5.1-2.5,7.9c0.1,2.6,0.8,5.1,2.2,7.4c0.9-2.3,1.4-3,1.9-2.9
				c0.5,0.1,1,1,1.9,3.4c1.3-1.5,2.1-4.5,2.1-6.4c0-2.8-1.4-5.5-2.5-8.9C680.3,732.2,679.9,733,679.9,732.9z"/>
			<path class="st9" d="M671.5,763.5L671.5,763.5v9.8c0,1.3,0.6,4.6,1.4,5.7s1.1,1.3,1.7-0.6c0.6-1.9,2-3.6,2.1-5.4
				c0-1.9-1.6-4.4-2.3-5.8C673.6,765.7,671.5,760.7,671.5,763.5z"/>
			<path class="st9" d="M685.5,769.2c-0.7,1.2-2.3,3.1-2.3,5c0,1.9,1.4,4,2.1,6.2c0.6,2.1,1,2,1.7,1.3c0.8-0.8,1.4-3.9,1.4-5.2v-9.8
				l0,0C688.4,763.9,686.2,768,685.5,769.2z"/>
			<path class="st9" d="M679.9,752.6c0,0-0.4-0.9-1.5,2.1c-1.1,3-2.6,5.1-2.6,8c0.1,2.6,0.8,5.1,2.2,7.4c0.9-2.3,1.4-3,1.9-2.9
				c0.5,0.1,1,1,1.9,3.5c1.3-1.5,2.1-4.5,2.1-6.4c0-2.8-1.4-5.5-2.5-8.9C680.3,751.9,679.9,752.6,679.9,752.6z"/>
			<path class="st9" d="M671.5,783.1L671.5,783.1v9.8c0,1.3,0.6,4.6,1.4,5.7c0.8,1.1,1.1,1.3,1.7-0.6s2-3.5,2.1-5.4
				c0-1.9-1.6-4.4-2.3-5.8C673.6,785.3,671.5,780.3,671.5,783.1z"/>
			<path class="st9" d="M685.5,788.9c-0.7,1.2-2.3,3.1-2.3,5c0,1.9,1.4,4.1,2.1,6.2c0.6,2.1,1,2,1.7,1.3c0.8-0.8,1.4-3.9,1.4-5.2
				v-9.8l0,0C688.4,783.5,686.2,787.7,685.5,788.9z"/>
			<path class="st9" d="M679.9,772.3c0,0.1-0.4-0.9-1.5,2.1c-1.1,3-2.6,5.1-2.6,7.9c0.1,2.6,0.8,5.1,2.2,7.4c0.9-2.3,1.4-3,1.9-2.9
				c0.5,0.1,1,1,1.9,3.5c1.3-1.5,2.1-4.5,2.1-6.4c0-2.8-1.4-5.5-2.5-8.9C680.3,771.5,679.9,772.3,679.9,772.3z"/>
			<path class="st9" d="M671.5,802.8L671.5,802.8v9.8c0,1.3,0.6,4.6,1.4,5.7s1.1,1.3,1.7-0.6s2-3.6,2.1-5.4c0-1.9-1.6-4.4-2.3-5.8
				C673.6,805,671.5,800,671.5,802.8z"/>
			<path class="st9" d="M685.5,808.5c-0.7,1.2-2.3,3.1-2.3,5c0,1.9,1.4,4,2.1,6.2c0.6,2.1,1,2,1.7,1.2c0.8-0.8,1.4-3.9,1.4-5.2V806
				l0,0C688.4,803.2,686.2,807.3,685.5,808.5z"/>
			<path class="st9" d="M679.9,791.9c0,0-0.4-0.9-1.5,2.1c-1.1,3-2.5,5.1-2.5,7.9c0.1,2.6,0.8,5.1,2.2,7.4c0.9-2.3,1.4-3,1.9-2.9
				c0.5,0.1,1,1,1.9,3.5c1.3-1.5,2.1-4.5,2.1-6.4c0-2.8-1.4-5.5-2.5-8.9C680.3,791.2,679.9,791.9,679.9,791.9z"/>
			<path class="st9" d="M671.5,822.4L671.5,822.4v9.8c0,1.3,0.6,4.6,1.4,5.7s1.1,1.3,1.7-0.6s2-3.6,2.1-5.4c0-1.9-1.6-4.4-2.3-5.8
				C673.6,824.6,671.5,819.6,671.5,822.4z"/>
			<path class="st9" d="M685.5,828.2c-0.7,1.2-2.3,3.1-2.3,5c0,1.9,1.4,4,2.1,6.2c0.6,2.1,1,2.1,1.7,1.3c0.8-0.8,1.4-3.9,1.4-5.2
				v-9.8l0,0C688.4,822.8,686.2,827,685.5,828.2z"/>
			<path class="st9" d="M679.9,811.5c0,0-0.4-0.9-1.5,2.1c-1.1,3-2.5,5.1-2.5,7.9c0.1,2.6,0.8,5.1,2.2,7.4c0.9-2.3,1.4-3,1.9-2.9
				c0.5,0.1,1,1,1.9,3.5c1.3-1.5,2.1-4.5,2.1-6.4c0-2.8-1.4-5.5-2.5-8.9S679.9,811.6,679.9,811.5z"/>
			<path class="st9" d="M679.9,831.5c-1.4,0.2-3.6,6.2-3.6,9.8c0,2.6,1,9.8,3.6,10.3c2.6,0.5,3.6-6.4,3.6-9
				C683.5,839.1,681.3,832.3,679.9,831.5z"/>
			<path d="M711.3,746.4c-0.1,0-0.2,0-0.3,0c-0.8-0.1-1.7-3.7-3.2-8.5s-2.3-6.4-2.9-6.5s-1.4,1.2-2.9,5.5c-1.5,4.2-2.3,7.5-3.2,7.4
				c-0.2,0-0.3-0.1-0.4-0.1l-3.5-5.5l-0.8,0.8v97.7c0,3,2.8,12.2,6.2,17.6l0,0V865l9.1,1.6v-10.2c3.4-4.2,6.2-12.2,6.2-15.3V763
				v-0.1c0-0.1,0-0.2,0-0.4v-19.2l-0.8-1.1L711.3,746.4z"/>
			<path class="st9" d="M707,858.7c-0.6,0.4-1.4,0.5-2.1,0.4c-0.8-0.2-1.5-0.5-2-1.1v7.4l-0.6-0.1v2.3l5.4,1v-2.3l-0.6-0.1
				L707,858.7z"/>
			<path class="st9" d="M696.4,748.5L696.4,748.5v9.8c0,1.3,0.6,4.6,1.4,5.7c0.8,1.1,1.1,1.3,1.7-0.6c0.6-1.9,2-3.6,2-5.4
				c0-1.9-1.6-4.4-2.3-5.8C698.6,750.7,696.4,745.7,696.4,748.5z"/>
			<path class="st9" d="M710.5,754.2c-0.7,1.2-2.3,3.1-2.3,5c0,1.9,1.4,4,2,6.2c0.6,2.2,1,2,1.7,1.2c0.8-0.8,1.4-3.9,1.4-5.2v-9.8
				l0,0C713.4,748.8,711.2,753,710.5,754.2z"/>
			<polygon class="st9" points="706.9,755.5 706.9,755.5 706.9,755.5 			"/>
			<path class="st9" d="M706.4,740.2c-1.1-3.4-1.5-2.6-1.5-2.7c0,0-0.4-0.9-1.5,2.1s-2.5,5.1-2.5,7.9c0.1,2.6,0.8,5.1,2.2,7.4
				c0.9-2.3,1.4-3,1.9-2.9c0.5,0.1,1,1,1.9,3.4c1.3-1.5,2.1-4.5,2.1-6.4C708.9,746.3,707.5,743.6,706.4,740.2z"/>
			<path class="st9" d="M696.4,768.2L696.4,768.2v9.8c0,1.3,0.6,4.6,1.4,5.7c0.8,1.1,1.1,1.3,1.7-0.6c0.6-1.9,2-3.6,2-5.4
				c0-1.9-1.6-4.4-2.3-5.8C698.6,770.3,696.4,765.4,696.4,768.2z"/>
			<path class="st9" d="M710.5,773.8c-0.7,1.2-2.3,3.1-2.3,5c0,1.9,1.4,4,2,6.2c0.6,2.1,1,2,1.7,1.2s1.4-3.9,1.4-5.2v-9.8l0,0
				C713.4,768.4,711.2,772.6,710.5,773.8z"/>
			<path class="st9" d="M706.4,759.9c-1.1-3.4-1.5-2.6-1.5-2.7c0,0-0.4-0.9-1.5,2.1s-2.5,5.1-2.5,7.9c0.1,2.6,0.8,5.1,2.2,7.4
				c0.9-2.3,1.4-3,1.9-2.9s1,1,1.9,3.4c1.3-1.5,2.1-4.5,2.1-6.4C708.9,765.9,707.5,763.2,706.4,759.9z"/>
			<polygon class="st9" points="706.9,775.1 706.9,775.1 706.9,775.1 			"/>
			<path class="st9" d="M696.4,787.8L696.4,787.8v9.8c0,1.3,0.6,4.6,1.4,5.7c0.8,1.1,1.1,1.3,1.7-0.6c0.6-1.9,2-3.6,2-5.4
				c0-1.9-1.6-4.4-2.3-5.8C698.6,790,696.4,785,696.4,787.8z"/>
			<path class="st9" d="M710.5,793.5c-0.7,1.2-2.3,3.1-2.3,5c0,1.9,1.4,4,2,6.2c0.6,2.2,1,2,1.7,1.2s1.4-3.9,1.4-5.2v-9.8l0,0
				C713.4,788.1,711.2,792.3,710.5,793.5z"/>
			<polygon class="st9" points="706.9,794.8 706.9,794.8 706.9,794.8 			"/>
			<path class="st9" d="M706.4,779.5c-1.1-3.4-1.5-2.6-1.5-2.7c0-0.1-0.4-0.8-1.5,2.1c-1.1,3-2.5,5.1-2.5,7.9
				c0.1,2.6,0.8,5.1,2.2,7.4c0.9-2.3,1.4-3,1.9-2.9s1,1,1.9,3.4c1.3-1.5,2.1-4.6,2.1-6.4C708.9,785.6,707.5,782.9,706.4,779.5z"/>
			<path class="st9" d="M696.4,807.5L696.4,807.5v9.8c0,1.3,0.6,4.6,1.4,5.7c0.8,1.1,1.1,1.3,1.7-0.6c0.6-1.9,2-3.6,2-5.4
				c0-1.9-1.6-4.4-2.3-5.8C698.6,809.6,696.4,804.7,696.4,807.5z"/>
			<path class="st9" d="M710.5,813.1c-0.7,1.2-2.3,3.1-2.3,5c0,1.9,1.4,4,2,6.2c0.6,2.2,1,2,1.7,1.2c0.8-0.8,1.4-3.9,1.4-5.2v-9.8
				l0,0C713.4,807.7,711.2,811.9,710.5,813.1z"/>
			<polygon class="st9" points="706.9,814.4 706.9,814.4 706.9,814.4 			"/>
			<path class="st9" d="M706.4,799.1c-1.1-3.4-1.5-2.6-1.5-2.7c0,0-0.4-0.9-1.5,2.1c-1.1,3-2.5,5.1-2.5,7.9c0.1,2.6,0.8,5.1,2.2,7.4
				c0.9-2.3,1.4-3,1.9-2.9c0.5,0.1,1,1,1.9,3.4c1.3-1.5,2.1-4.6,2.1-6.4C708.9,805.2,707.5,802.5,706.4,799.1z"/>
			<path class="st9" d="M696.4,827.1L696.4,827.1v9.8c0,1.3,0.6,4.6,1.4,5.7c0.8,1.1,1.1,1.3,1.7-0.6c0.6-1.9,2-3.6,2-5.4
				c0-1.9-1.6-4.4-2.3-5.8C698.6,829.3,696.4,824.3,696.4,827.1z"/>
			<path class="st9" d="M710.5,832.8c-0.7,1.2-2.3,3.1-2.3,5c0,1.9,1.4,4,2,6.2c0.6,2.2,1,2,1.7,1.2c0.8-0.8,1.4-3.9,1.4-5.2v-9.8
				l0,0C713.4,827.4,711.2,831.6,710.5,832.8z"/>
			<path class="st9" d="M706.4,818.8c-1.1-3.4-1.5-2.6-1.5-2.7c0,0-0.4-0.8-1.5,2.1s-2.5,5.1-2.5,7.9c0.1,2.6,0.8,5.1,2.2,7.4
				c0.9-2.3,1.4-3,1.9-2.9c0.5,0.1,1,1,1.9,3.4c1.3-1.5,2.1-4.5,2.1-6.4C708.9,824.8,707.5,822.2,706.4,818.8z"/>
			<polygon class="st9" points="706.9,834.1 706.9,834.1 706.9,834.1 			"/>
			<path class="st9" d="M704.9,836.1c-1.4,0.2-3.6,6.2-3.6,9.8c0,2.6,1,9.8,3.6,10.3c2.6,0.5,3.6-6.4,3.6-9
				C708.5,843.6,706.3,836.8,704.9,836.1z"/>
			<path d="M736.3,750.8c-0.1,0-0.2,0-0.3,0c-0.8-0.1-1.7-3.7-3.2-8.5c-1.5-4.8-2.3-6.4-2.9-6.5c-0.6-0.1-1.4,1.2-2.9,5.5
				c-1.5,4.3-2.3,7.6-3.2,7.4c-0.2,0-0.3-0.1-0.4-0.1c-1.2-1.8-2.3-3.6-3.5-5.4l-0.8,0.8v97.7c0,3,2.8,12.1,6.2,17.6l0,0v10.1
				l9.1,1.5v-10.2c3.4-4.3,6.2-12.3,6.2-15.3v-78.1v-0.1c0-0.1,0-0.2,0-0.4v-19.2l-0.8-1.1L736.3,750.8z"/>
			<path class="st9" d="M732,863c-0.6,0.4-1.4,0.6-2.1,0.5c-0.8-0.1-1.5-0.5-2-1v7.4l-0.6-0.1v2.3l5.4,0.9v-2.3l-0.6-0.1L732,863z"
				/>
			<path class="st9" d="M721.4,753L721.4,753v9.8c0,1.3,0.6,4.6,1.4,5.7c0.8,1.1,1.1,1.3,1.7-0.6c0.6-1.9,2-3.6,2-5.5
				c0-1.9-1.6-4.3-2.3-5.8C723.6,755.1,721.4,750.2,721.4,753z"/>
			<path class="st9" d="M735.5,758.5c-0.7,1.2-2.3,3.1-2.3,5c0,1.9,1.4,4,2,6.2c0.6,2.2,1,2,1.7,1.2c0.8-0.8,1.4-3.9,1.4-5.2v-9.8
				l0,0C738.4,753.1,736.2,757.3,735.5,758.5z"/>
			<path class="st9" d="M731.4,744.6c-1.1-3.4-1.5-2.6-1.5-2.7c0,0-0.4-0.8-1.5,2.2c-1.1,3-2.5,5.2-2.5,8c0.1,2.6,0.8,5.1,2.2,7.3
				c0.9-2.3,1.4-3,1.9-3c0.5,0.1,1,1,1.9,3.4c1.3-1.5,2-4.6,2-6.4C733.9,750.6,732.5,747.9,731.4,744.6z"/>
			<polygon class="st9" points="731.9,759.8 731.9,759.8 731.9,759.8 			"/>
			<path class="st9" d="M721.4,772.6L721.4,772.6v9.8c0,1.3,0.6,4.6,1.4,5.7c0.8,1.1,1.1,1.3,1.7-0.6c0.6-1.9,2-3.6,2-5.4
				c0-1.9-1.6-4.4-2.3-5.8C723.6,774.8,721.4,769.9,721.4,772.6z"/>
			<path class="st9" d="M735.5,778.1c-0.7,1.2-2.3,3.1-2.3,5c0,1.9,1.4,4,2,6.2c0.6,2.2,1,2,1.7,1.2c0.8-0.8,1.4-3.9,1.4-5.2v-9.8
				l0,0C738.4,772.7,736.2,776.9,735.5,778.1z"/>
			<polygon class="st9" points="731.9,779.5 731.9,779.5 731.9,779.5 			"/>
			<path class="st9" d="M731.4,764.3c-1.1-3.4-1.5-2.6-1.5-2.7c0,0-0.4-0.8-1.5,2.2s-2.5,5.2-2.5,8c0.1,2.6,0.8,5.1,2.2,7.3
				c0.9-2.3,1.4-3,1.9-3c0.5,0.1,1,1,1.9,3.4c1.3-1.6,2-4.6,2-6.4C733.9,770.2,732.5,767.6,731.4,764.3z"/>
			<path class="st9" d="M721.4,792.3L721.4,792.3v9.8c0,1.3,0.6,4.6,1.4,5.7c0.8,1.1,1.1,1.3,1.7-0.6c0.6-1.9,2-3.6,2-5.4
				c0-1.9-1.6-4.4-2.3-5.8C723.6,794.4,721.4,789.5,721.4,792.3z"/>
			<path class="st9" d="M735.5,797.8c-0.7,1.2-2.3,3.1-2.3,5c0,1.9,1.4,4,2,6.1c0.6,2.1,1,2,1.7,1.2c0.8-0.8,1.4-3.9,1.4-5.2v-9.8
				l0,0C738.4,792.4,736.2,796.6,735.5,797.8z"/>
			<polygon class="st9" points="731.9,799.1 731.9,799.1 731.9,799.1 			"/>
			<path class="st9" d="M731.4,783.9c-1.1-3.4-1.5-2.6-1.5-2.7c0-0.1-0.4-0.8-1.5,2.2s-2.5,5.2-2.5,8c0.1,2.6,0.8,5.1,2.2,7.3
				c0.9-2.3,1.4-3,1.9-3s1,1,1.9,3.4c1.3-1.6,2-4.6,2-6.4C733.9,789.9,732.5,787.2,731.4,783.9z"/>
			<path class="st9" d="M721.4,811.9L721.4,811.9v9.8c0,1.3,0.6,4.6,1.4,5.7c0.8,1.1,1.1,1.3,1.7-0.6c0.6-1.9,2-3.6,2-5.4
				c0-1.9-1.6-4.4-2.3-5.8C723.6,814.1,721.4,809.1,721.4,811.9z"/>
			<path class="st9" d="M735.5,817.4c-0.7,1.2-2.3,3.1-2.3,5c0,1.9,1.4,4,2,6.1c0.6,2.1,1,2,1.7,1.2c0.8-0.8,1.4-3.9,1.4-5.2v-9.8
				l0,0C738.4,812,736.2,816.3,735.5,817.4z"/>
			<path class="st9" d="M731.4,803.5c-1.1-3.4-1.5-2.6-1.5-2.6c0,0-0.4-0.9-1.5,2.2s-2.5,5.2-2.5,8c0.1,2.6,0.8,5.1,2.2,7.4
				c0.9-2.3,1.4-3.1,1.9-3c0.5,0.1,1,1,1.9,3.4c1.3-1.6,2-4.6,2-6.4C733.9,809.5,732.5,806.9,731.4,803.5z"/>
			<polygon class="st9" points="731.9,818.8 731.9,818.8 731.9,818.8 			"/>
			<path class="st9" d="M721.4,831.6L721.4,831.6v9.8c0,1.3,0.6,4.6,1.4,5.7c0.8,1.1,1.1,1.3,1.7-0.6c0.6-1.9,2-3.6,2-5.4
				c0-1.9-1.6-4.4-2.3-5.8C723.6,833.7,721.4,828.8,721.4,831.6z"/>
			<path class="st9" d="M735.5,837.1c-0.7,1.2-2.3,3.1-2.3,5c0,1.9,1.4,4,2,6.1c0.6,2.1,1,2,1.7,1.2c0.8-0.8,1.4-3.9,1.4-5.2v-9.8
				l0,0C738.4,831.7,736.2,835.9,735.5,837.1z"/>
			<polygon class="st9" points="731.9,838.4 731.9,838.4 731.9,838.4 			"/>
			<path class="st9" d="M731.4,823.2c-1.1-3.4-1.5-2.6-1.5-2.7c0,0-0.4-0.8-1.5,2.2c-1.1,3-2.5,5.2-2.5,8c0.1,2.6,0.8,5.1,2.2,7.3
				c0.9-2.3,1.4-3,1.9-3c0.5,0.1,1,1,1.9,3.4c1.3-1.6,2-4.6,2-6.4C733.9,829.2,732.5,826.5,731.4,823.2z"/>
			<path class="st9" d="M729.9,840.5c-1.4,0.2-3.6,6.2-3.6,9.8c0,2.6,1,9.8,3.6,10.2c2.6,0.4,3.6-6.5,3.6-9
				C733.5,848,731.2,841.2,729.9,840.5z"/>
			<path d="M761.3,754.8c-0.1,0-0.2,0-0.3,0c-0.8-0.1-1.7-3.7-3.2-8.4c-1.5-4.8-2.3-6.3-2.9-6.4c-0.6-0.1-1.4,1.3-2.9,5.5
				s-2.3,7.6-3.2,7.5c-0.2,0-0.3-0.1-0.4-0.1c-1.2-1.8-2.3-3.6-3.5-5.4l-0.8,0.8v97.7c0,3,2.8,12.1,6.2,17.5l0,0v10.1l9.1,1.4v-10.2
				c3.4-4.3,6.2-12.4,6.2-15.4v-78.1v-0.1c0-0.1,0-0.2,0-0.4v-19.2l-0.8-1.1C763.6,751.9,762.4,753.3,761.3,754.8z"/>
			<path class="st9" d="M757,867.1c-0.6,0.4-1.4,0.5-2.1,0.5c-0.8-0.1-1.5-0.5-2-1v7.4l-0.6-0.1v2.3l5.4,0.8v-2.3l-0.6-0.1
				L757,867.1z"/>
			<path class="st9" d="M746.4,757.2L746.4,757.2v9.8c0,1.3,0.6,4.6,1.4,5.7c0.8,1.1,1.1,1.2,1.7-0.7c0.6-1.9,2-3.6,2.1-5.5
				c0-1.9-1.6-4.3-2.3-5.8C748.5,759.3,746.4,754.4,746.4,757.2z"/>
			<path class="st9" d="M760.5,762.5c-0.7,1.2-2.3,3.2-2.3,5c0,1.8,1.4,4,2.1,6.1c0.6,2.1,1,2,1.7,1.2s1.4-4,1.4-5.2v-9.8l0,0
				C763.3,757.1,761.2,761.3,760.5,762.5z"/>
			<path class="st9" d="M756.3,748.6c-1.1-3.4-1.5-2.6-1.5-2.6c0,0-0.4-0.8-1.5,2.2c-1.1,3-2.5,5.2-2.5,8c0.1,2.6,0.8,5.1,2.2,7.3
				c0.9-2.3,1.4-3.1,1.9-3s1,0.9,1.9,3.4c1.3-1.6,2.1-4.6,2.1-6.5C758.9,754.7,757.4,752,756.3,748.6z"/>
			<polygon class="st9" points="756.8,763.9 756.8,763.9 756.8,763.9 			"/>
			<path class="st9" d="M746.4,776.8L746.4,776.8v9.8c0,1.3,0.6,4.6,1.4,5.7c0.8,1.1,1.1,1.3,1.7-0.7c0.6-1.9,2-3.6,2.1-5.5
				s-1.6-4.3-2.3-5.8C748.5,778.9,746.4,774,746.4,776.8z"/>
			<path class="st9" d="M760.5,782.1c-0.7,1.2-2.3,3.2-2.3,5c0,1.8,1.4,4,2.1,6.1c0.6,2.1,1,2,1.7,1.2c0.8-0.8,1.4-4,1.4-5.2v-9.8
				l0,0C763.3,776.7,761.2,780.9,760.5,782.1z"/>
			<polygon class="st9" points="756.8,783.5 756.8,783.5 756.8,783.5 			"/>
			<path class="st9" d="M756.3,768.3c-1.1-3.4-1.5-2.6-1.5-2.6c0-0.1-0.4-0.8-1.5,2.2c-1.1,3-2.5,5.2-2.5,8c0.1,2.6,0.8,5.1,2.2,7.3
				c0.9-2.3,1.4-3.1,1.9-3s1,1,1.9,3.4c1.3-1.6,2.1-4.6,2.1-6.5C758.9,774.3,757.4,771.6,756.3,768.3z"/>
			<path class="st9" d="M746.4,796.5L746.4,796.5v9.8c0,1.3,0.6,4.6,1.4,5.7c0.8,1.1,1.1,1.2,1.7-0.7c0.6-1.9,2-3.6,2.1-5.5
				s-1.6-4.3-2.3-5.8C748.5,798.6,746.4,793.7,746.4,796.5z"/>
			<path class="st9" d="M760.5,801.8c-0.7,1.2-2.3,3.2-2.3,5c0,1.8,1.4,4,2.1,6.1s1,2,1.7,1.2s1.4-4,1.4-5.2v-9.8l0,0
				C763.3,796.3,761.2,800.6,760.5,801.8z"/>
			<polygon class="st9" points="756.8,803.2 756.8,803.2 756.8,803.2 			"/>
			<path class="st9" d="M756.3,787.9c-1.1-3.4-1.5-2.6-1.5-2.6c0,0-0.4-0.8-1.5,2.2s-2.5,5.2-2.5,8c0.1,2.6,0.8,5.1,2.2,7.3
				c0.9-2.3,1.4-3.1,1.9-3s1,1,1.9,3.4c1.3-1.6,2.1-4.6,2.1-6.5C758.9,793.9,757.4,791.3,756.3,787.9z"/>
			<path class="st9" d="M746.4,816.1L746.4,816.1v9.8c0,1.3,0.6,4.6,1.4,5.7c0.8,1,1.1,1.3,1.7-0.6c0.6-1.9,2-3.6,2.1-5.5
				c0-1.9-1.6-4.3-2.3-5.8C748.5,818.2,746.4,813.3,746.4,816.1z"/>
			<path class="st9" d="M760.5,821.4c-0.7,1.2-2.3,3.2-2.3,5c0,1.8,1.4,4,2.1,6.1s1,2,1.7,1.2c0.8-0.8,1.4-4,1.4-5.2v-9.8l0,0
				C763.3,816,761.2,820.2,760.5,821.4z"/>
			<path class="st9" d="M756.3,807.6c-1.1-3.4-1.5-2.6-1.5-2.6c0,0-0.4-0.8-1.5,2.2c-1.1,3-2.5,5.2-2.5,8c0.1,2.6,0.8,5.1,2.2,7.3
				c0.9-2.3,1.4-3.1,1.9-3s1,0.9,1.9,3.4c1.3-1.6,2.1-4.6,2.1-6.5C758.9,813.6,757.4,810.9,756.3,807.6z"/>
			<polygon class="st9" points="756.8,822.8 756.8,822.8 756.8,822.8 			"/>
			<path class="st9" d="M746.4,835.8L746.4,835.8v9.8c0,1.3,0.6,4.6,1.4,5.7c0.8,1.1,1.1,1.3,1.7-0.7c0.6-1.9,2-3.6,2.1-5.5
				c0-1.9-1.6-4.3-2.3-5.8C748.5,837.9,746.4,833,746.4,835.8z"/>
			<path class="st9" d="M760.5,841.1c-0.7,1.2-2.3,3.2-2.3,5c0,1.8,1.4,4,2.1,6.1c0.6,2.1,1,2,1.7,1.2s1.4-4,1.4-5.2v-9.7l0,0
				C763.3,835.6,761.2,839.9,760.5,841.1z"/>
			<polygon class="st9" points="756.8,842.5 756.8,842.5 756.8,842.5 			"/>
			<path class="st9" d="M756.3,827.2c-1.1-3.4-1.5-2.6-1.5-2.6c0,0-0.4-0.8-1.5,2.2c-1.1,3-2.5,5.2-2.5,8c0.1,2.6,0.8,5.1,2.2,7.3
				c0.9-2.3,1.4-3.1,1.9-3s1,1,1.9,3.4c1.3-1.6,2.1-4.6,2.1-6.5C758.9,833.2,757.4,830.6,756.3,827.2z"/>
			<path class="st9" d="M754.9,844.6c-1.4,0.2-3.6,6.3-3.6,9.9c0,2.6,1,9.8,3.6,10.2s3.6-6.5,3.6-9.1
				C758.5,852,756.2,845.3,754.9,844.6z"/>
			<path d="M786.2,758.4c-0.1,0-0.2,0-0.3,0c-0.8-0.1-1.7-3.7-3.2-8.4c-1.5-4.7-2.3-6.3-2.9-6.4c-0.6-0.1-1.4,1.3-2.9,5.6
				s-2.3,7.6-3.2,7.5c-0.2,0-0.3-0.1-0.4-0.1l-3.5-5.3l-0.8,0.8v97.7c0,3,2.8,12.1,6.2,17.4l0,0v10.1c3,0.4,6.1,0.8,9.1,1.2v-10.2
				c3.4-4.4,6.2-12.5,6.2-15.5v-78.1v-0.1c0-0.1,0-0.2,0-0.4v-19.2l-0.8-1L786.2,758.4z"/>
			<path class="st9" d="M782,870.7c-0.6,0.4-1.4,0.6-2.1,0.5c-0.8-0.1-1.5-0.5-2-1v7.4l-0.6-0.1l0,0v2.3l5.4,0.8v-2.3l-0.6-0.1
				L782,870.7z"/>
			<path class="st9" d="M771.4,761.1L771.4,761.1v9.8c0,1.3,0.6,4.6,1.4,5.7c0.8,1,1.1,1.2,1.7-0.7c0.6-1.9,2-3.6,2-5.5
				c0-1.9-1.6-4.3-2.3-5.7C773.5,763.1,771.4,758.2,771.4,761.1z"/>
			<path class="st9" d="M785.4,766.1c-0.7,1.2-2.3,3.2-2.3,5.1c0,1.9,1.4,4,2,6.1c0.6,2.1,1,2,1.7,1.2s1.4-4,1.4-5.3v-9.8l0,0
				C788.3,760.6,786.2,764.9,785.4,766.1z"/>
			<path class="st9" d="M779.8,749.7c0,0-0.4-0.8-1.5,2.2s-2.5,5.2-2.5,8c0.1,2.5,0.8,5,2.2,7.3c0.9-2.3,1.4-3.1,1.9-3
				s1,0.9,1.9,3.4c1.3-1.6,2.1-4.6,2.1-6.5c0-2.8-1.4-5.4-2.5-8.8C780.2,748.9,779.8,749.8,779.8,749.7z"/>
			<path class="st9" d="M771.4,780.7L771.4,780.7v9.8c0,1.3,0.6,4.6,1.4,5.7c0.8,1,1.1,1.2,1.7-0.7c0.6-1.9,2-3.6,2-5.5
				c0-1.9-1.6-4.3-2.3-5.7S771.4,777.9,771.4,780.7z"/>
			<path class="st9" d="M785.4,785.8c-0.7,1.2-2.3,3.2-2.3,5.1c0,1.9,1.4,4,2,6.1c0.6,2.1,1,2,1.7,1.2s1.4-4,1.4-5.3V783l0,0
				C788.3,780.3,786.2,784.5,785.4,785.8z"/>
			<path class="st9" d="M779.8,769.4c0,0-0.4-0.8-1.5,2.2s-2.5,5.2-2.5,8c0.1,2.5,0.8,5,2.2,7.3c0.9-2.3,1.4-3.1,1.9-3
				s1,0.9,1.9,3.4c1.3-2,2-4.2,2.1-6.5c0-2.8-1.4-5.4-2.5-8.8C780.2,768.6,779.8,769.4,779.8,769.4z"/>
			<path class="st9" d="M771.4,800.3L771.4,800.3v9.8c0,1.3,0.6,4.6,1.4,5.7c0.8,1,1.1,1.2,1.7-0.7c0.6-1.9,2-3.6,2-5.5
				c0-1.9-1.6-4.3-2.3-5.7C773.5,802.4,771.4,797.5,771.4,800.3z"/>
			<path class="st9" d="M785.4,805.4c-0.7,1.2-2.3,3.2-2.3,5.1c0,1.9,1.4,4,2,6.1c0.6,2.1,1,2,1.7,1.2c0.8-0.8,1.4-4,1.4-5.3v-9.8
				l0,0C788.3,799.9,786.2,804.2,785.4,805.4z"/>
			<path class="st9" d="M779.8,789c0,0-0.4-0.8-1.5,2.2c-1.1,3-2.5,5.2-2.5,8c0.1,2.5,0.8,5,2.2,7.3c0.9-2.3,1.4-3.1,1.9-3
				s1,0.9,1.9,3.4c1.3-2,2-4.2,2.1-6.5c0-2.8-1.4-5.4-2.5-8.8C780.2,788.3,779.8,789.1,779.8,789z"/>
			<path class="st9" d="M771.4,820L771.4,820v9.8c0,1.3,0.6,4.6,1.4,5.6c0.8,1,1.1,1.2,1.7-0.7c0.6-1.9,2-3.6,2-5.5
				c0-1.9-1.6-4.3-2.3-5.7C773.5,822.1,771.4,817.2,771.4,820z"/>
			<path class="st9" d="M785.4,825.1c-0.7,1.2-2.3,3.2-2.3,5.1c0,1.9,1.4,4,2,6.1c0.6,2.1,1,2,1.7,1.2c0.8-0.8,1.4-4,1.4-5.3v-9.8
				l0,0C788.3,819.5,786.2,823.8,785.4,825.1z"/>
			<path class="st9" d="M779.8,808.7c0,0-0.4-0.8-1.5,2.2s-2.5,5.2-2.5,8c0.1,2.5,0.8,5,2.2,7.3c0.9-2.3,1.4-3.1,1.9-3
				s1,0.9,1.9,3.4c1.3-2,2-4.2,2.1-6.5c0-2.8-1.4-5.4-2.5-8.8C780.2,807.8,779.8,808.7,779.8,808.7z"/>
			<path class="st9" d="M771.4,839.6L771.4,839.6v9.8c0,1.3,0.6,4.6,1.4,5.7c0.8,1,1.1,1.2,1.7-0.7c0.6-1.9,2-3.6,2-5.5
				c0-1.9-1.6-4.3-2.3-5.7C773.5,841.7,771.4,836.8,771.4,839.6z"/>
			<path class="st9" d="M785.4,844.7c-0.7,1.2-2.3,3.2-2.3,5.1c0,1.9,1.4,4,2,6.1c0.6,2.1,1,2,1.7,1.2s1.4-4,1.4-5.3V842l0,0
				C788.3,839.2,786.2,843.5,785.4,844.7z"/>
			<path class="st9" d="M779.8,828.3c0,0-0.4-0.8-1.5,2.2s-2.5,5.2-2.5,8c0.1,2.5,0.8,5,2.2,7.3c0.9-2.3,1.4-3.1,1.9-3
				s1,0.9,1.9,3.4c1.3-2,2-4.2,2.1-6.5c0-2.8-1.4-5.4-2.5-8.7C780.2,827.5,779.8,828.3,779.8,828.3z"/>
			<path class="st9" d="M779.8,848.3c-1.4,0.2-3.6,6.3-3.6,10c0,2.6,1,9.8,3.6,10.1c2.6,0.4,3.6-6.6,3.6-9.1
				C783.4,855.7,781.2,849,779.8,848.3z"/>
		</g>
	</g>
	<path class="st6" d="M630.1,401.7c46.7,9,93.4,18.1,140.1,25c0,109.3,0,218.5,0,327.8c0,19.2-8.8,36-22.2,42.1
		c-39.3,19.4-78.6,37.6-118,55.7l0,0v9.4c40.2-18.6,80.5-37.1,120.7-57.1c15.7-7.1,25.9-26.6,25.9-49.1V419.2
		c-48.9-7-97.7-16.4-146.6-25.9L630.1,401.7z"/>
	<path class="st6" d="M512,753.5c-13.4-10.4-22.2-29.6-22.2-48.9c0-109.3,0-218.6,0-327.8c46.7,6.9,93.5,15.9,140.2,25l0,0v-8.4
		c-48.9-9.5-97.8-19-146.7-25.9v336.3c0,22.5,10.3,44.8,25.9,57c40.2,32.8,80.5,66.9,120.7,101.1v-0.1v-9.3h-0.1
		C590.7,818.9,551.3,785.5,512,753.5z"/>
</g>
</svg>
