<svg xmlns="http://www.w3.org/2000/svg" viewBox="0 0 1260 1012.04">
  <g>
    <path d="M1260,922V2C840,273.28,420-181.24,0,90.07v920C420,738.76,840,1193.28,1260,922Z" style="fill: #fff;fill-rule: evenodd"/>
    <path d="M1260,308.64V2C840,273.28,420-181.24,0,90.07V396.74C420,125.43,840,580,1260,308.64Z" style="fill: #00247d;fill-rule: evenodd"/>
    <path d="M1106.27,833.85c-39.25,31.06-71.56,36.2-110.77,18.81-57.28-25.78-112.54-29.25-169.82-7-38.5,14.82-72.27,8.66-110.77-19.17C657.63,785,602.37,772,545.09,790.3c-38.5,12.32-72.27,6.15-110.76-19.16-58.18-38-111.62-41.47-169.83-7-39.21,23.5-71.52,28.67-110.76,18.81C101.83,770.22,51.6,789.58,0,844.8v98.91c4.59-5.17,9-10.26,13.44-15.27,38.5-43.33,72.27-58.87,110.77-52,58.17,10.86,111.62,2.82,169.82-29.35,39.21-21.37,71.53-19.62,110.77,4.93,57.28,36.08,112.54,46.66,169.82,28.87,38.49-11.92,72.27-4.3,110.76,23.92,57.29,42,112.54,52.53,169.83,28.87,38.49-16,72.27-14.19,110.76,4.93,58.21,28.53,111.65,20.46,169.83-29.35,38.49-33.3,72.26-48.84,110.76-52,4.43-.39,8.86-.86,13.44-1.6V756.7h0C1208.41,768,1158.17,792.4,1106.27,833.85Z" style="fill: #00247d;fill-rule: evenodd"/>
    <path d="M1106.27,460.14C1067,491.2,1034.71,496.34,995.5,479,938.22,453.17,883,449.7,825.68,471.9c-38.5,14.83-72.27,8.66-110.77-19.16-57.28-41.47-112.54-54.42-169.82-36.15-38.5,12.32-72.27,6.15-110.76-19.17-58.18-38-111.62-41.46-169.83-7-39.21,23.5-71.52,28.67-110.76,18.81C101.83,396.51,51.6,415.87,0,471.09V570c4.59-5.18,9-10.26,13.44-15.27,38.5-43.33,72.27-58.87,110.77-52,58.17,10.87,111.62,2.83,169.82-29.34,39.21-21.38,71.53-19.63,110.77,4.93,57.28,36.08,112.54,46.66,169.82,28.87,38.49-11.93,72.27-4.31,110.76,23.91,57.29,42,112.54,52.54,169.83,28.88,38.49-16,72.27-14.19,110.76,4.92,58.21,28.54,111.65,20.46,169.83-29.34,38.49-33.3,72.26-48.84,110.76-52,4.43-.39,8.86-.86,13.44-1.6V383h0C1208.41,394.24,1158.17,418.68,1106.27,460.14Z" style="fill: #00247d;fill-rule: evenodd"/>
    <path d="M1106.27,646.82C1067,677.88,1034.71,683,995.5,665.63c-57.28-25.78-112.54-29.25-169.82-7-38.5,14.83-72.27,8.66-110.77-19.16C657.63,598,602.37,585,545.09,603.27c-38.5,12.32-72.27,6.15-110.76-19.17-58.18-38-111.62-41.46-169.83-7-39.21,23.5-71.52,28.67-110.76,18.81C101.83,583.19,51.6,602.55,0,657.77v98.91c4.59-5.18,9-10.26,13.44-15.27,38.5-43.33,72.27-58.87,110.77-52C182.38,700.25,235.83,692.21,294,660c39.21-21.38,71.53-19.63,110.77,4.93,57.28,36.08,112.54,46.66,169.82,28.87,38.49-11.92,72.27-4.31,110.76,23.91,57.29,42,112.54,52.54,169.83,28.88,38.49-16,72.27-14.19,110.76,4.92,58.21,28.54,111.65,20.47,169.83-29.34,38.49-33.3,72.26-48.84,110.76-52,4.43-.39,8.86-.86,13.44-1.6V569.66h0C1208.41,580.92,1158.17,605.37,1106.27,646.82Z" style="fill: #00247d;fill-rule: evenodd"/>
    <path d="M0,396.74c57.1-36.88,114.19-60.35,171.28-74.05C534.19,147.26,897.09,366.42,1260,43.66V2C1202.91,38.85,1145.81,62.32,1088.72,76,725.81,251.45,362.91,32.3,0,355.05Z" style="fill: #fff"/>
    <path d="M684.6,364.48V57.81c-36.4-7.7-72.8-15.88-109.2-23.58V340.9C611.8,348.6,648.2,356.78,684.6,364.48Z" style="fill: #fff;fill-rule: evenodd"/>
    <path d="M1088.72,382.69c57.09-13.7,114.19-37.17,171.28-74.06V267C897.09,413.05,534.19,17.25,171.28,16,114.19,29.72,57.1,53.19,0,90.07v41.69C362.91-14.34,725.81,381.46,1088.72,382.69Z" style="fill: #fff"/>
    <path d="M647.5,198.91C851.66,193.61,1055.83,183.55,1260,2a559.59,559.59,0,0,1-119.12,58.72C976.41,158.29,812,165.65,647.5,169.91Z" style="fill: #cf142b"/>
    <path d="M1260,308.63v-29c-170.29,68.56-340.58,17.8-510.87-55.53-33.87-6.34-67.74-13.58-101.62-20.94v4.26C851.67,301.51,1055.83,390.83,1260,308.63Z" style="fill: #cf142b"/>
    <path d="M630,199.35C420,102.44,210,5.53,0,90.08v29c170.29-68.56,340.58-17.8,510.87,55.53C550.58,182,590.29,190.69,630,199.35Z" style="fill: #cf142b"/>
    <path d="M647.5,227.9V207.43L630,199.36l17.49,3.81v-4.26C431.67,204.51,215.83,204.79,0,396.74A559.36,559.36,0,0,1,119.13,338C295.25,233.5,471.38,232.47,647.5,227.9Z" style="fill: #cf142b"/>
    <path d="M647.5,207.43v-4.26L630,199.36Z" style="fill: #cf142b"/>
    <path d="M0,294.52C420,23.21,840,477.73,1260,206.41V104.19C840,375.51,420-79,0,192.3Z" style="fill: #fff;fill-rule: evenodd"/>
    <path d="M663.6,360V53.32c-22.4-4.83-44.8-9.77-67.2-14.6V345.39C618.8,350.22,641.2,355.16,663.6,360Z" style="fill: #cf142b;fill-rule: evenodd"/>
    <path d="M0,276.63C420,5.32,840,459.84,1260,188.53V122.08C840,393.4,420-61.13,0,210.19Z" style="fill: #cf142b;fill-rule: evenodd"/>
    <path d="M664.88,136.8Q654.42,150.6,644,164.36q-7-23.58-14-47.15-7,20.54-14,41.06l-20.91-36.62q-1.89,20.32-3.76,40.66-9-9.26-18-18.49,6.18,29.7,12.37,59.4c29.53,6.32,59.06,12.88,88.59,19.2l12.39-54.14q-9,5.41-18,10.8Z" style="fill: #fc0;fill-rule: evenodd"/>
    <path d="M665.26,135.27l-21.14,27.85q-7.05-23.85-14.12-47.69L615.87,157q-10.56-18.51-21.14-37-1.89,20.58-3.8,41.15-9.23-9.48-18.47-18.93l12.84,61.6c29.8,6.38,59.6,13,89.4,19.37q6.42-28.06,12.84-56.15-9.24,5.55-18.48,11.07Q667.16,156.67,665.26,135.27Zm8.63,86.42c-29.26-6.26-58.52-12.76-87.79-19l-11.91-57.2q8.8,9,17.6,18.05,1.86-20.09,3.71-40.18,10.35,18.1,20.69,36.24Q623.1,139.29,630,119l13.8,46.6q10.35-13.62,20.7-27.26,1.85,20.89,3.71,41.77,8.79-5.25,17.6-10.54Q679.86,195.65,673.89,221.69Z"/>
    <path d="M585.7,203.22A88.34,88.34,0,0,0,630,228.46c17,3.71,32.57,1.17,44.3-6A88.39,88.39,0,0,0,630,197.19C613,193.47,597.43,196,585.7,203.22Z" style="fill: #fc0;fill-rule: evenodd"/>
    <polygon points="629.99 197.19 629.99 197.19 629.99 197.19 629.99 197.19" style="fill: #fc0;fill-rule: evenodd"/>
    <path d="M630,196.55c-16.49-3.6-32.32-1.45-44.59,6.08a.56.56,0,0,0-.23.48.88.88,0,0,0,.23.58A89.16,89.16,0,0,0,630,229.09c16.49,3.6,32.33,1.46,44.6-6.08a.56.56,0,0,0,.23-.48.88.88,0,0,0-.23-.58A89.1,89.1,0,0,0,630,196.55Zm0,31.27a87.87,87.87,0,0,1-43.35-24.4c12-7.1,27.36-9.08,43.35-5.59a87.84,87.84,0,0,1,43.36,24.39C661.35,229.33,646,231.31,630,227.82Z"/>
    <path d="M583.6,193.78c.17.41.35.81.52,1.22A69.78,69.78,0,0,1,630,189.88c16,3.49,31.84,12.16,45.9,25l.53-1c-14.23-13-30.28-21.78-46.43-25.3A70.48,70.48,0,0,0,583.6,193.78Z"/>
    <path d="M584.37,197.55l.54,1.21a66.59,66.59,0,0,1,45.26-5.63c15.64,3.41,31.19,12.06,45,25,.17-.33.35-.65.53-1-13.93-13.05-29.66-21.81-45.49-25.26A67.36,67.36,0,0,0,584.37,197.55Z"/>
    <path d="M578.78,170.81c.19.39.38.79.58,1.19,15.27-8.95,32.78-11.58,50.63-7.69s35.37,14.15,50.64,29.59l.58-1C665.76,177.34,648.05,167,630,163S594.23,161.76,578.78,170.81Z"/>
    <path d="M579.58,174.71l.6,1.18a66.31,66.31,0,0,1,50-8.34c17.54,3.83,34.72,14.1,49.69,29.63.19-.32.39-.63.59-.94-15.15-15.71-32.53-26.09-50.28-30A67.05,67.05,0,0,0,579.58,174.71Z"/>
    <path d="M634.43,174.09l-8.86-1.94c-2.24-.48-4.07,1.33-4.07,4.06v1.25c0,2.72,1.83,5.34,4.07,5.83l8.86,1.93c2.24.49,4.06-1.33,4.06-4.06v-1.25C638.49,177.19,636.67,174.58,634.43,174.09Zm3,6.84c0,2-1.35,3.37-3,3L625.57,182a4.43,4.43,0,0,1-3-4.32v-1.25c0-2,1.36-3.37,3-3l8.86,1.93a4.43,4.43,0,0,1,3,4.33Z"/>
    <path d="M608.36,172.75a9.58,9.58,0,0,0-5.62-.7,8.46,8.46,0,0,0-4.85,2.47,4.65,4.65,0,0,0-1.24,4.28c.51,2.07,2.51,3.61,5,4.15a9.8,9.8,0,0,0,3.75.08c4.1-.69,6.83-3.72,6.08-6.74A5.48,5.48,0,0,0,608.36,172.75Zm-3,9.95c-4,.67-7.75-1.1-8.45-3.94a4.29,4.29,0,0,1,1.18-4,8.28,8.28,0,0,1,4.73-2.4,9.67,9.67,0,0,1,3.68.07,8.3,8.3,0,0,1,1.8.61,5.13,5.13,0,0,1,3,3.27C612,179.17,609.32,182,605.36,182.7Z"/>
    <path d="M584.35,178.47l-4.82,1.68c-1.37.48-1.72,3-.78,5.7s2.81,4.45,4.18,4l4.81-1.68c1.38-.48,1.73-3,.79-5.7S585.72,178,584.35,178.47Z" style="fill: #fc0;fill-rule: evenodd"/>
    <path d="M584.13,177.84l-4.82,1.68a2.75,2.75,0,0,0-1.55,2.45,8.81,8.81,0,0,0,.51,4.05,9.06,9.06,0,0,0,2.13,3.48,3.75,3.75,0,0,0,1.71,1,1.83,1.83,0,0,0,1-.06l4.82-1.67c1.66-.58,2.11-3.43,1-6.5S585.79,177.26,584.13,177.84Zm3.39,9.67-4.81,1.68a1.81,1.81,0,0,1-1.76-.66,7.37,7.37,0,0,1-1.73-2.85,7.27,7.27,0,0,1-.43-3.29c.12-.86.46-1.44,1-1.61l4.82-1.69a1.07,1.07,0,0,1,.59,0c1,.21,2.23,1.64,2.9,3.53C588.86,184.89,588.61,187.13,587.52,187.51Z"/>
    <path d="M680.47,202l-4.81-3.74c-1.38-1.06-3.25-.09-4.19,2.18s-.58,5,.79,6l4.81,3.74c1.37,1.06,3.25.09,4.19-2.19S681.84,203,680.47,202Z" style="fill: #fc0;fill-rule: evenodd"/>
    <path d="M680.69,201.44l-4.82-3.73c-1.66-1.29-3.8-.26-4.87,2.34s-.62,5.66,1,6.95l4.81,3.73a2.53,2.53,0,0,0,1,.5c1.43.31,3-.77,3.83-2.85C682.81,205.78,682.35,202.73,680.69,201.44Zm.09,6.21c-.8,1.94-2.4,2.86-3.49,2l-4.81-3.73c-1.09-.85-1.33-3.2-.53-5.14.66-1.6,1.87-2.51,2.89-2.3a1.52,1.52,0,0,1,.6.29l4.81,3.73C681.34,203.35,681.58,205.7,680.78,207.65Z"/>
    <path d="M657.26,183.92a10.65,10.65,0,0,0-5.62-1.75,3.09,3.09,0,0,0-3.17,2.17c-.37,1.32.08,3,1.24,4.81a15.29,15.29,0,0,0,4.84,4.57,12.64,12.64,0,0,0,3.77,1.56,7.65,7.65,0,0,0,1.86.18,3.07,3.07,0,0,0,3.16-2.17C664.09,190.59,661.36,186.38,657.26,183.92Zm5.83,9.22a2.89,2.89,0,0,1-3,2,10.38,10.38,0,0,1-5.48-1.7,14.89,14.89,0,0,1-4.73-4.45c-1.1-1.68-1.52-3.28-1.18-4.49a2.86,2.86,0,0,1,3-2,6.65,6.65,0,0,1,1.79.17,12.13,12.13,0,0,1,3.69,1.53C661.14,186.59,663.79,190.6,663.09,193.14Z"/>
    <path d="M730.4,797.16q11.36-193.63,22.73-387.38-33.45,185.9-66.88,370.81Q708.32,789,730.4,797.16Z" style="fill: #fc0;fill-rule: evenodd"/>
    <path d="M685.74,780.35l-.12.65q22.64,8.64,45.26,17,11.39-194,22.77-388.06l-1-.37Q719.17,595.45,685.74,780.35Zm44.17,16q-21.51-7.9-43-16.15,32.6-180.36,65.19-361.45Q741,607.61,729.91,796.34Z"/>
    <path d="M806.55,834.08q33.66-187,67.31-375.91C837.14,578,800.42,695.59,763.7,812Q785.12,823.37,806.55,834.08Z" style="fill: #fc0;fill-rule: evenodd"/>
    <path d="M763.2,811.74l-.19.6Q785,824,807,835q33.7-187.32,67.42-376.6l-1-.44C836.64,577.67,799.92,695.29,763.2,811.74Zm43,21.48q-20.89-10.44-41.78-21.48C800.18,698.21,836,583.55,871.76,466.87Q839,651.08,806.16,833.22Z"/>
    <path d="M879.27,878.94C916.13,759,953,636.88,989.85,511.55,939.41,630.39,889,743.25,838.54,852.64Q858.91,866.19,879.27,878.94Z" style="fill: #fc0;fill-rule: evenodd"/>
    <path d="M838.08,852.29l-.27.57q20.88,13.9,41.76,27c36.92-120.14,73.85-242.51,110.77-368.08l-1-.46C939,630.08,888.51,742.91,838.08,852.29ZM879,878.05q-19.85-12.4-39.7-25.62c49.16-106.67,98.32-216.64,147.49-332.24C950.83,642.18,914.9,761.17,879,878.05Z"/>
    <path d="M947.13,930c50.57-115.58,101.13-236.45,151.7-365.16-63.17,122.4-126.34,232.58-189.5,335.49Q928.23,915.65,947.13,930Z" style="fill: #fc0;fill-rule: evenodd"/>
    <path d="M908.9,900l-.33.54q19.14,15.5,38.29,30.07l.47.36c50.66-115.79,101.31-236.9,152-365.88l-.89-.44C1035.24,687,972.07,797.09,908.9,900Zm38,29.16q-18.44-14-36.86-28.91c61.57-100.36,123.15-207.65,184.72-326.46C1045.51,698.8,996.22,816.48,946.94,929.12Z"/>
    <path d="M1008.83,986.4c63.28-111.81,126.57-233.54,189.85-370.14-74.67,130.51-149.34,240.31-224,337.55Q991.75,970.57,1008.83,986.4Z" style="fill: #fc0;fill-rule: evenodd"/>
    <path d="M973.91,953.9q17.3,17,34.58,33l.44.4c63.39-112,126.78-234,190.17-370.89l-.8-.43C1123.5,746.66,1048.71,856.56,973.91,953.9Zm34.83,31.58q-16.65-15.42-33.29-31.75c72.78-94.87,145.56-201.7,218.34-328C1132.11,758.1,1070.42,876.5,1008.74,985.48Z"/>
    <path d="M607.71,760.71q22.29,4.83,44.58,9.71L630,373.8Q618.86,567.26,607.71,760.71Z" style="fill: #fc0;fill-rule: evenodd"/>
    <path d="M629.48,373.65Q618.3,567.43,607.15,761.22q22.85,5,45.71,10-11.18-198.64-22.33-397.31ZM608.27,760.19Q619.13,571.61,630,383.05q10.88,193.31,21.73,386.61Z"/>
    <path d="M529.6,754.83q22.06.57,44.15,1.48Q540.3,557.17,506.87,358.78,518.23,556.74,529.6,754.83Z" style="fill: #fc0;fill-rule: evenodd"/>
    <path d="M506.34,358.73q11.37,198,22.73,396l0,.69q22.36.56,44.71,1.49l.56,0q-33.51-199.5-67-398.24Zm66.78,396.91q-21.52-.85-43-1.44Q519,561.11,507.92,368.13,540.52,561.42,573.12,755.64Z"/>
    <path d="M453.44,765.06q21.44-4.26,42.86-7.87c-36.72-129.62-73.44-258.05-110.16-384.34Q419.8,567.87,453.44,765.06Z" style="fill: #fc0;fill-rule: evenodd"/>
    <path d="M385.63,372.93q33.64,195,67.3,392.18l.12.69q22-4.38,43.94-8.06C460.2,627.88,423.42,499.2,386.63,372.67Zm110,383.71q-20.88,3.55-41.77,7.67Q421,572.19,388.24,381.92C424,505.11,459.82,630.31,495.61,756.64Z"/>
    <path d="M380.72,792.68q20.37-9.34,40.74-17.84C371,653,320.59,534.61,270.15,422.21,307,542.84,343.87,666.65,380.72,792.68Z" style="fill: #fc0;fill-rule: evenodd"/>
    <path d="M269.66,422.46c36.86,120.6,73.71,244.39,110.57,370.4l.19.66Q401,784,421.67,775.45l.51-.22c-50.52-122.09-101-240.71-151.56-353.35Zm151.07,352q-19.86,8.32-39.71,17.41C345.1,669,309.17,548.23,273.25,430.47,322.41,540.27,371.57,655.71,420.73,774.44Z"/>
    <path d="M312.86,838q18.9-14.38,37.81-27.84c-63.17-109-126.33-210.71-189.5-300.21C211.73,612.3,262.3,722.49,312.86,838Z" style="fill: #fc0;fill-rule: evenodd"/>
    <path d="M160.71,510.35C211.27,612.67,261.83,722.83,312.4,838.28c.08.2.17.41.26.61Q331.8,824.31,351,810.7l.47-.34c-63.27-109.24-126.55-211.2-189.83-300.91Zm189.2,299.58q-18.42,13.14-36.85,27.15C263.77,724.49,214.48,616.93,165.2,516.74,226.77,604.49,288.34,703.74,349.91,809.93Z"/>
    <path d="M251.16,900.06q17.09-19,34.16-37.16C210.65,771.7,136,693.06,61.31,635.13,124.6,710.22,187.88,800.19,251.16,900.06Z" style="fill: #fc0;fill-rule: evenodd"/>
    <path d="M60.89,635.71c63.28,75,126.57,164.94,189.85,264.77l.33.52q17.51-19.53,35-38.08c-74.8-91.44-149.6-170.32-224.4-228.42ZM284.55,862.88q-16.65,17.68-33.29,36.25C189.57,801.76,127.88,713.81,66.2,639.87,139,697.22,211.77,774.07,284.55,862.88Z"/>
    <path d="M0,808.66c53.35,32.68,106.7,77.06,160.05,130.19a554,554,0,0,1,60.34-12.29C146.93,867.43,73.46,822.73,0,800.24Z" style="fill: #fc0;fill-rule: evenodd"/>
    <path d="M0,801.05c73.18,22.41,146.36,66.84,219.54,125.63l1.7-.25C147.5,867,73.75,822,0,799.43Z"/>
    <path d="M0,807.74v1.84C53.1,842.11,106.21,886.24,159.31,939l1.47-.39C107.18,885.21,53.59,840.57,0,807.74Z"/>
    <path d="M0,990.68q10.22,3.11,20.42,6.77,21.64-12.78,43.27-23.14a395.34,395.34,0,0,0-63.69-9Z" style="fill: #fc0;fill-rule: evenodd"/>
    <path d="M0,989.87v1.63q9.78,3,19.57,6.45l1.71-1Q10.63,993.12,0,989.87Z"/>
    <path d="M0,966a396.8,396.8,0,0,1,62.64,8.82l2.1-1A396.39,396.39,0,0,0,0,964.52Z"/>
    <path d="M1260,712.13c-73.47,117.4-146.93,212.6-220.4,293.36A556.59,556.59,0,0,0,1100,993.2c53.35-81.16,106.7-171.05,160-272.66Z" style="fill: #fc0;fill-rule: evenodd"/>
    <path d="M1260,719.62c-53.59,102.07-107.19,192.32-160.78,273.77l1.46-.38c53.1-80.87,106.21-170.41,159.32-271.55Z"/>
    <path d="M1260,712.94v-1.63c-73.75,117.86-147.5,213.34-221.25,294.3l1.71-.25C1113.64,924.8,1186.82,829.89,1260,712.94Z"/>
    <path d="M1260,877.14q-31.85,43-63.7,80.6,21.63-10.38,43.27-23.14,10.22-15.74,20.43-32Z" style="fill: #fc0;fill-rule: evenodd"/>
    <path d="M1260,901.76q-10.63,17-21.28,33.34l1.7-1q9.8-15.09,19.58-30.71Z"/>
    <path d="M1260,877.88V876.4q-32.37,43.7-64.75,81.84l2.1-1Q1228.67,920.08,1260,877.88Z"/>
    <path d="M498.17,561.38c-10.69-44.15-34.5-96.38-44-130s-9.32-45-7.3-69.09c-5.86,21.7-7.11,36.36-1.77,71s24.17,83.56,31.38,129.49,3.55,83.67,6.71,123.35,5.49,48.28,11.4,71.67q21.7-1.53,43.41-2.56c-9.38-26.3-12.25-38.9-18.55-74.44S508.85,605.47,498.17,561.38Z" style="fill: #fc0"/>
    <path d="M520,680.69c-2-11.22-3.75-22.73-5.63-34.93-4.11-26.69-8.35-54.29-15.67-84.48-6.14-25.36-16.8-53.94-26.2-79-7.08-18.9-13.76-36.69-17.8-51-9.65-34.29-9.24-45.2-7.27-68.81l.51-6.07L446.38,362c-5.74,21.25-7.25,35.86-1.79,71.27,2.51,16.27,8,35.74,13.84,56.4,6.75,23.93,13.72,48.75,17.55,73.07,4.41,28.09,4.74,53.19,5.07,77.47.2,15.66.4,30.45,1.62,45.83,3.09,38.84,5.41,48,11,70.19.19.72.37,1.45.55,2.18q22.26-1.57,44.52-2.62c-.09-.27-.19-.53-.28-.79C529.11,728.73,526.28,716.28,520,680.69Zm-25,76.37-.27-1c-5.58-22.09-7.9-31.21-11-69.92-1.22-15.32-1.42-30.09-1.62-45.72-.33-24.33-.66-49.5-5.09-77.7-3.84-24.43-10.83-49.3-17.59-73.28-5.81-20.62-11.3-40-13.8-56.21-4.9-31.77-4.14-46.65.24-64.75-1.48,20.71-.65,33,7.83,63.06,4.05,14.4,10.75,32.21,17.83,51.14,9.39,25.05,20,53.58,26.15,78.83,7.3,30.12,11.54,57.69,15.64,84.34,1.88,12.2,3.65,23.73,5.64,35,6.26,35.33,9.11,47.93,18.3,73.79Q516.1,755.61,495,757.06Z"/>
    <path d="M400.87,577.94c-15.41-41.68-44.5-87.53-57.59-118.24s-14.21-42-15-66.56c-3.22,23.27-2.76,38.14,6.39,71S367.74,540.59,380,584.73s13,82.82,20.62,121.81,10.85,47.11,19.26,69.24q20.86-6.46,41.75-12.2c-12.09-24.48-16.31-36.53-26.47-70.85S416.27,619.51,400.87,577.94Z" style="fill: #fc0"/>
    <path d="M435.65,692.57c-3.21-10.83-6.24-22-9.46-33.82-7-25.86-14.3-52.57-24.84-81-8.86-23.9-22.47-49.79-34.47-72.33-9-17-17.57-32.85-23.14-46-13.32-31.38-14.17-42.26-14.95-66.29q-.09-3.09-.2-6.18l-.84,6.08c-3.15,22.78-3,37.67,6.41,71.29,4.31,15.44,11.89,33.25,19.92,52.26,9.3,22,18.92,45,25.41,68.32,7.5,26.94,10.7,52,13.79,76.23,2,15.63,3.87,30.39,6.82,45.51,7.43,38.2,10.74,46.85,18.72,67.84l.78,2.06q21.09-6.54,42.19-12.33l.63-.17-.36-.74C450,738.84,445.82,726.94,435.65,692.57ZM420.14,775l-.38-1c-7.94-20.9-11.23-29.53-18.64-67.59-2.94-15.07-4.82-29.81-6.81-45.42-3.09-24.28-6.3-49.41-13.82-76.47C374,561.11,364.33,538.1,355,516c-8-19-15.57-36.75-19.85-52.11-8.41-30.16-9.37-45.1-7.18-64.36.93,21,3.15,32.9,14.83,60.41C348.41,473.16,357,489,366,506c12,22.49,25.57,48.33,34.39,72.12,10.53,28.39,17.79,55.06,24.81,80.88,3.22,11.82,6.25,23,9.46,33.85,10.1,34.12,14.3,46.17,26.15,70.23Q440.47,768.75,420.14,775Z"/>
    <path d="M308,620.08c-19.82-37.05-53.64-73.31-70.08-99-16.43-25.84-18.83-36.25-22.42-59.88-.52,23.75,1.63,38,14.43,67s41.34,64.35,58.39,104.47,22.23,78.19,34.13,114.85,16,44,26.74,63.94q19.63-11.57,39.28-22.21c-14.55-21.62-20-32.63-33.86-64.31S327.86,656.92,308,620.08Z" style="fill: #fc0"/>
    <path d="M355.11,724.68c-4.37-10-8.6-20.33-13.08-31.24-9.82-23.9-20-48.49-33.55-73.71-11.4-21.19-27.69-42.79-42.07-61.26-10.81-13.93-21-26.76-28-37.78-16.72-26.31-18.82-36.52-22.33-59.65q-.47-3-.91-5.94c0,2.07-.09,4.13-.14,6.2-.51,23.25,1.39,37.57,14.49,67.27,6,13.66,15.53,28.63,25.61,44.8,11.67,18.71,23.74,38.46,32.78,59.63,10.44,24.43,16.43,48.35,22.23,71.48,3.74,14.94,7.27,29.06,11.88,43.28,11.64,36,15.86,43.76,26.05,62.67l1,1.87q20.15-11.85,40.28-22.76l-.43-.65C374.37,767.29,369,756.4,355.11,724.68Zm-5.7,86-.48-.89c-10.15-18.84-14.35-26.61-25.95-62.45-4.6-14.19-8.12-28.29-11.86-43.2-5.81-23.2-11.81-47.18-22.29-71.73-9.08-21.27-21.18-41.07-32.87-59.83-10.05-16.14-19.54-31.09-25.52-44.68-11.75-26.66-14.42-40.8-14.45-60.3,3.31,20.14,6.88,30.89,21.55,54,7,11.07,17.25,23.91,28.09,37.85,14.35,18.42,30.62,40,42,61,13.54,25.15,23.68,49.7,33.49,73.55,4.49,10.92,8.72,21.27,13.09,31.26,13.75,31.49,19.22,42.51,33.5,63.76Q368.54,799.43,349.41,810.65Z"/>
    <path d="M279.49,777.93c-17.22-27.34-34.17-59.48-58-89.31-23.86-30.15-61.74-53.8-81.2-72.27-19.45-18.73-23.08-27.58-29.4-48.64,2.19,22.74,6,35.29,22.19,58.31,16.18,22.81,48.79,47.21,70.31,80.92,21.53,33.55,31,69.38,47,101.94,16,32.77,20.84,38.83,33.71,55.7q18-16.44,36-31.93C303.36,814.9,296.72,805.42,279.49,777.93Z" style="fill: #fc0"/>
    <path d="M279.91,777.53c-5.43-8.65-10.78-17.66-16.45-27.12-12.42-20.7-25.26-41.85-41.59-62.26C208.15,671,189.49,655.23,173,642.3c-12.39-9.78-24.09-18.49-32.37-26.51-19.8-19.07-23.1-27.84-29.28-48.46l-1.59-5.28.57,5.93c2.14,22.27,5.71,35,22.28,58.54,7.61,10.85,18.87,21.8,30.8,33.93,13.82,14,28.1,29.21,39.51,46.93,13.18,20.46,21.85,42,30.24,62.9,5.42,13.5,10.53,26.31,16.71,39,15.62,32,20.68,38.64,32.88,54.61l1.21,1.58q18.21-16.6,36.43-32.26l.54-.46-.5-.54C303.73,814.44,297.16,805.06,279.91,777.53Zm4.22,86.19c-.19-.25-.38-.51-.58-.76-12.15-15.92-17.18-22.49-32.74-54.43-6.17-12.63-11.27-25.42-16.67-38.9-8.41-21-17.11-42.57-30.34-63.13-11.45-17.82-25.77-33-39.61-47.13-11.9-12.12-23.14-23.06-30.7-33.85-14.86-21.16-19.18-33.46-21.44-52,5.64,17.85,10.48,26.62,27.84,43.35,8.32,8.05,20,16.75,32.45,26.54,16.44,12.89,35.07,28.58,48.73,45.66,16.31,20.35,29.13,41.45,41.53,62.11,5.67,9.46,11,18.47,16.47,27.12,17.13,27.32,23.76,36.81,40.18,54.26Q301.7,847.72,284.13,863.72Z"/>
    <path d="M211.16,850.57c-20.29-21.66-40.89-47.69-68.31-68.46-27.42-21.2-68.63-29.85-90.73-39.33C30,733,25.23,726.47,16.31,709.69c4.85,20.07,10.25,29.91,29.51,44.92,19.26,14.76,55.3,25.8,80.87,50.91,25.58,24.91,39.19,56.52,58.91,83.35,16,21.94,22.66,29.27,32.45,38q7.15-1.1,14.32-2,12.67-16.26,25.35-32C239.13,880,231.45,872.45,211.16,850.57Z" style="fill: #fc0"/>
    <path d="M258,892.38c-18.58-13-26.16-20.4-46.47-42.32-6.41-6.87-12.78-14.06-19.52-21.54-14.77-16.36-30.05-32.79-48.83-47-15.76-12-36.43-20.54-54.67-26.73-13.72-4.73-26.68-8.43-36.08-12.67-22.49-10-26.93-16.56-35.66-33l-2.25-4.18c.43,1.74.85,3.47,1.27,5.21,4.75,19.66,9.92,29.76,29.63,45.1,9.06,7.1,21.86,13,35.4,20.11,15.7,8.16,31.92,17.61,45.48,30.73C142,821.23,153.15,839.17,164,856.72c7,11.34,13.57,22.18,21.22,32.62C200.94,911,207.7,918.44,217.25,927l1.61-.24c-10-8.93-16.66-16.17-32.84-38.4-7.62-10.42-14.2-21.25-21.17-32.59C154,838.19,142.79,820.19,127.08,805c-13.62-13.19-29.87-22.69-45.6-30.89C68,767,55.2,761,46.2,754c-17.68-13.81-23.56-23.26-28-39.4,7.84,14.12,13.86,20.12,33.59,28.88,9.44,4.25,22.42,7.94,36.17,12.66,18.21,6.16,38.84,14.7,54.55,26.59,18.73,14.14,34,30.52,48.74,46.84,6.75,7.48,13.12,14.67,19.54,21.54,20.17,21.74,27.83,29.26,46.09,42Q244.24,908.81,231.61,925l1.52-.19q12.72-16.3,25.44-32.06Z"/>
    <path d="M598,567.59c-5.76-44.82-23.82-100.5-29.53-135.26s-4.23-45.65.55-68.47c-8.38,19.58-11.31,33.46-9.9,68.16S574,518.35,576,564.25s-6,81.6-7.34,120.63,0,47.81,3.33,71.62q22.11,3,44.21,6.17c-6.49-27.2-7.95-39.93-10.26-75.49S603.79,612.39,598,567.59Z" style="fill: #fc0"/>
    <path d="M606.44,687.24c-.73-11.23-1.2-22.71-1.7-34.86-1.11-26.6-2.25-54.1-6.19-84.78-3.31-25.76-10.81-55.63-17.43-82-5-19.82-9.68-38.53-12.1-53.32-5.81-35.38-4.14-45.85.54-68.19.4-1.91.8-3.83,1.21-5.74l-2.19,5.11c-8.21,19.17-11.4,32.93-10,68.46.66,16.32,4,36.42,7.48,57.72,4.07,24.66,8.27,50.17,9.35,74.51,1.24,28.09-1.29,52.41-3.74,75.93-1.58,15.17-3.08,29.51-3.6,44.63-1.33,38.18,0,47.53,3.1,70.13l.31,2.21q22.35,3,44.69,6.24l.66.09-.19-.82C610.2,735.42,608.75,722.84,606.44,687.24Zm-34,68.68c0-.35-.09-.7-.14-1.06-3.12-22.49-4.41-31.8-3.09-69.85.52-15.06,2-29.37,3.59-44.52,2.45-23.58,5-48,3.75-76.16-1.09-24.43-5.3-50-9.37-74.71-3.5-21.24-6.8-41.3-7.47-57.52-1.29-31.86,1.17-46.06,7.65-62.52-3.86,19.66-4.42,31.75.67,62.78,2.44,14.85,7.15,33.59,12.13,53.45,6.61,26.29,14.09,56.11,17.39,81.77,3.94,30.61,5.08,58.08,6.18,84.64.5,12.16,1,23.65,1.71,34.89,2.29,35.36,3.74,48.08,10.09,74.82Q594,758.87,572.4,755.92Z"/>
    <path d="M1076.79,954.17c19.87-29.79,44-62.49,66.71-105s42.32-102.15,59-138c16.68-36,24.5-46.43,42.24-68.61-18.63,17.8-29.43,30.73-49.5,64.78-20.07,33.84-40.93,87.32-67.34,128.13s-54.6,65.12-79.51,94.2c-24.91,28.92-29.18,36-41.09,55.67q10.05,11.1,20.12,21.84,9.3-1.17,18.59-2.64C1053.92,988.77,1061.35,977.33,1076.79,954.17Z" style="fill: #fc0"/>
    <path d="M1097.08,925.2c15.37-22.58,31.25-46.68,46.83-75.77C1157,825,1169.23,794.36,1180,766.94c8.12-20.64,15.8-40.36,22.89-55.63,17-36.7,24.7-46.64,42.07-68.37,1.49-1.87,3-3.76,4.47-5.65-1.62,1.58-3.24,3.16-4.87,4.72-18.24,17.42-29.18,30.19-49.73,65-9.43,15.92-19.07,36.19-29.28,57.27-11.82,24.4-24,49.2-38,70.8-16.16,24.94-33,43.8-49.36,61.24-10.52,11.25-20.47,21.56-30.12,32.85-24.38,28.3-29,35.72-40.35,54.42l-1.1,1.81q10,11.09,20.07,21.81l1.5-.19q-10.08-10.75-20.17-21.86l.53-.85c11.25-18.64,15.9-26,40.19-54.26,9.62-11.26,19.55-21.57,30.06-32.82,16.35-17.49,33.27-36.42,49.49-61.48,14.06-21.72,26.31-46.59,38.16-71.06,10.18-21.05,19.8-41.29,29.18-57.13,18.42-31.24,29.05-44.69,44.27-59.64-15.09,19-22.92,30.9-37.81,63-7.12,15.32-14.81,35.07-23,55.72-10.78,27.36-23,57.93-36,82.23-15.55,29-31.41,53-46.76,75.57-7,10.31-13.65,19.89-19.93,29.32-15.64,23.44-23.05,34.84-31,50.8l1.26-.2c7.8-15.51,15.2-26.88,30.54-49.88C1083.45,945.1,1090.07,935.51,1097.08,925.2Z"/>
    <polygon points="981.11 960.25 981.11 960.25 981.11 960.25 981.11 960.25" style="fill: #fc0"/>
    <path d="M1105.64,652.16c-17.1,32.1-32.63,83.61-55.09,123.85s-48.35,65.25-70.15,95.31-25.23,37.38-34.92,57.75q17.82,16,35.63,31.18c8.65-25.33,14.09-36.2,30.84-66.45s37.62-63.19,56.22-104.83,32.14-99,45.5-133,20.4-43.8,36.64-64.23C1132.63,608,1122.73,619.89,1105.64,652.16Z" style="fill: #fc0"/>
    <path d="M1105.22,651.89c-8,15.11-15.76,34.51-23.93,54.84-9.47,23.55-19.25,47.67-31.16,69-13.74,24.58-28.82,43.58-43.39,61.4-9.4,11.49-18.28,22.14-26.73,33.81-21.33,29.32-25.13,37.11-34.31,56.43-.3.64-.61,1.27-.91,1.9q18.27,16.47,36.55,32c.08-.25.17-.5.26-.76,8.63-25.3,14-36,30.78-66.35,5.29-9.58,10.93-19.3,16.91-29.69,13.08-22.74,26.6-46.73,39.33-75.22,10.69-23.93,19.88-53.6,28-80,6.09-19.82,11.85-38.65,17.53-53.14,13.6-34.78,20.59-44,36.49-64l4.1-5.2-4.62,4.3C1132.78,607.11,1122.72,618.87,1105.22,651.89Zm8,3.89c-5.71,14.55-11.48,33.4-17.58,53.25-8.09,26.28-17.26,55.89-27.91,79.7-12.7,28.41-26.21,52.35-39.27,75-6,10.39-11.63,20.12-16.93,29.71-16.66,30.07-22.11,40.93-30.63,65.79q-17.35-14.73-34.72-30.36l.44-.92c9.14-19.25,12.92-27,34.17-56.25,8.42-11.64,17.29-22.27,26.67-33.76,14.61-17.87,29.72-36.94,43.52-61.64,12-21.4,21.76-45.59,31.24-69.2,8.16-20.3,15.86-39.66,23.85-54.7,15.69-29.61,25.34-42.06,39.72-55.75C1132,614.24,1125.13,625.32,1113.21,655.78Z"/>
    <path d="M1006.78,597.33c-13.79,31.3-23.7,82-41.77,122.42s-41.16,66.57-59.43,98S884.79,857,877.52,878.12q19.47,14.49,39,28.12c5.72-25.86,9.89-37.12,23.2-68.18s30.56-64.58,44.64-106,21.34-97.75,31.11-130.89,15.9-42.45,30.33-61.8C1029.36,554.53,1020.57,565.91,1006.78,597.33Z" style="fill: #fc0"/>
    <path d="M1006.32,597.06c-6.48,14.73-12.13,33.76-18.1,53.82-6.93,23.24-14.09,47.18-23.67,68.57-11.06,24.69-24,44.17-36.59,62.66-8.09,11.93-15.74,23.07-22.81,35.27-17.87,30.73-20.73,38.92-27.62,59l-.68,2q20,14.88,39.95,28.85l.17-.77c5.72-25.84,9.84-37,23.16-68.07,4.21-9.82,8.75-19.77,13.57-30.35,10.54-23.17,21.45-47.39,31.09-75.78,8.1-23.83,14.05-53.09,19.29-79,3.95-19.46,7.68-37.88,11.84-52,9.95-33.82,16.07-42.63,30.2-61.57l3.63-4.9-4.28,4C1029.42,553.72,1020.43,564.92,1006.32,597.06Zm8.61,3.89c-4.18,14.17-7.91,32.61-11.87,52.1-5.23,25.81-11.17,55-19.23,78.74-9.63,28.31-20.52,52.48-31.05,75.61C948,818,943.41,827.93,939.2,837.76c-13.23,30.87-17.41,42.12-23.07,67.52q-19-13.28-38-27.4c.11-.31.22-.62.32-.94,6.87-20,9.71-28.15,27.51-58.79,7.06-12.17,14.69-23.3,22.77-35.22,12.57-18.54,25.58-38.08,36.68-62.88,9.63-21.49,16.8-45.5,23.74-68.79,6-20,11.59-39,18-53.66,12.65-28.83,21.14-40.72,34.4-53.6C1029.45,560.66,1023.66,571.31,1014.93,601Z"/>
    <path d="M900.59,543.52C890.38,575,886.29,626,873,667.37S839.79,736.71,825.41,770s-15.95,41.41-20.67,63.47Q825.5,846,846.25,857.87h0c2.69-26.47,5.5-38.19,15.11-70.37s22.9-66.83,32.2-108.87,10.12-98.31,16.12-131.5,11.09-42.46,23.42-61.61C918.32,500.56,910.8,512,900.59,543.52Z" style="fill: #fc0"/>
    <path d="M900.1,543.26c-4.8,14.83-8.26,34-11.93,54.22-4.25,23.46-8.64,47.69-15.71,69.62-8.17,25.3-18.79,45.67-29.07,65.19-6.62,12.6-12.88,24.43-18.45,37.33-14.07,32.55-15.92,41.15-20.39,62.09-.14.68-.29,1.36-.43,2q21.28,12.9,42.57,25c0-.26,0-.53.08-.79,2.69-26.45,5.47-38,15.09-70.25,3-10.16,6.4-20.46,10-31.39,7.81-23.91,15.88-48.76,22.24-77.54,5.34-24.17,7.94-53.56,10.23-79.48,1.72-19.51,3.35-37.94,5.9-52.06,6.12-33.81,11.26-42.62,23.33-61.37,1-1.61,2.07-3.22,3.1-4.84q-1.92,2-3.86,3.95C918.29,499.75,910.55,511,900.1,543.26Zm9.07,3.71c-2.57,14.18-4.2,32.65-5.92,52.19-2.29,25.87-4.88,55.21-10.2,79.27-6.35,28.71-14.41,53.52-22.21,77.4-3.56,10.92-6.93,21.23-10,31.41-9.56,32-12.39,43.69-15.06,69.7q-20.22-11.55-40.44-23.8c.07-.32.13-.65.2-1,4.45-20.84,6.29-29.41,20.31-61.86,5.55-12.86,11.8-24.67,18.41-37.25,10.3-19.58,21-40,29.15-65.42,7.1-22,11.5-46.31,15.76-69.81,3.65-20.21,7.11-39.31,11.88-54.05,9.37-29,16.54-40.86,28.41-53.63C919.13,506.68,914.53,517.33,909.17,547Z"/>
    <path d="M814.55,433.82c-12.88,15.82-19,27.75-25.42,60.27s-4.63,84.23-13,127.19S751.63,694.59,741.43,730s-10.8,43.86-12.87,66.79q21.63,10.08,43.26,19.69h0c-.4-27,1-39.21,6.73-72.71s14.78-69.7,19.11-112.84-1.29-99.88.83-133.73S804.56,453.66,814.55,433.82Z" style="fill: #fc0"/>
    <path d="M788.62,493.87c-3,15.28-4.24,34.85-5.53,55.57-1.48,24-3,48.84-7.45,71.61-5.1,26.29-13.17,47.92-21,68.77-5,13.44-9.79,26.12-13.74,39.83-10,34.61-10.79,43.59-12.75,65.35-.07.71-.13,1.42-.19,2.13q22.18,10.33,44.36,20.19c0-.27,0-.54,0-.81-.4-27,1-39,6.72-72.58,1.81-10.58,3.93-21.31,6.17-32.68,4.91-24.9,10-50.67,12.95-80.21,2.49-24.8,1.69-54.6,1-80.9-.53-19.78-1-38.47-.14-52.86,2.16-34.46,6.21-43.65,16-63.08q1.25-2.51,2.51-5l-3.36,4.14C801.54,448.83,795.2,460.58,788.62,493.87ZM798,497c-.91,14.46-.4,33.18.14,53,.71,26.25,1.51,56-1,80.7-2.95,29.47-8,55.21-12.93,80.07-2.25,11.38-4.37,22.12-6.18,32.71-5.69,33.3-7.11,45.46-6.75,72q-21.07-9.35-42.15-19.18l.09-1c1.95-21.66,2.76-30.61,12.71-65.09,3.94-13.67,8.68-26.33,13.7-39.76,7.82-20.9,15.91-42.58,21-69,4.44-22.87,6-47.75,7.47-71.81,1.28-20.67,2.49-40.2,5.5-55.39,5.91-29.85,11.6-42.25,21.87-55.68C803.16,455.79,799.86,466.8,798,497Z"/>
    <path d="M698.52,592.35c-.73-44.25-12.68-101.14-14.5-135.74s.93-44.84,8.39-66.06c-10.74,17.45-15.3,30.31-17.84,64.09s5.14,86,1.95,130.72-15.4,77.74-21.24,115.16-5.44,46.17-4.82,69.76q22.1,6.88,44.17,13.63c-3.48-27.37-3.51-39.92-1.78-74.67S699.24,636.62,698.52,592.35Z" style="fill: #fc0"/>
    <path d="M690.73,510.28c-2.78-20-5.41-38.89-6.19-53.6-1.84-35.21,1.05-45,8.36-65.79q.93-2.67,1.88-5.35L692,390.11c-10.51,17.09-15.32,29.79-17.92,64.36-1.19,15.88-.13,35.9,1,57.09,1.3,24.55,2.65,49.93,1,73.63-2,27.35-7.3,50.39-12.48,72.67-3.34,14.37-6.49,27.93-8.75,42.44-5.71,36.61-5.47,45.87-4.88,68.25l.06,2.21q22.65,7.07,45.3,14c0-.28-.07-.55-.1-.82-3.48-27.34-3.51-39.74-1.78-74.53.55-11,1.37-22.14,2.25-34,1.93-25.89,3.92-52.66,3.42-83C698.62,567,694.43,536.87,690.73,510.28Zm3.85,164.81c-.88,11.83-1.71,23-2.26,34-1.71,34.56-1.7,47.1,1.69,74q-21.53-6.54-43-13.28l0-1.07c-.59-22.28-.83-31.49,4.86-68,2.25-14.45,5.4-28,8.73-42.34,5.19-22.33,10.56-45.43,12.51-72.89,1.7-23.79.35-49.22-.95-73.82-1.12-21.14-2.18-41.11-1-56.89,2.32-31,6.44-44.27,14.9-59-6.16,18.31-8.12,29.88-6.5,60.76.77,14.78,3.41,33.71,6.19,53.74,3.7,26.55,7.89,56.63,8.3,82C698.48,622.5,696.5,649.24,694.58,675.09Z"/>
    <path d="M151,940.29C128,925.46,104.17,907,73.72,896.85c-21.78-7.35-50.32-6.2-73.72-4v18.59c19.37,1.34,41.49,3.74,59.81,12.82,16.92,8.36,29.9,20.75,42.35,33.33q25-9.69,49.92-16.62Z" style="fill: #fc0"/>
    <path d="M129.12,924.93c-16.84-11.09-34.26-21.8-55.12-28.74-17.51-5.88-39.78-6.43-59.43-5.13-5,.31-9.87.71-14.57,1.12v1.4c4.57-.4,9.3-.79,14.14-1.09,19.62-1.33,41.85-.8,59.29,5,20.81,6.9,38.21,17.56,55,28.62,7.69,5.07,15,10,22.21,14.75l.56.35,1.73-.48-1.65-1.07C144.06,935,136.8,930,129.12,924.93Z"/>
    <path d="M60.14,923.63C44.63,916,26.75,913,9.46,911.49q-4.82-.43-9.46-.76v1.48c2.93.21,5.9.45,8.93.71,17.26,1.5,35.11,4.42,50.55,12,16.75,8.26,29.66,20.52,42,32.95.46-.19.93-.37,1.39-.54C90.32,944.66,77.23,932.09,60.14,923.63Z"/>
    <path d="M1195.57,899c-29,40.53-58,64.07-84.85,91.26A534.25,534.25,0,0,0,1172,968.69c12-16.38,24.49-34.39,36.84-54.8,18.09-29.87,35.6-68.72,51.16-102.65V788.32C1240.81,822.64,1219.5,865.5,1195.57,899Z" style="fill: #fc0"/>
    <path d="M1251.93,827.8c-13.26,28.88-28.3,60.81-43.45,85.81-12.58,20.76-25.07,38.81-37.34,55.44l1.72-.73c12-16.27,24.1-33.91,36.34-54.14,15.21-25.13,30.27-57.15,43.56-86.1,2.45-5.34,4.86-10.63,7.24-15.81v-2C1257.36,816,1254.67,821.85,1251.93,827.8Z"/>
    <path d="M1141.36,961.18c17.79-17.24,36.19-36.16,54.52-61.83,15.89-22.24,30.34-48.1,44.31-73.83,6.83-12.56,13.43-24.88,19.81-36.31v-1.75c-6.61,11.8-13.47,24.58-20.56,37.62-14,25.64-28.37,51.42-44.19,73.55-18.26,25.54-36.62,44.39-54.37,61.57-10.81,10.48-21.06,20.06-31.16,30.33l2.07-.59C1121.36,980.27,1131.1,971.12,1141.36,961.18Z"/>
    <path d="M630,734.88c-85.57-18.84-166.88-13.5-240.22,20-73.35,33-138.73,94.14-192.47,175.57,288.46-54.66,576.92,125.83,865.38,71.17C1009,941,943.57,886.53,870.23,839.48,796.88,792.92,715.58,753.73,630,734.88Z" style="fill: #fc0;fill-rule: evenodd"/>
    <path d="M859.06,831.77C786.5,787,709.44,751.67,630,734.25s-156.5-14.87-229,15c-70.08,28.65-133,81.77-187.08,156.27q-8.87,12.2-17.28,25l1.43-.28q8.11-12.22,16.6-23.94c53.95-74.3,116.78-127.27,186.73-155.84,72.43-29.84,149.36-32.39,228.65-15s156.22,52.66,228.65,97.39c70,43.45,132.78,93.59,186.74,150.62,5.67,6,11.18,12.09,16.59,18.21l1.44-.27c-5.64-6.38-11.38-12.71-17.29-19C992.08,925.45,929.14,875.28,859.06,831.77Z"/>
  </g>
</svg>
