<?xml version="1.0" encoding="utf-8"?>
<!-- Generator: Adobe Illustrator 24.2.0, SVG Export Plug-In . SVG Version: 6.00 Build 0)  -->
<svg version="1.1" id="Layer_1" xmlns="http://www.w3.org/2000/svg" xmlns:xlink="http://www.w3.org/1999/xlink" x="0px" y="0px"
	 viewBox="0 0 1260 1260" style="enable-background:new 0 0 1260 1260;" xml:space="preserve">
<style type="text/css">
	.st0{fill-rule:evenodd;clip-rule:evenodd;fill:#FFFFFF;}
	.st1{fill-rule:evenodd;clip-rule:evenodd;fill:#00247D;}
	.st2{fill:#FFFFFF;}
	.st3{fill:#CF142B;}
	.st4{fill-rule:evenodd;clip-rule:evenodd;fill:#CF142B;}
	.st5{fill-rule:evenodd;clip-rule:evenodd;fill:#FFCC00;}
	.st6{fill:#FFCC00;}
</style>
<g>
	<path class="st0" d="M1197,960.3v-736C819,441.3,441,77.7,63,294.7v736C441,813.7,819,1177.3,1197,960.3z"/>
	<path class="st1" d="M1197,469.6V224.3C819,441.3,441,77.7,63,294.7v245.3C441,323,819,686.7,1197,469.6z"/>
	<path class="st1" d="M1058.6,889.7c-35.3,24.8-64.4,29-99.7,15c-51.6-20.6-101.3-23.4-152.8-5.6c-34.7,11.9-65,6.9-99.7-15.3
		c-51.6-33.2-101.3-43.6-152.8-29c-34.7,9.9-65,4.9-99.7-15.3c-52.4-30.4-100.5-33.2-152.8-5.6c-35.3,18.8-64.4,22.9-99.7,15
		c-46.7-10.2-91.9,5.3-138.4,49.5v79.1c4.1-4.1,8.1-8.2,12.1-12.2c34.6-34.7,65-47.1,99.7-41.6c52.4,8.7,100.5,2.3,152.8-23.5
		c35.3-17.1,64.4-15.7,99.7,3.9c51.6,28.9,101.3,37.3,152.8,23.1c34.6-9.5,65-3.4,99.7,19.1c51.6,33.6,101.3,42,152.8,23.1
		c34.6-12.8,65-11.4,99.7,3.9c52.4,22.8,100.5,16.4,152.8-23.5c34.6-26.6,65-39.1,99.7-41.6c4-0.3,8-0.7,12.1-1.3V828l0,0
		C1150.6,837.1,1105.4,856.6,1058.6,889.7z"/>
	<path class="st1" d="M1058.6,590.8c-35.3,24.8-64.4,29-99.7,15.1c-51.6-20.7-101.2-23.4-152.8-5.7c-34.7,11.9-65,6.9-99.7-15.3
		c-51.6-33.2-101.3-43.5-152.8-28.9c-34.7,9.9-65,4.9-99.7-15.3c-52.4-30.4-100.5-33.2-152.8-5.6c-35.3,18.8-64.4,22.9-99.7,15
		c-46.7-10.2-91.9,5.3-138.4,49.5v79.1c4.1-4.1,8.1-8.2,12.1-12.2c34.6-34.7,65-47.1,99.7-41.6c52.4,8.7,100.5,2.3,152.8-23.5
		c35.3-17.1,64.4-15.7,99.7,3.9c51.6,28.9,101.3,37.3,152.8,23.1c34.6-9.5,65-3.4,99.7,19.1c51.6,33.6,101.3,42,152.8,23.1
		c34.6-12.8,65-11.4,99.7,3.9c52.4,22.8,100.5,16.4,152.8-23.5c34.6-26.6,65-39.1,99.7-41.6c4-0.3,8-0.7,12.1-1.3v-79.2l0,0
		C1150.6,538.1,1105.4,557.6,1058.6,590.8z"/>
	<path class="st1" d="M1058.6,740.1c-35.3,24.8-64.4,28.9-99.7,15c-51.6-20.6-101.3-23.4-152.8-5.6c-34.7,11.9-65,6.9-99.7-15.3
		c-51.6-33.2-101.3-43.6-152.8-29c-34.7,9.9-65,4.9-99.7-15.3c-52.4-30.4-100.5-33.2-152.8-5.6c-35.3,18.8-64.4,22.9-99.7,15
		c-46.7-10.2-91.9,5.3-138.4,49.5V828c4.1-4.1,8.1-8.2,12.1-12.2c34.6-34.7,65-47.1,99.7-41.6c52.4,8.7,100.5,2.2,152.8-23.5
		c35.3-17.1,64.4-15.7,99.7,3.9c51.6,28.9,101.3,37.3,152.8,23.1c34.6-9.5,65-3.4,99.7,19.1c51.6,33.6,101.3,42,152.8,23.1
		c34.6-12.8,65-11.4,99.7,3.9c52.4,22.8,100.5,16.4,152.8-23.5c34.6-26.6,65-39.1,99.7-41.6c4-0.3,8-0.7,12.1-1.3v-79.1l0,0
		C1150.6,687.4,1105.4,707,1058.6,740.1z"/>
	<path class="st2" d="M63,540.1c51.4-29.5,102.8-48.3,154.2-59.2c326.6-140.3,653.2,35,979.8-223.2v-33.3
		c-51.4,29.5-102.8,48.3-154.2,59.2C716.2,423.8,389.6,248.5,63,506.7V540.1z"/>
	<path class="st0" d="M679.1,514.2V268.9c-32.8-6.2-65.5-12.7-98.3-18.9v245.3C613.6,501.5,646.4,508.1,679.1,514.2z"/>
	<path class="st2" d="M1042.8,528.8c51.4-11,102.8-29.7,154.2-59.2v-33.3C870.4,553.1,543.8,236.5,217.2,235.5
		c-51.4,11-102.8,29.8-154.2,59.3v33.4C389.6,211.2,716.2,527.8,1042.8,528.8z"/>
	<path class="st3" d="M645.8,381.8c183.7-4.2,367.5-12.3,551.2-157.5c-33.5,19.4-69.5,35.2-107.2,47c-148,78.1-296,83.9-444,87.4
		V381.8z"/>
	<path class="st3" d="M1197,469.6v-23.2c-153.3,54.8-306.5,14.2-459.8-44.4c-30.5-5.1-61-10.9-91.5-16.8v3.4
		C829.5,463.9,1013.2,535.3,1197,469.6z"/>
	<path class="st3" d="M630,382.1c-189-77.5-378-155.1-567-87.4v23.2c153.3-54.8,306.5-14.2,459.8,44.4
		C558.5,368.3,594.3,375.2,630,382.1z"/>
	<path class="st3" d="M645.8,405v-16.4l-15.8-6.5l15.7,3v-3.4c-194.2,4.5-388.5,4.7-582.7,158.3c33.5-19.4,69.5-35.2,107.2-47
		C328.7,409.5,487.2,408.6,645.8,405z"/>
	<path class="st3" d="M645.8,388.6v-3.4l-15.8-3L645.8,388.6z"/>
	<path class="st0" d="M63,458.3c378-217,756,146.6,1134-70.5V306C819,523.1,441,159.5,63,376.5V458.3z"/>
	<path class="st4" d="M660.2,510.7V265.3c-20.2-3.9-40.3-7.8-60.5-11.7V499C619.9,502.8,640.1,506.8,660.2,510.7z"/>
	<path class="st4" d="M63,444c378-217,756,146.6,1134-70.5v-53.2C819,537.4,441,173.8,63,390.8V444z"/>
	<path class="st5" d="M661.4,332.1c-6.3,7.4-12.5,14.7-18.8,22c-4.2-12.6-8.4-25.1-12.6-37.7c-4.2,11-8.4,21.9-12.6,32.8L598.6,320
		c-1.1,10.8-2.3,21.7-3.4,32.5c-5.4-4.9-10.8-9.9-16.2-14.8c3.7,15.8,7.4,31.7,11.1,47.5c26.6,5.1,53.2,10.3,79.7,15.4l11.2-43.3
		c-5.4,2.9-10.8,5.8-16.2,8.6L661.4,332.1z"/>
	<path d="M661.7,330.9l-19,22.3c-4.2-12.7-8.5-25.4-12.7-38.2l-12.7,33.3c-6.3-9.9-12.7-19.7-19-29.6c-1.1,11-2.3,21.9-3.4,32.9
		c-5.5-5.1-11.1-10.1-16.6-15.1l11.6,49.3c26.8,5.1,53.6,10.4,80.5,15.5c3.9-15,7.7-29.9,11.6-44.9c-5.5,3-11.1,5.9-16.6,8.9
		C664,353.7,662.9,342.3,661.7,330.9z M669.5,400c-26.3-5-52.7-10.2-79-15.2l-10.7-45.8c5.3,4.8,10.6,9.6,15.8,14.4
		c1.1-10.7,2.2-21.4,3.3-32.1c6.2,9.7,12.4,19.3,18.6,29c4.1-10.8,8.3-21.7,12.4-32.5l12.4,37.3c6.2-7.3,12.4-14.5,18.6-21.8
		c1.1,11.1,2.2,22.3,3.3,33.4c5.3-2.8,10.6-5.6,15.8-8.4C676.7,372.2,673.1,386.1,669.5,400z"/>
	<path class="st5" d="M590.1,385.2c10.8,10.1,24.6,17.1,39.9,20.2c15.3,3,29.3,0.9,39.9-4.8c-10.8-10.1-24.6-17.1-39.9-20.2
		C614.7,377.4,600.7,379.5,590.1,385.2z"/>
	<polygon class="st5" points="630,380.4 630,380.4 630,380.4 	"/>
	<path d="M630,379.9c-14.8-2.9-29.1-1.2-40.1,4.9c-0.1,0.1-0.2,0.2-0.2,0.4c0,0.2,0.1,0.3,0.2,0.5c10.8,10.1,24.8,17.2,40.1,20.3
		c14.8,2.9,29.1,1.2,40.1-4.9c0.1-0.1,0.2-0.2,0.2-0.4c0-0.2-0.1-0.3-0.2-0.5C659.3,390.1,645.3,383,630,379.9z M630,404.9
		c-14.8-3-28.4-9.8-39-19.5c10.8-5.7,24.6-7.3,39-4.5c14.9,3,28.4,9.8,39,19.5C658.2,406.1,644.4,407.7,630,404.9z"/>
	<path d="M588.2,377.7c0.2,0.3,0.3,0.6,0.5,1c12.8-5.5,27.4-6.9,41.3-4.1c14.4,2.8,28.7,9.7,41.3,20l0.5-0.8
		c-12.8-10.4-27.3-17.4-41.8-20.2C616,370.7,601.2,372.1,588.2,377.7z"/>
	<path d="M588.9,380.7l0.5,1c12.6-5.7,27-7.3,40.7-4.5c14.1,2.7,28.1,9.6,40.5,20c0.2-0.3,0.3-0.5,0.5-0.8
		c-12.5-10.4-26.7-17.4-40.9-20.2C616.3,373.3,601.7,374.9,588.9,380.7z"/>
	<path d="M583.9,359.3c0.2,0.3,0.3,0.6,0.5,1c13.7-7.2,29.5-9.3,45.6-6.2c16.1,3.1,31.8,11.3,45.6,23.7l0.5-0.8
		c-13.9-12.4-29.8-20.7-46.1-23.9S597.8,352.1,583.9,359.3z"/>
	<path d="M584.6,362.4l0.5,0.9c13.4-7.4,29.6-9.8,45-6.7c15.8,3.1,31.2,11.3,44.7,23.7c0.2-0.3,0.4-0.5,0.5-0.8
		c-13.6-12.6-29.3-20.9-45.3-24C614.6,352.5,598.2,354.9,584.6,362.4z"/>
	<path d="M634,361.9l-8-1.6c-2-0.4-3.7,1.1-3.7,3.2v1c0,2.2,1.6,4.3,3.7,4.7l8,1.5c2,0.4,3.7-1.1,3.7-3.2v-1
		C637.6,364.4,636,362.3,634,361.9z M636.7,367.4c0,1.6-1.2,2.7-2.7,2.4l-8-1.5c-1.7-0.5-2.7-1.9-2.7-3.5v-1c0-1.6,1.2-2.7,2.7-2.4
		l8,1.5c1.7,0.5,2.8,1.9,2.7,3.5V367.4z"/>
	<path d="M610.5,360.9c-1.6-0.6-3.3-0.8-5.1-0.6c-1.7,0.2-3.2,0.9-4.4,2c-1,0.9-1.4,2.2-1.1,3.4c0.5,1.7,2.3,2.9,4.5,3.3
		c1.1,0.2,2.3,0.2,3.4,0.1c3.7-0.6,6.1-3,5.5-5.4C612.9,362.4,611.9,361.4,610.5,360.9z M607.8,368.8c-3.6,0.5-7-0.9-7.6-3.2
		c-0.3-1.2,0.1-2.4,1.1-3.2c1.1-1,2.6-1.7,4.3-1.9c1.1-0.2,2.2-0.2,3.3,0.1c0.6,0.1,1.1,0.3,1.6,0.5c1.3,0.5,2.3,1.4,2.7,2.6
		C613.8,366,611.4,368.3,607.8,368.8z"/>
	<path class="st5" d="M588.9,365.4l-4.3,1.3c-1.2,0.4-1.5,2.4-0.7,4.6s2.5,3.6,3.8,3.2l4.3-1.3c1.2-0.4,1.6-2.4,0.7-4.6
		C591.8,366.5,590.1,365.1,588.9,365.4z"/>
	<path d="M588.7,364.9l-4.3,1.3c-0.8,0.4-1.4,1.1-1.4,2c-0.1,1.1,0,2.2,0.5,3.2c0.4,1,1,2,1.9,2.8c0.4,0.4,1,0.7,1.5,0.8
		c0.3,0.1,0.6,0,0.9,0l4.3-1.3c1.5-0.5,1.9-2.7,0.9-5.2C592,366,590.2,364.5,588.7,364.9z M591.8,372.7l-4.3,1.3
		c-0.6,0.1-1.2-0.1-1.6-0.5c-0.7-0.6-1.2-1.4-1.6-2.3c-0.4-0.8-0.5-1.7-0.4-2.6c0.1-0.7,0.4-1.2,0.9-1.3l4.3-1.4c0.2,0,0.4,0,0.5,0
		c0.9,0.2,2,1.3,2.6,2.8C593,370.6,592.7,372.4,591.8,372.7z"/>
	<path class="st5" d="M675.4,384.3l-4.3-3c-1.2-0.8-2.9-0.1-3.8,1.7c-0.8,1.8-0.5,4,0.7,4.8l4.3,3c1.2,0.8,2.9,0.1,3.8-1.8
		C677,387.2,676.7,385.1,675.4,384.3z"/>
	<path d="M675.6,383.8l-4.3-3c-1.5-1-3.4-0.2-4.4,1.9c-1,2.1-0.6,4.5,0.9,5.6l4.3,3c0.3,0.2,0.6,0.3,0.9,0.4
		c1.3,0.2,2.7-0.6,3.4-2.3C677.5,387.3,677.1,384.8,675.6,383.8z M675.7,388.8c-0.7,1.6-2.2,2.3-3.1,1.6l-4.3-3
		c-1-0.7-1.2-2.6-0.5-4.1c0.6-1.3,1.7-2,2.6-1.8c0.2,0,0.4,0.1,0.5,0.2l4.3,3C676.2,385.3,676.4,387.2,675.7,388.8L675.7,388.8z"/>
	<path d="M654.5,369.8c-1.5-0.9-3.3-1.4-5.1-1.4c-1.3-0.1-2.5,0.6-2.9,1.7c-0.3,1.1,0.1,2.4,1.1,3.8c1.1,1.5,2.6,2.7,4.4,3.7
		c1,0.6,2.2,1,3.4,1.2c0.5,0.1,1.1,0.2,1.7,0.1c1.3,0.1,2.5-0.6,2.8-1.7C660.7,375.1,658.2,371.8,654.5,369.8z M659.8,377.2
		c-0.4,1-1.5,1.7-2.7,1.6c-1.8,0-3.5-0.5-4.9-1.4c-1.7-0.9-3.1-2.1-4.3-3.6c-1-1.3-1.4-2.6-1.1-3.6c0.4-1,1.5-1.7,2.7-1.6
		c0.5,0,1.1,0,1.6,0.1c1.2,0.2,2.3,0.7,3.3,1.2C658,371.9,660.4,375.1,659.8,377.2z"/>
	<path class="st5" d="M720.4,860.4c6.8-103.3,13.6-206.6,20.5-309.9c-20.1,99.1-40.1,198-60.2,296.6
		C693.9,851.6,707.1,856,720.4,860.4z"/>
	<path d="M680.2,846.9l-0.1,0.5c13.6,4.6,27.2,9.1,40.7,13.6c6.8-103.5,13.7-206.9,20.5-310.4l-0.9-0.3
		C720.3,649.5,700.2,748.3,680.2,846.9z M719.9,859.7c-12.9-4.2-25.8-8.5-38.7-12.9c19.6-96.2,39.1-192.6,58.7-289.2
		C733.2,658.4,726.6,759.1,719.9,859.7L719.9,859.7z"/>
	<path class="st5" d="M788.9,889.9c20.2-99.7,40.4-200,60.6-300.7c-33,95.9-66.1,189.9-99.1,283.1
		C763.2,878.3,776,884.2,788.9,889.9z"/>
	<path d="M749.9,872.1l-0.2,0.5c13.2,6.2,26.4,12.3,39.6,18.1c20.2-99.9,40.4-200.3,60.7-301.3l-0.9-0.4
		C816,684.8,782.9,778.9,749.9,872.1z M788.6,889.2c-12.5-5.6-25.1-11.3-37.6-17.2c32.2-90.8,64.4-182.6,96.6-275.9
		C827.9,694.4,808.2,792.1,788.6,889.2L788.6,889.2z"/>
	<path class="st5" d="M854.3,925.8c33.2-96,66.4-193.6,99.5-293.9c-45.4,95.1-90.8,185.4-136.2,272.9
		C829.9,912,842.1,919,854.3,925.8z"/>
	<path d="M817.3,904.5l-0.2,0.5c12.5,7.4,25.1,14.6,37.6,21.6c33.2-96.1,66.5-194,99.7-294.5l-0.9-0.4
		C908.1,726.7,862.7,817,817.3,904.5z M854.1,925.1c-11.9-6.6-23.8-13.4-35.7-20.5c44.2-85.3,88.5-173.3,132.7-265.8
		C918.7,736.4,886.4,831.6,854.1,925.1z"/>
	<path class="st5" d="M915.4,966.7c45.5-92.5,91-189.2,136.5-292.1c-56.9,97.9-113.7,186.1-170.6,268.4
		C892.7,951.1,904.1,959,915.4,966.7z"/>
	<path d="M881,942.7l-0.3,0.4c11.5,8.3,23,16.3,34.5,24.1l0.4,0.3c45.6-92.6,91.2-189.5,136.8-292.7l-0.8-0.4
		C994.7,772.3,937.9,860.3,881,942.7z M915.2,966c-11.1-7.5-22.1-15.2-33.2-23.1c55.4-80.3,110.8-166.1,166.2-261.2
		C1004,781.7,959.6,875.8,915.2,966L915.2,966z"/>
	<path class="st5" d="M970.9,1011.8c57-89.4,113.9-186.8,170.9-296.1c-67.2,104.4-134.4,192.2-201.6,270
		C950.5,994.6,960.7,1003.3,970.9,1011.8z"/>
	<path d="M939.5,985.8c10.4,9.1,20.8,17.9,31.1,26.4l0.4,0.3c57.1-89.6,114.1-187.2,171.2-296.7l-0.7-0.3
		C1074.2,820,1006.8,907.9,939.5,985.8z M970.9,1011c-10-8.2-20-16.7-30-25.4c65.5-75.9,131-161.4,196.5-262.4
		C1081.9,829.1,1026.4,923.9,970.9,1011L970.9,1011z"/>
	<path class="st5" d="M609.9,831.2c13.4,2.6,26.7,5.2,40.1,7.8L630,521.7C623.3,624.9,616.6,728.1,609.9,831.2z"/>
	<path d="M629.5,521.6c-6.7,103.3-13.4,206.7-20.1,310.1c13.7,2.7,27.4,5.3,41.1,8c-6.7-105.9-13.4-211.9-20.1-317.8L629.5,521.6z
		 M610.4,830.8c6.5-100.6,13-201.1,19.6-301.7c6.5,103.1,13,206.2,19.6,309.3L610.4,830.8z"/>
	<path class="st5" d="M539.6,826.5c13.2,0.3,26.5,0.7,39.7,1.2c-20.1-106.2-40.1-212.2-60.2-318C526,615.3,532.8,720.9,539.6,826.5z
		"/>
	<path d="M518.7,509.6c6.8,105.6,13.6,211.2,20.5,316.8v0.6c13.4,0.3,26.8,0.7,40.2,1.2h0.5c-20.1-106.4-40.2-212.6-60.3-318.6
		L518.7,509.6z M578.8,827.2c-12.9-0.5-25.8-0.8-38.7-1.2c-6.7-103-13.3-205.9-20-308.9C539.7,620.3,559.2,723.6,578.8,827.2z"/>
	<path class="st5" d="M471.1,834.7c12.9-2.3,25.7-4.4,38.6-6.3c-33-103.7-66.1-206.4-99.1-307.5C430.7,625,450.9,729.5,471.1,834.7z
		"/>
	<path d="M410.1,521c20.2,104,40.4,208.6,60.6,313.7l0.1,0.6c13.2-2.3,26.4-4.5,39.5-6.4C477.2,725,444.1,622,411,520.8L410.1,521z
		 M509.1,828c-12.5,1.9-25.1,3.9-37.6,6.1c-19.7-102.5-39.4-204.4-59.1-305.9C444.6,626.7,476.8,726.9,509.1,828L509.1,828z"/>
	<path class="st5" d="M405.6,856.8c12.2-5,24.4-9.7,36.7-14.3c-45.4-97.5-90.8-192.2-136.2-282.1C339.3,656.9,372.5,756,405.6,856.8
		z"/>
	<path d="M305.7,560.6c33.2,96.5,66.3,195.5,99.5,296.3l0.2,0.5c12.3-5.1,24.7-9.9,37.1-14.5l0.5-0.2
		c-45.5-97.7-90.9-192.6-136.4-282.7L305.7,560.6z M441.7,842.2c-11.9,4.4-23.8,9.1-35.7,13.9c-32.3-98.3-64.7-194.9-97-289.1
		C353.2,654.9,397.4,747.2,441.7,842.2L441.7,842.2z"/>
	<path class="st5" d="M344.6,893.1c11.3-7.7,22.7-15.1,34-22.3c-56.9-87.2-113.7-168.6-170.6-240.2
		C253.6,712.5,299.1,800.7,344.6,893.1z"/>
	<path d="M207.6,630.9c45.5,81.9,91,170,136.5,262.3c0.1,0.2,0.2,0.3,0.2,0.5c11.5-7.8,23-15.3,34.5-22.6l0.4-0.3
		c-56.9-87.4-113.9-169-170.8-240.7L207.6,630.9z M377.9,870.6c-11.1,7-22.1,14.2-33.2,21.7c-44.4-90.1-88.7-176.1-133.1-256.3
		C267.1,706.3,322.5,785.7,377.9,870.6z"/>
	<path class="st5" d="M289,942.7c10.3-10.1,20.5-20,30.7-29.7c-67.2-73-134.4-135.9-201.6-182.2C175.1,790.8,232.1,862.8,289,942.7z
		"/>
	<path d="M117.8,731.2c57,60,113.9,132,170.9,211.8l0.3,0.4c10.5-10.4,21-20.6,31.5-30.5c-67.3-73.2-134.6-136.3-202-182.7
		L117.8,731.2z M319.1,913c-10,9.4-20,19.1-30,29c-55.5-77.9-111-148.3-166.6-207.4C188.1,780.4,253.6,841.9,319.1,913z"/>
	<path class="st5" d="M63,869.6c48,26.1,96,61.6,144,104.2c17.9-4.2,36-7.5,54.3-9.8C195.2,916.6,129.1,880.8,63,862.9V869.6z"/>
	<path d="M63,863.5C128.9,881.4,194.7,917,260.6,964l1.5-0.2C195.8,916.3,129.4,880.3,63,862.2V863.5z"/>
	<path d="M63,868.9v1.5c47.8,26,95.6,61.3,143.4,103.5l1.3-0.3C159.5,930.8,111.2,895.1,63,868.9z"/>
	<path class="st5" d="M63,1015.2c6.1,1.7,12.3,3.5,18.4,5.4c13-6.8,26-13,38.9-18.5c-18.9-3.8-38-6.2-57.3-7.2V1015.2z"/>
	<path d="M63,1014.6v1.3c5.9,1.6,11.7,3.3,17.6,5.2l1.5-0.8C75.8,1018.2,69.4,1016.3,63,1014.6z"/>
	<path d="M63,995.5c19,1,37.8,3.4,56.4,7.1l1.9-0.8c-19.2-3.9-38.6-6.4-58.3-7.4V995.5z"/>
	<path class="st5" d="M1197,792.4c-66.1,93.9-132.2,170.1-198.4,234.7c18.3-2.4,36.5-5.7,54.4-9.8c48-64.9,96-136.8,144-218.1V792.4
		z"/>
	<path d="M1197,798.4c-48.2,81.7-96.5,153.9-144.7,219l1.3-0.3c47.8-64.7,95.6-136.3,143.4-217.2V798.4z"/>
	<path d="M1197,793v-1.3c-66.4,94.3-132.8,170.7-199.1,235.4l1.5-0.2C1065.3,962.5,1131.1,886.6,1197,793z"/>
	<path class="st5" d="M1197,924.4c-19.1,22.9-38.2,44.4-57.3,64.5c13-5.5,26-11.7,38.9-18.5c6.1-8.4,12.3-16.9,18.4-25.6L1197,924.4
		z"/>
	<path d="M1197,944.1c-6.4,9.1-12.8,18-19.2,26.7l1.5-0.8c5.9-8,11.8-16.2,17.6-24.6L1197,944.1z"/>
	<path d="M1197,925v-1.2c-19.4,23.3-38.8,45.1-58.3,65.5l1.9-0.8C1159.4,968.6,1178.2,947.5,1197,925z"/>
	<path class="st6" d="M511.4,671.8c-9.6-35.3-31.1-77.1-39.6-104c-8.6-26.9-8.4-36-6.6-55.3c-5.3,17.4-6.4,29.1-1.6,56.8
		c4.8,27.7,21.8,66.8,28.2,103.6c6.5,36.7,3.2,66.9,6,98.7s4.9,38.6,10.3,57.3c13-0.8,26-1.5,39.1-2c-8.4-21-11-31.1-16.7-59.6
		C524.8,738.9,521,707,511.4,671.8z"/>
	<path d="M531,767.2c-1.8-9-3.4-18.2-5.1-27.9c-3.7-21.4-7.5-43.4-14.1-67.6c-5.5-20.3-15.1-43.2-23.6-63.2
		c-6.4-15.1-12.4-29.4-16-40.8c-8.7-27.4-8.3-36.2-6.5-55l0.5-4.9l-1.4,4.5c-5.2,17-6.5,28.7-1.6,57c2.3,13,7.2,28.6,12.5,45.1
		c6.1,19.1,12.3,39,15.8,58.5c4,22.5,4.3,42.6,4.6,62c0.2,12.5,0.4,24.4,1.5,36.7c2.8,31.1,4.9,38.4,9.9,56.2
		c0.2,0.6,0.3,1.2,0.5,1.7c13.4-0.8,26.7-1.5,40.1-2.1c-0.1-0.2-0.2-0.4-0.3-0.6C539.2,805.6,536.7,795.7,531,767.2z M508.5,828.3
		l-0.2-0.8c-5-17.7-7.1-25-9.9-55.9c-1.1-12.3-1.3-24.1-1.5-36.6c-0.3-19.5-0.6-39.6-4.6-62.2c-3.5-19.5-9.7-39.4-15.8-58.6
		c-5.2-16.5-10.2-32-12.4-45c-4.4-25.4-3.7-37.3,0.2-51.8c-1.3,16.6-0.6,26.4,7,50.4c3.6,11.5,9.7,25.8,16,40.9
		c8.5,20,18,42.9,23.5,63.1c6.6,24.1,10.4,46.2,14.1,67.5c1.7,9.8,3.3,19,5.1,28c5.6,28.3,8.2,38.3,16.5,59
		C533.8,826.9,521.2,827.5,508.5,828.3z"/>
	<path class="st6" d="M423.8,685c-13.9-33.3-40-70-51.8-94.6c-11.8-24.6-12.8-33.6-13.5-53.2c-2.9,18.6-2.5,30.5,5.8,56.8
		c8.2,26.3,29.8,61.2,40.8,96.5c11,35.3,11.7,66.3,18.6,97.4c6.9,31.2,9.8,37.7,17.3,55.4c12.5-3.4,25-6.7,37.6-9.8
		c-10.9-19.6-14.7-29.2-23.8-56.7C445.5,749.4,437.6,718.3,423.8,685z"/>
	<path d="M455.1,776.7c-2.9-8.7-5.6-17.6-8.5-27.1c-6.3-20.7-12.9-42.1-22.4-64.8c-8-19.1-20.2-39.8-31-57.9
		c-8.1-13.6-15.8-26.3-20.8-36.8c-12-25.1-12.8-33.8-13.5-53c-0.1-1.6-0.1-3.3-0.2-4.9l-0.8,4.9c-2.8,18.2-2.7,30.1,5.8,57
		c3.9,12.4,10.7,26.6,17.9,41.8c8.4,17.6,17,36,22.9,54.7c6.8,21.6,9.6,41.6,12.4,61c1.8,12.5,3.5,24.3,6.1,36.4
		c6.7,30.6,9.7,37.5,16.8,54.3l0.7,1.6c12.7-3.5,25.3-6.8,38-9.9l0.6-0.1l-0.3-0.6C468,813.7,464.2,804.2,455.1,776.7z M441.1,842.7
		l-0.3-0.8c-7.1-16.7-10.1-23.6-16.8-54.1c-2.6-12.1-4.3-23.8-6.1-36.3c-2.8-19.4-5.7-39.5-12.4-61.2c-5.8-18.7-14.5-37.1-22.9-54.8
		c-7.2-15.2-14-29.4-17.9-41.7c-7.6-24.1-8.4-36.1-6.5-51.5c0.8,16.8,2.8,26.3,13.3,48.3c5,10.6,12.8,23.2,20.9,36.8
		c10.8,18,23,38.7,31,57.7c9.5,22.7,16,44,22.3,64.7c2.9,9.5,5.6,18.4,8.5,27.1c9.1,27.3,12.9,36.9,23.5,56.2
		C465.5,836.1,453.3,839.3,441.1,842.7z"/>
	<path class="st6" d="M340.2,718.7c-17.8-29.6-48.3-58.6-63.1-79.2c-14.8-20.7-16.9-29-20.2-47.9c-0.5,19,1.5,30.4,13,53.6
		s37.2,51.5,52.6,83.6c15.3,32.1,20,62.6,30.7,91.9c10.7,29.3,14.4,35.2,24.1,51.2c11.8-6.2,23.6-12.1,35.4-17.8
		c-13.1-17.3-18-26.1-30.5-51.4C369.7,777.3,358.1,748.2,340.2,718.7z"/>
	<path d="M382.6,802.4c-3.9-8-7.7-16.3-11.8-25c-8.8-19.1-18-38.8-30.2-59c-10.3-17-24.9-34.2-37.9-49
		c-9.7-11.1-18.9-21.4-25.2-30.2c-15-21-16.9-29.2-20.1-47.7c-0.3-1.6-0.6-3.2-0.8-4.8c0,1.7-0.1,3.3-0.1,5
		c-0.5,18.6,1.3,30.1,13,53.8c5.4,10.9,14,22.9,23,35.8c10.5,15,21.4,30.8,29.5,47.7c9.4,19.5,14.8,38.7,20,57.2
		c3.4,12,6.5,23.2,10.7,34.6c10.5,28.8,14.3,35,23.4,50.1l0.9,1.5c12.1-6.3,24.2-12.4,36.3-18.2l-0.4-0.5
		C399.9,836.5,395.1,827.8,382.6,802.4z M377.5,871.2l-0.4-0.7c-9.1-15.1-12.9-21.3-23.4-50c-4.1-11.4-7.3-22.6-10.7-34.6
		c-5.2-18.6-10.6-37.7-20.1-57.4c-8.2-17-19.1-32.9-29.6-47.9c-9-12.9-17.6-24.9-23-35.7c-10.6-21.3-13-32.6-13-48.2
		c3,16.1,6.2,24.7,19.4,43.2c6.3,8.9,15.5,19.1,25.3,30.3c12.9,14.7,27.6,32,37.8,48.8c12.2,20.1,21.3,39.8,30.1,58.8
		c4,8.7,7.8,17,11.8,25c12.4,25.2,17.3,34,30.1,51C400.4,859.4,388.9,865.2,377.5,871.2L377.5,871.2z"/>
	<path class="st6" d="M314.5,845c-15.5-21.9-30.8-47.6-52.2-71.4c-21.5-24.1-55.6-43-73.1-57.8c-17.5-15-20.8-22.1-26.5-38.9
		c2,18.2,5.4,28.2,20,46.6c14.6,18.2,43.9,37.8,63.3,64.7c19.4,26.8,27.9,55.5,42.3,81.6c14.4,26.2,18.8,31.1,30.3,44.6
		c10.8-8.8,21.6-17.3,32.4-25.5C336,874.6,330,867,314.5,845z"/>
	<path d="M314.9,844.7c-4.9-6.9-9.7-14.1-14.8-21.7c-11.2-16.6-22.7-33.5-37.4-49.8c-12.3-13.7-29.1-26.3-44-36.7
		c-11.2-7.8-21.7-14.8-29.1-21.2c-17.8-15.3-20.8-22.3-26.4-38.8l-1.4-4.2l0.5,4.7c1.9,17.8,5.1,28,20.1,46.8
		c6.8,8.7,17,17.4,27.7,27.1c12.4,11.2,25.3,23.4,35.6,37.5c11.9,16.4,19.7,33.6,27.2,50.3c4.9,10.8,9.5,21,15,31.2
		c14.1,25.6,18.6,30.9,29.6,43.7l1.1,1.3c10.9-8.9,21.9-17.5,32.8-25.8l0.5-0.4l-0.5-0.4C336.4,874.2,330.4,866.7,314.9,844.7z
		 M318.7,913.6c-0.2-0.2-0.3-0.4-0.5-0.6c-10.9-12.7-15.5-18-29.5-43.5c-5.6-10.1-10.1-20.3-15-31.1c-7.6-16.8-15.4-34.1-27.3-50.5
		c-10.3-14.3-23.2-26.4-35.6-37.7c-10.7-9.7-20.8-18.4-27.6-27.1c-13.4-16.9-17.3-26.8-19.3-41.6c5.1,14.3,9.4,21.3,25.1,34.7
		c7.5,6.4,18,13.4,29.2,21.2c14.8,10.3,31.6,22.9,43.9,36.5c14.7,16.3,26.2,33.2,37.4,49.7c5.1,7.6,9.9,14.8,14.8,21.7
		c15.4,21.9,21.4,29.4,36.2,43.4C339.8,896.8,329.3,905.1,318.7,913.6L318.7,913.6z"/>
	<path class="st6" d="M253,903.1c-18.3-17.3-36.8-38.2-61.5-54.8c-24.7-17-61.8-23.9-81.7-31.5c-19.9-7.8-24.2-13-32.2-26.5
		c4.4,16.1,9.2,23.9,26.6,35.9c17.3,11.8,49.8,20.6,72.8,40.7c23,19.9,35.3,45.2,53,66.7c14.4,17.6,20.4,23.4,29.2,30.4
		c4.3-0.6,8.6-1.1,12.9-1.6c7.6-8.7,15.2-17.2,22.8-25.6C278.2,926.7,271.3,920.6,253,903.1z"/>
	<path d="M295.2,936.6c-16.7-10.4-23.5-16.3-41.8-33.9c-5.8-5.5-11.5-11.2-17.6-17.2c-13.3-13.1-27-26.2-43.9-37.6
		c-14.2-9.6-32.8-16.4-49.2-21.4c-12.3-3.8-24-6.7-32.5-10.1c-20.2-8-24.2-13.2-32.1-26.4l-2-3.3c0.4,1.4,0.8,2.8,1.1,4.2
		c4.3,15.7,8.9,23.8,26.7,36.1c8.2,5.7,19.7,10.4,31.9,16.1c14.1,6.5,28.7,14.1,40.9,24.6c14.1,12.1,24.2,26.5,33.9,40.5
		c6.3,9.1,12.2,17.7,19.1,26.1c14.1,17.3,20.2,23.3,28.8,30.1l1.4-0.2c-9-7.1-15-12.9-29.6-30.7c-6.9-8.3-12.8-17-19.1-26.1
		c-9.8-14.1-19.9-28.5-34-40.6c-12.3-10.6-26.9-18.2-41-24.7c-12.1-5.7-23.7-10.5-31.8-16.1c-15.9-11-21.2-18.6-25.2-31.5
		c7.1,11.3,12.5,16.1,30.2,23.1c8.5,3.4,20.2,6.4,32.6,10.1c16.4,4.9,35,11.8,49.1,21.3c16.9,11.3,30.6,24.4,43.9,37.5
		c6.1,6,11.8,11.7,17.6,17.2c18.2,17.4,25,23.4,41.5,33.6c-7.6,8.4-15.2,16.9-22.7,25.5l1.4-0.2c7.6-8.7,15.3-17.2,22.9-25.6
		L295.2,936.6z"/>
	<path class="st6" d="M601.2,676.7c-5.2-35.9-21.4-80.4-26.6-108.2c-5.1-27.8-3.8-36.5,0.5-54.8c-7.5,15.7-10.2,26.8-8.9,54.5
		s13.4,69.1,15.2,105.8c1.8,36.7-5.4,65.3-6.6,96.5c-1.2,31.2,0,38.2,3,57.3c13.3,1.6,26.5,3.2,39.8,4.9
		c-5.8-21.8-7.2-31.9-9.2-60.4S606.4,712.6,601.2,676.7z"/>
	<path d="M608.8,772.5c-0.7-9-1.1-18.2-1.5-27.9c-1-21.3-2-43.3-5.6-67.8c-3-20.6-9.7-44.5-15.7-65.6c-4.5-15.9-8.7-30.8-10.9-42.7
		c-5.2-28.3-3.7-36.7,0.5-54.6c0.4-1.5,0.7-3.1,1.1-4.6l-2,4.1c-7.4,15.3-10.3,26.3-9,54.8c0.6,13.1,3.6,29.1,6.7,46.2
		c3.7,19.7,7.4,40.1,8.4,59.6c1.1,22.5-1.2,41.9-3.4,60.7c-1.4,12.1-2.8,23.6-3.2,35.7c-1.2,30.5,0,38,2.8,56.1l0.3,1.8
		c13.4,1.6,26.8,3.3,40.2,5l0.6,0.1l-0.2-0.7C612.2,811,610.9,800.9,608.8,772.5z M578.2,827.4c0-0.3-0.1-0.6-0.1-0.8
		c-2.8-18-4-25.4-2.8-55.9c0.5-12,1.8-23.5,3.2-35.6c2.2-18.9,4.5-38.4,3.4-60.9c-1-19.5-4.8-40-8.4-59.8c-3.1-17-6.1-33-6.7-46
		c-1.2-25.5,1.1-36.8,6.9-50c-3.5,15.7-4,25.4,0.6,50.2c2.2,11.9,6.4,26.9,10.9,42.8c5.9,21,12.7,44.9,15.7,65.4
		c3.5,24.5,4.6,46.5,5.6,67.7c0.5,9.7,0.9,18.9,1.5,27.9c2.1,28.3,3.4,38.5,9.1,59.9C604.1,830.6,591.1,829,578.2,827.4L578.2,827.4
		z"/>
	<path class="st6" d="M1032.1,986c17.9-23.8,39.6-50,60-84c20.4-34,38.1-81.7,53.1-110.4c15-28.8,22.1-37.1,38-54.9
		c-16.8,14.2-26.5,24.6-44.6,51.8c-18.1,27.1-36.8,69.9-60.6,102.5s-49.1,52.1-71.6,75.4c-22.4,23.1-26.3,28.8-37,44.5
		c6,5.9,12.1,11.7,18.1,17.5c5.6-0.6,11.2-1.3,16.7-2.1C1011.5,1013.7,1018.2,1004.5,1032.1,986z"/>
	<path d="M1050.4,962.8c13.8-18.1,28.1-37.3,42.1-60.6c11.8-19.5,22.8-44.1,32.5-66c7.3-16.5,14.2-32.3,20.6-44.5
		c15.3-29.4,22.2-37.3,37.9-54.7c1.3-1.5,2.7-3,4-4.5c-1.5,1.3-2.9,2.5-4.4,3.8c-16.4,13.9-26.3,24.2-44.8,52
		c-8.5,12.7-17.2,29-26.4,45.8c-10.6,19.5-21.6,39.4-34.2,56.6c-14.5,20-29.7,35-44.4,49c-9.5,9-18.4,17.2-27.1,26.3
		c-21.9,22.6-26.1,28.6-36.3,43.5l-1,1.4c6,5.9,12,11.7,18.1,17.4l1.4-0.2c-6-5.7-12.1-11.6-18.2-17.5l0.5-0.7
		c10.1-14.9,14.3-20.8,36.2-43.4c8.7-9,17.6-17.3,27.1-26.3c14.7-14,29.9-29.1,44.5-49.2c12.7-17.4,23.7-37.3,34.3-56.8
		c9.2-16.8,17.8-33,26.3-45.7c16.6-25,26.1-35.8,39.8-47.7c-13.6,15.2-20.6,24.7-34,50.4c-6.4,12.3-13.3,28.1-20.7,44.6
		c-9.7,21.9-20.7,46.3-32.4,65.8c-14,23.2-28.3,42.4-42.1,60.5c-6.3,8.2-12.3,15.9-17.9,23.5c-14.1,18.8-20.7,27.9-27.9,40.6
		l1.1-0.2c7-12.4,13.7-21.5,27.5-39.9C1038.1,978.7,1044.1,971.1,1050.4,962.8z"/>
	<polygon class="st6" points="946,990.9 946,990.9 946,990.9 	"/>
	<path class="st6" d="M1058.1,744.4c-15.4,25.7-29.4,66.9-49.6,99.1c-20.2,32.2-43.5,52.2-63.1,76.2c-19.6,24-22.7,29.9-31.4,46.2
		c10.7,8.5,21.4,16.8,32.1,24.9c7.8-20.3,12.7-29,27.8-53.2s33.9-50.6,50.6-83.9s28.9-79.2,41-106.4c12-27.2,18.4-35,33-51.4
		C1082.4,709.1,1073.5,718.6,1058.1,744.4z"/>
	<path d="M1057.7,744.2c-7.2,12.1-14.2,27.6-21.5,43.9c-8.5,18.8-17.3,38.1-28,55.2c-12.4,19.7-25.9,34.9-39.1,49.1
		c-8.5,9.2-16.5,17.7-24.1,27c-19.2,23.5-22.6,29.7-30.9,45.1c-0.3,0.5-0.5,1-0.8,1.5c11,8.8,21.9,17.3,32.9,25.6
		c0.1-0.2,0.2-0.4,0.2-0.6c7.8-20.2,12.6-28.8,27.7-53.1c4.8-7.7,9.8-15.4,15.2-23.8c11.8-18.2,23.9-37.4,35.4-60.2
		c9.6-19.1,17.9-42.9,25.2-64c5.5-15.9,10.7-30.9,15.8-42.5c12.2-27.8,18.5-35.2,32.8-51.2l3.7-4.2l-4.2,3.4
		C1082.5,708.3,1073.4,717.8,1057.7,744.2z M1064.9,747.3c-5.1,11.6-10.3,26.7-15.8,42.6c-7.3,21-15.5,44.7-25.1,63.8
		c-11.4,22.7-23.6,41.9-35.3,60c-5.4,8.3-10.5,16.1-15.2,23.8c-15,24.1-19.9,32.7-27.6,52.6c-10.4-7.9-20.8-16-31.2-24.3l0.4-0.7
		c8.2-15.4,11.6-21.6,30.8-45c7.6-9.3,15.6-17.8,24-27c13.1-14.3,26.7-29.6,39.2-49.3c10.8-17.1,19.6-36.5,28.1-55.4
		c7.3-16.2,14.3-31.7,21.5-43.8c14.1-23.7,22.8-33.6,35.7-44.6C1081.8,714.1,1075.6,722.9,1064.9,747.3L1064.9,747.3z"/>
	<path class="st6" d="M969.1,700.5c-12.4,25-21.3,65.6-37.6,97.9s-37,53.3-53.5,78.4c-16.4,25.1-18.7,31.4-25.3,48.3
		c11.7,7.7,23.4,15.2,35.1,22.5c5.1-20.7,8.9-29.7,20.9-54.5c12-24.8,27.5-51.7,40.2-84.8c12.7-33.1,19.2-78.2,28-104.7
		s14.3-34,27.3-49.4C989.4,666.3,981.5,675.4,969.1,700.5z"/>
	<path d="M968.7,700.3c-5.8,11.8-10.9,27-16.3,43.1c-6.2,18.6-12.7,37.7-21.3,54.9c-10,19.8-21.6,35.3-32.9,50.1
		c-7.3,9.5-14.2,18.5-20.5,28.2c-16.1,24.6-18.7,31.1-24.9,47.2l-0.6,1.6c12,7.9,24,15.6,36,23.1l0.2-0.6
		c5.1-20.7,8.9-29.6,20.8-54.5c3.8-7.9,7.9-15.8,12.2-24.3c9.5-18.5,19.3-37.9,28-60.6c7.3-19.1,12.6-42.5,17.4-63.2
		c3.6-15.6,6.9-30.3,10.7-41.6c9-27.1,14.5-34.1,27.2-49.3l3.3-3.9l-3.9,3.2C989.5,665.6,981.4,674.6,968.7,700.3z M976.4,703.4
		c-3.8,11.3-7.1,26.1-10.7,41.7c-4.7,20.6-10.1,44-17.3,63c-8.7,22.6-18.5,42-27.9,60.5c-4.3,8.5-8.4,16.4-12.2,24.3
		c-11.9,24.7-15.7,33.7-20.8,54c-11.4-7.1-22.8-14.4-34.2-21.9c0.1-0.2,0.2-0.5,0.3-0.8c6.2-16,8.7-22.5,24.8-47
		c6.4-9.7,13.2-18.6,20.5-28.2c11.3-14.8,23-30.5,33-50.3c8.7-17.2,15.1-36.4,21.4-55c5.4-16,10.4-31.2,16.2-42.9
		c11.4-23.1,19-32.6,31-42.9C989.5,671.2,984.3,679.7,976.4,703.4L976.4,703.4z"/>
	<path class="st6" d="M873.5,657.5c-9.2,25.2-12.9,66-24.8,99.1s-29.9,55.5-42.8,82.1c-12.9,26.6-14.4,33.1-18.6,50.8
		c12.5,6.7,24.9,13.2,37.4,19.5l0,0c2.4-21.2,5-30.6,13.6-56.3c8.6-25.7,20.6-53.5,29-87.1s9.1-78.6,14.5-105.2
		c5.4-26.6,10-34,21.1-49.3C889.5,623.1,882.7,632.3,873.5,657.5z"/>
	<path d="M873.1,657.3c-4.3,11.9-7.4,27.2-10.7,43.4c-3.8,18.8-7.8,38.2-14.1,55.7c-7.4,20.2-16.9,36.5-26.2,52.2
		c-6,10.1-11.6,19.5-16.6,29.9c-12.7,26-14.3,32.9-18.4,49.7c-0.1,0.5-0.3,1.1-0.4,1.6c12.8,6.9,25.5,13.5,38.3,20
		c0-0.2,0-0.4,0.1-0.6c2.4-21.2,4.9-30.4,13.6-56.2c2.7-8.1,5.8-16.4,9-25.1c7-19.1,14.3-39,20-62c4.8-19.3,7.1-42.8,9.2-63.6
		c1.5-15.6,3-30.4,5.3-41.6c5.5-27,10.1-34.1,21-49.1c0.9-1.3,1.9-2.6,2.8-3.9c-1.2,1.1-2.3,2.1-3.5,3.2
		C889.5,622.5,882.5,631.5,873.1,657.3z M881.3,660.2c-2.3,11.3-3.8,26.1-5.3,41.8c-2.1,20.7-4.4,44.2-9.2,63.4
		c-5.7,23-13,42.8-20,61.9c-3.2,8.7-6.2,17-9,25.1c-8.6,25.6-11.2,35-13.6,55.8c-12.1-6.2-24.3-12.5-36.4-19
		c0.1-0.3,0.1-0.5,0.2-0.8c4-16.7,5.7-23.5,18.3-49.5c5-10.3,10.6-19.7,16.6-29.8c9.3-15.7,18.9-32,26.2-52.3
		c6.4-17.6,10.4-37,14.2-55.8c3.3-16.2,6.4-31.4,10.7-43.2c8.4-23.2,14.9-32.7,25.6-42.9C890.2,628,886.1,636.5,881.3,660.2
		L881.3,660.2z"/>
	<path class="st6" d="M796.1,569.7c-11.6,12.7-17.1,22.2-22.9,48.2c-5.8,26-4.2,67.4-11.7,101.8c-7.5,34.4-22,58.6-31.2,87
		c-9.2,28.3-9.7,35.1-11.6,53.4c13,5.4,26,10.6,38.9,15.8l0,0c-0.4-21.6,0.9-31.4,6.1-58.2c5.2-26.8,13.3-55.8,17.2-90.3
		c3.9-34.5-1.2-79.9,0.7-107C783.5,593.3,787.1,585.6,796.1,569.7z"/>
	<path d="M772.8,617.8c-2.7,12.2-3.8,27.9-5,44.5c-1.3,19.2-2.7,39.1-6.7,57.3c-4.6,21-11.9,38.3-18.9,55
		c-4.5,10.8-8.8,20.9-12.4,31.9c-9,27.7-9.7,34.9-11.5,52.3c-0.1,0.6-0.1,1.1-0.2,1.7c13.3,5.5,26.6,10.9,39.9,16.2
		c0-0.2,0-0.4,0-0.6c-0.4-21.6,0.9-31.2,6-58.1c1.6-8.5,3.5-17,5.6-26.1c4.4-19.9,9-40.5,11.7-64.2c2.2-19.8,1.5-43.7,0.9-64.7
		c-0.5-15.8-0.9-30.8-0.1-42.3c1.9-27.6,5.6-34.9,14.4-50.5c0.7-1.3,1.5-2.7,2.3-4l-3,3.3C784.4,581.7,778.7,591.1,772.8,617.8z
		 M781.2,620.3c-0.8,11.6-0.4,26.5,0.1,42.4c0.6,21,1.4,44.8-0.9,64.6c-2.7,23.6-7.2,44.2-11.6,64.1c-2,9.1-3.9,17.7-5.6,26.2
		c-5.1,26.6-6.4,36.4-6.1,57.6c-12.6-5-25.3-10.1-37.9-15.3l0.1-0.8c1.8-17.3,2.5-24.5,11.4-52.1c3.5-10.9,7.8-21.1,12.3-31.8
		c7-16.7,14.3-34.1,18.9-55.2c4-18.3,5.4-38.2,6.7-57.4c1.2-16.5,2.2-32.2,4.9-44.3c5.3-23.9,10.4-33.8,19.7-44.5
		C785.8,587.3,782.9,596.1,781.2,620.3z"/>
	<path class="st6" d="M691.7,696.5c-0.7-35.4-11.4-80.9-13-108.6s0.8-35.9,7.6-52.8c-9.7,14-13.8,24.2-16.1,51.3
		c-2.3,27,4.6,68.8,1.8,104.6c-2.9,35.8-13.9,62.2-19.1,92.1c-5.3,29.9-4.9,36.9-4.3,55.8c13.3,3.7,26.5,7.3,39.8,10.9
		c-3.1-21.9-3.2-31.9-1.6-59.7C688.1,762.3,692.3,732,691.7,696.5z"/>
	<path d="M684.7,630.9c-2.5-16-4.9-31.1-5.6-42.9c-1.7-28.2,0.9-36,7.5-52.6c0.6-1.4,1.1-2.9,1.7-4.3l-2.5,3.7
		c-9.5,13.7-13.8,23.8-16.1,51.5c-1.1,12.7-0.1,28.7,0.9,45.7c1.2,19.6,2.4,39.9,0.9,58.9c-1.8,21.9-6.6,40.3-11.2,58.1
		c-3,11.5-5.8,22.3-7.9,34c-5.1,29.3-4.9,36.7-4.4,54.6l0.1,1.8c13.6,3.8,27.2,7.5,40.8,11.2c0-0.2-0.1-0.4-0.1-0.7
		c-3.1-21.9-3.2-31.8-1.6-59.6c0.5-8.8,1.2-17.7,2-27.2c1.7-20.7,3.5-42.1,3.1-66.4C691.8,676.3,688,652.2,684.7,630.9z
		 M688.1,762.7c-0.8,9.5-1.5,18.4-2,27.2c-1.5,27.6-1.5,37.7,1.5,59.2c-12.9-3.5-25.8-7-38.7-10.6v-0.9c-0.5-17.8-0.7-25.2,4.4-54.4
		c2-11.6,4.9-22.4,7.9-33.9c4.7-17.9,9.5-36.3,11.3-58.3c1.5-19,0.3-39.4-0.9-59.1c-1-16.9-2-32.9-0.9-45.5
		c2.1-24.8,5.8-35.4,13.4-47.2c-5.5,14.6-7.3,23.9-5.8,48.6c0.7,11.8,3.1,27,5.6,43c3.3,21.2,7.1,45.3,7.5,65.6
		C691.6,720.7,689.8,742.1,688.1,762.7L688.1,762.7z"/>
	<path class="st6" d="M198.9,974.9c-20.7-11.9-42.1-26.6-69.6-34.8c-19.6-5.9-45.3-5-66.3-3.2v14.9c17.4,1.1,37.3,3,53.8,10.3
		c15.2,6.7,26.9,16.6,38.1,26.7c15-5.2,30-9.6,44.9-13.3L198.9,974.9z"/>
	<path d="M179.2,962.6c-15.2-8.9-30.8-17.4-49.6-23c-15.8-4.7-35.8-5.1-53.5-4.1c-4.5,0.2-8.9,0.6-13.1,0.9v1.1
		c4.1-0.3,8.4-0.6,12.7-0.9c17.7-1.1,37.7-0.6,53.4,4c18.7,5.5,34.4,14,49.5,22.9c6.9,4.1,13.5,8,20,11.8l0.5,0.3l1.6-0.4l-1.5-0.9
		C192.7,970.7,186.1,966.7,179.2,962.6z"/>
	<path d="M117.1,961.6c-14-6.1-30.1-8.5-45.6-9.7c-2.9-0.2-5.7-0.4-8.5-0.6v1.2c2.6,0.2,5.3,0.4,8,0.6c15.5,1.2,31.6,3.5,45.5,9.6
		c15.1,6.6,26.7,16.4,37.8,26.4c0.4-0.2,0.8-0.3,1.3-0.4C144.3,978.4,132.5,968.3,117.1,961.6z"/>
	<path class="st6" d="M1139,941.9c-26.1,32.4-52.2,51.3-76.4,73c18.8-4.8,37.2-10.5,55.2-17.3c10.8-13.1,22-27.5,33.2-43.8
		c16.3-23.9,32-55,46-82.1v-18.3C1179.7,880.8,1160.6,915.1,1139,941.9z"/>
	<path d="M1189.7,884.9c-11.9,23.1-25.5,48.6-39.1,68.6c-11.3,16.6-22.6,31-33.6,44.4l1.5-0.6c10.8-13,21.7-27.1,32.7-43.3
		c13.7-20.1,27.2-45.7,39.2-68.9c2.2-4.3,4.4-8.5,6.5-12.6v-1.6C1194.6,875.5,1192.2,880.1,1189.7,884.9z"/>
	<path d="M1090.2,991.6c16-13.8,32.6-28.9,49.1-49.5c14.3-17.8,27.3-38.5,39.9-59.1c6.1-10,12.1-19.9,17.8-29v-1.4
		c-5.9,9.4-12.1,19.7-18.5,30.1c-12.6,20.5-25.5,41.1-39.8,58.8c-16.4,20.4-33,35.5-48.9,49.3c-9.7,8.4-19,16-28,24.3l1.9-0.5
		C1072.2,1006.9,1081,999.6,1090.2,991.6z"/>
	<path class="st5" d="M630,810.6c-77-15.1-150.2-10.8-216.2,16c-66,26.4-124.9,75.3-173.2,140.5c259.6-43.7,519.2,100.7,778.8,56.9
		c-48.3-48.5-107.2-92.1-173.2-129.7C780.2,857,707,825.6,630,810.6z"/>
	<path d="M836.2,888.1c-65.3-35.8-134.7-64.1-206.2-78c-71.5-13.9-140.9-11.9-206.1,12c-63.1,22.9-119.7,65.4-168.4,125
		c-5.3,6.5-10.5,13.2-15.6,20l1.3-0.2c4.9-6.5,9.8-12.9,14.9-19.2c48.6-59.4,105.1-101.8,168.1-124.7c65.2-23.9,134.4-25.9,205.8-12
		c71.4,13.9,140.6,42.1,205.8,77.9c63,34.8,119.5,74.9,168.1,120.5c5.1,4.8,10.1,9.7,14.9,14.6l1.3-0.2
		c-5.1-5.1-10.2-10.2-15.6-15.2C955.9,963,899.2,922.9,836.2,888.1z"/>
</g>
</svg>
