<svg xmlns="http://www.w3.org/2000/svg" viewBox="0 0 1260 1012.04">
  <g>
    <path d="M0,90.08H0C420-181.24,840,273.28,1260,2h0C840,273.28,420-181.24,0,90.08Z" style="fill: #c00"/>
    <path d="M0,1010.08C420,738.76,840,1193.28,1260,922V2C840,273.28,420-181.24,0,90.08Z" style="fill: #c00"/>
    <path d="M630,46C420,.22,210-45.58,0,90.08v460C210,414.42,420,460.22,630,506Z" style="fill: #006"/>
    <path d="M70.43,51.13A576.37,576.37,0,0,0,0,90.08H0A576.37,576.37,0,0,1,70.43,51.13Z" style="fill: #fff"/>
    <path d="M630,46c-23.48-5.12-47-10.24-70.43-15.11h0C583,35.78,606.52,40.9,630,46Z" style="fill: #fff"/>
    <path d="M315,281.43c-23.48-17.19-47-33.25-70.43-47.92C163,301.62,81.52,386.46,0,498.65v51.43a576.37,576.37,0,0,1,70.43-39C152,413.81,233.48,340.78,315,281.43Z" style="fill: #fff"/>
    <path d="M559.57,490.91C583,495.78,606.52,500.9,630,506V454.59C548.48,377.29,467,300,385.43,233.3c-23.47,15.08-46.95,31-70.43,48.13C396.52,341.12,478,414.49,559.57,490.91Z" style="fill: #fff"/>
    <path d="M315,178.57C233.48,118.88,152,72.86,70.43,51.13A576.37,576.37,0,0,0,0,90.08V141.5c81.52,6.87,163,41.07,244.57,92C268,213.9,291.52,195.67,315,178.57Z" style="fill: #fff"/>
    <path d="M385.43,233.3C467,180.94,548.48,139.19,630,97.45V46c-23.48-5.12-47-10.24-70.43-15.11C478,73.54,396.52,119.22,315,178.57,338.48,195.77,362,214.09,385.43,233.3Z" style="fill: #fff"/>
    <path d="M367.5,1.9a728.67,728.67,0,0,0-105,0h0a728.67,728.67,0,0,1,105,0Z" style="fill: #fff"/>
    <path d="M630,352.69V199.36c-87.5-19.09-175-38.17-262.5-44.13V308.56C455,314.52,542.5,333.6,630,352.69Z" style="fill: #fff"/>
    <path d="M262.5,461.89a728.67,728.67,0,0,1,105,0V308.56a731.56,731.56,0,0,0-105,0Z" style="fill: #fff"/>
    <path d="M367.5,155.23V1.9a728.67,728.67,0,0,0-105,0V155.22A730.11,730.11,0,0,1,367.5,155.23Z" style="fill: #fff"/>
    <path d="M262.5,155.22C175,161.86,87.5,186.89,0,243.41V396.74c87.5-56.52,175-81.54,262.5-88.19Z" style="fill: #fff"/>
    <path d="M262.5,308.55a731.56,731.56,0,0,1,105,0V155.23a730.11,730.11,0,0,0-105,0Z" style="fill: #fff"/>
    <path d="M346.5.73c-21-.91-42-1-63-.09h0c21-.91,42-.82,63,.09Z" style="fill: #c00"/>
    <path d="M630,322V230c-94.5-20.61-189-41.22-283.5-45.29v92C441,280.8,535.5,301.41,630,322Z" style="fill: #c00"/>
    <path d="M283.5,460.64c21-.91,42-.82,63,.09v-184c-21-.91-42-1-63-.09Z" style="fill: #c00"/>
    <path d="M283.5,276.64c21-.91,42-.82,63,.09v-92c-21-.91-42-1-63-.09Z" style="fill: #c00"/>
    <path d="M283.5,184.64C189,188.73,94.5,213,0,274.08v92C94.5,305,189,280.73,283.5,276.64Z" style="fill: #c00"/>
    <path d="M346.5,184.73V.73c-21-.91-42-1-63-.09v184C304.5,183.73,325.5,183.82,346.5,184.73Z" style="fill: #c00"/>
    <path d="M630,46c-15.65-3.41-31.3-6.83-47-10.16h0c15.66,3.33,31.31,6.75,47,10.16Z" style="fill: #c00"/>
    <polygon points="0 90.08 0 90.08 0 90.08 0 90.08" style="fill: #c00"/>
    <path d="M420,160.27C490,117.71,560,81.87,630,46c-15.65-3.41-31.3-6.83-47-10.16C513,72,443,109.72,373,155.62Q396.53,157.38,420,160.27Z" style="fill: #c00"/>
    <path d="M420,313.61c70,59.66,140,126,210,192.41V471.74C575.65,420.2,521.3,368.66,467,320.27,451.3,317.77,435.65,315.52,420,313.61Z" style="fill: #c00"/>
    <path d="M257,309c-15.66,1.33-31.31,3.25-47,5.85C140,377.58,70,453.75,0,550.08q23.48-15.17,47-27.39C117,435,187,366.05,257,309Z" style="fill: #c00"/>
    <path d="M210,161.52C140,122,70,96,0,90.08H0v34.28c54.35,4.58,108.7,21.3,163,47Q186.53,165.37,210,161.52Z" style="fill: #c00"/>
    <path d="M833.16,346.16l-1.11-.15c.06,49.76,1.08,90.14,1.09,133.07,74.53,10.06,149.06,12.75,223.6-.05V344.61c-74.53,13.29-149,11.1-223.58,1.55Z" style="fill: #fff"/>
    <path d="M957.38,353.87q-12.33.18-24.67-.05v50.46a920.3,920.3,0,0,1-100.58-7.8c0,12.33,0,24.27,0,36.08a921.42,921.42,0,0,0,100.63,7.81v47.57q12.33.22,24.67.05V440.41a617.76,617.76,0,0,0,99.13-9.22V395.1a617.76,617.76,0,0,1-99.13,9.22Z" style="fill: #bd0000"/>
    <path d="M958.1,352.8q-13.05.22-26.11,0v50.45a918.19,918.19,0,0,1-100.58-7.88v1.05c0,6.72,0,13.32,0,19.85q0,8.17,0,16.24v1A921.57,921.57,0,0,0,932,441.4V489q13.05.25,26.11,0V441.45a615.68,615.68,0,0,0,99.13-9.34V393.92a615.68,615.68,0,0,1-99.13,9.34Zm97.69,43.48v34a618.59,618.59,0,0,1-99.13,9.1V487q-11.61.17-23.23-.05V439.33A913.85,913.85,0,0,1,832.8,431.6c0-5,0-10.08,0-15.18,0-6.19,0-12.44,0-18.8a915.2,915.2,0,0,0,100.58,7.72V354.88q11.61.21,23.23.05v50.46A618.61,618.61,0,0,0,1055.79,396.28Z"/>
    <path d="M1056.41,508.69c0-1.34,0-2.87,0-4.15,0-8,.1-15,.2-20.1v-5.29C981.74,492,906.83,489.21,831.93,479v6.78c.17,8.47.29,21.75.31,37.24v1.44c.26,51.14-.2,118.23-.47,140.59,0,2.71-.08,4.43-.12,5.84a22.88,22.88,0,0,0,.83,6.32c.84,3,4.17,7.84,4.17,7.83q24.17,18.24,48.32,35.34c0,.17,38.4,28.12,59,29.74.11,0,.24,0,.35,0h.36c20.58-1.41,59-29.43,59-29.7q24.17-17.28,48.32-36.54h0c.06-.09,3.29-5,4.13-8a22.86,22.86,0,0,0,.83-5.84c0-1.47-.09-3.31-.12-6.36C1056.54,639.17,1056,560.73,1056.41,508.69Z" style="fill: #165016"/>
    <path d="M1002.62,688.69c-5.76-11.14-4.42-2.81-5.79-3.1s-6.85-.32-6.85-.33-4.1-2.16-5.75-2.07-7.4,2-7.4,2q-3-.87-6-1.77l-6.57-2.62s-5.21,1.72-7.13,1.35-8.23-1.94-8.23-1.94-5.76-.4-8-.83-3.28-1.58-5.2-2-2.49.71-5,.66a16,16,0,0,1-4.65-.86,7.16,7.16,0,0,0-2.75,1.47c-1.37,1.17-6.32-.16-8.78-1.87s-10.4-5.72-10.4-5.73q-4.66-4.86-9.33-9.76l-3.31-.22c-2.47-.17-7.37,3.43-8.46,3.74s-6.62,3.89-6.62,3.88l-.27,4.81a21.37,21.37,0,0,1-6.3-3.78c-2.2-2.21-2.18.6-3.55,1.27s-2.48,2.53-3,4.07-1.65,5.07-1.65,5.07a35.73,35.73,0,0,1-4.93-.91c-2.46-.67-2.2,1.37-2.2,1.37s-2.72,1.31-4.1.76-1.92,1-1.92,1-2.73,2.45-4.65,2.62c-1.34.12-2,2.46-2.28,3.86q21.69,16.28,43.39,31.63c0,.17,38.4,28.12,59,29.74.11,0,.24,0,.35,0h.36c20.58-1.41,59-29.43,59-29.7q24.17-17.28,48.32-36.54h0a58.68,58.68,0,0,0,3-5.23c-6,1.39-13.12,3.41-20.2,5.35C1020.2,688.08,1004.86,693,1002.62,688.69Z" style="fill: #b48f42"/>
    <path d="M919,674.87c-2.74-.09-10.2-2.61-11.69-3.78s-6-4-6-4l-7.22-7s1.74,5.92,3.24,9.65,2.73,6,5,6.11,1.74-.27,5,1,6,3.92,9.7,4.07,6,.21,8.7,1.38,7.22-.56,7.22-.56q-4.23-3.16-8.46-6.38A51.48,51.48,0,0,0,919,674.87Z" style="fill: #88552c"/>
    <path d="M921.31,656.85c-1.08.2-8.83,1.93-8.83,1.92-5.65-1.7-7.34,6.74-8.51,16.54,0,0,15.33-.62,15.79-3.82S922.39,656.66,921.31,656.85Z" style="fill: #704624"/>
    <path d="M926.84,598.74s-6.61.81-8.6.25-5-1.69-6.65-1.77c-1.24-.06-2.87-.67-4.16-.6h0a2.18,2.18,0,0,0-1.14.34c-1.33.9-4.33,8-4.33,8,3.65,4.57,6,8.54,6.33,10.5s1,5.38,1,5.38l3.66,2.58,1.34,3,1.29,11.7q-.48,2.88-1,5.76c-.33,1.71-.65,3.41-1,5.12-.19.68-.37,1.36-.55,2l-.12.29c-.87,2.14-1.21,4.93-2,7.13-.52,1.37-1.61,4.06-1.62,4.06s4.46,1.32,6.57.52a14.44,14.44,0,0,0,8.37-7.68c.93-2.16,1.86-5.66.9-7.73a11.45,11.45,0,0,0,1.73-4.77c.33-3.38,1-11.17,1-11.17,0-2.73,0-5.47,0-8.2,0-5.33,0-6.31-.35-14.07S926.84,598.74,926.84,598.74Z" style="fill: #ab883f"/>
    <path d="M927.05,598.7l0-.29-.2,0c-.06,0-6.61.81-8.55.25-.55-.15-1.18-.35-1.84-.56a22.86,22.86,0,0,0-4.84-1.21,11.37,11.37,0,0,1-1.75-.29,9.64,9.64,0,0,0-2.43-.31h0a2.2,2.2,0,0,0-1.22.37c-1.36.93-4.28,7.85-4.41,8.14l-.09.22.14.18c3.47,4.35,5.93,8.39,6.26,10.33s1,5.36,1,5.39l0,.15,3.69,2.6,1.27,2.85,1.29,11.58c-.33,1.9-.65,3.79-1,5.69-.33,1.69-.65,3.39-1,5.09l-.54,2-.11.28a27.92,27.92,0,0,0-1.09,3.73,29.84,29.84,0,0,1-1,3.42c-.51,1.34-1.6,4-1.61,4l-.15.37.3.1a21.86,21.86,0,0,0,4.38.77,5.85,5.85,0,0,0,2.28-.26,14.81,14.81,0,0,0,8.49-7.81c1-2.33,1.83-5.74,1-7.88.11-.2.21-.4.31-.6a9.8,9.8,0,0,0,1.37-4.14c.33-3.35,1-11.09,1-11.21v-8.21c0-5.39,0-6.44-.36-14.09S927.06,598.73,927.05,598.7Zm-.42,44.13a9.3,9.3,0,0,1-1.28,3.86c-.14.25-.27.51-.41.78l-.09.17.09.18c.86,1.88,0,5.15-.91,7.39a14.39,14.39,0,0,1-8.25,7.55c-1.73.66-5.13-.16-6.17-.44.33-.79,1.07-2.63,1.46-3.68a28.47,28.47,0,0,0,1-3.5,26.21,26.21,0,0,1,1.05-3.63l.14-.32c.18-.7.37-1.39.55-2.08l1-5.13q.48-2.88,1-5.76v-.06q-.64-5.88-1.3-11.77l-1.41-3.18-3.62-2.55c-.12-.67-.66-3.53-1-5.24-.35-2.07-2.74-6.06-6.26-10.48.9-2.11,3.13-7,4.14-7.7a2,2,0,0,1,1.06-.31,9.56,9.56,0,0,1,2.35.31,11.75,11.75,0,0,0,1.8.29,22.7,22.7,0,0,1,4.77,1.2c.65.21,1.29.41,1.84.56,1.82.52,7.32-.07,8.46-.21.09.91.37,4,.64,10.37.33,7.63.35,8.68.35,14v8.17C927.65,631.75,927,639.49,926.63,642.83Z" style="fill: #644d1b"/>
    <path d="M930.14,664.56c-.93-.23-10.69,2-10.69,2h0a2.15,2.15,0,0,0-2.94.34c-1.39,1.53-1,2.52-2.48,2.84-2.33.48-4.61,14-4,14.52,0,0,10.16.15,14.72-2.61a10.27,10.27,0,0,0,4.5-5.05C930.57,673.06,931.07,664.8,930.14,664.56Z" style="fill: #704624"/>
    <path d="M924.05,641.57c-1.08,3.13-3.67,11.4-4.6,14.31s-2.48,7.6-2.48,7.6l-2.16,8.5s6.31.11,9.13-1.59a12.23,12.23,0,0,0,5.27-6c2-5.27,2.6-16.28,1.51-18.12S924.05,641.57,924.05,641.57Z" style="fill: #ab883f"/>
    <path d="M924.12,641.28l-.17-.1-.09.24c-.83,2.42-2.58,7.93-3.73,11.58l-.87,2.74c-.92,2.87-2.46,7.55-2.49,7.62-.75,3-1.51,5.95-2.27,8.93h.31c.26,0,6.39.09,9.22-1.62a12.22,12.22,0,0,0,5.36-6.09c2-5.23,2.7-16.44,1.49-18.48C929.77,644.24,924.35,641.4,924.12,641.28Zm4.9,23a11.78,11.78,0,0,1-5.16,5.83c-2.4,1.44-7.45,1.57-8.75,1.57.69-2.68,1.37-5.37,2.06-8,0,0,1.56-4.73,2.48-7.61.21-.67.51-1.63.87-2.74,1.11-3.53,2.78-8.8,3.64-11.32,1,.52,5.47,3,6.4,4.56S931,659.11,929,664.27Z" style="fill: #644d1b"/>
    <path d="M933.92,653.62l-.06,0c0,.09,0,.17,0,.26A2.64,2.64,0,0,0,933.92,653.62Z" style="fill: #ab883f"/>
    <path d="M934.4,649.35c0-1.58-.34,2.17-.48,4.27a1.4,1.4,0,0,0,.39-.3S934.4,651.81,934.4,649.35Z" style="fill: #ab883f"/>
    <path d="M1013.38,540.39c-4.37-2.69-8.09-3.89-12.48-5.46-3-1.09-4.95-2.94-7.47-4.25-3.25-1.69-6.43-3.89-9.87-4.7-6.53-.89-25.83-2.22-27.43-8.61-26.71-11.19-40.89-8.53-54.83-.27h0c-18.08.41,7.56,78.14-10.55,77.15-4.3-1.18,5.16,9.83,5.16,9.82s.48-1.83,3.44-1.65a89.85,89.85,0,0,1,9.73,1.82s8.41,6.55,11.79,14,2.12,1.91,3.39,7.49-.44,16.64-.44,16.63l-2.46,7.09s5.1-2.75,8.06,1.63c2.11,3.13,3.7,2.9,4.44,2.52-2.28-12.23-4.78-16.59,7.94-28a27.91,27.91,0,0,0,5.74-2.28c3.15-1.6,5.7-5.18,8.55-7.74,3.16-2.83,6.21-5.88,9.48-8.44,2.12-1.65,7.65-8.44,6.34-5.44-1.63,3.75,7.09-4.5,8-.7,1.87,7.75,9.18,5.19,13.9,4,3.64-.91,6.66-5.06,9.78-8.15,4.61-4.56,9.86-8.64,13.12-15.32,3-6.22,5.68-14.11,5.21-21.39C1021.4,552.21,1018.34,543.43,1013.38,540.39Z" style="fill: #ab883f"/>
    <path d="M934,654.35c0-.15-.05-.29-.08-.44C933.84,654.89,933.85,655.36,934,654.35Z" style="fill: #ab883f"/>
    <path d="M1013.48,540.07a55.77,55.77,0,0,0-11.58-5.14l-.93-.33a21.43,21.43,0,0,1-4.66-2.53c-.88-.58-1.8-1.19-2.79-1.71-.81-.42-1.62-.87-2.43-1.33a29.63,29.63,0,0,0-7.5-3.38c-1.16-.18-2.72-.36-4.53-.56-8-.89-21.44-2.82-22.72-7.84l0-.16-.11-.05c-12.63-5.25-23.18-7.77-32.27-7.45-7.68.26-14.67,2.48-22.68,7.17a5.49,5.49,0,0,0-4.72,3c-3.65,6.29-2.15,21.66-.71,36.53,1.42,14.5,2.88,29.5-.59,35.17a4.58,4.58,0,0,1-4.44,2.43c-.27-.08-1.13-.31-1.34.43-.53,1.83,4.71,8.11,6.33,10l.24.28.12-.4s.5-1.62,3.22-1.45a89.55,89.55,0,0,1,9.66,1.8c.59.49,8.47,6.81,11.66,13.91,1.73,3.83,2.27,4.31,2.57,4.58s.19.17.8,2.83c1.23,5.44-.44,16.34-.43,16.38l-2.73,7.86.56-.3s5-2.62,7.81,1.54c2,2.92,3.52,3,4.41,2.74-.06.91,0,1.1.18,1.15h.06c.2,0,.24-.31.31-.84v-.15c0-.14-.05-.27-.07-.4h0a2,2,0,0,0,.32-.27l.08-.09a.61.61,0,0,1,0-.14s.08-1.56.08-4c0-.33,0-.7-.24-.72s-.33,0-.59,3.45c-.13-.64-.25-1.27-.38-1.87-1.94-9.71-2.83-14.08,8.46-24.22a27.46,27.46,0,0,0,5.74-2.28,23.2,23.2,0,0,0,5.74-4.91c.93-1,1.88-2,2.85-2.86s1.81-1.65,2.71-2.48c2.18-2,4.44-4.14,6.76-6a40.86,40.86,0,0,0,3.26-3.21,37.87,37.87,0,0,1,2.82-2.8.36.36,0,0,0,0,.09,1.62,1.62,0,0,0-.16,1.28c.3.54,1.08.14,2.84-.81,2.05-1.11,4.87-2.66,5.3-.87,1.78,7.37,8.23,5.77,12.94,4.51l1.21-.31c2.85-.72,5.31-3.36,7.7-5.93.71-.76,1.45-1.56,2.17-2.28.95-.94,1.95-1.88,2.91-2.78,3.76-3.56,7.66-7.27,10.27-12.64s5.77-13.74,5.26-21.63C1021.47,549.55,1017.17,542.34,1013.48,540.07Zm3,41.32c-2.56,5.25-6.41,8.93-10.14,12.44-1,.91-2,1.85-2.91,2.79-.74.73-1.48,1.53-2.19,2.3-2.34,2.52-4.76,5.11-7.49,5.8l-1.22.32c-4.55,1.21-10.78,2.76-12.44-4.09-.58-2.43-3.53-.81-5.89.48a8.64,8.64,0,0,1-2.31,1,1.65,1.65,0,0,1,.17-.52c.13-.3.37-.85.14-1.16s-.79,0-3.58,3a38,38,0,0,1-3.2,3.16c-2.34,1.83-4.61,3.94-6.8,6-.89.84-1.79,1.67-2.7,2.48s-2,1.91-2.88,2.89a23,23,0,0,1-5.62,4.82,27.62,27.62,0,0,1-5.71,2.27l-.09,0C930,635.81,931,640.63,933,650.4c.19,1,.39,2,.59,3-.74.28-2.14.2-4-2.54A5.44,5.44,0,0,0,925,648.3a8.18,8.18,0,0,0-3.22.63L924,642.5c.07-.46,1.71-11.21.44-16.82-.65-2.85-.66-2.91-1-3.21s-.75-.67-2.41-4.37c-3.37-7.48-11.53-13.88-11.88-14.16l-.07,0a89.8,89.8,0,0,0-9.76-1.82c-2.3-.14-3.19.91-3.5,1.49-3.12-3.63-6.24-8-6-8.93,0-.1.24-.22.88,0a5,5,0,0,0,4.82-2.63c3.61-5.9,2.2-20.38.7-35.71-1.43-14.72-2.91-29.94.61-36a5,5,0,0,1,4.43-2.8l.08,0c14-8.31,28.06-10.85,54.56.24,1.59,5.29,14.49,7.15,23.06,8.11,1.8.21,3.36.39,4.5.56a29.17,29.17,0,0,1,7.4,3.35c.81.45,1.62.91,2.43,1.33a32.32,32.32,0,0,1,2.76,1.69,21.2,21.2,0,0,0,4.73,2.57l.93.33a55.7,55.7,0,0,1,11.51,5.11c5.11,3.13,8,12.3,8.42,19.55C1022.2,567.93,1019.16,576,1016.53,581.39Z" style="fill: #644d1b"/>
    <path d="M1018.22,682.7c-.57-.09-4.63-1-4.63-1a17.7,17.7,0,0,0-3,1c-2.88,1.47-5.21,5.31-7.06,11.16,4.67-.28,9.34-.6,14-1C1020,692.64,1019.64,682.91,1018.22,682.7Z" style="fill: #704624"/>
    <path d="M1033.15,620.85c-1.68-9.42-.22-19.87-.39-29.8-.14-8.3,1-17.06-.51-24.89-4.3-22.32-15.36-22.91-15.3-22.36q-5.46,18.42-10.92,36.74s1.48,19,4.37,27.18c2.77,7.87,12,18.83,12,19.56s.39,5,.39,5c-.26,9.48-.66,20.11-.9,31.07a79.48,79.48,0,0,1-10.8,19.55c2.49,1,5,1.88,7.46,2.79l1.79-.76q2.64-5.28,5.27-10.57,3-1,5.92-2.07c-2.47-11.13-.6-21.28.64-31.43a71.5,71.5,0,0,0,2.83-10.15,17.16,17.16,0,0,0,0-5.06C1034.64,623.86,1033.47,622.65,1033.15,620.85Z" style="fill: #ab883f"/>
    <path d="M1034.24,623a8.34,8.34,0,0,1-.87-2.29c-1.09-6.15-.83-12.89-.58-19.4.13-3.4.26-6.91.2-10.32,0-2.68,0-5.47.14-8.16.18-5.64.37-11.48-.66-16.81-4.11-21.35-14.29-23.12-15.5-22.64a.47.47,0,0,0-.25.48l.46-.16a.33.33,0,0,1-.12.33c.23-.12,2.14,0,4.63,1.75,3.38,2.41,7.91,7.87,10.33,20.48,1,5.23.82,11,.64,16.6-.08,2.71-.18,5.5-.13,8.22.06,3.37-.08,6.87-.21,10.26-.25,6.56-.51,13.35.6,19.6a9.39,9.39,0,0,0,.93,2.5,8.22,8.22,0,0,1,.87,2.32,16.5,16.5,0,0,1,0,4.92,72.62,72.62,0,0,1-2.8,10l0,.1c-.15,1.25-.32,2.51-.48,3.76-1.13,8.74-2.3,17.77-.23,27.46l-5.65,2-.09,0-5.28,10.58-1.65.7c-2.34-.86-4.67-1.73-7-2.62A79.79,79.79,0,0,0,1022,663.52l0-.16c.15-6.64.35-13.12.55-19.38q.2-6.06.35-11.75c-.14-1.47-.39-4.4-.39-5,0-.33-.24-.7-2.16-3.34-2.95-4.07-7.9-10.94-9.81-16.36-2.84-8-4.34-26.88-4.35-27.07l-.46.12c0,.19,1.52,19.16,4.39,27.29,1.95,5.52,6.93,12.44,9.9,16.53,1,1.39,1.95,2.69,2,2.89,0,.76.37,4.89.38,5-.1,3.74-.22,7.65-.35,11.69-.19,6.24-.39,12.69-.54,19.31a79.51,79.51,0,0,1-10.72,19.37l-.31.43c2.61,1,5.23,2,7.84,2.93l.06,0,1.95-.82q2.63-5.26,5.26-10.56,3-1,6.09-2.13l-.08-.37c-2.15-9.68-1-18.74.17-27.5.16-1.24.32-2.48.47-3.72a69.24,69.24,0,0,0,2.84-10.19,17.83,17.83,0,0,0,0-5.22A9,9,0,0,0,1034.24,623Z" style="fill: #644d1b"/>
    <path d="M1014.63,613.18h0l3.27,2.05,4.65,5s-1.37-23-.14-21.46-1.69-1.21,3.1,4.39,2.54,5.7,2.54,5.7,2.81,2.79,1.89-.69a31.1,31.1,0,0,1-.78-7.67s.61-1.37,1-8.86c1.28-26.11-3-32.21-3.48-34.21C992.48,547.52,993.24,585.52,1014.63,613.18Z" style="fill: #7d4e28"/>
    <path d="M1041.35,568.2c-.67-3-3.12-11.1-3.12-11.1l-4.56,2.4s2.18,5.72,3.34,8.51c1.47,3.51,3.9,6.25,4.58,10.32s1.77,10.47-.72,13.42c-1.28,1.52-3.36.22-4.56-1.09-7.66-8.38-6.09-14.22-12.47-38.31-1.78-6.41-5.51-9.76-9.84-12.22l3.12,23.14q2.52,5.34,5,10.65s6.62,18.21,12.23,23.66c1.7,1.65,3.91,3.13,6,2.3s4.35-3.94,5.28-7.12c1.57-5.38.71-11.61-.48-16.77C1044.47,572.91,1042.05,571.3,1041.35,568.2Z" style="fill: #ab883f"/>
    <path d="M1043.45,571.87a11.09,11.09,0,0,1-1.88-3.8c-.66-3-3.1-11.05-3.12-11.13l-.08-.26q-2.52,1.34-5,2.64l.14.36c0,.06,2.19,5.77,3.34,8.53a35.91,35.91,0,0,0,1.84,3.61,20.09,20.09,0,0,1,2.72,6.67c.68,4.07,1.71,10.21-.63,13-1.23,1.46-3.27,0-4.28-1.11-5.14-5.61-6.08-10.09-8.13-19.87-1-4.69-2.22-10.53-4.27-18.31a19.45,19.45,0,0,0-10-12.39c-.07.21-.13.42-.19.64a18.93,18.93,0,0,1,9.71,12c2.05,7.76,3.28,13.59,4.26,18.27,2.08,9.91,3,14.45,8.28,20.18,1.12,1.21,3.39,2.79,4.84,1.07,2.61-3.1,1.54-9.51.82-13.8a20.76,20.76,0,0,0-2.8-6.86,35.62,35.62,0,0,1-1.81-3.54c-1-2.35-2.7-6.84-3.19-8.14l4.08-2.14c.42,1.41,2.44,8.17,3,10.81a11.81,11.81,0,0,0,2,4,11.19,11.19,0,0,1,1.87,3.75c1.58,6.84,1.74,12.24.49,16.53-1,3.23-3,6.07-5.11,6.89-1.64.65-3.6-.1-5.82-2.26-5.5-5.34-12.1-23.37-12.18-23.58q-2.52-5.31-5-10.65l-.39.42q2.51,5.31,5,10.61c.27.75,6.71,18.35,12.3,23.78q3,2.89,5.39,2.55a3.69,3.69,0,0,0,.79-.21c2.21-.88,4.45-3.91,5.45-7.34,1.31-4.45,1.15-10-.47-17A11.85,11.85,0,0,0,1043.45,571.87Z" style="fill: #644d1b"/>
    <path d="M1041.28,548.07s-.19,2.44-.49,4.45a11.82,11.82,0,0,1-1.33,3.85,21.81,21.81,0,0,0,.69-2.75,18.53,18.53,0,0,0,.2-3.62,30.06,30.06,0,0,0-.2-4.27,36.22,36.22,0,0,1-.29,3.77c-.3,2.67-.24,1.6-.54,2.3a7.92,7.92,0,0,0-.44,1.43s-.3-3.55-.3-5.41,0-.73.34-2.63a17.82,17.82,0,0,0-.49-5.31c-.07-.43-.09,2-.39,4.43s-.15,2.74-.29,3.63a16.78,16.78,0,0,1-.59,2.17s-.1-3.28-.1-4.15,0-2.14,0-3.22a33.93,33.93,0,0,0-.59-3.36s0,2.73,0,4.37a10,10,0,0,1-.4,2.78,15.55,15.55,0,0,0-.09,2.31l-1.38-4.69s.25,2.59.25,4.06-.25,3.69-.25,3.69-.77-2.82-1.52-6-.26-.69.24,2.55,0,.71,0,3.66-.24,3.68-.24,7,.28,2.92.78,5.06a6,6,0,0,0,3.34,4,1.34,1.34,0,0,1,.25.11,1.17,1.17,0,0,1,.59.56,5,5,0,0,1,.15.7.54.54,0,0,0,.14-.38,3.55,3.55,0,0,0-.14-.92,2.11,2.11,0,0,0-.25-.53,3.22,3.22,0,0,1,.49.79c0,.23.2.9.2.9a2.41,2.41,0,0,0,.1-.8c0-.35-.25-1.26-.25-1.26s.08,0,.2.26l.39.73.1.35-.1-1.14c-.1-.2-.2-.4-.29-.6l0-.08a1.21,1.21,0,0,1,.39.52c.08.28.34,1,.34,1s0-.44,0-.79a8.36,8.36,0,0,0-.15-1.2c0,.05,0,.1.1.2.2.32.49.62.49.86s0,.93,0,.64.05-.33.05-.8a9,9,0,0,0-.05-1.14l.45,1.66c0-.36,0-.72,0-1.07s0-.57,0-.86a1.94,1.94,0,0,0,0-.28l.19-.18a5.08,5.08,0,0,1-.05-1.21,9.91,9.91,0,0,1,.15-2.46,15.82,15.82,0,0,0,.54-4.1c.08-2,.12-.33.35-3.21a40.5,40.5,0,0,0-.05-5.23C1041.58,546.84,1041.28,548.07,1041.28,548.07Z" style="fill: #584e19"/>
    <path d="M1041.66,549.23c0-1.45-.11-1.58-.21-1.59h0c-.11,0-.19.26-.22.43,0,0-.2,2.45-.5,4.43a10.47,10.47,0,0,1-.89,3,15,15,0,0,0,.41-1.83,9.44,9.44,0,0,0,.18-2.07c0-.33,0-.77,0-1.56a31.28,31.28,0,0,0-.2-4.31c0-.05,0-.1-.09-.08s-.07.07-.07.13,0,1.13-.29,3.75c-.2,1.75-.23,1.85-.31,1.92a.8.8,0,0,0-.22.34,7.06,7.06,0,0,0-.33,1c-.08-1-.26-3.49-.26-4.92a4.08,4.08,0,0,1,.08-1.36,7.25,7.25,0,0,0,.26-1.25,16.56,16.56,0,0,0-.44-5.1c0-.12,0-.21,0-.26s0-.13-.09-.12h0c-.09,0-.09.06-.15,1s-.13,2.19-.3,3.54-.19,2.11-.21,2.62a6.87,6.87,0,0,1-.08,1,13.37,13.37,0,0,1-.45,1.72c0-.92-.08-3-.08-3.7v-.54c0-.81,0-1.81-.05-2.69a33.24,33.24,0,0,0-.6-3.39.08.08,0,0,0-.07-.07h0a.13.13,0,0,0-.07.12s.05,2.75.05,4.37a7,7,0,0,1-.24,2c-.05.21-.11.43-.15.7a11.41,11.41,0,0,0-.11,1.73c-.41-1.38-.81-2.76-1.22-4.14,0-.05,0-.07-.09-.05a.14.14,0,0,0-.06.13s.25,2.59.25,4c0,1-.13,2.51-.2,3.23-.24-.88-.84-3.15-1.42-5.63-.38-1.61-.39-1.6-.48-1.54s-.09.05.2,1.82c.11.67.24,1.49.38,2.35.26,1.72.24,1.77.18,1.89s-.19.37-.19,1.75,0,2.31-.11,3.26-.13,2-.13,3.73a10.07,10.07,0,0,0,.42,3.76c.11.34.23.74.37,1.33a6.08,6.08,0,0,0,3.39,4.12l.18.08.07,0a1.15,1.15,0,0,1,.54.51,5.36,5.36,0,0,1,.14.67.07.07,0,0,0,.05.07h0l0,0a.79.79,0,0,0,.18-.49,3.27,3.27,0,0,0-.09-.7l0,.1c0,.22.19.88.2.91s0,.07.07.07h0a.08.08,0,0,0,.07-.07,2.37,2.37,0,0,0,.1-.87c0-.19-.08-.54-.14-.82l.34.63.1.35s.06.08.09,0a.14.14,0,0,0,.06-.13c0-.38-.07-.76-.1-1.13a.07.07,0,0,0,0,0l-.15-.31a.84.84,0,0,1,.16.27c.08.28.33,1,.34,1s0,.08.08,0a.1.1,0,0,0,.07-.1s0-.46,0-.82a5.56,5.56,0,0,0-.07-.72,1,1,0,0,1,.08.11,1.24,1.24,0,0,1,.27.5c0,.27,0,.83.13.81s.08-.07.08-.13v-.06a2.16,2.16,0,0,1,0-.28,4.64,4.64,0,0,0,0-.52V567l.24.91c0,.05,0,.08.09.05a.11.11,0,0,0,.06-.12c0-.36,0-.72,0-1.07s0-.56,0-.84v-.23l.15-.13a.16.16,0,0,0,0-.11,1.58,1.58,0,0,0,0-.32,3.06,3.06,0,0,1,0-.87,5.94,5.94,0,0,0,0-.84,4.32,4.32,0,0,1,.13-1.59,16,16,0,0,0,.55-4.14,4.91,4.91,0,0,1,.11-1.21,11.42,11.42,0,0,0,.23-2,17.53,17.53,0,0,0,0-3.25C1041.7,550.73,1041.66,550.16,1041.66,549.23Zm-.11,5.24a11.69,11.69,0,0,1-.23,1.94,5.32,5.32,0,0,0-.12,1.28,15.77,15.77,0,0,1-.53,4,4.62,4.62,0,0,0-.15,1.71,6.94,6.94,0,0,1,0,.79,3.3,3.3,0,0,0,0,1,1.36,1.36,0,0,1,0,.2l-.15.13a.15.15,0,0,0,0,.13.92.92,0,0,1,0,.27c0,.29,0,.57.05.86v.29l-.25-1c0-.06-.07-.08-.1-.06a.15.15,0,0,0,0,.14c0,.28,0,.66,0,1a2.49,2.49,0,0,0-.26-.41l-.19-.27a.61.61,0,0,1-.07-.15l0,0a.06.06,0,0,0-.1,0,.17.17,0,0,0,0,.14,9.88,9.88,0,0,1,.14,1.17c0,.13,0,.26,0,.39-.08-.23-.18-.53-.23-.69a1.28,1.28,0,0,0-.42-.56s-.07,0-.1,0l0,.08a.14.14,0,0,0,0,.14l.29.58c0,.16,0,.32,0,.48-.09-.17-.22-.42-.3-.55a.89.89,0,0,0-.22-.29.08.08,0,0,0-.09,0,.19.19,0,0,0,0,.13s.2.9.24,1.24a1.36,1.36,0,0,1,0,.4c0-.2-.1-.45-.12-.57a3,3,0,0,0-.51-.84.06.06,0,0,0-.11,0,.18.18,0,0,0,0,.16,1.77,1.77,0,0,1,.23.51,3.31,3.31,0,0,1,.15.87.28.28,0,0,1,0,.13,4,4,0,0,0-.12-.52,1.22,1.22,0,0,0-.63-.61l0,0-.2-.08a5.93,5.93,0,0,1-3.29-4c-.14-.61-.27-1-.38-1.35a9.93,9.93,0,0,1-.4-3.67c0-1.7.06-2.72.12-3.71s.12-1.85.12-3.28.1-1.49.16-1.61.12-.25-.16-2.08c-.13-.87-.27-1.68-.38-2.35,0,0,0-.09,0-.14v0c.75,3.17,1.52,6,1.53,6s0,.08.08.06.06,0,.07-.1.25-2.25.25-3.71c0-.94-.11-2.34-.18-3.23.39,1.31.77,2.62,1.15,3.92,0,.05.06.08.09.06a.14.14,0,0,0,.07-.13,13.65,13.65,0,0,1,.09-2.27c0-.27.1-.48.15-.68a7.11,7.11,0,0,0,.25-2.13c0-1.06,0-2.59,0-3.53a24.11,24.11,0,0,1,.42,2.55c.06.87,0,1.87,0,2.67V546c0,.87.1,4.12.1,4.15s0,.1.06.1.07,0,.08-.07a16,16,0,0,0,.6-2.19,6.29,6.29,0,0,0,.09-1.05,24.18,24.18,0,0,1,.21-2.59c.16-1.36.24-2.69.29-3.57l0-.42a16.05,16.05,0,0,1,.41,4.84,8.73,8.73,0,0,1-.25,1.21,4.34,4.34,0,0,0-.1,1.45c0,1.85.29,5.39.3,5.43a.08.08,0,0,0,.07.09h0a.12.12,0,0,0,.08-.1,7.45,7.45,0,0,1,.43-1.39.71.71,0,0,1,.16-.26c.14-.13.18-.16.4-2.09.13-1.19.2-2.07.24-2.68a27.67,27.67,0,0,1,.09,3.18c0,.8,0,1.25,0,1.58a8.78,8.78,0,0,1-.17,2,15.56,15.56,0,0,1-.7,2.72c0,.12-.07.2,0,.25s.11,0,.16-.14l.1-.21a11.48,11.48,0,0,0,1.24-3.69c.29-2,.49-4.43.49-4.43a.68.68,0,0,1,.06-.2,5.84,5.84,0,0,1,.08,1.36c0,.94,0,1.51.08,2A16.93,16.93,0,0,1,1041.55,554.47Z" style="fill: #3c3311"/>
    <path d="M1019.94,554.17c-3.11-2.58-4.86-6.55-7-9.42q-19.79,24.4-39.56,47.56c.29,7.27.23.29,1.46,5.47,2.61,11,19.51,37.89,19.32,35.14l-.84,8.68c-2.16,12.62-7.61,17.53-12.45,23.84,0,0-3.57.18-4.85,1.77s-1.9,6.54-1.9,6.54q4,4.88,8,9.69l3.66-6.24q4.22-2.87,8.43-5.78c-.63-1.39-1.26-2.79-1.9-4.18,5.92-14.06,12.65-23.5,15-28.3,0,0,2.79,1.35,3.59,0,2.23-3.87-1.57-9.43-1.69-14.32-.15-6.27,1.26-18.91,1.26-18.91s7-13.84,8.65-21.85c.75-3.73,1.59-8.56,2.12-13.26C1022.05,563.11,1022.14,556,1019.94,554.17Z" style="fill: #ab883f"/>
    <path d="M1020.06,553.87a25,25,0,0,1-4.92-6.32c-.67-1.09-1.31-2.12-2-3.06l-.33.52c.68.91,1.31,1.94,2,3a25.26,25.26,0,0,0,5,6.44c1.79,1.48,2.19,7,1.17,16.07-.62,5.45-1.59,10.62-2.11,13.22-1.58,7.85-8.54,21.6-8.61,21.73l0,.07v.09c0,.13-1.43,12.74-1.27,19a23,23,0,0,0,1.24,5.94c.91,3,1.78,5.93.5,8.13-.5.87-2.31.41-3.32-.09l-.17-.08-.11.22c-.71,1.48-1.85,3.39-3.28,5.81a175.29,175.29,0,0,0-11.7,22.51l-.08.19,1.83,4q-4.1,2.82-8.19,5.6c-1.19,2-2.39,4.05-3.58,6.07q-3.84-4.65-7.67-9.34c.13-.92.76-4.87,1.79-6.16,1.2-1.49,4.67-1.67,4.7-1.68H981l.07-.09c.77-1,1.57-2,2.35-3,4.1-5.07,8.33-10.36,10.17-21.1.27-2.83.55-5.66.82-8.5a.71.71,0,0,0,0-.26H994l0,0c0-.06.09-.07.1-.06-1.15-.18-16.52-24.54-19-35.11-.44-1.86-.73-2.2-1-2.3a.33.33,0,0,0-.32,0c-.07-.63-.13-2.21-.17-3.12l-.46.05c.14,3.56.19,3.71.41,3.85s.29,0,.35-.11l0-.06s.24.11.66,1.88c2.34,9.84,16.74,33.94,19.27,35.46-.27,2.72-.53,5.45-.8,8.17-1.79,10.48-6,15.7-10,20.69-.75.94-1.53,1.9-2.29,2.89-.58,0-3.69.31-4.91,1.84s-2,6.54-2,6.75l0,.19q4,4.93,8.05,9.81l.17.21q1.89-3.21,3.77-6.44,4.33-2.94,8.65-5.92c-.66-1.44-1.31-2.89-2-4.33A174.81,174.81,0,0,1,1004.15,645c1.38-2.32,2.48-4.18,3.21-5.65.67.3,2.89,1.14,3.68-.22,1.47-2.55.51-5.75-.42-8.85a23.25,23.25,0,0,1-1.21-5.71c-.14-5.9,1.13-17.64,1.26-18.76.61-1.19,7.08-14.13,8.65-21.89.52-2.62,1.5-7.82,2.12-13.31C1022.51,561.14,1022.05,555.52,1020.06,553.87Z" style="fill: #644d1b"/>
    <path d="M965.87,688.33q7.46-.2,14.91-.57c2.44-1.84,2.18-4.11,2.32-6.31q-4.38-3.72-8.74-7.48C971,674.5,968.23,679.88,965.87,688.33Z" style="fill: #704624"/>
    <path d="M967.87,686.84l4.54-.66,3.51-7.61L974,676.41C970.54,678.3,969,682.36,967.87,686.84Z" style="fill: #b48f42"/>
    <path d="M1011,684.1c-3.76,3.29-4,5.67-5.24,8.29,1.79-.15,3.57-.32,5.35-.5l2.5-6.72L1011,684.1Z" style="fill: #b48f42"/>
    <path d="M912.45,678.18a34.88,34.88,0,0,0-.32,4.67l5-1,.32-8.41s-2.72-.35-3.21-.37S912.82,676.35,912.45,678.18Z" style="fill: #b48f42"/>
    <path d="M906.52,667.59a55.77,55.77,0,0,0-.81,6l4-.27c.7-3.17,1.39-6.34,2.09-9.51l-3.53-1.1A39.76,39.76,0,0,0,906.52,667.59Z" style="fill: #b48f42"/>
    <path d="M932.58,614.43c-1,.19-3.66,1.21-5,.6s-2-.19-3.52-1l-.34.06.39.29s1.52,2.33,3.08,2.94,1.51.25,3,.43,2.14-.31,2.53-1a27.64,27.64,0,0,1,1.81-2.82C935.36,612.84,933.55,614.23,932.58,614.43Z" style="fill: #866925"/>
    <path d="M971.86,560.9c-4.28,1.09-17.15,7.61-21.43,7.6s-13.48-2.71-17.15-2.79-11-6.53-11-6.54-4.29,9.69-2.45,13.33,6.13,11.83,9.19,18.16,5.51,20.68,5.51,20.68,18.38-4.28,25.73-8.08a125.62,125.62,0,0,0,11.63-6.58s0-9.84,1.23-16.15,1.22-13.46,5.51-21.7S976.15,559.86,971.86,560.9Z" style="fill: #9e7e3a"/>
    <polygon points="922.25 559.17 922.25 559.17 922.25 559.17 922.25 559.17" style="fill: #9e7e3a"/>
    <path d="M949.85,511c-1.11-.8-7-2-7-2q-3.06-1.23-6.12-2.51c-3.26-.46-6.52-.95-9.78-1.45l-6.11-1s-2.48-5.37-3.87-4.61-3.07.29-5.3-.22a13.31,13.31,0,0,0-5.86.16c-1.39.34-6.11,2.08-7.23,2.41s-3.06,1-4.18-.26-.86-3.7-.86-3.7h0a12.31,12.31,0,0,0-3.62,1.76,18,18,0,0,1-4.43,2.94c-2.23,1.05-3.51,6.42-3.51,6.42l-.72.54a6.78,6.78,0,0,1-2.49,1.88c-1.4.49-1.24,1.47-1.94,3a6.18,6.18,0,0,1-2.24,2.48,4.1,4.1,0,0,0-2.34.83c-.7.75-2.4,2.83-2.4,2.83s-2-.4-2.65.35a15.34,15.34,0,0,1-2.9,1.95,7.54,7.54,0,0,1-4.18.77c-1.53-.16-1.53-.17-2.64-1.91s-2.4.82-3,1.17-1.65-.2-2.34-.48-1.13-2.39-1.68-2.05-.68,2.55-.82,3.55a17.75,17.75,0,0,1-1.53,3.55s-2.13.54-3.1.83-1.66,0-2.5.52,0,.61-.25,3-.17,1.44-.31,2.64-1.93,1-1.93,1q-.17,3.43-.31,6.88v5.28l5-.21,5.55-.18s.83.52,3.06,3.61,3.37-1.29,4.48-4.43,4.74-8,4.74-8l3.06-3.79s3.37-2.1,5-2.35,6.12-.31,7.23,1c.56.65,1.16,3.45,1.68,6.24a.16.16,0,0,1,0,.07c-.95,7-1.53,16.28-1.52,18.62,0,3.76,11.51,40.56,11.51,40.54s7.17,4.58,8.71,5.78a23.91,23.91,0,0,1,5.4,7.67,68.15,68.15,0,0,1,1.52,8.42c.7-6.57.76-4,1.13-5.95l.66,6.42v4.46c-1-.11-1.82,1.65-2.55,4q2.81-.59,5.6-1.2l2.55,10.9s4.74,9.77,5.76,10.18c.66.27,7,7,11.54,7.82,2.55.43,4.34-4.63,4.8-4.9,1.28-.71,9-6.55,9-6.56h-2.64l-5.42.53q2.94-3.15,5.86-6.33L935.49,638a22.92,22.92,0,0,0,2.8-3.68c.77-1.49,3.06-5.55,3.06-5.55l-4.84.32s-2.6-7.17-2.85-8.3-2.29-5.69-3.06-7.57-1.28-1.88-1-3.74,1.28-5.17,1-7.05a78.25,78.25,0,0,0-3.06-10.19c-.76-1.88-2.8-6.39-2.8-6.39s-1.83-9.42-2.6-10.94-.5-3.36-2.29-5.29-3.56-4.66-3.56-6.16a16,16,0,0,0-1.28-3.92s0,0,0-.07c-.85-2.08-1.87-4.25-2.29-5.08-.71-1.42-3.17-5.55-3.57-6.2a59.17,59.17,0,0,0,8.15-1.57c2-.74,2.53-3.2,2.81-5.63a78.93,78.93,0,0,0,.25-11.82,45.9,45.9,0,0,0-1.12-7.33c-.56-3.27.57-4.86,1.68-6.86s1.69-3.21,3.92-3.15,5,4.23,5.86,4.24,1.08-.39,3.31-1.57,5.29.12,7.8.54,8.36,2,10,2S966,525.75,966,525.72s-6.66-8-8.61-9.56S951,511.77,949.85,511Z" style="fill: #9e7e3a"/>
    <path d="M882.83,531.54c-5.66-6.38-8.66-6.92-10.78-6.59s-11-1.82-12.56.07a57.51,57.51,0,0,1-9.37,7.77c-2.47,1.53-3.71,1.12-5.13,4.06s-5.65,6.81-5.65,6.8h0c.35,1.34.7,7.06.17,8.8s-1.59,5.75-1.59,5.75a4.17,4.17,0,0,1,2.3,0c1.06.39,2.65,2.9,2.65,4.45s-1.24,6.05-.88,8.16a23.75,23.75,0,0,0,2.12,5.42l1.95,1.77,2.29,1.56s1.94,3.64,3,6.08,2.48,7.44,3,8.53,1.23,4.27,1.76,5.62a7.64,7.64,0,0,0,2.67,3.07,13,13,0,0,0,3.35,1.42l1.94.2,2.83,2.34,3.36.83,2.12-.32s3.71-.7,5-2.41,6.19-5.94,6.19-6,4.42-2.24,4.42-5.6-1.24-7.58-.35-15,.88,4.71,1.06-8.19,3.36-3.37-.89-20.72S888.49,537.92,882.83,531.54Z" style="fill: #9e7e3a"/>
    <path d="M870.28,593.94a3.89,3.89,0,0,0-.93,1.78c-.24,2,0,3.18-.38,5.06-.31,1.38-1.67,2.09-2.43,3.2-1.3-1.22-4.15-3.35-4.45-3.83a20.76,20.76,0,0,1-1.06-2.29s-.51,2.25-1.11,2.19-2.3.73-2.2,1.89c.14.14.29.27.43.39s.46.37.67.53a13.12,13.12,0,0,0,3.31,1.44l2,.19,2,1.7.78.65,3.19.82a14.86,14.86,0,0,0,1.38-3.1,16,16,0,0,0,.47-6.68A9.58,9.58,0,0,0,870.28,593.94Z" style="fill: #704624"/>
    <path d="M845,577.07l1,.94,1,.71c1.18-1.32.6-3.69.26-5.92C846.68,575.61,845.88,576.57,845,577.07Z" style="fill: #704624"/>
    <path d="M886,570.42a.14.14,0,0,1,.22-.08c0,.21-.11.41-.17.62h.24c.13-.1.18-.31.21-.61l-.46-.14A1.32,1.32,0,0,1,886,570.42Z" style="fill: #262626"/>
    <polygon points="866.13 588.45 866.13 588.45 866.13 588.45 866.13 588.45" style="fill: #794c27"/>
    <path d="M885.5,574.26c-1.26-.09-4.88-.38-6.41-.71s-2.79,2-3.35,3.58a3.26,3.26,0,0,1-2.92,2.59c-1.67.25-2.93.34-4.6.59s-1.39-.34-2.51,1-4.87,1.35-4.87,1.35,1.53,3.2,2.37,3.49a15.64,15.64,0,0,1,2.92,2.32,37.7,37.7,0,0,1,4.46-2.83c1-.52,2.79-1.38,3.62-1.3s2.65-1,3.76-.7a10.2,10.2,0,0,1,2.93,2.08l1.11-5s2.09-4.31,2.51-5.09S886.75,574.35,885.5,574.26Z" style="fill: #794c27"/>
    <path d="M900.74,605.47c-.87-1-3.44-1.4-4.13-3.88l-1.05-.76s-1.12,1.08-1.4-1-4.29-2.42-4.29-2.42.36-9.19.08-10.84c-3.32,5.91-3.86-2.42-5.29,0l-.84,4.82-1.11,3.17s-.4,1.76-2,.6c-.91-.65-2.82-4.45-3.71-4.33s.17,11.82-1.5,11.44-3-4.69-3-3.19c-.06,3.3-2.29,7.83-2.29,7.83s2.51,5.52,2.79,7.17-1.67,3.92-1.67,3.92v3.66l3.9-.87s.83-1.56.55,0a19,19,0,0,1-1.11,3.57s2.51,1.44,3.62.72,1.67-4.75,1.67-4.75c.19-1.74.38-3.49.56-5.24l2.51,6.3,3.06,2.68-1.11-3.34q-.56-3.7-1.12-7.41l3.07,3.9s2.23,1,3.9-.13.56-1.18.56-1.18l-2-1.77s-1.68-4.18-1.68-5.81a12,12,0,0,1,1.12-4l2.29,3.49,1.79,1.7c1.61,4.28,2.94,8.28,2.47,10.53,1.58-3.65.34-7.07.41-11.58l3.23,1.87q.65,3.76,1.3,7.55l2.61-8C901.65,608.6,902,607,900.74,605.47Z" style="fill: #794c27"/>
    <polygon points="889.95 586.59 889.95 586.59 889.95 586.59 889.95 586.59" style="fill: #794c27"/>
    <path d="M902,607.61a5.91,5.91,0,0,0-1.16-2.4,4.93,4.93,0,0,0-1.38-1,4.7,4.7,0,0,1-2.68-2.77l0-.12-1.26-.91-.11.11c-.1.1-.43.33-.67.17s-.31-.58-.36-.92c-.27-2-3.33-2.56-4.28-2.68.07-1.72.32-9.09.07-10.6l-.12-.68c-.09.18-.19.35-.29.52-.77,1.37-1.45,2.06-2,2h0c-.56,0-1-.74-1.39-1.42s-.69-1.15-1.13-1.19c-.25,0-.49.18-.72.57-.29,1.63-.58,3.26-.86,4.88-.38,1.07-.76,2.14-1.13,3.21a1.17,1.17,0,0,1-.47.7q-.48.26-1.23-.27a10.1,10.1,0,0,1-1.41-1.83c-.92-1.35-1.78-2.62-2.42-2.54s-.67,1.83-.7,5.17c0,2.49,0,5.58-.56,6.19a.16.16,0,0,1-.19.08c-.92-.21-1.7-1.62-2.23-2.56-.38-.69-.58-1-.82-.93s-.23.48-.23.61c-.06,3.16-2.23,7.6-2.25,7.65l-.09.18.09.2c0,.06,2.49,5.49,2.75,7.06.2,1.18-1.08,3-1.6,3.59l-.08.09v4.24l4.27-1,0-.1.14-.23a19.15,19.15,0,0,1-1.08,3.44l-.15.35.28.15a7.44,7.44,0,0,0,2.65.93,1.83,1.83,0,0,0,1.15-.21c1.2-.78,1.77-4.8,1.79-5,.16-1.44.31-2.88.46-4.32.73,1.83,1.45,3.65,2.18,5.47l0,.08,3.77,3.3c-.47-1.42-1-2.84-1.43-4.26l-1-6.43,2.54,3.23.09.07a4.65,4.65,0,0,0,4.06-.14c.83-.54,1.11-.91,1-1.33a.55.55,0,0,0-.52-.49L889.56,614a24.42,24.42,0,0,1-1.6-5.57,10.81,10.81,0,0,1,.92-3.46l2.13,3.23,1.73,1.65c1.53,4,2.87,8.07,2.43,10.19l.42.3c1.1-2.53.88-5,.65-7.61-.1-1.17-.2-2.37-.21-3.67l2.81,1.62c.47,2.77.95,5.54,1.42,8.31l3-9.1-.16-.17A4.77,4.77,0,0,1,902,607.61ZM900.39,617c-.39-2.26-.77-4.53-1.16-6.79l-3.65-2.11c0,.15,0,.31,0,.46,0,1.53.1,2.91.21,4.25a17.58,17.58,0,0,1-.09,5.67,37.86,37.86,0,0,0-2.57-9l0-.08-1.79-1.69-2.5-3.79-.15.33a12.2,12.2,0,0,0-1.16,4.17c0,1.7,1.64,5.82,1.71,6l0,.08c.68.63,1.37,1.25,2.06,1.87h.07a4.32,4.32,0,0,1-.67.53,4.37,4.37,0,0,1-3.7.13l-3.54-4.5c.43,2.82.85,5.64,1.28,8.46l.78,2.34-2.35-2.06q-1.41-3.53-2.81-7.05-.33,3.08-.65,6.15c-.15,1.07-.72,4-1.55,4.51s-2.35-.15-3.17-.57a19.84,19.84,0,0,0,1-3.29c0-.32.16-.9-.12-1.12-.09-.07-.3-.23-.8.65l-3.53.79V618.2c.41-.5,1.94-2.49,1.66-4.15a50.73,50.73,0,0,0-2.73-7.09,23.52,23.52,0,0,0,2.23-7.58l.25.43c.57,1,1.43,2.57,2.53,2.83a.55.55,0,0,0,.55-.22c.61-.75.68-3.13.72-6.68,0-1.73,0-4.34.3-4.55.41-.08,1.34,1.33,2,2.33a9.09,9.09,0,0,0,1.55,2,1.45,1.45,0,0,0,1.6.3,1.78,1.78,0,0,0,.71-1c.37-1.08.75-2.16,1.13-3.24.27-1.58.55-3.16.82-4.74.13-.2.24-.3.34-.3s.49.46.78.94c.44.74,1,1.67,1.78,1.67s1.29-.54,2-1.7c.1,2.12,0,7.25-.16,10,0,.12,0,.24,0,.35l.24,0c1.48.14,3.9.84,4.08,2.13a1.93,1.93,0,0,0,.64,1.44.88.88,0,0,0,1-.12l.86.62a5.28,5.28,0,0,0,2.92,3,4.84,4.84,0,0,1,1.25.86,5.28,5.28,0,0,1,1,2.13,5.79,5.79,0,0,0,1,2.2Z" style="fill: #b46531"/>
    <path d="M864.34,526c-1.57.17-3.15-1-4.5-.45a15.32,15.32,0,0,1-4.12.94c-1.58.16-6,.22-7.54,3.32a45.59,45.59,0,0,0-2.74,8.94,9.79,9.79,0,0,1,3.83-.55c1.8.21,3,2.59,5.73,2.55s4.17-4.43,5.52-5.93,2.58-.35,4.61-.81,5.32-5.29,6.45-6.17,6.1-7.89,6.1-7.89l-9.28,4.47A12.3,12.3,0,0,1,864.34,526Z" style="fill: #8c7033"/>
    <path d="M856,542.66c-.41-.86-2.92-1.33-3.76-1.42s-1.81-1.83-3.34-3-1.12-2-2.79-6l-.83,1.12a29,29,0,0,0-2,3c-.84,1.52,1,4.18,1.53,4.25a8.16,8.16,0,0,1,1.95.83c.56.27,4.18,5.57,4.74,6.44a12.18,12.18,0,0,0,3.9,3.28c1.25.54,1.25-4.75,2.78-5.2S856.38,543.52,856,542.66Z" style="fill: #85522b"/>
    <path d="M901.75,571.81c-.47-1.52-.93-3-1.4-4.57l-.28-6.13s.56-3.64-.56-4.52a20.35,20.35,0,0,0-3.07-1.82l1.4-4-3.35.6-.84-2.5s2.23-2.71,1.12-3.19a10.56,10.56,0,0,0-2.8-.6,34.22,34.22,0,0,0-1.39-5.8c-.84-2.1-2.24-5.47-2.24-5.47v-9c-1-1.84-2.05-3.68-3.07-5.53,0,0-5.58,6.09-6.7,6.81s-.84-4.56-2.79-1.47-5.31,4.43-7,6.71-3.35,2.13-3.35,4.58c0,1.42-3.57-3.86-5.57-2.62a5.62,5.62,0,0,1-5-.4c-2.19-1.27-4.57-5.07-4.91-4.72s-2.7,2.91-1.93,4.3c.38.67,1.35,2.94,3.06,4,2.09,1.31,4.95,1.39,4.91,1.66-.35,2.41,2.18,3.76,1.34,3.88-3.35.46-1.67,3.49-3.07,5.79s-4.19-7.4-5.86-7.59-5.59-1.87-6.71-1.19-2.51,3.36-2,7.51,2.51,8.46,3.35,12.23,1.68,8.76,1.68,8.76c.28-2.82.55-5.64.83-8.46l2.52,4.77s-1.12,4.77,0,8.57a35.66,35.66,0,0,0,3.63,7.75l2.79,2.36s4.39,8.39,5,6a7.35,7.35,0,0,1-.4-4l3.83,1.71,3.35.74,1.68,1c.18-1.47.37-3,.55-4.43,0,0,1.68-2.29,3.63-2.11s3.64.73,4.75-.81a23.74,23.74,0,0,0,2.24-5.11l.28,0a64.43,64.43,0,0,1,6.7-.28c1.95.15,5.86.42,7.82.55s5.31-.07,5.3-.07,5,1.92,5.31,4.38,3.63,11.2,3.63,11.2l-2.79-14.82Z" style="fill: #704624"/>
    <polygon points="856.03 554.92 856.03 554.92 856.03 554.92 856.03 554.92" style="fill: #9e7e3a"/>
    <path d="M871.39,558.07c1.26,1.34,4.05,3.63,4.05,3.63l-2.65-4.11c-1.12-1.73-2.65-3.91-4-4.25s-3.07-1.72-3.63-1.16-1,4.39-1,4.39a1.8,1.8,0,0,1-1.25-1.35c-.14-1,.42-3.42-.42-1.88s-1.82,4.92-2.66,5.24-1.25,1.7-1.81-.19a10.52,10.52,0,0,0-2-3.47c-.83,2.56-1.39,7.19-1.95,10.39a25,25,0,0,0-.56,5.45,11.43,11.43,0,0,0,1,4.18c.42.86,2.37,4.13,3.49,3.23a15.06,15.06,0,0,0,2.51-3.82s.84,4.37,1.68,5.07,2.93-.53,3.21-1.32,1-2.55,1.54-.26,1,4.79,1.81,2.22.84-4.82,2.1-7.15a25.23,25.23,0,0,0,1.95-4.51c.42-1.19,1.68-.67-.14-4.09s-3.21-5.19-3.21-5.8S870.14,556.74,871.39,558.07Z" style="fill: #9e7e3a"/>
    <path d="M867.14,564.3a5.74,5.74,0,0,0-3.57,0c-.85.39-2,.11-2.16,2.23s-.42,4-.07,5,1.57,2.91,2.65,3c.2,0,.55-.18.49-.46-.08-1.18,1.62-.16,2.38-.49a4.22,4.22,0,0,0,2.23-1.52c.7-1.13.56-3,1-4.39.22-.6,1-1,.84-1.65C870.51,564.15,868.45,564.6,867.14,564.3Z" style="fill: #8c7033"/>
    <path d="M864.32,567.81a3.51,3.51,0,0,0-.87,3.57c.49.93,1.67.84,2.63-.21a3.47,3.47,0,0,0,.87-3.56C866.46,566.68,865.29,566.77,864.32,567.81Z" style="fill: #634324"/>
    <path d="M863.14,566.83c-.88,1.33-.11,5.72-.11,5.72h0c1-4.64,2.6-6.87,6.48-6.34C869.51,566.22,864.57,564.65,863.14,566.83Z" style="fill: #614c32"/>
    <path d="M863.26,563.55a5.46,5.46,0,0,0-1.84.53c-.5.31-.5,1.55-.74,2.61s-1.15,1.41-1.52,2.63a2,2,0,0,1-1.86,1.4c-.49.13-1.3,3.4-1.3,3.4l1.23.31a19.2,19.2,0,0,0,1.72-2c.74-1,1.6-.91,2.22-1.39s.86-2.07.86-2.79a5.59,5.59,0,0,1,1.11-2.94,7.82,7.82,0,0,1,3.57-.55,17.45,17.45,0,0,0,2.7.44s-1.47-1.76-2.95-1.9A10.34,10.34,0,0,0,863.26,563.55Z" style="fill: #6e4523"/>
    <path d="M877.82,534a7.85,7.85,0,0,0-4.89,2.23c-2.17,4-1.07,7.7-1.26,12.33-2.58.31-3.44,3.69-4.6,5.68l5.16,3.34c2.86-1.61,5.28-5.22,7.4-10.17C878,544.16,877.54,539.14,877.82,534Z" style="fill: #ac9076"/>
    <path d="M878.05,534l0-.43-.29,0a8,8,0,0,0-5,2.27l0,.07c-1.6,2.92-1.48,5.75-1.36,8.75.05,1.12.1,2.28.06,3.49-2,.35-2.92,2.4-3.78,4.22-.27.56-.52,1.09-.78,1.54l.36.46c.28-.47.53-1,.81-1.59.87-1.85,1.77-3.76,3.65-4l.19,0v-.27c.05-1.35,0-2.62,0-3.84-.13-3-.24-5.55,1.23-8.27a7.46,7.46,0,0,1,4.47-2.11c-.18,4,0,9.38,1.79,13-2.22,5.15-4.58,8.37-7.21,9.85.06.21.12.42.19.64,2.75-1.55,5.2-4.92,7.5-10.3l.09-.19-.1-.19C878,543.57,877.83,538,878.05,534Z" style="fill: #865c00"/>
    <path d="M861.61,595.58a13.17,13.17,0,0,0,.69,3.77,9,9,0,0,0,1.61-3.2,14.05,14.05,0,0,0-.69-4.1A10.42,10.42,0,0,0,861.61,595.58Z" style="fill: #704624"/>
    <path d="M892,554.16c-1.44-1.14-3.3-.51-4.8.21-4,2-10.37,10.68-10.37,10.68l4.42,7.94,4.51-1s4.37-2.62,6-5a14,14,0,0,0,1.63-4.52,11.76,11.76,0,0,0,.38-4.18C893.48,556.67,892.94,554.91,892,554.16Z" style="fill: #9e7e3a"/>
    <path d="M882.09,570c2.68-1.3,3.69-4.5,4.61-7.78-2.37,2.86-4.74,4.27-7.1,4.49Z" style="fill: #7f512a"/>
    <path d="M958.92,520.05c.44.12.18,0-.44-.22A1.78,1.78,0,0,0,958.92,520.05Z" style="fill: #704624"/>
    <path d="M937.55,508.45c-2.32-1.52-11.85-2.1-13.14-3.29s-4.89.22-6.44-1.34a8.1,8.1,0,0,0-2.83-2h0a43,43,0,0,0-6.95-1.07c-1.55-.07-5.16,2-6.44,1.91s-4.38.49-5.67.41-4.63-2.94-1.54-.1a11.26,11.26,0,0,0,8.75,2.79c1.55-.29,7.47-1.12,5.41.28s-3.35,1.71-3.86,3.56-1.55,4.43.51,4.54,3.61-.56,6.18-1.2,8-6.06,7.21-3.46-3.09,5.9-4.12,7.36-2.83,8.15-1.28,6,2.31-4.41,4.89-6.95,7.21-6.15,8.24-5a8.39,8.39,0,0,0,3.86,2.73c1.55.42,7.73-.24,9.53.15s10,.79,12.88,3a24.6,24.6,0,0,0,5.74,3.08c-1.72-1-6-5.43-8.06-6.45C948.1,512.28,939.86,510,937.55,508.45Z" style="fill: #704624"/>
    <path d="M979.53,564.09c-1.8-1-1.28-5.58-3.34-3.23s-4.64,3.94-2.84,5.76,3.87,1.72,5.15,2.41,5.93,4.22,5.93,4.21c.34-.89.68-1.79,1-2.69l-2.84-2.85C981.08,566.28,981.34,565.13,979.53,564.09Z" style="fill: #7d4e28"/>
    <path d="M975.28,576.92c-.94-2-1.89-3.93-2.83-5.9-.35,2.64-.69,5.29-1,7.93-.09.51-.17,1-.26,1.51l-2.83.47s1.29,1.09,3.35,2.9,7.21,6.1,7.21,6.1-3.35-5.49-3.61-7.74A32,32,0,0,1,975.28,576.92Z" style="fill: #7d4e28"/>
    <path d="M977.72,593.88a12.14,12.14,0,0,0-2.24-2.29v-1.38a3.27,3.27,0,0,0-.09-1.19c-.11-.08-.34.86-.69,2a3.35,3.35,0,0,0-1.59-.7c-1.64.07-3.27.12-4.91.17.09,1.64.17,3.27.26,4.9a6,6,0,0,1,3.32.33,18.7,18.7,0,0,1-2.8,1.1c-1.74.69-6.07,4.57-6.07,4.57,2.75-.28,5.51-.57,8.26-.87l4.18-1.36c1.8,2.22,4.69,5.2,4.69,5.2s1-.82.26-3.79S979,595.71,977.72,593.88Z" style="fill: #7d4e28"/>
    <path d="M947.33,618.7c.09-.63.17-1.26.26-1.88,0,0-2.58-.75-4.38-1.14s-1.54-.76-3.09-2.28a25.11,25.11,0,0,0-4.38-3.81c-1.8-1.15,2.58,1.17,2.58,1.16l3.86-1.85a24.91,24.91,0,0,1-3.35-.77c-1-.39-2.31-1.91-3.6-3.06s-2.06-2.67-2.58-5.31a51.76,51.76,0,0,1-.51-8.28,5.22,5.22,0,0,0-2.06-3.81c-1-.77-1.81-2.29-3.09-3.83s-1.29-5.3-1.55-6.81-1.29-6.43-1.29-6.43-2.31-3.46-3.34-4.62-2.58-2.73-3.87-3.91-1.29-5.31-1.29-5.31-2.31-4.61-3.09-6.53-4.37-4-4.37-4l.51,3.78s.52,7.18,2.32,9.52,5.66,8.89,5.66,8.89a32.81,32.81,0,0,1,4.13,9.93,72.86,72.86,0,0,1,1.54,8.7s3.35,8.37,3.86,9.89a82.37,82.37,0,0,1,1.29,8.31s.52,7.16,1.29,8.3a31.55,31.55,0,0,1,3.35,11,16,16,0,0,0,1.54,6.43s3.61-.32,5.15-.69,1.95-3,3.75-3,3.41-.24,4.7-3.62-2.52-.09-2.52-.09-5.67,1.83-7.21.67,0-1.12,1.54-.36,2.83-2.23,4.89-2.22-.25-1.13-1.28-1.51-5.41-5.69-5.41-5.69,3.6,3,4.63,4.18S947.33,618.7,947.33,618.7Z" style="fill: #704624"/>
    <path d="M900.12,583.06l-1.57,2.79-1.38-3.54L894.41,579S896,583.1,895,583s-.59,1.4-2-.13a16.84,16.84,0,0,1-2.17-3l-.78-2.36c-.2-.69-.4-1.37-.59-2.06,0,0-2,1.3-1.19,4.81s2.56,5.36,3.16,6.84,3.15,6.54,3.15,8.84a14.11,14.11,0,0,0,1.57,5.28s.79-3.11,1-4.25.59-6,1-4,1,7,1.38,8.43.79,3.21.79-.53,2-7.07,2.17-8.22a30.53,30.53,0,0,0,0-4.31C902.49,585.79,900.12,583.07,900.12,583.06Z" style="fill: #794c27"/>
    <path d="M912.53,602.7s-.39-4.05-1.37-5.53-1.78-1.24-2-2.4-3.16-3.32-3.55-5.36-.79-6.08-.79-2.91a77.5,77.5,0,0,0,.59,7.79c-.52-1.27-1.05-2.54-1.57-3.82-.4,1.9-.79,3.79-1.19,5.69q.9,4.65,1.78,9.3c2,.78,4.07,1.56,6.1,2.32q4.05,2.36,8.08,4.66l-1.77-7C915.42,604.55,914,603.62,912.53,602.7Z" style="fill: #794c27"/>
    <path d="M911.94,611.3a40.47,40.47,0,0,1,3.75,9.65,64.44,64.44,0,0,1,1,8.1s1.91-8.13.79-11.77C916.52,614.25,911.94,611.3,911.94,611.3Z" style="fill: #794c27"/>
    <path d="M915.24,597.84c0,1.84.07,3.19.07,3.19s.07-1.63,0-2.44C915.28,598.34,915.26,598.09,915.24,597.84Z" style="fill: #794c27"/>
    <polygon points="906.95 570.13 906.95 570.13 906.95 570.13 906.95 570.13" style="fill: #794c27"/>
    <path d="M914.75,583.92c-1-3.15-3.81-4.38-5.29-7.15a52.81,52.81,0,0,1-2.51-6.64s.83,6.58,1.95,9.46c1,2.62,3.19,4.06,4.18,6.7a46,46,0,0,1,2.16,11.55c-.06-2.43-.14-5.71-.21-7.8S915.36,585.78,914.75,583.92Z" style="fill: #794c27"/>
    <path d="M896.5,604.93c-.7,0-2.51-1.38-3.34-2.25s-3.79-4.92-3.79-4.93l0-5.5s-.84-3.12-1.4-2.55a30.16,30.16,0,0,0-2.09,3.51s-2.78,3.65-3.48,3.8-1,.94-2.09-.17-2.37-6.91-2.51-4.07,0,4.07-.14,6.49a5.78,5.78,0,0,1-1.53,3.74l-3.2-2.52c.42,2.07,1.11,2.74,2.09,6.08s.55,6,.14,6.73a34.83,34.83,0,0,0-1.26,3.35c.05,1.15.1,2.31.14,3.47,0,0,1.95-3.7,2.51-4.67a10.37,10.37,0,0,0,1.53-3.12c.14-1-.14-4.69-.14-6.12s-.27-3.88.28-2,1.4,3.37,1.67,5.23a17.28,17.28,0,0,0,1.26,5.59c1.11,2.74,2.64,5.91,2.64,5.91s-.69-3.92-1-6.18-.14-3.88-.56-6.76a54.77,54.77,0,0,0-1.67-6.85,7.25,7.25,0,0,0,1.53,2.37c1,.89,2.09.36,2.65,2.44s.7,4.94,1.67,6,2.93,2.86,2.93,2.86-2.37-5.87-2.51-7.92a39.82,39.82,0,0,0-1.53-7c-.42-1.25-1.4-3,.14-1s2.36,2.83,3.48,4.33,3.06,3.88,3.9,3.53a17.71,17.71,0,0,1,2.23-.67,18.17,18.17,0,0,1,3.2,2.24c1.12,1.08,2.37,5.23,2.37,5.23.05-.95.09-1.9.14-2.84l-2-3.58S897.2,605,896.5,604.93Z" style="fill: #704624"/>
    <path d="M895.8,506.43c-1.95.69-3.62,3-3.62,1a26.63,26.63,0,0,1,.84-5.23l-3.35.58s-1.39-.1-2.22,2.28a19.09,19.09,0,0,1-2.23,4.3L883,511.61l-3.35,5,.84,4.55,3.62-5.41q1.13,2.33,2.23,4.64a31.23,31.23,0,0,0,4.46,1.14c1.11.08,5.29-3.71,5.29-3.71s-2.23-1.37-3.34-1a22.66,22.66,0,0,1-4.74.08l3.35-4.24,3.9-4.21S897.75,505.74,895.8,506.43Z" style="fill: #7d4e28"/>
    <path d="M896.92,521.55l2,1.34a28.56,28.56,0,0,0,3.9-.58c1.11-.35,2.51-2.31,2.51-2.31l-3.9.6Z" style="fill: #7d4e28"/>
    <path d="M914.47,525.32c-1.67.34-2.23.72-3.62.66a6.79,6.79,0,0,1-2.79-1l-3.34,1.45,3.9.2,3.9,1.81S916.14,525,914.47,525.32Z" style="fill: #7d4e28"/>
    <path d="M876.29,589.24a7.31,7.31,0,0,0-1.19-2.55l-2.36-.64a4.61,4.61,0,0,1,1.67,1.3,6.11,6.11,0,0,1,1,2.1,13.88,13.88,0,0,1,.39,2.48s.69,1.21.59.34S876.38,590.25,876.29,589.24Z" style="fill: #7b542f"/>
    <path d="M880.62,592.77a10.14,10.14,0,0,0-.3-3c-.39-1-.29-1.17-.68-2.07a4.83,4.83,0,0,0-.89-1.37c.2.88.49,1.77.79,3.23a19.25,19.25,0,0,0,.78,3.52c.5,1.33,1.48,2.71,1.09,1.81S880.72,593.93,880.62,592.77Z" style="fill: #7b542f"/>
    <path d="M873.13,592.27a4.34,4.34,0,0,0,.4,2.63c.59,1.05,1.08,1.39,1.18,2.55s.1,3.31.1,3.31a11.41,11.41,0,0,0,.39-2.55,12.42,12.42,0,0,0-1.18-3.56C873.72,593.86,873.43,593.06,873.13,592.27Z" style="fill: #7b542f"/>
    <path d="M900.22,579.19a13.3,13.3,0,0,0-2.76-2.19l-2.26-1.43a27.86,27.86,0,0,0,2.07,2.29,9.61,9.61,0,0,1,2.56,2.31,6.29,6.29,0,0,1,.79,2.35S901.31,580.4,900.22,579.19Z" style="fill: #794c27"/>
    <path d="M926.13,616c-.58-4.47-5.63-11-5.63-11a62.17,62.17,0,0,1,2.94,8.88c.45,2.43.08,5,.38,7.49.36,2.88,1.67,8.46,1.67,8.46a59.15,59.15,0,0,1-.51-7.86C925.1,619.84,926.39,618,926.13,616Z" style="fill: #794c27"/>
    <path d="M928.61,643.67a22.57,22.57,0,0,0-2.9-4.76s-.94-3.23-1.58-4.81-2.76-3.7-2.44-2.75a34.72,34.72,0,0,1,1,6.58c.43,4.06,1.75,8.11,2.6,9.22s2.33,3.37,1.58,2.72-4.67-4-5-5.28-1.06-5.18-1.38-6.44-.89-4.68-1.32-7.19-.81-10.46-.92-5A107.47,107.47,0,0,0,919,637.5c0,.94.84,6,.2,5s-2.75-8.65-2.75-8.65c-.53-2.26-1.05-4.51-1.58-6.76,0,0,.6.15-.25-2.84s-1.88-6.6-2.09-7.23-1.95-4.32-1.73-2.76.75,5,1,6.59,1,7.86,1,7.86-.65.1-1-1.16a13.14,13.14,0,0,1-.86-3.76c0-1.56-.21-6-.21-6s-.74-2-1.17-2.81-.53-.33-1.27-1.77-4.18-3.34-4.18-3.34,2.47,3.35,3.11,4.62a8.69,8.69,0,0,1,1,4.59c0,2.33.07,3.61-.46,4.51a3.16,3.16,0,0,1-.61.72v1.11c-1-.11-1.82,1.65-2.55,4q2.81-.59,5.6-1.2l2.55,10.9s4.73,9.8,5.76,10.2c.65.27,7,7,11.56,7.78,2.09.36,3.63-2.94,4.38-4.3a22.81,22.81,0,0,1-3.11-3.55A26.74,26.74,0,0,1,928.61,643.67Z" style="fill: #704624"/>
    <path d="M920.06,620.24l.47.54a5,5,0,0,0-.47-.54Z" style="fill: #85522b"/>
    <path d="M920.53,620.78a5.37,5.37,0,0,1,1.13,2.63c.22,1.87.21,6.85.21,6.85s.86.34,1-.43-.42-4.53-.53-5.93A7.14,7.14,0,0,0,920.53,620.78Z" style="fill: #85522b"/>
    <path d="M930.47,639.21a2.9,2.9,0,0,0,.57.32Z" style="fill: #85522b"/>
    <path d="M929.33,637.16c0-1.71-.21-2.8-.21-4a33,33,0,0,0-.85-4.69l-2.88-.69c.11.93,1,2.36,1.81,5.49s.64,4.53,1.81,5.18l1.46.81A2.49,2.49,0,0,1,929.33,637.16Z" style="fill: #85522b"/>
    <path d="M928.48,616.76h0a27.8,27.8,0,0,1,.75,4.37c0,1.25-.21,3.42-.22,3.42a14.51,14.51,0,0,0,.11,4.2l.75,2.2s-.22-2.81-.22-3.58a16.46,16.46,0,0,1,.75-3.1,6.54,6.54,0,0,0,.32-1.86,13.68,13.68,0,0,0-.75-3.28A16.61,16.61,0,0,0,928.48,616.76Z" style="fill: #85522b"/>
    <path d="M937.32,640.41c1,.32,2.35.69,2.35.69l.51.38,1.42-1.55L935.49,638a22.92,22.92,0,0,0,2.8-3.68c.06-.12.18-.29.26-.44a5.65,5.65,0,0,1-1,.65L933.81,636a25.41,25.41,0,0,0-3.82-2.31c-.32-.08-.4.09-.1.52,1.17,1.74,3.17,4.89,4,5.21S936.36,640.08,937.32,640.41Z" style="fill: #85522b"/>
    <path d="M935.74,646.26l1.53-1.61c-.91,0-3.27-.42-4-.44s.2,2.09.2,2.09l1.58,1.22a7.91,7.91,0,0,0,2.24.85c.86.13,1.58.1,2.55.32,2-1.5,3.92-3,3.92-3h-2.65Z" style="fill: #85522b"/>
    <path d="M922.62,592.94c-.43-1.1-3.62-4.48-3.62-4.48q-2.19-5.61-4.37-11.22c.53,2.82,1.7,6.14,1.81,7.08a24.34,24.34,0,0,0,1.92,5.67c.64,1,2.13,2.88,2.13,2.88a5.14,5.14,0,0,1,1.07,2.06c.21,1.09.85,4.85.85,4.85s-.21,2.79.32,3.74a17.4,17.4,0,0,1,1.81,3c.53,1.41,1.28,4.23,1.28,4.23s.21-3.26.21-4.35a49.31,49.31,0,0,0-1.06-5.78C924.75,599.7,923.05,594,922.62,592.94Z" style="fill: #794c27"/>
    <path d="M910.2,528.87a44.73,44.73,0,0,1-9-1.11c-3.5-.84-4.59-1.87-7.21-2.68s-3.5,1.67-4.38,3.53q1.75,5.55,3.5,11.1a64.35,64.35,0,0,0,3.72,6c1.53,2,3.94,7.58,5.25,10.53s3.5,9.14,5,8.58-.44-14.08-.44-14.08-1.09-5.16-.22-5.44,6.34,1.27,8.75,2.32,3.28-8.81,3.28-8.81-.22-6.71-1.09-9.3S912.82,529,910.2,528.87Z" style="fill: #8c7033"/>
    <path d="M913,570a17.07,17.07,0,0,0,2.66,3.38l-2.13-5.84-.42-3.14a2.62,2.62,0,0,1-1.28-.83c-.54-.65-.43-1.26-1.39-3s-2.77-6.36-2.77-6.36-.21,3.57-.1,4.51,1.06,3.16,1.27,4.11.54,2,.75,3.46.53,4.69.53,4.69-.21,1.39.32,1.88,1.92,1,2.35,1.51,1.7,3.5,1.49,2.87-2.45-5.56-2.45-5.56c-.14-.73-.29-1.46-.43-2.2C911.43,569.47,912.6,568.9,913,570Z" style="fill: #794c27"/>
    <path d="M902.8,530.44c-.64,0-1.71-1.65-2.88-2s-2.34.79-2.34.79l-1.81-.12c.21-.55.42-1.11.64-1.67,0,0-1.39.38-2,.49a5.08,5.08,0,0,0-2.66,1.85,2,2,0,0,0,1.6.42c.74-.26,1.49.25,1.91.28a11.52,11.52,0,0,0,2.88-.6,2.22,2.22,0,0,1,2,.13c.53.18,1.81,1.35,2.66,1.55s2.66.46,3.3.65,3.52.8,3.52.79-2.35-1.51-3.09-2S903.44,530.48,902.8,530.44Z" style="fill: #7d4e28"/>
    <path d="M915.48,537.12c-.75.91-.85,1.06-1.28,1.66s-1.17.58-2,.54l-1.49-.07c-.11-.89-.22-1.77-.32-2.66a10.17,10.17,0,0,0-1.39,1.64c-.32.61-1.38.25-1.81.23l-1.17-.07a9.66,9.66,0,0,0,.53-.9c.32-.61,1.06-1.81.64-1.68a10.61,10.61,0,0,1-2.24,1c-.85.11-1.81,1.3-1.81,1.3a3.31,3.31,0,0,0,1,1c.42.18,1.17.06,2.13.27s1.38.85,2.45,1.52a4.18,4.18,0,0,0,2.66.44,15,15,0,0,0,2.67,0c.85-.12,1.28-1.65,1.7-2.26a16.28,16.28,0,0,0,1-2.61c.32-.76,2-1.16,2-1.17a5.33,5.33,0,0,0-1.81.56C916.12,536.22,916.23,536.22,915.48,537.12Z" style="fill: #7d4e28"/>
    <path d="M917.08,543.72a11.16,11.16,0,0,0-2.77.51,12.69,12.69,0,0,1-2.24.22c-.85,0-1.49.09-2.13.06s-.43-.49-.43-1.27-.32-.17-1,.26-.95.27-1.49-.07l-2.34-1.52s-1.71-1.5-2.45-2a14.46,14.46,0,0,1-2.35-3.09,3.32,3.32,0,0,0-2.34-1.23c-1-.22-1.39-1.18-1.92-1.68s-2-1.53-2.77-2.21a3.51,3.51,0,0,0-2.77-.5l.74.37,1.71,1.51a21.78,21.78,0,0,0,3.09,2.7c1.17.7.85.21,1.38.24s2.24,2,2.24,2l1.81,2.13c.43.49,2.56,2.32,2.56,2.32a16.84,16.84,0,0,0,3,2.65c.85.36,3.41,0,4.05,0s2.55,0,3.19,0a18.43,18.43,0,0,0,2.88-.51s1,.82,1.39.68.1-.77.1-.77A6.37,6.37,0,0,0,917.08,543.72Z" style="fill: #7d4e28"/>
    <path d="M896.09,538c-.43-.8-.32-1-1.07-1.15s-.32.13-1.28-.24a4.9,4.9,0,0,0-2.24-.16h0c.54.2,1.39,1.34,2,1.54s2.45.79,3.09,1,2.56.63,1.7.26S896.51,538.78,896.09,538Z" style="fill: #85522b"/>
    <path d="M904.51,552.35l-2.71-3-1.66-4.72c.91,3.35.91,5.11,1.66,6a29.11,29.11,0,0,1,2.41,3.87c.6,1.14,2.26,9.37,2.11,7.38S904.51,552.35,904.51,552.35Z" style="fill: #794c27"/>
    <path d="M885.52,502.46c-2.23,1.05-3.51,6.42-3.51,6.42l-.72.54a6.78,6.78,0,0,1-2.49,1.88c-1.4.49-1.24,1.47-1.94,3a6.18,6.18,0,0,1-2.24,2.48,4.1,4.1,0,0,0-2.34.83c-.7.75-2.4,2.83-2.4,2.83s-2-.4-2.65.35a15.34,15.34,0,0,1-2.9,1.95,7.54,7.54,0,0,1-4.18.77c-1.53-.16-1.53-.17-2.64-1.91s-2.4.82-3,1.17-1.65-.2-2.34-.48-1.13-2.39-1.68-2.05-.68,2.55-.82,3.55a17.75,17.75,0,0,1-1.53,3.55s-2.13.54-3.1.83-1.66,0-2.5.52,0,.61-.25,3c-.13,1.14-.13,1-.16,1.25.52,1.23,1.14,2.17,1.58,1.9.61-.37,2-2.61,2.6-3.42s.89-3.18,2.85-3.61a10.83,10.83,0,0,0,4.38-2c.61-.59.88-1.24,1.63-1.16l2.45.26c.75.08,2.56-1.45,3.46-1.35s3.73.81,4.48.67,2.87-2.18,3.93-2.09,2.71-.87,3.46-1.24a10.47,10.47,0,0,0,3.06-2.11,22.83,22.83,0,0,1,3.46-2.61l1.94-4.68,4.22-7.78a12.41,12.41,0,0,0,1.68-2.32h0A16.43,16.43,0,0,1,885.52,502.46Z" style="fill: #7b542f"/>
    <path d="M869.81,525.75a19.42,19.42,0,0,0-3.68.28l-1.52,3a11.64,11.64,0,0,1,3.25-1,21.5,21.5,0,0,0,4.12-.88c.43-1.44.86-2.87,1.3-4.31C871.54,525.59,871.11,525.87,869.81,525.75Z" style="fill: #7d4e28"/>
    <path d="M891.36,523.6l4.11-3.27a19.67,19.67,0,0,0,3.14-2.62,4.37,4.37,0,0,0-1.45.81C896.22,519.56,891.36,523.61,891.36,523.6Z" style="fill: #937536"/>
    <path d="M912.11,514.69a15.92,15.92,0,0,1-3,2.59l-3.55.37-2.43-4.78c.5-2,1-3.95,1.49-5.92-.93.5-3.74.34-5,.53s-3.37,2.25-4.12,3.29-3.55,4.68-3.55,4.68,3.55-.85,4.67-1.06,3-.08,3,1.55a3.12,3.12,0,0,1-1,1.77,45.32,45.32,0,0,1,5.09-1.53l2.43,2.59c-.44,1.7-.87,3.41-1.31,5.11a4.09,4.09,0,0,0,2.43-.14,10.2,10.2,0,0,1,3.18-.67,4.22,4.22,0,0,0,.56-1.61c.19-1.08-.19-2.19.75-3.51s2.43-3.72,2.43-3.72A1.71,1.71,0,0,0,912.11,514.69Z" style="fill: #937536"/>
    <path d="M996.73,628.39c0,3.8.43,11.36-.87,14.61s-5.63,16.84-5.63,16.84,6.06-9.27,6.93-12.5a66.75,66.75,0,0,1,3.9-9.16l-1.3-1.17Z" style="fill: #7d4e28"/>
    <path d="M979.2,538.83c-2.3-1.41-4.59-2.84-6.89-4.28a124.93,124.93,0,0,1-18.78-1.39c-4.39-.82-18.79-5.51-18.79-5.55s-10.64,8-10.64,14.39,3.13,12.9,8.76,13,16.28-6.24,20.67-6.31,13.77.68,18.15.5,10.65-1.37,12.53,3.09a66.91,66.91,0,0,1,3.75,13.5c.63,3.62-5.63,10.38-6.26,15.89s2.51,17.26,8.14,17.82,14.4-4.73,15.65-11.25,5.64-34.35,5.64-34.36A110.08,110.08,0,0,0,998,546.81C992.35,544.55,979.2,538.86,979.2,538.83Z" style="fill: #b48f42"/>
    <path d="M988.39,667.25c-1.91.54-3.81,1.07-5.72,1.58l-3.1,6q2.4,2.4,4.82,4.78l1.38-2.41q4.22-2.88,8.44-5.82c-.54-1.18-1.07-2.35-1.6-3.53Z" style="fill: #7d4e28"/>
    <path d="M1011.05,569.11c-.27,3.92-5,17.57-5,17.56s-4.52,7.39-6.12,7.51-13-.23-13-.26c0,3.88.8,10.83,1.33,12.35S998,620.75,998,620.73a20.27,20.27,0,0,1,1.06-3.58c.8-2,5.59-12.88,7.18-15s6.12-10.67,6.12-10.68a107.29,107.29,0,0,0,3.46-15.5c1.06-7.88,1.33-16.45,1.32-16.45l-4-4.24S1011.32,565.21,1011.05,569.11Z" style="fill: #9e7e3a"/>
    <path d="M831.21,481.6c75.12,9.76,150.23,12.1,225.34-1.27V477c-75.11,13.37-150.22,11-225.34,1.26Z" style="fill: #0a0a0a"/>
    <path d="M855,533.68l-2.77.28,3,.9,3.56-2.51,2.18-.36-2.38-.24Z" style="fill: #6a4222"/>
    <path d="M859,535.84l2.38-.34,3.56-.22-4-1Z" style="fill: #6a4222"/>
    <path d="M1058,663.45c-.28-22.94-.89-102.27-.44-155,0-.7,0-1.45,0-2.2s0-1.29,0-1.94c.05-7.63.09-14.91.2-20.12v-51.1c-.32-20.77-.25-42.13-.18-64.75q0-11.78.06-24v-1.7c-75.6,13.62-151.19,11.27-226.79,1.42v1.7q0,12.18.06,23.93c.07,22.62.14,44-.18,64.83v51.11c.18,8.66.29,22.22.32,37.2v1.44c.25,50.37-.19,116.39-.48,140.54,0,2.27-.06,3.84-.1,5.12,0,.27,0,.54,0,.8a25.57,25.57,0,0,0,.92,7c.92,3.3,4.11,8,4.47,8.47l.14.21q24.24,18.3,48.47,35.47c1.57,1.34,38.83,28.29,59.39,29.93h.85c20.56-1.44,57.81-28.45,59.37-29.87q24-17.24,48.09-36.41l.25,0,.33-.5s3.47-5.19,4.43-8.67a25.21,25.21,0,0,0,.91-6.56l0-1.46C1058.06,667.11,1058,665.58,1058,663.45Zm-2.94,12a34.09,34.09,0,0,1-3.67,7.11q-24.12,19.25-48.23,36.43c-.38.55-38.44,28.14-58.65,29.51H944c-20.13-1.58-58.19-29.11-58.59-29.58q-24.07-17-48.14-35.18a32.25,32.25,0,0,1-3.74-7,20.19,20.19,0,0,1-.74-5.59c0-.23,0-.46,0-.7,0-1.29.07-2.88.1-5.18.29-24.17.72-90.23.47-140.62V523.2c0-15-.14-28.6-.31-37.24v-51c.31-20.85.25-42.24.17-64.89q0-10.94,0-22.22c74,9.49,148.1,11.71,222.15-1.31q0,11.31,0,22.26c-.08,22.64-.14,44,.17,64.8v51c-.1,5.2-.15,12.49-.19,20.14,0,.64,0,1.28,0,1.92s0,1.52,0,2.22c-.46,52.72.16,132.1.43,155.06,0,2.14.06,3.69.09,4.93l0,1.33A20.2,20.2,0,0,1,1055.06,675.42Z" style="fill: #0a0a0a"/>
    <path d="M930.78,693.9c-3.93-.69-27.07-10.29-27.07-10.39q-5.65-5-11.32-10s-2.95.52.49,5.07,12.31,13,12.31,13,10.33,7,5.9,5.33-28.55-14.63-31.5-15c-3-.16-25.1,4.14-25.1,4.07,3.93.62,37.41,9.26,37.41,9.08,0,0,10.83,5.06,20.18,9.78s28.72,30.92,33.15,28.7,16.56-13.66,19.52-15.21,3.94-15.93,3.94-15.93-10.83-4-14.28-5.44S934.72,694.76,930.78,693.9Z" style="fill: #a5833d"/>
    <path d="M908.16,692.84a88.57,88.57,0,0,0-8.39,3.11s-9.79-2.66-11.19-3.29-3.84-3.85-7.69-3.66-9.44-.29-11.19-1a34,34,0,0,0-7.69-1.77c-2.79-.28-7-3.79-7-3.79h0c-1.75,2.87-2.8,6.84,0,7.66s4.89-2,8-1.21,7,3.75,12.94,4.27,18.88,5,18.88,5,6.29,5,8.74,7.16,7,3.43,8.39.93,3.14-9,1.74-10.64S911.31,692,908.16,692.84Z" style="fill: #88552c"/>
    <path d="M973.89,699.4c-1-1-4.55-6.47-4.55-6.47h0s-4.19,4.73-5.59,4.76-3.85-1.45-5.59-.4-4.55,6.19-4.55,6.18-1.75,3.08-.35,3.07,4.55-3.62,6.64-3.16,2.8,7.09,1.4,8.15-4.54,1.1-6.29,1.12l-3.85,0s-6.29-1-5.59,1,3.85,3.57,3.85,7.14-3.15,8.69-4.9,8.68-4.89.49-7-1.07-7.34-7.78-2.8-2.08,8,8.26,10.14,8.26a45.94,45.94,0,0,0,7.69-.53c3.85-.54,9.09-3.19,11.19-3.25s8.74-2.81,10.49-4.42a11.17,11.17,0,0,0,4.19-7.33c.7-4.12-1.4-10.66-1.4-10.66S974.94,700.39,973.89,699.4Z" style="fill: #88552c"/>
    <path d="M913.05,703.09q1.74,3.74,3.47,7.47l-7.72-1.47s8.88,4.35,10.43,5.52,16.6,11.74,16.6,11.69q-6.18-7.69-12.36-15.5Q918.27,707,913.05,703.09Z" style="fill: #88552c"/>
    <path d="M916.52,697.59q6.57,7,13.13,13.94,7.92.47,15.83.76Q938,709.74,930.42,707,923.47,702.38,916.52,697.59Z" style="fill: #88552c"/>
    <path d="M909.19,727.15q7.53-1.89,15.06-3.92c-14-3.13-23.84-10.38-34-17.5Q899.74,716.55,909.19,727.15Z" style="fill: #88552c"/>
    <path d="M894.47,660.94c-4.53-.15-8.11,1.14-10.79,3.8a86.43,86.43,0,0,0,.35,11.71s15.66-.41,13.92-5.13S894.47,660.94,894.47,660.94Z" style="fill: #a06434"/>
    <path d="M876.68,671.82c-2.44-1.05-4.87-2.12-7.31-3.19v7.62s6.61.1,8.35,1.25,9.75,4.34,9.75,4.33q-5.06-3.93-10.1-7.91Z" style="fill: #88552c"/>
    <path d="M871.22,681.23c-1.23-.47-2-2.7-2.21-4.16s-.5-7.59-.5-7.59h0s-3.93,3.21-4.92,4.91a16.32,16.32,0,0,0-1.72,6.3c0,1.43,1.72.17,3.69.72a41.72,41.72,0,0,0,6.4,1.32,50.16,50.16,0,0,0,7.27-.78,12.5,12.5,0,0,1-2.59.12A25.51,25.51,0,0,1,871.22,681.23Z" style="fill: #88552c"/>
    <path d="M879.23,682c.9-.11,1.59-.25,1.59-.25Z" style="fill: #88552c"/>
    <path d="M985.45,711.69,983,716.37q5.91,4.23,11.83,8.35,4.66-3.51,9.34-7.1-4.05-4.18-8.1-8.44Q990.75,710.47,985.45,711.69Z" style="fill: #88552c"/>
    <path d="M900.76,678.31c1,2.46,2,4.91,3,7.36Q914,687,924.38,688q-9.11-1.69-18.21-3.62C904.37,682.35,902.56,680.34,900.76,678.31Z" style="fill: #88552c"/>
    <path d="M921.92,696.53s8.86,5.3,11.32,7.48S949,708.47,949,708.44s-11.82-6.49-13.79-6.56S921.92,696.56,921.92,696.53Z" style="fill: #88552c"/>
    <path d="M940.66,697.34c-5-1.49-13.89-4.24-15.29-4.3Q933,695.28,940.66,697.34Z" style="fill: #88552c"/>
    <path d="M944.07,698.37q3,.74,5.91,1.44-4.66-1.21-9.32-2.47Z" style="fill: #88552c"/>
    <path d="M894.36,686.54c2,.89,16.73,8.17,16.73,8.13q-5.16-3.12-10.33-6.29Z" style="fill: #88552c"/>
    <path d="M985.91,685.76s-2.95.89-4.92,1.7l3.45,2,4.43,1.9c3.12-.68,6.23-1.37,9.35-2.09,0,0-5.41-1.75-7.88-1.6A6.4,6.4,0,0,1,985.91,685.76Z" style="fill: #88552c"/>
    <path d="M953.92,684.68l-2.95,0s4.92,1.4,6.89,1.36,7.38-.87,7.38-.88h0l-4.92-2S955.89,684.67,953.92,684.68Z" style="fill: #88552c"/>
    <path d="M1031.2,685.09c-2,3.13-3,8.29-3,8.29h0q3.93-2.65,7.87-5.37s8.37-2,5.91-2.3S1033.17,682,1031.2,685.09Z" style="fill: #88552c"/>
    <path d="M950,698.37c-2-.69-10.83-3.6-14.27-3.67,0,0,4.92,3.66,6.89,4.39s8.86,2.16,11.32,1.41S952,699.08,950,698.37Z" style="fill: #88552c"/>
    <path d="M986.9,695.77c-2.95-.54-7.39-6.79-10.34-6.66,0,0,6.4,9.78,11.32,10.91s7.39,3.1,9.36,3.68,12.3-3.19,12.3-3.21-7.38,0-9.84-1.3S989.85,696.33,986.9,695.77Z" style="fill: #a5833d"/>
  </g>
</svg>
