<?xml version="1.0" encoding="utf-8"?>
<!-- Generator: Adobe Illustrator 24.2.0, SVG Export Plug-In . SVG Version: 6.00 Build 0)  -->
<svg version="1.1" id="Layer_1" xmlns="http://www.w3.org/2000/svg" xmlns:xlink="http://www.w3.org/1999/xlink" x="0px" y="0px"
	 viewBox="0 0 1260 1260" style="enable-background:new 0 0 1260 1260;" xml:space="preserve">
<style type="text/css">
	.st0{fill:#CC0000;}
	.st1{fill:#000066;}
	.st2{fill:#FFFFFF;}
	.st3{fill:#BD0000;}
	.st4{fill:#165016;}
	.st5{fill:#B48F42;}
	.st6{fill:#88552C;}
	.st7{fill:#704624;}
	.st8{fill:#AB883F;}
	.st9{fill:#644D1B;}
	.st10{fill:#7D4E28;}
	.st11{fill:#584E19;}
	.st12{fill:#3C3311;}
	.st13{fill:#866925;}
	.st14{fill:#9E7E3A;}
	.st15{fill:#262626;}
	.st16{fill:#794C27;}
	.st17{fill:#B46531;}
	.st18{fill:#8C7033;}
	.st19{fill:#85522B;}
	.st20{fill:#634324;}
	.st21{fill:#614C32;}
	.st22{fill:#6E4523;}
	.st23{fill:#AC9076;}
	.st24{fill:#865C00;}
	.st25{fill:#7F512A;}
	.st26{fill:#7B542F;}
	.st27{fill:#937536;}
	.st28{fill:#0A0A0A;}
	.st29{fill:#6A4222;}
	.st30{fill:#A5833D;}
	.st31{fill:#A06434;}
</style>
<g>
	<path class="st0" d="M63,294.7L63,294.7c378-217.1,756,146.6,1134-70.5l0,0C819,441.3,441,77.7,63,294.7z"/>
	<path class="st0" d="M63,1030.7c378-217.1,756,146.6,1134-70.5v-736C819,441.3,441,77.7,63,294.7V1030.7z"/>
	<path class="st1" d="M630,259.5c-189-36.6-378-73.3-567,35.3v368c189-108.5,378-71.9,567-35.3V259.5z"/>
	<path class="st2" d="M126.4,263.6c-21.9,9.1-43.1,19.5-63.4,31.2l0,0C83.3,283,104.5,272.6,126.4,263.6z"/>
	<path class="st2" d="M630,259.5c-21.1-4.1-42.3-8.2-63.4-12.1l0,0C587.7,251.3,608.9,255.4,630,259.5z"/>
	<path class="st2" d="M346.5,447.8c-21.1-13.8-42.3-26.6-63.4-38.3C209.7,464,136.4,531.8,63,621.6v41.1
		c20.3-11.7,41.5-22.1,63.4-31.2C199.8,553.7,273.1,495.3,346.5,447.8z"/>
	<path class="st2" d="M566.6,615.4c21.1,3.9,42.3,8,63.4,12.1v-41.1c-73.4-61.8-146.7-123.7-220.1-177
		c-21.1,12.1-42.3,24.8-63.4,38.5C419.9,495.6,493.2,554.3,566.6,615.4z"/>
	<path class="st2" d="M346.5,365.5c-73.4-47.8-146.7-84.6-220.1-102c-21.9,9.1-43.1,19.5-63.4,31.2v41.1
		c73.4,5.5,146.7,32.9,220.1,73.6C304.2,393.8,325.4,379.2,346.5,365.5z"/>
	<path class="st2" d="M409.9,409.3C483.3,367.4,556.6,334,630,300.6v-41.2c-21.1-4.1-42.3-8.2-63.4-12.1
		c-73.4,34.1-146.7,70.7-220.1,118.1C367.6,379.3,388.8,393.9,409.9,409.3z"/>
	<path class="st2" d="M393.8,224.2c-31.5-2-63-2-94.5,0l0,0C330.7,222.2,362.3,222.2,393.8,224.2z"/>
	<path class="st2" d="M630,504.8V382.1c-78.8-15.3-157.5-30.5-236.2-35.3v122.7C472.5,474.3,551.2,489.5,630,504.8z"/>
	<path class="st2" d="M299.2,592.2c31.5-2,63-2,94.5,0V469.5c-31.5-2-63-2-94.5,0V592.2z"/>
	<path class="st2" d="M393.8,346.8V224.2c-31.5-2-63-2-94.5,0v122.7C330.7,344.8,362.3,344.8,393.8,346.8z"/>
	<path class="st2" d="M299.2,346.8c-78.8,5.3-157.5,25.3-236.2,70.6v122.7c78.8-45.2,157.5-65.2,236.2-70.6V346.8z"/>
	<path class="st2" d="M299.2,469.5c31.5-2,63-2,94.5,0V346.8c-31.5-2-63-2-94.5,0V469.5z"/>
	<path class="st0" d="M374.9,223.2c-18.9-0.7-37.8-0.8-56.7-0.1l0,0C337,222.4,356,222.5,374.9,223.2z"/>
	<path class="st0" d="M630,480.3v-73.6c-85-16.5-170.1-33-255.1-36.2V444C459.9,447.3,545,463.8,630,480.3z"/>
	<path class="st0" d="M318.1,591.2c18.9-0.7,37.8-0.7,56.7,0.1V444c-18.9-0.7-37.8-0.8-56.7-0.1V591.2z"/>
	<path class="st0" d="M318.1,444c18.9-0.7,37.8-0.7,56.7,0.1v-73.6c-18.9-0.7-37.8-0.8-56.7-0.1V444z"/>
	<path class="st0" d="M318.1,370.4c-85,3.3-170.1,22.7-255.1,71.6v73.6c85.1-48.9,170.1-68.3,255.1-71.6V370.4z"/>
	<path class="st0" d="M374.9,370.4V223.2c-18.9-0.7-37.8-0.8-56.7-0.1v147.2C337,369.6,356,369.7,374.9,370.4z"/>
	<path class="st0" d="M630,259.5c-14.1-2.7-28.2-5.5-42.3-8.1l0,0C601.8,254,615.9,256.7,630,259.5z"/>
	<polygon class="st0" points="63,294.7 63,294.7 63,294.7 	"/>
	<path class="st0" d="M441,350.9c63-34,126-62.7,189-91.4c-14.1-2.7-28.2-5.5-42.3-8.1c-63,28.9-126,59.1-189,95.8
		C412.8,348.1,426.9,349.3,441,350.9z"/>
	<path class="st0" d="M441,473.5c63,47.7,126,100.8,189,153.9v-27.4c-48.9-41.2-97.8-82.5-146.7-121.2
		C469.2,476.9,455.1,475.1,441,473.5z"/>
	<path class="st0" d="M294.3,469.9c-14.1,1.1-28.2,2.6-42.3,4.7c-63,50.2-126,111.1-189,188.2c14.1-8.1,28.2-15.4,42.3-21.9
		C168.3,570.7,231.3,515.5,294.3,469.9z"/>
	<path class="st0" d="M252,351.9c-63-31.6-126-52.4-189-57.2l0,0v27.4c48.9,3.7,97.8,17,146.7,37.6
		C223.8,356.6,237.9,353.9,252,351.9z"/>
	<path class="st2" d="M812.8,499.6l-1-0.1c0.1,39.8,1,72.1,1,106.5c67.1,8,134.2,10.2,201.2,0V498.3C947,509,880,507.2,812.8,499.6
		L812.8,499.6z"/>
	<path class="st3" d="M924.6,505.8c-7.4,0.1-14.8,0.1-22.2,0v40.4c-30.3-0.6-60.5-2.7-90.5-6.2c0,9.9,0,19.4,0,28.9
		c30,3.6,60.3,5.6,90.6,6.2V613c7.4,0.1,14.8,0.1,22.2,0V575c29.9-0.3,59.7-2.8,89.2-7.4v-28.9c-29.5,4.6-59.3,7.1-89.2,7.4
		L924.6,505.8z"/>
	<path d="M925.3,504.9c-7.8,0.1-15.7,0.1-23.5,0v40.4c-30.3-0.6-60.5-2.7-90.5-6.3v0.8c0,5.4,0,10.7,0,15.9c0,4.4,0,8.7,0,13v0.8
		c30,3.6,60.2,5.7,90.5,6.3v38.1c7.8,0.1,15.7,0.1,23.5,0v-38c29.9-0.3,59.8-2.8,89.2-7.5v-30.6c-29.5,4.6-59.3,7.1-89.2,7.5
		L925.3,504.9z M1013.2,539.7v27.2c-29.5,4.6-59.3,7-89.2,7.3v38.1c-7,0.1-13.9,0.1-20.9,0v-38.1c-30.3-0.6-60.5-2.6-90.6-6.2
		c0-4,0-8.1,0-12.1c0-5,0-10,0-15c30,3.5,60.2,5.6,90.5,6.2v-40.4c7,0.1,13.9,0.1,20.9,0V547C953.9,546.7,983.7,544.2,1013.2,539.7z
		"/>
	<path class="st4" d="M1013.8,629.6c0-1.1,0-2.3,0-3.3c0-6.4,0.1-12,0.2-16.1V606c-67.4,10.3-134.8,8-202.2-0.1v5.4
		c0.2,6.8,0.3,17.4,0.3,29.8v1.2c0.2,40.9-0.2,94.6-0.4,112.5c0,2.2-0.1,3.5-0.1,4.7c0,1.7,0.2,3.4,0.7,5.1c0.8,2.4,3.8,6.3,3.8,6.3
		c14.5,9.7,29,19.2,43.5,28.3c0,0.1,34.6,22.5,53.1,23.8c0.1,0,0.2,0,0.3,0h0.3c18.5-1.1,53.1-23.5,53.1-23.8
		c14.5-9.2,29-19,43.5-29.2l0,0c0.1-0.1,3-4,3.7-6.4c0.5-1.5,0.7-3.1,0.7-4.7c0-1.2-0.1-2.6-0.1-5.1
		C1013.9,734,1013.4,671.2,1013.8,629.6z"/>
	<path class="st5" d="M965.4,773.6c-5.2-8.9-4-2.2-5.2-2.5c-1.2-0.2-6.2-0.3-6.2-0.3s-3.7-1.7-5.2-1.7c-1.5,0.1-6.7,1.6-6.7,1.6
		c-1.8-0.5-3.6-0.9-5.4-1.4l-5.9-2.1c0,0-4.7,1.4-6.4,1.1c-1.7-0.3-7.4-1.6-7.4-1.6s-5.2-0.3-7.2-0.7s-3-1.3-4.7-1.6
		c-1.7-0.3-2.2,0.6-4.5,0.5c-1.4,0-2.8-0.3-4.2-0.7c-0.9,0.2-1.8,0.6-2.5,1.2c-1.2,0.9-5.7-0.1-7.9-1.5c-2.2-1.4-9.4-4.6-9.4-4.6
		c-2.8-2.6-5.6-5.2-8.4-7.8l-3-0.2c-2.2-0.1-6.6,2.7-7.6,3s-6,3.1-6,3.1l-0.2,3.8c-2.1-0.7-4-1.7-5.7-3c-2-1.8-2,0.5-3.2,1
		c-1.2,0.5-2.2,2-2.7,3.3s-1.5,4.1-1.5,4.1c-1.5-0.1-3-0.4-4.4-0.7c-2.2-0.5-2,1.1-2,1.1s-2.4,1-3.7,0.6c-1.2-0.4-1.7,0.8-1.7,0.8
		s-2.5,2-4.2,2.1c-1.2,0.1-1.8,2-2.1,3.1c13,8.7,26,17.1,39.1,25.3c0,0.1,34.6,22.5,53.1,23.8c0.1,0,0.2,0,0.3,0h0.3
		c18.5-1.1,53.1-23.5,53.1-23.8c14.5-9.2,29-19,43.5-29.2l0,0c1-1.4,1.9-2.7,2.7-4.2c-5.4,1.1-11.8,2.7-18.2,4.3
		C981.2,773.1,967.4,777.1,965.4,773.6z"/>
	<path class="st6" d="M890.1,762.6c-2.5-0.1-9.2-2.1-10.5-3c-1.3-0.9-5.4-3.2-5.4-3.2l-6.5-5.6c0,0,1.6,4.7,2.9,7.7
		c1.3,3,2.5,4.8,4.5,4.9c2,0.1,1.6-0.2,4.5,0.8c2.9,1,5.4,3.1,8.7,3.3c3.3,0.1,5.4,0.2,7.8,1.1c2.4,0.9,6.5-0.4,6.5-0.4
		c-2.5-1.7-5.1-3.4-7.6-5.1C893.4,762.7,891.8,762.6,890.1,762.6z"/>
	<path class="st7" d="M892.2,748.1c-1,0.2-7.9,1.5-7.9,1.5c-5.1-1.4-6.6,5.4-7.7,13.2c0,0,13.8-0.5,14.2-3.1
		C891.2,757.3,893.2,748,892.2,748.1z"/>
	<path class="st8" d="M897.2,701.7c0,0-5.9,0.6-7.7,0.2c-1.8-0.4-4.5-1.4-6-1.4c-1.1,0-2.6-0.5-3.7-0.5l0,0c-0.4,0-0.7,0.1-1,0.3
		c-1.2,0.7-3.9,6.4-3.9,6.4c3.3,3.7,5.4,6.8,5.7,8.4c0.3,1.6,0.9,4.3,0.9,4.3l3.3,2.1l1.2,2.4l1.2,9.4c-0.3,1.5-0.6,3.1-0.9,4.6
		c-0.3,1.4-0.6,2.7-0.9,4.1c-0.2,0.5-0.3,1.1-0.5,1.6l-0.1,0.2c-0.8,1.7-1.1,3.9-1.8,5.7c-0.5,1.1-1.4,3.2-1.5,3.2
		c0,0,4,1.1,5.9,0.4c3.3-1,6.1-3.3,7.5-6.1c0.8-1.7,1.7-4.5,0.8-6.2c0.8-1.2,1.4-2.5,1.6-3.8c0.3-2.7,0.9-8.9,0.9-8.9
		c0-2.2,0-4.4,0-6.6c0-4.3,0-5-0.3-11.3C897.4,704,897.2,701.7,897.2,701.7z"/>
	<path class="st9" d="M897.3,701.6v-0.2h-0.2c-0.1,0-5.9,0.6-7.7,0.2c-0.5-0.1-1.1-0.3-1.7-0.4c-1.4-0.5-2.9-0.8-4.4-1
		c-0.5,0-1.1-0.1-1.6-0.2c-0.7-0.2-1.4-0.2-2.2-0.2l0,0c-0.4,0-0.8,0.1-1.1,0.3c-1.2,0.7-3.9,6.3-4,6.5l-0.1,0.2l0.1,0.1
		c3.1,3.5,5.3,6.7,5.6,8.3s0.9,4.3,0.9,4.3v0.1l3.3,2.1l1.1,2.3l1.2,9.3c-0.3,1.5-0.6,3-0.9,4.6c-0.3,1.4-0.6,2.7-0.9,4.1l-0.5,1.6
		l-0.1,0.2c-0.4,1-0.7,2-1,3c-0.2,0.9-0.5,1.8-0.9,2.7c-0.5,1.1-1.4,3.2-1.4,3.2l-0.1,0.3l0.3,0.1c1.3,0.3,2.6,0.5,3.9,0.6
		c0.7,0.1,1.4,0,2.1-0.2c3.4-1.1,6.1-3.3,7.6-6.2c0.9-1.9,1.6-4.6,0.9-6.3c0.1-0.2,0.2-0.3,0.3-0.5c0.7-1,1.1-2.1,1.2-3.3
		c0.3-2.7,0.9-8.9,0.9-9v-6.6c0-4.3,0-5.2-0.3-11.3C897.6,704,897.4,701.6,897.3,701.6z M897,736.9c-0.1,1.1-0.5,2.1-1.2,3.1
		c-0.1,0.2-0.2,0.4-0.4,0.6l-0.1,0.1l0.1,0.1c0.8,1.5,0,4.1-0.8,5.9c-1.5,2.8-4.1,5-7.4,6c-1.6,0.5-4.6-0.1-5.6-0.4
		c0.3-0.6,1-2.1,1.3-2.9c0.4-0.9,0.7-1.9,0.9-2.8c0.2-1,0.6-2,0.9-2.9l0.1-0.3c0.2-0.6,0.3-1.1,0.5-1.7l0.9-4.1
		c0.3-1.5,0.6-3.1,0.9-4.6v0c-0.4-3.1-0.8-6.3-1.2-9.4l-1.3-2.5l-3.3-2c-0.1-0.5-0.6-2.8-0.9-4.2c-0.3-1.7-2.5-4.8-5.6-8.4
		c0.8-1.7,2.8-5.6,3.7-6.2c0.3-0.2,0.6-0.2,1-0.2c0.7,0,1.4,0.1,2.1,0.2c0.5,0.1,1.1,0.2,1.6,0.2c1.5,0.2,2.9,0.5,4.3,1
		c0.6,0.2,1.2,0.3,1.7,0.4c1.6,0.4,6.6-0.1,7.6-0.2c0.1,0.7,0.3,3.2,0.6,8.3c0.3,6.1,0.3,6.9,0.3,11.2v6.5
		C897.9,728.1,897.3,734.3,897,736.9z"/>
	<path class="st7" d="M900.1,754.3c-0.8-0.2-9.6,1.6-9.6,1.6l0,0c-0.8-0.5-2-0.4-2.6,0.3c-1.3,1.2-0.9,2-2.2,2.3
		c-2.1,0.4-4.1,11.2-3.6,11.6c0,0,9.1,0.1,13.2-2.1c1.8-0.9,3.3-2.3,4-4C900.5,761.1,901,754.5,900.1,754.3z"/>
	<path class="st8" d="M894.6,735.9c-1,2.5-3.3,9.1-4.1,11.4c-0.8,2.3-2.2,6.1-2.2,6.1l-1.9,6.8c0,0,5.7,0.1,8.2-1.3
		c2.1-1.1,3.8-2.8,4.7-4.8c1.8-4.2,2.3-13,1.4-14.5S894.6,735.9,894.6,735.9z"/>
	<path class="st9" d="M894.7,735.7l-0.2-0.1l-0.1,0.2c-0.7,1.9-2.3,6.3-3.4,9.3l-0.8,2.2c-0.8,2.3-2.2,6-2.2,6.1
		c-0.7,2.4-1.4,4.8-2,7.1h0.3c0.2,0,5.8,0.1,8.3-1.3c2.2-1.1,3.9-2.8,4.8-4.9c1.8-4.2,2.4-13.2,1.3-14.8
		C899.8,738.1,894.9,735.8,894.7,735.7z M899.1,754.1c-0.9,2-2.5,3.6-4.6,4.7c-2.2,1.2-6.7,1.3-7.9,1.3c0.6-2.1,1.2-4.3,1.9-6.4
		c0,0,1.4-3.8,2.2-6.1c0.2-0.5,0.5-1.3,0.8-2.2c1-2.8,2.5-7,3.3-9.1c0.9,0.4,4.9,2.4,5.8,3.6C901.3,741.2,900.9,749.9,899.1,754.1
		L899.1,754.1z"/>
	<path class="st8" d="M903.5,745.6L903.5,745.6c-0.1,0.1-0.1,0.1-0.1,0.2C903.5,745.7,903.5,745.6,903.5,745.6z"/>
	<path class="st8" d="M904,742.1c0-1.3-0.3,1.7-0.4,3.4c0.1-0.1,0.3-0.1,0.4-0.2C903.9,745.3,904,744.1,904,742.1z"/>
	<path class="st8" d="M975,655c-3.9-2.2-7.3-3.1-11.2-4.4c-2.7-0.9-4.5-2.4-6.7-3.4c-2.9-1.4-5.8-3.1-8.9-3.8
		c-5.9-0.7-23.2-1.8-24.7-6.9c-24-9-36.8-6.8-49.3-0.2l0,0c-16.3,0.3,6.8,62.5-9.5,61.7c-3.9-0.9,4.6,7.9,4.6,7.9
		c0,0,0.4-1.5,3.1-1.3c2.9,0.3,5.9,0.8,8.8,1.5c0,0,7.6,5.2,10.6,11.2c3,6,1.9,1.5,3.1,6c1.1,4.5-0.4,13.3-0.4,13.3l-2.2,5.7
		c0,0,4.6-2.2,7.3,1.3c1.9,2.5,3.3,2.3,4,2c-2.1-9.8-4.3-13.3,7.1-22.4c1.8-0.4,3.5-1,5.2-1.8c2.8-1.3,5.1-4.1,7.7-6.2
		c2.8-2.3,5.6-4.7,8.5-6.8c1.9-1.3,6.9-6.8,5.7-4.4c-1.5,3,6.4-3.6,7.2-0.6c1.7,6.2,8.3,4.2,12.5,3.2c3.3-0.7,6-4,8.8-6.5
		c4.1-3.6,8.9-6.9,11.8-12.3c2.7-5,5.1-11.3,4.7-17.1C982.3,664.4,979.5,657.4,975,655z"/>
	<path class="st8" d="M903.6,746.1c0-0.1,0-0.2-0.1-0.4C903.5,746.6,903.5,746.9,903.6,746.1z"/>
	<path class="st9" d="M975.1,654.7c-3.3-1.7-6.8-3.1-10.4-4.1l-0.8-0.3c-1.5-0.5-2.9-1.2-4.2-2c-0.8-0.5-1.6-1-2.5-1.4
		c-0.7-0.3-1.5-0.7-2.2-1.1c-2.1-1.2-4.4-2.1-6.8-2.7c-1-0.1-2.4-0.3-4.1-0.4c-7.2-0.7-19.3-2.3-20.4-6.3v-0.1l-0.1,0
		c-11.4-4.2-20.9-6.2-29-6c-6.9,0.2-13.2,2-20.4,5.7c-1.8,0.1-3.4,1-4.2,2.4c-3.3,5-1.9,17.3-0.6,29.2c1.3,11.6,2.6,23.6-0.5,28.1
		c-0.8,1.3-2.3,2.1-4,1.9c-0.2-0.1-1-0.2-1.2,0.3c-0.5,1.5,4.2,6.5,5.7,8l0.2,0.2l0.1-0.3c0,0,0.5-1.3,2.9-1.2
		c2.9,0.3,5.8,0.8,8.7,1.4c0.5,0.4,7.6,5.4,10.5,11.1c1.6,3.1,2,3.4,2.3,3.7c0.3,0.2,0.2,0.1,0.7,2.3c1.1,4.4-0.4,13.1-0.4,13.1
		l-2.5,6.3l0.5-0.2c0,0,4.5-2.1,7,1.2c1.8,2.3,3.2,2.4,4,2.2c-0.1,0.7,0,0.9,0.2,0.9h0.1c0.2,0,0.2-0.2,0.3-0.7v-0.1
		c0-0.1,0-0.2-0.1-0.3l0,0c0.1-0.1,0.2-0.1,0.3-0.2l0.1-0.1c0,0,0-0.1,0-0.1c0,0,0.1-1.2,0.1-3.2c0-0.3,0-0.6-0.2-0.6
		c-0.2,0-0.3,0-0.5,2.8c-0.1-0.5-0.2-1-0.3-1.5c-1.7-7.8-2.5-11.3,7.6-19.4c1.8-0.4,3.5-1,5.2-1.8c2-1,3.7-2.4,5.2-3.9
		c0.8-0.8,1.7-1.6,2.6-2.3c0.9-0.7,1.6-1.3,2.4-2c2-1.6,4-3.3,6.1-4.8c1-0.8,2-1.7,2.9-2.6c0.8-0.8,1.6-1.5,2.5-2.2c0,0,0,0,0,0.1
		c-0.2,0.3-0.3,0.7-0.1,1c0.3,0.4,1,0.1,2.6-0.6c1.8-0.9,4.4-2.1,4.8-0.7c1.6,5.9,7.4,4.6,11.6,3.6l1.1-0.2c2.6-0.6,4.8-2.7,6.9-4.7
		c0.6-0.6,1.3-1.2,2-1.8c0.9-0.8,1.8-1.5,2.6-2.2c3.4-2.8,6.9-5.8,9.2-10.1c2.3-4.3,5.2-11,4.7-17.3
		C982.3,662.3,978.5,656.5,975.1,654.7z M977.8,687.8c-2.3,4.2-5.8,7.1-9.1,10c-0.9,0.7-1.8,1.5-2.6,2.2c-0.7,0.6-1.3,1.2-2,1.8
		c-2.1,2-4.3,4.1-6.7,4.6l-1.1,0.3c-4.1,1-9.7,2.2-11.2-3.3c-0.5-1.9-3.2-0.6-5.3,0.4c-0.6,0.4-1.3,0.6-2.1,0.8
		c0-0.1,0.1-0.3,0.2-0.4c0.1-0.2,0.3-0.7,0.1-0.9c-0.2-0.2-0.7,0-3.2,2.4c-0.9,0.9-1.9,1.7-2.9,2.5c-2.1,1.5-4.1,3.2-6.1,4.8
		c-0.8,0.7-1.6,1.3-2.4,2c-0.8,0.6-1.8,1.5-2.6,2.3c-1.4,1.5-3.1,2.8-5.1,3.9c-1.6,0.8-3.4,1.4-5.1,1.8h-0.1
		c-10.5,8.4-9.6,12.2-7.8,20c0.2,0.8,0.4,1.6,0.5,2.4c-0.7,0.2-1.9,0.2-3.6-2c-0.9-1.3-2.4-2-4.1-2c-1,0-2,0.2-2.9,0.5l2-5.1
		c0.1-0.4,1.5-9,0.4-13.5c-0.6-2.3-0.6-2.3-0.9-2.6c-0.3-0.2-0.7-0.5-2.2-3.5c-3-6-10.4-11.1-10.7-11.3h-0.1
		c-2.9-0.6-5.8-1.1-8.8-1.5c-2.1-0.1-2.9,0.7-3.1,1.2c-2.8-2.9-5.6-6.4-5.4-7.1c0-0.1,0.2-0.2,0.8,0c1.8,0.1,3.5-0.7,4.3-2.1
		c3.2-4.7,2-16.3,0.6-28.6c-1.3-11.8-2.6-24,0.5-28.8c0.7-1.4,2.3-2.2,4-2.2h0.1c12.6-6.6,25.3-8.7,49.1,0.2
		c1.4,4.2,13,5.7,20.8,6.5c1.6,0.2,3,0.3,4,0.4c2.3,0.6,4.6,1.5,6.7,2.7c0.7,0.4,1.5,0.7,2.2,1.1c0.9,0.4,1.7,0.9,2.5,1.4
		c1.3,0.8,2.7,1.5,4.3,2.1l0.8,0.3c3.6,1,7.1,2.4,10.4,4.1c4.6,2.5,7.2,9.8,7.6,15.6C983,677,980.2,683.5,977.8,687.8L977.8,687.8z"
		/>
	<path class="st7" d="M979.4,768.8c-0.5-0.1-4.2-0.8-4.2-0.8c-0.9,0.2-1.8,0.5-2.7,0.8c-2.6,1.2-4.7,4.2-6.4,8.9
		c4.2-0.2,8.4-0.5,12.6-0.8C981,776.8,980.7,769,979.4,768.8z"/>
	<path class="st8" d="M992.8,719.3c-1.5-7.5-0.2-15.9-0.4-23.8c-0.1-6.6,0.9-13.6-0.5-19.9c-3.9-17.9-13.8-18.3-13.8-17.9
		c-3.3,9.8-6.6,19.6-9.8,29.4c-4.9,14.7,1.3,15.2,3.9,21.7c2.5,6.3,10.8,15.1,10.8,15.6s0.4,4,0.4,4c-0.2,7.6-0.6,16.1-0.8,24.9
		c-2.4,5.6-5.7,10.9-9.7,15.6c2.2,0.8,4.5,1.5,6.7,2.2l1.6-0.6c1.6-2.8,3.2-5.6,4.7-8.5c1.8-0.5,3.6-1.1,5.3-1.7
		c-2.2-8.9-0.5-17,0.6-25.1c1.1-2.6,1.9-5.4,2.5-8.1c0.2-1.3,0.2-2.7,0-4C994.2,721.7,993.1,720.8,992.8,719.3z"/>
	<path class="st9" d="M993.8,721.1c-0.4-0.6-0.6-1.2-0.8-1.8c-1-4.9-0.7-10.3-0.5-15.5c0.1-2.7,0.2-5.5,0.2-8.3c0-2.1,0-4.4,0.1-6.5
		c0.2-4.5,0.3-9.2-0.6-13.4c-3.7-17.1-12.9-18.5-14-18.1c-0.2,0.1-0.2,0.2-0.2,0.4l0.4-0.1c0,0.1,0,0.2-0.1,0.3
		c0.2-0.1,1.9,0,4.2,1.4c3,1.9,7.1,6.3,9.3,16.4c0.9,4.2,0.7,8.8,0.6,13.3c-0.1,2.2-0.2,4.4-0.1,6.6c0.1,2.7-0.1,5.5-0.2,8.2
		c-0.2,5.2-0.5,10.7,0.5,15.7c0.2,0.7,0.5,1.4,0.8,2c0.4,0.6,0.6,1.2,0.8,1.9c0.2,1.3,0.2,2.6,0,3.9c-0.6,2.7-1.5,5.4-2.5,8v0.1
		c-0.1,1-0.3,2-0.4,3c-1,7-2.1,14.2-0.2,22l-5.1,1.6h-0.1l-4.8,8.5l-1.5,0.6c-2.1-0.7-4.2-1.4-6.3-2.1c3.9-4.7,7.1-9.8,9.4-15.3
		v-0.1c0.1-5.3,0.3-10.5,0.5-15.5c0.1-3.2,0.2-6.4,0.3-9.4c-0.1-1.2-0.4-3.5-0.4-4c0-0.3-0.2-0.6-1.9-2.7c-2.7-3.3-7.1-8.8-8.8-13.1
		c-2.6-6.4-3.9-21.5-3.9-21.7l-0.4,0.1c0,0.2,1.4,15.3,4,21.8c1.8,4.4,6.2,10,8.9,13.2c0.9,1.1,1.8,2.2,1.8,2.3c0,0.6,0.3,3.9,0.3,4
		c-0.1,3-0.2,6.1-0.3,9.4c-0.2,5-0.4,10.2-0.5,15.4c-2.4,5.5-5.6,10.8-9.6,15.5l-0.3,0.3c2.3,0.8,4.7,1.6,7.1,2.3h0.1l1.8-0.7
		c1.6-2.8,3.2-5.6,4.7-8.4c1.8-0.5,3.6-1.1,5.5-1.7l-0.1-0.3c-1.9-7.7-0.9-15,0.2-22c0.1-1,0.3-2,0.4-3c1.1-2.7,1.9-5.4,2.6-8.2
		c0.2-1.4,0.2-2.8,0-4.2C994.4,722.4,994.2,721.7,993.8,721.1z"/>
	<path class="st10" d="M976.2,713.2L976.2,713.2l2.9,1.6l4.2,4c0,0-1.2-18.4-0.1-17.2c1.1,1.2-1.5-1,2.8,3.5
		c4.3,4.5,2.3,4.6,2.3,4.6s2.5,2.2,1.7-0.6c-0.5-2-0.8-4.1-0.7-6.1c0,0,0.5-1.1,0.9-7.1c1.2-20.9-2.7-25.8-3.1-27.4
		C956.2,660.7,956.9,691.1,976.2,713.2z"/>
	<path class="st8" d="M1000.2,677.2c-0.6-2.4-2.8-8.9-2.8-8.9l-4.1,1.9c0,0,2,4.6,3,6.8c1.3,2.8,3.5,5,4.1,8.3
		c0.6,3.3,1.6,8.4-0.6,10.7c-1.2,1.2-3,0.2-4.1-0.9c-6.9-6.7-5.5-11.4-11.2-30.6c-1.6-5.1-5-7.8-8.9-9.8l2.8,18.5
		c1.5,2.8,3,5.7,4.5,8.5c2.2,4.2,6,14.6,11,18.9c1.5,1.3,3.5,2.5,5.4,1.8s3.9-3.2,4.8-5.7c1.4-4.3,0.6-9.3-0.4-13.4
		C1003,681,1000.8,679.7,1000.2,677.2z"/>
	<path class="st9" d="M1002.1,680.2c-0.8-0.9-1.4-1.9-1.7-3c-0.6-2.4-2.8-8.8-2.8-8.9l-0.1-0.2c-1.5,0.7-3,1.4-4.5,2.1l0.1,0.3
		c0,0,2,4.6,3,6.8c0.5,1,1,2,1.7,2.9c1.2,1.6,2,3.4,2.4,5.3c0.6,3.3,1.5,8.2-0.6,10.4c-1.1,1.2-2.9,0-3.9-0.9
		c-4.6-4.5-5.5-8.1-7.3-15.9c-0.9-3.8-2-8.4-3.8-14.6c-1.3-4.3-4.5-7.9-9-9.9c-0.1,0.2-0.1,0.3-0.2,0.5c4.3,2,7.5,5.4,8.7,9.6
		c1.8,6.2,3,10.9,3.8,14.6c1.9,7.9,2.7,11.6,7.5,16.1c1,1,3.1,2.2,4.4,0.9c2.3-2.5,1.4-7.6,0.7-11c-0.5-1.9-1.3-3.8-2.5-5.5
		c-0.6-0.9-1.1-1.9-1.6-2.8c-0.9-1.9-2.4-5.5-2.9-6.5l3.7-1.7c0.4,1.1,2.2,6.5,2.7,8.6c0.4,1.2,1,2.2,1.8,3.2c0.8,0.9,1.3,1.9,1.7,3
		c1.4,5.5,1.6,9.8,0.4,13.2c-0.9,2.6-2.7,4.9-4.6,5.5c-1.5,0.5-3.2-0.1-5.2-1.8c-4.9-4.3-10.9-18.7-11-18.9c-1.5-2.8-3-5.7-4.5-8.5
		l-0.4,0.3c1.5,2.8,3,5.7,4.5,8.5c0.2,0.6,6,14.7,11.1,19c1.8,1.5,3.4,2.2,4.9,2c0.2,0,0.5-0.1,0.7-0.2c2-0.7,4-3.1,4.9-5.9
		c1.2-3.6,1-8-0.4-13.6C1003.5,682.2,1002.9,681.1,1002.1,680.2z"/>
	<path class="st11" d="M1000.2,661.1c0,0-0.2,2-0.4,3.6c-0.2,1.1-0.6,2.1-1.2,3.1c0.3-0.7,0.5-1.5,0.6-2.2c0.2-1,0.2-1.9,0.2-2.9
		c0-1.1,0-2.3-0.2-3.4c0,1-0.1,2-0.3,3c-0.3,2.1-0.2,1.3-0.5,1.8c-0.2,0.4-0.3,0.8-0.4,1.1c0,0-0.3-2.8-0.3-4.3c0-1.5,0-0.6,0.3-2.1
		c0.1-1.4-0.1-2.9-0.4-4.2c-0.1-0.3-0.1,1.6-0.4,3.5c-0.3,1.9-0.1,2.2-0.3,2.9c-0.1,0.6-0.3,1.2-0.5,1.7c0,0-0.1-2.6-0.1-3.3
		c0-0.7,0-1.7,0-2.6c-0.1-0.9-0.3-1.8-0.5-2.7c0,0,0,2.2,0,3.5c0,0.8-0.1,1.5-0.4,2.2c-0.1,0.6-0.1,1.2-0.1,1.8l-1.2-3.8
		c0,0,0.2,2.1,0.2,3.2c0,1.2-0.2,3-0.2,3s-0.7-2.3-1.4-4.8s-0.2-0.6,0.2,2c0.4,2.6,0,0.6,0,2.9c0,2.4-0.2,2.9-0.2,5.6s0.3,2.3,0.7,4
		c0.4,1.4,1.5,2.6,3,3.2c0.1,0,0.2,0.1,0.2,0.1c0.2,0.1,0.4,0.2,0.5,0.4c0.1,0.2,0.1,0.4,0.1,0.6c0.1-0.1,0.1-0.2,0.1-0.3
		c0-0.2,0-0.5-0.1-0.7c-0.1-0.1-0.1-0.3-0.2-0.4c0.2,0.2,0.3,0.4,0.4,0.6c0,0.2,0.2,0.7,0.2,0.7c0.1-0.2,0.1-0.4,0.1-0.6
		c0-0.3-0.2-1-0.2-1s0.1,0,0.2,0.2l0.4,0.6l0.1,0.3l-0.1-0.9c-0.1-0.2-0.2-0.3-0.3-0.5v-0.1c0.2,0.1,0.3,0.3,0.4,0.4
		c0.1,0.2,0.3,0.8,0.3,0.8s0-0.4,0-0.6c0-0.3-0.1-0.6-0.1-1c0,0,0,0.1,0.1,0.2c0.2,0.3,0.4,0.5,0.4,0.7c0,0.2,0,0.7,0,0.5
		s0-0.3,0-0.6c0-0.3,0-0.6,0-0.9l0.4,1.3c0-0.3,0-0.6,0-0.9s0-0.5,0-0.7c0-0.1,0-0.1,0-0.2l0.2-0.1c-0.1-0.3-0.1-0.6,0-1
		c0-0.7,0-1.3,0.1-2c0.3-1.1,0.5-2.2,0.5-3.3c0.1-1.6,0.1-0.3,0.3-2.6c0.1-1.4,0.1-2.8,0-4.2
		C1000.4,660.1,1000.2,661.1,1000.2,661.1z"/>
	<path class="st12" d="M1000.5,662c0-1.2-0.1-1.3-0.2-1.3l0,0c-0.1,0-0.2,0.2-0.2,0.3c0,0-0.2,2-0.5,3.5c-0.1,0.8-0.4,1.6-0.8,2.4
		c0.2-0.5,0.3-1,0.4-1.5c0.1-0.5,0.2-1.1,0.2-1.7c0-0.3,0-0.6,0-1.2c0-1.2,0-2.3-0.2-3.4c0,0,0-0.1-0.1-0.1c-0.1,0-0.1,0.1-0.1,0.1
		c0,0,0,0.9-0.3,3c-0.2,1.4-0.2,1.5-0.3,1.5c-0.1,0.1-0.2,0.2-0.2,0.3c-0.1,0.3-0.2,0.5-0.3,0.8c-0.1-0.8-0.2-2.8-0.2-3.9
		c0-0.4,0-0.7,0.1-1.1c0.1-0.3,0.2-0.7,0.2-1c0.1-1.4,0-2.7-0.4-4.1c0-0.1,0-0.2,0-0.2s0-0.1-0.1-0.1l0,0c-0.1,0-0.1,0-0.1,0.8
		c-0.1,0.8-0.1,1.8-0.3,2.8c-0.2,1.1-0.2,1.7-0.2,2.1c0,0.3,0,0.5-0.1,0.8c-0.1,0.5-0.2,0.9-0.4,1.4c0-0.7-0.1-2.4-0.1-3V659
		c0-0.6,0-1.4,0-2.2c-0.1-0.9-0.3-1.8-0.5-2.7c0,0,0-0.1-0.1-0.1l0,0c0,0-0.1,0.1-0.1,0.1c0,0,0,2.2,0,3.5c0,0.5-0.1,1.1-0.2,1.6
		c0,0.2-0.1,0.3-0.1,0.6c-0.1,0.5-0.1,0.9-0.1,1.4c-0.4-1.1-0.7-2.2-1.1-3.3c0,0,0-0.1-0.1,0c0,0-0.1,0.1-0.1,0.1
		c0,0,0.2,2.1,0.2,3.2c0,0.8-0.1,2-0.2,2.6c-0.2-0.7-0.8-2.5-1.3-4.5c-0.3-1.3-0.4-1.3-0.4-1.2c-0.1,0-0.1,0,0.2,1.5
		c0.1,0.5,0.2,1.2,0.3,1.9c0.2,1.4,0.2,1.4,0.2,1.5c-0.1,0.1-0.2,0.3-0.2,1.4s0,1.8-0.1,2.6s-0.1,1.6-0.1,3c-0.1,1,0,2,0.4,3
		c0.1,0.3,0.2,0.6,0.3,1.1c0.4,1.5,1.5,2.7,3.1,3.3l0.2,0.1h0.1c0.2,0.1,0.4,0.2,0.5,0.4c0.1,0.2,0.1,0.4,0.1,0.5c0,0,0,0,0,0.1l0,0
		l0,0c0.1-0.1,0.2-0.2,0.2-0.4c0-0.2,0-0.4-0.1-0.6v0.1c0,0.2,0.2,0.7,0.2,0.7c0,0,0,0.1,0.1,0.1l0,0c0,0,0.1,0,0.1-0.1
		c0.1-0.2,0.1-0.5,0.1-0.7c0-0.2-0.1-0.4-0.1-0.7l0.3,0.5l0.1,0.3c0,0,0.1,0.1,0.1,0c0,0,0.1-0.1,0.1-0.1c0-0.3-0.1-0.6-0.1-0.9l0,0
		l-0.1-0.2c0.1,0.1,0.1,0.1,0.1,0.2c0.1,0.2,0.3,0.8,0.3,0.8c0,0,0,0.1,0.1,0c0,0,0.1,0,0.1-0.1c0,0,0-0.4,0-0.7
		c0-0.2,0-0.4-0.1-0.6c0,0,0.1,0.1,0.1,0.1c0.1,0.1,0.2,0.3,0.2,0.4c0,0.2,0,0.7,0.1,0.6s0.1-0.1,0.1-0.1v0c0-0.1,0-0.1,0-0.2
		c0-0.1,0-0.3,0-0.4v-0.1l0.2,0.7c0,0,0,0.1,0.1,0c0,0,0.1-0.1,0.1-0.1c0-0.3,0-0.6,0-0.9s0-0.4,0-0.7v-0.2l0.1-0.1c0,0,0-0.1,0-0.1
		c0-0.1,0-0.2,0-0.3c0-0.2,0-0.5,0-0.7c0-0.2,0-0.4,0-0.7c-0.1-0.4,0-0.9,0.1-1.3c0.3-1.1,0.5-2.2,0.5-3.3c0-0.3,0-0.7,0.1-1
		c0.1-0.5,0.2-1.1,0.2-1.6c0.1-0.9,0.1-1.7,0-2.6C1000.5,663.2,1000.5,662.8,1000.5,662z M1000.4,666.2c0,0.5-0.1,1-0.2,1.6
		c-0.1,0.3-0.1,0.7-0.1,1c0,1.1-0.2,2.2-0.5,3.2c-0.1,0.4-0.2,0.9-0.1,1.4c0,0.2,0,0.4,0,0.6c0,0.3,0,0.5,0,0.8c0,0.1,0,0.1,0,0.2
		l-0.1,0.1c0,0,0,0.1,0,0.1c0,0.1,0,0.1,0,0.2c0,0.2,0,0.5,0,0.7v0.2l-0.2-0.8c0,0-0.1-0.1-0.1,0c0,0,0,0.1,0,0.1c0,0.2,0,0.5,0,0.8
		c-0.1-0.1-0.1-0.2-0.2-0.3l-0.2-0.2c0,0,0-0.1-0.1-0.1l0,0c0,0,0,0-0.1,0c0,0,0,0,0,0c0,0,0,0.1,0,0.1c0.1,0.3,0.1,0.6,0.1,0.9
		c0,0.1,0,0.2,0,0.3c-0.1-0.2-0.2-0.4-0.2-0.6c-0.1-0.2-0.2-0.3-0.4-0.4c0,0-0.1,0-0.1,0v0.1c0,0,0,0.1,0,0.1l0.3,0.5
		c0,0.1,0,0.3,0,0.4c-0.1-0.1-0.2-0.3-0.3-0.4c0-0.1-0.1-0.2-0.2-0.2c0,0-0.1,0-0.1,0c0,0,0,0.1,0,0.1c0,0,0.2,0.7,0.2,1
		c0,0.1,0,0.2,0,0.3c0-0.2-0.1-0.4-0.1-0.5c-0.1-0.2-0.3-0.5-0.5-0.7c0,0,0,0-0.1,0c0,0,0,0,0,0c0,0,0,0.1,0,0.1
		c0.1,0.1,0.2,0.3,0.2,0.4c0.1,0.2,0.1,0.5,0.1,0.7c0,0,0,0.1,0,0.1c0-0.1-0.1-0.3-0.1-0.4c-0.1-0.2-0.3-0.4-0.6-0.5l0,0l-0.2-0.1
		c-1.5-0.6-2.6-1.8-3-3.2c-0.1-0.5-0.2-0.8-0.3-1.1c-0.3-1-0.4-1.9-0.4-2.9c0-1.4,0.1-2.2,0.1-3s0.1-1.5,0.1-2.6s0.1-1.2,0.1-1.3
		c0.1-0.1,0.1-0.2-0.1-1.7c-0.1-0.7-0.2-1.3-0.3-1.9c0,0,0-0.1,0-0.1l0,0c0.7,2.5,1.4,4.8,1.4,4.8c0,0,0,0.1,0.1,0
		c0.1,0,0.1,0,0.1-0.1c0-0.1,0.2-1.8,0.2-3c0-0.8-0.1-1.9-0.2-2.6c0.4,1,0.7,2.1,1,3.1c0,0,0.1,0.1,0.1,0c0,0,0.1-0.1,0.1-0.1
		c0-0.6,0-1.2,0.1-1.8c0-0.2,0.1-0.4,0.1-0.5c0.2-0.6,0.2-1.1,0.2-1.7c0-0.8,0-2.1,0-2.8c0.2,0.7,0.3,1.4,0.4,2c0.1,0.7,0,1.5,0,2.1
		v0.5c0,0.7,0.1,3.3,0.1,3.3c0,0,0,0.1,0.1,0.1c0.1,0,0.1,0,0.1-0.1c0.2-0.6,0.4-1.2,0.5-1.8c0.1-0.3,0.1-0.6,0.1-0.8
		c0-0.7,0.1-1.4,0.2-2.1c0.1-1.1,0.2-2.2,0.3-2.9v-0.3c0.3,1.3,0.5,2.6,0.4,3.9c0,0.3-0.1,0.7-0.2,1c-0.1,0.4-0.1,0.8-0.1,1.2
		c0,1.5,0.3,4.3,0.3,4.3c0,0,0,0.1,0.1,0.1c0,0,0,0,0,0l0,0c0,0,0.1,0,0.1-0.1c0.1-0.4,0.2-0.8,0.4-1.1c0-0.1,0.1-0.1,0.1-0.2
		c0.1-0.1,0.2-0.1,0.4-1.7c0.1-1,0.2-1.7,0.2-2.1c0.1,0.8,0.1,1.7,0.1,2.5c0,0.6,0,1,0,1.3c0,0.5,0,1.1-0.2,1.6
		c-0.1,0.7-0.3,1.5-0.6,2.2c0,0.1-0.1,0.2,0,0.2c0.1,0,0.1,0,0.1-0.1l0.1-0.2c0.6-0.9,0.9-1.9,1.1-3c0.3-1.6,0.4-3.5,0.4-3.5
		c0-0.1,0-0.1,0.1-0.2c0.1,0.4,0.1,0.7,0.1,1.1c0,0.8,0,1.2,0.1,1.6C1000.6,664.5,1000.6,665.4,1000.4,666.2z"/>
	<path class="st8" d="M980.9,666c-2.8-2.1-4.4-5.2-6.3-7.5c-11.9,13-23.7,25.7-35.6,38c0.3,5.8,0.2,0.2,1.3,4.4
		c2.3,8.8,17.6,30.3,17.4,28.1l-0.8,6.9c-1.9,10.1-6.8,14-11.2,19.1c0,0-3.2,0.1-4.4,1.4c-1.2,1.3-1.7,5.2-1.7,5.2
		c2.4,2.6,4.8,5.2,7.2,7.8l3.3-5c2.5-1.5,5.1-3.1,7.6-4.6c-0.6-1.1-1.1-2.2-1.7-3.3c5.3-11.2,11.4-18.8,13.5-22.6c0,0,2.5,1.1,3.2,0
		c2-3.1-1.4-7.5-1.5-11.5c-0.1-5,1.1-15.1,1.1-15.1s6.3-11.1,7.8-17.5c0.7-3,1.4-6.8,1.9-10.6C982.8,673.1,982.9,667.5,980.9,666z"
		/>
	<path class="st9" d="M981.1,665.8c-1.8-1.5-3.3-3.2-4.4-5.1c-0.6-0.9-1.2-1.7-1.8-2.4l-0.3,0.4c0.6,0.7,1.2,1.6,1.8,2.4
		c1.2,1.9,2.7,3.7,4.5,5.2c1.6,1.2,2,5.6,1.1,12.9c-0.6,4.4-1.4,8.5-1.9,10.6c-1.4,6.3-7.7,17.3-7.7,17.4v0.1v0.1
		c0,0.1-1.3,10.2-1.1,15.2c0.1,1.6,0.5,3.2,1.1,4.8c0.8,2.4,1.6,4.7,0.5,6.5c-0.5,0.7-2.1,0.3-3-0.1l-0.2-0.1l-0.1,0.2
		c-0.6,1.2-1.7,2.7-3,4.6c-4,5.8-7.5,11.8-10.5,18l-0.1,0.2l1.6,3.2c-2.5,1.5-4.9,3-7.4,4.5c-1.1,1.6-2.2,3.2-3.2,4.9
		c-2.3-2.5-4.6-5-6.9-7.5c0.1-0.7,0.7-3.9,1.6-4.9c1.1-1.2,4.2-1.3,4.2-1.3h0l0.1-0.1c0.7-0.8,1.4-1.6,2.1-2.4
		c3.7-4.1,7.5-8.3,9.2-16.9c0.2-2.3,0.5-4.5,0.7-6.8c0-0.1,0-0.1,0-0.2h-0.4l0,0c0,0,0.1-0.1,0.1,0c-1-0.1-14.9-19.6-17.1-28.1
		c-0.4-1.5-0.7-1.8-0.9-1.8c-0.1,0-0.2,0-0.3,0c-0.1-0.5-0.1-1.8-0.2-2.5l-0.4,0c0.1,2.8,0.2,3,0.4,3.1c0.2,0.1,0.3,0,0.3-0.1v0
		c0,0,0.2,0.1,0.6,1.5c2.1,7.9,15.1,27.2,17.3,28.4c-0.2,2.2-0.5,4.4-0.7,6.5c-1.6,8.4-5.4,12.6-9,16.6c-0.7,0.8-1.4,1.5-2.1,2.3
		c-0.5,0-3.3,0.2-4.4,1.5c-1.1,1.2-1.8,5.2-1.8,5.4v0.2c2.4,2.6,4.8,5.2,7.2,7.8l0.2,0.2c1.1-1.7,2.3-3.4,3.4-5.2
		c2.6-1.6,5.2-3.1,7.8-4.7c-0.6-1.2-1.2-2.3-1.8-3.5c3-6.1,6.5-12,10.5-17.7c1.2-1.9,2.2-3.3,2.9-4.5c0.6,0.2,2.6,0.9,3.3-0.2
		c1.3-2,0.5-4.6-0.4-7.1c-0.6-1.5-0.9-3-1.1-4.6c-0.1-4.7,1-14.1,1.1-15c0.5-1,6.4-11.3,7.8-17.5c0.5-2.1,1.3-6.3,1.9-10.6
		C983.3,671.6,982.8,667.1,981.1,665.8z"/>
	<path class="st7" d="M932.3,773.3c4.5-0.1,8.9-0.3,13.4-0.5c2.2-1.5,2-3.3,2.1-5c-2.6-2-5.3-4-7.9-6
		C936.9,762.3,934.4,766.6,932.3,773.3z"/>
	<path class="st5" d="M934.1,772.1l4.1-0.5l3.2-6.1l-1.7-1.7C936.5,765.3,935.1,768.5,934.1,772.1z"/>
	<path class="st5" d="M972.9,769.9c-3.4,2.6-3.6,4.5-4.7,6.6c1.6-0.1,3.2-0.3,4.8-0.4l2.2-5.4L972.9,769.9z"/>
	<path class="st5" d="M884.2,765.2c-0.2,1.2-0.3,2.5-0.3,3.7l4.5-0.8l0.3-6.7c0,0-2.4-0.3-2.9-0.3
		C885.4,761.1,884.5,763.7,884.2,765.2z"/>
	<path class="st5" d="M878.9,756.7c-0.3,1.6-0.6,3.2-0.7,4.8l3.6-0.2c0.6-2.5,1.3-5.1,1.9-7.6l-3.2-0.9
		C879.8,754.1,879.3,755.4,878.9,756.7z"/>
	<path class="st13" d="M902.3,714.2c-0.9,0.2-3.3,1-4.5,0.5c-1.2-0.5-1.8-0.2-3.2-0.8l-0.3,0l0.4,0.2c0,0,1.4,1.9,2.8,2.4
		s1.4,0.2,2.7,0.3c1.3,0.1,1.9-0.2,2.3-0.8c0.5-0.8,1-1.5,1.6-2.3C904.8,712.9,903.2,714,902.3,714.2z"/>
	<path class="st14" d="M937.7,671.4c-3.9,0.9-15.4,6.1-19.3,6.1c-3.9,0-12.1-2.2-15.4-2.2s-9.9-5.2-9.9-5.2c0,0-3.9,7.8-2.2,10.7
		c1.7,2.9,5.5,9.5,8.3,14.5c2.8,5.1,5,16.5,5,16.5s16.5-3.4,23.2-6.5c3.6-1.6,7.1-3.3,10.5-5.3c0,0,0-7.9,1.1-12.9
		c1.1-5,1.1-10.8,5-17.4C947.6,663.1,941.5,670.5,937.7,671.4z"/>
	<polygon class="st14" points="893,670 893,670 893,670 	"/>
	<path class="st14" d="M917.9,631.5c-1-0.6-6.3-1.6-6.3-1.6c-1.8-0.7-3.7-1.3-5.5-2c-2.9-0.4-5.9-0.8-8.8-1.2l-5.5-0.8
		c0,0-2.2-4.3-3.5-3.7c-1.3,0.6-2.8,0.2-4.8-0.2c-1.7-0.3-3.5-0.3-5.3,0.1c-1.3,0.3-5.5,1.7-6.5,1.9c-1,0.3-2.8,0.8-3.8-0.2
		s-0.8-3-0.8-3l0,0c-1.2,0.3-2.3,0.8-3.3,1.4c-1.2,1-2.5,1.7-4,2.4c-2,0.8-3.2,5.1-3.2,5.1l-0.6,0.4c-0.6,0.6-1.4,1.2-2.2,1.5
		c-1.3,0.4-1.1,1.2-1.7,2.4c-0.5,0.8-1.2,1.5-2,2c-0.8,0-1.5,0.3-2.1,0.7c-0.6,0.6-2.2,2.3-2.2,2.3s-1.8-0.3-2.4,0.3
		c-0.8,0.6-1.7,1.1-2.6,1.6c-1.2,0.5-2.5,0.7-3.8,0.6c-1.4-0.1-1.4-0.1-2.4-1.5c-1-1.4-2.2,0.7-2.7,0.9s-1.5-0.2-2.1-0.4
		c-0.6-0.2-1-1.9-1.5-1.6s-0.6,2-0.7,2.8c-0.3,1-0.8,1.9-1.4,2.8c0,0-1.9,0.4-2.8,0.7s-1.5,0-2.2,0.4c-0.8,0.4,0,0.5-0.2,2.4
		c-0.2,1.9-0.2,1.2-0.3,2.1c-0.1,1-1.7,0.8-1.7,0.8c-0.1,1.8-0.2,3.7-0.3,5.5v4.2l4.5-0.2l5-0.1c0,0,0.7,0.4,2.8,2.9
		c2,2.5,3-1,4-3.5c1-2.5,4.3-6.4,4.3-6.4l2.8-3c0,0,3-1.7,4.5-1.9c1.5-0.2,5.5-0.2,6.5,0.8c0.5,0.5,1,2.8,1.5,5c0,0,0,0,0,0.1
		c-0.9,5.6-1.4,13-1.4,14.9c0,3,10.4,32.4,10.4,32.4s6.5,3.7,7.8,4.6c2.1,1.7,3.7,3.8,4.9,6.1c0.6,2.2,1.1,4.5,1.4,6.7
		c0.6-5.3,0.7-3.2,1-4.8l0.6,5.1v3.6c-0.9-0.1-1.6,1.3-2.3,3.2c1.7-0.3,3.4-0.6,5-1l2.3,8.7c0,0,4.3,7.8,5.2,8.1
		c0.6,0.2,6.3,5.6,10.4,6.3c2.3,0.3,3.9-3.7,4.3-3.9c1.2-0.6,8.1-5.2,8.1-5.2h-2.4l-4.9,0.4c1.8-1.7,3.5-3.4,5.3-5.1l-5.3-1.5
		c0.9-0.9,1.8-1.9,2.5-2.9c0.7-1.2,2.8-4.4,2.8-4.4l-4.4,0.3c0,0-2.3-5.7-2.6-6.6c-0.2-0.9-2.1-4.6-2.8-6.1c-0.7-1.5-1.2-1.5-0.9-3
		c0.3-1.5,1.2-4.1,0.9-5.6c-0.7-2.8-1.6-5.5-2.8-8.2c-0.7-1.5-2.5-5.1-2.5-5.1s-1.6-7.5-2.3-8.8c-0.7-1.2-0.5-2.7-2.1-4.2
		c-1.6-1.5-3.2-3.7-3.2-4.9c-0.2-1.1-0.6-2.1-1.2-3.1c0,0,0,0,0-0.1c-0.8-1.7-1.7-3.4-2.1-4.1c-0.6-1.1-2.9-4.4-3.2-5
		c2.5-0.3,4.9-0.7,7.3-1.3c1.8-0.6,2.3-2.6,2.5-4.5c0.3-3.1,0.4-6.3,0.2-9.5c-0.2-2-0.5-3.9-1-5.9c-0.5-2.6,0.5-3.9,1.5-5.5
		c1-1.6,1.5-2.6,3.5-2.5c2,0,4.5,3.4,5.3,3.4s1-0.3,3-1.3c2-0.9,4.8,0.1,7,0.4c2.3,0.3,7.5,1.6,9,1.6c1.5,0,12.8,7,12.8,6.9
		s-6-6.4-7.7-7.6S918.9,632.1,917.9,631.5z"/>
	<path class="st14" d="M857.5,647.9c-5.1-5.1-7.8-5.5-9.7-5.3c-1.9,0.3-9.9-1.5-11.3,0.1c-2.6,2.3-5.4,4.4-8.4,6.2
		c-2.2,1.2-3.3,0.9-4.6,3.2c-1.3,2.4-5.1,5.4-5.1,5.4l0,0c0.3,1.1,0.6,5.6,0.2,7c-0.5,1.4-1.4,4.6-1.4,4.6c0.7-0.2,1.4-0.2,2.1,0
		c1,0.3,2.4,2.3,2.4,3.6s-1.1,4.8-0.8,6.5c0.4,1.5,1.1,3,1.9,4.3l1.8,1.4l2.1,1.2c0,0,1.7,2.9,2.7,4.9c1,2,2.2,6,2.7,6.8
		s1.1,3.4,1.6,4.5c0.5,1,1.4,1.8,2.4,2.5c0.9,0.5,2,0.9,3,1.1l1.7,0.2l2.5,1.9l3,0.7l1.9-0.3c0,0,3.3-0.6,4.5-1.9
		c1.2-1.4,5.6-4.8,5.6-4.8s4-1.8,4-4.5s-1.1-6.1-0.3-12s0.8,3.8,1-6.6s3-2.7-0.8-16.6C858.2,648.3,862.6,653,857.5,647.9z"/>
	<path class="st7" d="M846.3,697.8c-0.4,0.4-0.7,0.9-0.8,1.4c-0.2,1.6,0,2.5-0.3,4c-0.3,1.1-1.5,1.7-2.2,2.6c-1.2-1-3.7-2.7-4-3.1
		c-0.4-0.6-0.7-1.2-1-1.8c0,0-0.5,1.8-1,1.8c-0.5,0-2.1,0.6-2,1.5c0.1,0.1,0.3,0.2,0.4,0.3s0.4,0.3,0.6,0.4c0.9,0.5,1.9,0.9,3,1.2
		l1.8,0.2l1.8,1.4l0.7,0.5l2.9,0.7c0.5-0.8,0.9-1.6,1.2-2.5c0.6-1.7,0.7-3.6,0.4-5.3C847.5,699.8,847,698.7,846.3,697.8z"/>
	<path class="st7" d="M823.5,684.3l0.9,0.8l0.9,0.6c1.1-1.1,0.5-3,0.2-4.7C825,683.1,824.3,683.9,823.5,684.3z"/>
	<path class="st15" d="M860.4,679c0-0.1,0.1-0.1,0.2-0.1c0,0,0,0,0,0c0,0.2-0.1,0.3-0.2,0.5h0.2c0.1-0.1,0.2-0.2,0.2-0.5l-0.4-0.1
		C860.4,678.9,860.4,678.9,860.4,679z"/>
	<polygon class="st16" points="842.5,693.4 842.5,693.4 842.5,693.4 	"/>
	<path class="st16" d="M860,682.1c-1.1-0.1-4.4-0.3-5.8-0.6c-1.4-0.3-2.5,1.6-3,2.9c-0.3,1.1-1.3,2-2.6,2.1
		c-1.5,0.2-2.6,0.3-4.1,0.5s-1.3-0.3-2.3,0.8s-4.4,1.1-4.4,1.1s1.4,2.6,2.1,2.8c1,0.5,1.8,1.1,2.6,1.9c1.3-0.8,2.6-1.6,4-2.3
		c0.9-0.4,2.5-1.1,3.3-1s2.4-0.8,3.4-0.6c1,0.4,1.9,1,2.6,1.7l1-4c0,0,1.9-3.4,2.3-4.1S861.1,682.1,860,682.1z"/>
	<path class="st16" d="M873.7,707c-0.8-0.8-3.1-1.1-3.7-3.1l-0.9-0.6c0,0-1,0.9-1.3-0.8c-0.3-1.7-3.9-1.9-3.9-1.9s0.3-7.4,0.1-8.7
		c-3,4.7-3.5-1.9-4.8,0l-0.8,3.9l-1,2.5c0,0-0.4,1.4-1.8,0.5c-0.8-0.5-2.5-3.6-3.3-3.5s0.2,9.5-1.3,9.2s-2.7-3.8-2.7-2.6
		c-0.1,2.6-2.1,6.3-2.1,6.3s2.3,4.4,2.5,5.7c0.3,1.3-1.5,3.1-1.5,3.1v2.9l3.5-0.7c0,0,0.7-1.2,0.5,0c-0.2,1-0.6,1.9-1,2.9
		c0,0,2.3,1.2,3.3,0.6c1-0.6,1.5-3.8,1.5-3.8c0.2-1.4,0.3-2.8,0.5-4.2l2.3,5l2.8,2.1l-1-2.7c-0.3-2-0.7-3.9-1-5.9l2.8,3.1
		c0,0,2,0.8,3.5-0.1s0.5-0.9,0.5-0.9l-1.8-1.4c0,0-1.5-3.3-1.5-4.6c0.1-1.1,0.5-2.2,1-3.2l2.1,2.8l1.6,1.4c1.4,3.4,2.6,6.6,2.2,8.4
		c1.4-2.9,0.3-5.7,0.4-9.3l2.9,1.5c0.4,2,0.8,4,1.2,6l2.3-6.4C874.5,709.5,874.8,708.3,873.7,707z"/>
	<polygon class="st16" points="864,691.9 864,691.9 864,691.9 	"/>
	<path class="st17" d="M874.8,708.7c-0.2-0.7-0.5-1.4-1-1.9c-0.4-0.3-0.8-0.6-1.2-0.8c-1.1-0.4-2-1.2-2.4-2.2v-0.1L869,703l-0.1,0.1
		c-0.1,0.1-0.4,0.3-0.6,0.1c-0.2-0.1-0.3-0.5-0.3-0.7c-0.2-1.6-3-2-3.9-2.1c0.1-1.4,0.3-7.3,0.1-8.5l-0.1-0.5
		c-0.1,0.1-0.2,0.3-0.3,0.4c-0.7,1.1-1.3,1.6-1.8,1.6l0,0c-0.5,0-0.9-0.6-1.3-1.1c-0.4-0.5-0.6-0.9-1-1c-0.2,0-0.4,0.1-0.6,0.5
		c-0.3,1.3-0.5,2.6-0.8,3.9c-0.3,0.9-0.7,1.7-1,2.6c-0.1,0.2-0.2,0.4-0.4,0.6c-0.3,0.1-0.7,0.1-1.1-0.2c-0.5-0.4-0.9-0.9-1.3-1.5
		c-0.8-1.1-1.6-2.1-2.2-2c-0.6,0.1-0.6,1.5-0.6,4.1c0,2,0,4.5-0.5,5c0,0.1-0.1,0.1-0.2,0.1c-0.8-0.2-1.5-1.3-2-2
		c-0.3-0.6-0.5-0.8-0.7-0.7c-0.2,0.1-0.2,0.4-0.2,0.5c-0.1,2.5-2,6.1-2,6.1l-0.1,0.1l0.1,0.2c0,0,2.2,4.4,2.5,5.6
		c0.2,0.9-1,2.4-1.4,2.9l-0.1,0.1v3.4l3.8-0.8v-0.1l0.1-0.2c-0.2,0.9-0.6,1.9-1,2.8l-0.1,0.3l0.3,0.1c0.7,0.4,1.5,0.6,2.4,0.7
		c0.4,0,0.7,0,1-0.2c1.1-0.6,1.6-3.8,1.6-4c0.1-1.2,0.3-2.3,0.4-3.5c0.7,1.5,1.3,2.9,2,4.4v0.1l3.4,2.6c-0.4-1.1-0.9-2.3-1.3-3.4
		l-0.9-5.1l2.3,2.6l0.1,0.1c1.2,0.5,2.5,0.4,3.7-0.1c0.7-0.4,1-0.7,0.9-1.1c0-0.2-0.2-0.4-0.5-0.4l-1.6-1.2
		c-0.7-1.4-1.2-2.9-1.4-4.5c0.1-1,0.4-1.9,0.8-2.8l1.9,2.6l1.6,1.3c1.4,3.2,2.6,6.5,2.2,8.2l0.4,0.2c1-2,0.8-4,0.6-6.1
		c-0.1-0.9-0.2-1.9-0.2-2.9l2.5,1.3c0.4,2.2,0.9,4.4,1.3,6.6l2.7-7.3l-0.1-0.1C875.3,710,875,709.4,874.8,708.7z M873.4,716.3
		c-0.4-1.8-0.7-3.6-1-5.4l-3.3-1.7c0,0.1,0,0.2,0,0.4c0,1.2,0.1,2.3,0.2,3.4c0.2,1.5,0.2,3-0.1,4.5c-0.4-2.5-1.2-4.9-2.3-7.2v-0.1
		l-1.6-1.4l-2.2-3l-0.1,0.3c-0.6,1-0.9,2.2-1,3.3c0,1.4,1.5,4.7,1.5,4.8v0.1c0.6,0.5,1.2,1,1.9,1.5h0.1c-0.2,0.2-0.4,0.3-0.6,0.4
		c-1,0.5-2.3,0.5-3.3,0.1l-3.2-3.6c0.4,2.3,0.8,4.5,1.2,6.8l0.7,1.9l-2.1-1.6c-0.8-1.9-1.7-3.8-2.5-5.6c-0.2,1.6-0.4,3.3-0.6,4.9
		c-0.1,0.9-0.6,3.2-1.4,3.6c-0.7,0.4-2.1-0.1-2.9-0.5c0.4-0.9,0.7-1.7,0.9-2.6c0-0.3,0.1-0.7-0.1-0.9c-0.1-0.1-0.3-0.2-0.7,0.5
		l-3.2,0.6v-2.5c0.4-0.4,1.7-2,1.5-3.3c-0.7-1.9-1.5-3.8-2.5-5.7c1-1.9,1.7-4,2-6.1l0.2,0.3c0.5,0.8,1.3,2.1,2.3,2.3
		c0.2,0,0.4,0,0.5-0.2c0.5-0.6,0.6-2.5,0.6-5.3c0-1.4,0-3.5,0.3-3.6c0.4-0.1,1.2,1.1,1.8,1.9c0.4,0.6,0.8,1.1,1.4,1.6
		c0.4,0.3,0.9,0.4,1.4,0.2c0.3-0.2,0.5-0.5,0.6-0.8c0.3-0.9,0.7-1.7,1-2.6c0.2-1.3,0.5-2.5,0.7-3.8c0.1-0.2,0.2-0.2,0.3-0.2
		s0.4,0.4,0.7,0.8c0.4,0.6,0.9,1.3,1.6,1.3s1.2-0.4,1.8-1.4c0.1,1.7,0,5.8-0.1,8c0,0.1,0,0.2,0,0.3h0.2c1.3,0.1,3.5,0.7,3.7,1.7
		c0,0.4,0.2,0.9,0.6,1.2c0.3,0.1,0.7,0.1,0.9-0.1l0.8,0.5c0.5,1.1,1.4,2,2.6,2.4c0.4,0.2,0.8,0.4,1.1,0.7c0.4,0.5,0.7,1.1,0.9,1.7
		c0.2,0.6,0.5,1.2,0.9,1.8L873.4,716.3z"/>
	<path class="st18" d="M840.9,643.5c-1.4,0.1-2.8-0.8-4-0.4c-1.2,0.4-2.4,0.7-3.7,0.8c-1.4,0.1-5.4,0.2-6.8,2.7
		c-1.1,2.3-1.9,4.7-2.5,7.2c1.1-0.3,2.3-0.5,3.4-0.4c1.6,0.2,2.7,2.1,5.2,2c2.5,0,3.8-3.5,5-4.7s2.3-0.3,4.1-0.6
		c1.8-0.4,4.8-4.2,5.8-4.9c1-0.7,5.5-6.3,5.5-6.3l-8.4,3.6C843.4,642.8,842.2,643.2,840.9,643.5z"/>
	<path class="st19" d="M833.4,656.8c-0.4-0.7-2.6-1.1-3.4-1.1s-1.6-1.5-3-2.4c-1.4-0.9-1-1.6-2.5-4.8l-0.7,0.9
		c-0.7,0.8-1.3,1.6-1.8,2.4c-0.8,1.2,0.9,3.3,1.4,3.4c0.6,0.2,1.2,0.4,1.8,0.7c0.5,0.2,3.8,4.5,4.3,5.2c0.9,1.1,2.1,2,3.5,2.6
		c1.1,0.4,1.1-3.8,2.5-4.2C836.7,659.1,833.7,657.5,833.4,656.8z"/>
	<path class="st7" d="M874.6,680.1c-0.4-1.2-0.8-2.4-1.3-3.7l-0.3-4.9c0,0,0.5-2.9-0.5-3.6c-0.9-0.6-1.8-1-2.8-1.5l1.3-3.2l-3,0.5
		l-0.8-2c0,0,2-2.2,1-2.6c-0.8-0.3-1.7-0.4-2.5-0.5c-0.3-1.6-0.7-3.1-1.3-4.6c-0.8-1.7-2-4.4-2-4.4v-7.2c-0.9-1.5-1.8-2.9-2.8-4.4
		c0,0-5,4.9-6,5.4c-1,0.6-0.8-3.6-2.5-1.2c-1.8,2.5-4.8,3.5-6.3,5.4s-3,1.7-3,3.7c0,1.1-3.2-3.1-5-2.1c-1.5,0.5-3.1,0.4-4.5-0.3
		c-2-1-4.1-4.1-4.4-3.8s-2.4,2.3-1.7,3.4c0.3,0.5,1.2,2.4,2.8,3.2c1.9,1,4.5,1.1,4.4,1.3c-0.3,1.9,2,3,1.2,3.1
		c-3,0.4-1.5,2.8-2.8,4.6c-1.3,1.8-3.8-5.9-5.3-6.1c-1.5-0.2-5-1.5-6-1c-1,0.5-2.3,2.7-1.8,6c0.5,3.3,2.3,6.8,3,9.8
		c0.8,3,1.5,7,1.5,7c0.3-2.3,0.5-4.5,0.7-6.8l2.3,3.8c0,0-1,3.8,0,6.9c0.8,2.2,1.9,4.3,3.3,6.2l2.5,1.9c0,0,4,6.7,4.5,4.8
		c-0.5-1-0.6-2.1-0.4-3.2l3.4,1.4l3,0.6l1.5,0.8c0.2-1.2,0.3-2.4,0.5-3.5c0,0,1.5-1.8,3.3-1.7s3.3,0.6,4.3-0.6
		c0.9-1.3,1.5-2.7,2-4.1h0.3c2-0.2,4-0.2,6-0.2c1.8,0.1,5.3,0.3,7,0.4c1.8,0.1,4.8-0.1,4.8-0.1s4.5,1.5,4.8,3.5s3.3,9,3.3,9
		l-2.5-11.9L874.6,680.1z"/>
	<polygon class="st14" points="833.4,666.6 833.4,666.6 833.4,666.6 	"/>
	<path class="st14" d="M847.3,669.1c1.1,1.1,3.6,2.9,3.6,2.9l-2.4-3.3c-1-1.4-2.4-3.1-3.6-3.4c-1.2-0.3-2.8-1.4-3.3-0.9
		c-0.5,0.4-0.9,3.5-0.9,3.5c-0.6-0.1-1-0.6-1.1-1.1c-0.1-0.8,0.4-2.7-0.4-1.5c-0.8,1.2-1.6,3.9-2.4,4.2c-0.8,0.3-1.1,1.4-1.6-0.2
		c-0.4-1-1-2-1.8-2.8c-0.7,2-1.3,5.8-1.8,8.3c-0.3,1.4-0.5,2.9-0.5,4.4c0.1,1.2,0.4,2.3,0.9,3.3c0.4,0.7,2.1,3.3,3.1,2.6
		c0.9-0.9,1.7-1.9,2.3-3.1c0,0,0.8,3.5,1.5,4.1c0.8,0.6,2.6-0.4,2.9-1.1c0.3-0.6,0.9-2,1.4-0.2c0.5,1.8,0.9,3.8,1.6,1.8
		c0.7-2.1,0.8-3.9,1.9-5.7c0.7-1.1,1.3-2.4,1.8-3.6c0.4-1,1.5-0.5-0.1-3.3s-2.9-4.2-2.9-4.6C845.5,669,846.1,668.1,847.3,669.1z"/>
	<path class="st18" d="M843.4,674.1c-1-0.3-2.2-0.3-3.2,0c-0.8,0.3-1.8,0.1-1.9,1.8s-0.4,3.2-0.1,4c0.3,0.8,1.4,2.3,2.4,2.4
		c0.2,0,0.5-0.1,0.4-0.4c-0.1-0.9,1.5-0.1,2.1-0.4c0.8-0.2,1.5-0.6,2-1.2c0.6-0.9,0.5-2.4,0.9-3.5c0.2-0.5,0.9-0.8,0.8-1.3
		C846.5,674,844.6,674.3,843.4,674.1z"/>
	<path class="st20" d="M840.9,676.9c-0.8,0.7-1.1,1.8-0.8,2.9c0.4,0.7,1.5,0.7,2.4-0.2c0.8-0.7,1.2-1.8,0.8-2.8
		C842.8,676,841.8,676.1,840.9,676.9z"/>
	<path class="st21" d="M839.8,676.1c-0.8,1.1-0.1,4.6-0.1,4.6l0,0c0.9-3.7,2.3-5.5,5.8-5.1C845.6,675.6,841.1,674.4,839.8,676.1z"/>
	<path class="st22" d="M839.9,673.5c-0.6,0.1-1.1,0.2-1.7,0.4c-0.4,0.2-0.4,1.2-0.7,2.1c-0.2,0.8-1,1.1-1.4,2.1
		c-0.2,0.7-0.9,1.1-1.7,1.1c-0.4,0.1-1.2,2.7-1.2,2.7l1.1,0.2c0.6-0.5,1.1-1,1.5-1.6c0.7-0.8,1.4-0.7,2-1.1s0.8-1.7,0.8-2.2
		c0.1-0.9,0.4-1.7,1-2.4c1-0.4,2.1-0.5,3.2-0.4c0.8,0.2,1.6,0.3,2.4,0.4c0,0-1.3-1.4-2.7-1.5C841.8,673.2,840.9,673.3,839.9,673.5z"
		/>
	<path class="st23" d="M853,649.9c-1.7,0.1-3.2,0.7-4.4,1.8c-2,3.2-1,6.2-1.1,9.9c-2.3,0.2-3.1,3-4.1,4.5l4.6,2.7
		c2.6-1.3,4.8-4.2,6.7-8.1C853.2,658,852.8,654,853,649.9z"/>
	<path class="st24" d="M853.2,649.9v-0.3H853c-1.7,0.1-3.3,0.8-4.5,1.8v0.1c-1.4,2.3-1.3,4.6-1.2,7c0,0.9,0.1,1.8,0.1,2.8
		c-1.8,0.3-2.6,1.9-3.4,3.4c-0.2,0.4-0.5,0.9-0.7,1.2l0.3,0.4c0.3-0.4,0.5-0.8,0.7-1.3c0.8-1.5,1.6-3,3.3-3.2h0.2v-0.2
		c0-1.1,0-2.1,0-3.1c-0.1-2.4-0.2-4.4,1.1-6.6c1.1-1,2.5-1.5,4-1.7c-0.2,3.2,0,7.5,1.6,10.4c-2,4.1-4.1,6.7-6.5,7.9
		c0.1,0.2,0.1,0.3,0.2,0.5c2.5-1.2,4.7-3.9,6.8-8.2l0.1-0.2l-0.1-0.2C853.2,657.5,853,653.1,853.2,649.9z"/>
	<path class="st7" d="M838.4,699.1c0,1,0.2,2,0.6,3c0.7-0.8,1.2-1.6,1.4-2.6c0-1.1-0.2-2.2-0.6-3.3
		C839.2,697.2,838.7,698.1,838.4,699.1z"/>
	<path class="st14" d="M865.8,666c-1.3-0.9-3-0.4-4.3,0.2c-3.6,1.6-9.3,8.5-9.3,8.5l4,6.4l4.1-0.8c0,0,3.9-2.1,5.4-4
		c0.7-1.1,1.2-2.3,1.5-3.6c0.3-1.1,0.5-2.2,0.3-3.3C867.1,668,866.6,666.6,865.8,666z"/>
	<path class="st25" d="M856.9,678.7c2.4-1,3.3-3.6,4.1-6.2c-2.1,2.3-4.3,3.4-6.4,3.6L856.9,678.7z"/>
	<path class="st7" d="M926,638.7c0.4,0.1,0.2,0-0.4-0.2C925.8,638.6,925.9,638.7,926,638.7z"/>
	<path class="st7" d="M906.8,629.4c-2.1-1.2-10.7-1.7-11.8-2.6c-1.2-1-4.4,0.2-5.8-1.1c-0.7-0.7-1.6-1.2-2.5-1.6l0,0
		c-2.1-0.4-4.1-0.7-6.3-0.9c-1.4-0.1-4.6,1.6-5.8,1.5c-1.2-0.1-3.9,0.4-5.1,0.3c-1.2-0.1-4.2-2.4-1.4-0.1c2.1,1.7,5,2.5,7.9,2.2
		c1.4-0.2,6.7-0.9,4.9,0.2s-3,1.4-3.5,2.8c-0.5,1.5-1.4,3.5,0.5,3.6c1.9,0.1,3.2-0.4,5.6-1c2.3-0.5,7.2-4.8,6.5-2.8
		c-0.7,2.1-2.8,4.7-3.7,5.9c-0.9,1.2-2.5,6.5-1.2,4.8c1.4-1.7,2.1-3.5,4.4-5.6s6.5-4.9,7.4-4c0.9,1,2.1,1.8,3.5,2.2
		c1.4,0.3,7-0.2,8.6,0.1c1.6,0.3,9,0.6,11.6,2.4c1.6,1,3.3,1.8,5.2,2.5c-1.5-0.8-5.4-4.3-7.3-5.2
		C916.3,632.5,908.9,630.7,906.8,629.4z"/>
	<path class="st10" d="M944.6,673.9c-1.6-0.8-1.2-4.5-3-2.6s-4.2,3.2-2.6,4.6c1.6,1.5,3.5,1.4,4.6,1.9c1.2,0.6,5.3,3.4,5.3,3.4
		c0.3-0.7,0.6-1.4,0.9-2.2l-2.6-2.3C946,675.7,946.2,674.8,944.6,673.9z"/>
	<path class="st10" d="M940.8,684.2c-0.8-1.6-1.7-3.1-2.5-4.7c-0.3,2.1-0.6,4.2-0.9,6.3c-0.1,0.4-0.2,0.8-0.2,1.2l-2.5,0.4
		c0,0,1.2,0.9,3,2.3s6.5,4.9,6.5,4.9s-3-4.4-3.2-6.2C940.6,687,940.6,685.6,940.8,684.2z"/>
	<path class="st10" d="M942.9,697.8c-0.6-0.7-1.3-1.3-2-1.8v-1.1c0-0.3,0-0.6-0.1-1c-0.1-0.1-0.3,0.7-0.6,1.6
		c-0.4-0.3-0.9-0.5-1.4-0.6c-1.5,0.1-2.9,0.1-4.4,0.1c0.1,1.3,0.2,2.6,0.2,3.9c1-0.2,2-0.1,3,0.3c-0.8,0.4-1.7,0.6-2.5,0.9
		c-1.6,0.6-5.5,3.7-5.5,3.7c2.5-0.2,5-0.5,7.4-0.7l3.8-1.1c1.6,1.8,4.2,4.2,4.2,4.2s0.9-0.7,0.2-3
		C944.6,700.7,944.1,699.2,942.9,697.8z"/>
	<path class="st7" d="M915.6,717.6c0.1-0.5,0.2-1,0.2-1.5c0,0-2.3-0.6-3.9-0.9s-1.4-0.6-2.8-1.8c-1.2-1.1-2.5-2.2-3.9-3
		c-1.6-0.9,2.3,0.9,2.3,0.9l3.5-1.5c-1-0.1-2-0.3-3-0.6c-0.9-0.3-2.1-1.5-3.2-2.4c-1.2-0.9-1.9-2.1-2.3-4.2
		c-0.4-2.2-0.5-4.4-0.5-6.6c-0.1-1.2-0.8-2.3-1.9-3c-0.9-0.6-1.6-1.8-2.8-3.1c-1.2-1.2-1.2-4.2-1.4-5.4s-1.2-5.1-1.2-5.1
		s-2.1-2.8-3-3.7s-2.3-2.2-3.5-3.1c-1.2-0.9-1.2-4.2-1.2-4.2s-2.1-3.7-2.8-5.2c-0.7-1.5-3.9-3.2-3.9-3.2l0.5,3c0,0,0.5,5.7,2.1,7.6
		c1.6,1.9,5.1,7.1,5.1,7.1c1.7,2.4,3,5.1,3.7,7.9c0.6,2.3,1.1,4.6,1.4,7c0,0,3,6.7,3.5,7.9c0.5,2.2,0.9,4.4,1.2,6.6
		c0,0,0.5,5.7,1.2,6.6c1.6,2.7,2.6,5.7,3,8.8c0.1,1.8,0.5,3.5,1.4,5.1c0,0,3.2-0.3,4.6-0.6s1.8-2.4,3.4-2.4s3.1-0.2,4.2-2.9
		c1.2-2.7-2.3-0.1-2.3-0.1s-5.1,1.5-6.5,0.5s0-0.9,1.4-0.3c1.4,0.6,2.5-1.8,4.4-1.8c1.9,0-0.2-0.9-1.2-1.2c-0.9-0.3-4.9-4.6-4.9-4.6
		s3.2,2.4,4.2,3.3C911.7,718.5,915.6,717.6,915.6,717.6z"/>
	<path class="st16" d="M873.1,689.1l-1.4,2.2l-1.2-2.8l-2.5-2.6c0,0,1.4,3.3,0.5,3.2c-0.9-0.1-0.5,1.1-1.8-0.1
		c-0.7-0.7-1.4-1.5-2-2.4l-0.7-1.9c-0.2-0.6-0.4-1.1-0.5-1.6c0,0-1.8,1-1.1,3.8c0.7,2.8,2.3,4.3,2.8,5.5s2.8,5.2,2.8,7.1
		c0.2,1.5,0.6,2.9,1.4,4.2c0,0,0.7-2.5,0.9-3.4c0.2-0.9,0.5-4.8,0.9-3.2c0.4,1.6,0.9,5.6,1.2,6.7c0.3,1.1,0.7,2.6,0.7-0.4
		c0-3,1.8-5.7,2-6.6c0.1-1.1,0.1-2.3,0-3.4C875.2,691.3,873.1,689.1,873.1,689.1z"/>
	<path class="st16" d="M884.3,704.8c0,0-0.4-3.2-1.2-4.4c-0.9-1.2-1.6-1-1.8-1.9c-0.2-0.9-2.8-2.7-3.2-4.3c-0.4-1.6-0.7-4.9-0.7-2.3
		c0.1,2.1,0.2,4.2,0.5,6.2c-0.5-1-0.9-2-1.4-3.1c-0.4,1.5-0.7,3-1.1,4.6c0.5,2.5,1.1,5,1.6,7.4c1.8,0.6,3.7,1.2,5.5,1.9
		c2.4,1.3,4.9,2.5,7.3,3.7l-1.6-5.6C886.9,706.3,885.6,705.6,884.3,704.8z"/>
	<path class="st16" d="M883.7,711.7c1.5,2.4,2.6,5,3.4,7.7c0.5,2.1,0.8,4.3,0.9,6.5c0,0,1.7-6.5,0.7-9.4
		C887.9,714.1,883.7,711.7,883.7,711.7z"/>
	<path class="st16" d="M886.7,700.9c0,1.5,0.1,2.6,0.1,2.6s0.1-1.3,0-2C886.8,701.3,886.7,701.1,886.7,700.9z"/>
	<polygon class="st16" points="879.3,678.8 879.3,678.8 879.3,678.8 	"/>
	<path class="st16" d="M886.3,689.8c-0.9-2.5-3.4-3.5-4.8-5.7c-0.9-1.7-1.6-3.5-2.3-5.3c0,0,0.7,5.3,1.8,7.6
		c0.9,2.1,2.9,3.2,3.8,5.4c1.1,3,1.7,6.1,1.9,9.2c-0.1-1.9-0.1-4.6-0.2-6.2C886.5,693,886.8,691.3,886.3,689.8z"/>
	<path class="st7" d="M869.8,706.6c-0.6,0-2.3-1.1-3-1.8c-0.7-0.7-3.4-3.9-3.4-3.9v-4.4c0,0-0.8-2.5-1.3-2c-0.7,0.9-1.3,1.8-1.9,2.8
		c0,0-2.5,2.9-3.1,3c-0.6,0.1-0.9,0.8-1.9-0.1s-2.1-5.5-2.3-3.3c-0.1,2.3,0,3.3-0.1,5.2c0,1.1-0.5,2.2-1.4,3l-2.9-2
		c0.4,1.7,1,2.2,1.9,4.9c0.9,2.7,0.5,4.8,0.1,5.4c-0.4,0.9-0.8,1.8-1.1,2.7c0,0.9,0.1,1.8,0.1,2.8c0,0,1.8-3,2.3-3.7
		c0.6-0.8,1.1-1.6,1.4-2.5c0.1-0.8-0.1-3.8-0.1-4.9s-0.2-3.1,0.3-1.6c0.5,1.5,1.3,2.7,1.5,4.2c0.1,1.5,0.5,3,1.1,4.5
		c1,2.2,2.4,4.7,2.4,4.7s-0.6-3.1-0.9-4.9c-0.3-1.8-0.1-3.1-0.5-5.4c-0.4-1.9-0.9-3.7-1.5-5.5c0.3,0.7,0.8,1.4,1.4,1.9
		c0.9,0.7,1.9,0.3,2.4,2c0.5,1.7,0.6,4,1.5,4.8c0.9,0.8,2.6,2.3,2.6,2.3s-2.1-4.7-2.3-6.3c-0.3-1.9-0.7-3.8-1.4-5.6
		c-0.4-1-1.3-2.4,0.1-0.8c1.4,1.6,2.1,2.3,3.1,3.5c1,1.2,2.8,3.1,3.5,2.8c0.7-0.2,1.3-0.4,2-0.5c1,0.5,2,1.1,2.9,1.8
		c1,0.9,2.1,4.2,2.1,4.2c0-0.8,0.1-1.5,0.1-2.3l-1.8-2.9C871.9,708.4,870.5,706.7,869.8,706.6z"/>
	<path class="st10" d="M869.2,627.8c-1.8,0.6-3.3,2.4-3.3,0.8c0.1-1.4,0.3-2.8,0.8-4.2l-3,0.5c0,0-1.3-0.1-2,1.8
		c-0.5,1.2-1.2,2.4-2,3.4l-2,1.8l-3,4l0.8,3.6l3.3-4.3c0.7,1.2,1.3,2.5,2,3.7c1.3,0.4,2.7,0.7,4,0.9c1,0.1,4.8-3,4.8-3s-2-1.1-3-0.8
		c-1.4,0.2-2.8,0.2-4.3,0.1l3-3.4l3.5-3.4C868.7,629.4,871,627.3,869.2,627.8z"/>
	<path class="st10" d="M870.2,639.9l1.8,1.1c1.2-0.1,2.4-0.2,3.5-0.5c1-0.3,2.3-1.8,2.3-1.8l-3.5,0.5L870.2,639.9z"/>
	<path class="st10" d="M886,642.9c-1.5,0.3-2,0.6-3.3,0.5c-0.9-0.1-1.8-0.4-2.5-0.8l-3,1.2l3.5,0.2l3.5,1.4
		C884.3,645.4,887.5,642.7,886,642.9z"/>
	<path class="st26" d="M851.7,694.1c-0.2-0.7-0.6-1.4-1.1-2l-2.1-0.5c0.6,0.2,1.1,0.6,1.5,1c0.4,0.5,0.7,1.1,0.9,1.7
		c0.2,0.7,0.3,1.3,0.4,2c0,0,0.6,1,0.5,0.3C851.7,695.8,851.7,694.9,851.7,694.1z"/>
	<path class="st26" d="M855.6,696.9c0-0.8,0-1.6-0.3-2.4c-0.4-0.8-0.3-0.9-0.6-1.7c-0.2-0.4-0.5-0.8-0.8-1.1
		c0.2,0.7,0.4,1.4,0.7,2.6c0.1,1,0.4,1.9,0.7,2.8c0.5,1.1,1.3,2.2,1,1.4C855.9,697.9,855.6,697.8,855.6,696.9z"/>
	<path class="st26" d="M848.8,696.5c-0.1,0.7,0,1.5,0.4,2.1c0.5,0.8,1,1.1,1.1,2s0.1,2.6,0.1,2.6c0.2-0.7,0.3-1.4,0.4-2
		c-0.2-1-0.5-2-1.1-2.8C849.3,697.7,849.1,697.1,848.8,696.5z"/>
	<path class="st16" d="M873.2,686c-0.7-0.7-1.6-1.3-2.5-1.8l-2-1.1c0.6,0.6,1.2,1.3,1.9,1.8c0.9,0.5,1.7,1.1,2.3,1.8
		c0.4,0.6,0.6,1.2,0.7,1.9C873.6,688.7,874.2,687,873.2,686z"/>
	<path class="st16" d="M896.5,715.5c-0.5-3.6-5.1-8.8-5.1-8.8c1.1,2.3,2,4.7,2.6,7.1c0.4,1.9,0.1,4,0.3,6c0.3,2.3,1.5,6.8,1.5,6.8
		c-0.3-2.1-0.5-4.2-0.5-6.3C895.6,718.5,896.8,717.1,896.5,715.5z"/>
	<path class="st7" d="M898.7,737.6c-0.7-1.4-1.6-2.6-2.6-3.8c0,0-0.8-2.6-1.4-3.8c-0.6-1.3-2.5-3-2.2-2.2c0.5,1.7,0.8,3.5,0.9,5.3
		c0.4,3.2,1.6,6.5,2.3,7.4s2.1,2.7,1.4,2.2s-4.2-3.2-4.5-4.2c-0.3-1-1-4.1-1.2-5.2c-0.3-1-0.8-3.7-1.2-5.8s-0.7-8.4-0.8-4
		c0,3.1,0.3,6.2,0.7,9.2c0,0.8,0.8,4.8,0.2,4c-0.6-0.8-2.5-6.9-2.5-6.9c-0.5-1.8-0.9-3.6-1.4-5.4c0,0,0.5,0.1-0.2-2.3
		c-0.8-2.4-1.7-5.3-1.9-5.8c-0.2-0.5-1.8-3.5-1.6-2.2c0.2,1.2,0.7,4,0.9,5.3s0.9,6.3,0.9,6.3s-0.6,0.1-0.9-0.9c-0.4-1-0.7-2-0.8-3
		c0-1.2-0.2-4.8-0.2-4.8s-0.7-1.6-1.1-2.2c-0.4-0.6-0.5-0.3-1.1-1.4c-0.7-1.2-3.8-2.7-3.8-2.7s2.2,2.7,2.8,3.7
		c0.7,1.1,1,2.4,0.9,3.7c0,1.9,0.1,2.9-0.4,3.6c-0.1,0.2-0.3,0.4-0.5,0.6v0.9c-0.9-0.1-1.6,1.3-2.3,3.2c1.7-0.3,3.4-0.6,5-1l2.3,8.7
		c0,0,4.3,7.8,5.2,8.2c0.6,0.2,6.3,5.6,10.4,6.2c1.9,0.3,3.3-2.4,3.9-3.4c-1-0.9-2-1.8-2.8-2.8C900.2,740.7,899.4,739.2,898.7,737.6
		z"/>
	<path class="st19" d="M891.1,718.9l0.4,0.4C891.3,719.1,891.2,719,891.1,718.9z"/>
	<path class="st19" d="M891.5,719.3c0.5,0.6,0.9,1.3,1,2.1c0.2,1.5,0.2,5.5,0.2,5.5s0.8,0.3,0.9-0.3c0.1-0.6-0.4-3.6-0.5-4.7
		C892.8,720.8,892.3,720,891.5,719.3z"/>
	<path class="st19" d="M900.4,734c0.2,0.1,0.3,0.2,0.5,0.3L900.4,734z"/>
	<path class="st19" d="M899.4,732.4c0-1.4-0.2-2.2-0.2-3.2c-0.2-1.3-0.4-2.5-0.8-3.8l-2.6-0.6c0.1,0.7,0.9,1.9,1.6,4.4
		c0.7,2.5,0.6,3.6,1.6,4.1l1.3,0.6C899.8,733.7,899.4,733.1,899.4,732.4z"/>
	<path class="st19" d="M898.6,716.1L898.6,716.1c0.3,1.1,0.6,2.3,0.7,3.5c0,1-0.2,2.7-0.2,2.7c-0.2,1.1-0.1,2.3,0.1,3.4l0.7,1.8
		c0,0-0.2-2.2-0.2-2.9c0.1-0.8,0.4-1.7,0.7-2.5c0.2-0.5,0.3-1,0.3-1.5c-0.1-0.9-0.3-1.8-0.7-2.6
		C899.6,717.3,899.1,716.7,898.6,716.1z"/>
	<path class="st19" d="M906.6,735c0.9,0.3,2.1,0.6,2.1,0.6l0.5,0.3l1.3-1.2l-5.5-1.5c0.9-0.9,1.8-1.9,2.5-2.9
		c0.1-0.1,0.2-0.2,0.2-0.4c-0.3,0.2-0.6,0.4-0.9,0.5l-3.4,1.2c-1.1-0.7-2.2-1.3-3.4-1.8c-0.3-0.1-0.4,0.1-0.1,0.4
		c1.1,1.4,2.9,3.9,3.6,4.2C904.2,734.5,905.7,734.7,906.6,735z"/>
	<path class="st19" d="M905.2,739.7l1.4-1.3c-0.8,0-2.9-0.3-3.6-0.4c-0.7,0,0.2,1.7,0.2,1.7l1.4,1c0.6,0.3,1.3,0.5,2,0.7
		c0.8,0.1,1.4,0.1,2.3,0.3c1.8-1.2,3.5-2.4,3.5-2.4H910L905.2,739.7z"/>
	<path class="st16" d="M893.4,697c-0.4-0.9-3.3-3.6-3.3-3.6c-1.3-3-2.6-6-3.9-9c0.5,2.3,1.5,4.9,1.6,5.7c0.4,1.6,0.9,3.1,1.7,4.5
		c0.6,0.8,1.9,2.3,1.9,2.3c0.5,0.5,0.8,1,1,1.6c0.2,0.9,0.8,3.9,0.8,3.9s-0.2,2.2,0.3,3c0.6,0.7,1.2,1.6,1.6,2.4
		c0.5,1.1,1.2,3.4,1.2,3.4s0.2-2.6,0.2-3.5c-0.2-1.6-0.5-3.1-1-4.6C895.3,702.4,893.7,697.9,893.4,697z"/>
	<path class="st18" d="M882.2,645.8c-2.7-0.1-5.4-0.3-8.1-0.9c-3.2-0.7-4.1-1.5-6.5-2.1c-2.4-0.6-3.2,1.3-3.9,2.8
		c1,3,2.1,5.9,3.2,8.9c1,1.7,2.1,3.3,3.3,4.8c1.4,1.6,3.5,6.1,4.7,8.4c1.2,2.4,3.2,7.3,4.5,6.9c1.4-0.4-0.4-11.3-0.4-11.3
		s-1-4.1-0.2-4.4c0.8-0.2,5.7,1,7.9,1.9c2.2,0.8,3-7,3-7s-0.2-5.4-1-7.4C887.8,644.2,884.5,645.9,882.2,645.8z"/>
	<path class="st16" d="M884.7,678.7c0.7,1,1.5,1.9,2.4,2.7l-1.9-4.7l-0.4-2.5c-0.4-0.1-0.9-0.3-1.2-0.7c-0.5-0.5-0.4-1-1.3-2.4
		c-0.9-1.4-2.5-5.1-2.5-5.1s-0.2,2.9-0.1,3.6c0.1,0.8,1,2.5,1.1,3.3s0.5,1.6,0.7,2.8s0.5,3.8,0.5,3.8s-0.2,1.1,0.3,1.5
		c0.5,0.4,1.7,0.8,2.1,1.2c0.4,0.4,1.5,2.8,1.3,2.3c-0.2-0.5-2.2-4.4-2.2-4.4c-0.1-0.6-0.3-1.2-0.4-1.8
		C883.3,678.2,884.3,677.8,884.7,678.7z"/>
	<path class="st10" d="M875.5,647c-0.6,0-1.5-1.3-2.6-1.6s-2.1,0.6-2.1,0.6l-1.6-0.1c0.2-0.4,0.4-0.9,0.6-1.3c0,0-1.3,0.3-1.8,0.4
		c-1,0.2-1.8,0.8-2.4,1.5c0.4,0.3,0.9,0.4,1.4,0.3c0.7-0.2,1.3,0.2,1.7,0.2c0.9-0.1,1.8-0.2,2.6-0.5c0.6-0.2,1.3-0.2,1.8,0.1
		c0.5,0.1,1.6,1.1,2.4,1.2c0.8,0.2,2.4,0.4,3,0.5c0.6,0.2,3.2,0.6,3.2,0.6s-2.1-1.2-2.8-1.6C878.2,647.1,876.1,647,875.5,647z"/>
	<path class="st10" d="M886.9,652.4c-0.7,0.7-0.8,0.8-1.2,1.3c-0.4,0.5-1.1,0.5-1.8,0.4l-1.3-0.1c-0.1-0.7-0.2-1.4-0.3-2.1
		c-0.5,0.4-0.9,0.8-1.3,1.3c-0.3,0.5-1.2,0.2-1.6,0.2l-1.1-0.1c0.2-0.2,0.3-0.5,0.5-0.7c0.3-0.5,1-1.4,0.6-1.3
		c-0.6,0.3-1.3,0.6-2,0.8c-0.8,0.1-1.6,1-1.6,1c0.2,0.3,0.5,0.6,0.9,0.8c0.4,0.1,1.1,0,1.9,0.2s1.2,0.7,2.2,1.2
		c0.7,0.3,1.6,0.5,2.4,0.4c0.8,0.1,1.6,0.1,2.4,0c0.8-0.1,1.2-1.3,1.5-1.8c0.4-0.7,0.7-1.4,0.9-2.1c0.3-0.6,1.8-0.9,1.8-0.9
		c-0.6,0.1-1.1,0.2-1.6,0.4C887.5,651.6,887.6,651.6,886.9,652.4z"/>
	<path class="st10" d="M888.4,657.6c-0.8,0-1.7,0.2-2.5,0.4c-0.7,0.1-1.3,0.2-2,0.2c-0.8,0-1.3,0.1-1.9,0c-0.6,0-0.4-0.4-0.4-1
		s-0.3-0.1-0.9,0.2s-0.9,0.2-1.3-0.1l-2.1-1.2c0,0-1.5-1.2-2.2-1.6c-0.8-0.7-1.5-1.6-2.1-2.5c-0.5-0.6-1.3-0.9-2.1-1
		c-0.9-0.2-1.3-0.9-1.7-1.3c-0.5-0.4-1.8-1.2-2.5-1.8c-0.7-0.4-1.6-0.6-2.5-0.4l0.7,0.3l1.5,1.2c0.8,0.8,1.8,1.5,2.8,2.2
		c1.1,0.6,0.8,0.2,1.2,0.2c0.5,0,2,1.6,2,1.6l1.6,1.7c0.4,0.4,2.3,1.9,2.3,1.9c0.8,0.8,1.7,1.5,2.7,2.1c0.8,0.3,3.1,0,3.6,0
		c0.6,0,2.3,0,2.9,0c0.9-0.1,1.7-0.2,2.6-0.4c0,0,0.9,0.7,1.3,0.5s0.1-0.6,0.1-0.6C889.1,658,888.7,657.8,888.4,657.6z"/>
	<path class="st19" d="M869.5,653.1c-0.4-0.6-0.3-0.8-1-0.9c-0.7-0.1-0.3,0.1-1.2-0.2c-0.7-0.2-1.3-0.2-2-0.1l0,0
		c0.5,0.2,1.3,1.1,1.8,1.2c0.5,0.2,2.2,0.6,2.8,0.8c0.6,0.2,2.3,0.5,1.5,0.2C870.7,653.8,869.9,653.7,869.5,653.1z"/>
	<path class="st16" d="M877.1,664.5l-2.4-2.4l-1.5-3.8c0.8,2.7,0.8,4.1,1.5,4.8c0.8,1,1.5,2,2.2,3.1c0.5,0.9,2,7.5,1.9,5.9
		C878.6,670.6,877.1,664.5,877.1,664.5z"/>
	<path class="st26" d="M860,624.6c-2,0.8-3.2,5.1-3.2,5.1l-0.6,0.4c-0.6,0.6-1.4,1.2-2.2,1.5c-1.3,0.4-1.1,1.2-1.7,2.4
		c-0.5,0.8-1.2,1.5-2,2c-0.8,0-1.5,0.3-2.1,0.7c-0.6,0.6-2.2,2.3-2.2,2.3s-1.8-0.3-2.4,0.3c-0.8,0.6-1.7,1.1-2.6,1.6
		c-1.2,0.5-2.5,0.7-3.8,0.6c-1.4-0.1-1.4-0.1-2.4-1.5c-1-1.4-2.2,0.7-2.7,0.9s-1.5-0.2-2.1-0.4c-0.6-0.2-1-1.9-1.5-1.6
		c-0.5,0.3-0.6,2-0.7,2.8c-0.3,1-0.8,1.9-1.4,2.8c0,0-1.9,0.4-2.8,0.7c-0.9,0.2-1.5,0-2.2,0.4c-0.8,0.4,0,0.5-0.2,2.4
		c-0.1,0.9-0.1,0.8-0.1,1c0.5,1,1,1.7,1.4,1.5c0.5-0.3,1.8-2.1,2.3-2.7c0.5-0.6,0.8-2.5,2.6-2.9c1.4-0.3,2.8-0.8,3.9-1.6
		c0.5-0.5,0.8-1,1.5-0.9l2.2,0.2c0.7,0.1,2.3-1.2,3.1-1.1c0.8,0.1,3.4,0.6,4,0.5c0.7-0.1,2.6-1.7,3.5-1.7c1,0.1,2.4-0.7,3.1-1
		c1-0.4,2-1,2.8-1.7c1-0.8,2-1.5,3.1-2.1l1.7-3.7l3.8-6.2c0.6-0.6,1.1-1.2,1.5-1.9l0,0C861.1,624.1,860.5,624.4,860,624.6z"/>
	<path class="st10" d="M845.8,643.3c-1.1,0-2.2,0.1-3.3,0.2l-1.4,2.4c0.9-0.4,1.9-0.7,2.9-0.8c1.3-0.1,2.5-0.4,3.7-0.7
		c0.4-1.2,0.8-2.3,1.2-3.4C847.4,643.1,847,643.4,845.8,643.3z"/>
	<path class="st27" d="M865.2,641.5l3.7-2.6c1-0.6,2-1.3,2.8-2.1c-0.5,0.1-0.9,0.4-1.3,0.6C869.6,638.3,865.2,641.5,865.2,641.5z"/>
	<path class="st27" d="M883.9,634.4c-0.8,0.8-1.7,1.5-2.7,2.1l-3.2,0.3l-2.2-3.8c0.5-1.6,0.9-3.2,1.3-4.7c-0.8,0.4-3.4,0.3-4.5,0.4
		c-1.1,0.2-3,1.8-3.7,2.6c-0.7,0.8-3.2,3.7-3.2,3.7s3.2-0.7,4.2-0.8s2.7-0.1,2.7,1.2c-0.1,0.5-0.4,1-0.9,1.4c1.5-0.5,3-0.9,4.6-1.2
		l2.2,2.1c-0.4,1.4-0.8,2.7-1.2,4.1c0.7,0.2,1.5,0.1,2.2-0.1c0.9-0.3,1.9-0.5,2.9-0.5c0.3-0.4,0.4-0.8,0.5-1.3
		c0.2-0.9-0.2-1.8,0.7-2.8c0.8-1.1,2.2-3,2.2-3C885.1,633.8,884.3,633.9,883.9,634.4z"/>
	<path class="st10" d="M960.1,725.4c0,3,0.4,9.1-0.8,11.7c-1.2,2.6-5.1,13.5-5.1,13.5s5.5-7.4,6.2-10c1-2.5,2.1-5,3.5-7.3l-1.2-0.9
		L960.1,725.4z"/>
	<path class="st5" d="M944.3,653.7c-2.1-1.1-4.1-2.3-6.2-3.4c-5.7,0-11.3-0.4-16.9-1.1c-4-0.7-16.9-4.4-16.9-4.4s-9.6,6.4-9.6,11.5
		c0,5.1,2.8,10.3,7.9,10.4c5.1,0.1,14.7-5,18.6-5c4-0.1,12.4,0.5,16.3,0.4c3.9-0.1,9.6-1.1,11.3,2.5c1.5,3.5,2.7,7.1,3.4,10.8
		c0.6,2.9-5.1,8.3-5.6,12.7s2.3,13.8,7.3,14.3s13-3.8,14.1-9s5.1-27.5,5.1-27.5c-3.8-2.1-7.7-4-11.8-5.7
		C956.1,658.3,944.3,653.7,944.3,653.7z"/>
	<path class="st10" d="M952.6,756.5c-1.7,0.4-3.4,0.9-5.1,1.3l-2.8,4.8c1.4,1.3,2.9,2.6,4.3,3.8l1.2-1.9c2.5-1.5,5.1-3.1,7.6-4.7
		c-0.5-0.9-1-1.9-1.4-2.8L952.6,756.5z"/>
	<path class="st14" d="M972.9,677.9c-0.2,3.1-4.5,14.1-4.5,14s-4.1,5.9-5.5,6c-1.4,0.1-11.7-0.2-11.7-0.2c0,3.1,0.7,8.7,1.2,9.9
		c0.5,1.2,8.8,11.6,8.8,11.6c0.2-1,0.5-1.9,1-2.9c0.7-1.6,5-10.3,6.5-12s5.5-8.5,5.5-8.5c1.4-4.1,2.4-8.2,3.1-12.4
		c1-6.3,1.2-13.2,1.2-13.2l-3.6-3.4C974.8,666.9,973.2,674.8,972.9,677.9z"/>
	<path class="st28" d="M811.1,607.9c67.6,7.8,135.2,9.7,202.8-1v-2.7c-67.6,10.7-135.2,8.8-202.8,1L811.1,607.9z"/>
	<path class="st29" d="M832.5,649.6l-2.5,0.2l2.7,0.7l3.2-2l2-0.3l-2.1-0.2L832.5,649.6z"/>
	<path class="st29" d="M836.1,651.3l2.1-0.3l3.2-0.2l-3.6-0.8L836.1,651.3z"/>
	<path class="st28" d="M1015.2,753.4c-0.3-18.4-0.8-81.8-0.4-124c0-0.6,0-1.2,0-1.8c0-0.6,0-1,0-1.6c0-6.1,0.1-11.9,0.2-16.1v-40.9
		c-0.3-16.6-0.2-33.7-0.2-51.8c0-6.3,0-12.7,0.1-19.2v-1.4c-68,10.9-136.1,9-204.1,1.1v1.4c0,6.5,0,12.9,0.1,19.1
		c0.1,18.1,0.1,35.2-0.2,51.9v40.9c0.2,6.9,0.3,17.8,0.3,29.8v1.2c0.2,40.3-0.2,93.1-0.4,112.4c0,1.8-0.1,3.1-0.1,4.1
		c0,0.2,0,0.4,0,0.6c0,1.9,0.3,3.8,0.8,5.6c0.8,2.6,3.7,6.4,4,6.8l0.1,0.2c14.5,9.8,29.1,19.2,43.6,28.4
		c1.4,1.1,34.9,22.6,53.5,23.9h0.8c18.5-1.2,52-22.8,53.4-23.9c14.4-9.2,28.8-18.9,43.3-29.1h0.2l0.3-0.4c0,0,3.1-4.2,4-6.9
		c0.5-1.7,0.8-3.5,0.8-5.2v-1.2C1015.3,756.3,1015.2,755.1,1015.2,753.4z M1012.6,763c-0.8,2-2,3.9-3.3,5.7
		c-14.5,10.3-28.9,20-43.4,29.1c-0.3,0.4-34.6,22.5-52.8,23.6h-0.5c-18.1-1.3-52.4-23.3-52.7-23.7c-14.4-9.1-28.9-18.4-43.3-28.1
		c-1.4-1.7-2.5-3.6-3.4-5.6c-0.5-1.5-0.7-3-0.7-4.5c0-0.2,0-0.4,0-0.6c0-1,0.1-2.3,0.1-4.1c0.3-19.3,0.6-72.2,0.4-112.5v-1.2
		c0-12-0.1-22.9-0.3-29.8v-40.8c0.3-16.7,0.2-33.8,0.2-51.9c0-5.8,0-11.8,0-17.8c66.6,7.6,133.3,9.4,199.9-1c0,6,0,12,0,17.8
		c-0.1,18.1-0.1,35.2,0.2,51.8v40.8c-0.1,4.2-0.1,10-0.2,16.1c0,0.5,0,1,0,1.5s0,1.2,0,1.8c-0.4,42.2,0.1,105.7,0.4,124
		c0,1.7,0.1,3,0.1,3.9v1.1C1013.2,760.2,1013,761.6,1012.6,763L1012.6,763z"/>
	<path class="st30" d="M900.7,777.8c-3.5-0.6-24.4-8.2-24.4-8.3c-3.4-2.7-6.8-5.3-10.2-8c-5.1-4-2.7,0.4,0.4,4.1
		c3.1,3.6,11.1,10.4,11.1,10.4s9.3,5.6,5.3,4.3c-4-1.3-25.7-11.7-28.3-12c-2.7-0.1-22.6,3.3-22.6,3.3c3.5,0.5,33.7,7.4,33.7,7.3
		c0,0,9.7,4,18.2,7.8c8.4,3.8,25.8,24.7,29.8,23s14.9-10.9,17.6-12.2c2.7-1.2,3.5-12.7,3.5-12.7s-9.7-3.2-12.9-4.4
		C918.9,779.1,904.2,778.5,900.7,777.8z"/>
	<path class="st6" d="M880.3,776.9c-2.6,0.7-5.1,1.5-7.6,2.5c0,0-8.8-2.1-10.1-2.6c-1.3-0.5-3.5-3.1-6.9-2.9
		c-3.5,0.2-8.5-0.2-10.1-0.8c-2.2-0.7-4.6-1.2-6.9-1.4c-2.5-0.2-6.3-3-6.3-3l0,0c-1.6,2.3-2.5,5.5,0,6.1c2.5,0.7,4.4-1.6,7.2-1
		c2.8,0.6,6.3,3,11.6,3.4c5.3,0.4,17,4,17,4s5.7,4,7.9,5.7c2.2,1.7,6.3,2.7,7.6,0.7c1.3-2,2.8-7.2,1.6-8.5S883.2,776.3,880.3,776.9z
		"/>
	<path class="st6" d="M939.5,782.2c-0.9-0.8-4.1-5.2-4.1-5.2l0,0c0,0-3.8,3.8-5,3.8c-1.3,0-3.5-1.2-5-0.3c-1.6,0.8-4.1,5-4.1,4.9
		c0,0-1.6,2.5-0.3,2.5s4.1-2.9,6-2.5c1.9,0.4,2.5,5.7,1.3,6.5c-1.3,0.8-4.1,0.9-5.7,0.9H919c0,0-5.7-0.8-5,0.8
		c0.6,1.6,3.5,2.9,3.5,5.7s-2.8,7-4.4,6.9c-1.6,0-4.4,0.4-6.3-0.9s-6.6-6.2-2.5-1.7c4.1,4.6,7.2,6.6,9.1,6.6c2.3,0,4.6-0.1,6.9-0.4
		c3.5-0.4,8.2-2.6,10.1-2.6c1.9,0,7.9-2.2,9.4-3.5c2.1-1.4,3.4-3.5,3.8-5.9c0.6-3.3-1.3-8.5-1.3-8.5S940.4,783,939.5,782.2z"/>
	<path class="st6" d="M884.7,785.1c1,2,2.1,4,3.1,6l-6.9-1.2c0,0,8,3.5,9.4,4.4c1.4,0.9,14.9,9.4,14.9,9.4
		c-3.7-4.1-7.4-8.2-11.1-12.4C891,789.3,887.9,787.2,884.7,785.1z"/>
	<path class="st6" d="M887.9,780.7c3.9,3.7,7.9,7.5,11.8,11.2c4.8,0.3,9.5,0.5,14.2,0.6c-4.5-1.4-9-2.8-13.6-4.2
		C896.2,785.8,892,783.3,887.9,780.7z"/>
	<path class="st6" d="M881.3,804.4c4.5-1,9-2.1,13.6-3.1c-12.6-2.5-21.5-8.3-30.6-14C869.9,793,875.6,798.7,881.3,804.4z"/>
	<path class="st31" d="M868,751.4c-4.1-0.1-7.3,0.9-9.7,3c-0.1,3.1,0,6.3,0.3,9.4c0,0,14.1-0.3,12.5-4.1
		C869.6,755.9,868,751.4,868,751.4z"/>
	<path class="st6" d="M852,760.1c-2.2-0.8-4.4-1.7-6.6-2.6v6.1c0,0,5.9,0.1,7.5,1c1.6,0.9,8.8,3.5,8.8,3.5c-3-2.1-6.1-4.2-9.1-6.3
		L852,760.1z"/>
	<path class="st6" d="M847.1,767.6c-1.1-0.4-1.8-2.2-2-3.3s-0.5-6.1-0.5-6.1l0,0c0,0-3.5,2.6-4.4,3.9c-0.9,1.6-1.4,3.3-1.5,5
		c0,1.1,1.5,0.1,3.3,0.6c1.9,0.5,3.8,0.8,5.8,1.1c2.2-0.1,4.4-0.3,6.5-0.6c-0.8,0.1-1.6,0.1-2.3,0.1
		C850.3,768.2,848.7,768,847.1,767.6z"/>
	<path class="st6" d="M854.3,768.3c0.8-0.1,1.4-0.2,1.4-0.2L854.3,768.3z"/>
	<path class="st6" d="M949.9,792l-2.2,3.7c3.5,2.3,7.1,4.5,10.6,6.7c2.8-1.9,5.6-3.8,8.4-5.7c-2.4-2.2-4.9-4.5-7.3-6.8
		C956.3,790.7,953.1,791.4,949.9,792z"/>
	<path class="st6" d="M873.7,765.3c0.9,2,1.8,3.9,2.7,5.9c6.1,0.7,12.3,1.3,18.6,1.9c-5.5-0.9-10.9-1.9-16.4-2.9
		C876.9,768.5,875.3,766.9,873.7,765.3z"/>
	<path class="st6" d="M892.7,779.9c0,0,8,4.2,10.2,6c2.2,1.7,14.2,3.6,14.2,3.5s-10.6-5.2-12.4-5.2
		C902.9,784.1,892.7,779.9,892.7,779.9z"/>
	<path class="st6" d="M909.6,780.5c-4.5-1.2-12.5-3.4-13.8-3.4C900.4,778.3,905,779.4,909.6,780.5z"/>
	<path class="st6" d="M912.7,781.4c1.8,0.4,3.6,0.8,5.3,1.2c-2.8-0.6-5.6-1.3-8.4-2L912.7,781.4z"/>
	<path class="st6" d="M867.9,771.9c1.8,0.7,15.1,6.5,15.1,6.5c-3.1-1.7-6.2-3.3-9.3-5L867.9,771.9z"/>
	<path class="st6" d="M950.3,771.3c0,0-2.7,0.7-4.4,1.4l3.1,1.6l4,1.5c2.8-0.5,5.6-1.1,8.4-1.7c0,0-4.9-1.4-7.1-1.3
		C952.8,772.8,951.4,772.2,950.3,771.3z"/>
	<path class="st6" d="M921.5,770.4h-2.7c0,0,4.4,1.1,6.2,1.1c1.8,0,6.6-0.7,6.6-0.7l0,0l-4.4-1.6
		C927.3,769.2,923.3,770.4,921.5,770.4z"/>
	<path class="st6" d="M991.1,770.7c-1.8,2.5-2.7,6.6-2.7,6.6l0,0c2.4-1.4,4.7-2.8,7.1-4.3c3.5-2.2,7.5-1.6,5.3-1.8
		S992.9,768.3,991.1,770.7z"/>
	<path class="st6" d="M918,781.4c-1.8-0.6-9.7-2.9-12.8-2.9c0,0,4.4,2.9,6.2,3.5c1.8,0.6,8,1.7,10.2,1.1
		C923.8,782.5,919.8,781.9,918,781.4z"/>
	<path class="st30" d="M951.2,779.3c-2.7-0.4-6.7-5.4-9.3-5.3c0,0,5.8,7.8,10.2,8.7c4.4,0.9,6.7,2.5,8.4,2.9s11.1-2.6,11.1-2.6
		c0,0-6.6,0-8.9-1C960.5,781,953.9,779.7,951.2,779.3z"/>
</g>
</svg>
