<?xml version="1.0" encoding="utf-8"?>
<!-- Generator: Adobe Illustrator 24.2.0, SVG Export Plug-In . SVG Version: 6.00 Build 0)  -->
<svg version="1.1" id="Layer_1" xmlns="http://www.w3.org/2000/svg" xmlns:xlink="http://www.w3.org/1999/xlink" x="0px" y="0px"
	 viewBox="0 0 1260 1260" style="enable-background:new 0 0 1260 1260;" xml:space="preserve">
<style type="text/css">
	.st0{fill:#FDD500;}
	.st1{fill:#FFFFFF;}
	.st2{fill:#0164BB;}
	.st3{fill-rule:evenodd;clip-rule:evenodd;fill:#D51516;}
</style>
<g>
	<path class="st0" d="M63,262.4v736c190.9-109.6,381.7-71.2,572.6-34.2v-736C444.7,191.2,253.9,152.8,63,262.4z"/>
	<ellipse class="st1" cx="1196.9" cy="560" rx="0.2" ry="520.2"/>
	<path class="st1" d="M635.6,228.2v736c187.1,36.3,374.1,71.1,561.2-36.2V192C1009.7,299.3,822.6,264.5,635.6,228.2z"/>
	<path class="st2" d="M1106.3,331.2c-11.3,11.7-22.7,23-34,33.8c-10-8.2-20.1-16.8-30.1-25.6c2.9,14.2,5.8,28.4,8.7,42.6
		c-12.2,10.4-24.3,20.4-36.5,29.9c13.1-0.7,26.2-1.9,39.4-3.5c2.5,15.1,5,30.1,7.6,45.2c5.2-15.3,10.4-30.6,15.6-46
		c13.7-1.8,27.4-4.2,41.1-7.3c-9.9-6.3-19.8-13-29.7-20C1094.4,364.1,1100.4,347.7,1106.3,331.2z"/>
	<path class="st3" d="M634.6,233.3c-9-0.1-58.7,40-63.1,48.9c-4.2,19.1,5,157.4,9.3,168.7c22.1,11.7,60.5,23,84.4,21.6
		c13-34.8,27-145.6,24.1-159.2C685.9,300,644.3,237.8,634.6,233.3z"/>
	<path d="M693.7,312.5c-2.3-8.5-15.4-29.7-26-45.4c-8.8-13-24.7-35.4-32.1-38.8c-0.5-0.2-1.1-0.4-1.7-0.4
		c-11.4-0.2-61.7,41.5-66.4,51.1c-0.2,0.4-0.3,0.7-0.4,1.1c-4.4,19.7,4.7,159.5,9.6,172.2c0.5,1.4,1.5,2.5,2.8,3.3
		c14.5,7.7,36.6,15.5,57.3,19.5c10.6,2.1,20.8,3.1,29.5,2.6c1.6-0.2,2.9-1.2,3.3-2.6c13.1-35.1,27.5-147.3,24.3-162.4
		C693.8,312.7,693.8,312.6,693.7,312.5z M661.9,467.3c-22.5,0.5-56.9-9.6-77.5-20c-4.2-20.6-12-143-8.6-162.3
		c2.2-3.5,13-13.8,28.1-25.8c16.9-13.4,27.1-19.2,30.5-20.3c9.5,7.2,47,62.7,50.5,75.1C687.3,326.3,674.3,431,661.9,467.3z"/>
	<path class="st3" d="M839.2,507.9c-71-7.4-158.1-26.8-240.3-44.1c-82.2-17.7-159.4-33.2-210.7-41.6c-27-4.5,6,112.2,48.6,118.1
		c117.3,16.6,226.6,49.8,347.2,70.7c32.8,5.3,33.9-31.1,39.6-46.5C829.4,548.9,852.6,511.1,839.2,507.9z"/>
	<path d="M839.8,502.8c-0.1,0-0.3-0.1-0.4-0.1c-39.8-4.7-84.1-12-130.9-21.2c-60.5-11.8-122-26-177.6-37.4
		c-55.6-11.6-105.3-20.4-142-27.1l0,0c-4.8-0.9-8.9,1-11.5,5.2c-7.7,12.5-1,44.1,9.7,69.1c6.5,15.2,24.3,50.7,49.7,54.3
		c113.4,15.7,220.8,48.5,347.2,70.7c0.5,0.1,0.9,0.2,1.4,0.2c29,3.9,35.4-22.4,39.7-39.5c0.9-3.8,1.8-7.3,2.8-10
		c1.4-3.8,4-9.3,6.8-15.1c9.7-20.3,15.8-34.4,12.1-43.1C845.7,505.8,843.1,503.6,839.8,502.8z M826.6,546.1c-2.9,6-5.6,11.7-7.2,16
		c-1.2,3.2-2.1,7-3.1,11.1c-4.2,17-9.1,36.4-32.1,32.6c-126.3-22.2-233.7-55-347.2-70.7c-14.3-2-29.9-19.9-41.9-48
		c-11.3-26.7-14.5-51.7-10.3-58.5c0.4-0.8,1.3-1.3,2.3-1.3c0.2,0,0.4,0,0.7,0.1c37,6.7,86.9,15.5,142.6,27.1
		c55.7,11.4,117.4,25.6,178,37.5c46.7,9.2,90.8,16.5,130.4,21.2C839.9,518.3,830.6,537.7,826.6,546.1L826.6,546.1z"/>
	<path class="st3" d="M680,593.4c-30.8-10.6-113.1-25.1-133.9-31.3c-22.8-7.1-14.8,51.3-27.5,127.2c51.3,15.4,53.5,6.4,80.9,2.6
		c28.8-4.3,80.7,15.2,91.5,2.8C700.8,683.6,701,601,680,593.4z"/>
	<path d="M680.6,588.3c-17.9-6.1-52.4-13.5-82.8-19.9c-21.8-4.6-42.5-8.7-51.1-11.4c-4.5-1.4-8.5-0.9-11.7,1.5
		c-8.9,6.8-10.5,27.4-13,58.4c-1.5,19.8-3.5,44.4-7.9,70.7c-0.2,1.4,0.1,2.9,0.8,4.2c0.6,1.2,1.8,2.1,3.2,2.6
		c9.6,3,19.3,5.4,29.2,7.3c18.1,3.2,26.8,1.2,37.6-1.4c5.2-1.3,10.5-2.4,15.9-3.1c12.2-1.8,29.1,0.9,45.3,3.5
		c22,3.5,41,6.5,48.4-1.8c9.1-10.4,10.2-60.9,1.9-88.4C692.8,598.2,687.5,590.8,680.6,588.3z M687.6,690.7
		c-4.7,5.3-24.4,2.3-41.8-0.5c-16.9-2.7-34.3-5.5-47.6-3.5c-5.6,0.8-11.1,1.9-16.5,3.3c-14.1,3.4-23.7,5.6-57.8-4.3
		c3.9-24.7,5.7-47.6,7.1-66.2c2.1-26.4,3.7-47.2,9.6-51.7c0.9-0.6,2.2-1.3,4.9-0.4l0,0c9.1,2.8,29,6.8,52,11.6
		c30.2,6.3,64.4,13.7,81.7,19.6c3.1,1.1,6.2,6.1,8.5,14C696.2,640.1,692.9,684.7,687.6,690.7L687.6,690.7z"/>
	<path class="st3" d="M654.1,696.7c-35-7.2-87.7,5.7-111.7,0.3c-17.6-4.5-32.3-10.3-40.2,0.5c-11,15.1-7.5,70.9-2.1,80.4
		c4.7,8.8,45.7,6.9,56.7,13.6c37.8,22.4,120.1,41.7,125.8,27c9.5-22,8-64.5,8.8-81.9C691.7,714.6,675.4,701.7,654.1,696.7z"/>
	<path d="M654.2,691.5c-19.1-3.9-43.3-2-64.7-0.3c-18.6,1.5-36.2,3.1-46.8,0.7c-2.4-0.6-4.7-1.2-6.9-1.8c-14.9-4-28.9-7.7-37.3,3.8
		c-11.8,16.4-9,74.4-2.2,86.5c3.9,7.3,15.2,8.7,34.6,11c9.5,1.1,20.3,2.5,24.3,4.8c18.1,10.8,47.4,21.5,76.4,28
		c2.6,0.6,5.2,1.1,7.9,1.6c20.8,4,43.2,5.7,47.2-4.4c8.1-18.8,8.5-50.5,8.9-71.5c0.1-4.8,0.1-9,0.3-12.2c0,0,0-0.1,0-0.1
		C696.3,714.9,680.8,697.7,654.2,691.5z M503.9,775.7L503.9,775.7z M686.4,748.2c-0.3,20.1-0.8,50.6-8.1,67.5c0,0,0,0.1-0.1,0.1
		c-1.3,2.5-14.6,5.2-47.3-2.2c-27.4-6.2-55.9-16.7-72.7-26.7c-3.1-1.8-7.6-3.1-13.1-4c-4.4-0.8-9.4-1.4-14.7-2
		c-9-1.1-23.9-2.7-26.8-5.4c-4.2-7.4-7.9-60.5,2-74.1c5.1-7,14-5.1,29.2-1c2.3,0.6,4.6,1.3,7.2,1.9c12,2.8,30.1,1.1,49.4-0.5
		c20.9-1.7,44.6-3.5,62.4,0.1c12.4,2.9,33.2,11.1,32.8,33.7C686.6,739.1,686.5,743.3,686.4,748.2L686.4,748.2z"/>
	<path class="st3" d="M664.4,824.6c-54.2,1-102.6-33-128.2-39.4c-9.7-2.5-25-2.6-28.2,3.9c-13.3,25.1-15.5,82.6-16.2,107.7
		c-1.4,48.3,78.2,50.4,189.2,71.4c14.2-9.6,27.9-17.4,39.7-37.8C732.4,911.2,697.1,824.1,664.4,824.6z"/>
	<path d="M687.8,970.2c13.2-8.8,25.7-17.1,36.8-36.3c8.1-13.5-1.7-47.5-15.1-72.7c-14.2-26.8-31-42.1-46-41.9
		c-36.9,0.7-71.8-15.7-97.3-27.4c-11.6-5.3-21.6-9.8-29.7-11.9c-7.3-1.9-27.3-4.3-32.5,5.9c-14.4,27.3-16.2,89.6-16.7,110
		c-0.3,9.9,2.4,18.6,7.9,25.8c8.2,10.8,22.4,18.1,41.7,24c48.7,8.4,97.3,18.4,146,27.5c0.3-0.1,0.6-0.2,0.9-0.4
		C685.1,972,686.5,971.1,687.8,970.2z M508.1,789.1L508.1,789.1z M679.5,962.6c-16.7-3-32.5-5.6-47.8-8.2
		c-63.8-11-114.2-18.4-130-39c-3.8-5-5.5-10.8-5.3-17.7c1.5-53.2,6.8-88.6,15.6-105.3v-0.1c1.4-2.8,10.5-4.3,20.2-2.6
		c1.2,0.2,2.4,0.5,3.7,0.8c7.4,1.9,17,6.2,28.2,11.3c26.3,12,62.3,29,101.1,28.2c11.1-0.2,24.9,13.2,36.8,35.7
		c14.3,27,19.3,53.9,14.8,61.3c-10.2,17.6-22,25.5-34.5,33.8L679.5,962.6z"/>
</g>
</svg>
