<svg xmlns="http://www.w3.org/2000/svg" viewBox="0 0 1260 1012.04">
  <g>
    <path d="M0,90.08v920C420,738.76,840,1193.28,1260,922V2C840,273.28,420-181.24,0,90.08Z" style="fill: #fff;fill-rule: evenodd"/>
    <path d="M0,90.08v99.66c369.6,34.69,739.2,631.47,1108.8,801.05,50.4-14.16,100.8-36.26,151.2-68.82V823.83c-370.3-34.74-740.6-633.71-1110.9-802C99.4,36,49.7,58,0,90.08Z" style="fill: #0047b6"/>
    <path d="M1110.9,70.2C740.6,449.83,370.3,398.78,0,911.94v98.14c50.4-32.56,100.8-54.67,151.2-68.83C520.8,564,890.4,613.84,1260,101.63V2C1210.3,34.07,1160.6,56,1110.9,70.2Z" style="fill: #0047b6"/>
    <path d="M525.09,302.64s-2.91,103.81-.54,195.65c3.2,124.28,78.73,219.59,106.16,228.05,23.52,7.33,102.48-52.49,104.5-185.29,1.55-101.58,1.12-194.89,1.12-194.89C665.91,332.82,595.5,316,525.09,302.64Z" style="fill: #fdd44f;fill-rule: evenodd"/>
    <path d="M737.83,344.24c-71.4-13.48-142.8-30.56-214.2-44.09l-.06,2.1c0,1-2.87,105-.54,195.83,1.79,69.44,25.14,124.58,44.41,158.91,23.26,41.41,49.39,67.4,63.18,71.54.31.09.63.18,1,.25,10.42,2.26,30.79-6.15,52.35-30.66,19.16-21.71,51.49-71.41,52.79-156.73,1.53-100.45,1.12-194,1.12-194.95C737.83,345.71,737.83,345,737.83,344.24ZM733.7,540.71c-1.28,83.68-33,132.42-51.82,153.73-20.64,23.46-41.34,32.65-51.09,29.72-13.18-4-38.42-29.26-61.14-69.71-18.92-33.72-41.84-87.87-43.59-156-2.15-83.55.09-178.17.48-193.38,69.43,13.25,138.86,29.76,208.28,43C734.87,362.8,735.1,448.88,733.7,540.71Z"/>
    <path d="M693.51,426.86a10.42,10.42,0,0,1-3.78-6.31c-.72-2.58-1.68-7.66-5.24-8.07,3.09-2.47,4.27-6.72,1.18-12.22-1.9,9.31-2.35,7.48-11.85,9.26-9.74,1.73-13.59,14.08-13.11,28.75.47,12.24,2.9,21.09,11.69,35.46,9.5,15.22,14.45,23.23,14.45,38.84-2.37-9.17-6.87-10.52-10.43-13.37-3.33-2.44-3.56-8.66-1.18-13.36-6.66.66-6.2,9.4-3.35,14.18-2.14.23-2.36.85-2.84,3.87-3.08.73-5.22-.75-7.83-6.17-1.19,6.68,1.39,9.68,5.67,10.6-6.42,3.82-5.46,16.8,0,20.41-3.8-6.72-.45-12.21,1.93-15.51-.71,8.52,5.46,10.51,7.12,6-4.27-.57-3.81-11.57,2.13-10.3,5.47,1.16,8.82,10.22,8.58,17.46s-4.55,18.13-13.82,15.81c-8.07-2.08-12.34-10.68-15.67-17.64a87.42,87.42,0,0,0-2.36-11.95C652,503,644.1,489.47,642.2,478.3c-1.31-7.44-15.94-7.61-25-7,2.09-2.91,3.5-5.93,3.42-8.11-8.07-5.92-13.29-15-15.67-23.88-2.14-8.79-7.1-22.34-10.9-25.93-4-4-7.14-8.12-5.71-12.32,1.18-3.91,1.42-6.64.23-9a13.27,13.27,0,0,0-1.18-1.92c0-3.25-3.23-7-5.47-7.44,1.66,2.79,2.13,4.24,1.89,7-.95,2.23-.47,2-.95,3.94-.76-3-2.61-5.68-4.17-5.55h0c-1.57-2.3-4.56-4.9-7-.61,3.41,1.66,3.42,1.8,4.41,3.52a9.88,9.88,0,0,0,.12,3c-2-1.57-3.59-1.61-4.1.4-1.46-1-3.84.17-5,3.21,2.17,0,3.89.2,5.12,1.25.49,2.31,1.47,4.31,2.95,3.9a5.51,5.51,0,0,0,3.35-2.05c.48,2.18-1.2,6.29,2.13,8.73-2.85-.61-5.95-1.22-6.18,1.16a28.94,28.94,0,0,0-.4,4.06c-2-.64-5.13-.82-6-3.28,1.42,6.54,4.07,8.45,7.4,7.77,2.38,2.58,2.6.22,3.07-2.46,1.43.65,3.58-1.37,4.77.61s3.1,9.05,3.58,11.93c.47,2.53,1.42-2.16,1.42-3.9,0,5.2.23,10.46.23,10.46.48-1.63,1.18-4.63,1.18-4.63,0,4.16-.24,9.35.48,13,1-2.51,1.89-3.7,2.08-5.59-.3,6.57-1.35,9.49-.67,15.61,1.19-1.48,2.16-4,3.11-6.92-1.9,6.53-1.42,10.42,0,14.89a10.25,10.25,0,0,1,1.11-3.21c-.29,3.11.1,6.59,1.69,9,0-2.75.78-2.81,1.1-3.56-.24,3.06.09,3.95,1.54,7.29,1.25,3,2.88,4.49,3.27,7.61-.38.41-.78.78-1.15,1.19-2.37,2.6-15.42,10.85-18,15.5-2.37.18-5.23-.1-7.13,2.62a62.85,62.85,0,0,1-7.64-2.65c-1-3.66-3.21-4.94-4.37-3.39-2.81-2.49-5.55.72-5.55,5.52,1.62-1.14,3.21-1.29,4.53-.27.3,1.52,1.45,2.58,4.25,2.39l2.84,1.34c-2.62,2.23-3.3,2.06-5,3.44-2.85-.59-6.47-1-5.52,4-1.66,2.78-2.33,7.2-.43,12.1.92-2.82,2-6.88,3.82-7.43l.91.08c2.61.2,3.34-.72,3.58-4.14,2.14-.59,3.06.37,5.2-1.61a32.73,32.73,0,0,1-1.15,7.35,4.19,4.19,0,0,0-2.36,5.14c-.73,2.62-.74,7.93,1.85,10.68.19-2.71.27-5.36,1.22-6.87.89.4,1.73.16,2.37-1,1.42-2.47,1.42-3.53.7-6.81.72-2.62,1.93-6.14,3.35-7.22,1.19-.79,2.13-.94,1.66,1.39-.95,6.39,1.66,6.94.47,11.54,3.09-4.2,5-6.9,4-12.66,1.19,5.46,1.93,6.63,1.93,6.63,1.43-2.82.95-5.71.48-8.24,1.42,4.12,1.89,5.64,1.89,5.64.95-1.88,1.65-1.76,1.41-4.93a10,10,0,0,0,3.82,4.62c-1.18-2.69.24-3.39,0-6.21.72,4.66,3.53,7,6.15,6.15-2.38-2.59-1.65-4.54-2.37-6.43,1.43,2.74,3.1,5.56,5,5.28-1.42-2,0-4.19-1-6.82,1.42,3.77,2.42,5.41,6,5.49-1.78-1.83-.94-3.34-1.57-5a11.53,11.53,0,0,0,7,5.15c-.71-2.24.47-3.34.47-4.39.71,3.63.95,3.31.71,5,2.37-2.61,4-3.25,4.76-4.83a32.31,32.31,0,0,0,6.66,11.86c3.56,4.25,10.22,4.27,12.83,10.39a14.93,14.93,0,0,1,1.26,5.51c-3.23-.73-5.58-2-8.38-1.55-3.09-4.83-7.86-6.15-11.19-3.76s-6.42,8.64-12.12,2.54c-3.09-3.45-.91-8.53.27-9.66-4.27-.23-7.15,4.68-2.87,12.55-2.85-3.05-5.49.23-9.53-9,.24,7.69,3.34,14.94,11.18,13.18-6.65,1-2.87,10.49-10.47,6.07,3.09,6.21,7.62,4.38,10.47-1.24-1,4.65-1.19,4.26,0,8,2.38-3.65,3.33,1.08,5.95-.78-1.43,3.51,0,7.92,1.18,10.95,1.19,2.69,1.9,3.22.24,6-5.94-2-14.48-5.22-17.33-4.8-2.61-3.68-3.3-5.18-5.43-7.38.47-5.1-.5-7.76-2.41-6.78l-1.14.5c0-.25,0-.5,0-.75-1.66-1.75-6.17-4.81-7.12.2A10.43,10.43,0,0,1,588,553c-2-2.07-3-2.08-4.09,0-1.62-1.1-5.44-.82-4,6.17,1.42-1.08,2.63-.13,4,.18a5,5,0,0,0-.86,1.82c-2.44-1.34-6.47-1.18-5.79,7.22,2.25-2.8,4.29-2,5.71-1.31a5.65,5.65,0,0,0,.47,1.54c1,1.59,2.4,2.25,3.35-.67,2.61.56,6.13,2.36,8.27,1.78-.48,1.63-2.12,2-2.84,2.9-2.88.35-4.08,2.27-3.27,5a11.45,11.45,0,0,0,1.85,11.66c0-3.12.51-5.11,2.41-7.13,1.66-.33,2.6-1.14,2.12-4.71,1.43-1.78,2.59-6.07,4.26-4,2.37,3.63-.46,5.46,4.52,9.31-.47-2.18,3.31-1.34,2.84-3.52,1.19,4.77,2.39,5.68,4.53,8.92.95-1.88,3.07-3.12,2.36-5.35,1.66,5.56,4.29,6.78,4.53,9.95,2.37-3.3,3.11-4.47,2.87-8.69,1.66,6.61,3.06,9,5.2,6.31a37.42,37.42,0,0,0,2.36-3.62c2.62,3,5.46,1.91,7.36-3.57-3.56,1.65-5.93,1.42-8.3-2.22-1-4.37-2.13-5.67-1.42-10.71.47-5.1,3.58-13.78,12.13-11.22a2.61,2.61,0,0,0,.27.06,33.69,33.69,0,0,0,1.58,7.3c2.61,6.82,5,13.21,3.15,16.62-1.67,3.45-7.62,3.86-4.77,14.2.48-5.1.7-5.71,3.07-6.92,0,4.85-.44,8.22,2.41,11.62-.72-4.67.19-6.56,1.14-8.44,1.9,4.93,3.09,7,6.18,4.85-1.66-1.75-6.16-6.53-3.54-12.55,2.61,5.07,5.23,7,6.65,6.27,1.66-.68,3.33,0,6.42-7.29-.71,5.74-.25,9.64,2.12,14-2.61,2.21-4.05,8.82-4.76,11.79-.47,3-1.41,2.86-3.31,3.14-1.66.33-1.44-3.42-3.58-3.88-1.35-.3-2.39,1.23-2.87,3.22a2.07,2.07,0,0,0-.44-.15c-2.37-.51-5.68,3.62-3.07,10.09,1.43-3.16,2.36-2.3,3.78-2.69a2.12,2.12,0,0,0,.12-.2,4.23,4.23,0,0,0,1.06,2.24,3.36,3.36,0,0,0-1.45,3.71,2.2,2.2,0,0,0-.44,0c-1.66,2.41-1.91,6.53,2.6,10.28-.21-2.55-.4-3.71.43-5.25.59.14,1.06-.48,1.93-.5-2.61,3.25-2.82,8.8,2.88,11.77-.23-3.68-.68-5.23.31-6.94,1.12.87,2.17.86,2.76-.73,1-2.91-.24-6.65,0-9.37.24-2.38,3.58-2.32,4.53-4.54a34.09,34.09,0,0,1,1.45,6.52c-.71,3.31-.73,7.8,2.8,5.84a13.17,13.17,0,0,1-.67,5c4.09-.7,4.85-3.85,4.25-8.46a8.34,8.34,0,0,0,.24-4.09c-.48-4.61-2.59-3.72-3.78-3.29a20.46,20.46,0,0,0-.28-8.39c3.57,2.84,5.5,2.93,8.11-2.06-2.85-1-3.33-3.47-6.18-4.43,5,1.07,8.11.33,9.06-5.71-2.14,1.28-3.34-1.74-4.77-2.4,2.38-.53,5.47.45,6.9-3.76-1.9,1.33-3.38-3.82-5.28-4.23,3.32-1,4.8-1.37,6-4.24-1.9-.06-3.61-5.27-6-2.66,2.14-3.36,7.4.16,8.11-4.2-2.14-.1-4-1.19-5.24-4.21-.95-3-1.21-6.18-2.87-6.54a8.81,8.81,0,0,0,3.35.71c-2.85-3-4.53-6.85-4.06-13-3.09,4.89-8.29,8.63-11.14,7.32s-6.19-4.81-6-10.65c.24-5.16,1-6,1-10.54,3.08,4.48,7.83,8.31,15.19,8.15,12.12.17,19.46-12.22,19-31.4-.47-18.83-3.8-29.22-14.72-46.46-10.22-16.06-12.13-22.71-12.6-36-.48-14.32,4-22.35,9.25-23.31,3.56-1,5.48,5.29,3.58,8.7-1.66,3.11-2.13,9.29-.47,14.16,1.9-.29,2.15-1.66,4.29-3.63-3.8,4.4-5,11.43-3.34,18.38,1.9,7.34,6.87,7.73,9,8.18-3.32-9.73,1.7-11.8,1.7-19.08.71,8.82,3.55,12.5,8.54,9-3.8-1.14-4.49-7.88-3.54-11.15.71-3,2.14-3.38,0-8,4.27,3,5.67-1.9,5.67-6.75C698.73,428,695.64,428.35,693.51,426.86Z" style="fill: #d21034"/>
    <path d="M693.74,426.22a9.54,9.54,0,0,1-3.53-5.87c-.07-.25-.14-.51-.21-.79-.62-2.38-1.6-6.12-4.12-7.42a8.3,8.3,0,0,0,2.1-5,13.16,13.16,0,0,0-1.92-7.35l-.64-1.13c-.08.41-.17.83-.25,1.25-1.49,7.28-1.82,7.33-7.28,8.13-1.17.17-2.55.37-4.21.68-9,1.6-14,12.6-13.5,29.45.52,13.26,3.51,22.36,11.86,36s13.47,21.55,14.19,34.76c-2.06-5.18-5-7.17-7.58-9-.72-.49-1.39-.95-2.06-1.48a6,6,0,0,1-2.18-3.71,13.42,13.42,0,0,1,1.26-8.45l.72-1.42-1.26.13c-2.9.29-4.85,2.14-5.5,5.22a15.09,15.09,0,0,0,1.3,9.09c-1.52.37-1.9,1.27-2.32,3.81-2.81.53-4.66-1-7-5.85L661,496c-.09.48-.17,1-.26,1.46a12.51,12.51,0,0,0,.58,7.58,7.08,7.08,0,0,0,4,3.6c-2.81,2.62-3.6,7.1-3.34,10.72.32,4.5,2.16,8.36,4.79,10.1l1.88,1.24-1.35-2.39c-2.91-5.13-1.35-9.45,1-13.08.18,3.47,1.56,5.62,3,6.54,2,1.32,4.26.43,5.18-2.07.14-.36.27-.73.41-1.09l-.9-.12a2.42,2.42,0,0,1-1.89-1.71,6.85,6.85,0,0,1,.1-4.82,3.3,3.3,0,0,1,3.94-2.24c2,.42,3.77,2,5.22,4.51a23.89,23.89,0,0,1,2.84,12c-.24,7.41-4.62,17.34-13.28,15.19-8-2-12.15-10.71-15.2-17.1a88.37,88.37,0,0,0-2.37-11.94,125,125,0,0,0-5.2-13.23c-3.08-7.08-6.26-14.41-7.37-21-1.05-6-9.18-8.57-24.18-7.78,1.27-2,2.66-4.78,2.58-7.18l0-.51-.33-.25c-7.19-5.26-12.79-13.78-15.36-23.35-2.1-8.63-7.14-22.61-11.15-26.39-4.88-4.83-6.52-8.2-5.47-11.31,1-3.27,1.7-6.73.15-9.78a16.75,16.75,0,0,0-1.06-1.78,8.46,8.46,0,0,0-1.26-3.81c-1.23-2.1-3.18-3.79-4.73-4.12l-1.27-.27.9,1.49c1.59,2.67,1.93,3.85,1.75,6.15a8.07,8.07,0,0,0-.65,2.08c-.94-2.19-2.41-4-3.83-4.11v0h0c-.74-1-2.3-2.82-4.1-2.9-1.31-.06-2.47.8-3.44,2.53l-.5.88.82.39c3,1.46,3.21,1.64,3.94,2.91a8.9,8.9,0,0,0,0,1.62,2.87,2.87,0,0,0-2.66-.48,2.19,2.19,0,0,0-1.07,1.21c-1.65-.66-4,.55-5.13,3.72l-.45,1.23,1,0a7.83,7.83,0,0,1,4.62,1,7.75,7.75,0,0,0,1.71,3.63,1.81,1.81,0,0,0,1.81.54,6.33,6.33,0,0,0,2.76-1.33c0,.22,0,.44,0,.67a9.76,9.76,0,0,0,.81,5.46c-2.42-.42-4.66-.4-4.9,2.05,0,.25-.07.53-.11.83-.11.73-.23,1.6-.28,2.54l-.82-.2c-1.64-.4-3.68-.9-4.24-2.45l-1,.42c1.37,6.27,4,9.11,7.83,8.45.89.91,1.58,1.23,2.15,1,.85-.34,1.12-1.82,1.4-3.39a4.48,4.48,0,0,0,1.69-.2c1.09-.26,1.84-.38,2.29.39,1.08,1.8,3,8.6,3.45,11.56.23,1.21.68,1.4.92,1.4s.38-.15.54-.42c.07,3.06.18,5.38.18,5.42l1,.45c0-.15.09-.31.13-.47a46.65,46.65,0,0,0,.53,8.54L590,446l.6-1.45c.27-.65.53-1.21.76-1.72,0,.46-.09.91-.14,1.35a40.28,40.28,0,0,0-.17,9.93l.16,1.51.72-.9a10.65,10.65,0,0,0,1-1.61,23,23,0,0,0,1.24,9.2l.66,2.07c.1-.68.21-1.35.32-2a1.57,1.57,0,0,1,0-.23,13.24,13.24,0,0,0,1.89,6.23l.87,1.32V468a9,9,0,0,1,.05-1,17,17,0,0,0,1.63,4.94,27.51,27.51,0,0,0,1.49,2.94,11.77,11.77,0,0,1,1.64,3.93l-.29.3c-.21.21-.43.43-.63.65a56.16,56.16,0,0,1-5.62,4.49c-4.68,3.49-10.48,7.83-12.36,10.9l-.81,0c-2.12.11-4.5.23-6.24,2.52a61.6,61.6,0,0,1-7.06-2.45,6.37,6.37,0,0,0-2.75-4,1.76,1.76,0,0,0-2.08.3,2.8,2.8,0,0,0-3.54-.18C560,492.5,559,495,559,497.91v1.38l.8-.56c1.43-1,2.75-1.16,3.85-.46.54,1.91,2.11,2.8,4.65,2.65l1.5.71a17.92,17.92,0,0,1-2,1.32,11.43,11.43,0,0,0-1.78,1.17c-2.31-.46-4.55-.63-5.54,1.08a5.37,5.37,0,0,0-.38,3.47c-1.93,3.46-2,8.18-.31,12.69l.53,1.35c.22-.71.45-1.42.68-2.13.81-2.54,1.81-5.69,3.18-6.18l.42,0,.41,0c2.72.21,3.71-.79,4-4.23a8.14,8.14,0,0,1,1.47-.15,4.45,4.45,0,0,0,2.6-.7,31.82,31.82,0,0,1-.91,5.27,4.88,4.88,0,0,0-2.51,5.69c-.76,3.09-.59,8.46,2.15,11.38l.7.74c.05-.65.09-1.31.14-2,.14-2.13.27-4.15.89-5.39a2.13,2.13,0,0,0,2.54-1.31c1.49-2.6,1.54-3.92.84-7.22,1-3.48,2.09-5.9,3.06-6.65a2.43,2.43,0,0,1,1-.46,6.26,6.26,0,0,1-.12.87,15.48,15.48,0,0,0,.38,7,7.57,7.57,0,0,1,.11,4.47l.88,1c2.13-2.89,3.84-5.21,4.29-8.54a10.41,10.41,0,0,0,.92,2.39l.45.71.34-.67a9.82,9.82,0,0,0,1-4.19c.3.9.42,1.29.42,1.3l.4,1.3.51-1a10,10,0,0,1,.64-1.08,4.57,4.57,0,0,0,.87-2.23,9.14,9.14,0,0,0,2.61,2.77l.49.38,1.66,1.33c-.35-.79-.69-1.57-1-2.35a3.61,3.61,0,0,1-.18-2.82s0-.07,0-.1a8.33,8.33,0,0,0,1.71,2.69,4.25,4.25,0,0,0,4.34,1.28l1-.32-.94-1a5.76,5.76,0,0,1-1.53-2.79c1.22,1.89,2.54,3.22,4,3l1-.15-.79-1.13a4.09,4.09,0,0,1-.47-2.8c0-.09,0-.17,0-.26a5.32,5.32,0,0,0,5.19,3l1.57,0-1.38-1.42a3.21,3.21,0,0,1-1-2.26,12.42,12.42,0,0,0,6.14,3.77l.61.19c-.08.53-.15,1.06-.22,1.59l1.17-1.29a26.49,26.49,0,0,1,2.66-2.5,10.85,10.85,0,0,0,1.68-1.61A32.59,32.59,0,0,0,627,519a17.32,17.32,0,0,0,5.72,4c2.73,1.41,5.57,2.86,7,6.19a13.31,13.31,0,0,1,1.08,4.23c-.73-.18-1.42-.39-2.08-.58a13.59,13.59,0,0,0-5.57-.86c-3.17-4.71-8-6.26-11.61-3.66a19.14,19.14,0,0,0-2.18,1.95c-2.57,2.53-5.23,5.14-9.39.7a5.23,5.23,0,0,1-1.33-3.33,7.72,7.72,0,0,1,1.66-5.07l1.41-1.34-1.79-.1a5,5,0,0,0-5.17,3.91,12,12,0,0,0,.86,7.51,10.82,10.82,0,0,0-1.39-.52c-1.82-.58-3.71-1.17-6.22-6.9-.35-.78-.69-1.56-1-2.35,0,.88.05,1.75.08,2.63.14,4.76,1.33,8.76,3.33,11.26a7.63,7.63,0,0,0,4.95,2.95,10.12,10.12,0,0,0-1.66,3c-.88,2.15-1.47,3.57-5.26,1.37l-1.53-.89,1,2c1.25,2.52,2.82,4,4.55,4.23s3.54-.74,5.12-2.73c-.27,1.65-.09,2.49.74,5.1l.36,1.13c.17-.27.34-.53.52-.79,1.09-1.68,1.69-1.32,2.6-.78a3.24,3.24,0,0,0,2,.64c-.64,3.44.61,7.3,1.7,10.09l.46,1c.79,1.68,1,2.05,0,3.77l-3-1c-5.34-1.84-11.36-3.91-14-3.72-.75-1.06-1.33-1.93-1.83-2.69a29.79,29.79,0,0,0-3.18-4.19c.25-3.28-.09-5.61-1-6.76a1.62,1.62,0,0,0-2.18-.48l-.3.13-.18.08-.23-.32c-1.16-1.23-3.9-3.33-5.93-2.53-1,.4-1.65,1.42-2,3l-.18.93.69.14a7.08,7.08,0,0,1,2.5,1.3,2.82,2.82,0,0,0-1.38,1.39,2.92,2.92,0,0,0-3.64.7c-.72.89-1.41,2.74-.62,6.51,0,.23.1.46.14.69a3.3,3.3,0,0,0-1.3.89c-1.26,1.39-1.75,3.91-1.46,7.5,0,.53.08,1.06.13,1.59l.76-1c1.95-2.43,3.7-1.89,4.94-1.35a5.09,5.09,0,0,0,.5,1.41c.66,1.1,1.46,1.71,2.19,1.67.53,0,1.26-.41,1.86-2,.74.19,1.55.45,2.4.74a19.57,19.57,0,0,0,4.14,1.06c-.22.17-.45.33-.68.49a5.44,5.44,0,0,0-1,.79,4,4,0,0,0-3.54,2.54,5.33,5.33,0,0,0-.06,3,12.64,12.64,0,0,0,2.16,12.43c.26.31.53.61.8.91V589.4c0-2.7.34-4.55,2.14-6.5,1.75-.39,2.83-1.45,2.43-5.1a17.81,17.81,0,0,0,1.06-1.8c.58-1.08,1.24-2.3,1.8-2.32.1,0,.27,0,.47.28a6.25,6.25,0,0,1,1,3.23c.23,2.18.62,3.91,3.68,6.27l1,.8-.35-1.61c-.08-.36.44-.6,1.13-.88a4,4,0,0,0,1.19-.66,17.92,17.92,0,0,0,3,5.83c.36.52.76,1.08,1.19,1.73l.45.69.33-.66a10.46,10.46,0,0,1,1.07-1.55,8.83,8.83,0,0,0,1.2-1.82,24.21,24.21,0,0,0,2.14,3.92,7.46,7.46,0,0,1,1.53,3.5l.12,1.71.79-1.08c1.71-2.37,2.61-3.73,2.92-5.81.85,2.65,1.64,4,2.55,4.49s1.67.09,2.6-1.07c1.16-1.64,1.79-2.64,2.11-3.18a3.77,3.77,0,0,0,3.38,1.32c1.7-.35,3.19-2.25,4.32-5.49.2-.6.41-1.19.62-1.79l-1.32.61c-3.59,1.67-5.61,1.2-7.63-1.81-.25-1.13-.52-2.06-.76-2.89a14.42,14.42,0,0,1-.59-7.27c.47-5.08,3.42-13,11.44-10.71a34.77,34.77,0,0,0,1.57,7c2.51,6.54,4.88,12.71,3.16,15.8a8.3,8.3,0,0,1-2,2.29c-2.24,2-5,4.58-2.82,12.61l.75,2.72.25-2.7c.4-4.27.57-5.11,2-6v.46c0,3.93-.09,7.32,2.64,10.58.37.44.74.87,1.1,1.31-.1-.65-.19-1.3-.29-2-.56-3.67-.07-5.44.62-7a12.26,12.26,0,0,0,2.42,4.28c1.13,1,2.37,1,4-.14l.76-.51-.77-.81c-1-1.06-3.39-3.56-4-6.73a8.11,8.11,0,0,1,.27-3.84c2.42,4.34,5,6.53,6.75,5.65a6.23,6.23,0,0,1,.73-.24c1.26-.35,2.67-.75,4.68-4.61a20.15,20.15,0,0,0,2.17,10.52c-2.32,2.48-3.64,8.06-4.37,11.14l-.15.63c-.36,2.3-.88,2.37-2.43,2.58l-.51.07c-.42.09-.57-.15-1-1.18s-1.06-2.41-2.42-2.7-2.56.88-3.22,3.1l-.09,0c-1.49-.33-3.12.88-4,2.93-.54,1.33-1.2,4.17.44,8.24l.46,1.13.43-1c1-2.16,1.62-2.21,2.51-2.27.22,0,.45,0,.69-.08a5.87,5.87,0,0,0,.41,1,4.05,4.05,0,0,0-1.14,3.2h-.13l-.11.17a7.24,7.24,0,0,0-1.15,5.22,10.33,10.33,0,0,0,3.94,6.31l.54.45a8.83,8.83,0,0,0,4.79,5.64l.69.36-.06-1c0-.82-.11-1.52-.16-2.16-.17-1.9-.25-2.9.17-3.88,1.31.8,2.42.36,3-1.26a15.44,15.44,0,0,0,.2-6.24,17.88,17.88,0,0,1-.16-3.33c.09-.9,1-1.4,1.93-1.94a7,7,0,0,0,2-1.42,34.45,34.45,0,0,1,1,5c-.31,1.49-.79,4.75.38,6.41a1.92,1.92,0,0,0,2.47.65,15.43,15.43,0,0,1-.68,3.58c-.13.44-.25.88-.38,1.33l1-.17c3.84-.65,5.33-3.52,4.67-9a10,10,0,0,0,.21-4.33,6.36,6.36,0,0,0-1.31-3.74,2.22,2.22,0,0,0-2.33-.57,19.35,19.35,0,0,0-.12-5.93c3,2.1,5.15,2,7.73-3l.51-1-.9-.3a7,7,0,0,1-2.88-2.07l-.42-.44c3.43.14,5.82-1.37,6.64-6.6l.25-1.61-1,.61c-1.17.7-1.95-.13-2.86-1.1h.16c2-.15,4.35-.33,5.56-3.91.25-.72.49-1.45.74-2.17l-1.49,1c-.73.51-1.38-.34-2.38-1.77-.35-.49-.7-1-1.07-1.42,2.45-.78,3.8-1.45,4.89-4.11.17-.4.34-.8.5-1.21l-1,0c-.55,0-1.17-.7-1.82-1.43a11.49,11.49,0,0,0-1.25-1.27,14.31,14.31,0,0,1,1.48-.11c1.88-.09,3.83-.18,4.29-3,.06-.34.11-.67.17-1l-.74,0c-2.24-.11-3.78-1.34-4.71-3.69-.23-.74-.43-1.5-.62-2.24a21.28,21.28,0,0,0-.81-2.72,6.17,6.17,0,0,0,1.54.16l1.36-.1-1.2-1.28c-3-3.23-4.2-7-3.8-12.2.07-.85.13-1.7.2-2.54l-1.13,1.78c-3.14,5-8.12,8.29-10.65,7.16a9.89,9.89,0,0,1-5.5-9.76,41.35,41.35,0,0,1,.53-5.16,33.35,33.35,0,0,0,.42-3.89,17.47,17.47,0,0,0,14.78,7.28c12.29.16,19.91-12.46,19.43-32.1-.48-19-3.82-29.56-14.9-47-10.19-16-12-22.6-12.43-35.43-.48-14.41,4.11-21.74,8.9-22.63,1.26-.34,2.37.33,3.06,1.85a6.54,6.54,0,0,1-.08,5.56c-1.68,3.15-2.33,9.61-.5,14.95.06.19.13.38.19.57l.4-.06a3.53,3.53,0,0,0,1-.3,24.57,24.57,0,0,0-.68,14.46c1.89,7.31,6.69,8.22,9,8.66l1.39.29-.42-1.22c-1.92-5.62-.91-8.38.25-11.57.36-1,.73-2,1-3.16.57,2.86,1.48,4.87,2.72,6,1.6,1.46,3.64,1.35,6.07-.34l1.4-1-1.65-.49a4.34,4.34,0,0,1-2.67-2.84,12.56,12.56,0,0,1-.41-7.2,13.5,13.5,0,0,1,.57-1.73,6.5,6.5,0,0,0,.09-5.19,2.68,2.68,0,0,0,2.91-.35c1.35-1.15,2.13-4,2.13-7.72v-2.83c-.32.75-.65,1.5-1,2.25C698.44,427.13,695.64,427.54,693.74,426.22Zm-78.43,84.94v0c-.06-.21-.13-.41-.19-.61a3.14,3.14,0,0,1-.05-1.91c0,.15.07.29.1.42A3.85,3.85,0,0,1,615.31,511.16Zm36,122a3.83,3.83,0,0,1,.36-1.3h.1A9.28,9.28,0,0,0,651.35,633.16Zm46.82-202.55c-.81.69-1.92.56-3.28-.39l-1.59-1.11c.34.72.67,1.45,1,2.17,1.41,3.05,1.12,3.82.54,5.34a15.88,15.88,0,0,0-.61,1.9,14.75,14.75,0,0,0,.5,8.57,7,7,0,0,0,2.06,3c-1.56.77-2.86.68-3.86-.23-1.4-1.28-2.33-4.31-2.69-8.79l-1-.12a17.56,17.56,0,0,1-1.4,6.47c-1.11,3-2.25,6.18-.61,11.79-2.39-.47-6.13-1.42-7.68-7.41-1.61-6.7-.37-13.44,3.21-17.59l-.68-1.3a19.47,19.47,0,0,0-1.75,1.87,3.87,3.87,0,0,1-1.95,1.57c-1.37-4.61-.78-10.13.63-12.76a8.74,8.74,0,0,0,.07-7.36c-1-2.12-2.55-3.11-4.22-2.65-5.16.95-10.14,8.74-9.64,24,.48,13.31,2.3,20.1,12.77,36.55,10.83,17.08,14.09,27.36,14.56,45.9.47,18.79-6.81,30.87-18.54,30.71-6.11.13-11.08-2.53-14.78-7.89l-.86-1.26v1.65a29.48,29.48,0,0,1-.43,5.12,46.33,46.33,0,0,0-.55,5.38c-.25,6.24,3.28,10.13,6.38,11.55,2.87,1.33,7.51-1.89,10.63-6a16.35,16.35,0,0,0,3.1,10,10.68,10.68,0,0,1-1.35-.38,1.63,1.63,0,0,0-.44-.15l-.06,1.51.32.12c.65.36,1,1.57,1.49,3.53.19.77.4,1.57.68,2.45,1,2.63,2.66,4.16,4.84,4.57-.53.88-1.6,1-3.13,1.05s-3.43.15-4.55,1.91l.76,1.22c1.11-1.23,1.94-.43,3.2,1a8.45,8.45,0,0,0,1.54,1.47c-1,1.72-2.27,2.12-4.88,2.93l-.39.11.18,1.53c.63.13,1.3,1.09,2,2a6.53,6.53,0,0,0,2.24,2.33c-1,1.66-2.59,1.77-4.2,1.89a12.83,12.83,0,0,0-1.76.22c0,.5.05,1,.07,1.5a4.58,4.58,0,0,1,1.2,1.05c.77.82,1.69,1.8,2.87,1.69-1,3.92-3.29,4.94-8.28,3.87,0,.5,0,1,0,1.51a6.91,6.91,0,0,1,2.87,2.08,9.41,9.41,0,0,0,2.42,2c-2.2,3.79-3.84,3.52-7,1l-1.09-.87c.13.56.27,1.13.4,1.69a17.81,17.81,0,0,1,.35,7.09c0,.31-.07.62-.1.93s0,.84-.05,1.26l.84-.31c.68-.25,1.6-.6,2.2,0a4.54,4.54,0,0,1,.79,2.53,7.62,7.62,0,0,1-.17,3.61l-.1.23,0,.28c.57,4.36-.27,6.59-2.89,7.42a12,12,0,0,0,.34-4c-.05-.35-.09-.7-.13-1.05l-.64.35c-1,.54-1.7.58-2,.1-.47-.68-.48-2.68,0-4.88l0-.16,0-.17a35.36,35.36,0,0,0-1.5-6.76c-.15-.46-.3-.92-.44-1.38l-.49,1.14a4.36,4.36,0,0,1-2.11,1.84c-1.14.65-2.31,1.31-2.48,3a21.34,21.34,0,0,0,.16,3.77,13.53,13.53,0,0,1-.11,5.37c-.15.41-.61,1.66-2.1.5l-.37-.29-.24.41c-.9,1.56-.77,3.07-.57,5.35,0,.32.05.66.08,1a6.44,6.44,0,0,1-1.9-10l1.15-1.44-1.61,0a3.05,3.05,0,0,0-1.19.34,1.2,1.2,0,0,1-.64.18h0l-.27-.06-.16.29a7,7,0,0,0-.65,4.37,7.92,7.92,0,0,1-2.47-4.35,5.37,5.37,0,0,1,.8-3.75h.21l.57,0-.12-.86a2.63,2.63,0,0,1,1.2-2.93l.87-.51c-.3-.28-.6-.56-.89-.85a3.2,3.2,0,0,1-.81-1.76l-.33-1.41-.6,1a4.6,4.6,0,0,1-.71.09c-.88.06-1.72.13-2.71,1.87a8.35,8.35,0,0,1,0-5.53c.73-1.81,2.08-2.54,3-2.35.12,0,.28.07.33.1l.49.33c.05-.22.11-.45.16-.68.35-1.46,1.19-3.07,2.38-2.81.82.18,1.16,1,1.56,1.87s1,2.25,2.15,2l.48-.07c1.63-.22,2.71-.36,3.2-3.49,0-.19.09-.38.13-.56.74-3.12,2.12-8.93,4.44-10.9l.48-.4-.4-.71c-2.17-4-2.71-7.56-2-13.3l-1-.72c-2.51,6-4,6.36-5.36,6.76a8,8,0,0,0-.83.27c-1.13.58-3.5-1-6-5.94l-.48-.94c-.13.29-.25.58-.38.86a10.19,10.19,0,0,0-.71,5.88,14.58,14.58,0,0,0,3.65,6.91,1.79,1.79,0,0,1-2.25-.17c-.78-.74-1.51-2.36-2.42-4.73-.15-.37-.29-.74-.43-1.11-.16.29-.31.59-.46.89a11.59,11.59,0,0,0-1.45,6.88c-1.21-2.19-1.18-4.5-1.15-7.68,0-.56,0-1.14,0-1.75v-1.24l-.76.39c-2,1-2.59,1.77-3,4.27-.48-4.39,1.35-6.06,3.13-7.67a8.91,8.91,0,0,0,2.21-2.6c2.12-3.79-.43-10.43-3.11-17.41a33.28,33.28,0,0,1-1.52-7c0-.22-.05-.44-.07-.66l-.44-.1-.12,0-.13,0c-8.91-2.63-12.19,6.53-12.68,11.71a16.56,16.56,0,0,0,.67,8.17c.24.84.52,1.79.77,3l0,.2.11.15c2.34,3.6,4.73,4,7.47,3-.86,1.8-1.86,2.85-3,3.07s-2-.27-3-1.4l-.43-.49-.28.55a38.78,38.78,0,0,1-2.3,3.53c-.64.8-1.17,1.07-1.62.83-1.07-.56-2.06-4.08-2.72-6.69l-1,.12c.2,3.5-.28,4.66-2.11,7.26a12.54,12.54,0,0,0-1.58-3,20.33,20.33,0,0,1-2.68-5.55s0-.09,0-.14l-.95.47,0,.09c.26.92-.28,1.66-1.16,2.78-.28.36-.57.72-.83,1.12-.28-.41-.55-.78-.8-1.14a16.5,16.5,0,0,1-3.16-6.81l-1,.3c.08.36-.44.6-1.12.88a2.67,2.67,0,0,0-1.67,1.32,5.57,5.57,0,0,1-2.38-4.41,8.48,8.48,0,0,0-1.39-4.27,1.68,1.68,0,0,0-1.31-.78c-1,0-1.71,1.38-2.48,2.8a12.26,12.26,0,0,1-1.14,1.88l-.2.25.06.41c.39,3-.22,3.61-1.76,3.92l-.2.11a9.22,9.22,0,0,0-2.54,6.22,10.49,10.49,0,0,1-.92-9.61l.15-.32-.12-.4a3.34,3.34,0,0,1-.06-2.11c.37-1,1.42-1.69,3-1.88l.15,0,.1-.13a4.1,4.1,0,0,1,.93-.75,4.2,4.2,0,0,0,2-2.38l.42-1.44L595,569c-1.33.36-3.34-.31-5.28-1a28.66,28.66,0,0,0-2.82-.83l-.34-.07-.14.42c-.35,1.06-.77,1.64-1.24,1.66s-.85-.36-1.26-1.05a5.32,5.32,0,0,1-.34-1.18l-.09-.48-.32-.15c-1.14-.52-3.16-1.45-5.35.55,0-2.24.38-3.82,1.19-4.72a3.23,3.23,0,0,1,4-.28l.45.25c0-.2.11-.4.16-.6a4.33,4.33,0,0,1,.75-1.57c.29-.38.59-.75.89-1.12l-1.27-.27a9,9,0,0,1-1-.3,3.52,3.52,0,0,0-2.71-.18c-.28-1.89-.1-3.29.53-4.07a2.26,2.26,0,0,1,3-.33l.37.25.22-.42c.87-1.69,1.49-1.92,3.41,0l.62-1.07a11.89,11.89,0,0,0-5.07-4.4,2.06,2.06,0,0,1,1.12-1.3c1.43-.56,3.58.85,4.78,2,0,.09,0,.19,0,.31,0,.38,0,.76,0,1.14l.7-.33.84-.36.32-.15c.49-.25.86-.21,1.12.12.46.58.84,2.38.53,5.72,0,.17,0,.34,0,.51l.31.32a26.16,26.16,0,0,1,3.31,4.29c.55.83,1.2,1.8,2,3l.2.28.26,0c2.27-.34,8.71,1.87,13.88,3.65,1.14.4,2.24.78,3.27,1.12l.29.1.17-.29c1.61-2.68,1.21-3.81.22-5.93-.14-.28-.29-.6-.43-.91-1.21-3.1-2.43-7-1.16-10.18l-.74-1.18c-1,.71-1.64.32-2.4-.13s-1.88-1.12-3.13.32c-.59-1.91-.51-2.25,0-4.69.11-.48.22-1,.36-1.68l-.94-.84c-1.69,3.33-3.92,5.14-6,4.84a4,4,0,0,1-2.42-1.49c3.05,1.14,3.82-.76,4.64-2.75.69-1.69,1.41-3.44,3.68-4l.63-.13-.27-1.53a5.61,5.61,0,0,0-.64.12,6.89,6.89,0,0,1-7-2.46,14.92,14.92,0,0,1-2.68-7.32c2.27,4.18,4.16,4.78,5.85,5.31a5.41,5.41,0,0,1,2.68,1.51l.66-1c-1.72-3.17-2.35-6.09-1.76-8.22a4.08,4.08,0,0,1,2.85-3,10.12,10.12,0,0,0-1,4.68,7.28,7.28,0,0,0,1.83,4.66c4.8,5.13,7.88,2.11,10.59-.56a19.2,19.2,0,0,1,2.09-1.87c3.23-2.33,7.76-.81,10.54,3.54l.21.33.27,0a12.64,12.64,0,0,1,5.53.79c.85.26,1.75.52,2.73.74l.58.13c0-.28,0-.56,0-.85a16.69,16.69,0,0,0-1.35-5.89c-1.65-3.86-4.69-5.42-7.63-6.93a16.24,16.24,0,0,1-5.37-3.72,31.6,31.6,0,0,1-6.46-11.52l-.44-1.29-.48,1.06a6.46,6.46,0,0,1-1.91,2.09c-.53.44-1.15,1-1.85,1.64,0-.29-.12-.62-.22-1.05s-.31-1.29-.54-2.46h-1a2.88,2.88,0,0,1-.23.77,5.78,5.78,0,0,0-.45,2.72,10.63,10.63,0,0,1-5.92-4.62l-.81.78a5.07,5.07,0,0,1,.23,1.41,6.35,6.35,0,0,0,.49,2.41c-2.29-.39-3.07-1.82-4.23-4.91l-.91.58a7,7,0,0,1,.26,2.89,8.39,8.39,0,0,0,.18,2.75c-1.16-.51-2.3-2.3-3.6-4.79l-.85.71a6.84,6.84,0,0,1,.33,1.61,8.73,8.73,0,0,0,1.27,3.91,3.65,3.65,0,0,1-2.45-1.15,8,8,0,0,1-2-4.45l-1,0a6.92,6.92,0,0,1-.23,2.38,6.39,6.39,0,0,0-.22,2.27,8.91,8.91,0,0,1-2.43-3.41l-1.15-2.49.21,2.83c.16,2-.09,2.42-.63,3.25l-.18.28c-.29-.9-.77-2.33-1.51-4.48l-1,.37c.45,2.37.75,4.54,0,6.68a48.13,48.13,0,0,1-1.4-5.3l-1,.21c.74,4.49-.35,6.95-2.67,10.28a11.7,11.7,0,0,0-.48-2.88,13.33,13.33,0,0,1-.33-6.05,3.36,3.36,0,0,0-.22-2.58c-.58-.76-1.44-.34-2.23.18-1.56,1.19-2.79,4.76-3.55,7.55l-.06.24.06.27c.66,3,.68,3.85-.64,6.14-.47.86-1.09,1.13-1.85.79l-.3-.14-.19.31c-.89,1.41-1.09,3.58-1.25,5.92-1.58-2.57-1.54-6.59-.93-8.78l.09-.3-.11-.33a3,3,0,0,1-.09-1.61,4.12,4.12,0,0,1,2.22-2.55L573,516l.08-.24a33.73,33.73,0,0,0,1.18-7.59l.09-1.71-.94.87a3.92,3.92,0,0,1-3.09,1.26,7.59,7.59,0,0,0-2,.26l-.32.09,0,.48c-.22,3.1-.77,3.73-3.11,3.56l-.4,0-.51,0h-.12c-1.73.53-2.82,3.69-3.69,6.42a12.48,12.48,0,0,1,.89-9.77l.16-.28-.07-.38a3.79,3.79,0,0,1,.14-2.55c.84-1.45,3.56-.88,4.87-.61l.16,0,.14-.12a11.34,11.34,0,0,1,1.8-1.21,18.56,18.56,0,0,0,3.17-2.23l1-.85-4.14-2h-.1c-1.49.11-3.33-.11-3.65-1.72l-.07-.38-.24-.18a3.66,3.66,0,0,0-4.11-.3,5.84,5.84,0,0,1,1.86-4,2.15,2.15,0,0,1,2.86.33l.35.31.26-.35a1,1,0,0,1,1.4-.35,5.08,5.08,0,0,1,2.1,3.33l.12.42.29.12a59.64,59.64,0,0,0,7.71,2.67l.24.05.16-.22c1.51-2.16,3.69-2.28,5.8-2.38l1-.06.2,0,.12-.21c1.63-2.88,7.75-7.46,12.22-10.8a53.68,53.68,0,0,0,5.75-4.6c.19-.21.39-.42.59-.62s.37-.37.54-.56l.23-.24-.06-.44a12.91,12.91,0,0,0-2-5.19,23.25,23.25,0,0,1-1.39-2.74c-1.41-3.24-1.67-3.94-1.45-6.74l-1-.68a2.08,2.08,0,0,1-.24.37,3.51,3.51,0,0,0-.79,1.76,15.16,15.16,0,0,1-.79-6.87l-1-.63c-.22.46-.46,1-.68,1.56-.91-3.59-1-7.08.55-12.43l-1-.81a31.81,31.81,0,0,1-2.26,5.62,40.77,40.77,0,0,1,.33-7.74c.18-1.7.39-3.63.5-6l-1-.39a10.13,10.13,0,0,1-1.13,3.35l-.21.44a80.26,80.26,0,0,1-.19-8.28c0-.88,0-1.74,0-2.56l-1-.46s-.13.52-.3,1.22c0-1.88-.1-4.25-.1-6.59l-1.05-.22a15.07,15.07,0,0,1-.5,3.29c-.61-3.14-2.37-9.6-3.6-11.67-.94-1.57-2.22-1.26-3.35-1a2.91,2.91,0,0,1-1.7.11l-.48-.22c-.07.39-.14.77-.2,1.16-.21,1.19-.42,2.41-.81,2.57s-.76-.22-1.4-.92l-.2-.21-.21,0c-2.83.58-4.79-.89-6.07-4.61a10.74,10.74,0,0,0,3.48,1.29c.47.12.91.22,1.31.35l.57.19v-.84a20,20,0,0,1,.26-3c0-.32.09-.61.12-.9.18-1.78,3.48-1.08,5.67-.61.06-.49.11-1,.17-1.45-2-1.45-1.85-3.44-1.73-5.55a10.41,10.41,0,0,0-.07-2.64l-.3-1.35-.6.91A5.23,5.23,0,0,1,575,402a1,1,0,0,1-1-.28,6,6,0,0,1-1.27-3l-.07-.34-.22-.19a6.76,6.76,0,0,0-4.28-1.36c1.09-1.8,2.73-2.44,3.75-1.75l.49.33c.06-.22.11-.44.17-.67a1.42,1.42,0,0,1,.71-1c.62-.28,1.58.06,2.69.95l.9.71c-.06-.47-.12-.95-.19-1.42a9,9,0,0,1-.13-2.65l.09-.41-.29-.51c-.92-1.61-1.19-2-3.73-3.23a2.58,2.58,0,0,1,2.16-1.22c1.56.08,3,1.87,3.49,2.64l.21.29h0v0l.24,0c1.19-.12,2.87,2.2,3.58,5,.17.68.35,1.37.53,2l.45-1.88a10.75,10.75,0,0,0,.28-1.69,5.9,5.9,0,0,1,.62-2.12,2.68,2.68,0,0,0,.07-.27,10,10,0,0,0-1-5.73,9.33,9.33,0,0,1,2.58,2.83,6.25,6.25,0,0,1,1,3c0,.13,0,.25,0,.38l.22.28a14.19,14.19,0,0,1,1.09,1.78c1,1.9.87,4.27-.31,8.15-1.68,5,2.06,9.54,5.95,13.39,3.41,3.22,8.35,16,10.66,25.48,2.65,9.86,8.33,18.61,15.62,24.1-.15,1.8-1.34,4.4-3.28,7.1l-1.06,1.47,1.55-.1c14.65-1,23.56,1.35,24.43,6.32,1.16,6.82,4.4,14.27,7.53,21.47a122.66,122.66,0,0,1,5.11,13,85.77,85.77,0,0,1,2.32,11.77l.1.32c3.19,6.68,7.56,15.83,16.07,18l.41.09c9.08,1.94,13.69-8.63,13.95-16.51a26.36,26.36,0,0,0-3.13-13.24c-1.65-2.88-3.72-4.66-6-5.14s-3.93.57-4.86,2.83a9,9,0,0,0-.07,6.38,4.25,4.25,0,0,0,1.86,2.32,2.44,2.44,0,0,1-3.47.64c-1.65-1.07-2.46-3.65-2.19-6.91l.19-2.34-1.1,1.54c-1.5,2.09-5.18,7.2-3.21,13.61A13.73,13.73,0,0,1,663,519.4c-.26-3.66.69-8.3,4.15-10.36l1.77-1.06-2-.43a6.38,6.38,0,0,1-4.77-3.31,9,9,0,0,1-.6-4.73c2.38,4.42,4.6,5.87,7.69,5.15l.29-.07c0-.14,0-.28.07-.42.45-2.85.56-3.17,2.43-3.38l.94-.1c-.23-.38-.45-.76-.68-1.13a12.94,12.94,0,0,1-1.63-8.62,5,5,0,0,1,3.5-4.09,15.1,15.1,0,0,0-.72,8.23,7.83,7.83,0,0,0,2.81,4.79c.68.54,1.4,1,2.1,1.52,3,2.09,6.2,4.25,8,11.36l1-.07c0-16-5.19-24.33-14.61-39.42-9.14-14.94-11.11-23.8-11.54-34.91-.52-16.07,4.24-26.55,12.73-28.06,1.65-.31,3-.51,4.18-.68,5.21-.76,6.27-.92,7.76-7.72a9.93,9.93,0,0,1,1,4.89,7,7,0,0,1-2.74,5L682.63,413l1.89.22c2.84.32,3.81,4,4.51,6.67.07.29.14.57.2.75a11.35,11.35,0,0,0,4.11,6.87,4.52,4.52,0,0,0,6.4-1C699.5,428.51,699,430,698.17,430.61ZM580.32,559.81a1.92,1.92,0,0,1,1.64-.31,8.15,8.15,0,0,1,.94.28l.09,0c-.06.14-.12.28-.17.43A4.78,4.78,0,0,0,580.32,559.81Z"/>
    <path d="M549.16,311.48c-3.9-2.32-7.81,4.88-6,12.09-2.6-6.61-8.85-12.42-12.49-13.13,0,5.32,3.12,15.44,7.29,19.69-5-3.65-10.16,1-9.12,6.94,1.31,7.1,6,6.5,7.55,5.67-4.16-3.48-1.82-14.05,5.21-5.8v-8.36l2.08.42,3.65.74c-4.69-11.22,2.86-13.11,4.42-6.7C552.81,321,553.85,314.34,549.16,311.48Z" style="fill: #d21034"/>
    <path d="M549.3,310.77c-1.75-1-3.65-.43-5.09,1.62a13.57,13.57,0,0,0-2,7.89c-3.11-5.53-8.21-10-11.52-10.61l-.53-.1v.76c0,4.84,2.38,12.94,5.62,17.94a5.44,5.44,0,0,0-5.67,1.79,8.56,8.56,0,0,0-1.75,7.12,9.26,9.26,0,0,0,2.77,5.62,5,5,0,0,0,2.25,1.1,5.23,5.23,0,0,0,3.27-.42l1-.54-1-.86a5.42,5.42,0,0,1-1.74-3.94,3.63,3.63,0,0,1,1.23-3.23c1.25-.8,3.11.13,5.22,2.61l.81,1v-9l6.19,1.25c-.18-.43-.36-.87-.55-1.3-1.92-4.61-1.48-6.94-1-7.92a1.88,1.88,0,0,1,2.37-1.22,3.88,3.88,0,0,1,2.18,2.94l.36,1.48.57-1.13a12.57,12.57,0,0,0,.66-7.68A8,8,0,0,0,549.3,310.77Zm2.44,10.61a4.63,4.63,0,0,0-2.56-2.63,2.69,2.69,0,0,0-3.36,1.76c-.51,1.16-1.06,3.71.58,8.27l-5.31-1.07v7.75c-2.85-2.92-4.65-2.53-5.51-2-1.16.74-1.83,2.48-1.76,4.54a8.06,8.06,0,0,0,1.4,4.34,4.27,4.27,0,0,1-3.68-.87,7.52,7.52,0,0,1-2.18-4.51,6.66,6.66,0,0,1,1.45-5.63,4.7,4.7,0,0,1,4.57-1.63,6.09,6.09,0,0,1,2.4,1.1c.15-.43.3-.86.44-1.3-3.7-3.78-6.72-12.7-7-18.17,3.59,1.12,9.15,6.57,11.51,12.55l.93-.5a12.66,12.66,0,0,1,1.33-9.82c1.19-1.69,2.66-2.2,4-1.38a6.21,6.21,0,0,1,2.86,4A10.87,10.87,0,0,1,551.74,321.38Z"/>
    <path d="M562.71,348.08l-9.38-1.94v5.7c2.35,5.05,4.95,5.58,7,6.4-.52-3.15-.52-7-3.38-10.59C559.06,348.84,560.62,349.17,562.71,348.08Z" style="fill: #d21034"/>
    <path d="M553.33,351.84v8A16.31,16.31,0,0,0,553.33,351.84Z" style="fill: #d21034"/>
    <path d="M562.94,348.81c-.08-.5-.16-1-.23-1.5l-9.9-2v14.45l1,.42a18.93,18.93,0,0,0,.47-5.42,9.74,9.74,0,0,0,5.41,4l1.34.52c-.06-.38-.13-.75-.19-1.12-.09-.54-.16-1.09-.23-1.66a20.88,20.88,0,0,0-2-7.28A5.09,5.09,0,0,0,562.94,348.81Zm-3.33,7.77c0,.21,0,.42.08.63-1.85-.68-3.92-1.53-5.83-5.52V347l3,.62c-.07.19-.13.38-.2.58C558.87,351,559.25,353.84,559.61,356.58Z"/>
    <path d="M653.86,458c-.24-3.52-.51-6.37-2.41-8.86,3.09,1.71,4,1.59,5.71-2.9-2.85.07-5.23-2.21-5.47-6.42s1.43-8.36-1.65-11.46c1.42-1.42,1.65-3.07,1.89-6.14-1.19,1.47-2.35,3.63-4.73,2.08-1-5.76-3.56-11.19-7.83-11.77,1-2.57,1.18-2.54,0-6.27-1.9,3.05-4.52,5.28-6.42,5.21-2.14-.12-5.24-1.5-6,.78-1,1.87-1.68,2-4.29,1.47s-4-.18-5-.73c-1.19-.61-1.43,2.15.23,4.59-.47,3,.48,5.67,0,7.31s-.48,3.34,1.66,4.15l1.3.51A8.88,8.88,0,0,0,622,435c-.08,0-.15,0-.24-.06-3.56-.43-10-8.05-8.3-15-2.62,1.51-3.8,6.1-1.18,12.22s5.68,6.47,10,7,7.67.68,10.47,4.13c0,1-.46,1.72-1.93,1.88a23.7,23.7,0,0,1-6.18-.72c-1.06-1.82-2.16-3.14-2.36-5.29a12.19,12.19,0,0,0-.55,4.37,2.45,2.45,0,0,1-.63-.48c-1.43-1.35-2.13-2.21-1.89.62.23,3.17.24,6.31-1.19,7.74,2.14,1.15,1.65,0,3.31-1.7,3.57,1.82,9,3.37,11.66,1.51-1.19,3.9-1.44,7.33-5.48,6.45s-5.23-.47-6.41,3.09c-3.33,0-4.28.78-7.13,1.9s-6.4-.36-9-1.62c1,3.68,3.33,7.34,6.18,8-2.37.52-3.34,4.49-3.58,6.52-.24,2.38-2.38,4-5.24,4.73,4.76,1.38,7.15.15,11.19-5.91,4.27-6.35,3.56-3,6.65-3.38-2.14,1.61-3.81,1.62-4.76,4.88-1.19,3.21-1.41,4.53-3.55,4.41,3.09,3.79,5.23,3.57,6.42,0,.95-3.6,3.57-5.83,5.95-5.66-3.33,2.05-3.35,2.41-3.35,6.23s-.94,7.74-2.36,5.7c1.42,4.47,3.3,5.27,5,3.2,1.42-2.46,1.68-4.85,3.35-6.57-1.43,3.16-2.88,7.36-3.35,8.64-.71,1.58-.71,3.29-1.66,4.47,2.14.82,5.47.86,6.42-1A55.57,55.57,0,0,0,632.47,482a97.87,97.87,0,0,0-.94,10.31,25.43,25.43,0,0,1-.75,5c2.85.62,5-.61,5.24-5.07s0-6.25.71-10.26c0,5.55.47,6.35.47,10.51s1.44,6.18,4.06,7.79c-1.19-4.08.71-4.71-.71-9.53-1.19-4.77-1.19-5.42-.48-8,1.19,5.12,1.9,4.88,1.66,8.64s2.85,8.28,6.65,7.72c-2.14-3.59-2.84-10.69-1.89-19.85.24,11.5,4.27,16.2,8.07,11.13-2.85-1.66-3.82-4-3.11-10.05,2.14,3.59,4.53,3.08,5-1-3.32-1.77-4.25-6.15-3.78-8.13a6.2,6.2,0,0,0-.74-6c2.85,1.66,5.94,3,6.41-1.77C656,462.89,654.09,461.47,653.86,458Zm-31.15-22.83c.57-1.88.77-3.72,1.26-4.78a3.37,3.37,0,0,0,1.85-.35c2.14-1.27,3.06.68,5,.05a38.28,38.28,0,0,0,.24,7.53A27.14,27.14,0,0,0,622.71,435.12Z" style="fill: #d21034"/>
    <path d="M654.38,458a21.17,21.17,0,0,0-1.39-7.37c2.12.79,3.2-.07,4.64-4l.46-1.24-1,0a4.26,4.26,0,0,1-3.65-1.78,7,7,0,0,1-1.22-3.81,29.07,29.07,0,0,1,.11-3.49c.2-2.61.42-5.55-1.43-7.95,1.15-1.5,1.35-3.33,1.56-6,0-.71.11-1.42.16-2.13-.35.44-.7.88-1.06,1.31l-.43.56c-1,1.28-1.89,2.47-3.49,1.61-.93-5.12-3.32-10.6-7.41-11.81.7-1.92.67-2.62-.39-5.93l-.36-1.15-.51.82c-1.88,3-4.37,5.07-6.07,5a14.88,14.88,0,0,1-1.7-.25c-1.88-.34-4-.73-4.62,1.28-.82,1.6-1.36,1.77-3.86,1.23a18.59,18.59,0,0,0-3.07-.38,4.06,4.06,0,0,1-1.79-.32c-.61-.31-1.15,0-1.41.68a6.25,6.25,0,0,0,1,4.79,19.83,19.83,0,0,0,.07,4.2,8.1,8.1,0,0,1,0,2.56,5.12,5.12,0,0,0,0,3.28,3.39,3.39,0,0,0,2.14,2l.74.29a10.13,10.13,0,0,0,.63,4c-1.86-.71-4.42-3.11-6-6.42a11.13,11.13,0,0,1-1-7.23c.14-.59.29-1.17.43-1.76l-1.17.68a6.28,6.28,0,0,0-2.77,4.57,15.64,15.64,0,0,0,1.4,8.72c2.61,6.09,5.72,6.82,9.6,7.37a16.81,16.81,0,0,0-.27,2.48l-.15-.14c-.86-.83-1.49-1.43-2-1s-.46,1.43-.37,2.49c.22,2.95.25,5.86-1,7.1l-.82.82,1,.57c1.65.89,2.08.57,2.78-.5a8.64,8.64,0,0,1,.8-1.06c2.72,1.34,7.42,3,10.52,2-.83,3-1.42,5-4.5,4.37-4-.87-5.47-.56-6.77,3.07a11.48,11.48,0,0,0-5.35,1.25c-.48.21-1,.43-1.62.67-2.65,1-6.06-.31-8.72-1.59l-.94-.45.36,1.36c.76,3,2.58,6.35,5,7.85-1.87,1.8-2.38,5.69-2.45,6.23-.19,1.87-2,3.4-4.88,4.19,0,.51.09,1,.14,1.52,5,1.45,7.46.13,11.61-6.08,2.76-4.12,3.23-3.93,4.15-3.55h0a6,6,0,0,0-3.17,4l-.35.95c-.89,2.47-1.16,3.21-2.79,3.12l-1.39-.07,1.15,1.41c1.79,2.19,3.35,3.18,4.65,2.94,1.08-.2,1.94-1.23,2.56-3.12a8.47,8.47,0,0,1,1.88-3.54,12.89,12.89,0,0,0-.29,3.63c0,3-.58,5.33-1.1,5.58,0,0-.16.07-.41-.29l-.8.76c.81,2.56,1.81,4.12,3,4.64a2,2,0,0,0,2.11-.33l-.08.23a12,12,0,0,0-.67,2.09,5.75,5.75,0,0,1-.91,2.25l-.77,1,1.09.41a8.18,8.18,0,0,0,1.21.36c2.12.46,4.75.26,5.69-1.58a46.14,46.14,0,0,0,2.51-6.33c-.08,1-.11,1.79-.11,2.61a25.08,25.08,0,0,1-.72,4.76c-.09.32-.17.65-.25,1l.74.16c3.48.76,5.53-1.25,5.76-5.66,0-.77.07-1.46.09-2.1,0,.61,0,1.28,0,2.07,0,5.16,2.13,7.19,4.44,8.61l1.07.66c-.15-.53-.3-1.06-.46-1.58a8.31,8.31,0,0,1-.24-3.87c.06-.55.13-1.14.14-1.83a9.67,9.67,0,0,0,1.21,2.48c1.48,2.18,3.6,3.3,5.67,3l.9-.13-.66-1.1c-1.51-2.53-2.24-7.08-2.14-12.88.65,3.28,1.74,5.65,3.19,6.77,1.64,1.25,3.46.71,5.15-1.54.2-.28.4-.55.61-.82l-.87-.51c-2.21-1.28-3.25-2.84-2.85-7.77,1,1.24,2,1.8,3,1.57,1.13-.29,1.92-1.7,2.17-3.88,0-.23.06-.47.08-.7l-.49-.26a6.58,6.58,0,0,1-3-3.66,6.46,6.46,0,0,1-.39-3.33,7,7,0,0,0,.09-4.93c1.6.77,3.11,1.16,4.2.32a4.66,4.66,0,0,0,1.41-3.37l.09-.86-.61-.13C655.78,462.08,654.56,460.65,654.38,458Zm-13.17,33.2v0c-.06-.2-.11-.4-.17-.61-.78-3.12-1-4.34-.9-5.53.2.7.37,1.26.52,1.73A9.19,9.19,0,0,1,641.21,491.18Zm15.66-25.58c-1.09.83-3-.11-4.82-1.14l-1.83-1.07,1.33,2.25a5.21,5.21,0,0,1,.63,5.21,8.68,8.68,0,0,0,.46,4.65,8.33,8.33,0,0,0,3.19,4.25c-.24,1.23-.72,2-1.35,2.16-.79.19-1.76-.55-2.66-2.06l-.72-1.21c-.05.48-.11,1-.16,1.43-.66,5.61,0,8.5,2.61,10.43-1.17,1.21-2.35,1.44-3.37.66-1.86-1.43-3-5.86-3.16-11.84l-1-.31c-.88,8.5-.37,15.27,1.43,19.33a5.27,5.27,0,0,1-3.88-2.49,7.18,7.18,0,0,1-1.27-4.3,11.31,11.31,0,0,0-.65-5.23c-.28-.88-.62-2-1-3.75l-.48-2.07-.51,1.85c-.78,2.86-.73,3.75.49,8.63a10,10,0,0,1,.38,4.75,11.09,11.09,0,0,0,0,3.18c-1.95-1.5-2.7-3.32-2.7-6.29,0-2-.1-3.22-.21-4.53-.13-1.5-.26-3.06-.26-6l-1-.41a39.34,39.34,0,0,0-.6,6.84c0,1,0,2.14-.12,3.53-.18,3.3-1.52,4.85-4,4.6a22.56,22.56,0,0,0,.54-4.25,89.23,89.23,0,0,1,.85-9.43l.09-.77-1-.51a55.26,55.26,0,0,1-4.21,13.14c-.66,1.29-2.94,1.59-5,1.07a12.27,12.27,0,0,0,.53-1.69,10.13,10.13,0,0,1,.6-1.87c.11-.32.23-.63.34-.95.64-1.77,1.83-5.08,3-7.65l-.8-1.14a11.07,11.07,0,0,0-2.14,3.84,20.56,20.56,0,0,1-1.23,2.76c-.46.57-1.17,1.18-1.94.83a4.11,4.11,0,0,1-1.61-2.11.46.46,0,0,0,.14-.05c1.17-.54,1.7-3.92,1.7-6.84,0-3.65,0-3.72,3.09-5.62-.11-.49-.21-1-.32-1.49-2.72-.2-5.4,2.36-6.37,6-.47,1.44-1.11,2.23-1.87,2.37s-1.65-.31-2.71-1.35c1.16-.44,1.62-1.7,2.31-3.63l.36-1a5.17,5.17,0,0,1,2.93-3.51,17.67,17.67,0,0,0,1.64-1.06c-.13-.49-.27-1-.41-1.47a3.36,3.36,0,0,1-1.85-.3c-1.34-.55-2.07-.61-5.08,3.87s-5.1,6.33-8,6.22a5.45,5.45,0,0,0,3-4.22c.23-2,1.18-5.55,3.22-6-.06-.51-.11-1-.16-1.53-2.35-.51-4.25-3.25-5.26-6,2.63,1.17,5.74,2.16,8.3,1.16.62-.25,1.16-.48,1.64-.69a11.13,11.13,0,0,1,5.36-1.19h.28l.12-.35c1.06-3.17,2-3.6,5.94-2.74s4.61-2,5.51-5.24c.14-.51.29-1,.45-1.58.21-.71.43-1.41.64-2.11l-1.41,1c-2.37,1.69-7.5.39-11.26-1.53l-.26-.13-.19.21a8.9,8.9,0,0,0-1.1,1.41c-.32.49-.46.7-.84.62.93-1.83.88-4.71.68-7.4a7.86,7.86,0,0,1,0-1.07,10.47,10.47,0,0,1,.9.8l.24.22a2.74,2.74,0,0,0,.78.61l.67.36,0-1a16.71,16.71,0,0,1,.09-2.12,16.74,16.74,0,0,0,1.3,2.39c.21.33.42.67.62,1l.16.27.21.05a24.85,24.85,0,0,0,6.31.72,2.31,2.31,0,0,0,2.34-2.55c0-.13,0-.26,0-.39s-.15-.18-.22-.28c-2.65-3.25-5.64-3.65-9.42-4.14l-.9-.12c0-.44-.09-.88-.13-1.32-.2.41-.41.81-.61,1.22-4.11-.57-6.85-1-9.24-6.59a13.68,13.68,0,0,1-1.25-7.47,5.79,5.79,0,0,1,1.22-2.82,14,14,0,0,0,1.45,6.74c1.84,3.86,5.2,7.13,7.74,7.43h.06l.1,0,.71.09a26.39,26.39,0,0,1,8.18,2.41l.82.4c-.07-.41-.14-.82-.22-1.22a29.25,29.25,0,0,1-.25-6c0-.51,0-1,0-1.37v-1.1l-.71.23a2.74,2.74,0,0,1-1.92-.17,3.18,3.18,0,0,0-3.09.15,3.05,3.05,0,0,1-1.67.3h-.26l-.14.29a13.78,13.78,0,0,0-.71,2.53c-.15.67-.3,1.36-.5,2.07a7.64,7.64,0,0,1-.86-4.64c0-.27.09-.54.14-.81l-1-.4c-.28-.12-.57-.24-.87-.35a2.21,2.21,0,0,1-1.35-1.11,3.21,3.21,0,0,1,.12-1.9,9.26,9.26,0,0,0,0-3.34,15.85,15.85,0,0,1,0-4.08l.07-.43-.24-.35a4.49,4.49,0,0,1-1-3.27c0-.1.09-.18.24-.11a4.51,4.51,0,0,0,2.14.43,16.73,16.73,0,0,1,3,.36c2.69.59,3.64.43,4.77-1.84.4-1.27,2.1-1,3.73-.66a17.35,17.35,0,0,0,1.8.26c1.82.06,4.26-1.76,6.24-4.62a4.29,4.29,0,0,1-.12,3.83c-.21.57-.42,1.14-.64,1.71l.9.13c5.25.71,6.9,8.65,7.3,11.07l.07.44.29.19c1.92,1.25,3.16.38,4.13-.75a5.38,5.38,0,0,1-1.48,3.45l-.6.6.69.68c1.88,1.89,1.71,4.15,1.49,7a27.7,27.7,0,0,0-.11,3.78,9.24,9.24,0,0,0,1.61,5,5.34,5.34,0,0,0,3.46,2.19c-1.25,3-2.08,2.91-4.67,1.48l-.43,1.26c1.67,2.2,1.94,4.6,2.19,8.28.22,3.24,1.69,5.28,4.37,6.09A2.58,2.58,0,0,1,656.87,465.6Zm-34-25.47.75.1c3.59.47,6.22.81,8.5,3.42-.09.34-.4.74-1.48.86a22.9,22.9,0,0,1-5.85-.66c-.16-.28-.33-.55-.49-.81A10.2,10.2,0,0,1,622.9,440.13Zm7.44-3.66a26.13,26.13,0,0,0-5.13-1.67c-.55-.12-1.13-.23-1.73-.32.13-.51.24-1,.33-1.45a17.91,17.91,0,0,1,.49-1.91,3.7,3.7,0,0,0,1.78-.4,2.55,2.55,0,0,1,2.51-.11,4.2,4.2,0,0,0,1.64.33,2.72,2.72,0,0,1,0,.28A34.28,34.28,0,0,0,630.34,436.47Z"/>
    <path d="M631.32,426.08l-1-.42c-.28,3.17,2.13,7.79,3.55,9.49l.59-1.15C633.05,432.37,631.12,428.38,631.32,426.08Z"/>
    <path d="M647.19,439.53l-1,.43c1.24,4.24,2,6.6,5,9.75.18-.41.36-.81.53-1.21C649.05,445.63,648.4,443.68,647.19,439.53Z"/>
    <path d="M651.34,463a10.21,10.21,0,0,1-1.74-4.09l-1,.15a12.46,12.46,0,0,0,2,4.89,17.16,17.16,0,0,1,.92,1.59l.82-.78A19.38,19.38,0,0,0,651.34,463Z"/>
    <path d="M648.91,467.34c-.2.38-.39.76-.58,1.14,1.61,1.93,3.38,5.5,2.62,11.6l1,.49C652.88,473.31,650.44,469.16,648.91,467.34Z"/>
    <path d="M646.5,470.33l-1,.27c.11.5.17,2.27.23,4,0,1.51.11,3.21.22,4.64l1,.06c-.1-1.38-.16-3.06-.21-4.55A36.18,36.18,0,0,0,646.5,470.33Z"/>
    <path d="M626.13,461.83a14.22,14.22,0,0,0-3.52.36,3,3,0,0,0-2.28,1.16,10.27,10.27,0,0,1-2.17,1.8c-2.79,2.1-4.14,2.81-7.19,3.18l.23,1.54c3.19-.38,4.68-1.16,7.51-3.31a10.38,10.38,0,0,0,2.32-1.92,2.33,2.33,0,0,1,1.86-.92,13.59,13.59,0,0,1,3.4-.34,23.5,23.5,0,0,0,3.45-.23c-.09-.51-.17-1-.25-1.54A23.19,23.19,0,0,1,626.13,461.83Z"/>
    <path d="M634.23,513.81l-.69,1c3,4.48,6.67,11.19,7.19,17.73l1,.05C641.22,525.55,637.37,518.49,634.23,513.81Z"/>
    <path d="M620.75,505.86l-.33,1.38a11.48,11.48,0,0,0,3.93,2.13,7.41,7.41,0,0,0,1.54.14l-.15-1.55C624.19,507.94,623.56,507.84,620.75,505.86Z"/>
    <path d="M576.36,393.28l-.39,1.34a24.91,24.91,0,0,1,6.85,9.76l.94-.49A26.7,26.7,0,0,0,576.36,393.28Z"/>
    <path d="M582.32,393.79c.73,3,1.46,5.26,2.16,7.47l.94-.48c-.69-2.18-1.41-4.43-2.11-7.32Z"/>
    <path d="M683,431.06c-.33.56-.7,1.18-1.08,2l.89,1c.35-.74.69-1.31,1-1.87a7.84,7.84,0,0,0,1.44-4.61l-1-.22A6.23,6.23,0,0,1,683,431.06Z"/>
    <path d="M683.34,446l-1-.41c-.51,5.91.2,10.51,5.37,13.76l.29-1.41C683.45,455.1,682.86,451.54,683.34,446Z"/>
    <path d="M628.66,415.69a19.17,19.17,0,0,0-1.19,2.52l-1.66-.37c1,1.6,2.85,3.75,5.7,3.68C632.46,419.29,629.85,417.68,628.66,415.69Z"/>
    <path d="M630.27,416.83a13.3,13.3,0,0,1-1.24-1.6c-.14-.24-.28-.48-.43-.72l-.36.63a21.35,21.35,0,0,0-1.08,2.23l-2.62-.57.9,1.5a8,8,0,0,0,4.81,3.86,5.84,5.84,0,0,0,1.35.13h.24L632,422C632.88,419.87,631.37,418.11,630.27,416.83Zm.89,3.91a5.52,5.52,0,0,1-3.78-1.79l.42.09c.05-.13.1-.26.14-.39a16,16,0,0,1,.82-1.81c.29.4.62.78.94,1.15C630.89,419.38,631.32,420,631.16,420.74Z"/>
    <path d="M642.39,422.91c2.26.83,6,4,7.32,5.93.22-.34.44-.69.67-1-1.49-2.13-5.42-5.5-7.89-6.4C642.46,421.91,642.42,422.41,642.39,422.91Z"/>
    <path d="M666.36,570.51a8.42,8.42,0,0,0-1.88-.37c0,.52.07,1,.11,1.55a7.36,7.36,0,0,1,1.72.34,2.9,2.9,0,0,0,2.17.06c0,.61-.07,1.19-.12,1.75a19.66,19.66,0,0,0-.07,3.91l1,0a17,17,0,0,1,.07-3.47c.08-1,.17-2.06.17-3.29v-1.49l-.83.69A2.06,2.06,0,0,1,666.36,570.51Z"/>
    <path d="M647.92,568.67a10,10,0,0,1-2.34-5.4l-1.05-.08a12.17,12.17,0,0,0,2.83,6.66,5,5,0,0,0,2.55,1.72,2.44,2.44,0,0,0,1.26-.05l-.36-1.52C650,570.28,648.92,569.8,647.92,568.67Z"/>
    <path d="M591.62,557.92a1.07,1.07,0,0,1-.07-.19c-.13-.27-.26-.57-.39-.88a11.77,11.77,0,0,0-2.91-4.58l-.42,1.32a10,10,0,0,1,2.46,3.94l.38.85a13.33,13.33,0,0,0,3.52,5.56c.18-.41.35-.81.52-1.22A11.24,11.24,0,0,1,591.62,557.92Z"/>
    <path d="M589.21,560.78c-.74-2-2.28-4.06-5.46-2.15l.51,1.45c2.64-1.59,3.57,0,4.06,1.31a5.91,5.91,0,0,0,3,3.48q.3.17.63.39c.1-.47.2-.94.29-1.41l-.65-.41A4.42,4.42,0,0,1,589.21,560.78Z"/>
    <path d="M650.13,621.53l.3,1.53c2.45-.54,3.79-1.36,4.84-4.57l-1-.83C653.42,620.39,652.35,621,650.13,621.53Z"/>
    <path d="M654.52,625.34c-1.34.88-1.94,1.68-1.67,5.23l1,.06c-.22-2.94.19-3.21,1.19-3.88a9.36,9.36,0,0,0,3-4.15l-.94-.88A8.2,8.2,0,0,1,654.52,625.34Z"/>
    <path d="M570.45,463c-2.71-4.53-9.49-9.11-14.37-8.53,4.88-2.16,6-12.22,2.17-15.78-4.34-4.46-7,1.32-7.59,3.58,4.34-1.48,8.4,9.64-.54,10.58V464.7c8.94,4.6,4.88,14.45.54,10.79.55,2.88,3.25,9.77,7.59,7.1,3.79-2.37,2.71-12.49-2.17-17.06C561,468.51,567.74,466.36,570.45,463Z" style="fill: #d21034"/>
    <path d="M558.28,453.73c1.85-2,2.73-5.25,2.77-8.1.05-3.2-.91-6-2.54-7.58s-3-2.12-4.46-1.62c-2.06.74-3.45,3.68-3.88,5.48-.12.48-.24,1-.35,1.45l1-.35c1.12-.39,2.3.18,3.17,1.51a5.41,5.41,0,0,1,.83,3.91c-.23,1.19-1.16,3.24-4.84,3.63l-.41,0v13.11l.41.21c3.7,1.91,4.62,4.43,4.85,5.76a4.31,4.31,0,0,1-.92,3.68,2.1,2.1,0,0,1-3.07,0l-1-.87.31,1.63c.39,2.06,1.73,5.74,3.84,7.43a4.16,4.16,0,0,0,1.74.88,3.77,3.77,0,0,0,2.77-.6c1.68-1.05,2.6-3.51,2.54-6.76a18.15,18.15,0,0,0-2.78-9.29c4.59,1.36,10-.5,12.55-3.66l.37-.47c-.13-.2-.25-.41-.37-.61C568.43,458.52,563,454.45,558.28,453.73Zm-2.06,11.09c-.12.45-.25.89-.37,1.34,2.79,2.61,4.09,7,4.16,10.21,0,2.67-.69,4.67-2,5.5a2.87,2.87,0,0,1-3.6-.17,10.89,10.89,0,0,1-2.85-4.87,2.63,2.63,0,0,0,3.08-.66,6.08,6.08,0,0,0,1.25-5.16,9.63,9.63,0,0,0-5.22-6.82V453.55c3.87-.57,4.93-3.05,5.21-4.51a7.81,7.81,0,0,0-1.13-5.51,4.34,4.34,0,0,0-3.16-2.18c.57-1.38,1.57-3,2.86-3.41,1.11-.4,2.31.05,3.59,1.37s2,3.43,2,6.06c0,3.26-1.35,7.1-4.14,8.33l.33,1.52c4.48-.53,10.69,3.53,13.47,7.6C566.75,465.91,560.51,467.44,556.22,464.82Z"/>
    <path d="M534.16,444.92c.82,4.52,2.17,6.76,4.61,8.83-4.06-1.2-6,1.19-7.59,2.46,1.63,2.29,3.53,5.44,7.59,5.46-2.44,1.09-3.79,3.2-4.61,7.39,2.44-1.89,4.34-3.09,7.05-2.15V449.49C538.5,449.35,536.6,447.78,534.16,444.92Z" style="fill: #d21034"/>
    <path d="M534.46,444.34,533.29,443c.12.68.25,1.36.37,2,.61,3.42,1.53,5.71,3.14,7.64a7.35,7.35,0,0,0-5.21,2.27c-.24.21-.47.41-.7.58l-.58.46.87,1.23c1.31,1.87,2.87,4.11,5.52,4.93-1.49,1.34-2.42,3.42-3,6.63-.12.63-.25,1.27-.37,1.9l1.17-.9c2.31-1.79,4.14-3,6.7-2.1l.57.2V448.75l-.57,0C538.56,448.59,536.73,447,534.46,444.34ZM540.69,466c-2.13-.56-3.77.19-5.56,1.45.78-2.69,1.93-4.16,3.85-5l-.28-1.51c-3.42,0-5.16-2.33-6.66-4.47a1.07,1.07,0,0,0,.16-.14c1.44-1.23,3.24-2.75,6.54-1.78l.24-1.41a11.28,11.28,0,0,1-3.85-6.2c1.78,1.88,3.43,3,5.56,3.31Z"/>
    <path d="M710.45,614.75c-2.15-5.66-6-4-7.39-2.56v.7c3.57,1.43,3.81,10.54-2.39,7.86a73,73,0,0,1-3.34,9.76c3.82,6.71-.48,10.35-3.1,7a6.73,6.73,0,0,0-.72,1.59c.24,2.83,1.2,6.52,4.54,7.21,3.57.4,5.48-7.57,2.86-13.68,3.1,4.82,6.2,4.41,9.3,3.65-1-4.72-1.91-9.1-6.2-11.37C708.78,625.91,712.36,619.67,710.45,614.75Z" style="fill: #d21034"/>
    <path d="M710.77,621.38a9.44,9.44,0,0,0,.13-6.93c-.8-2.11-1.89-3.49-3.22-4.09a4.59,4.59,0,0,0-5,1.17l-.19.19v1.73l.46.18a3.55,3.55,0,0,1,1.88,2.52,4.38,4.38,0,0,1-.29,3.28c-.69,1.14-2.06,1.34-3.83.58l-.42-.15-.15.53a72.54,72.54,0,0,1-3.3,9.63c-.07.15-.14.31-.2.46l.27.47c1.46,2.57,1.78,4.9.86,6.24-.71,1-2.13,1.23-3.27-.22l-.36-.46-.32.4a6.72,6.72,0,0,0-.81,1.77l-.08.19,0,.23c.39,4.56,2.18,7.4,5.09,8h0c1.59.18,3-1.07,3.82-3.43a16.31,16.31,0,0,0,.39-8.32c2.67,2.71,5.35,2.38,8.07,1.71l.51-.12-.16-.76c-.74-3.7-1.57-7.8-4.5-10.5A6.81,6.81,0,0,0,710.77,621.38ZM704,624.16l-.12,1.49c3.84,2,4.82,5.87,5.66,10-2.93.66-5.6.68-8.29-3.5l-.78.83a14.43,14.43,0,0,1,.48,9.82c-.67,1.88-1.75,2.88-2.91,2.76-2.3-.48-3.64-2.57-4-6.21.1-.27.2-.55.31-.79,1.4,1.37,3.17,1.32,4.22-.2s1.3-4.19-.61-7.82a74,74,0,0,0,3-8.89c2.63,1,3.88-.26,4.4-1.11a6.46,6.46,0,0,0,.43-4.78,5.67,5.67,0,0,0-2.06-3.27,3.7,3.7,0,0,1,3.72-.67,5.42,5.42,0,0,1,2.5,3.23,7.3,7.3,0,0,1-.15,5.39C708.92,622.7,706.75,624.73,704,624.16Z"/>
    <path d="M688.22,602.43a14.85,14.85,0,0,0,.42,9.29c-2.6-3.83-4.82-3.64-6.72-4.38.51,2.65.93,6.33,4.1,9.32-2.37-.93-4.11-.56-6.24,1.42,2.63.68,4.29,1.33,7.14,5.25,2.27-3.68,3.86-8,5.66-11.84C689.7,607.92,689.14,605.94,688.22,602.43Z" style="fill: #d21034"/>
    <path d="M688.7,602.24c-.18-.7-.36-1.4-.55-2.1-.14.65-.29,1.3-.43,2a16.68,16.68,0,0,0-.3,7.2,8.6,8.6,0,0,0-4.26-2.33,11.37,11.37,0,0,1-1.17-.37l-.79-.31c.12.62.23,1.24.35,1.87a17.41,17.41,0,0,0,2.62,7.27c-1.65-.16-3.08.47-4.71,2l-1.14,1.05,1.45.38c2.5.65,4.05,1.2,6.82,5,.14.18.27.37.41.56l.33-.53a68.51,68.51,0,0,0,4.15-8.42c.51-1.18,1-2.35,1.54-3.48.09-.19.18-.37.26-.56l-.4-.5A18.72,18.72,0,0,1,688.7,602.24Zm1.87,12.26a71.56,71.56,0,0,1-3.74,7.73c-2.18-2.87-3.71-3.86-5.49-4.47a4.55,4.55,0,0,1,4.62-.35l.3-1.39c-2.55-2.4-3.19-5.28-3.63-7.68l.49.14a7.9,7.9,0,0,1,5.18,3.75l.8-.8a12.71,12.71,0,0,1-.76-6.61,18.71,18.71,0,0,0,3.54,6.73C691.44,612.52,691,613.51,690.57,614.5Z"/>
    <path d="M634.85,695l-.41-.09c-1.23.33-2.46,1-3.49,1.34l-.61.16-.62-.43c-1-.83-2.25-2-3.49-2.86l-.41-.09a12.31,12.31,0,0,1-1.64,7.43c2.05-.45,3.29-1.38,4.11-3.9-.21,4.15,1.23,6.57,2.05,8.84.82-1.92,2.26-3.7,2-7.94a8.77,8.77,0,0,0,4.31,5.73C635.47,700.2,634.65,698.22,634.85,695Z" style="fill: #d21034"/>
    <path d="M635.38,695.15l0-.82-1-.22h-.16a17.52,17.52,0,0,0-2.36.87c-.41.17-.8.34-1.13.46l-.45.13-.42-.3c-.37-.29-.76-.63-1.17-1-.75-.65-1.54-1.33-2.35-1.9l-1.15-.29c0,.28,0,.56,0,.84a11.49,11.49,0,0,1-1.55,7l-.81,1.6,1.39-.31a5.13,5.13,0,0,0,3.51-2.24,19.21,19.21,0,0,0,1.53,5.4c.18.44.36.87.51,1.29l.46,1.26.45-1.06c.16-.36.33-.71.51-1.07a13.29,13.29,0,0,0,1.54-4.73,9.33,9.33,0,0,0,3.72,3.82l1.35.84-.77-1.88C635.92,699.91,635.19,698.14,635.38,695.15Zm-2.51,2.07-1,.15a11.34,11.34,0,0,1-1.44,6.38l-.09.17-.09-.21a14.93,14.93,0,0,1-1.44-7l-1-.58a4.57,4.57,0,0,1-2.37,3.08,12,12,0,0,0,.94-5.19c.66.49,1.32,1,2,1.6.42.36.82.71,1.23,1l.78.55.81-.22c.37-.14.77-.31,1.19-.49.64-.27,1.3-.54,2-.75a14.71,14.71,0,0,0,1.14,5.73A7.85,7.85,0,0,1,632.87,697.22Z"/>
    <path d="M720.56,365.41c-59.64-11.7-119.29-25.5-178.93-37.25,0,.87,0,1.75-.07,2.63s-2.39,90.09-.45,168.11c1.16,46.74,14.29,95.27,37,137C592.83,663,615.73,692.82,631,697.21l.32.08c7,1.53,25.36-9.35,42.05-28.52,16.85-19.3,45.26-62.57,46.3-133.28,1.27-86.22.93-166.53.93-167.33S720.56,366.32,720.56,365.41Zm-4.7,169.19c-1,68.69-28.69,110.78-45.1,129.58-17.86,20.5-34.7,28.63-39.43,27.61l-.18,0c-10.75-3.1-31.46-24.39-50.25-59-22.09-40.64-34.88-87.88-36-133.33-1.75-70.3,0-149.73.38-165.06,57.18,11.34,114.35,24.49,171.53,35.79C716.85,385,717,457.44,715.86,534.6Z" style="fill: #d21034"/>
    <path d="M633.21,671.69c1-5.17-.82-13.06-2.87-16.8-2.05,2.84-3.69,10-2.87,15.55-1.85-5.8-7-8.11-8.42-4.53-2,4.65,1.44,8.4,2.67,9.27-1.23-5.06,3.69-7.88,5.34,5.66,1.09.84,2.18,1.68,3.28,2.51.82-.12,2-.75,3.28-1.08,1.64-12.82,6.57-7.86,5.34-3.33,1.23-.33,4.72-2.57,2.87-8.06C640.19,666.62,635.06,666.7,633.21,671.69Z" style="fill: #d21034"/>
    <path d="M638.4,667.08A4.7,4.7,0,0,0,634,669a33.25,33.25,0,0,0-3.29-14.51l-.39-.71-.39.54c-1.76,2.45-3.28,8-3.22,13.19a8.09,8.09,0,0,0-4.58-4,2.88,2.88,0,0,0-3.55,1.89,8,8,0,0,0-.47,5.2,9.75,9.75,0,0,0,3.42,5.25l1.05.74-.39-1.59a3.79,3.79,0,0,1,.25-2.89.75.75,0,0,1,1.12-.2c.48.31,2.1,1.86,3,8.93l.05.44,3.72,2.85.16,0a8.76,8.76,0,0,0,1.69-.54,16.41,16.41,0,0,1,1.63-.55l.29-.08.06-.44c.85-6.7,2.48-7.54,3-7.64s.82.15,1.12.69a4.26,4.26,0,0,1,.25,3l-.39,1.41,1-.28a5.47,5.47,0,0,0,3.49-3.76,8.93,8.93,0,0,0-.33-5.37A5.12,5.12,0,0,0,638.4,667.08Zm3.24,8.08a4.59,4.59,0,0,1-2,2.6,6,6,0,0,0-.7-3.07,2.14,2.14,0,0,0-2.18-1.35c-1,.21-2.72,1.55-3.64,8.25-.47.15-.95.33-1.39.5a13.62,13.62,0,0,1-1.41.47l-2.84-2.19c-.93-7.11-2.67-9.22-3.64-9.85a1.52,1.52,0,0,0-2.19.4,4.56,4.56,0,0,0-.69,2.77,7.88,7.88,0,0,1-1.89-3.39,6.06,6.06,0,0,1,.4-3.93,2,2,0,0,1,2.62-1.31c1.66.4,3.81,2.29,4.87,5.62l1-.29c-.73-4.92.61-11.29,2.36-14.31,1.87,3.95,3.25,10.83,2.37,15.3l1,.76c.9-2.44,2.77-3.82,4.77-3.52a3.82,3.82,0,0,1,2.92,2.51A6.8,6.8,0,0,1,641.64,675.16Z"/>
    <path d="M711.68,373.56c-54-10.76-107.95-23.07-161.93-33.86,0,.88,0,1.76-.07,2.63s-2.16,84.9-.4,158.39a298.48,298.48,0,0,0,33.4,128.87C596,655.08,616.77,683,630.59,687.07l.29.08c5.86,1.27,21-7.57,35.78-24.5,16.09-18.39,43.22-59.8,44.2-128.7,1.14-81.23.84-156.89.83-157.64C711.69,375.39,711.69,374.47,711.68,373.56Zm-4.6,159.5c-1,66.87-27.34,107.11-43,125-16.18,18.52-29.91,24.51-33.31,23.55-9.66-2.81-28.3-22.64-45.23-55a290.26,290.26,0,0,1-32.5-125.31c-1.57-66,0-140.52.34-155.35,51.51,10.36,103,22,154.53,32.37C708,392.65,708.1,460.64,707.08,533.06Z" style="fill: #d21034"/>
    <path d="M563,601.64a104.65,104.65,0,0,1-3.34-11.14c-6.2.11-6-8.9-2.39-8.86V581c-1.43-2-5.24-5.26-7.39-.48-1.91,4.14,1.67,11.84,6.44,12.82-4.29.51-5.25,4.5-6.2,8.83,3.1,2,6.2,3.71,9.3.17-2.62,5-.72,13.79,2.86,14.88,3.34.69,4.3-2.59,4.53-5.33a10.42,10.42,0,0,0-.71-1.89C563.43,612.19,559.14,606.77,563,601.64Z" style="fill: #d21034"/>
    <path d="M566.43,609.49l-.32-.53-.36.31c-1.14,1-2.56.18-3.27-1.14-.92-1.72-.6-3.92.86-5.88l.27-.37-.2-.54a102.81,102.81,0,0,1-3.3-11c-.06-.2-.11-.4-.16-.6h-.41a4,4,0,0,1-3.84-2.17,4.93,4.93,0,0,1-.28-3.4c.33-1.12,1-1.75,1.88-1.74h.46V580.7l-.19-.27c-.87-1.24-2.89-3.3-5-3.22-1.34.06-2.42,1-3.22,2.77a9.57,9.57,0,0,0,.13,7,12.13,12.13,0,0,0,4.56,6.16c-2.93,1.5-3.76,5.26-4.5,8.65l-.16.7.5.33c2.73,1.78,5.41,3.21,8.08,1.61a17.25,17.25,0,0,0,.39,8.48c.84,2.7,2.23,4.53,3.85,5,2.88.6,4.67-1.49,5-5.88l0-.23-.07-.22A10.87,10.87,0,0,0,566.43,609.49Zm-4.15,6.92c-1.21-.37-2.28-1.81-2.95-4-.84-2.72-1-6.74.48-9.62-.26-.39-.52-.78-.79-1.16-2.69,3.06-5.36,1.94-8.29.08.85-3.79,1.82-7.22,5.66-7.68,0-.51-.07-1-.11-1.53-2.74-.57-4.91-3.48-5.84-6.11a7.5,7.5,0,0,1-.15-5.46c.63-1.42,1.48-2.16,2.5-2.2,1.43-.06,2.88,1.22,3.71,2.2a3.28,3.28,0,0,0-2,2.42,7.15,7.15,0,0,0,.43,5,5,5,0,0,0,4.4,2.93c.86,3.29,1.76,6.69,3,10.14a7.31,7.31,0,0,0-.62,7.56c1,2,2.83,2.75,4.23,2,.1.27.21.59.31.91C565.88,615.35,564.54,616.88,562.28,616.41Z"/>
    <path d="M573.87,592.74c3.24-1.39,3.79-4.82,4.39-7.2-1.9-.21-4.1-1.5-6.82,1,1.3-2.65,1.42-5.09.76-9-1,3-1.67,4.71-4.65,6.83,1.65,4.72,3.07,9.76,5.19,14.53,3-2.47,4.62-2.29,7.26-1.65C578,594.23,576.25,593,573.87,592.74Z" style="fill: #d21034"/>
    <path d="M575.75,592.43c1.82-1.6,2.4-4,2.85-5.9l.42-1.68-.8-.08c-.38,0-.77-.13-1.18-.22a6.09,6.09,0,0,0-4.3.19,17.21,17.21,0,0,0,0-7.28l-.37-2.15c-.2.6-.41,1.21-.62,1.81-1,2.88-1.53,4.46-4.45,6.55l-.42.29.24.68c.48,1.39.95,2.8,1.41,4.22a110.69,110.69,0,0,0,3.81,10.4c.1.23.21.45.31.68l.42-.35c2.89-2.41,4.44-2.18,7-1.57l1.45.35-1.1-1.62C578.78,594.43,577.38,593.1,575.75,592.43Zm-2.88,5.43c-1.34-3.11-2.4-6.36-3.43-9.5-.4-1.21-.79-2.41-1.2-3.58a10.19,10.19,0,0,0,3.75-4.93,10.57,10.57,0,0,1-1,6.18c.26.39.51.79.76,1.18,2-1.85,3.67-1.5,5.28-1.13l.48.1c-.52,2.15-1.25,4.69-3.86,5.81l.24,1.52a6.49,6.49,0,0,1,4.57,2.66C576.67,595.89,575.09,596.13,572.87,597.86Z"/>
    <path d="M720.51,364.88C660.82,353,601.12,339,541.42,327l-.61-.12c0,.29,0,.59,0,.88,0,.93-2,93.66,0,171.6,1.15,46.29,14.45,94.75,37.46,136.81C598,672.24,619.73,694.5,631,697.76l.26.06c6,1.3,24.38-8.23,42.9-29.51C691,649,719.39,606,720.41,536.78c1.27-86.19.13-170.16.12-171C720.52,365.48,720.52,365.18,720.51,364.88Zm-1.36,171.61c-1,68.57-29.14,111.19-45.82,130.3C662.7,679,653.21,686.14,647.13,690c-8.48,5.35-13.84,6.59-16,5.95-11-3.18-32.43-25.14-51.94-60.81-22.81-41.69-36-89.73-37.14-135.58-1.84-73.8-.17-160.87,0-170.59,59.08,11.85,118.17,25.7,177.25,37.52C719.4,375.79,720.35,455.15,719.15,536.49Z"/>
    <path d="M723.77,368.66c4.16-2.59,7.29-11.49,7.29-16.81-3.65-.71-9.9,2.61-12.5,8.16,1.82-6.47-2.08-15.24-6-14.51-4.68.94-3.64,8-2.6,10.49,1.56-5.76,9.11-.81,4.42,8.51l3.65.73,2.08.42V374c7-5.43,9.37,6.05,5.21,7.88,1.56,1.46,6.25,3.9,7.55-2.69C733.92,373.7,728.71,367,723.77,368.66Z" style="fill: #d21034"/>
    <path d="M726,367.67c3.24-3.71,5.62-10.88,5.62-15.72v-.76l-.52-.11c-3.31-.64-8.42,1.76-11.53,6a17.79,17.79,0,0,0-2-8.7c-1.43-2.64-3.33-4-5.09-3.69a4.59,4.59,0,0,0-3.55,3.65,14.21,14.21,0,0,0,.65,7.95l.57,1.36.36-1.33c.37-1.36,1.19-2.13,2.18-2.06a3,3,0,0,1,2.37,2.19c.44,1.15.88,3.66-1,7.49l-.54,1.08,6.18,1.25v9l.81-.63c2.12-1.63,4-1.82,5.23-.53a5.18,5.18,0,0,1,1.22,3.72,3.47,3.47,0,0,1-1.74,3.25l-1,.45,1,.93a7.21,7.21,0,0,0,3.27,1.72,3.68,3.68,0,0,0,2.26-.21c1.36-.62,2.29-2.14,2.77-4.55a11,11,0,0,0-1.76-7.79A8.36,8.36,0,0,0,726,367.67Zm6.41,11.22c-.38,1.95-1.12,3.19-2.18,3.67a4.13,4.13,0,0,1-3.68-.59,5.57,5.57,0,0,0,1.4-3.78,7.31,7.31,0,0,0-1.76-5.24c-.85-.88-2.66-2-5.5-.2V365l-5.31-1.07c1.64-3.89,1.09-6.67.57-8-.67-1.8-2-3-3.36-3.13a2.69,2.69,0,0,0-2.56,1.58,11.38,11.38,0,0,1-.13-5.23,3.61,3.61,0,0,1,2.85-2.85c1.37-.26,2.85.85,4,3a14.79,14.79,0,0,1,1.33,10.36l.94.87c2.35-5,7.92-8.25,11.5-8-.28,5.36-3.3,13.1-7,15.4.15.49.29,1,.44,1.47,2.4-.81,5.14.48,7,3.29A8.58,8.58,0,0,1,732.37,378.89Z"/>
    <path d="M707.29,393.21v-8A16.57,16.57,0,0,0,707.29,393.21Z" style="fill: #d21034"/>
    <path d="M703.65,379.54c-2.87,2.45-2.87,6.25-3.39,9.18,2.08,0,4.69.59,7-3.49v-5.7l-9.37-1.94C700,379.54,701.56,379.87,703.65,379.54Z" style="fill: #d21034"/>
    <path d="M697.68,378.23a6.93,6.93,0,0,0,4.28,2.18,14.83,14.83,0,0,0-2,6.46c-.08.54-.15,1.06-.24,1.56l-.18,1.05,1.33,0c1.62.07,3.55.16,5.41-1.82a21.5,21.5,0,0,0,.48,5.62h1V378.87l-9.89-2.05Zm6.08,1.34,3,.62v4.67c-1.92,3.21-4,3.2-5.84,3.12l.09-.6c.36-2.59.73-5.28,2.93-7.16Z"/>
    <path d="M707.22,475.7c-.54-2.48-3.25-9.37-7.59-6.71-3.79,2-2.71,12.5,2.17,16.68-4.88-2.59-11.65-.85-14.36,2.53,2.71,4.53,9.48,9.52,14.36,8.55-4.88,2.55-6,12.21-2.17,16.17,4.34,4.46,7-1.32,7.59-4-4.34,1.88-8.4-9.64.54-10.57V486.5C698.82,481.89,702.88,472.43,707.22,475.7Z" style="fill: #d21034"/>
    <path d="M703,480.16a4.29,4.29,0,0,1,.83-3.57,2.19,2.19,0,0,1,3.17-.21l1,.78c-.11-.54-.23-1.07-.34-1.6-.43-2-1.82-5.48-3.89-7.07a3.61,3.61,0,0,0-4.43-.23c-1.66.86-2.62,3.3-2.57,6.53A17.94,17.94,0,0,0,699.6,484c-4.72-1.22-10.14.56-12.53,3.54l-.37.47.37.62c2.53,4.23,8,8.37,12.54,8.91a12.71,12.71,0,0,0-2.78,8.13,11,11,0,0,0,2.54,7.82,5.69,5.69,0,0,0,2.77,1.74,3.08,3.08,0,0,0,1.75-.15c2.1-.83,3.45-4,3.83-5.86.11-.5.21-1,.31-1.5l-1,.44c-1.07.46-2.21,0-3.07-1.24a5.61,5.61,0,0,1-.91-4.06c.22-1.24,1.14-3.37,4.84-3.76l.42,0V486l-.42-.21C704.2,483.88,703.26,481.44,703,480.16Zm4.21,17.49c-3.91.57-5,3.15-5.23,4.67a7.87,7.87,0,0,0,1.25,5.67,3.86,3.86,0,0,0,3.08,1.93c-.54,1.48-1.53,3.17-2.85,3.7-1.12.44-2.33,0-3.6-1.31a9,9,0,0,1-2-6.34c.06-3.18,1.37-7,4.15-8.49-.12-.5-.25-1-.37-1.5-4.29.85-10.53-3.28-13.45-7.61,2.79-2.89,9-4.36,13.48-2,.1-.46.21-.92.32-1.38-2.79-2.39-4.08-6.76-4.13-10,0-2.65.68-4.56,2-5.26a2.91,2.91,0,0,1,3.56.13,10.61,10.61,0,0,1,2.86,4.59,2.84,2.84,0,0,0-3.15.88,6.07,6.07,0,0,0-1.14,5c.28,1.58,1.34,4.5,5.22,6.65Z"/>
    <path d="M730.1,498.16c-1.63-1.9-3.52-5-7.59-5.46,2.44-1.09,3.8-2.8,4.61-7-2.44,1.9-4.34,2.71-7,1.77v17.41c2.71.15,4.61,2.11,7,5-.81-4.51-2.17-7.15-4.61-9.22C726.58,502.22,728.47,499.82,730.1,498.16Z" style="fill: #d21034"/>
    <path d="M729.69,496.73a12.26,12.26,0,0,0-5.2-4.34c1.61-1.29,2.52-3.21,3.13-6.39l.37-1.9-1.16.91c-2.27,1.76-4.1,2.61-6.7,1.7l-.58-.19v19.1l.58,0c2.56.14,4.39,2.07,6.7,4.77l1.16,1.37-.37-2.05a17.53,17.53,0,0,0-3-7.84c2.65.24,4.21-1.38,5.51-2.74l.87-.89-.58-.69Zm-7.11,3.14c-.09.47-.19.94-.28,1.41a11.73,11.73,0,0,1,3.86,6.55c-1.71-1.88-3.28-3.22-5.26-3.61l-.3-.06V488.4a6.37,6.37,0,0,0,5.56-1.1A6.56,6.56,0,0,1,722.3,492c.08.51.16,1,.25,1.51,3.29.34,5.09,2.58,6.53,4.38l.16.2C727.74,499.6,726,501.22,722.58,499.87Z"/>
    <path d="M639.06,367.53c1.23,5.06-3.7,7.89-5.34-5.66l-3.28-2.51c-.82.12-2.05.75-3.28,1.08-1.65,12.83-6.57,7.86-5.34,3.33-1.23.33-4.72,2.57-2.87,8.07,1.64,4.25,6.77,4.17,8.62-.82-1,5.17.82,13.06,2.87,16.81,2-2.85,3.69-10,2.87-15.56,1.85,5.8,7,8.12,8.42,4.53C643.78,372.15,640.29,368.4,639.06,367.53Z" style="fill: #d21034"/>
    <path d="M639.22,366.84l-1-.74.39,1.59a3.78,3.78,0,0,1-.25,2.89.76.76,0,0,1-1.12.2c-.48-.3-2.1-1.86-3-8.93,0-.15,0-.3,0-.44l-3.72-2.84-.16,0a9,9,0,0,0-1.7.53,16.24,16.24,0,0,1-1.62.56l-.29.08-.06.43c-.86,6.7-2.48,7.55-3,7.65s-.82-.16-1.12-.69a4.28,4.28,0,0,1-.25-3l.39-1.42-1.05.28a5.5,5.5,0,0,0-3.48,3.76,8.86,8.86,0,0,0,.33,5.37,5.14,5.14,0,0,0,3.88,3.49,4.71,4.71,0,0,0,4.38-1.89,33.15,33.15,0,0,0,3.29,14.52l.39.71.39-.54c1.76-2.45,3.27-8,3.22-13.19a8.07,8.07,0,0,0,4.58,3.94,2.85,2.85,0,0,0,3.55-1.89,8,8,0,0,0,.47-5.2A9.7,9.7,0,0,0,639.22,366.84Zm2,9.5a2.1,2.1,0,0,1-2.62,1.31c-1.66-.4-3.81-2.29-4.87-5.62l-1,.3c.72,4.91-.61,11.28-2.36,14.3-1.88-3.95-3.26-10.83-2.37-15.3l-1-.76c-.91,2.44-2.78,3.82-4.77,3.52a3.76,3.76,0,0,1-2.92-2.51,6.8,6.8,0,0,1-.27-4,4.59,4.59,0,0,1,2-2.6,6.1,6.1,0,0,0,.69,3.07,2.15,2.15,0,0,0,2.19,1.35c1-.2,2.71-1.55,3.63-8.25.48-.15.95-.32,1.4-.49a10,10,0,0,1,1.4-.47l2.85,2.18c.92,7.11,2.67,9.22,3.64,9.85a1.49,1.49,0,0,0,2.18-.4,4.5,4.5,0,0,0,.7-2.77,7.94,7.94,0,0,1,1.89,3.39A6.06,6.06,0,0,1,641.27,376.34Z"/>
    <path d="M632.49,344.88c.21-4.15-1.23-6.56-2-8.83-.82,1.91-2.26,3.7-2.05,7.94a8.79,8.79,0,0,0-4.31-5.74c1.23,3,2,4.95,1.84,8.2l.42.09c1.23-.33,2.46-1,3.48-1.34l.62-.16.62.43c1,.82,2.25,2,3.48,2.86l.41.09A12.34,12.34,0,0,1,636.6,341C634.54,341.44,633.31,342.37,632.49,344.88Z" style="fill: #d21034"/>
    <path d="M632.94,342.46a19.36,19.36,0,0,0-1.53-5.39c-.19-.45-.36-.88-.51-1.3s-.31-.85-.46-1.27c-.15.36-.3.71-.46,1.07s-.32.71-.51,1.07a13.51,13.51,0,0,0-1.53,4.72,9.43,9.43,0,0,0-3.72-3.81l-1.35-.84c.25.63.51,1.25.77,1.87,1.22,2.93,2,4.7,1.76,7.69,0,.27,0,.54,0,.82l1,.21h.16a18.28,18.28,0,0,0,2.36-.88L630,346l.45-.12.42.3c.36.29.75.62,1.16,1a29.77,29.77,0,0,0,2.36,1.91l1.15.29c0-.28,0-.57,0-.85a11.46,11.46,0,0,1,1.55-7l.81-1.59-1.4.31A5.11,5.11,0,0,0,632.94,342.46Zm1.45,5c-.66-.49-1.31-1.06-1.95-1.61-.42-.36-.82-.7-1.22-1l-.78-.55-.81.22c-.37.13-.77.3-1.19.48-.64.27-1.3.55-2,.76a15,15,0,0,0-1.15-5.74,7.89,7.89,0,0,1,2.58,4.25l1-.15a11.34,11.34,0,0,1,1.44-6.38l.09-.17.09.21a14.93,14.93,0,0,1,1.44,7l1,.58a4.61,4.61,0,0,1,2.36-3.09A12.21,12.21,0,0,0,634.39,347.41Z"/>
    <path d="M717.28,369.55c-57.28-11.5-114.56-24.87-171.84-36.43l-.61-.13,0,.89c0,.9-1.91,90.81,0,166.38,1.1,44.88,13.87,91.88,35.94,132.62,18.95,35,39.84,56.5,50.7,59.63l.23.06c5.64,1.23,23-7.81,40.55-28,16.38-18.75,44-60.64,45-128.36,1.22-83.57.12-165,.11-165.8C717.29,370.15,717.28,369.85,717.28,369.55ZM715.92,536c-1,67-28.36,108.54-44.59,127.12-10.09,11.58-19,18.34-24.76,22-8,5.07-13.06,6.23-15.1,5.64-10.59-3.06-31.1-24.3-49.82-58.84-21.88-40.38-34.53-87-35.63-131.4-1.76-71.48-.16-155.81,0-165.37,56.66,11.45,113.33,24.66,170,36.06C716.16,380.3,717.07,457.17,715.92,536Z"/>
    <path d="M711.84,373.58c-54.07-11-108.14-23.49-162.21-34.48,0,.3,0,.59,0,.89,0,.88-1.79,88.45,0,162.05,1,43.71,13,89.42,33.8,129,17.81,33.94,37.47,54.77,47.69,57.74l.22.06c5.05,1.1,20.15-6.86,36.14-25.18,16.14-18.45,43.36-59.8,44.31-127.65,1.15-81.4.12-160.69.11-161.48C711.84,374.19,711.84,373.88,711.84,373.58Zm-1.36,162.1c-.94,67.16-27.91,108.13-43.91,126.41-15.77,18.06-30.94,26.1-35.44,24.83-10-2.9-29.22-23.42-46.8-56.92-20.57-39.19-32.46-84.48-33.49-127.77-1.66-69.55-.16-151.62,0-161,53.25,10.85,106.49,23.16,159.74,34C710.71,384.21,711.56,459,710.48,535.68Z"/>
    <path d="M708.29,378.41c-51.81-10.57-103.63-22.52-155.45-33.11,0,.3,0,.59,0,.89,0,.85-1.71,85.39,0,156.43,1,42.2,12.49,86.33,32.38,124.48,17.08,32.75,35.92,52.83,45.71,55.69l.22.05c4.77,1,19.06-6.52,34.23-23.88C681,641.11,707.28,601.09,708.2,535.2c1.1-78.58.11-155.12.1-155.89ZM706.94,534.9c-.91,65.21-27,104.85-42.47,122.53-15,17.11-29.32,24.79-33.52,23.53-9.53-2.78-28-22.55-44.82-54.86-19.7-37.79-31.1-81.5-32.08-123.28-1.58-67.07-.16-146.18,0-155.43,51,10.45,102,22.18,153,32.61C707.16,388.85,708,461,706.94,534.9Z"/>
  </g>
</svg>
