<?xml version="1.0" encoding="utf-8"?>
<!-- Generator: Adobe Illustrator 24.2.0, SVG Export Plug-In . SVG Version: 6.00 Build 0)  -->
<svg version="1.1" id="Layer_1" xmlns="http://www.w3.org/2000/svg" xmlns:xlink="http://www.w3.org/1999/xlink" x="0px" y="0px"
	 viewBox="0 0 1260 1260" style="enable-background:new 0 0 1260 1260;" xml:space="preserve">
<style type="text/css">
	.st0{fill-rule:evenodd;clip-rule:evenodd;fill:#FFFFFF;}
	.st1{fill:#0047B6;}
	.st2{fill-rule:evenodd;clip-rule:evenodd;fill:#FDD44F;}
	.st3{fill:#D21034;}
</style>
<g>
	<path class="st0" d="M63,294.7v736c378-217.1,756,146.6,1134-70.5v-736C819,441.3,441,77.7,63,294.7z"/>
	<path class="st1" d="M63,294.7v79.7c332.6,27.8,665.3,505.2,997.9,640.8c45.4-11.3,90.7-29,136.1-55.1v-78.5
		c-333.3-27.8-666.5-507-999.8-641.6C152.5,251.5,107.7,269.1,63,294.7z"/>
	<path class="st1" d="M1062.8,278.8C729.5,582.5,396.3,541.7,63,952.2v78.5c45.4-26,90.7-43.7,136.1-55.1
		C531.7,673.9,864.4,713.7,1197,304v-79.7C1152.3,249.9,1107.5,267.5,1062.8,278.8z"/>
	<path class="st2" d="M535.6,464.8c0,0-2.6,83-0.5,156.5C538,720.7,606,797,630.6,803.7c21.2,5.9,92.2-42,94-148.2
		c1.4-81.3,1-155.9,1-155.9C662.3,488.9,599,475.5,535.6,464.8z"/>
	<path d="M727,498.1c-64.3-10.8-128.5-24.4-192.8-35.3l-0.1,1.7c0,0.8-2.6,84-0.5,156.7c1.6,55.6,22.6,99.7,40,127.1
		c20.9,33.1,44.5,53.9,56.9,57.2c0.3,0.1,0.6,0.1,0.9,0.2c9.4,1.8,27.7-4.9,47.1-24.5c17.2-17.4,46.3-57.1,47.5-125.4
		c1.4-80.4,1-155.2,1-156C727,499.2,727,498.7,727,498.1z M723.3,655.2c-1.2,66.9-29.7,105.9-46.6,123c-18.6,18.8-37.2,26.1-46,23.8
		c-11.9-3.2-34.6-23.4-55-55.8c-17-27-37.7-70.3-39.2-124.8c-1.9-66.8,0.1-142.5,0.4-154.7c62.5,10.6,125,23.8,187.5,34.4
		C724.4,512.9,724.6,581.8,723.3,655.2z"/>
	<path class="st3" d="M687.2,564.1c-1.8-1.3-3-3.1-3.4-5c-0.6-2.1-1.5-6.1-4.7-6.5c2.8-2,3.8-5.4,1.1-9.8c-1.7,7.4-2.1,6-10.7,7.4
		c-8.8,1.4-12.2,11.3-11.8,23c0.4,9.8,2.6,16.9,10.5,28.4c8.5,12.2,13,18.6,13,31.1c-2.1-7.3-6.2-8.4-9.4-10.7
		c-3-2-3.2-6.9-1.1-10.7c-6,0.5-5.6,7.5-3,11.3c-1.9,0.2-2.1,0.7-2.6,3.1c-2.8,0.6-4.7-0.6-7-4.9c-1.1,5.3,1.3,7.7,5.1,8.5
		c-5.8,3.1-4.9,13.4,0,16.3c-3.4-5.4-0.4-9.8,1.7-12.4c-0.6,6.8,4.9,8.4,6.4,4.8c-3.8-0.5-3.4-9.3,1.9-8.2c4.9,0.9,7.9,8.2,7.7,14
		c-0.2,5.8-4.1,14.5-12.4,12.6c-7.3-1.7-11.1-8.5-14.1-14.1c-0.5-3.2-1.2-6.4-2.1-9.6c-2.5-7.7-9.6-18.5-11.3-27.4
		c-1.2-6-14.3-6.1-22.5-5.6c1.9-2.3,3.2-4.7,3.1-6.5c-7.3-4.7-12-12-14.1-19.1c-1.9-7-6.4-17.9-9.8-20.7c-3.6-3.2-6.4-6.5-5.1-9.9
		c1.1-3.1,1.3-5.3,0.2-7.2c-0.3-0.5-0.7-1.1-1.1-1.5c0-2.6-2.9-5.6-4.9-6c1.5,2.2,1.9,3.4,1.7,5.6c-0.9,1.8-0.4,1.6-0.9,3.2
		c-0.7-2.4-2.3-4.5-3.8-4.4l0,0c-1.4-1.8-4.1-3.9-6.3-0.5c3.1,1.3,3.1,1.4,4,2.8c-0.1,0.8-0.1,1.6,0.1,2.4c-1.8-1.3-3.2-1.3-3.7,0.3
		c-1.3-0.8-3.5,0.1-4.5,2.6c2,0,3.5,0.2,4.6,1c0.4,1.8,1.3,3.4,2.7,3.1c1.2-0.2,2.3-0.8,3-1.6c0.4,1.7-1.1,5,1.9,7
		c-2.6-0.5-5.4-1-5.6,0.9c-0.2,1.1-0.3,2.2-0.4,3.2c-1.8-0.5-4.6-0.7-5.4-2.6c1.3,5.2,3.7,6.8,6.7,6.2c2.1,2.1,2.3,0.2,2.8-2
		c1.3,0.5,3.2-1.1,4.3,0.5s2.8,7.2,3.2,9.5c0.4,2,1.3-1.7,1.3-3.1c0,4.2,0.2,8.4,0.2,8.4c0.4-1.3,1.1-3.7,1.1-3.7
		c0,3.3-0.2,7.5,0.4,10.4c0.9-2,1.7-3,1.9-4.5c-0.3,5.3-1.2,7.6-0.6,12.5c1.1-1.2,1.9-3.2,2.8-5.5c-1.7,5.2-1.3,8.3,0,11.9
		c0.2-0.9,0.5-1.8,1-2.6c-0.3,2.5,0.1,5.3,1.5,7.2c0-2.2,0.7-2.2,1-2.8c-0.2,2.4,0.1,3.2,1.4,5.8c1.1,2.4,2.6,3.6,2.9,6.1
		c-0.3,0.3-0.7,0.6-1,1c-2.1,2.1-13.9,8.7-16.2,12.4c-2.1,0.1-4.7-0.1-6.4,2.1c-2.3-0.6-4.6-1.3-6.9-2.1c-0.9-2.9-2.9-4-3.9-2.7
		c-2.5-2-5,0.6-5,4.4c1.5-0.9,2.9-1,4.1-0.2c0.3,1.2,1.3,2.1,3.8,1.9l2.6,1.1c-2.4,1.8-3,1.6-4.5,2.8c-2.6-0.5-5.8-0.8-5,3.2
		c-1.5,2.2-2.1,5.8-0.4,9.7c0.8-2.3,1.8-5.5,3.4-5.9l0.8,0.1c2.3,0.2,3-0.6,3.2-3.3c1.9-0.5,2.8,0.3,4.7-1.3c-0.1,2-0.4,4-1,5.9
		c-1.8,0.7-2.7,2.5-2.1,4.1c-0.7,2.1-0.7,6.3,1.7,8.5c0.2-2.2,0.2-4.3,1.1-5.5c0.8,0.3,1.6,0.1,2.1-0.8c1.3-2,1.3-2.8,0.6-5.4
		c0.6-2.1,1.7-4.9,3-5.8c1.1-0.6,1.9-0.8,1.5,1.1c-0.9,5.1,1.5,5.6,0.4,9.2c2.8-3.4,4.5-5.5,3.6-10.1c1.1,4.4,1.7,5.3,1.7,5.3
		c1.3-2.3,0.9-4.6,0.4-6.6c1.3,3.3,1.7,4.5,1.7,4.5c0.9-1.5,1.5-1.4,1.3-3.9c0.7,1.5,1.9,2.8,3.4,3.7c-1.1-2.2,0.2-2.7,0-5
		c0.6,3.7,3.2,5.6,5.5,4.9c-2.1-2.1-1.5-3.6-2.1-5.1c1.3,2.2,2.8,4.4,4.5,4.2c-1.3-1.6,0-3.4-0.9-5.5c1.3,3,2.2,4.3,5.4,4.4
		c-1.6-1.5-0.8-2.7-1.4-4c1.4,2.1,3.7,3.5,6.3,4.1c-0.6-1.8,0.4-2.7,0.4-3.5c0.6,2.9,0.9,2.6,0.6,4c2.1-2.1,3.6-2.6,4.3-3.9
		c1.2,3.5,3.3,6.7,6,9.5c3.2,3.4,9.2,3.4,11.5,8.3c0.7,1.4,1.1,2.9,1.1,4.4c-2.9-0.6-5-1.6-7.5-1.2c-2.8-3.9-7.1-4.9-10.1-3
		c-3,1.9-5.8,6.9-10.9,2c-2.8-2.8-0.8-6.8,0.2-7.7c-3.8-0.2-6.4,3.7-2.6,10c-2.6-2.4-4.9,0.2-8.6-7.2c0.2,6.2,3,12,10.1,10.5
		c-6,0.8-2.6,8.4-9.4,4.9c2.8,5,6.9,3.5,9.4-1c-0.9,3.7-1.1,3.4,0,6.4c2.1-2.9,3,0.9,5.4-0.6c-1.3,2.8,0,6.3,1.1,8.8
		c1.1,2.2,1.7,2.6,0.2,4.8c-5.3-1.6-13-4.2-15.6-3.8c-2.3-2.9-3-4.1-4.9-5.9c0.4-4.1-0.5-6.2-2.2-5.4l-1,0.4c0-0.2,0-0.4,0-0.6
		c-1.5-1.4-5.6-3.8-6.4,0.2c2,0.6,3.7,1.9,4.8,3.5c-1.8-1.7-2.7-1.7-3.7,0c-1.5-0.9-4.9-0.7-3.6,4.9c1.3-0.9,2.4-0.1,3.6,0.1
		c-0.4,0.4-0.6,0.9-0.8,1.5c-2.2-1.1-5.8-0.9-5.2,5.8c2-2.2,3.9-1.6,5.1-1c0.1,0.4,0.2,0.8,0.4,1.2c0.9,1.3,2.2,1.8,3-0.5
		c2.3,0.4,5.5,1.9,7.4,1.4c-0.4,1.3-1.9,1.6-2.6,2.3c-2.6,0.3-3.7,1.8-2.9,4c-1.4,3.1-0.8,6.7,1.7,9.3c0-2.5,0.5-4.1,2.2-5.7
		c1.5-0.3,2.3-0.9,1.9-3.8c1.3-1.4,2.3-4.9,3.8-3.2c2.1,2.9-0.4,4.4,4.1,7.4c-0.4-1.7,3-1.1,2.6-2.8c1.1,3.8,2.2,4.5,4.1,7.1
		c0.9-1.5,2.8-2.5,2.1-4.3c1.5,4.4,3.9,5.4,4.1,8c2.1-2.6,2.8-3.6,2.6-7c1.5,5.3,2.8,7.2,4.7,5c0.8-0.9,1.5-1.9,2.1-2.9
		c2.4,2.4,4.9,1.5,6.6-2.9c-3.2,1.3-5.3,1.1-7.5-1.8c-0.9-3.5-1.9-4.5-1.3-8.6c0.4-4.1,3.2-11,10.9-9c0.1,0,0.2,0,0.2,0
		c0.2,2,0.7,3.9,1.4,5.8c2.3,5.5,4.5,10.6,2.8,13.3c-1.5,2.8-6.9,3.1-4.3,11.4c0.4-4.1,0.6-4.6,2.8-5.5c0,3.9-0.4,6.6,2.2,9.3
		c-0.6-3.7,0.2-5.2,1-6.8c1.7,3.9,2.8,5.6,5.6,3.9c-1.5-1.4-5.5-5.2-3.2-10c2.3,4.1,4.7,5.6,6,5c1.5-0.5,3,0,5.8-5.8
		c-0.6,4.6-0.2,7.7,1.9,11.2c-2.3,1.8-3.6,7.1-4.3,9.4c-0.4,2.4-1.3,2.3-3,2.5c-1.5,0.3-1.3-2.7-3.2-3.1c-1.2-0.2-2.2,1-2.6,2.6
		c-0.1-0.1-0.3-0.1-0.4-0.1c-2.1-0.4-5.1,2.9-2.8,8.1c1.3-2.5,2.1-1.8,3.4-2.2c0-0.1,0.1-0.1,0.1-0.2c0.1,0.7,0.4,1.3,1,1.8
		c-1.1,0.6-1.6,1.8-1.3,3c-0.1,0-0.3,0-0.4,0c-1.5,1.9-1.7,5.2,2.3,8.2c-0.2-2-0.4-3,0.4-4.2c0.5,0.1,1-0.4,1.7-0.4
		c-2.3,2.6-2.5,7,2.6,9.4c-0.2-2.9-0.6-4.2,0.3-5.6c1,0.7,2,0.7,2.5-0.6c0.9-2.3-0.2-5.3,0-7.5c0.2-1.9,3.2-1.9,4.1-3.6
		c0.6,1.7,1.1,3.4,1.3,5.2c-0.6,2.6-0.7,6.2,2.5,4.7c0.1,1.4-0.1,2.7-0.6,4c3.7-0.6,4.4-3.1,3.8-6.8c0.4-1.1,0.5-2.2,0.2-3.3
		c-0.4-3.7-2.3-3-3.4-2.6c0.4-2.2,0.4-4.5-0.3-6.7c3.2,2.3,5,2.3,7.3-1.6c-2.6-0.8-3-2.8-5.6-3.5c4.5,0.9,7.3,0.3,8.2-4.6
		c-1.9,1-3-1.4-4.3-1.9c2.1-0.4,4.9,0.4,6.2-3c-1.7,1.1-3-3.1-4.8-3.4c3-0.8,4.3-1.1,5.4-3.4c-1.7,0-3.2-4.2-5.4-2.1
		c1.9-2.7,6.7,0.1,7.3-3.4c-1.9-0.1-3.6-1-4.7-3.4c-0.9-2.4-1.1-4.9-2.6-5.2c1,0.4,2,0.6,3,0.6c-2.6-2.4-4.1-5.5-3.7-10.4
		c-2.8,3.9-7.5,6.9-10,5.9c-2.6-1-5.6-3.8-5.4-8.5c0.2-4.1,0.9-4.8,0.9-8.4c2.8,3.6,7,6.6,13.7,6.5c10.9,0.1,17.5-9.8,17.1-25.1
		c-0.4-15.1-3.4-23.4-13.2-37.2c-9.2-12.8-10.9-18.2-11.3-28.8c-0.4-11.5,3.6-17.9,8.3-18.6c3.2-0.8,4.9,4.2,3.2,7
		c-1.5,2.5-1.9,7.4-0.4,11.3c1.7-0.2,1.9-1.3,3.9-2.9c-3.4,3.5-4.5,9.1-3,14.7c1.7,5.9,6.2,6.2,8.1,6.5c-3-7.8,1.5-9.4,1.5-15.3
		c0.6,7.1,3.2,10,7.7,7.2c-3.4-0.9-4-6.3-3.2-8.9c0.6-2.4,1.9-2.7,0-6.4c3.8,2.4,5.1-1.5,5.1-5.4
		C691.9,565.1,689.1,565.3,687.2,564.1z"/>
	<path d="M687.4,563.6c-1.7-1.2-2.8-2.8-3.2-4.7c-0.1-0.2-0.1-0.4-0.2-0.6c-0.6-1.9-1.4-4.9-3.7-5.9c1.1-1.1,1.8-2.5,1.9-4
		c0.1-2.1-0.5-4.1-1.7-5.9l-0.6-0.9c-0.1,0.3-0.2,0.7-0.2,1c-1.3,5.8-1.6,5.9-6.6,6.5c-1.1,0.1-2.3,0.3-3.8,0.5
		c-8.1,1.3-12.6,10.1-12.2,23.6c0.5,10.6,3.2,17.9,10.7,28.8c7.5,10.9,12.1,17.2,12.8,27.8c-1.9-4.1-4.5-5.7-6.8-7.2
		c-0.6-0.4-1.3-0.8-1.9-1.2c-1-0.7-1.7-1.8-2-3c-0.5-2.3-0.1-4.7,1.1-6.8l0.6-1.1l-1.1,0.1c-2.6,0.2-4.4,1.7-4.9,4.2
		c-0.5,2.5-0.1,5,1.2,7.3c-1.4,0.3-1.7,1-2.1,3c-2.5,0.4-4.2-0.8-6.3-4.7l-0.5-1c-0.1,0.4-0.2,0.8-0.2,1.2c-0.5,2-0.4,4.1,0.5,6.1
		c0.7,1.3,2,2.4,3.6,2.9c-2.5,2.1-3.2,5.7-3,8.6c0.3,3.6,1.9,6.7,4.3,8.1l1.7,1l-1.2-1.9c-2.6-4.1-1.2-7.6,0.9-10.5
		c0.2,2.8,1.4,4.5,2.7,5.2c1.8,1.1,3.8,0.3,4.7-1.7c0.1-0.3,0.2-0.6,0.4-0.9l-0.8-0.1c-0.8-0.1-1.5-0.7-1.7-1.4
		c-0.5-1.3-0.5-2.6,0.1-3.9c0.5-1.3,2-2.1,3.5-1.8c1.8,0.3,3.4,1.6,4.7,3.6c1.8,2.9,2.7,6.3,2.6,9.6c-0.2,5.9-4.2,13.9-12,12.2
		c-7.2-1.6-10.9-8.6-13.7-13.7c-0.5-3.2-1.2-6.4-2.1-9.6c-1.3-3.6-2.9-7.1-4.7-10.6c-2.8-5.7-5.6-11.5-6.6-16.8
		c-0.9-4.8-8.3-6.9-21.8-6.2c1.1-1.6,2.4-3.8,2.3-5.7v-0.4l-0.3-0.2c-6.5-4.2-11.5-11-13.8-18.7c-1.9-6.9-6.4-18.1-10-21.1
		c-4.4-3.9-5.9-6.6-4.9-9c0.9-2.6,1.5-5.4,0.1-7.8c-0.3-0.5-0.6-1-1-1.4c-0.1-1.1-0.5-2.1-1.1-3c-1.1-1.7-2.9-3-4.3-3.3l-1.1-0.2
		l0.8,1.2c1.4,2.1,1.7,3.1,1.6,4.9c-0.3,0.5-0.5,1.1-0.6,1.7c-0.8-1.8-2.2-3.2-3.4-3.3l0,0l0,0c-0.7-0.8-2.1-2.3-3.7-2.3
		c-1.2,0-2.2,0.6-3.1,2l-0.5,0.7l0.7,0.3c2.7,1.2,2.9,1.3,3.5,2.3c0,0.4,0,0.9,0,1.3c-0.7-0.5-1.6-0.6-2.4-0.4c-0.4,0.2-0.8,0.5-1,1
		c-1.5-0.5-3.6,0.4-4.6,3l-0.4,1h0.9c1.4-0.1,2.9,0.2,4.2,0.8c0.2,1.1,0.7,2.1,1.5,2.9c0.4,0.4,1,0.6,1.6,0.4
		c0.9-0.2,1.8-0.5,2.5-1.1c0,0.2,0,0.4,0,0.5c-0.2,1.5,0,3,0.7,4.4c-2.2-0.3-4.2-0.3-4.4,1.6c0,0.2-0.1,0.4-0.1,0.7
		c-0.1,0.6-0.2,1.3-0.3,2l-0.7-0.2c-1.5-0.3-3.3-0.7-3.8-2l-0.9,0.3c1.2,5,3.6,7.3,7,6.8c0.8,0.7,1.4,1,1.9,0.8
		c0.8-0.3,1-1.5,1.3-2.7c0.5,0,1,0,1.5-0.2c1-0.2,1.7-0.3,2.1,0.3c1,1.4,2.7,6.9,3.1,9.2c0.2,1,0.6,1.1,0.8,1.1s0.3-0.1,0.5-0.3
		c0.1,2.4,0.2,4.3,0.2,4.3l0.9,0.4c0-0.1,0.1-0.2,0.1-0.4c-0.1,2.3,0.1,4.6,0.5,6.8l0.2,1.4l0.5-1.2c0.2-0.5,0.5-1,0.7-1.4
		c0,0.4-0.1,0.7-0.1,1.1c-0.4,2.6-0.5,5.3-0.2,7.9l0.1,1.2l0.6-0.7c0.3-0.4,0.6-0.8,0.9-1.3c-0.2,2.5,0.2,5,1.1,7.4l0.6,1.7
		c0.1-0.5,0.2-1.1,0.3-1.6c0-0.1,0-0.1,0-0.2c0.1,1.8,0.7,3.5,1.7,5l0.8,1.1v-1.4c0-0.3,0-0.5,0-0.8c0.3,1.4,0.8,2.7,1.5,4
		c0.4,0.8,0.8,1.6,1.3,2.4c0.7,1,1.2,2,1.5,3.1l-0.3,0.2c-0.2,0.2-0.4,0.3-0.6,0.5c-1.6,1.3-3.3,2.5-5.1,3.6
		c-4.2,2.8-9.4,6.3-11.1,8.7h-0.7c-1.9,0.1-4.1,0.2-5.6,2c-2.2-0.5-4.3-1.2-6.4-2c-0.3-1.3-1.2-2.5-2.5-3.2
		c-0.6-0.3-1.4-0.2-1.9,0.2c-0.9-0.7-2.2-0.8-3.2-0.1c-1.2,0.9-2.1,2.9-2.1,5.3v1.1l0.7-0.4c1.3-0.8,2.5-0.9,3.5-0.4
		c0.5,1.5,1.9,2.2,4.2,2.1l1.4,0.6c-0.6,0.4-1.2,0.7-1.8,1.1c-0.6,0.3-1.1,0.6-1.6,0.9c-2.1-0.4-4.1-0.5-5,0.9
		c-0.5,0.9-0.6,1.8-0.3,2.8c-1.7,2.8-1.8,6.5-0.3,10.2l0.5,1.1c0.2-0.6,0.4-1.1,0.6-1.7c0.7-2,1.6-4.6,2.9-4.9h0.4h0.4
		c2.4,0.2,3.3-0.6,3.6-3.4c0.4-0.1,0.9-0.1,1.3-0.1c0.8,0,1.6-0.2,2.3-0.6c-0.1,1.4-0.4,2.8-0.8,4.2c-1.9,0.8-2.8,2.7-2.3,4.6
		c-0.7,2.5-0.5,6.8,1.9,9.1l0.6,0.6c0-0.5,0.1-1,0.1-1.6c0.1-1.7,0.2-3.3,0.8-4.3c1,0.2,1.9-0.2,2.3-1c1.3-2.1,1.4-3.1,0.8-5.8
		c0.9-2.8,1.9-4.7,2.8-5.3c0.3-0.2,0.6-0.3,0.9-0.4c0,0.2-0.1,0.5-0.1,0.7c-0.4,1.9-0.3,3.8,0.3,5.6c0.4,1.2,0.5,2.4,0.1,3.6
		l0.8,0.8c1.9-2.3,3.5-4.2,3.9-6.8c0.2,0.7,0.5,1.3,0.8,1.9l0.4,0.6l0.3-0.5c0.6-1,0.9-2.2,0.9-3.4c0.3,0.7,0.4,1,0.4,1l0.4,1
		l0.5-0.8c0.2-0.3,0.4-0.6,0.6-0.9c0.4-0.5,0.7-1.1,0.8-1.8c0.6,0.9,1.4,1.6,2.3,2.2l0.4,0.3l1.5,1.1c-0.3-0.6-0.6-1.3-0.9-1.9
		c-0.4-0.7-0.5-1.5-0.2-2.3c0,0,0-0.1,0-0.1c0.4,0.8,0.9,1.5,1.5,2.2c1,1,2.5,1.4,3.9,1l0.9-0.3l-0.8-0.8c-0.7-0.6-1.2-1.4-1.4-2.2
		c1.1,1.5,2.3,2.6,3.6,2.4l0.9-0.1l-0.7-0.9c-0.4-0.7-0.6-1.5-0.4-2.2c0-0.1,0-0.1,0-0.2c0.9,1.6,2.7,2.5,4.7,2.4h1.4l-1.2-1.1
		c-0.6-0.5-0.9-1.1-0.9-1.8c1.5,1.5,3.4,2.5,5.5,3l0.5,0.2c-0.1,0.4-0.1,0.8-0.2,1.3l1.1-1c0.7-0.7,1.5-1.4,2.4-2
		c0.6-0.4,1.1-0.8,1.5-1.3c1.3,3.3,3.3,6.3,5.9,8.9c1.5,1.4,3.2,2.5,5.1,3.2c2.5,1.1,5,2.3,6.3,5c0.5,1.1,0.9,2.2,1,3.4
		c-0.7-0.1-1.3-0.3-1.9-0.5c-1.6-0.5-3.3-0.8-5-0.7c-2.9-3.8-7.2-5-10.4-2.9c-0.7,0.5-1.4,1-2,1.6c-2.3,2-4.7,4.1-8.5,0.6
		c-0.7-0.7-1.2-1.7-1.2-2.7c-0.1-1.5,0.5-2.9,1.5-4.1l1.3-1.1l-1.6-0.1c-2.2-0.1-4.2,1.2-4.7,3.1c-0.5,2-0.2,4.1,0.8,6
		c-0.4-0.2-0.8-0.3-1.3-0.4c-1.6-0.5-3.3-0.9-5.6-5.5c-0.3-0.6-0.6-1.2-0.9-1.9c0,0.7,0,1.4,0.1,2.1c0.1,3.8,1.2,7,3,9
		c1.1,1.3,2.7,2.1,4.5,2.4c-0.6,0.7-1.2,1.5-1.5,2.4c-0.8,1.7-1.3,2.9-4.7,1.1l-1.4-0.7l0.9,1.6c1.1,2,2.5,3.2,4.1,3.4
		c1.6,0.2,3.2-0.6,4.6-2.2c-0.2,1.3-0.1,2,0.7,4.1l0.3,0.9c0.2-0.2,0.3-0.4,0.5-0.6c1-1.3,1.5-1.1,2.3-0.6c0.5,0.3,1.2,0.5,1.8,0.5
		c-0.6,2.8,0.5,5.8,1.5,8.1l0.4,0.8c0.7,1.3,0.9,1.6,0,3l-2.7-0.8c-4.8-1.5-10.2-3.1-12.6-3c-0.7-0.8-1.2-1.5-1.6-2.2
		c-0.8-1.2-1.8-2.3-2.9-3.4c0.2-2.6-0.1-4.5-0.9-5.4c-0.4-0.6-1.3-0.7-2-0.4l-0.3,0.1l-0.2,0.1l-0.2-0.3c-1-1-3.5-2.7-5.3-2
		c-0.9,0.3-1.5,1.1-1.8,2.4l-0.2,0.7l0.6,0.1c0.8,0.2,1.6,0.6,2.2,1c-0.6,0.2-1,0.6-1.2,1.1c-1.1-0.5-2.5-0.3-3.3,0.6
		c-0.6,0.7-1.3,2.2-0.6,5.2c0,0.2,0.1,0.4,0.1,0.6c-0.4,0.1-0.9,0.4-1.2,0.7c-1.1,1.1-1.6,3.1-1.3,6c0,0.4,0.1,0.8,0.1,1.3l0.7-0.8
		c1.8-1.9,3.3-1.5,4.4-1.1c0.1,0.4,0.2,0.8,0.5,1.1c0.6,0.9,1.3,1.4,2,1.3c0.5,0,1.1-0.3,1.7-1.6c0.7,0.2,1.4,0.4,2.2,0.6
		c1.2,0.4,2.5,0.7,3.7,0.8c-0.2,0.1-0.4,0.3-0.6,0.4c-0.3,0.2-0.6,0.4-0.9,0.6c-1.4,0.1-2.7,0.9-3.2,2c-0.3,0.8-0.3,1.6-0.1,2.4
		c-1.4,3.4-0.7,7.2,1.9,9.9c0.2,0.2,0.5,0.5,0.7,0.7v-1c0-2.2,0.3-3.6,1.9-5.2c1.6-0.3,2.5-1.2,2.2-4.1c0.3-0.5,0.7-0.9,1-1.4
		c0.5-0.9,1.1-1.8,1.6-1.9c0.1,0,0.2,0,0.4,0.2c0.6,0.8,0.9,1.7,0.9,2.6c0.2,1.7,0.6,3.1,3.3,5l0.9,0.6l-0.3-1.3
		c-0.1-0.3,0.4-0.5,1-0.7c0.4-0.1,0.8-0.3,1.1-0.5c0.6,1.7,1.5,3.3,2.7,4.7c0.3,0.4,0.7,0.9,1.1,1.4l0.4,0.6l0.3-0.5
		c0.3-0.4,0.6-0.9,1-1.2c0.4-0.4,0.8-0.9,1.1-1.5c0.5,1.1,1.2,2.1,1.9,3.1c0.7,0.8,1.2,1.8,1.4,2.8l0.1,1.4l0.7-0.9
		c1.5-1.9,2.3-3,2.6-4.6c0.8,2.1,1.5,3.2,2.3,3.6c0.8,0.4,1.5,0.1,2.3-0.9c1-1.3,1.6-2.1,1.9-2.5c0.7,0.8,1.9,1.2,3,1.1
		c1.5-0.3,2.9-1.8,3.9-4.4c0.2-0.5,0.4-1,0.6-1.4l-1.2,0.5c-3.2,1.3-5,1-6.9-1.4c-0.2-0.9-0.5-1.6-0.7-2.3c-0.7-1.9-0.9-3.9-0.5-5.8
		c0.4-4.1,3.1-10.4,10.3-8.6c0.3,1.9,0.7,3.8,1.4,5.6c2.3,5.2,4.4,10.2,2.8,12.6c-0.5,0.7-1.1,1.3-1.8,1.8c-2,1.6-4.5,3.7-2.5,10.1
		l0.7,2.2l0.2-2.2c0.4-3.4,0.5-4.1,1.8-4.8v0.4c0,3.1-0.1,5.9,2.4,8.5c0.3,0.4,0.7,0.7,1,1c-0.1-0.5-0.2-1-0.3-1.6
		c-0.5-2.9-0.1-4.4,0.6-5.6c0.5,1.3,1.2,2.4,2.2,3.4c1,0.8,2.1,0.8,3.6-0.1l0.7-0.4l-0.7-0.6c-0.9-0.8-3.1-2.8-3.6-5.4
		c-0.2-1-0.1-2.1,0.2-3.1c2.2,3.5,4.5,5.2,6.1,4.5c0.2-0.1,0.4-0.1,0.7-0.2c1.1-0.3,2.4-0.6,4.2-3.7c-0.2,2.9,0.5,5.8,2,8.4
		c-2.1,2-3.3,6.4-3.9,8.9l-0.1,0.5c-0.3,1.8-0.8,1.9-2.2,2.1l-0.5,0.1c-0.4,0.1-0.5-0.1-0.9-0.9c-0.4-0.8-1-1.9-2.2-2.2
		c-1.2-0.2-2.3,0.7-2.9,2.5h-0.1c-1.3-0.3-2.8,0.7-3.6,2.3c-0.5,1.1-1.1,3.3,0.4,6.6l0.4,0.9l0.4-0.8c0.9-1.7,1.5-1.8,2.3-1.8
		c0.2,0,0.4,0,0.6-0.1c0.1,0.3,0.2,0.5,0.4,0.8c-0.7,0.7-1.1,1.6-1,2.6h-0.1l-0.1,0.1c-0.9,1.2-1.3,2.7-1,4.2c0.4,2,1.7,3.8,3.5,5
		l0.5,0.4c0.6,2,2.2,3.6,4.3,4.5l0.6,0.3l-0.1-0.8c0-0.7-0.1-1.2-0.1-1.7c-0.2-1.5-0.2-2.3,0.2-3.1c1.2,0.6,2.2,0.3,2.7-1
		c0.4-1.6,0.5-3.3,0.2-5c-0.1-0.9-0.2-1.8-0.1-2.7c0.1-0.7,0.9-1.1,1.7-1.6c0.7-0.3,1.3-0.7,1.8-1.1c0.4,1.3,0.7,2.6,0.9,4
		c-0.3,1.2-0.7,3.8,0.3,5.1c0.5,0.6,1.4,0.9,2.2,0.5c-0.1,1-0.3,1.9-0.6,2.9c-0.1,0.4-0.2,0.7-0.3,1.1l0.9-0.1
		c3.5-0.5,4.8-2.8,4.2-7.2c0.3-1.1,0.4-2.3,0.2-3.5c0-1.1-0.4-2.1-1.2-3c-0.5-0.5-1.4-0.7-2.1-0.5c0.2-1.6,0.2-3.2-0.1-4.7
		c2.7,1.7,4.6,1.6,7-2.4l0.5-0.8l-0.8-0.2c-1-0.3-1.9-0.9-2.6-1.7l-0.4-0.4c3.1,0.1,5.2-1.1,6-5.3l0.2-1.3l-0.9,0.5
		c-1.1,0.6-1.8-0.1-2.6-0.9h0.1c1.8-0.1,3.9-0.3,5-3.1c0.2-0.6,0.4-1.2,0.7-1.7l-1.3,0.8c-0.7,0.4-1.2-0.3-2.1-1.4
		c-0.3-0.4-0.6-0.8-1-1.1c2.2-0.6,3.4-1.2,4.4-3.3c0.2-0.3,0.3-0.6,0.4-1h-0.9c-0.5,0-1.1-0.6-1.6-1.1c-0.3-0.4-0.7-0.7-1.1-1
		c0.4,0,0.9-0.1,1.3-0.1c1.7-0.1,3.4-0.1,3.9-2.4c0.1-0.3,0.1-0.5,0.2-0.8h-0.7c-2-0.1-3.4-1.1-4.2-3c-0.2-0.6-0.4-1.2-0.6-1.8
		c-0.2-0.7-0.4-1.5-0.7-2.2c0.5,0.1,0.9,0.1,1.4,0.1l1.2-0.1l-1.1-1c-2.7-2.6-3.8-5.6-3.4-9.8c0.1-0.7,0.1-1.4,0.2-2l-1,1.4
		c-2.8,4-7.3,6.6-9.6,5.7c-3.3-1.4-5.3-4.5-4.9-7.8c0.1-1.4,0.2-2.8,0.5-4.1c0.2-1,0.3-2.1,0.4-3.1c3.1,3.8,8.1,6,13.3,5.8
		c11.1,0.1,17.9-10,17.5-25.7c-0.4-15.2-3.4-23.6-13.4-37.6c-9.2-12.8-10.8-18.1-11.2-28.3c-0.4-11.5,3.7-17.4,8-18.1
		c1.1-0.3,2.1,0.3,2.8,1.5c0.7,1.4,0.7,3-0.1,4.4c-1.5,2.5-2.1,7.7-0.5,12c0.1,0.2,0.1,0.3,0.2,0.5l0.4,0c0.3,0,0.6-0.1,0.9-0.2
		c-1.5,3.7-1.7,7.7-0.6,11.6c1.7,5.8,6,6.6,8.1,6.9l1.3,0.2l-0.4-1c-1.7-4.5-0.8-6.7,0.2-9.3c0.3-0.8,0.7-1.6,0.9-2.5
		c0.5,2.3,1.3,3.9,2.4,4.8c1.4,1.2,3.3,1.1,5.5-0.3l1.3-0.8l-1.5-0.4c-1.2-0.4-2.1-1.2-2.4-2.3c-0.8-1.8-0.9-3.8-0.4-5.8
		c0.1-0.5,0.3-0.9,0.5-1.4c0.7-1.3,0.7-2.8,0.1-4.2c0.9,0.4,1.9,0.3,2.6-0.3c1.2-0.9,1.9-3.2,1.9-6.2v-2.3c-0.3,0.6-0.6,1.2-0.9,1.8
		C691.6,564.4,689.1,564.7,687.4,563.6z M616.8,631.6L616.8,631.6c-0.1-0.2-0.1-0.3-0.2-0.5c-0.2-0.5-0.2-1,0-1.5
		c0,0.1,0.1,0.2,0.1,0.3C616.9,630.4,616.9,631,616.8,631.6z M649.2,729.2c0-0.4,0.1-0.7,0.3-1h0.1
		C649.4,728.5,649.3,728.8,649.2,729.2L649.2,729.2z M691.3,567.1c-0.7,0.6-1.7,0.4-3-0.3l-1.4-0.9c0.3,0.6,0.6,1.2,0.9,1.7
		c1.3,2.4,1,3.1,0.5,4.3c-0.2,0.5-0.4,1-0.5,1.5c-0.6,2.3-0.5,4.7,0.5,6.9c0.4,0.9,1,1.8,1.9,2.4c-1.4,0.6-2.6,0.5-3.5-0.2
		c-1.3-1-2.1-3.4-2.4-7l-0.9-0.1c0,1.8-0.5,3.5-1.3,5.2c-1,2.4-2,4.9-0.5,9.4c-2.2-0.4-5.5-1.1-6.9-5.9c-1.4-5.4-0.3-10.8,2.9-14.1
		l-0.6-1c-0.6,0.5-1.1,1-1.6,1.5c-0.4,0.6-1,1-1.8,1.3c-1.2-3.7-0.7-8.1,0.6-10.2c1-1.9,1-4,0.1-5.9c-0.9-1.7-2.3-2.5-3.8-2.1
		c-4.6,0.8-9.1,7-8.7,19.2c0.4,10.6,2.1,16.1,11.5,29.2c9.7,13.7,12.7,21.9,13.1,36.7c0.4,15-6.1,24.7-16.7,24.6
		c-5.5,0.1-10-2-13.3-6.3l-0.8-1v1.3c0,1.4-0.1,2.7-0.4,4.1c-0.3,1.4-0.4,2.9-0.5,4.3c-0.2,5,3,8.1,5.7,9.2c2.6,1.1,6.8-1.5,9.6-4.8
		c-0.1,2.9,0.9,5.7,2.8,8c-0.4-0.1-0.8-0.2-1.2-0.3c-0.1-0.1-0.3-0.1-0.4-0.1l-0.1,1.2l0.3,0.1c0.6,0.3,0.9,1.3,1.3,2.8
		c0.2,0.6,0.4,1.3,0.6,2c0.9,2.1,2.4,3.3,4.4,3.7c-0.5,0.7-1.4,0.8-2.8,0.8s-3.1,0.1-4.1,1.5l0.7,1c1-1,1.7-0.3,2.9,0.8
		c0.4,0.4,0.9,0.8,1.4,1.2c-0.9,1.4-2,1.7-4.4,2.3l-0.4,0.1l0.2,1.2c0.6,0.1,1.2,0.9,1.8,1.6c0.5,0.8,1.2,1.4,2,1.9
		c-0.9,1.3-2.3,1.4-3.8,1.5c-0.5,0-1.1,0.1-1.6,0.2c0,0.4,0,0.8,0.1,1.2c0.4,0.2,0.8,0.5,1.1,0.8c0.7,0.7,1.5,1.4,2.6,1.4
		c-0.9,3.1-3,4-7.5,3.1c0,0.4,0,0.8,0,1.2c1,0.3,1.9,0.9,2.6,1.7c0.6,0.6,1.4,1.2,2.2,1.6c-2,3-3.5,2.8-6.3,0.8l-1-0.7
		c0.1,0.4,0.2,0.9,0.4,1.4c0.5,1.9,0.6,3.8,0.3,5.7c0,0.2-0.1,0.5-0.1,0.7s0,0.7,0,1l0.8-0.2c0.6-0.2,1.4-0.5,2,0
		c0.5,0.6,0.7,1.3,0.7,2c0.2,1,0.2,2-0.2,2.9l-0.1,0.2v0.2c0.5,3.5-0.2,5.3-2.6,5.9c0.3-1,0.4-2.1,0.3-3.2c0-0.3-0.1-0.6-0.1-0.8
		l-0.6,0.3c-0.9,0.4-1.5,0.5-1.8,0.1c-0.4-0.5-0.4-2.1,0-3.9v-0.1v-0.1c-0.2-1.8-0.7-3.6-1.3-5.4c-0.1-0.4-0.3-0.7-0.4-1.1l-0.4,0.9
		c-0.4,0.7-1.1,1.2-1.9,1.5c-1,0.5-2.1,1-2.2,2.4c-0.1,1,0,2,0.1,3c0.3,1.4,0.3,2.9-0.1,4.3c-0.1,0.3-0.5,1.3-1.9,0.4l-0.3-0.2
		l-0.2,0.3c-0.8,1.2-0.7,2.5-0.5,4.3c0,0.3,0,0.5,0.1,0.8c-2.9-1.3-4-4.4-2.5-6.9c0.2-0.4,0.5-0.7,0.8-1.1l1-1.2H651
		c-0.4,0-0.7,0.1-1.1,0.3c-0.2,0.1-0.4,0.1-0.6,0.1l0,0l-0.2,0l-0.1,0.2c-0.6,1.1-0.8,2.3-0.6,3.5c-1.1-0.9-1.9-2.1-2.2-3.5
		c-0.2-1,0.1-2.1,0.7-3h0.2h0.5l-0.1-0.7c-0.3-0.9,0.2-1.9,1.1-2.3l0.8-0.4c-0.3-0.2-0.5-0.4-0.8-0.7c-0.4-0.4-0.7-0.9-0.7-1.4
		l-0.3-1.1l-0.5,0.8c-0.2,0-0.4,0.1-0.6,0.1c-0.8,0-1.5,0.1-2.4,1.5c-0.6-1.4-0.6-3,0-4.4c0.7-1.4,1.9-2,2.7-1.9
		c0.1,0,0.3,0.1,0.3,0.1l0.4,0.3c0-0.2,0.1-0.4,0.1-0.5c0.3-1.2,1.1-2.5,2.1-2.2c0.7,0.1,1,0.8,1.4,1.5c0.4,0.7,0.9,1.8,1.9,1.6
		l0.4-0.1c1.5-0.2,2.4-0.3,2.9-2.8c0-0.2,0.1-0.3,0.1-0.4c0.7-2.5,1.9-7.1,4-8.7l0.4-0.3l-0.4-0.6c-2-3.2-2.4-6-1.8-10.6l-0.9-0.6
		c-2.3,4.8-3.6,5.1-4.8,5.4c-0.3,0.1-0.5,0.1-0.7,0.2c-1,0.5-3.1-0.8-5.4-4.8l-0.4-0.8c-0.1,0.2-0.2,0.5-0.3,0.7
		c-0.7,1.5-1,3.1-0.6,4.7c0.5,2.1,1.6,4,3.3,5.5c-0.6,0.4-1.5,0.3-2-0.1c-0.7-0.6-1.4-1.9-2.2-3.8c-0.1-0.3-0.3-0.6-0.4-0.9
		c-0.1,0.2-0.3,0.5-0.4,0.7c-1.1,1.7-1.5,3.6-1.3,5.5c-1.1-1.8-1.1-3.6-1-6.1c0-0.4,0-0.9,0-1.4v-1l-0.7,0.3
		c-1.8,0.8-2.3,1.4-2.7,3.4c-0.4-3.5,1.2-4.8,2.8-6.1c0.8-0.6,1.5-1.3,2-2.1c1.9-3-0.4-8.3-2.8-13.9c-0.7-1.8-1.1-3.7-1.4-5.6
		c0-0.2,0-0.4-0.1-0.5l-0.4-0.1H638h-0.1c-8-2.1-11,5.2-11.4,9.4c-0.4,2.2-0.2,4.4,0.6,6.5c0.2,0.7,0.5,1.4,0.7,2.4v0.2l0.1,0.1
		c2.1,2.9,4.3,3.2,6.7,2.4c-0.8,1.4-1.7,2.3-2.7,2.5s-1.8-0.2-2.7-1.1l-0.4-0.4l-0.3,0.4c-0.6,1-1.3,1.9-2.1,2.8
		c-0.6,0.6-1.1,0.9-1.5,0.7c-1-0.4-1.9-3.3-2.4-5.4l-0.9,0.1c0.2,2.8-0.3,3.7-1.9,5.8c-0.3-0.9-0.8-1.7-1.4-2.4
		c-1.1-1.4-1.9-2.9-2.4-4.4c0,0,0-0.1,0-0.1l-0.9,0.4v0.1c0.2,0.7-0.3,1.3-1,2.2c-0.3,0.3-0.5,0.6-0.7,0.9c-0.3-0.3-0.5-0.6-0.7-0.9
		c-1.4-1.6-2.4-3.5-2.8-5.4l-0.9,0.2c0.1,0.3-0.4,0.5-1,0.7c-0.6,0.2-1.2,0.5-1.5,1.1c-1.3-0.8-2.1-2.1-2.1-3.5
		c-0.1-1.2-0.5-2.4-1.3-3.4c-0.3-0.4-0.7-0.6-1.2-0.6c-0.9,0-1.5,1.1-2.2,2.2c-0.3,0.5-0.6,1-1,1.5l-0.2,0.2l0.1,0.3
		c0.4,2.4-0.2,2.9-1.6,3.1l-0.2,0.1c-1.4,1.3-2.3,3.1-2.3,5c-1.7-2.3-2-5.2-0.8-7.7l0.1-0.3l-0.1-0.3c-0.2-0.5-0.2-1.1-0.1-1.7
		c0.3-0.8,1.3-1.4,2.7-1.5h0.1l0.1-0.1c0.2-0.2,0.5-0.4,0.8-0.6c0.9-0.4,1.5-1.1,1.8-1.9l0.4-1.2l-0.9,0.1c-1.2,0.3-3-0.2-4.8-0.8
		c-0.8-0.3-1.7-0.5-2.5-0.7l-0.3-0.1l-0.1,0.3c-0.3,0.8-0.7,1.3-1.1,1.3c-0.4,0-0.8-0.3-1.1-0.8c-0.1-0.3-0.2-0.6-0.3-0.9l-0.1-0.4
		l-0.3-0.1c-1-0.4-2.8-1.2-4.8,0.4c0-1.8,0.3-3.1,1.1-3.8c1-0.8,2.5-0.9,3.6-0.2l0.4,0.2c0-0.2,0.1-0.3,0.1-0.5
		c0.1-0.5,0.4-0.9,0.7-1.3c0.3-0.3,0.5-0.6,0.8-0.9l-1.1-0.2c-0.3-0.1-0.6-0.1-0.9-0.2c-0.8-0.3-1.6-0.4-2.4-0.1
		c-0.3-1.5-0.1-2.6,0.5-3.3c0.7-0.7,1.9-0.8,2.7-0.3l0.3,0.2l0.2-0.3c0.8-1.4,1.3-1.5,3.1,0l0.6-0.9c-1.1-1.5-2.7-2.8-4.6-3.5
		c0.1-0.5,0.5-0.8,1-1c1.3-0.4,3.2,0.7,4.3,1.6c0,0.1,0,0.2,0,0.2c0,0.3,0,0.6,0,0.9l0.6-0.3l0.8-0.3l0.3-0.1c0.4-0.2,0.8-0.2,1,0.1
		c0.4,0.5,0.8,1.9,0.5,4.6c0,0.1,0,0.3,0,0.4l0.3,0.3c1.1,1,2.1,2.2,3,3.4c0.5,0.7,1.1,1.4,1.8,2.4l0.2,0.2h0.2
		c2-0.3,7.8,1.5,12.5,2.9c1,0.3,2,0.6,2.9,0.9l0.3,0.1l0.2-0.2c1.4-2.1,1.1-3,0.2-4.7c-0.1-0.2-0.3-0.5-0.4-0.7
		c-1.1-2.5-2.2-5.6-1-8.1l-0.7-0.9c-0.9,0.6-1.5,0.3-2.2-0.1c-0.7-0.4-1.7-0.9-2.8,0.3c-0.5-1.5-0.5-1.8,0-3.8
		c0.1-0.4,0.2-0.8,0.3-1.3l-0.8-0.7c-1.5,2.7-3.5,4.1-5.4,3.9c-0.9-0.1-1.6-0.6-2.2-1.2c2.7,0.9,3.4-0.6,4.2-2.2
		c0.6-1.4,1.3-2.8,3.3-3.2l0.6-0.1l-0.2-1.2c-0.2,0-0.4,0.1-0.6,0.1c-2.4,0.5-4.8-0.3-6.3-2c-1.4-1.7-2.2-3.7-2.4-5.9
		c2,3.3,3.7,3.8,5.3,4.2c0.9,0.2,1.8,0.6,2.4,1.2l0.6-0.8c-1.5-2.5-2.1-4.9-1.6-6.6c0.3-1.2,1.3-2.1,2.6-2.4
		c-0.6,1.2-0.9,2.5-0.9,3.7c0,1.4,0.6,2.7,1.6,3.7c4.3,4.1,7.1,1.7,9.5-0.4c0.6-0.5,1.2-1,1.9-1.5c2.9-1.9,7-0.6,9.5,2.8l0.2,0.3
		h0.2c1.7-0.1,3.4,0.1,5,0.6c0.8,0.2,1.6,0.4,2.5,0.6l0.5,0.1c0-0.2,0-0.4,0-0.7c-0.1-1.6-0.5-3.2-1.2-4.7c-1.5-3.1-4.2-4.3-6.9-5.5
		c-1.8-0.7-3.5-1.7-4.8-3c-2.6-2.7-4.6-5.8-5.8-9.2l-0.4-1l-0.4,0.8c-0.4,0.7-1,1.2-1.7,1.7c-0.5,0.4-1,0.8-1.7,1.3
		c0-0.2-0.1-0.5-0.2-0.8s-0.3-1-0.5-2h-0.9c0,0.2-0.1,0.4-0.2,0.6c-0.3,0.7-0.5,1.4-0.4,2.2c-2.2-0.6-4.1-1.9-5.3-3.7l-0.7,0.6
		c0.1,0.4,0.2,0.7,0.2,1.1c0,0.7,0.2,1.3,0.4,1.9c-2.1-0.3-2.8-1.5-3.8-3.9l-0.8,0.5c0.3,0.7,0.3,1.5,0.2,2.3
		c-0.1,0.7,0,1.5,0.2,2.2c-1-0.4-2.1-1.8-3.2-3.8l-0.8,0.6c0.2,0.4,0.3,0.8,0.3,1.3c0.1,1.1,0.5,2.2,1.1,3.1c-0.8,0-1.6-0.4-2.2-0.9
		c-1-1-1.6-2.2-1.8-3.6h-0.9c0.1,0.6,0,1.3-0.2,1.9c-0.2,0.6-0.3,1.2-0.2,1.8c-1-0.7-1.7-1.7-2.2-2.7l-1-2l0.2,2.3
		c0.1,1.6-0.1,1.9-0.6,2.6l-0.2,0.2c-0.3-0.7-0.7-1.9-1.4-3.6L592,629c0.4,1.9,0.7,3.6,0,5.3c-0.5-1.4-0.9-2.8-1.3-4.2l-0.9,0.2
		c0.7,3.6-0.3,5.6-2.4,8.2c0-0.8-0.2-1.6-0.4-2.3c-0.5-1.6-0.6-3.2-0.3-4.8c0.2-0.7,0.2-1.4-0.2-2.1c-0.5-0.6-1.3-0.3-2,0.1
		c-1.4,1-2.5,3.8-3.2,6l-0.1,0.2l0.1,0.2c0.6,2.4,0.6,3.1-0.6,4.9c-0.4,0.7-1,0.9-1.7,0.6l-0.3-0.1l-0.2,0.2c-0.8,1.1-1,2.9-1.1,4.7
		c-1.4-2.1-1.4-5.3-0.8-7l0.1-0.2l-0.1-0.3c-0.2-0.4-0.2-0.9-0.1-1.3c0.3-0.9,1-1.6,2-2l0.2,0l0.1-0.2c0.6-2,1-4,1.1-6.1l0.1-1.4
		l-0.8,0.7c-0.7,0.7-1.7,1.1-2.8,1c-0.6,0-1.2,0.1-1.8,0.2l-0.3,0.1v0.4c-0.2,2.5-0.7,3-2.8,2.8H571h-0.5h-0.1
		c-1.6,0.4-2.5,3-3.3,5.1c-0.9-2.6-0.7-5.4,0.8-7.8l0.1-0.2l-0.1-0.3c-0.2-0.7-0.2-1.4,0.1-2c0.8-1.2,3.2-0.7,4.4-0.5h0.1l0.1-0.1
		c0.5-0.4,1-0.7,1.6-1c1-0.5,2-1.1,2.9-1.8l0.9-0.7l-3.7-1.6h-0.1c-1.3,0.1-3-0.1-3.3-1.4l-0.1-0.3l-0.2-0.1
		c-1.1-0.7-2.5-0.8-3.7-0.2c0.1-1.2,0.7-2.4,1.7-3.2c0.8-0.5,1.9-0.4,2.6,0.3l0.3,0.2l0.2-0.3c0.2-0.4,0.8-0.5,1.2-0.3c0,0,0,0,0,0
		c1,0.6,1.7,1.6,1.9,2.7l0.1,0.3l0.3,0.1c2.3,0.9,4.6,1.6,6.9,2.1l0.2,0l0.1-0.2c1.4-1.7,3.3-1.8,5.2-1.9l0.9,0h0.2l0.1-0.2
		c1.5-2.3,7-6,11-8.6c1.8-1.1,3.5-2.3,5.2-3.7c0.2-0.2,0.4-0.3,0.5-0.5c0.2-0.2,0.3-0.3,0.5-0.4l0.2-0.2l-0.1-0.4
		c-0.3-1.5-0.9-2.9-1.8-4.2c-0.5-0.7-0.9-1.4-1.3-2.2c-1.3-2.6-1.5-3.2-1.3-5.4l-0.9-0.5c-0.1,0.1-0.1,0.2-0.2,0.3
		c-0.4,0.4-0.6,0.9-0.7,1.4c-0.7-1.8-1-3.6-0.7-5.5l-0.9-0.5c-0.2,0.4-0.4,0.8-0.6,1.2c-0.8-2.9-0.9-5.7,0.5-9.9l-0.9-0.6
		c-0.5,1.6-1.2,3.1-2,4.5c-0.1-2.1,0-4.1,0.3-6.2c0.2-1.4,0.4-2.9,0.5-4.8l-0.9-0.3c-0.2,0.9-0.5,1.8-1,2.7l-0.2,0.4
		c-0.2-2.2-0.2-4.4-0.2-6.6c0-0.7,0-1.4,0-2l-0.9-0.4c0,0-0.1,0.4-0.3,1c0-1.5-0.1-3.4-0.1-5.3l-0.9-0.2c0,0.9-0.2,1.8-0.5,2.6
		c-0.5-2.5-2.1-7.7-3.2-9.3c-0.8-1.3-2-1-3-0.8c-0.5,0.2-1,0.2-1.5,0.1l-0.4-0.2c-0.1,0.3-0.1,0.6-0.2,0.9c-0.2,1-0.4,1.9-0.7,2.1
		s-0.7-0.2-1.3-0.7l-0.2-0.2h-0.2c-2.5,0.5-4.3-0.7-5.5-3.7c1,0.5,2,0.9,3.1,1c0.4,0.1,0.8,0.2,1.2,0.3l0.5,0.2v-0.7
		c0-0.8,0.1-1.6,0.2-2.4c0-0.3,0.1-0.5,0.1-0.7c0.2-1.4,3.1-0.9,5.1-0.5c0.1-0.4,0.1-0.8,0.2-1.2c-1.8-1.2-1.7-2.8-1.6-4.4
		c0.1-0.7,0.1-1.4-0.1-2.1l-0.3-1.1l-0.5,0.7c-0.7,0.8-1.6,1.3-2.7,1.5c-0.3,0.1-0.7,0-0.9-0.2c-0.6-0.7-1-1.5-1.1-2.4l-0.1-0.3
		l-0.2-0.2c-1.1-0.7-2.5-1.1-3.9-1.1c1-1.4,2.5-2,3.4-1.4l0.4,0.3c0.1-0.2,0.1-0.4,0.2-0.5c0.1-0.3,0.3-0.6,0.6-0.8
		c0.6-0.2,1.4,0,2.4,0.8l0.8,0.6c-0.1-0.4-0.1-0.8-0.2-1.1c-0.2-0.7-0.2-1.4-0.1-2.1l0.1-0.3l-0.3-0.4c-0.8-1.3-1.1-1.6-3.4-2.6
		c0.4-0.6,1.2-1,1.9-1c1.4,0.1,2.7,1.5,3.1,2.1l0.2,0.2l0,0l0,0h0.2c1.1-0.1,2.6,1.8,3.2,4c0.2,0.5,0.3,1.1,0.5,1.6l0.4-1.5
		c0.1-0.4,0.2-0.9,0.3-1.4c0.1-0.6,0.3-1.2,0.6-1.7c0-0.1,0-0.1,0.1-0.2c0.2-1.6-0.1-3.2-0.9-4.6c0.9,0.6,1.7,1.4,2.3,2.3
		c0.5,0.7,0.8,1.5,0.9,2.4c0,0.1,0,0.2,0,0.3l0.2,0.2c0.4,0.5,0.7,0.9,1,1.4c0.9,1.5,0.8,3.4-0.3,6.5c-1.5,4,1.9,7.6,5.4,10.7
		c3.1,2.6,7.5,12.8,9.6,20.4c2.4,7.9,7.5,14.9,14.1,19.3c-0.1,1.4-1.2,3.5-3,5.7l-1,1.2l1.4-0.1c13.2-0.8,21.2,1.1,22,5.1
		c1,5.5,4,11.4,6.8,17.2c1.8,3.4,3.3,6.9,4.6,10.4c0.9,3.1,1.6,6.2,2.1,9.4l0.1,0.3c2.9,5.3,6.8,12.7,14.5,14.4l0.4,0.1
		c8.2,1.6,12.3-6.9,12.6-13.2c0.1-3.7-0.9-7.3-2.8-10.6c-1.5-2.3-3.3-3.7-5.4-4.1c-2.1-0.4-3.5,0.5-4.4,2.3
		c-0.7,1.6-0.7,3.5-0.1,5.1c0.3,0.8,0.9,1.4,1.7,1.9c-0.7,0.9-2,1.2-3,0.6c0,0-0.1,0-0.1-0.1c-1.5-0.9-2.2-2.9-2-5.5l0.2-1.9l-1,1.2
		c-1.4,1.7-4.7,5.8-2.9,10.9c-1.2-1.6-1.9-3.5-2-5.4c-0.2-2.9,0.6-6.6,3.7-8.3l1.6-0.8l-1.8-0.3c-1.8-0.2-3.4-1.2-4.3-2.6
		c-0.6-1.2-0.7-2.5-0.5-3.8c2.1,3.5,4.1,4.7,6.9,4.1l0.3-0.1c0-0.1,0-0.2,0.1-0.3c0.4-2.3,0.5-2.5,2.2-2.7l0.8-0.1
		c-0.2-0.3-0.4-0.6-0.6-0.9c-1.4-2.1-1.9-4.5-1.5-6.9c0.2-1.5,1.5-2.8,3.1-3.3c-0.9,2.1-1.1,4.4-0.6,6.6c0.3,1.5,1.2,2.9,2.5,3.8
		c0.6,0.4,1.3,0.8,1.9,1.2c2.7,1.7,5.6,3.4,7.2,9.1l0.9-0.1c0-12.8-4.7-19.5-13.1-31.5c-8.2-12-10-19-10.4-27.9
		c-0.5-12.9,3.8-21.2,11.5-22.4c1.5-0.2,2.7-0.4,3.8-0.5c4.7-0.6,5.6-0.7,7-6.2c0.7,1.2,1,2.6,0.9,3.9c-0.1,1.6-1,3-2.5,4l-1.4,1
		l1.7,0.2c2.6,0.3,3.4,3.2,4.1,5.3c0.1,0.2,0.1,0.5,0.2,0.6c0.4,2.2,1.8,4.1,3.7,5.5c1.8,1.2,4.3,0.9,5.7-0.7c0,0,0-0.1,0.1-0.1
		C692.5,565.5,692.1,566.7,691.3,567.1L691.3,567.1z M585.3,670.5c0.4-0.3,1-0.4,1.5-0.2c0.3,0.1,0.6,0.1,0.8,0.2h0.1
		c-0.1,0.1-0.1,0.2-0.2,0.3C586.8,670.5,586.1,670.4,585.3,670.5z"/>
	<path class="st3" d="M557.2,471.8c-3.5-1.9-7,3.9-5.4,9.7c-2.3-5.3-8-9.9-11.2-10.5c0,4.3,2.8,12.4,6.6,15.8
		c-4.5-2.9-9.1,0.8-8.2,5.6c1.2,5.7,5.4,5.2,6.8,4.5c-3.7-2.8-1.6-11.2,4.7-4.6v-6.7l1.9,0.3l3.3,0.6c-4.2-9,2.6-10.5,4-5.4
		C560.5,479.5,561.5,474.1,557.2,471.8z"/>
	<path d="M557.4,471.3c-1.6-0.8-3.3-0.3-4.6,1.3c-1.3,1.9-1.9,4.1-1.8,6.3c-2.8-4.4-7.4-8-10.4-8.5l-0.5-0.1v0.6
		c0,3.9,2.1,10.4,5.1,14.4c-1.9-0.5-3.9,0.1-5.1,1.4c-1.5,1.6-2,3.7-1.6,5.7c0.2,1.7,1.1,3.3,2.5,4.5c0.6,0.4,1.3,0.7,2,0.9
		c1,0.2,2,0.1,2.9-0.3l0.9-0.4l-0.9-0.7c-1-0.8-1.6-2-1.6-3.2c-0.1-1,0.3-1.9,1.1-2.6c1.1-0.6,2.8,0.1,4.7,2.1l0.7,0.8v-7.2l5.6,1
		c-0.2-0.3-0.3-0.7-0.5-1c-1.7-3.7-1.3-5.6-0.9-6.3c0.3-0.8,1.2-1.2,2.1-1c0,0,0,0,0,0c1.1,0.4,1.8,1.3,2,2.4l0.3,1.2l0.5-0.9
		c0.9-1.9,1.1-4.1,0.6-6.1C560.2,473.7,559.1,472.2,557.4,471.3z M559.6,479.8c-0.4-1-1.2-1.7-2.3-2.1c-1.3-0.3-2.6,0.3-3,1.4
		c-0.5,0.9-1,3,0.5,6.6l-4.8-0.9v6.2c-2.6-2.3-4.2-2-5-1.6c-1,0.6-1.6,2-1.6,3.6c0,1.2,0.5,2.4,1.3,3.5c-1.2,0.2-2.4,0-3.3-0.7
		c-1.1-1-1.8-2.2-2-3.6c-0.4-1.6,0.1-3.3,1.3-4.5c1-1.1,2.6-1.6,4.1-1.3c0.8,0.1,1.5,0.4,2.2,0.9c0.1-0.3,0.3-0.7,0.4-1
		c-3.3-3-6-10.2-6.3-14.5c3.2,0.9,8.2,5.3,10.4,10l0.8-0.4c-0.8-2.7-0.4-5.5,1.2-7.9c1.1-1.4,2.4-1.8,3.6-1.1
		c1.3,0.7,2.2,1.9,2.6,3.2C560,477,560,478.4,559.6,479.8L559.6,479.8z"/>
	<path class="st3" d="M569.4,501.1l-8.4-1.6v4.6c2.1,4,4.5,4.5,6.3,5.1c-0.5-2.5-0.5-5.6-3-8.5C566.2,501.7,567.6,502,569.4,501.1z"
		/>
	<path class="st3" d="M561,504.1v6.4C561.6,508.4,561.6,506.2,561,504.1z"/>
	<path d="M569.6,501.7c-0.1-0.4-0.1-0.8-0.2-1.2l-8.9-1.6v11.6l0.9,0.3c0.4-1.4,0.5-2.9,0.4-4.3c1.1,1.5,2.9,2.7,4.9,3.2l1.2,0.4
		c-0.1-0.3-0.1-0.6-0.2-0.9c-0.1-0.4-0.1-0.9-0.2-1.3c-0.2-2-0.8-4-1.8-5.8C567,502.5,568.5,502.3,569.6,501.7z M566.6,507.9
		c0,0.2,0,0.3,0.1,0.5c-1.7-0.5-3.5-1.2-5.2-4.4v-3.8l2.7,0.5c-0.1,0.2-0.1,0.3-0.2,0.5C566,503.5,566.3,505.7,566.6,507.9z"/>
	<path class="st3" d="M651.5,589.1c-0.2-2.8-0.5-5.1-2.2-7.1c2.8,1.4,3.6,1.3,5.1-2.3c-2.6,0.1-4.7-1.8-4.9-5.1
		c-0.2-3.4,1.3-6.7-1.5-9.2c1.3-1.1,1.5-2.5,1.7-4.9c-1.1,1.2-2.1,2.9-4.3,1.7c-0.9-4.6-3.2-9-7-9.4c0.9-2.1,1.1-2,0-5
		c-1.7,2.4-4.1,4.2-5.8,4.2c-1.9-0.1-4.7-1.2-5.4,0.6c-0.9,1.5-1.5,1.6-3.9,1.2c-2.3-0.4-3.6-0.1-4.5-0.6c-1.1-0.5-1.3,1.7,0.2,3.7
		c-0.4,2.4,0.4,4.5,0,5.8c-0.4,1.3-0.4,2.7,1.5,3.3l1.2,0.4c-0.2,1.5,0.2,3,1,4.4c-0.1,0-0.1,0-0.2,0c-3.2-0.3-9-6.4-7.5-12
		c-2.4,1.2-3.4,4.9-1.1,9.8c2.4,4.9,5.1,5.2,9,5.6c3.9,0.4,6.9,0.5,9.4,3.3c0,0.8-0.4,1.4-1.7,1.5c-1.9,0-3.7-0.2-5.6-0.6
		c-1-1.5-1.9-2.5-2.1-4.2c-0.4,1.1-0.6,2.3-0.5,3.5c-0.2-0.1-0.4-0.2-0.6-0.4c-1.3-1.1-1.9-1.8-1.7,0.5c0.2,2.5,0.2,5-1.1,6.2
		c1.9,0.9,1.5,0,3-1.4c3.2,1.5,8.1,2.7,10.5,1.2c-1.1,3.1-1.3,5.9-4.9,5.2s-4.7-0.4-5.8,2.5c-3,0-3.9,0.6-6.4,1.5
		c-2.6,0.9-5.8-0.3-8.1-1.3c0.9,2.9,3,5.9,5.6,6.4c-2.1,0.4-3,3.6-3.2,5.2c-0.2,1.9-2.1,3.2-4.7,3.8c4.3,1.1,6.4,0.1,10.1-4.7
		c3.8-5.1,3.2-2.4,6-2.7c-1.9,1.3-3.4,1.3-4.3,3.9c-1.1,2.6-1.3,3.6-3.2,3.5c2.8,3,4.7,2.9,5.8,0c0.9-2.9,3.2-4.7,5.4-4.5
		c-3,1.6-3,1.9-3,5c0,3.1-0.8,6.2-2.1,4.6c1.3,3.6,3,4.2,4.5,2.6c1.3-2,1.5-3.9,3-5.3c-1.3,2.5-2.6,5.9-3,6.9
		c-0.6,1.3-0.6,2.6-1.5,3.6c1.9,0.7,4.9,0.7,5.8-0.8c1.8-3.4,3-7,3.8-10.6c-0.4,2.7-0.7,5.5-0.8,8.2c-0.1,1.3-0.3,2.7-0.7,4
		c2.6,0.5,4.5-0.5,4.7-4.1c0.2-3.6,0-5,0.6-8.2c0,4.4,0.4,5.1,0.4,8.4s1.3,4.9,3.7,6.2c-1.1-3.3,0.6-3.8-0.6-7.6
		c-1.1-3.8-1.1-4.3-0.4-6.4c1.1,4.1,1.7,3.9,1.5,6.9c-0.2,3,2.6,6.6,6,6.2c-1.9-2.9-2.6-8.6-1.7-15.9c0.2,9.2,3.8,13,7.3,8.9
		c-2.6-1.3-3.4-3.2-2.8-8c1.9,2.9,4.1,2.5,4.5-0.8c-3-1.4-3.8-4.9-3.4-6.5c0.7-1.6,0.5-3.4-0.7-4.8c2.6,1.3,5.3,2.4,5.8-1.4
		C653.4,593,651.7,591.8,651.5,589.1z M623.4,570.8c0.5-1.5,0.7-3,1.1-3.8c0.6,0,1.2,0,1.7-0.3c1.9-1,2.8,0.5,4.5,0
		c-0.2,2-0.1,4,0.2,6C628.6,571.7,626,571.1,623.4,570.8L623.4,570.8z"/>
	<path d="M651.9,589.1c0-2-0.4-4-1.3-5.9c1.9,0.6,2.9-0.1,4.2-3.2l0.4-1h-0.9c-1.3,0-2.5-0.5-3.3-1.4c-0.7-0.9-1.1-2-1.1-3
		c0-0.9,0-1.9,0.1-2.8c0.2-2.1,0.4-4.4-1.3-6.4c1-1.2,1.2-2.7,1.4-4.8c0-0.6,0.1-1.1,0.1-1.7c-0.3,0.4-0.6,0.7-1,1l-0.4,0.4
		c-0.9,1-1.7,2-3.1,1.3c-0.8-4.1-3-8.5-6.7-9.4c0.6-1.5,0.6-2.1-0.4-4.7l-0.3-0.9l-0.5,0.7c-1.7,2.4-3.9,4.1-5.5,4
		c-0.5,0-1-0.1-1.5-0.2c-1.7-0.3-3.6-0.6-4.2,1c-0.7,1.3-1.2,1.4-3.5,1c-0.9-0.2-1.8-0.3-2.8-0.3c-0.6,0-1.1-0.1-1.6-0.3
		c-0.5-0.2-1,0-1.3,0.5c-0.3,1.3,0,2.7,0.9,3.8c-0.1,1.1-0.1,2.2,0.1,3.4c0.1,0.7,0.1,1.4,0,2c-0.3,0.9-0.3,1.8,0,2.6
		c0.3,0.8,1,1.4,1.9,1.6l0.7,0.2c-0.1,1.1,0.1,2.2,0.6,3.2c-1.7-0.6-4-2.5-5.4-5.1c-1-1.8-1.3-3.8-0.9-5.8c0.1-0.5,0.3-0.9,0.4-1.4
		l-1.1,0.5c-1.4,0.8-2.3,2.2-2.5,3.7c-0.3,2.4,0.1,4.8,1.3,7c2.3,4.9,5.1,5.5,8.6,5.9c-0.1,0.7-0.2,1.3-0.2,2l-0.1-0.1
		c-0.8-0.7-1.3-1.1-1.8-0.8c-0.5,0.3-0.4,1.1-0.3,2c0.2,2.4,0.2,4.7-0.9,5.7l-0.7,0.7l0.9,0.5c1.5,0.7,1.9,0.5,2.5-0.4
		c0.2-0.3,0.5-0.6,0.7-0.8c2.4,1.1,6.7,2.4,9.5,1.6c-0.7,2.4-1.3,4-4.1,3.5c-3.6-0.7-4.9-0.4-6.1,2.5c-1.7,0-3.3,0.3-4.8,1
		c-0.4,0.2-0.9,0.3-1.5,0.5c-2.4,0.8-5.5-0.2-7.8-1.3l-0.8-0.4l0.3,1.1c0.7,2.4,2.3,5.1,4.5,6.3c-1.7,1.4-2.1,4.6-2.2,5
		c-0.2,1.5-1.8,2.7-4.4,3.4c0,0.4,0.1,0.8,0.1,1.2c4.5,1.2,6.7,0.1,10.4-4.9c2.5-3.3,2.9-3.1,3.7-2.8l0,0c-1.4,0.6-2.5,1.8-2.9,3.2
		l-0.3,0.8c-0.8,2-1,2.6-2.5,2.5l-1.3-0.1l1,1.1c1.6,1.8,3,2.5,4.2,2.4c1-0.2,1.7-1,2.3-2.5c0.3-1.1,0.9-2,1.7-2.8
		c-0.2,1-0.3,1.9-0.3,2.9c0,2.4-0.5,4.3-1,4.5c0,0-0.1,0.1-0.4-0.2l-0.7,0.6c0.7,2,1.6,3.3,2.7,3.7c0.6,0.2,1.4,0.1,1.9-0.3
		l-0.1,0.2c-0.3,0.5-0.5,1.1-0.6,1.7c-0.1,0.6-0.4,1.3-0.8,1.8l-0.7,0.8l1,0.3c0.4,0.1,0.7,0.2,1.1,0.3c1.9,0.4,4.3,0.2,5.1-1.3
		c0.9-1.6,1.6-3.3,2.3-5.1c-0.1,0.8-0.1,1.4-0.1,2.1c-0.1,1.3-0.3,2.6-0.6,3.8c-0.1,0.3-0.2,0.5-0.2,0.8l0.7,0.1
		c3.1,0.6,5-1,5.2-4.5c0-0.6,0.1-1.2,0.1-1.7c0,0.5,0,1,0,1.7c0,4.1,1.9,5.8,4,6.9l1,0.5c-0.1-0.4-0.3-0.8-0.4-1.3
		c-0.3-1-0.4-2.1-0.2-3.1c0.1-0.4,0.1-0.9,0.1-1.5c0.3,0.7,0.6,1.4,1.1,2c1.3,1.7,3.2,2.6,5.1,2.4l0.8-0.1l-0.6-0.9
		c-1.4-2-2-5.7-1.9-10.3c0.6,2.6,1.6,4.5,2.9,5.4c1.5,1,3.1,0.6,4.6-1.2c0.2-0.2,0.4-0.4,0.5-0.7l-0.8-0.4c-2-1-2.9-2.3-2.6-6.2
		c0.9,1,1.8,1.4,2.7,1.3c1-0.2,1.7-1.4,2-3.1c0-0.2,0.1-0.4,0.1-0.6l-0.4-0.2c-1.3-0.6-2.2-1.7-2.7-2.9c-0.4-0.8-0.5-1.8-0.4-2.7
		c0.6-1.3,0.6-2.7,0.1-3.9c1.4,0.6,2.8,0.9,3.8,0.3c0.8-0.7,1.3-1.7,1.3-2.7l0.1-0.7l-0.5-0.1C653.2,592.3,652.1,591.2,651.9,589.1z
		 M640.1,615.6L640.1,615.6c-0.1-0.2-0.1-0.3-0.2-0.5c-0.7-2.5-0.9-3.5-0.8-4.4c0.2,0.6,0.3,1,0.5,1.4
		C640.1,613.2,640.2,614.4,640.1,615.6L640.1,615.6z M654.2,595.2c-1,0.7-2.7-0.1-4.3-0.9l-1.6-0.9l1.2,1.8c1,1.2,1.2,2.8,0.6,4.2
		c-0.2,1.3-0.1,2.5,0.4,3.7c0.5,1.4,1.5,2.6,2.9,3.4c-0.2,1-0.6,1.6-1.2,1.7c-0.7,0.2-1.6-0.4-2.4-1.6l-0.6-1c0,0.4-0.1,0.8-0.1,1.1
		c-0.6,4.5,0,6.8,2.3,8.3c-1.1,1-2.1,1.2-3,0.5c-1.7-1.1-2.7-4.7-2.8-9.5l-0.9-0.2c-0.8,6.8-0.3,12.2,1.3,15.5
		c-1.4-0.2-2.7-0.9-3.5-2c-0.8-1-1.2-2.2-1.1-3.4c0.2-1.4,0-2.8-0.6-4.2c-0.3-0.7-0.6-1.6-0.9-3l-0.4-1.7l-0.5,1.5
		c-0.7,2.3-0.7,3,0.4,6.9c0.5,1.2,0.6,2.5,0.3,3.8c-0.1,0.8-0.1,1.7,0,2.5c-1.8-1.2-2.4-2.7-2.4-5c0-1.6-0.1-2.6-0.2-3.6
		c-0.1-1.2-0.2-2.4-0.2-4.8l-0.9-0.3c-0.4,1.8-0.5,3.6-0.5,5.5c0,0.8,0,1.7-0.1,2.8c-0.2,2.6-1.4,3.9-3.6,3.7
		c0.3-1.1,0.4-2.3,0.5-3.4c0.1-2.5,0.4-5,0.8-7.5l0.1-0.6l-0.9-0.4c-0.8,3.6-2,7.2-3.8,10.5c-0.6,1-2.6,1.3-4.5,0.9
		c0.2-0.4,0.4-0.9,0.5-1.4c0.1-0.5,0.3-1,0.5-1.5c0.1-0.3,0.2-0.5,0.3-0.8c0.6-1.4,1.6-4.1,2.7-6.1l-0.7-0.9
		c-0.9,0.9-1.5,1.9-1.9,3.1c-0.3,0.8-0.7,1.5-1.1,2.2c-0.4,0.5-1.1,0.9-1.7,0.7c-0.7-0.4-1.2-1-1.4-1.7c0,0,0.1,0,0.1,0
		c1.1-0.4,1.5-3.1,1.5-5.5c0-2.9,0-3,2.8-4.5c-0.1-0.4-0.2-0.8-0.3-1.2c-2.4-0.2-4.9,1.9-5.7,4.8c-0.4,1.2-1,1.8-1.7,1.9
		c-0.7,0.1-1.5-0.2-2.4-1.1c1-0.4,1.5-1.4,2.1-2.9l0.3-0.8c0.3-1.2,1.3-2.3,2.6-2.8c0.5-0.3,1-0.5,1.5-0.8c-0.1-0.4-0.2-0.8-0.4-1.2
		c-0.6,0.1-1.1,0-1.7-0.2c-1.2-0.4-1.9-0.5-4.6,3.1c-2.7,3.6-4.6,5.1-7.2,5c1.5-0.6,2.5-1.9,2.7-3.4c0.2-1.6,1.1-4.4,2.9-4.8
		c-0.1-0.4-0.1-0.8-0.1-1.2c-2.1-0.4-3.8-2.6-4.7-4.8c2.4,0.9,5.2,1.7,7.5,0.9c0.6-0.2,1-0.4,1.5-0.6c1.5-0.7,3.2-1,4.8-1h0.3
		l0.1-0.3c1-2.5,1.8-2.9,5.3-2.2c3.5,0.7,4.1-1.6,5-4.2c0.1-0.4,0.3-0.8,0.4-1.3c0.2-0.6,0.4-1.1,0.6-1.7l-1.3,0.8
		c-2.1,1.4-6.8,0.3-10.1-1.2l-0.2-0.1L622,582c-0.4,0.3-0.7,0.7-1,1.1c-0.3,0.4-0.4,0.6-0.8,0.5c0.8-1.5,0.8-3.8,0.6-5.9
		c0-0.3,0-0.6,0-0.9c0.3,0.2,0.6,0.4,0.8,0.6l0.2,0.2c0.2,0.2,0.4,0.4,0.7,0.5l0.6,0.3v-0.8c0-0.6,0-1.1,0.1-1.7
		c0.3,0.7,0.7,1.3,1.2,1.9c0.2,0.3,0.4,0.5,0.6,0.8l0.1,0.2l0.2,0c1.9,0.4,3.8,0.6,5.7,0.6c1.1,0,2.1-0.8,2.1-1.8c0-0.1,0-0.2,0-0.2
		c0-0.1,0-0.2,0-0.3s-0.1-0.1-0.2-0.2c-2.4-2.6-5.1-2.9-8.5-3.3l-0.8-0.1c0-0.4-0.1-0.7-0.1-1.1c-0.2,0.3-0.4,0.6-0.5,1
		c-3.7-0.5-6.2-0.8-8.3-5.3c-1-1.9-1.4-3.9-1.1-6c0.1-0.8,0.5-1.6,1.1-2.3c-0.1,1.9,0.4,3.7,1.3,5.4c1.7,3.1,4.7,5.7,7,5.9h0.1h0.1
		l0.6,0.1c2.6,0.3,5,0.9,7.4,1.9l0.7,0.3c-0.1-0.3-0.1-0.7-0.2-1c-0.3-1.6-0.3-3.2-0.2-4.8c0-0.4,0-0.8,0-1.1v-0.9l-0.6,0.2
		c-0.6,0.1-1.2,0.1-1.7-0.1c-0.9-0.4-1.9-0.3-2.8,0.1c-0.5,0.2-1,0.3-1.5,0.2h-0.2l-0.1,0.2c-0.3,0.7-0.5,1.3-0.6,2
		c-0.1,0.5-0.3,1.1-0.5,1.7c-0.7-1.1-1-2.4-0.8-3.7c0-0.2,0.1-0.4,0.1-0.6l-0.9-0.3c-0.3-0.1-0.5-0.2-0.8-0.3
		c-0.5-0.1-1-0.5-1.2-0.9c-0.1-0.5-0.1-1,0.1-1.5c0.2-0.9,0.2-1.8,0-2.7c-0.2-1.1-0.2-2.2,0-3.3l0.1-0.3l-0.2-0.3
		c-0.7-0.7-1-1.7-0.9-2.6c0-0.1,0.1-0.1,0.2-0.1c0.6,0.3,1.3,0.4,1.9,0.3c0.9,0,1.8,0.1,2.7,0.3c2.4,0.5,3.3,0.3,4.3-1.5
		c0.4-1,1.9-0.8,3.4-0.5c0.5,0.1,1.1,0.2,1.6,0.2c1.6,0,3.8-1.4,5.6-3.7c0.5,1,0.5,2.1-0.1,3.1c-0.2,0.5-0.4,0.9-0.6,1.4l0.8,0.1
		c4.7,0.6,6.2,6.9,6.6,8.9l0.1,0.4l0.3,0.2c1.7,1,2.8,0.3,3.7-0.6c-0.1,1-0.5,2-1.3,2.8l-0.5,0.5l0.6,0.5c1.7,1.5,1.5,3.3,1.3,5.6
		c-0.1,1-0.1,2-0.1,3c0,1.4,0.5,2.8,1.4,4c0.7,0.9,1.9,1.6,3.1,1.8c-1.1,2.4-1.9,2.3-4.2,1.2l-0.4,1c1.5,1.8,1.7,3.7,2,6.6
		c0.2,2.6,1.5,4.2,3.9,4.9C655,594.3,654.7,594.8,654.2,595.2L654.2,595.2z M623.6,574.8l0.7,0.1c3.2,0.4,5.6,0.6,7.7,2.7
		c-0.1,0.3-0.4,0.6-1.3,0.7c-1.8,0-3.5-0.2-5.3-0.5c-0.1-0.2-0.3-0.4-0.4-0.6C624.3,576.4,623.9,575.6,623.6,574.8L623.6,574.8z
		 M630.3,571.9c-1.5-0.6-3-1-4.6-1.3c-0.5-0.1-1-0.2-1.6-0.3c0.1-0.4,0.2-0.8,0.3-1.2c0.1-0.5,0.3-1,0.4-1.5c0.6,0,1.1-0.1,1.6-0.3
		c0.7-0.4,1.5-0.4,2.3-0.1c0.5,0.2,1,0.3,1.5,0.3c0,0.1,0,0.1,0,0.2C630.1,569,630.1,570.4,630.3,571.9L630.3,571.9z"/>
	<path d="M631.2,563.5l-0.9-0.3c-0.3,2.5,1.9,6.2,3.2,7.6l0.5-0.9C632.7,568.6,631,565.4,631.2,563.5z"/>
	<path d="M645.5,574.3l-0.9,0.3c1.1,3.4,1.8,5.3,4.5,7.8c0.2-0.3,0.3-0.6,0.5-1C647.1,579.2,646.6,577.6,645.5,574.3z"/>
	<path d="M649.2,593.1c-0.8-1-1.3-2.1-1.6-3.3l-0.9,0.1c0.3,1.4,0.9,2.7,1.8,3.9c0.3,0.4,0.6,0.8,0.8,1.3l0.7-0.6
		C649.8,594,649.5,593.5,649.2,593.1z"/>
	<path d="M647,596.5c-0.2,0.3-0.4,0.6-0.5,0.9c1.4,1.5,3,4.4,2.4,9.3l0.9,0.4C650.6,601.3,648.4,598,647,596.5z"/>
	<path d="M644.8,598.9l-0.9,0.2c0.1,0.4,0.2,1.8,0.2,3.2c0,1.2,0.1,2.6,0.2,3.7l0.9,0c-0.1-1.1-0.1-2.4-0.2-3.6
		C645.1,601.3,645,600.1,644.8,598.9z"/>
	<path d="M626.5,592.1c-1.1,0-2.1,0.1-3.2,0.3c-0.8,0-1.6,0.4-2.1,0.9c-0.6,0.6-1.2,1-2,1.4c-2.5,1.7-3.7,2.2-6.5,2.5l0.2,1.2
		c2.9-0.3,4.2-0.9,6.8-2.6c0.8-0.4,1.5-0.9,2.1-1.5c0.4-0.5,1-0.7,1.7-0.7c1-0.2,2-0.3,3.1-0.3c1,0,2.1-0.1,3.1-0.2
		c-0.1-0.4-0.2-0.8-0.2-1.2C628.5,592.1,627.5,592.1,626.5,592.1z"/>
	<path d="M633.8,633.7l-0.6,0.8c2.7,3.6,6,9,6.5,14.2l0.9,0C640.1,643.1,636.6,637.5,633.8,633.7z"/>
	<path d="M621.7,627.3l-0.3,1.1c1,0.8,2.2,1.3,3.5,1.7c0.5,0.1,0.9,0.1,1.4,0.1l-0.1-1.2C624.8,629,624.2,628.9,621.7,627.3z"/>
	<path d="M581.7,537.3l-0.4,1.1c2.7,2.1,4.9,4.8,6.2,7.8l0.8-0.4C587,542.5,584.7,539.6,581.7,537.3z"/>
	<path d="M587.1,537.7c0.7,2.4,1.3,4.2,1.9,6l0.8-0.4c-0.6-1.7-1.3-3.5-1.9-5.9L587.1,537.7z"/>
	<path d="M677.7,567.5c-0.3,0.4-0.6,0.9-1,1.6l0.8,0.8c0.3-0.6,0.6-1,0.9-1.5c0.9-1.1,1.3-2.4,1.3-3.7l-0.9-0.2
		C678.8,565.6,678.4,566.7,677.7,567.5z"/>
	<path d="M678,579.5l-0.9-0.3c-0.5,4.7,0.2,8.4,4.8,11l0.3-1.1C678.1,586.7,677.6,583.9,678,579.5z"/>
	<path d="M628.8,555.2c-0.4,0.6-0.8,1.3-1.1,2l-1.5-0.3c0.9,1.3,2.6,3,5.1,2.9C632.2,558.1,629.9,556.8,628.8,555.2z"/>
	<path d="M630.2,556.1c-0.4-0.4-0.8-0.8-1.1-1.3c-0.1-0.2-0.3-0.4-0.4-0.6l-0.3,0.5c-0.4,0.6-0.7,1.2-1,1.8l-2.4-0.5l0.8,1.2
		c0.9,1.5,2.5,2.6,4.3,3.1c0.4,0.1,0.8,0.1,1.2,0.1h0.2l0.1-0.2C632.6,558.6,631.2,557.1,630.2,556.1z M631,559.3
		c-1.3-0.1-2.5-0.6-3.4-1.4l0.4,0.1c0-0.1,0.1-0.2,0.1-0.3c0.2-0.5,0.5-1,0.7-1.4c0.3,0.3,0.6,0.6,0.8,0.9
		C630.8,558.2,631.2,558.7,631,559.3L631,559.3z"/>
	<path d="M641.2,561c2,0.7,5.4,3.2,6.6,4.7c0.2-0.3,0.4-0.6,0.6-0.8c-1.3-1.7-4.9-4.4-7.1-5.1C641.2,560.2,641.2,560.6,641.2,561z"
		/>
	<path d="M662.7,679.1c-0.5-0.2-1.1-0.3-1.7-0.3c0,0.4,0.1,0.8,0.1,1.2c0.5,0,1,0.1,1.5,0.3c0.6,0.2,1.3,0.3,2,0
		c0,0.5-0.1,1-0.1,1.4c-0.1,1-0.2,2.1-0.1,3.1h0.9c-0.1-0.9-0.1-1.9,0.1-2.8c0.1-0.8,0.2-1.6,0.2-2.6v-1.2l-0.7,0.6
		C664.3,679.3,663.4,679.4,662.7,679.1z"/>
	<path d="M646.1,677.6c-1.2-1.2-1.9-2.7-2.1-4.3l-0.9-0.1c0.2,2,1.1,3.8,2.5,5.3c0.6,0.7,1.4,1.1,2.3,1.4c0.4,0.1,0.8,0.1,1.1,0
		l-0.3-1.2C648,678.9,647,678.5,646.1,677.6z"/>
	<path d="M595.5,669c0,0,0-0.1-0.1-0.2c-0.1-0.2-0.2-0.5-0.4-0.7c-0.5-1.4-1.4-2.6-2.6-3.7l-0.4,1.1c1,0.9,1.8,2,2.2,3.2l0.3,0.7
		c0.6,1.7,1.7,3.2,3.2,4.4c0.2-0.3,0.3-0.6,0.5-1C597,671.8,596,670.5,595.5,669z"/>
	<path d="M593.3,671.3c-0.7-1.6-2.1-3.2-4.9-1.7l0.5,1.2c2.4-1.3,3.2,0,3.7,1c0.4,1.2,1.4,2.2,2.7,2.8c0.2,0.1,0.4,0.2,0.6,0.3
		c0.1-0.4,0.2-0.8,0.3-1.1l-0.6-0.3C594.4,673,593.6,672.2,593.3,671.3z"/>
	<path d="M648.1,719.9l0.3,1.2c2.2-0.4,3.4-1.1,4.4-3.7l-0.9-0.7C651.1,719,650.1,719.5,648.1,719.9z"/>
	<path d="M652.1,722.9c-1.2,0.7-1.7,1.3-1.5,4.2l0.9,0c-0.2-2.4,0.2-2.6,1.1-3.1c1.2-0.9,2.2-2,2.7-3.3l-0.8-0.7
		C653.9,721.2,653.1,722.2,652.1,722.9z"/>
	<path class="st3" d="M576.4,593.1c-2.4-3.6-8.5-7.3-12.9-6.8c4.4-1.7,5.4-9.8,2-12.6c-3.9-3.6-6.3,1.1-6.8,2.9
		c3.9-1.2,7.6,7.7-0.5,8.5v9.5c8,3.7,4.4,11.6,0.5,8.6c0.5,2.3,2.9,7.8,6.8,5.7c3.4-1.9,2.4-10-2-13.6
		C567.9,597.5,574,595.7,576.4,593.1z"/>
	<path d="M565.5,585.6c1.7-1.6,2.5-4.2,2.5-6.5c0-2.6-0.8-4.8-2.3-6.1c-1.5-1.3-2.7-1.7-4-1.3c-1.9,0.6-3.1,2.9-3.5,4.4
		c-0.1,0.4-0.2,0.8-0.3,1.2l0.9-0.3c1-0.3,2.1,0.1,2.9,1.2c0.7,0.9,1,2,0.7,3.1c-0.2,1-1,2.6-4.4,2.9h-0.4v10.5l0.4,0.2
		c3.3,1.5,4.2,3.5,4.4,4.6c0.3,1-0.1,2.1-0.8,2.9c-0.7,0.7-1.9,0.7-2.7,0.1c0,0-0.1-0.1-0.1-0.1l-0.9-0.7l0.3,1.3
		c0.4,1.6,1.6,4.6,3.5,5.9c0.5,0.3,1,0.6,1.6,0.7c0.9,0.1,1.8,0,2.5-0.5c1.5-0.8,2.3-2.8,2.3-5.4c-0.1-2.6-0.9-5.2-2.5-7.4
		c4.1,1.1,9-0.4,11.3-2.9l0.3-0.4c-0.1-0.2-0.2-0.3-0.3-0.5C574.6,589.5,569.7,586.2,565.5,585.6z M563.6,594.5
		c-0.1,0.4-0.2,0.7-0.3,1.1c2.5,2.1,3.7,5.6,3.7,8.2c0,2.1-0.6,3.7-1.8,4.4c-1,0.6-2.3,0.6-3.2-0.1c-1.2-1.1-2.1-2.4-2.6-3.9
		c1,0.4,2.1,0.2,2.8-0.5c1.1-1.2,1.5-2.7,1.1-4.1c-0.5-2.4-2.3-4.4-4.7-5.5v-8.5c3.5-0.5,4.4-2.4,4.7-3.6c0.3-1.5-0.1-3.1-1-4.4
		c-0.6-0.9-1.6-1.6-2.8-1.7c0.5-1.1,1.4-2.4,2.6-2.7c1-0.3,2.1,0,3.2,1.1s1.8,2.7,1.8,4.8c0,2.6-1.2,5.7-3.7,6.7l0.3,1.2
		c4-0.4,9.6,2.8,12.1,6.1C573.1,595.4,567.5,596.6,563.6,594.5L563.6,594.5z"/>
	<path class="st3" d="M543.7,578.6c0.7,3.6,2,5.4,4.1,7.1c-3.7-1-5.4,1-6.8,2c1.5,1.8,3.2,4.4,6.8,4.4c-2.2,0.9-3.4,2.6-4.1,5.9
		c2.2-1.5,3.9-2.5,6.3-1.7v-13.9C547.7,582.1,545.9,580.9,543.7,578.6z"/>
	<path d="M544,578.1l-1.1-1.1c0.1,0.5,0.2,1.1,0.3,1.6c0.5,2.7,1.4,4.6,2.8,6.1c-1.8,0-3.5,0.7-4.7,1.8c-0.2,0.2-0.4,0.3-0.6,0.5
		l-0.5,0.4l0.8,1c1.2,1.5,2.6,3.3,5,3.9c-1.3,1.1-2.2,2.7-2.7,5.3c-0.1,0.5-0.2,1-0.3,1.5l1.1-0.7c2.1-1.4,3.7-2.4,6-1.7l0.5,0.2
		v-15.3h-0.5C547.7,581.5,546.1,580.3,544,578.1z M549.6,595.5c-1.9-0.4-3.4,0.2-5,1.2c0.7-2.2,1.7-3.3,3.5-4l-0.3-1.2
		c-3.1,0-4.6-1.9-6-3.6c0.1,0,0.1-0.1,0.1-0.1c1.3-1,2.9-2.2,5.9-1.4l0.2-1.1c-1.7-1.3-3-3-3.5-5c1.6,1.5,3.1,2.4,5,2.6V595.5z"/>
	<path class="st3" d="M702.4,714.5c-1.9-4.5-5.4-3.2-6.7-2v0.6c3.2,1.1,3.4,8.4-2.2,6.3c-0.8,2.7-1.8,5.3-3,7.8
		c3.4,5.4-0.4,8.3-2.8,5.6c-0.3,0.4-0.5,0.8-0.6,1.3c0.2,2.3,1.1,5.2,4.1,5.8c3.2,0.3,4.9-6.1,2.6-10.9c2.8,3.9,5.6,3.5,8.4,2.9
		c-0.9-3.8-1.7-7.3-5.6-9.1C700.9,723.4,704.1,718.4,702.4,714.5z"/>
	<path d="M702.7,719.8c0.8-1.8,0.9-3.7,0.1-5.5c-0.7-1.7-1.7-2.8-2.9-3.3c-1.6-0.5-3.4-0.2-4.5,0.9l-0.2,0.2v1.4l0.4,0.1
		c0.9,0.4,1.5,1.1,1.7,2c0.3,0.9,0.2,1.8-0.3,2.6c-0.6,0.9-1.9,1.1-3.4,0.5l-0.4-0.1l-0.1,0.4c-0.8,2.6-1.8,5.2-3,7.7
		c-0.1,0.1-0.1,0.2-0.2,0.4l0.2,0.4c1.3,2.1,1.6,3.9,0.8,5c-0.6,0.8-1.9,1-2.9-0.2l-0.3-0.4l-0.3,0.3c-0.3,0.4-0.6,0.9-0.7,1.4
		l-0.1,0.2v0.2c0.4,3.6,2,5.9,4.6,6.4l0,0c1.4,0.1,2.7-0.9,3.4-2.7c0.8-2.2,0.9-4.4,0.4-6.7c2.4,2.2,4.8,1.9,7.3,1.4l0.5-0.1
		l-0.1-0.6c-0.7-3-1.4-6.2-4-8.4C700.5,722.7,702,721.4,702.7,719.8z M696.6,722l-0.1,1.2c3.5,1.6,4.3,4.7,5.1,8
		c-2.6,0.5-5,0.5-7.5-2.8l-0.7,0.7c1.2,2.5,1.3,5.3,0.4,7.9c-0.6,1.5-1.6,2.3-2.6,2.2c-2.1-0.4-3.3-2.1-3.6-5
		c0.1-0.2,0.2-0.4,0.3-0.6c1.3,1.1,2.9,1.1,3.8-0.2c0.9-1.2,1.2-3.4-0.5-6.3c1.1-2.3,2-4.7,2.7-7.1c2.4,0.8,3.5-0.2,4-0.9
		c0.7-1.2,0.8-2.6,0.4-3.8c-0.3-1-0.9-2-1.9-2.6c0.9-0.7,2.2-0.9,3.3-0.5c1.1,0.6,1.9,1.5,2.2,2.6c0.6,1.4,0.5,2.9-0.1,4.3
		C701,720.8,699.1,722.4,696.6,722z"/>
	<path class="st3" d="M682.4,704.6c-0.8,2.4-0.6,5.1,0.4,7.4c-2.3-3.1-4.3-2.9-6-3.5c0.5,2.1,0.8,5.1,3.7,7.5
		c-2.1-0.7-3.7-0.4-5.6,1.1c2.4,0.5,3.9,1.1,6.4,4.2c2-2.9,3.5-6.4,5.1-9.5C683.7,709,683.2,707.4,682.4,704.6z"/>
	<path d="M682.8,704.5c-0.2-0.6-0.3-1.1-0.5-1.7c-0.1,0.5-0.3,1-0.4,1.6c-0.6,1.9-0.7,3.8-0.3,5.8c-1.1-0.9-2.4-1.6-3.8-1.9
		c-0.4-0.1-0.7-0.2-1.1-0.3l-0.7-0.2c0.1,0.5,0.2,1,0.3,1.5c0.3,2.1,1.1,4.1,2.4,5.8c-1.5-0.1-2.8,0.4-4.2,1.6l-1,0.8l1.3,0.3
		c2.2,0.5,3.6,1,6.1,4c0.1,0.1,0.2,0.3,0.4,0.4l0.3-0.4c1.4-2.2,2.7-4.4,3.7-6.7c0.5-0.9,0.9-1.9,1.4-2.8c0.1-0.2,0.2-0.3,0.2-0.4
		l-0.4-0.4C684.7,709.4,683.4,707,682.8,704.5z M684.5,714.3c-1,2.1-2.1,4.2-3.4,6.2c-2-2.3-3.3-3.1-4.9-3.6
		c1.2-0.8,2.8-0.9,4.2-0.3l0.3-1.1c-2.3-1.9-2.9-4.2-3.3-6.1l0.4,0.1c2,0.4,3.7,1.5,4.7,3l0.7-0.6c-0.8-1.7-1-3.5-0.7-5.3
		c0.6,2,1.7,3.8,3.2,5.4C685.3,712.7,684.9,713.5,684.5,714.3z"/>
	<path class="st3" d="M634.4,778.7l-0.4-0.1c-1.1,0.3-2.2,0.8-3.1,1.1l-0.5,0.1l-0.6-0.3c-0.9-0.7-2-1.6-3.1-2.3l-0.4-0.1
		c0.2,2.1-0.3,4.2-1.5,5.9c1.8-0.4,3-1.1,3.7-3.1c-0.2,3.3,1.1,5.3,1.8,7.1c0.7-1.5,2-3,1.8-6.4c0.5,1.9,1.9,3.6,3.9,4.6
		C634.9,782.8,634.2,781.2,634.4,778.7z"/>
	<path d="M634.8,778.8v-0.7l-0.9-0.2h-0.1c-0.7,0.2-1.4,0.4-2.1,0.7c-0.4,0.1-0.7,0.3-1,0.4l-0.4,0.1l-0.4-0.2
		c-0.3-0.2-0.7-0.5-1.1-0.8c-0.7-0.5-1.4-1.1-2.1-1.5l-1-0.2c0,0.2,0,0.4,0,0.7c0.2,2-0.3,3.9-1.4,5.6l-0.7,1.3l1.3-0.2
		c1.3-0.2,2.4-0.8,3.2-1.8c0.2,1.5,0.7,2.9,1.4,4.3c0.2,0.4,0.3,0.7,0.5,1l0.4,1l0.4-0.8c0.1-0.3,0.3-0.6,0.5-0.9
		c0.7-1.2,1.2-2.5,1.4-3.8c0.8,1.3,1.9,2.3,3.3,3.1l1.2,0.7l-0.7-1.5C635.3,782.6,634.7,781.2,634.8,778.8z M632.6,780.4l-0.9,0.1
		c0.1,1.8-0.3,3.6-1.3,5.1l-0.1,0.1l-0.1-0.2c-0.9-1.7-1.4-3.7-1.3-5.6l-0.9-0.5c-0.3,1.1-1,2-2.1,2.5c0.6-1.3,0.9-2.7,0.8-4.2
		c0.6,0.4,1.2,0.8,1.8,1.3c0.4,0.3,0.7,0.6,1.1,0.8l0.7,0.4l0.7-0.2c0.3-0.1,0.7-0.2,1.1-0.4c0.6-0.2,1.2-0.4,1.8-0.6
		c0,1.6,0.3,3.1,1,4.6C633.8,782.9,632.9,781.8,632.6,780.4L632.6,780.4z"/>
	<path class="st3" d="M711.5,515c-53.7-9.4-107.4-20.4-161-29.8c0,0.7,0,1.4-0.1,2.1c-0.1,0.7-2.2,72.1-0.4,134.5
		c1,37.4,12.9,76.2,33.3,109.6c13.2,21.7,33.9,45.5,47.6,49l0.3,0.1c6.3,1.2,22.8-7.5,37.8-22.8c15.2-15.4,40.7-50.1,41.7-106.6
		c1.1-69,0.8-133.2,0.8-133.9S711.5,515.7,711.5,515z M707.3,650.3c-0.9,55-25.8,88.6-40.6,103.7c-16.1,16.4-31.2,22.9-35.5,22.1
		H631c-9.7-2.5-28.3-19.5-45.2-47.2c-19.9-32.5-31.4-70.3-32.4-106.7c-1.6-56.2,0-119.8,0.3-132c51.5,9.1,102.9,19.6,154.4,28.6
		C708.2,530.7,708.3,588.6,707.3,650.3z"/>
	<path class="st3" d="M632.9,760c0.9-4.1-0.7-10.4-2.6-13.4c-1.8,2.3-3.3,8-2.6,12.4c-1.7-4.6-6.3-6.5-7.6-3.6
		c-1.8,3.7,1.3,6.7,2.4,7.4c-1.1-4,3.3-6.3,4.8,4.5c1,0.7,2,1.3,3,2c0.7-0.1,1.8-0.6,3-0.9c1.5-10.3,5.9-6.3,4.8-2.7
		c1.1-0.3,4.2-2.1,2.6-6.4C639.2,756,634.6,756,632.9,760z"/>
	<path d="M637.6,756.3c-1.5-0.2-3.1,0.4-4,1.5c0-4-1-8-3-11.6l-0.4-0.6l-0.4,0.4c-1.6,2-3,6.4-2.9,10.6c-0.9-1.5-2.3-2.7-4.1-3.2
		c-1.4-0.3-2.8,0.3-3.2,1.5c-0.7,1.3-0.8,2.8-0.4,4.2c0.5,1.7,1.6,3.1,3.1,4.2l0.9,0.6l-0.4-1.3c-0.3-0.8-0.2-1.6,0.2-2.3
		c0.2-0.3,0.6-0.4,0.9-0.2c0,0,0.1,0,0.1,0.1c0.4,0.2,1.9,1.5,2.7,7.1l0,0.4l3.3,2.3h0.1c0.5-0.1,1-0.2,1.5-0.4
		c0.5-0.2,1-0.3,1.5-0.4l0.3-0.1l0.1-0.4c0.8-5.4,2.2-6,2.7-6.1s0.7,0.1,1,0.6c0.4,0.7,0.5,1.6,0.2,2.4l-0.4,1.1l0.9-0.2
		c1.5-0.5,2.7-1.6,3.1-3c0.4-1.4,0.3-2.9-0.3-4.3C640.6,757.7,639.2,756.6,637.6,756.3z M640.5,762.8c-0.3,0.9-0.9,1.6-1.8,2.1
		c0-0.9-0.2-1.7-0.6-2.5c-0.3-0.7-1.1-1.1-2-1.1c-0.9,0.2-2.4,1.2-3.3,6.6c-0.4,0.1-0.9,0.3-1.3,0.4c-0.4,0.1-0.8,0.3-1.3,0.4
		l-2.6-1.8c-0.8-5.7-2.4-7.4-3.3-7.9c-0.6-0.4-1.5-0.3-1.9,0.2c0,0,0,0-0.1,0.1c-0.5,0.7-0.7,1.4-0.6,2.2c-0.8-0.8-1.4-1.7-1.7-2.7
		c-0.3-1.1-0.2-2.2,0.4-3.1c0.3-0.8,1.3-1.3,2.2-1.1c0,0,0.1,0,0.1,0c1.5,0.3,3.4,1.8,4.4,4.5l0.9-0.2c-0.7-3.9,0.5-9,2.1-11.4
		c1.7,3.2,2.9,8.7,2.1,12.2l0.9,0.6c0.8-2,2.5-3.1,4.3-2.8c1.2,0.2,2.2,1,2.6,2C640.7,760.6,640.8,761.7,640.5,762.8L640.5,762.8z"
		/>
	<path class="st3" d="M703.5,521.5c-48.6-8.6-97.2-18.5-145.7-27.1c0,0.7,0,1.4-0.1,2.1c-0.1,0.7-1.9,67.9-0.4,126.7
		c1.2,35.9,11.4,71.2,30.1,103.1c12,20.4,30.7,42.7,43.1,46l0.3,0.1c5.3,1,18.9-6.1,32.2-19.6c14.5-14.7,38.9-47.8,39.8-103
		c1-65,0.8-125.5,0.7-126.1C703.5,523,703.5,522.2,703.5,521.5z M699.4,649.1c-0.9,53.5-24.6,85.7-38.7,100
		c-14.6,14.8-26.9,19.6-30,18.8c-8.7-2.2-25.5-18.1-40.7-44c-18.1-31-28.1-65.3-29.2-100.2c-1.4-52.8,0-112.4,0.3-124.3
		c46.4,8.3,92.7,17.6,139.1,25.9C700.2,536.8,700.3,591.2,699.4,649.1z"/>
	<path class="st3" d="M569.7,704c-1.2-2.9-2.2-5.9-3-8.9c-5.6,0.1-5.4-7.1-2.2-7.1v-0.5c-1.3-1.6-4.7-4.2-6.7-0.4
		c-1.7,3.3,1.5,9.5,5.8,10.3c-3.9,0.4-4.7,3.6-5.6,7.1c2.8,1.6,5.6,3,8.4,0.1c-2.4,4-0.6,11,2.6,11.9c3,0.6,3.9-2.1,4.1-4.3
		c-0.2-0.5-0.4-1-0.6-1.5C570.1,712.4,566.2,708.1,569.7,704z"/>
	<path d="M572.8,710.3l-0.3-0.4l-0.3,0.2c-1,0.8-2.3,0.1-2.9-0.9c-0.8-1.4-0.5-3.1,0.8-4.7l0.2-0.3l-0.2-0.4c-1.2-2.9-2.2-5.8-3-8.8
		c-0.1-0.2-0.1-0.3-0.1-0.5h-0.4c-1.4,0.1-2.8-0.6-3.5-1.7c-0.4-0.9-0.5-1.8-0.3-2.7c0.3-0.9,0.9-1.4,1.7-1.4h0.4v-1.4l-0.2-0.2
		c-0.8-1-2.6-2.6-4.5-2.6c-1.2,0-2.2,0.8-2.9,2.2c-0.8,1.8-0.7,3.8,0.1,5.6c0.7,2,2.2,3.7,4.1,4.9c-2.6,1.2-3.4,4.2-4,6.9l-0.1,0.6
		l0.5,0.3c2.5,1.4,4.9,2.6,7.3,1.3c-0.5,2.3-0.4,4.6,0.4,6.8c0.8,2.2,2,3.6,3.5,4c2.6,0.5,4.2-1.2,4.5-4.7v-0.2l-0.1-0.2
		C573.3,711.4,573.1,710.8,572.8,710.3z M569.1,715.8c-1.1-0.3-2.1-1.4-2.7-3.2c-0.8-2.2-0.9-5.4,0.4-7.7c-0.2-0.3-0.5-0.6-0.7-0.9
		c-2.4,2.4-4.8,1.6-7.5,0.1c0.8-3,1.6-5.8,5.1-6.1c0-0.4-0.1-0.8-0.1-1.2c-2.5-0.5-4.4-2.8-5.3-4.9c-0.7-1.4-0.7-2.9-0.1-4.4
		c0.6-1.1,1.3-1.7,2.2-1.8c1.3,0,2.6,1,3.3,1.8c-0.9,0.3-1.6,1.1-1.8,1.9c-0.4,1.3-0.3,2.8,0.4,4c0.7,1.4,2.2,2.3,4,2.3
		c0.8,2.6,1.6,5.4,2.7,8.1c-1.4,1.8-1.7,4.1-0.6,6c0.9,1.6,2.5,2.2,3.8,1.6c0.1,0.2,0.2,0.5,0.3,0.7
		C572.3,714.9,571.1,716.2,569.1,715.8L569.1,715.8z"/>
	<path class="st3" d="M579.5,696.9c2.9-1.1,3.4-3.9,4-5.8c-1.7-0.2-3.7-1.2-6.1,0.8c1.2-2.1,1.3-4.1,0.7-7.2
		c-0.9,2.4-1.5,3.8-4.2,5.5c1.5,3.8,2.8,7.8,4.7,11.6c2.7-2,4.2-1.8,6.5-1.3C583.2,698,581.6,697.1,579.5,696.9z"/>
	<path d="M581.2,696.6c1.6-1.3,2.2-3.2,2.6-4.7l0.4-1.3l-0.7-0.1c-0.3,0-0.7-0.1-1.1-0.2c-1.3-0.4-2.6-0.3-3.9,0.2
		c0.5-1.9,0.5-3.9,0-5.8l-0.3-1.7c-0.2,0.5-0.4,1-0.6,1.4c-0.9,2.3-1.4,3.6-4,5.2l-0.4,0.2l0.2,0.5c0.4,1.1,0.9,2.2,1.3,3.4
		c1,2.8,2.1,5.6,3.4,8.3c0.1,0.2,0.2,0.4,0.3,0.5l0.4-0.3c2.6-1.9,4-1.7,6.3-1.3l1.3,0.3l-1-1.3
		C583.9,698.2,582.6,697.1,581.2,696.6z M578.6,700.9c-1.2-2.5-2.2-5.1-3.1-7.6c-0.4-1-0.7-1.9-1.1-2.9c1.6-1,2.7-2.3,3.4-3.9
		c0.3,1.7,0,3.4-0.9,4.9c0.2,0.3,0.5,0.6,0.7,0.9c1.8-1.5,3.3-1.2,4.8-0.9l0.4,0.1c-0.5,1.7-1.1,3.8-3.5,4.6l0.2,1.2
		c1.6,0.2,3.1,0.9,4.1,2.1C582,699.4,580.6,699.6,578.6,700.9z"/>
	<path d="M711.5,514.6c-53.7-9.5-107.5-20.7-161.2-30.3l-0.5-0.1c0,0.2,0,0.5,0,0.7c0,0.7-1.8,74.9,0,137.3c1,37,13,75.8,33.7,109.4
		c17.8,28.9,37.3,46.7,47.5,49.3l0.2,0c5.4,1,21.9-6.6,38.6-23.6c15.2-15.4,40.7-49.8,41.6-105.2c1.1-69,0.1-136.1,0.1-136.8
		C711.5,515,711.5,514.8,711.5,514.6z M710.2,651.9c-0.9,54.9-26.2,89-41.2,104.2c-9.6,9.8-18.1,15.5-23.6,18.6
		c-7.6,4.3-12.5,5.3-14.4,4.8c-9.9-2.5-29.2-20.1-46.7-48.6c-20.5-33.4-32.4-71.8-33.4-108.5c-1.7-59-0.2-128.7,0-136.5
		c53.2,9.5,106.4,20.6,159.5,30C710.5,523.3,711.3,586.8,710.2,651.9z"/>
	<path class="st3" d="M714.4,517.6c3.7-2.1,6.6-9.2,6.6-13.4c-3.3-0.6-8.9,2.1-11.2,6.5c1.6-5.2-1.9-12.2-5.4-11.6
		c-4.2,0.8-3.3,6.4-2.3,8.4c1.4-4.6,8.2-0.6,4,6.8l3.3,0.6l1.9,0.3v6.7c6.3-4.3,8.4,4.8,4.7,6.3c1.4,1.2,5.6,3.1,6.8-2.2
		C723.5,521.6,718.8,516.3,714.4,517.6z"/>
	<path d="M716.4,516.8c2.9-3,5.1-8.7,5.1-12.6v-0.6l-0.5-0.1c-3-0.5-7.6,1.4-10.4,4.8c0.1-2.4-0.5-4.8-1.8-7c-1.3-2.1-3-3.2-4.6-3
		c-1.6,0.3-2.9,1.5-3.2,2.9c-0.5,2.1-0.3,4.3,0.6,6.4l0.5,1.1l0.3-1.1c0.3-1.1,1.1-1.7,2-1.6c1,0.2,1.9,0.8,2.1,1.8
		c0.4,0.9,0.8,2.9-0.9,6l-0.5,0.9l5.6,1v7.2l0.7-0.5c1.9-1.3,3.6-1.5,4.7-0.4c0.8,0.8,1.2,1.9,1.1,3c0.1,1.1-0.5,2.1-1.6,2.6
		l-0.9,0.4l0.9,0.7c0.8,0.7,1.8,1.2,2.9,1.4c0.7,0.1,1.4,0.1,2-0.2c1.2-0.5,2.1-1.7,2.5-3.6c0.4-2.2-0.2-4.4-1.6-6.2
		C720.5,518.3,718.6,517.1,716.4,516.8z M722.2,525.8c-0.3,1.6-1,2.6-2,2.9c-1.1,0.3-2.4,0.1-3.3-0.5c0.8-0.8,1.3-1.9,1.3-3
		c0.1-1.5-0.5-3-1.6-4.2c-0.8-0.7-2.4-1.6-5-0.2v-6.2l-4.8-0.9c1.5-3.1,1-5.3,0.5-6.4c-0.6-1.4-1.8-2.4-3-2.5c-1,0-1.9,0.5-2.3,1.3
		c-0.4-1.4-0.4-2.8-0.1-4.2c0.3-1.2,1.3-2.1,2.6-2.3c1.2-0.2,2.6,0.7,3.6,2.4c1.5,2.5,1.9,5.5,1.2,8.3l0.8,0.7
		c2.1-4,7.1-6.6,10.3-6.4c-0.3,4.3-3,10.5-6.3,12.3c0.1,0.4,0.3,0.8,0.4,1.2c2.2-0.6,4.6,0.4,6.3,2.6
		C722,522.3,722.4,524,722.2,525.8L722.2,525.8z"/>
	<path class="st3" d="M699.6,537.2v-6.4C699,532.9,699,535.1,699.6,537.2z"/>
	<path class="st3" d="M696.3,526.3c-2.6,2-2.6,5-3.1,7.3c1.9,0,4.2,0.5,6.3-2.8v-4.6l-8.4-1.6C693,526.3,694.4,526.6,696.3,526.3z"
		/>
	<path d="M690.9,525.2c1,1,2.4,1.6,3.9,1.7c-1,1.6-1.7,3.3-1.8,5.2c-0.1,0.4-0.1,0.8-0.2,1.2l-0.2,0.8h1.2c1.5,0.1,3.2,0.1,4.9-1.5
		c-0.1,1.5,0.1,3,0.4,4.5h0.9v-11.5l-8.9-1.6L690.9,525.2z M696.4,526.3l2.7,0.5v3.7c-1.7,2.6-3.6,2.6-5.3,2.5l0.1-0.5
		c0.3-2.1,0.7-4.2,2.6-5.7L696.4,526.3z"/>
	<path class="st3" d="M699.5,603.2c-0.5-2-2.9-7.5-6.8-5.4c-3.4,1.6-2.4,10,2,13.3c-4.4-2.1-10.5-0.7-12.9,2
		c2.4,3.6,8.5,7.6,12.9,6.8c-4.4,2-5.4,9.8-2,12.9c3.9,3.6,6.3-1.1,6.8-3.2c-3.9,1.5-7.6-7.7,0.5-8.5v-9.5
		C691.9,608.2,695.6,600.6,699.5,603.2z"/>
	<path d="M695.7,606.8c-0.2-1,0-2.1,0.7-2.9c0.7-0.7,1.9-0.8,2.8-0.2c0,0,0.1,0,0.1,0.1l0.9,0.6c-0.1-0.4-0.2-0.9-0.3-1.3
		c-0.4-1.6-1.6-4.4-3.5-5.7c-1.1-0.9-2.8-0.9-4-0.2c-1.5,0.7-2.4,2.6-2.3,5.2c0.1,2.6,1,5.2,2.5,7.4c-4.2-1-9.1,0.4-11.3,2.8
		l-0.3,0.4l0.3,0.5c2.3,3.4,7.2,6.7,11.3,7.1c-1.7,1.8-2.5,4.1-2.5,6.5c-0.2,2.3,0.6,4.5,2.3,6.3c0.7,0.7,1.5,1.2,2.5,1.4
		c0.5,0.1,1.1,0.1,1.6-0.1c1.9-0.7,3.1-3.2,3.4-4.7c0.1-0.4,0.2-0.8,0.3-1.2l-0.9,0.4c-1,0.4-2,0-2.8-1c-0.7-0.9-1-2.1-0.8-3.2
		c0.2-1,1-2.7,4.4-3h0.4v-10.5l-0.4-0.2C696.8,609.8,695.9,607.8,695.7,606.8z M699.5,620.8c-3.5,0.5-4.5,2.5-4.7,3.7
		c-0.3,1.6,0.1,3.2,1.1,4.5c0.6,0.9,1.6,1.5,2.8,1.5c-0.5,1.2-1.4,2.5-2.6,3c-1,0.4-2.1,0-3.2-1c-1.3-1.4-2-3.2-1.8-5.1
		c0.1-2.5,1.2-5.6,3.7-6.8c-0.1-0.4-0.2-0.8-0.3-1.2c-3.9,0.7-9.5-2.6-12.1-6.1c2.5-2.3,8.1-3.5,12.1-1.6c0.1-0.4,0.2-0.7,0.3-1.1
		c-2.5-1.9-3.7-5.4-3.7-8c0-2.1,0.6-3.6,1.8-4.2c1-0.6,2.3-0.6,3.2,0.1c1.2,1,2.1,2.3,2.6,3.7c-1-0.3-2.2,0-2.8,0.7
		c-1,1.1-1.4,2.6-1,4c0.3,1.3,1.2,3.6,4.7,5.3V620.8z"/>
	<path class="st3" d="M720.1,621.2c-1.5-1.5-3.2-4-6.8-4.4c2.2-0.9,3.4-2.2,4.1-5.6c-2.2,1.5-3.9,2.2-6.3,1.4v13.9
		c2.4,0.1,4.1,1.7,6.3,4c-0.7-3.6-2-5.7-4.1-7.4C716.9,624.4,718.6,622.5,720.1,621.2z"/>
	<path d="M719.7,620c-1.2-1.5-2.8-2.7-4.7-3.5c1.4-1,2.3-2.6,2.8-5.1l0.3-1.5l-1,0.7c-2,1.4-3.7,2.1-6,1.4l-0.5-0.2v15.3h0.5
		c2.3,0.1,4,1.7,6,3.8l1,1.1l-0.3-1.6c-0.3-2.3-1.2-4.4-2.7-6.3c2.4,0.2,3.8-1.1,5-2.2l0.8-0.7l-0.5-0.6L719.7,620z M713.3,622.6
		c-0.1,0.4-0.2,0.8-0.3,1.1c1.8,1.4,3,3.2,3.5,5.2c-1.5-1.5-3-2.6-4.7-2.9l-0.3,0v-12.6c1.7,0.4,3.6,0.1,5-0.9
		c-0.4,1.7-1.7,3.1-3.5,3.8c0.1,0.4,0.1,0.8,0.2,1.2c3,0.3,4.6,2.1,5.9,3.5l0.1,0.2C718,622.3,716.4,623.6,713.3,622.6L713.3,622.6z
		"/>
	<path class="st3" d="M638.2,516.7c1.1,4-3.3,6.3-4.8-4.5l-3-2c-0.7,0.1-1.8,0.6-3,0.9c-1.5,10.3-5.9,6.3-4.8,2.7
		c-1.1,0.3-4.2,2.1-2.6,6.5c1.5,3.4,6.1,3.3,7.8-0.7c-0.9,4.1,0.7,10.4,2.6,13.4c1.8-2.3,3.3-8,2.6-12.4c1.7,4.6,6.3,6.5,7.6,3.6
		C642.4,520.4,639.3,517.4,638.2,516.7z"/>
	<path d="M638.3,516.1l-0.9-0.6l0.4,1.3c0.3,0.8,0.2,1.6-0.2,2.3c-0.2,0.3-0.6,0.4-0.9,0.2c0,0,0,0-0.1,0c-0.4-0.2-1.9-1.5-2.7-7.1
		c0-0.1,0-0.2,0-0.4l-3.3-2.3h-0.1c-0.5,0.1-1,0.2-1.5,0.4c-0.5,0.2-1,0.3-1.5,0.4l-0.3,0.1l-0.1,0.3c-0.8,5.4-2.2,6-2.7,6.1
		s-0.7-0.1-1-0.6c-0.4-0.7-0.5-1.6-0.2-2.4l0.4-1.1l-0.9,0.2c-1.5,0.5-2.7,1.6-3.1,3c-0.4,1.4-0.3,2.9,0.3,4.3
		c0.5,1.4,1.8,2.5,3.5,2.8c1.5,0.2,3-0.4,3.9-1.5c0,4,1,8,3,11.6l0.4,0.6l0.4-0.4c1.6-2,2.9-6.4,2.9-10.6c0.9,1.5,2.3,2.6,4.1,3.2
		c1.4,0.4,2.8-0.3,3.2-1.5c0.7-1.3,0.8-2.8,0.4-4.2C640.9,518.7,639.8,517.2,638.3,516.1z M640.1,523.7c-0.3,0.9-1.4,1.3-2.4,1
		c-1.5-0.3-3.4-1.8-4.4-4.5l-0.9,0.2c0.6,3.9-0.5,9-2.1,11.4c-1.7-3.2-2.9-8.7-2.1-12.2l-0.9-0.6c-0.8,2-2.5,3.1-4.3,2.8
		c-1.2-0.2-2.2-1-2.6-2c-0.4-1-0.5-2.1-0.2-3.2c0.3-0.9,0.9-1.6,1.8-2.1c0,0.9,0.2,1.7,0.6,2.5c0.3,0.7,1.1,1.1,2,1.1
		c0.9-0.2,2.4-1.2,3.3-6.6c0.4-0.1,0.9-0.3,1.3-0.4c0.4-0.2,0.8-0.3,1.3-0.4l2.6,1.7c0.8,5.7,2.4,7.4,3.3,7.9
		c0.6,0.4,1.4,0.3,1.9-0.2c0,0,0.1-0.1,0.1-0.1c0.5-0.7,0.7-1.4,0.6-2.2c0.8,0.8,1.4,1.7,1.7,2.7
		C640.7,521.7,640.6,522.8,640.1,523.7L640.1,523.7z"/>
	<path class="st3" d="M632.2,498.6c0.2-3.3-1.1-5.2-1.8-7.1c-0.7,1.5-2,3-1.8,6.4c-0.5-2-1.9-3.6-3.9-4.6c1.1,2.4,1.8,4,1.7,6.6
		l0.4,0.1c1.1-0.3,2.2-0.8,3.1-1.1l0.6-0.1l0.6,0.3c0.9,0.7,2,1.6,3.1,2.3l0.4,0.1c-0.2-2.1,0.3-4.1,1.4-5.9
		C634.1,495.8,633,496.6,632.2,498.6z"/>
	<path d="M632.6,496.6c-0.2-1.5-0.7-2.9-1.4-4.3c-0.2-0.4-0.3-0.7-0.5-1c-0.1-0.3-0.3-0.7-0.4-1c-0.1,0.3-0.3,0.6-0.4,0.9
		c-0.1,0.3-0.3,0.6-0.5,0.9c-0.7,1.2-1.2,2.5-1.4,3.8c-0.8-1.3-1.9-2.3-3.3-3l-1.2-0.7c0.2,0.5,0.5,1,0.7,1.5
		c1.1,2.3,1.8,3.8,1.6,6.2c0,0.2,0,0.4,0,0.7l0.9,0.2h0.1c0.7-0.2,1.4-0.4,2.1-0.7l1-0.3l0.4-0.1l0.4,0.2c0.3,0.2,0.7,0.5,1,0.8
		c0.7,0.5,1.4,1.1,2.1,1.5l1,0.2c0-0.2,0-0.5,0-0.7c-0.2-2,0.3-3.9,1.4-5.6l0.7-1.3l-1.3,0.2C634.5,495,633.4,495.7,632.6,496.6z
		 M634,500.6c-0.6-0.4-1.2-0.8-1.8-1.3c-0.4-0.3-0.7-0.6-1.1-0.8l-0.7-0.4l-0.7,0.2c-0.3,0.1-0.7,0.2-1.1,0.4
		c-0.6,0.2-1.2,0.4-1.8,0.6c0-1.6-0.4-3.1-1-4.6c1.2,0.9,2,2.1,2.3,3.4l0.9-0.1c-0.1-1.8,0.3-3.6,1.3-5.1l0.1-0.1l0.1,0.2
		c0.9,1.7,1.4,3.7,1.3,5.6l0.9,0.5c0.3-1.1,1-2,2.1-2.5C634.2,497.8,633.9,499.2,634,500.6L634,500.6z"/>
	<path d="M708.6,518.3c-51.6-9.2-103.1-19.9-154.7-29.1l-0.5-0.1v0.7c0,0.7-1.7,72.6,0,133.1c1,35.9,12.5,73.5,32.3,106.1
		c17.1,28,35.9,45.2,45.6,47.7l0.2,0c5.1,1,20.7-6.2,36.5-22.4c14.7-15,39.6-48.5,40.5-102.7c1.1-66.9,0.1-132,0.1-132.6
		C708.6,518.8,708.6,518.5,708.6,518.3z M707.3,651.5c-0.9,53.6-25.5,86.8-40.1,101.7c-9.1,9.3-17.1,14.7-22.3,17.6
		c-7.2,4.1-11.8,5-13.6,4.5c-9.5-2.4-28-19.4-44.8-47.1c-19.7-32.3-31.1-69.6-32.1-105.1c-1.6-57.2-0.1-124.6,0-132.3
		c51,9.2,102,19.7,153,28.8C707.5,526.9,708.4,588.4,707.3,651.5z"/>
	<path d="M703.7,521.5c-48.7-8.8-97.3-18.8-146-27.6c0,0.2,0,0.5,0,0.7c0,0.7-1.6,70.8,0,129.6c0.9,35,11.7,71.5,30.4,103.2
		c16,27.2,33.7,43.8,42.9,46.2l0.2,0c4.5,0.9,18.1-5.5,32.5-20.1c14.5-14.8,39-47.8,39.9-102.1c1-65.1,0.1-128.6,0.1-129.2
		C703.7,522,703.7,521.8,703.7,521.5z M702.4,651.2c-0.8,53.7-25.1,86.5-39.5,101.1c-14.2,14.4-27.8,20.9-31.9,19.9
		c-9-2.3-26.3-18.7-42.1-45.5c-18.5-31.4-29.2-67.6-30.1-102.2c-1.5-55.6-0.1-121.3,0-128.8c47.9,8.7,95.8,18.5,143.8,27.2
		C702.6,530,703.4,589.9,702.4,651.2L702.4,651.2z"/>
	<path d="M700.5,525.4c-46.6-8.5-93.3-18-139.9-26.5c0,0.2,0,0.5,0,0.7c0,0.7-1.5,68.3,0,125.1c0.9,33.8,11.2,69.1,29.1,99.6
		c15.4,26.2,32.3,42.3,41.1,44.6l0.2,0c4.3,0.8,17.2-5.2,30.8-19.1c14.1-14.3,37.7-46.3,38.5-99c1-62.9,0.1-124.1,0.1-124.7
		L700.5,525.4z M699.2,650.6c-0.8,52.2-24.3,83.9-38.2,98c-13.5,13.7-26.4,19.8-30.2,18.8c-8.6-2.2-25.2-18-40.3-43.9
		c-17.7-30.2-28-65.2-28.9-98.6c-1.4-53.7-0.1-116.9,0-124.3c45.9,8.4,91.8,17.7,137.7,26.1C699.4,533.7,700.2,591.5,699.2,650.6z"
		/>
</g>
</svg>
