<svg xmlns="http://www.w3.org/2000/svg" viewBox="0 0 1260 1012.04">
  <g>
    <path d="M0,90.08v920c212.06-137,424.12-88.94,636.19-42.71v-920C424.12,1.14,212.06-46.91,0,90.08Z" style="fill: #fdd500"/>
    <ellipse cx="1259.88" cy="462.05" rx="0.17" ry="650.3" style="fill: #fff"/>
    <path d="M636.19,47.37v920c207.85,45.32,415.71,88.89,623.56-45.24V2.13C1051.9,136.26,844,92.69,636.19,47.37Z" style="fill: #fff"/>
    <path d="M1159.26,176.14q-18.88,21.95-37.77,42.28-16.73-15.43-33.44-32,4.83,26.64,9.65,53.19-20.25,19.49-40.51,37.36,21.87-1.28,43.74-4.4,4.2,28.28,8.4,56.49,8.68-28.61,17.38-57.55,22.85-3.39,45.7-9.1-16.5-11.84-33-24.94Q1149.34,207,1159.26,176.14Z" style="fill: #0164bb"/>
    <path d="M635.1,53.73c-10-.18-65.19,50-70.06,61.16-4.68,23.83,5.53,196.69,10.31,210.82,24.53,14.67,67.22,28.77,93.83,27,14.47-43.53,30-182,26.81-199C692.06,137.09,645.94,59.28,635.1,53.73Z" style="fill: #d51516;fill-rule: evenodd"/>
    <path d="M700.82,152.74c-2.51-10.64-17.14-37.18-28.91-56.74-9.8-16.27-27.47-44.26-35.71-48.44a4.12,4.12,0,0,0-1.89-.49c-12.72-.23-68.59,51.93-73.76,63.85a6.73,6.73,0,0,0-.43,1.38c-4.84,24.62,5.26,199.36,10.65,215.26a7.72,7.72,0,0,0,3.13,4.14c16.1,9.64,40.67,19.41,63.62,24.43,11.79,2.57,23.16,3.87,32.74,3.22a4.22,4.22,0,0,0,3.62-3.19c14.57-43.84,30.55-184.13,27-203C700.88,153,700.85,152.88,700.82,152.74ZM665.45,346.17c-25,.63-63.25-12-86.12-25-4.7-25.78-13.32-178.77-9.51-202.88,2.47-4.4,14.4-17.25,31.25-32.25C619.87,69.34,631.19,62,635,60.62c10.57,9,52.24,78.4,56.13,93.9C693.67,170,679.18,300.85,665.45,346.17Z"/>
    <path d="M862.46,397c-78.89-9.25-175.66-33.56-267-55.17-91.3-22.09-177.13-41.46-234.11-52-30-5.61,6.64,140.19,54,147.65,130.37,20.69,251.73,62.27,385.76,88.42,36.47,6.63,37.69-38.84,44-58.14C851.51,448.2,877.34,400.91,862.46,397Z" style="fill: #d51516;fill-rule: evenodd"/>
    <path d="M863.08,390.57a4.26,4.26,0,0,0-.49-.1c-44.24-5.88-93.4-15-145.44-26.53-67.21-14.8-135.56-32.54-197.33-46.74C458,302.7,402.85,291.75,362,283.33h0c-5.31-1.1-9.84,1.25-12.75,6.54-8.58,15.67-1.1,55.16,10.73,86.33,7.19,19,27,63.36,55.27,67.83C541.24,463.71,660.56,504.6,801,532.44c.53.1,1,.19,1.58.27,32.2,4.82,39.38-27.94,44.15-49.43,1-4.72,2-9.18,3.11-12.51,1.56-4.79,4.49-11.65,7.59-18.93,10.83-25.43,17.61-43.06,13.41-53.9A11.46,11.46,0,0,0,863.08,390.57Zm-14.64,54.14c-3.22,7.54-6.27,14.65-8,20-1.29,4-2.36,8.77-3.48,13.84-4.71,21.21-10.06,45.47-35.69,40.79-140.38-27.81-259.7-68.71-385.76-88.43C399.63,428.39,382.24,406,369,370.87c-12.61-33.37-16.11-64.63-11.46-73.08a2.51,2.51,0,0,1,2.58-1.57,4,4,0,0,1,.73.1c41.14,8.42,96.52,19.38,158.45,33.91,61.93,14.21,130.41,32,197.74,46.83,51.86,11.51,100.85,20.59,144.93,26.47C863.27,409.94,852.92,434.26,848.44,444.71Z"/>
    <path d="M685.57,503.86c-34.19-13.26-125.71-31.4-148.75-39.11-25.3-8.93-16.48,64.08-30.59,159,57,19.31,59.46,8,89.91,3.2,32-5.39,89.7,19,101.72,3.55C708.66,616.64,708.94,513.36,685.57,503.86Z" style="fill: #d51516;fill-rule: evenodd"/>
    <path d="M686.25,497.5c-19.86-7.66-58.21-16.9-92-24.9-24.27-5.75-47.18-10.92-56.8-14.25-5-1.8-9.41-1.16-13,1.9-9.92,8.5-11.71,34.19-14.43,73-1.72,24.71-3.87,55.46-8.76,88.37a8.93,8.93,0,0,0,.9,5.28,6.44,6.44,0,0,0,3.51,3.27,276.35,276.35,0,0,0,32.5,9.09c20.06,4,29.73,1.45,41.74-1.79a152.38,152.38,0,0,1,17.68-3.91c13.59-2.31,32.29,1.09,50.37,4.35,24.47,4.42,45.59,8.09,53.74-2.3,10.14-13,11.36-76.07,2.12-110.53C699.72,509.86,693.84,500.59,686.25,497.5Zm7.8,127.91c-5.22,6.65-27.09,2.82-46.39-.67-18.73-3.38-38.11-6.91-52.91-4.38a161.15,161.15,0,0,0-18.38,4.07c-15.69,4.3-26.3,7-64.18-5.32,4.29-30.89,6.29-59.47,7.91-82.74,2.31-33,4.13-59,10.72-64.66.95-.81,2.42-1.61,5.39-.55h0c10.11,3.51,32.22,8.48,57.82,14.54,33.55,7.93,71.57,17.09,90.76,24.49,3.48,1.42,6.85,7.63,9.49,17.48C703.56,562.25,699.9,617.9,694.05,625.41Z"/>
    <path d="M656.8,633c-38.93-9-97.42,7.16-124.14.41-19.55-5.64-35.94-12.93-44.72.68-12.18,18.88-8.35,88.66-2.29,100.51,5.19,11,50.75,8.66,63,17,42,28,133.47,52.1,139.74,33.81,10.58-27.53,8.87-80.66,9.73-102.4C698.6,655.37,680.41,639.26,656.8,633Z" style="fill: #d51516;fill-rule: evenodd"/>
    <path d="M656.85,626.47c-21.25-4.91-48.14-2.56-71.89-.37C564.29,628,544.75,630,533,627c-2.63-.76-5.19-1.55-7.69-2.31-16.54-5.06-32.16-9.59-41.44,4.81-13.16,20.44-9.95,93.06-2.42,108.18,4.37,9.15,16.86,10.92,38.49,13.77,10.59,1.39,22.59,3.09,27,6,20.13,13.44,52.64,26.9,84.84,35,2.87.72,5.82,1.41,8.79,2.06,23.11,5.06,47.95,7.07,52.45-5.45,9-23.45,9.5-63.12,9.85-89.36.08-6,.15-11.25.31-15.3a1.09,1.09,0,0,0,0-.18C703.68,655.68,686.41,634.26,656.85,626.47Zm-167,105.3h0Zm202.85-34.44c-.33,25.18-.84,63.24-9,84.33a1,1,0,0,1-.06.16c-1.44,3.08-16.19,6.55-52.59-2.71-30.41-7.76-62.12-20.9-80.8-33.38-3.47-2.31-8.5-3.84-14.54-5-4.88-1-10.42-1.72-16.31-2.5-9.95-1.34-26.53-3.34-29.76-6.75-4.63-9.22-8.73-75.66,2.26-92.66,5.63-8.7,15.51-6.36,32.48-1.2,2.54.78,5.16,1.58,7.95,2.38,13.29,3.44,33.48,1.39,54.87-.57,23.18-2.13,49.52-4.35,69.32.17,13.81,3.66,36.89,13.86,36.45,42.14C692.89,686,692.82,691.22,692.74,697.33Z"/>
    <path d="M668.25,792.84c-60.24,1.24-114-41.28-142.39-49.22-10.77-3.1-27.73-3.23-31.35,4.85-14.75,31.35-17.19,103.28-18,134.59-1.53,60.33,86.91,63,210.22,89.2,15.83-12,31-21.74,44.16-47.22C743.74,901.08,704.57,792.23,668.25,792.84Z" style="fill: #d51516;fill-rule: evenodd"/>
    <path d="M694.26,974.8c14.69-11,28.56-21.42,40.93-45.43,9-16.91-1.87-59.35-16.73-90.86C702.64,805,684,785.86,667.33,786.17c-41,.93-79.8-19.63-108.14-34.19-12.87-6.63-24-12.28-33-14.85-8.1-2.36-30.37-5.38-36.14,7.37-16,34.11-18,112-18.61,137.51-.31,12.35,2.65,23.2,8.8,32.3,9.11,13.48,24.93,22.59,46.31,30,54.07,10.53,108.13,23,162.19,34.42a3.59,3.59,0,0,0,1-.52Q692,976.46,694.26,974.8ZM494.52,748.47h0ZM685.05,965.35c-18.57-3.69-36.13-7-53.12-10.24-70.9-13.76-126.9-23-144.46-48.81-4.18-6.2-6.1-13.44-5.88-22.18,1.68-66.47,7.51-110.8,17.33-131.64l0-.09c1.56-3.46,11.68-5.34,22.48-3.25,1.35.26,2.71.58,4.06,1,8.17,2.33,18.91,7.78,31.35,14.18,29.21,15,69.22,36.2,112.3,35.22,12.35-.24,27.64,16.47,40.92,44.66,15.88,33.73,21.46,67.35,16.5,76.61-11.37,22-24.46,31.86-38.32,42.19Z"/>
  </g>
</svg>
