<svg xmlns="http://www.w3.org/2000/svg" viewBox="0 0 1260 1012.04">
  <g>
    <path d="M0,90.08v920C420,738.76,840,1193.28,1260,922V2C840,273.28,420-181.24,0,90.08Z" style="fill: #fff"/>
    <path d="M37.8,895.58C168,720.3,298.2,610.59,428.4,523.2,298.2,506.32,168,511.77,37.8,582.78Z" style="fill: #002373"/>
    <path d="M504,884.79V590.39C382.2,666.17,260.4,754.16,138.6,889.76,260.4,852.29,382.2,862.44,504,884.79Z" style="fill: #002373"/>
    <path d="M579.6,899.92c214.2,45.54,428.4,106.17,642.6-10.65C1008,901.83,793.8,736.92,579.6,587.12Z" style="fill: #cd0019"/>
    <path d="M604.8,868.54C760.2,902.22,915.6,939.87,1071,908c-155.4-41.7-310.8-153-466.2-260.23Z" style="fill: #fff"/>
    <path d="M579.6,439.92q18.9,31.62,37.8,63.36-18.9,23.47-37.8,47c205.8,43.75,411.6,101.44,617.4,2.28q15.75-35.19,31.5-71.62-15.75-18.75-31.5-38.78C991.2,541.36,785.4,483.67,579.6,439.92Z" style="fill: #cd0019"/>
    <path d="M617.4,466.48l25.2,42.29-25.2,31.31c189,41.15,378,85.25,567,0q12.6-24.09,25.2-49-12.6-11.92-25.2-24.65C995.4,551.73,806.4,507.63,617.4,466.48Z" style="fill: #f8d80e"/>
    <path d="M37.8,472.38c130.2-71,260.4-76.46,390.6-59.58C298.2,291.65,168,192.83,37.8,159.58Z" style="fill: #002373"/>
    <path d="M504,369.59V75.19c-121.8-22.35-243.6-32.5-365.4,5C260.4,140.82,382.2,249.1,504,369.59Z" style="fill: #002373"/>
    <path d="M579.6,403.12C793.8,344.39,1008,300.76,1222.2,79.67,1008,196.49,793.8,135.86,579.6,90.32Z" style="fill: #cd0019"/>
    <path d="M604.8,353.34C760.2,313.42,915.6,277.47,1071,172c-155.4,31.9-310.8-5.75-466.2-39.43Z" style="fill: #fff"/>
  </g>
</svg>
