<?xml version="1.0" encoding="utf-8"?>
<!-- Generator: Adobe Illustrator 24.2.0, SVG Export Plug-In . SVG Version: 6.00 Build 0)  -->
<svg version="1.1" id="Layer_1" xmlns="http://www.w3.org/2000/svg" xmlns:xlink="http://www.w3.org/1999/xlink" x="0px" y="0px"
	 viewBox="0 0 1260 1260" style="enable-background:new 0 0 1260 1260;" xml:space="preserve">
<style type="text/css">
	.st0{fill:#FFFFFF;}
	.st1{fill:#002373;}
	.st2{fill:#CD0019;}
	.st3{fill:#F8D80E;}
</style>
<g>
	<path class="st0" d="M63,294.7v736c378-217.1,756,146.6,1134-70.5v-736C819,441.3,441,77.7,63,294.7z"/>
	<path class="st1" d="M97,939.1c117.2-140.2,234.4-228,351.5-297.9c-117.2-13.5-234.4-9.1-351.5,47.7V939.1z"/>
	<path class="st1" d="M516.6,930.5V695C407,755.6,297.4,826,187.7,934.5C297.4,904.5,407,912.6,516.6,930.5z"/>
	<path class="st2" d="M584.6,942.6c192.8,36.4,385.6,84.9,578.3-8.5c-192.8,10-385.6-121.9-578.3-241.7V942.6z"/>
	<path class="st0" d="M607.3,917.5c139.9,26.9,279.7,57.1,419.6,31.6C887,915.7,747.2,826.7,607.3,740.9V917.5z"/>
	<path class="st2" d="M584.6,574.6c11.3,16.9,22.7,33.8,34,50.7c-11.3,12.5-22.7,25.1-34,37.6c185.2,35,370.4,81.2,555.7,1.8
		c9.4-18.8,18.9-37.9,28.3-57.3c-9.5-10-18.9-20.3-28.3-31C955.1,655.7,769.9,609.6,584.6,574.6z"/>
	<path class="st3" d="M618.7,595.8l22.7,33.8l-22.7,25c170.1,32.9,340.2,68.2,510.3,0c7.6-12.8,15.1-25.9,22.7-39.2
		c-7.6-6.4-15.1-12.9-22.7-19.7C958.9,664,788.8,628.8,618.7,595.8z"/>
	<path class="st1" d="M97,600.6c117.2-56.8,234.4-61.2,351.5-47.7C331.4,456,214.2,376.9,97,350.3V600.6z"/>
	<path class="st1" d="M516.6,518.3V282.8c-109.6-17.9-219.2-26-328.9,4C297.4,335.3,407,421.9,516.6,518.3z"/>
	<path class="st2" d="M584.6,545.2c192.8-47,385.6-81.9,578.3-258.8c-192.8,93.5-385.6,45-578.3,8.5V545.2z"/>
	<path class="st0" d="M607.3,505.3c139.9-31.9,279.7-60.7,419.6-145.1c-139.9,25.5-279.7-4.6-419.6-31.5V505.3z"/>
</g>
</svg>
