<svg xmlns="http://www.w3.org/2000/svg" viewBox="0 0 1260 1012.04">
  <g>
    <path d="M0,90.08v920C420,738.76,840,1193.28,1260,922V2C840,273.28,420-181.24,0,90.08Z" style="fill: #fff"/>
    <path d="M0,90.08v920c105-67.83,210-90.3,315-90.08V0C210-.22,105,22.25,0,90.08Z" style="fill: #00549f"/>
    <path d="M472.45,452.88c10.34,226,140.28,347,157.32,352.74,17,3,147-64.6,157.32-289.77v-278c-104.88-17.24-209.76-45.77-314.64-63Z" style="fill: #fff"/>
    <path d="M518.68,328.64q-10.11,15.23-20.22,30.55-12.7-19.44-25.39-38.7l-.62-.37V452.88c10.34,226,140.28,347,157.32,352.74C640.5,807.13,711.33,769,744.2,693.83,671.4,577.38,598.6,457,525.8,340.2Q522.24,334.41,518.68,328.64Z" style="fill: #008165"/>
    <path d="M518.56,324.66q-10.12,15.24-20.25,30.61-12.15-18.61-24.29-37l-3.43-2.08v136.6c5.5,120.74,44.74,207.79,76.69,260.66,34,56.07,71.69,91.72,82.38,94.88l.1,0h.1c5.68.78,26.18-8.24,49.88-27.4,20.27-16.37,48.18-44.63,66-85.43.24-.57.49-1.14.74-1.7C673.39,576.9,600.25,455.91,527.1,338.52Q522.83,331.58,518.56,324.66ZM629.76,802.9c-8.25-2.61-44.86-35-79.86-92.8-31.49-52.12-70.16-138-75.6-257v-127q12.17,18.44,24.31,37.06,10.09-15.31,20.18-30.5l5.72,9.28C597,458.08,669.4,577.88,741.85,693.84,708.78,767.6,639.23,803.91,629.76,802.9Z" style="fill: #292526"/>
    <path d="M768.82,288.65c-11.11,1.89-18.79,13-29.39,15.22-17.1,3.54-30.56-19.4-46-29.65-17.63-11.64-34.16-1.63-49.83,6.14-6.88,3.4-14.6.3-21.31-6.15-13.43-12.91-26.64-28-42.42-27.33-14.79.63-25.61,14.5-40.51,14-17.82-.53-31.08-22.42-48-30.18-5.37-2.47-12.59-4.82-18.94-2.08v.09h0v36.11c6.35-2.73,13.46-.38,18.83,2.07,16.89,7.78,30.13,29.66,48,30.19,14.9.48,25.72-13.42,40.51-14,15.78-.64,29,14.44,42.42,27.33,6.72,6.44,14.43,9.55,21.32,6.15,15.66-7.77,32.19-17.77,49.82-6.11,15.47,10.22,29,33.17,46,29.62,10.62-2.2,18.29-13.32,29.4-15.21,4.66-.78,13.51-.54,18.26,1l.13,0V289.65C782.33,288.11,773.48,287.87,768.82,288.65Z" style="fill: #0056a3"/>
    <path d="M768.5,286.62c-6,1-11,4.58-15.81,8-4.48,3.18-8.71,6.18-13.62,7.2-10.92,2.26-20.26-6.78-30.14-16.38-4.86-4.73-9.88-9.62-15.12-13.1-16.84-11.12-32.34-3.29-47.33,4.27-1.18.59-2.35,1.19-3.52,1.76-6,2.95-13.08.87-20.06-5.86q-2.32-2.23-4.64-4.52c-11.92-11.69-24.24-23.77-38.66-23.19-7.3.31-13.66,3.76-19.82,7.12-6.74,3.67-13.11,7.15-20.61,6.93-10.29-.32-18.95-8-28.12-16-6.14-5.37-12.48-10.9-19.42-14.09-8-3.68-14.49-4.35-19.73-2.09l-.86.37q0,20.3,0,40.6l1.92-.83c6.22-2.68,13.27-.12,18,2.05,6.6,3,12.79,8.42,18.76,13.65,9.12,8,18.55,16.31,29.63,16.65,8,.25,14.9-3.53,21.57-7.16,6-3.25,12.14-6.6,19-6.89,13.48-.54,25.37,11.11,36.87,22.39,1.56,1.53,3.12,3.06,4.68,4.56,7.8,7.49,15.81,9.77,22.56,6.44l3.49-1.75c14.51-7.32,29.51-14.91,45.3-4.47,5,3.31,9.92,8.1,14.67,12.72,7.82,7.6,15.85,15.38,24.75,17.12a18.77,18.77,0,0,0,7.39,0c5.31-1.1,9.91-4.37,14.37-7.53,4.64-3.31,9.44-6.74,15-7.68,4.5-.76,13.25-.51,17.79,1l1.67.28V288.06l-1.24-.41C782.35,286.07,773.31,285.81,768.5,286.62Zm17.19,36.84a52,52,0,0,0-17.31-.64c-6,1-11,4.58-15.8,8-4.49,3.18-8.72,6.18-13.65,7.2-10.89,2.26-20.22-6.76-30.1-16.35-4.87-4.73-9.9-9.64-15.14-13.1a32.87,32.87,0,0,0-11.39-4.9c-12.55-2.67-24.41,3.33-36,9.16l-3.47,1.74c-5.94,2.94-13.07.86-20.08-5.86-1.55-1.49-3.1-3-4.65-4.54-11.91-11.68-24.23-23.75-38.64-23.17-7.3.31-13.67,3.76-19.82,7.12-6.74,3.67-13.1,7.16-20.61,6.93-10.29-.32-18.95-8-28.12-16-6.13-5.37-12.47-10.9-19.42-14.09-4.64-2.12-11.33-4.57-17.69-2.77V230.29c4.57-1.6,10.24-.83,17.28,2.4,6.6,3,12.78,8.41,18.76,13.64,9.12,8,18.56,16.31,29.63,16.64,8,.25,14.9-3.52,21.57-7.15,6-3.25,12.14-6.59,19-6.89,13.48-.55,25.38,11.12,36.89,22.41,1.55,1.52,3.11,3.05,4.66,4.54,7.79,7.5,15.8,9.78,22.55,6.44,1.18-.58,2.35-1.18,3.54-1.77,14.49-7.31,29.49-14.89,45.27-4.47,5,3.31,9.9,8.1,14.64,12.72,9.93,9.65,20.19,19.58,32.17,17.11,5.3-1.11,9.9-4.37,14.35-7.54,4.65-3.3,9.45-6.73,15-7.68a50.38,50.38,0,0,1,16.55.61Z" style="fill: #292526"/>
    <path d="M496.57,538q13.17,2.36,26.33,4.91v-70q-13.17-2.55-26.33-4.91Z" style="fill: #ffc32a"/>
    <path d="M495.47,539.44Q509.74,542,524,544.76V471.52q-14.26-2.76-28.53-5.32Zm2.2-69.62q12.06,2.18,24.12,4.5v66.79q-12.06-2.33-24.12-4.5Z" style="fill: #292526"/>
    <path d="M555.34,549.42q13.15,2.72,26.32,5.52v-70q-13.17-2.79-26.32-5.52Z" style="fill: #ffc32a"/>
    <path d="M554.23,550.81q14.26,2.93,28.53,6V483.55q-14.26-3-28.53-6Zm2.21-69.57q12.06,2.49,24.11,5.06v66.8q-12-2.57-24.11-5.06Z" style="fill: #292526"/>
    <path d="M524.32,647.56q13.15,2.55,26.31,5.24v-70q-13.15-2.68-26.31-5.24Z" style="fill: #ffc32a"/>
    <path d="M523.22,648.94q14.25,2.76,28.51,5.69V581.39q-14.25-2.92-28.51-5.69Zm2.2-69.59q12.06,2.34,24.11,4.81V651q-12.06-2.46-24.11-4.8Z" style="fill: #292526"/>
    <path d="M582.12,658.69q13.17,2.82,26.33,5.67v-70q-13.17-2.86-26.33-5.67Z" style="fill: #ffc32a"/>
    <path d="M581,660.07q14.26,3,28.53,6.15V593q-14.26-3.11-28.53-6.15Zm2.21-69.55q12.06,2.58,24.12,5.2v66.79q-12.06-2.61-24.12-5.19Z" style="fill: #292526"/>
    <path d="M643.25,672.64q13.15,2.86,26.31,5.69v-70l-26.31-5.7Z" style="fill: #ffc32a"/>
    <path d="M642.14,674q14.26,3.11,28.53,6.17V606.93q-14.26-3.06-28.53-6.17Zm2.21-69.54q12.06,2.63,24.11,5.22v66.79q-12.06-2.58-24.11-5.22Z" style="fill: #292526"/>
    <path d="M553.92,720.06q13.17,18.66,26.33,37.44V694q-13.15-2.81-26.33-5.52Z" style="fill: #ffc32a"/>
    <path d="M552.82,720.59q14.26,20.22,28.53,40.58V692.61q-14.26-3-28.53-6ZM555,690.31q12.06,2.49,24.12,5.05v58.47q-12.06-17.19-24.12-34.3Z" style="fill: #292526"/>
    <path d="M615,771.5l26.32,5.74v-70L615,701.49Z" style="fill: #ffc32a"/>
    <path d="M613.93,772.87l28.53,6.22V705.85l-28.53-6.22Zm2.21-69.53,24.11,5.25v66.8l-24.11-5.26Z" style="fill: #292526"/>
    <path d="M672.38,784Q685.55,772,698.7,760V719.5q-13.16-2.75-26.32-5.56Z" style="fill: #ffc32a"/>
    <path d="M671.28,787q14.26-12.93,28.53-26V718.11q-14.26-3-28.53-6Zm2.21-71.2q12.06,2.58,24.11,5.1V759q-12.06,11-24.11,21.95Z" style="fill: #292526"/>
    <path d="M702.47,655.75v29.52q13.15,2.72,26.32,5.31v-9.77S720.68,659.68,702.47,655.75Z" style="fill: #ffc32a"/>
    <path d="M702.48,654.14l-1.11-.24v32.75q14.26,3,28.52,5.76V680.58l-.16-.42C729.39,679.25,721.09,658.16,702.48,654.14Zm25.21,34.62q-12.06-2.38-24.12-4.88V657.63c15.27,4,22.94,20.66,24.12,23.44Z" style="fill: #292526"/>
    <path d="M615.5,562.24,641.82,568V546c-10.1-5.13-16.44-9.26-26.32-17.25Z" style="fill: #ffc32a"/>
    <path d="M615.91,527.37l-1.52-1.23v37.47l28.54,6.22V544.94l-.89-.45A130.78,130.78,0,0,1,615.91,527.37Zm24.81,38.76-24.12-5.26V531.4a129.4,129.4,0,0,0,24.12,15.7Z" style="fill: #292526"/>
    <path d="M526.31,369.22l-1.06-.2v69.35q13.28,2.58,26.56,5.3V421.53S532.55,418.92,526.31,369.22Z" style="fill: #ffc32a"/>
    <path d="M527.4,369.14c-.06-.45-.12-.9-.17-1.35l-3.08-.6v72.57q14.37,2.79,28.76,5.75V420.07l-1.15-.16C551.56,419.88,533.39,416.88,527.4,369.14Zm23.3,72.69q-12.16-2.49-24.35-4.86V377c6.28,37.34,20.21,44.5,24.35,45.84Z" style="fill: #292526"/>
    <path d="M472.6,429.56q10.35,1.69,20.68,3.53v-70q-10.33-1.85-20.68-3.54Z" style="fill: #ffc32a"/>
    <path d="M471.5,431q11.44,1.88,22.89,3.91V361.65q-11.44-2-22.89-3.91Zm2.21-69.67q9.24,1.53,18.47,3.16v66.81q-9.24-1.64-18.47-3.16Z" style="fill: #292526"/>
    <polygon points="523.85 337.18 523.85 337.18 523.85 337.18 523.85 337.18" style="fill: #ee3629"/>
    <path d="M738.66,374.68q-10.1,15.22-20.21,30.34Q706.22,385.4,694,365.68q-9.39,15.54-18.8,31-11.75-20-23.5-40.08L631,386.45l-23-39.33q-9.87,15-19.74,30.06-12.69-19.89-25.38-39.69-10.11,15.06-20.22,30.17-9.39-15.27-18.79-30.48c1.4,28.42,4.22,58.39,14.32,71.9s22.6,16.68,34.44,24.54c6.64,4.38,11.8,11.17,15.89,20.89,7.54,18,5.59,36.6,12.82,54.33,10.63,26,30.28,28.8,46.54,41,6.93,5.21,12.56,13.86,15.58,24,7.15,23.89,4.92,52.85,21.44,70.87,11,12,24.16,10.52,35.29,22.07,6.18,6.43,16,28.81,18.27,39.06l-.09-.5c24.76-44.65,44.91-106.77,48.74-189.51v-142q-12.71,19.81-25.39,39.43Q750.18,394.06,738.66,374.68Z" style="fill: #ee3629"/>
    <path d="M787.09,373.06v.81l.46-.73Z" style="fill: #ee3629"/>
    <path d="M470.58,319.8l3.71.61V177.89C577.93,195,681.58,223.08,785.22,240.25V371.76l-1.35,2.06q-11.14,17.79-22.31,35.41-11.49-19.22-23-38.56-10.14,15.24-20.29,30.38Q706,381.39,693.79,361.62q-9.36,15.5-18.73,30.94-11.73-19.94-23.45-39.91l-20.67,29.81q-11.54-19.69-23.06-39.38-9.92,15.06-19.82,30.14-12.67-19.86-25.35-39.65-10.08,15-20.18,30.12-10.44-17-20.88-33.88c.12,2.4.23,4.79.35,7.19,1.41,28.55,4.29,59.64,15,74,7.47,10,16.11,14.56,24.47,19,3.49,1.86,7.1,3.79,10.57,6.1,6.19,4.08,11.06,10.51,14.89,19.62,3.64,8.65,4.94,17.41,6.32,26.67,1.35,9.06,2.75,18.43,6.5,27.62,8,19.58,20.79,26.65,33.16,33.49a119.36,119.36,0,0,1,14.28,8.8c6.45,4.85,11.75,13,14.54,22.36,2.3,7.66,3.63,16.14,4.92,24.33,2.72,17.24,5.53,35.09,17.23,47.85,5.87,6.41,12.3,9.17,18.51,11.82,6,2.54,11.65,4.94,16.83,10.32,5.63,5.85,15.2,27.29,17.45,37.42l2-.56c.38.47.75.95,1.12,1.42C769,654.61,785.52,590,788.92,516.34q0-140.45,0-280.9c-106.12-17.31-212.23-46.31-318.35-63.58ZM785.22,515.46c-3.3,71-18.93,133.39-46.49,184.56-3.65-11.44-11.69-29.21-17.64-35.39-5.79-6-12.06-8.66-18.13-11.24s-11.91-5.09-17.14-10.8c-10.37-11.31-12.88-27.24-15.54-44.1-1.33-8.46-2.71-17.22-5.16-25.42-3.2-10.73-9.27-20.06-16.63-25.6a123.62,123.62,0,0,0-14.73-9.09c-12.19-6.74-23.71-13.1-30.88-30.68-3.39-8.3-4.65-16.77-6-25.74-1.39-9.36-2.84-19-6.86-28.63-4.33-10.29-9.85-17.56-16.87-22.2-3.62-2.4-7.31-4.37-10.87-6.27-8.32-4.43-16.18-8.58-23-17.7-8.74-11.69-11.73-37.4-13.21-62.59q8.34,13.5,16.68,27.07Q552.9,356.51,563,341.43q12.69,19.8,25.38,39.7,9.84-15,19.69-29.95,11.5,19.62,23,39.27l20.67-29.81q11.81,20.12,23.61,40.19,9.4-15.51,18.81-31.07,12.18,19.65,24.38,39.22,10.1-15.09,20.2-30.27,11.52,19.4,23,38.65,11.72-18.51,23.43-37.19Z" style="fill: #292526"/>
    <path d="M747.71,424.59h0c-7.8-21-17.27-.87-23.4,7.68-12.26-12.19-32.32-19.6-45.13-10.14-10.59,2.62-8.36-22.94-20.06-20.58-7.8,4-5,18.44-10,25.49-6.69,14.83,8.92,32,.56,44.06A48,48,0,0,0,661.91,512c3.89,8.17,3.34,19.44,10,25,8.36,7.48,15.24,21,23,25.72,11.33.2,13.54-12.82,24.13-12.31,10-9.51,24.78-19.08,28.67-37.89,2.23-10.17,2.79-24.7-.55-35.91C757.19,463.79,747.71,441.68,747.71,424.59Z" style="fill: #292526"/>
    <path d="M745.38,428.23h0c-10.34-28.2-12.5,7.13-21.42,7-14.48-14.25-36.29-21-50.22-9.33-6.12-3.76-7.6-13.36-12.07-21.65-2.78-.6-6.64-3.95-8.86,16.77-5.66,10.28-5.17,20.82.74,37.92-1.11,8.7-5.11,12-3.44,23,.24,23.79,11.32,15.76,15.26,37.11-2,3.89,15.27,29.16,18.22,22.22-4.19-7-7.55-17.05-2.36-15.94,4.46,3.38,6.79,16.29,6.79,24.43q1.59,3.21,3.2,6.43l-1-12.44c-.73-6.26-.73-6.62,1-8.17,9.25-.32,3.58-1.06,9.47,3.6l-1.38,17.27c.65-.83,1.31-1.65,2-2.47,3.19-1.86,2.2-14.23,3.31-18.88,5.57,1.15,6.69-11.64,11.7-9,3.34,8-16.5,16.09-6.15,22.51,2.78.57,7.19-.23,8.86-4a110.74,110.74,0,0,0,24.37-28.3c3.45-11.58,6.4-27.55.49-39.1.56-4-.93-4.56.74-6.69C752.44,464.66,745.38,438.82,745.38,428.23Z" style="fill: #fff"/>
    <path d="M672.57,452.65l-3.51-.8c5.58,1.19,13,8.14,18,12.45,4.93,5.72,7.27,15,9.36,14h0c2.09-1-.42-6.07-.42-6.07C691,460.62,681.49,455.37,672.57,452.65Z" style="fill: #999"/>
    <path d="M684.08,476.62c2.79,2.23,9.61,6.71,9.59,15.3,2.23.46,2.23-2.8,2.23-5.24h0C694.23,480.64,689.5,479.57,684.08,476.62Z" style="fill: #292526"/>
    <path d="M700.5,473.19s-2.51,4-.42,5.89,4.43-6.45,9.36-10.12c5-2.23,12.4-6.11,18-5l-3.51-.64C715,462.34,705.51,463.65,700.5,473.19Z" style="fill: #999"/>
    <path d="M700.58,487.66h0c0,2.44,0,5.7,2.23,6.16,0-8.6,6.8-10.24,9.58-11.32C707,483.21,702.25,482.31,700.58,487.66Z" style="fill: #292526"/>
    <path d="M668.08,425.39c-2.47-6.28-3.45-12.24-5.42-14.82s-2.46-3.78-3.69-2.6-3.45,9.68-3.69,12.51-1.23,1.17-1.73,5.37-2.95,3.31-2.21,12.1,1.47,15.78,3.2,18.67a9,9,0,0,1,1,7.76c-.74,2.36-2.46,6.31-2.46,6.3-.16.45-.33.89-.49,1.34,0,0,3.45-6.45,3.69-7.47s1.48-3.28,0-8.28-4.43-13.9-3.45-19.07.74-14.59,6.41-14.8,3.93,1.22,5.9,3.08a17.45,17.45,0,0,0,4.41,2.51A9.74,9.74,0,0,1,668.08,425.39Z" style="fill: #999"/>
    <path d="M669.53,428a4.7,4.7,0,0,0,5.44,1.76h0A19.91,19.91,0,0,1,669.53,428Z" style="fill: #999"/>
    <polygon points="723.71 437.33 723.71 437.33 723.71 437.33 723.71 437.33" style="fill: #999"/>
    <path d="M743.41,436.13c-.25-2.92-2.46-12.33-3.69-14s-1.72-.7-3.69,1.08-3,7.33-5.42,12.6a5.71,5.71,0,0,1-1.46,2,11.78,11.78,0,0,0,4.41-.71c2-1.05.25-3.18,5.91-.65s5.42,11.81,6.4,17.4-3.94,12.91-5.42,17.3,1.73,7.52,2,8.64,3.7,9,3.7,9c-.16-.51-.33-1-.49-1.53,0,0-1.73-4.64-2.47-7.3s-2.45-6.22-.74-8.4,4.19-7.83,4.93-16.33-1.72-8.59-2.22-13S743.66,439.06,743.41,436.13Z" style="fill: #999"/>
    <path d="M723.71,437.33s3,2.53,5.44.49A17.38,17.38,0,0,1,723.71,437.33Z" style="fill: #999"/>
    <polygon points="655.77 490.32 655.77 490.32 655.77 490.32 655.77 490.32" style="fill: #999"/>
    <path d="M683.59,521.82c-1.72-.36-7.63-1.27-9.36,1.24s-3.2,1.48-5.66-3-1.23-10.33-2.71-13.52-6.4-10-10.09-16.21c0,0,0,5.4,1.48,7.51s4.18,7.38,5.66,10.21,2.09,7.07,3.69,12.67c2,6.89,2.71,7,5.17,11.53s6.9,6.87,8.37,7.18-5-9.43-3.69-12.65c2.22-5.28,6.89-1,9.35-.17S685.31,522.18,683.59,521.82Z" style="fill: #999"/>
    <path d="M728.39,519.51c-1.47,2.58-.24,8.93-2.71,12.4s-5.16-5.7-6.89-8.92-5.91-.83-8.37,2.25c-1.21,1.54-4,7.79-2,6.08,2.71-2.32,6.9-10.46,9.11-4.26,1.35,3.77-7.38,18.27-5.91,18.57s6.41-.14,8.86-3.6,5.17-2.57,7.14-8.65c1.61-4.94,2.22-8.91,3.7-11.14a75.68,75.68,0,0,1,5.66-7.88c1.47-1.51,1.47-6.91,1.47-6.91C734.8,512.14,729.87,516.92,728.39,519.51Z" style="fill: #999"/>
    <polygon points="738.49 507.45 738.49 507.45 738.49 507.45 738.49 507.45" style="fill: #999"/>
    <path d="M691,505a9.4,9.4,0,0,1-1,2.31c-.74,1.28-2.71.51-2.71.51,1.23,1,2.71,8.83,3.2,13.62s.74,8.78.74,8.78.49-7.08,0-9.35S691,505,691,505Z" style="fill: #999"/>
    <path d="M703.77,510.22a14.13,14.13,0,0,1-1-2.72s.24,13.72-.24,15.77,0,9.35,0,9.35.24-3.91.74-8.47,2-11.83,3.19-12.29A3.25,3.25,0,0,1,703.77,510.22Z" style="fill: #999"/>
    <path d="M722.73,440a12,12,0,0,1-6.15-3.75c-2-2.2-7.14-5.4-9.11-6.53s-5.17-1.42-6.65-.29a32.92,32.92,0,0,1-3.94,2.41s0-1.43-3-3.85-2.71-.21-7.14,1.74S671,434.3,671,434.3h0s6.16,1,8.87.45,10.33-4.64,12.3-4.23,5.18,5.4,5.18,5.39,4.18-2.71,7.38-2.78,9.6,5.56,10.59,6.47S724.45,440.35,722.73,440Z" style="fill: #999"/>
    <path d="M688.64,499.7c-.25-1,.36.08-1.23-4.57s-2-4.56-2.35-5.36a52.07,52.07,0,0,1,1.85,5.61c.25,1.67,1,3.08.12,3.44a13.2,13.2,0,0,1-2.95.63c-1,.16-3.12-.56-7.91-4.26-1.39-1.07-1.11-2.21-2.17-3.85s-5.17-7.37-6.11-8.94,2.29-.68,4.41-.16h0s-8.43-3.52-2.92,3.29a33.72,33.72,0,0,1,3.75,5.56c.61,1.22.7,3.28,2.61,5.35s6,4.68,8.71,4.17c1.54-.29,2.71,0,3.2,1.21s.33,2,.83,2.08,1.14-.58.9-1.53S688.88,500.64,688.64,499.7Z" style="fill: #292526"/>
    <path d="M681.34,485.14c-.83-.59-3.22-2-4.26-1.95s-1.69-.85-2.39-.48-1.25.66-1.52,2.53a5.8,5.8,0,0,0,3.49,5.61c3,1.3,3.81-.46,4-2.18.21-1.46-1.18-3.57-2.28-4.41a3.14,3.14,0,0,1-.54-.31,2,2,0,0,1,.54.31,7,7,0,0,0,1.54.56c1.38.31,2.65,1.42,3.28,1.46a1.62,1.62,0,0,1,.82.23l-.31-.23A11.1,11.1,0,0,1,681.34,485.14Z" style="fill: #292526"/>
    <path d="M684.06,486.51l.05,0Z" style="fill: #292526"/>
    <path d="M678.42,484.26a2,2,0,0,0-.54-.31A3.14,3.14,0,0,0,678.42,484.26Z" style="fill: #292526"/>
    <path d="M665.35,481.1h0Z" style="fill: #292526"/>
    <path d="M680.44,483.23a14.19,14.19,0,0,0-5.41-2,46.9,46.9,0,0,0-6.35-.83,8.37,8.37,0,0,0-2.7.34c3.14.07,9.7.69,13.65,2.68.69.35,3.19,2.17,4.12,2.85l.12,0A8.13,8.13,0,0,0,680.44,483.23Z" style="fill: #292526"/>
    <path d="M665.34,481.1c-.11,0,.14-.19.64-.35C664.08,480.72,663.42,480.89,665.34,481.1Z" style="fill: #292526"/>
    <polygon points="679.86 487.34 679.86 487.34 679.86 487.34 679.86 487.34" style="fill: #fff"/>
    <path d="M677.57,484.35c-1.84-.75-2.61.15-2.63,1.23s.79,1.69,1.64,2.12,1.5-.53,1.33-1.17-.32-1.44-.32-1.44,2.13,1.44,2.27,2.25A4.39,4.39,0,0,0,677.57,484.35Z" style="fill: #fff"/>
    <path d="M723.92,493h0c2.13.35,5.36.78,4.42,2s-5.05,5.23-6.11,6.43-.79,2.45-2.18,2.94c-4.78,1.72-6.92,1.55-7.9,1a19.64,19.64,0,0,1-3-1.86c-.86-.71-.12-1.82.13-3.38s2.21-5.48,1.84-4.84-.74.39-2.34,4.38-1,3.21-1.23,4.06-.49,1.52-.73,2.37a1.66,1.66,0,0,0,.89,1.9c.49.1.34-.76.83-1.74s1.65-.81,3.2.12c2.7,1.63,6.8.71,8.71-.56s2-3.3,2.61-4.27a18.76,18.76,0,0,1,3.74-4C732.35,492.91,723.92,493,723.92,493Z" style="fill: #292526"/>
    <path d="M730.88,494.69h0Z" style="fill: #292526"/>
    <path d="M730.89,494.68c1.92.58,1.26.14-.64-.6C730.75,494.44,731,494.69,730.89,494.68Z" style="fill: #292526"/>
    <path d="M721.2,490.83a11.85,11.85,0,0,0-5.41-.26c-2.63.42-2.89,1.21-3.42,1.68h.1a38.69,38.69,0,0,1,4.13-1.14c3.94-.35,10.51,1.74,13.65,3a12,12,0,0,0-2.7-1.47A51.14,51.14,0,0,0,721.2,490.83Z" style="fill: #292526"/>
    <path d="M713,492.46c.62.23,1.91-.35,3.28-.1a5.94,5.94,0,0,0,1.54.09,1.35,1.35,0,0,1,.54-.1,2.13,2.13,0,0,1-.54.1,3.61,3.61,0,0,0-2.29,3.46c.24,1.81,1,3.89,4.06,3.85a3.56,3.56,0,0,0,3.47-4.16,4.22,4.22,0,0,0-1.52-3.16c-.7-.67-1.35-.06-2.39-.52s-3.43-.05-4.24.2a8.46,8.46,0,0,1-2.43.13l-.35.12A1.28,1.28,0,0,1,713,492.46Z" style="fill: #292526"/>
    <path d="M717.81,492.45a2.13,2.13,0,0,0,.54-.1A1.35,1.35,0,0,0,717.81,492.45Z" style="fill: #292526"/>
    <polygon points="716.37 494.92 716.37 494.92 716.37 494.92 716.37 494.92" style="fill: #fff"/>
    <path d="M718.66,492.89c-1.83,0-2.29,2-2.29,2,.15-.74,2.27-1.3,2.27-1.3s-.15.74-.32,1.31.48,1.78,1.33,1.71,1.66-.33,1.64-1.43A2.39,2.39,0,0,0,718.66,492.89Z" style="fill: #fff"/>
    <path d="M945,92v920c105,.22,210-22.24,315-90.07V2C1155,69.8,1050,92.26,945,92Z" style="fill: #00549f"/>
  </g>
</svg>
