<?xml version="1.0" encoding="utf-8"?>
<!-- Generator: Adobe Illustrator 24.2.0, SVG Export Plug-In . SVG Version: 6.00 Build 0)  -->
<svg version="1.1" id="Layer_1" xmlns="http://www.w3.org/2000/svg" xmlns:xlink="http://www.w3.org/1999/xlink" x="0px" y="0px"
	 viewBox="0 0 1260 1260" style="enable-background:new 0 0 1260 1260;" xml:space="preserve">
<style type="text/css">
	.st0{fill:#FFFFFF;}
	.st1{fill:#00549F;}
	.st2{fill:#008165;}
	.st3{fill:#292526;}
	.st4{fill:#0056A3;}
	.st5{fill:#FFC32A;}
	.st6{fill:#EE3629;}
	.st7{fill:#999999;}
</style>
<g>
	<path class="st0" d="M63,294.7v736c378-217.1,756,146.6,1134-70.5v-736C819,441.3,441,77.7,63,294.7z"/>
	<path class="st1" d="M63,294.7v736c94.5-54.3,189-72.2,283.5-72.1v-736C252,222.5,157.5,240.5,63,294.7z"/>
	<path class="st0" d="M488.2,585c9.3,180.8,126.3,277.6,141.6,282.2c15.3,2.4,132.3-51.7,141.6-231.8V412.9
		c-94.4-13.8-188.8-36.6-283.2-50.4V585z"/>
	<path class="st2" d="M529.8,485.6c-6.1,8.1-12.1,16.3-18.2,24.4c-7.6-10.4-15.2-20.7-22.9-31l-0.6-0.3V585
		c9.3,180.8,126.3,277.6,141.6,282.2c9.7,1.2,73.4-29.3,103-89.4c-65.5-93.2-131-189.5-196.6-282.9
		C534.1,491.7,531.9,488.6,529.8,485.6z"/>
	<path class="st3" d="M529.7,482.4c-6.1,8.1-12.1,16.3-18.2,24.5c-7.3-9.9-14.6-19.8-21.9-29.6l-3.1-1.7v109.3
		c4.9,96.6,40.3,166.2,69,208.5c30.6,44.9,64.5,73.4,74.1,75.9h0.1h0.1c5.1,0.6,23.6-6.6,44.9-21.9c18.2-13.1,43.4-35.7,59.4-68.3
		c0.2-0.5,0.4-0.9,0.7-1.4c-65.8-93.5-131.6-190.3-197.4-284.2C534.8,489.8,532.3,486.1,529.7,482.4z M629.8,865
		c-7.4-2.1-40.4-28-71.9-74.2c-28.3-41.7-63.1-110.4-68-205.6V483.5c7.3,9.8,14.6,19.7,21.9,29.6c6.1-8.2,12.1-16.3,18.2-24.4
		l5.1,7.4c65.2,92.9,130.4,188.8,195.6,281.5C700.9,836.7,638.3,865.8,629.8,865z"/>
	<path class="st4" d="M754.9,453.6c-10,1.5-16.9,10.4-26.5,12.2c-15.4,2.8-27.5-15.5-41.4-23.7c-15.9-9.3-30.7-1.3-44.8,4.9
		c-6.2,2.7-13.1,0.2-19.2-4.9c-12.1-10.3-24-22.4-38.2-21.9c-13.3,0.5-23,11.6-36.5,11.2c-16-0.4-28-17.9-43.2-24.1
		c-4.8-2-11.3-3.9-17-1.7v0.1l0,0v28.9c5.7-2.2,12.1-0.3,16.9,1.7c15.2,6.2,27.1,23.7,43.2,24.2c13.4,0.4,23.1-10.7,36.5-11.2
		c14.2-0.5,26.1,11.6,38.2,21.9c6,5.2,13,7.6,19.2,4.9c14.1-6.2,29-14.2,44.8-4.9c13.9,8.2,26.1,26.5,41.4,23.7
		c9.6-1.8,16.5-10.7,26.5-12.2c4.2-0.6,12.2-0.4,16.4,0.8h0.1v-29C767.1,453.1,759.1,453,754.9,453.6z"/>
	<path class="st3" d="M754.7,452c-5.4,0.8-9.9,3.7-14.2,6.4c-4,2.5-7.8,4.9-12.3,5.8c-9.8,1.8-18.2-5.4-27.1-13.1
		c-4.4-3.8-8.9-7.7-13.6-10.5c-15.2-8.9-29.1-2.6-42.6,3.4c-1.1,0.5-2.1,1-3.2,1.4c-5.4,2.4-11.8,0.7-18.1-4.7
		c-1.4-1.2-2.8-2.4-4.2-3.6c-10.7-9.4-21.8-19-34.8-18.6c-6.6,0.2-12.3,3-17.8,5.7c-6.1,2.9-11.8,5.7-18.5,5.5
		c-9.3-0.3-17.1-6.4-25.3-12.8c-5.5-4.3-11.2-8.7-17.5-11.3c-7.2-2.9-13-3.5-17.8-1.7l-0.8,0.3c0,10.8,0,21.7,0,32.5l1.7-0.7
		c5.6-2.1,11.9-0.1,16.2,1.6c5.9,2.4,11.5,6.7,16.9,10.9c8.2,6.4,16.7,13,26.7,13.3c7.2,0.2,13.4-2.8,19.4-5.7
		c5.4-2.6,10.9-5.3,17.1-5.5c12.1-0.4,22.8,8.9,33.2,17.9c1.4,1.2,2.8,2.4,4.2,3.6c7,6,14.2,7.8,20.3,5.2l3.1-1.4
		c13.1-5.9,26.6-11.9,40.8-3.6c4.5,2.6,8.9,6.5,13.2,10.2c7,6.1,14.3,12.3,22.3,13.7c2.2,0.4,4.5,0.4,6.7,0c4.8-0.9,8.9-3.5,12.9-6
		c4.2-2.6,8.5-5.4,13.5-6.1c4-0.6,11.9-0.4,16,0.8l1.5,0.2v-32.1l-1.1-0.3C767.1,451.5,759,451.3,754.7,452z M770.1,481.4
		c-5.1-0.9-10.4-1.1-15.6-0.5c-5.4,0.8-9.9,3.7-14.2,6.4c-4,2.5-7.8,4.9-12.3,5.8c-9.8,1.8-18.2-5.4-27.1-13.1
		c-4.4-3.8-8.9-7.7-13.6-10.5c-3.1-1.9-6.6-3.2-10.3-3.9c-11.3-2.1-22,2.7-32.4,7.3l-3.1,1.4c-5.3,2.4-11.8,0.7-18.1-4.7
		c-1.4-1.2-2.8-2.4-4.2-3.6c-10.7-9.3-21.8-19-34.8-18.5c-6.6,0.2-12.3,3-17.8,5.7c-6.1,2.9-11.8,5.7-18.5,5.5
		c-9.3-0.3-17.1-6.4-25.3-12.8c-5.5-4.3-11.2-8.7-17.5-11.3c-4.2-1.7-10.2-3.7-15.9-2.2v-25.5c4.1-1.3,9.2-0.7,15.6,1.9
		c5.9,2.4,11.5,6.7,16.9,10.9c8.2,6.4,16.7,13,26.7,13.3c7.2,0.2,13.4-2.8,19.4-5.7c5.4-2.6,10.9-5.3,17.1-5.5
		c12.1-0.4,22.8,8.9,33.2,17.9c1.4,1.2,2.8,2.4,4.2,3.6c7,6,14.2,7.8,20.3,5.2c1.1-0.5,2.1-0.9,3.2-1.4c13-5.8,26.5-11.9,40.7-3.6
		c4.5,2.6,8.9,6.5,13.2,10.2c8.9,7.7,18.2,15.7,29,13.7c4.8-0.9,8.9-3.5,12.9-6c4.2-2.6,8.5-5.4,13.5-6.1c5-0.6,10-0.4,14.9,0.5
		L770.1,481.4z"/>
	<path class="st5" d="M509.9,653.1c7.9,1.3,15.8,2.6,23.7,3.9v-56c-7.9-1.4-15.8-2.7-23.7-3.9L509.9,653.1z"/>
	<path class="st3" d="M508.9,654.2c8.6,1.4,17.1,2.8,25.7,4.3v-58.6c-8.6-1.5-17.1-2.9-25.7-4.3V654.2z M510.9,598.5
		c7.2,1.2,14.5,2.4,21.7,3.6v53.4c-7.2-1.2-14.5-2.4-21.7-3.6L510.9,598.5z"/>
	<path class="st5" d="M562.8,662.2c7.9,1.5,15.8,2.9,23.7,4.4v-56c-7.9-1.5-15.8-3-23.7-4.4V662.2z"/>
	<path class="st3" d="M561.8,663.3c8.6,1.6,17.1,3.2,25.7,4.8v-58.6c-8.6-1.6-17.1-3.2-25.7-4.8V663.3z M563.8,607.7
		c7.2,1.3,14.5,2.7,21.7,4v53.4c-7.2-1.4-14.4-2.7-21.7-4V607.7z"/>
	<path class="st5" d="M534.9,740.7c7.9,1.4,15.8,2.8,23.7,4.2v-56c-7.9-1.4-15.8-2.8-23.7-4.2V740.7z"/>
	<path class="st3" d="M533.9,741.8c8.6,1.5,17.1,3,25.7,4.6v-58.6c-8.6-1.6-17.1-3.1-25.7-4.6V741.8z M535.9,686.1
		c7.2,1.2,14.5,2.5,21.7,3.8v53.5c-7.2-1.3-14.5-2.6-21.7-3.8V686.1z"/>
	<path class="st5" d="M586.9,749.6c7.9,1.5,15.8,3,23.7,4.5v-56c-7.9-1.5-15.8-3-23.7-4.5V749.6z"/>
	<path class="st3" d="M585.9,750.7c8.6,1.6,17.1,3.2,25.7,4.9v-58.6c-8.6-1.7-17.1-3.3-25.7-4.9V750.7z M587.9,695.1
		c7.2,1.4,14.5,2.8,21.7,4.2v53.4c-7.2-1.4-14.5-2.8-21.7-4.2V695.1z"/>
	<path class="st5" d="M641.9,760.8c7.9,1.5,15.8,3,23.7,4.6v-56l-23.7-4.6V760.8z"/>
	<path class="st3" d="M640.9,761.9c8.6,1.7,17.1,3.3,25.7,4.9v-58.6c-8.6-1.6-17.1-3.3-25.7-4.9V761.9z M642.9,706.2
		c7.2,1.4,14.5,2.8,21.7,4.2v53.4c-7.2-1.4-14.5-2.8-21.7-4.2V706.2z"/>
	<path class="st5" d="M561.5,798.7c7.9,10,15.8,19.9,23.7,30v-50.8c-7.9-1.5-15.8-3-23.7-4.4V798.7z"/>
	<path class="st3" d="M560.5,799.1c8.6,10.8,17.1,21.6,25.7,32.5v-54.8c-8.6-1.6-17.1-3.2-25.7-4.8V799.1z M562.5,774.9
		c7.2,1.3,14.5,2.7,21.7,4v46.8c-7.2-9.2-14.5-18.3-21.7-27.4V774.9z"/>
	<path class="st5" d="M616.5,839.9l23.7,4.6v-56l-23.7-4.6V839.9z"/>
	<path class="st3" d="M615.5,841l25.7,5v-58.6l-25.7-5V841z M617.5,785.3l21.7,4.2V843l-21.7-4.2V785.3z"/>
	<path class="st5" d="M668.1,849.9c7.9-6.4,15.8-12.8,23.7-19.2v-32.4c-7.9-1.5-15.8-2.9-23.7-4.4V849.9z"/>
	<path class="st3" d="M667.2,852.3c8.6-6.9,17.1-13.8,25.7-20.8v-34.3c-8.6-1.6-17.1-3.2-25.7-4.8V852.3z M669.1,795.3
		c7.2,1.4,14.5,2.7,21.7,4.1v30.5c-7.2,5.9-14.5,11.7-21.7,17.6V795.3z"/>
	<path class="st5" d="M695.2,747.3v23.6c7.9,1.5,15.8,2.9,23.7,4.2v-7.8C718.9,767.3,711.6,750.4,695.2,747.3z"/>
	<path class="st3" d="M695.2,746l-1-0.2V772c8.6,1.6,17.1,3.1,25.7,4.6v-9.5l-0.1-0.3C719.5,766.1,712,749.2,695.2,746z
		 M717.9,773.7c-7.2-1.3-14.5-2.6-21.7-3.9v-21c13.7,3.2,20.6,16.5,21.7,18.8V773.7z"/>
	<path class="st5" d="M617,672.5l23.7,4.6v-17.6c-9.1-4.1-14.8-7.4-23.7-13.8V672.5z"/>
	<path class="st3" d="M617.3,644.6l-1.4-1v30l25.7,5v-19.9l-0.8-0.4C632.4,654.5,624.5,649.9,617.3,644.6z M639.6,675.6l-21.7-4.2
		v-23.6c6.7,4.9,14,9.1,21.7,12.6V675.6z"/>
	<path class="st5" d="M536.7,518l-1-0.2v55.5c8,1.4,15.9,2.8,23.9,4.2v-17.7C559.6,559.9,542.3,557.8,536.7,518z"/>
	<path class="st3" d="M537.7,518c-0.1-0.4-0.1-0.7-0.2-1.1l-2.8-0.5v58.1c8.6,1.5,17.2,3,25.9,4.6v-20.4l-1-0.1
		C559.4,558.6,543.1,556.2,537.7,518z M558.6,576.1c-7.3-1.3-14.6-2.6-21.9-3.9v-48c5.7,29.9,18.2,35.6,21.9,36.7V576.1z"/>
	<path class="st5" d="M488.3,566.3c6.2,0.9,12.4,1.8,18.6,2.8v-56c-6.2-1-12.4-1.9-18.6-2.8V566.3z"/>
	<path class="st3" d="M487.4,567.5c6.9,1,13.7,2,20.6,3.1V512c-6.9-1.1-13.7-2.1-20.6-3.1V567.5z M489.3,511.7
		c5.5,0.8,11.1,1.7,16.6,2.5v53.4c-5.5-0.9-11.1-1.7-16.6-2.5V511.7z"/>
	<polygon class="st6" points="534.5,492.4 534.5,492.4 534.5,492.4 	"/>
	<path class="st6" d="M727.8,522.4c-6.1,8.1-12.1,16.2-18.2,24.3c-7.3-10.5-14.7-21-22-31.5c-5.6,8.3-11.3,16.6-16.9,24.8
		c-7-10.7-14.1-21.4-21.1-32.1l-18.6,23.9l-20.7-31.5c-5.9,8-11.8,16-17.8,24c-7.6-10.6-15.2-21.2-22.8-31.8
		c-6.1,8-12.1,16.1-18.2,24.1c-5.6-8.1-11.3-16.3-16.9-24.4c1.3,22.7,3.8,46.7,12.9,57.5s20.3,13.3,31,19.6
		c6,3.5,10.6,8.9,14.3,16.7c6.8,14.4,5,29.3,11.5,43.5c9.6,20.8,27.3,23,41.9,32.8c6.2,4.2,11.3,11.1,14,19.2
		c6.4,19.1,4.4,42.3,19.3,56.7c9.9,9.6,21.7,8.4,31.8,17.7c5.6,5.1,14.4,23,16.4,31.2l-0.1-0.4c22.3-35.7,40.4-85.4,43.9-151.6
		V521.7c-7.6,10.6-15.2,21.1-22.9,31.5C741.6,543,734.7,532.7,727.8,522.4z"/>
	<path class="st6" d="M771.4,521.1v0.6l0.4-0.6L771.4,521.1z"/>
	<path class="st3" d="M486.5,478.5l3.3,0.5V365c93.3,13.7,186.6,36.2,279.8,49.9v105.2l-1.2,1.6c-6.7,9.5-13.4,18.9-20.1,28.3
		c-6.9-10.3-13.8-20.5-20.7-30.8c-6.1,8.1-12.2,16.2-18.3,24.3c-7.4-10.5-14.7-21-22-31.5c-5.6,8.3-11.2,16.5-16.9,24.8
		c-7-10.6-14.1-21.3-21.1-31.9l-18.6,23.8c-6.9-10.5-13.8-21-20.8-31.5c-6,8-11.9,16.1-17.8,24.1c-7.6-10.6-15.2-21.2-22.8-31.7
		c-6,8-12.1,16-18.2,24.1c-6.3-9.1-12.5-18.1-18.8-27.1c0.1,1.9,0.2,3.8,0.3,5.8c1.3,22.8,3.9,47.7,13.5,59.2
		c6.7,8,14.5,11.6,22,15.2c3.1,1.5,6.4,3,9.5,4.9c5.6,3.3,10,8.4,13.4,15.7c3.3,6.9,4.4,13.9,5.7,21.3c1.2,7.2,2.5,14.7,5.9,22.1
		c7.2,15.7,18.7,21.3,29.8,26.8c4.5,2.1,8.8,4.4,12.9,7c5.8,3.9,10.6,10.4,13.1,17.9c2.1,6.1,3.3,12.9,4.4,19.5
		c2.4,13.8,5,28.1,15.5,38.3c5.3,5.1,11.1,7.3,16.7,9.5c5.4,2,10.5,4,15.1,8.3c5.1,4.7,13.7,21.8,15.7,29.9l1.8-0.4
		c0.3,0.4,0.7,0.8,1,1.1c26.3-42.1,41.2-93.8,44.2-152.7c0-74.9,0-149.8,0-224.7c-95.5-13.8-191-37-286.5-50.9L486.5,478.5z
		 M769.7,635c-3,56.8-17,106.7-41.8,147.6c-3.3-9.2-10.5-23.4-15.9-28.3c-5.2-4.8-10.9-6.9-16.3-9c-5.5-2.1-10.7-4.1-15.4-8.6
		c-9.3-9-11.6-21.8-14-35.3c-1.2-6.8-2.4-13.8-4.6-20.3c-2.9-8.6-8.3-16-15-20.5c-4.2-2.7-8.7-5.1-13.3-7.3
		c-11-5.4-21.3-10.5-27.8-24.5c-3.1-6.6-4.2-13.4-5.4-20.6c-1.3-7.5-2.6-15.2-6.2-22.9c-3.9-8.2-8.9-14-15.2-17.8
		c-3.3-1.9-6.6-3.5-9.8-5c-7.5-3.5-14.6-6.9-20.7-14.2c-7.9-9.4-10.6-29.9-11.9-50.1c5,7.2,10,14.4,15,21.7
		c6.1-8.1,12.2-16.1,18.2-24.2c7.6,10.6,15.2,21.1,22.8,31.8c5.9-8,11.8-16,17.7-24c6.9,10.5,13.8,20.9,20.7,31.4l18.6-23.8
		c7.1,10.7,14.2,21.4,21.2,32.2c5.6-8.3,11.3-16.6,16.9-24.9c7.3,10.5,14.6,20.9,21.9,31.4c6.1-8,12.1-16.1,18.2-24.2
		c6.9,10.3,13.8,20.7,20.7,30.9c7-9.9,14.1-19.8,21.1-29.8L769.7,635z"/>
	<path class="st3" d="M735.9,562.3L735.9,562.3c-7-16.8-15.5-0.7-21.1,6.1c-11-9.8-29.1-15.7-40.6-8.1c-9.5,2.1-7.5-18.4-18.1-16.5
		c-7,3.2-4.5,14.8-9,20.4c-6,11.9,8,25.6,0.5,35.2c-2.3,11.8,1.8,23.9,11,32.7c3.5,6.5,3,15.6,9,20c7.5,6,13.7,16.8,20.7,20.6
		c10.2,0.2,12.2-10.3,21.7-9.8c9-7.6,22.3-15.3,25.8-30.3c2-8.1,2.5-19.8-0.5-28.7C744.5,593.7,735.9,576,735.9,562.3z"/>
	<path class="st0" d="M733.8,565.2L733.8,565.2c-9.3-22.6-11.2,5.7-19.3,5.6c-13-11.4-32.7-16.8-45.2-7.5c-5.5-3-6.8-10.7-10.9-17.3
		c-2.5-0.5-6-3.2-8,13.4c-5.1,8.2-4.7,16.7,0.7,30.3c-1,7-4.6,9.6-3.1,18.4c0.2,19,10.2,12.6,13.7,29.7
		c-1.8,3.1,13.7,23.3,16.4,17.8c-3.8-5.6-6.8-13.6-2.1-12.8c4,2.7,6.1,13,6.1,19.5c1,1.7,1.9,3.4,2.9,5.1l-0.9-10
		c-0.7-5-0.7-5.3,0.9-6.5c8.3-0.3,3.2-0.8,8.5,2.9l-1.2,13.8c0.6-0.7,1.2-1.3,1.8-2c2.9-1.5,2-11.4,3-15.1c5,0.9,6-9.3,10.5-7.2
		c3,6.4-14.8,12.9-5.5,18c2.5,0.5,6.5-0.2,8-3.2c8.7-6.4,16.1-14,21.9-22.6c3.1-9.3,5.8-22,0.4-31.3c0.5-3.2-0.8-3.6,0.7-5.4
		C740.2,594.4,733.8,573.7,733.8,565.2z"/>
	<path class="st7" d="M668.3,584.8l-3.2-0.6c5,1,11.7,6.5,16.2,10c4.4,4.6,6.5,12,8.4,11.2l0,0c1.9-0.8-0.4-4.9-0.4-4.9
		C684.9,591.2,676.3,587,668.3,584.8z"/>
	<path class="st3" d="M678.7,604c2.5,1.8,8.6,5.4,8.6,12.2c2,0.4,2-2.2,2-4.2l0,0C687.8,607.2,683.5,606.3,678.7,604z"/>
	<path class="st7" d="M693.5,601.2c0,0-2.3,3.2-0.4,4.7c1.9,1.5,4-5.2,8.4-8.1c4.5-1.8,11.2-4.9,16.2-4l-3.2-0.5
		C706.5,592.5,698,593.6,693.5,601.2z"/>
	<path class="st3" d="M693.5,612.8L693.5,612.8c0,2,0,4.6,2,4.9c0-6.9,6.1-8.2,8.6-9.1C699.3,609.2,695,608.5,693.5,612.8z"/>
	<path class="st7" d="M664.3,563c-2.2-5-3.1-9.8-4.9-11.9c-1.8-2.1-2.2-3-3.3-2.1c-1.1,0.9-3.1,7.7-3.3,10c-0.2,2.3-1.1,0.9-1.6,4.3
		c-0.5,3.4-2.7,2.6-2,9.7c0.7,7,1.3,12.6,2.9,14.9c1.3,1.8,1.7,4.1,0.9,6.2c-0.7,1.9-2.2,5-2.2,5c-0.1,0.4-0.3,0.7-0.4,1.1
		c0,0,3.1-5.2,3.3-6s1.3-2.6,0-6.6s-4-11.1-3.1-15.3c0.9-4.1,0.7-11.7,5.8-11.8c5.1-0.2,3.5,1,5.3,2.5c1.2,0.8,2.5,1.5,4,2
		C665,564.4,664.6,563.7,664.3,563z"/>
	<path class="st7" d="M665.6,565.1c1.1,1.4,3.1,2,4.9,1.4l0,0C668.8,566.2,667.1,565.7,665.6,565.1z"/>
	<polygon class="st7" points="714.3,572.5 714.3,572.5 714.3,572.5 	"/>
	<path class="st7" d="M732.1,571.6c-0.2-2.3-2.2-9.9-3.3-11.2s-1.5-0.6-3.3,0.9c-1.8,1.4-2.7,5.9-4.9,10.1c-0.3,0.6-0.7,1.2-1.3,1.6
		c1.4,0,2.7-0.2,4-0.6c1.8-0.8,0.2-2.5,5.3-0.5c5.1,2,4.9,9.4,5.8,13.9c0.9,4.5-3.5,10.3-4.9,13.8s1.6,6,1.8,6.9
		c0.2,0.9,3.3,7.2,3.3,7.2c-0.1-0.4-0.3-0.8-0.4-1.2c0,0-1.6-3.7-2.2-5.8c-0.7-2.1-2.2-5-0.7-6.7c1.5-1.7,3.8-6.3,4.4-13.1
		c0.7-6.8-1.5-6.9-2-10.4C733.2,572.9,732.3,573.9,732.1,571.6z"/>
	<path class="st7" d="M714.3,572.5c0,0,2.7,2,4.9,0.4C717.6,573,715.9,572.9,714.3,572.5z"/>
	<polygon class="st7" points="653.2,614.9 653.2,614.9 653.2,614.9 	"/>
	<path class="st7" d="M678.2,640.1c-1.5-0.3-6.9-1-8.4,1c-1.6,2-2.9,1.2-5.1-2.4c-2.2-3.6-1.1-8.3-2.4-10.8s-5.8-8-9.1-13
		c0,0,0,4.3,1.3,6c1.3,1.7,3.8,5.9,5.1,8.2s1.9,5.7,3.3,10.1c1.8,5.5,2.4,5.6,4.7,9.2c2.2,3.6,6.2,5.5,7.5,5.7
		c1.3,0.2-4.5-7.5-3.3-10.1c2-4.2,6.2-0.8,8.4-0.1C682.4,644.6,679.8,640.4,678.2,640.1z"/>
	<path class="st7" d="M718.6,638.3c-1.3,2.1-0.2,7.1-2.4,9.9s-4.6-4.6-6.2-7.1c-1.6-2.6-5.3-0.7-7.5,1.8c-1.1,1.2-3.6,6.2-1.8,4.9
		c2.4-1.9,6.2-8.4,8.2-3.4c1.2,3-6.6,14.6-5.3,14.9c1.3,0.2,5.8-0.1,8-2.9c2.2-2.8,4.7-2.1,6.4-6.9c1.4-4,2-7.1,3.3-8.9
		c1.5-2.2,3.2-4.3,5.1-6.3c1.3-1.2,1.3-5.5,1.3-5.5C724.3,632.4,719.9,636.2,718.6,638.3z"/>
	<polygon class="st7" points="727.6,628.6 727.6,628.6 727.6,628.6 	"/>
	<path class="st7" d="M684.9,626.7c-0.2,0.6-0.5,1.3-0.9,1.8c-0.7,1-2.4,0.4-2.4,0.4c1.1,0.8,2.4,7.1,2.9,10.9s0.7,7,0.7,7
		s0.4-5.7,0-7.5S684.9,626.7,684.9,626.7z"/>
	<path class="st7" d="M696.4,630.8c-0.4-0.7-0.7-1.4-0.9-2.2c0,0,0.2,11-0.2,12.6c-0.4,1.6,0,7.5,0,7.5s0.2-3.1,0.7-6.8
		c0.5-3.6,1.8-9.5,2.9-9.8C697.8,632.1,696.9,631.6,696.4,630.8z"/>
	<path class="st7" d="M713.5,574.7c-2.1-0.5-4.1-1.5-5.5-3c-1.8-1.8-6.4-4.3-8.2-5.2c-1.8-0.9-4.7-1.1-6-0.2
		c-1.1,0.7-2.3,1.4-3.5,1.9c0,0,0-1.1-2.7-3.1c-2.7-1.9-2.4-0.2-6.4,1.4c-4,1.6-14.2,3.7-14.2,3.7l0,0c0,0,5.5,0.8,8,0.4
		s9.3-3.7,11.1-3.4c1.8,0.3,4.7,4.3,4.7,4.3c0,0,3.8-2.2,6.6-2.2c2.9-0.1,8.6,4.4,9.5,5.2S715,574.9,713.5,574.7z"/>
	<path class="st3" d="M682.8,622.4c-0.2-0.8,0.3,0.1-1.1-3.7c-1.4-3.7-1.8-3.6-2.1-4.3c0.7,1.5,1.2,3,1.7,4.5
		c0.2,1.3,0.9,2.5,0.1,2.8c-0.9,0.3-1.8,0.4-2.7,0.5c-0.9,0.1-2.8-0.4-7.1-3.4c-1.3-0.9-1-1.8-2-3.1c-1-1.3-4.7-5.9-5.5-7.2
		s2.1-0.5,4-0.1l0,0c0,0-7.6-2.8-2.6,2.6c1.3,1.4,2.4,2.9,3.4,4.4c0.5,1,0.6,2.6,2.3,4.3c1.7,1.7,5.4,3.7,7.8,3.3
		c1.4-0.2,2.4,0,2.9,1s0.3,1.6,0.7,1.7c0.5,0.1,1-0.5,0.8-1.2C683.2,623.8,683,623.2,682.8,622.4z"/>
	<path class="st3" d="M676.2,610.8c-0.7-0.5-2.9-1.6-3.8-1.6s-1.5-0.7-2.2-0.4c-0.6,0.3-1.1,0.5-1.4,2c-0.1,1.9,1.1,3.7,3.1,4.5
		c2.7,1,3.4-0.4,3.6-1.7c0.2-1.2-1.1-2.9-2.1-3.5c-0.2-0.1-0.3-0.2-0.5-0.2c0.2,0.1,0.3,0.1,0.5,0.2c0.4,0.2,0.9,0.3,1.4,0.4
		c1.2,0.2,2.4,1.1,3,1.2c0.3,0,0.5,0.1,0.7,0.2l-0.3-0.2C677.6,611.5,676.9,611.2,676.2,610.8z"/>
	<path class="st3" d="M678.7,611.9L678.7,611.9L678.7,611.9z"/>
	<path class="st3" d="M673.6,610.1c-0.1-0.1-0.3-0.2-0.5-0.2C673.2,609.9,673.4,610,673.6,610.1z"/>
	<path class="st3" d="M661.8,607.5L661.8,607.5z"/>
	<path class="st3" d="M675.4,609.2c-1.5-0.8-3.1-1.4-4.9-1.6c-1.9-0.3-3.8-0.6-5.7-0.7c-0.8,0-1.6,0.1-2.4,0.3
		c2.8,0.1,8.7,0.6,12.3,2.1c0.6,0.3,2.9,1.7,3.7,2.3h0.1C677.7,610.6,676.7,609.8,675.4,609.2z"/>
	<path class="st3" d="M661.8,607.5c-0.1,0,0.1-0.2,0.6-0.3C660.7,607.2,660.1,607.4,661.8,607.5z"/>
	<polygon class="st0" points="674.9,612.5 674.9,612.5 674.9,612.5 	"/>
	<path class="st0" d="M672.8,610.1c-1.7-0.6-2.3,0.1-2.4,1s0.7,1.4,1.5,1.7c0.8,0.3,1.4-0.4,1.2-0.9c-0.2-0.5-0.3-1.2-0.3-1.2
		s1.9,1.2,2,1.8C674.6,611.5,673.9,610.6,672.8,610.1z"/>
	<path class="st3" d="M714.5,617.1L714.5,617.1c1.9,0.3,4.8,0.6,4,1.6s-4.5,4.2-5.5,5.1c-1,1-0.7,2-2,2.4c-4.3,1.4-6.2,1.2-7.1,0.8
		c-0.9-0.4-1.9-0.9-2.7-1.5c-0.8-0.6-0.1-1.5,0.1-2.7c0.2-1.2,2-4.4,1.7-3.9s-0.7,0.3-2.1,3.5c-1.4,3.2-0.9,2.6-1.1,3.2
		s-0.4,1.2-0.7,1.9c-0.2,0.6,0.2,1.2,0.8,1.5c0.4,0.1,0.3-0.6,0.7-1.4s1.5-0.6,2.9,0.1c2.4,1.3,6.1,0.6,7.8-0.4
		c1.7-1,1.8-2.6,2.3-3.4c0.9-1.2,2.1-2.3,3.4-3.2C722.1,617,714.5,617.1,714.5,617.1z"/>
	<path class="st3" d="M720.8,618.4L720.8,618.4z"/>
	<path class="st3" d="M720.8,618.4c1.7,0.5,1.1,0.1-0.6-0.5C720.7,618.2,720.9,618.4,720.8,618.4z"/>
	<path class="st3" d="M712.1,615.3c-1.6-0.4-3.2-0.5-4.9-0.2c-2.4,0.3-2.6,1-3.1,1.3h0.1c1.2-0.4,2.5-0.7,3.7-0.9
		c3.5-0.3,9.5,1.4,12.3,2.4c-0.7-0.5-1.6-0.9-2.4-1.2C715.9,616.2,714,615.7,712.1,615.3z"/>
	<path class="st3" d="M704.7,616.6c0.6,0.2,1.7-0.3,3-0.1c0.5,0.1,0.9,0.1,1.4,0.1c0.2-0.1,0.3-0.1,0.5-0.1c-0.2,0-0.3,0.1-0.5,0.1
		c-1.3,0.4-2.1,1.6-2.1,2.8c0.2,1.4,0.9,3.1,3.7,3.1c1.8,0,3.2-1.3,3.2-2.9c0-0.2,0-0.3,0-0.4c0-1-0.5-1.9-1.4-2.5
		c-0.6-0.5-1.2,0-2.2-0.4c-0.9-0.4-3.1,0-3.8,0.2c-0.7,0.1-1.5,0.2-2.2,0.1l-0.3,0.1C704.2,616.5,704.5,616.5,704.7,616.6z"/>
	<path class="st3" d="M709,616.6c0.2,0,0.3,0,0.5-0.1C709.3,616.5,709.2,616.6,709,616.6z"/>
	<polygon class="st0" points="707.7,618.6 707.7,618.6 707.7,618.6 	"/>
	<path class="st0" d="M709.8,617c-1.6,0-2.1,1.6-2.1,1.6c0.1-0.6,2-1,2-1s-0.1,0.6-0.3,1c-0.2,0.5,0.4,1.4,1.2,1.4
		c0.8-0.1,1.5-0.3,1.5-1.1c0-1.1-1-1.9-2.2-1.8C709.9,617,709.8,617,709.8,617z"/>
	<path class="st1" d="M913.5,296.3v736c94.5,0.2,189-17.8,283.5-72.1V224.3C1102.5,278.5,1008,296.5,913.5,296.3z"/>
</g>
</svg>
