<?xml version="1.0" encoding="utf-8"?>
<!-- Generator: Adobe Illustrator 24.2.0, SVG Export Plug-In . SVG Version: 6.00 Build 0)  -->
<svg version="1.1" id="Layer_1" xmlns="http://www.w3.org/2000/svg" xmlns:xlink="http://www.w3.org/1999/xlink" x="0px" y="0px"
	 viewBox="0 0 1260 1260" style="enable-background:new 0 0 1260 1260;" xml:space="preserve">
<style type="text/css">
	.st0{fill:#CF142B;}
	.st1{fill:#00247D;}
	.st2{fill:#FFFFFF;}
	.st3{fill:#007934;}
	.st4{fill:#F3CC00;}
	.st5{fill:none;stroke:#000000;stroke-width:1.7998;stroke-linecap:round;stroke-linejoin:round;}
</style>
<g>
	<path class="st0" d="M63,294.7v736c378-217.1,756,146.6,1134-70.5v-736C819,441.3,441,77.7,63,294.7z"/>
	<path class="st1" d="M630,259.5c-189-36.6-378-73.3-567,35.3v368c189-108.5,378-71.9,567-35.3V259.5z"/>
	<path class="st2" d="M630,300.6v-41.1c-21.1-4.1-42.3-8.2-63.4-12.1C398.7,325.4,230.9,416.3,63,621.6v41.1
		c20.3-11.7,41.5-22.1,63.4-31.2C294.3,453.4,462.1,377,630,300.6z"/>
	<path class="st2" d="M630,627.5v-41.1c-167.9-141.5-335.7-283-503.6-322.8c-21.9,9.1-43.1,19.5-63.4,31.2v41.1
		c167.9,12.6,335.7,139.6,503.6,279.5C587.7,619.3,608.9,623.4,630,627.5z"/>
	<path class="st2" d="M630,382.1c-189-36.6-378-73.3-567,35.2v122.7c189-108.5,378-71.9,567-35.2V382.1z"/>
	<path class="st2" d="M393.8,592.2v-368c-31.5-2-63-2-94.5,0v368C330.7,590.2,362.3,590.2,393.8,592.2z"/>
	<path class="st0" d="M630,406.7C441,370,252,333.4,63,441.9v73.6c189-108.5,378-71.9,567-35.2V406.7z"/>
	<path class="st0" d="M441,473.5c63,47.7,126,100.8,189,153.9v-27.4c-48.9-41.2-97.8-82.5-146.7-121.2
		C469.2,476.9,455.1,475.1,441,473.5z"/>
	<path class="st0" d="M441,350.9c63-34,126-62.7,189-91.4c-14.1-2.7-28.2-5.5-42.3-8.1c-63,28.9-126,59.1-189,95.8
		C412.8,348.1,426.9,349.3,441,350.9z"/>
	<path class="st0" d="M252,351.9c-63-31.6-126-52.4-189-57.2v27.4c48.9,3.7,97.8,17,146.7,37.6C223.8,356.6,237.9,353.9,252,351.9z"
		/>
	<path class="st0" d="M294.3,469.9c-14.1,1.1-28.2,2.6-42.3,4.7c-63,50.2-126,111.1-189,188.2c14.1-8.1,28.2-15.4,42.3-21.9
		C168.3,570.7,231.3,515.5,294.3,469.9z"/>
	<path class="st3" d="M800.2,656.5c0,81.5,62.6,164.1,113.3,191.8c50.8-26.9,113.3-111.7,113.3-193.7v-61.2
		c-75.6,13.8-151.2,11.3-226.7,1.9C800.1,615.6,800.1,636.1,800.2,656.5z"/>
	<path d="M798.3,656.3c0,26.2,6.6,68.5,38.1,117.8c21.1,33,48.9,61.2,76.4,76.5l0.7,0.4l0.7-0.4c27.5-15.1,55.3-43.4,76.4-76.9
		c31.5-50.2,38.1-93.3,38.1-119.4v-63.7c-76.8,14.3-153.7,11.7-230.5,2L798.3,656.3z M1025,596.2v58.8c0,25.3-6.5,66.9-37.2,115.8
		c-20.5,32.5-47.5,60-74.3,74.9c-26.7-15-53.8-42.5-74.3-74.6c-30.7-48-37.2-89-37.2-114.4c0-19.6,0-39.2,0-58.8
		C876.3,607.1,950.7,609.4,1025,596.2L1025,596.2z"/>
	<path class="st4" d="M1004.6,687.1c0.5-1.1,1-2.3,1.4-3.4c-6.2,0.9-12.3,1.7-18.5,2.3c3.1-7.3,6.2-14.6,9.2-21.9l-2.9,0.4
		c-0.3-4.6-0.6-9.2-1-13.8c-3.3,2.4-6.5,4.7-9.8,7l-1.4-3.1c-3.1,7.2-6.2,14.4-9.2,21.6c-3.1-6.7-6.2-13.3-9.3-20.1
		c-0.5,1.1-0.9,2.2-1.4,3.3c-3.2-1.7-6.5-3.5-9.8-5.3c-0.3,4.6-0.6,9.3-0.9,14l-2.9,0.1c3.1,6.8,6.2,13.5,9.3,20.3
		c-2.7,0.2-5.4,0.3-8.1,0.4c0.4,0.9,0.8,1.8,1.3,2.7c-2.6,2.5-5.1,4.9-7.7,7.4c2.6,2.2,5.2,4.5,7.7,6.7l-1.3,2.9
		c5.4-0.3,10.8-0.6,16.2-1l0.1,0.1c-12.8,25.5-30.2,49.6-49.6,67.9v-96.5c4.7,3.5,9.3,6.9,14,10.3c0-1.1,0-2.2,0-3.2
		c3.1-0.4,6.3-0.9,9.4-1.3c-1.3-3.6-2.7-7.3-4-10.9l2.1-1.7c-2.3-1.7-4.7-3.4-7-5c5.4-4.1,10.7-8.3,16.1-12.6
		c-0.8-0.6-1.7-1.1-2.5-1.7c1.5-4.3,3-8.6,4.6-12.9c-3.6-0.2-7.2-0.5-10.7-0.8c0-1.2,0-2.5,0-3.7c-5.3,4.2-10.7,8.3-16,12.3v-24
		l-2.5,1.9c-2.1-3.8-4.1-7.6-6.2-11.4c-2.1,3.8-4.1,7.6-6.2,11.4l-2.5-1.9v24c-5.3-4.1-10.7-8.2-16-12.4c0,1.2,0,2.5,0,3.7
		c-3.6,0.3-7.2,0.5-10.7,0.8c1.5,4.3,3,8.5,4.6,12.8l-2.5,1.8c5.3,4.2,10.7,8.4,16,12.5c-2.3,1.7-4.7,3.4-7,5l2.2,1.7
		c-1.3,3.6-2.7,7.3-4,10.9c3.1,0.5,6.3,0.9,9.4,1.3c0,1.1,0,2.2,0,3.2c4.7-3.4,9.4-6.8,14-10.3c0,32.1,0,64.2,0,96.3
		c-19.4-18.4-36.7-42.5-49.5-67.9l0-0.1c5.4,0.3,10.8,0.6,16.2,0.9l-1.3-2.9c2.6-2.2,5.2-4.4,7.7-6.7c-2.6-2.4-5.1-4.9-7.7-7.3
		c0.4-0.9,0.9-1.8,1.3-2.7c-2.7-0.1-5.4-0.3-8.1-0.4c3.1-6.8,6.2-13.5,9.3-20.3l-2.9-0.1c-0.3-4.7-0.6-9.3-0.9-14
		c-3.3,1.8-6.5,3.6-9.8,5.4c-0.5-1.1-0.9-2.2-1.4-3.3c-3.1,6.7-6.2,13.5-9.3,20.2c-3.1-7.1-6.2-14.3-9.2-21.5
		c-0.5,1-0.9,2.1-1.4,3.1c-3.3-2.2-6.5-4.5-9.8-6.8c-0.3,4.6-0.6,9.2-1,13.8l-2.9-0.3c3.1,7.2,6.2,14.4,9.2,21.6
		c-6.2-0.5-12.3-1.1-18.5-1.8c0.5,1.1,1,2.2,1.4,3.4c-2.9,2.4-5.9,4.7-8.8,7c2.9,3,5.9,6,8.8,9l-1.4,3c6.2,0.6,12.3,1.2,18.5,1.8
		c-1.3,2.9-2.7,5.8-4.1,8.7l2.5,0.2c0.3,4.1,0.5,8.2,0.8,12.2c2.8-1.5,5.7-3,8.5-4.4l1.2,2.9c2.7-5.9,5.4-11.7,8.1-17.6l0.2-0.1
		c13.9,28,32.6,53.4,54,73.1v40.8h2.8h2.8c0-13.5,0-27.1,0-40.6c21.5-19.5,40.1-45,54.1-73.1l0.1,0.1c2.7,5.8,5.4,11.7,8.1,17.5
		c0.4-1,0.8-2,1.2-2.9c2.8,1.4,5.7,2.9,8.5,4.3l0.8-12.3l2.5-0.3c-1.3-2.9-2.7-5.7-4.1-8.6c6.2-0.7,12.3-1.5,18.5-2.3
		c-0.5-1-1-2-1.4-3c2.9-3.1,5.9-6.2,8.8-9.3C1010.5,691.6,1007.5,689.4,1004.6,687.1z"/>
	<path class="st3" d="M913.5,622.7c-0.3,0-0.5,0.3-0.5,0.6V674c0,0.3,0.2,0.6,0.5,0.6s0.5-0.3,0.5-0.6v-50.6
		C914,623,913.7,622.7,913.5,622.7z"/>
	<path class="st3" d="M935.5,681.3c-17.2-11.9-34.5-24.4-51.7-37.6c-0.2-0.2-0.5-0.1-0.6,0.2c-0.1,0.3-0.1,0.6,0.2,0.8
		c17.2,13.1,34.5,25.6,51.7,37.6c0.1,0,0.1,0.1,0.2,0.1c0.2,0,0.4-0.2,0.4-0.3C935.8,681.9,935.7,681.6,935.5,681.3z"/>
	<path class="st3" d="M943.2,643.7c-17.3,13.2-34.5,25.7-51.8,37.6c-0.2,0.2-0.3,0.5-0.2,0.8c0,0.2,0.2,0.3,0.4,0.3
		c0.1,0,0.2,0,0.2-0.1c17.3-11.9,34.5-24.5,51.8-37.6c0.2-0.2,0.3-0.6,0.2-0.8C943.7,643.7,943.4,643.6,943.2,643.7z"/>
	<path class="st5" d="M907.8,576.5"/>
	<path class="st3" d="M919.4,630.1c-0.2-0.2-0.5-0.1-0.6,0.2c-1.7,4-3.5,7.9-5.3,11.9c-1.8-4-3.5-7.9-5.3-11.9
		c-0.1-0.3-0.4-0.4-0.6-0.2c-0.2,0.2-0.3,0.5-0.2,0.8c1.9,4.3,3.8,8.5,5.7,12.8c0,0.2,0.2,0.3,0.4,0.3c0.2,0,0.4-0.1,0.4-0.3
		c1.9-4.3,3.8-8.5,5.7-12.8C919.7,630.6,919.7,630.3,919.4,630.1z"/>
	<path class="st5" d="M885.6,601.9"/>
	<path class="st3" d="M891.7,641.6c-0.1-0.3-0.4-0.4-0.6-0.2c-0.2,0.2-0.3,0.5-0.2,0.8c1.7,3.8,3.5,7.7,5.2,11.5
		c-3.5-0.1-7-0.2-10.5-0.3c-0.3,0-0.5,0.3-0.5,0.6s0.2,0.6,0.5,0.6l0,0c3.8,0.1,7.6,0.2,11.4,0.3c0.2,0,0.4-0.1,0.4-0.3
		c0.1-0.2,0.1-0.4,0-0.6C895.5,649.9,893.6,645.7,891.7,641.6z"/>
	<path class="st3" d="M941.4,653.3c-3.5,0.1-7,0.2-10.5,0.3c1.7-3.8,3.5-7.6,5.2-11.5c0.1-0.3,0.1-0.6-0.2-0.8
		c-0.2-0.2-0.5-0.1-0.6,0.2c-1.9,4.1-3.8,8.3-5.7,12.4c-0.1,0.2-0.1,0.4,0,0.6c0,0.2,0.2,0.3,0.4,0.3c3.8-0.1,7.6-0.2,11.4-0.3l0,0
		c0.3,0,0.5-0.3,0.5-0.6S941.7,653.3,941.4,653.3z"/>
	<path class="st5" d="M933.3,616.9"/>
	<path class="st5" d="M893.6,619.4"/>
	<path class="st3" d="M989.7,658.3c-0.2-0.1-0.5,0-0.6,0.3c-6.5,15.4-13,30.6-19.5,45.8c-0.1,0.3,0,0.6,0.2,0.8
		c0.1,0,0.1,0.1,0.2,0.1c0.2,0,0.4-0.2,0.4-0.3c6.5-15.2,13-30.4,19.5-45.8C990,658.8,990,658.5,989.7,658.3z"/>
	<path class="st3" d="M955.7,660.8c-0.1-0.3-0.4-0.4-0.6-0.2c-0.2,0.2-0.3,0.6-0.2,0.8c10.1,21.3,20.3,42.4,30.4,63.3
		c0.1,0.2,0.2,0.3,0.4,0.3c0.1,0,0.2-0.1,0.2-0.1c0.2-0.2,0.3-0.6,0.2-0.9C976,703.2,965.9,682.1,955.7,660.8z"/>
	<path class="st3" d="M1007.2,693.9c-19.7,2.4-39.4,3.9-59.3,4.4l0,0c-0.3,0-0.5,0.3-0.5,0.6c0,0.3,0.2,0.6,0.5,0.6
		c19.8-0.5,39.6-2,59.3-4.4l0,0c0.3-0.1,0.5-0.4,0.5-0.7C1007.6,694.2,1007.4,693.9,1007.2,693.9z"/>
	<path class="st5" d="M981.8,606.9"/>
	<path class="st3" d="M991.4,668.1c-3.1,2.6-6.1,5.2-9.2,7.8v-13.7c0-0.3-0.2-0.6-0.5-0.6l0,0c-0.3,0.1-0.5,0.4-0.5,0.7
		c0,4.9,0,9.8,0,14.8c0,0.2,0.1,0.4,0.2,0.5c0.1,0,0.2,0.1,0.2,0.1c0.1,0,0.2,0,0.2-0.1c3.3-2.8,6.6-5.6,9.9-8.4
		c0.2-0.2,0.3-0.6,0.2-0.9c0-0.2-0.2-0.3-0.4-0.3C991.6,668,991.5,668,991.4,668.1z"/>
	<path class="st5" d="M953.4,615"/>
	<path class="st3" d="M963,662.7c-0.3,0-0.5,0.3-0.5,0.7l0.2,13.2c-3.1-2.1-6.1-4.1-9.1-6.2c-0.2-0.2-0.5,0-0.6,0.3
		c-0.1,0.3-0.1,0.6,0.2,0.8c3.3,2.3,6.6,4.5,9.9,6.7c0.1,0,0.2,0.1,0.2,0.1c0.1,0,0.2,0,0.2-0.1c0.2-0.2,0.2-0.4,0.2-0.6
		c-0.1-4.8-0.1-9.5-0.2-14.3C963.5,662.9,963.3,662.7,963,662.7z"/>
	<path class="st3" d="M1001.9,701.8c-3-1.9-6.1-3.8-9.1-5.7c3-2.5,5.9-5,8.9-7.6c0.2-0.2,0.3-0.6,0.2-0.9c0-0.2-0.2-0.3-0.4-0.3
		c-0.1,0-0.2,0.1-0.2,0.1c-3.2,2.8-6.4,5.5-9.6,8.2c-0.2,0.2-0.2,0.4-0.2,0.6c0,0.2,0.1,0.4,0.2,0.5c3.3,2.1,6.6,4.1,9.8,6.2
		c0.1,0,0.2,0.1,0.2,0c0.2,0,0.3-0.2,0.4-0.4C1002.2,702.3,1002.2,702,1001.9,701.8z"/>
	<path class="st5" d="M987.7,659.4"/>
	<path class="st5" d="M953.3,635.8"/>
	<path class="st3" d="M837.9,658.8c-0.1-0.3-0.4-0.4-0.6-0.3c-0.2,0.2-0.3,0.5-0.2,0.8c6.5,15.2,13,30.4,19.5,45.5
		c0.1,0.2,0.2,0.3,0.4,0.3c0.1,0,0.2,0,0.2-0.1c0.2-0.2,0.3-0.5,0.2-0.8C850.9,689.1,844.4,674,837.9,658.8z"/>
	<path class="st3" d="M871.9,660.4c-0.2-0.2-0.5-0.1-0.6,0.2c-10.1,21.4-20.3,42.6-30.4,63.6c-0.1,0.3-0.1,0.6,0.2,0.9
		c0.1,0.1,0.2,0.1,0.2,0.1c0.2,0,0.4-0.1,0.4-0.3c10.1-21.1,20.3-42.3,30.4-63.6C872.2,660.9,872.2,660.6,871.9,660.4z"/>
	<path class="st3" d="M879.1,698.1L879.1,698.1c-19.8-0.5-39.5-1.7-59.3-3.4c-0.3,0-0.5,0.2-0.5,0.6c0,0.3,0.2,0.6,0.5,0.7l0,0
		c19.8,1.7,39.5,2.9,59.3,3.4c0.3,0,0.5-0.3,0.5-0.6C879.6,698.4,879.4,698.1,879.1,698.1z"/>
	<path class="st3" d="M845.2,661.7L845.2,661.7c-0.3,0-0.5,0.2-0.5,0.6V676c-3-2.5-6.1-5.1-9.2-7.6c-0.2-0.2-0.5-0.1-0.6,0.2
		c-0.1,0.3-0.1,0.6,0.2,0.9c3.3,2.8,6.6,5.5,9.9,8.2c0.1,0.1,0.1,0.1,0.2,0.1c0.1,0,0.2,0,0.2-0.1c0.2-0.1,0.2-0.3,0.2-0.5
		c0-4.9,0-9.8,0-14.8C845.7,662,845.5,661.7,845.2,661.7z"/>
	<path class="st3" d="M873.4,670.1c-3,2.1-6.1,4.2-9.1,6.3l0.2-13.2c0-0.3-0.2-0.6-0.5-0.7c-0.3,0-0.5,0.2-0.5,0.6
		c-0.1,4.8-0.1,9.5-0.2,14.3c0,0.2,0.1,0.4,0.2,0.6c0.1,0.1,0.1,0.1,0.2,0.1c0.1,0,0.2,0,0.2-0.1c3.3-2.3,6.6-4.5,9.9-6.8
		c0.2-0.2,0.3-0.5,0.2-0.8C873.9,670,873.6,669.9,873.4,670.1z"/>
	<path class="st5" d="M825.3,658.9"/>
	<path class="st3" d="M835.4,696c-3.2-2.6-6.4-5.2-9.6-7.9c-0.2-0.2-0.5-0.1-0.6,0.2c-0.1,0.3-0.1,0.6,0.2,0.9
		c3,2.4,5.9,4.9,8.9,7.3c-3,2-6.1,4-9.1,6c-0.2,0.2-0.3,0.5-0.2,0.8c0.1,0.2,0.2,0.3,0.4,0.4c0.1,0,0.2,0,0.2-0.1
		c3.3-2.1,6.6-4.3,9.8-6.4c0.2-0.1,0.2-0.3,0.2-0.5C835.6,696.3,835.5,696.1,835.4,696z"/>
	<path class="st2" d="M800.1,595.3c75.6,9.4,151.2,11.9,226.8-1.9V470.7c-75.6,13.8-151.2,11.3-226.8,1.9V595.3z"/>
	<path class="st0" d="M902.9,603c7.1,0.1,14.2,0.1,21.3,0V480.3c-7.1,0.1-14.2,0.1-21.3,0V603z"/>
	<path class="st0" d="M800.1,547.7c75.6,9.4,151.2,11.9,226.8-1.9v-27.6c-75.6,13.8-151.2,11.3-226.8,1.9V547.7z"/>
	<path d="M798.2,597.5c76.9,9.7,153.7,12.3,230.6-2V467.8c-76.9,14.3-153.7,11.7-230.6,2V597.5z M802,475.2
		c74.3,9.2,148.7,11.5,223-1.8v117.9c-74.3,13.3-148.7,11-223,1.8L802,475.2z"/>
	<path class="st0" d="M374.9,591.2v-368c-18.9-0.7-37.8-0.8-56.7-0.1v368C337,590.4,356,590.5,374.9,591.2z"/>
</g>
</svg>
