<svg xmlns="http://www.w3.org/2000/svg" viewBox="0 0 1260 1012.04">
  <g>
    <path d="M0,90.08v920C420,738.76,840,1193.28,1260,922V2C840,273.28,420-181.24,0,90.08Z" style="fill: #cf142b"/>
    <path d="M630,46C420,.22,210-45.58,0,90.08v460C210,414.42,420,460.22,630,506Z" style="fill: #00247d"/>
    <path d="M630,97.39V46c-23.48-5.12-47-10.24-70.43-15.11C373,128.44,186.52,242,0,498.65v51.43a577.18,577.18,0,0,1,70.44-39C257,288.45,443.48,192.92,630,97.39Z" style="fill: #fff"/>
    <path d="M630,506V454.59C443.48,277.72,257,100.85,70.44,51.12A577.18,577.18,0,0,0,0,90.08v51.43c186.52,15.7,373,174.55,559.57,349.4C583,495.78,606.52,500.9,630,506Z" style="fill: #fff"/>
    <path d="M630,199.36c-210-45.81-420-91.61-630,44V396.74c210-135.65,420-89.85,630-44.05Z" style="fill: #fff"/>
    <path d="M367.5,461.9V1.9a728.67,728.67,0,0,0-105,0v460A728.67,728.67,0,0,1,367.5,461.9Z" style="fill: #fff"/>
    <path d="M630,230c-210-45.8-420-91.6-630,44.06v92C210,230.42,420,276.22,630,322Z" style="fill: #cf142b"/>
    <path d="M420,313.61c70,59.66,140,126,210,192.41V471.74C575.65,420.2,521.31,368.67,467,320.28Q443.49,316.52,420,313.61Z" style="fill: #cf142b"/>
    <path d="M420,160.27C490,117.71,560,81.87,630,46c-15.65-3.41-31.3-6.83-47-10.16C513,72,443,109.72,373,155.62Q396.53,157.38,420,160.27Z" style="fill: #cf142b"/>
    <path d="M210,161.52C140,122,70,96,0,90.08v34.29c54.35,4.57,108.7,21.3,163.05,47Q186.52,165.37,210,161.52Z" style="fill: #cf142b"/>
    <path d="M257,309c-15.65,1.33-31.31,3.25-47,5.85C140,377.58,70,453.75,0,550.08q23.48-15.18,47-27.39C117,435,187,366.05,257,309Z" style="fill: #cf142b"/>
    <path d="M819.07,542.27C819.12,644.13,888.58,747.36,945,782c56.41-33.67,125.87-139.68,125.93-242.14l0-76.53c-84,17.22-168,14.14-251.93,2.35Q819,504,819.07,542.27Z" style="fill: #007934"/>
    <path d="M817,542c0,32.73,7.38,85.57,42.35,147.26,23.41,41.19,54.34,76.55,84.85,95.62l.83.52.82-.52c30.52-18.9,61.44-54.29,84.85-96.17,35-62.81,42.34-116.61,42.36-149.22l0-79.6c-85.37,17.86-170.75,14.62-256.13,2.48Zm251.89-75.12,0,73.46c0,31.57-7.2,83.66-41.31,144.71-22.79,40.67-52.83,75.06-82.52,93.67-29.7-18.77-59.73-53.15-82.53-93.2-34.1-60-41.28-111.26-41.3-142.94q0-36.73,0-73.48C903.71,480.53,986.29,483.47,1068.86,466.86Z"/>
    <path d="M1046.21,580.58c.54-1.42,1.08-2.84,1.61-4.26q-10.27,1.65-20.56,2.93,5.13-13.62,10.26-27.33l-3.18.48q-.54-8.64-1.07-17.26-5.43,4.41-10.86,8.72l-1.58-3.86q-5.13,13.56-10.25,27-5.15-12.48-10.3-25.07c-.52,1.39-1,2.77-1.57,4.15q-5.41-3.27-10.84-6.64-.51,8.71-1,17.44l-3.18.15q5.16,12.71,10.3,25.34c-3,.2-6,.39-9,.55.47,1.14.94,2.28,1.42,3.42q-4.29,4.62-8.58,9.19,4.29,4.19,8.59,8.32L985,607.46q9-.5,18-1.24l.16.12c-14.22,31.92-33.55,61.94-55.07,84.83V570.57q7.79,6.54,15.58,12.91c0-1.35,0-2.71,0-4.06q5.22-.78,10.44-1.65-2.22-6.82-4.43-13.67L972,562q-3.88-3.13-7.79-6.31Q973.15,548,982.06,540c-.93-.71-1.85-1.43-2.77-2.15q2.54-8,5.07-16.07-6-.42-11.93-1c0-1.54,0-3.09,0-4.63q-8.91,7.83-17.82,15.42v-30l-2.74,2.37q-3.45-7.12-6.89-14.28-3.45,7.14-6.89,14.25l-2.74-2.38v30q-8.91-7.64-17.82-15.47c0,1.55,0,3.09,0,4.64q-6,.53-11.92,1,2.52,8,5.06,16L907.94,540q8.91,7.93,17.82,15.67-3.9,3.18-7.79,6.31l2.41,2.09q-2.21,6.84-4.43,13.66,5.22.87,10.44,1.67c0,1.36,0,2.71,0,4.06q7.8-6.35,15.59-12.85,0,60.18,0,120.36c-21.51-23-40.8-53.07-55-84.84L887,606q9,.65,18,1.12l-1.41-3.57q4.3-4.16,8.59-8.34-4.29-4.56-8.58-9.17c.48-1.14,1-2.28,1.42-3.42q-4.5-.24-9-.52,5.15-12.66,10.3-25.38l-3.18-.14q-.51-8.72-1-17.44-5.42,3.39-10.84,6.71c-.53-1.38-1-2.76-1.57-4.14q-5.15,12.63-10.3,25.2-5.13-13.39-10.25-26.85c-.53,1.29-1,2.59-1.58,3.88q-5.43-4.19-10.86-8.44-.53,8.65-1.07,17.3l-3.18-.37q5.13,13.53,10.26,27-10.28-1-20.56-2.24c.53,1.39,1.07,2.79,1.61,4.19q-4.9,4.43-9.82,8.81,4.9,5.61,9.8,11.19l-1.61,3.81q10.27,1.21,20.56,2.24-2.25,5.46-4.51,10.9l2.79.26q.43,7.65.89,15.3,4.74-2.76,9.49-5.56l1.38,3.65q4.5-11,9-22l.17-.12c15.5,35,36.17,66.79,60,91.36v51l3.07,0,3.06,0q0-25.39,0-50.8c23.86-24.41,44.56-56.22,60.09-91.39l.09.07q4.5,10.95,9,21.82c.45-1.22.91-2.44,1.37-3.67q4.75,2.71,9.49,5.35l.9-15.33,2.78-.33q-2.25-5.38-4.51-10.79,10.29-1.28,20.56-2.92c-.53-1.25-1.07-2.49-1.61-3.74q4.9-5.77,9.8-11.63Q1051.13,584.81,1046.21,580.58Z" style="fill: #f3cc00"/>
    <path d="M945,500.07c-.29,0-.52.35-.52.77v63.31c0,.42.23.77.52.77s.53-.34.53-.77V500.84C945.5,500.42,945.26,500.08,945,500.07Z" style="fill: #007934"/>
    <path d="M969.46,573.34Q940.75,551,912,526.38c-.25-.21-.57-.09-.71.27a1,1,0,0,0,.2,1.05q28.72,24.59,57.43,47a.43.43,0,0,0,.26.09.58.58,0,0,0,.46-.41A1,1,0,0,0,969.46,573.34Z" style="fill: #007934"/>
    <path d="M978,526.34q-28.79,24.67-57.57,47a1,1,0,0,0-.2,1,.53.53,0,0,0,.46.41.33.33,0,0,0,.25-.09q28.79-22.38,57.57-47a1,1,0,0,0,.2-1.06C978.54,526.24,978.22,526.12,978,526.34Z" style="fill: #007934"/>
    <path d="M938.66,442.34" style="fill: none;stroke: #000;stroke-linecap: round;stroke-linejoin: round;stroke-width: 1.9997999668121338px"/>
    <path d="M951.61,509.26c-.25-.21-.58-.09-.72.28Q948,517,945,524.36q-2.94-7.41-5.89-14.84c-.14-.37-.46-.5-.72-.29a1,1,0,0,0-.19,1q3.18,8,6.35,16a.51.51,0,0,0,.45.38.5.5,0,0,0,.45-.38q3.18-8,6.35-16A1,1,0,0,0,951.61,509.26Z" style="fill: #007934"/>
    <path d="M914,474" style="fill: none;stroke: #000;stroke-linecap: round;stroke-linejoin: round;stroke-width: 1.9997999668121338px"/>
    <path d="M920.81,523.65c-.15-.37-.47-.5-.72-.29a1,1,0,0,0-.18,1q2.9,7.2,5.81,14.36-5.85-.13-11.71-.37c-.29,0-.52.33-.52.75s.24.77.52.79h0q6.32.24,12.63.39a.51.51,0,0,0,.45-.38,1.08,1.08,0,0,0,0-.77Q924,531.42,920.81,523.65Z" style="fill: #007934"/>
    <path d="M976,538.35q-5.87.23-11.71.35,2.91-7.16,5.81-14.35a1,1,0,0,0-.18-1c-.25-.21-.57-.08-.72.29q-3.13,7.75-6.29,15.5a1.08,1.08,0,0,0,0,.77.5.5,0,0,0,.45.38q6.31-.12,12.63-.37h0c.28,0,.52-.36.52-.79S976.28,538.34,976,538.35Z" style="fill: #007934"/>
    <path d="M967,492.78" style="fill: none;stroke: #000;stroke-linecap: round;stroke-linejoin: round;stroke-width: 1.9997999668121338px"/>
    <path d="M922.89,495.92" style="fill: none;stroke: #000;stroke-linecap: round;stroke-linejoin: round;stroke-width: 1.9997999668121338px"/>
    <path d="M1029.71,544.51c-.25-.18-.57,0-.71.37q-10.85,28.8-21.68,57.21a1,1,0,0,0,.2,1,.37.37,0,0,0,.26.08.59.59,0,0,0,.45-.43q10.85-28.42,21.68-57.24A.92.92,0,0,0,1029.71,544.51Z" style="fill: #007934"/>
    <path d="M991.91,547.62c-.15-.35-.47-.45-.72-.21a1,1,0,0,0-.18,1.06q16.9,40,33.8,79.09a.45.45,0,0,0,.45.32.45.45,0,0,0,.27-.14,1,1,0,0,0,.18-1.07Q1008.82,587.63,991.91,547.62Z" style="fill: #007934"/>
    <path d="M1049.06,589.11a599.22,599.22,0,0,1-65.86,5.5h0c-.28,0-.52.37-.52.79s.23.76.52.75a601.5,601.5,0,0,0,65.85-5.5h0a.81.81,0,0,0,.52-.84C1049.58,589.38,1049.35,589.07,1049.06,589.11Z" style="fill: #007934"/>
    <path d="M1020.87,480.27" style="fill: none;stroke: #000;stroke-linecap: round;stroke-linejoin: round;stroke-width: 1.9997999668121338px"/>
    <path d="M1031.6,556.79q-5.1,4.94-10.18,9.79l0-17.12c0-.43-.23-.74-.52-.71h0a.8.8,0,0,0-.53.83q0,9.23,0,18.44a.79.79,0,0,0,.26.63.36.36,0,0,0,.26.07.43.43,0,0,0,.26-.13q5.48-5.22,11-10.54a1.05,1.05,0,0,0,.19-1.08A.41.41,0,0,0,1031.6,556.79Z" style="fill: #007934"/>
    <path d="M989.28,490.4" style="fill: none;stroke: #000;stroke-linecap: round;stroke-linejoin: round;stroke-width: 1.9997999668121338px"/>
    <path d="M1000,550c-.29,0-.52.4-.51.82l.18,16.51q-5.09-3.86-10.15-7.79c-.26-.2-.58,0-.72.33a.93.93,0,0,0,.19,1q5.47,4.25,11,8.4a.4.4,0,0,0,.27.09.43.43,0,0,0,.26-.13,1,1,0,0,0,.26-.7q-.09-8.93-.19-17.85C1000.56,550.3,1000.32,550,1000,550Z" style="fill: #007934"/>
    <path d="M1043.26,598.91q-5.05-3.51-10.12-7.11,4.93-4.69,9.89-9.47a1.05,1.05,0,0,0,.2-1.07.41.41,0,0,0-.71-.19q-5.36,5.16-10.7,10.22a1,1,0,0,0-.27.7.77.77,0,0,0,.26.63q5.46,3.9,10.92,7.7a.45.45,0,0,0,.27.06.65.65,0,0,0,.45-.45A.9.9,0,0,0,1043.26,598.91Z" style="fill: #007934"/>
    <path d="M1027.44,545.89" style="fill: none;stroke: #000;stroke-linecap: round;stroke-linejoin: round;stroke-width: 1.9997999668121338px"/>
    <path d="M989.25,516.43" style="fill: none;stroke: #000;stroke-linecap: round;stroke-linejoin: round;stroke-width: 1.9997999668121338px"/>
    <path d="M861,545.15c-.14-.38-.46-.54-.71-.35a.91.91,0,0,0-.2,1q10.85,28.53,21.68,56.82a.6.6,0,0,0,.46.42.37.37,0,0,0,.26-.08,1,1,0,0,0,.19-1Q871.84,573.68,861,545.15Z" style="fill: #007934"/>
    <path d="M898.81,547.12c-.25-.24-.57-.14-.72.22q-16.9,40.06-33.8,79.51a1,1,0,0,0,.18,1.07.47.47,0,0,0,.27.14.46.46,0,0,0,.45-.33q16.89-39.47,33.8-79.55A1,1,0,0,0,898.81,547.12Z" style="fill: #007934"/>
    <path d="M906.81,594.3h0c-21.95-.61-43.91-2.09-65.86-4.23-.29,0-.52.3-.51.72a.78.78,0,0,0,.52.82h0c21.95,2.14,43.9,3.62,65.85,4.22.29,0,.53-.33.52-.75S907.09,594.31,906.81,594.3Z" style="fill: #007934"/>
    <path d="M869.13,548.83h0c-.29,0-.52.29-.52.72l0,17.12q-5.08-4.75-10.18-9.54c-.25-.24-.57-.14-.71.21a1,1,0,0,0,.19,1.07q5.48,5.16,11,10.27a.48.48,0,0,0,.26.12.37.37,0,0,0,.26-.08.79.79,0,0,0,.26-.63q0-9.23,0-18.44C869.66,549.22,869.42,548.86,869.13,548.83Z" style="fill: #007934"/>
    <path d="M900.45,559.25q-5.07,4-10.15,7.85l.18-16.5c0-.43-.22-.79-.51-.82s-.53.29-.54.72q-.09,8.93-.19,17.85a1,1,0,0,0,.26.69.43.43,0,0,0,.26.13.38.38,0,0,0,.27-.08q5.47-4.22,11-8.48a.94.94,0,0,0,.19-1C901,559.2,900.71,559.05,900.45,559.25Z" style="fill: #007934"/>
    <path d="M847,545.24" style="fill: none;stroke: #000;stroke-linecap: round;stroke-linejoin: round;stroke-width: 1.9997999668121338px"/>
    <path d="M858.18,591.63q-5.35-4.9-10.7-9.86c-.25-.24-.57-.14-.71.21a1,1,0,0,0,.2,1.07q4.95,4.59,9.89,9.13-5.05,3.75-10.12,7.46a.91.91,0,0,0-.19,1,.61.61,0,0,0,.45.44.39.39,0,0,0,.27-.07q5.46-4,10.92-8.06a.81.81,0,0,0,.26-.64A1,1,0,0,0,858.18,591.63Z" style="fill: #007934"/>
    <path d="M819,465.82c84,11.78,168,14.86,252-2.38V310c-84,17.24-168,14.17-252,2.38Z" style="fill: #fff"/>
    <path d="M933.2,475.38q11.81.21,23.62,0V322q-11.8.18-23.62,0Z" style="fill: #cf142b"/>
    <path d="M819,406.35c84,11.78,168,14.86,252-2.38V369.46c-84,17.24-168,14.17-252,2.38Z" style="fill: #cf142b"/>
    <path d="M816.9,468.56c85.39,12.13,170.79,15.36,256.18-2.51V306.47C987.69,324.34,902.29,321.11,816.9,309Zm4.2-152.85c82.59,11.44,165.19,14.38,247.78-2.25V460.78C986.29,477.4,903.69,474.47,821.1,463Z"/>
    <path d="M346.5,460.73V.73c-21-.91-42-1-63-.09v460C304.5,459.73,325.5,459.82,346.5,460.73Z" style="fill: #cf142b"/>
  </g>
</svg>
