<?xml version="1.0" encoding="utf-8"?>
<!-- Generator: Adobe Illustrator 24.2.0, SVG Export Plug-In . SVG Version: 6.00 Build 0)  -->
<svg version="1.1" id="Layer_1" xmlns="http://www.w3.org/2000/svg" xmlns:xlink="http://www.w3.org/1999/xlink" x="0px" y="0px"
	 viewBox="0 0 1260 1260" style="enable-background:new 0 0 1260 1260;" xml:space="preserve">
<style type="text/css">
	.st0{fill:#FFFFFF;}
	.st1{fill:#002495;}
</style>
<g>
	<path class="st0" d="M63,294.7v736c378-217.1,756,146.6,1134-70.5v-736C819,441.3,441,77.7,63,294.7z"/>
	<path class="st1" d="M535.5,241.9C378,214.7,220.5,204.3,63,294.7v276c157.5-90.5,315-80.1,472.5-52.9V241.9z"/>
	<path class="st0" d="M338.8,345.4c-15.1,5.5-25.1,23.7-25.7,49.8c-2.6,0.1-5.3,0.3-7.9,0.4c0-23.9,4.2-31.8,15.3-62.2
		c5.7-14.1,2.3-31.6-7.7-47.3c-3.8-5.6-8.2-10.9-13.2-15.8c-5,5.5-9.4,11.4-13.2,17.6c-10,16.9-13.4,34.8-7.7,48.4
		c11,28.9,15.3,36.2,15.3,60.1c-2.6,0.2-5.3,0.4-7.9,0.7c-0.4-26.3-10.6-42.9-25.7-46.3c-6.8-1.7-15.3,0.9-23.2,10.2
		c-9.8,11.7-12.7,38.8,16.1,39.4c-3.2-3.9-2.8-13.8,3.2-17.9c4.5-2.8,9.8-2.8,12.3-1c4,1.9,7.7,8.9,7.7,16.4
		c-4.5,0.5-9.1,1-13.6,1.6v14.9c9.5-1.2,18.9-2.2,28.4-3c-0.4,7.6-4.7,14.2-12.7,18.3c1.1,3.2,5.9,9.2,12.5,8.2
		c1.3,6.9,2.6,10.6,8.5,16.5c6-6.7,7.2-10.6,8.5-17.6c6.6,0,11.5-6.8,12.5-9.9c-7.9-3-12.3-9-12.7-16.5c9.4-0.5,18.9-0.8,28.4-0.9
		v-15c-4.5,0.1-9.1,0.2-13.6,0.3c0-7.5,3.8-15,7.7-17.5c2.5-1.9,7.6-2.9,12.3-0.7c6,3.5,6.2,13.1,3.2,17.5h0.4
		c28.7-4.9,25.9-31.6,16.1-41.8C354.1,344.1,345.4,342.8,338.8,345.4z"/>
	<path class="st1" d="M724.5,277.1v276c157.5,27.2,315,37.6,472.5-52.9v-276C1039.5,314.7,882,304.3,724.5,277.1z"/>
	<path class="st0" d="M1000.3,413.6c-15.1,7.3-25.1,25.8-25.7,52c-2.6,0.2-5.3,0.5-7.9,0.7c0-23.9,4.2-31.7,15.3-62.8
		c5.7-14.6,2.3-31.6-7.7-46.9c-3.6-5.4-8.1-10.3-13.2-15.5c-4.9,5.4-9.3,11.2-13.2,17.3c-10,16.5-13.4,34-7.7,48
		c11,29.6,15.3,36.8,15.3,60.7c-2.6,0.2-5.3,0.3-7.9,0.4c-0.4-26.3-10.6-43.2-25.7-48.4c-6.8-2.5-15.3-1.3-23.2,6.5
		c-9.8,9.4-12.7,36.7,16.1,42.1c-3.2-4.4-2.8-14.2,3.2-17.5c4.5-2.2,9.8-1.6,12.3,0.4c4,2.3,7.7,9.5,7.7,17.1
		c-4.5,0.1-9.1,0.2-13.6,0.3v14.9c9.5-0.1,18.9-0.4,28.4-0.9c-0.2,7.5-5.1,14.3-12.7,17.7c1.1,3.3,5.9,9.6,12.5,8.8
		c1.3,6.9,2.6,10.7,8.5,16.6c6-6.7,7.2-10.7,8.5-17.7c6.6-0.2,11.5-7.3,12.5-10.5c-7.9-2.5-12.3-8.4-12.7-16
		c9.5-0.8,18.9-1.8,28.3-3v-14.9c-4.5,0.6-9.1,1.1-13.6,1.6c0-7.5,3.8-15.3,7.7-18.2c3.4-2.6,8.1-3.4,12.3-2.1
		c6,2.6,6.2,12.2,3.2,17l0.4-0.1c28.7-9.7,25.9-36.7,16.1-44.5C1015.6,410.1,1006.9,410.1,1000.3,413.6z"/>
	<path class="st1" d="M63,754.7v276c157.5-90.5,315-80.1,472.5-52.9v-276C378,674.7,220.5,664.3,63,754.7z"/>
	<path class="st0" d="M338.8,805.4c-15.1,5.5-25.1,23.7-25.7,49.8c-2.6,0.1-5.3,0.3-7.9,0.4c0-23.9,4.2-31.8,15.3-62.2
		c5.7-14.1,2.3-31.6-7.7-47.3c-3.8-5.6-8.2-10.9-13.2-15.8c-5,5.5-9.4,11.4-13.2,17.6c-10,16.9-13.4,34.8-7.7,48.4
		c11,28.9,15.3,36.2,15.3,60.1c-2.6,0.2-5.3,0.4-7.9,0.7c-0.4-26.3-10.6-42.9-25.7-46.3c-6.8-1.7-15.3,0.9-23.2,10.2
		c-9.8,11.7-12.7,38.8,16.1,39.4c-3.2-3.9-2.8-13.8,3.2-17.9c4.5-2.8,9.8-2.8,12.3-1c4,1.9,7.7,8.9,7.7,16.4
		c-4.5,0.5-9.1,1-13.6,1.6v14.9c9.5-1.2,18.9-2.2,28.4-3c-0.4,7.6-4.7,14.2-12.7,18.3c1.1,3.2,5.9,9.2,12.5,8.2
		c1.3,6.9,2.6,10.6,8.5,16.5c6-6.7,7.2-10.6,8.5-17.6c6.6,0,11.5-6.8,12.5-9.9c-7.9-3-12.3-9-12.7-16.5c9.4-0.5,18.9-0.8,28.4-0.9
		v-15c-4.5,0.1-9.1,0.2-13.6,0.3c0-7.5,3.8-15,7.7-17.5c2.5-1.9,7.6-2.9,12.3-0.7c6,3.5,6.2,13.1,3.2,17.5h0.4
		c28.7-4.9,25.9-31.6,16.1-41.8C354.1,804.1,345.4,802.8,338.8,805.4z"/>
	<path class="st1" d="M724.5,1013.1c157.5,27.2,315,37.6,472.5-52.9v-276c-157.5,90.4-315,80.1-472.5,52.9V1013.1z"/>
	<path class="st0" d="M1000.3,873.6c-15.1,7.3-25.1,25.8-25.7,52c-2.6,0.2-5.3,0.5-7.9,0.7c0-23.9,4.2-31.7,15.3-62.8
		c5.7-14.6,2.3-31.6-7.7-46.9c-3.6-5.4-8.1-10.3-13.2-15.5c-4.9,5.4-9.3,11.2-13.2,17.3c-10,16.5-13.4,34-7.7,48
		c11,29.6,15.3,36.8,15.3,60.7c-2.6,0.2-5.3,0.3-7.9,0.4c-0.4-26.3-10.6-43.2-25.7-48.4c-6.8-2.5-15.3-1.3-23.2,6.5
		c-9.8,9.4-12.7,36.7,16.1,42.1c-3.2-4.4-2.8-14.2,3.2-17.5c4.5-2.2,9.8-1.6,12.3,0.4c4,2.3,7.7,9.5,7.7,17.1
		c-4.5,0.1-9.1,0.2-13.6,0.3v14.9c9.5-0.1,18.9-0.4,28.4-0.9c-0.2,7.5-5.1,14.3-12.7,17.7c1.1,3.3,5.9,9.6,12.5,8.8
		c1.3,6.9,2.6,10.7,8.5,16.6c6-6.7,7.2-10.7,8.5-17.7c6.6-0.2,11.5-7.3,12.5-10.5c-7.9-2.5-12.3-8.4-12.7-16
		c9.5-0.8,18.9-1.8,28.3-3v-14.9c-4.5,0.6-9.1,1.1-13.6,1.6c0-7.5,3.8-15.3,7.7-18.2c3.4-2.6,8.1-3.4,12.3-2.1
		c6,2.6,6.2,12.2,3.2,17l0.4-0.1c28.7-9.7,25.9-36.7,16.1-44.5C1015.6,870.1,1006.9,870.1,1000.3,873.6z"/>
</g>
</svg>
