<svg xmlns="http://www.w3.org/2000/svg" viewBox="0 0 1260 1012.04">
  <g>
    <path d="M0,90.08v920C420,738.76,840,1193.28,1260,922V2C840,273.28,420-181.24,0,90.08Z" style="fill: #fff"/>
    <path d="M525,24C350-10,175-23,0,90.08v345C175,322,350,335,525,369Z" style="fill: #002495"/>
    <path d="M306.39,153.45c-16.8,6.84-27.93,29.61-28.56,62.28q-4.41.22-8.82.52c0-29.88,4.62-39.71,17-77.72,6.3-17.68,2.52-39.48-8.61-59.17a125.33,125.33,0,0,0-14.7-19.76,154.88,154.88,0,0,0-14.7,22c-11.13,21.15-14.91,43.54-8.61,60.49,12.18,36.13,17,45.24,17,75.12-2.94.25-5.88.53-8.82.82-.42-32.82-11.76-53.68-28.56-57.85-7.56-2.1-17,1.11-25.83,12.75-10.92,14.61-14.07,48.47,17.85,49.22-3.57-4.92-3.15-17.21,3.57-22.42,5-3.56,10.92-3.47,13.65-1.3,4.41,2.4,8.61,11.11,8.61,20.54q-7.56.9-15.12,2v18.63q15.75-2.28,31.5-3.7c-.42,9.48-5.25,17.69-14.07,22.83,1.26,4,6.51,11.44,13.86,10.31,1.47,8.61,2.94,13.28,9.45,20.6,6.72-8.32,8-13.2,9.45-22,7.35,0,12.81-8.47,13.86-12.43-8.82-3.78-13.65-11.26-14.07-20.68q15.75-1,31.5-1.18V214.66c-5,.08-10.08.2-15.12.39,0-9.43,4.2-18.79,8.61-21.88,2.73-2.37,8.4-3.63,13.65-.88,6.72,4.35,6.93,16.33,3.57,21.84h.42c31.92-6.07,28.77-39.56,17.85-52.2C323.4,151.81,313.74,150.14,306.39,153.45Z" style="fill: #fff"/>
    <path d="M735,68.08v345c175,34,350,46.94,525-66.11V2C1085,115,910,102.05,735,68.08Z" style="fill: #002495"/>
    <path d="M1041.39,238.63c-16.8,9.18-27.93,32.24-28.56,65-2.94.3-5.88.57-8.82.83,0-29.93,4.62-39.65,17-78.53,6.3-18.25,2.52-39.56-8.61-58.65-4-6.73-9-12.93-14.7-19.4A163.72,163.72,0,0,0,983,169.52c-11.13,20.57-14.91,42.48-8.61,60,12.18,37,17,46,17,75.92-2.94.19-5.88.37-8.82.52-.42-32.88-11.76-54-28.56-60.52-7.56-3.13-17-1.57-25.83,8.1-10.92,11.74-14.07,45.87,17.85,52.66-3.57-5.53-3.15-17.7,3.57-21.85,5-2.78,10.92-2,13.65.5,4.41,2.88,8.61,11.93,8.61,21.36q-7.56.27-15.12.38v18.63q15.75-.22,31.5-1.18a25.3,25.3,0,0,1-14.07,22.1c1.26,4.09,6.51,11.94,13.86,11,1.47,8.65,2.94,13.41,9.45,20.75,6.72-8.35,8-13.32,9.45-22.18,7.35-.21,12.81-9.13,13.86-13.16-8.82-3.14-13.65-10.56-14.07-19.94q15.75-1.44,31.5-3.7V300.28q-7.56,1.1-15.12,2c0-9.43,4.2-19.12,8.61-22.7a13.78,13.78,0,0,1,13.65-2.67c6.72,3.29,6.93,15.19,3.57,21.27l.42-.07c31.92-12.15,28.77-45.91,17.85-55.67C1058.4,234.29,1048.74,234.32,1041.39,238.63Z" style="fill: #fff"/>
    <path d="M0,665.08v345C175,897,350,910,525,944V599C350,565,175,552,0,665.08Z" style="fill: #002495"/>
    <path d="M306.39,728.45c-16.8,6.84-27.93,29.61-28.56,62.28q-4.41.22-8.82.52c0-29.88,4.62-39.71,17-77.72,6.3-17.68,2.52-39.48-8.61-59.17a125.33,125.33,0,0,0-14.7-19.76,154.88,154.88,0,0,0-14.7,22c-11.13,21.15-14.91,43.54-8.61,60.49,12.18,36.13,17,45.24,17,75.12-2.94.25-5.88.53-8.82.82-.42-32.82-11.76-53.68-28.56-57.85-7.56-2.1-17,1.11-25.83,12.75-10.92,14.61-14.07,48.47,17.85,49.22-3.57-4.92-3.15-17.21,3.57-22.42,5-3.56,10.92-3.47,13.65-1.3,4.41,2.4,8.61,11.11,8.61,20.54q-7.56.9-15.12,2v18.63q15.75-2.28,31.5-3.7c-.42,9.48-5.25,17.69-14.07,22.83,1.26,4,6.51,11.44,13.86,10.31,1.47,8.61,2.94,13.28,9.45,20.6,6.72-8.32,8-13.2,9.45-22,7.35,0,12.81-8.47,13.86-12.43-8.82-3.78-13.65-11.26-14.07-20.68q15.75-1,31.5-1.18V789.66c-5,.08-10.08.2-15.12.39,0-9.43,4.2-18.79,8.61-21.88,2.73-2.37,8.4-3.63,13.65-.88,6.72,4.35,6.93,16.33,3.57,21.84h.42c31.92-6.07,28.77-39.55,17.85-52.2C323.4,726.81,313.74,725.14,306.39,728.45Z" style="fill: #fff"/>
    <path d="M735,988.08c175,34,350,46.94,525-66.11V577c-175,113-350,100.08-525,66.11Z" style="fill: #002495"/>
    <path d="M1041.39,813.63c-16.8,9.18-27.93,32.24-28.56,65-2.94.3-5.88.57-8.82.83,0-29.93,4.62-39.65,17-78.53,6.3-18.25,2.52-39.56-8.61-58.65-4-6.73-9-12.93-14.7-19.4A163.72,163.72,0,0,0,983,744.52c-11.13,20.57-14.91,42.48-8.61,60,12.18,37,17,46,17,75.92-2.94.19-5.88.37-8.82.52-.42-32.89-11.76-54-28.56-60.52-7.56-3.13-17-1.57-25.83,8.1-10.92,11.74-14.07,45.87,17.85,52.66-3.57-5.53-3.15-17.7,3.57-21.85,5-2.78,10.92-2,13.65.5,4.41,2.88,8.61,11.93,8.61,21.36q-7.56.27-15.12.38v18.63q15.75-.23,31.5-1.18a25.3,25.3,0,0,1-14.07,22.1c1.26,4.09,6.51,11.94,13.86,11,1.47,8.65,2.94,13.41,9.45,20.75,6.72-8.35,8-13.32,9.45-22.18,7.35-.21,12.81-9.13,13.86-13.16-8.82-3.14-13.65-10.56-14.07-19.94q15.75-1.44,31.5-3.7V875.28q-7.56,1.1-15.12,2c0-9.43,4.2-19.12,8.61-22.7a13.78,13.78,0,0,1,13.65-2.67c6.72,3.29,6.93,15.19,3.57,21.27l.42-.07c31.92-12.15,28.77-45.91,17.85-55.67C1058.4,809.29,1048.74,809.32,1041.39,813.63Z" style="fill: #fff"/>
  </g>
</svg>
