<?xml version="1.0" encoding="utf-8"?>
<!-- Generator: Adobe Illustrator 24.2.0, SVG Export Plug-In . SVG Version: 6.00 Build 0)  -->
<svg version="1.1" id="Layer_1" xmlns="http://www.w3.org/2000/svg" xmlns:xlink="http://www.w3.org/1999/xlink" x="0px" y="0px"
	 viewBox="0 0 1260 1260" style="enable-background:new 0 0 1260 1260;" xml:space="preserve">
<style type="text/css">
	.st0{fill-rule:evenodd;clip-rule:evenodd;fill:#076A21;}
	.st1{fill-rule:evenodd;clip-rule:evenodd;fill:#FDD401;}
	.st2{fill-rule:evenodd;clip-rule:evenodd;fill:#016B29;}
	.st3{fill:#003D00;}
	.st4{fill-rule:evenodd;clip-rule:evenodd;fill:#DD1810;}
	.st5{fill-rule:evenodd;clip-rule:evenodd;fill:#FEE500;}
	.st6{fill-rule:evenodd;clip-rule:evenodd;}
	.st7{opacity:0.75;fill-rule:evenodd;clip-rule:evenodd;enable-background:new    ;}
	.st8{fill-rule:evenodd;clip-rule:evenodd;fill:#FED501;}
	.st9{fill:#917B01;}
	.st10{fill-rule:evenodd;clip-rule:evenodd;fill:#0139AB;}
	.st11{fill-rule:evenodd;clip-rule:evenodd;fill:#D4170F;}
	.st12{fill:#FED501;}
	.st13{fill-rule:evenodd;clip-rule:evenodd;fill:#FEFFFF;}
</style>
<g>
	<path class="st0" d="M1197,224.3C819,441.3,441,77.7,63,294.7v0.1c378-217,755.9,146.5,1133.9-70.4v367.9l0.1-0.1V224.3z"/>
	<path class="st0" d="M63,294.8v367.9c378-217,755.9,146.5,1133.9-70.4V224.4C818.9,441.3,441,77.8,63,294.8z"/>
	<path class="st1" d="M1196.9,592.3v368l0.1-0.1v-368L1196.9,592.3z"/>
	<path class="st1" d="M63,662.7v368c378-217,755.9,146.5,1133.9-70.4v-368C818.9,809.2,441,445.7,63,662.7z"/>
	<path d="M951,520.1c1.9,18.9,3.7,37.7,5.6,56.6l1.6-0.4c-1.8-18.8-3.7-37.7-5.6-56.6L951,520.1z"/>
	<path class="st2" d="M996.7,787c-3.8-2.3-7.5-4.6-11.3-6.9c-5.6-3.5,1.4,20.9,3.5,36.1c2.1,15.3,17.6,27.9,17.6,27.9
		s-7-18.2-7.7-27.2C998.1,807.8,996.7,787,996.7,787z"/>
	<path class="st3" d="M999.5,816.7c-0.7-8.9-2.1-29.6-2.1-29.9c0-0.2,0-0.3,0-0.5c-4.2-2.6-8.5-5.2-12.8-7.8l0.1,1.7
		c0,0.2,1.4,21.1,3.5,36.2c2.1,15.5,17.2,28,17.9,28.4l2.3,1.8l-1.2-3.1C1007.1,843.5,1000.2,825.5,999.5,816.7z M989.6,816
		c-1.7-12.5-3-29-3.4-34.3c3.3,2,6.5,4,9.7,6c0.2,3.2,1.4,21.2,2.1,29.4c0.5,6.8,4.5,18.5,6.6,24.2
		C1000.3,837.2,991.2,827.2,989.6,816L989.6,816z"/>
	<path class="st2" d="M1029.9,664c0,0.2-26.9,13.6-17.7,12.1c9.2-1.3,30.3,9.2,30.3,9.1S1041.8,660.5,1029.9,664z"/>
	<path class="st3" d="M1037.1,664.7c-1.8-1.9-4.6-2.5-7.2-1.7l-0.1,0c-20.4,10.6-20.2,12-20.1,13c0.1,1.2,1.4,1.1,2.6,0.9
		c8.9-1.2,29.7,9,29.9,9l1.1,0.5c0-0.5,0-1.1,0-1.6S1042.7,670.1,1037.1,664.7z M1012.1,675.1l-0.3,0c2.8-2.1,10.7-6.4,18.1-10.4
		c2.2-0.7,4.6-0.1,6.1,1.4c4.1,4,5.2,13.6,5.5,17.4C1037,681.7,1020.2,674,1012.1,675.1L1012.1,675.1z"/>
	<path class="st3" d="M1018.3,667.5c-8,1.6-8.1,1.7-8.3,2.1l0.6,0.6l0.1,0.8c0.1,0,1-0.4,7.7-1.7h0.1c6.3-1,19.1,11.3,23.1,15.6
		l1-1.5c-0.2-0.1-15.9-17.3-24.1-16L1018.3,667.5z"/>
	<path class="st2" d="M910.1,685.1c0,0-12-0.1-18.3-0.3c-6.3-0.2-18.3-2.6-18.3-2.6s16.9,15.4,26,14.7c9.1-0.6,31,1,31,0.9
		c-4.2-3.9-8.4-7.8-12.7-11.7C915.3,685.7,912.7,685.4,910.1,685.1z"/>
	<path class="st3" d="M910.2,684.2c-6.1,0-12.2-0.2-18.4-0.3c-6.2-0.2-18.1-2.5-18.2-2.6l-2.9-0.6l2.5,2.3
		c0.7,0.7,17.2,15.6,26.5,14.8c9-0.6,30.6,1,30.9,0.9l2.5,0.1c-4.9-4.5-9.9-9.1-14.8-13.7C915.5,684.8,912.8,684.5,910.2,684.2z
		 M906.2,695.7c-2.6,0-4.9,0-6.7,0.1c-6.7,0.6-17.9-8-23-12.2c5,1,10.2,1.7,15.3,2c6.1,0.2,12.2,0.3,18.3,0.3c2.5,0.3,5,0.6,7.5,0.9
		c3.5,3.3,7,6.5,10.5,9.7C923.6,696.4,913.9,695.9,906.2,695.7z"/>
	<path class="st3" d="M898.8,689.6c-6.5-0.4-23.1-7.3-23.3-7.4c-0.1,0.6-0.3,1.2-0.4,1.8c0.7,0.3,17,7,23.6,7.5
		c0.7,0.1,1.5,0.1,2.5,0.1c7.8,0.2,22.2-1.1,22.9-1.2c0-0.6-0.1-1.2-0.1-1.8C923.9,688.6,905.4,690.1,898.8,689.6z"/>
	<path class="st2" d="M991.7,814.1c1.4,11.7,10.6,24.3,12.7,28.5c-3.5-19-7-38-10.6-57.1C988.6,756.9,990.3,802.4,991.7,814.1z"/>
	<path class="st3" d="M992.4,813.9c-1.4-11.4,2.1-28,2.1-28.2l-1.4-0.3c-0.1,0.7-3.5,17.2-2.1,29c1.1,9.3,7,19.1,10.5,24.9
		c1,1.7,1.8,3,2.3,3.9l1.2-1.1c-0.5-1-1.3-2.3-2.3-4.1C999.2,832.3,993.5,822.7,992.4,813.9z"/>
	<path class="st2" d="M1003.7,670.9c-7,5-40.1,49.3-43.6,53.8c-3.5,5-32.4,25.3-38.7,32.5c-6.3,7.6-41.5,65.2-41.5,65
		c0,0.2,33.8-28.2,38.7-33.9c4.9-5.5,14.1-21.2,20.4-30.5c6.3-8.7,54.9-52.9,61.2-59.8c6.3-6.3,15.5-20.5,19.7-25.8
		c4.2-5.3,11.3-8.4,11.3-8.4C1031.1,663.7,1010.7,666.5,1003.7,670.9z"/>
	<path class="st3" d="M1003.4,670.1c-7.3,5.1-40.5,49.7-43.9,54c-1.6,2.1-8.7,7.9-16.3,13.9c-8.8,7-18.9,14.6-22.3,18.6
		c-6.3,7.6-40.2,63-41.6,65.1l1,1.4c1.4-0.9,33.9-28.3,38.8-34c3.2-3.5,8-11.2,12.7-18.6c2.8-4.4,5.4-8.6,7.7-12
		c5.2-7.5,40.1-39.1,55-53.8c2.9-2.8,5-4.9,6.1-5.9c4.2-4.2,9.5-11.7,13.9-17.8c2.4-3.4,4.4-6.3,5.9-8.1c4-5,10.9-8.1,10.9-8.2
		l-0.1-1.8C1030.3,663,1010.5,665.6,1003.4,670.1z M1019.4,671.5c-1.5,1.9-3.6,4.8-6,8.2c-4.3,6-9.6,13.5-13.7,17.5
		c-1,1-3.2,3.1-6,5.9c-14.9,14.8-49.9,46.4-55.3,54.1c-2.3,3.4-5.1,7.8-7.8,12c-4.7,7.4-9.5,15-12.6,18.4
		c-3.9,4.4-26,23.5-34.9,30.8c8.4-13.4,33.5-54.3,38.7-60.5c3.3-3.9,13.3-11.4,22.1-18.4c8-6.3,14.9-11.9,16.6-14.2
		c5.1-6.6,36.7-48.9,43.4-53.6c4.6-3,15.2-5,21.7-6.2l0.7-0.1C1023.7,667.1,1021.4,669.1,1019.4,671.5L1019.4,671.5z"/>
	<path class="st2" d="M983.3,762.9c-5.6-7.6-16.9-13.9-28.2-36.1c-3.5-10.7-23.9-40.9-28.8-42.8c-4.9-1.7-16.9,1-16.9,1
		s20.4,17.3,23.8,22.6c3.5,5.5,20.4,26.6,21.8,30.1c1.4,3.7,23.9,44,30.3,50.5c6.3,6.6,12.7,17.7,13.4,23.1l0.7,5.4
		c0,0-1.3-37.3-2.8-40.7C995.2,772.6,988.9,770.6,983.3,762.9z"/>
	<path class="st3" d="M992.5,770.7c-3.4-2.4-6.3-5.2-8.7-8.4c-2-2.6-4.3-5-6.8-7.3c-8.9-8.4-16.1-18-21.3-28.6
		c-3.7-11.1-24.2-41.3-29.3-43.2c-5-1.8-16.7,0.9-17.2,1l-1.8,0.4l1.5,1.3c0.2,0.3,20.4,17.3,23.8,22.4c1.4,2.1,4.6,6.5,8.4,11.5
		c5.6,7.4,12.5,16.4,13.3,18.5c1.2,3.3,23.8,44,30.4,50.8c6.1,6.3,12.4,17.2,13.1,22.6l0.7,5.4l1.4-0.4c-0.1-3.8-1.5-37.6-2.9-41.1
		C996.6,773.7,994.8,772.4,992.5,770.7z M985.9,787.6c-6.3-6.4-28.9-47-30.1-50.2c-0.8-2.2-6.1-9.1-13.5-18.9
		c-3.6-4.8-7-9.3-8.4-11.4c-3-4.6-17.7-17.2-22.5-21.5c3.5-0.6,11.2-1.9,14.8-0.6c4.8,1.8,24.9,31.8,28.4,42.3c0,0,0,0.1,0.1,0.1
		c5.3,10.7,12.6,20.6,21.6,29.1c2.4,2.2,4.6,4.6,6.6,7.1c2.5,3.3,5.5,6.2,9,8.7c2.1,1.6,3.7,2.8,4.3,4.2c0.8,1.9,1.7,16.9,2.3,30.5
		C995.5,800,991.3,793.4,985.9,787.6L985.9,787.6z"/>
	<path class="st2" d="M1026.2,747.7c-15.5-11.7-42.2-21.5-71.1-20.8c-28.9,0.7-44.3,3.8-46.4,4.8c-2.1,1-7,15.4-7,15.4
		c0,0,28.8-7.8,46.4-8.9c17.6-0.5,52.8,13,59.8,17.1c7,4.8,38,28,38,27.8C1045.9,783,1041.7,759.5,1026.2,747.7z"/>
	<path class="st3" d="M1026.6,746.9c-14.4-10.9-40.7-21.7-71.5-20.9c-29.4,0.7-44.8,4-46.7,4.8c-2.2,1-6.3,12.4-7.5,15.9
		c-0.2,0.6-0.4,1.1-0.6,1.7l1.4-0.4c0.3,0,29-7.8,46.3-8.9c17.4-0.5,52.6,13,59.4,17c6.9,4.7,37.6,27.8,37.9,27.8l1.5,1.1l-0.4-2.3
		C1046.6,782.4,1042.1,758.7,1026.6,746.9z M1008.3,754.4c-7.1-4.2-42.2-17.7-60.2-17.2c-15.3,0.9-39.3,7.1-45.2,8.5
		c2.2-6.3,5-12.9,6-13.3c1.8-0.9,17-4.1,46.2-4.7c30.5-0.7,57.1,10.4,70.7,20.7c12.2,9.3,17.4,26.2,18.9,32.5
		C1038.1,776.5,1014.4,758.5,1008.3,754.4z"/>
	<path class="st3" d="M989.2,694.9c-3.1,4.2-49.1,51.6-55.5,56.8c-4.1,3.6-8.9,12.2-13.1,19.6c-1.8,3.4-3.8,6.7-6,10
		c-4.2,5.6-32.8,37.4-33,37.6l0.9,1.4c1.2-1.2,28.9-32.1,33.1-37.7c2.3-3.3,4.3-6.7,6.2-10.2c3.9-7,8.8-15.7,12.7-19.2
		c6.4-5.2,52.5-52.8,55.6-56.9c3.5-3.9,22.3-27.4,22.5-27.7l-0.9-1.3C1011.5,667.6,992.6,691,989.2,694.9z"/>
	<path class="st3" d="M1022.4,754c-5.4-3.4-55.2-22.5-69.3-23.4c-14,0.1-43.9,8.2-45.2,8.3c0.1,0.6,0.2,1.2,0.3,1.8
		c0.3,0.1,31-8.2,44.9-8.3c13.9,0.9,63.8,20.2,68.6,23.2c4.8,3.7,20.8,24.9,21,25l1.1-1.4C1043,778.5,1027.3,757.9,1022.4,754z"/>
	<path class="st3" d="M916.9,683.5l-0.9,1.4c0.2,0.4,24,24.5,31.6,34.8c7.6,10.9,50.2,78.4,50.6,78.6c0.4-0.4,0.8-0.8,1.1-1.3
		c-0.4-0.2-43-67.6-50.7-78.6C940.9,708,917.1,683.8,916.9,683.5z"/>
	<path class="st2" d="M893.2,746.9c-6.3,6.3-21.1,20.2-21.1,20.1c0,0.1,24.6-8,30.3-13.5c5.6-5.4,15.4-23.5,15.4-23.5
		c-3,0.6-6,1.1-9.1,1.7C904.1,732.5,899.6,740.7,893.2,746.9z"/>
	<path class="st3" d="M908.3,730.9c0,0-9.1,9-15.5,15.2c-6.3,6.2-21,20-21.1,20.1c-1,0.9-2,1.9-3,2.8l3.6-1.1
		c1-0.2,24.8-8.1,30.5-13.7c5.7-5.4,15.2-23,15.6-23.7l0.9-1.8c-3.6,0.7-7.2,1.4-10.9,2L908.3,730.9z M916.2,731.2
		c-2.6,4.7-9.8,17.3-14.3,21.5c-4.2,4-19.2,9.8-26.3,12.2c4.7-4.4,13.5-12.8,18-17.3c5.9-5.7,14.1-13.9,15.3-15.1
		C911.4,732.1,913.8,731.7,916.2,731.2L916.2,731.2z"/>
	<path class="st3" d="M898.7,746.4c-3.6,3.4-24.1,17.7-24.3,17.8c0.2,0.6,0.5,1.1,0.7,1.6c0.8-0.5,20.8-14.5,24.4-17.9
		c3.6-3.5,13-15.6,13.3-16.2l-1-1.3C911.8,730.6,902.3,743.1,898.7,746.4z"/>
	<path class="st2" d="M941.8,575.9c0.7,3.6,2.8,43.7,4.2,51c1.4,7.2,7.7,27.9,7.7,27.9c0,0-4.2,236.8-4.2,245.9c0,9.1,12,24,12,24
		l-1.4-270.3c0,0,4.9-4.9,7-17.9c2.1-13-1.4-59.3-1.4-59.3C965.7,577.4,941.1,572.4,941.8,575.9z"/>
	<path class="st3" d="M966.4,576.5l-0.5-0.1c-6.7-1.2-22.6-4.2-24.5-1.6c-0.3,0.4-0.4,0.9-0.3,1.4c0.3,1.4,0.8,9.6,1.4,18.2
		c0.9,13.3,2,28.5,2.8,32.8c1.3,7,7.1,25.7,7.7,27.9c-0.1,7.8-4.2,236.8-4.2,245.7c0,9.4,11.7,24,12.2,24.6l1.2,1.5
		c-0.5-90.7-0.9-181.4-1.4-272.1c1.1-1.3,5.1-6.6,7-18.1c2.1-12.9-1.3-57.6-1.4-59.5L966.4,576.5z M966.4,636.4
		c-2,12.4-6.7,17.2-6.8,17.3l-0.3,0.3c0.5,89.5,0.9,178.9,1.4,268.4c-3-4-10.5-14.8-10.5-21.7c0-9,4.2-243.5,4.2-245.9v-0.2
		c0-0.1,0-0.1,0-0.2c-0.1-0.2-6.3-20.7-7.7-27.8c-0.8-4.2-1.9-19.9-2.8-32.5c-0.6-9-1.1-16.2-1.4-18.2c1.7-1.1,12.5,0.4,22.5,2.2
		C965.5,583.9,968.3,624.6,966.4,636.4z"/>
	<path class="st3" d="M946.9,616.9l1.4,0.1l1.6-26.5l-1.4-0.1L946.9,616.9z"/>
	<path class="st3" d="M950,619.6l1.4-0.1c0-2.6,1.6-27.6,1.6-27.8l-1.4-0.1C951.5,592.6,950,616.9,950,619.6z"/>
	<path class="st3" d="M954.2,587.5c0.2,12.4,0.3,24.9,0.5,37.3l1.4-0.1c-0.2-12.4-0.3-24.9-0.5-37.3L954.2,587.5z"/>
	<path class="st3" d="M958.4,632.7l1.4-0.1c0.2-13.6,0.3-27.2,0.5-40.7l-1.4,0.1C958.7,605.5,958.6,619.1,958.4,632.7z"/>
	<path class="st3" d="M963.1,619.5c0,9.9-3.6,20.8-3.6,20.9l1.3,0.7c0.2-0.5,3.7-11.4,3.7-21.7v-24.4l-1.4,0.1V619.5z"/>
	<path class="st3" d="M952.3,898.2c-1.3-0.2-2.7,0.2-3.6,1.1c0.3,0.5,0.6,1,0.8,1.4c0.7-0.6,1.6-0.8,2.5-0.7
		c1.7,0.3,3.5,2.1,5.1,5.2c1.4,2.7,3.2,8,3.7,18.1l1.4-0.2c-0.4-8.3-1.7-14.9-3.9-19C956.5,900.6,954.5,898.7,952.3,898.2z"/>
	<path class="st4" d="M1015,509.4c-23.9,1.8-21.1,20.2-27.4,26.6c-4.3,4.3-8,9-11.3,13.9c0,0,2.1-9.3,5.6-15.2
		c3.5-5.8,12-17.8,14.8-23.6c2.8-5.9,6.3-20,6.3-26.4s-3.5-16.9-3.5-22.4c0-5.5,0.7-11.1,0.7-11.1s-14.1,7.3-22.5,17.2
		c-8.4,9.9-17.6,31.6-17.6,31.6s-6.3-15.1-10.6-19.5c-4.3-4.4-15.5-11.2-18.3-14.9c-2.8-3.6-6.3-10.8-6.3-10.8s-9.2,24.8-9.2,33
		c0,8.2,4.9,21,4.9,21c-7-3.6-15.5,0.9-21.8,0.8c-6.3-0.1-14.8-5-14.8-5c0,0,2.1,34.8,9.9,44.2c7.8,9.4,27.4,10.4,27.4,10.3
		c0,0.1-21.8,15.5-23.2,30.9c-1.4,15.5,12,37.7,12,37.6c0-0.1,4.2-8.2,7-10c2.8-1.8,9.1-1,12.7-3.8c3.5-2.8,12-15.8,15.5-16
		s14.1,12.1,18.3,14.5c4.2,2.4,10.5,4.6,13.4,7.1c2.2,1.8,4.5,3.4,7,4.8c0,0,4.9-6.9,7-11.7c2.1-4.8,0-7.3,2.1-12.1
		c2.1-4.8,12-19.8,9.9-26.9s-4.9-8.4-9.9-8.8c-3.3-0.1-6.7,0.3-9.8,1.1c3.3-2.8,6.6-5.6,9.8-8.4c4.9-4.2,5.6,2.1,10.6,1.4
		s22.5-10.8,26-12.5c3.5-1.7,12-0.5,12-0.6C1041.8,545.6,1038.9,507.2,1015,509.4z"/>
	<path d="M1037.9,526.1c-4.9-12.5-12.9-18.4-22.9-17.6c-17.4,1.4-21.1,11.1-24,19.2c-1.2,3.2-2.2,5.9-3.9,7.6
		c-3.3,3.3-6.4,6.9-9.1,10.7c1-3.7,2.5-7.2,4.4-10.6c1.3-2.2,3.3-5.2,5.4-8.4c3.6-5.4,7.6-11.6,9.4-15.3c2.8-5.7,6.5-20.1,6.5-27
		c0-3.4-1-7.9-1.9-12.2c-0.8-3.9-1.6-7.6-1.6-10.1c0-5.3,0.7-10.8,0.7-10.9l0.2-1.5l-1.1,0.6c-0.6,0.3-14.3,7.5-22.8,17.4
		c-7.3,8.5-14.9,25.2-17.1,30.3c-1.7-3.9-6.6-14.6-10.1-18.3c-2.1-2.2-5.8-4.9-9.4-7.5c-3.6-2.7-7.4-5.5-8.8-7.3
		c-2.7-3.5-6.2-10.6-6.2-10.7c-0.2-0.5-0.5-0.9-0.7-1.4l-0.6,1.5c-0.4,1-9.2,25-9.2,33.3c0,6.5,2.9,15.5,4.3,19.4
		c-4.4-1.5-9.2-0.5-13.5,0.4c-2.3,0.6-4.6,0.9-7,1c-6.1-0.1-14.4-4.9-14.5-4.9l-1.1-0.6c0,0.5,0.1,1,0.1,1.5
		c0.1,1.4,2.2,35.3,10.1,44.8c6.3,7.7,20,9.9,25.5,10.4c-5.5,4.4-20.3,17-21.5,30c-1.4,15.7,11.6,37.4,12.1,38.3l0.6,1
		c0.2-0.4,0.4-0.7,0.5-1.1c1.1-2.2,4.6-8.3,6.8-9.7c1.1-0.7,3-1,5-1.3c2.6-0.4,5.6-0.9,7.7-2.5c1.4-1.1,3.3-3.5,5.6-6.4
		c3.2-4,7.6-9.4,9.5-9.5c1.9-0.1,6.8,4.6,10.8,8.3c2.8,2.6,5.5,5.1,7.2,6.1c1.7,1,3.5,1.8,5.4,2.7c3,1.4,6.2,2.9,7.9,4.3
		c2.2,1.8,4.6,3.5,7.1,4.9l0.5,0.3l0.4-0.5c0.2-0.3,5-7.1,7.1-11.9c0.9-2.1,1.3-4.3,1.2-6.6c-0.1-1.9,0.2-3.8,1-5.6
		c0.5-1,1.3-2.7,2.4-4.6c3.7-6.8,9.3-17.2,7.5-23.1c-2.2-7.4-5.4-9-10.4-9.3c-2.3-0.1-4.6,0-6.8,0.4c2.3-1.9,4.5-3.9,6.8-5.8
		c1.3,0.4,6.1,1.9,10.5,1.3c3.5-0.5,12.8-5.3,19.6-9c3-1.6,5.5-3,6.6-3.5c3.3-1.5,11.6-0.5,11.7-0.5l1,0.1c0-0.4-0.1-0.8-0.1-1.3
		C1041.8,538.7,1040.3,532.3,1037.9,526.1z M1029.6,545.3c-1.1,0.5-3.6,1.9-6.7,3.6c-6.3,3.5-15.9,8.4-19.2,8.9
		c-4.7,0.7-10.3-1.3-10.3-1.3l-0.3-0.1c-4.5,3.8-8.9,7.6-13.4,11.4c1.2-0.3,2.5-0.7,3.7-1.1c3.1-0.8,6.4-1.2,9.6-1.1
		c4.7,0.3,7.3,1.6,9.3,8.3c1.5,5-4,15.2-7.4,21.3c-1,1.9-1.9,3.6-2.4,4.7c-0.9,2.1-1.3,4.3-1.2,6.6c0.1,1.9-0.2,3.8-1,5.6
		c-1.9,3.8-4.1,7.5-6.6,11c-2.3-1.3-4.5-2.8-6.5-4.4c-1.8-1.6-5.1-3.1-8.2-4.5c-1.8-0.8-3.7-1.7-5.3-2.6c-1.6-0.9-4.2-3.3-7-5.9
		c-5.6-5.2-9.4-8.7-11.6-8.6c-2.5,0.1-6.5,5.2-10.5,10c-2.1,2.6-4.1,5.1-5.4,6.1c-1.8,1.5-4.5,1.9-7.1,2.3c-2.1,0.3-4.1,0.6-5.5,1.5
		c-2.3,1.5-5.5,7-6.7,9.3c-2.5-4.4-12.4-22.8-11.2-35.9c1.3-14.7,22.6-30,22.9-30.2l2.3-1.6l-2.6-0.1c-0.2,0.1-19.5-1-27-10
		c-6.6-7.9-9-35.4-9.5-42.1c2.5,1.3,8.8,4.4,14,4.5c2.4-0.1,4.9-0.4,7.2-1c4.9-1,9.9-2.1,14.3,0.2l1.7,0.9l-0.8-2.2
		c0-0.1-4.9-12.6-4.9-20.6c0-6.8,6.6-25.6,8.5-31c1.6,3.3,3.6,6.5,5.7,9.6c1.5,1.9,5.2,4.7,9.1,7.6c3.6,2.6,7.2,5.3,9.2,7.4
		c4.1,4.2,10.3,19.1,10.4,19.2l0.6,1.4c0.2-0.5,0.4-1,0.6-1.5c0.1-0.2,9.2-21.6,17.4-31.3c6.9-8.1,17.8-14.4,21.2-16.4
		c-0.2,2-0.5,5.9-0.5,9.7c0,2.8,0.8,6.6,1.7,10.6c0.9,4.2,1.8,8.6,1.8,11.8c0,5.9-3.4,20-6.2,25.9c-1.7,3.6-5.7,9.7-9.3,15.1
		c-2.1,3.2-4.1,6.3-5.5,8.4c-3.6,5.9-5.7,15.1-5.8,15.5l-0.9,4.2l2.2-3.4c3.2-4.9,6.9-9.5,11.1-13.8c2-2,3.1-5.1,4.3-8.3
		c2.8-7.6,6.2-16.7,22.7-18c20.6-1.8,25.2,27.5,25.9,34.2C1038.5,544.3,1032.5,543.9,1029.6,545.3L1029.6,545.3z"/>
	<path class="st5" d="M922.1,582.6c-6.2,2.5-11.1,16.1-11.1,16.1s7.4-11.2,13-12.1s14.8-0.3,14.8-0.3c-1.6,1.2-2.3,3.1-1.9,4.9
		c0.6,3.2,8.6,2.9,8.6,2.9c1-3,2.1-6,3.1-9C948.7,585.1,928.3,580.3,922.1,582.6z"/>
	<path class="st5" d="M1014.1,527.9c-4.3,0-22.8,15.2-22.8,15.2c1.4-3.4,2.9-6.8,4.3-10.1c0,0.2-27.2,23.8-30.2,29.4
		c-3.1,5.8,4.9-15.6,8-20.7c3.1-5.1,9.3-12.9,11.1-20.3c1.9-7.4,3.7-13.2,3.7-13.2s-11.7,15.7-14.2,20.7s-4.3,14.8-8,12.7
		s-4.3-8.5-4.3-8.5s-1.2,11.3-3.7,10.7c-2.5-0.6-3.7-4.6-3.7-4.6s0,7.2-3.1,6.6s-0.6-6.4-3.1-11.9s-6.2-6.1-6.2-6.1
		s3.1,8.7,2.5,12.7c-0.6,4-1.2,13.7-5.6,10.6c-4.3-3-4.9-7.9-8-7c-3.1,0.9,1.2,4-0.6,6.4c-1.9,2.4-5.6,4.1-5.6,4.1s4.3,0.7,6.8,5.5
		c2.5,4.7,8,4.6,10.5,10.9s3.7,15.9,3.7,15.9c6-1.1,11.9-2.2,17.9-3.4c2.9,0.5,5.3,2,6.8,4.3c2.5,3.8,6.2,12.3,6.2,12.3
		s2.5-6.6-0.6-11.2c-1.6-2.4-3.4-4.7-5.6-6.7c0.8-1.7,1.6-3.3,2.5-5c2.5,0.5,4.6,2.1,5.6,4.3c1.9,3.8,3.7,5.2,3.7,5.2
		s1.2-5.7-1.2-8.7s-4.3-3.6-4.3-3.6c1.5-1.5,4-2.1,6.2-1.4c3.7,1.2,9.9,5.3,9.9,5.3s-3.7-7.6-6.8-8c-2.5-0.3-4.9-0.3-7.4,0
		c0,0.1,16-23.3,22.2-29c6.2-5.7,17.9-9.9,17.9-9.9C1018.4,531.2,1018.4,528,1014.1,527.9z"/>
	<path class="st2" d="M962.9,544.9c-4.3,0.3-5.6-0.4-6.8,3.6c-1.2,4.1-1.2,16.9-1.2,16.9s-1.9-14.3-6.2-18.1s-4.3-5.4-7.4-2.9
		s-2.5,4.9-2.5,4.9c4.9,10.5,9.9,21,14.8,31.4c7.4,15.6,4.9-9.1,8-9.3s6.8,2.7,6.8,2.7s1.9-15.4,1.2-20.1
		C969.1,549.3,967.2,544.6,962.9,544.9z"/>
	<path class="st5" d="M923.4,572.9c0,0,3.7,4.8,8,4.7s16.7,1.8,16.7,1.8c-0.2-1.1-0.4-2.1-0.6-3.2
		C947.5,576.3,926.5,570.7,923.4,572.9z"/>
	<path class="st5" d="M914.7,601.1c-1.9,4.8,0.6,8,0.6,8s0-5.6,3.1-8s2.5-6.4,2.5-6.4C918,596,915.8,598.3,914.7,601.1z"/>
	<path class="st5" d="M898.1,542.4c0,0,1.8,8.1,4.9,9.7c3.1,1.6,10.5-3.1,10.5-3.1s-6.2-1.6-9.3-1.7
		C901.2,547.2,898.1,542.4,898.1,542.4z"/>
	<path class="st5" d="M919.1,521.7c-3.7-2.4-9.9-4-9.9-4c2.3,2.3,4.8,4.4,7.4,6.4c4.3,3.2,7.4,3.1,7.4,3.1
		C923,525,921.3,523.1,919.1,521.7z"/>
	<path class="st5" d="M925.2,487.2c0,0-1.9,7.2,0,13.6c1.3,4.2,3.4,8.2,6.2,11.9c0,0,1.8-9.7-0.6-13.6S925.2,487.2,925.2,487.2z"/>
	<path class="st5" d="M931.4,484.7c1.5,2.8,2.7,5.7,3.7,8.7c1.2,4,4.9,7.9,4.9,7.8s0-7.2-2.5-10.3
		C935.7,488.7,933.7,486.6,931.4,484.7z"/>
	<path class="st5" d="M987.6,488.2c-1.1,3.1-1.3,6.5-0.6,9.7c0.6-2.6,1.7-5.2,3.1-7.6c2.5-4.3,1.9-7.4,1.9-7.4
		S989.4,483.2,987.6,488.2z"/>
	<path class="st6" d="M967.8,512.5c-2.1,0.2-3.7,2.1-3.7,4.3c0,2.2,1.7,3.9,3.7,3.7c2.1-0.2,3.7-2.1,3.7-4.3
		S969.9,512.3,967.8,512.5z"/>
	<path class="st6" d="M962.3,520.9c-2,0.1-3.7,2-3.7,4.3s1.7,3.9,3.7,3.8c2-0.1,3.7-2.1,3.7-4.3C966,522.4,964.3,520.8,962.3,520.9z
		"/>
	<path class="st6" d="M974,513.6c-2,0.2-3.7,2.1-3.7,4.3s1.7,3.9,3.7,3.7s3.7-2.1,3.7-4.3C977.7,515,976,513.4,974,513.6z"/>
	<path class="st6" d="M977.7,519.6c-2.1,0.2-3.7,2.1-3.7,4.3c0,2.2,1.7,3.9,3.7,3.7c2.1-0.2,3.7-2.2,3.7-4.4
		S979.7,519.5,977.7,519.6z"/>
	<path class="st6" d="M946.2,512.3c-2,0.1-3.7,2-3.7,4.2s1.7,3.9,3.7,3.8s3.7-2,3.7-4.2S948.3,512.1,946.2,512.3z"/>
	<path class="st6" d="M953,510.3c-2.1,0.1-3.7,2-3.7,4.2s1.7,3.9,3.7,3.8c2.1-0.1,3.7-2,3.7-4.2C956.7,511.9,955.1,510.2,953,510.3z
		"/>
	<path class="st6" d="M959.2,512.3c-2.1,0.1-3.7,2-3.7,4.2s1.7,3.9,3.7,3.8c2.1-0.1,3.7-2,3.7-4.3S961.2,512.2,959.2,512.3z"/>
	<path class="st6" d="M939.4,520.5c-2,0.1-3.7,1.9-3.7,4.1s1.7,4,3.7,3.9s3.7-1.9,3.7-4.1C943.1,522.2,941.5,520.4,939.4,520.5z"/>
	<path class="st6" d="M925.8,525.6c-2,0-3.7,1.8-3.7,4.1s1.7,4,3.7,4s3.7-1.9,3.7-4.1S927.9,525.6,925.8,525.6z"/>
	<path class="st6" d="M985.7,544.5c-2,0.2-3.7,2.2-3.7,4.4s1.7,3.8,3.7,3.6c2-0.2,3.7-2.2,3.7-4.4S987.8,544.3,985.7,544.5z"/>
	<path class="st6" d="M994.4,547.5c-2,0.2-3.7,2.2-3.7,4.5s1.7,3.8,3.7,3.6s3.7-2.3,3.7-4.5C998.1,548.8,996.4,547.2,994.4,547.5z"
		/>
	<path class="st6" d="M997.4,539.1c-2,0.3-3.7,2.3-3.7,4.5c0,2.2,1.7,3.8,3.7,3.5c2-0.3,3.7-2.3,3.7-4.5S999.5,538.8,997.4,539.1z"
		/>
	<path class="st7" d="M1013.5,538.4c-2,0.3-3.7,2.4-3.7,4.6c0,2.2,1.7,3.8,3.7,3.4s3.7-2.4,3.7-4.6S1015.5,538.1,1013.5,538.4z"/>
	<path class="st6" d="M935.7,572.7c-2.1,0.1-3.7,1.9-3.7,4.1s1.7,4,3.7,3.9c2.1-0.1,3.7-1.9,3.7-4.1S937.8,572.6,935.7,572.7z"/>
	<path class="st6" d="M943.1,577.2c-2.1,0.1-3.7,1.9-3.7,4.1s1.7,4,3.7,3.9c2.1-0.1,3.7-2,3.7-4.2S945.2,577.2,943.1,577.2z"/>
	<path class="st6" d="M967.8,586.2c-2.1,0.2-3.7,2.1-3.7,4.3s1.7,3.9,3.7,3.7c2.1-0.2,3.7-2.1,3.7-4.3S969.9,586,967.8,586.2z"/>
	<path class="st6" d="M962.9,584.2c-2,0.2-3.7,2-3.7,4.3c0,2.2,1.7,3.9,3.7,3.8s3.7-2.1,3.7-4.3C966.6,585.7,964.9,584,962.9,584.2z
		"/>
	<path class="st6" d="M917.8,536.1c-2,0-3.7,1.8-3.7,4s1.7,4,3.7,4s3.7-1.8,3.7-4C921.5,538,919.9,536.1,917.8,536.1z"/>
	<path class="st6" d="M925.2,540.9c-2,0-3.7,1.8-3.7,4.1s1.7,4,3.7,4s3.7-1.9,3.7-4.1S927.3,540.9,925.2,540.9z"/>
	<path class="st6" d="M935.7,549.5c-2.1,0.1-3.7,1.9-3.7,4.1s1.7,4,3.7,3.9c2.1-0.1,3.7-1.9,3.7-4.1S937.8,549.4,935.7,549.5z"/>
	<path class="st6" d="M927.7,551.3c-2,0-3.7,1.9-3.7,4.1s1.7,4,3.7,4c2,0,3.7-1.9,3.7-4.1S929.8,551.2,927.7,551.3z"/>
	<path class="st6" d="M931.4,560c-2.1,0-3.7,1.9-3.7,4.1s1.7,4,3.7,3.9c2.1-0.1,3.7-1.9,3.7-4.1C935.1,561.7,933.5,559.9,931.4,560z
		"/>
	<path class="st6" d="M939.4,559c-2,0.1-3.7,1.9-3.7,4.1s1.7,4,3.7,3.9s3.7-1.9,3.7-4.1C943.1,560.6,941.5,558.9,939.4,559z"/>
	<path class="st6" d="M933.3,535.1c-2,0.1-3.7,1.9-3.7,4.1s1.7,4,3.7,3.9c2-0.1,3.7-1.9,3.7-4.1S935.3,535.1,933.3,535.1z"/>
	<path class="st6" d="M940.7,530.9c-2,0.1-3.7,1.9-3.7,4.1s1.7,4,3.7,3.9s3.7-1.9,3.7-4.2C944.4,532.5,942.7,530.8,940.7,530.9z"/>
	<path class="st6" d="M948.1,521.8c-2,0.1-3.7,2-3.7,4.2s1.7,3.9,3.7,3.8c2-0.1,3.7-2,3.7-4.2S950.1,521.7,948.1,521.8z"/>
	<path class="st6" d="M951.8,520c-2.1,0.1-3.7,2-3.7,4.2s1.7,3.9,3.7,3.8c2.1-0.1,3.7-2,3.7-4.2S953.8,519.8,951.8,520z"/>
	<path class="st6" d="M956.1,532.5c-2.1,0.1-3.7,2-3.7,4.2s1.7,3.9,3.7,3.8c2.1-0.1,3.7-2,3.7-4.2
		C959.8,534.1,958.1,532.4,956.1,532.5z"/>
	<path class="st6" d="M970.3,541.9c-2,0.2-3.7,2.1-3.7,4.3c0,2.2,1.7,3.9,3.7,3.7c2-0.2,3.7-2.1,3.7-4.3S972.3,541.8,970.3,541.9z"
		/>
	<path class="st6" d="M977.7,532.5c-2.1,0.2-3.7,2.1-3.7,4.4s1.7,3.9,3.7,3.7c2.1-0.2,3.7-2.2,3.7-4.4
		C981.4,533.9,979.7,532.3,977.7,532.5z"/>
	<path class="st6" d="M985.7,510.8c-2,0.2-3.7,2.2-3.7,4.4s1.7,3.8,3.7,3.6c2-0.2,3.7-2.2,3.7-4.4S987.8,510.6,985.7,510.8z"/>
	<path class="st6" d="M973.4,573.7c-2.1,0.2-3.7,2.1-3.7,4.3s1.7,3.9,3.7,3.7c2.1-0.2,3.7-2.1,3.7-4.3S975.4,573.5,973.4,573.7z"/>
	<path d="M965.5,553.4c-0.9,5.8-1.8,11.7-2.3,17.8l1.6,0.1c0.5-6,1.4-11.9,2.3-17.7c0.9-5.7,1.8-11.7,2.3-17.8l-1.6-0.1
		C967.2,541.8,966.3,547.7,965.5,553.4z"/>
	<path class="st6" d="M973.4,564.9c-2.1,0.2-3.7,2.1-3.7,4.3c0,2.2,1.7,3.9,3.7,3.7c2.1-0.2,3.7-2.1,3.7-4.3
		C977.1,566.4,975.4,564.7,973.4,564.9z"/>
	<path class="st6" d="M973.4,556.9c-2.1,0.2-3.7,2.1-3.7,4.3c0,2.2,1.7,3.9,3.7,3.7c2.1-0.2,3.7-2.1,3.7-4.3
		C977.1,558.4,975.4,556.7,973.4,556.9z"/>
	<path class="st6" d="M937.6,587.9c-2,0.1-3.7,1.9-3.7,4.1s1.7,4,3.7,3.9s3.7-1.9,3.7-4.1S939.6,587.8,937.6,587.9z"/>
	<path class="st6" d="M943.7,586c-2,0.1-3.7,1.9-3.7,4.2s1.7,4,3.7,3.9c2-0.1,3.7-2,3.7-4.2S945.8,585.9,943.7,586z"/>
	<path class="st6" d="M951.8,587.3c-2.1,0.1-3.7,2-3.7,4.2c0,2.2,1.7,3.9,3.7,3.8c2.1-0.1,3.7-2,3.7-4.2S953.8,587.1,951.8,587.3z"
		/>
	<path class="st6" d="M939.4,541.3c-2,0.1-3.7,1.9-3.7,4.1c0,2.2,1.7,4,3.7,3.9s3.7-1.9,3.7-4.1C943.1,543,941.5,541.3,939.4,541.3z
		"/>
	<path class="st7" d="M948.1,549c-2,0.1-3.7,2-3.7,4.2s1.7,3.9,3.7,3.8c2-0.1,3.7-2,3.7-4.2C951.8,550.6,950.1,548.9,948.1,549z"/>
	<path d="M966.4,572.2l1.5,0.5c4.3-18.1,6.4-36.6,6.2-55.2l-1.6,0.2C972.7,536,970.7,554.3,966.4,572.2z"/>
	<path class="st6" d="M969.1,531.6c-2.1,0.2-3.7,2.1-3.7,4.3s1.7,3.9,3.7,3.7c2.1-0.2,3.7-2.1,3.7-4.3
		C972.8,533.1,971.1,531.5,969.1,531.6z"/>
	<path class="st6" d="M983.2,557.5c-2,0.2-3.7,2.2-3.7,4.4c0,2.2,1.7,3.8,3.7,3.6c2-0.2,3.7-2.2,3.7-4.4
		C986.9,558.9,985.3,557.3,983.2,557.5z"/>
	<path d="M956.1,574.3l1.6,0.5c3.3-14.5,5.1-31.3,5.4-49.8l-1.6,0.1C961.1,543.5,959.3,560,956.1,574.3z"/>
	<path d="M948.9,522.3l-1.6,0.6c1.8,9.6,2.4,19.4,3,28.8c0.6,8.8,1.2,18,2.7,27l1.6-0.5c-1.5-8.9-2.1-17.9-2.7-26.7
		C951.3,541.9,950.7,532,948.9,522.3z"/>
	<path d="M940.8,533.6l-1.5,1c2.3,6.5,4.2,13.1,5.7,19.7c1.6,6.9,3.5,13.7,5.9,20.4l1.5-1c-2.3-6.6-4.3-13.4-5.8-20.2
		C945,546.9,943.1,540.2,940.8,533.6z"/>
	<path class="st8" d="M246.7,450.1c1.2-1.5,1.6-5.4,0-4.1c-1.2,0.2-3.3-0.6-4.7-1.5c-1.4-0.9-2.4-3.2-4-5.2
		c1.6-12.6,3.2-25.2,4.8-37.8c-6.5,11.4-9.8,31.4-10.7,33.8c-1-1.4-4.6-21.6-10.6-29.1l5,35.9c-1.6,2.2-3.3,5.1-4.9,6.7
		c-1.6,1.6-3.2,2-4.9,3c0,0-1.1,4.2,0,4.7c1.1,0.5,2.9-1.4,4.1-1.1s-4.3,70-4.3,70s9.6-6.1,16-6.7c6.5-0.6,14.9,1,14.9,1
		c-1.6-22.8-3.3-45.5-4.9-68.3C240.2,417.2,245.5,451.6,246.7,450.1z"/>
	<path class="st9" d="M246.9,450.3c0.9-1.1,1.4-3.6,1-4.5c-0.1-0.2-0.5-0.6-1.2-0.1c-1.2,0.1-3.1-0.7-4.5-1.5
		c-1-0.8-1.8-1.8-2.4-2.9c-0.5-0.7-0.9-1.4-1.5-2.1c1.6-12.5,3.2-25.1,4.8-37.6l-0.5-0.2c-4.9,8.7-8,22.1-9.6,29.4
		c-0.4,1.7-0.7,3-0.9,3.8c-0.3-0.9-0.8-2.6-1.3-4.6c-1.8-7-4.8-18.7-9.1-24.1l-0.4,0.4l4.9,35.7c-0.5,0.7-1,1.5-1.5,2.2
		c-0.9,1.5-2,2.9-3.2,4.2c-0.9,0.9-2,1.6-3.2,2.1c-0.6,0.3-1.1,0.6-1.6,0.9l-0.1,0.1v0.2c-0.1,0.5-1.2,4.5,0.2,5.1
		c0.7,0.3,1.6-0.1,2.4-0.6c0.5-0.3,1.1-0.5,1.7-0.6c0.6,2.4-2.3,42.8-4.4,69.7l0,0.5l0.4-0.2c0.1-0.1,9.6-6.1,15.9-6.7
		c6.3-0.6,14.7,1,14.8,1l0.4,0.1c-1.6-22.8-3.3-45.5-4.9-68.3C243.7,451.7,245.8,451.6,246.9,450.3z M247.2,519.1
		c-1.7-0.3-8.9-1.6-14.6-1c-0.4,0-0.8,0.1-1.2,0.2c-5.6,1-12.9,5.3-14.6,6.4c0.2-3,1.5-18.8,2.6-34.4c2.5-35.2,1.9-35.3,1.5-35.4
		c-0.7,0-1.5,0.2-2.1,0.6c-0.7,0.4-1.5,0.8-2,0.5c-0.7-0.3-0.2-3,0-4.2c0.5-0.3,1-0.5,1.5-0.8c1.3-0.5,2.4-1.3,3.3-2.2
		c1.2-1.4,2.4-2.8,3.3-4.4c0.5-0.8,1.1-1.6,1.6-2.3l0.1-0.1c-1.6-11.6-3.2-23.3-4.8-34.9c3.9,5.6,6.7,16.4,8.4,23
		c0.8,3.3,1.3,4.9,1.6,5.3l0.2,0.3l0.2-0.4c0.2-0.6,0.6-2.2,1.2-4.6c1.6-6.9,4.4-19.4,8.9-27.9c-1.5,12.2-3.1,24.4-4.7,36.6l0.1,0.1
		c0.6,0.7,1.1,1.5,1.5,2.2c0.6,1.1,1.5,2.2,2.5,3c1.4,0.9,3.5,1.8,4.8,1.6l0.1-0.1c0.4-0.4,0.6-0.2,0.6-0.1c0.3,0.6-0.1,2.7-0.9,3.7
		c-1.1,1.3-3.9,1.1-3.9,1.1h-0.3L247.2,519.1z"/>
	<path class="st9" d="M222.5,460.2c-0.4,7.3-0.8,15.6-1.2,17.6l0.5,0.1c0.5-2.1,0.9-10,1.3-17.7c0.3-6.1,0.6-12.4,0.9-13.3l-0.5-0.2
		C223.1,447.6,222.8,453.4,222.5,460.2z"/>
	<path class="st9" d="M223.8,475.7l0.5,0c0.3-3.7,0.8-28.8,0.8-29l-0.5,0.1C224.5,447,224,472,223.8,475.7z"/>
	<path class="st9" d="M220.5,497.2c-0.4,10.7-0.9,22.9-1.5,25.9l0.5,0.1c0.6-3,1-14.7,1.5-26c0.4-9.4,0.7-18.3,1.1-19.7l-0.5-0.1
		C221.3,478.8,220.9,487.4,220.5,497.2z"/>
	<path class="st9" d="M225.7,475.4l0.5-0.1c0-9.5,0.1-19.1,0.1-28.6l-0.5,0.1C225.8,456.3,225.7,465.8,225.7,475.4z"/>
	<path class="st9" d="M222,520.3l0.5-0.1c0.3-5.4,0.9-42.3,0.9-42.7l-0.5,0.1C222.9,478,222.3,514.8,222,520.3z"/>
	<path class="st9" d="M227.6,446.5c0.1,10.8,0.1,27.2-0.1,28.1l0.5,0.2c0.3-0.7,0.2-20.1,0.2-28.4L227.6,446.5z"/>
	<path class="st9" d="M224.3,519.8l0.5-0.1c0.1-14,0.1-28.1,0.2-42.1l-0.5,0.1C224.4,491.7,224.3,505.8,224.3,519.8z"/>
	<path class="st9" d="M229.3,446.3c0.1,1.2,0,15.3-0.1,22.9c0,2.7,0,4.6,0,5.1l0.5-0.1c0-0.5,0-2.5,0-5.1c0.1-8.1,0.2-21.7,0.1-23
		L229.3,446.3z"/>
	<path class="st9" d="M226.5,477.5c0.1,16.1,0.1,40.3-0.1,41.4l0.5,0.1c0.3-1,0.2-34.9,0.2-41.7L226.5,477.5z"/>
	<path class="st9" d="M228.4,477.1c0.1,1.8,0,22.6-0.1,33.8c0,3.9,0,6.8,0,7.6l0.5-0.1c0-0.7,0-3.6,0-7.6
		c0.1-11.9,0.2-31.9,0.1-33.8L228.4,477.1z"/>
	<path class="st9" d="M230.4,477.5c0.1,13.4,0.1,26.8,0.2,40.1l0.5-0.1c0-13.4-0.1-26.8-0.1-40.1L230.4,477.5z"/>
	<path class="st9" d="M232.6,516.8l0.5-0.1c0-13.5,0.1-26.9,0.1-40.4l-0.5,0.1C232.7,489.9,232.7,503.4,232.6,516.8z"/>
	<path class="st9" d="M234.5,516.5l0.5-0.1c0.1-13.5,0.1-27,0.2-40.6l-0.5,0.1L234.5,516.5z"/>
	<path class="st9" d="M236.6,516.9l0.5-0.1c0-13.1,0.1-26.1,0.1-39.2l-0.5,0.1C236.7,490.8,236.7,503.8,236.6,516.9z"/>
	<path class="st9" d="M238.4,477.1c0.2,13.3,0.5,26.7,0.7,40l0.5-0.1c-0.3-13.3-0.5-26.7-0.7-40L238.4,477.1z"/>
	<path class="st9" d="M230.9,446.4l0.1,27.2l0.5-0.1c0-9.1-0.1-18.1-0.1-27.2L230.9,446.4z"/>
	<path class="st9" d="M239.9,476.8l1.8,39.8l0.5-0.1l-1.8-39.9L239.9,476.8z"/>
	<path class="st9" d="M232.8,473.1l0.5-0.1c0-9.1,0.1-18.3,0.1-27.4l-0.5,0.1C232.9,454.8,232.9,463.9,232.8,473.1z"/>
	<path class="st9" d="M242,476.4c0.7,13.7,1.5,27.4,2.2,41.1l0.5-0.1c-0.7-13.7-1.5-27.4-2.2-41.1L242,476.4z"/>
	<path class="st9" d="M234.5,472.8l0.5-0.1c0-9.2,0.1-18.4,0.1-27.5l-0.5,0.1C234.6,454.4,234.6,463.6,234.5,472.8z"/>
	<path class="st9" d="M236.3,473l0.5-0.1l0.1-26.6l-0.5,0.1C236.4,455.2,236.3,464.1,236.3,473z"/>
	<path class="st9" d="M237.8,445.9c0.2,9.1,0.4,18.1,0.6,27.1l0.5-0.1c-0.2-9.1-0.4-18.1-0.6-27.1L237.8,445.9z"/>
	<path class="st9" d="M239.1,445.7c0.5,9,1,18,1.5,27l0.5-0.1l-1.5-27L239.1,445.7z"/>
	<path class="st9" d="M240.9,445.4l1.9,27.9l0.5-0.1l-1.9-27.9L240.9,445.4z"/>
	<path class="st8" d="M250,423.2c-4.3,0.1-18.8,10.8-18.8,10.9c-4-1.1-8.1-2.1-12.1-3c-6-1.4-4.7-2.1-6.5-1.2
		c-1.8,0.9-3.7,6.4-3.7,6.4c1.2-0.2,2.5-0.1,3.7,0.2c2.3,0.4,17.8-2.1,17.8-2.1c0-0.1,19.7-4,20.7-4.8c1.1-0.9,2.2-1.7,3.3-2.5
		C254.5,427.1,254.3,423.1,250,423.2z"/>
	<path class="st9" d="M250,422.9c-4.2,0.1-17.5,9.8-18.8,10.8c-4-1-8-2-12-3c-0.2-0.1-4.8-2.1-6.6-1.1c-1.8,0.9-3.8,6.4-3.9,6.6
		l-0.2,0.5l0.4-0.1c1.2-0.2,2.4-0.1,3.6,0.2c2.3,0.4,17.3-2,17.9-2.1l0,0c3.3-0.8,19.8-4,20.8-4.9c1-0.9,2.1-1.7,3.3-2.5l0.2-0.1
		v-0.2C254.8,427,254.5,422.7,250,422.9z M212.8,436.2c-1.1-0.3-2.2-0.3-3.4-0.2c0.7-1.7,2.1-5.1,3.4-5.7c1.4-0.7,5,0.6,6.3,1.2
		c3.7,0.9,7.4,1.8,11.2,2.8C228,434.4,214.8,436.6,212.8,436.2L212.8,436.2z M251.1,429.4c-0.7,0.6-11.1,2.7-18.9,4.4
		c3-2.2,13.5-9.6,17.4-10.2c0.1,0,0.3,0,0.4,0c2.2-0.1,4.1,1.4,4.2,3.4c0,0,0,0,0,0C253.2,427.7,252.1,428.5,251.1,429.4z"/>
	<path class="st8" d="M212,438.5c-2.5,4.1,0.9,8.3,0.9,8.3c0,0,4.2-4.1,7.4-4.7c3.1-0.6,4.9,5.4,5.7,5.7c0.8,0.4,15.7-4.7,15.7-4.6
		s4.3-6,6.7-6.1c1.5,0,2.9,0.2,4.3,0.6c0,0,1.1-5.1-0.7-6.9C250.1,428.6,214.5,434,212,438.5z"/>
	<path class="st9" d="M232.2,431.8c-4.4,0.7-18.7,3.7-20.4,6.5c-2.6,4.3,0.9,8.7,0.9,8.8l0.1,0.2l0.2-0.2c0,0,4.2-4,7.2-4.6
		c2.1-0.4,3.5,2.3,4.5,4.1c0.5,0.9,0.8,1.4,1.1,1.6c0.3,0,0.5,0,0.8-0.1c2.9-0.6,12.8-3.9,15-4.6h0.1l0.1-0.1c0-0.1,4.2-5.9,6.4-6
		c1.4,0,2.9,0.2,4.2,0.6l0.3,0.1l0.1-0.4c0-0.2,1.1-5.4-0.8-7.2C251,429.4,241.1,430.2,232.2,431.8z M252.4,437.2
		c-1.3-0.4-2.7-0.6-4.1-0.5c-2.3,0.1-6.2,5.4-6.8,6.2c-5.6,1.8-14.7,4.8-15.4,4.6c-0.4-0.4-0.6-0.9-0.8-1.4c-1-1.9-2.6-4.9-4.9-4.4
		c-2.8,0.6-6.4,3.8-7.3,4.6c-0.6-0.8-2.8-4.4-0.8-7.7c1-1.6,8.9-4.3,20-6.2c10.8-1.9,18.8-2.1,19.5-1.4
		C253,432.4,252.6,436.1,252.4,437.2z"/>
	<path class="st8" d="M247.3,436.6c-4,0.4-26.2,4.5-30.5,5.8c-4.4,1.1-5.8,9.1-4.7,10.2s8.2-2.9,9.5-3c6.8-0.6,13.5-1.1,20.3-1.5
		c4.7-0.2,7.7-4,9.2-4.5C252.6,443.3,251.3,436.1,247.3,436.6z"/>
	<path class="st9" d="M247.3,436.3c-3.9,0.4-26.1,4.5-30.6,5.8c-2.1,0.5-3.9,2.8-4.8,6c-0.6,2.2-0.6,4.2-0.1,4.9l0,0
		c0.7,0.8,3.4-0.3,6.8-1.8c0.9-0.5,1.9-0.8,2.9-1.1c6.8-0.6,13.5-1.1,20.3-1.5c0.4,0,0.7-0.1,1.1-0.1c2.8-0.5,4.9-2,6.4-3.2
		c0.5-0.5,1.1-0.8,1.8-1.2c0.6-0.2,0.9-1,0.9-2.2C251.9,439.3,250.2,435.9,247.3,436.3z M251,443.4c-0.7,0.3-1.4,0.7-2,1.2
		c-1.7,1.3-4.1,3.1-7.2,3.2c-6.8,0.4-13.5,0.8-20.3,1.5h-0.2c-1,0.3-2,0.7-2.9,1.1c-2.3,1-5.7,2.6-6.3,1.9l0,0
		c-0.4-0.4-0.4-2.2,0.2-4.2c0.4-1.4,1.6-4.7,4.3-5.4c4.4-1.3,26.6-5.5,30.5-5.8c2.8-0.4,4,3.1,4.1,5
		C251.5,442.7,251.4,443.3,251,443.4L251,443.4z"/>
	<path class="st9" d="M249.9,433.2c-1.3-0.7-33.5,5.7-35.3,6.6c-1.7,0.6-3,4.2-3.1,4.4l0.5,0.2c0,0,1.2-3.4,2.6-3.9
		c2.2-1,34-7.2,35.1-6.6c0.9,0.3,2.2,2.5,2.6,3.4l0.4-0.4C252.7,436.7,251.2,433.6,249.9,433.2z"/>
	<path class="st8" d="M241.6,406c-2.2,2.6-9.6,15.6-9.6,15.6s-8.8-11.3-10.6-12.4c-1.8-1.1-6.1,1-6.1,1s0.4,4.5,1.4,6.8
		c1,2.3,1.4,3,1.4,3c4.2,5.5,8.5,11.1,12.7,16.8c0,0,12.5-19,14.3-21.5c1.8-2.5,2.7-10.6,2.7-10.6S243.8,403.4,241.6,406z"/>
	<path class="st9" d="M241.5,405.8c-2,2.4-8.2,13.2-9.4,15.4c-1.4-1.8-8.8-11.1-10.4-12.2c-1.8-1.2-6.1,0.9-6.3,1l-0.2,0.1v0.3
		c0.2,2.3,0.7,4.7,1.4,6.9c1,2.3,1.4,3,1.4,3c4.3,5.6,8.6,11.3,12.9,17l0.2-0.3c0.1-0.2,12.5-19,14.3-21.5
		c1.8-2.6,2.8-10.4,2.8-10.8v-0.3l-0.2-0.1C247.8,404.4,243.7,403,241.5,405.8z M245,415.1c-1.6,2.3-12.5,18.7-14.1,21.2
		c-4.2-5.6-8.4-11.1-12.5-16.5c-0.1-0.1-0.5-0.9-1.3-3c-0.7-2.1-1.1-4.2-1.3-6.4c0.9-0.4,4.2-1.9,5.6-0.9
		c1.7,1.1,10.4,12.2,10.5,12.4l0.2,0.3l0.2-0.3c0.1-0.1,7.4-13,9.5-15.6c1.7-2.2,5-1.4,5.8-1.2C247.4,406.5,246.4,412.9,245,415.1
		L245,415.1z"/>
	<path class="st8" d="M232,395.5c-1.5,1.3-2.4,3.1-2.3,5c0.2,3,0.2,18.5,0.2,18.5l3.9,1.3c0,0-0.2-17.2,0-20.1
		C233.9,398.5,233.3,396.8,232,395.5z"/>
	<path class="st9" d="M234,400.3c0.1-1.8-0.5-3.6-1.8-5l-0.1-0.1l-0.2,0.1c-1.7,1.4-2.6,3.3-2.5,5.4c0.2,3,0.2,18.3,0.2,18.5v0.2
		l4.4,1.5v-0.5C234,420.1,233.9,403,234,400.3z M233.5,419.9l-3.4-1.1c0-2,0-15.5-0.2-18.3c0-1.7,0.7-3.3,2-4.5
		c1.1,1.2,1.6,2.8,1.5,4.4C233.4,402.9,233.5,417,233.5,419.9L233.5,419.9z"/>
	<path class="st9" d="M236.7,427.8c-9.2,1.6-20.7,4.2-21.8,4.2c-1.6,0-4,2-5.2,2.9c-0.2,0.2-0.5,0.4-0.6,0.4l0.1,0.6
		c0.2-0.2,0.5-0.3,0.7-0.5c1.1-0.9,3.4-2.8,4.9-2.8c1.2,0,12.2-2.5,21.9-4.2c6.4-1.2,12.5-2.1,13.1-2.1c1.5,0.2,3.1,0.5,4.5,1
		l0.2-0.6c-1.5-0.5-3-0.9-4.6-1.1C249.2,425.7,243.7,426.6,236.7,427.8z"/>
	<path class="st9" d="M216.4,446.4c-1.8,1-2.8,2.9-3.8,4.8c-0.2,0.4-0.4,0.8-0.7,1.2l0.4,0.3l0.7-1.3c1-1.9,1.8-3.5,3.5-4.5
		c2.2-1.5,30.3-7,31.3-6.6c0.7,0.2,2.7,2.2,3.3,2.9c0.1-0.2,0.2-0.4,0.4-0.5c-0.3-0.3-2.6-2.8-3.5-3.1
		C247,439.3,218.7,444.8,216.4,446.4z"/>
	<path class="st8" d="M247.5,417.3c-2.9,1.4-15.8,16.1-15.8,16.2c0,0-13.7-10.1-16.4-10.2c-2.7-0.1-6.1,2.6-6.1,2.6s4.9,3.2,7,4.8
		c2.2,1.6,15.4,15.4,15.4,15.5s13.3-17,15.1-20c1.8-3,7.1-7.8,7.1-7.8S250.4,415.8,247.5,417.3z"/>
	<path class="st9" d="M247.4,416.9c-2.8,1.4-14.2,14.3-15.8,16.1c-1.6-1.2-13.7-10-16.4-10.1c-2.8-0.2-6.1,2.6-6.2,2.7l-0.4,0.3
		l0.4,0.2c0.1,0,4.9,3.2,7,4.8l0,0c2.1,1.5,15.3,15.3,15.4,15.5l0.2,0.2l0.2-0.2c0.5-0.7,13.3-17,15.1-20c1.8-3,7-7.7,7-7.8l0.4-0.3
		l-0.3-0.3C253.7,417.9,250.4,415.5,247.4,416.9z M246.4,426c-1.6,2.8-13.3,17.6-14.9,19.7c-1.6-1.8-13.2-13.9-15.3-15.4l0,0
		c-1.8-1.3-5.4-3.8-6.6-4.6c1-0.7,3.4-2.4,5.5-2.2c2.7,0.1,16.2,10,16.3,10.2l0.2,0.1l0.2-0.2c0.1-0.2,12.9-14.7,15.8-16.1
		c2.2-1.1,4.8,0.2,5.7,0.8C252,419.5,248,423.3,246.4,426L246.4,426z"/>
	<path class="st8" d="M234.6,401.4c-1,2.5-2.2,20.7-2.2,20.7s-2.5-16.8-3.3-19.4c-0.8-2.6-4.1-4.3-4.1-4.3c-0.4,2.5-0.6,5-0.6,7.5
		c0.2,3.3,3.9,25.6,3.9,25.6l5.5-0.3c0,0,4.9-24.7,5.5-27.6s-0.4-7.6-0.4-7.6S235.5,398.9,234.6,401.4z"/>
	<path class="st9" d="M239,395.5l-0.3,0.2c-0.1,0.1-3.4,3-4.4,5.5c-0.8,2-1.7,13.4-2,18.4c-0.7-4.7-2.4-15.1-3-17.2
		c-0.8-2.7-4.1-4.4-4.2-4.4l-0.3-0.1l-0.1,0.4c-0.5,2.5-0.7,5.1-0.6,7.6c0.2,3.2,3.8,24.8,3.9,25.7v0.2c2-0.1,3.9-0.2,5.9-0.3
		l0.1-0.3c0.1-0.3,4.9-24.8,5.5-27.6s-0.4-7.5-0.4-7.7L239,395.5z M239,403.5c-0.5,2.7-4.9,24.6-5.4,27.3c-1.7,0.1-3.4,0.2-5.1,0.2
		c-0.4-2.4-3.7-22.3-3.9-25.4c-0.1-2.3,0.1-4.6,0.5-6.9c0.8,0.5,3.1,1.9,3.7,4c0.8,2.6,3.3,19.2,3.3,19.4l0.5-0.1
		c0.4-6.3,1.4-18.7,2.1-20.6s3.1-4.2,3.9-4.9C238.9,397.8,239.5,401.3,239,403.5L239,403.5z"/>
	<path class="st9" d="M246.5,420.8c-1.4,0.9-13.5,17.9-15.2,20.3c-1.6-1.6-14-13.1-15.4-14.4c-1.3-1.1-2.8-1.9-4.5-2.4l-0.2,0.7
		c1.6,0.5,3.1,1.3,4.4,2.3c1.5,1.4,15.4,14.4,15.6,14.6l0.2,0.2l0.2-0.2c3.8-5.5,14-19.6,15.2-20.4c1.4-1,6.7-2.7,6.7-2.7
		c0-0.2-0.1-0.4-0.1-0.6C253.1,418.1,247.9,419.8,246.5,420.8z"/>
	<path class="st8" d="M231.8,431.3c0,0-9.6-10.9-11.5-13.5c-2-2.6-7.8-0.4-7.8-0.4s1.6,2.4,2.5,4c5.4,5.9,10.8,12,16.2,18.1
		c0,0,13.3-19.1,15.3-22.4c2-3.3,4.1-7,4.1-7s-6.6,2-8.8,4.9S231.8,431.3,231.8,431.3z"/>
	<path class="st9" d="M241.6,414.9c-2,2.7-8.6,13.9-9.8,16c-1.4-1.6-9.6-10.9-11.3-13.2c-2-2.7-7.8-0.5-8.1-0.4l-0.4,0.2l0.3,0.4
		c0,0,1.6,2.4,2.5,4c5.4,5.9,10.8,12,16.3,18.1l0.2,0.2l0.2-0.3c0.5-0.8,13.3-19.2,15.3-22.4c2-3.2,4.1-7,4.1-7
		c0.1-0.2,0.3-0.5,0.4-0.7l-0.6,0.2C250.3,409.9,243.8,411.9,241.6,414.9z M246.3,417c-1.8,3-13.4,19.8-15.1,22.1
		c-5.3-6-10.7-12-16-17.8c-0.7-1.2-1.8-2.8-2.3-3.6c1.4-0.5,5.6-1.6,7.2,0.4c1.9,2.6,11.5,13.4,11.6,13.5l0.2,0.2l0.2-0.3
		c0.1-0.2,7.8-13.4,10-16.2c1.7-2.3,6.3-4,8-4.6C249.3,411.9,247.7,414.5,246.3,417L246.3,417z"/>
	<path class="st9" d="M231.4,435c-6-6.2-12-12.2-18-18.2l-0.4,0.6c6.1,6,12.1,12.1,18.2,18.4l0.2,0.2c5.7-8.3,11.4-16.5,17.2-24.6
		l-0.4-0.4C242.7,418.9,237,426.9,231.4,435z"/>
	<path class="st8" d="M232.2,417.8c0,0-6.8-11.7-8.4-13.6c-1.6-1.9-4.3-0.6-4.3-0.6c-0.2,1.8,0.2,3.7,1,5.4
		c1.4,3,11.9,16.7,11.9,16.7c0,0,8.2-15.7,9.8-19.5c1-2.3,1.6-4.7,1.8-7.1c0,0-3.1,1-4.5,3C238.1,404.1,232.2,417.8,232.2,417.8z"/>
	<path class="st9" d="M239.3,401.9c-1.3,1.8-6,12.8-7.1,15.3c-1.2-2.1-6.8-11.5-8.2-13.3c-1.6-2.1-4.4-0.8-4.6-0.7l-0.2,0.1v0.2
		c-0.2,1.9,0.2,3.8,1,5.6c1.4,3,11.5,16.2,12,16.8l0.2,0.3l0.2-0.4c0.3-0.7,8.2-15.7,9.8-19.5c1-2.3,1.6-4.8,1.8-7.3v-0.4l-0.4,0
		C243.8,398.7,240.7,399.8,239.3,401.9z M242,406c-1.4,3.4-8.3,16.7-9.6,19.1c-1.5-2-10.5-13.7-11.7-16.4c-0.7-1.6-1.1-3.2-1-4.9
		c0.6-0.2,2.7-0.9,3.9,0.7c1.5,1.9,8.3,13.5,8.4,13.6c0.1,0.1,0.2,0.3,0.2,0.4l0.2-0.5c0.1-0.1,5.9-13.7,7.2-15.7
		c1-1.2,2.4-2.2,4-2.8C243.4,401.7,242.8,403.9,242,406L242,406z"/>
	<path class="st9" d="M232,420.6c-4-5.7-7.9-11.3-11.9-16.9l-0.4,0.5c4.1,5.8,8.2,11.6,12.3,17.5c3.9-7.4,7.8-14.8,11.7-22.2
		l-0.4-0.3C239.6,406.3,235.8,413.4,232,420.6z"/>
	<path class="st9" d="M231.7,395.9l0.2,24.8l0.5-0.1l-0.2-24.8L231.7,395.9z"/>
	<path class="st9" d="M232.3,421.6c-2.3-7.7-4.6-15.3-6.8-22.9L225,399c2.4,8.2,4.9,16.4,7.3,24.6c2.2-8.9,4.4-17.8,6.6-26.6
		l-0.5-0.1C236.4,405.1,234.3,413.3,232.3,421.6z"/>
	<path class="st9" d="M231.6,430c-5.1-6.6-10.2-13.2-15.3-19.7l-0.4,0.5c5.2,6.7,10.5,13.4,15.7,20.2c5.2-8.7,10.5-17.3,15.8-25.8
		l-0.4-0.4C241.9,413.1,236.8,421.5,231.6,430z"/>
	<path class="st8" d="M220.7,467.3c-0.3,4.4-0.7,8.8-1,13.1c8.1-1.7,16.3-3.2,24.4-4.5l-0.8-12.8
		C235.8,464.3,228.2,465.7,220.7,467.3z"/>
	<path class="st9" d="M220.5,467c-0.3,4.6-0.7,9.2-1,13.8c8.3-1.7,16.7-3.3,25-4.6c-0.3-4.5-0.5-9-0.8-13.5
		C235.9,464,228.2,465.4,220.5,467z M220,480c0.3-4.2,0.6-8.3,0.9-12.5c7.4-1.5,14.8-2.9,22.2-4.1c0.2,4,0.5,8.1,0.7,12.2
		C235.9,476.9,228,478.4,220,480L220,480z"/>
	<path class="st9" d="M231.1,478.2l0.2,0.6c4.2-3.2,8.3-6.3,12.5-9.3l-0.2-0.6C239.5,471.9,235.3,475,231.1,478.2z"/>
	<path class="st9" d="M220.1,474.2l0.2,0.5c3.4-3,6.8-6,10.3-9l-0.2-0.6C226.9,468.2,223.5,471.2,220.1,474.2z"/>
	<path class="st8" d="M294.3,444.6c1.2-1.4,1.6-5.3,0-4.1c-1.2,0.1-3.3-0.9-4.7-1.9c-1.4-1-2.4-3.4-4-5.5
		c1.6-12.5,3.2-24.9,4.8-37.4c-6.5,10.9-9.8,30.6-10.7,32.9c-1-1.4-4.6-22-10.6-30c1.7,12.1,3.3,24.2,5,36.3
		c-1.6,2.1-3.3,4.8-4.9,6.2c-1.6,1.4-3.2,1.7-4.9,2.6c0,0-1.1,4.1,0,4.7c1.1,0.6,2.9-1.1,4.1-0.8s-4.3,69.6-4.3,69.6s9.6-5.2,16-5.4
		s14.9,2.3,14.9,2.3c-1.6-22.9-3.3-45.8-4.9-68.7C287.7,411.2,293.1,446,294.3,444.6z"/>
	<path class="st9" d="M294.5,444.9c0.9-1.1,1.4-3.5,1-4.5c-0.1-0.2-0.5-0.7-1.2-0.2c-1.2,0-3.1-0.9-4.5-1.9c-1-0.9-1.8-2-2.4-3.1
		c-0.5-0.7-0.9-1.5-1.5-2.3c1.6-12.4,3.2-24.8,4.8-37.2l-0.5-0.2c-4.9,8.3-8,21.5-9.6,28.5c-0.4,1.7-0.7,3-0.9,3.8
		c-0.3-0.9-0.8-2.7-1.3-4.7c-1.8-7.1-4.8-19.1-9.1-24.8l-0.4,0.3c1.6,12,3.3,24.1,4.9,36.1c-0.5,0.7-1,1.4-1.5,2.1
		c-0.9,1.4-2,2.8-3.2,4c-0.9,0.8-2,1.4-3.2,1.8c-0.6,0.2-1.1,0.5-1.6,0.7l-0.1,0.1v0.2c-0.1,0.4-1.2,4.4,0.2,5.1
		c0.7,0.4,1.5,0,2.4-0.3c0.5-0.3,1.1-0.4,1.7-0.4c0.6,2.5-2.3,42.6-4.4,69.3l0,0.5l0.4-0.2c0.1-0.1,9.6-5.2,15.9-5.3
		s14.7,2.2,14.8,2.3l0.4,0.1c-1.6-22.9-3.3-45.8-4.9-68.7C291.3,445.9,293.4,446.1,294.5,444.9z M294.8,513.7
		c-1.7-0.5-8.9-2.3-14.6-2.2c-0.4,0-0.8,0-1.2,0.1c-5.6,0.6-12.9,4.2-14.6,5.1c0.2-3,1.5-18.6,2.6-34.1c2.5-35,1.9-35.1,1.5-35.2
		c-0.7-0.1-1.5,0-2.1,0.4c-0.7,0.3-1.5,0.6-2,0.4c-0.8-0.4-0.2-3,0-4.2c0.5-0.2,1-0.4,1.5-0.6c1.2-0.4,2.4-1.1,3.3-1.9
		c1.3-1.3,2.4-2.6,3.3-4.1c0.5-0.7,1.1-1.5,1.6-2.2l0.1-0.1c-1.6-11.8-3.2-23.5-4.8-35.3c3.9,5.9,6.7,17,8.4,23.7
		c0.8,3.4,1.3,5,1.6,5.4l0.2,0.3l0.2-0.4c0.2-0.6,0.6-2.1,1.2-4.5c1.6-6.7,4.4-19,8.9-27.2c-1.6,12.1-3.1,24.1-4.7,36.2l0.1,0.1
		c0.6,0.8,1.1,1.6,1.5,2.3c0.6,1.2,1.5,2.3,2.5,3.2c1.4,1,3.5,2.1,4.8,2l0.1,0c0.5-0.3,0.6-0.1,0.6-0.1c0.3,0.6-0.1,2.7-0.9,3.6
		c-1.1,1.2-3.9,0.7-3.9,0.7l-0.3-0.1C291.5,467.9,293.2,490.8,294.8,513.7L294.8,513.7z"/>
	<path class="st9" d="M270.1,452.6c-0.4,7.3-0.8,15.5-1.2,17.5l0.5,0.1c0.5-2.1,0.9-10,1.3-17.6c0.3-6.1,0.6-12.4,0.9-13.3l-0.5-0.2
		C270.7,440.1,270.4,445.9,270.1,452.6z"/>
	<path class="st9" d="M271.4,468.3h0.5c0.3-3.7,0.8-28.7,0.8-28.9l-0.5,0C272.1,439.6,271.6,464.6,271.4,468.3z"/>
	<path class="st9" d="M268.1,489.5c-0.4,10.7-0.9,22.8-1.4,25.7l0.5,0.1c0.6-3,1-14.6,1.5-25.9c0.4-9.4,0.7-18.2,1.1-19.6l-0.5-0.2
		C268.8,471.2,268.5,479.7,268.1,489.5z"/>
	<path class="st9" d="M273.3,468.1l0.5-0.1c0-9.5,0.1-19,0.1-28.6l-0.5,0C273.4,449,273.3,458.6,273.3,468.1z"/>
	<path class="st9" d="M269.6,512.6h0.5c0.3-5.4,0.9-42.2,0.9-42.6h-0.5C270.5,470.5,269.9,507.3,269.6,512.6z"/>
	<path class="st9" d="M275.2,439.5c0,10.8,0.1,27.2-0.1,28.1l0.2,0.1l-0.2-0.1l0.2,0.1l0.2,0.1c0.3-0.7,0.2-20.1,0.2-28.4
		L275.2,439.5z"/>
	<path class="st9" d="M271.9,512.4l0.5-0.1c0.1-14,0.1-28.1,0.2-42.1l-0.5,0.1C272,484.3,271.9,498.4,271.9,512.4z"/>
	<path class="st9" d="M276.9,439.3c0.1,1.2,0,15.3-0.1,22.9c0,2.7,0,4.6,0,5.1l0.5-0.1c0-0.5,0-2.5,0-5.1c0.1-8.1,0.2-21.7,0.1-23
		L276.9,439.3z"/>
	<path class="st9" d="M274.1,470.3c0.1,16.1,0.1,40.4-0.1,41.4l0.5,0.2c0.3-1,0.2-34.9,0.2-41.6L274.1,470.3z"/>
	<path class="st9" d="M276,470.1c0.1,1.8,0,22.6-0.1,33.7c0,3.9,0,6.8,0,7.6l0.5-0.1c0-0.7,0-3.6,0-7.6c0.1-11.9,0.2-31.9,0.1-33.8
		L276,470.1z"/>
	<path class="st9" d="M278,470.7c0.1,13.4,0.1,26.8,0.2,40.1l0.5-0.1c0-13.4-0.1-26.8-0.2-40.1L278,470.7z"/>
	<path class="st9" d="M280.2,510.2l0.5,0c0.1-13.5,0.1-26.9,0.2-40.4l-0.5,0C280.3,483.3,280.2,496.7,280.2,510.2z"/>
	<path class="st9" d="M282.1,510l0.5,0c0.1-13.5,0.1-27,0.2-40.6l-0.5,0C282.2,483,282.2,496.5,282.1,510z"/>
	<path class="st9" d="M284.2,510.6l0.5,0c0-13.1,0.1-26.1,0.1-39.2l-0.5,0C284.3,484.4,284.3,497.5,284.2,510.6z"/>
	<path class="st9" d="M286,470.8c0.2,13.3,0.5,26.7,0.7,40.1l0.5-0.1c-0.2-13.3-0.5-26.7-0.7-40.1L286,470.8z"/>
	<path class="st9" d="M278.5,439.6l0.1,27.2l0.5-0.1l-0.2-27.2L278.5,439.6z"/>
	<path class="st9" d="M287.5,470.7l1.8,40l0.5-0.1l-1.8-40L287.5,470.7z"/>
	<path class="st9" d="M280.4,466.4l0.5,0c0-9.1,0.1-18.3,0.1-27.4l-0.5,0L280.4,466.4z"/>
	<path class="st9" d="M289.6,470.6c0.7,13.8,1.5,27.5,2.2,41.3l0.5-0.1c-0.7-13.8-1.5-27.5-2.2-41.3L289.6,470.6z"/>
	<path class="st9" d="M282.1,466.3l0.5,0l0.1-27.5l-0.5,0C282.2,447.9,282.1,457.1,282.1,466.3z"/>
	<path class="st9" d="M283.9,466.7l0.5,0c0-8.9,0.1-17.7,0.1-26.6l-0.5,0C284,448.9,283.9,457.8,283.9,466.7z"/>
	<path class="st9" d="M285.4,439.6c0.2,9.1,0.4,18.1,0.6,27.2l0.5-0.1c-0.2-9.1-0.4-18.1-0.6-27.2L285.4,439.6z"/>
	<path class="st9" d="M286.7,439.5c0.5,9,1,18.1,1.5,27.1l0.5-0.1c-0.5-9.1-1-18.1-1.5-27.1L286.7,439.5z"/>
	<path class="st9" d="M288.5,439.4l1.9,28l0.5-0.1l-1.9-28L288.5,439.4z"/>
	<path class="st8" d="M297.6,418c-4.3-0.3-18.8,9.2-18.8,9.3c-4-1.4-8.1-2.8-12.1-4.1c-6-2-4.7-2.5-6.5-1.7
		c-1.8,0.8-3.7,6.1-3.7,6.1c1.3-0.1,2.5,0.1,3.7,0.5c2.3,0.6,17.8-0.6,17.8-0.5c0-0.1,19.7-2.4,20.7-3.1c1.1-0.8,2.2-1.6,3.3-2.3
		C302.1,422.3,301.9,418.2,297.6,418z"/>
	<path class="st9" d="M297.6,417.7c-4.2-0.2-17.5,8.3-18.8,9.3c-4-1.4-8-2.7-12-4c-0.2-0.1-4.8-2.5-6.6-1.7
		c-1.8,0.8-3.8,6.1-3.9,6.3l-0.2,0.5l0.4-0.1c1.2-0.1,2.5,0.1,3.6,0.5c2.4,0.6,17.3-0.5,17.9-0.5l0,0c3.3-0.5,19.8-2.4,20.8-3.1
		c1.1-0.8,2.2-1.5,3.3-2.2l0.2-0.1v-0.2C302.3,422.2,302.1,417.9,297.6,417.7z M260.3,427.8c-1.1-0.3-2.2-0.5-3.4-0.5
		c0.7-1.7,2.2-4.9,3.4-5.4c1.4-0.6,5,1,6.3,1.7c3.7,1.2,7.4,2.4,11.2,3.7C275.6,427.4,262.4,428.4,260.3,427.8z M298.7,424.3
		c-0.7,0.5-11.1,1.8-18.9,2.8c3-2,13.5-8.5,17.4-8.7c0.1,0,0.3,0,0.4,0c2.3,0.1,4.1,1.7,4.2,3.7
		C300.7,422.8,299.7,423.5,298.7,424.3z"/>
	<path class="st8" d="M259.6,430c-2.5,3.8,0.9,8.4,0.9,8.4s4.2-3.7,7.4-4.1s4.9,5.8,5.7,6.2c0.8,0.4,15.7-3.3,15.7-3.3
		c0,0,4.3-5.7,6.6-5.6c1.5,0.1,3,0.4,4.3,1c0,0,1.1-5.1-0.7-7C297.7,423.5,262.1,425.9,259.6,430z"/>
	<path class="st9" d="M279.8,425.1c-4.4,0.3-18.7,2.1-20.4,4.7c-2.6,4,0.9,8.8,0.9,8.8l0.1,0.2l0.2-0.2c0,0,4.2-3.6,7.2-4
		c2.1-0.2,3.5,2.6,4.5,4.5c0.5,1,0.8,1.5,1.1,1.6c0.3,0.1,0.5,0.1,0.8,0c2.9-0.3,12.8-2.8,15-3.3h0.1l0.1-0.1c0-0.1,4.3-5.6,6.5-5.5
		c1.5,0.1,2.9,0.4,4.2,1l0.3,0.1l0.1-0.4c0-0.2,1.1-5.3-0.8-7.3C298.6,424.3,288.6,424.3,279.8,425.1z M299.9,432.2
		c-1.3-0.5-2.7-0.8-4.1-0.9c-2.3-0.1-6.2,4.9-6.8,5.6c-5.6,1.3-14.7,3.5-15.4,3.3c-0.4-0.4-0.6-0.9-0.8-1.4c-1-2-2.6-5.1-4.9-4.8
		c-2.8,0.3-6.4,3.2-7.3,4c-0.6-0.9-2.8-4.6-0.8-7.8c1-1.5,8.9-3.5,20-4.5c10.8-1,18.8-0.5,19.5,0.2
		C300.6,427.5,300.1,431.1,299.9,432.2L299.9,432.2z"/>
	<path class="st8" d="M294.9,431.2c-4,0.1-26.2,2.3-30.5,3.2c-4.4,0.7-5.8,8.6-4.7,9.8c1.1,1.2,8.2-2.2,9.5-2.2
		c6.8,0,13.5,0.1,20.3,0.3c4.7,0.1,7.7-3.4,9.2-3.7C300.2,438.2,298.9,431,294.9,431.2z"/>
	<path class="st9" d="M294.9,430.9c-3.9,0.1-26.1,2.3-30.6,3.2c-2.1,0.4-3.9,2.4-4.8,5.5c-0.6,2.1-0.7,4.2-0.1,4.9l0,0
		c0.7,0.9,3.4,0,6.8-1.2c0.9-0.4,1.9-0.7,2.9-0.9c6.8,0,13.5,0.1,20.3,0.3c0.3,0,0.7,0,1,0c2.8-0.2,4.9-1.6,6.4-2.7
		c0.5-0.4,1.1-0.8,1.8-1c0.6-0.1,0.9-0.9,0.9-2.1C299.5,434.2,297.8,430.7,294.9,430.9z M298.6,438.3c-0.7,0.3-1.4,0.6-2,1.1
		c-1.7,1.2-4.1,2.7-7.2,2.6c-6.8-0.2-13.5-0.3-20.3-0.3h-0.2c-1,0.2-2,0.5-2.9,0.9c-2.3,0.8-5.7,2-6.3,1.3l0,0
		c-0.4-0.4-0.4-2.2,0.2-4.2c0.4-1.4,1.6-4.6,4.3-5c4.4-0.9,26.6-3.2,30.5-3.2c2.8-0.1,4.1,3.4,4.1,5.4
		C299.1,437.5,299,438.2,298.6,438.3z"/>
	<path class="st9" d="M297.5,428c-1.3-0.8-33.5,2.8-35.3,3.6c-1.7,0.4-3,4-3.1,4.1c0.2,0.1,0.3,0.2,0.5,0.2c0,0,1.2-3.3,2.6-3.7
		c2.2-0.8,34-4.3,35.1-3.6c0.9,0.4,2.2,2.7,2.6,3.6l0.4-0.4C300.3,431.7,298.8,428.5,297.5,428z"/>
	<path class="st8" d="M289.2,400.1c-2.2,2.4-9.6,14.8-9.6,14.8c0,0-8.8-12-10.6-13.3s-6.1,0.5-6.1,0.5c0.2,2.3,0.6,4.7,1.4,6.9
		c1,2.4,1.4,3.1,1.4,3.1c4.2,5.9,8.5,11.9,12.7,17.9c0,0,12.5-17.9,14.3-20.3c1.8-2.4,2.7-10.4,2.7-10.4S291.4,397.6,289.2,400.1z"
		/>
	<path class="st9" d="M289,399.9c-2,2.3-8.2,12.6-9.4,14.6c-1.4-1.9-8.8-11.9-10.4-13.1c-1.8-1.4-6.1,0.4-6.3,0.5l-0.2,0.1v0.3
		c0.2,2.4,0.7,4.7,1.4,7c1,2.4,1.4,3.1,1.4,3.2c4.3,6,8.6,12.1,12.9,18.2l0.2-0.3c0.1-0.2,12.5-18,14.3-20.3
		c1.8-2.5,2.8-10.2,2.8-10.6v-0.3l-0.2-0.1C295.4,399,291.3,397.3,289,399.9z M292.5,409.5c-1.6,2.2-12.5,17.7-14.1,20
		c-4.2-5.9-8.4-11.8-12.5-17.6c-0.1-0.1-0.5-0.9-1.3-3.1c-0.7-2.1-1.1-4.3-1.3-6.5c0.9-0.4,4.2-1.5,5.6-0.4
		c1.7,1.3,10.4,13.1,10.5,13.3l0.2,0.3l0.2-0.3c0.1-0.1,7.4-12.4,9.5-14.8c1.7-2,5-1,5.8-0.7C295,401,294,407.5,292.5,409.5
		L292.5,409.5z"/>
	<path class="st8" d="M279.6,388.8c-1.6,1.2-2.4,3-2.3,4.8c0.2,3,0.2,18.5,0.2,18.5l3.9,1.6c0,0-0.2-17.2,0-20.1
		C281.4,391.9,280.8,390.2,279.6,388.8z"/>
	<path class="st9" d="M281.6,393.7c0.1-1.9-0.6-3.7-1.8-5.2l-0.1-0.1l-0.2,0.1c-1.7,1.3-2.6,3.2-2.5,5.2c0.2,3,0.2,18.3,0.2,18.5
		v0.2l4.4,1.9v-0.5C281.6,413.5,281.4,396.5,281.6,393.7z M281.1,413.3c-1.1-0.5-2.3-1-3.4-1.4c0-2,0-15.5-0.2-18.3
		c-0.1-1.6,0.7-3.2,2-4.3c1.1,1.3,1.6,2.9,1.5,4.5C280.9,396.3,281.1,410.4,281.1,413.3L281.1,413.3z"/>
	<path class="st9" d="M284.3,421.5c-9.2,0.9-20.7,2.4-21.8,2.3c-1.6-0.1-4,1.6-5.2,2.5c-0.2,0.1-0.4,0.3-0.6,0.4
		c0,0.2,0.1,0.4,0.1,0.6c0.2-0.1,0.5-0.3,0.7-0.4c1.1-0.8,3.4-2.5,4.9-2.4c1.2,0.1,12.2-1.4,21.9-2.3c6.4-0.6,12.5-1.1,13.1-1.1
		c1.6,0.3,3.1,0.8,4.5,1.4l0.2-0.6c-1.5-0.6-3-1.1-4.6-1.4C296.8,420.4,291.3,420.8,284.3,421.5z"/>
	<path class="st9" d="M264,438.3c-1.8,0.9-2.8,2.6-3.8,4.4c-0.2,0.4-0.4,0.8-0.7,1.2l0.4,0.4c0.2-0.4,0.5-0.8,0.7-1.2
		c1-1.8,1.9-3.4,3.5-4.2c2.2-1.3,30.3-4.4,31.3-4c0.7,0.2,2.7,2.4,3.3,3.2c0.1-0.2,0.2-0.3,0.4-0.5c-0.3-0.3-2.6-3-3.5-3.3
		C294.6,433.9,266.3,437,264,438.3z"/>
	<path class="st8" d="M295.1,411.8c-2.9,1.2-15.8,14.8-15.8,14.8s-13.7-11.2-16.4-11.6c-2.7-0.4-6.1,2.1-6.1,2.1s4.9,3.7,7,5.4
		c2.2,1.8,15.4,16.8,15.4,16.8s13.3-15.9,15.1-18.7c1.8-2.9,7.1-7.3,7.1-7.3S298,410.6,295.1,411.8z"/>
	<path class="st9" d="M295,411.5c-2.8,1.1-14.2,13.1-15.8,14.8c-1.6-1.4-13.7-11.2-16.4-11.5c-2.8-0.4-6.1,2-6.2,2.1l-0.4,0.3
		l0.4,0.3c0,0,4.9,3.7,7,5.4l0,0c2.1,1.7,15.3,16.6,15.4,16.8l0.2,0.2l0.2-0.2c0.5-0.7,13.3-15.9,15.1-18.8c1.8-2.9,7-7.1,7-7.2
		l0.4-0.3c-0.1-0.1-0.2-0.2-0.3-0.3C301.4,413,298,410.2,295,411.5z M294,420.5c-1.6,2.6-13.3,16.5-14.9,18.5
		c-1.6-1.9-13.2-15.1-15.3-16.7l0,0c-1.8-1.5-5.4-4.2-6.6-5.1c1-0.6,3.4-2,5.5-1.7c2.7,0.3,16.2,11.4,16.3,11.6l0.2,0.1l0.1-0.2
		c0.1-0.2,12.9-13.6,15.8-14.8c2.2-0.9,4.8,0.6,5.7,1.3C299.6,414.5,295.6,418,294,420.5L294,420.5z"/>
	<path class="st8" d="M282.2,394.9c-1,2.4-2.2,20.5-2.2,20.5s-2.5-17-3.3-19.7c-0.8-2.7-4.1-4.6-4.1-4.6c-0.4,2.5-0.6,4.9-0.6,7.4
		c0.2,3.3,3.9,26,3.9,26c1.8,0.1,3.7,0.1,5.5,0.2c0,0,4.9-24.3,5.5-27.2c0.6-2.8-0.4-7.6-0.4-7.6S283.1,392.5,282.2,394.9z"/>
	<path class="st9" d="M286.6,389.4l-0.3,0.2c-0.1,0.1-3.4,2.7-4.4,5.1c-0.8,1.9-1.7,13.2-2,18.3c-0.7-4.8-2.4-15.4-3-17.5
		c-0.8-2.8-4.1-4.7-4.2-4.8l-0.3-0.2l-0.1,0.4c-0.5,2.5-0.7,5-0.6,7.5c0.2,3.3,3.8,25.1,3.9,26v0.2c2,0.1,3.9,0.1,5.9,0.2l0.1-0.3
		c0-0.3,4.9-24.4,5.5-27.2c0.6-2.8-0.3-7.6-0.4-7.8L286.6,389.4z M286.6,397.4c-0.5,2.6-4.9,24.1-5.4,26.9l-5.1-0.2
		c-0.4-2.4-3.7-22.7-3.9-25.7c-0.1-2.3,0.1-4.6,0.5-6.9c0.8,0.5,3.1,2.2,3.7,4.3c0.8,2.7,3.3,19.5,3.3,19.7l0.5-0.1
		c0.4-6.2,1.4-18.6,2.1-20.4c0.7-1.8,3.1-3.9,3.9-4.6C286.5,391.7,287.1,395.2,286.6,397.4L286.6,397.4z"/>
	<path class="st9" d="M294,415.3c-1.4,0.8-13.5,16.8-15.2,19c-1.6-1.7-14-14.3-15.4-15.8c-1.3-1.2-2.8-2.1-4.5-2.8l-0.2,0.6
		c1.6,0.6,3.1,1.6,4.4,2.7c1.5,1.5,15.4,15.8,15.6,16l0.2,0.2l0.2-0.2c3.8-5.2,14-18.4,15.2-19.1c1.4-0.8,6.7-2.2,6.7-2.2l-0.1-0.7
		C300.7,413.1,295.5,414.4,294,415.3z"/>
	<path class="st8" d="M279.4,424.6c0,0-9.6-11.7-11.5-14.5c-2-2.8-7.8-1.1-7.8-1.1s1.6,2.6,2.5,4.2c5.4,6.4,10.8,12.9,16.2,19.5
		c0,0,13.3-18,15.3-21.1c2-3.1,4.1-6.6,4.1-6.6s-6.7,1.5-8.8,4.2C287.2,411.9,279.4,424.6,279.4,424.6z"/>
	<path class="st9" d="M289.2,409c-2,2.5-8.6,13.1-9.8,15.1c-1.4-1.7-9.6-11.7-11.3-14.2c-2-2.9-7.8-1.2-8.1-1.1l-0.4,0.1l0.3,0.4
		c0,0,1.6,2.6,2.5,4.2c5.4,6.4,10.8,12.9,16.3,19.5l0.2,0.2l0.2-0.2c0.5-0.8,13.3-18,15.3-21.2c2-3.1,4.1-6.6,4.1-6.6l0.4-0.7
		l-0.6,0.1C297.9,404.7,291.4,406.2,289.2,409z M293.9,411.4c-1.8,2.9-13.4,18.6-15.1,20.9c-5.3-6.5-10.7-12.9-16-19.2
		c-0.7-1.2-1.8-3-2.3-3.8c1.4-0.3,5.6-1.1,7.2,1.1c1.9,2.8,11.5,14.4,11.6,14.5l0.2,0.2l0.2-0.3c0.1-0.1,7.8-12.7,10-15.4
		c1.7-2.1,6.3-3.5,8-4C296.8,406.7,295.3,409.1,293.9,411.4L293.9,411.4z"/>
	<path class="st9" d="M279,428.3c-6-6.7-12-13.3-18-19.7l-0.4,0.5c6.1,6.5,12.1,13.2,18.2,19.9l0.2,0.2c5.7-7.8,11.4-15.5,17.2-23.2
		l-0.4-0.4C290.2,413,284.6,420.6,279,428.3z"/>
	<path class="st8" d="M279.8,411.1c0,0-6.8-12.2-8.4-14.3c-1.6-2.1-4.3-1-4.3-1c-0.2,1.9,0.2,3.7,1,5.5c1.4,3.1,11.9,17.7,11.9,17.7
		s8.2-15,9.8-18.7c0.9-2.2,1.5-4.6,1.8-7c0,0-3.1,0.8-4.5,2.7C285.7,397.9,279.8,411.1,279.8,411.1z"/>
	<path class="st9" d="M286.9,395.7c-1.2,1.7-6,12.3-7.1,14.7c-1.2-2.2-6.8-12.1-8.2-14c-1.6-2.2-4.4-1.1-4.5-1.1l-0.2,0.1v0.2
		c-0.2,1.9,0.2,3.9,1,5.7c1.4,3.1,11.5,17.2,12,17.8l0.2,0.3l0.2-0.4c0.3-0.6,8.2-15,9.8-18.7c1-2.3,1.6-4.7,1.8-7.1v-0.4l-0.3,0.1
		C291.4,393,288.3,393.8,286.9,395.7z M289.6,400.2c-1.4,3.3-8.3,16-9.6,18.3c-1.5-2.1-10.5-14.6-11.7-17.4c-0.7-1.6-1.1-3.3-1-5
		c1.4-0.5,3-0.1,3.9,1c1.5,2,8.3,14.2,8.4,14.3l0.2,0.4l0.2-0.5c0.1-0.1,5.9-13.2,7.2-15.1c1-1.2,2.4-2,4-2.5
		C291,395.9,290.4,398.1,289.6,400.2z"/>
	<path class="st9" d="M279.6,413.9c-4-6-7.9-12-11.9-17.9l-0.4,0.5c4.1,6.1,8.2,12.3,12.3,18.5c3.9-7.1,7.8-14.2,11.7-21.2l-0.4-0.4
		C287.2,400.2,283.4,407,279.6,413.9z"/>
	<path class="st9" d="M279.3,389.1c0.1,8.3,0.2,16.5,0.2,24.8l0.5-0.1l-0.2-24.8L279.3,389.1z"/>
	<path class="st9" d="M279.9,414.9l-6.8-23.5l-0.5,0.3c2.4,8.4,4.9,16.8,7.3,25.3c2.2-8.7,4.4-17.4,6.6-26.1l-0.5-0.2
		C284,398.7,281.9,406.8,279.9,414.9z"/>
	<path class="st9" d="M279.2,423.3c-5.1-7.1-10.2-14.1-15.3-21l-0.4,0.5c5.2,7.1,10.5,14.3,15.7,21.6c5.2-8.3,10.5-16.4,15.8-24.5
		l-0.4-0.4C289.5,407.2,284.4,415.2,279.2,423.3z"/>
	<path class="st8" d="M268.3,459.6l-1,13.1c8.1-1,16.3-1.8,24.4-2.4l-0.8-12.9C283.4,457.9,275.8,458.7,268.3,459.6z"/>
	<path class="st9" d="M268,459.3l-1,13.8c8.3-1,16.7-1.8,25-2.5c-0.3-4.5-0.5-9-0.8-13.6C283.5,457.6,275.8,458.4,268,459.3z
		 M267.6,472.3c0.3-4.1,0.6-8.3,0.9-12.4c7.4-0.9,14.8-1.6,22.2-2.2c0.2,4.1,0.5,8.1,0.7,12.2C283.5,470.5,275.5,471.3,267.6,472.3z
		"/>
	<path class="st9" d="M278.7,471.4l0.2,0.6c4.2-2.8,8.3-5.6,12.5-8.3l-0.2-0.6C287,465.9,282.9,468.6,278.7,471.4z"/>
	<path class="st9" d="M267.7,466.5c0.1,0.2,0.2,0.4,0.2,0.6c3.4-2.7,6.8-5.4,10.3-8.1l-0.2-0.6C274.5,461,271.1,463.7,267.7,466.5z"
		/>
	<path class="st8" d="M341.3,442.4c1.2-1.3,1.6-5.2,0-4.1c-1.2,0-3.3-1.1-4.7-2.3c-1.4-1.1-2.4-3.6-4-5.8c1.6-12.3,3.2-24.7,4.8-37
		c-6.4,10.4-9.8,29.9-10.7,32.1c-1-1.5-4.6-22.4-10.6-30.8c1.7,12.2,3.3,24.5,5,36.7c-1.6,2-3.3,4.5-4.9,5.9s-3.2,1.5-4.9,2.2
		c0,0-1.1,4,0,4.7c1.1,0.7,2.9-0.9,4.1-0.4s-4.3,69.2-4.3,69.2s9.6-4.5,16-4.1c6.5,0.4,14.9,3.3,14.9,3.3c-1.6-23-3.3-46-4.9-69
		C334.7,408.4,340.1,443.7,341.3,442.4z"/>
	<path class="st9" d="M341.5,442.7c0.9-1,1.4-3.4,1-4.4c-0.1-0.3-0.5-0.5-0.9-0.4c-0.1,0-0.2,0.1-0.3,0.2c-1.2,0-3.2-1.2-4.5-2.2
		c-1-1-1.8-2.1-2.4-3.3c-0.5-0.8-0.9-1.6-1.5-2.4c1.6-12.3,3.2-24.5,4.8-36.8l-0.4-0.3c-4.9,7.9-8,20.9-9.6,27.8
		c-0.4,1.6-0.7,2.9-0.9,3.7c-0.3-0.9-0.8-2.7-1.3-4.8c-1.8-7.3-4.8-19.5-9.1-25.5l-0.4,0.3c1.7,12.2,3.3,24.3,4.9,36.5
		c-0.5,0.6-1,1.3-1.5,2c-0.9,1.3-2,2.6-3.2,3.7c-0.9,0.7-2,1.2-3.2,1.6c-0.6,0.2-1.1,0.4-1.6,0.6l-0.1,0.1l0,0.2
		c-0.1,0.4-1.2,4.3,0.2,5.1c0.7,0.4,1.5,0.1,2.4-0.2c0.5-0.3,1.1-0.4,1.7-0.3c0.6,2.5-2.3,42.4-4.4,68.9v0.5l0.4-0.2
		c0.1-0.1,9.6-4.5,15.9-4.1c6.3,0.4,14.7,3.3,14.8,3.3l0.4,0.1c-1.6-23-3.3-46-4.9-69.1C338.3,443.5,340.4,443.8,341.5,442.7z
		 M341.8,511.5c-1.7-0.6-8.9-2.9-14.6-3.2c-0.4,0-0.8,0-1.2,0c-5.6,0.1-12.9,3.2-14.6,4c0.2-3,1.5-18.5,2.5-34
		c2.5-34.8,1.9-35,1.5-35.1c-0.7-0.1-1.4-0.1-2.1,0.3c-0.7,0.3-1.5,0.5-2,0.2c-0.7-0.4-0.2-3.1,0.1-4.1c0.5-0.2,1-0.4,1.5-0.5
		c1.2-0.3,2.4-0.9,3.3-1.6c1.3-1.2,2.4-2.4,3.3-3.8c0.5-0.7,1.1-1.4,1.6-2.1l0.1-0.1c-1.6-11.9-3.2-23.8-4.8-35.7
		c3.9,6.2,6.7,17.5,8.4,24.4c0.8,3.4,1.3,5.1,1.6,5.6c0.1,0.1,0.2,0.2,0.2,0.4l0.2-0.4c0.2-0.6,0.6-2.1,1.2-4.4
		c1.6-6.6,4.4-18.7,8.9-26.6c-1.6,11.9-3.1,23.9-4.7,35.8l0.1,0.1c0.6,0.8,1.1,1.6,1.5,2.4c0.6,1.3,1.5,2.4,2.5,3.4
		c1.4,1.1,3.5,2.3,4.8,2.3l0.1,0c0.5-0.3,0.6-0.1,0.6,0c0.2,1.2-0.1,2.5-0.9,3.5c-1.1,1.2-3.9,0.5-3.9,0.5l-0.3-0.1L341.8,511.5z"/>
	<path class="st9" d="M317,448.6c-0.4,7.2-0.8,15.4-1.2,17.4l0.5,0.2c0.5-2,0.9-9.9,1.3-17.5c0.3-6.1,0.6-12.3,0.9-13.2l-0.5-0.2
		C317.7,436.2,317.4,441.9,317,448.6z"/>
	<path class="st9" d="M318.3,464.4l0.5,0c0.3-3.6,0.8-28.6,0.8-28.9h-0.5C319.1,435.8,318.6,460.8,318.3,464.4z"/>
	<path class="st9" d="M315.1,485.4c-0.4,10.7-0.9,22.7-1.4,25.6l0.5,0.1c0.6-2.9,1-14.5,1.5-25.7c0.4-9.4,0.7-18.2,1.1-19.5
		l-0.5-0.2C315.8,467.1,315.5,475.6,315.1,485.4z"/>
	<path class="st9" d="M320.3,464.3h0.5c0-9.5,0.1-19.1,0.1-28.6h-0.5L320.3,464.3z"/>
	<path class="st9" d="M316.6,508.6h0.5c0.3-5.4,0.9-42.2,0.9-42.5h-0.5C317.5,466.5,316.9,503.3,316.6,508.6z"/>
	<path class="st9" d="M322.2,435.8c0.1,10.8,0.1,27.2-0.1,28.1l0.5,0.2c0.3-0.7,0.2-20,0.2-28.3L322.2,435.8z"/>
	<path class="st9" d="M318.9,508.5h0.5c0-14,0.1-28.1,0.1-42.1H319C319,480.5,318.9,494.5,318.9,508.5z"/>
	<path class="st9" d="M323.8,435.8c0.1,1.2,0,15.3-0.1,22.9c0,2.7,0,4.6,0,5.1h0.5c0-0.5,0-2.5,0-5.1c0.1-8.1,0.2-21.7,0.1-23
		L323.8,435.8z"/>
	<path class="st9" d="M321.1,466.6c0.1,16.1,0.1,40.4-0.1,41.4l0.5,0.2c0.3-1,0.2-34.9,0.2-41.6L321.1,466.6z"/>
	<path class="st9" d="M323,466.5c0.1,1.9,0,22.6-0.1,33.7c0,3.9,0,6.8,0,7.6h0.5c0-0.7,0-3.6,0-7.6c0.1-11.9,0.2-31.9,0.1-33.8
		L323,466.5z"/>
	<path class="st9" d="M325,467.2c0,13.4,0.1,26.8,0.1,40.1h0.5c-0.1-13.4-0.1-26.8-0.2-40.1H325z"/>
	<path class="st9" d="M327.2,506.9h0.5c0.1-13.5,0.1-26.9,0.2-40.4h-0.5C327.3,480,327.2,493.5,327.2,506.9z"/>
	<path class="st9" d="M329.1,506.9h0.5c0-13.5,0.1-27,0.1-40.5h-0.5C329.2,479.9,329.2,493.4,329.1,506.9z"/>
	<path class="st9" d="M331.2,507.6h0.5l0.2-39.2h-0.5C331.3,481.5,331.3,494.5,331.2,507.6z"/>
	<path class="st9" d="M333,468c0.3,13.4,0.5,26.8,0.7,40.1h0.5c-0.2-13.4-0.5-26.8-0.7-40.1H333z"/>
	<path class="st9" d="M325.5,436.3c0,9.1,0.1,18.2,0.1,27.3h0.5c0-9.1-0.1-18.2-0.1-27.3H325.5z"/>
	<path class="st9" d="M334.5,468l1.8,40.1l0.5,0L335,468L334.5,468z"/>
	<path class="st9" d="M327.4,463.2h0.5l0.1-27.4h-0.5C327.5,444.9,327.5,454.1,327.4,463.2z"/>
	<path class="st9" d="M336.6,468c0.7,13.8,1.5,27.7,2.2,41.5l0.5,0c-0.8-13.8-1.5-27.7-2.2-41.5L336.6,468z"/>
	<path class="st9" d="M329.1,463.2h0.5c0-9.2,0.1-18.4,0.1-27.5h-0.5C329.2,444.8,329.1,454,329.1,463.2z"/>
	<path class="st9" d="M330.9,463.7h0.5c0-8.9,0.1-17.7,0.1-26.6H331C331,445.9,330.9,454.8,330.9,463.7z"/>
	<path class="st9" d="M332.4,436.8c0.2,9.1,0.4,18.1,0.6,27.2h0.5c-0.2-9.1-0.4-18.1-0.6-27.2H332.4z"/>
	<path class="st9" d="M333.7,436.8l1.5,27.2l0.5-0.1l-1.5-27.2L333.7,436.8z"/>
	<path class="st9" d="M335.5,436.7l1.9,28.2l0.5-0.1c-0.6-9.4-1.3-18.8-1.9-28.2L335.5,436.7z"/>
	<path class="st8" d="M344.6,416c-4.3-0.6-18.8,7.9-18.8,8c-4-1.7-8.1-3.4-12.1-5c-6.1-2.4-4.7-2.8-6.5-2.2
		c-1.8,0.6-3.7,5.8-3.7,5.8c1.3,0,2.6,0.3,3.7,0.8c2.3,0.8,17.8,0.8,17.8,0.8c0-0.1,19.7-0.9,20.7-1.6c1.1-0.7,2.2-1.4,3.3-2
		C349.1,420.6,348.9,416.5,344.6,416z"/>
	<path class="st9" d="M344.6,415.6c-4.2-0.5-17.5,7.1-18.8,7.9c-4-1.7-8-3.3-12-4.9c-0.2-0.1-4.8-2.9-6.6-2.2
		c-1.8,0.6-3.8,5.8-3.9,6l-0.2,0.5h0.4c1.2,0,2.5,0.3,3.6,0.8c2.4,0.8,17.3,0.8,17.9,0.8l0,0c3.3-0.2,19.8-0.9,20.8-1.6
		c1-0.7,2.1-1.4,3.3-2l0.2-0.1v-0.2C349.3,420.6,349.1,416.2,344.6,415.6z M307.3,423c-1.1-0.4-2.2-0.7-3.4-0.8
		c0.7-1.6,2.1-4.7,3.4-5.1c1.4-0.5,5,1.4,6.3,2.2c3.7,1.5,7.4,3,11.2,4.6C322.6,423.8,309.4,423.8,307.3,423z M345.7,422.3
		c-0.7,0.5-11.1,1-18.9,1.5c3-1.8,13.5-7.5,17.4-7.5c0.1,0,0.3,0,0.4,0c2.3,0.3,4.1,2,4.2,4C347.7,420.9,346.7,421.6,345.7,422.3z"
		/>
	<path class="st8" d="M306.6,425.2c-2.5,3.6,0.9,8.5,0.9,8.5c0,0,4.2-3.4,7.4-3.5c3.1-0.1,4.9,6.2,5.7,6.6
		c0.8,0.5,15.7-2.2,15.7-2.2s4.3-5.4,6.7-5.1c1.5,0.2,3,0.6,4.3,1.3c0,0,1.1-5-0.7-7C344.7,421.5,309.1,421.3,306.6,425.2z"/>
	<path class="st9" d="M326.8,421.8c-4.4,0-18.7,0.7-20.4,3.2c-2.6,3.8,0.9,8.9,0.9,8.9l0.1,0.2l0.2-0.1c0,0,4.2-3.3,7.2-3.4
		c2.1-0.1,3.5,2.9,4.5,4.9c0.2,0.6,0.6,1.2,1.1,1.7c0.2,0.1,0.5,0.1,0.8,0.1c2.9-0.1,12.8-1.8,15-2.2h0.1l0.1-0.1
		c0-0.1,4.2-5.2,6.5-5c1.5,0.2,2.9,0.6,4.2,1.2l0.3,0.1l0.1-0.4c0-0.2,1.1-5.2-0.8-7.4C345.6,422.4,335.6,421.6,326.8,421.8z
		 M346.9,430.4c-1.3-0.6-2.7-1-4.1-1.2c-2.3-0.2-6.2,4.4-6.8,5.1c-5.6,0.9-14.7,2.4-15.4,2.2c-0.4-0.5-0.6-1-0.8-1.5
		c-1-2.1-2.6-5.3-4.9-5.2c-2.8,0.1-6.4,2.7-7.3,3.4c-0.6-0.9-2.8-4.9-0.8-7.8c1-1.5,8.9-2.8,20-3c10.8-0.2,18.8,0.8,19.5,1.6
		C347.6,425.6,347.1,429.2,346.9,430.4z"/>
	<path class="st8" d="M341.9,429c-4-0.2-26.2,0.5-30.5,1c-4.4,0.5-5.8,8.1-4.7,9.5c1.1,1.3,8.2-1.5,9.5-1.4
		c6.8,0.5,13.5,1.1,20.3,1.8c4.7,0.5,7.7-2.8,9.2-3.1C347.2,436.4,345.9,429.1,341.9,429z"/>
	<path class="st9" d="M341.9,428.7c-3.9-0.2-26.1,0.5-30.6,1c-2.1,0.2-3.9,2.1-4.8,5.2c-0.6,2.1-0.7,4.1-0.1,4.9
		c0.7,0.9,3.4,0.2,6.8-0.7c0.9-0.3,1.9-0.5,2.9-0.6c6.8,0.5,13.5,1.1,20.3,1.8c0.3,0,0.7,0.1,1,0c2.8,0,4.9-1.3,6.4-2.2
		c0.5-0.4,1.1-0.7,1.8-0.9c0.6-0.1,0.9-0.9,0.9-2.1C346.5,432.4,344.8,428.7,341.9,428.7z M345.6,436.4c-0.7,0.2-1.4,0.5-2,0.9
		c-1.7,1-4.1,2.4-7.2,2.1c-6.8-0.7-13.5-1.3-20.3-1.8h-0.2c-1,0.1-1.9,0.4-2.9,0.7c-2.3,0.6-5.7,1.6-6.3,0.8l0,0
		c-0.4-0.5-0.4-2.3,0.2-4.2c0.4-1.3,1.6-4.5,4.3-4.7c4.4-0.5,26.6-1.2,30.5-1c2.8,0.1,4.1,3.7,4.1,5.7
		C346.1,435.6,346,436.3,345.6,436.4L345.6,436.4z"/>
	<path class="st9" d="M344.5,425.9c-1.3-0.8-33.5,0.4-35.3,1c-1.7,0.3-3,3.7-3.1,3.9l0.5,0.3c0,0,1.2-3.2,2.6-3.5
		c2.2-0.6,34-1.8,35.1-1c0.9,0.4,2.2,2.9,2.6,3.8l0.4-0.3C347.3,429.9,345.8,426.5,344.5,425.9z"/>
	<path class="st8" d="M336.2,397.5c-2.2,2.3-9.6,14.1-9.6,14.1c0,0-8.8-12.7-10.6-14.1c-1.8-1.4-6.1,0-6.1,0c0.2,2.4,0.7,4.7,1.4,7
		c1,2.5,1.4,3.2,1.4,3.2c4.2,6.2,8.4,12.5,12.7,18.8c6.4,9.5,12.5-17,14.3-19.3c1.8-2.3,2.7-10.2,2.7-10.2S338.3,395.2,336.2,397.5z
		"/>
	<path class="st9" d="M336,397.2c-2,2.1-8.2,12-9.4,13.9c-1.3-2-8.8-12.5-10.4-13.9c-1.8-1.5-6.1-0.1-6.3,0l-0.2,0.1v0.3
		c0.2,2.4,0.7,4.8,1.4,7.2c1,2.5,1.4,3.2,1.4,3.3c4.3,6.3,8.6,12.7,12.9,19.1l0.2-0.3c0.1-0.2,12.5-17,14.3-19.3
		c1.7-2.2,2.8-10,2.8-10.4V397l-0.2-0.1C342.4,396.8,338.3,394.8,336,397.2z M339.5,407.1c-1.6,2.1-12.5,16.8-14.1,19
		c-4.2-6.2-8.3-12.4-12.5-18.5c-0.1-0.1-0.5-0.9-1.4-3.2c-0.7-2.2-1.1-4.4-1.3-6.6c0.9-0.3,4.2-1.2,5.6,0c1.7,1.4,10.4,13.9,10.5,14
		l0.2,0.3l0.2-0.3c0.1-0.1,7.4-11.8,9.5-14.1c1.8-1.9,5-0.7,5.8-0.3C342,398.8,341,405.2,339.5,407.1z"/>
	<path class="st8" d="M326.6,385.5c-1.6,1.1-2.5,2.8-2.3,4.6c0.2,3,0.2,18.5,0.2,18.5l3.9,1.9c0,0-0.2-17.3,0-20.1
		C328.4,388.7,327.8,387,326.6,385.5z"/>
	<path class="st9" d="M328.6,390.6c0.1-1.9-0.6-3.8-1.8-5.3l-0.1-0.1l-0.2,0.1c-1.7,1.2-2.6,3-2.5,5c0.2,3,0.2,18.3,0.2,18.5v0.2
		l4.4,2.2v-0.5C328.6,410.4,328.4,393.3,328.6,390.6z M328.1,410.1l-3.4-1.7c0-2,0-15.5-0.2-18.3c-0.1-1.6,0.7-3.2,2-4.2
		c1.1,1.3,1.6,3,1.6,4.6C327.9,393.1,328.1,407.2,328.1,410.1z"/>
	<path class="st9" d="M331.3,418.6c-9.2,0.2-20.7,0.8-21.8,0.7c-1.6-0.2-4,1.3-5.2,2.1c-0.3,0.2-0.5,0.3-0.6,0.3l0.1,0.6
		c0.2-0.1,0.5-0.2,0.7-0.4c1.1-0.7,3.4-2.2,4.9-2c1.2,0.2,12.2-0.5,21.9-0.7c6.4-0.2,12.5-0.2,13-0.1c1.6,0.4,3.1,1,4.5,1.7l0.2-0.6
		c-1.5-0.7-3-1.3-4.6-1.7C343.8,418.4,338.3,418.4,331.3,418.6z"/>
	<path class="st9" d="M311,433.9c-1.8,0.8-2.8,2.4-3.8,4.1c-0.2,0.4-0.4,0.8-0.7,1.1l0.4,0.4c0.2-0.4,0.5-0.8,0.7-1.1
		c1-1.7,1.8-3.2,3.5-3.9c2.2-1.1,30.3-2.2,31.3-1.7c0.7,0.3,2.7,2.6,3.3,3.4l0.4-0.5c-0.3-0.3-2.6-3.2-3.5-3.6
		C341.6,431.7,313.3,432.7,311,433.9z"/>
	<path class="st8" d="M342.1,409.6c-2.9,1-15.8,13.7-15.8,13.7c0,0-13.7-12.3-16.4-12.9c-2.7-0.6-6.1,1.6-6.1,1.6s4.9,4,7,6
		c2.2,2,15.4,18,15.4,18c0,0,13.3-14.9,15.1-17.7s7.1-6.8,7.1-6.8S345,408.6,342.1,409.6z"/>
	<path class="st9" d="M342,409.3c-2.8,1-14.3,12.1-15.8,13.6c-1.6-1.5-13.7-12.2-16.4-12.8c-2.8-0.6-6.1,1.5-6.2,1.6l-0.4,0.3
		l0.4,0.3c0,0,4.9,4.1,7,6c2.1,1.9,15.3,17.8,15.4,18l0.2,0.2l0.2-0.2c0.5-0.6,13.3-14.9,15.1-17.7c1.8-2.8,7-6.7,7-6.7l0.4-0.3
		l-0.3-0.3C348.3,411.3,345,408.3,342,409.3z M341,418.2c-1.6,2.5-13.3,15.6-14.9,17.4c-1.6-2-13.2-16-15.3-17.8
		c-1.8-1.6-5.4-4.7-6.6-5.7c1-0.6,3.4-1.8,5.5-1.3c2.7,0.6,16.2,12.6,16.3,12.8l0.2,0.1l0.2-0.1c0.1-0.2,12.9-12.7,15.8-13.7
		c2.2-0.8,4.8,1,5.7,1.7C346.6,412.6,342.5,415.8,341,418.2z"/>
	<path class="st8" d="M329.2,391.8c-1,2.3-2.2,20.4-2.2,20.4s-2.5-17.2-3.3-20c-0.8-2.8-4.1-4.9-4.1-4.9c-0.5,2.4-0.6,4.9-0.6,7.4
		c0.2,3.3,3.9,26.3,3.9,26.3l5.5,0.6c0,0,4.9-24,5.5-26.8c0.6-2.8-0.4-7.6-0.4-7.6S330.1,389.5,329.2,391.8z"/>
	<path class="st9" d="M333.6,386.7l-0.3,0.2c-0.1,0.1-3.4,2.4-4.4,4.8c-0.8,1.8-1.7,13.1-2,18.1c-0.7-4.8-2.4-15.5-3-17.7
		c-0.8-2.9-4.1-5-4.2-5.1l-0.3-0.2l-0.1,0.4c-0.5,2.5-0.7,5-0.6,7.5c0.2,3.3,3.8,25.4,3.9,26.3v0.2c2,0.2,3.9,0.4,5.9,0.7l0.1-0.3
		c0-0.2,4.9-24,5.5-26.8c0.6-2.8-0.4-7.6-0.4-7.8L333.6,386.7z M333.6,394.7c-0.5,2.6-4.9,23.8-5.4,26.5c-1.7-0.2-3.4-0.4-5.1-0.6
		c-0.4-2.4-3.7-22.9-3.9-26c-0.1-2.3,0.1-4.6,0.5-6.8c0.8,0.6,3.1,2.4,3.7,4.6c0.8,2.7,3.3,19.7,3.3,19.9l0.5,0
		c0.4-6.2,1.4-18.4,2.1-20.2c0.8-1.8,3.1-3.7,3.9-4.3C333.5,388.9,334.1,392.4,333.6,394.7L333.6,394.7z"/>
	<path class="st9" d="M341,413.1c-1.4,0.7-13.5,15.8-15.2,17.9c-1.6-1.8-14-15.4-15.4-16.9c-1.3-1.3-2.8-2.3-4.5-3.1l-0.2,0.6
		c1.6,0.8,3.1,1.8,4.4,3c1.5,1.7,15.4,16.9,15.6,17.1l0.2,0.2l0.2-0.2c3.8-4.9,14-17.4,15.2-18c1.4-0.7,6.7-1.7,6.7-1.7
		c0-0.2,0-0.4-0.1-0.7C347.7,411.4,342.5,412.3,341,413.1z"/>
	<path class="st8" d="M326.4,421.3c0,0-9.6-12.4-11.5-15.3s-7.8-1.6-7.8-1.6s1.6,2.7,2.5,4.4c5.4,6.8,10.8,13.7,16.2,20.7
		c8.1,10.4,13.3-17,15.3-20c2-3,4.1-6.4,4.1-6.4s-6.7,1-8.8,3.6C334.2,409.2,326.4,421.3,326.4,421.3z"/>
	<path class="st9" d="M336.2,406.4c-2,2.4-8.6,12.5-9.8,14.4c-1.4-1.8-9.5-12.4-11.3-15.1c-2-3.1-7.8-1.8-8.1-1.8l-0.4,0.1
		c0.1,0.1,0.2,0.3,0.3,0.4c0,0,1.6,2.7,2.5,4.4c5.4,6.8,10.8,13.7,16.3,20.7l0.2,0.2l0.2-0.2c0.5-0.7,13.3-17.1,15.3-20.1
		c2-3,4.1-6.4,4.1-6.4c0.1-0.2,0.3-0.4,0.4-0.6l-0.6,0.1C344.9,402.7,338.4,403.8,336.2,406.4z M340.9,409.2
		c-1.8,2.8-13.4,17.7-15.1,19.8c-5.3-6.9-10.7-13.7-16-20.4c-0.7-1.3-1.8-3.1-2.3-4c1.4-0.2,5.6-0.7,7.2,1.6
		c1.9,2.9,11.5,15.2,11.5,15.4l0.2,0.3l0.2-0.3c0.1-0.1,7.8-12.1,9.9-14.6c1.7-2,6.3-3.1,8-3.4C343.8,404.6,342.3,406.9,340.9,409.2
		z"/>
	<path class="st9" d="M326,424.9c-6-7.1-12-14.2-18-21.1l-0.4,0.5c6.1,7,12.1,14.1,18.2,21.3l0.2,0.2c5.7-7.4,11.4-14.7,17.2-21.9
		l-0.4-0.5C337.2,410.5,331.6,417.7,326,424.9z"/>
	<path class="st8" d="M326.8,407.8c0,0-6.8-12.8-8.4-15c-0.9-1.3-2.7-1.8-4.3-1.3c-0.2,1.9,0.2,3.8,1,5.5
		c1.4,3.2,11.9,18.6,11.9,18.6s8.2-14.4,9.8-18c1-2.2,1.6-4.5,1.8-6.9c0,0-3.1,0.5-4.5,2.3S326.8,407.8,326.8,407.8z"/>
	<path class="st9" d="M333.9,393c-1.2,1.6-6,11.9-7.1,14.2c-1.2-2.3-6.8-12.6-8.2-14.6c-0.9-1.4-2.8-2-4.5-1.4l-0.2,0.1v0.2
		c-0.2,2,0.2,3.9,1,5.8c1.4,3.2,11.5,18,12,18.7l0.2,0.3l0.2-0.3c0.3-0.6,8.2-14.4,9.8-18c1-2.2,1.6-4.6,1.8-7v-0.4l-0.3,0
		C338.4,390.6,335.3,391.1,333.9,393z M336.6,397.6c-1.4,3.2-8.3,15.4-9.6,17.6c-1.5-2.2-10.4-15.4-11.7-18.3
		c-0.7-1.6-1.1-3.4-1-5.1c1.5-0.4,3.1,0.1,3.9,1.3c1.5,2.2,8.3,14.8,8.4,14.9c0.1,0.1,0.1,0.3,0.2,0.4l0.2-0.5
		c0.1-0.1,5.9-12.8,7.2-14.6c1-1.4,3.2-2,4-2.2C338,393.4,337.5,395.6,336.6,397.6z"/>
	<path class="st9" d="M326.6,410.6c-4-6.3-8-12.6-11.9-18.8l-0.4,0.4c4.1,6.4,8.2,12.9,12.3,19.4c3.9-6.8,7.8-13.6,11.7-20.4
		l-0.4-0.4C334.2,397.5,330.4,404,326.6,410.6z"/>
	<path class="st9" d="M326.3,385.8c0.1,8.3,0.1,16.6,0.2,24.8h0.5c-0.1-8.3-0.1-16.6-0.2-24.9L326.3,385.8z"/>
	<path class="st9" d="M326.9,411.6c-2.3-8-4.6-16-6.8-24l-0.5,0.2c2.4,8.6,4.9,17.2,7.3,25.8c2.2-8.5,4.4-17.1,6.6-25.6l-0.5-0.2
		L326.9,411.6z"/>
	<path class="st9" d="M326.2,419.9c-5.1-7.5-10.2-14.9-15.3-22.2l-0.4,0.5c5.2,7.5,10.5,15.1,15.7,22.7c5.3-7.9,10.5-15.7,15.8-23.4
		c-0.1-0.1-0.3-0.3-0.4-0.4C336.5,404.7,331.3,412.3,326.2,419.9z"/>
	<path class="st8" d="M315.3,455.5c-0.3,4.3-0.7,8.7-1,13c8.2-0.4,16.3-0.6,24.5-0.6l-0.8-12.9C330.4,454.9,322.8,455.1,315.3,455.5
		z"/>
	<path class="st9" d="M315,455.1l-1,13.7c8.3-0.4,16.7-0.6,25-0.7c-0.3-4.5-0.6-9.1-0.8-13.6C330.5,454.6,322.7,454.8,315,455.1z
		 M314.5,468.1c0.3-4.1,0.6-8.2,0.9-12.3c7.4-0.3,14.8-0.5,22.2-0.6c0.3,4.1,0.5,8.2,0.7,12.3C330.5,467.5,322.5,467.7,314.5,468.1
		L314.5,468.1z"/>
	<path class="st9" d="M325.7,468.1l0.2,0.6c4.2-2.5,8.3-4.9,12.5-7.4c-0.1-0.2-0.1-0.4-0.2-0.6C334,463.1,329.9,465.6,325.7,468.1z"
		/>
	<path class="st9" d="M314.7,462.3c0.1,0.2,0.2,0.4,0.2,0.6c3.4-2.5,6.8-4.9,10.3-7.3L325,455C321.5,457.4,318.1,459.8,314.7,462.3z
		"/>
	<path class="st1" d="M191.5,393.7c57.2-15.2,114.4-20.1,171.6-18.7v-94.8c-57.2-1.4-114.4,3.6-171.6,18.7V393.7z"/>
	<path class="st10" d="M329.3,359.5L329.3,359.5c-1.4,0.6-2.4,1.8-2.2,2.6c0.2,0.9,1.5,1.1,2.9,0.5l0,0c1.4-0.6,2.4-1.8,2.2-2.6
		C332,359.1,330.7,358.9,329.3,359.5z"/>
	<path class="st10" d="M336.9,361.9c-0.7-0.2-1.5,1.1-1.9,3l0,0c-0.4,1.9-0.1,3.6,0.6,3.8s1.5-1.1,1.9-3l0,0
		C337.9,363.8,337.6,362.1,336.9,361.9z"/>
	<path class="st10" d="M347,361.7L347,361.7c-1.3-0.8-2.7-0.9-3,0c-0.3,0.8,0.5,2.2,1.9,3l0,0c1.3,0.8,2.7,0.9,3,0.1
		C349.1,363.9,348.3,362.6,347,361.7z"/>
	<path class="st10" d="M329.3,351.4L329.3,351.4c-1.5,0.2-2.6,1-2.6,1.9s1.3,1.5,2.8,1.4l0,0c1.5-0.2,2.6-1,2.6-1.9
		S330.7,351.3,329.3,351.4z"/>
	<path class="st10" d="M275.1,348.9L275.1,348.9c-1.4-0.2-2.7,0.3-2.9,1.2c-0.2,0.9,0.9,1.8,2.4,2l0,0c1.4,0.2,2.7-0.3,2.9-1.2
		C277.7,350,276.6,349.1,275.1,348.9z"/>
	<path class="st10" d="M271.1,355.9L271.1,355.9c-1.4,0.6-2.5,1.8-2.3,2.7c0.2,0.9,1.5,1.1,2.9,0.5l0,0c1.4-0.6,2.5-1.8,2.3-2.7
		C273.8,355.5,272.5,355.3,271.1,355.9z"/>
	<path class="st10" d="M282.8,365.9c-0.7,0.1-1.3,1.7-1.4,3.6l0,0c-0.1,1.9,0.4,3.4,1.1,3.4s1.3-1.7,1.4-3.6l0,0
		C284,367.3,283.5,365.8,282.8,365.9z"/>
	<path class="st10" d="M273.1,364L273.1,364c-1,1.5-1.4,3.2-0.9,3.8c0.5,0.6,1.7-0.2,2.8-1.7l0,0c1-1.5,1.4-3.2,0.9-3.8
		C275.3,361.8,274.1,362.5,273.1,364z"/>
	<path class="st10" d="M218.1,301.9c-0.7-0.2-1.6,1.3-2,3.2l0,0c-0.5,1.9-0.3,3.6,0.4,3.8c0.7,0.1,1.6-1.3,2.1-3.2l0,0
		C218.9,303.7,218.8,302,218.1,301.9z"/>
	<path class="st10" d="M211.2,302.1c-0.6-1.6-1.6-2.5-2.3-2c-0.6,0.5-0.7,2.2-0.1,3.9l0,0c0.6,1.6,1.6,2.5,2.3,2
		C211.8,305.4,211.8,303.7,211.2,302.1L211.2,302.1z"/>
	<path class="st10" d="M201,322L201,322c-1.5,0.4-2.7,1.4-2.7,2.3c0,0.9,1.2,1.3,2.7,1l0,0c1.5-0.4,2.7-1.4,2.7-2.3
		C203.7,322,202.5,321.6,201,322z"/>
	<path class="st10" d="M202.6,306.1L202.6,306.1c-1.4-0.4-2.7,0.1-3,1c-0.3,0.9,0.7,1.9,2,2.3l0,0c1.4,0.3,2.7-0.1,3-1
		C204.9,307.5,204,306.5,202.6,306.1z"/>
	<path class="st10" d="M204.2,361.4L204.2,361.4c-1.5,0.4-2.7,1.5-2.6,2.4s1.2,1.3,2.7,0.9l0,0c1.5-0.4,2.7-1.5,2.6-2.4
		S205.7,361,204.2,361.4z"/>
	<path class="st10" d="M201.4,372.4L201.4,372.4c-1.2,1.4-1.9,3-1.5,3.7c0.4,0.7,1.7,0.1,2.9-1.3l0,0c1.2-1.4,1.9-3,1.5-3.7
		S202.7,371,201.4,372.4z"/>
	<path class="st10" d="M208,375.9c-0.7-0.2-1.6,1.3-2.1,3.2l0,0c-0.5,1.9-0.4,3.6,0.3,3.8c0.7,0.2,1.6-1.3,2.1-3.2l0,0
		C208.8,377.8,208.7,376.1,208,375.9z"/>
	<path class="st10" d="M214.4,377.3c-0.7,0.1-1.3,1.8-1.3,3.7l0,0c0,1.9,0.6,3.4,1.3,3.2c0.7-0.2,1.3-1.8,1.3-3.7l0,0
		C215.6,378.6,215.1,377.1,214.4,377.3z"/>
	<path class="st11" d="M330.2,308.9L330.2,308.9L330.2,308.9z"/>
	<path class="st11" d="M351.5,303.5c0,0.1-5.9-8.3-25.9-9.8c-19.9-1.3-34.8,17.1-52.1,17c-15.5-0.5-8.6-13.3-0.9-13
		c4.8,0.2,12.2,3,15.8,2.7c3.6-0.3,9.5-5.8,10.7-11.6c0,0-14-0.1-16.1,1.3c-2.1,1.4-2.4,5.2-4.5,5.5s-9.2,0.2-11,0.8
		c-1.8,0.6-5.7,3.8-5.7,7.7c0,3.9,0.8,10.3,11.6,9.5c11.4-1,30.9-11.9,30.9-11.9l0.3,3.8c0,0,4.5-6.8,6.8-7.3
		c2.4-0.5,4.8,1.3,3.9,2.9c-0.5,1-1.1,1.9-1.8,2.8c0,0,5.4-2.2,5.4-4.5c0-2.3-1.2-2.7-1.2-2.7s3.3,0.3,4.5-0.2
		c1.2-0.4,2.4,1.9,1.8,3.4s-1.8,3.9-1.8,3.9s5.3-2.1,4.8-4c-0.3-1-0.5-2-0.6-3.1c0,0,4.8-1.3,5.7,0.6c0.9,1.9-1.8,10.6-2.1,11.5
		c0.2-0.7,2-6.2,5.6-7.3c3.9-1.2,5.9-2.4,8.3-0.4s10.4,6.2,10.1,11.6c0,2.7-3.6,5-9.2,5.4s-24.1-5.2-37.2-4.4s-19,4.4-27.4,5.9
		c-8.3,1-52.7,7.1-52.7,7.6c0,0-11-2.8-13.1-7.4c-2.1-4.5,2.7-11,2.7-11l-1.8-1.6l-2.1,2.4c0,0,1.8-6.2-1.8-5.4
		c-3.6,0.8-3.3,6.5-3.3,6.5s-2.4-5.2-3.9-5.3s-2.4,6.8-2.4,6.8s4.2,0.9,3.9,3.7c-0.3,2.8-5.4,4-5.4,4s-0.3,5.1,0.9,6
		c1.2,0.9,3.6-4,4.8-3.8s0.9,12.5,0.9,12.5l1.8-3.1l0.3,10.7l1.8-5.8l0.3,11.9c2.2-2.4,4.4-4.8,6.5-7.2l-3,13.4
		c1.4-2.1,2.8-4.2,4.2-6.3v7.7c7.5-3.6,15.1-7.1,22.6-10.4c-0.8,1.9-1.6,3.9-2.4,5.8c0,0-5.9,7.6-12.2,9.6c-6.2,2-11,3.8-14,4.1
		c-3,0.3-5.9-6-7.1-5.3c-1.2,0.7,0.9,4-0.3,6.2c-1.2,2.2-5.9,4.9-4.5,5.7c1.5,0.8,6.5-0.8,6.5,1.1c0,1.9-3.3,5.4-0.9,6.4
		c2.4,1,5.4-5.9,5.9-4.4c0.6,1.4-0.6,5.2,1.8,4.6c2.4-0.5,2.4-4.8,2.4-4.8c3.9,0.7,7.7,1.5,11.6,2.3l-2.7-5.3c0,0,3.9,2.3,5.7,2.8
		c1.5,0.3,3,0.3,4.5,0l-3.6-5.5c2.6,1.3,5.2,2.7,7.7,4l-1.8-5.9c2.2,1.3,4.4,2.6,6.5,3.9l-1.2-5.3c0,0,2.7,2.7,4.8,2.3
		s3.3-2.8,3.3-2.8l-2.1-3.2c1.6,1,3.4,1.5,5.4,1.5c3,0,7.7-3.4,7.7-3.4c-1.9-0.5-3.8-1.1-5.7-1.6c1.8-1,3.6-2,5.4-3
		c-0.9-0.7-1.8-1.3-2.7-2l3.9-9c0,0,1.5,0.2,6.8-0.8s22.3-17.3,29.4-17.3c7.1-0.1,20.2,17.1,26.2,16.6c5.9-0.5,17-1.8,17-1.8l-2.7,7
		c-0.6,1.8-0.9,3.6-0.9,5.4c-1.9-0.4-3.8-0.7-5.6-1.1c0,0,0.3-1.6-2.1-1.5c-2.4,0-1.2,5.8-1.2,5.8s-1.8,3.9-0.3,4.3
		c1.5,0.4,3.6-2.8,4.8-1.2c1.2,1.5-0.6,4.6,1.2,5c1.8,0.4,0.9-5.8,3.3-5.4s3.6,4.2,5.1,3.8c1.5-0.4,2.1-3.9,2.1-3.9
		c-1.2-0.7-2-1.8-2.1-3.1c0-1.9,2.4-7,3.9-6.9s1.2,3.9,1.2,3.9l1.5-4.2l1.8,0.8c-0.8-1.9-1.6-3.9-2.4-5.8c1.7,0.3,3.4,0.5,5.1,0.8
		l-3-4.3l3.3-0.3c0,0-2.4-1.6-2.4-3.9c0.1-1.9,0.4-3.9,0.9-5.8c0,0-6.5,3-13.4,0.7c-6.8-2.3-15.5-12.9-15.5-12.9s15.8,3.1,20.2,2.8
		s10.1-0.7,11-5.3s-5.4-17.4-5.4-17.4V303.5z"/>
	<path class="st11" d="M317.3,347.6c-1.8-2.3-11.3-5.7-11.6-9.1c-0.3-3.4,5.7-12.3,5.7-12.3c-2.1,0.4-25,2.7-25.9,14.1
		c-0.9,11.3,9.2,8.9,9.2,8.9l-0.3,3.9c0,0-6.5,2-10.4,2.4c-3.9,0.4-3.6-5.4-5.7-6c-2.1-0.6-2.7,4.5-2.7,4.5l-3.3,0.7l0.3,4.2
		l2.1,1.3l0.3,3.1l1.8,3.3l2.7-2.2l0.9,4.9c0.5-0.7,1.2-1.3,2.1-1.7c1.2-0.5,2.1,1.7,2.1,1.7s-0.3-5,3.3-5.7
		c3.6-0.7,5.9,4.5,5.9,4.5v-5.4l3.3,4c0.2-1.9,0.4-3.9,0.6-5.8l3.9,4.8l0.9-5.1c0.7,0.7,1.4,1.5,2.1,2.2v-5c2.2,1.3,4.4,2.6,6.5,3.9
		l0.9-5.1c1.8,0.6,3.6,1.1,5.4,1.7c-0.6-0.8-1.2-1.5-1.8-2.2l5.7-0.2C321.3,355.9,319.1,349.9,317.3,347.6z"/>
	<path class="st11" d="M231.8,351.8l0.5-1.1C232.3,350.7,232.1,351.1,231.8,351.8z"/>
	<path class="st11" d="M250.1,315.7c-5.6,0.2-11.1,0.5-16.7,0.8c-1.2,0.2-12.8,16.7-14.3,19.8c-1.5,3.1-0.6,7.1-0.6,7.1
		c1.7-2.5,3.4-5.1,5-7.6c-0.8,2.4-1.3,4.8-1.5,7.2c0.1,2.2,0.4,4.3,0.9,6.4c0.9-3,1.8-6,2.7-9v15.1c1.3-2.7,2.6-5.4,3.9-8.1
		l-2.4,15.1c1.5-3.6,3-7.1,4.6-10.6c0.3-0.7,0.5-1.1,0.5-1.1l-0.5,1.1c-0.7,1.8-1.9,5.3-1,7.7c1.2,3.2,2.1,3.9,2.1,3.9l2.4-13.2
		c0,0-0.3,7.8,0.9,10.3c0.7,1.5,1.8,2.7,3.3,3.7c0,0,0.3-5.1,0.6-9c0.2-2.3,0-4.6-0.6-6.9c0,0,2.7,4.2,2.4,6.9
		c-0.3,2.8-1.2,6.4-1.2,6.4s3.3-4.8,3.9-8.4c0.1-0.4,0.1-0.7,0.1-1c-0.5-2.6-0.7-5.4-0.7-5.4c0.6,1.8,0.9,3.6,0.7,5.4
		c0.1,1.2,0.5,2.4,1.1,3.5c1,1.3,2.1,2.6,3.3,3.7v-13.1c0,0,0.3,7.3,1.8,9c1.5,1.7,4.5,1.3,4.5,1.3c-1.4-3.1-2.3-6.3-2.7-9.6
		c-0.3-4.6,0.6-6.7,0.6-6.7s0.9,6,1.2,8.3c0.3,2.3,0.9,4.9,0.9,4.9s0.6-6.6,0.9-9.4c0.2-1.5,0.1-3.1-0.3-4.6c0,0,2.7,5,2.1,6.7
		c-0.4,1-0.4,2.1,0,3.1c0,0,1.5-7.2,1.5-10.2c0-1.9-0.5-3.9-1.5-5.6c1.3,2.1,2.6,4.3,3.9,6.4c1.9,3.2,1.2-6.7-0.6-12.7
		S250.1,315.6,250.1,315.7z"/>
	<path class="st11" d="M243.9,346.8c0,0,0.2,2.9,0.7,5.4C244.8,350.4,244.5,348.5,243.9,346.8z"/>
	<path class="st12" d="M250.3,315.1c-5.6,0.2-11.2,0.4-16.8,0.8l0,0c-1.5,0.2-13.3,17.4-14.6,20.1c-1.6,3.2-0.7,7.4-0.7,7.6
		c0.1,0.3,0.1,0.6,0.2,0.9l4-6.1c-0.4,1.5-0.6,3.1-0.7,4.6c0,2.2,0.3,4.4,0.9,6.6l0.4,1.4c0.8-2.5,1.5-5.1,2.3-7.7v14l3.4-7.1
		c-0.7,4-1.3,8.1-1.9,12.2l0.8,0.3l2.4-5.7c-0.1,0.9,0,1.9,0.3,2.8c1.2,3.3,2.1,4,2.2,4.1l0.5,0.4c0.5-3.1,1.1-6.1,1.7-9.2
		c0.1,2.2,0.3,4.5,0.9,5.8c0.7,1.5,1.9,2.9,3.4,3.9l0.6,0.4l0.1-0.9c0,0,0.3-5.1,0.6-9c0.1-1.3,0.1-2.5,0-3.8
		c0.6,1.2,0.9,2.6,0.9,3.9c-0.3,2.7-1.2,6.2-1.2,6.3l0.7,0.5c1.6-2.3,2.8-4.8,3.7-7.4c0.1,0.6,0.4,1.1,0.7,1.6
		c1,1.3,2.1,2.6,3.3,3.8c0.3,0.2,0.5,0.5,0.7,0.7v-7.2c0.2,0.8,0.5,1.6,1,2.3c1.6,1.8,4.7,1.4,4.8,1.4l0.8-0.1
		c-0.1-0.3-0.3-0.6-0.4-0.8c-1.4-3-2.3-6.2-2.6-9.4c-0.1-1.3-0.1-2.7,0.1-4c0.3,1.9,0.7,4.6,0.8,5.9c0.3,2.3,0.9,4.8,0.9,5l0.9-0.2
		c0-0.1,0.6-6.7,0.9-9.4c0.1-0.6,0.1-1.2,0.1-1.7c0.6,1.6,1,3,0.8,3.5c-0.4,1.2-0.4,2.4,0,3.6c0.2,0.4,0.4,0.9,0.5,1.3
		c0.1-0.5,0.2-1,0.3-1.5c0.1-0.3,1.5-7.3,1.5-10.4c0-0.5,0-1-0.1-1.5l2.2,3.7c0.1-0.4,0.2-0.9,0.2-1.3c0.1-0.3,1.2-7-0.6-13
		C259.8,320.9,250.7,315.3,250.3,315.1z M261.5,338.5l-3.2-5.4l-0.7,0.8c0.9,1.6,1.4,3.4,1.4,5.3c-0.1,1.8-0.3,3.7-0.6,5.5
		c-0.5-1.9-1.2-3.7-2.1-5.4l-0.8,0.6c0.4,1.4,0.5,2.9,0.3,4.3c-0.2,1.5-0.4,4.1-0.6,6.2c-0.1-0.6-0.2-1.2-0.3-1.9
		c-0.3-2.3-1.2-8.3-1.2-8.3l-0.2-1.5c-0.2,0.5-0.4,0.9-0.6,1.4c0,0.1-1,2.3-0.7,7c0.3,3.1,1.1,6.1,2.3,9c-1.3,0.1-2.5-0.4-3.4-1.2
		c-1.1-1.3-1.6-6.7-1.6-8.6l-0.9,0.2v11.8c-0.9-0.9-1.7-1.9-2.5-2.9c-0.5-1-0.8-2.1-1-3.2c0.2-1.9-0.1-3.9-0.8-5.7l-0.9,0.5
		c0,0.5,0.3,3.1,0.7,5.5c0,0.3-0.1,0.5-0.1,0.8c-0.5,2.1-1.3,4-2.4,5.9c0.2-1.2,0.5-2.6,0.6-3.8c0.3-3-2.3-7.2-2.5-7.4l-0.8,0.7
		c0.6,2.2,0.7,4.4,0.6,6.6c-0.2,2.8-0.4,6.3-0.5,8c-1.1-0.8-1.9-1.9-2.5-3.1c-1.1-2.3-0.8-9.9-0.8-10h-0.9l-2.2,12.1
		c-0.6-1-1.1-2-1.4-3c-0.8-2.1,0.3-5.4,1-7.1l0.5-1.1l-0.8-0.5c0,0.1-0.3,0.5-0.5,1.3l-3.2,7.3l1.8-11.7l-0.8-0.3l-3,6.4v-13.2
		l-0.9,0c-0.7,2.4-1.4,4.9-2.2,7.4c-0.3-1.5-0.5-3.1-0.5-4.7c0.2-2.4,0.6-4.7,1.4-7l-0.7-0.5l-4.5,6.7c-0.3-1.9,0-3.8,0.7-5.6
		c1.5-3,12.5-18.7,13.9-19.5c5.5-0.4,11-0.6,16.5-0.8c0.9,0.6,9.1,5.8,10.7,11.2C261.6,331.1,261.9,334.8,261.5,338.5L261.5,338.5z"
		/>
	<path class="st11" d="M250.7,301.3l-1.5-5.2l-3,3.6l-0.9-2.2l-1.2,2.1l-1.5-4.4c-0.7,1.7-1.4,3.3-2.1,5l-3.3-2.5l-0.6,4.4l-2.7-1.1
		l-0.3,3.9c0,0-4.5-3.4-5.9-3.1s1.5,7,1.5,7s-3.3,4.1-3.3,8.4c0,4.2,2.1,5,2.1,5l-1.2,7.9l2.1-1.9l0.3,7.7c0.7-1.4,1.4-2.8,2.1-4.3
		l0.9,7.2l2.1-3.1v7.3c0.7-1.3,1.4-2.6,2.1-3.8l1.2,3.7l1.8-4.6l1.8,3.6c0.5-1.4,1-2.7,1.5-4.1l3.6,0.6l-0.6-2.2h2.4l-0.9-6l2.4,3.9
		l0.3-5.1l2.7,1.9c0,0,1.8-10.3,1.8-16.5c0-6.2-1.5-9.4-1.5-9.4c1-2.1,2-4.2,3-6.2L250.7,301.3z"/>
	<path class="st12" d="M251,300.5c-0.5-1.8-1-3.6-1.6-5.4l-3,3.6l-1-2.3l-1.2,2.1l-1.5-4.6l-2.3,5.5l-3.4-2.7l-0.6,4.5l-2.7-1.1
		c-0.1,1.2-0.2,2.5-0.3,3.7c-1.3-1-4.3-3-5.6-2.7c-0.3,0.1-0.6,0.3-0.7,0.6c-0.6,1.4,0.8,5.1,1.6,7c-0.8,1.1-3.2,4.7-3.2,8.5
		c0,3.6,1.4,4.9,2,5.3l-1.3,8.8l2.3-2.2c0.1,2.8,0.2,5.6,0.3,8.4c0.7-1.5,1.5-3,2.2-4.5c0.3,2.3,0.6,4.6,0.9,6.9
		c0.6-1,1.3-1.9,1.9-2.9v7.6l2.4-4.4c0.4,1.3,0.8,2.6,1.3,3.8l1.9-4.8c0.6,1.2,1.2,2.4,1.8,3.6c0.6-1.6,1.1-3.1,1.7-4.7l4,0.7
		c-0.2-0.8-0.4-1.6-0.6-2.4h2.3c-0.2-1.4-0.4-2.9-0.6-4.3c0.6,1.1,1.3,2.1,1.9,3.1c0.1-1.9,0.2-3.8,0.3-5.7l2.6,1.8l0.1-0.8
		c0.1-0.4,1.8-10.4,1.8-16.6c0.1-3.2-0.4-6.4-1.4-9.4l3.5-7.3C254.9,298.5,252.9,299.5,251,300.5z M252.4,305.2c0,0,1.4,3.2,1.4,9.2
		c-0.2,5.2-0.7,10.4-1.6,15.5l-2.8-2c-0.1,1.5-0.2,3-0.3,4.5l-1.7-2.7l-0.8,0.6l0.8,5.3H245l0.6,2.1l-3.1-0.5
		c-0.4,1.2-0.9,2.4-1.3,3.5l-1.8-3.5l-1.7,4.3c-0.4-1.2-0.8-2.3-1.1-3.5c-0.6,1.1-1.2,2.1-1.8,3.2v-7l-2.2,3.3
		c-0.3-2.5-0.6-5-0.9-7.5l-2,4l-0.3-6.9l-1.9,1.7c0.3-2.4,0.7-4.7,1.1-7.1l-0.3-0.1c-0.1,0-1.8-0.7-1.8-4.5c0-3.9,3.1-7.8,3.1-7.9
		l0.3-0.4l-0.2-0.4c-1.2-2.7-2.1-5.6-1.9-6.1c1-0.2,4,1.8,5.7,3.1l0.6,0.5c0.1-1.4,0.2-2.8,0.3-4.1l2.6,1c0.2-1.4,0.4-2.8,0.6-4.2
		l3.1,2.4c0.6-1.5,1.3-3,1.9-4.5l1.4,4.2l1.2-2.2l0.8,2l2.9-3.5c0.5,1.6,0.9,3.3,1.4,4.9l4.3-2.2l-2.4,5.1L252.4,305.2z"/>
	<path class="st12" d="M243.8,325.8c-2.3,0.7-3.1-2.5-3.2-2.6l-0.2-0.7c-0.2,0.2-0.3,0.4-0.4,0.5c0,0-3.1,3.8-5.3,3.5
		c-1-0.1-1.2-2.1-1.5-3.8c-0.2-1.5-0.4-2.9-1-3.3c-0.3-0.2-0.7-0.2-1,0l0.2,0.9c0.2-0.1,0.3-0.1,0.3,0c0.4,0.2,0.5,1.5,0.7,2.7
		c0.3,2,0.6,4.3,2,4.5c2,0.3,4.6-2.3,5.6-3.4c0.5,1.3,1.6,2.9,3.4,2.6c0.1,0,0.3-0.1,0.4-0.1c2.9-0.9,4.4-8.9,4.5-9.2l-0.7-0.1
		C247.3,319.6,245.8,325.2,243.8,325.8z"/>
	<path class="st8" d="M242.5,319c0.1-1-0.8-1.8-1.9-1.8c-0.3,0-0.5,0-0.8,0.1c-1.4,0.3-2.1,0.9-2.1,2.3c0,1.4,1.7,1.4,1.6,4.6
		s-3.1,8.8-3.1,8.8c0.8-0.2,1.7-0.2,2.5-0.1c1.5,0.1,1.3,2.6,1.3,2.6s0.5-2.8,1.1-3.3c0.6-0.5,2.5-0.4,2.5-0.4s-3.3-4.1-3.3-7.6
		S242.6,320.3,242.5,319z"/>
	<path class="st10" d="M239.8,326.2c-0.7,0.1-1.3,1.8-1.3,3.7l0,0c0,1.9,0.6,3.4,1.3,3.3c0.7-0.1,1.3-1.8,1.3-3.7l0,0
		C241.1,327.6,240.5,326.1,239.8,326.2z"/>
	<path class="st8" d="M234.6,309.3c-0.1,1.3,0.9,5.6,2.7,4.9c1.8-0.7,2-5.7,2-5.7C237.9,310.4,236.7,310.1,234.6,309.3z M238,311.5
		c0.1,0.6-0.3,1.2-1,1.5c-0.5,0.1-1-0.4-1-1.1c-0.1-0.6,0.3-1.2,1-1.5C237.6,310.3,238,310.8,238,311.5z"/>
	<path class="st8" d="M242.7,308.3c0,0.6,0.2,4.7,2,4.8s2.8-5.2,2.6-6.5C245.2,308.1,244.2,309.7,242.7,308.3z M245,311.7
		c-0.5,0.1-1-0.4-1-1.1c-0.1-0.6,0.3-1.2,1-1.4c0.5-0.1,1,0.4,1,1.1C246,310.9,245.6,311.5,245,311.7z"/>
	<path class="st12" d="M281.2,333.9l-1.2-1.6c-0.4,0.9-0.8,1.7-1.1,2.6l-1.5,0.2l-0.1,0.3c-0.3,0.7-0.6,1.3-0.9,1.9
		c-0.1,0.1-0.7-0.5-1.1-1.3l-0.4-0.7l-0.3,0.8c0,0-0.4,1.1-0.7,2.1c0-0.5,0-1,0-1.5l0.1-1.7l-2.3,4.4l-1.2-2.2
		c-0.1,0.4-0.1,0.8-0.2,1.1c0,0.2-0.2,1.5-0.4,2.6c-0.2-0.5-0.5-1.2-0.8-1.8c-0.1-0.3-0.2-0.6-0.3-0.9l-0.4,0.9
		c0,0.1-0.6,1.7-0.9,2.8c-0.2-0.5-0.5-1.3-0.7-2l-0.3-0.9l-0.4,0.9c0,0.1-0.7,1.4-1,2.4c-0.2,0-0.9-0.8-1.4-1.7l-0.4-0.8
		c-0.1,0.3-0.2,0.7-0.2,1c-0.3,1.3-0.8,3.3-1.2,4.4c-0.1-0.6-0.1-1.6-0.2-2.4l-0.7-0.1c-0.8,2.5-2.4,7.3-2.5,7.8l0.7,0.4
		c0.2-0.4,1.2-3.7,1.9-5.8c0.2,1.7,0.4,1.8,0.6,1.8c0.2,0,0.3,0.1,0.5-0.3c0.6-1.5,1-3,1.4-4.6c0.5,0.7,1.1,1.4,1.6,1.3
		c0.3-0.1,0.5-0.3,0.6-0.5c0.2-0.5,0.5-1,0.7-1.5c0.7,2.2,1,2.1,1.2,2.1s0.4-0.1,0.5-0.6c0.1-0.5,0.5-1.6,0.7-2.4
		c1,2.4,1.2,2.3,1.5,2.2c0.1,0,0.3-0.2,0.3-0.6s0.1-1.5,0.3-2.4l0.9,1.5l1.4-2.7c0,1.7,0.2,1.8,0.4,1.8s0.4,0,0.6-0.5
		c0.3-0.7,0.7-1.8,1-2.5c0.4,0.5,0.8,1.1,1.3,1.1c0.3-0.1,0.6-0.3,0.7-0.5c0.4-0.7,0.7-1.4,0.8-1.7l1.4-0.1l0.8-1.9l1.2,1.6
		c0.4-0.7,0.8-1.5,1.2-2.2l-0.6-0.5L281.2,333.9z"/>
	<path class="st12" d="M301.2,343.6v1c4.8-0.5,5.2-2.8,5.2-3l-0.8-0.1C305.7,341.5,305.3,343.2,301.2,343.6z"/>
	<path class="st12" d="M305,345.5c0,0.3,0.1,0.7,0.1,1c1.3-0.4,2.4-1.2,3.1-2.2l-0.6-0.5C307,344.6,306.1,345.2,305,345.5z"/>
	<path class="st12" d="M307.9,346.9c0,0.3,0,0.7,0,1c1.1,0,2.1-0.5,2.7-1.4c0.3-0.4,0.4-0.9,0.4-1.3l-0.8,0.1
		C310.3,345.4,310.3,346.7,307.9,346.9z"/>
	<path class="st12" d="M313.1,346.4c0.1,0.4,0,0.9-0.2,1.3c-0.3,0.4-0.8,0.4-1.6,0.2c-0.1,0.3-0.1,0.7-0.2,1c0.3,0.1,0.7,0.1,1,0.1
		c0.5,0,1-0.3,1.3-0.7c0.4-0.7,0.6-1.4,0.5-2.2L313.1,346.4z"/>
	<path class="st12" d="M313.1,350.8c0,0.3,0,0.7,0.1,1c1.4-0.2,1.9-2,2-3l-0.8-0.1C314.4,348.8,314.2,350.7,313.1,350.8z"/>
	<path class="st12" d="M327.1,326.2l0.1,1c2.2-0.6,2.6-0.5,2.7-0.5c-0.1-0.1-0.2-0.2-0.2-0.3c0-0.1,0-0.2,0.1-0.3
		c0.2,0.3,0.3,0.5,0.5,0.8c0.2-0.2,0.3-0.5,0.2-0.8C330.3,325.6,329.9,325.4,327.1,326.2z"/>
	<path class="st12" d="M329.1,328.5c0,0.3,0,0.7,0,1h0.2c1.8,0,2.9-1.9,3-2l-0.6-0.6C331.7,326.9,330.7,328.6,329.1,328.5z"/>
	<path class="st12" d="M331.2,330.2l0.1,1c1.2-0.2,2.2-1.1,2.4-2.2l-0.8-0.2C332.8,329.6,332.1,330.1,331.2,330.2z"/>
	<path class="st12" d="M333.7,331.6l0.1,1c1.2-0.2,2.1-1,2.3-2l-0.8-0.2C335.1,331,334.5,331.5,333.7,331.6z"/>
	<path class="st12" d="M337,331.9c0,0,0-0.1,0-0.1c0,0-0.1,0.5-1.3,1.1l0.3,0.9c0.8-0.3,1.5-1,1.8-1.8c0.1-0.2,0.1-0.5,0-0.7
		L337,331.9z"/>
	<path class="st8" d="M290.3,294.4c0,0,3.9-2.3,4.2-1.9s-0.8,3.4-0.3,3.1c1.8-1.6,3-3.6,3.6-5.8
		C291.3,289.2,290.3,294.4,290.3,294.4z"/>
	<path class="st13" d="M279.1,558.1c65.7-33.8,80.3-35.5,80.3-45.7V284.9c-54.8-1-109.6,3.7-164.3,17.9v227.5
		C195.1,540.5,213.4,537.3,279.1,558.1z"/>
	<path class="st13" d="M187.8,532.2c0.4,22.9,25.6,14.3,91.3,35.4c65.7-34,87.6-30.6,87.6-55v-237c-59.6-1.7-119.2,3.3-178.9,19.6
		V532.2z M195.1,302.7c54.8-14.1,109.5-18.9,164.3-17.9v227.5c0,10.2-14.6,11.9-80.3,45.7c-65.7-20.8-84-17.5-84-27.9L195.1,302.7z"
		/>
</g>
</svg>
