<svg xmlns="http://www.w3.org/2000/svg" viewBox="0 0 1260 1012.04">
  <g>
    <path d="M1260,2C840,273.28,420-181.24,0,90.08v.11c420-271.28,839.89,183.09,1259.84-88V462.07l.16-.1Z" style="fill: #076a21;fill-rule: evenodd"/>
    <path d="M0,90.19V550.08c420-271.28,839.89,183.09,1259.84-88V2.19C839.89,273.28,420-181.09,0,90.19Z" style="fill: #076a21;fill-rule: evenodd"/>
    <path d="M1259.84,462.07v460l.16-.1V462Z" style="fill: #fdd401;fill-rule: evenodd"/>
    <path d="M0,550.08v460c420-271.28,839.89,183.09,1259.84-88v-460C839.89,733.17,420,278.8,0,550.08Z" style="fill: #fdd401;fill-rule: evenodd"/>
    <path d="M986.63,371.84q3.09,35.37,6.17,70.71l1.79-.45q-3.08-35.34-6.17-70.69Z"/>
    <path d="M1037.4,705.39q-6.26-4.23-12.51-8.62s1.57,26.07,3.91,45.18,19.55,34.91,19.55,34.84-7.82-22.74-8.6-34.06S1037.4,705.39,1037.4,705.39Z" style="fill: #016b29;fill-rule: evenodd"/>
    <path d="M1040.53,742.5c-.77-11.17-2.33-37.06-2.34-37.32s0-.4,0-.6q-7.08-4.8-14.18-9.78l.13,2.17c0,.26,1.6,26.34,3.92,45.28,2.38,19.43,19.15,35,19.86,35.55l2.52,2.26-1.34-3.89C1049,776,1041.29,753.49,1040.53,742.5Zm-11-.85c-1.92-15.66-3.33-36.25-3.76-42.91q5.42,3.79,10.83,7.47c.24,4,1.6,26.52,2.31,36.75.59,8.52,5,23.11,7.29,30.25C1041.42,768.12,1031.3,755.69,1029.58,741.65Z" style="fill: #003d00"/>
    <path d="M1074.29,551.64c0,.24-29.85,17-19.69,15.16,10.17-1.58,33.62,11.47,33.62,11.33S1087.52,547.25,1074.29,551.64Z" style="fill: #016b29;fill-rule: evenodd"/>
    <path d="M1082.28,552.61a7.19,7.19,0,0,0-8-2.1l-.14.06c-22.68,13.21-22.48,15.06-22.38,16.26.13,1.47,1.5,1.37,2.89,1.13,9.85-1.53,33,11.29,33.25,11.28l1.2.65c0-.66,0-1.32,0-2S1088.52,559.34,1082.28,552.61Zm-27.68,13-.31.05c3.1-2.59,11.92-8.06,20.13-12.94a6.11,6.11,0,0,1,6.8,1.81c4.58,4.94,5.8,17,6.11,21.79C1082.26,573.84,1063.6,564.19,1054.6,565.65Z" style="fill: #003d00"/>
    <path d="M1061.4,556c-8.84,1.94-9,2.16-9.26,2.59l.63.81.15,1c.09-.05,1.1-.45,8.52-2.08l.14,0c7-1.25,21.21,14.15,25.67,19.56l1.12-1.9c-.17-.15-17.69-21.57-26.8-20Z" style="fill: #003d00"/>
    <path d="M941.24,578s-13.29-.14-20.33-.42-20.33-3.2-20.33-3.23,18.77,19.3,28.93,18.32c10.16-.76,34.4,1.23,34.4,1.12q-7-7.25-14.07-14.64C947,578.82,944.1,578.43,941.24,578Z" style="fill: #016b29;fill-rule: evenodd"/>
    <path d="M941.31,576.88q-10.2-.07-20.4-.43c-6.91-.19-20.1-3.15-20.24-3.21l-3.27-.76,2.74,2.84c.78.84,19.11,19.51,29.43,18.53,10-.75,34,1.21,34.29,1.13l2.74.18q-8.24-8.45-16.48-17.1C947.19,577.69,944.25,577.29,941.31,576.88Zm-4.38,14.48c-2.85,0-5.45,0-7.48.18-7.44.7-19.92-10-25.53-15.27a120.87,120.87,0,0,0,17,2.5q10.14.35,20.29.42c2.78.39,5.57.76,8.35,1.12q5.85,6.13,11.69,12.18C956.27,592.2,945.45,591.49,936.93,591.36Z" style="fill: #003d00"/>
    <path d="M928.69,583.63c-7.21-.54-25.71-9.11-25.89-9.25-.15.73-.29,1.47-.44,2.2.77.41,18.86,8.8,26.27,9.35.78.07,1.71.11,2.74.13,8.65.24,24.72-1.36,25.47-1.49,0-.76-.06-1.53-.1-2.3C956.54,582.37,936,584.35,928.69,583.63Z" style="fill: #003d00"/>
    <path d="M1031.93,739.26c1.56,14.66,11.73,30.32,14.07,35.62q-5.87-35.61-11.73-71.33S1030.36,724.63,1031.93,739.26Z" style="fill: #016b29;fill-rule: evenodd"/>
    <path d="M1032.71,739c-1.52-14.21,2.29-35,2.33-35.23l-1.53-.41c-.16.88-3.94,21.49-2.36,36.2,1.24,11.64,7.75,23.87,11.64,31.11,1.13,2.11,2,3.77,2.53,4.93l1.36-1.4c-.54-1.24-1.46-2.93-2.61-5.08C1040.27,762,1033.89,750.07,1032.71,739Z" style="fill: #003d00"/>
    <path d="M1045.22,560.36c-7.82,6.2-44.56,61.58-48.47,67.24-3.91,6.25-36,31.67-43,40.61-7,9.55-46.13,81.51-46.13,81.24,0,.25,37.53-35.2,43-42.4,5.47-6.86,15.64-26.46,22.67-38.17,7-10.93,61-66.09,68-74.81,7-7.88,17.2-25.64,21.89-32.26s12.51-10.51,12.51-10.53S1053,554.74,1045.22,560.36Z" style="fill: #016b29;fill-rule: evenodd"/>
    <path d="M1044.92,559.34c-8.11,6.42-45,62.13-48.73,67.48-1.74,2.67-9.72,9.91-18.16,17.34-9.83,8.69-21,18.19-24.81,23.19-7,9.49-44.63,78.71-46.23,81.36l1.07,1.72c1.53-1.17,37.63-35.36,43.07-42.51,3.52-4.42,8.93-14,14.16-23.28,3.1-5.51,6-10.74,8.59-15,5.82-9.35,44.58-48.83,61.13-67.27,3.22-3.49,5.59-6.11,6.74-7.39,4.62-5.19,10.6-14.6,15.4-22.23,2.65-4.2,4.93-7.85,6.56-10.14,4.47-6.29,12.08-10.17,12.15-10.22l-.12-2.26C1074.81,550.4,1052.81,553.66,1044.92,559.34Zm17.77,1.67c-1.67,2.36-4,6-6.64,10.27-4.76,7.54-10.68,16.85-15.18,21.9-1.14,1.28-3.51,3.88-6.72,7.36-16.6,18.47-55.48,58-61.45,67.59-2.59,4.3-5.66,9.78-8.63,15.06-5.18,9.23-10.55,18.69-14,23-4.29,5.52-28.9,29.36-38.8,38.46,9.35-16.77,37.22-67.88,43-75.57,3.71-4.84,14.78-14.3,24.55-22.94,8.9-7.85,16.6-14.86,18.49-17.76,5.63-8.31,40.78-61.11,48.2-67,5.09-3.74,16.85-6.29,24.09-7.8l.82-.16A34.61,34.61,0,0,0,1062.69,561Z" style="fill: #003d00"/>
    <path d="M1022.55,675.36c-6.26-9.52-18.77-17.36-31.28-45.09-3.91-13.32-26.58-51.16-32-53.47-5.47-2.14-18.76,1.26-18.76,1.23S963.13,599.69,967,606.3c3.91,6.82,22.67,33.29,24.23,37.67,1.57,4.6,26.59,55,33.62,63.08,7,8.29,14.07,22.1,14.86,28.83l.78,6.73S1039,696,1037.4,691.69,1028.8,684.91,1022.55,675.36Z" style="fill: #016b29;fill-rule: evenodd"/>
    <path d="M1032.79,685a46.87,46.87,0,0,1-9.65-10.47,78.51,78.51,0,0,0-7.52-9.11A125.08,125.08,0,0,1,992,629.68c-4.13-13.89-26.87-51.6-32.54-54-5.59-2.19-18.57,1.1-19.12,1.21l-2,.48L940,579c.23.32,22.62,21.65,26.41,28.06,1.52,2.63,5.15,8.09,9.35,14.35,6.19,9.23,13.88,20.55,14.79,23.13,1.38,4.08,26.44,55,33.8,63.45,6.73,7.93,13.82,21.56,14.6,28.2l.78,6.74,1.57-.48c-.16-4.79-1.62-46.94-3.21-51.37C1037.29,688.81,1035.31,687.14,1032.79,685Zm-7.37,21.13c-7-8-32.1-58.75-33.44-62.72-.94-2.69-6.83-11.4-15.05-23.64-4-6-7.79-11.65-9.29-14.22-3.34-5.71-19.66-21.51-25-26.82,3.88-.81,12.42-2.39,16.41-.81,5.29,2.24,27.7,39.75,31.54,52.85,0,0,.05.11.07.17a127.11,127.11,0,0,0,24,36.36,76.58,76.58,0,0,1,7.34,8.91,48.3,48.3,0,0,0,10,10.82c2.33,2,4.16,3.54,4.79,5.29.87,2.42,1.89,21.18,2.59,38.13A83.92,83.92,0,0,0,1025.42,706.12Z" style="fill: #003d00"/>
    <path d="M1070.24,656.32c-17.2-14.67-46.91-26.92-79-26.05s-49.25,4.73-51.6,6-7.81,19.3-7.81,19.29,32-9.81,51.6-11.11c19.54-.6,58.63,16.19,66.45,21.35,7.82,6,42.22,35,42.22,34.71C1092.13,700.42,1087.44,671,1070.24,656.32Z" style="fill: #016b29;fill-rule: evenodd"/>
    <path d="M1070.7,655.29c-16-13.64-45.23-27.14-79.41-26.18-32.62.86-49.83,4.94-51.87,6-2.48,1.19-7,15.55-8.29,19.91-.21.69-.41,1.38-.62,2.07l1.51-.46c.33,0,32.2-9.8,51.44-11.08,19.31-.59,58.45,16.24,66,21.25,7.7,5.87,41.82,34.74,42.16,34.7l1.69,1.37-.45-2.86C1092.85,699.68,1087.94,670,1070.7,655.29Zm-20.38,9.44c-7.92-5.24-46.91-22.08-66.86-21.45-17,1.08-43.63,8.9-50.25,10.68,2.48-7.92,5.57-16.07,6.71-16.62,2-1.08,18.94-5.08,51.33-5.92,33.86-.93,63.46,13.06,78.52,25.93,13.57,11.62,19.29,32.76,21,40.6C1083.49,692.25,1057.13,669.78,1050.32,664.73Z" style="fill: #003d00"/>
    <path d="M1029.09,590.31c-3.49,5.19-54.59,64.5-61.71,71-4.54,4.56-9.85,15.19-14.52,24.52a131,131,0,0,1-6.71,12.47c-4.62,7-36.39,46.77-36.71,47l1,1.78c1.31-1.44,32.12-40.13,36.78-47.14a131.48,131.48,0,0,0,6.86-12.74c4.38-8.73,9.81-19.65,14.13-24,7.13-6.48,58.33-66,61.82-71.18,3.87-4.89,24.82-34.25,25-34.67l-1-1.57C1053.88,556.15,1032.94,585.44,1029.09,590.31Z" style="fill: #003d00"/>
    <path d="M1066,664.22c-6-4.25-61.3-28.17-77-29.25-15.58.12-48.83,10.19-50.24,10.41.11.76.22,1.51.32,2.27.34.09,34.49-10.22,49.84-10.37,15.41,1.09,70.85,25.3,76.2,29,5.33,4.64,23.13,31.12,23.31,31.3l1.2-1.79C1088.86,694.79,1071.5,669,1066,664.22Z" style="fill: #003d00"/>
    <path d="M948.77,576l-1,1.81c.27.44,26.63,30.62,35.09,43.46,8.48,13.68,55.77,98,56.25,98.28.42-.53.84-1.06,1.25-1.6-.47-.27-47.81-84.56-56.33-98.3C975.49,606.69,949,576.44,948.77,576Z" style="fill: #003d00"/>
    <path d="M922.47,655.3c-7,7.83-23.45,25.21-23.45,25.17,0,.12,27.36-10,33.62-16.92,6.25-6.71,17.11-29.36,17.11-29.38q-5,1.08-10.08,2.08S929.51,647.55,922.47,655.3Z" style="fill: #016b29;fill-rule: evenodd"/>
    <path d="M939.19,635.33s-10.16,11.3-17.2,19-23.29,25-23.45,25.15q-1.66,1.76-3.34,3.5l4-1.43c1.12-.28,27.57-10.17,33.87-17.11,6.29-6.74,16.84-28.7,17.29-29.65l1.05-2.19q-6,1.3-12.09,2.5Zm8.85.37c-2.89,5.85-10.93,21.61-15.88,26.92-4.62,5-21.38,12.21-29.24,15.19,5.21-5.5,15-16,20-21.59,6.51-7.17,15.69-17.37,17-18.87Q944,636.56,948,635.7Z" style="fill: #003d00"/>
    <path d="M928.6,654.73c-4,4.28-26.75,22.18-27,22.26.26.69.53,1.37.79,2,.94-.63,23.09-18.07,27.13-22.43s14.39-19.56,14.83-20.23l-1.13-1.62C943.13,634.94,932.56,650.61,928.6,654.73Z" style="fill: #003d00"/>
    <path d="M976.42,441.55c.78,4.54,3.13,54.67,4.69,63.72s8.6,34.91,8.6,34.9-4.69,296-4.69,307.4,13.29,30,13.29,29.94l-1.56-337.82s5.47-6.13,7.81-22.33-1.56-74.07-1.56-74.08C1003,443.46,975.64,437.18,976.42,441.55Z" style="fill: #016b29;fill-rule: evenodd"/>
    <path d="M1003.73,442.26l-.57-.12c-7.49-1.46-25.11-5.22-27.2-2a2.45,2.45,0,0,0-.31,1.72c.31,1.79.93,12,1.59,22.76,1,16.68,2.17,35.57,3.1,41,1.5,8.7,7.85,32.18,8.58,34.84-.16,9.74-4.69,296-4.69,307.18,0,11.8,13,30,13.52,30.76l1.36,1.89q-.78-170-1.57-340.08c1.27-1.64,5.72-8.31,7.8-22.65,2.34-16.18-1.39-72-1.55-74.43Zm.06,74.93c-2.24,15.48-7.45,21.54-7.5,21.59l-.34.38q.78,167.76,1.55,335.51c-3.34-5-11.69-18.44-11.69-27.14,0-11.27,4.64-304.42,4.69-307.38v-.23a1.42,1.42,0,0,0,0-.22c-.07-.24-7-25.86-8.57-34.75-.9-5.22-2.1-24.84-3.06-40.61-.69-11.25-1.24-20.25-1.58-22.77,1.9-1.35,13.92.49,25,2.74C1002.74,451.53,1005.93,502.42,1003.79,517.19Z" style="fill: #003d00"/>
    <path d="M982.11,492.86l1.58.09,1.74-33.17-1.58-.09Z" style="fill: #003d00"/>
    <path d="M985.59,496.15l1.58-.09c0-3.31,1.73-34.47,1.74-34.79l-1.57-.09C987.27,462.47,985.59,492.75,985.59,496.15Z" style="fill: #003d00"/>
    <path d="M990.24,456q.28,23.31.58,46.62l1.58-.15q-.28-23.31-.58-46.61Z" style="fill: #003d00"/>
    <path d="M994.88,512.5l1.59-.08q.28-25.47.58-50.93l-1.58.07Q995.17,487,994.88,512.5Z" style="fill: #003d00"/>
    <path d="M1000.11,496c0,12.32-4,26-4,26.13l1.45.82c.17-.57,4.13-14.26,4.14-27.08V465.34l-1.59.13Z" style="fill: #003d00"/>
    <path d="M988.13,844.48a4.45,4.45,0,0,0-4,1.34c.31.6.62,1.21.94,1.81a3.14,3.14,0,0,1,2.78-.86c1.89.38,3.84,2.63,5.62,6.5,1.59,3.36,3.59,10,4.09,22.61l1.58-.26c-.41-10.38-1.92-18.58-4.35-23.72C992.74,847.46,990.5,845,988.13,844.48Z" style="fill: #003d00"/>
    <path d="M1057.73,358.46c-26.58,2.21-23.46,25.29-30.49,33.19a109.86,109.86,0,0,0-12.51,17.42s2.34-11.66,6.25-18.95,13.29-22.2,16.42-29.52,7-25,7-33-3.91-21.09-3.91-27.95.78-13.82.78-13.82-15.64,9.14-25,21.48-19.54,39.45-19.54,39.45-7-18.89-11.73-24.35-17.2-14.06-20.33-18.58-7-13.55-7-13.56-10.17,30.94-10.17,41.19S953,357.68,953,357.67c-7.81-4.48-17.2,1.14-24.23,1s-16.42-6.26-16.42-6.27,2.35,43.52,11,55.21,30.49,13,30.49,12.89c0,.12-24.24,19.37-25.8,38.62-1.57,19.41,13.29,47.07,13.29,47s4.69-10.24,7.82-12.54,10.16-1.23,14.07-4.76,13.29-19.81,17.2-20,15.63,15.08,20.33,18.09,11.72,5.81,14.85,8.89a50.59,50.59,0,0,0,7.82,6s5.47-8.65,7.82-14.68,0-9.13,2.34-15.16,13.29-24.78,11-33.57-5.48-10.56-11-11a32.89,32.89,0,0,0-10.94,1.39q5.46-5.21,10.94-10.52s6.26,2.57,11.73,1.7,25-13.51,28.93-15.59,13.29-.68,13.29-.7S1084.31,355.71,1057.73,358.46Z" style="fill: #dd1810;fill-rule: evenodd"/>
    <path d="M1083.26,379.28c-5.5-15.57-14.31-23-25.49-22-19.32,1.7-23.39,13.91-26.67,24-1.3,4-2.42,7.37-4.3,9.44a103.14,103.14,0,0,0-10.06,13.35,67,67,0,0,1,4.85-13.31c1.44-2.69,3.66-6.46,6-10.47,4-6.76,8.46-14.5,10.46-19.17,3.06-7.14,7.17-25.14,7.17-33.69,0-4.3-1.07-9.88-2.1-15.28-.93-4.89-1.81-9.52-1.81-12.66,0-6.67.76-13.55.77-13.62l.21-1.86-1.22.71c-.64.42-15.9,9.36-25.29,21.72-8.07,10.68-16.54,31.56-19,37.91-1.89-4.87-7.3-18.31-11.25-22.9-2.32-2.69-6.46-6.07-10.46-9.39s-8.27-6.89-9.81-9.1c-3-4.34-6.88-13.26-6.92-13.35-.26-.59-.51-1.17-.76-1.76l-.63,1.9c-.42,1.29-10.24,31.27-10.24,41.67,0,8.11,3.22,19.37,4.76,24.3-4.9-1.89-10.23-.58-15,.54a32.86,32.86,0,0,1-7.74,1.2c-6.8-.15-16-6.11-16.12-6.17l-1.19-.78c0,.62.07,1.25.1,1.88.1,1.79,2.47,44.12,11.2,56,7,9.58,22.22,12.39,28.37,13-6.16,5.54-22.61,21.22-23.93,37.53-1.58,19.65,12.84,46.79,13.46,47.89l.67,1.25c.2-.44.4-.88.61-1.32,1.27-2.78,5.1-10.39,7.51-12.16,1.26-.92,3.36-1.27,5.59-1.64,2.91-.49,6.21-1.07,8.53-3.16,1.54-1.39,3.72-4.42,6.25-8,3.55-5,8.41-11.8,10.55-11.91s7.57,5.73,12,10.35c3.14,3.31,6.1,6.4,8,7.64s3.92,2.3,6,3.38c3.37,1.77,6.87,3.57,8.75,5.43a49.74,49.74,0,0,0,7.94,6.07l.5.32.41-.64c.22-.35,5.57-8.84,7.93-14.93a20.48,20.48,0,0,0,1.29-8.19,17.25,17.25,0,0,1,1.06-7c.51-1.31,1.49-3.34,2.63-5.69,4.12-8.53,10.34-21.55,8.38-28.9-2.48-9.28-6-11.2-11.58-11.6a30,30,0,0,0-7.55.54q3.77-3.6,7.52-7.25c1.42.54,6.78,2.37,11.65,1.6,3.86-.59,14.19-6.61,21.74-11.26,3.3-2,6.14-3.79,7.34-4.39,3.69-1.83,12.85-.63,13-.64l1.08.14c0-.53-.07-1.06-.1-1.6A101.18,101.18,0,0,0,1083.26,379.28Zm-9.27,24c-1.26.63-4,2.34-7.46,4.46-7,4.33-17.67,10.53-21.31,11.08-5.26.84-11.39-1.64-11.45-1.67l-.35-.14q-7.43,7.21-14.86,14.23c1.37-.43,2.73-.87,4.1-1.32a32.7,32.7,0,0,1,10.72-1.36c5.21.38,8.09,2,10.32,10.32,1.66,6.21-4.49,19.05-8.17,26.64-1.16,2.41-2.16,4.48-2.72,5.91a20.63,20.63,0,0,0-1.28,8.19,17.18,17.18,0,0,1-1.06,7,104.21,104.21,0,0,1-7.3,13.79,47.89,47.89,0,0,1-7.18-5.55c-2-2-5.62-3.85-9.09-5.67-2-1.06-4.15-2.18-5.89-3.31s-4.68-4.18-7.76-7.42c-6.21-6.53-10.46-10.88-12.92-10.76-2.76.14-7.27,6.48-11.63,12.56-2.36,3.3-4.59,6.39-6,7.64-2,1.82-5,2.35-7.89,2.83-2.37.4-4.61.77-6.13,1.88-2.61,1.91-6.08,8.7-7.49,11.61-2.83-5.54-13.8-28.52-12.48-44.91,1.5-18.43,25.16-37.45,25.4-37.76l2.51-2.05-2.86-.12c-.22.08-21.7-1.2-30-12.56-7.28-9.89-10-44.2-10.57-52.58,2.79,1.67,9.82,5.5,15.51,5.62a32.84,32.84,0,0,0,8-1.22c5.41-1.28,11-2.66,15.94.19l1.93,1.11-.93-2.71c0-.15-5.39-15.81-5.39-25.71,0-8.45,7.3-31.95,9.48-38.81a89.23,89.23,0,0,0,6.37,12c1.69,2.42,5.78,5.86,10.12,9.46,4,3.28,8,6.62,10.26,9.2,4.52,5.26,11.47,23.85,11.54,24l.67,1.81c.24-.63.48-1.26.71-1.89.11-.26,10.21-27,19.37-39.13,7.66-10.1,19.73-18.05,23.54-20.49-.23,2.55-.6,7.33-.6,12.12,0,3.45.9,8.21,1.87,13.26,1,5.26,2,10.7,2,14.69,0,7.42-3.75,25-6.91,32.35-1.93,4.5-6.38,12.15-10.3,18.84-2.37,4-4.6,7.82-6.07,10.56-4,7.4-6.3,18.88-6.4,19.36l-1.05,5.21,2.4-4.25a110.48,110.48,0,0,1,12.36-17.22c2.23-2.46,3.49-6.32,4.83-10.41,3.07-9.45,6.88-20.91,25.17-22.52,22.89-2.31,28,34.42,28.83,42.73C1083.86,402.11,1077.25,401.61,1074,403.24Z"/>
    <path d="M954.61,449.9C947.75,453,942.27,470,942.27,470s8.23-14,14.4-15.08,16.46-.42,16.46-.43a6.39,6.39,0,0,0-2.06,6.08c.68,4,9.6,3.62,9.6,3.6q1.71-5.6,3.43-11.19C984.1,453,961.47,447,954.61,449.9Z" style="fill: #fee500;fill-rule: evenodd"/>
    <path d="M1056.79,381.51c-4.8,0-25.38,19.06-25.38,19q2.4-6.33,4.81-12.67c0,.22-30.18,29.77-33.61,36.81-3.43,7.31,5.49-19.48,8.92-25.85s10.28-16.11,12.34-25.38,4.12-16.53,4.12-16.53-13,19.59-15.78,25.82-4.8,18.5-8.91,15.85-4.8-10.63-4.8-10.63-1.37,14.13-4.12,13.33-4.11-5.73-4.11-5.73,0,9-3.43,8.22-.69-8-3.43-14.83-6.86-7.67-6.86-7.67,3.43,10.86,2.75,15.89-1.37,17.1-6.17,13.29-5.49-9.83-8.92-8.73,1.37,5-.69,8-6.17,5.13-6.17,5.13,4.8.93,7.55,6.86,8.91,5.73,11.65,13.61,4.12,19.84,4.12,19.84q9.95-2,19.89-4.3a11.06,11.06,0,0,1,7.54,5.35c2.74,4.76,6.86,15.35,6.86,15.35s2.74-8.3-.69-13.95a49,49,0,0,0-6.17-8.41c.91-2.08,1.83-4.17,2.74-6.27a8.71,8.71,0,0,1,6.17,5.38c2.06,4.78,4.12,6.55,4.12,6.55s1.37-7.17-1.37-10.86-4.8-4.49-4.8-4.49a6.31,6.31,0,0,1,6.85-1.75c4.12,1.53,11,6.64,11,6.63s-4.12-9.46-7.55-10.05a37.22,37.22,0,0,0-8.23-.05c0,.07,17.83-29.1,24.69-36.24s19.89-12.34,19.89-12.37S1061.59,381.64,1056.79,381.51Z" style="fill: #fee500;fill-rule: evenodd"/>
    <path d="M999.87,402.81c-4.8.37-6.17-.54-7.54,4.56S991,428.49,991,428.49s-2.06-17.88-6.86-22.62-4.8-6.76-8.23-3.61-2.74,6.12-2.74,6.12q8.22,19.72,16.45,39.23s5.49-11.37,8.92-11.65,7.54,3.38,7.54,3.38,2.06-19.22,1.37-25.16S1004.67,402.42,999.87,402.81Z" style="fill: #016b29;fill-rule: evenodd"/>
    <path d="M956,437.86s4.12,6,8.92,5.84,18.51,2.3,18.51,2.26c-.23-1.32-.46-2.64-.68-4C982.73,442.11,959.41,435,956,437.86Z" style="fill: #fee500;fill-rule: evenodd"/>
    <path d="M946.38,473c-2.06,6,.69,10,.69,10s0-7,3.43-10,2.74-8,2.74-8A13.85,13.85,0,0,0,946.38,473Z" style="fill: #fee500;fill-rule: evenodd"/>
    <path d="M927.87,399.64s2,10.07,5.48,12.13S945,407.89,945,407.88s-6.86-2-10.29-2.09S927.87,399.64,927.87,399.64Z" style="fill: #fee500;fill-rule: evenodd"/>
    <path d="M951.18,373.82c-4.11-3-11-5-11-5a74.88,74.88,0,0,0,8.23,8c4.8,4,8.23,3.93,8.23,3.93A16,16,0,0,0,951.18,373.82Z" style="fill: #fee500;fill-rule: evenodd"/>
    <path d="M958,330.68s-2.06,9.05,0,17a52.54,52.54,0,0,0,6.86,14.87s2.05-12.07-.69-17S958,330.68,958,330.68Z" style="fill: #fee500;fill-rule: evenodd"/>
    <path d="M964.9,327.53a86.23,86.23,0,0,1,4.11,10.9c1.37,5,5.49,9.82,5.49,9.81s0-9-2.75-12.91A62.56,62.56,0,0,0,964.9,327.53Z" style="fill: #fee500;fill-rule: evenodd"/>
    <path d="M1027.3,331.9a24.8,24.8,0,0,0-.69,12.11,36.69,36.69,0,0,1,3.43-9.45c2.75-5.37,2.06-9.29,2.06-9.29S1029.36,325.64,1027.3,331.9Z" style="fill: #fee500;fill-rule: evenodd"/>
    <path d="M1005.36,362.29c-2.28.2-4.12,2.59-4.12,5.36s1.84,4.86,4.12,4.66,4.11-2.63,4.11-5.39S1007.63,362.08,1005.36,362.29Z" style="fill-rule: evenodd"/>
    <path d="M999.18,372.82c-2.27.17-4.11,2.55-4.11,5.32s1.84,4.88,4.11,4.7,4.12-2.58,4.12-5.35S1001.46,372.64,999.18,372.82Z" style="fill-rule: evenodd"/>
    <path d="M1012.21,363.64c-2.27.23-4.11,2.64-4.11,5.41s1.84,4.84,4.11,4.61,4.12-2.67,4.12-5.43S1014.49,363.41,1012.21,363.64Z" style="fill-rule: evenodd"/>
    <path d="M1016.33,371.23c-2.28.24-4.12,2.67-4.12,5.43s1.84,4.83,4.12,4.59,4.11-2.7,4.11-5.47S1018.6,371,1016.33,371.23Z" style="fill-rule: evenodd"/>
    <path d="M981.35,362c-2.27.11-4.11,2.44-4.11,5.21s1.84,4.93,4.11,4.81,4.12-2.46,4.12-5.23S983.63,361.83,981.35,362Z" style="fill-rule: evenodd"/>
    <path d="M988.9,359.52c-2.28.14-4.12,2.49-4.12,5.25s1.84,4.91,4.12,4.77S993,367,993,364.26,991.17,359.38,988.9,359.52Z" style="fill-rule: evenodd"/>
    <path d="M995.76,362.06c-2.28.17-4.12,2.53-4.12,5.3s1.84,4.89,4.12,4.72,4.11-2.56,4.11-5.32S998,361.89,995.76,362.06Z" style="fill-rule: evenodd"/>
    <path d="M973.81,372.3c-2.27.09-4.11,2.39-4.11,5.16s1.84,5,4.11,4.86,4.12-2.41,4.12-5.18S976.09,372.21,973.81,372.3Z" style="fill-rule: evenodd"/>
    <path d="M958.72,378.73c-2.27,0-4.11,2.31-4.11,5.07s1.84,5,4.11,5,4.12-2.33,4.12-5.1S961,378.7,958.72,378.73Z" style="fill-rule: evenodd"/>
    <path d="M1025.24,402.25c-2.27.28-4.11,2.74-4.11,5.5s1.84,4.8,4.11,4.53,4.12-2.77,4.12-5.53S1027.52,402,1025.24,402.25Z" style="fill-rule: evenodd"/>
    <path d="M1034.84,406c-2.27.31-4.11,2.8-4.11,5.57s1.84,4.77,4.11,4.45,4.12-2.83,4.12-5.6S1037.12,405.69,1034.84,406Z" style="fill-rule: evenodd"/>
    <path d="M1038.27,395.51c-2.27.33-4.11,2.82-4.11,5.59s1.84,4.76,4.11,4.43,4.12-2.85,4.12-5.62S1040.55,395.18,1038.27,395.51Z" style="fill-rule: evenodd"/>
    <path d="M1056.1,394.64c-2.27.41-4.11,3-4.11,5.73s1.84,4.7,4.11,4.3,4.12-3,4.12-5.76S1058.38,394.24,1056.1,394.64Z" style="fill-rule: evenodd;opacity: 0.75"/>
    <path d="M969.7,437.54c-2.28.08-4.12,2.37-4.12,5.14s1.84,5,4.12,4.89,4.11-2.4,4.11-5.16S972,437.47,969.7,437.54Z" style="fill-rule: evenodd"/>
    <path d="M977.93,443.23c-2.28.1-4.12,2.42-4.12,5.18s1.84,4.94,4.12,4.84S982,450.81,982,448,980.2,443.13,977.93,443.23Z" style="fill-rule: evenodd"/>
    <path d="M1005.36,454.42c-2.28.2-4.12,2.59-4.12,5.36s1.84,4.86,4.12,4.66,4.11-2.63,4.11-5.39S1007.63,454.21,1005.36,454.42Z" style="fill-rule: evenodd"/>
    <path d="M999.87,451.87c-2.27.19-4.12,2.56-4.11,5.33s1.84,4.88,4.11,4.7,4.12-2.59,4.11-5.36S1002.14,451.69,999.87,451.87Z" style="fill-rule: evenodd"/>
    <path d="M949.81,391.85c-2.27,0-4.12,2.25-4.11,5s1.84,5,4.11,5,4.12-2.27,4.11-5S952.08,391.84,949.81,391.85Z" style="fill-rule: evenodd"/>
    <path d="M958,397.77c-2.27,0-4.12,2.3-4.12,5.07s1.85,5,4.12,5,4.12-2.33,4.11-5.09S960.31,397.74,958,397.77Z" style="fill-rule: evenodd"/>
    <path d="M969.7,408.5c-2.28.08-4.12,2.37-4.12,5.14s1.84,5,4.12,4.88,4.11-2.39,4.11-5.16S972,408.43,969.7,408.5Z" style="fill-rule: evenodd"/>
    <path d="M960.78,410.74c-2.27.05-4.11,2.32-4.11,5.08s1.84,5,4.11,4.94,4.12-2.34,4.12-5.1S963.06,410.7,960.78,410.74Z" style="fill-rule: evenodd"/>
    <path d="M964.9,421.66c-2.28.06-4.12,2.34-4.12,5.11s1.84,5,4.12,4.91,4.11-2.36,4.11-5.13S967.17,421.6,964.9,421.66Z" style="fill-rule: evenodd"/>
    <path d="M973.81,420.37c-2.27.09-4.11,2.39-4.11,5.16s1.84,5,4.11,4.86,4.12-2.42,4.12-5.18S976.09,420.28,973.81,420.37Z" style="fill-rule: evenodd"/>
    <path d="M967,390.56c-2.27.07-4.11,2.35-4.11,5.12s1.84,5,4.11,4.9,4.12-2.37,4.12-5.14S969.23,390.5,967,390.56Z" style="fill-rule: evenodd"/>
    <path d="M975.18,385.27c-2.27.09-4.11,2.4-4.11,5.16s1.84,4.95,4.11,4.86,4.12-2.43,4.12-5.2S977.46,385.17,975.18,385.27Z" style="fill-rule: evenodd"/>
    <path d="M983.41,373.88c-2.27.13-4.11,2.46-4.11,5.22s1.84,4.93,4.11,4.81,4.12-2.48,4.12-5.25S985.69,373.76,983.41,373.88Z" style="fill-rule: evenodd"/>
    <path d="M987.53,371.62c-2.28.14-4.12,2.48-4.12,5.25s1.84,4.91,4.12,4.77,4.11-2.5,4.11-5.27S989.8,371.48,987.53,371.62Z" style="fill-rule: evenodd"/>
    <path d="M992.33,387.34c-2.28.15-4.12,2.51-4.12,5.27s1.84,4.9,4.12,4.75,4.11-2.54,4.11-5.3S994.6,387.18,992.33,387.34Z" style="fill-rule: evenodd"/>
    <path d="M1008.1,399.09c-2.27.21-4.12,2.61-4.12,5.38s1.85,4.85,4.12,4.64,4.11-2.64,4.11-5.41S1010.37,398.88,1008.1,399.09Z" style="fill-rule: evenodd"/>
    <path d="M1016.33,387.25c-2.28.24-4.12,2.67-4.12,5.44s1.84,4.83,4.12,4.58,4.11-2.7,4.11-5.46S1018.6,387,1016.33,387.25Z" style="fill-rule: evenodd"/>
    <path d="M1025.24,360.19c-2.27.28-4.11,2.74-4.11,5.5s1.84,4.8,4.11,4.53,4.12-2.77,4.12-5.53S1027.52,359.92,1025.24,360.19Z" style="fill-rule: evenodd"/>
    <path d="M1011.53,438.82c-2.28.22-4.12,2.63-4.12,5.4s1.84,4.84,4.12,4.62,4.11-2.67,4.11-5.43S1013.8,438.59,1011.53,438.82Z" style="fill-rule: evenodd"/>
    <path d="M1002.74,413.48c-1,7.2-2,14.65-2.57,22.28l1.79.16c.6-7.53,1.59-14.92,2.56-22.08s2-14.65,2.57-22.28l-1.79-.14C1004.7,398.94,1003.7,406.33,1002.74,413.48Z"/>
    <path d="M1011.53,427.8c-2.28.23-4.12,2.64-4.12,5.4s1.84,4.85,4.12,4.62,4.11-2.66,4.11-5.43S1013.8,427.58,1011.53,427.8Z" style="fill-rule: evenodd"/>
    <path d="M1011.53,417.79c-2.28.22-4.12,2.63-4.12,5.4s1.84,4.84,4.12,4.62,4.11-2.67,4.11-5.43S1013.8,417.56,1011.53,417.79Z" style="fill-rule: evenodd"/>
    <path d="M971.75,456.5c-2.27.08-4.11,2.38-4.11,5.15s1.84,5,4.11,4.87,4.12-2.4,4.12-5.17S974,456.42,971.75,456.5Z" style="fill-rule: evenodd"/>
    <path d="M978.61,454.21c-2.27.11-4.11,2.43-4.11,5.19s1.84,4.94,4.11,4.83,4.12-2.44,4.12-5.21S980.88,454.11,978.61,454.21Z" style="fill-rule: evenodd"/>
    <path d="M987.53,455.74c-2.28.14-4.12,2.48-4.12,5.25s1.84,4.91,4.12,4.77,4.11-2.5,4.11-5.27S989.8,455.6,987.53,455.74Z" style="fill-rule: evenodd"/>
    <path d="M973.81,398.34c-2.27.09-4.11,2.39-4.11,5.16s1.84,4.95,4.11,4.86,4.12-2.42,4.12-5.18S976.09,398.25,973.81,398.34Z" style="fill-rule: evenodd"/>
    <path d="M983.41,407.91c-2.27.12-4.11,2.45-4.11,5.22s1.84,4.92,4.11,4.8,4.12-2.48,4.12-5.25S985.69,407.78,983.41,407.91Z" style="fill-rule: evenodd;opacity: 0.75"/>
    <path d="M1003.8,436.89l1.72.67a322.68,322.68,0,0,0,6.91-68.94l-1.81.2A318.48,318.48,0,0,1,1003.8,436.89Z"/>
    <path d="M1006.73,386.2c-2.28.2-4.12,2.6-4.12,5.37s1.84,4.86,4.12,4.65,4.11-2.63,4.11-5.4S1009,386,1006.73,386.2Z" style="fill-rule: evenodd"/>
    <path d="M1022.5,418.6c-2.27.27-4.12,2.72-4.11,5.48s1.84,4.81,4.11,4.55,4.12-2.75,4.11-5.51S1024.77,418.34,1022.5,418.6Z" style="fill-rule: evenodd"/>
    <path d="M992.33,439.61l1.74.63c3.64-18.18,5.66-39.13,6-62.22l-1.81.09C997.93,401,995.93,421.67,992.33,439.61Z"/>
    <path d="M984.29,374.51l-1.76.7c2,12,2.66,24.22,3.35,36,.64,11,1.3,22.46,3,33.7l1.77-.67c-1.66-11.07-2.32-22.4-3-33.35C987,399,986.28,386.72,984.29,374.51Z"/>
    <path d="M975.31,388.7l-1.63,1.2A248.06,248.06,0,0,1,980,414.56a260.7,260.7,0,0,0,6.53,25.54l1.64-1.23a259.19,259.19,0,0,1-6.45-25.19A252.55,252.55,0,0,0,975.31,388.7Z"/>
    <path d="M204.11,284.33c1.3-1.82,1.8-6.75,0-5.09-1.35.23-3.63-.8-5.17-1.93s-2.7-4-4.45-6.49q2.67-23.61,5.35-47.19c-7.17,14.29-10.85,39.31-11.89,42.2-1.14-1.71-5.09-27.06-11.75-36.42l5.52,44.85c-1.82,2.77-3.64,6.32-5.45,8.33s-3.61,2.48-5.42,3.74c0,0-1.26,5.24,0,5.88s3.26-1.73,4.56-1.4-4.78,87.44-4.78,87.45,10.65-7.62,17.82-8.43S205,371.11,205,371.12q-2.72-42.67-5.44-85.33S202.8,286.14,204.11,284.33Z" style="fill: #fed501;fill-rule: evenodd"/>
    <path d="M204.29,284.61c1-1.42,1.61-4.56,1.06-5.68-.13-.27-.51-.8-1.34-.1-1.29.18-3.5-.84-4.95-1.9a12.38,12.38,0,0,1-2.65-3.63c-.51-.88-1-1.78-1.65-2.67q2.67-23.5,5.33-47l-.51-.24c-5.43,10.84-8.84,27.65-10.67,36.69-.43,2.11-.77,3.8-1,4.8-.33-1.07-.84-3.28-1.4-5.74-2-8.74-5.34-23.37-10.1-30.07l-.5.46,5.49,44.63c-.58.88-1.15,1.84-1.71,2.78a37.54,37.54,0,0,1-3.58,5.31,12,12,0,0,1-3.52,2.59,18.87,18.87,0,0,0-1.83,1.1l-.14.09,0,.2c-.13.58-1.31,5.64.18,6.37.79.39,1.73-.16,2.63-.69a3.6,3.6,0,0,1,1.88-.71c.67,3-2.54,53.51-4.88,87.07l-.05.65.42-.3c.11-.09,10.68-7.59,17.71-8.38s16.37,1.26,16.46,1.29l.4.09q-2.72-42.7-5.44-85.4C200.79,286.26,203.16,286.19,204.29,284.61Zm.36,86c-1.86-.41-9.89-2-16.17-1.21-.42,0-.86.12-1.3.21-6.22,1.28-14.3,6.63-16.21,8,.26-3.77,1.62-23.47,2.84-43,2.73-44,2.11-44.12,1.7-44.23a3.48,3.48,0,0,0-2.28.75c-.81.47-1.64.95-2.24.66-.83-.4-.27-3.77,0-5.19.55-.37,1.11-.67,1.65-1a12.67,12.67,0,0,0,3.7-2.73,37.72,37.72,0,0,0,3.68-5.46c.59-1,1.21-2,1.81-2.92l.12-.18q-2.69-21.81-5.36-43.59c4.32,7,7.42,20.5,9.3,28.76.94,4.1,1.41,6.09,1.76,6.62l.27.4.2-.56c.27-.75.67-2.75,1.28-5.76,1.75-8.58,4.92-24.23,9.88-34.93q-2.58,22.85-5.18,45.72l.09.13c.64.91,1.19,1.85,1.72,2.76a12.74,12.74,0,0,0,2.79,3.79c1.58,1.16,3.92,2.21,5.33,2l.13-.07c.5-.46.62-.21.66-.12.36.73-.11,3.4-1,4.57-1.18,1.64-4.29,1.33-4.32,1.33l-.38,0Z" style="fill: #917b01"/>
    <path d="M177.18,296.88c-.4,9.11-.86,19.44-1.38,22l.54.12c.55-2.62,1-12.55,1.41-22.16.34-7.63.69-15.53,1-16.68l-.53-.21C177.87,281.2,177.55,288.47,177.18,296.88Z" style="fill: #917b01"/>
    <path d="M178.63,316.31l.57-.05c.28-4.61.85-35.94.85-36.25l-.57.1C179.47,280.43,178.91,311.73,178.63,316.31Z" style="fill: #917b01"/>
    <path d="M175,343.22c-.47,13.41-1,28.61-1.62,32.32l.56.07c.62-3.79,1.13-18.38,1.63-32.48.41-11.77.8-22.89,1.17-24.6l-.54-.14C175.84,320.22,175.47,330.88,175,343.22Z" style="fill: #917b01"/>
    <path d="M180.76,315.87l.57-.12q.07-17.87.14-35.74l-.57.12Q180.83,298,180.76,315.87Z" style="fill: #917b01"/>
    <path d="M176.72,372l.57-.07c.33-6.77,1-52.87,1-53.34l-.57.12C177.71,319.12,177.05,365.2,176.72,372Z" style="fill: #917b01"/>
    <path d="M182.89,279.86c.06,13.5.07,34-.12,35.1l.52.22c.28-.88.22-25.08.17-35.44Z" style="fill: #917b01"/>
    <path d="M179.2,371.41l.57-.12q.09-26.32.17-52.64l-.58.12Q179.29,345.1,179.2,371.41Z" style="fill: #917b01"/>
    <path d="M184.74,279.5c.1,1.55,0,19.16-.1,28.62,0,3.35,0,5.8,0,6.43l.58-.12c0-.63,0-3.08,0-6.42.08-10.14.2-27.12.1-28.71Z" style="fill: #917b01"/>
    <path d="M181.68,318.5c.06,20.08.08,50.43-.15,51.78l.54.17c.33-1.29.21-43.61.18-52.08Z" style="fill: #917b01"/>
    <path d="M183.83,318.07c.12,2.29,0,28.24-.12,42.19,0,4.92-.05,8.53-.05,9.45l.57-.12c0-.93,0-4.53.05-9.45.09-14.93.24-39.93.12-42.26Z" style="fill: #917b01"/>
    <path d="M186,318.54q.09,25.08.17,50.16l.57-.12q-.08-25.08-.16-50.16Z" style="fill: #917b01"/>
    <path d="M188.45,367.73l.58-.11q.08-25.23.16-50.47l-.57.11Q188.53,342.51,188.45,367.73Z" style="fill: #917b01"/>
    <path d="M190.6,367.29l.57-.11q.09-25.35.17-50.71l-.57.12Z" style="fill: #917b01"/>
    <path d="M192.91,367.8l.58-.11q.07-24.51.16-49l-.57.11Q193,343.29,192.91,367.8Z" style="fill: #917b01"/>
    <path d="M194.9,318q.4,25,.82,50l.58-.13q-.42-25-.83-50Z" style="fill: #917b01"/>
    <path d="M186.58,279.73l.15,34,.57-.12q-.08-17-.14-34Z" style="fill: #917b01"/>
    <path d="M196.55,317.65l2,49.81.57-.15-2-49.82Z" style="fill: #917b01"/>
    <path d="M188.72,313l.57-.12q.08-17.13.14-34.26l-.57.11Q188.79,295.89,188.72,313Z" style="fill: #917b01"/>
    <path d="M198.86,317.22q1.24,25.69,2.48,51.42l.57-.16q-1.23-25.73-2.47-51.43Z" style="fill: #917b01"/>
    <path d="M190.56,312.65l.58-.11q.06-17.22.14-34.43l-.58.11Q190.64,295.44,190.56,312.65Z" style="fill: #917b01"/>
    <path d="M192.55,312.91l.57-.11.15-33.28-.58.11Q192.63,296.27,192.55,312.91Z" style="fill: #917b01"/>
    <path d="M194.26,279q.35,17,.71,33.93l.57-.14q-.36-17-.71-33.93Z" style="fill: #917b01"/>
    <path d="M195.68,278.75q.85,16.88,1.7,33.74l.58-.16-1.71-33.75Z" style="fill: #917b01"/>
    <path d="M197.67,278.37l2.13,34.83.57-.18-2.13-34.83Z" style="fill: #917b01"/>
    <path d="M207.8,250.68c-4.78.09-20.87,13.51-20.87,13.58q-6.74-2-13.46-3.77s-5.22-2.57-7.17-1.44-4.13,8-4.13,8a9.3,9.3,0,0,1,4.13.22c2.6.51,19.81-2.67,19.81-2.59,0-.14,21.91-5,23-6a45.91,45.91,0,0,1,3.69-3.14S212.58,250.51,207.8,250.68Z" style="fill: #fed501;fill-rule: evenodd"/>
    <path d="M207.83,250.26c-4.67.12-19.41,12.22-20.91,13.55q-6.66-1.95-13.32-3.73c-.22-.11-5.34-2.59-7.37-1.42s-4.23,8-4.32,8.31l-.2.65.46-.12a9.51,9.51,0,0,1,4,.22c2.61.53,19.19-2.54,19.89-2.58h0c3.67-1,22-5,23.13-6.09a42.47,42.47,0,0,1,3.66-3.11l.19-.15v-.29C213.08,255.45,212.8,250.09,207.83,250.26Zm-41.44,16.63a10.61,10.61,0,0,0-3.76-.3c.73-2.18,2.38-6.37,3.73-7.14,1.53-.89,5.56.73,7,1.45q6.19,1.67,12.39,3.46C183.29,264.7,168.72,267.37,166.39,266.89ZM209,258.38c-.78.72-12.36,3.33-21,5.47,3.36-2.81,15-12,19.36-12.7a3.87,3.87,0,0,1,.45-.05,4.47,4.47,0,0,1,4.71,4.26A40.56,40.56,0,0,0,209,258.38Z" style="fill: #917b01"/>
    <path d="M165.54,269.77c-2.78,5.08,1,10.39,1,10.4s4.69-5.09,8.17-5.89,5.43,6.7,6.3,7.14,17.39-5.84,17.39-5.77,4.78-7.55,7.39-7.68a12.21,12.21,0,0,1,4.78.78s1.19-6.42-.76-8.64C207.88,257.44,168.32,264.21,165.54,269.77Z" style="fill: #fed501;fill-rule: evenodd"/>
    <path d="M188,261.39c-4.84.86-20.79,4.64-22.66,8.15-2.93,5.34,1,10.9,1,11l.15.21.2-.22c0-.05,4.67-5,8-5.79,2.3-.54,3.93,2.9,5,5.17.55,1.17.85,1.79,1.17,1.95a1.7,1.7,0,0,0,.85-.07c3.24-.75,14.26-4.85,16.69-5.69l.1,0,.07-.11c0-.08,4.71-7.42,7.16-7.53a12,12,0,0,1,4.7.77l.3.12.08-.46c0-.27,1.22-6.71-.84-9.05C208.9,258.48,197.84,259.44,188,261.39Zm22.4,6.84a12.2,12.2,0,0,0-4.56-.68c-2.56.1-6.91,6.75-7.54,7.73-6.26,2.22-16.37,5.94-17.13,5.74a7,7,0,0,1-.94-1.7c-1.14-2.42-2.87-6.07-5.49-5.46-3.13.73-7.13,4.74-8.1,5.75-.65-1-3.15-5.47-.89-9.61,1.13-2,9.85-5.34,22.25-7.77,12-2.35,20.89-2.62,21.65-1.77C211.16,262.17,210.62,266.76,210.4,268.23Z" style="fill: #917b01"/>
    <path d="M204.81,267.46c-4.42.46-29.06,5.66-33.93,7.27-4.88,1.42-6.42,11.36-5.23,12.8s9.07-3.62,10.55-3.75q11.27-1.15,22.51-1.82c5.19-.31,8.53-5,10.27-5.59S209.23,266.8,204.81,267.46Z" style="fill: #fed501;fill-rule: evenodd"/>
    <path d="M204.82,267c-4.33.45-29,5.65-33.95,7.28-2.34.68-4.34,3.47-5.35,7.45-.69,2.74-.72,5.31-.07,6.11h0c.82,1,3.76-.4,7.5-2.27a17.23,17.23,0,0,1,3.23-1.41q11.25-1.15,22.51-1.82a8.91,8.91,0,0,0,1.17-.14c3.06-.57,5.39-2.53,7.14-4a9.07,9.07,0,0,1,2-1.45c.66-.23,1-1.25,1-2.75C209.85,270.81,208,266.57,204.82,267Zm4.12,8.93a8.61,8.61,0,0,0-2.18,1.54c-1.91,1.61-4.52,3.82-8,4q-11.25.66-22.51,1.82l-.17,0a20.34,20.34,0,0,0-3.21,1.42c-2.51,1.25-6.32,3.19-7,2.37h0c-.42-.5-.44-2.73.19-5.24.45-1.75,1.8-5.91,4.83-6.79,4.94-1.63,29.6-6.82,33.93-7.27,3.06-.46,4.5,3.88,4.59,6.29C209.43,275,209.32,275.83,208.94,276Z" style="fill: #917b01"/>
    <path d="M207.7,263.16c-1.39-.89-37.21,7.07-39.27,8.24-1.92.73-3.34,5.28-3.4,5.47l.52.23s1.33-4.27,2.93-4.88c2.42-1.3,37.74-9,39-8.24,1,.37,2.4,3.16,2.86,4.2l.49-.51C210.78,267.51,209.08,263.68,207.7,263.16Z" style="fill: #917b01"/>
    <path d="M198.46,229.18c-2.39,3.29-10.65,19.54-10.65,19.56s-9.78-14.1-11.73-15.52-6.74,1.28-6.74,1.28.43,5.61,1.52,8.52,1.52,3.76,1.52,3.76q7.06,10.38,14.13,21c0-.06,13.9-23.75,15.86-26.9s3-13.23,3-13.23S200.85,225.87,198.46,229.18Z" style="fill: #fed501;fill-rule: evenodd"/>
    <path d="M198.28,228.9c-2.2,3-9.14,16.55-10.48,19.2-1.5-2.19-9.74-13.93-11.57-15.26-2-1.52-6.76,1.15-6.95,1.27l-.25.14,0,.37a42.21,42.21,0,0,0,1.55,8.65c1.09,2.9,1.52,3.76,1.54,3.8q7.19,10.55,14.35,21.29l.22-.38c.14-.29,13.93-23.77,15.86-26.88,2-3.27,3.08-13.06,3.12-13.47l0-.35-.22-.08C205.32,227.12,200.77,225.44,198.28,228.9Zm3.89,11.68c-1.8,2.91-13.87,23.43-15.65,26.53q-7-10.41-13.91-20.63c-.07-.14-.51-1.08-1.49-3.71a37.84,37.84,0,0,1-1.46-8c1-.54,4.67-2.34,6.26-1.15,1.9,1.38,11.58,15.28,11.68,15.45l.22.32L188,249c.08-.18,8.27-16.27,10.61-19.49,1.94-2.69,5.53-1.81,6.45-1.53C204.88,229.74,203.83,237.85,202.17,240.58Z" style="fill: #917b01"/>
    <path d="M187.81,216.05a8.44,8.44,0,0,0-2.61,6.26c.22,3.77.22,23.12.22,23.12l4.35,1.64s-.22-21.54,0-25.07A8.78,8.78,0,0,0,187.81,216.05Z" style="fill: #fed501;fill-rule: evenodd"/>
    <path d="M190.05,222A9.13,9.13,0,0,0,188,215.7l-.14-.15-.17.15a8.88,8.88,0,0,0-2.77,6.71c.21,3.7.21,22.89.21,23.09v.28l4.93,1.85V247C190.05,246.79,189.84,225.45,190.05,222Zm-.58,24.53-3.76-1.42c0-2.49,0-19.34-.22-22.87a7.79,7.79,0,0,1,2.27-5.64,8.36,8.36,0,0,1,1.72,5.44C189.28,225.24,189.44,242.87,189.47,246.51Z" style="fill: #917b01"/>
    <path d="M193,256.47c-10.23,2-23,5.19-24.23,5.25-1.8,0-4.45,2.48-5.73,3.66-.27.25-.55.51-.62.55l.11.79a5.42,5.42,0,0,0,.75-.64c1.23-1.13,3.78-3.47,5.41-3.51,1.3-.06,13.53-3.1,24.32-5.26,7.14-1.47,13.88-2.67,14.51-2.67a20.84,20.84,0,0,1,5,1.28l.2-.81a20.2,20.2,0,0,0-5.1-1.32C206.89,253.81,200.75,254.88,193,256.47Z" style="fill: #917b01"/>
    <path d="M170.41,279.71c-2,1.3-3.08,3.57-4.2,6-.24.51-.48,1-.74,1.56l.45.42.75-1.58c1.1-2.37,2.05-4.41,3.89-5.6,2.45-1.87,33.67-8.79,34.76-8.28.81.22,3,2.71,3.7,3.65.14-.22.27-.44.4-.66-.28-.36-2.84-3.52-3.93-3.82C204.47,270.8,173.05,277.69,170.41,279.71Z" style="fill: #917b01"/>
    <path d="M205,243.24c-3.26,1.77-17.6,20.18-17.6,20.23s-15.22-12.6-18.26-12.73-6.74,3.28-6.74,3.28,5.41,4,7.8,6,17.14,19.31,17.14,19.37,14.77-21.22,16.73-25,7.88-9.81,7.88-9.8S208.24,241.39,205,243.24Z" style="fill: #fed501;fill-rule: evenodd"/>
    <path d="M204.9,242.84c-3.12,1.71-15.83,17.88-17.53,20.12-1.76-1.53-15.26-12.51-18.19-12.64-3.1-.22-6.76,3.2-6.92,3.35l-.45.43.41.3c.06,0,5.43,4,7.79,6h0c2.35,1.85,17,19.1,17.11,19.34l.18.22.2-.29c.61-.93,14.82-21.28,16.77-25s7.74-9.64,7.8-9.69l.39-.39-.36-.32C211.94,244.1,208.26,241,204.9,242.84Zm-1.07,11.34c-1.8,3.47-14.74,22.05-16.5,24.65-1.8-2.19-14.72-17.39-17-19.19h0c-2-1.63-6-4.7-7.37-5.69,1.07-.9,3.8-2.94,6.08-2.79,2.95.13,18,12.5,18.15,12.69l.17.14.17-.22c.14-.24,14.33-18.42,17.5-20.14,2.5-1.41,5.33.31,6.33,1C210,246.09,205.52,250.86,203.83,254.18Z" style="fill: #917b01"/>
    <path d="M190.64,223.41c-1.09,3.07-2.4,25.88-2.4,25.88s-2.82-21-3.69-24.3-4.56-5.35-4.56-5.35a52.86,52.86,0,0,0-.66,9.35c.22,4.07,4.35,32,4.35,32.05l6.09-.33s5.43-30.91,6.08-34.52-.43-9.44-.43-9.44S191.72,220.33,190.64,223.41Z" style="fill: #fed501;fill-rule: evenodd"/>
    <path d="M195.6,216.1l-.32.31c-.15.14-3.78,3.69-4.9,6.85-.87,2.47-1.84,16.73-2.24,23.06-.81-5.87-2.64-18.93-3.32-21.53-.9-3.41-4.54-5.47-4.7-5.55l-.32-.18-.09.54a51.92,51.92,0,0,0-.66,9.49c.22,4,4.18,31,4.35,32.09l0,.29c2.18-.13,4.36-.24,6.54-.35l.06-.35c.06-.32,5.44-31,6.09-34.52s-.39-9.42-.44-9.66Zm0,10c-.6,3.36-5.41,30.69-6,34.17-1.88.09-3.75.19-5.63.3-.44-3-4.1-27.93-4.3-31.7a50,50,0,0,1,.56-8.66c.91.58,3.43,2.39,4.1,4.95.85,3.24,3.66,24,3.68,24.23l.57-.16c.45-7.85,1.52-23.33,2.36-25.7s3.42-5.2,4.34-6.14C195.47,218.9,196.09,223.28,195.57,226.13Z" style="fill: #917b01"/>
    <path d="M203.84,247.71c-1.58,1.14-15,22.37-16.88,25.37-1.81-2-15.51-16.41-17.09-18a13.87,13.87,0,0,0-5-3l-.22.83a13.49,13.49,0,0,1,4.87,2.86c1.69,1.74,17.15,18,17.3,18.26l.2.21.19-.3c4.26-6.86,15.59-24.52,16.88-25.46,1.57-1.21,7.43-3.37,7.49-3.39,0-.27-.06-.54-.08-.81C211.22,244.33,205.48,246.45,203.84,247.71Z" style="fill: #917b01"/>
    <path d="M187.59,260.84S176.94,247.26,174.77,244s-8.69-.45-8.69-.44,1.74,3.06,2.82,5q9,11.13,18,22.57c0-.06,14.78-23.91,16.95-28s4.56-8.72,4.56-8.72-7.38,2.54-9.77,6.18S187.59,260.83,187.59,260.84Z" style="fill: #fed501;fill-rule: evenodd"/>
    <path d="M198.48,240.29c-2.2,3.32-9.55,17.32-10.9,19.94-1.53-2-10.62-13.59-12.59-16.55-2.25-3.43-8.68-.66-9-.53l-.47.22.28.49s1.73,3.06,2.82,5q9,11.14,18.07,22.6l.2.25.2-.33c.6-1,14.81-23.95,17-28s4.56-8.72,4.56-8.72c.16-.3.32-.59.47-.89l-.72.25C208.12,234.07,200.91,236.6,198.48,240.29Zm5.19,2.59c-2,3.81-14.94,24.7-16.73,27.67q-8.91-11.31-17.82-22.3c-.81-1.47-2-3.53-2.52-4.48,1.53-.58,6.24-2.06,8,.55,2.16,3.23,12.73,16.69,12.84,16.86l.22.28.2-.39c.09-.19,8.71-16.7,11.06-20.23,1.86-2.82,7-5,8.88-5.77C207,236.6,205.25,239.83,203.67,242.88Z" style="fill: #917b01"/>
    <path d="M187.15,265.44q-10-11.56-20-22.73l-.39.71q10.1,11.27,20.2,22.94l.2.23q9.54-15.54,19.07-30.73l-.39-.53Q196.5,250.22,187.15,265.44Z" style="fill: #917b01"/>
    <path d="M188,243.94s-7.61-14.58-9.35-17-4.78-.81-4.78-.81a14.22,14.22,0,0,0,1.09,6.73c1.52,3.73,13.25,20.85,13.25,20.89s9.13-19.61,10.87-24.35a34.32,34.32,0,0,0,2-8.93s-3.48,1.28-5,3.79S188,243.92,188,243.94Z" style="fill: #fed501;fill-rule: evenodd"/>
    <path d="M195.87,224c-1.39,2.27-6.67,16-7.86,19.18-1.35-2.61-7.54-14.36-9.11-16.58-1.83-2.59-4.93-1-5.06-.87l-.18.1,0,.27a14.57,14.57,0,0,0,1.12,7c1.52,3.72,12.81,20.2,13.29,21l.23.34.21-.46c.38-.82,9.16-19.68,10.89-24.39a34.43,34.43,0,0,0,2-9.11l0-.51L201,220C200.88,220.09,197.44,221.38,195.87,224Zm3,5.23c-1.56,4.27-9.25,20.84-10.63,23.85-1.66-2.48-11.62-17.12-13-20.49a14.32,14.32,0,0,1-1.08-6.17c.67-.3,3-1.1,4.31.83,1.71,2.4,9.25,16.82,9.32,17s.17.32.25.49l.23-.61c.07-.18,6.52-17.17,8-19.6a10.28,10.28,0,0,1,4.47-3.49A35.2,35.2,0,0,1,198.86,229.22Z" style="fill: #917b01"/>
    <path d="M187.8,247.43q-6.62-10.63-13.24-21.1l-.45.63q6.85,10.81,13.71,21.82,6.51-13.93,13-27.72l-.46-.42Q194.1,234,187.8,247.43Z" style="fill: #917b01"/>
    <path d="M187.42,216.52l.24,31,.57-.13-.24-31Z" style="fill: #917b01"/>
    <path d="M188.1,248.67q-3.79-14.37-7.6-28.68l-.54.41q4.08,15.36,8.16,30.79,3.66-16.68,7.33-33.31l-.55-.16Q191.5,233.17,188.1,248.67Z" style="fill: #917b01"/>
    <path d="M187.38,259.17q-8.5-12.45-17-24.63l-.43.65q8.72,12.48,17.43,25.25,8.75-16.29,17.51-32.29l-.43-.48Q195.93,243.29,187.38,259.17Z" style="fill: #917b01"/>
    <path d="M175.21,305.78q-.56,8.22-1.09,16.43,13.57-3.18,27.16-5.64l-.87-16Q187.81,302.85,175.21,305.78Z" style="fill: #fed501;fill-rule: evenodd"/>
    <path d="M175,305.42q-.57,8.64-1.15,17.29,13.9-3.27,27.79-5.78-.45-8.43-.91-16.86Q187.81,302.44,175,305.42Zm-.51,16.3q.51-7.79,1-15.59,12.33-2.85,24.68-5.12.4,7.59.82,15.19Q187.71,318.63,174.44,321.72Z" style="fill: #917b01"/>
    <path d="M186.81,319.43l.23.72q6.93-5.91,13.88-11.65l-.23-.72Q193.75,313.51,186.81,319.43Z" style="fill: #917b01"/>
    <path d="M174.56,314.43l.27.68q5.7-5.67,11.4-11.21l-.27-.69Q180.26,308.76,174.56,314.43Z" style="fill: #917b01"/>
    <path d="M257,277.46c1.3-1.69,1.8-6.58,0-5.09-1.35.11-3.63-1.13-5.18-2.41s-2.69-4.24-4.44-6.9q2.67-23.35,5.35-46.7c-7.17,13.63-10.85,38.3-11.89,41.08-1.14-1.81-5.1-27.54-11.75-37.56q2.76,22.69,5.51,45.4c-1.81,2.59-3.63,6-5.44,7.79s-3.61,2.13-5.42,3.21c0,0-1.27,5.11,0,5.88s3.26-1.41,4.56-.94-4.78,87-4.78,87,10.65-6.56,17.82-6.69,16.52,2.83,16.52,2.84q-2.73-42.93-5.44-85.84S255.68,279.16,257,277.46Z" style="fill: #fed501;fill-rule: evenodd"/>
    <path d="M257.17,277.77c1-1.33,1.61-4.41,1.06-5.59-.13-.28-.51-.85-1.34-.22-1.29.06-3.5-1.17-4.95-2.36a14.19,14.19,0,0,1-2.65-3.87c-.51-.93-1-1.89-1.65-2.83q2.67-23.25,5.33-46.49l-.51-.29c-5.43,10.33-8.84,26.82-10.67,35.68-.43,2.07-.78,3.72-1,4.7-.34-1.1-.84-3.36-1.4-5.88-2-8.93-5.34-23.87-10.1-31l-.5.41q2.74,22.57,5.48,45.17c-.57.83-1.14,1.73-1.7,2.61a32.22,32.22,0,0,1-3.58,5,10.35,10.35,0,0,1-3.53,2.24,17.29,17.29,0,0,0-1.82.92l-.14.08,0,.2c-.14.56-1.31,5.5.18,6.38.78.46,1.72,0,2.63-.43a3.24,3.24,0,0,1,1.88-.52c.67,3.1-2.54,53.25-4.88,86.59l-.05.64.42-.26c.11-.08,10.68-6.53,17.71-6.65s16.37,2.79,16.46,2.83l.4.13q-2.72-43-5.44-85.9C253.67,279.09,256,279.24,257.17,277.77Zm.36,86c-1.87-.59-9.89-2.89-16.17-2.73-.42,0-.86,0-1.3.09-6.22.69-14.3,5.24-16.21,6.38.26-3.74,1.62-23.31,2.84-42.68,2.73-43.7,2.11-43.92,1.7-44.06a3.17,3.17,0,0,0-2.28.52c-.81.39-1.64.79-2.24.44-.84-.49-.27-3.8,0-5.19.55-.31,1.1-.56,1.64-.81a10.92,10.92,0,0,0,3.7-2.36,32.37,32.37,0,0,0,3.69-5.1c.59-.93,1.2-1.89,1.8-2.74l.12-.17q-2.67-22.08-5.35-44.12c4.32,7.39,7.42,21.23,9.3,29.66.94,4.2,1.41,6.24,1.76,6.8l.26.42.21-.54c.27-.73.67-2.68,1.28-5.63,1.74-8.42,4.92-23.76,9.88-34q-2.6,22.6-5.18,45.23l.09.14c.64,1,1.19,2,1.72,2.92a14.37,14.37,0,0,0,2.79,4.05c1.58,1.31,3.92,2.57,5.32,2.46l.13-.05c.51-.41.63-.15.67-.07.36.77-.11,3.4-.95,4.49-1.18,1.53-4.29.93-4.32.93l-.38-.08Q254.82,320.9,257.53,363.81Z" style="fill: #917b01"/>
    <path d="M230.06,287.46c-.41,9.07-.86,19.35-1.38,21.82l.54.18c.54-2.57,1-12.46,1.41-22,.34-7.61.69-15.47,1-16.59l-.53-.26C230.75,271.85,230.43,279.08,230.06,287.46Z" style="fill: #917b01"/>
    <path d="M231.51,307h.57c.28-4.59.84-35.86.85-36.18l-.57.05C232.35,271.23,231.79,302.48,231.51,307Z" style="fill: #917b01"/>
    <path d="M227.91,333.59c-.46,13.36-1,28.5-1.61,32.16l.56.12c.62-3.73,1.13-18.26,1.63-32.32.41-11.73.8-22.8,1.17-24.49l-.54-.19C228.72,310.66,228.35,321.29,227.91,333.59Z" style="fill: #917b01"/>
    <path d="M233.64,306.8l.57-.07q.07-17.85.14-35.72l-.57.06Q233.71,288.94,233.64,306.8Z" style="fill: #917b01"/>
    <path d="M229.6,362.48l.57,0c.33-6.73,1-52.77,1-53.23l-.57,0C230.58,309.75,229.93,355.77,229.6,362.48Z" style="fill: #917b01"/>
    <path d="M235.77,271c0,13.5.07,34-.13,35.09l.27.11-.25-.16.25.16.26.16c.28-.86.21-25.07.17-35.44Z" style="fill: #917b01"/>
    <path d="M232.08,362.19l.57-.07q.09-26.31.17-52.63l-.58.07Q232.17,335.87,232.08,362.19Z" style="fill: #917b01"/>
    <path d="M237.62,270.82c.1,1.55,0,19.15-.1,28.6,0,3.35-.05,5.8-.05,6.43l.58-.07c0-.62,0-3.08,0-6.41.08-10.14.2-27.1.1-28.7Z" style="fill: #917b01"/>
    <path d="M234.56,309.52c.06,20.08.08,50.44-.15,51.76l.53.23c.34-1.26.22-43.59.19-52.06Z" style="fill: #917b01"/>
    <path d="M236.7,309.29c.13,2.31,0,28.25-.11,42.18,0,4.92-.05,8.53-.05,9.45l.57-.07c0-.92,0-4.53,0-9.44.09-14.93.24-39.91.12-42.25Z" style="fill: #917b01"/>
    <path d="M238.85,310q.09,25.08.17,50.17l.57-.07q-.08-25.09-.17-50.17Z" style="fill: #917b01"/>
    <path d="M241.33,359.4l.57-.06q.09-25.23.17-50.45l-.57.06Q241.41,334.18,241.33,359.4Z" style="fill: #917b01"/>
    <path d="M243.48,359.17l.57-.06q.09-25.35.17-50.69l-.58.05Q243.57,333.82,243.48,359.17Z" style="fill: #917b01"/>
    <path d="M245.79,359.89l.58-.06q.07-24.49.16-49l-.57.06Q245.87,335.39,245.79,359.89Z" style="fill: #917b01"/>
    <path d="M247.78,310.23q.41,25,.82,50.11l.57-.08q-.4-25-.82-50.11Z" style="fill: #917b01"/>
    <path d="M239.46,271.22l.14,34.06.58-.07L240,271.15Z" style="fill: #917b01"/>
    <path d="M249.43,310.08l2,50L252,360l-2-50Z" style="fill: #917b01"/>
    <path d="M241.59,304.72l.58-.06q.06-17.12.14-34.25l-.57.06Z" style="fill: #917b01"/>
    <path d="M251.74,309.87q1.24,25.81,2.48,51.65l.57-.11q-1.23-25.83-2.48-51.65Z" style="fill: #917b01"/>
    <path d="M243.44,304.52l.57-.06.15-34.41-.58.06Q243.52,287.31,243.44,304.52Z" style="fill: #917b01"/>
    <path d="M245.43,305l.57-.06q.08-16.64.14-33.27l-.57.06Q245.5,288.34,245.43,305Z" style="fill: #917b01"/>
    <path d="M247.14,271.23q.35,17,.71,34l.57-.09q-.36-17-.71-34Z" style="fill: #917b01"/>
    <path d="M248.56,271.1q.85,16.95,1.7,33.91l.57-.12q-.86-17-1.7-33.91Z" style="fill: #917b01"/>
    <path d="M250.55,270.91l2.13,35,.57-.12-2.13-35Z" style="fill: #917b01"/>
    <path d="M260.68,244.16c-4.78-.34-20.87,11.56-20.87,11.62q-6.74-2.62-13.46-5.08s-5.22-3.09-7.18-2.15-4.12,7.61-4.12,7.61a9.54,9.54,0,0,1,4.12.64c2.61.79,19.82-.71,19.82-.64,0-.11,21.91-2.94,23-3.85a40.86,40.86,0,0,1,3.7-2.82S265.46,244.42,260.68,244.16Z" style="fill: #fed501;fill-rule: evenodd"/>
    <path d="M260.71,243.74c-4.67-.3-19.41,10.42-20.91,11.59q-6.66-2.58-13.33-5c-.21-.14-5.33-3.12-7.36-2.16s-4.23,7.58-4.32,7.87l-.21.63.46-.07a9.6,9.6,0,0,1,4,.63c2.62.8,19.2-.65,19.9-.63h0c3.67-.64,22-3,23.13-3.93a42.39,42.39,0,0,1,3.66-2.78l.19-.12,0-.3S265.67,244,260.71,243.74Zm-41.45,12.65a11.45,11.45,0,0,0-3.76-.68c.74-2.1,2.39-6.12,3.74-6.76,1.53-.73,5.55,1.29,7,2.16q6.19,2.26,12.39,4.66C236.17,255.88,221.6,257.12,219.26,256.39ZM261.84,252c-.79.66-12.36,2.2-21,3.51,3.36-2.48,15-10.57,19.36-10.89a3.22,3.22,0,0,1,.44,0,5,5,0,0,1,4.72,4.68A36.49,36.49,0,0,0,261.84,252Z" style="fill: #917b01"/>
    <path d="M218.42,259.19c-2.78,4.8,1,10.5,1,10.5s4.69-4.61,8.17-5.07,5.43,7.23,6.3,7.75,17.39-4.17,17.39-4.11,4.78-7.1,7.38-7a12.88,12.88,0,0,1,4.79,1.21s1.19-6.32-.76-8.71C260.76,251,221.2,254,218.42,259.19Z" style="fill: #fed501;fill-rule: evenodd"/>
    <path d="M240.88,253c-4.84.41-20.79,2.61-22.67,5.92-2.92,5,1,11,1,11.06l.15.23.2-.2s4.67-4.55,8-5c2.3-.31,3.93,3.28,5,5.66.56,1.23.86,1.87,1.17,2.06a1.71,1.71,0,0,0,.86,0c3.24-.43,14.25-3.48,16.69-4.1l.09,0,.07-.1c.05-.08,4.73-7,7.17-6.87a12.49,12.49,0,0,1,4.7,1.2l.3.15.08-.46c.05-.27,1.22-6.6-.84-9.13C261.78,252.06,250.72,252,240.88,253Zm22.39,8.92a12.86,12.86,0,0,0-4.55-1.09c-2.55-.14-6.91,6.1-7.54,7-6.27,1.64-16.38,4.38-17.13,4.1a7.71,7.71,0,0,1-.94-1.78c-1.14-2.53-2.87-6.35-5.49-6-3.13.42-7.13,4-8.1,4.94-.65-1.09-3.15-5.79-.89-9.7,1.13-1.93,9.86-4.34,22.25-5.59,12-1.2,20.89-.67,21.65.25C264,256,263.49,260.49,263.27,261.94Z" style="fill: #917b01"/>
    <path d="M257.69,260.66c-4.42.08-29.06,2.93-33.94,4-4.88.93-6.41,10.71-5.22,12.27s9.06-2.71,10.55-2.7q11.26,0,22.51.34c5.19.17,8.53-4.19,10.27-4.64S262.11,260.41,257.69,260.66Z" style="fill: #fed501;fill-rule: evenodd"/>
    <path d="M257.69,260.24c-4.32.08-29,2.92-33.95,4-2.34.44-4.33,3-5.34,6.91-.7,2.68-.73,5.25-.07,6.11h0c.82,1.07,3.75,0,7.5-1.52a15.56,15.56,0,0,1,3.23-1.09q11.25,0,22.51.34a8.81,8.81,0,0,0,1.16,0c3.07-.28,5.39-2,7.15-3.35a7.53,7.53,0,0,1,2-1.26c.65-.17,1-1.16,1-2.66C262.73,264.47,260.87,260.06,257.69,260.24Zm4.13,9.31a7.64,7.64,0,0,0-2.18,1.34c-1.91,1.44-4.52,3.41-8,3.29q-11.26-.39-22.51-.34h-.17a19.55,19.55,0,0,0-3.21,1.11c-2.52,1-6.32,2.55-7,1.67h0c-.41-.54-.43-2.77.2-5.22.44-1.7,1.8-5.73,4.83-6.31,4.93-1.11,29.6-3.94,33.92-4,3.07-.18,4.51,4.29,4.59,6.71C262.3,268.58,262.2,269.45,261.82,269.55Z" style="fill: #917b01"/>
    <path d="M260.58,256.63c-1.39-1-37.22,3.56-39.27,4.48-1.93.53-3.34,4.94-3.4,5.12.17.1.34.2.52.29,0,0,1.32-4.14,2.93-4.59,2.42-1,37.74-5.35,39-4.5,1,.46,2.4,3.38,2.86,4.46l.49-.47C263.66,261.26,262,257.27,260.58,256.63Z" style="fill: #917b01"/>
    <path d="M251.34,221.8c-2.39,3.06-10.65,18.53-10.65,18.55s-9.78-15-11.74-16.66-6.73.61-6.73.61a43.5,43.5,0,0,0,1.52,8.67c1.08,3,1.52,3.91,1.52,3.91q7.06,11.09,14.12,22.34c0-.05,13.91-22.43,15.87-25.4s3-12.95,3-12.95S253.73,218.71,251.34,221.8Z" style="fill: #fed501;fill-rule: evenodd"/>
    <path d="M251.15,221.49c-2.19,2.82-9.13,15.7-10.47,18.22-1.5-2.33-9.75-14.87-11.57-16.39-2-1.72-6.76.48-7,.58l-.25.12,0,.37a44.23,44.23,0,0,0,1.55,8.8c1.08,3,1.52,3.92,1.54,4q7.17,11.25,14.35,22.69l.22-.35c.14-.28,13.93-22.46,15.86-25.39,2-3.09,3.08-12.78,3.12-13.19l0-.34-.22-.1C258.2,220.37,253.64,218.27,251.15,221.49Zm3.9,12c-1.81,2.75-13.87,22.13-15.65,25.06q-7-11.09-13.91-22c-.07-.14-.52-1.13-1.5-3.85a41.17,41.17,0,0,1-1.46-8.16c1-.44,4.68-1.87,6.26-.53,1.91,1.57,11.59,16.42,11.68,16.59l.23.34.21-.4c.08-.17,8.27-15.49,10.61-18.49,1.94-2.5,5.52-1.3,6.45-.93C257.75,222.94,256.71,231,255.05,233.54Z" style="fill: #917b01"/>
    <path d="M240.69,207.66a7.55,7.55,0,0,0-2.61,6c.22,3.78.22,23.14.22,23.14l4.34,2.05s-.21-21.55,0-25.07A9.57,9.57,0,0,0,240.69,207.66Z" style="fill: #fed501;fill-rule: evenodd"/>
    <path d="M242.93,213.8a10,10,0,0,0-2.05-6.47l-.14-.17-.17.14a7.94,7.94,0,0,0-2.77,6.44c.21,3.72.21,22.91.21,23.11v.28l4.93,2.32v-.62C242.93,238.61,242.72,217.25,242.93,213.8Zm-.58,24.47c-1.25-.59-2.51-1.19-3.77-1.77,0-2.5,0-19.34-.21-22.9a7,7,0,0,1,2.27-5.42,9.11,9.11,0,0,1,1.72,5.61C242.16,217,242.32,234.64,242.35,238.27Z" style="fill: #917b01"/>
    <path d="M245.85,248.57c-10.23,1.09-23,3-24.23,2.89-1.8-.13-4.45,2-5.73,3.08a7.75,7.75,0,0,1-.62.49c0,.27.07.53.11.8a5,5,0,0,0,.75-.56c1.22-1,3.78-3.09,5.41-3,1.3.07,13.53-1.74,24.32-2.89,7.14-.8,13.88-1.38,14.51-1.33a22.27,22.27,0,0,1,5,1.74l.2-.8a22,22,0,0,0-5.1-1.77C259.77,247.2,253.63,247.71,245.85,248.57Z" style="fill: #917b01"/>
    <path d="M223.29,269.61c-2,1.11-3.08,3.26-4.2,5.55-.24.48-.48,1-.74,1.48l.44.46c.27-.5.51-1,.75-1.5,1.11-2.25,2.06-4.2,3.9-5.2,2.45-1.6,33.67-5.54,34.76-5,.81.29,2.95,3,3.7,4,.14-.21.27-.42.4-.63-.29-.39-2.84-3.78-3.93-4.18C257.35,264,225.93,267.9,223.29,269.61Z" style="fill: #917b01"/>
    <path d="M257.86,236.45C254.6,237.93,240.25,255,240.25,255S225,241,222,240.52s-6.74,2.6-6.74,2.6,5.41,4.57,7.8,6.78,17.13,21,17.13,21.06,14.78-19.83,16.74-23.42,7.88-9.1,7.88-9.09S261.12,234.91,257.86,236.45Z" style="fill: #fed501;fill-rule: evenodd"/>
    <path d="M257.78,236.05c-3.12,1.43-15.83,16.4-17.53,18.47-1.77-1.69-15.26-14-18.19-14.42-3.1-.52-6.76,2.53-6.92,2.66l-.45.38.41.35c.05,0,5.43,4.59,7.79,6.77h0c2.35,2.1,17,20.77,17.11,21l.18.24.2-.27c.6-.86,14.82-19.88,16.77-23.47s7.74-8.93,7.8-9l.39-.35c-.12-.12-.24-.24-.37-.35S261.14,234.47,257.78,236.05Zm-1.07,11.24c-1.8,3.31-14.74,20.67-16.5,23.1-1.8-2.36-14.72-18.82-17-20.85h0c-2-1.82-6-5.3-7.36-6.43,1.07-.79,3.79-2.56,6.08-2.17,2.95.42,18,14.26,18.15,14.46l.17.16.16-.21c.15-.21,14.34-17.06,17.51-18.5,2.5-1.18,5.32.8,6.33,1.62C262.88,239.77,258.39,244.13,256.71,247.29Z" style="fill: #917b01"/>
    <path d="M243.51,215.29c-1.08,3-2.39,25.64-2.39,25.64s-2.82-21.26-3.69-24.64-4.57-5.8-4.57-5.8a52.16,52.16,0,0,0-.65,9.29c.22,4.09,4.35,32.46,4.35,32.47,2,.08,4.06.16,6.08.26,0,0,5.44-30.4,6.09-33.95s-.44-9.48-.44-9.48S244.6,212.31,243.51,215.29Z" style="fill: #fed501;fill-rule: evenodd"/>
    <path d="M248.48,208.45l-.32.28c-.15.13-3.78,3.33-4.9,6.38-.87,2.39-1.85,16.56-2.24,22.85-.81-6-2.64-19.19-3.32-21.85-.9-3.5-4.55-5.91-4.7-6l-.32-.21-.09.53a50.62,50.62,0,0,0-.66,9.42c.21,4.07,4.18,31.35,4.35,32.52l0,.29q3.27.12,6.54.28l.06-.35c.05-.32,5.44-30.44,6.08-34s-.38-9.45-.43-9.69Zm0,10c-.6,3.3-5.41,30.18-6,33.6l-5.63-.24c-.44-3-4.1-28.33-4.3-32.13a49,49,0,0,1,.56-8.6c.9.67,3.43,2.72,4.1,5.35.85,3.32,3.65,24.37,3.68,24.58l.57-.1c.45-7.81,1.52-23.19,2.35-25.48s3.43-4.88,4.34-5.73C248.34,211.24,249,215.67,248.45,218.48Z" style="fill: #917b01"/>
    <path d="M256.72,240.82c-1.58,1-15,21-16.88,23.79-1.81-2.16-15.52-17.92-17.1-19.73a16,16,0,0,0-5-3.49l-.22.81a15.84,15.84,0,0,1,4.87,3.35c1.69,1.92,17.15,19.72,17.3,20l.2.23.19-.28c4.26-6.45,15.59-23,16.88-23.88,1.57-1.06,7.43-2.69,7.48-2.7l-.07-.82C264.09,238.11,258.35,239.71,256.72,240.82Z" style="fill: #917b01"/>
    <path d="M240.47,252.43s-10.65-14.61-12.82-18.09S219,233,219,233s1.74,3.23,2.82,5.3q9,12,18,24.33c0-.05,14.78-22.5,16.95-26.43s4.56-8.31,4.56-8.31-7.39,1.87-9.78,5.28S240.47,252.41,240.47,252.43Z" style="fill: #fed501;fill-rule: evenodd"/>
    <path d="M251.36,232.91c-2.2,3.12-9.55,16.42-10.9,18.9-1.54-2.14-10.62-14.61-12.59-17.77-2.25-3.65-8.68-1.52-9-1.42l-.48.17.29.52s1.73,3.23,2.82,5.29q9,12,18.07,24.38l.19.27.21-.31c.6-1,14.81-22.56,17-26.46s4.56-8.3,4.56-8.31l.47-.84-.72.18C261,227.57,253.79,229.44,251.36,232.91Zm5.19,3.07c-2,3.63-14.94,23.31-16.73,26.09q-8.91-12.16-17.82-24c-.81-1.55-2-3.73-2.52-4.74,1.53-.42,6.24-1.43,8,1.34,2.15,3.46,12.73,17.94,12.84,18.12l.22.3.2-.37c.09-.18,8.71-15.87,11.06-19.19,1.86-2.65,7-4.39,8.88-5C259.82,230,258.13,233.07,256.55,236Z" style="fill: #917b01"/>
    <path d="M240,257q-10-12.51-20-24.68l-.39.66q10.1,12.28,20.2,24.92l.2.25q9.54-14.61,19.07-28.94l-.4-.56Q249.38,242.65,240,257Z" style="fill: #917b01"/>
    <path d="M240.91,235.56s-7.61-15.3-9.35-17.92-4.78-1.28-4.78-1.27a14.71,14.71,0,0,0,1.09,6.83c1.52,3.88,13.25,22.14,13.25,22.18s9.13-18.74,10.87-23.33a32.18,32.18,0,0,0,1.95-8.74s-3.47.95-5,3.32S240.91,235.55,240.91,235.56Z" style="fill: #fed501;fill-rule: evenodd"/>
    <path d="M248.74,216.36c-1.38,2.15-6.66,15.42-7.85,18.43-1.35-2.73-7.54-15.08-9.12-17.46-1.82-2.77-4.92-1.43-5.05-1.36l-.18.08,0,.26a15.07,15.07,0,0,0,1.12,7.12c1.51,3.88,12.81,21.46,13.29,22.25l.23.36.21-.44c.37-.78,9.16-18.81,10.89-23.36a32.66,32.66,0,0,0,2-8.93l0-.51-.35.1C253.76,212.93,250.32,213.9,248.74,216.36Zm3,5.51c-1.56,4.12-9.25,20-10.63,22.84-1.66-2.63-11.62-18.23-13-21.74a15.22,15.22,0,0,1-1.09-6.28,3.6,3.6,0,0,1,4.32,1.26c1.7,2.56,9.24,17.71,9.32,17.88l.25.51.23-.59c.07-.17,6.52-16.55,8-18.84a9,9,0,0,1,4.46-3.07A32.54,32.54,0,0,1,251.74,221.87Z" style="fill: #917b01"/>
    <path d="M240.68,239q-6.62-11.26-13.24-22.38l-.45.58q6.85,11.51,13.7,23.16,6.52-13.32,13.05-26.49l-.46-.47Q247,226.16,240.68,239Z" style="fill: #917b01"/>
    <path d="M240.29,208.09q.14,15.51.25,31l.57-.07L240.87,208Z" style="fill: #917b01"/>
    <path d="M241,240.31l-7.6-29.42-.54.36Q236.92,227,241,242.83q3.66-16.34,7.32-32.62l-.54-.21Q244.38,225.14,241,240.31Z" style="fill: #917b01"/>
    <path d="M240.26,250.74q-8.5-13.28-17-26.3l-.44.61q8.72,13.35,17.44,27,8.75-15.47,17.51-30.66l-.43-.51Q248.81,235.66,240.26,250.74Z" style="fill: #917b01"/>
    <path d="M228.08,296.16,227,312.49q13.58-1.85,27.16-3.05l-.87-16.1Q240.69,294.48,228.08,296.16Z" style="fill: #fed501;fill-rule: evenodd"/>
    <path d="M227.82,295.78,226.68,313q13.89-1.89,27.79-3.12-.45-8.46-.91-16.94Q240.69,294.06,227.82,295.78ZM227.31,312q.52-7.74,1-15.49,12.35-1.64,24.69-2.76.41,7.64.82,15.27Q240.59,310.25,227.31,312Z" style="fill: #917b01"/>
    <path d="M239.68,310.94l.23.74q6.94-5.25,13.89-10.34l-.24-.74Q246.63,305.7,239.68,310.94Z" style="fill: #917b01"/>
    <path d="M227.44,304.75c.09.24.18.47.26.71q5.7-5.11,11.41-10.11l-.27-.71Q233.14,299.65,227.44,304.75Z" style="fill: #917b01"/>
    <path d="M309.2,274.66c1.31-1.59,1.81-6.44,0-5.09-1.34,0-3.62-1.42-5.17-2.82s-2.69-4.46-4.45-7.26q2.68-23.15,5.35-46.27c-7.16,13.05-10.85,37.42-11.89,40.12-1.14-1.91-5.09-28-11.74-38.55q2.76,22.92,5.51,45.86c-1.81,2.44-3.64,5.65-5.45,7.33s-3.61,1.82-5.41,2.74c0,0-1.27,5,0,5.89s3.26-1.12,4.57-.55-4.78,86.55-4.78,86.56,10.65-5.64,17.82-5.18,16.51,4.16,16.51,4.17q-2.71-43.16-5.43-86.27S307.9,276.25,309.2,274.66Z" style="fill: #fed501;fill-rule: evenodd"/>
    <path d="M309.39,275c1-1.25,1.6-4.28,1.06-5.51a.81.81,0,0,0-1.34-.32c-1.3,0-3.51-1.44-5-2.76a15.38,15.38,0,0,1-2.64-4.08c-.51-1-1-2-1.65-3q2.65-23,5.32-46.06l-.5-.33c-5.43,9.9-8.84,26.1-10.68,34.81-.43,2-.77,3.66-1,4.62-.34-1.13-.84-3.42-1.41-6-2-9.1-5.34-24.32-10.1-31.9l-.49.38q2.75,22.8,5.48,45.63c-.57.77-1.15,1.63-1.71,2.46a29.14,29.14,0,0,1-3.57,4.66,9.41,9.41,0,0,1-3.53,1.94,17.36,17.36,0,0,0-1.83.76l-.13.07-.05.19c-.14.55-1.31,5.4.18,6.4.78.53,1.72.16,2.63-.2a3.11,3.11,0,0,1,1.88-.36c.66,3.16-2.54,53-4.89,86.16l0,.65.42-.23c.1-.07,10.67-5.6,17.71-5.16S309.9,362,310,362l.4.16Q307.67,319,305,275.84C305.88,276,308.25,276.37,309.39,275Zm.36,86.07c-1.87-.73-9.89-3.67-16.18-4-.42,0-.85,0-1.29,0-6.22.18-14.3,4-16.21,5,.26-3.72,1.62-23.16,2.83-42.44,2.74-43.46,2.12-43.73,1.71-43.91a3.14,3.14,0,0,0-2.28.32c-.81.32-1.65.65-2.25.25-.83-.56-.26-3.82.06-5.18a16.15,16.15,0,0,1,1.64-.67,9.84,9.84,0,0,0,3.7-2.05,28.85,28.85,0,0,0,3.69-4.78c.59-.88,1.2-1.79,1.8-2.59l.12-.16q-2.68-22.31-5.36-44.57c4.33,7.76,7.42,21.85,9.31,30.44.94,4.27,1.4,6.35,1.76,6.94.08.15.17.3.26.45l.2-.52c.27-.71.68-2.63,1.29-5.54,1.74-8.27,4.92-23.35,9.88-33.19q-2.6,22.4-5.18,44.81l.09.15c.63,1,1.18,2.05,1.71,3.06a16.16,16.16,0,0,0,2.8,4.28c1.58,1.43,3.91,2.88,5.32,2.88l.13-.05c.51-.37.63-.1.67,0a6.25,6.25,0,0,1-1,4.41c-1.18,1.45-4.29.59-4.32.59l-.38-.11Z" style="fill: #917b01"/>
    <path d="M282.27,282.45c-.4,9-.86,19.28-1.38,21.7l.55.23c.54-2.52,1-12.37,1.41-21.9.33-7.58.68-15.41,1-16.5l-.53-.3C283,266.9,282.65,274.11,282.27,282.45Z" style="fill: #917b01"/>
    <path d="M283.72,302.15l.57.05c.29-4.56.85-35.79.86-36.1h-.58C284.57,266.42,284,297.62,283.72,302.15Z" style="fill: #917b01"/>
    <path d="M280.13,328.4c-.47,13.32-1,28.42-1.61,32l.56.17c.62-3.68,1.13-18.17,1.62-32.18.42-11.69.81-22.74,1.18-24.39l-.55-.24C280.94,305.54,280.56,316.13,280.13,328.4Z" style="fill: #917b01"/>
    <path d="M285.85,302.1l.58,0q.06-17.86.14-35.72l-.57,0Z" style="fill: #917b01"/>
    <path d="M281.82,357.43l.57,0c.32-6.71,1-52.69,1-53.15h-.57C282.8,304.79,282.14,350.75,281.82,357.43Z" style="fill: #917b01"/>
    <path d="M288,266.47c.06,13.51.07,34-.12,35.08l.52.31c.29-.83.22-25,.18-35.41Z" style="fill: #917b01"/>
    <path d="M284.29,357.35l.58,0q.08-26.29.16-52.61l-.57,0Q284.37,331,284.29,357.35Z" style="fill: #917b01"/>
    <path d="M289.83,266.45c.11,1.56,0,19.15-.1,28.59,0,3.35,0,5.8,0,6.43l.57,0c0-.63,0-3.08.05-6.41.07-10.13.2-27.09.09-28.69Z" style="fill: #917b01"/>
    <path d="M286.77,304.89c.07,20.09.08,50.45-.15,51.75l.54.27c.33-1.23.21-43.57.19-52Z" style="fill: #917b01"/>
    <path d="M288.92,304.84c.12,2.32,0,28.25-.11,42.17,0,4.92-.05,8.53-.05,9.45l.57,0c0-.92,0-4.53.05-9.44.09-14.92.24-39.89.11-42.24Z" style="fill: #917b01"/>
    <path d="M291.07,305.71q.07,25.1.16,50.18l.58,0q-.09-25.1-.17-50.18Z" style="fill: #917b01"/>
    <path d="M293.55,355.34h.57q.09-25.23.17-50.44h-.58Q293.64,330.12,293.55,355.34Z" style="fill: #917b01"/>
    <path d="M295.7,355.28h.57q.08-25.33.16-50.68h-.57Q295.78,329.94,295.7,355.28Z" style="fill: #917b01"/>
    <path d="M298,356.19h.57l.17-49h-.58Q298.1,331.69,298,356.19Z" style="fill: #917b01"/>
    <path d="M300,306.69q.42,25.1.83,50.18l.57,0q-.4-25.08-.82-50.18Z" style="fill: #917b01"/>
    <path d="M291.68,267q.07,17,.14,34.07l.57,0q-.06-17-.14-34.07Z" style="fill: #917b01"/>
    <path d="M301.65,306.68l2,50.16.57-.06-2-50.16Z" style="fill: #917b01"/>
    <path d="M293.81,300.68h.57l.15-34.24H294Q293.88,283.56,293.81,300.68Z" style="fill: #917b01"/>
    <path d="M304,306.65q1.23,25.92,2.48,51.85l.57-.06q-1.25-25.93-2.48-51.86Z" style="fill: #917b01"/>
    <path d="M295.66,300.63h.57q.07-17.21.14-34.4h-.57Q295.73,283.42,295.66,300.63Z" style="fill: #917b01"/>
    <path d="M297.65,301.24h.57q.07-16.62.14-33.25h-.57Q297.72,284.62,297.65,301.24Z" style="fill: #917b01"/>
    <path d="M299.35,267.64q.36,17,.71,34.06l.57,0q-.35-17-.71-34.06Z" style="fill: #917b01"/>
    <path d="M300.77,267.63l1.71,34,.57-.07-1.71-34Z" style="fill: #917b01"/>
    <path d="M302.76,267.6l2.13,35.19.58-.08q-1.08-17.59-2.14-35.19Z" style="fill: #917b01"/>
    <path d="M312.9,241.65c-4.78-.7-20.87,9.89-20.87,9.94q-6.73-3.18-13.47-6.22s-5.21-3.53-7.17-2.77-4.13,7.25-4.13,7.25a10.15,10.15,0,0,1,4.13,1c2.61,1,19.82,1,19.82,1.06,0-.11,21.9-1.17,23-2a35.63,35.63,0,0,1,3.7-2.53S317.68,242.28,312.9,241.65Z" style="fill: #fed501;fill-rule: evenodd"/>
    <path d="M312.92,241.23c-4.65-.65-19.4,8.87-20.91,9.91Q285.35,248,278.69,245c-.22-.15-5.33-3.59-7.36-2.79s-4.23,7.21-4.32,7.49l-.21.61.46,0a10.08,10.08,0,0,1,4,1c2.62,1,19.19,1,19.9,1.06h0c3.67-.31,22-1.18,23.14-2.06a33.67,33.67,0,0,1,3.66-2.5l.18-.11v-.3S317.89,241.89,312.92,241.23Zm-41.44,9.22a12.22,12.22,0,0,0-3.76-1c.74-2,2.38-5.91,3.73-6.43,1.52-.6,5.56,1.77,7,2.76q6.19,2.8,12.39,5.71C288.39,251.4,273.82,251.39,271.48,250.45Zm42.58-.91c-.79.6-12.36,1.24-21,1.83,3.36-2.21,15-9.36,19.37-9.33a3.1,3.1,0,0,1,.44,0,5.49,5.49,0,0,1,4.71,5.05A32.5,32.5,0,0,0,314.06,249.54Z" style="fill: #917b01"/>
    <path d="M270.64,253.18c-2.78,4.55,1,10.58,1,10.59s4.69-4.2,8.17-4.37,5.43,7.69,6.3,8.29S303.52,265,303.52,265s4.78-6.72,7.39-6.41a14.11,14.11,0,0,1,4.78,1.58s1.2-6.22-.76-8.76C313,248.53,273.42,248.25,270.64,253.18Z" style="fill: #fed501;fill-rule: evenodd"/>
    <path d="M293.1,248.92c-4.84,0-20.79.85-22.67,4-2.92,4.78,1,11.08,1,11.15l.16.24.2-.18c.05,0,4.67-4.14,8-4.3,2.3-.11,3.92,3.62,5,6.09a6.21,6.21,0,0,0,1.17,2.16,1.74,1.74,0,0,0,.85.08c3.24-.15,14.26-2.3,16.7-2.72l.09,0,.07-.1c0-.07,4.71-6.56,7.17-6.29a13.86,13.86,0,0,1,4.7,1.55l.29.18.09-.45c0-.26,1.22-6.5-.85-9.19C314,249.64,302.94,248.72,293.1,248.92Zm22.39,10.71a14,14,0,0,0-4.55-1.45c-2.58-.31-6.92,5.56-7.54,6.43-6.27,1.15-16.38,3.05-17.13,2.7a8,8,0,0,1-.94-1.86c-1.15-2.63-2.88-6.59-5.49-6.47-3.14.15-7.14,3.42-8.1,4.25-.65-1.16-3.16-6.07-.89-9.78,1.12-1.83,9.85-3.47,22.24-3.7,12-.2,20.89,1,21.65,2C316.25,253.7,315.71,258.2,315.49,259.63Z" style="fill: #917b01"/>
    <path d="M309.91,257.91c-4.43-.24-29.06.57-33.94,1.23s-6.42,10.15-5.22,11.82,9.06-1.93,10.55-1.79q11.25.91,22.51,2.2c5.19.59,8.53-3.51,10.26-3.83S314.33,258,309.91,257.91Z" style="fill: #fed501;fill-rule: evenodd"/>
    <path d="M309.91,257.49c-4.33-.23-29,.57-34,1.23-2.34.24-4.34,2.66-5.34,6.45-.7,2.62-.73,5.18-.07,6.1.82,1.15,3.75.31,7.5-.87a14.5,14.5,0,0,1,3.22-.81q11.26.9,22.52,2.19a7.65,7.65,0,0,0,1.16.06c3.06,0,5.39-1.6,7.14-2.78a6.86,6.86,0,0,1,2-1.11c.65-.12,1-1.08.95-2.59C315,262.12,313.09,257.56,309.91,257.49Zm4.13,9.63a7,7,0,0,0-2.18,1.18c-1.91,1.29-4.52,3.06-8,2.65q-11.26-1.27-22.52-2.2h-.17a17.7,17.7,0,0,0-3.2.84c-2.52.78-6.32,2-7,1.06h0c-.42-.58-.44-2.82.2-5.21.44-1.66,1.8-5.57,4.83-5.88,4.93-.67,29.6-1.47,33.92-1.23,3.07.07,4.5,4.65,4.59,7.08C314.52,266.19,314.42,267.06,314,267.12Z" style="fill: #917b01"/>
    <path d="M312.8,254.11c-1.39-1-37.22.55-39.27,1.24-1.93.37-3.34,4.65-3.4,4.83l.51.33s1.33-4,2.94-4.33c2.42-.76,37.74-2.19,39-1.29,1,.54,2.4,3.57,2.86,4.69l.49-.43C315.87,259,314.17,254.86,312.8,254.11Z" style="fill: #917b01"/>
    <path d="M303.55,218.55c-2.39,2.87-10.65,17.67-10.65,17.68s-9.77-15.85-11.73-17.64-6.74,0-6.74,0a46.12,46.12,0,0,0,1.52,8.8c1.09,3.12,1.53,4.05,1.53,4.05q7,11.68,14.12,23.52s13.91-21.28,15.86-24.11,3.05-12.71,3.05-12.71S305.94,215.65,303.55,218.55Z" style="fill: #fed501;fill-rule: evenodd"/>
    <path d="M303.37,218.23c-2.2,2.64-9.13,15-10.47,17.36-1.5-2.45-9.75-15.68-11.57-17.36-2-1.89-6.76-.09-7,0l-.25.09,0,.37a45.32,45.32,0,0,0,1.55,8.94c1.08,3.1,1.52,4,1.54,4.09q7.17,11.88,14.35,23.91l.22-.34c.14-.25,13.93-21.31,15.86-24.11s3.07-12.53,3.12-12.94l0-.33-.22-.12C310.42,217.67,305.86,215.21,303.37,218.23Zm3.89,12.36c-1.8,2.61-13.86,21-15.65,23.78q-6.94-11.66-13.9-23.17c-.07-.14-.52-1.17-1.5-4a43.12,43.12,0,0,1-1.46-8.28c1-.35,4.68-1.46,6.26,0,1.9,1.73,11.58,17.39,11.68,17.56l.22.37.22-.39c.08-.16,8.26-14.81,10.6-17.62,1.95-2.35,5.53-.87,6.45-.42C310,220.2,308.93,228.14,307.26,230.59Z" style="fill: #917b01"/>
    <path d="M292.9,203.55a6.85,6.85,0,0,0-2.6,5.79c.21,3.8.21,23.16.21,23.16l4.35,2.41s-.22-21.58,0-25.07A10.23,10.23,0,0,0,292.9,203.55Z" style="fill: #fed501;fill-rule: evenodd"/>
    <path d="M295.15,209.87a10.82,10.82,0,0,0-2-6.64l-.14-.18-.17.12a7.25,7.25,0,0,0-2.78,6.21c.22,3.74.22,22.93.22,23.13v.28l4.92,2.73v-.63C295.15,234.68,294.93,213.3,295.15,209.87Zm-.58,24.42-3.77-2.08c0-2.5,0-19.35-.22-22.91a6.49,6.49,0,0,1,2.27-5.24,9.66,9.66,0,0,1,1.73,5.75C294.38,213,294.53,230.65,294.57,234.29Z" style="fill: #917b01"/>
    <path d="M298.09,244.88c-10.24.25-23,1-24.25.85-1.81-.28-4.46,1.64-5.73,2.58-.28.2-.56.4-.63.43l.12.81a4.16,4.16,0,0,0,.74-.5c1.23-.89,3.79-2.75,5.41-2.49,1.31.19,13.55-.57,24.35-.85,7.12-.21,13.86-.26,14.48-.16a24.39,24.39,0,0,1,5,2.12l.2-.78a24.12,24.12,0,0,0-5.11-2.17C312,244.62,305.86,244.65,298.09,244.88Z" style="fill: #917b01"/>
    <path d="M275.51,264c-2,.94-3.09,3-4.2,5.18-.24.47-.48.95-.74,1.42l.44.5c.26-.48.51-1,.75-1.43,1.1-2.16,2.05-4,3.9-4.87,2.45-1.35,33.66-2.71,34.76-2.09.81.36,2.95,3.21,3.7,4.28l.4-.59c-.29-.41-2.84-4-3.93-4.49C309.57,261.27,278.15,262.58,275.51,264Z" style="fill: #917b01"/>
    <path d="M310.07,233.72c-3.26,1.23-17.6,17.12-17.6,17.17s-15.21-15.35-18.25-16.07-6.74,2-6.74,2,5.4,5,7.79,7.46,17.14,22.46,17.14,22.51,14.78-18.62,16.73-22.07,7.89-8.48,7.89-8.47S313.33,232.43,310.07,233.72Z" style="fill: #fed501;fill-rule: evenodd"/>
    <path d="M310,233.32c-3.12,1.19-15.84,15.12-17.53,17.05-1.77-1.83-15.27-15.26-18.19-16-3.11-.8-6.77,1.93-6.92,2.05l-.45.34.41.38c.05,0,5.42,5.08,7.79,7.46s17,22.22,17.1,22.47l.19.25.2-.25c.6-.81,14.82-18.67,16.77-22.12s7.74-8.32,7.8-8.37l.39-.32-.37-.38C317,235.76,313.35,232,310,233.32Zm-1.08,11.15c-1.79,3.17-14.74,19.49-16.5,21.76-1.79-2.5-14.72-20.05-17-22.28-2-2-6-5.83-7.37-7.07,1.08-.7,3.8-2.23,6.09-1.65,2.95.69,18,15.8,18.14,16l.17.17.17-.18c.14-.2,14.34-15.9,17.51-17.1,2.5-1,5.32,1.22,6.33,2.12C315.1,237.43,310.61,241.44,308.92,244.47Z" style="fill: #917b01"/>
    <path d="M295.73,211.4c-1.09,2.89-2.39,25.45-2.39,25.45s-2.83-21.49-3.69-24.95-4.57-6.18-4.57-6.18a50.12,50.12,0,0,0-.65,9.23c.22,4.12,4.35,32.84,4.35,32.84l6.08.76s5.43-30,6.09-33.45-.44-9.51-.44-9.51S296.82,208.52,295.73,211.4Z" style="fill: #fed501;fill-rule: evenodd"/>
    <path d="M300.7,205l-.32.25c-.16.12-3.79,3-4.9,6-.87,2.31-1.85,16.4-2.24,22.66-.81-6-2.64-19.4-3.33-22.12-.89-3.58-4.54-6.29-4.69-6.4l-.33-.24-.09.52a51.72,51.72,0,0,0-.66,9.37c.22,4.09,4.19,31.71,4.36,32.89l0,.29c2.18.26,4.36.54,6.53.82l.07-.35c.05-.3,5.44-30,6.08-33.45s-.39-9.48-.43-9.72Zm0,10c-.61,3.26-5.41,29.75-6,33.12-1.88-.25-3.76-.48-5.64-.71-.43-3.06-4.09-28.67-4.29-32.49a48.21,48.21,0,0,1,.55-8.55c.91.74,3.43,3,4.11,5.69.85,3.39,3.65,24.67,3.68,24.89l.56-.06c.45-7.77,1.52-23.06,2.36-25.28s3.43-4.6,4.34-5.38C300.56,207.75,301.18,212.23,300.67,215Z" style="fill: #917b01"/>
    <path d="M308.93,238c-1.57.89-15,19.76-16.87,22.42-1.81-2.3-15.52-19.22-17.1-21.18a18,18,0,0,0-5-3.92l-.21.79a17.76,17.76,0,0,1,4.87,3.78c1.69,2.07,17.14,21.17,17.3,21.42l.2.25.18-.27c4.26-6.09,15.6-21.78,16.89-22.52,1.57-.93,7.42-2.11,7.48-2.11,0-.28-.05-.55-.08-.83C316.31,235.87,310.57,237,308.93,238Z" style="fill: #917b01"/>
    <path d="M292.69,248.3S282,232.8,279.87,229.12s-8.7-2.06-8.7-2.05,1.74,3.38,2.83,5.54q9,12.81,18,25.86s14.77-21.29,16.95-25.06,4.56-7.95,4.56-7.95-7.39,1.29-9.78,4.51S292.69,248.28,292.69,248.3Z" style="fill: #fed501;fill-rule: evenodd"/>
    <path d="M303.58,229.66c-2.2,2.94-9.55,15.65-10.91,18-1.53-2.26-10.61-15.5-12.58-18.83-2.25-3.85-8.68-2.27-8.95-2.2l-.48.13c.09.18.19.36.28.55,0,0,1.74,3.38,2.83,5.54q9,12.82,18.06,25.9l.2.29.21-.29c.6-.92,14.81-21.35,17-25.09s4.56-8,4.56-8c.15-.27.31-.54.47-.81l-.72.13C313.21,225.09,306,226.39,303.58,229.66Zm5.19,3.48c-2,3.48-14.94,22.11-16.73,24.74q-8.91-12.88-17.82-25.55c-.81-1.62-2-3.9-2.52-5,1.53-.3,6.23-.9,7.95,2,2.15,3.65,12.73,19,12.83,19.2l.22.32.21-.36c.08-.16,8.7-15.15,11-18.28,1.86-2.5,7-3.85,8.89-4.26C312,227.42,310.35,230.36,308.77,233.14Z" style="fill: #917b01"/>
    <path d="M292.25,252.81q-10-13.34-20-26.39l-.39.64q10.09,13.16,20.2,26.64l.2.27q9.53-13.84,19.07-27.41l-.4-.6Q301.58,239.27,292.25,252.81Z" style="fill: #917b01"/>
    <path d="M293.12,231.47s-7.6-15.94-9.34-18.71a4.08,4.08,0,0,0-4.78-1.68,15.09,15.09,0,0,0,1.08,6.93c1.52,4,13.26,23.26,13.26,23.29s9.13-18,10.87-22.44a31.22,31.22,0,0,0,2-8.59s-3.48.67-5,2.92S293.12,231.46,293.12,231.47Z" style="fill: #fed501;fill-rule: evenodd"/>
    <path d="M301,212.9c-1.38,2-6.67,14.88-7.85,17.79-1.36-2.84-7.55-15.71-9.12-18.22a4.26,4.26,0,0,0-5.05-1.8l-.18.07,0,.26a15.62,15.62,0,0,0,1.11,7.22c1.52,4,12.81,22.54,13.29,23.36l.24.38.21-.42c.37-.75,9.16-18.06,10.88-22.48a31.41,31.41,0,0,0,2-8.76l0-.51-.34.06C306,209.88,302.53,210.57,301,212.9Zm3,5.75c-1.57,4-9.25,19.23-10.64,22-1.65-2.77-11.61-19.21-13-22.83a15.45,15.45,0,0,1-1.09-6.37,3.8,3.8,0,0,1,4.31,1.62c1.71,2.71,9.25,18.49,9.33,18.66s.16.35.25.53l.23-.57c.06-.16,6.52-16,8-18.19,1.15-1.7,3.55-2.47,4.46-2.71A30.89,30.89,0,0,1,304,218.65Z" style="fill: #917b01"/>
    <path d="M292.9,234.92q-6.63-11.82-13.25-23.5l-.44.55q6.85,12.08,13.7,24.31,6.52-12.78,13-25.44l-.45-.5Q299.2,222.57,292.9,234.92Z" style="fill: #917b01"/>
    <path d="M292.51,203.94q.12,15.52.25,31.06l.57,0q-.12-15.54-.25-31.07Z" style="fill: #917b01"/>
    <path d="M293.19,236.21q-3.79-15-7.59-30l-.54.31q4.08,16.1,8.16,32.26,3.66-16,7.32-32l-.54-.26Z" style="fill: #917b01"/>
    <path d="M292.47,246.59q-8.49-14-17-27.74l-.43.58q8.71,14.1,17.43,28.42,8.76-14.73,17.52-29.24c-.15-.18-.29-.36-.43-.55Q301,232.22,292.47,246.59Z" style="fill: #917b01"/>
    <path d="M280.3,291q-.54,8.13-1.09,16.24,13.59-.68,27.17-.8l-.87-16.18Q292.91,290.39,280.3,291Z" style="fill: #fed501;fill-rule: evenodd"/>
    <path d="M280,290.58l-1.14,17.08q13.89-.71,27.79-.83-.46-8.5-.92-17Q292.91,290,280,290.58Zm-.51,16.21q.51-7.71,1-15.4,12.35-.58,24.68-.73.42,7.68.83,15.34Q292.8,306.14,279.53,306.79Z" style="fill: #917b01"/>
    <path d="M291.9,306.75l.23.75q6.94-4.67,13.88-9.21c-.07-.25-.15-.51-.23-.76Q298.83,302.08,291.9,306.75Z" style="fill: #917b01"/>
    <path d="M279.66,299.52c.08.25.17.49.26.73q5.7-4.62,11.4-9.14l-.26-.74Q285.36,294.9,279.66,299.52Z" style="fill: #917b01"/>
    <path d="M142.75,213.84c63.56-19,127.13-25.12,190.69-23.43V71.91c-63.56-1.7-127.13,4.44-190.69,23.43Z" style="fill: #fdd401;fill-rule: evenodd"/>
    <path d="M295.89,171h0c-1.57.73-2.66,2.22-2.44,3.3s1.68,1.37,3.25.63h0c1.58-.74,2.67-2.2,2.45-3.29S297.46,170.3,295.89,171Z" style="fill: #0139ab;fill-rule: evenodd"/>
    <path d="M304.38,174c-.75-.28-1.7,1.38-2.11,3.71v0c-.41,2.33-.13,4.45.62,4.73s1.7-1.38,2.11-3.71v0C305.41,176.4,305.14,174.28,304.38,174Z" style="fill: #0139ab;fill-rule: evenodd"/>
    <path d="M315.53,173.81h0c-1.48-1.05-2.95-1.07-3.3-.05s.58,2.7,2.06,3.75h0c1.48,1.05,3,1.09,3.3.07S317,174.87,315.53,173.81Z" style="fill: #0139ab;fill-rule: evenodd"/>
    <path d="M295.84,160.94h0c-1.64.2-2.93,1.29-2.88,2.42s1.42,1.89,3.06,1.7h0c1.64-.19,2.93-1.27,2.89-2.4S297.48,160.74,295.84,160.94Z" style="fill: #0139ab;fill-rule: evenodd"/>
    <path d="M235.72,157.76h0c-1.61-.28-3,.42-3.2,1.55s1,2.28,2.63,2.56h0c1.61.28,3-.4,3.2-1.53S237.33,158.05,235.72,157.76Z" style="fill: #0139ab;fill-rule: evenodd"/>
    <path d="M231.19,166.56h0c-1.59.76-2.74,2.27-2.56,3.36s1.62,1.33,3.22.57h0c1.6-.77,2.75-2.26,2.57-3.35S232.79,165.79,231.19,166.56Z" style="fill: #0139ab;fill-rule: evenodd"/>
    <path d="M244.27,179c-.78.07-1.48,2.08-1.56,4.49v0c-.08,2.41.48,4.31,1.26,4.24s1.48-2.08,1.56-4.49v0C245.61,180.78,245.05,178.89,244.27,179Z" style="fill: #0139ab;fill-rule: evenodd"/>
    <path d="M233.43,176.69v0c-1.13,1.89-1.59,4-1,4.71s1.94-.24,3.06-2.12v0c1.13-1.88,1.59-4,1-4.7S234.56,174.81,233.43,176.69Z" style="fill: #0139ab;fill-rule: evenodd"/>
    <path d="M172.32,99c-.74-.19-1.75,1.61-2.27,4v0c-.52,2.41-.34,4.51.4,4.69s1.76-1.61,2.28-4v0C173.24,101.24,173.06,99.14,172.32,99Z" style="fill: #0139ab;fill-rule: evenodd"/>
    <path d="M164.71,99.29c-.67-2-1.8-3.14-2.51-2.49s-.74,2.81-.07,4.82v0c.67,2,1.79,3.13,2.51,2.49s.74-2.8.07-4.83Z" style="fill: #0139ab;fill-rule: evenodd"/>
    <path d="M153.38,124.14h0c-1.65.48-3,1.8-3,2.93s1.34,1.67,3,1.19h0c1.64-.48,3-1.77,3-2.91S155,123.66,153.38,124.14Z" style="fill: #0139ab;fill-rule: evenodd"/>
    <path d="M155.12,104.31h0c-1.54-.44-3,.14-3.29,1.28s.74,2.41,2.27,2.84h0c1.54.43,3-.13,3.3-1.27S156.66,104.75,155.12,104.31Z" style="fill: #0139ab;fill-rule: evenodd"/>
    <path d="M156.91,173.43h0c-1.64.51-3,1.85-2.94,3s1.37,1.63,3,1.12h0c1.64-.51,3-1.83,2.94-3S158.55,172.92,156.91,173.43Z" style="fill: #0139ab;fill-rule: evenodd"/>
    <path d="M153.82,187.13v0c-1.36,1.73-2.1,3.8-1.67,4.62s1.9.08,3.25-1.64v0c1.36-1.72,2.11-3.78,1.67-4.61S155.18,185.4,153.82,187.13Z" style="fill: #0139ab;fill-rule: evenodd"/>
    <path d="M161.14,191.55c-.73-.2-1.78,1.59-2.35,4v0c-.56,2.41-.43,4.52.31,4.72s1.78-1.59,2.34-4v0C162,193.87,161.87,191.76,161.14,191.55Z" style="fill: #0139ab;fill-rule: evenodd"/>
    <path d="M168.2,193.26c-.78.18-1.41,2.28-1.41,4.68v0c0,2.41.63,4.2,1.41,4s1.41-2.28,1.41-4.68v0C169.61,194.87,169,193.07,168.2,193.26Z" style="fill: #0139ab;fill-rule: evenodd"/>
    <path d="M296.84,107.8l0,.11Z" style="fill: #d4170f;fill-rule: evenodd"/>
    <path d="M320.6,101c0,.07-6.61-10.42-28.75-12.26C269.71,87.07,253.18,110.13,234,110c-17.19-.63-9.59-16.6-1-16.28,5.29.28,13.55,3.74,17.52,3.38s10.58-7.2,11.9-14.54c0,0-15.53-.14-17.85,1.62s-2.64,6.56-5,6.82-10.24.26-12.22,1-6.28,4.74-6.28,9.57S222,114.48,234,113.4c12.72-1.22,34.37-14.9,34.37-14.83l.33,4.8s4.95-8.52,7.6-9.14,5.29,1.67,4.29,3.64a37.33,37.33,0,0,1-2,3.48s5.95-2.7,5.95-5.59-1.32-3.32-1.32-3.32,3.63.33,5-.2,2.64,2.33,2,4.28-2,4.89-2,4.89,5.94-2.6,5.28-5a16.1,16.1,0,0,1-.66-3.84s5.29-1.59,6.28.81-2,13.31-2.28,14.41c.25-.92,2.24-7.77,6.25-9.18,4.29-1.5,6.61-3,9.25-.55s11.57,7.78,11.24,14.54c0,3.39-4,6.21-10.25,6.69s-26.77-6.5-41.31-5.52-21.15,5.47-30.4,7.42c-9.26,1.24-58.5,8.84-58.5,9.49,0,0-12.23-3.53-14.54-9.19s3-13.76,3-13.75l-2-1.94-2.31,3s2-7.74-2-6.75-3.63,8.18-3.63,8.17-2.64-6.55-4.3-6.59-2.64,8.44-2.64,8.44,4.63,1.16,4.3,4.64-5.95,5-5.95,5-.33,6.36,1,7.45,4-4.94,5.29-4.81,1,15.67,1,15.67l2-3.9.33,13.43,2-7.26.33,14.87q3.65-4.53,7.27-9l-3.3,16.73q2.31-3.95,4.63-7.87v9.65q12.56-6.82,25.11-13c-.88,2.42-1.76,4.83-2.64,7.26,0,0-6.61,9.46-13.55,11.94s-12.23,4.74-15.53,5.07-6.61-7.48-7.93-6.65,1,5-.34,7.81-6.6,6.14-4.95,7.14,7.27-1,7.27,1.42-3.64,6.75-1,8,5.95-7.32,6.61-5.55-.66,6.44,2,5.78,2.64-5.94,2.64-5.95q6.45,1.35,12.89,2.86l-3-6.59s4.29,2.92,6.28,3.48a13.27,13.27,0,0,0,5,0l-4-6.92q4.29,2.49,8.59,5.05l-2-7.34q3.63,2.43,7.27,4.92L201,178.77s3,3.32,5.29,2.92,3.63-3.51,3.63-3.51l-2.31-4a10.78,10.78,0,0,0,5.95,1.92c3.3,0,8.59-4.21,8.59-4.2-2.09-.66-4.19-1.32-6.28-2,2-1.27,4-2.53,5.95-3.78-1-.83-2-1.65-3-2.46l4.3-11.25s1.65.23,7.6-1,24.79-21.64,32.72-21.65c7.93-.16,22.47,21.32,29.08,20.69s18.84-2.26,18.84-2.24l-3,8.7a24.77,24.77,0,0,0-1,6.77c-2.09-.47-4.18-.92-6.27-1.37,0,0,.33-1.94-2.32-1.88s-1.32,7.26-1.32,7.26-2,4.88-.33,5.32,4-3.46,5.29-1.55-.66,5.8,1.32,6.25,1-7.25,3.63-6.79,4,5.28,5.62,4.8,2.32-4.83,2.32-4.83a5.09,5.09,0,0,1-2.32-3.86c0-2.41,2.65-8.69,4.3-8.68s1.32,4.84,1.32,4.84l1.65-5.3,2,1c-.89-2.42-1.77-4.85-2.65-7.27,1.88.34,3.75.68,5.62,1l-3.3-5.36,3.63-.43s-2.64-2-2.64-4.86a41.27,41.27,0,0,1,1-7.23s-7.27,3.75-14.87.9-17.19-16.1-17.19-16.09,17.52,3.93,22.47,3.53,11.24-.87,12.23-6.64-5.95-21.81-5.95-21.8Z" style="fill: #d4170f;fill-rule: evenodd"/>
    <path d="M282.6,156.18c-2-2.84-12.56-7.07-12.89-11.37S276,129.47,276,129.48c-2.32.44-27.76,3.41-28.75,17.67-1,14.07,10.24,11.09,10.24,11.12l-.33,4.85s-7.27,2.56-11.57,3-4-6.81-6.28-7.52-3,5.66-3,5.66l-3.64.93.33,5.26,2.32,1.65.33,3.82,2,4.11,3-2.76,1,6.17a6.7,6.7,0,0,1,2.31-2.18c1.32-.63,2.31,2.17,2.31,2.17s-.33-6.25,3.64-7.12,6.61,5.67,6.61,5.67v-6.75l3.63,5c.22-2.43.45-4.86.67-7.29l4.29,5.95,1-6.34c.77.91,1.55,1.82,2.32,2.74V169q3.63,2.41,7.27,4.87l1-6.33c2,.7,4,1.4,6,2.12-.66-.94-1.32-1.87-2-2.8l6.28-.27S284.58,159,282.6,156.18Z" style="fill: #d4170f;fill-rule: evenodd"/>
    <path d="M187.54,161.44l.54-1.39S187.85,160.59,187.54,161.44Z" style="fill: #d4170f;fill-rule: evenodd"/>
    <path d="M207.91,116.25q-9.25.38-18.51,1c-1.32.22-14.21,20.91-15.86,24.73s-.66,8.84-.66,8.84q2.81-4.77,5.61-9.5a37.12,37.12,0,0,0-1.65,9.06,39.68,39.68,0,0,0,1,8q1.48-5.66,3-11.29V166q2.15-5.07,4.29-10.11l-2.64,18.91q2.53-6.66,5.08-13.31c.31-.85.54-1.4.54-1.39l-.54,1.39c-.78,2.22-2.07,6.63-1.11,9.57,1.32,4.06,2.31,4.83,2.31,4.83l2.64-16.47s-.33,9.72,1,12.83a10.83,10.83,0,0,0,3.64,4.6s.33-6.34.66-11.22A28.88,28.88,0,0,0,196,157s3,5.23,2.64,8.67-1.32,8-1.32,8,3.64-6,4.3-10.44c.06-.45.1-.87.13-1.29-.53-3.2-.79-6.8-.79-6.8a18.33,18.33,0,0,1,.79,6.8,14.91,14.91,0,0,0,1.19,4.43,35.89,35.89,0,0,0,3.64,4.67V154.61s.33,9.11,2,11.24,5,1.6,5,1.6a43.39,43.39,0,0,1-3-12.06c-.33-5.74.66-8.32.66-8.32s1,7.56,1.32,10.41,1,6.11,1,6.11.66-8.31,1-11.74a17,17,0,0,0-.33-5.74s3,6.29,2.31,8.33a6.52,6.52,0,0,0,0,3.86s1.65-8.94,1.65-12.8a16.63,16.63,0,0,0-1.65-7q2.15,4,4.3,8s1.32-8.4-.66-15.83S207.91,116.23,207.91,116.25Z" style="fill: #d4170f;fill-rule: evenodd"/>
    <path d="M201,155.12s.26,3.6.79,6.8A18.33,18.33,0,0,0,201,155.12Z" style="fill: #d4170f;fill-rule: evenodd"/>
    <path d="M208.16,115.58q-9.36.33-18.72,1h0c-1.71.3-14.83,21.79-16.27,25.13-1.77,4-.78,9.26-.74,9.48.08.38.15.77.23,1.16l4.47-7.57a28.22,28.22,0,0,0-.75,5.77,40.28,40.28,0,0,0,1,8.21l.42,1.77q1.28-4.78,2.53-9.57v17.47l3.78-8.91Q183,167.1,182,174.71l.92.33,2.72-7.13a9.7,9.7,0,0,0,.36,3.49c1.34,4.13,2.38,5,2.49,5.1l.6.46q.91-5.76,1.85-11.51c.1,2.72.38,5.67,1,7.2a11.27,11.27,0,0,0,3.82,4.84l.69.44.06-1.17c0-.06.33-6.38.66-11.21a32.35,32.35,0,0,0,0-4.77,12.08,12.08,0,0,1,1,4.89c-.32,3.34-1.29,7.8-1.3,7.84l.83.59a40.81,40.81,0,0,0,4.11-9.29,8,8,0,0,0,.76,2.06,36.38,36.38,0,0,0,3.7,4.76c.28.29.55.59.83.89v-9a8.15,8.15,0,0,0,1.12,2.92c1.78,2.29,5.17,1.77,5.32,1.75l.86-.13c-.14-.35-.29-.69-.43-1a42.84,42.84,0,0,1-2.91-11.78,32.18,32.18,0,0,1,.06-5c.32,2.43.74,5.72.93,7.39.33,2.85,1,6,1,6.19l1-.27c0-.09.67-8.34,1-11.72.07-.75.1-1.44.1-2.08.71,1.95,1.15,3.73.94,4.38a7.56,7.56,0,0,0,0,4.51c.2.54.39,1.08.58,1.61.12-.62.24-1.25.35-1.88.07-.37,1.67-9.08,1.67-13a15.55,15.55,0,0,0-.11-1.84l2.49,4.67c.09-.54.17-1.07.25-1.6.06-.35,1.34-8.71-.68-16.25S208.58,115.84,208.16,115.58Zm12.35,29.18-3.6-6.74-.82,1a15.71,15.71,0,0,1,1.56,6.57,55.74,55.74,0,0,1-.68,6.82,30.17,30.17,0,0,0-2.36-6.74l-.89.81a15.86,15.86,0,0,1,.3,5.37c-.18,1.85-.45,5.14-.67,7.77-.12-.76-.23-1.56-.32-2.32-.33-2.85-1.33-10.42-1.33-10.42l-.24-1.86c-.22.59-.45,1.18-.68,1.77,0,.11-1.07,2.86-.73,8.76a42,42,0,0,0,2.61,11.24,4.67,4.67,0,0,1-3.74-1.49c-1.24-1.61-1.74-8.34-1.83-10.8l-1,.21v14.78a30.66,30.66,0,0,1-2.74-3.65,14.43,14.43,0,0,1-1.07-4,19,19,0,0,0-.85-7.13l-.95.58c0,.57.29,3.83.79,6.83,0,.34-.07.67-.12,1a26.85,26.85,0,0,1-2.68,7.35c.26-1.48.54-3.24.69-4.8.36-3.7-2.61-9-2.74-9.19l-.87.86a27.88,27.88,0,0,1,.63,8.24c-.24,3.54-.48,7.88-.59,10a10.63,10.63,0,0,1-2.77-3.83c-1.23-2.9-.93-12.35-.93-12.44h-1l-2.43,15.11a20.51,20.51,0,0,1-1.59-3.8c-.86-2.64.35-6.77,1.09-8.88l.54-1.39-.84-.63c0,.09-.29.68-.61,1.59l-3.51,9.17,2-14.58-.9-.37-3.38,7.95V147l-1-.06c-.8,3.06-1.61,6.13-2.42,9.19a35,35,0,0,1-.58-5.83,36.43,36.43,0,0,1,1.6-8.72l-.8-.66-4.95,8.37a14.72,14.72,0,0,1,.75-6.94c1.62-3.72,13.9-23.37,15.47-24.32q9.18-.69,18.34-1c1,.69,10.12,7.29,11.92,14.05A41.71,41.71,0,0,1,220.51,144.76Z" style="fill: #fed501"/>
    <path d="M208.57,98.29l-1.65-6.48-3.31,4.44-1-2.72-1.32,2.65-1.65-5.49c-.78,2.08-1.55,4.15-2.32,6.23l-3.63-3.16L193,99.2l-3-1.34-.33,4.9s-5-4.29-6.61-3.92,1.65,8.81,1.65,8.81-3.63,5.13-3.63,10.44,2.31,6.25,2.31,6.26l-1.32,9.93,2.31-2.43.33,9.59c.77-1.78,1.55-3.55,2.32-5.32l1,9,2.31-3.85v9.17c.77-1.6,1.54-3.21,2.32-4.81l1.32,4.57,2-5.69,2,4.45q.82-2.58,1.66-5.14l4,.73-.66-2.78,2.64,0-1-7.55,2.65,4.85.33-6.33,3,2.4s2-12.88,2-20.6-1.65-11.79-1.65-11.79c1.1-2.6,2.21-5.19,3.31-7.78Z" style="fill: #d4170f;fill-rule: evenodd"/>
    <path d="M208.88,97.34c-.58-2.26-1.15-4.52-1.73-6.78l-3.37,4.52-1.06-2.92-1.29,2.58L199.72,89l-2.54,6.84-3.83-3.33-.69,5.68-3-1.36c-.1,1.55-.21,3.09-.31,4.64-1.49-1.22-4.77-3.72-6.2-3.4a1.17,1.17,0,0,0-.79.8c-.66,1.73.92,6.35,1.82,8.7-.92,1.42-3.51,5.89-3.51,10.59,0,4.47,1.53,6.11,2.25,6.64l-1.47,11,2.56-2.69c.12,3.5.25,7,.37,10.51q1.22-2.81,2.44-5.6.47,4.29,1,8.6c.72-1.2,1.43-2.4,2.15-3.59v9.54l2.67-5.56c.47,1.6.93,3.2,1.4,4.81l2.07-5.95q1,2.24,2,4.49.94-2.93,1.88-5.85l4.47.83c-.24-1-.47-2-.7-2.94l2.53,0c-.23-1.8-.47-3.59-.71-5.39q1.08,2,2.14,3.92c.12-2.36.25-4.71.37-7.07l2.87,2.31.16-1.06c.08-.53,2-13,2-20.76a37.53,37.53,0,0,0-1.58-11.76l3.91-9.18C213.21,94.77,211,96,208.88,97.34Zm1.56,5.81s1.59,4,1.59,11.45A165.73,165.73,0,0,1,210.22,134l-3.08-2.48c-.09,1.87-.19,3.73-.29,5.59L205,133.7l-.9.72L205,141l-2.76,0,.63,2.62-3.47-.63c-.48,1.47-.95,3-1.43,4.43L196,143l-1.89,5.43c-.42-1.44-.84-2.88-1.25-4.32q-1,2-2,4.06v-8.81l-2.47,4.12c-.34-3.11-.69-6.22-1-9.33l-2.19,5-.3-8.65-2.06,2.17q.58-4.45,1.18-8.91l-.37-.16c-.08,0-2-.93-2-5.65,0-4.89,3.42-9.78,3.45-9.83l.32-.45-.19-.48c-1.33-3.4-2.28-7-2.1-7.65,1.08-.24,4.45,2.22,6.31,3.84l.71.61c.12-1.72.23-3.44.35-5.16l2.92,1.31c.22-1.73.43-3.47.64-5.2l3.43,3q1.05-2.8,2.09-5.61l1.59,5.28,1.36-2.73.92,2.52,3.24-4.36c.53,2.06,1,4.12,1.58,6.18L213,96.41l-2.7,6.38Z" style="fill: #fed501"/>
    <path d="M200.92,128.93c-2.58.88-3.47-3.08-3.51-3.25l-.18-.86c-.17.23-.33.46-.5.68,0,0-3.49,4.8-5.9,4.42-1.07-.18-1.37-2.63-1.64-4.79-.23-1.93-.44-3.6-1.16-4.12a.91.91,0,0,0-1.06,0l.23,1.16c.21-.13.31-.09.37,0,.4.28.6,1.91.78,3.35.31,2.53.66,5.4,2.27,5.66,2.26.36,5.08-2.82,6.18-4.2.54,1.64,1.76,3.66,3.76,3.3a3.74,3.74,0,0,0,.45-.12c3.24-1.12,4.93-11.07,5-11.5l-.83-.16C204.74,121.15,203.12,128.17,200.92,128.93Z" style="fill: #fed501"/>
    <path d="M199.45,120.43a2.18,2.18,0,0,0-2.95-2.15c-1.61.39-2.37,1.14-2.38,2.84s1.88,1.76,1.75,5.8-3.5,11-3.5,11a8.07,8.07,0,0,1,2.8-.18c1.66.16,1.5,3.2,1.5,3.2s.56-3.48,1.22-4.09,2.75-.51,2.75-.51S197,131.24,197,126.9,199.52,122,199.45,120.43Z" style="fill: #fed501;fill-rule: evenodd"/>
    <path d="M196.46,129.44c-.78.14-1.41,2.2-1.41,4.61v0c0,2.4.63,4.23,1.41,4.08s1.41-2.2,1.41-4.6v0C197.88,131.12,197.24,129.29,196.46,129.44Z" style="fill: #0139ab;fill-rule: evenodd"/>
    <path d="M190.72,108.35c-.13,1.67,1,7,3,6.16s2.27-7.13,2.27-7.13C194.32,109.72,193,109.34,190.72,108.35Zm3.77,2.74a1.81,1.81,0,0,1-1.11,1.83c-.6.12-1.1-.51-1.1-1.4a1.82,1.82,0,0,1,1.1-1.83C194,109.57,194.49,110.2,194.49,111.09Z" style="fill: #fed501;fill-rule: evenodd"/>
    <path d="M199.63,107.07c0,.76.25,5.84,2.23,6s3.06-6.48,2.93-8.1C202.5,106.79,201.28,108.79,199.63,107.07Zm2.54,4.25c-.61.11-1.1-.52-1.1-1.41a1.77,1.77,0,0,1,1.1-1.81c.61-.11,1.11.52,1.11,1.41A1.77,1.77,0,0,1,202.17,111.32Z" style="fill: #fed501;fill-rule: evenodd"/>
    <path d="M242.49,139.06,241.11,137c-.43,1.08-.85,2.16-1.27,3.24l-1.62.19-.12.36a24.15,24.15,0,0,1-1,2.39c-.14.08-.77-.68-1.23-1.65l-.42-.9-.33,1.06s-.42,1.35-.83,2.61c0-.58,0-1.24,0-1.85l.11-2.17-2.61,5.49L230.43,143c-.07.47-.13.95-.2,1.42,0,.25-.26,1.87-.4,3.2-.27-.65-.6-1.51-.88-2.29-.13-.35-.25-.71-.38-1.07l-.39,1.18c0,.1-.68,2.09-1.05,3.54-.23-.64-.51-1.63-.73-2.51l-.28-1.16-.48,1.12c0,.07-.75,1.74-1.16,3-.25,0-1-1-1.56-2.11l-.5-1c-.08.42-.17.83-.26,1.24-.35,1.63-.92,4.11-1.32,5.52-.08-.8-.15-2-.17-3l-.82-.11c-.89,3.1-2.62,9.11-2.81,9.7l.77.44c.17-.51,1.34-4.58,2.12-7.3.18,2.13.46,2.23.65,2.29s.37.08.61-.39a44.42,44.42,0,0,0,1.53-5.72c.51.83,1.18,1.76,1.8,1.63a.92.92,0,0,0,.62-.66c.23-.61.51-1.31.75-1.88.76,2.76,1.13,2.68,1.35,2.66s.4-.12.52-.74.52-2,.82-3c1.12,3,1.35,2.86,1.64,2.72.06,0,.37-.2.37-.81s.15-1.86.29-3l1,1.9,1.59-3.34c0,2.13.24,2.21.46,2.29s.42,0,.65-.58c.31-.83.76-2.21,1.06-3.15.39.65.94,1.37,1.49,1.32a1.07,1.07,0,0,0,.74-.65c.42-.91.73-1.72.89-2.17l1.57-.18.93-2.37,1.32,1.95c.43-.91.86-1.82,1.28-2.73l-.69-.66Z" style="fill: #fed501"/>
    <path d="M264.68,151.18l0,1.26c5.36-.57,5.78-3.46,5.81-3.8l-.85-.14S269.27,150.7,264.68,151.18Z" style="fill: #fed501"/>
    <path d="M268.91,153.58c0,.41.09.82.13,1.23a6,6,0,0,0,3.47-2.8l-.7-.68A5.12,5.12,0,0,1,268.91,153.58Z" style="fill: #fed501"/>
    <path d="M272.14,155.34c0,.41,0,.83,0,1.25a3.8,3.8,0,0,0,3-1.7,3.19,3.19,0,0,0,.44-1.68l-.86.13C274.79,153.41,274.79,155,272.14,155.34Z" style="fill: #fed501"/>
    <path d="M277.86,154.69a2.72,2.72,0,0,1-.26,1.58c-.31.45-.93.56-1.79.3-.06.41-.13.82-.2,1.23a3.17,3.17,0,0,0,1.13.16,1.8,1.8,0,0,0,1.46-.82,4.4,4.4,0,0,0,.5-2.74Z" style="fill: #fed501"/>
    <path d="M277.88,160.2c0,.42.05.83.07,1.25,1.54-.25,2.13-2.53,2.23-3.7l-.85-.12C279.32,157.73,279.1,160,277.88,160.2Z" style="fill: #fed501"/>
    <path d="M293.39,129.37l.15,1.23c2.42-.71,2.89-.6,3-.57a.51.51,0,0,1-.2-.38.61.61,0,0,1,.1-.43c.17.33.33.67.5,1a1,1,0,0,0,.22-.95C297,128.72,296.61,128.43,293.39,129.37Z" style="fill: #fed501"/>
    <path d="M295.7,132.34c0,.41,0,.83-.05,1.25h.24c2,0,3.25-2.38,3.31-2.48l-.68-.75S297.42,132.43,295.7,132.34Z" style="fill: #fed501"/>
    <path d="M298,134.43l.1,1.25a3.33,3.33,0,0,0,2.7-2.7l-.84-.25A2.26,2.26,0,0,1,298,134.43Z" style="fill: #fed501"/>
    <path d="M300.76,136.17l.11,1.24a3.15,3.15,0,0,0,2.57-2.5l-.84-.27A2.13,2.13,0,0,1,300.76,136.17Z" style="fill: #fed501"/>
    <path d="M304.49,136.52a.48.48,0,0,1,0-.16s-.1.58-1.47,1.42l.33,1.16a3.87,3.87,0,0,0,2-2.19,1.52,1.52,0,0,0,0-.89Z" style="fill: #fed501"/>
    <path d="M252.53,89.64s4.33-2.91,4.71-2.32-.84,4.24-.34,3.83a15,15,0,0,0,4-7.2C253.66,83.19,252.53,89.64,252.53,89.64Z" style="fill: #fed501;fill-rule: evenodd"/>
    <path d="M240.12,419.29c73-42.28,89.27-44.36,89.27-57.15V77.74c-60.87-1.3-121.73,4.67-182.59,22.33v284.4C146.8,397.36,167.09,393.25,240.12,419.29Z" style="fill: #feffff;fill-rule: evenodd"/>
    <path d="M138.69,386.9c.39,28.6,28.4,17.9,101.43,44.24,73-42.49,97.38-38.27,97.38-68.79V66.1C271.23,64,205,70.27,138.69,90.64Zm8.11-286.83c60.86-17.66,121.72-23.63,182.59-22.33v284.4c0,12.79-16.23,14.87-89.27,57.15-73-26-93.32-21.93-93.32-34.82Z" style="fill: #feffff;fill-rule: evenodd"/>
  </g>
</svg>
