<svg xmlns="http://www.w3.org/2000/svg" viewBox="0 0 1260 1012.04">
  <g>
    <path d="M0,90.08v920C420,738.76,840,1193.28,1260,922V2C840,273.28,420-181.24,0,90.08Z" style="fill: #fff;fill-rule: evenodd"/>
    <path d="M900,90.63v920c120,7.12,240-11.14,360-88.66V2C1140,79.49,1020,97.75,900,90.63Z" style="fill: #0738ac;fill-rule: evenodd"/>
    <path d="M0,90.08v920c120-77.52,240-95.79,360-88.66V1.42C240-5.71,120,12.56,0,90.08Z" style="fill: #187b01;fill-rule: evenodd"/>
    <path d="M531.09,418c66.19,13,132.38,28.89,198.57,41.89V341.41c-66.19-13-132.38-28.86-198.57-41.89Z" style="fill: #fff;fill-rule: evenodd"/>
    <polygon points="629.41 690.59 629.41 690.59 629.41 690.59 629.41 690.59" style="fill: #0738ac;fill-rule: evenodd"/>
    <path d="M619.31,686.7c4.84,3.44,7.48,5.57,10.49,6.28a156.92,156.92,0,0,1-27.45-21.46A189.11,189.11,0,0,0,619.31,686.7Z" style="fill: #0738ac;fill-rule: evenodd"/>
    <path d="M538,563.3c7.66,27.61,20.72,52.77,36.07,74.46A283.56,283.56,0,0,1,538,563.3Z" style="fill: #0738ac;fill-rule: evenodd"/>
    <path d="M630,691.73l-.62-1.14c.2.81.39,1.62.59,2.43h.06c.17-.61.33-1.23.5-1.84Z" style="fill: #0738ac;fill-rule: evenodd"/>
    <path d="M637.89,692.21a100.17,100.17,0,0,0,20.19-8.85,90.47,90.47,0,0,1-27.81,9.7C632.32,693.43,634.6,693.17,637.89,692.21Z" style="fill: #0738ac;fill-rule: evenodd"/>
    <path d="M530.72,510.44v.2a195.29,195.29,0,0,0,6.82,51c.25-.8.5-1.6.74-2.4-.3-1.39-.61-2.79-.91-4.19Q554.2,498.25,571,441.66q29.51,116.32,59,233,29.51-103.68,59-207.52Q705.94,531,722.84,594.65c-.34,1.21-.67,2.42-1,3.64.22.81.45,1.63.67,2.45a166.32,166.32,0,0,0,6.56-38.56c.23-3.88.21-7.82.21-11.75V459.77c-66.19-13-132.37-28.87-198.55-41.89Z" style="fill: #0738ac;fill-rule: evenodd"/>
    <path d="M686.78,661.1a142,142,0,0,0,22-28.7,145,145,0,0,0,12.89-28.87C713.21,626.34,701.17,646,686.78,661.1Z" style="fill: #0738ac;fill-rule: evenodd"/>
    <path d="M643.54,488.42c-.78-18-5.19-28.49,0-45.06l-5.93-1.1c-5.76,15-.55,27.78.14,45.11,1.19,17.65-5,32.16-2.93,49.75,3,19.32,3.81,29.54.36,47.66-2.79,15,2.05,39.05,3.64,55.56q2.14-7.3,4.28-14.61h0c-1.93-14-4.13-26.23-1.92-39.74,3.55-22.13,2.94-24.35-.29-47.65C638.69,520.8,644.71,505.7,643.54,488.42Z" style="fill: #fff;fill-rule: evenodd"/>
    <path d="M637.59,440.92h0l-.54-.1c-.09.22-.17.43-.25.65l.79-.55Z" style="fill: #fff"/>
    <polygon points="639.99 538.39 639.99 538.39 639.99 538.39 639.99 538.39 639.99 538.39" style="fill: #fff"/>
    <path d="M640,538.42v0h0Z" style="fill: #fff"/>
    <path d="M642.23,444.22l-.06.23,1.4.25h0l-.87-2.05C642.54,443.17,642.39,443.7,642.23,444.22Z" style="fill: #fff"/>
    <path d="M638.19,443.71l4,.74.06-.23c.16-.52.31-1.05.47-1.57l.87,2.05c0-.89,0-1.79-.05-2.69l-5.93-1.09h0l-.79.55h0l1.63,1.59Z" style="fill: #fff"/>
    <path d="M637.59,440.92h0l-.79.55h0Z" style="fill: #fff"/>
    <path d="M638,639.65l1.77.7c-.06-.53-.11-1.06-.16-1.59l-.18-1.62c-.06-.56-.13-1.11-.19-1.66v0L638,639.65Z" style="fill: #fff"/>
    <polygon points="638.67 487.43 638.67 487.43 638.67 487.43 638.67 487.43" style="fill: #fff"/>
    <polygon points="640.28 585.5 640.28 585.5 640.28 585.5 640.28 585.5" style="fill: #fff"/>
    <path d="M638.4,645.37c.43-1.44.85-2.89,1.28-4.34l-1.76-.7Z" style="fill: #fff"/>
    <path d="M634.28,584.32l0-.07h0Z" style="fill: #fff"/>
    <polygon points="642.08 586.48 642.08 586.48 642.08 586.48 642.08 586.48" style="fill: #fff"/>
    <polygon points="639.99 538.39 639.99 538.39 639.99 538.39 639.99 538.39" style="fill: #fff"/>
    <path d="M644.07,626.06l-.06-.41c0,.25,0,.51,0,.76Z" style="fill: #fff"/>
    <polygon points="634.3 584.25 634.3 584.25 634.3 584.24 634.3 584.25" style="fill: #fff"/>
    <polygon points="643.57 444.7 643.57 444.7 643.57 444.7 643.57 444.7" style="fill: #fff"/>
    <path d="M633.93,537.2h0v0Z" style="fill: #fff"/>
    <path d="M645,442.28l-1.43-.27.87,2.06C644.58,443.47,644.77,442.87,645,442.28Z" style="fill: #fff"/>
    <path d="M636.84,487.26v0Z" style="fill: #fff"/>
    <path d="M633.93,537.21v0h0Z" style="fill: #fff"/>
    <polygon points="636.08 585.32 636.08 585.31 636.08 585.31 636.08 585.32" style="fill: #fff"/>
    <path d="M640.28,585.5c-.06.43-.13.86-.2,1.29s-.11.86-.17,1.29l-.15,1.28-.12,1.28c0,.42-.07.84-.1,1.27s-.06.84-.08,1.26l-.06,1.26c0,.42,0,.84,0,1.26s0,.83,0,1.25v1.25c0,.42,0,.83,0,1.25l0,1.24c0,.41,0,.83.05,1.24s0,.83.07,1.24,0,.83.08,1.24l.09,1.24c0,.41.07.82.1,1.24l.12,1.24c0,.41.08.82.13,1.24s.09.82.13,1.24l.15,1.24.15,1.24c0,.42.1.84.16,1.25s.11.84.16,1.26.11.83.17,1.25.12.84.17,1.26l.18,1.27.18,1.27.18,1.28.18,1.29c.07.43.13.86.19,1.29l.12.9.11-.36,1.75.61c-.06-.44-.12-.87-.19-1.31l-.18-1.3-.18-1.29-.18-1.28-.18-1.26-.18-1.26c0-.42-.11-.84-.17-1.26s-.11-.82-.17-1.24-.11-.82-.16-1.23-.1-.82-.16-1.23l-.15-1.23c0-.4-.09-.81-.14-1.21s-.08-.81-.13-1.22l-.12-1.2-.11-1.21c0-.4-.07-.8-.1-1.2l-.09-1.19c0-.4,0-.8-.08-1.2l-.06-1.19c0-.4,0-.8,0-1.19l0-1.2c0-.39,0-.79,0-1.19v-1.19c0-.4,0-.8,0-1.19l0-1.2.06-1.2c0-.4.05-.8.08-1.2l.09-1.21.12-1.21c0-.41.09-.81.14-1.22s.11-.82.17-1.22l.18-1.23v0h0Z" style="fill: #fff"/>
    <path d="M638.19,443.71l.24-.65-1.63-1.59c.27.72.55,1.43.83,2.14Z" style="fill: #fff"/>
    <path d="M640.28,585.5h0l1.79,1h0l-1.79-1Z" style="fill: #fff"/>
    <path d="M642.15,625.4l.06.4,1.8-.15h0l-1.75-.61Z" style="fill: #fff"/>
    <path d="M642.07,586.49h0v0Z" style="fill: #fff"/>
    <path d="M642.21,625.8l-.06-.4q-1.47,5-2.95,10.06v0c.06.55.13,1.1.19,1.66l.18,1.62c0,.53.1,1.06.16,1.59l-1.77-.7h0l1.71,1.38q2.15-7.31,4.28-14.62c0-.25,0-.51,0-.76h0Z" style="fill: #fff"/>
    <path d="M642,457.8c0-.43,0-.85,0-1.28l.1-1.3c0-.43.08-.87.13-1.3s.11-.89.16-1.33l.21-1.35c.08-.46.17-.92.25-1.38s.2-.93.29-1.4.23-.95.35-1.43l.39-1.46.45-1.5-.87-2.06c0,.9,0,1.8.05,2.69h0l-1.4-.25c-.12.44-.24.87-.35,1.31s-.25,1-.37,1.52-.21,1-.31,1.49l-.27,1.46c-.07.48-.15,1-.22,1.44l-.18,1.43c0,.47-.09.93-.14,1.4s-.06.93-.1,1.39l-.06,1.38,0,1.36V460l0,1.34c0,.45,0,.9.05,1.34l.08,1.33.09,1.33.12,1.33c0,.45.08.89.13,1.34s.09.89.14,1.33l.15,1.35c.05.45.1.9.16,1.35s.1.91.16,1.37.11.92.16,1.38.12.93.17,1.4.11.94.16,1.41l.16,1.45c.05.48.1,1,.16,1.46s.09,1,.14,1.5.08,1,.13,1.53l.12,1.56c0,.53.06,1.06.1,1.59s.05,1.1.08,1.64l1.83.23v0h0c0-.56-.05-1.13-.08-1.69s-.07-1.1-.11-1.65l-.12-1.6c0-.53-.09-1.05-.13-1.57l-.15-1.54-.15-1.49c-.06-.49-.11-1-.16-1.47l-.17-1.43c0-.47-.11-.94-.17-1.41s-.11-.92-.16-1.38-.11-.91-.17-1.37l-.15-1.33-.15-1.32c-.05-.44-.09-.87-.14-1.31l-.12-1.29c0-.43-.08-.86-.11-1.28l-.09-1.27c0-.43,0-.85-.08-1.27s0-.84,0-1.27,0-.84,0-1.26v-1.27Z" style="fill: #fff"/>
    <path d="M642.63,488.31h0l1.83.23h0Z" style="fill: #fff"/>
    <path d="M642.63,488.31h0v.05c0,.52.06,1,.08,1.56s0,1,0,1.56,0,1,0,1.55,0,1,0,1.54,0,1,0,1.53-.06,1-.08,1.53l-.11,1.53-.12,1.52c0,.5-.1,1-.14,1.52s-.11,1-.17,1.52-.11,1-.17,1.51-.13,1-.19,1.52-.13,1-.19,1.52-.14,1-.2,1.52l-.21,1.52c-.07.51-.14,1-.2,1.53s-.14,1-.2,1.53-.14,1-.2,1.53-.13,1-.19,1.54l-.18,1.55c0,.52-.1,1-.16,1.55s-.1,1-.14,1.56l-.13,1.58c0,.52-.07,1.05-.1,1.58s0,1.06-.08,1.59,0,1.07,0,1.61,0,1.08,0,1.62,0,1.09,0,1.63l.06,1.65c0,.55.07,1.11.1,1.66s.09,1.12.14,1.68.13,1.13.19,1.69h0l1.8-.1h0v0h0c-.06-.52-.11-1-.17-1.56s-.09-1.05-.13-1.58-.07-1-.1-1.56,0-1,0-1.55,0-1,0-1.54,0-1,0-1.54,0-1,0-1.53,0-1,.08-1.53.06-1,.1-1.53l.12-1.52c.05-.5.09-1,.14-1.52l.16-1.51c.06-.51.12-1,.17-1.52s.13-1,.19-1.52.13-1,.19-1.51.14-1,.2-1.52l.21-1.52c.06-.51.13-1,.2-1.53s.14-1,.2-1.53l.2-1.53c.06-.52.13-1,.19-1.54l.18-1.55c.05-.52.11-1,.16-1.55l.15-1.57c0-.52.09-1.05.13-1.57s.07-1.06.11-1.58l.08-1.6c0-.53,0-1.07.05-1.61s0-1.08,0-1.61,0-1.09,0-1.64,0-1.1-.05-1.65l-.09-1.61-1.83-.23Zm0,0v0h0Z" style="fill: #fff"/>
    <path d="M642.63,488.31v.05h0Z" style="fill: #fff"/>
    <path d="M641.79,538.29h0v0Z" style="fill: #fff"/>
    <path d="M640,538.42h0v0h0v0l.3,2.12c.09.67.18,1.34.28,2s.17,1.27.26,1.9.17,1.19.25,1.79.15,1.14.23,1.7l.21,1.61c.07.51.13,1,.2,1.53l.17,1.46c.06.46.11.93.16,1.39l.15,1.33.12,1.28c0,.41.07.83.11,1.24s.05.8.08,1.2l.07,1.17c0,.38,0,.77,0,1.15l0,1.14c0,.38,0,.75,0,1.13s0,.76,0,1.14l0,1.15c0,.39,0,.78,0,1.17s0,.8-.07,1.2l-.09,1.24c0,.43-.07.85-.11,1.28l-.13,1.34c0,.46-.11.92-.16,1.39l-.18,1.46c-.06.51-.13,1-.2,1.53s-.15,1.07-.22,1.61-.17,1.14-.25,1.7l-.27,1.8-.3,1.91c-.1.67-.21,1.34-.32,2h0l1.79,1,.33-2c.09-.64.19-1.28.29-1.92s.19-1.21.28-1.81.17-1.15.25-1.73.15-1.09.23-1.63.13-1,.2-1.56l.18-1.5c.06-.47.11-.95.16-1.43s.1-.92.14-1.37l.12-1.33.09-1.29c0-.42,0-.84.08-1.26s0-.83.05-1.24l0-1.22c0-.4,0-.8,0-1.2s0-.8,0-1.2,0-.81,0-1.21,0-.81-.05-1.21,0-.82-.07-1.23l-.09-1.26c0-.43-.07-.85-.11-1.28s-.08-.89-.13-1.33-.1-.91-.14-1.36-.11-.95-.17-1.43l-.18-1.48c-.06-.51-.13-1-.2-1.55l-.21-1.62c-.08-.57-.16-1.15-.23-1.72s-.17-1.2-.25-1.8l-.26-1.9c-.1-.67-.19-1.34-.28-2l-.3-2.09-1.8.1Z" style="fill: #fff"/>
    <polygon points="638.67 487.43 638.67 487.43 638.67 487.43 638.67 487.43 638.67 487.43" style="fill: #fff"/>
    <path d="M639.2,635.46c-.06-.56-.13-1.12-.2-1.68l-.21-1.72c-.08-.58-.15-1.16-.23-1.75s-.15-1.18-.23-1.77l-.24-1.8c-.08-.6-.16-1.2-.23-1.81l-.25-1.82c-.07-.62-.15-1.23-.23-1.84l-.24-1.85c-.08-.62-.15-1.24-.23-1.86s-.15-1.24-.22-1.85-.15-1.24-.22-1.86l-.2-1.86c-.06-.61-.13-1.23-.19-1.84l-.18-1.84-.15-1.83c0-.6-.1-1.21-.14-1.81l-.12-1.79-.1-1.77-.07-1.75c0-.57,0-1.14-.05-1.71s0-1.13,0-1.69,0-1.1,0-1.65,0-1.08,0-1.61.06-1.05.08-1.57l.12-1.53.15-1.48c.06-.48.12-1,.19-1.43l.23-1.38h0l-1.78-1.06c-.08.5-.17,1-.25,1.49s-.14,1-.2,1.54-.11,1.06-.17,1.58l-.12,1.63c0,.55,0,1.1-.08,1.66s0,1.12-.05,1.69,0,1.15,0,1.72,0,1.17,0,1.76,0,1.18,0,1.78,0,1.2.08,1.8.06,1.21.1,1.82l.12,1.83c.05.62.09,1.24.14,1.86s.11,1.24.16,1.86l.18,1.87.19,1.88.21,1.88c.07.63.14,1.25.22,1.88s.15,1.25.22,1.87.16,1.25.23,1.87l.24,1.86.24,1.85.24,1.83.24,1.81.24,1.79c.07.59.15,1.18.23,1.77s.15,1.16.22,1.74l.21,1.71.21,1.67c.06.55.12,1.09.19,1.64s.11,1.06.17,1.59.11,1,.16,1.55l1.76.7L638,639.65Z" style="fill: #fff"/>
    <path d="M638.67,487.43c0-.53,0-1.06-.07-1.59s-.07-1.07-.11-1.61l-.12-1.59c0-.52-.09-1-.14-1.56s-.11-1-.16-1.54-.11-1-.17-1.51l-.18-1.49-.18-1.47c-.06-.49-.13-1-.19-1.45s-.13-1-.19-1.43-.12-.94-.19-1.41l-.18-1.4c0-.45-.11-.91-.17-1.37s-.11-.91-.16-1.36l-.15-1.35c0-.45-.09-.89-.13-1.34s-.08-.88-.11-1.32-.07-.88-.1-1.31l-.06-1.31c0-.43,0-.87,0-1.3s0-.86,0-1.29,0-.86,0-1.29l.06-1.28.09-1.29c.05-.43.09-.86.13-1.29l.18-1.29c.07-.43.14-.86.22-1.29s.17-.87.26-1.31.22-.88.32-1.31.25-.89.38-1.33.28-.89.43-1.34c.08-.23.16-.46.25-.7l-.56-.1c-.28-.71-.56-1.42-.83-2.14h0l-.52,1.45c-.15.48-.31,1-.46,1.44s-.27.95-.41,1.43-.23.95-.34,1.42-.19.94-.29,1.42l-.24,1.41c-.06.47-.13.93-.19,1.4s-.09.94-.14,1.4-.07.93-.1,1.4l-.06,1.39c0,.46,0,.92,0,1.39s0,.92,0,1.38,0,.92,0,1.38,0,.93.07,1.39.07.92.1,1.38l.12,1.38c0,.46.09.92.13,1.39s.11.92.16,1.38.11.93.16,1.4l.18,1.4.18,1.4c.06.47.13,1,.19,1.42s.12.95.19,1.42l.18,1.44c.06.48.12,1,.19,1.45s.11,1,.17,1.46.11,1,.17,1.48l.15,1.49c0,.51.09,1,.14,1.52l.12,1.53c0,.52.06,1,.1,1.56s.05,1.05.07,1.58v.05l1.82.13Z" style="fill: #fff"/>
    <polygon points="638.67 487.43 638.67 487.43 638.67 487.43 638.67 487.43 638.67 487.43" style="fill: #fff"/>
    <path d="M635.72,537h0v.07c-.05-.52-.11-1.05-.17-1.58l-.12-1.57c0-.52-.05-1-.08-1.56s0-1,0-1.54v-1.54l0-1.52.06-1.52c0-.51.05-1,.08-1.51s.08-1,.11-1.51.09-1,.14-1.5l.15-1.51c.06-.49.12-1,.17-1.49s.13-1,.19-1.5.13-1,.2-1.5l.2-1.5.21-1.5c.08-.5.15-1,.22-1.51l.21-1.51c.08-.5.15-1,.22-1.51s.14-1,.2-1.53.14-1,.2-1.53.13-1,.19-1.54.12-1,.17-1.55.11-1,.16-1.56.09-1.05.13-1.58l.12-1.59c0-.53.05-1.07.08-1.6l.06-1.62,0-1.64c0-.55,0-1.1,0-1.66s0-1.11-.05-1.67l-.09-1.7h0v0l-1.82-.13c0,.53.06,1.06.08,1.6s0,1.05.05,1.58v1.57c0,.52,0,1,0,1.55s0,1-.05,1.55-.06,1-.08,1.54-.08,1-.11,1.53-.09,1-.13,1.52l-.15,1.52c-.06.5-.12,1-.17,1.51s-.12,1-.19,1.51-.13,1-.19,1.5l-.21,1.51-.21,1.5-.21,1.51c-.07.5-.15,1-.22,1.51l-.21,1.51-.21,1.51c-.07.51-.13,1-.2,1.53s-.13,1-.19,1.52-.12,1-.17,1.54l-.16,1.54c0,.52-.09,1-.14,1.56l-.12,1.57-.09,1.57-.06,1.6c0,.53,0,1.07,0,1.61v1.62c0,.55,0,1.09,0,1.64s.05,1.11.08,1.66.09,1.12.13,1.68l.18,1.69v.07l1.79-.22Z" style="fill: #fff"/>
    <path d="M638.67,487.43h0v0Z" style="fill: #fff"/>
    <path d="M635.72,537h0l-1.79.22h0Z" style="fill: #fff"/>
    <path d="M636.08,585.31c.1-.56.21-1.12.31-1.68s.19-1.1.29-1.65.18-1.07.26-1.61l.24-1.58c.08-.51.15-1,.22-1.54s.13-1,.2-1.51.11-1,.17-1.49l.15-1.46.12-1.45c0-.47.07-1,.11-1.42s.05-.94.08-1.41l.06-1.4c0-.47,0-.93,0-1.39s0-.93,0-1.39V563c0-.47,0-.93,0-1.39l0-1.38-.06-1.39c0-.47,0-.94-.08-1.41l-.09-1.41c0-.47-.07-1-.11-1.42s-.08-1-.13-1.45-.09-1-.14-1.46-.11-1-.16-1.49l-.18-1.52c-.06-.51-.12-1-.19-1.54s-.13-1.05-.2-1.58-.15-1.08-.22-1.61l-.24-1.66c-.08-.56-.16-1.13-.25-1.69s-.17-1.17-.26-1.75l-.27-1.79-1.79.22h0l.27,1.78c.09.58.18,1.15.26,1.73s.16,1.12.25,1.68.15,1.09.23,1.63.14,1.06.22,1.59.13,1,.2,1.56.12,1,.19,1.51.11,1,.17,1.49l.15,1.45c0,.47.1,1,.14,1.42s.09.94.13,1.41.07.92.1,1.38l.09,1.36c0,.45,0,.9.08,1.35s0,.9.05,1.34,0,.89,0,1.33,0,.89,0,1.33v1.33c0,.44,0,.88,0,1.33s0,.89,0,1.33l-.06,1.35c0,.45-.06.9-.08,1.35s-.07.92-.1,1.38-.08.93-.13,1.39-.09.94-.14,1.41-.11,1-.17,1.44l-.18,1.47c-.07.5-.14,1-.22,1.5s-.15,1-.23,1.54-.17,1.05-.26,1.57-.19,1.08-.28,1.62l-.31,1.66h0Z" style="fill: #fff"/>
    <path d="M636.08,585.31l-1.78-1.06h0l1.78,1.06Z" style="fill: #fff"/>
    <polygon points="633.93 537.23 633.93 537.23 633.93 537.23 633.93 537.23" style="fill: #fff"/>
    <path d="M571,458.76q-15.75,53-31.51,106.1l-1.23-5.63c-.25.84-.51,1.68-.77,2.52C555.3,619,590.42,669.21,630,693.11q-7.24-29.34-14.5-58.67Q593.27,546.54,571,458.76Z" style="fill: #d51810;fill-rule: evenodd"/>
    <path d="M720.49,603.15q-15.72-59.39-31.44-118.94-22.18,78.12-44.37,156.05-7.32,26.43-14.65,52.85c39.62-6.51,74.73-41.86,92.53-92.15-.24-.89-.49-1.78-.73-2.67C721.38,599.91,720.94,601.53,720.49,603.15Z" style="fill: #d51810;fill-rule: evenodd"/>
    <path d="M630,674.63q-29.5-116.55-59-233-16.83,56.61-33.65,113.39,1.08,4.91,2.14,9.81Q555.28,511.73,571,458.77q29.51,116.34,59,233,29.51-103.68,59-207.52,15.72,59.55,31.44,118.94c.78-2.84,1.57-5.67,2.35-8.5Q706,531,689.05,467.11,659.55,571,630,674.63Z" style="fill: #fff;fill-rule: evenodd"/>
    <path d="M642.54,322.32l-25.08-5.47v41.32c-28.91-6.3-57.82-12.53-86.73-18.21v36.51c28.91,5.69,57.82,11.92,86.73,18.21V436.1l25.08,5.47V400.15c28.91,6.29,57.82,12.52,86.73,18.21V381.84c-28.91-5.68-57.82-11.91-86.73-18.21Z" style="fill: #d51810;fill-rule: evenodd"/>
    <path d="M617.46,314.66V319l25.08,5.47L641,322l3,.65-1.5-2.51Z" style="fill: #231f20"/>
    <path d="M644,322.64v-2.19l-1.5-.32Z" style="fill: #231f20"/>
    <path d="M616,438l1.5.33-1.5-2.52Z" style="fill: #231f20"/>
    <path d="M619,436.43l-3-.66,1.5,2.52,25.08,5.47v-4.38l-25.08-5.47Z" style="fill: #231f20"/>
    <polygon points="532.23 301.13 532.23 301.13 532.23 301.13 532.23 301.13"/>
    <path d="M530.73,296.45h0c-.5.63-1,1.26-1.51,1.9h0C529.72,297.71,530.23,297.08,530.73,296.45Z"/>
    <path d="M529.22,296.16v2.19c.5-.64,1-1.27,1.51-1.9Z"/>
    <path d="M729.27,338.33l1.5,2.49h0l-1.5-2.49Z"/>
    <path d="M730.77,340.82v-2.19l-1.5-.3Z"/>
    <path d="M729.27,338.33h0c-66.18-13-132.36-28.87-198.54-41.88h0c-.5.63-1,1.26-1.51,1.9h0V417.6h0v92.75c0,50.29,19.53,95.21,45.52,131.17A260.81,260.81,0,0,0,608.6,680c6.21,5.29,14.59,13.25,21.43,15.31,6.84.93,15.23-3.38,21.44-6a135.48,135.48,0,0,0,33.86-23.92c25.82-25,45.57-62.38,45.44-112.57V460.07h0V340.82l-1.5-2.49Zm0,123.63-1.5-2.48v92.75c0,49.09-19.16,84.82-44.29,109.43-10.67,9.85-21.12,17.48-33.3,23.41-5.7,2.65-13.81,6.34-20.15,5.84-6.34-2.27-14.43-9.49-20.14-14.61a262.33,262.33,0,0,1-33.3-37.73c-25.12-35-44.42-78.78-44.36-127.63V418.19h0V301.13h0c65.18,12.86,130.36,28.43,195.54,41.29V459.48l1.5-1.89Z"/>
    <polygon points="727.77 459.48 727.77 459.48 727.77 459.48 727.77 459.48 727.77 459.48"/>
    <path d="M628.82,485.52c-.91-18.53-5.56-28.19,0-45.07l-6-1.1c-2.34,8.66-3.14,9.52-2.35,20.35.77,8.32,2.07,16.48,2.42,24.75,1.22,17.36-5,32.48-2.78,49.78,3.26,24.62,4.1,24.23.14,47.6-1.94,14.33.52,30.42-2,45.68l4.14,16.56h0c6-20.14,1.29-41.73,3.86-61,3.8-22.69,3.08-23.73-.29-47.63C623.71,518.29,630.19,503.06,628.82,485.52Z" style="fill: #fff;fill-rule: evenodd"/>
    <polygon points="621.37 459.72 621.37 459.72 621.37 459.72 621.37 459.72 621.37 459.72" style="fill: #fff"/>
    <path d="M619.55,459.69h0l1.82,0h0Z" style="fill: #fff"/>
    <path d="M621.38,459.76v0h0Z" style="fill: #fff"/>
    <path d="M623.8,484.56v-.05h0Z" style="fill: #fff"/>
    <polygon points="619.55 459.69 619.55 459.69 619.55 459.69 619.55 459.69 619.55 459.69" style="fill: #fff"/>
    <path d="M619.21,534.29h0l1.8-.13h0Z" style="fill: #fff"/>
    <polygon points="623.8 484.51 623.8 484.51 623.8 484.51 623.8 484.51 623.8 484.51" style="fill: #fff"/>
    <polygon points="623.8 484.51 623.8 484.51 623.8 484.51 623.8 484.51 623.8 484.51" style="fill: #fff"/>
    <polygon points="621.37 459.72 621.37 459.72 621.37 459.72 621.37 459.72 621.37 459.72" style="fill: #fff"/>
    <polygon points="621.01 534.16 621.01 534.16 621.01 534.17 621.01 534.16" style="fill: #fff"/>
    <polygon points="623.8 484.51 623.8 484.51 623.8 484.51 623.8 484.51" style="fill: #fff"/>
    <polygon points="621.37 459.72 621.37 459.72 621.37 459.72 621.37 459.72 621.37 459.72" style="fill: #fff"/>
    <polygon points="621.37 459.72 621.37 459.72 621.37 459.72 621.37 459.72 621.38 459.72 621.37 459.72" style="fill: #fff"/>
    <path d="M625.35,582.57v0h0v-.06h0Z" style="fill: #fff"/>
    <polygon points="619.21 534.29 619.21 534.29 619.21 534.29 619.21 534.29" style="fill: #fff"/>
    <path d="M619.34,581.36h0v0Z" style="fill: #fff"/>
    <path d="M629.66,441.18h0l.6-1.81-1.46-.27c.29.7.58,1.39.86,2.08Z" style="fill: #fff"/>
    <path d="M619.34,581.38h0v0Z" style="fill: #fff"/>
    <path d="M617.29,627.4c0,.14.07.28.1.41,0-.26,0-.53,0-.79Z" style="fill: #fff"/>
    <path d="M629.66,441.18h0c-.28-.69-.57-1.38-.86-2.08h0C629.09,439.8,629.38,440.49,629.66,441.18Z" style="fill: #fff"/>
    <path d="M623.24,644.76l-1.7-.4c.27,1.11.55,2.22.83,3.33Z" style="fill: #fff"/>
    <polygon points="617.39 627.81 617.39 627.81 617.39 627.81 617.39 627.81" style="fill: #fff"/>
    <path d="M619.19,534.19l0,.09v-.09Z" style="fill: #fff"/>
    <polygon points="619.1 627.22 619.1 627.22 619.11 627.22 619.1 627.22" style="fill: #fff"/>
    <polygon points="625.35 582.53 625.35 582.53 625.35 582.53 625.35 582.53 625.35 582.53 625.35 582.53" style="fill: #fff"/>
    <polygon points="625.35 582.53 625.35 582.53 625.35 582.53 625.35 582.53 625.35 582.53" style="fill: #fff"/>
    <path d="M619.1,627.22c0,.26,0,.53,0,.79l.06-.4c0-.13-.06-.26-.1-.39Z" style="fill: #fff"/>
    <polygon points="625.35 582.53 625.35 582.53 625.35 582.53 625.35 582.53" style="fill: #fff"/>
    <polygon points="627.91 485.42 627.91 485.42 627.91 485.42 627.91 485.42" style="fill: #fff"/>
    <polygon points="628.85 441.8 628.85 441.8 628.85 441.8 628.85 441.8" style="fill: #fff"/>
    <polygon points="625.07 535.49 625.07 535.48 625.07 535.49 625.07 535.49" style="fill: #fff"/>
    <path d="M622.79,438h0l-.62-.11c-.07.27-.14.54-.22.8l.84-.68Z" style="fill: #fff"/>
    <path d="M621.54,643.37l.52-1.84c.1-.42.21-.84.31-1.26q-1.57-6.33-3.17-12.66l-.06.4c0-.26,0-.53,0-.79l-1.71.59q2.07,8.28,4.15,16.55h0l1.7.4h0Z" style="fill: #fff"/>
    <path d="M619.1,627.22h0c0,.13.07.26.1.39.06-.35.11-.71.17-1.06s.13-1,.2-1.47.11-1,.17-1.47l.15-1.48.12-1.47c0-.5.07-1,.1-1.48l.09-1.48.06-1.47c0-.49,0-1,0-1.47s0-1,0-1.48l0-1.47c0-.49,0-1,0-1.47v-2.92c0-.49,0-1,0-1.46s0-1,0-1.45,0-1,0-1.45,0-1,0-1.44,0-1,0-1.44v-2.85c0-.47,0-.94,0-1.42s0-.93,0-1.4l0-1.4c0-.47,0-.93,0-1.39s0-.92,0-1.38,0-.92.07-1.37.05-.91.08-1.36.07-.9.1-1.35l.12-1.34c0-.44.1-.88.14-1.33s.11-.87.17-1.31h0v0h0l-1.81-.9c-.05.46-.11.92-.17,1.38l-.15,1.39-.12,1.4c0,.46-.07.93-.11,1.4s0,.94-.08,1.41-.05.94-.07,1.42,0,.94,0,1.42,0,.95,0,1.42,0,1,0,1.43,0,1,0,1.44v4.31c0,.48,0,1,0,1.45v1.44c0,.48,0,1,0,1.45s0,1,0,1.44,0,1,0,1.45v4.33c0,.48,0,1,0,1.44s0,1,0,1.44,0,1-.05,1.44l-.06,1.43-.09,1.43c0,.47-.06,1-.1,1.42l-.12,1.42c0,.48-.09,1-.14,1.42s-.11.94-.16,1.41-.13.94-.19,1.41-.15.93-.22,1.4c0,.26,0,.53,0,.79l1.71-.59Z" style="fill: #fff"/>
    <path d="M621.14,582.33v-.05h0Z" style="fill: #fff"/>
    <path d="M622.37,640.27c-.1.42-.21.84-.31,1.26l-.52,1.84,1.7,1.39h0c0-.33,0-.65,0-1C623,642.6,622.66,641.43,622.37,640.27Z" style="fill: #fff"/>
    <polygon points="619.21 534.29 619.21 534.29 619.21 534.29 619.21 534.29 619.21 534.29" style="fill: #fff"/>
    <path d="M625.35,582.53v.06h0v-.06h0v.06c-.07.62-.15,1.24-.22,1.85s-.13,1.25-.19,1.87-.09,1.25-.14,1.88l-.12,1.88c0,.63,0,1.26-.08,1.89l-.06,1.9,0,1.91c0,.63,0,1.27,0,1.91v1.91c0,.64,0,1.28,0,1.92s0,1.28,0,1.92l0,1.92,0,1.93,0,1.93,0,1.92,0,1.93c0,.64,0,1.28,0,1.92v1.93c0,.64,0,1.28,0,1.92s0,1.28,0,1.92l-.06,1.92c0,.63-.05,1.27-.08,1.91s-.07,1.27-.11,1.91l-.15,1.9-.18,1.89c-.07.64-.15,1.27-.22,1.9s-.17,1.25-.26,1.88-.21,1.25-.31,1.88-.24,1.24-.35,1.87-.27,1.24-.41,1.86l-.15.6c.29,1.16.59,2.33.88,3.5,0,.33,0,.65,0,1l.54-1.93c.17-.64.33-1.29.49-1.94l.42-2,.38-2c.1-.65.21-1.3.32-2l.27-2c.07-.66.15-1.31.23-2s.12-1.31.19-2l.15-2c0-.66.07-1.32.11-2l.09-2,.06-2,0-2c0-.65,0-1.3,0-1.95v-2c0-.65,0-1.3,0-2l0-1.94,0-1.94,0-1.93,0-1.92,0-1.92,0-1.9c0-.63,0-1.27,0-1.9s0-1.25,0-1.88,0-1.25,0-1.87l0-1.86c0-.62,0-1.24,0-1.85l.09-1.84c0-.6.07-1.21.1-1.82l.15-1.8c.06-.6.11-1.2.17-1.8s.15-1.18.22-1.77v.06h0Z" style="fill: #fff"/>
    <polygon points="625.06 535.47 625.06 535.47 625.06 535.47 625.06 535.47 625.06 535.47" style="fill: #fff"/>
    <path d="M621.15,582.28l-1.81-.9h0l1.81.9Z" style="fill: #fff"/>
    <path d="M629.74,485.62h0v0Z" style="fill: #fff"/>
    <path d="M619.2,534.25v0h0Z" style="fill: #fff"/>
    <path d="M627.1,454.93l.06-1.27c0-.43.07-.85.1-1.28s.09-.86.14-1.3l.18-1.32c.08-.44.15-.89.22-1.34l.27-1.38.32-1.4c.12-.49.25-1,.37-1.45l.42-1.48.48-1.53c-.28-.69-.57-1.38-.86-2.08,0,.9,0,1.8.05,2.69h0l-1.43-.27c-.13.45-.25.9-.38,1.35l-.39,1.52-.34,1.5-.29,1.47-.24,1.44c-.06.48-.12.95-.19,1.42l-.15,1.4c0,.46-.07.92-.11,1.38s-.05.91-.07,1.36l0,1.35c0,.45,0,.89,0,1.34l0,1.33c0,.44,0,.88,0,1.32s.06.87.08,1.31.07.88.1,1.31.09.88.13,1.32.09.87.13,1.31l.15,1.32c.06.45.11.89.16,1.34s.12.89.17,1.34l.18,1.35.18,1.38c.06.47.11.93.17,1.4l.18,1.42c.06.48.12,1,.17,1.45s.11,1,.17,1.48l.15,1.51.15,1.55c0,.53.09,1.06.13,1.6s.07,1.09.11,1.63.07,1.12.1,1.69h0l1.83.2v0c0-.57-.07-1.13-.1-1.7l-.12-1.68c0-.55-.08-1.1-.13-1.65l-.15-1.59c0-.52-.1-1-.16-1.55s-.11-1-.17-1.51-.11-1-.17-1.48l-.18-1.44-.18-1.41-.18-1.37c-.06-.45-.11-.9-.17-1.35s-.11-.89-.17-1.33-.11-.87-.16-1.31-.1-.85-.14-1.28-.09-.85-.14-1.27-.07-.84-.11-1.26-.07-.84-.1-1.25-.05-.83-.07-1.25l-.06-1.24c0-.41,0-.82,0-1.24v-1.24C627.07,455.76,627.08,455.34,627.1,454.93Z" style="fill: #fff"/>
    <path d="M625.35,582.53l1.79,1h0l-1.79-1Z" style="fill: #fff"/>
    <path d="M627.91,485.42h0v.05c0,.53.07,1.06.1,1.59l.06,1.57,0,1.57,0,1.56c0,.52,0,1,0,1.55s-.06,1-.08,1.55-.07,1-.11,1.54l-.12,1.54c-.06.51-.11,1-.16,1.53s-.11,1-.17,1.53l-.18,1.53c-.07.51-.13,1-.2,1.52l-.21,1.53-.21,1.53c-.07.5-.15,1-.22,1.52s-.15,1-.22,1.53-.15,1-.22,1.53l-.21,1.53-.21,1.54c-.06.51-.12,1-.19,1.54l-.18,1.55c0,.52-.1,1-.16,1.55s-.09,1-.14,1.56-.08,1-.11,1.57l-.09,1.58-.06,1.59,0,1.6c0,.53,0,1.07,0,1.61s0,1.08,0,1.62l.09,1.63.15,1.65c.06.55.13,1.1.19,1.65h0l1.8-.13v0h0l-.18-1.54c0-.51-.08-1-.13-1.53l-.09-1.52c0-.51,0-1-.05-1.52v-1.52l0-1.51.06-1.51.09-1.51c0-.5.07-1,.11-1.5s.09-1,.13-1.51l.16-1.51.17-1.51c.07-.5.13-1,.19-1.51s.14-1,.2-1.52l.21-1.51c.08-.51.15-1,.22-1.52s.15-1,.22-1.53.15-1,.22-1.53.14-1,.22-1.54l.21-1.54c.06-.52.13-1,.2-1.56s.13-1,.19-1.56.11-1.05.17-1.57.11-1.05.16-1.58.09-1.06.13-1.59.07-1.07.11-1.61.05-1.07.08-1.61,0-1.09,0-1.63,0-1.1,0-1.65,0-1.11,0-1.66l-.06-1.67c0-.55-.08-1.09-.11-1.64l-1.83-.2Zm0,0v0h0Z" style="fill: #fff"/>
    <path d="M627.91,485.42v.05h0Z" style="fill: #fff"/>
    <path d="M625.06,535.48h0c.1.73.21,1.46.31,2.18s.19,1.37.29,2.05.19,1.29.28,1.93.17,1.22.26,1.82l.24,1.72c.07.54.15,1.08.22,1.62l.21,1.53c.06.49.12,1,.19,1.46s.11.92.17,1.38l.15,1.32c0,.42.08.84.13,1.26s.07.81.11,1.21l.09,1.18c0,.38,0,.76.08,1.14s0,.75.05,1.12l0,1.11c0,.37,0,.73,0,1.1s0,.74,0,1.11,0,.75,0,1.12l-.06,1.15c0,.39,0,.78-.07,1.17l-.09,1.22-.12,1.26c0,.44-.09.88-.14,1.32s-.11.93-.17,1.39-.12,1-.19,1.46l-.21,1.54-.24,1.62c-.09.58-.17,1.15-.26,1.73s-.2,1.22-.29,1.83-.21,1.29-.32,1.94-.23,1.37-.34,2.06h0l1.79,1c.11-.69.23-1.39.34-2.08s.21-1.3.32-2,.19-1.23.29-1.84l.27-1.75.24-1.65c.07-.52.15-1,.22-1.57s.13-1,.19-1.49.12-1,.17-1.42l.15-1.37.12-1.32c0-.42.07-.85.1-1.27s.05-.83.08-1.24,0-.81,0-1.21l0-1.19c0-.4,0-.79,0-1.19s0-.78,0-1.17,0-.79,0-1.18,0-.8,0-1.19-.06-.81-.08-1.21-.07-.82-.1-1.23l-.12-1.27-.13-1.3c-.05-.45-.1-.9-.16-1.36s-.11-.94-.17-1.41-.13-1-.19-1.48l-.21-1.55c-.07-.54-.15-1.09-.22-1.63s-.17-1.15-.25-1.72-.17-1.22-.26-1.83l-.27-1.93c-.1-.68-.2-1.37-.29-2s-.21-1.43-.31-2.15l-1.8.13Z" style="fill: #fff"/>
    <path d="M625.06,535.47h0l1.8-.13h0Z" style="fill: #fff"/>
    <path d="M621.15,582.28c.11-.69.23-1.38.35-2.07l.33-2,.3-1.88c.09-.59.18-1.18.28-1.77s.16-1.11.25-1.66.15-1,.22-1.58.13-1,.2-1.49l.18-1.42.15-1.35.12-1.3.11-1.25c0-.4.05-.81.07-1.21l.06-1.19,0-1.16c0-.38,0-.76,0-1.15s0-.76,0-1.14l0-1.15-.06-1.16c0-.39-.05-.78-.08-1.17l-.09-1.21-.12-1.24c0-.42-.09-.85-.13-1.28s-.11-.89-.16-1.34-.11-.93-.17-1.39-.12-1-.19-1.48l-.2-1.55c-.08-.54-.15-1.09-.22-1.64l-.24-1.74c-.08-.62-.17-1.24-.25-1.85l-.27-2c-.1-.7-.19-1.4-.29-2.1s-.19-1.49-.29-2.23l-1.8.13h0c.09.75.19,1.49.29,2.24s.19,1.4.29,2.1l.27,2c.08.61.17,1.23.25,1.85l.24,1.73c.07.55.14,1.09.22,1.64s.13,1,.2,1.54.12,1,.19,1.45.11.91.16,1.37l.15,1.3c0,.41.09.83.13,1.24s.08.79.11,1.19.06.76.1,1.15,0,.74.07,1.11,0,.72,0,1.09l0,1.07v2.14l0,1.09-.06,1.11c0,.39,0,.77-.07,1.15s-.07.8-.1,1.19l-.12,1.25-.15,1.31c-.05.46-.11.92-.17,1.37s-.13,1-.19,1.46-.15,1-.22,1.55-.17,1.1-.25,1.64l-.27,1.75-.3,1.87-.33,2-.36,2.12v.06h0Z" style="fill: #fff"/>
    <path d="M623.46,440.8h0l4,.72.06-.21.51-1.6c.28.69.57,1.38.86,2.07,0-.89,0-1.79-.05-2.69h0l-6-1.1-.84.69h0l1.71,1.31Z" style="fill: #fff"/>
    <path d="M623.46,440.81h0l.21-.79L622,438.7c.29.66.58,1.33.88,2Z" style="fill: #fff"/>
    <path d="M622,438.69l.84-.69h0l-.84.68Z" style="fill: #fff"/>
    <path d="M619.55,459.69l1.82,0h0l-.06-.94-.06-.92c0-.29,0-.58,0-.86s0-.55,0-.82l0-.76,0-.73c0-.22,0-.45,0-.68v-1.25c0-.19,0-.38,0-.58s0-.36,0-.54l0-.53,0-.5c0-.16,0-.32,0-.49l0-.47c0-.16.05-.31.07-.47l.07-.46c0-.15.06-.31.08-.46s.06-.31.1-.46l.1-.47c0-.16.07-.32.11-.48l.12-.5c0-.17.08-.34.13-.51s.09-.35.14-.53l.15-.55c0-.19.1-.39.16-.58l.16-.61.18-.63c.07-.23.13-.45.19-.68l.2-.71.21-.74-.62-.11c-.3-.67-.59-1.34-.88-2h0l-.21.79-.21.74c-.06.23-.13.47-.19.71l-.19.67-.18.64c-.06.2-.11.4-.17.61s-.11.39-.16.59-.11.38-.16.57-.09.36-.14.55-.09.36-.14.54-.09.35-.13.53l-.12.52c0,.17-.07.35-.11.52l-.1.52-.1.52-.08.53-.07.53-.07.55,0,.56c0,.19,0,.38,0,.58l0,.59,0,.62v.63c0,.23,0,.45,0,.67s0,.46,0,.7,0,.48,0,.73l0,.76,0,.81c0,.28,0,.56,0,.84s0,.6,0,.9l.06.94c0,.34,0,.67.07,1h0Z" style="fill: #fff"/>
    <polygon points="628.8 439.1 628.8 439.1 628.8 439.1 628.8 439.1" style="fill: #fff"/>
    <polygon points="625.06 535.47 625.06 535.47 625.06 535.47 625.06 535.46 625.06 535.46 625.06 535.47" style="fill: #fff"/>
    <path d="M627.48,441.32l-.06.21,1.43.27h0c-.29-.69-.58-1.38-.86-2.07Z" style="fill: #fff"/>
    <path d="M619.55,459.66v0h0Z" style="fill: #fff"/>
    <path d="M622,484.33v.05h0Z" style="fill: #fff"/>
    <polygon points="621.98 484.38 621.97 484.38 621.97 484.38 621.98 484.38 621.98 484.38" style="fill: #fff"/>
    <polygon points="621.98 484.38 621.97 484.38 621.98 484.38 621.98 484.38" style="fill: #fff"/>
    <path d="M621,534.16h0l-.18-1.55c0-.51-.08-1-.13-1.55l-.09-1.53c0-.52,0-1-.05-1.54s0-1,0-1.52l0-1.53c0-.5,0-1,0-1.52s0-1,.07-1.51.07-1,.11-1.51.08-1,.13-1.51l.15-1.51c0-.51.11-1,.16-1.51l.18-1.51c.07-.51.13-1,.19-1.51l.21-1.52c.07-.5.13-1,.2-1.51s.14-1,.22-1.52l.21-1.53.21-1.53.2-1.53c.07-.52.13-1,.2-1.54l.18-1.55c.06-.52.11-1,.17-1.56l.15-1.57c.05-.53.09-1.05.14-1.58s.07-1.06.11-1.59.05-1.07.08-1.6,0-1.08.05-1.61,0-1.09,0-1.63,0-1.1,0-1.64,0-1.11-.05-1.66-.07-1.12-.1-1.67h0v0l-1.82-.13h0l.09,1.57c0,.53,0,1.05.05,1.57s0,1,0,1.55,0,1,0,1.55,0,1-.05,1.54-.06,1-.08,1.53-.07,1-.11,1.53-.09,1-.13,1.53l-.15,1.52c-.05.51-.11,1-.16,1.52l-.18,1.52c-.07.5-.13,1-.2,1.52s-.13,1-.2,1.52l-.21,1.51-.21,1.53-.21,1.52-.21,1.52c-.07.51-.13,1-.2,1.53s-.13,1-.2,1.54l-.18,1.54c-.06.52-.12,1-.17,1.55l-.15,1.55c-.05.52-.09,1-.14,1.57s-.07,1-.11,1.57-.05,1.05-.08,1.58,0,1.06,0,1.59,0,1.07,0,1.61,0,1.08,0,1.62l.06,1.63.09,1.64.15,1.66.18,1.64v0Z" style="fill: #fff"/>
    <path d="M622,484.33v.05l1.82.13h0c0-.25,0-.49,0-.74s0-.52,0-.79,0-.52,0-.78l-.06-.79,0-.78-.06-.79c0-.26,0-.52-.07-.78l-.06-.78-.08-.78c0-.26,0-.52-.07-.78s-.05-.52-.08-.78,0-.52-.08-.77-.05-.52-.08-.78l-.08-.78-.09-.77-.09-.78c0-.25-.05-.51-.08-.77l-.09-.77-.09-.78-.09-.77-.09-.77-.09-.77-.09-.77-.09-.77-.09-.77c0-.26,0-.52-.08-.78l-.09-.77c0-.25,0-.51-.08-.77s0-.51-.08-.77-.05-.51-.08-.77l-.07-.77c0-.26-.05-.51-.08-.77h0v0l-1.82,0h0c0,.26.05.52.08.78s0,.53.07.79.06.52.08.78l.09.79.08.78c0,.26.06.52.08.78l.09.77.09.78.09.78.09.77.09.78.09.77.09.77.09.77c0,.26.06.51.08.77l.09.77.09.77c0,.25.06.51.08.76l.09.77c0,.25.05.51.08.76s0,.51.08.77,0,.51.07.76.05.51.07.76,0,.51.07.77l.07.76.06.76.06.76.06.76c0,.26,0,.51.05.77s0,.5,0,.76l0,.76,0,.76v0Z" style="fill: #fff"/>
    <path d="M619.55,459.69v0h0v0Z" style="fill: #fff"/>
    <polygon points="619.55 459.69 619.55 459.69 619.55 459.69 619.55 459.69 619.55 459.69" style="fill: #fff"/>
    <path d="M529.23,419.79l1.5.29-1.5-2.48Z" style="fill: #231f20"/>
    <path d="M532.23,418.19l-3-.59,1.5,2.48C596.91,433.1,663.09,449,729.27,462v-4.37c-66.18-13-132.36-28.87-198.54-41.89Z" style="fill: #231f20"/>
    <path d="M570.74,510.47h0l-1.58-.13c-9.91,2-6.94,22.55,3.07,22.66C581.22,531.39,579.93,513.22,570.74,510.47Z" style="fill: #fedc00;fill-rule: evenodd"/>
    <path d="M690.9,536.57l-1.56-.54h0c-9.2-1.13-10.49,16.49-1.5,21.91C697.85,562,700.82,542.68,690.9,536.57Z" style="fill: #fedc00;fill-rule: evenodd"/>
    <path d="M570.74,551.89l-1.58-.13c-9.92,2-6.95,22.54,3.07,22.66C581.22,572.82,579.93,554.63,570.74,551.89Z" style="fill: #fedc00;fill-rule: evenodd"/>
    <path d="M690.9,578l-1.56-.54c-9.2-1.14-10.49,16.49-1.5,21.9C697.86,603.44,700.82,584.12,690.9,578Z" style="fill: #fedc00;fill-rule: evenodd"/>
    <path d="M529.23,415.41v2.19l1.5-1.9Z"/>
    <path d="M529.23,417.6l3,.59-1.5,1.89C596.91,433.1,663.09,449,729.27,462v-4.37c-66.18-13-132.36-28.87-198.54-41.89Z"/>
    <path d="M691.69,309.08c-5-7.17-6.07-7.16-8.42-16.81-4.42-10.78-5-2.53-4.5-17.53.74-9.36-2.48-9.4-2-20.26v-7.29c-.57-1.17-1.15-2.34-1.73-3.51-.33-1.29-.66-2.58-1-3.87-1.49-7.84.82-14.8,1.65-22,1.78-6.64.75-8.82.43-15.56-.28-5.06,1.16-2.79,1.28-10.15.84-2.39,1.19-5.83,2.37-7.33.9-2.11,2-4.62,1.85-7.42l.43.08c0-1.87,0-3.74.07-5.61l.22-.38c.16-.87.33-1.74.49-2.61V167.4c0-.52,0-1.05-.07-1.57v-.53l-.21-1.82c-1.37-5.49.8-2.41-2.08-9.51-2.05-4-2.82-3.1-5.27-7.7l-.72-.46-.3-.27-1-.32-1.35-1.76-.72-.46-.58-.13-1.07.08-1.07-.85-.71-.68-.21,0-.58.51-2.21-.27-1.07-.23-.85.45c-2.14,1.09-4.69,1.88-7,3.07l-1.15.69-1,.73-.86,1.17-1.14.58c-.09.29-.19.58-.29.88s-.33.83-.49,1.25l-1,.72-1.14.47-.72,1.1c-.09.3-.19.59-.28.88l.07.53-.51,1.47c-.42.5-.85,1-1.28,1.49l.15.65c-.15.46-.3.92-.44,1.38l-.56.91-.72,1.09c-.19.45-.38.91-.58,1.36l-.07.8.21.48c-2.21,7.18,1.11,3.67-2.78,9.5l-4.57-.36L635,172l-1.78-1-1.58-.65-1.63-.89-1.57-1-1.65-1.1L625,166.28c-4.63-3.19-4.84-4.19-8.43-7.89l-1.08-1.9-.42-.83-.28-.47-1-1.15c-.35-.35-.71-.7-1.06-1.06l-.5.1-.36.44-.35-1.23v-1l-.79-.48-.14-1.49-.07-.85-.21-.25-.16-.14-.35-1-.72-1.08c-.16-.21-.32-.43-.49-.64-.14-.38-.29-.75-.43-1.12l-.29-.39-.22-.26-.21-1.19-1.14-.56c-.12-.13-.24-.25-.35-.38v-.54l-.16.2c-.35-.64-.71-1.28-1.07-1.92,0-.29-.09-.58-.14-.87l-.28-.17c-.07.1-.15.19-.22.28l-.64-.77c-.14-.52-.29-1-.43-1.55-.12.18-.24.37-.35.56l-.07-.24-.79-1.1c-.15-.48-.29-1-.44-1.45l-.28.05-.57-.77c-.08-.43-.15-.86-.22-1.29l-.42.13-.57.08-.36-1-.21.16-.22,1.1-.51.84-.84-2.28-.44.44-.07-.24-.42-.71c-.15-.41-.29-.83-.44-1.24l-.5,1-.92-1.66-.64,1.12c-.19-.43-.39-.85-.58-1.28l-.42.63-.51-.42c-.47-.48-.94-1-1.42-1.45l-1-1c-2.48-3.16-5.73-4.84-7.71-8.86l-.78,1.09-.93,1.57-.37.56-.35.23-.72-.36-1.21-.79-1.22-.36-2.56-.54-.8-.07v.74l.51.85c.31.75.61,1.51.92,2.27.13.69.25,1.38.37,2.07s.23,1.51.35,2.27l.21,2,.14,1.39-.56,1c-.15.32-.29.64-.44.95-1.91,4.29-2,8.09-3.78,11.94-1.23,2-3,2.39-4.85,3.87l-.65.5-.36,1c.07.57.15,1.14.22,1.71s.24,1.23.35,1.84l.72,1.83c.17.59.33,1.18.49,1.77,0,.36.11.72.16,1.08l.28.88.79,1.11,1,.95.85,1.1.72,1.2c.05.36.09.72.14,1.08l1,.83,1.64.34h3.93l.79.37.78.79.93,1.14c0,.49.09,1,.14,1.49.15.76.29,1.52.44,2.29.35.77.71,1.54,1.07,2.32l1.21,2.23c3.92,5,.65.58,3.15,9,1.25,3.79,2.06,5.24,2.78,9.36.36,1.23.71,2.46,1.07,3.68L594.6,206l.57.63,1.15,1.19,1,1.25,1.07,1.17,1.14,1.4c.14.2.29.4.43.61l.42,2c.15.76.3,1.52.44,2.29s.19,1.42.28,2.13a152,152,0,0,1,1,23.81c-.7,10.83-2,7.22-6.93,10.81-1.63,2.06-1,2.55-3,5.08l-.79.78-1.06.08-1.3,1.92-1.28,1.39-1.43,1.25c-4.21,4.13-10.4,5.87-12.28,13.57-.14.49-.29,1-.43,1.47s-.39.89-.58,1.34-.33.69-.49,1l-.51.94-1,.94-1.07.5-.14.29-.78.89-.51,2.4-.63.58c-3.44,4.48-4.34,8.57-1.37,15.16,2.15,4,10.07,5.57,12.64,4.33,2.66-.66,7-2.68,9.44-2.67,1.26-1.83,4-2.66,5.86-2.6,3.82-.14,9.33.78,12.65-.41,6.38-3.05,13.11-.19,19.92,1.73l2.44.53,2.36.11,2.21.17,2.22-.46c.62.55,1.24,1.1,1.85,1.66,2.6,2.61,7.16,4,10.14,5.43,11.73,2.72,5.73,1.31,15,6.7l1.07.66,1.22.57,1.14.35,1.28.38.79.68a16,16,0,0,0,8.36,4.3c.17.55.33,1.11.5,1.66l1.43,1.89,1.72,1.6,1.78.91,1.79.79.93.63.85.18,1.79.78,1.71.47,1.86.39,1.58-.18.78-.27.65-.81C698,327,696.42,314.37,691.69,309.08ZM653.4,263.54c-2.8-.3-4.45-2.69-7.07-3.1a52.54,52.54,0,0,0-12.87-2.09c-6.92.38-12.57-3.12-19.65-1.67l-.21-1.2.21-.77,1.3-1.28.63-2.16c1-3.34,1.09-7.11,1.86-10.77l.57-1.74.72-1.94,1.21-1.4c.12-.36.24-.71.37-1.07l.42-1.27c0-.44,0-.89.07-1.34.14-.94.29-1.88.43-2.82l.57-2.38,1.29-1.61.93-.41,2.28.5,1.15,0c1.94.46,3.59-.41,5.5-.58,1.89-.45,3.73-1.73,5.78-2.17l1.29-.46,1.58-.27.63-.09,1.57,1.18c.29.65.58,1.3.86,2a2.17,2.17,0,0,1,.07.24C644.83,240.28,664.66,241,653.4,263.54Zm17.44,10-.72-.05-1.28-.27-1.22-.88c-.43-.44-.86-.88-1.28-1.33l-1.16-.88-.71-.46-2.56-1.4c.54-6.05.1-13.12,3-17.61l1.14.78.86,1.23.15.45c.54,2.77,1.34,6.89,2.07,9.52C669.86,267.18,671.44,268.34,670.84,273.56Z" style="fill-rule: evenodd"/>
    <path d="M588,133.2c-.23-.67-.47-1.35-.71-2l-1.07-1.58-.43-.51-.57-.64h0l-1-1.89a48,48,0,0,0-1.79-7.27c-.89,3.11-1.53,4.78-1.42,8.57v.63l.78,1.21,1.5,1.36.43,1.24.5.63.14.34-.21.48.64.24,1.29,2.26,1.92,2.18.72-.26.36-.76c-.15-.69-.29-1.38-.43-2.08S588.17,133.91,588,133.2Z" style="fill: #fff;fill-rule: evenodd"/>
    <path d="M576.74,123.2l-.5-.73-.43-.41v.62c.14.73.28,1.46.43,2.18l.93,2.5,1.35-1.07c-.24-.54-.47-1.08-.71-1.61Z" style="fill: #fff;fill-rule: evenodd"/>
    <path d="M680.19,158.19c-1-2.95-1-4-2.58-6.29l-.71.16-.21-.57-1.29-1.84-.5-.73-.72-.88-.21-.57-1.28,0-1.36-2.07-.78-.69-.43-.19c0,.2,0,.4-.08.6h-.92c-.53-.45-1-.91-1.57-1.38l-1.08.4-1.78-.49-.72.16-.35.44c-1.87.76-4.68.73-6.36,1.66l-1.08.29-1.21,1-1.14.9-1,1.14-.93,1.26v.84c-1.23,2.24-2.12.64-3.07,3l.78.38-.36.24L648,156.25l-.93,2.1,1.14-.7c0,.18.05.36.08.54-.13.43-.25.85-.37,1.28s-.38.68-.56,1l-.86,1.07-.79.87-.21.58,1-.09c0,.14,0,.28.07.43l-.57,2.07c-.14.73-.29,1.47-.43,2.2-.07.23-.14.45-.22.68-.16.45-.33.9-.5,1.35l-.85,1.28c-.17.48-.34,1-.5,1.45l-.36,1.6c0,.27-.05.54-.07.81s.09.44.14.66c0,.69-.09,1.37-.14,2.06L642.4,180l.5.73-.15.28c-.14.84-.28,1.68-.43,2.52s-.09,1.85-.14,2.78l.5-.2.36-.86.5.73c.14.35.28.69.43,1l.43-.22.78-.87c.17-.34.33-.69.5-1s.43-.81.64-1.21.29-.91.43-1.37l.36-.44.78-.36.65-.59c3.24-3.67,1.6-4.31,4.43-7.07l.21.26-.06.5-.72,1.73c-.24.71-.48,1.42-.71,2.14,1.85-1.28,1.95-3.82,3.92-5.2v.52c-.17.59-.33,1.18-.5,1.77l-.57,2.17,1.07-.91,1.14-1.53.43-.74.36-.45.29.17-.15,1.32-.42,1.79.28.06.79-.66,1.07-.81.86-1.17,1.29-1.71c.16-.17.33-.34.49-.52l.36-.44-1.5,4.37.64-.18.93-.63,1-.83,1-.93.93-.84.43-.64.64.14c-.05.09-.09.19-.14.28l-.78,1.6-1.22,1.83.43.09,1.5-.93,1.78-.66-.07.51-.5.73-.57,1.44.21.15,1.22-.26,1.29.17c0,.11,0,.22.07.33.28.55.57,1.1.86,1.64.3.8.61,1.6.92,2.39l.15,2.75c.12,1,.24,2.07.35,3.1V191c0,.47-.09.95-.14,1.42l-.21,1.42-.36,1.17-.78,1.09.07,1c0,.41,0,.83-.07,1.24s-.2.86-.29,1.3l-.15,1.22c-.11.56-.23,1.13-.35,1.69V203l-.36.45-.36,2.32v1l-.36,1.08-.28.35.64.14c.17.28.34.56.5.84-.16.69-.33,1.39-.5,2.08.15.59.29,1.17.43,1.76-1.17.83-3.06,3.8-4.21,4.73l-.29-.37v-.52l-.21-1.83c0-.72,0-1.45.07-2.17l-.79-.38-.86-.08c-.09-.19-.18-.39-.28-.58s-.05-.36-.07-.54l-.07.3-.79-.07-.86-.81c-.12-.61-.23-1.23-.35-1.85v-2.82l.21-1,.21-.68-.21-.46.5-1.56,1.29-1.29c0-.41,0-.82.07-1.24s0-.68.07-1l-.36-.49-1.29-.59-1.57.39-.14-.76c.09-.4.19-.79.28-1.19l.51-1c.21-.44.42-.88.64-1.32l.21-1.31c0-.25-.05-.5-.07-.75l-.28-.48-1,.2-1.21.47-.21-.46-.65.07-1.21.57-.43-.93v-1.35l-.93,1.36-.57-.12c-.09-.27-.19-.53-.29-.8l-.07.2-.57.71-.78.66c-.08-.12-.15-.24-.22-.36s-.05-.36-.07-.54l-1.86,1.17-.28-.27-.72,1.62-.85,2.31c-.08.37-.15.74-.22,1.1s-.05.55-.07.82l.5-.2.78.17.51,1-.51.42L649,201c-.17.48-.33,1-.5,1.45L648,204c-.29.46-.58.92-.86,1.38l-.64.38-.29-.58v-.74l-1.07.5-.21-.88c0-.37.09-.75.14-1.12l-.79,1.08L643,203.8l-.65-.24-.21-.05-.21-1.72v-1.88l.21-1v-.53l-.21.06-.5.94-.86.44-.22-.36V197.8l.36-1.8-.36.23-1.07.08-1.5-.22-1.5,2.49-.28,0-.65.18-.78.55-.15.08c-.09.32-.19.65-.28,1l-.93.11c0-.15-.1-.3-.14-.45v-1.88l.57-2.59-.21,0-.86.54-.93,1-.29-1-.21-.88-.36,1.07-.28,1.09-.08.09-.64-.14-.57-.55-.72,1.41-1.64,1.11c0,.41,0,.82-.07,1.23l.07.95-.07.3-.72.06-.92.21-.15.28c-.12.5-.23,1-.35,1.49l-.15,1.74.15.35-.36,1.38c-.26.5-.52,1-.79,1.5l.15.13-.15.81-.5.72c-.16.35-.33.7-.49,1L623,213l-.21.58-.43.22.57.54v.42c-.09.26-.19.51-.29.77l-.64,1,.15.55-.93,2-.93,3-.86,1.38c-.07.82-.14,1.64-.22,2.46l-.21,1.1-.28.35v.42c0,.36.09.72.14,1.08s-.19.79-.29,1.18l-1.07.4L616,231l-.79-.17-.35-.18v-.52l.28-1.2c.22-.51.43-1,.64-1.52l-.78-1c.14-.63.29-1.26.43-1.89V220.1l.14-.7-.36.23-.42-.3V219l.21-1.62.78-1.71-.35-.29v-1.25c.16-.52.33-1,.5-1.56l-.5-.11-.57-.75c.16-.52.33-1,.5-1.56l.93-1.67.5-.42.35-.23-.35-.29-.36-.39v-.52l.64-1.53,1.36-1.17.14-.49-.36-.28.36-1.18,1.72-1.19.5-.62c0-.25,0-.5-.07-.74s-.29-.69-.43-1l.85-1,.36-1.8.36-.75.36-.34-.72-.68c-.17-.53-.33-1-.5-1.57l-.28-.69c-.08-.12-.15-.24-.22-.36l-.21-2c.14-.63.28-1.26.43-1.89-.08-.36-.15-.72-.22-1.09l-.21-.67v-.31l.21-1.31.79-1.29-.36-.71-.93-.62-1.07-1-.93-.83-.86-.6-.5-.42c-1.94,1.3-3.79-1.17-5.14,1.69V181l-1,1.56c-.36.72-.72,1.45-1.07,2.17l-.57.4-.58,1.12-.57,1.44L607.1,189l-1.07.39-.64.07-.43-.51-.15-.44.72-.16c.33-.56.67-1.11,1-1.66,0-.15-.1-.3-.14-.45.23-.13.47-.25.71-.37l-.36-.6.29-.88.64-.27-.57-.55-.21-.67v-.31l.35-.45.72-.57-.72-.15-.85-.61-.22-.46L606,180l.36-.13,1.57-.49L610,179l-.64-.24-.72-.78-.43-.51c0-.11,0-.22-.07-.33l.07-.09.72-.26,1.14.25.36-.13,1.5-.41,1.14-1.73-5.07-.58-.29-.38c1.07-1.45,3.6-.37,4.93-.91l-1.07-.44-1.36-.61-.64-.24-.35-.29v-.94l1.21.06h1.86L613,170l.43-.22-1.79-.59-.14-.14-.79-.38-.21-1.19.21-.16,1,.21,1.15-.06L612,167l-1.36-.61-.57-.64-.21-.05c0-.16.09-.32.14-.49l1.07-.39,1.36-.43-.86-.51-1.14-.56-.36-.49v-.42l.14,0,1.22-.05,1.28,0-.92-.62-1.36-.92-.57-.44-.36-.08V160h.93l1.79.07.57-.19c.09-.15.19-.3.28-.46l-.21,0-.57-.65v-.94l-.65-1.7L611.1,154c-.24-.57-.47-1.15-.71-1.72s-.53-1.09-.79-1.63l-.43-.83-.71-.67-.29,0-.71-1.41-1.07-1-.36-.6-.36-.7-.57,0-.57-.23-.36-1.33-1.07-.23-.36-.6-.21-.36-.79,0-.57-1.06-.36-.71-.21-.15c0,.1-.05.2-.07.3l-.72-.36-.78-.9-.65-1.08-1.14-.25c-.14-.2-.28-.41-.43-.61s0-.5-.07-.75h-1.93l-.64-.66-.93.74c-1.24-2.3.53-4.85-2.43-7.62l-1.36-1.44-1.14-1-.5-.52c0-.08,0-.15-.07-.23l-.43-.72-.71-.36-.07.2h0l-1.36-1.44-.36-.18c1,2.92,2.24,4.18,3.5,7l.72,2,.57,1.89c.23.75.47,1.5.71,2.24l.43.93.78.69-.28.15c.09.47.19.94.28,1.41v2.09l.58,1.27-.36.66-.5.31.28.48c-.09.25-.19.51-.28.77L590.6,147l-.5-.11-1.15.49-1.5,1.14.79.38.79,0c.16.28.33.55.5.83l.42.83.15.55c-.07.16-.15.32-.22.47l-.93-.4-1.5-.64-.64-.24-.28-.06-.51-.74c-.09-.36-.19-.73-.28-1.1-.24-.78-.48-1.56-.71-2.34L584,144l-1.14-2-.5-.63-.71-.88-.72-.57c-.16-.56-.33-1.12-.5-1.67l-1.29-1.64-.49-.83c0-.18,0-.36-.08-.54l-.71.17-1.14.38-1.15.8-.93,1.26c-.35.45-.71.89-1.07,1.34l-.36.55v1.46c-.09.68-.19,1.35-.28,2l-.78,1.61L571,146.3l-1.36,1-.57.4-.14.39-1.07.19-.72,1.2,1.29,1.32v.41c-.07.55-.14,1.09-.22,1.63l-.85,1.28v1.36c.12.4.23.81.35,1.22l.72,1.5c.59.62,1.19,1.23,1.78,1.84,3.42.8,6.62-2.32,10.08.36l-.22.26-1.07.09-1.64,0-1.93.22-1.72.06-.78.14-.93.12-.86.65.36,1.34.36.28,1.21.36,1.72-.16.57-.09,2,.42,2.21,1.1.43.3.57-.5,1.15-.28.21-1,.79-.25.28-.46v-.42l.65.34v-.2c0-.48.09-1,.14-1.43l.57-1.34c0-.18,0-.36-.07-.54s.19-.23.29-.35l1,.31.29.17.93,1.24.64,2c-.16-.18-.33-.35-.5-.52l-.43-.41.08.33.21,1.19c-.1.5-.19,1-.29,1.51l-.21-.05-.57.71-.93.74.22.26c-.1.46-.2.93-.29,1.4s-.1,1-.14,1.43c-.08.16-.15.31-.22.47l-.21,2.15.57,2.83.43-.22.21,0,.64-.39.58-1.23.21,0,.86-.65.78-1.29v-.52l.79-.77.86-1.28.21-.06.57-.71c.17-.34.34-.69.5-1l.36-.34c.24-.61.48-1.22.71-1.83,0-.41,0-.82.08-1.24l.57-1,.35-.13.15-.6.57-1.23.21-1.31c.07-.44.15-.87.22-1.31l.36-1.28c0-.24,0-.48.07-.72.89,3.85-2.54,12.46-3.86,15.77l-.29.14c-.09.47-.19.93-.28,1.4l-.65,1.64-.21,1.41c-.1.29-.19.59-.29.88a17.9,17.9,0,0,0,0,11.79l.08-.2.42-1.15c.27-.5.53-1,.79-1.51l.5.63.5,1.26.43-.64.57-.29.36-1.39c.11-.67.23-1.34.35-2l.15-1-.15-.34.5.21,1.08-.82,1.71-.15.36.6-.36,1.7c-.14.84-.29,1.68-.43,2.51l-.21.17c-.07.4-.15.8-.22,1.2-.21.69-.43,1.37-.64,2.06,0,.35.1.71.14,1.07,0,.65-.09,1.3-.14,1.95l-.21,2.25v2.09c.14.58.28,1.17.43,1.76.21.32.42.65.64,1,0-.16.09-.33.14-.49,0-.77-.1-1.55-.14-2.32s.09-1.79.14-2.69l.36.08.5-1.25.36-1.9c.21.29.42.58.64.86l.14-.49.36-1.9.57-2.17.5.63c.05.42.1.85.14,1.28L600,189l.42-1.06c.15-.42.29-.84.43-1.26.15.24.29.48.43.72s.19.53.29.79l.14-.28.21-1.94c.22-.61.43-1.23.65-1.84l.21,1.82.57,3c0,.5.05,1,.07,1.48v.94l-.57.61-.28.35v.73l-.43-.09-.57,1.34c.05.7.09,1.41.14,2.11l-.43.33-.5-.11c0,.49,0,1,.07,1.48v.21c0,.35.05.7.08,1l-.51.83c1,3.82-.54,5.11,1.15,8.6.05-.34.09-.68.14-1l.43-.22c0,.11.09.23.14.34.17.59.34,1.18.5,1.78s.53,1.36.79,2l.5.11.64,1.19,1.22,1.41-1.08-12.13c.1-.19.2-.37.29-.56l.43,0c3.91,24.38,5.57,16.78,2,42.59-1.64,6.68-.14,13.28-4.86,15.95l-1.14.17-.43-.09-.86.13-.5.51-.36,0-.21.27-.72,1.51c-.11.85-.23,1.69-.35,2.54l.93.93.28-.15c.15-.6.29-1.19.43-1.79l.65-1.84.14.34.21,1.62c.14.69.29,1.38.43,2.07l.5.32.86-.44.57-2.28c.09.4.19.81.28,1.21s.43.93.65,1.39l.64.77a27.19,27.19,0,0,1,4-5.19l.86-.75.57-1,.71-.58.79-1.08c.29-1.85.57-3.7.86-5.55,1-3.33,2.14-1.24,2.71-6.51.2-2.41.7-4.69.93-7.1.1-.43.19-.86.29-1.29l.36-1.17c.16-.49.33-1,.5-1.46l.57-.5,1-1.35.64-1.74c.07-.71.14-1.43.22-2.14s.19-1.42.28-2.13v-1.25c.1-.4.19-.8.29-1.19s.33-.83.5-1.25c2.6-5.06,3.27-3.51,5.35-9.89-.09.78-.18,1.56-.28,2.34l-1.14,2.77V221c.09.3.19.6.28.9l.5.53,1.43.31,1.79,0c2.88.86,7-1.3,9.57-2.61,4-2.31,6.75-.55,11.15,1.91l1.85,1.44.86,1,1.29,2.67c.43.93.86,1.86,1.28,2.79l1.5,2.93,1.36,2.59,1.5,2.93c11.11,18.35,7.52,6.94,12.58,29.63,1.78,5,1.69,7.5-1.93,8.35l-.93.43-.93.73-.93.75-.57,1c-.1.43-.19.86-.29,1.29.15.38.29.76.43,1.14l.43-.12v-.52l.15-.59,1-1.56,1.86-.54-.28.25c-.29.43-.58.85-.86,1.28l-.43,2,.79,1.11,1,.22c0-.21,0-.41.07-.62.16-.59.33-1.18.5-1.77l1.28-1.5v.42c-.11.6-.23,1.2-.35,1.8l.21,2c5.93-1.42,3.67-.18,4.65-7.15,2-5.2.45-8.54-.94-14v.11l-.57.71c-2-5.24.13-11.11-.07-16.5l-.21-1.19-1.08-1.9c-.3-.62-.61-1.25-.92-1.87l-.86-1.95-.57-2-.43-.83c-.1-.37-.19-.73-.28-1.1l-.36.55-.5.1.21-1.83c.1-.3.19-.59.29-.88l.64-.8.64-1.11.15-.39c.12-1.05.24-2.1.35-3.16l.51-2.92.57-3c1.22-7.08,2.14-14.78.56-22.51l-.21,0-.92.12-1,.09c1-1.73,2.41-3.59,3.43-5.42,1.23-2.86.91-4.36,1.36-7l.64,1.07.36-1.27.15-1.23.57-.81c.16-.7.33-1.4.5-2.09,0-.37.09-.74.14-1.11v-.53l.57.13v-.32c.07-.19.14-.39.22-.58,0-.61.09-1.23.14-1.85l.64-1.74v-1.46c0-.45-.05-.91-.07-1.37l-.21-1-.15-.35.86.18.14-.49c-.09-.75-.19-1.5-.29-2.25v-2.5l.5.94c.1.3.2.59.29.89.57-2.63-.79-8.81-1.64-11.72Z" style="fill: #fff;fill-rule: evenodd"/>
    <path d="M642.32,180.27l.08-.29h0C642.37,180.07,642.35,180.17,642.32,180.27Z" style="fill: #fff;fill-rule: evenodd"/>
    <path d="M576,141l-.57-.64L575,140v.31l.36.28c.26.58.52,1.16.79,1.74v1.87l.21,0,1-.62.86-.55-.86-.6Z" style="fill-rule: evenodd"/>
    <path d="M582.24,149.93l-1.07-.75-.86-.91-1.5-.64-.79-.48-.28-.37c0,.3-.1.61-.14.91l1,.21.78.48.79.9.29.06.71.57,1,1.15.57.12.5-.1-.22-.15Z" style="fill-rule: evenodd"/>
    <path d="M588.81,152.27l-.5-.21-.29-.37a1.42,1.42,0,0,0-.07-.22l-.71-.68-.86.34.86,1.54.22.05,1.5.52,1.42.1c-.21-.25-.42-.51-.64-.76Z"/>
    <path d="M587.74,153.4c-.17-.17-.33-.35-.5-.53l-.43-.3-.28.26c0,.45,0,.91.07,1.37l.35.07,1.36.61,1.64.87-.71-.88Z"/>
    <path d="M586,154.91v.94l.36.81L586,157c0,.3-.09.6-.14.91l-.85-.08v.52l.21.15,1.29,1.11,1.42,1.24-.85-1.74.71.15.86.81V160l-.36-.8-.36-.92.08-.19.92.2.93,1.14h0c0-.22-.09-.44-.14-.66C588.31,156.17,587.85,156.1,586,154.91Z" style="fill-rule: evenodd"/>
    <path d="M601.74,171.13l.36-.56.43-1.15c-.34.55-.67,1.11-1,1.66Z"/>
    <path d="M601.88,173.45,600.74,175l.43.09.79-.77.71-1.3c0-.24.05-.48.07-.72v-.52l-.07.4C602.41,172.59,602.15,173,601.88,173.45Z" style="fill-rule: evenodd"/>
    <path d="M599.74,177.68l-.36.45.15.24-1.07,1.33-1.36.75.36,1,.5-.21c1.12-1.21,1.85-3,2.85-4.39l-1,.2C599.79,177.27,599.76,177.48,599.74,177.68Z" style="fill-rule: evenodd"/>
    <path d="M639.4,202.17l.64.66.57-.6v-.42l-.64-.87Z"/>
    <path d="M649.25,203.69l-.43-.2-.21.48-.86,2.52c-.21,1.07-.43,2.13-.64,3.2l.43.62.43,0c.4-2.06,1.07-4,1.43-5.94h0Z" style="fill-rule: evenodd"/>
    <path d="M649.82,207.89l-.42-.41c-.27,1-.53,2-.79,3.06l.36,1.54,1,.74v-.42c-.12-.41-.24-.82-.35-1.23.11-.7.23-1.4.35-2.1Z"/>
    <path d="M668.83,214.81c-.29.35-.57.71-.86,1.07l-.92,1.47-1,1.14c-.11.22-.23.43-.35.65l.14,1.49v1.15l.5.11.72,1.82c0,.91,0,1.82.07,2.73l.5.52L668,229c0,1.14,0,2.28-.07,3.42,1.63-3.44,2.71-1.3,1.93-6.78.05-.44.1-.88.14-1.33l.15-.38c-.1-.37-.19-.74-.29-1.11.08-.47.15-.94.22-1.41-.07-.29-.14-.59-.22-.88l-.28-.48.07-.82.35-.45c0-.49-.09-1-.14-1.48.22-.52.43-1,.65-1.54,0-.27.09-.53.14-.8v-.42h0l-.65-.14Z" style="fill-rule: evenodd"/>
    <path d="M663.54,248.73l-.71,1.3-.72,1.52c-.11.49-.23,1-.35,1.49l-.36,1.9-.36,1.8c-.09.57-.19,1.14-.28,1.72s0,1.24-.07,1.85-.19,1.15-.29,1.72-.1,1.37-.14,2.05,0,1.17-.07,1.76l-.72.89-.43-.82.15-2v-1.78c0-.65.09-1.3.14-1.95s0-1.31.07-2,.05-1.17.07-1.76.1-1.16.14-1.74l.14-1.95c.1-.57.2-1.14.29-1.71l.36-1.7.36-1.69c-.33-.87-.67-1.75-1-2.62v-.31l-.35.55-.36.23-.42-1.13c0-.57,0-1.13-.08-1.69l-.21-.88v-.42l-.14,0-.65-.24-.64-1.29-.86-.29-.21-2.34c-.1-.3-.2-.6-.29-.9l-.35-.39v.94c-.08.37-.15.73-.22,1.1-.14-.45-.28-.89-.43-1.34l-.57-2c-.05-.28-.09-.57-.14-.86-.07-.12-.14-.24-.22-.36l-.14.8-.29.25c-.14-.51-.28-1-.43-1.55l-.57-2.31-.49-1c-.08-.22-.15-.45-.22-.67l-.15.28v3.65h-.06l-.29-.69-.15-1.28c-.11-.34-.23-.68-.35-1s-.19-.87-.28-1.31l-.37-.5-.21-.25v.31c0,.46,0,.91.07,1.37s0,1.1-.07,1.65c-.21-.39-.43-.78-.64-1.18l-.36-1.74-.21-.89-.15-.44v1.25l-.07.71-.5.11-.42-1.46-.51-2.3c0-.42,0-.84-.07-1.26,0-.15-.09-.3-.14-.45h0c-.14-.76-.29-1.53-.43-2.29l-.29-.16c.34,10.2,1.83,10.41,6.79,16.81,3.35,3.65,6.43,9.86,5.22,15.63-.1.71-.19,1.42-.29,2.13s-.33,1.18-.5,1.77-.24,1.27-.35,1.91-.43,1.15-.65,1.73-.33,1.18-.5,1.77l-.86,1.59c-.16.62-.33,1.25-.5,1.88l-.42.43c-2.52.18-5.22-1.67-4.93,4.45l.21-.06c.22-.37.43-.74.64-1.11.22-.54.43-1.09.65-1.63,0,.46.09.92.14,1.38l.21,1.82.36.61,1.07-.3c.34-.72.67-1.45,1-2.17l.21,1.39c0,.53,0,1.06.07,1.59l1.71,1.1.72-.37.64-.49.57-.81c.22-.4.43-.81.64-1.21,2.6-4.6,2.83-.8,3.22-4.95,1.05-5.48.59-13.52,3.57-17.06l-.5-.32Z" style="fill: #fff;fill-rule: evenodd"/>
    <path d="M603.89,216.14l-.58-1.17c-.18-.42-.37-.84-.56-1.27-.08-.19-.15-.38-.22-.57l-.43-.19c.6,12.16,2.58,26.43.71,37.81a6.4,6.4,0,0,1-5.5,4.56l-.71-.05-.5.1c-.29.63-.57,1.26-.86,1.9l-.21,2.87.21.05.65-.49c.16-.38.33-.76.5-1.14l.71.67V260l.86-.86,1.07-.91.5.32,1.07,0h.93l.79-.56c2.34-1.8,1.76-5.77,2.5-9.06,2.11-13.64,2.43-18.61-.93-32.75Z" style="fill: #fff;fill-rule: evenodd"/>
    <path d="M616.81,231.68l-.92.73-.78,1.61.28.06,1,.43,1.22-1v-.11c0-.4.09-.81.14-1.22l-.65-.76Z" style="fill-rule: evenodd"/>
    <path d="M658.33,264.4v-1c-.05-.36-.1-.71-.14-1.07,0,.24-.05.48-.08.71-.09.44-.19.87-.28,1.3l-.57,1.23c-.17.38-.34.77-.5,1.15l-.72,1.2-.29.46-.56.5v.94c1.46.41,2.79-3.66,3.14-5.27h0Z" style="fill-rule: evenodd"/>
    <path d="M682.76,297.81c-.16-.46-.33-.91-.49-1.36l-.65-1.5c-1.25-4.07-1.3-4.38-3.36-7.81-2.18-4.53-3.79-1.58-6.5-1.91l-1.21-.88-2.93-.63-.5-.21c-.07-.23-.15-.45-.22-.67l-1.71-.89c-.05-.15-.1-.3-.14-.45l-.15-.35V280c.1-.5.19-1,.29-1.51l.21-.58,1.07-1.44,1.72-.67a34,34,0,0,0-7.79-5.23c-3.59,0-1.2,5.52-6.5,4.33-3-2.23-3.75-.57-5.93-3l-.22-.88v-1.66l.22-1.52.57-1.34.57-1.23.51-.31h0c-.27-.19-.53-.39-.79-.59-6.42-3.1-8.05-3.08-14.58-3.17-5.32.72-10.47-.95-15.86-1.58-2.3-.49-6.62.41-8.15,2.61-3.35,3.23-2.79,6.58-5.57,7.55l-.64-.45-1.07-.75-1.29.66-2-1.37-.93-.41-.64-.14-.29-.17c-.23-.61-.47-1.21-.71-1.82v-2.5c-2.91.39-3.34-2.63-6.07.15-2.37,1.3-4,3.32-6.29,5.12-3.83,3.22-7.32,4-8.57,11.84a6.71,6.71,0,0,1,6.5-1.43l.78.37.43-.22,1.15-.38,1.14-.49,1.14-.27c3.85.73,1.19-.26,5.15-1.19a13.56,13.56,0,0,1,5.92-.4c3.38.9,2.8.76,6.15-.44,4.58-1.4,2.72-.09,6.72.62,5.46.4,8.15-2.5,14.21.7,2.56.2,5.08.13,7.65.52,4.36.61,3.22,2.15,7.86,2.65,2.26.93,5,1.35,7.21,2.83,3.76,2.81,3.12,3.21,6.94,3.69l2.07.76,2.14,1,1.86,1.34.92.82,1.37.09a22.39,22.39,0,0,1,6.21,2.27l1.21.89,1.15,1.08,1.14,1.18,1.14,1.08.86.08,1.86.5,1.64,1.29,1.79,1.11,2,1.16.86.39c.11-.19.23-.37.35-.55s.1-.47.14-.7l-.57-1.38C683.1,298.57,682.93,298.19,682.76,297.81Z" style="fill: #cdcdcd;fill-rule: evenodd"/>
    <path d="M640.75,283.43c2.31,4.16,5.21,8.85,8.94,8.3.11.34.23.68.35,1-2.24.47-6.3-1.4-7.79-4.61h0l-2.43-3.66c-2.69-4.42-8.24-5-11.5-4,.8,3.83,2.32,4.41,3.36,8.66,1.46,4.27,1,4.2,3.43,8.47,4.93,7.95,10,7.8,16.21,10.52a17.84,17.84,0,0,0-8.28-8.69l-1.36-.92-1.5-.85L639,296.6l-.79-.58-1-.64-.36-.91c0-.11,0-.22-.07-.33,2.74,2.68,7.68,3.53,11.22,6.72,2.4,1.92,4.4,8.48,8,7.79C654.25,296.26,651,283,640.75,283.43Z" style="fill: #d51810;fill-rule: evenodd"/>
    <path d="M632,295.91c-.09.36-.19.72-.28,1.08l-.22.27-.93.53-1.07.29-1.71-.59-1.71-1-1.72-1.11c-3.4-2.8-8-9.3-11.58-10.87l.15-.8c5.9,1.41,10.72,11.77,17,12.37l.64-.49.51-1.25c0-.27.09-.53.14-.8v-.63c-.22-.6-.43-1.2-.65-1.81-.94-2.86-1.54-6-2.78-8.64h0l-1.29-2.37c-3.4-2.6-7.13-3-10.36-1.42l.36.6.64.24,2,1.8,2.36,2c-.33-.45-.66-.91-1-1.36l-1.57-1.08-.65-.87-.42-.41c.12-.25.24-.5.35-.75l.36.39.36-.13.71.68,1.5,1.26,1.29,1.33,1.28,1.42,1,1.89c.09.37.19.74.28,1.11l-.28.46-.79-.07L622.32,286l-1.57-1.38L619,283.28l-1.43-1.35L616,280.74l-1.79-1.23-1.5-.95c-2.81-1.18-4-1.52-6.5-.47l-1.35-.09-1.22.05c-.22.3-.43.61-.64.91s-.14.52-.22.78l.22.26.64.56,1.07-.08a17.22,17.22,0,0,0,1.71,7.67l.65,1.29.64,1.29c.22.39.43.78.64,1.17l.93,1.15c2.24,2.73,1.77,2.24,4.29,3.54l.79.59,1.21.36.86-.33.43-.22c-.07-.43-.15-.86-.22-1.3l-.85-1.12-.65-.56-.28-.17c0-.2.09-.4.14-.6l.43.2,1.43,1.05,1.42,2.81,1,.22,1.07.13c-2.16-3.27-3.12-2.71-4.79-4.8-.14-.27-.28-.55-.43-.82-.45-.52-.9-1-1.36-1.55l-1.5-1.89-.93-.2-.49.1v.62l.49,1.36c.34.59.67,1.19,1,1.79l-.29.45-.43.12-.93-1-.57-1.89v-1.78l.57-.71,1.29-.24,1.93,2c6.3,5.57,13.42,14.41,20.57,11.27q-1.25-2.93-2.5-5.87Z" style="fill: #fedc00;fill-rule: evenodd"/>
    <path d="M675.62,319.24l-.86.12-1,.11-.36-.29-.35-.18-1-.63-.72-1.09-.78-1c-.15-.48-.29-1-.43-1.45,0-.17,0-.35-.08-.53.15-.14.29-.29.43-.43.52,1.74,2.45,4.19,3.72,3.92l.21-.16.64-.49c.2-.41.39-.82.58-1.23v-.42l-.58-.33-1.28.45-.79-.27-1.14-1.18-.36-.5-.21-.46-.57-1.16v-1l.21.36,1.08,1.38,1.71,1,.28,0,.72-.79c.17-.48.33-1,.5-1.46a31.69,31.69,0,0,0-1.79-10.18,11.08,11.08,0,0,0-6.79-7.41l-2.07-.44-.07.08c-.16.11-.33.21-.5.31-.14.32-.28.64-.43,1,.15.31.29.62.43.93l.72,1.41c.28.58.57,1.16.85,1.75l.79,1.52.93,1.35.57.64.93.62.86.08c-1.41-3-3.36-2.08-3.72-5.7a28.21,28.21,0,0,0,4.22,4.35c.14.24.28.48.43.71l.14.25.14,1.07-.64,1.11-1.07,0c-3.34-1.24-4.91-7.71-7.08-11.23h0l-1.64-1.81-1.86-1.55-1.85-.82-2-.33-.78.14-.72.48c.05.25.1.5.14.76l.93,2.7,1.29,3.52.22-.06,1.14-.38,1.43.31v.31l-.5.52L657,298l-.29.46-.42,2.42.36,3.1.21,1,.36,1.65c.24.53.47,1.07.71,1.61s.29,1,.43,1.55l1.07,1.28.57.33c-.43-1.27-.86-2.55-1.28-3.82v-.42c0-.67-.1-1.34-.14-2,.23-.75.47-1.5.71-2.25l.71-.26,1,.63c.16,1.38,2.37,6,2.79,7.39.09.33.19.66.29,1l.07.43c.33.38.66.77,1,1.15.16.56.33,1.12.5,1.67-2.5-3.05-1.69-3.06-2.86-5-.45-1.87-1.47-3.68-2.79-4.26,0,.2-.09.4-.14.6V309c.33,1.15.67,2.3,1,3.45l.86.5,1.5,1.05,1.5.74,1.71.69,1.72.78.78.28a60.67,60.67,0,0,1-3.28-10.73l-.29-1.1c-.17-.42-.33-.84-.5-1.25s-.28-.83-.43-1.25l-.64-.76-.36.13c0,.63,0,1.26.07,1.9s.05,1.54.08,2.31l-.51-1.68c-.23-.81-.47-1.63-.71-2.45v-1c.09-.26.19-.52.29-.78l.14,0,.71-.06,1,.64c.27.5.53,1,.79,1.52l.5,1.47c.21.49.43,1,.64,1.49s.19,1,.29,1.52.33,1.19.5,1.78.28,1,.43,1.55.23.89.35,1.33c1.59,6.27,4.42,10.13,9,10.07-.22-.61-.43-1.21-.65-1.81Z" style="fill: #fedc00;fill-rule: evenodd"/>
    <path d="M608.75,295.23l-.79-1.11-.72-1.4-.57-1c-.21-.4-.43-.79-.64-1.18a18.5,18.5,0,0,1-2.14-8.19l-.36-.28-.72-.37-.71-.36h0l-1.29-1.85c-3.71-2.46-7.18-.52-10.5.87l.71.26,1.51.74,1.42.93,1.51.64,1.5.32.57,0,.5-.41.21-.79-.14-.24-.64-.14c-.07-.33-.15-.66-.22-1l.57-.61.79.37.57,1.27c.07.47.14.94.22,1.41l-.08.3c-.09.46-.19.93-.28,1.4l-.93.84h-1l-1.22-.26-1.21-.47-1.21-.68c-1.64-.62-9.63-7.24-6.22.65a77.23,77.23,0,0,0,5.86,12.32l1.57.65.71-.58,1.36-1.38,1.29-1.39,1.28-1.18c1.78-.95,3-1.19,4.58,1.3v.94l-.51.41-.63-1.28c-2.23.34-3.83.8-4.94,3.62,4.14-.14,8.59,1,12.08-2.18l-.5-.63C609.17,295.47,609,295.35,608.75,295.23Z" style="fill: #d51810;fill-rule: evenodd"/>
    <path d="M645.68,295h0l-.78-.48c-1.82-.85-5-5.11-7.07-6.45l.56.86,1.58,2.22,1.5,2c.54.61,1.09,1.22,1.64,1.82l1.93,1.15.78.28.65,0,2.5.13,3.14,1.1C649.31,293.55,648.74,296.3,645.68,295Z" style="fill-rule: evenodd"/>
    <path d="M691.62,311.67l-.36-1.11-1-1.05-1.21-1.19a25.18,25.18,0,0,0-9.29-6.25c3.81,9.16,6.08,10.34,11.43,15.36l-.21.37L686.19,314h0l-1.14-1.19c-1.62-1.86-3.79-6.28-5.29-8.53l-1-1.46c-.33-.39-.67-.77-1-1.15l-1-1.16-.29-.06-.85-.49-.93.22q1.57,9.76,3.14,19.55l.64,1.39,1.44,2.6c.5.73,1,1.46,1.49,2.2l1.93,1.56,2.15,1.07.85.29.79.17,1.43.4c5.54,1.15,5.21,2,5.57-7.28-.06-2.41-1.73-6.77-2.29-9.25Z" style="fill: #d51810;fill-rule: evenodd"/>
    <path d="M590.38,297.11c-.21-.25-.42-.51-.64-.76l-1.43.63-1.5-.22-1.36-.71-1.43-.93-.57-.43-.78-.48-.14-1c0-.24.09-.47.14-.7,1.73,1.42,4,3.42,5.57,1.61-.1-.34-.19-.67-.29-1-4.67-.94-4.05-1.49-7.93-4.72l.15-1,.57.53,1.21.89,1.29.58,1.14.56,1.65.67.5.1.43-.32c.09-.26.19-.52.28-.77h0l-.43-1.14c-2-6.32-7-9.9-10.43-6-1.42,1.38-3.08.81-4.36,2.52-1.53,3.42-1.29,1.84,1.36,5-1.33,1.11-5,.37-5.86,3.66v.74c0,.9,0,1.8-.07,2.7.34,1.07.67,2.15,1,3.23l.22.36,1.35,1.43,1.86.39-.36-1.22V301c0-.57-.09-1.14-.14-1.7.21-.62.43-1.23.64-1.85l.15-.28.78-.26,1.22-.05c4.16,2.71,6,5.21,10.86,5.54.05-.3.09-.61.14-.91-1.77-2-4-2.94-5.57-5.46l-.65-1-.28-.17-.65-.87-.42-1.44c3.43,2.65,4.12,4.38,7.43,6.9l1.14.66,2.29.49.35-.13.93-.63,1.07-1.44c0-.15,0-.29-.07-.44Z" style="fill: #fedc00;fill-rule: evenodd"/>
    <path d="M601.53,289.08l-1.29-.91c-3.84-1.61-8.17-.38-11.57-4.68-.07.34-.14.67-.22,1,6.95,7.51,6.67,4,13.43,5.71,0-.18-.09-.37-.14-.55Z" style="fill-rule: evenodd"/>
    <path d="M687,319v.42l.93,1.24c.23.47.47.94.71,1.4l-.07.19-.5.53-1.07-.33h0l-.93-.93c-3.24-3.65-3.92-8.53-8.07-10.79,1.6,3,2.06,1,3.64,4.84,2.08,2.56,1.43,4,3.93,6.57C688.84,326.87,691.82,322,687,319Z" style="fill-rule: evenodd"/>
    <path d="M577.74,301.61l-3-1.89-.86-.6-.86-.28-.07.08-.64.6-.07,1.55c1.21,2.12,4.06,2.86,6,3.67l.93-.22.92-.53.65-.91.29-.25h0l-1.79-.59Z" style="fill: #fedc00;fill-rule: evenodd"/>
    <path d="M630,338.46h0l-2.85-.42c-36.63.19-31.28,77,5.71,82.11C667.63,420.2,665.1,348.34,630,338.46Z" style="fill: #0738ac;fill-rule: evenodd"/>
    <path d="M624.11,384.34v-8.66l-5.94-9.85-6,7.25v8.66q-2.94,3.69-5.86,7.39l23.57,5.13,0-.05Z" style="fill: #fff;fill-rule: evenodd"/>
    <path d="M647.68,380.82,641.75,371h0l-5.93,7.26v8.66l-5.89,7.32,0,.07,23.64,5.15q-3-5-5.93-9.95Z" style="fill: #fff;fill-rule: evenodd"/>
    <path d="M635.9,404.12,630,394.17l-5.85,7.38v8.56l-4,4.86,9.86,5.18,9.86-.77-3.92-6.7Z" style="fill: #fff;fill-rule: evenodd"/>
    <path d="M604.67,390.86q1.32,3.67,2.65,7.35l4.78,8.66v-7.93q-2.93-5-5.86-9.93Z" style="fill: #fff;fill-rule: evenodd"/>
    <path d="M647.68,406.69v8.56l3.93-5.2,3.58-8-1.58-2.74Z" style="fill: #fff;fill-rule: evenodd"/>
    <path d="M635.9,352.38l-5.94-10-5.85,7.39v8.55l-6,7.35,23.64,5.16-5.85-9.94Z" style="fill: #fff;fill-rule: evenodd"/>
    <path d="M612.1,344.06l-5.93,8.31L603,362.42l15.14,3.29-6-10Z" style="fill: #fff;fill-rule: evenodd"/>
    <path d="M647.68,351.71V363.5l-5.93,7.37,15,3.25q-1.62-5.92-3.22-11.86Z" style="fill: #fff;fill-rule: evenodd"/>
    <path d="M508.53,641s8.09,23.76,9,32.28,2.38,25.48,2.86,28.35L527.09,721s1.43-4.59,2.38-14.14-1.42-21.83-4.28-34.2S508.53,641,508.53,641Z" style="fill: #187b01;fill-rule: evenodd"/>
    <path d="M508.89,640.41l-2.21-3.09,1.35,4c.08.23,8.06,23.73,9,32,.44,3.9,1,9.47,1.47,14.86.61,6.42,1.13,12,1.4,13.56q3.63,10.59,7.27,21.19l.47-1.49c.06-.2,1.47-4.8,2.42-14.34,1-9.77-1.5-22.41-4.31-34.6C522.85,660,509.46,641.19,508.89,640.41Zm20,66.22a95.88,95.88,0,0,1-1.92,12.3q-3-8.76-6-17.5c-.26-1.66-.79-7.31-1.36-13.29-.51-5.39-1-11-1.47-14.9-.73-6.46-5.36-21.17-7.73-28.41,4,6,12.17,19,14.24,28C527.42,684.81,529.85,697.2,528.91,706.63Z" style="fill: #1e501f;opacity: 0.9411764740943909"/>
    <path d="M510.41,643.61l-.9.85c.09.19,9.44,19.77,10.36,27.32s1.89,36.8,1.9,37.09l1.13.14c0-1.2-1-29.52-1.91-37.32S510.8,644.42,510.41,643.61Z" style="fill: #1e501f;opacity: 0.9411764740943909"/>
    <path d="M541.37,738.41c-1.9-.39-14.28-9.1-20.46-10.28s-14.76,11.12-14.76,11.12,8.09-2,13.8-.88,11.43,9.17,17.14,10.31,18.56,5.14,18.56,5.15q-7.14-7.73-14.28-15.42Z" style="fill: #187b01;fill-rule: evenodd"/>
    <path d="M541.37,737.58a37,37,0,0,1-5.13-2.82c-4.76-2.83-11.28-6.69-15.33-7.46-6.37-1.23-14.83,10.8-15.18,11.31l-1.35,1.94,1.93-.47c.08,0,8.08-2,13.64-.88,2.75.53,5.6,2.82,8.35,5s5.82,4.69,8.79,5.28c5.63,1.11,18.39,5.09,18.52,5.14l2.39.75-16.47-17.79Zm-4.28,10.26c-2.74-.54-5.59-2.84-8.35-5.06s-5.82-4.67-8.79-5.24c-4-.78-9.17-.06-12,.46,2.65-3.35,8.5-9.89,12.91-9,3.9.75,10.34,4.55,15,7.35a40,40,0,0,0,5.26,2.89l12.12,13.08C549.32,751.05,541.27,748.67,537.09,747.84Z" style="fill: #1e501f;opacity: 0.9411764740943909"/>
    <path d="M507.3,737.34c.19.52.37,1,.55,1.56.1-.06,9.45-5.78,14-4.89s23.51,9.43,23.7,9.54c.07-.53.13-1.06.2-1.6-.78-.37-19.15-8.71-23.9-9.6S507.7,737.09,507.3,737.34Z" style="fill: #1e501f;opacity: 0.9411764740943909"/>
    <path d="M603.25,768.1c-2.85-5.49-9-29.06-11.42-35.14S578,702.9,578,702.91s1.42,35.05,3.33,45.19,22.84,43.83,22.84,43.84l21.9,17.27s-5.71-5.41-8.57-8.82S606.11,773.58,603.25,768.1Z" style="fill: #187b01;fill-rule: evenodd"/>
    <path d="M609.07,780.27c-2.27-5.59-4.23-10.41-5.39-12.62-1.64-3.16-4.51-12.78-7-21.26-1.8-6-3.35-11.25-4.34-13.76-2.37-6-13.37-29.16-13.83-30.14-.38-.79-.76-1.58-1.13-2.37,0,.91.07,1.81.11,2.72,0,1.43,1.45,35.26,3.35,45.37s22.14,42.85,23,44.24l.08.14q11,8.65,22,17.35c.16-.47.31-.94.46-1.42-.05,0-5.71-5.42-8.5-8.75C616.22,797.83,612.25,788.09,609.07,780.27Zm-4.55,11C603.1,789,583.69,757.46,581.9,748c-1.55-8.28-2.81-33.83-3.19-42.27,2.95,6.22,10.74,22.75,12.64,27.58.94,2.42,2.56,7.83,4.26,13.57,2.56,8.58,5.46,18.32,7.21,21.68,1.1,2.11,3.14,7.12,5.3,12.42,3.57,8.78,7.27,17.87,9.1,20,.24.29.51.6.79.91Z" style="fill: #1e501f;opacity: 0.9411764740943909"/>
    <path d="M539.47,771.39c-5.24-1.82-37.6-24.66-37.6-24.59S529,788,539.47,792.25s36.18,5.35,40.46,4.9S602.78,795.79,608,799s20,10.61,20,10.61q-21.18-16.1-42.36-32.12C585.64,777.45,544.71,773.05,539.47,771.39Z" style="fill: #187b01;fill-rule: evenodd"/>
    <path d="M585.6,776.68c-.41-.11-41-4.48-46.08-6.1-5.1-1.78-37.14-24.38-37.46-24.53l-2.65-1.84,2.07,3.14c1.12,1.63,27.39,41.44,37.91,45.71a46.68,46.68,0,0,0,7.58,2.1c12.09,2.44,29.48,3.22,33.08,2.83,4.47-.51,22.79-1.3,27.81,1.8,5.2,3.19,19.89,10.56,20,10.63l.3-1.53q-21.24-16.12-42.48-32.2Zm22.56,21.57c-5.67-3.5-25.55-2.27-28.35-1.94-4.44.47-29.94-.79-40.26-4.87-8.49-3.42-28.56-32.33-35.16-42,8,5.46,30.62,21.27,35,22.77,5.13,1.63,43.21,5.74,46.14,6.13q17.76,13.41,35.51,26.91C616.52,802.9,611,800,608.16,798.25Z" style="fill: #1e501f;opacity: 0.9411764740943909"/>
    <path d="M588.53,754.82c-3.26-10.22-8.47-49.86-8.52-50.26l-1.12.08c.22,1.64,5.29,40.27,8.62,50.71,3.44,10.77,24.91,44,27,45.2.09-.52.19-1,.28-1.55C613.23,797.93,592,765.66,588.53,754.82Z" style="fill: #1e501f;opacity: 0.9411764740943909"/>
    <path d="M733.8,890s-23.32-25-32.64-31.87c-9.33-6.57-110.61-78.37-115.27-82.22s-21-33.55-24.4-52-6.25-39.12-6.25-39.12,0,30.85,4.51,46.32c4.41,15,14.07,32.25,15.31,36.15-1.24-.3-33.08-30-42.23-45s-27.56-57.94-27.56-67.65S503.61,590,503.61,590q-.84,28.13-1.67,56.23s-11.33-31.23-12-46.9-2-30.51,1.34-36.74,12-15.36,12-15.36-12,7.56-14,12.09-3.32,8.18-3.32,8.18-4-37.66-2.67-42.3,7.33-3.6,7.33-3.59l-5-3.67-4.33,3s-2-16.88,0-20.43,6.66-1.78,6.66-1.78l-6-4s-1.33-9,2-13.28a29.68,29.68,0,0,0,4.66-8.92l-6,2.86q2-8.91,4-17.8s-7.25,14.34-7.75,20.45-.25,38.17-.25,38.17c-3.16-.41-6.31-.81-9.47-1.2q4.86,2.25,9.72,4.52s1,24.19,1.5,28.28,2,22.18,2,22.18q-5.48-9-11-17.85s12.72,27.59,13.46,37.2.5,12.83.5,12.83q-8.1-11.24-16.2-22.37S488.33,610,490.08,618s5,20.54,5,20.54-7.48-9.7-10-11.94-9.72-6-9.72-6S486.59,633,490.83,641s13.7,26.47,17.44,37.73S523,713.21,523,713.22s-6.48-6.72-13.21-12.71-20.69-11.4-20.69-11.38,21.69,18.06,30.41,27.42,32.15,40.12,57.82,59.05S677.76,847,687.23,855c9.47,8.27,46.61,51.43,46.61,51.35q0-8.18,0-16.36Z" style="fill: #62310e;fill-rule: evenodd"/>
    <path d="M561.54,787.78c-8.4.66-17.92,1.47-22.45-.6-7.86-3.65-34.23-38.84-34.49-39.14l-.71,1.18c1.1,1.4,26.87,35.78,35,39.56a12.4,12.4,0,0,0,2.83.87c5.08,1,12.66.39,20-.2,6.51-.51,12.66-1,16.27-.22,8.44,1.77,36.79,11.36,37.07,11.47l.1-1.64c-.29-.11-28.68-9.71-37.17-11.49C574.3,786.78,568.11,787.25,561.54,787.78Z" style="fill: #1e501f;opacity: 0.9411764740943909"/>
    <path d="M571.62,669.85c-2.82-.08-9.87,9.26-12,3.16s4.58-13,4.58-19.12-1.05-13.09-7.05-13.82-8.1,4.52-8.46,8.56,2.47,15.43,1.06,17.72h0c-1.41,2.28-8.46-11.5-11.28-11.55s-7.05,9.41-7.05,15.59,3.53,15.11,6.35,15.67,8.46-5.5,10.22-3.6-9.17,22.33,3.88,24.47,11.28-2.81,10.92-6.49-5.28-11.91-4.23-13.75,6.7,7,11.28,8,6.35-1.75,6.35-9S574.44,669.93,571.62,669.85Z" style="fill: #d5105a;fill-rule: evenodd"/>
    <path d="M573.75,670.58a3,3,0,0,0-2.2-1.57c-1.11,0-2.61,1.08-4.33,2.37-2.1,1.55-4.71,3.49-6.17,2.66a2.29,2.29,0,0,1-.92-1.32c-1-3,.55-6.61,2.09-10.08,1.26-2.82,2.56-5.75,2.56-8.63,0-5.15-.75-8.85-2.31-11.33a7.14,7.14,0,0,0-5.34-3.45c-6-.72-8.56,4.28-9,9.18a44.43,44.43,0,0,0,.69,8.05c.51,3.67,1.14,8.22.49,9.28a0,0,0,0,1-.06,0c-.74,0-2.78-2.85-4.42-5.12-2.48-3.42-4.82-6.65-6.43-6.68-2.87-.05-7.55,9.07-7.55,16.32,0,6.3,3.58,16,6.92,16.61,1.46.3,3.46-.93,5.39-2.11,1.58-1,3.72-2.28,4.46-1.73a23.94,23.94,0,0,1-.94,4.44c-1.25,4.77-3,11.31-1,15.84a7.51,7.51,0,0,0,5.72,4.35l.43.09c6.27,1,9.79.55,11.11-1.54.9-1.44.66-3.36.47-4.9,0-.3-.07-.6-.1-.89-.18-1.84-1.24-4.37-2.37-7.05-.81-1.92-2.31-5.51-2-6.1.35-.21,2.09,1.52,3.23,2.67,2.24,2.25,5,5,7.59,5.58,4.85,1,6.92-1.87,6.92-9.67C576.77,680.69,575.82,673.69,573.75,670.58Zm-3.9,23.29c-2.27-.47-4.92-3.13-7-5.25s-3.9-3.91-4.69-2.52.45,4.49,1.94,8a29,29,0,0,1,2.18,6.31c0,.31.07.63.11,1,.17,1.38.33,2.68-.24,3.6-1.06,1.69-4.5,2-10.25,1.1-2.58-.43-4.33-1.63-5.19-3.56-1.68-3.74-.08-9.82,1.09-14.26.93-3.54,1.45-5.49.53-6.47a1.6,1.6,0,0,0-.9-.52c-1.22-.25-2.9.77-4.77,1.92s-3.67,2.25-4.84,2c-2.43-.49-5.78-9-5.78-14.73,0-6.16,4.24-14.9,6.55-14.86,1.14,0,3.6,3.42,5.57,6.15,2.51,3.47,4.11,5.6,5.26,5.65a.9.9,0,0,0,.83-.48c1-1.6.38-6-.26-10.6a44.76,44.76,0,0,1-.68-7.51c.56-6.49,4.47-8.36,7.93-7.94a5.91,5.91,0,0,1,4.48,2.82c1.32,2.09,2,5.38,2,10,0,2.43-1.22,5.17-2.4,7.82-1.7,3.83-3.47,7.79-2.11,11.72a4,4,0,0,0,1.64,2.28c2,1.12,4.55-.82,7.07-2.69,1.47-1.1,3-2.23,3.85-2.21a1.76,1.76,0,0,1,1.3,1c1.53,2.3,2.64,8.17,2.64,14C575.63,692.53,574.06,694.76,569.85,693.87Z"/>
    <path d="M553.29,673.25C548.7,662,539.36,630,538.13,632.6s10.93,42.34,13.75,47,19,29.68,20.79,29S557.87,684.47,553.29,673.25Z" style="fill: #62310e;fill-rule: evenodd"/>
    <path d="M548.4,678.46c-7,5.25-15,27.1-13,29.29s7.4-16.55,14.81-25.85c2.82-3.57,26.08-28,25.38-30.74S555.45,673.18,548.4,678.46Z" style="fill: #62310e;fill-rule: evenodd"/>
    <path d="M553.64,666.11c-3.51-.72-6.35,2.85-6.35,8s2.84,9.84,6.35,10.56,6.34-2.84,6.34-7.95S557.14,666.83,553.64,666.11Z" style="fill: #fedd00;fill-rule: evenodd"/>
    <path d="M498.13,668.73c-2.75.37-7.23,8.36-9.17,7.06s5.46-25.53-7.21-23.19-10.29,6.8-9.42,10.34,6.73,10.06,6,12.27-7.36-4.7-11.84-4-5.76,4.07-4.71,11.27,4,15.18,6.63,14.24,8-12.8,10.9-7.43-2.47,14.58-1.58,20.77,2.89,12.73,8.68,11.38,7-7.3,6.78-11.48-4.57-14.64-3.56-17.41h0c1-2.78,9.68,8.67,12.36,7.79s5.33-11.76,4.44-18S500.89,668.36,498.13,668.73Z" style="fill: #d5105a;fill-rule: evenodd"/>
    <path d="M498,667.9c-1.43.19-3.15,2.09-4.81,3.93-1.36,1.5-3.2,3.55-4,3.25a28.62,28.62,0,0,1,.25-4.78c.5-5.21,1.19-12.35-1.39-16.2-1.4-2.09-3.57-2.88-6.47-2.34-6.09,1.14-9.36,2.89-10.3,5.45a8.38,8.38,0,0,0,.26,5.08c.08.29.16.57.23.85.43,1.78,1.8,3.93,3.25,6.21,1.05,1.65,3,4.71,2.76,5.42-.31.34-2.2-.79-3.46-1.53-2.44-1.45-5.48-3.25-8-2.86a5.69,5.69,0,0,0-4.8,3.54c-.81,2-.92,4.72-.35,8.65.75,5.19,2.65,11.84,5.07,14.2a2.22,2.22,0,0,0,2.31.76c1.06-.37,2.31-2,3.76-3.91,1.76-2.32,4-5.16,5.45-4.86a1.73,1.73,0,0,1,1.07,1c1.43,2.66.44,6.81-.53,10.83-.78,3.27-1.59,6.66-1.18,9.55.75,5.16,2,8.6,3.84,10.53a5.47,5.47,0,0,0,3.07,1.71,6.38,6.38,0,0,0,2.48-.11c5.77-1.34,7.5-7.22,7.2-12.28a44.57,44.57,0,0,0-1.83-7.84c-1-3.51-2.26-7.86-1.79-9.14,0,0,0,0,.05,0,.7-.22,3.05,1.92,4.93,3.64,2.84,2.6,5.52,5.06,7.06,4.56,2.73-.9,5.85-11.57,4.8-18.85C506.06,676,501.28,667.46,498,667.9Zm3.78,31.62c-1.08.36-3.9-2.23-6.17-4.31-2.88-2.64-4.7-4.23-5.8-3.89a1.15,1.15,0,0,0-.71.77l.51.46-.51-.46c-.71,1.94.5,6.12,1.77,10.54a45.16,45.16,0,0,1,1.73,7.3c.4,6.7-3,9.9-6.37,10.68a4.57,4.57,0,0,1-4.65-1.27c-1.56-1.63-2.64-4.69-3.31-9.36-.35-2.44.41-5.61,1.14-8.68,1.07-4.44,2.17-9,.31-12.48a3,3,0,0,0-1.89-1.72h-.09c-2-.34-4.13,2.49-6.21,5.22-1.24,1.63-2.52,3.31-3.33,3.59a1.32,1.32,0,0,1-1.37-.49c-1.78-1.74-3.68-7.21-4.52-13-.5-3.51-.43-5.89.23-7.51A4.69,4.69,0,0,1,466.6,672c2.23-.34,5.11,1.36,7.43,2.74,2.47,1.46,4.26,2.53,4.81.87s-1.08-4.35-3-7.36a25.48,25.48,0,0,1-3-5.55c-.07-.3-.15-.61-.24-.92a6.2,6.2,0,0,1-.29-3.69c.76-2.06,4-3.66,9.55-4.7,2.51-.47,4.34.13,5.44,1.77,2.13,3.18,1.49,9.82,1,14.68-.37,3.86-.57,6,.44,6.66,1.34.91,3.12-1.06,5.17-3.33,1.48-1.64,3.16-3.49,4.3-3.64,2.38-.33,6.79,7.15,7.61,12.88C506.75,688.64,504,698.8,501.79,699.52Z"/>
    <path d="M485.69,679.94c-3.35-3.78-22.33-23-23.9-21.68s17.52,18.86,23.49,28.58,19.45,38.67,20.24,35.68S489,683.64,485.69,679.94Z" style="fill: #62310e;fill-rule: evenodd"/>
    <path d="M497.29,646.17c-2.16-1.55-4.63,19.06-10.3,30.92-2.17,4.48-20.67,37.26-19.61,39.76s15.85-29.26,21.77-36.91S499.45,647.73,497.29,646.17Z" style="fill: #62310e;fill-rule: evenodd"/>
    <path d="M483.3,675.54c-3.43.5-5.61,5.06-4.87,10.19s4.12,8.87,7.55,8.39,5.6-5,4.86-10.17S486.72,675.05,483.3,675.54Z" style="fill: #fedd00;fill-rule: evenodd"/>
    <path d="M522.57,578c-2.61,1.07-5.93,10.25-8,9.42s2.12-27.08-9.79-21.53-9.07,9.42-7.8,12.77,7.71,8.43,7.28,10.85-7.67-2.89-11.91-1.08-5.05,5.52-3.16,12.51,5.67,14.28,8.14,12.67,6.15-14.86,9.59-10.18-.59,15.29,1,21.3,4.35,12.11,9.75,9.31,5.87-9.11,5.12-13.26-6.19-13.6-5.57-16.64h0c.63-3,10.38,6.3,12.85,4.74s3.68-13.2,2.07-19.23S525.17,576.91,522.57,578Z" style="fill: #d5105a;fill-rule: evenodd"/>
    <path d="M522.35,577.17c-1.36.56-2.78,2.91-4.15,5.18-1.12,1.85-2.64,4.37-3.43,4.27a29.69,29.69,0,0,1-.34-4.87c-.16-5.38-.37-12.74-3.33-16-1.6-1.74-3.79-2-6.51-.71-5.72,2.67-8.67,5.25-9.26,8.06a8.47,8.47,0,0,0,.87,5q.18.41.33.81c.63,1.67,2.22,3.5,3.9,5.43,1.21,1.39,3.46,4,3.32,4.77-.26.41-2.22-.25-3.52-.69-2.53-.85-5.69-1.9-8.06-.88-4.47,1.92-5.51,6-3.47,13.53,1.36,5,4,11.24,6.63,13a2,2,0,0,0,2.33.2c1-.63,2-2.59,3.13-4.87,1.42-2.76,3.18-6.19,4.67-6.24.4,0,.76.23,1.14.74,1.71,2.33,1.26,6.75.83,11-.36,3.49-.72,7.11,0,9.91,1.35,5,3,8.16,5,9.65a4.66,4.66,0,0,0,2,.9,5.47,5.47,0,0,0,3.56-.66c5.39-2.79,6.33-9.14,5.42-14.17a41.93,41.93,0,0,0-2.72-7.44c-1.4-3.28-3.14-7.35-2.85-8.76a.12.12,0,0,1,0-.06c.65-.39,3.16,1.17,5.19,2.43,3,1.91,5.93,3.72,7.35,2.82,2.51-1.59,4.2-13.14,2.3-20.22C531.08,583.27,525.43,575.89,522.35,577.17Zm7.51,30.91c-1,.63-4-1.27-6.46-2.79-3.1-1.93-5-3.08-6.06-2.46a1.37,1.37,0,0,0-.59.95c-.44,2.13,1.23,6,3,10.18a42.41,42.41,0,0,1,2.56,6.92c1.21,6.65-1.7,10.73-4.82,12.34a4.11,4.11,0,0,1-4.64-.12c-1.69-1.26-3.11-4.07-4.33-8.61-.64-2.36-.3-5.75,0-9,.48-4.73,1-9.62-1.24-12.64a2.75,2.75,0,0,0-1.66-1.22,1.16,1.16,0,0,0-.37,0c-2,.06-3.74,3.49-5.44,6.8-1,2-2,4-2.76,4.44a1.19,1.19,0,0,1-1.39-.16c-1.92-1.31-4.43-6.35-5.95-12-1.8-6.69-1-9.8,2.86-11.47,2.1-.9,5.1.1,7.5.91,2.56.85,4.41,1.48,4.74-.33s-1.57-4.1-3.79-6.66c-1.43-1.65-3.05-3.51-3.55-4.83-.11-.29-.23-.58-.35-.87a6.24,6.24,0,0,1-.73-3.64c.47-2.26,3.37-4.67,8.62-7.13,2.36-1.1,4.19-1,5.45.42,2.44,2.66,2.64,9.51,2.79,14.52.11,4,.18,6.17,1.23,6.6,1.41.58,2.88-1.85,4.57-4.66,1.23-2,2.61-4.31,3.69-4.76,2.25-.92,7.4,5.48,8.9,11.06C533.3,595.86,531.89,606.8,529.86,608.08Z"/>
    <path d="M512,592.4c-3.69-3-24.33-17.58-25.69-15.84s19.21,14.6,26.14,22.9,23.45,34.08,23.85,30.86S515.65,595.29,512,592.4Z" style="fill: #62310e;fill-rule: evenodd"/>
    <path d="M519,555.47c-2.26-1-2.12,20.37-6.12,33.74-1.53,5.08-15.33,42.65-14,44.89s11.68-33.35,16.44-42.56S521.25,556.48,519,555.47Z" style="fill: #62310e;fill-rule: evenodd"/>
    <path d="M509.13,588.58c-3.24,1.35-4.78,6.49-3.44,11.47s5.05,7.9,8.29,6.56,4.78-6.47,3.44-11.46S512.36,587.22,509.13,588.58Z" style="fill: #fedd00;fill-rule: evenodd"/>
    <path d="M452.83,607.69c0,3.08,4.23,3.21,4.23,6.81s-6.35.59-6.35,4.2,8.81,12.64,12,11.61,16.56-6.59,19.74-4.49c0,0-12-17.47-18-18.91S452.83,604.6,452.83,607.69Z" style="fill: #d5105a;fill-rule: evenodd"/>
    <path d="M464.49,606.08c-7-1.71-10.42-1.75-11.68-.21a2.73,2.73,0,0,0-.55,1.73c0,2,1.23,3,2.32,3.92s1.91,1.65,1.91,2.9c0,1-1.12,1.2-2.7,1.34s-3.65.35-3.65,2.85c0,2,1.73,4.48,3.18,6.22,2.54,3,6.07,6,8.43,6.35a2.36,2.36,0,0,0,1.13-.06c.54-.17,1.35-.47,2.37-.85,4.35-1.62,14.55-5.31,17-3.69l2.65,1.75-2.1-3.07C482.32,624.53,470.61,607.56,464.49,606.08Zm.37,22.56c-1,.38-1.82.68-2.34.85-1.57.52-5.4-2.14-8.53-5.91-2-2.4-2.71-4.08-2.71-4.8,0-1,1.12-1.2,2.7-1.35s3.65-.33,3.65-2.84-1.43-3.57-2.57-4.51-1.66-1.4-1.66-2.31a.86.86,0,0,1,.19-.57c.81-1,3.38-.89,5.92-.5,1.91.3,3.81.76,4.92,1,4.59,1.12,13.07,12.3,16.32,16.81C477.21,624.28,470.8,626.45,464.86,628.64Z"/>
    <path d="M453.53,577.94c0,3.09,3.53,7.73,7.05,8.28s10.58-.89,10.58-.89h0s-8.11-12.12-11.28-12.6A5.6,5.6,0,0,0,453.53,577.94Z" style="fill: #d5105a;fill-rule: evenodd"/>
    <path d="M459.88,571.9a6.18,6.18,0,0,0-6.92,6c0,3.51,3.7,8.59,7.62,9.2,3.56.55,10.42-.83,10.71-.89l1-.2-.78-1.18C470.69,583.51,463.17,572.4,459.88,571.9Zm.7,13.49c-2.44-.38-6.48-4.08-6.48-7.37,0-2.59,3-4.89,5.78-4.46,2.17.34,7.42,7.31,10.08,11.14C467.87,585.06,463.19,585.8,460.58,585.39Z"/>
    <path d="M464.11,547.14c-4.59-.72-7.41,1.42-7.76,4.46s2.12,7,4.94,7.45,5.28-4.31,7.75-3.91,5.64,3.49,5.64,3.49C474.33,554.45,468.69,547.86,464.11,547.14Z" style="fill: #d5105a;fill-rule: evenodd"/>
    <path d="M464.11,546.31c-4.54-.72-7.89,1.33-8.32,5.07a8.36,8.36,0,0,0,1,4.75,6.8,6.8,0,0,0,4.47,3.75c1.63.26,3.07-1,4.46-2.14,1.17-1,2.28-1.94,3.29-1.77,2.29.37,5.33,3.31,5.36,3.34l1,1c-.05-.55-.1-1.1-.14-1.65C474.83,553.74,468.8,547.05,464.11,546.31Zm4.93,8c-1.37-.22-2.68.89-3.94,2s-2.53,2.16-3.81,2a5.47,5.47,0,0,1-3.6-3,6.06,6.06,0,0,1-.78-3.37c.28-2.35,2.64-4.57,7.2-3.85,3.7.59,8.09,5.18,9.54,8.83A11.47,11.47,0,0,0,469,554.3Z"/>
    <path d="M505,543.87c-4.59-.33-8.82,9.21-8.82,9.21h0c4.94-.15,6.35,3.2,9.17,3.72s6.34-2.42,6.34-5S509.58,544.2,505,543.87Z" style="fill: #d5105a;fill-rule: evenodd"/>
    <path d="M505,543c-4.82-.35-9.08,9.13-9.26,9.53l-.61,1.39,1.18,0A8.75,8.75,0,0,1,502.2,556a7.88,7.88,0,0,0,3.15,1.61c3.1.57,6.91-2.58,6.91-5.72a10.33,10.33,0,0,0-1.71-5.29A7.31,7.31,0,0,0,505,543Zm.4,12.94a7.06,7.06,0,0,1-2.76-1.44,10.65,10.65,0,0,0-4.48-2.15c-.25,0-.52-.08-.79-.11,1.32-2.53,4.48-7.8,7.72-7.57a6.18,6.18,0,0,1,4.74,3,8,8,0,0,1,1.34,4C511.12,553.56,508.06,556.47,505.35,556Z"/>
    <path d="M491.6,516.74c-2.82-.49-4.58,1.26-5.64,3.65,0,0,4.23.22,4.23,4.34s1.06,8.94,2.47,9.19,3.17-2.53,2.82-6.71S494.42,517.24,491.6,516.74Z" style="fill: #d5105a;fill-rule: evenodd"/>
    <path d="M491.6,515.91c-2.65-.47-4.77.91-6.13,4l-.57,1.29,1.11.06a4.37,4.37,0,0,1,3.14,1.64,3.08,3.08,0,0,1,.47,1.76c0,3.87,1,9.75,3,10.12a2.27,2.27,0,0,0,2.13-1.26,10.13,10.13,0,0,0,1.25-6.28C495.77,524,495.14,516.54,491.6,515.91Zm2.34,16.33c-.41.6-.89.92-1.28.85-.83-.15-1.9-4.18-1.9-8.26a5.4,5.4,0,0,0-.84-3.05,5.06,5.06,0,0,0-2.87-2,4.19,4.19,0,0,1,4.55-2.18c2.25.39,2.95,5.36,3.31,9.64A8.12,8.12,0,0,1,493.94,532.24Z"/>
    <path d="M467.28,521.91c-.35,4.06,1.76,5.94,1.76,5.94s4.58-3.88,4.94-6.91a54.65,54.65,0,0,0,.35-5.6C472.21,515.5,467.63,517.84,467.28,521.91Z" style="fill: #d5105a;fill-rule: evenodd"/>
    <path d="M466.71,521.71c-.39,4.59,2,6.76,2.08,6.85l.3.27.28-.24c.48-.42,4.79-4.15,5.17-7.42a57,57,0,0,0,.36-5.74v-1l-.66,0C472.19,514.66,467.13,517,466.71,521.71Zm6.7-1c-.21,1.84-2.68,4.62-4.38,6.14a6.58,6.58,0,0,1-1.19-4.75c.27-3,3.66-5.29,5.9-5.82C473.7,517.29,473.62,518.93,473.41,520.71Z"/>
    <path d="M472.21,490.28c-1.76,3.31-.7,7.09,1.06,7.89s0-3.6,2.82-5.19,3.17-6.68,3.17-6.68A7.81,7.81,0,0,0,472.21,490.28Z" style="fill: #d5105a;fill-rule: evenodd"/>
    <path d="M471.75,489.72a8.66,8.66,0,0,0-.76,6.14,4.62,4.62,0,0,0,2.17,3.11,1.78,1.78,0,0,0,.39.13.8.8,0,0,0,.67-.18,2.92,2.92,0,0,0,.59-1.91c.13-1.18.26-2.53,1.54-3.24,3.06-1.73,3.46-7.06,3.48-7.29l.06-.9-.63-.11A8.17,8.17,0,0,0,471.75,489.72Zm4.09,2.47c-1.81,1-2,3.13-2.15,4.39a5.51,5.51,0,0,1-.13.85.6.6,0,0,1-.18-.05,2.92,2.92,0,0,1-1.33-2,6.46,6.46,0,0,1,.63-4.58,7.51,7.51,0,0,1,5.88-3.72C478.31,488.56,477.62,491.19,475.84,492.19Z"/>
    <path d="M483.49,493.72c-1.76-.31-2.46,5.75-2.46,5.75h0s3.87-1.91,5.28,1.94,2.47,7.12,4.23,6.91,3.18-7.67,1.06-11.14S485.26,494,483.49,493.72Z" style="fill: #d5105a;fill-rule: evenodd"/>
    <path d="M484.58,493c-.43,0-.8-.08-1.09-.13-2.13-.36-2.9,5.23-3,6.36,0,.5-.11,1-.17,1.5l1-.47s3.42-1.63,4.56,1.46l.28.77c1.23,3.38,2.31,6.34,4,6.64a1.75,1.75,0,0,0,.51,0c.92-.11,1.75-1.49,2.22-3.7.54-2.51.64-6.32-.87-8.79C490.08,493.51,486.77,493.2,484.58,493Zm7.2,11.77c-.38,1.8-1,2.66-1.35,2.71-1.18.14-2-2.05-3.34-5.64-.09-.25-.19-.51-.28-.77a4,4,0,0,0-3-2.87,4.84,4.84,0,0,0-2,.11c.36-1.91,1-3.89,1.69-3.77.32.05.71.09,1.15.13,2,.18,5,.45,6.56,3C492.27,499.46,492.25,502.6,491.78,504.78Z"/>
    <path d="M489.84,448.49c-3.17,1.5-4.23,9.56-4.23,9.56h0l5.64,1c2.82.5,4.23-2.85,4.23-5.94S493,447,489.84,448.49Z" style="fill: #d5105a;fill-rule: evenodd"/>
    <path d="M494.43,448.71a3.88,3.88,0,0,0-4.82-1c-3.41,1.61-4.52,9.76-4.56,10.11s-.09.64-.13,1l6.33,1.1c3.12.55,4.8-3,4.8-6.67A6.9,6.9,0,0,0,494.43,448.71Zm-3.18,9.49-4.92-.86c.38-2.1,1.5-7,3.74-8a3,3,0,0,1,3.74.7,4.63,4.63,0,0,1,1.1,3C494.91,455.83,493.63,458.62,491.25,458.2Z"/>
    <path d="M490.54,470.23c-2.46.08-2.11,5.81-4.23,7a13.61,13.61,0,0,0,4.59,2.35c3.17,1.07,3.17-1,3.17-3.56S493,470.15,490.54,470.23Z" style="fill: #d5105a;fill-rule: evenodd"/>
    <path d="M493.26,471a3.25,3.25,0,0,0-2.8-1.58c-1.65.06-2.27,2.1-2.81,3.9-.41,1.39-.81,2.7-1.59,3.14l-1,.56,1,.92a14.24,14.24,0,0,0,4.77,2.46,6.34,6.34,0,0,0,1,.26,2.08,2.08,0,0,0,2.08-.54c.77-.86.77-2.38.77-4A9.42,9.42,0,0,0,493.26,471Zm-.15,7.75c-.34.38-1.07.39-2.15,0a17,17,0,0,1-3.49-1.59,11,11,0,0,0,1.23-3c.57-1.87,1-3,1.92-3a2.14,2.14,0,0,1,1.89,1,7.16,7.16,0,0,1,1,3.8C493.5,477.18,493.5,478.28,493.11,478.72Z"/>
    <path d="M483.14,459.17c-1.41,2.84-1.41,10.05-1.41,10.05h0c1.41-3.88,5.29-3.21,6.35-6.11S484.55,456.32,483.14,459.17Z" style="fill: #d5105a;fill-rule: evenodd"/>
    <path d="M487.21,458.67c-1.47-1.5-3.56-2-4.54-.05-1.49,3-1.51,10.2-1.51,10.5v3.53l1.08-3a5.82,5.82,0,0,1,3.32-3.23c1.26-.67,2.45-1.29,3-2.88A4.91,4.91,0,0,0,487.21,458.67Zm.36,4c-.41,1.11-1.38,1.62-2.51,2.21a8.94,8.94,0,0,0-2.68,1.9c.13-2.26.44-5.45,1.23-7.05A1.19,1.19,0,0,1,485,459a3.3,3.3,0,0,1,1.66,1C486.87,460.24,488,461.47,487.57,462.65Z"/>
    <path d="M684.65,867.74c-5.24-1.8-19-11-27.61-12.17s-23.32,4.66-23.32,4.66,9,3.36,12.37,6.86,11.9,8.85,19,11.08,21.42-2.37,26.66-2,23.32,4.13,23.32,4.11l-8.57-10.09C704.16,871.13,689.88,869.55,684.65,867.74Z" style="fill: #187b01;fill-rule: evenodd"/>
    <path d="M706.33,869.41c-2.12.81-16.27-.63-21.63-2.49a68.28,68.28,0,0,1-7.93-3.89c-6.28-3.35-14.1-7.53-19.76-8.3-8.57-1.16-22.91,4.44-23.51,4.68l-2,.81,2.21.82c.09,0,9,3.36,12.15,6.71,3.39,3.57,12,9,19.28,11.24.33.1.67.19,1,.26,4.5,1,11-.14,16.75-1.14,3.77-.66,7-1.23,9-1.08,5.15.42,23.09,4.09,23.27,4.11l1.88.38q-5.19-6.09-10.38-12.22Zm-14.59,6c-2.06-.16-5.35.42-9.17,1.08-5.83,1-13.09,2.25-17.4.91-7.07-2.21-15.58-7.53-18.8-10.92-2.39-2.51-7.47-4.9-10.4-6.14,4.34-1.52,14.6-4.76,21.1-3.89,5.51.75,13.24,4.89,19.45,8.21a72.19,72.19,0,0,0,8.08,3.95c5.17,1.79,18.68,3.34,21.86,2.57l6.77,8C708.45,878.16,696,875.69,691.74,875.36Z" style="fill: #1e501f;opacity: 0.9411764740943909"/>
    <path d="M734.81,716.7c-2.86,11.26-5.24,22.61-4.28,32.53a96.79,96.79,0,0,0,2.38,15.06l6.66-16.78c.48-2.69,1.9-19.1,2.86-27.26s9-28.87,9-28.88S737.67,705.45,734.81,716.7Z" style="fill: #187b01;fill-rule: evenodd"/>
    <path d="M734.27,716.32c-2.81,11.1-5.28,22.76-4.31,32.92a97.72,97.72,0,0,0,2.42,15.28l.47,1.67q3.61-9.09,7.22-18.19l0-.18c.27-1.5.79-6.85,1.4-13,.51-5.19,1-10.55,1.47-14.28.92-7.93,8.9-28.44,9-28.65l1.35-3.45-2.21,2.26C750.54,691.26,737.15,705,734.27,716.32Zm7.59,3.69c-.43,3.75-1,9.13-1.47,14.33-.56,5.76-1.1,11.21-1.36,12.77q-3,7.59-6,15.17a114.81,114.81,0,0,1-1.92-13.06c-.94-9.79,1.49-21.23,4.26-32.14,2.07-8.19,10.23-18.06,14.24-22.56C747.22,700.86,742.59,713.82,741.86,720Z" style="fill: #1e501f;opacity: 0.9411764740943909"/>
    <path d="M739,717.36c-1,7.43-1.87,35.4-1.91,36.58l1.13.3c0-.29,1-29,1.9-36.36s10.27-23.24,10.36-23.4l-.9-1.19C749.2,694,740,709.8,739,717.36Z" style="fill: #1e501f;opacity: 0.9411764740943909"/>
    <path d="M739.09,773.83c-6.18-1.18-18.56,2.62-20.46,2.23h0q-7.14,4.82-14.28,9.6s12.85,1.25,18.56,2.38,11.42-4.69,17.14-3.6,13.8,6.08,13.8,6.08S745.28,775,739.09,773.83Z" style="fill: #187b01;fill-rule: evenodd"/>
    <path d="M739.09,773c-4.05-.78-10.57.53-15.33,1.46a25.85,25.85,0,0,1-5.13.77l-.16,0L702,786.27l2.39.23c.13,0,12.89,1.26,18.52,2.37,3,.59,5.93-.62,8.79-1.8s5.6-2.32,8.35-1.8c5.56,1.07,13.56,6,13.64,6l1.93,1.19L754.27,790C753.92,789.4,745.46,774.23,739.09,773Zm1,10.61c-3-.57-5.93.66-8.79,1.84s-5.61,2.3-8.35,1.76c-4.18-.83-12.23-1.71-16.23-2.14l12.12-8.15a28,28,0,0,0,5.26-.79c4.69-.92,11.13-2.22,15-1.47,4.42.85,10.26,9.59,12.91,13.92C749.22,787,744.09,784.39,740.05,783.61Z" style="fill: #1e501f;opacity: 0.9411764740943909"/>
    <path d="M714.24,777.83c.07.56.14,1.12.2,1.68.19,0,19-1,23.7-.16s13.91,10.1,14,10.19c.18-.45.36-.91.55-1.36-.4-.38-9.71-9.55-14.56-10.5S715,777.81,714.24,777.83Z" style="fill: #1e501f;opacity: 0.9411764740943909"/>
    <path d="M656.75,779.74c-2.86,4.25-11.43,23.93-14.28,26.09a76.9,76.9,0,0,1-8.57,5.08l21.9-7.74s20.94-24.68,22.84-34S682,725.37,682,725.37s-11.42,19.12-13.8,24.16S659.6,775.49,656.75,779.74Z" style="fill: #187b01;fill-rule: evenodd"/>
    <path d="M667.69,749c-1,2.09-2.54,6.63-4.34,11.89-2.53,7.4-5.39,15.78-7,18.22-1.14,1.71-3.11,5.68-5.38,10.28-3.18,6.44-7.15,14.45-8.78,15.69a75.92,75.92,0,0,1-8.5,5c.15.54.3,1.08.46,1.62l22-7.78.08-.1c.86-1,21.08-24.92,23-34.35s3.3-42.54,3.35-44c0-.88.08-1.77.11-2.66-.37.63-.75,1.26-1.13,1.89C681.06,725.56,670.06,744,667.69,749Zm10.41,19.82c-1.79,8.73-21.2,31.9-22.62,33.57L642,807.16c.28-.19.55-.38.79-.57,1.83-1.38,5.53-8.86,9.1-16.09,2.16-4.37,4.2-8.49,5.3-10.13,1.75-2.6,4.65-11.08,7.21-18.57,1.7-5,3.32-9.71,4.26-11.72,1.9-4,9.69-17.21,12.64-22.19C680.91,736.18,679.65,761.19,678.1,768.81Z" style="fill: #1e501f;opacity: 0.9411764740943909"/>
    <path d="M674.36,796.74Q653.18,803.67,632,810.5s14.75-1,20-1.9,23.8,7.92,28.08,10.21,30,11.88,40.46,11.85,37.6-31,37.6-31-32.36,10.6-37.6,10.17C715.29,809.54,674.36,796.8,674.36,796.74Z" style="fill: #187b01;fill-rule: evenodd"/>
    <path d="M720.48,809c-5.13-.25-45.67-12.87-46.08-13.05l-.12,0q-21.24,7-42.48,13.8l.3,1.66c.15,0,14.84-1,20-1.91,5-.9,23.34,7.77,27.81,10.16,3.6,1.95,21,8.51,33.08,11a40.71,40.71,0,0,0,7.58,1c10.52.07,36.79-29.84,37.91-31.17l2.07-2.39-2.65.88C757.62,799,725.58,809.39,720.48,809Zm0,20.85c-10.31,0-35.82-9.39-40.26-11.8-2.33-1.25-16.49-8.22-24.44-9.95a10.89,10.89,0,0,0-3.91-.31c-2.79.51-8.36,1-12.91,1.38q17.76-5.75,35.51-11.54c2.92,1,41,12.78,46.14,13,4.41.33,27.08-6.67,35-9.3C749,808.66,728.94,829.86,720.45,829.82Z" style="fill: #1e501f;opacity: 0.9411764740943909"/>
    <path d="M671.47,772.81c-3.46,9.38-24.7,32.44-26.29,32.81.05.27.1.55.14.83,0-.28-.09-.56-.13-.83,0,.27.09.55.13.83s.1.56.14.84c2.12-.31,23.59-24.2,27-33.52,3.33-9,8.4-45.48,8.62-47l-1.12-.56C679.94,726.56,674.73,764,671.47,772.81Z" style="fill: #1e501f;opacity: 0.9411764740943909"/>
    <path d="M781.14,580.5c3.24-.43,6.48-.86,9.72-1.31-3.16-.63-6.31-1.28-9.47-1.93,0,0,.25-32-.25-38.26s-7.75-23.09-7.75-23.1q2,9.6,4,19.18l-6-4.93a43.7,43.7,0,0,0,4.66,10.54c3.33,5.43,2,14,2,14l-6,1.89a7.4,7.4,0,0,1,6.66,4.06c2,4.23,0,20.44,0,20.44l-4.33-4.52-5,1.93s6,1,7.33,6.14S774.05,626,774.05,626s-1.32-4.12-3.32-9.34-14-17.09-14-17.1,8.66,12.28,12,19.67,2,21.75,1.34,37.21-12,42.62-12,42.61q-.82-28.42-1.67-56.85s-1.66,54.29-1.66,64-18.4,45.65-27.56,57.12-41,28-42.23,27.71c1.24-3.38,10.9-16.55,15.31-29.73,4.55-13.59,4.51-44.46,4.51-44.46s-2.88,19.5-6.25,36.53-19.73,39.76-24.4,41.68-105.94,29.42-115.27,32.58c-9.32,2.9-32.64,18.7-32.64,18.73h0q0,8.17,0,16.35c0-.08,37.14-28.26,46.61-32.37,9.47-4.32,84.24-23.91,109.92-32s49.1-29.58,57.82-35.57,30.41-16.23,30.41-16.26-14,.44-20.69,3.9S737,758.12,737,758.12s11-19,14.71-28.88,13.21-24.88,17.44-31.42,15.46-15.18,15.46-15.19-7.23,1.34-9.72,2.72-10,8.45-10,8.44,3.24-11.43,5-18.77,20.94-31,20.94-31q-8.1,8.52-16.2,16.94a97.33,97.33,0,0,1,.5-12.65c.75-9.32,13.46-32.67,13.46-32.68l-11,14.18s1.5-17.58,2-21.5S781.14,580.5,781.14,580.5Z" style="fill: #62310e;fill-rule: evenodd"/>
    <path d="M720.91,825.75c-4.53.26-14-4.41-22.45-8.58-6.57-3.25-12.77-6.34-16.49-7.13-8.49-1.78-36.88-4.49-37.17-4.53,0,.56.06,1.12.1,1.68.28,0,28.63,2.74,37.07,4.51,3.61.77,9.76,3.83,16.27,7.06,7.37,3.65,15,7.38,20,8.4a11.39,11.39,0,0,0,2.83.26c8.14-.41,33.91-25,35-26.1l-.71-1.44C755.14,800.18,728.77,825.35,720.91,825.75Z" style="fill: #1e501f;opacity: 0.9411764740943909"/>
    <path d="M721.52,693.61c-2.82-1.07-9.87,9.85-11.28,7h0c-1.41-2.86,1.41-13.1,1.06-17.29s-2.47-10.28-8.46-12-7.05,4.71-7.05,10.89,6.69,15.81,4.58,21-9.17-7.06-12-8.17-4.58,6.76-4.58,14,1.76,10.67,6.35,11.64,10.22-5.59,11.28-3.31-3.88,8.46-4.23,12-2.12,7.81,10.92,11,2.12-21.71,3.88-22.89,7.4,7.16,10.22,7.72,6.35-7,6.35-13.15S724.34,694.69,721.52,693.61Z" style="fill: #d5105a;fill-rule: evenodd"/>
    <path d="M721.59,692.8c-1.62-.62-4,1.67-6.43,4.09-1.64,1.61-3.69,3.6-4.42,3.33,0,0,0,0-.06-.05h0c-.65-1.32,0-5.62.49-9.08a40.14,40.14,0,0,0,.69-7.77c-.43-5.08-3-11.11-9-12.86-2.27-.66-4.06-.25-5.34,1.24-1.55,1.82-2.31,5.21-2.31,10.35,0,2.89,1.3,6.36,2.56,9.71,1.54,4.1,3.14,8.35,2.09,10.94-.23.58-.53.87-.92.94-1.47.23-4.07-2.8-6.17-5.24-1.73-2-3.21-3.74-4.33-4.18a1.92,1.92,0,0,0-2.2.64c-2.07,2.23-3,8.83-3,14,0,7.8,2.07,11.57,6.92,12.59,2.56.54,5.35-1.09,7.59-2.4,1.14-.67,2.88-1.69,3.23-1.34.34.74-1.16,3.7-2,5.29-1.13,2.22-2.19,4.3-2.37,6.06,0,.28-.06.57-.1.85A8.47,8.47,0,0,0,697,735c1.32,2.64,4.84,4.59,11.11,6.13l.43.09c2.75.56,4.67-.12,5.72-2,2-3.7.3-10.94-1-16.22a30.08,30.08,0,0,1-.94-4.82c.73-.25,2.88,1.93,4.46,3.53,1.93,2,3.93,4,5.39,4.28,3.34.67,6.92-7.57,6.92-13.87C729.14,704.86,724.46,693.9,721.59,692.8Zm.63,31.52c-1.17-.23-3.12-2.21-4.84-4-2.39-2.43-4.45-4.52-5.67-3.7-.92.61-.4,2.77.53,6.68,1.17,4.92,2.77,11.65,1.09,14.71-.86,1.58-2.62,2.08-5.19,1.44-5.75-1.41-9.19-3.21-10.25-5.33a6.26,6.26,0,0,1-.24-3.7c0-.31.08-.62.11-.92.14-1.39,1.22-3.52,2.18-5.4,1.49-2.92,2.77-5.44,1.94-7.23a1.44,1.44,0,0,0-1-.89c-.89-.18-2.15.55-3.71,1.47-2.12,1.24-4.77,2.78-7,2.3-4.21-.88-5.78-3.78-5.78-10.68,0-5.8,1.11-11.2,2.64-12.85a1.13,1.13,0,0,1,1.3-.42c.85.34,2.37,2.11,3.85,3.82,2.52,2.93,5.12,6,7.06,5.65a2.28,2.28,0,0,0,1.65-1.61c1.36-3.36-.4-8.05-2.11-12.59-1.18-3.14-2.4-6.39-2.4-8.82,0-4.66.64-7.68,2-9.22,1-1.21,2.54-1.53,4.48-1,3.47,1,7.37,4.48,7.93,11.19a40.27,40.27,0,0,1-.68,7.23c-.64,4.37-1.24,8.5-.26,10.5a1.57,1.57,0,0,0,.83.82c1.15.41,2.75-1.06,5.26-3.52,2-1.93,4.43-4.34,5.57-3.91,2.31.89,6.55,11.3,6.55,17.47C728,717.6,724.65,724.81,722.22,724.32Z"/>
    <path d="M706.71,706.05c-4.58,9.37-21.15,26-19.38,27.37s18-16.83,20.79-20.39,15-38.4,13.75-41.48S711.3,696.7,706.71,706.05Z" style="fill: #62310e;fill-rule: evenodd"/>
    <path d="M711.6,713.26c-7.05-8.11-26.44-41-27.15-38.59S707,711.32,709.83,716c7.41,12.32,12.87,33.23,14.81,31.81S718.65,721.39,711.6,713.26Z" style="fill: #62310e;fill-rule: evenodd"/>
    <path d="M706.36,698.78c-3.5-.72-6.34,2.83-6.34,8s2.84,9.86,6.34,10.58,6.35-2.86,6.35-8S709.87,699.5,706.36,698.78Z" style="fill: #fedd00;fill-rule: evenodd"/>
    <path d="M793.52,736.19c-4.48-2.12-11.11,2.59-11.84.12s5.12-7,6-10.28,3.26-6.84-9.42-13.49S773,732.61,771,733.24s-6.42-8.94-9.17-10.31-7.39,4.75-8.29,10.62,1.76,17.73,4.44,19.59,11.36-6.49,12.36-3.37h0c1,3.13-3.31,12.07-3.56,16.15s1,10.51,6.78,13.86,7.79-2.54,8.68-8.42-4.47-16.91-1.58-21.3,8.22,9.22,10.9,11,5.59-5.24,6.63-12.12S798,738.32,793.52,736.19Z" style="fill: #d5105a;fill-rule: evenodd"/>
    <path d="M793.64,735.4c-2.51-1.19-5.55-.38-8,.26-1.26.33-3.16.82-3.46.39-.24-.8,1.71-3.21,2.76-4.51,1.45-1.8,2.82-3.5,3.25-5.13.07-.26.15-.52.23-.79a7.91,7.91,0,0,0,.26-5c-.94-2.87-4.22-5.67-10.3-8.88-2.9-1.53-5.07-1.49-6.47.11-2.58,2.94-1.89,10.32-1.39,15.71a30,30,0,0,1,.25,4.86c-.79,0-2.62-2.66-4-4.64-1.66-2.43-3.38-4.94-4.81-5.65-3.26-1.61-8,5.14-9,11.13-1,6.89,2.07,18.73,4.8,20.62,1.54,1.06,4.22-.42,7.06-2,1.89-1,4.23-2.36,4.93-1.89,0,0,0,0,0,.06.47,1.44-.79,5.36-1.79,8.5a35.26,35.26,0,0,0-1.83,7.2c-.3,5,1.43,11.46,7.2,14.81a7.52,7.52,0,0,0,2.48,1,3.92,3.92,0,0,0,3.07-.66c1.84-1.3,3.09-4.33,3.84-9.23.41-2.75-.4-6.41-1.18-10-1-4.34-2-8.82-.53-11,.32-.48.66-.69,1.07-.64h0c1.5.25,3.66,3.8,5.4,6.66,1.45,2.38,2.7,4.43,3.76,5.14a2,2,0,0,0,2.31,0c2.42-1.59,4.32-7.64,5.07-12.59.57-3.76.46-6.54-.35-8.76A8.81,8.81,0,0,0,793.64,735.4Zm4,13.3c-.84,5.53-2.74,10.41-4.52,11.57a1.13,1.13,0,0,1-1.37.06c-.81-.54-2.09-2.64-3.33-4.67-2.11-3.47-4.29-7.07-6.3-7.3a2,2,0,0,0-1.89,1.08c-1.86,2.83-.76,7.79.31,12.58.73,3.32,1.49,6.76,1.14,9.07-.67,4.44-1.75,7.14-3.31,8.25-1.21.86-2.78.75-4.66-.33-3.34-1.94-6.76-6.36-6.36-12.91a34.44,34.44,0,0,1,1.73-6.69c1.27-4,2.48-7.74,1.77-9.92a1.82,1.82,0,0,0-.71-1,1.53,1.53,0,0,0-.56-.22c-1.12-.2-2.8.7-5.24,2.06-2.27,1.26-5.09,2.83-6.17,2.08-2.2-1.53-5-12.7-4.07-18.56.83-5.43,5.23-11.29,7.61-10.11,1.14.57,2.82,3,4.3,5.18,2.05,3,3.82,5.59,5.17,5.16,1-.32.81-2.52.44-6.52-.47-5-1.11-11.88,1-14.32,1.1-1.26,2.93-1.22,5.44.1,5.58,2.94,8.79,5.58,9.55,7.9a5.75,5.75,0,0,1-.29,3.59q-.14.42-.24.84c-.35,1.29-1.75,3-3,4.56-1.92,2.38-3.58,4.43-3,6.36s2.34,1.39,4.81.74c2.32-.61,5.2-1.38,7.43-.32a7.24,7.24,0,0,1,4.05,4.13C798.11,742.94,798.18,745.35,797.68,748.7Z"/>
    <path d="M798.21,724.72c-1.57-1.75-20.55,11.27-23.9,13.81S753.68,770.74,754.48,774s14.27-20.81,20.24-28.45S799.78,726.55,798.21,724.72Z" style="fill: #62310e;fill-rule: evenodd"/>
    <path d="M762.71,700.67c-2.16.77,2.21,26.91,8.14,36.66s20.7,46.37,21.77,44.22-17.44-41-19.61-46.32C767.34,721.39,764.86,699.89,762.71,700.67Z" style="fill: #62310e;fill-rule: evenodd"/>
    <path d="M776.7,735c-3.42-1.66-6.8.92-7.54,5.79s1.44,10.19,4.86,11.87,6.81-.94,7.55-5.82S780.13,736.62,776.7,735Z" style="fill: #fedd00;fill-rule: evenodd"/>
    <path d="M767.61,644.66c-4.24-3.31-11.47-.64-11.91-3.22s6-5.3,7.28-8.2,4.12-5.68-7.8-15.61-7.75,17.81-9.79,17.88-5.35-10.39-8-12.46-8,2.5-9.64,7.88-.4,17.51,2.07,20,12.22-3.05,12.85.23h0c.62,3.29-4.81,10.66-5.57,14.51a16.4,16.4,0,0,0,5.12,15.23c5.4,4.85,8.13-.24,9.75-5.64s-2.41-17.51,1-20.92,7.12,11.18,9.59,13.68,6.25-3.46,8.14-9.79S771.84,648,767.61,644.66Z" style="fill: #d5105a;fill-rule: evenodd"/>
    <path d="M767.83,643.93c-2.38-1.85-5.53-1.93-8.06-2-1.3,0-3.26-.09-3.52-.6-.14-.83,2.11-2.6,3.32-3.55,1.68-1.33,3.27-2.58,3.9-4q.15-.35.33-.69a7,7,0,0,0,.87-4.73c-.59-3-3.54-6.64-9.26-11.42-2.72-2.27-4.91-2.85-6.51-1.7-3,2.11-3.17,9.39-3.33,14.71a27.18,27.18,0,0,1-.34,4.74c-.79-.2-2.31-3.29-3.43-5.57-1.37-2.8-2.79-5.69-4.15-6.77-3.08-2.46-8.73,2.7-10.38,8.19-1.9,6.33-.21,18.55,2.3,21.13,1.42,1.45,4.3.78,7.36.05,2-.48,4.53-1.08,5.18-.44a.19.19,0,0,1,0,.08c.29,1.51-1.45,4.92-2.85,7.66a28.62,28.62,0,0,0-2.72,6.4A17.5,17.5,0,0,0,742,681.64a7.71,7.71,0,0,0,3.56,2,3.71,3.71,0,0,0,2-.15c2-.73,3.63-3.28,5-7.79.75-2.52.39-6.27,0-9.89-.43-4.44-.88-9,.83-10.73a1,1,0,0,1,1.14-.31c1.49.59,3.25,4.67,4.66,7.94,1.17,2.7,2.17,5,3.14,6a2.19,2.19,0,0,0,2.33.63c2.62-.84,5.27-6.13,6.63-10.68,1-3.45,1.26-6.16.72-8.53A10.81,10.81,0,0,0,767.83,643.93Zm2.42,13.93c-1.52,5.09-4,9.24-6,9.86a1.25,1.25,0,0,1-1.39-.33c-.75-.76-1.77-3.13-2.76-5.43-1.7-3.94-3.46-8-5.44-8.8a1.78,1.78,0,0,0-2,.51c-2.21,2.19-1.72,7.27-1.24,12.18.34,3.39.68,6.91,0,9-1.22,4.08-2.64,6.37-4.33,7-1.33.49-2.89-.06-4.64-1.64A15.3,15.3,0,0,1,737.69,666a28.74,28.74,0,0,1,2.56-5.93c1.77-3.47,3.44-6.74,3-9a2.17,2.17,0,0,0-.59-1.18c-1-1-3-.6-6.06.13-2.43.58-5.47,1.3-6.46.28-2-2.09-3.44-13.58-1.82-18.95,1.5-5,6.65-9.37,8.9-7.59,1.08.86,2.46,3.69,3.68,6.18,1.7,3.46,3.17,6.44,4.58,6.4,1,0,1.12-2.2,1.23-6.14.15-5,.35-11.73,2.79-13.47,1.26-.91,3.09-.37,5.45,1.6,5.25,4.39,8.15,7.83,8.62,10.27a5,5,0,0,1-.73,3.37l-.35.74c-.5,1.15-2.12,2.43-3.55,3.56-2.22,1.74-4.13,3.25-3.79,5.26s2.18,2,4.74,2.06,5.4.14,7.5,1.79a8.91,8.91,0,0,1,3.56,5.12C771.39,652.45,771.16,654.79,770.25,657.86Z"/>
    <path d="M748,641.5c-3.68,1.57-24.7,25.16-24.3,28.51s16.92-16,23.85-21.62,27.5-11.25,26.14-13.45S751.72,640,748,641.5Z" style="fill: #62310e;fill-rule: evenodd"/>
    <path d="M741,601.9c-2.26.15-1.07,26.45,3.69,37.48s15.11,50.4,16.44,48.65-12.48-44.37-14-50.06C743.13,623.09,743.27,601.75,741,601.9Z" style="fill: #62310e;fill-rule: evenodd"/>
    <path d="M750.87,638.74c-3.23-2.56-7-1-8.29,3.45s.2,10.19,3.44,12.76,7,1,8.29-3.47S754.11,641.3,750.87,638.74Z" style="fill: #fedd00;fill-rule: evenodd"/>
    <path d="M802.94,682.44c0-3.61,4.23-2.45,4.23-5.54s-5.64-3.93-11.63-4.37-18,13-18,13c3.18-1,16.57,8.94,19.74,11s12-4.34,12-8S802.94,686,802.94,682.44Z" style="fill: #d5105a;fill-rule: evenodd"/>
    <path d="M806.21,684.69c-1.58-.63-2.7-1.15-2.7-2.17,0-1.24.72-1.7,1.91-2.31s2.32-1.21,2.32-3.23a3.45,3.45,0,0,0-.55-1.89c-1.26-1.93-4.64-2.88-11.68-3.39-6.12-.43-17.83,12.6-18.32,13.14l-2.1,2.35,2.65-.84c2.46-.76,12.66,6.31,17,9.29,1,.71,1.83,1.26,2.37,1.61a3,3,0,0,0,1.13.41c2.36.37,5.89-1.48,8.43-3.76,1.45-1.31,3.18-3.29,3.18-5.28C809.86,686.12,807.92,685.36,806.21,684.69Zm-.2,7.76c-3.13,2.82-7,4.29-8.53,3.28-.52-.34-1.33-.89-2.34-1.59-5.94-4.07-12.35-8.37-15.89-9.32,3.25-3.39,11.73-11.78,16.32-11.45,2.58.19,9.42.65,10.84,2.81a1.11,1.11,0,0,1,.19.63c0,.91-.63,1.28-1.66,1.81s-2.57,1.32-2.57,3.73,1.94,3.27,3.65,3.95,2.7,1.14,2.7,2.15C808.72,689.17,808,690.64,806,692.45Z"/>
    <path d="M800.12,639.79c-3.17-.48-11.28,9-11.28,9h0s7,3.71,10.58,4.26,7.05-3,7.05-6.13S803.3,640.29,800.12,639.79Z" style="fill: #d5105a;fill-rule: evenodd"/>
    <path d="M800.12,639c-3.3-.5-10.81,8.19-11.66,9.17l-.78.92,1,.54c.29.16,7.15,3.76,10.71,4.31,3.92.61,7.62-3.37,7.62-6.88S803.61,639.5,800.12,639Zm-.7,13.27c-2.61-.4-7.3-2.62-9.38-3.67,2.66-3,7.91-8.27,10.08-7.94,2.81.44,5.78,3.64,5.78,6.23C805.9,650.14,801.86,652.62,799.42,652.23Z"/>
    <path d="M795.89,612.88c-4.58-.72-10.22,4-10.57,8.07,0,0,3.17-2.05,5.64-1.66s4.93,5.94,7.75,6.38,5.29-2.78,4.94-5.93S800.48,613.6,795.89,612.88Z" style="fill: #d5105a;fill-rule: evenodd"/>
    <path d="M795.89,612.05c-4.69-.74-10.72,4-11.14,8.7,0,.53-.09,1.07-.14,1.6l1-.63s3.07-2,5.36-1.59c1,.16,2.12,1.45,3.29,2.82,1.39,1.63,2.83,3.3,4.46,3.56a4.6,4.6,0,0,0,4.47-2.37,7,7,0,0,0,1-4.45C803.78,615.83,800.43,612.76,795.89,612.05Zm6.42,10.88a3.69,3.69,0,0,1-3.6,1.91c-1.28-.2-2.56-1.7-3.81-3.15s-2.57-3-3.94-3.23a8.49,8.49,0,0,0-4.6,1c1.44-3.17,5.83-6.32,9.53-5.74,4.56.72,6.92,3.65,7.2,6.09A5,5,0,0,1,802.31,622.93Z"/>
    <path d="M755,595.56c-4.58-1.36-6.69,2.87-6.69,5.45s3.52,6.84,6.34,7.35,4.23-2.31,9.17-.39h0S759.59,596.92,755,595.56Z" style="fill: #d5105a;fill-rule: evenodd"/>
    <path d="M755.05,594.74a5,5,0,0,0-5.6,1.51,7.39,7.39,0,0,0-1.71,4.65c0,3.15,3.81,7.73,6.91,8.3a5.8,5.8,0,0,0,3.15-.46,7.32,7.32,0,0,1,5.94,0l1.18.46c-.2-.54-.41-1.07-.61-1.61S759.87,596.17,755.05,594.74Zm2.36,12.37a5.16,5.16,0,0,1-2.76.42c-2.71-.5-5.77-4.56-5.77-6.42a5.73,5.73,0,0,1,1.34-3.5,4.14,4.14,0,0,1,4.09-1.39,6.13,6.13,0,0,1,.65.16c3.24,1,6.4,7.37,7.72,10.38A7.85,7.85,0,0,0,757.41,607.11Z"/>
    <path d="M768.4,573.27c-2.82-.5-3.53,5-3.88,9.09s1.41,7.46,2.82,7.71,2.47-4.2,2.47-8.32,4.23-2.86,4.23-2.86C773,576.13,771.22,573.76,768.4,573.27Z" style="fill: #d5105a;fill-rule: evenodd"/>
    <path d="M768.4,572.44c-3.54-.63-4.17,6.62-4.44,9.71a12.35,12.35,0,0,0,1.25,6.73,3.59,3.59,0,0,0,2.13,2c2.07.37,3-5.18,3-9a2.37,2.37,0,0,1,.47-1.6c.82-1,2.55-.72,3.14-.54l1.11.32-.57-1.49C773.17,575,771.06,572.9,768.4,572.44Zm1.68,6.45a4.12,4.12,0,0,0-.84,2.76c0,4.08-1.07,7.73-1.9,7.59-.39-.07-.87-.56-1.28-1.3a9.89,9.89,0,0,1-1-5.38c.36-4.15,1.06-8.86,3.31-8.46a6.4,6.4,0,0,1,4.55,3.78A3.44,3.44,0,0,0,770.08,578.89Z"/>
    <path d="M785.67,577.77s0,2.57.35,5.72S791,592,791,592s2.11-1.2,1.76-5.38S787.79,578.63,785.67,577.77Z" style="fill: #d5105a;fill-rule: evenodd"/>
    <path d="M785.76,577l-.66-.27v1c0,.11,0,2.68.36,5.86.38,3.4,4.69,8.54,5.17,9.12.1.1.19.21.28.32l.3-.17c.1-.06,2.47-1.46,2.08-6.18S787.81,577.8,785.76,577ZM791,591c-1.7-2.07-4.17-5.65-4.38-7.57s-.29-3.51-.33-4.53c2.24,1.27,5.63,4.61,5.9,7.74C792.38,589.32,791.45,590.56,791,591Z"/>
    <path d="M780.74,547.09s.35,5.2,3.17,7.73,1.06,6.36,2.82,6.13,2.82-3.65,1.06-7.54S782.15,547.32,780.74,547.09Z" style="fill: #d5105a;fill-rule: evenodd"/>
    <path d="M780.74,546.25l-.63-.1.06.92c0,.23.42,5.7,3.48,8.46a5.18,5.18,0,0,1,1.54,3.75,3.8,3.8,0,0,0,.59,2.1,1.06,1.06,0,0,0,.67.4,1.67,1.67,0,0,0,.39,0c1-.13,1.77-1,2.17-2.4a9.65,9.65,0,0,0-.76-6.39C786.37,548.86,782.37,546.53,780.74,546.25ZM788,558.6c-.25.88-.75,1.44-1.33,1.52h-.18a5.17,5.17,0,0,1-.13-.9,7.33,7.33,0,0,0-2.15-5.1c-1.77-1.59-2.47-4.45-2.72-6a12,12,0,0,1,5.88,5.68A7.29,7.29,0,0,1,788,558.6Z"/>
    <path d="M776.51,553.06c-1.77-.3-6-2.07-8.11.65s-.71,10.68,1.06,11.51,2.82-2.08,4.23-5.44,5.28-.12,5.28-.12h0S778.27,553.36,776.51,553.06Z" style="fill: #d5105a;fill-rule: evenodd"/>
    <path d="M776.51,552.23c-.29-.05-.66-.15-1.09-.25-2.19-.56-5.49-1.41-7.42,1.07-1.51,1.93-1.41,5.78-.87,8.48.47,2.38,1.3,4.06,2.22,4.48a1.7,1.7,0,0,0,.51.17c1.73.31,2.81-2.28,4-5.23l.28-.67c1.14-2.7,4.53.07,4.56.09l1,.81c-.06-.52-.12-1-.17-1.57C779.4,558.44,778.64,552.59,776.51,552.23Zm-3.32,7c-.09.23-.19.45-.28.68-1.3,3.12-2.16,5-3.34,4.46-.38-.18-1-1.25-1.35-3.18-.47-2.34-.49-5.5.58-6.87s3-1.46,4.69-1.17c.67.12,1.31.28,1.87.43s.82.21,1.15.26c.69.12,1.33,2.32,1.69,4.35C776.81,557.42,774.36,556.49,773.19,559.28Z"/>
    <path d="M770.16,505.63c-3.17-2.61-5.64-.48-5.64,2.61s1.41,6.94,4.23,7.44l5.64,1h0S773.33,508.25,770.16,505.63Z" style="fill: #d5105a;fill-rule: evenodd"/>
    <path d="M770.39,504.91c-1.75-1.44-3.51-1.69-4.82-.68a4.89,4.89,0,0,0-1.62,3.9c0,3.65,1.68,7.83,4.8,8.38l6.33,1.1c0-.33-.09-.67-.13-1S773.8,507.72,770.39,504.91Zm-1.64,9.94c-2.38-.42-3.66-3.67-3.66-6.51a3.27,3.27,0,0,1,1.1-2.61,2.2,2.2,0,0,1,1.75-.4,4.4,4.4,0,0,1,2,1c2.24,1.85,3.36,7.13,3.74,9.36Z"/>
    <path d="M769.46,527.13c-2.47-1-3.53,2-3.53,4.52s0,4.64,3.17,4.68a10,10,0,0,0,4.59-.74C771.57,533.67,771.92,528.07,769.46,527.13Z" style="fill: #d5105a;fill-rule: evenodd"/>
    <path d="M772.35,531.2c-.54-2-1.16-4.25-2.81-4.88a2.38,2.38,0,0,0-2.8.59,7.13,7.13,0,0,0-1.38,4.64c0,1.6,0,3.12.77,4.26a3,3,0,0,0,2.08,1.27,5.6,5.6,0,0,0,1,.09,10.09,10.09,0,0,0,4.77-.8l1-.56-1-.92C773.16,534.18,772.76,532.73,772.35,531.2ZM769,535.49a2.47,2.47,0,0,1-2.15-.79,6.08,6.08,0,0,1-.39-3,5.51,5.51,0,0,1,1-3.45,1.48,1.48,0,0,1,1.44-.49,2.23,2.23,0,0,1,.45.13c.94.36,1.35,1.64,1.92,3.71a15.36,15.36,0,0,0,1.23,3.47A13,13,0,0,1,769,535.49Z"/>
    <path d="M771.92,520.87c1.06,3.27,4.94,3.94,6.35,8.3h0s0-7.21-1.41-10.54S770.87,517.6,771.92,520.87Z" style="fill: #d5105a;fill-rule: evenodd"/>
    <path d="M772.79,516.73a3.83,3.83,0,0,0-1.38,4.42,8.73,8.73,0,0,0,3,3.93,9.54,9.54,0,0,1,3.32,4.37l1.08,3.34v-3.53c0-.3,0-7.5-1.51-11A2.93,2.93,0,0,0,772.79,516.73Zm2.15,6.93a7.34,7.34,0,0,1-2.51-3.08,2.08,2.08,0,0,1,.93-2.31,2.31,2.31,0,0,1,1.66-.41,1.81,1.81,0,0,1,1.37,1.15,26.61,26.61,0,0,1,1.23,7.48A15.23,15.23,0,0,0,774.94,523.66Z"/>
    <path d="M575.35,844.14c-5.23-.42-19.51-4.79-21.89-6.65l-8.57,6.59s18.09,3.69,23.32,5.51,19.52,12.47,26.66,13.32,15.71-.78,19-2.83,12.37-1.48,12.37-1.48S611.53,846.35,603,843.8,580.59,844.55,575.35,844.14Z" style="fill: #187b01;fill-rule: evenodd"/>
    <path d="M603,843c-5.66-1.68-13.48-.87-19.76-.2a52.82,52.82,0,0,1-7.93.52c-5.36-.43-19.51-4.88-21.63-6.54l-.28-.22-10.38,8,1.88.38c.18,0,18.12,3.71,23.27,5.49,2,.67,5.21,2.61,9,4.87,5.77,3.45,12.25,7.33,16.75,8.3a7.75,7.75,0,0,0,1,.17c7.33.87,15.89-.78,19.28-2.88,3.19-2,12.06-1.42,12.15-1.42l2.21.15c-.68-.57-1.36-1.14-2-1.7S611.56,845.53,603,843Zm10.64,16.32c-3.22,2-11.73,3.6-18.8,2.77-4.32-.52-11.57-4.87-17.4-8.35-3.82-2.28-7.11-4.25-9.17-5-4.25-1.47-16.71-4.15-21.49-5.14l6.77-5.21c3.18,2.06,16.69,6.14,21.86,6.56a54.47,54.47,0,0,0,8.08-.52c6.21-.67,13.94-1.48,19.45.16,6.5,1.94,16.76,9.66,21.1,13.07C621.1,857.65,616,857.82,613.63,859.3Z" style="fill: #1e501f;opacity: 0.9411764740943909"/>
    <path d="M651.27,354.06c-5.3-9.27-12.64-15.46-21.24-17.88l-.07,0-2.93-.43h-.16c-19.89.09-27.46,21.54-26.08,41.41,1.33,19.15,11.25,40.87,29.93,44.94.71.16,1.44.29,2.18.39h.15c8.52,0,15.5-4.13,20.2-12,4.2-7.05,6.31-16.72,5.94-27.23A64.43,64.43,0,0,0,651.27,354.06Zm-18.61,63.76c-12.62-1.8-27-15.21-28.74-40.48-.68-9.78,1-18.83,4.7-25.49,4.15-7.45,10.6-11.42,18.65-11.48l2.7.39c17.16,4.89,25.47,24.62,26.08,42S649.67,417.81,632.66,417.82Z"/>
  </g>
</svg>
