<?xml version="1.0" encoding="utf-8"?>
<!-- Generator: Adobe Illustrator 24.2.0, SVG Export Plug-In . SVG Version: 6.00 Build 0)  -->
<svg version="1.1" id="Layer_1" xmlns="http://www.w3.org/2000/svg" xmlns:xlink="http://www.w3.org/1999/xlink" x="0px" y="0px"
	 viewBox="0 0 1260 1260" style="enable-background:new 0 0 1260 1260;" xml:space="preserve">
<style type="text/css">
	.st0{fill-rule:evenodd;clip-rule:evenodd;fill:#FFFFFF;}
	.st1{fill-rule:evenodd;clip-rule:evenodd;fill:#0738AC;}
	.st2{fill-rule:evenodd;clip-rule:evenodd;fill:#187B01;}
	.st3{fill:#FFFFFF;}
	.st4{fill-rule:evenodd;clip-rule:evenodd;fill:#D51810;}
	.st5{fill:#231F20;}
	.st6{fill-rule:evenodd;clip-rule:evenodd;fill:#FEDC00;}
	.st7{fill-rule:evenodd;clip-rule:evenodd;}
	.st8{fill-rule:evenodd;clip-rule:evenodd;fill:#CDCDCD;}
	.st9{opacity:0.9412;fill:#1E501F;enable-background:new    ;}
	.st10{fill-rule:evenodd;clip-rule:evenodd;fill:#62310E;}
	.st11{fill-rule:evenodd;clip-rule:evenodd;fill:#D5105A;}
	.st12{fill-rule:evenodd;clip-rule:evenodd;fill:#FEDD00;}
</style>
<g>
	<path class="st0" d="M63,294.7v736c378-217.1,756,146.6,1134-70.5v-736C819,441.3,441,77.7,63,294.7z"/>
	<path class="st1" d="M873,295.2v736c108,5.7,216-8.9,324-70.9v-736C1089,286.3,981,300.9,873,295.2z"/>
	<path class="st2" d="M63,294.7v736c108-62,216-76.6,324-70.9v-736C279,218.1,171,232.7,63,294.7z"/>
	<path class="st0" d="M541,557.1c59.6,10.4,119.1,23.1,178.7,33.5v-94.8c-59.6-10.4-119.1-23.1-178.7-33.5V557.1z"/>
	<polygon class="st1" points="629.5,775.1 629.5,775.1 629.5,775.1 	"/>
	<path class="st1" d="M620.4,772c4.4,2.8,6.7,4.5,9.4,5c-8.9-4.9-17.2-10.6-24.7-17.2C609.9,764.2,615,768.2,620.4,772z"/>
	<path class="st1" d="M547.2,673.3c6.9,22.1,18.6,42.2,32.5,59.6C565.6,714.5,554.7,694.5,547.2,673.3z"/>
	<path class="st1" d="M630,776l-0.6-0.9c0.2,0.6,0.4,1.3,0.5,1.9h0.1c0.2-0.5,0.3-1,0.5-1.5L630,776z"/>
	<path class="st1" d="M637.1,776.4c6.3-1.8,12.4-4.1,18.2-7.1c-7.8,3.8-16.3,6.4-25,7.8C632.1,777.4,634.1,777.2,637.1,776.4z"/>
	<path class="st1" d="M540.6,631v0.2c0,13.8,2.1,27.5,6.1,40.8c0.2-0.6,0.4-1.3,0.7-1.9c-0.3-1.1-0.5-2.2-0.8-3.4
		c10.1-30.3,20.2-60.5,30.3-90.7c17.7,62,35.4,124.2,53.1,186.4c17.7-55.3,35.4-110.6,53.1-166c10.2,34.1,20.3,68.1,30.5,102
		c-0.3,1-0.6,1.9-0.9,2.9c0.2,0.6,0.4,1.3,0.6,2c3.3-10,5.3-20.4,5.9-30.8c0.2-3.1,0.2-6.3,0.2-9.4v-72.5
		c-59.6-10.4-119.1-23.1-178.7-33.5L540.6,631z"/>
	<path class="st1" d="M681.1,751.5c7.7-6.9,14.3-14.6,19.8-23c4.8-7.3,8.7-15,11.6-23.1C704.9,723.7,694.1,739.5,681.1,751.5z"/>
	<path class="st0" d="M642.2,613.4c-0.7-14.4-4.7-22.8,0-36l-5.3-0.9c-5.2,12-0.5,22.2,0.1,36.1c1.1,14.1-4.5,25.7-2.6,39.8
		c2.7,15.5,3.4,23.6,0.3,38.1c-2.5,12,1.8,31.2,3.3,44.4c1.3-3.9,2.6-7.8,3.9-11.7l0,0c-1.7-11.2-3.7-21-1.7-31.8
		c3.2-17.7,2.6-19.5-0.3-38.1C637.8,639.3,643.2,627.2,642.2,613.4z"/>
	<path class="st3" d="M636.8,575.4L636.8,575.4l-0.5-0.1c-0.1,0.2-0.2,0.3-0.2,0.5L636.8,575.4z"/>
	<polygon class="st3" points="639,653.4 639,653.4 639,653.4 639,653.4 	"/>
	<path class="st3" d="M639,653.4L639,653.4L639,653.4z"/>
	<path class="st3" d="M641,578l-0.1,0.2l1.3,0.2l0,0l-0.8-1.6C641.3,577.2,641.2,577.6,641,578z"/>
	<path class="st3" d="M637.4,577.6l3.6,0.6l0.1-0.2c0.1-0.4,0.3-0.8,0.4-1.3l0.8,1.6c0-0.7,0-1.4,0-2.2l-5.3-0.9l0,0l-0.7,0.4l0,0
		l1.5,1.3L637.4,577.6z"/>
	<path class="st3" d="M636.8,575.4L636.8,575.4l-0.7,0.4l0,0L636.8,575.4z"/>
	<path class="st3" d="M637.2,734.4l1.6,0.6c-0.1-0.4-0.1-0.8-0.1-1.3l-0.2-1.3c-0.1-0.4-0.1-0.9-0.2-1.3l0,0L637.2,734.4z"/>
	<polygon class="st3" points="637.8,612.6 637.8,612.6 637.8,612.6 	"/>
	<polygon class="st3" points="639.3,691.1 639.3,691.1 639.3,691.1 	"/>
	<path class="st3" d="M637.6,739c0.4-1.2,0.8-2.3,1.2-3.5l-1.6-0.6L637.6,739z"/>
	<path class="st3" d="M633.9,690.1L633.9,690.1L633.9,690.1L633.9,690.1z"/>
	<polygon class="st3" points="640.9,691.8 640.9,691.8 640.9,691.8 	"/>
	<polygon class="st3" points="639,653.4 639,653.4 639,653.4 	"/>
	<path class="st3" d="M642.7,723.5l-0.1-0.3c0,0.2,0,0.4,0,0.6L642.7,723.5z"/>
	<polygon class="st3" points="633.9,690.1 633.9,690.1 633.9,690.1 	"/>
	<polygon class="st3" points="642.2,578.4 642.2,578.4 642.2,578.4 	"/>
	<path class="st3" d="M633.5,652.4L633.5,652.4L633.5,652.4z"/>
	<path class="st3" d="M643.5,576.5l-1.3-0.2l0.8,1.6C643.1,577.4,643.3,577,643.5,576.5z"/>
	<path class="st3" d="M636.2,612.5L636.2,612.5z"/>
	<path class="st3" d="M633.5,652.4L633.5,652.4L633.5,652.4z"/>
	<polygon class="st3" points="635.5,690.9 635.5,690.9 635.5,690.9 	"/>
	<path class="st3" d="M639.3,691.1c-0.1,0.3-0.1,0.7-0.2,1s-0.1,0.7-0.2,1l-0.1,1l-0.1,1c0,0.3-0.1,0.7-0.1,1s-0.1,0.7-0.1,1l-0.1,1
		c0,0.3,0,0.7,0,1c0,0.3,0,0.7,0,1v1c0,0.3,0,0.7,0,1v1c0,0.3,0,0.7,0,1c0,0.3,0,0.7,0.1,1c0.1,0.3,0,0.7,0.1,1l0.1,1
		c0,0.3,0.1,0.7,0.1,1l0.1,1c0,0.3,0.1,0.7,0.1,1c0,0.3,0.1,0.7,0.1,1l0.1,1l0.1,1c0,0.3,0.1,0.7,0.1,1c0.1,0.3,0.1,0.7,0.1,1
		c0,0.3,0.1,0.7,0.2,1c0.1,0.3,0.1,0.7,0.2,1l0.2,1l0.2,1l0.2,1l0.2,1c0.1,0.3,0.1,0.7,0.2,1l0.1,0.7l0.1-0.3l1.6,0.5
		c-0.1-0.4-0.1-0.7-0.2-1l-0.2-1l-0.2-1l-0.2-1l-0.2-1l-0.2-1c0-0.3-0.1-0.7-0.2-1s-0.1-0.7-0.2-1c-0.1-0.3-0.1-0.7-0.1-1
		c0-0.3-0.1-0.7-0.1-1l-0.1-1c0-0.3-0.1-0.6-0.1-1c0-0.3-0.1-0.6-0.1-1l-0.1-1l-0.1-1c0-0.3-0.1-0.6-0.1-1l-0.1-1c0-0.3,0-0.6-0.1-1
		l-0.1-1c0-0.3,0-0.6,0-1v-1c0-0.3,0-0.6,0-1v-1c0-0.3,0-0.6,0-1v-1l0.1-1c0-0.3,0-0.6,0.1-1l0.1-1l0.1-1c0-0.3,0.1-0.6,0.1-1
		c0-0.3,0.1-0.7,0.2-1l0.2-1l0,0l0,0L639.3,691.1z"/>
	<path class="st3" d="M637.4,577.6l0.2-0.5l-1.5-1.3c0.2,0.6,0.5,1.1,0.7,1.7L637.4,577.6z"/>
	<path class="st3" d="M639.3,691.1L639.3,691.1l1.6,0.8l0,0L639.3,691.1z"/>
	<path class="st3" d="M640.9,723l0.1,0.3l1.6-0.1l0,0l-1.6-0.5L640.9,723z"/>
	<path class="st3" d="M640.9,691.9L640.9,691.9L640.9,691.9z"/>
	<path class="st3" d="M641,723.3l-0.1-0.3c-0.9,2.7-1.8,5.3-2.7,8l0,0c0.1,0.4,0.1,0.9,0.2,1.3l0.2,1.3c0,0.4,0.1,0.8,0.1,1.3
		l-1.6-0.6l0,0l1.5,1.1c1.3-3.9,2.6-7.8,3.9-11.7c0-0.2,0-0.4,0-0.6l0,0L641,723.3z"/>
	<path class="st3" d="M640.8,588.9c0-0.3,0-0.7,0-1l0.1-1c0-0.3,0.1-0.7,0.1-1c0-0.3,0.1-0.7,0.1-1.1l0.2-1.1
		c0.1-0.4,0.2-0.7,0.2-1.1c0.1-0.4,0.2-0.7,0.3-1.1c0.1-0.4,0.2-0.8,0.3-1.1l0.4-1.2l0.4-1.2l-0.8-1.6c0,0.7,0,1.4,0,2.2l0,0
		l-1.3-0.2c-0.1,0.4-0.2,0.7-0.3,1c-0.1,0.4-0.2,0.8-0.3,1.2c-0.1,0.4-0.2,0.8-0.3,1.2l-0.2,1.2c-0.1,0.4-0.1,0.8-0.2,1.2l-0.2,1.1
		c0,0.4-0.1,0.7-0.1,1.1c0,0.4-0.1,0.7-0.1,1.1l-0.1,1.1v1.1v1.1v1.1c0,0.4,0,0.7,0,1.1l0.1,1.1l0.1,1.1l0.1,1.1
		c0,0.4,0.1,0.7,0.1,1.1s0.1,0.7,0.1,1.1l0.1,1.1c0,0.4,0.1,0.7,0.1,1.1c0.1,0.4,0.1,0.7,0.1,1.1c0.1,0.4,0.1,0.7,0.1,1.1
		c0,0.4,0.1,0.7,0.2,1.1c0,0.4,0.1,0.8,0.1,1.1l0.1,1.2c0,0.4,0.1,0.8,0.1,1.2c0.1,0.4,0.1,0.8,0.1,1.2c0,0.4,0.1,0.8,0.1,1.2
		l0.1,1.2c0,0.4,0.1,0.8,0.1,1.3c0,0.4,0,0.9,0.1,1.3l1.6,0.2l0,0l0,0c0-0.4,0-0.9-0.1-1.4s-0.1-0.9-0.1-1.3l-0.1-1.3
		c0-0.4-0.1-0.8-0.1-1.3l-0.1-1.2l-0.1-1.2c-0.1-0.4-0.1-0.8-0.1-1.2l-0.2-1.1c0-0.4-0.1-0.8-0.2-1.1c-0.1-0.4-0.1-0.7-0.1-1.1
		s-0.1-0.7-0.2-1.1l-0.1-1.1l-0.1-1.1c0-0.4-0.1-0.7-0.1-1l-0.1-1c0-0.3-0.1-0.7-0.1-1l-0.1-1c0-0.3,0-0.7-0.1-1c-0.1-0.3,0-0.7,0-1
		s0-0.7,0-1v-1L640.8,588.9z"/>
	<path class="st3" d="M641.4,613.3L641.4,613.3l1.6,0.2l0,0L641.4,613.3z"/>
	<path class="st3" d="M641.4,613.3L641.4,613.3L641.4,613.3c0,0.5,0.1,0.8,0.1,1.3s0,0.8,0,1.2s0,0.8,0,1.2s0,0.8,0,1.2s0,0.8,0,1.2
		c0,0.4-0.1,0.8-0.1,1.2l-0.1,1.2l-0.1,1.2c0,0.4-0.1,0.8-0.1,1.2c0,0.4-0.1,0.8-0.2,1.2c-0.1,0.4-0.1,0.8-0.2,1.2
		c-0.1,0.4-0.1,0.8-0.2,1.2c-0.1,0.4-0.1,0.8-0.2,1.2c-0.1,0.4-0.1,0.8-0.2,1.2l-0.2,1.2c-0.1,0.4-0.1,0.8-0.2,1.2
		c-0.1,0.4-0.1,0.8-0.2,1.2c-0.1,0.4-0.1,0.8-0.2,1.2c-0.1,0.4-0.1,0.8-0.2,1.2l-0.2,1.2c0,0.4-0.1,0.8-0.1,1.2
		c-0.1,0.4-0.1,0.8-0.1,1.2l-0.1,1.3c0,0.4-0.1,0.8-0.1,1.3s0,0.8-0.1,1.3s0,0.9,0,1.3c0,0.4,0,0.9,0,1.3c0,0.4,0,0.9,0,1.3l0.1,1.3
		c0,0.4,0.1,0.9,0.1,1.3c0,0.4,0.1,0.9,0.1,1.3s0.1,0.9,0.2,1.4l0,0l1.6-0.1l0,0l0,0l0,0c-0.1-0.4-0.1-0.8-0.2-1.2s-0.1-0.8-0.1-1.3
		c0-0.4-0.1-0.8-0.1-1.2s0-0.8,0-1.2s0-0.8,0-1.2c0-0.4,0-0.8,0-1.2c0-0.4,0-0.8,0-1.2s0-0.8,0.1-1.2s0.1-0.8,0.1-1.2l0.1-1.2
		c0-0.4,0.1-0.8,0.1-1.2l0.1-1.2c0.1-0.4,0.1-0.8,0.2-1.2s0.1-0.8,0.2-1.2s0.1-0.8,0.2-1.2c0.1-0.4,0.1-0.8,0.2-1.2l0.2-1.2
		c0.1-0.4,0.1-0.8,0.2-1.2s0.1-0.8,0.2-1.2l0.2-1.2c0.1-0.4,0.1-0.8,0.2-1.2l0.2-1.2c0-0.4,0.1-0.8,0.1-1.2l0.1-1.3
		c0-0.4,0.1-0.8,0.1-1.3c0-0.4,0.1-0.8,0.1-1.3l0.1-1.3c0-0.4,0-0.9,0-1.3s0-0.9,0-1.3c0-0.4,0-0.9,0-1.3c0-0.4,0-0.9,0-1.3
		l-0.1-1.3L641.4,613.3L641.4,613.3z M641.4,613.3L641.4,613.3L641.4,613.3z"/>
	<path class="st3" d="M641.4,613.3L641.4,613.3L641.4,613.3L641.4,613.3z"/>
	<path class="st3" d="M640.6,653.3L640.6,653.3L640.6,653.3z"/>
	<path class="st3" d="M639,653.4L639,653.4L639,653.4L639,653.4L639,653.4l0.3,1.7c0.1,0.5,0.2,1.1,0.3,1.6c0.1,0.5,0.2,1,0.2,1.5
		c0.1,0.5,0.2,1,0.2,1.4s0.1,0.9,0.2,1.4l0.2,1.3c0.1,0.4,0.1,0.8,0.2,1.2l0.2,1.2c0.1,0.4,0.1,0.7,0.1,1.1l0.1,1.1l0.1,1
		c0,0.3,0.1,0.7,0.1,1c0,0.3,0,0.6,0.1,1l0.1,0.9c0,0.3,0,0.6,0,0.9v0.9c0,0.3,0,0.6,0,0.9s0,0.6,0,0.9v0.9c0,0.3,0,0.6,0,0.9
		s0,0.6-0.1,1l-0.1,1c0,0.3-0.1,0.7-0.1,1l-0.1,1.1c0,0.4-0.1,0.7-0.1,1.1l-0.2,1.2c-0.1,0.4-0.1,0.8-0.2,1.2
		c-0.1,0.4-0.1,0.9-0.2,1.3c-0.1,0.4-0.2,0.9-0.2,1.4l-0.2,1.4l-0.3,1.5c-0.1,0.5-0.2,1.1-0.3,1.6l0,0l1.6,0.8l0.3-1.6
		c0.1-0.5,0.2-1,0.3-1.5c0.1-0.5,0.2-1,0.3-1.4c0.1-0.5,0.2-0.9,0.2-1.4c0.1-0.5,0.1-0.9,0.2-1.3c0.1-0.4,0.1-0.8,0.2-1.2l0.2-1.2
		c0.1-0.4,0.1-0.8,0.1-1.1c0-0.4,0.1-0.7,0.1-1.1l0.1-1.1l0.1-1c0-0.3,0-0.7,0.1-1c0.1-0.3,0-0.7,0-1v-1c0-0.3,0-0.6,0-1
		c0-0.3,0-0.6,0-1c0-0.3,0-0.6,0-1c0-0.3,0-0.6,0-1c0-0.3,0-0.7-0.1-1l-0.1-1c0-0.3-0.1-0.7-0.1-1c0-0.3-0.1-0.7-0.1-1.1
		c0-0.4-0.1-0.7-0.1-1.1c0-0.4-0.1-0.8-0.2-1.1l-0.2-1.2c-0.1-0.4-0.1-0.8-0.2-1.2l-0.2-1.3c-0.1-0.5-0.1-0.9-0.2-1.4
		c-0.1-0.5-0.2-1-0.2-1.4l-0.2-1.5c-0.1-0.5-0.2-1.1-0.3-1.6l-0.3-1.7L639,653.4L639,653.4z"/>
	<polygon class="st3" points="637.8,612.6 637.8,612.6 637.8,612.6 637.8,612.6 	"/>
	<path class="st3" d="M638.3,731c-0.1-0.4-0.1-0.9-0.2-1.3l-0.2-1.4c-0.1-0.5-0.1-0.9-0.2-1.4c-0.1-0.5-0.1-0.9-0.2-1.4l-0.2-1.4
		c-0.1-0.5-0.1-1-0.2-1.4l-0.2-1.5c-0.1-0.5-0.1-1-0.2-1.5l-0.2-1.5c-0.1-0.5-0.1-1-0.2-1.5c-0.1-0.5-0.1-1-0.2-1.5
		c-0.1-0.5-0.1-1-0.2-1.5l-0.2-1.5c-0.1-0.5-0.1-1-0.2-1.5l-0.2-1.5l-0.1-1.5c0-0.5-0.1-1-0.1-1.4l-0.1-1.4l-0.1-1.4l-0.1-1.4
		c0-0.5,0-0.9,0-1.4s0-0.9,0-1.4s0-0.9,0-1.3c0-0.4,0-0.9,0-1.3c0-0.4,0.1-0.8,0.1-1.3l0.1-1.2l0.1-1.2c0.1-0.4,0.1-0.8,0.2-1.1
		l0.2-1.1l0,0l-1.6-0.8c-0.1,0.4-0.2,0.8-0.2,1.2s-0.1,0.8-0.2,1.2c-0.1,0.4-0.1,0.8-0.2,1.3l-0.1,1.3c0,0.4,0,0.9-0.1,1.3
		s0,0.9,0,1.4c0,0.5,0,0.9,0,1.4s0,0.9,0,1.4c0,0.5,0,0.9,0,1.4s0,1,0.1,1.4c0.1,0.5,0.1,1,0.1,1.5l0.1,1.5c0,0.5,0.1,1,0.1,1.5
		c0,0.5,0.1,1,0.1,1.5l0.2,1.5l0.2,1.5l0.2,1.5c0.1,0.5,0.1,1,0.2,1.5s0.1,1,0.2,1.5c0.1,0.5,0.1,1,0.2,1.5l0.2,1.5l0.2,1.5l0.2,1.5
		l0.2,1.4l0.2,1.4c0.1,0.5,0.1,0.9,0.2,1.4s0.1,0.9,0.2,1.4l0.2,1.4l0.2,1.3c0.1,0.4,0.1,0.9,0.2,1.3s0.1,0.8,0.2,1.3
		c0.1,0.4,0.1,0.8,0.1,1.2l1.6,0.6l-1.4-1.1L638.3,731z"/>
	<path class="st3" d="M637.8,612.6c0-0.4,0-0.8-0.1-1.3s-0.1-0.9-0.1-1.3l-0.1-1.3c0-0.4-0.1-0.8-0.1-1.2s-0.1-0.8-0.1-1.2
		s-0.1-0.8-0.2-1.2l-0.2-1.2l-0.2-1.2c-0.1-0.4-0.1-0.8-0.2-1.2c-0.1-0.4-0.1-0.8-0.2-1.1s-0.1-0.8-0.2-1.1l-0.2-1.1
		c0-0.4-0.1-0.7-0.2-1.1c-0.1-0.4-0.1-0.7-0.1-1.1l-0.1-1.1c0-0.4-0.1-0.7-0.1-1.1c0-0.4-0.1-0.7-0.1-1.1s-0.1-0.7-0.1-1l-0.1-1
		c0-0.3,0-0.7,0-1s0-0.7,0-1c0-0.3,0-0.7,0-1l0.1-1l0.1-1c0-0.3,0.1-0.7,0.1-1l0.2-1c0.1-0.3,0.1-0.7,0.2-1c0.1-0.3,0.2-0.7,0.2-1
		c0.1-0.4,0.2-0.7,0.3-1c0.1-0.3,0.2-0.7,0.3-1.1s0.3-0.7,0.4-1.1c0.1-0.2,0.1-0.4,0.2-0.6l-0.5-0.1c-0.3-0.6-0.5-1.1-0.7-1.7l0,0
		l-0.5,1.2c-0.1,0.4-0.3,0.8-0.4,1.2s-0.2,0.8-0.4,1.1c-0.1,0.4-0.2,0.8-0.3,1.1c-0.1,0.4-0.2,0.8-0.3,1.1l-0.2,1.1
		c-0.1,0.4-0.1,0.7-0.2,1.1c-0.1,0.4-0.1,0.8-0.1,1.1s-0.1,0.7-0.1,1.1l-0.1,1.1c0,0.4,0,0.7,0,1.1c0,0.4,0,0.7,0,1.1
		c0,0.4,0,0.7,0,1.1c0,0.4,0,0.7,0.1,1.1c0.1,0.4,0.1,0.7,0.1,1.1l0.1,1.1c0,0.4,0.1,0.7,0.1,1.1c0,0.4,0.1,0.7,0.1,1.1
		s0.1,0.7,0.1,1.1l0.2,1.1l0.2,1.1c0.1,0.4,0.1,0.8,0.2,1.1c0.1,0.3,0.1,0.8,0.2,1.1l0.2,1.2c0.1,0.4,0.1,0.8,0.2,1.2
		c0.1,0.4,0.1,0.8,0.2,1.2c0.1,0.4,0.1,0.8,0.2,1.2l0.1,1.2c0,0.4,0.1,0.8,0.1,1.2l0.1,1.2c0,0.4,0.1,0.8,0.1,1.2
		c0,0.4,0,0.8,0.1,1.3v0L637.8,612.6L637.8,612.6z"/>
	<polygon class="st3" points="637.8,612.6 637.8,612.6 637.8,612.6 637.8,612.6 	"/>
	<path class="st3" d="M635.1,652.3L635.1,652.3L635.1,652.3c0-0.4-0.1-0.8-0.2-1.2l-0.1-1.3c0-0.4,0-0.8-0.1-1.2c0-0.4,0-0.8,0-1.2
		v-1.2v-1.2l0.1-1.2c0-0.4,0-0.8,0.1-1.2c0-0.4,0.1-0.8,0.1-1.2c0-0.4,0.1-0.8,0.1-1.2l0.1-1.2c0.1-0.4,0.1-0.8,0.2-1.2
		c0-0.4,0.1-0.8,0.2-1.2c0.1-0.4,0.1-0.8,0.2-1.2l0.2-1.2l0.2-1.2c0.1-0.4,0.1-0.8,0.2-1.2l0.2-1.2c0.1-0.4,0.1-0.8,0.2-1.2
		c0.1-0.4,0.1-0.8,0.2-1.2s0.1-0.8,0.2-1.2c0.1-0.4,0.1-0.8,0.2-1.2s0.1-0.8,0.2-1.2c0-0.4,0.1-0.8,0.1-1.2s0.1-0.8,0.1-1.3l0.1-1.3
		c0-0.4,0-0.9,0.1-1.3l0.1-1.3v-1.3c0-0.4,0-0.9,0-1.3s0-0.9,0-1.3l-0.1-1.4l0,0l0,0l-1.6-0.1c0,0.4,0.1,0.8,0.1,1.3
		c0,0.4,0,0.8,0,1.3v1.3c0,0.4,0,0.8,0,1.2c0,0.4,0,0.8,0,1.2c0,0.4-0.1,0.8-0.1,1.2c0,0.4-0.1,0.8-0.1,1.2c0,0.4-0.1,0.8-0.1,1.2
		l-0.1,1.2c-0.1,0.4-0.1,0.8-0.2,1.2s-0.1,0.8-0.2,1.2c-0.1,0.4-0.1,0.8-0.2,1.2l-0.2,1.2l-0.2,1.2l-0.2,1.2
		c-0.1,0.4-0.1,0.8-0.2,1.2l-0.2,1.2l-0.2,1.2c-0.1,0.4-0.1,0.8-0.2,1.2c-0.1,0.4-0.1,0.8-0.2,1.2c-0.1,0.4-0.1,0.8-0.2,1.2
		l-0.1,1.2c0,0.4-0.1,0.8-0.1,1.2l-0.1,1.3l-0.1,1.3l-0.1,1.3c0,0.4,0,0.9,0,1.3v1.3c0,0.4,0,0.9,0,1.3s0,0.9,0.1,1.3
		s0.1,0.9,0.1,1.3l0.2,1.4v0.1L635.1,652.3L635.1,652.3z"/>
	<path class="st3" d="M637.8,612.6L637.8,612.6L637.8,612.6z"/>
	<path class="st3" d="M635.1,652.3L635.1,652.3l-1.6,0.2l0,0L635.1,652.3z"/>
	<path class="st3" d="M635.5,690.9c0.1-0.4,0.2-0.9,0.3-1.3c0.1-0.4,0.2-0.9,0.3-1.3c0.1-0.4,0.2-0.9,0.2-1.3l0.2-1.3
		c0.1-0.4,0.1-0.8,0.2-1.2s0.1-0.8,0.2-1.2s0.1-0.8,0.2-1.2l0.1-1.2l0.1-1.2c0-0.4,0.1-0.8,0.1-1.1c0-0.3,0-0.8,0.1-1.1l0.1-1.1
		c0-0.4,0-0.7,0-1.1c0-0.4,0-0.7,0-1.1v-1.1c0-0.4,0-0.7,0-1.1v-1.1l-0.1-1.1c0-0.4,0-0.8-0.1-1.1l-0.1-1.1c0-0.4-0.1-0.8-0.1-1.1
		c0-0.3-0.1-0.8-0.1-1.2c0-0.4-0.1-0.8-0.1-1.2s-0.1-0.8-0.1-1.2l-0.2-1.2c-0.1-0.4-0.1-0.8-0.2-1.2c-0.1-0.4-0.1-0.8-0.2-1.3
		c-0.1-0.4-0.1-0.9-0.2-1.3l-0.2-1.3c-0.1-0.4-0.1-0.9-0.2-1.4c-0.1-0.4-0.2-0.9-0.2-1.4l-0.2-1.4l-1.6,0.2l0,0l0.2,1.4
		c0.1,0.5,0.2,0.9,0.2,1.4s0.1,0.9,0.2,1.3c0.1,0.4,0.1,0.9,0.2,1.3c0.1,0.4,0.1,0.8,0.2,1.3c0.1,0.4,0.1,0.8,0.2,1.2
		c0.1,0.4,0.1,0.8,0.2,1.2c0.1,0.4,0.1,0.8,0.2,1.2l0.1,1.2c0,0.4,0.1,0.8,0.1,1.1c0,0.3,0.1,0.8,0.1,1.1c0,0.4,0.1,0.7,0.1,1.1
		l0.1,1.1c0,0.4,0,0.7,0.1,1.1c0.1,0.4,0,0.7,0,1.1s0,0.7,0,1.1c0,0.4,0,0.7,0,1.1v1.1c0,0.4,0,0.7,0,1.1s0,0.7,0,1.1l-0.1,1.1
		c0,0.4-0.1,0.7-0.1,1.1c0,0.4-0.1,0.7-0.1,1.1c0,0.4-0.1,0.7-0.1,1.1c0,0.4-0.1,0.8-0.1,1.1s-0.1,0.8-0.2,1.2l-0.2,1.2
		c-0.1,0.4-0.1,0.8-0.2,1.2s-0.1,0.8-0.2,1.2c-0.1,0.4-0.2,0.8-0.2,1.3c-0.1,0.4-0.2,0.9-0.3,1.3l-0.3,1.3l0,0L635.5,690.9z"/>
	<path class="st3" d="M635.5,690.9l-1.6-0.8l0,0L635.5,690.9z"/>
	<polygon class="st3" points="633.5,652.4 633.5,652.4 633.5,652.4 	"/>
	<path class="st4" d="M576.9,589.7c-9.5,28.3-18.9,56.6-28.4,84.9l-1.1-4.5c-0.2,0.7-0.5,1.3-0.7,2c16,45.8,47.6,86,83.3,105.1
		c-4.3-15.6-8.7-31.3-13-46.9C603.6,683.3,590.3,636.5,576.9,589.7z"/>
	<path class="st4" d="M711.4,705.2c-9.4-31.7-18.9-63.4-28.3-95.2c-13.3,41.7-26.6,83.3-39.9,124.8c-4.4,14.1-8.8,28.2-13.2,42.3
		c35.7-5.2,67.3-33.5,83.3-73.7c-0.2-0.7-0.4-1.4-0.7-2.1C712.2,702.6,711.8,703.9,711.4,705.2z"/>
	<path class="st0" d="M630,762.4c-17.7-62.2-35.4-124.3-53.1-186.4c-10.1,30.2-20.2,60.4-30.3,90.7c0.6,2.6,1.3,5.2,1.9,7.8
		c9.5-28.3,18.9-56.6,28.4-84.8c17.7,62,35.4,124.2,53.1,186.4c17.7-55.3,35.4-110.6,53.1-166c9.4,31.8,18.9,63.5,28.3,95.2
		c0.7-2.3,1.4-4.5,2.1-6.8c-10.1-34-20.2-68-30.4-102.1C665.4,651.8,647.7,707.1,630,762.4z"/>
	<path class="st4" d="M641.3,480.5l-22.6-4.4v33.1c-26-5-52-10-78.1-14.6v29.2c26,4.6,52,9.5,78.1,14.6v33.1l22.6,4.4v-33.1
		c26,5,52,10,78.1,14.6v-29.2c-26-4.5-52-9.5-78.1-14.6V480.5z"/>
	<path class="st5" d="M618.7,474.4v3.5l22.6,4.4l-1.4-2l2.7,0.5l-1.3-2L618.7,474.4z"/>
	<path class="st5" d="M642.6,480.8V479l-1.3-0.3L642.6,480.8z"/>
	<path class="st5" d="M617.4,573.1l1.3,0.3l-1.3-2V573.1z"/>
	<path class="st5" d="M620.1,571.8l-2.7-0.5l1.3,2l22.6,4.4v-3.5l-22.6-4.4L620.1,571.8z"/>
	<polygon points="542,463.6 542,463.6 542,463.6 	"/>
	<path d="M540.7,459.8L540.7,459.8c-0.5,0.5-0.9,1-1.4,1.5l0,0C539.7,460.8,540.2,460.3,540.7,459.8z"/>
	<path d="M539.3,459.6v1.8c0.5-0.5,0.9-1,1.4-1.5L539.3,459.6z"/>
	<path d="M719.3,493.3l1.3,2l0,0L719.3,493.3z"/>
	<path d="M720.7,495.3v-1.8l-1.3-0.2L720.7,495.3z"/>
	<path d="M719.3,493.3L719.3,493.3c-59.6-10.4-119.1-23.1-178.7-33.5l0,0c-0.5,0.5-0.9,1-1.4,1.5l0,0v95.4l0,0v74.2
		c0,40.2,17.6,76.2,41,104.9c9,11.1,19.2,21.4,30.5,30.8c5.6,4.2,13.1,10.6,19.3,12.2c6.2,0.7,13.7-2.7,19.3-4.8
		c11.2-5,21.5-11.4,30.5-19.1c23.2-20,41-49.9,40.9-90.1v-74.2l0,0v-95.4L719.3,493.3L719.3,493.3z M719.3,592.2l-1.3-2v74.2
		c0,39.3-17.2,67.9-39.9,87.5c-9.6,7.9-19,14-30,18.7c-5.1,2.1-12.4,5.1-18.1,4.7c-5.7-1.8-13-7.6-18.1-11.7
		c-11.1-9.2-21.1-19.3-30-30.2c-22.6-28-40-63-39.9-102.1v-74.2l0,0v-93.6l0,0c58.7,10.3,117.3,22.7,176,33v93.6l1.3-1.5V592.2z"/>
	<polygon points="718,590.2 718,590.2 718,590.2 718,590.2 	"/>
	<path class="st0" d="M628.9,611.1c-0.8-14.8-5-22.6,0-36.1l-5.4-0.9c-2.1,6.9-2.8,7.6-2.1,16.3c0.7,6.7,1.9,13.2,2.2,19.8
		c1.1,13.9-4.5,26-2.5,39.8c2.9,19.7,3.7,19.4,0.1,38.1c-1.7,11.5,0.5,24.3-1.8,36.5l3.7,13.2l0,0c5.4-16.1,1.2-33.4,3.5-48.8
		c3.4-18.2,2.8-19-0.3-38.1C624.3,637.3,630.2,625.1,628.9,611.1z"/>
	<polygon class="st3" points="622.2,590.4 622.2,590.4 622.2,590.4 622.2,590.4 	"/>
	<path class="st3" d="M620.6,590.4L620.6,590.4h1.6l0,0H620.6z"/>
	<path class="st3" d="M622.2,590.5L622.2,590.5L622.2,590.5z"/>
	<path class="st3" d="M624.4,610.3L624.4,610.3L624.4,610.3L624.4,610.3z"/>
	<polygon class="st3" points="620.6,590.4 620.6,590.4 620.6,590.4 620.6,590.4 	"/>
	<path class="st3" d="M620.3,650.1L620.3,650.1l1.6-0.1l0,0L620.3,650.1z"/>
	<polygon class="st3" points="624.4,610.3 624.4,610.3 624.4,610.3 624.4,610.3 	"/>
	<polygon class="st3" points="624.4,610.3 624.4,610.3 624.4,610.3 624.4,610.3 	"/>
	<polygon class="st3" points="622.2,590.4 622.2,590.4 622.2,590.4 622.2,590.4 	"/>
	<polygon class="st3" points="621.9,650 621.9,650 621.9,650 	"/>
	<polygon class="st3" points="624.4,610.3 624.4,610.3 624.4,610.3 	"/>
	<polygon class="st3" points="622.2,590.4 622.2,590.4 622.2,590.4 622.2,590.4 	"/>
	<polygon class="st3" points="622.2,590.4 622.2,590.4 622.2,590.4 622.2,590.4 622.2,590.4 	"/>
	<path class="st3" d="M625.8,688.7L625.8,688.7L625.8,688.7L625.8,688.7L625.8,688.7L625.8,688.7z"/>
	<polygon class="st3" points="620.3,650.1 620.3,650.1 620.3,650.1 	"/>
	<path class="st3" d="M620.4,687.7L620.4,687.7L620.4,687.7z"/>
	<path class="st3" d="M629.7,575.6L629.7,575.6l0.5-1.4l-1.3-0.2C629.2,574.5,629.4,575.1,629.7,575.6L629.7,575.6z"/>
	<path class="st3" d="M620.4,687.8L620.4,687.8L620.4,687.8z"/>
	<path class="st3" d="M618.6,724.6c0,0.1,0.1,0.2,0.1,0.3c0-0.2,0-0.4,0-0.6L618.6,724.6z"/>
	<path class="st3" d="M629.7,575.6L629.7,575.6c-0.3-0.6-0.5-1.1-0.8-1.7l0,0C629.2,574.5,629.4,575.1,629.7,575.6z"/>
	<path class="st3" d="M623.9,738.5l-1.5-0.3c0.2,0.9,0.5,1.8,0.7,2.7L623.9,738.5z"/>
	<polygon class="st3" points="618.7,724.9 618.7,724.9 618.7,724.9 	"/>
	<path class="st3" d="M620.3,650L620.3,650L620.3,650z"/>
	<polygon class="st3" points="620.2,724.4 620.2,724.4 620.2,724.4 	"/>
	<polygon class="st3" points="625.8,688.7 625.8,688.7 625.8,688.7 625.8,688.7 625.8,688.7 	"/>
	<polygon class="st3" points="625.8,688.7 625.8,688.7 625.8,688.7 625.8,688.7 	"/>
	<path class="st3" d="M620.2,724.4c0,0.2,0,0.4,0,0.6l0.1-0.3C620.2,724.6,620.2,724.5,620.2,724.4L620.2,724.4z"/>
	<polygon class="st3" points="625.8,688.7 625.8,688.7 625.8,688.7 	"/>
	<polygon class="st3" points="628.1,611 628.1,611 628.1,611 	"/>
	<polygon class="st3" points="629,576.1 629,576.1 629,576.1 	"/>
	<polygon class="st3" points="625.6,651.1 625.6,651 625.6,651.1 	"/>
	<path class="st3" d="M623.5,573.1L623.5,573.1L623,573c-0.1,0.2-0.1,0.4-0.2,0.6L623.5,573.1L623.5,573.1z"/>
	<path class="st3" d="M622.4,737.4l0.5-1.5c0.1-0.3,0.2-0.7,0.3-1c-0.9-3.4-1.9-6.8-2.9-10.1l-0.1,0.3c0-0.2,0-0.4,0-0.6l-1.5,0.5
		c1.2,4.4,2.5,8.8,3.7,13.2l0,0l1.5,0.3l0,0L622.4,737.4z"/>
	<path class="st3" d="M620.2,724.4L620.2,724.4c0,0.1,0.1,0.2,0.1,0.3c0.1-0.3,0.1-0.6,0.2-0.8c0.1-0.3,0.1-0.8,0.2-1.2
		c0.1-0.4,0.1-0.8,0.2-1.2l0.1-1.2l0.1-1.2c0-0.4,0.1-0.8,0.1-1.2l0.1-1.2l0.1-1.2c0-0.4,0-0.8,0-1.2s0-0.8,0-1.2v-1.2
		c0-0.4,0-0.8,0-1.2v-2.3c0-0.4,0-0.8,0-1.2c0-0.4,0-0.8,0-1.2c0-0.4,0-0.8,0-1.2s0-0.8,0-1.2c0-0.4,0-0.8,0-1.2v-2.3
		c0-0.4,0-0.8,0-1.1s0-0.7,0-1.1v-1.1c0-0.4,0-0.7,0-1.1s0-0.7,0-1.1s0-0.7,0.1-1.1c0.1-0.4,0-0.7,0.1-1.1c0-0.4,0.1-0.7,0.1-1.1
		l0.1-1.1c0-0.4,0.1-0.7,0.1-1.1c0-0.4,0.1-0.7,0.2-1l0,0l0,0l0,0l-1.6-0.7c0,0.4-0.1,0.7-0.2,1.1l-0.1,1.1l-0.1,1.1
		c0,0.4-0.1,0.7-0.1,1.1c0,0.4,0,0.8-0.1,1.1s0,0.8-0.1,1.1c0,0.4,0,0.8,0,1.1s0,0.8,0,1.1s0,0.8,0,1.1s0,0.8,0,1.2v3.4
		c0,0.4,0,0.8,0,1.2v1.2c0,0.4,0,0.8,0,1.2c0,0.4,0,0.8,0,1.2c0,0.4,0,0.8,0,1.2v3.5c0,0.4,0,0.8,0,1.2s0,0.8,0,1.2
		c0,0.4,0,0.8,0,1.2l-0.1,1.1l-0.1,1.1c0,0.4-0.1,0.8-0.1,1.1l-0.1,1.1c0,0.4-0.1,0.8-0.1,1.1s-0.1,0.8-0.1,1.1s-0.1,0.8-0.2,1.1
		c-0.1,0.4-0.1,0.7-0.2,1.1c0,0.2,0,0.4,0,0.6L620.2,724.4L620.2,724.4z"/>
	<path class="st3" d="M622,688.5L622,688.5L622,688.5L622,688.5z"/>
	<path class="st3" d="M623.1,734.9c-0.1,0.3-0.2,0.7-0.3,1l-0.5,1.5l1.5,1.1l0,0c0-0.3,0-0.5,0-0.8
		C623.7,736.7,623.4,735.8,623.1,734.9z"/>
	<polygon class="st3" points="620.3,650.1 620.3,650.1 620.3,650.1 620.3,650.1 	"/>
	<path class="st3" d="M625.8,688.7L625.8,688.7L625.8,688.7L625.8,688.7L625.8,688.7L625.8,688.7c-0.1,0.5-0.1,1-0.2,1.5
		s-0.1,1-0.2,1.5c-0.1,0.5-0.1,1-0.1,1.5l-0.1,1.5c0,0.5,0,1-0.1,1.5l-0.1,1.5v1.5c0,0.5,0,1,0,1.5v1.5c0,0.5,0,1,0,1.5s0,1,0,1.5
		v1.5v1.5v1.5v1.5v1.5c0,0.5,0,1,0,1.5v1.5c0,0.5,0,1,0,1.5s0,1,0,1.5l-0.1,1.5c0,0.5,0,1-0.1,1.5s-0.1,1-0.1,1.5l-0.1,1.5l-0.2,1.5
		c-0.1,0.5-0.1,1-0.2,1.5c-0.1,0.5-0.2,1-0.2,1.5c-0.1,0.5-0.2,1-0.3,1.5c-0.1,0.5-0.2,1-0.3,1.5c-0.1,0.5-0.2,1-0.4,1.5l-0.1,0.5
		c0.3,0.9,0.5,1.9,0.8,2.8c0,0.3,0,0.5,0,0.8l0.5-1.5c0.2-0.5,0.3-1,0.4-1.6l0.4-1.6l0.3-1.6c0.1-0.5,0.2-1,0.3-1.6l0.2-1.6
		c0.1-0.5,0.1-1,0.2-1.6s0.1-1,0.2-1.6l0.1-1.6c0-0.5,0.1-1.1,0.1-1.6l0.1-1.6l0.1-1.6v-1.6c0-0.5,0-1,0-1.6v-1.6c0-0.5,0-1,0-1.6
		v-1.6v-1.6v-1.5v-1.5v-1.5v-1.5c0-0.5,0-1,0-1.5s0-1,0-1.5c0-0.5,0-1,0-1.5v-1.5c0-0.5,0-1,0-1.5l0.1-1.5c0-0.5,0.1-1,0.1-1.5
		l0.1-1.4c0.1-0.5,0.1-1,0.2-1.4s0.1-0.9,0.2-1.4v0l0,0L625.8,688.7z"/>
	<polygon class="st3" points="625.6,651 625.6,651 625.6,651 625.6,651 	"/>
	<path class="st3" d="M622,688.5l-1.6-0.7l0,0L622,688.5z"/>
	<path class="st3" d="M629.8,611.2L629.8,611.2L629.8,611.2z"/>
	<path class="st3" d="M620.3,650.1L620.3,650.1L620.3,650.1z"/>
	<path class="st3" d="M627.4,586.6l0.1-1c0-0.3,0.1-0.7,0.1-1s0.1-0.7,0.1-1l0.2-1.1c0.1-0.4,0.1-0.7,0.2-1.1l0.2-1.1l0.3-1.1
		c0.1-0.4,0.2-0.8,0.3-1.2l0.4-1.2l0.4-1.2c-0.3-0.6-0.5-1.1-0.8-1.7c0,0.7,0,1.4,0,2.2l0,0l-1.3-0.2c-0.1,0.4-0.2,0.7-0.3,1.1
		l-0.4,1.2l-0.3,1.2l-0.3,1.2l-0.2,1.2c-0.1,0.4-0.1,0.8-0.2,1.1l-0.1,1.1c0,0.4-0.1,0.7-0.1,1.1c0,0.4,0,0.7-0.1,1.1v1.1
		c0,0.4,0,0.7,0,1.1v1.1c0,0.4,0,0.7,0,1.1s0.1,0.7,0.1,1s0.1,0.7,0.1,1s0.1,0.7,0.1,1.1c0,0.4,0.1,0.7,0.1,1l0.1,1.1
		c0.1,0.4,0.1,0.7,0.1,1.1s0.1,0.7,0.2,1.1l0.2,1.1l0.2,1.1c0.1,0.4,0.1,0.7,0.2,1.1l0.2,1.1c0.1,0.4,0.1,0.8,0.2,1.2
		c0,0.4,0.1,0.8,0.2,1.2l0.1,1.2l0.1,1.2c0,0.4,0.1,0.8,0.1,1.3c0,0.4,0.1,0.9,0.1,1.3c0,0.4,0.1,0.9,0.1,1.4l0,0l1.6,0.2l0,0
		c0-0.5-0.1-0.9-0.1-1.4l-0.1-1.3c0-0.4-0.1-0.9-0.1-1.3l-0.1-1.3c0-0.4-0.1-0.8-0.1-1.2c-0.1-0.4-0.1-0.8-0.2-1.2
		c-0.1-0.4-0.1-0.8-0.2-1.2l-0.2-1.2l-0.2-1.1l-0.2-1.1c-0.1-0.4-0.1-0.7-0.2-1.1c-0.1-0.4-0.1-0.7-0.2-1.1c-0.1-0.4-0.1-0.7-0.1-1
		s-0.1-0.7-0.1-1c0-0.3-0.1-0.7-0.1-1c0-0.3-0.1-0.7-0.1-1c0-0.3-0.1-0.7-0.1-1s0-0.7-0.1-1l-0.1-1c0-0.3,0-0.7,0-1v-1
		C627.4,587.3,627.4,586.9,627.4,586.6z"/>
	<path class="st3" d="M625.8,688.7l1.6,0.8l0,0L625.8,688.7z"/>
	<path class="st3" d="M628.1,611L628.1,611L628.1,611c0,0.5,0.1,0.9,0.1,1.3l0.1,1.3v1.3v1.2c0,0.4,0,0.8,0,1.2
		c0,0.4-0.1,0.8-0.1,1.2c0,0.4-0.1,0.8-0.1,1.2L628,621c-0.1,0.4-0.1,0.8-0.1,1.2s-0.1,0.8-0.2,1.2l-0.2,1.2
		c-0.1,0.4-0.1,0.8-0.2,1.2l-0.2,1.2l-0.2,1.2c-0.1,0.4-0.1,0.8-0.2,1.2c-0.1,0.4-0.1,0.8-0.2,1.2c-0.1,0.4-0.1,0.8-0.2,1.2
		l-0.2,1.2l-0.2,1.2c-0.1,0.4-0.1,0.8-0.2,1.2l-0.2,1.2c0,0.4-0.1,0.8-0.1,1.2s-0.1,0.8-0.1,1.2s-0.1,0.8-0.1,1.3l-0.1,1.3l-0.1,1.3
		v1.3c0,0.4,0,0.9,0,1.3c0,0.4,0,0.9,0,1.3l0.1,1.3l0.1,1.3c0.1,0.4,0.1,0.9,0.2,1.3l0,0l1.6-0.1l0,0l0,0l-0.2-1.2
		c0-0.4-0.1-0.8-0.1-1.2l-0.1-1.2c0-0.4,0-0.8,0-1.2v-1.2v-1.2l0.1-1.2l0.1-1.2c0-0.4,0.1-0.8,0.1-1.2c0-0.4,0.1-0.8,0.1-1.2
		l0.1-1.2l0.2-1.2c0.1-0.4,0.1-0.8,0.2-1.2c0.1-0.4,0.1-0.8,0.2-1.2l0.2-1.2c0.1-0.4,0.1-0.8,0.2-1.2c0.1-0.4,0.1-0.8,0.2-1.2
		c0.1-0.4,0.1-0.8,0.2-1.2c0.1-0.4,0.1-0.8,0.2-1.2l0.2-1.2c0.1-0.4,0.1-0.8,0.2-1.2s0.1-0.8,0.2-1.2s0.1-0.8,0.2-1.3
		c0.1-0.4,0.1-0.8,0.1-1.3c0-0.4,0.1-0.8,0.1-1.3c0-0.4,0.1-0.9,0.1-1.3c0-0.4,0-0.9,0.1-1.3c0-0.4,0-0.9,0-1.3s0-0.9,0-1.3
		s0-0.9,0-1.3l-0.1-1.3c0-0.4-0.1-0.9-0.1-1.3L628.1,611L628.1,611z M628.1,611L628.1,611L628.1,611z"/>
	<path class="st3" d="M628.1,611L628.1,611L628.1,611L628.1,611z"/>
	<path class="st3" d="M625.6,651L625.6,651c0.1,0.6,0.2,1.2,0.3,1.7c0.1,0.6,0.2,1.1,0.3,1.6s0.2,1,0.3,1.5c0.1,0.5,0.2,1,0.2,1.5
		l0.2,1.4c0.1,0.4,0.1,0.9,0.2,1.3l0.2,1.2c0.1,0.4,0.1,0.8,0.2,1.2s0.1,0.7,0.2,1.1l0.1,1.1c0,0.3,0.1,0.7,0.1,1
		c0,0.3,0.1,0.6,0.1,1l0.1,0.9c0,0.3,0,0.6,0.1,0.9c0.1,0.3,0,0.6,0,0.9v0.9c0,0.3,0,0.6,0,0.9s0,0.6,0,0.9c0,0.3,0,0.6,0,0.9
		l-0.1,0.9c0,0.3,0,0.6-0.1,0.9l-0.1,1l-0.1,1c0,0.4-0.1,0.7-0.1,1.1s-0.1,0.7-0.2,1.1s-0.1,0.8-0.2,1.2l-0.2,1.2l-0.2,1.3
		c-0.1,0.5-0.2,0.9-0.2,1.4c-0.1,0.5-0.2,1-0.3,1.5c-0.1,0.5-0.2,1-0.3,1.6s-0.2,1.1-0.3,1.6l0,0l1.6,0.8c0.1-0.6,0.2-1.1,0.3-1.7
		s0.2-1,0.3-1.6s0.2-1,0.3-1.5l0.2-1.4l0.2-1.3c0.1-0.4,0.1-0.8,0.2-1.3c0.1-0.5,0.1-0.8,0.2-1.2c0.1-0.4,0.1-0.8,0.2-1.1l0.1-1.1
		l0.1-1.1c0-0.3,0.1-0.7,0.1-1s0-0.7,0.1-1c0-0.3,0-0.6,0-1v-1c0-0.3,0-0.6,0-1s0-0.6,0-0.9s0-0.6,0-0.9s0-0.6,0-1s-0.1-0.6-0.1-1
		s-0.1-0.7-0.1-1l-0.1-1l-0.1-1c0-0.4-0.1-0.7-0.1-1.1c-0.1-0.4-0.1-0.8-0.2-1.1c-0.1-0.4-0.1-0.8-0.2-1.2l-0.2-1.2
		c-0.1-0.4-0.1-0.9-0.2-1.3c-0.1-0.4-0.2-0.9-0.2-1.4s-0.2-1-0.2-1.5l-0.2-1.5c-0.1-0.5-0.2-1.1-0.3-1.6c-0.1-0.5-0.2-1.1-0.3-1.7
		L625.6,651L625.6,651z"/>
	<path class="st3" d="M625.6,651L625.6,651l1.6-0.1l0,0L625.6,651z"/>
	<path class="st3" d="M622,688.5c0.1-0.6,0.2-1.1,0.3-1.7l0.3-1.6l0.3-1.5c0.1-0.5,0.2-0.9,0.3-1.4c0.1-0.5,0.1-0.9,0.2-1.3
		c0.1-0.4,0.1-0.8,0.2-1.3c0.1-0.5,0.1-0.8,0.2-1.2l0.2-1.1l0.1-1.1l0.1-1l0.1-1c0-0.3,0-0.6,0.1-1l0.1-1v-0.9c0-0.3,0-0.6,0-0.9
		s0-0.6,0-0.9v-0.9l-0.1-0.9c0-0.3,0-0.6-0.1-0.9l-0.1-1l-0.1-1c0-0.3-0.1-0.7-0.1-1c0-0.3-0.1-0.7-0.1-1.1c0-0.4-0.1-0.7-0.2-1.1
		c-0.1-0.4-0.1-0.8-0.2-1.2l-0.2-1.2c-0.1-0.4-0.1-0.9-0.2-1.3l-0.2-1.4c-0.1-0.5-0.2-1-0.2-1.5l-0.2-1.6c-0.1-0.6-0.2-1.1-0.3-1.7
		c-0.1-0.6-0.2-1.2-0.3-1.8l-1.6,0.1l0,0c0.1,0.6,0.2,1.2,0.3,1.8c0.1,0.6,0.2,1.1,0.3,1.7l0.2,1.6c0.1,0.5,0.2,1,0.2,1.5l0.2,1.4
		c0.1,0.4,0.1,0.9,0.2,1.3s0.1,0.8,0.2,1.2c0.1,0.4,0.1,0.8,0.2,1.2c0.1,0.4,0.1,0.7,0.1,1.1l0.1,1c0,0.3,0.1,0.7,0.1,1
		c0,0.3,0.1,0.6,0.1,1c0,0.3,0.1,0.6,0.1,0.9c0,0.3,0,0.6,0.1,0.9s0,0.6,0,0.9v0.9v1.7v0.9l-0.1,0.9c0,0.3,0,0.6-0.1,0.9
		c-0.1,0.3-0.1,0.6-0.1,1l-0.1,1l-0.1,1c0,0.4-0.1,0.7-0.2,1.1c-0.1,0.4-0.1,0.8-0.2,1.2c-0.1,0.4-0.1,0.8-0.2,1.2
		c-0.1,0.4-0.2,0.9-0.2,1.3l-0.2,1.4l-0.3,1.5l-0.3,1.6l-0.3,1.7v0l0,0L622,688.5z"/>
	<path class="st3" d="M624.1,575.3L624.1,575.3l3.6,0.6l0.1-0.2l0.5-1.3c0.3,0.6,0.5,1.1,0.8,1.7c0-0.7,0-1.4,0-2.2l0,0l-5.4-0.9
		l-0.8,0.6l0,0l1.5,1L624.1,575.3z"/>
	<path class="st3" d="M624.1,575.3L624.1,575.3l0.2-0.6l-1.5-1.1c0.3,0.5,0.5,1.1,0.8,1.6L624.1,575.3z"/>
	<path class="st3" d="M622.8,573.6l0.8-0.6l0,0L622.8,573.6L622.8,573.6z"/>
	<path class="st3" d="M620.6,590.4h1.6l0,0l-0.1-0.8l-0.1-0.7c0-0.2,0-0.5,0-0.7s0-0.4,0-0.7V587v-0.6c0-0.2,0-0.4,0-0.5v-1
		c0-0.2,0-0.3,0-0.5s0-0.3,0-0.4v-0.4v-0.4c0-0.1,0-0.3,0-0.4v-0.4c0-0.1,0-0.2,0.1-0.4l0.1-0.4c0-0.1,0.1-0.2,0.1-0.4
		c0-0.1,0.1-0.2,0.1-0.4l0.1-0.4c0-0.1,0.1-0.3,0.1-0.4l0.1-0.4c0-0.1,0.1-0.3,0.1-0.4c0-0.1,0.1-0.3,0.1-0.4l0.1-0.4
		c0-0.2,0.1-0.3,0.1-0.5l0.1-0.5l0.2-0.5c0.1-0.2,0.1-0.4,0.2-0.5l0.2-0.6l0.2-0.6l-0.6-0.1c-0.3-0.5-0.5-1.1-0.8-1.6l0,0l-0.2,0.6
		l-0.2,0.6c-0.1,0.2-0.1,0.4-0.2,0.6l-0.2,0.5l-0.2,0.5c-0.1,0.2-0.1,0.3-0.2,0.5c-0.1,0.2-0.1,0.3-0.1,0.5c0,0.2-0.1,0.3-0.1,0.5
		c0,0.2-0.1,0.3-0.1,0.4c0,0.2-0.1,0.3-0.1,0.4c0,0.1-0.1,0.3-0.1,0.4l-0.1,0.4c0,0.1-0.1,0.3-0.1,0.4l-0.1,0.4l-0.1,0.4l-0.1,0.4
		l-0.1,0.4l-0.1,0.4v0.4c0,0.2,0,0.3,0,0.5v0.5v0.5v0.5c0,0.2,0,0.4,0,0.5c0,0.2,0,0.4,0,0.6s0,0.4,0,0.6v0.6v0.6c0,0.2,0,0.4,0,0.7
		s0,0.5,0,0.7l0.1,0.8C620.5,589.8,620.5,590.1,620.6,590.4L620.6,590.4L620.6,590.4z"/>
	<polygon class="st3" points="628.9,573.9 628.9,573.9 628.9,573.9 	"/>
	<polygon class="st3" points="625.6,651 625.6,651 625.6,651 625.6,651 625.6,651 	"/>
	<path class="st3" d="M627.7,575.7l-0.1,0.2l1.3,0.2l0,0c-0.3-0.6-0.5-1.1-0.8-1.7L627.7,575.7z"/>
	<path class="st3" d="M620.6,590.4L620.6,590.4L620.6,590.4z"/>
	<path class="st3" d="M622.8,610.1L622.8,610.1L622.8,610.1L622.8,610.1z"/>
	<polygon class="st3" points="622.8,610.2 622.8,610.2 622.8,610.2 622.8,610.2 	"/>
	<polygon class="st3" points="622.8,610.2 622.8,610.2 622.8,610.2 	"/>
	<path class="st3" d="M621.9,650L621.9,650l-0.2-1.2c0-0.4-0.1-0.8-0.1-1.2l-0.1-1.2c0-0.4,0-0.8,0-1.2c0-0.4,0-0.8,0-1.2v-1.2
		c0-0.4,0-0.8,0-1.2s0-0.8,0.1-1.2c0.1-0.4,0.1-0.8,0.1-1.2c0-0.4,0.1-0.8,0.1-1.2l0.1-1.2c0-0.4,0.1-0.8,0.1-1.2l0.2-1.2
		c0.1-0.4,0.1-0.8,0.2-1.2l0.2-1.2c0.1-0.4,0.1-0.8,0.2-1.2c0.1-0.4,0.1-0.8,0.2-1.2l0.2-1.2l0.2-1.2l0.2-1.2
		c0.1-0.4,0.1-0.8,0.2-1.2l0.2-1.2c0.1-0.4,0.1-0.8,0.2-1.2l0.1-1.3c0-0.4,0.1-0.8,0.1-1.3c0-0.4,0.1-0.8,0.1-1.3
		c0-0.4,0-0.9,0.1-1.3s0-0.9,0-1.3c0-0.4,0-0.9,0-1.3s0-0.9,0-1.3s0-0.9,0-1.3c0-0.4-0.1-0.9-0.1-1.3l0,0l0,0l-1.6-0.1l0,0l0.1,1.3
		c0,0.4,0,0.8,0,1.3c0,0.4,0,0.8,0,1.2s0,0.8,0,1.2s0,0.8,0,1.2s-0.1,0.8-0.1,1.2c0,0.4-0.1,0.8-0.1,1.2c0,0.4-0.1,0.8-0.1,1.2
		l-0.1,1.2c0,0.4-0.1,0.8-0.1,1.2l-0.2,1.2c-0.1,0.4-0.1,0.8-0.2,1.2c-0.1,0.4-0.1,0.8-0.2,1.2l-0.2,1.2l-0.2,1.2l-0.2,1.2l-0.2,1.2
		c-0.1,0.4-0.1,0.8-0.2,1.2c-0.1,0.4-0.1,0.8-0.2,1.2l-0.2,1.2c-0.1,0.4-0.1,0.8-0.2,1.2l-0.1,1.2c0,0.4-0.1,0.8-0.1,1.3
		s-0.1,0.8-0.1,1.3c0,0.5,0,0.8-0.1,1.3c0,0.4,0,0.8,0,1.3s0,0.9,0,1.3c0,0.4,0,0.9,0,1.3l0.1,1.3l0.1,1.3l0.1,1.3l0.2,1.3l0,0
		L621.9,650z"/>
	<path class="st3" d="M622.8,610.1L622.8,610.1l1.6,0.1l0,0c0-0.2,0-0.4,0-0.6s0-0.4,0-0.6s0-0.4,0-0.6l-0.1-0.6v-0.6l-0.1-0.6
		c0-0.2,0-0.4-0.1-0.6l-0.1-0.6l-0.1-0.6c0-0.2,0-0.4-0.1-0.6c-0.1-0.2,0-0.4-0.1-0.6s0-0.4-0.1-0.6s0-0.4-0.1-0.6l-0.1-0.6
		l-0.1-0.6l-0.1-0.6c0-0.2,0-0.4-0.1-0.6l-0.1-0.6l-0.1-0.6l-0.1-0.6l-0.1-0.6l-0.1-0.6l-0.1-0.6l-0.1-0.6l-0.1-0.6
		c0-0.2,0-0.4-0.1-0.6l-0.1-0.6c0-0.2,0-0.4-0.1-0.6c-0.1-0.2,0-0.4-0.1-0.6s0-0.4-0.1-0.6l-0.1-0.6c0-0.2,0-0.4-0.1-0.6l0,0l0,0
		h-1.6l0,0c0,0.2,0,0.4,0.1,0.6s0,0.4,0.1,0.6s0.1,0.4,0.1,0.6l0.1,0.6l0.1,0.6c0,0.2,0.1,0.4,0.1,0.6l0.1,0.6l0.1,0.6l0.1,0.6
		l0.1,0.6l0.1,0.6l0.1,0.6l0.1,0.6l0.1,0.6c0,0.2,0.1,0.4,0.1,0.6l0.1,0.6l0.1,0.6c0,0.2,0.1,0.4,0.1,0.6l0.1,0.6
		c0,0.2,0,0.4,0.1,0.6c0,0.2,0,0.4,0.1,0.6c0.1,0.2,0,0.4,0.1,0.6c0.1,0.2,0,0.4,0.1,0.6s0,0.4,0.1,0.6l0.1,0.6l0.1,0.6l0.1,0.6
		l0.1,0.6c0,0.2,0,0.4,0,0.6c0,0.2,0,0.4,0,0.6v0.6L622.8,610.1L622.8,610.1L622.8,610.1z"/>
	<path class="st3" d="M620.6,590.4L620.6,590.4L620.6,590.4L620.6,590.4z"/>
	<polygon class="st3" points="620.6,590.4 620.6,590.4 620.6,590.4 620.6,590.4 	"/>
	<path class="st5" d="M539.3,558.5l1.3,0.2l-1.3-2V558.5z"/>
	<path class="st5" d="M542,557.2l-2.7-0.5l1.3,2c59.6,10.4,119.1,23.1,178.7,33.5v-3.5c-59.6-10.4-119.1-23.1-178.7-33.5L542,557.2z
		"/>
	<path class="st6" d="M576.7,631L576.7,631l-1.4-0.1c-8.9,1.6-6.2,18,2.8,18.1C586.1,647.8,584.9,633.2,576.7,631z"/>
	<path class="st6" d="M684.8,651.9l-1.4-0.4l0,0c-8.3-0.9-9.4,13.2-1.3,17.5C691.1,672.3,693.7,656.8,684.8,651.9z"/>
	<path class="st6" d="M576.7,664.2l-1.4-0.1c-8.9,1.6-6.3,18,2.8,18.1C586.1,680.9,584.9,666.4,576.7,664.2z"/>
	<path class="st6" d="M684.8,685.1l-1.4-0.4c-8.3-0.9-9.4,13.2-1.3,17.5C691.1,705.4,693.7,690,684.8,685.1z"/>
	<path d="M539.3,555v1.8l1.3-1.5L539.3,555z"/>
	<path d="M539.3,556.7l2.7,0.5l-1.3,1.5c59.6,10.4,119.1,23.1,178.7,33.5v-3.5c-59.6-10.4-119.1-23.1-178.7-33.5L539.3,556.7z"/>
	<path class="st7" d="M685.5,469.9c-4.5-5.7-5.5-5.7-7.6-13.4c-4-8.6-4.5-2-4-14c0.7-7.5-2.2-7.5-1.8-16.2v-5.8
		c-0.5-0.9-1-1.9-1.6-2.8c-0.3-1-0.6-2.1-0.9-3.1c-1.3-6.3,0.7-11.8,1.5-17.6c1.6-5.3,0.7-7.1,0.4-12.4c-0.3-4,1-2.2,1.2-8.1
		c0.8-1.9,1.1-4.7,2.1-5.9c0.8-1.7,1.8-3.7,1.7-5.9l0.4,0.1c0-1.5,0-3,0.1-4.5l0.2-0.3c0.1-0.7,0.3-1.4,0.4-2.1v-1.1
		c0-0.4,0-0.8-0.1-1.3v-0.4l-0.2-1.5c-1.2-4.4,0.7-1.9-1.9-7.6c-1.8-3.2-2.5-2.5-4.7-6.2l-0.6-0.4l-0.3-0.2l-0.9-0.3l-1.2-1.4
		l-0.6-0.4l-0.5-0.1l-1,0.1l-1-0.7l-0.6-0.5h-0.2l-0.5,0.4l-2-0.2l-1-0.2l-0.8,0.4c-1.9,0.9-4.2,1.5-6.3,2.5l-1,0.6l-0.9,0.6
		l-0.8,0.9l-1,0.5c-0.1,0.2-0.2,0.5-0.3,0.7c-0.1,0.2-0.3,0.7-0.4,1l-0.9,0.6l-1,0.4l-0.6,0.9c-0.1,0.2-0.2,0.5-0.3,0.7l0.1,0.4
		l-0.5,1.2c-0.4,0.4-0.8,0.8-1.2,1.2l0.1,0.5c-0.1,0.4-0.3,0.7-0.4,1.1l-0.5,0.7l-0.6,0.9c-0.2,0.4-0.3,0.7-0.5,1.1l-0.1,0.6
		l0.2,0.4c-2,5.7,1,2.9-2.5,7.6l-4.1-0.3l-1.4-0.6l-1.6-0.8l-1.4-0.5l-1.5-0.7l-1.4-0.8l-1.5-0.9l-1.6-0.9c-4.2-2.6-4.4-3.4-7.6-6.3
		l-1-1.5l-0.4-0.7l-0.3-0.4l-0.9-0.9c-0.3-0.3-0.6-0.6-1-0.8l-0.5,0.1l-0.3,0.4l-0.3-1v-0.8l-0.7-0.4l-0.1-1.2l-0.1-0.7l-0.2-0.2
		l-0.1-0.1l-0.3-0.8l-0.6-0.9c-0.1-0.2-0.3-0.3-0.4-0.5c-0.1-0.3-0.3-0.6-0.4-0.9l-0.3-0.3l-0.2-0.2l-0.2-1l-1-0.4
		c-0.1-0.1-0.2-0.2-0.3-0.3v-0.4l-0.1,0.2c-0.3-0.5-0.6-1-1-1.5c0-0.2-0.1-0.5-0.1-0.7l-0.3-0.1c-0.1,0.1-0.1,0.2-0.2,0.2l-0.6-0.6
		c-0.1-0.4-0.3-0.8-0.4-1.2c-0.1,0.1-0.2,0.3-0.3,0.4l-0.1-0.2l-0.7-0.9c-0.1-0.4-0.3-0.8-0.4-1.2l-0.3,0l-0.5-0.6
		c-0.1-0.3-0.1-0.7-0.2-1l-0.4,0.1l-0.5,0.1l-0.3-0.8l-0.2,0.1l-0.2,0.9l-0.5,0.7l-0.8-1.8l-0.4,0.4l-0.1-0.2l-0.4-0.6
		c-0.1-0.3-0.3-0.7-0.4-1l-0.4,0.8l-0.8-1.3l-0.6,0.9c-0.2-0.3-0.4-0.7-0.5-1l-0.4,0.5l-0.5-0.3c-0.4-0.4-0.8-0.8-1.3-1.2l-0.9-0.8
		c-2.2-2.5-5.2-3.9-6.9-7.1l-0.7,0.9l-0.8,1.3L585,319l-0.3,0.2l-0.6-0.3l-1.1-0.6l-1.1-0.3l-2.3-0.4l-0.7-0.1v0.6l0.5,0.7
		c0.3,0.6,0.5,1.2,0.8,1.8c0.1,0.6,0.2,1.1,0.3,1.7c0.1,0.6,0.2,1.2,0.3,1.8l0.2,1.6l0.1,1.1l-0.5,0.8c-0.1,0.3-0.3,0.5-0.4,0.8
		c-1.7,3.4-1.8,6.5-3.4,9.6c-1.1,1.6-2.7,1.9-4.4,3.1l-0.6,0.4l-0.3,0.8c0.1,0.5,0.1,0.9,0.2,1.4c0.1,0.5,0.2,1,0.3,1.5l0.6,1.5
		c0.2,0.5,0.3,0.9,0.4,1.4c0,0.3,0.1,0.6,0.1,0.9l0.3,0.7l0.7,0.9l0.9,0.8l0.8,0.9l0.6,1c0,0.3,0.1,0.6,0.1,0.9l0.9,0.7l1.5,0.3h3.5
		l0.7,0.3l0.7,0.6l0.8,0.9c0,0.4,0.1,0.8,0.1,1.2c0.1,0.6,0.3,1.2,0.4,1.8c0.3,0.6,0.6,1.2,1,1.9l1.1,1.8c3.5,4,0.6,0.5,2.8,7.2
		c1.1,3,1.9,4.2,2.5,7.5c0.3,1,0.6,2,1,2.9l4.4,6.6l0.5,0.5l1,1l0.9,1l1,0.9l1,1.1c0.1,0.2,0.3,0.3,0.4,0.5l0.4,1.6
		c0.1,0.6,0.3,1.2,0.4,1.8c0.1,0.6,0.2,1.1,0.3,1.7c0.9,6.3,1.2,12.7,0.9,19c-0.6,8.7-1.8,5.8-6.2,8.6c-1.5,1.6-0.9,2-2.7,4.1
		l-0.7,0.6l-1,0.1l-1.2,1.5l-1.2,1.1l-1.3,1c-3.8,3.3-9.4,4.7-11.1,10.9c-0.1,0.4-0.3,0.8-0.4,1.2c-0.1,0.4-0.4,0.7-0.5,1.1
		s-0.3,0.6-0.4,0.8l-0.5,0.8l-0.9,0.8l-1,0.4l-0.1,0.2l-0.7,0.7l-0.5,1.9l-0.6,0.5c-3.1,3.6-3.9,6.9-1.2,12.1
		c1.9,3.2,9.1,4.5,11.4,3.5c2.4-0.5,6.3-2.1,8.5-2.1c1.1-1.5,3.6-2.1,5.3-2.1c3.4-0.1,8.4,0.6,11.4-0.3c5.7-2.4,11.8-0.2,17.9,1.4
		l2.2,0.4l2.1,0.1l2,0.1l2-0.4c0.6,0.4,1.1,0.9,1.7,1.3c2.3,2.1,6.4,3.2,9.1,4.3c10.6,2.2,5.2,1,13.5,5.4l1,0.5l1.1,0.5l1,0.3
		l1.2,0.3l0.7,0.5c2.1,1.8,4.7,3,7.5,3.4c0.2,0.4,0.3,0.9,0.5,1.3l1.3,1.5l1.5,1.3l1.6,0.7l1.6,0.6l0.8,0.5l0.8,0.1l1.6,0.6l1.5,0.4
		l1.7,0.3l1.4-0.1l0.7-0.2l0.6-0.6C691.2,484.3,689.8,474.2,685.5,469.9z M651.1,433.5c-2.5-0.2-4-2.2-6.4-2.5
		c-3.8-1-7.7-1.5-11.6-1.7c-6.2,0.3-11.3-2.5-17.7-1.3l-0.2-1l0.2-0.6l1.2-1l0.6-1.7c0.9-2.7,1-5.7,1.7-8.6l0.5-1.4l0.6-1.6l1.1-1.1
		c0.1-0.3,0.2-0.6,0.3-0.9l0.4-1c0-0.4,0-0.7,0.1-1.1c0.1-0.8,0.3-1.5,0.4-2.3l0.5-1.9l1.2-1.3l0.8-0.3l2.1,0.4h1
		c1.7,0.4,3.2-0.3,5-0.5c1.7-0.4,3.4-1.4,5.2-1.7l1.2-0.4l1.4-0.2l0.6-0.1l1.4,0.9c0.3,0.5,0.5,1,0.8,1.6c0,0.1,0,0.1,0.1,0.2
		C643.3,414.9,661.2,415.5,651.1,433.5z M666.8,441.5l-0.6,0l-1.2-0.2l-1.1-0.7c-0.4-0.4-0.8-0.7-1.2-1.1l-1-0.7l-0.6-0.4l-2.3-1.1
		c0.5-4.8,0.1-10.5,2.7-14.1l1,0.6l0.8,1l0.1,0.4c0.5,2.2,1.2,5.5,1.9,7.6C665.9,436.4,667.3,437.3,666.8,441.5L666.8,441.5z"/>
	<path class="st0" d="M592.2,329.2c-0.2-0.5-0.4-1.1-0.6-1.6l-1-1.3l-0.4-0.4l-0.5-0.5l0,0l-0.9-1.5c-0.4-2-0.9-3.9-1.6-5.8
		c-0.8,2.5-1.4,3.8-1.3,6.9v0.5l0.7,1l1.4,1.1l0.4,1l0.5,0.5l0.1,0.3l-0.2,0.4l0.6,0.2l1.2,1.8l1.7,1.7l0.6-0.2l0.3-0.6
		c-0.1-0.6-0.3-1.1-0.4-1.7S592.4,329.8,592.2,329.2z"/>
	<path class="st0" d="M582.1,321.2l-0.5-0.6l-0.4-0.3v0.5c0.1,0.6,0.3,1.2,0.4,1.7l0.8,2l1.2-0.9c-0.2-0.4-0.4-0.9-0.6-1.3
		L582.1,321.2z"/>
	<path class="st0" d="M675.2,349.2c-0.9-2.4-0.9-3.2-2.3-5l-0.6,0.1l-0.2-0.5l-1.2-1.5l-0.5-0.6l-0.6-0.7l-0.2-0.5h-1.2l-1.2-1.7
		l-0.7-0.6l-0.4-0.2c0,0.2,0,0.3-0.1,0.5h-0.8c-0.5-0.4-0.9-0.7-1.4-1.1l-1,0.3l-1.6-0.4l-0.6,0.1l-0.3,0.4
		c-1.7,0.6-4.2,0.6-5.7,1.3l-1,0.2l-1.1,0.8l-1,0.7l-0.9,0.9l-0.8,1v0.7c-1.1,1.8-1.9,0.5-2.8,2.4l0.7,0.3l-0.3,0.2l-1.1,1l-0.8,1.7
		l1-0.6c0,0.1,0,0.3,0.1,0.4c-0.1,0.3-0.2,0.7-0.3,1c-0.1,0.3-0.3,0.5-0.5,0.8l-0.8,0.9l-0.7,0.7l-0.2,0.5l0.9-0.1
		c0,0.1,0,0.2,0.1,0.3l-0.5,1.7c-0.1,0.6-0.3,1.2-0.4,1.8c-0.1,0.2-0.1,0.4-0.2,0.5c-0.1,0.4-0.3,0.7-0.4,1.1l-0.8,1
		c-0.2,0.4-0.3,0.8-0.5,1.2l-0.3,1.3c0,0.2,0,0.4-0.1,0.6s0.1,0.4,0.1,0.5c0,0.6-0.1,1.1-0.1,1.6l-0.6,2l0.5,0.6l-0.1,0.2
		c-0.1,0.7-0.3,1.3-0.4,2c-0.1,0.7-0.1,1.5-0.1,2.2l0.5-0.2l0.3-0.7l0.5,0.6c0.1,0.3,0.3,0.6,0.4,0.8l0.4-0.2l0.7-0.7
		c0.2-0.3,0.3-0.6,0.5-0.8c0.2-0.2,0.4-0.6,0.6-1s0.3-0.7,0.4-1.1l0.3-0.4l0.7-0.3l0.6-0.5c2.9-2.9,1.4-3.4,4-5.7l0.2,0.2l-0.1,0.4
		l-0.6,1.4c-0.2,0.6-0.4,1.1-0.6,1.7c1.7-1,1.8-3.1,3.5-4.2v0.4c-0.2,0.5-0.3,0.9-0.5,1.4l-0.5,1.7l1-0.7l1-1.2l0.4-0.6l0.3-0.4
		l0.3,0.1l-0.1,1.1l-0.4,1.4l0.3,0l0.7-0.5l1-0.6l0.8-0.9l1.2-1.4c0.1-0.1,0.3-0.3,0.4-0.4l0.3-0.4l-1.4,3.5l0.6-0.1l0.8-0.5
		l0.9-0.7l0.9-0.7l0.8-0.7l0.4-0.5l0.6,0.1c0,0.1-0.1,0.2-0.1,0.2l-0.7,1.3l-1.1,1.5l0.4,0.1l1.4-0.7l1.6-0.5l-0.1,0.4l-0.5,0.6
		l-0.5,1.2l0.2,0.1l1.1-0.2l1.2,0.1c0,0.1,0,0.2,0.1,0.3c0.3,0.4,0.5,0.9,0.8,1.3c0.3,0.6,0.5,1.3,0.8,1.9l0.1,2.2
		c0.1,0.8,0.2,1.7,0.3,2.5v2.6c0,0.4-0.1,0.8-0.1,1.1l-0.2,1.1l-0.3,0.9l-0.7,0.9l0.1,0.8c0,0.3,0,0.7-0.1,1s-0.2,0.7-0.3,1l-0.1,1
		c-0.1,0.4-0.2,0.9-0.3,1.4v0.4l-0.3,0.4l-0.3,1.9v0.8l-0.3,0.9l-0.3,0.3l0.6,0.1c0.2,0.2,0.3,0.4,0.5,0.7c-0.1,0.6-0.3,1.1-0.5,1.7
		c0.1,0.5,0.3,0.9,0.4,1.4c-1.1,0.7-2.8,3-3.8,3.8l-0.3-0.3v-0.4l-0.2-1.5c0-0.6,0-1.2,0.1-1.7l-0.7-0.3l-0.8-0.1
		c-0.1-0.2-0.2-0.3-0.3-0.5c-0.1-0.2,0-0.3-0.1-0.4l-0.1,0.2l-0.7-0.1l-0.8-0.6c-0.1-0.5-0.2-1-0.3-1.5v-2.3l0.2-0.8l0.2-0.5
		l-0.2-0.4l0.5-1.2l1.2-1c0-0.3,0-0.7,0.1-1s0-0.5,0.1-0.8l-0.3-0.4l-1.2-0.5l-1.4,0.3l-0.1-0.6c0.1-0.3,0.2-0.6,0.3-1l0.5-0.8
		c0.2-0.4,0.4-0.7,0.6-1.1l0.2-1c0-0.2,0-0.4-0.1-0.6l-0.3-0.4l-0.9,0.2l-1.1,0.4l-0.2-0.4l-0.6,0.1l-1.1,0.5l-0.4-0.7v-1.1
		l-0.8,1.1l-0.5-0.1c-0.1-0.2-0.2-0.4-0.3-0.6l-0.1,0.2l-0.5,0.6l-0.7,0.5c-0.1-0.1-0.1-0.2-0.2-0.3c-0.1-0.1,0-0.3-0.1-0.4
		l-1.7,0.9l-0.3-0.2l-0.6,1.3l-0.8,1.8c-0.1,0.3-0.1,0.6-0.2,0.9c-0.1,0.3,0,0.4-0.1,0.7l0.5-0.2l0.7,0.1l0.5,0.8l-0.5,0.3l-0.7,1.5
		c-0.2,0.4-0.3,0.8-0.4,1.2l-0.5,1.2c-0.3,0.4-0.5,0.7-0.8,1.1l-0.6,0.3l-0.3-0.5v-0.6l-1,0.4l-0.2-0.7c0-0.3,0.1-0.6,0.1-0.9
		l-0.7,0.9l-1.2-0.2l-0.6-0.2l-0.2,0l-0.2-1.4v-1.5l0.2-0.8v-0.4l-0.2,0l-0.5,0.8l-0.8,0.4l-0.2-0.3v-1.3l0.3-1.4l-0.3,0.2l-1,0.1
		l-1.4-0.2l-1.3,2h-0.3l-0.6,0.1l-0.7,0.4l-0.1,0.1c-0.1,0.3-0.2,0.5-0.3,0.8l-0.8,0.1c0-0.1-0.1-0.2-0.1-0.4v-1.5l0.5-2.1h-0.2
		l-0.8,0.4l-0.8,0.8l-0.3-0.8l-0.2-0.7l-0.3,0.9l-0.3,0.9l-0.1,0.1l-0.6-0.1l-0.5-0.4l-0.6,1.1l-1.5,0.9c0,0.3,0,0.7-0.1,1l0.1,0.8
		l-0.1,0.2l-0.6,0l-0.8,0.2l-0.1,0.2c-0.1,0.4-0.2,0.8-0.3,1.2l-0.1,1.4l0.1,0.3l-0.3,1.1c-0.2,0.4-0.5,0.8-0.7,1.2l0.1,0.1
		l-0.1,0.6l-0.5,0.6c-0.1,0.3-0.3,0.6-0.4,0.8l0.5,1.2l-0.2,0.5l-0.4,0.2l0.5,0.4v0.3c-0.1,0.2-0.2,0.4-0.3,0.6l-0.6,0.8l0.1,0.4
		l-0.8,1.6l-0.8,2.4l-0.8,1.1c-0.1,0.7-0.1,1.3-0.2,2l-0.2,0.9l-0.3,0.3v0.3c0,0.3,0.1,0.6,0.1,0.9s-0.2,0.6-0.3,0.9l-1,0.3
		l-1.4,0.4l-0.7-0.1l-0.3-0.1v-0.4l0.3-1c0.2-0.4,0.4-0.8,0.6-1.2l-0.7-0.8c0.1-0.5,0.3-1,0.4-1.5v-3.5l0.1-0.6l-0.3,0.2l-0.4-0.2
		v-0.3l0.2-1.3l0.7-1.4l-0.3-0.2v-1c0.1-0.4,0.3-0.8,0.5-1.2l-0.5-0.1l-0.5-0.6c0.1-0.4,0.3-0.8,0.5-1.2l0.8-1.3l0.5-0.3l0.3-0.2
		l-0.3-0.2l-0.3-0.3V388l0.6-1.2l1.2-0.9l0.1-0.4l-0.3-0.2l0.3-0.9l1.5-1l0.4-0.5c0-0.2,0-0.4-0.1-0.6c-0.1-0.2-0.3-0.6-0.4-0.8
		l0.8-0.8l0.3-1.4l0.3-0.6l0.3-0.3l-0.6-0.5c-0.2-0.4-0.3-0.8-0.5-1.3l-0.3-0.6c-0.1-0.1-0.1-0.2-0.2-0.3l-0.2-1.6
		c0.1-0.5,0.3-1,0.4-1.5c-0.1-0.3-0.1-0.6-0.2-0.9l-0.2-0.5v-0.2l0.2-1l0.7-1l-0.3-0.6l-0.8-0.5l-1-0.8l-0.8-0.7l-0.8-0.5l-0.5-0.3
		c-1.7,1-3.4-0.9-4.6,1.4v0.6l-0.9,1.2c-0.3,0.6-0.6,1.2-1,1.7l-0.5,0.3l-0.5,0.9l-0.5,1.2l-0.5,1l-1,0.3l-0.6,0.1l-0.4-0.4
		l-0.1-0.4l0.6-0.1c0.3-0.4,0.6-0.9,0.9-1.3c0-0.1-0.1-0.2-0.1-0.4c0.2-0.1,0.4-0.2,0.6-0.3l-0.3-0.5l0.3-0.7l0.6-0.2l-0.5-0.4
		l-0.2-0.5v-0.2l0.3-0.4l0.6-0.5l-0.6-0.1l-0.8-0.5l-0.2-0.4l-0.2-0.3l0.3-0.1l1.4-0.4l1.9-0.3l-0.6-0.2l-0.6-0.6l-0.4-0.4
		c0-0.1,0-0.2-0.1-0.3l0.1-0.1l0.6-0.2l1,0.2l0.3-0.1l1.4-0.3l1-1.4l-4.6-0.5l-0.3-0.3c1-1.2,3.2-0.3,4.4-0.7l-1-0.4l-1.2-0.5
		l-0.6-0.2l-0.3-0.2V359l1.1,0h1.7l0.6-0.4l0.4-0.2l-1.6-0.5l-0.1-0.1l-0.7-0.3l-0.2-1l0.2-0.1l0.9,0.2l1,0l-0.8-0.4l-1.2-0.5
		l-0.5-0.5l-0.2,0c0-0.1,0.1-0.3,0.1-0.4l1-0.3l1.2-0.3l-0.8-0.4l-1-0.4l-0.3-0.4v-0.3h0.1l1.1,0h1.2l-0.8-0.5l-1.2-0.7l-0.5-0.4
		l-0.3-0.1v-0.2h0.8l1.6,0.1l0.5-0.2c0.1-0.1,0.2-0.2,0.3-0.4h-0.2l-0.5-0.5v-0.8l-0.6-1.4l-0.5-1.7c-0.2-0.5-0.4-0.9-0.6-1.4
		c-0.2-0.5-0.5-0.9-0.7-1.3l-0.4-0.7l-0.6-0.5h-0.3l-0.6-1.1l-1-0.8l-0.3-0.5l-0.3-0.6h-0.5l-0.5-0.2l-0.3-1.1l-1-0.2l-0.3-0.5
		l-0.2-0.3h-0.7l-0.5-0.8l-0.3-0.6l-0.2-0.1c0,0.1,0,0.2-0.1,0.2l-0.6-0.3l-0.7-0.7l-0.6-0.9l-1-0.2c-0.1-0.2-0.3-0.3-0.4-0.5
		c-0.1-0.2,0-0.4-0.1-0.6h-1.7l-0.6-0.5l-0.8,0.6c-1.1-1.8,0.5-3.9-2.2-6.1l-1.2-1.2l-1-0.8L592,324c0-0.1,0-0.1-0.1-0.2l-0.4-0.6
		l-0.6-0.3l-0.1,0.2l0,0l-1.2-1.2l-0.3-0.1c0.9,2.3,2,3.3,3.2,5.6l0.6,1.6l0.5,1.5c0.2,0.6,0.4,1.2,0.6,1.8l0.4,0.7l0.7,0.6
		l-0.3,0.1c0.1,0.4,0.2,0.8,0.3,1.1v1.7l0.5,1l-0.3,0.5l-0.5,0.2l0.3,0.4c-0.1,0.2-0.2,0.4-0.3,0.6l-0.6,1l-0.5-0.1l-1,0.4l-1.3,0.9
		l0.7,0.3h0.7c0.1,0.2,0.3,0.4,0.5,0.7l0.4,0.7l0.1,0.4c-0.1,0.1-0.1,0.3-0.2,0.4l-0.8-0.3l-1.3-0.5l-0.6-0.2l-0.3,0l-0.5-0.6
		c-0.1-0.3-0.2-0.6-0.3-0.9c-0.2-0.6-0.4-1.2-0.6-1.9l-0.9-1.6l-1-1.6l-0.5-0.5l-0.6-0.7l-0.6-0.5c-0.1-0.4-0.3-0.9-0.5-1.3
		l-1.2-1.3l-0.4-0.7c0-0.1,0-0.3-0.1-0.4l-0.6,0.1l-1,0.3l-1,0.6l-0.8,1c-0.3,0.4-0.6,0.7-1,1.1l-0.3,0.4v1.2
		c-0.1,0.5-0.2,1.1-0.3,1.6l-0.7,1.3l-1,1.2l-1.2,0.8l-0.5,0.3l-0.1,0.3l-1,0.2l-0.6,1l1.2,1.1v0.3c-0.1,0.4-0.1,0.9-0.2,1.3l-0.8,1
		v1.1c0.1,0.3,0.2,0.6,0.3,1l0.6,1.2c0.5,0.5,1.1,1,1.6,1.5c3.1,0.6,6-1.9,9.1,0.3l-0.2,0.2l-1,0.1h-1.5l-1.7,0.2l-1.5,0l-0.7,0.1
		l-0.8,0.1l-0.8,0.5l0.3,1.1l0.3,0.2l1.1,0.3l1.5-0.1l0.5-0.1l1.8,0.3l2,0.9l0.4,0.2l0.5-0.4l1-0.2l0.2-0.8l0.7-0.2l0.3-0.4v-0.3
		l0.6,0.3v-0.2c0-0.4,0.1-0.8,0.1-1.1l0.5-1.1c0-0.1,0-0.3-0.1-0.4c-0.1-0.1,0.2-0.2,0.3-0.3l0.9,0.2l0.3,0.1l0.8,1l0.6,1.6
		c-0.1-0.1-0.3-0.3-0.5-0.4l-0.4-0.3l0.1,0.3l0.2,1c-0.1,0.4-0.2,0.8-0.3,1.2l-0.2,0l-0.5,0.6l-0.8,0.6l0.2,0.2
		c-0.1,0.4-0.2,0.7-0.3,1.1s-0.1,0.8-0.1,1.1c-0.1,0.1-0.1,0.2-0.2,0.4l-0.2,1.7l0.5,2.3l0.4-0.2h0.2l0.6-0.3l0.5-1h0.2l0.8-0.5
		l0.7-1v-0.4l0.7-0.6l0.8-1l0.2,0l0.5-0.6c0.2-0.3,0.3-0.6,0.5-0.8l0.3-0.3c0.2-0.5,0.4-1,0.6-1.5c0-0.3,0-0.7,0.1-1l0.5-0.8
		l0.3-0.1l0.1-0.5l0.5-1l0.2-1c0.1-0.4,0.1-0.7,0.2-1l0.3-1c0-0.2,0-0.4,0.1-0.6c0.8,3.1-2.3,10-3.5,12.6l-0.3,0.1
		c-0.1,0.4-0.2,0.7-0.3,1.1l-0.6,1.3l-0.2,1.1c-0.1,0.2-0.2,0.5-0.3,0.7c-1.2,3.1-1.2,6.4,0,9.4l0.1-0.2l0.4-0.9
		c0.2-0.4,0.5-0.8,0.7-1.2l0.4,0.5l0.5,1l0.4-0.5l0.5-0.2l0.3-1.1c0.1-0.5,0.2-1.1,0.3-1.6l0.1-0.8l-0.1-0.3l0.4,0.2l1-0.7l1.5-0.1
		l0.3,0.5l-0.3,1.4c-0.1,0.7-0.3,1.3-0.4,2l-0.2,0.1c-0.1,0.3-0.1,0.6-0.2,1c-0.2,0.6-0.4,1.1-0.6,1.6c0,0.3,0.1,0.6,0.1,0.9
		c0,0.5-0.1,1-0.1,1.6l-0.2,1.8v1.7c0.1,0.5,0.3,0.9,0.4,1.4c0.2,0.3,0.4,0.5,0.6,0.8c0-0.1,0.1-0.3,0.1-0.4c0-0.6-0.1-1.2-0.1-1.9
		c0-0.6,0.1-1.4,0.1-2.2l0.3,0.1l0.4-1l0.3-1.5c0.2,0.2,0.4,0.5,0.6,0.7l0.1-0.4l0.3-1.5l0.5-1.7l0.5,0.5c0,0.3,0.1,0.7,0.1,1
		l0.2-0.3l0.4-0.8c0.1-0.3,0.3-0.7,0.4-1c0.1,0.2,0.3,0.4,0.4,0.6c0.1,0.2,0.2,0.4,0.3,0.6l0.1-0.2l0.2-1.6c0.2-0.5,0.4-1,0.6-1.5
		l0.2,1.5l0.5,2.4c0,0.4,0,0.8,0.1,1.2v0.8l-0.5,0.5l-0.3,0.3v0.6l-0.4-0.1l-0.5,1.1c0,0.6,0.1,1.1,0.1,1.7l-0.4,0.3l-0.5-0.1
		c0,0.4,0,0.8,0.1,1.2v0.2c0,0.3,0,0.6,0.1,0.8l-0.5,0.7c0.9,3.1-0.5,4.1,1,6.9c0-0.3,0.1-0.5,0.1-0.8l0.4-0.2
		c0,0.1,0.1,0.2,0.1,0.3c0.2,0.5,0.3,0.9,0.5,1.4c0.1,0.5,0.5,1.1,0.7,1.6l0.5,0.1l0.6,1l1.1,1.1l-1-9.7c0.1-0.2,0.2-0.3,0.3-0.4
		h0.4c3.5,19.5,5,13.4,1.8,34.1c-1.5,5.3-0.1,10.6-4.4,12.8l-1,0.1l-0.4-0.1l-0.8,0.1l-0.5,0.4h-0.3l-0.2,0.2l-0.6,1.2
		c-0.1,0.7-0.2,1.4-0.3,2l0.8,0.7l0.3-0.1c0.1-0.5,0.3-1,0.4-1.4l0.6-1.5l0.1,0.3l0.2,1.3c0.1,0.6,0.3,1.1,0.4,1.7l0.5,0.3l0.8-0.4
		l0.5-1.8c0.1,0.3,0.2,0.6,0.3,1c0.1,0.3,0.4,0.7,0.6,1.1l0.6,0.6c1-1.5,2.2-2.9,3.6-4.2l0.8-0.6l0.5-0.8l0.6-0.5l0.7-0.9
		c0.3-1.5,0.5-3,0.8-4.4c0.9-2.7,1.9-1,2.4-5.2c0.2-1.9,0.6-3.8,0.8-5.7c0.1-0.3,0.2-0.7,0.3-1l0.3-0.9c0.1-0.4,0.3-0.8,0.5-1.2
		l0.5-0.4l0.9-1.1l0.6-1.4c0.1-0.6,0.1-1.1,0.2-1.7c0.1-0.6,0.2-1.1,0.3-1.7v-1c0.1-0.3,0.2-0.6,0.3-1c0.1-0.3,0.3-0.7,0.4-1
		c2.3-4,2.9-2.8,4.8-7.9c-0.1,0.6-0.2,1.2-0.3,1.9l-1,2.2v1.3c0.1,0.2,0.2,0.5,0.3,0.7l0.5,0.4l1.3,0.2h1.6c2.6,0.7,6.3-1,8.6-2.1
		c3.6-1.8,6.1-0.4,10,1.5l1.7,1.2l0.8,0.8l1.2,2.1c0.4,0.7,0.8,1.5,1.2,2.2l1.3,2.3l1.2,2.1l1.3,2.3c10,14.7,6.8,5.6,11.3,23.7
		c1.6,4,1.5,6-1.7,6.7l-0.8,0.3l-0.8,0.6l-0.8,0.6l-0.5,0.8c-0.1,0.3-0.2,0.7-0.3,1c0.1,0.3,0.3,0.6,0.4,0.9l0.4-0.1v-0.4l0.1-0.5
		l0.9-1.2l1.7-0.4l-0.3,0.2c-0.3,0.3-0.5,0.7-0.8,1l-0.4,1.6l0.7,0.9l0.9,0.2c0-0.2,0-0.3,0.1-0.5c0.1-0.5,0.3-0.9,0.4-1.4l1.2-1.2
		v0.3c-0.1,0.5-0.2,1-0.3,1.4l0.2,1.6c5.3-1.1,3.3-0.1,4.2-5.7c1.8-4.2,0.4-6.8-0.8-11.2v0.1l-0.5,0.6c-1.8-4.2,0.1-8.9-0.1-13.2
		l-0.2-1l-1-1.5c-0.3-0.5-0.5-1-0.8-1.5l-0.8-1.6l-0.5-1.6l-0.4-0.7c-0.1-0.3-0.2-0.6-0.3-0.9l-0.3,0.4l-0.5,0.1l0.2-1.5
		c0.1-0.2,0.2-0.5,0.3-0.7l0.6-0.6l0.6-0.9l0.1-0.3c0.1-0.8,0.2-1.7,0.3-2.5l0.5-2.3l0.5-2.4c1.1-5.7,1.9-11.8,0.5-18h-0.2l-0.8,0.1
		l-0.9,0.1c0.9-1.4,2.2-2.9,3.1-4.3c1.1-2.3,0.8-3.5,1.2-5.6l0.6,0.9l0.3-1l0.1-1l0.5-0.6c0.1-0.6,0.3-1.1,0.5-1.7
		c0-0.3,0.1-0.6,0.1-0.9v-0.4l0.5,0.1v-0.3c0.1-0.2,0.1-0.3,0.2-0.5c0-0.5,0.1-1,0.1-1.5l0.6-1.4v-1.2c0-0.4,0-0.7-0.1-1.1l-0.2-0.8
		l-0.1-0.3l0.8,0.1l0.1-0.4c-0.1-0.6-0.2-1.2-0.3-1.8v-2l0.5,0.8c0.1,0.2,0.2,0.5,0.3,0.7c0.5-2.1-0.7-7-1.5-9.4L675.2,349.2z"/>
	<path class="st0" d="M641.1,366.9l0.1-0.2l0,0C641.1,366.7,641.1,366.8,641.1,366.9z"/>
	<path class="st7" d="M581.4,335.5l-0.5-0.5l-0.4-0.3v0.2l0.3,0.2c0.2,0.5,0.5,0.9,0.7,1.4v1.5h0.2l0.9-0.5l0.8-0.4l-0.8-0.5
		L581.4,335.5z"/>
	<path class="st7" d="M587,342.6l-1-0.6l-0.8-0.7l-1.3-0.5l-0.7-0.4l-0.3-0.3c0,0.2-0.1,0.5-0.1,0.7l0.9,0.2l0.7,0.4l0.7,0.7l0.3,0
		l0.6,0.5l0.9,0.9l0.5,0.1l0.5-0.1l-0.2-0.1L587,342.6z"/>
	<path d="M592.9,344.5l-0.5-0.2l-0.3-0.3c0-0.1,0-0.1-0.1-0.2l-0.6-0.5l-0.8,0.3l0.8,1.2l0.2,0l1.3,0.4l1.3,0.1
		c-0.2-0.2-0.4-0.4-0.6-0.6L592.9,344.5z"/>
	<path d="M592,345.4c-0.2-0.1-0.3-0.3-0.5-0.4l-0.4-0.2l-0.3,0.2c0,0.4,0,0.7,0.1,1.1l0.3,0.1l1.2,0.5l1.5,0.7l-0.6-0.7L592,345.4z"
		/>
	<path class="st7" d="M590.4,346.6v0.8l0.3,0.6l-0.3,0.3c0,0.2-0.1,0.5-0.1,0.7l-0.8-0.1v0.4l0.2,0.1l1.2,0.9l1.3,1l-0.8-1.4
		l0.6,0.1l0.8,0.6v-0.1l-0.3-0.6l-0.3-0.7l0.1-0.2l0.8,0.2l0.8,0.9l0,0c0-0.2-0.1-0.4-0.1-0.5C592.5,347.6,592.1,347.5,590.4,346.6z
		"/>
	<path d="M604.6,359.6l0.3-0.4l0.4-0.9c-0.3,0.4-0.6,0.9-0.9,1.3L604.6,359.6z"/>
	<path class="st7" d="M604.7,361.4l-1,1.2l0.4,0.1l0.7-0.6l0.6-1c0-0.2,0-0.4,0.1-0.6v-0.4l-0.1,0.3
		C605.2,360.7,604.9,361.1,604.7,361.4z"/>
	<path class="st7" d="M602.8,364.8l-0.3,0.4l0.1,0.2l-1,1.1l-1.2,0.6l0.3,0.8l0.5-0.2c1-1,1.7-2.4,2.6-3.5l-0.9,0.2
		C602.8,364.5,602.8,364.6,602.8,364.8z"/>
	<path d="M638.5,384.4l0.6,0.5l0.5-0.5v-0.3l-0.6-0.7L638.5,384.4z"/>
	<path class="st7" d="M647.3,385.6l-0.4-0.2l-0.2,0.4l-0.8,2c-0.2,0.9-0.4,1.7-0.6,2.6l0.4,0.5h0.4c0.4-1.6,1-3.2,1.3-4.8l0,0
		L647.3,385.6z"/>
	<path d="M647.8,389l-0.4-0.3c-0.2,0.8-0.5,1.6-0.7,2.4l0.3,1.2l0.9,0.6v-0.3c-0.1-0.3-0.2-0.7-0.3-1c0.1-0.6,0.2-1.1,0.3-1.7
		L647.8,389z"/>
	<path class="st7" d="M664.9,394.5c-0.3,0.3-0.5,0.6-0.8,0.9l-0.8,1.2l-0.9,0.9c-0.1,0.2-0.2,0.3-0.3,0.5l0.1,1.2v0.9l0.4,0.1
		l0.6,1.5c0,0.7,0,1.5,0.1,2.2l0.5,0.4l0.3,1.6c0,0.9,0,1.8-0.1,2.7c1.5-2.8,2.4-1,1.7-5.4c0-0.4,0.1-0.7,0.1-1.1l0.1-0.3
		c-0.1-0.3-0.2-0.6-0.3-0.9c0.1-0.4,0.1-0.8,0.2-1.1c-0.1-0.2-0.1-0.5-0.2-0.7l-0.3-0.4l0.1-0.7l0.3-0.4c0-0.4-0.1-0.8-0.1-1.2
		c0.2-0.4,0.4-0.8,0.6-1.2c0-0.2,0.1-0.4,0.1-0.6v-0.3l0,0l-0.6-0.1L664.9,394.5z"/>
	<path class="st0" d="M660.2,421.6l-0.6,1l-0.6,1.2c-0.1,0.4-0.2,0.8-0.3,1.2l-0.3,1.5l-0.3,1.4c-0.1,0.5-0.2,0.9-0.3,1.4
		c-0.1,0.5,0,1-0.1,1.5c-0.1,0.5-0.2,0.9-0.3,1.4c-0.1,0.5-0.1,1.1-0.1,1.6c0,0.5,0,0.9-0.1,1.4l-0.6,0.7l-0.4-0.7l0.1-1.6v-1.4
		c0-0.5,0.1-1,0.1-1.6c0-0.5,0-1,0.1-1.6s0-0.9,0.1-1.4c0-0.5,0.1-0.9,0.1-1.4l0.1-1.6c0.1-0.5,0.2-0.9,0.3-1.4l0.3-1.4l0.3-1.4
		c-0.3-0.7-0.6-1.4-0.9-2.1v-0.2l-0.3,0.4l-0.3,0.2l-0.4-0.9c0-0.5,0-0.9-0.1-1.4l-0.2-0.7v-0.3h-0.1l-0.6-0.2l-0.6-1l-0.8-0.2
		l-0.2-1.9c-0.1-0.2-0.2-0.5-0.3-0.7l-0.3-0.3v0.8c-0.1,0.3-0.1,0.6-0.2,0.9c-0.1-0.4-0.3-0.7-0.4-1.1l-0.5-1.6
		c0-0.2-0.1-0.5-0.1-0.7c-0.1-0.1-0.1-0.2-0.2-0.3l-0.1,0.6l-0.3,0.2c-0.1-0.4-0.3-0.8-0.4-1.2l-0.5-1.8l-0.4-0.8
		c-0.1-0.2-0.1-0.4-0.2-0.5l-0.1,0.2v2.9h-0.1l-0.3-0.6l-0.1-1c-0.1-0.3-0.2-0.5-0.3-0.8c-0.1-0.3-0.2-0.7-0.3-1l-0.3-0.4l-0.2-0.2
		v0.2c0,0.4,0,0.7,0.1,1.1c0.1,0.4,0,0.9-0.1,1.3c-0.2-0.3-0.4-0.6-0.6-0.9l-0.3-1.4l-0.2-0.7l-0.1-0.4v1l-0.1,0.6l-0.4,0.1
		l-0.4-1.2l-0.5-1.8c0-0.3,0-0.7-0.1-1c0-0.1-0.1-0.2-0.1-0.4l0,0c-0.1-0.6-0.3-1.2-0.4-1.8l-0.3-0.1c0.3,8.2,1.6,8.3,6.1,13.4
		c3,2.9,5.8,7.9,4.7,12.5c-0.1,0.6-0.2,1.1-0.3,1.7c-0.1,0.6-0.3,0.9-0.5,1.4c-0.2,0.5-0.2,1-0.3,1.5c-0.1,0.5-0.4,0.9-0.6,1.4
		c-0.2,0.5-0.3,0.9-0.5,1.4l-0.8,1.3c-0.1,0.5-0.3,1-0.5,1.5l-0.4,0.3c-2.3,0.1-4.7-1.3-4.4,3.6l0.2,0c0.2-0.3,0.4-0.6,0.6-0.9
		c0.2-0.4,0.4-0.9,0.6-1.3c0,0.4,0.1,0.7,0.1,1.1l0.2,1.5l0.3,0.5l1-0.2c0.3-0.6,0.6-1.2,0.9-1.7l0.2,1.1c0,0.4,0,0.8,0.1,1.3
		l1.5,0.9l0.6-0.3l0.6-0.4l0.5-0.6c0.2-0.3,0.4-0.6,0.6-1c2.3-3.7,2.5-0.6,2.9-4c0.9-4.4,0.5-10.8,3.2-13.6l-0.5-0.3L660.2,421.6z"
		/>
	<path class="st0" d="M606.5,395.6l-0.5-0.9c-0.2-0.3-0.3-0.7-0.5-1c-0.1-0.2-0.1-0.3-0.2-0.5l-0.4-0.2c0.5,9.7,2.3,21.1,0.6,30.2
		c-0.7,2-2.6,3.4-5,3.6l-0.6,0l-0.5,0.1c-0.3,0.5-0.5,1-0.8,1.5l-0.2,2.3l0.2,0l0.6-0.4c0.1-0.3,0.3-0.6,0.5-0.9l0.6,0.5v0.6
		l0.8-0.7l1-0.7l0.5,0.3h1h0.8l0.7-0.4c2.1-1.4,1.6-4.6,2.2-7.2C609.2,410.9,609.5,406.9,606.5,395.6L606.5,395.6z"/>
	<path class="st7" d="M618.1,408l-0.8,0.6l-0.7,1.3l0.3,0l0.9,0.3l1.1-0.8v-0.1c0-0.3,0.1-0.6,0.1-1l-0.6-0.6L618.1,408z"/>
	<path class="st7" d="M655.5,434.2v-0.8c0-0.3-0.1-0.6-0.1-0.9c0,0.2,0,0.4-0.1,0.6c-0.1,0.4-0.2,0.7-0.3,1l-0.5,1
		c-0.2,0.3-0.3,0.6-0.4,0.9l-0.6,1l-0.3,0.4l-0.5,0.4v0.8c1.3,0.3,2.5-2.9,2.8-4.2l0,0V434.2z"/>
	<path class="st8" d="M677.5,460.9c-0.1-0.4-0.3-0.7-0.4-1.1l-0.6-1.2c-1.1-3.3-1.2-3.5-3-6.2c-2-3.6-3.4-1.3-5.9-1.5l-1.1-0.7
		l-2.6-0.5l-0.4-0.2c-0.1-0.2-0.1-0.4-0.2-0.5l-1.5-0.7c0-0.1-0.1-0.2-0.1-0.4l-0.1-0.3v-0.9c0.1-0.4,0.2-0.8,0.3-1.2l0.2-0.5l1-1.2
		l1.5-0.5c-2.1-1.7-4.5-3.1-7-4.2c-3.2,0-1.1,4.4-5.9,3.5c-2.7-1.8-3.4-0.5-5.3-2.4l-0.2-0.7v-1.3l0.2-1.2l0.5-1.1l0.5-1l0.5-0.2
		l0,0c-0.2-0.2-0.5-0.3-0.7-0.5c-5.8-2.5-7.2-2.5-13.1-2.5c-4.8,0.6-9.4-0.8-14.3-1.3c-2.1-0.4-6,0.3-7.3,2.1c-3,2.6-2.5,5.3-5,6
		l-0.6-0.4l-1-0.6l-1.2,0.5l-1.8-1.1l-0.8-0.3l-0.6-0.1l-0.3-0.1c-0.2-0.5-0.4-1-0.6-1.5v-2c-2.6,0.3-3-2.1-5.5,0.1
		c-2.1,1-3.6,2.7-5.7,4.1c-3.4,2.6-6.6,3.2-7.7,9.5c1.6-1.3,3.8-1.7,5.8-1.1l0.7,0.3l0.4-0.2l1-0.3l1-0.4l1-0.2
		c3.5,0.6,1.1-0.2,4.6-1c1.7-0.5,3.5-0.6,5.3-0.3c3,0.7,2.5,0.6,5.5-0.4c4.1-1.1,2.4-0.1,6,0.5c4.9,0.3,7.3-2,12.8,0.6
		c2.3,0.2,4.6,0.1,6.9,0.4c3.9,0.5,2.9,1.7,7.1,2.1c2,0.7,4.5,1.1,6.5,2.3c3.4,2.2,2.8,2.6,6.2,3l1.9,0.6l1.9,0.8l1.7,1.1l0.8,0.7
		l1.2,0.1c2,0.4,3.8,1,5.6,1.8l1.1,0.7l1,0.9l1,0.9l1,0.9l0.8,0.1l1.7,0.4l1.5,1l1.6,0.9l1.8,0.9l0.8,0.3c0.1-0.2,0.2-0.3,0.3-0.4
		c0.1-0.1,0.1-0.4,0.1-0.6l-0.5-1.1C677.8,461.5,677.6,461.2,677.5,460.9z"/>
	<path class="st4" d="M639.7,449.4c2.1,3.3,4.7,7.1,8,6.6c0.1,0.3,0.2,0.5,0.3,0.8c-2,0.4-5.7-1.1-7-3.7l0,0l-2.2-2.9
		c-2.4-3.5-7.4-4-10.3-3.2c0.7,3.1,2.1,3.5,3,6.9c1.3,3.4,0.9,3.4,3.1,6.8c4.4,6.4,9,6.2,14.6,8.4c-1.5-3-4.1-5.5-7.5-7l-1.2-0.7
		l-1.3-0.7l-1.1-0.8l-0.7-0.5l-0.9-0.5l-0.3-0.7c0-0.1,0-0.2-0.1-0.3c2.5,2.1,6.9,2.8,10.1,5.4c2.2,1.5,4,6.8,7.2,6.2
		C651.8,459.7,648.9,449.1,639.7,449.4z"/>
	<path class="st6" d="M631.8,459.4c-0.1,0.3-0.2,0.6-0.3,0.9l-0.2,0.2l-0.8,0.4l-1,0.2l-1.5-0.5l-1.5-0.8l-1.5-0.9
		c-3.1-2.2-7.2-7.4-10.4-8.7l0.1-0.6c5.3,1.1,9.6,9.4,15.3,9.9l0.6-0.4l0.5-1c0-0.2,0.1-0.4,0.1-0.6V457c-0.2-0.5-0.4-1-0.6-1.4
		c-0.8-2.3-1.4-4.8-2.5-6.9l0,0l-1.2-1.9c-3.1-2.1-6.4-2.4-9.3-1.1l0.3,0.5l0.6,0.2l1.8,1.4l2.1,1.6c-0.3-0.4-0.6-0.7-0.9-1.1
		l-1.4-0.9l-0.6-0.7l-0.4-0.3c0.1-0.2,0.2-0.4,0.3-0.6l0.3,0.3l0.3-0.1l0.6,0.5l1.3,1l1.2,1.1l1.2,1.1l0.9,1.5
		c0.1,0.3,0.2,0.6,0.3,0.9l-0.3,0.4l-0.7-0.1l-1.4-0.9l-1.4-1.1l-1.6-1.1l-1.3-1.1l-1.4-1l-1.6-1l-1.3-0.8c-2.5-0.9-3.6-1.2-5.9-0.4
		l-1.2-0.1l-1.1,0c-0.2,0.2-0.4,0.5-0.6,0.7s-0.1,0.4-0.2,0.6l0.2,0.2l0.6,0.4l1-0.1c0,2.1,0.5,4.2,1.5,6.1l0.6,1l0.6,1
		c0.2,0.3,0.4,0.6,0.6,0.9l0.8,0.9c2,2.2,1.6,1.8,3.9,2.8l0.7,0.5l1.1,0.3l0.8-0.3l0.4-0.2c-0.1-0.3-0.1-0.7-0.2-1l-0.8-0.9
		l-0.6-0.4l-0.3-0.1c0-0.2,0.1-0.3,0.1-0.5l0.4,0.2l1.3,0.8l1.3,2.2l0.9,0.2l1,0.1c-1.9-2.6-2.8-2.2-4.3-3.8
		c-0.1-0.2-0.3-0.4-0.4-0.7c-0.4-0.4-0.8-0.8-1.2-1.2l-1.3-1.5l-0.8-0.2l-0.4,0.1v0.5l0.4,1.1c0.3,0.5,0.6,1,0.9,1.4l-0.3,0.4
		l-0.4,0.1l-0.8-0.8l-0.5-1.5v-1.4l0.5-0.6l1.2-0.2l1.7,1.6c5.7,4.5,12.1,11.5,18.5,9c-0.8-1.6-1.5-3.1-2.2-4.7L631.8,459.4z"/>
	<path class="st6" d="M671.1,478.1l-0.8,0.1l-0.9,0.1l-0.3-0.2l-0.3-0.1l-0.9-0.5l-0.6-0.9l-0.7-0.8c-0.1-0.4-0.3-0.8-0.4-1.2
		c0-0.1,0-0.3-0.1-0.4c0.1-0.1,0.3-0.2,0.4-0.3c0.5,1.4,2.2,3.4,3.3,3.1l0.2-0.1l0.6-0.4c0.2-0.3,0.4-0.7,0.5-1v-0.3l-0.5-0.3
		l-1.2,0.4l-0.7-0.2l-1-0.9l-0.3-0.4l-0.2-0.4l-0.5-0.9v-0.8l0.2,0.3l1,1.1l1.5,0.8h0.3l0.6-0.6c0.2-0.4,0.3-0.8,0.5-1.2
		c0-2.8-0.6-5.5-1.6-8.1c-0.9-2.7-3.1-4.9-6.1-5.9l-1.9-0.4l-0.1,0.1c-0.1,0.1-0.3,0.2-0.5,0.2c-0.1,0.3-0.3,0.5-0.4,0.8
		c0.1,0.2,0.3,0.5,0.4,0.7l0.6,1.1c0.3,0.5,0.5,0.9,0.8,1.4l0.7,1.2l0.8,1.1l0.5,0.5l0.8,0.5l0.8,0.1c-1.3-2.4-3-1.7-3.3-4.6
		c1.1,1.3,2.4,2.4,3.8,3.5c0.1,0.2,0.3,0.4,0.4,0.6l0.1,0.2l0.1,0.9l-0.6,0.9h-1c-3-1-4.4-6.2-6.4-9l0,0l-1.5-1.4l-1.7-1.2l-1.7-0.7
		l-1.8-0.3l-0.7,0.1l-0.6,0.4c0,0.2,0.1,0.4,0.1,0.6l0.8,2.2l1.2,2.8l0.2,0l1-0.3l1.3,0.2v0.2l-0.5,0.4l-0.8,0.4l-0.3,0.4l-0.4,1.9
		l0.3,2.5l0.2,0.8l0.3,1.3c0.2,0.4,0.4,0.9,0.6,1.3c0.2,0.4,0.3,0.8,0.4,1.2l1,1l0.5,0.3c-0.4-1-0.8-2-1.2-3.1v-0.3
		c0-0.5-0.1-1.1-0.1-1.6c0.2-0.6,0.4-1.2,0.6-1.8l0.6-0.2l0.9,0.5c0.1,1.1,2.1,4.8,2.5,5.9c0.1,0.3,0.2,0.5,0.3,0.8l0.1,0.3
		c0.3,0.3,0.6,0.6,0.9,0.9c0.1,0.4,0.3,0.9,0.5,1.3c-2.2-2.4-1.5-2.4-2.6-4c-0.4-1.5-1.3-2.9-2.5-3.4c0,0.2-0.1,0.3-0.1,0.5v2.2
		c0.3,0.9,0.6,1.8,0.9,2.8l0.8,0.4l1.3,0.8l1.4,0.6l1.5,0.6l1.5,0.6l0.7,0.2c-1.3-2.8-2.3-5.6-3-8.6l-0.3-0.9
		c-0.2-0.3-0.3-0.7-0.5-1c-0.2-0.3-0.3-0.7-0.4-1l-0.6-0.6l-0.3,0.1c0,0.5,0,1,0.1,1.5c0.1,0.5,0,1.2,0.1,1.8l-0.5-1.3
		c-0.2-0.6-0.4-1.3-0.6-2v-0.8c0.1-0.2,0.2-0.4,0.3-0.6h0.1l0.6,0l0.9,0.5c0.2,0.4,0.5,0.8,0.7,1.2l0.5,1.2c0.2,0.4,0.4,0.8,0.6,1.2
		s0.2,0.8,0.3,1.2c0.1,0.4,0.3,1,0.5,1.4c0.2,0.5,0.3,0.8,0.4,1.2c0.1,0.4,0.2,0.7,0.3,1.1c1.4,5,4,8.1,8.1,8.1
		c-0.2-0.5-0.4-1-0.6-1.4L671.1,478.1z"/>
	<path class="st4" d="M610.9,458.8l-0.7-0.9l-0.6-1.1L609,456c-0.2-0.3-0.4-0.6-0.6-0.9c-1.2-2-1.9-4.3-1.9-6.6l-0.3-0.2l-0.6-0.3
		l-0.6-0.3l0,0l-1.2-1.5c-3.3-2-6.5-0.4-9.5,0.7l0.6,0.2l1.4,0.6l1.3,0.7l1.4,0.5l1.4,0.3h0.5l0.4-0.3l0.2-0.6l-0.1-0.2l-0.6-0.1
		c-0.1-0.3-0.1-0.5-0.2-0.8l0.5-0.5l0.7,0.3l0.5,1c0.1,0.4,0.1,0.8,0.2,1.1l-0.1,0.2c-0.1,0.4-0.2,0.7-0.3,1.1l-0.8,0.7h-0.9
		l-1.1-0.2l-1.1-0.4l-1.1-0.5c-1.5-0.5-8.7-5.8-5.6,0.5c1.4,3.4,3.2,6.7,5.3,9.9l1.4,0.5l0.6-0.5l1.2-1.1l1.2-1.1l1.2-0.9
		c1.6-0.8,2.7-1,4.1,1v0.8l-0.5,0.3l-0.6-1c-2,0.3-3.4,0.6-4.4,2.9c3.7-0.1,7.7,0.8,10.9-1.7l-0.5-0.5
		C611.3,459,611.1,458.9,610.9,458.8z"/>
	<path class="st7" d="M644.1,458.7L644.1,458.7l-0.7-0.4c-1.6-0.7-4.5-4.1-6.4-5.2l0.5,0.7l1.4,1.8l1.4,1.6c0.5,0.5,1,1,1.5,1.5
		l1.7,0.9l0.7,0.2h0.6l2.2,0.1l2.8,0.9C647.4,457.5,646.9,459.7,644.1,458.7z"/>
	<path class="st4" d="M685.5,472l-0.3-0.9l-0.9-0.8l-1.1-1c-2.3-2.2-5.2-3.9-8.4-5c3.4,7.3,5.5,8.3,10.3,12.3l-0.2,0.3l-4.3-3l0,0
		l-1-1c-1.5-1.5-3.4-5-4.8-6.8l-0.9-1.2c-0.3-0.3-0.6-0.6-0.9-0.9l-0.9-0.9l-0.3,0l-0.8-0.4l-0.8,0.2c0.9,5.2,1.9,10.4,2.8,15.6
		l0.6,1.1l1.3,2.1c0.5,0.6,0.9,1.2,1.3,1.8l1.7,1.2l1.9,0.9l0.8,0.2l0.7,0.1l1.3,0.3c5,0.9,4.7,1.6,5-5.8c-0.1-1.9-1.6-5.4-2.1-7.4
		L685.5,472z"/>
	<path class="st6" d="M594.3,460.3c-0.2-0.2-0.4-0.4-0.6-0.6l-1.3,0.5l-1.3-0.2l-1.2-0.6l-1.3-0.7l-0.5-0.3l-0.7-0.4l-0.1-0.8
		c0-0.2,0.1-0.4,0.1-0.6c1.6,1.1,3.6,2.7,5,1.3c-0.1-0.3-0.2-0.5-0.3-0.8c-4.2-0.8-3.6-1.2-7.1-3.8l0.1-0.8l0.5,0.4l1.1,0.7l1.2,0.5
		l1,0.4l1.5,0.5l0.5,0.1l0.4-0.3c0.1-0.2,0.2-0.4,0.3-0.6l0,0l-0.4-0.9c-1.8-5.1-6.3-7.9-9.4-4.8c-1.3,1.1-2.8,0.6-3.9,2
		c-1.4,2.7-1.2,1.5,1.2,4c-1.2,0.9-4.5,0.3-5.3,2.9v0.6c0,0.7,0,1.4-0.1,2.2c0.3,0.9,0.6,1.7,0.9,2.6l0.2,0.3l1.2,1.1l1.7,0.3
		l-0.3-1v-0.2c0-0.5-0.1-0.9-0.1-1.4c0.2-0.5,0.4-1,0.6-1.5l0.1-0.2l0.7-0.2l1.1,0c3.7,2.2,5.4,4.2,9.8,4.4c0-0.2,0.1-0.5,0.1-0.7
		c-1.6-1.6-3.6-2.4-5-4.4l-0.6-0.8l-0.3-0.1l-0.6-0.7l-0.4-1.2c3.1,2.1,3.7,3.5,6.7,5.5l1,0.5l2.1,0.4l0.3-0.1l0.8-0.5l1-1.2
		c0-0.1,0-0.2-0.1-0.4L594.3,460.3z"/>
	<path class="st7" d="M604.4,453.9l-1.2-0.7c-3.5-1.3-7.4-0.3-10.4-3.7c-0.1,0.3-0.1,0.5-0.2,0.8c6.3,6,6,3.2,12.1,4.6
		c0-0.1-0.1-0.3-0.1-0.4L604.4,453.9z"/>
	<path class="st7" d="M681.3,477.9v0.3l0.8,1c0.2,0.4,0.4,0.8,0.6,1.1l-0.1,0.2l-0.5,0.4l-1-0.3l0,0l-0.8-0.7
		c-2.9-2.9-3.5-6.8-7.3-8.6c1.4,2.4,1.9,0.8,3.3,3.9c1.9,2,1.3,3.2,3.5,5.3C683,484.2,685.6,480.3,681.3,477.9z"/>
	<path class="st6" d="M583,463.9l-2.7-1.5l-0.8-0.5l-0.8-0.2l-0.1,0.1l-0.6,0.5l-0.1,1.2c1.1,1.7,3.7,2.3,5.4,2.9l0.8-0.2l0.8-0.4
		l0.6-0.7l0.3-0.2l0,0l-1.6-0.5L583,463.9z"/>
	<path class="st1" d="M630,493.4L630,493.4l-2.6-0.3c-33,0.2-28.2,61.6,5.1,65.7C663.9,558.8,661.6,501.3,630,493.4z"/>
	<path class="st0" d="M624.7,530.1v-6.9l-5.3-7.9l-5.4,5.8v6.9c-1.8,2-3.5,3.9-5.3,5.9l21.2,4.1v0L624.7,530.1z"/>
	<path class="st0" d="M645.9,527.3l-5.3-7.9l0,0l-5.3,5.8v6.9l-5.3,5.9v0.1l21.3,4.1c-1.8-2.7-3.6-5.3-5.3-8L645.9,527.3z"/>
	<path class="st0" d="M635.3,546l-5.3-8l-5.3,5.9v6.8l-3.6,3.9l8.9,4.1l8.9-0.6l-3.5-5.4L635.3,546z"/>
	<path class="st0" d="M607.2,535.3c0.8,2,1.6,3.9,2.4,5.9l4.3,6.9v-6.3c-1.8-2.7-3.5-5.3-5.3-7.9L607.2,535.3z"/>
	<path class="st0" d="M645.9,548v6.8l3.5-4.2l3.2-6.4l-1.4-2.2L645.9,548z"/>
	<path class="st0" d="M635.3,504.6l-5.3-8l-5.3,5.9v6.8l-5.4,5.9l21.3,4.1l-5.3-8L635.3,504.6z"/>
	<path class="st0" d="M613.9,497.9l-5.3,6.6l-2.9,8l13.6,2.6l-5.4-8L613.9,497.9z"/>
	<path class="st0" d="M645.9,504v9.4l-5.3,5.9l13.5,2.6c-1-3.2-1.9-6.3-2.9-9.5L645.9,504z"/>
	<path class="st2" d="M520.7,735.5c0,0,7.3,19,8.1,25.8c0.8,6.8,2.1,20.4,2.6,22.7l6,15.5c0,0,1.3-3.7,2.1-11.3
		c0.9-7.6-1.3-17.5-3.9-27.4S520.7,735.5,520.7,735.5z"/>
	<path class="st9" d="M521,735l-2-2.5l1.2,3.2c0.1,0.2,7.3,19,8.1,25.6c0.4,3.1,0.9,7.6,1.3,11.9c0.5,5.1,1,9.6,1.3,10.8
		c2.2,5.6,4.4,11.3,6.5,17l0.4-1.2c0.1-0.2,1.3-3.8,2.2-11.5c0.9-7.8-1.4-17.9-3.9-27.7C533.6,750.7,521.5,735.6,521,735z M539,788
		c-0.3,3.3-0.9,6.6-1.7,9.8c-1.8-4.7-3.6-9.3-5.4-14c-0.2-1.3-0.7-5.8-1.2-10.6c-0.5-4.3-0.9-8.8-1.3-11.9c-0.7-5.2-4.8-16.9-7-22.7
		c3.6,4.8,11,15.2,12.8,22.4C537.7,770.5,539.9,780.4,539,788L539,788z"/>
	<path class="st9" d="M522.4,737.5l-0.8,0.7c0.1,0.2,8.5,15.8,9.3,21.9s1.7,29.4,1.7,29.7l1,0.1c0-1-0.9-23.6-1.7-29.9
		S522.7,738.2,522.4,737.5z"/>
	<path class="st2" d="M550.2,813.4c-1.7-0.3-12.9-7.3-18.4-8.2c-5.6-0.9-13.3,8.9-13.3,8.9s7.3-1.6,12.4-0.7s10.3,7.3,15.4,8.2
		c5.1,0.9,16.7,4.1,16.7,4.1C558.8,821.6,554.5,817.5,550.2,813.4L550.2,813.4z"/>
	<path class="st9" d="M550.2,812.7c-1.6-0.6-3.1-1.4-4.6-2.3c-4.3-2.3-10.2-5.4-13.8-6c-5.7-1-13.3,8.6-13.7,9l-1.2,1.6l1.7-0.4
		c0.1,0,7.3-1.6,12.3-0.7c2.5,0.4,5,2.3,7.5,4c2.5,1.7,5.2,3.8,7.9,4.2c5.1,0.9,16.6,4.1,16.7,4.1l2.2,0.6l-14.8-14.2H550.2z
		 M546.4,820.9c-2.5-0.4-5-2.3-7.5-4c-2.5-1.8-5.2-3.7-7.9-4.2c-3.6-0.6-8.3,0-10.8,0.4c2.4-2.7,7.6-7.9,11.6-7.2
		c3.5,0.6,9.3,3.6,13.5,5.9c1.5,0.9,3.1,1.6,4.7,2.3l10.9,10.5C557.4,823.5,550.1,821.6,546.4,820.9L546.4,820.9z"/>
	<path class="st9" d="M519.6,812.5c0.2,0.4,0.3,0.8,0.5,1.2c0.1,0,8.5-4.6,12.6-3.9c4.1,0.7,21.2,7.5,21.3,7.6
		c0.1-0.4,0.1-0.8,0.2-1.3c-0.7-0.3-17.2-7-21.5-7.7S519.9,812.3,519.6,812.5z"/>
	<path class="st2" d="M605.9,837.1c-2.6-4.4-8.1-23.2-10.3-28.1s-12.4-24-12.4-24c0,0,1.3,28,3,36.2c1.7,8.1,20.6,35.1,20.6,35.1
		l19.7,13.8c0,0-5.1-4.3-7.7-7.1S608.5,841.5,605.9,837.1z"/>
	<path class="st9" d="M611.2,846.9c-2-4.5-3.8-8.3-4.9-10.1c-1.5-2.5-4.1-10.2-6.3-17c-1.6-4.8-3-9-3.9-11
		c-2.1-4.8-12-23.3-12.4-24.1c-0.3-0.6-0.7-1.3-1-1.9c0,0.7,0.1,1.4,0.1,2.2c0,1.1,1.3,28.2,3,36.3c1.7,8.1,19.9,34.3,20.7,35.4
		l0.1,0.1c6.6,4.6,13.2,9.2,19.8,13.9c0.1-0.4,0.3-0.8,0.4-1.1c0,0-5.1-4.3-7.7-7C617.6,860.9,614,853.1,611.2,846.9z M607.1,855.7
		c-1.3-1.8-18.7-27-20.4-34.6c-1.4-6.6-2.5-27.1-2.9-33.8c2.7,5,9.7,18.2,11.4,22.1c0.8,1.9,2.3,6.3,3.8,10.9
		c2.3,6.9,4.9,14.7,6.5,17.3c1,1.7,2.8,5.7,4.8,9.9c3.2,7,6.5,14.3,8.2,16c0.2,0.2,0.5,0.5,0.7,0.7L607.1,855.7z"/>
	<path class="st2" d="M548.5,839.8c-4.7-1.5-33.8-19.7-33.8-19.7c0,0.1,24.4,33,33.8,36.4s32.6,4.3,36.4,3.9
		c3.9-0.4,20.6-1.1,25.3,1.5c4.7,2.6,18,8.5,18,8.5c-12.7-8.6-25.4-17.2-38.1-25.7C590.1,844.6,553.2,841.1,548.5,839.8z"/>
	<path class="st9" d="M590,844c-0.4-0.1-36.9-3.6-41.5-4.9c-4.6-1.4-33.4-19.5-33.7-19.6l-2.4-1.5l1.9,2.5
		c1,1.3,24.7,33.2,34.1,36.6c2.2,0.7,4.5,1.3,6.8,1.7c10.9,2,26.5,2.6,29.8,2.3c4-0.4,20.5-1,25,1.4c4.7,2.6,17.9,8.4,18,8.5
		l0.3-1.2C615.6,861.2,602.9,852.6,590,844L590,844z M610.3,861.3c-5.1-2.8-23-1.8-25.5-1.6c-4,0.4-26.9-0.6-36.2-3.9
		c-7.6-2.7-25.7-25.9-31.6-33.6c7.2,4.4,27.6,17,31.5,18.2c4.6,1.3,38.9,4.6,41.5,4.9c10.7,7.2,21.3,14.3,32,21.5
		C617.9,865,612.9,862.7,610.3,861.3z"/>
	<path class="st9" d="M592.7,826.5c-2.9-8.2-7.6-39.9-7.7-40.2l-1,0.1c0.2,1.3,4.8,32.2,7.8,40.6c3.1,8.6,22.4,35.2,24.3,36.2
		c0.1-0.4,0.2-0.8,0.3-1.2C614.9,861,595.8,835.2,592.7,826.5z"/>
	<path class="st10" d="M723.4,934.7c0,0-21-20-29.4-25.5c-8.4-5.3-99.5-62.7-103.7-65.8c-4.2-3.1-18.9-26.8-22-41.6
		c-3.1-14.8-5.6-31.3-5.6-31.3s0,24.7,4.1,37.1c4,12,12.7,25.8,13.8,28.9c-1.1-0.2-29.8-24-38-36c-8.2-12-24.8-46.4-24.8-54.1
		c0-7.8-1.5-51.7-1.5-51.7c-0.5,15-1,30-1.5,45c-0.7,22.5-10.2-25-10.8-37.5c-0.6-12.5-1.8-24.4,1.2-29.4c3-5,10.8-12.3,10.8-12.3
		s-10.8,6-12.6,9.7c-1.8,3.6-3,6.5-3,6.5s-3.6-30.1-2.4-33.8c1.2-3.7,6.6-2.9,6.6-2.9l-4.5-2.9l-3.9,2.4c0,0-1.8-13.5,0-16.3
		c1.8-2.8,6-1.4,6-1.4l-5.4-3.2c0,0-1.2-7.2,1.8-10.6c1.8-2.1,3.3-4.6,4.2-7.1l-5.4,2.3c1.2-4.8,2.4-9.5,3.6-14.2
		c1.8-7.1-6.5,11.5-7,16.4c-0.5,4.9-0.2,30.5-0.2,30.5c-2.8-0.3-5.7-0.6-8.5-1c2.9,1.2,5.8,2.4,8.7,3.6c4.4,1.8,0.9,19.4,1.4,22.6
		c0.4,3.3,1.8,17.7,1.8,17.7c-3.3-4.8-6.6-9.6-9.9-14.3c-5-7.1,11.4,22.1,12.1,29.8s0.5,10.3,0.5,10.3c-4.9-6-9.7-12-14.6-17.9
		c-7.3-8.9,17.3,24.2,18.9,30.6c1.6,6.4,4.5,16.4,4.5,16.4s-6.7-7.8-9-9.6c-2.3-1.8-8.7-4.8-8.7-4.8s10.1,9.9,13.9,16.3
		c3.8,6.4,12.3,21.2,15.7,30.2c3.4,9,13.3,27.6,13.3,27.6c0,0-5.8-5.4-11.9-10.2s-18.6-9.1-18.6-9.1c0,0,19.5,14.4,27.4,21.9
		c7.8,7.5,28.9,32.1,52,47.2c23.1,15.1,90.4,57.1,98.9,63.5c8.5,6.6,41.9,41.1,41.9,41.1C723.5,943.4,723.5,939,723.4,934.7
		L723.4,934.7z"/>
	<path class="st9" d="M568.4,852.9c-7.6,0.5-16.1,1.2-20.2-0.5c-7.1-2.9-30.8-31.1-31-31.3l-0.6,0.9c1,1.1,24.2,28.6,31.5,31.6
		c0.8,0.3,1.7,0.6,2.5,0.7c4.6,0.8,11.4,0.3,18-0.2c5.9-0.4,11.4-0.8,14.6-0.2c7.6,1.4,33.1,9.1,33.4,9.2l0.1-1.3
		c-0.3-0.1-25.8-7.8-33.5-9.2C579.9,852.1,574.3,852.5,568.4,852.9z"/>
	<path class="st11" d="M577.5,758.5c-2.5-0.1-8.9,7.4-10.8,2.5c-1.9-4.9,4.1-10.4,4.1-15.3s-0.9-10.5-6.3-11.1
		c-5.4-0.6-7.3,3.6-7.6,6.8s2.2,12.3,1,14.2l0,0c-1.3,1.8-7.6-9.2-10.2-9.2c-2.5,0-6.3,7.5-6.3,12.5s3.2,12.1,5.7,12.5
		c2.5,0.4,7.6-4.4,9.2-2.9c1.6,1.5-8.3,17.9,3.5,19.6s10.2-2.2,9.8-5.2c-0.3-2.9-4.8-9.5-3.8-11c0.9-1.5,6,5.6,10.2,6.4
		s5.7-1.4,5.7-7.2S580,758.6,577.5,758.5z"/>
	<path d="M579.4,759.1c-0.4-0.7-1.1-1.1-2-1.3c-1,0-2.3,0.9-3.9,1.9c-1.9,1.2-4.2,2.8-5.6,2.1c-0.4-0.3-0.7-0.6-0.8-1.1
		c-0.9-2.4,0.5-5.3,1.9-8.1c1.1-2.3,2.3-4.6,2.3-6.9c0-4.1-0.7-7.1-2.1-9.1c-1-1.5-2.8-2.6-4.8-2.8c-5.4-0.6-7.7,3.4-8.1,7.3
		c0,2.2,0.2,4.3,0.6,6.4c0.5,2.9,1,6.6,0.4,7.4 M557.3,755.3c-0.7,0-2.5-2.3-4-4.1c-2.2-2.7-4.3-5.3-5.8-5.3
		c-2.6,0-6.8,7.3-6.8,13.1c0,5,3.2,12.8,6.2,13.3c1.3,0.2,3.1-0.7,4.9-1.7c1.4-0.8,3.3-1.8,4-1.4c-0.2,1.2-0.4,2.4-0.8,3.6
		c-1.1,3.8-2.7,9-0.9,12.7c0.9,1.9,2.9,3.2,5.1,3.5l0.4,0.1c5.6,0.8,8.8,0.4,10-1.2c0.8-1.2,0.6-2.7,0.4-3.9c0-0.2-0.1-0.5-0.1-0.7
		c-0.2-1.5-1.1-3.5-2.1-5.6c-0.7-1.5-2.1-4.4-1.8-4.9c0.3-0.2,1.9,1.2,2.9,2.1c2,1.8,4.5,4,6.8,4.5c4.4,0.8,6.2-1.5,6.2-7.7
		c0.1-4.1-0.8-9.7-2.6-12.2L557.3,755.3z M575.9,777.8c-2-0.4-4.4-2.5-6.3-4.2s-3.5-3.1-4.2-2c-0.7,1.1,0.4,3.6,1.7,6.4
		c0.9,1.6,1.5,3.3,2,5c0,0.2,0.1,0.5,0.1,0.8c0.2,1.1,0.3,2.1-0.2,2.9c-1,1.4-4,1.6-9.2,0.9c-2.3-0.3-3.9-1.3-4.7-2.8
		c-1.5-3-0.1-7.9,1-11.4c0.8-2.8,1.3-4.4,0.5-5.2c-0.2-0.2-0.5-0.4-0.8-0.4c-1.1-0.2-2.6,0.6-4.3,1.5s-3.3,1.8-4.4,1.6
		c-2.2-0.4-5.2-7.2-5.2-11.8c0-4.9,3.8-11.9,5.9-11.9c1,0,3.2,2.7,5,4.9c2.3,2.8,3.7,4.5,4.7,4.5c0.3,0,0.6-0.1,0.7-0.4
		c0.9-1.3,0.3-4.8-0.2-8.5c-0.4-2-0.6-4-0.6-6c0.5-5.2,4-6.7,7.1-6.4c1.7,0.1,3.2,1,4,2.3c1.2,1.7,1.8,4.3,1.8,8
		c0,1.9-1.1,4.1-2.2,6.3c-1.5,3.1-3.1,6.2-1.9,9.4c0.2,0.7,0.8,1.4,1.5,1.8c1.8,0.9,4.1-0.7,6.4-2.2c1.3-0.9,2.7-1.8,3.5-1.8
		c0.5,0.1,1,0.4,1.2,0.8c1.4,1.8,2.4,6.5,2.4,11.2C581.1,776.7,579.7,778.5,575.9,777.8z"/>
	<path class="st10" d="M561,761.3c-4.1-9-12.5-34.6-13.6-32.5c-1.1,2.1,9.8,33.9,12.4,37.6c2.5,3.7,17.1,23.7,18.7,23.2
		C580,789,565.1,770.2,561,761.3z"/>
	<path class="st10" d="M556.6,765.4c-6.3,4.2-13.5,21.7-11.7,23.4c1.8,1.8,6.7-13.2,13.3-20.7c2.5-2.9,23.5-22.4,22.8-24.6
		C580.4,741.4,562.9,761.2,556.6,765.4z"/>
	<path class="st12" d="M561.3,755.5c-3.2-0.6-5.7,2.3-5.7,6.4c0,4.1,2.6,7.9,5.7,8.4s5.7-2.3,5.7-6.4
		C567,759.9,564.4,756.1,561.3,755.5z"/>
	<path class="st11" d="M511.3,757.6c-2.5,0.3-6.5,6.7-8.3,5.6s4.9-20.4-6.5-18.6s-9.3,5.4-8.5,8.3s6.1,8,5.4,9.8
		c-0.7,1.8-6.6-3.8-10.7-3.2c-4,0.6-5.2,3.3-4.2,9c0.9,5.8,3.6,12.1,6,11.4c2.4-0.8,7.2-10.2,9.8-5.9c2.6,4.3-2.2,11.7-1.4,16.6
		c0.8,5,2.6,10.2,7.8,9.1c5.2-1.1,6.3-5.8,6.1-9.2s-4.1-11.7-3.2-13.9l0,0c0.9-2.2,8.7,6.9,11.1,6.2c2.4-0.7,4.8-9.4,4-14.4
		S513.8,757.3,511.3,757.6z"/>
	<path d="M511.2,757c-1.3,0.2-2.8,1.7-4.3,3.1c-1.2,1.2-2.9,2.8-3.6,2.6c0-1.3,0-2.6,0.2-3.8c0.5-4.2,1.1-9.9-1.3-13
		c-1.3-1.7-3.2-2.3-5.8-1.9c-5.5,0.9-8.4,2.3-9.3,4.4c-0.4,1.3-0.3,2.8,0.2,4.1c0.1,0.2,0.1,0.5,0.2,0.7c0.4,1.4,1.6,3.1,2.9,5
		c0.9,1.3,2.7,3.8,2.5,4.3c-0.3,0.3-2-0.6-3.1-1.2c-2.2-1.2-4.9-2.6-7.2-2.3c-1.9,0.1-3.6,1.2-4.3,2.8c-0.7,1.6-0.8,3.8-0.3,6.9
		c0.7,4.2,2.4,9.5,4.6,11.4c0.5,0.6,1.3,0.8,2.1,0.6c1-0.3,2.1-1.6,3.4-3.1c1.6-1.9,3.6-4.1,4.9-3.9c0.4,0.1,0.8,0.4,1,0.8
		c1.3,2.1,0.4,5.4-0.5,8.7c-0.7,2.6-1.4,5.3-1.1,7.6c0.7,4.1,1.8,6.9,3.5,8.4c0.7,0.7,1.7,1.2,2.8,1.4c0.7,0.1,1.5,0.1,2.2-0.1
		c5.2-1.1,6.8-5.8,6.5-9.8c-0.3-2.1-0.9-4.2-1.6-6.3c-0.9-2.8-2-6.3-1.6-7.3c0,0,0,0,0,0c0.6-0.2,2.7,1.5,4.4,2.9
		c2.6,2.1,5,4,6.4,3.6c2.5-0.7,5.3-9.3,4.3-15.1C518.5,763.5,514.2,756.6,511.2,757z M514.6,782.3c-1,0.3-3.5-1.8-5.6-3.4
		c-2.6-2.1-4.2-3.4-5.2-3.1c-0.3,0.1-0.5,0.3-0.6,0.6l0.5,0.4l-0.5-0.4c-0.6,1.6,0.5,4.9,1.6,8.4c0.7,1.9,1.2,3.9,1.6,5.8
		c0.4,5.4-2.7,7.9-5.7,8.5c-1.5,0.4-3.1,0-4.2-1c-1.4-1.3-2.4-3.8-3-7.5c-0.3-2,0.4-4.5,1-6.9c1-3.6,2-7.2,0.3-10
		c-0.3-0.7-0.9-1.2-1.7-1.4H493c-1.8-0.3-3.7,2-5.6,4.2c-1.1,1.3-2.3,2.6-3,2.9c-0.5,0.1-0.9-0.1-1.2-0.4c-1.6-1.4-3.3-5.8-4.1-10.4
		c-0.4-2.8-0.4-4.7,0.2-6c0.6-1.3,2-2.2,3.7-2.3c2-0.3,4.6,1.1,6.7,2.2c2.2,1.2,3.8,2,4.3,0.7s-1-3.5-2.7-5.9
		c-1.1-1.4-2-2.9-2.7-4.4c-0.1-0.2-0.1-0.5-0.2-0.7c-0.4-0.9-0.5-2-0.3-3c0.7-1.6,3.6-2.9,8.6-3.8c2.3-0.4,3.9,0.1,4.9,1.4
		c1.9,2.5,1.3,7.9,0.9,11.7c-0.3,3.1-0.5,4.8,0.4,5.3c1.2,0.7,2.8-0.8,4.7-2.7c1.3-1.3,2.8-2.8,3.9-2.9c2.1-0.3,6.1,5.7,6.8,10.3
		C519.1,773.6,516.6,781.7,514.6,782.3L514.6,782.3z"/>
	<path class="st10" d="M500.1,766.6c-3-3-20.1-18.4-21.5-17.3c-1.4,1.1,15.8,15.1,21.1,22.9c5.4,7.8,17.5,30.9,18.2,28.5
		C518.7,798.3,503.1,769.6,500.1,766.6z"/>
	<path class="st10" d="M510.6,739.6c-1.9-1.2-4.2,15.2-9.3,24.7c-2,3.6-18.6,29.8-17.6,31.8c1,2,14.3-23.4,19.6-29.5
		C508.6,760.5,512.5,740.8,510.6,739.6z"/>
	<path class="st12" d="M498,763.1c-3.1,0.4-5,4-4.4,8.2c0.7,4.1,3.7,7.1,6.8,6.7c3.1-0.4,5-4,4.4-8.1S501,762.7,498,763.1z"/>
	<path class="st11" d="M533.3,685.1c-2.3,0.9-5.3,8.2-7.2,7.5c-1.9-0.7,1.9-21.7-8.8-17.2c-10.7,4.4-8.2,7.5-7,10.2
		c1.1,2.7,6.9,6.7,6.6,8.7c-0.4,1.9-6.9-2.3-10.7-0.9c-3.8,1.4-4.5,4.4-2.8,10s5.1,11.4,7.3,10.1s5.5-11.9,8.6-8.1
		c3.1,3.7-0.5,12.2,0.9,17c1.4,4.8,3.9,9.7,8.8,7.4c4.9-2.2,5.3-7.3,4.6-10.6s-5.6-10.9-5-13.3l0,0c0.6-2.4,9.3,5,11.6,3.8
		c2.2-1.2,3.3-10.6,1.9-15.4S535.7,684.2,533.3,685.1z"/>
	<path d="M533.1,684.4c-1.2,0.4-2.5,2.3-3.7,4.1c-1,1.5-2.4,3.5-3.1,3.4c-0.2-1.3-0.3-2.6-0.3-3.9c-0.1-4.3-0.3-10.2-3-12.8
		c-1.4-1.4-3.4-1.6-5.9-0.6c-5.1,2.1-7.8,4.2-8.3,6.4c-0.2,1.4,0.1,2.8,0.8,4c0.1,0.2,0.2,0.4,0.3,0.6c0.6,1.3,2,2.8,3.5,4.3
		c1.1,1.1,3.1,3.2,3,3.8c-0.2,0.3-2-0.2-3.2-0.6c-2.3-0.7-5.1-1.5-7.3-0.7c-4,1.5-5,4.8-3.1,10.8c1.2,4,3.6,9,6,10.4
		c0.6,0.4,1.4,0.5,2.1,0.2c0.9-0.5,1.8-2.1,2.8-3.9c1.3-2.2,2.9-5,4.2-5c0.4,0,0.7,0.2,1,0.6c1.5,1.9,1.1,5.4,0.7,8.8
		c-0.3,2.8-0.6,5.7,0,7.9c1.2,4,2.7,6.5,4.5,7.7c0.5,0.4,1.1,0.6,1.8,0.7c1.1,0.2,2.2,0,3.2-0.5c4.9-2.2,5.7-7.3,4.9-11.3
		c-0.6-2-1.4-4-2.4-6c-1.3-2.6-2.8-5.9-2.6-7c0,0,0,0,0,0c0.6-0.3,2.8,0.9,4.7,1.9c2.7,1.5,5.3,3,6.6,2.3c2.3-1.3,3.8-10.5,2.1-16.2
		C541,689.3,535.9,683.4,533.1,684.4z M539.9,709.1c-0.9,0.5-3.6-1-5.8-2.2c-2.8-1.5-4.5-2.5-5.5-2c-0.3,0.2-0.5,0.5-0.5,0.8
		c-0.4,1.7,1.1,4.8,2.7,8.1c0.9,1.8,1.7,3.6,2.3,5.5c1.1,5.3-1.5,8.6-4.3,9.9c-1.3,0.7-2.9,0.7-4.2-0.1c-1.5-1-2.8-3.3-3.9-6.9
		c-0.6-1.9-0.3-4.6,0-7.2c0.4-3.8,0.9-7.7-1.1-10.1c-0.3-0.5-0.9-0.8-1.5-1c-0.1,0-0.2,0-0.3,0c-1.8,0-3.4,2.8-4.9,5.4
		c-0.9,1.6-1.8,3.2-2.5,3.6c-0.4,0.2-0.9,0.2-1.3-0.1c-1.7-1-4-5.1-5.4-9.6c-1.6-5.4-0.9-7.8,2.6-9.2c1.9-0.7,4.6,0.1,6.7,0.7
		c2.3,0.7,4,1.2,4.3-0.3c0.3-1.4-1.4-3.3-3.4-5.3c-1.3-1.3-2.7-2.8-3.2-3.9c-0.1-0.2-0.2-0.5-0.3-0.7c-0.5-0.9-0.8-1.9-0.7-2.9
		c0.4-1.8,3-3.7,7.8-5.7c2.1-0.9,3.8-0.8,4.9,0.3c2.2,2.1,2.4,7.6,2.5,11.6c0.1,3.2,0.2,4.9,1.1,5.3c1.3,0.5,2.6-1.5,4.1-3.7
		c1.1-1.6,2.3-3.4,3.3-3.8c2-0.7,6.7,4.4,8,8.8C543,699.3,541.7,708.1,539.9,709.1L539.9,709.1z"/>
	<path class="st10" d="M523.8,696.6c-3.3-2.4-21.9-14.1-23.1-12.7c-1.2,1.4,17.3,11.7,23.5,18.3c6.2,6.6,21.1,27.3,21.5,24.7
		C546,724.3,527.1,698.9,523.8,696.6z"/>
	<path class="st10" d="M530.1,667c-2-0.8-1.9,16.3-5.5,27c-1.4,4.1-13.8,34.1-12.6,35.9c1.2,1.8,10.5-26.7,14.8-34
		C531.1,688.5,532.1,667.8,530.1,667z"/>
	<path class="st12" d="M521.2,693.5c-2.9,1.1-4.3,5.2-3.1,9.2c1.2,4,4.5,6.3,7.5,5.2c2.9-1.1,4.3-5.2,3.1-9.2
		C527.5,694.8,524.1,692.4,521.2,693.5z"/>
	<path class="st11" d="M470.5,708.8c0,2.5,3.8,2.6,3.8,5.4c0,2.9-5.7,0.5-5.7,3.4c0,2.9,7.9,10.1,10.8,9.3s14.9-5.3,17.8-3.6
		c0,0-10.8-14-16.2-15.1S470.5,706.3,470.5,708.8z"/>
	<path d="M481,707.5c-6.3-1.4-9.4-1.4-10.5-0.2c-0.3,0.4-0.5,0.9-0.5,1.4c0,1.6,1.1,2.4,2.1,3.1c1,0.7,1.7,1.3,1.7,2.3
		c0,0.8-1,1-2.4,1.1c-1.4,0.1-3.3,0.3-3.3,2.3c0,1.6,1.6,3.6,2.9,5c2.3,2.4,5.5,4.8,7.6,5.1c0.3,0.1,0.7,0,1,0
		c0.5-0.1,1.2-0.4,2.1-0.7c3.9-1.3,13.1-4.2,15.3-3l2.4,1.4l-1.9-2.5C497.1,722.3,486.5,708.7,481,707.5z M481.4,725.6
		c-0.9,0.3-1.6,0.5-2.1,0.7c-1.4,0.4-4.9-1.7-7.7-4.7c-1.8-1.9-2.4-3.3-2.4-3.8c0-0.8,1-1,2.4-1.1c1.4-0.1,3.3-0.3,3.3-2.3
		s-1.3-2.9-2.3-3.6c-1-0.8-1.5-1.1-1.5-1.8c0-0.2,0.1-0.3,0.2-0.5c0.7-0.8,3-0.7,5.3-0.4c1.7,0.2,3.4,0.6,4.4,0.8
		c4.1,0.9,11.8,9.8,14.7,13.4C492.5,722.1,486.7,723.8,481.4,725.6z"/>
	<path class="st11" d="M471.2,685c0,2.5,3.2,6.2,6.3,6.6c3.2,0.4,9.5-0.7,9.5-0.7l0,0c0,0-7.3-9.7-10.2-10.1
		c-2.8-0.3-5.3,1.4-5.7,3.8C471.2,684.8,471.2,684.9,471.2,685z"/>
	<path d="M476.9,680.2c-3-0.3-5.8,1.6-6.2,4.3c0,0.2,0,0.3,0,0.5c0,2.8,3.3,6.9,6.9,7.4c3.2,0.4,9.4-0.7,9.6-0.7l0.9-0.2l-0.7-0.9
		C486.6,689.5,479.9,680.6,476.9,680.2z M477.5,691c-2.2-0.3-5.8-3.3-5.8-5.9c0-2.1,2.7-3.9,5.2-3.6c2,0.3,6.7,5.8,9.1,8.9
		C484.1,690.7,479.9,691.3,477.5,691L477.5,691z"/>
	<path class="st11" d="M480.7,660.4c-4.1-0.6-6.7,1.1-7,3.6c-0.3,2.4,1.9,5.6,4.4,6c2.5,0.4,4.8-3.4,7-3.1c2.2,0.3,5.1,2.8,5.1,2.8
		C489.9,666.2,484.8,660.9,480.7,660.4z"/>
	<path d="M480.7,659.7c-4.1-0.6-7.1,1.1-7.5,4.1c-0.1,1.3,0.2,2.6,0.9,3.8c0.8,1.5,2.2,2.6,4,3c1.5,0.2,2.8-0.8,4-1.7
		c1.1-0.8,2.1-1.6,3-1.4c2.1,0.3,4.8,2.6,4.8,2.7l0.9,0.8c0-0.4-0.1-0.9-0.1-1.3C490.3,665.7,484.9,660.3,480.7,659.7z M485.1,666.1
		c-1.2-0.2-2.4,0.7-3.5,1.6c-1.1,0.9-2.3,1.7-3.4,1.6c-1.4-0.3-2.6-1.2-3.2-2.4c-0.5-0.8-0.8-1.8-0.7-2.7c0.3-1.9,2.4-3.7,6.5-3.1
		c3.3,0.5,7.3,4.1,8.6,7.1C488.1,667.2,486.7,666.5,485.1,666.1L485.1,666.1z"/>
	<path class="st11" d="M517.5,657.8c-4.1-0.3-7.9,7.4-7.9,7.4l0,0c4.4-0.1,5.7,2.6,8.3,3c2.5,0.4,5.7-1.9,5.7-4
		C523.5,662,521.6,658,517.5,657.8z"/>
	<path d="M517.5,657.1c-4.3-0.3-8.2,7.3-8.3,7.6l-0.5,1.1h1.1c1.9,0,3.8,0.5,5.3,1.7c0.8,0.6,1.8,1.1,2.8,1.3
		c2.8,0.5,6.2-2.1,6.2-4.6c-0.1-1.5-0.6-3-1.5-4.2C521.4,658.3,519.6,657.3,517.5,657.1z M517.9,667.4c-0.9-0.2-1.8-0.6-2.5-1.2
		c-1.2-0.8-2.6-1.4-4-1.7c-0.2,0-0.5-0.1-0.7-0.1c1.2-2,4-6.2,6.9-6.1c1.8,0.1,3.4,1,4.3,2.4c0.7,1,1.1,2.1,1.2,3.2
		C523,665.5,520.3,667.8,517.9,667.4L517.9,667.4z"/>
	<path class="st11" d="M505.4,636.1c-2.5-0.4-4.1,1-5.1,2.9c0,0,3.8,0.2,3.8,3.5c0,3.3,1,7.2,2.2,7.4c1.3,0.2,2.9-2,2.5-5.4
		S508,636.5,505.4,636.1z"/>
	<path d="M505.4,635.4c-2.4-0.4-4.3,0.7-5.5,3.2l-0.5,1l1,0c1.1,0.1,2.1,0.5,2.8,1.3c0.3,0.4,0.4,0.9,0.4,1.4c0,3.1,0.9,7.8,2.7,8.1
		c0.8,0,1.6-0.4,1.9-1c1-1.5,1.4-3.3,1.1-5C509.2,641.9,508.6,635.9,505.4,635.4z M507.5,648.5c-0.4,0.5-0.8,0.7-1.2,0.7
		c-0.7-0.1-1.7-3.3-1.7-6.6c0-0.9-0.2-1.7-0.8-2.4c-0.6-0.8-1.5-1.4-2.6-1.6c0.8-1.3,2.4-2,4.1-1.7c2,0.3,2.7,4.3,3,7.7
		C508.6,645.8,508.3,647.2,507.5,648.5z"/>
	<path class="st11" d="M483.6,640.2c-0.3,3.2,1.6,4.8,1.6,4.8s4.1-3.1,4.4-5.5c0.2-1.5,0.3-3,0.3-4.5
		C488,635.1,483.9,636.9,483.6,640.2z"/>
	<path d="M483,640c-0.4,3.7,1.8,5.4,1.9,5.5l0.3,0.2l0.3-0.2c0.4-0.3,4.3-3.3,4.7-5.9c0.2-1.5,0.3-3.1,0.3-4.6v-0.8h-0.6
		C488,634.4,483.4,636.3,483,640z M489.1,639.2c-0.2,1.5-2.4,3.7-3.9,4.9c-0.9-1.1-1.3-2.5-1.1-3.8c0.2-2.4,3.3-4.2,5.3-4.7
		C489.3,636.5,489.3,637.8,489.1,639.2z"/>
	<path class="st11" d="M488,614.9c-1.6,2.6-0.6,5.7,1,6.3s0-2.9,2.5-4.2c2.5-1.3,2.9-5.3,2.9-5.3C491.7,611.6,489.3,612.9,488,614.9
		z"/>
	<path d="M487.6,614.4c-0.9,1.5-1.1,3.3-0.7,4.9c0.2,1,0.9,1.9,2,2.5c0.1,0,0.2,0.1,0.4,0.1c0.2,0,0.4,0,0.6-0.1
		c0.4-0.4,0.6-1,0.5-1.5c0.1-0.9,0.2-2,1.4-2.6c2.8-1.4,3.1-5.6,3.1-5.8l0.1-0.7l-0.6-0.1C491.5,610.9,488.9,612.3,487.6,614.4z
		 M491.3,616.4c-1.6,0.8-1.8,2.5-1.9,3.5c0,0.2-0.1,0.5-0.1,0.7c-0.1,0-0.1,0-0.2,0c-0.6-0.4-1.1-0.9-1.2-1.6
		c-0.3-1.2-0.1-2.5,0.6-3.7c1.1-1.7,3.1-2.8,5.3-3C493.5,613.5,492.9,615.6,491.3,616.4z"/>
	<path class="st11" d="M498.1,617.6c-1.6-0.2-2.2,4.6-2.2,4.6l0,0c0,0,3.5-1.5,4.8,1.6c1.3,3.1,2.2,5.7,3.8,5.5
		c1.6-0.2,2.9-6.1,1-8.9S499.7,617.9,498.1,617.6z"/>
	<path d="M499.1,617.1c-0.4,0-0.7-0.1-1-0.1c-1.9-0.3-2.6,4.2-2.7,5.1c0,0.4-0.1,0.8-0.2,1.2l0.9-0.4c0,0,3.1-1.3,4.1,1.2l0.3,0.6
		c1.1,2.7,2.1,5.1,3.6,5.3c0.2,0,0.3,0,0.5,0c0.8-0.1,1.6-1.2,2-3c0.5-2,0.6-5.1-0.8-7C504.1,617.5,501.1,617.2,499.1,617.1z
		 M505.6,626.5c-0.3,1.4-0.9,2.1-1.2,2.2c-1.1,0.1-1.8-1.6-3-4.5c-0.1-0.2-0.2-0.4-0.3-0.6c-0.3-1.2-1.4-2-2.7-2.3
		c-0.6-0.1-1.2-0.1-1.8,0.1c0.3-1.5,0.9-3.1,1.5-3c0.3,0,0.6,0.1,1,0.1c1.8,0.1,4.5,0.4,5.9,2.4C506,622.2,506,624.7,505.6,626.5
		L505.6,626.5z"/>
	<path class="st11" d="M503.9,581.5c-2.9,1.2-3.8,7.6-3.8,7.6l0,0l5.1,0.8c2.5,0.4,3.8-2.3,3.8-4.8S506.7,580.3,503.9,581.5z"/>
	<path d="M508,581.6c-1-1.2-2.9-1.5-4.3-0.8c-3.1,1.3-4.1,7.8-4.1,8.1s-0.1,0.5-0.1,0.8l5.7,0.9c2.8,0.4,4.3-2.4,4.3-5.3
		C509.5,583.9,508.9,582.6,508,581.6z M505.1,589.2l-4.4-0.7c0.3-1.7,1.4-5.6,3.4-6.4c1.1-0.6,2.5-0.3,3.4,0.6c0.6,0.7,1,1.5,1,2.4
		C508.4,587.3,507.3,589.6,505.1,589.2L505.1,589.2z"/>
	<path class="st11" d="M504.5,598.8c-2.2,0.1-1.9,4.6-3.8,5.6c1.2,0.9,2.6,1.5,4.1,1.9c2.9,0.9,2.9-0.8,2.9-2.8
		C507.7,601.4,506.7,598.8,504.5,598.8z"/>
	<path d="M506.9,599.5c-0.5-0.8-1.5-1.3-2.5-1.3c-1.5,0-2,1.7-2.5,3.1c-0.4,1.1-0.7,2.2-1.4,2.5l-0.9,0.4l0.9,0.7
		c1.3,0.9,2.7,1.6,4.3,2c0.3,0.1,0.6,0.2,0.9,0.2c0.7,0.2,1.4,0,1.9-0.4c0.7-0.7,0.7-1.9,0.7-3.2
		C508.2,602.1,507.8,600.7,506.9,599.5z M506.8,605.7c-0.3,0.3-1,0.3-1.9,0c-1.1-0.3-2.2-0.7-3.1-1.3c0.5-0.7,0.9-1.6,1.1-2.4
		c0.5-1.5,0.9-2.4,1.7-2.4c0.7,0,1.3,0.3,1.7,0.8c0.6,0.9,0.9,2,0.9,3C507.1,604.4,507.1,605.3,506.8,605.7L506.8,605.7z"/>
	<path class="st11" d="M497.8,590c-1.3,2.3-1.3,8-1.3,8l0,0c1.3-3.1,4.8-2.6,5.7-4.9C503.2,590.8,499.1,587.7,497.8,590z"/>
	<path d="M501.5,589.6c-1.3-1.2-3.2-1.6-4.1,0c-1.3,2.4-1.4,8.2-1.4,8.4v2.8l1-2.4c0.6-1.2,1.6-2.1,3-2.6c1.1-0.5,2.2-1,2.7-2.3
		C503.1,592.1,502.7,590.6,501.5,589.6z M501.8,592.8c-0.4,0.9-1.2,1.3-2.3,1.8c-0.9,0.4-1.7,0.9-2.4,1.5c0.1-1.8,0.4-4.4,1.1-5.6
		c0.2-0.4,0.7-0.7,1.3-0.6c0.6,0.1,1.1,0.4,1.5,0.8C501.2,590.9,502.2,591.8,501.8,592.8L501.8,592.8z"/>
	<path class="st2" d="M679.2,916.9c-4.7-1.4-17.1-8.8-24.8-9.7c-7.7-0.9-21,3.7-21,3.7s8.1,2.7,11.1,5.5c3,2.8,10.7,7.1,17.1,8.9
		c6.4,1.8,19.3-1.9,24-1.6s21,3.3,21,3.3l-7.7-8.1C696.7,919.6,683.9,918.3,679.2,916.9z"/>
	<path class="st9" d="M698.7,918.2c-1.9,0.6-14.6-0.5-19.5-2c-2.5-0.9-4.8-1.9-7.1-3.1c-5.7-2.7-12.7-6-17.8-6.6
		c-7.7-0.9-20.6,3.6-21.2,3.7l-1.8,0.6l2,0.7c0.1,0,8.1,2.7,10.9,5.4c3.1,2.9,10.8,7.2,17.4,9c0.3,0.1,0.6,0.2,0.9,0.2
		c4,0.8,9.9-0.1,15.1-0.9c3.4-0.5,6.3-1,8.1-0.9c4.6,0.3,20.8,3.3,20.9,3.3l1.7,0.3c-3.1-3.2-6.2-6.5-9.3-9.8L698.7,918.2z
		 M685.6,923c-1.9-0.1-4.8,0.3-8.3,0.9c-5.2,0.8-11.8,1.8-15.7,0.7c-6.4-1.8-14-6-16.9-8.7c-2.2-2-6.7-3.9-9.4-4.9
		c3.9-1.2,13.1-3.8,19-3.1c5,0.6,11.9,3.9,17.5,6.6c2.3,1.2,4.8,2.2,7.3,3.2c4.7,1.4,16.8,2.7,19.7,2.1l6.1,6.4
		C700.6,925.2,689.4,923.2,685.6,923L685.6,923z"/>
	<path class="st2" d="M724.3,796c-2.6,9-4.7,18.1-3.9,26c0.4,4.1,1.1,8.1,2.1,12l6-13.4c0.4-2.2,1.7-15.3,2.6-21.8
		s8.1-23.1,8.1-23.1S726.9,787,724.3,796z"/>
	<path class="st9" d="M723.8,795.7c-2.5,8.9-4.8,18.2-3.9,26.3c0.4,4.1,1.1,8.2,2.2,12.2l0.4,1.3c2.2-4.8,4.3-9.7,6.5-14.6v-0.1
		c0.2-1.2,0.7-5.5,1.3-10.4c0.5-4.2,0.9-8.4,1.3-11.4c0.8-6.3,8-22.8,8.1-22.9l1.2-2.8l-2,1.8C738.5,775.7,726.4,786.7,723.8,795.7z
		 M730.7,798.7c-0.4,3-0.9,7.3-1.3,11.5c-0.5,4.6-1,9-1.2,10.2c-1.8,4-3.6,8.1-5.4,12.1c-0.8-3.5-1.4-6.9-1.7-10.4
		c-0.8-7.8,1.3-17,3.8-25.7c1.9-6.6,9.2-14.4,12.8-18C735.5,783.3,731.3,793.7,730.7,798.7L730.7,798.7z"/>
	<path class="st9" d="M728.1,796.5c-0.9,5.9-1.7,28.3-1.7,29.3l1,0.2c0-0.2,0.9-23.2,1.7-29.1c0.8-5.9,9.2-18.6,9.3-18.7l-0.8-1
		C737.3,777.9,729,790.5,728.1,796.5z"/>
	<path class="st2" d="M728.2,841.7c-5.6-0.9-16.7,2.1-18.4,1.8l0,0c-4.3,2.6-8.6,5.1-12.9,7.7c-6.4,3.8,11.6,1,16.7,1.9
		c5.1,0.9,10.3-3.8,15.4-2.9s12.4,4.9,12.4,4.9S733.8,842.7,728.2,841.7z"/>
	<path class="st9" d="M728.2,841.1c-3.6-0.6-9.5,0.4-13.8,1.2c-1.5,0.3-3.1,0.5-4.6,0.6h-0.1l-14.8,8.8l2.2,0.2
		c0.1,0,11.6,1,16.7,1.9c2.7,0.5,5.3-0.5,7.9-1.4c2.6-0.9,5-1.9,7.5-1.4c5,0.9,12.2,4.8,12.3,4.8l1.7,1l-1.2-2
		C741.5,854.2,733.9,842,728.2,841.1z M729.1,849.5c-2.7-0.5-5.3,0.5-7.9,1.5s-5,1.8-7.5,1.4c-3.8-0.7-11-1.4-14.6-1.7l10.9-6.5
		c1.6-0.1,3.2-0.3,4.7-0.6c4.2-0.7,10-1.8,13.5-1.2c4,0.7,9.2,7.7,11.6,11.1C737.3,852.3,732.7,850.2,729.1,849.5L729.1,849.5z"/>
	<path class="st9" d="M705.8,844.9c0.1,0.4,0.1,0.9,0.2,1.3c0.2,0,17.1-0.8,21.3-0.1c4.2,0.7,12.5,8.1,12.6,8.2
		c0.2-0.4,0.3-0.7,0.5-1.1c-0.4-0.3-8.7-7.6-13.1-8.4S706.5,844.9,705.8,844.9z"/>
	<path class="st2" d="M654.1,846.5c-2.6,3.4-10.3,19.1-12.9,20.9c-2.5,1.5-5,2.9-7.7,4.1l19.7-6.2c0,0,18.8-19.7,20.6-27.2
		c1.7-7.5,3-35,3-35s-10.3,15.3-12.4,19.3C662.2,826.3,656.6,843.1,654.1,846.5z"/>
	<path class="st9" d="M663.9,821.9c-0.9,1.7-2.3,5.3-3.9,9.5c-2.3,5.9-4.9,12.6-6.3,14.6c-1,1.4-2.8,4.5-4.8,8.2
		c-2.9,5.2-6.4,11.6-7.9,12.6c-2.4,1.5-5,2.8-7.7,4c0.1,0.4,0.3,0.9,0.4,1.3l19.8-6.2l0.1-0.1c0.8-0.8,19-19.9,20.7-27.5
		c1.7-7.5,3-34,3-35.2c0-0.7,0.1-1.4,0.1-2.1c-0.3,0.5-0.7,1-1,1.5C676,803.1,666.1,817.9,663.9,821.9z M673.3,837.7
		c-1.6,7-19.1,25.5-20.4,26.9l-12.1,3.8c0.3-0.2,0.5-0.3,0.7-0.5c1.6-1.1,5-7.1,8.2-12.9c1.9-3.5,3.8-6.8,4.8-8.1
		c1.6-2.1,4.2-8.9,6.5-14.9c1.5-4,3-7.8,3.8-9.4c1.7-3.2,8.7-13.8,11.4-17.8C675.8,811.6,674.7,831.6,673.3,837.7L673.3,837.7z"/>
	<path class="st2" d="M669.9,860.1c-12.7,3.7-25.4,7.4-38.1,11c-19.1,5.5,13.3-0.8,18-1.5c4.7-0.7,21.4,6.3,25.3,8.2
		s27,9.5,36.4,9.5c9.4,0,33.8-24.8,33.8-24.8s-29.1,8.5-33.8,8.1C706.8,870.3,669.9,860.1,669.9,860.1z"/>
	<path class="st9" d="M711.4,869.9c-4.6-0.2-41.1-10.3-41.5-10.4h-0.1c-12.7,3.7-25.5,7.4-38.2,11l0.3,1.3c0.1,0,13.4-0.8,18-1.5
		c4.5-0.7,21,6.2,25,8.1c3.2,1.6,18.9,6.8,29.8,8.8c2.2,0.5,4.5,0.7,6.8,0.8c9.5,0.1,33.1-23.9,34.1-24.9l1.9-1.9l-2.4,0.7
		C744.9,861.9,716,870.2,711.4,869.9z M711.4,886.5c-9.3,0-32.2-7.5-36.2-9.4c-2.1-1-14.8-6.6-22-8c-1.1-0.3-2.3-0.4-3.5-0.2
		c-2.5,0.4-7.5,0.8-11.6,1.1c10.7-3.1,21.3-6.1,32-9.2c2.6,0.8,36.9,10.2,41.5,10.4c4,0.3,24.4-5.3,31.5-7.4
		C737.1,869.6,719,886.5,711.4,886.5L711.4,886.5z"/>
	<path class="st9" d="M667.3,840.9c-3.1,7.5-22.2,26-23.7,26.2c0,0.2,0.1,0.4,0.1,0.7c0-0.2-0.1-0.4-0.1-0.7c0,0.2,0.1,0.4,0.1,0.7
		c0,0.2,0.1,0.4,0.1,0.7c1.9-0.2,21.2-19.4,24.3-26.8c3-7.2,7.6-36.4,7.8-37.6l-1-0.4C674.9,803.9,670.3,833.9,667.3,840.9z"/>
	<path class="st10" d="M766,687.1c2.9-0.3,5.8-0.7,8.7-1c-2.8-0.5-5.7-1-8.5-1.5c0,0,0.2-25.6-0.2-30.6c-0.5-5-7-18.5-7-18.5
		c1.2,5.1,2.4,10.2,3.6,15.3l-5.4-3.9c1,3,2.4,5.8,4.2,8.4c3,4.3,1.8,11.2,1.8,11.2l-5.4,1.5c2.5,0,4.9,1.2,6,3.2
		c1.8,3.4,0,16.4,0,16.4l-3.9-3.6l-4.5,1.5c0,0,5.4,0.8,6.6,4.9s-2.4,33.1-2.4,33.1s-1.2-3.3-3-7.5s-12.6-13.7-12.6-13.7
		c0,0,7.8,9.8,10.8,15.7s1.8,17.4,1.2,29.8c-0.6,12.4-10.8,34.1-10.8,34.1c-0.5-15.2-1-30.3-1.5-45.5c-0.8-22.7-1.5,43.4-1.5,51.2
		c0,7.8-16.6,36.5-24.8,45.7c-8.2,9.2-36.9,22.4-38,22.2c1.1-2.7,9.8-13.2,13.8-23.8c4.1-10.9,4.1-35.6,4.1-35.6s-2.6,15.6-5.6,29.2
		c-3,13.6-17.8,31.8-22,33.3c-4.2,1.5-95.3,23.5-103.7,26.1c-8.4,2.3-29.4,15-29.4,15l0,0c0,4.4,0,8.7,0,13.1
		c0-0.1,33.4-22.6,41.9-25.9c8.5-3.5,75.8-19.1,98.9-25.6c23.1-6.5,44.2-23.7,52-28.5c7.8-4.8,27.4-13,27.4-13s-12.6,0.4-18.6,3.1
		c-6,2.8-12,6.2-12,6.2s9.9-15.2,13.2-23.1c3.3-7.9,11.9-19.9,15.7-25.1c3.8-5.2,13.9-12.1,13.9-12.2s-6.5,1.1-8.7,2.2
		c-2.2,1.1-9,6.8-9,6.8s2.9-9.1,4.5-15c1.6-5.9,18.8-24.8,18.8-24.8c-4.9,4.5-9.7,9.1-14.6,13.6c-0.1-3.4,0.1-6.8,0.5-10.1
		c0.7-7.5,12.1-26.1,12.1-26.1l-9.9,11.3c0,0,1.4-14.1,1.8-17.2C765.1,706.2,766,687.1,766,687.1z"/>
	<path class="st9" d="M711.8,883.3c-4.1,0.2-12.6-3.5-20.2-6.9c-5.9-2.6-11.5-5.1-14.8-5.7c-7.6-1.4-33.2-3.6-33.5-3.6
		c0,0.4,0.1,0.9,0.1,1.3c0.3,0,25.8,2.2,33.4,3.6c3.2,0.6,8.8,3.1,14.6,5.6c6.6,2.9,13.5,5.9,18,6.7c0.8,0.2,1.7,0.2,2.5,0.2
		c7.3-0.3,30.5-20,31.5-20.9l-0.6-1.2C742.6,862.8,718.9,882.9,711.8,883.3z"/>
	<path class="st11" d="M712.4,777.5c-2.5-0.9-8.9,7.9-10.2,5.6l0,0c-1.3-2.3,1.3-10.5,1-13.8s-2.2-8.2-7.6-9.6s-6.3,3.8-6.3,8.7
		s6,12.6,4.1,16.8c-1.9,4.2-8.3-5.6-10.8-6.5c-2.5-0.9-4.1,5.4-4.1,11.2s1.6,8.5,5.7,9.3c4.1,0.8,9.2-4.5,10.2-2.6
		c1,1.8-3.5,6.8-3.8,9.6s-1.9,6.2,9.8,8.8c11.7,2.6,1.9-17.4,3.5-18.3c1.6-0.9,6.7,5.7,9.2,6.2s5.7-5.6,5.7-10.5
		C718.7,787.4,714.9,778.4,712.4,777.5z"/>
	<path d="M712.4,776.9c-1.5-0.5-3.6,1.3-5.8,3.3c-1.5,1.3-3.3,2.9-4,2.7c0,0,0,0-0.1,0l0,0c-0.6-1.1,0-4.5,0.4-7.3
		c0.4-2,0.6-4.1,0.6-6.2c-0.4-4.1-2.7-8.9-8.1-10.3c-2-0.5-3.7-0.2-4.8,1c-1.4,1.5-2.1,4.2-2.1,8.3c0,2.3,1.2,5.1,2.3,7.8
		c1.4,3.3,2.8,6.7,1.9,8.8c-0.2,0.5-0.5,0.7-0.8,0.8c-1.3,0.2-3.7-2.2-5.6-4.2c-1.6-1.6-2.9-3-3.9-3.3c-0.7-0.2-1.5,0-2,0.5
		c-1.9,1.8-2.7,7.1-2.7,11.2c0,6.2,1.9,9.3,6.2,10.1c2.3,0.4,4.8-0.9,6.8-1.9c1-0.5,2.6-1.4,2.9-1.1c0.3,0.6-1,3-1.8,4.2
		c-1,1.8-2,3.4-2.1,4.8c0,0.2-0.1,0.5-0.1,0.7c-0.3,1.4-0.2,2.8,0.4,4.1c1.2,2.1,4.4,3.7,10,4.9l0.4,0.1c2.5,0.4,4.2-0.1,5.1-1.6
		c1.8-3,0.3-8.8-0.9-13c-0.4-1.3-0.7-2.6-0.8-3.9c0.7-0.2,2.6,1.5,4,2.8c1.7,1.6,3.5,3.2,4.9,3.4c3,0.5,6.2-6.1,6.2-11.1
		C719.2,786.5,715,777.8,712.4,776.9z M713,802.1c-1.1-0.2-2.8-1.8-4.4-3.2c-2.2-1.9-4-3.6-5.1-3c-0.8,0.5-0.4,2.2,0.5,5.3
		c1.1,3.9,2.5,9.3,1,11.8c-0.8,1.3-2.4,1.7-4.7,1.2c-5.2-1.1-8.3-2.6-9.2-4.3c-0.4-0.9-0.5-2-0.2-3c0-0.2,0.1-0.5,0.1-0.7
		c0.1-1.1,1.1-2.8,2-4.3c1.3-2.3,2.5-4.4,1.7-5.8c-0.2-0.4-0.5-0.6-0.9-0.7c-0.8-0.1-1.9,0.4-3.3,1.2c-1.9,1-4.3,2.2-6.3,1.8
		c-3.8-0.7-5.2-3-5.2-8.5c0-4.6,1-9,2.4-10.3c0.3-0.3,0.7-0.5,1.2-0.3c0.8,0.3,2.1,1.7,3.5,3.1c2.3,2.3,4.6,4.8,6.4,4.5
		c0.7-0.2,1.3-0.7,1.5-1.3c1.2-2.7-0.4-6.4-1.9-10.1c-1.1-2.5-2.2-5.1-2.2-7.1c0-3.7,0.6-6.1,1.8-7.4c0.9-1,2.3-1.2,4-0.8
		c3.1,0.8,6.6,3.6,7.1,9c0,1.9-0.2,3.9-0.6,5.8c-0.6,3.5-1.1,6.8-0.2,8.4c0.1,0.3,0.4,0.5,0.7,0.7c1,0.3,2.5-0.8,4.7-2.8
		c1.8-1.5,4-3.5,5-3.1c2.1,0.7,5.9,9,5.9,14C718.2,796.7,715.2,802.5,713,802.1L713,802.1z"/>
	<path class="st10" d="M699,787.5c-4.1,7.5-19,20.8-17.4,21.9s16.2-13.5,18.7-16.3c2.5-2.8,13.5-30.7,12.4-33.2
		C711.6,757.4,703.2,780,699,787.5z"/>
	<path class="st10" d="M703.4,793.3c-6.3-6.5-23.8-32.8-24.4-30.9c-0.6,1.9,20.3,29.3,22.8,33.1c6.7,9.9,11.6,26.6,13.3,25.4
		C716.9,819.8,709.8,799.8,703.4,793.3z"/>
	<path class="st12" d="M698.7,781.7c-3.2-0.6-5.7,2.3-5.7,6.4s2.6,7.9,5.7,8.5c3.1,0.6,5.7-2.3,5.7-6.4S701.9,782.3,698.7,781.7z"/>
	<path class="st11" d="M777.2,811.6c-4-1.7-10,2.1-10.7,0.1c-0.7-2,4.6-5.6,5.4-8.2s2.9-5.5-8.5-10.8c-11.4-5.3-4.7,16.1-6.5,16.6
		c-1.8,0.5-5.8-7.2-8.3-8.2c-2.5-1.1-6.7,3.8-7.5,8.5s1.6,14.2,4,15.7c2.4,1.5,10.2-5.2,11.1-2.7l0,0c0.9,2.5-3,9.7-3.2,12.9
		c-0.2,3.3,0.9,8.4,6.1,11.1c5.2,2.7,7-2,7.8-6.7c0.8-4.7-4-13.5-1.4-17c2.6-3.5,7.4,7.4,9.8,8.8s5-4.2,6-9.7
		S781.2,813.3,777.2,811.6z"/>
	<path d="M777.3,811c-2.3-1-5-0.3-7.2,0.2c-1.1,0.3-2.8,0.7-3.1,0.3c-0.2-0.6,1.5-2.6,2.5-3.6c1.3-1.4,2.5-2.8,2.9-4.1
		c0.1-0.2,0.1-0.4,0.2-0.6c0.6-1.3,0.6-2.7,0.2-4c-0.8-2.3-3.8-4.5-9.3-7.1c-2.6-1.2-4.6-1.2-5.8,0.1c-2.3,2.4-1.7,8.3-1.3,12.6
		c0.2,1.3,0.3,2.6,0.2,3.9c-0.7,0-2.4-2.1-3.6-3.7c-1.5-1.9-3-4-4.3-4.5c-2.9-1.3-7.2,4.1-8.1,8.9c-0.9,5.5,1.9,15,4.3,16.5
		c1.4,0.8,3.8-0.3,6.4-1.6c1.7-0.8,3.8-1.9,4.4-1.5c0,0,0,0,0,0c0.4,1.2-0.7,4.3-1.6,6.8c-0.8,1.9-1.3,3.8-1.6,5.8
		c-0.3,4,1.3,9.2,6.5,11.8c0.7,0.4,1.4,0.7,2.2,0.8c1,0.2,2,0,2.8-0.5c1.7-1,2.8-3.5,3.5-7.4c0.4-2.2-0.4-5.1-1.1-8
		c-0.9-3.5-1.8-7.1-0.5-8.8c0.3-0.4,0.6-0.6,1-0.5l0,0c1.4,0.2,3.3,3,4.9,5.3c1.3,1.9,2.4,3.5,3.4,4.1c0.6,0.4,1.5,0.4,2.1,0
		c2.2-1.3,3.9-6.1,4.6-10.1c0.5-3,0.4-5.2-0.3-7C780.7,813.2,779.2,811.8,777.3,811z M780.9,821.6c-0.8,4.4-2.5,8.3-4.1,9.3
		c-0.4,0.3-0.9,0.3-1.2,0c-0.7-0.4-1.9-2.1-3-3.7c-1.9-2.8-3.9-5.7-5.7-5.8c-0.7,0-1.4,0.3-1.7,0.9c-1.7,2.3-0.7,6.2,0.3,10.1
		c0.7,2.7,1.3,5.4,1,7.3c-0.6,3.6-1.6,5.7-3,6.6c-1.1,0.7-2.5,0.6-4.2-0.3c-3-1.6-6.1-5.1-5.7-10.3c0.3-1.8,0.8-3.6,1.6-5.4
		c1.1-3.2,2.2-6.2,1.6-7.9c-0.1-0.3-0.3-0.6-0.6-0.8c-0.2-0.1-0.3-0.1-0.5-0.2c-1-0.2-2.5,0.6-4.7,1.6c-2,1-4.6,2.3-5.6,1.7
		c-2-1.2-4.5-10.2-3.7-14.8c0.7-4.3,4.7-9,6.8-8.1c1,0.5,2.5,2.4,3.9,4.1c1.8,2.4,3.4,4.5,4.7,4.1c0.9-0.3,0.7-2,0.4-5.2
		c-0.4-4-1-9.5,0.9-11.5c1-1,2.6-1,4.9,0.1c5,2.4,7.9,4.5,8.6,6.3c0.3,1,0.2,2-0.3,2.9c-0.1,0.2-0.2,0.4-0.2,0.7
		c-0.3,1-1.6,2.4-2.7,3.6c-1.7,1.9-3.2,3.5-2.7,5.1c0.5,1.5,2.1,1.1,4.3,0.6c2.1-0.5,4.7-1.1,6.7-0.3c1.7,0.6,3,1.8,3.6,3.3
		C781.3,817,781.4,818.9,780.9,821.6L780.9,821.6z"/>
	<path class="st10" d="M781.4,802.4c-1.4-1.4-18.5,9-21.5,11c-3,2-18.6,25.8-17.8,28.4c0.7,2.6,12.8-16.6,18.2-22.8
		C765.6,813,782.8,803.9,781.4,802.4z"/>
	<path class="st10" d="M749.4,783.2c-1.9,0.6,2,21.5,7.3,29.3c5.3,7.8,18.6,37.1,19.6,35.4s-15.7-32.8-17.6-37.1
		C753.6,799.8,751.4,782.6,749.4,783.2z"/>
	<path class="st12" d="M762,810.7c-3.1-1.3-6.1,0.7-6.8,4.6c-0.7,3.9,1.3,8.2,4.4,9.5c3.1,1.3,6.1-0.8,6.8-4.7
		C767.1,816.2,765.1,812,762,810.7z"/>
	<path class="st11" d="M753.8,738.4c-3.8-2.6-10.3-0.5-10.7-2.6s5.4-4.2,6.6-6.6c1.2-2.3,3.7-4.5-7-12.5c-10.7-7.9-7,14.2-8.8,14.3
		c-1.8,0.1-4.8-8.3-7.2-10s-7.2,2-8.7,6.3c-1.5,4.3-0.4,14,1.9,16c2.2,2,11-2.4,11.6,0.2l0,0c0.6,2.6-4.3,8.5-5,11.6
		c-1,4.5,0.8,9.1,4.6,12.2c4.9,3.9,7.3-0.2,8.8-4.5c1.5-4.3-2.2-14,0.9-16.7c3.1-2.7,6.4,8.9,8.6,10.9s5.6-2.8,7.3-7.8
		S757.7,741.1,753.8,738.4z"/>
	<path d="M754,737.8c-2.1-1.5-5-1.5-7.3-1.6c-1.2,0-2.9-0.1-3.2-0.5c-0.1-0.7,1.9-2.1,3-2.8c1.5-1.1,2.9-2.1,3.5-3.2
		c0.1-0.2,0.2-0.4,0.3-0.6c0.8-1.1,1-2.5,0.8-3.8c-0.5-2.4-3.2-5.3-8.3-9.1c-2.4-1.8-4.4-2.3-5.9-1.4c-2.7,1.7-2.9,7.5-3,11.8
		c0,1.3-0.1,2.5-0.3,3.8c-0.7-0.2-2.1-2.6-3.1-4.5c-1.2-2.2-2.5-4.6-3.7-5.4c-2.8-2-7.9,2.2-9.3,6.6c-1.7,5.1-0.2,14.8,2.1,16.9
		c1.3,1.2,3.9,0.6,6.6,0c1.8-0.4,4.1-0.9,4.7-0.4c0,0,0,0,0,0.1c0.3,1.2-1.3,3.9-2.6,6.1c-1,1.6-1.9,3.3-2.4,5.1
		c-1,4.8,0.8,9.7,4.9,13c0.9,0.8,2,1.3,3.2,1.6c0.6,0.1,1.2,0.1,1.8-0.1c1.8-0.6,3.3-2.6,4.5-6.2c0.7-2,0.4-5,0-7.9
		c-0.4-3.6-0.8-7.2,0.7-8.6c0.2-0.3,0.7-0.4,1-0.2c1.3,0.5,2.9,3.7,4.2,6.4c1.1,2.2,2,4,2.8,4.8c0.5,0.5,1.3,0.7,2.1,0.5
		c2.4-0.7,4.7-4.9,6-8.5c0.9-2.8,1.1-4.9,0.6-6.8C757.3,740.8,755.9,739,754,737.8z M756.2,748.9c-1.4,4.1-3.6,7.4-5.4,7.9
		c-0.4,0.2-0.9,0-1.3-0.3c-0.7-0.6-1.6-2.5-2.5-4.3c-1.5-3.2-3.1-6.4-4.9-7c-0.6-0.2-1.4-0.1-1.8,0.4c-2,1.8-1.5,5.8-1.1,9.7
		c0.3,2.7,0.6,5.5,0,7.2c-1.1,3.3-2.4,5.1-3.9,5.6c-1.2,0.4-2.6,0-4.2-1.3c-3.6-2.9-5.2-7.2-4.3-11.4c0.6-1.7,1.3-3.2,2.3-4.7
		c1.6-2.8,3.1-5.4,2.7-7.2c-0.1-0.4-0.2-0.7-0.5-0.9c-0.9-0.8-2.7-0.5-5.5,0.1c-2.2,0.5-4.9,1-5.8,0.2c-1.8-1.7-3.1-10.9-1.6-15.2
		c1.3-4,6-7.5,8-6.1c1,0.7,2.2,3,3.3,4.9c1.5,2.8,2.9,5.2,4.1,5.1c0.9,0,1-1.8,1.1-4.9c0.1-4,0.3-9.4,2.5-10.8
		c1.1-0.7,2.8-0.3,4.9,1.3c4.7,3.5,7.3,6.3,7.8,8.2c0.1,0.9-0.1,1.9-0.7,2.7l-0.3,0.6c-0.4,0.9-1.9,1.9-3.2,2.8
		c-2,1.4-3.7,2.6-3.4,4.2c0.3,1.6,2,1.6,4.3,1.6c2.3,0,4.9,0.1,6.8,1.4c1.6,1,2.7,2.4,3.2,4.1C757.3,744.6,757,746.5,756.2,748.9z"
		/>
	<path class="st10" d="M736.2,735.9c-3.3,1.3-22.2,20.1-21.9,22.8s15.2-12.8,21.5-17.3c6.2-4.5,24.8-9,23.5-10.8
		C758.1,728.9,739.5,734.7,736.2,735.9z"/>
	<path class="st10" d="M729.9,704.2c-2,0.1-1,21.2,3.3,30s13.6,40.3,14.8,38.9c1.2-1.4-11.2-35.5-12.6-40
		C731.8,721.1,731.9,704.1,729.9,704.2z"/>
	<path class="st12" d="M738.8,733.7c-2.9-2-6.3-0.8-7.5,2.8c-1.2,3.6,0.2,8.2,3.1,10.2c2.9,2.1,6.3,0.8,7.5-2.8
		C743,740.3,741.7,735.7,738.8,733.7z"/>
	<path class="st11" d="M785.6,768.6c0-2.9,3.8-2,3.8-4.4s-5.1-3.1-10.5-3.5c-5.4-0.4-16.2,10.4-16.2,10.4c2.9-0.8,14.9,7.2,17.8,8.8
		c2.9,1.6,10.8-3.5,10.8-6.4S785.6,771.5,785.6,768.6z"/>
	<path d="M788.6,770.4c-1.4-0.5-2.4-0.9-2.4-1.7c0-1,0.6-1.4,1.7-1.8c1.1-0.5,2.1-1,2.1-2.6c0-0.5-0.2-1.1-0.5-1.5
		c-1.1-1.5-4.2-2.3-10.5-2.7c-5.5-0.3-16,10.1-16.5,10.5l-1.9,1.9l2.4-0.7c2.2-0.6,11.4,5,15.3,7.4c0.9,0.6,1.6,1,2.1,1.3
		c0.3,0.2,0.7,0.3,1,0.3c2.1,0.3,5.3-1.2,7.6-3c1.3-1,2.9-2.6,2.9-4.2C791.9,771.6,790.1,770.9,788.6,770.4z M788.4,776.6
		c-2.8,2.3-6.3,3.4-7.7,2.6c-0.5-0.3-1.2-0.7-2.1-1.3c-5.3-3.3-11.1-6.7-14.3-7.5c2.9-2.7,10.6-9.4,14.7-9.2
		c2.3,0.2,8.5,0.5,9.8,2.2c0.1,0.1,0.2,0.3,0.2,0.5c0,0.7-0.6,1-1.5,1.4c-0.9,0.4-2.3,1.1-2.3,3s1.7,2.6,3.3,3.2s2.4,0.9,2.4,1.7
		C790.8,774,790.2,775.2,788.4,776.6L788.4,776.6z"/>
	<path class="st11" d="M783.1,734.5c-2.9-0.4-10.2,7.2-10.2,7.2l0,0c0,0,6.3,3,9.5,3.4c3.2,0.4,6.3-2.4,6.3-4.9
		C788.8,737.7,786,734.9,783.1,734.5z"/>
	<path d="M783.1,733.9c-3-0.4-9.7,6.6-10.5,7.3l-0.7,0.7l0.9,0.4c0.3,0.1,6.4,3,9.6,3.4c3.5,0.5,6.9-2.7,6.9-5.5
		C789.3,737.5,786.2,734.3,783.1,733.9z M782.5,744.5c-2.3-0.3-6.6-2.1-8.4-2.9c2.4-2.4,7.1-6.6,9.1-6.4c2.5,0.4,5.2,2.9,5.2,5
		C788.3,742.8,784.7,744.8,782.5,744.5L782.5,744.5z"/>
	<path class="st11" d="M779.3,713c-4.1-0.6-9.2,3.2-9.5,6.5c0,0,2.9-1.6,5.1-1.3s4.4,4.8,7,5.1c2.5,0.4,4.8-2.2,4.4-4.7
		C786,715.9,783.4,713.5,779.3,713z"/>
	<path d="M779.3,712.3c-4.2-0.6-9.6,3.2-10,7c0,0.4-0.1,0.9-0.1,1.3l0.9-0.5c0,0,2.8-1.6,4.8-1.3c0.9,0.1,1.9,1.2,3,2.3
		c1.3,1.3,2.5,2.6,4,2.8c1.6,0.1,3.2-0.6,4-1.9c0.7-1.1,1.1-2.3,0.9-3.6C786.4,715.3,783.4,712.9,779.3,712.3z M785.1,721
		c-0.6,1-1.9,1.6-3.2,1.5c-1.2-0.2-2.3-1.4-3.4-2.5c-1.1-1.2-2.3-2.4-3.5-2.6c-1.4-0.1-2.9,0.2-4.1,0.8c1.3-2.5,5.2-5.1,8.6-4.6
		c4.1,0.6,6.2,2.9,6.5,4.9C785.9,719.4,785.6,720.3,785.1,721z"/>
	<path class="st11" d="M742.5,699.1c-4.1-1.1-6,2.3-6,4.4s3.2,5.5,5.7,5.9c2.5,0.4,3.8-1.8,8.3-0.3l0,0
		C750.4,709,746.6,700.2,742.5,699.1z"/>
	<path d="M742.5,698.5c-1.8-0.6-3.8-0.1-5,1.2c-1,1-1.5,2.4-1.5,3.7c0,2.5,3.4,6.2,6.2,6.6c1,0.1,1.9,0,2.8-0.4
		c1.7-0.7,3.6-0.7,5.3,0l1.1,0.4c-0.2-0.4-0.4-0.9-0.5-1.3C750.7,708.3,746.9,699.6,742.5,698.5z M744.7,708.3
		c-0.8,0.3-1.6,0.4-2.5,0.3c-2.4-0.4-5.2-3.6-5.2-5.1c0-1,0.5-2,1.2-2.8c0.9-1,2.3-1.4,3.7-1.1c0.2,0,0.4,0.1,0.6,0.1
		c2.9,0.8,5.8,5.9,6.9,8.3C747.8,707.7,746.2,707.8,744.7,708.3z"/>
	<path class="st11" d="M754.6,681.3c-2.5-0.4-3.2,4-3.5,7.3c-0.3,3.3,1.3,6,2.5,6.2s2.2-3.4,2.2-6.7c0-3.3,3.8-2.3,3.8-2.3
		C758.7,683.6,757.1,681.7,754.6,681.3z"/>
	<path d="M754.6,680.6c-3.2-0.5-3.8,5.3-4,7.8c-0.2,1.9,0.2,3.7,1.1,5.4c0.4,0.8,1.1,1.3,1.9,1.6c1.9,0.3,2.7-4.1,2.7-7.2
		c0-0.5,0.1-0.9,0.4-1.3c0.7-0.8,2.3-0.6,2.8-0.4l1,0.3l-0.5-1.2C758.9,682.7,757,681,754.6,680.6z M756.1,685.8
		c-0.5,0.6-0.8,1.4-0.8,2.2c0,3.3-1,6.2-1.7,6.1c-0.4-0.1-0.8-0.4-1.2-1c-0.7-1.3-1.1-2.8-0.9-4.3c0.3-3.3,1-7.1,3-6.8
		c1.8,0.4,3.4,1.5,4.1,3C757.7,684.9,756.7,685.2,756.1,685.8z"/>
	<path class="st11" d="M770.1,684.9c0,0,0,2.1,0.3,4.6c0.3,2.5,4.5,6.8,4.5,6.8s1.9-1,1.6-4.3S772,685.6,770.1,684.9z"/>
	<path d="M770.2,684.3l-0.6-0.2v0.8c0,0.1,0,2.1,0.3,4.7c0.3,2.7,4.2,6.8,4.7,7.3c0.1,0.1,0.2,0.2,0.3,0.3l0.3-0.1
		c0.1,0,2.2-1.2,1.9-4.9C776.6,688.2,772,684.9,770.2,684.3z M774.9,695.5c-1.5-1.7-3.8-4.5-3.9-6.1c-0.2-1.5-0.3-2.8-0.3-3.6
		c2,1,5.1,3.7,5.3,6.2C776.1,694.1,775.3,695.1,774.9,695.5z"/>
	<path class="st11" d="M765.7,660.3c0,0,0.3,4.2,2.9,6.2c2.5,2,1,5.1,2.5,4.9c1.6-0.2,2.5-2.9,1-6
		C770.4,662.3,766.9,660.5,765.7,660.3z"/>
	<path d="M765.7,659.7l-0.6-0.1l0.1,0.7c0,0.2,0.4,4.6,3.1,6.8c0.9,0.8,1.4,1.9,1.4,3c0,0.6,0.2,1.2,0.5,1.7
		c0.1,0.2,0.4,0.3,0.6,0.3c0.1,0,0.2,0,0.4,0c0.9-0.1,1.6-0.8,2-1.9c0.4-1.7,0.2-3.5-0.7-5.1C770.7,661.7,767.1,659.9,765.7,659.7z
		 M772.2,669.5c-0.2,0.7-0.7,1.2-1.2,1.2h-0.2c-0.1-0.2-0.1-0.5-0.1-0.7c0-1.5-0.7-3-1.9-4.1c-1.6-1.3-2.2-3.6-2.4-4.8
		c2.3,0.9,4.2,2.5,5.3,4.5C772.3,666.9,772.5,668.2,772.2,669.5z"/>
	<path class="st11" d="M761.9,665.1c-1.6-0.2-5.4-1.7-7.3,0.5s-0.6,8.5,1,9.2s2.5-1.7,3.8-4.4s4.8-0.1,4.8-0.1l0,0
		C764.1,670.4,763.4,665.3,761.9,665.1z"/>
	<path d="M761.9,664.4c-0.3,0-0.6-0.1-1-0.2c-2-0.4-4.9-1.1-6.7,0.9c-1.4,1.5-1.3,4.6-0.8,6.8c0.4,1.9,1.2,3.2,2,3.6
		c0.1,0.1,0.3,0.1,0.5,0.1c1.6,0.2,2.5-1.8,3.6-4.2l0.3-0.5c1-2.2,4.1,0.1,4.1,0.1l0.9,0.6c-0.1-0.4-0.1-0.8-0.2-1.3
		C764.5,669.4,763.8,664.7,761.9,664.4z M758.9,670c-0.1,0.2-0.2,0.4-0.3,0.5c-1.2,2.5-1.9,4-3,3.6c-0.3-0.1-0.9-1-1.2-2.5
		c-0.4-1.9-0.4-4.4,0.5-5.5s2.7-1.2,4.2-0.9c0.6,0.1,1.2,0.2,1.7,0.3c0.5,0.1,0.7,0.2,1,0.2c0.6,0.1,1.2,1.9,1.5,3.5
		C762.1,668.6,759.9,667.9,758.9,670L758.9,670z"/>
	<path class="st11" d="M756.1,627.2c-2.9-2.1-5.1-0.4-5.1,2.1s1.3,5.6,3.8,6l5.1,0.8l0,0C760,636,759,629.3,756.1,627.2z"/>
	<path d="M756.4,626.6c-1.6-1.2-3.2-1.4-4.3-0.5c-1,0.8-1.5,1.9-1.5,3.1c0,2.9,1.5,6.3,4.3,6.7l5.7,0.9c0-0.3-0.1-0.5-0.1-0.8
		C760.4,635.7,759.4,628.8,756.4,626.6z M754.9,634.5c-2.1-0.3-3.3-2.9-3.3-5.2c0-0.8,0.3-1.6,1-2.1c0.4-0.3,1-0.4,1.6-0.3
		c0.7,0.1,1.3,0.4,1.8,0.8c2,1.5,3,5.7,3.4,7.5L754.9,634.5z"/>
	<path class="st11" d="M755.5,644.4c-2.2-0.8-3.2,1.6-3.2,3.6s0,3.7,2.9,3.7c1.4,0.1,2.8-0.1,4.1-0.6
		C757.4,649.6,757.7,645.1,755.5,644.4z"/>
	<path d="M758.1,647.6c-0.5-1.6-1-3.4-2.5-3.9c-0.9-0.4-1.9-0.2-2.5,0.5c-0.9,1.1-1.3,2.4-1.2,3.7c0,1.3,0,2.5,0.7,3.4
		c0.4,0.6,1.1,0.9,1.9,1c0.3,0,0.6,0.1,0.9,0.1c1.5,0.1,2.9-0.1,4.3-0.6l0.9-0.4l-0.9-0.7C758.8,650,758.5,648.8,758.1,647.6z
		 M755.1,651.1c-0.7,0.1-1.4-0.2-1.9-0.6c-0.3-0.8-0.5-1.6-0.4-2.4c-0.1-1,0.3-2,0.9-2.8c0.3-0.3,0.8-0.5,1.3-0.4
		c0.1,0,0.3,0.1,0.4,0.1c0.8,0.3,1.2,1.3,1.7,3c0.2,1,0.6,1.9,1.1,2.8C757.2,651,756.2,651.1,755.1,651.1z"/>
	<path class="st11" d="M757.7,639.4c1,2.6,4.4,3.2,5.7,6.6l0,0c0,0,0-5.8-1.3-8.4S756.8,636.7,757.7,639.4z"/>
	<path d="M758.5,636c-1.3,0.8-1.8,2.2-1.2,3.5c0.5,1.3,1.5,2.3,2.7,3.1c1.4,0.9,2.4,2.1,3,3.5l1,2.7v-2.8c0-0.2,0-6-1.4-8.8
		c-0.4-1.2-1.9-1.9-3.3-1.6C759,635.8,758.7,635.9,758.5,636z M760.4,641.6c-1-0.6-1.8-1.5-2.3-2.5c-0.2-0.7,0.1-1.5,0.8-1.8
		c0.4-0.3,1-0.4,1.5-0.3c0.6,0.1,1,0.4,1.2,0.9c0.7,1.9,1.1,4,1.1,6C762.2,643,761.4,642.2,760.4,641.6z"/>
	<path class="st2" d="M580.8,898c-4.7-0.3-17.6-3.8-19.7-5.3l-7.7,5.3c0,0,16.3,3,21,4.4s17.6,10,24,10.7c6.4,0.7,14.1-0.6,17.1-2.3
		c3-1.6,11.1-1.2,11.1-1.2s-13.2-9.8-20.9-11.8C598,895.7,585.5,898.3,580.8,898z"/>
	<path class="st9" d="M605.7,897.1c-5.1-1.3-12.1-0.7-17.8-0.2c-2.4,0.3-4.7,0.4-7.1,0.4c-4.8-0.3-17.6-3.9-19.5-5.2l-0.3-0.2
		l-9.3,6.4l1.7,0.3c0.2,0,16.3,3,20.9,4.4c1.8,0.5,4.7,2.1,8.1,3.9c5.2,2.8,11,5.9,15.1,6.6c0.3,0.1,0.6,0.1,0.9,0.1
		c6.6,0.7,14.3-0.6,17.4-2.3c2.9-1.6,10.9-1.1,10.9-1.1l2,0.1c-0.6-0.5-1.2-0.9-1.8-1.4S613.4,899.1,605.7,897.1z M615.3,910.1
		c-2.9,1.6-10.6,2.9-16.9,2.2c-3.9-0.4-10.4-3.9-15.7-6.7c-3.4-1.8-6.4-3.4-8.3-4c-3.8-1.2-15-3.3-19.3-4.1l6.1-4.2
		c2.9,1.6,15,4.9,19.7,5.2c2.4,0,4.9-0.1,7.3-0.4c5.6-0.5,12.5-1.2,17.5,0.1c5.8,1.6,15.1,7.7,19,10.5
		C622,908.8,617.4,908.9,615.3,910.1L615.3,910.1z"/>
	<path d="M649.1,505.9c-4.8-7.4-11.4-12.4-19.1-14.3H630l-2.6-0.3h-0.1c-17.9,0.1-24.7,17.2-23.5,33.1c1.2,15.3,10.1,32.7,26.9,36
		c0.6,0.1,1.3,0.2,2,0.3h0.1c7.7,0,14-3.3,18.2-9.6c3.8-5.6,5.7-13.4,5.3-21.8C656,521.1,653.6,513.1,649.1,505.9z M632.4,556.9
		c-11.4-1.4-24.3-12.2-25.9-32.4c-0.6-7.8,0.9-15.1,4.2-20.4c3.7-6,9.5-9.1,16.8-9.2l2.4,0.3c15.4,3.9,22.9,19.7,23.5,33.6
		C654,542.8,647.7,556.9,632.4,556.9L632.4,556.9z"/>
</g>
</svg>
