<svg xmlns="http://www.w3.org/2000/svg" viewBox="0 0 1260 1012.04">
  <g>
    <path d="M0,90.08v920C420,738.76,840,1193.28,1260,922V2C840,273.28,420-181.24,0,90.08Z" style="fill: red"/>
    <path d="M315,0V920c210,.44,420,91.61,630,92V92C735,91.61,525,.44,315,0Z" style="fill: #fff"/>
    <path d="M757.88,689.5c39.4-39.55,78.81-80.4,118.21-123.74q-12.24-9.45-24.47-19.22c-10.77-6.85-7.76-15.34-3.9-36.19q9-46.85,18-93.85c-22.89,4.81-45.79,8.81-68.68,12.23-6.7.43-11.17-6.54-12.19-12.63q-4.41-23.27-8.82-46.57-27.15,39.74-54.3,78.64c-7.73,12.67-23.38,9.44-18.5-22.41q11.6-87.51,23.2-175.12-15.57,8.69-31.12,17.19c-8.74,5.28-17.48,4.6-22.36-9.17q-21.5-63.14-43-126.39Q608.49,186.12,587,240c-4.88,11.68-13.62,8.64-22.36-.29q-15.55-15-31.11-29.87,11.6,92.2,23.19,184.51c4.87,33.86-10.77,30.62-18.5,14.89q-27.15-49.81-54.3-98.93l-8.82,43.6c-1,5.76-5.49,11.23-12.19,8.69C440,352,417.13,341.93,394.24,332.68q9,48.76,18,97.68c3.86,21.76,6.87,30.91-3.9,35.31q-12.24,7-24.47,14.38c39.4,50.13,78.81,102.77,118.21,156.7,4.68,6.16,7,16.15,5.38,24.47l-10.35,47.7c40.71.49,77.18-2,117.9.51,3.59.22,9.61,10.19,9.59,16.27q-2.7,90.24-5.39,180.48L639,910.49l-3.12-181.94c0-6.09,5.44-13.95,9-12.61,40.72,15.2,77.2,33.33,117.9,47.52Q757.68,737.75,752.5,712C750.84,703,753.2,694,757.88,689.5Z" style="fill: red"/>
  </g>
</svg>
