<svg xmlns="http://www.w3.org/2000/svg" viewBox="0 0 1260 1012.04">
  <g>
    <path d="M0,90.08v920C420,738.76,840,1193.28,1260,922V2C840,273.28,420-181.24,0,90.08Z" style="fill: green"/>
    <path d="M630,314.36C557.51,298.16,498.75,373,498.75,479c0,105.66,58.76,202.45,131.25,218.65S761.25,639.05,761.25,533C761.25,427.34,702.49,330.55,630,314.36Z" style="fill: #ffe000"/>
    <path d="M670.92,357.18c-59.64-13-108,47.21-108,134.43,0,87,48.36,168,108,181s108-49.31,108-136.5C778.92,449.09,730.57,370.21,670.92,357.18Z" style="fill: green"/>
    <path d="M216.25,74.72c-75.94,11-137.5,130.15-137.5,241,0,111,61.56,171.63,137.5,160.62,75.94-11.58,137.5-95.5,137.5-206.91C353.75,159,292.19,63.14,216.25,74.72Z" style="fill: #ffe000"/>
    <path d="M240.71,354.58c2.58-40,3.82-102.36,3.82-102.36l-5,.54a309.45,309.45,0,0,1-1.91,44.79c-2.86,25.55-3.72,27.88-6.86,47.64s-3.63,21.51-6.49,33.18-3.15,12.28-7.63,23.41-2.86,7-5.34,13.66c-1.24,3.33-2.76,2.75-3.6,5.18s-1,7.84-1,7.84h0q17.18-2.94,34.34-4.84s1.55-4.77-.35-6.86-9.28-1.7-7.28-10.07C237.57,389.47,238.14,394.57,240.71,354.58Z" style="fill: #802000"/>
    <path d="M238.12,253.08a309.28,309.28,0,0,1-1.9,44.29c-2.14,19.12-3.16,25.23-4.85,35.36-.57,3.39-1.21,7.23-2,12.15-3,19.08-3.58,21.29-6.19,31.95l-.25,1c-2.74,11.2-3,11.82-7.18,22.24q-1.22,3-2.42,6c-1.44,3.57-1.44,3.57-2.22,5.68l-1,2.82a4.38,4.38,0,0,1-1.48,2.11,6.8,6.8,0,0,0-2.15,3.14c-1,3-1.15,8.83-1.15,8.88v2.13q18.36-3.19,36.7-5.19c.14-.41.27-.82.4-1.23.77-2.35,1.48-7-.72-9.4a7.79,7.79,0,0,0-2.9-1.7c-3.68-1.54-4.76-2.62-3.94-6.08.78-3.29,1.44-5.76,2-7.88,2.42-9.11,3.23-12.17,5.33-44.74C244.72,315,246,252.76,246,252.13l0-2.19q-4,.41-8,.88Zm3,1.64,1.92-.21c-.25,11.42-1.5,64.78-3.77,100-2.06,32-2.83,34.88-5.13,43.55-.57,2.17-1.24,4.69-2,8-1.94,8.16,3,10.17,5.69,11.29a7.1,7.1,0,0,1,2,1.08c.57.63.45,2.05.25,3.09q-15.85,1.8-31.73,4.46a23.22,23.22,0,0,1,.69-4.66,2.33,2.33,0,0,1,.87-1.11,8.69,8.69,0,0,0,2.7-4l1.05-2.84c.76-2,.76-2,2.15-5.5l2.43-6c4.17-10.34,4.6-11.41,7.45-23l.24-1c2.67-10.85,3.22-13.11,6.3-32.43.78-4.9,1.42-8.72,2-12.1,1.71-10.22,2.74-16.39,4.9-35.67A321.64,321.64,0,0,0,241.11,254.72Z" style="fill: #7b3100"/>
    <path d="M314.27,247c-2.2-4.18,2.94-11.33-3.38-11,.21-7-1.69-13.51-7-15.88-5.27-6.51-20.74,10.15-20.29-4.52-1.56-7.94,6.28-1.33,8.47-5.37,2.27-8.52-10.79-7.22-6.48-13.91,2.81-2.79,16-7,5.66-9.48-5.16,2.23-9.6.89-13.67-2.63-3.7,9.22-14.29-4-12.4,11.95-1.45,6.15-10.91,22.67-13.47,10.86,2.17-9.7,13.38-13.68,9.91-26.16-.54-7.93-5.06,1.78-7.19,1.39-1.08-4.87,3.26-11.1,6.29-12.51,6,6.29,6.19-9,11.9-8.09,4.17-1.6-1.35-3.89-2.51-5,1.14-4.53,7.54-7.18,1.27-10.68-5.54-5.66-9.65,6.63-14.21,7.65-4.39-6.86,4-11,6.28-15,.13-2.85-4.87-.48-3.37-3.07,1.31-3.53,10.16-4.41,6-9.23-6.25-2.7-14.31-1.22-20.3,3.46-3.78,2.18-4.89,14.77-8.14,14.63-1.53-5.36.5-16.57-4.74-17.53h0c.29,7.76-.25,18.13-2.46,26.8-2.24,9.64-4.68,19.29-4.56,29-3.56,2.26-7.23-10.23-10.66-2,2.58,10.18,8.53,17.69,12.61,26.69.69,2.86,6.55,9.83,3.16,12.06-8.57-3.15-10.65-18.67-16-27.49-6.17-15.24-17.68-24.76-30.5-22.8-4.82,1.13-20.47,3-16.4,14.07,6,4.47,13.39,6.68,19.32,12.14,4.41-.34,12.41,8.91,11.94,13.08-7.76-3.13-11.39-7.9-19.76-10.89-11.33-3.93-27,4.11-33.28,22.42-1.17,4.62-2.89,17.59.78,17.71,4.3-11,10.45-23.74,19.56-23.08,7.16-1-8,21.47-2.19,16.26,1.83-1.65,6.07-6.76,9-7.87s4.58,1.72,6.81,1.67c4.46-.09,5.69,2.39,5.28,4.07-.49,2-1.91.66-6.44,3.77-2.27,1.57-3.45,4.75-6.1,6.7s-8.15,3.4-10.2,2.76c-7.2-2.76-19,1.44-21.23,15.31,0,5.79-3.53.43-5.16,3.45-1.22,6.71-1.54,13.25-7.95,14.78-3.9,7.25-7.89,14.78-12.83,20.79,2.9,8.64,14.4-14.73,13.86-6.29-5,11.66,2.59,11.24,5.92,2.51,5.63-10.47,12.62-23.15,21-16.66,4,4.43,6.33-4.58,9.23-4.86,1.82,6.38,4.12-.69,6.2-3.11,3.39-1.42,2.43,5.6,6.47.49,8-9.6,17.92-5.05,25.77-14,8.36-7,1.17,4.27-1.13,8.61C199.43,274,202.61,287,194.65,295c-3.2,13,3.78,28-3.34,38.56-1,5.94,9.15,3.29,12,5.18,5-.59-.21-16.72,4.76-19.86,6.67,4.91,6.35-11.81,5-16.78.64-11.89,1.1-24.86,5.11-36.14,4.26-13.72,8.21,4.14,3.44,10-2.71,12.42-6.66,28.07-.5,38.34,1.78.32,3.24,6.4,5.54,8s5.44-1.21,6-7c3-17.59,1.47-35.94,5.68-53.19,3-5.54,7.07-1.62,8.92,3,5.9,9.42,10.05,21.56,17.2,29.28a34.94,34.94,0,0,1,15.26,20c0,7.5,14.68,8.1,10.28-.11-4.22-8-1.43-16.3,2.84-21.86,2.29.76,1.62-5.21-.18-2.79-2.87-.9-3.06-8.58.94-5.05,6.73,3-.53-7.11-3-7.34-5.69-5-12.23-10.57-15-19.37,7.4-.3,15.09,5.24,22.66,1.46,6.07-4.68,12.22.22,14.34,8,4.69-1.09,2.69-8,0-10.25C316.05,255.08,318.42,250.8,314.27,247Zm-54,9.26c.2-4.24-6.89-3.23-2.49-7.27a13.69,13.69,0,0,1,4.67-3.28C267.25,244.19,262.59,256.26,260.31,256.27Z" style="fill: green"/>
    <path d="M964.5,852q7.85-17.43,15.68-35.05-13.24,8-26.5,15.43Q949.35,812.71,945,793q-4.34,19.69-8.68,39.34-13.25-7.51-26.5-15.48,7.84,17.61,15.68,35.06Q913.32,862.14,901.13,872q14.11,2.61,28.23,4.74-1.93,20.46-3.88,40.9,9.75-14.73,19.52-29.7,9.76,15,19.52,29.77-1.93-20.45-3.88-40.91,14.11-2.07,28.23-4.74Q976.69,862.25,964.5,852Z" style="fill: #ffe000"/>
    <path d="M807,476.6q7.85-16.05,15.68-32.22-13.24,5.52-26.5,10.74-4.33-20.39-8.68-40.8-4.34,19-8.68,37.95-13.25-9.57-26.5-19.37,7.84,18.69,15.68,37.31-12.18,8.42-24.37,16.65,14.11,4.49,28.23,8.74-1.93,20.16-3.88,40.32,9.75-13.29,19.52-26.68,9.76,16.6,19.52,33.07-1.93-20.79-3.88-41.58,14.11.36,28.23.41Q819.19,489,807,476.6Z" style="fill: #ffe000"/>
    <path d="M964.5,238.65q7.85-17.43,15.68-35.05-13.24,8-26.5,15.43-4.33-19.67-8.68-39.37-4.34,19.69-8.68,39.33-13.25-7.52-26.5-15.48,7.84,17.61,15.68,35.07-12.18,10.21-24.37,20.07,14.11,2.61,28.23,4.74-1.93,20.44-3.88,40.9,9.75-14.73,19.52-29.71,9.76,15,19.52,29.78-1.93-20.46-3.88-40.91,14.11-2.08,28.23-4.74Q976.69,248.9,964.5,238.65Z" style="fill: #ffe000"/>
    <path d="M1104.5,406.65q7.85-19.36,15.68-39-13.25,11.37-26.5,22-4.34-18.62-8.68-37.31-4.34,20.72-8.68,41.35-13.24-4.47-26.5-9.62,7.85,15.94,15.68,31.65-12.18,12.94-24.37,25.32,14.11-.33,28.23-1.37-1.93,20.88-3.88,41.76,9.75-16.89,19.52-34.17,9.76,12.74,19.52,25.08-1.93-20-3.88-40,14.11-5.53,28.23-11.88Q1116.69,413.91,1104.5,406.65Z" style="fill: #ffe000"/>
    <path d="M1014.86,573.14q-3.43-11.91-6.86-23.87-3.43,12.6-6.86,25.15-9,1.71-18.11,3.16,6.94,8.17,13.87,16.22-2.16,13-4.33,26.06,7.71-7.51,15.43-15.22,7.71,6.27,15.43,12.34-2.17-12.62-4.33-25.25,6.93-9.32,13.87-18.82Q1023.91,573.17,1014.86,573.14Z" style="fill: #ffe000"/>
  </g>
</svg>
