<svg xmlns="http://www.w3.org/2000/svg" viewBox="0 0 1260 1012.04">
  <g>
    <path d="M0,90.08v920C420,738.76,840,1193.28,1260,922V2C840,273.28,420-181.24,0,90.08Z" style="fill: #007fff"/>
    <path d="M1181.25,44.69C787.5,449.3,393.75,295.72,0,780.08v230a572.77,572.77,0,0,1,78.75-42.72C472.5,562.74,866.25,716.33,1260,232V2A572.77,572.77,0,0,1,1181.25,44.69Z" style="fill: #f7d618"/>
    <path d="M403.2,189c-44.1-4.68-88.2-6.48-132.3-3.71Q250.43,122.19,230,60.43,209.48,127.5,189,196.08A537.84,537.84,0,0,0,56.7,241.73c35.7,8.81,71.4,22.41,107.1,39.88q-20.48,69.61-41,141A1382.56,1382.56,0,0,1,230,318c35.7,21.93,71.4,47.18,107.1,74.88q-20.48-65-40.95-129C331.8,236.49,367.5,211.81,403.2,189Z" style="fill: #f7d618"/>
    <path d="M0,826.08v184C420,493.43,840,702.62,1260,186V2C840,518.62,420,309.43,0,826.08Z" style="fill: #ce1021"/>
  </g>
</svg>
