<svg xmlns="http://www.w3.org/2000/svg" viewBox="0 0 1260 1012.04">
  <g>
    <path d="M0,90.08v920C420,738.76,840,1193.28,1260,922V2C840,273.28,420-181.24,0,90.08Z" style="fill: #ffce00"/>
    <path d="M0,90.08v690C420,508.76,840,963.28,1260,692V2C840,273.28,420-181.24,0,90.08Z" style="fill: #289728"/>
    <path d="M0,90.08v460C420,278.76,840,733.28,1260,462V2C840,273.28,420-181.24,0,90.08Z" style="fill: #fff"/>
    <path d="M0,90.08v230C420,48.76,840,503.28,1260,232V2C840,273.28,420-181.24,0,90.08Z" style="fill: #003082"/>
    <path d="M525,24V944c70,13.59,140,30.54,210,44.12v-920C665,54.5,595,37.55,525,24Z" style="fill: #d21034"/>
    <path d="M120.13,124q27.74,12.36,55.48,28,6.55-23.53,13.13-46.89A540.87,540.87,0,0,0,120.13,124Z" style="fill: #ffce00"/>
    <path d="M265.72,210.17q-10.64-35-21.28-69.65Q227.22,156,210,172.5,237.86,190,265.72,210.17Z" style="fill: #ffce00"/>
    <path d="M154.28,228.92Q182.14,199.16,210,172.5,192.81,161.72,175.61,152,164.95,190.25,154.28,228.92Z" style="fill: #ffce00"/>
    <path d="M231.36,98.07q6.54,21.15,13.08,42.45,27.72-24.92,55.44-47.37A636.4,636.4,0,0,0,231.36,98.07Z" style="fill: #ffce00"/>
    <path d="M210.08,29.65q-10.68,37.54-21.34,75.5,21.3-4.38,42.62-7.08Q220.73,63.66,210.08,29.65Z" style="fill: #ffce00"/>
    <path d="M188.74,105.15q-6.57,23.37-13.13,46.89Q192.8,161.7,210,172.5q17.22-16.51,34.44-32-6.54-21.3-13.08-42.45Q210,100.8,188.74,105.15Z" style="fill: #ffce00"/>
  </g>
</svg>
