<svg xmlns="http://www.w3.org/2000/svg" xmlns:xlink="http://www.w3.org/1999/xlink" viewBox="0 0 1260 1012.04">
  <defs>
    <clipPath id="a">
      <path d="M0,90.08v230c245-158.27,490-69.55,735-22v230c-35-6.79-70-14.42-105-22.06C420,306.89,210,107.75,0,90.08ZM630,46C525,23.12,420,.22,315,0V613.34c-105-.22-210,22.24-315,90.07V550.08C210,261.09,420,153.55,630,46Z" style="fill: none"/>
    </clipPath>
  </defs>
  <g>
    <path d="M0,90.08v920C420,738.76,840,1193.28,1260,922V2C840,273.28,420-181.24,0,90.08Z" style="fill: #00247d"/>
    <path d="M0,90.08C210,107.75,420,306.89,630,506m0-460C420,153.55,210,261.09,0,550.08"/>
    <path d="M315,281.43C415.3,354.88,515.61,449,615.91,544.1Q630,506,644.09,468C557.87,386.23,471.65,303.83,385.44,233.3c86.21-55.38,172.43-98.88,258.65-143.06Q637,68.13,630,46c-23.48-5.12-47-10.24-70.44-15.11C478,73.54,396.52,119.22,315,178.57,233.48,118.88,152,72.86,70.44,51.13A575.74,575.74,0,0,0,0,90.08v51.43c81.52,6.86,163,41.06,244.56,92C163,301.62,81.52,386.46,0,498.65v51.43q7.05,16,14.09,32.31C114.39,448.19,214.7,354.46,315,281.43Z" style="fill: #fff"/>
    <g style="clip-path: url(#a)">
      <path d="M0,90.08C210,107.75,420,306.89,630,506m0-460C420,153.55,210,261.09,0,550.08"/>
      <path d="M315,264.29C416.87,338.88,518.74,434.82,620.61,531.4l18.78-50.76C546.91,393,454.44,304.76,362,231.54c92.48-61.82,185-108.67,277.43-156L630,46c-15.65-3.41-31.31-6.83-47-10.16C493.69,82,404.35,130.66,315,195.72c-89.35-65.43-178.69-114.43-268-133Q23.49,74.94,0,90.08v34.28c89.35,7.52,178.69,47.89,268,107.13C178.69,302.73,89.35,392.83,0,515.79v34.28q4.7,10.7,9.39,21.49C111.26,434,213.13,338.46,315,264.29Z" style="fill: #cf142b"/>
    </g>
    <path d="M315,0V613.34M0,320.08c245-158.27,490-69.55,735-22"/>
    <path d="M367.5,1.9a728.67,728.67,0,0,0-105,0h0a728.67,728.67,0,0,1,105,0Z" style="fill: #fff"/>
    <path d="M262.5,615.22a730.11,730.11,0,0,1,105,0V308.56C490,316.9,612.5,351,735,374.75V221.42c-122.5-23.78-245-57.85-367.5-66.19V1.9a728.67,728.67,0,0,0-105,0V155.22C175,161.86,87.5,186.89,0,243.41V396.74c87.5-56.52,175-81.54,262.5-88.19Z" style="fill: #fff"/>
    <path d="M315,0V613.34M0,320.08c245-158.27,490-69.55,735-22"/>
    <path d="M346.5.72c-21-.9-42-1-63-.08h0c21-.91,42-.82,63,.09Z" style="fill: #cf142b"/>
    <path d="M283.5,614c21-.91,42-.82,63,.09V276.72C476,282.31,605.5,319,735,344.08v-92C605.5,227,476,190.31,346.5,184.72V.73c-21-.91-42-1-63-.09v184C189,188.73,94.5,213,0,274.08v92C94.5,305,189,280.73,283.5,276.64Z" style="fill: #cf142b"/>
    <path d="M630,46V506c-210-45.8-420-91.6-630,44.06v460C420,738.76,840,1193.28,1260,922V2C1050,137.63,840,91.82,630,46Z" style="fill: #00247d"/>
    <path d="M930.4,235.69q12,5.94,24,11.51-4.7-38.44-9.37-77Q937.7,203,930.4,235.69Z" style="fill: #fff"/>
    <path d="M935.63,247.16q12-5.5,24-11.41-7.3-32.68-14.6-65.51Q940.32,208.73,935.63,247.16Z" style="fill: #fff"/>
    <path d="M942.69,254.71q23.63-18.27,47.25-38.15c-15.75,1-31.5,1.43-47.25,1.35Z" style="fill: #fff"/>
    <path d="M951.71,258.46q19.11-20.41,38.23-41.9c-17.68,4.73-35.36,8.72-53,12.08Q944.31,243.63,951.71,258.46Z" style="fill: #fff"/>
    <path d="M934.21,240.71q19.27,27.45,38.56,53.87-7.29-32.54-14.6-65.23Q946.19,235.23,934.21,240.71Z" style="fill: #fff"/>
    <path d="M934.55,254.41q19.11,20.6,38.22,40.17-11.7-34.72-23.41-69.85Q942,239.66,934.55,254.41Z" style="fill: #fff"/>
    <path d="M917.23,294.49q19.11-19.53,38.22-40-7.4-14.79-14.81-29.74Q928.94,259.78,917.23,294.49Z" style="fill: #fff"/>
    <path d="M917.23,294.49q19.28-26.39,38.56-53.73-12-5.53-24-11.46Q924.53,262,917.23,294.49Z" style="fill: #fff"/>
    <path d="M938.29,258.43q7.41-14.81,14.81-29.75-26.52-5.16-53-12.17Q919.17,237.92,938.29,258.43Z" style="fill: #fff"/>
    <path d="M947.31,254.72v-36.8c-15.75,0-31.5-.48-47.25-1.41Q923.69,236.31,947.31,254.72Z" style="fill: #fff"/>
    <path d="M1038.45,272.77q6.45-38.89,12.89-77.93-15.81,28.31-31.62,55.71Q1029.1,261.82,1038.45,272.77Z" style="fill: #fff"/>
    <path d="M1046.4,264.28q2.47-34.71,4.94-69.44-15,34.92-30,69Q1033.87,264.34,1046.4,264.28Z" style="fill: #fff"/>
    <path d="M1025.7,274.37c17.8-4,35.61-8.89,53.41-14.68q-21.57-9.25-43.16-20.29Q1030.82,256.94,1025.7,274.37Z" style="fill: #fff"/>
    <path d="M1032.9,282.24q23.1-10.31,46.21-22.55-25.72-5.13-51.45-12.77Q1030.27,264.59,1032.9,282.24Z" style="fill: #fff"/>
    <path d="M1042,326.87q2.46-34.68,4.94-69.39-12.54.09-25.07-.39Q1031.89,292.16,1042,326.87Z" style="fill: #fff"/>
    <path d="M1018.32,270.2q11.82,28.57,23.63,56.67l-1.8-77.88Q1029.23,259.8,1018.32,270.2Z" style="fill: #fff"/>
    <path d="M991.2,299.35q23.12-8.7,46.22-19.15-2.62-17.62-5.24-35.27Q1011.69,272.85,991.2,299.35Z" style="fill: #fff"/>
    <path d="M991.2,299.35q25.17-15,50.35-32.06-9.37-10.91-18.73-22.11Q1007,272.67,991.2,299.35Z" style="fill: #fff"/>
    <path d="M1020.63,275.79q10.92-10.44,21.83-21.3-22.73-17.22-45.45-36.22Q1008.82,247.25,1020.63,275.79Z" style="fill: #fff"/>
    <path d="M1029.92,276.59q5.13-17.49,10.25-35Q1018.6,230.71,997,218.27,1013.47,247.87,1029.92,276.59Z" style="fill: #fff"/>
    <path d="M1106.38,337.68q16.45-35.39,32.92-71.92-21.58,21.51-43.17,41Q1101.26,322.28,1106.38,337.68Z" style="fill: #fff"/>
    <path d="M1115.67,333.1q11.82-33.37,23.63-67.34-22.72,28.56-45.45,54.89Q1104.75,327.12,1115.67,333.1Z" style="fill: #fff"/>
    <path d="M1094.76,333.08a505.51,505.51,0,0,0,50.34,11.3q-15.81-20-31.62-41Q1104.12,318.41,1094.76,333.08Z" style="fill: #fff"/>
    <path d="M1098.88,344.33q23.11,1.16,46.22.05-20.49-17.81-41-37.44Q1101.51,325.65,1098.88,344.33Z" style="fill: #fff"/>
    <path d="M1094.36,392.83Q1106.17,360,1118,326.56q-10.9-5.93-21.82-12.35Z" style="fill: #fff"/>
    <path d="M1094.36,392.83q10.07-38.77,20.12-77.95-12.52,5.6-25.06,10.54Q1091.9,359.14,1094.36,392.83Z" style="fill: #fff"/>
    <path d="M1103.41,344.53q2.61-18.7,5.24-37.43-25.74,18-51.46,33.43Q1080.3,343.56,1103.41,344.53Z" style="fill: #fff"/>
    <path d="M1057.19,340.53a521.36,521.36,0,0,0,53.42-6.78q-5.13-15.36-10.25-30.81Q1078.78,322.65,1057.19,340.53Z" style="fill: #fff"/>
    <path d="M1089.9,332q12.54-5,25.06-10.56-15-28-30-56.89Q1087.44,298.31,1089.9,332Z" style="fill: #fff"/>
    <path d="M1097.85,337.31q9.36-14.73,18.73-29.83-15.81-20.94-31.62-42.91Q1091.41,301,1097.85,337.31Z" style="fill: #fff"/>
    <path d="M1146.4,437.53q23.63-27,47.25-56.51-23.62,11.19-47.25,19.71Z" style="fill: #fff"/>
    <path d="M1155.43,437.93q19.11-27.6,38.22-56.91-26.52,18-53,32.56Q1148,425.88,1155.43,437.93Z" style="fill: #fff"/>
    <path d="M1137.92,426.62q19.29,20.5,38.57,39.31-7.31-29.65-14.6-59.56Q1149.91,416.82,1137.92,426.62Z" style="fill: #fff"/>
    <path d="M1138.26,440.2q19.13,13.69,38.23,25.73-11.71-30.1-23.41-60.85Q1145.67,422.77,1138.26,440.2Z" style="fill: #fff"/>
    <path d="M1120.94,486.39q19.13-26.14,38.23-53.88-7.41-12-14.81-24.23Q1132.65,447.64,1120.94,486.39Z" style="fill: #fff"/>
    <path d="M1120.94,486.39q19.29-33,38.57-67.71-12-1-24-2.62Q1128.25,451.34,1120.94,486.39Z" style="fill: #fff"/>
    <path d="M1142,442.86q7.4-17.49,14.81-35.24a470.71,470.71,0,0,1-53,6.58Q1122.89,429.3,1142,442.86Z" style="fill: #fff"/>
    <path d="M1151,435.83V399c-15.75,5.88-31.5,10.9-47.25,15.17Q1127.41,426.2,1151,435.83Z" style="fill: #fff"/>
    <path d="M1134.12,423q12,1.68,24,2.7-4.68-36.68-9.36-73.45Q1141.42,387.7,1134.12,423Z" style="fill: #fff"/>
    <path d="M1139.35,432.55q12-9.84,24-20.33-7.3-29.88-14.6-60Q1144,392.42,1139.35,432.55Z" style="fill: #fff"/>
    <path d="M1151.6,562.26q26.72-12.76,53.42-28.89-21.58-3.21-43.17-8.68Q1156.74,543.53,1151.6,562.26Z" style="fill: #fff"/>
    <path d="M1158.8,568.3q23.12-16.2,46.22-34.93a419,419,0,0,1-51.46,1Q1156.19,551.33,1158.8,568.3Z" style="fill: #fff"/>
    <path d="M1167.85,610.61q2.48-35.34,4.94-70.69-12.52,3.39-25.06,6Q1157.8,578.51,1167.85,610.61Z" style="fill: #fff"/>
    <path d="M1144.23,559.93q11.8,25.65,23.62,50.68l-1.8-77.42Q1155.13,546.84,1144.23,559.93Z" style="fill: #fff"/>
    <path d="M1117.11,595.58q23.1-14.07,46.21-30.47-2.61-17-5.24-33.93Q1137.61,564.33,1117.11,595.58Z" style="fill: #fff"/>
    <path d="M1117.11,595.58q25.17-20.83,50.34-44.46-9.36-8.46-18.73-17.33Q1132.91,565.23,1117.11,595.58Z" style="fill: #fff"/>
    <path d="M1146.54,565q10.9-13.16,21.82-26.86-22.72-11.3-45.45-24.94Q1134.73,539.36,1146.54,565Z" style="fill: #fff"/>
    <path d="M1155.83,563.41q5.12-18.78,10.25-37.68-21.58-5.24-43.17-12.58Q1139.37,538.88,1155.83,563.41Z" style="fill: #fff"/>
    <path d="M1164.36,557.4q6.44-40.54,12.89-81.29-15.81,32.49-31.62,63.82Q1155,548.87,1164.36,557.4Z" style="fill: #fff"/>
    <path d="M1172.31,546.84q2.46-35.36,4.94-70.73-15,38.89-30,76.74Q1159.78,550.21,1172.31,546.84Z" style="fill: #fff"/>
    <path d="M1121.08,691.43a461.2,461.2,0,0,0,50.34,8.4q-15.81-19-31.61-39.15Q1130.44,676.25,1121.08,691.43Z" style="fill: #fff"/>
    <path d="M1125.2,702.45a444.57,444.57,0,0,0,46.22-2.62q-20.49-16.56-41-35.06Q1127.83,683.63,1125.2,702.45Z" style="fill: #fff"/>
    <path d="M1120.68,751.2q11.8-33.5,23.62-67.59-10.9-5.29-21.82-11.12Z" style="fill: #fff"/>
    <path d="M1120.68,751.2q10.07-39.32,20.12-79.07-12.52,6.32-25.06,11.93Q1118.22,717.65,1120.68,751.2Z" style="fill: #fff"/>
    <path d="M1129.73,702.41q2.63-18.85,5.24-37.73-25.73,19.49-51.46,36.18Q1106.63,702.72,1129.73,702.41Z" style="fill: #fff"/>
    <path d="M1083.51,700.86a504.43,504.43,0,0,0,53.42-9.64q-5.13-15.06-10.25-30.24Q1105.09,681.91,1083.51,700.86Z" style="fill: #fff"/>
    <path d="M1116.22,690.64q12.54-5.64,25.07-12-15-27.12-30-55.23Q1113.76,657.07,1116.22,690.64Z" style="fill: #fff"/>
    <path d="M1124.17,695.49q9.38-15.24,18.73-30.88-15.81-20-31.62-41.16Q1117.73,659.57,1124.17,695.49Z" style="fill: #fff"/>
    <path d="M1132.7,695.39q16.46-36.32,32.92-73.83-21.58,22.8-43.17,43.5Q1127.58,680.27,1132.7,695.39Z" style="fill: #fff"/>
    <path d="M1142,690.28q11.82-34,23.63-68.72-22.72,29.91-45.45,57.49Q1131.08,684.92,1142,690.28Z" style="fill: #fff"/>
    <path d="M1060.11,796.72q19.28,23.56,38.57,45.7-7.31-30.92-14.6-62Q1072.09,788.83,1060.11,796.72Z" style="fill: #fff"/>
    <path d="M1060.45,810.35q19.11,16.74,38.23,32.07-11.72-32.13-23.42-64.79Q1067.86,794.09,1060.45,810.35Z" style="fill: #fff"/>
    <path d="M1043.13,853.84q19.11-23.22,38.23-47.78-7.41-13.21-14.82-26.65Q1054.84,816.88,1043.13,853.84Z" style="fill: #fff"/>
    <path d="M1043.13,853.84q19.29-30.09,38.57-61.55-12-3-24-6.51Q1050.42,819.91,1043.13,853.84Z" style="fill: #fff"/>
    <path d="M1064.19,813.61q7.41-16.3,14.81-32.83c-17.68.31-35.35-.3-53-1.71Q1045.08,797,1064.19,813.61Z" style="fill: #fff"/>
    <path d="M1073.22,808v-36.8q-23.62,4.95-47.25,7.83Q1049.6,794.55,1073.22,808Z" style="fill: #fff"/>
    <path d="M1056.3,792.46q12,3.56,24,6.57-4.68-37.44-9.37-75Q1063.61,758.36,1056.3,792.46Z" style="fill: #fff"/>
    <path d="M1061.54,802.88q12-7.93,24-16.41-7.29-31.11-14.6-62.42Q1066.22,763.5,1061.54,802.88Z" style="fill: #fff"/>
    <path d="M1068.59,809q23.63-23.13,47.25-48.49-23.62,7-47.25,11.69Z" style="fill: #fff"/>
    <path d="M1077.61,810.86q19.13-24.45,38.23-50.36-26.52,13.25-53,23.61Q1070.21,797.6,1077.61,810.86Z" style="fill: #fff"/>
    <path d="M999.36,923.47q2.46-34.5,4.94-69-12.54-.84-25.06-2.17Q989.29,888,999.36,923.47Z" style="fill: #fff"/>
    <path d="M975.73,865.14q11.82,29.39,23.63,58.33l-1.8-78Q986.64,855.48,975.73,865.14Z" style="fill: #fff"/>
    <path d="M948.62,892.51q23.1-7.25,46.21-16-2.61-17.81-5.24-35.64Q969.1,867.31,948.62,892.51Z" style="fill: #fff"/>
    <path d="M948.62,892.51Q973.79,879.1,999,863.86q-9.36-11.58-18.73-23.44Q964.42,866.84,948.62,892.51Z" style="fill: #fff"/>
    <path d="M978.05,870.89q10.91-9.71,21.82-19.77-22.73-18.87-45.45-39.33Q966.24,841.55,978.05,870.89Z" style="fill: #fff"/>
    <path d="M987.34,872.32q5.11-17.12,10.25-34.31Q976,825.62,954.42,811.79,970.88,842.45,987.34,872.32Z" style="fill: #fff"/>
    <path d="M995.86,869.11q6.45-38.43,12.89-77-15.81,27.12-31.61,53.45Q986.5,857.49,995.86,869.11Z" style="fill: #fff"/>
    <path d="M1003.81,861.2q2.48-34.53,4.94-69.07-15,33.79-30,66.88Q991.29,860.35,1003.81,861.2Z" style="fill: #fff"/>
    <path d="M983.11,869.82c17.81-2.81,35.61-6.34,53.42-10.71q-21.59-11-43.17-23.54Q988.23,852.73,983.11,869.82Z" style="fill: #fff"/>
    <path d="M990.31,878.18q23.1-8.65,46.22-19.07-25.74-7.18-51.46-16.6Q987.7,860.36,990.31,878.18Z" style="fill: #fff"/>
    <path d="M890.64,923.48q11.82-29.06,23.63-58.43-10.92-9.66-21.83-19.61Z" style="fill: #fff"/>
    <path d="M890.64,923.48q10.07-35.54,20.12-71.3-12.53,1.35-25.06,2.31Q888.18,889,890.64,923.48Z" style="fill: #fff"/>
    <path d="M899.69,878.13q2.63-17.83,5.24-35.7-25.73,9.45-51.46,17.41Q876.59,869.54,899.69,878.13Z" style="fill: #fff"/>
    <path d="M853.47,859.84q26.71,5.7,53.42,9.9-5.13-17.07-10.25-34.21Q875.06,848.21,853.47,859.84Z" style="fill: #fff"/>
    <path d="M886.19,861.25q12.52-1,25.06-2.33-15-33.07-30-66.68Q883.71,826.76,886.19,861.25Z" style="fill: #fff"/>
    <path d="M894.14,869.09q9.36-11.7,18.72-23.59-15.81-26.34-31.61-53.26Q887.69,830.71,894.14,869.09Z" style="fill: #fff"/>
    <path d="M902.66,872.26q16.47-29.93,32.92-60.5Q914,825.47,892.41,838Z" style="fill: #fff"/>
    <path d="M912,870.8q11.82-29.34,23.63-59-22.73,20.34-45.45,39.37Q901,861.11,912,870.8Z" style="fill: #fff"/>
    <path d="M891,863.86q25.17,15.07,50.34,28.63-15.79-25.75-31.61-52.15Q900.41,852.21,891,863.86Z" style="fill: #fff"/>
    <path d="M895.17,876.44q23.1,8.68,46.21,16-20.48-25.32-41-51.72Q897.79,858.62,895.17,876.44Z" style="fill: #fff"/>
    <path d="M791.32,847q19.13-17.19,38.23-34.94-7.41-15.86-14.81-31.81Q803,813.77,791.32,847Z" style="fill: #fff"/>
    <path d="M791.32,847q19.29-24,38.57-48.59-12-7.25-24-14.75Q798.63,815.41,791.32,847Z" style="fill: #fff"/>
    <path d="M812.39,813.69q7.4-13.8,14.81-27.7c-17.68-6-35.36-12.31-53-19Q793.27,790.61,812.39,813.69Z" style="fill: #fff"/>
    <path d="M821.41,811.22v-36.8q-23.62-3.27-47.25-7.39Q797.79,789.52,821.41,811.22Z" style="fill: #fff"/>
    <path d="M804.5,789.91q12,7.5,24,14.78l-9.36-78.27Q811.8,758.21,804.5,789.91Z" style="fill: #fff"/>
    <path d="M809.73,802.06q12-3.91,24-8.06-7.31-33.75-14.6-67.58Q814.41,764.27,809.73,802.06Z" style="fill: #fff"/>
    <path d="M816.78,810.57q23.63-15,47.25-31.07-23.62-2.34-47.25-5.73Z" style="fill: #fff"/>
    <path d="M825.81,815.58Q844.92,797.87,864,779.5c-17.68,1.85-35.36,3.22-53,4.22Q818.4,799.7,825.81,815.58Z" style="fill: #fff"/>
    <path d="M808.3,795.43q19.29,30,38.57,59.37-7.3-33.64-14.6-67.41Q820.29,791.53,808.3,795.43Z" style="fill: #fff"/>
    <path d="M808.64,809.17q19.13,23.13,38.23,45.63-11.72-36.51-23.41-73.28Q816.05,795.38,808.64,809.17Z" style="fill: #fff"/>
    <path d="M718.58,715.74q23.1-2.54,46.22-5.54-2.62-18.47-5.24-36.94Q739.07,694.71,718.58,715.74Z" style="fill: #fff"/>
    <path d="M718.58,715.74q25.17-8.26,50.34-17.12-9.36-13.95-18.73-28Q734.4,693.28,718.58,715.74Z" style="fill: #fff"/>
    <path d="M748,700.55q10.9-7.14,21.82-14.43-22.73-24.66-45.45-49.89Q736.2,668.45,748,700.55Z" style="fill: #fff"/>
    <path d="M757.3,704.2q5.13-15.87,10.25-31.77-21.59-17.85-43.17-36.2Q740.85,670.34,757.3,704.2Z" style="fill: #fff"/>
    <path d="M765.83,703.09q6.43-36.8,12.89-73.65Q762.91,652.39,747.1,675,756.46,689.11,765.83,703.09Z" style="fill: #fff"/>
    <path d="M773.78,697.21q2.46-33.88,4.94-67.77-15,29.84-30,59.4Q761.25,693.12,773.78,697.21Z" style="fill: #fff"/>
    <path d="M753.07,700.68c17.81,1.44,35.61,2.63,53.42,3.46q-21.59-17.28-43.17-35.21Q758.21,684.82,753.07,700.68Z" style="fill: #fff"/>
    <path d="M760.27,710.79q23.12-3,46.22-6.65-25.72-14.7-51.46-30.3Q757.66,692.32,760.27,710.79Z" style="fill: #fff"/>
    <path d="M769.32,758.34q2.48-33.89,4.94-67.76-12.53-4.1-25.06-8.37Q759.26,720.34,769.32,758.34Z" style="fill: #fff"/>
    <path d="M745.7,694.27q11.81,32.1,23.62,64.07l-1.8-78.48Q756.62,687.14,745.7,694.27Z" style="fill: #fff"/>
    <path d="M731.2,581.6q2.63-17.49,5.24-35c-17.15,3.9-34.31,7.59-51.46,11.18Q708.1,569.86,731.2,581.6Z" style="fill: #fff"/>
    <path d="M685,557.8q26.71,8.43,53.42,16.4-5.13-17.79-10.25-35.61Q706.57,548.37,685,557.8Z" style="fill: #fff"/>
    <path d="M717.69,562.94q12.54.6,25.07,1.07-15-35.24-30-70.69Q715.22,528.14,717.69,562.94Z" style="fill: #fff"/>
    <path d="M725.64,571.81q9.38-10.45,18.73-21-15.81-28.64-31.61-57.5Q719.2,532.59,725.64,571.81Z" style="fill: #fff"/>
    <path d="M734.17,576.13q16.46-27.64,32.92-55.55-21.58,10.2-43.17,19.92Q729.05,558.32,734.17,576.13Z" style="fill: #fff"/>
    <path d="M743.46,576q11.82-27.63,23.63-55.41-22.73,16.65-45.45,32.75Q732.55,564.71,743.46,576Z" style="fill: #fff"/>
    <path d="M722.55,566.18q25.17,18.35,50.34,36.09-15.81-28.39-31.61-57.06Q731.91,555.74,722.55,566.18Z" style="fill: #fff"/>
    <path d="M726.68,579.3q23.1,11.75,46.21,23-20.49-28.74-41-57.93Q729.3,561.82,726.68,579.3Z" style="fill: #fff"/>
    <path d="M722.15,625.74q11.8-27.53,23.62-55.16-10.9-11.26-21.82-22.64Z" style="fill: #fff"/>
    <path d="M722.15,625.74q10.07-34.23,20.12-68.54-12.53-.47-25.06-1.07Q719.69,590.93,722.15,625.74Z" style="fill: #fff"/>
    <path d="M734.57,450.57q7.41-13.44,14.81-26.94-26.5-10.35-53-21.33Q715.46,426.56,734.57,450.57Z" style="fill: #fff"/>
    <path d="M743.6,448.55v-36.8q-23.62-4.49-47.25-9.45Q720,425.63,743.6,448.55Z" style="fill: #fff"/>
    <path d="M726.68,426.42q12,8.06,24,16Q746,403,741.28,363.63,734,395.05,726.68,426.42Z" style="fill: #fff"/>
    <path d="M731.92,438.82q12-3.35,24-6.83-7.29-34.15-14.6-68.36Z" style="fill: #fff"/>
    <path d="M739,447.67q23.63-13.86,47.25-28.32-23.62-3.9-47.25-8.48Z" style="fill: #fff"/>
    <path d="M748,453.14q19.11-16.69,38.22-33.79c-17.68.67-35.36,1-53,1.18Q740.59,436.87,748,453.14Z" style="fill: #fff"/>
    <path d="M730.49,432.11q19.28,30.92,38.57,61.45-7.3-34.1-14.6-68.25Q742.48,428.78,730.49,432.11Z" style="fill: #fff"/>
    <path d="M730.83,445.87q19.11,24,38.23,47.69Q757.35,456.33,745.64,419,738.25,432.45,730.83,445.87Z" style="fill: #fff"/>
    <path d="M713.51,483q19.11-16.41,38.23-33.11-7.41-16.26-14.82-32.58Q725.22,450.19,713.51,483Z" style="fill: #fff"/>
    <path d="M713.51,483q19.29-23.22,38.57-46.74-12-7.92-24-16Q720.81,451.65,713.51,483Z" style="fill: #fff"/>
    <path d="M774.33,339.6q10.9-7.32,21.82-14.79-22.73-24.27-45.45-49.21Q762.52,307.67,774.33,339.6Z" style="fill: #fff"/>
    <path d="M783.62,343.11q5.13-16,10.25-31.95-21.58-17.48-43.17-35.56Q767.17,309.5,783.62,343.11Z" style="fill: #fff"/>
    <path d="M792.15,341.86Q798.59,304.95,805,268q-15.81,23.23-31.62,46.13Q782.78,328,792.15,341.86Z" style="fill: #fff"/>
    <path d="M800.1,335.83Q802.56,301.9,805,268q-15,30.12-30,59.91Q787.57,332,800.1,335.83Z" style="fill: #fff"/>
    <path d="M779.39,339.65q26.72,1.75,53.42,2.46-21.59-16.8-43.17-34.38Q784.53,323.71,779.39,339.65Z" style="fill: #fff"/>
    <path d="M786.59,349.64q23.11-3.36,46.22-7.53Q807.09,328,781.35,312.78,784,331.22,786.59,349.64Z" style="fill: #fff"/>
    <path d="M795.64,397q2.48-33.92,4.94-67.85-12.52-3.85-25.06-7.95Q785.59,359.21,795.64,397Z" style="fill: #fff"/>
    <path d="M772,333.35q11.81,31.93,23.62,63.69l-1.8-78.44Q782.94,326.05,772,333.35Z" style="fill: #fff"/>
    <path d="M744.9,355.18q23.1-2.81,46.22-6.2-2.62-18.42-5.24-36.85Q765.39,333.91,744.9,355.18Z" style="fill: #fff"/>
    <path d="M744.9,355.18q25.17-8.56,50.34-17.85-9.36-13.8-18.72-27.72Q760.71,332.54,744.9,355.18Z" style="fill: #fff"/>
    <path d="M843.6,265.37q12.52-.44,25.06-1.18-15-33.8-30-68Q841.12,230.76,843.6,265.37Z" style="fill: #fff"/>
    <path d="M851.55,273.56q9.36-11.26,18.73-22.71-15.81-27.1-31.62-54.7Q845.11,234.9,851.55,273.56Z" style="fill: #fff"/>
    <path d="M860.08,277.12Q876.53,248,893,218.25q-21.59,12.58-43.16,24.15Q854.95,259.79,860.08,277.12Z" style="fill: #fff"/>
    <path d="M869.37,276.1q11.8-28.77,23.62-57.85-22.72,19.16-45.45,37.18Q858.46,265.89,869.37,276.1Z" style="fill: #fff"/>
    <path d="M848.45,268.19q25.17,16.2,50.35,31.11Q883,272.69,867.18,245.54,857.82,257,848.45,268.19Z" style="fill: #fff"/>
    <path d="M852.58,281q23.11,9.72,46.22,18.34-20.49-26.42-41-53.77Q855.2,263.26,852.58,281Z" style="fill: #fff"/>
    <path d="M848.05,327.79q11.82-28.52,23.63-57.32-10.92-10.2-21.83-20.63Z" style="fill: #fff"/>
    <path d="M848.05,327.79q10.07-35.09,20.13-70.36-12.54.74-25.07,1.16Q845.59,293.2,848.05,327.79Z" style="fill: #fff"/>
    <path d="M857.1,282.86q2.63-17.73,5.24-35.46-25.73,8.23-51.45,15.23Q834,273.21,857.1,282.86Z" style="fill: #fff"/>
    <path d="M810.89,262.63q26.7,6.71,53.41,12.17-5.13-17.31-10.25-34.68Q832.46,251.81,810.89,262.63Z" style="fill: #fff"/>
  </g>
</svg>
