<svg xmlns="http://www.w3.org/2000/svg" viewBox="0 0 1260 1012.04">
  <g>
    <path d="M0,90.08v920C420,738.76,840,1193.28,1260,922V2C840,273.28,420-181.24,0,90.08Z" style="fill: #d52b1e"/>
    <path d="M0,90.08C140,153,280,296.51,420,466.94c280,34.19,560,175.9,840-5V2C840,273.28,420-181.24,0,90.08Z" style="fill: #fff"/>
    <path d="M420,6.94C280-10.15,140-.36,0,90.08v460c140-90.44,280-100.23,420-83.14Z" style="fill: #0039a6"/>
    <path d="M177.55,238.93c16.65,2.13,33.29,5.09,49.93,8.77Q218.75,185.3,210,123.18,193.77,180.57,177.55,238.93Z" style="fill: #fff"/>
    <path d="M192.52,253.51q25-13.84,49.93-25.4Q226.22,175.19,210,123.18,201.26,188.21,192.52,253.51Z" style="fill: #fff"/>
    <path d="M204.86,261a1023.86,1023.86,0,0,1,105-66.55,625.65,625.65,0,0,0-105,9.05Z" style="fill: #fff"/>
    <path d="M224.91,268c28.32-26.47,56.64-50.82,85-73.5a680.06,680.06,0,0,0-115.8,32.14Q209.48,246.84,224.91,268Z" style="fill: #fff"/>
    <path d="M195.09,272.92q15.42-26.25,30.85-51.61a501.67,501.67,0,0,0-115.8,7.75A688.46,688.46,0,0,1,195.09,272.92Z" style="fill: #fff"/>
    <path d="M215.14,259.32v-57.5a543,543,0,0,0-105,27.24C145.14,235.27,180.14,245.63,215.14,259.32Z" style="fill: #fff"/>
    <path d="M189.34,243.44c27.46,24.92,54.92,52,82.38,80.85q-16.23-53.68-32.45-106.53Q214.31,229.49,189.34,243.44Z" style="fill: #fff"/>
    <path d="M186.77,268a991.78,991.78,0,0,1,85,56.31q-27-55.4-54.09-108.4Q202.2,241.5,186.77,268Z" style="fill: #fff"/>
    <path d="M148.28,345.12c28.32-30.67,56.63-58.8,84.95-84.86q-15.43-21.34-30.86-41.83Q175.33,280.35,148.28,345.12Z" style="fill: #fff"/>
    <path d="M148.28,345.12c27.46-38.42,54.92-74.47,82.38-108.55q-25-5.65-49.93-9.06Q164.5,285.79,148.28,345.12Z" style="fill: #fff"/>
  </g>
</svg>
