<svg xmlns="http://www.w3.org/2000/svg" viewBox="0 0 1260 1012.04">
  <g>
    <path d="M0,90.08v920C420,738.76,840,1193.28,1260,922V2C840,273.28,420-181.24,0,90.08Z" style="fill: #007a5e"/>
    <path d="M420,6.94v920c280,34.19,560,175.9,840-5V2C980,182.84,700,41.13,420,6.94Z" style="fill: #ce1126"/>
    <path d="M840,85.1v920c140,17.1,280,7.31,420-83.13V2C1120,92.41,980,102.2,840,85.1Z" style="fill: #fcd116"/>
    <path d="M595.39,492.5Q622,507.71,648.65,523,639.32,453.21,630,383.36,612.69,437.92,595.39,492.5Z" style="fill: #fcd116"/>
    <path d="M611.35,514.91c17.75-2.46,35.51-4.88,53.26-7.37Q647.3,445.47,630,383.36,620.67,449.12,611.35,514.91Z" style="fill: #fcd116"/>
    <path d="M624.52,528.25c37.33-12.3,74.66-24.56,112-37.78-37.34-7.22-74.67-15.41-112-23.55Z" style="fill: #fcd116"/>
    <path d="M645.91,543.68c30.2-17.46,60.41-35,90.61-53.21-41.18-.47-82.35-2.12-123.53-3.58Z" style="fill: #fcd116"/>
    <path d="M608,502.75c29.29,38.93,58.58,78,87.87,116.66q-17.3-61.93-34.61-124Q634.6,499.11,608,502.75Z" style="fill: #fcd116"/>
    <path d="M605.22,527.77c30.21,30.58,60.41,61.31,90.61,91.64Q667,552.54,638.14,485.31,621.68,506.54,605.22,527.77Z" style="fill: #fcd116"/>
    <path d="M564.17,591.11c30.2-17.73,60.4-35.07,90.61-52.56l-32.92-56.78Q593,536.34,564.17,591.11Z" style="fill: #fcd116"/>
    <path d="M564.17,591.11c29.29-26.46,58.58-52.55,87.87-78.76q-26.64-15.25-53.26-30.54Q581.47,536.41,564.17,591.11Z" style="fill: #fcd116"/>
    <path d="M614.09,536.75Q630.54,515.53,647,494.3c-41.18-16.44-82.35-33.08-123.53-48.54C553.68,475.64,583.89,506.15,614.09,536.75Z" style="fill: #fcd116"/>
    <path d="M635.48,530.64V469.31c-37.33-8.14-74.67-16.33-112-23.55C560.81,473.43,598.15,502.06,635.48,530.64Z" style="fill: #fcd116"/>
  </g>
</svg>
