<svg xmlns="http://www.w3.org/2000/svg" viewBox="0 0 1260 1012.04">
  <g>
    <path d="M0,90.08v920C420,738.76,840,1193.28,1260,922V2C840,273.28,420-181.24,0,90.08Z" style="fill: #de2910"/>
    <path d="M135.94,367.43c24.69-27.38,49.37-52.79,74.06-76.53q-22.89-14.41-45.77-26.85Q150.09,315.34,135.94,367.43Z" style="fill: #ffde00"/>
    <path d="M90.17,229.8a612.53,612.53,0,0,1,74.06,34.25Q173,232.37,181.71,201A537.4,537.4,0,0,0,90.17,229.8Z" style="fill: #ffde00"/>
    <path d="M284.06,342.26q-14.15-47.08-28.29-93.54Q232.88,268.93,210,290.9C234.69,306.44,259.37,323.66,284.06,342.26Z" style="fill: #ffde00"/>
    <path d="M238.29,191.56Q247,220,255.77,248.72c24.69-21.78,49.38-42.08,74.06-61.18A666.17,666.17,0,0,0,238.29,191.56Z" style="fill: #ffde00"/>
    <path d="M210,100.18q-14.15,50-28.29,100.8a570.49,570.49,0,0,1,56.58-9.42Q224.15,145.53,210,100.18Z" style="fill: #ffde00"/>
    <path d="M181.71,201q-8.75,31.4-17.48,63.07,22.89,12.4,45.77,26.85,22.89-22,45.77-42.18Q247,220,238.29,191.56A570.49,570.49,0,0,0,181.71,201Z" style="fill: #ffde00"/>
    <path d="M388.32,65.35q7.85,15,15.7,30.22,6.19-7.14,12.38-14.19Q402.36,73.18,388.32,65.35Z" style="fill: #ffde00"/>
    <path d="M429.42,145q1.33-16.47,2.68-32.94-9.19,1.1-18.38,2.34Q421.58,129.6,429.42,145Z" style="fill: #ffde00"/>
    <path d="M384,118.84q14.86-2.48,29.73-4.48-4.85-9.42-9.7-18.79Q394,107.11,384,118.84Z" style="fill: #ffde00"/>
    <path d="M436.44,58.74q-10,11.24-20,22.64,8.69,5.09,17.36,10.29Q435.1,75.2,436.44,58.74Z" style="fill: #ffde00"/>
    <path d="M416.4,81.38Q410.21,88.45,404,95.57q4.85,9.38,9.7,18.79,9.19-1.24,18.38-2.34.82-10.18,1.66-20.35Q425.08,86.45,416.4,81.38Z" style="fill: #ffde00"/>
    <path d="M433.76,91.67q-.84,10.17-1.66,20.35,14.86-1.77,29.74-3.19Q447.8,100.1,433.76,91.67Z" style="fill: #ffde00"/>
    <path d="M462.42,203.39q15,5.24,30.07,10.76l-2.67-20.92Q476.13,198.2,462.42,203.39Z" style="fill: #ffde00"/>
    <path d="M496.8,248q7.14-13.49,14.27-26.92-9.3-3.51-18.58-6.93Q494.64,231.07,496.8,248Z" style="fill: #ffde00"/>
    <path d="M485.5,159.4l4.32,33.83q8.46-3.06,16.93-6Q496.13,173.23,485.5,159.4Z" style="fill: #ffde00"/>
    <path d="M519.88,204.49q-4.41,8.28-8.81,16.59,15,5.67,30.06,11.57Q530.51,218.52,519.88,204.49Z" style="fill: #ffde00"/>
    <path d="M534.15,177.73q-13.71,4.64-27.4,9.46,6.57,8.63,13.13,17.3Q527,191.08,534.15,177.73Z" style="fill: #ffde00"/>
    <path d="M506.75,187.19q-8.46,3-16.93,6l2.67,20.92q9.28,3.42,18.58,6.93,4.4-8.31,8.81-16.59Q513.31,195.82,506.75,187.19Z" style="fill: #ffde00"/>
    <path d="M480.55,376q12-8.26,24-16.35-7.83-7.21-15.65-14.34Q484.75,360.65,480.55,376Z" style="fill: #ffde00"/>
    <path d="M463.62,322.44q12.64,11.32,25.31,22.88,2.6-9.48,5.18-18.95Q478.87,324.26,463.62,322.44Z" style="fill: #ffde00"/>
    <path d="M529.89,383.14q-5.24-16.72-10.46-33.43-7.42,4.95-14.85,10Q517.23,371.32,529.89,383.14Z" style="fill: #ffde00"/>
    <path d="M494.11,326.37q-2.6,9.47-5.18,18.95,7.83,7.13,15.65,14.34,7.43-5,14.85-10-3.24-10.32-6.47-20.63Q503.54,327.68,494.11,326.37Z" style="fill: #ffde00"/>
    <path d="M502.49,295.75q-4.19,15.3-8.38,30.62,9.42,1.31,18.85,2.71Z" style="fill: #ffde00"/>
    <path d="M513,329.08q3.22,10.32,6.47,20.63,12-8,24-15.87Q528.21,331.37,513,329.08Z" style="fill: #ffde00"/>
    <path d="M384.91,442.53q14.71-3.13,29.43-5.82-5.19-9.24-10.37-18.42Q394.45,430.32,384.91,442.53Z" style="fill: #ffde00"/>
    <path d="M387.2,388.72q8.39,14.71,16.77,29.57,5.89-7.44,11.79-14.8Q401.48,395.9,387.2,388.72Z" style="fill: #ffde00"/>
    <path d="M431.11,466.71q.7-16.59,1.42-33.19-9.11,1.51-18.19,3.19Q422.73,451.65,431.11,466.71Z" style="fill: #ffde00"/>
    <path d="M434.82,379.81q-9.54,11.76-19.06,23.68,8.82,4.68,17.64,9.51Q434.11,396.41,434.82,379.81Z" style="fill: #ffde00"/>
    <path d="M433.4,413l-.87,20.52Q447.25,431.06,462,429,447.69,420.82,433.4,413Z" style="fill: #ffde00"/>
    <path d="M415.76,403.49q-5.89,7.36-11.79,14.8,5.19,9.18,10.37,18.42,9.09-1.68,18.19-3.19L433.4,413Q424.58,408.17,415.76,403.49Z" style="fill: #ffde00"/>
  </g>
</svg>
