<svg xmlns="http://www.w3.org/2000/svg" viewBox="0 0 1260 1012.04">
  <g>
    <path d="M0,90.08v920C420,738.76,840,1193.28,1260,922V2C840,273.28,420-181.24,0,90.08Z" style="fill: #002a8f"/>
    <path d="M0,458.08C420,186.76,840,641.28,1260,370V186C840,457.28,420,2.76,0,274.08Z" style="fill: #fff"/>
    <path d="M0,826.08C420,554.76,840,1009.28,1260,738V554C840,825.28,420,370.76,0,642.08Z" style="fill: #fff"/>
    <path d="M0,90.08v920c181.86-270.82,363.72-405.54,545.58-522C363.72,297.87,181.86,125.93,0,90.08Z" style="fill: #cf142b"/>
    <path d="M237.59,575.84q-10.65-46.47-21.29-92.54-17.24,20.88-34.47,42.87Q209.71,549.56,237.59,575.84Z" style="fill: #fff"/>
    <path d="M91.9,459.18q27.76,17.91,55.52,39.32,6.57-31.26,13.14-62.34A534.94,534.94,0,0,0,91.9,459.18Z" style="fill: #fff"/>
    <path d="M126.08,600.53q27.87-38.82,55.75-74.36-17.21-14.43-34.41-27.67Q136.76,549.28,126.08,600.53Z" style="fill: #fff"/>
    <path d="M181.91,335.58q-10.68,50.07-21.35,100.58,21.32-5.58,42.65-9.36Q192.56,381,181.91,335.58Z" style="fill: #fff"/>
    <path d="M203.21,426.8q6.54,28.17,13.09,56.5,27.73-33.63,55.47-64.6A599.38,599.38,0,0,0,203.21,426.8Z" style="fill: #fff"/>
    <path d="M160.56,436.16Q154,467.24,147.42,498.5q17.21,13.23,34.41,27.67,17.23-22,34.47-42.87-6.56-28.33-13.09-56.5Q181.88,430.61,160.56,436.16Z" style="fill: #fff"/>
  </g>
</svg>
