<svg xmlns="http://www.w3.org/2000/svg" viewBox="0 0 1260 1012.04">
  <g>
    <path d="M0,90.08v920C420,738.76,840,1193.28,1260,922V2C840,273.28,420-181.24,0,90.08Z" style="fill: #003893"/>
    <path d="M0,780.08C420,508.76,840,963.28,1260,692V462C840,733.28,420,278.76,0,550.08Z" style="fill: #fff"/>
    <path d="M0,703.41C420,432.09,840,886.62,1260,615.3V538.63C840,810,420,355.43,0,626.74Z" style="fill: #cf2027"/>
    <path d="M461.05,355.42q8.81,4.93,17.62,10-3.09-26-6.17-51.88Q466.77,334.43,461.05,355.42Z" style="fill: #f7d116"/>
    <path d="M466.33,363.36q8.81-2.14,17.62-4.18-5.73-22.86-11.45-45.67Q469.41,338.43,466.33,363.36Z" style="fill: #f7d116"/>
    <path d="M470.69,368q18.53-8.48,37.06-16.52Q489.21,348,470.69,345Z" style="fill: #f7d116"/>
    <path d="M477.76,373.2q15-11,30-21.73-20.44.42-40.88,1.34Q472.32,363,477.76,373.2Z" style="fill: #f7d116"/>
    <path d="M465.21,358.9q14.54,20.64,29.07,41.55-5.71-22.89-11.45-45.75Q474,356.76,465.21,358.9Z" style="fill: #f7d116"/>
    <path d="M464.3,368.36q15,15.9,30,32.09-9.54-24.52-19.09-48.93Q469.75,359.92,464.3,368.36Z" style="fill: #f7d116"/>
    <path d="M450.72,393.32q15-11.31,30-22.27-5.44-10.23-10.89-20.41Q460.26,371.91,450.72,393.32Z" style="fill: #f7d116"/>
    <path d="M450.72,393.32q14.53-16.17,29.07-32-8.81-5-17.62-10Q456.44,372.3,450.72,393.32Z" style="fill: #f7d116"/>
    <path d="M467.24,371.47q5.44-8.43,10.89-16.81Q457.69,347,437.25,340,452.25,355.54,467.24,371.47Z" style="fill: #f7d116"/>
    <path d="M474.31,368.59v-23q-18.53-3.06-37.06-5.62Q455.79,354,474.31,368.59Z" style="fill: #f7d116"/>
    <path d="M461.05,815.42q8.81,4.94,17.62,10-3.09-25.95-6.17-51.88Q466.77,794.44,461.05,815.42Z" style="fill: #f7d116"/>
    <path d="M466.33,823.36q8.81-2.15,17.62-4.18-5.73-22.86-11.45-45.67Q469.41,798.43,466.33,823.36Z" style="fill: #f7d116"/>
    <path d="M470.69,828q18.53-8.47,37.06-16.52Q489.21,808,470.69,805Z" style="fill: #f7d116"/>
    <path d="M477.76,833.2q15-11,30-21.73-20.44.42-40.88,1.34Q472.32,823,477.76,833.2Z" style="fill: #f7d116"/>
    <path d="M465.21,818.9q14.54,20.64,29.07,41.55-5.71-22.89-11.45-45.75Q474,816.76,465.21,818.9Z" style="fill: #f7d116"/>
    <path d="M464.3,828.36q15,15.9,30,32.09-9.54-24.53-19.09-48.93Q469.75,819.92,464.3,828.36Z" style="fill: #f7d116"/>
    <path d="M450.72,853.32q15-11.31,30-22.27-5.44-10.23-10.89-20.41Q460.26,831.91,450.72,853.32Z" style="fill: #f7d116"/>
    <path d="M450.72,853.32q14.53-16.17,29.07-32-8.81-5-17.62-10Q456.44,832.3,450.72,853.32Z" style="fill: #f7d116"/>
    <path d="M467.24,831.47q5.44-8.43,10.89-16.81Q457.69,807,437.25,800,452.25,815.54,467.24,831.47Z" style="fill: #f7d116"/>
    <path d="M474.31,828.59v-23q-18.53-3.06-37.06-5.62Q455.79,814,474.31,828.59Z" style="fill: #f7d116"/>
    <path d="M646.91,562.42q18.52-7.47,37.06-15-18.53-3.93-37.06-8Z" style="fill: #f7d116"/>
    <path d="M654,568q15-10.26,30-20.6-20.43-.1-40.87-.37Z" style="fill: #f7d116"/>
    <path d="M641.43,553Q656,574.51,670.51,596q-5.73-23.1-11.45-46.22Z" style="fill: #f7d116"/>
    <path d="M640.53,562.42q15,16.79,30,33.53-9.56-24.87-19.09-49.77Z" style="fill: #f7d116"/>
    <path d="M626.94,586.5q15-10.26,30-20.52L646,545Q636.49,565.76,626.94,586.5Z" style="fill: #f7d116"/>
    <path d="M626.94,586.5q14.53-15.15,29.08-30.32l-17.63-10.94Q632.68,565.88,626.94,586.5Z" style="fill: #f7d116"/>
    <path d="M643.46,565.71l10.89-16.25q-20.43-8.64-40.87-17.33Z" style="fill: #f7d116"/>
    <path d="M650.54,563.21v-23l-37.06-8.08Z" style="fill: #f7d116"/>
    <path d="M637.27,549.28l17.63,10.94q-3.09-26.1-6.17-52.19Z" style="fill: #f7d116"/>
    <path d="M642.55,557.54l17.63-3.28q-5.73-23.12-11.45-46.23Z" style="fill: #f7d116"/>
    <path d="M294.46,655.11q18.53-12,37.06-23-18.52-.45-37.06,0Z" style="fill: #f7d116"/>
    <path d="M301.54,659q15-13.77,30-26.92-20.43,3.72-40.87,8.58Q296.09,649.78,301.54,659Z" style="fill: #f7d116"/>
    <path d="M289,647.07q14.53,17.82,29.08,36.23-5.73-21.9-11.45-43.73Q297.79,643.21,289,647.07Z" style="fill: #f7d116"/>
    <path d="M288.08,656.71q15,13,30,26.59-9.56-22.87-19.09-45.51Q293.52,647.21,288.08,656.71Z" style="fill: #f7d116"/>
    <path d="M274.49,684.38q15-14.37,30-28.07-5.45-9.24-10.89-18.39Q284,661,274.49,684.38Z" style="fill: #f7d116"/>
    <path d="M274.49,684.38q14.53-19.15,29.08-37.66-8.82-3.44-17.63-6.64Q280.23,662.18,274.49,684.38Z" style="fill: #f7d116"/>
    <path d="M291,659.25q5.44-9.48,10.89-18.87-20.43-3.89-40.87-6.52Q276,646.21,291,659.25Z" style="fill: #f7d116"/>
    <path d="M298.09,655V632q-18.52.39-37.06,1.83Q279.56,643.91,298.09,655Z" style="fill: #f7d116"/>
    <path d="M284.82,644.41q8.82,3.18,17.63,6.6l-6.18-50.73Q290.55,622.3,284.82,644.41Z" style="fill: #f7d116"/>
    <path d="M290.1,651.32q8.82-3.86,17.63-7.47Q302,622,296.27,600.28,293.2,625.78,290.1,651.32Z" style="fill: #f7d116"/>
    <path d="M574.12,795.61Q588.66,817,603.2,838.48l-11.46-46.22Q582.93,793.93,574.12,795.61Z" style="fill: #f7d116"/>
    <path d="M573.21,805q15,16.68,30,33.46-9.56-24.88-19.09-49.75Z" style="fill: #f7d116"/>
    <path d="M559.63,829.22q15-10.43,30-20.71l-10.89-20.93Q569.18,808.37,559.63,829.22Z" style="fill: #f7d116"/>
    <path d="M559.63,829.22q14.54-15.32,29.07-30.51-8.81-5.43-17.62-10.85Q565.35,808.53,559.63,829.22Z" style="fill: #f7d116"/>
    <path d="M576.15,808.29,587,792q-20.43-8.6-40.87-17Q561.16,791.58,576.15,808.29Z" style="fill: #f7d116"/>
    <path d="M583.23,805.75v-23q-18.54-3.94-37.06-7.73Q564.69,790.29,583.23,805.75Z" style="fill: #f7d116"/>
    <path d="M570,791.91q8.82,5.4,17.62,10.85-3.08-26.1-6.17-52.18Q575.7,771.24,570,791.91Z" style="fill: #f7d116"/>
    <path d="M575.24,800.13q8.82-1.7,17.63-3.35l-11.46-46.2Q578.34,775.36,575.24,800.13Z" style="fill: #f7d116"/>
    <path d="M579.6,805q18.52-7.56,37.06-15-18.52-4-37.06-8Z" style="fill: #f7d116"/>
    <path d="M586.68,810.53q15-10.31,30-20.56-20.45-.22-40.87-.37Z" style="fill: #f7d116"/>
    <path d="M356.3,390.71q14.54,19.11,29.07,38.72-5.73-22.38-11.45-44.68Q365.1,387.65,356.3,390.71Z" style="fill: #f7d116"/>
    <path d="M355.39,400.26q15,14.33,30,29.17-9.54-23.65-19.09-47.12Q360.84,391.25,355.39,400.26Z" style="fill: #f7d116"/>
    <path d="M341.8,426.68q15-13,30-25.38-5.46-9.71-10.9-19.33Q351.35,404.22,341.8,426.68Z" style="fill: #f7d116"/>
    <path d="M341.8,426.68q14.55-17.79,29.08-35.05-8.82-4.19-17.62-8.19Q347.53,405,341.8,426.68Z" style="fill: #f7d116"/>
    <path d="M358.32,403.07q5.44-9,10.89-17.91-20.43-5.66-40.87-10.3Q343.34,388.67,358.32,403.07Z" style="fill: #f7d116"/>
    <path d="M365.4,399.47v-23q-18.52-1.22-37.06-1.61Q346.87,386.73,365.4,399.47Z" style="fill: #f7d116"/>
    <path d="M352.13,387.66q8.82,4,17.63,8.17-3.09-25.63-6.17-51.27Q357.86,366.07,352.13,387.66Z" style="fill: #f7d116"/>
    <path d="M357.42,395.05q8.81-3.06,17.62-5.93-5.73-22.32-11.45-44.56Q360.5,369.8,357.42,395.05Z" style="fill: #f7d116"/>
    <path d="M361.77,399.24q18.54-10.37,37.06-20-18.52-1.89-37.06-3Z" style="fill: #f7d116"/>
    <path d="M368.85,403.74q15-12.48,30-24.46-20.43,2.13-40.87,5.16Q363.41,394.06,368.85,403.74Z" style="fill: #f7d116"/>
    <path d="M341.8,798.82q15-13,30-25.37-5.46-9.71-10.9-19.34Q351.35,776.37,341.8,798.82Z" style="fill: #f7d116"/>
    <path d="M341.8,798.82q14.55-17.77,29.08-35-8.82-4.18-17.62-8.2Q347.53,777.17,341.8,798.82Z" style="fill: #f7d116"/>
    <path d="M358.32,775.22q5.44-9,10.89-17.92-20.43-5.64-40.87-10.29Q343.34,760.83,358.32,775.22Z" style="fill: #f7d116"/>
    <path d="M365.4,771.61v-23q-18.52-1.22-37.06-1.6Q346.87,758.88,365.4,771.61Z" style="fill: #f7d116"/>
    <path d="M352.13,759.81q8.82,4,17.63,8.17-3.09-25.63-6.17-51.27Q357.86,738.22,352.13,759.81Z" style="fill: #f7d116"/>
    <path d="M357.42,767.2q8.81-3.06,17.62-5.94l-11.45-44.55Q360.5,741.94,357.42,767.2Z" style="fill: #f7d116"/>
    <path d="M361.77,771.38q18.54-10.35,37.06-20-18.52-1.89-37.06-3Z" style="fill: #f7d116"/>
    <path d="M368.85,775.89q15-12.48,30-24.46-20.43,2.13-40.87,5.16Q363.41,766.21,368.85,775.89Z" style="fill: #f7d116"/>
    <path d="M356.3,762.85q14.54,19.13,29.07,38.73-5.73-22.38-11.45-44.68Q365.1,759.78,356.3,762.85Z" style="fill: #f7d116"/>
    <path d="M355.39,772.41q15,14.33,30,29.17-9.54-23.66-19.09-47.12Q360.84,763.4,355.39,772.41Z" style="fill: #f7d116"/>
    <path d="M559.63,457.07q15-10.41,30-20.71l-10.89-20.93Q569.18,436.22,559.63,457.07Z" style="fill: #f7d116"/>
    <path d="M559.63,457.07q14.54-15.31,29.07-30.5-8.81-5.44-17.62-10.86Q565.35,436.38,559.63,457.07Z" style="fill: #f7d116"/>
    <path d="M576.15,436.14,587,419.85q-20.43-8.6-40.87-17Q561.16,419.44,576.15,436.14Z" style="fill: #f7d116"/>
    <path d="M583.23,433.61v-23q-18.54-4-37.06-7.73Q564.69,418.14,583.23,433.61Z" style="fill: #f7d116"/>
    <path d="M570,419.76q8.82,5.4,17.62,10.85-3.08-26.08-6.17-52.18Q575.7,399.09,570,419.76Z" style="fill: #f7d116"/>
    <path d="M575.24,428q8.82-1.69,17.63-3.35l-11.46-46.2Q578.34,403.21,575.24,428Z" style="fill: #f7d116"/>
    <path d="M579.6,432.83q18.52-7.56,37.06-15-18.52-4-37.06-8Z" style="fill: #f7d116"/>
    <path d="M586.68,438.38q15-10.31,30-20.55-20.45-.24-40.87-.37Z" style="fill: #f7d116"/>
    <path d="M574.12,423.46q14.53,21.39,29.08,42.87l-11.46-46.22Q582.93,421.78,574.12,423.46Z" style="fill: #f7d116"/>
    <path d="M573.21,432.87q15,16.68,30,33.46-9.56-24.88-19.09-49.75Z" style="fill: #f7d116"/>
    <path d="M291,517.11q5.44-9.48,10.89-18.87-20.43-3.89-40.87-6.53Q276,504.06,291,517.11Z" style="fill: #f7d116"/>
    <path d="M298.09,512.88v-23q-18.52.4-37.06,1.83Q279.56,501.76,298.09,512.88Z" style="fill: #f7d116"/>
    <path d="M284.82,502.26q8.82,3.18,17.63,6.61l-6.18-50.74Q290.55,480.15,284.82,502.26Z" style="fill: #f7d116"/>
    <path d="M290.1,509.17q8.82-3.85,17.63-7.47-5.73-21.82-11.46-43.57Q293.2,483.65,290.1,509.17Z" style="fill: #f7d116"/>
    <path d="M294.46,513q18.53-12,37.06-23-18.52-.45-37.06,0Z" style="fill: #f7d116"/>
    <path d="M301.54,516.85q15-13.77,30-26.92-20.43,3.72-40.87,8.58Q296.09,507.63,301.54,516.85Z" style="fill: #f7d116"/>
    <path d="M289,504.92q14.53,17.82,29.08,36.24-5.73-21.92-11.45-43.73Q297.79,501.06,289,504.92Z" style="fill: #f7d116"/>
    <path d="M288.08,514.56q15,13,30,26.6-9.56-22.89-19.09-45.52Q293.52,505.06,288.08,514.56Z" style="fill: #f7d116"/>
    <path d="M274.49,542.23q15-14.37,30-28.07-5.45-9.24-10.89-18.39Q284,518.87,274.49,542.23Z" style="fill: #f7d116"/>
    <path d="M274.49,542.23q14.53-19.14,29.08-37.66-8.82-3.44-17.63-6.64Q280.23,520,274.49,542.23Z" style="fill: #f7d116"/>
    <path d="M643.46,707.85l10.89-16.24q-20.43-8.64-40.87-17.33Z" style="fill: #f7d116"/>
    <path d="M650.54,705.35v-23l-37.06-8.07Z" style="fill: #f7d116"/>
    <path d="M637.27,691.43l17.63,10.94q-3.09-26.1-6.17-52.19Z" style="fill: #f7d116"/>
    <path d="M642.55,699.69l17.63-3.28q-5.73-23.11-11.45-46.23Z" style="fill: #f7d116"/>
    <path d="M646.91,704.57q18.52-7.47,37.06-15-18.53-3.93-37.06-8Z" style="fill: #f7d116"/>
    <path d="M654,710.14q15-10.26,30-20.6-20.43-.12-40.87-.37Z" style="fill: #f7d116"/>
    <path d="M641.43,695.16q14.54,21.5,29.08,42.94-5.73-23.1-11.45-46.22Z" style="fill: #f7d116"/>
    <path d="M640.53,704.57q15,16.78,30,33.53-9.56-24.87-19.09-49.77Z" style="fill: #f7d116"/>
    <path d="M626.94,728.64q15-10.25,30-20.51l-10.89-21Q636.49,707.91,626.94,728.64Z" style="fill: #f7d116"/>
    <path d="M626.94,728.64q14.53-15.15,29.08-30.31l-17.63-10.94Q632.68,708,626.94,728.64Z" style="fill: #f7d116"/>
  </g>
</svg>
