<svg xmlns="http://www.w3.org/2000/svg" viewBox="0 0 1260 1012.04">
  <g>
    <path d="M0,90.08v920C420,738.76,840,1193.28,1260,922V2C840,273.28,420-181.24,0,90.08Z" style="fill: #002b7f"/>
    <path d="M0,780.08C420,508.76,840,963.28,1260,692V577C840,848.28,420,393.76,0,665.08Z" style="fill: #f9e814"/>
    <path d="M251.16,304.52c14.79,3.86,29.59,8.28,44.38,13.16Q287.77,261.37,280,205.24,265.58,254.56,251.16,304.52Z" style="fill: #fff"/>
    <path d="M264.46,319.2q22.19-9.51,44.38-17.52Q294.43,253.15,280,205.24,272.23,262.14,264.46,319.2Z" style="fill: #fff"/>
    <path d="M275.43,327.23c31.11-18.77,62.22-35.29,93.34-50.17a747.42,747.42,0,0,0-93.34-.94Z" style="fill: #fff"/>
    <path d="M293.26,335.45c25.17-20.75,50.34-40.11,75.51-58.39a770.4,770.4,0,0,0-102.94,18.4Q279.54,315.15,293.26,335.45Z" style="fill: #fff"/>
    <path d="M266.74,336.74q13.72-21.62,27.43-42.66a598.27,598.27,0,0,0-102.94-7.38C216.4,301.67,241.57,318.46,266.74,336.74Z" style="fill: #fff"/>
    <path d="M284.57,326.78V275.67a600.07,600.07,0,0,0-93.34,11A756.26,756.26,0,0,1,284.57,326.78Z" style="fill: #fff"/>
    <path d="M261.64,309.89c24.4,25.26,48.81,51.95,73.22,79.78q-14.42-49-28.84-97.48Q283.82,300.31,261.64,309.89Z" style="fill: #fff"/>
    <path d="M259.35,331.42c25.17,18,50.34,37.51,75.51,58.25q-24-51.39-48.08-101.23Q273.07,309.64,259.35,331.42Z" style="fill: #fff"/>
    <path d="M225.14,395.24c25.17-23.52,50.34-45.36,75.51-65.84Q286.93,309,273.22,289.1,249.18,341.23,225.14,395.24Z" style="fill: #fff"/>
    <path d="M225.14,395.24q36.62-45.78,73.22-87.14-22.19-7.43-44.38-13.36Q239.57,344.65,225.14,395.24Z" style="fill: #fff"/>
    <path d="M118.37,181.21q16.63.06,33.29,1.34Q145.83,141.79,140,101.2,129.19,141,118.37,181.21Z" style="fill: #fff"/>
    <path d="M128.34,189.65Q145,178.24,161.63,168,150.82,134.37,140,101.2,134.17,145.35,128.34,189.65Z" style="fill: #fff"/>
    <path d="M136.57,193.56c23.34-20.06,46.67-38.36,70-55.15a544.33,544.33,0,0,0-70,16.82Z" style="fill: #fff"/>
    <path d="M149.94,196.31q28.32-30.56,56.63-57.9a640.91,640.91,0,0,0-77.2,33.17Q139.66,183.71,149.94,196.31Z" style="fill: #fff"/>
    <path d="M130.06,202.37q10.27-18.85,20.57-37.27a467.22,467.22,0,0,0-77.2,14.29A547.44,547.44,0,0,1,130.06,202.37Z" style="fill: #fff"/>
    <path d="M143.43,191.47V153.14a537.77,537.77,0,0,0-70,26.25A460.94,460.94,0,0,1,143.43,191.47Z" style="fill: #fff"/>
    <path d="M126.23,183.22q27.45,21.35,54.91,45.89Q170.33,195,159.51,161.43,142.88,171.74,126.23,183.22Z" style="fill: #fff"/>
    <path d="M124.51,199.8q28.32,13,56.63,29.31-18-34.06-36-66.82Q134.8,180.82,124.51,199.8Z" style="fill: #fff"/>
    <path d="M98.86,254.28q28.31-33.75,56.63-63.92-10.29-12.71-20.58-25Q116.88,209.12,98.86,254.28Z" style="fill: #fff"/>
    <path d="M98.86,254.28q27.45-41.42,54.91-79.46-16.64-1.33-33.28-1.49Q109.68,213.54,98.86,254.28Z" style="fill: #fff"/>
  </g>
</svg>
