<svg xmlns="http://www.w3.org/2000/svg" viewBox="0 0 1260 1012.04">
  <g>
    <path d="M0,90.08v920C420,738.76,840,1193.28,1260,922V2C840,273.28,420-181.24,0,90.08Z" style="fill: #0021ad"/>
    <path d="M0,90.08C420,125.43,840,886.62,1260,922V2C840,273.28,420-181.24,0,90.08Z" style="fill: #1c8a42"/>
    <path d="M630,339.83c-62.85-14-113.8,50.54-113.8,142.44,0,91.66,50.95,176,113.8,189.94s113.8-50.53,113.8-142.44C743.8,438.11,692.85,353.79,630,339.83Z" style="fill: #ffc639"/>
    <path d="M705.58,474.77c0-4.82,2.77-7.85,2.62-20.53.36-11.26-4-13.13-2.62-34.94-1.51-1.46-.61-1.57-2.9-1.31,0,0-1.81-.76-2.42,3.21-.48-.09-6.69,1.75-10.13-2.33-.64-1.79-.65-3.05-1.3-4.84-.71-2.71-4.1-4.48-5.46.11-.16,2.56.22,4.81-.48,6.72-2.58,4.13-5.65,10.84-7.9,11.45-1-.29-.86-2.39-1.6-5.41-.13-1.9-5.41-4.18-5.51,1.55.53,13.32-1,12.69-1,12.69-18.26,30.82-47.61,35.13-65.07,27-1-7.41-4.83-9-12.23-10.63-9.49,4.79-21.29-23.85-29.07-41.06h0c-1.77-1.24-7.94,5.17-5.09,17.66.48.8,9.22,14.13,9.22,14.13,2,4.21,1.09,17.85-1.1,19.51-2,1.69-5-1.14-7.06,3.15-2.4,5.68-1.83,11.88-3,19.87-2.24,2.86-5,3.07-9.69,6.92,0,0-5.88,3-5.64,12.48,1.19,3.48,7,10.67,7.14,7.39,3.62-.52,5.55-10.78,10-13.46,10.78,5.85,30.62,5,30.2,9.14,0,0,3.81,13.33,12.45,13.68,3.4-.81,2.49-2.15,4-2.94,3.06,1.13,4.21,2.4,7.27,3.54,1,1.62,2.69,5.26,5.43,6.71,3.32,3.69,25,3,26.24,25.6,0,2.82,1.93,30.69-3,60.86,5.1,2.59,15,8.71,27.84,11.12,1.93.41-.53-28.6,1.5-34.23.51-5.57,4.9-7.07,6-23,1.27-7.48,2.41-11.46,1.39-19.43-2-6.08-.89-16.68.13-21.36,2-3.46,5.72,1.68,8.61-5.7.48.11,4.83-11,4.83-11s3.31-10.27,20.61-19.53c5.94-1,2-7.6,5.93-9.88C719.24,483.65,706.46,480.86,705.58,474.77Z" style="fill: #1c8a42"/>
    <path d="M1173.59,383c-9.37-.59-15.85.51-22.69,8-2.16,2.22-4.32,4.4-6.48,6.58,0,0-10.08,1.41-10.08.34-22.4,5.47-20.22-104-28.14-146.84h0c-5.15-27.94-51.31-80.74-86-118.31-8.28-7.31-13.68-2-12.6,9.7,4.32,10.12,7.56,21.35,11.88,31.39,1.2,6.88,3.48,11.52,4.68,18.38,0,0,.36,12,1.08,13,10.8,16,12.24,30.42,12.25,30.45,6.23,16.61,11.76,28.59,22.68,41,12.24,8.89,3.24,45.47,3.59,64,0,11.74-5.75,11.45-10.79,10.89-39.73-46.43-79.1-44.42-113.78-60.23-13.57-2.28-13.81,7.08-9.36,12.46,24.24,38.33,47,63.79,77,82.7q7.56,6.15,15.12,12.12,8.64,9.51,17.28,18.76c13.32,10.6,14.41,21.85,14.41,22.92.36,23.62-8.29,43.46-10.81,51.19-4.54,25.81-13.67,31.39-13.67,31.37C955,603.12,916.14,623.86,795.88,584.17c-1.8-1.67-13.32-.73,0,8.42,30.61,19.8,105.79,54.66,178.53,1.09,17.46-18.62,29.14-13.75,41.79-25.76,20.78-20.67,50.45-49.4,55.85-53.33,16.2-15.25,61.57-42.57,72-59.64,12-5.65,24.43-13.1,25.27-28.52,3.94-5.35,9.7-5.11,14-19.32,9.52-6.72,7.92-11,7.91-11C1188.83,387.44,1179.94,387.46,1173.59,383Z" style="fill: #ffc639"/>
    <path d="M1154.62,405.44a6.33,6.33,0,0,0-6.47,4.76,4.53,4.53,0,0,0,4.12,5.67,6.31,6.31,0,0,0,6.46-4.82A4.46,4.46,0,0,0,1154.62,405.44Z" style="fill: #1c8a42"/>
    <path d="M239.32,300.37q5.55-14.5,11.09-28.92-10.54,5.63-21.09,11.61-4-14.46-7.95-28.87-4.1,15.51-8.21,31.07-10.5-3.12-21-5.83,5.42,12.9,10.84,25.91Q193.88,316,184.77,326.9q10.86.21,21.73.88l-1.74,32.32q8.13-12.25,16.26-24.27,8,9.81,16.06,19.85h0q-.72-15.94-1.46-31.89,10.89-3.65,21.78-6.88Q248.36,308.51,239.32,300.37Z" style="fill: #fff"/>
    <path d="M283,571.8q-3.52-13.92-7-27.8-3.14,14.41-6.28,28.88-10.51,1.1-21,2.53,8.56,7.82,17.12,15.88l-5.94,29.09q8.44-9.57,16.87-18.91,8.67,8,17.33,16.17h0q-3.35-14.05-6.68-28.08,8.31-9.43,16.64-18.65Q293.53,571.2,283,571.8Z" style="fill: #fff"/>
    <path d="M242.5,795.09q5.53-14.48,11.09-28.86Q243,771.8,232.5,777.72q-4-14.49-7.95-28.91-4.11,15.48-8.21,31-10.5-3.18-21-6,5.41,12.95,10.84,26-9.12,10.57-18.24,21.45,10.88.29,21.74,1-.87,16.16-1.75,32.32,8.13-12.21,16.26-24.18,8,9.85,16.07,19.93h0q-.73-15.95-1.46-31.89,10.89-3.59,21.78-6.77Q251.54,803.28,242.5,795.09Z" style="fill: #fff"/>
    <path d="M98.12,562.23q5.53-16.08,11.09-32-10.54,8.53-21.09,17.58-4-13.32-8-26.55Q76.06,538,72,554.74q-10.5,0-21,.6,5.41,11.2,10.84,22.56-9.12,13.41-18.24,27.24,10.88-3.23,21.74-5.87-.87,16.43-1.75,32.86Q71.68,617.4,79.81,603q8,7.44,16.07,15.19h0q-.73-15.74-1.46-31.47,10.89-6.75,21.78-13Q107.16,567.8,98.12,562.23Z" style="fill: #fff"/>
    <path d="M375.94,455.25q5.55-13.46,11.09-26.83-10.54,3.66-21.09,7.56-4-15.24-7.95-30.45-4.1,14.67-8.21,29.38-10.5-5.3-21-10.32,5.42,14.1,10.84,28.27-9.12,8.67-18.24,17.57,10.88,2.64,21.74,5.6-.87,16-1.75,32,8.13-10.53,16.26-20.89,8,11.43,16.07,23h0Q373,494,372.24,478q10.89-1.53,21.78-2.8Q385,465.12,375.94,455.25Z" style="fill: #fff"/>
  </g>
</svg>
