<svg xmlns="http://www.w3.org/2000/svg" viewBox="0 0 1260 1012.04">
  <g>
    <path d="M0,90.08v920C420,738.76,840,1193.28,1260,922V2C840,273.28,420-181.24,0,90.08Z" style="fill: #fff"/>
    <path d="M418.28,614.39c0,3.2,2,7.36,4.24,11.38,2.1,3.83,4.22,7,4.24,7h0c0-.12,1-11.52,1-23s-11.16-17.45-11.63-17.68h0c0,.34.55,4.32,1.05,9C417.62,604.7,418.28,611.3,418.28,614.39Z" style="fill: #4e5b31"/>
    <path d="M454.5,681Z" style="fill: #4e5b31"/>
    <path d="M411.84,661.4a13.63,13.63,0,0,0,.77,5.78c.69,1.8,3,6.07,9.74,6.9h0q3.86.48,4.95-1.25c.9-1.46-.19-3.61-.55-4.24a15.6,15.6,0,0,0-11.32-7.28l-.23,0a13.49,13.49,0,0,0-3.36.09Z" style="fill: #4e5b31"/>
    <path d="M421.14,639.28a8.4,8.4,0,0,0-1.79,0h0c1.16,14.51,10.65,24.94,18.41,31.26A80.44,80.44,0,0,0,454.5,681c-6-15.82-12.78-27.44-20.09-34.52-5.74-5.56-10.48-6.87-12.8-7.15Z" style="fill: #4e5b31"/>
    <path d="M481,687.9a6.92,6.92,0,0,0,4.44,2.76h0a2.71,2.71,0,0,0,3.24-1.55,7.34,7.34,0,0,0-.34-4.71c-1.19-3.52-4-7.35-7.48-7.94l-.15,0a5.14,5.14,0,0,0-2.19.18,24.75,24.75,0,0,0,.49,6.5A12.31,12.31,0,0,0,481,687.9Z" style="fill: #4e5b31"/>
    <path d="M535.29,725.66h0c-8.29-28.9-24.48-36.43-33.4-38.25l-.77-.15-.74-.12a23.58,23.58,0,0,0-5.46-.27,47.4,47.4,0,0,0,7.3,14.72C507.53,709,517.57,719.19,535.29,725.66Z" style="fill: #4e5b31"/>
    <polygon points="511.37 723.47 511.36 723.47 511.36 723.48 511.37 723.47" style="fill: #4e5b31"/>
    <path d="M546.84,730.18a7.33,7.33,0,0,0,4.44,3h0a2.69,2.69,0,0,0,3.28-1.43,7.56,7.56,0,0,0-.38-4.78c-1.19-3.56-4-7.47-7.48-8.18l-.15,0a5.26,5.26,0,0,0-2.19.1,25.76,25.76,0,0,0,.49,6.57A12.78,12.78,0,0,0,546.84,730.18Z" style="fill: #4e5b31"/>
    <path d="M471,690.06l-.52-.08a16.46,16.46,0,0,0-5.44,0h0a21.65,21.65,0,0,0,1.27,3.94,35.17,35.17,0,0,0,5.94,9.32c5.71,6.55,17.14,15.25,39.17,20.21h0C493.52,697.22,478.4,691.26,471,690.06Z" style="fill: #4e5b31"/>
    <path d="M526.43,740.08a20.46,20.46,0,0,0,5.16,7.33c5.21,4.9,13.12,8.44,23.5,10.58h0a121,121,0,0,0,16.14,2.07h0v0c-12.88-16.38-25.08-21.73-33.1-23.33-.57-.12-1.11-.21-1.65-.29a26.61,26.61,0,0,0-10.87.4A13.37,13.37,0,0,0,526.43,740.08Z" style="fill: #4e5b31"/>
    <path d="M565.54,766.46l-.16,0c-7.92-1.62-12.83,0-15.54,1.62a11.33,11.33,0,0,0-4,3.93h0c9,7.48,18.37,12.3,27.86,14.3v0c15.13,3.2,25.55-1.95,26-2.19C586.4,774.36,574.92,768.42,565.54,766.46Z" style="fill: #4e5b31"/>
    <path d="M528,753.53l-.15,0a5.1,5.1,0,0,0-2.19.12,25.18,25.18,0,0,0,.49,6.56,12.66,12.66,0,0,0,2,4.8,7.26,7.26,0,0,0,4.44,2.92v0a2.72,2.72,0,0,0,3.28-1.45,7.56,7.56,0,0,0-.38-4.78C534.26,758.1,531.49,754.21,528,753.53Z" style="fill: #4e5b31"/>
    <path d="M396.45,620.82c6.41,4.66,12.2,8.07,15.5,9a2.41,2.41,0,0,0,.35.07h0a1.3,1.3,0,0,0,.62-.07,1.16,1.16,0,0,0,.54-.62,5.16,5.16,0,0,0,0-2.73,49.78,49.78,0,0,0-2.83-9.14c-2.48-6.39-5.66-13-6-13.79l0-.06a164.53,164.53,0,0,0-10.08-13.26,79.37,79.37,0,0,0-9.08-9.29c-3.56-3-6.2-4.43-8.67-4.67a5.09,5.09,0,0,0-1.84.17,73.11,73.11,0,0,0-.12,11c.53,8.12,2.36,14.31,5.43,18.41C383.56,610.37,389.34,615.65,396.45,620.82Z" style="fill: #4e5b31"/>
    <path d="M604.91,773.81C589,737.36,572.46,730.29,566,729a14.2,14.2,0,0,0-3.72-.33h0v0c0,.07-1,7.18,3.68,16,4.37,8.33,14.67,20.08,39,29.15h0l0,0Z" style="fill: #4e5b31"/>
    <path d="M629.15,791.3l-14.57-10-4.25,4.3,7.94,5.78,10.88,6,1.11,1.82c.68,1.11,4.28,7,8.64,13.93,2.2,3.48,4.7,7.42,6.57,10.15,1,1.48,1.76,2.45,2.21,3l.18.22a2,2,0,0,0,.48.48h.15l2.75.32-1.35-1.45-1.25.58a3.09,3.09,0,0,1,.35-.65,12.41,12.41,0,0,1,1.31-1.46,50.79,50.79,0,0,1,4-3.4c2.87-2.23,5.75-4.23,5.79-4.26h0L640,796.11Z" style="fill: #4e5b31"/>
    <path d="M516.62,737.57c-5.24-5.3-13.09-9-23.36-10.78l-2.06-.34a92.09,92.09,0,0,0-21.74-.51h0v0c9.38,11.77,24.42,18,35.36,20.06v0l.84.12c6,1,10.17.76,12.53-.74a3,3,0,0,0,1.48-3C519.44,741,518.44,739.41,516.62,737.57Z" style="fill: #4e5b31"/>
    <path d="M471.86,718.48a6.92,6.92,0,0,0-.25-4.08,13.27,13.27,0,0,0-2.37-4.44,6.2,6.2,0,0,0-3.62-2.36h0a3.66,3.66,0,0,0-1.7.15v0a24.47,24.47,0,0,0,.41,5.7,11,11,0,0,0,1.55,4.11,5.3,5.3,0,0,0,3.47,2.35h0A2.24,2.24,0,0,0,471.86,718.48Z" style="fill: #4e5b31"/>
    <path d="M438.79,682a57.58,57.58,0,0,0-12-2.87l-1-.12a53.46,53.46,0,0,0-14.65.27h0a7.9,7.9,0,0,0,0,1.65,11.49,11.49,0,0,0,1.45,4c1.7,3,5.69,7.33,15,11.06a71.88,71.88,0,0,0,16.74,4.47h0a64.68,64.68,0,0,0,17,.36h0C461.19,700.75,453.54,687.29,438.79,682Z" style="fill: #4e5b31"/>
    <path d="M414,652.14h0A21,21,0,0,0,409.56,641c-4.1-5.32-12.88-12.35-31.47-14.47h0a44.94,44.94,0,0,0,2.52,9.8c1.8,4.63,5.2,10.51,11.22,12.27a93,93,0,0,0,15.59,3.06h0C411.39,652.11,414,652.14,414,652.14Z" style="fill: #4e5b31"/>
    <path d="M474.71,683.4l0,0v0c-5-18.17-10.82-31.83-17.37-40.57-5.7-7.61-10.84-9.9-14.21-10.48l-.65-.1a3.15,3.15,0,0,0-.43-.05,8.91,8.91,0,0,0-4,.54c7,19.15,16.57,31.86,23.4,39.21a69.86,69.86,0,0,0,13.26,11.47Z" style="fill: #4e5b31"/>
    <path d="M748.64,772.79h0c22,3.26,33.46-1.76,39.17-6.41a22.2,22.2,0,0,0,5.94-7.39,16.56,16.56,0,0,0,1.27-3.54l0,0a20.13,20.13,0,0,0-5.44-1.76l-.52-.09C781.6,752.39,766.48,753.26,748.64,772.79Z" style="fill: #4e5b31"/>
    <path d="M688.77,785.4h0a124,124,0,0,0,16.14,4.65h0c10.38,2.14,18.29,1.75,23.5-1.09a11.71,11.71,0,0,0,5.16-5.32,10.1,10.1,0,0,0,.83-2.94A36.12,36.12,0,0,0,723.53,776l-1.65-.37c-8-1.6-20.22-1.22-33.1,9.73Z" style="fill: #4e5b31"/>
    <path d="M757.78,754.29a30.61,30.61,0,0,0,7.3-12.08,27.28,27.28,0,0,0-5.46-1.7l-.74-.15-.77-.13c-8.92-1.39-25.11-.07-33.4,25.5h0C742.43,766.29,752.47,759.79,757.78,754.29Z" style="fill: #4e5b31"/>
    <polygon points="748.64 772.8 748.64 772.8 748.63 772.8 748.64 772.8" style="fill: #4e5b31"/>
    <path d="M805.5,749.71a53.86,53.86,0,0,0,16.76-5.59c7.76-4.16,17.25-12.24,18.41-26.49h0a10,10,0,0,0-1.79-.46l-.47-.07c-2.32-.28-7.06-.16-12.8,3.84C818.28,726.05,811.54,735.71,805.5,749.71Z" style="fill: #4e5b31"/>
    <path d="M833.23,709.27h0a71.5,71.5,0,0,0,4.24-6c2.2-3.47,4.24-7.14,4.24-10.34s.66-9.53,1.06-13.09c.5-4.52,1-8.37,1.05-8.7h0c-.47.15-11.63,3.35-11.63,14.8s1,23.16,1,23.27Z" style="fill: #4e5b31"/>
    <path d="M833.25,745.06c-.36.54-1.45,2.41-.55,4.11.73,1.33,2.38,2.17,4.95,2.49h0c6.74.83,9.06-2.93,9.74-4.57a12.62,12.62,0,0,0,.77-5.59v0a14.23,14.23,0,0,0-3.36-.87l-.23,0C839.25,739.94,835.05,742.36,833.25,745.06Z" style="fill: #4e5b31"/>
    <path d="M774.56,749.33h0A4.9,4.9,0,0,0,779,748.1a8.49,8.49,0,0,0,2-4.13,23.25,23.25,0,0,0,.49-6.33,6.64,6.64,0,0,0-2.19-.91l-.15,0c-3.51-.6-6.29,2.26-7.48,5.36a6.92,6.92,0,0,0-.34,4.6A4.1,4.1,0,0,0,774.56,749.33Z" style="fill: #4e5b31"/>
    <path d="M805.5,749.72h0Z" style="fill: #4e5b31"/>
    <path d="M708.72,766.74v0a4.77,4.77,0,0,0,4.44-1.14,8.13,8.13,0,0,0,2-4,23.9,23.9,0,0,0,.49-6.37,7,7,0,0,0-2.19-1l-.15,0c-3.52-.71-6.29,2.06-7.48,5.13a7,7,0,0,0-.38,4.62A4.35,4.35,0,0,0,708.72,766.74Z" style="fill: #4e5b31"/>
    <path d="M710.16,802.27a30.37,30.37,0,0,0-15.54-8l-.16,0c-9.38-2-20.86-.91-34.12,3.12a59.22,59.22,0,0,0,26,13.31h0a45.69,45.69,0,0,0,27.86-2.77h0A20.1,20.1,0,0,0,710.16,802.27Z" style="fill: #4e5b31"/>
    <path d="M822,706.17a11.72,11.72,0,0,0-4-1.66l-.43-.08-.65-.07c-3.37-.38-8.52.41-14.21,6.27-6.55,6.74-12.39,18.51-17.37,35v.05h0c.05,0,5.92-1.6,13.26-7.19C805.39,733.3,815,723.42,822,706.17Z" style="fill: #4e5b31"/>
    <path d="M850.44,721.63a16.87,16.87,0,0,0-4.48,10.1h0s2.64.59,6.63,1h0a75,75,0,0,0,15.59.14c6-.63,9.42-5.95,11.22-10.28a40.11,40.11,0,0,0,2.52-9.39h0C863.32,712.3,854.54,717.17,850.44,721.63Z" style="fill: #4e5b31"/>
    <path d="M848.86,759.53a65.79,65.79,0,0,0-14.64-3.8l-1-.14a57.69,57.69,0,0,0-12-.32,31.77,31.77,0,0,0-22.47,12.23h0a67.5,67.5,0,0,0,17,4.72h0a58.75,58.75,0,0,0,16.74.09c9.28-1.35,13.27-4.8,15-7.4a9.18,9.18,0,0,0,1.44-3.72,7.42,7.42,0,0,0,0-1.64Z" style="fill: #4e5b31"/>
    <path d="M883.29,663.21c-2.47-.15-5.11.85-8.67,3.23a64.16,64.16,0,0,0-9.08,7.61,130.78,130.78,0,0,0-10.08,11.19l-.05.06c-.37.69-3.55,6.62-6,12.45a41,41,0,0,0-2.83,8.49,5.19,5.19,0,0,0,0,2.73,1.62,1.62,0,0,0,.54.75,1.58,1.58,0,0,0,.62.21h.34c3.3-.23,9.09-2.34,15.5-5.73,7.11-3.76,12.89-8.05,16.27-12,3.07-3.6,4.9-9.51,5.43-17.55a73.73,73.73,0,0,0-.12-11A5.47,5.47,0,0,0,883.29,663.21Z" style="fill: #4e5b31"/>
    <path d="M630.85,791.67l-10.87.07q-10.05,5.91-20.11,11.84h0s2.92,3.3,5.79,6.77c1.27,1.55,2.89,3.54,4,5.15a23,23,0,0,1,1.31,2,5.07,5.07,0,0,1,.35.8l-1.25-1.13-1.35.86,2.75.88.13.06,0,0a1.08,1.08,0,0,0,.48-.27l.18-.14a24,24,0,0,0,2.21-2c1.87-1.92,4.37-4.77,6.57-7.29,4.36-5,8-9.34,8.64-10.16l1.11-1.34,10.88-1.3,7.94-2.33L645.42,788Z" style="fill: #4e5b31"/>
    <path d="M694.07,772.25a23.06,23.06,0,0,0,3.68-14.5v0h0a17.42,17.42,0,0,0-3.72-1.22c-6.47-1.35-23-1.29-38.92,28.25v0h0C679.4,786.22,689.7,778.73,694.07,772.25Z" style="fill: #4e5b31"/>
    <path d="M732.18,796.52l-.15,0c-3.52-.69-6.29,2.1-7.48,5.18a7,7,0,0,0-.38,4.63,4.33,4.33,0,0,0,3.28,2.74v0a4.77,4.77,0,0,0,4.44-1.17,8.2,8.2,0,0,0,2-4,23.45,23.45,0,0,0,.49-6.37A7,7,0,0,0,732.18,796.52Z" style="fill: #4e5b31"/>
    <path d="M796.09,773.55a4.62,4.62,0,0,0-1.7-.69h0a4.36,4.36,0,0,0-3.62,1.19,8.81,8.81,0,0,0-2.37,3.67,6.59,6.59,0,0,0-.25,4,3.35,3.35,0,0,0,2.52,2.27h0a3.69,3.69,0,0,0,3.47-1.23,8,8,0,0,0,1.55-3.62,23.16,23.16,0,0,0,.41-5.57Z" style="fill: #4e5b31"/>
    <path d="M768.8,783.12c-.68-.14-1.37-.27-2.06-.39-10.27-1.83-18.12-1.13-23.36,2.18-1.82,1.15-2.82,2.36-3,3.68a4.41,4.41,0,0,0,1.48,3.58c2.36,2.4,6.57,4.24,12.53,5.45l.84.18v0c10.94,2,26,1,35.36-7.8h0A121.32,121.32,0,0,0,768.8,783.12Z" style="fill: #4e5b31"/>
    <path d="M1014.69,249.46l-1.29.7-4,.16-3.74,2.31q-3.31,2.77-6.64,5.52l-.29.25-2.47.9-2.3-.92-1.31.74-.45,3c-.41.74-.82,1.47-1.24,2.2l-1.53,1.27c-1.76.31-3.53.62-5.29.91l-4.47,2.75c-1.94-.47-3.87-1-5.81-1.45l-2.7,1.26c-1.91,2-3.82,3.9-5.74,5.84l-2.93,1.59-1,0c-1.3,0-2.6-.09-3.89-.15l-1.65.62-2.45,2.62-4.64.43-1.45,1.1-2.26,5-2.46,2.77-1.4.31-1.52-.62-1.15.21-.51,3.19L937,293.22l-3.11,1.12-2.48,2.22-2.18,1.18-2.92-.15-.67,0-2.91,1.67q-2.73.18-5.46.33L915,301.86l-.5.48-1.06.66-1.73,1.06-.43.26-2.09-.51-2.45.94-1-1.72-1.7,1-2.25,0L899,302.51l-2.13-1.17-1.56.14-.54,2.94-.06.31L893.05,307l-3,1.82-.42.56-3.48,4.67q-3.3,3.56-6.61,7.09l-5.59,2.63-5.79,1.4-4.06,3.26q-5.32,2.35-10.64,4.67-8.4,3.64-16.79,7.17l-3.43.77-4.93.22q-4.39,1.2-8.79,2.35c-2.59.49-5.17,1-7.76,1.45l-.43.08-1.53.29q-5.47,1-10.94,2L793.73,346l-3,.71-7.85-2.24-5.45-.81-3.45.19-6.5,2.28q-5.48,1.91-11,3.79l-3.62,3-5.64,2.17-6.6,1v-3l0-.13-2.29.35-1.65.25-5.36-.13-3-.59-1.85-.95-.28.05-11,1.76-12.2-1.21-6.11.88-4.56-1-2.86.33-5.59-.44-2-1-.45-.23L665,348.23l-7.52-2.56-3.59.12-6-3.52-8.77-3-2-1.12-4.62-2.5-2.08.86-1.57-.16-3.73-2.3-1.34-.33-3.09.55-1.77-.88-1.65-1.8-3.86-1.47L611,327.41l-13.16-.94-3.57-1.92q-6-3.21-12-6.39l-1.9-.3L578,319.3l-3.57.67-3.09.23-4.22-.72-4.89-2.43-5-3.73-1.87-.87-4.16-.4-1.28-.13-7.65-6.05-9.86-8.72-6.69-4.83-2.51-.93c-.11.41-.22.83-.34,1.24.42,1.52.83,3,1.25,4.54l.42,4.34-.12,3.91c0,.8,0,1.61-.07,2.42.21.76.41,1.53.62,2.3l2.42,3.4c.33,1,.67,2.1,1,3.14.25,2.75.49,5.5.74,8.25,0,2.74,0,5.48,0,8.22L527.93,346l-.4,1.92c-.47,2.17-.93,4.35-1.4,6.52-.43,2-.85,4-1.28,6q-2.48,7.83-5,15.65l-1.37,1.8-3.35,1.87L507.59,384l-5.59,2.5-1.77.48-4.53-.44-2.83-.67-3.51-2.7-3.46-1.58-4.52-4.34-5-2-5.51-4.41-1.44-2.12-3-.79-4.17-2h0l-1.53-.74-1.05-.5h0l-5.32-1-4.95-3.25-2.61-1.07-3.57-.71-3.73,1.38h0l-1.9.7-2.39-1.36-1.72-.12c-.66,1-1.31,2-2,3l-.3.47-1.35.6-1.68-.24-1.31-.21-1.42.5-1.92.67h0l-1.69.6-.82.29,0,0-.51,0-.9.06-1.12.1-2-1.5-1.05-.8-1.76-.6-.95.64c-.06,1.17-.13,2.34-.19,3.51l-.86,2-2.75,2.35-2.79,2.38L404.19,376,399,388.37l-3.22,4.86-1,1.12c-1.13,1.24-2.25,2.49-3.38,3.75l-3,2.26-6.89,5.25c-2.17.7-4.35,1.42-6.52,2.14l-5.62.85-2.73-.18c-1.72-.37-3.45-.73-5.17-1.08l-4.66-1.84q-2.55-1.89-5.11-3.77c-1.86-1.73-3.73-3.47-5.6-5.19q-4-4.56-8.11-9.08l-1.15-.79-.24-.19-2.55-1.86h-1.9l-.74,1.33c-.14.64-.27,1.28-.41,1.92l-.34,1.71-.93,9.74c0,.19.05.38.07.57.16,1.34.32,2.69.49,4l6.16,9.6,1.9,5.07.31.58c.43.79.85,1.59,1.27,2.38l1,1.82.1.18,2.1,7c-.49,1.28-1,2.56-1.48,3.83l.75,2.63-1.87,1.52c-.11.75-.23,1.49-.34,2.24l5.53,7.81c.4,1.13.8,2.26,1.21,3.4l-1.35,4.59c-.72.82-1.44,1.64-2.15,2.47l-.6.68.3,2,2.54,2.61,4.33,4.41c.77,2.13,1.54,4.25,2.3,6.38l1.76,1.77,2-.37,1.13,1,1.72.06,1.69,2,1.1.65,1.73,1.05,1.36,2c.1,2,.21,4,.31,6l2.55,7.62c0,1.35,0,2.7,0,4,0,.2,0,.39,0,.58l1.59,3.1c.16.79.33,1.59.5,2.39q-.44,3.09-.85,6.18c.68.71,1.35,1.43,2,2.15l2.2-.33,1.41.35,2.28,2.25,2.76,4.82,2.69-.21,1.71,1.05q4.14,4.46,8.27,8.93l1.87,1.22.11.07,1.34.88,1.68,2,2.6-1.63h.29l2.82,0,1.24,1,2.39,2,3.13.3,6.78,3.06,3,1.19,6,4.8,2.53,2.05,1.51,1.53,2,2,4,2.41,3.42,1.36,1.85.74,1.39.79,0-.09h0l0,.09c2.47,1.38,4.93,2.77,7.4,4.17l4,1.62,3.7,2.06,2.7,1.49,2,.35,2.8-2.14,2.71.26,2.26,1,2.19,0,3.48-1.77.68-1,2.47-.87c2.77.08,5.55.18,8.32.29l2.43,1.28,6.25-1.87,4.18,2,3.7-.76,8.09,3.47,2.15,2.06,2.41,3.47.29.07,2.68.56c-.38.61-.75,1.22-1.12,1.83l3.53,4.74,3.19,5.9c.07.24.15.49.22.74.77,2.63,1.54,5.27,2.32,7.9.57,1,1.15,2,1.72,3,.4,1.31.81,2.62,1.21,3.93l.06,2.41-1.88,1.2c-.1.28-.2.56-.31.84,0,.1-.07.2-.1.31.12.36.25.72.38,1.08l.71-.29,1.34-.55,1.64,0,2.89.91,1.91.6,3-1,2-.68,3.21,2.16,3.53.67,1.48,1,4.19,2.94,2.15.66.79-.41.5-1.21c-.09-.52-.17-1-.26-1.58l-1.6-2.36-3.54-5.23-1.46-2.61c-.36-1.19-.73-2.39-1.1-3.58-.11-1.45-.23-2.9-.34-4.35-.08-1-.17-2-.25-2.94.15-1.24.3-2.47.44-3.71l1-1.16c.23-1,.46-1.92.7-2.88h0l.18-.76c.65-.82,1.31-1.64,2-2.45l5.21-2.6,5.6-4.33,4.43-2.27,4.56-1.2.12-.58.51.33,11.61-1.86.19,0,5.17.12q17.44,5.1,34.89,10.26l1.29-.15h0c.39-1.1.77-2.21,1.16-3.32l.63-.52c.13-.12.27-.23.41-.34l3.84-1,1.79.11,5,2.44,2,1,3.26-1.29,2.32.54,4.78-1.82,3,.72,1.12-.24,5.76-3.29,5.54-.55,1.45-.53.5-.19,5.69-2.07L678.8,564l3.11-1.15,3.42-.24,8.93,1.19,1.8-2.91,3.84.24c.77-.79,1.54-1.59,2.32-2.38l2.65-.64,1.9-2.61,1.6-2.19,2.23-1,7.14,1,8.46,2.84,1.12-.52c.64-2.37,1.27-4.74,1.91-7.1l2-1,5.39-7.56c0-1,0-2.09,0-3.13,0-.87,0-1.75,0-2.62.29-1.18.59-2.37.88-3.56l-.6-6.85.72-6.67q1.67-4,3.35-8l3-2.94,4.76-2.63,2.42-.7h4.81c3.93.66,7.87,1.32,11.8,1.95.17-.1,4.3.69,4.3.69l3.94.62q5,1.83,9.95,3.62l.71.25,3.37,1.75,3.88,3.93,4.11,5,.78.94,2.66,1.64.8.51,2.2,0,3.13-1.31,2.37-1.84,3.22-1.46.08-.11,1.81-2.72.06-.06,0,0v0h0l.71-1.08,6.23-1.79c2.44.18,4.88.36,7.32.52l.82-.38.46-.21L832.6,511l1.81.21,4.39,2.29,3.08-.29,2.45,1.36,1.91,0,3.59-.06q1.92,1.71,3.86,3.4l2.24.56q4,3,7.92,5.89l.42.11.21.07.45.12.94-.21,1.4-.31.18,0,.18.28.9,1.48,1.23.31,1.47-2-.59-1-.22-.37-2.82-.89-2.55-5c.81-.87,1.62-1.74,2.42-2.62-1.26-1.82-2.53-3.64-3.79-5.47l-.63-.9c-.07-.13-.14-.26-.22-.38-.43-.78-.87-1.55-1.31-2.32q-3.32-5.88-6.64-11.79-4.33-4.25-8.66-8.54h0l-3-3,0,0-1.06-1-4.62-5.72-3.31-5.21c-.14-.36-.28-.73-.43-1.09l-.68-1.71-2-5-3.44-3.36q-1.41-1.86-2.81-3.74l-.14-.21-5.8-9.43c-.31-.53-.63-1-.95-1.58l-1.37-1.06-2.89-.44-.27-.34-.17-.21.1-.09,1.39-1.31,1.55-.21.66-1.57q-1.47-4.89-3-9.79l0-.33-.22-3q1.2-6.61,2.41-13.23c.1-.54.2-1.07.31-1.61q2-4.28,4.1-8.56l2.53-1.93c.93-1.86,1.85-3.72,2.78-5.59l2.37-3.5,2.28-2.12.39-.21,4.11-2.19,3.45-.11,3.29-.1,5.74,2.61,5.46.5h1.07l2.47,0,4.08-1,1.92-1.11c.34-.52.67-1,1-1.57l2.08-7.45c.23-.79.45-1.58.67-2.37l1.29-2.52q3.71-4.32,7.42-8.68c1.88-1.74,3.75-3.47,5.62-5.22q6.31-4.54,12.63-9.2l6.18-3.65,3.15-1.88q14.09-6.07,28.18-12.62,3.66-4,7.32-8l3.82-4.19q3.38-2.46,6.74-5,4-1.78,7.9-3.61,3.4-3,6.8-6l1.48-2.08c.63-2.22,1.25-4.43,1.87-6.65l1.56-.46,1.41-3.38c.13-.32.26-.64.4-1l5.54-4.49.63-.37q10.77-6.37,21.54-13.1l3.13.22,1.68-2.89q3.13-.83,6.27-1.71l1.15-.32,1.55-1,1.31-2.58V265l.18-6.57c.45-.64.89-1.28,1.34-1.91.24-1.47.49-2.93.73-4.4l.69-1.06.72-1.12,1.77-1.56-.29-.73Z" style="fill: #d57800"/>
    <path d="M1018,247.62l0,0h0Z" style="fill: #d57800"/>
  </g>
</svg>
