<svg xmlns="http://www.w3.org/2000/svg" viewBox="0 0 1260 1012.04">
  <g>
    <path d="M0,90.08v920C420,738.76,840,1193.28,1260,922V2C840,273.28,420-181.24,0,90.08Z" style="fill: #6ab2e7"/>
    <path d="M0,1010.08C420,738.76,840,1193.28,1260,922V462C840,733.28,420,278.76,0,550.08Z" style="fill: #12ad2b"/>
    <path d="M727.46,526.61C606.22,426,485,316,363.73,231.65S121.24,88.42,0,90.08v920c121.24-155,242.49-249.49,363.73-318.43S606.22,579.34,727.46,526.61Z" style="fill: #fff"/>
    <path d="M304.47,432.91q-13-43.77-26.07-87-13,44.6-26.06,89.71A571.42,571.42,0,0,0,168,449.67c22.74,12.49,45.49,26.54,68.23,41.92q-13,45.49-26.06,91.57c22.74-21.87,45.49-42.32,68.23-61.58,22.75,16.94,45.49,35.07,68.24,54.15q-13-44.49-26.07-88.55c22.75-17.88,45.49-34.71,68.24-50.73A812,812,0,0,0,304.47,432.91Z" style="fill: #d7141a"/>
  </g>
</svg>
