<svg xmlns="http://www.w3.org/2000/svg" viewBox="0 0 1260 1012.04">
  <g>
    <path d="M0,90.08v920C420,738.76,840,1193.28,1260,922V2C840,273.28,420-181.24,0,90.08Z" style="fill: #006b3f"/>
    <path d="M551.25,29.2v920c26.25,5.37,52.5,11.1,78.75,16.82V46C603.75,40.3,577.5,34.57,551.25,29.2Z" style="fill: #fcd116"/>
    <path d="M0,550.08C420,278.76,840,733.28,1260,462V347C840,618.28,420,163.76,0,435.08Z" style="fill: #fcd116"/>
    <path d="M630,46V966c26.25,5.73,52.5,11.45,78.75,16.82v-920C682.5,57.47,656.25,51.75,630,46Z" style="fill: #fff"/>
    <path d="M0,665.08C420,393.76,840,848.28,1260,577V462C840,733.28,420,278.76,0,550.08Z" style="fill: #fff"/>
    <path d="M603.75,40.31v920Q630,966,656.25,971.73v-920Q630,46,603.75,40.31Z"/>
    <path d="M0,588.41C420,317.09,840,771.62,1260,500.3V423.63C840,695,420,240.43,0,511.74Z"/>
    <path d="M630,276c-87-19.64-157.5,71.14-157.5,198.49C472.5,601.21,543,716.38,630,736s157.5-71.13,157.5-198.48C787.5,410.83,717,295.66,630,276Z" style="fill: #d41c30"/>
    <path d="M634.59,325.12,630,303.42q-2.52,10-5,19.94L610,320.45,622,336.28q-2.54,10.65-5.05,21.3L630,346.86q6.66,8.58,13.31,17.15-2.74-12.13-5.51-24.28L650,328.81Z" style="fill: #006b3f"/>
    <path d="M635,324.45,630,301q-2.73,10.74-5.44,21.49l-16.08-3.14,12.85,17-5.43,22.92L630,347.81l14.37,18.5q-3-13.08-6-26.17l13.07-11.73Zm7.29,37.25L630,345.92l-12.09,9.9q2.33-9.84,4.66-19.69l-11-14.62,13.76,2.69q2.34-9.19,4.66-18.38l4.23,20,14.24,3.41-11.27,10.11Q639.72,350.51,642.26,361.7Z"/>
    <path d="M643.08,654.46,630,665.18,616.69,648q2.74,12.13,5.51,24.27L610,683.23l15.38,3.69,4.59,21.7,5-19.93L650,691.6,638,675.77Q640.57,665.12,643.08,654.46Z" style="fill: #006b3f"/>
    <path d="M644.08,652.71,630,664.24l-14.38-18.51q3,13.1,6,26.17-6.54,5.86-13.07,11.74l16.52,4L630,711q2.71-10.75,5.44-21.49l16.08,3.13-12.85-17Zm4.36,37.82-13.76-2.68Q632.34,697,630,706.23l-4.23-20-14.24-3.42,11.27-10.11q-2.54-11.19-5.08-22.38L630,666.13l12.09-9.91q-2.34,9.84-4.67,19.69Q642.93,683.23,648.44,690.53Z"/>
    <path d="M711.55,359.51,699,369.61q-6.11-7.53-12.2-15.09,2.16,10.94,4.33,21.86l-13.1,11q8,1.83,16,3.64l5,24,4.83-22.4q7.65,1.32,15.31,2.58-6.16-8-12.31-16Z" style="fill: #006b3f"/>
    <path d="M712.53,357.78,699,368.68l-13.16-16.27q2.34,11.77,4.67,23.54-7.05,5.94-14.1,11.85,8.64,2,17.27,3.92,2.72,13,5.44,25.91,2.6-12.08,5.2-24.15,8.22,1.39,16.44,2.76l-13.22-17.15Q710,368.44,712.53,357.78Zm5.18,36.42q-7.08-1.17-14.17-2.39-2.24,10.32-4.46,20.65-2.31-11.06-4.63-22.1Q687,388.7,679.62,387q6.06-5.08,12.11-10.19-2-10.1-4-20.19,5.63,7,11.26,13.92,5.79-4.64,11.57-9.31-2.12,9.09-4.25,18.18Q712,386.82,717.71,394.2Z"/>
    <path d="M565.94,621l-5-24-4.83,22.4q-7.65-1.3-15.31-2.58,6.16,8,12.31,16-2.31,9.86-4.62,19.74,6.28-5.07,12.56-10.11l12.2,15.1q-2.16-10.93-4.33-21.87l13.1-11Z" style="fill: #006b3f"/>
    <path d="M566.32,620.32q-2.72-12.95-5.44-25.9-2.6,12.06-5.2,24.15-8.22-1.41-16.44-2.77L552.46,633q-2.51,10.65-5,21.31L561,643.37q6.59,8.11,13.16,16.26-2.34-11.77-4.67-23.54l14.1-11.85Zm5.95,35.1L561,641.5l-11.58,9.31,4.26-18.17-11.4-14.8q7.08,1.18,14.17,2.4,2.24-10.34,4.45-20.65,2.33,11,4.64,22.09,7.43,1.67,14.83,3.36l-12.11,10.19Q570.27,645.33,572.27,655.42Z"/>
    <path d="M746.68,467.2l-4.83-21.54-4.92,19.73q-8.08-1.61-16.15-3.27,6.44,8.28,12.88,16.52-2.6,10.94-5.17,21.88,6.66-6.07,13.33-12.2,6.3,7.56,12.6,15.07-2.26-11.14-4.54-22.31,6-5.25,12.07-10.55Q754.32,468.9,746.68,467.2Z" style="fill: #006b3f"/>
    <path d="M747.06,466.52q-2.59-11.61-5.2-23.21l-5.31,21.24q-8.68-1.74-17.37-3.53,6.93,8.91,13.86,17.78-2.79,11.82-5.57,23.62,7.18-6.56,14.36-13.15,6.76,8.12,13.54,16.18-2.45-12-4.88-24,6.51-5.67,13-11.4Q755.29,468.35,747.06,466.52Zm6.41,34.81q-5.84-7-11.67-14-6.13,5.64-12.28,11.25,2.37-10.06,4.75-20.15l-11.9-15.26q7.47,1.53,14.93,3,2.28-9.11,4.55-18.22,2.24,9.94,4.46,19.87,7,1.56,14.07,3.08-5.55,4.88-11.11,9.71Z"/>
    <path d="M531.51,511.52q-6.66,6.09-13.33,12.21-6.3-7.56-12.6-15.08,2.26,11.16,4.54,22.31-6,5.26-12.07,10.56,7.63,1.63,15.27,3.33l4.83,21.53,4.92-19.72q8.08,1.61,16.15,3.27-6.44-8.28-12.88-16.52Q528.94,522.46,531.51,511.52Z" style="fill: #006b3f"/>
    <path d="M532.53,509.62q-7.18,6.55-14.36,13.16-6.76-8.12-13.53-16.19l4.86,24q-6.51,5.67-13,11.4,8.24,1.75,16.46,3.58,2.59,11.6,5.2,23.2l5.31-21.23q8.68,1.72,17.37,3.52-6.93-8.91-13.86-17.78Q529.75,521.43,532.53,509.62Zm5.1,39.21q-7.47-1.53-14.93-3-2.28,9.1-4.55,18.21-2.24-9.93-4.46-19.87-7-1.56-14.07-3.07l11.11-9.72-4.2-20.65,11.67,13.95q6.13-5.64,12.28-11.25-2.37,10.08-4.75,20.15Z"/>
    <path d="M754.2,560l-12.31,10.19q-6.51-8.22-13-16.47l4.8,23.3q-6.7,5.75-13.4,11.45,8.37,1.41,16.74,2.77l5.07,22.07,5-20.32q7.44,1.41,14.9,2.77-6.08-7.85-12.14-15.74Q752,570,754.2,560Z" style="fill: #006b3f"/>
    <path d="M755.15,558.26q-6.63,5.5-13.25,11-7-8.84-14-17.72L733,576.59q-7.23,6.2-14.45,12.34,9,1.53,18,3,2.73,11.87,5.45,23.71l5.34-21.82q8,1.52,16.08,3-6.54-8.46-13.09-17Zm5.24,36.43q-6.85-1.26-13.72-2.56-2.29,9.4-4.6,18.81-2.36-10.22-4.7-20.43-7.73-1.25-15.43-2.55,6.16-5.25,12.33-10.54-2.22-10.75-4.43-21.53,6,7.62,12,15.22l11.37-9.4-4,18.46Q754.79,587.44,760.39,594.69Z"/>
    <path d="M523,420.83l-5.07-22.07-5,20.31q-7.44-1.41-14.9-2.77,6.07,7.86,12.14,15.75-2.19,10-4.39,20,6.17-5.12,12.31-10.18,6.51,8.21,13,16.46l-4.8-23.3q6.7-5.75,13.4-11.44Q531.37,422.17,523,420.83Z" style="fill: #006b3f"/>
    <path d="M523.37,420.12q-2.73-11.85-5.45-23.71l-5.34,21.83q-8-1.53-16.08-3,6.54,8.44,13.08,17-2.35,10.77-4.73,21.56,6.63-5.5,13.25-11,7,8.83,14,17.71L527,435.46q7.23-6.19,14.45-12.35Q532.4,421.58,523.37,420.12Zm6.79,36q-6-7.62-12-15.21-5.68,4.68-11.37,9.4l4.05-18.46q-5.6-7.29-11.19-14.53,6.86,1.26,13.72,2.56,2.29-9.41,4.6-18.81,2.36,10.22,4.7,20.43c5.15.84,10.29,1.68,15.43,2.55q-6.16,5.25-12.33,10.54Q528,445.39,530.16,456.15Z"/>
    <path d="M704.12,650.91q-2.48-11.74-4.93-23.48l-5.13,21.14q-8.25-1.79-16.5-3.59,6.87,8.44,13.75,16.85-2.2,10.26-4.39,20.5,6.3-5.13,12.58-10.29l12,15.28-4.38-22.25,11.93-10.66Q711.62,652.68,704.12,650.91Z" style="fill: #006b3f"/>
    <path d="M704.5,650.23q-2.65-12.63-5.3-25.26-2.76,11.38-5.51,22.75l-17.82-3.87L690.69,662q-2.36,11-4.7,22,6.75-5.5,13.51-11,6.5,8.26,13,16.49-2.37-12-4.73-24,6.43-5.73,12.86-11.49Q712.58,652.14,704.5,650.23Zm6.1,34.94q-5.55-7-11.09-14.08-5.82,4.78-11.65,9.54,2-9.5,4.06-19-6.34-7.75-12.68-15.53,7.6,1.67,15.2,3.29,2.37-9.76,4.73-19.53l4.56,21.7,13.84,3.25-11,9.82Q708.57,674.91,710.6,685.17Z"/>
    <path d="M573.08,329.71,560.5,340q-6-7.65-12-15.29L552.83,347,540.9,357.63q7.49,1.74,15,3.51,2.48,11.73,4.93,23.48l5.13-21.14q8.25,1.77,16.5,3.58-6.87-8.43-13.75-16.85Q570.9,340,573.08,329.71Z" style="fill: #006b3f"/>
    <path d="M574,328,560.5,339.07q-6.5-8.26-13-16.5,2.37,12,4.73,24-6.43,5.73-12.86,11.48,8.05,1.86,16.13,3.77,2.65,12.63,5.3,25.26,2.76-11.37,5.51-22.74,8.91,1.91,17.82,3.87-7.41-9.1-14.82-18.17Q571.67,339,574,328Zm6.75,37.91-15.2-3.29q-2.37,9.76-4.73,19.54l-4.56-21.71q-6.91-1.63-13.84-3.24,5.51-4.94,11-9.83-2-10.26-4-20.51,5.55,7,11.09,14.07l11.65-9.54q-2,9.49-4.06,19Z"/>
    <path d="M648.28,503.24c-5.17-.33-7.88,30-6.06,67.71s7.5,68.6,12.68,68.93,7.88-30,6.06-67.72S653.46,503.58,648.28,503.24Z" style="fill: #006b3f"/>
    <path d="M651.07,503.45c-.94-1.36-1.92-2.09-2.92-2.14-7.8-.51-8.6,41.28-7.23,69.49,1.61,33.38,6.22,61.7,11.19,68.88a4.61,4.61,0,0,0,2.58,2.09,2,2,0,0,0,.34,0c7.8.51,8.6-41.29,7.24-69.5C660.65,538.94,656,510.62,651.07,503.45Zm3.69,134.49c-.34,0-.7-.46-1-.83-3.68-5.32-8.54-30.26-10.27-66-2-40.56,1.59-66.14,4.89-65.92.33,0,.7.47,1,.84,3.69,5.31,8.54,30.25,10.27,66C661.61,612.58,658.06,638.16,654.76,637.94Z"/>
    <path d="M657.51,505.1c-5.47-.36-8.42,29.94-6.58,67.67s7.76,68.61,13.23,69,8.41-30,6.58-67.69S663,505.45,657.51,505.1Z" style="fill: #006b3f"/>
    <path d="M660.51,505.47c-1-1.46-2.08-2.24-3.14-2.31-7.33-.47-9.45,34.58-7.75,69.47,1.6,33,6.35,61.26,11.53,68.73a4.93,4.93,0,0,0,2.78,2.25l.36.06c7.34.46,9.46-34.61,7.76-69.48C670.44,541.19,665.7,512.94,660.51,505.47ZM664,639.79c-.33,0-.73-.35-1.18-1-3.86-5.55-8.88-30.53-10.6-65.87-2-41.17,1.79-66.12,5.4-65.89l.09,0c.32.06.69.4,1.1,1,3.85,5.56,8.88,30.52,10.6,65.86C671.43,615.06,667.63,640,664,639.79Z"/>
    <path d="M652.89,500.59c-4.38-.28-6.33,33.3-4.36,75s7.12,75.73,11.5,76,6.32-33.31,4.35-75S657.27,500.86,652.89,500.59Z" style="fill: #006b3f"/>
    <path d="M655,500.28c-.89-1.28-1.71-1.6-2.25-1.63h0c-7.26-.45-6.79,50-5.53,76.79,1.49,31.55,5.47,68.94,10.69,76.46a3.42,3.42,0,0,0,2,1.59l.26,0c7.27.44,6.8-50,5.53-76.8C664.2,545.18,660.22,507.8,655,500.28Zm4.9,149.38c-2.34-.87-7.84-27-10.06-73.92-2.24-47.43.88-72.85,3.19-73.22,2.33.92,7.83,27.06,10,73.91C665.32,623.9,662.19,649.33,659.9,649.66Z"/>
    <path d="M606.32,598.06c-2.22-.54-.84-4.34-2.57-8.89s-7.51-8-11.56-5.54-.57,9.5-8.61,8.27c0,.69,3.86,13.33,6.5,16.7s79.37,18.86,81.64,16.57,1.9-9.16-.28-13.13S608.56,598.6,606.32,598.06Z" style="fill: #9c4a00"/>
    <path d="M612.31,598.6c-3.37-.57-5.59-1-6-1-.9-.22-1-.95-1.19-3a19.41,19.41,0,0,0-1.09-5.56c-1.83-4.8-7.74-8.44-12-5.82-1.7,1-2.17,2.84-2.59,4.44-.64,2.42-1.19,4.51-5.87,3.8l-.32,0c0,.15,0,.31,0,.47,0,1.07,4,13.81,6.64,17.14,1.16,1.48,14.82,5,30.68,8.42,22.69,5,49.87,9.73,51.39,8.23.94-.91,1.52-2.65,1.64-4.89a17.89,17.89,0,0,0-1.89-9C670.35,609.34,652.6,605.44,612.31,598.6Zm60.58,21.9a6.43,6.43,0,0,1-1.39,4.23c-1.07.9-18.52-1.76-40.59-6.26-22.46-4.57-39.55-8.85-40.63-10.24-2.27-2.89-5.58-13.15-6.24-15.76,4.73.57,5.39-2,6-4.39.42-1.58.81-3.08,2.28-4,3.91-2.38,9.47,1,11.11,5.26a18.57,18.57,0,0,1,1,5.15c.16,1.89.31,3.67,1.86,4,.4.12,2.51.46,6,1.05,37.91,6.44,57.71,10.69,58.85,12.72A16.26,16.26,0,0,1,672.89,620.5Z"/>
    <path d="M635.47,598.44c-.18-8.23-14.64-4.3-15.25,9.89.14,14.38,14.91,25,15.18,17.18-.12-7.42-9.09-6.87-8.95-15.7S635.6,605.26,635.47,598.44Z" style="fill: #fcd116"/>
    <path d="M631.6,603.69c2.1-.81,4.27-1.65,4.2-5.2,0-2.46-1.26-4.16-3.31-4.65l-.09,0c-4.2-.92-12,3.79-12.51,14.45A24.53,24.53,0,0,0,624.44,622c2.38,3.39,5.47,6,7.86,6.55l.13,0c2,.44,3.22-.62,3.3-3-.06-3.84-2.29-5.71-4.44-7.52-2.35-2-4.58-3.85-4.5-8.15S629.27,604.6,631.6,603.69Zm-5.48,6c-.08,5,2.57,7.19,4.91,9.16,2.14,1.79,4,3.35,4,6.52-.08,2.42-1.77,2.4-2.76,2.13-4.09-1-11.66-9-11.76-19.1.44-10.06,7.87-14.52,11.85-13.65l.08,0a3.38,3.38,0,0,1,2.66,3.57c.05,2.87-1.73,3.56-3.79,4.36C628.94,603.68,626.2,604.74,626.12,609.73Z"/>
    <path d="M640.76,599.69c-.18-8.22-14.63-4.29-15.25,9.9.14,14.37,14.91,25,15.18,17.17-.12-7.42-9.09-6.87-8.94-15.69S640.89,606.52,640.76,599.69Z" style="fill: #fcd116"/>
    <path d="M636.89,605c2.1-.81,4.27-1.66,4.2-5.2-.05-2.47-1.26-4.16-3.3-4.66l-.09,0c-4.21-.91-12.06,3.8-12.52,14.46a24.56,24.56,0,0,0,4.55,13.68c2.38,3.4,5.47,6,7.87,6.55l.12,0c2,.44,3.22-.62,3.31-3-.07-3.84-2.29-5.71-4.44-7.52-2.36-2-4.58-3.85-4.51-8.16S634.56,605.85,636.89,605Zm-5.47,6c-.09,5,2.57,7.19,4.91,9.15,2.13,1.8,4,3.35,4,6.53-.08,2.42-1.77,2.4-2.75,2.13-4.09-1-11.67-9-11.77-19.11.44-10.06,7.87-14.51,11.85-13.65l.09,0a3.4,3.4,0,0,1,2.65,3.57c.06,2.88-1.73,3.57-3.79,4.37C634.23,604.93,631.5,606,631.42,611Z"/>
    <path d="M646.44,600.61c-.18-8.22-14.64-4.29-15.25,9.91.14,14.37,14.91,25,15.18,17.17-.12-7.42-9.09-6.87-9-15.69S646.57,607.44,646.44,600.61Z" style="fill: #fcd116"/>
    <path d="M642.57,605.88c2.1-.82,4.27-1.66,4.2-5.21,0-2.46-1.26-4.16-3.31-4.65l-.09,0c-4.2-.92-12,3.79-12.51,14.45a24.53,24.53,0,0,0,4.55,13.69c2.38,3.39,5.47,6,7.86,6.55l.13,0c2,.44,3.22-.63,3.3-3-.06-3.84-2.29-5.71-4.44-7.52-2.35-2-4.58-3.84-4.5-8.15S640.24,606.78,642.57,605.88Zm-5.48,6c-.08,5,2.57,7.19,4.91,9.16,2.14,1.79,4,3.35,4,6.52-.08,2.42-1.77,2.35-2.75,2.13-4.1-1-11.67-9-11.77-19.1.43-10.06,7.87-14.52,11.85-13.65l.08,0a3.38,3.38,0,0,1,2.66,3.57c0,2.87-1.73,3.56-3.79,4.36C639.91,605.86,637.18,606.92,637.09,611.91Z"/>
    <path d="M651.73,601.87c-.18-8.22-14.63-4.29-15.25,9.9.14,14.38,14.91,25,15.18,17.17-.12-7.42-9.09-6.86-8.94-15.69S651.87,608.7,651.73,601.87Z" style="fill: #fcd116"/>
    <path d="M647.86,607.13c2.1-.82,4.27-1.66,4.2-5.21,0-2.46-1.26-4.16-3.3-4.65l-.09,0c-4.21-.91-12.06,3.8-12.52,14.46a24.56,24.56,0,0,0,4.55,13.68c2.38,3.4,5.47,6,7.86,6.55l.13,0c2,.44,3.22-.62,3.31-3-.07-3.84-2.29-5.71-4.44-7.51-2.36-2-4.58-3.85-4.51-8.15S645.53,608,647.86,607.13Zm-5.48,6c-.08,5,2.58,7.19,4.92,9.15,2.13,1.8,4,3.35,4,6.52-.08,2.42-1.74,2.36-2.75,2.13-4.09-1-11.67-9-11.77-19.09.44-10.06,7.87-14.52,11.85-13.66l.09,0a3.39,3.39,0,0,1,2.65,3.57c.06,2.87-1.73,3.56-3.79,4.37C645.2,607.11,642.47,608.17,642.38,613.17Z"/>
    <path d="M668.07,610c-2.83-.67-5.17,2.17-5.23,6.35s2.19,8.11,5,8.78,5.17-2.18,5.23-6.36S670.9,610.7,668.07,610Z" style="fill: #9c4a00"/>
    <path d="M668.08,609.72l-.09,0c-2.9-.62-5.29,2.33-5.36,6.63a11.82,11.82,0,0,0,1.51,6,6.18,6.18,0,0,0,3.71,3.15l.08,0c2.9.62,5.3-2.33,5.36-6.63a11.81,11.81,0,0,0-1.5-6A6.24,6.24,0,0,0,668.08,609.72Zm-.22,15.13a5.71,5.71,0,0,1-3.42-2.9,10.89,10.89,0,0,1-1.39-5.52c.06-4,2.27-6.69,4.94-6.11h.08a5.7,5.7,0,0,1,3.41,2.9,10.79,10.79,0,0,1,1.39,5.52C672.82,622.76,670.57,625.5,667.86,624.85Z"/>
    <path d="M636.13,570.65c-2.5,0-4,6.67-3.46,14.87s3.1,14.86,5.6,14.86,4.06-6.67,3.47-14.88S638.64,570.65,636.13,570.65Z" style="fill: #006b3f"/>
    <path d="M638.91,570.63a4,4,0,0,0-3-1.92c-3.3,0-5.26,7.2-4.58,16.73.47,6.41,2,12.14,4.14,14.95a4.45,4.45,0,0,0,2.46,1.87,1.77,1.77,0,0,0,.51,0c3.29,0,5.26-7.2,4.57-16.73C642.58,579.17,641,573.44,638.91,570.63Zm-.83,27.81c-.28,0-.62-.25-1-.73-1.24-1.67-2.69-6.07-3.12-12.11-.58-7.94,1-13,2.35-13,.28,0,.61.24,1,.73,1.25,1.67,2.7,6.06,3.13,12.1C641,593.36,639.42,598.44,638.08,598.44Z"/>
    <path d="M628.41,568.08c-2.51,0-4.06,6.66-3.46,14.87s3.1,14.86,5.6,14.85,4.05-6.66,3.46-14.87S630.91,568.07,628.41,568.08Z" style="fill: #006b3f"/>
    <path d="M631.18,568.06a3.93,3.93,0,0,0-3-1.92h0c-3.29,0-5.26,7.2-4.57,16.73.46,6.41,2.05,12.14,4.14,15a4.43,4.43,0,0,0,2.46,1.87,2.94,2.94,0,0,0,.51,0c3.29,0,5.25-7.2,4.57-16.73C634.86,576.6,633.27,570.87,631.18,568.06Zm-.83,27.8c-.28,0-.61-.24-1-.72-1.24-1.68-2.69-6.07-3.13-12.11-.57-7.94,1-13,2.35-13,.29,0,.62.24,1,.72,1.24,1.68,2.69,6.07,3.13,12.11C633.28,590.79,631.7,595.86,630.35,595.86Z"/>
    <path d="M622.88,552.43c-2.51,0-4.06,6.67-3.47,14.88s3.1,14.85,5.61,14.85,4.05-6.67,3.46-14.88S625.38,552.43,622.88,552.43Z" style="fill: #006b3f"/>
    <path d="M625.65,552.41a3.93,3.93,0,0,0-3-1.91h0c-3.29,0-5.26,7.21-4.57,16.74.46,6.41,2,12.14,4.14,14.95A4.42,4.42,0,0,0,624.7,584a2.24,2.24,0,0,0,.52.06c3.29,0,5.25-7.21,4.57-16.73C629.32,561,627.74,555.22,625.65,552.41Zm-.83,27.81c-.28,0-.61-.25-1-.73-1.25-1.67-2.7-6.07-3.13-12.1-.57-7.94,1-13,2.35-13h.12a1.75,1.75,0,0,1,.86.72c1.24,1.67,2.69,6.06,3.13,12.1C627.75,575.14,626.16,580.22,624.82,580.22Z"/>
    <path d="M630.6,552c-2.4,0-3.83,7.4-3.18,16.45s3.12,16.37,5.53,16.34,3.83-7.4,3.19-16.45S633,552,630.6,552Z" style="fill: #006b3f"/>
    <path d="M633.09,551.76A3.45,3.45,0,0,0,630.4,550c-3.67.05-4.94,9.25-4.29,18.31.53,7.38,2.2,13.75,4.35,16.64a3.92,3.92,0,0,0,2.22,1.67,2.06,2.06,0,0,0,.48.05c3.67-.05,4.93-9.25,4.28-18.31C636.91,561,635.24,554.64,633.09,551.76Zm-.34,31.07c-.23,0-.5-.29-.69-.54-1.25-1.67-2.83-6.7-3.34-13.78-.67-9.41,1-14.58,2.09-14.59.23,0,.5.29.68.54,1.25,1.67,2.83,6.7,3.34,13.78C635.51,577.65,633.81,582.82,632.75,582.83Z"/>
    <path d="M641.48,555.5c-2.41,0-3.87,6.92-3.26,15.41s3.06,15.35,5.46,15.33,3.87-6.91,3.26-15.4S643.88,555.48,641.48,555.5Z" style="fill: #006b3f"/>
    <polygon points="641.67 557.44 641.68 557.44 641.68 557.44 641.67 557.44"/>
    <path d="M644.06,555.35a3.68,3.68,0,0,0-2.78-1.79h0c-3.67,0-5,8.71-4.36,17.27.49,6.79,2.1,12.76,4.19,15.56a4.16,4.16,0,0,0,2.29,1.74,2.09,2.09,0,0,0,.49,0c3.68,0,5-8.71,4.37-17.26C647.76,564.12,646.15,558.16,644.06,555.35Zm-.58,29c-.21,0-.48-.21-.78-.61-1.21-1.61-2.71-6.28-3.18-12.71-.58-8.13.91-13.54,2.16-13.55h0c.22,0,.48.2.78.6,1.21,1.62,2.71,6.28,3.18,12.71C646.22,578.89,644.73,584.3,643.48,584.31Z"/>
    <path d="M635.54,549c-2.41,0-3.87,6.92-3.26,15.41s3.06,15.36,5.47,15.34,3.86-6.92,3.25-15.41S638,549,635.54,549Z" style="fill: #006b3f"/>
    <path d="M638.13,548.83a3.69,3.69,0,0,0-2.79-1.79h0c-3.67,0-5,8.71-4.36,17.27.49,6.79,2.09,12.76,4.18,15.56a4.17,4.17,0,0,0,2.3,1.74,1.63,1.63,0,0,0,.49,0c3.67,0,5-8.7,4.36-17.26C641.82,557.61,640.22,551.64,638.13,548.83Zm-.58,29c-.22,0-.49-.2-.79-.61-1.2-1.61-2.71-6.28-3.17-12.71-.58-8.13.91-13.54,2.15-13.55.22,0,.48.2.79.6,1.2,1.62,2.71,6.29,3.17,12.72C640.28,572.37,638.79,577.78,637.55,577.79Z"/>
    <path d="M628.05,539.81c-2.41,0-3.87,6.92-3.26,15.41s3.06,15.36,5.47,15.34,3.86-6.92,3.25-15.41S630.46,539.79,628.05,539.81Z" style="fill: #006b3f"/>
    <path d="M630.63,539.67a3.66,3.66,0,0,0-2.78-1.8c-3.68,0-5,8.71-4.36,17.27.49,6.79,2.09,12.76,4.18,15.57a4.2,4.2,0,0,0,2.3,1.73,2.05,2.05,0,0,0,.49.06c3.67,0,5-8.71,4.36-17.27C634.33,548.44,632.73,542.47,630.63,539.67Zm-.57,29c-.22,0-.49-.2-.79-.6-1.2-1.62-2.71-6.29-3.17-12.72-.58-8.13.91-13.54,2.15-13.55h.09a1.38,1.38,0,0,1,.69.59c1.21,1.62,2.72,6.29,3.18,12.72C632.79,563.2,631.3,568.61,630.06,568.62Z"/>
    <path d="M621.11,533.73c-2.4,0-3.86,6.92-3.25,15.41s3,15.36,5.46,15.34,3.87-6.92,3.26-15.41S623.52,533.71,621.11,533.73Z" style="fill: #006b3f"/>
    <path d="M623.7,533.59a3.64,3.64,0,0,0-2.79-1.79c-3.67,0-5,8.7-4.36,17.26.49,6.8,2.09,12.76,4.19,15.57a4.22,4.22,0,0,0,2.29,1.74,2.81,2.81,0,0,0,.49,0c3.68,0,5-8.71,4.36-17.27C627.4,542.36,625.79,536.39,623.7,533.59Zm-.58,28.95c-.22,0-.48-.2-.78-.6-1.21-1.62-2.71-6.29-3.18-12.72-.58-8.13.91-13.54,2.15-13.55h.09a1.45,1.45,0,0,1,.7.59c1.2,1.62,2.71,6.29,3.17,12.72C625.86,557.12,624.37,562.53,623.12,562.54Z"/>
    <path d="M624.67,426.77l-10.14-4.9S599.14,438,600.87,491.19c1.94,53.49,34,85.43,34,85.44s8.18-13.29,7.23-56.15C639.81,457.62,624.67,426.77,624.67,426.77Z" style="fill: #9461c9"/>
    <path d="M624.9,426.54l-.07-.14-10.39-5-.11.12c-.16.17-3.94,4.21-7.55,14.85-3.33,9.8-7.11,27.25-6.21,54.81,1.92,53.12,33.85,85.51,34.17,85.83l.22.22.16-.25c.08-.14,2.1-3.48,4-12.13,1.76-8,3.76-22.09,3.27-44.3C640.14,458.24,625.06,426.85,624.9,426.54Zm13.68,137.82c-1.59,7.2-3.28,10.72-3.79,11.67-2.88-3-31.8-34.56-33.62-84.8-1.63-50,12.11-67.31,13.45-68.87l9.88,4.78c1.1,2.35,15.12,33.48,17.31,93.29C642.29,542.46,640.32,556.48,638.58,564.36Z"/>
    <path d="M649.92,575.31c-2.53-.66-4.91,5.3-5.32,13.32s1.32,15,3.86,15.71,4.91-5.31,5.31-13.33S652.45,576,649.92,575.31Z" style="fill: #006b3f"/>
    <path d="M650,573.4c-3.34-.86-6.2,5.5-6.67,14.8-.31,6.27.59,12.17,2.36,15.42a4.86,4.86,0,0,0,2.77,2.62l.1,0c3.28.71,6.09-5.62,6.56-14.83.31-6.26-.59-12.17-2.36-15.41A4.9,4.9,0,0,0,650,573.4Zm2.5,17.19c-.39,7.71-2.58,12.14-3.94,11.85h0c-.29-.08-.59-.4-.89-1-1.05-1.93-2-6.52-1.69-12.42.39-7.71,2.59-12.13,3.94-11.84h0c.29.07.59.39.89.95C651.83,580.1,652.76,584.69,652.46,590.59Z"/>
    <path d="M642.43,570.79c-2.54-.66-4.91,5.31-5.32,13.32s1.32,15,3.85,15.71,4.91-5.3,5.32-13.32S645,571.45,642.43,570.79Z" style="fill: #006b3f"/>
    <path d="M642.46,568.89c-3.29-.83-6.19,5.49-6.66,14.8-.31,6.26.59,12.17,2.36,15.41a4.91,4.91,0,0,0,2.77,2.63l.1,0c3.28.72,6.09-5.61,6.56-14.82.31-6.27-.59-12.17-2.36-15.42A4.86,4.86,0,0,0,642.46,568.89ZM645,586.08c-.39,7.75-2.6,12.14-4,11.83-.29-.07-.59-.39-.89-.95-1.06-1.94-2-6.53-1.69-12.42.39-7.71,2.58-12.14,3.94-11.84h0c.29.08.59.4.89,1C644.33,575.59,645.26,580.18,645,586.08Z"/>
    <path d="M638.74,554.34c-2.53-.66-4.91,5.31-5.31,13.32s1.32,15.05,3.85,15.71,4.91-5.3,5.32-13.32S641.28,555,638.74,554.34Z" style="fill: #006b3f"/>
    <path d="M638.78,552.44c-3.32-.91-6.19,5.49-6.66,14.8-.31,6.26.59,12.16,2.36,15.41a4.93,4.93,0,0,0,2.76,2.63l.1,0c3.29.72,6.1-5.61,6.57-14.82.31-6.27-.59-12.17-2.36-15.42A4.86,4.86,0,0,0,638.78,552.44Zm2.51,17.19c-.39,7.71-2.59,12.14-3.95,11.84h0c-.29-.07-.59-.39-.89-1-1.06-1.94-2-6.53-1.69-12.42.39-7.71,2.58-12.14,3.94-11.84h0c.29.08.59.4.89,1C640.65,559.14,641.58,563.73,641.29,569.63Z"/>
    <path d="M646.61,556c-2.44-.61-4.78,6.07-5.23,14.91s1.16,16.5,3.6,17.11,4.78-6.06,5.23-14.91S649.05,556.57,646.61,556Z" style="fill: #006b3f"/>
    <path d="M646.64,554.05h-.08c-3.67-.8-6,7.61-6.49,16.4-.36,7.21.54,13.76,2.37,17.09a4.24,4.24,0,0,0,2.51,2.36l.08,0c3.67.8,6-7.62,6.49-16.41.36-7.21-.54-13.75-2.37-17.08A4.24,4.24,0,0,0,646.64,554.05Zm2.26,18.6c-.47,9.16-2.8,13.66-3.88,13.42h0c-.24-.06-.47-.41-.63-.7-1.06-1.93-2-7.16-1.69-14.08.47-9.16,2.8-13.65,3.88-13.42h0c.23.06.47.42.63.7C648.27,560.51,649.25,565.74,648.9,572.65Z"/>
    <path d="M657.17,562.22c-2.44-.62-4.75,5.59-5.17,13.88s1.21,15.52,3.65,16.14,4.75-5.6,5.17-13.89S659.6,562.83,657.17,562.22Z" style="fill: #006b3f"/>
    <path d="M657.2,560.31l-.09,0c-3.67-.79-6,7.11-6.42,15.4-.34,6.64.55,12.77,2.33,16a4.53,4.53,0,0,0,2.59,2.45l.09,0c3.67.79,6-7.11,6.43-15.4.33-6.64-.56-12.77-2.33-16A4.55,4.55,0,0,0,657.2,560.31Zm2.31,17.62c-.4,7.9-2.55,12.68-3.81,12.41h0c-.22-.06-.46-.32-.72-.79-1-1.86-2-6.73-1.65-13,.4-7.91,2.55-12.68,3.81-12.41h0c.23.06.47.33.72.79C658.87,566.77,659.83,571.64,659.51,577.93Z"/>
    <path d="M652,554.4c-2.43-.62-4.75,5.6-5.17,13.89s1.22,15.52,3.65,16.14,4.75-5.6,5.17-13.89S654.4,555,652,554.4Z" style="fill: #006b3f"/>
    <path d="M652,552.49l-.09,0c-3.67-.79-6,7.11-6.43,15.4-.33,6.63.56,12.77,2.33,16a4.6,4.6,0,0,0,2.6,2.46l.09,0c3.66.79,6-7.11,6.42-15.4.34-6.64-.55-12.77-2.32-16A4.6,4.6,0,0,0,652,552.49Zm2.3,17.62c-.4,7.91-2.55,12.69-3.81,12.41h0c-.23-.06-.47-.32-.72-.79-1-1.87-2-6.74-1.66-13,.4-7.9,2.55-12.68,3.81-12.4h0c.22.06.46.32.72.79C653.67,559,654.62,563.83,654.3,570.11Z"/>
    <path d="M645.51,543.64c-2.43-.63-4.75,5.59-5.17,13.88S641.56,573,644,573.66s4.75-5.6,5.17-13.89S648,544.26,645.51,543.64Z" style="fill: #006b3f"/>
    <path d="M645.55,541.73l-.09,0c-3.67-.79-6,7.11-6.43,15.4-.33,6.63.56,12.77,2.33,16a4.6,4.6,0,0,0,2.6,2.46l.09,0c3.66.8,6-7.11,6.42-15.39.34-6.64-.55-12.78-2.33-16A4.53,4.53,0,0,0,645.55,541.73Zm2.3,17.62c-.4,7.9-2.55,12.68-3.81,12.41h0c-.23-.06-.47-.32-.72-.79-1-1.86-2-6.74-1.66-13,.4-7.91,2.55-12.68,3.81-12.41h0c.22.06.46.33.72.79C647.22,548.2,648.17,553.07,647.85,559.35Z"/>
    <path d="M639.25,536c-2.44-.62-4.75,5.6-5.17,13.89s1.21,15.51,3.65,16.14,4.75-5.6,5.17-13.89S641.68,536.6,639.25,536Z" style="fill: #006b3f"/>
    <path d="M639.28,534.06l-.09,0c-3.67-.8-6,7.1-6.42,15.39-.34,6.64.55,12.77,2.33,16a4.53,4.53,0,0,0,2.59,2.45l.09,0c3.67.79,6-7.11,6.43-15.39.33-6.64-.56-12.78-2.33-16A4.6,4.6,0,0,0,639.28,534.06Zm2.31,17.63c-.4,7.9-2.55,12.68-3.81,12.4h0c-.22-.06-.47-.33-.72-.79-1-1.87-2-6.74-1.65-13,.4-7.9,2.55-12.68,3.81-12.4h0c.23.06.47.32.72.79C641,540.54,641.91,545.41,641.59,551.69Z"/>
    <path d="M631.45,462.74c-6.69,2.32-5.07,29.68,3.6,61.12s21.14,55,27.82,52.71,5.08-29.69-3.6-61.11S638.14,460.43,631.45,462.74Z" style="fill: #d41c30"/>
    <path d="M631.26,462c-1.42.49-2.52,2-3.28,4.44-2.93,9.54-.29,32.71,6.59,57.63,8.19,29.65,19.39,51.79,26.63,53.36a3.43,3.43,0,0,0,1.86-.09c1.42-.5,2.53-2,3.28-4.45,2.94-9.56.29-32.71-6.59-57.61C650.83,483,638.32,459.54,631.26,462Zm34.11,110.09c-.64,2.08-1.54,3.34-2.68,3.74-6.32,2.21-18.75-21.69-27.15-52.16-6.78-24.54-9.42-47.22-6.59-56.43.64-2.08,1.55-3.33,2.69-3.73,6.31-2.18,18.74,21.72,27.15,52.16C665.56,540.19,668.21,562.86,665.37,572.08Z"/>
    <path d="M637.27,455.52c-3.13-.76-5.71,1.88-5.76,5.9s2.45,7.9,5.58,8.66,5.7-1.88,5.75-5.9S640.39,456.28,637.27,455.52Z" style="fill: #006b3f"/>
    <path d="M637.28,454.4a4.6,4.6,0,0,0-4.54,1.31,7.91,7.91,0,0,0-2,5.52,11.76,11.76,0,0,0,1.84,6.46,7.7,7.7,0,0,0,4.48,3.51l.14,0a4.6,4.6,0,0,0,4.41-1.34,8,8,0,0,0,2-5.52,11.87,11.87,0,0,0-1.85-6.46A7.74,7.74,0,0,0,637.28,454.4ZM640.62,468a3.52,3.52,0,0,1-3.52,1,5.94,5.94,0,0,1-3.47-2.7,8.48,8.48,0,0,1-1.35-4.65,5.75,5.75,0,0,1,1.45-4,3.57,3.57,0,0,1,3.42-1l.1,0a5.92,5.92,0,0,1,3.47,2.7,8.48,8.48,0,0,1,1.35,4.65A5.7,5.7,0,0,1,640.62,468Z"/>
    <path d="M641.52,446.12c-2.8-.68-5.11,2-5.16,6.05s2.18,7.83,5,8.52,5.12-2,5.17-6.05S644.32,446.81,641.52,446.12Z" style="fill: #006b3f"/>
    <path d="M641.54,444.94c-3.24-.78-5.93,2.36-6,7s2.54,9.11,5.78,9.9l.11,0c3.19.69,5.82-2.45,5.88-7.06a12.49,12.49,0,0,0-1.66-6.41A7,7,0,0,0,641.54,444.94Zm-.1,14.58h-.08c-2.35-.58-4.23-3.78-4.19-7.14s1.94-5.58,4.26-5.08l.08,0a5,5,0,0,1,3,2.52,9,9,0,0,1,1.19,4.61C645.65,457.77,643.75,460,641.44,459.52Z"/>
    <path d="M634.68,444.46c-2.8-.69-5.11,2-5.16,6s2.18,7.83,5,8.52,5.11-2,5.16-6S637.48,445.14,634.68,444.46Z" style="fill: #006b3f"/>
    <path d="M634.69,443.27c-3.23-.8-5.93,2.36-6,7a12.58,12.58,0,0,0,1.65,6.41,7,7,0,0,0,4.13,3.49l.1,0c3.2.69,5.83-2.44,5.89-7.06S637.94,444.07,634.69,443.27Zm-.17,14.57a5.09,5.09,0,0,1-3-2.53,9,9,0,0,1-1.19-4.61c0-3.33,1.94-5.58,4.26-5.08l.08,0c2.35.57,4.22,3.77,4.18,7.14S636.84,458.43,634.52,457.84Z"/>
    <path d="M636.18,437.67c-2.93-.72-5.34,1.76-5.39,5.54s2.29,7.41,5.23,8.13,5.34-1.77,5.39-5.54S639.11,438.38,636.18,437.67Z" style="fill: #006b3f"/>
    <path d="M636.2,436.48a4.36,4.36,0,0,0-4.33,1.25A7.63,7.63,0,0,0,630,443c-.05,4.42,2.65,8.7,6,9.52l.12,0a4.38,4.38,0,0,0,4.2-1.28,7.64,7.64,0,0,0,1.91-5.28C642.28,441.57,639.58,437.3,636.2,436.48Zm3.06,12.75a3.23,3.23,0,0,1-3.23.92c-2.48-.61-4.46-3.63-4.42-6.74a5.24,5.24,0,0,1,1.33-3.63,3.24,3.24,0,0,1,3.13-.94l.1,0c2.47.6,4.46,3.63,4.42,6.74A5.24,5.24,0,0,1,639.26,449.23Z"/>
    <path d="M635.58,428.88c-2.93-.72-5.35,1.76-5.39,5.54s2.29,7.41,5.22,8.13,5.35-1.77,5.4-5.54S638.51,429.59,635.58,428.88Z" style="fill: #006b3f"/>
    <path d="M635.59,427.68c-3.35-.87-6.17,2.11-6.22,6.54s2.65,8.7,6,9.52l.12,0a4.39,4.39,0,0,0,4.2-1.28,7.59,7.59,0,0,0,1.9-5.28C641.68,432.78,639,428.51,635.59,427.68Zm3.07,12.76a3.34,3.34,0,0,1-3.23.92c-2.48-.61-4.46-3.63-4.42-6.74s2-5.1,4.46-4.57l.1,0c2.47.6,4.45,3.63,4.42,6.74A5.24,5.24,0,0,1,638.66,440.44Z"/>
    <path d="M628.14,437.2c-2.8-.69-5.11,2-5.16,6s2.18,7.84,5,8.52,5.12-2,5.17-6S630.94,437.88,628.14,437.2Z" style="fill: #006b3f"/>
    <path d="M628.16,436a4.06,4.06,0,0,0-4.19,1.46,8.78,8.78,0,0,0-1.8,5.57,12.55,12.55,0,0,0,1.65,6.41,7,7,0,0,0,4.13,3.49l.11,0a4.07,4.07,0,0,0,4.08-1.49,8.74,8.74,0,0,0,1.8-5.57,12.49,12.49,0,0,0-1.66-6.41A7,7,0,0,0,628.16,436ZM631,449.52a3,3,0,0,1-3,1.06,5.09,5.09,0,0,1-3-2.53,9,9,0,0,1-1.19-4.61,6.28,6.28,0,0,1,1.3-4,3,3,0,0,1,3-1.07l.08,0a5,5,0,0,1,3,2.53,9,9,0,0,1,1.19,4.61A6.3,6.3,0,0,1,631,449.52Z"/>
    <path d="M629.67,428.33c-2.8-.68-5.11,1.95-5.16,5.89s2.18,7.69,5,8.37,5.11-1.95,5.16-5.89S632.47,429,629.67,428.33Z" style="fill: #006b3f"/>
    <path d="M629.69,427.13a4.18,4.18,0,0,0-4.19,1.41,8.49,8.49,0,0,0-1.81,5.48,12.2,12.2,0,0,0,1.66,6.33,7,7,0,0,0,4.13,3.44l.11,0a4.09,4.09,0,0,0,4.08-1.43,8.47,8.47,0,0,0,1.81-5.48,12.33,12.33,0,0,0-1.67-6.33A7.05,7.05,0,0,0,629.69,427.13Zm2.86,13.25a2.93,2.93,0,0,1-3,1,5.11,5.11,0,0,1-3-2.49,8.71,8.71,0,0,1-1.18-4.49,6,6,0,0,1,1.29-3.88,3,3,0,0,1,3-1l.09,0h0a5.1,5.1,0,0,1,3,2.49,8.72,8.72,0,0,1,1.19,4.49A6,6,0,0,1,632.55,440.38Z"/>
    <path d="M621.29,426.58c-3.13-.76-5.7,1.88-5.75,5.9s2.45,7.9,5.57,8.66,5.71-1.87,5.75-5.89S624.42,427.34,621.29,426.58Z" style="fill: #006b3f"/>
    <path d="M621.3,425.46a4.57,4.57,0,0,0-4.54,1.32,8,8,0,0,0-2,5.52c-.06,4.63,2.78,9.1,6.33,10l.13,0a4.6,4.6,0,0,0,4.41-1.34,8,8,0,0,0,2-5.52C627.69,430.8,624.85,426.33,621.3,425.46ZM624.64,439a3.57,3.57,0,0,1-3.51,1c-2.7-.66-4.86-4-4.82-7.36a5.7,5.7,0,0,1,1.45-4,3.56,3.56,0,0,1,3.41-1l.11,0c2.69.66,4.86,4,4.82,7.36A5.71,5.71,0,0,1,624.64,439Z"/>
    <path d="M631.7,417.2c-2.93-.72-5.35,1.76-5.39,5.54s2.29,7.41,5.22,8.13,5.35-1.76,5.39-5.54S634.63,417.91,631.7,417.2Z" style="fill: #006b3f"/>
    <path d="M631.71,416a4.35,4.35,0,0,0-4.32,1.25,7.63,7.63,0,0,0-1.9,5.28c-.06,4.43,2.65,8.7,6,9.52l.12,0c3.32.73,6.05-2.19,6.1-6.56S635.09,416.83,631.71,416Zm-.07,13.69-.09,0c-2.48-.61-4.46-3.63-4.42-6.74a5.23,5.23,0,0,1,1.32-3.63,3.26,3.26,0,0,1,3.14-.94l.1,0c2.47.61,4.45,3.63,4.42,6.74S634.07,430.23,631.64,429.7Z"/>
    <path d="M624.61,416.66c-2.8-.68-5.12,2-5.16,5.9s2.18,7.68,5,8.37,5.11-2,5.16-5.9S627.41,417.34,624.61,416.66Z" style="fill: #006b3f"/>
    <path d="M624.62,415.47c-3.25-.81-5.94,2.29-6,6.89a12.19,12.19,0,0,0,1.66,6.32,7,7,0,0,0,4.13,3.44l.11,0c3.2.69,5.83-2.38,5.88-6.92a12.22,12.22,0,0,0-1.66-6.33A7,7,0,0,0,624.62,415.47Zm-.17,14.26a5.08,5.08,0,0,1-3-2.49,8.68,8.68,0,0,1-1.18-4.48c0-3.24,1.93-5.43,4.24-4.92h.08a5.11,5.11,0,0,1,3,2.49,8.71,8.71,0,0,1,1.18,4.49C628.73,428.11,626.85,430.32,624.45,429.73Z"/>
    <path d="M613.85,425.36c-2.8-.68-5.11,2-5.16,6.05s2.18,7.84,5,8.52,5.12-2,5.16-6.05S616.65,426.05,613.85,425.36Z" style="fill: #006b3f"/>
    <path d="M613.87,424.18a4.1,4.1,0,0,0-4.19,1.46,8.78,8.78,0,0,0-1.8,5.57,12.59,12.59,0,0,0,1.65,6.42,7,7,0,0,0,4.13,3.48l.11,0a4.06,4.06,0,0,0,4.08-1.48,8.78,8.78,0,0,0,1.8-5.57,12.58,12.58,0,0,0-1.66-6.41A6.94,6.94,0,0,0,613.87,424.18Zm2.86,13.51a3,3,0,0,1-3,1.06,5.09,5.09,0,0,1-3-2.53,9,9,0,0,1-1.19-4.61,6.28,6.28,0,0,1,1.3-4,3,3,0,0,1,3-1.07l.08,0a5,5,0,0,1,3,2.52,9,9,0,0,1,1.19,4.61A6.33,6.33,0,0,1,616.73,437.69Z"/>
    <path d="M615.61,420.45c-2.8-.68-5.11,2-5.16,5.9s2.19,7.68,5,8.37,5.11-2,5.16-5.9S618.41,421.13,615.61,420.45Z" style="fill: #006b3f"/>
    <path d="M615.63,419.26h0c-3.24-.82-5.94,2.31-6,6.9a12.27,12.27,0,0,0,1.67,6.32,7,7,0,0,0,4.12,3.44l.11,0a4.11,4.11,0,0,0,4.08-1.44,8.47,8.47,0,0,0,1.81-5.48C621.47,424.43,618.88,420.05,615.63,419.26Zm2.86,13.24a2.93,2.93,0,0,1-3,1,5.06,5.06,0,0,1-3-2.49,8.56,8.56,0,0,1-1.19-4.48c0-3.24,1.94-5.43,4.25-4.92h.08c2.34.58,4.22,3.71,4.18,7A6,6,0,0,1,618.49,432.5Z"/>
    <path d="M617.77,414.9c-2.81-.68-5.12,2-5.16,5.9s2.18,7.68,5,8.37,5.11-2,5.16-5.9S620.57,415.58,617.77,414.9Z" style="fill: #006b3f"/>
    <path d="M617.78,413.71h0c-3.25-.81-5.94,2.3-6,6.89a12.16,12.16,0,0,0,1.66,6.32,7,7,0,0,0,4.13,3.44l.11,0c3.2.69,5.83-2.38,5.88-6.92S621,414.5,617.78,413.71ZM617.61,428a5.05,5.05,0,0,1-3-2.49,8.65,8.65,0,0,1-1.18-4.48c0-3.24,1.93-5.43,4.24-4.92l.08,0c2.35.57,4.22,3.7,4.18,7S620,428.55,617.61,428Z"/>
    <path d="M632.19,443.64c-8.57,2.55-7.13,35,3.22,72.41s25.7,65.71,34.28,63.12,7.14-35-3.22-72.39S640.77,441.09,632.19,443.64Z" style="fill: #006b3f"/>
    <path d="M631.75,441.7c-2.11.63-3.74,2.69-4.84,6.13-3.77,11.75-.84,39.36,7.28,68.72,9.89,35.77,24,62.59,33.48,64.63a5,5,0,0,0,2.47-.07c2.1-.63,3.73-2.7,4.83-6.15,3.77-11.76.85-39.36-7.27-68.69C656.91,467.29,641.11,438.91,631.75,441.7Zm40.78,131.17c-.8,2.48-1.9,4-3.28,4.37-6.93,2.09-21.69-22.2-32.61-61.69-7.85-28.37-10.77-54.74-7.28-65.62.79-2.48,1.9-3.94,3.28-4.35a3.39,3.39,0,0,1,1.65,0c7.42,1.62,20.84,25.18,31,61.74C673.09,535.63,676,562,672.53,572.87Z"/>
    <path d="M660.43,511.35c-1.59.76-1.06,7.7,1.18,15.51s5.34,13.52,6.93,12.75,1.06-7.7-1.18-15.51S662,510.59,660.43,511.35Z" style="fill: #006b3f"/>
    <path d="M662,509.9a2,2,0,0,0-2.09-.41c-2.78,1.34-1.73,10,.55,17.89,1.54,5.37,4.08,11.78,6.61,13.68a2.59,2.59,0,0,0,1,.52,1.66,1.66,0,0,0,1.05-.11c2.78-1.34,1.73-10-.55-17.89C667,518.21,664.48,511.8,662,509.9Zm6,27.8c-.73-.43-3.06-4-5.16-11.36-2.15-7.47-2.17-12.17-1.81-13.08.73.43,3.06,4,5.16,11.37S668.33,536.79,668,537.7Z"/>
    <path d="M647.58,476.15c-.92,8.64-7.63,24,5.82,50.81s15.76,36.65,20,52.38c1.4-12.56,3.1-27.37-10.35-54.18S649.61,484.24,647.58,476.15Z" style="fill: #006b3f"/>
    <path d="M649,482.15c-.4-2.33-.74-4.35-1.17-6.1-.14-.54-.28-1.09-.41-1.63-.06.53-.12,1.06-.17,1.6-.16,1.42-.47,3-.82,4.87-1.84,9.45-4.61,23.75,6.7,46.3,12.76,25.47,15.52,35.75,19.33,50,.2.75.4,1.51.61,2.27l.42,1.42c.05-.5.11-1,.16-1.5,1.38-12.27,3.08-27.53-10.42-54.44C652.72,503.9,650.51,490.81,649,482.15Zm24.22,95.55c-.07-.25-.14-.49-.2-.74-3.83-14.31-6.6-24.65-19.43-50.23-11.1-22.15-8.38-36.2-6.58-45.48.24-1.23.45-2.35.62-3.38.27,1.31.51,2.76.79,4.38,1.48,8.73,3.71,21.94,14.34,43.14C675.61,550.93,674.62,565.23,673.26,577.7Z"/>
    <path d="M648.8,495.73c-.93,8.64-7.64,24,5.81,50.81s15.76,36.65,20,52.38c1.4-12.56,3.1-27.37-10.35-54.18S650.82,503.82,648.8,495.73Z" style="fill: #006b3f"/>
    <path d="M650.25,501.74c-.39-2.34-.74-4.36-1.17-6.11-.14-.54-.28-1.09-.41-1.63l-.17,1.6c-.15,1.42-.46,3-.82,4.87-1.84,9.46-4.61,23.75,6.7,46.3,12.76,25.47,15.52,35.75,19.33,50,.2.75.41,1.51.61,2.27l.42,1.42.17-1.5c1.37-12.27,3.07-27.53-10.43-54.44C653.93,523.48,651.72,510.39,650.25,501.74Zm24.22,95.54-.2-.74c-3.83-14.31-6.6-24.65-19.43-50.23-11.1-22.15-8.38-36.19-6.58-45.48.24-1.23.45-2.35.62-3.38.27,1.31.51,2.77.79,4.38,1.48,8.73,3.71,21.94,14.34,43.14C676.83,570.5,675.84,584.81,674.47,597.28Z"/>
    <path d="M648.58,511.73c-.8,8.7-7.29,24.28,6.49,50.77s16.21,36.25,20.64,51.88c1.23-12.63,2.72-27.54-11.06-54S650.71,519.78,648.58,511.73Z" style="fill: #006b3f"/>
    <path d="M650.11,517.71c-.42-2.33-.79-4.34-1.25-6.08-.15-.55-.29-1.09-.43-1.63l-.15,1.61c-.13,1.43-.42,3-.75,4.91-1.7,9.54-4.27,24,7.31,46.22,13.08,25.13,16,35.35,20,49.51l.64,2.25c.14.47.29.94.43,1.41l.15-1.5c1.2-12.35,2.69-27.7-11.14-54.26C654.08,539.4,651.69,526.34,650.11,517.71Zm25.45,95-.21-.72c-4-14.24-6.92-24.51-20.05-49.76-11.38-21.86-8.85-36-7.19-45.4.22-1.24.42-2.36.57-3.41.29,1.31.56,2.76.85,4.37,1.6,8.71,4,21.88,14.89,42.8C677.54,585.82,676.75,600.2,675.56,612.74Z"/>
    <path d="M647.94,475.72c-3.15.49-2.5,12.16,1.45,26.06s9.71,24.78,12.86,24.29,2.5-12.16-1.45-26.06S651.09,475.24,647.94,475.72Z" style="fill: #006b3f"/>
    <path d="M647.76,474.65c-.82.13-1.48.83-1.91,2-1.47,4.09-.34,14.06,2.87,25.39,3.38,11.89,8.91,24.17,13,25.05a2.11,2.11,0,0,0,.75,0c.82-.13,1.48-.83,1.91-2,1.47-4.1.34-14.07-2.87-25.39C657.88,487.1,651.86,474,647.76,474.65ZM663,523.9c-.24.68-.56,1-1,1.1-2.44.36-8-9.18-12-23.5-3-10.41-4.15-20.12-2.9-23.61.25-.67.56-1,1-1.1a1.23,1.23,0,0,1,.38,0c2.58.56,7.76,9.88,11.63,23.49C663.09,510.71,664.28,520.41,663,523.9Z"/>
    <path d="M644.2,492.26c-2.84.09-2.65,9.47.42,20.94s7.86,20.69,10.69,20.59,2.65-9.47-.42-20.94S647,492.16,644.2,492.26Z" style="fill: #006b3f"/>
    <path d="M644.05,491c-.85,0-1.55.64-2,1.77-1.38,3.36-.67,11.51,1.8,20.75,2.7,10.08,7.42,20.7,11.12,21.5a2.26,2.26,0,0,0,.51,0c.85,0,1.55-.65,2-1.78,1.38-3.36.67-11.5-1.8-20.74C652.86,502,647.83,490.86,644.05,491ZM656,531.74c-.28.68-.59.77-.8.78-2.13,0-6.63-8-9.75-19.63-2.58-9.64-2.78-16.39-1.88-18.59.28-.68.59-.77.8-.77a.9.9,0,0,1,.23,0c2.19.48,6.51,8.36,9.52,19.61C656.67,522.79,656.87,529.54,656,531.74Z"/>
    <path d="M638.1,499.79c-2.84,0-2.79,9.35.13,20.88s7.59,20.87,10.43,20.87,2.79-9.36-.13-20.88S640.94,499.79,638.1,499.79Z" style="fill: #006b3f"/>
    <path d="M638,498.52c-.86,0-1.56.59-2.05,1.7-1.43,3.31-.84,11.45,1.51,20.74,2.58,10.19,7.2,21,10.92,21.8a2.2,2.2,0,0,0,.44,0c.86,0,1.56-.59,2.05-1.71,1.43-3.31.84-11.44-1.51-20.73C646.65,509.78,641.75,498.51,638,498.52Zm11.38,41c-.29.67-.61.75-.82.75-2.08,0-6.53-8.16-9.5-19.88-2.45-9.68-2.55-16.42-1.62-18.58.29-.67.61-.75.82-.75l.2,0c2.18.47,6.42,8.49,9.3,19.85C650.18,530.62,650.28,537.36,649.35,539.52Z"/>
    <path d="M643.88,473.51c-2.29.11-2,7.2.63,15.83s6.63,15.52,8.93,15.41,2-7.2-.63-15.83S646.17,473.4,643.88,473.51Z" style="fill: #006b3f"/>
    <path d="M643.68,471.89c-.85,0-1.52.65-1.94,1.77-1.08,2.85-.4,9,1.78,16.15,2.41,7.91,6.39,15.82,9.58,16.51a1.94,1.94,0,0,0,.53.05c.86,0,1.53-.66,2-1.77,1.08-2.85.4-9-1.78-16.16C651.25,480.09,646.94,471.72,643.68,471.89Zm9.94,30.82c-.15.4-.3.41-.38.41-1.37.09-5-5.45-7.74-14.26-2-6.57-2.42-11.67-1.8-13.31.15-.4.3-.41.38-.42,1.38,0,5,5.46,7.74,14.27C653.82,496,654.24,501.06,653.62,502.71Z"/>
    <path d="M639.11,478.17c-2.32-.08-2.34,6.95-.05,15.7s6,15.9,8.34,16,2.33-6.95,0-15.7S641.42,478.25,639.11,478.17Z" style="fill: #006b3f"/>
    <path d="M639,476.55a2.2,2.2,0,0,0-2,1.59c-1.2,2.74-.77,8.91,1.11,16.11,2.14,8.16,5.9,16.47,9.13,17.17a2.35,2.35,0,0,0,.37.05,2.22,2.22,0,0,0,2-1.6c1.2-2.73.78-8.91-1.11-16.11C646.24,485.29,642.26,476.66,639,476.55Zm8.7,31.28c-.17.4-.32.39-.41.39-1.34-.05-4.84-5.8-7.18-14.73-1.74-6.65-1.94-11.73-1.25-13.31.18-.39.33-.39.41-.38,1.33,0,4.85,5.8,7.18,14.73C648.16,501.17,648.37,506.25,647.67,507.83Z"/>
    <path d="M631.83,487.8c4,15.05,8.82,26.38,10.81,25.29s.39-14.21-3.59-29.27Z" style="fill: #006b3f"/>
    <path d="M638.77,483.92c4.19,15.85,5.33,27.87,3.73,28.75-.18.09-.4,0-.68-.16-2.28-1.72-6.37-12.15-9.72-24.82l-.55.21c3.45,13.1,7.6,23.54,10.07,25.39a1.47,1.47,0,0,0,.59.29.79.79,0,0,0,.57-.07c2.51-1.38.09-16.38-3.45-29.8Z"/>
    <path d="M638.45,461.36c-2.31-.08-2.33,6.95,0,15.7s6,15.9,8.34,16,2.33-6.95,0-15.7S640.77,461.43,638.45,461.36Z" style="fill: #006b3f"/>
    <path d="M638.31,459.73c-.86,0-1.56.53-2,1.6-1.2,2.73-.78,8.9,1.11,16.11,2.14,8.16,5.9,16.47,9.12,17.17a2.52,2.52,0,0,0,.37.05,2.23,2.23,0,0,0,2-1.6c1.2-2.74.77-8.91-1.11-16.11C645.59,468.47,641.59,459.85,638.31,459.73ZM647,491c-.17.39-.33.39-.41.39-1.34-.05-4.84-5.81-7.18-14.73-1.74-6.65-1.95-11.73-1.25-13.31.17-.4.33-.39.41-.39l.1,0c1.43.31,4.8,6,7.08,14.71C647.51,484.36,647.71,489.44,647,491Z"/>
    <path d="M632,464.52c-2.32-.14-2.44,6.86-.28,15.64s5.8,16,8.12,16.16,2.44-6.86.28-15.64S634.34,464.66,632,464.52Z" style="fill: #006b3f"/>
    <path d="M631.91,462.9a2.15,2.15,0,0,0-2.07,1.53c-1.24,2.69-.91,8.85.87,16.08,2,8.24,5.71,16.69,8.95,17.39a1.81,1.81,0,0,0,.31.05,2.18,2.18,0,0,0,2.07-1.53c1.24-2.69.91-8.85-.87-16.08C639.07,471.83,635.21,463.11,631.91,462.9Zm8.25,31.42c-.18.4-.34.39-.42.38-1.41-.08-4.77-5.93-7-14.88-1.64-6.67-1.77-11.74-1-13.3.18-.39.34-.38.42-.38,1.41.08,4.76,5.93,7,14.89C640.75,487.7,640.88,492.77,640.16,494.32Z"/>
    <path d="M627.42,467.24c3.86,10.43,8.05,18,9.35,16.8s-.78-10.57-4.64-21Z" style="fill: #006b3f"/>
    <path d="M631.87,463.2c4,10.92,5.73,19.54,4.71,20.45-.09.08-.23.08-.41,0-1.41-.71-4.86-6.76-8.49-16.56l-.52.33c3.37,9.1,7,16.12,8.9,17.07a1,1,0,0,0,.28.1.67.67,0,0,0,.61-.15c1.67-1.5-1.11-12.22-4.56-21.56Z"/>
    <path d="M630.09,461.47c3.86,10.43,8,17.95,9.35,16.79s-.78-10.57-4.64-21Z" style="fill: #006b3f"/>
    <path d="M634.54,457.42c4,10.92,5.73,19.54,4.72,20.45-.1.09-.23.08-.41,0-1.41-.71-4.87-6.76-8.5-16.56l-.52.33c3.37,9.11,7,16.13,8.9,17.07a1.24,1.24,0,0,0,.28.11.64.64,0,0,0,.61-.16c1.67-1.49-1.1-12.22-4.56-21.56Z"/>
    <path d="M640.24,467c5.38,14.27,11.22,24.57,13,23s-1.08-14.44-6.47-28.71Z" style="fill: #006b3f"/>
    <path d="M646.56,461.39c5.66,15,8,26.89,6.53,28.15-.16.15-.38.15-.67,0-2.39-1.2-7.4-10.78-11.92-22.76l-.52.34c4.67,12.39,9.74,22,12.32,23.26a1.72,1.72,0,0,0,.37.14.89.89,0,0,0,.79-.19c2.27-2-1.59-16.57-6.39-29.28Z"/>
    <path d="M634.17,457.36c3.88,11.43,8.08,19.65,9.38,18.35s-.8-11.65-4.67-23.08Z" style="fill: #006b3f"/>
    <path d="M638.61,452.78c4.07,12,5.77,21.51,4.74,22.55-.06.05-.16.11-.37,0-1.4-.7-4.87-7.29-8.54-18.13l-.54.3c3.42,10.06,7.1,17.74,9,18.67l.25.09a.67.67,0,0,0,.62-.18c1.65-1.66-1.14-13.4-4.6-23.61Z"/>
    <path d="M638.53,437.22c-2.59,3.24,0,10.91,2.32,14,2.65,4.09,17.58,30.33,28.1,13.25C660.52,462.44,644.78,430.1,638.53,437.22Z" style="fill: #9461c9"/>
    <path d="M655.41,450.09c-6.57-8.6-13.37-17.49-17.09-13.25h0a7,7,0,0,0-1.16,4.77,20.15,20.15,0,0,0,3.49,9.89l.65,1c2.82,4.52,10.14,16.25,17.8,17.91a8.74,8.74,0,0,0,.87.14c3.51.4,6.62-1.55,9.24-5.79l.39-.63L669,464C665.4,463.16,660.32,456.52,655.41,450.09Zm4.51,19.59c-7.72-.87-15.33-13.1-18.2-17.7-.27-.43-.49-.79-.69-1.09a18.93,18.93,0,0,1-3.26-9.2,6,6,0,0,1,1-4.1c3.34-3.8,9.92,4.81,16.28,13.14,4.73,6.18,9.61,12.56,13.3,14C665.91,468.37,663.08,470,659.92,469.68Z"/>
    <path d="M636.69,425.47c-2.59,3.24-.06,10.91,2.31,14,2.66,4.1,17.58,30.34,28.11,13.26C658.68,450.69,642.93,418.35,636.69,425.47Z" style="fill: #9461c9"/>
    <path d="M653.56,438.34c-6.57-8.6-13.36-17.49-17.08-13.25h0a7,7,0,0,0-1.17,4.78,20.11,20.11,0,0,0,3.49,9.88c.18.26.4.61.66,1,2.82,4.52,10.14,16.25,17.8,17.91a8.74,8.74,0,0,0,.87.14c3.51.4,6.62-1.55,9.23-5.79l.39-.63-.62-.16C663.56,451.41,658.48,444.77,653.56,438.34Zm4.51,19.6a7.81,7.81,0,0,1-.82-.14c-7.41-1.6-14.6-13.13-17.37-17.56-.27-.44-.5-.8-.69-1.09a18.93,18.93,0,0,1-3.27-9.21,6,6,0,0,1,1-4.1c3.35-3.8,9.93,4.81,16.29,13.14,4.73,6.19,9.6,12.57,13.3,14C664.07,456.63,661.24,458.3,658.07,457.94Z"/>
    <path d="M634.33,414.08c-2.59,3.24-.05,10.91,2.31,14,2.66,4.1,17.58,30.34,28.11,13.27C656.32,439.31,640.57,407,634.33,414.08Z" style="fill: #9461c9"/>
    <path d="M651.2,427c-6.57-8.6-13.36-17.5-17.08-13.25h0a7,7,0,0,0-1.16,4.77,20,20,0,0,0,3.49,9.88c.17.26.39.62.65,1,2.82,4.52,10.14,16.25,17.8,17.91a8.79,8.79,0,0,0,.87.15c3.51.4,6.62-1.55,9.23-5.79l.4-.63-.63-.16C661.2,440,656.12,433.39,651.2,427Zm4.51,19.59c-7.67-.87-15.32-13.1-18.19-17.7l-.69-1.09a19,19,0,0,1-3.27-9.2,6,6,0,0,1,1-4.1c3.35-3.8,9.93,4.81,16.29,13.14,4.73,6.19,9.6,12.57,13.3,14C661.71,445.25,658.88,446.91,655.71,446.55Z"/>
    <path d="M629.2,400.53c-2.59,3.24-.05,10.91,2.32,14,2.66,4.1,17.58,30.34,28.11,13.27C651.19,425.76,635.45,393.41,629.2,400.53Z" style="fill: #9461c9"/>
    <path d="M646.08,413.41c-6.57-8.61-13.36-17.5-17.09-13.26h0a7.1,7.1,0,0,0-1.16,4.78,20.11,20.11,0,0,0,3.49,9.88l.66,1c2.82,4.52,10.14,16.25,17.79,17.91a6.6,6.6,0,0,0,.87.15c3.52.4,6.63-1.54,9.24-5.78l.39-.63-.63-.16C656.07,426.49,651,419.84,646.08,413.41Zm4.51,19.6c-7.69-.91-15.32-13.11-18.2-17.71-.27-.44-.49-.8-.69-1.09a19,19,0,0,1-3.26-9.21,6,6,0,0,1,1-4.1c3.35-3.8,9.93,4.82,16.29,13.15,4.72,6.19,9.6,12.57,13.3,14C656.59,431.71,653.76,433.37,650.59,433Z"/>
    <path d="M610.81,384.62c-4.69,4.35-6,15.63-3,23.49,2.93,8.27,11.25,13.89,21.28,14,7.21.1,9.73-.47,16.81-6.42,3.58,3.3,7,5.27,12.6,5-8-6.11-18.56-27-24.92-32.92C626,380.43,616.15,380,610.81,384.62Z" style="fill: #9461c9"/>
    <path d="M644.1,401.49c-3.87-5.9-7.53-11.47-10.37-14.12-8.25-7.93-18.07-7.56-23.11-3.18h0c-4.73,4.38-6.2,15.87-3.09,24.08,2.48,7,8.57,12,16.19,13.69a26.8,26.8,0,0,0,5.43.59c7.2.1,9.83-.51,16.79-6.33,3.48,3.15,7,5.19,12.63,4.94l1.18-.05-1.12-.86C654.22,416.89,649.08,409.06,644.1,401.49ZM646,415.26l-.17-.16-.16.13c-7,5.89-9.42,6.46-16.67,6.36-9.81-.08-18-5.43-20.95-13.67-3-7.81-1.57-18.71,2.92-22.87,5-4.3,14.7-4.31,22.43,3.12,2.76,2.58,6.39,8.1,10.22,13.94,4.63,7.05,9.4,14.31,13.65,18.11C652.39,420.17,649.31,418.27,646,415.26Z"/>
    <path d="M622.17,394.76c-2.53-.62-4.61.62-4.64,2.76s2,4.38,4.55,5,4.61-.61,4.64-2.76S624.71,395.38,622.17,394.76Z" style="fill: #d41c30"/>
    <path d="M622.2,392.85a5.21,5.21,0,0,0-3.93.44,4.46,4.46,0,0,0-2,3.91,7.64,7.64,0,0,0,5.84,7.24l.16,0A5.11,5.11,0,0,0,626,404a4.43,4.43,0,0,0,2-3.91A7.62,7.62,0,0,0,622.2,392.85Zm2.5,7.52a3.46,3.46,0,0,1-2.6.24c-2-.49-3.26-2.09-3.25-2.77a1.26,1.26,0,0,1,.7-.92,3.45,3.45,0,0,1,2.48-.27l.12,0c2,.49,3.27,2.1,3.26,2.77A1.25,1.25,0,0,1,624.7,400.37Z"/>
    <path d="M606.76,405.7c-3.31,1.09-5.39,4.49-4.64,7.6s4,4.76,7.36,3.68a6.68,6.68,0,0,0,4.64-7.59C613.37,406.27,610.08,404.62,606.76,405.7Z" style="fill: #fcd116"/>
    <path d="M611.65,404.14a7,7,0,0,0-5.35-.33,8.35,8.35,0,0,0-5.41,9.89,7.19,7.19,0,0,0,3.69,4.84,6.45,6.45,0,0,0,1.58.55,7.15,7.15,0,0,0,3.77-.21,8.35,8.35,0,0,0,5.42-9.89A7.25,7.25,0,0,0,611.65,404.14ZM609,415.08a5.23,5.23,0,0,1-3.94-.19,3.13,3.13,0,0,1-1.73-2c-.43-1.77,1.14-4.41,3.87-5.3a5.43,5.43,0,0,1,2.87-.17,4.3,4.3,0,0,1,1.06.37,3.16,3.16,0,0,1,1.74,2C613.31,411.55,611.75,414.19,609,415.08Z"/>
    <path d="M621.92,396.25c-.91-.22-1.66.53-1.68,1.68a2.53,2.53,0,0,0,1.63,2.48c.91.23,1.66-.52,1.68-1.67A2.55,2.55,0,0,0,621.92,396.25Z"/>
    <path d="M603.82,396.3c-5.42.6-8.66,7.15-3.56,25.4,1.47-7.2,4-11.25,7.37-12.55,3.29-.71,4.81-4.42,4.39-7.5C611.28,396,608.48,395.14,603.82,396.3Z" style="fill: #fcd116"/>
    <path d="M610.52,396.74c-1.4-1.52-3.5-1.82-6.79-1a6.46,6.46,0,0,0-5.47,4.57c-1.67,4.41-1.11,11.66,1.65,21.54l.42,1.53.3-1.44c1.39-6.82,3.79-10.94,7.11-12.23,3.5-.76,5.11-4.71,4.65-8.09A8.62,8.62,0,0,0,610.52,396.74Zm-3,11.86c-3.34,1.29-5.78,5.14-7.28,11.45-2.31-8.76-2.73-15.18-1.26-19.08a5.81,5.81,0,0,1,5-4.11,9.69,9.69,0,0,1,4.27-.31,3.52,3.52,0,0,1,1.93,1.07,7.29,7.29,0,0,1,1.51,4.05h0C612,404.49,610.56,407.93,607.48,408.6Z"/>
    <path d="M607,400.12c-.65-.09-1.14.63-1.1,1.6s.59,1.83,1.23,1.92,1.14-.62,1.1-1.59S607.67,400.21,607,400.12Z"/>
  </g>
</svg>
