<svg xmlns="http://www.w3.org/2000/svg" viewBox="0 0 1260 1012.04">
  <g>
    <path d="M0,90.08v920C420,738.76,840,1193.28,1260,922V2C840,273.28,420-181.24,0,90.08Z" style="fill: #fff"/>
    <path d="M0,90.08v920C210,874.42,420,920.22,630,966V46C420,.22,210-45.58,0,90.08Z" style="fill: #006233"/>
    <path d="M747.6,639.36V556q-22.46,3.79-44.91,7.14Q725.15,601.43,747.6,639.36Z" style="fill: #d21034"/>
    <path d="M575.86,638c-72.43-78.44-84.14-196-26.15-264.07,58-67.75,163.72-55.41,236.14,19.74A231.4,231.4,0,0,1,812,426.34C754,309.45,625.58,241.56,525.13,284.8c-100.44,44.78-134.85,184-76.86,300.94S634.69,770.55,735.13,727.29c31.93-14,58.44-38.66,76.87-70.95C754,728.06,648.28,717.14,575.86,638Z" style="fill: #d21034"/>
    <path d="M630,573.49c24.23-3.37,48.46-6.73,72.69-10.37Q688.85,539.5,675,515.77,652.51,544.69,630,573.49Z" style="fill: #d21034"/>
    <path d="M702.69,480.08Q688.85,498,675,515.77q13.86,23.72,27.7,47.35,22.45-3.37,44.91-7.14V505Q725.15,492.76,702.69,480.08Z" style="fill: #d21034"/>
    <path d="M747.6,556c23.8-4,47.6-8.48,71.4-13.64C795.2,530.51,771.4,518,747.6,505Z" style="fill: #d21034"/>
    <path d="M747.6,421.62q-22.46,29.46-44.91,58.46Q725.15,492.73,747.6,505Z" style="fill: #d21034"/>
    <path d="M630,438.56q22.5,38.64,45,77.21,13.86-17.81,27.7-35.69C678.46,466.42,654.23,452.49,630,438.56Z" style="fill: #d21034"/>
  </g>
</svg>
