<svg xmlns="http://www.w3.org/2000/svg" viewBox="0 0 1260 1012.04">
  <g>
    <path d="M0,90.08v920C420,738.76,840,1193.28,1260,922V2C840,273.28,420-181.24,0,90.08Z"/>
    <path d="M0,90.08V703.41C420,432.09,840,886.62,1260,615.3V2C840,273.28,420-181.24,0,90.08Z" style="fill: #fff"/>
    <path d="M0,90.08V396.74C420,125.43,840,580,1260,308.63V2C840,273.28,420-181.24,0,90.08Z" style="fill: #ce1126"/>
    <polygon points="631.13 509.95 631.13 509.95 631.13 509.95 631.13 509.95" style="fill: #fff"/>
    <path d="M720.19,449.27c-1-27-22.29-25.17-37.76-18.8-15.67,7.68-33.54,3.79-52.42-7.59-18.88,3.14-36.76-.75-52.42-15.07-15.47-13-36.76-23.46-37.76,3.19q-3.42,87.84-6.83,175.7c32.71-26,65.42-51.39,98.13-76.75h0c32,39.47,63.93,78.93,95.89,117.74Q723.6,538.49,720.19,449.27Z" style="fill: #fff"/>
    <path d="M713.19,429.67c-9.65-7.8-25-2.68-31.24-.12-14.35,7-31.73,4.48-51.65-7.53a.91.91,0,0,0-.59-.13c-19.92,3.32-37.29-1.68-51.68-14.83-6.17-5.17-21.54-16.74-31.2-12.84-4.89,2-7.55,7.55-7.89,16.56q-3.42,87.84-6.83,175.7a1.2,1.2,0,0,0,.51,1,.78.78,0,0,0,1,0c32.51-25.86,65-51.06,97.54-76.26,31.76,39.22,63.52,78.43,95.28,117a1,1,0,0,0,.61.38.92.92,0,0,0,.37,0,.8.8,0,0,0,.52-.83q-3.42-89.19-6.83-178.41C720.74,440.27,718.09,433.63,713.19,429.67Zm-81.45,79.7a.87.87,0,0,0-1.2-.27C598.35,534.05,566.16,559,534,584.6l6.75-173.38c.31-8.29,2.66-13.38,7-15.12a12.37,12.37,0,0,1,7.13-.34c8.23,1.69,17.82,9,22.29,12.77,14.76,13.49,32.56,18.68,52.9,15.38,20.34,12.18,38.14,14.72,52.86,7.5,5.91-2.44,20.6-7.38,29.46-.21,4.31,3.49,6.66,9.52,7,17.94q3.38,88,6.74,176C694.6,587,663.17,548.18,631.74,509.37Z" style="fill: #c09300"/>
    <polygon points="550.86 407.07 550.86 407.07 550.86 407.07 550.86 407.07" style="fill: #c09300"/>
    <path d="M533,586.69q5.63-4.38,11.25-8.74l6.63-170.88c-2.21-.45-7.84,2.15-11.05,3.93Q536.39,498.84,533,586.69Z" style="fill: #c09300"/>
    <path d="M554.28,410.42q-3.4,82.47-6.82,165,5.63-5.16,11.24-10.3,2.82-71.46,5.63-142.9h0C563.12,420.6,556.5,413.29,554.28,410.42Z" style="fill: #c09300"/>
    <path d="M563.12,562.76l9-7.78q2.21-59.62,4.42-119.23h0c-1.21-1.57-5.63-6-7.83-8.91Q565.93,494.8,563.12,562.76Z" style="fill: #c09300"/>
    <path d="M576.58,552.17l8.84-6,4.41-101.46h0c-2.21-.48-6.62-4.06-8.83-5.63Q578.78,495.64,576.58,552.17Z" style="fill: #c09300"/>
    <path d="M589.83,539.77l9-7.74,3.21-84.64h0c-1,.88-6.63-.34-8.83-.81Z" style="fill: #c09300"/>
    <polygon points="709.14 440.88 709.14 440.88 709.14 440.88 709.14 440.88" style="fill: #c09300"/>
    <path d="M709.14,440.88l6.63,173.57L727,627.69q-3.42-89.21-6.83-178.42C717,446.21,711.35,441.33,709.14,440.88Z" style="fill: #c09300"/>
    <path d="M695.67,450.41h0q2.82,72.61,5.63,145.23,5.63,7.47,11.24,14.91-3.4-83.86-6.82-167.74C703.5,444.78,696.88,449.35,695.67,450.41Z" style="fill: #c09300"/>
    <path d="M683.42,458.84h0q2.22,60.54,4.42,121.09l9,11.56q-2.82-69.12-5.63-138.26C689.05,455.19,684.63,457.77,683.42,458.84Z" style="fill: #c09300"/>
    <path d="M670.17,462.17h0l4.41,103.36,8.84,9.73q-2.2-57.46-4.42-114.94C676.79,461,672.38,462.65,670.17,462.17Z" style="fill: #c09300"/>
    <path d="M657.92,459.53h0l3.21,86q4.51,5.82,9,11.62l-3.42-94.65C664.55,462.07,658.92,460.85,657.92,459.53Z" style="fill: #c09300"/>
    <path d="M625.58,528.15q-6.72,32.08-13.45,64.16c1.47,1.93,2.94,3.87,4.42,5.8l4.62-2.73q3.81-29.08,7.63-58.17-1.6,29.56-3.22,59.13c1.48,2.37,2.95,4.75,4.42,7.12l4.42-5.19-3.21-60.53q3.81,30.75,7.63,61.49l4.62,4.75,4.42-3.88q-6.72-35-13.46-70Z" style="fill: #c09300"/>
    <path d="M625,527.2q-6.84,32.59-13.67,65.2l5.16,6.78,5.4-3.19q2.53-19.35,5.08-38.7l-2.13,39.15,5.18,8.35,5.19-6.09-2.13-40.08q2.55,20.46,5.08,40.92l5.4,5.54,5.16-4.54Q641.88,565,635,529.39Zm18.41,75.68-3.85-4q-3.79-30.57-7.58-61.14l-1.5-.17q1.59,30.11,3.2,60.22L630,602.13l-3.65-5.89q1.6-29.4,3.2-58.82l-1.49-.48-7.59,57.83L616.62,597,613,592.23q6.62-31.58,13.24-63.12l7.63,1.66q6.61,34.44,13.24,68.89Z" style="fill: #c09300"/>
    <path d="M599.87,493.09q-13.35,49-26.71,98.1,18.38,7,36.76,14l15.66-74.67q-12.86-18.75-25.71-37.48Z" style="fill: #fff"/>
    <path d="M600.5,492.62a1,1,0,0,0-.81-.46.66.66,0,0,0-.62.51q-13.35,49-26.71,98.11a1,1,0,0,0,.1.76,1.12,1.12,0,0,0,.57.53q18.39,7,36.76,14l.13,0a.66.66,0,0,0,.81-.54l15.66-74.68a1.09,1.09,0,0,0-.19-.84Zm8.77,111.45q-17.52-6.74-35-13.4,13-47.85,26-95.64l24.42,35.6Q617,567.35,609.27,604.07Z" style="fill: #c09300"/>
    <path d="M594.58,534.25c-.91-2.61-1.81-5.22-2.72-7.84l-1.65.39q1.62,4.63,3.22,9.27a1.23,1.23,0,0,0,.64.72.64.64,0,0,0,.18.06.72.72,0,0,0,.62-.14l17.36-14.41L611,520.63Z" style="fill: #c09300"/>
    <path d="M607.35,543.43q-1.71-17.82-3.4-35.64l-1.77-.17,3.63,38.11a1.27,1.27,0,0,0,.65,1l.24.09a.68.68,0,0,0,.7-.23l11.05-13.44L617,531.64Z" style="fill: #c09300"/>
    <path d="M612.47,537.66q3,12.06,6,24.13l1.7-.17-6-24.13Z" style="fill: #c09300"/>
    <path d="M621,553.14l-11.06,16-3-19a1.27,1.27,0,0,0-.68-.92.72.72,0,0,0-.91.17l-7.1,9-3.09-12.73a1.27,1.27,0,0,0-.64-.82.76.76,0,0,0-.86.08q-5.72,5.2-11.44,10.41a.89.89,0,0,0-.22.89l5.82,24.62a1.22,1.22,0,0,0,.73.87.74.74,0,0,0,.89-.27l7-11.15q1.92,6.78,3.82,13.56a1.23,1.23,0,0,0,.73.82.72.72,0,0,0,.86-.25q3.58-5.33,7.16-10.64l3.48,18.78,1.74,0L610.39,572l12.08-17.47Zm-19.64,28.43-3.84-13.63a1.24,1.24,0,0,0-.74-.82l-.1,0a.7.7,0,0,0-.76.3l-7,11q-2.58-10.89-5.14-21.76l10-9.11q1.59,6.53,3.17,13a1.25,1.25,0,0,0,.69.85.73.73,0,0,0,.88-.19l7-8.81,3,18.52Q604.9,576.27,601.34,581.57Z" style="fill: #c09300"/>
    <path d="M600,587.38a.71.71,0,0,0-.86.29l-5.59,9.19q-2.13-8.18-4.25-16.35a1.24,1.24,0,0,0-.71-.83.71.71,0,0,0-.87.21l-7.42,9.83,1.45,1.44q3.18-4.23,6.37-8.44,2.14,8.29,4.31,16.59a1.21,1.21,0,0,0,.74.85.71.71,0,0,0,.88-.29q2.81-4.62,5.63-9.24,1.89,6.75,3.8,13.52l1.69-.25q-2.21-7.85-4.42-15.69A1.23,1.23,0,0,0,600,587.38Z" style="fill: #c09300"/>
    <path d="M660.13,506.19,634.42,532.5,650.08,614q18.39.91,36.76,1.73Q673.49,561,660.13,506.19Z" style="fill: #fff"/>
    <path d="M660.93,506.12a1.16,1.16,0,0,0-.62-.77.69.69,0,0,0-.81.11q-12.86,13.16-25.7,26.3a.83.83,0,0,0-.19.76L649.27,614a1.14,1.14,0,0,0,.81.89l.13,0q18.38.92,36.76,1.73a.65.65,0,0,0,.57-.29.92.92,0,0,0,.1-.72Q674.29,560.92,660.93,506.12Zm-10.2,107Q643,573,635.32,533q12.21-12.48,24.42-25,13,53.41,26,106.78Q668.26,614,650.73,613.1Z" style="fill: #c09300"/>
    <path d="M665.42,549.64,649,528.91l-1.23,1.14L665.13,552a1.14,1.14,0,0,0,.62.41.55.55,0,0,0,.18,0,.68.68,0,0,0,.64-.44q1.6-3.94,3.22-7.89L668.14,543C667.23,545.19,666.33,547.42,665.42,549.64Z" style="fill: #c09300"/>
    <path d="M652.65,553.3l-9.69-16-1.41.88q5.52,9.12,11.05,18.24a1.1,1.1,0,0,0,.7.53.65.65,0,0,0,.24,0,.73.73,0,0,0,.65-.7l3.63-36.54-1.77-.59Q654.36,536.21,652.65,553.3Z" style="fill: #c09300"/>
    <path d="M639.78,565.88l1.71.92q3-10.75,6-21.5l-1.71-.91Q642.8,555.13,639.78,565.88Z" style="fill: #c09300"/>
    <path d="M666.39,560.75a1,1,0,0,0-.86-.44.7.7,0,0,0-.64.54l-3.09,11.4q-3.54-6-7.1-12.06a1.06,1.06,0,0,0-.91-.57.72.72,0,0,0-.68.63l-3,17.64L639,557.07l-1.49.75,12.08,22.72-3.81,18.91,1.74.78L651,583l7.16,13.74a1.09,1.09,0,0,0,.86.63.7.7,0,0,0,.73-.51q1.9-5.94,3.82-11.9,3.51,7.08,7,14.17a1.12,1.12,0,0,0,.88.65.7.7,0,0,0,.73-.55l5.82-22.14a1.17,1.17,0,0,0-.22-1Q672.12,568.41,666.39,560.75Zm4.67,35.49-7-14a1.15,1.15,0,0,0-.86-.65.7.7,0,0,0-.74.51l-3.84,12q-3.55-6.84-7.13-13.68l3-17.24q3.46,5.91,7,11.82a1.08,1.08,0,0,0,.88.57A.69.69,0,0,0,663,575q1.59-5.85,3.17-11.68l10,13.4Q673.64,586.46,671.06,596.24Z" style="fill: #c09300"/>
    <path d="M671.45,597.66a.69.69,0,0,0-.71.52q-2.12,7.27-4.24,14.53-2.81-5.81-5.6-11.61a1.19,1.19,0,0,0-.86-.66.7.7,0,0,0-.75.51q-2.22,6.88-4.42,13.78l1.69,1,3.81-11.87q2.8,5.85,5.63,11.68a1.12,1.12,0,0,0,.87.66.69.69,0,0,0,.74-.53q2.16-7.36,4.31-14.74l6.37,11.16,1.45-.82-7.42-13A1.05,1.05,0,0,0,671.45,597.66Z" style="fill: #c09300"/>
    <path d="M714.76,639.76a2.42,2.42,0,0,0-.83,0A3.23,3.23,0,0,0,714.76,639.76Z" style="fill: #fff"/>
    <path d="M546.07,604a2.8,2.8,0,0,0-.83-.29A3.93,3.93,0,0,0,546.07,604Z" style="fill: #fff"/>
    <path d="M703.51,630.2c0-8.58-7.83-11.29-14.46-10.28-13.26,2.07-36.76-1.91-59-6.79-22.29-6-45.59-11-59-18.67-6.63-3.81-14.46-4.33-14.46,4.25-5.27-2.32-6.48,6-10.42,5.25,3.37,1.71.83,8.78,7,12.3,0,4.84,0,8.58,6.82,11.31,15.47,8,42.18,16.18,70.1,22.29h0c27.92,6.11,54.63,9.44,70.3,7.83,6.63,0,6.63-3.69,6.63-8.54,6.18-1,3.64-9.1,7-9.44C710,638.91,708.78,630.05,703.51,630.2Z" style="fill: #fff"/>
    <path d="M714.76,637.93a5.21,5.21,0,0,0-1-.1c-.79-.29-1.52-1.35-2.74-3.31-1.37-2.2-3.15-5.07-6-5.92a11.68,11.68,0,0,0-3.31-6.89c-3.09-3.07-8-4.42-13.21-3.63-10.78,1.68-29.92-.52-58.45-6.75-4-1.07-8-2.1-12-3.13-18.4-4.76-35.78-9.19-46.61-15.36-5.18-3-10.12-3.68-13.2-1.88a7.08,7.08,0,0,0-3.32,5.51c-2.82-.3-4.6,1.84-6,3.48-1.22,1.46-2,2.23-2.75,2.2a4.69,4.69,0,0,0-1-.3,1.36,1.36,0,0,0-1.65,1.25,2.31,2.31,0,0,0,1.23,2.25,6.38,6.38,0,0,0,.95.37c.31.27.52.93.91,2.75.52,2.5,1.29,6.14,4.74,8.68.05,4.56.66,9.11,8.11,12.12C574.42,637,600.1,645.14,630,651.69s55.6,9.39,70.67,7.85c7.27,0,7.87-4.29,7.92-8.82,3.44-1.12,4.21-4.46,4.74-6.74.38-1.66.6-2.24.9-2.39a5,5,0,0,0,.95,0,1.45,1.45,0,0,0,1.23-1.75A2.24,2.24,0,0,0,714.76,637.93Zm-4.67,4.54c-.55,2.37-1,4.42-3.69,4.85a1.41,1.41,0,0,0-1.14,1.49c0,4.85,0,7.06-5.26,7h-.15c-14.79,1.52-40.25-1.32-69.85-7.8-29.23-6.39-55.26-14.67-69.64-22.13l-.17-.08c-5.45-2.18-5.45-4.39-5.45-9.23a2.33,2.33,0,0,0-1.14-2c-2.67-1.52-3.14-3.77-3.69-6.36a17,17,0,0,0-.85-3.06,11.59,11.59,0,0,0,2.55-2.49c1.78-2.14,2.81-3.07,4.53-2.31a1.44,1.44,0,0,0,1.4-.07,1.53,1.53,0,0,0,.62-1.29c0-2.35.69-3.95,2.05-4.74,2.19-1.28,6.1-.6,10.22,1.77,11.28,6.42,28.88,10.91,47.52,15.72,4,1,8,2.06,12,3.15,29,6.33,48.46,8.53,59.58,6.8,4.11-.63,8,.33,10.21,2.51a7.55,7.55,0,0,1,2.06,5.59,2.36,2.36,0,0,0,.62,1.55,1.89,1.89,0,0,0,1.39.65c1.71-.06,2.75,1.29,4.53,4.16a20.67,20.67,0,0,0,2.55,3.53A12.57,12.57,0,0,0,710.09,642.47Z" style="fill: #c09300"/>
    <path d="M619,602.36c-7.83-.6-17.88-3.89-26.91-7.15h0a171.64,171.64,0,0,1-24.51-11.36c-4.41-2-10,4.06-2.21,9.43,7.84,4.05,20.09,9.08,25.71,11.39,6.63,2.75,18.88,6.5,26.71,7.11C626.59,612.38,623.38,603.33,619,602.36Z" style="fill: #fff"/>
    <path d="M618.86,601.38h0c-8-.62-18.46-4.13-26.68-7.1h0a171,171,0,0,1-24.43-11.33,5.05,5.05,0,0,0-7,2.95c-.33,1-1,4.64,4.33,8.28,8.06,4.16,20.94,9.43,25.79,11.43a126.39,126.39,0,0,0,19.28,5.95,58.62,58.62,0,0,0,7.71,1.22c6.2.42,6.44-3.53,6.36-4.76A7.53,7.53,0,0,0,618.86,601.38Zm-1.22,9.41c-8-.63-20.3-4.5-26.44-7-4.83-2-17.65-7.23-25.51-11.29-2.66-1.83-3.81-3.82-3.24-5.61a3.65,3.65,0,0,1,4.15-2.35,2.77,2.77,0,0,1,.67.22,173.11,173.11,0,0,0,24.66,11.43h0c8.33,3,19,6.57,27,7.19a5.18,5.18,0,0,1,3.5,4.42C622.59,609.9,620.83,611,617.64,610.79Z" style="fill: #c09300"/>
    <path d="M692.47,610.74a121.6,121.6,0,0,1-24.5,1h0c-9-.62-19.08-1.7-26.72-4.47-4.62-1-7.83,6.65,1,9.9,7.83,2.81,20.08,4.37,26.71,4.46,5.62.12,17.87.31,25.71-.48C702.51,619,696.89,610.57,692.47,610.74Z" style="fill: #fff"/>
    <path d="M692.2,609.76a121.06,121.06,0,0,1-24.35.94c-8.24-.56-18.69-1.6-26.6-4.45a4.5,4.5,0,0,0-5.45,4.33c-.08,1.18.16,5.21,6.35,7.48a62.72,62.72,0,0,0,7.7,2.14,109.7,109.7,0,0,0,19.27,2.38c4.85.09,17.73.32,25.91-.52,5.21-1.39,4.55-5.29,4.22-6.45C698.34,612.38,695.08,609.65,692.2,609.76ZM668,611.69h0Zm26.46,8.42c-8,.81-20.8.58-25.63.48-6.13-.09-18.39-1.53-26.43-4.41-3.19-1.17-4.94-3-4.81-5.08a3.06,3.06,0,0,1,3.57-2.93c8,2.89,18.6,3.94,27,4.51h0a121.19,121.19,0,0,0,24.58-.95c1.89-.07,4.27,1.94,4.89,4.14C698.13,617.9,697,619.42,694.44,620.11Z" style="fill: #c09300"/>
    <path d="M556.5,595c1-2.21,5.62-1.26,6.62-3.46,1.21-3.49-1-4,1.21-7h0C557.5,581.76,554.28,589.68,556.5,595Z" style="fill: #fff"/>
    <path d="M564.48,583.57c-3.05-1.22-5.85-.61-7.67,1.7a10.28,10.28,0,0,0-1.11,10,1.16,1.16,0,0,0,.8.7h0a.72.72,0,0,0,.8-.41c.35-.78,1.61-1.06,2.82-1.33,1.55-.34,3.15-.7,3.83-2.21a7.16,7.16,0,0,0,.31-3.83,3.23,3.23,0,0,1,.79-3,1,1,0,0,0,.09-.91A1.24,1.24,0,0,0,564.48,583.57Zm-2,4.56a5.3,5.3,0,0,1-.2,2.8c-.36.78-1.62,1.06-2.84,1.33a9.29,9.29,0,0,0-2.65.88,8.22,8.22,0,0,1,1.41-6.41,4.52,4.52,0,0,1,4.61-1.7A4.8,4.8,0,0,0,562.52,588.13Z" style="fill: #c09300"/>
    <path d="M592,597.64a3.86,3.86,0,0,0-4.42,3.89c-1,4.62,3.42,6.3,3.42,11.13,0-4.84,4.41-3.29,4.41-8.13C595.45,602.11,594.25,598.11,592,597.64Z" style="fill: #fff"/>
    <path d="M592,596.66a4.61,4.61,0,0,0-5.31,4.56c-.57,2.84.64,4.81,1.71,6.55a8.51,8.51,0,0,1,1.71,4.7,1.21,1.21,0,0,0,.89,1.16.73.73,0,0,0,.89-.78,3.6,3.6,0,0,1,1.9-3.39,5.19,5.19,0,0,0,2.51-4.74C596.34,601.73,594.85,597.27,592,596.66Zm.62,11.08a7.24,7.24,0,0,0-1.55,1.42,18.82,18.82,0,0,0-1.26-2.28c-1-1.63-1.8-2.92-1.36-5a1.49,1.49,0,0,0,0-.21,3.14,3.14,0,0,1,3.53-3.11c1.47.31,2.53,3.64,2.53,5.73A3.63,3.63,0,0,1,592.66,607.74Z" style="fill: #c09300"/>
    <polygon points="622.83 605.63 622.83 605.63 622.83 605.63 622.83 605.63" style="fill: #fff"/>
    <path d="M622.83,605.63c2.21,4-2.87,2.89-2.87,6.64,0,2.41,5.62,5,5.62,8.48C628.8,616.61,629.46,607.07,622.83,605.63Z" style="fill: #fff"/>
    <path d="M622.83,604.65a.69.69,0,0,0-.78.35,1.06,1.06,0,0,0,.05,1c.72,1.31.49,1.52-.73,2.35a4.16,4.16,0,0,0-2.3,3.7c0,1.61,1.36,2.93,2.8,4.33s2.82,2.74,2.82,4.15a1.28,1.28,0,0,0,.62,1.07,1,1,0,0,0,.27.1.7.7,0,0,0,.72-.24c2.17-2.79,3.44-8.34,1.71-12.43A7.16,7.16,0,0,0,622.83,604.65Zm3.64,16.29h0Zm-.67-2.46a15.32,15.32,0,0,0-2.92-3.46c-1-.93-2-2-2-2.56,0-1.15.62-1.65,1.64-2.34.83-.56,2-1.34,1.76-3a4.86,4.86,0,0,1,2.18,2.47C627.55,612.25,627,615.92,625.8,618.48Z" style="fill: #c09300"/>
    <path d="M695.67,612.74h0c2.21,4,0,3.52,1.21,7.5,1,2.63,5.62,3.59,6.63,6.22C705.72,622.07,702.5,612.84,695.67,612.74Z" style="fill: #fff"/>
    <path d="M695.52,611.75a.69.69,0,0,0-.67.44,1.15,1.15,0,0,0,.09.95c1,1.84.93,2.42.79,3.29a8,8,0,0,0,.34,4.05c.65,1.7,2.25,2.73,3.8,3.71,1.22.78,2.48,1.58,2.83,2.5a1.19,1.19,0,0,0,.79.74h0a.69.69,0,0,0,.79-.37c1.38-2.74.93-7-1.11-10.44A9.2,9.2,0,0,0,695.52,611.75Zm7.65,12.74a14.64,14.64,0,0,0-2.65-2c-1.22-.77-2.48-1.58-2.8-2.42a5.57,5.57,0,0,1-.23-3,5.44,5.44,0,0,0-.34-3.23,7.52,7.52,0,0,1,4.62,3.6A10.44,10.44,0,0,1,703.17,624.49Z" style="fill: #c09300"/>
    <path d="M668,614.11c-2.21-.47-3.41,3-3.41,5.43,0,4.84,4.41,5.19,4.41,10h0c0-4.83,4.42-4.61,3.42-9.67C672.38,617.48,670.17,614.59,668,614.11Z" style="fill: #fff"/>
    <path d="M668,613.14c-2.81-.6-4.3,3.22-4.3,6.21a8.33,8.33,0,0,0,2.51,5.81c1.06,1.25,1.9,2.24,1.9,4.22a1.21,1.21,0,0,0,.89,1.16.73.73,0,0,0,.89-.78,5.53,5.53,0,0,1,1.71-4,6.14,6.14,0,0,0,1.71-5.82C673.2,617.07,670.61,613.71,668,613.14Zm2.2,11.16a9.89,9.89,0,0,0-1.27,1.74,13.83,13.83,0,0,0-1.55-2.09c-1.06-1.25-1.9-2.24-1.9-4.22s1.06-5,2.52-4.64a5.36,5.36,0,0,1,3.53,4.62,1.64,1.64,0,0,0,0,.22C672,622.15,671.16,623.1,670.16,624.3Z" style="fill: #c09300"/>
    <path d="M637.17,608.75c-6.63-1.44-6,8.38-2.76,13.92,0-3.51,5.63-3.61,5.63-6C640,612.9,635,611.79,637.17,608.75Z" style="fill: #fff"/>
    <path d="M638.63,612.13c-1.22-1.35-1.45-1.67-.73-2.67a1,1,0,0,0,.06-1,1.2,1.2,0,0,0-.79-.69c-3-.66-4.49.79-5.19,2.13-1.72,3.34-.45,9.44,1.71,13.18a1.18,1.18,0,0,0,.72.56.89.89,0,0,0,.28,0,.74.74,0,0,0,.61-.79c0-1.41,1.44-2.18,2.82-2.92s2.8-1.5,2.8-3.11A7,7,0,0,0,638.63,612.13Zm-1.52,6a8.17,8.17,0,0,0-2.91,2.19c-1.25-3.1-1.76-7-.63-9.17a2.64,2.64,0,0,1,2.18-1.52c-.23,1.57.92,2.85,1.75,3.77,1,1.14,1.65,1.91,1.65,3.06C639.15,617,638.07,617.61,637.11,618.12Z" style="fill: #c09300"/>
    <path d="M566.54,587.39h0Z" style="fill: #fff"/>
    <path d="M566.55,587.39l6.62,3.81C572.16,589.67,568.76,587.85,566.55,587.39Z" style="fill: #fff"/>
    <path d="M566.61,586.72a.5.5,0,0,0-.64.24.83.83,0,0,0,.22.92h0a.9.9,0,0,0,.2.14l6.58,3.79a.68.68,0,0,0,.2.07.48.48,0,0,0,.51-.19.74.74,0,0,0,0-.83C572.51,589.14,569,587.23,566.61,586.72Z" style="fill: #c09300"/>
    <path d="M577.57,593.45h0l0,0Z" style="fill: #fff"/>
    <path d="M577.59,593.46l7.81,4.08A28.48,28.48,0,0,0,577.59,593.46Z" style="fill: #fff"/>
    <path d="M585.7,597a29.8,29.8,0,0,0-8-4.21.52.52,0,0,0-.63.17.75.75,0,0,0,0,.81h0a.85.85,0,0,0,.4.33l7.75,4,.17.06a.49.49,0,0,0,.58-.3A.84.84,0,0,0,585.7,597Z" style="fill: #c09300"/>
    <path d="M617.69,606.93c-2.22-.48-6.58-1.42-7.77-.59Z" style="fill: #fff"/>
    <path d="M617.75,606.94h0Z" style="fill: #fff"/>
    <path d="M617.67,606.24h0c-3.29-.72-6.87-1.39-8.13-.52a.65.65,0,0,0-.17.76.81.81,0,0,0,.57.54H610l7.73.59a.51.51,0,0,0,.56-.23.73.73,0,0,0,0-.69A.8.8,0,0,0,617.67,606.24Z" style="fill: #c09300"/>
    <path d="M597.67,602.59l7.83,1.69h0C604.3,602.7,599.88,601.74,597.67,602.59Z" style="fill: #fff"/>
    <path d="M597.37,601.92a.59.59,0,0,0-.31.71.86.86,0,0,0,.61.64L605.5,605a.49.49,0,0,0,.58-.29.84.84,0,0,0-.14-.78C604.45,601.93,599.63,601.05,597.37,601.92Z" style="fill: #c09300"/>
    <path d="M693.48,614.7c-2.21-.46-5.43,0-6.63,1Z" style="fill: #fff"/>
    <path d="M693.48,614c-2.22-.46-5.66-.11-7.07,1.13a.66.66,0,0,0-.09.82.8.8,0,0,0,.53.44.61.61,0,0,0,.19,0l6.63-1a.55.55,0,0,0,.42-.67A.84.84,0,0,0,693.48,614Z" style="fill: #c09300"/>
    <path d="M682.43,616.11h0Z" style="fill: #fff"/>
    <path d="M682.41,616.11a20.65,20.65,0,0,0-7.81.75Z" style="fill: #fff"/>
    <path d="M682.33,615.41a21.19,21.19,0,0,0-8,.79.6.6,0,0,0-.28.8.86.86,0,0,0,.58.55h.17l7.76-.75a.55.55,0,0,0,.35-.12.69.69,0,0,0,.1-.81A.79.79,0,0,0,682.33,615.41Z" style="fill: #c09300"/>
    <path d="M642.25,612.28h0Z" style="fill: #fff"/>
    <path d="M642.3,612.29c2.59.94,5.19,1.87,7.78,2.79C648.89,613.74,644.52,612.78,642.3,612.29Z" style="fill: #fff"/>
    <path d="M642.34,611.62h0a.5.5,0,0,0-.64.24.79.79,0,0,0,.12.81h0a.77.77,0,0,0,.45.3l7.74,2.78.08,0a.5.5,0,0,0,.58-.29.8.8,0,0,0-.18-.83C649.22,613.22,645.63,612.34,642.34,611.62Z" style="fill: #c09300"/>
    <path d="M654.5,615l7.83,1.69C660.13,614.84,655.7,613.89,654.5,615Z" style="fill: #fff"/>
    <path d="M654.12,614.31a.59.59,0,0,0-.25.5.86.86,0,0,0,.62.82l7.84,1.69a.49.49,0,0,0,.61-.38.85.85,0,0,0-.31-.83C660.4,614.29,655.68,613.09,654.12,614.31Z" style="fill: #c09300"/>
    <path d="M565.28,603.67c-.64-.38-1.33,0-1.56.89a1.52,1.52,0,0,0,1,1.77h0a1,1,0,0,0,1,0,.29.29,0,0,1,.25-.1c.17,0,.57-.7.57-1A3.54,3.54,0,0,0,565.28,603.67Z" style="fill: #c09300"/>
    <path d="M642.16,626.36c-.5-.1-1.3.69-1.3,1.29a2.3,2.3,0,0,0,.72,1.26h0a1.94,1.94,0,0,0,1.53.18,1.26,1.26,0,0,0,.22-1.81A3.43,3.43,0,0,0,642.16,626.36Z" style="fill: #c09300"/>
    <path d="M643,630.41l-.48-.34-.51.19c-.72.28-.79.38-.74,1.13a1.54,1.54,0,0,0,.85,1.44h0a.89.89,0,0,0,1,.13,1.16,1.16,0,0,0,.9-1.16C643.93,631.3,643.63,630.89,643,630.41Z" style="fill: #c09300"/>
    <polygon points="570.85 600.74 570.85 600.74 570.85 600.74 570.85 600.74" style="fill: #c09300"/>
    <path d="M580.83,612.73c-.73.32-1.34.9-2.24.77-1.22-.19-.52,1.33,0,2a3.3,3.3,0,0,1-.7,2.53c-.73.36-1.64-.43-2.41-.79-.8-.16-2.41-1-1.66-2,.27-.83.29-1.79.61-2.61a11.81,11.81,0,0,0,.66-2.83c-.51-1.3-1.37.11-2.06.1-.47.26-2.24,0-1.31,1.16.81.84.19,1.87,0,2.69-.05,1.17-1.17,1.21-2.05.76-.88-.23-2.1-1.2-1.36-2.1.17-.85.45-1.66.61-2.51.34-1,.62-2,1-3a7.8,7.8,0,0,1,.87-2.5c0-1,.67-1.81.66-2.88-.07-.53-.28-.77-.57-.84a2.76,2.76,0,0,0-1.53.4c-.91,0-2,.43-2.85-.41-.86-.47-2-.48-2.14.66.22,1,1.5,1.88,2.28,1.38a1.28,1.28,0,0,1,2.31.59c-.64.92-.56,2.34-1.09,3.36a4.15,4.15,0,0,1-.7,1.82c-.65-.07-1.33-.29-1.88,0a2.35,2.35,0,0,0-2.28.86,5.9,5.9,0,0,0-1.26,2.61c.15,1.15,1.31,1.71,2.18,2,.94.47,1.87,1,2.8,1.54,1.52.69,2.95,1.59,4.47,2.28,2.21,1.2,4.54,2,6.78,3.16a4.52,4.52,0,0,0,.7.34c.92.4,1.41-.6,1.48-1.41.47-1.68.82-3.42,1.27-5.1C581.71,614.16,582.09,612.63,580.83,612.73Zm-14.71-1a.87.87,0,0,1-.39.21c-.65-.2-.85-.35-.87-.62s0-.29.48-.43a1.91,1.91,0,0,1,.48-.09h0a.55.55,0,0,1,.3.12C566.47,611.15,566.48,611.47,566.12,611.73Z" style="fill: #c09300"/>
    <path d="M564.81,616.22c-1,.62-1.14,1.12-.44,2,.37.46.48.54.89.62a.88.88,0,0,0,.88-.22c.68-.52.65-1-.12-2C565.52,616,565.25,616,564.81,616.22Z" style="fill: #c09300"/>
    <path d="M568.94,618.16c-.89-.18-1-.14-1.17.49a1.63,1.63,0,0,0,.87,1.85h0a1.27,1.27,0,0,0,1.23-.09c.24-.2.28-.32.28-.86C570.14,618.58,569.94,618.36,568.94,618.16Z" style="fill: #c09300"/>
    <path d="M694.05,645.38c-.72.21-1,.6-1,1.23a1,1,0,0,0,.38.87h0c.36.4.44.44,1.15.58s.78.14,1.1-.14c.57-.5.59-.87.11-1.9C695.39,645.26,695,645.11,694.05,645.38Z" style="fill: #c09300"/>
    <path d="M575.5,621.56a1,1,0,0,0-.81-.38,1.5,1.5,0,0,0-.81.2c-.32.21-.36.29-.35.8a1.44,1.44,0,0,0,.78,1.4h0c.76.38,1.21.34,1.68-.17S576.27,622.32,575.5,621.56Z" style="fill: #c09300"/>
    <path d="M609.13,618.83a18.08,18.08,0,0,1-2-2.76c-.38-.73-.81.27-.78.69-.3,1-.1,2.23-.32,3.29a8.45,8.45,0,0,0-.27,2.1c-.3,1.34-.3,2.81-.56,4.17a14.09,14.09,0,0,0-.27,2.36,9.48,9.48,0,0,0-.33,2.46c0,.2.27.35.39.52h0a1.41,1.41,0,0,0,1.49.55c.48-.33.5-1.07.57-1.68s.23-1.12.22-1.73a15.55,15.55,0,0,1,.24-2.84c.11-.93.09-1.9.21-2.83,0-.65.26-1.2.34-1.81s.1-1.3.68-1.42C609.18,619.8,609.74,619.35,609.13,618.83Z" style="fill: #c09300"/>
    <path d="M654.06,635.13c0-.85-1-1.37-1.49-.85s-1.25.36-1.62.94c-.41.83.88,1.12,1.09,1.87a9,9,0,0,1,.22,2.3c.16.94-.74.8-1.31.77a1.8,1.8,0,0,1-2.23-1,10.06,10.06,0,0,1-.31-2.36c0-1.38-.32-2.79-.39-4.16-.07-1.7-.34-3.43-.44-5.13,0-.7-.1-1.86-1-1.85h0a14.67,14.67,0,0,0-1.89,1.46c-.83.51.69,1.24.88,1.87a16.13,16.13,0,0,1,.26,2.84,8.38,8.38,0,0,1,.31,2.7c-.07.94-1.21.49-1.71.92-.69.17-1,.85-1.49,1.26a6.23,6.23,0,0,0-.48,2.38c0,.7-.42,1.37,0,2.06l.18.33c.14.25.48.15.7.25a5.67,5.67,0,0,0,2.1.22,36.51,36.51,0,0,1,5.12.68c1.05.26,2.06.08,3.1.34.82.37,1.19-.52,1.18-1.23-.46-1.11-.06-2.21-.43-3.31A20.91,20.91,0,0,1,654.06,635.13Zm-8.4,4.4a4.7,4.7,0,0,1-.57,0l-.26-.25c-.31-.31-.23-.64.17-1,.23-.22.34-.24.7-.14h0l.44.14c0,.2,0,.39,0,.59s0,.39.05.58Z" style="fill: #c09300"/>
    <path d="M603.75,614.79h0c-.53.09-1.21.8-1.75.67-1.23-.17-1.06,1.18-.17,1.83a8.76,8.76,0,0,1,0,1.36c.17,1.24-.53,2.07-.4,3.31-.06,1.32-.42,2.54-.48,3.88-.34,1.31-.35,2.73-.57,4.09s-1,.6-1.7.11c0-.55,0-1.09-.05-1.64.31-1.19-.61-1.75-1.53-2.1a1.56,1.56,0,0,1-1.22-2c.41-.45,1.45-.08,2.1,0,1.37.61,1.32-1.42.61-2.26-.48-1.08-1.68-1.76-2-2.83a4.74,4.74,0,0,0-1.66-3.67c-1.53-.44-2.68.75-3.24,2a16.68,16.68,0,0,0-1.88.27c-1,0-2.41,1.64-1.05,2.65.76.39,3.08,1.47,2.05,2.4-.57,1-1.68.74-2.67.24a2.41,2.41,0,0,1-2.1-2.27,16,16,0,0,0-.65-3.59c-.21-1.33-1.54-1.31-1.62-.15-1,.6-.89,1.95-.18,3.08a4.31,4.31,0,0,1-.43,3.35c-.27,1.29-1.62,1-2.58,1.27-.48.1-2.28-.6-1.62.67a6.64,6.64,0,0,0,3.41,1.2,2.89,2.89,0,0,0,2.71-1.53c.78-.69,2.11,0,3.11.23s2.19,1.31,3.24,1c.3-.8,1.71-1.93,2.14-.36a2.23,2.23,0,0,0,2.1,2.32c1.21.19.76,1.11.74,1.89a4.27,4.27,0,0,0,2,3.21,2.57,2.57,0,0,0,1.13.25c1-.14,2.18-.4,2.5-1.62a28.73,28.73,0,0,0,.74-3.14,40.66,40.66,0,0,0,.61-5.09c.39-1.51.28-3.22.57-4.77.19-1.16.33-2.32.44-3.5C604.32,614.9,604.07,614.73,603.75,614.79Zm-8.57,7a1.48,1.48,0,0,1-1,0,2.71,2.71,0,0,1-1.75-1.09c-.08-.12-.17-.23-.26-.34l.39-.21a7,7,0,0,0,.79-.59c.4-.36.66-.51.88-.44h0c.21.07.33.38.35.89a1.43,1.43,0,0,0,.61,1.23C595.47,621.36,595.45,621.65,595.18,621.8Z" style="fill: #c09300"/>
    <polygon points="594.26 619.11 594.26 619.11 594.26 619.11 594.26 619.11" style="fill: #c09300"/>
    <polygon points="679.04 644.62 679.04 644.62 679.04 644.62 679.04 644.62" style="fill: #c09300"/>
    <path d="M698.07,640.77c-1.5-1.13-2.81,1.93-4.5-.08-1.31-1.37-1.22-3.44-1.71-5.15-.33-2.15-.25-4.53-1.62-6.47a5.15,5.15,0,0,0-3.54-2h0a10.8,10.8,0,0,0-2.32-.11c-1.46-.4-2.19,1.12-.79,2.23.85,2.53,2.16,0,3.5.46,2,.85,2.19,3.26,2.5,5.12a28.31,28.31,0,0,0,1,5.4c1.34,1.92-1,2.45-2,1-.85-1.2-2.68-2.83-3.71-1.64-1.27.31-1.32,2.16-2.37,2.47-1.69.2-1.9-2.12-2.8-3.28-.82-1.44-2.39-1.89-3.67-2.61-.6-1.46-.29-3.65-1.53-4.83-1,.25-3,2-1.36,3.31,1.57,1.8-.68,2-1.4,2.86-1,1-1.19,2.71-1.36,4.26-1.76.69-2.1-1.66-2.31-3.13-.14-1.74-1.45-1.52-2.37-1.09-1.33.31-2,1.55-2.93,2.44a29.78,29.78,0,0,0,.05,3.12c.3,1.31,1.68,1,2.53,1.12a1.11,1.11,0,0,1,.83,2c-.74.88-3.1-.17-2.88,1.54a11.87,11.87,0,0,0,2.32.5c1.52-.13,3.16-1,3.32-2.79.2-1.58,2.34-.82,3.5-.92,1.46-.15,3.21.11,3.54,2.19,1,1.36,3.15,3.1,4.25,1.77a3,3,0,0,0,1.57-3.12c-.22-1.25,1.78-.87,2.28-.09.73,1.47,3,1.56,4.11,1.06,1.17-.7,1.43-2.31,3.11-2,2.49-.3,5.09-.23,7.52-.73C700.84,643.51,698.57,641.67,698.07,640.77Zm-31.71.9a1.81,1.81,0,0,1-1.23-.17,1.37,1.37,0,0,1-.26-.35c-.1-.2-.08-.29,0-.37s.18-.15.18-.2a1,1,0,0,1,.22-.39.62.62,0,0,1,.78-.16h0a1.13,1.13,0,0,1,.62.8C666.8,641.34,666.72,641.54,666.36,641.67Zm8.31.1c-.07.33-.08.32-.79.17-.9-.18-1-.31-1-1.21,0-.58,0-.73.3-1a.83.83,0,0,1,.57-.26c.16,0,.3.12.48.34a1.5,1.5,0,0,1,.4,1A3.79,3.79,0,0,1,674.67,641.77Zm2.14-.45a4.6,4.6,0,0,0-.17-.76c-.17-.52-.14-.51.08-.79s.27-.28.44-.24a1.77,1.77,0,0,1,.7.43,2.6,2.6,0,0,1,1,1.71c0,.33-.07.33-.52.46a2,2,0,0,1-.7.14A1.88,1.88,0,0,1,676.81,641.32Zm2.8,4.53a2.91,2.91,0,0,1-1.57-.34.39.39,0,0,1-.22-.38c0-.22,0-.34.39-.45a1.84,1.84,0,0,1,.83-.06h0a1.13,1.13,0,0,1,.62.37A.54.54,0,0,1,679.61,645.85Zm7.18-2a3.28,3.28,0,0,1-.62.11,6.61,6.61,0,0,1-.52-.45c-.38-.35-.43-.49-.44-.81,0-.48.49-.81,1.1-.73a1.26,1.26,0,0,1,1.05.8C687.61,643.35,687.44,643.7,686.79,643.87Z" style="fill: #c09300"/>
    <path d="M660.81,641a4.28,4.28,0,0,0-.51-1.6,5.6,5.6,0,0,0-1-2,6.43,6.43,0,0,0-.63-1.52c-.18-.46-.74-1-1.11-.64-.33.56-.59,1.18-.91,1.76-.15.43-.58.74-.5,1.28s.71.79,1.07,1.18a3.51,3.51,0,0,1,1.16,1.74,10.35,10.35,0,0,1,.12,2.21c0,.54-.52.7-.59,1.2a3.72,3.72,0,0,1-1.92,1.3c-.43.08-.92.13-1.16.54-.2.12,0,.25.13.37h0c0-.06.22.22.18.13a11.75,11.75,0,0,0,2.16.47c.51.24.75-.22,1.15-.28a3.45,3.45,0,0,0,1.51-.8c.26-.35.66-.53.85-.94a6.67,6.67,0,0,0,.27-2.51C661.14,642.28,660.81,641.64,660.81,641Z" style="fill: #c09300"/>
    <polygon points="645.41 645.45 645.41 645.45 645.41 645.45 645.41 645.45" style="fill: #c09300"/>
    <path d="M650.86,644.5a1.43,1.43,0,0,0-.83-.5c-.55-.11-1.13.11-1.22.48s-.43.25-1.45-.53-1.35-.87-2-.32a.84.84,0,0,0-.39.81,1.43,1.43,0,0,0,.41,1c.39.51.46.56,1,.66s.6.07.73,0a2.3,2.3,0,0,1,1.11-.52c.16,0,.31-.08.34-.16.09-.24.21-.12.28.28a1.45,1.45,0,0,0,1.08,1.13c.48.16.55.15.93-.14s.42-.33.41-1S651.21,644.87,650.86,644.5Z" style="fill: #c09300"/>
    <path d="M638.36,633c-1.16-.6-2.15.35-3.33.19a3.22,3.22,0,0,0-2.45,3c-.76,1.2-2-.68-1.57-1.74a8.76,8.76,0,0,0,0-1.54c-.71-1.09-2-1-2.94-1.41-1.42-.24-2.81-.89-4.24-1.16a21.08,21.08,0,0,1-3.76-1.06c-1.45-.36-1.25-1.86-1.49-3a1.76,1.76,0,0,0-.87-.48h0a1.74,1.74,0,0,0-2.06,1.43c.21,1.2,1.09,2.52.52,3.61.39,1.64-1.06,1.91-2,.8a28.6,28.6,0,0,0-1.8-4.85c-1.12-.59-1.61,1.27-2.4,1.78.39,1.24,1.53,2.53,1.66,4a3.06,3.06,0,0,1-1.62,3.34c-1,.79-2.27.15-3.45.11-1.44.61,1,1.48,1.7,1.66,1.47.49,3,.6,4.07-.36,1.08-.33,1-2.38,2.28-2.33,2.22.37,4.42,1.34,6.65,1.88,1.18.57,3,.5,3.85,1.65,0,1.7,1.31,3,2.58,4,.69.36,1.43-.42,2.14-.45,1.35-.17.94-2.09,1.75-2.63,2.31.36,4.64.9,7,1.37.44.11.57-.55.87-.77-.05-1-.08-2-.22-3C638.66,635.66,639.18,634.18,638.36,633Zm-9.67,5c0,.39.11.94-.22,1.15a.7.7,0,0,1-.35.12,2.08,2.08,0,0,1-1-1,12.48,12.48,0,0,1,0-1.62c0-.14.06-.35,0-.48a2,2,0,0,0-1-.6c-1.19-.31-2.36-.66-3.55-1a14.66,14.66,0,0,1-3-.84c-.38-.23-.87-.28-1.1-.76s.15-.89.49-1a2.77,2.77,0,0,1,1.4,0h0a12,12,0,0,1,1.4.45c.6.24,1.24,0,1.83.4,1.37.55,2.74.79,4.12,1.23.36.07.62.42.87.72Zm7.88-.44a1.54,1.54,0,0,1-1.62-.45.8.8,0,0,1,.22-.81,1.61,1.61,0,0,1,1.09-.43h0c.22,0,.29.14.39.61.07.3.14.67.18.8S636.8,637.5,636.57,637.54Z" style="fill: #c09300"/>
    <polygon points="636.26 635.85 636.26 635.85 636.26 635.85 636.26 635.85" style="fill: #c09300"/>
    <path d="M668.2,461.57c-9.59-2.05-32.45-13-37.79-21.83-5.71,5.65-29.08,7.29-38.6,5.25a18.28,18.28,0,0,1-3.56-1.16s-4,55.48,41.72,103.94h0c45.7-28.54,41.78-85.85,41.78-85.83A15.86,15.86,0,0,1,668.2,461.57Z" style="fill: #fff"/>
    <path d="M672.49,461h-.9a14.84,14.84,0,0,1-3.39-.35c-9.42-2-32.06-13-37.15-21.35l-.59-1-.65.65c-5.47,5.42-28.34,7.16-38,5.09a17.22,17.22,0,0,1-3.39-1.1l-.9-.4c0,.33,0,.66-.07,1,0,.59-3.49,56.51,42,104.77l.49.52.49-.31c45.52-28.42,42.13-86,42.1-86.52C672.53,461.71,672.51,461.37,672.49,461ZM630,546.65c-41-43.91-41.19-94-41-101.6a20.93,20.93,0,0,0,2.8.83c8.82,1.88,31.51.78,38.56-4.85,6.45,9,28.58,19.45,37.83,21.43a16.65,16.65,0,0,0,2.79.36C671.21,470.46,671,520.63,630,546.65Z" style="fill: #c09300"/>
    <path d="M630.28,444.92c-8.15,5-28.66,5.95-37.21,4.12a7.52,7.52,0,0,1-1.19-.39c0,2.13.08,4.36.2,6.4a133.72,133.72,0,0,0,3.49,23.06A144.71,144.71,0,0,0,630,542.55c16.89-11,28.67-27.92,34.44-49.53a110.53,110.53,0,0,0,3.49-21.56c.12-1.94.22-4.08.21-6.17-.4-.06-.79-.13-1.19-.22C658.23,463.21,638.05,453.93,630.28,444.92Z" style="fill: #fff"/>
    <polygon points="668.11 465.29 668.11 465.29 668.11 465.29 668.11 465.29" style="fill: #fff"/>
    <path d="M668.07,464.58c-.38-.06-.77-.13-1.15-.21-8-1.72-28.42-10.84-36.23-19.89l-.39-.46-.41.25c-7.88,4.82-28.22,5.91-36.82,4.07A6,6,0,0,1,592,448l-.75-.32c0,.28,0,.56,0,.84,0,2.34.1,4.8.2,6.45a134.56,134.56,0,0,0,3.51,23.2A146.81,146.81,0,0,0,629.57,543c.13.14.26.29.4.43l.4-.26c16.93-11.07,28.91-28.32,34.66-49.85a110.63,110.63,0,0,0,3.51-21.7c.1-1.7.22-4,.21-6.22,0-.25,0-.5,0-.74Zm-.81,6.7a108.9,108.9,0,0,1-3.47,21.42c-5.71,21.39-17.08,37.87-33.82,49a143,143,0,0,1-33.79-63.6,133.38,133.38,0,0,1-3.46-22.92c-.08-1.44-.19-3.5-.2-5.55l.55.15c8.83,1.89,28.72.87,37.18-3.94,8.4,9.3,28.37,18.2,36.67,20l.55.1C667.45,467.85,667.35,469.78,667.26,471.28Z" style="fill: #c09300"/>
    <path d="M593.08,449a6.52,6.52,0,0,1-1.18-.39c0,2.12.1,4.38.22,6.42a133.19,133.19,0,0,0,3.46,23,143.64,143.64,0,0,0,19.55,45.3V449.16h0C606.91,450.2,598,450.09,593.08,449Z" style="fill: #c09300"/>
    <path d="M644,455.32h0v75.52c9.51-10.07,16.43-22.82,20.43-37.83a110.31,110.31,0,0,0,3.46-21.54c.12-1.94.23-4.09.22-6.18-.4-.06-.79-.12-1.18-.21C661.7,464,652.34,460.13,644,455.32Z" style="fill: #c09300"/>
    <path d="M647.23,396.37c.61-16.22-2.14-23.25-4.33-26.14-2.8-3.67-11.8-8.34-17.73-10-3.35-.91-2.8,2.16-2.8,2.16-6.2-3.1-12.41-5.11-15.21-3.67-2.63,1.35-3.18,10.85-1.26,9.59,4.67-3.08,8.73,1.53,11.53,6.59,2.47,4.45,2.3,15.47-1.26,27.62-3.74,12.77-13.95,24.14-13.95,24.15,5.55,1.2,13.34-2.52,13.34-2.52l-1.86,8.07a35.64,35.64,0,0,0,10.53-5.52q2.81,3.82,5.6,7.66a44.08,44.08,0,0,1,5.6-5.22s4.67,6.43,11.8,8.71h0c.94.26-1.26-5.75-1.26-5.75,2.47,3.31,11.8,6,11.8,6C652.17,434.17,646.58,412.51,647.23,396.37Z" style="fill: #fff"/>
    <path d="M648.09,396.59c.61-16.44-2.16-23.7-4.59-26.89-2.93-3.84-12.07-8.65-18.29-10.39-1.39-.37-2.41-.22-3.06.47a2.51,2.51,0,0,0-.6,1.25c-4.49-2.16-11.49-4.92-14.86-3.19-2.22,1.14-3,6.23-2.75,8.75a3.25,3.25,0,0,0,1.07,2.55,1.21,1.21,0,0,0,1.42,0,4.41,4.41,0,0,1,4.18-.6c2,.75,4.1,3.08,6.12,6.73,2.11,3.8,2.31,14.22-1.38,26.79s-13.68,23.75-13.79,23.86l-1.14,1.28,1.8.39c4.15.9,9.37-.77,12-1.82-.6,2.62-1.21,5.24-1.81,7.86l1.61-.49A36.16,36.16,0,0,0,624.19,428q2.85,3.92,5.72,7.82l.6-.74a39.74,39.74,0,0,1,4.91-4.64c1.53,1.84,5.78,6.43,11.74,8.33h0a.85.85,0,0,0,.92-.28c.17-.23.52-.71-.4-3.79a41.79,41.79,0,0,0,10,4.31l.4-1.7C653.26,433.91,647.41,413.15,648.09,396.59Zm-1.51,35-1.39.72a39,39,0,0,1,1.34,4.36c-6.28-2.34-10.44-8-10.48-8-.19-.27-.38-.53-.58-.79l-.61.48a48.42,48.42,0,0,0-5.08,4.59q-2.76-3.75-5.51-7.52l-.62.49a35.84,35.84,0,0,1-8.69,4.85l1.92-8.32-1.77.84c-.07,0-6,2.83-11,2.69C607,422.47,614,413.24,617,403c3.45-11.75,3.93-23.45,1.15-28.45-2.33-4.2-4.77-6.81-7.27-7.76a5.74,5.74,0,0,0-5.17.5,12.5,12.5,0,0,1,.15-3.74c.37-2,1-3.54,1.8-3.92,2.22-1.14,7.65.22,14.52,3.65l1.28.63c-.08-.49-.15-1-.23-1.48a1.49,1.49,0,0,1,.24-1.13c.36-.37,1.11-.26,1.67-.11,5.79,1.61,14.55,6.16,17.18,9.6,1.79,2.36,4.7,8.78,4.08,25.38-.58,14.3,3.59,32.68,8.64,40.11C652,435.14,647.92,433.38,646.58,431.58Z" style="fill: #c09300"/>
    <path d="M614.9,423.37l1.33,1.59c6-6,9.09-29.85,9.22-30.86l-1.76-.64C623.66,393.7,620.53,417.74,614.9,423.37Z" style="fill: #c09300"/>
    <path d="M623.46,426.08l1.56,1.27c4.11-7.38,5.33-31.87,5.38-32.91l-1.78-.49C628.61,394.2,627.38,419,623.46,426.08Z" style="fill: #c09300"/>
    <path d="M633,396c0,1.14,0,28.12,1.59,33.31l1.68-.29c-1.22-4-1.49-24.92-1.49-32.64Z" style="fill: #c09300"/>
    <path d="M638.55,398.63c.05,1,1.34,24.11,6.68,33.87l1.47-.78c-5.07-9.26-6.36-32.58-6.38-32.82Z" style="fill: #c09300"/>
    <path d="M618.91,380.34c0-.3-.08-.57-.13-.85A1.65,1.65,0,0,0,618.91,380.34Z" style="fill: #c09300"/>
    <polygon points="618.91 380.34 618.91 380.34 618.91 380.34 618.91 380.34" style="fill: #c09300"/>
    <path d="M610.9,363.81c-3.41-.56-5,4.5-5,4.5,4.67-3.07,8.73,1.54,11.53,6.6a14.18,14.18,0,0,1,1.35,4.58,2.54,2.54,0,0,1,1.18-1.75c.93-.7,4.83,1.11,4.83,1.11C619.52,367.85,613.53,364.2,610.9,363.81Z" style="fill: #c09300"/>
    <path d="M610.89,363.53c-3.54-.58-5.16,4.44-5.22,4.65l-.26.8.65-.42a4.93,4.93,0,0,1,4.64-.64c2.18.83,4.38,3.22,6.53,7.1a13.32,13.32,0,0,1,1.3,4.34,2,2,0,0,0,.17,1.08l.46-.08c0-.31-.08-.6-.12-.89a2.4,2.4,0,0,1,1.08-1.49c.61-.46,3.15.45,4.61,1.13l.56.26c-.1-.2-.19-.41-.29-.61C619.66,367.6,613.62,363.94,610.89,363.53Zm8.9,14a3.62,3.62,0,0,0-.93,1,12.59,12.59,0,0,0-1.23-3.67c-2.22-4-4.53-6.52-6.86-7.4a6.57,6.57,0,0,0-.8-.24,5.2,5.2,0,0,0-3.52.5c.6-1.36,2.07-4,4.46-3.58.28,0,6.93,1.18,13.38,14.28C623.13,377.86,620.6,376.9,619.79,377.5Z" style="fill: #c09300"/>
    <path d="M625.18,360.24c-3.35-.91-2.8,2.16-2.8,2.16-6.21-3.1-12.41-5.11-15.21-3.67a4.55,4.55,0,0,0-1.75,2.81h0c0,.09-.08.18-.11.27s1.26-2.19,5.27-1.68,5.27,1.51,8.39,4.89,5.6,5.25,7.14,5.29c.49,0,.77,1.07,1.26,1.84.39.56.28,1,1.76,1.28.93.2,1.42-1.67,2-2.08a7.05,7.05,0,0,1,3.13-.52,22.8,22.8,0,0,1,4.39.29c.93.09,4.83.82,6.2,3.22l.11,0a16.69,16.69,0,0,0-2.08-4.12C640.11,366.57,631.1,361.9,625.18,360.24Z" style="fill: #c09300"/>
    <path d="M643.08,370.09c-2.83-3.72-11.78-8.41-17.89-10.11a2.46,2.46,0,0,0-2.57.34,2.29,2.29,0,0,0-.52,1.66c-4.33-2.13-11.71-5.23-15.06-3.51-1,.49-1.59,2-1.86,2.92l-.1.27.44.33s1.26-2.07,5.07-1.58c4,.56,5.11,1.41,8.23,4.79,3.26,3.54,5.74,5.35,7.32,5.38.19.05.38.45.59.86a8.59,8.59,0,0,0,.45.84,3.09,3.09,0,0,1,.17.29c.28.52.55.86,1.78,1.13.73.16,1.19-.61,1.59-1.3a2.88,2.88,0,0,1,.59-.8,5.89,5.89,0,0,1,2.71-.48l.33,0a16.07,16.07,0,0,1,3.22.16c.36.05.73.1,1.14.14,1.15.11,4.73.89,6,3.05l.07.13.61.13c-.05-.13-.09-.27-.14-.4A16.39,16.39,0,0,0,643.08,370.09Zm-4.43.76-1.12-.14a16.09,16.09,0,0,0-3.3-.16h-.32a6.33,6.33,0,0,0-2.91.54,3.07,3.07,0,0,0-.71.94c-.34.57-.72,1.22-1.16,1.12-1.06-.23-1.18-.46-1.37-.8-.06-.11-.12-.23-.2-.35a7.81,7.81,0,0,1-.41-.76c-.28-.57-.55-1.11-1-1.21h-.09c-1.43,0-3.83-1.83-6.93-5.19s-4.45-4.4-8.58-5a6.22,6.22,0,0,0-4.56.86,3.29,3.29,0,0,1,1.32-1.73c2.4-1.24,7.87.1,15,3.66l.38.19c0-.15-.05-.29-.08-.44a2.18,2.18,0,0,1,.38-1.65c.41-.43,1.14-.52,2.16-.24,5.9,1.65,14.86,6.32,17.56,9.88a15,15,0,0,1,1.58,2.82C642.28,371.23,638.69,370.85,638.65,370.85Z" style="fill: #c09300"/>
    <path d="M628.35,366.89a1.34,1.34,0,0,0-1.64,1.44,2.27,2.27,0,0,0,1.64,2.17,1.36,1.36,0,0,0,1.65-1.45A2.27,2.27,0,0,0,628.35,366.89Z" style="fill: #fff"/>
  </g>
</svg>
