<svg xmlns="http://www.w3.org/2000/svg" viewBox="0 0 1260 1012.04">
  <g>
    <path d="M0,90.08v460C420,278.76,840,733.28,1260,462V2C840,273.28,420-181.24,0,90.08Z"/>
    <path d="M0,1010.08C420,738.76,840,1193.28,1260,922V462C840,733.28,420,278.76,0,550.08Z" style="fill: #007a3d"/>
    <path d="M0,703.41C420,432.09,840,886.62,1260,615.3V308.63C840,580,420,125.43,0,396.74Z" style="fill: #fff"/>
    <path d="M0,90.08v920C140,766.3,280,603.18,420,466.94,280,296.51,140,153,0,90.08Z" style="fill: #c4111b"/>
    <path d="M630,383.36c-46.39-10.22-84,37-84,104.77s37.61,130.34,84,140.56,84-37,84-104.78S676.39,393.57,630,383.36Z" style="fill: #c4111b"/>
    <path d="M661.5,390.2c-46.39-10.11-84,36.67-84,104.48s37.61,130.74,84,140.86,84-37.66,84-105.45S707.89,400.33,661.5,390.2Z" style="fill: #fff"/>
    <polygon points="607.45 575.39 607.45 575.39 607.45 575.39 607.45 575.39" style="fill: #c4111b"/>
    <path d="M657.2,487.36l-13.47-64.14q-7,29-13.93,58-22-4.9-44-9.74,17.72,22.88,35.42,45.85l-13.74,58.1,35.82-29.59q17.78,22.85,35.54,45.62-6.64-32.05-13.28-64.14,17.85-15,35.7-30.07Q679.21,492.4,657.2,487.36Z" style="fill: #c4111b"/>
  </g>
</svg>
