<svg xmlns="http://www.w3.org/2000/svg" viewBox="0 0 1260 1012.04">
  <g>
    <path d="M0,90.08v920C420,738.76,840,1193.28,1260,922V2C840,273.28,420-181.24,0,90.08Z" style="fill: #ea0437"/>
    <path d="M1260,922V462C840,886.62,420,585.43,0,1010.08,420,738.76,840,1193.28,1260,922Z" style="fill: #4189dd"/>
    <path d="M0,90.08C420-27.91,840,580,1260,462V2C840,273.28,420-181.24,0,90.08Z" style="fill: #12ad2b"/>
    <path d="M446.77,567.74c22.46-46.58,53.13-93,26.52-137.69,1.34,23.48-10.13,47.22-15.2,48.38,13-50.56,25.46-114.66-2.76-162.67,3.7,16.31,2.21,60.48-2.9,61.71-1.57-36-5.75-112.08-31.56-114.28,8.2,11.66,11.79,41.25,12,70.64-5.88-20.89-12.57-37-26.86-53.39-11.57-33.67-32.14-62.48-52.72-82.73,2.31,23.76,4.22,42.22,26.76,68.42-11.75-2-23.5-35.31-36.06-36.72-10-1.07-17.83,12.57-34.16,4.6,1.81,7.84,9.43,11.35,11,17.2-3.5,3.48-11.8-.62-18.7-5.75,9.49,18.71,24.2,29.89,36.69,26.59,14.85-3.69,30.77-.49,46,13.46-3.88,2.54-19,1.34-28.67-.92,8.81,13.53,14.72,22.49,30,23.67,13.68,1.1,20.85-8.58,24.36-1.68,8.58,15.83,14.35,31.39,21.53,49.81-15.85.54-11.08-27.65-28.73-44.32-9.92,28.95,11.41,66.64,25.93,83.37.19,22.56,2.45,41.69,9,59.75,4.42,12.7,10.12,25.92,8,52.9-8.69-10.5-17.19-42.78-14.06-67.11-10.88,2.9-15.13,30.36-10,45,3.83,11.18,6.38,32,2,40.59-4.31,8-4.76,7-4.7,25.31.15,11-4,23.41-10.87,31.68,1.43-7.56,3-20.66,1.47-29.14-5.39,12.73-18.93,25.2-23.2,39.23s-5.24,38.76-25.5,43.19c-26.07,6.1-35.07,12.69-51.84,22.68-1.86-18.57,3.71-57.47,14.36-55.12,10.41,2.64,41.94-14.28,30.66-53.62-2.23,12.11-9.66,23.66-17.7,23.94,8.68-16.22,24.18-32.39,16.63-60.34-4.19,11.5-10.79,25.22-20.79,32.87,10.72-29.67,1.24-39-11.49-14.48-4.81,9.49-7.71,28.6-10.77,52.88-5-19.7-4.67-45.69-10.6-66.69-6.19-22.7,8.22-29,15-27.14,16.6,6.34,44.35,7.76,42.29-32.34-7.17,13.15-19.75,16.74-33.33,11.68,15.25-16,27.29-46,10.3-62.61-.57,16.93-9.54,35.63-21.52,44.39-2.81-14.28-2.81-29.45-.4-46.08-6.7,10.3-11.58,31.79-15.47,56.21-.29-24,2.82-41.44,5.13-54.41,3.51-18.95,12.21-6.81,25.53-5.18,12.83,1.25,30.5-8.15,27.12-33.72-4.38,9.81-13.37,13.3-22.56,12,11.06-9.58,30.34-25.89,19.77-53.19-4.44,9.94-5.88,18.46-18.73,21.2,3.36-11.21,3.92-27.22,13.9-33.15-17.8-5.92-28,11.17-33.16,37.85-2.1-18.52-4.6-25.32-5.1-38.86,9.62-15.57,10.63-46.27-10.2-52.8-1.23,15.77-.87,19.51,1.5,32.28-9.77-8.32-23.55-12.4-32.72.26,6.21,9.38,15.83,17.38,30.65,6.35-3.5,16.82-12.61,14.15-25.12,8.51,7.65,20.53,17.3,23.82,28,21.22,5.58,21.43,5.82,37.61-10.48,69.34.75-19.44-.19-34-10.77-49.19-9.06-12.48-16.43,1.52-2.26,29.49-8.59-8.81-18.32-26.78-21.25-45.26-2.83,23.42-.28,50.44,8.5,65.09-4.15,6.78-8.87,0-15.86-15.19,2.64,50.49,17.47,58.75,37.39,46.65.57,27.83.57,53.62,1.7,87.22-11.62-24-26.34-41.19-34.56-44.95-2.55,13.87,7.08,30.78,12.47,40.35-8.22-2-26.06-20-26.06-19.93-1.8,22.76,18.22,41.52,31.15,50.19-15.2.05-21.9-7.64-31.72-20.34.19,62.2,46.54,47.62,55.23,38.31,1.14,30.85,2.75,66.52,3.88,97.38-13.1-3-12.07-8.75-23.28-9.7-31.13-.05-55.82-48.92-64-86.4-2.35,6.78-.49,13.16-2.63,21.37-5-18.2-11.51-41.67-20.17-51.33,2.21,10.65,2.44,21.9,1.67,42.82-3-12.85-5.73-16.38-5.93-32.13.19-12.18,8-22.76,7.58-39.71-.32-12.4-8.1-37.77-9.24-58.39-3.77,22.33-6.13,45.53-11.9,60.23,2.86-23.65,1.94-39.29,6.79-55.87,5.61-17.55,10.37-33.07,6.64-48.69-3.58,7.13-2.35,12.57-11.33,30.08-2-16.29,11.62-46.42,24.79-59.66,9.28-8.94,21-36.31,13.37-52.61-8.74,10.65-12.66,23.69-25,47.4,8.8-52.13,31.67-69.86,59-72.87,6.05-.72,18.27-4.93,21.69-16.84a35.32,35.32,0,0,1-25,4.79c5.91-13.35,18.36-12.92,29.95-13.69,9.1-.68,23.3-3,29-21.95-11.1,7.17-28.4,9.46-39.3,5.4,17.33-14.63,44.47-16.76,58.39-33.72-15.86-17.71-55.57,4.91-80.64,33.29,7-10.19,18.08-27.83,24.19-41.67-13.71-8.91-48.4,51.65-60.35,87.48-11.35,11.44-15.89,27.14-20.29,38.32,6-31.15,6.69-52.93,11.73-78.5-38.9,27.91-22.73,129.73-31.2,156.7,1-28,.19-63.43-7.62-79.69-12,16.72-13,95.6-1.7,157.81-4.07-16.4-11.73-30.48-14.19-51-17.74,52.9,10.39,99.16,33.92,137.79-17.71-9.33-35.22-33-46.72-53.44,3.17,82.31,63.63,83.79,73,104-12.74-6.48-37.09-17.87-47.43,3.15,16.83,1,30.25,4.61,41.06,12.81,15.69,25.71,45.4,32.15,97.14,33.38h0c-13.62,6-21.43,22-21.23,36.54,22.35-1.61,44.7-2,67.05-1.49.6-15.61-8.21-30.43-21.63-36.15,65.64-1.9,122.67-28.61,133-50.33-10.25-8-22.11.91-30.56-2.5,20.07-11.64,80.19-58.46,70.42-120.86C479.59,537.31,456.57,561.58,446.77,567.74Z" style="fill: #ffc726"/>
  </g>
</svg>
