<svg xmlns="http://www.w3.org/2000/svg" viewBox="0 0 1260 1012.04">
  <g>
    <path d="M0,90.08v920C420,738.76,840,1193.28,1260,922V2C840,273.28,420-181.24,0,90.08Z" style="fill: #da121a"/>
    <path d="M0,90.08V703.41C420,432.09,840,886.62,1260,615.3V2C840,273.28,420-181.24,0,90.08Z" style="fill: #fcdd09"/>
    <path d="M0,90.08V396.74C420,125.43,840,580,1260,308.63V2C840,273.28,420-181.24,0,90.08Z" style="fill: #078930"/>
    <path d="M630,199.36c-116-26.88-210,97.45-210,267.58,0,168.6,94,318.87,210,345.75S840,715.23,840,545.1C840,376.5,746,226.23,630,199.36Z" style="fill: #0f47af"/>
    <path d="M630,260.69q-3.68,15.74-7.36,31.47L653,435.22l-40.48-8.82q-2.26,9.74-4.55,19.46c43.26,9.39,86.53,19.05,129.79,27.39q9.63-8.37,19.27-16.82c-29.77-5.45-59.54-11.63-89.31-18Q648.87,349.59,630,260.69Z" style="fill: #fcdd09"/>
    <path d="M675.26,424.86q26.75-48,53.49-96.48"/>
    <path d="M672.43,421.25l5.66,7.21q26.74-48,53.49-96.52l-5.66-7.12Q699.18,373.27,672.43,421.25Z" style="fill: #fcdd09"/>
    <path d="M766,458c-26.49,23.4-53,46.17-79.48,68.68L674,467.85l-14.72-3.17q20.06,94.47,40.11,188.78,9.63,12.22,19.27,24.38-13.8-64.79-27.6-129.71c32.92-28,65.83-56.46,98.75-86Q777.87,460.17,766,458Z" style="fill: #fcdd09"/>
    <path d="M703.23,556.46c28.85,19.64,57.7,38.89,86.55,57.26"/>
    <path d="M702.15,561.09C731,580.75,759.85,600,788.7,618.41l2.16-9.37c-28.85-18.36-57.7-37.59-86.55-57.22Z" style="fill: #fcdd09"/>
    <path d="M641.91,589.69q16.37-13.8,32.74-27.66-2.26-10.71-4.54-21.42c-35,29.62-70,58.92-105,88.74q-3.69,15.78-7.36,31.55C581.83,640.33,605.92,620,630,599.73c32.92,42.1,65.83,84.21,98.75,125.61q-3.69-17.26-7.36-34.54C694.89,657.39,668.4,623.57,641.91,589.69Z" style="fill: #fcdd09"/>
    <path d="M630,618.47V751.36"/>
    <path d="M626.5,750.59l7,1.53V619.23l-7-1.53Z" style="fill: #fcdd09"/>
    <path d="M496.72,431c24.08,29.87,48.17,60.25,72.25,90.86q-18.86,80.8-37.72,161.83,9.64-8.32,19.27-16.57Q565.7,602,580.88,537q16.36,20.85,32.74,41.8l11.91-10c-35-44.77-70-89.5-105-133.35Q508.63,433.11,496.72,431Z" style="fill: #fcdd09"/>
    <path d="M556.77,525.08c-28.85,7.74-57.7,15.87-86.55,24.87"/>
    <path d="M469.14,544.91,471.3,555c28.85-9,57.7-17.09,86.55-24.81L555.69,520C526.84,527.74,498,535.89,469.14,544.91Z" style="fill: #fcdd09"/>
    <path d="M592.28,422c-40.68-8.75-81.37-17.09-122.06-23.7q9.64,11.79,19.27,23.7c32.75,5.74,65.5,12.46,98.24,19.47q-6.26,26.77-12.5,53.55l11.9,15.17q20.05-85.83,40.11-171.56-3.68-17.34-7.36-34.68Q606.08,363,592.28,422Z" style="fill: #fcdd09"/>
    <path d="M584.74,405.25Q558,345.78,531.25,286.7"/>
    <path d="M528.42,289.15q26.75,59,53.49,118.5l5.66-4.8q-26.75-59.49-53.49-118.59Z" style="fill: #fcdd09"/>
  </g>
</svg>
