<svg xmlns="http://www.w3.org/2000/svg" viewBox="0 0 1260 1012.04">
  <g>
    <path d="M0,90.08v920C420,738.76,840,1193.28,1260,922V2C840,273.28,420-181.24,0,90.08Z" style="fill: #039"/>
    <path d="M615.58,193.71l22.19,12.74L630,148.24Z" style="fill: #fc0"/>
    <path d="M622.23,203.06,644.42,200q-7.21-25.87-14.42-51.76Z" style="fill: #fc0"/>
    <path d="M627.72,208.62q23.32-7.69,46.66-15.44-23.32-5-46.66-10.12Z" style="fill: #fc0"/>
    <path d="M636.63,215.05q18.87-10.91,37.75-21.87c-17.15-.55-34.31-1.18-51.47-1.8Q629.78,203.22,636.63,215.05Z" style="fill: #fc0"/>
    <path d="M620.82,198q18.3,24.34,36.61,48.68-7.21-25.86-14.42-51.74Z" style="fill: #fc0"/>
    <path d="M619.68,208.41q18.87,19.14,37.75,38.26-12-28-24-55.94Z" style="fill: #fc0"/>
    <path d="M632.28,209.61V184.06Q609,179,585.62,173.94,608.94,191.71,632.28,209.61Z" style="fill: #fc0"/>
    <path d="M623.37,212.16l13.72-17.69q-25.74-10.29-51.47-20.53Q604.49,193,623.37,212.16Z" style="fill: #fc0"/>
    <path d="M602.57,234.74q18.3-16.4,36.61-32.75L617,189.26Q609.77,212,602.57,234.74Z" style="fill: #fc0"/>
    <path d="M602.57,234.74q18.87-10.94,37.75-21.83l-13.71-23.66Q614.6,212,602.57,234.74Z" style="fill: #fc0"/>
    <path d="M615.58,807l22.19,12.74L630,761.58Q622.79,784.31,615.58,807Z" style="fill: #fc0"/>
    <path d="M622.23,816.39l22.19-3.06q-7.21-25.87-14.42-51.75Z" style="fill: #fc0"/>
    <path d="M627.72,822q23.32-7.68,46.66-15.44-23.32-5-46.66-10.11Z" style="fill: #fc0"/>
    <path d="M636.63,828.38q18.87-10.9,37.75-21.87c-17.15-.54-34.31-1.18-51.47-1.79Q629.78,816.54,636.63,828.38Z" style="fill: #fc0"/>
    <path d="M620.82,811.32,657.43,860q-7.21-25.87-14.42-51.75Z" style="fill: #fc0"/>
    <path d="M619.68,821.74q18.87,19.14,37.75,38.27l-24-56Z" style="fill: #fc0"/>
    <path d="M632.28,823V797.39q-23.32-5.08-46.66-10.11Q608.94,805,632.28,823Z" style="fill: #fc0"/>
    <path d="M623.37,825.49q6.86-8.84,13.72-17.68-25.74-10.3-51.47-20.53Q604.49,806.33,623.37,825.49Z" style="fill: #fc0"/>
    <path d="M602.57,848.07q18.3-16.4,36.61-32.74L617,802.59Q609.77,825.33,602.57,848.07Z" style="fill: #fc0"/>
    <path d="M602.57,848.07q18.87-10.94,37.75-21.82l-13.71-23.67Q614.6,825.32,602.57,848.07Z" style="fill: #fc0"/>
    <path d="M335.58,457.83q11.1,4.28,22.19,8.85-3.88-28.47-7.77-56.91Q342.79,433.74,335.58,457.83Z" style="fill: #fc0"/>
    <path d="M342.23,466q11.1-3.54,22.19-6.76-7.21-24.76-14.42-49.42Q346.12,437.84,342.23,466Z" style="fill: #fc0"/>
    <path d="M347.72,470.54q23.32-11.73,46.66-22.21-23.33-2.26-46.66-3.35Z" style="fill: #fc0"/>
    <path d="M356.63,475.47q18.87-14,37.75-27.14c-17.15,1.46-34.31,3.36-51.47,5.82Q349.78,464.76,356.63,475.47Z" style="fill: #fc0"/>
    <path d="M340.82,461.14q18.3,21,36.61,42.84Q370.22,479.1,363,454.34,351.91,457.6,340.82,461.14Z" style="fill: #fc0"/>
    <path d="M339.68,471.77q18.87,15.68,37.75,32.21-12-26.31-24-52.3Q346.54,461.67,339.68,471.77Z" style="fill: #fc0"/>
    <path d="M352.28,470.76V445.2Q329,444,305.62,444.25,328.95,456.78,352.28,470.76Z" style="fill: #fc0"/>
    <path d="M343.37,474.84q6.86-10.06,13.72-20c-17.16-4.08-34.32-7.64-51.47-10.57Q324.49,459.06,343.37,474.84Z" style="fill: #fc0"/>
    <path d="M322.57,501.41q18.3-20.13,36.61-39.4-11.08-4.61-22.19-8.9Q329.78,477.19,322.57,501.41Z" style="fill: #fc0"/>
    <path d="M322.57,501.41q18.87-14.79,37.75-28.67-6.85-10.74-13.71-21.38Q334.6,476.2,322.57,501.41Z" style="fill: #fc0"/>
    <path d="M462.57,248.68q18.87-12.06,37.75-23.63-6.85-11.58-13.71-23.11Q474.6,225.22,462.57,248.68Z" style="fill: #fc0"/>
    <path d="M462.57,248.68q18.3-17.48,36.61-34.51-11.08-6-22.19-11.76Q469.78,225.51,462.57,248.68Z" style="fill: #fc0"/>
    <path d="M483.37,225q6.86-9.17,13.72-18.27-25.74-9.31-51.47-17.75Q464.49,206.73,483.37,225Z" style="fill: #fc0"/>
    <path d="M492.28,222.06V196.51Q469,192.39,445.62,189,468.95,205.12,492.28,222.06Z" style="fill: #fc0"/>
    <path d="M475.58,206.93q11.1,5.79,22.19,11.74L490,160.79Q482.79,183.83,475.58,206.93Z" style="fill: #fc0"/>
    <path d="M482.23,216q11.1-2.05,22.19-4-7.21-25.63-14.42-51.2Q486.12,188.36,482.23,216Z" style="fill: #fc0"/>
    <path d="M479.68,221.43q18.87,18.21,37.75,36.84-12-27.64-24-55.14Q486.54,212.25,479.68,221.43Z" style="fill: #fc0"/>
    <path d="M480.82,211q18.3,23.46,36.61,47.32Q510.22,232.59,503,207,491.91,208.89,480.82,211Z" style="fill: #fc0"/>
    <path d="M496.63,227.32q18.87-11.62,37.75-22.89c-17.15-.28-34.31-.38-51.47-.19Q489.78,215.76,496.63,227.32Z" style="fill: #fc0"/>
    <path d="M487.72,221.26q23.32-8.72,46.66-16.83-23.32-4.63-46.66-8.73Z" style="fill: #fc0"/>
    <path d="M378.33,310q18.3,21.83,36.61,44.35-7.2-25.16-14.42-50.2Q389.42,307,378.33,310Z" style="fill: #fc0"/>
    <path d="M377.19,320.58q18.87,16.51,37.75,33.77-12-26.78-24-53.26Q384,310.8,377.19,320.58Z" style="fill: #fc0"/>
    <path d="M360.08,349.44q18.89-13.9,37.76-27-6.85-11-13.72-22Q372.11,324.79,360.08,349.44Z" style="fill: #fc0"/>
    <path d="M360.08,349.44q18.32-19.28,36.62-37.78-11.1-5.06-22.2-9.85Q367.3,325.57,360.08,349.44Z" style="fill: #fc0"/>
    <path d="M380.88,323.82q6.87-9.76,13.72-19.43-25.74-7.2-51.47-12.93Q362,307.21,380.88,323.82Z" style="fill: #fc0"/>
    <path d="M389.8,320.12V294.56q-23.34-2.16-46.67-3.1Q366.47,305.14,389.8,320.12Z" style="fill: #fc0"/>
    <path d="M394.14,325q18.89-13.2,37.76-25.69c-17.16.85-34.32,2.07-51.47,3.78Q387.29,314,394.14,325Z" style="fill: #fc0"/>
    <path d="M385.23,319.71Q408.55,309,431.9,299.33c-15.56-2.06-31.12-3.82-46.67-5.18Z" style="fill: #fc0"/>
    <path d="M379.74,314.88q11.1-3,22.19-5.83-7.2-25.05-14.42-50Q383.63,286.94,379.74,314.88Z" style="fill: #fc0"/>
    <path d="M373.09,306.46q11.1,4.77,22.19,9.82-3.88-28.63-7.77-57.24Q380.31,282.7,373.09,306.46Z" style="fill: #fc0"/>
    <path d="M385.23,626.37Q408.55,615.65,431.9,606q-23.34-3.11-46.67-5.18Z" style="fill: #fc0"/>
    <path d="M394.14,631.68Q413,618.5,431.9,606q-25.74,1.26-51.47,3.78Q387.29,620.68,394.14,631.68Z" style="fill: #fc0"/>
    <path d="M378.33,616.67q18.3,21.83,36.61,44.35-7.2-25.15-14.42-50.21Q389.42,613.62,378.33,616.67Z" style="fill: #fc0"/>
    <path d="M377.19,627.25q18.87,16.51,37.75,33.77-12-26.78-24-53.26Q384,617.45,377.19,627.25Z" style="fill: #fc0"/>
    <path d="M360.08,656.11q18.89-13.9,37.76-27-6.85-11-13.72-22Q372.11,631.47,360.08,656.11Z" style="fill: #fc0"/>
    <path d="M360.08,656.11q18.32-19.27,36.62-37.79-11.1-5.05-22.2-9.85Q367.3,632.23,360.08,656.11Z" style="fill: #fc0"/>
    <path d="M379.74,621.54q11.1-3,22.19-5.82-7.2-25.07-14.42-50Z" style="fill: #fc0"/>
    <path d="M373.09,613.13q11.1,4.77,22.19,9.81-3.88-28.63-7.77-57.24Q380.31,589.36,373.09,613.13Z" style="fill: #fc0"/>
    <path d="M389.8,626.78V601.23q-23.34-2.16-46.67-3.1Q366.47,611.81,389.8,626.78Z" style="fill: #fc0"/>
    <path d="M380.88,630.49q6.87-9.76,13.72-19.44-25.74-7.18-51.47-12.92Q362,613.88,380.88,630.49Z" style="fill: #fc0"/>
    <path d="M487.72,752.42q23.32-8.71,46.66-16.83c-15.55-3.08-31.11-6-46.66-8.72Z" style="fill: #fc0"/>
    <path d="M496.63,758.48q18.87-11.62,37.75-22.89c-17.15-.28-34.31-.37-51.47-.18Q489.78,746.92,496.63,758.48Z" style="fill: #fc0"/>
    <path d="M480.82,742.11q18.3,23.46,36.61,47.33-7.21-25.68-14.42-51.31Q491.91,740.05,480.82,742.11Z" style="fill: #fc0"/>
    <path d="M479.68,752.59q18.87,18.21,37.75,36.85-12-27.66-24-55.15Q486.54,743.41,479.68,752.59Z" style="fill: #fc0"/>
    <path d="M462.57,779.84q18.87-12.06,37.75-23.63-6.85-11.58-13.71-23.11Q474.6,756.38,462.57,779.84Z" style="fill: #fc0"/>
    <path d="M462.57,779.84q18.3-17.48,36.61-34.51-11.08-6-22.19-11.76Q469.78,756.67,462.57,779.84Z" style="fill: #fc0"/>
    <path d="M482.23,747.11q11.1-2.05,22.19-4Q497.21,717.51,490,692Z" style="fill: #fc0"/>
    <path d="M475.58,738.09q11.1,5.8,22.19,11.75-3.88-29-7.77-57.89Q482.79,715,475.58,738.09Z" style="fill: #fc0"/>
    <path d="M492.28,753.22V727.67q-23.32-4.12-46.66-7.53Q468.95,736.28,492.28,753.22Z" style="fill: #fc0"/>
    <path d="M483.37,756.16q6.86-9.17,13.72-18.27-25.74-9.3-51.47-17.75Q464.49,737.89,483.37,756.16Z" style="fill: #fc0"/>
    <path d="M902.23,556.15q11.1-3.31,22.19-6.94Q917.21,524.7,910,500.05,906.12,528.12,902.23,556.15Z" style="fill: #fc0"/>
    <path d="M895.58,547.85q11.1,4.67,22.19,9-3.88-28.41-7.77-56.84Q902.79,524,895.58,547.85Z" style="fill: #fc0"/>
    <path d="M912.28,561V535.47q-23.32-1-46.66-3.35Q888.95,547.18,912.28,561Z" style="fill: #fc0"/>
    <path d="M903.37,565.07q6.86-10,13.72-20-25.74-5.68-51.47-12.92Q884.49,549,903.37,565.07Z" style="fill: #fc0"/>
    <path d="M882.57,590.77q18.3-18.91,36.61-38.59-11.1-4.35-22.19-9Q889.77,567,882.57,590.77Z" style="fill: #fc0"/>
    <path d="M882.57,590.77q18.87-13.53,37.75-27.88-6.86-10.57-13.71-21.26Q894.6,566.37,882.57,590.77Z" style="fill: #fc0"/>
    <path d="M907.72,560.81q23.32-11.61,46.66-24.6-23.32.25-46.66-1Z" style="fill: #fc0"/>
    <path d="M916.63,565.7q18.87-14.28,37.75-29.49c-17.15,3.31-34.31,6-51.47,8.16Q909.78,555.08,916.63,565.7Z" style="fill: #fc0"/>
    <path d="M900.82,551.31q18.3,21.44,36.61,42-7.21-24.4-14.42-48.93Q911.91,548,900.82,551.31Z" style="fill: #fc0"/>
    <path d="M899.68,561.91q18.87,16.15,37.75,31.43-12-25.51-24-51.39Q906.54,552,899.68,561.91Z" style="fill: #fc0"/>
    <path d="M759.68,278.45q18.87,18.45,37.75,36.45-12-27.24-24-54.69Q766.54,269.36,759.68,278.45Z" style="fill: #fc0"/>
    <path d="M760.82,268q18.3,23.65,36.61,46.91Q790.22,289.46,783,264,771.91,266.05,760.82,268Z" style="fill: #fc0"/>
    <path d="M776.63,284.38q18.87-11.79,37.75-24.07c-17.15.65-34.31.95-51.47,1Q769.78,272.87,776.63,284.38Z" style="fill: #fc0"/>
    <path d="M767.72,278.34q23.32-8.64,46.66-18-23.32-3.36-46.66-7.52Z" style="fill: #fc0"/>
    <path d="M762.23,273q11.1-2,22.19-4.05-7.21-25.51-14.42-51.08Z" style="fill: #fc0"/>
    <path d="M755.58,263.89q11.1,6,22.19,11.83-3.88-28.91-7.77-57.85Q762.79,240.91,755.58,263.89Z" style="fill: #fc0"/>
    <path d="M742.57,305.31q18.87-11.43,37.75-23.24-6.86-11.49-13.71-23.05Q754.6,282.24,742.57,305.31Z" style="fill: #fc0"/>
    <path d="M742.57,305.31q18.3-16.87,36.61-34.1Q768.1,265.38,757,259.39,749.77,282.39,742.57,305.31Z" style="fill: #fc0"/>
    <path d="M763.37,282.06l13.72-18.28q-25.74-9.07-51.47-18.91Q744.49,263.64,763.37,282.06Z" style="fill: #fc0"/>
    <path d="M772.28,279.14V253.59q-23.32-4.07-46.66-8.72Q748.95,262.27,772.28,279.14Z" style="fill: #fc0"/>
    <path d="M845.06,433.73q18.3-18.21,36.61-37.08-11.1-4.84-22.19-9.94Q852.26,410.28,845.06,433.73Z" style="fill: #fc0"/>
    <path d="M845.06,433.73q18.87-12.81,37.75-26.32Q876,396.54,869.1,385.55,857.07,409.79,845.06,433.73Z" style="fill: #fc0"/>
    <path d="M862.16,405.55q18.89,16.92,37.76,33.09-12-26.07-24-52.48Q869,395.91,862.16,405.55Z" style="fill: #fc0"/>
    <path d="M863.3,395q18.32,22.18,36.62,43.65-7.21-24.74-14.42-49.59Q874.4,392.16,863.3,395Z" style="fill: #fc0"/>
    <path d="M879.12,410.05Q898,396.6,916.87,382.33q-25.74,3.68-51.47,5.81Q872.26,399.14,879.12,410.05Z" style="fill: #fc0"/>
    <path d="M870.2,404.78q23.34-10.62,46.67-22.45-23.34-.91-46.67-3.1Z" style="fill: #fc0"/>
    <path d="M865.86,408.86q6.85-9.67,13.71-19.45-25.73-6.8-51.47-15Q847,392,865.86,408.86Z" style="fill: #fc0"/>
    <path d="M874.77,405.19V379.64q-23.32-2.06-46.67-5.18Q851.44,390.33,874.77,405.19Z" style="fill: #fc0"/>
    <path d="M858.07,391.32q11.08,5.12,22.19,10-3.88-28.57-7.77-57.17Q865.27,367.78,858.07,391.32Z" style="fill: #fc0"/>
    <path d="M864.72,399.89q11.09-2.85,22.19-6-7.21-24.84-14.42-49.79Z" style="fill: #fc0"/>
    <path d="M874.77,711.86V686.3q-23.32-2-46.67-5.17Q851.44,697,874.77,711.86Z" style="fill: #fc0"/>
    <path d="M865.86,715.52q6.85-9.66,13.71-19.44-25.73-6.81-51.47-15Q847,698.65,865.86,715.52Z" style="fill: #fc0"/>
    <path d="M845.06,740.39q18.3-18.21,36.61-37.08-11.1-4.83-22.19-9.93Q852.26,716.93,845.06,740.39Z" style="fill: #fc0"/>
    <path d="M845.06,740.39q18.87-12.79,37.75-26.31Q876,703.19,869.1,692.22,857.07,716.45,845.06,740.39Z" style="fill: #fc0"/>
    <path d="M862.16,712.22Q881,729.14,899.92,745.3q-12-26.07-24-52.47Q869,702.57,862.16,712.22Z" style="fill: #fc0"/>
    <path d="M863.3,701.66q18.32,22.19,36.62,43.64-7.21-24.74-14.42-49.58Q874.4,698.83,863.3,701.66Z" style="fill: #fc0"/>
    <path d="M858.07,698q11.08,5.12,22.19,10-3.88-28.58-7.77-57.18Q865.27,674.44,858.07,698Z" style="fill: #fc0"/>
    <path d="M864.72,706.56q11.09-2.87,22.19-6-7.21-24.84-14.42-49.8Q868.61,678.7,864.72,706.56Z" style="fill: #fc0"/>
    <path d="M870.2,711.45q23.34-10.62,46.67-22.45-23.34-.91-46.67-3.11Z" style="fill: #fc0"/>
    <path d="M879.12,716.72Q898,703.27,916.87,689c-17.16,2.45-34.31,4.35-51.47,5.8Q872.26,705.81,879.12,716.72Z" style="fill: #fc0"/>
    <path d="M772.28,810.31V784.75Q749,780.69,725.62,776,748.95,793.43,772.28,810.31Z" style="fill: #fc0"/>
    <path d="M763.37,813.22q6.86-9.11,13.72-18.27-25.74-9.09-51.47-18.92Q744.49,794.8,763.37,813.22Z" style="fill: #fc0"/>
    <path d="M742.57,836.47q18.3-16.87,36.61-34.1Q768.1,796.54,757,790.55,749.77,813.55,742.57,836.47Z" style="fill: #fc0"/>
    <path d="M742.57,836.47q18.87-11.43,37.75-23.24-6.86-11.49-13.71-23.05Q754.6,813.4,742.57,836.47Z" style="fill: #fc0"/>
    <path d="M759.68,809.61q18.87,18.45,37.75,36.45-12-27.24-24-54.69Q766.54,800.52,759.68,809.61Z" style="fill: #fc0"/>
    <path d="M760.82,799.15q18.3,23.67,36.61,46.91-7.21-25.42-14.42-50.94Q771.91,797.21,760.82,799.15Z" style="fill: #fc0"/>
    <path d="M755.58,795.05q11.1,6,22.19,11.84L770,749Q762.79,772.07,755.58,795.05Z" style="fill: #fc0"/>
    <path d="M762.23,804.16q11.1-1.95,22.19-4Q777.21,774.61,770,749Z" style="fill: #fc0"/>
    <path d="M767.72,809.51q23.32-8.65,46.66-18-23.32-3.36-46.66-7.52Z" style="fill: #fc0"/>
    <path d="M776.63,815.54q18.87-11.77,37.75-24.07c-17.15.65-34.31.95-51.47,1Q769.78,804,776.63,815.54Z" style="fill: #fc0"/>
  </g>
</svg>
