<svg xmlns="http://www.w3.org/2000/svg" xmlns:xlink="http://www.w3.org/1999/xlink" viewBox="0 0 1260 1012.04">
  <defs>
    <clipPath id="a">
      <path d="M0,90.08v230c245-158.27,490-69.55,735-22v230c-35-6.79-70-14.42-105-22.06C420,306.89,210,107.75,0,90.08ZM630,46C525,23.12,420,.22,315,0V536.67c-105-.22-210,22.24-315,90.07V550.08C210,261.09,420,153.55,630,46Z" style="fill: none"/>
    </clipPath>
    <linearGradient id="b" x1="867.84" y1="718.97" x2="823.39" y2="745.23" gradientTransform="matrix(1, -0.07, 0, 1, 0, 44.05)" gradientUnits="userSpaceOnUse">
      <stop offset="0" stop-color="#a43907"/>
      <stop offset="1" stop-color="#fff"/>
    </linearGradient>
    <linearGradient id="c" x1="902.63" y1="760.05" x2="796.7" y2="779.67" xlink:href="#b"/>
    <linearGradient id="d" x1="1068" y1="740.2" x2="1027.07" y2="737.81" xlink:href="#b"/>
    <linearGradient id="e" x1="1087.35" y1="786.27" x2="988.54" y2="777.88" xlink:href="#b"/>
    <linearGradient id="f" x1="1074.44" y1="788.48" x2="815.57" y2="788.48" xlink:href="#b"/>
    <linearGradient id="g" x1="819.08" y1="827.6" x2="1203.4" y2="824.49" xlink:href="#b"/>
    <linearGradient id="h" x1="1082.81" y1="801.52" x2="1056.07" y2="799.92" xlink:href="#b"/>
    <linearGradient id="i" x1="819.96" y1="812.5" x2="841.78" y2="809.04" xlink:href="#b"/>
    <linearGradient id="j" x1="841.63" y1="772.3" x2="799.35" y2="795.77" xlink:href="#b"/>
  </defs>
  <g>
    <path d="M0,90.08v920C420,738.76,840,1193.28,1260,922V2C840,273.28,420-181.24,0,90.08Z" style="fill: #00247d"/>
    <path d="M0,90.08C210,107.75,420,306.89,630,506m0-460C420,153.55,210,261.09,0,550.08"/>
    <path d="M315,281.43C415.3,354.88,515.61,449,615.91,544.09L644.09,468C557.87,386.23,471.65,303.83,385.44,233.3c86.21-55.38,172.43-98.88,258.65-143.06Q637,68.13,630,46c-23.48-5.12-47-10.24-70.44-15.11C478,73.54,396.52,119.22,315,178.57,233.48,118.88,152,72.86,70.44,51.13A575.74,575.74,0,0,0,0,90.08v51.43c81.52,6.86,163,41.06,244.56,92C163,301.62,81.52,386.46,0,498.65v51.43q7.05,16,14.09,32.31C114.39,448.19,214.7,354.46,315,281.43Z" style="fill: #fff"/>
    <g style="clip-path: url(#a)">
      <path d="M0,90.08C210,107.75,420,306.89,630,506m0-460C420,153.55,210,261.09,0,550.08"/>
      <path d="M315,264.29C416.87,338.88,518.74,434.82,620.61,531.4l18.78-50.76C546.91,393,454.44,304.76,362,231.54c92.48-61.82,185-108.67,277.43-156L630,46c-15.65-3.41-31.31-6.83-47-10.16C493.69,82,404.35,130.66,315,195.71c-89.35-65.42-178.69-114.42-268-133Q23.49,74.94,0,90.08v34.28c89.35,7.52,178.7,47.89,268,107.13C178.7,302.73,89.35,392.83,0,515.79v34.29q4.7,10.68,9.39,21.48C111.26,434,213.13,338.46,315,264.29Z" style="fill: #cf142b"/>
    </g>
    <path d="M315,0V536.67M0,320.08c245-158.27,490-69.55,735-22"/>
    <path d="M367.5,1.9a728.67,728.67,0,0,0-105,0h0a728.67,728.67,0,0,1,105,0Z" style="fill: #fff"/>
    <path d="M262.5,538.55a731.56,731.56,0,0,1,105,0v-230C490,316.9,612.5,351,735,374.75V221.42c-122.5-23.78-245-57.85-367.5-66.19V1.9a728.67,728.67,0,0,0-105,0V155.22C175,161.86,87.5,186.88,0,243.41V396.74c87.5-56.52,175-81.54,262.5-88.19Z" style="fill: #fff"/>
    <path d="M315,0V536.67M0,320.08c245-158.27,490-69.55,735-22"/>
    <path d="M346.5.72c-21-.9-42-1-63-.08h0c21-.91,42-.82,63,.09Z" style="fill: #cf142b"/>
    <path d="M283.5,537.31c21-.91,42-.82,63,.08V276.72C476,282.31,605.5,319,735,344.08v-92C605.5,227,476,190.31,346.5,184.72V.73c-21-.91-42-1-63-.09v184C189,188.73,94.5,213,0,274.08v92C94.5,305,189,280.73,283.5,276.64Z" style="fill: #cf142b"/>
    <path d="M630,46V506c-210-45.8-420-91.6-630,44.06v460C420,738.76,840,1193.28,1260,922V2C1050,137.63,840,91.82,630,46Z" style="fill: #00247d"/>
    <path d="M842.88,677.44c-6,.83-16.93,38.92-17.43,39.6s10.46,20.39,10.95,19.68,7.47-13.51,14.94-14.2S867.77,744,867.77,744h0s-6-58.51-6-60S848.85,676.67,842.88,677.44Z" style="fill: url(#b)"/>
    <path d="M855.45,683.44c0,.2,0,.53.09,1.38Q855.47,684.16,855.45,683.44Z" style="fill: #fff"/>
    <path d="M865.67,677c-3.47-4.56-17.3-9.59-23.87-8.74-6.13.81-11.41,11.1-20.91,40.67-.32,1-.58,1.84-.77,2.39-2.9,5.6.67,12.24,4.12,18.66,1.84,3.42,4.67,8.45,6.58,11.36,2.14,3.25,4.06,4.45,5.64,4.65,2.41.3,4-1.71,4.49-2.33.09-.14.32-.48.64-1,5.73-9.53,9.45-10.76,10.55-10.9,2,.55,7.08,8.71,10.27,16.56q5.79-2.52,11.59-5.11c-2.18-21.18-5.7-55.73-6-59.21A12.78,12.78,0,0,0,865.67,677Zm-44.85,33.17.07-.09Zm34.72-25.34c-.07-.85-.09-1.18-.09-1.38Q855.47,684.16,855.54,684.82Zm-5.07,28.49c-4.71.43-9.52,3.83-14.35,10.12-1.21-2.13-2.47-4.43-3.45-6.3,7.27-22.61,10.67-28.85,12-30.54,3,0,8.11,1.8,11.29,3.27.44,4.59,1.23,12.58,2.66,26.65C856.09,714.35,853.33,713.05,850.47,713.31Zm17.58-28.74c0-.17,0-.35,0-.53C868.05,684.29,868.05,684.47,868.05,684.57Z" style="fill: #fff"/>
    <path d="M861.8,684.85s2,32.9-.5,49.38-10.46,49.9-23.9,52.79S806,759.9,806,759.89s16.93,59.53,24.4,63.5,28.38-5.63,41.33-24.29,15.93-74.74,15.93-76.24h0Q874.74,704,861.8,684.85Z" style="fill: url(#c)"/>
    <path d="M866.12,678.6q-5.29,3.23-10.6,6.41c.53,8.77,1.5,34.22-.38,46.62-3.19,21.1-11,44.51-19.17,46.25-7.46,1.62-20.33-15.23-25.39-23.67q-5.16,4.24-10.33,8.45c.17.62,4.37,15.39,9.58,30.9,10.69,31.87,15.37,36.55,18.9,38.47a12.62,12.62,0,0,0,4.37,1.35c11.93,1.57,31.31-10.33,43.21-27.52,15-21.61,17.68-82,17.68-82.56-.66-2.27-1.32-4.55-2-6.82Q879.08,697.72,866.12,678.6Zm1.08,113.72c-11.8,16.95-29.86,24.31-34.69,22.59-1.89-2.43-5.66-11.36-10.16-24.25,5.29,4.11,11,6.69,16.47,5.5,7.78-1.68,14.59-10.32,20.23-25.61a186.41,186.41,0,0,0,8.4-33.76c1.2-7.93,1.46-19,1.38-28.88Q875,717,881.18,726C880.24,740.13,876.29,779.3,867.2,792.32Z" style="fill: #fff"/>
    <path d="M1047.15,676.32c-6-.51-18.87,5.66-18.87,7.14s-6,60.18-6,60.18h0s9-22.34,16.44-21.93,14.44,12.92,14.94,13.59,11.45-19.55,10.95-20.25S1053.13,676.92,1047.15,676.32Z" style="fill: url(#d)"/>
    <path d="M1034.49,684.15c.07-.86.08-1.18.08-1.39A12.38,12.38,0,0,1,1034.49,684.15Z" style="fill: #fff"/>
    <path d="M1069.13,706.65c-9.5-29-14.77-39-20.9-39.57-6.57-.54-20.4,4.89-23.87,9.52a12.81,12.81,0,0,0-2.37,7c-.26,3.49-3.78,38.11-6,59.33q5.79,2.49,11.59,4.86c3.19-7.93,8.25-16.24,10.27-16.86,1.1.1,4.82,1.22,10.55,10.5.32.53.54.86.62,1,2,.53,4.09,1.06,6.13,1.57,1.78-1,3-1.93,8.93-12.93,5.81-10.79,6.2-12.82,6.51-14.42a12.55,12.55,0,0,0-.62-7.34C1069.83,708.79,1069.53,707.86,1069.13,706.65ZM1022,684.23c0-.1,0-.28,0-.53C1022,683.87,1022,684.05,1022,684.23Zm12.6-1.47c0,.21,0,.53-.08,1.39A12.38,12.38,0,0,0,1034.57,682.76ZM1053.91,722c-4.83-6.07-9.64-9.27-14.35-9.54a8.16,8.16,0,0,0-1.64.08,13.1,13.1,0,0,0-6.55,3.38c1.44-14.11,2.23-22.13,2.66-26.73,3.19-1.56,8.33-3.53,11.29-3.66,1.37,1.63,4.76,7.75,12,30C1056.38,717.46,1055.12,719.82,1053.91,722Zm15.21-14.23c.15.2.29.41.42.62C1069.41,708.19,1069.27,708,1069.12,707.78Z" style="fill: #fff"/>
    <path d="M1052.63,785.66c-13.44-2.29-21.41-35.55-23.9-51.94s-.5-49.36-.5-49.36q-12.94,19.51-25.89,38.46h0c0,1.49,3,57.62,15.93,76s33.86,27.37,41.33,22.85c7.47-4.31,24.4-65,24.4-65.12S1066.07,788,1052.63,785.66Z" style="fill: url(#e)"/>
    <path d="M1054.06,776.45c-8.18-1.35-16-24.5-19.17-45.51-1.88-12.31-.91-37.81-.38-46.6q-5.31-3-10.61-6.13Q1011,697.62,998,716.48c-.66,2.28-1.31,4.56-2,6.84,0,.52,2.71,61,17.68,82.36,11.9,17,31.28,28.34,43.21,26.12a12.75,12.75,0,0,0,4.36-1.57c3.54-2.12,8.21-7,18.91-39.7,5.2-15.9,9.4-31,9.58-31.67q-5.17-3.76-10.33-7.62C1074.41,760.09,1061.57,777.75,1054.06,776.45Zm3.46,36.86c-4.84,2-22.89-4.62-34.7-21.36-9.08-12.81-13-52-14-66q6.17-9.1,12.34-18.34c-.08,9.9.19,20.94,1.38,28.85.66,4.33,3.21,19.58,8.41,33.55,5.64,15.14,12.44,23.55,20.22,24.88,5.47.94,11.19-1.94,16.48-6.38C1063.19,801.65,1059.41,810.77,1057.52,813.31Z" style="fill: #fff"/>
    <path d="M1061.65,706.61c0,15.43-42.22,83.8-116.63,83.9-74.4-.87-116.63-66.72-116.63-82.08a173.7,173.7,0,0,0-11.65,23.36c-2.49,5.72-1,14.4,4.72,27.28,6.2,13.57,57.17,72.9,123.56,73.24s117.36-61.22,123.56-75.47c5.75-13.24,7.17-22,4.69-27.58A162.39,162.39,0,0,0,1061.65,706.61Z" style="fill: url(#f)"/>
    <path d="M1077.9,721.65a159.2,159.2,0,0,0-11.38-21.81q-5.58,4-11.17,7.91c0-.17,0-.27,0-.28-.43,3.75-8.31,21.59-28.63,40.53-16.19,15-43.51,33.36-81.71,33.31S879.5,763,863.31,748.45c-20.32-18.4-28.2-35.73-28.63-39.48,0,0,0,.11,0,.28q-5.58-3.63-11.17-7.31A174.12,174.12,0,0,0,812,724.76l-.66,1.52c-5.17,11.86.36,27,5,37.32,7.79,17.18,61.33,77.6,128.73,77.91,67.41.56,120.94-62.42,128.73-80.48,4.6-10.61,10.1-26.16,4.92-37.66C1078.42,722.8,1078.16,722.22,1077.9,721.65Zm-14.49,31c-2.25,5.12-15.71,23.07-36.63,39.44-18.21,14.28-47.18,31.19-81.76,31.07s-63.55-16.84-81.76-30.61c-20.91-15.85-34.38-33-36.63-38-4.48-10-5.25-15.49-4.49-17.26.23-.52.46-1,.68-1.57,1.26-2.92,2.68-6.22,4.51-10,14.31,29.22,57.07,73.59,117.69,74,60.61.19,103.36-45.61,117.68-75.83,1.76,3.51,3.14,6.64,4.36,9.4l.8,1.8C1068.63,736.82,1067.87,742.36,1063.41,752.6Z" style="fill: #fff"/>
    <path d="M1064.38,777.22c-1.76,7.88-8.21,11.51-9.2,20.79s4.48,17.45,3.48,15.35c1-2.43,11.45-31.07,11.45-31.1Z" style="fill: url(#g)"/>
    <path d="M1068.12,769.08q-4.84,3.18-9.7,6.28a18.94,18.94,0,0,1-2.61,4.83c-2.52,3.87-6,9.13-6.85,17.43-1.27,11.79,3.86,23.22,7.12,24.87,2.48-1.18,5-2.39,7.43-3.61a13.3,13.3,0,0,0,1.34-3.87c2.53-6.74,9.22-25.15,10.73-29.32q-.87-5.81-1.73-11.61C1071.94,772.42,1070,770.76,1068.12,769.08Zm-14.77,50.16a12.67,12.67,0,0,1,0-9.29Z" style="fill: #fff"/>
    <path d="M1073.54,736.82c-10.46-.12-13,17-13,17s1,6.65.5,19.67-4.43,17.53-5.48,21.52c-.93,3.59,2.49-5.73,9-5.45s4.48,13.55,4.48,13.56h0q7.21-21.23,14.44-42.65a21,21,0,0,0,1-7.07C1084.49,748.82,1084,736.86,1073.54,736.82Z" style="fill: url(#h)"/>
    <path d="M1074.47,727.52c-12-.08-18.53,15.07-20,25.46l0,3.81a111.32,111.32,0,0,1,.38,17.33,30.19,30.19,0,0,1-3,13,35.1,35.1,0,0,0-2,5.49c-1.91,7.32,1.33,10.71,2,11.3.94.85,4.32,3.17,8.32-2.38.89-1.24,1.79-2.37,2.92-2.63a18,18,0,0,1-.1,3.49l.37.05q5.67,2,11.35,3.87,7.19-21.22,14.39-42.65a36.08,36.08,0,0,0,1.78-11.75C1090.79,736.53,1084.69,727.58,1074.47,727.52Zm3.51,29.77a3.34,3.34,0,0,1,.21-.57Zm0,0q-4.11,12.18-8.24,24.29a7.86,7.86,0,0,0-3-1.18,72.48,72.48,0,0,0,.68-7.6,148.69,148.69,0,0,0-.35-19.67c.66-2.9,2.21-7.07,5.58-7,4.07,0,5.58,2.38,5.58,8.72A11.27,11.27,0,0,1,1078,757.3Z" style="fill: #fff"/>
    <path d="M825.64,779.19l-5.73,5.39s10.45,28,11.45,30.44h0c-1,2.15,4.48-6.27,3.49-15.52S827.4,787,825.64,779.19Z" style="fill: url(#i)"/>
    <path d="M834.22,781.71a18.13,18.13,0,0,1-2.62-4.7l-9.7-5.73-5.73,5.37q-.87,5.86-1.72,11.74c1.5,4.05,8.19,22,10.72,28.62a12.9,12.9,0,0,0,1.34,3.8c2.48,1.08,5,2.15,7.43,3.21,3.26-1.82,8.39-13.46,7.13-25.2C840.18,790.55,836.73,785.45,834.22,781.71Zm2.45,38.93v-9.3A12.71,12.71,0,0,1,836.67,820.64Z" style="fill: #fff"/>
    <path d="M828.93,775.29c-.49-13,.5-19.7.5-19.7s-2.49-17-12.95-16.22-11,12.83-11,17.4a20,20,0,0,0,1,7q7.22,20.85,14.44,41.63h0s-2-13.2,4.48-13.83,9.9,8.52,9,5C833.37,792.59,829.43,788.29,828.93,775.29Z" style="fill: url(#j)"/>
    <path d="M838.21,788.45a29.28,29.28,0,0,1-3-12.86,112.86,112.86,0,0,1,.37-17.29v-3.87c-1.51-10.31-8.08-25.2-20-24.29-10.22.76-16.32,10.29-16.32,25.66A34.29,34.29,0,0,0,801,767.4q7.2,20.8,14.39,41.53,5.85-2.29,11.71-4.65a18,18,0,0,1-.1-3.49c1.12.19,2,1.28,2.92,2.47,4,5.34,7.38,2.87,8.32,2,.67-.63,3.92-4.15,2-11.39A32.61,32.61,0,0,0,838.21,788.45ZM811.84,759.6a3.22,3.22,0,0,1,.2.55C812,760,811.9,759.78,811.84,759.6Zm8.45,24.29q-4.11-11.8-8.21-23.63l0-.1a11,11,0,0,1-.22-2.45c0-6.34,1.51-8.8,5.59-9.11,3.4-.27,4.92,3.85,5.57,6.66a153.21,153.21,0,0,0-.35,19.7,68.71,68.71,0,0,0,.69,7.56A8.44,8.44,0,0,0,820.29,783.89Z" style="fill: #fff"/>
    <path d="M842.88,677.44c-6,.83-16.93,38.92-17.43,39.6s10.46,20.39,10.95,19.68,7.47-13.51,14.94-14.2S867.77,744,867.77,744h0s-6-58.51-6-60S848.85,676.67,842.88,677.44Z" style="fill: url(#b)"/>
    <path d="M862.22,682.64c-1.7-2.23-13.8-7.32-19.51-6.58-4.75.65-11.22,19-16.93,36.74-.48,1.49-.94,2.91-1.08,3.29-.55.78-.65,1.44,3.62,9.37,2.28,4.23,4.77,8.52,6.2,10.69.83,1.27,1.78,2.71,2.56,1.61.06-.08.18-.28.37-.59,6.31-10.47,11.11-13,14-13.27,5.64-.53,13.09,14.8,15.5,20.73l1.74-.76c-2.39-23.16-6-58.22-6-59.82A2.36,2.36,0,0,0,862.22,682.64ZM860.81,684v0Zm-9.6,37.15c-3.21.29-8.42,2.93-15,13.75a164.65,164.65,0,0,1-9.73-17.58c.19-.52.48-1.44,1-3.15,7.39-23,12.61-34.94,15.54-35.34,5.35-.71,16,4,17.81,5.64.39,5,3.8,38.32,5.37,53.64C863,731.38,856.84,720.63,851.21,721.14Z"/>
    <path d="M861.8,684.85s2,32.9-.5,49.38-10.46,49.9-23.9,52.79S806,759.9,806,759.89s16.93,59.53,24.4,63.5,28.38-5.63,41.33-24.29,15.93-74.74,15.93-76.24h0Q874.74,704,861.8,684.85Z" style="fill: url(#c)"/>
    <path d="M862.45,683.91l-1.59,1c0,.33,1.95,32.88-.49,49-2.71,17.94-10.64,49.12-23.19,51.81-12.76,2.78-30.29-26.3-30.47-26.61l-1.55,1.27c1.75,6.18,17.33,60.28,25,64.38a8.87,8.87,0,0,0,3,.92c9.58,1.26,27.67-8.84,39.23-25.49,13.46-19.37,16.2-76.68,16.2-77.19l-.3-1Q875.4,703.09,862.45,683.91Zm8.62,114.17c-13.26,19.1-33.65,27.69-40.39,24-4.7-2.51-15-32.7-21.86-56,6,8.7,18.46,24.52,28.79,22.3,13.47-2.91,21.81-35.22,24.61-53.79,2-13.44,1.15-37.13.71-46.18q11.9,17.61,23.79,34.91C886.41,729.27,883.23,780.62,871.07,798.08Z"/>
    <path d="M1047.15,676.32c-6-.51-18.87,5.66-18.87,7.14s-6,60.18-6,60.18h0s9-22.34,16.44-21.93,14.44,12.92,14.94,13.59,11.45-19.55,10.95-20.25S1053.13,676.92,1047.15,676.32Z" style="fill: url(#d)"/>
    <path d="M1064.24,710.82c-5.7-17.44-12.17-35.44-16.93-35.89-5.7-.49-17.81,5-19.5,7.23a2.32,2.32,0,0,0-.48,1.39c-.06,1.63-3.62,36.78-6,60l1.74.72c2.4-6,9.87-21.49,15.5-21.16,2.91.17,7.71,2.52,14,12.71.18.3.31.49.36.56l1,.24c1.53-.78,11.13-18.93,11.56-21.15a2,2,0,0,0-.15-1.37C1065.22,713.79,1064.74,712.34,1064.24,710.82Zm-35-27.48v0Zm24.61,50.13c-6.6-10.5-11.8-13-15-13.14a3.8,3.8,0,0,0-.89,0c-5.37.78-11,10.9-14.12,17.35,1.57-15.36,5-48.77,5.37-53.78,1.76-1.67,12.45-6.71,17.81-6.24,2.92.27,8.15,12,15.53,34.58.55,1.69.85,2.59,1,3.11A170.54,170.54,0,0,1,1053.83,733.47Z"/>
    <path d="M1052.63,785.66c-13.44-2.29-21.41-35.55-23.9-51.94s-.5-49.36-.5-49.36q-12.94,19.51-25.89,38.46h0c0,1.49,3,57.62,15.93,76s33.86,27.37,41.33,22.85c7.47-4.31,24.4-65,24.4-65.12S1066.07,788,1052.63,785.66Z" style="fill: url(#e)"/>
    <path d="M1052.84,784.28c-12.54-2.12-20.47-33.12-23.19-51-2.43-16-.5-48.62-.48-48.95l-1.59-.92q-12.94,19.5-25.89,38.43l-.3,1c0,.5,2.74,57.83,16.2,77,11.56,16.48,29.65,26,39.23,24.18a9,9,0,0,0,3-1.08c7.68-4.46,23.26-59.68,25-66.05l-1.55-1.14C1083.14,756.13,1065.59,786.53,1052.84,784.28Zm6.51,36.12c-6.76,4.08-27.13-3.7-40.39-22.6-12.16-17.24-15.34-68.59-15.65-74.5q11.9-17.43,23.79-35.33c-.44,9-1.32,32.77.71,46.16,2.8,18.48,11.14,50.62,24.61,52.91,10.32,1.77,22.82-14.87,28.79-24C1074.32,786.83,1064.05,817.65,1059.35,820.4Z"/>
    <path d="M1061.65,706.61c0,15.43-42.22,83.8-116.63,83.9-74.4-.87-116.63-66.72-116.63-82.08a173.7,173.7,0,0,0-11.65,23.36c-2.49,5.72-1,14.4,4.72,27.28,6.2,13.57,57.17,72.9,123.56,73.24s117.36-61.22,123.56-75.47c5.75-13.24,7.17-22,4.69-27.58A162.39,162.39,0,0,0,1061.65,706.61Z" style="fill: url(#f)"/>
    <path d="M1073.29,726.62a154.84,154.84,0,0,0-10.91-21l-1.68,1.19c0,15-42.11,82.27-115.68,82.35-73.57-.84-115.68-65.69-115.68-80.57l-1.68-1.1a166.55,166.55,0,0,0-11.07,22l-.66,1.54c-2.73,6.26-1.21,15.42,4.76,28.79,3.24,7.23,17.67,25.41,39.59,42.1,18.86,14.31,48.88,31.75,84.74,31.84s65.88-17.49,84.74-32.38c21.92-17.28,36.35-36.41,39.6-43.84,6-13.72,7.45-23,4.72-29.09C1073.82,727.79,1073.55,727.2,1073.29,726.62Zm-5.49,29.59c-3,6.93-17.46,25.89-38.82,42.69-18.69,14.72-48.43,32.15-84,32s-65.27-17.35-84-31.52c-21.36-16.24-35.79-34.27-38.82-41-5.5-12.3-7-20.51-4.69-25.78.22-.52.45-1,.67-1.55a168.34,168.34,0,0,1,9.61-19.49C830,721.7,841.06,739.89,858.34,756c17.11,15.85,46,35.69,86.68,35.88s69.57-20.08,86.68-36.47c17.29-16.61,28.35-35.46,30.51-45.7a155.62,155.62,0,0,1,9.46,18.64l.78,1.77C1074.76,735.28,1073.28,743.6,1067.8,756.21Z"/>
    <path d="M1064.38,777.22c-1.76,7.88-8.21,11.51-9.2,20.79s4.48,17.45,3.48,15.35c1-2.43,11.45-31.07,11.45-31.1Z" style="fill: url(#g)"/>
    <path d="M1070.67,781c-1.91-1.67-3.82-3.34-5.73-5l-1.45.94c-.72,3.19-2.33,5.68-4,8.32-2.27,3.5-4.62,7.09-5.22,12.7-.94,8.81,3.37,16.67,4.12,17l1.13-.54a2,2,0,0,0,.23-1.18c1.85-4.83,10.81-29.38,11.21-30.51C1070.85,782.19,1070.76,781.61,1070.67,781Zm-12.14,30a25.43,25.43,0,0,1-2.42-12.94c.5-4.65,2.51-7.74,4.63-11a32.24,32.24,0,0,0,4-7.75l4.1,3.6C1067.17,787.59,1060.73,805.19,1058.53,811Z"/>
    <path d="M1073.54,736.82c-10.46-.12-13,17-13,17s1,6.65.5,19.67-4.43,17.53-5.48,21.52c-.93,3.59,2.49-5.73,9-5.45s4.48,13.55,4.48,13.56h0q7.21-21.23,14.44-42.65a21,21,0,0,0,1-7.07C1084.49,748.82,1084,736.86,1073.54,736.82Z" style="fill: url(#h)"/>
    <path d="M1073.68,735.42c-11.19-.14-14,18.07-14,18.28v.58c0,.07,1,6.68.48,19.32a41.72,41.72,0,0,1-4,17.25,25.23,25.23,0,0,0-1.46,3.82c-.17.63-.47,1.8.18,2.38s1.24-.23,1.76-.94c1.15-1.59,3.85-5.31,7.75-5.15a3.29,3.29,0,0,1,2.92,2c1.74,3.4.79,10,.79,10l1.75.6q7.2-21.18,14.41-42.57a23.24,23.24,0,0,0,1.14-7.85C1085.44,741.53,1081.37,735.47,1073.68,735.42Zm9,24.6q-6.21,18.43-12.43,36.72a15,15,0,0,0-1.31-5.64,4.78,4.78,0,0,0-4.19-2.92,7,7,0,0,0-1.66.12,9.9,9.9,0,0,0-4.77,2.6,45.88,45.88,0,0,0,3.73-17.5,125.19,125.19,0,0,0-.47-19.72c.36-2.19,3-15.56,11.84-15.47,6.73,0,10.15,5.17,10.15,15.42A18.9,18.9,0,0,1,1082.66,760Z"/>
    <path d="M825.64,779.19l-5.73,5.39s10.45,28,11.45,30.44h0c-1,2.15,4.48-6.27,3.49-15.52S827.4,787,825.64,779.19Z" style="fill: url(#i)"/>
    <path d="M830.57,787c-1.71-2.54-3.32-5-4-8.09l-1.46-.86-5.73,5.38c-.09.59-.17,1.18-.26,1.76.4,1.09,9.36,25.11,11.22,29.86a1.88,1.88,0,0,0,.22,1.16l1.13.48c.76-.41,5.06-8.49,4.12-17.25C835.18,793.82,832.84,790.34,830.57,787Zm.92,25.71c-2.2-5.72-8.63-22.95-10.34-27.54l4.09-3.84a30.4,30.4,0,0,0,4,7.52c2.13,3.17,4.14,6.16,4.63,10.79A26,26,0,0,1,831.49,812.67Z"/>
    <path d="M828.93,775.29c-.49-13,.5-19.7.5-19.7s-2.49-17-12.95-16.22-11,12.83-11,17.4a20,20,0,0,0,1,7q7.22,20.85,14.44,41.63h0s-2-13.2,4.48-13.83,9.9,8.52,9,5C833.37,792.59,829.43,788.29,828.93,775.29Z" style="fill: url(#j)"/>
    <path d="M833.83,792.39c-1.52-3.36-3.61-8-4-17-.49-12.61.46-19.28.48-19.34s0-.39,0-.58-2.8-18.29-14-17.44c-7.7.58-11.77,7-11.77,18.65a22.12,22.12,0,0,0,1.11,7.66q7.23,20.85,14.44,41.63l1.76-.71c0-.06-1-6.57.78-10.09a3.52,3.52,0,0,1,2.93-2.18c3.91-.39,6.6,3.2,7.75,4.73.51.69,1.1,1.47,1.75.86s.35-1.78.19-2.4A25.16,25.16,0,0,0,833.83,792.39Zm-8.53-2.22a5.17,5.17,0,0,0-4.2,3.18,15.61,15.61,0,0,0-1.31,5.72q-6.22-17.93-12.46-35.92a18.59,18.59,0,0,1-.86-6.24c0-10.24,3.42-15.65,10.15-16.16a9.27,9.27,0,0,1,1.76,0c7.46,1.05,9.75,12.68,10.08,14.69a126.17,126.17,0,0,0-.47,19.76,44.42,44.42,0,0,0,3.74,17.29A8.55,8.55,0,0,0,825.3,790.17Z"/>
    <path d="M854.1,759.2h0l-5.42-6.06-.63,1.39,1.06,1.41c0,.26.07.52.1.79l-6.83,15-.51.12-1.2-1.14-.63,1.39,5.43,6.1c1.86,2.09,3.45,3.23,5.22,3.15,2.3-.07,4.26-1.82,5.78-5.18C859.17,770.23,858.41,764,854.1,759.2Zm-.39,13.9c-2.41,5.35-5,6.36-8,3l-1.08-1.22q3.6-7.92,7.19-15.86h0l1.08,1.2C855.87,763.57,856.13,767.75,853.71,773.1Z"/>
    <path d="M862.2,768.67l1.17,1.17.18.71-5.37,16.64-.48.23-1.27-.87c-.17.51-.33,1-.5,1.53h0q5.4,4.51,10.78,9,.91-2.81,1.81-5.6l-1.37-1.13-1.41,3-.42.28-4.66-3.87q1.32-4,2.62-8.12l2.61,2.16c.05.23.1.45.14.67-.17.81-.35,1.61-.52,2.42l1.18,1,2.34-7.26-1.18-1-.93,2.09-.42.2q-1.31-1.06-2.61-2.16l2.4-7.44,4,3.29c0,.21.09.42.13.63-.19,1-.39,2-.58,3l1.4,1.16q.79-2.46,1.58-4.92-5.05-4.15-10.12-8.35C862.53,767.65,862.36,768.16,862.2,768.67Z"/>
    <path d="M873.84,783a10,10,0,0,0,.5,5.44,22.46,22.46,0,0,0,2.25,4.08c1.25,2.07,1.75,3.71,1.36,5.52s-1.69,2.59-3.41,1.59a6.55,6.55,0,0,1-1.76-1.55c-.06-.22-.11-.44-.17-.66.17-1.4.35-2.8.52-4.2l-1.61-.94-1.29,6h0a13.55,13.55,0,0,0,3.85,3.48c3.47,2,6.22.37,7.08-3.61a9.43,9.43,0,0,0-.84-6.11c-1-2-2-3.14-2.51-4.15a6.54,6.54,0,0,1-.94-4.6c.39-1.84,1.63-2.63,3.18-1.74a3.86,3.86,0,0,1,1.44,1.35c.07.22.13.43.2.64l-.39,3.69,1.53.87c.38-1.81.77-3.61,1.16-5.42a13.58,13.58,0,0,0-3.74-3.42C877.22,777.53,874.64,779.26,873.84,783Z"/>
    <path d="M885.94,784.81l1.36,1,.24.66q-1.92,8.93-3.82,17.85l-.45.34-1.44-.63c-.11.55-.23,1.09-.35,1.64h0l6.34,3.61c.11-.55.23-1.1.35-1.65l-1.39-1c-.07-.24-.15-.48-.22-.72L890.37,788l.44-.28,1.46.63c.11-.55.23-1.09.35-1.64l-6.33-3.57C886.17,783.72,886.05,784.26,885.94,784.81Z"/>
    <path d="M903.89,811.27a35.44,35.44,0,0,0-.54-5.61,5.38,5.38,0,0,0-2-3c2.56.2,4.13-1.33,4.58-4.52.55-3.86-.89-6.59-4.26-7.87-2.21-.84-4.41-1.68-6.61-2.54h0l-.25,1.7,1.26.67c.1.21.19.41.28.62q-1.32,9.24-2.63,18.48l-.43.42-1.3-.33c-.08.56-.16,1.13-.25,1.69,2.05.8,4.09,1.6,6.14,2.38l.24-1.7c-.44-.22-.87-.45-1.3-.68l-.27-.69,1.11-7.8.37.14c2.19.85,2.55,2.55,2.75,6.1a12.09,12.09,0,0,0,1,5.26,3.92,3.92,0,0,0,2.11,1.93,10.67,10.67,0,0,0,2.21.54l.24-1.67-.28-.1C904.65,814.12,904.07,813.35,903.89,811.27Zm-5.14-10.48a7.84,7.84,0,0,1-.78-.33l1.29-9.05h0l1,.38c2.11.8,3,2.82,2.59,5.66C902.39,800.65,901.08,801.69,898.75,800.79Z"/>
    <path d="M919,816.29l-.3.53-5.16-.57q.15-4.65.28-9.28l2.89.33.3.53c0,.87.09,1.73.14,2.59l1.31.15q.13-4.14.25-8.28l-1.31-.14-.3,2.54c-.11.16-.22.31-.32.47l-2.89-.33c.08-2.83.17-5.66.25-8.49l4.42.49.28.5.24,3.18,1.55.16c.06-1.86.12-3.73.17-5.6q-5.6-.6-11.2-1.27c0,.58,0,1.17-.05,1.75l1.35.34.34.54-.57,19-.37.53-1.36,0c0,.58,0,1.16,0,1.74h0q6,.74,11.93,1.36.09-3.2.19-6.38l-1.51-.17C919.31,813.79,919.15,815,919,816.29Z"/>
    <polygon points="929.84 798.26 929.84 798.26 929.84 798.26 929.84 798.26"/>
    <path d="M929.8,804.59l1.57.07.39-3.82.37-.45,2.74.1q-.06,9.72-.13,19.45l-.39.56-1.48.12c0,.59,0,1.17,0,1.76q3.4.12,6.82.21c0-.58,0-1.17,0-1.75l-1.48-.22-.39-.58q.06-9.74.13-19.46l2.74.08.34.47.36,3.84,1.57,0q0-3.16,0-6.33-6.57-.13-13.16-.4C929.83,800.38,929.81,802.48,929.8,804.59Z"/>
    <path d="M958.68,820.72c-.12-.18-.24-.37-.37-.55q-.1-9.49-.22-19l.35-.58,1.33-.24,0-1.75c-2.14.09-4.29.18-6.43.25,0,.59,0,1.17,0,1.75l1.37.13c.12.19.23.38.35.56l.09,7.83q-3.28.14-6.59.22l-.09-7.83.36-.58,1.36-.22c0-.59,0-1.17,0-1.75-2.15.06-4.3.12-6.45.16,0,.59,0,1.17,0,1.76l1.32.15c.13.18.25.37.37.56q.12,9.49.23,19l-.36.58-1.32.2c0,.59,0,1.17,0,1.76,2.15,0,4.31-.11,6.46-.18,0-.58,0-1.16,0-1.75l-1.37-.13c-.13-.19-.25-.38-.38-.56,0-3-.07-6-.1-9l6.59-.22c0,3,.07,6,.11,9l-.34.58-1.36.23c0,.58,0,1.17,0,1.75,2.14-.08,4.29-.16,6.43-.26,0-.58,0-1.16,0-1.75Z"/>
    <path d="M972.16,814.28c0,1.28-.11,2.55-.16,3.83l-.27.62-5.27.88-.54-9.25,3-.49.34.45.38,2.52,1.34-.22-.48-8.25-1.34.22-.08,2.6-.29.55-3,.48c-.17-2.82-.33-5.64-.5-8.46l4.53-.74c.1.14.21.27.32.41.17,1,.35,2.05.52,3.07l1.59-.27c-.11-1.86-.21-3.72-.32-5.58q-5.73,1-11.46,1.85c0,.59.07,1.17.1,1.75l1.4,0,.39.44,1.11,19-.33.62-1.38.4c0,.58.07,1.16.11,1.74h0q6.11-.95,12.2-2c-.12-2.12-.25-4.24-.37-6.36Z"/>
    <path d="M997.08,811.07c-1.6.52-2.38.23-3.09-1.54-.65-1.6-1-3.43-2-4.74a3.24,3.24,0,0,0-2.76-1.38,7,7,0,0,0,3.47-7.29c-.42-3.89-2.57-5.38-6.28-4.23q-3.65,1.13-7.29,2.2h0c.07.57.13,1.15.19,1.72l1.43-.24.44.37q1,9.36,2,18.71c-.11.22-.21.45-.32.68l-1.4.6c.07.57.13,1.14.19,1.72,2.25-.68,4.51-1.37,6.76-2.07-.06-.57-.13-1.15-.19-1.72l-1.48.28-.44-.44q-.43-3.94-.86-7.89l.41-.13c2.42-.74,3.2.57,4.31,3.66.56,1.56,1,3.07,2.35,4.08a2.86,2.86,0,0,0,2.61.29,14.13,14.13,0,0,0,2.37-1.06c-.06-.56-.13-1.12-.19-1.68Zm-10.91-7.53a8.19,8.19,0,0,1-.86.23c-.33-3-.67-6.1-1-9.16l1.11-.33c2.32-.71,3.72.51,4,3.39C989.8,800.89,988.74,802.75,986.17,803.54Z"/>
    <path d="M1004.4,806.87l-.48-.33q-1.89-9-3.76-17.93l.27-.67,1.52-1c-.12-.55-.23-1.1-.35-1.65q-3.47,1.89-6.93,3.72c.12.55.23,1.1.35,1.66l1.56-.65.47.27q1.88,9,3.76,17.94c-.09.25-.17.5-.26.74l-1.5,1c.12.55.24,1.1.35,1.64q3.47-1.86,6.93-3.77c-.11-.55-.23-1.1-.34-1.64Z"/>
    <path d="M1020.94,788.37l-.33-1.64c-2.26,1.29-4.53,2.57-6.79,3.84h0l.33,1.64,1.75-.8.47.26q.69,3.44,1.37,6.85c-.59.4-1,.69-1.26.82-3.58,2-6.47-.31-7.68-6.36-1.18-5.89.26-10.55,3.72-12.48a3.86,3.86,0,0,1,2-.54l.47.41,1.16,3.3,1.69-.95-1.14-5.7a14.11,14.11,0,0,0-5.13,1.63c-5.16,2.87-7.57,9.27-6.19,16.18s5.68,10,10.56,7.29a18.14,18.14,0,0,0,4.94-4.33q-.79-3.9-1.57-7.8l.27-.68Z"/>
    <path d="M1037.91,782.19l-.51-.17q-2.82-8.07-5.62-16.18l.18-.8,1.2-1.29-.52-1.5c-2,1.85-4.07,3.68-6.11,5.51l.52,1.5,1.35-1,.5.2,2.31,6.69q-3.12,2.83-6.26,5.62-1.15-3.35-2.32-6.71l.18-.8c.42-.44.83-.88,1.25-1.31-.17-.51-.34-1-.52-1.51-2,1.82-4.09,3.63-6.13,5.43h0c.17.5.34,1,.52,1.51l1.31-1,.51.19,5.62,16.29-.18.8L1024,795c.17.5.34,1,.52,1.5,2-1.82,4.09-3.66,6.13-5.5l-.52-1.5-1.35,1-.52-.18c-.89-2.56-1.77-5.14-2.66-7.71q3.12-2.79,6.26-5.63l2.67,7.69c-.06.26-.11.52-.16.78l-1.25,1.33c.17.5.35,1,.52,1.49,2-1.84,4.07-3.7,6.11-5.57-.17-.5-.34-1-.52-1.49Z"/>
    <path d="M1048,770.63l-.55-.08q-3.27-7.83-6.54-15.69l2.5-2.66.47,0c.54.91,1.09,1.81,1.64,2.71l1.44-1.54-2.13-5.1q-6,6.42-12,12.71h0l2.13,5.15,1.44-1.51c-.32-1.16-.64-2.31-.95-3.46l.17-.73c.84-.87,1.67-1.75,2.5-2.63q3.27,7.88,6.55,15.72c-.06.28-.11.56-.17.84l-1.29,1.59.59,1.41q3.12-3.31,6.23-6.67l-.59-1.41Z"/>
    <path d="M826.45,262.18l-.93,260C825.17,620.43,855.05,687,885,726.57c30,40,60,53,60,52.93h0c0-.1,30-12.91,60-53.76,30-40.3,59.83-108.62,59.48-207q-.46-129.23-.92-258.46C984.53,275.36,905.49,272.78,826.45,262.18Z" style="fill: #0072c4"/>
    <path d="M823.32,257.16q-.48,132.29-1,264.57C822,625.13,855.11,693,883,729.94c30.13,40.25,59.92,53.48,61.17,54l.91.39.9-.39c1.25-.55,31-13.85,61.15-54.83,27.84-37.46,60.94-107.55,60.57-211q-.47-131.52-.94-263C985.58,271,904.45,268.25,823.32,257.16Zm220.08,385c-9.65,29.8-23.18,57-40.19,80-26.3,35.72-53,50-58.21,52.51-5.2-2.44-31.88-16.6-58.14-51.66-17-22.66-30.56-49.28-40.22-78.59-12.08-36.68-18.12-77.76-18-121.79q.47-127.71.91-255.43c77,10.11,153.91,12.5,230.86-1.76q.46,126.95.91,253.89C1061.51,563.32,1055.47,604.84,1043.4,642.13Z" style="fill: #fff"/>
    <path d="M1023.2,360.37c-1.08-3.5-1.6-6.78-3-9.54a37.51,37.51,0,0,0-4-7.93c-1.14-2.24-3.46-3.81-5-4.81-2-.63-3-1.92-5-2.57-1.52-1.44-4.3-1.79-6.47-2.49q-4.24.33-8.47.62c-2.7.21-4.76,1.06-7.47,1.21a36.36,36.36,0,0,1-7,1.1,24.47,24.47,0,0,0-7-.49c-2.33.08-4.65.14-7,.2l-7,.12c-2.44,0-4.82.12-7-.7a25.26,25.26,0,0,1-7-.77,63.59,63.59,0,0,0-7-.83c-2.15-.86-4.53-.85-7-.91a16.82,16.82,0,0,0-6-.3c-3.46.35-5.57-1.32-7.71-3.5a46.78,46.78,0,0,1-5-5.55c-1.42-1.62-2-3.9-3.48-5.49-1.6-2.67-3.42-3.77-5.48-5.63-1.87-.89-3.37-2.81-5-4.11-2-1.79-2.76-3.62-4-5.9a20.13,20.13,0,0,0-6-5.76c-2.22-.78-3.79-3.47-6.27-3.68-2.29-.19-4.89-.46-6.47.21-2.44.34-3,1.74-5.48,2.53-1.73.89-3.49,2.07-5.47,3.26,0,4-.33,6.45-.5,9.84a13.86,13.86,0,0,1-4.48,4.86c-1.28.79-4.07,1.41-5.48,2.44-1.89,1.08-3.61,2.79-5.48,3.94a29.61,29.61,0,0,1-3,3.45h0c-2,3.73-2,2.18-2,5.08.1,3.88.69,6,1,10,1,2,2.1,4.35,3,6.44a22.63,22.63,0,0,0,5,3.62c2.06,1.51,4.64,2.19,6.47,3,2.62-.2,4.71-.95,6-3.18,1.75.84,1.84,2.06,3,4.85a33.58,33.58,0,0,1,1,9.22c.5,2.37.64,6.88,1,10v10.65a68.58,68.58,0,0,1,.5,10.69c.6,3.54,1.22,6.87,1.5,10a56.21,56.21,0,0,1,1.49,9.27,48.73,48.73,0,0,1,1.49,9.26c.78,3.27,1,7.63,2,10.06.69,3.35,1.94,4.53,3.48,7.14a22.43,22.43,0,0,0,5,4.21,13.78,13.78,0,0,1,4.48,5.67c1.15,2.22,3.71,3.8,5.48,4.95,2.52,1.27,3.06,2.7,4,5.58.39,2.72,1.56,6.3,1.56,10-.77,3.46-.62,6-.65,9.85,0,4.28-1.1,7.1.09,10.65,0,2-.25,2.89,0,3a8.48,8.48,0,0,0,4-5.09,9.35,9.35,0,0,0,3-5.91c1.12-2,1-5.09,1-9.07,1.37-2,2.5-2.07,3,.91,0,4.09-.54,6-1,9.83.77,2.43,2.13,4.83,3,7,2.05,1.55,2.81,2.21,3-2.91a39.75,39.75,0,0,1,1.5-9.06c.6-2.73,1.46-4.58,2-7.52.91-3.06,1.28-7.32,2-9.81,1.67-1.6,3.92-4.61,5.48-5.91,2-1.88,3-2.19,6-2.12a38,38,0,0,1,7,2.39A20.21,20.21,0,0,0,944,457.5c2.38,0,4.89.31,7-.77,2.84-.17,4.71.32,5.48-.05,2.62.19,3.39-2.33,6.47-2.4,2.32-.06,4.65-.12,7-.2,2.88-.1,3.56-4,6-3.27,1.27,1.27,3.85,1.28,5.48,2a50.73,50.73,0,0,0,2.49,8.23c1,3.32,1.93,4.35,3,6.67-.81,2.67-1.43,4.67-2.49,7.75-.88,3.72-2.09,4.3-3.49,7.79.72,1.66,2.13,3.64,3,5.16,2.47-.64,3.66-1.32,4.48-4.82,1.73-1.93,2.5-4.65,4-6.34.49-2.81,1.52-5.38,2-8.5V458.14c0-4.22.28-3.82,3-4s4.57.11,6,1.81c3,.06,3.73-.06,4,4.21.84,2.09,1.22,5.49,1.5,9,.45,3.8.83,6.24,2,8.17.59,3,2,3.73,3.49,1.93,1.93-.2,1.78.55,1-.86a28.86,28.86,0,0,1-1.49-8.21c-.55-3.26-.74-6.88-1-9.78,0-3.81.5-5.88-1.49-6.7-.19-.61.43-2.12,1.49-3.19a25.22,25.22,0,0,1,4-6.49c1.12-4.33,2.28-8.34,3.48-11.79.3-3.87.82-6.49,1-10V411.54a57.76,57.76,0,0,1,1-9.24,85.19,85.19,0,0,0,1-10c.8-3.41.92-7.29,1.49-10.82a66.7,66.7,0,0,0-.5-10.59A64.14,64.14,0,0,0,1023.2,360.37Z" style="fill: #bcbcbc"/>
    <path d="M996.64,365.82c.82.55,1.51,1,2,1.23C996.81,365.22,995.12,364.39,996.64,365.82Z" style="fill: #fefefe"/>
    <path d="M1004.44,349.61l-.08-.11C1004.51,349.78,1004.52,349.78,1004.44,349.61Z" style="fill: #fefefe"/>
    <path d="M1012.81,421.19q-.1,2.94-.24,5.88C1012.76,424,1012.92,419.5,1012.81,421.19Z" style="fill: #fefefe"/>
    <path d="M900.6,330.8c-.26,1.58-1.57,4.2-3.15,7C899.22,336.79,900.47,334.82,900.6,330.8Z" style="fill: #fefefe"/>
    <path d="M1002.36,346.29c.31.4.6.84.87,1.25a.19.19,0,0,1,0-.16l.7,1.39c.22.39.38.68.46.84,1.85,2.6,5.29,6.85,6.16,9.71,1.84,9.89-5.9-1.92-7.47-.85,2.8,7.83-2.21,2.86-4.29.47-3.34-5.24-5-13.89-10.45-15.28-2,2.74,5,7.83,6.48,11.5,1.62,1.9,6.08,13.41,3.28,11.95-.69-.55-1.18-1-1.51-1.29-3.2-2.16-8.32-6.5-10.28-11.58-4.26-7.1-1.8,2.16,1.21,4.4.27,3.62,4.7,17.43-.35,14-5.31-5.57-6.76-15.14-10.69-22.25-1.34,1.4,1.75,11.7,1.17,16.77,1,9.28-2.71,2.37-4.22-1.91-3.75-2.44-2-14.57-4.92-14.34-1.46,6.51-1.59,1.29-2.82-2.07-1.74,5.36-.78,11.28-1.11,16.93.4,10.34-3.36-1.46-4.24-5.48.46-6.27-1.65-5.74-2.3-.13-.39,11.78-5.25-.88-5-5.83,2.12-6.9-6.43-11.5-6-3.71,2,6.59,3.35,16.85.35,23.75.82-9-5.87-15-4.85-24.38-1.48-7.19-3.18-.68-3.6,3.37.37,8-1.49,13-4.86,18.72-3.12,7.39-2.4-2.3-3.14-5.8-1.94-12.4-.82,5.61-2.74,9-2.5-4.45-2.67-14.47-2.54-21.2,1.7-7.76-1.58.16-2.2,1.83,2.26-5.27,2.68-5.09,0,.08-.15.35-.13.26,0-.08-.12.28-.24.56-.36.87-3.22,10.37-2.76-2.82-3.18-7.69-.15-6.47-.8-.31-1,2.21a.13.13,0,0,0,0-.06c.5-6,.71-4.41.11-.08-.19,1.66-.2,1.25-.12.14-.64,3.3-.4,19.18-3.36,10.72-1.42-2.19-1.14-16.33-1.89-9.56-.12,10.75-4.79-3.29-2.91-7.94.1-8.34-.13,1.78-1.06,4.2-2.6-5.14-1.8-10.58-.71-16.16-6,2.78-9.78,10.49-12.77,18.12-1.38,7.56-10,1.51-4.2-3.44,1.39-2.63,3.56-6.17,5.37-9.42-3.2,1.89-8.07.72-11,3.19-4,4.51-10.88,11.41-14,12.65h0c1.37.23,2.8,0,4.13.68,6.35-1.06,2.25,6.95-1.87,5.31-6.06-.81,1,4.06,3.57,3.12,3.5-.29,11.18.81,5.64,6.41,6.44,4.78,11.85-2.2,17-6.23,1.7,2.56-5.27,9.12-7.27,12-3.31,6.18-8,5.33-12.59,4.82-2.39,2.74,3.07,2.11,4.46,2.37.2,5.41-13.83,2-8.13,10.64,5.71,1.15,11.64,2.23,17.18,0,4.37-2,.58,2.94-.58,4.72,1.86,4.33,7.65-2.53,11-2.76,2.23,7.25-6.76,7.35-9.7,11.21,3,.81,12.85,1.37,16.3-6.05,4.14-5.07,5.66,3.46,2.27,6.65-4.13,4.68-9.51,9.62-14.58,9.75-6.63-6.89-8.64,5.62-13.4,9.46-5.08,7.05,3.31,6.36,6.81,5.74,6.17,2.53,9.78-8.07,15.41-2.05,5,6.06,1.17-13.06,5.25-9-1.59-8.79,6.18-5.72,6.45.91.63,6.05,3.36,4.55,2.7-.84.31-4.55-.11-8.86-2.43-12.38-1.85-8.11,7.59-4.86,6,2.65,2.15,11.93.61-13.17,3.89-8.09,3.29,6,1.3,17.35,6.15,21.06,3.82-2.44,7.87,6.92,10.06,3.27,4.13-6.63.5-16.93,1-25.05,3-4.4,4.12,4.84,3.1,8.44.19,6.26-.41,12.7.34,18.84,1.77-1.25,3.34-9.34,3.88-13.6.31-5.61-2.16-15.43,4.23-13.93-.34,6.57,1.49,10.43,4.93,13.87,4.26,7-1.51-11.21,3.87-6.55,1.2,2.11,4.86,17.94,4.58,9.94,1.28-8.25-1-15.66-1.09-23.7,2.78-1.93,5.57,8,6,12.45,1.94-.18-3.1-13.93-1.63-13.73,5.32,3.23,8.07,10.85,9.78,18.55,2.46,9.35-.37-5.14-.78-8.53a209,209,0,0,1,7.75,22.1,69.45,69.45,0,0,0-1.32-15.65c-1.49-11.32,3.89-.8,5.46,3.56,3.71,5.48,5.07,12.82,7.19,19.69.77,5.9,1.54.14,3-2,4.3-7.59-1.08-15.65-1.09-23.81,1.37-8.45,3,5.35,3.44,8.07,2.08.56,3.61,15.24,3.76,9.15.12-2.17.18-3.39.23-3.95.11-3.48.17-7,.11-10.44-.31-11,2.33-22.83-1.18-33-2-7,2.17-.13,2.39,3.31,4.76,1.53-1.28-13.48,3.08-11.23,2.07,9.23.54-5,0-7.92C1013,356.18,1009.07,346.81,1002.36,346.29Z" style="fill: #fefefe"/>
    <path d="M1003.28,347.38a.19.19,0,0,0,0,.16c.29.45.55.88.75,1.23Z" style="fill: #fefefe"/>
    <path d="M923.51,356c2.67-5.17,2.25-5.35,0-.08C923.38,356.27,923.36,356.36,923.51,356Z" style="fill: #fefefe"/>
    <path d="M919.1,351.18c.6-4.33.39-5.93-.11.08a.13.13,0,0,1,0,.06C918.9,352.43,918.92,352.84,919.1,351.18Z" style="fill: #fefefe"/>
    <path d="M1003.23,347.54a6.35,6.35,0,0,0,1.13,2l-.38-.73C1003.78,348.42,1003.52,348,1003.23,347.54Z" style="fill: #fefefe"/>
    <path d="M893.91,312.35a5.63,5.63,0,0,0,.35.93C894.32,312.25,894.21,311.57,893.91,312.35Z" style="fill: #fefefe"/>
    <path d="M899.45,311.51a34.65,34.65,0,0,1-6-5.92c-1.51-2.87-3.15-5.66-5.37-7.41-2.46-1.8-5-3.41-7.46-5.17a15.4,15.4,0,0,0-9.31.28c-2.74,1.73-5.65,2.83-8.33,4.71-2.18,1.61-.82,7.18-1.59,10.5-1.56,2.66-3.64,4.75-6,5.56-3.45.85-6.35,3.55-9.4,5.68-1.7,2.12-3.53,4-4.86,6.63-.45,3.91.64,7.95.88,11.9h0c1.16,2.11,2.9,3.6,3.8,6-1.7,1.08,1.35.23,2.36.73,1.73-.88,3.63.48,5.16-.4.89-4.37-3.1-4.62-5.06-5.42-2.63-.6.16-2.5,1.38-2.11,2.56,0,4.82,2.34,7.33,2.74,1.87.68,5.8,0,3.79-3.73-2.18-.74-4.41-.39-6.58-.35a5.42,5.42,0,0,1-4.54-5.69c1.88-1.69,4.51,3.4,6.4-.06,1.9-3.23,4.93-1.26,5.91,2.63a6.68,6.68,0,0,0,6,1.31c-.87-3.56,2.27-3.18,3.8-3,2.8-1.43,1.14,2.05,1.08,4.39-1.3,4.24,2.54.8,2.16-1.8-.81-3.85,4.75-4.1,2.46-.33-.26,2.53-2.78,4.95-2.36,6.65a8.42,8.42,0,0,0,6.34-.57c3.11-.22,2.49-6,5.68-6a12.62,12.62,0,0,0,6.31-2.15,7.3,7.3,0,0,0,3.19-8.07c-2.37-1.87-5.24-2.73-7.79-1.63-1.87.14-4,2.15-5.61-.18-1.19-1.44-5-2.9-3.17-5.54,2.19-2.26,5-1.28,7.52-.61,3.39,1.73.15-3.88,1.71-6.27.52-2.89,1.53-.61,1.23,1.23.34,2.23.27,8,2.59,6.65.76,0,1.17-2,1.26-3.36a5.63,5.63,0,0,1-.35-.93c.3-.78.41-.1.35.93,1.25,2.76,4.62,5.82,5.26,1.53C900.61,315,901.17,311.78,899.45,311.51Z" style="fill: #fefefe"/>
    <path d="M851,323.55a40.48,40.48,0,0,0-4.23,3.82c-.81.85-.8,1.26-1.76,1.41a6.85,6.85,0,0,0,3.87-1.71c1.83-.11,3.6-.48,4.58-1.64.92-.36-.07-2.61-.35-3.8A13.4,13.4,0,0,0,851,323.55Z" style="fill: #bcbcbc"/>
    <path d="M871,297.1c0,1.45.11.51-1.76.91.2,0,.61,1.74,1.4,2.82a26.27,26.27,0,0,1,1.06,6c.43-2.59,1.17-4.63,1.41-7.4C872.59,298,872.55,297.31,871,297.1Z" style="fill: #bcbcbc"/>
    <path d="M875.6,299.66v0Z" style="fill: #bcbcbc"/>
    <path d="M875.6,299.19v-.07h0Z" style="fill: #bcbcbc"/>
    <path d="M875.64,299.13c0,.36.13,1.27.32,2.71a21.32,21.32,0,0,1,.7,6.51,10.73,10.73,0,0,0,2.11-4.66C878.77,299.46,878.38,299.66,875.64,299.13Z" style="fill: #bcbcbc"/>
    <path d="M875.6,299.12h0C875.61,298.88,875.61,298.9,875.6,299.12Z" style="fill: #bcbcbc"/>
    <path d="M889,362l-.32,0Z" style="fill: #bcbcbc"/>
    <path d="M898.84,353.53a12.56,12.56,0,0,0-4.57,3.47c-1.69.61-2.67,2.36-3.88,3.5-1.62,1.37-2.26,1.44-1.73,1.49l.32,0-.32,0h0c2.43,2.32,2.66,2.55,4.58,1.39.41-1.85,1.67-1.81,2.82-2.5a8.65,8.65,0,0,0,3.16-3c1.55-1.09,1.86-2.08,2.12-4.71C900.39,352,899.67,353,898.84,353.53Z" style="fill: #bcbcbc"/>
    <path d="M908.7,356.76c-1.12,2-1.84,3.47-2.82,5.23-.82,2-2.14,3.49-3.17,5.74a20.79,20.79,0,0,0-3.52,5.17c-1,1.23-3.24,4.45-3.87,5.14,1.92,2.11,1.46,2.36,2.46,1.77a29.79,29.79,0,0,0,3.17-2.5,25,25,0,0,1,3.88-3c1.77-1,2.37-2.27,3.17-4.14a14.68,14.68,0,0,0,1-6.4C908.55,362.22,908.7,359.11,908.7,356.76Z" style="fill: #bcbcbc"/>
    <path d="M889,391l-1-.05Z" style="fill: #bcbcbc"/>
    <path d="M884.76,389.65l-.32,0Z" style="fill: #bcbcbc"/>
    <path d="M888,391l1,.05-2.81-1.28A1.76,1.76,0,0,0,888,391Z" style="fill: #bcbcbc"/>
    <path d="M895,382.85a7.93,7.93,0,0,1-4.23,1.33,11.55,11.55,0,0,0-4.57,4c-1.62,1.36-2.27,1.43-1.73,1.48l.32,0-.32,0h0A6.72,6.72,0,0,0,888,391a1.76,1.76,0,0,1-1.83-1.23L889,391c1.61-.32,3.35-.27,4.23-1.31a8.81,8.81,0,0,0,3.52-2.46c1.76-1.27,1.46-1.93.35-4.28C896.41,381.93,895.82,382.68,895,382.85Z" style="fill: #bcbcbc"/>
    <path d="M899.55,390.67h0v0Z" style="fill: #bcbcbc"/>
    <path d="M899.6,390.74l-.05-.07C899.55,390.89,899.56,390.91,899.6,390.74Z" style="fill: #bcbcbc"/>
    <path d="M903.77,382.84c-1.7.62-2.2,2.25-3.52,5.18-.4,1.5-.57,2.41-.65,2.72,1.76,2.13,1.08,2.14,2.41,2.22,1.62-.36,2.07-1.43,3.17-2.51.75-1.38,2-2.73,2.46-4.71.15-1.88.64-3.73,0-5.38C906,381.11,904.57,381.41,903.77,382.84Z" style="fill: #bcbcbc"/>
    <path d="M899.55,390.6v0Z" style="fill: #bcbcbc"/>
    <path d="M870,319c-1.86-.63-2.39-1.75-3.87-2.51-.9-1.79-1.76-2.65-3.52-3a8.81,8.81,0,0,0-2.12,4.09c-.72.34-2.9,1.31-2.11,1.39h0c1.19,3.47.81,3.31,3.17,3.55a7.78,7.78,0,0,1,4.22-1.19c1.74.17,3.13.11,4.23-.67C871.59,320.19,870.66,320,870,319Z" style="fill: #c4c4c2"/>
    <path d="M870.89,318.81a4.6,4.6,0,0,1-.45-.5l-.15-.21-.2-.07a6.1,6.1,0,0,1-2.13-1.31,9.23,9.23,0,0,0-1.44-1.05,5.33,5.33,0,0,0-3.89-3.21l-.26-.06-.21.2a9.11,9.11,0,0,0-2.23,4.11c-1.93.9-2.59,1.21-2.45,2.3a1.3,1.3,0,0,0,.38.79c.09.26.16.49.23.71.85,2.57,1.09,2.82,3.14,3h0l.4,0,.15-.09a7.3,7.3,0,0,1,3.91-1.12c1.81.18,3.27.12,4.49-.71.63-.19,1.25-.4,1.34-1.27A1.8,1.8,0,0,0,870.89,318.81Zm-5.2,1.48a8.36,8.36,0,0,0-4.34,1.18h-.07c-1.39-.14-1.38-.14-1.91-1.75,0-.13-.09-.27-.14-.41.45-.24,1-.51,1.29-.63l.47-.22.12-.38a8.75,8.75,0,0,1,1.67-3.48,3.93,3.93,0,0,1,2.75,2.51l.14.29.23.12a7,7,0,0,1,1.41,1,7.75,7.75,0,0,0,2.06,1.37A6.31,6.31,0,0,1,865.69,320.29Z"/>
    <path d="M863.28,315.18c-1-.1-1.76,1-1.76,2.51s.79,2.76,1.76,2.86,1.76-1,1.76-2.51S864.25,315.27,863.28,315.18Z"/>
    <path d="M869.27,468.45Z" style="fill: #005121"/>
    <polygon points="869.27 468.45 869.27 468.45 869.27 468.45 869.27 468.45" style="fill: #005121"/>
    <path d="M869.27,469.55v-1.1C868.27,468.38,868.32,468.56,869.27,469.55Z" style="fill: #005121"/>
    <path d="M869.31,468.45l1.36.13Z" style="fill: #005121"/>
    <path d="M1031.23,471.14c-3.92,3.92-1.89,2.71-8.45,3.21-4.29,6.38-5.39,3.13-8.45-1.22-1.87,6.41-2.36,6.71-8.45,7.27-6.06-.35-4.61.06-9.86,3-2.7-3.93-.71-10.58-4.23-4-7.09,5.67-9.26,4.56-15.49.84-2.91,2-5.87,5.25-7-1.88-6.93,2.87-12.19,2.36-16.9-1.81-2.65,2.19-4,8.58-7,4.32-2.18-7.25-2.46-7.92-5.64,0-.74,8.75-4.4-.29-8.28-2-5.23,3.88-7.07,10-11.27,1.84-6.75,2.14-6.64,11.4-12.84,10-2.3-3.64-1.37,5.87-4.22-2.37-2.36-2.84-6.92-2.55-11.27-2.86-3.81,7.14-4.52-1.11-5.63-9-2.31,3.74-2.75,7.86-4.23,4-2.57-6.84-2.53-6.3-5.63-2.62a84,84,0,0,0-7-8.13V483.5c2.54,6,3.27,15.66,5.63,22,2.56,4.42,2.65,11.6,5.63,15.53,3,5.53,8.25,11.08,11.27,15.9,4.45,2.58,11.81,2.91,18.31,3.21,5.81-1.43,12.69-2.72,16.9-5.83q9.86.27,19.71.26t19.72-.28q9.87-.27,19.72-.85c6.89-.4,13.61-.72,19.72-3.6,4.45-5.66,8.69-9.68,12.67-16.32,5.46-3.57,7.15-11.19,9.86-18.38,4.07-4.74,7.58-9.38,9.86-18.55C1034.8,473.38,1034.13,480.55,1031.23,471.14Z" style="fill: #005121"/>
    <path d="M1035,474.55c-.86.32-1.39.53-2.82-4.12-.15-.5-.3-1-.46-1.5l-1,1-1.21,1.23c-1.45,1.5-1.45,1.5-3.25,1.54-.8,0-1.88,0-3.44.16l-.42,0-.31.46c-1.37,2-2.36,3-3.14,3.09s-1.72-1.22-2.9-3c-.31-.46-.63-.94-1-1.43l-1-1.51c-.21.71-.41,1.41-.62,2.11-1.63,5.62-1.66,5.74-7.41,6.28-4.69-.26-5.11-.11-7.51,1.4-.55.36-1.22.78-2.11,1.28a12.82,12.82,0,0,1-1-3.67c-.2-1.26-.42-2.57-1.32-2.81s-1.64.76-2.9,3.09c-6.62,5.25-8.46,4.17-14.43.62l-.41-.25-.42.29c-.34.23-.68.49-1,.74-1.32,1-2.68,2-3.42,1.49s-1-1.94-1.19-3.16l-.24-1.47-1,.42c-6.73,2.79-11.7,2.25-16.11-1.65l-.51-.45-.52.43a13.3,13.3,0,0,0-2.48,3.2c-.75,1.19-1.46,2.33-2.07,2.36-.37,0-.7-.27-1.15-.83-1.19-4-1.88-6.18-3.24-6.3s-2.28,1.86-4.12,6.39l-.1.27,0,.3a5.73,5.73,0,0,1-.48,2.46c-.39.1-1.63-1.3-2.37-2.13a14.32,14.32,0,0,0-4.14-3.59l-.39-.18-.36.27a30.26,30.26,0,0,0-3.56,3.24c-2.92,3-3.9,4-6.43-.95l-.41-.78-.64.2c-3.44,1.1-5.22,3.82-6.8,6.22s-2.77,4.24-5.34,3.8a1.94,1.94,0,0,0-1.56-1c-.72.08-1.14.84-1.41,1.44-.18-.4-.45-1-.81-2.09,0-.1-.07-.2-.1-.3l-.18-.21c-2.29-2.76-6-2.9-10-3.1l-1.9-.1-.51,0-.3.57c-1.2,2.25-1.71,2.19-1.72,2.19-.72-.29-1.48-5.89-1.85-8.59-.22-1.62-.45-3.24-.68-4.87l-1.35,2.19a29.87,29.87,0,0,0-1.76,3.46c-.2.45-.44,1-.62,1.32l-.18-.44c-1.37-3.64-2.12-5.65-3.36-6.06-1.05-.35-1.87.58-3.18,2.15a78.94,78.94,0,0,0-5.62-6.48v-2.16l-.59-.06-.69-.06-1.14-.11v.19a1.19,1.19,0,0,0-.7,1,2.33,2.33,0,0,0,.7,2.19v13.61l.16.38c1.27,3,2.1,7.12,2.9,11.13a74.08,74.08,0,0,0,2.7,10.8l.13.28a27.41,27.41,0,0,1,2.29,6.79c.79,3.16,1.61,6.42,3.37,8.8a72.3,72.3,0,0,0,6.61,9.52c1.75,2.26,3.41,4.38,4.65,6.37l.17.27.23.14c4.2,2.43,10.81,2.94,16.83,3.23l.91.05.91,0,.2,0c1-.24,1.94-.47,2.93-.7,5.1-1.21,10.37-2.52,14-5.1,20.1.52,40.19.25,60.29-1,6.56-.38,12.77-.85,18.59-3.59l.22-.1.17-.22c1.46-1.86,2.92-3.57,4.33-5.22a79.3,79.3,0,0,0,8.28-11c4.66-3.19,6.74-9.2,8.76-15,.42-1.22.84-2.44,1.29-3.66a42,42,0,0,0,10-19.08l.27-1.09c-.2-.2-.41-.39-.62-.58A3.24,3.24,0,0,0,1035,474.55ZM1027.82,494l-.18.21-.11.3c-.51,1.34-1,2.7-1.44,4-2,5.63-3.81,10.95-7.89,13.61l-.23.15-.16.27a77.09,77.09,0,0,1-8.16,10.86c-1.38,1.61-2.8,3.26-4.24,5.08-5.51,2.54-11.52,3-17.87,3.36-20.26,1.22-40.52,1.48-60.78.94l-.22.16c-3.38,2.5-8.62,3.79-13.68,5l-2.85.68-.81,0c-6-.27-12.73-.69-16.84-2.94-1.3-2-2.93-4.12-4.65-6.33a68.37,68.37,0,0,1-6.39-9.19l-.13-.21c-1.41-1.84-2.11-4.64-2.85-7.61a31.25,31.25,0,0,0-2.6-7.62,73.7,73.7,0,0,1-2.48-10,68.19,68.19,0,0,0-3-11.53V472.39a81.39,81.39,0,0,1,5.37,6.37c.23.29.45.59.67.88l1.15-1.37a13.71,13.71,0,0,1,1.63-1.8c.37.28,1.29,2.71,2,4.5.4,1,1,2.28,1.9,2.38s1.64-1.2,2.39-2.86l.28-.61c.69,5,1.36,8.82,3.19,9.56,1.37.55,2.6-1.06,3.48-2.59l1.42.08c3.32.16,6.77.3,8.55,2.2,1,2.87,1.69,3.93,2.55,4s1.33-1,1.59-1.59l.06-.14a.77.77,0,0,0,.09.13l.25.4.35.08c3.84.9,5.66-1.89,7.42-4.58,1.34-2,2.72-4.15,5.17-5.17,3.5,6.22,6.08,3.61,8.8.84a31.58,31.58,0,0,1,2.94-2.74,15.76,15.76,0,0,1,3.1,2.91c1.62,1.8,3,3.35,4.39,2.52,1.16-.71,1.53-2.84,1.69-4.52a31,31,0,0,1,2.12-4.56,38.49,38.49,0,0,1,1.6,4.69l.08.28.15.21c.93,1.28,1.84,1.88,2.76,1.83,1.46-.08,2.5-1.73,3.5-3.33a16.07,16.07,0,0,1,1.51-2.16c4.55,3.74,9.6,4.35,16.17,1.87.45,1.89,1.12,3.1,2,3.68,1.63,1.08,3.43-.26,5.18-1.56l.57-.42c6.31,3.74,8.8,4.55,15.94-1.18l.2-.16.14-.25c.34-.65.6-1.1.8-1.43a13.77,13.77,0,0,0,1.89,5.63l.44.64.61-.33c1.29-.7,2.16-1.26,2.87-1.7,2-1.3,2.21-1.4,6.68-1.16,5.67-.51,7-1,8.73-6.14,1.43,2.12,2.57,3.77,4.25,3.68,1.28-.08,2.62-1.19,4.3-3.61,1.31-.09,2.25-.11,2.95-.13,2.34-.06,2.55-.15,4.46-2.13l.21-.21c1.51,4.35,2.67,4.8,4.53,4.1a1.76,1.76,0,0,1,1.7,0C1034.84,485.37,1031.68,489.52,1027.82,494Z" style="fill: #002b0e"/>
    <path d="M1003.06,500c1.17-4.57,1.85-7.82,2.25-9.74q-3.24,7.2-6.48,14.38C1001.13,503.59,1002.45,502.82,1003.06,500Z" style="fill: #005121"/>
    <path d="M1005.88,491.15v0Z" style="fill: #005121"/>
    <path d="M1005.31,490.26l.57-1.26C1005.86,487.61,1005.77,488,1005.31,490.26Z" style="fill: #005121"/>
    <path d="M1005.88,489v0Z" style="fill: #005121"/>
    <path d="M1006.9,488.91h0c0-1.43-.17-2.12-.92-2.22-1-.12-1.14.88-1.6,3.06-.4,1.93-1.08,5.17-2.28,9.88-.41,1.92-1.12,2.49-3.51,3.59l.51,2.84c2.12-1,4.13-1.91,4.92-5.61,1.08-4.23,1.75-7.31,2.17-9.33l.72-.06v-2.15Z" style="fill: #002b0e"/>
    <path d="M984.75,518.49q3.12-7.31,6.23-14.64C987.77,508.56,985.6,512.2,984.75,518.49Z" style="fill: #005121"/>
    <path d="M984.75,518.49q4.93-10,9.86-20c-1.32,2-2.54,3.73-3.63,5.34Q987.86,511.19,984.75,518.49Z" style="fill: #005121"/>
    <path d="M991,503.85c1.09-1.61,2.3-3.34,3.63-5.34l-1.41.1Z" style="fill: #005121"/>
    <path d="M993.2,498.54c-.63.94-1.24,1.82-1.81,2.66-3.85,5.59-6.64,9.6-7.64,17.05l1.82,1.08q4.9-9.92,9.81-19.9l1.71-2.59-3.89.28Z" style="fill: #002b0e"/>
    <path d="M973.48,488.91l-1.41,10.81C973.29,496.59,973.48,489.11,973.48,488.91Z" style="fill: #005121"/>
    <path d="M971.19,499l1.77,1.42c1.38-3.57,1.54-11.48,1.54-11.56l-2,.06C972.45,490.09,972.16,496.51,971.19,499Z" style="fill: #002b0e"/>
    <path d="M967.85,504.16v0Z" style="fill: #005121"/>
    <path d="M966.83,506.34l2-.06v-2.15l-2,.06Z" style="fill: #002b0e"/>
    <path d="M956.58,491.51l1.41,0Z" style="fill: #005121"/>
    <path d="M956.58,493l1.41,0v-3l-1.41,0Z" style="fill: #002b0e"/>
    <path d="M883.66,514.47a19.17,19.17,0,0,0,1.1,4.76C884.39,517.64,884,516.06,883.66,514.47Z" style="fill: #005121"/>
    <path d="M884.76,499.87c-3.6-4.2-6.37-11.26-7-11.32q3,13,5.95,25.92C883.16,509.68,884.09,504.51,884.76,499.87Z" style="fill: #005121"/>
    <path d="M885.89,499.34l-.52-.61a45.59,45.59,0,0,1-5.09-8.17c-1.31-2.49-1.8-3.43-2.57-3.49v3a.55.55,0,0,1-.38-.18,26.39,26.39,0,0,1,1.36,2.43,53.93,53.93,0,0,0,4.94,8.1l-.12.78c-.89,6-1.9,12.79.36,18.73l1.77-1.34c-1.88-4.92-1-10.86-.14-16.61Z" style="fill: #002b0e"/>
    <path d="M896,513.57h0Z" style="fill: #005121"/>
    <path d="M896,513.56h0l-5.33-8.5A47.78,47.78,0,0,0,896,513.56Z" style="fill: #005121"/>
    <path d="M896,515.72v-2.15h0C896,514.28,896,515,896,515.72Z" style="fill: #005121"/>
    <path d="M901.66,503.16a22.94,22.94,0,0,0,7-1c-3.28.07-6.55.11-9.83.14C900,505.44,901.16,507.64,901.66,503.16Z" style="fill: #005121"/>
    <path d="M918.56,497.51c-3.36,1.59-6.17,3.51-9.93,4.66q5.67-.12,11.34-.31C918.22,499.14,918.56,500.67,918.56,497.51Z" style="fill: #005121"/>
    <path d="M889,502.34c.57.91,1.14,1.81,1.7,2.72C889.84,503.47,889.25,502.36,889,502.34Z" style="fill: #005121"/>
    <path d="M896.4,502.33l2.4,0c-.46-1.21-.93-2.55-1.37-3.7A12.49,12.49,0,0,0,896.4,502.33Z" style="fill: #005121"/>
    <path d="M890.68,505.06l5.33,8.5a78.92,78.92,0,0,1,.39-11.23c-2.47,0-4.95,0-7.42,0C889.25,502.36,889.84,503.47,890.68,505.06Z" style="fill: #005121"/>
    <path d="M919.68,499.38l-.13-.17c0-.1,0-.22,0-.36,0-.32,0-.74,0-1.3v-2.1l-1.36.64c-1.17.56-2.28,1.15-3.36,1.73-3.73,2-7.26,3.87-13.24,3.85h-.84c0,.4-.08.8-.13,1.2s-.07.58-.11.79c-.49-1-1.16-2.82-1.6-4-.21-.59-.42-1.16-.62-1.7s-.53-1.38-.79-2.08l-.93,1.84c-1.41,2.8-1.62,7.2-1.62,12.06q-1.77-2.81-3.53-5.62c-1.24-2.34-1.73-3.22-2.47-3.28l-2.38-.17,3.31,5.3a.56.56,0,0,0,.05.08,52,52,0,0,0,5,8.17c0,.48,0,.95,0,1.43l2,.13v-2.9h0v0a63.22,63.22,0,0,1,.48-10.92c1.16,3.15,2.14,5.51,3.48,5.24.91-.17,1.31-1.44,1.51-2.53,5.85-.15,9.54-2.12,13.11-4l1.92-1a3.11,3.11,0,0,0,.79,1.94c.2.27.49.67.91,1.32l1.47-2C920.23,500.13,919.91,499.68,919.68,499.38Z" style="fill: #002b0e"/>
    <path d="M1010.1,505.81c2.35-5,4.39-12.11,7-15.77l-1.4.15Q1012.92,498,1010.1,505.81Z" style="fill: #005121"/>
    <path d="M1015.74,490.11a59.83,59.83,0,0,0-4,9c-.79,2-1.61,4.14-2.44,5.9l1.66,1.58c.88-1.88,1.72-4.05,2.53-6.15,1.37-3.54,2.79-7.2,4.35-9.36l2.05-2.84c-1.37.16-2.75.31-4.12.45Z" style="fill: #002b0e"/>
    <path d="M958,487.19c3.76-.06,7.51-.15,11.27-.28" style="fill: #005121"/>
    <path d="M958,488.67c3.76-.06,7.51-.15,11.27-.27v-3c-3.76.12-7.51.21-11.27.27Z" style="fill: #002b0e"/>
    <path d="M1024.07,499.15c-16.94,1.92-22.59,28.25-39.53,29.3-16.94.84-22.59-24.88-39.53-24.82-16.94-.12-22.59,25.55-39.53,24.74-16.94-1-22.59-27.26-39.53-28.83h0C849,497.83,843.4,523,826.46,520.81c-.32,0-.63-.13-1-.19v1.57a442.84,442.84,0,0,0,2.66,50.54c15.63.36,21.43-23.13,37.78-21.49,16.94,1.57,22.59,27.92,39.53,28.89,16.94.81,22.59-24.92,39.53-24.8C962,555.27,967.6,581,984.54,580.2c16.94-1.05,22.59-27.43,39.53-29.35,16.31-2.06,22.13,21,37.66,20a446.17,446.17,0,0,0,2.78-52.16v-.06c-.32.08-.63.18-1,.24C1046.62,522,1041,497,1024.07,499.15Z" style="fill: #fff"/>
    <path d="M984.54,629.35c-16.94.84-22.59-24.88-39.53-24.82-16.94-.12-22.59,25.56-39.53,24.74S882.89,602,866,600.44c-13.17-1.3-19.51,13.54-29.64,19.24a328.84,328.84,0,0,0,12.58,40.63c4.81-4.77,9.92-8.81,17.06-8.11,16.94,1.57,22.6,27.86,39.53,28.83,16.94.81,22.59-24.87,39.53-24.74,16.94-.06,22.59,25.65,39.53,24.81,16.94-1.05,22.59-27.37,39.53-29.29,7-.84,12,2.84,16.75,7.31a342.83,342.83,0,0,0,12.62-41c-10-5.36-16.32-19.7-29.37-18.09C1007.13,602,1001.48,628.3,984.54,629.35Z" style="fill: #fff"/>
    <path d="M945,705.44c-16.94-.13-22.59,25.61-39.53,24.79-16-.91-21.94-24.54-36.87-28.4,19.95,34.38,42.56,55.3,58,66.46,5.21-5.78,10.61,7.43,18.41,7.45s13.12-13.25,18.3-7.5c15.25-11.15,37.59-32.08,57.43-66.55-14.44,4.65-20.42,27.66-36.2,28.62C967.6,731.15,962,705.38,945,705.44Z" style="fill: #fff"/>
    <path d="M857.11,605.15c-.81-1.27-16.92,5-17.08,5l-.53.2q10.9,20.52,21.81,40.82,11.12-2.19,22.24-4.64l-.51-.78C882.79,645.44,857.56,606,857.11,605.15Zm4.5,44.79q-10.4-19.35-20.8-38.91c4-1.48,14.48-5.16,15.81-5h0c1.47,2.41,21.77,34.22,25.36,39.71Q871.79,647.94,861.61,649.94Z" style="fill: #522108"/>
    <path d="M890.38,664.63l.79.13c.38-8.65,11.64-58,11.75-58.47l-.75-.4C901.71,608,890.77,655.84,890.38,664.63Z" style="fill: #522108"/>
    <path d="M894.3,665.54l.79.11c.1-1.06,5.94-38.9,9-58.79l-.77-.3C900.62,624.13,894.3,665,894.3,665.54Z" style="fill: #522108"/>
    <path d="M897.4,665.73l.78.25c.39-3.26,7.43-58.49,7.5-59.06l-.77-.25C904.83,607.24,897.79,662.47,897.4,665.73Z" style="fill: #522108"/>
    <path d="M893.92,648.25v1.15c2,.14,5.86-1.79,6-1.88-.09-.36-.19-.72-.28-1.09C899.62,646.45,895.78,648.38,893.92,648.25Z" style="fill: #522108"/>
    <path d="M894.7,642.22l.51,0,.17.38a28.24,28.24,0,0,1,5.67-1.67l-.15-1.14C894.7,641.2,894.7,641.69,894.7,642.22Z" style="fill: #522108"/>
    <path d="M895.81,633.41c0,.38.09.76.14,1.14l6.28-1.29-.15-1.14Z" style="fill: #522108"/>
    <path d="M899,627l-.79-.05c0,.56,0,1.14,4.71,1.41v-1.15a14.87,14.87,0,0,1-4.06-.61A.54.54,0,0,1,899,627Z" style="fill: #522108"/>
    <path d="M946.37,604.44c.13.9,13.43,86.48,13.88,101.41l.78-.07c-.46-15-13.77-100.69-13.91-101.59Z" style="fill: #522108"/>
    <path d="M945,605.35c3.66,33.24,10.58,96.36,10.65,97.72l.39,0h.39c0-.95-9.57-87.92-10.66-97.86Z" style="fill: #522108"/>
    <path d="M943.12,605.33c.08.86,7.42,84.61,7.87,90.22l.77-.13c-.45-5.63-7.8-89.37-7.87-90.23Z" style="fill: #522108"/>
    <path d="M950.78,687.47c.07,0,6.91,3.74,9.15,6.44.16-.29.33-.58.5-.87-2.34-2.82-9.09-6.47-9.38-6.63Z" style="fill: #522108"/>
    <path d="M949.8,675.09c.19.16,4.75,3.85,7.14,3.81v-1.13c-2.19,0-6.72-3.63-6.76-3.67Z" style="fill: #522108"/>
    <path d="M948.7,662.66l-.21,1.09c3,1.21,6.37,2.84,6.71,3.42a.52.52,0,0,1,0-.21h.77C955.93,666.49,955.93,665.59,948.7,662.66Z" style="fill: #522108"/>
    <path d="M947.11,650.46q3.71,1.42,7.41,2.8c.07-.36.13-.73.2-1.09q-3.71-1.38-7.41-2.81C947.24,649.73,947.18,650.09,947.11,650.46Z" style="fill: #522108"/>
    <path d="M951.06,640.15c-.34.39-2.74.65-4.78.65v1.13c5.48,0,5.48-1,5.48-1.54H951A.46.46,0,0,1,951.06,640.15Z" style="fill: #522108"/>
    <path d="M945,631.45a26.65,26.65,0,0,1,5-1.88v-1.13c-1,0-4.78,1.74-5.21,1.93C944.86,630.73,944.93,631.09,945,631.45Z" style="fill: #522108"/>
    <path d="M989.14,659.86c.19.11,4.73,2.57,7.1,2.39v-1.13c-2.21.17-6.76-2.29-6.8-2.32Z" style="fill: #522108"/>
    <path d="M985.68,607.38c.13.68,13.42,63.56,13.88,74.6l.77-.13c-.46-11.18-13.36-72.2-13.91-74.84Z" style="fill: #522108"/>
    <path d="M984.28,608.12c3.64,24.45,10.54,70.89,10.65,72.1l.38-.07-.39,0,.39,0,.39,0c0-.7-8.16-55.46-10.66-72.28Z" style="fill: #522108"/>
    <path d="M982.42,608.2c.08.64,7.42,62.57,7.88,66.72l.76-.23c-.46-4.15-7.8-66.09-7.87-66.72Z" style="fill: #522108"/>
    <path d="M988,650.38c-.05.37-.11.74-.16,1.11,3,.74,6.35,1.72,6.72,2.14a.5.5,0,0,1-.08-.3l.77-.05C995.23,652.77,995.23,652.13,988,650.38Z" style="fill: #522108"/>
    <path d="M986.44,641.67q3.7.86,7.41,1.65l.15-1.12q-3.71-.8-7.41-1.64Z" style="fill: #522108"/>
    <path d="M990.4,633.46c-.34.32-2.77.66-4.82.78v1.13c5.49-.32,5.49-1.08,5.49-1.61l-.78,0A.58.58,0,0,1,990.4,633.46Z" style="fill: #522108"/>
    <path d="M984.28,627.65a38.6,38.6,0,0,1,5-1.7v-1.13a38.6,38.6,0,0,0-5.18,1.74Z" style="fill: #522108"/>
    <path d="M941.59,515s-1.39,176.79-1.39,177.5c-.47,1.41,4.17.74,4.63,0s.92-176.81.93-177.52S941.59,515,941.59,515Z" style="fill: #dd8b59"/>
    <path d="M946,514.53c-.36-.47-1.85-.48-4.44-.06l-.34.06v.5c-.06,7.12-1.36,172.5-1.39,177.4a1.16,1.16,0,0,0,.26,1.06,2.42,2.42,0,0,0,1.64.43c1.35,0,3-.42,3.4-1,.65-1,1-176.15,1-177.91l0-.36Zm-5.43,178.26-.35-.25.35.25Zm3.93-.56c-.63.44-3.29.79-3.9.4v-.09c0-.78,1.31-166.56,1.39-177a13.29,13.29,0,0,1,3.4-.19C945.35,523.46,944.9,685.42,944.48,692.23Z" style="fill: #522108"/>
    <path d="M981.42,676.84l3.24-5.83s.93-147.86.93-149.28h0l-3.24.18Z" style="fill: #dd8b59"/>
    <path d="M981,676.86v1.58c1.34-2.41,2.69-4.82,4-7.24V671c0-1.48.93-147.89.93-149.29v-.56l-4,.22Zm4.17-154.54c-.06,9.84-.89,142.45-.92,148.51l-2.46,4.42q.45-76.39.91-152.79Z" style="fill: #522108"/>
    <path d="M902.22,655.21l2.78,2.28h0c.46-4.23.46-132.23.46-132.23l-2.78-.86Z" style="fill: #dd8b59"/>
    <path d="M901.83,655.19v.34l3.47,2.84.08-.78c.46-4.21.47-127.08.47-132.31v-.48l-3.55-1.1Q902.06,589.44,901.83,655.19Zm1.24-130.1,2,.62c0,8.27,0,119.65-.41,130.86l-2-1.68Q902.84,590,903.07,525.09Z" style="fill: #522108"/>
    <path d="M887.4,608.27c.62,1.69,1.23,3.39,1.85,5.08q15.51-1.35,31-3.28c.16-2.59.31-5.18.47-7.77,0,.18-31.5,6.29-33.35,6Z" style="fill: #dd8b59"/>
    <path d="M887.4,607.7l-.65,0c.76,2.09,1.52,4.19,2.29,6.28q15.8-1.38,31.6-3.35.27-4.49.53-9l-.49.1C909.8,604.15,888.84,607.87,887.4,607.7Zm32.52,1.84q-15.23,1.9-30.45,3.23l-1.45-4c4.46-.3,28.4-4.89,32.3-5.83C920.19,605.16,920.05,607.35,919.92,609.54Z" style="fill: #522108"/>
    <polygon points="887.86 567.28 887.86 567.28 887.86 567.28 887.86 567.28" style="fill: #dd8b59"/>
    <path d="M887.86,567.28v5c0,.24,37-12.68,37.52-12.92.46,0,.46-4.94.46-4.94C925.84,554.61,889.71,568.37,887.86,567.28Z" style="fill: #dd8b59"/>
    <path d="M888,566.74l-.49-.22V573l.49-.16c12.61-4,36.65-12.68,37.42-12.92.31,0,.85,0,.85-5.49v-.76l-.5.2C911.35,559.71,889.44,567.29,888,566.74Zm37.32-8,.1,0Zm-.08,0c-2.31.8-26,9.28-37,12.74v-3.66c4.33-.11,32-10.49,37.2-12.75A24.37,24.37,0,0,1,925.2,558.78Z" style="fill: #522108"/>
    <path d="M919.82,535.79c-1.39.12-31,12.61-30.57,11.08h0a18.79,18.79,0,0,0,.46,6.4q15.06-6.71,30.11-13.94S921.21,535.84,919.82,535.79Z" style="fill: #dd8b59"/>
    <path d="M919.82,535.23c-.61,0-4.89,1.74-12.4,4.73-7.14,2.86-16.88,6.55-18,6.46h0c0,.13-.07.27-.1.4l-.37-.22-.1.39,0,0a19.94,19.94,0,0,0,.52,6.41c0,.18.09.35.14.52q15.22-6.78,30.46-14.1l.13-.07.07-.18c.24-.59,1-2.6.54-3.72A1,1,0,0,0,919.82,535.23Zm-.27,3.63Q904.76,546,890,552.57a18.45,18.45,0,0,1-.39-5.05c1.21-.08,5-1.28,18.09-6.47,5.7-2.26,11.59-4.69,12.17-4.69.07,0,.17,0,.2.09A5.55,5.55,0,0,1,919.55,538.86Z" style="fill: #522108"/>
    <path d="M929.08,538.89h0l2.78,4.3c0,.16,27.79-12.54,28.25-12.71.47,0,0-6.36,0-6.36C960.11,524.3,930,539.1,929.08,538.89Z" style="fill: #dd8b59"/>
    <path d="M960.45,523.35l-.46.23c-11.89,6.17-29.91,14.63-30.92,14.75l-.89,0,3.57,5.54.23-.1c7.57-3.23,27.39-12.41,28.13-12.69l.24-.06.11-.18c.32-.52.33-2.79,0-6.76Zm-.56,6.64c-2.24.94-19.87,9.11-27.92,12.56-.71-1.11-1.43-2.22-2.15-3.33,4.21-1.54,24.53-11.46,30-14.34A39.9,39.9,0,0,1,959.89,530Zm.11,0a.2.2,0,0,1,.11,0A.2.2,0,0,0,960,530Z" style="fill: #522108"/>
    <path d="M926.77,557.22s-.93,6.34-.47,6.36c.47.31,39.37-15.23,39.37-15.55v-4.24q-19.45,7.25-38.9,13.43Z" style="fill: #dd8b59"/>
    <path d="M926.39,557.1c-.88,6-.55,6.58-.45,6.78l.18.26h.18c.47.13,27.76-10.37,39.47-15.56l.29-.13v-5.38q-19.81,7.38-39.62,13.68C926.42,556.86,926.4,557,926.39,557.1Zm.7.6q19.1-6.11,38.19-13.19v3.1c-12.7,5.55-36,14.49-38.72,15.32A48.6,48.6,0,0,1,927.09,557.7Z" style="fill: #522108"/>
    <path d="M928.15,607.47h0v4.95q16.68-3.12,33.35-7c-.31-1.17-.61-2.35-.92-3.52Q944.37,605.05,928.15,607.47Z" style="fill: #dd8b59"/>
    <path d="M927.77,607v6.1q16.89-3.15,33.79-7.08l.48-.11c-.41-1.53-.81-3.06-1.21-4.59Q944.3,604.5,927.77,607Zm.77,4.82V608q15.9-2.38,31.78-5.46c.22.82.43,1.64.65,2.45Q944.75,608.75,928.54,611.78Z" style="fill: #522108"/>
    <path d="M1000,601.38c-.47.28-32.89,10.5-33.35,9.57.15,1.41.31,2.82.46,4.23,0,.25,33.35-7.92,33.35-8.89C1000.41,605.58,1000.41,601.34,1000,601.38Z" style="fill: #dd8b59"/>
    <path d="M1000,600.81c-.15,0-1.33.41-6.31,2-8.16,2.7-24.89,7.59-26.8,7.59h-.05c-.25-.39-.51-.78-.77-1.17l.72,6.56.37-.08c33.68-7.76,33.68-9,33.68-9.48C1000.8,601.16,1000.41,600.78,1000,600.81Zm-32.57,13.73-.33-3c1.6-.22,7-1.32,26.72-7.57l6-2a23.62,23.62,0,0,1,.22,4C997.83,607,979.71,611.9,967.38,614.54Z" style="fill: #522108"/>
    <polygon points="966.13 565.7 966.13 565.7 966.13 565.7 966.13 565.7" style="fill: #dd8b59"/>
    <path d="M1006.43,547.78c-.46.4-39.37,20.37-40.3,17.92.16,1.65.31,3.29.47,4.94q19.68-8.7,39.37-18.57S1006.89,547.74,1006.43,547.78Z" style="fill: #dd8b59"/>
    <path d="M1006.63,547.2l-.2,0c-.14,0-.47.19-5.21,2.65-9.07,4.86-33.15,16.44-34.85,15.4a.21.21,0,0,1,.09.12l-.71.4q.27,2.79.52,5.58,20-8.82,40-18.87l.06-.29c.86-4,.58-4.56.49-4.73S1006.69,547.29,1006.63,547.2Zm-1,4.44q-19.36,9.72-38.74,18.27l-.33-3.55h.1c2.46-.17,10.67-3.07,34.75-15.43l4.73-2.45C1006.12,549.14,1005.9,550.46,1005.66,551.64Z" style="fill: #522108"/>
    <path d="M1000,530c-2.32,1.06-28.72,15.24-29.65,13,0,0-.46,4.26,0,4.24.47.18,29.18-12,29.18-12.95C999.48,533.52,1002.26,529.05,1000,530Z" style="fill: #dd8b59"/>
    <path d="M999.87,529.4c-.63.24-2.89,1.44-6,3.05-7.09,3.73-21.78,11-23.25,10.11l-.52-1.17c-.05.49-.11,1-.16,1.48-.28,2.6-.28,4.16,0,4.63a.45.45,0,0,0,.38.25c.35,0,9-3.53,14.86-6.08,14.71-6.47,14.71-6.91,14.7-7.4a10,10,0,0,1,.45-1.08c.59-1.33,1.21-2.7.83-3.5S1000.1,529.31,999.87,529.4Zm-.2,3.2a8.25,8.25,0,0,0-.52,1.3c-1.94,1.53-25.95,11.92-28.65,12.66a20.53,20.53,0,0,1,.12-2.91c1.94.23,8.28-2.31,23.45-10.13,3-1.55,5.36-2.8,6-3a2.92,2.92,0,0,1,.45-.12A9.7,9.7,0,0,1,999.67,532.6Z" style="fill: #522108"/>
    <path d="M918,540c-.84.67-20.8,10.62-25.13,10.37,2.72,1.73,10.86,7.8,14.47,6.13h0c4.17-1.92,1.39-7,2.32-7s4.17,3.73,6,1S918.89,539.29,918,540Z" style="fill: #fecf3e"/>
    <path d="M917.79,539.46c-.83.67-20.8,10.56-24.95,10.32-.05.36-.09.72-.13,1.08l1.43.94c2.93,2,8,5.33,11.45,5.51a3.93,3.93,0,0,0,1.85-.3c3.19-1.46,2.7-4.8,2.46-6.39,0-.15,0-.33-.07-.47a7.26,7.26,0,0,1,.86.53c1.39.93,3.71,2.48,5.24.21,1.66-2.47,3.19-9.94,2.55-11.2C918.32,539.36,918.05,539.27,917.79,539.46Zm-2.42,10.62c-1.16,1.72-3,.48-4.37-.42a3.34,3.34,0,0,0-1.37-.71.5.5,0,0,0-.46.27,2.7,2.7,0,0,0,0,1.6c.25,1.66.59,3.94-1.95,5.11-3,1.36-9.34-2.85-12.76-5.15l-.07,0c5.95-1.18,21.23-8.75,23.52-10.1C917.91,542.23,916.82,547.93,915.37,550.08Z" style="fill: #522108"/>
    <path d="M971.69,547.13s2.32,8.41,4.63,6.89a24.13,24.13,0,0,0,4.64-4.45s1.85,7,5.09,5.38,5.1-9.51,5.1-9.51,3.24,1.2,4.63.38S999,533.56,999,533.56q-13.66,7.08-27.33,13.57Z" style="fill: #fecf3e"/>
    <path d="M971.33,547.36c.07.24,1.69,6.06,3.69,7.21a1.32,1.32,0,0,0,1.45,0,22.6,22.6,0,0,0,4.33-4.06c.53,1.6,2,5.41,4.38,5.28a2.57,2.57,0,0,0,1-.28c2.94-1.45,4.74-7.55,5.22-9.37.92.3,3.29,1,4.52.24,1.48-.86,3.05-9.93,3.49-12.69.06-.32.11-.65.16-1q-14.19,7.37-28.37,14.1Zm27.15-12.93c-.87,5.1-2.14,10.47-2.83,10.87-1,.61-3.53-.09-4.39-.41l-.36-.13-.12.52c0,.07-1.83,7.64-4.84,9.13s-4.6-5-4.62-5.06l-.2-.73-.41.52a23.63,23.63,0,0,1-4.54,4.37.77.77,0,0,1-.85,0c-1.26-.72-2.54-4.2-3.1-6Q985.35,541.21,998.48,534.43Z" style="fill: #522108"/>
    <path d="M989.54,615.11a9.75,9.75,0,0,0,.22-1.68S989,614.33,989.54,615.11Z" style="fill: #fecf3e"/>
    <path d="M968.91,615.83c-.46,1.43,2.32,4.88,4.64,4.79s3.24-5.09,3.7-3.69.46,7.77,6.49,5.34a9.6,9.6,0,0,0,5.8-7.16c-.53-.78.22-1.68.22-1.68a9.75,9.75,0,0,1-.22,1.68c.31.44,1,.84,2.53,1,4.17.43,8.34-9.81,7.88-9.77C999.48,606.57,969.84,616.71,968.91,615.83Z" style="fill: #fecf3e"/>
    <path d="M1000.18,605.74l-.23,0c-.15,0-1.19.39-5.57,1.91-7.81,2.77-24,7.9-25.32,7.63l-.32-.23c-.06.17-.12.35-.17.53a2.64,2.64,0,0,0,.21,1.89c.79,1.8,2.94,3.77,4.77,3.69,1.53-.06,2.48-1.91,3.11-3.14l.31-.58c0,.16.07.35.11.56.35,1.9,1,5.53,4.43,5.36a7.15,7.15,0,0,0,2.32-.57,10,10,0,0,0,5.89-6.83,4.94,4.94,0,0,0,2.31.69c3.61.36,6.87-6.41,7.48-7.78,1-2.25.88-2.63.81-2.83Zm-8.06,9.8a3.88,3.88,0,0,1-2.14-.67,8.8,8.8,0,0,0,.16-1.47v-1.16l-.62.76a2.42,2.42,0,0,0-.53,1.88,1.63,1.63,0,0,0,.13.39,9,9,0,0,1-5.48,6.45c-4.73,1.92-5.41-1.8-5.81-4a7.83,7.83,0,0,0-.23-1c-.14-.43-.35-.53-.49-.55h-.06c-.36,0-.62.52-1,1.26-.57,1.11-1.35,2.63-2.5,2.67-1.66.07-3.51-1.81-4.11-3.18a1.85,1.85,0,0,1-.16-.47c1.91-.18,8.8-2,25.24-7.63l4.88-1.7C998.56,609.39,995.23,615.84,992.12,615.54Z" style="fill: #522108"/>
    <path d="M1003.65,553q-17.37,8.91-34.74,16.88h0a31.54,31.54,0,0,0-3.24,18.48c1.39,10.58,3.24,19.71,3.71,19.7s5.56-14.33,11.11-15.31,15.75,6.83,15.75,6.81-1.39-16.87-.93-24.69S1003.65,553,1003.65,553Z" style="fill: #fecf3e"/>
    <path d="M968.62,569.5a32,32,0,0,0-3.33,19c0,.2,2.74,20.19,4.09,20.14.31,0,.46-.34,1.32-2.19,1.71-3.7,5.73-12.39,9.83-13.12,5.36-.91,15.42,6.7,15.52,6.76l.67.5c0-.37-.07-.74-.1-1.1,0-.17-1.38-16.91-.92-24.57s8.17-21.41,8.25-21.56l.84-1.52q-18,9.3-36.09,17.57Zm33.93-15.37c-2,3.88-7.24,14.23-7.62,20.7-.4,6.73.54,19.84.84,23.72-2.38-1.69-10.48-7.23-15.31-6.38-4.46.79-8.47,9.46-10.4,13.62-.24.51-.47,1-.65,1.37a163.11,163.11,0,0,1-3.36-18.93,31.14,31.14,0,0,1,3.09-17.88Q985.84,562.67,1002.55,554.13Z" style="fill: #522108"/>
    <path d="M888.79,614l.1.17C888.86,614.1,888.83,614,888.79,614Z" style="fill: #fecf3e"/>
    <path d="M888.89,614.2c.31,1,.23,6.09,3.6,5a7.18,7.18,0,0,0,4.63-4.65s.93,7.85,6,7.43,7.87-8.79,7.87-8.79.46,6.39,3.7,4.4,4.17-6.91,4.17-6.91q-14.58,2.65-29.18,4.79Z" style="fill: #fecf3e"/>
    <path d="M911.26,611.21c0,.1-.07.21-.11.31q-6.87,1.18-13.74,2.25l-.14-1.24c-.13.44-.25.88-.37,1.32-2.35.37-4.7.72-7,1.07l-.63-1c-.09-.27-.22-.43-.43-.44l-.91-.07.69,1.1c0,.15.07.42.1.65.16,1.18.43,3.15,1.47,4.17a2.28,2.28,0,0,0,2.45.47A7.45,7.45,0,0,0,897,616c.52,2.21,2,6.38,5.5,6.58a5.17,5.17,0,0,0,.68,0c4-.34,6.64-5.33,7.68-7.78a6.36,6.36,0,0,0,1.5,3.29,2,2,0,0,0,2.52.06c3.37-2.07,4.35-7.06,4.39-7.27l.15-.83c-2.71.49-5.43,1-8.14,1.44C911.27,611.4,911.26,611.3,911.26,611.21Zm-18.87,7.48a1.73,1.73,0,0,1-1.84-.3,4.46,4.46,0,0,1-.95-2.29l6.9-1A6.68,6.68,0,0,1,892.39,618.69ZM910.67,613c0,.08-2.74,8.08-7.56,8.49-4.1.33-5.3-5.06-5.55-6.57q6.6-1,13.19-2.16Zm7.64-1.57c-.42,1.44-1.5,4.34-3.74,5.71a1.44,1.44,0,0,1-1.82,0c-1.12-1-1.34-3.92-1.35-3.95,0-.19,0-.37,0-.56C913.68,612.23,916,611.82,918.31,611.4Z" style="fill: #522108"/>
    <path d="M888.79,572.3S884.62,574.12,886,587s4.63,20.14,5.09,20.17,4.17-11.72,9.73-13.52,15.28,7.13,15.28,7.12a119.84,119.84,0,0,1,.47-21.91,51.39,51.39,0,0,1,6-18.17c0,.19-32.42,12-33.81,11.66Z" style="fill: #fecf3e"/>
    <path d="M888.79,571.74l-.13,0c-.18.08-4.46,2.1-3,15.25,1.33,12.3,4.53,20.61,5.47,20.68.33,0,.48-.32,1.21-2,1.47-3.33,4.54-10.26,8.62-11.58,5.34-1.7,14.89,7,15,7.05l.68.61-.09-1.14a118.81,118.81,0,0,1,.46-21.74A51.09,51.09,0,0,1,922.89,561l.85-1.41-1.25.48C909.52,565.13,889.84,571.83,888.79,571.74Zm27.41,7a120.14,120.14,0,0,0-.55,21c-2.3-2-10-8.18-14.92-6.61-4.37,1.41-7.55,8.59-9.08,12-.22.49-.44,1-.59,1.29-.8-1.39-3.45-8.25-4.67-19.48-1.25-11.52,2.12-13.81,2.49-14,2.13-.11,26.41-8.73,32.67-11.24A53,53,0,0,0,916.2,578.69Z" style="fill: #522108"/>
    <path d="M957.8,529.11c-.93.15-26.86,12.79-27.79,11.92h0c1.85.75,5.09,7.88,7,6.49s4.63-5.61,4.63-5.61-.47,8.49,3.24,7.08,4.17-7.07,4.17-7.07,2.78,2.11,5.09,0S958.72,529.09,957.8,529.11Z" style="fill: #fecf3e"/>
    <path d="M957.8,528.54c-.38,0-2.85,1.19-9.28,4.2-6.91,3.25-17.34,7.85-18.39,7.76h0c-.1.35-.19.69-.28,1l.08,0h0c.65.26,1.63,1.61,2.58,2.92,1.62,2.23,3.3,4.53,4.64,3.52a25.12,25.12,0,0,0,4.06-4.72c0,1.66.27,4.32,1.34,5.63a1.91,1.91,0,0,0,1.51.79,2.48,2.48,0,0,0,.89-.18c3.09-1.17,4.07-5.16,4.35-6.82a4.1,4.1,0,0,0,5-.36c2.27-2.1,4.42-11.26,4.05-13.16C958.22,528.58,957.9,528.54,957.8,528.54Zm-3.91,12.87c-2.1,1.94-4.69,0-4.71,0l-.5-.37-.07.81c0,.21-.48,5.3-3.88,6.59a1.35,1.35,0,0,1-1.7-.38C941.74,546.5,942,542,942,542l.09-1.58-.75,1.14s-2.76,4.17-4.53,5.5c-.86.65-2.47-1.56-3.76-3.34a28.71,28.71,0,0,0-1.79-2.3c2.15-.65,7.08-2.7,17.52-7.56,4.08-1.91,8-3.76,8.88-4.1C957.7,531.43,955.83,539.61,953.89,541.41Z" style="fill: #522108"/>
    <path d="M958.26,599.12s0-.12-.17-.3C958.16,599,958.22,599.12,958.26,599.12Z" style="fill: #fecf3e"/>
    <path d="M962.89,548.81q-16.9,6.75-33.81,12.71h0c0,1.42-4.63,12.62-3.24,23.26s4.17,20.62,4.63,20.62,7.41-11.16,13.43-13.26c5.39-1.87,13,5.18,14.19,6.68-.63-1.7-2.14-11-2.15-18.06C955.94,573,962.89,548.82,962.89,548.81Z" style="fill: #fecf3e"/>
    <path d="M928.71,561.1v.41a21.66,21.66,0,0,1-.59,2.23c-1.22,4.16-3.74,12.79-2.65,21.14s3.94,21.07,5,21.09c.25,0,.42-.2,1.65-1.84,2.41-3.2,7.42-9.89,11.87-11.44,5.28-1.84,13.07,5.46,13.92,6.63.12.24.24.36.35.36h.26c.06-.24.13-.48.19-.72l-.16-.28a2.24,2.24,0,0,0-.17-.25,86.71,86.71,0,0,1-2-17.66c0-7.57,6.85-31.49,6.92-31.74l.3-1.06q-17.28,6.93-34.56,13Zm33.53-11.44c-1.36,4.81-6.68,24.15-6.68,31.11a99,99,0,0,0,1.72,16.48c-2.66-2.56-8.81-7.27-13.47-5.66s-9.76,8.44-12.21,11.7c-.43.56-.84,1.11-1.07,1.39-.73-1.7-3.08-10.57-4.31-20-1.05-8,1.42-16.43,2.6-20.48.33-1.12.51-1.77.6-2.21Q945.83,556.18,962.24,549.66Z" style="fill: #522108"/>
    <polygon points="929.08 612.44 929.08 612.44 929.08 612.44 929.08 612.44" style="fill: #fecf3e"/>
    <path d="M929.08,612.44c0,.71,1.39,5.7,4.63,5.76s3.71-4.9,3.71-4.9-.47,8.49,4.63,7.82,7-8.48,7-8.48.46,4.26,4.63,2.1,9.73-9.36,9.26-9.35C962.43,605.63,929.55,614.8,929.08,612.44Z" style="fill: #fecf3e"/>
    <path d="M962.89,604.83c-.11,0-.51.11-3.36.92-19,5.33-29.18,7.07-30.17,6.34a.34.34,0,0,1,.09.19l-.75.15c0,.86,1.5,6.27,5,6.33,1.84,0,2.87-1.41,3.44-2.8a9.34,9.34,0,0,0,1.35,4.12,3.51,3.51,0,0,0,3,1.65c.21,0,.41,0,.63,0,4-.54,6.13-5.29,6.9-7.61a3.51,3.51,0,0,0,.87,1.23c.95.82,2.26.81,3.9,0,2.57-1.33,9.73-8.29,9.54-10,0-.16,0-.33-.08-.49Zm-9.39,9.38c-1.4.72-2.49.77-3.23.13a3.05,3.05,0,0,1-.89-1.79l-.75-.09c0,.07-1.84,7.46-6.62,8.1a2.89,2.89,0,0,1-3-1.28c-1.42-2.06-1.24-5.89-1.24-5.93l-.77-.13c0,.18-.46,4.46-3.32,4.41-2.33,0-3.59-2.9-4-4.37,2.11.27,8.76-.5,30-6.4l2.24-.63C960.37,608.28,956.55,612.63,953.5,614.21Z" style="fill: #522108"/>
    <path d="M949.92,692.56c-23.15-.71-30.56-9.74-35.66-16.95s-9.73-18.15-9.73-18.15q-13.42-8.87-26.86-18.14.69,7.84,1.39,15.68,4.86,3.22,9.73,6.41h0c0-.42,4.63,74.27,57.89,72.88,53.27-2.68,68.09-77.44,68.09-77,0,.13-22.7.65-23.16.56S973.08,693.18,949.92,692.56Z" style="fill: #dd8b59"/>
    <path d="M991.61,657.29c-.23,0-.27.08-1.23,1.68-16.78,27.75-31.24,33.21-40.45,33-22.45-.67-30-9.19-35.4-16.78-5-7.15-9.62-17.93-9.67-18l-.06-.15q-13.8-9.09-27.6-18.63.75,8.49,1.51,17,4.86,3.24,9.72,6.42a129,129,0,0,0,9,36.67c7,16.41,20.79,36.28,47,36.44.73,0,1.48,0,2.23,0,27.66-1.16,44.8-22.58,54.31-39.94a151.73,151.73,0,0,0,14.14-37.49c0-.24.09-.48.14-.72l-.5,0C1013.86,656.89,992.07,657.38,991.61,657.29Zm-44.94,76.44c-27.31,1-41.49-19.2-48.57-35.8a126.88,126.88,0,0,1-8.93-36.54l0-.35q-4.86-3.18-9.73-6.41-.64-7.18-1.28-14.37,13.07,9,26.14,17.64c.58,1.36,5,11.33,9.71,18.11,5.47,7.74,13.2,16.43,35.93,17.11,9.33.27,24.05-5.33,41-33.43l.78-1.27c1.48,0,14.9-.17,22.51-.53C1012.51,665.09,996.23,731.32,946.67,733.73Z" style="fill: #522108"/>
    <path d="M1033.54,623.82c0,.41-40.29,13.33-40.29,13.64,0-.81-.25,16.77-.25,16.77q19.79-1.26,39.58-3.79h0c-.46-2.06-1.6-9.2-1.6-9.2v-8.48C1031.83,629.78,1032.69,626.8,1033.54,623.82Z" style="fill: #dd8b59"/>
    <path d="M1034.17,623l-.69.25s-10.07,3.59-20.15,6.89c-14.65,4.78-18.82,6-20,6.7h-.08c-.12,0-.2,0-.25.23a.47.47,0,0,0-.14.39h.07c-.09.88-.12,3-.2,8.37q-.06,4.49-.13,9,20.26-1.27,40.51-3.89l-.16-.72c-.45-2-1.58-9-1.59-9v-8.37Q1032.77,627.93,1034.17,623Zm-3.57,18.4c0,.26,1,5.91,1.46,8.52q-19.34,2.47-38.67,3.7c.08-5.2.2-13.91.23-15.82,2.38-1.05,24.25-7.75,39.29-13.2q-1.17,4-2.32,8.07C1030.59,635.6,1030.6,638.51,1030.6,641.42Z" style="fill: #522108"/>
    <path d="M1025,633.52h0l-.93,15q3.24-.39,6.48-.81-.23-7.39-.46-14.79Z" style="fill: #dd8b59"/>
    <path d="M1024.6,633l-1,16.1q3.64-.44,7.31-.92-.26-7.95-.5-15.91Zm-.15,14.87q.43-6.92.86-13.83l4.37-.55.43,13.67Z" style="fill: #522108"/>
    <path d="M1018,635q-.24,7.8-.47,15.61l4.17-1.18q.24-7.44.47-14.9L1018,635Z" style="fill: #dd8b59"/>
    <path d="M1017.14,651.32l4.94-1.39q.25-8,.5-16l-4.94.56Q1017.39,642.91,1017.14,651.32Zm1.24-15.77,3.39-.38q-.21,6.92-.43,13.83l-3.39,1Q1018.16,642.76,1018.38,635.55Z" style="fill: #522108"/>
    <path d="M1011.06,639.29v12l4.63-2.59q-.23-6-.46-12C1013.84,637.6,1012.45,638.44,1011.06,639.29Z" style="fill: #dd8b59"/>
    <path d="M1010.68,638.92v13.2l5.42-3-.51-13.16Zm.77,11.58V639.65l3.42-2.09.42,10.79Z" style="fill: #522108"/>
    <path d="M1004.11,640.64q-.45,5.34-.92,10.68h0q3,.46,6,.88c-.16-3.76-.31-7.52-.47-11.28Z" style="fill: #dd8b59"/>
    <path d="M1003.78,640.05l-1,11.78q3.42.52,6.86,1l-.51-12.45Zm-.16,10.77c.28-3.2.55-6.4.83-9.59l3.93.24c.14,3.37.27,6.73.41,10.1Z" style="fill: #522108"/>
    <path d="M994.39,652c1.7.12,3.39.22,5.09.32v-10.6l-4.63,1C994.7,645.86,994.54,648.94,994.39,652Z" style="fill: #dd8b59"/>
    <path d="M994,652.55l5.9.38V641.07c-1.79.42-3.59.83-5.38,1.23C994.32,645.72,994.14,649.13,994,652.55Zm1.24-9.28,3.89-.89v9.36c-1.44-.08-2.87-.17-4.3-.27C994.94,648.74,995.07,646,995.21,643.27Z" style="fill: #522108"/>
    <path d="M989.76,658q22-.69,44-3c.15-1.68.31-3.35.46-5q-22.69,2.78-45.39,3.79Z" style="fill: #dd8b59"/>
    <path d="M989.47,658.55q22.14-.67,44.28-3l.34,0,.57-6.17q-23.18,2.85-46.36,3.87Zm44-4.06q-21.69,2.25-43.38,2.92c-.23-1-.45-2-.68-3.08q22.21-1.05,44.42-3.71Z" style="fill: #522108"/>
    <path d="M1035.15,617.34c-1.39.66-43.54,18.32-43.54,17.89v4.95c5.09.06,43.54-15.4,43.54-15.77C1035.15,624.41,1036.54,617.15,1035.15,617.34Z" style="fill: #dd8b59"/>
    <path d="M1035.15,616.78c-1.39.56-39.31,16.63-43.62,17.9l-.31.12v6l.39,0c5.07,0,42-14.75,43.61-15.79l.23-.1.07-.34c.19-1,1.09-6,.33-7.32A.68.68,0,0,0,1035.15,616.78Zm-.31,7.19c-3.15,1.66-36.8,15-42.85,15.6v-3.91c11.89-4.31,41.87-17.31,43.23-17.7h0C1035.56,618.56,1035.29,621.47,1034.84,624Z" style="fill: #522108"/>
    <path d="M839.23,614.81c0,.87,33.81,28.53,33.81,28.36l.93-3.46q-17.61-14.64-35.2-29.91C839.69,611.33,839.23,614.1,839.23,614.81Z" style="fill: #dd8b59"/>
    <path d="M838.49,610.16c.62,1,.47,2.92.39,3.94,0,.29,0,.51,0,.66,0,.34,0,1.4,34,28.9l.38.3,1.2-4.48q-17.75-14.76-35.51-30.16Zm1.14,1q16.92,14.66,33.85,28.76c-.22.81-.43,1.62-.65,2.43-12.72-10.14-31.42-25.8-33.2-27.76,0-.08,0-.18,0-.29A13.76,13.76,0,0,0,839.63,611.18Z" style="fill: #522108"/>
    <path d="M855,603.9c0,2.12,5.09,45.8,5.09,45.79s3.24,1,3.24.33-5.56-45.12-5.55-45.12Z" style="fill: #dd8b59"/>
    <path d="M858.09,604.45l-3.5-1.27v.67c0,2.15,4.89,44.12,5.1,45.9,0,.14,0,.27,0,.41l.27.09a12.53,12.53,0,0,0,2.36.56c.54.05,1,0,1.15-.21a.8.8,0,0,0,.18-.54c0-.72-4.64-37.79-5.56-45.22Zm2.32,44.78c-1.66-14.16-4.61-39.87-5-44.6l2,.72c1.83,14.59,5.14,41.22,5.48,44.35A8.67,8.67,0,0,1,860.41,649.23Z" style="fill: #522108"/>
    <path d="M925.75,688.67l.79.09c.46-11.51,13.74-77.56,13.88-78.26l-.76-.33C939.11,612.93,926.21,677,925.75,688.67Z" style="fill: #522108"/>
    <path d="M930.38,689.61l.79.06c.1-1.25,7-51.84,10.65-78.48l-.77-.23C939.26,624,930.38,688.87,930.38,689.61Z" style="fill: #522108"/>
    <path d="M934,689.72l.78.18c.45-4.33,8.77-78,8.85-78.72l-.78-.19C942.81,611.75,934.49,685.38,934,689.72Z" style="fill: #522108"/>
    <path d="M926.4,678.68l.43,1c2.24-2.06,9.08-4.85,9.15-4.89-.07-.37-.14-.74-.22-1.11C935.48,673.79,928.73,676.53,926.4,678.68Z" style="fill: #522108"/>
    <path d="M929.85,666.92v1.15c2.37.06,6.91-2.74,7.11-2.86-.11-.36-.21-.71-.32-1.06C936.6,664.18,932.06,667,929.85,666.92Z" style="fill: #522108"/>
    <path d="M930.85,658.7h.79a.58.58,0,0,1-.08.31c.37-.46,3.71-1.66,6.71-2.58,0-.38-.11-.75-.16-1.13C930.85,657.52,930.85,658.18,930.85,658.7Z" style="fill: #522108"/>
    <path d="M932.09,647.13c0,.38.1.76.16,1.14q3.71-1,7.41-2.1c0-.38-.11-.76-.16-1.13Q935.8,646.11,932.09,647.13Z" style="fill: #522108"/>
    <path d="M935.81,638.21H935c0,.55,0,1.32,5.48,1.37v-1.15c-2,0-4.45-.24-4.8-.55A.52.52,0,0,1,935.81,638.21Z" style="fill: #522108"/>
    <path d="M936.8,630a34.84,34.84,0,0,1,5,1.5l.19-1.12a35,35,0,0,0-5.19-1.53Z" style="fill: #522108"/>
    <path d="M965.06,688.22l.77,0c.46-11.09,13.75-75.38,13.88-76.06l-.74-.3C978.42,614.6,965.52,677,965.06,688.22Z" style="fill: #522108"/>
    <path d="M969.69,686l.77,0c.11-1.22,7-48.39,10.65-73.22l-.76-.2C977.85,629.67,969.69,685.29,969.69,686Z" style="fill: #522108"/>
    <path d="M974.33,680.08l.76.14c.46-4.2,7.8-66.9,7.88-67.55l-.77-.15C982.13,613.16,974.79,675.87,974.33,680.08Z" style="fill: #522108"/>
    <path d="M965.7,678.56l.42,1c2.24-2.11,9.09-5.17,9.16-5.21l-.21-1.08C974.78,673.36,968,676.37,965.7,678.56Z" style="fill: #522108"/>
    <path d="M969.15,667.06v1.12c2.37-.07,6.91-3,7.1-3.13l-.3-1S971.36,667,969.15,667.06Z" style="fill: #522108"/>
    <path d="M970.16,659.1l.77,0a.6.6,0,0,1-.08.32c.37-.46,3.71-1.8,6.72-2.86-.05-.36-.11-.73-.16-1.1C970.16,658,970.16,658.6,970.16,659.1Z" style="fill: #522108"/>
    <path d="M971.39,647.9l.15,1.1,7.41-2.43-.15-1.1Z" style="fill: #522108"/>
    <path d="M975.1,639.11l-.78,0c0,.54,0,1.29,5.48,1V639c-2,.1-4.47,0-4.81-.26A.5.5,0,0,1,975.1,639.11Z" style="fill: #522108"/>
    <path d="M976.1,631.15a34.77,34.77,0,0,1,5,1.17l.17-1.11A34.76,34.76,0,0,0,976.1,630Z" style="fill: #522108"/>
    <path d="M906.75,603.93c.13.69,13.42,65.43,13.88,76.6l.77,0c-.46-11.3-13.36-74.14-13.91-76.84Z" style="fill: #522108"/>
    <path d="M905.35,604.53C909,629.52,915.9,677,916,678.24l.38,0-.39,0,.39,0h.39c0-.7-8.16-56.7-10.66-73.89Z" style="fill: #522108"/>
    <path d="M903.5,604.41c.07.64,7.41,63.75,7.87,68l.76-.14c-.45-4.24-7.8-67.35-7.87-68Z" style="fill: #522108"/>
    <path d="M911.18,666.43c.07,0,6.92,3.16,9.16,5.29l.42-.94c-2.34-2.23-9.08-5.29-9.37-5.42Z" style="fill: #522108"/>
    <path d="M910.21,657.11c.19.13,4.73,3.11,7.1,3.2v-1.13c-2.21-.08-6.75-3.06-6.8-3.09Z" style="fill: #522108"/>
    <path d="M909.05,647.45c0,.36-.11.73-.16,1.1,3,1.07,6.35,2.43,6.72,2.9a.58.58,0,0,1-.08-.31l.77,0C916.3,650.67,916.3,650,909.05,647.45Z" style="fill: #522108"/>
    <path d="M907.51,638.52c2.47.83,4.94,1.66,7.41,2.47l.15-1.1c-2.47-.81-4.94-1.64-7.41-2.47Z" style="fill: #522108"/>
    <path d="M911.47,630.7c-.34.29-2.77.36-4.81.25v1.13c5.48.28,5.48-.48,5.48-1l-.78,0A.5.5,0,0,1,911.47,630.7Z" style="fill: #522108"/>
    <path d="M905.35,624.17a34.61,34.61,0,0,1,5-1.16v-1.13a34.84,34.84,0,0,0-5.18,1.18C905.24,623.43,905.3,623.8,905.35,624.17Z" style="fill: #522108"/>
    <path d="M876.74,640h0s-9.26-2.94-8.8.62,4.64,7.51,5.1,9.67-1.39,9.77,1.39,9.31,5.56-3.06,5.56-5.18-.47-12.06-.47-12.06Z" style="fill: #b6b6b4"/>
    <path d="M879.89,642l-3-2.51-.12-.07c-.76-.23-7.47-2.3-8.93-.24a2.11,2.11,0,0,0-.31,1.48c.3,2.27,1.86,4.53,3.24,6.51a12.38,12.38,0,0,1,1.87,3.23,15.11,15.11,0,0,1-.06,3.1c-.17,2.37-.34,4.83.48,6a1.3,1.3,0,0,0,1,.63,1.42,1.42,0,0,0,.41,0c2.71-.45,5.87-3.06,5.87-5.72,0-2.12-.44-11.69-.46-12.1Zm-5.53,17a.68.68,0,0,1-.74-.26c-.54-.79-.37-3.16-.24-5.07a15.15,15.15,0,0,0,0-3.56,12.56,12.56,0,0,0-2.09-3.73c-1.29-1.86-2.75-4-3-5.87a.67.67,0,0,1,.1-.51c.41-.58,1.65-.7,3.14-.56a26.41,26.41,0,0,1,5,1.06l2.53,2.14c.08,1.71.45,9.84.45,11.71C879.6,656,877.13,658.53,874.36,659Z" style="fill: #522108"/>
    <path d="M899.2,664.43l-.14-.06c-.43-.15-10.71-4.24-12.13-4.36v1.13c1.09.09,8.76,3.08,11.82,4.27q5.5,11.57,11,23.06l.63-.63q-5.56-11.58-11.12-23.23Z" style="fill: #522108"/>
    <path d="M992.92,685c-7.45,12.64-21.11,28.09-43.92,28.21-37-.14-49.79-34.42-53.58-48.58a4.28,4.28,0,0,0-.33-1.06l-.6.67c0,.1.1.36.21.75,3.85,14.38,16.84,49.21,54.3,49.34,44.24-.55,55.38-56.37,55.49-56.61l-.75-.25A98.24,98.24,0,0,1,992.92,685Z" style="fill: #522108"/>
    <path d="M949,726.65c-40.71-5.21-47.09-30.13-50.16-41.43-3.19-12.05-5.06-22.09-5.08-22.19l-.74.25c0,.1,1.89,10.19,5.1,22.31,3.13,11.52,9.62,36.91,50.82,42.19a32.75,32.75,0,0,0,4,.22c38-.46,58.19-68.88,58.4-69.42l-.71-.39C1010.49,658.74,989.07,731.23,949,726.65Z" style="fill: #522108"/>
    <path d="M999.11,602l.74.28c.47-2.16,1.73-40.48,1.87-44.85H1001C1000.39,574.49,999.44,600.45,999.11,602Z" style="fill: #522108"/>
    <path d="M1002.86,554q14.35,33.45,28.71,66.2l.66-.67q-14.36-32.73-28.71-66.17Z" style="fill: #522108"/>
    <path d="M952.55,521.31c-1.15-.77-6.92-4.73-7.67-4.74l-.44.6h.41l0,.08,0,.45c1,.17,13.3,8.58,14,9.57h0c.51,1.17,3.82,8.51,25.51,51.36,25.67,50.33,25.94,49.86,26.2,50v-.64l.24-.39c-1.37-1.2-49.9-96.62-51.28-100.78C959.44,526.34,958.61,525.46,952.55,521.31Z" style="fill: #522108"/>
    <path d="M985.28,525.48c-.1.35-.21.7-.31,1q6.4,3.84,12.82,7.54l4.11,15,.72-.48q-2.11-7.7-4.22-15.43Q991.83,529.4,985.28,525.48Z" style="fill: #522108"/>
    <path d="M919.13,541.69c-5.49-6.48-13.83-16.57-14.28-17.45l-.31.26v-.57h-.29l-.09.37c-.12.45-.18.85,14.38,18.12l1.83,14,.76-.19q-.95-7.22-1.88-14.42Z" style="fill: #522108"/>
    <path d="M853.89,623.07c.11.35.21.71.32,1.06,6.46-3.2,49.68-57.57,51.51-60.25l-.52-.86C904.75,563.92,860.24,620,853.89,623.07Z" style="fill: #522108"/>
    <path d="M841.75,610.45l.51.91c5.5-6,50-59.42,50.49-60.28l-.51-.88C891.79,551.06,847.25,604.45,841.75,610.45Z" style="fill: #522108"/>
    <path d="M926,562.43q23.85,61.13,47.7,120.7c.23-.19.45-.39.67-.59q-23.85-59.5-47.7-120.65Z" style="fill: #522108"/>
    <path d="M968.75,611.94l-.74.34c.23,1.16,5.74,28.6,11.38,32.63a115.7,115.7,0,0,1,12,10.59c.15-.31.31-.62.46-.94a114.17,114.17,0,0,0-12.09-10.66C974.4,640.07,968.81,612.22,968.75,611.94Z" style="fill: #522108"/>
    <path d="M968.12,612.61l-.76.22c.16,1.37,4,33.74,9.65,39.92s11,12.77,11.1,12.83l.51-.88c0-.07-5.63-6.81-11.13-12.86S968.16,612.94,968.12,612.61Z" style="fill: #522108"/>
    <path d="M929.7,610.41l-.76.17c.23,1.91,5.71,47.23,16.84,57.87s20.28,19.44,20.38,19.53c.14-.31.29-.63.43-1-.09-.09-9.39-9-20.38-19.52S929.76,610.86,929.7,610.41Z" style="fill: #522108"/>
    <path d="M929.21,609.54l-.7.47c.49,1.53,12.2,37.33,22.34,48.51s24,21.34,24.14,21.41l.36-1c-.14-.08-14-10.17-24-21.3S929.33,609.92,929.21,609.54Z" style="fill: #522108"/>
    <path d="M893.22,625.71c-.69-5.47-1.41-11.13-2.93-15.22l-.68.51c1.46,3.92,2.17,9.49,2.85,14.87.83,6.57,1.62,12.78,3.7,16.09,3.63,5.8,9.16,18.72,9.21,18.85l.66-.58c-.06-.12-5.63-13.14-9.31-19C894.79,638.16,894,632.11,893.22,625.71Z" style="fill: #522108"/>
    <path d="M894.82,623.11c-1.52-5.38-2.84-10-3.62-11.87l-.65.56c.74,1.75,2.05,6.36,3.55,11.7,2.23,7.9,4.76,16.84,6.64,20.77,2.31,5.88,25,41.53,26,42.93l.56-.76c-.24-.27-23.62-36.94-25.91-42.76C899.54,639.82,896.92,630.56,894.82,623.11Z" style="fill: #522108"/>
    <path d="M915.66,682.91c-1.92-.08-3.48,2.22-3.48,5.15s1.56,5.38,3.48,5.46,3.47-2.25,3.47-5.18S917.58,683,915.66,682.91Z"/>
    <path d="M915.66,682.54c-2.06-.08-3.73,2.39-3.73,5.51s1.68,5.75,3.73,5.83,3.72-2.4,3.72-5.53S917.71,682.63,915.66,682.54Zm0,10.61c-1.78-.07-3.23-2.35-3.23-5.08s1.45-4.87,3.23-4.8,3.22,2.34,3.22,5.07S917.43,693.22,915.66,693.15Z" style="fill: #522108"/>
    <path d="M933.26,695.45c-1.66,0-3,2-3,4.53s1.34,4.63,3,4.66,3-2,3-4.55S934.92,695.48,933.26,695.45Z"/>
    <path d="M933.26,695.08c-1.8,0-3.26,2.16-3.26,4.9s1.46,5,3.26,5,3.26-2.17,3.26-4.91S935.05,695.11,933.26,695.08Zm0,9.2c-1.53,0-2.76-2-2.76-4.29s1.23-4.21,2.76-4.18,2.76,1.94,2.76,4.28S934.78,704.3,933.26,704.28Z" style="fill: #522108"/>
    <path d="M955,698.34c-1.67,0-3,2.09-3,4.63s1.34,4.59,3,4.57,3-2.1,3-4.64S956.69,698.32,955,698.34Z"/>
    <path d="M955,698c-1.8,0-3.26,2.26-3.26,5s1.46,4.95,3.26,4.93,3.26-2.27,3.26-5S956.82,698,955,698Zm0,9.2c-1.53,0-2.77-1.88-2.77-4.21s1.24-4.24,2.77-4.26,2.76,1.86,2.76,4.19S956.55,707.16,955,707.18Z" style="fill: #522108"/>
    <path d="M974.48,687.58c-1.54.07-2.78,1.85-2.78,4s1.24,3.85,2.78,3.78,2.78-1.86,2.78-4S976,687.52,974.48,687.58Z"/>
    <path d="M974.48,687.22c-1.67.07-3,2-3,4.37s1.36,4.21,3,4.14,3-2,3-4.39S976.15,687.15,974.48,687.22Zm0,7.78c-1.4.06-2.53-1.49-2.53-3.43s1.13-3.57,2.53-3.62,2.53,1.47,2.53,3.42S975.87,694.94,974.48,695Z" style="fill: #522108"/>
    <path d="M989.3,672.32c-1.41.09-2.55,2.22-2.55,4.75s1.14,4.53,2.55,4.45,2.55-2.23,2.55-4.77S990.71,672.23,989.3,672.32Z"/>
    <path d="M989.3,672c-1.54.1-2.8,2.39-2.8,5.13s1.26,4.89,2.8,4.79,2.8-2.41,2.8-5.14S990.84,671.86,989.3,672Zm0,9.19c-1.27.08-2.3-1.76-2.3-4.09s1-4.29,2.3-4.37,2.3,1.75,2.3,4.08S990.57,681.07,989.3,681.15Z" style="fill: #522108"/>
    <path d="M881.15,533c3.24-.38,21.77,8.62,21.31,6.41s0-12.73,0-14.14C901.07,526.69,877.91,533.5,881.15,533Z" style="fill: #ff0101"/>
    <path d="M888.33,529.84c-8,2.57-8,2.54-7.87,3.23s.49.52.75.48c1.5-.21,6.78,1.9,11.44,3.7,5.34,2.07,7.93,3,9.16,3,.49,0,.77-.07.91-.3a1,1,0,0,0,.11-.74c-.35-1.57-.14-8.52,0-11.86,0-1,.05-1.79.05-2.11V524.2l-.6.58C901.53,525.47,893.59,528.15,888.33,529.84Zm13.7,9.35c-1.06.08-5.57-1.61-9.22-3s-7.29-2.85-9.66-3.46c1.44-.48,3.43-1.12,5.38-1.75a141.61,141.61,0,0,0,13.52-4.82c0,.33,0,.72,0,1.16A108.47,108.47,0,0,0,902,539.19Z" style="fill: #522108"/>
    <path d="M927.93,523.47c.46.06,15.29,6.64,14.82,5.18s-.46-10.61-.92-12.74C940.9,515.94,927.47,523.5,927.93,523.47Z" style="fill: #ff0101"/>
    <polygon points="941.83 515.91 941.83 515.91 941.83 515.91 941.83 515.91" style="fill: #ff0101"/>
    <path d="M942.67,522.34a58.32,58.32,0,0,0-.47-6.6l-.09-.39h-.28c-.58,0-4.37,2-7.44,3.74-6.86,3.77-6.86,3.89-6.86,4.37,0,.19,0,.38,0,.57h.38c.19,0,1.57.62,3,1.22,7.77,3.25,10.48,4.12,11.51,4.14.37,0,.52-.11.62-.27s.1-.27.16-.4-.07-.22-.11-.33A51.38,51.38,0,0,1,942.67,522.34Zm-11.54,1.84c-.94-.39-1.59-.67-2-.85,2.75-1.63,10.69-6.07,12.46-6.77.16,1.25.26,3.68.36,5.85.12,2.84.21,4.82.37,5.87C940.67,528.12,934.31,525.52,931.13,524.18Z" style="fill: #522108"/>
    <path d="M968.23,529.74c2.78.65,13.43,5.84,13.43,4.4s0-11.32.46-12C981.19,522.91,965.45,529.16,968.23,529.74Z" style="fill: #ff0101"/>
    <path d="M978.14,523.42c-9.2,4.16-10.66,5.07-10.63,6.11a.76.76,0,0,0,.65.77,50.91,50.91,0,0,1,5.55,2.09c4.49,1.84,6.6,2.6,7.57,2.55a.75.75,0,0,0,.56-.22.92.92,0,0,0,.2-.6c0-7.36.2-11.18.39-11.7-.17-.27-.33-.55-.49-.82C981.7,521.8,980,522.59,978.14,523.42Zm3.13,10.41h0c-1,0-4.76-1.47-7.32-2.53-2.1-.85-4.09-1.68-5.26-2,1.57-1.14,6.73-3.44,9.67-4.78,1.5-.68,2.55-1.16,3.2-1.49C981.41,524.39,981.28,527.33,981.27,533.83Z" style="fill: #522108"/>
    <path d="M933.36,574.79c-1.36-.1-2.5,1.49-2.56,3.56s1,3.84,2.36,3.95,2.5-1.49,2.55-3.57S934.71,574.9,933.36,574.79Z" style="fill: #be1017"/>
    <path d="M933.37,574.35a2.22,2.22,0,0,0-2,1,5.26,5.26,0,0,0-.92,3c-.06,2.31,1.13,4.3,2.65,4.41h.11a2.27,2.27,0,0,0,1.83-1,5.19,5.19,0,0,0,.93-3C936.08,576.44,934.89,574.47,933.37,574.35Zm1.31,6.71a1.68,1.68,0,0,1-1.51.79c-1.18-.09-2.11-1.65-2.06-3.48a4,4,0,0,1,.73-2.34,1.76,1.76,0,0,1,1.5-.79c1.19.09,2.12,1.65,2.07,3.47A4.08,4.08,0,0,1,934.68,581.06Z" style="fill: #522108"/>
    <path d="M950,568.38c-1.36-.08-2.5,1.54-2.55,3.61s1,3.82,2.35,3.9,2.5-1.55,2.56-3.62S951.39,568.45,950,568.38Z" style="fill: #be1017"/>
    <path d="M950,567.94A2.23,2.23,0,0,0,948.1,569a5.22,5.22,0,0,0-.93,3c-.06,2.31,1.13,4.27,2.65,4.35h.11a2.33,2.33,0,0,0,1.84-1.07,5.35,5.35,0,0,0,.92-3C952.75,570,951.56,568,950,567.94Zm1.31,6.68a1.79,1.79,0,0,1-1.5.83c-1.19-.07-2.12-1.62-2.07-3.44a4.21,4.21,0,0,1,.73-2.36,1.83,1.83,0,0,1,1.51-.83c1.18.07,2.11,1.61,2.06,3.43A4.17,4.17,0,0,1,951.35,574.62Z" style="fill: #522108"/>
    <path d="M941.69,581.86c-1.35-.09-2.5,1.51-2.55,3.59s1,3.83,2.36,3.92,2.5-1.52,2.55-3.59S943.05,582,941.69,581.86Z" style="fill: #be1017"/>
    <path d="M941.7,581.42a2.21,2.21,0,0,0-1.94,1,5.19,5.19,0,0,0-.93,3c-.06,2.31,1.13,4.28,2.66,4.39h.11a2.28,2.28,0,0,0,1.83-1.05,5.22,5.22,0,0,0,.93-3C944.42,583.48,943.23,581.52,941.7,581.42Zm1.31,6.7a1.72,1.72,0,0,1-1.5.81c-1.19-.08-2.11-1.64-2.07-3.46a4.16,4.16,0,0,1,.74-2.35,1.75,1.75,0,0,1,1.41-.81h.09c1.19.08,2.11,1.63,2.07,3.45A4.21,4.21,0,0,1,943,588.12Z" style="fill: #522108"/>
    <path d="M941.69,561.4c-1.35-.09-2.5,1.51-2.55,3.59s1,3.83,2.36,3.92,2.5-1.52,2.55-3.59S943.05,561.49,941.69,561.4Z" style="fill: #be1017"/>
    <path d="M941.7,561a2.21,2.21,0,0,0-1.94,1,5.19,5.19,0,0,0-.93,3c-.06,2.31,1.13,4.28,2.66,4.39h.11a2.28,2.28,0,0,0,1.83-1.05,5.22,5.22,0,0,0,.93-3C944.42,563,943.23,561.06,941.7,561Zm1.31,6.7a1.72,1.72,0,0,1-1.5.81c-1.19-.08-2.11-1.64-2.07-3.46a4.21,4.21,0,0,1,.74-2.36,1.8,1.8,0,0,1,1.41-.81h.09c1.19.08,2.11,1.62,2.07,3.45A4.21,4.21,0,0,1,943,567.66Z" style="fill: #522108"/>
    <path d="M941.69,571.63c-1.35-.09-2.5,1.51-2.55,3.59s1,3.83,2.36,3.92,2.5-1.52,2.55-3.59S943.05,571.72,941.69,571.63Z" style="fill: #be1017"/>
    <path d="M941.7,571.19a2.24,2.24,0,0,0-1.94,1,5.19,5.19,0,0,0-.93,3c-.06,2.31,1.13,4.28,2.66,4.39h.11a2.28,2.28,0,0,0,1.83-1.05,5.22,5.22,0,0,0,.93-3C944.42,573.25,943.23,571.29,941.7,571.19Zm1.31,6.7a1.72,1.72,0,0,1-1.5.81c-1.19-.08-2.11-1.64-2.07-3.46a4.21,4.21,0,0,1,.74-2.36,1.8,1.8,0,0,1,1.41-.81h.09c1.19.08,2.11,1.62,2.07,3.45A4.21,4.21,0,0,1,943,577.89Z" style="fill: #522108"/>
  </g>
</svg>
