<svg xmlns="http://www.w3.org/2000/svg" viewBox="0 0 1260 1012.04">
  <g>
    <path d="M0,90.08v920C420,738.76,840,1193.28,1260,922V2C840,273.28,420-181.24,0,90.08Z" style="fill: #75b2dd"/>
    <path d="M609.51,221.06,641,242.14,630,138Z" style="fill: #fff"/>
    <path d="M619,237.33,650.49,230,630,138Z" style="fill: #fff"/>
    <path d="M626.75,246.88c22.11-10.51,44.21-21,66.32-31.71-22.11-4.63-44.21-9.46-66.32-14.29Z" style="fill: #fff"/>
    <path d="M639.42,257.72q26.82-21.2,53.65-42.55c-24.38.51-48.76.78-73.14,1.09Z" style="fill: #fff"/>
    <path d="M617,228.32q26,42.32,52,84.59Q658.73,267,648.49,221,632.73,224.67,617,228.32Z" style="fill: #fff"/>
    <path d="M615.33,247.18q26.82,32.88,53.65,65.73-17.09-49.32-34.16-98.7Z" style="fill: #fff"/>
    <path d="M591,296q26.82-21.27,53.65-42.42l-19.49-41.46Q608.1,254,591,296Z" style="fill: #fff"/>
    <path d="M591,296q26-31,52-62l-31.54-21.08Q601.26,254.45,591,296Z" style="fill: #fff"/>
    <path d="M620.58,253.61q9.75-16.47,19.49-33c-24.38-10.93-48.76-21.9-73.14-32.63Q593.75,220.68,620.58,253.61Z" style="fill: #fff"/>
    <path d="M633.25,248.3v-46c-22.11-4.82-44.21-9.65-66.32-14.28C589,208,611.14,228.15,633.25,248.3Z" style="fill: #fff"/>
    <path d="M822,558.07c24.44-1.73,48.87-4.22,73.31-7.74-21-10.84-42-22.45-63.07-34.64Q827.08,536.9,822,558.07Z" style="fill: #fff"/>
    <path d="M832.19,572.55c21-6.76,42-14.11,63.07-22.22-24.44-6.69-48.87-14.42-73.31-22.89Q827.07,550,832.19,572.55Z" style="fill: #fff"/>
    <path d="M849.44,633.71v-92q-16.58-1.87-33.16-4.25Q832.86,585.82,849.44,633.71Z" style="fill: #fff"/>
    <path d="M810.46,554.18q19.49,40.1,39,79.53-6.08-51.42-12.15-102.91Q823.87,542.65,810.46,554.18Z" style="fill: #fff"/>
    <path d="M775.3,589.56c21-5.86,42-12.13,63.07-19q-5.13-22.51-10.25-45.06Q801.71,558.07,775.3,589.56Z" style="fill: #fff"/>
    <path d="M775.3,589.56c21.93-12,43.87-24.5,65.8-37.64q-13.41-15.13-26.82-30.6Q794.78,555.73,775.3,589.56Z" style="fill: #fff"/>
    <path d="M814.28,562q13.41-11.6,26.82-23.48c-21.93-18.45-43.87-37.57-65.8-57.14Q794.79,522,814.28,562Z" style="fill: #fff"/>
    <path d="M828.12,561.69q5.13-21.2,10.25-42.43c-21-12.08-42-24.76-63.07-37.85Q801.7,522,828.12,561.69Z" style="fill: #fff"/>
    <path d="M837.29,558.74q6.08-50,12.15-100-19.49,35-39,69.33Q823.87,543.55,837.29,558.74Z" style="fill: #fff"/>
    <path d="M849.44,550.72v-92q-16.58,44.11-33.16,87.74Q832.86,548.83,849.44,550.72Z" style="fill: #fff"/>
    <path d="M630,874l20.49-83L619,769.9Z" style="fill: #fff"/>
    <path d="M630,874l11-99.3-31.53,7.34Z" style="fill: #fff"/>
    <path d="M633.25,811.16v-46c-22.11,10.51-44.21,21-66.32,31.72C589,801.51,611.14,806.34,633.25,811.16Z" style="fill: #fff"/>
    <path d="M566.93,796.88c24.38-.52,48.76-.79,73.14-1.09q-9.75-20.73-19.49-41.47Q593.76,775.52,566.93,796.88Z" style="fill: #fff"/>
    <path d="M611.51,791.06l31.54-7.34q-26-42.3-52-84.59Z" style="fill: #fff"/>
    <path d="M625.18,797.83l19.49-33Q617.85,732,591,699.13,608.11,748.45,625.18,797.83Z" style="fill: #fff"/>
    <path d="M634.82,799.93Q651.91,758,669,716.05q-26.82,21.27-53.65,42.42Z" style="fill: #fff"/>
    <path d="M648.49,799.12Q658.74,757.6,669,716.05q-26,31.05-52,62Z" style="fill: #fff"/>
    <path d="M619.93,791.39c24.38,10.94,48.76,21.91,73.14,32.64q-26.82-32.67-53.65-65.6Z" style="fill: #fff"/>
    <path d="M626.75,809.74c22.11,4.82,44.21,9.66,66.32,14.29q-33.17-30-66.32-60.29Z" style="fill: #fff"/>
    <path d="M427.81,496.35q5.12-21.21,10.24-42.38c-24.44,1.74-48.87,4.22-73.31,7.74C385.76,472.55,406.78,484.16,427.81,496.35Z" style="fill: #fff"/>
    <path d="M364.74,461.71c24.44,6.69,48.87,14.42,73.31,22.9q-5.12-22.59-10.24-45.12C406.78,446.25,385.76,453.6,364.74,461.71Z" style="fill: #fff"/>
    <path d="M410.56,470.33q16.57,1.88,33.16,4.26-16.58-48.37-33.16-96.26Z" style="fill: #fff"/>
    <path d="M422.71,481.25q13.43-11.85,26.83-23.39-19.49-40.08-39-79.53Q416.64,429.75,422.71,481.25Z" style="fill: #fff"/>
    <path d="M431.88,486.56Q458.3,454,484.7,422.48c-21,5.86-42,12.14-63.07,19Q426.76,464,431.88,486.56Z" style="fill: #fff"/>
    <path d="M445.72,490.72q19.5-34.39,39-68.24c-21.93,12-43.87,24.5-65.8,37.64Q432.31,475.27,445.72,490.72Z" style="fill: #fff"/>
    <path d="M418.9,473.49c21.93,18.45,43.87,37.57,65.8,57.14q-19.49-40.56-39-80.61Q432.31,461.6,418.9,473.49Z" style="fill: #fff"/>
    <path d="M421.63,492.79c21,12.07,42.05,24.75,63.07,37.84Q458.3,490,431.88,450.35,426.75,471.55,421.63,492.79Z" style="fill: #fff"/>
    <path d="M410.56,553.33q19.49-35,39-69.33-13.41-15.5-26.83-30.7Q416.64,503.28,410.56,553.33Z" style="fill: #fff"/>
    <path d="M410.56,553.33q16.57-44.13,33.16-87.75-16.58-2.35-33.16-4.25Z" style="fill: #fff"/>
  </g>
</svg>
