<svg xmlns="http://www.w3.org/2000/svg" viewBox="0 0 1260 1012.04">
  <g>
    <path d="M0,90.08v920C420,738.76,840,1193.28,1260,922V2C840,273.28,420-181.24,0,90.08Z" style="fill: #fff"/>
    <path d="M343.64.61v920c76.36,3,152.72,16.95,229.09,33.06v-920C496.36,17.56,420,3.63,343.64.61Z" style="fill: #0065bd"/>
    <path d="M0,665.08C420,393.76,840,848.28,1260,577V347C840,618.28,420,163.76,0,435.08Z" style="fill: #0065bd"/>
    <path d="M400.91,4.78v920c38.18,4,76.36,10.11,114.54,17.35v-920C477.27,14.89,439.09,8.75,400.91,4.78Z" style="fill: #ed2939"/>
    <path d="M0,607.58c420-271.32,840,183.2,1260-88.11v-115C840,675.78,420,221.26,0,492.58Z" style="fill: #ed2939"/>
  </g>
</svg>
