<svg xmlns="http://www.w3.org/2000/svg" viewBox="0 0 1260 1011.17">
  <g>
    <path d="M306.36.1q7.2-.15,14.4,0Q313.56-.09,306.36.1Z" style="fill: #ed2939"/>
    <path d="M950.92,1011.13q-4.27,0-8.55,0Q946.65,1011.2,950.92,1011.13Z" style="fill: #ed2939"/>
    <path d="M320.76.09q-7.2-.13-14.4,0C204.24,2.91,102.12,65.88,0,245.81v760.6c314.12-553.5,628.25,0,942.37,4.69q4.27,0,8.55,0C1054,1009.35,1157,946.89,1260,765.38V4.75C946.92,556.41,633.84,8.34,320.76.09Z" style="fill: #ed2939"/>
    <path d="M306.7.09q6.93-.13,13.85,0Q313.62-.09,306.7.09Z" style="fill: #fff"/>
    <path d="M840,992.3V231.66C666.85,174.16,493.7,4.51,320.55.08Q313.62,0,306.7.09C204.47,2.79,102.23,65.67,0,245.81v760.6C280,513.07,560,899.29,840,992.3Z" style="fill: #fff"/>
    <path d="M306.62.09q7-.13,14.09,0Q313.67-.09,306.62.09Z" style="fill: #002395"/>
    <path d="M420,779.48V18.84C386.9,7.85,353.81,1,320.71.09q-7-.13-14.09,0C204.41,2.87,102.21,65.71,0,245.81v760.6C140,759.75,280,733,420,779.48Z" style="fill: #002395"/>
  </g>
</svg>
