<svg xmlns="http://www.w3.org/2000/svg" viewBox="0 0 1260 1012.04">
  <g>
    <path d="M0,90.08v920C420,738.76,840,1193.28,1260,922V2C840,273.28,420-181.24,0,90.08Z" style="fill: #fff;fill-rule: evenodd"/>
    <path d="M0,642.08C420,370.76,840,825.28,1260,554V370C840,641.28,420,186.76,0,458.08Z" style="fill: #c00;fill-rule: evenodd"/>
    <path d="M567,32.46v920c42,8.8,84,18.32,126,27.12v-920C651,50.78,609,41.26,567,32.46Z" style="fill: #c00;fill-rule: evenodd"/>
    <path d="M671.72,319s-19.52,5-40.59,1.34S585,302.61,585,302.63c-4.49,3.15-3.4,13.15-1.17,19.72,0,0,22.06,15.43,47.18,19.87,16,2.82,31.06.15,39.54-2,4.88-1.22,5.64-3.12,5.64-3.22C680.25,328.65,677.83,322.18,671.72,319Z" style="fill: #ebeae3;fill-rule: evenodd"/>
    <path d="M671.79,318.55l-.09-.05-.09,0c-.19.06-19.71,4.89-40.49,1.34s-45.77-17.57-46-17.7l-.14-.08-.12.09c-4.85,3.41-3.43,14-1.29,20.35l.06.19.13.1c.21.13,20.38,14.1,43.82,19.23q1.73.38,3.48.69c15.33,2.7,30,.43,39.64-2,4.24-1.06,5.54-2.68,5.81-3.39h0c2-4.07,2.52-8,1.61-11.32A11.87,11.87,0,0,0,671.79,318.55Zm4.13,18.15-.06.12v0c-.16.3-1.17,1.85-5.39,2.91-9.58,2.4-24.2,4.66-39.45,2C607.27,337.54,586,323.25,584.09,322c-2-5.92-3.27-15.62,1-18.81,2.07,1.13,26,14.24,46.06,17.68s39.15-1,40.6-1.32a10.87,10.87,0,0,1,5.74,6.75C678.3,329.29,677.76,332.89,675.92,336.7Z"/>
    <path d="M670.5,412.37Q650.25,346.58,630,280.71q-20.25,57-40.5,114.09c-31-10.07-62.08-19.88-93.12-28.85Q522.69,427,549,488.74q-26.31,51-52.62,102.52c31,2.16,62.08,5.16,93.12,8.41q20.25,65.79,40.5,131.66,20.25-57,40.5-114.09c31,10.07,62.08,19.88,93.11,28.85Q737.32,585,711,523.3q26.31-51,52.61-102.52C732.58,418.62,701.54,415.62,670.5,412.37Z" style="fill: #fff"/>
    <path d="M671.13,410.9Q650.56,344.09,630,277.18q-20.57,57.9-41.14,115.87c-31.52-10.22-63.05-20.17-94.58-29.24q26.73,62,53.44,124.67Q521,540.26,494.28,592.66c31.53,2.15,63.06,5.18,94.58,8.49Q609.43,667.95,630,734.86,650.57,677,671.13,619c31.53,10.22,63.06,20.17,94.58,29.24q-26.72-62-53.44-124.67Q739,471.78,765.71,419.38C734.19,417.23,702.66,414.2,671.13,410.9Zm90.39,233c-30.55-8.86-61.11-18.53-91.66-28.44Q649.93,671.69,630,727.8,610.07,663,590.13,598.2c-30.55-3.2-61.1-6.17-91.65-8.33Q524.37,539.11,550.27,489q-25.9-60.74-51.79-120.9c30.55,8.86,61.1,18.53,91.65,28.44Q610.06,340.35,630,284.25q19.93,64.81,39.86,129.59c30.55,3.2,61.11,6.17,91.66,8.33Q735.62,472.93,709.73,523,735.62,583.78,761.52,643.94Z" style="fill: #161111"/>
    <path d="M678.46,306.47v0Z" style="fill: #b02320;fill-rule: evenodd"/>
    <path d="M675.66,226.5s-1.4-9.69-5.87-12.89-21.11,4.22-26.28,5.54-7.82,3.19-15.09,1.4-20.27-14-22.65-16.36-5.87-4.94-9.08-5.43-6.57,0-8.25,2.92a16.22,16.22,0,0,0-1.68,7,13.78,13.78,0,0,0-6.84-3.91c-4.2-.9-6.57-.58-8.53,2.27s-4.47,11.51-4.47,11.51q2.37,8.37,4.75,16.72.14,10.85.28,21.69,5,12.48,9.92,25,23.76-1,47.53-1.76c48.57,22.28,49.11,26,49.06,26.31q6.64-27.56,13.27-55.14s1.4-11.13-2.23-18.84S675.66,226.5,675.66,226.5Z" style="fill: #b02320;fill-rule: evenodd"/>
    <path d="M676.27,225.14c-.56-2.88-2.3-9.86-6.2-12.65-3.41-2.44-12.06.32-21.39,3.61-2.25.8-4.2,1.48-5.43,1.8s-2,.57-3,.86c-3.48,1.07-6.22,1.91-11.84.54-6.51-1.6-18.27-12.19-22.26-16.13-1.51-1.5-5.5-5-9.52-5.67-2.94-.45-6.86-.24-8.89,3.28a15.58,15.58,0,0,0-1.72,5.8,14.46,14.46,0,0,0-6.12-3.07c-4.1-.87-6.91-.73-9.17,2.57-2,2.95-4.52,11.47-4.63,11.83l-.13.46,4.83,17q.13,10.89.28,21.79,5.17,13,10.36,26.05,24-1,47.94-1.77c44.19,20.28,48.06,25,48.35,25.49a1.57,1.57,0,0,1-.1-1l1.48,1.47.3-.62,0-.18,13.2-54.87c0-.48,1.42-11.76-2.4-19.85C686.84,224.81,678.88,224.91,676.27,225.14Zm14.65,25.63h0Q684.47,277.59,678,304.4c-4.47-4.2-20.73-12.7-48.48-25.44l-.14-.07c-15.7.56-31.4,1.11-47.1,1.74q-4.74-11.94-9.49-23.87-.13-10.66-.28-21.34-2.32-8.35-4.67-16.7c.54-1.8,2.59-8.41,4.18-10.73s3.63-2.89,7.89-2a13.17,13.17,0,0,1,6.39,3.63l1.3,1.46c0-.75,0-1.49,0-2.24a14.8,14.8,0,0,1,1.51-6.27c1.71-3,5.49-2.89,7.59-2.57,2.51.37,5.75,2.33,8.65,5.2.15.14,14.91,14.58,23,16.58,5.94,1.48,9,.53,12.45-.55.92-.28,1.87-.58,2.93-.85,1.28-.33,3.25-1,5.52-1.82,6.41-2.26,17.12-6.07,20.21-3.84,4,2.83,5.3,11.77,5.31,11.86.07.43.13.87.2,1.31l.86-.15c.09,0,9.69-1.52,12.94,5.36C692.17,240.21,690.91,250.77,690.92,250.77Z"/>
    <path d="M676.82,323.18c0-.28-21.87-16.76-47-22.12a103.85,103.85,0,0,0-47.19,1.44,5,5,0,0,0-2,2.89c-1.08,3.11-.1,2.86-.1,2.86a8.38,8.38,0,0,0-.2,4.41c.37,1.88,1.78,2,1.78,2a16.36,16.36,0,0,0-.3,4.11c.1,2.47,2.66,4.31,2.66,4.31s24.83-4.6,45.92,0,40.79,17.05,40.79,17.05a26.5,26.5,0,0,0,5-.94c1-.51.69-2.16.69-2.16a1.57,1.57,0,0,0,1.77-1.49,5.19,5.19,0,0,0-.59-3,5.13,5.13,0,0,0,1.19-2.77C679.38,328.19,676.82,323.18,676.82,323.18Z" style="fill: #ebeae3;fill-rule: evenodd"/>
    <path d="M677.16,323.07l-.1-.2c-.42-.69-22.27-16.85-46.79-22.21l-.45-.1c-24.89-5.31-47.08,1.37-47.34,1.46a5.31,5.31,0,0,0-2.13,3.09c-.57,1.64-.68,2.64-.36,3.24a.56.56,0,0,0,.1.15,9.74,9.74,0,0,0-.06,4.24,2.89,2.89,0,0,0,1.66,2.28,19,19,0,0,0-.19,3.67c.11,2.77,2.78,4.72,2.89,4.8l.1.07.1,0c.25-.06,25-4.53,45.83,0s40.49,16.89,40.69,17l.09.05h.08a26.31,26.31,0,0,0,5.1-1,2.27,2.27,0,0,0,.93-2.13,1.84,1.84,0,0,0,1.72-1.84,6,6,0,0,0-.47-3,5.4,5.4,0,0,0,1.06-2.78C679.73,328.27,677.74,324.2,677.16,323.07Zm.7,9.75a4.4,4.4,0,0,1,.5,2.55,1.29,1.29,0,0,1-1.46,1.14l-.42,0,.11.6c0,.13.19,1.26-.51,1.62a23.25,23.25,0,0,1-4.86.9c-1.43-.87-20.61-12.61-40.8-17s-44.11-.37-45.9,0c-.71-.54-2.27-2.07-2.34-3.74a16.55,16.55,0,0,1,.28-3.93l.17-.7-.53,0a1.68,1.68,0,0,1-1.41-1.53,7.93,7.93,0,0,1,.17-4l.45-.94-.8.2s-.13-.45.46-2.14a5,5,0,0,1,1.77-2.68c.25-.08,22.33-6.71,47.09-1.43l.44.1c23.58,5.16,44.89,20.46,46.32,21.84,1,2,2.41,5.2,2.35,6.13a4.64,4.64,0,0,1-1.07,2.47l-.26.29Z"/>
    <path d="M582.16,221.52c-.46-.27-.6-.63-.86-1.29a5.08,5.08,0,0,0-1.18-2,4.64,4.64,0,0,0-7.17,1.51c-2.05,3.65-1.16,8.39-1.12,8.59l1.44-.31s-.7-3.88.9-6.72a3.54,3.54,0,0,1,5.28-1.25,2.75,2.75,0,0,1,.57,1.07,4.43,4.43,0,0,0,1.77,2.46,2.39,2.39,0,0,0,3.07-.62c-.35-.59-.71-1.18-1.06-1.78A1.34,1.34,0,0,1,582.16,221.52Z"/>
    <path d="M685.28,269a36.58,36.58,0,0,1,.47,9.88s-3.79-4.27-4.8-8.18a73.68,73.68,0,0,1-1.31-8.13q-3.4,10.78-6.8,21.56s1.11-1.15,4.85-.73c5.23.58,7.06,2.57,7.06,2.57l3-.13q3.82-10.74,7.64-21.48l-13.8-10.07S684.17,262.88,685.28,269Z" style="fill: #fc0;fill-rule: evenodd;opacity: 0.9411764740943909"/>
    <path d="M680.88,254.67c0,.08,2.56,8.53,3.64,14.51a38.63,38.63,0,0,1,.57,7.52,19.89,19.89,0,0,1-3.4-6.23,72.2,72.2,0,0,1-1.28-7.87l-.42-4-9.06,28.78,2.41-2.19s1.07-.94,4.4-.57c4.82.53,6.6,2.31,6.6,2.31l.26.28,3.69-.17q4.1-11.52,8.2-23-8.22-6-16.42-12Zm13.42,10.15-7.08,19.92-2.35.1a11.75,11.75,0,0,0-5.15-2.23c-.63-.13-1.33-.25-2.09-.33a11.21,11.21,0,0,0-3.3.05q2.52-7.95,5-15.9c.23,1.51.52,3.22.87,4.58,1.09,4.23,4.95,8.61,5.11,8.79l1,1.12c.06-.55.13-1.1.2-1.65A38.4,38.4,0,0,0,686,268.9c-.75-4.13-2.11-9.23-3-12.27Q688.68,260.74,694.3,264.82Z"/>
    <ellipse cx="629.67" cy="205.05" rx="6.04" ry="37.56" transform="translate(-1.18 3.66) rotate(-0.33)" style="fill: #121116"/>
    <path d="M634,178.32l-8.55-1.87c-.43-.09-.77.34-.77,1v53.08a1.29,1.29,0,0,0,.77,1.29l8.55,1.86c.42.1.77-.33.77-.95V179.61A1.29,1.29,0,0,0,634,178.32Zm-.77,52.91-7-1.53V178.86l7,1.53Z" style="fill: #121116"/>
    <path d="M679.39,290.7,674,292.54l-6.52-2.14L661.77,283l-2.94-9.59L654,278.89l-8.56.94-8.43-5-7.41-15.23s-5.52,13.93-12.51,13.32c-10.1-.9-16-10.56-16-10.56s-3.75,11.5-10,12.4c-9.83,1.43-18-10.55-18.14-10.58q2.76,9.16,5.5,18.33a100.22,100.22,0,0,1,51-2c41.39,9.41,53.14,24,53.14,24q3.06-10,6.13-20l-4.6,2.95Z" style="fill: #f6ca1f;fill-rule: evenodd"/>
    <path d="M679.16,289.77l-5.23,1.79-6.18-2-5.47-7L659,271.89,653.66,278l-8.24.91-8.06-4.79-7.89-16.23L629,259c0,.14-5.44,13.51-12,12.93-9.65-.83-15.4-10.09-15.46-10.18l-.67-1.1c-.12.39-.25.78-.38,1.16,0,.12-3.69,11.12-9.52,12-7.53,1.09-14.12-5.81-17.37-10-.28-.35-.39-.5-.62-.55l-1-.21q3.09,10.31,6.19,20.62l.56-.2a101.77,101.77,0,0,1,50.73-2C670,290.64,682.1,305,682.21,305.14l.67.81,7.2-23.45-6.3,4Zm8.2-3.33q-2.54,8.26-5.08,16.54c-3-3.16-16.57-15.22-52.83-23.47l-.76-.17a102.18,102.18,0,0,0-49.88,2q-2.12-7-4.22-14.1c3.77,4.3,9.84,9.43,16.69,8.44,5.37-.78,8.9-8.83,10-11.79,1.84,2.57,7.37,9.19,15.81,9.94,6.13.55,11-9.16,12.55-12.56l7,14.28,8.79,5.23,8.89-1,4.33-4.89,2.56,8.35,6.1,8,6.84,2.26,5.62-1.95,4.71-3.27Z"/>
    <path d="M662.89,172.45c-2.43-.5-4.4,2-4.39,5.62s2,7,4.43,7.47,4.41-2,4.41-5.59v0C667.32,176.29,665.33,173,662.89,172.45Z" style="fill: #eee"/>
    <path d="M662.93,184.41h0c-2-.43-3.64-3.2-3.65-6.18s1.62-5.07,3.63-4.66h0c2,.43,3.63,3.19,3.65,6.16l1.53.31c0-4.2-2.34-8.1-5.18-8.71h0c-2.86-.59-5.17,2.36-5.16,6.58s2.34,8.13,5.19,8.74h0c2.85.6,5.17-2.33,5.17-6.55l-1.53-.33C666.57,182.76,664.93,184.84,662.93,184.41Z" style="fill: #1e1e1e"/>
    <path d="M664.79,180.55c-.36,2-3.93,1.36-3.93,1.36a3.63,3.63,0,0,0,2.72,1.47c1.22-.16,1.7-.61,2.18-2.62s-1.21-5.12-1.21-5.12A15.65,15.65,0,0,1,664.79,180.55Z" style="fill: #a3afb8;fill-rule: evenodd"/>
    <path d="M652.16,177.46c-2.43-.51-4.4,2-4.39,5.61s2,7,4.43,7.47,4.4-2,4.4-5.58v-.05C656.58,181.3,654.6,178,652.16,177.46Z" style="fill: #eee"/>
    <path d="M652.16,178.58h0c2,.44,3.63,3.2,3.65,6.17l1.53.31c0-4.2-2.34-8.1-5.18-8.72h0c-2.86-.6-5.17,2.35-5.16,6.57s2.34,8.13,5.19,8.75h0c2.85.61,5.17-2.32,5.17-6.53l-1.53-.34c0,3-1.64,5.06-3.65,4.63h0c-2-.44-3.64-3.21-3.65-6.19S650.16,178.16,652.16,178.58Z" style="fill: #1e1e1e"/>
    <path d="M654.06,185.56c-.36,2-3.93,1.35-3.93,1.35a3.65,3.65,0,0,0,2.72,1.48c1.22-.16,1.7-.61,2.18-2.62s-1.21-5.12-1.21-5.12A15.65,15.65,0,0,1,654.06,185.56Z" style="fill: #a3afb8;fill-rule: evenodd"/>
    <path d="M675.35,170.83c-2.43-.5-4.4,2-4.39,5.63s2,6.94,4.43,7.46,4.41-2,4.4-5.6v0C679.78,174.66,677.79,171.33,675.35,170.83Z" style="fill: #eee"/>
    <path d="M675.36,172h0c2,.43,3.63,3.18,3.65,6.15l1.53.31c0-4.2-2.34-8.1-5.18-8.7h0c-2.86-.58-5.17,2.37-5.16,6.59s2.34,8.13,5.19,8.74h0c2.85.6,5.17-2.34,5.17-6.56l-1.53-.32c0,3-1.64,5.06-3.65,4.64h0c-2-.42-3.64-3.19-3.65-6.17S673.35,171.54,675.36,172Z" style="fill: #1e1e1e"/>
    <path d="M677.25,178.93c-.36,2-3.93,1.37-3.93,1.36a3.63,3.63,0,0,0,2.72,1.47c1.22-.16,1.7-.61,2.18-2.63S677,174,677,174A15.61,15.61,0,0,1,677.25,178.93Z" style="fill: #a3afb8;fill-rule: evenodd"/>
    <path d="M689.38,177.93c-2.43-.49-4.4,2-4.39,5.64s2,6.94,4.43,7.45,4.41-2,4.41-5.62v-.05C693.81,181.74,691.82,178.43,689.38,177.93Z" style="fill: #eee"/>
    <path d="M689.39,179.06c2,.44,3.65,3.15,3.67,6.14l1.53.3c0-4.2-2.34-8.08-5.18-8.68h0c-2.85-.57-5.17,2.39-5.15,6.6s2.33,8.13,5.18,8.73h0c2.85.59,5.17-2.36,5.17-6.58l-1.53-.32c0,3-1.64,5.07-3.64,4.66h0c-2-.43-3.64-3.19-3.65-6.17S687.38,178.65,689.39,179.06Z" style="fill: #1e1e1e"/>
    <path d="M691.29,186c-.37,2-3.94,1.38-3.94,1.38a3.62,3.62,0,0,0,2.73,1.46c1.22-.17,1.69-.62,2.17-2.64s-1.21-5.11-1.21-5.11A15.85,15.85,0,0,1,691.29,186Z" style="fill: #a3afb8;fill-rule: evenodd"/>
    <path d="M700.08,193c-2.44-.49-4.4,2-4.39,5.65s2,6.93,4.42,7.43,4.41-2,4.41-5.63v-.05C704.5,196.83,702.52,193.52,700.08,193Z" style="fill: #eee"/>
    <path d="M700.11,205h0c-2-.42-3.64-3.18-3.64-6.16s1.61-5.08,3.62-4.68,3.66,3.14,3.67,6.13l1.54.3c0-4.2-2.35-8.08-5.18-8.67h0c-2.86-.56-5.17,2.41-5.16,6.62s2.34,8.12,5.18,8.71h0c2.85.59,5.17-2.37,5.17-6.59l-1.53-.31C703.76,203.32,702.12,205.41,700.11,205Z" style="fill: #1e1e1e"/>
    <path d="M702,201.12c-.36,2-3.93,1.39-3.93,1.39a3.54,3.54,0,0,0,2.72,1.45c1.22-.17,1.7-.62,2.18-2.64s-1.21-5.11-1.21-5.11A16,16,0,0,1,702,201.12Z" style="fill: #a3afb8;fill-rule: evenodd"/>
    <path d="M704.7,215.11c-2.43-.48-4.4,2-4.39,5.66s2,6.93,4.43,7.43,4.4-2,4.4-5.64v-.05C709.12,218.9,707.14,215.59,704.7,215.11Z" style="fill: #eee"/>
    <path d="M704.71,216.24h0c2,.41,3.63,3.15,3.65,6.12l1.53.3c0-4.2-2.34-8.08-5.18-8.66h0c-2.86-.56-5.17,2.41-5.16,6.63s2.34,8.11,5.19,8.7h0c2.85.58,5.17-2.39,5.17-6.6l-1.53-.31c0,3-1.64,5.07-3.65,4.66h0c-2-.41-3.64-3.17-3.65-6.15S702.7,215.84,704.71,216.24Z" style="fill: #1e1e1e"/>
    <path d="M706.6,223.19c-.36,2.05-3.93,1.4-3.93,1.4a3.59,3.59,0,0,0,2.72,1.44c1.22-.17,1.7-.62,2.18-2.64s-1.21-5.11-1.21-5.11A15.61,15.61,0,0,1,706.6,223.19Z" style="fill: #a3afb8;fill-rule: evenodd"/>
    <path d="M703,236.12c-2.44-.48-4.4,2-4.39,5.66s2,6.93,4.42,7.43,4.41-2,4.41-5.63v-.05C707.41,239.92,705.42,236.61,703,236.12Z" style="fill: #eee"/>
    <path d="M703,237.25h0c2,.41,3.64,3.15,3.65,6.13l1.54.29c0-4.2-2.35-8.08-5.19-8.66h0c-2.85-.56-5.16,2.41-5.15,6.62s2.34,8.12,5.18,8.71h0c2.86.58,5.18-2.38,5.18-6.6l-1.54-.31c0,3-1.63,5.08-3.64,4.67h0c-2-.41-3.64-3.17-3.65-6.14S701,236.85,703,237.25Z" style="fill: #1e1e1e"/>
    <path d="M704.89,244.2c-.36,2.05-3.93,1.4-3.93,1.4a3.6,3.6,0,0,0,2.72,1.45c1.22-.18,1.69-.63,2.18-2.65s-1.21-5.11-1.21-5.11A16,16,0,0,1,704.89,244.2Z" style="fill: #a3afb8;fill-rule: evenodd"/>
    <path d="M696.49,253.52c-2.44-.49-4.4,2-4.39,5.64s2,6.94,4.42,7.44,4.41-2,4.41-5.62v-.05C700.91,257.32,698.92,254,696.49,253.52Z" style="fill: #eee"/>
    <path d="M696.49,254.64h0c2,.41,3.63,3.16,3.65,6.13l1.54.3c0-4.21-2.35-8.08-5.19-8.68h0c-2.85-.57-5.16,2.39-5.15,6.61s2.33,8.12,5.18,8.71h0c2.86.58,5.18-2.38,5.18-6.59l-1.54-.32c0,3-1.63,5.07-3.64,4.66h0c-2-.42-3.64-3.18-3.65-6.16S694.48,254.24,696.49,254.64Z" style="fill: #1e1e1e"/>
    <path d="M698.39,261.6c-.36,2-3.93,1.39-3.93,1.39a3.54,3.54,0,0,0,2.72,1.45c1.22-.17,1.69-.62,2.18-2.64s-1.21-5.11-1.21-5.11A16,16,0,0,1,698.39,261.6Z" style="fill: #a3afb8;fill-rule: evenodd"/>
    <path d="M641.72,180.81c-2.43-.51-4.4,2-4.39,5.61s2,7,4.43,7.47,4.41-2,4.41-5.58v-.05C646.15,184.65,644.16,181.32,641.72,180.81Z" style="fill: #eee"/>
    <path d="M641.73,181.93h0c2,.43,3.63,3.19,3.65,6.17l1.53.31c0-4.22-2.44-8.18-5.21-8.73s-5.17,2.35-5.16,6.56,2.34,8.14,5.19,8.76h0c2.85.61,5.17-2.32,5.17-6.54l-1.53-.33c0,3-1.64,5-3.64,4.62h0c-2-.44-3.64-3.21-3.65-6.19S639.72,181.51,641.73,181.93Z" style="fill: #1e1e1e"/>
    <path d="M643.62,188.91c-.36,2-3.93,1.35-3.93,1.35a3.65,3.65,0,0,0,2.72,1.48c1.22-.16,1.7-.6,2.18-2.62s-1.21-5.12-1.21-5.12A15.65,15.65,0,0,1,643.62,188.91Z" style="fill: #a3afb8;fill-rule: evenodd"/>
    <path d="M629.11,177.46c-2-.43-3.68,1.67-3.67,4.69s1.66,5.81,3.7,6.25,3.69-1.65,3.68-4.66v0C632.81,180.68,631.15,177.89,629.11,177.46Z" style="fill: #eee"/>
    <path d="M629.11,178.58h0c1.6.35,2.91,2.56,2.93,4.95l1.53.32c0-3.64-2-7.11-4.49-7.52s-4.44,2-4.43,5.65,2,7,4.46,7.53h0c2.46.52,4.46-2,4.45-5.63l-1.53-.33c0,2.39-1.31,4.06-2.92,3.71h0c-1.61-.35-2.92-2.58-2.92-5S627.5,178.25,629.11,178.58Z" style="fill: #1e1e1e"/>
    <path d="M630.7,184.24c-.3,1.7-3.29,1.13-3.29,1.13a3,3,0,0,0,2.28,1.23c1-.13,1.41-.5,1.82-2.19s-1-4.28-1-4.28A13.43,13.43,0,0,1,630.7,184.24Z" style="fill: #a3afb8;fill-rule: evenodd"/>
    <path d="M629.15,184.27c-2-.43-3.68,1.67-3.67,4.68s1.67,5.82,3.7,6.26,3.69-1.65,3.69-4.67v0C632.85,187.48,631.19,184.69,629.15,184.27Z" style="fill: #eee"/>
    <path d="M629.16,185.39h0c1.6.35,2.91,2.57,2.92,5l1.54.32c0-3.62-2-7-4.46-7.51h0c-2.46-.51-4.45,2-4.44,5.65s2,7,4.47,7.54h0c2.46.53,4.46-2,4.46-5.62l-1.54-.33c0,2.39-1.31,4.05-2.92,3.71h0c-1.61-.36-2.92-2.58-2.93-5S627.55,185.05,629.16,185.39Z" style="fill: #1e1e1e"/>
    <path d="M630.74,191c-.3,1.71-3.29,1.13-3.29,1.13a3.06,3.06,0,0,0,2.28,1.24c1-.14,1.42-.51,1.82-2.19s-1-4.29-1-4.29A13.09,13.09,0,0,1,630.74,191Z" style="fill: #a3afb8;fill-rule: evenodd"/>
    <path d="M629.41,194.32c-2-.43-3.68,1.67-3.67,4.69s1.66,5.81,3.7,6.25,3.68-1.65,3.69-4.66v0C633.11,197.54,631.45,194.75,629.41,194.32Z" style="fill: #eee"/>
    <path d="M629.41,195.44h0c1.6.34,2.91,2.56,2.93,5l1.53.31c0-3.61-2-7-4.46-7.51h0c-2.45-.52-4.44,2-4.43,5.64s2,7,4.46,7.54h0c2.46.53,4.45-2,4.45-5.61l-1.53-.34c0,2.39-1.31,4.06-2.92,3.71h0c-1.61-.35-2.92-2.58-2.92-5S627.8,195.1,629.41,195.44Z" style="fill: #1e1e1e"/>
    <path d="M631,201.09c-.3,1.71-3.29,1.13-3.29,1.13a3,3,0,0,0,2.28,1.24c1-.13,1.41-.5,1.82-2.19s-1-4.28-1-4.28A13.38,13.38,0,0,1,631,201.09Z" style="fill: #a3afb8;fill-rule: evenodd"/>
    <path d="M629.49,204.51c-2.21-.46-4,1.81-4,5.07s1.8,6.29,4,6.76,4-1.78,4-5v-.05C633.49,208,631.69,205,629.49,204.51Z" style="fill: #eee"/>
    <path d="M629.49,205.63h0c1.77.38,3.21,2.82,3.23,5.45l1.53.32c0-3.88-2.16-7.41-4.79-8s-4.74,2.15-4.73,6,2.15,7.47,4.76,8h0c2.62.57,4.75-2.12,4.75-6l-1.53-.34c0,2.64-1.45,4.47-3.22,4.09h0c-1.77-.39-3.22-2.84-3.23-5.48S627.72,205.26,629.49,205.63Z" style="fill: #1e1e1e"/>
    <path d="M631.21,211.84c-.33,1.84-3.56,1.22-3.56,1.22a3.27,3.27,0,0,0,2.46,1.33c1.11-.14,1.53-.54,2-2.36s-1.09-4.64-1.09-4.64A14.66,14.66,0,0,1,631.21,211.84Z" style="fill: #a3afb8;fill-rule: evenodd"/>
    <path d="M629.49,218.13c-2.44-.51-4.4,2-4.39,5.6s2,7,4.42,7.48,4.41-2,4.41-5.57v-.06C633.91,222,631.92,218.64,629.49,218.13Z" style="fill: #eee"/>
    <path d="M629.49,219.25h0c2,.43,3.64,3.19,3.65,6.17l1.54.31c0-4.2-2.35-8.11-5.19-8.73h0c-2.85-.6-5.16,2.34-5.15,6.56s2.34,8.14,5.18,8.76h0c2.85.62,5.17-2.31,5.17-6.53l-1.54-.33c0,3-1.63,5.05-3.64,4.62h0c-2-.44-3.64-3.21-3.64-6.19S627.48,218.83,629.49,219.25Z" style="fill: #1e1e1e"/>
    <path d="M631.39,226.23c-.36,2-3.93,1.35-3.93,1.35a3.61,3.61,0,0,0,2.72,1.48c1.22-.16,1.69-.6,2.18-2.62s-1.21-5.12-1.21-5.12A16,16,0,0,1,631.39,226.23Z" style="fill: #a3afb8;fill-rule: evenodd"/>
    <path d="M629.32,247.73c-2.29-.48-4.13,1.87-4.13,5.26s1.87,6.53,4.16,7,4.14-1.85,4.14-5.23v-.05C633.47,251.34,631.61,248.21,629.32,247.73Z" style="fill: #eee"/>
    <path d="M629.32,248.85h0c1.86.41,3.37,3,3.38,5.72l1.54.32c0-4-2.22-7.69-4.92-8.28h0c-2.7-.56-4.89,2.23-4.88,6.23s2.21,7.72,4.91,8.3h0c2.71.58,4.91-2.2,4.91-6.2l-1.54-.33c0,2.76-1.51,4.68-3.37,4.28h0c-1.85-.4-3.37-3-3.38-5.74S627.46,248.46,629.32,248.85Z" style="fill: #1e1e1e"/>
    <path d="M631.1,255.33c-.34,1.92-3.69,1.27-3.69,1.27A3.42,3.42,0,0,0,630,258c1.14-.15,1.59-.56,2-2.46s-1.13-4.81-1.13-4.81A14.69,14.69,0,0,1,631.1,255.33Z" style="fill: #a3afb8;fill-rule: evenodd"/>
    <path d="M617.09,175.27c-2.43-.51-4.4,2-4.39,5.6s2,7,4.43,7.48,4.41-2,4.41-5.58v-.05C621.52,179.11,619.53,175.77,617.09,175.27Z" style="fill: #eee"/>
    <path d="M617.1,176.39c2,.35,3.65,3.19,3.67,6.17l1.53.32c0-4.21-2.34-8.11-5.18-8.73h0c-2.85-.59-5.17,2.35-5.16,6.57s2.34,8.14,5.19,8.76h0c2.85.61,5.17-2.31,5.17-6.53l-1.53-.34c0,3-1.64,5.06-3.64,4.63s-3.65-3.21-3.66-6.19S615.09,176,617.1,176.39Z" style="fill: #1e1e1e"/>
    <path d="M619,183.37c-.37,2-3.94,1.35-3.94,1.35a3.68,3.68,0,0,0,2.73,1.48c1.21-.16,1.69-.61,2.17-2.62s-1.21-5.13-1.21-5.13A15.89,15.89,0,0,1,619,183.37Z" style="fill: #a3afb8;fill-rule: evenodd"/>
    <path d="M606.14,166.58c-2.43-.51-4.4,2-4.39,5.61s2,6.95,4.43,7.47,4.4-2,4.41-5.58V174C610.57,170.42,608.58,167.09,606.14,166.58Z" style="fill: #eee"/>
    <path d="M606.15,167.7h0c2,.43,3.63,3.19,3.65,6.16l1.53.32c0-4.21-2.34-8.11-5.18-8.73h0c-2.85-.6-5.17,2.35-5.16,6.57s2.34,8.14,5.19,8.75h0c2.85.61,5.17-2.33,5.17-6.54l-1.53-.33c0,3-1.64,5.05-3.64,4.62h0c-2-.43-3.64-3.21-3.65-6.19S604.14,167.28,606.15,167.7Z" style="fill: #1e1e1e"/>
    <path d="M608,174.68c-.36,2-3.93,1.36-3.93,1.36a3.63,3.63,0,0,0,2.72,1.47c1.22-.16,1.7-.6,2.18-2.62s-1.21-5.12-1.21-5.12A15.65,15.65,0,0,1,608,174.68Z" style="fill: #a3afb8;fill-rule: evenodd"/>
    <path d="M595.65,157.11c-2.43-.51-4.4,2-4.39,5.61s2,6.95,4.43,7.47,4.41-2,4.41-5.59v0C600.08,160.94,598.09,157.61,595.65,157.11Z" style="fill: #eee"/>
    <path d="M595.66,158.23c2,.34,3.65,3.18,3.67,6.16l1.54.32c0-4.21-2.35-8.11-5.19-8.72h0c-2.85-.59-5.16,2.37-5.15,6.58s2.33,8.14,5.18,8.75h0c2.85.61,5.18-2.33,5.18-6.54l-1.54-.33c0,3-1.63,5.05-3.64,4.63h0c-2-.44-3.64-3.21-3.65-6.18S593.65,157.81,595.66,158.23Z" style="fill: #1e1e1e"/>
    <path d="M597.56,165.2c-.37,2-3.94,1.36-3.94,1.36a3.63,3.63,0,0,0,2.73,1.47c1.22-.16,1.69-.6,2.17-2.62s-1.21-5.12-1.21-5.12A15.85,15.85,0,0,1,597.56,165.2Z" style="fill: #a3afb8;fill-rule: evenodd"/>
    <path d="M583.62,150.69c-2.43-.49-4.4,2-4.39,5.63s2,7,4.43,7.46,4.41-2,4.41-5.6v-.05C588.05,154.52,586.06,151.19,583.62,150.69Z" style="fill: #eee"/>
    <path d="M583.63,151.82c2,.4,3.65,3.17,3.67,6.16l1.53.31c0-4.21-2.34-8.11-5.18-8.71h0c-2.85-.58-5.17,2.38-5.16,6.6s2.34,8.12,5.19,8.73h0c2.85.6,5.17-2.34,5.17-6.55L587.3,158c0,3-1.63,5.06-3.64,4.64h0c-2-.43-3.64-3.2-3.65-6.18S581.62,151.4,583.63,151.82Z" style="fill: #1e1e1e"/>
    <path d="M585.53,158.79c-.37,2-3.94,1.37-3.94,1.37a3.62,3.62,0,0,0,2.73,1.46c1.21-.16,1.69-.61,2.17-2.63s-1.21-5.11-1.21-5.11A15.81,15.81,0,0,1,585.53,158.79Z" style="fill: #a3afb8;fill-rule: evenodd"/>
    <path d="M569.43,152.64c-2.43-.49-4.4,2-4.39,5.65s2,6.93,4.43,7.44,4.41-2,4.41-5.61v-.05C573.86,156.46,571.87,153.13,569.43,152.64Z" style="fill: #eee"/>
    <path d="M569.44,153.77h0c2,.42,3.63,3.17,3.65,6.14l1.54.31c0-4.2-2.35-8.09-5.19-8.69h0c-2.85-.57-5.17,2.39-5.15,6.61s2.33,8.12,5.18,8.72h0c2.85.59,5.18-2.35,5.18-6.57l-1.54-.32c0,3-1.63,5.06-3.64,4.65h0c-2-.43-3.64-3.19-3.65-6.17S567.43,153.36,569.44,153.77Z" style="fill: #1e1e1e"/>
    <path d="M571.34,160.73c-.37,2-3.94,1.38-3.94,1.38a3.62,3.62,0,0,0,2.73,1.46c1.21-.17,1.69-.62,2.17-2.64s-1.21-5.11-1.21-5.11A15.85,15.85,0,0,1,571.34,160.73Z" style="fill: #a3afb8;fill-rule: evenodd"/>
    <path d="M559.41,165.19c-2.44-.48-4.4,2.05-4.39,5.66s2,6.92,4.42,7.42,4.41-2,4.41-5.62v-.05C563.83,169,561.84,165.67,559.41,165.19Z" style="fill: #eee"/>
    <path d="M559.41,166.31h0c2,.41,3.63,3.15,3.64,6.13l1.54.3c0-4.2-2.34-8.09-5.18-8.68h0c-2.85-.57-5.16,2.4-5.15,6.62s2.34,8.11,5.19,8.7h0c2.85.58,5.17-2.37,5.17-6.59l-1.54-.32c0,3-1.63,5.07-3.64,4.66h0c-2-.42-3.65-3.17-3.65-6.15S557.4,165.91,559.41,166.31Z" style="fill: #1e1e1e"/>
    <path d="M561.31,173.27c-.36,2-3.93,1.39-3.93,1.39a3.54,3.54,0,0,0,2.72,1.45c1.22-.17,1.69-.62,2.18-2.64s-1.21-5.11-1.21-5.11A16,16,0,0,1,561.31,173.27Z" style="fill: #a3afb8;fill-rule: evenodd"/>
    <path d="M555.24,184.83c-2.43-.48-4.4,2-4.39,5.66s2,6.93,4.43,7.42,4.41-2,4.41-5.63v-.05C559.67,188.62,557.68,185.31,555.24,184.83Z" style="fill: #eee"/>
    <path d="M555.28,196.79h0c-2-.42-3.64-3.17-3.65-6.15s1.62-5.09,3.63-4.69h0c2,.42,3.63,3.16,3.65,6.13l1.54.3c0-4.2-2.35-8.08-5.19-8.67h0c-2.85-.56-5.17,2.42-5.15,6.64s2.33,8.1,5.18,8.69h0c2.85.58,5.18-2.37,5.18-6.59l-1.54-.32C558.92,195.1,557.29,197.2,555.28,196.79Z" style="fill: #1e1e1e"/>
    <path d="M557.15,192.91c-.37,2-3.94,1.39-3.94,1.39a3.61,3.61,0,0,0,2.73,1.45c1.22-.17,1.69-.62,2.17-2.64S556.9,188,556.9,188A15.81,15.81,0,0,1,557.15,192.91Z" style="fill: #a3afb8;fill-rule: evenodd"/>
    <path d="M557.09,206.61c-2.43-.48-4.4,2-4.39,5.66s2,6.92,4.43,7.42,4.41-2,4.41-5.62V214C561.52,210.4,559.53,207.09,557.09,206.61Z" style="fill: #eee"/>
    <path d="M557.1,207.73h0c2,.42,3.63,3.16,3.65,6.13l1.54.31c0-4.21-2.35-8.09-5.19-8.68h0c-2.85-.57-5.17,2.41-5.15,6.62s2.33,8.11,5.18,8.7h0c2.85.58,5.18-2.37,5.18-6.58l-1.54-.32c0,3-1.63,5.07-3.64,4.66h0c-2-.42-3.64-3.17-3.65-6.15S555.09,207.33,557.1,207.73Z" style="fill: #1e1e1e"/>
    <path d="M559,214.69c-.37,2-3.94,1.39-3.94,1.39a3.58,3.58,0,0,0,2.73,1.45c1.22-.17,1.69-.62,2.17-2.64s-1.21-5.11-1.21-5.11A15.81,15.81,0,0,1,559,214.69Z" style="fill: #a3afb8;fill-rule: evenodd"/>
    <path d="M563.88,227.38c-2.43-.48-4.4,2.05-4.39,5.66s2,6.93,4.43,7.43,4.4-2,4.4-5.62v0C568.31,231.19,566.32,227.87,563.88,227.38Z" style="fill: #eee"/>
    <path d="M563.89,228.51c2,.37,3.65,3.16,3.67,6.14l1.53.3c0-4.2-2.34-8.09-5.18-8.68h0c-2.85-.57-5.17,2.4-5.16,6.62s2.34,8.11,5.19,8.71h0c2.85.59,5.17-2.36,5.17-6.58l-1.53-.32c0,3-1.64,5.07-3.64,4.66h0c-2-.42-3.64-3.18-3.65-6.16S561.88,228.11,563.89,228.51Z" style="fill: #1e1e1e"/>
    <path d="M565.78,235.47c-.36,2-3.93,1.39-3.93,1.39a3.64,3.64,0,0,0,2.72,1.45c1.22-.17,1.7-.62,2.18-2.64s-1.21-5.11-1.21-5.11A15.61,15.61,0,0,1,565.78,235.47Z" style="fill: #a3afb8;fill-rule: evenodd"/>
    <path d="M576,260.82c-.65-3.61-2.37-6.31-3.85-6s-2.14,3.45-1.49,7.07,2.36,6.32,3.83,6.05,2.15-3.43,1.52-7Z" style="fill: #eee"/>
    <path d="M573.52,261.32v0l5.34-1a16.29,16.29,0,0,0-3.66-8.25,4.29,4.29,0,0,0-3.84-1.59c-3.14.62-4.68,5.76-3.57,11.95a19,19,0,0,0,2.44,6.69,6.51,6.51,0,0,0,3.8,3.16,3.05,3.05,0,0,0,1.24,0c3.16-.58,4.7-5.7,3.61-11.91Z" style="fill: #1e1e1e"/>
    <path d="M573.65,257.46a25.64,25.64,0,0,1,1,4.85,2.55,2.55,0,0,1-2,2.64c.53.64,1.35,1,1.8.59.67-.56.86-1.16.78-3.34A12.43,12.43,0,0,0,573.65,257.46Z" style="fill: #a3afb8;fill-rule: evenodd"/>
    <path d="M688.44,279.07c-1.49-.83-3.17,1.23-3.75,4.61s.14,6.8,1.62,7.64,3.17-1.21,3.76-4.59v-.05C690.66,283.3,689.93,279.89,688.44,279.07Z" style="fill: #eee"/>
    <path d="M689.12,275c-3.16-1.76-6.31,1.27-7.32,7.06a19.33,19.33,0,0,0,.1,7.16c.63,2.95,2,5.21,3.71,6.19a3.92,3.92,0,0,0,1.15.45c2.76.58,5.31-2.37,6.2-7.46l-5.38-3.07v0l5.38,3a18,18,0,0,0-.74-9.29A7.67,7.67,0,0,0,689.12,275Z" style="fill: #1e1e1e"/>
    <path d="M688.34,286.92c-.57,1.86-2.76.7-2.76.7.29.9,1,1.76,1.51,1.78.81,0,1.19-.32,1.84-2.14s.06-5,.06-5A22.27,22.27,0,0,1,688.34,286.92Z" style="fill: #a3afb8;fill-rule: evenodd"/>
    <path d="M636.52,161.51l-3.18-.7c-.11-3.74-.21-7.48-.32-11.22l-7.32-1.37c.1,3.67.21,7.33.32,11,0,0-8.87-.8-9.23.31-1.73,5.26,2.07,13.7,2.06,13.7s3-2.61,10.51-1c7.16,1.56,10.82,4.92,10.82,4.92a20.59,20.59,0,0,0,1.91-7.26,34.08,34.08,0,0,0-.8-6.68S637.63,161.75,636.52,161.51Z" style="fill: #b3a192;fill-rule: evenodd"/>
    <path d="M641.86,162.34l-.47-.19c-.15-.06-3.72-1.51-4.87-1.77l-2.45-.53c-.1-3.75-.21-7.5-.31-11.25L624.9,147c.11,3.69.21,7.38.32,11.07-8.61-.71-9,.37-9.14.9-1.88,5.75,2,14.46,2.15,14.83s.31.67.46,1l.62-.52s2.94-2.4,10.05-.85a24.46,24.46,0,0,1,10.49,4.74l.62.56.36-.76a21.77,21.77,0,0,0,2-7.83A36.14,36.14,0,0,0,642,163C642,162.8,641.91,162.57,641.86,162.34Zm-2,13.36a27,27,0,0,0-10.49-4.56c-5.75-1.25-9-.09-10.27.63-.85-2.19-2.74-7.73-1.67-11.43.87-.4,5.08-.32,8.66,0l.73.06c-.1-3.64-.21-7.28-.31-10.92l5.78,1.08c.11,3.73.21,7.47.32,11.2l3.92.86a42.47,42.47,0,0,1,4.19,1.51,31.22,31.22,0,0,1,.61,5.62A17.49,17.49,0,0,1,639.85,175.7Z"/>
    <path d="M629.35,157.76c-.77-.16-1.39.58-1.38,1.66a2.24,2.24,0,0,0,1.39,2.24c.77.17,1.39-.57,1.39-1.64v0A2.23,2.23,0,0,0,629.35,157.76Z" style="fill: #f0ddcb"/>
    <path d="M621.62,162.4c-.91-.19-1.65.69-1.65,2a2.7,2.7,0,0,0,1.66,2.67c.91.19,1.65-.68,1.65-2h0A2.67,2.67,0,0,0,621.62,162.4Z" style="fill: #f0ddcb"/>
    <path d="M625.69,162.89c-.91-.19-1.65.69-1.64,2a2.68,2.68,0,0,0,1.65,2.67c.91.19,1.65-.68,1.65-2h0A2.67,2.67,0,0,0,625.69,162.89Z" style="fill: #f0ddcb"/>
    <path d="M629.35,153.58c-.77-.16-1.39.58-1.38,1.65a2.25,2.25,0,0,0,1.39,2.25c.77.16,1.39-.57,1.39-1.65h0A2.23,2.23,0,0,0,629.35,153.58Z" style="fill: #f0ddcb"/>
    <path d="M636.75,165.36c-.88-.19-1.58.66-1.58,1.88a2.58,2.58,0,0,0,1.59,2.56c.88.19,1.59-.65,1.59-1.87v0A2.57,2.57,0,0,0,636.75,165.36Z" style="fill: #f0ddcb"/>
    <path d="M640.34,167.23c-.92-.19-1.66.69-1.65,2a2.68,2.68,0,0,0,1.66,2.67c.91.2,1.65-.68,1.65-2v0A2.67,2.67,0,0,0,640.34,167.23Z" style="fill: #f0ddcb"/>
    <path d="M629.35,148.7c-.77-.16-1.39.58-1.38,1.65a2.25,2.25,0,0,0,1.39,2.25c.77.16,1.39-.57,1.39-1.65h0A2.23,2.23,0,0,0,629.35,148.7Z" style="fill: #f0ddcb"/>
    <path d="M633.09,164.48c-.88-.19-1.58.66-1.58,1.88a2.58,2.58,0,0,0,1.59,2.56c.88.19,1.59-.65,1.59-1.88h0A2.57,2.57,0,0,0,633.09,164.48Z" style="fill: #f0ddcb"/>
    <path d="M625.69,163.46h0a2,2,0,0,1,1.26,2l.78.16c0-1.59-.92-3.06-2-3.31h0c-1.13-.24-2,.86-2,2.45a.13.13,0,0,1,0,.06,3.26,3.26,0,0,0-2-3h0c-1.12-.24-2,.86-2,2.45s.92,3.07,2,3.32h0c1.13.24,2-.86,2-2.44l-.78-.17c0,.95-.57,1.61-1.26,1.46h0a2,2,0,0,1-1.26-2c0-1,.56-1.62,1.25-1.48h0a2,2,0,0,1,1.26,2l.78.17v0a3.23,3.23,0,0,0,2,3h0c1.13.24,2-.85,2-2.44l-.78-.17c0,1-.57,1.61-1.26,1.46h0a2,2,0,0,1-1.26-2C624.44,164,625,163.32,625.69,163.46Z" style="fill: #121116"/>
    <path d="M640.34,167.8h0a2,2,0,0,1,1.26,2l.78.17c0-1.59-.92-3.07-2-3.32h0a1.51,1.51,0,0,0-1.63.81,3.06,3.06,0,0,0-1.94-2.68h0a1.61,1.61,0,0,0-1.81,1.29,2.85,2.85,0,0,0-1.84-2.17h0c-1.09-.22-2,.84-2,2.38s.89,3,2,3.21h0a1.61,1.61,0,0,0,1.82-1.29,2.83,2.83,0,0,0,1.84,2.17h0a1.46,1.46,0,0,0,1.57-.76,3.18,3.18,0,0,0,2,2.82h0c1.13.24,2-.85,2-2.44l-.78-.17c0,1-.57,1.62-1.26,1.47h0a2,2,0,0,1-1.26-2C639.08,168.32,639.64,167.66,640.34,167.8Zm-5.56-.73-.49-.11c0,.91-.53,1.53-1.19,1.39h0a1.94,1.94,0,0,1-1.2-1.91c0-.9.53-1.53,1.19-1.39h0a1.91,1.91,0,0,1,1.19,1.9l.49.1Zm3.7.89-.53-.12c0,.91-.53,1.53-1.19,1.39h0a1.92,1.92,0,0,1-1.2-1.9c0-.91.53-1.54,1.19-1.4h0a1.91,1.91,0,0,1,1.19,1.9l.54.11Z" style="fill: #121116"/>
    <path d="M630.36,159.93c0,.76-.45,1.28-1,1.16h0a1.6,1.6,0,0,1-1-1.59,1.45,1.45,0,0,1,.28-.91.73.73,0,0,1,.71-.26h0a1.6,1.6,0,0,1,1,1.59l.78.16a3.48,3.48,0,0,0-.79-2.24,2.34,2.34,0,0,0,.79-1.92l-.78-.17c0,.76-.45,1.28-1,1.16h0a1.61,1.61,0,0,1-1-1.59,1.43,1.43,0,0,1,.28-.91.7.7,0,0,1,.72-.26,1.6,1.6,0,0,1,1,1.59l.78.16a3.2,3.2,0,0,0-1.33-2.71c.77-.12,1.33-1,1.33-2.15l-.78-.17c0,.76-.45,1.28-1,1.16h0a1.61,1.61,0,0,1-1-1.6,1.42,1.42,0,0,1,.28-.9.69.69,0,0,1,.71-.26h0a1.6,1.6,0,0,1,1,1.59l.78.16a2.89,2.89,0,0,0-1.78-2.89h0a1.26,1.26,0,0,0-1.25.47,2.62,2.62,0,0,0-.53,1.68,3.24,3.24,0,0,0,1.34,2.72,1.3,1.3,0,0,0-.81.48,2.62,2.62,0,0,0-.53,1.68,3.6,3.6,0,0,0,.79,2.25,2,2,0,0,0-.26.25,2.64,2.64,0,0,0-.53,1.68c0,1.39.81,2.69,1.79,2.9h0c1,.22,1.78-.74,1.78-2.13Z" style="fill: #121116"/>
    <path d="M617.55,163.21c-.88-.18-1.59.67-1.59,1.9a2.59,2.59,0,0,0,1.6,2.57c.88.19,1.59-.66,1.59-1.89h0A2.58,2.58,0,0,0,617.55,163.21Z" style="fill: #f0ddcb"/>
    <path d="M617.55,163.79h0a1.92,1.92,0,0,1,1.2,1.91l.78.16c0-1.54-.89-3-2-3.22h0c-1.1-.23-2,.84-2,2.39s.9,3,2,3.22h0c1.09.23,2-.83,2-2.37l-.78-.17c0,.91-.54,1.54-1.2,1.39h0a1.92,1.92,0,0,1-1.2-1.91C616.35,164.28,616.89,163.65,617.55,163.79Z" style="fill: #121116"/>
    <path d="M629.35,163c-1-.2-1.75.73-1.74,2.07a2.83,2.83,0,0,0,1.75,2.82c1,.2,1.75-.72,1.75-2.06v0A2.84,2.84,0,0,0,629.35,163Z" style="fill: #916c68"/>
    <path d="M629.35,163.54h0a2.18,2.18,0,0,1,1.36,2.15l.78.16c0-1.65-1-3.2-2.14-3.46h0c-1.18-.25-2.14.9-2.13,2.56s1,3.21,2.14,3.47h0c1.18.25,2.14-.89,2.14-2.55l-.78-.17c0,1-.61,1.74-1.36,1.57h0a2.16,2.16,0,0,1-1.36-2.15C628,164.09,628.6,163.38,629.35,163.54Z" style="fill: #4d3126"/>
    <path d="M629.42,128.17c-1.8-.38-3.26,1.48-3.25,4.15s1.47,5.15,3.28,5.53,3.26-1.46,3.26-4.12v0C632.69,131,631.22,128.55,629.42,128.17Z" style="fill: #eee"/>
    <path d="M629.42,129.29h0c1.37.3,2.49,2.2,2.5,4.24l1.54.32c0-3.29-1.91-6.28-4.06-6.8s-4,1.83-4,5.11,1.82,6.33,4,6.81h0c2.22.47,4-1.81,4-5.09l-1.54-.33c0,2-1.12,3.47-2.49,3.17h0c-1.37-.3-2.5-2.2-2.5-4.25S628.05,129,629.42,129.29Z" style="fill: #1e1e1e"/>
    <path d="M630.82,134.16c-.27,1.51-2.91,1-2.91,1a2.67,2.67,0,0,0,2,1.09c.9-.11,1.25-.44,1.61-1.93s-.9-3.79-.9-3.79A11.64,11.64,0,0,1,630.82,134.16Z" style="fill: #a3afb8;fill-rule: evenodd"/>
    <path d="M629.08,279.91c-20.81-3.12-31.21-2.1-35.87-1s-16.05,5.23-15.75,5.15c0,0,2.91,4.6,3.69,8.31s2,13.48,2,13.48,30.52-5.79,45.49-1.51,49.49,22.81,49.49,22.78.58-5.27,1.26-10.81a40.23,40.23,0,0,1,3.5-11.18S649.88,283.06,629.08,279.91Z" style="fill: #fc0;fill-rule: evenodd"/>
    <path d="M629.06,279.41c-21.46-3.22-31.74-2-36-1-.14,0-12.93,3.86-15.53,5.15l0,0-.19.06,0,.1c-.16.09-.25.17-.25.22l0,.27.22.33a30.38,30.38,0,0,1,3.54,8c.76,3.63,1.92,13.31,1.93,13.4l.06.56.37-.07c.3-.08,30.63-5.73,45.39-1.51s49.08,22.6,49.42,22.75l.36.19.06-.51c0-.05.59-5.33,1.26-10.8a39.83,39.83,0,0,1,3.45-11c.08-.17.16-.34.25-.5l-.44-.29C682.61,304.52,649.72,282.53,629.06,279.41Zm50,36.78c-.56,4.48-1,8.84-1.21,10.3-3.7-1.94-35.17-18.61-49.19-22.61-.58-.17-1.17-.32-1.79-.45-14.43-3.16-40.1,1.25-43.45,1.88-.27-2.13-1.21-9.75-1.89-13a30.1,30.1,0,0,0-3.41-7.92c2.18-.8,11.22-4,15.24-5,4.18-1,14.4-2.23,35.79,1,19.22,2.88,49.28,22.36,53.21,24.92A39.44,39.44,0,0,0,679,316.19Z"/>
    <path d="M631.83,129a36.4,36.4,0,0,1,.39-7c.66-3,3.9-5.54,3.9-5.54L623,113.59c-.24-.17,2.09,3.64,3.19,6.85s.55,7.67.55,7.67a6.71,6.71,0,0,1-5.09-1.92c-2.63-2.32-3.82-7.11-3.82-7.11v23.47s2.79-4.27,4.38-5.55,4.77-.58,4.77-.58a14.54,14.54,0,0,1-.71,6.46c-1.84,4.6-6.29,10.48-6.29,10.48l18.78,3s-4.46-9.8-5.57-12.37a19.81,19.81,0,0,1-1.12-6.51,20.29,20.29,0,0,1,4.7,3.46c2,1.92,5.17,7.17,5.17,7.17v-24.4s-3.34,2.75-4.93,4.38S631.83,129,631.83,129Z" style="fill: #fc0;fill-rule: evenodd"/>
    <path d="M636.5,127.18c-.9.92-2.75.94-3.93.81a28.53,28.53,0,0,1,.39-5.51c.47-2.14,2.76-4.35,3.6-5l2-1.6-15.46-3.37-.45-.31c-.11.21-.22.43-.32.64-.34.68-.05,1.24.55,2.36a43.13,43.13,0,0,1,2.61,5.64A18.09,18.09,0,0,1,626,127a6.5,6.5,0,0,1-4.08-1.76c-2.3-2-3.41-6.36-3.42-6.41l-1.49.08v26.57c.45-.69.91-1.38,1.36-2.08,0,0,2.74-4.19,4.23-5.39.9-.72,2.58-.71,3.65-.58a12.33,12.33,0,0,1-.71,4.78c-1.76,4.41-6.13,10.2-6.17,10.26l-1.29,1.72,22.11,3.59-.86-1.9s-4.45-9.78-5.56-12.34a15,15,0,0,1-.91-4.38,20.82,20.82,0,0,1,3.5,2.74,53.12,53.12,0,0,1,5,6.95l1.3,2.12V121.75l-1.22,1C641.35,122.86,638.1,125.55,636.5,127.18Zm4.66,18.25a39,39,0,0,0-4-5.36,21.09,21.09,0,0,0-4.92-3.61l-.9-.45v1.35a21.45,21.45,0,0,0,1.25,7.19c.81,1.86,3.37,7.52,4.72,10.5l-15.5-2.51a50.05,50.05,0,0,0,5.16-9,16.07,16.07,0,0,0,.79-7.21l-.12-.92-.63-.14c-.14,0-3.44-.73-5.21.7a22.3,22.3,0,0,0-3.17,3.74V123.31a12.48,12.48,0,0,0,2.73,3.83,7.27,7.27,0,0,0,5.6,2.1l.49-.08c0-.23.05-.47.08-.7s.54-5-.64-8.41a38.08,38.08,0,0,0-2.23-5l9.34,2a10.29,10.29,0,0,0-2.47,4.4,37,37,0,0,0-.43,7.39c0,.35,0,.71,0,1.06l.73.16c.39.09,3.91.79,5.66-1,1-1,2.56-2.37,3.67-3.31Z"/>
    <path d="M604.63,180c-8-8.63-16-17.6-27.91-16-2.42.32-11.36,4.17-15.3,21.93-2.76,12.45.45,28.85,3.26,36.5A130.33,130.33,0,0,0,572,238.15l4.83-3.75S564.57,216.6,566,197.19s8.22-22.59,8.22-22.59,8.33-7.78,19.47,3.66a120.67,120.67,0,0,0,22,17.93S626,202,626.92,202.06s-5.18-11.48-5-11.26A38.2,38.2,0,0,1,604.63,180Z" style="fill: #fc0;fill-rule: evenodd"/>
    <path d="M622.62,190.37l-.45.29c0-.27.09-.53.13-.8l-.56-.52-.14.23A38.1,38.1,0,0,1,605,179.08l-.43-.47c-7.91-8.55-16.1-17.39-28-15.79-.11,0-11.24,1.75-15.86,22.57-2.86,12.89.52,29.79,3.33,37.42a129.26,129.26,0,0,0,7.45,16l.45.8,6.2-4.83-.77-1.12c-.11-.18-12-17.59-10.55-36.18s7.71-21.76,7.92-21.89c.33-.3,8.08-7.24,18.62,3.58a123.54,123.54,0,0,0,22.25,18.08c3.12,1.78,10.46,5.89,11.42,6l.53,0c.06-.2.11-.39.17-.58.26-.91,0-2-4.23-10.44C623,191.23,622.7,190.57,622.62,190.37ZM616,195.14a120.51,120.51,0,0,1-21.88-17.78c-11.43-11.74-20.2-3.85-20.17-3.84h0c-.29.14-7.16,3.59-8.65,23.4-1.29,17.17,7.64,32.8,10.35,37.1l-3.46,2.69A126,126,0,0,1,565.35,222c-2.68-7.28-5.91-23.37-3.2-35.6,4.37-19.67,14.65-21.27,14.75-21.28a18.89,18.89,0,0,1,6.53.23c8,1.71,14.29,8.48,20.38,15.06l.43.47a39.13,39.13,0,0,0,17.33,11c.18.38.41.86.73,1.48.78,1.57,2.54,5.09,3.43,7.17C623.62,199.43,619.17,197,616,195.14Z" style="fill: #121116"/>
    <path d="M578.17,250.31a16,16,0,0,1-3.08,4.85,50.86,50.86,0,0,1,.69-11.1c.85-4.82,4.45-11.05,4.45-11.05q-7.46,2.66-14.89,5.35,2.48,7.65,5,15.29,1,4.71,2.05,9.43l3.94-.92a11.73,11.73,0,0,1,6.1.68c2.45,1.13,5.93,7,5.88,6.87q-3.33-16.33-6.67-32.66S579.47,247.55,578.17,250.31Z" style="fill: #fc0;fill-rule: evenodd"/>
    <path d="M580.84,236.57c-.58,2.88-2.32,10.83-3.33,13a23.55,23.55,0,0,1-1.69,3.05,49.77,49.77,0,0,1,.72-8.11c.81-4.54,4.28-10.61,4.32-10.67.55-1,1.1-1.92,1.66-2.88q-9.15,3.27-18.28,6.57,2.67,8.22,5.33,16.42l2.28,10.46,4.64-1.09a11.38,11.38,0,0,1,5.77.63c1.52.71,3.88,3.91,5.44,6.44l.57.93.9-1.07q-3.81-18.62-7.61-37.23Zm5.85,29.28c-1.26-1.69-2.82-3.5-4.17-4.12a8.94,8.94,0,0,0-1.9-.61,13,13,0,0,0-4.56-.11l-3.2.75c-.6-2.77-1.21-5.55-1.81-8.32l-4.62-14.24L578.12,235a36.32,36.32,0,0,0-3.11,8.63,52.92,52.92,0,0,0-.7,11.49c.05.68.09,1.37.14,2.05l1.12-1a16.78,16.78,0,0,0,3.27-5.12c.86-1.82,2-6.69,2.77-10.07Q584.16,253.43,586.69,265.85Z"/>
    <path d="M684,186.87c-11.86-6.62-19.92-1.13-27.91,4s-17.33,3.3-17.33,3.3c.22-.12-5.85,8.75-4.95,9.11s11.14-1,11.14-1a69.45,69.45,0,0,0,22-8.38c11.14-6.64,19.47,4.65,19.47,4.65s6.75,6,8.22,26.05-9.18,31.73-9.18,31.72l5.8,4.27s1.91-3.76,4.73-10.24,6-21.54,3.26-35.14C695.4,195.84,686.47,188.23,684,186.87Z" style="fill: #fc0;fill-rule: evenodd"/>
    <path d="M684.21,185.82c-11.94-6.67-20.13-1.36-28,3.76l-.43.28c-6.83,4.42-14.79,3.56-16.58,3.29l-.15-.3-.55.28c0,.31.09.61.14.92l-.45-.55c-.09.16-.42.67-.87,1.37-4.2,6.58-4.49,7.58-4.23,8.61.09.25.17.5.25.75l.45.18c.94.39,8.3-.56,11.43-1A70.49,70.49,0,0,0,667.42,195c10.53-6.27,18.29,3.93,18.77,4.53.06.06,6.38,6,7.77,25.07s-8.82,30.71-8.92,30.82l-1,1,7.57,5.57.34-.65s2-3.86,4.75-10.3,6.19-22,3.34-36C695.46,192.32,684.33,185.88,684.21,185.82Zm11.2,63.85c-2.1,4.84-3.71,8.18-4.37,9.52l-4.08-3c2.6-3.39,9.78-14.43,8.53-31.53-1.49-20.43-8.36-26.78-8.5-26.87s-8.87-11.75-20.32-4.92a69.82,69.82,0,0,1-21.86,8.3c-3.23.43-7.69,1-9.78,1.07.89-1.69,2.66-4.46,3.44-5.69.31-.48.55-.85.72-1.15,1.89.3,10.08,1.25,17.33-3.44l.43-.28c7.65-5,15.56-10.09,26.91-3.75.1,0,10.39,6,14.75,27.47C701.32,228.76,698.09,243.51,695.41,249.67Z" style="fill: #121116"/>
    <path d="M634,232.77l3.9.85V180.51l-3.9-.85Z" style="fill: #fc0"/>
    <path d="M637.87,179.39l-3.9-.85c-.42-.09-.76.33-.76,1V232.6a1.3,1.3,0,0,0,.76,1.29l3.9.85c.43.09.77-.34.77-1v-53.1A1.28,1.28,0,0,0,637.87,179.39Zm-.76,52.94-2.37-.52V181l2.37.52Z" style="fill: #121116"/>
    <ellipse cx="623.15" cy="203.62" rx="3.26" ry="37.56" transform="translate(-0.34 1.03) rotate(-0.1)" style="fill: #fc0"/>
    <path d="M625.46,176.45l-4.62-1c-.42-.09-.76.34-.76,1v53.1a1.29,1.29,0,0,0,.76,1.29l4.62,1c.42.09.77-.34.77-1v-53.1A1.29,1.29,0,0,0,625.46,176.45Zm-.77,52.94-3.08-.68V177.85l3.08.67Z" style="fill: #121116"/>
    <path d="M629.28,149c-7-1.48-12.68,5-12.65,14.39s5.73,18.28,12.75,19.79,12.71-4.89,12.71-14.31v-.14C642,159.31,636.31,150.48,629.28,149Z" style="fill: #fc0"/>
    <path d="M629.38,182.07h0c-6.58-1.43-11.94-9.72-12-18.5s5.31-14.82,11.9-13.43h.07c6.55,1.43,11.91,9.69,12,18.45l1.54.31c-.06-10-6.11-19.39-13.5-21l-.08,0c-7.43-1.56-13.45,5.33-13.42,15.35s6.08,19.46,13.5,21.08h0c7.43,1.6,13.48-5.25,13.48-15.26l-1.54-.34C641.32,177.5,636,183.49,629.38,182.07Z" style="fill: #121116"/>
    <path d="M639,247.88a7.42,7.42,0,0,1-5.68,1.33,20.85,20.85,0,0,1,1.89-8.93c2.21-5.24,4.78-6.92,4.78-6.92l-21.89-4.51c0,.13,4.09,5.37,5.9,9s1.8,9.86,1.8,9.86-2-.17-5.5-2.91-4.59-7.84-4.59-7.84l.36,27.91a34.7,34.7,0,0,1,4.86-5.06c1.54-1.15,5-.7,5-.7l7.48,1.63a13.56,13.56,0,0,1,6.3,3.62,24.47,24.47,0,0,1,4.19,6.89l.09-29.45A33.69,33.69,0,0,1,639,247.88Z" style="fill: #fc0;fill-rule: evenodd"/>
    <path d="M638.58,247a6.5,6.5,0,0,1-4.64,1.3,22.05,22.05,0,0,1,1.81-7.46c2.08-5,4.52-6.6,4.54-6.62l2-1.35-24.91-5.13v.94c0,.49.05.57.93,1.77a65.37,65.37,0,0,1,5.11,7.85c1.24,2.47,1.55,6.44,1.63,8.26a15.11,15.11,0,0,1-4.58-2.63c-3.17-2.47-4.2-7.12-4.21-7.17l-1.27,0,.39,30.18,1.08-1.39a34.36,34.36,0,0,1,4.76-4.95c1.14-.85,3.73-.73,4.6-.62l7.48,1.63a13.14,13.14,0,0,1,6,3.41,23.68,23.68,0,0,1,4,6.53c.4,1,.8,2.06,1.19,3.09q.06-17.73.11-35.45l-1.16,1.82A33,33,0,0,1,638.58,247Zm4.61,21.26A21.75,21.75,0,0,0,640,263.6a14.16,14.16,0,0,0-6.63-3.82l-7.52-1.63c-.15,0-3.61-.46-5.27.78a27.27,27.27,0,0,0-3.89,3.85q-.15-11-.28-21.95a13.3,13.3,0,0,0,3.66,4.8c3.61,2.82,5.7,3,5.79,3l.59.05v-.87c0-.27,0-6.63-1.95-10.5a58.55,58.55,0,0,0-4.58-7.16l18.18,3.74a21.17,21.17,0,0,0-3.45,5.77,21.67,21.67,0,0,0-2,9.5c0,.29,0,.57.07.86l.58.11a7.77,7.77,0,0,0,6.05-1.43,26.63,26.63,0,0,0,3.92-4.52Q643.23,256.26,643.19,268.29Z"/>
    <path d="M674.81,291.29c-3.43.65-6.75-1.27-10.9-6.83s-3.91-14-3.91-14-4.55,6.76-11.17,7.79c-3,.46-9.47-3.08-11.64-6.35-3.72-5.63-6.93-17.25-6.93-17.25l-1.89-.76s-3,19.25-13.39,16.81-14.34-11.93-14.34-11.93-3,16-11.84,14.92-14.69-11.78-14.69-11.78c-.48.94-1,1.88-1.43,2.81,0,0,8.18,12.8,18.49,11.9s10.66-11.71,10.66-11.72.37,4,5.1,7,10.2,4.16,15,2.56c5.12-1.69,7.58-11.45,7.58-11.45a7.82,7.82,0,0,0,.6,3.59c.83,2.43,5.19,10.14,8.54,12.3,5,3.22,10.37,4.47,14.28,3.42s5.73-6.05,5.73-6.05,1.76,8.76,4.72,12.86,12.11,7.27,15.13,5.75c5.86-3,11.43-9.68,11.43-9.68l-2-3S678.25,290.65,674.81,291.29Z" style="fill: #f6ca1f;fill-rule: evenodd"/>
    <path d="M687.6,281.35c-.1.09-9.67,8.42-13,9s-6.46-1.33-10.36-6.57-3.67-13.11-3.67-13.19c0-.85,0-1.7.07-2.56l-1.15,1.7c0,.07-4.52,6.59-10.87,7.57-2.76.43-9.07-3-11.07-6-3.58-5.4-6.74-16.77-6.77-16.89l-.14-.5-2.8-1.13-.12.78c0,.19-3,18.37-12.66,16.26l-.12,0c-9.94-2.32-13.79-11.33-13.83-11.42-.26-.61-.51-1.22-.76-1.83l-.35,1.86c0,.16-3,15.35-11.29,14.37s-14.14-11.27-14.19-11.37l-.53-1-2.16,4.26.38.61c.3.46,6.58,10.14,15.16,12a13.46,13.46,0,0,0,3.87.25c7.5-.66,10-6.51,10.77-9.95a12.5,12.5,0,0,0,4.7,5.11c5.07,3.23,10.7,4.19,15.43,2.63,3.67-1.21,6-6.21,7.14-9.34.07.28.17.58.27.89.92,2.7,5.36,10.54,8.92,12.83,5.09,3.28,10.56,4.58,14.64,3.48,2.73-.73,4.49-3.24,5.38-4.9.71,2.89,2.26,8.35,4.49,11.44,3.19,4.41,12.67,7.57,15.79,6,5.88-3,11.36-9.53,11.59-9.81l.47-.57L688,281ZM678.28,294c-2.72,1.37-11.69-1.64-14.47-5.5s-4.5-12.3-4.52-12.38c-.15-.75-.3-1.5-.46-2.25l-.68,1.87s-1.77,4.7-5.38,5.67c-3.85,1-9-.21-13.9-3.34-3.23-2.08-7.45-9.64-8.18-11.79a7.18,7.18,0,0,1-.54-2.91c-.4-.26-.79-.53-1.18-.8,0,.1-2.43,9.41-7.22,11-4.48,1.48-9.82.57-14.64-2.5-4.24-2.7-4.66-6-4.67-6.13l-1.23-.19c0,.42-.49,10.15-10.17,11-8.62.75-15.81-8.54-17.54-11,.23-.46.46-.92.7-1.38,1.67,2.72,7,10.35,14.64,11.25s11-9.79,12-13.92A22.22,22.22,0,0,0,615,271.6l.15,0c9.46,2.06,13-13,13.71-16.64l1,.4c.68,2.34,3.56,12,6.94,17.09,2.31,3.49,9,7.16,12.2,6.67,5-.77,8.75-4.6,10.47-6.67.21,3,1,8.49,4.08,12.61,4.19,5.62,7.72,7.82,11.45,7.11,3.14-.6,11-7.26,12.95-8.9.38.56.75,1.13,1.13,1.7C687.59,286.66,683,291.61,678.28,294Z"/>
    <path d="M614.66,245.31c-.27-4.37-1.4-8.06-3.65-9.41s-3.91-1.64-5.9,0-4.34,7.75-4.34,7.75l-.06,14.24,4,.55c0-1-.07-2.05-.1-3.08,0,0,.07-5.28.85-6.71,1.11-2,2.61-1.78,3.38-1.3,1,.6,1.93,2.07,1.77,5.71s-.86,5.3-.11,6.87.86,2.53,2.31,2.54,2.09-.57,1.77-2.59-.75,0-1-1.71S614.93,249.77,614.66,245.31Z" style="fill: #fc0;fill-rule: evenodd"/>
    <path d="M615.41,245.37c-.33-5.34-1.82-9.06-4.21-10.49-1.86-1.12-4.09-2-6.53.08-2,1.72-4.46,7.82-4.57,8.08q-.06,7.36-.14,14.73l.8,1.28,4,.54c.24-.33.48-.66.71-1,0-1-.07-2-.1-3,0-2.06.27-5.28.72-6.08,1.05-1.93,2.41-1.15,2.56-1.06.91.57,1.33,2.07,1.22,4.46-.05,1.23-.17,2.22-.27,3.06-.21,1.75-.37,3.14.32,4.59l.33.72c.44,1,.89,2.06,2.08,2.32a2.84,2.84,0,0,0,.6.06,2.19,2.19,0,0,0,2.18-1.08,4.46,4.46,0,0,0,.21-2.72,3.3,3.3,0,0,0-.64-1.7,1,1,0,0,0-.39-.26c0-.71.24-2.32.43-3.65A47.27,47.27,0,0,0,615.41,245.37Zm-2.61,12.94a2.73,2.73,0,0,0,.58,1.47.92.92,0,0,0,.44.28,2.07,2.07,0,0,1,0,1c-.09.16-.35.36-1.15.36s-.79-.13-1.23-1.15c-.11-.26-.23-.53-.37-.83-.27-.57-.21-1.27,0-2.8.11-.9.23-2,.29-3.28.21-4.67-1.36-6.36-2.31-7a3,3,0,0,0-.91-.38c-1.06-.23-2.33.17-3.29,1.92-.87,1.59-1,6.35-1,7.29v0c0,.67,0,1.35.07,2l-2.42-.34q0-6.39,0-12.8c.73-1.8,2.65-6,4-7.21,1.81-1.54,3.41-1.12,5.26,0,2.33,1.4,2.93,5.81,3.09,8.32a45.41,45.41,0,0,1-.7,8.22A19.42,19.42,0,0,0,612.8,258.31Z"/>
    <path d="M591.35,238.75c-2.4-1.3-4.05-.63-5.77,1s-1.93,5.51-1,9.81,4.42,10.7,4.63,12.4-.77-.19-.53,1.85,1,2.47,2.43,2.22,1.26-1.21,1.56-2.87-.83-3.16-2-6.69-.59-5.13.17-5.87,2-1.1,3.66.68c1.15,1.26,2.66,6.4,2.66,6.4.25,1,.49,2,.74,3l3.72-1.22q-2-6.94-3.94-13.89S593.65,240,591.35,238.75Z" style="fill: #fc0;fill-rule: evenodd"/>
    <path d="M598.17,244.8c-.17-.23-4.22-5.77-6.66-7.09-2.94-1.59-4.89-.36-6.4,1-1.94,1.81-2.38,5.71-1.24,11a50.44,50.44,0,0,0,3.12,8.51c.52,1.2,1.15,2.64,1.4,3.5a.88.88,0,0,0-.29.31,3.07,3.07,0,0,0-.16,1.76,4.74,4.74,0,0,0,.95,2.62,2,2,0,0,0,1.15.69,3.18,3.18,0,0,0,1.27,0c1.61-.28,1.79-1.55,2-2.78,0-.23.07-.49.12-.76.28-1.54-.26-2.86-.94-4.54-.32-.8-.71-1.75-1.1-2.93-.75-2.32-.76-3.85,0-4.57.12-.12,1.23-1.11,2.79.59.65.71,1.76,3.81,2.36,5.81l.72,3,1,.86,3.73-1.22.42-1.38q-2-6.95-3.94-13.89C598.32,245.11,598.25,245,598.17,244.8Zm.19,14.55c-.16-.64-.31-1.29-.47-1.94l0-.07c-.27-.92-1.68-5.55-3-6.95-1.85-2-3.58-1.68-4.51-.78-.77.75-1.84,2.68-.37,7.19.42,1.27.83,2.29,1.18,3.15.59,1.47.85,2.14.74,2.75-.05.31-.1.6-.13.86-.16,1.07-.18,1.21-.89,1.34s-1.12,0-1.22-.15a2.1,2.1,0,0,1-.28-1,.71.71,0,0,0,.36-.35,2.59,2.59,0,0,0,.17-1.53,20.71,20.71,0,0,0-1.73-4.66,48.6,48.6,0,0,1-2.92-7.9c-.54-2.47-1.15-6.89.74-8.65,1.5-1.4,3-2.09,5.14-.9,1.68.9,4.7,4.7,5.91,6.34l3.54,12.48Z"/>
    <path d="M595.53,264c-.54.9-.83,1.15-1.51-.28-.4-.84-1.42-.92-1.94.34s.21,4.69,1.11,5.18c1.22.67,2.16.24,4-2.52a22.69,22.69,0,0,0,2.45-6.58l-1.52-.87S596.33,262.64,595.53,264Z" style="fill: #fc0;fill-rule: evenodd"/>
    <path d="M609,262.41c-.26,1.51-.61,1.33-1.4.55-1.14-1.13-3.81-4.11-3.81-4.11L602.59,260a25.26,25.26,0,0,0,4.24,5.93c2.52,2.34,3.55,2.58,4.56,1.7.73-.65.48-4.13-.38-5.25S609.18,261.51,609,262.41Z" style="fill: #fc0;fill-rule: evenodd"/>
    <path d="M602.16,231.08c-.63-4.53-5.68-15.71-5.74-15.8s-3.86,8.64-3,16.11,6,24.24,6,24.24c0,.71,0,1.41.05,2.12l2.78.17-.63-2.29S603,237.18,602.16,231.08Z" style="fill: #fc0;fill-rule: evenodd"/>
    <path d="M609.35,260.57a1.68,1.68,0,0,0-1.06,1.42c0,.13,0,.23-.06.31l-.25-.23c-1.11-1.1-3.73-4-3.76-4.07l-.45-.5-1.28,1.19c.15-.35.31-.7.46-1.06-.18-.67-.37-1.33-.55-2,.18-2.45,1.32-18.75.5-24.62-.68-4.86-5.9-16.32-5.94-16.4l-1.18,0c-.17.36-4,9-3.1,16.83.82,7.16,5.36,22.22,6,24.32,0,.64,0,1.27.05,1.9l.83,1.23,2.58.15c0,.52-.08,1-.13,1.56a26.5,26.5,0,0,0,4.49,6.27,8.62,8.62,0,0,0,3.45,2.32,2,2,0,0,0,1.89-.57,3.63,3.63,0,0,0,.73-2.64,8,8,0,0,0-1.11-4.36A2,2,0,0,0,609.35,260.57Zm-8.19-3.82-1-.06,0-.94c0-.15,0-.3-.07-.45s-5.12-16.71-6-23.94c-.6-5.27,1.36-11.33,2.36-14,1.42,3.25,4.46,10.57,4.91,13.79.81,5.86-.54,24-.55,24.2l0,.29Zm9.77,9.89c-.6.53-1.23.73-3.77-1.64a21.2,21.2,0,0,1-3.46-4.63l.18-.17c.81.9,2.52,2.79,3.4,3.66.4.4,1,1,1.61.74s.74-1,1-1.86c.2,0,.44.12.66.41a4.86,4.86,0,0,1,.49,2.05A3.17,3.17,0,0,1,610.93,266.64Z"/>
    <path d="M597.75,257.92l-.29.57s-1.75,3.39-2.52,4.67a2.32,2.32,0,0,1-.18.28c0-.07-.08-.17-.14-.29a1.84,1.84,0,0,0-1.43-1.18c-.72-.08-1.38.44-1.77,1.39a7.86,7.86,0,0,0,.15,4.46,4.06,4.06,0,0,0,1.45,2.43,3.21,3.21,0,0,0,.8.31c1.25.27,2.33-.62,3.91-3a23.87,23.87,0,0,0,2.6-7c-.18-.49-.37-1-.55-1.48Zm-1.18,7.94c-1.81,2.78-2.48,2.71-3.2,2.32a3.39,3.39,0,0,1-.54-1.39,4.57,4.57,0,0,1-.09-2.08c.13-.33.33-.52.69-.47.31.65.74,1.43,1.34,1.56h0c.66.14,1.08-.56,1.36-1,.61-1,1.74-3.18,2.28-4.21l.22.13A19.1,19.1,0,0,1,596.57,265.86Z"/>
    <path d="M600.61,256.18c-3.29.1-5.83,1.21-5.68,2.48s3,2.2,6.25,2.11,5.85-1.2,5.7-2.47v0C606.71,257,603.91,256.08,600.61,256.18Z" style="fill: #fc0"/>
    <path d="M607.37,258.25l.25,0c-.42-3.21-6-3.2-7.13-3.16-2.28.07-5.23.7-6.06,2.24a2.4,2.4,0,0,0-.24,1.38c.21,1.72,1.91,2.52,3.61,2.89a15.4,15.4,0,0,0,3.5.3c1.12,0,6.69-.36,6.33-3.6Zm-6.32,1.41a9.37,9.37,0,0,1-5.21-1c.54-.51,2.2-1.25,4.9-1.33a10.36,10.36,0,0,1,5.3,1C605.58,258.77,603.88,259.57,601.05,259.66Z"/>
    <path d="M674.67,256.47c-1.78-2.22-3.48-3.48-5.84-3s-6.16,4.6-6.16,4.6q-1.73,6.29-3.47,12.56l3.79,2.56c.21-.92.43-1.85.64-2.78,0,0,1.34-4.63,2.45-5.48a2.51,2.51,0,0,1,3.66.61c.79,1,1.41,2.83.38,6s-2.12,4.24-1.76,6,.24,2.69,1.67,3.45,2.2.59,2.37-1.37-.74-.4-.59-2.05,3.41-6.74,4.21-10.84S676.58,258.84,674.67,256.47Z" style="fill: #fc0;fill-rule: evenodd"/>
    <path d="M675.11,255.67c-1.58-2-3.58-3.9-6.48-3.33-2.41.47-6.29,4.59-6.45,4.76q-1.84,6.48-3.68,13l.48,1.55,3.79,2.55.94-.51.63-2.74c.52-1.8,1.54-4.53,2.16-5a1.93,1.93,0,0,1,2.79.4c.77,1,.82,2.53.14,4.58a27.23,27.23,0,0,1-1,2.57,6.55,6.55,0,0,0-.78,4.23q.09.44.15.81c.22,1.3.45,2.64,2.08,3.5a4.43,4.43,0,0,0,1.11.44,1.46,1.46,0,0,0,1.3-.26,3.23,3.23,0,0,0,.87-2.3,3.46,3.46,0,0,0-.23-1.83,1.47,1.47,0,0,0-.32-.44,26.76,26.76,0,0,1,1.31-3,34.73,34.73,0,0,0,2.84-7.46C677.7,262.24,677.12,258.17,675.11,255.67Zm.18,10.58a33,33,0,0,1-2.66,6.9,14.4,14.4,0,0,0-1.57,4.09,3,3,0,0,0,.22,1.6,1.29,1.29,0,0,0,.37.48,1.51,1.51,0,0,1-.24.87c-.1.09-.39.15-1.22-.28s-.75-.53-.94-1.66c0-.28-.1-.58-.17-.92-.13-.65.1-1.23.65-2.49a29.54,29.54,0,0,0,1.07-2.76c1.33-4,.18-6.34-.62-7.36a3.83,3.83,0,0,0-2.12-1.44,2.85,2.85,0,0,0-2.4.62c-1.24,1-2.49,5.1-2.73,5.93-.14.61-.29,1.23-.43,1.85l-2.31-1.56,3.12-11.3c1.16-1.21,4.07-3.95,5.72-4.27,2.17-.42,3.65.78,5.21,2.73C676.2,259.72,675.74,264,675.29,266.25Z"/>
    <path d="M654.55,248.72c-2-2.41-3.85-2.69-5.93-2.17s-3.23,3.85-3.34,8.15,1.8,11.78,1.59,13.4-.71-.58-1,1.35.42,2.72,1.88,3.24,1.53-.41,2.23-1.72-.06-3.22-.35-7,.64-4.85,1.58-5.11c.75-.2,2.26.1,3.44,2.53.84,1.71,1.1,7.06,1.1,7.06v3.05l4,.88q-.28-7.19-.56-14.35S656.53,251,654.55,248.72Z" style="fill: #fc0;fill-rule: evenodd"/>
    <path d="M659.84,257.65c-.11-.3-2.78-7.31-4.87-9.76-2.53-3-4.75-2.9-6.58-2.44-2.35.58-3.72,3.79-3.86,9a52.39,52.39,0,0,0,1,9.17c.23,1.34.5,2.95.54,3.83a.59.59,0,0,0-.36.13,2.19,2.19,0,0,0-.59,1.47,5.09,5.09,0,0,0,.32,2.82,3.58,3.58,0,0,0,2.22,1.86,1.93,1.93,0,0,0,.42.12c1.33.29,1.77-.64,2.2-1.54.09-.19.19-.4.3-.61.65-1.21.44-2.67.17-4.51-.13-.87-.29-1.92-.38-3.17-.2-2.44.16-3.8,1.07-4.05.15,0,1.48-.33,2.61,2,.47,1,.83,4.29.94,6.37v3l.75,1.26,4,.88.76-1q-.28-7.18-.56-14.35C659.92,258,659.88,257.83,659.84,257.65Zm-3.3,13v-2c0-.95-.33-5.79-1.26-7.7-1.34-2.75-3.14-3.37-4.27-3.06-.94.26-2.46,1.4-2.09,6.17.1,1.34.27,2.46.41,3.4.23,1.61.32,2.34.07,2.82-.13.25-.24.48-.34.69-.41.87-.45,1-1.2.72s-1.09-.61-1.17-.77a2.16,2.16,0,0,1,0-1,.63.63,0,0,0,.44-.12,1.87,1.87,0,0,0,.53-1.27,21.43,21.43,0,0,0-.58-5,51.13,51.13,0,0,1-1-8.53c.07-2.47.52-6.69,2.81-7.26,1.82-.45,3.42-.3,5.3,1.91,1.44,1.68,3.51,6.63,4.32,8.7q.25,6.45.5,12.9Z"/>
    <path d="M652.63,273.22c-.75.52-1.1.58-1.42-1-.2-1-1.19-1.56-2-.72s-.91,4.26-.14,5.17c1.05,1.23,2.08,1.34,4.52-.16a14.56,14.56,0,0,0,4-4.53l-1.29-1.57S653.74,272.47,652.63,273.22Z" style="fill: #fc0;fill-rule: evenodd"/>
    <path d="M660.73,271.39c0-.78-.05-1.57-.07-2.35,0,0,5.8-15.6,6.42-21.44.47-4.35-1.84-16.88-1.87-17s-5.89,5.62-6.84,12.68.12,24.58.12,24.58c-.16.64-.31,1.28-.46,1.91Z" style="fill: #fc0;fill-rule: evenodd"/>
    <path d="M666.35,278.9c-.62,1.2-.93.86-1.52-.24-.86-1.6-2.77-5.63-2.77-5.63l-1.5.37a32.51,32.51,0,0,0,2.77,7.46c1.93,3.39,2.9,4.13,4.1,3.88.88-.19,1.47-3.4.89-4.84S666.71,278.18,666.35,278.9Z" style="fill: #fc0;fill-rule: evenodd"/>
    <path d="M667.11,277.44h0a1.22,1.22,0,0,0-1.37.72l-.13.24-.19-.33c-.84-1.56-2.73-5.53-2.75-5.57-.1-.23-.21-.45-.32-.67l-1.56.38.72-.7c0-.69,0-1.37-.07-2.06.76-2.07,5.81-15.9,6.41-21.52.49-4.65-1.91-17.53-1.94-17.63l-1.16-.63c-.24.23-6.11,5.91-7.1,13.27-.9,6.76,0,22.47.09,24.66-.13.56-.27,1.13-.41,1.7.18.51.36,1,.53,1.53l2.51,1.48c-.16.44-.33.87-.49,1.31a33.83,33.83,0,0,0,2.92,7.89c1.61,2.82,2.71,4.1,3.88,4.35a2.32,2.32,0,0,0,1,0c.57-.12,1.05-.82,1.36-2a7.72,7.72,0,0,0,0-4.44A3,3,0,0,0,667.11,277.44Zm-7.13-9a2.25,2.25,0,0,1-.08.24l0,1.14-.93-.55c.08-.35.17-.7.25-1.05V268c0-.18-1-17.46-.13-24.29.67-5,4.06-9.32,5.69-11.15.62,3.61,1.87,11.66,1.54,14.76C665.74,252.88,660,268.25,660,268.4Zm7.7,14a2.36,2.36,0,0,1-.47,1.22c-.71.15-1.39,0-3.34-3.42a28.56,28.56,0,0,1-2.3-5.91l.22-.06c.58,1.23,1.82,3.79,2.48,5,.3.56.73,1.44,1.41,1.49s1-.52,1.45-1.12a1.25,1.25,0,0,1,.55.71A4.64,4.64,0,0,1,667.68,282.42Z"/>
    <path d="M656.28,269l-.43.35s-2.54,2.09-3.61,2.82l-.24.15c0-.09,0-.2-.08-.34a2.74,2.74,0,0,0-1.12-1.79,1.56,1.56,0,0,0-2.08.3c-.73.75-1,2.56-.93,4a5,5,0,0,0,.86,2.92,3.22,3.22,0,0,0,1.72,1.18c.93.2,2-.18,3.58-1.13a15.23,15.23,0,0,0,4.24-4.79l-.18-1.59Zm-3.08,6.41c-2.45,1.51-3.09,1.1-3.72.37a3.68,3.68,0,0,1-.19-1.51,3.48,3.48,0,0,1,.41-1.89.5.5,0,0,1,.5-.2.77.77,0,0,1,.29.14,3.52,3.52,0,0,0,1,2.09c.6.47,1.19.07,1.58-.2.85-.58,2.49-1.89,3.27-2.53a2.11,2.11,0,0,0,.19.23A12.29,12.29,0,0,1,653.2,275.44Z"/>
    <path d="M659.58,269c-3.28-1.64-6.06-2-6.21-.79s2.38,3.5,5.66,5.14,6.07,2,6.24.8h0C665.41,273,662.86,270.67,659.58,269Z" style="fill: #fc0"/>
    <path d="M659.72,268c-2.27-1.13-5.34-2.12-6.52-1.19a1.61,1.61,0,0,0-.57,1.1c-.39,3.05,5.15,6,6.26,6.54a17.52,17.52,0,0,0,3.79,1.4,3.5,3.5,0,0,0,2.75-.2,1.62,1.62,0,0,0,.58-1.08l-.24-.15.24.1C666.36,271.46,660.84,268.54,659.72,268Zm-.54,4.35a14.26,14.26,0,0,1-4.91-3.64c.66-.17,2.49.05,5.17,1.39a15.83,15.83,0,0,1,5,3.63C663.87,273.93,662,273.76,659.18,272.34Z"/>
    <path d="M683,302.47s-20.69-17.26-53-24.14-53.27,2.1-53.27,2.11a2.24,2.24,0,0,0-.38,2.9s.63,4.06,2.17,2.33,22.61-9.37,52.37-2.86,49.31,22.61,50.46,23.6,1.66,2,2.68.57S683,302.47,683,302.47Z" style="fill: #cca715;fill-rule: evenodd"/>
    <path d="M683.2,302.14l-.1-.1c-.2-.17-20.82-17.14-52.45-24.06l-.69-.15c-32-6.82-53.2,2-53.47,2.16a2.83,2.83,0,0,0-.9,1.89,3.08,3.08,0,0,0,.41,1.65c.1.55.48,2.37,1.31,2.91a1,1,0,0,0,.33.15,1.17,1.17,0,0,0,1.07-.5c1.5-1.7,22.5-9.26,52.14-2.77,30.47,6.66,50.13,23.35,50.32,23.51l.55.52c.78.75,1.51,1.46,2.53,0a2.42,2.42,0,0,0,.37-1.49A8.87,8.87,0,0,0,683.2,302.14Zm.54,4.45c-.66.94-.92.69-1.7-.06-.18-.18-.37-.36-.59-.55s-20-17-50.6-23.67c-29.83-6.52-51.08,1.22-52.6,2.94-.29.32-.52.42-.74.28-.47-.31-.8-1.75-.87-2.23l0-.15-.07-.11a1.6,1.6,0,0,1-.27-.94,2,2,0,0,1,.55-1.17c.21-.1,21.26-8.89,53.13-2.1l.69.15c30.71,6.72,51,22.94,52.14,23.88a7.39,7.39,0,0,1,1.15,2.93A1.32,1.32,0,0,1,683.74,306.59Z"/>
    <path d="M620.45,309.18l-2.14-.6c-1.93-.56-2.47.72-2.47.72s.21-1.7.92-2.14,3.31.4,3.31.4-2.09-2.35-3.41-2c-1.66.38-2.61,4-2.61,4s-.79-.8-1.64-1.55a4,4,0,0,0-2.34-1c-.94-.18-2.44,3.17-2.44,3.17a6.31,6.31,0,0,1,2.65-1.68c1.31-.26,1.81,1.61,2.58,2.3s6.65,1.92,6.65,1.92-3.84-1.47-3.09-2.68S620.45,309.18,620.45,309.18Z" style="fill-rule: evenodd"/>
    <path d="M598.14,309.59s-.22,0-2.13,0a2.13,2.13,0,0,0-2.27,1.42s0-1.79.62-2.42,3.2-.51,3.2-.51-2.29-1.8-3.51-1.13c-1.54.85-2,4.8-2,4.8s-.85-.59-1.75-1.11a3.32,3.32,0,0,0-2.37-.34c-.92.08-1.93,3.88-1.93,3.88a7.77,7.77,0,0,1,2.33-2.43c1.22-.63,1.92,1.12,2.75,1.59s6.59.09,6.59.09-3.85-.41-3.28-1.84S598.14,309.59,598.14,309.59Z" style="fill-rule: evenodd"/>
    <path d="M657.67,320.58s-.22-.1-2.1-1.13-2.58.05-2.58.05.42-1.58,1.19-1.81,3.29,1.24,3.29,1.24-1.83-2.8-3.2-2.85c-1.72-.06-3.12,3.19-3.12,3.19s-.7-1-1.47-1.91a4.81,4.81,0,0,0-2.25-1.55c-.93-.42-2.84,2.4-2.84,2.4a5.51,5.51,0,0,1,2.88-.92c1.36.1,1.63,2,2.33,2.87s6.49,3.56,6.49,3.56-3.7-2.4-2.8-3.36S657.67,320.58,657.67,320.58Z" style="fill-rule: evenodd"/>
    <path d="M674.83,329.79s-.17-.1-1.65-1.12-2.11-.23-2.11-.23.42-1.21,1.06-1.31,2.62,1.33,2.62,1.33-1.35-2.41-2.47-2.6c-1.4-.23-2.69,2.2-2.69,2.2s-.53-.85-1.1-1.68a4.5,4.5,0,0,0-1.76-1.47c-.74-.43-2.44,1.6-2.44,1.6a4.46,4.46,0,0,1,2.4-.42c1.1.22,1.23,1.77,1.75,2.53s5.11,3.52,5.11,3.52-2.9-2.3-2.11-3S674.83,329.79,674.83,329.79Z" style="fill-rule: evenodd"/>
    <path d="M639.05,312.36l-2.13-.79c-1.92-.71-2.52.51-2.52.51s.28-1.67,1-2,3.31.68,3.31.68-2-2.51-3.36-2.32c-1.68.23-2.78,3.76-2.78,3.76s-.76-.86-1.59-1.68a4.22,4.22,0,0,0-2.32-1.17c-.94-.27-2.58,2.92-2.58,2.92a6,6,0,0,1,2.74-1.43c1.33-.14,1.75,1.75,2.5,2.49s6.62,2.48,6.62,2.48-3.81-1.78-3-2.91S639.05,312.36,639.05,312.36Z" style="fill-rule: evenodd"/>
    <path d="M603,284.88c-3.63.28-6.22,3.19-5.78,6.49s3.74,5.77,7.37,5.49,6.22-3.18,5.78-6.49S606.6,284.6,603,284.88Z" style="fill: #0f6545"/>
    <path d="M609.24,286.85a7.54,7.54,0,0,0-6.36-2.64,6.65,6.65,0,0,0-5.54,3.54,6.28,6.28,0,0,0-.6,3.66,6.91,6.91,0,0,0,2.78,4.64,7.42,7.42,0,0,0,2.93,1.33,7.73,7.73,0,0,0,2.2.16,6.82,6.82,0,0,0,4.64-2.23,6.12,6.12,0,0,0,1.5-5A6.87,6.87,0,0,0,609.24,286.85Zm-.57,7.35a6.22,6.22,0,0,1-4.19,2,7,7,0,0,1-4.64-1.32,5.32,5.32,0,0,1-2.2-3.53,4.68,4.68,0,0,1,.46-2.69,6,6,0,0,1,5-3.1,7.12,7.12,0,0,1,2,.14,6.63,6.63,0,0,1,3.66,2.16,5,5,0,0,1,1.16,2.56h0A4.72,4.72,0,0,1,608.67,294.2Z"/>
    <path d="M600.47,286.72a1.36,1.36,0,0,0-1.25,1.57,1.56,1.56,0,0,0,1.64,1.34,1.36,1.36,0,0,0,1.25-1.57A1.56,1.56,0,0,0,600.47,286.72Z" style="fill: #cecfc1"/>
    <path d="M656.5,295.71c-3.53-2.38-6.94-1.9-7.61,1.08s1.64,7.33,5.18,9.72,6.94,1.9,7.61-1.08S660,298.1,656.5,295.71Z" style="fill: #0f6545"/>
    <path d="M656.64,295.11a7.58,7.58,0,0,0-5.13-1.54,3.52,3.52,0,0,0-3.06,2.92,7.45,7.45,0,0,0,.32,3.93,13.55,13.55,0,0,0,5.16,6.69,9.26,9.26,0,0,0,3.21,1.45,5.5,5.5,0,0,0,1.92.1,3.53,3.53,0,0,0,3.06-2.94A8.51,8.51,0,0,0,661,300,13.83,13.83,0,0,0,656.64,295.11Zm4.61,10h0a2.7,2.7,0,0,1-2.41,2.17,6.86,6.86,0,0,1-4.63-1.41,12.25,12.25,0,0,1-4.63-5.92,5.65,5.65,0,0,1-.26-2.9,2.7,2.7,0,0,1,2.41-2.17,5,5,0,0,1,1.7.09,8.49,8.49,0,0,1,2.93,1.32,12.43,12.43,0,0,1,4,4.4A6.68,6.68,0,0,1,661.25,305.13Z"/>
    <path d="M653.53,295.41c-.78-.53-1.54-.37-1.7.35a2.41,2.41,0,0,0,1.11,2.26c.78.53,1.54.37,1.7-.36A2.4,2.4,0,0,0,653.53,295.41Z" style="fill: #cecfc1"/>
    <path d="M622.92,295.67l13.3,2.9v-9.8l-13.3-2.9Z" style="fill: #1f2d86"/>
    <path d="M636.22,287.82l-13.3-2.9c-.36-.08-.65.28-.65.81v9.8a1.09,1.09,0,0,0,.65,1.09l13.3,2.9c.36.08.65-.28.65-.81v-9.8A1.09,1.09,0,0,0,636.22,287.82Zm-.65,9.66-12-2.62V287l12,2.62Z"/>
    <path d="M627.26,288.1c-.7-.15-1.26.08-1.26.53s.56.92,1.26,1.08,1.27-.09,1.27-.53S628,288.25,627.26,288.1Z" style="fill: #707c8b"/>
    <path d="M577.71,291.53c-1,1.57.11,6.13,2,8a2.77,2.77,0,0,0,3.74.32l4.07-2.35q-1.1-5-2.2-9.94C585.3,287.37,579.68,288.43,577.71,291.53Z" style="fill: #9f1209;fill-rule: evenodd"/>
    <path d="M585.64,287.24l-.23-.17c-.37-.3-6,1-8,4.09a4.93,4.93,0,0,0-.37,3.16,10.49,10.49,0,0,0,2.45,5.59,3.37,3.37,0,0,0,1.66.95,3,3,0,0,0,2.4-.57l4.33-2.49-2.28-10.29Zm-2.41,12.12a2.5,2.5,0,0,1-3.38-.27,9.13,9.13,0,0,1-2.1-4.83,3.83,3.83,0,0,1,.23-2.36c1.62-2.54,6-3.71,7.09-3.87l2,9.11Z"/>
    <path d="M580,290.25c-1-.22-1.87.9-1.87,2.5S579,295.82,580,296s1.87-.9,1.87-2.5S581.06,290.47,580,290.25Z" style="fill: #8f322f"/>
    <path d="M579.63,290.78a.41.41,0,0,0-.7,0,1.93,1.93,0,0,0-.22,1.27,2.32,2.32,0,0,0,.49,1.26c.25.26.52.25.71,0a1.94,1.94,0,0,0,.21-1.27A2.15,2.15,0,0,0,579.63,290.78Z" style="fill: #e2a494"/>
    <path d="M674.47,308.08l-2.19,8,5.18,5.07s2.29,2,3.74.44c1.23-1.33,1.51-4.93.53-7S674.4,308,674.47,308.08Z" style="fill: #9f1209;fill-rule: evenodd"/>
    <path d="M674.42,307.58h0l-.16,0q-1.19,4.31-2.35,8.59l5.46,5.35a5.28,5.28,0,0,0,2,1,2.09,2.09,0,0,0,2.08-.61c1.37-1.46,1.66-5.4.58-7.66C681.17,312.59,675.13,307.73,674.42,307.58ZM681,321.13c-1.26,1.35-3.34-.42-3.35-.42l-4.91-4.81,2-7.15c1.36,1,6.08,4.6,6.79,6.07C682.33,316.64,682.08,320,681,321.13Z"/>
    <path d="M679,313.94a1.39,1.39,0,0,0-1.65,1.52,2.3,2.3,0,0,0,1.65,2.23,1.39,1.39,0,0,0,1.66-1.52A2.3,2.3,0,0,0,679,313.94Z" style="fill: #aa675d"/>
    <path d="M677.92,314.1a1.46,1.46,0,0,0-.39,1.12,2.12,2.12,0,0,0,.39,1.28c.24.3.54.37.78.17a1.49,1.49,0,0,0,.38-1.12,2.15,2.15,0,0,0-.38-1.29C678.46,314,678.16,313.9,677.92,314.1Z" style="fill: #e2a494"/>
    <path d="M640.29,289.19c-.52-.12-.94.38-.94,1.1a1.51,1.51,0,0,0,.94,1.51c.51.11.93-.38.93-1.1A1.51,1.51,0,0,0,640.29,289.19Z" style="fill: #f5d8bc"/>
    <path d="M646,290.9c-.52-.12-.94.38-.94,1.1a1.51,1.51,0,0,0,.94,1.51c.51.11.93-.38.93-1.1A1.51,1.51,0,0,0,646,290.9Z" style="fill: #f5d8bc"/>
    <path d="M642.83,293.09c-.65-.14-1.18.48-1.18,1.38a1.9,1.9,0,0,0,1.18,1.9c.65.14,1.18-.48,1.18-1.39A1.9,1.9,0,0,0,642.83,293.09Z" style="fill: #f5d8bc"/>
    <path d="M645.81,299.47c-.52-.11-.94.39-.94,1.11a1.52,1.52,0,0,0,.94,1.51c.52.11.94-.38.94-1.11A1.52,1.52,0,0,0,645.81,299.47Z" style="fill: #f5d8bc"/>
    <path d="M640.34,297.26c-.51-.12-.93.38-.93,1.1a1.52,1.52,0,0,0,.93,1.51c.52.11.94-.38.94-1.1A1.51,1.51,0,0,0,640.34,297.26Z" style="fill: #f5d8bc"/>
    <path d="M612.75,284.94c-.5.06-.82.7-.71,1.43s.61,1.26,1.11,1.2.83-.7.71-1.42S613.25,284.88,612.75,284.94Z" style="fill: #f5d8bc"/>
    <path d="M618.34,284.76c-.5.06-.82.7-.71,1.42s.61,1.27,1.11,1.21.83-.7.72-1.43S618.85,284.7,618.34,284.76Z" style="fill: #f5d8bc"/>
    <path d="M615.79,288c-.64.08-1,.88-.9,1.79s.77,1.6,1.41,1.52,1-.88.89-1.79S616.42,288,615.79,288Z" style="fill: #f5d8bc"/>
    <path d="M619.54,293.45c-.51.06-.83.7-.71,1.42s.61,1.27,1.11,1.21.82-.7.71-1.43S620,293.39,619.54,293.45Z" style="fill: #f5d8bc"/>
    <path d="M614.05,293.05c-.5.06-.82.7-.71,1.43s.61,1.27,1.12,1.21.82-.7.71-1.43S614.56,293,614.05,293.05Z" style="fill: #f5d8bc"/>
    <path d="M588.81,287.53a1.32,1.32,0,0,0-.55,1.6c.18.71.72,1.14,1.2,1a1.31,1.31,0,0,0,.55-1.59C589.83,287.8,589.3,287.36,588.81,287.53Z" style="fill: #f5d8bc"/>
    <path d="M594.21,286.14a1.33,1.33,0,0,0-.55,1.6c.18.71.72,1.15,1.2,1a1.33,1.33,0,0,0,.55-1.6C595.23,286.41,594.69,286,594.21,286.14Z" style="fill: #f5d8bc"/>
    <path d="M592,290a1.65,1.65,0,0,0-.69,2c.23.9.9,1.45,1.51,1.24a1.68,1.68,0,0,0,.69-2C593.32,290.33,592.65,289.78,592,290Z" style="fill: #f5d8bc"/>
    <path d="M596.21,294.67a1.31,1.31,0,0,0-.54,1.59c.17.72.71,1.16,1.19,1a1.33,1.33,0,0,0,.55-1.6C597.23,294.94,596.7,294.5,596.21,294.67Z" style="fill: #f5d8bc"/>
    <path d="M590.87,295.45a1.3,1.3,0,0,0-.55,1.59c.17.71.71,1.15,1.19,1a1.31,1.31,0,0,0,.55-1.59C591.88,295.72,591.35,295.28,590.87,295.45Z" style="fill: #f5d8bc"/>
    <path d="M665.05,299.29c-.54-.31-1.08,0-1.2.75a1.88,1.88,0,0,0,.75,1.88c.54.31,1.08,0,1.21-.75A1.9,1.9,0,0,0,665.05,299.29Z" style="fill: #f5d8bc"/>
    <path d="M670.9,303.16c-.54-.31-1.09,0-1.21.76a1.9,1.9,0,0,0,.75,1.88c.54.31,1.08,0,1.21-.76A1.92,1.92,0,0,0,670.9,303.16Z" style="fill: #f5d8bc"/>
    <path d="M667.14,304.2c-.68-.39-1.36,0-1.52.95a2.38,2.38,0,0,0,.94,2.36c.68.39,1.37,0,1.52-.95A2.39,2.39,0,0,0,667.14,304.2Z" style="fill: #f5d8bc"/>
    <path d="M669.24,311.76c-.54-.31-1.08,0-1.21.76a1.92,1.92,0,0,0,.75,1.88c.55.31,1.09,0,1.21-.76A1.9,1.9,0,0,0,669.24,311.76Z" style="fill: #f5d8bc"/>
    <path d="M663.7,307.45c-.54-.31-1.08,0-1.21.75a1.92,1.92,0,0,0,.75,1.88c.55.31,1.09,0,1.21-.75A1.88,1.88,0,0,0,663.7,307.45Z" style="fill: #f5d8bc"/>
    <path d="M671.33,228a10.13,10.13,0,0,1-5.63-4,4.48,4.48,0,0,1,.56-2.21L665,220.23c-.82,1.63-1.35,4,0,5.68a11.5,11.5,0,0,0,6.35,4.36c3.46.75,6.3-2.48,6.42-2.62-.35-.64-.71-1.27-1.07-1.91C676.65,225.77,674.16,228.58,671.33,228Z"/>
    <path d="M612.67,215.59a3.46,3.46,0,0,0-2.81-2.09,4.24,4.24,0,0,0-4.2,2.16,6.47,6.47,0,0,0-.66,4.19,7.33,7.33,0,0,0,1.62,4,3.16,3.16,0,0,0,1.69,1,3.48,3.48,0,0,0,1.47,0c1.08-.24,1.69-1.65,1.47-3.42-.2-1.6-1.14-3.41-2.75-3.58a1.37,1.37,0,0,0-1.65,1c-.35,1.33.57,3,.87,3.52l1-1.26c-.26-.45-.52-1.09-.58-1.14a.71.71,0,0,1,.47,0,1.6,1.6,0,0,1,1.21,1.54c.07.51,0,1.14-.47,1.24a2,2,0,0,1-2-.53,4.72,4.72,0,0,1-1-2.52,3.9,3.9,0,0,1,.41-2.55,3.22,3.22,0,0,1,3.15-1.56c1,.11,1.25.49,1.69,1.24a6.43,6.43,0,0,0,1.9,2.19,65.24,65.24,0,0,0,7,3.78c.09-.67.17-1.34.25-2a64.87,64.87,0,0,1-6.8-3.65A4.52,4.52,0,0,1,612.67,215.59Z"/>
    <path d="M593.34,201.63c-.06.64-.12,1.29-.19,1.94a7,7,0,0,1,2.64,1.75,7.29,7.29,0,0,1,.49,3.63c-.09.63-1.1,2.92-4.44,2.67a5.14,5.14,0,0,1-4.25-2.94l-1.14.88a7,7,0,0,0,4.67,3.95,7.21,7.21,0,0,0,.85.13,5,5,0,0,0,5.65-4,10.07,10.07,0,0,0-.86-5.51C596,202.79,593.78,201.81,593.34,201.63Z"/>
    <path d="M609.87,434.46v0Z" style="fill: #c00"/>
    <path d="M675.16,481c-7.42-.52-9.83,9.44-12.64,16.51-1.31,2.57-4.31,8-4.88,11.4-.11-5.87-2.13-23.33-2.54-40.53-.39-16.07-.08-32.65-.37-38.92-.36-8.27-.32-16-1.64-22.31-.61-3-3.45-6.29-4.91-6.49-3-.62-4.81,2.79-5.21,6.27-.29,2.76-.21,1.75-.41,5.36-.25,4.56.06,10.58-.17,15.75-.24,5.58.26,11.95.05,17.15-.42,10.47-1,20-1.16,22,0-3.92-1.23-22.7-1.64-40.36-.15-6.71-.26-13.3-.34-19.44-.06-5,.08-10.2-.28-14.12-.62-6.7-2.07-10-5.33-10.71-2.2-.48-5.35,1.17-6.36,8.24a94.66,94.66,0,0,0-.47,13.91c.08,4.91.26,10.21.21,15.49-.21,20-.45,41.14-1,47.26-.09-2.07-1.46-12.84-1.83-26.95-.15-5.55-.35-12.26-.56-18.68-.24-7.67-.22-13.35-.35-18.46,0-3.08-.87-12.09-4.92-12.44-2.12-.85-4.37.83-5.28,9-.5,4.55-.49,12.57-.57,18.73-.16,11.69-.51,21.89-.12,32.41.24,6.57.2,11.59.25,14.81a106.93,106.93,0,0,1-1.74-14.46c-.55-7.95-1-17.86-1.07-17.19v0c0-4.34-.15-10.65-.41-15.92-.21-4.22-.08-8.79-3.17-9.09s-5.07.82-5.72,8.54c-.42,5-.54,16-.63,19.94.34,10.22-1.52,33.46-2.36,40-.23,4.71-1.52,10.63-2.06,17.16a200.16,200.16,0,0,0,1.24,39.86c2.57,14.08,9.3,21.61,9,30.71s0,25.36,0,32.61,4.31,8.56,13.23,7.7c14.59-1.41,22.56,9.51,34.61,5.37-1.53-20.38,1.44-31.79,1.37-39,.08-.74.17-1.48.26-2.22,3.26-4,8.51-8,11.42-18.7,2.73-10,4.06-29.1,6.55-38.39C676.41,496.52,683,481.49,675.16,481Z" style="fill: #c00"/>
    <path d="M675.06,479.4c-6.95-.48-9.78,7.21-12.28,14-.4,1.07-.79,2.13-1.13,3l-.6,1.15c-.81,1.57-1.83,3.55-2.71,5.55-.12-1.55-.26-3.28-.41-5.17-.65-7.93-1.53-18.8-1.78-29.45-.21-8.52-.22-17.32-.22-24.39,0-6.47,0-11.59-.15-14.57-.08-1.75-.14-3.48-.19-5.17-.22-6.34-.42-12.32-1.5-17.52-.75-3.63-4.08-7.49-5.92-7.78-3.61-.74-5.77,3.28-6.24,7.36l-.09.91c-.16,1.42-.16,1.42-.25,3.19l-.07,1.36c-.14,2.38-.12,5.06-.1,7.91,0,2.64,0,5.38-.08,7.87-.12,2.95-.05,6.1,0,9.14.07,2.86.13,5.56,0,8l0,.86c-.27-5.9-.52-12.38-.67-18.75-.15-6.69-.26-13.28-.34-19.41,0-1.45,0-2.93,0-4.39,0-3.62,0-7-.27-9.91-.48-5.17-1.64-11.23-6.37-12.27-2.72-.59-6.28,1.48-7.38,9.26a97.67,97.67,0,0,0-.5,14.24c0,1.37.05,2.73.08,4.1.08,3.7.17,7.52.13,11.33-.11,10.42-.23,20.84-.38,29.36-.15-2.68-.28-5.57-.36-8.63-.15-5.56-.35-12.27-.56-18.69-.14-4.58-.19-8.45-.24-11.91,0-2.33-.06-4.48-.11-6.51,0-.8-.17-8-2.71-11.85a4.71,4.71,0,0,0-3.24-2.33c-1.93-.71-5.19-.22-6.33,10.06-.43,3.88-.5,10.12-.56,15.64l0,3.3c0,2.63-.08,5.19-.13,7.7-.08,4.32-.15,8.53-.17,12.7v0c-.11-2-.19-3.32-.28-4.21,0-4-.13-10.49-.41-16.13,0-.39,0-.79,0-1.18-.12-2.91-.25-5.93-1.57-7.88a3.58,3.58,0,0,0-2.69-1.69c-3.59-.35-6,1.15-6.68,9.68-.34,4.07-.48,11.83-.57,17l-.06,3.24c.33,9.84-1.48,32.91-2.36,39.82-.11,2.33-.51,5.07-.93,8s-.86,5.89-1.13,9.11a204.48,204.48,0,0,0,1.27,40.47,80,80,0,0,0,5.36,16.82c2.09,5.06,3.73,9.06,3.57,13.38-.24,6.51-.14,16.48-.06,24.49,0,3.23.06,6.1.06,8.2a11,11,0,0,0,1.7,6.5,7.42,7.42,0,0,0,4.7,2.87,27.55,27.55,0,0,0,8.1.11c6.72-.65,12,1.37,17,3.32,5.72,2.2,11.14,4.28,17.73,2l.76-.26-.09-1.2a152.79,152.79,0,0,1,.74-30.11,76.35,76.35,0,0,0,.62-8.51l.21-1.73c.53-.64,1.12-1.29,1.73-2,3.22-3.55,7.24-8,9.7-17,1.43-5.25,2.48-12.9,3.49-20.3,1-7,1.87-13.69,3.08-18.21.81-4,1.82-7.94,2.79-11.73,2.32-9,4-15.54,2.13-19.45A4.56,4.56,0,0,0,675.06,479.4ZM675,500.13c-1,3.83-2,7.78-2.81,11.8-1.24,4.63-2.16,11.4-3.14,18.56s-2,14.81-3.4,19.82c-2.28,8.34-6.08,12.52-9.13,15.88-.74.81-1.43,1.57-2,2.33l-.24.3-.33,3a77.77,77.77,0,0,1-.62,8.28,157.11,157.11,0,0,0-.83,29.69c-5.78,1.71-10.53-.11-16-2.22-5-1.92-10.65-4.1-17.71-3.42-4.19.41-9.23.55-11-2-.39-.55-.92-1.56-.92-3.95,0-2.11,0-5-.06-8.24-.08-8-.18-17.87.06-24.28.2-5.32-1.71-9.95-3.92-15.31a76.63,76.63,0,0,1-5.07-15.81,199,199,0,0,1-1.22-39.36c.26-3.09.68-6,1.1-8.86.43-3,.84-5.84,1-8.2.85-6.63,2.72-29.9,2.38-40.23l.06-3.14c.09-5.07.23-12.75.56-16.67.61-7.26,2.28-7.65,4.76-7.4a1.71,1.71,0,0,1,.25,0,1.35,1.35,0,0,1,.9.58c.65,1,.75,3.42.84,5.59l.06,1.22c.27,5.6.4,12,.4,16v.19h0c0,.5.13,2.07.25,4.2.2,3.48.48,8.44.78,12.79.59,8.44,1.21,12.46,1.74,14.38v.06h0c.47,1.66.88,1.69,1.13,1.71h1c0-.48,0-.95,0-1.43,0-.88,0-1.9,0-3.05,0-3.12-.05-7-.23-11.8-.29-8.09-.15-16.1,0-24.59,0-2.51.09-5.07.13-7.71l0-3.32c.06-5.41.12-11.54.53-15.2.38-3.44,1.42-9,4.11-8l.11,0h.12a2.3,2.3,0,0,1,1.75,1.23c1.43,2.17,2,6.85,2,9.5.05,2,.08,4.17.11,6.48,0,3.48.1,7.38.25,12,.2,6.42.4,13.12.55,18.67.28,10.66,1.12,19.35,1.57,24,.14,1.46.24,2.47.26,3l2.09.56c.55-6.07.8-25.9,1-47.44,0-3.87,0-7.73-.13-11.47l-.08-4.08a95.27,95.27,0,0,1,.45-13.57c.86-6,3.41-7.66,5.33-7.24,2.17.47,3.64,2.17,4.29,9.16.25,2.66.25,6,.25,9.5,0,1.48,0,3,0,4.44.08,6.15.19,12.75.34,19.46.26,10.74.8,21.8,1.2,29.87.25,5,.44,8.95.44,10.44l2.09.69c.23-2.14.77-12.27,1.17-22.13.1-2.58,0-5.36,0-8.29s-.14-6,0-8.84c.12-2.6.1-5.4.08-8.1s0-5.39.09-7.64c0-.45,0-.9.07-1.36.09-1.65.09-1.65.23-3l.09-.89c.34-2.86,1.79-5.71,4.24-5.21,1,.1,3.38,2.94,3.85,5.2,1,4.79,1.19,10.58,1.4,16.72.06,1.7.11,3.44.19,5.22.14,2.88.14,8.21.15,14.37,0,7.1,0,15.92.22,24.49.25,10.79,1.15,21.73,1.8,29.72.39,4.84.7,8.66.74,10.8l2.07.76c.45-2.64,2.75-7.1,4.13-9.76.22-.43.44-.86.65-1.29.41-1,.81-2.1,1.21-3.2,2.37-6.43,4.83-13.09,10.62-12.68a2.35,2.35,0,0,1,2.16,1.16C678.6,486.09,676.76,493.23,675,500.13Z" style="fill: #161111"/>
    <path d="M646.68,520.56l10.5-17.31C653.5,505.1,649.69,509.05,646.68,520.56Z" style="fill: #c00"/>
    <path d="M645.69,519.82l2,1.48c3.09-11.79,7-15,10-16.58l-.93-3C653.34,503.48,649,507.07,645.69,519.82Z" style="fill: #161111"/>
    <path d="M615.26,565.64c-1.79-.44-3.58-.83-5.52-1.19a4.45,4.45,0,0,1-2.26-1,2.64,2.64,0,0,1-.36-.31c-.47-.45-1.37-1.29-2.3-.59.34.94.67,1.88,1,2.82a2.61,2.61,0,0,1,.37.31,3.45,3.45,0,0,0,.76.62,7.53,7.53,0,0,0,2.36,1.2,2.21,2.21,0,0,0,.62.06c1.76.33,3.52.72,5.34,1.17,2.13.35,4.14.68,6.11-.91-.41-.93-.81-1.85-1.21-2.78C618.71,566.2,617.16,566,615.26,565.64Z" style="fill: #161111"/>
    <path d="M644.54,495.26a41.11,41.11,0,0,1,8.36-.08l-.15-3.09a42.48,42.48,0,0,0-8.58.07,48.5,48.5,0,0,0-11.51,2c-1.85.48-3.7,1-5.62,1.33-1.66.47-3.34.88-5,1.29a92.06,92.06,0,0,0-8.91,2.52c.26,1,.51,2,.77,3a87.65,87.65,0,0,1,8.77-2.48c1.69-.42,3.38-.84,5-1.29,1.89-.37,3.77-.86,5.64-1.34A46.52,46.52,0,0,1,644.54,495.26Z" style="fill: #161111"/>
    <path d="M654.51,568.82c-1.2,1.39-4.87,5.57-8.94,4.33-6.86-.68-8.25-1-9.2-1.86a8.91,8.91,0,0,1-1.75-1.87l-1.33,2.08a11.83,11.83,0,0,0,2.27,2.44,5.83,5.83,0,0,0,3,1.36,71.2,71.2,0,0,0,7.06.92c4.84,1.53,9-3.28,10.47-5l-.72-1.28Z" style="fill: #161111"/>
  </g>
</svg>
