<svg xmlns="http://www.w3.org/2000/svg" xmlns:xlink="http://www.w3.org/1999/xlink" viewBox="0 0 1260 1012.04">
  <defs>
    <clipPath id="a" transform="translate(0 0)">
      <path d="M0,90.08C420-181.24,840,273.28,1260,2V922C840,1193.28,420,738.76,0,1010.08Z" style="fill: none"/>
    </clipPath>
  </defs>
  <g style="clip-path: url(#a)">
    <path d="M1260,2C840,273.28,420-181.24,0,90.08v920C420,738.76,840,1193.28,1260,922Z" transform="translate(0 0)" style="fill: #0065bd"/>
    <path d="M1260,814.68c-161-13.55-322-133.79-483.06-278.91,161-90,322-204.92,483.06-426.51V2c-49,31.64-98,53.41-146.94,67.61C952,233.83,791,316.28,630,398.73,469,246,308,93.35,146.94,22.47,98,36.67,49,58.44,0,90.08V197.37c161,13.55,322,133.79,483.06,278.91C322,566.3,161,681.2,0,902.79v107.29c49-31.64,98-53.41,146.94-67.61C308,778.21,469,695.76,630,613.31,791,766,952,918.69,1113.06,989.58c49-14.2,98-36,146.94-67.61Z" transform="translate(0 0)" style="fill: #fff"/>
  </g>
</svg>
