<svg xmlns="http://www.w3.org/2000/svg" viewBox="0 0 1260 1012.04">
  <g>
    <path d="M0,90.08v920C420,738.76,840,1193.28,1260,922V2C840,273.28,420-181.24,0,90.08Z" style="fill: #fff"/>
    <path d="M0,1010.08C420,738.76,840,1193.28,1260,922V462C840,733.28,420,278.76,0,550.08Z" style="fill: #00ab39"/>
    <path d="M1048.78,273.62a.69.69,0,0,0-.19.1h-.06c-8.57,5.82-16.3,11.25-23.29,16.36-61.13,41.88-72.07,64.28-105.91,92.55a1.24,1.24,0,0,0-.4,1.37,1.11,1.11,0,0,0,1.12.75c16.69-.32,31.12-4.35,44.2-12-3.36,6-7.18,13.33-10.92,19.83a82.31,82.31,0,0,1-6.05,9.35,12.84,12.84,0,0,1-2.2,2.34c-.3.21-.32.12-.46.16-9-4.69-18.46-7.51-27.49-7.89-33.75-1.45-57,20.34-57.23,50-.19,31.77,22.35,57.79,44.73,57.73,7.75,0,18.11-1.76,27.24-8.24,6.68-4.72,12.54-12.1,16-22.51.07.85.25,1.66.25,2.53,0,17-5.94,28.73-15.66,36.49S909,523.92,893.59,523.22c-15.06-.68-30.52-11-52.33-23.25s-50-26.3-90.26-34.55c-12.06-2.47-23.5-3.43-33.1.11-.61.22-1.13.67-1.74.93A50.62,50.62,0,0,1,734.87,453c17.53-7.07,39.79-5.8,59.7,6.25,2.14,1.45,4.64,3.26,6.49,4.38a37.78,37.78,0,0,0,3.72,1.72c.33,2.69.36,4.79-.06,5.71a1.55,1.55,0,0,1-.87.82,3.33,3.33,0,0,1-.71.09,3,3,0,0,1-1.55-.17.87.87,0,0,0-1,.22,1.15,1.15,0,0,0-.21,1.12,1.41,1.41,0,0,0,.59,1.31c.27.18.52.17.78.33,1.59,1.92,3.33,3.08,5,2.92,2.08-.22,3.83-1.75,5.19-3.69a19,19,0,0,0,2.94-6.52c0-.25,0-.46.06-.71a9.69,9.69,0,0,0,2.34-8.2c-.59-3.72-3.32-7.89-8.51-11.77-.1-.1-.08-.28-.21-.37a13.93,13.93,0,0,1-2.14-3.7,45.67,45.67,0,0,1-2.4-8.39,58.91,58.91,0,0,1,0-22.86c3.32-15.93,14.35-30.31,44.52-30,.15,0,.21-.16.34-.17,5.82,1.93,11,3.35,15,3.67.63.06,1.11-.05,1.7,0a6.87,6.87,0,0,1,.77,1.16,5.34,5.34,0,0,1,.59,3,8.28,8.28,0,0,1-1.7,3.22c-.06,0-.06,0-.13.06a.94.94,0,0,0-.71.64,1.24,1.24,0,0,0,.13,1.09v.14h.06v.07a1.19,1.19,0,0,0,.78.86,4.68,4.68,0,0,0,1.24,0,5.28,5.28,0,0,0,5.2-.16,13.88,13.88,0,0,0,4.88-6.79,14.49,14.49,0,0,0,.52-9,8.27,8.27,0,0,0-4-4.44c-23.84-29.5-22.85-62.58-13.46-89.44a124.76,124.76,0,0,1,18.39-34.25c6.83-8.85,14.37-15.09,18.08-16.29.19-.07-.12.18.07.08a12.13,12.13,0,0,0,4.41.05A15.3,15.3,0,0,0,906.4,232c.08.09,0,.31.12.37a1,1,0,0,0,1.31-.58l.06-.07a4.76,4.76,0,0,1,.9-.39,5.59,5.59,0,0,1,2.42-.24,1.57,1.57,0,0,1,.71.32.55.55,0,0,1,.25.44c.09.55-.14,2-1.36,4.24,0,0,0,0-.07.06v.15a1.24,1.24,0,0,0-.06.93l.06.07v.07h.07l.06.14.06.08a.35.35,0,0,0,.09.07.82.82,0,0,0,.25.16l.13.08h.39a.89.89,0,0,0,.32-.05,1.56,1.56,0,0,0,.19-.14s0,0,.08-.07a9.5,9.5,0,0,0,5.4-3.29,18.11,18.11,0,0,0,4-7.45c.71-2.75.61-5.79-1.22-7.92-1.55-1.79-4.32-2.63-8-2.76a7.71,7.71,0,0,0-3.44-3.95,12.9,12.9,0,0,0-5.67-1.09l-1.43-.51c-3.82-2.9-7.1-4.71-10.4-5.45h0a16.24,16.24,0,0,0-10.14,1.17c-7.18,3-15.94,10.25-31,21.15-34.06,24.65-72.74,22.26-118.71,14.38-95.57-17.05-139.8-2.12-160.65,26.57-20.87,28.36-18.25,68.37-20.75,97.1-1.72,19.62-5.08,36-18.33,52.14,3.61-9,4.73-15.85,3.84-21.32-.94-5.8-3.9-10.07-7.28-13.77s-7.12-6.85-10.08-10.82a27,27,0,0,1-4.62-11.41c3.8-2,8.36-1.17,12,1.94,4.51,3.9,7.6,11.23,5.39,21.12-.06.42.28.81.59,1.12.06.18-.06.36.06.5a1,1,0,0,0,1.31.26l.12-.12s0,0,0-.07c9.24-8.9,13.25-16.84,13.9-24.3s-2-14.26-5.71-20.36-8.36-11.65-11.69-16.86c-3.2-4.95-5.09-9.46-4.37-14.06a10.11,10.11,0,0,1,4.16-2.54c2.75-.68,5,.56,7,3a27.26,27.26,0,0,1,4.62,9.94,28.89,28.89,0,0,1,.9,10.51c0,.07.06.08.06.15a1.37,1.37,0,0,0,.53,1.4.94.94,0,0,0,1.3,0,.76.76,0,0,1,.13-.2s0-.09.06-.13c6.13-9,8.65-17.21,8.78-24.8a42.18,42.18,0,0,0-5.59-20.78A101.81,101.81,0,0,0,535.81,270c-3.78-4.5-7-8.29-8.71-11.39,0-.82,0-1.79,0-2.58a11.39,11.39,0,0,1,10.26-.7c3.89,1.68,7.38,5.45,9,12.63,0,.06.11,0,.13.09a1.41,1.41,0,0,0,1,1.28.87.87,0,0,0,1-.94v-.07c.42-13.88-1.93-25.57-6.63-34.88A45.16,45.16,0,0,0,523.25,214a16.84,16.84,0,0,1,1-1.45c2.65-3.3,6.26-7,9.75-11.42,7-8.81,13.65-20.38,12.22-36.68,0-.14-.15-.25-.19-.39s0-.33-.13-.46a1.33,1.33,0,0,0-.79-.45c-.17,0-.17.23-.32.3s-.36.06-.46.19c-6.51,8-18.29,8.33-30.62,7.84a80.34,80.34,0,0,0,4.81-10.2c1.81-4.77,3.21-9.69,2.54-13.7v-.07c0-.11,0-.25,0-.36a1.33,1.33,0,0,0-.46-.8,1.19,1.19,0,0,0-.84-.31c-.11,0-.11.14-.19.18a.84.84,0,0,0-.46.2c-7.54,7.55-21.74,10.26-34.21,11.89-6.22.82-12,1.36-16.38,2.14a25.9,25.9,0,0,0-5.4,1.44,5.16,5.16,0,0,0-2.08,1.53A138.24,138.24,0,0,0,437,156c-13.2-2.54-23.94-2.06-31.2.38a17.84,17.84,0,0,0-8.28,5.16,9.31,9.31,0,0,0-2,7.82c.52,2.72,2.56,5.52,5.27,8.35-18.84-10.49-35-15-48.24-15.73a71.47,71.47,0,0,0-14.95.74,58.06,58.06,0,0,0-21.19,7.64,33.28,33.28,0,0,0-8.21,6.83c-.19.19-.46.22-.65.43,0,0-.08,0-.13.07s.05.19,0,.29-.29.31-.37.43-.11,0-.13.08v.07c-.06.08-.21.21-.27.29a1.25,1.25,0,0,0,.06,1.43,1,1,0,0,0,1.3.21,47.85,47.85,0,0,1,7.94-4.11,1.44,1.44,0,0,0,.38.08,19,19,0,0,1,7.1,1.63,39.43,39.43,0,0,1,6.57,3.7,27.87,27.87,0,0,1,3.17,2.59l.13.15a37.22,37.22,0,0,0,4.68,2.71c-3.66,8.17-4.94,18.68-4.87,34.12-.65.12-1.14.27-1.89.38a69.77,69.77,0,0,1-14.43.44,60.91,60.91,0,0,1-24.57-6.93,29.93,29.93,0,0,0,3.91.68,27.18,27.18,0,0,0,14.88-3.5,15,15,0,0,0,1.75-.36,1.12,1.12,0,0,0,.65-1.08c0-.32-.25-.5-.46-.71s-.07-.31-.19-.36c-5.74-2.55-36.1-17.47-61.76-50.38l-.07-.06-.06-.07a.93.93,0,0,0-1-.33,1.26,1.26,0,0,0-.84,1.3,1.2,1.2,0,0,0,.07.42c1.17,17,6,57.21,37.38,89a1,1,0,0,0,1.24.16,1.24,1.24,0,0,0,.52-1.23c-.76-4.36-1.13-7.35-1.89-11.75,0-.07-.1-.08-.13-.14a64.09,64.09,0,0,0-1-12.94c9.36,9,19.23,13.08,28.47,14.42,11.79,1.69,22.47-.69,29.51-1.64.36,0,.76-.12,1.11-.17.11,7.32-2.43,16.55-6.63,24.12a39,39,0,0,1-8.13,10.54c-2.94,2.54-6,3.92-8.9,3.66h-.07a1.09,1.09,0,0,0-.84,1.07c-.19.21-.48.25-.46.57a1.1,1.1,0,0,0,1,1.14c12.79.13,23.46.9,35.05.71h.06a5,5,0,0,1,2.14.12,1.71,1.71,0,0,1-.19.5c-.75,1.38-3.21,3.91-6,6.76a1.15,1.15,0,0,0-.26,1.28,1.07,1.07,0,0,0,1,.76c.07,0,.15-.06.21-.06a1,1,0,0,0,.91.28c.12,0,.21-.11.31-.15.44-.09.76-.23,1.18-.35,7.52-.48,16.88-1.55,23.94-6.51a20.3,20.3,0,0,1-.65,2.61,7.67,7.67,0,0,1-1.64,2.31c-.11.11-.4.34-.53.47-1.21.91-2.08,1.75-3.63,2.81a.84.84,0,0,0-.19.12,1.12,1.12,0,0,0-.4,1.19,1.16,1.16,0,0,0,.84.91.54.54,0,0,0,.28,0h.12c.06,0,.15-.06.19-.05,7.9-.34,21.71-5.75,31.67-16.18a19.17,19.17,0,0,1,10.73,7.51c1.22,1.64,2.12,3.15,3.11,4.26a4.78,4.78,0,0,0,1.36.95c0,.5-.42,1-.31,1.46a4.65,4.65,0,0,0,1.68,2.57c-3.72,7-4.85,12.16-4.29,15.54a9,9,0,0,0,2,4.39c-5,3.38-9.12,7.17-11.11,10.81a8.42,8.42,0,0,0-1.18,5.9,5.58,5.58,0,0,0,.78,1.44,4.49,4.49,0,0,0-1.18-.06h-.06c-4.91,2.06-9.7,6.8-12.29,11.63a13.47,13.47,0,0,0-1.82,7.14,6.32,6.32,0,0,0,1,2.74c-6.19,2.88-12,10.19-15.22,16.88-1.62,3.44-2.58,6.67-2.33,9.34a4.92,4.92,0,0,0,1.62,3.41c-.21.24-.36.39-.59.62s-.21.13-.32.26c-6.25,3-10.43,11-12.22,18.19a23.46,23.46,0,0,0-.71,9.71,6.44,6.44,0,0,0,1.24,2.43c-.34.25-.74.39-1.05.67a21.56,21.56,0,0,0-3.7,4.41l-.06.07c-3.68,4.89-5.25,13.16-5,20.14a22.31,22.31,0,0,0,1.89,9.07,7.29,7.29,0,0,0,1.68,2c-.07.09-.32.24-.38.33l-.06.06c-3.68,4.9-5.25,13.18-5,20.15a22.53,22.53,0,0,0,1.89,9.07,6.68,6.68,0,0,0,2.35,2.78,3.88,3.88,0,0,0,1.68.23c-.13.22-.57.7-.65.84a.24.24,0,0,1-.06.13,5.91,5.91,0,0,0-1.31,2.43c-.16.52-.25,1.23-.37,1.85-2.25,4.86-4.1,2.06-5.34.09-9.7-22.58-19.17-35.86-28.47-86.39-1.64-8.87-19.6-22.62-24.53-58.08-1-8,10.1-25.63-5.19-30.53,0,0-.08,0-.13,0-10.43-21.49-31.83-11.81-35.23-4.32a1.23,1.23,0,0,0-.09,1.36.89.89,0,0,0,1.12.35c2.77-1.1,11,1.43,11,7.05-4.58,12.13,1.11,21.64-1.93,20.78-.48-18.52-18.92-16.75-19.51-16.45,0,0,0,.07,0,.1q-4.12-.14-8.25-.21c-27.51,3.67-19.76,24.93-18.08,28.85a1.77,1.77,0,0,0,2.66-.68c-1.21-8.08,4.81-9.36,11.11-6.9,4,16.22,12.43,15.94,13.59,15.86v.1l.13,0c11.4,1.45,15,9.6,15.09,14.61-3.63-1.27-8.06-1.73-14.23.15-4.14-4.25-12.12-5-14.77-5.3-1.3-.14-9.85,2.16-13.33,8.09l-1.3,0c-17.08,8.65-10,28.65-4.22,30.23a.76.76,0,0,0,1,.22,1.08,1.08,0,0,0,.51-1c-2.56-6.07,1.05-10.23,5.46-8.69,6.55,7,14.61,9,30.95-2.62.25.12,5.78,2.34,11.63,4.3-.23,7.55,7.06,20.23,12.35,29.79-1.66,7.77-4.43,15.54-6,18.46-.05,0-.11.13-.15.15-6.62,6-12.33,19.78-9.62,31.48-2.08,6-9.58,9.8-9.62-1.5a.9.9,0,0,0-1.17,0,1.24,1.24,0,0,0-.44,1.26c-2.42,7.79,8.92,29.22,26.64,16.42l3.57-4.61c5.84-.19,12-8.78,14.18-16.08,8.78,58.59,29.51,118.05,38.16,137.67-6.41,21.42-25.1,20.47-31.21,13.56a1,1,0,0,0-.19-.14.94.94,0,0,0-1.43.23,1.22,1.22,0,0,0,.13,1.59C312.62,638,318.88,642,330.1,642.21c24.67.57,33.3-15.36,35.23-22.42,20.77-3.51,36.73-16.59,42.72-17.13.92,1,2.18,2.77,3,3.63,4.94,4.86,9.05,7.78,12.69,8.69a7.59,7.59,0,0,0,4.81-.26,24,24,0,0,0,6.17,8.64c-1.07,7.86-1.91,24.09-7.2,44.27-5.46,20.78-15.65,45.06-35.45,67.38-7.79,3-14.09-3.26-18.12-7.13-3.41-3.26-12.25-14.24-13.8-19.7-1.83-6.46-4-11-7-14.44S345,689,341.08,688.4c0,0,1.49.38-.13,0-1.43.09-2.39-.06-3.32.05-12-10.85-23.91,6.69-22.49,17.67a1.06,1.06,0,0,0,.78,1,1.16,1.16,0,0,0,1.24-.41c1.62-4.16,6.4-3,8.84.74A17.9,17.9,0,0,0,329.76,721c-3.8.22-8.65,1.39-13.71,7.76-20.6,2.79-16.85,28.52-10.73,32.66a1,1,0,0,0,1,.63,1.07,1.07,0,0,0,.84-.93c-6.74-9.49,2.8-13.76,7.54-9.34,1.2,4.19,6.66,8.12,11.26,10.64-.23,1.24-1.74,6.25-1.24,7.64-22.15,13.14-1.62,36.46,3.51,35a3.27,3.27,0,0,0,1.17-.41,1.23,1.23,0,0,0,.38-1.28c-3.15-5.56-3.27-12.22,2.23-10.2,2.87,2.09,8.27,3.06,11.17,3.23,7,.4,10.92-4.38,19.7-13.26,5.23-5.28,9.24-2.27,12.49-.13.34,1.63.91,3.58,2.67,4.51,2.58,1.37,8.17,2.45,11.44,2.64,18.11,1.08,28.15-2,36.4-4.08a60.33,60.33,0,0,1,22.7-1.83c6.47.81,10.71,2.88,17.74,6.58,3.53,1.85,9.18,5.91,12,6.33,4.56.58,6.6-1.45,7.73-3.19,6.76-.16,8.49,3.42,4.56,11.1a1.45,1.45,0,0,0,.44,1.37.92.92,0,0,0,1.18.13c7-2,28-20.16-.32-37.82-4.3-4.95-9.91-9.45-14.24-10.18s-8.69.5-13.21.86-8.9.67-10.39.46c-5.8-.75-6.07-4.71-6.64-11.79s12.94-29.69,18.92-37.4a406.66,406.66,0,0,1,39.09-42.84c33.93,4.82,20.24,24.27,14.48,27.38a1,1,0,0,0-.37,1.37,1.21,1.21,0,0,0,1.21.88c.13,0,.21-.07.34-.1,12.29-1.18,23.92-8.06,27.83-15.89,0,0,8.86-15,1.3-30.92-.36-.9-.74-2.11-1.12-3.08,4.25-1.3,9.41-8.1,9.62-9.13,5.65,2.91,27.43,6.24,29.4-6.77,10.06,3.23,28.06-.17,28.73-12,1.18,1.5,3.74,2.11,6.57,2.17,1.14,10.32,15.06,22.91,18.27,21.47,1.41,17,20.63,29.11,26.21,27.39-.94,3.84,13.23,14.5,18.92,15.35-10.92,30.06-30.28,62.4-57.1,71.1-7.18-2.38-17.45-9.86-22-14.17-3.61-3.45-8.21-7.81-11.07-13.44S594,724,591,720.09s-9.07-7.76-11-8a11.76,11.76,0,0,0-5.86,1.61C547.68,703,550.2,724.3,552.51,732.27a1.4,1.4,0,0,0,.77,1.15,1,1,0,0,0,1.24-.18c.09-10.79,5.69-9.61,8.65-4a1,1,0,0,0-.06.49c1.6,4.08.9,6,.32,7.31a14.09,14.09,0,0,0-9.35,2c-23.25-7.54-21.13,21.05-13.73,25.8a1.26,1.26,0,0,0,1,.85.83.83,0,0,0,.84-.75c-4.16-7.55,6.32-15.63,8.77-3v.07a1.19,1.19,0,0,0-.12,1.27c.54,4.06,4.77,8.77,8.5,11.5-.67,1.08-2.07,1.85-2.39,3.87-24.49,4.45-10.82,30.2-3.57,35a1,1,0,0,0,1.22.25,1,1,0,0,0,.4-1.13c-2.23-3.93-1.41-11.64,8.77-8.07.87,3.39,5.32,5.77,8.78,6.58,7,1.56,19.79-6.12,26.53-8.69,6.36-2.42,16.69,1.25,19.38,2,1.34,1.54,3.42,3.23,8.13,4.21,24.57,5,28.83-8.6,53.63-2.88,11.13,2.58,37.51,22.44,45.91,10.74,3.8-.79,5.9,3.33,1.3,7.44-.32.28.08,1,.44,1.37s.73,0,1.17.16c7.33,2.43,29.26-19.58.26-33.71a2.29,2.29,0,0,0-.44-.87,22.19,22.19,0,0,0-13-7.47c-9-1.81-15.19,1.4-18.27,1.7-6.56.66-4.2-4.65-3.51-6.39,7.26-17.86,42.31-47,58.19-58.76a27.2,27.2,0,0,0,5.8-2.29c16-3.45,20.24,14.33,4.53,17.8a2.6,2.6,0,0,0,2,4.15c37-4.32,31.39-27.69,31.41-27.86,1.39-22.68-23.54-36.36-27.57-39.3-6.78-9.46-8.36-14.63-7.85-20.47.23-2.81,2.31-7.33,5.83-4.62,6,6.24,13.13,10.5,15.17,6.63-4.25,4.67,25.16,28.72,28.07,21.07,2.84,14.23,24,16.31,28.08,13,6.15,13.86,27.76,12.71,27.7,10.39-.88,4.74,18.77,13.68,27.82,6.8.14.37.27.74.4,1.11,7.19,10,11.49,23,16.38,45.65s4,40.3-2.54,58c-.31.62-2.08.6-4.09.42-5.25-2.57-8.34-4.52-11.89-7.91a64.56,64.56,0,0,1-10.41-12.61c-2.76-5.6-4.69-10.06-7.73-13.62s-8.28-5.5-12.22-6.32l-.13,0a8,8,0,0,0-4.56,1.32c-19.74-8.85-29.25,12.64-26.92,20.51a1.39,1.39,0,0,0,.86,1.12,1,1,0,0,0,1.22-.27c2-5.35,11.13-7,14.38-1.38a8.33,8.33,0,0,1-.14,5c-4.1,0-9,.76-13.65,6.58-23.12-1.47-15.21,24.33-10.52,31.49a1.15,1.15,0,0,0,1,.78,1,1,0,0,0,.92-.81c-.59-7.28,6.09-14.95,10.79-7.83,2.1,3.88,6.74,7.08,10,8.26-26.46,10-7.5,31.6-.32,35.8a1,1,0,0,0,1.18.14,1.05,1.05,0,0,0,.44-1.17c-3.23-6-1.43-14.32,4.75-11.37-.15,4.69,8.65,8.78,12.68,9.24,7,.81,14.45-4.88,21.19-8.36,6.43-3.3,21.5-2.54,24.51-2.48,10.12,11.12,29.5,8.91,40.32,5.09,11.57-4.05,20.3-11.33,29.38-12,12.32-.5,21.82,15,32.57.16,7-4.43,9.15,4.75,5.73,11.09a1,1,0,0,0,1.62,1c7.12-4.09,25.64-25.13.33-35.36,1.26-3.72-9.8-13-19.11-12.28-11.38.93-28.54,20.65-35.23-17-1.64-9.06-6.3-74.7-6.64-81,2.23-1.6,5.19-3.55,7.35-3.51,2.54-.21,5.1-.52,7.6,3.75s4.43,10.74-1.89,20c-.08.14.11.27.06.44s-.23.37-.18.58.18.15.25.26,0,.28.06.37.17,0,.27,0,.09.18.19.2a1,1,0,0,0,1-.38c15.69-17.74,19.49-36.37,15.33-48.55s-15.68-20.92-25-21c-11.19,0-23.6-7.24-34.18-18.31a99.81,99.81,0,0,1-21.4-35.32c-.76-2.13-1.81-4.21-2.67-6.3,68.46-23,88.14-86.71,88.09-122.74a91.73,91.73,0,0,0-23.14-61.69c-.23-6.09,1.22-13.93,3.45-20.82a87.59,87.59,0,0,1,3.84-10c.5-1.08.92-1.84,1.3-2.5a33.58,33.58,0,0,0,1.43,5c1.15,3.09,2.69,6.72,4.43,10.39,3.47,7.34,7.62,14.68,11.17,17.69a.92.92,0,0,0,1,.09,1.36,1.36,0,0,0,.65-1c2.78-37.4,14.37-91.48,51.94-147.12l.06-.08s0-.05,0-.07l.4-.28a1.37,1.37,0,0,0,.52-1.45A.89.89,0,0,0,1048.78,273.62ZM930.51,446.81c-3.76,14.58-10.67,18.61-16.32,18.27a11.36,11.36,0,0,1-10.4-11.41c0-7.7,2.44-11.17,6.11-12.93a13.69,13.69,0,0,1,6.7-1.16h0a26,26,0,0,1,8.26,2.08,37.89,37.89,0,0,1,6.3,3.81A3.63,3.63,0,0,0,930.51,446.81ZM384,243.61c-4.05.65-9.18,0-14-1.39a51.88,51.88,0,0,1-12.56-5.39,15,15,0,0,1-2-1.62,85.08,85.08,0,0,1,13.27-.11h0a47.15,47.15,0,0,1,20.6,6.25A10.85,10.85,0,0,1,384,243.61ZM524.74,425.8a24.24,24.24,0,0,1-9-9.89c2.12-3.14,5.14-5.25,7.79-5.25h0a5,5,0,0,1,3.78,1.68,9.6,9.6,0,0,1,2.2,5.65c0,.17.21.21.28.36a1.26,1.26,0,0,0,.44,1.07c.12.1.21,0,.33,0A84.92,84.92,0,0,1,524.74,425.8Z"/>
    <polygon points="368.65 235.1 368.65 235.1 368.65 235.1 368.65 235.1"/>
    <path d="M432.49,611.44a13.83,13.83,0,0,0,2.67,4.8c.21-3.12.42-6.66.52-11.32a25.76,25.76,0,0,1-2.94,6.28C432.68,611.3,432.57,611.34,432.49,611.44Z" style="fill: #d21034"/>
    <polygon points="435.68 604.92 435.68 604.92 435.68 604.92 435.68 604.92" style="fill: #d21034"/>
    <path d="M422.81,307.77c.92,1.49,2.6,2.73,5.33,3.55,7.29.55,13.91,1.25,18-.18,2.77-1,4.6-2.8,5.52-6.43.89-3.37.78-8.63-.44-15.89h0c-5.18,3.18-12.79,3.46-21.4,3-.14.11-.19.34-.4.31a14.21,14.21,0,0,0-2.14-.35h-.12a18.38,18.38,0,0,0-5.34,10.43A8.37,8.37,0,0,0,422.81,307.77Z" style="fill: #d21034"/>
    <path d="M428.33,530.56a23.6,23.6,0,0,1-5.92,5.41c-10.18,6.48-26,10.27-38.81,15.54a3.14,3.14,0,0,0-1.17,1.62,9.25,9.25,0,0,0,0,3.8,32.93,32.93,0,0,0,4.22,10.53,40.72,40.72,0,0,0,7.75,9.63,12.91,12.91,0,0,0,7,3.48c9-3.65,20.16-9.1,28.16-16.74,5.08-4.88,8.55-10.35,8.84-15.88S435.93,536.72,428.33,530.56Z" style="fill: #d21034"/>
    <path d="M424,288a22,22,0,0,0,2.55,1c7.62-.39,16-1.1,21.65-4.48a13,13,0,0,0,6.44-8.5c.84-3.6.32-8.49-1.89-14.75h0a51.06,51.06,0,0,1-9.3,11,101,101,0,0,1-13.84,9.56c-2,1.19-3.67,2.27-4.89,3.17a5.16,5.16,0,0,0-1.09,1.24c0,.09-.17.17-.19.25a.81.81,0,0,0,0,.65A1.7,1.7,0,0,0,424,288Z" style="fill: #d21034"/>
    <path d="M440.81,187.19c3-1.42.33-3.93-2.92-4s-7.21-.87-6.05-.46c1.43,2.8.44,6.55-2.67,6.31C432.39,190.58,437.72,188.63,440.81,187.19Z" style="fill: #d21034"/>
    <path d="M343.41,189.36c-3.24,7.11-4,15.81-3.3,29.12,27.79-21.92,41.48-7.19,54.22-5.24.13-1.46.26-3,.38-4.41a1,1,0,0,1,.84-.92,1.12,1.12,0,0,1,.86.37c6.41,6.8,10,11.89,10.65,18.25s-1.64,13.58-6.24,25.06a.89.89,0,0,1-1.15.59,1.27,1.27,0,0,1-.86-1.23c0-2.93.14-4.91.27-7.21a40.66,40.66,0,0,1-20.29,5.52c-7.54-.07-16.4-2.71-26.14-9.46-2.67,12.57-7,22-12.29,28.2a28.37,28.37,0,0,1-8.77,6.92c14-.65,28.3-2.36,36.54-9.76a1,1,0,0,1,1.17-.13,1.35,1.35,0,0,1,.59,1.19c-.32,6-4.37,11.83-10.61,17.16,15-5.18,24.09-13.15,27.05-18.86a1,1,0,0,1,1.18-.47,1.28,1.28,0,0,1,.78,1.16c.21,5.17.27,9.24-1.71,13.23a20.63,20.63,0,0,1-4.41,5.78,57.52,57.52,0,0,0,11.05-7.31c4.07-3.74,6-7.38,8.25-11.36,0,0,.11,0,.13-.05a1,1,0,0,1,.59-.45,1.17,1.17,0,0,1,1.11.76c16.61,10.5,31.63,7.08,41.29-2.85s13.9-26.78,8.25-42.06a1.21,1.21,0,0,1,.19-1.27,1,1,0,0,1,1.17,0,42.36,42.36,0,0,0,7.35,4c-.88-.83-1.42-1.12-2.41-2.17a30.39,30.39,0,0,1-6-8.79c-.05,0-.05,0-.09-.08-.06-.18-.19-.36-.25-.54a1.36,1.36,0,0,1,.06-1.07.89.89,0,0,1,.84-.37,1.1,1.1,0,0,1,.72.39c13,13.83,14.15,11.87,18.73,14.5a2.09,2.09,0,0,0,2-.17c.87-.4,1.94-1,3.07-1.5,0,0,.06-.1.13-.12a1.15,1.15,0,0,1,1.36.66,1.09,1.09,0,0,1-.27,1.46.86.86,0,0,1-.19.11c-.11.08-.21.09-.32.17-4.55,2.87-8.33,4.21-11.5,4.33a13,13,0,0,1-6.77-1.71A56.76,56.76,0,0,1,457,253c2.12,9.38,2.77,16.73,2.08,22.4a20.16,20.16,0,0,1-3.17,8.83c.35,7.5.84,14.15.9,18.63.06,5.27-.42,8.85-2.54,11a7.27,7.27,0,0,1-3.19,1.54c.56,9.47-1.08,15.62-4.23,19.14a11.14,11.14,0,0,1-4.8,3c1.21,9.76-.34,16-3.85,19.54a13.55,13.55,0,0,1-6.76,3.53c.9,11.92-.63,19.11-4.16,23a10.47,10.47,0,0,1-3.88,2.59c1.7,12.4.17,20.05-3.66,24.48a13,13,0,0,1-2.33,2s0,0,.07.07c3.33,13,2.31,21.12-1.71,25.95a13.27,13.27,0,0,1-1.36,1.22c.06.08.17.07.21.16,4.79,14.12,4.75,23,1.43,28.55,5.21,10.61,6.47,18.27,4.68,23.91a14.27,14.27,0,0,1-1.64,3.32C428,506,432,514.2,432,520.81a15,15,0,0,1-.51,3.86,36.56,36.56,0,0,1,8.64,10.15A132.18,132.18,0,0,1,448.43,504a18.75,18.75,0,0,1-7.5-2.8c.15.92.15,1.79.34,2.69,0,.19,0,.35.06.52a.43.43,0,0,1,0,.16,1,1,0,0,1-.71,1.25,1.21,1.21,0,0,1-1.3-1v-.07a66.36,66.36,0,0,1-1.37-8.15c-.19-.51-.4-1-.59-1.57a1.29,1.29,0,0,1,.13-1c-2.23-17.64,2.88-30.93,10.48-39.78,9.09-10.64,21-15.4,26.33-16.25,8-1.3,19-.4,28.35-.37a55.79,55.79,0,0,0,12.22-.94c2.75-.65,4.48-1.82,5.46-3.33a45.61,45.61,0,0,1-11.84-17.65c-3.15-8.31-4.37-17.69-4.41-27.61-.11-19.87,4.49-42,8.38-61.94s6.63-40.77,7-59.8c.36-17.71-1.53-33.6-6.3-45.48-1.34-.24-1.95-.32-3.5-.59-4.1-.71-8.3-1.42-10-1.69a1.35,1.35,0,0,1-1-1.33,2.33,2.33,0,0,1,.72-1.66,6,6,0,0,1,1.42-1.17,43.44,43.44,0,0,1,4.75-2.22,94.85,94.85,0,0,0,14.24-7.21c9.78-6.27,19.82-17.11,23.39-36.81-8,9.21-19.74,10-32,9.73-13.74-.3-27.87-1.07-38.1,8.26a1,1,0,0,1-1.3-.07,1.42,1.42,0,0,1-.4-1.43,18.66,18.66,0,0,1,3.32-6.05c-35.64-19-57.62-19.14-66.89-13.93-4.7,2.66-6.17,6.36-5.14,10.05a13,13,0,0,0,3.13,4.78,62.4,62.4,0,0,0,8.25,5.59.74.74,0,0,0,.13.08l.12.09a1.27,1.27,0,0,1,.53,1.42c0,.06-.11,0-.13.06s.11.24.07.37a1,1,0,0,1-1.18.58l-.19-.1c-20.56-8.85-39.48-13.83-56.11-15.57-.4,5.56-1.41,9.71-3.07,12.45a9.59,9.59,0,0,1-6.89,4.9A11.88,11.88,0,0,1,343.41,189.36Zm145,1.2a1.07,1.07,0,0,1,1.16.42c1.64,2.32,2.71,3.37,3.25,3.65a1,1,0,0,0,.72.13,4.39,4.39,0,0,0,1.11-.45A20.34,20.34,0,0,1,507,191c8.63-.06,16.48-1,25.35-7a.8.8,0,0,1,.58-.17h0a1.37,1.37,0,0,1,1.05,1,1,1,0,0,1-.4,1.21c-7.51,5-13.83,9.15-17,13.54a.82.82,0,0,1-.71.29,2.79,2.79,0,0,1-2-.94c-.55-.49-1.07-1.07-1.62-1.67a11.1,11.1,0,0,0-3.57-2.89c-1.28-.48-2.75-.41-4.77,1.27s-4.41,5.08-7.2,11.1a.88.88,0,0,1-.65.52,1,1,0,0,1-.84-.29,10.6,10.6,0,0,1-2.08-2.88c-.74-1.25-1.53-2.78-2.29-4.35a36.69,36.69,0,0,1-2.79-7.51s0,0-.07-.08-.16-.46-.18-.6A1,1,0,0,1,488.41,190.56Zm-35.57,8.84h-.06v.07c-.26-.05-.28,0-.53,0-3-.27-5.23-.38-6.76.23s-2.92,2-4.35,5.11a.91.91,0,0,1-1,.51,1.26,1.26,0,0,1-.91-.84,8,8,0,0,0-.59-1.23,1.16,1.16,0,0,0-.37-.48,21,21,0,0,0-3.53-1.42,1.28,1.28,0,0,1-.84-1,1.09,1.09,0,0,1,.46-1.15,15.74,15.74,0,0,1,6.49-2.84c2.67-.43,6.19-.2,11.78.78h.13a1.41,1.41,0,0,1,.84,1.21A1,1,0,0,1,452.84,199.4Zm-40.76-18a31.23,31.23,0,0,1-3.45-2.83,6.69,6.69,0,0,1-1.89-4.22,1,1,0,0,1,.78-1.13,18.61,18.61,0,0,1,6.05,0h0a17.85,17.85,0,0,1,4.56,1.68c2.83,1.43,5.56,3.23,10.52,4.76s9.15,1.16,13.46,2.33,8.42,4,12.49,11.21c.07.11.13.13.19.24a1.21,1.21,0,0,1-.19,1.41,1,1,0,0,1-1.3-.12c-1.7-1.85-3.82-2.89-7.75-3.15s-9.51.34-17.81,2.08a3.83,3.83,0,0,1-2.41-.16,4.82,4.82,0,0,1-1.62-1.43c-.56-.72-.94-1.13-1.3-1.59,0,.07-.15.08-.19.19a19.78,19.78,0,0,1-.71,2.13.94.94,0,0,1-1,.53,1.26,1.26,0,0,1-.9-.83C417.45,186,414.58,183.34,412.08,181.37Z" style="fill: #d21034"/>
    <path d="M427.43,189c-2.23-1.57-4.66-3.89-3.38-8.6-1.91-.2-7.06-3-9.3-3.56h0C415,177.6,420.9,189,427.43,189Z" style="fill: #d21034"/>
    <path d="M436,594.87s.06,0,.06,0c.17-8.44.25-17.45.78-27.43.1-1.64.29-3.36.4-5-.47.62-.68,1.31-1.18,1.9-7.69,9.37-20.37,16.46-32.95,19.81,4.75,10.41,11.49,18.64,17.62,21.56,3.23,1.55,6.22,1.72,8.84.13s4.89-5,6.43-10.89Z" style="fill: #d21034"/>
    <path d="M376.06,543.23a11.28,11.28,0,0,0,9.29,3.21c3-1.56,6.25-3.05,9.82-4.54,7.31-3.06,15.1-6.13,21.13-9.69s10.06-7.59,10.27-12.35c.1-2.35-.67-5.05-2.79-8.22s-5.55-6.76-10.61-10.75h0a28.8,28.8,0,0,1-5.25,2.92c-11.09,4.18-26.63,5.71-39.33,10.84a10.79,10.79,0,0,0-1.43,5.49,34.45,34.45,0,0,0,2.2,12.27A28.39,28.39,0,0,0,376.06,543.23Z" style="fill: #d21034"/>
    <path d="M362.48,503.57A12,12,0,0,0,370,510.1,75.65,75.65,0,0,1,380.47,506c6.95-2.19,14.51-4.14,20.81-6.52s11.24-5.32,13.13-9.29a10,10,0,0,0,.52-7,28.79,28.79,0,0,0-4.74-9.52,31.87,31.87,0,0,1-11.45,2.94c-7.3.65-15.56.19-22.74.9-4.93.46-9.26,1.5-12.56,3.55a8,8,0,0,0-.52.68,24.88,24.88,0,0,0-2.46,10.31A24.26,24.26,0,0,0,362.48,503.57Z" style="fill: #d21034"/>
    <path d="M279.51,211h0c.69,1.1,1.32,2.31,2,3.41A48.06,48.06,0,0,0,311.89,233,61.57,61.57,0,0,0,345,229.63h.07c10.56-3.08,23.89-1.87,34.71.36a127.48,127.48,0,0,1,13.71,3.59c1.75.57,3.15,1.07,4.18,1.49.48.19.84.39,1.16.54a6.5,6.5,0,0,0-1.24-2.7c-8.89-4-10.73-4.32-14.68-5a44.57,44.57,0,0,0-10.48-.26,12.21,12.21,0,0,1-3.11,0,1.59,1.59,0,0,1-.71-.26,1.66,1.66,0,0,1-.65-1.12,1.61,1.61,0,0,1,.71-1.53.93.93,0,0,1,.71-.31,96.37,96.37,0,0,1,30.37,5,20.43,20.43,0,0,0-7.75-4.85,64.87,64.87,0,0,0-17.28-3.27,104.36,104.36,0,0,0-18,.39c-5.4.6-9.91,1.61-12.22,2.64h-.06c-11,4-20.79,5.63-31,3.74-9.72-1.81-19.8-7.12-31.58-16.06C281.08,211.61,280.26,211.44,279.51,211Z" style="fill: #d21034"/>
    <path d="M361.76,474.8a3.44,3.44,0,0,0,1.43,1.45,25.44,25.44,0,0,1,9.87-4.13c7.06-1.5,15.31-1.52,22.43-2.15s13-2,15.6-5.57c1.28-1.81,1.83-4.16,1.37-7.66-.42-3.29-1.91-7.68-4.54-13.05h0a42.47,42.47,0,0,1-10.08,1.81c-7.29.53-15.31.11-22.3.86a36.18,36.18,0,0,0-8.07,1.86,3.19,3.19,0,0,0-1.17.86,18.67,18.67,0,0,0-2.21,4A44.54,44.54,0,0,0,361,464.8C360.57,468.86,360.78,472.67,361.76,474.8Z" style="fill: #d21034"/>
    <path d="M340,182.29h.08c3.09,1.63,5.19,1.8,6.55,1.26s2.23-1.78,2.8-3.53a23.16,23.16,0,0,0,.65-8.57c-11.26-.53-21.09.69-29.51,3.38a29.67,29.67,0,0,1,4.62.7A70.63,70.63,0,0,1,340,182.29Z" style="fill: #d21034"/>
    <path d="M396.66,355.43a33.18,33.18,0,0,0-11,12.81c-1.37,2.94-1.83,5.75-1.37,7.4a3,3,0,0,0,1,1.45,7.28,7.28,0,0,1,1.05,0c.13,0,.25.14.38.17a27.57,27.57,0,0,1,3.78-.16c5.71.67,12.12,2.59,17.93,3.7s10.92,1.29,14.12-1.19,4.91-7.8,3.5-18.76a23.1,23.1,0,0,1-2.64.14c-5.8-.47-12.08-2.19-17.5-3.68a70.08,70.08,0,0,0-9.24-1.9Z" style="fill: #d21034"/>
    <path d="M415.77,320.69c-1.51,2.17-2.47,4.45-2.39,6a2.65,2.65,0,0,0,.78,1.88,5.09,5.09,0,0,0,2.6,1.16l.13,0c.25.05.31.33.46.56,4.16,1,8.88,2.63,13.31,3.33s8.59.44,11.32-2,4.2-7.08,3.64-15.67c-.78,0-1.33.11-2.21,0-4.16-.3-10.84-1.31-17.87-2.25a6.07,6.07,0,0,0-4.24,1.33A22.35,22.35,0,0,0,415.77,320.69Z" style="fill: #d21034"/>
    <path d="M368.44,414.82a20.85,20.85,0,0,0-2.27,4.35,51.92,51.92,0,0,0-3.13,12.7c-.5,4.43-.31,8.61.65,11a3.63,3.63,0,0,0,1.18,1.37,23.59,23.59,0,0,1,7.35-2.78c6.64-1.24,14.41-.88,21.46-1.19s13.27-1.35,16.84-4.9S415.1,426,412.33,415a31.84,31.84,0,0,1-9,.87c-6.59-.19-13.92-1.57-20.74-2.28a42.38,42.38,0,0,0-13.32.55C369,414.42,368.78,414.38,368.44,414.82Z" style="fill: #d21034"/>
    <path d="M409.73,333.45h0a27.09,27.09,0,0,0-9.87,10.13,9.08,9.08,0,0,0-1.31,5.8,3,3,0,0,0,1.12,1.77,6.82,6.82,0,0,0,2.08.86c.79.16,1.45.18,2.33.39,5.12,1.23,11.17,3.12,16.71,4.08s10.5.79,13.46-1.71c2.8-2.39,3.95-7.35,2.4-16.31a22,22,0,0,1-2.61.22c-4.91-.31-10.14-1.83-14.82-3.18A51,51,0,0,0,409.73,333.45Z" style="fill: #d21034"/>
    <path d="M380.41,384.05a44.31,44.31,0,0,0-8.5,11.81c-2.21,4.35-3.32,8.71-2.94,11a2.39,2.39,0,0,0,1.36,2,25.81,25.81,0,0,1,7.88-.69c6.15.29,13.12,1.79,19.57,2.35s12.2.19,15.92-3,5.6-9.2,4.3-20.65a28,28,0,0,1-5.4-.06c-5.79-.85-12.2-3-18.27-4.15a41.92,41.92,0,0,0-8.71-1h0a19.94,19.94,0,0,0-2.79.63A15.15,15.15,0,0,0,380.41,384.05Z" style="fill: #d21034"/>
    <polygon points="412.33 415.02 412.33 415.02 412.33 415.02 412.33 415.02" style="fill: #d21034"/>
    <polygon points="523.19 222.27 523.19 222.27 523.19 222.27 523.19 222.27" style="fill: #d21034"/>
    <path d="M808.54,471.33a9.89,9.89,0,0,0,1.64-3.48c-.57-.15-1.52-.73-2.17-1a12.31,12.31,0,0,1,.4,2,7.09,7.09,0,0,1-.46,2.88C808.14,471.55,808.37,471.54,808.54,471.33Z" style="fill: #d21034"/>
    <path d="M697.62,513.17a9.14,9.14,0,0,1-2.21,3.33c-1.51,1.41-4.07,1.73-7.08,1.12a14.31,14.31,0,0,0,1.1.94c.23.12.44.25.65.34a8,8,0,0,0,4.62.54c2.87-.58,5.08-2.76,5.14-6.52h0a10.2,10.2,0,0,1-2.14,0C697.66,513,697.68,513.07,697.62,513.17Z" style="fill: #d21034"/>
    <path d="M626.7,337c-10.69-7.05-20.37-13.32-27.89-18-3.78-2.34-7-4.24-9.49-5.63a31.49,31.49,0,0,0-4-1.92,7.1,7.1,0,0,0,.71,4c1.55,3.81,5.31,9.4,10.52,16.45,10.42,14.09,26.61,34.3,42.93,60.72,26.39,42.75,45.78,72.19,56.74,91.12.82,1.42,1.24,2.36,1.95,3.65,6.45-27.68,24.82-39.88,43.58-43.94a79.51,79.51,0,0,1,27.88-.91c1.28.18,2.23.57,3.45.81l-3.45-2.67c-24.8-19.41-55-45-76.58-59.35C673.32,368.34,648,351.15,626.7,337Z" style="fill: #d21034"/>
    <polygon points="582.16 330.86 582.16 330.86 582.16 330.86 582.16 330.86" style="fill: #d21034"/>
    <path d="M584.64,395c3.36,8,8.23,20.3,16.5,52.06,5.65,21.69,10.27,40.66,12.48,55.52,10.35-15.37,24-20.53,37.06-20.08a53.39,53.39,0,0,1,10.08,1.33,64.68,64.68,0,0,1,16.38,6.37c-1.55-2.7-3.11-5.26-4.75-8.33-10.24-19.21-21.79-44.53-36.26-67.54-14-22.18-28.33-46.57-39.27-63.58-5.48-8.51-10.15-15.22-13.34-18.77a8.19,8.19,0,0,0-1.36-1.15,10.66,10.66,0,0,0-.65,1.66,93.2,93.2,0,0,0-2.42,11.17c-1.47,8.93-2.43,19.86-2,25.79,0,0-.05.09-.07.13C579.43,383.68,581.28,387.13,584.64,395Z" style="fill: #d21034"/>
    <path d="M873.68,387.28a6.26,6.26,0,0,0,.08-4.84c-.1-.22-.33-.35-.46-.55a6.58,6.58,0,0,1-1.24,1.61,6.71,6.71,0,0,1-.77.35,11.14,11.14,0,0,1,.37,4.56,7.21,7.21,0,0,1-1.55,3.49c.06,0,.13,0,.19,0A10.16,10.16,0,0,0,873.68,387.28Z" style="fill: #d21034"/>
    <path d="M857.82,242.93c-9.8,5.26-19,12.27-35.7,16.79s-41,6.52-81,.39c-49.48-7.71-84.4-9.37-109.1-5.31s-39.1,13.23-47.79,25.62c-17.37,24.78-11.74,62.28-17.43,95.49a133.08,133.08,0,0,1-11.76,35.19c-6.62,12.9-16.17,24.42-29.19,26.83-4.67,4.84-14.18,5.44-24.85,5.62-11.06.19-23.37-.12-32.44,2.38-16,4.41-27,21.91-28.27,42a55.35,55.35,0,0,1,11.83-24.46c10.18-11.85,27.67-20.95,56.42-18.49.13,0,.15-.23.28-.23s.27.17.44.22.16,0,.27,0,.19.2.31.27.07,0,.07,0a1.15,1.15,0,0,1,.52,1.62c-.5.75-.86,1.12-1.3,1.69a42.68,42.68,0,0,0-4.56,12.33A45.87,45.87,0,0,1,512.4,451c6.42-6.16,14-10.55,19.23-12.14a1.18,1.18,0,0,1,.21,0c.09,0,.17.1.25.12s.17-.27.34-.28a1.06,1.06,0,0,1,1.09.49,1.34,1.34,0,0,1,.19,1.33,31.8,31.8,0,0,0-1,6.9c-.25,3.4-.44,7.66-.65,12.27a81.06,81.06,0,0,1,5.15-16.26c4.09-8.88,9.51-14.12,17.74-21.05a.81.81,0,0,1,.59-.16c.31,0,.61.31.84.59,0,.08.15.05.19.11a1.21,1.21,0,0,1,0,1.22l-.07.14s0,.1,0,.14a9,9,0,0,0-1,2.3,10.3,10.3,0,0,0-.66,1.72,34.83,34.83,0,0,0-1,5.76,131.65,131.65,0,0,0-.19,15.72c.08,2.36.13,3.91.25,6.28a318.87,318.87,0,0,1,7.1-42.9c2.25-9.35,4.62-17.28,6.55-22.78,1-2.74,1.83-4.89,2.54-6.35a8.51,8.51,0,0,1,1.05-1.64,2,2,0,0,1,.59-.52c.08,0,.29.06.44,0s.11-.19.19-.17.13.16.21.18.17-.1.31,0,.22.36.34.57.21.07.25.2a2.64,2.64,0,0,1,.13.46c18.75,57.29,24.21,93.64,26.33,115.48,1.07,11,1.3,18.34,2,22.71a10.75,10.75,0,0,0,1.23,4.2c.47.65.91.89,2.15.83l.06,0c.82.06,1.36-.28,1.89-1.25a12.46,12.46,0,0,0,1-4.72c.33-4.25-.11-10.58-1.16-18.17-2.1-15.15-6.48-35.33-10.85-54.86a302.25,302.25,0,0,0-15.61-49.94c-4.55-11.32-8.08-19.49-9-28.49a1.49,1.49,0,0,1-.19-.52v-.44a103.91,103.91,0,0,1,.4-10.45c.35-5.15.9-11.38,1.61-17.3a140.47,140.47,0,0,1,2.67-15.56,19.76,19.76,0,0,1,1.62-4.67,3.2,3.2,0,0,1,1.17-1.24,1.87,1.87,0,0,1,1.89.17,1.61,1.61,0,0,1,.53.75c.08.3.17.57.25.86,3.25,5.59,14,21,27.17,40.4,13.4,19.65,29.21,43.24,42.28,64.8,21.48,35.5,30.72,55.64,36.2,67.17,2.73,5.78,4.56,9.33,6.3,11.52a10.26,10.26,0,0,0,6.26,3.74,9,9,0,0,0,1-.52c.24-.2.3-.28.26-.89-.07-1.21-1.18-4.52-4.81-11.39-7.23-13.72-24-41.84-59.94-100.56-20.74-33.9-37.06-54.42-46.74-67.28-4.85-6.42-8.09-10.88-9.43-14.55a7.37,7.37,0,0,1-.34-4.95,6.32,6.32,0,0,1,3.26-3.31.84.84,0,0,1,.33-.16,1.34,1.34,0,0,1,.44.1c.19-.24.26-.64.59-.59l.28.13c22.57,10.16,70.39,44.07,109.93,70.22,22.49,14.9,46.45,35.27,67.49,52.39,19.24,15.66,35.85,28.16,46.41,32.23a4.91,4.91,0,0,0,2.48-.76,1.31,1.31,0,0,0,0-.8,7.05,7.05,0,0,0-.71-1.47c-1.3-2.14-4-4.78-5.86-6.67-26.69-22.78-74-55.54-118.4-85.17-22.78-15.14-44.69-29.22-62.54-40.1s-31.75-18.64-37.84-21.09c-.33-.14-.33-.62-.59-.91-.14-.1-.37-.15-.52-.27a1.44,1.44,0,0,1-.57-1,16.44,16.44,0,0,1,2.14-10.79,12.43,12.43,0,0,1,2.21-2.68,8.06,8.06,0,0,1,.9-.75,2.23,2.23,0,0,1,.65-.43.71.71,0,0,1,.21,0,1,1,0,0,1,.25.06c71,15.5,102,30.43,153.89,46.35,30.45,9.33,63.63,24.86,88.16,34.86,12.27,5,22.41,8.73,28.81,10,3.19.62,5.46.54,6.37.05,0,0,0-.07,0-.07-.76-1-1.37-2-2.08-3-35.56-19.81-95.51-39.4-150.2-56.49-28.41-8.72-55.37-16.4-76.65-21.93s-37-8.89-42.5-9.53a2.51,2.51,0,0,1-1.89-1.41h-.4a1.27,1.27,0,0,1-.9-.56,1.39,1.39,0,0,1-.27-1.06c1.57-8.13,8.84-13.62,19.25-17.33s24.15-5.63,39-6.48c29.74-1.66,64.13.95,86.1,3.49,64.49,7.39,103.59,3.95,149.46-38.3a1,1,0,0,1,.58-.25,1.06,1.06,0,0,1,.91.5c.52.66,1,1.32,1.51,2,.48.08,1,0,1.36.46.76.79,5.88,3.6,8.78,2.86a13.79,13.79,0,0,0,7.42-5.54c1.76-2.58,2.37-5.38,1.93-6.78a2.72,2.72,0,0,0-1.49-1.72,9.9,9.9,0,0,0-4-.64h0a27.18,27.18,0,0,0-5.77,1.52,81.48,81.48,0,0,0-14.83,8.13C872.78,232.05,863.31,240,857.82,242.93Z" style="fill: #d21034"/>
    <path d="M916.67,227.9c.4.9.08,2.06-.07,3.15a10.93,10.93,0,0,0,2-4.43,3.8,3.8,0,0,0-1.18-3.63,5,5,0,0,0-2.26-1h0a14.26,14.26,0,0,0-2.29,0,14.88,14.88,0,0,1-1,2.54C913.89,225,915.78,226,916.67,227.9Z" style="fill: #d21034"/>
    <path d="M605.11,532.72a11.7,11.7,0,0,1-1.83,4,6.29,6.29,0,0,1-4,2.66c-.46.09,2.15.44,3.6-.16a8.6,8.6,0,0,0,5.25-8.18,8.17,8.17,0,0,1-2.86.46A9.3,9.3,0,0,1,605.11,532.72Z" style="fill: #d21034"/>
    <path d="M870.11,251.31a132.64,132.64,0,0,1-19.82,9.79c-24.47,9.6-60.32,16.12-111.39,8.11-6.89-1-39.71-3.83-71.84-3.3-16,.3-32,1.5-44.46,4.46-11.19,2.64-19.17,6.93-22.42,12.54,7.18,1.14,19.38,3.7,38.55,8.68,21.34,5.53,48.39,13.15,76.9,21.91,51.43,16,107.44,34.22,144.4,53.06-16.55-28.7-14.74-59.55-6.11-84.2A128.69,128.69,0,0,1,870.11,251.31Z" style="fill: #d21034"/>
    <polygon points="870.11 251.31 870.11 251.31 870.11 251.31 870.11 251.31" style="fill: #d21034"/>
    <polygon points="510.97 377.54 510.97 377.54 510.97 377.54 510.97 377.54" style="fill: #d21034"/>
    <path d="M272.81,305.05a1,1,0,0,1,1.11,0c4.22.44,9,3.89,9.81,7,1.4-.36,2.26-.35,3.19-1.12-3-5.73-8.67-8.86-16.32-8.08a31.17,31.17,0,0,0-8.25,2.16c5.82,2,12,4.7,12,7.94a29.44,29.44,0,0,0,3.76-.13c1.28-3.13-2.08-4.25-5.12-5.74a1.13,1.13,0,0,1-.74-.95A1.32,1.32,0,0,1,272.81,305.05Z" style="fill: #d21034"/>
    <path d="M533,230.13a41.84,41.84,0,0,0-9.22-7.61c-.32-.18-.3-.09-.59-.25.36,2.33.65,4.72,1,7,4.24.95,8.88,5.28,13.46,12.9a.55.55,0,0,0,.06.08,1.19,1.19,0,0,1-.12,1.56,1.07,1.07,0,0,1-1.43-.36c-3.7-4.9-7.31-5.62-10.86-6.08.36,2.52.51,5.52.78,8.25a33.4,33.4,0,0,1,12,4.31,21.3,21.3,0,0,1,7.23,8.19C543.33,245,538.31,235.92,533,230.13Z" style="fill: #d21034"/>
    <path d="M484.51,172.33c5.75-1.62,12.66-1.53,19.76-1.22a.86.86,0,0,1,.25-.31h.06l.15,0,.06-.06c0-.05.07-.12.13-.19.34-.32.86-.79,1.49-1.45a66,66,0,0,0,4.75-5.57,46.65,46.65,0,0,0,5.92-10.63h0c-6,6.54-15.71,9-24.91,10.19-5.65.72-11.06,1.12-15.08,1.78a20.28,20.28,0,0,0-4.8,1.2c-1.16.51-1.71,1.07-1.83,1.57,0,0-.06,0-.06.06,4,1.87,7.85,3.42,12.09,5.74A19.44,19.44,0,0,1,484.51,172.33Z" style="fill: #d21034"/>
    <polygon points="543.2 168.25 543.2 168.25 543.2 168.25 543.2 168.25" style="fill: #d21034"/>
    <path d="M526.82,270h0c-.17,3.27-.54,7-.9,10.73a13.13,13.13,0,0,1,4.09,2.94,60.64,60.64,0,0,1,6.24,7,62.42,62.42,0,0,1,5.46,8.2,21.13,21.13,0,0,1,.72,2,12.56,12.56,0,0,1,1.82,5.31.88.88,0,0,1-1,.94,1.37,1.37,0,0,1-1-1.29,12,12,0,0,0-2.14-5.31,35.65,35.65,0,0,0-5.14-6.24,30.91,30.91,0,0,0-6-4.77,6.42,6.42,0,0,0-3.82-1c-.48,3.75-1,7.81-1.7,12.07a11.79,11.79,0,0,1,6.63-.71,17.92,17.92,0,0,1,9.37,5.72,25.66,25.66,0,0,1,5.92,14.24c2.27-10.83,1.24-19.69-1.64-27.13C540.07,283.34,533.5,276.21,526.82,270Z" style="fill: #d21034"/>
    <path d="M535,356a1.26,1.26,0,0,1-1.3-.91,20.68,20.68,0,0,0-3.63-5.5,26,26,0,0,0-6.51-5.5c-2.27-1.29-4.37-1.76-6-.81-1.24.71-2.16,2.69-2.88,5.48.4.26.65.45,1.24.81a82.54,82.54,0,0,1,9.77,6.68c3.53,3,6.93,6.74,8.69,11.53a19.58,19.58,0,0,1,.72,9.46c3.65-6.68,5.9-12.72,6-17.79a29.3,29.3,0,0,0-5-17.06c-3.07-4.84-7-9-10.46-12.79a39.55,39.55,0,0,1-5.48-7.46h0c-1,4.28-1.16,7.6-.63,9.84a11.49,11.49,0,0,0,3.76,6.11c3.63,3.53,9.3,7.08,12.28,16.39a.34.34,0,0,1,.06.15s0,.05,0,.07A1,1,0,0,1,535,356Z" style="fill: #d21034"/>
    <polygon points="532.93 183.9 532.93 183.9 532.93 183.9 532.93 183.9" style="fill: #d21034"/>
    <path d="M560.7,491.29c.06-.26.06-.26.12-.62a.86.86,0,0,1,1-.7c.06,0,.09.09.13.1h.06a1.23,1.23,0,0,1,.92.63,1.35,1.35,0,0,1,.13.6c2.73,6.25,8.93,14.47,15.41,20.22a34,34,0,0,0,9.56,6.41,7,7,0,0,0,5.77.09c-.1-.92-.29-1.68-.37-2.73-1-10.42-1.1-26.94-4.75-53.18a368.37,368.37,0,0,0-7.69-37,158.55,158.55,0,0,0-5.77-18.22,37.91,37.91,0,0,0-2.79-5.75,4.82,4.82,0,0,0-2.08-2c-.32.78-.51,1.23-.86,2.26-1.58,4.61-3.68,11.53-5.72,19.87-4.09,16.65-8.19,39.17-9,61.33,0,0,0,.09,0,.16a.87.87,0,0,1-1,.91,1.45,1.45,0,0,1-1-1.34s0-.11,0-.16c-.52-7.08-1.09-17.52-1.8-26.31-.36-4.4-.82-8.36-1.24-11.21a28.55,28.55,0,0,0-.65-3.37c0-.15,0-.19-.06-.29a3.2,3.2,0,0,0-1.43-1.14,2.21,2.21,0,0,0-1.89.6c-1.51,1.17-3.34,4.07-5.15,8.28-3.57,8.37-7.33,22-10.85,38.05a.88.88,0,0,1,0,.23s0,0-.07.06a.33.33,0,0,1,0,.14c-.08.21-.33.16-.5.26s-.27.39-.53.32c0,0,0-.08-.06-.09h-.06a1.43,1.43,0,0,1-.86-1.32v-.27c.08-8.13-.13-19.55.27-29,.08-2.38.38-4,.59-6.05a9.16,9.16,0,0,0-6-.38,22.43,22.43,0,0,0-8.59,5.1c-5.52,5-10.14,12.58-11.32,19,0,.09-.14,0-.18.11v.13a.89.89,0,0,1-1.12.88,1.37,1.37,0,0,1-1-1.39v-.21c.08-8.15.79-15.2,2.14-20.33,0-.05.06-.06.06-.13a44.81,44.81,0,0,0-31.65,2.68c-11.73,5.7-22.61,17.76-28.68,38.85,9.85,4.63,20.24,3.4,29.19-.7,10-4.58,18-12.33,21.21-17.68a.77.77,0,0,1,.78-.42s.08.09.12.09.06,0,.25-.11a1.42,1.42,0,0,0,.21-.1l.26,0,.46.22.44.45.21.54v.28a.67.67,0,0,0-.06.12c-.09.33-.11.31-.15.35s-.13.11-.19.17,0,0,0,.07-.15.18-.25.32a2.26,2.26,0,0,1-.28.25c-.14.18-.33.45-.58.75-1.2,9.91-1.07,19.84,2.29,29.13,2.75,7.65,7.72,14.89,15.72,21.52-.08-.25-.31-.38-.39-.63a27.45,27.45,0,0,1-.19-12.45c1.68-8.91,6.74-18.48,14.63-23.63.05,0,.09-.1.13-.12a.8.8,0,0,1,.52-.2,1.28,1.28,0,0,1,1.1.79c.12.26-.09.45-.13.69,0,.07.13.05.13.09,3.71,20.58,12,30,20.93,34.73,7.56,4,15.33,4.44,21.65,4.83a25.37,25.37,0,0,1-4.74-2.86,39.41,39.41,0,0,1-9.09-10.56,24,24,0,0,1-3.45-14.46C553.35,501.69,555.84,496.47,560.7,491.29Z" style="fill: #d21034"/>
    <polygon points="570.4 399.09 570.4 399.09 570.4 399.09 570.4 399.09" style="fill: #d21034"/>
    <path d="M528.46,428.31c9.3-2.8,16.3-9.89,21.32-19.17,6-11,9.26-24.68,10.79-36.39,4.89-37.39,1.66-74.85,20.75-99.41,19.09-24.86,60.27-34.7,153.23-21.31,45.91,6.31,82.7,6.54,114.18-11,17.94-10,30.58-18.78,43.37-31.84a15.2,15.2,0,0,0-3.91-.2c-4,.62-8,2.85-12,5.92-8.09,6.12-16.38,15.51-26.46,21.15-9.77,5.43-19.22,11.1-36.14,14.17s-41.35,3.49-81.34-2.63c-97-15.64-138.74,1-157.41,29.27-18.65,27.95-14.28,66.28-18.21,91.8C554.42,382.94,554.29,407.83,528.46,428.31Z" style="fill: #d21034"/>
    <path d="M528,402.58c-2.52-2.89-7.83-5.66-12.16-6.78a11.73,11.73,0,0,0-4.87-.44c.17,2.47.25,5.18.59,7.29.18,1.18.48,2,.71,3.08a20.56,20.56,0,0,1,9.16-1.14,10.58,10.58,0,0,1,6.69,3.53,14.51,14.51,0,0,1,2.67,5.95,27.9,27.9,0,0,0-2.6-21.78A35,35,0,0,0,511,377.54c-.19,3.11-.32,6-.34,8.74a13.41,13.41,0,0,0,1.11,1.94,15.34,15.34,0,0,0,3.85,2.29c3.21,1.53,7.77,3.71,13.77,10.61a1.31,1.31,0,0,1,.07,1.6A1,1,0,0,1,528,402.58Z" style="fill: #d21034"/>
    <path d="M836.05,376.65l-.46-.2c-23.86-9.42-56.79-25.06-92.72-36.53-52-16.69-72.79-27.53-151.54-47.88-1.49,2.3-1.42,5.83-.86,8.85,7.52,3.55,18.88,9.92,34.34,19.34,17.91,10.92,39.9,25,62.75,40.2,41.74,27.82,85.47,58.15,113.31,80.92a51.17,51.17,0,0,1-1.89-6.53,65.51,65.51,0,0,1,0-25.37C802.2,394.14,812.84,380,836.05,376.65Z" style="fill: #d21034"/>
    <path d="M781.76,647.75q7.18-18.43,14.37-36.94c.1-11.18-8.72-20-16.26-21.29a8.39,8.39,0,0,0-6,1.2Q769,610.9,764.21,631C764.35,641.52,776.64,649.18,781.76,647.75Z" style="fill: #d21034"/>
    <polygon points="750.81 568.36 750.81 568.36 750.81 568.36 750.81 568.36" style="fill: #d21034"/>
    <path d="M561.16,572.81h0c-2.59.38-4.71,2.27-6.18,3.6-1.28,2.47-2.62,4.31-3.9,7.36a71.88,71.88,0,0,0-3.26,10.45c1.75,12.4,9,32.2,10.92,37.7,8.57,7.31,24.78-1.85,25.18-6.45l-14.76-48C566.22,573.79,563.49,572.46,561.16,572.81Z" style="fill: #d21034"/>
    <path d="M758.94,638.16c.18,0,.35-.09.52-.13-.08-.15-.19-.31-.27-.46C759.06,637.82,759.06,637.89,758.94,638.16Z" style="fill: #d21034"/>
    <path d="M806.33,613.9h0a7.65,7.65,0,0,0-5.71.76Q793.47,633,786.3,651.22c.42,5.65,15.45,22.06,22.7,17.11q7-19.71,14-39.5C823.32,621.57,813.53,615.23,806.33,613.9Z" style="fill: #d21034"/>
    <path d="M555.45,795.85a.86.86,0,0,1-.87.63,1.35,1.35,0,0,1-1-.72,1.18,1.18,0,0,1,0-1.22c1.89-4.35,5.71-5.65,8.56-6a24.81,24.81,0,0,0-1.3-3c-8.4.28-17.09,8.46-10.39,17.48,2.41-6.55,10.14-5.94,13.58-4.49a26.43,26.43,0,0,0-.44-5.19C560.76,793,557,792.22,555.45,795.85Z" style="fill: #d21034"/>
    <path d="M765.24,676.93c-9.35-8.23-11.39-17.76-10.8-24.82.23-2.77.27-7.91-1.49-10.74-6.36-3.86-18-14.43-16.63-18.43-2.16,0-20.31-7.35-20.69-10.83-.06-.08-.06-.29-.12-.37.79,4.28-23.14,0-26-4.89-1.26,1.5-7,2.46-12.29,2.71a53.73,53.73,0,0,1-1,6.08c10.46,3.75,13,15.19,14.37,17.23,0,.08,0,.42.06.52,5.29,3.12,7.37,8.49,8.38,12.43.11.06.19,0,.27.12a1.41,1.41,0,0,1,.38,1c8.09,15-29.8,129.85-81.06,116.73a1.31,1.31,0,0,1,.32,1.36.91.91,0,0,1-1.43.1c-7-6.61-14.74-.65-23.21-2.45-11.82-3.88-16.17-15.94-27.38-18.29-4.1-.86-8.82-.87-10.4,1.08,2.34,5.1,2.17,16-1,16.2.94,2.19,5.25,6.9,9.15,7.79,7.54,1.67,4.16-2.25,16.72-.2,13.23,2.17,4.45,9.48,33.94,2.58a.87.87,0,0,1,1,.15,1.48,1.48,0,0,1,.58,1.12.84.84,0,0,1-.5.9c-24.57,17-26.15,2.72-29.13,7.32-4.62,7.12-2.56-3.56-22.36-4.09-.72,1.53-2,3.28-2.82,3.21,4.27,7.67,6.41,16.13,4.83,22,13.38,6.09,22.12-2.88,26.65-3.93,6.7-2.56,17.31-4.19,22.18-3.15,2.41.5,11,0,11.57.08.25,0,.48.11.65.14s.32,0,.19,0a1.18,1.18,0,0,1,1.11.52,1.35,1.35,0,0,1,.19,1.26.78.78,0,0,1-.9.52c-.23,0-1.32.49-1.51.47s-1,1.55-2.21,3a10.7,10.7,0,0,0,3.57,1.42c13.17,2.57,29.82-8.34,50.19-3.81s32.64,18.81,43.18,12.6c.1-.54-3.3-12.81,1.24-16.89-8.32-9.78-28-3.32-28.35-3.36-5.61-.67-9.87-6.45-9.56-10.91,1.09-15.77,42.15-49.49,61.17-62.4,0-.14-.14-.24-.12-.4.8-4.91-1.79-5.07-7.08-7.28a2.78,2.78,0,0,1-2.29-2.53,1.8,1.8,0,0,1,1.89-2.14,161.3,161.3,0,0,1,31.42,6.43c7.94,2.9,11.86,11.51,8.13,18.61,4.28-2.25,13.77-6,13.71-19.1C791.86,693.57,771.33,682.27,765.24,676.93Z" style="fill: #d21034"/>
    <path d="M836.3,679.82q5.79-15.8,11.57-31.66c-.8-6.32-10.14-13.67-16.9-14.61a5.87,5.87,0,0,0-4.69,1.25q-6.1,17.78-12.22,35.49c.19,2.58.69,5.13,2,6.73C817.9,679.25,831,686,836.3,679.82Z" style="fill: #d21034"/>
    <path d="M545.74,610.56c-.23.09-.48.66-.71.94-.5,4.38-1.11,9.41-1.24,11.06,4.56,29.16,11.17,10.74,11.13,9.79l.06-.05C553.32,626.64,549.44,609.05,545.74,610.56Z" style="fill: #d21034"/>
    <path d="M727.33,798.63s0-.34,0-.37h0a26.91,26.91,0,0,0-1.49,5c3.15,1.46,9.13,5.09,11.26,10.65a1.35,1.35,0,0,1-.07,1.2.81.81,0,0,1-1,.32c-.4-.15-.57-.6-.84-1-4.6-5.93-7.06-5-9.56-5.6,0,.24-.06.54,0,.78,1.24.42,11.82,5.38,6.11,12.32C748.9,813.65,734.87,800.3,727.33,798.63Z" style="fill: #d21034"/>
    <polygon points="715.51 611.74 715.51 611.74 715.51 611.74 715.51 611.74" style="fill: #d21034"/>
    <path d="M760,625.45l9.09-37.8c.1-7.17-10.77-17.52-18.27-19.29-2.5-.58-4.62-.16-5.86,1.63,0,.25,0,.41-.06.7-.07,1.33-.13,3.15-.26,5.34-.27,4.36-.63,10.14-1,15.87-.7,11.41-1.37,22.67-1.37,22.67s0,0,0,.07C744.91,625.69,758.24,630.05,760,625.45Z" style="fill: #d21034"/>
    <path d="M969.71,391.08c5.84-16.87,17-41,38.31-71.05a446.81,446.81,0,0,0-35.89,49.74,266.29,266.29,0,0,0-14.64,26.62,80.12,80.12,0,0,0-3.7,9.23,13.66,13.66,0,0,0-.71,4.08,92.35,92.35,0,0,1,8.38,6.61,10.58,10.58,0,0,0,1.55-3.26C964.42,408.72,966.21,401.18,969.71,391.08Z" style="fill: #d21034"/>
    <path d="M852.24,652.75c-.27,0-.4.28-.65.36q-5.46,15.27-10.92,30.47c.21,8.15,19.19,9.91,23.39,6.88q3.45-10,6.89-20.06C870.38,660.4,858.31,651.93,852.24,652.75Z" style="fill: #d21034"/>
    <polygon points="1008.02 320.03 1008.02 320.03 1008.02 320.03 1008.02 320.03" style="fill: #d21034"/>
    <path d="M281.46,232.85c.69-7.9-.74-11.49-4.22-16.7-3.87-5.76-10.08-13.52-17.68-30.78,0,0-.07,0-.07-.07a1.3,1.3,0,0,1,.72-1.71.93.93,0,0,1,1.09.42l.06.14c5.57,9.16,11.3,17.63,19,22.67,6,3.91,13.14,5.76,22.51,4.6a152.07,152.07,0,0,1-51.12-47h0a162.18,162.18,0,0,0,8.38,35.33C265,213.16,272.2,225.7,281.46,232.85Z" style="fill: #d21034"/>
    <path d="M1015,831a13.5,13.5,0,0,0-1.62,4.45,12.23,12.23,0,0,1,9.22,7.17,1.21,1.21,0,0,1,0,1.22,1.12,1.12,0,0,1-1,.6.85.85,0,0,1-.84-.68c-1.57-3.75-5.27-3.34-8.06-3.37,0,.6-.08,1.21-.06,1.74,1.87,0,12.76,0,8.84,12.79C1037,837.47,1018.37,831.9,1015,831Z" style="fill: #d21034"/>
    <polygon points="1015.03 831.02 1015.03 831.02 1015.03 831.02 1015.03 831.02" style="fill: #d21034"/>
    <path d="M842.16,776.77c5.21-.7,9.72,1.87,12.35,3.92.06-.2.23-.41.27-.61.1-.68-.34-1.33-.46-2a16.41,16.41,0,0,0-7.23-3.83h0c-4.7-1-10.24.78-14.17,11.82,6.72-9.43,15-.75,16.53.92a13.59,13.59,0,0,0,2.79-2.33c-2.27-2.23-5-6.47-9.49-5.84a1.33,1.33,0,0,1-1.24-.35,1,1,0,0,1-.25-1.11A.91.91,0,0,1,842.16,776.77Z" style="fill: #d21034"/>
    <path d="M890.58,697.8c-.08-.25-.16-.49-.25-.73-1.24-11.41-12.26-21-16.13-20.79q-2.62,8.26-5.27,16.52C873.3,701.74,888.76,704.47,890.58,697.8Z" style="fill: #d21034"/>
    <path d="M842,852.35a.94.94,0,0,1-.86.7,1.19,1.19,0,0,1-1-.63,1.21,1.21,0,0,1,0-1.22A12.36,12.36,0,0,1,850,844a22.52,22.52,0,0,0-1.55-4.55h0c-1.71.38-23.48,5.63-7.14,24-3.85-12.48,7.16-12.57,9.61-12.56,0-.6-.08-1.21-.12-1.81C847.91,849.15,843.67,848.33,842,852.35Z" style="fill: #d21034"/>
    <path d="M827.33,816.68a1,1,0,0,1-1.11.13,1.25,1.25,0,0,1-.65-1,1.08,1.08,0,0,1,.46-1.08c3.42-2.62,7.37-2.18,10.33-1.4a14.37,14.37,0,0,0-.12-4.45,11.84,11.84,0,0,0-1.56-.41h0c-6.68-1.1-18.56-.83-12.68,18.17,1.41-12,9.45-8.47,12.41-6.88.29-.66.48-1.37.73-2.14C832.71,816.22,830,814.67,827.33,816.68Z" style="fill: #d21034"/>
    <path d="M1014.57,827.34c-3.07-3-5.06-5.59-14.43-6.42-4.89-.25-33.56,23.21-40.11-22.25-1.34-9.25-10-74.43-10.39-80.66-3.64-.07-7.08-.46-7.23-.79a1.21,1.21,0,0,1,.46-1.56c9.73-5.6,13.87-9.2,21-9.68,4.08-.25,10.29,1.6,13.26,6.66,1.8,3.09,2.87,7.73,1.55,13.4,7.66-13.12,7.87-24.91,4.83-33.93-3.89-11.42-13-16.2-21.21-16.24-12,0-24.42-7.27-35.24-18.57s-21.63-28.17-26-40.32c-16.42-45.62-49.68-90.33-99.54-116.76a1.39,1.39,0,0,1-.77-1.27.91.91,0,0,1,.84-.93.85.85,0,0,1,.65.17C848,522.49,883.47,561,902.09,602.27c66.55-21.78,84.55-82.35,84.53-115.87,0-49-38.79-81.35-69.49-83h0c-31-1.36-50.82,18-51,43.79-.17,28.15,20.05,50.28,38.18,50.22,6.91,0,16.27-1.69,24.11-7.22s14.07-14.32,15.94-29.45a41.8,41.8,0,0,0-8.19-11c-4.39,15.75-13.55,22.77-22.12,22.23-8.75-.52-16.46-8.54-16.5-18.57,0-9.55,3.82-16.25,9.61-19a19.15,19.15,0,0,1,9.5-1.66,32.33,32.33,0,0,1,10.27,2.56c9,3.81,17.49,11.76,22.61,22.17,2.75,5.58,4.83,11.61,4.83,18.62,0,18.85-7,33.15-18.2,42.11S910,530.84,893.71,530.11c-17.3-.79-33.3-11.93-54.81-24.05s-48.57-25.71-88-33.77c-11.59-2.37-22-3.1-30.09-.1-7.39,2.73-13,8.66-16.53,19.73a51.38,51.38,0,0,0-.44,7,42.18,42.18,0,0,1,2.33,6,8.74,8.74,0,0,1-.12,5.05,9.42,9.42,0,0,1-.13,5.57,10.61,10.61,0,0,1-5.86,5.53,13.44,13.44,0,0,1-8.59.78,14.68,14.68,0,0,1-1.74-.85,12.25,12.25,0,0,1-1.64-.78,10.81,10.81,0,0,1-1.21-.83,11.37,11.37,0,0,1-2.61-2.92c-.12-.19-.27-.31-.4-.52l-.06,0v-.07l-.06-.08v-.07a1.29,1.29,0,0,1-.07-.79v-.07a1.21,1.21,0,0,1,.26-.39.84.84,0,0,1,.58-.15,1,1,0,0,1,.34.07,1.14,1.14,0,0,1,.25.06c1.77.69,3.76.81,5,0s1.7-2.4,1.3-5.39a28.56,28.56,0,0,1-4.41-3.94c-.27-.33-.57-.83-.84-1.19-17.55-13.66-34.17-15.35-47.08-11.42a44.32,44.32,0,0,0-16.84,9.52,26.17,26.17,0,0,0-7.35,10.64,45.67,45.67,0,0,1-.25,8.78c.12.09.29.06.39.22a11.29,11.29,0,0,1,.84,10.14,16.55,16.55,0,0,1-6.32,7.51,15.77,15.77,0,0,1-9.22,2.88,11,11,0,0,1-1.76-.52c-.31-.07-.59.19-.9.08a9.37,9.37,0,0,1-1.18-.6c-.38-.2-.73-.37-1.09-.6a9.1,9.1,0,0,1-2.6-2.64c-.05-.05-.05-.12-.07-.15-.17-.24-.44-.3-.59-.56l-.06-.15V537a.35.35,0,0,1-.06-.18v-.06a1,1,0,0,1,.06-.7l.06-.13c.05,0,.09-.1.13-.11a1.13,1.13,0,0,1,.25-.24l.15,0h.06l.13,0,.12,0h.13l.06,0a4.33,4.33,0,0,0,4.81-.48c1-.9,1.39-2.72,1.24-5.23a8.91,8.91,0,0,1-3-2.88,15.58,15.58,0,0,1-1.7-4.39,4.86,4.86,0,0,1-3.45,1.49c-2.81.06-6.23-1.29-9.93-3.62-6.7-4.23-14.22-11.93-20.49-21a34.76,34.76,0,0,0-1.5,11c.32,7.43,3.64,15.71,15.36,24.35.29.24.27.65.31,1,0,0,.06,0,.06,0s.19.29.15.45-.27.1-.4.21-.06.49-.25.59l-.34.07s-.08,0-.12,0c-15.71,4.27-27.93,0-36.79-7.78-7.65-6.72-12.37-15.7-15.54-23.84a85.91,85.91,0,0,0-4.56,10.1c-1.66,4.66-2.77,9.28-2.67,12.88a9.62,9.62,0,0,0,1,4.43,5.12,5.12,0,0,0,2.94,2.49c.11.09.21.13.32.22.42.2.48.72.52,1.16,0,.05.06.06.06.11s.17.19.13.3a.86.86,0,0,1-1.3.53,1.15,1.15,0,0,1-.25-.12h-.07c-11-3.89-19.4-13.94-24.84-24.29a70,70,0,0,1-5.9-15.22,41.65,41.65,0,0,1-1.05-5.84,39.27,39.27,0,0,1-19.32,11.11,46.3,46.3,0,0,1-8.25,1.21c-11,11-14.41,31-14.68,52.28-.32,23.23,2.89,47.64,2.92,62.71,0,3-1.1,9.8-3.32,19.37a328.7,328.7,0,0,1-10.15,34.5c-9.07,25.62-22.76,54-41.66,71a1,1,0,0,1-1.05.17,1.13,1.13,0,0,1-.52-.69c-10,1.08-17.56-9.45-21.19-14.55-4.62-6.5-12.18-14.5-12-14.79,2.48-5.31-6.46-20-15-20.57-2.46.17-3.8-.61-5.65,1.68.9,1.65-3.63,8.21-5,9.11-.8.54-.8,8.07,7.6,16.84,3.13.8,6,1.84,7.29,3.22,3.93,4.48,8.8,12.35,26.21,16.36,1.93.31,1.72,2.73,1.43,3.26a1,1,0,0,1-1.43.33c-15.48-7.23-9.52,2-29.72-10.27-5.69-2.85-7.47-6.57-11.11-6.71-4.09-.1-6.36.24-7.93,2.49,2.33,4.66-2,13-4.56,19,1,2,5.58,4.14,9.49,4.27,7.54.31,4.7-2.3,17.24-3,7.23-.35,13.9,11.79,23.14,6a1,1,0,0,1,1.1-.06,1.36,1.36,0,0,1,.58,1.12,1,1,0,0,1-.58.95c-16.43,10.2-34,7.18-38.69,6.41-4.47,3.8,5.53,8.56,2.61,23.78,3.06,2.64,4.43,2.59,7.94,2.76,6.21.36,9.93-8.83,16.63-12.46s23.6-5.73,25.37-5.56c.88.06,1.61.07,2.14.12.27,0,.5,0,.65.06s.33,0,.19,0a1,1,0,0,1,1.11.37,1.24,1.24,0,0,1,.25,1.24.94.94,0,0,1-1,.63,2.69,2.69,0,0,1-.47,0c-.16,0-2,1.27-4.93,6.1a25.88,25.88,0,0,0,7,1.77c17.92,1.06,25.1-.31,33.23-2.44s19.48-3.9,26.92-3c7.22.93,10.31,3.41,17.24,7,3.44,1.82,9.53,5.69,11.82,6,1.14.17,4.94.29,5.34-.75-5.19-7,3-21.34,4.09-21.65-3.93-4.2-6.43-5-10.39-5.63s-10.69,1-15.17,1.34a43.86,43.86,0,0,1-10.27-.7c-7.77-1-10.22-6.51-10.2-17.39s15.37-31.71,21.06-39.8c10.8-15.38,28.14-30.63,24-39.88-2.1,0-3.57-.15-5.9,0a1,1,0,0,1-1.11-.12,1.36,1.36,0,0,1-.53-1.15,1,1,0,0,1,.66-.9c32.4-14.38,61.88,4.32,52.54,23.49,8.42-2.91,8.84-4.59,11.88-10.67,0,0,0,0,0-.07,4.77-12.12,3.66-18.14,1-24.8s-7.18-14-8.59-27.53v-.14c-.19-13.63,3.32-30.48,9.3-44.79s14.39-26.07,24.45-29.2a1,1,0,0,1,.4-.05,1.42,1.42,0,0,1,1.3,1.12.91.91,0,0,1-.8,1.19c-2,2.16-3.38,4.16-5.06,6.18-2.46,4.39-5,9.09-3.63,9.13a14.83,14.83,0,0,1,4.66,1.12,7.82,7.82,0,0,1,.71-2.5c1.56-3.17,5.13-5.41,9.24-6.72a23,23,0,0,1,12.94-.46,14,14,0,0,1,4.09,2.16,6.93,6.93,0,0,1,1.18-3.47c2-2.76,5.94-4.42,10.33-5.22a27,27,0,0,1,13.34.74,15.58,15.58,0,0,1,2.27,1.44,7.18,7.18,0,0,1,1.36-5c2.29-2.9,6.66-4.27,11.38-4.67a30.58,30.58,0,0,1,13.78,1.92,12.28,12.28,0,0,1,3.19,2.28c0-.13,0-.3,0-.44a6.51,6.51,0,0,1,3.07-4.07c2.94-1.82,7.3-2.07,11.69-1.47a27.81,27.81,0,0,1,11.83,4.19,10.68,10.68,0,0,1,1.7,1.92,7.13,7.13,0,0,1,1.68-2.08c2.73-1.74,6.82-2.62,11.13-2.59a24.8,24.8,0,0,1,12.47,3.17,13,13,0,0,1,4.81,5.49c.69-2.45,2-4.38,4-5.11a12.54,12.54,0,0,1,5.61-.45,30.24,30.24,0,0,1,6.49,1.66,41.85,41.85,0,0,1,12.16,7,20.81,20.81,0,0,1,4,4.43c.17.24.06.52.19.75a4.28,4.28,0,0,1,.65-.93,6.48,6.48,0,0,1,4.3-1.35c3.41-.07,7.73,1.24,12,3.57a32.48,32.48,0,0,1,11.13,9.74,18.16,18.16,0,0,1,2.8,7.65l.06-.06a5.86,5.86,0,0,1,4.75-1.39c3.61.36,7.81,2.88,11.69,6.39a40.17,40.17,0,0,1,9.56,12.71,20.53,20.53,0,0,1,1.89,7.67,6.75,6.75,0,0,1,5.33-1.76c3.59.41,7.44,2.81,10.92,5.91a45.66,45.66,0,0,1,8.59,10.27,19.79,19.79,0,0,1,1.83,4.13c.08-.08.08-.28.19-.34a5.63,5.63,0,0,1,4,.1c2.88,1,6.15,3.34,9.28,6.34a52.14,52.14,0,0,1,8.21,10,21.19,21.19,0,0,1,2.4,5.29c.25-.28.33-.86.65-1.08a5,5,0,0,1,4.09-.34c2.9.84,6,3.35,9,6.44a52.85,52.85,0,0,1,7.68,10.18,24.54,24.54,0,0,1,2.08,4.85,7.07,7.07,0,0,1,.07,2.58c3.69-4.79,20.66,19.27,21.25,26.78.57.33,15.39,31.92,20.35,54.65,5,22.88,5.79,48.44-2.86,65.18a7.77,7.77,0,0,1-6.17,3.94,23.42,23.42,0,0,1-8.07-.51c-2.71-.6-5.31-1.42-7.28-2.06-1-.32-1.81-.66-2.4-.81a2.83,2.83,0,0,0-.65-.12,1.08,1.08,0,0,1-1.36-.74,1.12,1.12,0,0,1,.52-1.48,1.21,1.21,0,0,1,1-.07,44.44,44.44,0,0,0,4-3.24c-5.54-4.4-11-9.31-15-17.54a67.92,67.92,0,0,0-8.52-13.59c-2.79-3.27-4.75-4.79-8.13-5.5-2.18,0-3.13.78-4.62,2.44a11.3,11.3,0,0,1-.38,1.24,4.08,4.08,0,0,1,.53,2.8,11.47,11.47,0,0,1-2.54,5.18,14.59,14.59,0,0,1-4,3.35c-.65.37,4.18,5.78,6.89,8.85a57.44,57.44,0,0,1,11.78,4.6c5.77,3.26,10.92,9.64,13.37,11.35a1.24,1.24,0,0,1,.4,1.59,1,1,0,0,1-1.42.33c-7-5.65-12.06-1.25-17.75-4.47s-10.67-7.49-14.32-8c-4-.45-8.55-.1-10.21,1.88a1.42,1.42,0,0,1,.46,1.34,3.21,3.21,0,0,0-.18.55c1.49,5.68.31,16.14-2.55,16.52,1,2.15,5.59,4.82,9.5,5.31,7.54.94,7.91-3.53,20.47-2.9,13.23.48,5.23,9.65,31-1.34a1,1,0,0,1,1.11-.09,1.36,1.36,0,0,1,.57,1.11,1.08,1.08,0,0,1-.57,1c-29.11,18.43-29,5.6-34.67,5.32-4.79-.37-7.33,3.38-14.56,3.67l1,.19a28.56,28.56,0,0,1,2.94,21.39,17.1,17.1,0,0,0,10.21,4.38c6.22.7,11.23-3.76,17.93-7.22A42.33,42.33,0,0,1,902,850.23c2.1.12,7.37.43,12.22.61,2.43.1,4.74.14,6.51.18h2.14l.65,0c.15,0,.32,0,.19,0a1,1,0,0,1,1.11.31,1.18,1.18,0,0,1,.19,1.23.92.92,0,0,1-.9.68,1.71,1.71,0,0,1-.46.08c-.17,0-.44,0-.72,0s-2.6.7-4.62,1.27c13,6.95,18.13,4.2,28.48.67,11.3-3.89,22-11.61,31.86-12.35,8.54-.3,20.22,13,31.79,2.61C1008.81,838.7,1011.34,828,1014.57,827.34Z" style="fill: #d21034"/>
    <path d="M934.35,377.82c18-2.66,26.79-8.44,36.73-19.26,10.64-11.73,22.93-28.88,50.06-56.66,0,0,.06,0,.06,0s.17-.26.28-.39,0,0,.06-.08l.06-.08a1,1,0,0,1,1.43-.24,1.28,1.28,0,0,1,.13,1.57s0,0-.07.07c-25.15,38.53-28.37,42.45-37.9,68.22v.09c-4,14,2.44,24.68,7.66,34.2,2.59-17,11.95-70.44,51.64-126.08h0C982.63,320.67,967.38,346.85,934.35,377.82Z" style="fill: #d21034"/>
    <path d="M323.52,786.79a1,1,0,0,1-.84.77,1,1,0,0,1-1-.49,1.32,1.32,0,0,1-.06-1.22,13,13,0,0,1,7.48-7.27,21.44,21.44,0,0,0-2-3.76H327c-5.5.24-13.19,9.85-3.38,23.29-3.15-10,3.06-10.6,6.63-10.35a14.75,14.75,0,0,0-.12-4.85C327.6,783.08,324.84,783.52,323.52,786.79Z" style="fill: #d21034"/>
    <path d="M308.11,740.3a12,12,0,0,1,10.6-2.64,10.38,10.38,0,0,0,.13-4.16h0c-5-.54-13.69.63-15.48,14.17,4.47-4.87,9.47-2.95,12.16-1.66a36,36,0,0,0,1.76-4c-2.45-1.12-5.22-2.32-7.87.07a1,1,0,0,1-1.09.28,1.18,1.18,0,0,1-.72-1A1.16,1.16,0,0,1,308.11,740.3Z" style="fill: #d21034"/>
    <path d="M553.93,752c-2.64-1.67-6.13-4.59-9.28-2.4a.87.87,0,0,1-1,.09,1.62,1.62,0,0,1-.71-1.16.91.91,0,0,1,.46-1c3.15-2.19,6.76-1.64,9.68-.74a8.48,8.48,0,0,0-.9-2.19c-.32-.38-1.33-1-1.83-1.45a2.47,2.47,0,0,0-.46-.16h0c-3.87-.91-10.86-1-10.14,10,5.1-5.37,11.25-.41,13.73,2.35A17.63,17.63,0,0,0,553.93,752Z" style="fill: #d21034"/>
    <path d="M711.08,561.09c.19,1.21.44,2.55.71,4.31.71,4.33,1.62,10.08,2.54,15.79,1.68,10.18,3,18.25,3.38,20.3,2.59,6.48,10.4,15.18,19.51,9.44.11-1.94.61-10.19,1.24-20.46.34-5.71.71-11.43,1-15.8.12-2.19.25-4,.33-5.32,0-.48,0-.8.07-1.12-1.77-5.58-8.51-10.67-15.61-11.71h0A13.91,13.91,0,0,0,711.08,561.09Z" style="fill: #d21034"/>
    <path d="M589.38,567c-7.6-.43-16.57,5.22-16.32,9.71q7.35,24,14.68,47.93c4.43,5.51,23.86-.26,23.54-11L594.9,569A10.5,10.5,0,0,0,589.38,567Z" style="fill: #d21034"/>
    <path d="M489.06,774.6h0a11.22,11.22,0,0,0-2,4.08c3.23,1.57,8.9,5.34,10.92,10.74a1.31,1.31,0,0,1,0,1.22.93.93,0,0,1-1.05.32,1.36,1.36,0,0,1-.84-1c-1.62-4.31-6.57-5.07-9.62-5.9a11.52,11.52,0,0,0,.32,3c2.83,1,13.73,5.35,8.4,13.09C510.84,787.34,496.69,777.56,489.06,774.6Z" style="fill: #d21034"/>
    <polygon points="237.44 325 237.44 325 237.44 325 237.44 325" style="fill: #d21034"/>
    <path d="M238.22,336.8c.59-.41,1.26-.84,1.76-1.26-1.4-2.38-7-2.85-10.48-1.39a2.08,2.08,0,0,1-1.49.43c-.52-.07-1-.29-1-.67s.3-.75.78-1c3.24-5.06,11.64-1.87,16.05-1.5.29-.42.69-.85.92-1.24a22.2,22.2,0,0,0,.06-5.26,31.85,31.85,0,0,0-7.35.11c-7.54,1-14.76,5.32-14.7,15.67A19,19,0,0,1,238.22,336.8Z" style="fill: #d21034"/>
    <path d="M217.09,388a1.05,1.05,0,0,1-.9.55.71.71,0,0,1-.71-.6,1.15,1.15,0,0,1,.25-1.05,12.32,12.32,0,0,1,7.94-5.18,14.84,14.84,0,0,0-.86-3.33c-4.46,1.57-11.55,6.85-9.16,17.6,2.88-5,6.4-5.41,8.9-5.23a15.67,15.67,0,0,0,1.24-5.47C221.59,385.22,218.79,385.51,217.09,388Z" style="fill: #d21034"/>
    <path d="M338.28,582.25v-.14a1.31,1.31,0,0,1,.13-1,1,1,0,0,1,.78-.48,1.11,1.11,0,0,1,1.05.85c.08.23.1.27.12.34a.88.88,0,0,1,0,.23c0,.19.05.42.07.72,0,.58.06,1.38.06,2.37.8,46.14-6.07,45-24.11,48.53,5.1,2.89,5.73,4.48,14,4.84,11.21.46,26.14-10.06,30.62-23.79,12.56-3.52,41.66-12.3,37.4-23.26-1.74-2.13-3-3.2-4.89-5.64-5.21-2.06-9.6-7.44-12.73-13.68a49.7,49.7,0,0,1-5.4-19.56v-.07c-5-3.17-8.61-9.85-11-17.07-2.52-7.63-3.66-15.68-3.05-20.75a8.44,8.44,0,0,1-3.44-3.72c-1.83-2.41-28.25-34.46-37.78-99.29-2.86-19.57-20.2-25-26.92-69.62-1.56-10.88,7.89-18.27-1.74-27.61h0c-.53.16-9.79,4.09-16.07,3.5-4,4.94-3.42,11.17-.19,17.08a1.14,1.14,0,0,1,.19.4c6.43,8.62,8.32,15.51,8.06,25.54a110.24,110.24,0,0,1,3.85,21.63,2.57,2.57,0,0,1-.72,2.4,2,2,0,0,1-2.29.32,2.25,2.25,0,0,1-1.09-2.12c-3.34-36.05-15.92-39.09-19.44-41.5,0-4.74-4.29-14.79-13.28-16.72-.14,0-.18,0-.31,0,.57,7-7.18,14-10.48,15.72.27,11.08,9.66,12.14,9.56,12.17h.08c18.06-1.51,24.15,25.42,25.54,30.79a2.48,2.48,0,0,1-.32,2.46,2.14,2.14,0,0,1-2.2.84,7,7,0,0,1-.34-.63,1.92,1.92,0,0,1-1.37-1.41c-1.61-5.76-13.58-11.29-20.93-7.64-3.8-3.62-10.06-4.8-12.22-5-4.16-.43-7.82.43-11.83,4.75,0,.59,3,8.48-.46,14,5.82,6.91,9.66,7.2,30.37-2.41,7.09,4.25,18.73,7.88,22.49,6.89a2,2,0,0,1,2.48,1.67,2.52,2.52,0,0,1-1.71,2.82,13.59,13.59,0,0,1-3.1-.27c-5.8,4.74,1,19,3.88,16.22,0,0,0-.07,0-.1a12.92,12.92,0,0,0-1.15-5.46,2.44,2.44,0,0,1,.12-1.87,2.32,2.32,0,0,1,1.43-1.2,1.94,1.94,0,0,1,2.39,1.46c3.95,10.21-1.07,33-7.41,40.3-5.56,5.51-9.15,17.19-8,26,2.18-1.43,14.43.4,14.17,8.56,3.17-2.16,11.45-11.76,9.68-16.71-4.7-13.48-.75-17,2.61-22.8a29.22,29.22,0,0,1,5.06-6.57,19.17,19.17,0,0,1,2.08-1.69s0,0,.06-.07c2-5.4,3.93-10.85,4.62-15.62.19-.23,2.63.06,2.27.39.94,10.93-8.21,31.2-7,40.6C305.59,500.64,329.65,610.14,338.28,582.25Z" style="fill: #d21034"/>
    <path d="M265.33,490.5a1,1,0,0,1-1-.43,1.34,1.34,0,0,1,0-1.29,1.16,1.16,0,0,1,1-.58c3.15-.15,5.27-3.71,6.64-6.3a29.31,29.31,0,0,0-3.51-1.36h0c-1.74,3.17-5.31,8.19-10.92,8,8.69,8.42,17.37,1.57,21.19-2.43a18.79,18.79,0,0,0-3.57-2.52C272.91,486.25,269.4,490.28,265.33,490.5Z" style="fill: #d21034"/>
    <path d="M327,689.67h0c-2.71.52-5.91,3.73-9.31,12.28,3-5.58,9.37-1.69,11.91.17a19,19,0,0,0,2.14-2.6c-1.59-1.62-3-3.13-6.76-2.23a1.17,1.17,0,0,1-1.18-.22,1,1,0,0,1-.31-1.09,1.09,1.09,0,0,1,.9-.7c4.71-1.12,7.18-.52,9.18.63.12-.5.31-1,.12-1.28s.17-.57.19-.87C332.53,691.86,330.22,689,327,689.67Z" style="fill: #d21034"/>
    <path d="M616,558.79c-8.26-1.48-16.28,6.36-16.66,9.45-.1-.25-.16.36-.25.5q7.91,21.48,15.79,43c5.59,8,19.32,1.87,20.94-5.53q-6.69-21.86-13.4-43.7A13.26,13.26,0,0,0,616,558.79Z" style="fill: #d21034"/>
    <path d="M568.23,723.56c-1.7-2-3.42-4-7.14-3.8a1.27,1.27,0,0,1-1.17-.38,1.29,1.29,0,0,1-.32-1.21.84.84,0,0,1,.91-.53,11.65,11.65,0,0,1,9.09,3.19c.31-.69.63-1.34,1-2-2.48-2-5.76-3.65-8.84-3.58-3.7.09-6.89,2.51-7.23,9.11,2.19-8.68,10.42-1.13,12.62,1.13A13.68,13.68,0,0,0,568.23,723.56Z" style="fill: #d21034"/>
    <path d="M644.44,554c-7.22-1.6-16.78,1.95-17.3,7l13.8,44.87c4.43,6.39,20.68.21,22.17-4.67l-13.86-44.63A10.59,10.59,0,0,0,644.44,554Z" style="fill: #d21034"/>
    <path d="M564.35,728.56s-.06-.13-.06-.17a.44.44,0,0,0-.15.2C564.22,728.6,564.27,728.52,564.35,728.56Z" style="fill: #d21034"/>
    <path d="M576.24,740.15c4.3,1.69,8.63,3.72,10.26,5.56,11.7,13.46,20.19,9.55,27.26,13.48a45.05,45.05,0,0,0,8.07-.31c-7.5-3.8-20.23-14-24.91-20.1-5.17-6.82-7.14-12.35-9.95-16s-3.72-4.47-6.64-5.14h0c-2.9-.68-5.23-.6-6.61,1.11.9,1.8-2.65,6.54-5.8,11.45C567.21,730.56,573.8,737.47,576.24,740.15Z" style="fill: #d21034"/>
    <path d="M669.94,610.23c-7,.57-39.8,13.85-36.54,20.67,1.3,2,3.23,3.4,4.81,5.19a.27.27,0,0,0,.06.1C646.8,638.36,668.89,625.13,669.94,610.23Z" style="fill: #d21034"/>
    <path d="M672.6,621.48c-11,15.7-23.68,17.51-26.08,21.87,1.66,5.93,7,12.43,11.83,15.61,2.6,1,6.86,2.79,10,1.67,9.33-3.33,17.68-22.33,17.31-23,2.77-1-.28-12.93-9-15.65h0A12.12,12.12,0,0,0,672.6,621.48Z" style="fill: #d21034"/>
    <path d="M706.67,565.43c-.32-2-.59-3.55-.78-4.83a16.51,16.51,0,0,0-10.21-7.7h0c-5.83-1.33-11.59.55-13.58,3l9.15,42.41c0,.15-.08.26-.06.42,5,8.47,18.79,7.66,21.46,3.29-.27-1.69-1.68-10.37-3.38-20.84C708.33,575.5,707.36,569.76,706.67,565.43Z" style="fill: #d21034"/>
    <path d="M666.22,550.44c-6.7-.84-12.2,2.75-11.7,6.51q6.71,21.59,13.4,43.17c4.45,3.86,15.44,3.8,18-2.9L677,556.41C673.57,552.85,669.79,550.91,666.22,550.44Z" style="fill: #d21034"/>
    <polygon points="669.94 610.23 669.94 610.23 669.94 610.23 669.94 610.23" style="fill: #d21034"/>
    <path d="M672.08,665.57c-.71,1.69,0,3.26.84,4.71,4.62,3.91,12.39,8.6,16.84,7.58A166.58,166.58,0,0,0,696,651c-1-5.14-3.86-5.91-4.94-7.7-.42-.71-1.24-.21-2.08.35C687.26,648.08,682.29,660.3,672.08,665.57Z" style="fill: #d21034"/>
  </g>
</svg>
