<svg xmlns="http://www.w3.org/2000/svg" xmlns:xlink="http://www.w3.org/1999/xlink" viewBox="0 0 1260 1012.04">
  <defs>
    <clipPath id="a">
      <path d="M630,506c210,45.8,420,91.61,630-44V922c-210,135.66-420,89.85-630,44s-420-91.6-630,44.06v-920C210-45.58,420,.22,630,46S1050,137.63,1260,2C1050,291,840,398.49,630,506Z" style="fill: none"/>
    </clipPath>
  </defs>
  <g>
    <path d="M0,90.08v920C420,738.76,840,1193.28,1260,922V2C840,273.28,420-181.24,0,90.08Z" style="fill: #00247d"/>
    <path d="M0,90.08C420,125.43,840,886.62,1260,922m0-920C840,580,420,432.09,0,1010.08"/>
    <path d="M1260,819.11c-163-13.72-326.09-136.83-489.13-284.39C933.91,444.19,1097,329.2,1260,104.83V2c-47,30.33-93.92,51.59-140.87,65.81C956.08,236.19,793,319.68,630,403.16,467,248.56,303.92,94,140.87,24.26,93.92,38.48,47,59.74,0,90.08V192.94c163,13.72,326.08,136.82,489.13,284.39C326.08,567.86,163,682.85,0,907.22v102.86c47-30.34,93.91-51.6,140.87-65.82C303.91,775.85,467,692.37,630,608.88c163,154.61,326.09,309.22,489.13,378.9,47-14.22,93.91-35.48,140.87-65.81Z" style="fill: #fff"/>
    <g style="clip-path: url(#a)">
      <path d="M0,90.08C420,125.43,840,886.62,1260,922m0-920C840,580,420,432.09,0,1010.08"/>
      <path d="M1260,853.39c-178.69-15-357.39-161.47-536.08-327.49C902.61,431,1081.31,316.45,1260,70.54V2a567.73,567.73,0,0,1-93.92,49.17C987.39,254.45,808.69,346,630,437.45,451.31,268,272.61,98.55,93.92,40.9A567,567,0,0,0,0,90.08v68.57c178.69,15,357.39,161.47,536.08,327.49C357.39,581.07,178.69,695.59,0,941.5v68.58A567,567,0,0,1,93.92,960.9C272.61,757.6,451.31,666.1,630,574.6,808.69,744,987.39,913.49,1166.08,971.14A567.73,567.73,0,0,0,1260,922Z" style="fill: #cf142b"/>
    </g>
    <path d="M630,46V966M0,550.08C420,278.76,840,733.28,1260,462"/>
    <path d="M525,944c70,13.59,140,30.54,210,44.12h0C665,974.5,595,957.55,525,944Z" style="fill: #fff"/>
    <path d="M735,68.08C665,54.5,595,37.55,525,24V330.63c-175-34-350-46.94-525,66.11V703.41c175-113,350-100.08,525-66.12V944c70,13.59,140,30.54,210,44.12V681.42c175,34,350,46.93,525-66.12V308.64c-175,113-350,100.08-525,66.11Z" style="fill: #fff"/>
    <path d="M630,46V966M0,550.08C420,278.76,840,733.28,1260,462"/>
    <path d="M567,952.46c42,8.8,84,18.32,126,27.12h0c-42-8.8-84-18.32-126-27.12Z" style="fill: #cf142b"/>
    <path d="M693,59.58c-42-8.8-84-18.32-126-27.12v368C378,360.87,189,336,0,458.08v184C189,520,378,544.87,567,584.46v368c42,8.8,84,18.32,126,27.12v-368c189,39.59,378,64.48,567-57.61V370c-189,122.09-378,97.2-567,57.61Z" style="fill: #cf142b"/>
  </g>
</svg>
