<?xml version="1.0" encoding="utf-8"?>
<!-- Generator: Adobe Illustrator 24.2.0, SVG Export Plug-In . SVG Version: 6.00 Build 0)  -->
<svg version="1.1" id="Layer_1" xmlns="http://www.w3.org/2000/svg" xmlns:xlink="http://www.w3.org/1999/xlink" x="0px" y="0px"
	 viewBox="0 0 1260 1260" style="enable-background:new 0 0 1260 1260;" xml:space="preserve">
<style type="text/css">
	.st0{fill:#00247D;}
	.st1{fill:#FFFFFF;}
	.st2{clip-path:url(#SVGID_2_);}
	.st3{fill:#CF142B;}
</style>
<g>
	<path class="st0" d="M63,294.7v736c378-217.1,756,146.6,1134-70.5v-736C819,441.3,441,77.7,63,294.7z"/>
	<path d="M63,294.7C441,323,819,932,1197,960.3 M1197,224.3C819,686.7,441,568.3,63,1030.7"/>
	<path class="st1" d="M1197,877.9c-146.7-11-293.5-109.5-440.2-227.5C903.5,578,1050.3,486,1197,306.5v-82.3
		c-42.3,24.3-84.5,41.3-126.8,52.6C923.5,411.6,776.7,478.4,630,545.2C483.3,421.5,336.5,297.9,189.8,242.1
		c-42.3,11.4-84.5,28.4-126.8,52.7V377c146.7,11,293.5,109.5,440.2,227.5C356.5,676.9,209.7,768.9,63,948.4v82.3
		c42.3-24.3,84.5-41.3,126.8-52.7C336.5,843.3,483.3,776.6,630,709.8c146.7,123.7,293.5,247.4,440.2,303.1
		c42.3-11.4,84.5-28.4,126.8-52.6V877.9z"/>
	<g>
		<defs>
			<path id="SVGID_1_" d="M630,627.5c189,36.6,378,73.3,567-35.2v368c-189,108.5-378,71.9-567,35.2c-189-36.7-378-73.3-567,35.2
				v-736c189-108.5,378-71.9,567-35.2s378,73.3,567-35.2C1008,455.5,819,541.5,630,627.5z"/>
		</defs>
		<clipPath id="SVGID_2_">
			<use xlink:href="#SVGID_1_"  style="overflow:visible;"/>
		</clipPath>
		<g class="st2">
			<path d="M63,294.7C441,323,819,932,1197,960.3 M1197,224.3C819,686.7,441,568.3,63,1030.7"/>
			<path class="st3" d="M1197,905.4c-160.8-12-321.7-129.2-482.5-262c160.8-75.9,321.7-167.6,482.5-364.3v-54.8
				c-26.7,15.4-55,28.6-84.5,39.3C951.7,426.2,790.8,499.5,630,572.6C469.2,437.1,308.3,301.5,147.5,255.4
				C118,266.1,89.7,279.3,63,294.7v54.9c160.8,12,321.7,129.2,482.5,262C384.7,687.5,223.8,779.1,63,975.9v54.9
				c26.7-15.4,55-28.6,84.5-39.3c160.8-162.6,321.7-235.8,482.5-309c160.8,135.5,321.7,271.1,482.5,317.2
				c29.5-10.7,57.8-23.9,84.5-39.3V905.4z"/>
		</g>
	</g>
	<path d="M630,259.5v736 M63,662.7c378-217.1,756,146.6,1134-70.5"/>
	<path class="st1" d="M535.5,977.9c63,10.9,126,24.4,189,35.3l0,0C661.5,1002.3,598.5,988.7,535.5,977.9z"/>
	<path class="st1" d="M724.5,277.1c-63-10.9-126-24.4-189-35.3v245.3C378,460,220.5,449.6,63,540.1v245.3
		c157.5-90.4,315-80.1,472.5-52.9v245.4c63,10.9,126,24.4,189,35.3V767.8c157.5,27.2,315,37.5,472.5-52.9V469.6
		c-157.5,90.4-315,80.1-472.5,52.9V277.1z"/>
	<path d="M630,259.5v736 M63,662.7c378-217.1,756,146.6,1134-70.5"/>
	<path class="st3" d="M573.3,984.6c37.8,7,75.6,14.7,113.4,21.7l0,0C648.9,999.3,611.1,991.7,573.3,984.6z"/>
	<path class="st3" d="M686.7,270.3c-37.8-7-75.6-14.7-113.4-21.7V543C403.2,511.4,233.1,491.5,63,589.1v147.2
		c170.1-97.7,340.2-77.8,510.3-46.1v294.4c37.8,7,75.6,14.7,113.4,21.7V711.9c170.1,31.7,340.2,51.6,510.3-46.1V518.7
		c-170.1,97.7-340.2,77.8-510.3,46.1V270.3z"/>
</g>
</svg>
