<svg xmlns="http://www.w3.org/2000/svg" viewBox="0 0 1260 1012.04">
  <g>
    <path d="M0,90.08v920C420,738.76,840,1193.28,1260,922V2C840,273.28,420-181.24,0,90.08Z" style="fill: #ce1126"/>
    <path d="M105.84,827.41C455.28,694.61,804.72,979.84,1154.16,847V184.64C804.72,317.44,455.28,32.21,105.84,165Z" style="fill: #007a5e"/>
    <path d="M1154.16,847C979.44,803,804.72,654.53,630,506,455.28,578.31,280.56,650.61,105.84,827.41,455.28,694.61,804.72,979.84,1154.16,847Z" style="fill: #fcd116"/>
    <path d="M105.84,165C280.56,209,455.28,357.51,630,506c174.72-72.29,349.44-144.58,524.16-321.38C804.72,317.44,455.28,32.21,105.84,165Z" style="fill: #fcd116"/>
    <path d="M630,395.62c-50.1-11.05-90.72,30.12-90.72,91.16S579.9,605.37,630,616.42s90.72-30.12,90.72-91.15S680.1,406.68,630,395.62Z" style="fill: #ce1126"/>
    <path d="M604.3,495.48q19.77,12.09,39.55,24.24-6.93-57.45-13.85-114.9Q617.15,450.15,604.3,495.48Z" style="fill: #fcd116"/>
    <path d="M616.15,513.69q19.77-3.53,39.55-7Q642.85,455.75,630,404.82,623.07,459.26,616.15,513.69Z" style="fill: #fcd116"/>
    <path d="M625.93,524.46c27.72-10.82,55.44-21.62,83.16-32.82-27.72-5.67-55.44-11.73-83.16-17.78Z" style="fill: #fcd116"/>
    <path d="M641.81,536.81c22.43-14.95,44.85-29.93,67.28-45.17-30.57-.07-61.15-.62-91.72-1.1Z" style="fill: #fcd116"/>
    <path d="M613.64,503.72q32.63,47.4,65.24,94.75Q666,547.6,653.18,496.69,633.41,500.23,613.64,503.72Z" style="fill: #fcd116"/>
    <path d="M611.6,524.4c22.43,24.7,44.85,49.47,67.28,74.07Q657.46,543.71,636,488.79Z" style="fill: #fcd116"/>
    <path d="M581.12,577.32c22.43-15.06,44.85-30,67.28-44.9Q636.17,509.29,624,486.16,602.54,531.7,581.12,577.32Z" style="fill: #fcd116"/>
    <path d="M581.12,577.32q32.63-33.36,65.24-66.47-19.77-12.12-39.54-24.25Q594,531.93,581.12,577.32Z" style="fill: #fcd116"/>
    <path d="M618.19,531.66l24.44-35.61c-30.57-12.84-61.15-25.76-91.72-38.19C573.34,482.27,595.76,507,618.19,531.66Z" style="fill: #fcd116"/>
    <path d="M634.07,526.24v-50.6c-27.72-6.05-55.44-12.11-83.16-17.78C578.63,480.39,606.35,503.33,634.07,526.24Z" style="fill: #fcd116"/>
    <path d="M362.81,63.06q11.69,5.35,23.37,11Q382.09,40.66,378,7.27,370.41,35.11,362.81,63.06Z" style="fill: #fcd116"/>
    <path d="M369.82,72.77q11.69-3.8,23.37-7.29Q385.59,36.32,378,7.27,373.91,40,369.82,72.77Z" style="fill: #fcd116"/>
    <path d="M375.59,78.31q24.57-13.07,49.15-24.86-24.57-3.11-49.15-5Z" style="fill: #fcd116"/>
    <path d="M385,84.33q19.88-15.84,39.76-30.88c-18.07,1.37-36.14,3.18-54.2,5.54Q377.76,71.61,385,84.33Z" style="fill: #fcd116"/>
    <path d="M368.33,67.1q19.28,25.14,38.55,51.1-7.59-29.26-15.18-58.43Q380,63.29,368.33,67.1Z" style="fill: #fcd116"/>
    <path d="M367.13,79.5Q387,98.42,406.88,118.2q-12.64-31.07-25.31-61.79Q374.36,67.9,367.13,79.5Z" style="fill: #fcd116"/>
    <path d="M349.12,113.62Q369,97,388.87,81.23q-7.22-12.75-14.44-25.39Q361.77,84.54,349.12,113.62Z" style="fill: #fcd116"/>
    <path d="M349.12,113.62q19.28-22.92,38.55-45Q376,63,364.3,57.59,356.71,85.54,349.12,113.62Z" style="fill: #fcd116"/>
    <path d="M371,83.21q7.22-11.56,14.44-23-27.09-7.86-54.19-14Q351.15,64.19,371,83.21Z" style="fill: #fcd116"/>
    <path d="M380.41,78.69V48.79c-16.38-1.35-32.76-2.27-49.14-2.66Q355.84,61.67,380.41,78.69Z" style="fill: #fcd116"/>
    <path d="M614.82,104.19l23.36,14.33q-4.09-33.94-8.18-67.9Z" style="fill: #fcd116"/>
    <path d="M621.82,115l23.37-4.15Q637.59,80.72,630,50.62,625.91,82.78,621.82,115Z" style="fill: #fcd116"/>
    <path d="M627.59,121.32q24.58-9.6,49.14-19.26C660.35,98.57,644,95,627.59,91.42Z" style="fill: #fcd116"/>
    <path d="M637,128.61q19.88-13.23,39.75-26.55c-18.06-.2-36.13-.5-54.19-.78Z" style="fill: #fcd116"/>
    <path d="M620.33,109.06q19.27,28,38.55,56L643.7,104.91Z" style="fill: #fcd116"/>
    <path d="M619.13,121.28q19.88,21.9,39.75,43.8l-25.31-64.84Z" style="fill: #fcd116"/>
    <path d="M601.12,152.52Q621,139.24,640.87,126q-7.22-13.67-14.44-27.34Q613.77,125.59,601.12,152.52Z" style="fill: #fcd116"/>
    <path d="M601.12,152.52q19.27-19.65,38.55-39.24L616.3,98.94Z" style="fill: #fcd116"/>
    <path d="M623,125.57l14.44-21q-27.09-11.39-54.19-22.71Q603.15,103.65,623,125.57Z" style="fill: #fcd116"/>
    <path d="M632.41,122.37V92.47q-24.57-5.37-49.14-10.65Q607.84,102,632.41,122.37Z" style="fill: #fcd116"/>
    <path d="M866.82,149.51q11.67,5.75,23.36,11.19Q886.09,127.36,882,94,874.41,121.79,866.82,149.51Z" style="fill: #fcd116"/>
    <path d="M873.82,159.39q11.68-3.58,23.37-7.46Q889.59,123,882,94,877.91,126.7,873.82,159.39Z" style="fill: #fcd116"/>
    <path d="M879.6,165q24.57-12.93,49.13-27.25-24.56-.58-49.13-2.65Z" style="fill: #fcd116"/>
    <path d="M889,171q19.88-16.14,39.75-33.22c-18.06,3.22-36.13,5.81-54.19,7.88Q881.76,158.35,889,171Z" style="fill: #fcd116"/>
    <path d="M872.33,153.69Q891.6,179.25,910.88,204q-7.59-28.78-15.18-57.71Q884,150.13,872.33,153.69Z" style="fill: #fcd116"/>
    <path d="M871.13,166.07Q891,185.47,910.88,204q-12.64-30.25-25.31-60.89Q878.36,154.64,871.13,166.07Z" style="fill: #fcd116"/>
    <path d="M853.12,199.4Q873,184,892.87,167.8q-7.22-12.59-14.44-25.28Q865.77,171.13,853.12,199.4Z" style="fill: #fcd116"/>
    <path d="M853.12,199.4q19.27-21.69,38.55-44.16Q880,149.81,868.3,144.08,860.71,171.8,853.12,199.4Z" style="fill: #fcd116"/>
    <path d="M875,169.86q7.22-11.48,14.44-23c-18.06-4.95-36.13-10.45-54.19-16.38Q855.15,150.53,875,169.86Z" style="fill: #fcd116"/>
    <path d="M884.41,165.38v-29.9q-24.57-1.89-49.14-5Q859.84,148.49,884.41,165.38Z" style="fill: #fcd116"/>
    <path d="M362.81,854.26q11.69,5.36,23.37,11-4.1-33.42-8.18-66.81Q370.41,826.31,362.81,854.26Z" style="fill: #fcd116"/>
    <path d="M369.82,864q11.69-3.79,23.37-7.29-7.6-29.16-15.19-58.21Q373.91,831.2,369.82,864Z" style="fill: #fcd116"/>
    <path d="M375.59,869.5q24.57-13.05,49.15-24.85-24.57-3.1-49.15-5Z" style="fill: #fcd116"/>
    <path d="M385,875.53q19.88-15.84,39.76-30.88c-18.07,1.37-36.14,3.18-54.2,5.54Q377.76,862.81,385,875.53Z" style="fill: #fcd116"/>
    <path d="M368.33,858.3q19.28,25.14,38.55,51.1Q399.29,880.14,391.7,851,380,854.5,368.33,858.3Z" style="fill: #fcd116"/>
    <path d="M367.13,870.7q19.88,18.91,39.75,38.7-12.64-31.06-25.31-61.79Q374.36,859.1,367.13,870.7Z" style="fill: #fcd116"/>
    <path d="M349.12,904.82q19.88-16.65,39.75-32.39-7.22-12.75-14.44-25.4Q361.77,875.74,349.12,904.82Z" style="fill: #fcd116"/>
    <path d="M349.12,904.82q19.28-22.92,38.55-45Q376,854.17,364.3,848.79,356.71,876.73,349.12,904.82Z" style="fill: #fcd116"/>
    <path d="M371,874.41q7.22-11.56,14.44-23-27.09-7.86-54.19-14Q351.15,855.39,371,874.41Z" style="fill: #fcd116"/>
    <path d="M380.41,869.89V840c-16.38-1.35-32.76-2.27-49.14-2.66Q355.84,852.87,380.41,869.89Z" style="fill: #fcd116"/>
    <path d="M614.82,895.39l23.36,14.33q-4.09-33.94-8.18-67.9Z" style="fill: #fcd116"/>
    <path d="M621.82,906.15,645.19,902q-7.61-30.07-15.19-60.18Q625.91,874,621.82,906.15Z" style="fill: #fcd116"/>
    <path d="M627.59,912.52q24.58-9.6,49.14-19.26c-16.38-3.49-32.76-7.07-49.14-10.64Z" style="fill: #fcd116"/>
    <path d="M637,919.81q19.88-13.23,39.75-26.55c-18.06-.2-36.13-.5-54.19-.78Z" style="fill: #fcd116"/>
    <path d="M620.33,900.26q19.27,28,38.55,56L643.7,896.11Z" style="fill: #fcd116"/>
    <path d="M619.13,912.48q19.88,21.9,39.75,43.8l-25.31-64.84Z" style="fill: #fcd116"/>
    <path d="M601.12,943.72q19.88-13.28,39.75-26.5-7.22-13.66-14.44-27.34Q613.77,916.79,601.12,943.72Z" style="fill: #fcd116"/>
    <path d="M601.12,943.72q19.27-19.65,38.55-39.24L616.3,890.14Z" style="fill: #fcd116"/>
    <path d="M623,916.77l14.44-21Q610.37,884.35,583.27,873,603.15,894.85,623,916.77Z" style="fill: #fcd116"/>
    <path d="M632.41,913.57v-29.9Q607.84,878.3,583.27,873,607.84,893.21,632.41,913.57Z" style="fill: #fcd116"/>
    <path d="M866.82,940.71q11.67,5.74,23.36,11.19-4.09-33.35-8.18-66.73Q874.41,913,866.82,940.71Z" style="fill: #fcd116"/>
    <path d="M873.82,950.59q11.68-3.58,23.37-7.46-7.61-28.92-15.19-58Q877.91,917.9,873.82,950.59Z" style="fill: #fcd116"/>
    <path d="M879.6,956.2q24.57-12.93,49.13-27.25-24.56-.59-49.13-2.65Z" style="fill: #fcd116"/>
    <path d="M889,962.17Q908.86,946,928.73,929c-18.06,3.22-36.13,5.81-54.19,7.88Q881.76,949.55,889,962.17Z" style="fill: #fcd116"/>
    <path d="M872.33,944.89q19.27,25.56,38.55,50.29-7.59-28.78-15.18-57.71Q884,941.33,872.33,944.89Z" style="fill: #fcd116"/>
    <path d="M871.13,957.27q19.88,19.4,39.75,37.91-12.64-30.25-25.31-60.89Q878.36,945.84,871.13,957.27Z" style="fill: #fcd116"/>
    <path d="M853.12,990.6Q873,975.21,892.87,959q-7.22-12.59-14.44-25.28Q865.77,962.33,853.12,990.6Z" style="fill: #fcd116"/>
    <path d="M853.12,990.6q19.27-21.69,38.55-44.16Q880,941,868.3,935.28,860.71,963,853.12,990.6Z" style="fill: #fcd116"/>
    <path d="M875,961.06q7.22-11.47,14.44-23c-18.06-4.95-36.13-10.45-54.19-16.38Q855.15,941.72,875,961.06Z" style="fill: #fcd116"/>
    <path d="M884.41,956.58v-29.9q-24.57-1.89-49.14-5Q859.84,939.69,884.41,956.58Z" style="fill: #fcd116"/>
    <path d="M170.73,477.41c11.35,22.91,33.43,46.32,52.71,53.54.31-26.16-7.31-58.63-17.73-83.5Q188.22,461.85,170.73,477.41Z" style="fill: #ce1126"/>
    <path d="M151.48,394.17c8.23,18.17-2.44,57.24-2.85,90-.41,33.16,9.43,60.05,58.69,62.07-12.16-18.09-20-49.67-17-77,20.67,5.29,42.41,30.51,51.2,51C267.27,402.43,175.37,421.2,151.48,394.17Z" style="fill: #fcd116"/>
  </g>
</svg>
