<svg xmlns="http://www.w3.org/2000/svg" viewBox="0 0 1260 1012.04">
  <g>
    <path d="M0,90.08v920C420,738.76,840,1193.28,1260,922V2C840,273.28,420-181.24,0,90.08Z" style="fill: #fff"/>
    <path d="M714,63.91C658,52.56,602,39.48,546,28.13v368c-182-36.9-364-55.62-546,61.95v184c182-117.57,364-98.85,546-62v368c56,11.35,112,24.43,168,35.78v-368c182,36.9,364,55.63,546-61.94V370c-182,117.57-364,98.84-546,61.94Z" style="fill: red"/>
    <path d="M270.69,270.19c127.58-6.63,231,133.26,231,271.25V19.57c-17.09-3.12-34.18-6-51.28-8.51C408.06,62.29,343.3,90.89,270.69,95.39,198.08,99.45,133.31,81.49,91,42.12A550.6,550.6,0,0,0,39.69,66.55V588.42C39.69,448.4,143.11,275.41,270.69,270.19Z" style="fill: red"/>
    <path d="M350.49,182.38c0-71.09,26.86-134.67,70.06-175.37C320.64-5.24,220.74-3.83,120.83,30.77,164,62,190.89,122.26,190.89,193.16,190.89,319.68,108.46,430.8,0,520.74v3.81C193.83,399.33,387.66,428.71,581.49,470,453.91,440.62,350.49,321.18,350.49,182.38Z" style="fill: red"/>
    <path d="M989.31,741.85c-127.58,6.63-231-133.25-231-271.25V992.47q25.63,4.68,51.28,8.52c42.34-51.24,107.11-79.83,179.72-84.34,72.61-4.06,137.38,13.9,179.72,53.28a553.28,553.28,0,0,0,51.28-24.44V423.62C1220.31,563.65,1116.89,736.63,989.31,741.85Z" style="fill: red"/>
    <path d="M1069.11,818.88c0-126.51,82.43-237.64,190.89-327.57V487.5c-193.83,125.21-387.66,95.83-581.49,54.55,127.58,29.37,231,148.81,231,287.62,0,71.09-26.86,134.67-70.06,175.37,99.91,12.24,199.81,10.84,299.72-23.76C1096,950,1069.11,889.78,1069.11,818.88Z" style="fill: red"/>
    <path d="M989.31,359.59c127.58-5.22,231,48.34,231,187.77V25.49A554.5,554.5,0,0,1,1169,49.93c-42.34,75.36-107.11,130.8-179.72,134.86C916.7,189.3,851.93,144.49,809.59,81q-25.65-3.8-51.28-8.52V594.34C758.31,452.88,861.73,366.22,989.31,359.59Z" style="fill: red"/>
    <path d="M1069.11,261.82c0-71.48,26.86-139.84,70.06-200.54-99.91,34.6-199.81,36-299.72,23.76,43.2,51.24,70.06,116.28,70.06,187.57,0,140.65-103.42,247.75-231,218.38,193.83,41.28,387.66,70.66,581.49-54.55v-3.81C1151.54,481,1069.11,384.79,1069.11,261.82Z" style="fill: red"/>
    <path d="M270.69,652.45c-127.58,5.22-231-48.34-231-187.77V986.55A550.6,550.6,0,0,1,91,962.12c42.34-75.37,107.11-130.81,179.72-134.87,72.61-4.5,137.38,40.3,179.72,103.81,17.1,2.52,34.19,5.39,51.28,8.51V417.7C501.69,559.16,398.27,645.82,270.69,652.45Z" style="fill: red"/>
    <path d="M350.49,739.44c0-140.65,103.42-247.76,231-218.39C387.66,479.77,193.83,450.39,0,575.61v3.81c108.46-48.35,190.89,47.83,190.89,170.8,0,71.48-26.86,139.85-70.06,200.55,99.91-34.6,199.81-36,299.72-23.76C377.35,875.76,350.49,810.72,350.49,739.44Z" style="fill: red"/>
  </g>
</svg>
