<svg xmlns="http://www.w3.org/2000/svg" viewBox="0 0 1260 1012.04">
  <g>
    <path d="M0,90.08C420,125.43,840,886.62,1260,922V2C840,273.28,420-181.24,0,90.08Z" style="fill: #078930"/>
    <path d="M0,1010.08C420,738.76,840,1193.28,1260,922,840,886.62,420,125.43,0,90.08Z" style="fill: #fcdd09"/>
    <path d="M712.29,647.61q-15.72-56.16-31.43-112.49Q655.44,550,630,564.59C657.43,592.4,684.86,620.21,712.29,647.61Z" style="fill: #da121a"/>
    <path d="M496.85,431.31c27.43,26.75,54.86,54.16,82.29,81.81q9.72-30.67,19.43-61.31C564.66,444.48,530.76,437.4,496.85,431.31Z" style="fill: #da121a"/>
    <path d="M547.71,612.53c27.43-16.25,54.86-32.1,82.29-47.94q-25.43-25.79-50.86-51.47Q563.42,562.76,547.71,612.53Z" style="fill: #da121a"/>
    <path d="M661.43,465.47q9.72,34.84,19.43,69.65c27.43-16,54.86-32.25,82.29-49.15C729.24,479.88,695.34,472.79,661.43,465.47Z" style="fill: #da121a"/>
    <path d="M630,352.69q-15.72,49.55-31.43,99.12c20.95,4.52,41.91,9.14,62.86,13.66Q645.71,409.1,630,352.69Z" style="fill: #da121a"/>
    <path d="M598.57,451.81q-9.72,30.65-19.43,61.31,25.43,25.65,50.86,51.47,25.43-14.69,50.86-29.47-9.72-34.81-19.43-69.65C640.48,461,619.52,456.33,598.57,451.81Z" style="fill: #da121a"/>
  </g>
</svg>
