<svg xmlns="http://www.w3.org/2000/svg" viewBox="0 0 1260 1012.04">
  <g>
    <path d="M0,90.08v920C420,738.76,840,1193.28,1260,922V2C840,273.28,420-181.24,0,90.08Z" style="fill: #fff"/>
    <path d="M735,68.08C665,54.5,595,37.55,525,24V369C350,335,175,322,0,435.08v230C175,552,350,565,525,599V944c70,13.59,140,30.54,210,44.12v-345c175,34,350,46.94,525-66.11V347c-175,113-350,100.08-525,66.11Z" style="fill: #e8112d"/>
    <path d="M665,475.29V207q17.5-15.4,35-30.92c-46.67-9.68-93.33-20.36-140-30q17.5,22.8,35,45.75V460.09c-81.67-17.6-163.33-33.67-245-37.54q-17.5-20-35-39.22V536.67q17.5-19.14,35-37.45c81.67,3.87,163.33,19.94,245,37.53V805.09Q577.5,820.48,560,836c46.67,9.68,93.33,20.36,140,30q-17.5-22.8-35-45.75V552c81.67,17.59,163.33,33.66,245,37.53q17.5,20,35,39.22V475.38q-17.5,19.13-35,37.45C828.33,509,746.67,492.89,665,475.29Z" style="fill: #f9dd16"/>
  </g>
</svg>
