<svg xmlns="http://www.w3.org/2000/svg" viewBox="0 0 1260 1012.04">
  <g>
    <path d="M0,90.08v920C420,738.76,840,1193.28,1260,922V2C840,273.28,420-181.24,0,90.08Z" style="fill: #006b3f"/>
    <path d="M0,90.08V703.41C420,432.09,840,886.62,1260,615.3V2C840,273.28,420-181.24,0,90.08Z" style="fill: #fcd116"/>
    <path d="M0,90.08V396.74C420,125.43,840,580,1260,308.63V2C840,273.28,420-181.24,0,90.08Z" style="fill: #ce1126"/>
    <path d="M482.8,440c30.32,29.32,60.65,59.52,91,90.06q10.74-33.93,21.48-67.81C557.76,454.2,520.28,446.44,482.8,440Z"/>
    <path d="M721,678.65q-17.38-62-34.75-124.3Q658.11,570.79,630,587C660.33,617.71,690.65,648.45,721,678.65Z"/>
    <path d="M539,640.06c30.33-18.06,60.65-35.58,91-53.1q-28.11-28.5-56.23-56.87Q556.4,585,539,640.06Z"/>
    <path d="M664.75,477.37q10.74,38.52,21.48,77c30.32-17.72,60.65-35.79,91-54.73C739.72,493.21,702.24,485.45,664.75,477.37Z"/>
    <path d="M595.25,462.28q-10.74,33.89-21.48,67.81Q601.9,558.4,630,587q28.11-16.23,56.23-32.61-10.74-38.46-21.48-77C641.58,472.38,618.42,467.27,595.25,462.28Z"/>
    <path d="M630,352.69q-17.37,54.78-34.75,109.59c23.17,5,46.33,10.1,69.5,15.09Q647.38,415.06,630,352.69Z"/>
  </g>
</svg>
