<svg xmlns="http://www.w3.org/2000/svg" viewBox="0 0 1260 1012.04">
  <g>
    <path d="M0,90.08v920C420,738.76,840,1193.28,1260,922V2C840,273.28,420-181.24,0,90.08Z" style="fill: #da000c"/>
    <path d="M0,90.08V706.4c420-271.31,840,183.21,1260-88.1V2C840,273.28,420-181.24,0,90.08Z" style="fill: #fff"/>
    <path d="M483.75,592.46c52.5,9,105,20.64,157.5,32.08V466.44c-52.5-11.44-105-23.07-157.5-32.08Z"/>
    <path d="M448.11,584.15v21.71c39.15,5.72,78.31,13.26,117.46,21.44V585.11c-32.05-6.7-64.1-13-96.15-18.15Q458.77,575.46,448.11,584.15Z" style="fill: #da000c"/>
    <path d="M446.88,583v24.47c40,5.8,80,13.51,119.92,21.88v-3.6c-39.15-8.19-78.3-15.76-117.46-21.52V585.3q10.23-8.32,20.45-16.49c32.34,5.25,64.67,11.59,97,18.36v-3.59c-32.58-6.83-65.16-13.21-97.74-18.48Q458,574,446.88,583Z"/>
    <path d="M469.42,566.88q15.39,2.49,30.77,5.29V519.05c0-19.95,11.11-35.62,25.14-32.89,13.85,2.69,25.15,21.87,25.15,42.64v53.12q9,1.85,18.07,3.74V384.41c-33-6.93-66.08-13.43-99.13-18.78Z" style="fill: #da000c"/>
    <path d="M468.19,568.48q16.62,2.67,33.23,5.71V519.28c0-19.42,10.95-33.85,23.91-31.32,13.19,2.56,23.92,20.84,23.92,40.59v54.91q10.26,2.1,20.53,4.26V382.88c-33.86-7.12-67.72-13.79-101.59-19.25Zm2.46-200.85c32.23,5.24,64.45,11.57,96.67,18.32V583.61q-7.8-1.64-15.61-3.24V529.05c0-21.73-11.83-41.86-26.38-44.69C511,481.58,499,497.46,499,518.83v51.32q-14.16-2.55-28.31-4.87Z"/>
    <path d="M503.33,357.4q22.8,4.17,45.59,8.85v-122q-22.8-4.65-45.59-8.85Z"/>
    <path d="M508.9,318.84q-14.62-2.71-29.25-5.2v20.67q-9.91-1.68-19.84-3.22V310.42q-5.93-.92-11.84-1.78v37.51q5.92.87,11.84,1.78v-.13c28.69,4.45,57.37,9.81,86.06,15.62v.14l2.92.59V347.31q-19.95-4.06-39.89-7.8Z" style="fill: #da000c"/>
    <path d="M459.81,364.11c28.69,4.44,57.37,9.81,86.06,15.62V363.56c-28.69-5.82-57.37-11.18-86.06-15.63Z" style="fill: #da000c"/>
    <path d="M510.13,317.27q-15.86-3-31.71-5.63V332.3q-8.69-1.46-17.38-2.82V308.82q-7.16-1.11-14.3-2.15v41.1q5.91.86,11.84,1.77v16.17c29.51,4.55,59,10.07,88.52,16.07V365.61l2.92.59v-3.59l-2.92-.6v-.13c-29.51-6-59-11.52-88.52-16.07V346c-3.13-.49-6.25-1-9.38-1.42V310.62c3.13.46,6.25.93,9.38,1.41v20.66q11.15,1.72,22.3,3.62V315.65q13.39,2.27,26.79,4.76v20.66Q528.85,345,550,349.35v-3.59q-19.95-4.06-39.89-7.82ZM461,349.92c27.87,4.35,55.73,9.55,83.6,15.19v12.57c-27.87-5.63-55.73-10.83-83.6-15.18Z"/>
    <path d="M494,316.12q7.47,1.33,14.94,2.72V284c0-13,6.31-22.55,15.13-21.5.28,0,.55.11.84.17,9.22,1.78,16.69,14.2,16.69,27.66v34.82q7.11,1.43,14.23,2.9V201.28C535.18,197,514.57,193,494,189.33Z" style="fill: #da000c"/>
    <path d="M492.73,317.7q8.7,1.55,17.4,3.17V284.26c0-12.28,6-20.87,14-19.92a3.89,3.89,0,0,1,.47.09l.31.06c8.53,1.66,15.46,13.18,15.46,25.63v36.61q8.34,1.66,16.69,3.4V199.74c-21.43-4.42-42.86-8.63-64.29-12.43Zm2.46-126.35c19.79,3.53,39.58,7.41,59.37,11.48V326l-11.77-2.4v-33c0-14.43-8-27.79-17.92-29.71l-.26-.06c-.22,0-.43-.09-.65-.11-9.29-1.12-16.29,8.84-16.29,23.07v33c-4.16-.78-8.32-1.53-12.48-2.28Z"/>
    <path d="M488.57,188.38c24,4.19,48,8.91,72,13.89V185.09c-24-5-48-9.7-72-13.89Z" style="fill: #da000c"/>
    <path d="M487.34,190c24.82,4.32,49.63,9.2,74.45,14.36V183.55c-24.82-5.16-49.63-10.05-74.45-14.36Zm2.46-16.75c23.18,4.06,46.35,8.62,69.52,13.42v13.59c-23.17-4.8-46.34-9.36-69.52-13.42Z"/>
    <path d="M552.4,167.23q-8-1.64-16.07-3.24V147.25q-12.27-2.43-24.53-4.75v16.74q-8-1.52-16.07-3V139.56q-8.21-1.47-16.39-2.85v32.9c28.79,4.86,57.58,10.53,86.37,16.55v-32.9q-6.66-1.39-13.31-2.76Z" style="fill: #da000c"/>
    <path d="M551.17,165.19q-6.79-1.4-13.61-2.76V145.7q-13.5-2.69-27-5.22v16.73q-6.81-1.28-13.61-2.5V138q-9.42-1.69-18.85-3.28v36.5c29.61,5,59.22,10.81,88.83,17v-36.5q-7.89-1.65-15.77-3.27Zm2.46-12.64q5.43,1.11,10.85,2.25v29.31c-28-5.84-55.94-11.34-83.91-16.08V138.71q7,1.18,13.92,2.42v16.74q9.27,1.65,18.54,3.4V144.53q11,2.08,22.07,4.28v16.73q9.27,1.83,18.53,3.74Z"/>
    <path d="M448.11,584.15c39.3,5.74,78.6,13.32,117.91,21.54" style="fill: #da000c"/>
    <path d="M446.88,585.77c40.12,5.82,80.24,13.57,120.37,22v-3.6c-40.13-8.4-80.25-16.15-120.37-22Z"/>
    <path d="M538.41,607.11v25.26c34.63,6.93,69.26,14.56,103.89,22.11V612.25c-26.6-5.8-53.21-11.65-79.82-17.19Q550.44,601,538.41,607.11Z" style="fill: #da000c"/>
    <path d="M537.18,605.73v28.2c35.45,7.06,70.9,14.89,106.36,22.61V653c-34.64-7.54-69.27-15.19-103.9-22.13V608.48q11.55-5.84,23.12-11.56c26.92,5.61,53.85,11.53,80.78,17.39v-3.59c-27.12-5.9-54.23-11.87-81.34-17.51Q549.69,599.42,537.18,605.73Z"/>
    <path d="M538.38,607.06c35.46,7.08,70.92,14.92,106.39,22.64" style="fill: #da000c"/>
    <path d="M538.38,608.85c35.46,7.09,70.92,14.93,106.39,22.65v-3.6c-35.47-7.71-70.93-15.55-106.39-22.64Z"/>
    <path d="M618.75,619.63c52.5,11.44,105,23.08,157.5,32.08V493.61c-52.5-9-105-20.64-157.5-32.08Z"/>
    <path d="M694.43,612.83V655c39.15,8.19,78.31,15.73,117.46,21.45V654.76Q801.22,643,790.58,631C758.53,625.8,726.48,619.53,694.43,612.83Z" style="fill: #da000c"/>
    <path d="M693.2,610.78v3.59c32.34,6.77,64.67,13.11,97,18.36q10.21,11.49,20.45,22.82v18.94C771.5,668.73,732.35,661.16,693.2,653v3.59c40,8.37,79.95,16.08,119.92,21.88V654Q802,641.7,791,629.25C758.36,624,725.78,617.6,693.2,610.78Z"/>
    <path d="M691.45,612.13q9,1.9,18.07,3.75V562.76c0-20.78,11.3-35.3,25.15-32.61,14,2.73,25.14,22.39,25.14,42.35v53.12q15.39,2.79,30.77,5.3V429.67c-33.05-5.36-66.09-11.85-99.13-18.79Z" style="fill: #da000c"/>
    <path d="M690.22,613.67q10.26,2.16,20.53,4.25V563c0-19.76,10.73-33.62,23.92-31.06,13,2.52,23.91,20.91,23.91,40.33V627.2q16.62,3,33.23,5.71V428.07c-33.87-5.46-67.73-12.13-101.59-19.24Zm2.46-200.73c32.22,6.75,64.44,13.08,96.67,18.32V628.92q-14.16-2.31-28.31-4.87V572.73c0-21.37-12.07-41.59-26.37-44.38-14.55-2.82-26.38,12.41-26.38,34.16v51.32q-7.81-1.61-15.61-3.24Z"/>
    <path d="M711.08,400.85q22.8,4.65,45.59,8.85v-122q-22.8-4.17-45.59-8.85Z"/>
    <path d="M800.19,398.17q-9.91-1.53-19.84-3.21V374.29q-14.62-2.48-29.25-5.2v20.66q-20-3.71-39.89-7.8V398.8l2.92.59v-.13c28.69,5.81,57.37,11.17,86.06,15.62V415q5.92.92,11.84,1.78V379.29q-5.92-.87-11.84-1.78Z" style="fill: #da000c"/>
    <path d="M714.13,415.56c28.69,5.82,57.37,11.18,86.06,15.63V415c-28.69-4.45-57.37-9.81-86.06-15.63Z" style="fill: #da000c"/>
    <path d="M799,396.18q-8.7-1.35-17.38-2.81V372.7q-15.86-2.67-31.71-5.64v20.67Q729.92,384,710,379.91v3.59q21.18,4.32,42.35,8.28V371.12q13.39,2.47,26.79,4.76v20.66q11.14,1.9,22.3,3.62V379.49c3.13.49,6.25,1,9.38,1.42v33.91c-3.13-.46-6.25-.93-9.38-1.41v-.13c-29.51-4.55-59-10.07-88.52-16.07v.14l-2.92-.6v3.6l2.92.59v16.17c29.51,6,59,11.52,88.52,16.07V417q5.93.92,11.84,1.78V377.67q-7.14-1-14.3-2.15Zm0,33c-27.87-4.34-55.73-9.55-83.6-15.18V401.44c27.87,5.63,55.73,10.84,83.6,15.18Z"/>
    <path d="M704.21,359.86q7.13,1.45,14.23,2.89V327.94c0-13.47,7.47-22.86,16.69-21.07.29.05.56.09.84.16,8.83,2.36,15.13,14.2,15.13,27.25v34.81q7.47,1.4,14.94,2.72V245c-20.61-3.67-41.22-7.71-61.83-12Z" style="fill: #da000c"/>
    <path d="M703,361.4q8.34,1.73,16.69,3.4V328.19c0-12.45,6.93-21.18,15.46-19.53l.31.06.47.09c8,2.14,14,12.95,14,25.24v36.61q8.7,1.62,17.4,3.17V243.44c-21.43-3.8-42.86-8-64.29-12.43Zm2.46-126.29c19.79,4.07,39.58,7.95,59.37,11.49V369.79q-6.24-1.11-12.48-2.27v-33c0-14.23-7-26.76-16.29-29.25a5,5,0,0,0-.65-.13l-.26-.05c-9.88-1.92-17.92,8.19-17.92,22.62v33q-5.88-1.18-11.77-2.4Z"/>
    <path d="M699.44,232.08c24,5,48,9.7,72,13.89V228.78c-24-4.18-48-8.9-72-13.89Z" style="fill: #da000c"/>
    <path d="M698.21,233.62c24.82,5.16,49.63,10,74.45,14.36V227.2c-24.82-4.31-49.63-9.2-74.45-14.36ZM700.68,217c23.17,4.8,46.34,9.35,69.52,13.42V244c-23.18-4.06-46.35-8.61-69.52-13.41Z"/>
    <path d="M764.27,211.35q-8-1.44-16.07-2.95V191.67q-12.27-2.31-24.53-4.75v16.73q-8-1.59-16.07-3.25V183.67l-13.31-2.75v32.9c28.79,6,57.58,11.69,86.37,16.55V197.46q-8.19-1.38-16.39-2.84Z" style="fill: #da000c"/>
    <path d="M763,209.33q-6.79-1.22-13.61-2.5V190.1q-13.5-2.52-27-5.22v16.73q-6.81-1.35-13.61-2.75V182.13q-7.89-1.62-15.77-3.27v36.5c29.61,6.2,59.22,12,88.83,17v-36.5q-9.42-1.58-18.85-3.27Zm2.47-12.7q7,1.25,13.92,2.42v29.31c-28-4.74-55.94-10.24-83.91-16.08V183l10.85,2.25V202q9.25,1.91,18.53,3.74V189q11,2.19,22.07,4.27V210q9.27,1.74,18.54,3.39Z"/>
    <path d="M811.89,654.76c-39.3-5.74-78.6-13.32-117.91-21.54" style="fill: #da000c"/>
    <path d="M692.75,634.76c40.13,8.41,80.25,16.16,120.37,22v-3.6c-40.12-5.82-80.24-13.57-120.37-22Z"/>
    <path d="M617.7,606.88v42.23c34.63,7.54,69.26,15.18,103.89,22.1V645.94q-12-10.87-24.07-21.87C670.91,618.53,644.3,612.68,617.7,606.88Z" style="fill: #da000c"/>
    <path d="M616.46,604.82v3.59c26.93,5.87,53.86,11.79,80.78,17.4q11.57,10.55,23.12,21v22.34c-34.63-6.94-69.26-14.58-103.9-22.12v3.59c35.46,7.72,70.91,15.55,106.36,22.62v-28.2q-12.51-11.31-25-22.73C670.69,616.69,643.58,610.72,616.46,604.82Z"/>
    <path d="M721.62,645.91c-35.46-7.09-70.92-14.93-106.39-22.65" style="fill: #da000c"/>
    <path d="M615.23,625.06c35.47,7.72,70.93,15.56,106.39,22.64v-3.59c-35.46-7.09-70.92-14.93-106.39-22.64Z"/>
    <path d="M672.57,594.42c-6.53,1.78-12.44,5.84-18.38,9.53a141.69,141.69,0,0,0-21.92,17.15,26.12,26.12,0,0,0-6.61,6.72c-2.53,2.61-5.09,6.28-4.6,11.62.12,2.34,2.15-2.24,3.48-2.19a7.43,7.43,0,0,1,7.73,0c3.13-4.13,7.16-6.47,10.64-9.92A149.76,149.76,0,0,1,666.35,611a45.08,45.08,0,0,1,8.68-3.89l-2.46-12.66Z" style="fill: #f8d80e"/>
    <path d="M672.27,593.05c-5.78,1.57-11.1,4.92-16.24,8.15l-2.33,1.45a142.57,142.57,0,0,0-22,17.18A27.6,27.6,0,0,0,625,626.7c-2.38,2.47-5.43,6.46-4.87,12.65a2.49,2.49,0,0,0,.8,1.95,1.19,1.19,0,0,0,.41.2c.64.14,1.21-.57,1.89-1.42.37-.46,1.14-1.42,1.44-1.44h.19l.17-.1a6.79,6.79,0,0,1,7,0l.52.29.37-.49a37.31,37.31,0,0,1,6.37-6.16c1.39-1.14,2.84-2.33,4.16-3.63a147.59,147.59,0,0,1,23.3-16.26l.23-.11a42.58,42.58,0,0,1,8.32-3.73l.86-.24q-1.5-7.71-3-15.41Zm-6.12,16.48-.25.14a149.1,149.1,0,0,0-23.59,16.45c-1.3,1.29-2.72,2.45-4.09,3.58a40.62,40.62,0,0,0-6.27,6,8,8,0,0,0-7.74.2c-.81.11-1.54,1-2.25,1.87.16-3.08,1.56-5.89,4.31-8.72l.11-.15a25.61,25.61,0,0,1,6.49-6.56,140.07,140.07,0,0,1,21.79-17L657,603.8c4.79-3,9.72-6.12,15-7.73.64,3.3,1.29,6.6,1.93,9.9A49.51,49.51,0,0,0,666.15,609.53Z"/>
    <path d="M640.83,614v14.06" style="fill: #f8d80e"/>
    <path d="M640.83,612.21c-.68-.15-1.23.54-1.23,1.53V627.8a2.05,2.05,0,0,0,1.23,2.06c.68.15,1.23-.53,1.23-1.53V614.28A2.07,2.07,0,0,0,640.83,612.21Z"/>
    <path d="M646.78,609.17v14" style="fill: #f8d80e"/>
    <path d="M646.78,607.38c-.68-.15-1.23.53-1.23,1.53v14a2.06,2.06,0,0,0,1.23,2.06c.68.15,1.23-.54,1.23-1.53V609.44A2.05,2.05,0,0,0,646.78,607.38Z"/>
    <path d="M652.72,605.05v13.87" style="fill: #f8d80e"/>
    <path d="M652.72,603.26c-.68-.15-1.23.53-1.23,1.53v13.86a2.08,2.08,0,0,0,1.23,2.07c.68.14,1.23-.54,1.23-1.53V605.32A2.05,2.05,0,0,0,652.72,603.26Z"/>
    <path d="M658.67,601v14.31" style="fill: #f8d80e"/>
    <path d="M658.67,599.2c-.68-.14-1.23.54-1.23,1.53V615a2.08,2.08,0,0,0,1.23,2.07c.68.14,1.23-.54,1.23-1.53V601.27A2.07,2.07,0,0,0,658.67,599.2Z"/>
    <path d="M624.09,610.55c-11.54-12.65-23.56-24.45-36.19-34h0q-1.47,5.64-2.93,11.28c13.63,10.46,26.6,23.27,38.88,37.38,4.16,5,8.53,10,11.8,16.39.72,3.07-1.26,5.08-3.23,3.77-1.8-1.29-3.58-2.7-5.48-1.21-2.72,1.21-5.18,6.56-1.05,9.44,5.7,6.83,15,6.42,17.71-2.77,1.43-4.73,1.52-11.15-1.25-15.89C637.27,625.31,630.54,617.93,624.09,610.55Z" style="fill: #f8d80e"/>
    <path d="M626,611.1l-1.43-1.63c-13.12-14.38-25-25.57-36.34-34.18l-.9-.68q-1.79,6.87-3.56,13.74l.87.66c12.67,9.73,25.69,22.26,38.68,37.19l1.36,1.64c3.6,4.33,7.31,8.8,10.13,14.23a2.21,2.21,0,0,1-.32,1.77,1.26,1.26,0,0,1-1.77.26l-.23-.17c-1.8-1.29-3.83-2.75-6-1.11a7.44,7.44,0,0,0-3.73,6.77,6.54,6.54,0,0,0,2.72,5.14,13.77,13.77,0,0,0,7.38,4.68,9.42,9.42,0,0,0,4.16,0c3.53-.8,6.18-3.61,7.46-7.9,1.38-4.55,1.83-11.84-1.41-17.36C638.26,625.08,632,618,626,611.1Zm16.72,39c-1.06,3.56-3.28,5.9-6.27,6.57-3.41.78-7.26-.8-10-4.12l-.23-.22a3.12,3.12,0,0,1-1.55-2.47,5.08,5.08,0,0,1,2.69-4.38l.14-.09a2.06,2.06,0,0,1,1.78-.45,8.31,8.31,0,0,1,2.63,1.47l.26.19a2.6,2.6,0,0,0,3.72-.55,5.79,5.79,0,0,0,.68-4.75l-.16-.45c-3-5.86-6.89-10.53-10.64-15.05l-1.38-1.67c-12.83-14.74-25.67-27.15-38.19-36.87q1.16-4.43,2.29-8.83c11,8.43,22.46,19.31,35.12,33.18l1.41,1.61c5.91,6.75,12,13.72,16.68,22.52C644.3,640.22,643.88,646.26,642.72,650.09Z"/>
    <path d="M625.2,612.91q-.39,5.93-.77,11.84" style="fill: #f8d80e"/>
    <path d="M625.32,611.15c-.68-.24-1.28.36-1.34,1.33q-.39,5.91-.77,11.83a2.19,2.19,0,0,0,1.11,2.2l.11,0c.63.14,1.17-.44,1.23-1.36q.38-5.91.77-11.83A2.22,2.22,0,0,0,625.32,611.15Z"/>
    <path d="M632.05,620.53q-1.06,5.64-2.12,11.29" style="fill: #f8d80e"/>
    <path d="M632.36,618.86c-.65-.38-1.33,0-1.5.95q-1.07,5.66-2.12,11.29a2.42,2.42,0,0,0,.87,2.39,1.44,1.44,0,0,0,.32.13c.54.11,1-.31,1.19-1.08q1.05-5.65,2.12-11.29A2.43,2.43,0,0,0,632.36,618.86Z"/>
    <path d="M639.36,630.29l-4.45,8.15" style="fill: #f8d80e"/>
    <path d="M638.36,629l-4.45,8.15a2.51,2.51,0,0,0,.29,2.57,1.3,1.3,0,0,0,.71.49.92.92,0,0,0,1-.54q2.24-4.07,4.45-8.15a2.51,2.51,0,0,0-.28-2.56C639.53,628.29,638.75,628.31,638.36,629Z"/>
    <path d="M641.6,653l-6.42-6.43" style="fill: #f8d80e"/>
    <path d="M642.19,651.49q-3.21-3.21-6.43-6.43a.94.94,0,0,0-1.66.37,2.52,2.52,0,0,0,.5,2.54l6.42,6.44a1.36,1.36,0,0,0,.58.34,1,1,0,0,0,1.09-.71A2.59,2.59,0,0,0,642.19,651.49Z"/>
    <path d="M643.6,643.5l-7.37-.6" style="fill: #f8d80e"/>
    <path d="M643.49,641.68l-7.37-.59c-.68-.06-1.18.71-1.11,1.71a2,2,0,0,0,1.22,1.9h.12l7.37.6c.68.06,1.17-.71,1.11-1.71S644.15,641.72,643.49,641.68Z"/>
    <path d="M634.1,657l-.51-9.57" style="fill: #f8d80e"/>
    <path d="M633.5,645.62c-.68-.07-1.19.69-1.13,1.69q.24,4.79.5,9.57a2,2,0,0,0,1.23,1.92l.09,0c.68.07,1.19-.68,1.13-1.69q-.24-4.78-.5-9.57C634.77,646.56,634.19,645.7,633.5,645.62Z"/>
    <path d="M631.4,645.6l-6.09,5.23" style="fill: #f8d80e"/>
    <path d="M630.67,644l-6.09,5.22a2.23,2.23,0,0,0-.26,2.46,1.55,1.55,0,0,0,1,.94.8.8,0,0,0,.73-.19l6.09-5.22a2.24,2.24,0,0,0,.26-2.45C632,643.87,631.21,643.53,630.67,644Z"/>
    <path d="M602.13,589.58v11.19" style="fill: #f8d80e"/>
    <path d="M602.13,587.78c-.68-.15-1.23.54-1.23,1.53V600.5a2.07,2.07,0,0,0,1.23,2.07c.68.14,1.23-.54,1.23-1.53v-11.2A2.06,2.06,0,0,0,602.13,587.78Z"/>
    <path d="M617.61,604.82v12.7" style="fill: #f8d80e"/>
    <path d="M617.61,603c-.68-.14-1.24.54-1.23,1.53v12.7a2.07,2.07,0,0,0,1.23,2.07c.68.15,1.23-.54,1.23-1.53v-12.7A2.08,2.08,0,0,0,617.61,603Z"/>
    <path d="M609.87,597.21v11.92" style="fill: #f8d80e"/>
    <path d="M609.87,595.41c-.68-.15-1.23.54-1.23,1.53v11.93a2.06,2.06,0,0,0,1.23,2.06c.68.15,1.23-.54,1.23-1.53V597.47A2.06,2.06,0,0,0,609.87,595.41Z"/>
    <path d="M609.47,913.6,592.62,910V895.47l-12.38-2.65v29q21.27,4.53,42.53,9.19V902l-13.3-2.89Z" style="fill: #f8d80e"/>
    <path d="M580.24,881.92l12.38,2.65V870.09q8.43,1.8,16.85,3.64v14.48l13.3,2.9V862.25q-21.27-4.63-42.53-9.19Z" style="fill: #f8d80e"/>
    <path d="M608.24,911.53l-14.39-3.11V893.94q-7.41-1.61-14.84-3.18v32.57q22.5,4.77,45,9.71V900.48L608.24,897Zm2.46-10.36,10.84,2.36v25.38q-20-4.36-40.07-8.65V894.88l9.92,2.12v14.49q9.66,2.07,19.31,4.17Z"/>
    <path d="M579,883.46l14.84,3.17V872.15l14.39,3.11v14.48L624,893.18V860.72q-22.49-4.9-45-9.72Zm2.46-28.34q20,4.27,40.07,8.66v25.27l-10.84-2.37V872.2L591.39,868v14.49l-9.92-2.12Z"/>
    <ellipse cx="628.89" cy="846.14" rx="8.68" ry="147.69" style="fill: #f8d80e"/>
    <path d="M621.51,950.75,636.26,954V741.52l-14.75-3.21ZM624,742.44l9.81,2.14V949.84L624,947.7Z"/>
    <ellipse cx="628.89" cy="849.73" rx="8.68" ry="127.23" transform="matrix(1, 0, 0, 1, -0.87, 0.64)" style="fill: #f8d80e"/>
    <path d="M621.51,939.87l14.75,3.22V759.59l-14.75-3.21ZM624,760.51l9.81,2.14V939L624,936.82Z"/>
    <path d="M628.88,675.13q-17.49,11-35,22l-6.84-1.46v15.94l6.84,1.47q17.5,18.6,35,37.25,17.5-11,35-22l6.84,1.48V713.86l-6.84-1.47Q646.38,693.79,628.88,675.13Zm0,59.75Q615.81,721,602.74,707.07q13.07-8.3,26.14-16.55L655,718.45Z" style="fill: #f8d80e"/>
    <path d="M600.23,706.53,628.89,737q14.33-9,28.65-18l-28.65-30.6Q614.55,697.45,600.23,706.53Zm28.66,26.23q-11.82-12.59-23.64-25.15,11.82-7.5,23.64-15,11.8,12.63,23.63,25.25Z"/>
    <path d="M628.89,673q-17.67,11.12-35.34,22.26l-7.76-1.66v19.62l7.76,1.67q17.67,18.76,35.34,37.61,17.65-11.12,35.33-22.26l7.76,1.67V712.29l-7.76-1.67Q646.55,691.84,628.89,673Zm40.57,54.69-5.92-1.28q-17.32,11-34.65,21.83-17.34-18.45-34.66-36.88l-5.92-1.28V697.83l5.92,1.27q17.32-11,34.66-21.84,17.33,18.47,34.65,36.89l5.92,1.28Z"/>
    <path d="M630.15,704.38c-4-.71-7.28-7.13-6.92-12.77,0-13.34,0-26.7,0-40,.22-5.39,3.78-9.07,7.5-7.71,1.54-.31,3.66,3.24,4.61.79,1.44-2.67-1-5.54-2.38-7.49a36.38,36.38,0,0,0-4.61-1.12h0c-6-.07-10.4,7.55-10.08,16.26,0,13.44,0,26.86,0,40.31.31,8.72,5.49,17.6,11.5,19,4.88,1.74,9.79-1.36,11.84-7.41l-4.23-4.62C636.37,703.59,633.22,705.54,630.15,704.38Z" style="fill: #f8d80e"/>
    <path d="M642.61,653.19h0c-1,2.47-3,3.63-4.61,4.68v27l4.92,5.23c0-11.52,0-23,0-34.55A9.49,9.49,0,0,0,642.61,653.19Z" style="fill: #f8d80e"/>
    <path d="M644.18,677.1q0-10.64,0-21.29c0-.1,0-.19,0-.28s0-.36,0-.57a6.78,6.78,0,0,0-.48-2.65l-1.19-2.57-.93,2.35c-.74,1.87-2.36,2.91-3.79,3.83l-1,.63v29.11l7.44,7.91v-3.2C644.17,686,644.18,681.52,644.18,677.1Zm-2.52,9.53-2.4-2.55V659.19a14.9,14.9,0,0,0,2.38-1.8q0,9.58,0,19.16C641.66,679.91,641.65,683.27,641.66,686.63Z"/>
    <path d="M636.28,698.67c-.87,3.2-3.45,4.89-6,3.92l-.08,0h-.09c-1.47-.28-2.88-1.48-4-3.44a13.46,13.46,0,0,1-1.65-7.21q0-7.67,0-15.34c0-8.09,0-16.46,0-24.58a7.93,7.93,0,0,1,2-5.21,3.78,3.78,0,0,1,4.11-1.08l.24.09.24,0c.25,0,.82.35,1.27.66,1,.68,3,2.08,4.07-.52,1.88-3.64-.89-7.47-2.22-9.32l-.71-1-.36-.15a14.41,14.41,0,0,0-3-.8c-.57-.11-1.14-.21-1.7-.36l-.11,0h-.11c-6.41-.09-11.52,8.13-11.16,17.84,0,5.08,0,10.16,0,15.24,0,8.21,0,16.71,0,25.16.35,9.87,6.19,19.49,12.64,21a8.54,8.54,0,0,0,1.17.33c5,1.1,9.81-2.26,11.94-8.53.15-.46.31-.93.47-1.39l-6.5-7.11C636.63,697.37,636.46,698,636.28,698.67Zm3.74,5.85c-2.06,4.49-6.13,6.69-10.16,5.25-5.27-1.22-10-9-10.25-16.9-.05-8.35-.05-16.84,0-25,0-5.08,0-10.17,0-15.35-.3-7.91,3.76-14.54,8.89-14.56.56.14,1.15.25,1.73.36a15.14,15.14,0,0,1,2.3.55l.18.25c2,2.73,2.11,3.5,1.68,4.29l-.1.3a3.75,3.75,0,0,1-1.08-.61,4.31,4.31,0,0,0-2.49-1.06,5.53,5.53,0,0,0-5.78,1.6,11.69,11.69,0,0,0-2.89,7.69c0,8.23,0,16.61,0,24.72,0,5.11,0,10.22,0,15.16a18.78,18.78,0,0,0,2.32,10.05c1.56,2.76,3.62,4.59,5.8,5,3.17,1.15,6.27-.47,7.88-3.93Z"/>
    <path d="M592.6,367.11c24.06,5.17,48.12,10.49,72.18,15.67V191.4c-24.06-5.18-48.12-10.5-72.18-15.67Z"/>
    <path d="M587.55,334.88q11.46,2.44,22.92,4.94v-47.5c0-11,4.8-25.13,19.53-21.91s19.53,19.46,19.53,30.42v47.5q11.46,2.49,22.92,4.95V193.14c-28.3-6.07-56.6-12.35-84.9-18.41Zm59.14-118.56,7.15,1.55V258l-7.15-1.55Zm-20.23-15.19,7.08,1.54v54.81l-7.08-1.55Zm-20.3,6.36,7.15,1.56v40.09l-7.15-1.56Z" style="fill: #da000c"/>
    <path d="M655.07,216.34l-9.61-2.09v43.69l9.61,2.09Zm-2.46,39.56-4.69-1v-36.5l4.69,1Z"/>
    <path d="M586.32,336.41q12.69,2.71,25.38,5.48v-49.3c0-19.24,11.5-21.87,18.3-20.39s18.3,9.12,18.3,28.36v49.3q12.69,2.76,25.38,5.48V191.6c-29.12-6.23-58.24-12.7-87.36-18.93Zm2.46-159.62c27.48,5.89,55,12,82.44,17.88V351.22Q661,349,650.76,346.8V301.1c0-10.39-4.37-28.91-20.76-32.49s-20.76,13.06-20.76,23.44v45.71q-10.23-2.22-20.46-4.42Z"/>
    <path d="M634.77,201.14l-9.54-2.08v58.4l9.54,2.08Zm-2.46,54.27-4.62-1V203.19l4.62,1Z"/>
    <path d="M614.54,207.52l-9.61-2.09v43.68l9.61,2.09Zm-2.46,39.55-4.69-1V209.56l4.69,1Z"/>
    <path d="M579.78,172.85c33.48,7.11,67,14.6,100.44,21.72v-22.8c-33.48-7.12-67-14.6-100.44-21.72Z" style="fill: #da000c"/>
    <path d="M578.55,174.38c34.3,7.28,68.6,15,102.9,22.25v-26.4c-34.3-7.28-68.6-15-102.9-22.24ZM581,152.11c32.66,6.95,65.32,14.24,98,21.2v19.2c-32.66-6.95-65.32-14.25-98-21.2Z"/>
    <path d="M674.68,158.69q-8.46-1.81-16.92-3.65V140.45l-19.3-4.2v14.6l-16.92-3.69v-14.6l-19.3-4.19V143l-16.92-3.65V124.73l-15-3.19v26.51c39.79,8.37,79.57,17.35,119.36,25.72v-26.5l-15-3.18Z" style="fill: #da000c"/>
    <path d="M673.45,156.63c-4.82-1-9.64-2.07-14.46-3.12v-14.6q-10.87-2.34-21.76-4.73v14.6l-14.46-3.15V131L601,126.3v14.6l-14.46-3.11v-14.6q-8.73-1.86-17.46-3.7v30.1c40.61,8.52,81.21,17.71,121.82,26.24v-30.1q-8.73-1.83-17.46-3.7Zm2.46-10.48,12.54,2.65v22.92c-39-8.21-77.93-17-116.9-25.21V123.6l12.54,2.66v14.6L603.47,145v-14.6l16.84,3.66v14.6l19.38,4.22v-14.6L656.53,142v14.59q9.69,2.1,19.38,4.18Z"/>
    <path d="M548.17,396.71c54.55,11.1,109.11,23.79,163.66,34.9V415.1C657.28,404,602.72,391.3,548.17,380.2Z" style="fill: #da000c"/>
    <path d="M546.94,398.25c55.37,11.25,110.75,24.16,166.12,35.4v-20.1c-55.37-11.25-110.75-24.15-166.12-35.4Zm2.46-16c53.73,11,107.47,23.43,161.2,34.39v12.92c-53.73-11-107.47-23.44-161.2-34.4Z"/>
    <path d="M701.75,380q-11.14-2.31-22.3-4.68V354.66q-15-3.18-29.92-6.44v20.67q-19.53-4.25-39.06-8.51V339.71q-15-3.25-29.92-6.44v20.66q-11.14-2.37-22.3-4.68V328.59q-8.38-1.74-16.77-3.43v53.69c59,11.86,118,25.74,177,37.6V362.77q-8.38-1.68-16.77-3.42Z" style="fill: #da000c"/>
    <path d="M700.52,378q-9.91-2.06-19.84-4.17V353.13q-16.18-3.45-32.38-7v20.66l-36.6-8V338.18q-16.2-3.51-32.38-7v20.66q-9.92-2.1-19.84-4.16V327q-9.62-2-19.23-3.92v57.27c59.83,12,119.67,26.1,179.5,38.1V361.22q-9.62-1.94-19.23-3.92ZM703,361.4q7.15,1.47,14.31,2.92v50.09C659.1,402.68,600.9,389,542.71,377.3V327.21q7.15,1.44,14.31,2.92v20.66q12.38,2.56,24.76,5.2V335.33q13.72,2.93,27.46,5.91V361.9L650.76,371V350.29q13.74,3,27.46,5.91v20.66q12.38,2.64,24.76,5.2Z"/>
    <path d="M562.79,595q15.8,3.29,31.6,6.7V528.61c0-34.44,15.74-47.26,35.61-42.92,19.09,4.18,35.61,23.95,35.61,58.39v73.11q15.79,3.4,31.6,6.7V428.6c-44.81-9.34-89.61-19.55-134.42-28.88Z" style="fill: #da000c"/>
    <path d="M697.21,426.8c-44.81-9.33-89.61-19.55-134.42-28.88-.68-.14-1.23.55-1.23,1.54v195.3a2,2,0,0,0,1.23,2q15.8,3.3,31.6,6.71c.68.14,1.23-.54,1.23-1.53V528.88c0-30.6,12.85-46.09,34.38-41.39,25.35,5.53,34.38,32.7,34.38,56.32v73.11a2.05,2.05,0,0,0,1.23,2.06q15.79,3.4,31.6,6.71c.68.14,1.23-.55,1.23-1.54V428.85A2,2,0,0,0,697.21,426.8Zm-1.23,195q-14.57-3-29.14-6.18V544.34c0-31.86-14.46-55.55-36.84-60.44-22.72-5-36.84,12.09-36.84,44.45v71.31q-14.56-3.13-29.14-6.19V401.77C608,411,652,421,696,430.14Z"/>
  </g>
</svg>
