<svg xmlns="http://www.w3.org/2000/svg" viewBox="0 0 1260 1012.04">
  <g>
    <path d="M0,90.08v920C420,738.76,840,1193.28,1260,922V2C840,273.28,420-181.24,0,90.08Z" style="fill: #fff"/>
    <path d="M490,784.15c-77.32-14.32-147.32-53.07-198-106.95-50.67-54.29-82-123.7-82-209C140,479.8,70,504.86,0,550.08v460C420,738.76,840,1193.28,1260,922V462c-163.33,105.51-326.67,101.25-490,72.6,0,84.48-31.34,156.22-82,200.77C637.32,780.31,567.32,798.08,490,784.15Z" style="fill: #d00c33"/>
    <path d="M490,170.81c-77.32-14.31-147.32,15.58-198,72.7-50.67,56.7-82,140.62-82,224.67,186.67-31,373.33,33.64,560,66.39,0-84.89-31.34-166.48-82-232.92C637.32,235.62,567.32,184.74,490,170.81Z" style="fill: #d00c33"/>
  </g>
</svg>
