<svg xmlns="http://www.w3.org/2000/svg" viewBox="0 0 1260 1012.04">
  <g>
    <path d="M0,90.08v920C420,738.76,840,1193.28,1260,922V2C840,273.28,420-181.24,0,90.08Z" style="fill: #3a7728"/>
    <path d="M0,90.08V652.3C420,381,840,835.51,1260,564.19V2C840,273.28,420-181.24,0,90.08Z" style="fill: #0c1c8c"/>
    <path d="M0,90.08V396.74C420,125.43,840,580,1260,308.63V2C840,273.28,420-181.24,0,90.08Z" style="fill: #ce1126"/>
    <path d="M0,422.3C420,151,840,605.51,1260,334.19m0,255.56C840,861.06,420,406.54,0,677.85"/>
    <path d="M0,447.85c420-271.31,840,183.21,1260-88.1V308.63C840,580,420,125.43,0,396.74Z" style="fill: #fff"/>
    <path d="M0,703.41C420,432.1,840,886.62,1260,615.3V564.19C840,835.51,420,381,0,652.3Z" style="fill: #fff"/>
  </g>
</svg>
