<svg xmlns="http://www.w3.org/2000/svg" viewBox="0 0 1260 1012.04">
  <g>
    <path d="M0,90.08v920C420,738.76,840,1193.28,1260,922V2C840,273.28,420-181.24,0,90.08Z"/>
    <path d="M0,90.08V397.13C420,125.81,840,580.33,1260,309V2C840,273.28,420-181.24,0,90.08Z" style="fill: #002488"/>
    <path d="M399.35,492.73c-5.77-1-19.18-6.45-29.56-11.58s-19.13-8.74-19.69-8.18c-2,2.06-1.42,2.44,21.48,16.49,19.09,11.48,73.53,36.62,73.59,32.74C445.52,517.58,409.52,494.05,399.35,492.73Z" style="fill: green"/>
    <path d="M421.12,483a1.07,1.07,0,0,0,.87-1l-2.42-.52Z" style="fill: green"/>
    <path d="M419.57,481.48,422,482c.11-2-3.53-6.95-11.81-18.18-8.56-10.79-19.83-26.81-25.67-35.4s-10.89-14.1-10.89-12.4c0,4.67,15.17,38.28,24.11,52.87a36.89,36.89,0,0,0,8.64,10q4.17.72,8.66,1.62C413.84,476.28,415,477,419.57,481.48Z" style="fill: green"/>
    <path d="M415.72,482.8c-.27-.85-.51-1.62-.69-2.25q-4.48-.9-8.66-1.62a18.07,18.07,0,0,0,8.86,3.81Z" style="fill: green"/>
    <path d="M370.6,475.64c-1.15.05-2.24.12-3.24.22,1.52,1.69,2.69,2.71,3.34,2.76S371.27,477.57,370.6,475.64Z" style="fill: green"/>
    <path d="M341.41,511.14c9.16,2.18,17.62,4.56,24.64,6.87-6.88-5-14.05-10.35-21-15.67-5.08-.83-14.58-3.44-23.08-6A238.19,238.19,0,0,0,341.41,511.14Z" style="fill: green"/>
    <path d="M360.73,477.26q-3.63-4.62-7.27-9.21c-18.28-22.86-46.28-64.77-55.22-82.77-9.73-19.8-10.89-14.61-2.73,10.72,3.11,10.14,15.56,30.36,27.61,45C335.18,456.13,343,468.87,341,468.78c-5.05-.32-37.72-43.29-61.05-78.6-25.28-38.64-26.44-39.43-19.44-17.95,3.5,10.38,11.27,25.61,17.88,33.81,6.23,8.64,10.11,15.77,8.17,15.84-3.89.16-21-20.56-42.39-49-5.83-8.36-14-18.84-17.5-23.47-3.88-5-1.16,1.84,5.84,15,12,23.09,61,77.39,88.27,100.47,7.39,6,20.61,12.35,28.78,14,2.83.61,5.67,1.24,8.5,1.88a4.65,4.65,0,0,1-.11-.59C358,479,358.92,478,360.73,477.26Z" style="fill: green"/>
    <path d="M360.73,477.26c-1.81.75-2.77,1.74-2.77,3a4.65,4.65,0,0,0,.11.59q3.33.75,6.66,1.53Q362.73,479.8,360.73,477.26Z" style="fill: green"/>
    <path d="M438.6,485.36c0,.18.13.4.18.6,1.62.41,3.16.82,4.58,1.21.47-.6-.77-2.53-3.57-6.42C437.82,479.28,438,481,438.6,485.36Z" style="fill: green"/>
    <path d="M438.6,485.36c-.57-4.39-.78-6.08,1.19-4.61l-.56-.77c-9.72-13.79-30.72-61.47-30.72-70,0-4.69-1.94-8.32-4.27-8.57-2.73-.29-3.51,3.89-1.95,10.88,5.18,23.19,25.8,66.42,34.51,73.12l2,.5C438.73,485.76,438.63,485.54,438.6,485.36Z" style="fill: green"/>
    <path d="M415,480.55c.18.63.42,1.4.69,2.25,2.58.3,4.41.49,5.4.18l-1.55-1.5C418,481.15,416.52,480.84,415,480.55Z" style="fill: green"/>
    <path d="M443.36,487.17c1.55.43,3,.84,4.27,1.24-.34-.32-.73-.66-1-1a82.19,82.19,0,0,0-6.81-6.71C442.59,484.64,443.84,486.57,443.36,487.17Z" style="fill: green"/>
    <path d="M438.93,486.49c-.06-.18-.11-.36-.15-.53l-2-.5a4.82,4.82,0,0,0,1.27.75Z" style="fill: green"/>
    <path d="M438.93,486.49c2.6.81,4.05,1.16,4.43.68-1.42-.39-3-.8-4.58-1.21C438.82,486.13,438.87,486.31,438.93,486.49Z" style="fill: green"/>
    <path d="M415,480.55c1.49.29,3,.6,4.54.93C415,477,413.84,476.28,415,480.55Z" style="fill: green"/>
    <path d="M380.9,528.75l.84.3c-.53-.36-1.06-.7-1.6-1.08l-.52.34C380.05,528.46,380.5,528.6,380.9,528.75Z" style="fill: green"/>
    <path d="M447.63,488.41c-1.31-.4-2.72-.81-4.27-1.24-.38.48-1.83.13-4.43-.68.71,2.11,2.65,4.78,5.47,7.59a87.64,87.64,0,0,0,10.84.68C452.22,492.43,449.6,490.25,447.63,488.41Z" style="fill: green"/>
    <path d="M301.59,473.16c.11.18.25.37.37.55C302.15,473.49,302,473.31,301.59,473.16Z" style="fill: green"/>
    <path d="M472.2,506.38a177.3,177.3,0,0,1-17-11.62,87.64,87.64,0,0,1-10.84-.68,62.43,62.43,0,0,0,10.41,8.25c8.44,5.58,19.22,10.74,24.66,11.87C485.9,515.54,484.19,513.48,472.2,506.38Z" style="fill: green"/>
    <path d="M348.69,515.9c4.29,2.75,8.21,5.45,11.65,8a127.87,127.87,0,0,1,19.28,4.46l.52-.34c-4.4-3-9.16-6.38-14.09-10-7-2.31-15.48-4.69-24.64-6.87C343.86,512.81,346.3,514.42,348.69,515.9Z" style="fill: green"/>
    <path d="M372.32,533.6a75,75,0,0,1,7.3-5.29,127.87,127.87,0,0,0-19.28-4.46A111.15,111.15,0,0,1,372.32,533.6Z" style="fill: green"/>
    <path d="M399.07,523.65a14.19,14.19,0,0,0-2.4-.62C396.76,523.77,397.52,524,399.07,523.65Z" style="fill: green"/>
    <path d="M396.67,523a14.19,14.19,0,0,1,2.4.62,29,29,0,0,0,4.54-1.52q-2.4-1.61-4.75-3.23l-.15.05a10.53,10.53,0,0,0-1,1.37A5.11,5.11,0,0,0,396.67,523Z" style="fill: green"/>
    <path d="M396.67,523a5.11,5.11,0,0,1,1-2.71,10.53,10.53,0,0,1,1-1.37,68.16,68.16,0,0,0-6.72,2.63c.71.54,1.4,1,2.1,1.56A5.37,5.37,0,0,1,396.67,523Z" style="fill: green"/>
    <path d="M427,510.2c-.59.57-2.95-.31-6.2-2a28.6,28.6,0,0,0-6.3,1.35,42.23,42.23,0,0,0-11.33,5.55c2.25,1.46,4.57,2.93,6.94,4.42,6.92-2.43,15.32-3.85,20.26-3.66,10.88.87,10.88.9,4-4.8a15.18,15.18,0,0,0-7.64-2.81C427.23,509.12,427.4,509.82,427,510.2Z" style="fill: green"/>
    <path d="M260.09,484.94l-3-1.8C255.11,485.33,255.69,485.83,260.09,484.94Z" style="fill: green"/>
    <path d="M261.64,463.5c1.54.41,3.07.83,4.6,1.26l-1.82-1.12A15.94,15.94,0,0,0,261.64,463.5Z" style="fill: green"/>
    <path d="M272.07,466.09a31.43,31.43,0,0,0-7.65-2.45l1.82,1.12c2.93.82,5.84,1.67,8.7,2.54C274.16,467,273.21,466.55,272.07,466.09Z" style="fill: green"/>
    <path d="M398.79,518.85l-.08.1.15-.05Z" style="fill: green"/>
    <path d="M342.2,593.76q-5.07,8.41-10.12,16.89,6.51-6.6,13-13.09c1.5-1.54,3-2.9,4.41-4.19-.75-2.52-1.38-5-1.83-7.3A60.78,60.78,0,0,0,342.2,593.76Z" style="fill: green"/>
    <path d="M446.9,586.46c0-3.85-18.38-4.36-32.75-1.14A118.49,118.49,0,0,1,426,592.59C437.92,589.77,446.9,587.2,446.9,586.46Z" style="fill: green"/>
    <path d="M349.76,594.3q3.08,9.81,6.14,19.65l-1.71-19.66c-.15-1.54-.26-3-.35-4.46-1.44,1-2.88,2.24-4.34,3.54C349.59,593.68,349.66,594,349.76,594.3Z" style="fill: green"/>
    <path d="M401.59,589.47c-24.31,10.11-32.45,22.48-32.08,45.2l.39,20.49q2-9.45,3.89-18.9c4.78-24.56,13.75-33.89,41.33-41.09-2.47-1-5.07-2.15-7.75-3.31Q404.37,590.57,401.59,589.47Z" style="fill: green"/>
    <path d="M401.59,589.47q2.78,1.1,5.78,2.39c2.68,1.16,5.28,2.27,7.75,3.31,1.59-.42,3.22-.82,4.95-1.22,2-.45,4-.91,5.9-1.36a118.49,118.49,0,0,0-11.82-7.27,55.31,55.31,0,0,0-8.86,2.67C404,588.47,402.79,589,401.59,589.47Z" style="fill: green"/>
    <path d="M353.84,589.83c12.8-9.37,25.16-9.26,47.75-.36,1.2-.5,2.41-1,3.7-1.48a55.31,55.31,0,0,1,8.86-2.67,83.46,83.46,0,0,0-16.85-7.12c-20.53-6.05-33.51-5.48-43.52,2A79.65,79.65,0,0,0,353.84,589.83Z" style="fill: green"/>
    <path d="M415.12,595.17c11.25,4.72,19.8,7.92,20.15,7.39,1-1.54-3.07-5.58-9.3-10-1.9.45-3.87.91-5.9,1.36C418.34,594.35,416.71,594.75,415.12,595.17Z" style="fill: green"/>
    <path d="M395.13,565.68c9.33-.36,15.55-2.62,14.39-4.89-3.12-5.76-15.56-5.95-50.17,2.49l-1.47.36a40.14,40.14,0,0,0-2.8,7.81A300,300,0,0,1,395.13,565.68Z" style="fill: green"/>
    <path d="M234.63,457.26c-16.34-3.59-32.67.56-41.61,10-4.67,4.75-9.73,14.8-10.89,22.3-2.33,12.89-2.33,12.87,3.89,3.43,16.33-25.87,17.5-27,37.72-30.5C240.07,459.9,242.41,459,234.63,457.26Z" style="fill: green"/>
    <path d="M390.68,476.43c3.11-1-3.89-14.1-19.06-35.27-13.61-18.49-25.28-34.31-26.44-35.63s3.11,8.21,9.33,20.9C369.29,457,384.46,478,390.68,476.43Z" style="fill: green"/>
    <path d="M269.68,444.26c18.28,12.44,34.22,23,35,22.12S283.1,441.67,259.76,420c-23.33-22-47.63-41.9-50.74-42.55-2.34-.45,2.72,9.29,11.66,22C232,416.25,244.79,427.62,269.68,444.26Z" style="fill: green"/>
    <path d="M458,514.7c14.12,3.34,7.65-4.47-12.09-15.25a123.81,123.81,0,0,1-11.58-6.68c-4.69-.69-10-1.55-15.87-2.58C424.09,501.14,438.78,509.91,458,514.7Z" style="fill: green"/>
    <path d="M416.45,613.5c-4.66-.56-11.66,3.78-16.33,10.55-4.66,6.34-8.17,15-8.17,19.66,0,5.55,1.95,4.44,7.39-4.81,4.28-7.25,11.67-15.39,16.34-18.67C424.62,614.49,424.62,614.49,416.45,613.5Z" style="fill: green"/>
    <path d="M347.67,586.07a37.69,37.69,0,0,1,6.11-5.86,49.76,49.76,0,0,1,1.3-8.76c-2.86.63-5.57,1.29-8.18,2A47.45,47.45,0,0,0,347.67,586.07Z" style="fill: green"/>
    <path d="M251.81,444.43A.5.5,0,0,0,252,444a246.91,246.91,0,0,0-35.57-15.53C228.67,436.44,249.35,446.75,251.81,444.43Z" style="fill: green"/>
    <path d="M252,444a.51.51,0,0,1-.14.44c-2.46,2.32-23.14-8-35.43-16A96,96,0,0,0,206,425.54c-24.11-5-24.89-4.35-24.89-1.49,0,.85,8.17,3.7,18.28,6.94s22.17,9.09,26.44,12.79c2.86,2.57,10.2,5.71,18.27,8.59,9.68,1.77,19.55,3.92,29.19,6.35C274.24,457.2,264.64,450.71,252,444Z" style="fill: green"/>
    <path d="M347.67,586.07c.45,2.34,1.08,4.78,1.83,7.3,1.46-1.3,2.9-2.49,4.34-3.54a79.65,79.65,0,0,1-.06-9.62A37.69,37.69,0,0,0,347.67,586.07Z" style="fill: green"/>
    <path d="M359.49,455.28c-18.82-29.17-21.62-32.06-21.62-27.42,0,5.39,20.68,38.07,29.49,48,1-.1,2.09-.17,3.24-.22C369.19,471.63,365.17,464,359.49,455.28Z" style="fill: green"/>
    <path d="M227.73,465.41c-4.73-2.63-1.58,1,6.7,8.15l4-1.92C234.09,469.05,230.14,466.81,227.73,465.41Z" style="fill: green"/>
    <path d="M297,465.33c1.93.59,3.84,1.19,5.71,1.79C297.67,462.77,295.8,462.35,297,465.33Z" style="fill: green"/>
    <path d="M192,400c-22.26-9.2-23-8.76-23.5-5.81-.13.88,7.17,5.22,16.31,10.24s19.81,12.94,23.35,17.37c1.42,1.86,4.41,4.2,8.18,6.69A246.91,246.91,0,0,1,252,444C251.76,438.82,210.06,406.81,192,400Z" style="fill: green"/>
    <path d="M306.85,611c3.11,10.21,3.11,9.79,3.5-3.43.39-7.25,3.89-17.5,7.78-21.74,3.67-4,14.13-8.55,28.77-12.38a38.69,38.69,0,0,1,1.31-7.3C304.48,578.37,299.64,586.47,306.85,611Z" style="fill: green"/>
    <path d="M447.63,488.41c2,1.84,4.59,4,7.61,6.35C461.87,494.6,460,492.24,447.63,488.41Z" style="fill: green"/>
    <path d="M346.9,573.42c2.61-.68,5.32-1.34,8.18-2a40.14,40.14,0,0,1,2.8-7.81q-5.13,1.26-9.67,2.48A38.69,38.69,0,0,0,346.9,573.42Z" style="fill: green"/>
    <path d="M218.35,524.6c.39,8.47.39,8.47,2.33-.35,3.5-16.2,9.33-20.77,31.5-22.94a173.22,173.22,0,0,1,24.72,0c-4.76-2.64-9.34-5.23-13.62-7.73C224.16,501.6,217.57,507.55,218.35,524.6Z" style="fill: green"/>
    <path d="M255.29,527c-16.72,5.76-25.66,13.49-25.66,21.13,0,3,1.55,2.35,3.5-1.3,3.11-6.2,35-19.39,38.11-15.91.78.81-.39,7.27-2.72,13.82s-3.11,13-1.95,14.21c1.17,1.62,3.11-1.92,4.28-6.68,4.67-18.49,19-25.46,53.67-21.7,4.05.46,8.2,1,12.27,1.51-7.57-3.51-15.84-7.59-24.29-11.9C289.15,520.17,266.61,523,255.29,527Z" style="fill: green"/>
    <path d="M344.07,536.21c-6.22.15-21.39,4-33.06,8.76-25.66,11.33-31.11,15.83-31.11,21.7,0,2.56,2.73,2,7-2,3.5-4,16.34-9.51,28-12.44s25.67-7.66,31.11-10.39l6-3.12c-1.86-.74-3.82-1.54-5.85-2.41Z" style="fill: green"/>
    <path d="M404.25,521.87c2.05-1.7,3.21-2.84,3.12-3.13-.46-1.61-3.85-1.33-8.51.16q2.36,1.62,4.75,3.23Z" style="fill: green"/>
    <path d="M271.64,491.92q-5.5-3.3-11.55-7c-4.4.89-5,.39-3-1.8l-5-3c-1.09-.72-2.23-1.46-3.4-2.2a35.67,35.67,0,0,1-8.1.91c5.47,4.31,13.35,9.32,22.62,14.74l.18,0C266.23,492.94,269,492.4,271.64,491.92Z" style="fill: green"/>
    <path d="M271.64,491.92c-2.67.48-5.41,1-8.18,1.62l-.18,0c4.28,2.5,8.86,5.09,13.62,7.73,4,.23,8.19.57,12.52,1C284.29,499.44,278.28,495.9,271.64,491.92Z" style="fill: green"/>
    <path d="M234.43,473.56q-4.52,2.16-9,4.39,5.82.26,11.66.64a24.58,24.58,0,0,0,3.59.25c-.9-.72-1.76-1.42-2.52-2.09Q236.15,475.06,234.43,473.56Z" style="fill: green"/>
    <path d="M302,473.71c.8,1.16,1.69,2.42,2.65,3.77,6.84,2.64,13.13,5.29,18.71,7.84-6.37-5.18-11.77-9.8-15.45-13.38-2-2-3.72-3.55-5.18-4.82-1.87-.6-3.78-1.2-5.71-1.79a47.69,47.69,0,0,0,4.61,7.83C302,473.31,302.15,473.49,302,473.71Z" style="fill: green"/>
    <path d="M348,522.16c-6.41-4.2-13.57-9-21-14.18-7.92-1.58-16.05-3-24-4.05,4.2,3.4,6.45,5.95,5.23,6.45-1.86.76-8.67-2.39-18.8-8.07-4.34-.43-8.54-.77-12.52-1,11.3,6.25,23.64,12.8,35.6,18.91A316,316,0,0,1,348,522.16Z" style="fill: green"/>
    <path d="M368.7,536.87l1-1c.16-.16.36-.32.54-.48-4.56-2-12.55-6.89-22.28-13.26a316,316,0,0,0-35.49-1.94c8.45,4.31,16.72,8.39,24.29,11.9,13.52,1.78,26.11,3.92,30.89,4.58Z" style="fill: green"/>
    <path d="M346.13,536.3c2,.87,4,1.67,5.85,2.41l3.76-2C352.53,536.59,349.33,536.43,346.13,536.3Z" style="fill: green"/>
    <path d="M264.42,463.64a31.43,31.43,0,0,1,7.65,2.45c1.14.46,2.09.86,2.87,1.21,5.64,1.7,11.13,3.49,16.41,5.32,5.82,0,9.12.17,10.24.54a47.69,47.69,0,0,1-4.61-7.83c-7.58-2.33-15.57-4.57-23.73-6.61,0,0,0,0,0,.06-1.67,2.17-16.36-1.89-29.18-6.41-35.68-6.72-68.71-7.12-78.21-4.27-10.5,3.55-10.89,3.69-2.33,3.15,26.08-1.65,62.82,2.73,96.73,11.88C259.35,461.26,260.54,461.34,264.42,463.64Z" style="fill: green"/>
    <path d="M273.24,458.78s0,0,0-.06c-9.64-2.43-19.51-4.58-29.19-6.35C256.88,456.89,271.57,461,273.24,458.78Z" style="fill: green"/>
    <path d="M264.42,463.64c-3.88-2.3-5.07-2.38-4.17-.51l1.39.37A15.94,15.94,0,0,1,264.42,463.64Z" style="fill: green"/>
    <path d="M261.64,463.5l-1.39-.37a5.17,5.17,0,0,0,.24.46Z" style="fill: green"/>
    <path d="M255.35,475.43a36.75,36.75,0,0,1,10.5-4.35,74.34,74.34,0,0,1-5.36-7.49c-4.26.46-9.63,2.47-19.53,6.88l-2.49,1.17c3.35,2,6.94,4.16,10.29,6.29A22.2,22.2,0,0,0,255.35,475.43Z" style="fill: green"/>
    <path d="M270.9,470c1.08-.06,2-.13,2.83-.19-3-2.12-5.51-3.79-7.49-5.05-1.53-.43-3.06-.85-4.6-1.26l-1.15.09a74.34,74.34,0,0,0,5.36,7.49A46.57,46.57,0,0,1,270.9,470Z" style="fill: green"/>
    <path d="M248.76,477.93c-3.35-2.13-6.94-4.31-10.29-6.29l-4,1.92q1.71,1.5,3.71,3.19c.76.67,1.62,1.37,2.52,2.09A35.67,35.67,0,0,0,248.76,477.93Z" style="fill: green"/>
    <path d="M399.07,523.65c.63.23,1.28.49,1.95.81,1-.8,2-1.54,2.77-2.21l-.18-.12A29,29,0,0,1,399.07,523.65Z" style="fill: green"/>
    <path d="M403.61,522.13l.18.12.46-.38Z" style="fill: green"/>
    <path d="M396.67,523a5.37,5.37,0,0,0-2.58.11c1.52,1.13,3,2.22,4.43,3.23.88-.66,1.73-1.31,2.5-1.91-.67-.32-1.32-.58-1.95-.81C397.52,524,396.76,523.77,396.67,523Z" style="fill: green"/>
    <path d="M367.68,536.7c-4.78-.66-17.37-2.8-30.89-4.58q4.89,2.26,9.34,4.18c3.2.13,6.4.29,9.61.46l-3.76,2,2,.77a61,61,0,0,0,9.52,2.53c1.62-1.68,3.36-3.39,5.24-5.14Z" style="fill: green"/>
    <path d="M398.79,518.85l.07,0c4.66-1.49,8.05-1.77,8.51-.16.09.29-1.07,1.43-3.12,3.13.75-.31,1.53-.64,2.39-1,1.09-.48,2.27-.93,3.48-1.35-2.37-1.49-4.69-3-6.94-4.42A24.1,24.1,0,0,0,398.79,518.85Z" style="fill: green"/>
    <path d="M404.25,521.87l-.46.38c21.8,14.63,45,28.63,49.44,27.44,4.28-1-2.33-6.85-21-17.05-7.63-4.31-15.11-8.77-22.11-13.14-1.21.42-2.39.87-3.48,1.35C405.78,521.23,405,521.56,404.25,521.87Z" style="fill: green"/>
    <path d="M398.79,526.57c9.39,6.61,11.26,8.27-3.61,2.49a77.33,77.33,0,0,0,10.11,8.46c4.68,1.63,8.84,3,11.78,3.86a60.06,60.06,0,0,1,6.94,2.4c-.53-.44-1.09-.89-1.66-1.32-5.05-3.62-11.66-9.07-14.39-12.78a22.33,22.33,0,0,0-6.94-5.22c-.77.6-1.62,1.25-2.5,1.91Z" style="fill: green"/>
    <path d="M368.7,536.87c-1.88,1.75-3.62,3.46-5.24,5.14a92.54,92.54,0,0,0,11.78,1.49q2.1-1.72,4.46-3.49A54,54,0,0,0,368.7,536.87Z" style="fill: green"/>
    <path d="M375.24,543.5a52.09,52.09,0,0,0,9.86-.21l1.08-.14A44.48,44.48,0,0,0,379.7,540Q377.35,541.78,375.24,543.5Z" style="fill: green"/>
    <path d="M405.29,537.52c9.91,7.23,22.59,14.92,24.06,13.5,1-1-1.54-4.09-5.34-7.24a60.06,60.06,0,0,0-6.94-2.4C414.13,540.55,410,539.15,405.29,537.52Z" style="fill: green"/>
    <path d="M363.46,542c-8.06,8.39-13,16.12-15.25,24.11q4.55-1.23,9.67-2.48c3.36-6.95,8.92-13.27,17.36-20.14A92.54,92.54,0,0,1,363.46,542Z" style="fill: green"/>
    <path d="M429.35,551c-1.47,1.42-14.16-6.27-24.06-13.5-4.63-1.61-9.77-3.46-14.77-5.27l-1.94,1.38q5.79,3.87,11.57,7.82-7,.79-14,1.7c.62.38,1.2.75,1.72,1.13,10.11,6.63,49.39,11.9,45.89,5.62-.82-1.6-4.72-4-9.78-6.12C427.81,546.93,430.38,550,429.35,551Z" style="fill: green"/>
    <path d="M388.58,533.63l-3.6,2.53c-1.86,1.31-3.61,2.59-5.28,3.85a44.48,44.48,0,0,1,6.48,3.14q7-.9,14-1.7Q394.38,537.51,388.58,533.63Z" style="fill: green"/>
    <path d="M438.93,486.49l-.86-.28a4.82,4.82,0,0,1-1.27-.75c-1.21-.3-2.47-.6-3.79-.9-3.8-.94-7.47-1.78-11-2.56a1.07,1.07,0,0,1-.87,1c.05,0,.1.09.15.15a109.36,109.36,0,0,0,13.07,9.64c3.76.55,7.11,1,10.06,1.31C441.58,491.27,439.64,488.6,438.93,486.49Z" style="fill: green"/>
    <path d="M274.94,467.3c-2.86-.87-5.77-1.72-8.7-2.54,2,1.26,4.47,2.93,7.49,5.05C278.35,469.44,278.59,468.93,274.94,467.3Z" style="fill: green"/>
    <path d="M415.72,482.8l-.49-.06a18.07,18.07,0,0,1-8.86-3.81c-15.26-2.65-27.44-3.63-35.77-3.29.67,1.93.75,3,.1,3s-1.82-1.07-3.34-2.76a23.66,23.66,0,0,0-6.63,1.4q2,2.53,4,5.09-3.33-.78-6.66-1.53c.59,3.32,6.1,10.75,12.72,16.87s16.93,13.56,28,21.16a24.1,24.1,0,0,1,4.39-3.77c-19.43-12.6-33.56-23.72-33.56-28.13,0-2.39,6.45-2.94,21.47-1.14-2.71-5.9,7.17-4.11,13.43,1.95,3.06.5,6.31,1.06,9.82,1.7,1.41.26,2.78.5,4.13.73a23.51,23.51,0,0,1-1.25-2.82C416.62,485.57,416.12,484.07,415.72,482.8Z" style="fill: green"/>
    <path d="M421.12,483c-1,.31-2.82.12-5.4-.18.4,1.27.9,2.77,1.5,4.57a23.51,23.51,0,0,0,1.25,2.82c5.87,1,11.18,1.89,15.87,2.58a109.36,109.36,0,0,1-13.07-9.64C421.22,483.07,421.17,483,421.12,483Z" style="fill: green"/>
    <path d="M269.36,475.42a54.19,54.19,0,0,1,9.27-2.15c-1.77-1.26-3.4-2.42-4.9-3.46-.8.06-1.75.13-2.83.19a46.57,46.57,0,0,0-5,1.08l1.92,2.47C268.25,474.15,268.82,474.79,269.36,475.42Z" style="fill: green"/>
    <path d="M391.09,485.81c3.88.48,8.35,1.12,13.43,1.95C398.26,481.7,388.38,479.91,391.09,485.81Z" style="fill: green"/>
    <path d="M275,481.5c-2.06-2.09-4-4.13-5.62-6.08a26.66,26.66,0,0,0-9.23,4.79c-1.3,1.19-2.31,2.16-3,2.93l3,1.8c2-.39,4.65-1,8.2-1.91C270.34,482.58,272.63,482.06,275,481.5Z" style="fill: green"/>
    <path d="M302,473.71c-.12-.18-.26-.37-.37-.55-1.12-.37-4.42-.54-10.24-.54q3.7,1.29,7.25,2.6A10.7,10.7,0,0,0,302,473.71Z" style="fill: green"/>
    <path d="M278.63,473.27a54.19,54.19,0,0,0-9.27,2.15c1.66,1.95,3.56,4,5.62,6.08,3.71-.88,7.61-1.83,11.19-2.74C283.41,476.73,280.91,474.91,278.63,473.27Z" style="fill: green"/>
    <path d="M321.94,496.29c8.5,2.61,18,5.22,23.08,6-7.76-5.93-15.23-11.77-21.7-17-5.58-2.55-11.87-5.2-18.71-7.84,1.22,1.7,2.54,3.5,4,5.49C311.25,486.57,316.06,491.28,321.94,496.29Z" style="fill: green"/>
    <path d="M286.17,478.76c-3.58.91-7.48,1.86-11.19,2.74,2.88,2.9,6,5.83,9.19,8.53a110.92,110.92,0,0,1,16-1c-2.76-2-5.48-4-8.13-5.94C290,481.56,288,480.12,286.17,478.76Z" style="fill: green"/>
    <path d="M284.17,490c-3.89.46-8.11,1.09-12.53,1.89,6.64,4,12.65,7.52,17.78,10.39,4.41.44,9,1,13.57,1.62-2.08-1.68-4.64-3.57-7.5-5.51A88.93,88.93,0,0,1,284.17,490Z" style="fill: green"/>
    <path d="M304.61,477.48c-1-1.35-1.85-2.61-2.65-3.77a10.7,10.7,0,0,1-3.36,1.51Q301.67,476.35,304.61,477.48Z" style="fill: green"/>
    <path d="M278.63,473.27c2.28,1.64,4.78,3.46,7.54,5.49,3.65-.93,7-1.81,9.35-2.53,1.18-.38,2.21-.71,3.08-1q-3.54-1.31-7.25-2.6l-4,0A64.84,64.84,0,0,0,278.63,473.27Z" style="fill: green"/>
    <path d="M323.32,485.32c17.33,7.94,27.68,14.71,25.3,17-.32.35-1.64.3-3.6,0,7,5.32,14.15,10.68,21,15.67,1.95.65,3.8,1.29,5.52,1.91,5.12,2,9.58,3.68,13.44,5.18,2.36-1.3,4.71-2.5,7-3.52-16.07-12.11-35.8-28.14-39.87-33.13-2.94-3.78-23.19-12.91-49.43-21.33,1.46,1.27,3.18,2.86,5.18,4.82C311.55,475.52,317,480.14,323.32,485.32Z" style="fill: green"/>
    <path d="M385,525.1c-1.64.91-3.28,1.87-4.87,2.87.54.38,1.07.72,1.6,1.08l8.78,3.2L395,529Z" style="fill: green"/>
    <path d="M395.18,529.06c14.87,5.78,13,4.12,3.61-2.49l-.27-.2c-1.07.82-2.22,1.67-3.44,2.57Z" style="fill: green"/>
    <path d="M420.81,508.18c3.25,1.71,5.61,2.59,6.2,2,.39-.38.22-1.08-.31-2A26.87,26.87,0,0,0,420.81,508.18Z" style="fill: green"/>
    <path d="M284.17,490a88.93,88.93,0,0,0,11.32,8.39c2.86,1.94,5.42,3.83,7.5,5.51,7.94,1.09,16.07,2.47,24,4.05-8.83-6.09-18-12.57-26.82-18.93A110.92,110.92,0,0,0,284.17,490Z" style="fill: green"/>
    <path d="M393.57,526.91a10.07,10.07,0,0,0,1.51,2c1.22-.9,2.37-1.75,3.44-2.57-1.42-1-2.91-2.1-4.43-3.23C392.87,523.6,392.49,524.81,393.57,526.91Z" style="fill: green"/>
    <path d="M395,529l.07,0a10.07,10.07,0,0,1-1.51-2c-1.08-2.1-.7-3.31.52-3.77-.69-.52-1.39-1-2.1-1.56-2.27,1-4.62,2.22-7,3.52Z" style="fill: green"/>
    <path d="M395,529l.17.07-.1-.12Z" style="fill: green"/>
    <path d="M391.23,486.17c2.33,4.64,19.9,16.87,29.58,22a26.87,26.87,0,0,1,5.89.05c-1-1.74-3.59-4.22-6.69-6.58-5.05-3.61-11.66-9-14.39-12.75-.35-.4-.72-.77-1.1-1.14-5.08-.83-9.55-1.47-13.43-1.95C391.14,485.93,391.17,486,391.23,486.17Z" style="fill: green"/>
    <path d="M321.94,496.29c-7.66-2.36-14.49-4.74-16.48-6.23-.54-.58-2.44-.92-5.3-1,8.79,6.36,18,12.84,26.82,18.93,4.93,1,9.77,2,14.43,3.16A238.19,238.19,0,0,1,321.94,496.29Z" style="fill: green"/>
    <path d="M360.34,523.85c-3.87-.63-8-1.2-12.35-1.69,9.73,6.37,17.72,11.25,22.28,13.26.65-.61,1.33-1.21,2.05-1.82A111.15,111.15,0,0,0,360.34,523.85Z" style="fill: green"/>
    <path d="M381.74,529.05l-.84-.3c-.4-.15-.85-.29-1.28-.44a75,75,0,0,0-7.3,5.29c1.59,1.6,2.24,2.6,1.69,2.78s-1.91-.16-3.74-1c-.18.16-.38.32-.54.48l-1,1a54,54,0,0,1,11,3.14c1.67-1.26,3.42-2.54,5.28-3.85l3.6-2.53-3.28-2.2C384.16,530.69,383,529.87,381.74,529.05Z" style="fill: green"/>
    <path d="M374,536.38c.55-.18-.1-1.18-1.69-2.78-.72.61-1.4,1.21-2.05,1.82C372.1,536.22,373.39,536.58,374,536.38Z" style="fill: green"/>
    <path d="M385.3,531.43l3.28,2.2,1.94-1.38-8.78-3.2C383,529.87,384.16,530.69,385.3,531.43Z" style="fill: green"/>
    <path d="M798,788.85c-11-6.24-11.82-1.27-2.82,6.23,11.74,10,74.32,47,118.34,70.17,43.67,24.11,94.69,45.14,106.85,47.29,1.2-2.41,2.94-5.86,5.39-10.64-22.11-5.33-109.49-40.62-144.29-62.22C851.43,823.08,809,795.21,798,788.85Z" style="fill: green"/>
    <path d="M805.18,778.86c-11.14-5.79-11.8-.76-2.61,6.38,12,9.54,75.42,43.84,120.1,64.79,44.34,22,96.12,40.09,108.4,41.51,1.13-2.47,2.77-6,5.07-10.9-22.41-3.93-110.92-34.58-146.24-54.65C859.42,810.83,816.32,784.76,805.18,778.86Z" style="fill: green"/>
    <path d="M789.94,797.76c-10.77-6.89-11.83-2-3.13,6,11.35,10.65,72.51,51.43,115.42,77.67,42.58,27.08,92.33,52.15,104.3,55.33,1.3-2.32,3.2-5.63,5.85-10.24-21.6-7.28-107.08-49-141-72.77C842.05,835.16,800.72,804.76,789.94,797.76Z" style="fill: green"/>
    <path d="M830.3,755c-11.56-3.88-11.55,1.31-1.73,6.88,12.82,7.58,78.87,30.69,125.67,42.58,46.44,13.24,100.64,19.62,113.25,18.17.82-2.64,2-6.4,3.72-11.64a588.22,588.22,0,0,1-71-6.16c-30.53-4.34-62.76-12.18-81.24-18C887.09,777.52,841.85,759,830.3,755Z" style="fill: green"/>
    <path d="M812.72,771.1c-11.33-5.1-11.73,0-2.28,6.59,12.32,8.84,76.88,39.16,122.46,56.9,45.23,18.88,98,32.82,110.48,33.21,1-2.54,2.49-6.17,4.56-11.21a668.72,668.72,0,0,1-69.46-15.78c-29.86-8.33-61.36-20-79.37-28C868,799.72,824,776.34,812.72,771.1Z" style="fill: green"/>
    <path d="M822.51,764.63c-11.47-4.37-11.62.78-1.94,6.78,12.62,8.1,78.14,34.18,124.5,48.48,46,15.57,99.69,25.07,112.24,24.37.9-2.6,2.21-6.31,4.06-11.47a618,618,0,0,1-70.47-10.13c-30.28-6-62.25-15.42-80.56-22.1C878.77,789.69,834,769.16,822.51,764.63Z" style="fill: green"/>
    <path d="M651.13,867.61h0v0Z" style="fill: #fcdd09"/>
    <path d="M880.47,720.91q7,3.44,14,6.77-6.06-6-12.12-12c-12.58-12.9-35-22.11-53.68-22.48q-5.46-.09-10.92-.23,5.13-5.64,10.26-11.3c14.39-16.32,32.82-23,50.67-18.4q7.36,1.83,14.74,3.54-7-4.54-14-9.19c-14.58-10-37.77-14.18-55.68-10.3q-5.24,1.15-10.45,2.25l7.63-13.68c10.62-19.65,27-30.37,45-29.63q7.44.24,14.89.35-7.61-3-15.21-6.13c-15.93-6.81-38.94-6-55.25,1.83q-4.75,2.31-9.51,4.58,2.32-7.73,4.66-15.47c6.38-22.13,19.94-36.38,37.41-39.38q7.18-1.32,14.38-2.73-7.89-1.44-15.78-3c-16.59-3.52-38.41,2.07-52.4,13.57L781,566.56q.74-8.32,1.49-16.65c1.86-23.74,12-41,28.16-47.58q6.61-2.79,13.24-5.66c-5.22.1-10.44.15-15.66.18-16.53-.18-36.2,10-47.27,24.71l-6.45,8.57q-.87-8.6-1.75-17.19c-2.73-24.46,3.62-44.15,17.69-54.11q5.76-4.18,11.52-8.41-7.44,1.71-14.87,3.36c-15.74,3.2-32.4,17.73-40.06,35.08L722.55,499l-4.9-17.08c-7.22-24.26-5-45.7,6.43-58.8l9.3-11q-6.71,3.28-13.41,6.53c-14.27,6.58-27.2,25-31.11,44.41q-1.14,5.66-2.29,11.3-3.92-8.13-7.84-16.29c-11.38-23.08-13.34-45.45-5.1-61.32l6.66-13.21-11.37,9.61c-12.17,9.87-20.8,31.65-20.8,52.3v12q-5.22-7.39-10.45-14.8c-15-20.88-21.12-43.23-16.41-61.33l3.75-15-8.85,12.46c-9.53,12.9-13.48,37.16-9.57,58.21l2.28,12.28q-6.29-6.3-12.59-12.59c-18-17.69-28-38.92-27-58.51l.66-16.2q-3,7.43-5.92,14.84c-6.48,15.48-5.59,41.13,2.06,61.59l4.47,12q-7.09-4.89-14.19-9.74C536.09,427.11,522.74,408.08,520,388q-1.23-8.31-2.45-16.6-1.37,8.26-2.74,16.55c-3.15,17.34,2.54,43.1,13.62,62l6.45,11q-7.58-3.21-15.16-6.35c-21.61-8.7-37.79-24.51-44.23-44.1L470,394.35q.27,8.7.55,17.42c.32,18.32,10.58,42.83,24.57,59.15l8.17,9.53q-7.74-1.35-15.48-2.62c-22-3.37-40.31-15.15-50.12-33.13l-8.22-14.76q1.91,8.67,3.82,17.34c3.78,18.29,18.15,40.27,34.46,53.24q4.75,3.76,9.51,7.58-7.56.57-15.11,1.21c-21.43,2.1-41.06-5.11-53.82-20.56q-5.31-6.33-10.62-12.6l6.93,16.31c7.06,17.28,24.92,35.67,42.83,44.68q5.22,2.63,10.45,5.29-7.05,2.43-14.09,4.94c-19.92,7.39-40,4.94-55.16-7.25q-6.29-5-12.58-9.87,4.88,7.21,9.74,14.48c10,15.42,30.61,29.43,49.34,34.18q5.46,1.37,10.92,2.79-6.22,4.14-12.45,8.35c-17.54,12.19-37.24,14.46-54.1,6q-7-3.43-14-6.77,6.06,6,12.11,12c12.59,12.91,35,22.11,53.69,22.48q5.46.09,10.92.24-5.13,5.63-10.26,11.29c-14.4,16.33-32.82,23-50.67,18.41q-7.38-1.83-14.75-3.55,7,4.54,14,9.19c14.58,10,37.77,14.18,55.68,10.3q5.22-1.14,10.45-2.25-3.81,6.82-7.63,13.69c-10.62,19.65-27,30.37-45,29.62q-7.44-.24-14.89-.36,7.6,3,15.21,6.15c15.93,6.8,38.94,6,55.25-1.84l9.51-4.59q-2.33,7.74-4.66,15.47c-6.38,22.14-19.94,36.39-37.41,39.39q-7.19,1.32-14.38,2.74,7.89,1.43,15.78,3c16.59,3.52,38.41-2.07,52.4-13.57q4.08-3.37,8.17-6.71L477.54,767c-1.86,23.73-12,41-28.16,47.57q-6.61,2.8-13.24,5.66,7.83-.13,15.66-.17c16.53.18,36.2-10,47.27-24.72l6.45-8.56q.89,8.6,1.75,17.19c2.73,24.45-3.61,44.14-17.69,54.11q-5.76,4.18-11.52,8.41,7.44-1.72,14.87-3.37c15.74-3.19,32.4-17.73,40.06-35.07l4.47-10.12q2.44,8.53,4.9,17.07c7.21,24.27,5,45.7-6.43,58.8l-9.3,11L540,898.23c14.27-6.57,27.2-25,31.11-44.4l2.28-11.3q3.93,8.13,7.85,16.29c11.38,23.08,13.34,45.45,5.1,61.32q-3.33,6.6-6.67,13.21l11.38-9.62c12.16-9.86,20.8-31.64,20.8-52.29V859.39l10.45,14.8c15,20.88,21.12,43.23,16.41,61.33l-3.75,15q4.41-6.24,8.84-12.46c9.53-12.9,13.49-37.16,9.57-58.21q-1.12-6.14-2.27-12.26h0v0l12.59,12.59c18,17.68,28,38.92,27,58.5q-.33,8.1-.67,16.2,3-7.41,5.93-14.83c6.48-15.48,5.59-41.14-2.07-61.6l-4.47-11.94q7.09,4.88,14.19,9.73c20.28,13.56,33.63,32.59,36.42,52.71q1.22,8.31,2.44,16.6,1.38-8.28,2.75-16.56c3.15-17.34-2.55-43.1-13.62-62q-3.23-5.5-6.46-11,7.59,3.19,15.17,6.35c21.61,8.7,37.79,24.51,44.23,44.09q2.73,8.07,5.45,16.13-.27-8.72-.55-17.43c-.32-18.32-10.58-42.83-24.57-59.15q-4.1-4.75-8.17-9.54,7.74,1.35,15.48,2.63c22,3.37,40.31,15.15,50.12,33.14q4.11,7.38,8.22,14.74-1.92-8.65-3.83-17.33c-3.77-18.29-18.14-40.27-34.45-53.24q-4.75-3.76-9.52-7.58,7.56-.57,15.12-1.21c21.43-2.11,41.06,5.11,53.82,20.56q5.31,6.33,10.62,12.6l-6.93-16.31c-7.06-17.28-24.92-35.67-42.83-44.69q-5.22-2.62-10.45-5.28,7-2.43,14.09-4.94c19.92-7.39,40-4.95,55.16,7.24q6.28,5,12.57,9.87-4.86-7.21-9.73-14.48c-10.05-15.42-30.61-29.43-49.34-34.17-3.64-.92-7.28-1.84-10.92-2.79q6.23-4.14,12.45-8.35C843.92,714.68,863.61,712.41,880.47,720.91Z" style="fill: #fcdd09"/>
    <path d="M618.59,225.45c3.11,21.15,2.78,23,3.22,27.57,3.89.85,12.72,2.79,16.81,3.65.59-7,1.06-15,2.44-26,1.61-12.76,6.38-39.15,11.51-57.09,10.26-35.85,9.57-59.35-6.37-89.25-5.84-11.08-13.61-20.88-17.12-21.64s-11.41,5-16.72,13.84C597,101,595.14,122.83,605.64,163.49,610.7,182.49,616.25,210.45,618.59,225.45Z" style="fill: #fcdd09"/>
    <path d="M661.47,271.76c0-4.11.07-2,.11-5.31-10.75-2.4-51.87-11.24-62.57-13.54,0,2.16,0,3.19-.08,5.1C616.5,261.89,646.88,268.71,661.47,271.76Z" style="fill: #fcdd09"/>
    <path d="M601.31,232.19a171.8,171.8,0,0,1,4,17.24c4.59,1,6.44,1.4,11.16,2.4a157.06,157.06,0,0,0-2.31-18.68c-7.15-40.6-20.25-71.8-42-86.64-42-28.35-57.77,33.46-17.72,67.91,7.2,6,16.07,12.36,20.25,14.39-3.38-4.94-6.42-10-6.81-18C566.64,182,592.52,199.75,601.31,232.19Z" style="fill: #fcdd09"/>
    <path d="M655.31,292.52c-5.06-8.86-4-7.31-7.67-18.11-4.47-1.2-27.14-5.92-34.34-7.48-3.94,8.25-4.34,10.07-9.2,14.77-6.34,6.11-16.23,9.58-16.23,9.58a107.12,107.12,0,0,0,16.92,4.08c8.16,1.12,12.69,1,17.52-.53a201,201,0,0,0-1.39,20.67c1.19,14,2.53,17.79,5.25,25.07,3.68,6.38,5.82,6.87,8.53,1.58,2.93-5.95,4.85-12.31,5.47-22.52-.22-7.79-.61-11.43-2.28-21.27,5.64,3.91,9.21,5.39,17.64,8a131.19,131.19,0,0,0,16.55,4S660.43,301.5,655.31,292.52Z" style="fill: #fcdd09"/>
    <path d="M687.92,171.5c-21.78,5.64-34.88,31.09-42,68.59a133.33,133.33,0,0,0-2.31,17.68c4.72,1.05,6.57,1.48,11.16,2.45a127.84,127.84,0,0,1,4-15.53c8.79-28.59,34.67-35.35,33.51-7-.39,7.81-3.43,11.58-6.81,15.09,4.18-.26,13.05-2.93,20.25-5.94C745.69,228.37,729.92,160.62,687.92,171.5Z" style="fill: #fcdd09"/>
    <path d="M273,220.08c0-4.11.07-2,.11-5.34-10.75.07-51.87,4.73-62.57,7,0,2.14,0,3.19-.08,5.13C228,223.8,258.38,220.82,273,220.08Z" style="fill: #fcdd09"/>
    <path d="M230.09,187.13c3.11,20.07,2.78,22.06,3.22,26.46,3.89-.51,12.72-1.47,16.81-1.87.59-7.14,1.06-15.36,2.44-26.74,1.61-13.26,6.38-41.12,11.51-60.55,10.26-38.73,9.57-62.15-6.37-87.36-5.84-9.34-13.62-16.64-17.12-16.24s-11.41,8.84-16.72,19.6c-15.38,30.06-17.22,52.71-6.72,89.38A572.67,572.67,0,0,1,230.09,187.13Z" style="fill: #fcdd09"/>
    <path d="M266.81,242.56c-5.06-7.4-4-6.15-7.67-15.86-4.47,0-27.14,2.61-34.34,3.77-3.94,9.67-4.34,11.63-9.2,18.12-6.34,8.45-16.23,15.84-16.23,15.86A119,119,0,0,0,216.29,262c8.16-1.9,12.69-3.6,17.52-6.77-1.31,10.83-1.39,21.14-1.39,21.14,1.19,13.58,2.53,16.93,5.25,23.29,3.68,5.15,5.82,4.95,8.53-1.22a68.12,68.12,0,0,0,5.47-24.24,112.37,112.37,0,0,0-2.28-20.56c5.64,2.15,9.21,2.51,17.64,2.75a153.41,153.41,0,0,0,16.55-.49S271.93,250,266.81,242.56Z" style="fill: #fcdd09"/>
    <path d="M212.81,200.14a132.7,132.7,0,0,1,3.95,15.76c4.59-.67,6.44-1,11.16-1.63a137.75,137.75,0,0,0-2.31-17.87c-7.15-38-20.25-64.61-42-70.21-42-9.71-57.77,60.67-17.72,75.75,7.2,2.65,16.07,5.21,20.25,5.49-3.38-3.52-6.42-7.25-6.81-15.05C178.14,163.91,204,170.81,212.81,200.14Z" style="fill: #fcdd09"/>
    <path d="M299.42,113.13c-21.78,10.7-34.88,40.16-42,79.77a149.6,149.6,0,0,0-2.31,18.38c4.72-.38,6.57-.49,11.16-.85a154.66,154.66,0,0,1,3.95-16.65c8.79-31.26,34.67-44.18,33.51-15.47-.39,7.89-3.43,12.33-6.81,16.64,4.18-1.25,13.05-5.91,20.25-10.34C357.19,159.23,341.42,93.28,299.42,113.13Z" style="fill: #fcdd09"/>
    <path d="M1076.42,191.82c-21.78,14.87-34.88,44.93-42,85a152.91,152.91,0,0,0-2.31,18.5c4.72-.62,6.57-.85,11.16-1.58a165.34,165.34,0,0,1,4-17c8.79-31.7,34.67-49.3,33.51-20.63-.39,8-3.43,13.06-6.81,18,4.18-2,13-8.54,20.25-14.84C1134.19,221.49,1118.42,162.3,1076.42,191.82Z" style="fill: #fcdd09"/>
    <path d="M1050,302.76c0-4.11.07-2,.11-5.35-10.75,2.18-51.87,6.88-62.57,7,0,2.15,0,3.19-.08,5.12C1005,308.84,1035.38,305.5,1050,302.76Z" style="fill: #fcdd09"/>
    <path d="M1007.09,271.27c3.11,20.18,2.78,22.16,3.22,26.57,3.89-.36,12.72-1.32,16.81-1.88.59-7.16,1.06-15.4,2.44-26.83a569.25,569.25,0,0,1,11.51-61.2c10.26-39.7,9.57-62.83-6.37-86.95-5.84-9-13.61-16.16-17.12-15.79s-11.41,8.66-16.72,19.08c-15.38,28.94-17.22,51.17-6.72,88.9C999.2,230.73,1004.75,257,1007.09,271.27Z" style="fill: #fcdd09"/>
    <path d="M989.81,283.11a141.86,141.86,0,0,1,4,16.12c4.59-.3,6.45-.48,11.16-.91a140.41,140.41,0,0,0-2.31-18c-7.15-38.47-20.25-65.68-42-75.45-42-19.38-57.77,44.24-17.72,71.74,7.2,4.53,16.07,8.94,20.25,10-3.38-4.15-6.42-8.52-6.81-16.4C955.14,241.76,981,253.33,989.81,283.11Z" style="fill: #fcdd09"/>
    <path d="M1043.81,325.84c-5.06-7-4-5.84-7.67-15.31-4.47.54-27.14,3.38-34.34,3.83-3.94,9.43-4.34,11.37-9.2,17.46-6.34,7.95-16.23,14-16.23,14a85,85,0,0,0,16.92-.52c8.16-1.23,12.69-2.77,17.52-5.8a209,209,0,0,0-1.39,21.1c1.19,13.62,2.53,17,5.25,23.41,3.68,5.19,5.82,5,8.53-1.23a69.12,69.12,0,0,0,5.47-24.39,111.21,111.21,0,0,0-2.28-20.48c5.64,2,9.21,2.2,17.64,1.74a104.09,104.09,0,0,0,16.55-2.38S1048.93,333,1043.81,325.84Z" style="fill: #fcdd09"/>
  </g>
</svg>
