<svg xmlns="http://www.w3.org/2000/svg" viewBox="0 0 1260 1012.04">
  <g>
    <path d="M1260,2V922h0V2Z" style="fill: #e32118"/>
    <path d="M0,90.08v920C420,738.76,840,1193.28,1260,922V2C840,273.28,420-181.24,0,90.08Z" style="fill: #e32118"/>
    <path d="M1260,2h0V615.3h0Z" style="fill: #fff"/>
    <path d="M0,90.08V703.41C420,432.09,840,886.62,1260,615.3V2C840,273.28,420-181.24,0,90.08Z" style="fill: #fff"/>
    <path d="M1260,2h0V308.63h0Z" style="fill: #3e9a00"/>
    <path d="M0,90.08V396.74C420,125.43,840,580,1260,308.63V2C840,273.28,420-181.24,0,90.08Z" style="fill: #3e9a00"/>
    <path d="M0,90.08v920C105,788.91,210,613.12,315,460,210,306.45,105,175.58,0,90.08Z" style="fill: #0073ce"/>
    <path d="M563.15,549.93c0,55.09,57.75,26.49,66.85,56.91,5.25-26.39,66.85,26.74,66.85-25.12V427.93c-44.68-9.32-89.37-19.5-134.05-28.8C562.8,399.13,563.15,496.26,563.15,549.93Z" style="fill: #fff"/>
    <path d="M562.8,398.21,562,399c0,1,.35,97.75.35,150.8,0,11.33,2.37,19.87,7.24,26.12,7.55,9.69,19.62,12,31.29,14.25,12.74,2.47,24.76,4.83,28.37,16.85l1.61.24c2.08-10.47,13.68-7.56,27.12-4.22,11.8,2.93,25.18,6.21,33-.44,4.56-3.9,6.78-10.66,6.78-20.66V428.1l-.84-1.09C652.17,417.69,607.48,407.51,562.8,398.21ZM696,581.54c0,9.48-2,15.84-6.27,19.45-7.28,6.21-19.72,3.16-31.75.17-12.61-3.13-24.58-6.13-28.14,3-4-9.31-12.92-12.44-23-14.63-2-.43-4-.82-6-1.22-11.32-2.19-23-4.42-30.08-13.47C566.19,569,564,560.91,564,550.1c0-50.27-.31-139.79-.35-149.88,44.13,9.2,88.25,19.25,132.37,28.45Z"/>
    <path d="M647.85,480.78l-4.2-4.75s-5.6,1.46-12.6,8.37c0,0,.35,97.06,3.5,99.28s4.9.69,4.9.69,5.6,3.9,5.25-1.16c-.35-8.13-5.25-19.93-7.7-33.11-1.75-10.35-1.75-20.7-2.1-28.83C633.5,499.12,632.1,486.17,647.85,480.78Z" style="fill: #73452b"/>
    <path d="M643.58,475.84c-.06,0-5.71,1.55-12.66,8.4l0,.05v.07c0,.25.1,24.55.57,48.81,1,49.21,2.53,50.31,3,50.67a6.77,6.77,0,0,0,2.43,1.15,3.21,3.21,0,0,0,2.57-.39c.56.37,3.12,2,4.52,1.18.67-.37,1-1.23.87-2.54-.19-4.52-1.76-10.08-3.57-16.52-1.43-5-3-10.74-4.13-16.62a174.24,174.24,0,0,1-1.91-23.82c-.06-1.73-.12-3.4-.19-5,0-.75-.09-1.49-.14-2.24-1.31-20.53-2.11-32.92,13-38.09l0-.32-4.28-4.84Zm-9,43.17.15,2.23q.09,2.38.18,5a175.42,175.42,0,0,0,1.92,23.88c1.1,5.91,2.71,11.62,4.13,16.67,1.81,6.41,3.37,11.94,3.57,16.42.08,1.17-.17,1.92-.73,2.24-1.39.77-4.25-1.21-4.28-1.22l-.11-.08-.08.07c-.07.06-1.72,1.43-4.71-.68-2.23-1.57-3.25-60-3.39-99,6.37-6.27,11.62-8,12.39-8.26l3.92,4.42C632.46,486,633.26,498.42,634.58,519Z"/>
    <path d="M634.9,471.82l-6.3-1.37q-.71,55.62-1.4,111.24s3.15,8.74,9.45,2.45c.35.08-2.45-2.45-2.45-7.82C634.2,560.22,629.65,526.26,634.9,471.82Z" style="fill: #73452b"/>
    <path d="M634.38,576.36c0-4-.28-8.94-.62-15.21-1-19.22-2.64-48.27,1.31-89.27l-.17-.25-6.3-1.37-.18.15Q627.73,526,627,581.69l0,0c.05.15,1.31,3.58,3.87,4.6a3.83,3.83,0,0,0,.63.2c1.62.35,3.37-.38,5.19-2.19h.06l.05-.1c.06-.14,0-.26-.22-.54A12.32,12.32,0,0,1,634.38,576.36ZM631,586c-2.23-.89-3.45-3.9-3.59-4.28q.69-55.5,1.39-111l5.94,1.29c-3.94,40.93-2.35,69.92-1.3,89.12.34,6.28.61,11.23.61,15.19a12.82,12.82,0,0,0,2.34,7.63l.09.14C634.48,586,632.64,586.64,631,586Z"/>
    <path d="M619.85,471.23c-.23,2-.47,4-.7,6,11.9,9.49,6.3,71.52-6.65,97.45-.35.69.35,7,6.3,5.2-.12-.53-.23-1.07-.35-1.61.35.85,2.8,9.81,9.1,3.9,1.05-.92,2.8-29.67,1.05-101C628.6,481.18,624.4,473.75,619.85,471.23Z" style="fill: #a36629"/>
    <path d="M628.77,481.16l0-.06c-.17-.3-4.28-7.52-8.84-10.05l-.22.11-.72,6.11.11.09c5.32,4.24,7.58,20.47,5.9,42.36-1.63,21.2-6.59,42.72-12.63,54.82a5.63,5.63,0,0,0,1.08,4.13c.84,1.12,2.46,2.27,5.45,1.38l-.14-.38c-2.22.66-4,.25-5.06-1.21a5.33,5.33,0,0,1-1-3.68c6.06-12.14,11-33.71,12.66-55,1.71-22.22-.53-38.15-6-42.68l.66-5.63c4.16,2.45,8,9,8.43,9.7,1.8,73.73-.13,100-1,100.78-1.88,1.77-3.58,2.35-5.06,1.73-2.13-.9-3.26-4.12-3.63-5.18-.06-.16-.1-.27-.12-.34l-.32.11a1.81,1.81,0,0,1,.11.3c.39,1.11,1.57,4.5,3.9,5.47a2.78,2.78,0,0,0,.6.19c1.45.32,3.05-.34,4.77-1.95,1.23-1.08,2.8-31.83,1.1-101.1Z"/>
    <path d="M626.68,542.11c.4,9.73-2.88,18.3-5.52,25.19-1.86,4.83-3.32,8.66-2.88,11.33h.34c-.42-2.57,1-6.35,2.86-11.14,2.66-6.91,6-15.52,5.54-25.34Z"/>
    <path d="M635.43,557.49c3.3,10.73,4.52,19.25,3.85,26.82l.34.11c.68-7.62-.55-16.2-3.86-27Z"/>
    <path d="M681.8,470.84c1.75-8.07-4.2-11.24-10.85-10.75,2.8-4,1.4-8.9-5.6-8.87-.7-7.44-9.45-9.33-10.15-3.73-3.85-.83-3.85-.84-6,1.39-1.4-4.9-3.15-6.43-8.4-8.34,1.4-12.73-17.15-21.26-18.2-12-6.3-2.49-9.1-1.6-7,5.37-3.5-.76-4.55.93-3.85,3.38-6.3-.6-8,.17-7.7,6.77-3.15-.3-7.35-1.59-4.9,5.07-4.55,1.32-7.35,3-2.8,10.51-3.15.09-3.85,1.47-2.8,4.38-1.75-1.14-3.85-2.36-4.2,1.4-3.15-1.44-8-3.64-8.75,2.35-8-1.33-9.1,4.2.7,7.81,1.4,4.51,9.1,7.31,11.2.1,2.45,2.44,2.8,4,7.7,4.73,5.25,9.18,16.1,7.32,11.9-3.17,5.6,3.51,8.05,1,7.7-6,3.15,1.07,4.9,3,5.25-2.31,6.3,5.59,7.7,5.9,15,4.05,4.2,6.66,4.9,9.12,14.35,9.63,3.85,7.36,8.75,10.72,17.15,6,6.65,3.73,11.55,2.85,12.25-2.75C689.15,485,693.7,476.8,681.8,470.84Z" style="fill: #009a3b"/>
    <path d="M682,470.74c.63-3.08.19-5.61-1.31-7.53-1.85-2.35-5.25-3.55-9.37-3.35a5.8,5.8,0,0,0,.59-5.89c-1-1.88-3.29-2.92-6.42-3a7.63,7.63,0,0,0-5.56-6.83l-.08,0c-2.05-.44-4.38.34-4.81,3.1-3.62-.79-3.82-.78-5.73,1.25-1.45-4.83-3.4-6.31-8.28-8.11.67-7.05-4.87-13.34-10.68-15.36-4.3-1.5-7.36-.24-7.86,3.22-3.73-1.45-6-1.59-7-.44-.9,1-.92,2.89-.07,5.82-1.7-.32-2.91-.07-3.53.74a3.08,3.08,0,0,0-.31,2.67c-6.17-.57-8,.3-7.65,6.76l-.88-.1c-1.81-.22-3.68-.46-4.42.76-.53.86-.42,2.33.35,4.48-2.73.81-4.51,1.71-5,3.6-.38,1.62.3,3.87,2.09,6.88-1.55.08-2.47.49-2.89,1.29a3.82,3.82,0,0,0,.08,2.86c-1-.65-2.08-1.17-2.89-.81-.62.29-1,1.06-1.15,2.35-2-.92-5-2.2-6.86-1.13-1,.57-1.66,1.76-1.89,3.53-3.73-.58-6.28.29-6.37,2.19-.07,1.6,1.76,4,7.09,6a7.06,7.06,0,0,0,5.12,4.42l.19,0c2.84.52,5.11-1,6.11-4.18.41.41.75.79,1.08,1.16,1.47,1.66,2.54,2.86,6.44,3.42,2,3.42,4.66,5.25,7.05,5.77a5.61,5.61,0,0,0,3.43-.23c2.1-.91,3.64-3.6,1.84-8.49,2.36,1.4,4.2,1.73,5.49,1,1.53-.9,2.23-3.29,2.07-7.11.47.17.93.36,1.33.53,1.18.5,2.11.89,2.79.46s.94-1.37,1.09-3.19c6.07,5.36,7.56,5.73,14.85,3.91l.89,1.43c3.35,5.42,4.75,7.68,13.42,8.17,2.1,4,4.36,6.42,6.91,7.51,2.94,1.26,6.33.77,10.36-1.48,3.93,2.18,7.32,2.78,9.55,1.7a5.46,5.46,0,0,0,2.83-4.5,6.55,6.55,0,0,0,5.43-6.49C689.43,477.63,688.38,474,682,470.74Zm1.83,14.91-.1,0v.12c-.28,2.17-1.18,3.64-2.68,4.37-2.17,1-5.49.43-9.35-1.73l-.08,0-.07,0c-4,2.24-7.31,2.74-10.16,1.52-2.48-1.06-4.69-3.48-6.74-7.41l-.06-.11h-.12c-8.56-.47-9.83-2.51-13.21-8l-1-1.56-.09-.13-.12,0c-7.34,1.84-8.73,1.47-14.89-4l-.26.09c-.13,1.88-.44,2.91-1,3.25s-1.38,0-2.52-.47c-.46-.2-1-.42-1.56-.61l-.19.16c.19,3.81-.46,6.18-1.92,7-1.25.74-3.12.34-5.55-1.19l-.22.21c2,4.92.5,7.61-1.53,8.48-3.5,1.5-7.87-1.58-10.07-5.43l0-.1-.1,0c-3.85-.53-4.82-1.62-6.3-3.28-.37-.42-.79-.89-1.29-1.39l-.27.05c-.91,3.14-3.11,4.72-5.86,4.22a6.58,6.58,0,0,1-5-4.26l0-.11-.11,0c-5.18-1.92-7-4.19-6.89-5.57s2-2.56,6.18-1.87l.15,0v-.15c.21-1.75.8-2.91,1.77-3.45,1.85-1,4.81.32,6.77,1.22l.21-.12q.18-1.93,1-2.31c.76-.34,1.87.31,2.95,1l.22-.21c-.49-1.37-.57-2.34-.23-3s1.33-1.11,2.91-1.15l.1-.29c-1.84-3-2.56-5.25-2.19-6.8.43-1.79,2.2-2.64,4.92-3.43l.09-.23c-.78-2.13-.93-3.54-.44-4.33.65-1.06,2.43-.84,4.15-.63l1,.12.16-.17c-.35-6.43,1.3-7.19,7.54-6.59l.15-.22a2.9,2.9,0,0,1,.19-2.58c.58-.75,1.79-1,3.49-.58l.17-.22c-.89-2.94-.91-4.81-.08-5.73,1-1.08,3.18-.9,6.88.56l.2-.12c.47-4.1,4.34-4.27,7.5-3.16,4.8,1.68,11.19,7.46,10.36,15.06l.15.24c5.37,2,6.91,3.49,8.25,8.19l.3.13c2-2.18,2-2.18,5.82-1.36l.15,0,0-.16c.34-2.68,2.48-3.43,4.49-3l.07,0a7.22,7.22,0,0,1,5.25,6.63l.2.21c3.08,0,5.3.95,6.25,2.71s.58,3.82-.83,5.83l.19.33c4.19-.31,7.64.84,9.46,3.16,1.44,1.83,1.84,4.29,1.18,7.32l.12.25c4.68,2.35,7.3,5.34,7.39,8.45A6.34,6.34,0,0,1,683.84,485.65Z"/>
    <path d="M618.93,440.16c-.71-.36-2.08-.61-3.51,1.54-.36-2.93-1.48-3.48-2.56-4a6.08,6.08,0,0,1-1-.57l-.16.31a6,6,0,0,0,1,.61c1.13.55,2.1,1,2.36,4.19l.32.15c1-1.78,2.26-2.45,3.39-1.87,1.52.77,2.59,3.62,2.59,6.91l.34.08C621.77,444,620.63,441,618.93,440.16Z"/>
    <path d="M638.55,441.65c-1.82.68-4.07,1.52-3.88,5.35a6.48,6.48,0,0,0-3.95-2.86,2.42,2.42,0,0,0-2.62,1.19l.3.26a2.13,2.13,0,0,1,2.34-1.06,6.29,6.29,0,0,1,4,3.22l.31-.06c-.46-4.13,1.72-4.95,3.64-5.66a4.68,4.68,0,0,0,2.29-1.36l-.3-.27A4.37,4.37,0,0,1,638.55,441.65Z"/>
    <path d="M647.35,456.8l.3.27c1.45-2.07,1.78-6.69,1.77-8.15l-.35-.08C649.07,450.64,648.65,454.94,647.35,456.8Z"/>
    <path d="M670.92,460.11l-.13-.05a.14.14,0,0,1,.06-.09,5.65,5.65,0,0,1-1.1-.09c-1.6-.21-4.57-.59-6.25.36l.2.36c1.6-.91,4.52-.53,6.08-.33,1.06.13,1.28.15,1.35,0l-.06-.26Z"/>
    <path d="M677.77,484.4c0-1.81-.4-5.5-4-6.27v.38c3.67.79,3.68,4.82,3.67,6.34l.32.19c1.86-2.32,4.3-.43,5.75.71l.33.25c0-.1.11-.2.16-.31l-.32-.25C682.27,484.37,679.77,482.41,677.77,484.4Z"/>
    <path d="M670.1,482.24c.71,1.31,1.38,2.55,1.37,6.33l.36.07c0-3.89-.73-5.24-1.43-6.54Z"/>
    <path d="M656.68,479.46a3.57,3.57,0,0,0-2.36,3.11l.35.07a3.3,3.3,0,0,1,2.17-2.81,3,3,0,0,1,3.16,1.05l.21-.26A3.37,3.37,0,0,0,656.68,479.46Z"/>
    <path d="M639.53,471.72a10.56,10.56,0,0,1,.09,1.13l.35.08a11,11,0,0,0-.09-1.18c-.19-1.63-.43-3.66,1.39-4.11,0-.13-.09-.26-.14-.38C639.07,467.77,639.34,470.06,639.53,471.72Z"/>
    <path d="M600.33,471c-1.56-.92-3.37-.59-5.1.93l.24.33c1.64-1.44,3.32-1.77,4.75-.92a5.23,5.23,0,0,1,2.31,3.88c.14.81-.24,1.15-.82,1.65a5.29,5.29,0,0,0-2,3.42l.34.14a5,5,0,0,1,1.89-3.24,1.9,1.9,0,0,0,.91-2A5.71,5.71,0,0,0,600.33,471Z"/>
    <path d="M602.64,475l.12.39c2-.29,4,.46,4.69,1.71l.3-.15C607,475.49,604.78,474.65,602.64,475Z"/>
    <path d="M596.63,459.53l.24.33c1.29-1.13,4.65-.14,6.8,1.5l.16-.3C601.57,459.33,598.05,458.28,596.63,459.53Z"/>
    <path d="M615.53,451.79c-1-.28-3-.14-5.79,3.78-1-2.94-3.51-3.34-5.17-3.61l-.82-.14v.38c.25.06.54.1.84.15,1.82.29,4.09.66,4.94,3.66l.32.11c2.74-4.05,4.74-4.2,5.66-3.95a2.09,2.09,0,0,1,1.38,1.25l.32-.11A2.61,2.61,0,0,0,615.53,451.79Z"/>
    <path d="M639,460.77c-1.61-.22-3.28-.45-4.45,2.48-2.74-5.57-7.58-9.88-10.53-9.32l.12.39c2.54-.5,7.4,3.26,10.29,9.44l.31,0c1.11-3.08,2.58-2.88,4.29-2.64a11.22,11.22,0,0,0,1.18.12l-.06-.39A11.21,11.21,0,0,1,639,460.77Z"/>
    <path d="M662.2,473.61l-.18-.29c-1.5-2.43-4.29-7-8.64-5.7l.14.38c4.1-1.18,6.78,3.16,8.22,5.49l.32.52.28.06c2-2.55,3.71-2.2,5.81-1.74v-.39C666.08,471.5,664.29,471.11,662.2,473.61Z"/>
    <path d="M617.5,463.88c-1,.52-1.44,1.82-1.35,3.52a4.73,4.73,0,0,0-2.72-1,2.72,2.72,0,0,0-2.48,1.28l.3.26a2.46,2.46,0,0,1,2.24-1.15,4.51,4.51,0,0,1,2.77,1.15l.26-.12c-.17-1.74.27-3.07,1.18-3.56a1.55,1.55,0,0,1,1.72.16l.16-.3A1.86,1.86,0,0,0,617.5,463.88Z"/>
    <path d="M624.75,376.08l-7.7-1.34-4.2-8.12-3.5,6.79-8.05-1.36,4.2,8.12L602,387l7.7,1.33,4.2,8.12,3.85-6.72,7.7,1.3-4.2-8.13Z" style="fill: gold"/>
    <path d="M625.3,376.5l-.58-1.1-7.34-1.27c-1.34-2.59-2.68-5.17-4-7.76l-1.07-.17L609,372.68l-7.7-1.3-.49.92,4,7.76-3.35,6.52.58,1.1,7.34,1.26,4,7.75,1,.2,3.69-6.43,7.36,1.24.49-.92L622,383Zm-.94,13.67-7-1.17-3.51,6.13L610,387.71l-7-1.21,3.18-6.22-3.81-7.37,7.34,1.24,3.18-6.16,3.81,7.37,7,1.21-3.18,6.22Z"/>
    <path d="M589.4,371.64l-7.7.34-5.6-7.32-2.1,7.76-7.35.48,5.25,7.32-2.1,7.72,7.35-.44,5.6,7.32,2.1-7.71,7.7-.42-5.6-7.38C587.77,376.75,588.58,374.19,589.4,371.64Z" style="fill: gold"/>
    <path d="M590,372l-.72-1-7.37.33-5.36-7-1,.07q-1,3.7-2,7.41l-7,.46-.3,1,5,7-2,7.38.74,1,7-.42q2.68,3.49,5.36,7l1-.08c.67-2.45,1.34-4.91,2-7.36l7.36-.4.28-1.06q-2.65-3.53-5.33-7Zm1.37,14.09-7,.38-1.92,7-5.1-6.67-6.67.4q1-3.51,1.91-7l-4.78-6.66,6.69-.44,1.92-7.07,5.1,6.67,7-.31c-.74,2.32-1.49,4.65-2.23,7Z"/>
    <path d="M554.75,372.62l-7,2.32-6.3-5.95c-.23,2.79-.47,5.58-.7,8.37l-7,2.44,6.65,6c-.23,2.79-.47,5.58-.7,8.37l7-2.35,6.65,6c.12-2.81.23-5.63.35-8.44l7-2.35-6.3-6.05C554.52,378.24,554.63,375.43,554.75,372.62Z" style="fill: gold"/>
    <path d="M555.36,372.77l-.88-.81-6.68,2.22-6-5.67-.95.3c-.22,2.67-.45,5.34-.67,8l-6.69,2.34-.06,1.15,6.34,5.75q-.35,4-.67,8l.88.84,6.69-2.24L553,398.4l.94-.34q.16-4,.34-8.05l6.67-2.24c0-.38,0-.76.08-1.14l-6-5.79Zm4.13,14-6.39,2.14c-.1,2.56-.21,5.12-.31,7.68l-6-5.49-6.33,2.12.63-7.59L535,380.12l6.35-2.21q.31-3.81.64-7.62l5.73,5.42,6.39-2.13q-.15,3.85-.32,7.69Q556.64,384,559.49,386.77Z"/>
    <path d="M651.7,382.64q-1.92-4.2-3.85-8.39l-4.2,6.29-7.7-2c1.17,2.78,2.33,5.57,3.5,8.35l-3.85,6.37,7.7,2.06,3.5,8.31,4.2-6.29,7.7,2L655.2,391l4.2-6.3Z" style="fill: gold"/>
    <path d="M659.43,384l-7.36-2c-1.23-2.67-2.46-5.35-3.68-8l-1.06-.26-4,6L636,377.85l-.57.85c1.12,2.67,2.24,5.33,3.35,8q-1.83,3-3.68,6.09l.5,1.11,7.35,2,3.33,7.93,1.07.29q2-3,4-6l7.35,1.92.57-.85-3.35-8,4-6C659.75,384.78,659.59,384.4,659.43,384Zm-4.93,6.77,3.18,7.6-7-1.84-3.81,5.72-3.18-7.55-7-1.88,3.51-5.8L637,379.46l7,1.84,3.84-5.75,3.51,7.66,7,1.86Z"/>
    <path d="M686.7,396.74l-2.1-8.65-5.6,5-7.35-3.57,2.1,8.66-5.25,5,7.35,3.65,2.1,8.61,5.6-4.94L690.9,414l-2.1-8.61,5.6-5Z" style="fill: gold"/>
    <path d="M694.54,399.77l-7.35-3.49c-.66-2.75-1.33-5.49-2-8.24l-1-.51-5.36,4.72-7-3.4-.74.68,2,8.27-5,4.82.3,1.17,7,3.48q1,4.11,2,8.22l1,.51,5.36-4.73,7,3.38.74-.68q-1-4.1-2-8.21l5.35-4.81Zm-6.43,5.32,1.92,7.83-6.67-3.22-5.1,4.51-1.92-7.84-6.69-3.32,4.78-4.6q-.95-3.93-1.91-7.86l6.67,3.23,5.1-4.51,1.92,7.89,7,3.31Z"/>
    <path d="M720,415.4c-.12-2.86-.23-5.72-.35-8.58L713,410.16,706,405c.23,2.88.47,5.77.7,8.65L700,417l7,5.24c.12,2.86.23,5.72.35,8.58L714,427.5l7,5.17c-.12-2.86-.23-5.72-.35-8.58l6.3-3.46Z" style="fill: gold"/>
    <path d="M727.22,420.08l-6.67-5q-.18-4.1-.34-8.19l-.94-.72-6.36,3.19-6.69-5-.88.48q.33,4.13.67,8.25l-6.34,3.22.06,1.18,6.67,5q.18,4.08.34,8.18l.94.73,6.36-3.18,6.69,4.94.88-.46-.33-8.2,6-3.31C727.27,420.86,727.25,420.47,727.22,420.08Zm-7.2,3.54c.11,2.61.22,5.21.32,7.82L714,426.73l-6.05,3-.31-7.81-6.37-4.76,6.06-3.08-.63-7.86,6.33,4.69c2-1,4-2,6-3,.1,2.6.21,5.21.31,7.81l6.39,4.77Z"/>
    <path d="M709.45,581.25l8.75,15.58,8-11.43q-2.81-6.1-5.6-12.23Q715.06,577.22,709.45,581.25Z" style="fill: #fff"/>
    <path d="M720.25,572.58l-11.19,8.08c0,.29-.08.58-.11.87q4.37,7.8,8.75,15.58l1,.2L727,585.58q-2.9-6.32-5.78-12.63Zm-2.06,23.06-7.92-14.1q5.1-3.67,10.2-7.37,2.53,5.54,5.06,11.05Q721.87,590.44,718.19,595.64Z"/>
    <path d="M653.8,609.72q.35,7,.7,13.95a21.46,21.46,0,0,0,6.65.29,15.1,15.1,0,0,0,5.25-2.32c-.12-2.45-.23-4.9-.35-7.36Z" style="fill: #fff"/>
    <path d="M653.89,609.07l-.7.55q.34,7,.7,14l.61.76a21.72,21.72,0,0,0,6.87.29,15.54,15.54,0,0,0,5.43-2.39l.23-.17-.39-8.25ZM661,623.28a20.47,20.47,0,0,1-5.88-.17l-.63-12.47,11,4.1q.16,3.24.31,6.46A14.37,14.37,0,0,1,661,623.28Z"/>
    <path d="M594.65,606.83a23,23,0,0,0,5.25,3.81,34.4,34.4,0,0,0,6.3,2.13q.34-6.63.7-13.26l-15.75-2.64Z" style="fill: #fff"/>
    <path d="M591.12,596.2l-.54.81,3.57,10.14.14.15a24,24,0,0,0,5.48,4,34.14,34.14,0,0,0,6.43,2.17l.61-.5q.36-6.63.7-13.26c-.21-.28-.42-.57-.64-.85ZM605.62,612a33.23,33.23,0,0,1-5.57-1.94,21.62,21.62,0,0,1-4.9-3.53q-1.56-4.4-3.1-8.79l14.2,2.37Z"/>
    <path d="M531.65,539.7q4.9,9.78,9.8,19.58l9.1-12L539,532.72Z" style="fill: #fff"/>
    <path d="M538.56,532.17l-7.68,7.28,10,20.07,1,.25,9.41-12.36-11.93-15.08Zm2.93,25.91Q537,549,532.42,539.94l6.6-6.26q5.36,6.77,10.72,13.56Z"/>
    <path d="M594.3,606v18.4c0,13,72.1,28.73,72.1,15.65v-18.4C666.4,631.27,594.3,613.61,594.3,606Z" style="fill: #fff"/>
    <path d="M633.32,620.28a212.58,212.58,0,0,1-26.53-7.5c-11.54-4.24-11.88-6.43-11.88-6.66l-1.22-.27v18.4c0,3.42,3.95,7,11.74,10.53a128.06,128.06,0,0,0,24.92,7.88c13.62,3,36.66,5.77,36.66-2.49v-18.4l-1.22-.26C665.79,624.31,655.63,625.15,633.32,620.28Zm32.47,19.63c0,5.19-15.24,5.82-35.44,1.41s-35.44-11.62-35.44-16.8V608.16c1.46,1.38,4.67,3.32,11.71,5.91a211.88,211.88,0,0,0,26.7,7.55c6.87,1.51,27.26,5.55,32.47,2.19Z"/>
    <path d="M563.85,582.65c-24.15-15.74-27.65-37-27.65-37.07s-1.75,15.75-6.3,22.9c6.3,36.32,64.4,49.28,64.4,49.39V606c-1.4-4.9,1.05-5.92,10.5-5.4,3.85.45,2.1-6.06,2.1-6.06S581.7,594,563.85,582.65Z" style="fill: #fff"/>
    <path d="M606.79,593.84c-.25,0-25.24-.62-42.71-11.76-23.53-15.34-27.24-36.27-27.28-36.5l-1.21-.2c0,.15-1.79,15.69-6.21,22.65l-.13.2,0,.27c6.32,36.44,64.41,49.79,65,50l.62-.54V606.12l0-.22c-.44-1.55-.45-2.54,0-3.21,1-1.57,4.74-1.71,10-1.42a2.37,2.37,0,0,0,2.39-.94c1.3-1.85.28-5.71.23-5.88Zm-.56,5.52a1.45,1.45,0,0,1-1.52.54c-6.93-.37-9.78.12-10.89,1.86-.62,1-.66,2.3-.13,4.2v11.09c-6.23-1.67-57.13-15.13-63.14-48.31,3.31-5.38,5.11-15,5.85-19.93a52.78,52.78,0,0,0,4.06,9.68,68.05,68.05,0,0,0,23.17,24.74c16.33,10.41,39,11.8,42.82,12C606.69,596.38,606.91,598.4,606.23,599.36Z"/>
    <path d="M696.85,611.24c-17.85,4-43.05-6.5-43.05-6.5s-2.1,5.67,1.75,6.89c9.45,3.58,11.9,5.64,10.85,10v11.89c0,.11,58.1,11.52,64.05-22.77-4.55-8.94-7-25.53-7-25.53S720.65,605.43,696.85,611.24Z" style="fill: #fff"/>
    <path d="M724.05,585.24l-1.21-.23a29.48,29.48,0,0,1-4.29,10.58c-3.3,5.19-9.79,12-21.92,15-17.48,3.88-42.47-6.35-42.72-6.46l-.5-.21-.18.49c-.06.14-1.3,3.55-.07,6a3.78,3.78,0,0,0,2.3,1.95c5.29,2,9,3.75,10.14,5.8a4.37,4.37,0,0,1,.21,3.27q0,6,0,12l.62.81c.58.23,58.67,11.22,64.64-23.2l.05-.24-.13-.25C726.54,601.8,724.08,585.4,724.05,585.24ZM667,633V621.85a5.81,5.81,0,0,0-.39-4.29c-1.21-2.24-4.08-4-11-6.58a2.23,2.23,0,0,1-1.41-1.13c-.64-1.24-.29-3.2,0-4.27,3.73,1.47,26.48,10,42.86,6.32,18.44-4.48,24.48-17.76,26.28-23.61.92,5.2,3.1,15.74,6.44,22.47C724.12,641.94,673.24,634.19,667,633Z"/>
    <path d="M534.45,556q.87-5.21,1.75-10.39c3.5-12.72,7,.24,14.35,1.36,2.1-10.7-15.75-21.59-18.2-39.31C531,535.72,518.35,543.22,534.45,556Z" style="fill: #fff"/>
    <path d="M533,507.65l-1.21-.17a107.4,107.4,0,0,1-3.92,23.14c-2.79,10.8-4.48,17.31,6.34,25.88l.89-.3,1.74-10.32c.9-3.26,1.83-5,2.84-5.15s2.23,1,3.71,2.4c1.9,1.8,4.26,4,7.24,4.49l.47.07c0-.16.07-.33.1-.49,1.1-5.6-2.82-11.08-7.37-17.41S534.17,516.42,533,507.65ZM550,546.17c-2.34-.55-4.28-2.38-6-4s-3.26-3.08-4.8-2.77-2.57,2.1-3.62,6c-.54,3.16-1.07,6.33-1.6,9.49-9.15-7.58-7.74-13-5-23.63A114.76,114.76,0,0,0,532.66,512c2.05,7.19,6.35,13.17,10.22,18.56C547.05,536.32,550.67,541.37,550,546.17Z"/>
    <path d="M709.45,580.87c7,1.81,10.5-9.76,14,4.36q1.23,5.41,2.45,10.83v.39c16.1-6.81,2.8-19,1.4-47.64C724.85,565.59,707.35,569.34,709.45,580.87Z" style="fill: #fff"/>
    <path d="M727.91,548.89l-1.21-.3c-1.22,8.28-6.22,13.36-10.63,17.82s-8.32,8.42-7.22,14.47c0,.18.06.36.1.53l.47.12c2.83.72,5.11-.55,6.94-1.57,1.45-.81,2.7-1.52,3.65-1s2,2.66,2.85,6.28L725.29,596v.3l.91.76c10.66-4.5,8.89-11.5,6-23.07A121.07,121.07,0,0,1,727.91,548.89Zm-1.54,46.58q-1.17-5.16-2.33-10.31c-1-4.22-2.16-6.48-3.62-7.34a2.85,2.85,0,0,0-.87-.34c-1.24-.25-2.49.45-3.89,1.23-1.65.93-3.5,2-5.69,1.6-.64-5.07,2.91-8.66,7-12.81,3.79-3.84,8-8.11,10-14.48a132.69,132.69,0,0,0,4,21.15C733.85,585.5,735.33,591.34,726.37,595.47Z"/>
    <path d="M545,580.69c-1.38,1.35-2.31,1.65-3.64,0-1.07-1.33-.7-2.48.84-4l3.85-3.82L544.25,571v0L540,575.35c-2.27,2.36-1.39,4.83.16,6.72,1.77,2.17,3.89,3.26,6.16.81l4.2-4.51-1.4-1.81Z"/>
    <path d="M552.65,589.54c.12-3,.23-6.09.35-9.13l-1.75-1.51-6,8.76,1.75,1.5,3.85-5.73c-.12,3-.23,6.08-.35,9.13l2.1,1.58,5.6-8.82-1.75-1.51Z"/>
    <path d="M554.4,595.65l2.1,1.2q2.28-4.71,4.55-9.41l-1.75-1.51Q556.86,590.78,554.4,595.65Z"/>
    <path d="M565.59,590.31,562.1,588q-1.94,5.15-3.86,10.31l3.86,2.34c3.6,2.19,5.29.81,6.44-2.29S569.19,592.65,565.59,590.31Zm.75,6.92c-1,2.39-1.85,3.21-5.29.55.81-2.25,1.62-4.51,2.44-6.76C567.11,593.16,567.33,594.71,566.34,597.23Z"/>
    <path d="M573.65,594.68l-6.3,9,2.44,1.3,1.4-2.4,4.2,2,.36,2.76,2.44.89q-1.23-6.39-2.44-12.78Zm-1.41,6.6,2.1-3.76c.23,1.58.47,3.16.7,4.74Z"/>
    <path d="M583.38,598l-3.74-1h0q-.2,5.91-.38,11.8l4.12,1c3.83.89,4.91-1.1,5-4.65S587.26,599,583.38,598Zm2.71,6.7c-.12,2.76-.68,3.91-4.5,2.48l.15-7.7h0C585.57,600.29,586.23,601.77,586.09,604.67Z"/>
    <polygon points="618.81 623.94 618.81 623.94 618.81 623.94 618.81 623.94"/>
    <path d="M621.66,622.65l-5.31-1.15v12.26l2.46.53v-4.6a13.12,13.12,0,0,0,3.84.47c1.38-.09,2.33-.85,2.36-3.22A4,4,0,0,0,621.66,622.65Zm-.32,5.29-2.53-.55v-3.45h0l2.46.57C623.33,625,622.94,628.29,621.34,627.94Z"/>
    <path d="M628.94,624.23h0l-4.56,11.27,2.46.53,1-2.83,4.56,1,1,3.29,2.43.53q-2.27-6.63-4.55-13.26Zm-.35,7.23,1.41-4.3,1.74,5Z"/>
    <path d="M636.65,627.84,641.9,629,636,635.74V638l9.1,2v-2.3l-6.3-1.37,6.3-6.68v-1.92l-8.4-1.83Z"/>
    <path d="M673.4,619.69l-2.1-.06,1.05,7.12c.18,1.25-.16,2.33-.83,2.43-.84.13-1.56-.2-2-2.26H667.8c.27,3.36,2.59,4.52,4.41,4.18,1.59-.3,2.61-1.76,2.24-4.29Z"/>
    <path d="M682.86,619.82l-2.12-.1,1.29,6.4c.38,2.27.19,3.34-1.63,3.3-1.45,0-2.16-1.23-2.57-3.77l-1-5.95H674.8l1.11,6.88c.73,3.83,2.94,4.88,5,4.9,2.38,0,4.16-1.08,3.34-5Z"/>
    <polygon points="685.65 627.28 685.65 627.28 685.65 627.28 685.65 627.28"/>
    <path d="M691.1,623.85c-1.35-.34-3.92-.34-4.37-1.27-.55-1.14.47-1.56,1.13-1.76s1.66-.11,2.34,1.29l2.1-.33c-1.12-2.56-2.85-3.13-4.6-2.91-1.56.2-3,.88-3.09,2.65a3.7,3.7,0,0,0,2.16,3.53c1.31.81,3.75.37,4.77,1.25.71.62.55,2-.9,2.37-1,.28-2.38.09-3.24-1.78l-1.75.39a4.72,4.72,0,0,0,5.57,3.26c2.17-.47,2.87-1.44,2.61-3.55A3.76,3.76,0,0,0,691.1,623.85Z"/>
    <path d="M700,618.41l-.7-1.68-7.7,1.84c.23.69.47,1.38.7,2.06l2.8-.94,3.5,9.54,1.75-.78-3.15-9.09Z"/>
    <path d="M699.65,616.42l4.9,11,1.75-.79-4.9-11Z"/>
    <path d="M711.55,619.63h0a2,2,0,0,1-2.91,2.75,6.65,6.65,0,0,1-2.58-6.08c.17-1.4,2.63-1.88,3.74-.09l1.75-1.18c-1.74-2.31-5.67-3.19-7.07.07-.83,1.94-.26,8.46,5,9.67,3.62.83,5.11-3,4.12-5.48Z"/>
    <path d="M710.5,611.37l6.3,10.48,1.75-1.19-6.3-10.47Z"/>
    <path d="M715.41,608.16l3.84,12.27,1.74-1.56-1-2.51,3.15-2.45,2.1,1.56,1.77-1.16L717.15,607Zm5.94,4.25-2.1,1.88-1.41-4.49Z"/>
  </g>
</svg>
