<svg xmlns="http://www.w3.org/2000/svg" viewBox="0 0 1260 1012.04">
  <g>
    <path d="M0,90.08v920C420,738.76,840,1193.28,1260,922V2C840,273.28,420-181.24,0,90.08Z" style="fill: #0d5eaf"/>
    <path d="M280,.8a594.31,594.31,0,0,0-93.33,11.76h0A594.31,594.31,0,0,1,280,.8Z" style="fill: #fff"/>
    <path d="M466.67,422.45C731.11,464.77,995.56,581.68,1260,410.86V308.63c-264.44,170.83-528.89,53.91-793.33,11.6Z" style="fill: #fff"/>
    <path d="M280,307.47c62.22-3,124.44,2.8,186.67,12.76V218c-62.23-9.95-124.45-15.78-186.67-12.76V.8a594.31,594.31,0,0,0-93.33,11.76V217C124.44,230.06,62.22,254.33,0,294.52V396.74c62.22-40.19,124.44-64.46,186.67-77.51V523.67C124.44,536.73,62.22,561,0,601.19V703.41C420,432.1,840,886.62,1260,615.3V513.08c-326.67,211-653.33-17-980-1.17Z" style="fill: #fff"/>
    <path d="M0,907.85c420-271.31,840,183.21,1260-88.1V717.52C840,988.84,420,534.32,0,805.63Z" style="fill: #fff"/>
    <path d="M466.67,218C731.11,260.32,995.56,377.24,1260,206.41V104.19C995.56,275,731.11,158.1,466.67,115.78Z" style="fill: #fff"/>
  </g>
</svg>
