<svg xmlns="http://www.w3.org/2000/svg" viewBox="0 0 1260 1012.04">
  <g>
    <path d="M1260,922C840,1193.28,420,738.76,0,1010.08v-920C420-181.24,840,273.28,1260,2Z" style="fill: #c62139;fill-rule: evenodd"/>
    <path d="M0,1010.08C420,738.76,840,1193.28,1260,922V2C840,273.28,420-181.24,0,90.08Z" style="fill: #c62139;fill-rule: evenodd"/>
    <path d="M30.86,949.28c399.51-225.1,799,174.39,1198.53-51V62c-399.51,225.35-799-174.14-1198.53,50.95Z" style="fill: #00297b;fill-rule: evenodd"/>
    <path d="M630.43,285.6c0-.21-99.1,79-99.1,197.84,0,118,99.1,242.34,99.1,242.54s98.47-73.52,98.47-200.85C728.9,398.66,630.43,285.8,630.43,285.6Z" style="fill: #92dbfc;fill-rule: evenodd"/>
    <path d="M630.43,726s62.72-46.59,88.05-130.5c-58.59-11.89-117.17-25.76-175.76-37.67C568.76,648.2,630.43,726,630.43,726Z" style="fill: #008ce7;fill-rule: evenodd"/>
    <path d="M617.27,556q-2.55,8.29-5.11,16.58c36.24,8,72.48,16.21,108.72,23.62.45-2.34,1.53-5,1.91-7.38l2-18.2C708.57,583.55,617.27,556.09,617.27,556Z" style="fill: #9c8431;fill-rule: evenodd"/>
    <path d="M629,654.26c12.91,2.82,5.93-9.92-10.67-14.17-9-2.31-15.56-12.09-23.9-14.06-8-1.88-12.25-2.75-19.65-9.6a29.93,29.93,0,0,0-13.36-7.35c6.28,14.35,13.05,27.95,19.83,40.45,7.1-6.17,12.66-6,22.26-5.23C609.84,644.5,622.91,652.92,629,654.26Z" style="fill: #ffde52;fill-rule: evenodd"/>
    <path d="M695.12,625.54a14.51,14.51,0,0,1-11.65,2.94c-6.53-1.26-6,4.27-19.51,4.18A80.7,80.7,0,0,1,640.58,629c-4.18-1.84-7.78-4.13-11.13-4-3.33.39-8.43,4.52-2.24,9.16,8.17,5.84,21.34,4.83,28.37,10.44,8.69,6.84,15.5,22,1.14,23.39-8.09.69-21.91,1.89-32.11-2.88-9-2-11.62,4-19.39,2.63-4-.7-6.83,1.68-10.94,4.63C613.87,705.09,630.43,726,630.43,726s51.28-38.07,79.83-107.46l-2.72-.71C702.92,616.58,698.94,622.87,695.12,625.54Z" style="fill: #ffde52;fill-rule: evenodd"/>
    <path d="M663.1,612.72c-8.9-13.93-21.11-41.42-26.92-66.17-6.34-27-5.24-99.07-5-135.61,0-.43.78-.51.86-.67.42-.71.81.44.17-5.07-.17-1.41-1-3-1-4.4,0-2.48-6.29,1.34-7.95,5.4-.38.93,1.2,4.16,1.2,4.73.22,35.17-2.56,103.9,4.3,136.79,4.24,20.35,12,37,19,52.46,4.19,9.81,10.27,20.73,12.1,31.4,1.77,9.71,3.65,13.29,10.85,17.23s18-3.19,11.23-13.74C675.59,625.22,668.84,621.6,663.1,612.72Z" style="fill: #8c4200;fill-rule: evenodd"/>
    <path d="M593.7,495.71c0-.11-.09-.23-.14-.34a2.69,2.69,0,0,0-.34-.58l-.19-.23-5.37-1.17-5.36-1.16-.2.16a1.57,1.57,0,0,0-.34.38c-.14.23-.14.27-.14,2.59s0,2.35.14,2.64a2.44,2.44,0,0,0,.33.54l.2.23,3.13.7,3.13.7v3.95l-.35.22a7.24,7.24,0,0,1-7.14.55c-4-1.92-5.89-5.74-6-11.95-.11-4.56,1-8.18,2.85-9.72a5.27,5.27,0,0,1,3.47-1,7.15,7.15,0,0,1,4.52,1.85A4.88,4.88,0,0,1,587,485.4a6.27,6.27,0,0,1,.82,1.78c.19.57.42,1.36.51,1.74a3.42,3.42,0,0,0,.52,1.45c.35.47.57.5,2.13.27a16.22,16.22,0,0,0,1.69-.32c.47-.17.69-.67.62-1.42a24.62,24.62,0,0,0-1.8-6,13.13,13.13,0,0,0-4.56-5.22,11.71,11.71,0,0,0-4.84-1.9,9.19,9.19,0,0,0-3.27-.13,8.44,8.44,0,0,0-4.35,1.81,11.15,11.15,0,0,0-1.76,1.95,20.11,20.11,0,0,0-2.89,8.87,42.6,42.6,0,0,0,0,6.19,23.46,23.46,0,0,0,4.6,12.27,15.78,15.78,0,0,0,6.24,4.68l.71.28a19.12,19.12,0,0,0,3.23.62,11.69,11.69,0,0,0,8-2.76,5.69,5.69,0,0,0,.82-.74c.28-.4.29-.66.28-7.1Q593.71,498.73,593.7,495.71Z" style="fill: #fff"/>
    <path d="M621,486l-.18-.35c-.34-.69-.27-.66-2.41-1.13l-1.92-.42-.22.18c-.49.39-.45-.61-.5,11.57,0,10.76,0,10.91-.18,11.83-.36,2.43-.84,3.42-1.89,3.89a5.17,5.17,0,0,1-3.53,0,5.06,5.06,0,0,1-3.42-2.41,7.72,7.72,0,0,1-1.15-3.88c-.08-.78-.1-2.18-.11-11.79l0-10.91c0-.11-.09-.23-.14-.34a1.8,1.8,0,0,0-.41-.58c-.26-.23-.34-.25-2.11-.62l-1.84-.37-.22.17a1.54,1.54,0,0,0-.34.48c-.11.28-.12.66-.13,10.82,0,9.43,0,10.66.1,11.84.34,4.25,1.09,6.92,2.61,9.24a11.71,11.71,0,0,0,6.47,4.87,21.28,21.28,0,0,0,3.39.58,7.27,7.27,0,0,0,3.24-.6,5.55,5.55,0,0,0,1.49-1c1.84-1.54,2.8-3.82,3.21-7.66.19-1.81.23-3.86.22-13.68Z" style="fill: #fff"/>
    <path d="M648.15,491.57c-.29-.58-.37-.62-2.49-1.08s-2.21-.48-2.5,0c-.14.22-9.22,30.14-9.33,30.74a1.69,1.69,0,0,0,.29,1.34,1.74,1.74,0,0,0,.4.49c.08,0,1,.26,2.06.48,1.88.4,1.92.41,2.11.26a1.39,1.39,0,0,0,.32-.39c.07-.13.64-2.06,1.26-4.27s1.17-4.09,1.19-4.16.31-.08,4.26.79,4.22.93,4.27,1.08.57,2.11,1.2,4.48c1.38,5.2,1.37,5.16,1.67,5.54.08.09.15.19.23.29l2.13.46c2.13.47,2.13.47,2.33.33a1.18,1.18,0,0,0,.47-1c0-.38-.61-2.61-4.86-17.73C650.48,499.64,648.23,491.73,648.15,491.57Zm-2.46,17.88c-1.39-.31-2.52-.59-2.5-.61s2.33-7.94,2.44-8.34c0-.16.07-.2.1-.1s2.31,8.9,2.4,9.27l.09.33Z" style="fill: #fff"/>
    <path d="M690.89,500.39c-.22-.21-.32-.24-2.59-.72-2.67-.57-2.64-.57-3,0-.1.18-1.27,4.43-3.12,11.34-1.63,6.07-3,11-3,11s-1.32-5.58-2.91-12.38-2.93-12.51-3-12.66a1.94,1.94,0,0,0-.34-.49c-.21-.19-.41-.24-2.83-.76-2.91-.64-2.88-.64-3.21-.13l-.16.26q0,8.22,0,16.42c0,11.12,0,16.54,0,16.77a1.8,1.8,0,0,0,.64,1h0a15.11,15.11,0,0,0,1.92.48L671,531l.25-.16c.48-.34.45.43.46-10.24,0-5.25,0-9.52.06-9.52s1.12,4.57,2.44,10.14,2.44,10.27,2.51,10.42a1.85,1.85,0,0,0,.4.54c.26.24.34.26,1.8.58a15.45,15.45,0,0,0,1.72.31.74.74,0,0,0,.45-.3c.24-.28.32-.58,2.37-8.14l2.45-9,.33-1.18c0,3.16,0,6.32,0,9.48s0,6.32,0,9.48l.15.3a2.54,2.54,0,0,0,.34.53c.19.24.21.24,2.05.63l1.85.4.23-.19a1.5,1.5,0,0,0,.33-.43c.11-.23.11-1.19.14-16.76q0-8.27,0-16.52l-.15-.35A2.1,2.1,0,0,0,690.89,500.39Z" style="fill: #fff"/>
    <path d="M582.63,493.72v3.72l3.51.76,3.51.76V502c0,1,0,2,0,3l-.44.34a9.08,9.08,0,0,1-3.55,1.54c-3.88.75-8.25-1.9-10.13-6.15a21.35,21.35,0,0,1-1.56-9.33c.09-3.78.83-6.51,2.32-8.54a5.59,5.59,0,0,1,4.46-2.19,8.27,8.27,0,0,1,6.7,3.31,12.27,12.27,0,0,1,1.88,4.49c.16.67.21.82.32.81s2.59-.38,2.63-.4-.09-.52-.22-1.11c-1-4.24-2.65-7-5.48-8.81-4.49-2.94-10-2.45-12.7,1.1a18.53,18.53,0,0,0-3,9,40.34,40.34,0,0,0,0,4.92,24.19,24.19,0,0,0,2.68,9.4,14.88,14.88,0,0,0,7.69,6.78,15.53,15.53,0,0,0,3.93.69,11.6,11.6,0,0,0,7-2.72l.55-.44V495.89l-5-1.09Z" style="fill: #bd0728"/>
    <path d="M616.86,485.54q0,5.31,0,10.62c-.05,11.53,0,11.35-.43,13.26-.51,2.5-1.53,3.65-3.41,3.88a8,8,0,0,1-4.86-1.08,7.64,7.64,0,0,1-3.37-5.3c-.33-1.82-.32-1.62-.33-13.22,0-3.63,0-7.27,0-10.9l-1.54-.33-1.54-.34c0,3.4,0,6.81,0,10.21,0,10.43,0,11.45.25,13.46a14.81,14.81,0,0,0,2.14,6.57,10.46,10.46,0,0,0,5.31,4.15,24.71,24.71,0,0,0,4,.72,6.29,6.29,0,0,0,3.38-1c2.23-1.56,3.18-4.06,3.44-9,0-.75.08-5.47.08-11.15,0-3.28,0-6.56,0-9.85l-1.53-.33Z" style="fill: #bd0728"/>
    <path d="M652.09,509.25l-4.77-17-1.67-.34-1.66-.35q-2.22,7.32-4.43,14.64c-2.44,8.05-4.48,14.83-4.56,15.08s-.09.3-.13.45l1.62.35,1.63.37c.44-1.53.87-3.06,1.3-4.59l1.31-4.58,5,1.13,5,1.12,1.06,4c.59,2.2,1.2,4.52,1.37,5.14l.3,1.14,1.74.38c1.63.36,1.74.37,1.7.21S654.72,518.6,652.09,509.25Zm-6.4,1.66c-3.84-.84-4.06-.9-4-1s.68-2.3,1.45-4.94a72.6,72.6,0,0,0,2.22-8.5,7.61,7.61,0,0,1,.25-1.15s.27,1.12.58,2.42,1.22,4.95,2,8.08,1.5,5.77,1.52,5.86S649.52,511.75,645.69,510.91Z" style="fill: #bd0728"/>
    <path d="M686.19,500.66q-1.32,4.92-2.65,9.85c-1.46,5.42-3,11.28-3.49,13s-.85,3.19-.86,3.21a7.09,7.09,0,0,1-.25-1c-.12-.57-1.63-7.11-3.35-14.54q-1.58-6.75-3.14-13.51l-2.31-.53-2.33-.53q0,8.06,0,16.11t0,16.1l1.47.32,1.47.32q0-6.87,0-13.75c0-7.57,0-13.7.08-13.62s1.57,6.61,3.43,14.51q1.69,7.18,3.38,14.36l1.39.3,1.39.29c.09-.32.18-.64.26-1,.15-.53,1.7-6.25,3.45-12.7s3.2-11.78,3.23-11.82.06,6,0,13.45q0,6.76,0,13.53l1.47.31,1.46.32,0-16.11q0-8.06,0-16.1l-2.08-.42Z" style="fill: #bd0728"/>
    <path d="M603,436.39l0-.09S602.92,436.34,603,436.39Z" style="fill: #109421;fill-rule: evenodd"/>
    <path d="M607.16,457.53a3.44,3.44,0,0,0,0,.51C607.16,458.12,607.17,457.91,607.16,457.53Z" style="fill: #109421;fill-rule: evenodd"/>
    <path d="M679.24,396.09a34.33,34.33,0,0,1,5.91,4.6c-1.6-5.78-7.66-12.75-18.31-16.57-2-.7-9.9-2.85-16.63-2.19-5.52.54-9.87.58-9-.41,3.65-4.07,9.54-3.38,11.16-4.16,1.16-.55-3.91-4.32-2.9-4.48s5.53.36,5.53.36c1-.83-3.29-3.79-2.66-5.17,1.28-2.76,8.84,1.64,9.48.62.21-.34-3.24-3.87-3.1-4.25.55-1.42,7.28,2.71,7.43,1.4,0,0-2-2.51-3.49-4.52-.17-.24,6-1.17,6-1.17a13.18,13.18,0,0,0-2.48-2.35c-1.29-1,5.43-1.9,5.43-1.9-8.51-7.11-30.61,3.15-35,17.82-1.14,3.48-1.17-.58-.93-3.69a61.38,61.38,0,0,0,.27-9.44c-.08-.94-1.8,2.07-1.92,1.14-.44-3.42.86-6.77.27-10.59-.2-1.28-2.49,3.12-2.79,1.81-.84-3.58.63-8.05,0-12.88-.23-1.88-2.4,3.41-3.12,1.6-.85-2.08-.48-9.06-.88-10.22-.32-.92-2.25,2.9-2.41,2.06-2.62-13.5.85-14.36-4.16-8.16-.18.22-1.29-7.93-1.48-7.7-2.06,5.54-5.43-5.45-6.58-4.75-.86.55,2.35,5.21,2.38,7,0,.87-3,.28-3,.28.07,1.49,5.65,6.85,5.83,8.5.14,1.37-4,.15-4,.15.13,1.84,4.78,4.57,5,6.55.15,1.09-2.17.82-2.1,1.91.12,1.68,4.5,5.9,4.64,7.61.1,1.19-2.79,1-2.86,2.12-.09,1.3,5.81,7,5.81,8.25,0,1.76-2.34.34-3.41,1-1.51.91,4.82,7.31,5.09,8.8.21,1.31-2.53-.4-2.62.73-.12,1.47,3.1,4.44,3.83,7.18s0,3.19-1.07,1.95c-2.12-2.5-10.67-16.72-12.94-20.51-3.3-5.51-10-12.34-16.79-14.11-.7.14,3.62,5.24,3.65,6.76,0,.39-1.94.54-1.85.68,1.19,1.88,4.91,4.63,4.91,4.63l-1.06,2.38c.25.82,2,1.41,4.84,3.29,0,0-2.12,1.32-2,1.52a19.92,19.92,0,0,0,4.4,3.79l-2.86.68c-.17.71,6.43,5.74,6.43,5.74a16.64,16.64,0,0,0-2,2.12c.51.8,5.36,3.38,5.36,3.38s-3.43.85-3.41.89c1.27,2,4.78,3.33,5.6,6.37,0,0,.48,1.73-.9,1.12-5.46-3.88-13.92-11.31-30.31-12.64-16.76-.63-29.54,16.57-29.32,18.59,0,0,6-4.6,6.63-3.28.45.93.38,4.53.38,4.53.37.37,6.31-5.56,6.31-5.23,0,1.51.14,4.65.14,4.65s6.14-6.65,6.4-5.76a35.25,35.25,0,0,1,0,5.54s4.09-5.26,4.84-6.21c.54-.67.45,1.1.5,4,0,.52,6.71-5.28,7.11-5.32.87-.07,1.14,4,1.09,5,0,.74,6.17-3.49,5.9-2.81.15,1.45.31,2.91.46,4.37,1.73.05,5.85-1.15,8.33-.07.8.35.76.88,0,1.13-11.95,4-21.15,11.94-26.5,24.64-1.82,4.32-2.38,8.31-1.9,9.45,0,0,2.15-5.84,4.57-6.31.33-.06.54,4.15.87,4,0,0,1.84-5.92,3.16-8,.36-.54.95,3.52,1.33,3a21.59,21.59,0,0,1,2.81-6.55c.27-.36.75,4.15,1,3.84,1.93-2,3.75-7.7,4.47-8,.51-.43.6,5.18,1.08,4.8,0,0,2.76-6.94,4.41-8,1-.66,1,4.34,1,4.34,2.11-2.37,4.42-6.55,5.52-8.34.51-.82.23,6.22.77,6.61.69.51,5.22-4.3,5.73-4.31.34,0,.73,1.81-.15,3l-5.6,7.57c1.07.51,1.49.19,2.26.63,2.3,1.32-4.29,5-4.18,6,0,0,3.17.61,2.11,1.21-.77.45-5,6.89-5,6.63s2.1.52,2.09,1.34c0,1.42-3,7.7-3.47,8.49.32-.1,1.85.27,2.09,1,.51,1.54-3.57,7-2.77,8.27.11.18,2.33.55,3.32,1.07.4.21,1.43,8.71,1.52,10.9a129.73,129.73,0,0,1,2.29-12.9c.56-1.83,2.34,3.45,2.49,3.05a89.79,89.79,0,0,1-.11-10.16c.07-.87,1.35,1.22,1.33.37a34,34,0,0,1,.13-5.82c.22-1.36,1.31,2.84,1.74,1.87,0,0-1.33-7.18-.78-9,.37-1.2,1.25,3.37,1.83,3.67,0,0-.32-5.42.29-6.68l1.84,3.09c.4-.77.32-9.13.7-9.83s2.21,3.61,2.5,3.08-.81-6.91-.57-7.35c.34-.63,2.43,2.25,2.47,2.22.86-1,.83-3.91,1.19-4.91,1-2.73,6.49-1.9,7.14.33a11.23,11.23,0,0,1,0,3.88c.06.07,2.77.94,2.8.66a55.38,55.38,0,0,0-.14,7.22c0,.51,2.76.48,2.8,1,.25,3.63-.36,3.83-.36,3.83,0,.27,1.84,0,1.87.31a11.42,11.42,0,0,1-1,5.69c-.12.27,2.61.29,2.65.64a36.53,36.53,0,0,1,0,8.62c0,.3,2.67-2.1,2.71-1.78.4,3.28-.07,6.62.18,10,.05.78,1.78-1.9,1.94-1s-.39,7.11-.13,7.52c0,0,2.89.43,3.15.82,2.28,3.42,1.85,8.43,1.85,8.43.62-.49.39-6.69-.25-12.46-.07-.6,2.22.12,2.15-.45,0,0-2.51-2.6-3.33-8.5-.18-1.26,2.42-.44,2.42-.44-.72-2.41-2-3.11-3.06-5.51-.35-.79,2.7-.45,2.7-.66,0-2.15-2.57-3.74-3.9-6.27-.57-1.08,2.77-.4,2.77-.4-1-2.07-4.21-3.59-5.86-6.41-.9-1.53,3.28-1.93,3.23-2.17-.46-2.07-4.39-3.54-6.3-6.18-.39-.54,2.49-1.46,2.49-1.46-.29-.9-6.57-7.89-3.38-6.68,1.35.51,4.09,3.72,4.3,3.37,0,0-.11-3.31.16-3.64,1-1.26,4.68,7.32,5.91,7.27,0,0,.45-5.48,1-5.51,1.33,0,2.94,8.77,4.25,9.05.17,0,.27-4.83.94-5s1.62,5.84,2.58,7.33.91-4.33,1.43-3.13c.89,1.94,1.1,5.63,2.32,7.49.79,1.22.93-4.82,1.81-3.82,1,1.16.78,4.25,1.92,6.05.55.85.91-3.81,1.53-3s.93,6.61,1.52,7.65c.76,1.33,1.63-2.71,2.41-1.87.56.61.43,5.6.95,6.79,1.07,2.45,1.63-2.35,2.34-1.44.49.62,1.56,6.62,2,7.17,1,1.24,1.54-2.3,2.29-1.62.55.48,1.65,8.14,2.1,8.05s1-16.71-3.72-24.81c-7.74-13.2-21.6-22.86-32.92-25.49,0,0,5.69-.31,5.84-1.55.3-2.49,3.12-1.58,5.09-.57.35.18.17-4.47.21-4.49,1.76.33,3.34,2.08,5,3.84.52.55-1.06-4.85-.51-4.3,2.17,2.17,4.57,3.18,6,5.56.38.63-.44-4-.44-4,1.08-.13,3.21,2.45,4,4.61.41,1.07,0-5.18.3-4,0,0,3.76,2.55,4.17,4.79,0,0,.31-3.84.81-3.52,1.51.86,2.84,4.61,4,5.36C679.35,399.46,678.86,395.88,679.24,396.09Z" style="fill: #109421;fill-rule: evenodd"/>
    <path d="M623.67,396.06c-1.65,1.08-2.07,4.08-.95,6.7s3.37,3.86,5,2.78,2.06-4.08.94-6.7S625.31,395,623.67,396.06Z" style="fill: #8c4200;fill-rule: evenodd"/>
    <path d="M633.92,402.29c-1.87-2.06-4.44-1.75-5.72.68a7.63,7.63,0,0,0,1.08,8.12c1.88,2.06,4.44,1.75,5.72-.68A7.6,7.6,0,0,0,633.92,402.29Z" style="fill: #8c4200;fill-rule: evenodd"/>
    <path d="M629.29,405.51c-2-2.19-4.74-1.87-6.11.73a8.15,8.15,0,0,0,1.15,8.67c2,2.19,4.74,1.87,6.11-.73A8.13,8.13,0,0,0,629.29,405.51Z" style="fill: #8c4200;fill-rule: evenodd"/>
    <path d="M593.65,594.09l5.34,1.15v-5.43l-5.34-1.15Z" style="fill-rule: evenodd"/>
    <path d="M585.23,600.36c-.31,2.09-.28,3.82.75,4.49,6.43,2.88,19.16,4.81,19.67,3.84s.21-3.88.21-3.88A78.47,78.47,0,0,1,585.23,600.36Z" style="fill: #8c4200;fill-rule: evenodd"/>
    <path d="M623.52,596C602,597.54,567,586.44,567,586.48s-1.45-.7-1.45-.65a11.78,11.78,0,0,0,1.74,4.54c4.75,7,13.81,8.37,14.06,9s.76,4.44.07,4.58a13.07,13.07,0,0,1-3.31-.7c3,6.43,17.4,9.1,21.75,9.81,13.27,2.19,13.78-2.85,13.78-2.85l-1.08.06c-1.08.06-3.28-.27-3.36-1.66a13.78,13.78,0,0,1,.8-3.85c3.6-.1,10.17.44,12.77-3.11S623.52,596,623.52,596Zm-17.87,12.7c-.51,1-13.24-1-19.67-3.84-1-.67-1.07-2.4-.75-4.49a78.47,78.47,0,0,0,20.63,4.45S606.15,607.72,605.65,608.69Z" style="fill: #8c4200;fill-rule: evenodd"/>
    <path d="M580.86,529c4,40.12-9,56.18-9,56.18q22.57,4.23,45.16,8.65c-4.74-20.68-8.77-27.06-8.77-27.06C594.42,536.63,580.86,529,580.86,529Z" style="fill: #fdf9ff;fill-rule: evenodd"/>
    <path d="M630.43,285.6c0-.21-99.1,79-99.1,197.84,0,118,99.1,242.34,99.1,242.54s98.47-73.52,98.47-200.85C728.9,398.66,630.43,285.8,630.43,285.6Z" style="fill: #c62139;fill-rule: evenodd"/>
    <path d="M630.48,258.29c0-.28-111.4,88.94-111.4,222.6,0,132.47,111.4,272.12,111.4,272.41s110.68-82.73,110.68-226C741.16,385.29,630.48,258.58,630.48,258.29ZM630.43,726c0-.2-99.1-124.57-99.1-242.54,0-118.79,99.1-198,99.1-197.84S728.9,398.66,728.9,525.13C728.9,652.46,630.43,726.18,630.43,726Z" style="fill: #c62139;fill-rule: evenodd"/>
  </g>
</svg>
