<svg xmlns="http://www.w3.org/2000/svg" viewBox="0 0 1260 1012.04">
  <g>
    <path d="M0,90.08v920C420,738.76,840,1193.28,1260,922V2C840,273.28,420-181.24,0,90.08Z" style="fill: #fcd116"/>
    <path d="M0,1010.08C420,738.76,840,1193.28,1260,922V462C840,733.28,420,278.76,0,550.08Z" style="fill: #009e49"/>
    <path d="M0,90.08v920c140-90.44,280-100.23,420-83.14V6.94C280-10.15,140-.36,0,90.08Z" style="fill: #ce1126"/>
    <path d="M177.55,467.05q25,6.17,49.93,14.7-8.73-83.6-17.48-166.9Q193.77,390.45,177.55,467.05Z"/>
    <path d="M192.52,487.56q25-16.81,49.93-31.33Q226.22,385.09,210,314.85,201.26,401.05,192.52,487.56Z"/>
    <path d="M204.86,498.34a1326.61,1326.61,0,0,1,105-85.71,623.56,623.56,0,0,0-105,9.05Z"/>
    <path d="M224.91,508.65c28.32-34,56.64-65.84,85-96a716.5,716.5,0,0,0-115.8,39.15Q209.48,479.79,224.91,508.65Z"/>
    <path d="M189.34,473.92C216.8,509,244.26,546.28,271.72,585.3q-16.23-71.91-32.45-143Q214.31,457,189.34,473.92Z"/>
    <path d="M186.77,506.46c28.32,24.11,56.63,50.54,85,78.84q-27-74.41-54.09-146.43Q202.2,472.23,186.77,506.46Z"/>
    <path d="M148.28,606.13c28.32-38.17,56.63-73.82,84.95-107.39q-15.43-29.1-30.86-57.34Q175.33,522.34,148.28,606.13Z"/>
    <path d="M148.28,606.13c27.46-48.6,54.92-94.82,82.38-139.08q-25-8.62-49.93-15Q164.5,528.58,148.28,606.13Z"/>
    <path d="M195.09,513.61q15.42-34,30.85-67.12c-38.6-4.07-77.2-4.2-115.8.72A985.52,985.52,0,0,1,195.09,513.61Z"/>
    <path d="M215.14,496.64V420a543,543,0,0,0-105,27.24C145.14,459.81,180.14,476.56,215.14,496.64Z"/>
  </g>
</svg>
