<svg xmlns="http://www.w3.org/2000/svg" viewBox="0 0 1260 1012.04">
  <g>
    <path d="M0,90.08v920C420,738.76,840,1193.28,1260,922V2C840,273.28,420-181.24,0,90.08Z" style="fill: #009e49"/>
    <path d="M0,1010.08C420,585.43,840,886.62,1260,462,840,580,420-27.91,0,90.08Z" style="fill: #fff"/>
    <path d="M0,130.1v840C383,582.62,766.08,798.9,1149.12,517.72,766.08,518.91,383,22.65,0,130.1Z" style="fill: #fcd116"/>
    <path d="M0,90.08v920C210,721.08,420,613.55,630,506,420,306.89,210,107.75,0,90.08Z"/>
    <path d="M0,143.74V956.41c185.51-255.29,371-369,556.54-466.12C371,316.56,185.51,159.35,0,143.74Z" style="fill: #ce1126"/>
  </g>
</svg>
