<svg xmlns="http://www.w3.org/2000/svg" viewBox="0 0 1260 1012.04">
  <g>
    <path d="M0,90.08v920C420,738.76,840,1193.28,1260,922V2C840,273.28,420-181.24,0,90.08Z" style="fill: #de2910"/>
    <path d="M688.85,250.72C547.91,209.66,482.58,406.27,630,505.88c-32.41-34.79-24.3-86.27,16.21-97.41,24.65-6.78,44.56-52.55,26.33-87.49C656.2,289.72,660.33,260.72,688.85,250.72Z" style="fill: #fff"/>
    <path d="M634,328.55l-14.35,3.07-11.32-13.94q.47,8.54.94,17.07l-13.48,5.34,15,7.47,3,17.24q4.15-6.23,8.29-12.45l15.32,5.32-9.8-15.18Z" style="fill: #de2910"/>
    <path d="M592.33,440.08c-7.16-30.16-3-60.07,11.31-81.95l-3.09-2.8c-14.89,22.74-19.17,53.75-11.74,85.05,6.62,27.82,21.3,52.27,40.31,67.1l1.66-3.19C613,490.38,598.59,466.38,592.33,440.08Z" style="fill: #de2910"/>
    <path d="M630.1,506c14.06-39.26,62.8-36.59,92.66,5.32,18.16,25.74,67.71,40,89,14.27,19.06-22.7,46.34-24.3,69.09,2.22-17.19-75.58-76.47-121.41-133.16-129.83C691.05,390,637,419.51,630.1,506Z" style="fill: #fff"/>
    <path d="M782.73,457.38q-7.17,1.89-14.36,3.72-5.67-6.74-11.34-13.52.48,8.54,1,17.05-6.74,2.89-13.47,5.75,7.47,3.53,14.94,7,1.5,8.56,3,17.12l8.29-12.77q7.66,2.32,15.33,4.58-4.92-7.32-9.82-14.69Z" style="fill: #de2910"/>
    <path d="M666.52,453.53c-20.89,10.55-34.83,29.35-38.23,51.71l3.6,1.42c3.2-21,16.89-39.38,36.63-49.37,22.64-11.43,50.64-10.78,76.78,1.39l.9-3.71C719.05,442.36,690,441.67,666.52,453.53Z" style="fill: #de2910"/>
    <path d="M630.11,506.12c41.1,10.55,63.12,63.46,41.06,101-13.42,22.77-2.71,78.43,28.71,98.39,28.06,17.76,40.79,47,26.34,75.53C845.91,719.64,785.94,500.33,630.11,506.12Z" style="fill: #fff"/>
    <path d="M742.77,635.74l-14.36,3.42q-5.67-6.85-11.33-13.74.46,8.52.94,17.05-6.74,2.78-13.46,5.52,7.47,3.66,14.93,7.28,1.51,8.58,3,17.17l8.29-12.62q7.65,2.5,15.32,4.95l-9.82-14.91Q739.54,642.81,742.77,635.74Z" style="fill: #de2910"/>
    <path d="M693.76,539.1c-19.53-21.18-42.83-34-63.93-35,.18,1.35.37,2.71.56,4.07,19.79,1,42.63,13.57,61.09,33.59,21.15,23,34.34,53.12,36.13,82.94l3.65.45C729.38,594.17,715.71,563,693.76,539.1Z" style="fill: #de2910"/>
    <path d="M630,506.16c11.34,45.82-23.8,75.82-67.29,56.77-26.45-11.71-69.39,7.94-71.3,44.59-1.72,32.69-21.13,50.58-52.81,40.77,108.35,114.63,274,27.13,191.4-142.14Z" style="fill: #fff"/>
    <path d="M569.31,614.82Q562.13,616.41,555,618q-5.66-6.9-11.33-13.78l.93,17q-6.72,2.78-13.45,5.58,7.47,3.58,14.94,7.21,1.5,8.6,3,17.19l8.3-12.55,15.33,5.19q-4.9-7.56-9.82-15.1Q566.07,621.81,569.31,614.82Z" style="fill: #de2910"/>
    <path d="M628.34,506.7c9,21.55,9.47,47.79,1.14,70.19-9.57,25.69-29.42,43.57-54.45,49.24l1.35,4c26-5.89,46.57-24.42,56.51-51.08a100.86,100.86,0,0,0-1.29-73.45Z" style="fill: #de2910"/>
    <path d="M547.22,440.32c-2.92-30-40.17-73.84-72.77-69.78-29.12,3.53-53.85-13-59-48.25-26.36,69.41,1,139.87,48.14,182.29,47.09,41.94,113.87,55.84,166.26,1.42h0C595.78,523.67,552.05,489.58,547.22,440.32Z" style="fill: #fff"/>
    <path d="M502.05,425.7q-7.17,1.77-14.35,3.62-5.67-6.72-11.33-13.4.47,8.52.94,17-6.74,3-13.47,6.05,7.47,3.3,14.94,6.67,1.5,8.55,3,17.1,4.15-6.42,8.3-12.83,7.65,2.34,15.32,4.75l-9.81-14.81Z" style="fill: #de2910"/>
    <path d="M568.2,514.1c-27.07-7.09-52.53-25.83-69.79-51.6l-2.81,2.05c17.94,26.72,44.33,46.15,72.43,53.51,25,6.51,48,2.85,63.13-10.35l-2.57-3.4C614.38,516.69,591.81,520.25,568.2,514.1Z" style="fill: #de2910"/>
  </g>
</svg>
