<svg xmlns="http://www.w3.org/2000/svg" viewBox="0 0 1260 1012.04">
  <g>
    <path d="M1260,2V922h0V2Z" style="fill: #0073cf"/>
    <path d="M0,90.08v920C420,738.76,840,1193.28,1260,922V2C840,273.28,420-181.24,0,90.08Z" style="fill: #0073cf"/>
    <path d="M1260,308.63h0V615.3h0Z" style="fill: #fff"/>
    <path d="M0,396.74V703.41C420,432.09,840,886.62,1260,615.3V308.63C840,580,420,125.43,0,396.74Z" style="fill: #fff"/>
    <path d="M619.18,501.16l16.65,11.53q-2.91-28.89-5.83-57.78Q624.59,478,619.18,501.16Z" style="fill: #0073cf"/>
    <path d="M624.17,510.15l16.65-4.27q-5.42-25.49-10.82-51Q627.09,482.53,624.17,510.15Z" style="fill: #0073cf"/>
    <path d="M628.29,515.41q17.49-9,35-17.95-17.5-3.78-35-7.61Z" style="fill: #0073cf"/>
    <path d="M635,521.35q14.16-11.93,28.32-23.89-19.31.53-38.6,1Q629.82,509.9,635,521.35Z" style="fill: #0073cf"/>
    <path d="M625,519.19q5.15-9.23,10.28-18.44Q616,491.87,596.71,483,610.87,501.07,625,519.19Z" style="fill: #0073cf"/>
    <path d="M631.71,516.16V490.6q-17.49-3.81-35-7.61Q614.21,499.55,631.71,516.16Z" style="fill: #0073cf"/>
    <path d="M623.11,505.16q13.74,23.34,27.46,46.69-5.4-25.47-10.81-51Z" style="fill: #0073cf"/>
    <path d="M622.26,515.64q14.16,18.11,28.31,36.21l-18-54.64Z" style="fill: #0073cf"/>
    <path d="M609.43,542.89,637.74,519,627.46,496.1Z" style="fill: #0073cf"/>
    <path d="M609.43,542.89l27.46-34.73-16.65-11.53Q614.84,519.76,609.43,542.89Z" style="fill: #0073cf"/>
    <path d="M794.18,454.34q8.33,5.28,16.65,10.45-2.91-28.68-5.83-57.38Q799.59,430.9,794.18,454.34Z" style="fill: #0073cf"/>
    <path d="M799.17,463q8.33-2.64,16.65-5.41-5.42-25.07-10.82-50.2Q802.09,435.22,799.17,463Z" style="fill: #0073cf"/>
    <path d="M803.29,468q17.49-10.09,35-20.7-17.5-2.16-35-4.85Z" style="fill: #0073cf"/>
    <path d="M810,473.51q14.16-12.93,28.32-26.19-19.31,2.3-38.6,4Q804.82,462.42,810,473.51Z" style="fill: #0073cf"/>
    <path d="M800,472q5.15-9.54,10.28-19.12-19.29-7.53-38.6-15.6Q785.87,454.78,800,472Z" style="fill: #0073cf"/>
    <path d="M806.71,468.54V443q-17.49-2.62-35-5.7Q789.21,453.13,806.71,468.54Z" style="fill: #0073cf"/>
    <path d="M798.11,458.1q13.74,22.5,27.46,44.72-5.4-25-10.81-50.12Q806.44,455.46,798.11,458.1Z" style="fill: #0073cf"/>
    <path d="M797.26,468.64q14.16,17.24,28.31,34.18-9-26.58-18-53.28Q802.4,459.11,797.26,468.64Z" style="fill: #0073cf"/>
    <path d="M784.43,496.6q14.16-12.66,28.31-25.62-5.15-11.09-10.28-22.21Q793.45,472.74,784.43,496.6Z" style="fill: #0073cf"/>
    <path d="M784.43,496.6q13.73-18.08,27.46-36.42-8.32-5.16-16.65-10.43Q789.84,473.2,784.43,496.6Z" style="fill: #0073cf"/>
    <path d="M794.18,607.67q8.33,5.28,16.65,10.45-2.91-28.68-5.83-57.37Q799.59,584.22,794.18,607.67Z" style="fill: #0073cf"/>
    <path d="M799.17,616.36q8.33-2.65,16.65-5.41-5.42-25.08-10.82-50.2Q802.09,588.56,799.17,616.36Z" style="fill: #0073cf"/>
    <path d="M803.29,621.36q17.49-10.11,35-20.71-17.5-2.16-35-4.85Z" style="fill: #0073cf"/>
    <path d="M810,626.85q14.16-12.93,28.32-26.2-19.31,2.31-38.6,4Q804.82,615.75,810,626.85Z" style="fill: #0073cf"/>
    <path d="M800,625.34q5.15-9.54,10.28-19.12-19.29-7.51-38.6-15.59Q785.87,608.12,800,625.34Z" style="fill: #0073cf"/>
    <path d="M806.71,621.88V596.32q-17.49-2.62-35-5.69Q789.21,606.45,806.71,621.88Z" style="fill: #0073cf"/>
    <path d="M798.11,611.43q13.74,22.52,27.46,44.72-5.4-25-10.81-50.11Q806.44,608.79,798.11,611.43Z" style="fill: #0073cf"/>
    <path d="M797.26,622q14.16,17.25,28.31,34.18-9-26.56-18-53.28Q802.4,612.44,797.26,622Z" style="fill: #0073cf"/>
    <path d="M784.43,649.94q14.16-12.68,28.31-25.63-5.15-11.09-10.28-22.21Q793.45,626.09,784.43,649.94Z" style="fill: #0073cf"/>
    <path d="M784.43,649.94q13.73-18.08,27.46-36.42-8.32-5.16-16.65-10.44Q789.84,626.53,784.43,649.94Z" style="fill: #0073cf"/>
    <path d="M444.18,385.87q8.32,5.14,16.65,10.39-2.91-28.71-5.83-57.41Q449.59,362.34,444.18,385.87Z" style="fill: #0073cf"/>
    <path d="M449.17,394.49q8.32-2.73,16.65-5.34Q460.41,364,455,338.85,452.09,366.67,449.17,394.49Z" style="fill: #0073cf"/>
    <path d="M453.29,399.47q17.49-10.16,35-19.86-17.51-3.06-35-5.7Z" style="fill: #0073cf"/>
    <path d="M460,405q14.16-12.83,28.32-25.37-19.31,1.32-38.6,3.13Z" style="fill: #0073cf"/>
    <path d="M450,403.47q5.14-9.59,10.28-19.12-19.29-7.68-38.6-14.77Q435.87,386.35,450,403.47Z" style="fill: #0073cf"/>
    <path d="M456.71,400V374.43q-17.49-2.67-35-4.85Q439.22,384.52,456.71,400Z" style="fill: #0073cf"/>
    <path d="M448.11,389.58q13.74,22.37,27.46,45-5.4-25.21-10.81-50.37Q456.43,386.85,448.11,389.58Z" style="fill: #0073cf"/>
    <path d="M447.26,400.12q14.16,17.08,28.31,34.47-9-26.86-18-53.6Q452.4,390.53,447.26,400.12Z" style="fill: #0073cf"/>
    <path d="M434.43,428.37q14.16-13.11,28.31-25.9-5.14-11.14-10.28-22.25Q443.45,404.22,434.43,428.37Z" style="fill: #0073cf"/>
    <path d="M434.43,428.37q13.72-18.51,27.46-36.71-8.33-5.25-16.65-10.4Q439.84,404.79,434.43,428.37Z" style="fill: #0073cf"/>
    <path d="M444.18,539.2q8.32,5.14,16.65,10.39-2.91-28.71-5.83-57.4Q449.59,515.67,444.18,539.2Z" style="fill: #0073cf"/>
    <path d="M449.17,547.82q8.32-2.72,16.65-5.34-5.42-25.17-10.82-50.29Q452.09,520,449.17,547.82Z" style="fill: #0073cf"/>
    <path d="M453.29,552.8q17.49-10.15,35-19.86-17.51-3-35-5.69Z" style="fill: #0073cf"/>
    <path d="M460,558.31q14.16-12.82,28.32-25.37-19.31,1.32-38.6,3.14Z" style="fill: #0073cf"/>
    <path d="M450,556.8l10.28-19.11Q441,530,421.71,522.91,435.87,539.68,450,556.8Z" style="fill: #0073cf"/>
    <path d="M456.71,553.32V527.76q-17.49-2.67-35-4.85Q439.22,537.85,456.71,553.32Z" style="fill: #0073cf"/>
    <path d="M448.11,542.91q13.74,22.37,27.46,45-5.4-25.2-10.81-50.37Q456.43,540.17,448.11,542.91Z" style="fill: #0073cf"/>
    <path d="M447.26,553.46q14.16,17.07,28.31,34.46-9-26.86-18-53.6Q452.4,543.86,447.26,553.46Z" style="fill: #0073cf"/>
    <path d="M434.43,581.7q14.16-13.11,28.31-25.9-5.14-11.14-10.28-22.25Q443.45,557.56,434.43,581.7Z" style="fill: #0073cf"/>
    <path d="M434.43,581.7q13.72-18.51,27.46-36.7-8.33-5.25-16.65-10.4Q439.84,558.12,434.43,581.7Z" style="fill: #0073cf"/>
  </g>
</svg>
