<svg xmlns="http://www.w3.org/2000/svg" viewBox="0 0 1260 1012.04">
  <g>
    <path d="M0,90.08v920C420,738.76,840,1193.28,1260,922V2C840,273.28,420-181.24,0,90.08Z" style="fill: #fff"/>
    <path d="M0,320.08C420,48.76,840,503.28,1260,232V88.22C840,359.53,420-95,0,176.33Z" style="fill: #0038b8"/>
    <path d="M0,923.83C420,652.51,840,1107,1260,835.72V692C840,963.28,420,508.76,0,780.08Z" style="fill: #0038b8"/>
    <path d="M485.46,560.47c96.36,16.63,192.72,42,289.08,58.67C726.36,527,678.18,432.75,630,338.46,581.82,411.73,533.64,485,485.46,560.47Z" style="opacity: 0"/>
    <path d="M458.18,571.82c114.55,17.62,229.09,50,343.64,67.59C744.55,531,687.27,418.92,630,306.84,572.73,393.94,515.45,481,458.18,571.82Zm54.56-22.24C551.83,489,590.91,429.53,630,370.09c39.09,76.49,78.17,153,117.26,228.3C669.09,583.68,590.91,564.29,512.74,549.58Z" style="fill: #0038b8"/>
    <path d="M630,673.58c48.18-73.27,96.36-146.54,144.54-222-96.36-16.63-192.72-42-289.08-58.66C533.64,485,581.82,579.29,630,673.58Z" style="opacity: 0"/>
    <path d="M630,705.21c57.27-87.1,114.55-174.21,171.82-265-114.55-17.62-229.09-50-343.64-67.58C515.45,481,572.73,593.12,630,705.21ZM630,642c-39.09-76.49-78.17-153-117.26-228.31,78.17,14.71,156.35,34.1,234.52,48.81C708.17,523.07,669.09,582.51,630,642Z" style="fill: #0038b8"/>
  </g>
</svg>
