<svg xmlns="http://www.w3.org/2000/svg" viewBox="0 0 1260 1012.04">
  <g>
    <path d="M0,90.08v920C420,738.76,840,1193.28,1260,922V2C840,273.28,420-181.24,0,90.08Z" style="fill: #cf142b"/>
    <path d="M487.34,419.32c-.37-.35,7.6-12.79,7.69-13s-14.3,2.07-14.4,2.34-5.63-5.56-6.09-6.33h0c-.56.17-4.84-1.72-4.84-1.72l-3.3,12.06s-11,3.6-10.86,3.78,12.88,8.68,12.88,8.7q1.13,7.89,2.26,15.79,5.06-5.12,10.1-10.21s15.26,4.62,15.07,4.46S487.71,419.66,487.34,419.32Z" style="fill: #f9dd16"/>
    <path d="M493.52,428.45c-2.88-5.45-4.22-8-4.89-9.17,1.1-2.08,4.55-7.59,5.95-9.84a20,20,0,0,0,1.39-2.28l.27-.74c-.22-.54-.45-1.08-.68-1.62l-.61-.07c-.11,0-10.7,1.15-14.17,2.39-.91-.76-4.92-5-5.5-5.77l-.33-.76-.62.18a29.9,29.9,0,0,1-4.43-1.66l-.86-.38q-1.73,6.27-3.44,12.55c-11.05,3.59-11.05,3.65-11.11,4.85l-.06,1,.62.56c.08.09.25.2,12.47,8.43L470,443.56l11.09-11.22c8.71,2.61,12.55,3.88,14.25,4.08l0,0v0c1.31.22,1.38-.09,1.49-.65l.24-1.16-.62-.58C496.11,433.35,494.74,430.76,493.52,428.45Zm-12.65.74-.42-.12q-4.56,4.57-9.1,9.19-1-7.08-2-14.16l-.55-.37c-3.2-2.17-7.48-5.05-10.18-6.87,2.32-.81,5.73-1.94,8.14-2.72l.48-.15q1.57-5.78,3.16-11.56a20.87,20.87,0,0,0,3.9,1.39c1.43,1.66,5.66,6.41,6.5,6.36l.55,0,.05-.14c1.51-.36,7.45-1.36,11-1.87-6.26,10-6.22,10.31-6.08,11.28l-.06.57.44.41c.4.6,3.31,6.1,5.24,9.75.59,1.13,1.08,2,1.47,2.79Z"/>
    <path d="M626.49,343.29c-1.58-13.9-6.54-25.61-13.54-30.74-8.07-8-16-7.27-23.55-7.93a10.55,10.55,0,0,0-8.7,6.55c-4.1,7.69-6.33,6.57-9.17,9.66-23.33.38-45.4,13.58-62.19,22.45-8.9,7.35-16.44,11.25-19.94,11.74-9.48-1.61-16.37-9.29-19.67-13.31q-16.1-24-32.2-47.61c-9.31-11.41-11.61,3-9.82,5.43,3.1,10.21-3.62,15.08,21.92,53.85q4.83,15.21,9.67,30.48s-.54,7.85-.09,8.26c4.67,16.94,12.07,14.09,15.57,10.13l7.59-8.82s15-4.34,15.27-4.93c16.12,6.27,57.67,3.05,64.52-.19,6.18-3.76,6.57.6,11.92-4.63,4.47-3.38,2-.46,10.28-9.73,2.54-2.65,4.55,3,5,6.68.46,34.35,3.33,56.85,5.47,91.46Q612.43,489,630,506l30.38-35.7c0-13-17.5-75.63-20.39-85.31A174.08,174.08,0,0,1,626.49,343.29Z" style="fill: #fff"/>
    <path d="M641.06,384a169.57,169.57,0,0,1-13.22-40.76c-1.7-14.95-7.1-27.09-14.25-32.31-7.3-7.25-14.3-7.69-21.08-8.1-1.08-.06-2.16-.13-3.39-.22a11.57,11.57,0,0,0-9.54,7.18c-2.56,4.8-4.23,5.87-6,7a14.08,14.08,0,0,0-2.64,2c-20.65.47-40.27,10.78-56.05,19.27l-6.33,3.41c-8.65,7.15-16,11-19.31,11.5-6.49-1.15-12.62-5.32-18.6-12.62q-16.15-24.08-32.31-47.76c-6.47-7.95-9.85-4.25-11-2.3-1.71,2.91-2,7.82-.78,10.19a30.65,30.65,0,0,1,.92,6.1c.62,7.7,1.48,18.06,21,47.8q4.69,14.79,9.39,29.6c-.43,6.59-.24,8.42.2,9.22,2.06,7.2,4.82,11.69,8.22,13.36,4.52,2.22,8.31-1.51,9.38-2.72q3.68-4.29,7.36-8.56c9.78-2.84,13.38-4,14.78-4.72,16.48,6.07,57.89,3,65-.4a9,9,0,0,1,5.41-1.62c1.81,0,3.51,0,6.6-3.07,1.1-.83,1.77-1.27,2.29-1.61,1.71-1.13,2-1.43,8.12-8.24.51-.53.77-.35.86-.28.72.52,1.6,2.91,1.91,5.18.32,22.87,1.72,40.86,3.21,59.9.76,9.82,1.55,20,2.27,31.53,0,.37,0,.74.07,1.11q18.33,17.67,36.67,35.4,15.75-18.5,31.5-37v-.85c0-13.84-18-77.59-20.51-86.18C641.17,384.29,641.11,384.15,641.06,384Zm-11.3,119.55q-16.82-16.24-33.61-32.45c-.7-11.15-1.47-21-2.21-30.53-1.49-19-2.88-36.93-3.19-59.69,0-.12,0-.23,0-.34-.32-2.48-1.46-7.11-3.72-8.74a2.5,2.5,0,0,0-3.57.49c-6.07,6.8-6.26,6.93-7.71,7.87-.54.36-1.24.82-2.51,1.79-2.61,2.56-3.78,2.57-5.39,2.59a10.67,10.67,0,0,0-6.25,1.85c-6.9,3.26-47.91,6.34-63.74.17l-1-.38c-.09.23-.18.45-.26.68-1.57.69-8.49,2.79-14.67,4.6l-.28.08-7.8,9.07c-.81.91-3.71,3.78-6.95,2.19-2.57-1.26-4.74-5.05-6.45-11.25l-.05-.2c-.08-1.08.06-4.4.24-7.08l0-.56q-4.92-15.52-9.85-31l-.29-.62c-19-28.89-19.79-38.47-20.37-45.58a33.69,33.69,0,0,0-1.25-7.63l-.07-.33-.22-.31a7.8,7.8,0,0,1,1.14-5.58c1.95-2.42,5.17.81,6.82,2.82q16.15,23.67,32.32,47.74c6.63,8.09,13.36,12.57,20.48,13.83h.28c3.59-.5,11.3-4.42,20.24-11.84,2-1,4.05-2.15,6.18-3.29,15.71-8.44,35.26-18.71,55.63-19.05h.4l.3-.33a11.82,11.82,0,0,1,2.51-2c1.86-1.18,4-2.53,6.91-8.06a9.41,9.41,0,0,1,7.66-5.83c1.08.09,2.18.16,3.27.23,6.37.38,13,.8,19.71,7.47,6.39,4.68,11.12,15.52,12.67,29.18a177,177,0,0,0,13.65,42.3c3.64,12.28,19.53,69.67,20.17,83.38Q644.38,486.4,629.76,503.55Z"/>
    <path d="M446.06,345.26c-.05.13,5.6,9.18,5.6,9.18s6.12-28.2,5.8-28.66q-3.72-5.28-7.45-10.54Q448,330.26,446.06,345.26Z" style="fill: #f9dd16"/>
    <path d="M449.15,309.34,447,310.48a34.29,34.29,0,0,1,.54,4c-.07.64-.15,1.67-.24,2.86-.19,2.39-.45,5.66-.75,7-.42,2.68-.73,5.05-.9,7.07-.21,1.11-.36,2.06-.51,3-.19,1.21-.37,2.38-.66,3.85l-.05.34a61.5,61.5,0,0,1-.74,6.47l2.32,1.09a67.67,67.67,0,0,0,.78-6.78c.29-1.47.48-2.65.67-3.87.14-.9.29-1.82.51-3.09.19-2.11.49-4.39.87-6.83a68.68,68.68,0,0,0,.81-7.54c.1-1.24.18-2.3.25-2.87l0-.19v-.2A33.07,33.07,0,0,0,449.15,309.34Z"/>
    <path d="M456.32,325.31c-.41,2.88-1.37,9.62-1.85,11.65-.53,3-.92,5.55-1.18,7.78-.24,1.21-.43,2.26-.61,3.28-.24,1.33-.47,2.63-.82,4.26l-.05.31a71.11,71.11,0,0,1-1,7.15l2.29,1.2c.41-2.26.81-4.72,1-7.45.35-1.62.58-2.93.82-4.27.18-1,.36-2,.62-3.37.28-2.32.66-4.83,1.14-7.56.5-2.11,1.45-8.75,1.9-11.94.05-.36.11-.73.16-1.09l-2.33-1.06Z"/>
    <path d="M549.9,326.3c7.68,14.06,9.44,33.95,8.23,43.56l2.06,1c1.52-12.09-1.33-32.72-8.73-46.26Z"/>
    <path d="M522.37,369.53a3.63,3.63,0,0,0-.62,1c-.66,1.71-1.52,4.44-2,6.11-1.43,3.76-.94,10.84.16,13.28a18.45,18.45,0,0,1,.45,2c.08.44.26,1.48,1,1.75l.13,0c.53.1.83-.38,1-.85h0l.05-.15a1.34,1.34,0,0,0,.07-.18h0l-1.11-1.07.06-.8a1.56,1.56,0,0,1,.79.86,25.57,25.57,0,0,0-.61-2.63l-.18-.44c-.5-1-1.15-7,.06-10.14.49-1.74,1.31-4.36,1.93-6a2.38,2.38,0,0,1,.25-.35,3.71,3.71,0,0,0,.62-1l-1.85-1.79A3.85,3.85,0,0,1,522.37,369.53Z"/>
    <path d="M467.72,339.93c-.42,0-.57,0-.9.79h0c-.14.33-.31.79-.55,1.43-.36,1-.79,1.87-1.21,2.74s-.77,1.62-1.09,2.43a20.2,20.2,0,0,1-1.12,2.36,20.14,20.14,0,0,0-1.21,2.54c-.45.85-.87,1.85-1.3,2.86s-.8,1.91-1.3,2.87-.75,1.67-1.14,2.44a33.09,33.09,0,0,0-1.47,3.23L455.8,365l-.22.45a25.42,25.42,0,0,0-1.21,2.7l1.83,1.79c.45-1,.91-2,1.37-3,.22-.44.44-.92.68-1.49h0a.08.08,0,0,1,0-.05,26.82,26.82,0,0,1,1.36-3c.41-.84.83-1.68,1.17-2.52s.92-1.94,1.35-3,.78-1.85,1.27-2.81a20.29,20.29,0,0,1,1.13-2.36,24.66,24.66,0,0,0,1.27-2.68c.29-.73.63-1.46,1-2.21.46-.95.92-1.93,1.32-3,.28-.75.57-1.51.85-2.27-.21-.53-.43-1.07-.65-1.6Zm.15,1.28.93.86Z"/>
    <path d="M441.51,299.34l-1.87,1.13a29,29,0,0,1,.63,3.83c0,.6-.1,1.56-.17,2.66a64.87,64.87,0,0,1-.56,6.56c-.35,2.49-.59,4.7-.72,6.57-.17,1-.3,1.92-.42,2.79-.16,1.11-.31,2.2-.56,3.56l0,.32a52.25,52.25,0,0,1-.57,6l2.06.9a58.67,58.67,0,0,0,.61-6.33c.24-1.35.4-2.45.56-3.58.12-.84.24-1.69.43-2.88.14-2,.37-4.08.69-6.34a61.44,61.44,0,0,0,.62-7.05c.06-1.14.12-2.13.17-2.66l0-.18v-.19A30.39,30.39,0,0,0,441.51,299.34Z"/>
    <path d="M470.08,371.21a3.15,3.15,0,0,1-.61-.06l-.13,0h-.13c-1.49.15-4,1.45-6.45,4.71a32.94,32.94,0,0,1-2.59,3.27l-.19.29a5,5,0,0,1-1.06,1.51l-.22.24,1.38,2.53.2-.22a7.14,7.14,0,0,0,1.38-2,35.28,35.28,0,0,0,2.62-3.3c2.18-2.85,4.23-3.83,5.19-4a5.16,5.16,0,0,0,.78.08c.78,0,1.3.06,2.31,1.78l1.53-1.87C472.38,371.31,471.05,371.25,470.08,371.21Z"/>
    <path d="M607.2,312.6c-.15-1.12-.19-1.87-.21-2.3s-.08-1.62-.89-2c-.65-.34-1,.2-1.23.71h0l-.08.21-.06.14h0l.66.63-.49.1a28.27,28.27,0,0,0,.29,2.93c.21.89.34,1.64.47,2.37.17,1,.34,2,.67,3.16l1.93-.79a26.38,26.38,0,0,1-.57-2.71C607.55,314.2,607.4,313.35,607.2,312.6Z"/>
    <path d="M585,368l-.61-1.1a9,9,0,0,0-1.16-2.28,3.07,3.07,0,0,1-.66-1.46l-.16-.53a13.93,13.93,0,0,1-.64-2.34c-.17-.75-.36-1.59-.63-2.47,0-.6-.1-1.18-.16-1.75-.08-.82-.17-1.64-.18-2.69-.13-1.67-.32-3-.51-4.36-.14-.94-.27-1.85-.4-3.06-.66-3.15-.57-28.81-.43-31l-1-.42-.93-.9c-.55,1.43-.2,29.93.36,32.54.1,1,.24,2,.38,3,.18,1.24.37,2.53.48,3.88a26.87,26.87,0,0,0,.2,3c.06.6.12,1.21.15,1.84l.12.63a22.18,22.18,0,0,1,.6,2.3,19.63,19.63,0,0,0,.79,2.88,7.46,7.46,0,0,0,1.27,2.9,4.7,4.7,0,0,1,.72,1.39l.88,1.7c.78,1.43,1.66,3.05,2.3,4l1.38-2C586.54,370.91,585.66,369.31,585,368Z"/>
    <path d="M562.35,382.79c-1.19-1.23-4.49-7.67-4.64-11.47l-2.09-.26c.18,4.91,3.91,12.34,5.75,14.24a27.47,27.47,0,0,1,1.88,2.06,11.55,11.55,0,0,0,1.61,1.7c.23-.92.45-1.84.68-2.76a14.79,14.79,0,0,1-1.13-1.26A30.26,30.26,0,0,0,562.35,382.79Z"/>
    <path d="M578.58,350.2c-.11.17-.61.79-1.43,1.82s-2.12,2.66-3.61,4.56c-4,4.56-14.93,11.56-16.1,12a10.48,10.48,0,0,0-1.69,1.08,5.33,5.33,0,0,1-2.14,1.15l-.23.05a12.59,12.59,0,0,1-3,.6l-1.14.14a18.19,18.19,0,0,1-4.08.16l-.36.05c-3.49,1.49-23.29-3.21-24.68-3.79l-.21-.07a34.62,34.62,0,0,1-3.46-.93l-.18-.06-.17,0a6.1,6.1,0,0,1-1.92-.15c-.42-.07-.86-.14-1.18-.16a7.71,7.71,0,0,0-3-.29c-.32,0-.65,0-1,0l-.36.1a14.44,14.44,0,0,1-1.35.64,13,13,0,0,0-2.64,1.41A11.45,11.45,0,0,0,502.2,370a7.26,7.26,0,0,1-1.29.84l-.23.18c-1.07,1.06-16.7,11.65-17.56,12.21-1.44.67-4.4,1.22-6.21-.22a4.44,4.44,0,0,1-1.48-2.5c-.16-1-.37-2-.58-3a23.78,23.78,0,0,1-.59-3.67c0-.13,0-.27-.05-.41a19.13,19.13,0,0,1-.14-4.85c0-.43,0-.85,0-1.05,1.13-8.31,2.84-12.12,3.76-14.16.2-.44.35-.79.47-1.08l.67-1.8-1.86-1.72c-.23.59-.45,1.19-.68,1.79-.09.25-.23.55-.39.91-.92,2-2.83,6.29-4.05,15.34L472,368a23.71,23.71,0,0,0,.2,5.83,28.66,28.66,0,0,0,.68,4.29c.19.9.39,1.83.56,2.92a8.13,8.13,0,0,0,2.67,4.65,6,6,0,0,0,2.79,1.22,9.61,9.61,0,0,0,5.17-.77c.14-.11,15.84-10.64,17.85-12.4a10.31,10.31,0,0,0,1.43-.94,9.75,9.75,0,0,1,2.14-1.3l.19-.11a11.35,11.35,0,0,1,2.39-1.28c.48-.21.94-.41,1.32-.62.32,0,.62,0,.91,0a6.73,6.73,0,0,1,2.67.25c.43,0,.84.12,1.23.18a8,8,0,0,0,2.2.18,33.78,33.78,0,0,0,3.45.91c2.18.72,21.12,5.41,25.59,3.87a22.59,22.59,0,0,0,4.37-.19l1-.13a13.82,13.82,0,0,0,3.27-.65,6.28,6.28,0,0,0,2.82-1.42,9.82,9.82,0,0,1,1.38-.91c1.48-.54,12.61-7.78,16.74-12.48,1.52-1.94,2.76-3.49,3.64-4.59,1.59-2,1.59-2,1.69-2.25l-1.08-1.05C579,350.87,578.8,350.54,578.58,350.2Z"/>
    <path d="M626.15,339.49c-.37-.42-.95-.71-1.56.35-.14.24-.38.65-.73,1.21-.67.66-1.42,1.56-2.12,2.4-.38.44-.73.87-1.08,1.26s-.63.84-.94,1.29a6,6,0,0,1-1.4,1.66l-.26.1-.17.29a4,4,0,0,1-2,1.63c-.23.12-.46.23-.58.31a14.81,14.81,0,0,0-4.11,2,21.09,21.09,0,0,0-2.56,1.72c-.59.43-1.17.86-1.86,1.29l-.3.32c-.34.55-.68,1-1,1.48a15.33,15.33,0,0,0-1.89,3.18c-.26.58-.53,1.13-.79,1.69-.55,1.15-1.13,2.35-1.67,3.77-.64,1.65-1.27,3.29-1.9,4.94l1.86,1.81,1.9-4.93c.51-1.33,1-2.44,1.58-3.57.28-.57.55-1.14.84-1.78a12.47,12.47,0,0,1,1.62-2.71c.32-.44.65-.9,1-1.43.65-.41,1.22-.83,1.79-1.25a20.8,20.8,0,0,1,2.45-1.64,14.23,14.23,0,0,1,3.93-1.9c.21-.12.43-.23.64-.33a5.8,5.8,0,0,0,2.6-2.11,7.37,7.37,0,0,0,1.9-2.16c.28-.4.56-.81.81-1.13s.7-.81,1.09-1.27c.68-.82,1.43-1.71,2.07-2.33l.16-.2c.4-.64.67-1.11.93-1.56l0,0,0-.09,0-.12-.57-.55.57.55A2.13,2.13,0,0,0,626.15,339.49Z"/>
    <path d="M614.43,456.63c0-1.57-.09-3.18-.16-4.78-.06-1.28-.12-2.56-.15-3.77a55.77,55.77,0,0,0-.57-7.85,72.28,72.28,0,0,0-.44-7.24,21.41,21.41,0,0,0-.45-5.26c0-.12,0-.25-.07-.38-.24-1.46-.42-2.62-.59-3.79s-.37-2.55-.66-4.25c-.14-.75-.28-1.58-.43-2.49-.2-1.19-.42-2.5-.65-3.68a43.45,43.45,0,0,0-.93-5.45c-.18-.88-.36-1.71-.54-2.69a30,30,0,0,1-1-5c-.12-.45-.23-.91-.35-1.36a26.77,26.77,0,0,1-1-4.37l-.12-.52c-.37-1.08-.77-2.64-1.2-4.29l-.41-1.55c-.21-.79-.41-1.65-.6-2.51-.25-1.12-.5-2.25-.77-3.14s-.37-1.46-.57-2.17a35.15,35.15,0,0,1-.91-3.95c0-.15,0-.31-.07-.46l-.22-.37a4.28,4.28,0,0,1-.44-1.1c-.1-.32-.19-.63-.31-.92L599,374.54a4.27,4.27,0,0,1,.18.54,9.34,9.34,0,0,0,.65,1.69c.25,1.45.61,2.78,1,4.07.18.66.36,1.34.56,2.16s.5,1.92.72,2.93.43,1.88.66,2.72l.39,1.5c.42,1.63.82,3.18,1.23,4.39a31,31,0,0,0,1.17,4.94l.21.73a32.83,32.83,0,0,0,1.13,5.39c.13.75.32,1.65.52,2.6a41.93,41.93,0,0,1,.86,5.09c.27,1.4.48,2.68.67,3.84.16.95.31,1.81.45,2.54.27,1.62.45,2.86.63,4.11s.35,2.38.6,3.9l.08.41a16,16,0,0,1,.37,4.29c0,.09,0,.17,0,.25l0,.26a71.66,71.66,0,0,1,.46,7.27,51.43,51.43,0,0,1,.55,7.54c0,1.27.09,2.58.15,3.9.08,1.55.15,3.1.17,4.83.24,2.26.3,4.4.36,6.66l.06,2.23a78.67,78.67,0,0,1-.61,8.13c0,1.12-.11,2.44-.22,3.85s-.25,3.16-.27,4.68c-.13.63-.23,1.09-.3,1.4a2.4,2.4,0,0,0,.51,2.46,1.07,1.07,0,0,0,.42.22c.46.1.75-.34.93-.7h0l.07-.16.07-.18.14-.37-.1-.09c.08-.35.19-.84.32-1.48l0-.41c0-1.42.13-3,.25-4.57s.23-2.89.23-3.93a82.7,82.7,0,0,0,.62-8.45c0-.77,0-1.53-.07-2.3C614.73,461.07,614.67,458.85,614.43,456.63Z"/>
    <path d="M602.27,312.51c-3.34-.35-4.19.76-5.6,5.21-1.08,4.68-.1,7.73-.38,10.78,0,0-.46,6.34-.53,6.51s-2.56,11.33-6.09,14.44c-1.87,1.57-3.38,1.31-7.15,1.77-3.29.93-3.48,2.2-2,10.4.06.78,5.51,17,16.24,13.85.06-.18,5.22-.5,4.74-4.84-1.29-3.68-1.59-6.16-3.32-11-.84-2.19-2.06-5.24-.14-11.78l4.35-11.76c.06-.17,4.63-7.84,6.41-13.38h0C610,318.11,606.63,312.87,602.27,312.51Z" style="fill: #f9dd16"/>
    <path d="M602.19,311c-3.81-.39-5,1.14-6.52,6.07a25.8,25.8,0,0,0-.46,7.94,21,21,0,0,1,0,3.15c-.2,2.68-.43,5.69-.5,6.25,0,.06,0,.13,0,.21-1.71,6.92-3.77,11.84-5.65,13.49-1.27,1.08-2.37,1.18-4.55,1.38-.65.06-1.38.12-2.32.25-4.26,1.2-4.15,3.94-2.73,11.86a28.43,28.43,0,0,0,5.87,11.22,12.86,12.86,0,0,0,6.88,4.41,9.85,9.85,0,0,0,4.87-.2l.37-.11c3.73-.85,5.43-3,5.06-6.28l-.11-.52c-.56-1.58-.93-3-1.32-4.42-.48-1.8-1-3.85-2.06-6.71-.77-2-1.73-4.52-.07-10.2,0,0,4.29-11.58,4.29-11.61l.22-.39a75.58,75.58,0,0,0,6.28-13.2l0-.08a10.68,10.68,0,0,0-.73-7.17C607.58,313.24,605,311.18,602.19,311Zm5.6,11a73.72,73.72,0,0,1-6,12.62c-.21.37-.32.6-.34.64l0,0c-.3.73-1.19,3.16-4.41,11.86-2.09,7.13-.72,10.71.2,13.12s1.42,4.42,1.9,6.22c.39,1.46.76,2.84,1.32,4.45,0,1.41-1.2,2.4-3.65,2.95a2.74,2.74,0,0,0-.48.14c-10,2.84-14.78-12.37-14.81-12.53-1.41-7.91-1.15-8,1.24-8.67.83-.1,1.54-.16,2.18-.22,2.32-.21,3.72-.34,5.37-1.73,3-2.67,5.3-10.42,6.4-14.89.11-.29.15-.41.64-7a25,25,0,0,0,0-3.77,21.76,21.76,0,0,1,.33-6.61c1.33-4.19,2-4.77,4.74-4.48a4.55,4.55,0,0,1,.63.09,6.54,6.54,0,0,1,4.35,3.65A6,6,0,0,1,607.79,321.94Z"/>
    <path d="M750.09,338c-.17.14-10.4,11-10.4,11q-5.15-3.4-10.28-6.85,1,9.56,2,19.1s-8.8,16.58-8.63,16.45,12.42-.82,12.77-1.09,4.57,17.56,4.68,17.84,4.44-19.54,4.32-19.82,5.56-3.77,6.2-3.89h0c.13-.81,3-5.1,3-5.1l-5.82-11.55S750.27,337.89,750.09,338Z" style="fill: #f9dd16"/>
    <path d="M750.69,336.87l-.58-.69-.58.44c-.08.05-.24.19-10.08,10.62l-11.34-7.57q1.1,10.5,2.2,21c-5,9.47-7.22,13.61-8.07,15.62l0,0v0c-.65,1.53-.49,1.81-.21,2.29l.6,1,.59-.43c.55-.06,2.64-.21,4.51-.34,4.34-.3,6.36-.47,7.34-.59.79,2.68,2.7,10.46,3.47,13.63a30.15,30.15,0,0,0,.82,3.19l.57,1.4.88-.65c.09-.07,3.94-14.83,4.61-20.13a46.48,46.48,0,0,1,5.61-3.44l.58,0c0-.3.1-.6.14-.9a41.89,41.89,0,0,1,2.77-4.62l.57-.87-6.05-12C751.39,337.71,751.38,337.7,750.69,336.87Zm1.66,28.49a31.13,31.13,0,0,0-2.39,4.11c-1.56.81-6.05,3.24-6.38,4.39-.07.24-.13.48-.2.72l.06.15c-.39,2.14-2.16,10.33-3.26,15.19-3.47-14.14-3.65-14.26-4.28-14.7l-.32-.42-.42.32c-.51.14-4.91.46-7.82.66l-2.27.16c1.78-3.4,4.91-9.32,7.2-13.64l.24-.45-1.8-17.22q4.6,3.09,9.21,6.14l.45-.47,8.21-8.69c-.47,3.43-1.19,8.44-1.7,12,0,.23-.07.46-.11.69Z"/>
    <path d="M831,372.32c-7.33-2-7.49-13.16-41.09-3.72q-11-2.93-22-6s-4.44-5.44-4.87-5.12c-12-4.37-13.25,6.74-12.3,13.62l2.19,15.05s-3.4,21.86-3.12,22.54c-10.15,16.76-24.07,72.33-24.68,83.25-.09,10.31-2.82,8.13-1.72,18.29.32,7.88-.49,2.89,1.92,19.33.62,4.94-3.45,4.09-5.83,2.4-20.54-20.68-35-31.05-56.28-50Q646.58,494,630,506l9.9,61.73c7.7,8.26,51.35,24.89,58.16,27.11,8.51-.11,20.57,2.94,29.75,8.37,8.83,6.52,17.61,7.22,23.25,1.22,7.75-5.64,10.23-16.4,13.46-25.9a28,28,0,0,0-.64-15.33c-3-10-1.53-12.23-2.3-17.8,8.52-30.64,9.13-67.26,10.41-94.26-.9-15.91-.23-28,.87-32.73,4.71-11.19,12-15.4,15.76-17.22q20.73-6.29,41.47-13.22C840.75,382.66,833.22,371.47,831,372.32Z" style="fill: #fff"/>
    <path d="M830.91,370.29a12.88,12.88,0,0,1-4-2.35c-4.81-3.7-11.39-8.51-37.14-1.38q-10.71-2.85-21.42-5.84c-3.73-4.54-4.89-5.41-5.55-5.34-5.12-1.76-8.9-1-11.27,2.3-3.14,4.38-2.46,11.49-2.17,13.58l2.13,14.61c-2.2,14.21-2.92,19.54-3.05,21.78-10.16,17.34-24.08,72.67-24.71,84a25.79,25.79,0,0,1-1.07,8c-.67,2.35-1.3,4.57-.65,10.43.08,1.95.09,3.09.09,4,0,2.92.08,3.53,1.85,15.61.13,1-.08,1.22-.15,1.3-.58.62-2.33.28-3.79-.72-13.67-13.75-24.87-23.15-36.71-33.14-6.11-5.15-12.43-10.49-19.55-16.83l-.68-.61q-17.31,12.6-34.61,25.14l10.26,64,.5.54c8.09,8.67,53,25.63,58.73,27.5l.16,0h.17c9-.11,20.7,3.18,29.07,8.12a28.11,28.11,0,0,0,11.16,5.28c5.21,1,9.86-.34,13.28-4,7-5.1,9.87-14,12.64-22.6.44-1.37.88-2.73,1.4-4.28a30.69,30.69,0,0,0-.7-16.8,35.42,35.42,0,0,1-1.91-12.06,39.64,39.64,0,0,0-.21-4.68c7.46-27.19,8.82-58.89,9.91-84.39.15-3.43.29-6.75.44-10.24-.87-15.45-.22-27.22.76-31.78C779,408.1,786.64,404.37,789,403.18q20.79-6.31,41.59-13.29c7.42-3.7,6.66-10.15,6-12.73C835.62,373.3,832.87,370.05,830.91,370.29ZM829.67,386q-20.8,7-41.61,13.26c-7.48,3.65-12.84,9.49-16.39,17.93l-.11.36c-1.13,4.92-1.85,17.19-.93,33.2-.15,3.19-.29,6.52-.44,10-1.09,25.38-2.45,57-9.88,83.72l-.15.52.09.59a32.1,32.1,0,0,1,.23,4.48,41.72,41.72,0,0,0,2.2,13.9,24.82,24.82,0,0,1,.6,13.52c-.46,1.36-.9,2.74-1.35,4.14-2.61,8.07-5.3,16.43-11.76,21.15-5.15,5.48-13.33,5-22-1.4a65.93,65.93,0,0,0-19.69-7.4A50.55,50.55,0,0,0,698,592.85c-8.62-2.86-48.56-18.33-56.94-26.18q-4.76-29.7-9.52-59.4l31.72-23c6.87,6.1,13,11.28,18.93,16.28,11.81,10,23,19.35,36.58,33l.21.18c1.59,1.12,4.76,2.5,6.57.58.55-.59,1.42-2,1-4.94-1.76-12.08-1.77-12.39-1.79-14.86,0-.92,0-2.12-.11-4.36-.54-5-.11-6.48.48-8.58a30.45,30.45,0,0,0,1.25-9.23c.62-11,14.43-65.79,24.38-82.24l.61-1-.3-.75c.2-2.43,1.69-12.58,3.08-21.55l.07-.42q-1.14-7.72-2.26-15.46c-.22-1.59-.76-7,1.51-10.17,1.79-2.5,4.92-2.95,9.29-1.35l.14,0a53,53,0,0,1,4.1,4.6c.11.13.21.26.32.38q11.34,3.18,22.68,6.2l.24-.07c25-7,31.09-2.53,35.53.89a14.22,14.22,0,0,0,5,2.83l.23.1.27-.11c.54,0,2.41,2,2.84,4.68C834.83,382.83,831.55,385.1,829.67,386Z"/>
    <path d="M788.44,370.55s14.21,24.58,14.61,24.42l9.31-3.32q-8.08-11.32-16.17-22.76C796.14,368.76,788.44,370.55,788.44,370.55Z" style="fill: #f9dd16"/>
    <path d="M797.65,384.53c-1.53-2.42-2.91-4.47-4.13-6.12-.62-1-1.17-1.89-1.7-2.74-.69-1.09-1.36-2.16-2.18-3.58l-.17-.24a59.81,59.81,0,0,1-3.83-5.53L784,368.53a62.38,62.38,0,0,0,4,5.76c.82,1.42,1.5,2.49,2.2,3.6.51.82,1,1.65,1.74,2.81q1.89,2.58,4,5.94c1,1.89,4.58,7,6.29,9.48l.6.87,1.58-2.35-.61-.88C802.25,391.55,798.65,386.34,797.65,384.53Z"/>
    <path d="M812.23,386.94a55.22,55.22,0,0,1-3.87-5.09c-1.42-2.13-2.7-3.92-3.81-5.32-.58-.92-1.09-1.68-1.58-2.42-.63-.95-1.25-1.87-2-3.11l-.19-.26a44.34,44.34,0,0,1-3.53-4.77l-1.61,2.29a49.53,49.53,0,0,0,3.7,5c.75,1.23,1.37,2.17,2,3.13.48.72,1,1.45,1.63,2.49,1.16,1.49,2.39,3.21,3.69,5.14a52.21,52.21,0,0,0,4.14,5.48c.69.85,1.29,1.57,1.59,2l.23.25a14.48,14.48,0,0,0,3.57,2.24c.08-1.14.15-2.27.22-3.41a15.08,15.08,0,0,1-2.61-1.67C813.47,388.46,812.89,387.75,812.23,386.94Z"/>
    <path d="M737.55,498.05l-1.36,2.09c5.38,7.66,15.19,15,24.5,16.68a19.94,19.94,0,0,0,6.24.21c-.14-1-.29-2-.43-3.08C755.25,515.45,742.8,505.54,737.55,498.05Z"/>
    <path d="M751,450.62c-.77-1.9-2-4.68-2.86-6.29-1.67-4.13-6-7.87-7.94-7.92a7.39,7.39,0,0,1-1.34-.64c-.29-.17-1-.57-1.42.24a2.33,2.33,0,0,0,0,1.95h0l.07.18a1.8,1.8,0,0,1,.08.21h0l1.06-.8.45.57a.8.8,0,0,1-.81.49,10,10,0,0,0,1.79.84l.19,0h.14c.83-.05,4.57,2.8,6,6.29.84,1.69,2.07,4.34,2.79,6.13a5.15,5.15,0,0,1,.12.54,7.49,7.49,0,0,0,.36,1.43l1.77-1.31c0-.09-.08-.36-.11-.54A6.73,6.73,0,0,0,751,450.62Z"/>
    <path d="M788.62,393.31c-.32-1-.64-1.94-1-2.83a28.87,28.87,0,0,1-.94-2.85,31.07,31.07,0,0,0-1-3.05c-.32-1.08-.74-2.23-1.17-3.38s-.8-2.16-1.17-3.36c-.38-1-.68-2-1-2.92-.38-1.22-.77-2.48-1.31-3.8-.19-.53-.37-1.06-.55-1.6-.07-.19-.12-.38-.18-.57-.3-.95-.6-1.9-1.11-3.15L777.39,367l1.23,3.58c.17.53.36,1.09.6,1.73h0l0,0c.5,1.22.85,2.35,1.22,3.54.33,1,.65,2.06,1,3,.34,1.14.78,2.32,1.21,3.49s.79,2.11,1.15,3.31c.36.87.64,1.83.95,2.85a32.13,32.13,0,0,0,1.07,3.23c.31.8.61,1.68.91,2.58.37,1.15.77,2.33,1.23,3.46.27.67.49,1.21.7,1.63l0,0,0,0a.17.17,0,0,1,0,.05l0,0h0l.11.2c.23.41.44.64.69.68a.81.81,0,0,0,.6-.21l.84-.79-1.2-2.94C789.34,395.46,789,394.37,788.62,393.31Z"/>
    <path d="M821.37,383.81a45.36,45.36,0,0,1-3.64-4.53c-1.34-1.91-2.55-3.51-3.6-4.75-.54-.83-1-1.51-1.48-2.18-.59-.85-1.17-1.68-1.87-2.8l-.18-.23a38.62,38.62,0,0,1-3.33-4.27l-1.39,2.09a40.57,40.57,0,0,0,3.5,4.49c.69,1.11,1.28,1.95,1.88,2.82.45.64.91,1.29,1.54,2.24,1.1,1.32,2.25,2.86,3.47,4.59a42.09,42.09,0,0,0,3.91,4.89c.66.76,1.23,1.41,1.52,1.78l.21.23a12.93,12.93,0,0,0,3.41,1.88c0-1,.07-2,.11-3.05a12.14,12.14,0,0,1-2.54-1.42C822.56,385.17,822,384.54,821.37,383.81Z"/>
    <path d="M770.33,366.56c0-.14-.07-.28-.1-.42a9.69,9.69,0,0,1-.46-2.25l0-.42-2.07.21.05.39a14.39,14.39,0,0,0,.6,2.95c.31,2.25.55,3.68.89,5.32a24.89,24.89,0,0,1,.26,9c-.14.3-.25.62-.37.95-.33,1-.55,1.62-2,1.87.17,1,.33,2,.5,3.07,2.4-.43,3-2.09,3.39-3.3a6,6,0,0,1,.29-.74l.12-.32a28.46,28.46,0,0,0-.18-11.05C770.86,370.17,770.64,368.84,770.33,366.56Z"/>
    <path d="M756.18,596.09c-.06-.13-.11-.27-.17-.41l-.62.48c0-.24.09-.47.13-.7a14.79,14.79,0,0,0-1.85-1.41,12.89,12.89,0,0,1-1.58-.83,12.43,12.43,0,0,0-2.13-1.05l-.24,3a10,10,0,0,1,1.82.9,12.07,12.07,0,0,0,1.63.84,13,13,0,0,1,1.43,1.13,1.78,1.78,0,0,0,.78.46.72.72,0,0,0,.76-.38,2.23,2.23,0,0,0,0-2Z"/>
    <path d="M742.23,536.74c-.8-.53-1.63-1.08-2.48-1.76a16.27,16.27,0,0,0-1.84-1.57c-.38-.29-.76-.58-1.14-.93l-.42-.23a8.06,8.06,0,0,1-1.58-.64,6.9,6.9,0,0,0-2-.73,2.54,2.54,0,0,0-2.19-.15,1.6,1.6,0,0,1-1.1.08l-.16-.06-1.16.15a20.46,20.46,0,0,0-3.24.53l.69,3a21.06,21.06,0,0,1,3-.48l.86-.1a3.1,3.1,0,0,0,1.79-.11c.5-.15.73-.21,1.11,0l.19.11.19,0a4.82,4.82,0,0,1,1.63.6,10.46,10.46,0,0,0,1.69.7c.37.32.73.6,1.1.88a13.35,13.35,0,0,1,1.66,1.42,29.89,29.89,0,0,0,2.78,2c.6.4,1.19.79,2,1.36,2.11,1.08,17.29,16.86,18.51,18.32l.64-1.1-.88.67.88-.67.89-.67c-.65-1.56-17.68-18.47-19.44-19.36C743.51,537.59,742.88,537.17,742.23,536.74Z"/>
    <path d="M727.17,492.75a14.3,14.3,0,0,1-1.93,1.16,6.17,6.17,0,0,0-1.61,1l1.38,2.58a7.66,7.66,0,0,1,1.17-.69,15,15,0,0,0,2.11-1.27c1.18-.79,6.25-1.09,8.55,1.05l.95-2.55C734.81,491.3,729,491.54,727.17,492.75Z"/>
    <path d="M780.26,403.47a56.41,56.41,0,0,0-7.47-14.4l-.68-.79a13.12,13.12,0,0,0-3.54-3.27,12.41,12.41,0,0,0-2.81-1.72c-.61-.31-1.24-.62-2-1.05a3.28,3.28,0,0,0-3.83.58c-2.87,2.6-3.42,9.47-3.45,9.88,0,.23,0,26.73.31,30.41-.05.76,0,1.55,0,2.4a28.61,28.61,0,0,1-.06,3.55c0,.05,0,.1,0,.15v.16a31.86,31.86,0,0,1-.18,3.84c-.06.75-.12,1.47-.14,2.09-.13.41-.23.81-.34,1.19a14.54,14.54,0,0,1-1.18,3.27c-.2.53-.4,1-.59,1.48a18.06,18.06,0,0,0-1,2.73c-.6,1.13-1.35,2.68-1.87,3.88-1.29,2.38-11.33,23.93-12.1,30.68a56.6,56.6,0,0,0-1.54,5.76c-.1.46-.21.92-.31,1.38a37.61,37.61,0,0,0-.85,4.63,18.28,18.28,0,0,0-.22,4.53c0,.86,0,1.72,0,2.34-.24,2.26-.13,21.14,1.11,29.39.59,3.21,1,5.8,1.38,7.62a20.35,20.35,0,0,0,.69,3.49l1-.75.84-.26c0-.24-.23-1.24-.52-2.89-.33-1.83-.79-4.42-1.37-7.57-1.2-8-1.25-26.46-1.07-28.25.06-.82,0-1.83,0-2.85a15.43,15.43,0,0,1,.12-3.48l.06-.32a34.39,34.39,0,0,1,.79-4.31c.11-.48.22-1,.35-1.55a45.68,45.68,0,0,1,1.46-5.39c0-.16.07-.33.1-.5.43-5.43,10.81-28.12,11.7-29.53l.13-.24c.51-1.18,1.31-2.82,1.89-3.89l.15-.43a14.59,14.59,0,0,1,.83-2.39c.21-.5.42-1,.56-1.41a17.62,17.62,0,0,0,1.35-3.73c.11-.42.23-.86.37-1.32l.09-.52c0-.62.07-1.35.14-2.13a37.15,37.15,0,0,0,.19-4.25,31.34,31.34,0,0,0,.07-3.93c0-.77,0-1.48,0-2.16v-.21l0-.2c-.22-1.95-.33-28.56-.3-29.91.17-2.26,1-6.36,2.61-7.8a1.83,1.83,0,0,1,2.07-.38c.66.41,1.34.75,2,1.09a10.42,10.42,0,0,1,2.41,1.45l.27.19a11,11,0,0,1,2.93,2.75c.24.29.48.57.6.69a51.13,51.13,0,0,1,6.89,13.33c.18.51.33.93.46,1.25l.79,1.95,1.77-1.36c-.26-.64-.53-1.29-.79-1.94C780.53,404.25,780.41,403.9,780.26,403.47Z"/>
    <path d="M730.11,601.18c-.14-1.27-.4-2.79-.63-4.22-.13-.76-.25-1.49-.35-2.2s-.27-1.34-.42-2a14.69,14.69,0,0,1-.47-2.84c0-.14,0-.27,0-.4s-.07-.26-.11-.39a11.28,11.28,0,0,1-.22-3.64c0-.36,0-.74,0-.94a44.25,44.25,0,0,0,.35-6.57c0-1.63,0-3-.07-4.39,0-1-.08-2.06-.07-3.21,0-.2-.06-.4-.08-.6-.21-.78-.36-1.51-.51-2.22a27.15,27.15,0,0,0-1.18-4.4c-.25-.71-.48-1.4-.71-2.08-.48-1.43-1-2.92-1.61-4.5L721.88,551l-1.77,1.3,2.22,5.52c.6,1.49,1.06,2.87,1.52,4.26.24.71.48,1.42.75,2.18a24,24,0,0,1,1,3.78c.15.7.3,1.41.49,2.16,0,1.1,0,2.1.08,3.1.05,1.29.1,2.58.06,4.21a42.15,42.15,0,0,1-.33,6.26l0,1.05a15.66,15.66,0,0,0,.28,4.68,18.22,18.22,0,0,0,.58,3.8c.13.61.27,1.23.37,1.76s.22,1.42.35,2.22c.23,1.39.48,2.89.61,4.11l.06.33c.21.83.38,1.45.54,2l0,0c0,.12.09.24.14.36h0c.32.71.65,1,.94,1.05a.69.69,0,0,0,.49-.1c.4-.23.78-.8.38-2.24C730.47,602.55,730.31,602,730.11,601.18Z"/>
    <path d="M719.1,548a3.22,3.22,0,0,0-1.24-.2,16.54,16.54,0,0,0-2.77-1.28c-.46-.18-.93-.36-1.49-.6a19.09,19.09,0,0,1-2-.89c-.64-.31-1.27-.62-1.85-.84l-1-.43a27.92,27.92,0,0,0-3-1.13,12.46,12.46,0,0,0-3.38-1.56l-.5-.17a12.88,12.88,0,0,0-3.62-1.9c-.49-.31-1.09-.62-1.73-.95a19.24,19.24,0,0,1-3.34-2.05c-.93-.54-1.77-1.06-2.52-1.53s-1.2-.74-1.68-1c-1-.66-1.86-1.2-2.66-1.74s-1.55-1-2.55-1.66l-.26-.16a8.58,8.58,0,0,1-2.7-2.21l-.3-.3a40,40,0,0,1-4.48-4,29,29,0,0,1-4.68-4c-.76-.77-1.56-1.51-2.37-2.26s-1.89-1.75-2.92-2.81a48.43,48.43,0,0,1-4.09-3.72l-1.34-1.32a62,62,0,0,1-4.6-5.9c-.65-.71-1.4-1.68-2.2-2.71s-1.77-2.3-2.67-3.28c-.33-.57-.57-1-.72-1.28s-.87-1.58-1.64-.88a1.92,1.92,0,0,0-.22,2.06h0l.08.2a.87.87,0,0,0,.07.17l.16.42.1-.07c.17.32.42.77.75,1.34l.23.31c.84.9,1.74,2.07,2.61,3.2s1.63,2.11,2.26,2.76a62.05,62.05,0,0,0,4.77,6.12l1.39,1.35a47.64,47.64,0,0,0,4.16,3.8c.94,1,1.92,1.88,2.9,2.79.78.72,1.56,1.45,2.29,2.18a29.6,29.6,0,0,0,4.87,4.17,39.76,39.76,0,0,0,4.46,4,11.08,11.08,0,0,0,3.29,2.71l.24.14c1,.61,1.72,1.11,2.47,1.62s1.65,1.11,2.76,1.8c.5.29,1,.63,1.64,1,.78.48,1.64,1,2.42,1.45A20.21,20.21,0,0,0,696,541c.59.3,1.14.59,1.8,1a12.11,12.11,0,0,1,3.37,1.77l.93.39a10.09,10.09,0,0,1,3,1.37l.36.18a23.14,23.14,0,0,1,3,1.1l1.08.44c.54.2,1.12.49,1.7.77a17,17,0,0,0,2.15.95c.51.23,1,.42,1.5.61a13.73,13.73,0,0,1,2.69,1.27l.29.19.3-.06a1.63,1.63,0,0,1,.82.12,3.42,3.42,0,0,0,.67.16c0-1-.08-2.06-.11-3.08Z"/>
    <path d="M747.79,573s-3.59-4.48-3.67-4.68-5.76-10.28-6.29-16.78c-.24-3.4.48-5.2,1.62-10.39.68-4.84,0-5.86-5.41-9-.49-.4-12.12-3.33-14.27,12.52.08.2-1.65,7.08,1.11,9.15,2.66.6,4.24,1.74,7.75,2.48,1.61.26,3.87.55,7,7.06L741,576.24c.08.19,2.93,10.84,5.56,16.55h0c2.27,4.43,6.63,3.22,8.47-2.24,1.45-4.15,1.1-5.93-1-10.48C751.67,575.8,749.49,575.22,747.79,573Z" style="fill: #f9dd16"/>
    <path d="M750.28,573.74a13.3,13.3,0,0,1-1.88-1.87c-1.52-1.9-3.21-4-3.52-4.47l-.1-.2c-3.47-6.46-5.62-12.17-5.9-15.62-.17-2.31.18-3.79.88-6.75.21-.88.44-1.87.72-3.18.88-6.27-.79-7.8-6-10.84-.63-.52-4.87-1.56-8.84.7-3.66,2.08-6,6.46-6.88,12.65,0,.19,0,.38-.07.57-.88,5.35-.26,8.86,1.84,10.44l.35.17a21.79,21.79,0,0,1,3.11,1,26.91,26.91,0,0,0,4.75,1.47c1.45.22,3.32.54,6.07,6.2,3.8,9.15,4.94,11.86,5.3,12.72l.15.53a122.06,122.06,0,0,0,5.49,16.26l0,.07A5.79,5.79,0,0,0,749.6,597a3.23,3.23,0,0,0,.69.07c2.35,0,4.54-2.19,5.71-5.65,1.64-4.73,1.17-7.16-1.18-12.2A18,18,0,0,0,750.28,573.74Zm3.81,16c-.85,2.55-2.45,4.21-4.07,4.21-.73,0-1.77-.33-2.62-2a119.54,119.54,0,0,1-5.23-15.56c-.15-.53-.25-.83-.27-.88s-5.36-12.87-5.41-13c-3.44-7.09-6.07-7.53-7.85-7.81a25.42,25.42,0,0,1-4.4-1.37,23.92,23.92,0,0,0-3.13-1c-.84-.83-1-3-.39-6.55,0-.27.08-.5.1-.72,2-14.7,12.85-11.54,12.95-11.5,5.22,3.05,5.16,3.43,4.68,7-.26,1.14-.48,2.11-.69,3a23.73,23.73,0,0,0-1,8c.45,5.59,4.21,13.3,6.45,17.46.13.33.18.46,3.91,5.11a14.58,14.58,0,0,0,2.25,2.26,15,15,0,0,1,3.8,4.48C755.18,585.11,755.3,586.27,754.09,589.73Z"/>
    <path d="M677.82,727.68s-6.46-21.66-6.46-21.36-4.26,16.42-4.24,17-12.18-5.18-12.39-5.22,9.87,17.94,10.08,18a93.09,93.09,0,0,1-.1,10.34,68.79,68.79,0,0,1,1.87,7l9.11-.16s8.69,13.16,8.68,12.85S681.89,746,681.89,746l8-8.88Q683.87,732.39,677.82,727.68Z" style="fill: #f9dd16"/>
    <path d="M678.59,726.64c-3.69-12.35-5.3-17.77-6.18-20.12v0h0c-.67-1.79-.89-1.74-1.29-1.69l-.84.12c0,.34,0,.68,0,1-.18.76-.89,3.52-1.52,6-1.49,5.76-2.17,8.44-2.47,9.77-1.91-.67-7.28-3.13-9.47-4.14a10.9,10.9,0,0,0-2.17-.95l-1-.14c0,.51,0,1,0,1.53,0,.72,0,.83,5.25,10.14,2.9,5.16,4.21,7.5,4.91,8.57.08,1.81,0,8.12-.14,9.13l-.25.72.48.74c.25.59,1.06,3.8,1.66,6.43.1.43.19.85.29,1.28l9.49-.17c7.13,10.81,8.41,12.72,9.06,12.86a.54.54,0,0,0,.39-.09l.63-.31,0-1c0-.14,0-.41-2.39-19.52l8.85-9.8ZM680.86,746c.62,5,1.45,11.7,2,15.92-1.85-2.75-4.54-6.79-6.44-9.67l-.37-.56-8.74.15a56.13,56.13,0,0,0-1.51-5.62c.13-2.5.43-9.75-.13-10.9-.11-.23-.22-.46-.34-.69l-.11,0c-1.12-1.83-5.29-9.23-7.75-13.71,9.73,4.47,9.87,4.3,10.36,3.76l.38-.14,0-.73c.12-.75,1.62-6.58,2.61-10.44.32-1.21.57-2.19.77-3,1.34,4.42,3.65,12.13,5.33,17.77l.18.6,10.9,8.46-7.19,7.95C680.79,745.43,680.83,745.72,680.86,746Z"/>
    <path d="M664.53,746.15l-9.78-6.67s-11.64-18.07-12.14-18.15c-6-23.44-33.62-76.24-39.86-83.88-6.08-6.6-3.74-8.73-10.19-13.7-4.8-4.52-1.53-2.44-12.2-9.65-3.16-2.29-1.1-7,.81-9C601.25,591.69,612.79,579.65,632,564l-2-58q-20.14-13-40.28-26C582,484.8,555.87,530.9,552,538.31c-3.14,11.05-9.51,24.71-16.25,33.17A35.5,35.5,0,0,0,526,600.59c.33,13.41,5.73,23.21,10.09,33.19,2.55,4.64,5.88,7.87,9.34,8.68,7.13,2.35,7.86,5.65,11.46,8.13,14.82,29.91,36.29,53.62,51.79,72.24,9.79,8.86,16.67,17.29,19.07,21.69a73.54,73.54,0,0,1,3.91,30.72q-4.64,30-9.26,60.09c-1.37,16.55,8.47,14.28,8.9,11,4.23-7.88,11.11-.84,19.18-49l12.37-24.06s5-2.22,4.95-3C675.08,757.9,669,749.25,664.53,746.15Z" style="fill: #fff"/>
    <path d="M665,744.34l-9.5-6.47c-7.56-11.74-10.45-16-11.73-17.58-6.31-23.84-33.8-76.49-40.27-84.4a23.18,23.18,0,0,1-4.34-6.4,17.8,17.8,0,0,0-5.94-7.4c-1.19-1.11-1.87-1.82-2.39-2.36-1.74-1.8-2.13-2.12-10-7.41a1.43,1.43,0,0,1-.71-1A6.9,6.9,0,0,1,582,606.9c13.36-8.94,23.14-17.43,33.5-26.42,5.35-4.63,10.87-9.42,17.28-14.64l.62-.5-2.07-60.54q-20.88-13.51-41.76-27l-.51.31c-8.12,5-34.89,52.53-38.21,58.79l-.15.39c-3.31,11.66-9.72,24.73-15.85,32.46a37.4,37.4,0,0,0-10.2,30.62c.29,12.12,4.44,21.24,8.44,30.09.64,1.41,1.28,2.81,2,4.42,2.89,5.27,6.56,8.65,10.24,9.51a16.62,16.62,0,0,1,7.9,5.06,21.7,21.7,0,0,0,2.86,2.64c13.18,26.42,31.44,48,46.13,65.41l5.89,7c9.52,8.62,16.24,16.86,18.54,21a70,70,0,0,1,3.68,29q-4.63,30.15-9.28,60.29c-.95,11.51,3.19,14.62,5,15.42a5.9,5.9,0,0,0,1,.32,4.6,4.6,0,0,0,5.51-3.06,13.05,13.05,0,0,1,3.09-3.48c4.18-3.67,9.91-8.7,16.12-45.54l12-23.38c4.16-1.89,5.14-2.81,5.35-3.7,3.06-5.38,4.08-10.69,3-15.77A18.39,18.39,0,0,0,665,744.34Zm1.76,24.57-.09.15a28.18,28.18,0,0,1-4.34,2.31l-.35.16L649.33,796c-.06.21-.13.41-.19.62-6,35.8-11.29,40.44-15.16,43.83a15,15,0,0,0-3.81,4.48l-.15.22,0,.41a3,3,0,0,1-4,.56c-2.56-1.68-2.52-7.16-2.28-10.08q4.63-30.15,9.28-60.31a75.32,75.32,0,0,0-4.08-32l-.17-.37c-2.47-4.52-9.45-13.15-19.32-22.06q-2.74-3.3-5.72-6.81c-14.62-17.34-32.82-38.85-45.76-65l-.26-.51-.38-.26a17.72,17.72,0,0,1-2.75-2.49,19.45,19.45,0,0,0-9.11-5.83c-3-.7-6-3.48-8.25-7.61-.62-1.43-1.27-2.85-1.92-4.28-3.76-8.32-7.66-16.9-7.95-28.09a33.37,33.37,0,0,1,9.33-27.4c6.44-8.08,13.05-21.54,16.5-33.59,5-9.34,29-51.35,36.76-57.27q19.38,12.47,38.76,25,1,27.75,1.9,55.49c-6.18,5-11.54,9.69-16.73,14.19-10.33,9-20.09,17.43-33.39,26.33l-.19.15a10.66,10.66,0,0,0-2.85,8.07,6.41,6.41,0,0,0,2.53,4.43c7.84,5.3,8,5.5,9.49,7,.55.57,1.27,1.31,2.63,2.59a13.92,13.92,0,0,1,4.91,6,27.52,27.52,0,0,0,5,7.41c6.28,7.68,33.49,59.85,39.36,82.86l.36,1.4.56.09c1.36,1.79,6.8,10.06,11.57,17.47l.23.35L664.11,748a13.76,13.76,0,0,1,5.44,8.29C670.33,760.09,669.38,764.35,666.71,768.91Z"/>
    <path d="M627.63,811l20.12-5.92c.1,0,2.15-10.79,2.15-10.79s-20.33,2.39-20.41,3Z" style="fill: #f9dd16"/>
    <path d="M643.86,806.29c-1,.16-1.84.35-2.68.55-.62.15-1.25.3-2.14.47a35.38,35.38,0,0,1-4.56,1.39,23,23,0,0,0-5,1.72c-.79.33-1.47.62-1.85.74l-.24.12a14.21,14.21,0,0,0-2.81,3l1.94,2.43a13.15,13.15,0,0,1,2.07-2.21c.42-.14,1.08-.42,1.84-.73a24.47,24.47,0,0,1,4.61-1.63,34.73,34.73,0,0,0,4.72-1.43c.78-.14,1.44-.3,2.08-.45.82-.19,1.62-.38,2.66-.54l.23-.07a20,20,0,0,1,4.27-1.42c-.24-1.15-.47-2.31-.71-3.46A21.9,21.9,0,0,0,643.86,806.29Z"/>
    <path d="M647.87,791.36c-1.16.14-2.07.32-3,.5-.7.14-1.4.27-2.38.43a43.86,43.86,0,0,1-5.15,1.3,72.3,72.3,0,0,0-8.23,1.93l-.72.2.75,3.45.72-.19a77.46,77.46,0,0,1,8-1.9,41.85,41.85,0,0,0,5.29-1.33c.88-.13,1.61-.28,2.33-.42.92-.18,1.83-.35,3-.49l.2-.06a24.65,24.65,0,0,1,4.83-1.35c-.22-1.16-.43-2.31-.64-3.47A25.52,25.52,0,0,0,647.87,791.36Z"/>
    <path d="M571.61,675.1l2,1.37c3.56-15.21,14.26-24.91,20.72-26.92l-.72-3C585.49,649,575,660.44,571.61,675.1Z"/>
    <path d="M630,687.24h0l-.13,0-.17,0,.06,1.84-.52.22a2.09,2.09,0,0,1,0-1.34,11.12,11.12,0,0,0-1.19,1.76l-.15.4c-.27,1-3.43,4.08-6,3.68a34.4,34.4,0,0,1-4.72-.3,1.34,1.34,0,0,1-.36-.2,2.54,2.54,0,0,0-1-.43l.09,3.08a3.81,3.81,0,0,1,.36.2,3.22,3.22,0,0,0,.9.42h.09a34.4,34.4,0,0,0,4.84.31c3.11.48,7-2.79,7.77-5.13a10.05,10.05,0,0,1,.9-1.31,2,2,0,0,0,.41-2A1.46,1.46,0,0,0,630,687.24Z"/>
    <path d="M653.82,781.88c-.4-.12-.8-.24-1.29-.34h0a15.78,15.78,0,0,1-2.58-.68c-.74-.24-1.48-.46-2.19-.62a19.62,19.62,0,0,0-2.56-.67,22.54,22.54,0,0,1-2.41-.62,12.24,12.24,0,0,1-2.07-.61,14.27,14.27,0,0,0-2.35-.68,15.68,15.68,0,0,1-1.9-.49,19.32,19.32,0,0,0-2.55-.62l-.88-.13a1.85,1.85,0,0,0-.29,0v0l-.29,0v.07c-.4.07-.82.36-.79,1.34l.12,1.55.76.12h0l1.47.23a19.45,19.45,0,0,1,2.34.57,16.43,16.43,0,0,0,2.09.53,12.8,12.8,0,0,1,2.07.61,12.16,12.16,0,0,0,2.21.64,23.62,23.62,0,0,0,2.47.65,21.05,21.05,0,0,1,2.47.65c.79.18,1.44.37,2.13.59a16.37,16.37,0,0,0,2.78.73l1.18.31.4.13a14,14,0,0,0,1.6.46l.71.13c0-1,0-2,0-3.07Z"/>
    <path d="M640.73,819.88c-1,.17-1.69.37-2.46.58-.56.15-1.14.31-1.95.5a32,32,0,0,1-4.16,1.44,19.72,19.72,0,0,0-4.53,1.79c-.73.34-1.35.63-1.69.76l-.23.13a13.81,13.81,0,0,0-2.54,3l1.76,2a14.06,14.06,0,0,1,1.91-2.25c.38-.15,1-.44,1.68-.76a21.27,21.27,0,0,1,4.21-1.69,29.53,29.53,0,0,0,4.32-1.48c.71-.15,1.31-.32,1.9-.48a24.48,24.48,0,0,1,2.43-.57l.22-.08a17.29,17.29,0,0,1,3.9-1.47c-.23-1-.45-2-.67-3.06A18.86,18.86,0,0,0,640.73,819.88Z"/>
    <path d="M660,771.08a32.67,32.67,0,0,0-3.52-2.21,15.84,15.84,0,0,1-5.44-5.34c-.12-.36-.26-.71-.41-1a4.91,4.91,0,0,1-.33-3.7l-2-1.31a9.27,9.27,0,0,0,.61,6.37c.11.27.23.54.32.82,0,.12.1.24.14.36a18.15,18.15,0,0,0,6.63,6.72,32.74,32.74,0,0,1,3.48,2.2l.28.14a4.18,4.18,0,0,1,1.51.82l.28.21.69-2.75-.27-.2A6.16,6.16,0,0,0,660,771.08Z"/>
    <path d="M530.77,606.37a14,14,0,0,0-1.13,1.56,10.7,10.7,0,0,1-1.24,1.15,1.76,1.76,0,0,0-.64,1.92,1.49,1.49,0,0,0,1.19,1.3h0l.24,0h.06l0-1.09.37.6a11.92,11.92,0,0,0,1.55-1.5,15.26,15.26,0,0,1,1.11-1.51,15,15,0,0,0,1.45-2.08L532,604.6A12.41,12.41,0,0,1,530.77,606.37Zm-1.86,4.39Z"/>
    <path d="M576.47,615.54c-.09.4-.18.8-.28,1.2a7.69,7.69,0,0,0-.62,2.35,2.4,2.4,0,0,1-.45,1.4c-.07.13-.14.27-.22.4a7.93,7.93,0,0,1-1,1.72,14.22,14.22,0,0,0-1.07,1.73c-.33.27-.64.56-.94.85a10.89,10.89,0,0,1-1.49,1.25,26.83,26.83,0,0,0-2.26,2.3c-.47.52-.93,1-1.57,1.67-1.44,2-16.73,11.58-18.08,12.23.13.5.26,1,.4,1.5l-.06-1.54.06,1.54c0,.51,0,1,.05,1.54,1.2.14,17.88-11.06,19.07-12.74.55-.53,1-1.07,1.54-1.63a24.46,24.46,0,0,1,2-2.08,10.54,10.54,0,0,0,1.64-1.37c.32-.3.63-.6,1-.88l.3-.39a12,12,0,0,1,1-1.63,10.53,10.53,0,0,0,1.21-2.11,5.52,5.52,0,0,0,.92-2.72,4,4,0,0,1,.38-1.45l.46-1.78c.35-1.54.76-3.28.92-4.46l-2.06-1C577.19,612.42,576.79,614.15,576.47,615.54Z"/>
    <path d="M599.45,633.83c0,.28,0,1.23,0,1.93,0,1.13-.1,2.41,0,3.5,0,2-1.75,8.68-3.91,10.28l1.15,2.82c2.79-2.08,4.88-9.66,4.86-12.75,0-1,0-2.17,0-3.21a18.29,18.29,0,0,0,0-2.72Z"/>
    <path d="M649.44,740c-.14-.15-15.85-16.77-18.16-18.75a18.18,18.18,0,0,0-1.42-1.51,18.3,18.3,0,0,1-2.08-2.32l-.18-.21a22.78,22.78,0,0,1-2.21-2.64c-.42-.55-.82-1.07-1.18-1.5l-.58-1.17a20.26,20.26,0,0,1-1.47-3.57c-.24-.57-.45-1.14-.65-1.67a24.28,24.28,0,0,0-1.24-2.94c-.43-1.45-1.06-3.38-1.57-4.82-.9-3.12-9.81-29.51-13.51-34.72a60,60,0,0,0-2.82-5.59c-.23-.42-.47-.84-.7-1.27a39.92,39.92,0,0,0-2.41-4,13.46,13.46,0,0,0-2.61-3.13,16.52,16.52,0,0,1-1.39-1.45c-1.24-1.72-12.48-13.43-17.86-17l-5.06-3c-2.12-1.27-2.11-1.26-2.32-1.3,0,.59,0,1.19.05,1.79l-.18,1.23c.17.08.83.48,1.92,1.13l5,3C582,638,593,649.55,594,650.91a19.85,19.85,0,0,0,1.69,1.79,10.9,10.9,0,0,1,2,2.35l.17.28a34.66,34.66,0,0,1,2.24,3.7l.8,1.44a58.24,58.24,0,0,1,2.63,5.24l.25.45c3.06,4,12.49,31.45,13,33.48l.08.3c.51,1.43,1.17,3.47,1.57,4.86l.2.46a20.89,20.89,0,0,1,1.09,2.56c.21.58.44,1.18.62,1.6a23.83,23.83,0,0,0,1.68,4.07c.21.41.42.82.64,1.29l.28.44c.35.41.76.95,1.2,1.52a28.15,28.15,0,0,0,2.44,2.92,23.37,23.37,0,0,0,2.31,2.57,14.85,14.85,0,0,1,1.28,1.36l.25.25c1.26,1,17.06,17.55,17.85,18.43,1.27,1.64,3.37,5.31,3.6,8.22a4.62,4.62,0,0,1-.59,2.88c-.5.57-1,1.23-1.44,1.86a9.78,9.78,0,0,1-1.81,2.14l-.22.22a6.67,6.67,0,0,1-2.78,2,7.39,7.39,0,0,0-.66.34,18.66,18.66,0,0,1-10.64.32,7.89,7.89,0,0,0-.92-.21l-1.48-.23c0,1,.07,2.06.1,3.09l1.47.22.77.18c1.75.45,5.43,1.38,11.52-.38l.74-.36a8.36,8.36,0,0,0,3.34-2.42,12.31,12.31,0,0,0,2.12-2.48c.43-.59.86-1.19,1.41-1.83a8.1,8.1,0,0,0,1.16-5.22C653.53,745.3,649.67,740.28,649.44,740Z"/>
    <path d="M564.7,592.61a28,28,0,0,1-3.09-.69c-.52-.14-1-.28-1.59-.41a10,10,0,0,1-2.64-1.06c-.47-.25-.94-.5-1.46-.72-.65-.68-1.25-1.25-1.86-1.82-.79-.74-1.57-1.48-2.52-2.54a29.62,29.62,0,0,1-3.59-4.32l-.61-.71a8.77,8.77,0,0,0-2.88-2.53A8.17,8.17,0,0,0,542,576.2c-.42-.2-.83-.41-1.18-.61s-.93-.6-1.46-.92c-.91-.57-1.9-1.17-2.66-1.76l-.22-.12c-.63-.27-1.08-.44-1.52-.61v-.06h0l-.15,0h0c-.88,0-1.09.65-1.11,1.26a1.8,1.8,0,0,0,1.19,1.87c.23.09.63.23,1.18.47.8.59,1.8,1.21,2.73,1.79.51.31,1,.61,1.45.91s.9.49,1.36.71a6.86,6.86,0,0,1,1.87,1.17l.22.29.28.11a6.16,6.16,0,0,1,2.23,2c.21.26.43.51.55.63a31.24,31.24,0,0,0,3.76,4.52c1,1.07,1.79,1.86,2.64,2.65.62.59,1.24,1.17,1.92,1.89l.38.28c.54.22,1,.48,1.51.73a11.54,11.54,0,0,0,3.08,1.23c.51.12,1,.25,1.51.39.69.18,1.4.37,2.14.52.37.08.75.15,1.14.2l4.12.6c0-1-.06-2.06-.1-3.08Z"/>
    <path d="M628.31,535.39v0l-.18,0-.09,0-.33,0v.16l-1.07.13-.27.1A20,20,0,0,1,623.5,537a17.53,17.53,0,0,0-2.47,1.17,26.9,26.9,0,0,0-5.4,2.32l-1.31.93a29.61,29.61,0,0,0-3.81,3c-.93.61-1.85,1.31-2.76,2-.71.55-1.43,1.1-2.12,1.58a19.73,19.73,0,0,0-4.29,3.66,25.7,25.7,0,0,0-4,3.26,7.94,7.94,0,0,0-2.83,2.54l-.19.23c-.71.85-1.29,1.5-1.87,2.15s-1.28,1.44-2.11,2.45c-.35.45-.75.93-1.19,1.46-.58.7-1.23,1.49-1.79,2.24a18.94,18.94,0,0,0-2.66,3.23c-.4.57-.78,1.1-1.25,1.71a13.65,13.65,0,0,1-2.32,3.22l-.58,1a12.94,12.94,0,0,1-1.94,3l-.24.35a34.46,34.46,0,0,1-1.79,3.16l-.66,1.1c-.33.58-.72,1.14-1.11,1.71a23.68,23.68,0,0,0-1.37,2.17c-.33.52-.64,1-.94,1.55a16.61,16.61,0,0,1-1.77,2.66c-.07.09-.15.17-.23.26s-.05.28-.07.42a3.39,3.39,0,0,1-.38,1,6.27,6.27,0,0,0-.35.74l1.86,1.8c.06-.15.14-.29.21-.44a6.11,6.11,0,0,0,.6-1.47,22.09,22.09,0,0,0,1.81-2.75c.28-.48.56-1,.93-1.55a22.13,22.13,0,0,1,1.28-2c.43-.62.85-1.24,1.2-1.85l.64-1.06c.71-1.16,1.37-2.26,1.84-3.23a15.8,15.8,0,0,0,2.2-3.37c.09-.18.19-.36.29-.54a14.79,14.79,0,0,0,2.49-3.47c.36-.44.78-1,1.21-1.63a18.67,18.67,0,0,1,2.48-3c.67-.88,1.31-1.64,1.87-2.33.46-.54.87-1,1.21-1.48.8-1,1.42-1.67,2.05-2.37s1.19-1.33,1.92-2.22a2.43,2.43,0,0,0,.2-.25,6.23,6.23,0,0,1,2.31-2.08l.3-.2a26.1,26.1,0,0,1,4-3.29,19.49,19.49,0,0,1,4.12-3.52c.73-.5,1.47-1.06,2.2-1.63.88-.67,1.76-1.35,2.78-2a30.36,30.36,0,0,1,3.74-2.94l1.27-.91a27.49,27.49,0,0,1,5.21-2.22,17.84,17.84,0,0,1,2.42-1.13,22.68,22.68,0,0,0,2.94-1.4l1-.12c.84-.09,1.22-.61,1.13-1.57A1.59,1.59,0,0,0,628.31,535.39Z"/>
    <path d="M573.5,597.57c-.15,0-3.57-6.55-5.85-4.29-1.37,3-2.65,4.36-4.43,8.41-.77,1.9-1.81,4.62-6.89,4.62l-9.71-1.14c-.15,0-7.56-3-12-3.13h0c-3.51.18-4.49,6.52-2,12.23,1.89,4.42,3.09,5.08,6.61,5.19,3.45-.39,4.65-2.81,6.63-3.62,0,0,4.05-1.81,4.19-1.79s8.33-1,12.39,2.39c2.1,1.81,2.9,3.86,5.53,8.55,2.61,3.89,3.49,3.66,7.44-1.29C575.89,623.33,582.09,610.24,573.5,597.57Z" style="fill: #f9dd16"/>
    <path d="M574.19,596.56l-.3-.44c-2.85-4.49-5.17-5.88-6.9-4.17l-.24.35a33.3,33.3,0,0,1-1.79,3.35,43.1,43.1,0,0,0-2.69,5.18c-.71,1.75-1.6,3.93-6,3.93l-9.58-1.11-.35-.13c-5.21-1.92-9.18-2.93-11.79-3h-.06c-1.73.08-3.11,1.43-3.79,3.68-.91,3-.48,7.16,1.12,10.79,2.16,5,3.78,5.91,7.7,6a8.91,8.91,0,0,0,5-2.43,7.44,7.44,0,0,1,1.84-1.24c1.72-.77,3.64-1.61,4-1.74h.16c5.18-.42,9.39.39,11.54,2.18,1.44,1.23,2.18,2.6,3.67,5.34.44.81.94,1.73,1.6,2.9,1.33,2,2.38,3,3.4,3.22,1.56.33,3-1.24,5.35-4.15.55-.48,2.79-5.25,3-11.75A28.24,28.24,0,0,0,574.19,596.56Zm.53,25.9c-3.81,4.78-4,4.47-5.92,1.65-.58-1-1.06-1.93-1.5-2.73-1.58-2.91-2.53-4.66-4.39-6.26a11.84,11.84,0,0,0-5.17-2.28,27.81,27.81,0,0,0-7.67-.33c-.25,0-.35,0-4.55,1.84a8.49,8.49,0,0,0-2.22,1.47,7.5,7.5,0,0,1-4.13,2.09c-3.32-.11-4-.67-5.63-4.35a12.22,12.22,0,0,1-.91-7.82,2.61,2.61,0,0,1,2.17-2.15c1.7.08,5,.63,11.29,2.93l.53.19s.09,0,9.85,1.15c5.54,0,6.8-3.11,7.65-5.21a41.79,41.79,0,0,1,2.51-4.79,37.86,37.86,0,0,0,1.81-3.36c.81-.56,2.17.64,4,3.59a5.07,5.07,0,0,0,.39.57C580.81,610.48,574.8,622.36,574.72,622.46Z"/>
    <path d="M660.18,470.45c-6.58,5.68-10.89,9.28-30.58,27-11.8-7.86-23.21-16.76-34.74-25.33.11,2.41-1.64,5.35-5.14,7.93,7.51,6.38,12.34,10.59,35.22,29.49,2.78,18.17,4.68,36.23,6.83,54.32,1.36-1.05,4.2.13,7.93,3.71h0c-.93-12.08-1.46-19.9-4.65-56.49,9-10.32,18.54-19.47,27.91-29C661.49,480.7,660.4,476.59,660.18,470.45Z" style="fill: #f9dd16"/>
    <path d="M661.54,470.63c0-1.24-.09-2.48-.14-3.73l-4.55,3.93c-5.33,4.6-10.84,9.35-27.52,24.32-8.83-5.91-17.6-12.52-26.09-18.9q-3.94-3-7.92-5.93l-2-1.47c0,1,.1,2.06.14,3.09s-.84,3.55-4.51,6.25l-2.13,1.56,5.13,4.37c6.07,5.17,12.35,10.52,31.79,26.58,2.05,13.62,3.65,27.4,5.2,40.75q.72,6.21,1.46,12.44l.37,3.1,1.74-1.34c.59-.46,2.64-.22,6.54,3.53l2.26,2.18q-.32-4.11-.62-8.2c-.75-9.77-1.52-19.88-4.23-51,6.79-7.71,14-14.9,20.91-21.86q3.23-3.24,6.44-6.5l1.61-1.63-1.89-1.74C662.92,479.8,661.77,477.08,661.54,470.63Zm-5.89,16.2c-7.15,7.17-14.54,14.57-21.53,22.56l-.52.58.09,1c2.79,31.94,3.56,42.14,4.31,52,0,.3,0,.61.07.91a11.8,11.8,0,0,0-4.39-2.38,4.18,4.18,0,0,0-.84-.1c-.4-3.37-.79-6.73-1.18-10.1-1.59-13.73-3.24-27.94-5.39-42l-.15-1-.65-.54c-19.93-16.46-26.27-21.86-32.4-27.08l-.61-.52a12.27,12.27,0,0,0,3.41-5.21q3.23,2.4,6.43,4.82c8.74,6.57,17.77,13.37,26.9,19.44l.67.45.56-.5c17.1-15.36,22.66-20.15,28-24.79l.59-.5a24.3,24.3,0,0,0,1.82,7.68C659.14,483.33,657.39,485.08,655.65,486.83Z"/>
  </g>
</svg>
