<svg xmlns="http://www.w3.org/2000/svg" viewBox="0 0 1260 1012.04">
  <g>
    <path d="M0,90.08v920C420,738.76,840,1193.28,1260,922V2C840,273.28,420-181.24,0,90.08Z" style="fill: #f93"/>
    <path d="M0,703.41C420,432.09,840,886.62,1260,615.3V308.63C840,580,420,125.43,0,396.74Z" style="fill: #fff"/>
    <path d="M0,1010.08C420,738.76,840,1193.28,1260,922V615.3C840,886.62,420,432.09,0,703.41Z" style="fill: #128807"/>
    <path d="M630,383.36c-61.86-13.74-112,31.39-112,99.25,0,67.63,50.14,132.35,112,146.08s112-31.4,112-99.26C742,461.8,691.86,397.09,630,383.36Z" style="fill: #008"/>
    <path d="M630,398.69c-54.12-12-98,27.28-98,86.64,0,59.2,43.88,116.06,98,128s98-27.29,98-86.65C728,467.51,684.12,410.65,630,398.69Z" style="fill: #fff"/>
    <path d="M630,484.56c-10.83-2.37-19.6,5.34-19.6,17.19s8.78,23.38,19.6,25.74,19.6-5.34,19.6-17.2S640.82,486.92,630,484.56Z" style="fill: #008"/>
    <path d="M727.8,535.36a4,4,0,0,0-5.5,3.53,6.68,6.68,0,0,0,4.22,6.86,4,4,0,0,0,5.5-3.54A6.66,6.66,0,0,0,727.8,535.36Z" style="fill: #008"/>
    <path d="M626.64,548.22,630,613.36l3.36-63.67L630,518.29Z" style="fill: #008"/>
    <path d="M722.42,561.72c-2.5-1.63-5.37-.91-6.41,1.62a6.55,6.55,0,0,0,2.66,7.55c2.5,1.63,5.36.9,6.4-1.63A6.54,6.54,0,0,0,722.42,561.72Z" style="fill: #008"/>
    <path d="M604.64,604.18q9.23-28.63,18.46-57.24,2-14.85,4-29.7-5.25,13.18-10.49,26.38Z" style="fill: #008"/>
    <path d="M710.73,584.33c-2.15-2.24-5.22-2.43-6.87-.42s-1.24,5.47.91,7.71,5.22,2.44,6.87.42S712.88,586.57,710.73,584.33Z" style="fill: #008"/>
    <path d="M581,588.37q16.15-23.52,32.31-47,5.55-13,11.09-26l-16.91,21Q594.24,562.4,581,588.37Z" style="fill: #008"/>
    <path d="M686.68,599.15c-2.15,1.35-2.56,4.63-.91,7.33s4.72,3.79,6.87,2.44,2.55-4.64.91-7.34S688.82,597.8,686.68,599.15Z" style="fill: #008"/>
    <path d="M560.7,567.05q22-16.9,44-33.58,8.7-10.26,17.42-20.5l-22.17,14.26Q580.31,547.08,560.7,567.05Z" style="fill: #008"/>
    <path d="M665.63,608c-2.5.6-3.69,3.48-2.65,6.44s3.9,4.88,6.4,4.29,3.69-3.49,2.65-6.45S668.13,607.37,665.63,608Z" style="fill: #008"/>
    <path d="M545.13,541.62q26.29-9.18,52.6-18Q609,516.84,620.3,510l-25.93,6.52Q569.76,529,545.13,541.62Z" style="fill: #008"/>
    <path d="M642.15,609.77c-2.68-.2-4.57,2.08-4.22,5.1s2.82,5.62,5.5,5.82,4.57-2.09,4.22-5.11S644.84,610,642.15,609.77Z" style="fill: #008"/>
    <path d="M535.34,513.77c19.22-.55,38.44-.88,57.67-1.11q13.08-2.94,26.17-5.82-13.95-.85-27.91-1.67C572.62,507.91,554,510.73,535.34,513.77Z" style="fill: #008"/>
    <path d="M617.85,604.47a4,4,0,0,0-5.5,3.42,6.83,6.83,0,0,0,4.22,6.94,4,4,0,0,0,5.5-3.42A6.83,6.83,0,0,0,617.85,604.47Z" style="fill: #008"/>
    <path d="M532,485.33c19.6,5.09,39.2,10.43,58.8,15.87q14,1.16,28,2.38-14-4.89-28-9.74C571.2,490.85,551.6,488,532,485.33Z" style="fill: #008"/>
    <path d="M594.37,592.49c-2.5-1.67-5.36-1-6.4,1.53s.15,5.91,2.65,7.58,5.37,1,6.4-1.53S596.87,594.16,594.37,592.49Z" style="fill: #008"/>
    <path d="M535.34,458.21q28,15.66,55.93,31.85,14,5.19,27.91,10.43Q606.1,491.9,593,483.32C573.78,474.82,554.56,466.4,535.34,458.21Z" style="fill: #008"/>
    <path d="M573.32,574.69c-2.14-2.26-5.22-2.46-6.87-.46s-1.24,5.46.91,7.72,5.22,2.46,6.87.45S575.47,577,573.32,574.69Z" style="fill: #008"/>
    <path d="M545.13,434.29Q569.74,457,594.37,480q13,8.87,25.93,17.77l-22.57-23.42Q571.44,454.17,545.13,434.29Z" style="fill: #008"/>
    <path d="M549.27,549.88c-2.15,1.37-2.55,4.65-.91,7.34s4.73,3.76,6.87,2.4,2.56-4.65.91-7.34S551.42,548.51,549.27,549.88Z" style="fill: #008"/>
    <path d="M560.7,415.25q19.6,28.14,39.21,56.47l22.17,23.9-17.42-28.07Q582.68,441.32,560.7,415.25Z" style="fill: #008"/>
    <path d="M537.58,522.55c-2.5.64-3.68,3.55-2.65,6.49s3.9,4.81,6.41,4.18,3.68-3.53,2.65-6.48S540.09,521.92,537.58,522.55Z" style="fill: #008"/>
    <path d="M581,402.47q13.25,31.62,26.49,63.31Q616,480,624.4,494.18q-5.55-15.4-11.09-30.82Q597.16,432.88,581,402.47Z" style="fill: #008"/>
    <path d="M532.2,494.06c-2.68-.14-4.57,2.18-4.22,5.19s2.81,5.56,5.5,5.7,4.57-2.17,4.22-5.18S534.88,494.2,532.2,494.06Z" style="fill: #008"/>
    <path d="M604.64,396.83l12,65.75,10.49,31q-2-15.72-4-31.45Q613.88,429.45,604.64,396.83Z" style="fill: #008"/>
    <path d="M533.48,466.29a4,4,0,0,0-5.5,3.54,6.66,6.66,0,0,0,4.22,6.85,4,4,0,0,0,5.5-3.53A6.68,6.68,0,0,0,533.48,466.29Z" style="fill: #008"/>
    <path d="M626.64,462.36l3.36,31.4,3.36-29.94L630,398.69Z" style="fill: #008"/>
    <path d="M541.34,441.16c-2.51-1.64-5.37-.91-6.41,1.62a6.54,6.54,0,0,0,2.65,7.54c2.51,1.63,5.37.91,6.41-1.62A6.54,6.54,0,0,0,541.34,441.16Z" style="fill: #008"/>
    <path d="M632.9,494.81l10.49-26.39,12-60.55q-9.23,28.62-18.46,57.23Q634.91,480,632.9,494.81Z" style="fill: #008"/>
    <path d="M555.23,420.42c-2.14-2.25-5.22-2.43-6.87-.42s-1.24,5.47.91,7.71,5.22,2.43,6.87.42S557.38,422.67,555.23,420.42Z" style="fill: #008"/>
    <path d="M635.6,496.62l16.91-21q13.25-25.93,26.49-51.91-16.15,23.52-32.31,47Z" style="fill: #008"/>
    <path d="M567.36,403.13c-2.15,1.35-2.55,4.64-.91,7.33s4.73,3.79,6.87,2.44,2.56-4.64.91-7.34S569.51,401.77,567.36,403.13Z" style="fill: #008"/>
    <path d="M637.92,499.07Q649,492,660.09,484.81,679.7,465,699.3,445q-22,16.9-44,33.58Q646.63,488.83,637.92,499.07Z" style="fill: #008"/>
    <path d="M590.62,393.36c-2.5.59-3.69,3.48-2.65,6.44s3.9,4.87,6.4,4.28,3.69-3.48,2.65-6.44S593.12,392.76,590.62,393.36Z" style="fill: #008"/>
    <path d="M639.7,502q13-3.24,25.93-6.52,24.61-12.39,49.24-25.06-26.29,9.18-52.6,18Q651,495.21,639.7,502Z" style="fill: #008"/>
    <path d="M616.57,391.36c-2.68-.2-4.57,2.09-4.22,5.1s2.82,5.62,5.5,5.82,4.57-2.09,4.22-5.1S619.25,391.56,616.57,391.36Z" style="fill: #008"/>
    <path d="M640.82,505.21q13.95.84,27.91,1.66c18.65-2.74,37.29-5.56,55.93-8.6-19.22.56-38.44.88-57.67,1.12Q653.91,502.31,640.82,505.21Z" style="fill: #008"/>
    <path d="M643.43,397.21a4,4,0,0,0-5.5,3.43,6.83,6.83,0,0,0,4.22,6.94,4,4,0,0,0,5.5-3.43A6.83,6.83,0,0,0,643.43,397.21Z" style="fill: #008"/>
    <path d="M641.2,508.46q14,4.89,28,9.75c19.6,3,39.2,5.86,58.8,8.5-19.6-5.09-39.2-10.43-58.8-15.86Q655.2,509.68,641.2,508.46Z" style="fill: #008"/>
    <path d="M669.38,410.44c-2.5-1.67-5.37-1-6.4,1.53s.15,5.91,2.65,7.58,5.36,1,6.4-1.52S671.88,412.12,669.38,410.44Z" style="fill: #008"/>
    <path d="M640.82,511.56q13.08,8.59,26.17,17.16,28.85,12.76,57.67,25.11-28-15.66-55.93-31.84Q654.78,516.8,640.82,511.56Z" style="fill: #008"/>
    <path d="M692.64,430.09c-2.15-2.25-5.22-2.45-6.87-.45s-1.24,5.46.91,7.72,5.22,2.46,6.87.45S694.79,432.35,692.64,430.09Z" style="fill: #008"/>
    <path d="M639.7,514.27l22.57,23.42q26.29,20.17,52.6,40.07Q690.26,555.08,665.63,532,652.67,523.17,639.7,514.27Z" style="fill: #008"/>
    <path d="M704.77,452.43c-2.15,1.36-2.56,4.64-.91,7.34s4.73,3.76,6.87,2.4,2.55-4.66.91-7.35S706.91,451.07,704.77,452.43Z" style="fill: #008"/>
    <path d="M637.92,516.42q8.72,14,17.42,28.08,22,26.22,44,52.29-19.6-28.14-39.21-56.47Z" style="fill: #008"/>
    <path d="M718.67,478.82c-2.51.63-3.69,3.53-2.66,6.48s3.91,4.82,6.41,4.19,3.68-3.54,2.65-6.49S721.17,478.19,718.67,478.82Z" style="fill: #008"/>
    <path d="M635.6,517.87l11.09,30.81q16.15,30.48,32.31,60.9-13.25-31.64-26.49-63.32Z" style="fill: #008"/>
    <path d="M726.52,507.09c-2.68-.14-4.57,2.17-4.22,5.18s2.82,5.57,5.5,5.71,4.57-2.18,4.22-5.19S729.2,507.23,726.52,507.09Z" style="fill: #008"/>
    <path d="M632.9,518.5q2,15.74,4,31.45,9.23,32.64,18.46,65.27l-12-65.76Z" style="fill: #008"/>
  </g>
</svg>
