<svg xmlns="http://www.w3.org/2000/svg" xmlns:xlink="http://www.w3.org/1999/xlink" viewBox="0 0 1260 1011.55">
  <defs>
    <clipPath id="a" transform="translate(0 0)">
      <path d="M0,171.72C210-86.82,420,.39,630,87.59V505.75C420,418.53,210,331.32,0,589.86Z" style="fill: none"/>
    </clipPath>
    <clipPath id="f" transform="translate(0 0)">
      <path d="M0,171.72V380.8C245,79.17,490,248.15,735,338.7V547.78c-35-12.93-70-27.47-105-42C420,279.17,210,52.56,0,171.72ZM630,87.59C525,44,420,.39,315,0V557.55C210,557.16,105,600,0,729.26V589.88C210,191.94,420,139.78,630,87.59Z" style="fill: none"/>
    </clipPath>
  </defs>
  <g>
    <path d="M306.36.07q7.2-.06,14.4,0Q313.56-.06,306.36.07Z" transform="translate(0 0)" style="fill: #fff"/>
    <path d="M950.91,1011.53q-4.27,0-8.55,0Q946.64,1011.58,950.91,1011.53Z" transform="translate(0 0)" style="fill: #fff"/>
    <path d="M320.76.07q-7.2-.06-14.4,0C204.24,2,102.12,46,0,171.72V1008c314.12-386.74,628.24.16,942.36,3.49q4.27,0,8.55,0c103-1.22,206.05-44.83,309.08-171.66V3.55C946.91,389,633.84,5.9,320.76.07Z" transform="translate(0 0)" style="fill: #fff"/>
    <path d="M1260,730.78v0Z" transform="translate(0 0)" style="fill: #002b7f"/>
    <path d="M1196.24,836.63c-37.49,33.7-60.93,34-82,32.29-21.13-2.42-39.88-7.43-68,1.27-37.5,10.51-56.25,68.51-93.75,69.89-75-1.7-93.75-64.1-150-78.5-37.5-11.27-56.25,37.33-93.75,23-75-29.75-93.75-94.38-150-116.61-37.5-14.56-56.25,33.9-93.75,22.26-75-20.82-93.75-78.45-150-80.77-37.5.62-56.25,58.18-93.75,67.75-75,25.08-93.75-16.31-150,29C33.75,840.32,22.5,893.92,0,920.7v71.42c22.5-26.71,33.75-80.33,71.25-114.48,56.25-45.31,75-3.93,150-29,37.5-9.55,56.25-67.13,93.75-67.75,56.25,2.32,75,60,150,80.77,37.5,11.64,56.25-36.82,93.75-22.26,56.24,22.24,75,86.86,150,116.61,37.5,14.37,56.25-34.23,93.75-23,56.25,14.41,75,76.8,150,78.5,37.5-1.38,56.25-59.37,93.75-69.89,28.12-8.69,46.87-3.69,68-1.3,21.09,1.82,44.53,1.44,82-32.28,37.5-35.27,49.64-67.28,63.75-95.21v-82C1245.87,758.74,1233.74,801.37,1196.24,836.63Z" transform="translate(0 0)" style="fill: #002b7f"/>
    <path d="M1260,592.08v0Z" transform="translate(0 0)" style="fill: #002b7f"/>
    <path d="M1196.24,697.94c-37.49,33.69-60.93,34-82,32.28-21.13-2.42-39.88-7.43-68,1.27C1008.74,742,990,800,952.49,801.37c-75-1.69-93.75-64.08-150-78.49-37.5-11.27-56.25,37.33-93.75,23-75-29.74-93.75-94.37-150-116.6-37.5-14.57-56.25,33.9-93.75,22.26-75-20.82-93.75-78.45-150-80.78-37.5.62-56.25,58.18-93.75,67.76-75,25.07-93.75-16.3-150,29C33.75,701.62,22.5,755.23,0,782v71.46c22.5-26.71,33.75-80.34,71.25-114.49,56.25-45.31,75-3.93,150-29,37.5-9.55,56.25-67.13,93.75-67.75,56.25,2.32,75,60,150,80.77,37.5,11.64,56.25-36.82,93.75-22.25,56.24,22.23,75,86.85,150,116.61,37.5,14.36,56.25-34.23,93.75-23,56.25,14.41,75,76.8,150,78.5,37.5-1.38,56.25-59.37,93.75-69.89,28.12-8.69,46.87-3.7,68-1.29,21.09,1.82,44.53,1.43,82-32.28,37.5-35.27,49.64-67.29,63.75-95.21v-82C1245.87,620,1233.74,662.67,1196.24,697.94Z" transform="translate(0 0)" style="fill: #002b7f"/>
    <path d="M1260,453.38v0Z" transform="translate(0 0)" style="fill: #002b7f"/>
    <path d="M1196.24,559.24c-37.49,33.69-60.93,34-82,32.28-21.13-2.41-39.88-7.43-68,1.27-37.5,10.52-56.25,68.5-93.75,69.88-75-1.7-93.75-64.09-150-78.49-37.5-11.27-56.25,37.34-93.75,23-75-29.74-93.75-94.38-150-116.6C521.25,476,502.5,524.47,465,512.83c-75-20.83-93.75-78.45-150-80.78-37.5.62-56.25,58.19-93.75,67.77-75,25.06-93.75-16.32-150,29C33.75,562.93,22.5,616.53,0,643.27v71.42C22.5,688,33.75,634.35,71.25,600.2c56.25-45.31,75-3.93,150-29,37.5-9.55,56.25-67.13,93.75-67.75,56.25,2.32,75,59.94,150,80.77,37.5,11.64,56.25-36.82,93.75-22.26,56.24,22.23,75,86.86,150,116.61,37.5,14.37,56.25-34.23,93.75-23,56.25,14.41,75,76.8,150,78.5,37.5-1.38,56.25-59.36,93.75-69.89,28.12-8.69,46.87-3.7,68-1.29,21.09,1.82,44.53,1.43,82-32.28,37.5-35.27,49.64-67.28,63.75-95.2v-82C1245.87,481.33,1233.74,524,1196.24,559.24Z" transform="translate(0 0)" style="fill: #002b7f"/>
    <path d="M1260,314.68v0Z" transform="translate(0 0)" style="fill: #002b7f"/>
    <path d="M1196.24,420.54c-37.49,33.69-60.93,34-82,32.28-21.13-2.42-39.88-7.43-68,1.26-37.5,10.53-56.25,68.52-93.75,69.9-75-1.71-93.75-64.1-150-78.51-37.5-11.26-56.25,37.35-93.75,23-75-29.75-93.75-94.38-150-116.61-37.5-14.56-56.25,33.9-93.75,22.26-75-20.83-93.75-78.45-150-80.77-37.5.62-56.25,58.18-93.75,67.75-75,25.08-93.75-16.31-150,29C33.75,424.23,22.5,477.83,0,504.57V576c22.5-26.71,33.75-80.34,71.25-114.48,56.25-45.31,75-3.93,150-29,37.5-9.55,56.25-67.13,93.75-67.75,56.25,2.32,75,59.94,150,80.76,37.5,11.65,56.25-36.82,93.75-22.25,56.24,22.24,75,86.86,150,116.61,37.5,14.37,56.25-34.23,93.75-23,56.25,14.4,75,76.8,150,78.49,37.5-1.38,56.25-59.37,93.75-69.88,28.12-8.7,46.87-3.7,68-1.3,21.09,1.81,44.53,1.42,82-32.29,37.5-35.26,49.64-67.27,63.75-95.2v-82C1245.87,342.64,1233.74,385.28,1196.24,420.54Z" transform="translate(0 0)" style="fill: #002b7f"/>
    <path d="M1196.23,281.85c-37.49,33.69-60.93,34-82,32.28-21.12-2.43-39.87-7.47-68,1.26-37.5,10.51-56.25,68.51-93.75,69.89-75-1.7-93.75-64.1-150-78.5-37.5-11.27-56.25,37.34-93.75,23-75-29.74-93.75-94.38-150-116.6C521.25,198.57,502.5,247,465,235.39c-75-20.82-93.75-78.45-150-80.77-37.5.62-56.25,58.18-93.75,67.76-75,25.07-93.75-16.32-150,29C33.75,285.52,22.5,339.13,0,365.86v71.43C22.5,410.58,33.75,357,71.25,322.81c56.25-45.31,75-3.94,150-29,37.5-9.56,56.25-67.14,93.75-67.75,56.25,2.32,75,59.95,150,80.76,37.5,11.65,56.25-36.81,93.75-22.24,56.24,22.22,75,86.85,150,116.59,37.5,14.38,56.25-34.22,93.75-23,56.25,14.41,75,76.8,150,78.5,37.5-1.38,56.25-59.36,93.75-69.89,28.12-8.69,46.87-3.69,68-1.29,21.09,1.77,44.53,1.43,82-32.28,37.5-35.2,49.63-67.26,63.75-95.16V176C1245.87,203.93,1233.74,246.57,1196.23,281.85Z" transform="translate(0 0)" style="fill: #002b7f"/>
    <path d="M1260,37.29v0Z" transform="translate(0 0)" style="fill: #002b7f"/>
    <path d="M1196.24,143.14c-37.49,33.69-60.93,34-82,32.29-21.13-2.42-39.88-7.44-68,1.28-37.5,10.51-56.25,68.5-93.75,69.88-75-1.69-93.75-64.08-150-78.49-37.5-11.27-56.25,37.33-93.75,23-75-29.75-93.75-94.37-150-116.61C521.25,59.87,502.5,108.38,465,96.7c-75-20.83-93.75-78.45-150-80.78-37.5.62-56.25,58.23-93.75,67.78-75,25.08-93.75-16.3-150,29C33.75,146.82,22.5,200.43,0,227.17v71.42c22.5-26.71,33.75-80.33,71.25-114.49,56.25-45.3,75-3.93,150-29C258.75,145.54,277.5,88,315,87.34c56.25,2.33,75,60,150,80.78,37.5,11.64,56.25-36.82,93.75-22.25,56.24,22.22,75,86.86,150,116.6,37.5,14.37,56.25-34.23,93.75-23,56.25,14.4,75,76.8,150,78.49,37.5-1.38,56.25-59.36,93.75-69.88,28.12-8.7,46.87-3.7,68-1.29,21.09,1.81,44.53,1.42,82-32.29,37.5-35.26,49.64-67.27,63.75-95.21v-82C1245.87,65.24,1233.74,107.87,1196.24,143.14Z" transform="translate(0 0)" style="fill: #002b7f"/>
    <path d="M306,.08q7.51-.08,15,0Q313.52-.06,306,.08Z" transform="translate(0 0)" style="fill: #fff"/>
    <path d="M630,511.34V87.59C527,44.83,424,2.06,321,.07q-7.51-.08-15,0C204,2.13,102,46.14,0,171.72V595.45C210,336.91,420,424.13,630,511.34Z" transform="translate(0 0)" style="fill: #fff"/>
    <g style="clip-path: url(#a)">
      <path d="M306,.08q7.51-.08,15,0Q313.52-.06,306,.08Z" transform="translate(0 0)" style="fill: #00247d"/>
      <path d="M630,505.75V87.59C527,44.83,424,2.06,321,.07q-7.51-.08-15,0C204,2.13,102,46.14,0,171.72V589.88C210,331.34,420,418.55,630,505.75Z" transform="translate(0 0)" style="fill: #00247d"/>
      <path d="M630,87.59c-105,26.1-210,52.18-315,121.49q21.81,14.55,43.6,31.47C449.06,179.92,539.53,133.76,630,87.59Z" transform="translate(0 0)"/>
      <path d="M630,505.75c-90.46-97.61-180.93-195.23-271.4-265.2Q336.8,255.15,315,270.93C420,334.14,525,420,630,505.75Z" transform="translate(0 0)"/>
      <path d="M315,209.08C210,139,105,112.14,0,171.72c89.06-3.9,178.12,24.72,267.18,72.07C283.12,231.12,299.05,219.6,315,209.08Z" transform="translate(0 0)"/>
      <path d="M267.18,243.79C178.12,314.55,89.06,421.12,0,589.88c105-144,210-242.77,315-318.95Q291.09,256.54,267.18,243.79Z" transform="translate(0 0)"/>
      <path d="M315,255.83c100.3,67,200.61,173.32,300.91,281.49l28.17-63.05c-86.21-93-172.43-187.28-258.64-258.92,86.21-42.82,172.43-63,258.64-84.48Q637,109.23,630,87.59c-23.47-9.75-47-19.51-70.43-28.77C478,80.77,396.52,108.53,315,162.33c-81.52-54.4-163-82.78-244.56-64.85A621.66,621.66,0,0,0,0,171.72v46.74c81.52-46.24,163-40.39,244.56-2.68C163,286.29,81.52,388.65,0,543.13v46.74q7.05,10,14.09,20.58C114.39,427.69,214.7,322,315,255.83Z" transform="translate(0 0)" style="fill: #fff"/>
      <g style="clip-path: url(#f)">
        <path d="M630,505.75c-90.46-97.61-180.93-195.23-271.4-265.2Q336.8,255.15,315,270.93C420,334.14,525,420,630,505.75Z" transform="translate(0 0)"/>
        <path d="M630,87.59c-105,26.1-210,52.18-315,121.49q21.81,14.55,43.6,31.47C449.06,179.92,539.53,133.76,630,87.59Z" transform="translate(0 0)"/>
        <path d="M267.18,243.79C178.12,314.55,89.06,421.12,0,589.88c105-144,210-242.77,315-318.95Q291.09,256.54,267.18,243.79Z" transform="translate(0 0)"/>
        <path d="M315,209.08C210,139,105,112.14,0,171.72c89.06-3.9,178.12,24.72,267.18,72.07C283.12,231.12,299.05,219.6,315,209.08Z" transform="translate(0 0)"/>
        <path d="M315,240.25c101.87,68,203.74,176.67,305.61,286.56q9.38-21,18.77-42.07C546.91,385,454.44,284.22,362,212c92.48-50.53,185-72.53,277.42-95.51Q634.71,102,630,87.59c-15.64-6.49-31.3-13-47-19.36-89.31,23-178.65,50.71-268,109.69-89.35-59.64-178.69-88-268-58.39A662,662,0,0,0,0,171.72v31.16c89.35-50.7,178.69-38.79,268,9.06C178.69,282.7,89.35,389.4,0,558.71v31.16q4.7,6.68,9.39,13.61C111.26,415.43,213.13,307.49,315,240.25Z" transform="translate(0 0)" style="fill: #cf142b"/>
      </g>
      <path d="M735,338.7C595,287,455,209.61,315,209.09V282.4C455,278.84,595,315.47,735,338.7Z" transform="translate(0 0)"/>
      <path d="M315,209.09C210,208.7,105,251.53,0,380.8c105-70.47,210-95.74,315-98.4Z" transform="translate(0 0)"/>
      <path d="M367.5,3.6a384.22,384.22,0,0,0-105,0h0A384.22,384.22,0,0,1,367.5,3.6Z" transform="translate(0 0)" style="fill: #fff"/>
      <path d="M308.12.06Q315,0,321.87.08,315-.06,308.12.06Z" transform="translate(0 0)" style="fill: #fff"/>
      <path d="M262.5,561.16a384.22,384.22,0,0,1,105,0V282.37c122.5,15.86,245,80.78,367.49,126V269C612.5,223.73,490,158.85,367.5,143V3.6A406.89,406.89,0,0,0,321.87.08Q315,0,308.12.06A368.36,368.36,0,0,0,262.5,3.62V143C175,155.67,87.5,203.37,0,311.1V450.49C87.5,342.76,175,295.07,262.5,282.38Z" transform="translate(0 0)" style="fill: #fff"/>
      <path d="M735,338.7C595,287,455,209.61,315,209.09V282.4C455,278.84,595,315.47,735,338.7Z" transform="translate(0 0)"/>
      <path d="M315,209.09C210,208.7,105,251.53,0,380.8c105-70.47,210-95.74,315-98.4Z" transform="translate(0 0)"/>
      <path d="M320.26.07h.4q-7.34-.13-14.66,0h.3Q313.27-.06,320.26.07Z" transform="translate(0 0)" style="fill: #cf142b"/>
      <path d="M346.5,1.37q-12.93-1-25.84-1.3h-.4Q333.39.3,346.5,1.37Z" transform="translate(0 0)" style="fill: #cf142b"/>
      <path d="M306.3.08H306c-7.5.15-15,.52-22.5,1.15Q294.9.28,306.3.08Z" transform="translate(0 0)" style="fill: #cf142b"/>
      <path d="M306,.08q7.32-.08,14.66,0Q313.32-.06,306,.08Z" transform="translate(0 0)" style="fill: #cf142b"/>
      <path d="M283.5,558.8a383,383,0,0,1,63,.15V252.27C476,262.88,605.5,332.7,735,380.52V296.88C605.49,249.07,476,179.25,346.5,168.63V1.37q-12.93-1-25.84-1.3Q313.32,0,306,.08c-7.5.15-15,.52-22.5,1.15V168.49C189,176.31,94.5,222.61,0,339v83.64c94.5-116.38,189-162.68,283.5-170.5Z" transform="translate(0 0)" style="fill: #cf142b"/>
    </g>
    <path d="M937.46,396.82,933,964.2c0,30,20.34,30.18,22.5.12L951,396.91C946.47,397,942,397,937.46,396.82Z" transform="translate(0 0)" style="fill: #a24300"/>
    <path d="M930.25,386.93q-2.28,288.49-4.58,577c0,21.4,8.55,32,17,32.58h.68c8.36,0,17.78-9.85,19.33-31.49v-.52q-2.28-288.68-4.58-577.41Q944.21,387.53,930.25,386.93ZM943.4,977.16h0c-.66,0-3.14-3.37-3.14-12.68q2-250.22,4-500.46,2,250,4,500C947.36,974,944.23,977.17,943.4,977.16Z" transform="translate(0 0)" style="fill: #fff"/>
    <polygon points="943.4 977.15 943.4 977.15 943.4 977.15 943.4 977.15" style="fill: #fff"/>
    <path d="M980.71,568.46q7.38,3,14.78,5.66-10.79-10.67-21.55-22,7.38,3.15,14.78,6-10.79-10.87-21.55-22.44,7.41,3.28,14.78,6.25Q970,528.05,958.14,513.45q7.41,3.45,14.78,6.61Q961,506,949.12,491q7.38,3.6,14.77,7-11.89-14.43-23.8-29.6-6-7.6-11.9-15.36c-2.46-1.35-4.93-2.71-7.39-4.1-1,2.47-1.91,4.93-2.87,7.39q.81,9.51,1.63,19,1.65,19,3.28,38,2.88-7.43,5.75-14.89,1.65,19,3.28,37.9,2.88-7.5,5.75-15l3.27,37.83q2.88-7.56,5.75-15.15.51,16.05,1,32.11,2.88-7.59,5.75-15.25.51,16.05,1,32.1,2.88-7.66,5.75-15.35,3.08,15,6.15,29.85,1.76-10.5,3.5-21,7.13,9.91,14.2,19.45-1.92-12.06-3.89-24.14,8.52,5.72,17,11Q988.93,580.81,980.71,568.46Z" transform="translate(0 0)" style="fill: #006d00"/>
    <path d="M943.47,488.58l0,0v0Z" transform="translate(0 0)" style="fill: #fff"/>
    <path d="M1003.79,584.4q-3.42-4.92-6.84-9.89,2.09-5,4.15-10-4.77-4.62-9.52-9.39c.92-2.18,1.83-4.37,2.75-6.55q-4.64-4.61-9.28-9.34c1-2.13,1.91-4.24,2.86-6.37q-6.18-7.05-12.35-14.33c1.11-2.43,2.21-4.87,3.32-7.31q-6.18-7.23-12.34-14.65,1.66-3.61,3.31-7.23-18.48-22.11-37-46.05-8.16-4.35-16.32-9-3.76,9.66-7.54,19.27,4.29,49.56,8.53,99,2.88-7.38,5.75-14.81,1.63,19,3.28,38,2.88-7.46,5.75-15,1.63,19,3.28,37.87l3.78-10q.51,16.07,1,32.14,2.88-7.54,5.75-15.14.51,16.05,1,32.1,5.28-13.95,10.56-28.07c.08.38.15.76.23,1.13q8.1-.5,16.17-1.36,12.45,17.17,24.89,33.46-3.24-19.87-6.47-39.8l.24.15Q998.3,594,1003.79,584.4ZM928.13,474l-.51-5.87,1.84,2.4C929,471.73,928.58,472.88,928.13,474Zm9,22.89h0q-.78-9.24-1.6-18.47l5.81,7.43C940,489.58,938.56,493.27,937.15,496.93Zm6.32-8.35h0v0l3,3.75-2.25,4.76q-.36-4.25-.73-8.51Zm2.71,31h0q-.81-9.21-1.6-18.44l5.81,7.26Q948.3,514.07,946.18,519.62Zm8.14-6.23c.39.48.78,1,1.16,1.43-.34.75-.69,1.49-1,2.24C954.43,515.84,954.38,514.61,954.32,513.39Zm.57,17.87c-.06-2.06-.13-4.13-.2-6.19.58.71,1.15,1.42,1.73,2.12Zm6.3,1.77,3.54,4.3-3.18,7.29Zm.48,14.93c0-1.09-.07-2.18-.1-3.27l.95,1C962.24,546.47,962,547.21,961.67,548Zm1.6.73c-.19-.91-.38-1.81-.58-2.78l4,4.32Z" transform="translate(0 0)" style="fill: #fff"/>
    <path d="M919.87,449.56q31.62,81.1,63.19,157.09l1.85-1.5q-31.59-75.63-63.18-156.74Z" transform="translate(0 0)"/>
    <path d="M921.81,513l2,.73q3.36-19.71,6.68-39.49,16.41,13.23,32.83,25.05c.34-.82.67-1.64,1-2.46q-17.64-12.66-35.31-27Q925.47,491.44,921.81,513Z" transform="translate(0 0)"/>
    <path d="M930.84,536l2,.68q3.36-19.79,6.68-39.64,16.41,12.87,32.82,24.26l1-2.49q-17.64-12.21-35.3-26.11Q934.51,514.39,930.84,536Z" transform="translate(0 0)"/>
    <path d="M939.87,558.84l2,.63q3.33-19.86,6.67-39.79,16.43,12.47,32.83,23.44l1-2.52q-17.64-11.72-35.3-25.23Q943.52,537.14,939.87,558.84Z" transform="translate(0 0)"/>
    <path d="M946.67,575.68l2,.9q4.44-17.28,8.86-34.69,15.36,9.4,30.74,17.49l.91-2.62Q972.74,548.18,956.3,538,951.5,556.91,946.67,575.68Z" transform="translate(0 0)"/>
    <path d="M953.44,592.54l2,.89q4.44-17.38,8.87-34.86,15.36,9.12,30.74,16.89c.3-.87.61-1.75.91-2.64q-16.44-8.24-32.88-18.07Q958.27,573.68,953.44,592.54Z" transform="translate(0 0)"/>
    <path d="M967.26,565.08l-2,42.39,2.1.07,1.74-37.33q13.71,12.4,27.38,23.74c.42-.81.83-1.62,1.24-2.43Q982.5,579,967.26,565.08Z" transform="translate(0 0)"/>
    <path d="M941.38,429.63q-10.59-18.09-21.16-36.73.94,9.56,1.91,19.09Q911.54,393.36,901,374.23q.94,9.58,1.9,19.19-10.56-19.08-21.15-38.65.94,9.63,1.9,19.24-8.17-17-16.34-34.37.94,9.66,1.9,19.27-8.16-17.28-16.34-34.84,1,9.68,1.91,19.36-10.11-15.29-20.21-31,3.36,12.42,6.72,24.79-11.55-8.5-23.11-17.46,7.71,13.15,15.39,26.13-11.07-3.81-22.15-8,14,11.85,27.92,23.1Q830.66,360,822,358.77q15.9,9.51,31.79,18.18-8.67-.78-17.35-1.86,15.9,9.15,31.79,17.37-8.69-.56-17.35-1.39,18.3,11.35,36.6,21.42-8.67-.19-17.35-.73,18.3,10.69,36.6,20-8.67.16-17.34,0,18.27,9.93,36.62,18.39,9.15,4.2,18.3,8c2.89-.33,5.78-.68,8.67-1.07-.32-3.15-.63-6.31-1-9.46Q946.67,438.67,941.38,429.63Z" transform="translate(0 0)" style="fill: #006d00"/>
    <path d="M907.42,351.46q1,9.56,1.9,19.13-10.58-18.91-21.15-38.35,1,9.61,1.9,19.22-10.58-19.36-21.16-39.22,1.17,11.61,2.3,23.22l-3,1Q864.1,327.79,860,319q-4.46,1.36-8.9,2.69-5.24-8-10.47-16-6.81,4.35-13.63,8.54l-5.75-4.42q-4.72,8-9.46,15.94l.51.88-.25-.09q-2,10.49-4.07,21,6.28,5.39,12.57,10.62l-.72,11.15q7.47,4.49,14.9,8.79c-.15,2.53-.31,5.06-.46,7.59q7.32,4.23,14.63,8.27c-.2,2.51-.41,5-.61,7.5q10,6.26,20,12.08c-.23,2.9-.47,5.79-.7,8.68q10,5.88,20,11.35-.35,4.35-.7,8.72a595.43,595.43,0,0,0,56.51,27.4q9.69-1.06,19.39-2.61-1.23-12.19-2.47-24.4Q933.84,398.92,907.42,351.46Zm-18.14,59.08c.23-2.9.47-5.8.7-8.7q-10.1-5.49-20.2-11.41c.18-2.92.35-5.84.53-8.75q-7.45-3.82-14.9-7.85c.15-2.53.31-5.07.46-7.6l-6.4-3.5,5.32,1.66-5.34-8.82c1.67,1.2,3.33,2.4,5,3.58q6.1,9.25,12.23,18.38-.72-7.21-1.43-14.45l3-1q4.11,8.69,8.2,17.29c2.37-.81,4.74-1.66,7.11-2.51Q895.4,398.7,907.25,420,898.28,415.46,889.28,410.54Zm19.25,19.15c.18-2.18.35-4.36.53-6.54l5.27,9.41Zm7,3.45h0q-.87-8.65-1.73-17.3,6.39,11.35,12.76,22.5Q921,435.83,915.5,433.14Zm18.29,8.47h0q-.36-3.86-.77-7.71,2.85,5,5.71,9.85C937.08,443.05,935.44,442.37,933.79,441.61Z" transform="translate(0 0)" style="fill: #fff"/>
    <path d="M818.73,318.79c-.39.68-.74,1.36-1.16,2,44.92,51.64,89.84,98.57,134.76,137.4.39-.77.78-1.56,1.16-2.33C908.57,417.17,863.65,370.35,818.73,318.79Z" transform="translate(0 0)"/>
    <path d="M919.24,393.32q6.42,22.59,12.84,45-21.33-2.93-42.66-8l-.15,2.76a458.53,458.53,0,0,0,46,8.47q-7-24.43-14-49.11Z" transform="translate(0 0)"/>
    <path d="M900,374.62q6.42,22.89,12.84,45.6-21.33-3.9-42.66-9.85l-.15,2.71q23,6.38,46,10.48-7-24.78-14-49.77Z" transform="translate(0 0)"/>
    <path d="M880.73,355.09q6.43,23.18,12.85,46.16-21.33-4.85-42.66-11.57c0,.91-.1,1.8-.16,2.71,15.34,4.79,30.67,8.93,46,12.32q-7-25.06-14-50.35Z" transform="translate(0 0)"/>
    <path d="M866.26,339.8q4.14,21,8.27,41.85-19-3.28-38.12-8v2.79q20.46,5,40.88,8.44-4.5-22.71-9-45.47Z" transform="translate(0 0)"/>
    <path d="M851.83,324.21q4.14,21.07,8.26,42.08-19.1-3.81-38.1-8.93v2.79q20.44,5.46,40.88,9.51-4.5-22.83-9-45.73Z" transform="translate(0 0)"/>
    <path d="M833.62,313q8.11,21.27,16.22,42.31-19.14-8.7-38.27-18.64c-.12.9-.25,1.79-.37,2.68q21.31,11,42.64,20.58-9.2-23.72-18.38-47.85Z" transform="translate(0 0)"/>
    <path d="M1067.53,375.08q9.63-13,19.25-26.66-12.1,8.55-24.2,16,5.67-13,11.35-26.16-12.33,15.9-24.69,30.64,3-10.29,5.92-20.62Q1044,366,1033,382.94q3-10.11,5.91-20.29-11.1,17.12-22.21,33.4,3-10,5.92-20-13.83,18.68-27.65,36.14,3-9.77,5.92-19.54Q987,410.35,973.2,426.93q3-9.56,5.91-19.19-13.82,16.83-27.64,32.56-6.9,7.89-13.82,15.52-1.49,4.64-3,9.27c2.63,1.12,5.27,2.22,7.9,3.29q9.45-1.44,18.81-3.36a385.21,385.21,0,0,0,37.54-9.73Q991,453.34,983.09,451a375.75,375.75,0,0,0,37.54-12.17q-7.9-1.41-15.81-3.2a387.07,387.07,0,0,0,37.54-14.75q-7.89-.86-15.81-2.1,16-5.34,32.11-12.44-7.92-.37-15.82-1.2,16.08-6.24,32.11-14.27-7.9.09-15.81-.28,14.82-9.84,29.63-21.26Q1078.15,372.62,1067.53,375.08Z" transform="translate(0 0)" style="fill: #006d00"/>
    <path d="M1085.14,337.86c-1.6,1.12-3.21,2.23-4.81,3.33q-5.61-5.16-11.2-10.59-6.29,8-12.57,15.65c-2.46-1.41-4.91-2.86-7.37-4.35q-5.58,8.79-11.14,17.35c-1.72-1.1-3.44-2.21-5.16-3.35q-5.46,8.3-10.92,16.4c-1.67-1.25-3.34-2.51-5-3.8q-8,10.67-16,20.92l-5.73-4.73q-8,10.11-16,19.85c-1.91-1.72-3.83-3.39-5.74-5.1q-21.51,25.86-43,49.2Q926.71,460.39,923,472q9.45,4.29,18.9,8.14A383,383,0,0,0,1000,466.56c.18-3,.37-6,.56-9.05q10.58-3.36,21.16-7.46.28-4.53.56-9.08,10.59-4.11,21.17-9c.16-2.65.33-5.3.49-7.95q7.68-3,15.36-6.43c.21-2.68.43-5.37.64-8.05q7.83-3.51,15.66-7.46l.93-11.75q7.14-5.17,14.26-10.74-.49-10.62-1-21.21l2.13-3.06Q1088.51,346.65,1085.14,337.86Zm-43.57,64q-7.82,3-15.65,5.59c-.24,3-.49,6.1-.73,9.18q-10.73,4.27-21.44,7.79c-.19,3-.37,6-.56,9.05q-10.59,3.44-21.2,6.22c-.19,3-.37,6-.56,9q-15,3.93-29.91,6.58Q962.29,443,973,430.14l5.73,5.11q8-9.74,16-19.84c1.91,1.6,3.82,3.17,5.73,4.74q8.1-10.38,16.21-21.18c2,1.38,3.92,2.76,5.88,4.12q5.56-8.28,11.14-16.76l1.54,1c-.73,2.52-1.47,5-2.2,7.58-2.5,1.42-5,2.83-7.5,4.2q3,.5,6,.91c-.48,1.66-1,3.33-1.46,5,1.34-1.53,2.69-3.08,4.06-4.63,2.48.34,5,.63,7.43.9Zm7.28-16.47-3.9,2.44,2.16-2.56,3.32-1.88c-.53.66-1,1.33-1.58,2Z" transform="translate(0 0)" style="fill: #fff"/>
    <path d="M934.27,463.82c.28.86.56,1.73.83,2.59,53.67-29.08,104.54-68.09,152.1-116.87l-.84-2.18C1038.8,396,987.93,434.87,934.27,463.82Z" transform="translate(0 0)"/>
    <path d="M980,408.45,978.27,407q-11.85,23.81-23.7,46.84a353.48,353.48,0,0,0,44.24,2.82c.08-.92.15-1.83.23-2.8a343.55,343.55,0,0,1-40.74-2.37Q969.13,430.36,980,408.45Z" transform="translate(0 0)"/>
    <path d="M1001.7,393.29,1000,392q-11.84,24.58-23.69,48.32a328.21,328.21,0,0,0,44.24,0c.07-.92.15-1.89.23-2.82a327.85,327.85,0,0,1-40.75.26Q990.86,415.84,1001.7,393.29Z" transform="translate(0 0)"/>
    <path d="M1023.43,376.66l-1.73-1.2q-11.85,25.4-23.69,49.91a316.13,316.13,0,0,0,44.23-3.05l.24-2.85a308.65,308.65,0,0,1-40.75,3.08Q1012.59,400,1023.43,376.66Z" transform="translate(0 0)"/>
    <path d="M1039.77,363.06l-1.82-.86q-9,23.58-18,46.62a296.39,296.39,0,0,0,38.5-1l.39-2.87a294.3,294.3,0,0,1-35.62,1.16Q1031.51,384.8,1039.77,363.06Z" transform="translate(0 0)"/>
    <path d="M1056.07,348.69l-1.83-.76q-9,24.09-18,47.62a290.39,290.39,0,0,0,38.49-3.19c.13-.94.27-1.94.4-2.9a285.76,285.76,0,0,1-35.62,3.17Q1047.79,370.88,1056.07,348.69Z" transform="translate(0 0)"/>
    <path d="M1074.71,338.9l-1.57-1.22q-13.37,25.19-26.73,49.1a340.45,340.45,0,0,0,42.36-16V368a334.77,334.77,0,0,1-37.67,14.59Q1062.91,361.2,1074.71,338.9Z" transform="translate(0 0)"/>
    <path d="M1059.68,514.53q8.55-4.92,17.11-10.36a284.78,284.78,0,0,1-32.52,4.2q8.58-4.44,17.11-9.42a298.82,298.82,0,0,1-32.51,2.46q8.55-4,17.11-8.51a304.46,304.46,0,0,1-37.65-2q8.55-3.45,17.11-7.35a326.37,326.37,0,0,1-37.65-4.49q8.55-2.9,17.11-6.25A355.47,355.47,0,0,1,967.25,466q-9.39-2.24-18.82-4.93c-2.85.66-5.71,1.27-8.56,1.87.58,3.12,1.16,6.25,1.72,9.36q6,8.46,12,16.73,12,16.55,24,32.29-1.71-9.19-3.43-18.41,12,15.89,24,30.86-1.73-9.07-3.43-18.2,12,15.15,24,29.37-1.72-9-3.43-18,9.41,13,18.83,25.47l-3.43-17.81q9.42,12.55,18.84,24.49-1.72-8.8-3.44-17.63,11.13,8.73,22.26,16.58-4.29-9.56-8.57-19.26,12,.4,24-.24-8.57-6.48-17.12-13.51,11.11-4.24,22.24-9.4A256.46,256.46,0,0,1,1059.68,514.53Z" transform="translate(0 0)" style="fill: #006d00"/>
    <path d="M1078.23,503.52V492.23q-7.7,1.49-15.4,2.54V487.1q-7.56,1-15.13,1.67c0-2.56.09-5.12.14-7.68q-10.35.18-20.7-.39c0-2.94.11-5.89.16-8.83q-10.35-.53-20.7-1.79c0-2.94.11-5.88.16-8.82a364.56,364.56,0,0,1-58.11-11.93q-9.69,2.25-19.4,4l4.47,24.48q30,42.91,60,81-1.72-9.1-3.44-18.24,12,15.29,24,29.7-1.71-9-3.43-18,12,14.53,24,28.08l-4.2-21.78,2.72-2.52q4.77,6.32,9.53,12.46,4.17-4,8.35-8.17,5.82,4.47,11.62,8.67,6.24-8.93,12.49-18.13,3-.08,6-.21,4.11-11.57,8.21-23.24l-.62-.46q1.35-11.74,2.69-23.47Q1084.88,503.69,1078.23,503.52ZM955.35,474.75l4.77,1.25c.43,2.35.87,4.69,1.3,7Zm12.55,3.16q5.52,1.29,11,2.41,1.5,8.12,3,16.15Q974.94,487.36,967.9,477.91ZM986,487.79l-5.53-7.17c1.88.38,3.76.71,5.64,1.08Q986.06,484.75,986,487.79Zm59.19,38.2q-6.86-5.38-13.72-11.12,1.32,6.81,2.63,13.6l-2.72,2.53q-4.74-6.35-9.53-12.83-3.35,3-6.69,5.9-13.35-16-26.7-33.12,9.09,1.59,18.19,2.68-.07,4.41-.16,8.82,10.47,1.26,21,1.82v8.81q7.69-.11,15.4-.63v7.68c2.15-.15,4.29-.31,6.44-.5l-5.19,1.61q2.88,2.58,5.73,5.1Z" transform="translate(0 0)" style="fill: #fff"/>
    <path d="M939.37,464.13c47.93,35.52,95.85,62.2,143.78,75.92l1-2.88c-47.92-13.55-95.85-40.07-143.77-75.47C940,462.51,939.71,463.33,939.37,464.13Z" transform="translate(0 0)"/>
    <path d="M1004.89,471.41a344.27,344.27,0,0,1-46.18,4.82q8.94,23.1,17.9,45.82l1.88-1.42Q970.3,500,962.12,478.92a351.16,351.16,0,0,0,42.78-4.67C1004.9,473.27,1004.9,472.35,1004.89,471.41Z" transform="translate(0 0)"/>
    <path d="M1025.43,482.15a335.46,335.46,0,0,1-46.18,7.67q8.94,22.59,17.9,44.71L999,533q-8.19-20.15-16.37-40.74a337.51,337.51,0,0,0,42.78-7.35C1025.44,484,1025.44,483.07,1025.43,482.15Z" transform="translate(0 0)"/>
    <path d="M1046,491.49a327.35,327.35,0,0,1-46.19,10.69q9,22,17.91,43.58l1.87-1.66q-8.18-19.62-16.36-39.69A345.16,345.16,0,0,0,1046,494.28C1046,493.36,1046,492.43,1046,491.49Z" transform="translate(0 0)"/>
    <path d="M1061.3,497.59a358.68,358.68,0,0,1-40.76,15.75q6.27,20.05,12.51,39.85l2-1.53q-5.74-18.12-11.49-36.49a363.72,363.72,0,0,0,37.94-14.87C1061.43,499.4,1061.37,498.49,1061.3,497.59Z" transform="translate(0 0)"/>
    <path d="M1076.71,502.81A366,366,0,0,1,1036,520.74q6.27,19.74,12.51,39.2l2-1.63q-5.73-17.84-11.48-35.9a367.88,367.88,0,0,0,37.94-16.9C1076.81,504.61,1076.76,503.71,1076.71,502.81Z" transform="translate(0 0)"/>
    <path d="M1067.4,559.22c.57-.75,1.15-1.5,1.72-2.26q-9.63-14.62-19.25-29.93a302.1,302.1,0,0,0,38.8-9.89l.21-2.86A300.21,300.21,0,0,1,1045.54,525Q1056.47,542.52,1067.4,559.22Z" transform="translate(0 0)"/>
    <path d="M919.73,462.38q-15,7.32-29.91,13.6,7.24,1.42,14.49,2.6-15,6.76-29.9,12.57,7.26,1.65,14.49,3.08Q874,500.5,859,505.87q7.23,1.88,14.48,3.53-13,3.95-26,7.2,7.24,2,14.49,3.85-13,3.63-26,6.63,7.26,2.16,14.49,4.15-11.31,6.12-22.66,11.77,9.18.57,18.34.85-6,9.81-12,19.53,9.39-4.08,18.8-8.45-2.38,10.88-4.78,21.72Q856.1,565,864,553.2q-.51,9.06-1,18.14,6.24-14.57,12.49-29.28l-.93,18.22q6.24-14.71,12.49-29.57L886.11,549q8.19-16.77,16.34-33.83-.47,9.14-.92,18.27,8.16-17.05,16.34-34.39-.43,9.17-.88,18.33,8.18-17.34,16.34-35,4.11-8.83,8.18-17.75c.15-3.06.31-6.11.46-9.17-2.41-.18-4.83-.37-7.24-.59Q927.2,458.72,919.73,462.38Z" transform="translate(0 0)" style="fill: #006d00"/>
    <path d="M886.47,464.91q.57,4.23,1.12,8.47-8.25,3.44-16.53,6.59l1.11,8.5q-8.25,3.18-16.52,6.09.51,3.69,1,7.38-6,1.6-12.07,3.11c.27,2.49.55,5,.82,7.47q-6.2,1.54-12.38,3l1.2,11q-5.37,2.75-10.75,5.39,2.49,10.35,5,20.67c-.49.77-1,1.55-1.46,2.34q5.49,9.81,11,19.59l3.32-1.47q6.78,6.13,13.58,12.12,3.9-5.75,7.79-11.55,4,2.26,8,4.47l6-14.19,5.54,3q2.94-7,5.87-14l5.43,3q4.59-9.46,9.17-19c2.08,1.1,4.17,2.18,6.25,3.24q4.57-9.63,9.16-19.37c2.09,1,4.17,2,6.25,3Q937.18,496.25,950,468l1.2-23.73q-9-.42-18-1.27Q909.81,455.33,886.47,464.91Zm-16,59.88-4.37-1c2.1-.59,4.19-1.21,6.29-1.84Zm3,13.42c.12-2.32.23-4.65.35-7l3.47-2Q875.39,533.71,873.47,538.21Zm43.26-42.68h0l0,.05,0-.05c-2.09-1-4.17-2.08-6.25-3.13q-4.58,9.66-9.16,19.21-3.12-1.64-6.25-3.34-4.65,9.69-9.33,19.23l-6.34-3.33c-.33.79-.67,1.58-1,2.38l-4.29-1c.07-1.44.14-2.88.22-4.32l2.08-.63q-.48-4.26-.94-8.54,8.4-3.28,16.81-6.88-.57-4.23-1.12-8.46,8.26-3.51,16.53-7.31L906.58,481q11-5,21.91-10.61Q922.59,483.11,916.73,495.53Z" transform="translate(0 0)" style="fill: #fff"/>
    <path d="M916.73,495.53h0l0,.05Z" transform="translate(0 0)" style="fill: #fff"/>
    <path d="M833.33,562.1c.46.82.92,1.63,1.37,2.45a1318.22,1318.22,0,0,0,107.9-108.1c-.45-.72-.9-1.43-1.36-2.14A1323.71,1323.71,0,0,1,833.33,562.1Z" transform="translate(0 0)"/>
    <path d="M890,477.38q17.55-1,35.09-3.36-4.56,21.47-9.13,42.83l2,.89q5-23.44,10-47-19.14,2.78-38.28,3.79C889.78,475.51,889.89,476.44,890,477.38Z" transform="translate(0 0)"/>
    <path d="M874.56,492.56q17.55-.44,35.09-2.17-4.56,21.3-9.14,42.52l2,1q5-23.25,10-46.6-19.11,2.06-38.27,2.46Z" transform="translate(0 0)"/>
    <path d="M859.15,507.25q17.55.12,35.08-1-4.56,21.15-9.13,42.2l2,1.05q5-23.07,10-46.25-19.14,1.39-38.27,1.22C858.94,505.38,859.05,506.32,859.15,507.25Z" transform="translate(0 0)"/>
    <path d="M847.41,515.16c0,.92.05,1.87.09,2.81q15.75,2.16,31.49,3.41-2.75,19.26-5.47,38.47l2.06.86q3-21,6-41.93Q864.5,517.55,847.41,515.16Z" transform="translate(0 0)"/>
    <path d="M836,528.44q15.75,2.49,31.48,4.11-2.73,19.19-5.46,38.34l2,.94,6-41.78q-17.07-1.65-34.16-4.38C835.85,526.56,835.9,527.5,836,528.44Z" transform="translate(0 0)"/>
    <path d="M828,544.38q15.63-1.57,31.22-4-6.06,17.82-12.12,35.52l1.94,1.51q6.88-20.13,13.78-40.5-17.67,2.91-35.36,4.69Z" transform="translate(0 0)"/>
    <path d="M1038.39,295.27q6.84-13.72,13.69-27.76-11.62,14.08-23.25,27.26L1025,273.52q-6.84,16.91-13.72,33.51c-.82-4.77-1.64-9.53-2.46-14.31q-5.61,16.72-11.21,33.25c-.52-4.76-1-9.5-1.57-14.25q-4.35,16.68-8.7,33.31-2.49-7.48-5-15Q978,350,973.64,370q-2.49-7.58-5-15.2-4.36,19.86-8.73,39.6-2.46-7.67-5-15.37-4.35,19.68-8.72,39.27-2.16,9.8-4.36,19.57l2.49,7.78q4.68-2,9.33-4.12,8.1-8.1,16.18-16.56,16.2-16.9,32.36-35.37-9.33,5.55-18.67,10.57,16.18-17.56,32.36-36.7-9.33,6-18.66,11.36,16.17-18.24,32.36-38.09-9.33,6.36-18.67,12.17,16.17-15.43,32.33-32.54-11,6.76-22.06,12.71,17.43-15.82,34.85-33.69-10.59,7.25-21.18,13.71,12.76-16.84,25.54-34.81Q1049.42,285.21,1038.39,295.27Z" transform="translate(0 0)" style="fill: #006d00"/>
    <polygon points="1026.06 311.73 1026.06 311.73 1026.06 311.73 1026.06 311.73" style="fill: #fff"/>
    <path d="M1056.74,265.21c-.75.74-1.5,1.48-2.26,2.21q-3.62-3.92-7.22-7.88-6.39,7.65-12.79,15-2.91-16.19-5.83-32.41-6.81,16.88-13.61,33.4-1.59-9.27-3.2-18.55-8.76,26.25-17.54,52-3.18,0-6.39-.05c-.41,1.56-.81,3.12-1.22,4.68q-2.88-8.65-5.76-17.37-4.35,20-8.72,39.91-2.49-7.57-5-15.21-4.35,19.85-8.72,39.57-2.46-7.69-5-15.39-10.38,46.94-20.8,93.28,3.41,10.77,6.82,21.47,9.12-3.79,18.22-8,24.84-25.14,49.66-53.8c-1-2.29-1.91-4.59-2.87-6.89q8.28-9.53,16.57-19.46l-2.88-6.77q8.28-9.87,16.57-20.24-.88-2.12-1.78-4.23,7.35-7.51,14.68-15.42-1-3-2-6.11,7.23-7.17,14.47-14.69l-3.27-10.16q4.52-6.25,9-12.72Q1061.3,273.35,1056.74,265.21ZM953.19,427.78q1.65-7.39,3.28-14.8c.94,2.89,1.88,5.77,2.81,8.66Q956.25,424.75,953.19,427.78Zm28.15-29.24q-8.69,9.36-17.36,18.29,3.09-14,6.19-28.13,2.49,7.6,5,15.17,4.35-19.94,8.72-40,2.08,6.35,4.19,12.63l4.41-16.9.63,5.63-.93,1c1,2.36,1.91,4.7,2.87,7q-8.28,9.29-16.57,18.14Zm38.22-71.2q-6.45,6.35-12.89,12.39,1.27,3.58,2.56,7.15-7.82,9.08-15.61,17.78,6.12-18,12.23-36.15.85,5,1.72,10,6.93-16.65,13.83-33.6l1.71,9.52q-2.91,2.66-5.83,5.27Zm6.5-15.61h0q2.64-3,5.27-6c.11.25.21.51.32.76q-2.79,2.67-5.59,5.21Z" transform="translate(0 0)" style="fill: #fff"/>
    <path d="M1008.77,326.82q-32.6,62.16-65.2,118l1.67,1.71q32.49-56,65-117.95,16.75-22.23,33.5-46.29l-1.37-1.7Q1025.57,304.64,1008.77,326.82Z" transform="translate(0 0)"/>
    <path d="M959,419.71q-1.49-16.93-3-33.89l-2.09.37L957.2,424q19.2-12.61,38.4-27.33l-.9-2.39Q976.85,407.9,959,419.71Z" transform="translate(0 0)"/>
    <path d="M972.67,395.36q-1.47-16.89-3-33.79l-2.09.44,3.3,37.61q19.47-13.26,39-28.77l-.89-2.37Q990.84,382.91,972.67,395.36Z" transform="translate(0 0)"/>
    <path d="M986.38,370.39q-1.35-16.78-2.69-33.58l-2.09.5,3,37.46q19.33-14.08,38.69-30.45c-.3-.77-.59-1.55-.89-2.32Q1004.4,357.26,986.38,370.39Z" transform="translate(0 0)"/>
    <path d="M1000,345.19l-3.81-27-2.07.79,4.26,30.24q18-11.48,36-25c-.24-.8-.49-1.62-.73-2.43Q1016.79,334.42,1000,345.19Z" transform="translate(0 0)"/>
    <path d="M1010.41,325.69q-.69-13.17-1.36-26.36l-2.1.56q.78,15,1.55,29.92,19.32-11.87,38.61-26.14c-.22-.82-.43-1.64-.65-2.45Q1028.43,314.56,1010.41,325.69Z" transform="translate(0 0)"/>
    <path d="M1018.81,314.46q3-16.93,6.11-33.95l-2-.2q-3.61,20.07-7.23,40.06,18.29-16.1,36.58-34.42c-.33-.72-.66-1.45-1-2.17Q1035,300,1018.81,314.46Z" transform="translate(0 0)"/>
    <path d="M964.44,355.42q-5.67,5.43-11.35,10.66,5.25-19.4,10.49-38.94-5.69,5.4-11.35,10.63,3.66-16.38,7.31-32.82-4,5.83-8,11.59Q954,299.78,956.35,283q-4.41,5.67-8.84,11.24l2.31-34.31q-6.69,8.37-13.39,16.52-5.14-15.93-10.34-31.87.43,14.18.86,28.36Q920.74,260,914.53,247q4.74,19.46,9.47,38.81-7.37-9.84-14.71-19.95,9.36,21.48,18.74,42.5-7.8-9.94-15.59-20.18,8.13,20.9,16.24,41.45-6.1-9.28-12.21-18.77Q923,334.53,929.54,358q-6.09-9.28-12.21-18.75,6.54,23.65,13.07,47.11-6.09-9.23-12.21-18.72,6.54,23.64,13.07,47.08,3.27,11.73,6.54,23.39,3,4.58,6.1,9.13c1.89-1.7,3.78-3.41,5.67-5.15q2.63-9.68,5.25-19.38,5.25-19.43,10.48-39-5.67,5.42-11.35,10.69Q959.2,375,964.44,355.42Z" transform="translate(0 0)" style="fill: #006d00"/>
    <path d="M944.22,428.05l0-.07,0,.07Z" transform="translate(0 0)" style="fill: #fff"/>
    <path d="M981.67,324.61q-5.67,5.75-11.35,11.21,5.25-19.63,10.48-39.45-6.63,6.7-13.31,13.09l.36-1.63c-1.89-1.32-3.78-2.62-5.66-4q3.87-27.07,7.8-54.32-5.87,7.74-11.72,15.29l2.28-34.11Q950,244.12,939.49,257q-2.73-8.34-5.47-16.71-5.64,1.55-11.29,2.93c-.33-.66-.66-1.33-1-2q-7.74,4.47-15.47,8.67l3.33,13.75q-3.87,3.75-7.76,7.43,3.81,8.81,7.61,17.51c-1.56,1.45-3.12,2.91-4.69,4.31L912,311.6q-1.82,1.32-3.64,2.63,3.36,12.13,6.67,24.24-2.89,2.1-5.8,4.17,3.33,12.14,6.67,24.21-2.89,2.11-5.81,4.2,10.11,36.69,20.18,72.91,6.15,9.36,12.27,18.48,7.14-6.39,14.25-13.05,12.87-47.79,25.75-96.51-5.67,5.76-11.35,11.25Q976.43,344.44,981.67,324.61ZM930,308.47l2.7-2.81q2.13,4.32,4.22,8.63-.33-10.91-.67-21.82,1.51-1.8,3-3.67-1.14,17.26-2.32,34.52,3-3.68,6-7.39-2.7,18.79-5.41,37.57-3.35-12-6.7-24,2.79-2.47,5.58-5Q933.15,316.52,930,308.47Zm2.72,78.65h0q2.91-2.25,5.8-4.52-3.33-11.89-6.66-23.84l5.8-4.51-.18-.66,3.18-4.52q-1.83,8.18-3.68,16.33,4.69-4.12,9.38-8.38-5.25,19.32-10.49,38.47,5.67-5,11.35-10.14-3.69,13.63-7.39,27.14Q936.28,399.89,932.71,387.12Zm11.51,40.93h0a.14.14,0,0,0,0-.07q-1.2-4.28-2.41-8.55,3.16-2.83,6.32-5.7-2,7.14-3.91,14.25Z" transform="translate(0 0)" style="fill: #fff"/>
    <path d="M929.72,259.23l-2,.66q5.52,26.57,11.06,52.92,2,67.21,4.09,134.45l2.1-.1q-2-67.28-4.09-134.55Q935.29,286,929.72,259.23Z" transform="translate(0 0)"/>
    <path d="M943.16,416.62Q933.05,396.32,923,375.5l-1.75,1.43Q932.1,399.36,943,421.2q10-15,20-30.49l-1.58-1.78Q952.26,403,943.16,416.62Z" transform="translate(0 0)"/>
    <path d="M942.29,388.3q-10.38-20.46-20.77-41.41l-1.74,1.46q11.16,22.56,22.29,44.51,10-15,20-30.44l-1.58-1.78Q951.4,374.68,942.29,388.3Z" transform="translate(0 0)"/>
    <path d="M941.42,359.94q-10.23-20.38-20.48-41.32l-1.74,1.44q11,22.54,22,44.47,9.85-15,19.71-30.49l-1.59-1.79Q950.38,346.32,941.42,359.94Z" transform="translate(0 0)"/>
    <path d="M940.53,331.82Q930,314.63,919.39,296.88l-1.62,1.66q11.29,19,22.61,37.42,8.82-11.65,17.62-23.7l-1.49-1.92Q948.53,321.25,940.53,331.82Z" transform="translate(0 0)"/>
    <path d="M939.76,310.49q-11.76-17.62-23.59-36l-1.56,1.76q12.61,19.61,25.24,38.52,7.5-12.19,15-24.68l-1.63-1.72Q946.5,299.56,939.76,310.49Z" transform="translate(0 0)"/>
    <path d="M937,297.36q-8.82-19.31-17.64-39l-1.8,1.33q9.93,22.18,19.81,43.84,5.7-18.28,11.37-36.75l-2-1.05Q941.92,281.6,937,297.36Z" transform="translate(0 0)"/>
    <path d="M927.28,438.41q-15.59-7.77-31.17-16.69,4.57,8.55,9.14,17Q890,426.78,874.84,413.86q4.56,8.75,9.13,17.42-15.59-9.31-31.16-19.61,4.56,9,9.13,17.83-12.93-8.91-25.85-18.38,4.57,9.11,9.14,18.11-12.93-9.3-25.85-19.16,4.59,9.21,9.14,18.35-13.31-6.36-26.6-13.28,7.62,7.42,15.2,14.68-15.12,9.8-30.36,19,14.43-2.65,28.86-5.86-6.81,10.5-13.65,20.88,12.13-7.63,24.29-15.67-6.45,7.32-12.9,14.57,14.8-6.48,29.61-13.65-6.45,7.5-12.9,14.87,14.43-3.57,28.86-7.86-6.07,4.36-12.15,8.62,17.1-2.81,34.18-6.7-6.08,4.64-12.15,9.14,16.74-.18,33.43-1.52-2.46,6.14-4.94,12.23,13.5-5.78,27-12.39,8.37-1.12,16.71-2.59c2-1.8,4-3.65,6.07-5.54l-4.56-8Q934.9,444,927.28,438.41Z" transform="translate(0 0)" style="fill: #006d00"/>
    <polygon points="885.18 455.02 885.18 455.01 885.17 455.01 885.18 455.02" style="fill: #fff"/>
    <path d="M931.25,428.37a657,657,0,0,1-59.1-33.11l5.52,10.6L873,412.43q-22.1-13.71-44.18-29.26,4.07,8.16,8.14,16.26-12.9-9.48-25.84-19.51,4.56,9.27,9.13,18.48-12.9-9.84-25.84-20.21l13.94,28.5-5-2.57q-2.67,10-5.35,20c.8.77,1.59,1.55,2.38,2.33q-9.24,5.79-18.5,11.33,4,11.38,8,22.73c2.55-.5,5.1-1,7.64-1.52q4.74,7.88,9.46,15.66,4.15-2.62,8.3-5.32c.76,1.52,1.51,3,2.26,4.55q6.24-2.76,12.48-5.66c1.06,2.39,2.11,4.77,3.17,7.15q7.26-1.8,14.53-3.85c.52,1.56,1,3.1,1.55,4.67q9.6-1.65,19.16-3.58c.56,2,1.13,4,1.69,6q8.43-.14,16.86-.52-4,9.83-8,19.59,23.85-9.27,47.69-21.05c5.89-.83,11.78-1.77,17.66-2.86q7.59-6.93,15.19-14.18-5.61-9.63-11.22-19.41Q939.73,434.5,931.25,428.37ZM828.14,443c.52-.8,1-1.6,1.54-2.4l1.8.85ZM844,448l-.53-1,1.62.73Zm3.53-1q-1.57-3.12-3.17-6.24,3.58,2.56,7.17,5.11Zm10.59,3.66-.08-.22.27.19Zm7.18-1.37-4.23-8.21q5.13,3.54,10.26,7Zm16.2,5.84a1.54,1.54,0,0,0-.16-.47l.69.45Zm3.69-.15h0q-4.2-7.95-8.4-16,12.75,7.8,25.47,14.92Q893.71,454.64,885.18,455ZM922,454.1h0c-2.08,1-4.17,2-6.25,3,.62-1.56,1.23-3.12,1.85-4.67-3.84.47-7.67.86-11.51,1.2-1.21-2.26-2.43-4.5-3.65-6.76l4.66-6.87q8.4,4.59,16.82,8.86l5.71,4.19C927.06,453.42,924.51,453.77,922,454.1Z" transform="translate(0 0)" style="fill: #fff"/>
    <path d="M882.53,443.21q-12.06-2.76-24.12-6.19-7-1.25-14.08-2.65-8.36-.3-16.71-.84-15.84,5.06-31.66,9.31c.27,1,.55,1.91.83,2.81q15.63-4.27,31.26-9.27,8.22.51,16.44.8,6.94,1.38,13.87,2.61,12,3.38,24.06,6.19,10.8,2.26,21.6,4,21.48,5.44,42.92,8.68c.07-.91.15-1.82.23-2.77a431.87,431.87,0,0,1-43-8.67Q893.37,445.49,882.53,443.21Z" transform="translate(0 0)"/>
    <path d="M900.38,428.2q11.64,13.4,23.26,26.22Q912.3,463,900.94,471c.37.83.73,1.66,1.09,2.5q12.66-8.92,25.27-18.59-12.81-14-25.63-28.75Z" transform="translate(0 0)"/>
    <path d="M879.05,420.94q11.58,13.92,23.17,27.25-14.09,8.47-28.17,16.14c.34.88.67,1.75,1,2.63q15.51-8.44,31-17.89Q893.21,434.4,880.35,419Z" transform="translate(0 0)"/>
    <path d="M857.2,417.64q11.7,13.55,23.36,26.59-12.87,8.29-25.74,15.95l1.08,2.61q14.25-8.49,28.47-17.78-13-14.36-25.94-29.36Z" transform="translate(0 0)"/>
    <path d="M823.79,417.27q9.45,9.32,18.87,18.35-12,11.19-23.92,21.88l1.38,2.47q13.11-11.76,26.17-24.05-10.74-10.21-21.49-20.87C824.46,415.81,824.12,416.54,823.79,417.27Z" transform="translate(0 0)"/>
    <path d="M811.89,424.39q7,5.42,14,10.67-9.2,10.85-18.39,21.41L809,458.8q10.26-11.82,20.52-24-8.49-6.3-17-12.85C812.37,422.78,812.13,423.59,811.89,424.39Z" transform="translate(0 0)"/>
    <path d="M840.44,417.88q9.33,10.55,18.66,20.77-11.79,10.22-23.61,19.9c.44.83.88,1.66,1.31,2.49q12.91-10.64,25.84-21.88-10.5-11.46-21-23.32C841.23,416.52,840.84,417.2,840.44,417.88Z" transform="translate(0 0)"/>
    <path d="M893.12,791.86q17.49,9.74,35,18.07a386.38,386.38,0,0,0,46.74-1.66q12.67-8,25.34-16.9a360.94,360.94,0,0,1-54.61-8.48A433.36,433.36,0,0,1,893.12,791.86Z" transform="translate(0 0)" style="fill: #9d9d9d"/>
    <path d="M945.59,782.54a419.26,419.26,0,0,1-52.52,9v.68q17.49,9.74,35,18.08h.08a378.55,378.55,0,0,0,46.75-1.66q12.71-8,25.43-16.94l-.06-.68A357.49,357.49,0,0,1,945.59,782.54Zm29.17,25.38h0a373,373,0,0,1-46.65,1.66q-17-8.07-33.88-17.48a432.9,432.9,0,0,0,51.31-8.84,373.8,373.8,0,0,0,53.65,8.41Q987,800.24,974.76,807.92Z" transform="translate(0 0)"/>
    <path d="M983.74,691.69c0,.32-28.91-12.41-37.8-8.76-9.16,4.18-19.31-6.17-35.83,9,0,.28-28.81-19.58-31,17.6C879,711,883.67,721,884.32,720.4c3.62-3.16-1.72,3.34-1.72,4.41a5.13,5.13,0,0,0,.71,2.22,8.12,8.12,0,0,1,.71,3.29c.09,2-3.27,6.95-1.85,9.16s1.5,8,1.5,9.63.89,6.35,1.51,7.38a12.56,12.56,0,0,1,1.68,5.53c0,2,.62,7.61.35,9s1.59,3.4,3.28,4.32,23.37,4.83,53.81,4.36c30.45-.89,40.61,3.64,53.19-4a4.75,4.75,0,0,0,2.12-4.54c-.17-1.15,0-4.92.54-5.95s4.07-9.1,3.36-10.4c.66-.9,5.63,2.85,2.47-.72-.81-.92.45-12.24.89-14.62s1.11-6.94,1.92-7.91-1.38-3.62-1.22-4.2a10,10,0,0,1,1.57-3.35s1.54-9.84.59-14.36S1005.33,685,983.74,691.69Z" transform="translate(0 0)" style="fill: #c00"/>
    <path d="M1010.06,708.92c-3.33-16.46-12.18-22-26.27-17.82-2.22-.63-29.24-12.36-38-8.71-3.08,1.41-6.23,1.12-9.87.75-6.7-.71-15-1.72-25.89,8.12-1.9-1.16-14.21-8.54-23-2.8-4.94,3.27-7.76,10.3-8.39,20.94-.1,1.76,4,10.33,5.18,11.4a.84.84,0,0,0,.36.19l-.29.44c-1.34,2-1.76,2.74-1.76,3.28a4.71,4.71,0,0,0,.59,2.14c.07.13.13.25.17.34l.1.28a6.93,6.93,0,0,1,.56,2.77,10.42,10.42,0,0,1-.91,3c-.89,2.28-1.91,4.86-.83,6.55,1.29,2,1.39,7.56,1.39,9.2s.89,6.57,1.61,7.78a12,12,0,0,1,1.58,5.13c0,.79.09,2.11.18,3.51a36.58,36.58,0,0,1,.18,5.33c-.37,1.89,1.91,4.15,3.57,5,1.89,1,24.52,4.92,54,4.41q14.65-.24,29.26.39a86.65,86.65,0,0,0,11.5-.22,27.91,27.91,0,0,0,12.57-4.26,5.44,5.44,0,0,0,2.4-5.24,16.53,16.53,0,0,1,.45-5.49c0-.07,3.48-7.38,3.52-10.25a9.72,9.72,0,0,1,1.54.56c1.06.46,1.54.66,1.82,0s0-1-1.08-2.22c-.55-1,.47-11.2,1-14.14.07-.39.14-.78.2-1.16.35-2,1-5.71,1.56-6.39.84-1,.05-2.48-.59-3.69a6.67,6.67,0,0,1-.45-.93,9,9,0,0,1,1.39-2.93c.05-.13.11-.25.17-.38.06-.4,1.54-10,.58-14.6C1010.13,709.18,1010.1,709.05,1010.06,708.92Zm-1.31,14.76h0a11.82,11.82,0,0,0-1.59,3.47c-.13.5.12,1,.57,1.82a5.53,5.53,0,0,1,.8,2.11c-.75.9-1.28,3.62-1.88,7.1-.07.37-.13.76-.2,1.15-.16.87-1.94,13.86-.78,15.18l.08.08c-1.27-.54-2.08-.82-2.53-.2,0,.24-.05.5-.07.75.41.87-2.42,8-3.35,9.73-.65,1.26-.79,5.29-.61,6.41a4,4,0,0,1-1.85,3.85c-7.21,4.51-13.77,4.59-23.7,4.35-6.42-.19-14.22-.56-24.59-.47-1.53,0-3.11,0-4.75,0-30.4.46-52.11-3.56-53.68-4.32s-3.16-2.72-3-3.59a34.2,34.2,0,0,0-.15-5.72c-.1-1.36-.19-2.65-.19-3.4a13.31,13.31,0,0,0-1.79-5.91,26.37,26.37,0,0,1-1.4-7c0-2.26-.15-7.75-1.61-10-.67-1.05.24-3.37,1-5.23a10.17,10.17,0,0,0,1-3.56,8.58,8.58,0,0,0-.66-3.28l-.09-.24q-.11-.25-.24-.51a3.05,3.05,0,0,1-.43-1.38,16.48,16.48,0,0,1,1.58-2.61c1.33-2,1.64-2.48,1.27-3s-.74-.24-1.68.58c-1.05-1-4.69-8.94-4.65-10.16.6-10.26,3.28-17,8-20.11,8.91-5.86,22.28,2.87,22.42,2.93l.43,0c10.7-9.82,18.57-8.86,25.51-8.12,3.58.36,7,.67,10.2-.84,8.63-3.57,37.21,9,37.5,8.77h.22c13.67-4.13,22.21,1.23,25.42,17.11l.09.44C1010.15,713.79,1009,722.23,1008.75,723.68Z" transform="translate(0 0)"/>
    <path d="M913.26,743.36l.07-1.76c-.05,1-.09,1.69-.11,1.76Z" transform="translate(0 0)" style="fill: #f7d917"/>
    <path d="M918,755.1c-2.21-4.63-2.8-8.41-3.52-10-.05-.51-.09-1-.14-1.56.58-1.71,2.2-5.73,4.76-5.86,3.88-.2,6.1,6.62,6.32,7,0-1.09-2.06-17.81-6-17.62-3.12.17-4.94,5.34-5.67,8a62.58,62.58,0,0,0,.92-7.87c.24-5.44-4.14-21.67-5.6-21.64H909c-1.42.54-2.84,16.55-1.62,21.88a55.94,55.94,0,0,0,2.45,7.77c-1.21-2.6-4-7.64-7.09-7.64-3.93,0-2.89,16.9-2.69,18,.14-.4,1.09-7.38,5-7.43,2.55,0,4.91,3.88,5.79,5.5l.15,1.57c-.43,1.6-.45,5.43-1.79,10.17-1.62,5.81-8.13,6.5-9.23,6.55.28,0,10.77-.13,14.22-.31h.1c3.45-.08,13.94-.75,14.22-.79C927.37,760.89,920.62,760.73,918,755.1Zm-8.13-19.81h0l.33.72c.11.55.21,1.11.31,1.67,0,0,1.28,5.7,1.28,5.74C911.68,743.19,910,735.63,909.86,735.29Zm3.69,1.77v.11c-.06,1.37-.15,3.13-.22,4.43l-.07,1.76h0c0-.07.06-.78.11-1.76.09-2.2.22-5.66.22-5.68v1.14a12.79,12.79,0,0,1,.13-1.89C913.68,735.27,913.61,736.08,913.55,737.06Z" transform="translate(0 0)" style="fill: #f7d917"/>
    <path d="M913.57,737.17Z" transform="translate(0 0)" style="fill: #f7d917"/>
    <path d="M919,754.23a45.39,45.39,0,0,1-2.6-7.18c-.27-.92-.5-1.74-.75-2.39l-.06-.72c.8-2.2,2.1-4.46,3.53-4.51,1.73-.07,3.39,1.82,4.92,5.7l.24.56.53.92,1.34-.38.5-1v-.82c-.16-2-1.6-13.67-4.71-17.62a3.16,3.16,0,0,0-2.67-1.51A4.91,4.91,0,0,0,916,727.1c.11-5.6-3.56-19.62-5.55-22.37a2,2,0,0,0-1.43-1l-.45.08c-2.83,1.16-3.36,18.4-2.56,23.43a5.32,5.32,0,0,0-3.41-1.41,2.86,2.86,0,0,0-2.42,1.68c-2.38,4.15-1.67,15.83-1.45,18v1.65l2.15.25c.12-.34.23-.67.34-1a3,3,0,0,0,.15-.59c.79-3.92,2-5.91,3.75-5.94,1.42-.07,3.2,2.16,4.42,4.34a2.59,2.59,0,0,0,.07.73c-.13.65-.22,1.43-.34,2.38a44.74,44.74,0,0,1-1.34,7.36c-1.38,4.94-7.49,5.48-8.18,5.51.1,1.16.19,2.32.28,3.47q7.17,0,14.33-.32c3.45-.09,13.94-.75,14.22-.81l-.18-3.45C927.71,759.14,921.35,759.09,919,754.23Zm-4.2-16.33a5,5,0,0,0,.06-1.1c0-.51.06-.9.07-1.13.47-1.68,2.09-6.75,4.55-6.88.08,0,.28,0,.65.44,1.21,1.47,2.22,5.25,2.91,8.72a5.13,5.13,0,0,0-4.15-2c-1.78.1-3.16,1.53-4.15,3.14C914.8,738.69,914.82,738.29,914.84,737.9Zm-9.94-1.47a4.68,4.68,0,0,0-3.83,2.37c0-3.57.33-7.51,1.26-9,.25-.43.43-.43.5-.43h.22c1.67.17,3.75,2.63,5.64,6.66.11.43.41,1.72.73,3.11C908.16,737.6,906.61,736.41,904.9,736.43Zm3.71-9.41c-.9-3.9-.17-14.43.69-18.55,1.59,4,4.23,14.47,4.05,18.51a60.81,60.81,0,0,1-.88,7.51,6.89,6.89,0,0,0-.14,1.29h-.13c0,.12,0,.91-.07,1.81a3.61,3.61,0,0,1-.16.69c-.08-.36-.15-.64-.18-.81l-.16-.82a5.08,5.08,0,0,0-.4-1.61c-.06-.14-.14-.29-.21-.46l-1.15.72,1.11-.8c-.05-.15-.11-.3-.17-.45A48.77,48.77,0,0,1,908.61,727Zm5.43,32.9-5.82.18a9.51,9.51,0,0,0,2.18-4,51.54,51.54,0,0,0,1.47-8,20.68,20.68,0,0,1,.32-2.22,1.61,1.61,0,0,1,.1-.36c0-.61-.11-1.23-.17-1.83l.3-.1.58.11.17,1.89a3.54,3.54,0,0,0,.16.34,21.07,21.07,0,0,1,.66,2.14,47.87,47.87,0,0,0,2.84,7.85,10.55,10.55,0,0,0,2.85,3.74C917.8,759.78,915.92,759.85,914,759.92Z" transform="translate(0 0)"/>
    <path d="M912.44,742.4a3.85,3.85,0,0,0-2.2,1.12c.08.91.17,1.82.25,2.78a3,3,0,0,1,4-.64,2.53,2.53,0,0,1,.6.48c-.08-.91-.17-1.83-.26-2.74A4.38,4.38,0,0,0,912.44,742.4Z" transform="translate(0 0)" style="fill: #f7d917"/>
    <path d="M915.45,741.88a4.18,4.18,0,0,0-5.48-.36,3.52,3.52,0,0,0-.57.59l-.54.56c.21,2.29.42,4.56.64,6.87l1.83-1.84a2.85,2.85,0,0,1,1.48-.79,3.41,3.41,0,0,1,1.66.69l2.22,1.78q-.32-3.51-.65-7Z" transform="translate(0 0)"/>
    <path d="M980.28,738.5v0Z" transform="translate(0 0)" style="fill: #f7d917"/>
    <path d="M977.14,739.31c.06,1,.19,2.92.27,4.16C977.34,742.41,977.24,740.77,977.14,739.31Z" transform="translate(0 0)" style="fill: #f7d917"/>
    <path d="M981.8,756.78c-1.46-4.86-1.45-8.65-1.92-10.29,0-.51.08-1,.11-1.56.84-1.64,3.08-5.46,5.63-5.34,3.86.2,5,7.21,5.14,7.62.17-1.09.76-18-3.15-18.14-3.11-.14-5.72,4.82-6.87,7.39a63.8,63.8,0,0,0,2.15-7.73c1.09-5.39-.71-21.94-2.17-22h-.07c-1.49.42-5.41,16.14-5,21.54a52.06,52.06,0,0,0,1.22,8c-.8-2.69-2.75-8-5.86-8.27-3.91-.37-5.52,16.37-5.49,17.44.21-.39,2.24-7.14,6.11-6.79,2.55.23,4.27,4.38,4.89,6.09,0,.52-.06,1-.09,1.56-.68,1.54-1.29,5.29-3.37,9.88-2.52,5.56-9.11,5.46-10.21,5.37.28.07,10.74,1.15,14.17,1.35h.11c3.44.32,13.89.82,14.17.78C990.21,763.57,983.57,762.67,981.8,756.78Zm-4.91-20.46c.08.27.16.52.21.73v1.69s0,.22,0,.57c.1,1.46.2,3.1.27,4.16,0,.64.06,1.09.06,1.1s0-.49-.06-1.1c-.08-1.24-.21-3.2-.27-4.16C977,737.76,976.93,736.43,976.89,736.32Zm3.52.94v0c-.07.48-.13,1-.2,1.46a.7.7,0,0,1,.07-.22v-.06c.14-.64.34-1.71.43-1.91,0,.1-.21.92-.43,1.91v.06c-.51,2.35-1.26,6-1.33,6.12C979,744.58,980.41,737.3,980.41,737.26Z" transform="translate(0 0)" style="fill: #f7d917"/>
    <path d="M980.21,738.77a.76.76,0,0,0,0,.18Z" transform="translate(0 0)" style="fill: #f7d917"/>
    <path d="M987.79,727.3a5.21,5.21,0,0,0-3.58,1.47c1-5.58-.45-19.87-2-22.77a1.69,1.69,0,0,0-1.24-1.06l-.29,0-.25.09c-2.94,1-6.14,17.85-6.12,22.92a5,5,0,0,0-3.16-1.7,3,3,0,0,0-2.68,1.43c-3.07,3.91-4.18,15.85-4.27,17.63v2l2-.1.39-.73c0-.08.12-.27.24-.58,1.41-3.78,3-5.62,4.66-5.44,1.45.13,2.84,2.48,3.71,4.77v.74c-.23.62-.45,1.39-.71,2.32a46.27,46.27,0,0,1-2.49,7.12c-2.14,4.73-8.31,4.54-9,4.49-.08,1.15-.17,2.3-.25,3.45.2,0,5.76.66,10.11,1l3.94.31h.25c3.46.32,13.87.81,14.15.78l.36-3.48c-.71,0-7-.78-8.49-5.85a43.23,43.23,0,0,1-1.45-7.4c-.12-1-.22-1.8-.37-2.45v-.72c1.14-2.11,2.76-4.22,4.21-4.13,1.72.09,3,2.17,4,6.13,0,.2.1.39.16.59l.26.72.6.12,1.63-.15v-1.69c.16-2.09.57-13.81-1.88-18.06A3.08,3.08,0,0,0,987.79,727.3Zm-7.26-17.78c1,4.1,1.93,14.77,1.12,18.78a62.31,62.31,0,0,1-2,7.37,3.81,3.81,0,0,0-.15.44,4,4,0,0,0-.29.8c0,.12-.16.84-.35,1.79l-.28.67c0-.5,0-.84-.06-.86v-1.75l-.24-1.06a.14.14,0,0,0,0-.09l-1.25.58,1.23-.68-.24-.42a48.75,48.75,0,0,1-1.08-7.22C976.66,723.92,979,713.54,980.53,709.52Zm-8.74,27.35v0a4.85,4.85,0,0,0-.66,0,5.26,5.26,0,0,0-3.53,1.94c.6-3.52,1.52-7.39,2.67-8.81.33-.4.5-.38.57-.37,1.7.16,3.49,2.84,4.78,7.19,0,.44.14,1.75.24,3.17C974.84,738.38,973.49,737,971.79,736.87Zm11,24.61,0,0c-1.79-.11-3.59-.22-5.39-.35l-4.32-.36-1.75-.15a10,10,0,0,0,2.79-3.69,49.58,49.58,0,0,0,2.71-7.76c.27-.92.49-1.73.67-2.14,0-.09.08-.17.11-.25v4.38c.41-1,.81-1.92,1.21-2.88a10.06,10.06,0,0,0,.14,1.12,46.53,46.53,0,0,0,1.59,8.11A10,10,0,0,0,982.83,761.48Zm2.94-23.62,0-.05-.55,0a6.67,6.67,0,0,0-4,2.68c.11-.52.22-1,.32-1.54a2.33,2.33,0,0,1,.1-.43c.14-.65.25-1.17.31-1.43.73-1.62,3.15-6.52,5.58-6.38.06,0,.27,0,.57.49,1,1.59,1.37,5.45,1.51,9A4.74,4.74,0,0,0,985.77,737.86Z" transform="translate(0 0)"/>
    <path d="M978.35,743.58a4.18,4.18,0,0,0-2.36.87l-.18,2.78a4.17,4.17,0,0,1,2.35-.86,4.11,4.11,0,0,1,2.22,1.2c.06-.91.13-1.82.19-2.79A4.24,4.24,0,0,0,978.35,743.58Z" transform="translate(0 0)" style="fill: #f7d917"/>
    <path d="M978.49,741.85a5.32,5.32,0,0,0-3.12,1.12l-.63.49-.45,6.92,2.12-1.66a2.84,2.84,0,0,1,1.58-.64,3.11,3.11,0,0,1,1.53.84l1.92,2c.15-2.36.31-4.71.46-7-.16-.18-.33-.36-.5-.53A5.27,5.27,0,0,0,978.49,741.85Z" transform="translate(0 0)"/>
    <path d="M888.51,660.13" transform="translate(0 0)" style="fill: #f7d917"/>
    <path d="M941.21,665.84h0Z" transform="translate(0 0)" style="fill: #f7d917"/>
    <path d="M904,659.3c-6-.63-10.35-3.52-14.22-.7s-8.61,7.83-12.06,12-5.16,13.44-4.73,19.71a44.41,44.41,0,0,0,4.73,17c2.59,5.18,2.16,8.93,3,12.4s2.15,10.81,2.15,10.34q2.8-4.12,5.6-8.26C877,700.5,876.4,689,877.69,683.51s3.88-11.27,10.77-17.93,11.64-2,18.1-1.26,8.18,2.65,13.78,4S941,671.13,941,671.05v-5.24c-6.65-1.72-15.07-.45-20.66-2.74A55.21,55.21,0,0,0,904,659.3Z" transform="translate(0 0)" style="fill: #f7d917"/>
    <path d="M941.21,598.32" transform="translate(0 0)" style="fill: #f7d917"/>
    <path d="M941.09,665.53a52,52,0,0,0-10.34-1.13c-3.82-.18-7.43-.42-10.31-1.59A56.27,56.27,0,0,0,904,659a37,37,0,0,1-5.18-1c-3.45-.86-6.43-1.64-9.15.31-4,2.93-8.9,8.17-12.1,12.07-3.51,4.25-5.22,13.67-4.79,19.92a45.19,45.19,0,0,0,4.77,17.14,24.67,24.67,0,0,1,2.41,8.83,32.15,32.15,0,0,0,.58,3.49c.51,2,1.17,5.47,1.61,7.75.49,2.54.55,2.77.7,2.78h.06l.1-.15v.05l5.43-8,.08.13.32-.28c-.07-.15-.15-.3-.23-.44-6.23-11.54-13.16-27.7-10.73-38.06,1.06-4.55,3.24-10.62,10.7-17.83,5-4.8,8.67-3.63,13-2.32a26.2,26.2,0,0,0,5,1.13,26.73,26.73,0,0,1,8.43,2.21,35.31,35.31,0,0,0,5.32,1.77c5.54,1.41,20.53,2.81,20.68,2.74l.22-.27v-4.92a3.08,3.08,0,0,1,.08-.53l-.27-.08Zm-20.68,2.52a36.33,36.33,0,0,1-5.28-1.76,26.73,26.73,0,0,0-8.52-2.21,26.25,26.25,0,0,1-4.93-1.12c-4.22-1.28-8.21-2.52-13.31,2.41-7.54,7.3-9.75,13.46-10.82,18.06-2.47,10.52,4.43,26.75,10.69,38.39q-2.62,3.9-5.26,7.79c-.1-.48-.25-1.26-.41-2.07-.44-2.29-1.11-5.74-1.62-7.8a30.7,30.7,0,0,1-.56-3.39,25.59,25.59,0,0,0-2.48-9.08,44.18,44.18,0,0,1-4.7-16.85c-.42-6.13,1.25-15.34,4.68-19.51,3.18-3.89,8-9.09,12-12a6.62,6.62,0,0,1,5-1.11,33.34,33.34,0,0,1,3.85.82,39.12,39.12,0,0,0,5.22,1,54.63,54.63,0,0,1,16.31,3.76c2.94,1.18,6.57,1.43,10.42,1.61a52.61,52.61,0,0,1,10.1,1l.06,4.71C939,670.68,925.57,669.34,920.41,668.05Z" transform="translate(0 0)"/>
    <path d="M1001.4,652.35" transform="translate(0 0)" style="fill: #f7d917"/>
    <path d="M1000.18,658.51c-3.87-2.75-8.2.2-14.22.87a57.13,57.13,0,0,0-16.37,3.79c-5.59,2.29-14,1-20.66,2.63V671s15.06-1.16,20.66-2.62,7.32-3.37,13.78-4,11.21-5.52,18.1,1,9.48,12.19,10.77,17.68.71,17-10.77,38.58l5.6,8.14c0,.47,1.29-6.9,2.15-10.4s.43-7.22,3-12.48a45.32,45.32,0,0,0,4.73-17.15c.43-6.29-1.29-15.45-4.73-19.56A75.61,75.61,0,0,0,1000.18,658.51Z" transform="translate(0 0)" style="fill: #f7d917"/>
    <path d="M1001.47,721.76l-.07.13S1001.47,721.82,1001.47,721.76Z" transform="translate(0 0)" style="fill: #f7d917"/>
    <path d="M1001.4,721.89c-.28.52-.11.21,0,0Z" transform="translate(0 0)" style="fill: #f7d917"/>
    <path d="M948.93,665.84h0Z" transform="translate(0 0)" style="fill: #f7d917"/>
    <path d="M948.79,597.8" transform="translate(0 0)" style="fill: #f7d917"/>
    <path d="M1000.29,658.31c-2.72-1.94-5.69-1.12-9.15-.24a37,37,0,0,1-5.19,1A57.75,57.75,0,0,0,969.54,663c-2.88,1.16-6.49,1.38-10.31,1.55a51.26,51.26,0,0,0-10.34,1.07l-.27.06a5,5,0,0,0,.08.54v4.91a3,3,0,0,1,.22.28c.15,0,15.14-1.23,20.68-2.63a33.2,33.2,0,0,0,5.32-1.77,27.28,27.28,0,0,1,8.43-2.21,25.3,25.3,0,0,0,5-1.2c4.3-1.34,8-2.55,13,2.16,7.46,7.07,9.64,13,10.7,17.56,2.43,10.28-4.5,26.66-10.73,38.33a4.53,4.53,0,0,0-.23.44c.11.09.22.18.32.28l.08-.14q2.71,4,5.43,7.89l.1.14h.06c.15,0,.21-.28.7-2.79.44-2.29,1.1-5.75,1.61-7.8a32.33,32.33,0,0,0,.58-3.5,25.4,25.4,0,0,1,2.41-8.91,46,46,0,0,0,4.77-17.29c.43-6.27-1.28-15.58-4.79-19.76C1009.19,666.28,1004.33,661.17,1000.29,658.31Zm16.48,31.58h0a45.1,45.1,0,0,1-4.7,17,26.06,26.06,0,0,0-2.48,9.15,28.51,28.51,0,0,1-.56,3.41c-.51,2.06-1.18,5.56-1.62,7.84-.16.81-.31,1.59-.41,2.07l-5.26-7.64c11.31-21.33,12.06-33,10.69-38.65-1.07-4.58-3.28-10.64-10.82-17.79-5.09-4.85-9.09-3.55-13.31-2.24a25.31,25.31,0,0,1-4.93,1.19,27.56,27.56,0,0,0-8.52,2.22,33.38,33.38,0,0,1-5.28,1.76c-5.16,1.29-18.57,2.54-20.44,2.6v-4.73a52.67,52.67,0,0,1,10.1-1c3.85-.16,7.48-.39,10.41-1.57A56.34,56.34,0,0,1,986,659.69a36.17,36.17,0,0,0,5.23-1.06c3.51-.92,6.29-1.68,8.89.16,4,2.85,8.84,7.93,12,11.72C1015.52,674.62,1017.19,683.74,1016.77,689.89Z" transform="translate(0 0)"/>
    <path d="M935.62,661.38v54.36q10,.25,20,0V661.39Q945.63,661.63,935.62,661.38Z" transform="translate(0 0)" style="fill: #f7d917"/>
    <path d="M935.62,661.05c-.08.1-.16.21-.25.31v54.36l.25.33q10,.29,20,0l.24-.32V661.4l-.24-.32Q945.62,661.34,935.62,661.05Zm19.72,54.41q-9.75.22-19.48,0V661.72q9.75.25,19.48,0Z" transform="translate(0 0)"/>
    <path d="M946.6,625.54a43.39,43.39,0,0,1,2.8-6.65,32.39,32.39,0,0,1,3.8-5.36q-7.61.13-15.2,0a30.94,30.94,0,0,1,3.8,5.37,42.42,42.42,0,0,1,2.8,6.65,26.44,26.44,0,0,1-5-3.77,31.2,31.2,0,0,1-4-5.13V636.8a29.84,29.84,0,0,1,4-4.94,27.24,27.24,0,0,1,5-3.66,60.14,60.14,0,0,0-1.46,6.62c-.51,3.27-4.73,10.72-4.73,10.72q6.18.68,12.31,1.16c6.14.47-2.05-8.6-2.87-11.86a57.93,57.93,0,0,1-1.25-6.64,27.8,27.8,0,0,1,5,3.68,29.05,29.05,0,0,1,4,5V616.67a30.19,30.19,0,0,1-4,5.12A26.13,26.13,0,0,1,946.6,625.54Z" transform="translate(0 0)" style="fill: #f7d917"/>
    <path d="M951.51,621.64a25.46,25.46,0,0,1-4.63,3.52,43.69,43.69,0,0,1,2.63-6.16,30.39,30.39,0,0,1,3.78-5.31l-.09-.35q-7.61.15-15.2,0l-.09.33a31.48,31.48,0,0,1,3.77,5.34,40.76,40.76,0,0,1,2.64,6.17,26.82,26.82,0,0,1-4.63-3.55,30.56,30.56,0,0,1-4-5.1l-.26.12V636.8l.26.13a29.22,29.22,0,0,1,4-4.91,27.45,27.45,0,0,1,4.65-3.47,61.86,61.86,0,0,0-1.34,6.23c-.5,3.19-4.66,10.57-4.7,10.64l.1.31c4.11.44,8.21.84,12.31,1.15l.15-.25c0-.08-2.06-8.63-2.87-11.86a59.85,59.85,0,0,1-1.21-6.25,26.67,26.67,0,0,1,4.73,3.52,28.41,28.41,0,0,1,4,4.93l.26-.13V616.67l-.26-.12A29.49,29.49,0,0,1,951.51,621.64Zm.17,10.08a26.64,26.64,0,0,0-5-3.7l-.2.2a63.18,63.18,0,0,0,1.26,6.67c.73,2.9,2.46,10.11,2.81,11.59q-5.91-.48-11.83-1.11c.78-1.4,4.13-7.58,4.59-10.51a60.27,60.27,0,0,1,1.45-6.6l-.19-.25a27.68,27.68,0,0,0-5,3.68,29.4,29.4,0,0,0-3.77,4.59V617.19a29.11,29.11,0,0,0,3.77,4.76,25.52,25.52,0,0,0,5,3.79l.19-.24a42.6,42.6,0,0,0-2.81-6.7,32.13,32.13,0,0,0-3.53-5.06q7.23.13,14.41,0a33.37,33.37,0,0,0-3.52,5,44.84,44.84,0,0,0-2.82,6.68c.07.08.13.18.19.26a26.59,26.59,0,0,0,5-3.78,30,30,0,0,0,3.77-4.74v19.1A29.37,29.37,0,0,0,951.68,631.72Z" transform="translate(0 0)"/>
    <path d="M945.6,636.39c-5.47,0-9.9,5.74-9.9,13s4.43,13.28,9.9,13.29,9.9-6,9.9-13.26S951.07,636.41,945.6,636.39Z" transform="translate(0 0)" style="fill: #f7d917"/>
    <path d="M945.6,636.21c-5.54,0-10.05,5.82-10.05,13.17s4.51,13.49,10.05,13.5,10-6.1,10-13.45S951.14,636.22,945.6,636.21Zm0,26.29c-5.38,0-9.76-6-9.76-13.1s4.38-12.82,9.76-12.81,9.76,5.7,9.76,12.84S951,662.51,945.6,662.5Z" transform="translate(0 0)"/>
    <path d="M954.49,644.38c-1.39,0-6.13.1-6.13.09,0-2.53-.07-5.05-.11-7.58h-5.8c0,2.53-.07,5-.1,7.58,0,0-4.12.23-6,.16-.87,3.08-.73,3.35-.73,3.35.1,1.11.2,2.22.31,3.32q9.84.27,19.7,0C965.49,651,955.91,646.25,954.49,644.38Z" transform="translate(0 0)" style="fill: #f7d917"/>
    <path d="M954.53,644.21l-6,0c0-2.46-.06-4.93-.1-7.39l-.15-.19c-1.93,0-3.87,0-5.8,0l-.14.19c0,2.47-.07,4.94-.1,7.4-.73,0-4.2.21-5.87.16l-.14.12a14.87,14.87,0,0,0-.73,3.43c.11,1.11.21,2.22.31,3.33l.15.16q9.84.28,19.7,0l.14-.18c0-.22.27-5.17-1.18-7.07Zm1,6.92q-9.72.25-19.44,0c-.09-1.07-.19-2.14-.29-3.21a15,15,0,0,1,.69-3.09c1.92,0,5.88-.15,5.92-.16l.13-.18c0-2.46.07-4.93.1-7.4h5.52c0,2.46.07,4.93.1,7.4l.15.18,6,0c1.18,1.57,1.1,5.6,1.07,6.49Z" transform="translate(0 0)"/>
    <path d="M947.27,734A73,73,0,0,1,952,722.88a54.23,54.23,0,0,1,6.34-9q-12.66.4-25.37,0a53,53,0,0,1,6.35,9A71.48,71.48,0,0,1,944,734a42.93,42.93,0,0,1-8.34-6.35A50.92,50.92,0,0,1,929,719v33.68a48.5,48.5,0,0,1,6.68-8.17,46.39,46.39,0,0,1,8.34-6.07,68.73,68.73,0,0,1-4.67,11,47.43,47.43,0,0,1-6.35,8.69q12.69.45,25.37,0a48,48,0,0,1-6.34-8.71,69.33,69.33,0,0,1-4.67-11,45.84,45.84,0,0,1,8.34,6.1,48.64,48.64,0,0,1,6.68,8.19V719.08a50.48,50.48,0,0,1-6.73,8.61A42.74,42.74,0,0,1,947.27,734Z" transform="translate(0 0)" style="fill: #f7d917"/>
    <path d="M955.48,727.46a42.29,42.29,0,0,1-7.79,6,72.66,72.66,0,0,1,4.42-10.39,53.74,53.74,0,0,1,6.31-9,1.87,1.87,0,0,0-.14-.5q-12.66.4-25.37,0a2.17,2.17,0,0,1-.13.5,53.65,53.65,0,0,1,6.3,9,69.23,69.23,0,0,1,4.43,10.41,42.85,42.85,0,0,1-7.8-6,52.25,52.25,0,0,1-6.63-8.61l-.39.16v33.64l.39.2a49.22,49.22,0,0,1,6.63-8.13,47,47,0,0,1,7.8-5.74,66.75,66.75,0,0,1-4.43,10.3,47.09,47.09,0,0,1-6.3,8.63,2.64,2.64,0,0,0,.13.52q12.69.42,25.37,0c.05-.17.09-.35.14-.52a47.82,47.82,0,0,1-6.31-8.66,69.14,69.14,0,0,1-4.42-10.3,46.18,46.18,0,0,1,7.79,5.76,49.33,49.33,0,0,1,6.64,8.15l.39-.19V719l-.39-.16A51,51,0,0,1,955.48,727.46ZM962.07,752a48.43,48.43,0,0,0-6.33-7.66,46.66,46.66,0,0,0-8.39-6.12l-.28.38a70.5,70.5,0,0,0,4.7,11.1,49.66,49.66,0,0,0,5.92,8.26q-12.09.38-24.18,0a48.68,48.68,0,0,0,5.92-8.26,68.88,68.88,0,0,0,4.7-11.07l-.28-.38a46.51,46.51,0,0,0-8.39,6.09,48.21,48.21,0,0,0-6.33,7.63V719.78a50,50,0,0,0,6.33,8.09,43.4,43.4,0,0,0,8.39,6.38c.1-.12.19-.24.28-.37a72.27,72.27,0,0,0-4.7-11.19,55.3,55.3,0,0,0-5.92-8.55q12.09.4,24.18,0a55.22,55.22,0,0,0-5.92,8.54,73.15,73.15,0,0,0-4.7,11.18c.1.12.19.24.28.37a43.36,43.36,0,0,0,8.39-6.35,51.08,51.08,0,0,0,6.33-8.08Z" transform="translate(0 0)"/>
    <path d="M900.34,759.5q-2.19-16.82-4.4-33.68a47.37,47.37,0,0,1-5.47,9.14,39.63,39.63,0,0,1-7.41,7,69.36,69.36,0,0,1,3.15-11.52,49.56,49.56,0,0,1,5.09-9.49q-6.24.63-12.49,1.11l5.79,44.52q6.25-.54,12.49-1.26a51.74,51.74,0,0,1-7.4-8.21,74.46,74.46,0,0,1-6.05-10.7,49.32,49.32,0,0,1,9,5.44A53.69,53.69,0,0,1,900.34,759.5Z" transform="translate(0 0)" style="fill: #f7d917"/>
    <path d="M895.75,725.66a47.72,47.72,0,0,1-5.44,9.07,40.11,40.11,0,0,1-6.91,6.61,67.68,67.68,0,0,1,3-10.77,50.41,50.41,0,0,1,5.05-9.44c-.06-.17-.13-.34-.2-.5-4.16.43-8.32.79-12.49,1.11l-.18.3q2.91,22.28,5.8,44.53l.25.26q6.24-.54,12.49-1.26a4.63,4.63,0,0,1,.07-.52,51.14,51.14,0,0,1-7.36-8.16,72.44,72.44,0,0,1-5.71-10,49.88,49.88,0,0,1,8.44,5.16,52.91,52.91,0,0,1,7.63,7.63l.36-.22-4.41-33.68Zm-3,25.92h0a50,50,0,0,0-9.07-5.47l-.23.4a74.75,74.75,0,0,0,6.08,10.75,52.79,52.79,0,0,0,6.94,7.81q-5.85.66-11.7,1.17-2.85-21.91-5.71-44,5.85-.42,11.7-1a50.21,50.21,0,0,0-4.77,9,70.7,70.7,0,0,0-3.17,11.57l.33.35a41,41,0,0,0,7.44-7,47.36,47.36,0,0,0,5.21-8.54l4.2,32.07A52.37,52.37,0,0,0,892.76,751.58Z" transform="translate(0 0)"/>
    <path d="M1005,730.08a68.2,68.2,0,0,1,3.15,11.44,38.07,38.07,0,0,1-7.41-6.8,47,47,0,0,1-5.47-9l-4.41,33.74a55.59,55.59,0,0,1,7.68-7.82,52.76,52.76,0,0,1,9-5.64,75.92,75.92,0,0,1-6,10.83,51.35,51.35,0,0,1-7.41,8.35q6.25.63,12.49,1,2.91-22.3,5.8-44.68-6.24-.29-12.49-.79A48.36,48.36,0,0,1,1005,730.08Z" transform="translate(0 0)" style="fill: #f7d917"/>
    <path d="M999.93,720.42c-.06.17-.13.33-.2.5a48.37,48.37,0,0,1,5.06,9.32,66.75,66.75,0,0,1,3,10.69,38,38,0,0,1-6.91-6.43,46.65,46.65,0,0,1-5.44-9l-.4.14q-2.2,16.89-4.41,33.75l.36.22a55.83,55.83,0,0,1,7.63-7.75,51.54,51.54,0,0,1,8.44-5.36,71.78,71.78,0,0,1-5.71,10.12,52.45,52.45,0,0,1-7.36,8.29,1.39,1.39,0,0,0,.07.53q6.24.6,12.49,1l.25-.27q2.9-22.34,5.79-44.7c-.06-.1-.12-.2-.17-.3Q1006.18,720.95,999.93,720.42Zm6.49,45.46q-5.85-.39-11.7-.93a53.66,53.66,0,0,0,6.94-7.93,76,76,0,0,0,6.08-10.91l-.23-.4a54.54,54.54,0,0,0-9.08,5.68,55.55,55.55,0,0,0-7.26,7.29l4.2-32.17a46.78,46.78,0,0,0,5.21,8.44,39.38,39.38,0,0,0,7.44,6.84l.33-.37a68.31,68.31,0,0,0-3.17-11.53,48.87,48.87,0,0,0-4.74-8.88q5.85.43,11.7.76Q1009.29,743.85,1006.42,765.88Z" transform="translate(0 0)"/>
    <path d="M884.73,764.84l.09,24.18s30.41-9,60.82-9.1c30.41.41,60.82,8.82,60.82,8.72V764.48c0,.1-30.43-8.3-60.86-8.71C915.17,755.89,884.73,764.84,884.73,764.84Z" transform="translate(0 0)" style="fill: #f7d917"/>
    <path d="M945.6,755.48c-30.12.13-60.63,9-60.94,9.08l-.15.25L884.6,789c.1.11.2.21.29.32.3-.08,30.73-8.95,60.75-9.09,30,.41,60.45,8.75,60.75,8.71.1-.11.2-.21.29-.32V764.44l-.15-.25C1006.23,764.23,975.72,755.89,945.6,755.48Zm60.65,32.83c-3.18-.71-32.07-8.28-60.61-8.64-28.54.12-57.43,8.13-60.6,9q0-11.79,0-23.59c2.34-.66,31.68-8.91,60.65-9,29,.37,58.31,8.17,60.65,8.66Q1006.28,776.53,1006.25,788.31Z" transform="translate(0 0)"/>
    <path d="M877.24,710.14c-2.56-.38-4.61,2-4.59,5.44v.11c0,3.4,2.12,6.49,4.67,6.87s4.62-2.09,4.59-5.48V717C881.89,713.57,879.8,710.52,877.24,710.14Z" transform="translate(0 0)" style="fill: #fff"/>
    <path d="M877.29,709.9a3.64,3.64,0,0,0-3.4,1.35,6.64,6.64,0,0,0-1.38,4.31v.11a8.69,8.69,0,0,0,1.44,4.76,5.24,5.24,0,0,0,3.38,2.39h0a3.59,3.59,0,0,0,3.39-1.37,6.61,6.61,0,0,0,1.38-4.33V717a8.45,8.45,0,0,0-1.44-4.74A5.18,5.18,0,0,0,877.29,709.9Zm4.43,7.15a6.08,6.08,0,0,1-1.27,4,3.3,3.3,0,0,1-3.13,1.27c-2.43-.39-4.41-3.34-4.44-6.57v-.11c0-3.26,2-5.59,4.4-5.22a4.79,4.79,0,0,1,3.1,2.18,7.69,7.69,0,0,1,1.33,4.35Z" transform="translate(0 0)"/>
    <path d="M871.3,695.12c-2.55-.4-4.61,2-4.59,5.39v.11c0,3.4,2.12,6.51,4.68,6.93s4.61-2,4.58-5.43V702C876,698.61,873.86,695.54,871.3,695.12Z" transform="translate(0 0)" style="fill: #fff"/>
    <path d="M871.34,694.88c-2.66-.42-4.8,2.08-4.78,5.61v.12c0,3.5,2.19,6.73,4.82,7.19a3.54,3.54,0,0,0,3.39-1.34,6.58,6.58,0,0,0,1.38-4.3.29.29,0,0,0,0-.13,8.47,8.47,0,0,0-1.44-4.74A5.25,5.25,0,0,0,871.34,694.88Zm4.44,7.19a6.07,6.07,0,0,1-1.27,4,3.3,3.3,0,0,1-3.13,1.23c-2.42-.42-4.41-3.4-4.44-6.63v-.12c0-3.24,2-5.55,4.4-5.16s4.42,3.36,4.44,6.61Z" transform="translate(0 0)"/>
    <path d="M870.06,678.48c-2.55-.42-4.61,2-4.58,5.37V684c0,3.4,2.11,6.52,4.67,6.94s4.61-2,4.59-5.42v-.11C874.71,682,872.62,678.9,870.06,678.48Z" transform="translate(0 0)" style="fill: #fff"/>
    <path d="M870.11,678.23a3.57,3.57,0,0,0-3.39,1.3,6.45,6.45,0,0,0-1.38,4.29v.12a8.78,8.78,0,0,0,1.44,4.77,5.29,5.29,0,0,0,3.38,2.43,3.56,3.56,0,0,0,3.4-1.33,6.52,6.52,0,0,0,1.38-4.31v-.11a8.69,8.69,0,0,0-1.44-4.75A5.36,5.36,0,0,0,870.11,678.23Zm4.44,7.23c0,3.24-2,5.58-4.4,5.18A4.92,4.92,0,0,1,867,688.4a8.06,8.06,0,0,1-1.33-4.4v-.11a6,6,0,0,1,1.27-3.95,3.32,3.32,0,0,1,3.13-1.21,5,5,0,0,1,3.11,2.23,7.94,7.94,0,0,1,1.33,4.37Z" transform="translate(0 0)"/>
    <path d="M873.78,663.78c-2.56-.4-4.61,2-4.59,5.41v.11c0,3.39,2.12,6.5,4.67,6.9s4.61-2.05,4.59-5.45v-.11C878.43,667.24,876.33,664.18,873.78,663.78Z" transform="translate(0 0)" style="fill: #fff"/>
    <path d="M873.82,663.54c-2.66-.42-4.81,2.1-4.78,5.63v.11c0,3.52,2.18,6.74,4.82,7.18s4.81-2.14,4.78-5.67v-.11C878.62,667.16,876.46,664,873.82,663.54Zm4.44,7.19c0,3.24-2,5.6-4.4,5.22s-4.42-3.37-4.44-6.6v-.12c0-3.24,2-5.56,4.4-5.18s4.41,3.34,4.44,6.57Z" transform="translate(0 0)"/>
    <path d="M881.62,652.49c-2.56-.37-4.61,2.07-4.59,5.47v.11c0,3.4,2.11,6.47,4.67,6.83s4.61-2.13,4.59-5.53v-.16C886.27,655.83,884.17,652.81,881.62,652.49Z" transform="translate(0 0)" style="fill: #fff"/>
    <path d="M881.66,652.2a3.64,3.64,0,0,0-3.39,1.38,6.67,6.67,0,0,0-1.38,4.32V658a8.61,8.61,0,0,0,1.44,4.74,5.13,5.13,0,0,0,3.38,2.36,3.68,3.68,0,0,0,3.4-1.41,6.73,6.73,0,0,0,1.38-4.35v-.13a8.38,8.38,0,0,0-1.44-4.71A5.14,5.14,0,0,0,881.66,652.2Zm4.44,7.11a6.17,6.17,0,0,1-1.27,4,3.35,3.35,0,0,1-3.13,1.3,4.73,4.73,0,0,1-3.11-2.17,7.88,7.88,0,0,1-1.33-4.36V658c0-3.25,2-5.59,4.4-5.25s4.42,3.26,4.44,6.49Z" transform="translate(0 0)"/>
    <path d="M892.34,645.2c-2.55-.3-4.61,2.18-4.58,5.58v.11c0,3.4,2.11,6.42,4.67,6.69S897,655.35,897,652v-.11C897,648.47,894.9,645.5,892.34,645.2Z" transform="translate(0 0)" style="fill: #fff"/>
    <path d="M892.39,645a3.73,3.73,0,0,0-3.4,1.46,6.79,6.79,0,0,0-1.38,4.35v.11a8.49,8.49,0,0,0,1.44,4.71,5,5,0,0,0,3.37,2.28h.05c2.66.31,4.8-2.33,4.78-5.87v-.1a8.27,8.27,0,0,0-1.44-4.64A5,5,0,0,0,892.39,645Zm4.44,7a6.28,6.28,0,0,1-1.28,4,3.42,3.42,0,0,1-3.12,1.37h0a4.57,4.57,0,0,1-3.1-2.1,7.74,7.74,0,0,1-1.33-4.33v-.12c0-3.25,1.95-5.63,4.4-5.35a4.64,4.64,0,0,1,3.11,2.09,7.6,7.6,0,0,1,1.33,4.31Z" transform="translate(0 0)"/>
    <path d="M904.31,647.69c-2.56-.23-4.61,2.31-4.59,5.7v.12c0,3.39,2.12,6.36,4.67,6.63s4.62-2.36,4.59-5.76v-.14C909,650.84,906.87,647.93,904.31,647.69Z" transform="translate(0 0)" style="fill: #fff"/>
    <path d="M904.35,647.43c-2.66-.24-4.8,2.46-4.78,5.94v.12c0,3.51,2.18,6.6,4.82,6.86s4.8-2.48,4.77-6v-.11C909.15,650.74,907,647.71,904.35,647.43Zm4.44,6.9c0,3.25-1.95,5.74-4.4,5.52s-4.41-3.09-4.44-6.32v-.12c0-3.24,2-5.69,4.4-5.47s4.42,3,4.44,6.28Z" transform="translate(0 0)"/>
    <path d="M916.28,651.39c-2.56-.16-4.62,2.43-4.59,5.82v.12c0,3.39,2.11,6.31,4.67,6.46s4.61-2.48,4.59-5.88v-.1C920.92,654.4,918.83,651.55,916.28,651.39Z" transform="translate(0 0)" style="fill: #fff"/>
    <path d="M916.32,651.14h-.05c-2.66-.17-4.8,2.52-4.77,6.06v.12a8.09,8.09,0,0,0,1.44,4.6,4.66,4.66,0,0,0,3.37,2.11,3.91,3.91,0,0,0,3.4-1.69,7.16,7.16,0,0,0,1.38-4.5v-.11a7.92,7.92,0,0,0-1.44-4.6A4.71,4.71,0,0,0,916.32,651.14Zm4.44,6.77c0,3.24-2,5.79-4.4,5.63a4.26,4.26,0,0,1-3.1-1.95,7.47,7.47,0,0,1-1.33-4.26v-.11c0-3.26,2-5.75,4.4-5.6a4.27,4.27,0,0,1,3.11,1.93,7.26,7.26,0,0,1,1.33,4.24Z" transform="translate(0 0)"/>
    <path d="M928.24,653.76c-2.56-.06-4.61,2.6-4.59,6v.12c0,3.39,2.12,6.24,4.67,6.32s4.62-2.63,4.59-6V660C932.89,656.64,930.8,653.85,928.24,653.76Z" transform="translate(0 0)" style="fill: #fff"/>
    <path d="M928.29,653.51a4.05,4.05,0,0,0-3.4,1.73,7.3,7.3,0,0,0-1.38,4.46v.11c0,3.51,2.18,6.43,4.82,6.59h0c2.66.06,4.8-2.73,4.77-6.26V660a7.77,7.77,0,0,0-1.44-4.58A4.5,4.5,0,0,0,928.29,653.51Zm4.43,6.64c0,3.25-2,5.84-4.4,5.77s-4.41-2.85-4.44-6.08v-.11c0-3.25,2-5.8,4.4-5.71a4.17,4.17,0,0,1,3.1,1.81,7.1,7.1,0,0,1,1.33,4.2Z" transform="translate(0 0)"/>
    <path d="M1012.74,709.79c-2.56.45-4.65,3.55-4.67,7v.12c0,3.39,2,5.81,4.58,5.34s4.65-3.62,4.68-7v-.1C1017.35,711.68,1015.3,709.33,1012.74,709.79Z" transform="translate(0 0)" style="fill: #fff"/>
    <path d="M1012.74,709.53a5.42,5.42,0,0,0-3.37,2.46,8.69,8.69,0,0,0-1.44,4.75.33.33,0,0,0,0,.14,6.59,6.59,0,0,0,1.38,4.29,3.48,3.48,0,0,0,3.39,1.27h0c2.63-.51,4.79-3.79,4.82-7.32v-.07a6.37,6.37,0,0,0-1.38-4.26A3.53,3.53,0,0,0,1012.74,709.53Zm4.4,5.69c0,3.23-2,6.26-4.44,6.72a3.22,3.22,0,0,1-3.13-1.17,6,6,0,0,1-1.27-3.95v-.11a8,8,0,0,1,1.33-4.39,5,5,0,0,1,3.1-2.28c2.44-.44,4.42,1.81,4.4,5.07Z" transform="translate(0 0)"/>
    <path d="M1018.68,694.57c-2.56.51-4.65,3.64-4.67,7v.11c0,3.4,2,5.78,4.58,5.27s4.65-3.71,4.68-7.11v-.11C1023.29,696.37,1021.23,694.06,1018.68,694.57Z" transform="translate(0 0)" style="fill: #fff"/>
    <path d="M1018.68,694.31c-2.64.56-4.8,3.8-4.83,7.33v.11c0,3.52,2.12,6,4.78,5.48s4.8-3.89,4.83-7.4v-.11C1023.48,696.2,1021.34,693.78,1018.68,694.31Zm4.4,5.61c0,3.23-2,6.29-4.45,6.81s-4.41-1.8-4.39-5.05v-.12c0-3.23,2-6.23,4.44-6.75s4.43,1.73,4.41,5Z" transform="translate(0 0)"/>
    <path d="M1019.92,677.88c-2.56.51-4.65,3.66-4.68,7.06v.11c0,3.39,2,5.77,4.59,5.24s4.65-3.73,4.67-7.12v-.12C1024.53,679.66,1022.47,677.35,1019.92,677.88Z" transform="translate(0 0)" style="fill: #fff"/>
    <path d="M1019.92,677.62a5.7,5.7,0,0,0-3.38,2.54,8.93,8.93,0,0,0-1.44,4.81v.11a6.42,6.42,0,0,0,1.38,4.26,3.44,3.44,0,0,0,3.4,1.2,5.55,5.55,0,0,0,3.38-2.57,9.08,9.08,0,0,0,1.44-4.84V683a6.25,6.25,0,0,0-1.38-4.23A3.46,3.46,0,0,0,1019.92,677.62Zm4.39,5.59a8.27,8.27,0,0,1-1.33,4.45,5.09,5.09,0,0,1-3.11,2.37c-2.44.51-4.42-1.77-4.4-5v-.11a8.24,8.24,0,0,1,1.33-4.43,5.25,5.25,0,0,1,3.11-2.34c2.45-.5,4.42,1.71,4.4,4.94Z" transform="translate(0 0)"/>
    <path d="M1016.2,663.31c-2.55.49-4.65,3.61-4.67,7v.12c0,3.39,2,5.79,4.59,5.3s4.65-3.68,4.67-7.08v-.11C1020.81,665.15,1018.76,662.83,1016.2,663.31Z" transform="translate(0 0)" style="fill: #fff"/>
    <path d="M1016.2,663.06c-2.64.53-4.8,3.77-4.82,7.28v.11c0,3.54,2.12,6,4.78,5.53s4.8-3.84,4.82-7.34v-.13a6.3,6.3,0,0,0-1.38-4.24A3.5,3.5,0,0,0,1016.2,663.06Zm4.4,5.64c0,3.23-2,6.28-4.44,6.78s-4.42-1.83-4.4-5.09v-.1c0-3.24,2-6.23,4.44-6.72a3.23,3.23,0,0,1,3.13,1.12,5.86,5.86,0,0,1,1.27,3.93Z" transform="translate(0 0)"/>
    <path d="M1008.36,652.21c-2.55.43-4.65,3.49-4.67,6.89v.11c0,3.4,2,5.85,4.59,5.42s4.65-3.56,4.67-7v-.11C1013,654.16,1010.92,651.79,1008.36,652.21Z" transform="translate(0 0)" style="fill: #fff"/>
    <path d="M1008.37,652a5.34,5.34,0,0,0-3.38,2.41,8.69,8.69,0,0,0-1.44,4.75v.11a6.66,6.66,0,0,0,1.38,4.31,3.53,3.53,0,0,0,3.4,1.33,5.33,5.33,0,0,0,3.38-2.45,8.68,8.68,0,0,0,1.44-4.79v-.11a6.44,6.44,0,0,0-1.38-4.28A3.58,3.58,0,0,0,1008.37,652Zm4.39,5.74a8,8,0,0,1-1.33,4.41,4.86,4.86,0,0,1-3.11,2.26,3.3,3.3,0,0,1-3.13-1.21,6.08,6.08,0,0,1-1.27-4v-.07c0-3.23,2-6.17,4.44-6.61s4.42,1.87,4.4,5.13Z" transform="translate(0 0)"/>
    <path d="M997.64,645.19c-2.56.34-4.65,3.33-4.68,6.7V652c0,3.4,2,5.91,4.59,5.57s4.65-3.41,4.67-6.8v-.11C1002.25,647.29,1000.19,644.88,997.64,645.19Z" transform="translate(0 0)" style="fill: #fff"/>
    <path d="M997.64,644.93a5.16,5.16,0,0,0-3.38,2.31,8.5,8.5,0,0,0-1.44,4.7v.11a6.82,6.82,0,0,0,1.38,4.36,3.7,3.7,0,0,0,3.4,1.44h0a5.11,5.11,0,0,0,3.37-2.35,8.45,8.45,0,0,0,1.44-4.74v-.11a6.6,6.6,0,0,0-1.38-4.32A3.69,3.69,0,0,0,997.64,644.93Zm4.39,5.9a7.8,7.8,0,0,1-1.33,4.36,4.68,4.68,0,0,1-3.1,2.15h-.05a3.36,3.36,0,0,1-3.12-1.33,6.27,6.27,0,0,1-1.28-4v-.11a7.76,7.76,0,0,1,1.33-4.33,4.79,4.79,0,0,1,3.11-2.13c2.45-.32,4.42,2,4.4,5.28Z" transform="translate(0 0)"/>
    <path d="M985.67,647.8c-2.56.26-4.65,3.18-4.67,6.62v.12c0,3.39,2,6,4.59,5.72s4.64-3.24,4.67-6.65v-.11C990.28,650.08,988.23,647.55,985.67,647.8Z" transform="translate(0 0)" style="fill: #fff"/>
    <path d="M985.67,647.55c-2.64.29-4.8,3.32-4.82,6.83v.11c0,3.53,2.11,6.26,4.77,6s4.8-3.39,4.82-6.89v-.12a6.89,6.89,0,0,0-1.38-4.38A3.85,3.85,0,0,0,985.67,647.55Zm4.4,6.09c0,3.24-2,6.09-4.44,6.36s-4.42-2.26-4.4-5.5v-.11c0-3.24,2-6,4.44-6.31a3.52,3.52,0,0,1,3.12,1.42,6.2,6.2,0,0,1,1.28,4Z" transform="translate(0 0)"/>
    <path d="M973.7,651.53c-2.55.17-4.64,3-4.67,6.42v.11c0,3.39,2,6.05,4.59,5.89s4.65-3.08,4.67-6.48v-.1C978.32,654,976.26,651.38,973.7,651.53Z" transform="translate(0 0)" style="fill: #fff"/>
    <path d="M973.71,651.28h-.05a4.71,4.71,0,0,0-3.38,2.07,8,8,0,0,0-1.44,4.59v.11a7.29,7.29,0,0,0,1.38,4.5,4,4,0,0,0,3.4,1.7,4.67,4.67,0,0,0,3.37-2.11,8,8,0,0,0,1.44-4.61v-.11C978.51,653.82,976.36,651.11,973.71,651.28Zm4.39,6.18a7.35,7.35,0,0,1-1.33,4.26,4.24,4.24,0,0,1-3.1,1.94,3.62,3.62,0,0,1-3.12-1.55,6.49,6.49,0,0,1-1.28-4.09v-.12a7.38,7.38,0,0,1,1.33-4.23,4.35,4.35,0,0,1,3.11-1.94c2.45-.15,4.42,2.34,4.4,5.6Z" transform="translate(0 0)"/>
    <path d="M961.74,653.87c-2.56.06-4.65,2.81-4.67,6.26v.11c0,3.39,2,6.11,4.59,6s4.64-2.92,4.67-6.32v-.1C966.35,656.45,964.3,653.8,961.74,653.87Z" transform="translate(0 0)" style="fill: #fff"/>
    <path d="M961.74,653.62a4.49,4.49,0,0,0-3.37,2,7.79,7.79,0,0,0-1.44,4.57v.11c0,3.52,2.12,6.33,4.77,6.27h0a4.46,4.46,0,0,0,3.38-2,7.84,7.84,0,0,0,1.44-4.58v-.13a7.21,7.21,0,0,0-1.38-4.51A4.15,4.15,0,0,0,961.74,653.62Zm4.4,6.35a7.23,7.23,0,0,1-1.33,4.23A4.16,4.16,0,0,1,961.7,666c-2.45.06-4.42-2.54-4.4-5.79v-.11a7,7,0,0,1,1.29-4.15,4.19,4.19,0,0,1,3.1-1.81,3.76,3.76,0,0,1,3.12,1.63,6.67,6.67,0,0,1,1.28,4.14Z" transform="translate(0 0)"/>
    <path d="M945.56,702.16c-2.56,0-4.61,2.77-4.59,6.16v.11c0,3.4,2.11,6.16,4.67,6.13s4.61-2.82,4.59-6.22v-.11C950.21,704.84,948.11,702.14,945.56,702.16Z" transform="translate(0 0)" style="fill: #fff"/>
    <path d="M945.6,701.91h-.05a4.31,4.31,0,0,0-3.39,1.89,7.46,7.46,0,0,0-1.38,4.54v.12c0,3.51,2.18,6.38,4.82,6.38a4.24,4.24,0,0,0,3.4-1.92,7.67,7.67,0,0,0,1.38-4.55v-.11a7.44,7.44,0,0,0-1.44-4.54A4.24,4.24,0,0,0,945.6,701.91Zm4.44,6.44a7,7,0,0,1-1.27,4.19,4,4,0,0,1-3.13,1.82c-2.43,0-4.42-2.65-4.44-5.87v-.12c0-3.26,2-5.88,4.4-5.91a4,4,0,0,1,3.11,1.68,6.88,6.88,0,0,1,1.33,4.14Z" transform="translate(0 0)"/>
    <path d="M945.56,691.21c-2.56,0-4.61,2.77-4.59,6.17v.11c0,3.39,2.11,6.15,4.67,6.12s4.61-2.82,4.59-6.21v-.12C950.21,693.89,948.11,691.18,945.56,691.21Z" transform="translate(0 0)" style="fill: #fff"/>
    <path d="M945.6,691h-.05a4.29,4.29,0,0,0-3.39,1.9,7.46,7.46,0,0,0-1.38,4.54v.11a7.6,7.6,0,0,0,1.44,4.56A4,4,0,0,0,949,702a7.65,7.65,0,0,0,1.38-4.55v-.11a7.34,7.34,0,0,0-1.44-4.53A4.32,4.32,0,0,0,945.6,691ZM950,697.4a7,7,0,0,1-1.27,4.18,4,4,0,0,1-3.13,1.78,3.93,3.93,0,0,1-3.1-1.71,7,7,0,0,1-1.33-4.16v-.12c0-3.25,2-5.88,4.4-5.91a3.93,3.93,0,0,1,3.11,1.69,6.83,6.83,0,0,1,1.33,4.13Z" transform="translate(0 0)"/>
    <path d="M945.56,682.43c-2.56,0-4.61,2.77-4.59,6.17v.11c0,3.39,2.11,6.16,4.67,6.13s4.61-2.83,4.59-6.22v-.11C950.21,685.15,948.11,682.44,945.56,682.43Z" transform="translate(0 0)" style="fill: #fff"/>
    <path d="M945.6,682.19h-.05a4.29,4.29,0,0,0-3.39,1.9,7.45,7.45,0,0,0-1.38,4.53v.12a7.55,7.55,0,0,0,1.44,4.55,4,4,0,0,0,6.77-.09,7.67,7.67,0,0,0,1.38-4.55v-.11a7.39,7.39,0,0,0-1.44-4.54A4.31,4.31,0,0,0,945.6,682.19Zm4.44,6.44a7,7,0,0,1-1.27,4.19,4,4,0,0,1-3.13,1.82,3.9,3.9,0,0,1-3.1-1.71,6.94,6.94,0,0,1-1.33-4.16v-.12c0-3.24,2-5.88,4.4-5.91s4.41,2.59,4.44,5.82Z" transform="translate(0 0)"/>
    <path d="M945.56,674.45c-2.56,0-4.61,2.76-4.59,6.16v.11c0,3.39,2.11,6.16,4.67,6.13s4.61-2.83,4.59-6.22v-.11C950.21,677.12,948.11,674.43,945.56,674.45Z" transform="translate(0 0)" style="fill: #fff"/>
    <path d="M945.6,674.2h-.05a4.25,4.25,0,0,0-3.39,1.89,7.59,7.59,0,0,0-1.38,4.53v.11c0,3.51,2.18,6.38,4.82,6.39a4.28,4.28,0,0,0,3.4-1.93,7.65,7.65,0,0,0,1.38-4.55v-.12a7.34,7.34,0,0,0-1.39-4.45A4.26,4.26,0,0,0,945.6,674.2Zm4.44,6.43a7,7,0,0,1-1.27,4.2,3.93,3.93,0,0,1-3.13,1.77c-2.43,0-4.42-2.65-4.44-5.87v-.13c0-3.26,2-5.89,4.4-5.91a3.92,3.92,0,0,1,3.11,1.68,6.88,6.88,0,0,1,1.33,4.14Z" transform="translate(0 0)"/>
    <path d="M945.56,648.8c-2.56,0-4.61,2.77-4.59,6.16v.11c0,3.4,2.11,6.15,4.67,6.13s4.61-2.82,4.59-6.22v-.11C950.21,651.52,948.11,648.8,945.56,648.8Z" transform="translate(0 0)" style="fill: #fff"/>
    <path d="M945.6,648.56h-.05a4.31,4.31,0,0,0-3.39,1.89,7.6,7.6,0,0,0-1.38,4.54v.11a7.55,7.55,0,0,0,1.44,4.55,4,4,0,0,0,6.77-.09,7.69,7.69,0,0,0,1.38-4.55v-.12a7.37,7.37,0,0,0-1.44-4.54A4.29,4.29,0,0,0,945.6,648.56ZM950,655a7,7,0,0,1-1.27,4.2,3.67,3.67,0,0,1-6.23.06,7,7,0,0,1-1.33-4.17V655c0-3.25,2-5.88,4.4-5.91a4,4,0,0,1,3.11,1.68,6.88,6.88,0,0,1,1.33,4.14Z" transform="translate(0 0)"/>
    <path d="M945.56,649.91c-2.56,0-4.61,2.77-4.59,6.16v.12c0,3.39,2.11,6.15,4.67,6.13s4.61-2.83,4.59-6.22V656C950.21,652.59,948.11,649.88,945.56,649.91Z" transform="translate(0 0)" style="fill: #fff"/>
    <path d="M945.6,649.65h-.05c-2.65,0-4.8,2.9-4.77,6.42v.12c0,3.51,2.18,6.38,4.82,6.38a4.28,4.28,0,0,0,3.4-1.92,7.67,7.67,0,0,0,1.38-4.55V656a7.4,7.4,0,0,0-1.39-4.47A4.26,4.26,0,0,0,945.6,649.65ZM950,656.1a7,7,0,0,1-1.27,4.19,4,4,0,0,1-3.13,1.77c-2.43,0-4.42-2.64-4.44-5.87v-.14c0-3.24,2-5.88,4.4-5.91a4,4,0,0,1,3.11,1.69A6.88,6.88,0,0,1,950,656Z" transform="translate(0 0)"/>
    <path d="M945.56,655.61c-2.56,0-4.61,2.77-4.59,6.16v.11c0,3.4,2.11,6.16,4.67,6.13s4.61-2.82,4.59-6.22v-.11C950.21,658.29,948.11,655.58,945.56,655.61Z" transform="translate(0 0)" style="fill: #fff"/>
    <path d="M945.6,655.35h-.05a4.31,4.31,0,0,0-3.39,1.89,7.6,7.6,0,0,0-1.38,4.54v.12c0,3.5,2.18,6.38,4.82,6.38a4.27,4.27,0,0,0,3.4-1.92,7.69,7.69,0,0,0,1.38-4.55v-.11a7.42,7.42,0,0,0-1.44-4.54A4.28,4.28,0,0,0,945.6,655.35ZM950,661.8a7,7,0,0,1-1.27,4.19,4,4,0,0,1-3.13,1.82c-2.43,0-4.42-2.65-4.44-5.87v-.12c0-3.26,2-5.89,4.4-5.91s4.41,2.59,4.44,5.82Z" transform="translate(0 0)"/>
    <path d="M945.56,663.39c-2.56,0-4.61,2.76-4.59,6.16v.14c0,3.39,2.11,6.15,4.67,6.13s4.61-2.83,4.59-6.22v-.11C950.21,666.06,948.11,663.35,945.56,663.39Z" transform="translate(0 0)" style="fill: #fff"/>
    <path d="M945.6,663.13h-.05a4.31,4.31,0,0,0-3.39,1.89,7.62,7.62,0,0,0-1.38,4.54v.13c0,3.51,2.18,6.38,4.82,6.38a4.28,4.28,0,0,0,3.4-1.92,7.67,7.67,0,0,0,1.38-4.55v-.12a7.37,7.37,0,0,0-1.44-4.54A4.28,4.28,0,0,0,945.6,663.13Zm4.44,6.44a7,7,0,0,1-1.27,4.2,3.92,3.92,0,0,1-3.13,1.76c-2.43,0-4.42-2.64-4.44-5.87v-.11c0-3.25,2-5.89,4.4-5.92a4,4,0,0,1,3.11,1.69,6.88,6.88,0,0,1,1.33,4.14Z" transform="translate(0 0)"/>
    <path d="M945.55,726.88c-3.3,0-6,3.49-6,7.88s2.68,8,6,8,6-3.59,6-8S948.85,726.88,945.55,726.88Z" transform="translate(0 0)" style="fill: #fff"/>
    <path d="M945.55,726.5c-3.46,0-6.27,3.66-6.27,8.26s2.82,8.39,6.27,8.39,6.27-3.78,6.27-8.37a9.8,9.8,0,0,0-1.84-5.87A5.62,5.62,0,0,0,945.55,726.5Zm5.7,8.29a8.89,8.89,0,0,1-1.67,5.36,5,5,0,0,1-4,2.24c-3.13,0-5.69-3.45-5.69-7.62a8.83,8.83,0,0,1,1.67-5.33,5.08,5.08,0,0,1,4-2.18c3.14,0,5.69,3.35,5.7,7.52Z" transform="translate(0 0)"/>
    <path d="M883,736.35c-3.31-.49-6,2.63-6,7s2.68,8.41,6,8.88,6-2.7,6-7.09S886.32,736.85,883,736.35Z" transform="translate(0 0)" style="fill: #fff"/>
    <path d="M883,736c-3.46-.51-6.27,2.76-6.27,7.36a11.18,11.18,0,0,0,1.87,6.18,6.72,6.72,0,0,0,4.43,3.08c3.46.52,6.27-2.85,6.27-7.43a10.81,10.81,0,0,0-1.84-6.13A6.67,6.67,0,0,0,883,736Zm5.69,9.15c0,4.17-2.55,7.21-5.69,6.74a6.08,6.08,0,0,1-4-2.82,10.19,10.19,0,0,1-1.67-5.59c0-4.18,2.55-7.15,5.69-6.69s5.69,4.21,5.69,8.38Z" transform="translate(0 0)"/>
    <path d="M1007.79,736c-3.31.59-6,4.57-6,9s2.68,7.52,6,6.93,6-4.68,6-9.06S1011.09,735.43,1007.79,736Z" transform="translate(0 0)" style="fill: #fff"/>
    <path d="M1007.79,735.63c-3.45.62-6.26,4.79-6.26,9.39a8.52,8.52,0,0,0,1.84,5.59,4.61,4.61,0,0,0,4.43,1.68c3.46-.61,6.27-4.92,6.27-9.5S1011.24,735,1007.79,735.63Zm5.69,7.28a10.42,10.42,0,0,1-1.66,5.67,6.36,6.36,0,0,1-4,2.94,4.19,4.19,0,0,1-4-1.52,7.84,7.84,0,0,1-1.67-5.09,10.09,10.09,0,0,1,1.66-5.59,6.4,6.4,0,0,1,4-2.91c3.14-.55,5.69,2.33,5.69,6.5Z" transform="translate(0 0)"/>
    <path d="M936.9,761.67v10.7q9.24.23,18.49,0v-10.7Q946.15,761.9,936.9,761.67Z" transform="translate(0 0)" style="fill: #002b7f"/>
    <path d="M936.9,761.36l-.22.3v10.71l.22.3q9.24.23,18.49,0l.23-.3v-10.7l-.23-.3Q946.15,761.58,936.9,761.36Zm18.27,10.72q-9,.23-18,0V762q9,.22,18,0Z" transform="translate(0 0)"/>
    <path d="M974.54,764c-4.58-.27-8.25,2-8.19,5.2s3.82,6.09,8.4,6.35,8.25-2.2,8.19-5.4S979.12,764.23,974.54,764Z" transform="translate(0 0)" style="fill: #3e8225"/>
    <path d="M974.7,761.86c-3.59-.22-6.78,1-8.53,3.22a6.57,6.57,0,0,0-1.39,4.21c.08,4.34,4.29,8,9.81,8.32a14.77,14.77,0,0,0,1.76,0,9.31,9.31,0,0,0,6.77-3.41,6.88,6.88,0,0,0,1.4-4.28C984.44,765.56,980.22,762.18,974.7,761.86Zm6.29,9.47c-.87,1.16-3.09,2.28-6.07,2.09-4.22-.24-7-2.79-7-4.4a1.43,1.43,0,0,1,.38-1,6.54,6.54,0,0,1,4.65-2,9.63,9.63,0,0,1,1.42,0c4.22.25,7,2.66,7,4.22A1.5,1.5,0,0,1,981,771.33Z" transform="translate(0 0)"/>
    <path d="M884.84,770.68l-4.63,5.45,5.37,5q6.25-1.33,12.5-2.78-1.11-4.83-2.23-9.66Q890.36,769.7,884.84,770.68Z" transform="translate(0 0)" style="fill: #c00"/>
    <path d="M895.78,768.2q-5.49,1.11-11,2.1l-.13.08c-1.55,1.82-3.09,3.64-4.64,5.44l.06.62,5.38,5,.21.07q6.27-1.34,12.5-2.78l.2-.46-2.22-9.66Zm-10.16,12.45h0l-4.94-4.53L885,771q5.32-1,10.67-2c.68,3,1.37,6,2.05,8.91Q891.68,779.38,885.62,780.65Z" transform="translate(0 0)"/>
    <path d="M996.44,768.31c-.74,3.23-1.48,6.47-2.23,9.69q6.25,1.38,12.5,2.52l5.37-5-4.63-5.31Q1002,769.29,996.44,768.31Z" transform="translate(0 0)" style="fill: #c00"/>
    <path d="M1007.52,769.74q-5.5-.81-11-1.81l-.35.31q-1.08,4.85-2.18,9.69c.06.15.13.3.2.46,4.16.91,8.33,1.76,12.49,2.52l.22-.09,5.38-5.06.06-.61c-1.54-1.76-3.09-3.52-4.63-5.3Zm-.85,10.38q-6-1.11-12.09-2.43c.68-3,1.37-6,2-9q5.34,1,10.67,1.77l4.31,4.94Z" transform="translate(0 0)"/>
    <path d="M917.75,764c-4.58.29-8.34,3-8.4,6.22s3.61,5.63,8.19,5.34,8.34-3.19,8.4-6.38S922.33,763.69,917.75,764Z" transform="translate(0 0)" style="fill: #3e8225"/>
    <path d="M917.59,761.88c-5.52.34-9.74,3.76-9.82,8.12a7,7,0,0,0,1.4,4.26,9.28,9.28,0,0,0,6.82,3.38,12.92,12.92,0,0,0,1.76,0c5.51-.35,9.73-4,9.82-8.34a6.65,6.65,0,0,0-1.4-4.21C924.37,762.85,921.19,761.66,917.59,761.88Zm-.21,11.58v0c-3,.18-5.2-.91-6.07-2.07a1.51,1.51,0,0,1-.39-1c0-1.61,2.77-4,7-4.32a11.21,11.21,0,0,1,1.42,0,6.58,6.58,0,0,1,4.65,2,1.53,1.53,0,0,1,.39,1C924.34,770.63,921.6,773.19,917.38,773.46Z" transform="translate(0 0)"/>
    <path d="M930.62,759.24c-1.25,0-2.27,1.25-2.27,2.92s1,3.07,2.27,3.12,2.28-1.27,2.28-2.94S931.88,759.29,930.62,759.24Z" transform="translate(0 0)" style="fill: #fff"/>
    <path d="M930.62,758.88c-1.4,0-2.54,1.41-2.54,3.27s1.14,3.43,2.54,3.49,2.55-1.43,2.55-3.29S932,758.94,930.62,758.88Zm0,6h0c-1.1,0-2-1.28-2-2.77s.9-2.63,2-2.59,2,1.27,2,2.77S931.73,765,930.62,764.93Z" transform="translate(0 0)"/>
    <path d="M931.33,768.9c-1.25,0-2.27,1.26-2.27,2.92s1,3.07,2.27,3.12,2.28-1.27,2.28-2.94S932.59,768.94,931.33,768.9Z" transform="translate(0 0)" style="fill: #fff"/>
    <path d="M931.33,768.54c-1.4,0-2.54,1.41-2.54,3.27s1.14,3.43,2.54,3.48,2.55-1.42,2.55-3.28S932.74,768.6,931.33,768.54Zm0,6.05h0c-1.11,0-2-1.28-2-2.77s.9-2.63,2-2.59,2,1.27,2,2.77S932.44,774.63,931.33,774.59Z" transform="translate(0 0)"/>
    <path d="M902.17,763.88c-1.25-.13-2.27,1.1-2.27,2.77s1,3.13,2.27,3.28,2.28-1.12,2.28-2.79S903.43,764,902.17,763.88Z" transform="translate(0 0)" style="fill: #fff"/>
    <path d="M902.17,763.55c-1.4-.15-2.54,1.24-2.54,3.09s1.14,3.52,2.54,3.67,2.55-1.25,2.55-3.12S903.58,763.71,902.17,763.55Zm0,6.05h0a2.73,2.73,0,0,1-2-2.84c0-1.43.9-2.58,2-2.45a2.72,2.72,0,0,1,2,2.84C904.17,768.58,903.28,769.72,902.17,769.6Z" transform="translate(0 0)"/>
    <path d="M905,773.27c-1.26-.13-2.28,1.11-2.28,2.78s1,3.14,2.28,3.26,2.28-1.13,2.27-2.79S906.28,773.39,905,773.27Z" transform="translate(0 0)" style="fill: #fff"/>
    <path d="M905,772.92c-1.4-.15-2.54,1.24-2.54,3.1s1.14,3.5,2.54,3.64,2.54-1.26,2.54-3.12S906.42,773.06,905,772.92Zm0,6h0c-1.11-.11-2-1.4-2-2.83s.9-2.57,2-2.46a2.71,2.71,0,0,1,2,2.83C907,777.93,906.13,779.07,905,779Z" transform="translate(0 0)"/>
    <path d="M961.56,759.25c-1.25,0-2.27,1.44-2.27,3.11s1,3,2.27,2.94,2.28-1.46,2.28-3.13S962.82,759.21,961.56,759.25Z" transform="translate(0 0)" style="fill: #fff"/>
    <path d="M961.56,758.9c-1.4,0-2.54,1.61-2.54,3.47s1.14,3.34,2.54,3.28,2.54-1.62,2.54-3.49S963,758.84,961.56,758.9Zm0,6c-1.11,0-2-1.11-2-2.59s.9-2.74,2-2.76,2,1.11,2,2.58S962.67,764.9,961.56,764.94Z" transform="translate(0 0)"/>
    <path d="M960.85,768.91c-1.26,0-2.28,1.43-2.28,3.11s1,3,2.28,2.94,2.28-1.46,2.28-3.13S962.11,768.87,960.85,768.91Z" transform="translate(0 0)" style="fill: #fff"/>
    <path d="M960.85,768.56c-1.4,0-2.54,1.6-2.54,3.46s1.14,3.35,2.54,3.29,2.54-1.62,2.54-3.48S962.25,768.5,960.85,768.56Zm0,6h0c-1.11,0-2-1.13-2-2.6a2.56,2.56,0,0,1,2-2.76c1.1-.07,2,1.11,2,2.58S962,774.56,960.85,774.6Z" transform="translate(0 0)"/>
    <path d="M990,763.79c-1.26.16-2.28,1.62-2.28,3.3s1,2.9,2.28,2.74,2.28-1.64,2.28-3.3S991.27,763.59,990,763.79Z" transform="translate(0 0)" style="fill: #fff"/>
    <path d="M990,763.39c-1.4.18-2.54,1.82-2.54,3.68s1.14,3.24,2.54,3.07,2.54-1.83,2.54-3.69S991.41,763.23,990,763.39Zm0,6c-1.11.14-2-.95-2-2.43s.9-2.78,2-2.9,2,.95,2,2.42S991.12,769.3,990,769.43Z" transform="translate(0 0)"/>
    <path d="M987.17,773.14c-1.26.15-2.28,1.61-2.28,3.28s1,2.91,2.28,2.77,2.27-1.62,2.27-3.29S988.42,773,987.17,773.14Z" transform="translate(0 0)" style="fill: #fff"/>
    <path d="M987.17,772.79c-1.41.17-2.55,1.8-2.55,3.66s1.14,3.25,2.55,3.09,2.54-1.81,2.54-3.67S988.57,772.63,987.17,772.79Zm0,6.05h0c-1.11.13-2-1-2-2.45s.9-2.78,2-2.85,2,1,2,2.44A2.73,2.73,0,0,1,987.17,778.84Z" transform="translate(0 0)"/>
    <path d="M1004.53,796.43c1.07.43,1.92-4.41-1.19-7.49a115.89,115.89,0,0,1-57.9,15.62,122.2,122.2,0,0,1-58.8-15.92c-3.11,3.14-2.14,7.35-2.33,8.86a12.57,12.57,0,0,0,.57,3.52c3.06,4.9,13,8.34,14.71,8.91,8.17,2.57,16.34,7,45.84,7.46,27.28-.15,38.49-6,46.66-8.78,1.74-.57,12.23-5.45,14.43-7.65C1005.1,797.89,1002.54,795.64,1004.53,796.43Z" transform="translate(0 0)" style="fill: #fff"/>
    <path d="M1004.76,797.05a1.36,1.36,0,0,0,.84-.87,7.71,7.71,0,0,0-2-7.75l-.44,0A115.64,115.64,0,0,1,945.4,804a121.82,121.82,0,0,1-58.66-15.83l-.44.06c-2.62,2.64-2.53,6-2.47,8a8.69,8.69,0,0,1,0,1.25,13.62,13.62,0,0,0,.62,3.82l.07.15c2,3.19,7.15,6.43,14.83,9.07h.15l2.64.93c7.52,2.47,16.88,6.23,43.26,6.54,23.49,0,35.28-4.6,43.08-7.39,1.31-.48,2.52-.94,3.67-1.35,1.79-.58,12.33-5.46,14.59-7.76,0-.28.11-.56.16-.85a22.33,22.33,0,0,0-2-3.39S1004.81,797.14,1004.76,797.05ZM992,808.12c-1.15.41-2.36.87-3.68,1.35-7.77,2.78-19.51,7.29-42.91,7.36-26.3-.32-35.61-4.07-43.1-6.52l-2.65-.92-.14-.06c-7.32-2.51-12.38-5.63-14.27-8.55a13.11,13.11,0,0,1-.5-3.09,10.74,10.74,0,0,0,0-1.39c0-1.82-.13-4.64,2-6.92a122.44,122.44,0,0,0,58.7,15.77,116.29,116.29,0,0,0,57.79-15.52A6.81,6.81,0,0,1,1005,795a1.6,1.6,0,0,1-.29.82c-.41-.16-1-.38-1.26.18s0,1,.77,2.14a23.43,23.43,0,0,1,1.67,2.75C1003.1,803.21,993.62,807.59,992,808.12Z" transform="translate(0 0)"/>
    <path d="M1007.61,788.89c-2.21-1.32-13.26-4.84-15-5.08-8.17-1.07-16.62-6.29-46.12-5.94-27.28-.21-39.63,4.94-47.8,6-1.74.25-12.79,4-15,5.39v0c.19,1.55-1.92,8.34,1.19,12.4,9-2.59,34.38-10.9,61.59-11,27.85,0,50.92,8.29,59.95,10.62C1009.53,797.18,1007.42,790.45,1007.61,788.89Z" transform="translate(0 0)" style="fill: #fff"/>
    <path d="M1008.05,789v-.21H1008a1.54,1.54,0,0,0-.16-.47c-2.22-1.32-13.37-4.88-15.16-5.14a41,41,0,0,1-6.44-1.41c-7.4-2.13-17.55-4.7-39.75-4.56-20.91,0-33.18,2.75-41.31,4.74a59.62,59.62,0,0,1-6.57,1.3c-1.78.24-12.94,4-15.16,5.43l-.15.48h-.07v.18a11.93,11.93,0,0,1-.17,1.8c-.38,2.87-1,7.69,1.51,11l.44.18,1.39-.42c10.24-3,34.21-10.5,60.06-10.57,25.13,0,46.56,6.88,56.85,9.79l3,.82.44-.19c2.53-3.37,1.89-8.17,1.51-11.05A13.93,13.93,0,0,1,1008.05,789Zm-1.75,11.7c-.79-.21-1.69-.47-2.68-.76-10.35-2.91-31.87-9.73-57.15-9.8-26,0-50.06,7.59-60.34,10.6L885,801c-1.92-2.8-1.36-7-1-9.56a13.38,13.38,0,0,0,.18-1.8,100.5,100.5,0,0,1,14.62-5.2,58.6,58.6,0,0,0,6.64-1.31c8.08-2,20.28-4.82,41.08-4.73,22.07-.14,32.15,2.43,39.5,4.54a40.89,40.89,0,0,0,6.54,1.4,106.13,106.13,0,0,1,14.61,4.89,15.38,15.38,0,0,0,.19,1.8C1007.67,793.6,1008.23,797.81,1006.3,800.65Z" transform="translate(0 0)"/>
    <path d="M889.89,790.75c-.41,0-.7.43-.64.94s.44.94.85.9a.76.76,0,0,0,.64-.94A.92.92,0,0,0,889.89,790.75Z" transform="translate(0 0)"/>
    <path d="M890.23,791.75h0Z" transform="translate(0 0)"/>
    <path d="M891.77,791.58c-.13-1.27-1-2.28-2-2.23a1.49,1.49,0,0,0-1.22.75,2.75,2.75,0,0,0-.33,1.69A2.41,2.41,0,0,0,890,794h.24a1.48,1.48,0,0,0,1.21-.77,2.52,2.52,0,0,0,.33-1.64Zm-1.47.18h0a.44.44,0,0,1-.08.25h0a.26.26,0,0,1-.19.14c-.12,0-.24-.13-.29-.33l.5-.07h-.52a.81.81,0,0,1,.08-.34.25.25,0,0,1,.19-.12.45.45,0,0,1,.32.39Z" transform="translate(0 0)"/>
    <path d="M889,793.11a.77.77,0,0,0-.64.95v0c.06.51.44.94.85.9a.77.77,0,0,0,.64-1C889.83,793.5,889.45,793.07,889,793.11Z" transform="translate(0 0)"/>
    <path d="M888.91,791.71a1.52,1.52,0,0,0-1.22.76,2.68,2.68,0,0,0-.33,1.69,2.4,2.4,0,0,0,1.79,2.22l.23,0a1.47,1.47,0,0,0,1.22-.76,2.56,2.56,0,0,0,.33-1.65A2.3,2.3,0,0,0,888.91,791.71Zm.45,2.68h0a.2.2,0,0,1-.19.12c-.11,0-.21-.09-.28-.33l.55-.07A.57.57,0,0,1,889.36,794.39Zm.1-.31-.59,0a.33.33,0,0,0,0-.14.73.73,0,0,1,.08-.25.26.26,0,0,1,.19-.13c.16,0,.29.19.32.4Z" transform="translate(0 0)"/>
    <path d="M890.68,794.69a.77.77,0,0,0-.64.95c.06.51.44.94.85.89a.75.75,0,0,0,.64-.93A.93.93,0,0,0,890.68,794.69Z" transform="translate(0 0)"/>
    <path d="M890.57,793.29a1.52,1.52,0,0,0-1.22.76,2.68,2.68,0,0,0-.36,1.71,2.4,2.4,0,0,0,1.79,2.22H891a1.47,1.47,0,0,0,1.22-.75,2.55,2.55,0,0,0,.33-1.65l-1,.07,1-.14C892.43,794.26,891.51,793.24,890.57,793.29ZM891,796a.23.23,0,0,1-.19.13c-.11,0-.29-.19-.31-.37l.58-.05a.5.5,0,0,1-.09.29Zm-.5-.44a.63.63,0,0,1,.07-.22.26.26,0,0,1,.19-.13.41.41,0,0,1,.32.39Z" transform="translate(0 0)"/>
    <path d="M893.75,794.09l3.22.21-3.18-.23Z" transform="translate(0 0)"/>
    <path d="M893.49,793l3.13-2.38-6.53,3.2,3.7.28,1.84-1.2Z" transform="translate(0 0)"/>
    <path d="M896.18,789.26c-2.17,1.08-4.35,2.13-6.53,3.2.16.92.32,1.84.49,2.76l6.87.51c0-.91,0-1.82-.08-2.81l-1-.06,1.3-1C896.87,791,896.53,790.11,896.18,789.26Z" transform="translate(0 0)"/>
    <path d="M913.92,784.22a.83.83,0,0,0-.64,1c.06.5.44.92.85.85a.85.85,0,0,0,.64-1A.89.89,0,0,0,913.92,784.22Z" transform="translate(0 0)"/>
    <path d="M913.79,782.83a1.61,1.61,0,0,0-1.22.85,2.74,2.74,0,0,0-.33,1.71,2.25,2.25,0,0,0,1.79,2.13h.23a1.58,1.58,0,0,0,1.22-.86,2.64,2.64,0,0,0,.33-1.67C915.66,783.7,914.74,782.74,913.79,782.83Zm.45,2.64h0c0,.09-.12.14-.19.14a.43.43,0,0,1-.3-.31l.57-.11A.54.54,0,0,1,914.24,785.47Zm.08-.3-.58.06v-.05a.57.57,0,0,1,.08-.34.3.3,0,0,1,.19-.14.39.39,0,0,1,.31.38A.14.14,0,0,1,914.32,785.17Z" transform="translate(0 0)"/>
    <path d="M913.07,786.64a.87.87,0,0,0-.65,1v0a.76.76,0,1,0,1.49-.13C913.86,787,913.48,786.6,913.07,786.64Z" transform="translate(0 0)"/>
    <path d="M914,787.55l1-.18c-.14-1.26-1.06-2.2-2-2.12a1.61,1.61,0,0,0-1.22.85,2.76,2.76,0,0,0-.33,1.71,2.25,2.25,0,0,0,1.78,2.13h.23a1.59,1.59,0,0,0,1.23-.86,2.64,2.64,0,0,0,.33-1.67Zm-1-.29v0a.26.26,0,0,1,.19-.13c.19,0,.3.17.32.37l-.57,0A.61.61,0,0,1,913,787.26Zm.4.63,0,0c0,.09-.12.14-.19.14a.54.54,0,0,1-.32-.44l.59,0A.81.81,0,0,1,913.39,787.89Z" transform="translate(0 0)"/>
    <path d="M914.71,788.13a.81.81,0,0,0-.64,1c.06.5.44.93.85.86a.86.86,0,0,0,.64-1v0A.86.86,0,0,0,914.71,788.13Z" transform="translate(0 0)"/>
    <path d="M914.58,786.73a1.65,1.65,0,0,0-1.23.86,2.86,2.86,0,0,0-.32,1.7,2.25,2.25,0,0,0,1.79,2.13h.23a1.58,1.58,0,0,0,1.22-.86,2.59,2.59,0,0,0,.33-1.66C916.46,787.6,915.54,786.64,914.58,786.73Zm.41,2.65h0a.26.26,0,0,1-.19.14c-.12,0-.24-.11-.3-.32l.57-.1A.5.5,0,0,1,915,789.38Zm.12-.31-.58.07v0a.62.62,0,0,1,.08-.35.26.26,0,0,1,.19-.13c.14-.05.29.17.31.36A.17.17,0,0,1,915.11,789.07Z" transform="translate(0 0)"/>
    <path d="M919.66,786l-2.14.22,3.13-2.62c-2.18,1.2-4.35,2.38-6.53,3.55,2.29.09,4.59.1,6.88.12l-3.23,0Z" transform="translate(0 0)"/>
    <path d="M920.21,782.39c-2.18,1.2-4.35,2.38-6.53,3.54l.48,2.69c2.3.1,4.59.11,6.88.14L921,786l-1,0,1.3-1.07C920.89,784.05,920.55,783.22,920.21,782.39Z" transform="translate(0 0)"/>
    <path d="M943.91,781c-.41-.06-.77.29-.81.8a.92.92,0,0,0,.68,1c.41.07.77-.29.81-.79A.91.91,0,0,0,943.91,781Z" transform="translate(0 0)"/>
    <path d="M944,779.64a1.5,1.5,0,0,0-1.36.51,2.53,2.53,0,0,0-.63,1.58,2.33,2.33,0,0,0,1.6,2.55h.22a1.51,1.51,0,0,0,1.14-.53,2.4,2.4,0,0,0,.63-1.53A2.35,2.35,0,0,0,944,779.64Zm0,2.69a.28.28,0,0,1-.21.09.56.56,0,0,1-.24-.47l.59.08a.6.6,0,0,1-.19.3Zm.14-.32-.58-.14a.58.58,0,0,1,.13-.26c.07-.08.14-.12.22-.09a.5.5,0,0,1,.24.43Z" transform="translate(0 0)"/>
    <path d="M942.64,783.17c-.42-.08-.78.27-.81.78a.92.92,0,0,0,.68,1,.75.75,0,0,0,.81-.79A.89.89,0,0,0,942.64,783.17Z" transform="translate(0 0)"/>
    <path d="M942.76,781.77a1.5,1.5,0,0,0-1.35.51,2.51,2.51,0,0,0-.63,1.57,2.32,2.32,0,0,0,1.6,2.56h.22a1.54,1.54,0,0,0,1.13-.51,2.46,2.46,0,0,0,.63-1.55l-1-.13,1,.1A2.32,2.32,0,0,0,942.76,781.77Zm0,2.73a.22.22,0,0,1-.22.09.49.49,0,0,1-.24-.35h.58a.62.62,0,0,1-.15.22Zm-.44-.5a.94.94,0,0,1,.12-.22.26.26,0,0,1,.22-.09c.15,0,.25.24.24.45v0Z" transform="translate(0 0)"/>
    <path d="M944,785a.74.74,0,0,0-.81.78,1,1,0,0,0,.68,1,.75.75,0,0,0,.81-.79A.94.94,0,0,0,944,785Z" transform="translate(0 0)"/>
    <path d="M944.11,783.63a1.53,1.53,0,0,0-1.35.49,2.53,2.53,0,0,0-.63,1.58,2.32,2.32,0,0,0,1.6,2.56h.21a1.56,1.56,0,0,0,1.15-.52,2.55,2.55,0,0,0,.62-1.55l-1.05-.13,1.05.1A2.28,2.28,0,0,0,944.11,783.63Zm0,2.68c-.07.06-.14.11-.22.08a.52.52,0,0,1-.24-.36h.58a.59.59,0,0,1-.15.28Zm-.44-.5a.84.84,0,0,1,.12-.23c.07-.06.14-.12.22-.08a.52.52,0,0,1,.24.44v0Z" transform="translate(0 0)"/>
    <path d="M943.57,784c2.25.62,4.49,1.23,6.74,1.81l-3.16-.85,2.09-.77-2.15-.31,3.54-1.73C948.28,782.79,945.92,783.41,943.57,784Z" transform="translate(0 0)"/>
    <path d="M950.43,780.79c-2.35.63-4.71,1.24-7.06,1.82v2.73c2.25.63,4.49,1.24,6.74,1.82l.42-2.73-1-.26,1.46-.72C950.8,782.58,950.62,781.68,950.43,780.79Z" transform="translate(0 0)"/>
    <path d="M971.58,787.82a.86.86,0,0,0-.85.83v.05a.88.88,0,0,0,.64,1,.86.86,0,0,0,.85-.84v-.05A.86.86,0,0,0,971.58,787.82Z" transform="translate(0 0)"/>
    <path d="M971.71,786.43c-.94-.11-1.87.84-2,2.13a2.73,2.73,0,0,0,.28,1.66,1.66,1.66,0,0,0,1.22.86h.23c.83,0,1.57-.87,1.77-2.09v-.07a2.71,2.71,0,0,0-.34-1.67A1.59,1.59,0,0,0,971.71,786.43Zm.06,2.33c0,.24-.13.46-.32.41a.25.25,0,0,1-.19-.14.72.72,0,0,1-.08-.35.38.38,0,0,1,.32-.38.26.26,0,0,1,.19.14.65.65,0,0,1,.08.31l.45,0Z" transform="translate(0 0)"/>
    <path d="M970.73,785.39a.95.95,0,1,0,.64,1A.87.87,0,0,0,970.73,785.39Z" transform="translate(0 0)"/>
    <path d="M970.86,784c-1-.11-1.88.84-2,2.14a2.7,2.7,0,0,0,.33,1.67,1.7,1.7,0,0,0,1.22.87h.23a2.15,2.15,0,0,0,1.78-2v-.24a2.59,2.59,0,0,0-.34-1.54A1.58,1.58,0,0,0,970.86,784Zm-.26,2.78v0a.3.3,0,0,1-.19-.14.67.67,0,0,1-.08-.37c0-.23.17-.43.32-.4a.26.26,0,0,1,.19.14.58.58,0,0,1,.08.36C970.89,786.6,970.73,786.8,970.6,786.78Z" transform="translate(0 0)"/>
    <path d="M972.37,783.92a.87.87,0,0,0-.85.84v0a.86.86,0,0,0,.64,1,.85.85,0,0,0,.85-.85A.86.86,0,0,0,972.37,783.92Z" transform="translate(0 0)"/>
    <path d="M972.51,782.53a2.08,2.08,0,0,0-2,2.13,2.72,2.72,0,0,0,.33,1.68,1.64,1.64,0,0,0,1.23.87h.22a2.19,2.19,0,0,0,1.78-2.09V785a2.71,2.71,0,0,0-.34-1.67A1.59,1.59,0,0,0,972.51,782.53Zm-.26,2.79h0a.25.25,0,0,1-.19-.15.73.73,0,0,1-.08-.36c0-.25.17-.44.32-.41a.22.22,0,0,1,.19.14.47.47,0,0,1,.08.35C972.54,785.14,972.37,785.33,972.25,785.32Z" transform="translate(0 0)"/>
    <polygon points="972.25 785.32 972.25 785.32 972.24 785.32 972.25 785.32"/>
    <path d="M971.57,786.68q3.27,1.79,6.54,3.5c-1-.83-2.09-1.67-3.13-2.52l2.14.21-1.89-1.26,3.22-.14C976.15,786.58,973.85,786.65,971.57,786.68Z" transform="translate(0 0)"/>
    <path d="M978.41,787.91l.09-2.8q-3.45.17-6.88.18c-.16.91-.33,1.83-.49,2.69q3.27,1.78,6.54,3.52c.34-.84.67-1.68,1-2.52l-1.29-1Z" transform="translate(0 0)"/>
    <path d="M995.83,793.7a1,1,0,0,0-.85.9v0a.76.76,0,0,0,.64.94,1,1,0,0,0,.85-.91A.77.77,0,0,0,995.83,793.7Z" transform="translate(0 0)"/>
    <path d="M996,792.3a2.27,2.27,0,0,0-2,2.28,2.62,2.62,0,0,0,.33,1.65,1.52,1.52,0,0,0,1.22.76l.23,0a2.41,2.41,0,0,0,1.79-2.24,2.56,2.56,0,0,0-.33-1.65A1.47,1.47,0,0,0,996,792.3Zm.06,2.33c0,.25-.2.45-.32.44a.21.21,0,0,1-.19-.14.57.57,0,0,1-.08-.34c0-.22.14-.43.31-.41a.25.25,0,0,1,.19.13.51.51,0,0,1,.08.32l.45,0Z" transform="translate(0 0)"/>
    <path d="M995,791.34a1,1,0,0,0-.85.9.76.76,0,0,0,.64.93,1,1,0,0,0,.85-.9A.75.75,0,0,0,995,791.34Z" transform="translate(0 0)"/>
    <path d="M995.11,789.94c-1-.05-1.88,1-2,2.28a2.63,2.63,0,0,0,.33,1.65,1.53,1.53,0,0,0,1.22.75l.23,0a2.37,2.37,0,0,0,1.78-2.2v-.19a2.5,2.5,0,0,0-.34-1.52A1.46,1.46,0,0,0,995.11,789.94Zm-.26,2.8a.26.26,0,0,1-.19-.13.64.64,0,0,1-.08-.36c0-.24.17-.45.32-.43a.23.23,0,0,1,.19.13.59.59,0,0,1,.08.35C995.14,792.53,995,792.77,994.85,792.74Z" transform="translate(0 0)"/>
    <path d="M996.62,789.76a.94.94,0,0,0-.85.89.77.77,0,0,0,.64.94,1,1,0,0,0,.85-.9v-.05A.75.75,0,0,0,996.62,789.76Z" transform="translate(0 0)"/>
    <path d="M996.75,788.35a2.28,2.28,0,0,0-2,2.28,2.63,2.63,0,0,0,.33,1.65,1.52,1.52,0,0,0,1.22.76h.23a2.46,2.46,0,0,0,1.78-2.22v-.06a2.54,2.54,0,0,0-.33-1.65A1.49,1.49,0,0,0,996.75,788.35Zm.06,2.34c0,.23-.16.46-.32.43a.26.26,0,0,1-.19-.13.62.62,0,0,1-.08-.35c0-.23.2-.42.31-.41a.26.26,0,0,1,.19.14.44.44,0,0,1,.08.3l.45,0Z" transform="translate(0 0)"/>
    <path d="M995.82,792.57c2.18,1,4.36,2,6.53,3-1-.77-2.08-1.54-3.13-2.3l2.14.05c-.62-.38-1.25-.75-1.88-1.12l3.22-.34C1000.41,792.13,998.11,792.37,995.82,792.57Z" transform="translate(0 0)"/>
    <path d="M1002.66,793.3c0-.91.06-1.82.08-2.79q-3.43.36-6.87.66c-.17.93-.33,1.85-.49,2.77l6.53,3c.35-.85.69-1.72,1-2.58l-1.29-.94Z" transform="translate(0 0)"/>
  </g>
</svg>
