<svg xmlns="http://www.w3.org/2000/svg" viewBox="0 0 1260 1012.04">
  <g>
    <path d="M0,720.11C420,448.8,840,903.32,1260,632V291.92C840,563.23,420,108.72,0,380Z" style="fill: #fff"/>
    <path d="M1260,2C840,273.28,420-181.24,0,90.08V396.59c420-271.31,840,183.2,1260-88.1Z" style="fill: #ce1126"/>
    <path d="M0,703.56v306.52C420,738.76,840,1193.27,1260,922V615.46C840,886.76,420,432.25,0,703.56Z"/>
    <path d="M790.8,467.3c.14,2.08-4.1,7.35-6.14,7.6-.8.1-3.56-1.36-6.16-3.24l-4.72-3.44-4,3c-4.55,3.42-9.13,3.43-16.24,0-4-1.92-4.53-2-3.57-.32a20.24,20.24,0,0,0,4.28,4.33c6.21,4.7,13.11,5.54,18.07,2.24,2.21-1.47,3-1.36,7.37,1.07,3.59,2,5.78,2.59,8.15,2.3,4.86-.6,7.61-6.45,5.72-12.22C792.6,465.68,790.64,464.72,790.8,467.3Z" style="fill: #007a3d"/>
    <path d="M771.49,445.25c-1.6-.83-2.21-.56-2.8,1.27-.67,2.12,1.4,11.57,3.13,14.28,1.59,2.48,2.39,1.07,2.72-4.74C775,448.94,774.31,446.7,771.49,445.25Z" style="fill: #007a3d"/>
    <path d="M602.13,483.67c-10.31,4.24-25.71,1.88-25.69,19.68-22.42-3.64-48.94-8.17-72.84-13.06,8.07-10,52.27-48.4,64.37-59,2.17-.85,5.11.3,7.47-.36-3.48-2.72-11.17-15.27-10.6-19.55h0c-19.42,16.55-41.61,34.17-44.76,37.05C488.45,477.12,489,477,484.37,481.2c0,6.72.1,16.06.1,20.51,36.52,6,103.83,20.38,109.24,21.63s-1.23-21,5.73-19.49c7.28,1.57,4.84,17.24,4.85,27.31-46.59-10.11-95.82-20-141.45-27.1V471.85c-11.73,9.08-12.95,9.92-20.29,11.78,5.68,2,6.06,11.65,5.41,19.67-19.2-2.36-45.06-2.57-37.87-25.66-10.24,6.41-11.76,7.25-21.83,10.32,6.08,12.66,15.5,26.85,12.36,47.9-3.73,9.36-14.12,10.79-20.3,17.36,20,7.11,34.28-4.36,37.88-21.32,67.63,8.12,136.62,22.9,204.25,37.65,0-17.93,0-42.77,0-59.25C620.76,496.16,607.44,494,602.13,483.67Z" style="fill: #007a3d"/>
    <polygon points="837.87 463.37 837.87 463.37 837.87 463.37 837.87 463.37" style="fill: #007a3d"/>
    <path d="M855.44,579.46V489.11c.9-4.36,4.34-5.67,5.43-9.8-9.34-3.58-15.38-10.51-23-15.94q0,73.33,0,146.64,22.32,2.78,44.63,4.57c.3-11.32-8.11-26.19-9.46-40.79C868.06,576.78,865.87,583.08,855.44,579.46Z" style="fill: #007a3d"/>
    <path d="M805.92,482.17c0,27.92.36,58.45.36,88.49q-5.84-.87-11.69-1.79V490c0,.61-16.24,12.95-16.24,12.92h0c0,2-.1,63.21-.11,63.2-2.15-.36-8.54-1.48-11.82-2.07,0,0-.25-36.6-.24-52.09-13.42,10.44-15.1,11.47-20,16,.4,2.73,2.11.52,3.06,2.74v12c-31.2-12.47-30.94,17.76-29.43,47.42,8.12,1.83,69.58,13.55,102.53,17.69V466.54C820,471.49,810.67,477.69,805.92,482.17Zm-66,76.24c-1.76-6,8.06-6,9.32-.77C749.54,563.79,742.07,562.44,739.87,558.41Z" style="fill: #007a3d"/>
    <path d="M443.08,545c-3.46-.49-6.26,2.2-6.26,6s2.8,7.24,6.26,7.73,6.26-2.16,6.26-5.95S446.53,545.45,443.08,545Z" style="fill: #007a3d"/>
    <path d="M653.86,544V453.59c.9-4.26,4.34-5.2,5.42-9.19-9.33-4.64-15.37-12.18-23-18.33V572.7q22.32,4.88,44.63,9.64c.3-11.29-8.11-27.25-9.46-42C666.48,542.71,664.29,548.72,653.86,544Z" style="fill: #007a3d"/>
  </g>
</svg>
