<svg xmlns="http://www.w3.org/2000/svg" viewBox="0 0 1260 1012.04">
  <g>
    <path d="M0,90.08v920C420,738.76,840,1193.28,1260,922V2C840,273.28,420-181.24,0,90.08Z" style="fill: #da0000"/>
    <path d="M0,90.08V703.41C420,432.09,840,886.62,1260,615.3V2C840,273.28,420-181.24,0,90.08Z" style="fill: #fff"/>
    <path d="M0,90.08V396.74C420,125.43,840,580,1260,308.63V2C840,273.28,420-181.24,0,90.08Z" style="fill: #239f40"/>
    <path d="M28,365.4c1.87-1.06,3.73-2.12,5.6-3.15v-7.16c-1.87,1-3.73,2.09-5.6,3.16Z" style="fill: #fff"/>
    <path d="M89.6,299.26a561.51,561.51,0,0,0-72.8,36.93v7.15a561.42,561.42,0,0,1,72.8-36.92Z" style="fill: #fff"/>
    <path d="M117.6,317.1c-1.87.66-3.73,1.33-5.6,2V290.49c-1.87.68-3.73,1.38-5.6,2.08V321.2c-1.87.7-3.73,1.42-5.6,2.15V294.73c-1.87.73-3.73,1.48-5.6,2.23v14.31Q84,315.8,72.8,320.93v21.46q8.4-3.84,16.8-7.35v-7.16q-5.59,2.34-11.2,4.83v-7.15q8.4-3.74,16.8-7.13v14.31q14-5.67,28-10.43V286.53c-1.87.64-3.73,1.28-5.6,1.94Z" style="fill: #fff"/>
    <path d="M50.4,339q5.6-2.86,11.2-5.59v7.16q-8.4,4.07-16.8,8.5V334.71q-14,7.4-28,15.79V372c1.87-1.12,3.73-2.22,5.6-3.32V354.33q8.4-4.92,16.8-9.47v14.31q14-7.59,28-14.18V323.53q-8.4,4-16.8,8.27Z" style="fill: #fff"/>
    <path d="M16.8,393.43a569.53,569.53,0,0,1,50.4-27V352.15a569.53,569.53,0,0,0-50.4,27Z" style="fill: #fff"/>
    <path d="M72.8,363.86a539.24,539.24,0,0,1,50.4-20.09V329.46a539.24,539.24,0,0,0-50.4,20.09Z" style="fill: #fff"/>
    <path d="M16.8,700.1a569.53,569.53,0,0,1,50.4-27V658.82a569.53,569.53,0,0,0-50.4,27Z" style="fill: #fff"/>
    <path d="M72.8,670.53a536.5,536.5,0,0,1,50.4-20.09V636.13a536.5,536.5,0,0,0-50.4,20.09Z" style="fill: #fff"/>
    <path d="M28,736.47c1.87-1.07,3.73-2.12,5.6-3.16v-7.15c-1.87,1-3.73,2.09-5.6,3.15Z" style="fill: #fff"/>
    <path d="M89.6,670.33a561.42,561.42,0,0,0-72.8,36.92v7.16a561.42,561.42,0,0,1,72.8-36.92Z" style="fill: #fff"/>
    <path d="M117.6,688.16c-1.87.66-3.73,1.33-5.6,2V661.55c-1.87.69-3.73,1.38-5.6,2.09v28.62c-1.87.71-3.73,1.43-5.6,2.16V665.8c-1.87.73-3.73,1.47-5.6,2.23v14.31Q84,686.87,72.8,692v21.47q8.4-3.84,16.8-7.35V699q-5.59,2.34-11.2,4.83v-7.16q8.4-3.74,16.8-7.13V703.8q14-5.65,28-10.43V657.6c-1.87.63-3.73,1.28-5.6,1.94Z" style="fill: #fff"/>
    <path d="M50.4,710q5.6-2.88,11.2-5.59v7.15q-8.4,4.08-16.8,8.51V705.78q-14,7.38-28,15.78V743c1.87-1.12,3.73-2.23,5.6-3.32V725.4q8.4-4.92,16.8-9.47v14.31q14-7.59,28-14.18V694.59q-8.4,4-16.8,8.27Z" style="fill: #fff"/>
    <path d="M140,316.88l5.6-1.67v-7.15c-1.87.54-3.73,1.1-5.6,1.67Z" style="fill: #fff"/>
    <path d="M201.6,266.22a543.78,543.78,0,0,0-72.8,18.43v7.16a542.27,542.27,0,0,1,72.8-18.43Z" style="fill: #fff"/>
    <path d="M229.6,290.48c-1.87.24-3.73.5-5.6.76V262.62c-1.87.26-3.73.53-5.6.81v28.62l-5.6.88V264.3l-5.6.93v14.32q-11.2,1.9-22.4,4.3v21.46q8.4-1.79,16.8-3.31v-7.16q-5.59,1-11.2,2.15v-7.15q8.4-1.71,16.8-3.14V301q14-2.4,28-4.08V261.15c-1.87.23-3.73.46-5.6.71Z" style="fill: #fff"/>
    <path d="M162.4,296.28q5.59-1.45,11.2-2.76v7.15q-8.4,2-16.8,4.24V290.6q-14,3.76-28,8.37v21.46l5.6-1.81V304.31q8.4-2.65,16.8-5V313.6q14-3.93,28-7.06V285.07q-8.4,1.89-16.8,4.05Z" style="fill: #fff"/>
    <path d="M128.8,341.9q25.2-8.29,50.4-13.9V313.69q-25.2,5.65-50.4,13.9Z" style="fill: #fff"/>
    <path d="M184.8,326.78c16.8-3.59,33.6-6.35,50.4-8.39V304.08c-16.8,2-33.6,4.8-50.4,8.39Z" style="fill: #fff"/>
    <path d="M128.8,648.56q25.2-8.28,50.4-13.89V620.36Q154,626,128.8,634.25Z" style="fill: #fff"/>
    <path d="M184.8,633.45c16.8-3.59,33.6-6.35,50.4-8.39V610.75c-16.8,2-33.6,4.8-50.4,8.39Z" style="fill: #fff"/>
    <path d="M140,688c1.87-.57,3.73-1.13,5.6-1.67v-7.16c-1.87.55-3.73,1.1-5.6,1.67Z" style="fill: #fff"/>
    <path d="M201.6,637.29a542.27,542.27,0,0,0-72.8,18.43v7.16a543.84,543.84,0,0,1,72.8-18.44Z" style="fill: #fff"/>
    <path d="M162.4,667.34q5.59-1.44,11.2-2.76v7.15q-8.4,2-16.8,4.24V661.66q-14,3.78-28,8.37V691.5c1.87-.62,3.73-1.22,5.6-1.81V675.38q8.4-2.65,16.8-5v14.31q14-3.93,28-7.06V656.14q-8.4,1.88-16.8,4.05Z" style="fill: #fff"/>
    <path d="M229.6,661.54l-5.6.76V633.68l-5.6.82v28.62c-1.87.28-3.73.57-5.6.87V635.37c-1.87.3-3.73.61-5.6.93v14.31q-11.2,1.92-22.4,4.3v21.47q8.4-1.8,16.8-3.32v-7.15q-5.59,1-11.2,2.15v-7.15q8.4-1.71,16.8-3.14v14.31q14-2.4,28-4.09V632.22c-1.87.22-3.73.46-5.6.7Z" style="fill: #fff"/>
    <path d="M341.6,285.73l-5.6-.19V256.92c-1.87-.06-3.73-.11-5.6-.15v28.62l-5.6-.1V256.67l-5.6-.07v14.31q-11.2-.09-22.4.17v21.47q8.4-.19,16.8-.2V285.2c-3.73,0-7.47,0-11.2.09v-7.16q8.4-.13,16.8-.06v14.31q14,.11,28,.73V257.33l-5.6-.22Z" style="fill: #fff"/>
    <path d="M313.6,256.58a652.82,652.82,0,0,0-72.8,3.92v7.15a655.23,655.23,0,0,1,72.8-3.92Z" style="fill: #fff"/>
    <path d="M252,295.13l5.6-.5v-7.15L252,288Z" style="fill: #fff"/>
    <path d="M274.4,279.14c3.73-.21,7.47-.39,11.2-.54v7.15q-8.4.35-16.8.89V272.33q-14,.93-28,2.48v21.47c1.87-.21,3.73-.41,5.6-.6V281.37q8.4-.87,16.8-1.49v14.31q14-1.05,28-1.48V271.24q-8.4.27-16.8.75Z" style="fill: #fff"/>
    <path d="M240.8,317.74c16.8-1.88,33.6-3,50.4-3.57V299.86c-16.8.54-33.6,1.69-50.4,3.57Z" style="fill: #fff"/>
    <path d="M296.8,314c16.8-.4,33.6-.18,50.4.56V300.27c-16.8-.74-33.6-1-50.4-.56Z" style="fill: #fff"/>
    <path d="M240.8,624.41q25.2-2.82,50.4-3.57V606.53q-25.2.79-50.4,3.57Z" style="fill: #fff"/>
    <path d="M296.8,620.68c16.8-.39,33.6-.17,50.4.56V606.93c-16.8-.73-33.6-.95-50.4-.56Z" style="fill: #fff"/>
    <path d="M252,666.2c1.87-.18,3.73-.34,5.6-.5v-7.16c-1.87.16-3.73.32-5.6.5Z" style="fill: #fff"/>
    <path d="M313.6,627.64a655.23,655.23,0,0,0-72.8,3.92v7.16a655.23,655.23,0,0,1,72.8-3.92Z" style="fill: #fff"/>
    <path d="M341.6,656.79c-1.87-.07-3.73-.13-5.6-.18V628c-1.87-.06-3.73-.11-5.6-.15v28.62l-5.6-.11V627.73c-1.87,0-3.73-.05-5.6-.06V642q-11.2-.09-22.4.17v21.47q8.4-.2,16.8-.2v-7.16c-3.73,0-7.47,0-11.2.09V649.2q8.4-.13,16.8-.07v14.31q14,.12,28,.74V628.4l-5.6-.23Z" style="fill: #fff"/>
    <path d="M274.4,650.21c3.73-.22,7.47-.4,11.2-.55v7.16q-8.4.33-16.8.89V643.4q-14,.92-28,2.47v21.47c1.87-.21,3.73-.41,5.6-.6V652.43q8.4-.85,16.8-1.48v14.31q14-1.05,28-1.49V642.3q-8.4.27-16.8.75Z" style="fill: #fff"/>
    <path d="M425.6,264.22c-24.27-3.09-48.53-5.39-72.8-6.62v7.15c24.27,1.24,48.53,3.54,72.8,6.62Z" style="fill: #fff"/>
    <path d="M364,294c1.87.12,3.73.24,5.6.38v-7.16l-5.6-.38Z" style="fill: #fff"/>
    <path d="M453.6,296.73l-5.6-.83V267.28l-5.6-.8V295.1c-1.87-.27-3.73-.53-5.6-.78V265.7l-5.6-.76v14.31q-11.2-1.47-22.4-2.73V298q8.4.93,16.8,2v-7.15q-5.6-.72-11.2-1.37v-7.15q8.4,1,16.8,2.09v14.31q14,1.84,28,4V269l-5.6-.85Z" style="fill: #fff"/>
    <path d="M386.4,281.43q5.6.49,11.2,1.06v7.15q-8.4-.84-16.8-1.54V273.79q-14-1.16-28-1.88v21.47c1.87.09,3.73.19,5.6.3V279.37q8.4.48,16.8,1.13v14.31q14,1.08,28,2.57V275.91q-8.4-.89-16.8-1.64Z" style="fill: #fff"/>
    <path d="M352.8,314.84q25.2,1.29,50.4,4V304.53q-25.2-2.67-50.4-4Z" style="fill: #fff"/>
    <path d="M408.8,319.45q25.2,2.82,50.4,6.76V311.9q-25.2-3.9-50.4-6.76Z" style="fill: #fff"/>
    <path d="M352.8,621.51c16.8.85,33.6,2.22,50.4,4V611.2c-16.8-1.78-33.6-3.15-50.4-4Z" style="fill: #fff"/>
    <path d="M408.8,626.12q25.2,2.82,50.4,6.75V618.56q-25.2-3.88-50.4-6.75Z" style="fill: #fff"/>
    <path d="M425.6,635.28c-24.27-3.08-48.53-5.38-72.8-6.61v7.15c24.27,1.24,48.53,3.54,72.8,6.62Z" style="fill: #fff"/>
    <path d="M364,665.09l5.6.37v-7.15c-1.87-.14-3.73-.26-5.6-.38Z" style="fill: #fff"/>
    <path d="M386.4,652.49q5.6.51,11.2,1.07v7.15q-8.4-.84-16.8-1.54V644.86q-14-1.17-28-1.88v21.46l5.6.31V650.44q8.4.48,16.8,1.13v14.31q14,1.07,28,2.56V647q-8.4-.9-16.8-1.64Z" style="fill: #fff"/>
    <path d="M453.6,667.8,448,667V638.35l-5.6-.81v28.62l-5.6-.78V636.76l-5.6-.75v14.31q-11.2-1.49-22.4-2.73v21.46q8.4.94,16.8,2V663.9q-5.6-.71-11.2-1.36v-7.16q8.4,1,16.8,2.1v14.31q14,1.85,28,4V640l-5.6-.85Z" style="fill: #fff"/>
    <path d="M476,307.44l5.6.94v-7.15l-5.6-1Z" style="fill: #fff"/>
    <path d="M537.6,283c-24.27-4.84-48.53-9.33-72.8-13.18V277c24.27,3.85,48.53,8.33,72.8,13.17Z" style="fill: #fff"/>
    <path d="M565.6,317.37,560,316.2V287.58l-5.6-1.15v28.62l-5.6-1.15V285.28l-5.6-1.14v14.31Q532,296.2,520.8,294V315.5q8.4,1.62,16.8,3.3v-7.16l-11.2-2.21v-7.15q8.4,1.64,16.8,3.33v14.31q14,2.82,28,5.78V289.92l-5.6-1.17Z" style="fill: #fff"/>
    <path d="M498.4,297q5.6,1,11.2,2.05v7.16q-8.4-1.58-16.8-3.06V288.86q-14-2.48-28-4.71v21.47l5.6.9V292.21q8.4,1.37,16.8,2.82v14.31q14,2.45,28,5.1V293q-8.4-1.59-16.8-3.11Z" style="fill: #fff"/>
    <path d="M464.8,327.08q25.2,4,50.4,8.82V321.59q-25.2-4.77-50.4-8.82Z" style="fill: #fff"/>
    <path d="M520.8,337q25.2,4.84,50.4,10.2V332.86q-25.2-5.31-50.4-10.2Z" style="fill: #fff"/>
    <path d="M464.8,633.75q25.2,4,50.4,8.82V628.26q-25.2-4.77-50.4-8.82Z" style="fill: #fff"/>
    <path d="M520.8,643.64q25.2,4.85,50.4,10.19V639.52q-25.2-5.29-50.4-10.19Z" style="fill: #fff"/>
    <path d="M537.6,654.09c-24.27-4.85-48.53-9.33-72.8-13.18v7.15c24.27,3.86,48.53,8.34,72.8,13.18Z" style="fill: #fff"/>
    <path d="M476,678.51l5.6.94v-7.16l-5.6-.94Z" style="fill: #fff"/>
    <path d="M565.6,688.43l-5.6-1.16V658.65l-5.6-1.16v28.62L548.8,685V656.34l-5.6-1.13v14.31q-11.21-2.26-22.4-4.42v21.47q8.4,1.62,16.8,3.29v-7.15q-5.6-1.12-11.2-2.21v-7.15q8.4,1.64,16.8,3.33V691q14,2.82,28,5.78V661l-5.6-1.18Z" style="fill: #fff"/>
    <path d="M498.4,668.09q5.6,1,11.2,2v7.15q-8.4-1.56-16.8-3V659.93q-14-2.49-28-4.71v21.46l5.6.9V663.27q8.4,1.38,16.8,2.83v14.31q14,2.43,28,5.09V664q-8.4-1.59-16.8-3.11Z" style="fill: #fff"/>
    <path d="M588,329.27l5.6,1.2v-7.15l-5.6-1.2Z" style="fill: #fff"/>
    <path d="M649.6,306.87c-24.27-5.27-48.53-10.62-72.8-15.76v7.15c24.27,5.14,48.53,10.49,72.8,15.76Z" style="fill: #fff"/>
    <path d="M677.6,341.53l-5.6-1.2V311.71l-5.6-1.21v28.63l-5.6-1.21V309.3l-5.6-1.22V322.4l-22.4-4.88V339l16.8,3.66v-7.16l-11.2-2.44V325.9l16.8,3.65v14.31q14,3,28,6V314.09l-5.6-1.19Z" style="fill: #fff"/>
    <path d="M610.4,319.8l11.2,2.44v7.15l-16.8-3.65V311.43q-14-3-28-6v21.46l5.6,1.19V313.76l16.8,3.61v14.31q14,3,28,6.09V316.3l-16.8-3.66Z" style="fill: #fff"/>
    <path d="M576.8,348.35q25.2,5.34,50.4,10.88V344.92Q602,339.43,576.8,334Z" style="fill: #fff"/>
    <path d="M632.8,360.45Q658,366,683.2,371.34V357q-25.2-5.34-50.4-10.89Z" style="fill: #fff"/>
    <path d="M576.8,655q25.2,5.34,50.4,10.88V651.59q-25.2-5.49-50.4-10.88Z" style="fill: #fff"/>
    <path d="M632.8,667.12q25.2,5.5,50.4,10.88V663.69q-25.2-5.34-50.4-10.88Z" style="fill: #fff"/>
    <path d="M649.6,677.94c-24.27-5.28-48.53-10.62-72.8-15.77v7.16c24.27,5.14,48.53,10.49,72.8,15.76Z" style="fill: #fff"/>
    <path d="M588,700.34l5.6,1.2v-7.16l-5.6-1.2Z" style="fill: #fff"/>
    <path d="M610.4,690.86l11.2,2.44v7.15l-16.8-3.65V682.49q-14-3-28-6V698l5.6,1.19V684.83q8.4,1.78,16.8,3.61v14.31q14,3,28,6.08V687.37q-8.4-1.85-16.8-3.66Z" style="fill: #fff"/>
    <path d="M677.6,712.59l-5.6-1.2V682.77l-5.6-1.2v28.62L660.8,709V680.36l-5.6-1.21v14.31l-22.4-4.87v21.46l16.8,3.66v-7.15l-11.2-2.44V697l16.8,3.65v14.31q14,3,28,6V685.16L677.6,684Z" style="fill: #fff"/>
    <path d="M761.6,329.65c-24.27-4.38-48.53-9.26-72.8-14.37v7.15c24.27,5.11,48.53,10,72.8,14.37Z" style="fill: #fff"/>
    <path d="M700,353.4l5.6,1.15V347.4l-5.6-1.16Z" style="fill: #fff"/>
    <path d="M722.4,343.65l11.2,2.21V353q-8.4-1.63-16.8-3.33V335.37q-14-2.82-28-5.78v21.46l5.6,1.18V337.92q8.4,1.75,16.8,3.47V355.7q14,2.85,28,5.55V339.78q-8.4-1.61-16.8-3.29Z" style="fill: #fff"/>
    <path d="M789.6,363.08l-5.6-.92V333.54l-5.6-1v28.63l-5.6-1V331.63l-5.6-1V345q-11.21-2-22.4-4.11v21.47q8.4,1.59,16.8,3.11v-7.16q-5.6-1-11.2-2.06v-7.15q8.4,1.56,16.8,3.06v14.31q14,2.47,28,4.71V335.36l-5.6-.9Z" style="fill: #fff"/>
    <path d="M688.8,372.52q25.2,5.31,50.4,10.19V368.4q-25.2-4.83-50.4-10.19Z" style="fill: #fff"/>
    <path d="M744.8,383.78q25.2,4.79,50.4,8.82V378.29q-25.2-4-50.4-8.82Z" style="fill: #fff"/>
    <path d="M688.8,679.19q25.2,5.31,50.4,10.19V675.07q-25.2-4.85-50.4-10.19Z" style="fill: #fff"/>
    <path d="M744.8,690.45q25.2,4.77,50.4,8.82V685q-25.2-4-50.4-8.82Z" style="fill: #fff"/>
    <path d="M700,724.46l5.6,1.16v-7.16L700,717.3Z" style="fill: #fff"/>
    <path d="M761.6,700.71c-24.27-4.37-48.53-9.26-72.8-14.37v7.16c24.27,5.11,48.53,10,72.8,14.37Z" style="fill: #fff"/>
    <path d="M722.4,714.71q5.6,1.13,11.2,2.21v7.15q-8.4-1.64-16.8-3.33V706.43q-14-2.82-28-5.78v21.47l5.6,1.18V709q8.4,1.75,16.8,3.47v14.31q14,2.85,28,5.55V710.85q-8.4-1.62-16.8-3.29Z" style="fill: #fff"/>
    <path d="M789.6,734.15l-5.6-.93V704.6l-5.6-.94v28.62l-5.6-1V702.7l-5.6-1V716q-11.21-2-22.4-4.11v21.46q8.4,1.59,16.8,3.11v-7.16q-5.6-1-11.2-2.05v-7.15q8.4,1.56,16.8,3v14.31q14,2.49,28,4.71V706.43l-5.6-.9Z" style="fill: #fff"/>
    <path d="M873.6,345.24c-24.27-2.16-48.53-5.25-72.8-9v7.15c24.27,3.75,48.53,6.85,72.8,9Z" style="fill: #fff"/>
    <path d="M812,373.7l5.6.8v-7.15l-5.6-.81Z" style="fill: #fff"/>
    <path d="M834.4,362.45q5.6.71,11.2,1.37V371q-8.4-1-16.8-2.09V354.57q-14-1.85-28-4V372l5.6.86V358.56q8.4,1.26,16.8,2.41v14.31q14,1.92,28,3.49V357.3q-8.4-.93-16.8-2Z" style="fill: #fff"/>
    <path d="M901.6,375.92l-5.6-.34V347l-5.6-.38V375.2l-5.6-.41V346.17c-1.87-.14-3.73-.29-5.6-.45V360q-11.21-.93-22.4-2.12v21.47q8.4.89,16.8,1.64v-7.16q-5.6-.5-11.2-1.06v-7.15q8.4.84,16.8,1.54V381.5q14,1.15,28,1.88V347.6c-1.87-.09-3.73-.19-5.6-.3Z" style="fill: #fff"/>
    <path d="M800.8,393.48q25.2,3.9,50.4,6.75V385.92q-25.2-2.81-50.4-6.75Z" style="fill: #fff"/>
    <path d="M856.8,400.84q25.2,2.69,50.4,4V390.53q-25.2-1.27-50.4-4Z" style="fill: #fff"/>
    <path d="M800.8,700.15c16.8,2.59,33.6,4.88,50.4,6.75V692.59c-16.8-1.87-33.6-4.16-50.4-6.75Z" style="fill: #fff"/>
    <path d="M856.8,707.51c16.8,1.78,33.6,3.15,50.4,4V697.2c-16.8-.85-33.6-2.22-50.4-4Z" style="fill: #fff"/>
    <path d="M812,744.76l5.6.81v-7.16l-5.6-.8Z" style="fill: #fff"/>
    <path d="M901.6,747c-1.87-.1-3.73-.22-5.6-.34V718l-5.6-.37v28.62c-1.87-.13-3.73-.27-5.6-.42V717.23l-5.6-.44V731.1Q868,730.17,856.8,729v21.46q8.4.9,16.8,1.64v-7.15q-5.6-.51-11.2-1.07v-7.15q8.4.85,16.8,1.54v14.31q14,1.17,28,1.88V718.67l-5.6-.31Z" style="fill: #fff"/>
    <path d="M873.6,716.31c-24.27-2.16-48.53-5.26-72.8-9v7.16c24.27,3.75,48.53,6.85,72.8,9Z" style="fill: #fff"/>
    <path d="M834.4,733.52q5.6.71,11.2,1.36V742q-8.4-1-16.8-2.1V725.63q-14-1.85-28-4v21.47l5.6.85V729.62q8.4,1.27,16.8,2.42v14.31q14,1.92,28,3.48V728.37q-8.4-.95-16.8-2Z" style="fill: #fff"/>
    <path d="M924,384.06l5.6.15v-7.16c-1.87,0-3.73-.09-5.6-.15Z" style="fill: #fff"/>
    <path d="M1013.6,373.92c-1.87.19-3.73.38-5.6.55V345.85c-1.87.17-3.73.34-5.6.49V375c-1.87.16-3.73.31-5.6.45V346.79c-1.87.14-3.73.27-5.6.39v14.31q-11.21.75-22.4,1.09v21.47q8.4-.27,16.8-.75v-7.15c-3.73.21-7.47.39-11.2.54v-7.15q8.4-.35,16.8-.89V383q14-.93,28-2.48V344.7c-1.87.21-3.73.41-5.6.6Z" style="fill: #fff"/>
    <path d="M985.6,347.53a724.5,724.5,0,0,1-72.8.34V355a718.62,718.62,0,0,0,72.8-.34Z" style="fill: #fff"/>
    <path d="M946.4,370.09c3.73,0,7.47,0,11.2-.09v7.16c-5.6.09-11.2.1-16.8.06V362.91q-14-.11-28-.73v21.46c1.87.09,3.73.16,5.6.23V369.56q8.4.31,16.8.44v14.31q14,.21,28-.11V362.74q-8.4.19-16.8.19Z" style="fill: #fff"/>
    <path d="M912.8,405.11c16.8.74,33.6,1,50.4.56V391.36c-16.8.4-33.6.18-50.4-.56Z" style="fill: #fff"/>
    <path d="M968.8,405.51q25.2-.79,50.4-3.56V387.64q-25.2,2.81-50.4,3.56Z" style="fill: #fff"/>
    <path d="M912.8,711.78q25.2,1.11,50.4.56V698q-25.2.59-50.4-.56Z" style="fill: #fff"/>
    <path d="M968.8,712.18q25.2-.79,50.4-3.57V694.3q-25.2,2.82-50.4,3.57Z" style="fill: #fff"/>
    <path d="M924,755.12c1.87.06,3.73.11,5.6.15v-7.16L924,748Z" style="fill: #fff"/>
    <path d="M985.6,718.59a718.62,718.62,0,0,1-72.8.34v7.16a718.62,718.62,0,0,0,72.8-.34Z" style="fill: #fff"/>
    <path d="M1013.6,745c-1.87.19-3.73.37-5.6.54V716.91c-1.87.18-3.73.34-5.6.5V746c-1.87.16-3.73.3-5.6.44V717.85l-5.6.4v14.31q-11.21.74-22.4,1.09v21.47q8.4-.27,16.8-.75v-7.16c-3.73.22-7.47.4-11.2.55V740.6q8.4-.33,16.8-.89V754q14-.93,28-2.48V715.77c-1.87.21-3.73.41-5.6.6Z" style="fill: #fff"/>
    <path d="M946.4,741.16c3.73,0,7.47,0,11.2-.09v7.15q-8.4.13-16.8.07V734q-14-.12-28-.74v21.47l5.6.23V740.63q8.4.3,16.8.44v14.31q14,.21,28-.11V733.8q-8.4.21-16.8.2Z" style="fill: #fff"/>
    <path d="M1036,378.36c1.87-.26,3.73-.53,5.6-.82v-7.15l-5.6.82Z" style="fill: #fff"/>
    <path d="M1097.6,330.39a561.05,561.05,0,0,1-72.8,13.66v7.16a562.78,562.78,0,0,0,72.8-13.67Z" style="fill: #fff"/>
    <path d="M1125.6,351c-1.87.59-3.73,1.17-5.6,1.73V324.09c-1.87.57-3.73,1.13-5.6,1.68v28.62c-1.87.54-3.73,1.08-5.6,1.6V327.37c-1.87.53-3.73,1-5.6,1.54v14.31q-11.21,3-22.4,5.53v21.47q8.4-1.89,16.8-4.05V359q-5.6,1.44-11.2,2.76v-7.15q8.4-2,16.8-4.24v14.31q14-3.76,28-8.37V320.55c-1.87.61-3.73,1.21-5.6,1.8Z" style="fill: #fff"/>
    <path d="M1058.4,360.45q5.6-1,11.2-2.15v7.15q-8.4,1.71-16.8,3.14V354.28q-14,2.39-28,4.08v21.47c1.87-.23,3.73-.46,5.6-.71V364.81q8.4-1.1,16.8-2.45v14.31q14-2.25,28-5.23V350q-8.4,1.78-16.8,3.31Z" style="fill: #fff"/>
    <path d="M1024.8,401.29q25.2-3,50.4-8.38V378.6Q1050,384,1024.8,387Z" style="fill: #fff"/>
    <path d="M1080.8,391.68q25.2-5.65,50.4-13.89V363.48q-25.2,8.28-50.4,13.89Z" style="fill: #fff"/>
    <path d="M1024.8,708c16.8-2,33.6-4.8,50.4-8.38V685.27c-16.8,3.58-33.6,6.34-50.4,8.38Z" style="fill: #fff"/>
    <path d="M1080.8,698.35q25.2-5.65,50.4-13.89V670.15q-25.2,8.28-50.4,13.89Z" style="fill: #fff"/>
    <path d="M1097.6,701.46a564.44,564.44,0,0,1-72.8,13.66v7.15a561.05,561.05,0,0,0,72.8-13.66Z" style="fill: #fff"/>
    <path d="M1036,749.43l5.6-.82v-7.16c-1.87.29-3.73.56-5.6.82Z" style="fill: #fff"/>
    <path d="M1058.4,731.51q5.6-1,11.2-2.15v7.16q-8.4,1.69-16.8,3.13V725.34q-14,2.4-28,4.09v21.46c1.87-.22,3.73-.46,5.6-.7V735.88q8.4-1.1,16.8-2.45v14.31q14-2.25,28-5.23V721q-8.4,1.8-16.8,3.32Z" style="fill: #fff"/>
    <path d="M1125.6,722c-1.87.59-3.73,1.17-5.6,1.74V695.16c-1.87.57-3.73,1.13-5.6,1.67v28.62c-1.87.55-3.73,1.08-5.6,1.61V698.44c-1.87.52-3.73,1-5.6,1.54v14.31q-11.21,3-22.4,5.52v21.47q8.4-1.87,16.8-4v-7.15q-5.6,1.44-11.2,2.76v-7.16q8.4-2,16.8-4.23v14.31q14-3.78,28-8.37V691.61c-1.87.62-3.73,1.22-5.6,1.81Z" style="fill: #fff"/>
    <path d="M1209.6,287.71a542.92,542.92,0,0,1-72.8,31v7.16a544.22,544.22,0,0,0,72.8-31Z" style="fill: #fff"/>
    <path d="M1148,350.49c1.87-.69,3.73-1.38,5.6-2.09v-7.15c-1.87.7-3.73,1.4-5.6,2.08Z" style="fill: #fff"/>
    <path d="M1170.4,327.4q5.6-2.34,11.2-4.82v7.15q-8.4,3.74-16.8,7.13V322.55q-14,5.67-28,10.43v21.47c1.87-.64,3.73-1.29,5.6-1.95V338.19q8.4-3,16.8-6.25v14.31q14-5.49,28-11.89V312.9q-8.4,3.84-16.8,7.35Z" style="fill: #fff"/>
    <path d="M1237.6,301c-1.87,1.09-3.73,2.17-5.6,3.24V275.57c-1.87,1.07-3.73,2.12-5.6,3.16v28.62c-1.87,1-3.73,2.07-5.6,3.08V281.8c-1.87,1-3.73,2-5.6,3v14.31Q1204,305,1192.8,310.3v21.46q8.4-4,16.8-8.27v-7.16q-5.6,2.88-11.2,5.6v-7.16q8.4-4.08,16.8-8.5v14.31q14-7.4,28-15.79V269c-1.87,1.13-3.73,2.23-5.6,3.33Z" style="fill: #fff"/>
    <path d="M1136.8,375.91a539.13,539.13,0,0,0,50.4-20.08V341.52a539.13,539.13,0,0,1-50.4,20.08Z" style="fill: #fff"/>
    <path d="M1192.8,353.23a569.53,569.53,0,0,0,50.4-27V312q-25.2,15.14-50.4,27Z" style="fill: #fff"/>
    <path d="M1136.8,682.58a539.13,539.13,0,0,0,50.4-20.08V648.19a539.13,539.13,0,0,1-50.4,20.08Z" style="fill: #fff"/>
    <path d="M1192.8,659.89a569.39,569.39,0,0,0,50.4-27V618.62q-25.2,15.12-50.4,27Z" style="fill: #fff"/>
    <path d="M1209.6,658.78a544.22,544.22,0,0,1-72.8,31v7.15a542.84,542.84,0,0,0,72.8-30.95Z" style="fill: #fff"/>
    <path d="M1148,721.56c1.87-.69,3.73-1.38,5.6-2.09v-7.16c-1.87.71-3.73,1.4-5.6,2.09Z" style="fill: #fff"/>
    <path d="M1170.4,698.47q5.6-2.34,11.2-4.83v7.16q-8.4,3.74-16.8,7.13V693.62q-14,5.65-28,10.43v21.47c1.87-.64,3.73-1.29,5.6-1.95V709.26q8.4-3,16.8-6.26v14.31q14-5.47,28-11.88V684q-8.4,3.84-16.8,7.35Z" style="fill: #fff"/>
    <path d="M1237.6,672c-1.87,1.1-3.73,2.18-5.6,3.24V646.64c-1.87,1.07-3.73,2.12-5.6,3.16v28.62c-1.87,1-3.73,2.06-5.6,3.07V652.87c-1.87,1-3.73,2-5.6,3v14.31q-11.21,5.9-22.4,11.18v21.47q8.4-4,16.8-8.27V687.4q-5.6,2.88-11.2,5.59v-7.15q8.4-4.08,16.8-8.51v14.31q14-7.38,28-15.78V640.08c-1.87,1.12-3.73,2.23-5.6,3.32Z" style="fill: #fff"/>
    <path d="M659.57,429.38c27.83,58.58,17,127.82-24.18,154.42-16.1,10.4-35.3,13.06-54.72,7.73,43.11,27.14,89.42,7.23,103.43-45C694.32,508.48,684.65,462.37,659.57,429.38Z" style="fill: #da0000"/>
    <path d="M668,429c39.73,46.63,47.72,120.27,17.85,164.83l-.15.23c32.88-17.38,44.12-69,25.12-114.8C701.46,456.81,686,438.7,668,429Z" style="fill: #da0000"/>
    <path d="M630,415.48,625.5,505,630,621l7-10.79q1.82-56.72,3.62-113.44V429.2A42.47,42.47,0,0,1,630,415.48Z" style="fill: #da0000"/>
    <path d="M638.35,409.06a17.47,17.47,0,0,1-8.35-9.37l-1.8,8.19,1.8,2.55c4.13,8.4,12.23,12,18.1,8,4.92-3.35,6.82-11.1,4.59-18.72C651.43,407.92,645,412.12,638.35,409.06Z" style="fill: #da0000"/>
    <path d="M624.61,581.45c-41.19-44.53-52-118.27-24.18-164.93-25.08,22.16-34.75,64.3-24.53,106.66,14,58,60.32,98.36,103.43,89.7C659.91,609.94,640.72,598.87,624.61,581.45Z" style="fill: #da0000"/>
    <path d="M549.23,444.83c-19,38.21-7.76,94.06,25.12,125.24l-.15-.29c-29.87-57-21.88-127.52,17.85-157.22C574,414.46,558.54,426.13,549.23,444.83Z" style="fill: #da0000"/>
    <path d="M619.38,424.56v67.6q1.8,57.51,3.62,115L630,621l4.5-114L630,415.48A22.48,22.48,0,0,1,619.38,424.56Z" style="fill: #da0000"/>
    <path d="M621.65,405.42c-6.66.15-13.08-6.84-14.34-15.62-2.23,6.65-.33,15.22,4.59,20.72,5.87,6.54,14,6.51,18.1-.09l1.8-1.77-1.8-9C628.21,403.25,625.16,405.34,621.65,405.42Z" style="fill: #da0000"/>
  </g>
</svg>
