<svg xmlns="http://www.w3.org/2000/svg" viewBox="0 0 1260 1012.04">
  <g>
    <path d="M0,90.08v920C420,738.76,840,1193.28,1260,922V2C840,273.28,420-181.24,0,90.08Z" style="fill: #02529c"/>
    <path d="M352.8,563.24V921c67.2,3.42,134.4,15,201.6,28.83V592.07C487.2,578.25,420,566.66,352.8,563.24Z" style="fill: #fff"/>
    <path d="M352.8,563.24c67.2,3.42,134.4,15,201.6,28.83V387.62C487.2,373.8,420,362.21,352.8,358.8Z" style="fill: #fff"/>
    <path d="M554.4,387.62V29.85C487.2,16,420,4.44,352.8,1V358.8C420,362.21,487.2,373.8,554.4,387.62Z" style="fill: #fff"/>
    <path d="M352.8,358.8c-117.6-6-235.2,13.09-352.8,89.05V652.3c117.6-76,235.2-95,352.8-89.06Z" style="fill: #fff"/>
    <path d="M554.4,592.07c235.2,48.37,470.4,124.06,705.6-27.88V359.75C1024.8,511.68,789.6,436,554.4,387.62Z" style="fill: #fff"/>
    <path d="M504,428.88V20c-33.6-6.16-67.2-11.4-100.8-15V413.91C436.8,417.48,470.4,422.71,504,428.88Z" style="fill: #dc1e35"/>
    <path d="M403.2,516.13c33.6,3.57,67.2,8.81,100.8,15V428.88c-33.6-6.17-67.2-11.4-100.8-15Z" style="fill: #dc1e35"/>
    <path d="M504,531.1c252,46.26,504,144.77,756-18V410.86c-252,162.79-504,64.27-756,18Z" style="fill: #dc1e35"/>
    <path d="M403.2,413.91C268.8,399.65,134.4,412.14,0,499V601.19c134.4-86.82,268.8-99.32,403.2-85.06Z" style="fill: #dc1e35"/>
    <path d="M403.2,516.13V925c33.6,3.57,67.2,8.81,100.8,15V531.1C470.4,524.94,436.8,519.7,403.2,516.13Z" style="fill: #dc1e35"/>
  </g>
</svg>
