<svg xmlns="http://www.w3.org/2000/svg" viewBox="0 0 1260 1012.04">
  <g>
    <path d="M0,90.08v920C420,738.76,840,1193.28,1260,922V2C840,273.28,420-181.24,0,90.08Z" style="fill: #fff"/>
    <path d="M0,90.08C420,125.43,840,886.62,1260,922M0,1010.08C420,432.09,840,580,1260,2"/>
    <path d="M1260,862.36C1077.21,847,894.42,694.11,711.63,523.43,894.42,427.18,1077.21,313.12,1260,61.57V2a571.43,571.43,0,0,1-81.64,44C995.58,259.22,812.79,352.82,630,446.42,447.21,273.09,264.42,99.75,81.63,46.09A571.88,571.88,0,0,0,0,90.08v59.6c182.79,15.39,365.58,168.25,548.37,338.93C365.58,584.86,182.79,698.93,0,950.47v59.61a571.88,571.88,0,0,1,81.63-44C264.42,752.82,447.21,659.22,630,565.63,812.79,739,995.58,912.29,1178.37,966A571.88,571.88,0,0,0,1260,922Z" style="fill: #df112d"/>
    <path d="M695.93,197.83c-36-38.33-114.41-44-131.65-28.3-16.2,76.53-7.32,176.53,65.83,247.16,73.13-38.72,82-135.81,65.82-218.86Z" style="fill: #e8112d"/>
    <path d="M696.18,197.5l-.15,0c-16-16.91-42.56-29.47-73-34.42-26-4.24-50.27-1.67-59,6.16l-.07.07,0,.11c-6.27,29.58-11.47,75.47-.59,126,10.35,48.08,32.74,88.94,66.56,121.62l.16.16.17-.09c33.82-17.88,56.21-49.23,66.56-93,10.87-46,5.68-94-.59-126.23Zm0,126.21c-10.29,43.52-32.53,74.7-66.11,92.52-33.57-32.51-55.81-73.15-66.1-120.94-10.83-50.29-5.67-96,.57-125.49,8.65-7.68,32.68-10.18,58.49-6,30.3,4.93,56.74,17.4,72.59,34.18C701.89,230.12,707,277.93,696.21,323.71Z"/>
    <path d="M703.34,143.69c-3.15-11.52-15.51-13.47-19.32-8.36,13.8,14.26,3.15,32.19-9.33,25.36-5.86-3.2-9-8.85-10.06-16.31,3.74.52,6.58-2.8,6.34-7.4s-3.46-8.75-7.2-9.27-6.58,2.79-6.34,7.4a10.75,10.75,0,0,0,4.3,8.1c-3.94,7-11,7.8-16.09,5-6.57-3.67-9.33-11.47-9.33-17.87,0-16.63,13.14-16.33,17.09-12.59-.26-11.25-14.72-23.35-19.19-15,5-9.79,4.73-25.2-4.21-37.39-8.93,8.29-9.19,23.59-4.2,35.55-4.47-10.25-18.93-4.44-19.19,6.7,3.94-2,17.09,3.4,17.09,20,0,6.4-2.76,13-9.33,13.8-5.07.63-12.15-3.26-16.1-12,3.49-.9,5.22-5.31,3.86-9.86s-5.3-7.49-8.79-6.59-5.22,5.33-3.86,9.87a9.48,9.48,0,0,0,5.9,6.51c-1.1,7-4.21,11.29-10.07,12-12.48,1.49-23.13-20.89-9.33-29.34-3.81-6.73-16.16-9.95-19.32.28-.13-8.5-5.78-17.85-18.4-20,12.09,23.2,22.34,52.85,25.23,81,14.72-8.15,39.7-11.41,66.51-5.55h0c26.81,5.87,51.79,19.88,66.51,34.13a164.49,164.49,0,0,1,25.23-70.66C709.12,128.26,703.47,135.23,703.34,143.69Z" style="fill: #f9dd16"/>
    <path d="M707,133.44a13.61,13.61,0,0,0-3.84,8.55,15,15,0,0,0-8.22-8.76c-4.35-1.77-9-1-11.12,1.8l-.22.29.29.29c6.9,7.14,7.27,14.78,5.31,19.56-2.17,5.28-7.8,8.76-14.37,5.16-5.38-2.93-8.57-8-9.77-15.52,3.73.29,6.52-3.12,6.28-7.79s-3.61-9.16-7.54-9.7a5.3,5.3,0,0,0-4.88,1.86,8.26,8.26,0,0,0-1.76,5.88,11.38,11.38,0,0,0,4.15,8.23c-3.89,6.5-10.7,7.23-15.53,4.53-6.71-3.75-9.1-11.74-9.1-17.44a28,28,0,0,1,.21-3.45l4.67,10.7-4.62-11c.86-5.86,3.71-8.46,6.16-9.61,3.74-1.77,8.2-.83,10.18,1l.5.47c0-.24,0-.48,0-.71-.16-7.14-5.67-14.27-10.89-17-2.91-1.54-5.43-1.62-7.24-.3C639.17,91.14,639,77,630.22,65l-.22-.3-.22.21C621,73.06,620.84,87.14,624.42,98a8.17,8.17,0,0,0-7.23-2.85,12.53,12.53,0,0,0-10.9,12.3c0,.24,0,.48,0,.71l.5-.26c2-1,6.44,0,10.18,3.38a19.76,19.76,0,0,1,6.16,12.32l-4.37,8.56,4.42-8.21a30.36,30.36,0,0,1,.21,3.54c0,5.7-2.39,12.65-9.1,13.48-4.82.59-11.64-3.1-15.54-11.28,3.41-1.14,5.06-5.62,3.69-10.21-1.43-4.75-5.56-7.85-9.21-6.91s-5.46,5.59-4,10.34A10.11,10.11,0,0,0,595,129.6c-1.19,7-4.39,10.69-9.76,11.33-6.57.79-12.2-5.06-14.37-11.26-2-5.6-1.6-13.1,5.3-17.32l.29-.17-.22-.38a13.65,13.65,0,0,0-11.11-6.47,8.55,8.55,0,0,0-8.23,5.34,20.89,20.89,0,0,0-3.84-10.14c-3.34-4.58-8.45-7.61-14.8-8.71l-.6-.1.35.67c13.36,25.65,22.54,55.15,25.18,80.78l.06.62.42-.24c16-8.86,41.42-11,66.34-5.52h0c24.88,5.45,50.3,18.51,66.34,34l.42.41c0-.2,0-.4.07-.6A164.16,164.16,0,0,1,722,131.39c.12-.18.24-.35.35-.53l-.6-.14C715.42,129.29,710.28,130.23,707,133.44Zm-64.28-32c4.72,2.5,9.89,9.05,10.37,15.52a10.51,10.51,0,0,0-10.31-.76c-3.27,1.54-5.44,4.75-6.31,9.23q-3.07-7.35-6.14-14.71l4.21-7.82C636,100.06,639,99.52,642.67,101.46ZM630,65.82c9.08,12.63,8.42,27.79,3.93,36.59L630,110.1l-3.93-9.4C621.59,89.94,620.93,74.5,630,65.82Zm-12.73,44.85a15.35,15.35,0,0,0-6.85-3.73,6.87,6.87,0,0,0-3.45,0,12.08,12.08,0,0,1,10.38-11,7.8,7.8,0,0,1,8.18,5q2.1,4.83,4.21,9.66l-6.15,12A20.75,20.75,0,0,0,617.27,110.67Zm79,90.39c-16.15-15.43-41.47-28.39-66.25-33.81h0c-24.78-5.41-50.1-3.39-66.25,5.34C561,147.2,552,118.13,538.87,92.72l.1,0A21.62,21.62,0,0,1,552.6,101a19.67,19.67,0,0,1,3.74,11.2l0,2.16c.2-.64.4-1.27.59-1.91,1.72-5.57,5.92-6.36,8.27-6.34a12.92,12.92,0,0,1,10.28,5.69c-7,4.46-7.28,12.23-5.24,18.07,2.28,6.51,8.21,12.67,15.13,11.84,5.73-.68,9.1-4.68,10.29-12.25,0-.14,0-.28.07-.41l-.36-.11a9,9,0,0,1-5.62-6.2c-1.29-4.32.36-8.53,3.68-9.4s7.07,2,8.37,6.28a9.29,9.29,0,0,1-.11,6,5.28,5.28,0,0,1-3.57,3.39l-.36.09.21.45c4,8.84,11.32,12.83,16.45,12.2,7.06-.87,9.57-8.15,9.57-14.13a28.64,28.64,0,0,0-.36-4.59q3.17-5.9,6.35-11.79,3.16,7.27,6.34,14.56a25.64,25.64,0,0,0-.36,4.43c0,6,2.51,14.36,9.57,18.3,5.13,2.87,12.43,2,16.45-5.07l.2-.36-.36-.24a10.26,10.26,0,0,1-4.1-7.72,7.55,7.55,0,0,1,1.6-5.35,4.81,4.81,0,0,1,4.44-1.69c3.58.49,6.63,4.45,6.86,8.83s-2.49,7.54-6,7l-.36,0,.06.45c1.19,8.08,4.56,13.53,10.3,16.67,6.92,3.79,12.84.13,15.12-5.43,2-5,1.71-12.88-5.24-20.27,2.06-2.41,6.32-3,10.29-1.37a14.12,14.12,0,0,1,8.26,9.78c.2.72.39,1.44.59,2.16l0-2.16a13.51,13.51,0,0,1,3.73-9.66c3.09-3,7.79-3.92,13.64-2.75l.1,0A165.13,165.13,0,0,0,696.25,201.06Z"/>
    <path d="M690.37,258.31a5.4,5.4,0,0,0,.3-.47A1.22,1.22,0,0,0,690.37,258.31Z" style="fill: #f9dd16"/>
    <path d="M697,258c-2.16-2.51-.62-6.88-4.09-10,1.16.15,3.39,2.21,4,4.22-.54-4.34-1.08-7.17-3.94-10.12.31.49,1.93,1.21,2.63.55a7.43,7.43,0,0,1-2.24-5.72c.22-2.06-.92-2.73-3.08-2.52a41.28,41.28,0,0,1-9-1c-5.4-1.15-10.11-2.16-14.58-6.87,6.71,4.82,15.27-.49,15.27-6.41,0-6.57-6.64-13.31-20-12.64s-29.77-4.41-29.77-9.85,11.72-3.64,17.74-1.2,10.33,4.12,21.59,1.66c-2.77.72-11.72-.84-18.81-4.82s-24.53-7.78-24.68,3.64,18.55,14.47,34.7,15.05c9.41.34,14.34,2.52,14.34,6.27,0,3.57-8.63,3.22-15.27.85a43.15,43.15,0,0,0-21.28-2.55c-6.57.92-11.1-2.42-18.35-2.5-3.52,0-12-2.62-16.24-12-2.58,1.69-10.37,4.72-11.68,9-1.85,3.82-.62,8.29,1.85,12.95,3.1,5.87-1.54,4.08-4.86,3.55-4.54-.72-10.63-2.86-13.81-7.92-2.81-4.48-6.55-8.39-9.54-6.13-1.54,1.16-.07,3.42,1.15,3.13s2.63,1.1,3.92,2.06c-2.06-1.51-4.32-1.15-5.2-.38-1.22,1.07.26,3.92,1.73,3.33a4.5,4.5,0,0,1,5.07,1.61c-1.67-.74-3.41-1-4.24-.11s-.19,2.63,1.61,2.92c2.88.45,3.62,3.06,6.51,3.17a3.41,3.41,0,0,0-3.24,1.57c2.7-.93,5.68,3.75,9.18,3.54-1.37.39-3.57,1.56-3.55,2.81,2.08-2.47,16,5.69,16.35-.62a5.82,5.82,0,0,1-.77,4.81c1.78-.93,7.56-.15,9.33-4.84.15,1.54-.08,3.46-1.16,3.69,1.85,1.14,4.29,0,6.79-4a5.66,5.66,0,0,0,1-4.08,6.3,6.3,0,0,0,6.2-1.28c2-1.63,4.16,2.59,7.55.7s6.33,1,8.18.1,4.39,1.43,6.4.36,5.12,1.85,8.44-.62c5.22,3.46,11.31,9.11,26.27,9,8.56-.09,11.25,4,11.25,8.77,0,3.29-1.58,3.24-2.77,3.07-4.77-.65-6.82-3.62-8.7-3.21-1.26.28-2,2.61-.2,3.86a2,2,0,0,0-.55,3.22c.77.81,2.76.65,4.11.18-1.74.58-3.53,1.92-2.51,3.93.62,1.22,2.19,2.48,3.66.47s4.17-3.41,5.88-2.74h0c-1.62.13-1.62,2.66-2.46,2.48,3.89.7,5.92-.11,7.21-2.07a1.22,1.22,0,0,1,.3-.47,5.4,5.4,0,0,1-.3.47c-.39,1,.14,2.57-.12,2.91,3.08-.66,4.55-3.55,3.47-5.93A7.21,7.21,0,0,0,697,258Z" style="fill: #f9dd16"/>
    <path d="M695.92,253.86a11.82,11.82,0,0,0-1.58-4.84,7.22,7.22,0,0,1,2.32,3.18l1.05,3.43c-.14-1.17-.29-2.34-.43-3.51-.45-3.62-.93-6.36-2.85-9a1.58,1.58,0,0,0,1.44-.28l.3-.28-.35-.34a7,7,0,0,1-2.09-5.31,2.94,2.94,0,0,0-.47-2.19c-.55-.72-1.52-1-3-.85a41.2,41.2,0,0,1-8.94-1c-4.54-1-8.56-1.83-12.34-4.86a10.25,10.25,0,0,0,8.86-.85,8.64,8.64,0,0,0,4.49-7.11,11,11,0,0,0-2.7-7.13c-3.57-4.26-9.87-6.37-17.74-6-11.25.56-24.84-3-28.51-7.37a3.17,3.17,0,0,1-.87-2,2.47,2.47,0,0,1,.94-2c2.9-2.39,11.55-.86,16.43,1.11,5.94,2.4,10.24,4.15,21.46,1.74l.3-.06Q682,195.74,692.35,193q-10.47,2.34-21,4.63l-.3.07c-3,.54-11.51-1-18.32-4.84-5.71-3.2-16.87-5.86-22.09-2.27a7.15,7.15,0,0,0-3,6.18,9.64,9.64,0,0,0,2.07,6.17c4.32,5.54,15.42,8.71,33,9.36,8.77.31,12,2.17,13.23,3.68a3.32,3.32,0,0,1,.74,2.12,1.58,1.58,0,0,1-.59,1.22c-1.95,1.7-8.51,1.4-14.32-.68-7.74-2.76-14.34-3.56-21.41-2.57-3.54.5-6.5-.26-9.63-1.08a34.47,34.47,0,0,0-8.69-1.42c-3,0-11.63-2.21-15.9-11.72l-.18-.4-.29.18c-.58.38-1.45.84-2.45,1.37-3.51,1.85-8.3,4.39-9.33,7.79-1.69,3.5-1.1,7.74,1.88,13.36.81,1.54,1.12,2.62.88,3.14-.39.86-2.32.47-4,.12l-1.45-.27c-2.9-.46-10-2.13-13.55-7.73-2.2-3.51-6.42-9-10-6.28a2.21,2.21,0,0,0,1.46,3.87,1.85,1.85,0,0,1,1.27.26,3.89,3.89,0,0,0-2.88.69,2.32,2.32,0,0,0-.21,2.75c.44.89,1.36,1.68,2.3,1.3a4.16,4.16,0,0,1,3.37.3,2.86,2.86,0,0,0-2.91.51,1.87,1.87,0,0,0-.32,1.92,2.66,2.66,0,0,0,2.17,1.7,6.09,6.09,0,0,1,3,1.55,9.53,9.53,0,0,0,1.64,1.13,3.55,3.55,0,0,0-1.63,1.39l-.63,1,1-.35c1.25-.43,2.58.47,4.12,1.51a13.37,13.37,0,0,0,3.38,1.84c-1.11.56-2.34,1.45-2.32,2.56,0,.34,0,.68,0,1l.54-.65c.75-.88,3.66-.1,6.48.65,3.86,1,8.15,2.2,9.51,0a4.93,4.93,0,0,1-.91,2.88l-1.06,1.44,1.48-.77a8.15,8.15,0,0,1,2.17-.51c2.19-.35,5.1-.81,6.69-3.28-.08,1-.38,1.76-1,1.88l-.88.2.89.54c2.11,1.3,4.72-.17,7.15-4a6.15,6.15,0,0,0,1.15-3.88l.12,0a6.37,6.37,0,0,0,5.92-1.44c.8-.65,1.64-.22,2.7.33,1.28.66,2.88,1.49,4.83.4s3.63-.54,5.16-.1c1.15.33,2.15.62,3,.2a4,4,0,0,1,2.85.22c1.2.36,2.43.74,3.56.14a4.14,4.14,0,0,1,2.77.07c1.59.35,3.55.8,5.55-.6.55.36,1.11.76,1.7,1.16,5,3.51,11.27,7.88,24.57,7.75,4.41-.05,7.52,1,9.26,3.14a7.89,7.89,0,0,1,1.62,5.16c0,2.85-1.22,2.92-2.47,2.75a14.4,14.4,0,0,1-5.65-2.16c-1.22-.7-2.18-1.26-3.14-1a2.23,2.23,0,0,0-1.5,2.21,2.77,2.77,0,0,0,.77,1.94,2,2,0,0,0-.81,1.58,2.79,2.79,0,0,0,.72,2,2.86,2.86,0,0,0,2.07.67,2.81,2.81,0,0,0-.84,1.38c0,.07,0,.15,0,.22q-7.83-1.41-15.67-2.85l15.66,3.37a3,3,0,0,0,.35,1.2,3.25,3.25,0,0,0,1.89,1.7h0a2.14,2.14,0,0,0,2.24-1.12,5.53,5.53,0,0,1,.58-.7l2.58.54h0c3.15.56,5.25.18,6.7-1.26,0,.24,0,.46.06.67a4.49,4.49,0,0,1,0,.74c-.24.3-.47.61-.7.91l1.05-.22a5,5,0,0,0,3.84-3.32,4.45,4.45,0,0,0,.19-1.66,8.62,8.62,0,0,0,2.62,1.69l1.15.42-.91-1.06A7.51,7.51,0,0,1,695.92,253.86Zm-16.43,6.49c-.54.73-1.13,1-1.73.92h0a2.4,2.4,0,0,1-1.38-1.27,2.18,2.18,0,0,1-.24-.72l3.61.76A3.55,3.55,0,0,0,679.49,260.35Zm3.68-.36h0l-1.95-.35a6.28,6.28,0,0,1,3.15-1.49,5.47,5.47,0,0,0-.65,1.1C683.52,259.64,683.34,260,683.17,260ZM694,255.12q-3.11-6.1-6.2-12.22,2.82,6.27,5.66,12.53a3.48,3.48,0,0,1,.14,2.48,4.37,4.37,0,0,1-3,2.79c0-.14,0-.3,0-.47a4.18,4.18,0,0,1,0-1.58c.11-.17.22-.36.33-.55l1.14-2.08-1.63,1.49a1.52,1.52,0,0,0-.43.66c-1.21,1.74-3,2.34-6,2,.07-.12.14-.26.2-.39.31-.65.66-1.38,1.43-1.44l1.61-.13-1.64-.65c-1.63-.62-3.91.42-5.43,2l-4.09-.73a3.55,3.55,0,0,1,2.5-2.09l.07,0-.27-.77h0l-.07,0c-1.33.45-3.11.54-3.72-.1a1.78,1.78,0,0,1-.44-1.27,1.44,1.44,0,0,1,.95-1.29l.64-.26-.67-.46a1.83,1.83,0,0,1-.88-1.55,1.62,1.62,0,0,1,1.08-1.58c.76-.16,1.59.32,2.73,1a15,15,0,0,0,5.88,2.24c1,.14,3.08.42,3.07-3.4a8.93,8.93,0,0,0-1.84-5.82c-1.9-2.32-5.19-3.46-9.79-3.42-13.12.13-19.28-4.17-24.23-7.62-.64-.45-1.26-.89-1.87-1.29l-.17-.11-.14.1c-1.88,1.4-3.7,1-5.3.63a4.61,4.61,0,0,0-3.11,0c-.94.51-2,.18-3.17-.17a4.45,4.45,0,0,0-3.23-.19,4,4,0,0,1-2.63-.23c-1.55-.46-3.48-1-5.55.14-1.71.95-3,.26-4.33-.4-1.14-.59-2.21-1.14-3.26-.29a6.06,6.06,0,0,1-6,1.24l-.38-.1.05.48a5.19,5.19,0,0,1-1,3.82c-2,3.13-4,4.66-5.7,4.2a5.28,5.28,0,0,0,.66-3.63L605.9,235l-.47,1.24c-1.22,3.23-4.5,3.74-6.89,4.12-.48.08-.93.15-1.32.23a6.58,6.58,0,0,0,.25-4.18c-.18-.64-.35-1.28-.53-1.92l-.09,1.9c-.17,3.36-5,2.05-9.29.9-2.43-.66-4.61-1.24-5.95-1a7.09,7.09,0,0,1,2.88-1.6l3.47-1-3.66.22c-1.63.09-3.16-.94-4.63-1.94a8.46,8.46,0,0,0-3.51-1.72,3.33,3.33,0,0,1,2.23-.67h.09l-.09-.8h-.08a5.2,5.2,0,0,1-3.12-1.47,6.71,6.71,0,0,0-3.29-1.7,1.89,1.89,0,0,1-1.56-1.12,1,1,0,0,1,.21-1.08c.64-.71,2.11-.65,3.93.17l1.12.49-.84-1.11a4.75,4.75,0,0,0-5.42-1.75c-.61.24-1.19-.26-1.49-.87a1.47,1.47,0,0,1,.11-1.74c.83-.73,3-1,4.86.37l.26-.66-.68-.53c-1.16-.92-2.36-1.86-3.48-1.59-.51.12-1-.36-1.27-.87a1.21,1.21,0,0,1,.42-1.52c3.16-2.38,7.07,2.73,9.11,6,3.71,5.9,11.08,7.64,14.07,8.11.46.07.94.17,1.43.27,2.08.41,4,.81,4.61-.44.36-.8.06-2.06-.94-3.95-2.81-5.32-3.39-9.3-1.81-12.59,1-3.19,5.84-5.77,9.07-7.48.87-.46,1.64-.86,2.22-1.22,4.52,9.6,13.32,11.81,16.38,11.84a34.64,34.64,0,0,1,8.56,1.41c3.18.82,6.19,1.6,9.83,1.09,7-1,13.51-.19,21.16,2.54,5.28,1.89,12.46,2.65,14.82.6a2.26,2.26,0,0,0,.8-1.76,4.35,4.35,0,0,0-1-2.76c-1.89-2.38-6.51-3.71-13.74-4-17.4-.63-28.33-3.7-32.49-9.06a8.41,8.41,0,0,1-1.85-5.51,6.51,6.51,0,0,1,2.73-5.63c5.07-3.48,15.95-.86,21.54,2.27a43,43,0,0,0,14.63,4.84c-8.28,1.22-12.16-.35-17.27-2.42s-13.87-3.59-17-1.05a3.17,3.17,0,0,0-1.16,2.56,4.18,4.18,0,0,0,1.1,2.67c3.81,4.56,17.65,8.21,29.06,7.64,10.36-.51,15.22,3.35,17.19,5.71a10,10,0,0,1,2.47,6.48,8,8,0,0,1-4.21,6.51,9.54,9.54,0,0,1-10.62-.38l-2.8-2,2.5,2.63c4.55,4.8,9.28,5.82,14.76,7a41.8,41.8,0,0,0,9.09,1c1.24-.12,2.06.07,2.44.56a2,2,0,0,1,.26,1.45,7.79,7.79,0,0,0,1.95,5.69,2,2,0,0,1-.75-.05,3,3,0,0,1-.9-.42l-.2-.21-2.09-2.16,1.67,2.65a1.24,1.24,0,0,0,.29.32c2.17,2.34,2.86,4.65,3.33,7.78-1-1.47-2.52-2.68-3.47-2.8l-1.06-.14.92.84c1.84,1.67,2.17,3.71,2.5,5.68a12,12,0,0,0,.83,3.2A5.71,5.71,0,0,1,694,255.12Z"/>
    <path d="M585.87,188.85a19,19,0,0,0,2.51,6.12c0-1.78.58-6.59,2.27-7.16h0C586.33,184.72,584.88,184.35,585.87,188.85Z" style="fill: #f9dd16"/>
    <path d="M585.68,185.3c-.53.46-.56,1.57-.12,3.59a19.55,19.55,0,0,0,2.6,6.32l.52.69c0-.28,0-.57,0-.85,0-1.94.63-6.37,2.09-6.86l.67-.23-.68-.49C588.07,185.54,586.46,184.62,585.68,185.3Zm2.43,8.67a21.33,21.33,0,0,1-1.93-5.16c-.36-1.61-.38-2.56-.07-2.83a.64.64,0,0,1,.58-.07,12,12,0,0,1,3.29,1.84C588.67,188.91,588.24,192.32,588.11,194Z"/>
    <path d="M604.15,190.72h0c1.7,1.31,2.24,6.35,2.27,8.14a11.78,11.78,0,0,0,2.51-5C609.93,189.75,608.47,189.5,604.15,190.72Z" style="fill: #f9dd16"/>
    <path d="M604,190.33l-.69.19.68.52c1.46,1.13,2,5.8,2.08,7.76,0,.29,0,.58,0,.87l.52-.48a12,12,0,0,0,2.6-5.2c.45-1.82.41-2.94-.12-3.63C608.34,189.34,606.73,189.56,604,190.33Zm4.59,3.32A13.42,13.42,0,0,1,606.7,198c-.15-2-.65-5.38-1.88-7,1.71-.45,3.38-.75,3.88-.1C609,191.25,609,192.19,608.62,193.65Z"/>
    <path d="M597.42,186.38c-8.17-1.76-9.19,2.69-9.16,8.52,0,6.29,2.82,4.73,4.39,13.14.62,3.29,2.69,3.91,4.77,4.36s4.15.72,4.76-2.31c1.58-7.72,4.36-5,4.39-11.24C606.62,193,605.59,188.14,597.42,186.38Z" style="fill: #f9dd16"/>
    <polygon points="597.42 186.38 597.42 186.38 597.42 186.38 597.42 186.38" style="fill: #f9dd16"/>
    <path d="M597.43,186h0c-3.58-.78-6.06-.41-7.55,1.1-1.73,1.75-2,4.75-1.93,7.74a9.76,9.76,0,0,0,1.74,6.11,17.69,17.69,0,0,1,2.66,7.12c.72,3.79,3.34,4.35,5.08,4.73s4.37.94,5.07-2.54c.76-3.71,1.78-4.91,2.67-6s1.72-2,1.74-5.37c0-3-.2-6.08-1.93-8.57C603.48,188.19,601,186.76,597.43,186Zm7.24,17.68c-.89,1.06-2,2.37-2.8,6.27-.55,2.69-2.26,2.54-4.45,2.07s-3.9-1.07-4.45-4a18.83,18.83,0,0,0-2.8-7.48,8.67,8.67,0,0,1-1.58-5.58c0-2.82.18-5.64,1.73-7.22,1.37-1.39,3.7-1.7,7.1-1s5.73,2.06,7.1,4c1.56,2.25,1.75,5.16,1.73,8C606.24,201.82,605.58,202.59,604.67,203.67Z"/>
    <path d="M571.49,193.49c-.26-.42-.52-.78-.78-1.13A8.55,8.55,0,0,0,571.49,193.49Z" style="fill: #f9dd16"/>
    <polygon points="576.35 204.93 576.34 204.93 576.35 204.93 576.35 204.93" style="fill: #f9dd16"/>
    <path d="M594.86,212.36c-8.33-2.22-9-8-13.81-13.47-3.9-4.46-4.25-8.22-6-15.5-.79-3.3-3.8-5.88-5.47-5.49-1.46.34-2,1.77-.74,3.18s2.86,1.91,3.2,4.9c-1.63-2.72-4.06-4.09-5.23-2.85a2.36,2.36,0,0,0,1.1,3.43c2.23.75,1.06,2.88,2.77,5.8.26.35.52.71.78,1.13a8.55,8.55,0,0,1-.78-1.13c-2.19-3-4.06-3.45-5.27-2-.8,1,0,3.12,1.74,3.27,2.5.22,5.41,8.56,9.16,11.33h0a3.87,3.87,0,0,0-4.26-1.08c2.69,1.41,2.8,5.65,9,8.93-1.39-.76-2.16,0-3.47-1.11,2.55,3,5.4,6.41,11.42,7.78,3.35.77,1,2.38-1.16.69,2.28,3.35,6.79,2,9.64,7.8C598,224,592.16,216.38,594.86,212.36Z" style="fill: #f9dd16"/>
    <path d="M595.12,212.64l.34-.51-.59-.16c-5.67-1.51-7.69-4.68-10-8.35a40.19,40.19,0,0,0-3.59-5c-3.25-3.71-4-6.93-5.18-12.28-.21-.93-.43-1.93-.69-3a9.06,9.06,0,0,0-3-4.77,3.65,3.65,0,0,0-2.89-1.06,2,2,0,0,0-1.63,1.66,2.83,2.83,0,0,0,.81,2.18,11.8,11.8,0,0,0,1,1,5.37,5.37,0,0,1,1.7,2.14,6.09,6.09,0,0,0-2.93-2.13,1.85,1.85,0,0,0-1.87.46,2.45,2.45,0,0,0-.34,2.28,2.65,2.65,0,0,0,1.64,1.86c1,.34,1.15,1,1.38,2.16.08.43.17.92.32,1.45a4.87,4.87,0,0,0-2.21-1.35h0a2.19,2.19,0,0,0-2.19.81,2.22,2.22,0,0,0-.2,2.22,2.73,2.73,0,0,0,2.21,1.76c1.14.08,2.52,2.37,4,4.77a41.13,41.13,0,0,0,3,4.53,4.18,4.18,0,0,0-1.84.07,2.37,2.37,0,0,1-.42.08l-1.17.15,1.18.61a7.16,7.16,0,0,1,2.38,2.65,16.77,16.77,0,0,0,4.63,5.08,2.28,2.28,0,0,1-1.28-.59l-3.13-2.67,2.9,3.39c2.23,2.62,4.72,5.53,9.33,7.15l.78,1.15a8,8,0,0,0,3.92,2.74c2,.86,4.1,1.76,5.68,5l.45.93c.05-.32.09-.64.13-1,.24-1.72-.63-4-1.56-6.43C595,218.3,593.64,214.85,595.12,212.64Zm-7.64,6.8c.48.15,1,.28,1.51.4a3.57,3.57,0,0,1,1.33.52,2.33,2.33,0,0,1-2.35-.54Zm4.16,2.92a12.88,12.88,0,0,1-2.23-1.11,1.66,1.66,0,0,0,1.38-.26.69.69,0,0,0,.18-.74c-.16-.53-.8-.92-2-1.19a18,18,0,0,1-10.1-6.35l.6.06a3.23,3.23,0,0,1,1.4.33l.07,0c.06-.24.11-.48.17-.72l-.08,0a15.72,15.72,0,0,1-6.21-5.95,11.64,11.64,0,0,0-1.84-2.36,3.1,3.1,0,0,1,2.54.64,8.1,8.1,0,0,0,.67.55l4.56,3.35-4.27-4a7.64,7.64,0,0,0-.67-.56,28.56,28.56,0,0,1-4.14-5.7c-1.66-2.7-3.07-5-4.56-5.16a1.88,1.88,0,0,1-1.56-1.21,1.34,1.34,0,0,1,.1-1.36,1.71,1.71,0,0,1,1.71-.65,6,6,0,0,1,3,2.48,9,9,0,0,0,.87,1.27c1.12,1.39,2.25,2.77,3.37,4.15l-2.92-4.61c-.28-.45-.57-.86-.85-1.24a9.07,9.07,0,0,1-1-3c-.22-1.22-.43-2.38-1.93-2.88a1.74,1.74,0,0,1-1.11-1.23,1.68,1.68,0,0,1,.2-1.5,1.37,1.37,0,0,1,1.39-.32,6.4,6.4,0,0,1,3.36,3.05c.24.4.49.8.73,1.21-.06-.47-.11-.94-.16-1.4a5.85,5.85,0,0,0-2.37-4.27,10.1,10.1,0,0,1-.95-.91,1.86,1.86,0,0,1-.57-1.39,1.45,1.45,0,0,1,1.22-1.13,3.12,3.12,0,0,1,2.39.92,8.09,8.09,0,0,1,2.66,4.23c.25,1.06.47,2.06.68,3,1.24,5.51,2,8.84,5.41,12.74a39.18,39.18,0,0,1,3.5,4.89c2.26,3.54,4.4,6.9,9.94,8.54-1.22,2.53.15,6.1,1.36,9.28a22.57,22.57,0,0,1,1.49,4.83A10.49,10.49,0,0,0,591.64,222.36Z"/>
    <path d="M648.81,249.83l.34-.23A1.56,1.56,0,0,0,648.81,249.83Z" style="fill: #f9dd16"/>
    <path d="M635.34,243.21l-.78-.16Z" style="fill: #f9dd16"/>
    <path d="M660.56,245.31c-1.39-2-1.7-4.4-1.39-8.27-7.4-13.61-20.67-10.69-20.82-5.47,4.78,7.8,5.4,7.19,9.41,9s6.46,2.34,3.78,4.48c-.93.74-4.79-.54-7.79-1-6.73-1.11-9.81-7.79-11.79-5.1-1.51,2-.2,3.46,2.6,4.14l.78.16-.78-.16c-2.16-.46-4.53-.84-4.07,1.59.89,4.6,4.35.13,5.7,2.24-1.16-.59-3-.12-3,1.19s2.57,3.61,5.46,1.45a6.29,6.29,0,0,1,4.81-1.07h0c-1.31,0-.92,2.71-2.7,2.51,4,.87,6.15.24,8.07-1.13a1.56,1.56,0,0,1,.34-.23l-.34.23a4.7,4.7,0,0,0-1,2.75c2.24-1.86,7.56-.89,10.33.37s3.24-.24,4.24-2.19S662,247.3,660.56,245.31Z" style="fill: #f9dd16"/>
    <path d="M661.25,245.74l-.46-.65c-1.25-1.79-1.61-4-1.3-8V237l-.07-.13c-4.62-8.5-11.56-10.65-16.09-9.9-3.11.51-5.25,2.33-5.31,4.53v.15l.09.14c4.23,6.9,5.3,7.35,8.18,8.55.42.18.89.37,1.41.61s1.08.48,1.56.68c1.46.63,3,1.28,3.08,1.78,0,.13,0,.51-1,1.3-.55.45-2.67,0-4.71-.49-1-.21-2-.44-2.89-.59-3.29-.55-5.62-2.4-7.51-3.9s-3.36-2.67-4.52-1.1a2.65,2.65,0,0,0-.55,2.6,2.71,2.71,0,0,0,.84,1.1,1.9,1.9,0,0,0-1.57.62,2.16,2.16,0,0,0-.24,1.73,3.53,3.53,0,0,0,1,2.13,2.09,2.09,0,0,0,1.92.32,1.69,1.69,0,0,0-.28.86,2.48,2.48,0,0,0,.87,1.8l-.38,0,.43.09.11.09a3.65,3.65,0,0,0,3.52.7l3.34.73c3.27.71,5.34.43,7-.39a7.12,7.12,0,0,0-.31,1.51c0,.32-.05.64-.08,1l.61-.51c2.09-1.74,7.28-.87,10.06.4s3.48-.12,4.36-1.86l.22-.44C663.63,249.06,662.47,247.45,661.25,245.74Zm-20.54,4.82-2.52-.28a6.81,6.81,0,0,0,.64-.41,6,6,0,0,1,3.52-1.13,6.27,6.27,0,0,0-.3.64C641.75,250.06,641.5,250.65,640.71,250.56Zm21.34-.05c-.07.15-.15.3-.23.45-.86,1.72-1.34,2.67-3.66,1.61-2.73-1.23-7.41-2.06-9.93-.77a3.52,3.52,0,0,1,.74-1.57l.38-.28,3.32-2.54L649,249.22a1.66,1.66,0,0,0-.43.32c-1.62,1.14-3.39,1.73-6.45,1.28a4.23,4.23,0,0,0,.53-1c.26-.62.45-1,.87-1h3.81l-3.87-.8a6.5,6.5,0,0,0-5,1.11,3.28,3.28,0,0,1-4.26.12,1.67,1.67,0,0,1-.68-1.12,1,1,0,0,1,.5-.81,2.2,2.2,0,0,1,1.66-.28,2.36,2.36,0,0,1,.47.16l1,.51-.69-1.08c-.72-1.12-1.83-.8-2.82-.52-.78.23-1.59.46-2.11,0a2.64,2.64,0,0,1-.69-1.55,1.3,1.3,0,0,1,.12-1.08c.51-.69,2.11-.42,3.55-.12.3.08.59.14.87.19l24.19,4.26q-12.09-2.51-24.2-5.05l-.42-.09-.46-.09c-1.49-.38-2.48-1-2.74-1.66a2,2,0,0,1,.49-1.77c.8-1.09,1.78-.39,3.74,1.16s4.38,3.47,7.81,4c.91.14,1.9.37,2.86.58,2.36.53,4.39,1,5.12.4,1-.78,1.36-1.4,1.22-2.06-.21-1-1.48-1.55-3.59-2.45l-1.55-.68c-.53-.24-1-.44-1.43-.62-2.76-1.15-3.71-1.55-7.71-8.07.15-1.78,2.12-3.32,4.85-3.77,4.52-.73,10.9,1.33,15.31,9.34-.31,4.1.11,6.48,1.49,8.46l.47.66C662.09,248,662.79,249.09,662.05,250.51Z"/>
    <path d="M641.74,228.75l7.44,2.63C646.77,229.79,644.56,228.65,641.74,228.75Z" style="fill: #f9dd16"/>
    <path d="M641.68,228.35c0,.27.08.53.13.79,2.67-.09,4.75.93,7.26,2.59.07-.23.14-.46.22-.69C646.75,229.36,644.49,228.26,641.68,228.35Z"/>
    <path d="M612.41,232.12q.26-5,.49-10C610.92,226.84,612.12,229.65,612.41,232.12Z" style="fill: #f9dd16"/>
    <path d="M612.61,221.86a13.77,13.77,0,0,0-.75,8.81c.09.5.18,1,.24,1.44l.63,0c-.06-.49-.15-1-.24-1.51a12.85,12.85,0,0,1,.7-8.31Z"/>
    <path d="M591.81,193c.46.47.91,1,1.36,1.43,1.53,2.08,2.21-.42,2.76.42C593.94,191.92,593.17,194.1,591.81,193Z" style="fill: #f9dd16"/>
    <path d="M596.13,194.57c-1.33-1.93-2.24-1.79-3-1.69a1.28,1.28,0,0,1-1.19-.22l-.29.63a1.83,1.83,0,0,0,1.67.38,1.71,1.71,0,0,1,1.86.73l-.2.14c-.46.35-.87.64-1.61-.37l-.44.47c1.15,1.56,2,.94,2.45.6a1.86,1.86,0,0,1,.3-.19h0L611,217.42q-7.42-11.4-14.85-22.8A.1.1,0,0,0,596.13,194.57Z"/>
    <path d="M598.79,195.45c.55-.61,1.23,2.19,2.76.76l1.36-.84C601.55,195.9,600.79,193.4,598.79,195.45Z" style="fill: #f9dd16"/>
    <path d="M601.57,194.7a2.06,2.06,0,0,0-3,.4l0,0-14.84,16.4q7.65-7.89,15.31-15.76h0a2.41,2.41,0,0,1,.3.32c.46.53,1.31,1.52,2.45.46l-.44-.67c-.74.69-1.14.22-1.61-.32l-.2-.22a1.47,1.47,0,0,1,1.87.07,1.84,1.84,0,0,0,1.66.34l-.28-.76C602.35,195.15,602,195,601.57,194.7Z"/>
    <path d="M598.79,195.45l-2.86-.62c.47.57.52-.26.15,1.88-.65,3.92-1.48,5.65,1.28,6.24s1.93-1.48,1.27-5.69C598.28,195,598.32,195.82,598.79,195.45Z" style="fill: #f9dd16"/>
    <path d="M599,197.25c-.05-.28-.09-.55-.14-.83s0-.36-.07-.49a.75.75,0,0,0,.25-.13l-.4-.7a.25.25,0,0,1-.17.07c-.43.05-.37.41-.23,1.27l.13.82c.09.59.18,1.13.27,1.64.3,1.77.52,3,.17,3.5-.2.27-.66.32-1.4.16a2,2,0,0,1-1.43-.77c-.34-.58-.12-1.72.17-3.3.1-.5.2-1,.3-1.64.05-.26.09-.52.14-.77.14-.8.2-1.13-.24-1.37a.45.45,0,0,1-.17-.14c-.13.18-.27.35-.4.52a1.46,1.46,0,0,0,.25.25c0,.11,0,.27-.07.44s-.09.52-.14.78c-.1.59-.2,1.13-.29,1.63-.35,1.84-.58,3.06-.05,4a2.63,2.63,0,0,0,1.93,1.17c1,.21,1.56.1,1.9-.34.55-.7.31-2.07,0-4.13C599.13,198.37,599,197.83,599,197.25Z"/>
    <path d="M601.45,203.27c.61,3.14-4.05,1.84-4.05.48,0,1.36-4.66.64-4-2.22-.58,2.32,1.06,3.27.92,4.75-.34,3.68.93,4,3.13,4.47s3.47.7,3.12-3.13C600.38,206.09,602,205.84,601.45,203.27Z" style="fill: #ff0016"/>
    <path d="M599.16,192.42l2.13,10.87a1.37,1.37,0,0,1-.35,1.43,2.83,2.83,0,0,1-3-.36.87.87,0,0,1-.39-.57l-.32-.07c0,.23-.24.35-.39.41a3.16,3.16,0,0,1-3-.94,1.8,1.8,0,0,1-.35-1.58q1.07-5,2.14-10-1.23,4.92-2.45,9.84a4.28,4.28,0,0,0,.48,3.21,2.94,2.94,0,0,1,.43,1.57,5.39,5.39,0,0,0,.44,3.32c.58.92,1.63,1.14,2.85,1.41s2.27.49,2.85-.18c.44-.51.58-1.5.43-3.13a2.13,2.13,0,0,1,.44-1.38,3.53,3.53,0,0,0,.48-3Q600.39,197.83,599.16,192.42ZM600.85,206a2.48,2.48,0,0,0-.49,1.62c.14,1.51,0,2.41-.35,2.85s-1.47.34-2.61.1-2.12-.46-2.61-1.23a4.94,4.94,0,0,1-.36-3,3.37,3.37,0,0,0-.48-1.83,5.7,5.7,0,0,1-.5-1.35,1.94,1.94,0,0,0,.21.3,3.46,3.46,0,0,0,3.33,1.06.92.92,0,0,0,.41-.27,2,2,0,0,0,.41.45c.87.69,2.52,1,3.33.38a2.08,2.08,0,0,0,.21-.21A3.76,3.76,0,0,1,600.85,206Z"/>
    <path d="M595.43,202.73l-5.28-2.92" style="fill: #ff0016"/>
    <path d="M590.11,200l5.27,2.93.09-.36-5.28-2.92Z"/>
    <path d="M595.43,203.06l-5.89-1.32" style="fill: #ff0016"/>
    <path d="M589.53,201.93l5.89,1.33c0-.13,0-.26,0-.39l-5.89-1.33Z"/>
    <path d="M595.48,203.44l-5,.56" style="fill: #ff0016"/>
    <path d="M590.42,203.8c0,.13.05.27.08.4l5-.56-.08-.39Z"/>
    <path d="M599.38,203.58l5.27-.65" style="fill: #ff0016"/>
    <path d="M599.33,203.39l.09.39,5.28-.65-.09-.39Z"/>
    <path d="M599.38,203.92l5.89,1.21" style="fill: #ff0016"/>
    <path d="M599.38,203.72v.39l5.89,1.22v-.39Z"/>
    <path d="M599.32,204.27l5,2.73" style="fill: #ff0016"/>
    <path d="M599.28,204.45l5,2.73c0-.12.06-.24.08-.36l-5-2.73C599.33,204.21,599.3,204.33,599.28,204.45Z"/>
    <path d="M570.08,178.12a2.92,2.92,0,0,0-5.46,1.38c1.3-1.6,3.42,1.54,4.58,1.22a1.85,1.85,0,0,0,.88-2.6Z" style="fill: #0051ba"/>
    <path d="M570.05,178h0a2.89,2.89,0,0,0-3-1.35,2.93,2.93,0,0,0-2.42,2.84v.12l.06-.08c.76-.94,1.79-.22,2.79.47a4.74,4.74,0,0,0,1.39.76.81.81,0,0,0,.38,0,1.74,1.74,0,0,0,1.09-1.32,1.85,1.85,0,0,0-.2-1.34Zm.19,1.41a1.72,1.72,0,0,1-1.06,1.27c-.45.12-1.06-.3-1.71-.75a5.14,5.14,0,0,0-1.67-.89,1.12,1.12,0,0,0-1.14.36,2.89,2.89,0,0,1,2.37-2.67,2.8,2.8,0,0,1,3,1.41l0,0A1.8,1.8,0,0,1,570.24,179.41Z"/>
    <path d="M568.09,183.21a2.92,2.92,0,0,0-5.45,1.38c1.29-1.6,3.41,1.54,4.57,1.21a1.83,1.83,0,0,0,.88-2.59Z" style="fill: #0051ba"/>
    <path d="M565,181.74a2.93,2.93,0,0,0-2.41,2.84v.12l.06-.08c.76-.94,1.79-.22,2.79.46a4.57,4.57,0,0,0,1.39.77.7.7,0,0,0,.38,0,1.75,1.75,0,0,0,1.09-1.31,1.79,1.79,0,0,0-.2-1.34A2.86,2.86,0,0,0,565,181.74Zm3.23,2.76a1.68,1.68,0,0,1-1,1.26c-.46.13-1.07-.3-1.72-.75a5.3,5.3,0,0,0-1.67-.88,1.1,1.1,0,0,0-1.13.36,2.87,2.87,0,0,1,2.36-2.67,2.8,2.8,0,0,1,3,1.41A1.75,1.75,0,0,1,568.25,184.5Z"/>
    <path d="M567.09,190.39c-1.74-2.46-5.37-.74-5.18,2.17,1.11-1.8,3.46,1.08,4.56.58a2,2,0,0,0,.62-2.75Z" style="fill: #0051ba"/>
    <path d="M567.11,190.37a2.64,2.64,0,0,0-3.14-1,3.16,3.16,0,0,0-2.1,3.22v.12l0-.09c.66-1.06,1.73-.48,2.77.08.69.37,1.34.72,1.79.51a2,2,0,0,0,.63-2.8Zm.25,1.3a1.81,1.81,0,0,1-.9,1.43c-.43.2-1.07-.15-1.75-.51-1-.53-2.09-1.12-2.78-.14a3.1,3.1,0,0,1,2.06-3,2.57,2.57,0,0,1,1.43-.12,2.71,2.71,0,0,1,1.63,1.1v0A1.76,1.76,0,0,1,567.36,191.67Z"/>
    <path d="M568.92,213.68c-1.93-2.24-5.3,0-4.84,2.95.91-2,3.47.59,4.5-.07a2.12,2.12,0,0,0,.34-2.88Z" style="fill: #0051ba"/>
    <path d="M568.93,213.65h0a2.47,2.47,0,0,0-3.15-.59,3.46,3.46,0,0,0-1.74,3.57l0,.12.05-.1c.53-1.16,1.63-.73,2.69-.32.71.28,1.37.54,1.79.27a2.07,2.07,0,0,0,.79-1.64,1.92,1.92,0,0,0-.44-1.3Zm-.37,2.88c-.4.25-1,0-1.75-.28-1-.39-2.14-.83-2.72.26a3.38,3.38,0,0,1,1.72-3.37,2.47,2.47,0,0,1,1.69-.28,2.58,2.58,0,0,1,1.4.85h0a1.82,1.82,0,0,1,.4,1.22A2.05,2.05,0,0,1,568.56,216.53Z"/>
    <path d="M568.82,218.68c-2.3-1.52-4.76,2.06-3.6,4.82.31-2.35,3.27-.75,4-1.8A2.38,2.38,0,0,0,568.82,218.68Z" style="fill: #0051ba"/>
    <path d="M568.83,218.64a2.16,2.16,0,0,0-3,.63,4.25,4.25,0,0,0-.65,4.24l0,.12,0-.12c.19-1.37,1.28-1.36,2.34-1.36.7,0,1.37,0,1.68-.42a2.6,2.6,0,0,0,.29-1.94A1.89,1.89,0,0,0,568.83,218.64Zm.39,3c-.3.41-1,.41-1.64.4-1,0-2.14,0-2.38,1.3a4.19,4.19,0,0,1,.69-4,2.2,2.2,0,0,1,2.19-.92,2,2,0,0,1,.73.3,1.77,1.77,0,0,1,.68,1.09A2.53,2.53,0,0,1,569.22,221.67Z"/>
    <path d="M571.77,223.05h0c-2.3-1.52-4.76,2-3.61,4.81.32-2.34,3.28-.74,4-1.79A2.38,2.38,0,0,0,571.77,223.05Z" style="fill: #0051ba"/>
    <path d="M571.93,223.12h0l-.18-.12a2.16,2.16,0,0,0-3,.62,4.27,4.27,0,0,0-.66,4.25l0,.11v-.11c.19-1.38,1.29-1.37,2.35-1.36.7,0,1.37,0,1.68-.42a2.63,2.63,0,0,0,.28-1.95A2,2,0,0,0,571.93,223.12Zm.23,2.92c-.29.41-.94.4-1.64.4-1,0-2.13,0-2.38,1.3a4.28,4.28,0,0,1,.7-4.05,2.22,2.22,0,0,1,2.19-.92,2.3,2.3,0,0,1,.7.29l0,0a1.75,1.75,0,0,1,.68,1.08A2.5,2.5,0,0,1,572.16,226Z"/>
    <path d="M632,243.3h0c-2.3-1.54-4.76,2-3.61,4.79.33-2.35,3.28-.72,4-1.77A2.41,2.41,0,0,0,632,243.3Z" style="fill: #0051ba"/>
    <path d="M632,243.26a2.15,2.15,0,0,0-3,.6,4.25,4.25,0,0,0-.66,4.24l0,.11,0-.11c.18-1.37,1.28-1.35,2.34-1.34.7,0,1.37,0,1.68-.41a2.6,2.6,0,0,0,.28-1.94A1.83,1.83,0,0,0,632,243.26Zm.38,3c-.29.41-.94.4-1.63.39-1,0-2.14,0-2.38,1.28a4.14,4.14,0,0,1,.69-4,2.17,2.17,0,0,1,2.19-.91,2.27,2.27,0,0,1,.73.31,1.77,1.77,0,0,1,.68,1.09A2.47,2.47,0,0,1,632.39,246.29Z"/>
    <path d="M635.1,247.37h0c-2.38-1.22-4.44,2.73-3.06,5.38.09-2.43,3.12-1.2,3.76-2.37C636.24,249.57,636.07,247.87,635.1,247.37Z" style="fill: #0051ba"/>
    <path d="M635.11,247.34h0a2.11,2.11,0,0,0-.51-.19,2.22,2.22,0,0,0-2.34,1.22,4.56,4.56,0,0,0-.25,4.4l.06.1v-.11c.06-1.42,1.12-1.56,2.16-1.7.68-.09,1.33-.17,1.59-.65a2.75,2.75,0,0,0,.1-2A1.74,1.74,0,0,0,635.11,247.34Zm.66,3c-.25.46-.89.54-1.56.63-1,.13-2.09.27-2.2,1.64a4.47,4.47,0,0,1,.3-4.19,2.15,2.15,0,0,1,2.3-1.19,2,2,0,0,1,.49.17h0a1.71,1.71,0,0,1,.76,1A2.69,2.69,0,0,1,635.77,250.35Z"/>
    <path d="M632.92,238.68c-2.13-2-5.12.91-4.34,3.81.66-2.17,3.43,0,4.34-.83A2.25,2.25,0,0,0,632.92,238.68Z" style="fill: #0051ba"/>
    <path d="M632.94,238.65a2.29,2.29,0,0,0-3.13-.06,3.77,3.77,0,0,0-1.26,3.9l0,.12,0-.1c.36-1.17,1.32-1,2.31-.84l.51.11c.62.14,1.18.22,1.52-.08a2.32,2.32,0,0,0,.56-1.8A2,2,0,0,0,632.94,238.65Zm0,3c-.31.29-.86.21-1.47.07l-.5-.11c-.95-.2-1.95-.33-2.34.77a3.68,3.68,0,0,1,1.26-3.7,2.31,2.31,0,0,1,2-.53,2.55,2.55,0,0,1,1.09.58,1.83,1.83,0,0,1,.54,1.19A2.21,2.21,0,0,1,632.9,241.63Z"/>
    <path d="M675.77,253.83h0c-2.38-1.21-4.45,2.75-3.07,5.39.1-2.42,3.13-1.21,3.76-2.38C676.9,256,676.74,254.33,675.77,253.83Z" style="fill: #0051ba"/>
    <path d="M675.77,253.79a2.14,2.14,0,0,0-2.85,1.05,4.56,4.56,0,0,0-.24,4.4l.05.1v-.11c0-1.42,1.12-1.57,2.15-1.7.69-.1,1.34-.18,1.6-.67a2.79,2.79,0,0,0,.1-2A1.8,1.8,0,0,0,675.77,253.79Zm.66,3c-.25.46-.88.54-1.56.63-1,.13-2.08.28-2.19,1.65a4.47,4.47,0,0,1,.3-4.19,2.13,2.13,0,0,1,2.3-1.2,1.55,1.55,0,0,1,1.24,1.17A2.66,2.66,0,0,1,676.43,256.81Z"/>
    <path d="M675.84,249.24h0c-2.16-1.86-5.05,1.16-4.2,4,.59-2.22,3.41-.15,4.29-1A2.3,2.3,0,0,0,675.84,249.24Z" style="fill: #0051ba"/>
    <path d="M675.85,249.21a2.24,2.24,0,0,0-3.09.08,3.88,3.88,0,0,0-1.15,4l0,.12,0-.11c.35-1.29,1.46-1.09,2.53-.9.72.13,1.39.25,1.75-.12a2.32,2.32,0,0,0,.51-1.83A1.87,1.87,0,0,0,675.85,249.21Zm.06,3c-.35.34-1,.22-1.71.1-1-.18-2.17-.39-2.56.84a3.85,3.85,0,0,1,1.16-3.79,2.27,2.27,0,0,1,2-.6,2.31,2.31,0,0,1,1,.52,1.77,1.77,0,0,1,.57,1.16A2.31,2.31,0,0,1,675.91,252.21Z"/>
    <path d="M677.51,258.32c-2.4-1.09-4.3,3-2.84,5.59,0-2.45,3.05-1.39,3.64-2.61C678.72,260.46,678.49,258.76,677.51,258.32Z" style="fill: #0051ba"/>
    <path d="M677.52,258.28c-1-.47-2.1,0-2.79,1.21a4.66,4.66,0,0,0-.09,4.44l.06.1v-.11c0-1.44,1.06-1.64,2.08-1.83.67-.14,1.31-.26,1.56-.76a2.85,2.85,0,0,0,0-2A1.7,1.7,0,0,0,677.52,258.28Zm.76,3c-.23.47-.86.59-1.52.72-1,.19-2.06.4-2.12,1.79a4.58,4.58,0,0,1,.14-4.25,2.14,2.14,0,0,1,2.33-1.31,1.53,1.53,0,0,1,1.19,1.1A2.77,2.77,0,0,1,678.28,261.28Z"/>
    <polygon points="597.58 208.54 597.58 208.54 597.58 208.54 597.58 208.54" style="fill: #0051ba"/>
    <path d="M597.58,208.54c-1.35-.29-2-.13-2,1.63.45-.13.45,1.21.45,3.91,0,5.15-.13,8,1.73,8.4s1.93-2.61,1.92-9.63C599.69,209.53,599.08,208.86,597.58,208.54Z" style="fill: #0051ba"/>
    <path d="M597.58,208.5c-1.37-.3-2-.12-2,1.66v.06h0a.14.14,0,0,1,.15,0c.25.26.25,1.61.25,3.83V215c0,3.46,0,5.74.75,6.83a1.63,1.63,0,0,0,1,.68c2,.42,2-3,2-9.66C599.73,209.5,599.09,208.83,597.58,208.5Zm.19,13.94a1.52,1.52,0,0,1-1-.65c-.74-1.06-.74-3.33-.73-6.77v-.94c0-2.32,0-3.6-.28-3.9a.3.3,0,0,0-.11-.06h-.06c0-1.67.62-1.83,2-1.54,1.54.33,2.08,1,2.08,4.26C599.66,220,599.59,222.83,597.77,222.44Z"/>
    <path d="M682.38,322.12c.09-.14.19-.27.27-.42A1,1,0,0,0,682.38,322.12Z" style="fill: #f9dd16"/>
    <path d="M688.38,321.81c-2-2.27-.56-6.2-3.68-9.05,1,.13,3,2,3.61,3.8-.49-3.9-1-6.46-3.54-9.11.27.44,1.73,1.08,2.36.5a6.64,6.64,0,0,1-2-5.16c.19-1.85-.84-2.45-2.78-2.27a37.07,37.07,0,0,1-8.12-.89c-4.86-1-9.09-1.95-13.12-6.2,6,4.35,13.74-.42,13.74-5.74,0-5.92-6-12-18-11.41s-26.79-4-26.79-8.87,10.54-3.27,16-1.08,9.3,3.71,19.43,1.51c-2.49.64-10.55-.76-16.93-4.34s-22.07-7-22.21,3.27,16.7,13,31.23,13.55c8.47.31,12.91,2.27,12.91,5.65,0,3.21-7.77,2.9-13.74.76a38.89,38.89,0,0,0-19.16-2.31c-5.91.83-10-2.18-16.52-2.25-3.16,0-10.82-2.36-14.61-10.78-2.32,1.52-9.33,4.25-10.51,8.14-1.67,3.44-.56,7.46,1.66,11.65,2.8,5.28-1.38,3.67-4.37,3.2-4.09-.65-9.57-2.58-12.42-7.14-2.54-4-5.91-7.55-8.6-5.53a1.6,1.6,0,0,0,1,2.82c1.09-.25,2.37,1,3.53,1.86a4,4,0,0,0-4.68-.34c-1.1,1,.23,3.52,1.56,3a4,4,0,0,1,4.55,1.46c-1.5-.67-3.06-.92-3.81-.1s-.17,2.37,1.45,2.62c2.6.41,3.26,2.76,5.86,2.86a3.1,3.1,0,0,0-2.92,1.41c2.43-.84,5.11,3.38,8.26,3.2-1.22.35-3.21,1.4-3.19,2.52,1.87-2.22,14.44,5.13,14.71-.55a5.19,5.19,0,0,1-.69,4.33c1.61-.84,6.8-.14,8.4-4.35.14,1.38-.07,3.11-1,3.32,1.67,1,3.86,0,6.1-3.58a5.07,5.07,0,0,0,1-3.67,5.67,5.67,0,0,0,5.58-1.16c1.8-1.46,3.75,2.34,6.8.64s5.69.9,7.36.08,3.95,1.29,5.76.33,4.6,1.67,7.59-.55c4.7,3.11,10.19,8.2,23.65,8.08,7.71-.07,10.13,3.6,10.13,7.91,0,3-1.43,2.91-2.5,2.76-4.29-.59-6.13-3.26-7.83-2.9-1.13.25-1.83,2.35-.18,3.48a1.78,1.78,0,0,0-.49,2.89c.69.73,2.48.59,3.69.17-1.56.52-3.18,1.72-2.25,3.53.56,1.1,2,2.24,3.29.43s3.75-3.06,5.29-2.46h0c-1.45.12-1.45,2.4-2.21,2.23,3.5.63,5.33-.09,6.49-1.85a1,1,0,0,1,.27-.42c-.08.15-.18.28-.27.42-.35.89.12,2.31-.11,2.62,2.77-.59,4.09-3.19,3.12-5.33A6.48,6.48,0,0,0,688.38,321.81Z" style="fill: #f9dd16"/>
    <path d="M687.37,318.12a10.65,10.65,0,0,0-1.42-4.35,6.48,6.48,0,0,1,2.09,2.86c.31,1,.63,2.06.94,3.09l-.39-3.16c-.4-3.26-.83-5.72-2.56-8.07a1.4,1.4,0,0,0,1.29-.25l.28-.25-.32-.31a6.24,6.24,0,0,1-1.88-4.78,2.64,2.64,0,0,0-.42-2c-.5-.65-1.37-.89-2.71-.77a37.75,37.75,0,0,1-8-.88c-4.08-.87-7.7-1.65-11.1-4.39a9.18,9.18,0,0,0,8-.76,7.75,7.75,0,0,0,4-6.38,10,10,0,0,0-2.43-6.43c-3.21-3.83-8.88-5.74-16-5.39-10.12.5-22.35-2.68-25.66-6.64a2.91,2.91,0,0,1-.77-1.81,2.21,2.21,0,0,1,.84-1.81c2.61-2.16,10.4-.78,14.79,1,5.34,2.16,9.22,3.73,19.31,1.58l.27-.06,18.72-4.86q-9.47,2.1-18.92,4.16l-.27.05c-2.74.49-10.36-.92-16.49-4.36-5.14-2.89-15.18-5.28-19.89-2.05A6.44,6.44,0,0,0,626,266.7a8.67,8.67,0,0,0,1.86,5.55c3.88,5,13.88,7.84,29.7,8.43,7.9.28,10.84,2,11.91,3.32a3,3,0,0,1,.67,1.91,1.44,1.44,0,0,1-.53,1.1c-1.76,1.53-7.66,1.25-12.89-.63-7-2.49-12.9-3.21-19.27-2.31-3.19.44-5.85-.24-8.67-1a31.17,31.17,0,0,0-7.81-1.28c-2.68,0-10.47-2-14.32-10.55l-.16-.36-.26.17c-.52.34-1.3.76-2.21,1.23-3.15,1.67-7.47,3.95-8.39,7-1.52,3.15-1,7,1.69,12,.73,1.38,1,2.35.79,2.82-.34.77-2.09.42-3.63.11-.45-.09-.89-.18-1.31-.24-2.61-.42-9-1.92-12.2-7-2-3.16-5.77-8.08-9-5.66a2,2,0,0,0,1.32,3.48,1.74,1.74,0,0,1,1.15.24,3.52,3.52,0,0,0-2.6.62,2.09,2.09,0,0,0-.19,2.48c.4.8,1.22,1.5,2.08,1.17a3.74,3.74,0,0,1,3,.27,2.65,2.65,0,0,0-2.63.45,1.69,1.69,0,0,0-.28,1.73,2.4,2.4,0,0,0,1.95,1.53,5.52,5.52,0,0,1,2.69,1.4,8.17,8.17,0,0,0,1.47,1,3.23,3.23,0,0,0-1.47,1.25l-.56.91.92-.32c1.13-.38,2.32.43,3.71,1.37a12,12,0,0,0,3,1.65c-1,.5-2.1,1.31-2.09,2.31,0,.3,0,.61,0,.92l.49-.59c.67-.79,3.29-.09,5.83.59,3.47.94,7.34,2,8.56.05a4.41,4.41,0,0,1-.82,2.59l-1,1.29,1.33-.69a7.35,7.35,0,0,1,1.95-.46c2-.31,4.59-.72,6-3-.07.86-.34,1.58-.86,1.7l-.79.17.8.49c1.9,1.17,4.24-.16,6.43-3.64a5.53,5.53,0,0,0,1-3.49l.1,0a5.77,5.77,0,0,0,5.34-1.3c.71-.58,1.47-.19,2.42.3,1.16.59,2.6,1.34,4.35.36s3.27-.49,4.64-.09a3.79,3.79,0,0,0,2.7.18,3.61,3.61,0,0,1,2.57.2,4.15,4.15,0,0,0,3.2.13,3.69,3.69,0,0,1,2.49.06c1.44.33,3.2.72,5-.55l1.53,1.06c4.52,3.15,10.15,7.08,22.12,7,4,0,6.77.92,8.33,2.84a7.13,7.13,0,0,1,1.46,4.65c0,2.56-1.1,2.63-2.23,2.47a13,13,0,0,1-5.08-1.95c-1.1-.63-2-1.13-2.83-.95a2,2,0,0,0-1.35,2,2.52,2.52,0,0,0,.69,1.74,1.86,1.86,0,0,0-.73,1.42,2.59,2.59,0,0,0,.65,1.83,2.55,2.55,0,0,0,1.87.61,2.53,2.53,0,0,0-.76,1.24,1.42,1.42,0,0,0,0,.2l-14-2.56,14,3a2.83,2.83,0,0,0,.32,1.08,2.9,2.9,0,0,0,1.71,1.54h0a2,2,0,0,0,2-1,7.91,7.91,0,0,1,.52-.63l2.33.5h0c2.83.51,4.72.17,6-1.12,0,.21,0,.42,0,.61a3.23,3.23,0,0,1,0,.65c-.21.28-.42.55-.62.83l.94-.21a4.48,4.48,0,0,0,3.46-3,4,4,0,0,0,.17-1.49,8,8,0,0,0,2.35,1.52l1,.38-.82-1A6.73,6.73,0,0,1,687.37,318.12Zm-14.79,5.82a1.59,1.59,0,0,1-1.55.83h0a2.15,2.15,0,0,1-1.24-1.14,1.7,1.7,0,0,1-.21-.65l3.24.69Zm3.32-.32h0l-1.76-.32A5.62,5.62,0,0,1,677,322a4.2,4.2,0,0,0-.58,1C676.21,323.31,676.05,323.64,675.9,323.62Zm9.73-4.36L680,308.15q2.57,5.7,5.14,11.39a3.06,3.06,0,0,1,.12,2.23,3.91,3.91,0,0,1-2.65,2.5c0-.13,0-.27,0-.42a4,4,0,0,1,0-1.42l.3-.5,1-1.87-1.48,1.34a1.43,1.43,0,0,0-.38.59c-1.08,1.57-2.71,2.1-5.36,1.76l.18-.36c.27-.58.59-1.24,1.28-1.29l1.46-.11-1.49-.59c-1.45-.56-3.51.37-4.89,1.75l-3.67-.67a3.23,3.23,0,0,1,2.25-1.88l.06,0h0l-.24-.69-.06,0c-1.2.41-2.8.49-3.35-.09a1.6,1.6,0,0,1-.4-1.15,1.27,1.27,0,0,1,.86-1.15l.57-.24-.6-.41a1.64,1.64,0,0,1-.79-1.39,1.44,1.44,0,0,1,1-1.42c.68-.15,1.43.28,2.46.88a13.56,13.56,0,0,0,5.29,2c.89.12,2.77.38,2.77-3.06a8,8,0,0,0-1.67-5.23c-1.7-2.09-4.67-3.13-8.81-3.09-11.81.09-17.35-3.78-21.8-6.88-.58-.41-1.14-.8-1.69-1.16l-.15-.1-.13.09c-1.69,1.26-3.3.91-4.76.56a4.08,4.08,0,0,0-2.8,0,3.78,3.78,0,0,1-2.86-.15,4,4,0,0,0-2.9-.18,3.5,3.5,0,0,1-2.37-.21c-1.39-.4-3.13-.91-5,.13-1.55.86-2.74.24-3.9-.36s-2-1-2.94-.26a5.45,5.45,0,0,1-5.37,1.12l-.35-.09c0,.14,0,.28,0,.43a4.71,4.71,0,0,1-.91,3.44c-1.75,2.78-3.56,4.12-5.07,3.79h-.06a4.73,4.73,0,0,0,.59-3.27c0-.44-.08-.88-.13-1.32l-.42,1.11c-1.1,2.91-4,3.37-6.2,3.71-.43.07-.84.13-1.19.21a6,6,0,0,0,.23-3.76l-.48-1.73c0,.57-.06,1.14-.08,1.7-.15,3-4.51,1.85-8.36.81-2.19-.58-4.15-1.11-5.36-.91a6.35,6.35,0,0,1,2.59-1.43l3.13-.9-3.3.19c-1.46.08-2.84-.85-4.17-1.75a7.63,7.63,0,0,0-3.15-1.55,3,3,0,0,1,2-.59h.07c0-.24,0-.48-.08-.71h-.07a4.68,4.68,0,0,1-2.8-1.33,6,6,0,0,0-3-1.52,1.67,1.67,0,0,1-1.41-1,.94.94,0,0,1,.19-1c.58-.63,1.9-.58,3.54.16l1,.44-.75-1a4.3,4.3,0,0,0-4.88-1.58c-.55.22-1.07-.23-1.34-.78a1.3,1.3,0,0,1,.1-1.57,3.74,3.74,0,0,1,4.37.34l.23-.6-.61-.47c-1-.83-2.12-1.68-3.13-1.44-.46.11-1-.32-1.14-.79a1.08,1.08,0,0,1,.38-1.36c2.84-2.14,6.36,2.46,8.2,5.4,3.33,5.31,10,6.88,12.66,7.3l1.29.25c1.87.37,3.64.73,4.14-.4.33-.72.06-1.85-.85-3.55-2.52-4.79-3-8.37-1.62-11.33.87-2.88,5.26-5.2,8.16-6.73.78-.41,1.47-.78,2-1.1,4.07,8.64,12,10.63,14.74,10.66a31.07,31.07,0,0,1,7.71,1.26c2.86.74,5.57,1.44,8.84,1a38.21,38.21,0,0,1,19,2.29c4.76,1.7,11.22,2.4,13.34.55a2,2,0,0,0,.73-1.58,3.91,3.91,0,0,0-.87-2.49c-1.7-2.14-5.86-3.35-12.37-3.59-15.65-.58-25.49-3.34-29.24-8.16a7.63,7.63,0,0,1-1.66-5,5.84,5.84,0,0,1,2.46-5.06c4.56-3.13,14.35-.77,19.38,2.05a38.92,38.92,0,0,0,13.17,4.36c-7.46,1.09-10.95-.32-15.54-2.19s-12.48-3.23-15.26-.94a2.85,2.85,0,0,0-1,2.3,3.76,3.76,0,0,0,1,2.41c3.42,4.09,15.89,7.39,26.15,6.88,9.33-.46,13.7,3,15.48,5.15a9,9,0,0,1,2.21,5.83,7.17,7.17,0,0,1-3.78,5.86,8.61,8.61,0,0,1-9.56-.35l-2.52-1.81,2.25,2.37c4.1,4.32,8.35,5.24,13.28,6.29a37.63,37.63,0,0,0,8.19.89c1.11-.1,1.85.07,2.19.5a1.89,1.89,0,0,1,.23,1.32,7.09,7.09,0,0,0,1.76,5.12,1.83,1.83,0,0,1-.68-.05,2.38,2.38,0,0,1-.8-.38l-.18-.19-1.88-1.94,1.5,2.39a1.13,1.13,0,0,0,.26.28c2,2.11,2.57,4.19,3,7a6.13,6.13,0,0,0-3-2.51l-.11,0-.95-.12.82.75c1.66,1.51,2,3.35,2.25,5.12a11,11,0,0,0,.75,2.88A5.21,5.21,0,0,1,685.63,319.26Z"/>
    <path d="M588.33,259.56a17.31,17.31,0,0,0,2.25,5.51c0-1.6.52-5.93,2-6.45h0C588.74,255.85,587.43,255.51,588.33,259.56Z" style="fill: #f9dd16"/>
    <path d="M588.15,256.37c-.47.41-.5,1.41-.1,3.23a17.41,17.41,0,0,0,2.34,5.68l.46.63c0-.26,0-.51,0-.77,0-1.75.57-5.73,1.88-6.17l.61-.21-.62-.44C590.31,256.58,588.85,255.76,588.15,256.37Zm2.19,7.8a18.77,18.77,0,0,1-1.73-4.65c-.32-1.45-.35-2.3-.07-2.54a.59.59,0,0,1,.53-.07,11,11,0,0,1,2.95,1.66C590.85,259.62,590.46,262.69,590.34,264.17Z"/>
    <path d="M604.78,261.25c1.53,1.17,2,5.71,2,7.32a10.56,10.56,0,0,0,2.26-4.53C610,260.38,608.67,260.15,604.78,261.25Z" style="fill: #f9dd16"/>
    <path d="M604.67,260.9l-.62.17.61.47c1.32,1,1.84,5.22,1.87,7,0,.26,0,.52,0,.78l.47-.42a10.88,10.88,0,0,0,2.34-4.68c.4-1.65.37-2.66-.1-3.28C608.55,260,607.1,260.21,604.67,260.9Zm4.13,3a12.09,12.09,0,0,1-1.73,3.9c-.13-1.78-.58-4.84-1.68-6.32,1.53-.41,3-.68,3.48-.09C609.15,261.73,609.12,262.57,608.8,263.88Z"/>
    <polygon points="598.72 257.34 598.72 257.34 598.73 257.34 598.72 257.34" style="fill: #f9dd16"/>
    <path d="M598.72,257.34c-7.35-1.59-8.27,2.42-8.24,7.66,0,5.67,2.54,4.27,3.95,11.83.56,3,2.42,3.52,4.29,3.93s3.73.65,4.29-2.07c1.42-7,3.92-4.48,4-10.13C607,263.34,606.08,258.93,598.72,257.34Z" style="fill: #f9dd16"/>
    <path d="M598.73,257h0c-3.23-.7-5.45-.37-6.8,1-1.55,1.57-1.74,4.28-1.73,7a8.8,8.8,0,0,0,1.57,5.51,15.9,15.9,0,0,1,2.39,6.41c.64,3.4,3,3.91,4.57,4.25s3.93.85,4.57-2.28c.68-3.34,1.59-4.42,2.4-5.37s1.54-1.83,1.56-4.83c0-2.68-.18-5.47-1.73-7.71C604.17,259,602,257.69,598.73,257Zm6.52,15.91c-.81,1-1.81,2.14-2.52,5.64-.5,2.42-2,2.29-4,1.87s-3.51-1-4-3.6a16.85,16.85,0,0,0-2.52-6.73,7.9,7.9,0,0,1-1.42-5c0-2.53.16-5.08,1.57-6.5,1.23-1.24,3.32-1.53,6.38-.87s5.16,1.85,6.39,3.63c1.4,2,1.58,4.65,1.56,7.18C606.66,271.24,606.07,271.93,605.25,272.9Z"/>
    <path d="M575.38,263.73c-.23-.38-.47-.71-.7-1A8.11,8.11,0,0,0,575.38,263.73Z" style="fill: #f9dd16"/>
    <polygon points="579.76 274.03 579.75 274.03 579.76 274.03 579.76 274.03" style="fill: #f9dd16"/>
    <path d="M596.41,280.72c-7.49-2-8.1-7.18-12.42-12.12-3.51-4-3.83-7.41-5.38-14-.7-3-3.41-5.3-4.92-4.95-1.31.31-1.79,1.59-.66,2.87s2.57,1.72,2.88,4.41c-1.47-2.45-3.66-3.68-4.71-2.57a2.12,2.12,0,0,0,1,3.09c2,.67.95,2.59,2.49,5.22.23.31.47.64.7,1a8.11,8.11,0,0,1-.7-1c-2-2.67-3.65-3.11-4.74-1.83-.72.86,0,2.81,1.56,2.95,2.26.19,4.87,7.71,8.25,10.2h0a3.51,3.51,0,0,0-3.84-1c2.43,1.28,2.53,5.09,8.08,8.05-1.25-.69-1.94,0-3.12-1,2.29,2.69,4.85,5.78,10.27,7,3,.69.93,2.14-1,.62,2,3,6.11,1.77,8.67,7C599.26,291.22,594,284.34,596.41,280.72Z" style="fill: #f9dd16"/>
    <path d="M596.65,281l.31-.46-.53-.15c-5.11-1.36-6.93-4.21-9-7.51a35.85,35.85,0,0,0-3.23-4.5c-2.92-3.35-3.58-6.25-4.66-11.06-.19-.84-.39-1.74-.62-2.7a8.25,8.25,0,0,0-2.69-4.3,3.3,3.3,0,0,0-2.6-1,1.81,1.81,0,0,0-1.48,1.5,2.52,2.52,0,0,0,.74,2,11.16,11.16,0,0,0,.93.9,4.82,4.82,0,0,1,1.52,1.92,5.53,5.53,0,0,0-2.63-1.92,1.63,1.63,0,0,0-1.69.41,2.21,2.21,0,0,0-.3,2.06,2.38,2.38,0,0,0,1.47,1.67c.94.31,1,.86,1.24,1.94a12.24,12.24,0,0,0,.29,1.31,4.24,4.24,0,0,0-2-1.21h0a1.92,1.92,0,0,0-2.14,2.73,2.42,2.42,0,0,0,2,1.58c1,.09,2.27,2.14,3.6,4.3a38.72,38.72,0,0,0,2.74,4.08,3.85,3.85,0,0,0-1.66.06l-.38.08-1.05.12,1.06.56a6.35,6.35,0,0,1,2.15,2.39,15.24,15.24,0,0,0,4.16,4.57,2.07,2.07,0,0,1-1.15-.53l-2.81-2.4,2.6,3c2,2.36,4.25,5,8.4,6.45.23.34.47.68.7,1a7.19,7.19,0,0,0,3.53,2.47,8.54,8.54,0,0,1,5.11,4.49l.41.83.12-.85c.21-1.56-.57-3.62-1.4-5.79C596.51,286.07,595.32,283,596.65,281Zm-6.88,6.11c.44.14.89.26,1.37.37a2.89,2.89,0,0,1,1.19.47,2.11,2.11,0,0,1-2.11-.5Zm3.75,2.64a12,12,0,0,1-2-1,1.52,1.52,0,0,0,1.24-.23.63.63,0,0,0,.16-.66c-.15-.49-.73-.84-1.78-1.08a16.14,16.14,0,0,1-9.08-5.72l.53.06a2.69,2.69,0,0,1,1.26.3l.07,0,.15-.64-.07,0a14.12,14.12,0,0,1-5.59-5.36,10,10,0,0,0-1.66-2.12,2.76,2.76,0,0,1,2.29.57c.2.18.4.35.6.5l4.1,3-3.83-3.58a7.85,7.85,0,0,0-.61-.51,25.5,25.5,0,0,1-3.73-5.13c-1.49-2.43-2.78-4.53-4.1-4.65a1.7,1.7,0,0,1-1.41-1.09,1.22,1.22,0,0,1,.1-1.22,1.5,1.5,0,0,1,1.53-.58h0a5.31,5.31,0,0,1,2.71,2.23,8.8,8.8,0,0,0,.79,1.15l3,3.73-2.63-4.15c-.25-.4-.51-.77-.76-1.11a8.05,8.05,0,0,1-.88-2.69c-.2-1.1-.39-2.14-1.74-2.59a1.58,1.58,0,0,1-1-1.11,1.47,1.47,0,0,1,.18-1.35,1.21,1.21,0,0,1,1.25-.29,5.85,5.85,0,0,1,3,2.75l.66,1.09-.15-1.26a5.24,5.24,0,0,0-2.12-3.84,8.48,8.48,0,0,1-.87-.83,1.67,1.67,0,0,1-.5-1.24,1.29,1.29,0,0,1,1.09-1,2.82,2.82,0,0,1,2.15.82,7.31,7.31,0,0,1,2.4,3.82l.61,2.68c1.12,5,1.79,7.95,4.87,11.47a35.48,35.48,0,0,1,3.15,4.4c2,3.19,4,6.21,8.94,7.69-1.09,2.28.14,5.49,1.23,8.35a20.81,20.81,0,0,1,1.34,4.35A9.36,9.36,0,0,0,593.52,289.73Z"/>
    <path d="M645,314.45a3.21,3.21,0,0,0,.3-.21A1.82,1.82,0,0,0,645,314.45Z" style="fill: #f9dd16"/>
    <path d="M655.55,310.39c-1.25-1.79-1.53-4-1.25-7.45-6.67-12.25-18.6-9.62-18.74-4.92,4.3,7,4.86,6.46,8.47,8.09s5.82,2.11,3.4,4c-.83.66-4.31-.49-7-.94-6.06-1-8.83-7-10.62-4.59-1.47,2,.05,3.34,3.05,3.87-2.08-.43-4.83-1.17-4.36,1.29.79,4.14,3.91.11,5.12,2-1-.52-2.65-.1-2.71,1.08s2.31,3.24,4.91,1.3a5.65,5.65,0,0,1,4.33-1h0c-1.18,0-.83,2.43-2.43,2.25,3.61.79,5.54.22,7.26-1a1.82,1.82,0,0,1,.3-.21,3.21,3.21,0,0,1-.3.21,4.21,4.21,0,0,0-.94,2.47c2-1.67,6.8-.8,9.3.34s2.91-.22,3.81-2S656.79,312.18,655.55,310.39Z" style="fill: #f9dd16"/>
    <path d="M656.17,310.77l-.42-.58c-1.12-1.61-1.45-3.62-1.16-7.15v-.14l-.07-.12c-4.16-7.65-10.4-9.59-14.48-8.92-2.8.46-4.72,2.1-4.78,4.08v.14l.07.12c3.81,6.21,4.77,6.62,7.36,7.7.38.16.8.33,1.27.55s1,.43,1.41.61c1.31.57,2.67,1.16,2.77,1.6,0,.12,0,.47-.91,1.18-.5.4-2.48,0-4.24-.45-.86-.19-1.77-.39-2.6-.53a14.35,14.35,0,0,1-6.75-3.51c-1.7-1.34-3-2.4-4.07-1a2.21,2.21,0,0,0,.26,3.34,1.71,1.71,0,0,0-1.42.56,1.92,1.92,0,0,0-.21,1.55,3.21,3.21,0,0,0,.92,1.93,1.91,1.91,0,0,0,1.73.28,1.44,1.44,0,0,0-.25.77,2.26,2.26,0,0,0,.78,1.62l-.34,0,.39.09.09.08a3.27,3.27,0,0,0,3.17.63l3,.66c2.94.64,4.8.39,6.31-.36a6.5,6.5,0,0,0-.28,1.37c0,.28,0,.57-.07.86l.55-.46c1.88-1.56,6.54-.77,9,.36s3.13-.1,3.92-1.67c.07-.13.14-.26.2-.4C658.31,313.76,657.27,312.31,656.17,310.77Zm-18.48,4.34-2.28-.26a5.57,5.57,0,0,0,.58-.37,5.34,5.34,0,0,1,3.17-1,5.94,5.94,0,0,0-.27.57C638.62,314.66,638.39,315.19,637.69,315.11Zm19.2,0-.2.4c-.78,1.55-1.21,2.4-3.31,1.45-2.45-1.11-6.65-1.86-8.93-.7a3.23,3.23,0,0,1,.67-1.42l.34-.25,3-2.28-3.32,1.63a1.5,1.5,0,0,0-.4.3,7.35,7.35,0,0,1-5.8,1.14,4,4,0,0,0,.48-.88c.24-.56.41-.9.78-.9h3.42l-3.47-.72a5.9,5.9,0,0,0-4.51,1,3,3,0,0,1-3.83.12,1.49,1.49,0,0,1-.61-1,1,1,0,0,1,.44-.73,2,2,0,0,1,1.5-.25,1.5,1.5,0,0,1,.42.15l.9.46-.62-1c-.65-1-1.65-.72-2.54-.46-.7.2-1.43.41-1.9,0a2.37,2.37,0,0,1-.62-1.39,1.2,1.2,0,0,1,.11-1c.46-.61,1.9-.37,3.19-.1.27.07.54.12.79.17l21.82,3.85q-10.92-2.26-21.83-4.56l-.37-.08-.42-.09c-1.34-.34-2.23-.86-2.47-1.48a1.81,1.81,0,0,1,.44-1.6c.73-1,1.61-.35,3.37,1.05a15.56,15.56,0,0,0,7,3.63c.81.13,1.71.33,2.57.53,2.12.47,4,.89,4.61.36.89-.71,1.22-1.27,1.1-1.86-.19-.9-1.34-1.39-3.23-2.21-.44-.18-.9-.39-1.4-.61s-.9-.39-1.28-.55c-2.49-1.05-3.34-1.4-6.95-7.27.14-1.6,1.91-3,4.37-3.39,4.06-.66,9.81,1.2,13.78,8.41-.28,3.69.1,5.83,1.35,7.61q.21.32.42.6C656.93,312.81,657.55,313.79,656.89,315.07Z"/>
    <path d="M638.61,295.47l6.69,2.38C643.14,296.41,641.15,295.39,638.61,295.47Z" style="fill: #f9dd16"/>
    <path d="M638.55,295.12l.12.71c2.4-.08,4.28.83,6.53,2.33.07-.21.14-.42.2-.62C643.12,296,641.08,295,638.55,295.12Z"/>
    <path d="M612.22,298.51q.21-4.51.44-9C610.87,293.75,612,296.29,612.22,298.51Z" style="fill: #f9dd16"/>
    <path d="M612.39,289.27a12.43,12.43,0,0,0-.67,7.93c.08.45.16.88.21,1.3l.57,0c0-.44-.13-.89-.22-1.36a11.55,11.55,0,0,1,.64-7.48Z"/>
    <path d="M593.68,263.28c.4.43.81.86,1.22,1.28,1.38,1.88,2-.37,2.48.39C595.59,262.33,594.9,264.29,593.68,263.28Z" style="fill: #f9dd16"/>
    <path d="M597.56,264.71c-1.2-1.73-2-1.61-2.68-1.51a1.18,1.18,0,0,1-1.07-.21c-.09.19-.18.38-.26.57a1.68,1.68,0,0,0,1.5.35,1.53,1.53,0,0,1,1.68.65,1.4,1.4,0,0,0-.18.13c-.42.31-.78.57-1.45-.34l-.4.43c1,1.4,1.79.84,2.2.54a1.72,1.72,0,0,1,.27-.18h0l13.74,20.08L597.6,264.76Z"/>
    <path d="M600,265.51c.5-.55,1.11,2,2.49.68l1.22-.76C602.44,265.91,601.75,263.66,600,265.51Z" style="fill: #f9dd16"/>
    <path d="M602.46,264.83a1.86,1.86,0,0,0-2.69.36l0,0q-6.62,7.32-13.24,14.64,6.82-7,13.66-14.06h0a2,2,0,0,1,.27.29c.42.48,1.18,1.37,2.21.41l-.4-.6c-.67.63-1,.2-1.45-.29l-.18-.2a1.32,1.32,0,0,1,1.68.07,1.69,1.69,0,0,0,1.5.31c-.08-.23-.17-.46-.26-.69C603.16,265.24,602.85,265.06,602.46,264.83Z"/>
    <path d="M600,265.51l-2.57-.56c.42.51.47-.24.14,1.69-.59,3.53-1.34,5.08,1.15,5.62s1.73-1.34,1.14-5.13C599.49,265.07,599.53,265.84,600,265.51Z" style="fill: #f9dd16"/>
    <path d="M600.09,267.12c0-.24-.07-.49-.11-.74s-.06-.33-.07-.44a.73.73,0,0,0,.23-.12l-.37-.63a.23.23,0,0,1-.15.07c-.39,0-.34.36-.21,1.14l.12.74c.08.52.16,1,.24,1.46.28,1.6.47,2.75.16,3.16-.19.24-.6.29-1.26.14a1.8,1.8,0,0,1-1.29-.69c-.31-.53-.11-1.55.16-3,.08-.45.17-.94.26-1.47,0-.24.08-.47.13-.7.12-.72.18-1-.22-1.23a.42.42,0,0,1-.15-.12l-.36.46a.77.77,0,0,0,.23.22c0,.11,0,.24-.07.4l-.12.71c-.09.53-.18,1-.27,1.46-.31,1.66-.52,2.76,0,3.59a2.39,2.39,0,0,0,1.74,1.05c.86.18,1.4.09,1.71-.31.49-.63.28-1.86,0-3.72C600.26,268.13,600.18,267.65,600.09,267.12Z"/>
    <path d="M602.35,272.55c.55,2.82-3.65,1.65-3.65.43,0,1.22-4.19.58-3.64-2-.52,2.09,1,2.95.83,4.28-.31,3.31.84,3.6,2.81,4s3.12.63,2.82-2.82C601.39,275.08,602.87,274.86,602.35,272.55Z" style="fill: #ff0016"/>
    <path d="M600.27,262.71c.65,3.28,1.29,6.57,1.94,9.85a1.24,1.24,0,0,1-.32,1.29,2.55,2.55,0,0,1-2.69-.32c-.13-.11-.35-.31-.35-.52l-.29-.06c0,.21-.22.32-.35.36a2.8,2.8,0,0,1-2.69-.84,1.59,1.59,0,0,1-.32-1.42l1.92-8.94q-1.11,4.39-2.2,8.78a3.9,3.9,0,0,0,.44,2.9,2.79,2.79,0,0,1,.39,1.41,4.77,4.77,0,0,0,.39,3c.52.83,1.47,1,2.56,1.27s2,.44,2.57-.16.52-1.35.39-2.82a1.91,1.91,0,0,1,.39-1.24,3.14,3.14,0,0,0,.44-2.7ZM601.81,275a2.16,2.16,0,0,0-.44,1.46c.12,1.36,0,2.17-.32,2.56s-1.32.31-2.35.09-1.91-.41-2.35-1.1a4.45,4.45,0,0,1-.32-2.7,3.09,3.09,0,0,0-.43-1.65,5.13,5.13,0,0,1-.45-1.21,1.85,1.85,0,0,0,.19.27,3.12,3.12,0,0,0,3,1,.82.82,0,0,0,.37-.24,1.67,1.67,0,0,0,.37.4,2.8,2.8,0,0,0,3,.34,1.13,1.13,0,0,0,.19-.19A3.29,3.29,0,0,1,601.81,275Z"/>
    <path d="M596.93,272.06l-4.75-2.64" style="fill: #ff0016"/>
    <path d="M592.14,269.58l4.75,2.64.08-.32-4.75-2.64C592.19,269.37,592.17,269.48,592.14,269.58Z"/>
    <path d="M596.93,272.36l-5.3-1.2" style="fill: #ff0016"/>
    <path d="M591.62,271.34l5.31,1.19v-.35l-5.3-1.19Z"/>
    <path d="M597,272.7l-4.53.5" style="fill: #ff0016"/>
    <path d="M592.42,273c0,.12.05.24.07.36l4.52-.5c0-.12,0-.24-.07-.36Z"/>
    <path d="M600.48,272.83l4.75-.59" style="fill: #ff0016"/>
    <path d="M600.44,272.65c0,.12.06.23.08.35l4.75-.58c0-.12,0-.24-.08-.36Z"/>
    <path d="M600.48,273.13l5.31,1.09" style="fill: #ff0016"/>
    <path d="M600.48,273v.35l5.31,1.1c0-.12,0-.24,0-.36Z"/>
    <path d="M600.43,273.44,605,275.9" style="fill: #ff0016"/>
    <path d="M600.39,273.61l4.52,2.45c0-.11.05-.22.08-.32l-4.52-2.46C600.44,273.39,600.42,273.5,600.39,273.61Z"/>
    <path d="M574.11,249.9a2.62,2.62,0,0,0-4.9,1.23c1.16-1.43,3.07,1.39,4.11,1.1a1.65,1.65,0,0,0,.79-2.33Z" style="fill: #0051ba"/>
    <path d="M574.14,249.88a2.59,2.59,0,0,0-2.79-1.31,2.65,2.65,0,0,0-2.17,2.56v.1l.06-.07c.68-.84,1.61-.2,2.51.42a4.17,4.17,0,0,0,1.25.69.65.65,0,0,0,.34,0,1.56,1.56,0,0,0,1-1.18,1.67,1.67,0,0,0-.17-1.21Zm.12,1.18a1.56,1.56,0,0,1-1,1.14c-.41.11-1-.27-1.55-.68a4.48,4.48,0,0,0-1.5-.8,1,1,0,0,0-1,.32,2.58,2.58,0,0,1,2.13-2.39,2.52,2.52,0,0,1,2.72,1.27A1.59,1.59,0,0,1,574.26,251.06Z"/>
    <path d="M572.32,254.47a2.62,2.62,0,0,0-4.9,1.24c1.16-1.44,3.07,1.39,4.11,1.1a1.65,1.65,0,0,0,.79-2.34Z" style="fill: #0051ba"/>
    <path d="M569.56,253.15a2.64,2.64,0,0,0-2.17,2.55v.11l.05-.07c.68-.84,1.61-.2,2.51.42a4.17,4.17,0,0,0,1.25.69.77.77,0,0,0,.34,0,1.57,1.57,0,0,0,1-1.18,1.69,1.69,0,0,0-.18-1.21A2.6,2.6,0,0,0,569.56,253.15Zm2.91,2.48a1.52,1.52,0,0,1-1,1.14c-.41.11-1-.27-1.55-.67a4.81,4.81,0,0,0-1.5-.81,1,1,0,0,0-1,.33,2.59,2.59,0,0,1,2.13-2.4,2.52,2.52,0,0,1,2.72,1.27A1.59,1.59,0,0,1,572.47,255.63Z"/>
    <path d="M571.42,260.94c-1.56-2.23-4.83-.68-4.66,1.94,1-1.62,3.12,1,4.11.53a1.76,1.76,0,0,0,.55-2.47Z" style="fill: #0051ba"/>
    <path d="M571.44,260.91a2.39,2.39,0,0,0-2.83-.93,2.85,2.85,0,0,0-1.88,2.9V263l0-.08c.59-1,1.56-.43,2.49.07.62.33,1.21.65,1.61.47a1.69,1.69,0,0,0,.85-1.34,1.66,1.66,0,0,0-.28-1.18Zm.23,1.18a1.65,1.65,0,0,1-.82,1.29c-.38.17-1-.14-1.57-.47-.88-.47-1.88-1-2.5-.13a2.8,2.8,0,0,1,1.86-2.73,2.4,2.4,0,0,1,1.28-.1,2.48,2.48,0,0,1,1.47,1v0A1.56,1.56,0,0,1,571.67,262.09Z"/>
    <path d="M573.07,281.9c-1.73-2-4.77,0-4.36,2.65.83-1.79,3.13.53,4-.06a1.89,1.89,0,0,0,.31-2.59Z" style="fill: #0051ba"/>
    <path d="M573.08,281.87h0a2.21,2.21,0,0,0-2.84-.53,3.11,3.11,0,0,0-1.56,3.21l0,.1,0-.08c.48-1.05,1.47-.66,2.43-.29.63.25,1.23.49,1.61.25a1.87,1.87,0,0,0,.7-1.48,1.68,1.68,0,0,0-.39-1.17Zm-.34,2.59c-.35.23-.94,0-1.57-.25-.9-.35-1.92-.76-2.44.23a3,3,0,0,1,1.55-3,2.17,2.17,0,0,1,1.51-.25,2.28,2.28,0,0,1,1.26.77h0a1.58,1.58,0,0,1,.36,1.09A1.78,1.78,0,0,1,572.74,284.46Z"/>
    <path d="M573,286.4c-2.06-1.37-4.28,1.84-3.24,4.33.29-2.11,2.94-.67,3.62-1.61A2.16,2.16,0,0,0,573,286.4Z" style="fill: #0051ba"/>
    <path d="M573,286.36a2,2,0,0,0-2.69.56,3.86,3.86,0,0,0-.59,3.82l0,.11,0-.11c.17-1.23,1.15-1.23,2.1-1.22.64,0,1.24,0,1.52-.38a2.29,2.29,0,0,0,.25-1.74A1.62,1.62,0,0,0,573,286.36Zm.35,2.73c-.27.37-.85.36-1.48.36-.9,0-1.92,0-2.14,1.17a3.78,3.78,0,0,1,.63-3.64,2,2,0,0,1,2-.83,1.81,1.81,0,0,1,.65.28,1.58,1.58,0,0,1,.62,1A2.3,2.3,0,0,1,573.34,289.09Z"/>
    <path d="M575.64,290.33h0c-2.07-1.37-4.29,1.84-3.25,4.33.29-2.11,3-.66,3.63-1.61A2.16,2.16,0,0,0,575.64,290.33Z" style="fill: #0051ba"/>
    <path d="M575.78,290.4h0l-.16-.1a1.94,1.94,0,0,0-2.69.55,3.85,3.85,0,0,0-.6,3.83l0,.1,0-.11c.17-1.23,1.15-1.22,2.11-1.22.63,0,1.23,0,1.51-.37a2.36,2.36,0,0,0,.26-1.75A1.72,1.72,0,0,0,575.78,290.4ZM576,293c-.26.37-.85.37-1.47.36-.91,0-1.93,0-2.15,1.17a3.8,3.8,0,0,1,.63-3.64,2,2,0,0,1,2-.83,1.88,1.88,0,0,1,.63.27h0a1.55,1.55,0,0,1,.61,1A2.23,2.23,0,0,1,576,293Z"/>
    <path d="M629.84,308.57c-2.07-1.38-4.28,1.81-3.24,4.31.29-2.11,2.94-.65,3.62-1.59A2.16,2.16,0,0,0,629.84,308.57Z" style="fill: #0051ba"/>
    <path d="M629.85,308.54a1.93,1.93,0,0,0-2.69.54,3.81,3.81,0,0,0-.59,3.81l0,.1,0-.1c.17-1.23,1.15-1.22,2.1-1.2.64,0,1.24,0,1.51-.37a2.32,2.32,0,0,0,.26-1.75A1.6,1.6,0,0,0,629.85,308.54Zm.35,2.72c-.27.37-.86.36-1.48.35-.9,0-1.92,0-2.14,1.16a3.75,3.75,0,0,1,.63-3.64,2,2,0,0,1,2-.81,1.81,1.81,0,0,1,.65.28,1.57,1.57,0,0,1,.62,1A2.28,2.28,0,0,1,630.2,311.26Z"/>
    <path d="M632.64,312.24h0c-2.15-1.11-4,2.45-2.76,4.83.08-2.18,2.81-1.07,3.38-2.13A2.21,2.21,0,0,0,632.64,312.24Z" style="fill: #0051ba"/>
    <path d="M632.64,312.2a1.92,1.92,0,0,0-2.56.93,4.1,4.1,0,0,0-.23,4l.06.1v-.11c.05-1.28,1-1.4,1.94-1.52.62-.08,1.2-.16,1.44-.59a2.53,2.53,0,0,0,.08-1.81A1.59,1.59,0,0,0,632.64,312.2Zm.59,2.72c-.22.41-.79.49-1.4.56-.88.12-1.88.25-2,1.48a4,4,0,0,1,.26-3.77,1.93,1.93,0,0,1,2.07-1.08,1.91,1.91,0,0,1,.44.16,1.52,1.52,0,0,1,.69.9A2.42,2.42,0,0,1,633.23,314.92Z"/>
    <path d="M630.67,304.42h0c-1.91-1.76-4.61.81-3.9,3.42.59-1.95,3.08,0,3.91-.74A2,2,0,0,0,630.67,304.42Z" style="fill: #0051ba"/>
    <path d="M630.69,304.39a2.07,2.07,0,0,0-2.82-.06,3.41,3.41,0,0,0-1.13,3.52l0,.1,0-.09c.34-1.15,1.34-.92,2.31-.7.64.14,1.25.28,1.59,0a2.08,2.08,0,0,0,.5-1.62A1.72,1.72,0,0,0,630.69,304.39Zm0,2.68c-.28.26-.77.18-1.32.06l-.45-.1c-.85-.18-1.75-.3-2.11.7a3.32,3.32,0,0,1,1.14-3.34,2,2,0,0,1,1.76-.47,2.2,2.2,0,0,1,1,.52,1.65,1.65,0,0,1,.48,1.07A2,2,0,0,1,630.65,307.07Z"/>
    <path d="M669.23,318.07h0c-2.14-1.1-4,2.46-2.75,4.84.08-2.18,2.81-1.08,3.38-2.14A2.2,2.2,0,0,0,669.23,318.07Z" style="fill: #0051ba"/>
    <path d="M669.24,318a1.93,1.93,0,0,0-2.57.94,4.13,4.13,0,0,0-.22,4l0,.1v-.11c0-1.28,1-1.4,1.94-1.53.62-.08,1.2-.16,1.43-.59A2.48,2.48,0,0,0,670,319,1.59,1.59,0,0,0,669.24,318Zm.59,2.72c-.22.41-.79.49-1.4.57-.88.12-1.88.25-2,1.48a4.08,4.08,0,0,1,.27-3.78,1.94,1.94,0,0,1,2.07-1.07,1.63,1.63,0,0,1,.44.15,1.52,1.52,0,0,1,.69.9A2.47,2.47,0,0,1,669.83,320.75Z"/>
    <path d="M669.3,313.94h0c-1.95-1.68-4.55,1-3.78,3.62.53-2,3.07-.13,3.86-.92A2.07,2.07,0,0,0,669.3,313.94Z" style="fill: #0051ba"/>
    <path d="M669.31,313.91a2,2,0,0,0-2.79.07,3.5,3.5,0,0,0-1,3.59l0,.11,0-.1c.31-1.17,1.31-1,2.28-.81.64.12,1.24.23,1.57-.1a2.12,2.12,0,0,0,.46-1.65A1.72,1.72,0,0,0,669.31,313.91Zm.05,2.7c-.31.31-.91.2-1.54.09-.91-.17-2-.36-2.3.75a3.48,3.48,0,0,1,1-3.41,2.08,2.08,0,0,1,1.81-.54,2.18,2.18,0,0,1,.92.47,1.67,1.67,0,0,1,.51,1A2.06,2.06,0,0,1,669.36,316.61Z"/>
    <path d="M670.8,322.11c-2.16-1-3.87,2.7-2.56,5,0-2.2,2.75-1.25,3.28-2.34C671.89,324,671.69,322.51,670.8,322.11Z" style="fill: #0051ba"/>
    <path d="M670.81,322.07a1.86,1.86,0,0,0-.38-.12,2,2,0,0,0-2.13,1.21,4.22,4.22,0,0,0-.08,4l0,.1v-.11c0-1.29,1-1.47,1.87-1.64.61-.12,1.19-.23,1.4-.68a2.58,2.58,0,0,0,0-1.82A1.58,1.58,0,0,0,670.81,322.07Zm.68,2.7c-.2.43-.77.54-1.37.65-.87.17-1.85.36-1.9,1.61a4.21,4.21,0,0,1,.13-3.82,1.92,1.92,0,0,1,2.09-1.18,1.37,1.37,0,0,1,.36.11,1.43,1.43,0,0,1,.71.88A2.44,2.44,0,0,1,671.49,324.77Z"/>
    <path d="M598.86,277.28c-1.21-.26-1.79-.11-1.79,1.47.41-.11.41,1.1.41,3.52,0,4.64-.12,7.2,1.56,7.56s1.73-2.34,1.73-8.67C600.77,278.18,600.22,277.58,598.86,277.28Z" style="fill: #0051ba"/>
    <path d="M598.86,277.25h0c-1.23-.27-1.81-.11-1.82,1.49v.06h.05a.11.11,0,0,1,.13,0c.23.23.23,1.44.23,3.44v.85c0,3.11,0,5.17.67,6.15a1.5,1.5,0,0,0,.92.61c1.76.38,1.76-2.66,1.76-8.7C600.8,278.15,600.23,277.54,598.86,277.25Zm.18,12.54a1.4,1.4,0,0,1-.88-.58c-.66-.95-.66-3-.65-6.09v-.85c0-2.09,0-3.24-.26-3.5l-.09-.06h0c0-1.51.55-1.65,1.75-1.39a1.92,1.92,0,0,1,1.44.91,6.52,6.52,0,0,1,.44,2.93C600.74,287.56,600.67,290.15,599,289.79Z"/>
    <path d="M673.18,374.94c-1.45-1.86-.41-5.15-2.74-7.48.78.09,2.28,1.61,2.69,3.11-.36-3.25-.73-5.37-2.64-7.54.21.37,1.29.88,1.76.38a5.87,5.87,0,0,1-1.5-4.26c.15-1.55-.62-2-2.07-1.85a25,25,0,0,1-6-.6c-3.62-.78-6.77-1.46-9.77-4.93,4.5,3.51,10.23-.6,10.23-5,0-4.92-4.44-9.89-13.43-9.17s-19.94-2.8-19.94-6.88,7.85-2.93,11.88-1.21,6.92,2.92,14.47.89c-1.86.59-7.86-.43-12.61-3.3s-16.43-5.41-16.53,3.15,12.43,10.52,23.25,10.7c6.3.1,9.61,1.66,9.61,4.48s-5.79,2.55-10.23.88a25.86,25.86,0,0,0-14.26-1.56c-4.4.8-7.44-1.62-12.3-1.56-2.36,0-8.06-1.75-10.88-8.7-1.73,1.31-7,3.72-7.83,7-1.24,2.89-.41,6.22,1.24,9.68,2.09,4.35-1,3.08-3.25,2.74-3-.46-7.12-2-9.25-5.72-1.89-3.32-4.39-6.2-6.4-4.47-1,.89,0,2.57.78,2.34s1.76.78,2.62,1.48a2.71,2.71,0,0,0-3.48-.21c-.82.83.17,2.94,1.16,2.48a2.78,2.78,0,0,1,3.39,1.14c-1.12-.54-2.28-.72-2.84,0a1.41,1.41,0,0,0,1.08,2.16c1.93.3,2.43,2.25,4.36,2.29a2.31,2.31,0,0,0-2.17,1.22c1.81-.74,3.81,2.73,6.15,2.52-.91.32-2.39,1.23-2.38,2.17,1.4-1.89,10.75,4,11-.73a4.82,4.82,0,0,1-.52,3.62c1.2-.73,5.07-.24,6.25-3.79.11,1.15,0,2.6-.77,2.79,1.24.83,2.87-.08,4.54-3.09a4.72,4.72,0,0,0,.71-3.08,3.94,3.94,0,0,0,4.15-1.07c1.35-1.26,2.79,1.87,5.06.4s4.24.64,5.48-.07,3,1,4.29.16,3.43,1.3,5.65-.61c3.5,2.5,7.59,6.63,17.6,6.29,5.75-.19,7.55,2.83,7.55,6.42,0,2.46-1.06,2.45-1.86,2.34-3.2-.42-4.57-2.61-5.83-2.28a1.72,1.72,0,0,0-.14,2.9,1.6,1.6,0,0,0-.36,2.43c.51.59,1.84.44,2.75.06-1.16.47-2.37,1.5-1.68,3,.42.91,1.47,1.83,2.45.3s2.79-2.62,3.94-2.14h0c-1.08.12-1.08,2-1.65,1.9,2.61.46,4-.17,4.83-1.66a1,1,0,0,1,.21-.36c-.07.13-.14.24-.21.36-.26.75.1,1.93-.08,2.19A3.39,3.39,0,0,0,671,373,4.81,4.81,0,0,0,673.18,374.94Z" style="fill: #f9dd16"/>
    <path d="M668.71,375.3c.07-.12.14-.23.21-.36A1,1,0,0,0,668.71,375.3Z" style="fill: #f9dd16"/>
    <path d="M664.45,376.28c.21-.51.48-1.14,1.08-1.21v0a1,1,0,0,0-.25-.08c-1.11-.24-2.73.71-3.7,2.22-.4.62-.85.89-1.31.79h0a1.9,1.9,0,0,1-1.09-1.08,1.87,1.87,0,0,1-.16-1.23,2.83,2.83,0,0,1,.11-.31,1.57,1.57,0,0,0-.12.3,1.86,1.86,0,0,0,.15,1.25,1.92,1.92,0,0,0,1.11,1.09h0c.47.1.93-.18,1.33-.8,1-1.5,2.58-2.45,3.68-2.22l.21.06c-.59.1-.85.72-1.06,1.22a1.8,1.8,0,0,1-.33.6A1.83,1.83,0,0,0,664.45,376.28Z"/>
    <path d="M659.1,375.36l0-.06Z"/>
    <path d="M672.23,371.9a7.36,7.36,0,0,0-1.76-4.43h0a5,5,0,0,1,2.62,3.09h0c-.35-3.12-.69-5.2-2.43-7.3a1.86,1.86,0,0,0,.63.31l.09,0a.88.88,0,0,0,.83-.18h0a5.89,5.89,0,0,1-1.49-4.25,1.92,1.92,0,0,0-.29-1.43,1.9,1.9,0,0,0-1.79-.44,24.77,24.77,0,0,1-6-.59c-3.6-.78-6.72-1.45-9.69-4.85a5.9,5.9,0,0,0,3.39,1.26,6.23,6.23,0,0,0,3.29-.83,6.57,6.57,0,0,0,3.48-5.53,8.45,8.45,0,0,0-2-5.47c-2.39-2.8-6.44-4.12-11.4-3.72-7.44.6-16.37-1.71-19.12-4.93a3,3,0,0,1-.81-1.94,2.24,2.24,0,0,1,.85-1.85c2.14-1.73,7.78-.73,11,.65,3.95,1.69,6.81,2.91,14.28.95l.19-.06v0l-.19,0c-2.06.47-7.81-.58-12.41-3.35a20.55,20.55,0,0,0-6-2.28c-.35-.08-.7-.15-1-.2-2.14-.35-5.13-.48-7.21.89a5.37,5.37,0,0,0-2.28,4.75,7.13,7.13,0,0,0,1.56,4.68c3,3.81,10.31,5.85,21.7,6,4.64.08,7.64.92,8.92,2.52a3,3,0,0,1,.68,1.94,1.57,1.57,0,0,1-.58,1.23c-1.64,1.4-6.29.9-9.64-.36a25.68,25.68,0,0,0-14.27-1.55,14.12,14.12,0,0,1-6.51-.65,20.72,20.72,0,0,0-5.78-.91c-2,0-8-1.48-10.87-8.69v0h0c-.4.3-1,.66-1.66,1.08-2.19,1.35-5.5,3.39-6.17,5.9-1.1,2.55-.7,5.63,1.23,9.69.64,1.32.83,2.2.59,2.69-.35.72-1.63.47-2.86.22l-1-.18a15.62,15.62,0,0,1-5-1.63,10.6,10.6,0,0,1-4.27-4.09c-1.1-1.92-2.75-4.33-4.44-4.88a2,2,0,0,0-2,.41,1.34,1.34,0,0,0-.3,1.63c.25.53.7.84,1.08.73.66-.2,1.42.46,2.15,1.09l.21.18a2.64,2.64,0,0,0-3.23,0,1.64,1.64,0,0,0,0,1.86c.24.44.7.87,1.2.64a2.77,2.77,0,0,1,3.36,1.1c-1.3-.61-2.33-.61-2.81,0a1.23,1.23,0,0,0-.15,1.22,1.52,1.52,0,0,0,1.13.95l.1,0,.17,0a4.2,4.2,0,0,1,1.93,1.14,3.89,3.89,0,0,0,1.75,1.05l.23,0a2.34,2.34,0,0,0-1.9,1.22v0l0,0c.92-.37,1.89.34,2.92,1.1a5.3,5.3,0,0,0,3.14,1.43c-1,.36-2.31,1.25-2.29,2.14v0c.57-.77,2.48-.24,4.5.32,2.95.82,6.28,1.75,6.45-1a4.81,4.81,0,0,1-.53,3.55l0,0a5.34,5.34,0,0,1,1.49-.44c1.64-.33,3.88-.78,4.75-3.31.1,1.24-.1,2.55-.78,2.73h0c1.31.88,3-.25,4.55-3.09a4.75,4.75,0,0,0,.71-3.08l.31.08a3.91,3.91,0,0,0,3.84-1.15c.61-.58,1.25-.23,2,.18s1.85,1,3.08.22a3.88,3.88,0,0,1,3.58-.19,2.42,2.42,0,0,0,1.9.12,2.48,2.48,0,0,1,2,.1,2.7,2.7,0,0,0,2.27.06,2.2,2.2,0,0,1,1.69-.08l.56.13a3.53,3.53,0,0,0,3.39-.66c.41.29.82.6,1.25.93a26.92,26.92,0,0,0,6.09,3.72,24.16,24.16,0,0,0,10.27,1.65c2.88-.1,5,.61,6.2,2.1a6.56,6.56,0,0,1,1.33,4.3c0,2.57-1.21,2.42-1.85,2.33a9.25,9.25,0,0,1-3.86-1.56c-.78-.49-1.39-.87-2-.72a1.48,1.48,0,0,0-.87,1.45,1.75,1.75,0,0,0,.71,1.46,1.33,1.33,0,0,0-.74,1.18,1.84,1.84,0,0,0,.39,1.25c.45.52,1.52.49,2.43.2a3,3,0,0,0-1.36,1.25,3.2,3.2,0,0,1,1.64-1.35l.05,0v0l0,0c-1,.38-2.19.48-2.69-.08a1.8,1.8,0,0,1-.38-1.24,1.3,1.3,0,0,1,.75-1.17h0a1.72,1.72,0,0,1-.71-1.45,1.45,1.45,0,0,1,.85-1.42c.58-.16,1.19.23,2,.71a9.75,9.75,0,0,0,3.25,1.46l.62.11c.65.08,1.87.24,1.87-2.36a6.57,6.57,0,0,0-1.33-4.31c-1.25-1.51-3.34-2.21-6.23-2.12a24.14,24.14,0,0,1-10.26-1.64,26.84,26.84,0,0,1-6.08-3.72l-1.25-.93h0a3.5,3.5,0,0,1-3.39.65l-.29-.06a2.52,2.52,0,0,0-2,0,2.69,2.69,0,0,1-2.25-.06,2.53,2.53,0,0,0-2-.11,2.43,2.43,0,0,1-1.89-.11,3.87,3.87,0,0,0-3.59.19c-1.22.79-2.2.25-3.06-.22s-1.38-.76-2-.18A3.87,3.87,0,0,1,616.8,357l-.32-.08h0v0a4.77,4.77,0,0,1-.7,3.07c-1.57,2.82-3.21,3.95-4.51,3.11.67-.21.86-1.55.75-2.8h0c-.85,2.56-3.1,3-4.75,3.34a5.32,5.32,0,0,0-1.45.41,4.88,4.88,0,0,0,.49-3.58h0c-.12,2.8-3.48,1.87-6.44,1-2-.56-3.91-1.08-4.5-.35,0-.89,1.42-1.79,2.37-2.12v0c-1.15.1-2.2-.67-3.22-1.42s-2-1.46-2.9-1.11a2.29,2.29,0,0,1,2.09-1.19h.05v0h-.05a3.41,3.41,0,0,1-2.2-1.11,4.3,4.3,0,0,0-1.94-1.15l-.17,0-.1,0a1.5,1.5,0,0,1-1.12-.93,1.22,1.22,0,0,1,.15-1.19c.49-.61,1.52-.6,2.83,0h0l0,0a2.8,2.8,0,0,0-3.41-1.14c-.49.23-.94-.2-1.18-.63a1.64,1.64,0,0,1,0-1.83,2.71,2.71,0,0,1,3.48.21v0h0c-.16-.12-.31-.26-.47-.39-.73-.63-1.5-1.29-2.17-1.1-.42.13-.85-.26-1-.7a1.32,1.32,0,0,1,.29-1.61,1.94,1.94,0,0,1,2-.41c1.68.55,3.33,2.95,4.42,4.87a10.68,10.68,0,0,0,4.29,4.1,15.6,15.6,0,0,0,5,1.64c.31,0,.65.11,1,.17,1.24.25,2.52.51,2.88-.23.24-.49.05-1.38-.59-2.71-1.93-4.05-2.33-7.12-1.24-9.67.68-2.5,4-4.54,6.17-5.89.67-.41,1.25-.77,1.65-1.07,2.93,7.21,8.85,8.72,10.88,8.7a20.72,20.72,0,0,1,5.78.91,14.28,14.28,0,0,0,6.52.64,25.51,25.51,0,0,1,14.25,1.56c3.36,1.26,8,1.75,9.66.35a1.57,1.57,0,0,0,.59-1.24,3.1,3.1,0,0,0-.68-2c-1.29-1.6-4.3-2.45-8.94-2.52-11.39-.19-18.69-2.22-21.69-6a7.14,7.14,0,0,1-1.55-4.66,5.34,5.34,0,0,1,2.27-4.73c2.08-1.38,5.06-1.25,7.2-.9l1,.2a21.36,21.36,0,0,1,6,2.28c4.39,2.65,9.83,3.72,12.11,3.41-7.24,1.86-10.07.65-14-1-3.25-1.39-8.89-2.39-11-.65a2.29,2.29,0,0,0-.86,1.87,3,3,0,0,0,.82,1.95c2.75,3.23,11.69,5.54,19.13,4.94,5-.39,9,.93,11.39,3.72a8.42,8.42,0,0,1,2,5.44,6.57,6.57,0,0,1-3.47,5.52,6.18,6.18,0,0,1-3.28.82,5.85,5.85,0,0,1-3.46-1.31v0c3,3.47,6.14,4.15,9.77,4.93a24.89,24.89,0,0,0,6.05.6,1.84,1.84,0,0,1,1.77.43,1.91,1.91,0,0,1,.28,1.41,5.93,5.93,0,0,0,1.49,4.26.85.85,0,0,1-.8.16l-.09,0a1.86,1.86,0,0,1-.7-.36l-.14-.16h0a1.14,1.14,0,0,0,.15.17c1.77,2.09,2.13,4.16,2.48,7.25a5,5,0,0,0-2.6-3h-.1l0,0a7.15,7.15,0,0,1,1.78,4.43,6.52,6.52,0,0,0,.94,3A4.79,4.79,0,0,1,671,373h0a3.28,3.28,0,0,1,.07,2.23,3.4,3.4,0,0,1-2.36,2.25,2.19,2.19,0,0,0,0-.74,4,4,0,0,1,0-1.34l.24-.44,0,0a1,1,0,0,0-.23.44c-.92,1.5-2.35,2-4.68,1.6,0,0,0-.05,0-.06a.21.21,0,0,1-.15,0h0v0h0c2.37.42,3.83,0,4.76-1.53a4.29,4.29,0,0,0,0,1.29,1.56,1.56,0,0,1,0,.75l0,0h0a3.43,3.43,0,0,0,2.4-2.27,3.32,3.32,0,0,0,0-2.09,5,5,0,0,0,2.15,1.81l0,0,0,0A6.28,6.28,0,0,1,672.23,371.9ZM668.87,375a1.17,1.17,0,0,0-.15.27A1.17,1.17,0,0,1,668.87,375Z"/>
    <path d="M664.1,376.87l-.05,0Z"/>
    <path d="M598.7,324.92a14.71,14.71,0,0,0,1.68,4.55c0-1.33.39-5,1.52-5.4C599,321.82,598,321.57,598.7,324.92Z" style="fill: #f9dd16"/>
    <path d="M598.74,322.47c-.32.26-.34,1,0,2.45a14.8,14.8,0,0,0,1.68,4.56l0,0v0c0-1.58.44-5,1.52-5.4h0C600.3,322.81,599.21,322.11,598.74,322.47Zm1.63,7a14.73,14.73,0,0,1-1.66-4.52c-.29-1.42-.27-2.17,0-2.42a.56.56,0,0,1,.49-.08,8.88,8.88,0,0,1,2.63,1.64C600.74,324.56,600.4,328.17,600.37,329.44Z"/>
    <path d="M610.94,326c1.14,1,1.5,4.72,1.53,6.07a9.66,9.66,0,0,0,1.68-3.83C614.82,325.21,613.84,325,610.94,326Z" style="fill: #f9dd16"/>
    <path d="M610.94,326h0l0,0c1.08.9,1.49,4.47,1.52,6v0a9.56,9.56,0,0,0,1.69-3.82c.28-1.31.27-2.08-.06-2.47C613.64,325.24,612.55,325.46,610.94,326Zm3.2,2.25a9.71,9.71,0,0,1-1.66,3.8c0-1.6-.44-5.11-1.51-6,1.59-.54,2.67-.76,3.12-.21C614.41,326.21,614.42,327,614.14,328.27Z"/>
    <path d="M606.44,322.89c-5.48-1.19-6.16,2.16-6.14,6.53,0,4.72,1.89,3.51,2.94,9.79a3.44,3.44,0,0,0,3.2,3.19c1.39.3,2.77.47,3.19-1.81,1.06-5.82,2.92-3.8,2.94-8.51C612.6,327.73,611.91,324.07,606.44,322.89Z" style="fill: #f9dd16"/>
    <polygon points="606.44 322.88 606.44 322.88 606.44 322.89 606.44 322.88" style="fill: #f9dd16"/>
    <path d="M606.44,322.87h0c-2.24-.48-3.8-.24-4.77.75-1.23,1.24-1.39,3.52-1.38,5.8a7.37,7.37,0,0,0,1.12,4.36,14.42,14.42,0,0,1,1.82,5.43,3.73,3.73,0,0,0,1.24,2.41,4.68,4.68,0,0,0,2,.79c1.45.32,2.79.42,3.2-1.81a9.32,9.32,0,0,1,1.83-4.63c.61-.83,1.1-1.49,1.11-3.89s-.14-4.62-1.37-6.39A7.39,7.39,0,0,0,606.44,322.87Zm5,13.08a9.47,9.47,0,0,0-1.83,4.64c-.4,2.21-1.68,2.12-3.18,1.8s-2.78-.79-3.19-3.18a14.37,14.37,0,0,0-1.83-5.44,7.34,7.34,0,0,1-1.11-4.35c0-2.27.15-4.55,1.37-5.78,1-1,2.53-1.23,4.76-.74a7.3,7.3,0,0,1,4.75,2.8c1.23,1.77,1.38,4.11,1.37,6.38S612.06,335.12,611.45,336Z"/>
    <polygon points="592.32 337.13 592.32 337.13 592.32 337.13 592.32 337.13" style="fill: #f9dd16"/>
    <path d="M588.54,327.78a6,6,0,0,0,.52.84C588.89,328.31,588.71,328,588.54,327.78Z" style="fill: #f9dd16"/>
    <path d="M604.72,342.41c-5.58-1.53-6-5.83-9.25-9.88-2.62-3.29-2.85-6.1-4-11.54-.53-2.46-2.55-4.35-3.67-4-1,.28-1.33,1.36-.49,2.4s1.91,1.39,2.14,3.63c-1.09-2-2.72-3-3.5-2.06a1.85,1.85,0,0,0,.74,2.56c1.49.52.71,2.14,1.85,4.3.17.26.35.53.52.84a6,6,0,0,1-.52-.84c-1.46-2.19-2.72-2.53-3.53-1.44a1.68,1.68,0,0,0,1.16,2.43c1.68.12,3.63,6.34,6.14,8.36h0a2.38,2.38,0,0,0-2.85-.75c1.8,1,1.88,4.2,6,6.57-.93-.55-1.45,0-2.33-.78,1.71,2.19,3.62,4.72,7.65,5.66,2.25.52.7,1.77-.77.53,1.52,2.48,4.54,1.38,6.46,5.7C606.84,351.11,602.91,345.47,604.72,342.41Z" style="fill: #f9dd16"/>
    <path d="M604.73,342.42h0c-3.89-1.07-5.27-3.46-6.87-6.22a29,29,0,0,0-2.37-3.66c-2.23-2.8-2.73-5.24-3.55-9.29-.14-.71-.29-1.44-.45-2.24a6.34,6.34,0,0,0-2.06-3.47,2,2,0,0,0-1.62-.58,1.28,1.28,0,0,0-1,1.05,1.86,1.86,0,0,0,.46,1.37,9.05,9.05,0,0,0,.67.7,4,4,0,0,1,1.47,2.87,4.61,4.61,0,0,0-2.41-2.34,1,1,0,0,0-1.09.32,1.8,1.8,0,0,0-.16,1.53,1.52,1.52,0,0,0,.91,1.05c.84.3.95.95,1.1,1.85a7.73,7.73,0,0,0,.63,2.25,4.09,4.09,0,0,0-2.1-1.84h0a1.27,1.27,0,0,0-1.32.58,1.54,1.54,0,0,0-.06,1.46,1.5,1.5,0,0,0,1.23,1h.1c.84.18,1.73,1.79,2.76,3.65a22.36,22.36,0,0,0,2.75,4.21,2.07,2.07,0,0,0-2-.35,2.11,2.11,0,0,1-.3.07h0l0,0a5.32,5.32,0,0,1,1.7,2.06,11.21,11.21,0,0,0,4.05,4.35,2.44,2.44,0,0,0-.8-.15,1.68,1.68,0,0,1-1.25-.49h0l.08.1c1.68,2.18,3.6,4.65,7.57,5.57.91.21,1.08.5,1.11.62a.25.25,0,0,1-.09.27c-.27.24-1,.24-1.79-.38v0a5,5,0,0,0,2.51,1.89,6.71,6.71,0,0,1,4,3.8v0a12.32,12.32,0,0,0-1-4.62C604.58,346.88,603.66,344.22,604.73,342.42Zm-2.2,7.82a5,5,0,0,1-2.47-1.83,1.54,1.54,0,0,0,1.77.34.29.29,0,0,0,.09-.3c-.07-.25-.48-.48-1.13-.63-4-.92-5.88-3.39-7.56-5.56h0a1.69,1.69,0,0,0,1.19.43,2.2,2.2,0,0,1,1,.25l.05,0v0h0l0,0a11,11,0,0,1-4.26-4.47,5.41,5.41,0,0,0-1.68-2.05l.27-.07a2.09,2.09,0,0,1,2.12.43c.14.14.29.27.43.39v0a4.9,4.9,0,0,0-.43-.39,21,21,0,0,1-2.84-4.3c-1-1.86-1.93-3.48-2.78-3.66l-.1,0-.16,0a1.67,1.67,0,0,1-1-2.38,1.24,1.24,0,0,1,1.3-.58h0a4.15,4.15,0,0,1,2.16,1.93,7.62,7.62,0,0,0,.58.92v0c-.19-.33-.38-.64-.57-.91a7.6,7.6,0,0,1-.69-2.36c-.15-.91-.26-1.57-1.12-1.88a1.51,1.51,0,0,1-.89-1,1.78,1.78,0,0,1,.15-1.5,1,1,0,0,1,1-.33H587a4.64,4.64,0,0,1,2.41,2.37l0,0v0A4.07,4.07,0,0,0,588,320a6.37,6.37,0,0,1-.66-.7,1.79,1.79,0,0,1-.46-1.34,1.24,1.24,0,0,1,.95-1,1.9,1.9,0,0,1,1.6.57,6.3,6.3,0,0,1,2.05,3.46c.17.79.31,1.52.46,2.23.82,4,1.31,6.5,3.55,9.31a29.3,29.3,0,0,1,2.37,3.65c1.6,2.77,3,5.16,6.86,6.23-1.06,1.81-.14,4.46.74,7a12.25,12.25,0,0,1,1,4.57A6.72,6.72,0,0,0,602.53,350.24Zm-13.94-22.38a5.66,5.66,0,0,0,.37.59A4.36,4.36,0,0,1,588.59,327.86Z"/>
    <path d="M647.81,359.82c-5-10.09-13.85-7.66-13.95-3.74,3.2,5.76,3.62,5.29,6.3,6.58s4.34,1.65,2.53,3.3c-.61.57-3.2-.33-5.21-.65-4.51-.71-6.57-5.67-7.9-3.62-1.1,1.69,0,2.78,2.26,3.17-1.54-.32-3.59-.88-3.24,1.15.59,3.44,2.91,0,3.81,1.58a1.35,1.35,0,0,0-2,1c0,1,1.72,2.66,3.65,1a3.92,3.92,0,0,1,3.23-.88h0c-.88,0-.62,2-1.81,1.93,2.84.62,4.29,0,5.63-1.17-.62.36-.87,1.57-.93,2.26,1.5-1.43,5.07-.8,6.93.1s2.17-.23,2.84-1.71-.26-2.59-1.19-4.05S647.6,362.73,647.81,359.82Z" style="fill: #f9dd16"/>
    <path d="M648.75,366c-.89-1.4-1.15-3.13-.93-6.18h0a13.77,13.77,0,0,0-5-5.88,7.9,7.9,0,0,0-5.11-1.21c-2.2.29-3.84,1.7-3.88,3.35h0c2.79,5,3.49,5.33,5.36,6.16.28.12.6.26.95.43l1,.49c1.22.55,2.11,1,2.23,1.5.07.34-.16.75-.74,1.29a.61.61,0,0,1-.16.09c.05,0,.13,0,.17-.07.59-.54.83-1,.75-1.32-.13-.55-1-.93-2.24-1.52l-1-.48-1-.44c-1.86-.82-2.56-1.13-5.34-6.13,0-1.64,1.67-3,3.87-3.33a7.84,7.84,0,0,1,5.09,1.21,13.75,13.75,0,0,1,5,5.86c-.22,3.05.05,4.79.93,6.19l.32.49c.82,1.26,1.46,2.26.87,3.56l-.15.34a4.1,4.1,0,0,1-.84,1.4,3.94,3.94,0,0,0,.85-1.39l.16-.34c.6-1.31-.09-2.37-.88-3.59C649,366.33,648.85,366.17,648.75,366Z"/>
    <path d="M648.39,372.05a1.21,1.21,0,0,1-.38,0A1.21,1.21,0,0,0,648.39,372.05Z"/>
    <path d="M648.93,371.8a1,1,0,0,1-.25.16A1,1,0,0,0,648.93,371.8Z"/>
    <path d="M648.68,372a.75.75,0,0,1-.29.09A1,1,0,0,0,648.68,372Z"/>
    <path d="M647.09,371.76c-2-.95-5.43-1.5-6.91-.12a3.81,3.81,0,0,1,.66-2l.26-.22v0a.78.78,0,0,0-.26.22c-1.23,1-2.64,1.51-5.24,1,.56,0,.76-.54.95-1s.33-.87.73-.88v0a3.9,3.9,0,0,0-3.23.89,2.18,2.18,0,0,1-3,.25,1.66,1.66,0,0,1-.68-1.22,1.08,1.08,0,0,1,.5-.87,1.55,1.55,0,0,1,1.15-.21,1.4,1.4,0,0,1,.36.13l0,0,0,0c-.38-.66-1-.45-1.66-.22s-1.12.39-1.55,0a2.26,2.26,0,0,1-.6-1.4,1.33,1.33,0,0,1,.15-1.09c.42-.55,1.47-.39,2.48-.18l.6.13v0l-.58-.13a2.73,2.73,0,0,1-2-1.31,1.85,1.85,0,0,1,.32-1.71c.66-1,1.5-.31,2.76.78a11.08,11.08,0,0,0,4.75,2.77l.39.07,1.23.24,1.35.31a5.64,5.64,0,0,0,2.39.2,8.22,8.22,0,0,1-3.05-.37c-.64-.15-1.31-.3-1.92-.4l-.39-.07a11,11,0,0,1-4.74-2.77c-1.27-1.09-2.11-1.81-2.78-.78a1.87,1.87,0,0,0-.33,1.73,2.51,2.51,0,0,0,1.71,1.25c-.92-.17-1.82-.26-2.21.24a1.39,1.39,0,0,0-.15,1.11,2.29,2.29,0,0,0,.61,1.41c.44.36,1,.17,1.57,0s1.24-.42,1.61.18a1.5,1.5,0,0,0-1.49.09,1.1,1.1,0,0,0-.51.88,1.69,1.69,0,0,0,.69,1.25,2.47,2.47,0,0,0,.88.42,2.36,2.36,0,0,0,2.1-.67,3.94,3.94,0,0,1,3.14-.9c-.35.06-.51.46-.67.89s-.42,1.1-1.06,1v0c2.63.57,4.07.08,5.3-.88a4.31,4.31,0,0,0-.61,2v0l0,0c1.47-1.4,5-.84,6.92.1a3.36,3.36,0,0,0,.75.28.91.91,0,0,0,.17,0A2.8,2.8,0,0,1,647.09,371.76Z"/>
    <path d="M642.45,366.07l.08,0Z"/>
    <path d="M636.13,353.9l5,1.85C639.5,354.59,638,353.78,636.13,353.9Z" style="fill: #f9dd16"/>
    <path d="M636.13,353.89v0c1.83-.12,3.26.62,5,1.85v0C639.4,354.51,638,353.77,636.13,353.89Z"/>
    <path d="M616.48,356.94l.33-7.54C615.48,353,616.29,355.09,616.48,356.94Z" style="fill: #f9dd16"/>
    <path d="M616.8,349.4a11.28,11.28,0,0,0-.49,6.44c.07.38.13.74.16,1.1h0c0-.36-.1-.72-.16-1.1a11.25,11.25,0,0,1,.49-6.43Z"/>
    <path d="M602.68,327.92c.3.36.61.71.91,1.06,1,1.54,1.48-.35,1.85.27C604.1,327.1,603.59,328.74,602.68,327.92Z" style="fill: #f9dd16"/>
    <path d="M603.64,328.12a1,1,0,0,1-1-.2h0a1,1,0,0,0,1,.21c.47-.09,1-.18,1.72,1l-.06,0c-.11,0-.22.08-.36.19-.3.26-.72.61-1.34-.33h0a1.33,1.33,0,0,0,.7.62.82.82,0,0,0,.68-.28c.13-.11.24-.21.34-.18h0s.07,0,.11.1v0h0l0,0C604.62,327.93,604.12,328,603.64,328.12Z"/>
    <path d="M607.35,329.67c.37-.47.83,1.62,1.85.52l.91-.65C609.2,330,608.69,328.09,607.35,329.67Z" style="fill: #f9dd16"/>
    <path d="M609.16,329.32c-.49-.31-1-.62-1.8.32v0l0,0a.13.13,0,0,1,.11-.05h0c.1,0,.21.17.34.33s.4.52.67.58a.76.76,0,0,0,.7-.32v0c-.63.67-1,.14-1.35-.25-.13-.17-.25-.32-.35-.34h-.06c.76-.85,1.25-.55,1.71-.25s.61.37,1,.21v0C609.76,329.69,609.47,329.51,609.16,329.32Z"/>
    <path d="M607.35,329.67l-1.91-.42c.31.42.34-.2.1,1.4-.43,3-1,4.26.85,4.67s1.3-1.15.86-4.3C607,329.31,607,330,607.35,329.67Z" style="fill: #f9dd16"/>
    <path d="M607.26,331c0-.25-.07-.45-.09-.61-.09-.63-.09-.63,0-.64a.39.39,0,0,0,.19-.09v0a.39.39,0,0,1-.19.09c-.1,0-.1,0,0,.66,0,.16.05.36.09.61.06.44.12.85.18,1.22.23,1.49.38,2.47.05,2.89-.19.24-.53.29-1.08.17a1.5,1.5,0,0,1-1.08-.64c-.33-.55-.18-1.43,0-2.77.06-.37.14-.78.2-1.23,0-.25.07-.44.09-.59.1-.59.1-.59,0-.65a.9.9,0,0,1-.19-.18v0a.71.71,0,0,0,.2.18c.08.05.08.05,0,.62,0,.15,0,.35-.09.59-.06.45-.13.86-.2,1.23-.22,1.34-.37,2.23,0,2.79a1.53,1.53,0,0,0,1.1.66c.55.12.9.06,1.09-.18.34-.43.19-1.42,0-2.91C607.38,331.87,607.32,331.46,607.26,331Z"/>
    <path d="M609.14,335.49c.41,2.34-2.72,1.45-2.72.43,0,1-3.12.56-2.71-1.61-.39,1.75.71,2.44.62,3.55-.23,2.77.62,3,2.09,3.3s2.33.47,2.1-2.39C608.42,337.62,609.52,337.41,609.14,335.49Z" style="fill: #ff0016"/>
    <path d="M603.73,335.1l.06.17Z"/>
    <path d="M603.72,334.31h0a1.92,1.92,0,0,0,0,.22s0,.06,0,.09A1.71,1.71,0,0,1,603.72,334.31Z"/>
    <path d="M609.21,336.35v0Z"/>
    <path d="M603.79,335.27a1.65,1.65,0,0,0,.2.37A1.65,1.65,0,0,1,603.79,335.27Z"/>
    <path d="M608.85,336.69a.72.72,0,0,0,.2-.28A.72.72,0,0,1,608.85,336.69Z"/>
    <path d="M603.63,335.14c0-.16,0-.34,0-.53A5.11,5.11,0,0,0,603.63,335.14Z"/>
    <path d="M603.68,334.51s0,.06,0,.1,0-.05,0-.08Z"/>
    <path d="M603.64,335.16v0Z"/>
    <path d="M609.05,336.41a.59.59,0,0,0,.06-.14A.59.59,0,0,1,609.05,336.41Z"/>
    <path d="M603.73,335.1a1.51,1.51,0,0,1,0-.48A1.51,1.51,0,0,0,603.73,335.1Z"/>
    <path d="M608.51,338.77a3.36,3.36,0,0,1-.3,2.29c-.36.41-1,.26-1.79.1s-1.42-.31-1.78-.88a4,4,0,0,1-.31-2.42,2.7,2.7,0,0,0-.3-1.27,3.7,3.7,0,0,1-.39-1.43,3.76,3.76,0,0,0,.38,1.44,2.52,2.52,0,0,1,.3,1.26,4.06,4.06,0,0,0,.31,2.43c.36.57,1,.71,1.79.88s1.43.31,1.8-.1a3.39,3.39,0,0,0,.3-2.3,1.86,1.86,0,0,1,.31-1.13,2.94,2.94,0,0,0,.38-1.27,2.88,2.88,0,0,1-.39,1.26A1.91,1.91,0,0,0,608.51,338.77Z"/>
    <path d="M609.17,335.8a2.74,2.74,0,0,1,0,.55A2.74,2.74,0,0,0,609.17,335.8Z"/>
    <path d="M606.07,336.37a.49.49,0,0,0,.35-.39.87.87,0,0,0,.36.54,1.85,1.85,0,0,0,2,.25s0-.06.05-.08l-.05.07a1.85,1.85,0,0,1-2-.25.78.78,0,0,1-.35-.59h0a.48.48,0,0,1-.36.44,2,2,0,0,1-2-.63l-.06-.09a.73.73,0,0,0,0,.09A2,2,0,0,0,606.07,336.37Z"/>
    <path d="M609.16,335.81a1.66,1.66,0,0,1,0,.46A1.66,1.66,0,0,0,609.16,335.81Z"/>
    <path d="M609.14,335.49h0c0,.11,0,.21,0,.32,0,0,0-.06,0-.09S609.16,335.58,609.14,335.49Z"/>
    <path d="M609.17,335.7v0Z"/>
    <path d="M605.1,335.18c-1.18-.7-2.36-1.4-3.53-2.11" style="fill: #ff0016"/>
    <path d="M601.56,333.08l3.54,2.11h0l-3.53-2.11Z"/>
    <path d="M605.1,335.43l-4-.9" style="fill: #ff0016"/>
    <path d="M601.15,334.54l4,.9h0l-4-.9Z"/>
    <path d="M605.14,335.72l-3.37.5" style="fill: #ff0016"/>
    <path d="M601.77,336.21h0l3.37-.5h0Z"/>
    <path d="M607.75,335.76l3.53-.58" style="fill: #ff0016"/>
    <path d="M607.75,335.75h0l3.53-.57h0Z"/>
    <path d="M607.75,336l3.94.81" style="fill: #ff0016"/>
    <path d="M607.75,336l3.94.82v0l-3.94-.81Z"/>
    <path d="M607.71,336.27l3.36,2" style="fill: #ff0016"/>
    <path d="M607.71,336.28l3.36,2h0l-3.37-2Z"/>
    <path d="M584.46,318.23c.87-1.22,2.29,1.1,3.07.84a1.47,1.47,0,0,0,.59-1.95C587.09,315.15,584.52,316.07,584.46,318.23Z" style="fill: #0051ba"/>
    <polygon points="588.12 317.12 588.12 317.12 588.12 317.12 588.12 317.12" style="fill: #0051ba"/>
    <path d="M584.93,317.9h0Z"/>
    <path d="M585.1,317.88a.5.5,0,0,0-.17,0A.5.5,0,0,1,585.1,317.88Z"/>
    <path d="M585.16,317.88h0Z"/>
    <path d="M585.85,318.17l-.08-.05Z"/>
    <path d="M586.72,318.79l-.2-.14Z"/>
    <path d="M587.22,319.06a1.25,1.25,0,0,1-.31-.15A1.25,1.25,0,0,0,587.22,319.06Z"/>
    <path d="M586.91,318.91a1.22,1.22,0,0,1-.19-.12A1.22,1.22,0,0,0,586.91,318.91Z"/>
    <path d="M586.28,318.48a4.25,4.25,0,0,0-.43-.31C586,318.26,586.14,318.37,586.28,318.48Z"/>
    <path d="M586.28,318.48l.08,0,.16.12-.16-.12Z"/>
    <path d="M585.29,317.91a2,2,0,0,1,.48.21A2,2,0,0,0,585.29,317.91Z"/>
    <path d="M588.12,317.12h0a1.8,1.8,0,0,0-1.91-1.06,2.17,2.17,0,0,0-1.75,2.17h0a2.18,2.18,0,0,1,1.75-2.17,1.81,1.81,0,0,1,1.91,1.06,1.48,1.48,0,0,1,.11,1,1.27,1.27,0,0,1-.7.93.55.55,0,0,1-.31,0l.06,0a.53.53,0,0,0,.25,0,1.33,1.33,0,0,0,.71-.94,1.48,1.48,0,0,0-.12-1Z"/>
    <path d="M585.16,317.88l.13,0,0,0Z"/>
    <polygon points="584.47 318.23 584.47 318.23 584.47 318.23 584.47 318.23"/>
    <path d="M584.87,317.91l-.17.08Z"/>
    <path d="M584.66,318l0,0Z"/>
    <path d="M584.47,318.23a.78.78,0,0,1,.19-.21A.78.78,0,0,0,584.47,318.23Z"/>
    <path d="M586.78,321c-1-2-3.6-1-3.65,1.11.87-1.22,2.29,1.11,3.07.85a1.47,1.47,0,0,0,.58-2Z" style="fill: #0051ba"/>
    <path d="M584.52,322l-.09,0Z"/>
    <path d="M583.83,321.73h0Z"/>
    <path d="M583.54,321.75a.7.7,0,0,0-.17.09Z"/>
    <path d="M583.6,321.74h0Z"/>
    <path d="M583.77,321.72l-.17,0Z"/>
    <path d="M585.91,322.91a1.48,1.48,0,0,1-.34-.16A1.48,1.48,0,0,0,585.91,322.91Z"/>
    <path d="M585,322.32l-.43-.3Z"/>
    <path d="M585.57,322.75l-.17-.11Z"/>
    <path d="M585.4,322.64l-.25-.17Z"/>
    <path d="M585,322.32l.08.06.12.09-.12-.1Z"/>
    <path d="M583.83,321.73a.31.31,0,0,1,.13,0l0,0Z"/>
    <path d="M584,321.76a1.62,1.62,0,0,1,.47.21A1.62,1.62,0,0,0,584,321.76Z"/>
    <path d="M586.9,322a1.29,1.29,0,0,1-.7.94.57.57,0,0,1-.29,0l0,0a.69.69,0,0,0,.25,0,1.29,1.29,0,0,0,.7-.94,1.43,1.43,0,0,0-.12-1A1.43,1.43,0,0,1,586.9,322Z"/>
    <path d="M584.88,319.9a1.8,1.8,0,0,1,1.9,1.06h0a1.8,1.8,0,0,0-1.9-1.06,2.17,2.17,0,0,0-1.75,2.17h0A2.18,2.18,0,0,1,584.88,319.9Z"/>
    <path d="M583.33,321.86l0,0Z"/>
    <polygon points="583.13 322.07 583.13 322.07 583.13 322.07 583.13 322.07"/>
    <path d="M583.13,322.07a1,1,0,0,1,.2-.21A1.35,1.35,0,0,0,583.13,322.07Z"/>
    <path d="M586.11,326.36c-1.16-1.83-3.59-.49-3.47,1.7.75-1.37,2.33.76,3.06.37a1.58,1.58,0,0,0,.41-2.07Z" style="fill: #0051ba"/>
    <path d="M585.65,325.86a1.85,1.85,0,0,1,.46.5,1.49,1.49,0,0,1,.21,1,1.46,1.46,0,0,1-.62,1.08c-.29.15-.73-.1-1.18-.36-.66-.38-1.4-.81-1.85-.05.45-.76,1.19-.33,1.85.05.45.27.89.52,1.18.36a1.41,1.41,0,0,0,.62-1.07,1.5,1.5,0,0,0-.21-1A1.85,1.85,0,0,0,585.65,325.86Z"/>
    <path d="M584.69,325.51h0Z"/>
    <path d="M582.64,328.06l0,0,0,0Z"/>
    <path d="M585,325.54l-.16,0a1.83,1.83,0,0,1,.25.06S585,325.54,585,325.54Z"/>
    <path d="M584.26,325.57a1.65,1.65,0,0,1,.43-.06A1.65,1.65,0,0,0,584.26,325.57Z"/>
    <path d="M584.21,325.58h0a2.39,2.39,0,0,0-1.57,2.48h0A2.39,2.39,0,0,1,584.21,325.58Z"/>
    <path d="M585.51,325.77a.67.67,0,0,1,.14.09A.67.67,0,0,0,585.51,325.77Z"/>
    <path d="M585.1,325.58a1.38,1.38,0,0,1,.41.19A1.38,1.38,0,0,0,585.1,325.58Z"/>
    <path d="M587.34,343.8c-1.29-1.65-3.55.09-3.24,2.28.61-1.5,2.33.39,3-.11a1.72,1.72,0,0,0,.23-2.17Z" style="fill: #0051ba"/>
    <path d="M586.4,343.18a1,1,0,0,0-.24,0,1.23,1.23,0,0,1,.27,0Z"/>
    <path d="M585.65,343.24a1.57,1.57,0,0,1,.29-.08A1.57,1.57,0,0,0,585.65,343.24Z"/>
    <path d="M585.94,343.16a1.55,1.55,0,0,1,.22,0A1.55,1.55,0,0,0,585.94,343.16Z"/>
    <path d="M584.1,346.08a.26.26,0,0,1,0-.09.26.26,0,0,0,0,.09Z"/>
    <path d="M586.43,343.19a1.4,1.4,0,0,1,.38.16A1.4,1.4,0,0,0,586.43,343.19Z"/>
    <path d="M586.91,343.4a1.66,1.66,0,0,1,.43.41h0a1.4,1.4,0,0,1,.28.94,1.65,1.65,0,0,1-.51,1.22c-.27.2-.71,0-1.18-.18-.66-.28-1.4-.57-1.78.2.38-.77,1.12-.47,1.78-.2.47.2.91.38,1.18.18a1.69,1.69,0,0,0,.52-1.22,1.51,1.51,0,0,0-.29-.95A1.8,1.8,0,0,0,586.91,343.4Z"/>
    <path d="M585.45,343.3c.06,0,.13,0,.2-.06s-.14,0-.2.06a2.64,2.64,0,0,0-1.35,2.78h0A2.66,2.66,0,0,1,585.45,343.3Z"/>
    <path d="M586.81,343.35l.1,0Z"/>
    <path d="M587.28,347.55c-1.54-1.1-3.19,1.61-2.42,3.67.21-1.77,2.19-.61,2.7-1.41A2,2,0,0,0,587.28,347.55Z" style="fill: #0051ba"/>
    <path d="M586,347.45a1,1,0,0,1,.29-.11A1.15,1.15,0,0,0,586,347.45Z"/>
    <path d="M585.53,347.79a1.58,1.58,0,0,1,.32-.27A1.58,1.58,0,0,0,585.53,347.79Z"/>
    <path d="M585.85,347.52l.14-.07Z"/>
    <path d="M584.86,351.22h0c0-.06,0-.13-.05-.19S584.84,351.16,584.86,351.22Z"/>
    <path d="M586.28,347.34l.12,0Z"/>
    <path d="M587.28,347.55a1.43,1.43,0,0,0-.49-.22,1.43,1.43,0,0,1,.49.22,1.3,1.3,0,0,1,.45.77,2.17,2.17,0,0,1-.17,1.49c-.21.32-.65.33-1.11.33-.69,0-1.46,0-1.59,1.08h0c.13-1.06.9-1.07,1.59-1.08.46,0,.91,0,1.11-.33a2.17,2.17,0,0,0,.17-1.49A1.26,1.26,0,0,0,587.28,347.55Z"/>
    <path d="M585.48,347.84l0,0,0,0a3.5,3.5,0,0,0-.67,3.2A3.47,3.47,0,0,1,585.48,347.84Z"/>
    <path d="M586.77,347.32a.92.92,0,0,0-.37,0,1,1,0,0,1,.39,0Z"/>
    <path d="M589.25,350.78h0c-1.54-1.1-3.19,1.61-2.42,3.67.22-1.77,2.2-.61,2.7-1.41A1.94,1.94,0,0,0,589.25,350.78Z" style="fill: #0051ba"/>
    <path d="M587.83,350.75l.14-.07Z"/>
    <path d="M587.49,351a2.2,2.2,0,0,1,.34-.28A2.2,2.2,0,0,0,587.49,351Z"/>
    <path d="M586.83,354.45h0a2.68,2.68,0,0,1-.07-.27A2.68,2.68,0,0,0,586.83,354.45Z"/>
    <path d="M588,350.68a1.62,1.62,0,0,1,.28-.11A1.62,1.62,0,0,0,588,350.68Z"/>
    <path d="M588.25,350.57l.13,0Z"/>
    <path d="M587.45,351.07s0,0,0,0,0,0,0,0a3.51,3.51,0,0,0-.69,3.11A3.52,3.52,0,0,1,587.45,351.07Z"/>
    <path d="M589.25,350.79h0a1.47,1.47,0,0,0-.48-.22,1.32,1.32,0,0,1,.48.23h0a1.24,1.24,0,0,1,.46.76,2.16,2.16,0,0,1-.18,1.49c-.2.32-.64.33-1.11.33-.68,0-1.46,0-1.59,1.08h0c.13-1.06.91-1.06,1.59-1.07.47,0,.91,0,1.11-.33a2.13,2.13,0,0,0,.18-1.5A1.24,1.24,0,0,0,589.25,350.79Z"/>
    <path d="M588.75,350.55a1.54,1.54,0,0,0-.37,0,1.28,1.28,0,0,1,.39,0Z"/>
    <path d="M629.6,365h0c-1.54-1.11-3.19,1.6-2.41,3.66.21-1.77,2.19-.6,2.7-1.4A1.94,1.94,0,0,0,629.6,365Z" style="fill: #0051ba"/>
    <path d="M628.32,364.87a1.45,1.45,0,0,1,.29-.11A1.45,1.45,0,0,0,628.32,364.87Z"/>
    <path d="M628.18,365l.14-.08Z"/>
    <path d="M627.86,365.21a1.92,1.92,0,0,1,.32-.26A1.92,1.92,0,0,0,627.86,365.21Z"/>
    <path d="M627.19,368.64h0a1.33,1.33,0,0,1-.05-.19C627.16,368.51,627.17,368.58,627.19,368.64Z"/>
    <path d="M627.81,365.26l.05-.05-.06.05a3.5,3.5,0,0,0-.66,3.19A3.47,3.47,0,0,1,627.81,365.26Z"/>
    <path d="M628.61,364.76l.12,0Z"/>
    <path d="M629.61,365a1.52,1.52,0,0,0-.49-.22,1.38,1.38,0,0,1,.48.22h0a1.3,1.3,0,0,1,.46.77,2.16,2.16,0,0,1-.17,1.49c-.21.32-.65.32-1.12.33-.68,0-1.45,0-1.58,1.07h0c.13-1.06.9-1.06,1.58-1.07.47,0,.91,0,1.12-.33a2.16,2.16,0,0,0,.17-1.49A1.3,1.3,0,0,0,629.61,365Z"/>
    <path d="M629.1,364.75a.92.92,0,0,0-.37,0,1,1,0,0,1,.39,0Z"/>
    <path d="M631.68,368h0c-1.59-.87-3,2.13-2,4.09.06-1.82,2.09-.95,2.52-1.84A2,2,0,0,0,631.68,368Z" style="fill: #0051ba"/>
    <path d="M630.45,368.06l.24-.14Z"/>
    <path d="M630.3,368.17l.15-.11Z"/>
    <path d="M630.69,367.92l.17-.05Z"/>
    <path d="M629.63,372.07h0l-.06-.16Z"/>
    <path d="M630,368.48a2.2,2.2,0,0,1,.29-.31A2.16,2.16,0,0,0,630,368.48Z"/>
    <path d="M631.68,368h0l0,0a1.12,1.12,0,0,1,.51.68,2.3,2.3,0,0,1,0,1.56c-.17.35-.6.43-1.06.5-.67.12-1.42.25-1.46,1.34h0c0-1.09.79-1.22,1.46-1.33.46-.08.89-.15,1.06-.51a2.3,2.3,0,0,0,0-1.56A1.17,1.17,0,0,0,631.68,368Z"/>
    <path d="M631.34,367.85h-.06a1.21,1.21,0,0,1,.35.12A1.19,1.19,0,0,0,631.34,367.85Z"/>
    <path d="M630.86,367.87a1.09,1.09,0,0,1,.26,0A1.09,1.09,0,0,0,630.86,367.87Z"/>
    <path d="M630,368.56l.06-.08-.06.08a3.81,3.81,0,0,0-.38,3.35A3.81,3.81,0,0,1,630,368.56Z"/>
    <path d="M631.12,367.84h0Z"/>
    <path d="M627.32,364.43c.44-1.64,2.29-.05,2.9-.69a1.84,1.84,0,0,0,0-2.24C628.8,360.07,626.79,362.28,627.32,364.43Z" style="fill: #0051ba"/>
    <path d="M629.46,363.87l-.24-.05Z"/>
    <path d="M629.61,363.89l-.15,0Z"/>
    <polygon points="629.22 363.82 629.23 363.82 629.22 363.82 629.22 363.82"/>
    <path d="M629.9,363.88l-.14,0Z"/>
    <path d="M629.76,363.9h0Z"/>
    <path d="M630,363.86a.25.25,0,0,1-.12,0A.25.25,0,0,0,630,363.86Z"/>
    <path d="M630.15,363.79a.33.33,0,0,1-.13.07A.33.33,0,0,0,630.15,363.79Z"/>
    <path d="M628.89,361.1l.14,0Z"/>
    <path d="M628.35,361.35a1.46,1.46,0,0,1,.54-.25,1.64,1.64,0,0,0-.54.25,3,3,0,0,0-1,3.08A3,3,0,0,1,628.35,361.35Z"/>
    <path d="M627.32,364.43c.24-.9.92-.82,1.57-.68l.17,0,.16,0-.33-.07C628.24,363.61,627.56,363.53,627.32,364.43Z"/>
    <path d="M630.22,361.5l0,0s0,0,0,0a1.41,1.41,0,0,1,.37.87,1.84,1.84,0,0,1-.37,1.36l-.07.05.08-.05a1.88,1.88,0,0,0,.36-1.36A1.45,1.45,0,0,0,630.22,361.5Z"/>
    <path d="M629.48,361.08h-.06a1.09,1.09,0,0,1,.24.07A.67.67,0,0,0,629.48,361.08Z"/>
    <path d="M629.83,361.21a1.73,1.73,0,0,1,.35.27A1.73,1.73,0,0,0,629.83,361.21Z"/>
    <path d="M629,361.08a1.28,1.28,0,0,1,.39,0A1.28,1.28,0,0,0,629,361.08Z"/>
    <path d="M629.66,361.15l.17.06Z"/>
    <path d="M658.93,372.15h0c-1.6-.87-3,2.13-2,4.09.06-1.82,2.09-1,2.51-1.84A2,2,0,0,0,658.93,372.15Z" style="fill: #0051ba"/>
    <path d="M657.94,372.09l.16,0Z"/>
    <path d="M657.54,372.34l.15-.11Z"/>
    <path d="M657.69,372.23a2,2,0,0,1,.25-.14A2,2,0,0,0,657.69,372.23Z"/>
    <path d="M657.27,372.64a2.7,2.7,0,0,1,.27-.3A2.7,2.7,0,0,0,657.27,372.64Z"/>
    <path d="M658.93,372.15l0,0,0,0a1.2,1.2,0,0,1,.5.69,2.27,2.27,0,0,1,0,1.55c-.17.36-.6.44-1,.51-.67.12-1.43.25-1.46,1.34a3.78,3.78,0,0,1,.31-3.51l.08-.09-.08.09a3.78,3.78,0,0,0-.31,3.51c0-1.09.79-1.22,1.46-1.33.45-.08.88-.16,1-.51a2.3,2.3,0,0,0,.05-1.56A1.18,1.18,0,0,0,658.93,372.15Z"/>
    <path d="M658.1,372a1.15,1.15,0,0,1,.26,0A1.15,1.15,0,0,0,658.1,372Z"/>
    <path d="M658.58,372h-.06a1.65,1.65,0,0,1,.36.11A1.82,1.82,0,0,0,658.58,372Z"/>
    <path d="M658.36,372h0Z"/>
    <path d="M659,368.71c-1.45-1.36-3.39,1-2.82,3.09.4-1.67,2.29-.16,2.88-.84a1.88,1.88,0,0,0-.06-2.25Z" style="fill: #0051ba"/>
    <path d="M658.29,368.33h-.08l.22.05Z"/>
    <path d="M657.67,368.36l.14,0Z"/>
    <path d="M657.81,368.34a1.34,1.34,0,0,1,.4,0A1.34,1.34,0,0,0,657.81,368.34Z"/>
    <path d="M658.43,368.38l.16.06Z"/>
    <path d="M659.25,369.12a1.33,1.33,0,0,0-.27-.41l0,0,0,0A1.33,1.33,0,0,1,659.25,369.12Z"/>
    <path d="M659.34,369.46l0,.11A1.94,1.94,0,0,1,659,371c-.24.27-.69.19-1.16.1-.69-.12-1.48-.26-1.71.74a3.13,3.13,0,0,1,1-3.16,2,2,0,0,1,.54-.28,1.64,1.64,0,0,0-.54.28,3.13,3.13,0,0,0-1,3.16c.23-1,1-.86,1.71-.73.47.08.92.16,1.16-.11a1.94,1.94,0,0,0,.33-1.39Z"/>
    <path d="M658.59,368.44a2.6,2.6,0,0,1,.36.25A2.6,2.6,0,0,0,658.59,368.44Z"/>
    <path d="M659.25,369.12a1.69,1.69,0,0,1,.09.34A1.56,1.56,0,0,0,659.25,369.12Z"/>
    <path d="M660.1,375.49c-1.61-.78-2.89,2.32-1.91,4.24,0-1.84,2-1.09,2.44-2C660.91,377.08,660.75,375.81,660.1,375.49Z" style="fill: #0051ba"/>
    <path d="M660.1,375.49a1.11,1.11,0,0,0-.29-.1,1.36,1.36,0,0,0-1.42.8,3.87,3.87,0,0,0-.2,3.54c0-1.1.75-1.28,1.41-1.43.45-.11.87-.21,1-.58a2.35,2.35,0,0,0,0-1.57A1.16,1.16,0,0,0,660.1,375.49Zm.53,2.23c-.16.37-.58.47-1,.58-.66.15-1.4.33-1.41,1.43a3.9,3.9,0,0,1,.2-3.54,1.37,1.37,0,0,1,1.42-.8,1.66,1.66,0,0,1,.29.1,1.16,1.16,0,0,1,.52.66A2.35,2.35,0,0,1,660.63,377.72Z"/>
    <polygon points="606.54 339.5 606.54 339.5 606.54 339.5 606.54 339.5" style="fill: #0051ba"/>
    <path d="M606.54,339.5c-.9-.19-1.33-.06-1.33,1.26.3-.11.3.9.3,2.92,0,3.87-.09,6,1.16,6.27s1.29-2,1.29-7.25C608,340.21,607.55,339.72,606.54,339.5Z" style="fill: #0051ba"/>
    <path d="M606.54,339.5c-.9-.19-1.33-.06-1.33,1.26a.09.09,0,0,1,.11,0c.19.19.19,1.15.19,2.9v.7c0,2.64,0,4.38.53,5.15a1,1,0,0,0,.63.43c1.24.27,1.29-1.9,1.29-7.26C608,340.21,607.54,339.72,606.54,339.5Zm.13,10.45a1,1,0,0,1-.63-.43c-.54-.77-.53-2.5-.53-5.13v-.71c0-1.75,0-2.71-.19-2.9l-.05,0h-.06c0-1.31.43-1.45,1.33-1.26s1.42.71,1.42,3.2C608,348.06,607.91,350.22,606.67,350Z"/>
  </g>
</svg>
