<svg xmlns="http://www.w3.org/2000/svg" viewBox="0 0 1260 1012.04">
  <g>
    <path d="M0,90.08v920C420,738.76,840,1193.28,1260,922V2C840,273.28,420-181.24,0,90.08Z" style="fill: #009b3a"/>
    <path d="M1260,2C1050,291,840,398.49,630,506c210,199.14,420,398.27,630,416V2Z"/>
    <path d="M0,90.08H0v920C210,721.08,420,613.55,630,506,420,306.89,210,107.75,0,90.08Z"/>
    <path d="M1142.61,980.07A559.7,559.7,0,0,0,1260,922V836.25c-170.87-14.38-341.74-148.9-512.61-305.8C918.26,437.83,1089.13,322.82,1260,87.68V2a559.7,559.7,0,0,1-117.39,58.1C971.74,245.32,800.87,332.81,630,420.31,459.13,258.28,288.26,96.25,117.39,32A559.76,559.76,0,0,0,0,90.08v85.71c170.87,14.38,341.74,148.9,512.61,305.8C341.74,574.21,170.87,689.22,0,924.36v85.72A559.76,559.76,0,0,1,117.39,952C288.26,766.73,459.13,679.23,630,591.74,800.87,753.77,971.74,915.79,1142.61,980.07Z" style="fill: #fed100"/>
  </g>
</svg>
