<svg xmlns="http://www.w3.org/2000/svg" viewBox="0 0 1260 1012.04">
  <g>
    <path d="M0,90.08v920C420,738.76,840,1193.28,1260,922V2C840,273.28,420-181.24,0,90.08Z" style="fill: #007a3d"/>
    <path d="M0,90.08V703.41C420,432.09,840,886.62,1260,615.3V2C840,273.28,420-181.24,0,90.08Z" style="fill: #fff"/>
    <path d="M0,90.08V396.74C420,125.43,840,580,1260,308.63V2C840,273.28,420-181.24,0,90.08Z"/>
    <path d="M0,90.08v920C210,721.08,420,613.55,630,506,420,306.89,210,107.75,0,90.08Z" style="fill: #ce1126"/>
    <path d="M216.62,459.81q6.62-17.85,13.24-35.54-12.71,7.35-25.42,15.26-4.87-17.19-9.76-34.3-4.87,19-9.76,38.1-12.72-3-25.42-5.31,6.62,15.08,13.24,30.34-11,13.58-21.93,27.62,13.14-.76,26.28-.83-1,19.58-1.93,39.16,9.75-15.43,19.52-30.51,9.76,11.28,19.53,22.91-1-19.22-1.94-38.41,13.14-5.06,26.28-9.5Q227.59,469.1,216.62,459.81Z" style="fill: #fff"/>
  </g>
</svg>
