<svg xmlns="http://www.w3.org/2000/svg" viewBox="0 0 1260 1012.04">
  <g>
    <path d="M0,90.08v920C420,738.76,840,1193.28,1260,922V2C840,273.28,420-181.24,0,90.08Z" style="fill: #fff"/>
    <path d="M630,230c-69.59-15.58-132.59,2.87-178.19,46.1C406.21,319.05,378,386.76,378,462.67c0,76.52,28.21,146.81,73.81,203.78,45.6,56.66,108.6,100,178.19,115.57s132.59-2.87,178.19-46.1C853.79,693,882,625.28,882,549.37c0-76.52-28.21-146.81-73.81-203.77C762.59,288.94,699.59,245.61,630,230Z" style="fill: #bc002d"/>
  </g>
</svg>
