<svg xmlns="http://www.w3.org/2000/svg" viewBox="0 0 1260 1012.04">
  <g>
    <path d="M0,90.08v920C420,738.76,840,1193.28,1260,922V2C840,273.28,420-181.24,0,90.08Z" style="fill: #fff"/>
    <path d="M0,90.08v276C420,94.76,840,549.28,1260,278V2C840,273.28,420-181.24,0,90.08Z"/>
    <path d="M0,688.08C420,416.76,840,871.28,1260,600V324C840,595.28,420,140.76,0,412.08Z" style="fill: #b00"/>
    <path d="M0,1010.08C420,738.76,840,1193.28,1260,922V646C840,917.28,420,462.76,0,734.08Z" style="fill: #060"/>
    <path d="M737.11,290.8c-7.87,13.42-15.75,26.78-11.91,43.26C643.46,472.92,561.71,607.62,480,748.87q4.55,3.64,9.09,7.32c81.75-140.78,163.5-275.41,245.25-414.6,14.34-1.42,22.22-14.93,30.09-28.46a296.54,296.54,0,0,0,35.35-95.64C763.36,246.27,742.36,281.79,737.11,290.8Z"/>
    <path d="M737.11,290.8c-7.87,13.42-15.75,26.78-11.91,43.26C643.46,472.92,561.71,607.62,480,748.87q4.55,3.64,9.09,7.32c81.75-140.78,163.5-275.41,245.25-414.6,14.34-1.42,22.22-14.93,30.09-28.46a296.54,296.54,0,0,0,35.35-95.64C763.36,246.27,742.36,281.79,737.11,290.8Z" style="fill: #fff"/>
    <path d="M522.89,245.86c-5.25-10.9-26.25-55.06-62.63-95.31,9.1,53.13,30.1,96.54,35.35,107.48,7.87,16.36,15.75,32.73,30.09,39.72,81.75,171,163.5,346.49,245.25,515.86l9.09-4.19c-81.75-168.9-163.5-344.35-245.24-515.64C538.64,278.84,530.76,262.32,522.89,245.86Z"/>
    <path d="M522.89,245.86c-5.25-10.9-26.25-55.06-62.63-95.31,9.1,53.13,30.1,96.54,35.35,107.48,7.87,16.36,15.75,32.73,30.09,39.72,81.75,171,163.5,346.49,245.25,515.86l9.09-4.19c-81.75-168.9-163.5-344.35-245.24-515.64C538.64,278.84,530.76,262.32,522.89,245.86Z" style="fill: #fff"/>
    <path d="M630,230c-31.5-7-84,73.91-99.75,117V623C546,671.93,598.5,775.05,630,782s84-73.91,99.75-117v-276C714,340.11,661.5,237,630,230Z" style="fill: #b00"/>
    <path d="M703.5,521.76c0,46,10.5,94.2,26.25,143.3,15.75-42.91,26.25-87,26.25-133s-10.5-93.9-26.25-143C714,432,703.5,475.76,703.5,521.76Z"/>
    <path d="M504,480c0,46,10.5,93.9,26.25,143,15.75-42.9,26.25-86.7,26.25-132.71S546,396.09,530.25,347C514.5,389.89,504,434,504,480Z"/>
    <path d="M630,471.52c-11.6-2.53-21,10.87-21,29.93s9.4,36.54,21,39.07,21-10.87,21-29.92S641.6,474.05,630,471.52Z" style="fill: #fff"/>
    <path d="M635.25,782.3s21-41.42,21-116.18-21-125.31-21-125.32Z" style="fill: #fff"/>
    <path d="M624.75,471.24V229.74s-21,41.43-21,116.18S624.75,471.24,624.75,471.24Z" style="fill: #fff"/>
    <path d="M624.75,780V538.51s-21,41.43-21,116.19S624.75,780,624.75,780Z" style="fill: #fff"/>
    <path d="M635.25,473.53s21-41.43,21-116.18-21-125.32-21-125.32Z" style="fill: #fff"/>
  </g>
</svg>
