<svg xmlns="http://www.w3.org/2000/svg" xmlns:xlink="http://www.w3.org/1999/xlink" viewBox="0 0 1260 1012.04">
  <defs>
    <clipPath id="a">
      <path d="M630,352.69c69.59,15.52,126,94.84,126,179.36,0,84.85-56.41,142.82-126,127.31S504,564.51,504,480C504,395.14,560.41,337.17,630,352.69Z" style="fill: none"/>
    </clipPath>
    <clipPath id="b">
      <path d="M630,352.69C560.41,337.17,504,395.14,504,480c0,84.52,56.41,163.85,126,179.37S756,616.9,756,532.05C756,447.53,699.59,368.21,630,352.69Z" style="fill: none"/>
    </clipPath>
  </defs>
  <g>
    <path d="M0,90.08v920C420,738.76,840,1193.28,1260,922V2C840,273.28,420-181.24,0,90.08Z" style="fill: #e8112d"/>
    <path d="M640.58,673.93c-7.05-35.27-31.75-40.66-21.16-4.62S607.32,752.54,630,782C622.44,743.57,647.64,709.2,640.58,673.93Z" style="fill: #ffef00"/>
    <path d="M493.92,465.29c-27.72,7.75-70.56-26-90.72-.27,30.24-6,63,29.66,90.72,26S521.64,457.49,493.92,465.29Z" style="fill: #ffef00"/>
    <path d="M630,230c7.56,38.45-17.64,72.82-10.58,108.09s31.75,40.66,21.16,4.62S652.68,259.5,630,230Z" style="fill: #ffef00"/>
    <path d="M766.08,521c-27.72,3.51-27.72,33.57,0,25.76s70.56,26,90.72.27C826.56,553.05,793.8,517.37,766.08,521Z" style="fill: #ffef00"/>
    <path d="M577.88,648.27c1.5,36.34-33.31,70.15-18,105.21,2.16-37.44,36.25-58.63,38.11-92.94S576.38,611.88,577.88,648.27Z" style="fill: #ffef00"/>
    <path d="M503.85,416.54c-29.63-3.67-63.37-51.25-89.55-35.57,31.1,6.33,54.47,51.55,83,58.88C525.85,447.37,533.48,420.32,503.85,416.54Z" style="fill: #ffef00"/>
    <path d="M700.09,258.57C697.93,296,663.84,317.2,662,351.5s21.64,48.67,20.14,12.27S715.42,293.62,700.09,258.57Z" style="fill: #ffef00"/>
    <path d="M756.15,595.5c29.63,3.67,63.37,51.25,89.55,35.57-31.1-6.33-54.47-51.55-83-58.88C734.15,564.67,726.51,591.72,756.15,595.5Z" style="fill: #ffef00"/>
    <path d="M541.45,613.62c-7.73,33.15-51.26,51-44.76,88.33,11.66-33.21,51.3-39.65,61.89-69.7S549.18,580.29,541.45,613.62Z" style="fill: #ffef00"/>
    <path d="M526.13,376.42c-28.65-14.93-50-71.71-79.62-68.16,28.91,18.49,40.6,68.82,67.18,86.62C540.26,412.85,554.78,391.54,526.13,376.42Z" style="fill: #ffef00"/>
    <path d="M701.42,379.79c-10.58,30.14,9.4,52,17.13,18.64,7.73-33.16,51.26-51,44.76-88.34C751.65,343.31,712,349.75,701.42,379.79Z" style="fill: #ffef00"/>
    <path d="M746.31,617.17c-26.57-18-41.09,3.33-12.44,18.45,28.65,14.93,50,71.72,79.61,68.17C784.58,685.29,772.89,635,746.31,617.17Z" style="fill: #ffef00"/>
    <path d="M513.69,568.71c-16.21,26.93-64.2,27.44-67.18,64,20-26.35,61.34-17.7,79.62-40.77S529.89,541.54,513.69,568.71Z" style="fill: #ffef00"/>
    <path d="M558.58,349.16c-24.86-24.78-31.69-84.63-61.89-93.78,23.89,28.74,22.76,78.84,44.76,105.43S583.43,374.1,558.58,349.16Z" style="fill: #ffef00"/>
    <path d="M733.87,420.11c-18.28,23.16-3.76,50.4,12.44,23.22,16.21-26.92,64.2-27.44,67.17-64C793.46,405.69,752.15,397,733.87,420.11Z" style="fill: #ffef00"/>
    <path d="M718.55,651.23c-22-26.68-42-13.29-17.13,11.65s31.69,84.64,61.89,93.79C739.42,727.93,740.55,677.83,718.55,651.23Z" style="fill: #ffef00"/>
    <path d="M497.31,517.7c-23.09,18.23-70.85,1.14-83,33.85,26.42-17.18,65.37,5.88,89.55-8.16S520.4,499.26,497.31,517.7Z" style="fill: #ffef00"/>
    <path d="M559.91,228.49c16.54,35.61,2.7,80.1,18,112.75s38.77,28.49,20.14-3.65S587.71,249.12,559.91,228.49Z" style="fill: #ffef00"/>
    <path d="M762.69,494.34c23.09-18.23,70.85-1.14,83-33.84-26.42,17.18-65.37-5.88-89.55,8.16S739.6,512.78,762.69,494.34Z" style="fill: #ffef00"/>
    <path d="M662,674.45c18.64,32.09,10.31,88.47,38.11,109.1-16.54-35.61-2.7-80.1-18-112.75S643.35,642.31,662,674.45Z" style="fill: #ffef00"/>
    <path d="M619.17,669.24c-2.64-35.25-27-45.23-20.91-8.57s-23,77.56-3.74,110.25C591.78,732.53,621.8,704.46,619.17,669.24Z" style="fill: #ffef00"/>
    <path d="M497.25,440.14c-29,2.09-67.8-39-91.26-18,31.05.07,59.47,41,87.95,42.84C522.42,467,526.29,438.08,497.25,440.14Z" style="fill: #ffef00"/>
    <path d="M665.48,241.13c2.74,38.39-27.28,66.45-24.65,101.68s27,45.23,20.91,8.57S684.73,273.81,665.48,241.13Z" style="fill: #ffef00"/>
    <path d="M766.06,547.05c-28.48-2-32.35,26.91-3.31,24.85s67.8,39,91.26,18C823,589.83,794.54,548.9,766.06,547.05Z" style="fill: #ffef00"/>
    <path d="M558.79,632.46C555.64,667.62,516,693.67,527,730.27c7-35.69,44.31-49.61,50.61-82.16S561.94,597.18,558.79,632.46Z" style="fill: #ffef00"/>
    <path d="M513.56,395.11c-29.51-9.39-57.38-62.27-85.64-52.48,30.38,12.55,48.12,60.95,76,73.65C531.85,429.17,543.06,404.67,513.56,395.11Z" style="fill: #ffef00"/>
    <path d="M682.35,363.94c-6.3,32.62,15.71,50.92,18.86,15.65S744,318.37,733,281.77C726,317.46,688.65,331.39,682.35,363.94Z" style="fill: #ffef00"/>
    <path d="M746.44,616.93c29.51,9.4,57.38,62.27,85.64,52.48-30.38-12.54-48.12-60.95-76-73.64C728.15,582.88,716.94,607.37,746.44,616.93Z" style="fill: #ffef00"/>
    <path d="M526.29,592.2c-12.11,30.39-58.44,39.66-56.66,77,16-30.09,57-29,71.63-55.82S538.41,561.59,526.29,592.2Z" style="fill: #ffef00"/>
    <path d="M541.26,361c-27.08-20.11-41.34-79.25-71.63-82.09,26.73,24,32.07,74.87,56.66,97.34S568.35,381.26,541.26,361Z" style="fill: #ffef00"/>
    <path d="M718.74,398.66c-14.61,27,2.85,51.79,15,21.18,12.11-30.38,58.44-39.66,56.66-77C774.33,372.94,733.35,371.81,718.74,398.66Z" style="fill: #ffef00"/>
    <path d="M733.71,635.82c-24.59-22.61-42.06-5-15,15.25,27.08,20.11,41.34,79.25,71.63,82.1C763.64,709.2,758.3,658.3,733.71,635.82Z" style="fill: #ffef00"/>
    <path d="M504,543.69c-19.9,22.84-68.36,14.52-76,49.55,23.51-22,64.14-6,85.64-24.81S523.84,520.59,504,543.69Z" style="fill: #ffef00"/>
    <path d="M577.65,341.31c-22-28.82-21.25-87.72-50.61-102.87C547.5,271.1,539.92,319,558.79,349.05S599.67,370.23,577.65,341.31Z" style="fill: #ffef00"/>
    <path d="M756.05,468.36c19.9-22.85,68.36-14.53,76-49.55-23.51,22-64.14,6-85.64,24.81S736.16,491.45,756.05,468.36Z" style="fill: #ffef00"/>
    <path d="M682.35,670.73c22,28.82,21.25,87.73,50.61,102.87C712.5,740.94,720.08,693,701.21,663S660.33,641.82,682.35,670.73Z" style="fill: #ffef00"/>
    <path d="M493.94,491.36c-25.72,13.16-71.58-12.45-87.95,17.14,28.69-11.82,65,17.85,91.26,8.89S519.66,478.05,493.94,491.36Z" style="fill: #ffef00"/>
    <path d="M594.52,225.71c12.2,37.54-7.57,77.45,3.74,111.87s35.7,35,20.91.5S620.08,251.15,594.52,225.71Z" style="fill: #ffef00"/>
    <path d="M762.75,494.65c-26.28,8.9-22.41,39.34,3.31,26s71.58,12.45,88-17.14C825.32,515.37,789,485.69,762.75,494.65Z" style="fill: #ffef00"/>
    <path d="M661.74,674.47c-11.3-34.41-35.7-35-20.91-.51s-.91,86.93,24.65,112.37C653.28,748.79,673.05,708.88,661.74,674.47Z" style="fill: #ffef00"/>
    <path d="M630,340.42C554.84,323.6,493.92,386.5,493.92,478.17c0,91.25,60.92,176.63,136.08,193.45s136.08-46.08,136.08-137.75C766.08,442.62,705.16,357.24,630,340.42Z" style="fill: #e8112d"/>
    <path d="M630,358.82c-62.63-13.91-113.4,38-113.4,114.33,0,76.09,50.77,147.76,113.4,161.67s113.4-38,113.4-114.32C743.4,444.4,692.63,372.73,630,358.82Z" style="fill: #ffef00"/>
    <g style="clip-path: url(#a)">
      <path d="M894.37,660.59v.08l1.54.1a272.11,272.11,0,0,0-31.81-128A283.89,283.89,0,0,1,894.37,660.59Z" style="fill: #e8112d"/>
      <path d="M704.05,400.67C599,378,513.78,463.65,513.8,592.22q8.31,1.56,16.61,3.2c0-123.44,81.82-205.11,182.75-183.68,62.71,13,118,59.44,150.94,121C830.23,465.78,771.2,414.8,704.05,400.67Z" style="fill: #e8112d"/>
      <path d="M897.13,660.85l2.13.13a252.93,252.93,0,0,0-42.1-140.25A264.08,264.08,0,0,1,897.13,660.85Z" style="fill: #e8112d"/>
      <path d="M719.21,418.85C621,398.26,541.29,477.43,541.29,597.58q8,1.6,16,3.26c0-115.43,76.55-191.1,171-171.74,51.42,10.26,97.53,44.72,128.88,91.63C824.53,468.74,774.86,430.18,719.21,418.85Z" style="fill: #e8112d"/>
      <path d="M743.39,444.93h0q-4.53-4.65-9.07-9.31c-92-18.57-166.59,54.94-166.59,167.39,0,111.47,74.59,219.48,166.59,238.05l9.07-5.81C654.83,817.82,583,713.59,583,606.26,583,498,654.82,427.5,743.39,444.93Z" style="fill: #e8112d"/>
    </g>
    <g style="clip-path: url(#b)">
      <path d="M365.63,572.17v-.08c0-46.15,11.12-88.56,30.26-122.81-20.06,33.74-31.8,76.3-31.8,122.79Z" style="fill: #e8112d"/>
      <path d="M556,369c-67.15-14.16-126.18,19.49-160.06,80.32,32.92-55.53,88.24-85.95,151-73,100.93,21.44,182.75,138.91,182.75,261.13q8.31,1.62,16.61,3.2C746.22,513.41,661,391.73,556,369Z" style="fill: #e8112d"/>
      <path d="M362.87,572c0-51.81,15-98.67,40-133.33-26.21,33.81-42.1,80.91-42.1,133.2Z" style="fill: #e8112d"/>
      <path d="M540.79,381c-55.65-11.34-105.32,12.3-137.95,57.69,31.35-40.52,77.46-61.31,128.88-51.06,94.43,19.36,171,130,171,244.4q8,1.65,16,3.26C718.71,516.26,639.05,401.56,540.79,381Z" style="fill: #e8112d"/>
      <path d="M525.67,391.77q-4.53,2.89-9.07,5.82h0C605.18,415,677,519.26,677,626.6c0,108.23-71.81,178.75-160.38,161.31q4.53,4.64,9.07,9.3c92,18.57,166.59-54.94,166.59-167.38C692.26,518.36,617.67,410.34,525.67,391.77Z" style="fill: #e8112d"/>
    </g>
  </g>
</svg>
