<svg xmlns="http://www.w3.org/2000/svg" viewBox="0 0 1260 1012.04">
  <g>
    <path d="M0,90.08v920C420,738.76,840,1193.28,1260,922V2C840,273.28,420-181.24,0,90.08Z" style="fill: #032ea1"/>
    <path d="M0,780.08C420,508.76,840,963.28,1260,692V232C840,503.28,420,48.76,0,320.08Z" style="fill: #e00025"/>
    <path d="M516.42,556.64c76.48,14.53,153,33.4,229.43,47.84V503.77c-76.48-14.45-153-33.31-229.43-47.85Z" style="fill: #fff"/>
    <path d="M516.42,454.82l-1,.92V556.45l1,1.29c76.48,14.53,153,33.4,229.43,47.85l1-.93V504l-1-1.28C669.37,488.22,592.9,469.35,516.42,454.82ZM744.88,603.19c-75.83-14.36-151.66-33-227.49-47.48v-98.5c75.83,14.45,151.66,33.12,227.49,47.48Z"/>
    <path d="M516.42,487.25c76.48,14.53,153,33.4,229.43,47.85V524.77c-76.48-14.45-153-33.32-229.43-47.85Z" style="fill: #fff"/>
    <path d="M734,595.05l7.23,1.4V558.51l-7.23-1.4Z" style="fill: #fff"/>
    <path d="M516.42,504.5c76.48,14.53,153,33.4,229.43,47.85V540.64c-76.48-14.45-153-33.32-229.43-47.85Z" style="fill: #fff"/>
    <path d="M734,556l-1,.92v37.94l1,1.29,7.23,1.39,1-.92V558.69l-1-1.29Zm6.26,39.15-5.29-1V558.41l5.29,1Z"/>
    <path d="M516.42,475.82l-1,.92v10.33l1,1.28c76.48,14.54,153,33.41,229.43,47.85l1-.92V525l-1-1.29C669.37,509.22,592.9,490.35,516.42,475.82Zm228.46,58c-75.83-14.36-151.66-33-227.49-47.48v-8.12c75.83,14.45,151.66,33.12,227.49,47.48Z"/>
    <path d="M516.42,491.69l-1,.92v11.71l1,1.28c76.48,14.54,153,33.41,229.43,47.85l1-.92V540.82l-1-1.29C669.37,525.09,592.9,506.22,516.42,491.69Zm228.46,59.37c-75.83-14.36-151.66-33-227.49-47.48v-9.5c75.83,14.45,151.66,33.12,227.49,47.48Z"/>
    <path d="M516.42,471.09c76.48,14.53,153,33.4,229.43,47.85v-10c-76.48-14.44-153-33.31-229.43-47.84Z" style="fill: #fff"/>
    <path d="M516.42,460l-.95.9v10c.32.42.64.84.95,1.27,76.48,14.53,153,33.4,229.43,47.84l.95-.9v-10c-.32-.42-.64-.84-.95-1.27C669.37,493.39,592.9,474.52,516.42,460Zm228.47,57.68c-75.84-14.36-151.67-33-227.51-47.49v-7.84c75.84,14.45,151.67,33.13,227.51,47.49Z"/>
    <path d="M532.41,552.57l7.23,1.44V516.07l-7.23-1.43Z" style="fill: #fff"/>
    <path d="M562.65,558.72l7.23,1.51V522.29l-7.23-1.51Z" style="fill: #fff"/>
    <path d="M547.53,555.6l7.23,1.48V519.14l-7.23-1.47Z" style="fill: #fff"/>
    <path d="M719.54,592.19l7.23,1.44V555.69l-7.23-1.44Z" style="fill: #fff"/>
    <path d="M518.24,549.82l7.23,1.39V513.28l-7.23-1.4Z" style="fill: #fff"/>
    <path d="M689.3,586l7.23,1.51V549.54L689.3,548Z" style="fill: #fff"/>
    <path d="M704.42,589.12l7.23,1.48V552.66l-7.23-1.48Z" style="fill: #fff"/>
    <path d="M576.82,561.7l7.23,1.53V525.29l-7.23-1.53Z" style="fill: #fff"/>
    <path d="M675.59,583.06l7.23,1.54V546.66l-7.23-1.54Z" style="fill: #fff"/>
    <path d="M532.41,513.53l-1,.92v37.93l1,1.3,7.23,1.44,1-.91V516.27l-1-1.3Zm6.26,39.18-5.29-1.05V515.93l5.29,1.06Z"/>
    <path d="M518.24,510.78l-1,.92v37.94l1,1.29,7.23,1.39,1-.92V513.46l-1-1.29Zm6.26,39.14-5.29-1V513.17l5.29,1Z"/>
    <path d="M719.54,553.15l-1,.91V592l1,1.3,7.23,1.44,1-.92V555.89l-1-1.3Zm6.26,39.19-5.29-1.06V555.55l5.29,1.06Z"/>
    <path d="M675.59,544l-1,.89v37.94l1,1.31,7.23,1.54,1-.9V546.86c-.33-.43-.65-.87-1-1.31Zm6.26,39.27-5.29-1.13V546.43l5.29,1.13Z"/>
    <path d="M547.53,516.56l-1,.91v37.94c.33.43.65.87,1,1.3l7.23,1.48,1-.91V519.35l-1-1.31Zm6.26,39.22-5.29-1.08V519l5.29,1.08Z"/>
    <path d="M704.42,550.07l-1,.91v37.94c.32.43.64.87,1,1.3l7.23,1.48,1-.91V552.86l-1-1.31Zm6.26,39.23-5.29-1.09V552.48l5.29,1.09Z"/>
    <path d="M562.65,519.67l-1,.91v37.94c.33.43.65.87,1,1.3l7.23,1.52,1-.91V522.5l-1-1.31Zm6.26,39.25-5.29-1.11V522.09l5.29,1.1Z"/>
    <path d="M576.82,522.65l-1,.9v37.94l1,1.31,7.23,1.54,1-.9V525.5l-1-1.31Zm6.27,39.27-5.3-1.12V525.07l5.3,1.12Z"/>
    <path d="M689.3,546.92l-1,.9v37.94c.32.44.64.88,1,1.31l7.23,1.52,1-.91V549.74l-1-1.3Zm6.26,39.25-5.29-1.1V549.34l5.29,1.11Z"/>
    <path d="M824.84,610.53C695.1,593,565.35,554,435.61,536.34a17.54,17.54,0,0,1-8.92,11c135.69,17.39,271.38,59.22,407.07,76.55A25,25,0,0,1,824.84,610.53Z" style="fill: #fff"/>
    <path d="M825.77,610.36c-.06-.28-.13-.56-.2-.84C695.34,592,565.11,552.74,434.88,535.13c-.07.26-.13.52-.2.78a16.73,16.73,0,0,1-8.43,10.44c.15.72.3,1.43.44,2.15C562.38,565.88,698.07,607.72,833.76,625c.15-.67.29-1.35.44-2A23.9,23.9,0,0,1,825.77,610.36ZM429.93,546.71a19.1,19.1,0,0,0,6.4-9.17c129.26,17.64,258.53,56.41,387.8,74a26.92,26.92,0,0,0,6.4,10.88C697,605,563.46,564.19,429.93,546.71Z"/>
    <path d="M638.46,334.3l.46-5.81-18.26-4q.23,3,.46,6Z" style="fill: #fff"/>
    <path d="M634.32,327.26s.29-9.4-4.54-10.55c-4.82-.95-4.53,8.57-4.53,8.57Z" style="fill: #fff"/>
    <path d="M677.65,584.29V528.41l5.32-6.59c-35.47-7.52-70.93-15.48-106.4-23l5.1,8.81v55.88c0,5-4.08,9-8.17,9.93,38.06,8,76.12,16.61,114.18,24.63C683.6,595.43,677.65,589.24,677.65,584.29Z" style="fill: #fff"/>
    <path d="M642.81,341.37l.69-5.77-27.42-6q.33,3,.68,6.06Z" style="fill: #fff"/>
    <path d="M601.42,415c0,3.83-4,4.68-6.16-5.1-1.61,2.83-.91,9.94-.91,9.94.15,4.68,5.56,6.3,5.72,12.7v12.74c19.81,4.28,39.63,8.64,59.44,12.92V445.44c.16-6.33,5.57-5.62,5.72-10.23,0,0,.7-6.82-.9-10.34-2.19,8.84-6.16,6.27-6.16,2.45,0-3.35,2.25-6,6.87-13.08,1.47-2.27.56-10.59-1.51-13.94-.8,6.88-1.72,10.07-4.38,9.49-1.62-.35-2.94-1.84-2.94-5.38,0-4.5,2.67-6.19,4-10a14.14,14.14,0,0,0-2.07-12.83c-1.09,6.74-.76,9.58-3.48,9-5.47-3.16,0-11,1.17-13,1-4.12-1.81-8.35-1.81-8.35-1.73,5.81-2.29,6.2-4.17,5.21-2.37-1.23-2.06-5.17.83-7.78,1.82-1.65,1.63-4.73-.33-7.6-2.06,4.14-5.37,2.81-4.87.12.57-3.13,1.15-6.26,1.72-9.4l-34.78-7.58q.79,5.23,1.58,10.45c-.24,2.55-2.76,2.27-4.72-2.54a5.6,5.6,0,0,0-.33,7.46c2.89,3.86,3.19,7.93.82,8.14-1.87.17-2.43-.46-4.17-7,0,0-3.15,4.62-1.81,7.57,1.17,2.53,6.64,12.75,1.17,13.54-2.71-.59-2.39-3.3-3.48-10.5-2.55,2.17-3.6,6.81-2.07,11.92,1.32,4.38,4,7.23,4,11.73,0,3.54-1.33,4.46-3,4.11-2.66-.58-3.57-4.15-4.38-11.39-2.07,2.46-3,10.39-1.5,13.3C599.17,408,601.42,411.63,601.42,415Z" style="fill: #fff"/>
    <path d="M645,349.17q.4-3.51.8-7-16-3.48-31.93-7,.4,3.68.8,7.36Z" style="fill: #fff"/>
    <path d="M596.07,403.9c2.92,5.64,4.38,8.47,4.38,10.86,0,1-.39,1.8-.91,1.77s-2.18-1.51-3.35-6.74l-.6-2.71-1.17,2.06c-1.75,3.07-1.06,10.28-1,10.51.09,2.6,1.48,4.38,2.83,6.1s2.82,3.59,2.89,6.55v13.84c20.46,4.42,40.92,8.93,61.38,13.35V445.68c.07-3,1.44-4.11,2.89-5.34s2.74-2.31,2.82-4.8c0-.29.72-7.21-1-11L664,421.94c-.2.82-.41,1.63-.61,2.45-1.17,4.72-2.69,5.54-3.35,5.29s-.91-1.12-.91-2.16c0-2.38,1.46-4.58,4.37-8.95.7-1.05,1.48-2.22,2.35-3.55,1.69-2.61.78-11.45-1.57-15.26l-1.42-2.3c-.09.83-.19,1.66-.29,2.49-.8,6.91-1.66,9.12-3.42,8.74-.49-.11-2-.43-2-4.07a10.25,10.25,0,0,1,2-5.79A19.47,19.47,0,0,0,661.1,395a15.56,15.56,0,0,0-2.31-14.06c-.44-.55-.87-1.11-1.31-1.67-.1.64-.2,1.29-.31,1.93-.22,1.38-.39,2.59-.53,3.65-.57,4.23-.78,4.85-1.85,4.67a3.06,3.06,0,0,1-1.41-1.73c-.84-2.74,1.86-7.17,2.88-8.84l.39-.65.1-.25c1.14-4.62-1.89-9.22-2-9.42l-1.13-1.68c-.17.58-.34,1.15-.52,1.73-1.63,5.45-1.94,5.28-3,4.73a1.5,1.5,0,0,1-.8-1.09,5.48,5.48,0,0,1,2.06-4.75c2.16-1.95,2-5.71-.3-9.12l-.94-1.38-.63,1.28c-1,2-2.29,2.45-2.86,2.1-.28-.17-.25-.61-.2-.86q1-5.34,2-10.67l-2.33-.51.81-7.1-3-.64q.36-3,.7-5.91l-5.1-1.11.48-6-4.7-1c0-1.83-.37-6-2.24-8.65a5.52,5.52,0,0,0-3.27-2.34,3.41,3.41,0,0,0-3.23.92c-1.88,1.85-2.21,5.86-2.26,7.67l-4.68-1q.24,3.12.47,6.22l-5.1-1.11.7,6.22-2.94-.65.81,7.46-2.3-.5q.88,5.81,1.76,11.61c0,.34-.18.66-.41.66-.46,0-1.48-.89-2.47-3.33-.21-.51-.43-1-.64-1.55l-.94,1a6.84,6.84,0,0,0-.29,9c1.77,2.38,2.31,4.59,2,5.64a.83.83,0,0,1-.8.74c-1,.1-1.36.12-3-6l-.6-2.29-1.12,1.64c-.36.52-3.45,5.21-1.84,8.73l.39.83c1,2.11,3.71,7.7,2.88,10.08a1.7,1.7,0,0,1-1.42,1.12c-1.06-.28-1.27-1-1.85-5.47-.14-1.12-.3-2.41-.53-3.88-.1-.69-.21-1.38-.31-2.07l-1.3,1.11c-3,2.53-3.9,7.78-2.32,13.06a31.53,31.53,0,0,0,1.93,4.67c1.07,2.24,2,4.17,2,6.66,0,3.64-1.49,3.32-2,3.21-1.75-.37-2.61-3-3.42-10.21-.09-.87-.19-1.74-.28-2.61l-1.43,1.68c-2.35,2.8-3.26,11.25-1.56,14.59C594.6,401.05,595.37,402.55,596.07,403.9Zm31.87-85.56a1.93,1.93,0,0,1,1.83-.53,3.08,3.08,0,0,1,1.86,1.34c1.25,1.78,1.64,4.91,1.71,6.79l-7.11-1.55C626.3,322.54,626.68,319.58,627.94,318.34Zm9.92,11c-.09,1.22-.19,2.43-.28,3.64L622,329.61c-.09-1.26-.19-2.51-.28-3.77Zm4.54,7.11c-.15,1.2-.29,2.4-.43,3.61l-24.36-5.31-.43-3.8Zm2.26,6.55c-.19,1.62-.37,3.24-.56,4.86l-28.62-6.24c-.19-1.7-.37-3.4-.56-5.1Zm-49.11,46.17c.71,4.8,1.85,8.28,4.88,8.93,1.18.26,3.91.28,3.91-5,0-3.11-1.16-5.53-2.28-7.87A28.63,28.63,0,0,1,600.3,381c-1-3.5-.8-7,.56-9.27.06.47.12.92.17,1.33.57,4.46.91,7.15,3.91,7.8h.29a3.2,3.2,0,0,0,2.79-2.21c1.17-3.31-1.68-9.21-3-12l-.37-.77c-.52-1.16,0-3,.74-4.55,1.23,4.22,2.2,5.71,4.65,5.49a2.4,2.4,0,0,0,2.18-2c.49-2-.52-5.14-2.57-7.89a4.38,4.38,0,0,1-.44-4.85c1.14,2.08,2.5,3.28,3.77,3.29,1.09,0,1.86-.91,2-2.39,0-.05,0-.11,0-.16l-1.41-9.26L646,350.59q-.74,4.07-1.49,8.13a3.52,3.52,0,0,0,1.46,3.66c1.21.74,3,.54,4.43-1.38.85,1.9.72,3.65-.42,4.68a7.37,7.37,0,0,0-2.57,6.78,4.27,4.27,0,0,0,2.17,3c2.48,1.3,3.45.17,4.71-3.64a9,9,0,0,1,.62,5.14l-.3.5c-1.37,2.24-4.21,6.91-3.05,10.73a5.89,5.89,0,0,0,2.79,3.41l.29.12c3,.65,3.35-1.89,3.91-6.11.06-.39.11-.81.18-1.25a13,13,0,0,1,.55,9.51,17.79,17.79,0,0,1-1.76,3.49,12.18,12.18,0,0,0-2.28,6.88c0,5.28,2.74,6.44,3.91,6.7,3,.65,4.17-2.33,4.89-6.83.9,3.56,1,8.09.18,9.39s-1.63,2.5-2.33,3.54c-3.12,4.7-4.69,7.05-4.69,10.11,0,2.21,1.06,4.15,2.59,4.71.88.31,2.83.48,4.47-3.35a35.54,35.54,0,0,1,0,6.49c-.06,1.66-1,2.46-2.22,3.48a8.18,8.18,0,0,0-3.51,6.79v11.63c-19.16-4.15-38.33-8.36-57.5-12.51V432.69c-.1-3.92-2-6.34-3.51-8.27-1.21-1.54-2.16-2.75-2.22-4.53a33.93,33.93,0,0,1,0-6.4c1.63,4.54,3.59,5.22,4.46,5.28,1.53.1,2.6-1.38,2.6-3.59,0-3.05-1.58-6.1-4.71-12.16-.69-1.34-1.47-2.83-2.32-4.52S594.65,392.35,595.55,389.19Z"/>
    <path d="M678.62,584.5V529q3.17-3.93,6.34-7.87c-36.78-7.78-73.55-16-110.33-23.82q3,5.25,6.08,10.49v55.52c0,4.51-3.92,8.2-7.55,9,.11.73.23,1.47.34,2.21,38.06,8,76.12,16.6,114.18,24.62.12-.68.24-1.37.35-2.06C684.09,594.56,678.62,588.74,678.62,584.5ZM577.2,573.13a11.34,11.34,0,0,0,5.44-9.4V507.48q-2.05-3.57-4.13-7.13c34.16,7.25,68.31,14.89,102.47,22.15l-4.3,5.32v56.27c0,4.08,3.41,8.73,7,12C648.17,588.61,612.68,580.65,577.2,573.13Z"/>
    <path d="M595.49,565.69l7.23,1.56V529.31l-7.23-1.56Z" style="fill: #fff"/>
    <path d="M656.62,579l7.23,1.56V542.6L656.62,541Z" style="fill: #fff"/>
    <path d="M656.62,539.93l-1,.9v37.94l1,1.31,7.23,1.56,1-.89V542.81l-1-1.31Zm6.26,39.3-5.29-1.15V542.35l5.29,1.15Z"/>
    <path d="M595.49,526.64l-1,.9v37.94l1,1.31,7.23,1.57,1-.9V529.52l-1-1.31Zm6.26,39.3-5.29-1.15V529.06l5.29,1.15Z"/>
    <path d="M678.5,463.86V491c-32.76-7-65.52-14.3-98.28-21.26V442.6a14,14,0,0,0-5.55-7.78h0v63.61c36.3,7.67,72.6,15.83,108.91,23.52v-13.7l.15-49.88A7.18,7.18,0,0,0,678.5,463.86Z" style="fill: #fff"/>
    <path d="M677.53,463.65v26c-32.11-6.85-64.23-14-96.34-20.85v-26l0-.29a15.39,15.39,0,0,0-6.14-8.64L573.7,433v66.33c36.95,7.8,73.9,16.11,110.85,23.93l.16-66.31-1.33.32C678.49,458.42,677.59,463.24,677.53,463.65ZM682.61,508v12.6c-35.66-7.57-71.32-15.56-107-23.11V436.79a12.47,12.47,0,0,1,3.62,5.77v28c33.41,7.1,66.81,14.57,100.22,21.68l0-28a6.45,6.45,0,0,1,3.31-4.34Z"/>
    <path d="M657.48,580V517.42c.76-3.33,4.91-4.49,7.58-6.09-24.07-5.18-48.14-10.5-72.22-15.68,3.44,2.81,7.27,5.37,8.64,9.59v62.54c0,4.94-6.13,8.54-9.69,9.57,25.67,5.52,51.34,11.19,77,16.71C665.23,591.5,657.48,584.9,657.48,580Z" style="fill: #fff"/>
    <path d="M658.45,580.17v-62.4c.54-2.06,2.85-3.2,5.08-4.31.74-.37,1.45-.73,2.09-1.11l2.46-1.47c-25.08-5.39-50.16-10.94-75.24-16.33l-.45,2c.48.39,1,.78,1.45,1.16,2.87,2.28,5.58,4.45,6.67,7.56v62.32c0,4.13-5.43,7.63-9.11,8.69l.39,2.2c25.67,5.51,51.34,11.19,77,16.7l.39-2C664.87,590,658.45,584,658.45,580.17Zm-62.91-3.12c3.42-1.82,6.91-5,6.91-9.06V505.45l-.07-.42c-1-3.15-3.2-5.41-5.58-7.42,21.66,4.67,43.32,9.44,65,14.12-2.27,1.15-4.62,2.54-5.23,5.22l0,62.8c0,4.33,4.75,9.27,8.27,12.34C641.7,587.12,618.62,582,595.54,577.05Z"/>
    <path d="M644.62,577.16V523.77l2.87-4.23q-17.84-3.87-35.66-7.77l2.86,5.48v53.39c0,5-5.08,8.76-8.57,9.8q23.53,5.1,47.07,10.25C649.7,588.14,644.62,582.11,644.62,577.16Z" style="fill: #fff"/>
    <path d="M668.59,463.31c-26.1-5.61-52.2-11.39-78.3-17v4.39l-9.9-2.11v45c32.7,7,65.4,14.26,98.1,21.22V469.82l-9.9-2.11Z" style="fill: #fff"/>
    <path d="M645.59,577.38V524.32l3.72-5.49q-19.65-4.26-39.3-8.56l3.71,7.11v53c0,4.27-4.64,7.92-8,8.92.13.73.27,1.47.4,2.2q23.53,5.1,47.07,10.24c.13-.67.27-1.35.4-2C650.23,587.31,645.59,581.64,645.59,577.38Zm-36,2.72c3.07-1.88,6-5.17,6-9.25V517.12c-.68-1.28-1.35-2.56-2-3.85l32,7-2,3V577c0,4.08,3,8.65,6,11.87Z"/>
    <path d="M669.56,462.42c-26.75-5.75-53.49-11.67-80.24-17.41v4.39l-9.9-2.11v47.26c33.35,7.08,66.69,14.54,100,21.63V468.93l-9.9-2.12Zm8,8.3v42.84c-32-6.83-64.11-14-96.16-20.81V449.91l9.9,2.12v-4.4c25.45,5.47,50.91,11.1,76.36,16.58v4.39Z"/>
    <path d="M620.63,583.57l18.08,3.94V517.64l-18.08-3.94Z" style="fill: #fff"/>
    <path d="M619.64,584.48l20.06,4.37V516.73l-20.06-4.37Zm2-69.44,16.1,3.51v67.61l-16.1-3.51Z"/>
    <path d="M611,496.24c.81,3.15,1.63,6.31,2.45,9.46l30,7.92,4.73-9.28c0-4.59,11.77-2.25,17.81-4.87-24.16-5.21-48.32-10.54-72.48-15.74C599.55,488.94,611,491.75,611,496.24Z" style="fill: #fff"/>
    <path d="M593.52,482.62l-.48,2a46.44,46.44,0,0,0,9.17,5.62c3.67,1.88,7.83,4,7.83,5.83q1.25,4.91,2.5,9.8c.29.32.59.64.88,1l30,7.91.9-.4,4.73-9.27c0-.16.07-.32.11-.48,0-1.86,4.26-2.16,8-2.43,3.31-.23,6.73-.48,9.3-1.6-.15-.72-.31-1.45-.47-2.17C641.84,493.16,617.68,487.82,593.52,482.62Zm63.18,17.27c-4.93.35-9.21.65-9.46,3.95l-4.35,8.52-28.71-7.57c-.74-2.84-1.47-5.68-2.21-8.52-.15-3.41-4.38-5.59-9.27-8.11-1.44-.73-2.89-1.48-4.28-2.27,20.87,4.5,41.73,9.1,62.6,13.61C659.63,499.68,658.15,499.78,656.7,499.89Z"/>
    <path d="M662.36,458.79c-21.69-4.68-43.39-9.46-65.08-14.15,0-11.07,0-15.61-3.77-16.41v35.83c7.45,4.68,12.76,16.67,12.76,16.67q23.38,5.07,46.79,10.19s5.31-9.68,12.75-11.16V443.92C662.78,443.27,662.36,447.52,662.36,458.79Z" style="fill: #fff"/>
    <path d="M665.81,454.91v44.83l7.26,1.56V468.66s-3-.74-3-6.41,1.8-9.1,5.52-8.12v-11.5S665.81,442,665.81,454.91Z" style="fill: #fff"/>
    <path d="M666.78,446.33V443l-1-.21c-4.06-.87-4.4,4.68-4.41,14.66-21-4.55-42.1-9.19-63.15-13.73,0-10.71-.16-15.64-4.74-16.63l-1-.21v37.72l.63.4c7,4.41,12.19,15.94,12.24,16.06s.19.41.28.62c16,3.46,31.95,7,47.93,10.43l.27-.5c.05-.09,4.6-8.25,10.94-10.42v19.41l9.2,2V468.87c0-.35,0-.69,0-1l-.9-.26c-.09,0-2.08-.67-2.08-5.11,0-3.31.65-5.7,1.84-6.75a2.77,2.77,0,0,1,2.67-.48l1,.26V441.58l-1.1-.07A10,10,0,0,0,666.78,446.33Zm-1.94,32.47c-6.45,1.68-11.14,8.89-12.34,10.89q-22.83-4.95-45.68-9.94c-1.19-2.52-5.88-11.78-12.34-16.24V429.75c1.74,1.27,1.83,5.19,1.83,14.69v1.1c22.34,4.82,44.68,9.74,67,14.56V459c0-9.21.35-12.94,1.51-13.8Zm9.78-25.94a4,4,0,0,0-3.08,1c-1.59,1.4-2.44,4.24-2.44,8.21,0,4.58,1.84,6.5,3,7.26V500l-5.32-1.14V455.12c0-9.37,5.45-11,7.84-11.32Z"/>
    <path d="M583.78,422.75v11.5c3.72.61,5.52,4.81,5.51,10.48s-3,5.12-3,5.12v32.64l7.25,1.56q0-22.43,0-44.83C593.56,426.3,583.78,422.75,583.78,422.75Z" style="fill: #fff"/>
    <path d="M583.9,421.68l-1.09-.4v13.91l1,.17a4.06,4.06,0,0,1,2.67,1.63c1.18,1.55,1.84,4.23,1.84,7.53,0,4.44-2,4.23-2.06,4.22l-.94-.17v34.82l9.19,2V439.43C594.52,425.69,584,421.71,583.9,421.68Zm8.69,61.05-5.33-1.14V450.91c1.17-.26,3-1.4,3-6,0-4-.84-7.18-2.44-9.26a6.47,6.47,0,0,0-3.07-2.29v-9.07c2.39,1.29,7.84,5.27,7.84,14.69Z"/>
    <path d="M647.36,361l-34.53-7.52v1.84l34.53,7.52Z"/>
    <path d="M650.91,374q-21.09-4.57-42.17-9.19v1.84q21.09,4.59,42.17,9.19Z"/>
    <path d="M659.92,409.16c-19.85-4.29-39.7-8.66-59.55-13v1.84c19.85,4.29,39.7,8.66,59.55,12.95Z"/>
    <path d="M654.85,389.82q-25.1-5.44-50.21-10.93v1.84q25.11,5.44,50.21,10.93Z"/>
    <path d="M599,418.54c20.45,4.42,40.89,8.92,61.34,13.34V430c-20.45-4.42-40.89-8.92-61.34-13.34Z"/>
    <path d="M580.39,482.56q15.09,3.21,30.16,6.5v15.27q19.16,4.16,38.3,8.34V497.4q14.82,3.23,29.64,6.39v-2.21c-32.7-7-65.4-14.27-98.1-21.22Zm32.1,6.94,34.42,7.5v13l-34.42-7.5Z"/>
    <path d="M633.47,364.58l4.79-1.77v-8.05c-2,.25-4.16.05-4.38,3.56-.68-5.23-1.91-5.25-3.84-7.65-1.93,1.56-3.16,1-3.84,6-.21-3.6-2.42-4.36-4.37-5.45v8l4.79,3.86Z" style="fill: #fff"/>
    <path d="M607,453.41c6,9.57,5.47,23.45,5.41,31.69q17.48,3.81,35,7.62c-.07-8.27-.63-22.4,5.4-29.35Q629.84,458.41,607,453.41Z" style="fill: #fff"/>
    <path d="M633.7,365.74l5.53-2.05v-10.2l-1.87.22a5.14,5.14,0,0,0-3.25,1.14,8.82,8.82,0,0,0-2.32-3.63c-.33-.35-.7-.74-1.1-1.23l-.65-.81-.64.52a9.24,9.24,0,0,1-1.11.76,4.82,4.82,0,0,0-2.31,2.61,8.7,8.7,0,0,0-3.26-2.55l-1.86-1v10.2l5.52,4.45Zm-10.9-12.88c1.51.85,2.31,1.58,2.43,3.65l1.93.51c.47-3.41,1.11-3.81,2.28-4.53.19-.12.39-.24.6-.39.21.24.41.45.61.65,1.17,1.24,1.81,1.92,2.28,5.53l1.92.33c.12-2,.93-2.4,2.44-2.59v5.91l-4.06,1.5L626.85,362l-4.05-3.27Z"/>
    <path d="M606.22,454c5.43,8.61,5.29,21.09,5.2,29.34l0,2.7,36.91,8c0-.9,0-1.79,0-2.68-.1-8.31-.24-20.85,5.19-27.12l1.32-1.52q-24.94-5.42-49.89-10.86Zm44.59,10.1c-4.7,7.09-4.56,18.9-4.47,26.9v.44l-33-7.19v-.46c.09-8,.22-19.7-4.47-28.82Q629.85,459.49,650.81,464.06Z"/>
    <path d="M635.51,369.52c-1-5.78-2.72-9-5.47-11.82-2.75,1.57-4.5,4.07-5.47,9.44-.31-4-3.44-5-6.23-6.31v7.42l8,8,7.48,1.63,8-4.5v-7.41C639,366.06,635.82,365.68,635.51,369.52Z" style="fill: #fff"/>
    <path d="M635.75,366.17a19.32,19.32,0,0,0-5.16-9.25l-.55-.56-.55.32c-2.54,1.44-4.13,3.56-5.16,7a11.29,11.29,0,0,0-4.87-3.45l-2.09-1v9.39l8.63,8.64,8.09,1.76,8.62-4.88v-9.38l-2.08.08C638.94,364.89,637,364.94,635.75,366.17Zm5,6.39-7.29,4.12-6.88-1.5-7.29-7.3v-5.46c2.54,1.18,4.1,2.1,4.29,4.61l1.92.53c.79-4.38,2.12-6.9,4.52-8.49,2.4,2.64,3.73,5.74,4.53,10.46l1.91.3c.19-2.42,1.75-2.66,4.29-2.73Z"/>
    <path d="M634.34,398.55l9.15-7.17V380.49c-3.21.39-6.81,0-7.16,5.7-1.11-8.43-3.13-13.1-6.3-17-3.16,2.5-5.17,6.3-6.29,14.24-.35-5.81-4-7-7.16-8.82v10.89l9.15,11.16Z" style="fill: #fff"/>
    <path d="M625,421.74l9.36,2,8.28-11.25-25.92-5.65Z" style="fill: #fff"/>
    <path d="M618,446.46l23.29,5.08c.44-9.56,2-14.36,6.1-16q-17.74-3.87-35.5-7.74C616.06,431.24,617.59,436.71,618,446.46Z" style="fill: #fff"/>
    <path d="M634.71,399.74l9.75-7.65V379.22l-1.25.15-1,.11c-2,.18-4.24.4-5.62,2.36-1.15-5.7-3-9.73-5.88-13.32l-.65-.78-.64.51c-2.91,2.3-4.72,5.55-5.88,10.75-1.37-2.56-3.66-3.78-5.62-4.81l-1-.56-1.24-.69v12.87l9.75,11.9ZM617.55,376.3c2.79,1.47,5,2.71,5.23,7l1.92.51c.93-6.65,2.5-10.53,5.33-13.11,2.84,3.82,4.41,8.38,5.34,15.43l1.92.33c.27-4.19,2.45-4.48,5.23-4.74v8.93l-8.54,6.7-7.88-1.71-8.55-10.42Z"/>
    <path d="M634.83,425l9.67-13.15-29.7-6.48,9.67,17.37Zm5.88-11.77-6.87,9.35-8.38-1.83-6.87-12.34Z"/>
    <path d="M611.92,426.66c-.15.65-.31,1.31-.46,2,3.64,3.06,5.16,7.85,5.6,17.68,0,.35,0,.7.05,1.06l25.12,5.47c0-.34,0-.69,0-1,.45-9.63,2-13.76,5.61-15.25-.16-.72-.31-1.44-.47-2.17Zm28.48,23.58-21.46-4.68c-.36-6.7-1.32-12.13-4.15-16.07L644.56,436C641.73,438.69,640.77,443.7,640.4,450.24Z"/>
    <path d="M640.15,406.37c0-4.35-5-15.48-10.49-21.67-5.49,4.39-10.6,12.36-10.5,17.1a14.91,14.91,0,0,0-7.61-9.15v13.11l36.22,7.89V400.54A8.31,8.31,0,0,0,640.15,406.37Z" style="fill: #fff"/>
    <path d="M640.57,403.15A54,54,0,0,0,630.26,384l-1.25-.24c-4.31,3.45-8.81,9.49-10.3,14.54a17.3,17.3,0,0,0-6.9-6.63l-1.23.8v13.11l1,1.32,36.22,7.89,1-.9V400.75l-1.23-1.33A9.19,9.19,0,0,0,640.57,403.15Zm6.23,9.19q-17.14-3.73-34.28-7.47V394.38a13.37,13.37,0,0,1,5.72,7.54l1.89.06c-.09-4.05,4.4-11.4,9.56-15.81,5,6,9.5,16.11,9.5,20l1.88.79a7.36,7.36,0,0,1,5.73-5.1Z"/>
    <path d="M641.17,428.51c0-4.35-5.5-15.59-11.5-21.89-6,4.28-11.62,12.14-11.51,16.88-1-3.66-4-7.14-8.34-9.31V427.3q19.84,4.32,39.7,8.65V422.84C645.21,423.14,642.42,425.18,641.17,428.51Z" style="fill: #fff"/>
    <path d="M641.6,425.47a53.78,53.78,0,0,0-11.36-19.62l-1.18-.22c-4.78,3.39-9.77,9.43-11.35,14.5a18.26,18.26,0,0,0-7.66-7l-1.2.81v13.11l1,1.32q19.84,4.3,39.7,8.65l1-.9V423.05c-.4-.45-.8-.89-1.21-1.33C645.88,422,643.27,423.23,641.6,425.47Zm6.95,9.17-37.76-8.23V415.87a14,14,0,0,1,6.46,7.78l1.88,0C619,419.63,624,412.33,629.7,408c5.49,6.12,10.51,16.38,10.51,20.27l1.86.82a7.78,7.78,0,0,1,6.48-5Z"/>
    <path d="M644,455.27c0-8.19-8.11-22.44-14.32-27.89-6.37,2.81-14.31,14-14.31,21.65-1.73-3-5-8.25-10.38-11v15.13q24.69,5.35,49.39,10.75V448.78C649,449.2,645.67,453,644,455.27Z" style="fill: #fff"/>
    <path d="M644.68,452.63c-1.45-8.6-8.69-21-14.53-26.1l-1-.21c-5.78,2.55-13.06,12-14.53,19.81-2.11-3.24-5.14-6.92-9.44-9.11l-1.21.8V453l1,1.32c16.46,3.56,32.93,7.18,49.39,10.75l1-.9V449c-.41-.44-.81-.88-1.21-1.33A14,14,0,0,0,644.68,452.63Zm8.71,10q-23.73-5.14-47.46-10.33V439.74c4.15,2.58,6.9,6.76,8.65,9.79l1.74-.29c0-7.23,7.49-17.61,13.34-20.57,6,5.59,13.35,19,13.35,26.39l1.75,1c2.56-3.45,5.4-5.43,8.63-6Z"/>
    <path d="M643.82,490.5c.59-15.65-7.78-34.43-14.16-40.12-6.37,2.91-14.9,18.37-14.16,33.95-1.52-3.85-2.9-9.37-7.63-12.51v15.55q21.79,4.72,43.59,9.49V481.31C646.73,482.4,645.31,487.29,643.82,490.5Z" style="fill: #fff"/>
    <path d="M644.72,485.9c-1-15.29-8.8-31.21-14.56-36.36l-1-.21c-5.72,2.61-13.66,15.36-14.59,30-1.27-3.05-3.05-6.26-6.36-8.45l-1.32.74v15.55l1,1.32q21.79,4.72,43.59,9.49l1-.9V481.52l-1.32-1.31C647.79,481,646,483.39,644.72,485.9Zm5.77,9.65q-20.84-4.53-41.65-9.07V473.79c2.69,2.43,3.95,5.86,5.07,8.92.25.67.49,1.31.73,1.92l1.83-.15c-.71-14.8,7.22-29.48,13.19-32.79,5.81,5.76,13.76,23.39,13.2,38.55l1.84.93c.21-.45.41-.94.63-1.44,1.13-2.64,2.4-5.59,5.16-6.87Z"/>
    <path d="M641.31,509.57c.59-9.3-5.26-21.32-11.64-27C623.3,485.47,617.45,495,618,504.49c-1.57-3.82-1.77-5.95-6.83-8.4v15.56q18.48,4,36.95,8.05V504.14C643.2,504.41,642.89,506.43,641.31,509.57Z" style="fill: #fff"/>
    <path d="M642.16,505.59c-1-9.13-6.54-19-12-23.87l-.5-.44-.49.22c-5.45,2.49-11,9.93-12,18.6-1-1.84-2.43-3.42-5.77-5l-1.19-.58v18L649.12,521V503l-1.19.06C644.62,503.2,643.16,504.16,642.16,505.59Zm5,12.79-35-7.63v-13c2.89,1.63,3.44,3.05,4.43,5.62.17.45.36.94.57,1.45l1.83-.18c-.55-9,5-17.83,10.67-20.77,5.69,5.42,11.23,16.66,10.68,25.42l1.82,1,.53-1.08c1-2.19,1.61-3.41,4.48-3.8Z"/>
    <path d="M426.46,434.39v41.39c3.35,1.48,7.8,7.37,9.15,13.54v47c2.34.31,4.67.64,7,1V484.49L434,440Q430.24,437.2,426.46,434.39Z" style="fill: #fff"/>
    <path d="M425.49,432.41v44.08l.71.32c3,1.31,7.14,6.77,8.45,12.52v48c3,.4,6,.82,8.93,1.24V484.62q-4.36-22.62-8.73-45.2Q430.17,435.9,425.49,432.41Zm16.15,103.66-5.06-.71v-45.9l0-.28c-1.36-6.23-5.65-12.05-9.12-14.07V436.37l5.72,4.28,8.49,43.82Z"/>
    <path d="M426.46,431.52v44.26c3.35,1.48,7.8,7.37,9.15,13.54v47.2l7,.61V484.49Q438.31,462.25,434,440S431.52,432.17,426.46,431.52Z" style="fill: #fff"/>
    <path d="M426.46,430.41l-1-.12v46.2l.71.32c3,1.32,7.14,6.78,8.45,12.52v48.21l8.93.78V484.63q-4.33-22.45-8.67-44.86C434.8,439.42,432.13,431.14,426.46,430.41Zm15.18,105.53-5.06-.44v-46l0-.28c-1.36-6.22-5.65-12-9.12-14.07V432.86c3.67,1.36,5.62,7.29,5.63,7.29q4.29,22.16,8.58,44.33Z"/>
    <path d="M520.74,551.1V492.34l3.43-4.19c-29.25-5.67-58.5-10.74-87.74-14.73.79,1.72,1.59,3.45,2.39,5.17v58.76c0,4.94-5.08,9.17-8.57,10.51,32.49,4.26,65,9.9,97.47,16.25C524.23,561.63,520.74,556,520.74,551.1Z" style="fill: #fff"/>
    <path d="M521.71,551.28V492.91c1.5-1.82,3-3.65,4.48-5.47-30.47-5.93-61-11.24-91.42-15.35l3.08,6.66v58.47c0,4.27-4.64,8.29-8,9.58l.4,2.16c32.49,4.26,65,9.91,97.47,16.25l.4-2C525,561,521.71,555.83,521.71,551.28Zm-87.93-4.06c3.06-2.14,6-5.65,6-9.73V478.44l-1.71-3.69c28,3.86,56,8.71,84.07,14.11l-2.37,2.9v59.15c0,4.07,2.1,8.41,4.7,11.46C494.24,556.51,464,551.28,433.78,547.22Z"/>
    <path d="M501.45,547.48V491.6l7.29-6.39c-19.88-3.69-39.76-7.08-59.65-10q3.66,4.4,7.3,8.82v55.88c0,4.94-5.08,9.09-8.57,10.38,20.73,3,41.46,6.56,62.19,10.43C506.53,558.27,501.45,552.42,501.45,547.48Z" style="fill: #fff"/>
    <path d="M511.21,484.57c-21.53-4-43-7.7-64.58-10.82q4.39,5.29,8.79,10.61v55.4c0,4.27-4.64,8.23-8,9.47l.39,2.17c20.73,3,41.46,6.56,62.19,10.43.14-.68.27-1.36.4-2-3.35-2.35-8-7.86-8-12.13v-55.4Q506.82,488.41,511.21,484.57ZM506.49,559c-18.38-3.4-36.76-6.52-55.14-9.25,3.07-2.1,6-5.57,6-9.65V483.7q-2.89-3.52-5.8-7c18.24,2.71,36.48,5.81,54.72,9.18l-5.8,5.08v56.37C500.48,551.38,503.42,555.84,506.49,559Z"/>
    <path d="M493.08,546V495.46q2.39-3.45,4.78-6.88-19-3.4-37.9-6.37l4.78,8.48v50.52c0,4.94-5.08,9.06-8.57,10.33q22.74,3.47,45.48,7.64C498.16,556.75,493.08,550.92,493.08,546Z" style="fill: #fff"/>
    <path d="M494.05,546.15V496c1.89-2.72,3.78-5.45,5.67-8.16q-20.81-3.78-41.63-7,2.85,5,5.68,10.07v50.17c0,4.26-4.64,8.19-8,9.41.14.72.27,1.45.4,2.17q22.74,3.47,45.48,7.64c.13-.68.26-1.36.4-2C498.69,555.91,494.05,550.42,494.05,546.15ZM459.7,551c3.06-2.07,6-5.53,6-9.61V490.49c-1.3-2.29-2.59-4.59-3.88-6.88q17.07,2.67,34.16,5.74c-1.29,1.86-2.59,3.72-3.88,5.59v50.87c0,4.08,2.94,8.52,6,11.62Q478.91,554,459.7,551Z"/>
    <path d="M469.86,553.7q9,1.47,18.1,3V486.84q-9-1.57-18.1-3Z" style="fill: #fff"/>
    <path d="M468.89,554.65q10,1.62,20,3.37V485.91q-10-1.76-20-3.38Zm1.93-69.59q8.08,1.31,16.17,2.72v67.69q-8.08-1.4-16.17-2.72Z"/>
    <path d="M447.71,428.58c-2.89-.42-5.77-.83-8.66-1.23v7.22c2.89.4,5.77.81,8.66,1.24Z" style="fill: #fff"/>
    <path d="M447.76,435.9c-2.9-.42-5.81-.83-8.71-1.23v38.89c2.9.4,5.81.81,8.71,1.24Z" style="fill: #fff"/>
    <path d="M445.22,537.46l7.23,1.06V500.58l-7.23-1.06Z" style="fill: #fff"/>
    <path d="M507.21,547.75l7.23,1.35V511.16l-7.23-1.35Z" style="fill: #fff"/>
    <path d="M507.21,508.7l-1,.93v37.94l1,1.28,7.23,1.36,1-.93V511.35l-1-1.29Zm6.26,39.11-5.29-1V511.09l5.29,1Z"/>
    <path d="M448.73,474.94q0-23.12-.05-46.22c-.33-.41-.65-.83-1-1.24-2.89-.42-5.77-.83-8.66-1.23l-1,1v46.21l1,1.23,8.71,1.24ZM440,428.59l6.72,1v5l-6.72-1Zm6.77,45c-2.26-.33-4.51-.65-6.77-1V435.9l6.77,1Z"/>
    <path d="M445.22,498.42l-1,1v37.94l1,1.25c2.41.34,4.82.7,7.23,1.06l1-1V500.73l-1-1.25Zm6.26,38.85-5.29-.77V500.77l5.29.77Z"/>
    <path d="M510.68,484.86q6.21,1.17,12.42,2.37v-30q-6.21-1.2-12.42-2.36Z" style="fill: #fff"/>
    <path d="M510.68,453.65c-.35.33-.7.66-1,1v30l1,1.38q6.21,1.17,12.42,2.37l1-1v-30l-1-1.39Q516.89,454.81,510.68,453.65Zm11.38,32.19q-5.17-1-10.34-2V456.23q5.17,1,10.34,2Z"/>
    <path d="M434,422.29v50.78l5.06.69V422.85C437.22,421.55,435.5,421.15,434,422.29Z" style="fill: #fff"/>
    <path d="M502.63,426.77c-3-.54-2.65-4.53-1-7.51,1.48-2.65,3.3-6.34.82-14.3-1.7,5.43-6.27,6.43-5.43,3,1.46-5.92,5.64-6.18,2.5-16.34-1.09,7.8-5.59,6.64-4.5,2.19,1.23-5,3.78-6.72.64-14.67-1.76,8.08-4.14,7.16-4.14,1.95,0-7.69.26-16-8.47-20.55,0,0-.5-7.15-3.65-7.68s-3.66,6.45-3.66,6.45c-8.73,1.64-8.47,10-8.47,17.69,0,5.21-2.38,5.32-4.14-3.35-3.14,6.9-.59,9.45.64,14.89,1.09,4.82-3.41,4.46-4.5-3.71-3.13,9.12,1.05,10.78,2.5,17.19.85,3.73-3.73,1.19-5.43-4.8-2.48,7.12-.66,11.42.82,14.57,1.67,3.54,2,7.63-1,7.17-5.7-.86-6.09-10.66-8.57-11v66.56c21.19,3.09,42.38,6.71,63.57,10.68V418.6C508.71,418.14,508.33,427.81,502.63,426.77Z" style="fill: #fff"/>
    <path d="M433.39,421.34l-.38.28v52.43l7,.95V422.31l-.54-.38C437.14,420.26,435.09,420.06,433.39,421.34Zm4.68,51.18L435,472.1V423c.64-.34,1.61-.49,3.12.42Z"/>
    <path d="M507.89,420.9c-1.14,2.48-2.44,5.28-5.26,4.76a1.25,1.25,0,0,1-1.07-.73c-.49-1.05-.1-3.14.92-5,1.35-2.43,3.61-6.48.89-15.22l-1-3.06-.87,2.76c-1,3.17-2.92,4.41-3.64,4.4a2.64,2.64,0,0,1,.06-.45,15.54,15.54,0,0,1,1.78-4.13c1.55-2.78,3-5.4.7-12.88-.43-1.4-.87-2.8-1.3-4.2-.19,1.36-.38,2.72-.56,4.07-.51,3.61-1.73,4.79-2.3,4.92-.19,0-.24,0-.26-.05a2.55,2.55,0,0,1,0-1.88,26.63,26.63,0,0,1,1-3.08c1.15-3.15,2.15-5.86-.42-12.37-.39-1-.79-2-1.18-3l-.63,2.89c-.8,3.65-1.57,4.8-1.91,5.15a8,8,0,0,1-.32-2.6v-.64c0-7.44,0-15.88-8.55-20.75-.24-2.11-1.19-7.55-4.54-8.11s-4.31,4.55-4.55,6.57c-8.56,2-8.55,10.43-8.55,17.87v.65a6.93,6.93,0,0,1-.32,2.48c-.33-.46-1.11-1.87-1.91-5.79l-.63-3.1c-.39.86-.78,1.73-1.18,2.59-2.56,5.65-1.57,8.7-.41,12.23.34,1.07.7,2.16,1,3.41s.1,1.72-.05,1.87-.08.06-.26,0c-.58-.32-1.8-1.91-2.3-5.69l-.57-4.26c-.43,1.25-.86,2.51-1.3,3.76-2.3,6.71-.84,9.82.71,13.11a22.68,22.68,0,0,1,1.77,4.74,3.31,3.31,0,0,1,.07.47c-.73-.24-2.66-2.12-3.65-5.63l-.87-3.06-1,2.75c-2.72,7.83-.46,12.64.89,15.52,1,2.17,1.41,4.39.92,5.28-.07.13-.27.49-1.06.37-2.83-.43-4.13-3.66-5.27-6.52-.91-2.3-1.71-4.28-3.3-4.51l-1-.14v68.77c21.84,3.17,43.67,6.91,65.51,11V417.68l-1-.18C509.6,417.2,508.81,418.92,507.89,420.9Zm2.34,63c-20.55-3.84-41.1-7.35-61.64-10.36V410.59c.21.49.42,1,.59,1.44,1.25,3.12,3,7.41,7,8a2.47,2.47,0,0,0,2.74-1.22c1-1.88.2-5.1-.92-7.49a15.56,15.56,0,0,1-1.48-11.09c1.51,3,3.67,4.85,5.09,4.58.82-.15,1.54-1,1.1-3a24.84,24.84,0,0,0-2-5.3c-1.1-2.34-2-4.31-1.47-7.74a6.71,6.71,0,0,0,2.62,3.65,1.84,1.84,0,0,0,2.21-.13c.79-.71,1-2.16.61-4-.32-1.38-.71-2.59-1.06-3.66-.85-2.59-1.51-4.61-.66-7.72.92,3.09,2,4.66,3.25,4.7.75,0,2-.55,2-4.56v-.65c0-7.52,0-14.64,7.79-16.1l.62-.12.06-.73c.09-1.26.81-5.91,2.69-5.59,1.7.28,2.54,4.5,2.69,6.5,0,.25,0,.5,0,.75l.62.33c7.81,4.09,7.8,11.21,7.8,18.73v.64c0,4,1.25,5,2,5.24,1.25.38,2.34-.83,3.26-3.61.84,3.4.18,5.2-.66,7.5a30.76,30.76,0,0,0-1.06,3.3,4.81,4.81,0,0,0,.6,4.17,2.21,2.21,0,0,0,2.21.87c1-.23,2-1.21,2.62-2.76a9.58,9.58,0,0,1-1.47,7.24,17.56,17.56,0,0,0-2,4.64c-.45,1.81.27,2.91,1.09,3.34,1.44.74,3.58-.35,5.09-2.87,1.2,5.79-.38,8.63-1.48,10.59s-1.95,5-.92,7.18a3.67,3.67,0,0,0,2.75,2.14c4,.74,5.75-3,7-5.68.17-.36.38-.82.6-1.24Z"/>
    <path d="M434.14,455.18V473.1q7,.94,14.06,2C446.63,464.82,440.41,459.68,434.14,455.18Z" style="fill: #fff"/>
    <path d="M521.16,454.44v33.13l4.1.8V455.15C524,454.21,522.23,453.77,521.16,454.44Z" style="fill: #fff"/>
    <path d="M520.6,453.43l-.41.25v34.81l6,1.17v-35l-.55-.4C524.26,453.2,522.07,452.51,520.6,453.43Zm3.7,33.64-2.17-.42V455.28a3.36,3.36,0,0,1,2.17.44Z"/>
    <path d="M434.58,454.25l-1.41-1v20.84q8.08,1.08,16.18,2.27c-.06-.44-.13-.89-.2-1.33C447.52,464.4,441.06,458.9,434.58,454.25Zm.53,17.88v-15c5.44,4,10.26,8.62,11.9,16.67Q441.06,472.93,435.11,472.13Z"/>
    <path d="M511.21,485.42q7,1.32,14.06,2.69V470.18C519,472.62,512.79,475.69,511.21,485.42Z" style="fill: #fff"/>
    <path d="M510.26,485.05c-.07.42-.13.84-.2,1.26q8.09,1.51,16.18,3.09V468.57l-1.4.54C518.35,471.63,511.89,475,510.26,485.05Zm14,1.76q-6-1.15-11.91-2.27c1.65-7.5,6.47-10.48,11.91-12.73Z"/>
    <path d="M484.39,379.43a14.14,14.14,0,0,0-5.17-7.63,8.7,8.7,0,0,0-5.17,5.78A4.56,4.56,0,0,0,471,375v4.5l3.66,4.1,9.13,1.54,3.65-2.87v-4.49C486.1,377.72,485.37,378.12,484.39,379.43Z" style="fill: #fff"/>
    <path d="M484.71,377.45a15.31,15.31,0,0,0-5-6.55l-.44-.34-.44.19a9.47,9.47,0,0,0-5,4.77,5.12,5.12,0,0,0-2.64-1.57l-1.06-.29v6.22l4.27,4.8c3.28.54,6.56,1.1,9.84,1.66l4.27-3.36v-6.22l-1.06-.07A3.47,3.47,0,0,0,484.71,377.45Zm1.77,4.16-3.05,2.4c-2.8-.48-5.61-1-8.42-1.42l-3-3.42v-2.61a4.51,4.51,0,0,1,1.31,1.56l1.13,1.87.57-1.92a7.74,7.74,0,0,1,4.24-5,12.66,12.66,0,0,1,4.25,6.55c.18.7.37,1.4.56,2.11l1.13-1.49a3.14,3.14,0,0,1,1.32-1.19Z"/>
    <path d="M484.38,388.67a14.2,14.2,0,0,0-5.16-7.72,8.81,8.81,0,0,0-5.17,5.87,4.6,4.6,0,0,0-3.05-2.58v5.85q.84,2.24,1.7,4.47,6.53,1.06,13,2.2c.57-1.3,1.13-2.61,1.7-3.91V387C486.1,386.93,485.37,387.34,484.38,388.67Z" style="fill: #fff"/>
    <path d="M484.7,386.68a15.74,15.74,0,0,0-5-6.64l-.44-.33-.45.18a9.52,9.52,0,0,0-5,4.85,5.06,5.06,0,0,0-2.64-1.58l-1.06-.29v7.06c.68,1.88,1.37,3.75,2.05,5.63q7.14,1.17,14.28,2.41l2-4.5.09-7.51-1.07-.06A3.46,3.46,0,0,0,484.7,386.68Zm1.77,5.76-1.35,3.11q-5.89-1-11.8-2c-.45-1.19-.91-2.37-1.36-3.56v-4.23a4.58,4.58,0,0,1,1.32,1.59l1.13,1.89c.19-.65.38-1.29.56-1.94a7.87,7.87,0,0,1,4.25-5.1,12.84,12.84,0,0,1,4.24,6.63L484,391c.38-.5.75-1,1.13-1.52a3.34,3.34,0,0,1,1.31-1.21Z"/>
    <path d="M486.9,400.88c-1.25-5.33-4-6.92-7.68-10-3.68,1.86-6.42,2.35-7.67,7.25-1.47-2.77-2.55-3.67-4.54-4.24v7.45l5.43,8.45q6.78,1.11,13.56,2.28,2.72-3.32,5.44-6.61V398C489.45,397.88,488.36,398.6,486.9,400.88Z" style="fill: #fff"/>
    <path d="M487.19,398.63c-1.34-3.61-3.57-5.44-6.08-7.49-.45-.36-.91-.74-1.39-1.15l-.5-.41-.49.25-1.63.78c-2.42,1.13-4.55,2.13-5.85,5.17a6.91,6.91,0,0,0-4.13-3l-1.07-.31v9.08l5.94,9.23q7.23,1.18,14.47,2.44L492.4,406v-9.09l-1.07-.06A4.63,4.63,0,0,0,487.19,398.63Zm3.28,6.25-4.92,6q-6.33-1.1-12.65-2.13L468,401.09v-5.75c1,.5,1.74,1.32,2.76,3.25l1.17,2.21.57-2.24c.95-3.71,2.78-4.57,5.55-5.86l1.19-.56.93.76c2.91,2.38,4.84,4,5.81,8.12.19.81.38,1.62.58,2.43.38-.61.77-1.21,1.16-1.82,1-1.56,1.74-2.26,2.77-2.47Z"/>
    <path d="M487.72,413.91c-1.55-6.86-4-9.12-8.49-13.09-4.55,2.43-7,3.88-8.5,10.23a9.62,9.62,0,0,0-6.58-5.39v8c.8,3.58,6.7,10.83,6.7,10.83q8.37,1.36,16.75,2.83s6.33-5.19,6.7-8.58v-8C491.85,410.64,489.53,411,487.72,413.91Z" style="fill: #fff"/>
    <path d="M488.09,411.62c-1.62-5.54-4.12-7.95-8.36-11.66l-.5-.44-.51.27c-4.24,2.28-6.73,3.84-8.36,8.84a10.67,10.67,0,0,0-6.1-4l-1.08-.32v9.21l0,.29c.85,3.79,6.36,10.63,7,11.4l.28.35q8.75,1.43,17.49,3l.27-.23c.68-.56,6.62-5.52,7-9.35v-9.21l-1.08-.05C492.08,409.53,489.92,409.75,488.09,411.62Zm-.86,14.51q-8-1.38-16-2.7c-1.72-2.16-5.46-7.22-6.12-9.79V407.1a8.22,8.22,0,0,1,4.8,4.41l1.18,2.33.57-2.35c1.37-5.64,3.34-7.09,7.56-9.37,4.21,3.7,6.18,5.82,7.55,11.92l.57,2.54,1.18-1.93a5.29,5.29,0,0,1,4.81-2.8v6.56C493.11,420.5,489.58,424.14,487.23,426.13Z"/>
    <path d="M490.46,436c-2-10.65-5.22-18.38-11.23-24.39-6,4-9.19,10.65-11.23,20.61-2.4-5.5-5.47-8.53-8.71-9.55v12.44c.62,4.35,8.87,16.61,8.87,16.62q11.07,1.77,22.14,3.73s8.67-9.41,8.87-13.64V429.35C495.92,429.27,492.85,431.28,490.46,436Z" style="fill: #fff"/>
    <path d="M490.84,433.18c-2.24-10.17-5.62-17-11-22.41l-.57-.56-.57.37c-5.43,3.6-8.8,9.27-11.05,18.68-2.24-4.07-5-6.72-8.19-7.7l-1.1-.34q0,6.94,0,13.88c.65,4.54,8.23,15.9,9.09,17.19l.29.43q11.52,1.84,23,3.88c.09-.11.19-.21.29-.31.91-1,8.9-9.79,9.12-14.33v-13.7l-1.11,0C495.88,428.16,493.08,429.86,490.84,433.18Zm-1,21.06q-10.64-1.86-21.27-3.59c-2.42-3.66-7.9-12.42-8.35-15.43V424.14c2.68,1.3,5.05,4.18,6.9,8.42l1.22,2.81.57-2.8c2.05-10,5.15-15.95,10.29-19.62,5.14,5.4,8.23,12.37,10.28,23.09l.58,3,1.22-2.4c1.85-3.61,4.21-5.7,6.89-6.1v11C498.07,444.27,493.14,450.62,489.87,454.24Z"/>
    <path d="M490.46,455.19c-2-10.65-5.22-17.1-11.23-23.11-6,4-9.19,9.36-11.23,19.33-2.4-5.5-5.47-8.54-8.71-9.55V454.3c1.88,4,8.87,13.73,8.87,13.74q11.07,1.79,22.14,3.73s7.41-7.29,8.87-10.76V448.58C495.92,448.5,492.85,450.5,490.46,455.19Z" style="fill: #fff"/>
    <path d="M490.84,452.41c-2.1-9.3-5.31-15.39-11-21.12l-.57-.57-.57.37c-5.74,3.81-9,8.81-11,17.41-2.24-4.08-5-6.73-8.2-7.71l-1.1-.34v14l.13.28c1.91,4.08,8.71,13.55,9,13.95.09.14.19.27.29.4q11.47,1.86,23,3.88l.29-.28c.31-.31,7.55-7.46,9.06-11.05l.09-14.14-1.11,0C495.88,447.39,493.08,449.09,490.84,452.41Zm7.36,8.18c-1.25,2.65-6.15,7.84-8.31,10q-10.65-1.87-21.31-3.6c-1.29-1.82-6.58-9.32-8.33-12.86V443.37c2.68,1.29,5.05,4.18,6.9,8.42l1.22,2.81.57-2.8c1.9-9.27,4.81-14.5,10.29-18.34,5.48,5.68,8.38,11.89,10.28,21.81l.58,3c.41-.79.81-1.59,1.22-2.39,1.85-3.61,4.21-5.7,6.89-6.1Z"/>
    <path d="M478.84,452.53c-10.42,6.33-12.28,14-14.44,24.41q14.44,2.28,28.88,4.86C491.12,470.68,489.26,462.37,478.84,452.53Z" style="fill: #fff"/>
    <path d="M479.38,451.71l-.54-.52-.54.33c-11,6.71-12.8,15.22-14.84,25-.09.44-.19.88-.28,1.31q15.66,2.47,31.32,5.27c-.09-.47-.18-.93-.28-1.4C492.18,471.23,490.42,462.13,479.38,451.71ZM465.62,476c2.1-9.89,4.18-16.47,13.22-22.16,9,8.73,11.12,16,13.22,26.61Q478.85,478.14,465.62,476Z"/>
    <path d="M488.06,480c-1.76-8.94-5.15-13.33-9.38-19.27-4.23,4.52-7.06,7.86-8.82,16.21-1.58-3.74-5.85-7.56-10.58-10.41v15.56q19.68,3,39.36,6.62V473.18C493.91,474.45,489.64,476.83,488.06,480Z" style="fill: #fff"/>
    <path d="M488.46,477.51c-1.83-7.22-4.89-11.52-8.38-16.41l-1.4-2-.71.76c-4,4.29-6.72,7.58-8.52,14.4a31.28,31.28,0,0,0-9.82-8.71l-1.32-.79v18.27q20.65,3.18,41.3,6.95V471.74l-1.32.35C493.92,473.26,490.46,475.19,488.46,477.51Zm9.22,9.95q-18.72-3.37-37.44-6.3V468.37c4.34,2.83,7.57,6.13,8.76,9l1.21,2.86c.2-.94.39-1.88.59-2.82,1.61-7.61,4.08-10.87,7.88-15,3.82,5.35,6.84,9.59,8.44,17.73.19,1,.39,2,.59,3l1.21-2.46c1.2-2.43,4.42-4.64,8.76-6Z"/>
    <path d="M817.44,556.68V609.5c2.33.34,4.67.66,7,1v-47c1.35-5.8,5.81-10.5,9.15-11.13V510.94c-2.51,1.23-5,2.46-7.54,3.67Q821.74,535.66,817.44,556.68Z" style="fill: #fff"/>
    <path d="M816.5,556.31l0,54.16q4.47.64,8.94,1.24v-48c1.3-5.4,5.48-9.75,8.44-10.31l.71-.14V509.21q-4.68,2.3-9.35,4.55Q820.84,535,816.5,556.31Zm16.12-43.64v38.75c-3.47,1.13-7.76,5.79-9.12,11.64l0,46.18-5.06-.7v-51.6q4.25-20.73,8.49-41.49Z"/>
    <path d="M826.05,514.61q-4.31,21.06-8.61,42.08v52.64l7,1.33v-47.2c1.35-5.8,5.81-10.49,9.15-11.13V508.07C828.53,507.42,826.05,514.61,826.05,514.61Z" style="fill: #fff"/>
    <path d="M825.11,514.24l-8.61,42.07,0,53.93,8.94,1.71V563.74c1.3-5.4,5.48-9.75,8.44-10.31l.71-.14v-46.2l-1-.12C827.93,506.24,825.26,513.78,825.11,514.24Zm7.51,37.18c-3.47,1.13-7.76,5.8-9.12,11.64l0,46.31c-1.69-.31-3.37-.64-5.06-1V557q4.27-20.9,8.55-41.83c0-.06,2-5.54,5.66-5.95Z"/>
    <path d="M821.23,610.61V551.85l2.4-4.52c-29.25-4-58.5-9.06-87.75-14.73l3.43,5.51v58.76c0,5-3.49,9.2-7,10.31,32.49,6.35,65,12,97.47,16.25C826.31,621.18,821.23,615.56,821.23,610.61Z" style="fill: #fff"/>
    <path d="M822.2,610.75V552.28q1.54-2.91,3.08-5.83c-30.47-4.11-60.94-9.41-91.42-15.34,1.49,2.4,3,4.8,4.48,7.21v58.36c0,4.55-3.32,8.43-6.41,9.41.14.73.27,1.46.4,2.19,32.49,6.35,65,12,97.47,16.25.14-.68.27-1.37.4-2.06C826.85,620.31,822.2,615,822.2,610.75Zm-86.62-4a12.53,12.53,0,0,0,4.7-9.65V537.91l-2.37-3.81c28,5.4,56,10.25,84.06,14.11l-1.7,3.22v59.05c0,4.08,2.94,8.41,6,11.37C796,617.8,765.81,612.57,735.58,606.71Z"/>
    <path d="M803.66,608.05V552.17q3.65-3.3,7.3-6.63c-19.88-2.92-39.77-6.31-59.65-10q3.65,4.54,7.3,9.07v55.88c0,4.95-5.08,8.94-8.57,10.08,20.73,3.88,41.46,7.41,62.19,10.43C808.74,618.69,803.66,613,803.66,608.05Z" style="fill: #fff"/>
    <path d="M813.42,544.8c-21.52-3.13-43-6.8-64.58-10.84l8.8,10.95v55.4c0,4.27-4.65,8.08-8,9.17.13.73.27,1.46.4,2.19,20.73,3.87,41.46,7.4,62.19,10.43l.4-2.06c-3.36-2.21-8-7.57-8-11.84V552.8Zm-4.72,74.57c-18.38-2.73-36.76-5.86-55.14-9.26,3.07-2,6-5.37,6-9.45V544.3l-5.81-7.21c18.24,3.37,36.48,6.47,54.72,9.19l-5.8,5.26v56.37C802.69,612,805.63,616.36,808.7,619.37Z"/>
    <path d="M795.31,606.75V556.24l4.78-7q-18.95-2.94-37.89-6.37l4.77,8.58V602c0,4.94-5.08,9-8.56,10.12q22.73,4.14,45.47,7.64C800.39,617.43,795.31,611.7,795.31,606.75Z" style="fill: #fff"/>
    <path d="M796.28,606.91V556.74l5.68-8.3q-20.82-3.2-41.63-7,2.83,5.12,5.68,10.21v50.17c0,4.26-4.65,8.1-8,9.21.13.73.26,1.45.4,2.18q22.73,4.14,45.47,7.64c.13-.68.27-1.37.4-2.05C800.93,616.57,796.28,611.18,796.28,606.91Zm-34.35,4.73c3.07-2,6-5.4,6-9.48V551.29q-1.94-3.48-3.88-7,17.09,3,34.17,5.74l-3.88,5.66V606.6c0,4.08,2.94,8.48,6,11.5Q781.15,615.13,761.93,611.64Z"/>
    <path d="M772.09,614.55q9.06,1.59,18.11,3.05V547.7q-9.06-1.47-18.11-3.05Z" style="fill: #fff"/>
    <path d="M771.12,615.49q10,1.75,20,3.37V546.75q-10-1.62-20-3.37Zm1.94-69.57q8.09,1.41,16.17,2.73v67.69q-8.09-1.32-16.17-2.72Z"/>
    <path d="M745.61,597.28l7.23,1.35V560.69l-7.23-1.35Z" style="fill: #fff"/>
    <path d="M807.6,607.85c2.41.36,4.82.72,7.23,1.06V571l-7.23-1.06Z" style="fill: #fff"/>
    <path d="M812.29,545.52l8.71,1.23V507.86q-4.35-.6-8.71-1.24Z" style="fill: #fff"/>
    <path d="M812.34,506.54l8.66,1.23v-7.22l-8.66-1.23Z" style="fill: #fff"/>
    <path d="M745.61,558.24l-1,.92V597.1l1,1.28,7.23,1.36,1-.93V560.87l-1-1.28Zm6.26,39.11-5.29-1V560.63l5.29,1Z"/>
    <path d="M812.34,498.21l-1,1-.06,46.2,1,1.25c2.91.42,5.81.84,8.71,1.24l1-1V500.68l-1-1.24Zm7.69,47.3-6.77-1V507.87l6.77,1Zm0-39q-3.36-.46-6.72-1v-5l6.72,1Z"/>
    <path d="M807.6,568.81l-1,1v37.94l1,1.25,7.23,1.06c.33-.32.65-.64,1-1V571.12l-1-1.25C812.42,569.53,810,569.17,807.6,568.81Zm6.26,38.86-5.29-.77V571.17l5.29.77Z"/>
    <path d="M737,532.1q6.21,1.2,12.42,2.36v-30q-6.21-1.15-12.42-2.36Z" style="fill: #fff"/>
    <path d="M737,500.88l-1,1v30l1,1.39q6.21,1.2,12.42,2.37l1-1v-30l-1-1.39Q743.16,502.09,737,500.88Zm11.38,32.19q-5.16-1-10.33-2V503.46q5.16,1,10.33,2Z"/>
    <path d="M803.87,487.15c-3-.45-2.65-4.44-1-7.48,1.48-2.69,3.3-6.44.82-14.32-1.7,5.49-6.27,6.59-5.43,3.13,1.45-6,5.64-6.33,2.5-16.41-1.09,7.84-5.59,6.78-4.5,2.3,1.23-5.05,3.78-6.8.64-14.69-1.76,8.12-4.14,7.24-4.14,2,0-7.71.26-16-8.47-20.47,0,0-.51-7.14-3.65-7.67S777,420,777,420c-8.73,1.58-8.47,9.91-8.47,17.61,0,5.21-2.38,5.28-4.14-3.43-3.14,6.83-.59,9.44.64,14.9,1.09,4.85-3.41,4.4-4.5-3.81-3.13,9,1.05,10.81,2.5,17.25.84,3.75-3.73,1.11-5.43-5a17.37,17.37,0,0,0,.82,14.6c1.67,3.59,2,7.69-1,7.15-5.69-1-6.08-10.88-8.56-11.34v66.56c21.19,4,42.38,7.59,63.57,10.68V478.67C810,478.31,809.57,488,803.87,487.15Z" style="fill: #fff"/>
    <path d="M821,496.05V547l5.06.69V496.87A4.14,4.14,0,0,0,821,496.05Z" style="fill: #fff"/>
    <path d="M809.13,481.11c-1.14,2.51-2.43,5.37-5.26,4.94a1.23,1.23,0,0,1-1.07-.7c-.49-1-.1-3.14.92-5,1.75-3.19,3.4-7.26.89-15.25l-1-3c-.29.93-.58,1.87-.86,2.8-1,3.2-2.93,4.48-3.65,4.5a2,2,0,0,1,.07-.45,15.81,15.81,0,0,1,1.77-4.19c1.54-2.81,3-5.48.7-12.9l-1.29-4.15-.58,4.08c-.5,3.62-1.72,4.83-2.29,5-.19,0-.25,0-.26,0a2.54,2.54,0,0,1,0-1.88,29.21,29.21,0,0,1,1-3.1c1.16-3.17,2.16-5.92-.41-12.36l-1.18-3-.63,2.91c-.8,3.66-1.57,4.83-1.91,5.18a8,8,0,0,1-.32-2.59v-.64c0-7.45,0-15.85-8.55-20.66-.24-2.1-1.19-7.53-4.55-8.09s-4.3,4.54-4.54,6.56c-8.56,1.92-8.56,10.32-8.55,17.77v.65a6.88,6.88,0,0,1-.32,2.48c-.33-.47-1.11-1.89-1.91-5.82l-.63-3.12c-.39.85-.78,1.71-1.18,2.57-2.57,5.58-1.57,8.65-.41,12.22.34,1.07.7,2.17,1,3.43.25,1.11.11,1.72-.05,1.86,0,0-.06.06-.25,0-.58-.33-1.8-2-2.3-5.74l-.57-4.28c-.43,1.24-.86,2.48-1.3,3.72-2.31,6.65-.84,9.81.71,13.14a23.29,23.29,0,0,1,1.77,4.78,3.31,3.31,0,0,1,.07.47c-.73-.26-2.66-2.19-3.65-5.72l-.87-3.08c-.32.9-.64,1.8-.95,2.71a18.59,18.59,0,0,0,.88,15.55c1,2.2,1.41,4.43.92,5.3-.07.14-.27.49-1.07.34-2.82-.51-4.12-3.8-5.26-6.69-.91-2.33-1.71-4.34-3.3-4.64l-1-.18v68.77c21.52,4,43,7.72,64.54,10.85l1,.14V477.71l-1-.14C810.84,477.34,810.05,479.09,809.13,481.11ZM811.47,544c-20.55-3-41.1-6.51-61.64-10.35V470.71c.21.51.42,1,.59,1.47,1.25,3.17,3,7.52,7,8.26a2.41,2.41,0,0,0,2.75-1.14c1-1.85.2-5.09-.92-7.51a15.81,15.81,0,0,1-1.48-11.13c1.51,3.07,3.68,4.95,5.09,4.71.82-.13,1.54-1,1.1-2.95a25.47,25.47,0,0,0-2-5.34c-1.1-2.37-2-4.36-1.47-7.78a6.89,6.89,0,0,0,2.62,3.71,1.81,1.81,0,0,0,2.21-.08c.79-.7,1-2.14.6-3.95-.31-1.38-.7-2.6-1.05-3.68-.85-2.6-1.51-4.64-.66-7.73.92,3.11,2,4.72,3.25,4.76.75,0,2-.52,2-4.53v-.65c0-7.52,0-14.61,7.79-16l.62-.11.06-.73c.14-1.95,1-5.88,2.68-5.59s2.55,4.5,2.69,6.49l.06.76.62.32c7.81,4,7.8,11.13,7.8,18.65,0,.22,0,.43,0,.65,0,4,1.26,5,2,5.2,1.23.37,2.33-.86,3.25-3.66.85,3.37.19,5.19-.66,7.51a30.62,30.62,0,0,0-1,3.32,4.77,4.77,0,0,0,.6,4.16,2.17,2.17,0,0,0,2.21.82c1.05-.26,2-1.26,2.62-2.83a9.73,9.73,0,0,1-1.47,7.28,18,18,0,0,0-2,4.68c-.45,1.82.27,2.91,1.09,3.32,1.43.71,3.58-.44,5.09-3,1.2,5.75-.38,8.64-1.48,10.63s-1.95,5-.91,7.21a3.49,3.49,0,0,0,2.74,2.05c4,.62,5.75-3.16,7-5.92.17-.37.38-.84.6-1.27Z"/>
    <path d="M820.58,495l-.53.24v52.69q3.5.5,7,1V496.46l-.38-.38A5,5,0,0,0,820.58,495Zm4.53,51.42L822,546v-49.1a3.09,3.09,0,0,1,3.13.43Z"/>
    <path d="M734.79,499.18V532.4l4.1.79V500.05A4.11,4.11,0,0,0,734.79,499.18Z" style="fill: #fff"/>
    <path d="M811.85,545.67q7,1,14.06,2V529.72C819.64,532.53,813.43,535.87,811.85,545.67Z" style="fill: #fff"/>
    <path d="M734.38,498.1l-.56.19v35l6,1.17V499.67l-.41-.41A5.09,5.09,0,0,0,734.38,498.1Zm3.54,33.8-2.16-.42V500.12a3.35,3.35,0,0,1,2.16.4Z"/>
    <path d="M810.9,545.33c-.07.42-.13.85-.2,1.27q8.09,1.18,16.18,2.27V528l-1.41.63C819,531.58,812.53,535.2,810.9,545.33ZM825,546.4q-6-.79-11.91-1.67c1.65-7.56,6.47-10.76,11.91-13.33Z"/>
    <path d="M734.78,514.21v17.92q7,1.36,14.06,2.68C747.27,524.49,741.05,519.08,734.78,514.21Z" style="fill: #fff"/>
    <path d="M735.22,513.31l-1.41-1.09v20.83q8.09,1.58,16.19,3.09l-.21-1.34C748.16,524.12,741.7,518.35,735.22,513.31Zm.53,17.9v-15c5.44,4.36,10.26,9.16,11.9,17.28Q741.7,532.37,735.75,531.21Z"/>
    <path d="M786,440.11a13.81,13.81,0,0,0-5.17-7.5,8.86,8.86,0,0,0-5.16,5.87c-1-1.65-1.72-2.3-3.06-2.69v4.5l3.66,4.14q4.56.78,9.13,1.53l3.65-2.9v-4.49A3.06,3.06,0,0,0,786,440.11Z" style="fill: #fff"/>
    <path d="M786.32,438.15a15.35,15.35,0,0,0-5.05-6.45l-.44-.33-.44.18a9.43,9.43,0,0,0-5,4.84,5.11,5.11,0,0,0-2.65-1.68l-1.06-.3v6.22l4.27,4.84,9.84,1.66,4.27-3.4v-6.22l-1.06-.06A3.63,3.63,0,0,0,786.32,438.15Zm1.76,4.23c-1,.81-2,1.62-3,2.42-2.81-.46-5.61-.94-8.42-1.42l-3-3.44v-2.58A5.62,5.62,0,0,1,774.9,439l1.12,1.88.57-1.92a8,8,0,0,1,4.24-5.11,12.31,12.31,0,0,1,4.25,6.44l.57,2.1,1.12-1.49a2.79,2.79,0,0,1,1.31-1.14Z"/>
    <path d="M786,449.35a14,14,0,0,0-5.17-7.6,9,9,0,0,0-5.16,6c-1-1.66-1.72-2.32-3.06-2.71v5.84l1.7,4.5q6.53,1.13,13,2.2l1.71-3.92v-5.84A3.06,3.06,0,0,0,786,449.35Z" style="fill: #fff"/>
    <path d="M786.32,447.38a15.42,15.42,0,0,0-5-6.53l-.45-.34-.44.19a9.66,9.66,0,0,0-5,4.91,5.08,5.08,0,0,0-2.64-1.69l-1.07-.31v7.07c.69,1.88,1.37,3.77,2.05,5.65q7.14,1.25,14.28,2.41c.66-1.5,1.31-3,2-4.51l.09-7.51-1.07-.06A3.66,3.66,0,0,0,786.32,447.38Zm1.77,5.84-1.35,3.11q-5.91-1-11.81-2l-1.35-3.57v-4.19a5.35,5.35,0,0,1,1.31,1.67c.38.63.76,1.26,1.13,1.9l.57-1.94a8.11,8.11,0,0,1,4.24-5.2,12.48,12.48,0,0,1,4.25,6.52l.57,2.13,1.12-1.52a2.89,2.89,0,0,1,1.32-1.15Z"/>
    <path d="M788.5,461.46c-1.25-5.31-4-6.7-7.67-9.8-3.68,1.86-6.42,2.51-7.67,7.4-1.47-2.79-2.56-3.89-4.54-4.49V462l5.43,8.51q6.78,1.17,13.56,2.28l5.43-6.68v-7.45C791.05,458.62,790,459.17,788.5,461.46Z" style="fill: #fff"/>
    <path d="M788.81,459.23c-1.31-3.47-3.44-5.17-5.85-7.1-.52-.42-1.07-.85-1.64-1.33l-.49-.42-.49.25-1.4.68c-2.51,1.2-4.74,2.25-6.08,5.39a7.1,7.1,0,0,0-4.14-3.21l-1.07-.32v9.08l5.94,9.31q7.24,1.26,14.48,2.44l5.94-7.31v-9.08l-1.08,0A4.7,4.7,0,0,0,788.81,459.23Zm3.26,6.37-4.92,6q-6.31-1-12.64-2.13l-4.93-7.7v-5.72c1,.57,1.77,1.53,2.77,3.44l1.17,2.22.57-2.23c1-3.83,2.9-4.74,5.81-6.13l.93-.45,1.19,1c2.77,2.23,4.61,3.69,5.55,7.71l.57,2.43,1.17-1.84c1-1.59,1.74-2.18,2.76-2.35Z"/>
    <path d="M789.32,474.67c-1.54-6.85-4-9.08-8.49-13.05-4.54,2.44-7,3.85-8.49,10.19a9.88,9.88,0,0,0-6.59-5.49v8c.38,3.53,6.71,10.95,6.71,10.95q8.37,1.45,16.74,2.81s5.91-5.34,6.7-8.68v-8C793.45,471.34,791.13,471.69,789.32,474.67Z" style="fill: #fff"/>
    <path d="M789.7,472.37c-1.63-5.53-4.12-7.9-8.36-11.6l-.51-.45-.51.28c-4.24,2.27-6.73,3.8-8.36,8.78a11,11,0,0,0-6.1-4.14l-1.08-.33c0,3.11,0,6.23,0,9.35.41,3.84,6.35,10.91,7,11.7l.27.32q8.74,1.52,17.49,2.94l.28-.25c.62-.57,6.14-5.64,7-9.17l0-9.49-1.08,0C793.69,470.23,791.52,470.48,789.7,472.37Zm5.24,6.69c-.67,2.37-4.4,6.23-6.13,7.83q-8-1.31-16-2.69c-2.35-2.81-5.88-7.69-6.1-9.73v-6.7a8.45,8.45,0,0,1,4.8,4.48c.39.79.78,1.57,1.18,2.35l.57-2.35c1.37-5.62,3.34-7.05,7.56-9.33,4.21,3.7,6.18,5.8,7.55,11.88l.57,2.54,1.19-1.95a5.4,5.4,0,0,1,4.8-2.87Z"/>
    <path d="M792.05,496.68c-2-10.62-5.22-18.31-11.23-24.31-6,4-9.19,10.59-11.23,20.53-2.39-5.53-5.46-8.62-8.71-9.72v12.43c.21,4.31,8.88,16.81,8.88,16.8q11.07,1.94,22.13,3.73s8.25-9.64,8.88-13.82V489.89C797.52,489.9,794.45,492,792.05,496.68Z" style="fill: #fff"/>
    <path d="M792.44,493.89c-2.24-10.13-5.62-16.89-11.05-22.31l-.57-.57-.57.37c-5.42,3.59-8.79,9.21-11,18.6-2.24-4.11-5-6.8-8.19-7.87l-1.1-.37V495.5c.21,4.57,8.21,16.22,9.12,17.52l.29.42q11.5,2,23,3.87l.29-.33c.86-1,8.44-10,9.1-14.51v-13.7h-1.1C797.48,488.78,794.68,490.54,792.44,493.89Zm-1,21.07q-10.63-1.71-21.26-3.58c-3.28-4.76-8.21-12.88-8.34-15.59V484.71c2.68,1.37,5,4.29,6.89,8.56l1.23,2.82.57-2.79c2.05-10,5.15-15.89,10.28-19.55,5.15,5.4,8.24,12.34,10.29,23l.57,3,1.22-2.41c1.86-3.65,4.23-5.78,6.9-6.24,0,3.63,0,7.26,0,10.89C799.36,505,793.87,512.09,791.45,515Z"/>
    <path d="M792.05,515.91c-2-10.62-5.22-17-11.23-23-6,4-9.19,9.31-11.23,19.24-2.39-5.52-5.46-8.61-8.71-9.71v12.43c1.46,4,8.88,13.93,8.88,13.92q11.07,1.95,22.13,3.73s7-7.49,8.88-10.94V509.12C797.52,509.12,794.45,511.18,792.05,515.91Z" style="fill: #fff"/>
    <path d="M792.44,513.12c-2.1-9.27-5.31-15.3-11.05-21l-.57-.57-.57.38c-5.73,3.79-8.94,8.74-11,17.31-2.24-4.1-5-6.8-8.19-7.87l-1.1-.38v13.71c0,.15.05.31.08.46,1.51,4.15,8.76,13.88,9.06,14.29.1.12.19.25.29.38q11.49,2,23,3.86l.28-.3c.29-.31,7.09-7.62,9-11.13l.13-.24V508h-1.1C797.48,508,794.68,509.77,792.44,513.12Zm7.36,8c-1.74,3-7,8.82-8.33,10.22q-10.65-1.73-21.31-3.59c-2.16-2.92-7.06-9.85-8.31-13V503.94c2.68,1.36,5,4.29,6.89,8.55l1.23,2.83.57-2.79c1.9-9.25,4.81-14.44,10.28-18.27,5.48,5.68,8.39,11.85,10.29,21.74l.57,3,1.22-2.41c1.86-3.65,4.22-5.78,6.9-6.24Z"/>
    <path d="M781.21,513.46c-10.41,6.31-12.28,13.91-14.44,24.28q14.44,2.55,28.88,4.85C793.49,531.51,791.63,523.27,781.21,513.46Z" style="fill: #fff"/>
    <path d="M781.76,512.64l-.55-.51-.54.33c-11,6.67-12.8,15.08-14.84,24.86l-.27,1.31q15.65,2.77,31.31,5.26l-.27-1.4C794.55,532,792.79,523,781.76,512.64ZM768,536.85c2.1-9.86,4.18-16.37,13.22-22.05,9,8.72,11.12,15.93,13.22,26.49Q781.22,539.19,768,536.85Z"/>
    <path d="M790.19,540.87c-1.76-8.92-4.59-13.18-8.82-19.12-4.22,4.52-7.62,7.73-9.38,16.06-1.58-3.76-5.85-7.64-10.58-10.61v15.56c13.12,2.36,26.24,4.59,39.37,6.61V533.82C796,535.21,791.77,537.64,790.19,540.87Z" style="fill: #fff"/>
    <path d="M790.6,538.33c-1.8-7.4-4.49-11.56-8.52-17.21l-.71-1-1.4,1.5c-3.49,3.7-6.55,6.94-8.37,13.53a32.62,32.62,0,0,0-9.84-8.91l-1.32-.83v18.28q20.65,3.73,41.3,6.94V532.35l-1.32.39C796.06,534,792.61,536,790.6,538.33Zm9.21,9.79q-18.72-2.91-37.43-6.3V529c4.33,2.94,7.56,6.28,8.75,9.13l1.21,2.88.6-2.82c1.6-7.58,4.61-10.78,8.43-14.84,3.81,5.4,6.27,9.47,7.88,17.59.2,1,.4,2,.59,3l1.21-2.47c1.2-2.45,4.42-4.71,8.76-6.2Z"/>
    <path d="M843.59,624.53c-142.39-16.92-284.79-62.11-427.18-79v14.2c142.39,16.92,284.79,62.11,427.18,79Z" style="fill: #fff"/>
    <path d="M408.68,558.94v18.52c147.55,16.44,295.09,64.36,442.63,80.8V639.75C703.77,623.3,556.23,575.39,408.68,558.94Z" style="fill: #fff"/>
    <path d="M877.3,714.23c-164.86-14-329.72-71.91-494.59-85.92v0q-6.51-.56-13-1V656c173.55,12.25,347.1,75.7,520.65,88V715.2q-6.52-.47-13-1Z" style="fill: #fff"/>
    <path d="M877.29,685.41c-164.86-14-329.72-71.91-494.58-85.92v28.77c164.87,14,329.73,71.92,494.59,85.92Q877.3,699.8,877.29,685.41Z" style="fill: #fff"/>
    <path d="M864.26,659.63q-6.48-.64-13-1.37C703.77,641.86,556.23,594,408.68,577.6q-6.46-.79-12.94-1.5v24.43c156.17,15.4,312.35,68.12,468.52,83.53Z" style="fill: #fff"/>
    <path d="M878.26,684.39q-6.51-.55-13-1.19V658.62q-6.48-.63-13-1.35V638.75c-2.57-.28-5.15-.58-7.73-.88V623.54c-143-16.86-286.07-62.39-429.1-79.25v14.33c-2.58-.31-5.16-.6-7.74-.89v18.64q-6.46-.78-12.94-1.48v24.59q-6.51-.63-13-1.18,0,14.38,0,28.78-6.53-.55-13-1v31c174.19,12.1,348.39,76,522.59,88.08v-31q-6.52-.45-13-1ZM417.38,546.73c141.75,17,283.49,61.82,425.24,78.79v12c-141.75-17-283.49-61.83-425.24-78.8Zm-7.73,13.43c146.9,16.51,293.8,64.08,440.7,80.59v16.3c-146.9-16.51-293.8-64.08-440.7-80.59Zm-12.94,17.15q6,.66,12,1.39C556.23,595.1,703.77,643,851.32,659.37q6,.68,12,1.27v22.22c-155.53-15.5-311-67.85-466.58-83.34ZM876.33,686.43V713c-164.22-14.13-328.43-71.64-492.65-85.76V600.68C547.89,614.8,712.11,672.31,876.33,686.43Zm13,56.37C716.45,730.41,543.55,667.37,370.64,655V628.42c172.91,12.39,345.81,75.42,518.72,87.81Z"/>
    <path d="M462.78,666.86q16.13,2.53,32.26,5.43V557.44q-16.12-2.88-32.26-5.43Z" style="fill: #fff"/>
    <path d="M461.73,667.9q17.17,2.69,34.37,5.78V556.42q-17.19-3.07-34.37-5.78Zm2.1-114.52q15.09,2.39,30.16,5.07V670.9q-15.08-2.68-30.16-5.08Z"/>
    <path d="M469.92,668q9,1.46,18,3V556.18q-9-1.57-18-3Z" style="fill: #fff"/>
    <path d="M468.86,669q10,1.62,20.08,3.38V555.16q-10-1.75-20.08-3.38ZM471,554.52q7.93,1.29,15.87,2.67V669.65Q478.91,668.27,471,667Z"/>
    <path d="M613.31,696.3l32.27,7V588.48l-32.27-7Z" style="fill: #fff"/>
    <path d="M612.26,697.27l34.37,7.49V587.51L612.26,580Zm2.11-114.39,30.16,6.58V701.9l-30.16-6.57Z"/>
    <path d="M620.67,697.91l18,3.92V587l-18-3.92Z" style="fill: #fff"/>
    <path d="M619.62,698.88l20.08,4.37V586l-20.08-4.37Zm2.1-114.4,15.88,3.46V700.4l-15.88-3.47Z"/>
    <path d="M764.74,727.55Q780.87,730.43,797,733V618.13q-16.12-2.53-32.26-5.43Z" style="fill: #fff"/>
    <path d="M763.68,728.56q17.19,3.08,34.37,5.79V617.09q-17.17-2.69-34.37-5.78Zm2.11-114.47q15.08,2.68,30.16,5.08V731.61q-15.09-2.39-30.16-5.08Z"/>
    <path d="M771.87,728.81q9,1.56,18,3V617q-9-1.47-18-3Z" style="fill: #fff"/>
    <path d="M770.82,729.83q10,1.75,20.08,3.38V616q-10-1.62-20.08-3.39Zm2.1-114.49q7.94,1.38,15.88,2.68V730.47q-7.93-1.31-15.88-2.68Z"/>
    <path d="M469.59,568.37q9.32,1.51,18.64,3.14V569.3q-9.32-1.63-18.64-3.14Z"/>
    <path d="M620.75,641.47l17.35,3.78V643l-17.35-3.78Z"/>
    <path d="M620.75,655.85l17.35,3.78v-2.21l-17.35-3.78Z"/>
    <path d="M469.59,582.75q9.32,1.5,18.64,3.13v-2.21q-9.32-1.62-18.64-3.13Z"/>
    <path d="M620.75,670.24,638.1,674v-2.21L620.75,668Z"/>
    <path d="M469.59,640.25q9.32,1.5,18.64,3.13v-2.21q-9.32-1.62-18.64-3.13Z"/>
    <path d="M469.59,625.87q9.32,1.51,18.64,3.14V626.8q-9.32-1.63-18.64-3.14Z"/>
    <path d="M469.59,654.62q9.32,1.51,18.64,3.14v-2.21q-9.32-1.63-18.64-3.14Z"/>
    <path d="M469.59,611.5q9.32,1.5,18.64,3.13v-2.21q-9.32-1.62-18.64-3.13Z"/>
    <path d="M469.59,597.12q9.32,1.51,18.64,3.14v-2.21q-9.32-1.63-18.64-3.14Z"/>
    <path d="M620.75,684.62l17.35,3.78v-2.21l-17.35-3.78Z"/>
    <path d="M771.55,657.93q9.32,1.62,18.64,3.14v-2.22q-9.33-1.5-18.64-3.14Z"/>
    <path d="M771.55,672.3q9.32,1.62,18.64,3.14v-2.21q-9.33-1.51-18.64-3.14Z"/>
    <path d="M771.55,643.55q9.32,1.62,18.64,3.14v-2.21q-9.33-1.51-18.64-3.14Z"/>
    <path d="M771.55,629.18q9.32,1.62,18.64,3.14V630.1q-9.33-1.5-18.64-3.14Z"/>
    <path d="M435.61,537.44c129.75,17.63,259.49,56.62,389.23,74.2v-2.21c-129.74-17.58-259.48-56.57-389.23-74.2Z"/>
    <path d="M620.75,598.32l17.35,3.78v-2.21l-17.35-3.78Z"/>
    <path d="M620.75,612.7l17.35,3.79v-2.21l-17.35-3.79Z"/>
    <path d="M771.55,686.68q9.32,1.62,18.64,3.14V687.6q-9.33-1.5-18.64-3.14Z"/>
    <path d="M620.75,627.09l17.35,3.78v-2.21l-17.35-3.78Z"/>
    <path d="M771.55,701.05q9.32,1.62,18.64,3.14V702q-9.33-1.51-18.64-3.14Z"/>
    <path d="M771.55,715.43q9.32,1.62,18.64,3.14v-2.22q-9.33-1.5-18.64-3.14Z"/>
  </g>
</svg>
