<svg xmlns="http://www.w3.org/2000/svg" viewBox="0 0 1260 1012.04">
  <g>
    <path d="M0,90.08v920C420,738.76,840,1193.28,1260,922V2C840,273.28,420-181.24,0,90.08Z" style="fill: #ce1126"/>
    <path d="M733.72,501.12c19.45,3.76,30-46.32,48.93-45.53-17-16.69-42.46-5.73-61.45-7.14,17.68-6,16-60.65,33.25-69.16-19.13-8.36-39.51,15.3-56.75,23.45,14.41-14.9.07-67.93,13.53-84.83-18.75,1-31.75,34.64-45.21,51.4,10.39-21.83-15.86-67.3-7.82-90.77C642.49,289,638,328.77,630,352.22c3.57-26.61-29.86-58.62-28.2-86-12.86,18.53-6.16,60.06-7.81,87.4-3.26-28.12-40.28-42.61-45.22-70.41-6.23,24.85,8.61,62.5,13.53,90.4-9-26-45.83-21.16-56.75-45.86-.5,27.69,22.33,57,33.25,82-14.12-20.74-45.85,2.86-61.45-15.6,6.28,27.11,33.33,44.27,48.93,63.33-17.66-13-40.34,26.34-58.71,16.2,12.49,23.26,40.31,26.37,58.71,37.22-19.45-5,223,63.77,207.44,43.62,17.66,13,40.34-26.33,58.72-16.2C779.94,515.09,752.11,512,733.72,501.12Z" style="fill: #fcd116"/>
    <path d="M752,507.18c-3.82-1.53-7.52-3-11-4.64,7.24-3.2,13.25-12.85,19.11-22.29,6.91-11.14,14.06-22.69,22.65-22.35l5.09.2-4.46-4.39c-12.49-12.29-28.72-10.27-44.42-8.53-3.83.43-7.54.83-11.08,1,5.54-6.71,8.68-19,11.74-31.06,3.72-14.6,7.56-29.7,15.45-33.61l4.55-2.27-4.95-2.16c-14.06-6.14-28.2,3.9-41.87,13.51-3.33,2.34-6.55,4.59-9.67,6.54,3.38-9.44,3.3-23.19,3.22-36.6-.1-16.24-.2-33,6-40.75q1.77-2.22,3.53-4.45c-1.64.1-3.28.18-4.92.27-13.82.74-24.2,17.7-34.24,34.1-2.32,3.79-4.57,7.45-6.8,10.81.9-11.14-2.53-24.81-5.87-38.14-3.94-15.74-8-32-4.41-42.54l2.19-6.39-4.43,3c-11.61,7.76-17.09,29.83-22.38,51.18-1.25,5-2.46,9.89-3.71,14.41-1.83-11.4-8-23.21-14-34.73-7.21-13.79-14.67-28.05-13.91-40.45.13-2.29.27-4.59.41-6.88l-3.17,4.57c-9.45,13.63-8.81,38.13-8.2,61.82.15,5.77.29,11.35.29,16.6-4.32-10.3-12.53-18.8-20.54-27.06-9.64-10-19.62-20.2-21.87-32.89L549,275.49c-.56,2.24-1.12,4.47-1.69,6.71-4.59,18.31,1.52,42.23,7.42,65.39,1.41,5.54,2.77,10.89,3.95,16-6.18-7.84-15.45-12-24.49-15.92-11-4.81-22.35-9.68-27.32-21l-2.73-6.22Q504,324,504,327.45c-.37,20.44,10.87,40.73,21.75,60.49,2.62,4.77,5.16,9.39,7.46,13.87-7.31-4.47-16.51-3.74-25.47-3-11,.94-22.35,2-29.47-6.42q-2-2.39-4-4.76.81,3.49,1.63,7c4.63,20,19.41,34.15,33.71,48.05,3.46,3.36,6.81,6.62,9.9,9.87-7.65-.68-15.74,4.79-23.63,10.18-9.58,6.54-19.49,13.4-27.88,8.77q-2.45-1.37-4.91-2.71l3.31,6.17c9.19,17.14,25.66,23.46,41.59,29.85a159.85,159.85,0,0,1,15.5,6.86l0,.34,1.29.84c1.74,1,55.19,15.27,104.46,28,21.94,5.56,39.33,9.65,53.11,12.57,48.49,10.18,52.46,6.66,53.37,4.67,9,4.37,18.91-2.29,28.49-8.84s19.48-13.4,27.88-8.77q2.44,1.37,4.91,2.71L793.63,537C784.44,519.9,768,513.58,752,507.18ZM762.55,545c-10.29,7-20,13.56-28.29,7.48l-1.38,3.59a1.64,1.64,0,0,1,.21-1.14c-1.23,1.17-12.42,4.56-104.78-18.9-47.74-12.26-93.7-24.69-101.64-27l0-.23c-5.51-3.23-11.71-5.75-18.27-8.38C494.86,495,480.89,489.55,472,477.53c8.27,1.28,17-4.73,25.45-10.5,10.29-7,20-13.56,28.29-7.48l1.44-3.76A210.32,210.32,0,0,0,511.07,439c-12.18-11.85-24.73-23.89-30.39-39.16,7.83,5.47,17.86,4.51,27.62,3.68,11.76-1,22.86-1.86,29.47,7.82.77-.86,1.54-1.73,2.32-2.59-3.29-7.51-7.53-15.23-12-23.39-9.28-16.87-18.84-34.16-20.65-50.83,6.36,9,16.43,13.34,26.23,17.63,11.83,5.18,23,10.17,27.27,22.36l2.9-1.1c-1.47-8.34-3.76-17.34-6.19-26.87-5-19.68-10.18-39.95-8.46-56,4.18,11.21,12.94,20.21,21.45,29,10.43,10.76,20.28,21,21.81,34.19l3.12.48c.5-8.25.26-17.54,0-27.38-.53-20.26-1.07-41.14,4.88-54.25,1.41,12.23,8,24.87,14.45,37.16,7.84,15,15.25,29.16,13.56,41.71l3,2.05c2.38-6.94,4.41-15.12,6.56-23.77,4.48-18.09,9.1-36.72,17.35-45.81-1.27,11.39,2.3,25.63,5.76,39.47,4.39,17.5,8.53,34,3.58,44.41.82,1.12,1.63,2.25,2.45,3.38,4-5,7.92-11.38,12-18.11,8.55-14,17.36-28.36,28-32-4.13,9.66-4,24.45-4,38.83.11,17.42.2,33.88-6.55,40.87l1.68,4.18c5.17-2.44,10.49-6.17,16.13-10.14,11.65-8.2,23.66-16.73,35.21-14.67-6.34,6.62-9.73,19.92-13,32.85-4,15.62-7.74,30.38-16,33.19.23,1.52.45,3.05.68,4.58,5.69.41,11.82-.24,18.3-1,13.38-1.49,27.18-3.18,38.11,4.26-7.66,2.86-13.94,13-20,22.83-7.59,12.21-14.77,23.71-24,21.92-.14,1.48-.27,3-.41,4.45,5.51,3.23,11.71,5.75,18.27,8.38,13.56,5.44,27.53,10.85,36.41,22.86C779.73,533.23,771,539.24,762.55,545Z" style="fill: #bd9c08"/>
    <path d="M712.17,479.87q26.54-29.78,53.05-60.17c-22.74,6.6-45.49,12.74-68.23,18.65q16.68-42.83,33.37-85.84Q702,379,673.72,404.91q4.85-50.81,9.68-101.62-19.11,40.21-38.22,80.31L630,278l-15.18,99q-19.11-48.42-38.22-96.76,4.83,52.86,9.68,105.74-28.34-38.1-56.66-75.77,16.7,49.57,33.39,99.38c-22.75-15.4-45.5-30.56-68.25-45.27q26.54,39.92,53.07,80.53c-23.87-3.49-47.74-6.68-71.61-9.3,22.11,16.88,44.22,34.25,66.34,51.91h0c-22.12,8.74-44.23,17.76-66.34,27.27,102.51,17.08,205,44.72,307.54,61.8-22.1-16.88-44.21-34.25-66.32-51.9,22.11-8.74,44.22-17.77,66.32-27.28C759.9,492,736,486.09,712.17,479.87Z" style="fill: #fcd116"/>
    <path d="M784.36,574.48c-20.92-16-41.84-32.37-62.75-49,20.91-8.3,41.83-16.87,62.75-25.88a2.25,2.25,0,0,0,.95-2.37,2.39,2.39,0,0,0-1.49-2.15c-22.58-5.05-45.16-10.61-67.74-16.45q25.09-28.21,50.2-57a2.93,2.93,0,0,0,.3-2.8c-.37-1-1.13-1.57-1.84-1.37-21.52,6.24-43,12.07-64.56,17.69q15.78-40.55,31.57-81.26a3.28,3.28,0,0,0-.38-2.91c-.57-.81-1.39-1-2-.44q-26.8,25-53.6,49.59Q680.39,352,685,303.94a3.09,3.09,0,0,0-1-2.69,1.17,1.17,0,0,0-1.87.54q-18.09,38-36.16,76l-14.37-99.92a2.45,2.45,0,0,0-1.54-2.14c-.74-.17-1.38.45-1.54,1.47l-14.37,93.66Q596,325,577.93,279.28c-.4-1-1.18-1.56-1.87-1.33a2,2,0,0,0-1,2.25q4.58,50,9.16,100.05-26.81-36-53.61-71.69c-.59-.77-1.41-.91-2-.33a2.83,2.83,0,0,0-.38,2.76q15.79,46.9,31.59,94c-21.53-14.54-43.05-28.87-64.58-42.79a1.2,1.2,0,0,0-1.84.71,3.28,3.28,0,0,0,.3,2.91q25.11,37.74,50.22,76.14c-22.59-3.27-45.18-6.26-67.76-8.74-.74-.08-1.37.61-1.49,1.65a3.05,3.05,0,0,0,.95,2.69q31.38,24,62.77,49c-20.92,8.31-41.84,16.87-62.77,25.88a2.27,2.27,0,0,0-.95,2.42,2.31,2.31,0,0,0,1.55,2.11c102.51,17.08,205,44.72,307.54,61.8.75.13,1.4-.54,1.55-1.6A3.09,3.09,0,0,0,784.36,574.48ZM484.23,513.77c19.64-8.35,39.28-16.33,58.92-24.09a2,2,0,0,0,1-1.93,3.05,3.05,0,0,0-1-2.32q-29.8-23.81-59.61-46.78c21.45,2.46,42.9,5.35,64.35,8.49.64.1,1.2-.38,1.42-1.22a3.37,3.37,0,0,0-.42-2.57Q525,406.87,501.2,370.89c20.44,13.29,40.89,26.94,61.33,40.77a1.14,1.14,0,0,0,1.69-.36,3.05,3.05,0,0,0,.18-2.52q-15-44.73-30-89.33,25.46,33.84,50.91,68.12a1.3,1.3,0,0,0,1.76.55,2.27,2.27,0,0,0,.77-2.14l-8.7-95q17.18,43.43,34.35,87a1.88,1.88,0,0,0,1.6,1.38c.63,0,1.13-.62,1.27-1.5q6.81-44.48,13.64-88.94,6.82,47.44,13.64,94.89a2.7,2.7,0,0,0,1.27,2.05,1.18,1.18,0,0,0,1.61-.69q17.16-36,34.34-72.15l-8.7,91.31a3.29,3.29,0,0,0,.78,2.47,1.2,1.2,0,0,0,1.75.2q25.44-23.35,50.89-47.06-15,38.64-30,77.11a3.31,3.31,0,0,0,.18,2.59c.42.8,1.08,1.22,1.69,1.06,20.44-5.31,40.87-10.82,61.31-16.67q-23.84,27.27-47.67,54a2.8,2.8,0,0,0-.42,2.41,2.33,2.33,0,0,0,1.42,1.8c21.44,5.58,42.89,10.92,64.33,15.82q-29.79,12.67-59.59,24.38a2,2,0,0,0-1,1.93,3.09,3.09,0,0,0,1,2.33q29.45,23.52,58.9,46.24C678.58,556.16,581.4,530.47,484.23,513.77Z" style="fill: #bd9c08"/>
    <path d="M630,379.19c-48-10.57-86.85,38.26-86.85,108.36S582,622.28,630,632.85s86.85-38.26,86.85-108.36S678,389.76,630,379.19Z" style="fill: #fcd116"/>
    <path d="M630,376.43c-48.93-10.79-88.74,39.23-88.74,110.74S581.07,624.82,630,635.61s88.74-39.23,88.74-110.74S678.93,387.22,630,376.43Zm0,253.66c-46.85-10.32-85-73.79-85-142.15s38.11-116.31,85-106,85,73.79,85,142.16S676.85,640.41,630,630.09Z" style="fill: #bd9c08"/>
    <path d="M697.47,204.44c-11.78-5.17-20.62-1.47-34.94-4.34l-4,5h0q23.3,5.27,46.58,10.32C705.43,212.65,701.15,206,697.47,204.44Z" style="fill: #fcd116"/>
    <path d="M697.67,202.66c-7-3.06-13.06-3.09-19.48-3.13a78.36,78.36,0,0,1-15.67-1.27l-.52-.11-6.42,8.16c16.88,3.82,33.76,7.6,50.64,11.23.06-.52.11-1,.17-1.55C706.83,211.67,701.57,204.36,697.67,202.66ZM661.54,204c.51-.65,1-1.29,1.52-1.94a79.91,79.91,0,0,0,15.49,1.2c6.49,0,12.11.08,18.73,3,2.52,1.1,5.08,4.74,6.12,7Q682.48,208.72,661.54,204Z" style="fill: #bd9c08"/>
    <path d="M557.66,152.4q-11.43-1.86-22.85-3.62c-3.24,1.93,2.66,13.84,7.45,15.2q11.78,2.52,23.54,5.14c10.94,22.45,32.15,41,52.4,45.62,27.3,6.17,57.58-19.35,94.18-21.76-39.83-9.3-79.67-19.45-119.51-29.22C577.4,145,565.66,144.46,557.66,152.4Z" style="fill: #fcd116"/>
    <path d="M593.27,162C575.75,140.93,564,144,557.19,150.49q-11.36-1.85-22.72-3.6l-.27.15c-1.3.78-1.83,2.65-1.47,5.12.76,5.05,5.36,12.48,9.52,13.66q11.47,2.46,23,5c11.37,22.79,32.57,41.12,53,45.76l.31.07c14.91,3.24,30.76-2.77,47.54-9.21,14.68-5.63,29.86-11.49,46.57-12.6-.06-1.23-.13-2.46-.2-3.7C672.7,181.88,633,171.76,593.27,162Zm71.81,41.81c-16.54,6.34-32.17,12.27-46.58,9.14l-.29-.07c-19.93-4.53-40.59-22.49-51.42-44.72l-.37-.77q-12-2.67-24.09-5.25c-2.82-.8-6.6-6.74-7.14-10.32a1.9,1.9,0,0,1,0-1.15q11.43,1.76,22.88,3.63l.33-.33c8.84-8.77,20.49-4.92,33.71,11.14l.31.37c36.5,8.95,73,18.22,109.49,26.87C689,194.65,676.86,199.32,665.08,203.83Z" style="fill: #bd9c08"/>
    <path d="M580.17,115.07c-22.28-9.14-73.55-24-107.61-43.74,14.75,23.5,45.59,39.68,67,48.83,22.71,9.61,44.8,21.71,62.31,44.81l17.94,4.16C615.49,139,599.45,122.91,580.17,115.07Z" style="fill: #fcd116"/>
    <path d="M580.33,113.28c-5.61-2.28-13-4.92-21.55-8-25.51-9.08-60.46-21-85.87-35.71l-1.23,2.88c15.73,25,49.18,41.51,67.73,49.44,21.65,9.16,44.12,21.1,61.73,44.34l.33.43,19.93,4.63-.33-2.33C617.09,141.47,603.39,122.66,580.33,113.28Zm22,49.95c-18-23.54-40.7-35.61-62.54-44.85C523.06,111.24,494,97,477.58,76.05c25,13.46,57.08,24.41,80.95,32.89,8.53,3,15.9,5.66,21.47,7.92,21.23,8.63,34.08,25.52,38.24,50.06Z" style="fill: #bd9c08"/>
    <path d="M608.6,167.54q-1.62,9-3.23,17.93c7.12,14.9,18.16,16.55,30,7.49s24.71-38.93,30.93-38.13c43.45,5.85,96-10.76,121.09-27.54-31.8,1.35-63.3,2.61-95.36-3.93C637.37,112.05,630.9,146.83,608.6,167.54Z" style="fill: #fcd116"/>
    <path d="M776.48,125.88c-27.56,1.07-56.06,1.42-84.41-4.36-42-8.64-56.26,9.84-70.06,27.9-4.35,5.68-8.86,11.57-14.19,16.51a2.32,2.32,0,0,0-.21,2.53c.43.9,1.22,1.21,1.77.7,5.47-5.07,10-11,14.45-16.8,14-18.38,27.32-35.58,68.25-27.16,28.53,5.82,57.11,5.47,84.76,4.39l3.64-.15c-25.23,14.38-72.77,29.07-114.2,23.54-3.75-.48-8.59,7.05-14.72,16.57-5.27,8.19-11.24,17.46-16.84,21.73-6.89,5.25-19.73,11.35-28.36-6.72-.43-.9-1.22-1.21-1.77-.71a2.32,2.32,0,0,0-.22,2.54c3.74,7.82,8.64,12.4,14.3,13.63,5.27,1.15,11.2-.62,17.45-5.38,5.91-4.5,12-14,17.38-22.33,5-7.84,10.28-16,12.92-15.62,41.41,5.56,94.36-9.45,121.64-27.7-.27-1.18-.53-2.37-.8-3.55Z" style="fill: #bd9c08"/>
    <path d="M780.58,127.4l-1.73.3c-19.62,3.46-52.45,8.39-71.59,4.75-22.38-4.19-43.52-8.39-62.11,7.69-4.48,3.87-8.77,8.24-12.92,12.47-6,6.11-12.21,12.43-19.06,17.31a2.18,2.18,0,0,0-.38,2.46,1.66,1.66,0,0,0,1.06,1.08.84.84,0,0,0,.68-.14c7-5,13.26-11.37,19.33-17.55,4.12-4.19,8.38-8.53,12.79-12.35,17.93-15.51,38.68-11.4,60.65-7.29,19.41,3.7,52.41-1.26,72.12-4.75l1.73-.3c.68-.12,1.1-1,.94-2.06S781.24,127.28,780.58,127.4Z" style="fill: #bd9c08"/>
    <path d="M560.62,114.69c-6.11-2.62-12.35-5.11-18.39-7.5-16.76-6.64-34.08-13.33-50.85-23a90.88,90.88,0,0,1-10.83-7.92c-1.84-1.48-3.67-3-5.53-4.34-.31,1.09-.62,2.18-.92,3.27,1.82,1.35,3.63,2.81,5.44,4.27a92.38,92.38,0,0,0,11.17,8.14c16.93,9.82,34.35,16.54,51.19,23.21,6,2.38,12.25,4.87,18.34,7.48,21.86,9.4,37.07,20.9,40.23,45.7l2.48-.16C599.51,136.82,583.54,124.55,560.62,114.69Z" style="fill: #bd9c08"/>
    <path d="M664.51,193.79c-17.25,8.83-33.32,15.49-55.38,8.33-.7-.19-1.29.41-1.34,1.41a2.24,2.24,0,0,0,1.16,2.23,63.18,63.18,0,0,0,6.34,1.71c19.58,4.27,35-2.3,50.34-10.15a2,2,0,0,0,.57-2.34C665.88,194,665.12,193.47,664.51,193.79Z" style="fill: #bd9c08"/>
    <path d="M561.94,157.85q-13.61-2.83-27.22-5.54c-.69-.14-1.26.57-1.26,1.59a2.07,2.07,0,0,0,1.26,2.09q13.6,2.7,27.22,5.54c.7.14,1.26-.56,1.26-1.58A2.07,2.07,0,0,0,561.94,157.85Z" style="fill: #bd9c08"/>
    <path d="M570.67,152.27c-1.87-.39-3.4,1.51-3.4,4.26s1.53,5.28,3.4,5.68,3.41-1.51,3.41-4.25S572.55,152.67,570.67,152.27Z" style="fill: #bd9c08"/>
    <path d="M0,1010.08C420,738.76,840,1193.28,1260,922V508C840,779.28,420,324.76,0,596.08Z" style="fill: #003f87"/>
    <path d="M1008,812.11C966,816,924,855,882,851.65s-84-49-126-56.75-84,22.56-126,13.4-84-57.75-126-65.46S420,768.31,378,765s-84-43.24-126-39.33-84,51.6-126,65.67-84-5.5-126,21.63v65.72c42-27.13,84-7.57,126-21.64s84-61.76,126-65.66,84,36,126,39.33,84-29.82,126-22.11,84,56.3,126,65.46,84-21.11,126-13.41S840,914,882,917.37s84-35.63,126-39.54,84,27.28,126,13.21,84-73.38,126-100.51V724.81c-42,27.13-84,86.44-126,100.51S1050,808.21,1008,812.11Z" style="fill: #fff"/>
    <path d="M1008,680.69c-42,3.9-84,42.89-126,39.53s-84-49-126-56.75S672,686,630,676.87s-84-57.75-126-65.46-84,25.47-126,22.12-84-43.25-126-39.34-84,51.6-126,65.67-84-5.5-126,21.63v65.72c42-27.13,84-7.57,126-21.63s84-61.77,126-65.67,84,36,126,39.33,84-29.82,126-22.11,84,56.3,126,65.46,84-21.11,126-13.4,84,53.4,126,56.75,84-35.63,126-39.54,84,27.28,126,13.21,84-73.38,126-100.51V593.38c-42,27.14-84,86.45-126,100.51S1050,676.78,1008,680.69Z" style="fill: #fff"/>
    <path d="M1008,549.26c-42,3.9-84,42.89-126,39.54s-84-49-126-56.76-84,22.57-126,13.41S546,487.69,504,480s-84,25.47-126,22.12-84-43.24-126-39.34-84,51.6-126,65.67-84-5.5-126,21.63v65.72c42-27.13,84-7.57,126-21.63s84-61.77,126-65.67,84,36,126,39.34S462,538,504,545.7s84,56.3,126,65.46,84-21.11,126-13.4,84,53.4,126,56.75,84-35.63,126-39.53,84,27.27,126,13.2,84-73.37,126-100.51V462c-42,27.13-84,86.44-126,100.5S1050,545.35,1008,549.26Z" style="fill: #fff"/>
  </g>
</svg>
