<svg xmlns="http://www.w3.org/2000/svg" viewBox="0 0 1260 1012.04">
  <g>
    <path d="M0,90.08v920C420,738.76,840,1193.28,1260,922V2C840,273.28,420-181.24,0,90.08Z" style="fill: #3a75c4"/>
    <path d="M0,90.08v690C420,508.76,840,963.28,1260,692V2C840,273.28,420-181.24,0,90.08Z" style="fill: #ce1126"/>
    <path d="M0,90.08v460C420,278.76,840,733.28,1260,462V2C840,273.28,420-181.24,0,90.08Z" style="fill: #fff"/>
    <path d="M0,90.08v230C420,48.76,840,503.28,1260,232V2C840,273.28,420-181.24,0,90.08Z" style="fill: #ffc61e"/>
    <path d="M0,90.08v920C210,721.08,420,613.55,630,506,420,306.89,210,107.75,0,90.08Z" style="fill: #3d8e33"/>
    <path d="M214.2,260.5C120.26,274.09,44.1,409.91,44.1,524.19s76.16,163.9,170.1,150.31C308.14,660,384.3,578.38,384.3,463.2,384.3,349.73,308.14,246,214.2,260.5Z" style="fill: #fff"/>
    <path d="M289.8,253.4c-93.94,2-170.1,123.4-170.1,237.76S195.86,669.38,289.8,667.4c93.94-2.7,170.1-79.81,170.1-194.91C459.9,359,383.74,250.7,289.8,253.4Z" style="fill: #3d8e33"/>
    <path d="M222,306.36q9.26,6.81,18.5,13.93,2.19-8.4,4.37-16.77Q233.48,304.71,222,306.36Z" style="fill: #fff"/>
    <path d="M233.43,347.61q9.28-9.35,18.57-18.39-5.73-4.52-11.46-8.93Q237,333.92,233.43,347.61Z" style="fill: #fff"/>
    <path d="M270.57,344.14q-3.54-13-7.09-26-5.75,5.49-11.48,11.08Q261.28,336.54,270.57,344.14Z" style="fill: #fff"/>
    <path d="M259.12,302.19q2.17,8,4.36,15.95,9.24-8.83,18.48-17.39Q270.53,301.28,259.12,302.19Z" style="fill: #fff"/>
    <path d="M252,276.32q-3.56,13.57-7.12,27.2,7.11-.75,14.21-1.33Q255.58,289.23,252,276.32Z" style="fill: #fff"/>
    <path d="M244.91,303.52q-2.19,8.37-4.37,16.77,5.73,4.41,11.46,8.93,5.75-5.6,11.48-11.08-2.18-8-4.36-15.95Q252,302.77,244.91,303.52Z" style="fill: #fff"/>
    <path d="M222,405.13q9.26,6.81,18.5,13.93,2.19-8.38,4.37-16.77Q233.48,403.49,222,405.13Z" style="fill: #fff"/>
    <path d="M233.43,446.38Q242.72,437,252,428q-5.73-4.51-11.46-8.93Q237,432.69,233.43,446.38Z" style="fill: #fff"/>
    <path d="M270.57,442.91q-3.54-13-7.09-26Q257.73,422.4,252,428,261.28,435.31,270.57,442.91Z" style="fill: #fff"/>
    <path d="M259.12,401q2.17,8,4.36,15.94,9.24-8.82,18.48-17.39Q270.53,400,259.12,401Z" style="fill: #fff"/>
    <path d="M252,375.09q-3.56,13.57-7.12,27.2,7.11-.75,14.21-1.32Q255.58,388,252,375.09Z" style="fill: #fff"/>
    <path d="M244.91,402.29q-2.19,8.37-4.37,16.77,5.73,4.41,11.46,8.93,5.75-5.6,11.48-11.08-2.18-8-4.36-15.94Q252,401.54,244.91,402.29Z" style="fill: #fff"/>
    <path d="M222,503.9q9.26,6.83,18.5,13.93,2.19-8.39,4.37-16.77Q233.48,502.26,222,503.9Z" style="fill: #fff"/>
    <path d="M270.57,541.69q-3.54-13-7.09-26-5.75,5.47-11.48,11.07Q261.28,534.1,270.57,541.69Z" style="fill: #fff"/>
    <path d="M233.43,545.15q9.28-9.35,18.57-18.39-5.73-4.51-11.46-8.93Q237,531.48,233.43,545.15Z" style="fill: #fff"/>
    <path d="M252,473.86q-3.56,13.58-7.12,27.2,7.11-.75,14.21-1.32Q255.58,486.78,252,473.86Z" style="fill: #fff"/>
    <path d="M259.12,499.74q2.17,8,4.36,16,9.24-8.84,18.48-17.4Q270.53,498.81,259.12,499.74Z" style="fill: #fff"/>
    <path d="M244.91,501.06q-2.19,8.38-4.37,16.77,5.73,4.41,11.46,8.93,5.75-5.58,11.48-11.07-2.18-8-4.36-16Q252,500.31,244.91,501.06Z" style="fill: #fff"/>
    <path d="M233.43,643.92q9.28-9.33,18.57-18.38-5.73-4.53-11.46-8.93Q237,630.25,233.43,643.92Z" style="fill: #fff"/>
    <path d="M270.57,640.46q-3.54-13-7.09-26Q257.73,620,252,625.54,261.28,632.86,270.57,640.46Z" style="fill: #fff"/>
    <path d="M222,602.67q9.26,6.83,18.5,13.94,2.19-8.4,4.37-16.78Q233.48,601,222,602.67Z" style="fill: #fff"/>
    <path d="M259.12,598.51q2.17,8,4.36,16,9.24-8.84,18.48-17.39Q270.53,597.58,259.12,598.51Z" style="fill: #fff"/>
    <path d="M252,572.63q-3.56,13.59-7.12,27.2,7.11-.74,14.21-1.32Q255.58,585.55,252,572.63Z" style="fill: #fff"/>
    <path d="M244.91,599.83q-2.19,8.38-4.37,16.78,5.73,4.41,11.46,8.93,5.75-5.6,11.48-11.08-2.18-8-4.36-16Q252,599.1,244.91,599.83Z" style="fill: #fff"/>
  </g>
</svg>
