<svg xmlns="http://www.w3.org/2000/svg" viewBox="0 0 1260 1012.04">
  <g>
    <path d="M0,90.08v920C420,432.09,840,580,1260,2,840,273.28,420-181.24,0,90.08Z" style="fill: #009e49"/>
    <path d="M0,1010.08C420,738.76,840,1193.28,1260,922V2C840,580,420,432.09,0,1010.08Z" style="fill: #ce1126"/>
    <path d="M0,1010.08C420,432.09,840,580,1260,2"/>
    <path d="M1260,2C1154,70.44,1048,92.69,942,92,628,319.35,314,345.77,0,777.88v232.2C106,941.6,212,919.36,318,920c314-227.32,628-253.74,942-685.85Z" style="fill: #fcd116"/>
    <path d="M0,1010.08C420,432.09,840,580,1260,2"/>
    <path d="M1260,2c-75.72,48.91-151.43,74.23-227.15,84.47C688.57,384.37,344.28,370.44,0,844.22v165.86c75.72-48.92,151.43-74.24,227.15-84.48C571.43,627.67,915.72,641.61,1260,167.82Z"/>
    <path d="M836,386.64c18.87-3.44,37.74-7.35,56.61-11.87-29.47-37.53-58.94-76.55-88.41-116.56Q820.07,322.62,836,386.64Z" style="fill: #fff"/>
    <path d="M860,395.77q18.22-23.4,36.45-47.49c-30.75-28.57-61.51-58.78-92.27-90.07Q832.09,327.65,860,395.77Z" style="fill: #fff"/>
    <path d="M877.07,398.13q32.61-59.74,65.23-122c-32.61,23.62-65.23,45.08-97.85,65.05Q860.77,369.93,877.07,398.13Z" style="fill: #fff"/>
    <path d="M901.48,395.64q20.41-59.22,40.82-119.47c-32,32.62-64,63.17-96,92.26Q873.91,382.81,901.48,395.64Z" style="fill: #fff"/>
    <path d="M851,387c42.91,14.57,85.82,26.48,128.73,34.19-30.76-25.14-61.52-52.44-92.28-81.32Q869.19,363.76,851,387Z" style="fill: #fff"/>
    <path d="M862.18,412.29c39.17,5.68,78.34,9,117.51,8.88-38.38-21.34-76.76-46-115.14-73Z" style="fill: #fff"/>
    <path d="M864.66,501.72Q885.08,443.33,905.48,384q-27.57-12.65-55.15-27Q857.5,429.45,864.66,501.72Z" style="fill: #fff"/>
    <path d="M864.66,501.72q12.4-69.5,24.81-139.31c-18.87,4.46-37.74,8.31-56.61,11.69Q848.76,438.15,864.66,501.72Z" style="fill: #fff"/>
    <path d="M873.69,413.89l2.37-64.14c-40,16.27-79.92,30-119.88,42.37C795.35,401,834.52,408.68,873.69,413.89Z" style="fill: #fff"/>
    <path d="M756.18,392.12c43.49,2,87,2.49,130.47-.22q-16.3-28-32.62-56.59C821.41,355.58,788.8,374.28,756.18,392.12Z" style="fill: #fff"/>
    <path d="M357.17,652.89c18.87-4.75,37.74-8.86,56.61-12.47-29.47-39-58.94-76.69-88.41-112.69Q341.27,590,357.17,652.89Z" style="fill: #fff"/>
    <path d="M381.19,660.94q18.22-23.75,36.45-46.81c-30.75-30.3-61.51-59.29-92.27-86.4Q353.29,593.37,381.19,660.94Z" style="fill: #fff"/>
    <path d="M398.27,663.27q32.61-59.21,65.23-116.48c-32.61,18.67-65.23,38.5-97.85,60.16Q382,634.82,398.27,663.27Z" style="fill: #fff"/>
    <path d="M422.68,661.8q20.42-57.85,40.82-115c-32,27.77-64,56.65-96,87.28Q395.11,647.14,422.68,661.8Z" style="fill: #fff"/>
    <path d="M372.16,652.42c42.91,12.92,85.82,28.94,128.73,46.51-30.76-32.21-61.52-63.62-92.28-93.66Q390.39,628.51,372.16,652.42Z" style="fill: #fff"/>
    <path d="M383.38,677.43c39.17,5.09,78.34,12.65,117.51,21.5-38.38-30.16-76.76-59.07-115.14-85.64Z" style="fill: #fff"/>
    <path d="M385.86,766.83q20.42-58.59,40.82-116.35-27.57-14.72-55.15-28Q378.7,694.62,385.86,766.83Z" style="fill: #fff"/>
    <path d="M385.86,766.83q12.4-69.62,24.81-138.91c-18.87,3.67-37.74,7.84-56.61,12.66Q370,703.42,385.86,766.83Z" style="fill: #fff"/>
    <path d="M394.89,679l2.37-64.12a1053.49,1053.49,0,0,0-119.88,55.68C316.55,670.23,355.72,673.44,394.89,679Z" style="fill: #fff"/>
    <path d="M277.38,670.56c43.49-8.24,87-12.12,130.47-13.26q-16.31-28.6-32.62-56.66C342.61,622,310,645,277.38,670.56Z" style="fill: #fff"/>
  </g>
</svg>
