<svg xmlns="http://www.w3.org/2000/svg" viewBox="0 0 1260 1012.04">
  <g>
    <path d="M1260,2C840,273.28,420-181.24,0,90.08v920C420,738.76,840,1193.28,1260,922Z" style="fill: #024fa2"/>
    <path d="M1260,155.3C840,426.62,420-27.91,0,243.41V856.74C420,585.43,840,1040,1260,768.63Z" style="fill: #fff"/>
    <path d="M1260,180.86C840,452.17,420-2.35,0,269V831.19c420-271.32,840,183.2,1260-88.11Z" style="fill: #ed1c27"/>
    <path d="M420,262.5c-77.32-10.06-140,85.32-140,198.3s62.68,200.52,140,210.59C497.32,681.14,560,604.3,560,491,560,378.47,497.32,272.26,420,262.5Z" style="fill: #fff"/>
    <path d="M378.09,453c21.5,11.92,43,24.6,64.49,37.84Q431.3,379.76,420,268.89,399,360.51,378.09,453Z" style="fill: #ed1c27"/>
    <path d="M397.42,485.33c21.49-8,43-15.38,64.49-22.22Q441,365.66,420,268.89,408.71,377,397.42,485.33Z" style="fill: #ed1c27"/>
    <path d="M413.36,504c45.21-27.77,90.42-52.65,135.63-76.44-45.21-9.22-90.42-17.35-135.63-22.59Z" style="fill: #ed1c27"/>
    <path d="M439.26,524.67c36.58-33.73,73.15-65.78,109.73-97.13-49.86,1.93-99.72,5.19-149.59,12.18Q419.34,481.83,439.26,524.67Z" style="fill: #ed1c27"/>
    <path d="M400.74,520q19.92-38,39.86-75.24c-49.87-19.08-99.73-35.09-149.59-45.59C327.59,436.79,364.16,477.38,400.74,520Z" style="fill: #ed1c27"/>
    <path d="M426.64,505.6v-99c-45.21-5.79-90.42-8.87-135.63-7.42C336.22,430.71,381.43,466.8,426.64,505.6Z" style="fill: #ed1c27"/>
    <path d="M393.31,466.49c35.47,56,70.94,113.94,106.41,173q-21-98-41.91-195.4C436.31,450.94,414.81,458.36,393.31,466.49Z" style="fill: #ed1c27"/>
    <path d="M390,507.52c36.57,42.2,73.14,86.49,109.72,131.92q-34.94-104.6-69.87-207.55Q409.93,469.33,390,507.52Z" style="fill: #ed1c27"/>
    <path d="M340.28,620.71c36.58-37.51,73.15-72.49,109.72-105.9q-19.92-43-39.85-85.33Q375.22,523.8,340.28,620.71Z" style="fill: #ed1c27"/>
    <path d="M340.28,620.71C375.75,569.38,411.22,520.43,446.69,473c-21.5-13.32-43-26.08-64.5-38.09Q361.24,527.29,340.28,620.71Z" style="fill: #ed1c27"/>
  </g>
</svg>
