<svg xmlns="http://www.w3.org/2000/svg" viewBox="0 0 1260 1012.04">
  <g>
    <path d="M0,90.08v920C420,738.76,840,1193.28,1260,922V2C840,273.28,420-181.24,0,90.08Z" style="fill: #fff"/>
    <path d="M207.73,298.46c38.83-70.4,77.66-136.64,116.49-199.86m-72.8,226c38.83-67.44,77.66-131.15,116.48-192.28M295.1,353.92c38.83-64.8,77.66-126.31,116.49-185.66"/>
    <path d="M309.66,87.9c-38.83,64-77.66,131.15-116.49,202.6q14.57,7.75,29.13,16.3C261.12,237.43,300,172.07,338.78,109.58Q324.23,98.47,309.66,87.9Z"/>
    <path d="M280.54,343.82q14.56,9.94,29.12,20.5c38.83-64,77.66-124.83,116.49-183.67q-14.56-12.5-29.12-24.58C358.2,216,319.37,278.18,280.54,343.82Z"/>
    <path d="M353.34,120.83c-38.83,61.79-77.65,126.31-116.48,194.7q14.55,8.91,29.12,18.52c38.83-66.52,77.66-129.46,116.49-190Q367.91,132.23,353.34,120.83Z"/>
    <path d="M848.41,843.79c38.83-59.36,77.66-120.86,116.49-185.67M892.1,879.7c38.82-61.12,77.65-124.83,116.48-192.27m-72.8,226c38.83-63.22,77.66-129.46,116.49-199.85"/>
    <path d="M950.34,647.72c-38.83,64-77.66,124.84-116.49,183.67Q848.42,843.89,863,856c38.83-59.91,77.66-122.12,116.49-187.76Q964.9,658.28,950.34,647.72Z"/>
    <path d="M921.22,902.46q14.55,11.12,29.12,21.68c38.83-64,77.66-131.14,116.49-202.6q-14.57-7.75-29.13-16.3C998.88,774.61,960.05,840,921.22,902.46Z"/>
    <path d="M994,678c-38.83,66.53-77.66,129.47-116.49,190q14.57,11.87,29.13,23.25c38.82-61.79,77.65-126.31,116.48-194.69Q1008.59,687.61,994,678Z"/>
    <path d="M877.53,729.74c48.54,39.55,97.08,75.3,145.61,105"/>
    <path d="M872.68,737.29c48.54,39.8,97.07,75.87,145.61,106q4.86-8.52,9.71-17.1c-48.54-29.29-97.08-64.7-145.61-104Q877.53,729.76,872.68,737.29Z" style="fill: #fff"/>
    <path d="M746.49,338.91C650,249.8,519.6,246.86,455.27,344.2,390.94,441.84,417,585.54,513.51,673.13c96.5,89.11,226.89,92,291.22-5.29C869.06,570.2,843,426.51,746.49,338.91Z" style="fill: #cd2e3a"/>
    <path d="M775.61,503.64C727.36,460.27,662.17,460.2,630,506s-97.36,45.75-145.61,2.38c-48.25-43.21-61.29-115.8-29.12-164.2C390.94,441.84,417,585.54,513.51,673.13c96.5,89.11,226.89,92,291.22-5.29C836.9,619.45,823.86,546.85,775.61,503.64Z" style="fill: #0047a0"/>
    <path d="M324.22,821.56c-38.83-64.36-77.66-125.7-116.49-182.89M367.9,791.51C329.08,725.06,290.25,661.18,251.42,601m160.17,162.6c-38.83-68.23-77.66-134.31-116.49-197.09"/>
    <path d="M193.17,652C232,708.11,270.83,768.54,309.66,832.12q14.56-10.71,29.12-20.84C300,746.19,261.12,684,222.3,625.76Q207.74,638.48,193.17,652Z"/>
    <path d="M280.54,577.72C319.37,639.66,358.2,705,397,772.71q14.55-9.18,29.12-17.94C387.32,686,348.49,619.28,309.66,555.7Q295.09,566.4,280.54,577.72Z"/>
    <path d="M236.86,613.22c38.83,59.19,77.65,122.26,116.48,188q14.57-9.87,29.13-19.27C343.64,714.91,304.81,650.27,266,589.21Q251.41,600.88,236.86,613.22Z"/>
    <path d="M964.9,445.49c-38.83-62.78-77.66-128.86-116.49-197.08M1008.58,411c-38.83-60.14-77.66-124-116.48-190.46m160.17,152.83c-38.83-57.18-77.66-118.53-116.49-182.88"/>
    <path d="M833.85,257.28C872.68,326,911.51,392.76,950.34,456.35q14.56-10.71,29.12-22C940.63,372.39,901.8,307,863,239.34Q848.42,248.51,833.85,257.28Z"/>
    <path d="M877.53,230.05C916.36,297.13,955.19,361.77,994,422.83q14.57-11.65,29.12-24c-38.83-59.2-77.66-122.26-116.48-188Q892.1,220.67,877.53,230.05Z"/>
    <path d="M921.22,200.77c38.83,65.09,77.66,127.31,116.48,185.52q14.57-12.74,29.13-26.22C1028,303.94,989.17,243.51,950.34,179.92Q935.78,190.63,921.22,200.77Z"/>
    <path d="M287.82,710.31q21.84-16.75,43.68-32.14m546-309.91q25.49-16.44,51-34.39m43.68-32.14q21.84-16.75,43.68-35"/>
    <path d="M872.68,359.87q4.86,8.4,9.71,16.77,25.49-16.59,51-34.69-4.85-8.06-9.71-16.18Q898.17,343.61,872.68,359.87Z" style="fill: #fff"/>
    <path d="M283,702.54q4.84,7.76,9.7,15.59,21.84-16.61,43.69-31.85-4.86-8.13-9.71-16.19Q304.81,685.66,283,702.54Z" style="fill: #fff"/>
    <path d="M967.33,293.92q4.84,7.83,9.7,15.59,21.86-16.9,43.69-35.32-4.86-7.43-9.71-14.92Q989.17,277.36,967.33,293.92Z" style="fill: #fff"/>
  </g>
</svg>
