<svg xmlns="http://www.w3.org/2000/svg" viewBox="0 0 1260 1012.04">
  <g>
    <path d="M0,90.08v920C420,738.76,840,1193.28,1260,922V2C840,273.28,420-181.24,0,90.08Z" style="fill: #00afca"/>
    <path d="M680.7,319.6c-46.82-10-84.77,37-84.77,105.42s38,132.11,84.77,142.15,84.76-38.61,84.76-107S727.51,329.66,680.7,319.6Z" style="fill: #fec50c"/>
    <path d="M673.77,291c0,5.52,1.89,10.61,6.93,11.69s6.93-3.23,6.93-8.75c0-7.36-6.93-43.88-6.93-43.88S673.77,283.67,673.77,291Z" style="fill: #fec50c"/>
    <path d="M777,462.18c.07,7.37,3.22,10.67,7,11.3,5,.91,29-5.52,29-5.58s-24-13.75-29-14.66C780.24,452.61,777,454.82,777,462.18Z" style="fill: #fec50c"/>
    <path d="M680.7,584.05c-5-1-6.93,3.22-6.93,8.74,0,7.36,6.93,43.89,6.93,43.89s6.93-33.59,6.93-40.95C687.63,590.21,685.74,585.12,680.7,584.05Z" style="fill: #fec50c"/>
    <path d="M577.38,410.93c-5-1.1-29,4.05-29,4.08s24,15.06,29,16.16c3.78.8,7-1.27,7-8.63S581.16,411.73,577.38,410.93Z" style="fill: #fec50c"/>
    <path d="M717.56,321.07c4.68,3.68,7.63,1.07,9.08-3.75,1.93-6.42,4.71-42.13,4.71-42.13S715.76,300.62,713.83,307C712.39,311.82,712.9,317.32,717.56,321.07Z" style="fill: #fec50c"/>
    <path d="M769.69,514.74c-1.87,6.51.32,11.21,3.81,13.92,4.66,3.7,29.48,11.77,29.48,11.7s-19.52-25.83-24.18-29.48C775.31,508.17,771.62,508.28,769.69,514.74Z" style="fill: #fec50c"/>
    <path d="M643.83,565.4c-4.68-3.75-7.63-1.2-9.07,3.58-1.93,6.38-4.72,42-4.72,42s15.59-25.11,17.52-31.49C649,574.73,648.49,569.23,643.83,565.4Z" style="fill: #fec50c"/>
    <path d="M587.89,356.2c-4.65-3.84-29.48-13.12-29.48-13.1s19.52,26.84,24.18,30.67c3.49,2.86,7.18,2.89,9.11-3.49S591.39,359.06,587.89,356.2Z" style="fill: #fec50c"/>
    <path d="M748.81,357.65c3.61,5.82,7.17,5.17,9.85,1.75,3.56-4.54,15.63-34.35,15.63-34.37s-21.87,13.76-25.43,18.25C746.18,346.68,745.25,351.78,748.81,357.65Z" style="fill: #fec50c"/>
    <path d="M748.81,556.59c-3.52,4.6-2.63,10,.05,14.38,3.56,5.92,25.43,27.46,25.43,27.42s-12.07-34-15.63-39.92C756,554.08,752.37,552.05,748.81,556.59Z" style="fill: #fec50c"/>
    <path d="M602.74,526c-3.56,4.43-15.64,33.78-15.64,33.78s21.88-12.92,25.44-17.34c2.67-3.32,3.61-8.39,0-14.37S605.41,522.7,602.74,526Z" style="fill: #fec50c"/>
    <path d="M587.1,286.44S599.17,321,602.74,327c2.67,4.48,6.28,6.63,9.84,2.2s2.63-9.9,0-14.39C609,308.78,587.1,286.43,587.1,286.44Z" style="fill: #fec50c"/>
    <path d="M769.69,407.08c2,7.11,5.62,8.54,9.11,7,4.66-2,24.18-21.64,24.18-21.68s-24.82.13-29.48,2.07C770,396,767.76,399.94,769.69,407.08Z" style="fill: #fec50c"/>
    <path d="M717.56,581c-4.63,2-5.17,7.16-3.73,12.56,1.93,7.2,17.52,38.81,17.52,38.8s-2.78-36.8-4.71-44C725.19,583,722.22,579.11,717.56,581Z" style="fill: #fec50c"/>
    <path d="M582.59,470.55c-4.66,1.81-24.18,20.48-24.18,20.49s24.83,1.14,29.48-.66c3.5-1.36,5.74-5.22,3.81-12.44S586.08,469.18,582.59,470.55Z" style="fill: #fec50c"/>
    <path d="M630,253.85s2.79,36.87,4.72,44.09c1.44,5.41,4.42,9.34,9.07,7.54s5.18-7.09,3.73-12.5C645.63,285.76,630,253.85,630,253.85Z" style="fill: #fec50c"/>
    <path d="M694.06,296.25c-.74,5.26.49,10.66,5.43,13.12s7.42-1.1,8.16-6.36c1-7-1.13-43.8-1.13-43.8S695,289.24,694.06,296.25Z" style="fill: #fec50c"/>
    <path d="M775.17,489.31c-.92,7.07,1.8,11.15,5.51,12.85,4.94,2.35,29.84,3.14,29.84,3.07s-22.19-20.14-27.14-22.46C779.68,481.07,776.16,482.26,775.17,489.31Z" style="fill: #fec50c"/>
    <path d="M661.9,577.32c-4.95-2.41-7.42,1-8.16,6.28-1,7,1.13,43.81,1.13,43.81s11.48-29.92,12.47-36.93C668.07,585.23,666.85,579.82,661.9,577.32Z" style="fill: #fec50c"/>
    <path d="M580.71,382.4c-4.94-2.52-29.83-4.61-29.83-4.59s22.19,21.36,27.13,23.86c3.71,1.87,7.23.83,8.21-6.18S584.42,384.26,580.71,382.4Z" style="fill: #fec50c"/>
    <path d="M732.34,322.89a12.66,12.66,0,0,0,1.87,14.48c4.23,4.83,7.55,3.18,9.65-1,2.8-5.58,10.37-38.94,10.37-38.94S735.14,317.35,732.34,322.89Z" style="fill: #fec50c"/>
    <path d="M770.45,536.45c-3.14-3.61-6.86-4.59-9.66,1a12.69,12.69,0,0,0,2,14.44c4.2,4.9,28,20,28,19.94S774.64,541.31,770.45,536.45Z" style="fill: #fec50c"/>
    <path d="M627.18,548.77c-4.23-4.94-7.55-3.37-9.65.76-2.8,5.51-10.37,38.63-10.37,38.64s19.1-19.37,21.9-24.88A12.74,12.74,0,0,0,627.18,548.77Z" style="fill: #fec50c"/>
    <path d="M598.64,333.37c-4.19-5-28-21.15-28-21.13s16.11,31.3,20.3,36.3c3.14,3.74,6.86,4.85,9.66-.66S601.78,337.11,598.64,333.37Z" style="fill: #fec50c"/>
    <path d="M760.79,381.17c2.85,6.59,6.52,7,9.66,4.46,4.2-3.32,20.3-28.53,20.3-28.55s-23.8,7.08-28,10.36C759.61,369.94,758,374.55,760.79,381.17Z" style="fill: #fec50c"/>
    <path d="M734.21,571.29c-4.15,3.36-4,8.75-1.87,13.75,2.8,6.69,21.89,33.83,21.89,33.8s-7.57-36.17-10.37-42.83C741.76,571,738.4,568,734.21,571.29Z" style="fill: #fec50c"/>
    <path d="M590.94,499.36c-4.19,3.18-20.3,27.65-20.3,27.65s23.81-6,28-9.17c3.14-2.38,4.76-6.93,2-13.66S594.08,497,590.94,499.36Z" style="fill: #fec50c"/>
    <path d="M607.16,266.73s7.57,36.41,10.37,43.14c2.1,5.05,5.46,8.15,9.65,5s4-8.66,1.88-13.71C626.26,294.41,607.16,266.73,607.16,266.73Z" style="fill: #fec50c"/>
    <path d="M780.68,423.44c-3.71.45-6.49,3.59-5.51,11s4.51,9.79,8.21,9.33c5-.55,27.14-13.88,27.14-13.94S785.62,422.92,780.68,423.44Z" style="fill: #fec50c"/>
    <path d="M699.49,585.3c-4.93.5-6.17,5.29-5.43,10.86,1,7.43,12.46,42.21,12.46,42.2s2.11-35.92,1.13-43.34C706.91,589.46,704.43,584.89,699.49,585.3Z" style="fill: #fec50c"/>
    <path d="M578,440.69c-4.94.37-27.13,12.52-27.13,12.54s24.89,8.25,29.83,7.89c3.71-.29,6.49-3.31,5.51-10.74S581.72,440.4,578,440.69Z" style="fill: #fec50c"/>
    <path d="M654.87,248.26s-2.11,35.89-1.13,43.32c.74,5.58,3.22,10.18,8.16,9.81s6.17-5.25,5.44-10.82C666.35,283.15,654.87,248.26,654.87,248.26Z" style="fill: #fec50c"/>
    <polygon points="665.57 708.3 665.57 708.3 665.57 708.3 665.57 708.3" style="fill: #fec50c"/>
    <path d="M680.53,731.61c-3.34-1.2-6.83-2-10-4.52-.84-.67-1.62-2-2.41-.91a9.63,9.63,0,0,1-3.74.36,12.84,12.84,0,0,1-6.45-3c1.47-2.66,3.24-4.88,4.85-7.29-1.3-.59-2.56-1.26-3.86-2,2.29-1.81,4.41-4,6.63-5.93a17.36,17.36,0,0,0-6.63.19c-3-.06-5.8.83-8.74.9l-1.17,0-2-.16a15.88,15.88,0,0,1,.21,2.44,10.34,10.34,0,0,1-.21,2.26,4.91,4.91,0,0,1-.84,1.75,4,4,0,0,1-1.38,1.32,2.88,2.88,0,0,1-1.64.23,3.68,3.68,0,0,1-1.7-.68,6.67,6.67,0,0,1-1.58-1.76,8.72,8.72,0,0,1-1.76.08,5.35,5.35,0,0,1-1.66-.36,18.29,18.29,0,0,1-1.77-1.24,13.82,13.82,0,0,1-1.63-1.62c-2.15,1.37-4.54,2.6-5.84,5.54a12,12,0,0,0-1,4.67,20.37,20.37,0,0,0,.9,6.61c.23.63.42-2,1.14-2.24a7.83,7.83,0,0,1,4.2-2.15c1.28-.67,1.11.31.58,1.66-.12.74-.84,3.5.13,2.24,4.26-1.83,9-1.35,13.59-.87a158.65,158.65,0,0,1,20.07,3c6.3,1.48,12.6,3,18.9,4.62,3,.76,6,2.37,9,2.26.72-.13,1.83,0,2.25-.49-1.35-1.41-2.92-1.77-4.41-2.36Q686.53,732.89,680.53,731.61Z" style="fill: #fec50c"/>
    <path d="M741.58,725.25c-3.43-.13-6.94-1.63-6.53,4.36-.66,4.55-7.42,1.66-5.54,6,2.12,5.48-3.83,7.41-6.29,9.1-15.21,5.3-31.84-3.38-47.64-3.92-9.19-.82-20.11,1.93-22.73,16,6.71,4.06,12.34-3,17.67-6.58,1.61,1.61-1,9.58,1.51,13.09,5.2.52,8.53-7,11.54-12,2.54,4.76-1.19,10.42,1.13,14.72,6,2.08,8.47-7.67,12.76-10.91,2.86-.11-1.19,9,1.06,12.14,4.11,3.41,8.36,0,9.69-5.55,1.93-7.83,3.7-1.38,4.45,4,2.39,6.36,7,1.76,8.76-1.77,2.14-7.53,4.21-.13,7,3.74,5.89,2.52,7.73-7.29,11.38-11.08-.28,5,3.45,12.14,6.5,7.65,2.54-2.95,2.8-10.13,5.52-11.78,3.82,2.83,7.3,10.57,11.87,7.38h0c2.73-2.43,2.28-8.28,2.92-12.54-.93-8.48,3.84,3.8,7,3.6,6.66,4.53,14.94-1.77,13.78-12.85C772.1,734.67,756.93,727.22,741.58,725.25Z" style="fill: #fec50c"/>
    <path d="M869.06,565.16c-8.8,11.54-16.76,25.33-28,31.73,10.79-13.9,19.7-31,27.49-48.9,1.66-5.38,6.15-11.66,3.71-18-3.92-5.09-8.82-1.23-10.86,4.23-6.84,12.34-12,27-20.83,36.55,7.7-20.52,15.67-42.51,15.87-67.24,0-5.1-.73-12.67-5.47-12.24-3.75.56-2.86,8.87-4.41,12.84-3.41,16.51-5,34.64-12,48.56,1.57-13.53,4.33-27.51,2.21-41.65-1-6.32-7.84-4.54-7,1.71-8.19,59.53-36,108.77-72.44,132.73a100.53,100.53,0,0,1-54.24,16.06c-5.1.58-10.61-1.53-15.48,0-11.81,10.73-19,31.31-33.9,35C647,699.89,638.3,699,633.51,707a10.44,10.44,0,0,0-.49,3.69h0c3.56,5.53,6.05.43,9.38-.91,11.14-3.17,20.87-10.85,30.45-18.57,5.81-5.78,10.85-13.81,18.65-14.45,15.22-3.52,31.39.59,46.67-2.67,11.63-21,31.39-25.65,47.94-36.31,3.72-1.07,5.15-5.31,6.34-10,6.32-13.55,14.92-25.11,25.1-32.49,4.82-3.16,10.56-4.59,16-2.14A41.58,41.58,0,0,1,825,616.42c3.68.38,6.85-2.6,10.57-1.94,1.27,9.9-5.93,14.08-9.76,19.61,2.14,1,10.31,3,5.85,5.52-5.67,5-12.15,8.08-17.38,14,4.83,1.95,5.38,3.53.46,5.38-2.65,2.26-7.77,2.42-8.26,7.47,3.64,3.82-1.69,6.28-3.74,7-3.93.73-8.07,2.57-2.84,7.75-2,4.06-6.22,4.32-9.68,3.32,1.05,5.11,2.57,10.89-1.82,12.35-9.84,9.26-21.39,15.17-33.77,14.7,15.46,4.59,31.38,3.1,44.59-7.12,1.74-2.73,10.89-4.59,5.77-7.89-2.4-1.83-7.57-4.26-7.92-7,7.16-5.32,16.17-1.68,23.87-4.45.2-3.6-5.85-3.44-8.11-4.6-5.38-1.44-5.07-3.4.12-3.38,6.57-1.58,14-1.07,19.53-6.61-4.5-3.62-10.16-1.71-14.95-4.87,8.13-4,17.73-3.31,25-10.25,3.33-5-4.26-4.22-6.47-4.38-4.5.58-6.58-2.85-1.46-4.92,8.73-8.29,19.8-13.16,25.94-26.18,1.45-2.91,3.42-11.9-1.22-9.07-6.1,2.33-11.46,11.74-18.41,7.8,13.69-13.82,26.72-30.18,36.08-50.84C877.44,561.73,870.79,560.47,869.06,565.16Z" style="fill: #fec50c"/>
    <path d="M592.55,600.83c-27.76-34-49.07-80-58.56-129.22-1.66-7.33-2-15.48-3.87-22.38-2.27-3.17-5.74-2.48-6.1,1.95-1.6,13.39.8,27.74,2.43,41.53-7.38-17.47-9-37.44-12.67-56.3-1.23-3.56-.64-10.44-4.38-10.31-4.45-1-4.66,6.19-4.84,10.95.2,24.76,8.3,48.87,15.88,71.82-8.9-12.66-14.16-29.28-21.3-43.74-1.85-4.89-5.46-9.17-9.09-7.14-3.64,1.22-1.63,7.91-.41,11.62,6.79,20.6,16,39.68,25.76,58,.78,2.24,6.66,9.13,2.93,5.78-10.52-10.12-18.15-25.37-26.59-38.74-1.72-5-8.23-5.21-7.7.94,7.74,19.45,18.45,36.38,29.5,52.31,1.35,3.08,6.75,7.36,5.75,9.15-7.58.31-12.7-11.93-19.78-14.59-2.44.33.58,7.09,1.59,9.55,9.1,15.79,21.88,25.37,33.8,35.39-4.18,1.76-8.9-1.2-13.29-2-1.73.34-7.8-4.06-6.32.25,6.41,11.76,17.12,10.34,25.3,16.94-2,2.06-4.78,2-7.29,2.16-2,.82-6.87-1.11-7.17,1.63,4.66,5.57,10.74,5.83,16,9,5.25,1.54,2.94,2.65-.78,3.2-2,.86-5.56.26-6.51,2.53,6.17,6.85,13.83,9.07,20.84,12.57-3.38,1.45-7.15,1.28-10.4,3.1,7.42,5.5,14.72,11.49,22,17.65,14,12,28.82,21.84,44.17,26.48a120.64,120.64,0,0,1-15.54-9.63c-12.8-9.1-25.75-18.44-37.44-30.86,2.61-2.39,5.75-3.52,8.29-6.11-5.07-1.31-10.12-4.69-14.56-9.19-4.75-3.47.83-5.49,2.62-7.78-.35-2.68-4.89-4-6.91-5.9-3.2-.53-4.13-6.45-1.63-8.4,3.64-1.93-1.65-4.6-3.25-5.88-2.77-2.75.52-7.06-.81-9.9-6.53-2.83-11.87-10-16.85-16.85.92-1.23,5.66,0,8.07-.09a94.31,94.31,0,0,1-12.88-22.07c1.28-1.17,5.9.92,8.49,1-.52-9.47-4.33-18.58-8.14-26.63.38-2.37,4.59-1.39,6.27.69,3.09,4.66,2-3.53,4.47-3.93a111.62,111.62,0,0,1,7.83,10.51C551.93,548,559.23,572,572,589.85c6,8.68,13.43,13.95,20.85,18.49,8.12,8.81,14,21.39,21.32,31.66,6.91,10.81,16.63,14.13,25.56,16.77,10.82,3.12,23.19,5.42,31.72,18.59,2.83-4.63,4.13-11.07,6.33-16.45h0c-2.51-.76-5-1.41-7.52-2.26C642.54,648.31,615.41,628.64,592.55,600.83Z" style="fill: #fec50c"/>
    <path d="M642.6,709.81c-.82-.18-1.49.65-1.49,1.85a2.51,2.51,0,0,0,1.49,2.5c.82.18,1.49-.65,1.49-1.85A2.51,2.51,0,0,0,642.6,709.81Z" style="fill: #fec50c"/>
    <path d="M642.47,710.72c-.33-.07-.6.26-.6.76a1,1,0,0,0,.6,1c.34.07.61-.27.61-.76A1,1,0,0,0,642.47,710.72Z" style="fill: #fec50c"/>
    <path d="M642.47,710.54c-.4-.08-.73.32-.73.91a1.22,1.22,0,0,0,.73,1.22c.41.09.73-.32.73-.9A1.22,1.22,0,0,0,642.47,710.54Zm0,1.78a.83.83,0,0,1-.48-.82c0-.39.22-.66.48-.6a.81.81,0,0,1,.49.81C643,712.1,642.74,712.38,642.47,712.32Z" style="fill: #00afca"/>
    <path d="M75.6,115.85h0l3.43-7.8s-4.92-6.27-10.75-3.53c-4.49,2.1-9.09,8.52-9.09,16,0,9.89,11,30.06,11,41.26,0,8.39-4.2,14.72-9.76,17.19-6.17,2.73-10.86.95-10.86-7.53,0-9.19,3.2-14.56,7.14-16.77s5.65.93,5.65,3.77c0,3.27-1.38,4.67-2.9,5.41-3.39,1.67-2.06-6.76-2.06-6.76-2.08,2.78-3.51,5.67-2.23,8.89a8.89,8.89,0,0,0-4.11,4.84c.95,1.17,2.35,1.32,4.11.68-1,4.66.42,5.91,2.71,5.66a9.88,9.88,0,0,1-.32-6,3.94,3.94,0,0,0,3.33-.11c3.13-1.53,6.33-7.82,6.33-14.48,0-8.82-5.1-14.91-13.38-7.59,2.85-4.29,4-7.88,4.19-10.81-1.83,1.46-2.67,2.42-3.82,2.1,1.43-3.48,2.49-7.21,1.82-9.64-1.15,2.16-2.48,3.31-4,3.75,2.6-11.25-2-21.5-11.18-17.92,0,0,5.21,9,5.21,18.34,0,16.73-4.18,25.07-4.18,39.92,0,9.63,3.83,13.76,7.58,14.68-3.37,2.06-4.68,3.91-6.68,8.9,0,0,10.64-3.27,17.17-8.07,9.74-7.24,17.63-15.39,17.63-32.66,0-10.58-13.48-34.19-10.17-41.7C69.55,111.18,75.6,115.84,75.6,115.85Z" style="fill: #fec50c"/>
    <path d="M48.68,201.07l-.14.25a.66.66,0,0,0,.14,0Z" style="fill: #fec50c"/>
    <path d="M75.6,220.16c3.59-12.61,1.22-23.77,0-26.6s-5.37-7.62-11.32-5.78c-5.17-.53-14.8,4.25-21.42,10.55,1,2.22,2.87,3.3,5.68,3l.14-.25v.25a.66.66,0,0,1-.14,0,41.37,41.37,0,0,0-6.46,20.91c0,15,4.12,16.48,4.12,38.11,0,6.67-1.78,14.29-5.4,22.44,9.9-8.26,13.8-22.65,10.63-30.17,2-2.25,3.48-1.05,5-.79.06-5.06-1.32-6.57-2.31-8.63a8.07,8.07,0,0,1,3.26-.62c-.21-3.13-1.24-5.51-3.26-5.9,8.5-2.27,13-12.37,13-21.92s-5.84-9.36-9.64-5.87a11,11,0,0,1,.34-4.5,7.54,7.54,0,0,0-2.7,8.18,13.1,13.1,0,0,0-3.47,4.51,3.55,3.55,0,0,0,3.47,1.26c-.84,3.73.62,5.64,2.4,5.33,0,0-1-6.54,2.57-8.29,1.42-.69,2.4.12,2.4,3.1,0,4.28-1.66,7.56-5.83,9.63-3.39,1.68-6.68-.76-6.68-10,0-7.65,5.23-17.05,10-19.21,5.27-2.39,10.29,1.47,10.29,9a40.91,40.91,0,0,1-1.29,11.76c-7.79,27-27.81,98.14-27.81,98.27-2.48,8.86-3.47,14.34-3.47,22.2,0,13.9,6.46,20.84,18.6,14.77,9-4.54,20.47-19.29,20.47-37.92h0q-.63-36.07-1.27-72.15c-2.55,3.43-6.43,13-6.43,20,0,5.16,2.08,6.87,4,7.17-8,2.52-11.51,8.9-13.2,18.29,4.48-4.43,11.54-7.92,11.31-.35,0,0-.32,20-.43,25-1.82-2.92-4.94-2.47-8.91-.55-5.44,2.65-4.85-3-3.94-8.11-2.86,2.9-5.78,7.08-4.72,12.9-2.43,1.29-4,3.92-5.31,7a4.76,4.76,0,0,0,5.31,1.67c-.53,4.36,1.4,7.26,4.72,7.8C57,332,56.64,325.5,62,322.9c2.23-1.08,3.77.69,3.77,4.84,0,6.55-4.8,14.07-9.51,16.43-3.95,1.94-10.89,1.7-10.89-9.36a50.72,50.72,0,0,1,2-13.32C53.1,300.25,71.66,233.84,75.6,220.16Z" style="fill: #fec50c"/>
    <path d="M48.68,515.74l-.14.15.14.1Z" style="fill: #fec50c"/>
    <path d="M47.31,397a31,31,0,0,1-2-11.26c0-11.08,6.94-18.57,10.89-20.51,4.71-2.36,9.51.61,9.51,7.16,0,4.15-1.54,7.38-3.77,8.46-5.33,2.6-5-4.16-3.94-8.86-3.32,3.82-5.25,8.69-4.72,12.52-1.88,1.32-3.66,3.54-5.31,7.11,1.3,1.72,2.88,2.71,5.31,1.55-1.06,6.89,1.85,8.1,4.72,8.18-.91-4.21-1.5-9.32,3.94-12,4-1.92,7.09-4.38,8.91-9,.11,5,.43,24.65.43,24.65.23,7.33-6.83,10.4-11.31,10.4,1.69,7.76,5.16,10.66,13.2,5.8a15.76,15.76,0,0,0-4,10.89c0,7,3.88,12.92,6.43,14.07q.63-36.66,1.27-73.3h0c0-18.67-11.46-23.09-20.47-18.55-12.14,6.07-18.6,20.33-18.6,34.17A43.18,43.18,0,0,0,41.27,407c0-.13,20,50.31,27.81,70.37,1,2.48,1.29,5.68,1.29,10.57,0,7.56-5,16.06-10.29,18.83-4.79,2.51-10-1.51-10-9.15,0-9.29,3.29-15.13,6.68-16.81,4.17-2.07,5.83-.35,5.83,3.92,0,3-1,4.74-2.4,5.43-3.57,1.76-2.57-5.75-2.57-5.76a8,8,0,0,0-2.4,7.72,13.4,13.4,0,0,0-3.47,4.77,3.57,3.57,0,0,0,3.47,1c-.84,4.46.28,5.87,2.7,5.5a8.82,8.82,0,0,1-.34-4.16c3.8-.32,9.64-5.6,9.64-15.2s-4.53-15.48-13-9.21a16,16,0,0,0,3.26-9.15,16.28,16.28,0,0,1-3.26,2.63c1-3.06,2.37-5.95,2.31-10.95-1.57,1.83-3,4.5-5,4.31,3.17-10.69-.73-21.35-10.63-19,3.62,4.25,5.4,10,5.4,16.7,0,21.61-4.12,27.42-4.12,42.46,0,6.22,2.17,11.73,6.46,14.12l.14-.15V516l-.14-.1a20.32,20.32,0,0,0-5.68,9c6.62-.82,16.25-5.69,21.42-11.11,6-3.84,10.1-12.37,11.32-16.3s3.59-17.21,0-26.6C71.66,460.44,53.1,411.9,47.31,397Z" style="fill: #fec50c"/>
    <path d="M99.09,113.19c-1.47.89-2.8.94-4-.18A10.44,10.44,0,0,0,97,121c-1.15,1.36-2,1.16-3.82,1.35a8.34,8.34,0,0,0,4.19,7C89.05,129.55,84,140.24,84,149.05c0,6.67,3.2,10.07,6.33,8.77a8.87,8.87,0,0,0,3.33-2.89c.59,1.59.29,4.17-.32,6.25A7.16,7.16,0,0,0,96,153.07a9.29,9.29,0,0,0,4.11-4.4A3.07,3.07,0,0,0,96,147.55c1.28-4.38-.15-6-2.23-6.88,0,0,1.33,7.24-2.06,8.63-1.52.62-2.9.48-2.9-2.79,0-2.84,1.7-7.52,5.65-8.88s7.14,1.13,7.14,10.32a18.45,18.45,0,0,1-10.86,17.34c-5.56,2.56-9.76,0-9.76-8.37,0-11.2,11-41.32,11-51.22,0-7.46-4.6-9.74-9.09-7.78-5.83,2.52-10.75,13.22-10.75,13.22l3.43,4.71h0s6.05-10.14,8.11-7.28c3.31,4.53-10.17,40.3-10.17,50.88,0,17.26,7.89,18.31,17.63,16.75,6.53-1.1,17.17-7.49,17.17-7.46-2-3.18-3.31-3.85-6.68-2.85a33.37,33.37,0,0,0,7.58-21.55c0-14.85-4.18-19.4-4.18-36.13,0-9.29,5.21-23.07,5.21-23.06C101.05,89.92,96.49,104.29,99.09,113.19Z" style="fill: #fec50c"/>
    <path d="M102.52,177l.14-.13-.14-.12Z" style="fill: #fec50c"/>
    <path d="M82.12,213.76c-1-2.51-1.29-5.71-1.29-10.6,0-7.56,5-15.95,10.29-18.31,4.79-2.18,10,2.49,10,10.14,0,9.28-3.29,14.71-6.68,16.09-4.17,1.7-5.83-.09-5.83-4.37,0-3,1-4.68,2.4-5.27,3.57-1.47,2.57,6,2.57,6a7.4,7.4,0,0,0,2.4-7.5,11.53,11.53,0,0,0,3.47-4.39A3.89,3.89,0,0,0,96,194.14c.84-4.37-.28-5.9-2.7-5.74a9,9,0,0,1,.34,4.19c-3.8,0-9.64,5-9.64,14.58s4.53,15.57,13,10.15a14.63,14.63,0,0,0-3.26,8.84A14,14,0,0,1,97,223.84c-1,3-2.37,5.72-2.31,10.72,1.57-1.68,3-4.21,5-3.78-3.17,10.39.73,21.27,10.63,20.54a28.86,28.86,0,0,1-5.4-17.55c0-21.62,4.12-26.8,4.12-41.83,0-6.2-2.17-12.11-6.46-15.06l-.14.13v-.25l.14.12a17,17,0,0,0,5.68-8.14c-6.62-.29-16.25,3.64-21.42,8.83-6,3.52-10.1,12.06-11.32,16s-3.59,17.23,0,26.6c3.94,10.13,22.5,59.79,28.29,75.77a33.16,33.16,0,0,1,2,11.55c0,11-6.94,17.58-10.89,19.2-4.71,1.9-9.51-1.28-9.51-7.83,0-4.15,1.54-7.32,3.77-8.25,5.33-2.21,5,4.56,3.94,9.16,3.32-3.53,5.25-8.18,4.72-12.07,1.88-1.12,3.66-3.12,5.31-6.47-1.3-1.89-2.88-3.09-5.31-2.18,1.06-6.79-1.85-8.32-4.72-8.64.91,4.3,1.5,9.41-3.94,11.67-4,1.66-7.09,4-8.91,8.59-.11-5-.43-24.65-.43-24.65-.23-7.36,6.83-10.24,11.31-9.86C89.51,268.29,86,265,78,269.78A15.5,15.5,0,0,0,82,259c0-7-3.88-13-6.43-14.16q-.63,36.65-1.27,73.3h0c0,18.63,11.46,23,20.47,19.44,12.14-4.9,18.6-17.72,18.6-31.62a47.37,47.37,0,0,0-3.47-19.05C109.93,286.76,89.91,233.72,82.12,213.76Z" style="fill: #fec50c"/>
    <path d="M102.52,491.68c0-.07.09-.15.14-.23l-.14,0Z" style="fill: #fec50c"/>
    <path d="M109.93,375.94c2.48-8.45,3.47-13.73,3.47-21.6,0-13.84-6.46-22.22-18.6-17.32-9,3.6-20.47,18.35-20.47,37h0q.63,36.07,1.27,72.15c2.55-3.44,6.43-12.88,6.43-19.86,0-5.16-2.08-6.94-4-7.26,8-2.38,11.51-8.42,13.2-17.71-4.48,4.05-11.54,7.35-11.31-.19,0,0,.32-20,.43-25,1.82,3,4.94,2.6,8.91.94,5.44-2.26,4.85,3.38,3.94,8.41C96,382.82,99,379,97.89,373c2.43-1,4-3.45,5.31-6.35-1.65-2.07-3.43-2.68-5.31-2.3.53-4.31-1.4-7.44-4.72-8.26,1.07,3.74,1.39,10.2-3.94,12.42-2.23.93-3.77-.9-3.77-5.06,0-6.55,4.8-13.85,9.51-15.75,4-1.62,10.89-.42,10.89,10.66a47.39,47.39,0,0,1-2,13.05C98.1,391.6,79.54,456.89,75.6,470.84c-3.59,12.63-1.22,23.77,0,26.6s5.37,7.61,11.32,6.09c5.17.75,14.8-3.07,21.42-8.27a5.91,5.91,0,0,0-5.68-3.81c0,.08-.09.16-.14.23v-.25l.14,0a36.79,36.79,0,0,0,6.46-20c0-15-4.12-17.11-4.12-38.73a50.58,50.58,0,0,1,5.4-21.6C100.5,417.8,96.6,432,99.77,439.8c-2,2-3.48.67-5,.27-.06,5,1.32,6.69,2.31,8.85a8,8,0,0,1-3.26.31c.21,3.15,1.24,5.61,3.26,6.22-8.5,1.4-13,11.45-13,21s5.84,9.61,9.64,6.49a10.79,10.79,0,0,1-.34,4.47c2.42-1.82,3.54-4.23,2.7-7.93a11.42,11.42,0,0,0,3.47-4.15A3.9,3.9,0,0,0,96,473.68c.84-3.65-.62-5.71-2.4-5.56,0,0,1,6.62-2.57,8.09-1.42.59-2.4-.29-2.4-3.27,0-4.27,1.66-7.48,5.83-9.18,3.39-1.38,6.68,1.48,6.68,10.76,0,7.64-5.23,16.4-10,18.22-5.27,2-10.29-2-10.29-9.55a40.56,40.56,0,0,1,1.29-11.73C89.91,444.38,109.93,375.82,109.93,375.94Z" style="fill: #fec50c"/>
    <path d="M75.6,901.68s-6,10.18-8.11,7.44c-3.31-4.48,10.17-40.58,10.17-51,0-17.25-7.89-18.48-17.63-16.17-6.53,1.49-17.17,9.43-17.17,9.46,2,2.86,3.31,3.33,6.68,1.9A37.84,37.84,0,0,0,42,875.92c0,14.84,4.18,18.75,4.18,35.49,0,9.28-5.21,23.86-5.21,23.87,9.22-6.27,13.78-20.95,11.18-29.61,1.47-1.06,2.8-1.25,4-.23a9.81,9.81,0,0,0-1.82-7.82c1.15-1.47,2-1.36,3.82-1.71a7.41,7.41,0,0,0-4.19-6.62c8.28-1,13.38-11.81,13.38-20.65,0-6.66-3.2-9.94-6.33-8.41a9.76,9.76,0,0,0-3.33,3.16c-.59-1.55-.29-4.15.32-6.29-2.29,2-3.75,4.74-2.71,8.36a10.72,10.72,0,0,0-4.11,4.85c1,1.31,2.43,1.6,4.11.67-1.28,4.51.15,5.95,2.23,6.67,0,0-1.33-7.13,2.06-8.79,1.52-.75,2.9-.69,2.9,2.58,0,2.85-1.7,7.61-5.65,9.31s-7.14-.35-7.14-9.54a20.62,20.62,0,0,1,10.86-18.42c5.56-3,9.76-.49,9.76,7.89,0,11.11-11,41.81-11,51.8,0,7.46,4.6,9.36,9.09,7.26C74.11,917,79,906.42,79,906.42q-1.71-2.38-3.43-4.74Z" style="fill: #fec50c"/>
    <path d="M47.31,723.53a31.12,31.12,0,0,1-2-11.27c0-11.08,6.94-18.56,10.89-20.51,4.71-2.35,9.51.62,9.51,7.17,0,4.15-1.54,7.38-3.77,8.46-5.33,2.59-5-4.16-3.94-8.87-3.32,3.82-5.25,8.7-4.72,12.52-1.88,1.33-3.66,3.55-5.31,7.12,1.3,1.72,2.88,2.71,5.31,1.54-1.06,6.9,1.85,8.11,4.72,8.18-.91-4.21-1.5-9.31,3.94-12,4-1.92,7.09-4.38,8.91-9,.11,5,.43,24.65.43,24.65C71.54,738.9,64.48,742,60,742c1.69,7.77,5.16,10.67,13.2,5.8a15.81,15.81,0,0,0-4,10.9c0,7,3.88,12.92,6.43,14.06q.63-36.65,1.27-73.3h0c0-18.67-11.46-23.08-20.47-18.55C44.26,687,37.8,701.2,37.8,715.05a43.16,43.16,0,0,0,3.47,18.44c0-.12,20,50.32,27.81,70.38,1,2.48,1.29,5.67,1.29,10.57,0,7.56-5,16-10.29,18.82-4.79,2.52-10-1.5-10-9.14,0-9.29,3.29-15.13,6.68-16.81,4.17-2.07,5.83-.35,5.83,3.92,0,3-1,4.74-2.4,5.43-3.57,1.76-2.57-5.76-2.57-5.76a8,8,0,0,0-2.4,7.72,13.22,13.22,0,0,0-3.47,4.77,3.62,3.62,0,0,0,3.47,1c-.84,4.46.28,5.86,2.7,5.49a8.79,8.79,0,0,1-.34-4.15c3.8-.32,9.64-5.61,9.64-15.2s-4.53-15.48-13-9.21a16,16,0,0,0,3.26-9.16,16.28,16.28,0,0,1-3.26,2.63c1-3.06,2.37-5.95,2.31-10.94-1.57,1.83-3,4.5-5,4.3,3.17-10.68-.73-21.35-10.63-19,3.62,4.26,5.4,10,5.4,16.71,0,21.61-4.12,27.42-4.12,42.46,0,6.21,2.17,11.73,6.46,14.12l.14-.15v.25l-.14-.1a20.29,20.29,0,0,0-5.68,9c6.62-.81,16.25-5.68,21.42-11.1,6-3.85,10.1-12.37,11.32-16.3s3.59-17.21,0-26.6C71.66,787,53.1,738.43,47.31,723.53Z" style="fill: #fec50c"/>
    <path d="M48.68,842.27l-.14.15.14.1Z" style="fill: #fec50c"/>
    <path d="M48.68,527.6l-.14.25h.14Z" style="fill: #fec50c"/>
    <path d="M75.6,546.69c3.59-12.62,1.22-23.77,0-26.6s-5.37-7.62-11.32-5.78c-5.17-.53-14.8,4.24-21.42,10.54,1,2.23,2.87,3.31,5.68,3l.14-.25v.25h-.14a41.35,41.35,0,0,0-6.46,20.91c0,15,4.12,16.48,4.12,38.1,0,6.67-1.78,14.29-5.4,22.44,9.9-8.25,13.8-22.64,10.63-30.16,2-2.26,3.48-1.06,5-.8.06-5.05-1.32-6.57-2.31-8.62a8.18,8.18,0,0,1,3.26-.63c-.21-3.12-1.24-5.5-3.26-5.9,8.5-2.26,13-12.36,13-21.91s-5.84-9.36-9.64-5.88a11,11,0,0,1,.34-4.5,7.56,7.56,0,0,0-2.7,8.19,13.1,13.1,0,0,0-3.47,4.51,3.55,3.55,0,0,0,3.47,1.26c-.84,3.72.62,5.64,2.4,5.33,0,0-1-6.54,2.57-8.3,1.42-.69,2.4.13,2.4,3.1,0,4.28-1.66,7.57-5.83,9.64-3.39,1.68-6.68-.76-6.68-10,0-7.65,5.23-17,10-19.21,5.27-2.39,10.29,1.47,10.29,9a40.94,40.94,0,0,1-1.29,11.77c-7.79,27-27.81,98.14-27.81,98.27-2.48,8.86-3.47,14.33-3.47,22.2,0,13.9,6.46,20.84,18.6,14.76,9-4.53,20.47-19.28,20.47-37.91h0q-.63-36.07-1.27-72.16c-2.55,3.44-6.43,13-6.43,20,0,5.16,2.08,6.87,4,7.17-8,2.51-11.51,8.89-13.2,18.29,4.48-4.43,11.54-7.92,11.31-.36,0,0-.32,20-.43,25-1.82-2.92-4.94-2.47-8.91-.54-5.44,2.65-4.85-3-3.94-8.11-2.86,2.9-5.78,7.07-4.72,12.89-2.43,1.3-4,3.93-5.31,7a4.74,4.74,0,0,0,5.31,1.67c-.53,4.37,1.4,7.27,4.72,7.81C57,658.51,56.64,652,62,649.43c2.23-1.08,3.77.69,3.77,4.84,0,6.55-4.8,14.07-9.51,16.42-3.95,1.95-10.89,1.71-10.89-9.35a50.79,50.79,0,0,1,2-13.33C53.1,626.78,71.66,560.37,75.6,546.69Z" style="fill: #fec50c"/>
    <path d="M109.24,845.52c0-9.63-3.83-14.39-7.58-15.77,3.37-1.63,4.68-3.27,6.68-8,0,0-10.64,1.67-17.17,6.08C81.43,834.36,73.54,842.7,73.54,860c0,10.45,13.48,34.39,10.17,41.85-2.06,4.6-8.11-.14-8.11-.12h0c-1.15,2.61-2.29,5.21-3.43,7.83,0,0,4.92,6.15,10.75,3.63,4.49-1.95,9.09-8,9.09-15.47,0-10-11-30.73-11-41.84,0-8.38,4.2-14.64,9.76-16.7,6.17-2.29,10.86.12,10.86,8.6,0,9.19-3.2,14.15-7.14,16s-5.65-1.36-5.65-4.21c0-3.27,1.38-4.58,2.9-5.21,3.39-1.38,2.06,6.94,2.06,6.94,2.08-2.6,3.51-5.33,2.23-8.68a7.75,7.75,0,0,0,4.11-4.4c-1-1.28-2.35-1.6-4.11-1.12,1-4.56-.42-6-2.71-5.91a10,10,0,0,1,.32,6,3.9,3.9,0,0,0-3.33-.15c-3.13,1.3-6.33,7.46-6.33,14.13,0,8.84,5.1,15,13.38,8.56-2.85,4-4,7.5-4.19,10.41,1.83-1.3,2.67-2.18,3.82-1.74-1.43,3.33-2.49,7-1.82,9.46,1.15-2,2.48-3.07,4-3.34-2.6,11,2,21.57,11.18,19.49,0,0-5.21-9.87-5.21-19.15C105.06,868.06,109.24,860.36,109.24,845.52Z" style="fill: #fec50c"/>
    <path d="M102.52,818.21c0-.08.09-.16.14-.23l-.14,0Z" style="fill: #fec50c"/>
    <path d="M109.93,702.47c2.48-8.45,3.47-13.74,3.47-21.6,0-13.85-6.46-22.22-18.6-17.33-9,3.61-20.47,18.36-20.47,37h0q.63,36.07,1.27,72.15c2.55-3.44,6.43-12.88,6.43-19.86,0-5.17-2.08-6.94-4-7.26,8-2.39,11.51-8.42,13.2-17.72-4.48,4.06-11.54,7.36-11.31-.18,0,0,.32-20,.43-25,1.82,3,4.94,2.61,8.91,1,5.44-2.26,4.85,3.37,3.94,8.4,2.87-2.66,5.78-6.5,4.72-12.44,2.43-1,4-3.45,5.31-6.35-1.65-2.08-3.43-2.68-5.31-2.31.53-4.3-1.4-7.44-4.72-8.26,1.07,3.75,1.39,10.21-3.94,12.43-2.23.93-3.77-.91-3.77-5.06,0-6.55,4.8-13.85,9.51-15.75,4-1.62,10.89-.42,10.89,10.66a47.45,47.45,0,0,1-2,13.05c-5.79,20.15-24.35,85.44-28.29,99.39C72,810,74.38,821.14,75.6,824s5.37,7.61,11.32,6.09c5.17.75,14.8-3.08,21.42-8.27a5.89,5.89,0,0,0-5.68-3.81c0,.07-.09.15-.14.23V818l.14,0a36.82,36.82,0,0,0,6.46-20c0-15-4.12-17.12-4.12-38.73a50.51,50.51,0,0,1,5.4-21.6c-9.9,6.65-13.8,20.82-10.63,28.65-2,2-3.48.67-5,.26-.06,5,1.32,6.7,2.31,8.86a8,8,0,0,1-3.26.31C94,778.91,95,781.37,97,782c-8.5,1.41-13,11.45-13,21s5.84,9.61,9.64,6.49a10.8,10.8,0,0,1-.34,4.47c2.42-1.82,3.54-4.23,2.7-7.94a11.3,11.3,0,0,0,3.47-4.14A3.89,3.89,0,0,0,96,800.2c.84-3.64-.62-5.71-2.4-5.55,0,0,1,6.61-2.57,8.09-1.42.58-2.4-.29-2.4-3.27,0-4.27,1.66-7.49,5.83-9.18,3.39-1.38,6.68,1.47,6.68,10.76,0,7.64-5.23,16.39-10,18.21-5.27,2-10.29-2-10.29-9.54A40.52,40.52,0,0,1,82.12,798C89.91,770.91,109.93,702.35,109.93,702.47Z" style="fill: #fec50c"/>
    <path d="M102.52,503.54l.14-.14-.14-.11Z" style="fill: #fec50c"/>
    <path d="M82.12,540.29c-1-2.51-1.29-5.71-1.29-10.61,0-7.56,5-15.94,10.29-18.31,4.79-2.17,10,2.5,10,10.15,0,9.28-3.29,14.71-6.68,16.09-4.17,1.69-5.83-.1-5.83-4.37,0-3,1-4.68,2.4-5.27,3.57-1.47,2.57,6,2.57,6a7.4,7.4,0,0,0,2.4-7.5,11.53,11.53,0,0,0,3.47-4.39A3.89,3.89,0,0,0,96,520.67c.84-4.37-.28-5.9-2.7-5.74a9,9,0,0,1,.34,4.19c-3.8,0-9.64,5-9.64,14.58s4.53,15.57,13,10.15a14.63,14.63,0,0,0-3.26,8.84A13.6,13.6,0,0,1,97,550.37c-1,3-2.37,5.72-2.31,10.72,1.57-1.68,3-4.21,5-3.78-3.17,10.39.73,21.26,10.63,20.54A28.9,28.9,0,0,1,105,560.3c0-21.62,4.12-26.81,4.12-41.83,0-6.21-2.17-12.11-6.46-15.07l-.14.14v-.25l.14.11a16.92,16.92,0,0,0,5.68-8.13c-6.62-.29-16.25,3.63-21.42,8.82-6,3.53-10.1,12.07-11.32,16s-3.59,17.23,0,26.6c3.94,10.13,22.5,59.79,28.29,75.77a33.1,33.1,0,0,1,2,11.54c0,11.06-6.94,17.59-10.89,19.21-4.71,1.9-9.51-1.29-9.51-7.84,0-4.15,1.54-7.31,3.77-8.24,5.33-2.22,5,4.56,3.94,9.16,3.32-3.54,5.25-8.18,4.72-12.07,1.88-1.12,3.66-3.12,5.31-6.48-1.3-1.89-2.88-3.08-5.31-2.18,1.06-6.78-1.85-8.32-4.72-8.63.91,4.3,1.5,9.4-3.94,11.67-4,1.66-7.09,4-8.91,8.59-.11-5-.43-24.66-.43-24.66-.23-7.36,6.83-10.23,11.31-9.85C89.51,594.81,86,591.57,78,596.3a15.47,15.47,0,0,0,4-10.8c0-7-3.88-13-6.43-14.17Q75,608,74.33,644.64h0c0,18.62,11.46,23,20.47,19.43,12.14-4.89,18.6-17.71,18.6-31.61a47.34,47.34,0,0,0-3.47-19.05C109.93,613.29,89.91,560.24,82.12,540.29Z" style="fill: #fec50c"/>
  </g>
</svg>
