<svg xmlns="http://www.w3.org/2000/svg" viewBox="0 0 1260 1012.04">
  <g>
    <path d="M0,90.08v920C420,738.76,840,1193.28,1260,922V2C840,273.28,420-181.24,0,90.08Z" style="fill: #ed1c24"/>
    <path d="M0,780.08C420,508.76,840,963.28,1260,692V232C840,503.28,420,48.76,0,320.08Z" style="fill: #fff"/>
    <path d="M835.68,675.62c-19.22-23.62-45.49-38-67.73-58.54-7-3.19-8.28-15.76-1.8-18.17,8.51-5.25,20.55-.06,28.1,8.11,6.37,5.11,13.56,9.27,21,10.35,7.66-1.54,3.94-14.2-2.92-16.1-12.43-9.51-21.33-23.56-32.1-35.36-6.2-6.8-13-13.8-21.32-16.44a57.34,57.34,0,0,0-13.83-3.33c-4.33-6,1.44-12.76,7-11.08,5.74,1.49,11.45,3,17.19,3.13,6.4.61,12.81,1,19.24,2,5.19,4.74,15.57-.35,10.88-7.75-5.12-5.71-12.52-6.48-18.64-10q-16.11-8.52-32.75-15.28c-7.75-2-6.79-13,0-12.9,4.45-1,8.32,3.48,12.6,4.83,7.31,3,14.85,4.34,22.15,7.3,6.19-2.32,1.41-13-4.19-14.54-13.22-7.42-24.64-18.86-35.8-30.06-12.33-12.51-23.51-26.48-36-39-4.52-4-11.94-6.43-13.13-13.49-.42-6.35,6.31-7.8,11.08-5.35,6.77,3.58,13.08,8.67,20,11.92,5.42,2.08,11,4.92,16.22,5.17,6.62-3.29-2.84-8-6.27-10.26-8.83-6.93-16.68-15.46-24.63-23.71-6.72-7.65,5.7-7.88,10-4.62,7.14,4.7,7.95-6.54,2.62-10.46-6.29-4.19-11.7-10.15-17.4-15.56-10.31-10.15-22-19-34.64-23.45-14.2-4.61-27.45-16.45-35-31.39-4.67-8.59-8.1-17.72-11.41-26.81-9,18.83-26,29.66-42.22,40-2.67,2-9.31,5.52-4.49,10.31,4.12-4.18,15.45,4.93,8.87,9-5.9,4.78-14,5.27-20.56,8.89-5.8,2.24-11.67,4.63-16.27,9-.31,8.18,9.34,5.6,13.26,9.85,5.1,7-2.16,15.59-8.86,11.91-8.56-1.47-14.48,5.6-17.72,12.83-6.69,10-19.39,10.89-29.49,15.49A143.57,143.57,0,0,0,490,411c-6.94,4-.9,15.31,6.49,14.11,8,.56,15.14-5,23.39-1.41,7.48,4.32,9.58,15.45,7,22.43-1.89,5.62-6.46,8.95-10.13,12.93-5.95,5.47-13.74,8.31-21.95,8.89a34.32,34.32,0,0,0-20.27,11.94c-6.05,5.67-12.06,11.47-19,16-2.19,5.8,4,12,9.16,12.61,10.87,1,18.41-7.48,27.67-10.86,7.69-2.43,16.73,8.33,14.85,16.75-.59,8.42-7.89,11.4-14.37,12.88-19.06,7.12-35.61,19.73-50.31,34.44-3,6.35-11.39,3.21-15.89,7.38-2.93,5.61,4.42,9.71,8.81,9.7,18.86.07,36.46-5.83,53.13-12.53,6.2-2.16,12-5.38,18.46-6.78,6.06-.52,14.5,4,15.58,11.74,0,8-7.21,11-12.92,13-17.6,6.83-36.91,9.09-55.72,13-7-3.22-12.35,9.75-4.62,13.34,8.17,4.27,16.85,3.17,25.21,4.15,25.83,0,48.43-11,72.58-16,10-1.55,21.89,5.94,26.85,17.29,5,10.24,4.52,22.22-.73,30-8.3,17.7-20.92,32.91-37.86,40.73-10.63,3.64-23,3.48-32.15,10.64-8.43,1.51,4.23,16.28,6,6.74,5.07-6.63,14-7.19,22.1-5.9,12.18.94,25.11,1.14,34.57-6.11,8.48-5.44,16.84-13.62,28.35-11.29,6.37,2.19,12.66,9.16,19.13,7.15,5.65-1.61,14.52,2,16,9.93,2.7,9.5,11.09,15.38,17.74,21.59,2.4,4.23,10.4,15.51,12.24,7.49-1.48-6.32.64-15,7.83-11.49,6.28,1.65,12.27,5.47,18.54,7.21,8.34,3.66,15.31,11.36,20,19.89,3.26,5.61,10.4,15.54,15.71,10.05,3.29-6.1-3-13-8.11-16.45-7.47-6.58-13.85-14.65-20.37-22.4-9.62-11.85-17.92-26.14-19.45-41.16-2.07-15.1-1-29.81.77-44.05,2.19-8.93,13.18-11.73,20.86-5.13,10.8,7.65,21.54,17.58,33.93,19.18,17.9,3.95,36.3,3.59,53.79,12.19,17,8.7,29.2,26.28,45.79,35.31a6.08,6.08,0,0,0,9.82-3A10,10,0,0,0,835.68,675.62ZM542.35,509.23c-7.2,1-14.24,3.59-22,1.57-5.8-4.75-7.89-12.57-10-19.44,5.61-4.71,13.85-1.45,20.8-1.52,2.34.33,4.69.74,7,1.19,5.17-.63,12.71,2.65,14.13,9.44C553,506.7,546.84,508.62,542.35,509.23Zm-3-73.05c-5.37-4.77-10.07-13.28-7.26-19.77,1.74-2.46,5.2-2.92,8.12-1.46,7,2.47,11.63,10.42,14.24,17.62C555.09,440.83,544.14,443.05,539.36,436.18Zm55.13-55.67c5.11,6.44,2.09,16.07-4.22,17.18-4.54,1.79-10.74,7-15.7.58-2.68-7.15,4.06-10.68,8-13.49C586.14,382.52,590.05,380.62,594.49,380.51ZM577.64,352c7.32,1.8,6.19,16-1,13.51C569.63,363.49,570.06,348.8,577.64,352ZM560,427.7c-3.29-6.8,2-16,8.92-12.13,6.2-2.4,12.8,10.13,7.52,13.91C572.89,434.37,563.91,434.78,560,427.7Zm8.21,142.89c-4.41-6.77-4.38-14.71-6.09-22.07-.08-1.57,1-3.37,2.58-2.84,6.94.7,13.3,9.59,12.39,16.89C582.06,569.05,573.17,577.25,568.16,570.59Zm21.26-83.84c-5.21,2.9-12-8.27-7.62-12.07C587,471.74,593.77,483.08,589.42,486.75Zm12.39,91.52c-7.18-.85-10.9-11-9.8-17.33C599.2,560.68,605.8,572.32,601.81,578.27Zm44.86-203.59c7.12.15,8.63,14.71,1.51,13.84C640.77,388.36,638,371.9,646.67,374.68Zm-22.28,57.73c-7.15-2.48-7-16.23.87-13.27a11,11,0,0,0,4.41.19C636.52,424.34,631.29,435.72,624.39,432.41Zm-8.91-59.16c3.75,0,7.21-1.13,11-1.12,7.22,3.13,5.94,16.63-1.35,15.16-5.33.13-11.08,2.87-16.47-1.29C604.24,380,610.58,373.83,615.48,373.25Zm-2.76,114.28c-6.36-2.67-4.91-14.4,1.59-12.3C620.72,477.51,618.64,489.23,612.72,487.53Zm17.76,90.63c-2.79,5.88-13.67,1.33-13.31-6.1,0-3.59-.28-7.33.76-10.59C625.1,559.63,634.38,571.06,630.48,578.16Zm-2-75.21c-2.22-6.45-.18-13.69,5-15.89,6.06,5.36,9.65,13.66,10.41,21.41C641,514.93,629.78,510.77,628.52,503Zm21.49,9c-2.16-3.29-1-7.67,1.52-9.2C659.33,502.27,656.53,519.53,650,511.92Zm-1.53-72.58c-6.6-3.27-5.74-15.48.91-15a13.18,13.18,0,0,0,3.52-1.36C660.24,428.33,656.52,442,648.48,439.34Zm55.2,45.38a7.84,7.84,0,0,1,7.91-3.93c7.64-.66,13.19,13.82,6.63,17.35C712.22,502.91,700.55,492.59,703.68,484.72ZM666.45,382.27a15.14,15.14,0,0,1,6.53,0c7,4.27,4.51,17.2-2.83,15.45C663.21,397.26,660,383.88,666.45,382.27Zm9.89,73.87c-6.81-1.82-11.39-14-5.32-17.46,2.5-1.53,5.67-1.71,8.75-1.33,7.51-1,16.55,9.41,14.11,17.49C690.54,460.8,682.26,459.9,676.34,456.14Zm45.79,115.15c-6.9,7.34-20.2,6.23-28.46-2.82-1-7.91,6-12,12.28-11.85,2.62-.28,5.23-1,8-.25C720.56,554.17,727.65,567,722.13,571.29Zm37,18.94c-5.07,7.45-17.14,7.38-24.05-.82-2.69-7.46,2.77-13.62,8.58-14.74,2.5-.69,4.87-1.74,7.42-2.28C758.53,572.38,764.43,585.14,759.08,590.23Z" style="fill: #00a651"/>
  </g>
</svg>
