<svg xmlns="http://www.w3.org/2000/svg" viewBox="0 0 1260 1012.04">
  <g>
    <path d="M0,90.08v920C420,738.76,840,1193.28,1260,922V2C840,273.28,420-181.24,0,90.08Z" style="fill: #6cf"/>
    <path d="M420,847.21c70-5.77,140-4.81,210-3.85,70,29.57,140,59.15,210,82-70-261-140-528.79-210-796.55C560,366,490,603.27,420,847.21Z" style="fill: #fff"/>
    <path d="M448.35,851c60.55-5.45,121.1-6.56,181.65-7.66,60.55,27.51,121.1,55,181.65,78.2C751.1,694,690.55,462,630,230,569.45,435.57,508.9,641.12,448.35,851Z"/>
    <path d="M420,847.21c140,17.09,280,61.07,420,78.16C770,790.07,700,648,630,506,560,617.51,490,729,420,847.21Z" style="fill: #fcd116"/>
  </g>
</svg>
