<svg xmlns="http://www.w3.org/2000/svg" viewBox="0 0 1260 1012.04">
  <g>
    <path d="M0,90.08v920C420,738.76,840,1193.28,1260,922V2C840,273.28,420-181.24,0,90.08Z" style="fill: #002b7f"/>
    <path d="M0,1010.08C420,738.76,840,1193.28,1260,922V462C840,733.28,420,278.76,0,550.08Z" style="fill: #ce1126"/>
    <path d="M172.46,229.32c0,26.75,8.12,44.54,17.95,65.81a592.37,592.37,0,0,1,79.91-10.45q1.15-48,2.32-96c-18.53-4-42.78-10.55-64.86-6.74C186.93,185.53,172.46,207,172.46,229.32Z" style="fill: #ffd83d"/>
    <path d="M182,205.47v55.32" style="fill: #ffd83d"/>
    <path d="M182,204.32a1.4,1.4,0,0,0-.94,1.36V261c0,.63.42,1.05.94.94a1.39,1.39,0,0,0,1-1.36V205.27C183,204.63,182.54,204.21,182,204.32Z"/>
    <path d="M188.43,198.46v73.66" style="fill: #ffd83d"/>
    <path d="M188.43,197.31a1.37,1.37,0,0,0-.94,1.35v73.65c0,.64.42,1.06.94,1a1.38,1.38,0,0,0,.95-1.35V198.27C189.38,197.63,189,197.21,188.43,197.31Z"/>
    <path d="M194.85,193.3v87.75" style="fill: #ffd83d"/>
    <path d="M194.85,192.15a1.35,1.35,0,0,0-.94,1.34v87.74c0,.64.42,1.07.94,1a1.35,1.35,0,0,0,1-1.33V193.12C195.8,192.49,195.37,192.05,194.85,192.15Z"/>
    <path d="M201.27,190.28V259.1" style="fill: #ffd83d"/>
    <path d="M201.27,189.14a1.32,1.32,0,0,0-1,1.32v68.82c0,.63.43,1.07,1,1a1.31,1.31,0,0,0,.94-1.32V190.11C202.21,189.48,201.79,189,201.27,189.14Z"/>
    <path d="M207.69,188.81v69.5" style="fill: #ffd83d"/>
    <path d="M207.69,187.66a1.31,1.31,0,0,0-.95,1.32v69.5c0,.63.42,1.07.95,1a1.29,1.29,0,0,0,.94-1.31v-69.5C208.63,188,208.21,187.57,207.69,187.66Z"/>
    <path d="M214.1,185.33v71.89" style="fill: #ffd83d"/>
    <path d="M214.1,184.18a1.29,1.29,0,0,0-.94,1.3v71.89c0,.64.42,1.08.94,1a1.28,1.28,0,0,0,1-1.3V185.18C215.05,184.55,214.63,184.1,214.1,184.18Z"/>
    <path d="M220.52,184.35v71.89" style="fill: #ffd83d"/>
    <path d="M220.52,183.2a1.28,1.28,0,0,0-.94,1.29v71.89c0,.64.42,1.09.94,1a1.27,1.27,0,0,0,.95-1.29V184.21C221.47,183.58,221,183.12,220.52,183.2Z"/>
    <path d="M226.94,184.15V256" style="fill: #ffd83d"/>
    <path d="M226.94,183a1.26,1.26,0,0,0-.95,1.28v71.89c0,.63.43,1.09.95,1a1.25,1.25,0,0,0,.94-1.28V184C227.88,183.39,227.46,182.93,226.94,183Z"/>
    <path d="M233.36,184v71.89" style="fill: #ffd83d"/>
    <path d="M233.36,182.87a1.23,1.23,0,0,0-1,1.27V256c0,.63.42,1.1,1,1a1.23,1.23,0,0,0,.94-1.27V183.9C234.3,183.27,233.88,182.8,233.36,182.87Z"/>
    <path d="M239.77,187.84v71.89" style="fill: #ffd83d"/>
    <path d="M239.77,186.69a1.21,1.21,0,0,0-.94,1.25v71.9c0,.63.42,1.1.94,1a1.22,1.22,0,0,0,.95-1.26V187.73C240.72,187.1,240.3,186.63,239.77,186.69Z"/>
    <path d="M246.19,187.85v81" style="fill: #ffd83d"/>
    <path d="M246.19,186.7a1.2,1.2,0,0,0-.94,1.25V269a.94.94,0,0,0,.94,1.05,1.21,1.21,0,0,0,.95-1.25V187.75A.94.94,0,0,0,246.19,186.7Z"/>
    <path d="M252.61,187.22v71.89" style="fill: #ffd83d"/>
    <path d="M252.61,186.07a1.2,1.2,0,0,0-1,1.24V259.2a1,1,0,0,0,1,1.06,1.18,1.18,0,0,0,.94-1.23V187.14A1,1,0,0,0,252.61,186.07Z"/>
    <path d="M259,186.67v71.89" style="fill: #ffd83d"/>
    <path d="M259,185.52a1.18,1.18,0,0,0-.95,1.23v71.89a1,1,0,0,0,.95,1.07,1.17,1.17,0,0,0,.94-1.23V186.59A1,1,0,0,0,259,185.52Z"/>
    <path d="M262.21,225.36c-4.81,32.9-20.42,21-41.11,19.34q-7.82,4.31-15.63,8.84c-5.6,7.91-13.84,15.86-19.4,8.67q-4.63,1-9.27,2v44a588.27,588.27,0,0,1,102.49-13.9V188c-19-1.17-38-1.51-57-.89C235.82,187.61,265.61,202,262.21,225.36Z"/>
    <path d="M279.38,186.84c-19-1.17-38-1.51-57-.9a1.21,1.21,0,0,0-1,1.15,1,1,0,0,0,.78,1.17c9.72.46,27.78,7.73,35.7,20.81a23.74,23.74,0,0,1,3.48,16.15c-1.41,9.64-3.84,15.82-7.43,18.93-5.09,4.41-12.56,2.77-21.21,1.1a102,102,0,0,0-11.37-1.71.88.88,0,0,0-.47.11Q213,248,205.17,252.5a1.43,1.43,0,0,0-.38.36c-2.67,3.78-7.86,10.24-12.68,10.94-2.06.29-3.8-.51-5.31-2.47a.72.72,0,0,0-.73-.27q-4.63,1-9.27,2a1.4,1.4,0,0,0-.94,1.36v44c0,.64.42,1.06.94.94a588.27,588.27,0,0,1,102.49-13.9,1.12,1.12,0,0,0,.95-1.19V188A1,1,0,0,0,279.38,186.84Zm-1,106.45a588.66,588.66,0,0,0-100.6,13.63V265.18c2.62-.6,5.25-1.17,7.88-1.73a6.78,6.78,0,0,0,6.39,2.67c5.45-.79,11-7.55,14-11.66q7.59-4.4,15.19-8.59a101.62,101.62,0,0,1,11,1.67c9.08,1.74,16.92,3.46,22.7-1.54,4.12-3.56,6.75-10.06,8.28-20.51a26.34,26.34,0,0,0-3.8-17.88c-5.92-9.74-17.23-16.49-26.85-19.6q22.94-.33,45.86,1.08Z"/>
    <path d="M268.15,167.15c-3.44.23-6.23,3.84-6.23,8s2.79,7.36,6.23,7.13,6.22-3.78,6.22-8S271.59,166.92,268.15,167.15Z" style="fill: #ffd83d"/>
    <path d="M268.15,165.62c-4.13.27-7.49,4.63-7.49,9.65s3.36,8.84,7.49,8.56,7.48-4.54,7.48-9.56S272.27,165.34,268.15,165.62Zm0,15.15c-2.74.18-5-2.36-5-5.69s2.23-6.21,5-6.4,5,2.4,5,5.73S270.89,180.58,268.15,180.77Z"/>
    <path d="M254.16,164.14c-3.44.31-6.23,4-6.23,8.17s2.79,7.29,6.23,7,6.22-3.91,6.22-8.1S257.6,163.84,254.16,164.14Z" style="fill: #ffd83d"/>
    <path d="M254.16,162.61c-4.13.37-7.49,4.8-7.49,9.82s3.36,8.77,7.49,8.4,7.48-4.71,7.48-9.73S258.29,162.24,254.16,162.61Zm0,15.15c-2.74.25-5-2.24-5-5.58s2.23-6.26,5-6.5,5,2.29,5,5.62S256.9,177.52,254.16,177.76Z"/>
    <path d="M240,161.24c-3.44.39-6.23,4.13-6.23,8.32s2.79,7.22,6.23,6.83,6.22-4.06,6.22-8.24S243.4,160.85,240,161.24Z" style="fill: #ffd83d"/>
    <path d="M240,159.71c-4.13.47-7.49,5-7.49,10s3.36,8.68,7.49,8.22,7.48-4.89,7.48-9.91S244.09,159.24,240,159.71Zm0,15.15c-2.74.31-5-2.13-5-5.46s2.23-6.31,5-6.62,5,2.17,5,5.5S242.7,174.55,240,174.86Z"/>
    <path d="M225.72,160.14c-3.44.47-6.22,4.28-6.22,8.46s2.78,7.16,6.22,6.69,6.22-4.22,6.22-8.4S229.16,159.66,225.72,160.14Z" style="fill: #ffd83d"/>
    <path d="M225.72,158.6c-4.13.57-7.48,5.17-7.48,10.19s3.35,8.6,7.48,8,7.48-5.07,7.48-10.09S229.85,158,225.72,158.6Zm0,15.15c-2.74.38-5-2-5-5.33s2.22-6.37,5-6.75,5,2.05,5,5.38S228.46,173.38,225.72,173.75Z"/>
    <path d="M211.47,160.57c-3.43.56-6.22,4.44-6.22,8.63s2.79,7.08,6.22,6.52,6.23-4.37,6.23-8.56S214.91,160,211.47,160.57Z" style="fill: #ffd83d"/>
    <path d="M211.47,159c-4.12.67-7.48,5.36-7.48,10.38s3.36,8.51,7.48,7.83S219,172,219,167,215.6,158.36,211.47,159Zm0,15.15c-2.73.44-5-1.88-5-5.21s2.23-6.43,5-6.88,5,1.93,5,5.26S214.21,173.74,211.47,174.19Z"/>
    <path d="M197.5,164c-3.43.65-6.22,4.61-6.22,8.79s2.79,7,6.22,6.36,6.23-4.53,6.23-8.72S200.94,163.35,197.5,164Z" style="fill: #ffd83d"/>
    <path d="M197.5,162.47C193.38,163.24,190,168,190,173s3.36,8.42,7.48,7.64,7.49-5.45,7.49-10.47S201.63,161.68,197.5,162.47Zm0,15.15c-2.73.51-5-1.75-5-5.08s2.23-6.49,5-7,5,1.8,5,5.13S200.24,177.1,197.5,177.62Z"/>
    <path d="M184.19,172.24c-3.44.73-6.23,4.76-6.23,8.94s2.79,6.94,6.23,6.21,6.22-4.69,6.22-8.88S187.62,171.5,184.19,172.24Z" style="fill: #ffd83d"/>
    <path d="M184.19,170.7c-4.13.89-7.49,5.75-7.49,10.77s3.36,8.33,7.49,7.45,7.48-5.64,7.48-10.66S188.31,169.82,184.19,170.7Zm0,15.15c-2.74.59-5-1.62-5-4.95s2.23-6.54,5-7.13,5,1.67,5,5S186.92,185.26,184.19,185.85Z"/>
    <path d="M173,184.81c-3.44.81-6.23,4.9-6.23,9.08s2.79,6.88,6.23,6.07,6.22-4.83,6.22-9S176.41,184,173,184.81Z" style="fill: #ffd83d"/>
    <path d="M173,183.27c-4.13,1-7.49,5.92-7.49,10.94s3.36,8.26,7.49,7.28,7.48-5.8,7.48-10.82S177.09,182.3,173,183.27Zm0,15.15c-2.74.65-5-1.51-5-4.84s2.23-6.59,5-7.24,5,1.56,5,4.89S175.7,197.78,173,198.42Z"/>
    <path d="M165,200.76c-3.44.87-6.23,5-6.23,9.19s2.79,6.83,6.23,6,6.22-4.92,6.22-9.11S168.44,199.89,165,200.76Z" style="fill: #ffd83d"/>
    <path d="M165,199.23c-4.13,1-7.49,6-7.49,11.05s3.36,8.21,7.49,7.16,7.48-5.92,7.48-10.94S169.13,198.18,165,199.23Zm0,15.15c-2.74.69-5-1.43-5-4.77s2.23-6.62,5-7.32,5,1.49,5,4.82S167.74,213.69,165,214.38Z"/>
    <path d="M161.17,218.22c-3.44.89-6.23,5.05-6.23,9.23s2.79,6.81,6.23,5.92,6.22-5,6.22-9.16S164.61,217.32,161.17,218.22Z" style="fill: #ffd83d"/>
    <path d="M161.17,216.68c-4.13,1.08-7.49,6.1-7.49,11.12s3.36,8.17,7.49,7.1,7.48-6,7.48-11S165.3,215.61,161.17,216.68Zm0,15.15c-2.74.72-5-1.39-5-4.72s2.23-6.65,5-7.36,5,1.44,5,4.77S163.91,231.12,161.17,231.83Z"/>
    <path d="M161.31,235.27c-3.43.89-6.22,5-6.22,9.23s2.79,6.81,6.22,5.92,6.23-5,6.23-9.16S164.75,234.37,161.31,235.27Z" style="fill: #ffd83d"/>
    <path d="M161.31,233.73c-4.12,1.08-7.48,6.1-7.48,11.12s3.36,8.17,7.48,7.1,7.49-6,7.49-11S165.44,232.66,161.31,233.73Zm0,15.15c-2.73.72-5-1.39-5-4.72s2.23-6.65,5-7.36,5,1.44,5,4.78S164.05,248.17,161.31,248.88Z"/>
    <path d="M164,251.31c-3.44.88-6.22,5-6.22,9.2s2.78,6.83,6.22,5.95,6.23-4.93,6.23-9.12S167.43,250.44,164,251.31Z" style="fill: #ffd83d"/>
    <path d="M164,249.78c-4.13,1.05-7.48,6.05-7.48,11.07s3.35,8.2,7.48,7.15,7.49-5.94,7.49-11S168.12,248.73,164,249.78Zm0,15.15c-2.74.7-5-1.42-5-4.75s2.22-6.64,5-7.33,5,1.47,5,4.8S166.73,264.23,164,264.93Z"/>
    <path d="M168.41,230.3c0,26.75,8.12,44.47,18,65.67q5.49-4.34,11-8.54c-10.57-19.15-18.53-38.11-18.53-61,0-23.19,14.68-35.85,33.58-38.89,20.47-3.36,42.42,5,57.91,6.94q.29-5,.58-9.9c-18.53-3.91-41-10.63-63.12-6.85C182.88,182,168.41,208,168.41,230.3Z" style="fill: #ffd83d"/>
    <path d="M271.17,183.07c-4.39-.92-9-2-13.8-3.08-15.28-3.43-32.61-6.68-49.59-3.78-26.39,4.57-40.63,32.24-40.63,54.4,0,27.67,8.78,46.25,18.09,66.3a1,1,0,0,0,1.12.59,1.22,1.22,0,0,0,.54-.26q5.49-4.32,11-8.53a1.92,1.92,0,0,0,.67-1.07,1.77,1.77,0,0,0-.13-1.21c-9.08-16.47-18.35-36.21-18.35-60.27,0-26.95,20.25-35.27,32.32-37.08,13-2.11,26.75.52,38.88,3.21,6.81,1.5,13.24,3,18.84,3.73a1.21,1.21,0,0,0,1-.38,1.84,1.84,0,0,0,.47-1.12q.29-5,.58-9.9A1.43,1.43,0,0,0,271.17,183.07Zm-2,9.71c-5.16-.74-11-2.15-17.24-3.52-12.27-2.74-26.19-5.41-39.51-3.25-22.14,3.63-34.84,19.21-34.84,40.71,0,24.18,9,43.89,18,60.39q-4.32,3.33-8.64,6.72C178,274.51,169.67,256.37,169.67,230c0-20.69,13.36-46.43,38.11-50.71,16.67-2.85,33.83.35,49,3.74,4.47,1,8.71,2,12.8,2.86Q269.37,189.33,269.16,192.78Z"/>
    <path d="M351.58,174.38c-22.08-1.15-46.33,7.83-64.85,13.64L289,283.76A763.89,763.89,0,0,1,369,285.34c9.83-22.58,17.95-41.58,17.95-68.33C386.9,194.65,372.43,175.42,351.58,174.38Z" style="fill: #ffd83d"/>
    <path d="M377.35,194.53v55.32" style="fill: #ffd83d"/>
    <path d="M377.35,193.38a1,1,0,0,0-1,1.08v55.32a1.16,1.16,0,0,0,1,1.22,1,1,0,0,0,.94-1.07V194.61A1.18,1.18,0,0,0,377.35,193.38Z"/>
    <path d="M370.93,188.4v73.66" style="fill: #ffd83d"/>
    <path d="M370.93,187.25a1,1,0,0,0-.95,1.09V262a1.17,1.17,0,0,0,.95,1.22,1,1,0,0,0,.94-1.08V188.47A1.16,1.16,0,0,0,370.93,187.25Z"/>
    <path d="M364.51,184.09v87.75" style="fill: #ffd83d"/>
    <path d="M364.51,182.94a1,1,0,0,0-.94,1.09v87.75a1.15,1.15,0,0,0,.94,1.21,1,1,0,0,0,.95-1.09V184.15A1.15,1.15,0,0,0,364.51,182.94Z"/>
    <path d="M358.09,181.89v68.82" style="fill: #ffd83d"/>
    <path d="M358.09,180.74a1,1,0,0,0-.94,1.1v68.81a1.14,1.14,0,0,0,.94,1.21,1,1,0,0,0,1-1.1V181.94A1.14,1.14,0,0,0,358.09,180.74Z"/>
    <path d="M351.68,181.21v69.5" style="fill: #ffd83d"/>
    <path d="M351.68,180.06a1,1,0,0,0-.95,1.1v69.5a1.14,1.14,0,0,0,.95,1.2,1,1,0,0,0,.94-1.11v-69.5A1.12,1.12,0,0,0,351.68,180.06Z"/>
    <path d="M345.26,178.48v71.9" style="fill: #ffd83d"/>
    <path d="M345.26,177.33a1,1,0,0,0-.95,1.12v71.89a1.13,1.13,0,0,0,.95,1.19,1,1,0,0,0,.94-1.11v-71.9A1.13,1.13,0,0,0,345.26,177.33Z"/>
    <path d="M338.84,178.24v71.89" style="fill: #ffd83d"/>
    <path d="M338.84,177.09a1,1,0,0,0-.94,1.12V250.1a1.09,1.09,0,0,0,.94,1.18,1,1,0,0,0,1-1.11V178.28A1.12,1.12,0,0,0,338.84,177.09Z"/>
    <path d="M332.42,178.76v71.89" style="fill: #ffd83d"/>
    <path d="M332.42,177.61a1,1,0,0,0-.94,1.13v71.89a1.09,1.09,0,0,0,.94,1.17,1,1,0,0,0,.95-1.13V178.78A1.1,1.1,0,0,0,332.42,177.61Z"/>
    <path d="M326,179.33v71.89" style="fill: #ffd83d"/>
    <path d="M326,178.18a1,1,0,0,0-.94,1.13V251.2a1.08,1.08,0,0,0,.94,1.17,1,1,0,0,0,.95-1.13v-71.9A1.08,1.08,0,0,0,326,178.18Z"/>
    <path d="M319.59,183.83v71.89" style="fill: #ffd83d"/>
    <path d="M319.59,182.68a1.05,1.05,0,0,0-.95,1.14v71.89a1.08,1.08,0,0,0,.95,1.16,1.05,1.05,0,0,0,.94-1.14V183.84A1.07,1.07,0,0,0,319.59,182.68Z"/>
    <path d="M313.17,184.51v81.05" style="fill: #ffd83d"/>
    <path d="M313.17,183.36a1.06,1.06,0,0,0-.95,1.15v81.05a1,1,0,1,0,1.89,0V184.51A1.06,1.06,0,0,0,313.17,183.36Z"/>
    <path d="M306.75,184.54v71.89" style="fill: #ffd83d"/>
    <path d="M306.75,183.39a1.07,1.07,0,0,0-.94,1.16v71.89a1.05,1.05,0,0,0,.94,1.14,1.08,1.08,0,0,0,.95-1.16V184.53A1.05,1.05,0,0,0,306.75,183.39Z"/>
    <path d="M300.33,184.63v71.89" style="fill: #ffd83d"/>
    <path d="M300.33,183.48a1.08,1.08,0,0,0-.94,1.17v71.89a1,1,0,0,0,.94,1.13,1.09,1.09,0,0,0,.95-1.17V184.61A1,1,0,0,0,300.33,183.48Z"/>
    <path d="M353.9,245.66q-7.83-3.57-15.64-7c-20.69,4-36.3,17.39-41.11-15-3.4-23,26.39-40.36,40-42.44-19,1.52-38,3.73-57,6.76V294.36a769.3,769.3,0,0,1,102.49,2.25v-44q-4.63-.39-9.27-.74C367.73,259.79,359.49,252.89,353.9,245.66Z"/>
    <path d="M382.56,251.42q-4.63-.39-9.27-.74a.81.81,0,0,0-.73.37c-1.51,2.16-3.24,3.2-5.3,3.18-4.81-.07-10-5.88-12.69-9.34a.93.93,0,0,0-.38-.3q-7.81-3.59-15.63-7a.76.76,0,0,0-.47-.06,113.53,113.53,0,0,0-11.37,3c-8.65,2.6-16.12,5-21.21,1.11-3.59-2.75-6-8.68-7.43-18.18a25.2,25.2,0,0,1,3.48-16.51c7.92-13.85,26-23,35.7-24.57a1.1,1.1,0,0,0,.78-1.26,1,1,0,0,0-1-1c-19,1.52-38,3.73-57,6.77a1.16,1.16,0,0,0-.86,1.19V294.4a1,1,0,0,0,.95,1.11,769.3,769.3,0,0,1,102.49,2.25,1,1,0,0,0,.94-1.07v-44A1.17,1.17,0,0,0,382.56,251.42Zm-.95,44A769.79,769.79,0,0,0,281,293.16V189q22.94-3.63,45.86-5.73c-9.62,4.15-20.93,12-26.85,22.38a27.86,27.86,0,0,0-3.8,18.25c1.53,10.3,4.16,16.54,8.28,19.68,5.78,4.42,13.62,1.9,22.7-.82,3.51-1.06,7.15-2.12,11-2.88q7.6,3.33,15.19,6.8c2.94,3.76,8.52,9.82,14,9.89,2.45,0,4.6-1.15,6.38-3.52q3.94.3,7.88.63Z"/>
    <path d="M291.21,166c-3.43.11-6.22,3.62-6.22,7.81s2.79,7.45,6.22,7.34,6.23-3.56,6.23-7.74S294.65,165.91,291.21,166Z" style="fill: #ffd83d"/>
    <path d="M291.21,164.48c-4.12.13-7.48,4.37-7.48,9.39s3.36,9,7.48,8.83,7.49-4.28,7.49-9.31S295.34,164.35,291.21,164.48Zm0,15.15c-2.73.09-5-2.53-5-5.86s2.23-6.14,5-6.22,5,2.57,5,5.9S294,179.54,291.21,179.63Z"/>
    <path d="M305.2,161.62c-3.43,0-6.22,3.49-6.22,7.67s2.79,7.51,6.22,7.48,6.23-3.44,6.23-7.62S308.64,161.58,305.2,161.62Z" style="fill: #ffd83d"/>
    <path d="M305.2,160.08c-4.12,0-7.48,4.22-7.48,9.24s3.36,9,7.48,9,7.49-4.13,7.49-9.16S309.33,160,305.2,160.08Zm0,15.15c-2.73,0-5-2.63-5-6s2.23-6.09,5-6.12,5,2.67,5,6S307.94,175.2,305.2,175.23Z"/>
    <path d="M319.39,157.25c-3.43,0-6.22,3.37-6.22,7.56s2.79,7.57,6.22,7.59,6.23-3.31,6.23-7.49S322.83,157.28,319.39,157.25Z" style="fill: #ffd83d"/>
    <path d="M319.39,155.72c-4.12,0-7.48,4.07-7.48,9.09s3.36,9.09,7.48,9.13,7.49-4,7.49-9S323.52,155.75,319.39,155.72Zm0,15.15c-2.73,0-5-2.73-5-6.06s2.23-6.05,5-6,5,2.76,5,6.1S322.13,170.89,319.39,170.87Z"/>
    <path d="M333.64,154.61c-3.44-.09-6.22,3.25-6.22,7.44s2.78,7.62,6.22,7.71,6.23-3.2,6.23-7.38S337.08,154.71,333.64,154.61Z" style="fill: #ffd83d"/>
    <path d="M333.64,153.08c-4.13-.11-7.48,3.92-7.48,8.94s3.35,9.16,7.48,9.28,7.49-3.85,7.49-8.87S337.77,153.19,333.64,153.08Zm0,15.15c-2.74-.07-5-2.83-5-6.16s2.22-6,5-5.92,5,2.86,5,6.19S336.38,168.3,333.64,168.23Z"/>
    <path d="M347.89,153.41c-3.44-.15-6.23,3.14-6.23,7.32s2.79,7.68,6.23,7.83,6.22-3.08,6.22-7.27S351.33,153.57,347.89,153.41Z" style="fill: #ffd83d"/>
    <path d="M347.89,151.88c-4.13-.18-7.49,3.79-7.49,8.81s3.36,9.22,7.49,9.41,7.48-3.72,7.48-8.74S352,152.07,347.89,151.88Zm0,15.15c-2.74-.12-5-2.92-5-6.25s2.23-6,5-5.83,5,3,5,6.28S350.63,167.15,347.89,167Z"/>
    <path d="M361.86,155.13c-3.44-.21-6.23,3-6.23,7.21s2.79,7.73,6.23,7.94,6.22-3,6.22-7.17S365.29,155.34,361.86,155.13Z" style="fill: #ffd83d"/>
    <path d="M361.86,153.59c-4.13-.25-7.49,3.66-7.49,8.69s3.36,9.28,7.49,9.53,7.48-3.59,7.48-8.61S366,153.85,361.86,153.59Zm0,15.15c-2.74-.16-5-3-5-6.33s2.23-5.92,5-5.75,5,3,5,6.36S364.59,168.91,361.86,168.74Z"/>
    <path d="M375.18,161.6c-3.44-.27-6.23,2.93-6.23,7.12s2.79,7.76,6.23,8,6.22-2.89,6.22-7.08S378.61,161.86,375.18,161.6Z" style="fill: #ffd83d"/>
    <path d="M375.17,160.07c-4.12-.32-7.48,3.54-7.48,8.56s3.36,9.33,7.48,9.65,7.49-3.48,7.49-8.5S379.3,160.38,375.17,160.07Zm0,15.15c-2.73-.22-5-3.08-5-6.41s2.23-5.89,5-5.68,5,3.11,5,6.44S377.91,175.42,375.17,175.22Z"/>
    <path d="M386.39,172.57c-3.43-.31-6.22,2.86-6.22,7s2.79,7.8,6.22,8.11,6.23-2.82,6.23-7S389.83,172.88,386.39,172.57Z" style="fill: #ffd83d"/>
    <path d="M386.39,171c-4.12-.37-7.48,3.45-7.48,8.47s3.36,9.38,7.48,9.74,7.49-3.39,7.49-8.41S390.52,171.4,386.39,171Zm0,15.15c-2.73-.25-5-3.14-5-6.47s2.23-5.86,5-5.62,5,3.17,5,6.5S389.13,186.43,386.39,186.19Z"/>
    <path d="M394.36,187.32c-3.44-.34-6.23,2.8-6.23,7s2.79,7.82,6.23,8.16,6.22-2.77,6.22-6.95S397.79,187.65,394.36,187.32Z" style="fill: #ffd83d"/>
    <path d="M394.36,185.78c-4.13-.4-7.49,3.39-7.49,8.41s3.36,9.41,7.49,9.81,7.48-3.33,7.48-8.35S398.48,186.18,394.36,185.78Zm0,15.15c-2.74-.26-5-3.18-5-6.51s2.23-5.84,5-5.57,5,3.21,5,6.54S397.09,201.2,394.36,200.93Z"/>
    <path d="M398.19,204.17c-3.44-.35-6.22,2.78-6.22,7s2.78,7.84,6.22,8.19,6.23-2.74,6.23-6.93S401.63,204.51,398.19,204.17Z" style="fill: #ffd83d"/>
    <path d="M398.19,202.63c-4.12-.41-7.48,3.36-7.48,8.38s3.36,9.42,7.48,9.84,7.49-3.3,7.49-8.32S402.32,203.05,398.19,202.63Zm0,15.15c-2.74-.27-5-3.2-5-6.53s2.22-5.83,5-5.55,5,3.23,5,6.56S400.93,218.06,398.19,217.78Z"/>
    <path d="M398.05,221.24c-3.44-.35-6.23,2.78-6.23,7s2.79,7.83,6.23,8.18,6.22-2.74,6.22-6.93S401.49,221.59,398.05,221.24Z" style="fill: #ffd83d"/>
    <path d="M398.05,219.71c-4.13-.42-7.49,3.36-7.49,8.38s3.36,9.42,7.49,9.83,7.48-3.3,7.48-8.32S402.17,220.12,398.05,219.71Zm0,15.15c-2.74-.28-5-3.2-5-6.53s2.23-5.83,5-5.56,5,3.23,5,6.56S400.79,235.13,398.05,234.86Z"/>
    <path d="M395.37,237.71c-3.44-.34-6.23,2.8-6.23,7s2.79,7.83,6.23,8.17,6.22-2.76,6.22-6.94S398.81,238.05,395.37,237.71Z" style="fill: #ffd83d"/>
    <path d="M395.37,236.18c-4.13-.41-7.49,3.38-7.49,8.4s3.36,9.41,7.49,9.81,7.48-3.32,7.48-8.34S399.5,236.58,395.37,236.18Zm0,15.15c-2.74-.27-5-3.19-5-6.52s2.23-5.84,5-5.57,5,3.21,5,6.55S398.11,251.6,395.37,251.33Z"/>
    <path d="M351.58,170.15C329.5,169,307,178,288.46,183.72l.58,9.85c15.49-3.48,37.44-14,57.91-13.07,18.9.83,33.58,11.36,33.58,34.55,0,22.88-8,43-18.53,63.49q5.5,3.51,11,7.09c9.83-22.53,17.95-41.5,17.95-68.25C391,195.05,376.49,171.43,351.58,170.15Z" style="fill: #ffd83d"/>
    <path d="M351.58,168.61c-17-.85-34.31,4.21-49.59,9.18-4.84,1.56-9.41,3.09-13.8,4.45a1.57,1.57,0,0,0-1,1.64q.29,4.92.58,9.84a1.57,1.57,0,0,0,.47,1.08,1.07,1.07,0,0,0,1,.28c5.6-1.24,12-3.42,18.84-5.61,12.13-3.93,25.88-8,38.88-7.43,12.07.44,32.32,6,32.32,32.91,0,24.07-9.27,45.11-18.34,62.73a1.78,1.78,0,0,0-.14,1.23,1.63,1.63,0,0,0,.67,1q5.51,3.51,11,7.09a1.15,1.15,0,0,0,.54.18,1.12,1.12,0,0,0,1.12-.74c9.31-21.32,18.09-41.25,18.09-68.92C392.21,195.3,378,170,351.58,168.61Zm20.86,115q-4.32-2.81-8.64-5.58c9-17.66,18-38.65,18-62.83,0-21.53-12.7-35.18-34.84-36.19-13.32-.59-27.23,3.55-39.51,7.53-6.2,2-12.08,4-17.24,5.25-.13-2.29-.27-4.58-.4-6.87,4.09-1.27,8.34-2.69,12.81-4.13,15.14-4.91,32.3-9.9,49-9.07,24.76,1.28,38.11,24.86,38.11,45.58C389.69,243.64,381.39,263,372.44,283.57Z"/>
    <path d="M273.18,134.76q3.26,7.22,6.5,14.45,3.26-7.56,6.5-15.09-3.26-7.25-6.5-14.47Z" style="fill: #ffd83d"/>
    <path d="M273.18,97.43q3.26,7.18,6.5,14.41,3.26-7.55,6.5-15-3.26-7.28-6.5-14.52Q276.44,89.85,273.18,97.43Z" style="fill: #ffd83d"/>
    <path d="M280.79,118.87a1.2,1.2,0,0,0-2.22.11q-3.26,7.55-6.5,15.12a1.83,1.83,0,0,0,0,1.45q3.26,7.2,6.5,14.44a1.19,1.19,0,0,0,1.11.76,1.34,1.34,0,0,0,1.11-.87q3.25-7.56,6.5-15.08a1.83,1.83,0,0,0,0-1.45Q284,126.11,280.79,118.87ZM279.68,146q-2.54-5.66-5.07-11.28,2.53-5.91,5.07-11.78,2.54,5.63,5.07,11.28Z"/>
    <path d="M280.79,81.5a1.2,1.2,0,0,0-2.22.11q-3.26,7.56-6.5,15.17a1.8,1.8,0,0,0,0,1.44q3.26,7.19,6.5,14.4a1.19,1.19,0,0,0,1.11.75,1.31,1.31,0,0,0,1.11-.86q3.25-7.53,6.5-15a1.8,1.8,0,0,0,0-1.44Q284,88.74,280.79,81.5Zm-1.11,27.09-5.07-11.24q2.53-5.92,5.07-11.82l5.07,11.32Z"/>
    <path d="M256.52,117.3q5.13,3.51,10.25,7.11,5.1-4.3,10.21-8.53-5.12-3.67-10.21-7.28Q261.64,112.91,256.52,117.3Z" style="fill: #ffd83d"/>
    <path d="M282.38,115.62q5.12,3.72,10.22,7.52,5.11-4.11,10.24-8.13-5.11-3.89-10.24-7.68Q287.49,111.44,282.38,115.62Z" style="fill: #ffd83d"/>
    <path d="M303.52,113.7q-5.13-3.89-10.25-7.69a1.08,1.08,0,0,0-1.35,0q-5.1,4.11-10.21,8.29a1.71,1.71,0,0,0-.59,1.32,1.54,1.54,0,0,0,.59,1.27q5.1,3.72,10.21,7.52a1.07,1.07,0,0,0,.68.21,1.11,1.11,0,0,0,.67-.25q5.13-4.11,10.25-8.13a1.66,1.66,0,0,0,.58-1.3A1.63,1.63,0,0,0,303.52,113.7Zm-10.92,7.63c-2.63-2-5.25-3.89-7.87-5.82,2.62-2.13,5.24-4.26,7.87-6.36q3.94,2.92,7.89,5.9Q296.55,118.16,292.6,121.33Z"/>
    <path d="M277.65,114.55q-5.1-3.69-10.21-7.29a1.07,1.07,0,0,0-1.35.09q-5.11,4.32-10.24,8.71a1.77,1.77,0,0,0-.59,1.35,1.48,1.48,0,0,0,.59,1.24q5.11,3.51,10.24,7.1a1.06,1.06,0,0,0,.68.2,1.21,1.21,0,0,0,.67-.29q5.12-4.3,10.21-8.52a1.71,1.71,0,0,0,.59-1.32A1.54,1.54,0,0,0,277.65,114.55Zm-10.89,8q-3.94-2.77-7.89-5.5,3.94-3.36,7.89-6.68,3.94,2.76,7.87,5.59Q270.7,119.28,266.76,122.6Z"/>
    <path d="M279.68,109.93c-2.72.13-4.92,2.94-4.92,6.25s2.2,5.86,4.92,5.73,4.92-2.9,4.92-6.21S282.4,109.8,279.68,109.93Z" style="fill: #ffd83d"/>
    <path d="M279.68,108.4c-3.41.17-6.18,3.71-6.18,7.85s2.77,7.36,6.18,7.19,6.18-3.64,6.18-7.79S283.09,108.23,279.68,108.4Zm0,12c-2,.1-3.66-1.81-3.66-4.27s1.64-4.55,3.66-4.64,3.66,1.83,3.66,4.28S281.7,120.28,279.68,120.38Z"/>
    <path d="M279.68,138.12c-7.27.35-13.17,8-13.17,16.81s5.9,15.6,13.17,15.25,13.17-7.69,13.17-16.55S287,137.76,279.68,138.12Z" style="fill: #ffd83d"/>
    <path d="M279.68,136.58c-8,.39-14.43,8.76-14.43,18.44s6.47,17.08,14.43,16.69,14.43-8.43,14.43-18.11S287.64,136.19,279.68,136.58Zm0,32.07c-6.57.32-11.91-5.81-11.91-13.81s5.34-14.87,11.91-15.19,11.91,6,11.91,14S286.25,168.32,279.68,168.65Z"/>
    <path d="M283,149.78a57.53,57.53,0,0,1,9.25.84h.16a1.08,1.08,0,0,0,.93-1,1.1,1.1,0,0,0-.78-1.3,58.81,58.81,0,0,0-8.58-.85v-9.06a1,1,0,0,0-.94-1.11,1.13,1.13,0,0,0-.95,1.19v10.16A1,1,0,0,0,283,149.78Z"/>
    <path d="M267,151.88a.45.45,0,0,0,.16,0,59.67,59.67,0,0,1,9.26-1.75,1.14,1.14,0,0,0,.9-1.19c0-.74,0-1.48,0-2.21,0-2.07,0-4.48,0-8a1,1,0,0,0-.95-1.1,1.14,1.14,0,0,0-.94,1.21c0,3.46,0,5.87,0,7.93v1.13a61.11,61.11,0,0,0-8.58,1.7A1.22,1.22,0,0,0,266,151,.94.94,0,0,0,267,151.88Z"/>
    <path d="M292.59,156.44a59.1,59.1,0,0,0-25.82,1.27,1.22,1.22,0,0,0-.78,1.37.91.91,0,0,0,1.09.87,58,58,0,0,1,25.2-1.24.45.45,0,0,0,.16,0,1.06,1.06,0,0,0,.93-1A1.1,1.1,0,0,0,292.59,156.44Z"/>
    <path d="M254.64,255.25q6.81-4,13.62-7.77c4.76-22.28,5.76-50.71,7.21-64.22q-4.34-.64-8.67-1.23C265.56,208.32,263,235.13,254.64,255.25Z" style="fill: #ffd83d"/>
    <path d="M283.89,182.85c1.45,13.36,2.45,41.69,7.21,63.51q6.81,3.13,13.62,6.41c-8.37-19.28-10.91-45.84-12.16-72Q288.23,181.78,283.89,182.85Z" style="fill: #ffd83d"/>
    <path d="M293.81,180.64a1.6,1.6,0,0,0-.47-1.1,1.06,1.06,0,0,0-1-.28q-4.34,1-8.67,2.09a1.6,1.6,0,0,0-1,1.75c.39,3.6.75,8.29,1.16,13.71,1.09,14.34,2.59,34,6.08,50a1.41,1.41,0,0,0,.75,1q6.81,3.14,13.62,6.4a1,1,0,0,0,.47.11,1.23,1.23,0,0,0,.94-.52,1.82,1.82,0,0,0,.18-1.74C297.31,232.41,295,205,293.81,180.64Zm-1.65,64.55c-3.33-15.64-4.78-34.75-5.85-48.76-.36-4.76-.68-9-1-12.37q3-.75,6.09-1.47c1.14,22.77,3.39,48,10.75,67.28Q297.15,247.5,292.16,245.19Z"/>
    <path d="M275.68,181.74c-2.89-.43-5.78-.85-8.67-1.24a1.14,1.14,0,0,0-1,.39,1.76,1.76,0,0,0-.47,1.14c-1.16,24.44-3.5,52.11-12,72.6a1.78,1.78,0,0,0,.18,1.73,1.1,1.1,0,0,0,.94.42,1.18,1.18,0,0,0,.47-.15q6.81-4,13.62-7.76a1.63,1.63,0,0,0,.75-1.08c3.49-16.35,5-36.13,6.08-50.57.41-5.47.77-10.19,1.16-13.83A1.42,1.42,0,0,0,275.68,181.74Zm-2.63,15.34c-1.07,14.12-2.52,33.37-5.85,49.34-3.32,1.86-6.65,3.76-10,5.67,7.36-20,9.62-45.47,10.75-68.35q3,.42,6.09.87C273.73,188.06,273.41,192.29,273.05,197.08Z"/>
    <path d="M361.32,276c1.41-18-6.88-34.25-16.22-36.77-15.7-4.28-32.48,22.5-36.46,31.07-.72-23.75-12.71-33.1-29-32.31s-28.22,11.36-28.94,35.19c-4-8.17-20.8-33.24-36.5-27.11-9.34,3.6-17.59,21-16.18,38.74-7.73-25.69-30.38-25.29-46.9-4.52,14.67,10.64,21.2,52.44,33.55,68.53a593.41,593.41,0,0,1,95-12.17,760.23,760.23,0,0,1,95,1.6c12.36-17.82,18.92-60.57,33.59-73.66C391.7,246.7,369.05,249.38,361.32,276Z" style="fill: #ffd83d"/>
    <path d="M379.83,252.4c-7.31,2-13.26,7.68-17.18,16.22-1-16.12-9-28.64-17.32-30.87-14.79-4-29.71,17.1-35.73,27.86-2-19.32-12.46-30-29.94-29.14s-28,12.59-29.9,32.11c-6-10.14-21-29.73-35.77-24-8.29,3.19-16.31,16.73-17.28,33-3.92-8-9.87-13-17.18-13.91-9.61-1.25-20.25,4.46-29.17,15.63a2.19,2.19,0,0,0-.48,1.33,1.28,1.28,0,0,0,.46,1.06c7.94,5.71,13.57,21.34,19,36.51,4.51,12.58,8.77,24.5,14.34,31.78a1,1,0,0,0,1,.36C248,336.84,311.32,335,374.63,339.79a1.08,1.08,0,0,0,1-.5c5.57-8,9.84-20.58,14.36-33.84,5.45-16,11.1-32.51,19-39.57a1.53,1.53,0,0,0,.46-1.15,1.85,1.85,0,0,0-.48-1.24C400.08,253.85,389.44,249.79,379.83,252.4Zm7.81,51.69c-4.35,12.75-8.46,24.84-13.62,32.59-62.91-4.75-125.81-2.88-188.72,10.49-5.16-7.05-9.27-18.55-13.6-30.66-5.3-14.78-10.77-30-18.57-36.68,8-9.37,17.3-14.11,25.7-13s14.71,7.81,18,18.74a1,1,0,0,0,1.45.72,1.87,1.87,0,0,0,1-1.82c-1.39-17.59,6.88-33.71,15.16-36.89,7.92-3.07,16.11,2.61,21.57,8a76,76,0,0,1,13.6,18.54,1.08,1.08,0,0,0,1.4.6,1.66,1.66,0,0,0,1-1.52c.79-26.24,15.49-33,27.68-33.59s26.93,4.68,27.72,30.84a1.49,1.49,0,0,0,1,1.43,1.2,1.2,0,0,0,1.4-.74c3.26-7,19.77-34.52,35.13-30.33,8.3,2.23,16.59,17.29,15.2,35.05a1.62,1.62,0,0,0,1,1.7,1.15,1.15,0,0,0,1.45-.9c3.31-11.37,9.71-18.94,18-21.18s17.68,1,25.69,9.06C398.43,272.46,393,288.51,387.64,304.09Z"/>
    <path d="M279.68,323.62c-52.26,2.3-94.67,16.62-94.67,25.13s42.41,8.18,94.67,5.87c52.26-2.53,94.67-7.65,94.67-16.39C374.35,329.86,331.94,321.08,279.68,323.62Z"/>
    <path d="M279.68,322.47c-22.43-.56-95.62,12-95.62,26.49,0,10.15,44.68,8.94,95.62,6.81,50.94-2.56,95.62-7.15,95.62-17.47C375.3,324.3,302.11,320.09,279.68,322.47Zm0,31c-54.37,2.57-93.73,2-93.73-4.92,0-5.44,32.2-20.43,93.73-23.78,61.53-2.46,93.73,8,93.73,13.39C373.41,345.19,334.05,351,279.68,353.47Z"/>
    <path d="M279.68,170.92c-2.44.12-4.41,2.64-4.41,5.61s2,5.26,4.41,5.14,4.42-2.61,4.42-5.57S282.12,170.8,279.68,170.92Z" style="fill: #ffd83d"/>
    <path d="M279.68,169.77c-2.95.15-5.36,3.22-5.36,6.81s2.41,6.38,5.36,6.24,5.36-3.17,5.36-6.76S282.64,169.63,279.68,169.77Zm0,10.75c-1.91.09-3.47-1.71-3.47-4s1.56-4.31,3.47-4.41,3.47,1.74,3.47,4.07S281.59,180.43,279.68,180.52Z"/>
    <path d="M279.68,182.2c-2.6.13-4.7,2.81-4.7,6s2.1,5.61,4.7,5.48,4.71-2.78,4.71-5.94S282.28,182.07,279.68,182.2Z" style="fill: #ffd83d"/>
    <path d="M279.68,181.05c-3.11.15-5.65,3.38-5.65,7.18s2.54,6.72,5.65,6.57,5.65-3.34,5.65-7.13S282.8,180.9,279.68,181.05Zm0,11.45c-2.07.1-3.76-1.86-3.76-4.38s1.69-4.67,3.76-4.77,3.76,1.88,3.76,4.4S281.75,192.4,279.68,192.5Z"/>
    <path d="M279.68,194.18c-2.84.14-5.14,3.07-5.14,6.52s2.3,6.12,5.14,6,5.14-3,5.14-6.49S282.52,194,279.68,194.18Z" style="fill: #ffd83d"/>
    <path d="M279.68,193c-3.35.16-6.08,3.65-6.08,7.73s2.73,7.24,6.08,7.08,6.08-3.6,6.08-7.68S283,192.86,279.68,193Zm0,12.51c-2.31.11-4.19-2.07-4.19-4.89s1.88-5.21,4.19-5.32,4.19,2.1,4.19,4.91S282,205.42,279.68,205.54Z"/>
    <path d="M279.68,207.21c-3.24.16-5.86,3.51-5.86,7.45s2.62,7,5.86,6.82,5.86-3.45,5.86-7.39S282.92,207.05,279.68,207.21Z" style="fill: #ffd83d"/>
    <path d="M279.68,206.06c-3.75.19-6.81,4.09-6.81,8.66s3.06,8.1,6.81,7.91,6.81-4,6.81-8.58S283.43,205.88,279.68,206.06Zm0,14.27c-2.71.14-4.92-2.42-4.92-5.72s2.21-6.11,4.92-6.25,4.92,2.47,4.92,5.77S282.39,220.2,279.68,220.33Z"/>
    <path d="M279.68,222c-3.56.18-6.44,3.86-6.44,8.19s2.88,7.66,6.44,7.49,6.44-3.79,6.44-8.12S283.24,221.84,279.68,222Z" style="fill: #ffd83d"/>
    <path d="M279.68,220.86c-4.07.2-7.39,4.44-7.39,9.4s3.32,8.78,7.39,8.58,7.39-4.35,7.39-9.31S283.75,220.66,279.68,220.86Zm0,15.68c-3,.15-5.5-2.71-5.5-6.4s2.47-6.83,5.5-7,5.5,2.76,5.5,6.44S282.71,236.39,279.68,236.54Z"/>
    <path d="M273.5,253.6a37.43,37.43,0,0,0,.16-6c-.06-1-.41-1.39-.83-1.43a.88.88,0,0,0-.28,0,1.9,1.9,0,0,0-1.26,1.8c.07,1.53.42,3.33.56,5.62S273.36,255,273.5,253.6Z"/>
    <path d="M224.12,261.75c.56,1.71,1.8,1,1.38-.52s-.54-2.48-1.38-5.42c-.42-1.46-1.14-1.8-1.65-1.53a1.62,1.62,0,0,0-.51,2C222.58,258,223.49,259.82,224.12,261.75Z"/>
    <path d="M219.08,262.58c.7,1.85,1.77.47,1.42-.83a48.16,48.16,0,0,0-1.77-5.49c-.39-1-.88-1.38-1.3-1.33-.7.07-1.19,1.3-.71,2.5C217.49,259.35,218.3,260.51,219.08,262.58Z"/>
    <path d="M266.8,257.33c0,1.7,1.2,1,1.27-.18s.19-3.71.19-6c0-1.71-.6-2.16-1.18-1.93a1.9,1.9,0,0,0-.94,2.08A35.78,35.78,0,0,1,266.8,257.33Z"/>
    <path d="M230.11,263.29c.69,2,1.85,1.46,1.57.14s-.62-3.53-1.45-6.81c-.37-1.44-1-1.91-1.46-1.73-.65.24-1.15,1.51-.71,2.92C228.62,259.6,229.41,261.26,230.11,263.29Z"/>
    <path d="M187.74,285.92c.35,1.54,1.26,1.08,1.26-.45a37.09,37.09,0,0,0-.43-4.75,1.17,1.17,0,0,0-1.18-1.14c-.5.06-.92.64-.71,1.82C187,283.05,187.39,284.38,187.74,285.92Z"/>
    <path d="M170.34,277.66c-.58-.9-1.08-1.2-1.46-1.13-.84.15-1.11,2.07-.32,3.1a19.49,19.49,0,0,0,3.27,3.38c1,.89,1.35-.67.83-1.69S171.38,279.32,170.34,277.66Z"/>
    <path d="M164.19,280.19a2.21,2.21,0,0,0-1.26-.11,1.09,1.09,0,0,0-.19,2c1.15.72,2.52,1.5,3.86,2.47,1.56,1.14,2.17-.41,1.33-1.48A7.37,7.37,0,0,0,164.19,280.19Z"/>
    <path d="M177,284c.63,1.38,2.54,1.46,1.77-.74s-.91-3.39-1.61-5.43a1.7,1.7,0,0,0-1.93-1.24c-.67.17-1.11.88-.59,2.15C175.38,280.53,176.36,282.57,177,284Z"/>
    <path d="M182.94,284.5c.34,1.2,1.47.36,1.26-1.37s-.32-2.78-.59-4.67a1.29,1.29,0,0,0-1.62-1.13c-.69.16-1.26.87-.94,2.07C181.55,281.33,182.59,283.3,182.94,284.5Z"/>
    <path d="M335.24,256.05c.63-2,1.54-3.88,2.16-5.73.32-.92,0-1.73-.51-1.93a.58.58,0,0,0-.39,0c-.44.1-.95.6-1.26,1.73-.84,3-1,4-1.38,5.57S334.68,257.82,335.24,256.05Z"/>
    <path d="M371.62,275.77c.35-1.58.77-3,1.06-4.67.21-1.21-.21-1.73-.7-1.72a1.39,1.39,0,0,0-1.19,1.3,40.31,40.31,0,0,0-.43,4.81C370.36,277,371.27,277.36,371.62,275.77Z"/>
    <path d="M340.28,256.31c.78-2.16,1.6-3.42,2.36-5.42.48-1.26,0-2.43-.71-2.43-.42,0-.9.42-1.3,1.49a53.18,53.18,0,0,0-1.77,5.69C338.51,257,339.58,258.24,340.28,256.31Z"/>
    <path d="M376.42,273.69c.35-1.25,1.39-3.36,1.89-5.36.32-1.25-.25-1.88-.94-1.95a1.51,1.51,0,0,0-1.61,1.36c-.28,1.93-.39,3-.59,4.75S376.08,274.93,376.42,273.69Z"/>
    <path d="M382.37,272.3c.63-1.47,1.61-3.65,2.36-5.59.53-1.35.08-2-.59-2.06a2,2,0,0,0-1.93,1.51c-.69,2.14-.84,3.35-1.61,5.66S381.74,273.78,382.37,272.3Z"/>
    <path d="M191.56,303.64c.63-4.32,1.48-7.32,1.38-9.71s-1.23-2-1.7.33a25,25,0,0,1-1.33,4.59c-.42.84-2.1,1.62-3.71-.67a49,49,0,0,0-7-7.45,2.13,2.13,0,0,0-1.38-.5c-.62.07-.83.72,0,1.91,1.88,2.71,3.95,7,4.09,9s-.69,2.16-1.46,2.33c-2.29.52-3.42-1.27-5.51-1.38s-2.39,1.31-.9,2.27c7.66,5,15.34,11,18.42,17.24,1.26,2.55,2.95,3.24,2,.76C191.63,314.75,190.93,308,191.56,303.64Z"/>
    <path d="M287.52,252.83c.13-2.3.48-4.14.55-5.67a1.67,1.67,0,0,0-1.26-1.68,1.31,1.31,0,0,0-.28,0c-.42.09-.77.53-.83,1.52a38.28,38.28,0,0,0,.16,6C286,254.34,287.38,255.21,287.52,252.83Z"/>
    <path d="M292.56,256.07a36,36,0,0,1,.67-6.11,1.73,1.73,0,0,0-1-2,.58.58,0,0,0-.39,0c-.42.15-.79.76-.79,2,0,2.29.13,4.8.2,6S292.56,257.76,292.56,256.07Z"/>
    <path d="M276.65,253.76c.28,2.27,1.37,1.66,1.65-.13a47.17,47.17,0,0,0,.24-6.25c0-1.65-.72-2.34-1.42-2.32s-1.35.78-1.18,2.13C276.15,248.77,276.4,251.75,276.65,253.76Z"/>
    <path d="M329.25,258.25c.7-2.1,1.49-3.85,2.05-5.7.44-1.47-.06-2.68-.71-2.85-.5-.13-1.09.41-1.45,1.89-.84,3.37-1.18,5.61-1.46,7S328.56,260.35,329.25,258.25Z"/>
    <path d="M282.71,253.46c.25-2,.51-5,.71-6.64.18-1.37-.48-2-1.18-2s-1.45.81-1.42,2.46a46.4,46.4,0,0,0,.24,6.22C281.34,255.26,282.43,255.76,282.71,253.46Z"/>
    <path d="M205.07,279a.9.9,0,0,0-1.19-.41,1.58,1.58,0,0,0-.55,2.59c1.47,2,3.07,3.35,3.62,4.11s2,.2,1.07-1.43S205.69,280.24,205.07,279Z"/>
    <path d="M346.18,251.27c-.42-.07-.84.3-1.1,1.54-.35,1.68-.7,3-1,4.22s.48,2.65,1.18.81,1.11-2.33,1.81-4C347.53,252.81,346.89,251.39,346.18,251.27Z"/>
    <path d="M324.37,254.33a.64.64,0,0,0-.23-.05c-.56,0-1.27.74-1.5,1.94-.42,2.2-.4,2.79-.75,4.74s1.11,2.27,1.46.83,1.22-4.44,1.45-6C324.93,255,324.71,254.46,324.37,254.33Z"/>
    <path d="M343.23,276a21.49,21.49,0,0,1-3.54,2.31c-1.15.6-2,.31-2.32-1.61s.23-6,2-13.68c.32-1.39.08-2.4-.35-2.56a.34.34,0,0,0-.2,0c-.32.06-.71.55-1,1.64a78.43,78.43,0,0,1-5,11.64c-1.36,2.38-3.05,1.24-4.1-1.58-1.57-4.23-2.55-1.76-1.57.83,2.61,6.92,2.28,17.87.55,31.16-.31,2.41.8,2.18,1.22,0,2-10.54,7.33-19.15,15-26.48C345.36,276.28,344.28,275.17,343.23,276Z"/>
    <path d="M353.71,262.17c-.27,0-.61.41-1,1.19-1.67,3.14-2.6,4.45-3.23,5.69s0,2.63,1.07,1.15c1.26-1.78,2.52-3.36,3.42-4.67C354.62,264.55,354.51,262,353.71,262.17Z"/>
    <path d="M384.38,290.16c-2.09.41-3.21,2.36-5.51,2.17-.77-.06-1.6-.1-1.46-2.13s2.21-6.6,4.09-9.58c.83-1.31.62-1.94,0-1.92a2.44,2.44,0,0,0-1.37.7,60.55,60.55,0,0,0-7,8.41c-1.61,2.51-3.29,2-3.7,1.17a21.37,21.37,0,0,1-1.34-4.4c-.47-2.28-1.59-2.53-1.7-.12s.75,5.3,1.38,9.54-.07,11.12-2.95,19.11c-.94,2.61.75,1.7,2-1,3.08-6.67,10.76-13.69,18.42-19.79C386.77,291.11,386.47,289.75,384.38,290.16Z"/>
    <path d="M355.48,270.5a1.15,1.15,0,0,0-.32,0,1,1,0,0,0-.86.57c-.63,1.33-2,3.45-3,5.22s.51,2.12,1.07,1.3,2.16-2.35,3.62-4.55C356.94,271.64,356.26,270.69,355.48,270.5Z"/>
    <path d="M396.43,266.31a2.37,2.37,0,0,0-1.26.31,9.17,9.17,0,0,0-3.74,3.48c-.84,1.19-.23,2.65,1.34,1.27,1.33-1.17,2.7-2.17,3.85-3.07C397.49,267.62,397.4,266.42,396.43,266.31Z"/>
    <path d="M390.48,263.68c-.38,0-.88.36-1.46,1.35-1,1.81-1.8,2.91-2.32,4s-.22,2.61.83,1.56a24.55,24.55,0,0,0,3.27-3.87C391.59,265.58,391.32,263.71,390.48,263.68Z"/>
    <path d="M301.1,263.2h-.24c-.38.08-.76.53-.94,1.46-.49,2.46-.63,4.48-.91,6.1s1.42,1.56,1.7-.22.76-3.75,1.18-5.53C302.12,264,301.65,263.28,301.1,263.2Z"/>
    <path d="M350.56,255.73c-.44-.06-1,.25-1.3,1.09-.91,2.25-1.17,4.09-1.93,5.66s.32,2.49.94,1.24,2-3.4,2.8-5.13S351.28,255.84,350.56,255.73Z"/>
    <path d="M230.66,277.17c-1,2.93-2.74,4.26-4.1,2a70.54,70.54,0,0,1-5-11.08c-.31-1.05-.7-1.5-1-1.53a.44.44,0,0,0-.2,0c-.43.21-.67,1.24-.35,2.59,1.78,7.5,2.32,11.51,2,13.46s-1.18,2.34-2.33,1.88a19.24,19.24,0,0,1-3.54-1.91c-1-.73-2.13.51-.63,1.77,7.63,6.45,12.92,14.49,15,24.8.42,2.11,1.54,2.22,1.22-.16-1.73-13.1-2.06-24,.55-31.21C233.22,275.12,232.23,272.77,230.66,277.17Z"/>
    <path d="M210.1,264.14c-.33-.8-.86-1.05-1.29-.93-.73.19-1.26,1.39-.52,2.91s2.17,3.64,2.8,4.81,1.71.13.94-1.36S211,266.28,210.1,264.14Z"/>
    <path d="M297.64,255c-.45,0-.88.48-1.07,1.56a55.51,55.51,0,0,0-.75,6.11c-.07,1.35,1.12,2.34,1.54.3.47-2.31,1.12-3.9,1.54-5.69C299.16,256.18,298.37,255,297.64,255Z"/>
    <path d="M206.68,271.09c-.42-.73-.76-1.06-1-1.07-.8,0-.92,2.5-.24,3.4.91,1.2,2.16,2.62,3.43,4.25,1,1.35,1.69-.11,1.06-1.28S208.35,274,206.68,271.09Z"/>
    <path d="M215.26,263.74c-.28-1.14-.63-2.47-1-4.11-.26-1.2-.68-1.52-1.1-1.4a2.23,2.23,0,0,0-.91,2.68c.7,1.58,1.14,2.09,1.81,3.78S215.54,264.88,215.26,263.74Z"/>
    <path d="M261.73,256.8c-.74.05-1.53,1.3-1.26,2.39.41,1.75,1.06,3.28,1.53,5.54.42,2,1.61.9,1.54-.45a51,51,0,0,0-.75-6C262.61,257.18,262.17,256.76,261.73,256.8Z"/>
    <path d="M291.93,266.44a30.12,30.12,0,0,1-4.18,3.44c-1.57,1.08-3.26,1.66-4.41-.2a21.09,21.09,0,0,1-2.6-9.56c0-1.2-.15-2.68-1.06-2.63s-1,1.53-1.06,2.73A22.7,22.7,0,0,1,276,270c-1.15,2-2.84,1.56-4.41.64a26.84,26.84,0,0,1-4.18-3c-1.67-1.41-2.94-.43-.94,2.89,5.82,9.68,12.13,18,12.13,34.45,0,2.12.3,2.76,1.06,2.72s1.1-.7,1.1-2.83c0-16.46,6.27-25.38,12.09-35.63C294.87,265.72,293.6,264.86,291.93,266.44Z"/>
    <path d="M236.72,260.55c-.23-1.17-.94-1.83-1.49-1.78a.68.68,0,0,0-.24.08c-.34.17-.56.69-.43,1.53.23,1.51,1.11,4.42,1.45,5.82s1.81.92,1.46-1S237.14,262.71,236.72,260.55Z"/>
    <path d="M259.44,266.66c-.18-.91-.56-1.32-.94-1.36a.65.65,0,0,0-.24,0,1.53,1.53,0,0,0-.79,1.89c.42,1.75.9,3.59,1.18,5.41s2,1.65,1.7.06S259.93,269.07,259.44,266.66Z"/>
    <path d="M189.16,338.11l2.46,9m2.59-11.78c.73,3.05,1.45,6.1,2.18,9.15m3.28-11.28,1.5,9.49M204.74,331q.8,4.73,1.6,9.45m4.89-11.33c.44,3.19.87,6.39,1.3,9.58m5.61-10.66,1.41,9.57m5.34-13.33c.34,3.24.67,6.48,1,9.71M231.24,324q.49,4.86,1,9.73m5.13-11.48c.34,3.25.67,6.49,1,9.74m5.15-11.2c.19,3.28.37,6.56.56,9.84m6-10.52.48,9.87M256.1,319c.14,3.29.28,6.59.41,9.88M262.69,318c.11,3.29.23,6.59.34,9.89m7.23-10.67c.12,3.3.23,6.6.35,9.9m99.59,1-2.46,9.29M365.15,326c-.73,3.14-1.45,6.28-2.18,9.43m-3.28-10.86-1.5,9.67m-3.57-11.19c-.53,3.22-1.06,6.43-1.6,9.65M348.13,322q-.66,4.88-1.3,9.74m-5.61-10c-.47,3.24-.94,6.49-1.4,9.73m-5.35-12.72c-.34,3.27-.67,6.54-1,9.82M328.13,319l-1,9.83M322,318q-.5,4.92-1,9.84m-5.15-10.66c-.19,3.3-.37,6.6-.56,9.9m-6-9.89-.48,9.91m-5.49-10.35q-.21,4.95-.41,9.92m-6.18-10.3c-.11,3.31-.23,6.62-.34,9.93m-7.23-10q-.18,5-.34,9.94M279.68,316V327" style="fill: #ffd83d"/>
    <path d="M237.26,321.08a1.3,1.3,0,0,0-.82,1.39q.51,4.86,1,9.73a.91.91,0,0,0,.94.9l.12,0a1.28,1.28,0,0,0,.82-1.38c-.34-3.24-.68-6.49-1-9.73A.89.89,0,0,0,237.26,321.08Z"/>
    <path d="M231.12,322.84a1.29,1.29,0,0,0-.82,1.39c.34,3.24.67,6.48,1,9.72a.9.9,0,0,0,.94.89l.12,0a1.31,1.31,0,0,0,.82-1.39l-1-9.72A.86.86,0,0,0,231.12,322.84Z"/>
    <path d="M243.48,319.61a1.24,1.24,0,0,0-.88,1.32c.19,3.28.37,6.56.56,9.84a.92.92,0,0,0,.94,1h.06a1.24,1.24,0,0,0,.88-1.32q-.27-4.92-.56-9.84C244.45,319.94,244,319.48,243.48,319.61Z"/>
    <path d="M262.65,316.85a1.2,1.2,0,0,0-.91,1.27c.12,3.29.23,6.59.35,9.89a1,1,0,0,0,.94,1h0a1.2,1.2,0,0,0,.91-1.27c-.12-3.3-.23-6.59-.35-9.89A1,1,0,0,0,262.65,316.85Z"/>
    <path d="M250.07,318.93a1.22,1.22,0,0,0-.88,1.3l.48,9.87a.93.93,0,0,0,.94,1h.06a1.23,1.23,0,0,0,.89-1.3c-.16-3.29-.33-6.58-.49-9.86C251,319.28,250.6,318.84,250.07,318.93Z"/>
    <path d="M256.06,317.89a1.19,1.19,0,0,0-.9,1.28c.14,3.29.27,6.59.41,9.88a1,1,0,0,0,.94,1h.05a1.21,1.21,0,0,0,.9-1.28c-.14-3.29-.28-6.59-.41-9.88A1,1,0,0,0,256.06,317.89Z"/>
    <path d="M204.55,329.93a1.42,1.42,0,0,0-.74,1.49c.53,3.15,1.07,6.3,1.6,9.45a.82.82,0,0,0,.93.76l.18-.05a1.37,1.37,0,0,0,.74-1.48c-.53-3.15-1.06-6.31-1.6-9.46A.8.8,0,0,0,204.55,329.93Z"/>
    <path d="M199.5,332.08a1.42,1.42,0,0,0-.76,1.48l1.5,9.48a.81.81,0,0,0,.93.77l.17-.05a1.42,1.42,0,0,0,.76-1.48l-1.5-9.49A.8.8,0,0,0,199.5,332.08Z"/>
    <path d="M195.12,334.82a.78.78,0,0,0-1.16-.57,1.44,1.44,0,0,0-.66,1.54c.73,3,1.45,6.09,2.18,9.14a.79.79,0,0,0,.91.67.63.63,0,0,0,.25-.09,1.42,1.42,0,0,0,.66-1.54C196.57,340.92,195.85,337.87,195.12,334.82Z"/>
    <path d="M190.06,337.58a.77.77,0,0,0-1.18-.51,1.47,1.47,0,0,0-.62,1.57l2.46,9a.77.77,0,0,0,.9.62.82.82,0,0,0,.28-.11,1.47,1.47,0,0,0,.62-1.57Z"/>
    <path d="M218,327a1.36,1.36,0,0,0-.77,1.45c.47,3.19.94,6.37,1.4,9.56a.86.86,0,0,0,.93.82l.17,0a1.36,1.36,0,0,0,.77-1.45l-1.41-9.57A.83.83,0,0,0,218,327Z"/>
    <path d="M224.77,323.19a1.32,1.32,0,0,0-.82,1.4q.51,4.85,1,9.71a.87.87,0,0,0,.94.87l.12,0a1.32,1.32,0,0,0,.82-1.4c-.34-3.24-.68-6.47-1-9.71A.86.86,0,0,0,224.77,323.19Z"/>
    <path d="M211.08,328a1.37,1.37,0,0,0-.78,1.44c.43,3.2.87,6.39,1.3,9.59a.84.84,0,0,0,.93.81l.16,0a1.39,1.39,0,0,0,.78-1.45c-.44-3.2-.87-6.39-1.3-9.59A.83.83,0,0,0,211.08,328Z"/>
    <path d="M270.22,316.07a1.18,1.18,0,0,0-.9,1.26c.11,3.3.23,6.6.34,9.9a1,1,0,0,0,.95,1h0a1.17,1.17,0,0,0,.9-1.25c-.11-3.3-.23-6.6-.34-9.9A1,1,0,0,0,270.22,316.07Z"/>
    <path d="M328.24,317.9a1,1,0,0,0-1.05,1q-.51,4.92-1,9.83A1.14,1.14,0,0,0,327,330h.11a1,1,0,0,0,.94-1q.51-4.92,1-9.84A1.15,1.15,0,0,0,328.24,317.9Z"/>
    <path d="M348.28,320.83a.93.93,0,0,0-1.08.91c-.44,3.24-.87,6.49-1.31,9.74a1.2,1.2,0,0,0,.79,1.35.39.39,0,0,0,.15,0,1,1,0,0,0,.93-.92c.43-3.25.87-6.5,1.3-9.74A1.22,1.22,0,0,0,348.28,320.83Z"/>
    <path d="M341.38,320.56a.94.94,0,0,0-1.09.9l-1.41,9.73a1.21,1.21,0,0,0,.77,1.36l.17,0a1,1,0,0,0,.93-.92c.46-3.24.93-6.49,1.4-9.73A1.21,1.21,0,0,0,341.38,320.56Z"/>
    <path d="M354.81,321.94a.93.93,0,0,0-1.11.85q-.81,4.81-1.6,9.65a1.22,1.22,0,0,0,.74,1.39.57.57,0,0,0,.18,0A1,1,0,0,0,354,333c.53-3.22,1.07-6.44,1.6-9.65A1.24,1.24,0,0,0,354.81,321.94Z"/>
    <path d="M370.49,327.07a.87.87,0,0,0-1.19.67l-2.46,9.3a1.29,1.29,0,0,0,.62,1.48,1,1,0,0,0,.28.08.92.92,0,0,0,.91-.75c.81-3.1,1.63-6.19,2.45-9.29A1.31,1.31,0,0,0,370.49,327.07Z"/>
    <path d="M334.59,317.56a1,1,0,0,0-1.06,1c-.33,3.27-.67,6.55-1,9.82a1.17,1.17,0,0,0,.82,1.31h.12a1,1,0,0,0,.94-1q.5-4.92,1-9.82A1.17,1.17,0,0,0,334.59,317.56Z"/>
    <path d="M279.68,314.89a1.14,1.14,0,0,0-.94,1.2V327a1,1,0,0,0,.94,1.11,1.14,1.14,0,0,0,.95-1.2V316A1,1,0,0,0,279.68,314.89Z"/>
    <path d="M359.86,323.46a.91.91,0,0,0-1.1.85l-1.5,9.68a1.23,1.23,0,0,0,.76,1.38l.17,0a.94.94,0,0,0,.93-.88l1.5-9.68A1.23,1.23,0,0,0,359.86,323.46Z"/>
    <path d="M365.4,324.92a.88.88,0,0,0-1.16.72c-.73,3.15-1.45,6.29-2.18,9.43a1.28,1.28,0,0,0,.66,1.46,1.14,1.14,0,0,0,.25.06.92.92,0,0,0,.91-.79c.73-3.14,1.45-6.28,2.18-9.42A1.28,1.28,0,0,0,365.4,324.92Z"/>
    <path d="M303.31,315.55a1.07,1.07,0,0,0-1,1.1q-.19,5-.41,9.92a1.08,1.08,0,0,0,.9,1.2h.05a1.07,1.07,0,0,0,.94-1.11c.14-3.3.27-6.61.41-9.92A1.06,1.06,0,0,0,303.31,315.55Z"/>
    <path d="M296.71,315.17a1.08,1.08,0,0,0-1,1.13c-.12,3.31-.23,6.61-.34,9.92a1.05,1.05,0,0,0,.9,1.18h0a1.09,1.09,0,0,0,.94-1.13c.12-3.31.23-6.61.35-9.92A1.06,1.06,0,0,0,296.71,315.17Z"/>
    <path d="M289.14,315.14a1.11,1.11,0,0,0-1,1.14c-.11,3.31-.23,6.62-.34,9.93a1,1,0,0,0,.91,1.17h0a1.1,1.1,0,0,0,.94-1.14c.11-3.31.23-6.62.34-9.93A1,1,0,0,0,289.14,315.14Z"/>
    <path d="M315.88,316a1,1,0,0,0-1,1.07c-.19,3.3-.37,6.6-.56,9.9a1.09,1.09,0,0,0,.88,1.23h.06a1,1,0,0,0,.94-1.07q.29-5,.56-9.9A1.11,1.11,0,0,0,315.88,316Z"/>
    <path d="M322.1,316.81a1,1,0,0,0-1.05,1l-1,9.84a1.14,1.14,0,0,0,.82,1.29H321a1,1,0,0,0,.94-1c.34-3.28.67-6.56,1-9.84A1.13,1.13,0,0,0,322.1,316.81Z"/>
    <path d="M309.29,316a1,1,0,0,0-1,1.08c-.16,3.31-.32,6.61-.49,9.92a1.09,1.09,0,0,0,.89,1.21h.06a1.06,1.06,0,0,0,.94-1.09l.48-9.91A1.07,1.07,0,0,0,309.29,316Z"/>
  </g>
</svg>
