<svg xmlns="http://www.w3.org/2000/svg" viewBox="0 0 1260 1012.04">
  <g>
    <path d="M0,90.08v920C420,738.76,840,1193.28,1260,922V2C840,273.28,420-181.24,0,90.08Z" style="fill: #ffbe29"/>
    <path d="M52.5,519.84C110.25,618.28,168,729.3,225.75,849.13c57.75-8,115.5-7.1,173.25-1.21V81.25c-57.75-5.88-115.5-6.74-173.25,1.21C168,218.19,110.25,362.72,52.5,519.84Z" style="fill: #eb7400"/>
    <path d="M52.5,903.17a541.11,541.11,0,0,1,173.25-54V82.46a541.36,541.36,0,0,0-173.25,54Z" style="fill: #00534e"/>
    <path d="M451.5,854.55c253.75,37.74,507.5,150.55,761.25,18.29V106.17C959,238.44,705.25,125.63,451.5,87.88Z" style="fill: #8d153a"/>
    <polygon points="1140.4 775.47 1140.4 775.48 1140.4 775.47 1140.4 775.47" style="fill: #ffbe29"/>
    <path d="M1201.24,806.67c-10.17-9.73-34.13,1.73-45.81-6.82-7.88-5.62-15-24.35-15-24.37s.29,14.12,1.67,22.57c1.61,9.85,4.44,22.43,5.66,32.4,1.38,26.71.4,59.66,24.74,52,9.69-3.21,11.72-10.37,16.92-13.93,3.46-2.36,11.67-6.49,11.67-6.51q-.33-6-.67-12C1200.29,848.07,1213.42,818.21,1201.24,806.67Z" style="fill: #ffbe29"/>
    <path d="M1177.38,801.25c-7.88.53-16,.79-21.28-3-7.07-5-13.68-21.31-14.59-23.62l0-1.2-2.87,1,.69,1.8c0,2.3.41,14.67,1.69,22.52.62,3.83,1.42,8,2.25,12.39,1.3,6.8,2.65,13.83,3.39,19.87.12,2.33.22,4.7.32,7.08,1.06,24.66,2.27,53.3,25.46,46,.7-.23,1.35-.48,2-.74,5.17-2.22,8-5.62,10.56-8.66a24.3,24.3,0,0,1,4.62-4.66c3.34-2.28,11.44-6.36,11.52-6.42l1.19-.61-.75-13.43c.12-.47.49-1.63.83-2.66,2.81-8.67,10.29-31.74-.33-41.77C1196.38,799.63,1186.72,800.66,1177.38,801.25Zm23,45c-.86,2.62-1.17,3.6-1.13,4.43q.29,5.15.58,10.29c-2.43,1.27-7.91,4.11-10.64,6a27.22,27.22,0,0,0-5.29,5.27c-2.73,3.25-5.55,6.62-11.38,8.54-21.24,6.75-22.33-19.15-23.38-43.66q-.15-3.63-.33-7.19v-.15c-.76-6.18-2.12-13.3-3.43-20.19-.84-4.37-1.63-8.5-2.24-12.27-.72-4.41-1.14-10.44-1.38-15.13,2.78,6.11,7.67,15.44,13,19.23,5.62,4,14,3.77,22.07,3.24,9.05-.56,18.4-1.54,23.62,3.56C1209.86,817.15,1203.24,837.56,1200.42,846.25Z"/>
    <path d="M508.82,765.38C497.14,776,473.18,770.9,463,784.31c-12.18,15.73.95,41.05.84,43.06q-.35,6.11-.67,12.2s8.21,1.45,11.67,2.82c5.2,2.05,7.23,8.56,16.92,9.34,24.35,2.06,23.36-30,24.74-57.18,1.22-10.19,4-23.24,5.66-33.35,1.38-8.67,1.67-22.82,1.67-22.84S516.7,758.2,508.82,765.38Z" style="fill: #ffbe29"/>
    <polygon points="523.85 738.36 523.85 738.36 523.85 738.36 523.85 738.36" style="fill: #ffbe29"/>
    <path d="M522.84,737.45c-.07.19-7.11,19.6-14.69,26.5-5.26,4.79-13.4,6.31-21.28,7.85-9.34,1.82-19,3.81-24.65,11.23-10.62,13.72-3.14,34.18-.33,41.89.34.92.71,2,.83,2.38L462,841l1.19.2c.09,0,8.18,1.45,11.52,2.78a15.34,15.34,0,0,1,4.62,3.32c2.55,2.32,5.39,4.92,10.56,5.83.63.11,1.28.19,2,.25,23.19,2,24.4-26.25,25.46-51.28.1-2.4.2-4.78.32-7.13.74-6.17,2.09-13.43,3.39-20.45.83-4.53,1.63-8.81,2.25-12.74,1.34-8.4,1.67-21.64,1.7-23.12l-1.11-.28,1.11.27Zm-1.76,23.18c-.61,3.88-1.4,8.14-2.23,12.65-1.32,7.11-2.68,14.46-3.44,20.79v.15q-.18,3.59-.33,7.25c-1.05,24.85-2.14,50.41-23.38,48.62-5.83-.47-8.65-3.05-11.38-5.54A17.42,17.42,0,0,0,475,840.8a74.33,74.33,0,0,0-10.64-2.64q.3-5.25.58-10.48c.05-.85-.27-1.72-1.13-4.06-2.82-7.75-9.44-25.89,0-38,5.22-6.85,14.57-8.77,23.62-10.52,8.09-1.58,16.45-3.14,22.07-8.25,5.3-4.83,10.19-15,13-21.52C522.22,750,521.8,756.12,521.08,760.63Z"/>
    <polygon points="1140.4 266.22 1140.4 266.22 1140.4 266.22 1140.4 266.22" style="fill: #ffbe29"/>
    <path d="M1201.07,128.86s-8.21,3.86-11.67,4.64c-5.2,1.2-7.23-4-16.92,1.05-24.35,12.3-23.36,43.42-24.74,71.46-1.22,10.87-4,25.48-5.66,36.47-1.38,9.41-1.67,23.73-1.67,23.74s7.14-23.7,15-35.36c11.68-17.07,35.64-26.68,45.81-46.85,12.18-23.7-1-40.42-.84-42.52Q1200.75,135.18,1201.07,128.86Z" style="fill: #ffbe29"/>
    <path d="M1201.53,140.83l.75-14.17-1.19.56c-.09.06-8.18,3.83-11.52,4.59a8.39,8.39,0,0,1-4.62-.43c-2.85-.84-6.07-1.79-12.54,1.57-23.19,11.75-24.4,40.23-25.46,66-.1,2.46-.2,4.9-.32,7.31-.75,6.59-2.09,14.58-3.39,22.31-.84,5-1.63,9.71-2.25,14-1.32,9-1.67,22.51-1.7,24.05l1.11-.33,1,.37c.07-.23,7.11-23.45,14.69-34.69,5.26-7.78,13.4-14,21.28-20.38,9.34-7.48,19-15.64,24.65-26.74,10.62-20.69,3.14-36.24.33-42.11C1202,142,1201.65,141.18,1201.53,140.83Zm-1.08,42.42c-5.22,10.24-14.57,18.12-23.62,25.35-8.09,6.49-16.45,12.91-22.07,21.21-5.3,7.84-10.19,20.67-13,28.73.24-4.85.66-11.19,1.38-16.09.61-4.22,1.4-8.91,2.24-13.88,1.31-7.84,2.67-15.95,3.43-22.69v-.16c.12-2.45.23-4.94.33-7.43,1.06-25.53,2.14-51.37,23.37-62.15.65-.33,1.26-.62,1.84-.87,4.63-2,7.12-1.24,9.55-.53a9.44,9.44,0,0,0,5.29.45,75.7,75.7,0,0,0,10.64-4.14q-.3,5.43-.58,10.85c0,.88.27,1.55,1.13,3.33C1203.24,151.15,1209.86,165,1200.45,183.25Z"/>
    <polygon points="523.85 229.11 523.85 229.11 523.85 229.11 523.85 229.11" style="fill: #ffbe29"/>
    <path d="M516.51,170.11c-1.38-27.6-.39-59.58-24.74-66.26-9.69-2.62-11.72,3.24-16.92,3.55-3.46.21-11.67-1-11.67-1q.33,6.19.67,12.4c.11,2-13,23.28-.84,42.8,10.17,16.49,34.13,19.7,45.81,34.74,7.88,10.11,15,32.69,15,32.72s-.29-14.28-1.67-23.48C520.56,194.9,517.73,180.76,516.51,170.11Z" style="fill: #ffbe29"/>
    <path d="M523.26,205.48c-.62-4.17-1.42-8.76-2.25-13.61-1.3-7.52-2.65-15.29-3.39-21.75-.12-2.39-.22-4.81-.32-7.25-1.06-25.36-2.27-54.28-25.46-60.63-6.45-1.75-9.69.11-12.54,1.75a10.36,10.36,0,0,1-4.62,1.77c-3.34.2-11.43-.94-11.52-1l-1.19-.16.75,13.92c-.12.39-.49,1.31-.83,2.12-2.81,6.83-10.29,25,.33,42,5.65,9.18,15.31,14.32,24.65,19.39,7.88,4.26,16,8.75,21.28,15.5,7.07,9.06,13.68,28.94,14.59,31.74,0,.41,0,.81,0,1.22l2.88.56-.69-2.17A227,227,0,0,0,523.26,205.48Zm-13.77-10.27c-5.62-7.21-14-11.82-22.07-16.21-9.05-4.91-18.4-9.89-23.62-18.38-9.41-15.08-2.79-31.16,0-38,.86-2.07,1.17-2.84,1.13-3.7l-.58-10.66A75.79,75.79,0,0,0,475,109a11.75,11.75,0,0,0,5.29-2c2.73-1.56,5.54-3.18,11.38-1.6,21.24,5.82,22.33,32,23.38,57.19.1,2.47.21,4.94.33,7.37v.15c.76,6.62,2.12,14.49,3.44,22.11.83,4.82,1.62,9.38,2.23,13.5.73,4.83,1.15,11.07,1.38,15.88C519.68,214,514.8,202,509.49,195.21Z"/>
    <path d="M1053,344.33c-2.07,4-2.63,7-2,10.69.74,4.54.45,5.22-2.46,5.7-3.83.61-11.38-5.28-24.79-20-20.44-22.39-45.28-42-63.22-49.44-11.51-4.59-36.1-6.86-47.81-4.37-12.66,2.85-27.64,12.35-35.8,23-14.46,18.77-14.69,45.46-.61,71.07l4,7.31-2.73,6c-4,8.66-3.63,20.82.84,30.14,2,4.1,4,7.47,4.42,7.5s1-2.45,1.12-5.53c.4-7.78,2.69-12.84,6.63-14.63,3.56-1.66,5.85-.5,22.11,9.76,17.1,10.75,45.23,12,75.14,1.35,14.66-5.15,32-6.73,39.56-3.08,13.94,6.7,17.17,28.31,6.92,46.65-4.44,7.87-8.72,11.52-23.08,18.75-10.93,5.32-13.52,6.13-38.37,6.9-21.23.4-28.86.76-37.53,3.34-9.4,2.62-15.19,3.08-42.83.33q-16-1.68-31.95-3.91,1.77,2.32,3.55,4.64a70.41,70.41,0,0,0,6.11,7c2.41,2.24,2.33,2.51-1.25,4.11-2.1.95-6.78,1.43-10.38,1.05-2.19-.23-4.37-.46-6.56-.71q-.44,4-.88,8c-.48,4.42-.45,9.65.08,11.62.78,2.9.49,3.28-1.54,2a80,80,0,0,0-8.53-4.2,47.35,47.35,0,0,1-9.92-5.89c-3.59-3-4-3-5.32.22-1.18,2.91-12.28,13.42-13.91,13.17-.27,0-.61-2.42-.76-5.28s-1.75-10.51-3.56-17-3.69-13.53-4.19-15.68c-.75-3.23-1.09-3.45-2-1.25a50.06,50.06,0,0,0-1.95,9.1,50.76,50.76,0,0,1-3.72,12.49l-2.86,6-1.83-5.84c-1.95-6.27-5.2-13-6.38-13.17-.4-.07-1.08,1.72-1.51,4-.89,4.71-8.6,16.88-10.49,16.54-.69-.12-1.26-4-1.26-8.68s-.61-8.57-1.36-8.7-1.36,1-1.36,2.44c0,3.58-6.58,13.08-8.79,12.68-1-.18-2.51.81-3.44,2.19-2.43,3.6-4.41,2.66-3.39-1.59.47-2,.16-6.92-.7-10.95s-1.77-8.3-2-9.51c-.32-1.52-2.68-1.57-7.67-.18-8.07,2.23-10.78,1-6.63-2.91,1.52-1.44,3.83-7,5.13-12.37s3.23-10,4.27-10.25c1.47-.39,1.39.42-.34,3.5a18.12,18.12,0,0,0-2.25,6.88,27.91,27.91,0,0,1-2.06,7.93c-1.13,2.78-1.84,5.39-1.58,5.8s3.33-.7,6.82-2.48l6.35-3.26c0,1.33,0,2.66,0,4a107.74,107.74,0,0,0,1.7,13.13l1.68,9.15,4.32-2.11c4.41-2.16,8.59-12,8.59-20.18,0-4.05,1.59-3.15,2.24,1.27.19,1.3,1.19,6.21,2.22,10.92q.93,4.28,1.87,8.56l3-4.7a45,45,0,0,0,4.54-11.7c1.5-6.68,3.86-9.28,3.86-4.24,0,3.64,6.79,17.76,8.09,16.85.64-.44,1.9-5.13,2.8-10.42,1.89-11,4.93-18.22,6.87-16.27a2.66,2.66,0,0,1,.63,2.77c-.38.8,1.18,8.38,3.47,16.85s4.59,17,5.11,18.93c.84,3.13,1.6,2.81,6.51-2.84,3-3.51,5.83-7.55,6.16-9,.51-2.13,1.19-2,4.05,1,4,4.18,17.43,11.63,18.47,10.29.39-.49.79-5.6.89-11.35.05-3.49.11-7,.17-10.46l3.87,1.6c2.12.88,6.59,1.31,9.93.95l6.07-.67c-1.81-2-3.61-3.95-5.41-5.94-3-3.27-6-7.44-6.68-9.25s-3.4-3.77-6.39-4.48c-8.1-1.87-22.46-15.49-22.46-21.13,0-1.06,2,1,4.42,4.57,5.39,7.91,12.88,13.34,19.42,14.06l4.9.53-3-6.2c-1.74-3.57-3.3-10.16-3.67-15.47-.58-8.47-1.19-9.86-7.2-16.67a99.2,99.2,0,0,1-9.93-13.43l-3.38-6c-.57,2.12-1.14,4.23-1.72,6.35-.94,3.5-2.1,6.3-2.57,6.24s-2.28-2.42-4-5.25-3.54-5.19-4-5.24-2,3.22-3.46,7.25L811.74,443c-.69-1.58-1.38-3.17-2.06-4.75a81.34,81.34,0,0,0-6-10.52c-2.15-3.17-3.27-5.67-2.51-5.55s3.42,3.48,5.89,7.47q2.24,3.63,4.49,7.25c.6-1.52,1.21-3,1.82-4.55a23.37,23.37,0,0,0,1-10.68c-.71-5.28-.61-5.57.75-2.12a52.67,52.67,0,0,0,5.84,9.64l4.26,5.63,2.94-7.48c2.93-7.44,2.95-7.46,4.29-2.61,1.78,6.5,14.67,23.57,25.65,33.72,1.7,1.57,1-3.28-2.14-14.61A53.51,53.51,0,0,1,854.48,432c0-5.2-1-7.62-5.58-13.19-6.57-8.06-8.69-13.53-9.93-25.46-.5-4.84-1.66-10.29-2.56-12.12-1.34-2.71-1.56-1.31-1.2,7.59.24,6-.29,13.36-1.18,16.35q-.82,2.71-1.63,5.43-.61-2.43-1.25-4.86c-.69-2.68-3.74-7.57-6.78-10.9s-5.17-6.49-4.73-7,3.55,2.56,6.94,6.85c5.16,6.53,6.3,7.3,7,4.82.84-2.92,0-16.19-1.62-25.6-.81-4.7-.74-4.67,3.14,1.5,2.87,4.54,4.45,9.72,5.67,18.56,1.56,11.24,2.35,13.19,9.35,23,4.2,5.86,7.85,10.35,8.12,10s.8-14.22,1.18-30.84c.73-31.89-.1-39.57-5.37-50l-2.7-5.37,4.25-6.24c5.56-8.15,8.11-14.92,9.21-24.38l.9-7.69-4.8,6.17c-3.94,5-5.81,6-10.37,5.53s-6.27-1.83-9.31-6.92a47.93,47.93,0,0,0-16.33-15.89c-2.3-1.29-3.06-1-3.06,1.3,0,1.66-1.27,6.28-2.82,10.27l-2.82,7.24-5.9-9.38c-3.62-5.76-7.92-10.49-11.12-12.21-8.17-4.42-8.61-4.2-8.61,4.69,0,13.48-3.94,15.37-11,5.21-5.41-7.76-9.89-10-20.15-10.22l-7.92-.18c.48,1.83.95,3.66,1.43,5.49,1.19,4.58.92,6.37-1.63,10.85-4.14,7.26-9.52,9.73-17.8,8.12-3.81-.74-8.58-.53-10.6.47s-7,1.62-11.15,1.36-8.5-.14-9.75.28c-1.94.66-2.16-.26-1.53-6.6,1-9.71-3.78-18-11.16-19.54-9.58-2-14,9.54-10.24,26.85.72,3.33,1.66,8.53,2.1,11.57s4.76,12.18,10,21c5.1,8.51,9.91,17.26,10.7,19.44a29.27,29.27,0,0,0,5.81,8.41c1.45,1.48,2.91,2.95,4.37,4.43-.2-2.32-.39-4.63-.58-6.95-.63-7.63.49-8.58,3.22-2.73a39.68,39.68,0,0,0,5.51,7.91c3.24,3.56,3.74,3.71,3.74,1.19a36.47,36.47,0,0,1,1.47-7.92l1.47-5q1.27,3.86,2.54,7.7c1.41,4.24,6,14.14,10.13,22,8.08,15.21,13,31.39,10.46,34.43-1,1.23-3.82.61-9.59-2.19-4.48-2.18-10-4-12.31-3.94-4.68,0-5-.93-2.17-5.63,3-5,2.55-6-3.41-7.14-6.91-1.36-24-9.72-30.63-14.92-6.4-5-7.87-4.43-9.76,4-.85,3.81-2.4,10.7-3.45,15.33-.63,2.8-1.27,5.6-1.9,8.4l6.92.5a47.06,47.06,0,0,0,10.88-.42c2.18-.5,4.16-.59,4.4-.21s-.73,3.63-2.16,7.2c-.86,2.17-1.73,4.34-2.59,6.5l4.31-.38a26.61,26.61,0,0,0,7.94-2.21c3.46-1.73,3.74-1.5,6.47,5.46,3.37,8.56,6,8.78,6.65.54.62-8.51,2.56-6.84,6.22,5.33,3.52,11.7,7.18,16.3,7.89,9.92.23-2.12,2.13-5.28,4.21-7,4.21-3.53,7.39-1.63,9.21,5.52,1.88,7.4-2.32,13.9-14.55,22.35-24.49,16.87-38.73,43.46-42.79,80.42-3.67,33.3,7.78,71,30.75,100.94,11,14.34,28.46,30.43,27.35,25.33-4.71-21.6-4.56-61.08.26-66.84.72-.86.48,3.21-.55,9.06-3.83,21.77-2.17,40,7.64,83.86,8.88,39.61,7.65,55.65-4.91,64.06-4,2.69-6.63,2.79-17.47.49-11.77-2.52-13-2.45-16.83,1.19s-8.41,16.55-8.41,23.08c0,3.53,2.69,3.62,8,.23h0l4.57-2.94q1,2.13,2,4.26a9.15,9.15,0,0,0,14.62,2.75l3.66-3.28,3.07,4.57c4,6,11.56,7.42,16.37,3.06,3.37-3,3.84-3,6.06.14,1.33,1.9,5.22,4.48,8.65,5.72,6.18,2.23,6.27,2.17,9.88-5.14,3-6.13,3.5-8.74,2.78-15.29-.48-4.34-1-11.29-1.14-15.44-.28-7.51-.25-7.54,7.2-10.12a69.42,69.42,0,0,0,10.58-4.59c3-1.86,11.17-14.74,11.17-17.52,0-.74-3.2-2.32-7.12-3.55-15.57-4.91-18.21-17.6-8.08-38.68,16.51-34.43,26.47-69.19,26.54-92.12,0-10.26.43-13.65,1.33-11.3,3.69,9.6-2.92,47-12.93,73l-4,10.47,3.85-.74c2.11-.4,14.55-6.28,27.64-13.37,35.82-19.6,48.12-23.58,71.3-21,19.42,2,27.7,7.51,41.41,28.42,7.26,11,14.26,18.87,27.06,29.93,27.28,23.3,28.41,24.85,29.71,54.18,1.31,29.53.66,31.37-14.72,37.56-13.16,5.22-21.4,14.44-23.61,27-1.18,6.68,1.3,6.81,7.93.26l4.86-4.82,2.16,4.43c2.84,5.82,8.88,5.44,13.89-.95q1.9-2.41,3.79-4.84l3.87,4.15c6,6.44,14,3.8,16.28-5.24.43-1.74,1.59-1.34,3.93,1.33,4.4,5,15.66,5.75,16.88,1.13.46-1.75-.42-5.73-2-8.87-6.56-13.33-8.61-19.92-8.69-27.71-.12-10.86,2.1-16.36,10.56-26.54,10.28-12.42,13.46-26.9,5.64-25.51-4.83.82-9.69-4.66-12.79-14.36-6.31-19.74-5.08-43,4.39-82.94,9.62-40.62,10.69-48.09,10.72-74.22,0-21.16-.33-24.74-3.62-35.77a133.35,133.35,0,0,0-9.09-22l-5.42-9.77,7-9.45c21.25-29.34,16.9-70.37-8.67-82.71-7.83-3.92-9.78-4-23.49-2.47a182.83,182.83,0,0,0-27.88,5.64,114.81,114.81,0,0,1-27.91,4.38c-13.36.2-15.63-.39-20.78-4.44-5.37-4.26-6.29-6.28-7.34-15.95-.22-2-1.17-4-2.11-4.45-1.83-.88-10.26,9.51-11.51,14.18-.61,2.31-1.11,2.12-2.92-1.07a49.13,49.13,0,0,1-3.71-10.75c-2.13-9.52.48-16.41,8.06-21.37L921.3,361l-3.46-3.27c-7.15-6.72-19.31-3-23.7,7.41-1.25,2.94-2.6,5.32-3,5.3s-2.78-3.07-5.25-6.79c-9.23-13.91-6.06-33.09,6.29-38.15,6.58-2.72,12.41,0,13.62,6.48,1.85,9.89,7.6-2.71,6.57-14.37-.69-7.76-.58-8,3.08-7.86,5.09.23,15.92,10.27,19.27,17.9,3.89,8.88,3.61,22.78-.67,33.08q-1.68,4-3.37,8.07l4.4-1.21c6.45-1.78,12.72-7.63,15.89-14.75,3.35-7.53,3.71-22.14.74-30-2.88-7.62-2.55-8.83,1.71-6.28,7.24,4.31,11.11,9,14,17.25,2.61,7.39,2.76,9.24,1.34,17.06A63.16,63.16,0,0,1,964.44,365c-2.34,4.6-2.42,5.37-.55,5.32,3.47-.07,10.71-5.12,13.29-9.25a49.06,49.06,0,0,0,4.21-11.26c.62-2.49,1.23-5,1.85-7.48.71,1.84,1.42,3.67,2.12,5.51a36.09,36.09,0,0,0,16,18.47c7.66,4.15,10.84,4.07,6.84,0-2.7-2.76-7.68-23.67-6.17-25.89.89-1.3,11.29,9.55,23.16,23.65,11.23,13.33,18.28,17.1,28.6,15.34,13.17-2.3,20.84-20.78,14.92-35.37C1065.23,335.51,1057.54,335.67,1053,344.33Z" style="fill: #ffbe29"/>
    <path d="M1061.39,333.45c-4,.18-7.86,3.28-10.59,8.54s-3.45,9.44-2.63,14.46v0c-3.19-.07-10.77-6.37-22.54-19.25-20.74-22.64-46-42.48-64.27-50-11.84-4.71-37.11-7-49.15-4.49-13.33,3-28.66,12.71-37.29,23.92-15.52,20.1-15.84,49.55-.83,76.89l2.64,4.79c-.52,1.14-1,2.27-1.57,3.41-4.63,10.09-4.25,24.15,1,35,4.46,9.29,5.73,9.35,6.78,9.46,3.54.26,3.9-6.91,4-9.26.31-6.08,1.9-9.81,4.71-11.09,2.44-1.15,4.29-.36,20,9.59,17.62,11.1,46.33,12.5,76.8,1.59,13.87-4.89,30.85-6.52,37.85-3.16,5.74,2.81,9.57,8.4,10.76,15.88,1.22,7.64-.57,16.48-4.89,24.17-3.78,6.67-7.08,9.92-21.67,17.24-10.59,5.14-13,5.92-37.57,6.68-21.41.4-29.26.78-38.15,3.42-9.17,2.54-14.69,3-42.16.26q-15-1.57-29.93-3.63l-6-12.3c-1.42-2.91-2.78-8.74-3.09-13.26-.09-1.32-.19-2.51-.31-3.6,1.16,1.19,2.31,2.3,3.41,3.33,1.7,1.57,3.22,1,4.08,0,2-2.35,1.54-6.37-2.1-19.54a47.76,47.76,0,0,1-1.28-10.16c0-.48,0-.94,0-1.39,1.18.68,2,.38,2.88-.71,1-1.3,1.35-1.74,2.09-33.71.71-31.34.09-40.81-6-52.82l-1.19-2.34c.86-1.26,1.72-2.51,2.57-3.77a54.51,54.51,0,0,0,10-26.52q1.17-10.07,2.35-20.13-5.56,7.18-11.14,14.31c-3.59,4.6-4.79,5-8.36,4.58s-4.71-1.17-7.19-5.32a51.46,51.46,0,0,0-17.63-17.21c-1.11-.62-3.4-1.92-5.19-.21-1.07,1-1.61,2.73-1.61,5a41.85,41.85,0,0,1-2.47,8.41c-.32.83-.64,1.66-1,2.49l-3.13-5c-4-6.33-8.75-11.5-12.43-13.49-4.76-2.57-7.9-4.29-10.18-2.09-2.09,2-2.09,6.05-2.09,10.32,0,6.86-1.1,7.83-1.11,7.84s-1.38.25-5.1-5.07c-6.07-8.69-11.3-11.37-22.38-11.6q-5.87-.12-11.73-.29,1.42,5.48,2.84,11c.73,2.79.82,3.15-1.25,6.78-3.58,6.3-8.07,8.3-15.46,6.86-3.68-.72-9.09-.75-11.86.63-1.52.76-6.07,1.42-10.17,1.16a62.12,62.12,0,0,0-8.19,0c0-.26,0-.53.08-.82a28.29,28.29,0,0,0-2.87-15.86c-2.6-4.92-6.57-8.16-11.18-9.13-4.93-1-9.07,1-11.65,5.62-3.22,5.83-3.71,15.39-1.36,26.24.68,3.15,1.6,8.24,2,11.11.94,6.61,9.83,21.62,10.84,23.3,5.5,9.19,9.66,16.94,10.23,18.45,1.2,3.34,4.4,7.69,6.92,10.26l9.38,9.5q-.49-6.09-1-12.19a48,48,0,0,0,4,5.23c2.34,2.57,4.36,4.79,6.37,3.54,1.82-1.12,1.82-4.11,1.82-5.09a24.16,24.16,0,0,1,.44-3,213.37,213.37,0,0,0,10,21.56c7.11,13.39,10.35,24.77,10.44,28.37-.8-.08-2.65-.56-6.79-2.56a49.18,49.18,0,0,0-11.79-4.05,9.43,9.43,0,0,0,1.12-7.55c-1.24-4-4.57-4.66-7.79-5.31-6.51-1.28-23.35-9.49-29.56-14.39-3.21-2.52-6.31-4.69-9-3.37s-3.72,5.29-4.61,9.28c-.84,3.81-2.39,10.69-3.44,15.31l-3.24,14.26,11.32.82a54.76,54.76,0,0,0,10.26-.25l-5.54,13.86,10.43-.93a28.12,28.12,0,0,0,8.62-2.4,13.3,13.3,0,0,1,1.21-.56c.45.94,1.12,2.65,1.52,3.67.93,2.38,3.77,9.64,7.69,9.1,2.07-.28,3.43-2.54,4.06-6.74.28.87.6,1.88,1,3,3.17,10.53,6.38,15.87,9.55,15.82,1,0,3.27-.61,3.85-5.92a10.28,10.28,0,0,1,3-4.48c1.28-1.07,2.42-1.47,3-1.08s1.23,1.77,1.76,3.84c.76,3,.19,8-13.34,17.37-25.12,17.29-40,45.07-44.16,83.09-3.83,34.76,8.09,74.26,31.88,105.27a177.64,177.64,0,0,0,17.14,19c7.27,6.95,10.37,8.55,12,8.57,1.28,6.49,2.8,13.64,4.58,21.62,9.35,41.75,6.12,52.73-3.62,59.24-3.28,2.18-5.13,2.47-16,.18-12-2.58-14.08-2.68-18.68,1.75-4.36,4.19-9.51,18.37-9.51,26.18a8.94,8.94,0,0,0,2.1,6.16c2.2,2.3,5.17,1.92,10.25-1.34l2.33-1.5c.13.3.27.59.41.89a12.83,12.83,0,0,0,6.64,6.65,11.4,11.4,0,0,0,12.06-2.21l1.76-1.57,1.29,1.92a15.5,15.5,0,0,0,9.85,6.9,11.7,11.7,0,0,0,10.2-2.92,23.53,23.53,0,0,1,1.82-1.52c.14.18.33.44.6.83,2,2.88,6.65,5.7,10.17,7,7.29,2.63,8.48,2,12.69-6.53,3.45-7,4.08-10.58,3.23-18.28-.46-4.15-1-11-1.11-15a38.33,38.33,0,0,1,0-4c.54-.59,2.84-1.39,5.28-2.24a69.74,69.74,0,0,0,11-4.79c2.86-1.79,12.71-15.45,12.71-21.08,0-3.9-2.36-5.85-9.71-8.14-6-1.89-9.73-4.92-11-8.95-1.52-5,.21-12.84,5-22.84,2.92-6.08,5.63-12.17,8.12-18.21l4.85-.93c2.68-.5,16.53-7.25,28.19-13.6,35.48-19.45,47.25-23.3,70-20.73,18.56,1.87,26.3,7.08,39.42,27.12,7.42,11.28,14.65,19.42,27.62,30.66,27.1,23.2,27.14,23.78,28.35,51.05S1010,789,996.38,794.48c-14.37,5.68-23.29,15.85-25.8,30.11-.78,4.41-.32,7.53,1.37,9.25,2.6,2.66,6.26.14,11-4.52l2.49-2.47c.18.39.37.77.55,1.15,1.61,3.3,4.07,5.35,6.93,5.74,3.68.51,7.76-1.72,11.21-6.12l2-2.51,2,2.18c4,4.27,9,5.47,13.33,3.21a14.74,14.74,0,0,0,6.43-7.56l.36.41c4.29,4.92,13.08,6.19,17.48,3.93a7.77,7.77,0,0,0,4-5.11c1.13-4.23-.87-10-2.23-12.78-6.21-12.6-8.13-18.59-8.2-25.45-.1-8.78,1.18-13,9.34-22.85s12.47-21.09,10.91-27.9c-.42-1.82-1.93-5.94-7-5.08-3.58.62-7.56-4.19-10.13-12.22-6-18.67-4.72-41,4.48-79.8,9.73-41.17,10.85-49,10.89-75.74,0-21.64-.4-25.82-3.85-37.36a137.53,137.53,0,0,0-9.44-22.82l-3.75-6.74c1.6-2.18,3.21-4.37,4.81-6.57a76.16,76.16,0,0,0,14.29-51.5c-1.79-18.05-10.41-31.75-23.66-38.27-8.25-4.12-10.56-4.27-24.67-2.66a185.39,185.39,0,0,0-28.37,5.73,112.8,112.8,0,0,1-27.41,4.29c-13.28.21-15-.45-19.4-3.92s-4.92-4.44-5.83-12.81c-.32-3-1.75-6.74-4.11-7.89-3.69-1.8-10.6,7.42-13.68,13.24a51.92,51.92,0,0,1-2.57-8c-1.16-5.18-1.29-11.13,6.54-16.28q5.36-3.51,10.69-7.11-4-3.72-8-7.49a15,15,0,0,0-15-3.37,20.53,20.53,0,0,0-12.79,12c-.32.77-.63,1.43-.9,2-.75-1-1.71-2.34-2.82-4a25.86,25.86,0,0,1-4.16-18.19c1-6.21,4.39-10.91,9.32-13,3.22-1.34,6.31-1.17,8.26.46a4.84,4.84,0,0,1,1.64,2.89c1.38,7.41,4.91,6.94,5.6,6.77,4.7-1.16,7.49-13.3,6.68-22.55-.08-.9-.2-2.16-.26-3.19l.44,0c3.81.17,13.82,9.07,16.82,15.9,3.26,7.47,3,19.75-.72,28.57q-3.39,8.15-6.79,16.25,5.44-1.44,10.9-2.95c7.2-2,14.17-8.57,17.76-16.63,3.74-8.42,4.28-23.74,1.3-33.08,5,3.49,7.88,7.44,10.12,13.76,2.29,6.48,2.35,7.26,1.12,14a59.1,59.1,0,0,1-3.83,12.66c-1.7,3.34-3.17,6.21-2.1,9.32a3.68,3.68,0,0,0,3.88,2.77c4.24-.09,12.3-5.7,15.42-10.7,1.62-2.59,3.42-7.58,4.49-11.5a39.2,39.2,0,0,0,16.38,17.93c7.9,4.31,10.76,4.39,12.21.64,1.58-4.11-1.34-7.09-2.41-8.18-1.17-1.47-3.38-9.2-4.56-15.05,3.84,3.76,10.13,10.6,17.79,19.73,11.77,14,19.47,18.08,30.55,16.19h0c7.58-1.3,14.13-7.61,17.54-16.69a35.49,35.49,0,0,0-.06-25.51C1069.1,336.16,1065.5,333.26,1061.39,333.45Zm-226.22,90a16.52,16.52,0,0,0-1.86-4.85q1.71-5.71,3.41-11.41a30.09,30.09,0,0,0,.81-4.07c1.63,7.34,4.37,12.48,9.61,18.9,4.22,5.19,4.42,6.45,4.42,9.68a59.9,59.9,0,0,0,1.73,13.49c.51,1.85.93,3.42,1.27,4.76C844.78,439.68,836.25,427.35,835.17,423.42ZM745.9,486a15.26,15.26,0,0,1,1.68-4.58c1.27-2.26,2.84-5.07,1.37-8.38a4,4,0,0,0-2.5-2.39c3.39-4.59,5-9.89,3.42-16.31-1.24-4.85-3.09-8.08-5.52-9.6s-5.19-1.11-8.09,1.31a17.24,17.24,0,0,0-4.93,7.38,56.47,56.47,0,0,1-2.84-7.75c-2.64-8.76-4.76-13.8-7.89-13.66s-3.7,6.06-3.88,8.59c0,.51-.09.95-.13,1.32-.31-.62-.69-1.46-1.14-2.59-3.08-7.84-4.76-10.54-10.22-7.8a24.36,24.36,0,0,1-5.42,1.72c2.5-6.43,2.74-9,1.19-11.42-.91-1.45-2.08-2.54-7.24-1.37a45.31,45.31,0,0,1-10.32.37l-2.53-.18c.19-.84.38-1.69.58-2.54,1-4.62,2.6-11.53,3.45-15.35.91-4.07,1.41-4.68,1.54-4.77s1,0,4.36,2.63c6.93,5.48,24.41,14,31.7,15.44l.88.18c-1.39,2.28-3,5.31-1.76,8.87,1.37,3.79,4.41,3.78,6.86,3.76,1.74,0,6.82,1.51,11.33,3.7,6.25,3,10,4.17,12.18,1.6,5.4-6.47-4.35-29.14-10.27-40.27-4.39-8.27-8.58-17.57-9.73-21.05l-5.46-16.52q-1.94,6.56-3.86,13.13a52.59,52.59,0,0,0-1.22,5.26,35,35,0,0,1-4.46-6.4c-1-2.09-3.26-7-6.18-5.84-2.62,1-2.61,5.68-2.39,9.07a25.12,25.12,0,0,1-4-5.89c-1.2-3.31-7.34-14-11.17-20.43-5.88-9.81-9-17.17-9.26-18.72-.45-3.17-1.43-8.57-2.18-12-1.76-8.09-1.55-14.92.56-18.74a5.91,5.91,0,0,1,6.91-3.09,10,10,0,0,1,6.78,5.28,15.51,15.51,0,0,1,1.49,8.8c-.43,4.3-.79,8,1.09,10.61a3.47,3.47,0,0,0,4.36,1.39,40.37,40.37,0,0,1,9-.18c3.93.25,9.55-.27,12.13-1.56,1.46-.73,5.76-1,9.35-.31,9.22,1.8,15.42-1.12,20.13-9.39,2.79-4.91,3.75-8.23,2-14.92v0l4.11.09c10.13.2,13.5,2.46,17.92,8.81,1.68,2.41,6.79,9.73,11.35,7.42s4.52-11.89,4.52-15.05c0-.76,0-2.43.07-3.55a43.61,43.61,0,0,1,4.88,2.39c2.71,1.47,6.56,5.76,9.81,10.94q4.34,6.9,8.67,13.78,2.34-6,4.67-12a62.91,62.91,0,0,0,2.89-9.74,44.55,44.55,0,0,1,14.62,14.34c3.58,6,6.14,7.92,11.44,8.52,4.61.52,7.13-.41,10.62-4.37-1.27,6.21-3.56,11.29-7.7,17.35q-3,4.37-5.94,8.7l4.23,8.41c4.45,8.83,5.5,14.6,4.75,47.19-.23,10.11-.49,18.15-.7,23.36-1.07-1.38-2.34-3.08-3.76-5.06-6.52-9.09-7-10.25-8.41-20.48-1.35-9.75-3.16-15.58-6.46-20.81s-4.75-7.53-7-6-1.57,4.91-1.06,7.91A138.59,138.59,0,0,1,831,394.76c-.7-.81-1.58-1.89-2.64-3.23-6.78-8.58-9.13-9.09-10.74-7.1a5.32,5.32,0,0,0-1,3.59c.08,1.2.23,3.73,6.1,10.17,3.07,3.36,5.35,7.53,5.66,8.74q1.3,5.07,2.62,10.15c-2.22-.27-3.19,2.2-5.42,7.86l-1.26,3.21-1.55-2a49.76,49.76,0,0,1-5.18-8.45c-.83-2.08-2.21-5.58-4.67-4.52s-2,4.71-1.43,8.94a18.16,18.16,0,0,1-.64,7.68l-1.75-2.83c-3.54-5.72-6.22-8.77-7.95-9-1.32-.2-2.48.75-3,2.44-.71,2.58.27,5.46,3.5,10.24a76.06,76.06,0,0,1,5.51,9.69q2.43,5.58,4.85,11.15,2.46-6.72,4.91-13.46c.54-1.48,1-2.69,1.44-3.63.39.58.84,1.26,1.32,2,4.05,6.53,5.44,6.71,6.11,6.8,1.39.19,3.05-.31,5.3-8.62v0l.18.32A102.82,102.82,0,0,0,841.83,449c5.46,6.19,5.48,6.46,6,13.47a56.24,56.24,0,0,0,3.77,16.64c-5.57-1-11.95-5.87-16.52-12.56-4.13-6.05-5.92-6.78-7.46-6a4.29,4.29,0,0,0-1.85,3.93c0,9.75,17.23,23.93,25.13,25.74a7.81,7.81,0,0,1,4.18,2.29c1.16,2.89,4.52,7.17,6.69,9.67a21.79,21.79,0,0,1-7.55-.9c-2.43-1-4.86-2-7.29-3q-.14,7.77-.26,15.55c0,3-.18,5.48-.31,7.18-3.73-1.49-11.76-6.15-14.59-9.1-1.78-1.84-3.79-3.92-5.84-3.12-1.65.64-2.24,2.7-2.47,3.61a42.62,42.62,0,0,1-5.37,7.42c-.54.61-1.59,1.82-2.5,2.76L811.06,506a136.79,136.79,0,0,1-3.26-14.31,8.6,8.6,0,0,0,.07-3.09,8.28,8.28,0,0,0-2.14-4.46,3.18,3.18,0,0,0-3.7-.86c-4.11,1.92-6.59,14-7.47,19.13-.35,2.05-.72,3.8-1.06,5.19-1.71-3.25-3.8-8.13-4.08-9.87,0-5.43-2.39-6.76-3.11-7-3.52-1.38-5.55,5.2-6.46,9.24a43.29,43.29,0,0,1-3.59,9.67l-.21-.95c-1.13-5.15-2-9.58-2.14-10.47-1-7.12-3.86-7.72-4.7-7.73-.55,0-3.3.25-3.3,6.36,0,6.55-3.49,14.94-6.9,16.61l-1.2.59c-.26-1.39-.51-2.77-.76-4.15a102.8,102.8,0,0,1-1.6-12q0-5.34-.07-10.69-5.24,2.72-10.48,5.39l-.31.15A24.9,24.9,0,0,0,745.9,486Zm77.48,26.53v0Zm-34-14.7v0ZM760.19,524.8Zm-.15,0h0Zm306.24-161.17c-2.35,6.23-7,10.57-12.52,11.52-9.52,1.62-16-1.88-26.65-14.49-23.55-28.1-25.36-25.84-27.12-23.17a9.34,9.34,0,0,0-1.17,5.54c.14,4.1,1.91,13,4.08,19.52l-.42-.23a32.56,32.56,0,0,1-14.56-16.67q-2.61-6.75-5.22-13.54l-4.05,16.39a44.81,44.81,0,0,1-3.6,9.76c-1.25,2-4.22,4.52-6.93,6.14a78.45,78.45,0,0,0,3.46-12.53c1.6-8.82,1.36-11.82-1.56-20.08-3.24-9.15-7.59-14.48-15.5-19.18-1.81-1.08-4.84-2.89-6.73.2-2,3.26-.3,7.75,1.34,12.1,2.45,6.49,2.14,19.41-.62,25.6a24.54,24.54,0,0,1-11.84,12.11c4.76-11.76,5-27,.49-37.25-3.9-8.87-15.68-19.62-21.73-19.9-1.9-.07-3.86-.16-5.23,2-1.46,2.37-1.18,5.6-.74,10.5a29.5,29.5,0,0,1-1.28,11.23,13.28,13.28,0,0,0-4.1-6.54c-3.38-2.82-8.06-3.29-12.84-1.32-6.91,2.85-11.71,9.65-13.18,18.79a37.47,37.47,0,0,0,5.77,26.36c5.35,8.05,6.39,8.11,7.32,8.17s2.39.12,5.49-7.22a14.68,14.68,0,0,1,9.15-8.33,10.87,10.87,0,0,1,9.33,1.19l-1,.63c-11.18,7.3-11.38,18.37-9.57,26.47a53.37,53.37,0,0,0,4.25,12.19c1.11,2,2.63,4.65,4.83,4.2s2.81-3.22,3.05-4.13c.7-2.65,5.53-9,8-11,0,.09,0,.18,0,.26,1.19,10.95,2.68,14.19,8.85,19.1,5.91,4.67,9,5.17,22.16,5a116.49,116.49,0,0,0,28.41-4.47,177.5,177.5,0,0,1,27.38-5.55c13.28-1.51,14.94-1.43,22.31,2.28,11.35,5.63,18.71,17.25,20.21,32.36,1.47,14.8-3,30.69-12.23,43.28q-4.55,6.19-9.1,12.31,3.54,6.44,7.09,12.81a129.89,129.89,0,0,1,8.72,21.18c3.12,10.45,3.43,13.64,3.4,34.18,0,25.64-1,32.52-10.55,72.71-9.76,41.13-11,65.21-4.31,86.09,3.62,11.32,9.4,17.53,15.46,16.49.93-.16,1.34.05,1.4.12.46,1.2-1.29,9-8.74,17.93-9.27,11.12-11.92,17.81-11.78,30.21.1,8.78,2.24,15.83,9.18,30a18.06,18.06,0,0,1,1.49,4.48c-2.42,1.06-9.13.39-12.06-3-1.73-2-3.76-4-6-2.89a5.72,5.72,0,0,0-2.61,3.86,7.3,7.3,0,0,1-3.58,5.08c-2.57,1.33-5.61.51-8.14-2.18l-5.71-6.11q-2.81,3.58-5.61,7.15c-2.18,2.78-4.62,4.21-6.7,3.92a3.87,3.87,0,0,1-3-2.39L987,815.14l-7.23,7.17a36.87,36.87,0,0,1-3.28,2.94c2.84-12.93,13-19.27,21.15-22.54,17.52-7.09,18.38-11.64,17-42.25-1.36-30.83-3.1-33.48-31.07-57.3-12.51-10.79-19.45-18.54-26.5-29.21-14.26-21.7-23.18-27.67-43.39-29.7-23.62-2.65-36.51,1.47-72.64,21.19-11.47,6.2-20.27,10.38-24.5,12.18.28-.71.55-1.43.83-2.14a247.34,247.34,0,0,0,11.85-43.61c2-11.32,3.81-26.34,1-33.61-1.05-2.73-2.65-3.38-3.79-3.08-2.69.7-2.94,4.66-3,15.8-.06,22.2-9.81,55.95-26.07,89.84-6.13,12.76-7.89,22.9-5.39,31,2.19,7.14,7.29,11.93,15.6,14.53,1.28.4,2.37.81,3.25,1.17-2.26,4.19-6.64,10.67-8.36,11.75a67.27,67.27,0,0,1-10.16,4.37c-7.88,2.73-9.54,3.64-9.16,14.05.16,4.29.69,11.42,1.18,15.91.56,5.11.43,6.73-2.33,12.3-1.16,2.35-2.26,4.57-2.79,4.85s-2.34-.4-4.29-1.11c-3.47-1.25-6.53-3.6-7.12-4.45-3.77-5.39-6-4.38-9.7-1s-9.71,2.3-12.69-2.14q-2.43-3.6-4.84-7.21l-5.57,5a7.42,7.42,0,0,1-7.73,1.46,5.22,5.22,0,0,1-2.8-2.52L721,791.19l-7.16,4.6a18.23,18.23,0,0,1-3,1.59c1-5.83,4.54-15,7.07-17.42,2.9-2.8,3.28-3.13,15-.64,10.82,2.31,14.19,2.42,19-.78,13.88-9.32,15.5-27.38,6.2-68.89-9.63-43-11.26-60.51-7.58-81.43,1.54-8.76,1.41-12.06-.56-14.1a2.34,2.34,0,0,0-3.73,0c-5.88,7-5.51,43.19-2.18,64.77a156.25,156.25,0,0,1-21.66-22.84c-22-28.69-33.11-64.94-29.63-96.62,4-36,17.51-61.26,41.43-77.75,2.21-1.53,4.37-3.12,6.35-4.8a57.49,57.49,0,0,0-1.93,6.42c-1.36,5.56-3.46,9.9-4.17,10.56-1.13,1.09-4.16,3.95-2.66,8.38s5.37,4.31,12,2.47a24.32,24.32,0,0,1,4.5-.93c.33,1.55.77,3.59,1.21,5.68l.33,1.52a29.59,29.59,0,0,1,.7,8.27c-1.31,5.47.8,8.17,1.48,8.86,1,1,3.55,2.75,6.87-2.19a3,3,0,0,1,1.37-1.12c2.46.3,6-3.54,8.56-7.86.32,6.37,1.68,9.69,4.1,10.11,3.76.66,10.89-11.74,12.87-17.65a63.33,63.33,0,0,1,2.87,7.45q2.06,6.54,4.09,13.08l5.68-12A55.34,55.34,0,0,0,802.45,504c0-.36.1-.72.16-1.07.73,2.73,1.59,5.88,2.43,8.91a108.61,108.61,0,0,1,3.34,15.62c.18,3.43.49,9.18,3.67,9.64,3.35.51,15.2-11.91,16.45-15a1.11,1.11,0,0,0,.07-.16c.53.41,1.15.94,1.43,1.17a49.78,49.78,0,0,0,10.59,6.33,79.79,79.79,0,0,1,8.14,4c1.08.7,3.33,2.14,4.94-.12s.69-5.61.31-7a41.87,41.87,0,0,1,.09-9.35c.17-1.5.33-3,.5-4.49l4.06.43c3.48.37,8.69,0,11.4-1.21a10.72,10.72,0,0,0,3.54-2.15l3.85-.47-2.6-2.83h0c.19-3.27-1.71-5-3.1-6.32-.61-.57-1.53-1.55-2.52-2.69q11.64,1.53,23.28,2.75c27.77,2.76,33.86,2.28,43.5-.41,8.4-2.51,16-2.86,36.9-3.26,25-.77,28-1.66,39.17-7.13,15-7.57,19.6-11.55,24.49-20.25,5.6-10,7.86-21.68,6.22-32-1.6-10-6.77-17.7-14.2-21.29-8.17-3.91-25.91-2.37-41.26,3-29.4,10.47-56.87,9.29-73.48-1.13s-19.51-12.08-24.17-9.92-7.45,7.47-8.34,15.42l-.49-1c-3.78-7.85-4.08-18-.75-25.3l3.9-8.54q-2.72-4.89-5.42-9.81c-13-23.63-12.86-48,.39-65.25,7.76-10.11,22.2-19.27,34.32-22,11.16-2.37,35.47-.13,46.45,4.27,17.6,7.31,42,26.66,62.18,48.82,16.68,18.32,22.72,21.36,26.66,20.76a5.75,5.75,0,0,0,4.85-3.24c1.35-2.71.85-5.74.45-8.17-.34-2.13-.22-3.71,1.44-6.9,1.49-2.9,3.46-4.54,5.53-4.63s4.1,1.55,5.3,4.54A23.72,23.72,0,0,1,1066.28,363.62Z"/>
    <path d="M980.13,740.93c-5.23.4-6.76-.37-9.52-4.7-4.48-7.06-4.21-15.31.8-24.63l4-7.47q-3.55-3.36-7.1-6.77c-3.9-3.74-10.94-12.74-15.65-20C942.11,661,931.73,653.08,918,650.81c-3.06-.51-6.12-1-9.18-1.58,0,3.38,0,6.77,0,10.15,0,13,4.21,25.88,15.67,47.51,13,24.54,13.93,28.2,14.46,59.85l.45,26.75-3.77,5.18c-3.41,4.65-4.94,5.28-15.93,5.84-10.47.49-12.67,1.12-15.74,4.94-4.07,5-5.29,7.83-6.55,15-.74,4.2-.44,5.15,1.66,5.28,1.4.08,4.78-1.81,7.49-4.22h0l4.94-4.39,3.35,4.78c4.39,6.25,9.53,6.28,13.75.08,1.84-2.7,3.49-4.57,3.67-4.15s1,2.48,1.83,4.56c1,2.63,3.18,4,7.05,4.42,4.67.51,5.92-.16,7.77-4.08q1.11-2.32,2.21-4.67l4.86,4.51c13.3,12.28,20.39-1.2,14.45-27-3-13.18-1.36-20.63,8.38-37.94,4.11-7.31,7.47-15.11,7.48-17.27C986.36,740.89,985.6,740.5,980.13,740.93Z" style="fill: #ffbe29"/>
    <path d="M980.07,736.67c-4.75.36-5.33-.29-7.3-3.38-2.36-3.71-4.38-9.23.92-19.11l6-11.17q-4.86-4.59-9.71-9.23c-3.7-3.53-10.64-12.4-15.16-19.39-11.1-17.17-22-25.42-36.49-27.81q-6.18-1-12.36-2.15l0,14.81c0,14.06,4.43,27.78,16.29,50.22,12.68,23.91,13.33,26.5,13.84,57.35l.42,24.86-2.83,3.87c-2.54,3.45-3,4.14-14.09,4.71-10.51.49-13.6,1.06-17.5,5.9-4.52,5.58-6.05,9.09-7.45,17.12-.49,2.77-.86,5.68.41,8.13a4.52,4.52,0,0,0,4.08,2.63c2.7.16,7.11-3.07,9.07-4.81l3-2.69L912.9,829c5.53,7.88,12.53,7.92,17.84.1.25-.36.48-.7.7-1,.07.16.13.32.19.48,2,5.1,6.07,6.21,9.38,6.57,5.09.56,7.66-.16,10.37-5.91.21-.43.41-.86.61-1.28l2.48,2.31c4.37,4,7.87,5.32,10.58,5.25a8.26,8.26,0,0,0,6.1-3.09c5-5.86,5.77-18.36,2.12-34.25-2.53-11-1.8-16.7,7.84-33.86,1.36-2.41,8.16-14.84,8.17-20.09,0-1.13,0-3.78-1.39-5.68C986.28,736.28,983.87,736.38,980.07,736.67ZM976.65,759c-10.37,18.38-12.29,27.33-8.92,42,3.28,14.3,2,22.28-.16,24.76-2,2.26-5.57,1.27-9.94-2.77q-3.61-3.33-7.23-6.71c-1.27,2.69-2.55,5.38-3.82,8.06-1.12,2.36-1.26,2.68-5.16,2.25-2.67-.3-4.26-1.07-4.74-2.27l-1.87-4.67-.82-1.83-1.41-.25c-.92-.16-2.07-.37-6,5.41-3.09,4.54-6.43,4.51-9.65-.07l-5-7.14q-3.43,3.08-6.87,6.1c.53,1.23,1.06,2.45,1.58,3.67-.52-1.22-1-2.44-1.58-3.67a21.26,21.26,0,0,1-4.62,3.16c1.06-5.87,2-7.94,5.54-12.3,2.31-2.89,3.77-3.49,14-4,11.23-.58,13.57-1.23,17.78-7l4.71-6.49-.48-28.64c-.55-32.56-1.67-37.11-15.09-62.34-11-20.65-15-32.9-15-44.81,0-1.83,0-3.66,0-5.48l6,1c12.93,2.15,22.72,9.63,32.76,25.21,4.83,7.51,12.07,16.78,16.13,20.67l4.49,4.31c-.68,1.26-1.36,2.52-2,3.78-7.91,14.67-3.82,25.19-.68,30.15,3.57,5.62,6.07,6.45,11.74,6,.58-.05,2-.16,3-.13A91.42,91.42,0,0,1,976.65,759Z"/>
    <path d="M640.05,667.06c-.9,4.54-2.4,4.23-5.8-1.22-5.12-8.19-5.23-22.87-.24-30.31,2.36-3.5,2.34-3.77-.66-8.58-3.23-5.17-5.54-14.51-4-16.27.48-.57,3,.52,5.67,2.42,3.74,2.68,5.22,3,6.76,1.6,4.67-4.35-.39-12.34-7.88-12.46-3,0-4.26-.93-4.7-3.3-.32-1.81-3-4.64-5.93-6.39-5.31-3.12-5.35-3.1-5.35,2.24,0,5.86-2.29,6.46-6.64,1.76-3.53-3.82-7-2.19-7,3.3,0,5.13,3.53,8.42,9.86,9.2,4.85.6,5,5.91.43,12.48l-3.32,4.73,2.63,6.08c3.89,9,3.56,22.48-.69,28.29l-3.33,4.55-2.19-4.7c-3-6.54-7.19-7.05-8.33-1-.74,3.95-.12,6,3.4,11.08,2.37,3.44,5.83,6.58,7.68,7,4.6,1,4.42,6.24-.36,10.53l-3.74,3.36,5.78,2.57c3.18,1.41,5.78,3.33,5.78,4.26,0,3.59,4,15.62,5.29,15.9.75.16,2.31-1.38,3.47-3.42h0a18.65,18.65,0,0,0,2.12-7.79c0-3.38,1-4.06,6.12-4L641,699l-4.08-5.64c-4.85-6.7-5.3-11.21-1-10.29s11.47-4,12.56-8.5a11.22,11.22,0,0,0-.72-6.87C645.37,663.21,640.88,662.83,640.05,667.06Z" style="fill: #ffbe29"/>
    <path d="M642.06,659.82c-2.27.27-4,2.12-4.72,5-.28-.4-.64-.93-1.08-1.64-4-6.39-4-18.47,0-24.39,3.62-5.4,3-8.35-.88-14.49a29.68,29.68,0,0,1-3.28-8.64,20.72,20.72,0,0,1,2,1.26c3.44,2.47,6.53,4.3,9.51,1.52,2.67-2.47,3.58-6.41,2.45-10.52a13.43,13.43,0,0,0-12.53-10,6.88,6.88,0,0,1-1.63-.17c-1.31-5.1-6.77-8.53-7.89-9.19-3.74-2.2-5.62-3.3-7.36-1.71S615,591,615,594.16c0,.43,0,.75,0,1a11.14,11.14,0,0,1-2.19-2c-2.69-2.91-5.68-3.8-8-2.38-2.15,1.33-3.39,4.39-3.39,8.4a15,15,0,0,0,2.18,8c2.19,3.46,5.82,5.53,10.79,6.15a4.38,4.38,0,0,1,.51.09,15.68,15.68,0,0,1-2.46,4.79l-4.84,6.9,3.94,9.12c3.07,7.12,2.86,18.52-.44,23l-1,1.32-.08-.17c-2.26-4.89-5.32-7.68-8.2-7.48-2.57.18-4.49,2.67-5.28,6.82-1.17,6.23.46,10,4.33,15.62,2.54,3.68,6.62,7.74,9.54,8.4a10.23,10.23,0,0,1-2.1,2.51l-9.17,8.25,12.53,5.56a18.8,18.8,0,0,1,3.6,2c1,5.75,4.38,17.5,7.92,18.27,2.62.57,5.11-3.4,5.82-4.63h0a23.37,23.37,0,0,0,2.69-10.2v-.06a12.76,12.76,0,0,1,3.61-.27l12.83.13-9.38-13a30.69,30.69,0,0,1-1.91-3c5.12.34,12.89-4.67,14.4-10.94a17.51,17.51,0,0,0-1.3-11.16C648,661.67,644.89,659.49,642.06,659.82Zm-15.69-60.36ZM615,697.62a4.63,4.63,0,0,0,0,.54A4.63,4.63,0,0,1,615,697.62Zm30.74-25c-.6,2.48-6.42,6.93-9.81,6.19-3.91-.85-5.19,1.77-5.6,3.41-.83,3.29.4,7.46,3.65,12.4-3.9,0-8.1.25-8.1,7.69a14.34,14.34,0,0,1-1.55,5.37h0a9,9,0,0,1-.7,1.07c-1.2-3.09-2.73-8.28-2.79-9.86,0-2.39-.87-5.51-7.42-8.63a12.07,12.07,0,0,0,3.05-10.58c-.36-1.61-1.66-5.47-6-6.42-.81-.17-3.63-2.42-5.79-5.57-2.9-4.2-2.83-4.6-2.46-6.53.17-.94.48-1.59.76-1.61s1.38.76,2.41,3l4.29,9.24,5.71-7.8c5.17-7.06,5.6-22.74.93-33.55-.43-1-.87-2-1.31-3l1.79-2.55c4.61-6.57,4.48-11.47,3.56-14.42a7.61,7.61,0,0,0-6.36-5.66c-4.6-.57-6.07-2.38-6.41-2.92a2.3,2.3,0,0,1-.34-1.36c0-.5.06-1.39.44-1.62s1.1-.07,2.12,1c1.26,1.36,5.11,5.52,8.25,3.59,1.26-.78,2.77-2.79,2.79-8l1.71,1a13.43,13.43,0,0,1,4,3.46c1.42,6.47,6.2,6.54,7.8,6.56,4,.06,6.2,2.71,6.36,3.43a2.09,2.09,0,0,1-.68,1c-.38.34-.73.67-4-1.69-6.46-4.64-8.09-2.75-8.62-2.12s-1.39,2.2-1.39,5c0,4.87,2.43,12.71,5.41,17.48.28.46.72,1.15,1.06,1.74-.21.34-.45.7-.61.93-6,9-5.79,26.22.45,36.22,2.12,3.39,4.43,6.47,7,6s3.37-4.39,3.62-5.68c0-.08.07-.34.5-.38a2.52,2.52,0,0,1,2.2,1.6A5.38,5.38,0,0,1,645.72,672.62Z"/>
    <path d="M711.55,649.49c-8.07-12.3-16.84-32.08-19.12-43.06-1.18-5.72-6.91-16.27-23-42.58L647.91,528.8l-6.18.94a35.61,35.61,0,0,1-9.23.34c-2.88-.56-2.83-.31,1,4.86,1.35,1.81,2.69,3.63,4,5.45l5.67-3.36c5.49-3.26,5.68-3.24,6.36.49a12.62,12.62,0,0,1-2,8c-1.47,2.27-2.31,5-1.86,6.12s-1,2.88-3.14,4c-4,2-6.83,10.89-3.65,11.58,2.86.62,9.17-9.38,8.45-13.38-.38-2-.2-4,.4-4.42,2.45-1.56,2.3,7.33-.2,11.18-1.47,2.27-2.31,5-1.86,6.12s-1,2.88-3.14,4c-4,2-6.83,10.89-3.68,11.58s9.3-8.85,8.53-13.08c-.4-2.21-.25-4.34.35-4.71,1.65-1.06,2.55,6.18,1.15,9.33a9.28,9.28,0,0,0,0,6.39c1.37,3.92,0,10.59-2.56,12.2-1.08.7-.35,2.68,2.29,6.16,3.81,5,3.88,5.49,3.88,24,0,15.5.43,19.6,2.38,22.72,2.19,3.5,2.38,3.56,2.38.65,0-3.17,3.82-6.22,6.93-5.55.92.2,6.67,8.55,12.78,18.55s12.57,18.86,14.39,19.71,3.77,1.77,4.36,2,3.33-.36,6.11-1.38h0c5.25-1.93,16.62-13.68,16.62-17.16C718.52,661,715.38,655.33,711.55,649.49Z" style="fill: #ffbe29"/>
    <path d="M713.51,646.72c-7.64-11.62-16.18-30.8-18.29-41-1.38-6.66-6.94-17-23.8-44.5q-11.32-18.47-22.64-37L641,525.45a34.38,34.38,0,0,1-8.56.36c-1.68-.33-4-.78-4.74,2.37s.91,5.57,4,9.74l5.57,7.5,7.34-4.36c.55-.32,1.17-.69,1.76-1a9.36,9.36,0,0,1-1,2.24c-.75,1.15-2.76,4.61-2.65,8.25a6.25,6.25,0,0,1-1.4.93c-4.09,2-7.32,9.13-6.53,14.32a7.59,7.59,0,0,0,2.45,4.79,16.14,16.14,0,0,0-2.45,10.27c.45,3,2.08,5.16,4.14,5.61,2.89.63,5.77-2.61,7.44-5l0,.15c.57,1.63-.22,5.9-1.47,6.7a4.83,4.83,0,0,0-1.92,4c-.14,3.33,1.8,6.37,3.92,9.17,2.72,3.59,2.72,3.59,2.72,20.38,0,16.08.43,21.44,3.29,26,1.64,2.62,3.19,5.09,5.28,4.23,1.94-.79,2-3.65,2-5.36a4.49,4.49,0,0,1,3.48-2.22,190.42,190.42,0,0,1,11.27,17c1.2,2,11.87,19.28,15.92,21.18,1.82.86,3.8,1.78,4.39,2a2.84,2.84,0,0,0,.49.15c1.36.28,3.77-.2,7.17-1.46,4.76-1.74,18.47-13.92,18.47-20.75C721.44,661.41,721.43,658.81,713.51,646.72Zm-75.7-111.37-.62-.82c.74,0,1.51-.09,2.26-.15Zm5.46,18,0,0Zm48.67,121.14h0Zm8.89.55h0a22.28,22.28,0,0,1-4.89,1.32l-3.9-1.82c-1.38-1.06-6.72-8.07-13-18.29-12-19.57-14-20-14.82-20.19-2.9-.63-6.22.89-8.17,3.72-.45-2.8-.6-7.69-.6-16.65,0-18.64,0-21-5-27.69l-.72-1c2.59-3.72,3.56-10.81,1.79-15.87a3.31,3.31,0,0,1-.06-2.15c1.69-3.81,1.39-10.84-.6-14.19l-.12-.19c1.85-4.18,2.52-10.82.57-14.59-.13-.25-.27-.48-.41-.7a18.81,18.81,0,0,0,1.47-4.78l15,24.47c12.93,21.1,21.17,35.22,22.3,40.67C692.1,619,701,639.21,709.59,652.25a106.74,106.74,0,0,1,5.6,9.41C713,665.36,704.86,673.58,700.83,675.06Z"/>
    <path d="M620.75,575.09c-6.82-2.6-6.93-2.56-6.93,2.41,0,4.12,1.08,6,5.78,10,7.56,6.45,16.66,7.93,16.66,2.7h0C636.26,585.19,629.2,578.31,620.75,575.09Z" style="fill: #ffbe29"/>
    <path d="M621.08,570.92c-4.8-1.82-7-2.66-8.69-.81-1.49,1.62-1.49,4.35-1.49,6.76,0,7.28,3.13,10.51,7.54,14.27a27.87,27.87,0,0,0,11.55,6.2c2.76.6,5.16.37,6.76-.81a6.84,6.84,0,0,0,2.43-5.71C639.18,582.3,630.07,574.36,621.08,570.92Zm-.31,12.91c-4-3.43-4-4-4-5.69v-.22c1,.3,2.39.84,3.69,1.33,7.31,2.8,11.58,7.52,12.66,9.69C631.3,589.47,626.07,588.36,620.77,583.83Z"/>
    <path d="M647,582.08c-2.38-.52-8.71,6.39-8.71,9.51,0,4.87,1.18,4.84,5.71-.18h0C647.44,587.6,649.07,582.53,647,582.08Z" style="fill: #ffbe29"/>
    <path d="M647,577.81c-3.7-.8-11.63,7.31-11.63,13.14,0,1.55,0,5.66,2.39,7.73a3.39,3.39,0,0,0,1.49.79c2,.44,4.13-1.62,6.71-4.47,1-1.14,6.07-7.11,4.61-13C650,579.78,648.64,578.17,647,577.81Z"/>
    <path d="M632.17,567c-7.72-6.78-16.95-11.15-19.18-9.08-4.09,3.81-1.37,10.72,5.26,13.29a38.74,38.74,0,0,1,8,4.39c5.08,4,9.92,3.74,10.38-.56C637,572.28,635.75,570.13,632.17,567Z" style="fill: #ffbe29"/>
    <path d="M633.38,563.37c-6.39-5.6-18-13-22.19-9.2-2.53,2.35-3.56,6-2.82,9.94a15.26,15.26,0,0,0,9.54,11.25,36.33,36.33,0,0,1,7.31,4,15.88,15.88,0,0,0,6.26,3.18,6.7,6.7,0,0,0,5.06-.63,7.21,7.21,0,0,0,3-5.58C640.27,569.42,635.61,565.33,633.38,563.37Zm.39,10.36c-.4.59-2.9.9-6.44-1.88a40.47,40.47,0,0,0-8.74-4.81c-3.11-1.21-4.46-3.27-4.6-4a1.91,1.91,0,0,1,.72-1.28c1.59-.55,8.81,2.34,16.26,8.87a12.59,12.59,0,0,1,2.81,3A1.09,1.09,0,0,1,633.77,573.73Z"/>
    <path d="M620.93,543.65c-10.74-7.86-15.49-6.29-12.06,4,1.2,3.58,3.2,5.53,7.7,7.49a78.72,78.72,0,0,1,10.17,5.4c6,4,9.45,3.82,9.92-.58h0C637.07,556,635.31,554.17,620.93,543.65Z" style="fill: #ffbe29"/>
    <path d="M621.9,539.84c-8.1-5.93-13.25-7-15.74-3.35-1.24,1.83-2.23,5.5.13,12.56,1.91,5.72,5.32,8.21,9.85,10.18a76.3,76.3,0,0,1,9.73,5.16,20,20,0,0,0,6.49,3.12,5.44,5.44,0,0,0,4.45-.67c1.51-1.05,2.45-3,2.73-5.65C640.37,553.36,636.09,550.22,621.9,539.84Zm11.87,18.82h0c0,.17,0,.26,0,.26s-1.25,1-6.13-2.3A80.91,80.91,0,0,0,617,551c-4.27-1.86-5-3.27-5.55-4.79a14.05,14.05,0,0,1-.75-3.16c.64-.14,3-.15,9.26,4.41,5,3.65,12.42,9.1,13.81,11.2Z"/>
    <path d="M638.14,546.87c-1.31,6.49.82,6.67,5.72.48h0c2.17-2.74,3.95-6.15,3.95-7.57C647.81,535.17,639.24,541.46,638.14,546.87Z" style="fill: #ffbe29"/>
    <path d="M647.47,534.15c-3.75-1.6-10.91,4.87-12.13,11-.35,1.71-1.4,6.93,1.37,9.89a3.54,3.54,0,0,0,1.84,1.14c2.18.48,4.58-1.8,7.39-5.34,1.12-1.42,4.78-6.36,4.78-10.38C650.72,537.48,649.42,535,647.47,534.15Z"/>
    <path d="M621.65,529.65c-7.53-4-10.85-3.37-10.29,1.86.31,2.86,2.82,5.44,9.93,10.23,11.39,7.67,14.81,8.36,15.37,3.09h0C637.13,540.35,631.91,535.07,621.65,529.65Z" style="fill: #ffbe29"/>
    <path d="M622.25,525.61c-6.33-3.34-10.11-3.72-12.24-1.22-.94,1.09-2,3.22-1.53,7.17.59,5.52,4.32,8.93,11.94,14.06,6,4.06,9.86,6.19,12.55,6.77a4.69,4.69,0,0,0,3.95-.59c1.45-1,2.33-2.93,2.62-5.71C640.56,536.46,630.16,529.79,622.25,525.61Zm11.47,18.33c-.76.18-3.29-.5-11.56-6.08-5.76-3.88-7.43-5.68-7.88-6.47.63-.1,2.41,0,6.76,2.3,10.69,5.64,12.5,9.45,12.72,10C633.74,543.79,633.73,543.88,633.72,543.94Z"/>
    <path d="M648.58,490.33c-5.15-3.47-8.43-2.92-10.4,1.74-1.51,3.57-.5,10.88,1.56,11.33.7.15,1.27,1.59,1.27,3.19,0,7.49-20.08,6.5-28.32-1.38-2.89-2.77-4.15-8.6-1.74-8.08,1.8.39,3-5,2.12-9.21-1.25-5.73-5-8.44-10.48-7.54-12.33,2.05-12,23.28.57,35,10.29,9.59,32.85,15,43.53,10.34h0C659.85,520,661,498.68,648.58,490.33Z" style="fill: #ffbe29"/>
    <path d="M649.45,486.45c-6.49-4.38-11.14-3.37-13.82,3-1.65,3.92-1.26,10,.08,13.66a9.82,9.82,0,0,0,1.71,3.07c-3.6,2.28-17,1.68-23.41-4.46a4.61,4.61,0,0,1-.68-.85,5.1,5.1,0,0,0,1.39-1.69c1.56-2.81,2-7.85,1.12-12-1.77-8.09-7-12.23-14-11.07-6.4,1.06-10.57,6.73-11.16,15.15-.68,9.83,3.71,20.68,11.19,27.64,5.74,5.35,15,9.44,24,11.43,8.3,1.81,16.53,1.87,22-.48,7.86-3.4,12.68-12.3,12.27-22.65C659.81,498.48,655.81,490.73,649.45,486.45Zm-3.94,35.08h0c-10,4.32-31.47-.8-41.06-9.74-5.27-4.9-8.39-12.14-8-18.44.34-4.85,2.83-8,6.83-8.68a8.63,8.63,0,0,1,3.22,0,4.82,4.82,0,0,1,3.76,4,9.38,9.38,0,0,1-.17,4.12c-1.63,0-2.87,1.42-3.26,3.7-.63,3.76,1.38,9.25,4.5,12.23,7.73,7.4,23.27,9.22,29.24,5.17a7.71,7.71,0,0,0,3.31-6.66c0-3.51-1.4-6.65-3.31-7.75a9.49,9.49,0,0,1,.1-4.76c.64-1.52,1.72-4.07,7-.51a15.2,15.2,0,0,1,6.61,12.22C654.59,513.17,651.13,519.1,645.51,521.53Z"/>
    <path d="M650.52,213.52c-9.49,7.37-16.72,18.08-23.13,34.26C615.3,278.34,611.1,322.1,611.1,417.44c0,54.13.25,61.27,2.36,66.82,2,5.27,2.12,7.08.71,11.93-.92,3.15-1.33,6.26-.92,6.91,2.69,4.32,22.36,7.62,25.27,4.24h0c.76-.89.43-2.58-.85-4.32-2.8-3.82-2.65-8.56.42-13.36,2.3-3.6,2.59-9.68,3.38-71.44,1.37-106.44,6.8-185.54,14-203.25C658.29,207.91,657.89,207.8,650.52,213.52Z" style="fill: #ffbe29"/>
    <path d="M648.88,209.64c-9.83,7.63-17.48,18.93-24.06,35.58-12.29,31-16.64,76-16.64,171.59,0,56,.26,62.48,2.79,69.12,1.53,4,1.55,4.41.48,8.1-2.39,8.25-.81,10.78-.21,11.73,1.73,2.77,7,5,12.66,6.28,6.91,1.5,14.37,1.45,16.62-1.17l.92-1.06v-.56a7.54,7.54,0,0,0,.39-2.8,11.32,11.32,0,0,0-2.36-6.4,3.87,3.87,0,0,1-.86-2.11,9,9,0,0,1,1.74-5.09c2.95-4.62,3.21-9.46,4-73.93,1.35-105.23,6.69-184.27,13.61-201.37,1.7-4.19,3-7.5,1-10.7S654.62,205.18,648.88,209.64ZM638.55,417.49c-.69,54.37-1,66.29-2.72,69a18,18,0,0,0-3,11.14,16.45,16.45,0,0,0,2,6.73c-4.44.63-14.72-1.12-18.58-3.27.14-.74.35-1.66.65-2.7,1.74-6,1.56-9.26-.92-15.76-1.69-4.44-1.94-12.88-1.94-64.52,0-94.07,4.17-138,16-167.73,5.95-15,12.48-25,21.06-32C644.53,244.26,639.82,318.5,638.55,417.49Z"/>
    <path d="M747,417.7c-2.37-7.88-3.33-9.3-6.72-9.95-10.6-2-27.65-12.33-45.23-27.45-10.15-8.73-13.66-11-14.88-9.58-3.1,3.63,2.06,14.94,10.05,22,7.09,6.26,26.92,16.18,36,17.95,5.25,1,5.37,1.4,2.39,7.12l-2.2,4.2,5.94,1.39a48.48,48.48,0,0,1,10,3.59c5.83,3.16,5.88,3.16,6.71,1.47h0C749.42,427.58,748.51,422.75,747,417.7Z" style="fill: #ffbe29"/>
    <path d="M740.26,403.49c-10.11-1.93-27-12.17-44-26.84-11.68-10-15.46-12.51-18.07-9.45-1.48,1.72-2.09,4.44-1.73,7.67.75,6.76,5.91,15.58,12.56,21.44,7.5,6.62,27.61,16.72,37.15,18.59l-5.25,10q5.67,1.35,11.33,2.66a47.26,47.26,0,0,1,9.41,3.36c2.79,1.52,4.69,2.54,6.11,2.81,1.66.31,2.67-.4,3.72-2.57.45-.92,1.63-3.36-1.82-14.81C747.21,408.37,745.5,404.49,740.26,403.49Zm-48.84-14.41c-6.06-5.34-8.93-11.92-9.25-14.22,2.56,1.24,9.29,7,11.67,9.08,11.18,9.62,22.1,17.31,31.43,22.25C716.3,404.07,697.88,394.78,691.42,389.08ZM743,422.94a50.83,50.83,0,0,0-10.62-3.83l-.55-.13c1.36-2.72,2.19-5.11,1.22-8a7.48,7.48,0,0,0-.64-1.42,41.77,41.77,0,0,0,7.87,2.46c1.9.36,2.09.4,4.08,7,.64,2.13,1.1,4,1.4,5.41C745,424,744,423.49,743,422.94Z"/>
    <path d="M825.34,463.68c-.48,2.2-1,4.4-1.45,6.6q-3.64-3.87-7.28-7.77c-4-4.28-7.92-9.88-8.71-12.41-1.9-6.05-3.22-6-4.41.13-.32,1.67-.65,3.35-1,5l-1.29-4.9c-1.28-4.87-10.38-20.43-12.12-20.73-.51-.08-1.28,2.12-1.73,4.89-1.57,9.73-3,10.74-7.11,4.88A73.93,73.93,0,0,1,774.08,428c-1.83-4.4-2.54-5.15-2.54-2.71,0,3.09,10.46,21.91,12.36,22.23.44.08,2-2.63,3.37-6s3-6.1,3.47-6c1.93.32,9.35,15,9.35,18.47,0,4.81,2.22,5.08,4.1.5,1.46-3.53,1.56-3.48,5.49,2.23,3.42,5,4,7.23,4,15.38,0,5.26-.33,10-.73,10.46s-2.75-2-5.23-5.63c-3.87-5.57-14.3-17.12-14.51-16,0,.21-.41,4.13-.83,8.71s-.95,8.61-1.19,8.93-1.64-2.87-3.11-7.09a58.87,58.87,0,0,0-5.7-11.94c-3-4.19-3.07-4.21-4.57-.93a68.11,68.11,0,0,1-5.06,8.38l-3.53,5-.93-9.81c-.5-5.4-1.51-10.43-2.24-11.18s-1.33-.25-1.33,1.1-1.45,5.5-3.22,9.22l-3.21,6.75q-1.45-6.28-2.92-12.57c-1.61-6.92-2.57-9.55-2.12-5.85s1.15,10,1.57,13.93,1.23,7.27,1.81,7.38c1.41.27,8.1-9.6,8.1-11.95,0-1,.68-1.14,1.51-.28s1.23,4.44.81,8.71c-.39,3.94-.29,7.23.22,7.32,2.14.38,7-4.87,9.73-10.62,1-2.05,2-4.1,3-6.16,1.27,2.62,2.55,5.23,3.82,7.84a62.9,62.9,0,0,1,4.76,13.1c.51,2.89,1.44,5.35,2.08,5.45,1.12.18,4-11.13,4-15.82,0-3.08.74-2.85,5.16,1.63,5.62,5.69,11.17,14,11.17,16.74h0c0,4.06,2.34,3.13,3.22-1.3A95.18,95.18,0,0,0,815,472.4l0-9.15,4.85,5.8c2.66,3.18,5,5.5,5.23,5.17,1.43-2.23,3.32-13.23,2.58-15C827.21,458.05,826.15,460.06,825.34,463.68Z"/>
    <path d="M826.94,454.62c-1.19.08-3,.93-4.38,7.41-.11.48-.21,1-.32,1.44l-4.06-4.33c-4.21-4.51-7.22-9.24-7.65-10.49-.69-2.18-2.31-7.29-5.34-7.34-1.57,0-2.59,1.3-3.28,2.9-3.34-7.07-9.73-18.34-12.8-18.85-2.15-.35-3.69,2.25-4.57,7.73a39.65,39.65,0,0,1-1.07,5.1,17.5,17.5,0,0,1-1.28-1.69,68.86,68.86,0,0,1-5.67-10.38c-1.31-3.15-2.94-7.07-5.53-6.39-.89.23-2.37,1.2-2.37,5.08,0,1.18,0,3.95,6.21,15.15,6.33,11.39,8.1,11.69,9,11.86s2.52.44,5.92-7.75c.52-1.24,1-2.24,1.39-3,2.13,3.35,5.53,10.42,6,12.73.07,5.73,2.49,7.48,3.24,7.89a3.17,3.17,0,0,0,.86.31c.22.83.44,1.65.65,2.48-.3-.35-.6-.68-.89-1-6.32-7-7.34-7.19-8.59-6.84l-1.63.51c-.13.75-.27,1.5-.41,2.25,0,.22-.11.58-.76,7.75a59.28,59.28,0,0,0-5.37-10.55c-1.39-2-2.45-3.45-3.61-4.17l-.87-1.78-.64,1.32H779c-1.85.12-2.74,2.07-3.61,4a63.87,63.87,0,0,1-4.08,6.85l-.06-.65c-.75-7.89-2-12.77-3.67-14.51-1.23-1.27-2.66-1.58-3.81-.82s-1.85,2.43-1.9,4.52a40.78,40.78,0,0,1-2.76,7.28l-.93-4c-1.67-7.15-2.68-11.46-5.66-10.86-1.26.25-2.64,1.53-2.08,6.16.44,3.7,1.14,9.9,1.55,13.82,1,9.74,3.17,11.24,4.7,11.52a3.38,3.38,0,0,0,.38.06c.17.76.35,1.53.53,2.29l1.48-3.12a24.27,24.27,0,0,0,4.38-5.27c.21-.31.41-.61.6-.91-.43,6.25.5,8,.91,8.75A3.86,3.86,0,0,0,767,479l.21,2.26,1.6-2.28c3.77-1,8.4-7.38,10.66-12,.25-.51.49-1,.74-1.54l1.32,2.7a59.49,59.49,0,0,1,4.24,11.5c.45,2.56,1.83,8.58,4.9,9.08,3.76.61,5.8-10.28,6.55-16.11l1.11,1.1c5.06,5.13,9,11.36,9.74,13.38.13,4.07,1.85,6.12,3.33,6.64a2.73,2.73,0,0,0,.53.13c2.21.32,4.21-2.23,5.08-6.58a99.69,99.69,0,0,0,1-14.4V472l.24.28c4.36,5.22,7.16,8.15,9.16,5,1.65-2.59,4.67-15.66,2.8-20.08C829.44,455.53,828.2,454.53,826.94,454.62Zm-59.29-1.95h0Zm40.4,33.86h0v0Zm2.66-11c-.33-.44-.68-.92-1.05-1.45-1.56-2.26-3.93-5.17-6.16-7.77.36-1.88.73-3.76,1.09-5.64a11.47,11.47,0,0,0,1.83-2.92l1.32,1.9c2.65,3.85,3,4.88,3,12.06C810.77,473.1,810.74,474.38,810.71,475.5Z"/>
    <path d="M816.43,385.51c0,3.95-.66,8.75-1.45,10.67-1.34,3.26-1.74,2.94-6.12-5q-2.34-4.23-4.69-8.46c0,1.78,0,3.56,0,5.35a60.56,60.56,0,0,1-.86,9.54c-.8,4-.93,4-3.09.46-1.24-2.05-3.3-6-4.58-8.75-2.58-5.54-2.91-4.31-1.21,4.47a32.84,32.84,0,0,1,.34,10c-.77,4.14-.85,4.11-6-3.33-5.85-8.37-6.27-8.73-6.34-5.37,0,1.29-1.42,4.43-3.1,7l-3,4.64-5-6.52c-2.9-3.82-5.21-8.72-5.54-11.78-.18-1.74-.37-3.49-.56-5.23-.07,1.76-.13,3.52-.2,5.28-.19,4.95,1.12,7.62,9.76,19.65h0c2.19,3,3.62,3.2,3.68.41,0-1.29,1.25-4.14,2.72-6.34.9-1.33,1.79-2.67,2.68-4l6,7.74,6,7.71,1-8.73c.9-7.86,1.14-8.29,2.4-4.28,1.95,6.18,3.25,5.8,5.25-1.54,2.12-7.78,3.22-7.73,6.51.26l2.58,6.24,2-5.12c2.74-7.13,3.77-15.81,2.28-19.26C816.81,379.18,816.45,380.42,816.43,385.51Z"/>
    <path d="M816.15,376.1c-2.61.78-2.63,5.13-2.64,9a41,41,0,0,1-.63,6.88c-.64-1.1-1.34-2.36-1.83-3.23q-4.87-8.79-9.75-17.62l-.06,16.53c0,1.53-.14,3.56-.32,5.37-1-1.86-2.14-4.09-2.94-5.8-1.16-2.5-3.1-6.68-5.73-5.21s-1.78,6.66-.63,12.58a30.93,30.93,0,0,1,.47,5.11c-.48-.67-1-1.39-1.47-2.08-5.16-7.39-6.73-9.63-9-8.53-1.87.88-2.07,3.63-2.11,5.1a21,21,0,0,1-2.4,4.78l-1.24,1.88c-.92-1.22-1.85-2.43-2.78-3.65-2.65-3.48-4.28-7.41-4.44-8.89l-.57-5.24-5.79-.59-.21,5.28c-.29,7.46,2.55,11.86,10.81,23.36,2.27,3.17,4.32,4.34,6.09,3.47.67-.32,2.21-1.47,2.36-5.09a16.76,16.76,0,0,1,2-4.08l.87-1.29Q791,413,797.81,421.77l1.56-13.72a3.5,3.5,0,0,0,2.24,1.22c2.92.27,4.31-3.91,5.48-8.21.18-.68.34-1.24.48-1.7.24.52.52,1.17.85,2q2.64,6.38,5.27,12.76,2.16-5.59,4.31-11.21c2.88-7.51,4.54-18.06,2.13-23.66C818.65,375.78,816.85,375.89,816.15,376.1Zm-36.7,18.42Zm1.85,14.67h0Z"/>
    <path d="M848,370.37c-.19-.47-.75-.34-1.24.29s1.67,4.83,4.81,9.32c7.55,10.76,8.95,10.61,2.14-.2C850.78,375.08,848.21,370.83,848,370.37Z"/>
    <path d="M845.76,372.79c-.07-.13-.14-.27-.2-.41A4.37,4.37,0,0,0,845.76,372.79Z"/>
    <path d="M850.39,368.15a3.94,3.94,0,0,0-2.24-2.23,3.17,3.17,0,0,0-3.38,1.41,5.23,5.23,0,0,0-1,3.33c0,1.07,0,3.95,5.85,12.27,3.75,5.36,6.41,9.14,8.52,9.36a2.22,2.22,0,0,0,2.05-1.19c2.36-3.37-.33-7.62-4.4-14.09C852.84,372.29,850.8,368.9,850.39,368.15Zm-4.86,4.16v0Zm0,.07c.06.14.13.28.2.41A4.37,4.37,0,0,1,845.56,372.38Zm4.86-4.16.09.2Z"/>
    <path d="M820.71,345.1c-6-8.46-7.69-8-2.25.63l3.9,6.17-6.71-.65c-13.74-1.37-19.89-4.14-25-10.94-5-6.64-5.16-5.63-.72,4.83,1.87,4.4,3.4,8.28,3.4,8.63s-3-.37-6.7-1.63c-4.25-1.46-9.74-5.42-15.05-10.88-4.6-4.72-10.66-9.45-13.48-10.49-4.4-1.62-5.55-1.23-8.07,2.72-3.48,5.47-3.68,9.18-.81,15.37h0c2.34,5,8.51,7.24,11.21,4,2.37-2.84,2-11.81-.52-13.61-3.58-2.56-3.82-2-1.17,2.51,1.93,3.31,2.19,5,1.09,7.25-3.8,7.71-13-1.39-10.59-10.43.73-2.7,2.83-5.15,4.94-5.73,3.79-1.06,5.79.38,21.7,14.91,7,6.37,21.54,11.9,21.54,8.26,0-1.18-.59-2.24-1.32-2.35s-1.91-1.87-2.65-3.89c-1.28-3.51-1-3.49,5.73.07a32.91,32.91,0,0,0,15,3.72C826,353.51,826.35,353,820.71,345.1Z"/>
    <path d="M822.62,342.15c-3.85-5.4-7.22-9.63-9.55-6.3-2.13,3,.09,7.36,2.4,11.12-12.91-1.3-18.52-3.73-23-9.7-2.91-3.85-5.42-7.18-7.64-4.56s-.53,6.85,2.67,14.39c.18.42.34.82.51,1.2-.33-.1-.67-.21-1-.34-3.87-1.32-9-5-13.93-10.12-4.36-4.48-11-9.91-14.58-11.23-5.41-2-7.5-1.26-10.68,3.74-4.36,6.84-4.61,12.61-.92,20.6h0a13.5,13.5,0,0,0,7.84,7.31,9.8,9.8,0,0,0,1.13.28,6.67,6.67,0,0,0,6.59-2.24c2.4-2.88,2.87-8.52,2.27-12.82,0-.41-.12-.8-.19-1.19,2.46,2.14,5.7,5.07,10,9,5.56,5.1,19.87,12.44,24,9.36a5.13,5.13,0,0,0,1.78-4.22,10.2,10.2,0,0,0-.15-1.76,35.19,35.19,0,0,0,14.27,3.15c5.58,0,8.94,0,10.83-1.41l4,.35-2.22-3.5C827.81,349.42,825.4,346.05,822.62,342.15Zm-65.27,4.05c-1.22,2.48-3.12,1-3.68.48a6.3,6.3,0,0,1-1.74-6.12,6,6,0,0,1,2.05-3c.08,2.38,1.49,4.8,2.61,6.7a13.22,13.22,0,0,1,.86,1.68A1.29,1.29,0,0,1,757.35,346.2Zm38.71,11.71Z"/>
    <path d="M846,326.51c-7.91,6.36-14.61,8.22-25.64,7-8.92-1-10.48-.59-8.49,2.46h0c.48.74,2.17,1.18,3.74,1s6.13-.44,10.13-.53c8.26-.18,16.81-3.38,22.3-8.28C854,322.74,852.31,321.4,846,326.51Z"/>
    <path d="M844.42,322.73c-7.49,6-13.58,7.68-24.14,6.51-7.67-.87-10.83-1.11-11.89,2.73-.4,1.47-.48,3.83,1.45,6.79h0a5.55,5.55,0,0,0,4,2.42,8.43,8.43,0,0,0,2.27,0c1.49-.19,6-.42,9.9-.51,8.72-.19,17.78-3.62,23.65-8.87,2.57-2.29,6.45-5.79,4.46-10.41C852.22,316.93,848.29,319.62,844.42,322.73Z"/>
    <path d="M1053,344.33c-2.07,4-2.63,7-2,10.69.74,4.54.45,5.22-2.46,5.7-3.83.61-11.38-5.28-24.79-20-20.44-22.39-45.28-42-63.22-49.44-11.51-4.59-36.1-6.86-47.81-4.37-12.66,2.85-27.64,12.35-35.8,23-14.46,18.77-14.69,45.46-.61,71.07l4,7.31-2.73,6c-4,8.66-3.63,20.82.84,30.14,2,4.1,4,7.47,4.42,7.5s1-2.45,1.12-5.53c.4-7.78,2.69-12.84,6.63-14.63,3.56-1.66,5.85-.5,22.11,9.76,17.1,10.75,45.23,12,75.14,1.35,14.66-5.15,32-6.73,39.56-3.08,13.94,6.7,17.17,28.31,6.92,46.65-4.44,7.87-8.72,11.52-23.08,18.75-10.93,5.32-13.52,6.13-38.37,6.9-21.23.4-28.86.76-37.53,3.34-9.4,2.62-15.19,3.08-42.83.33q-16-1.68-31.95-3.91,1.77,2.32,3.55,4.64a70.41,70.41,0,0,0,6.11,7c2.41,2.24,2.33,2.51-1.25,4.11-2.1.95-6.78,1.43-10.38,1.05-2.19-.23-4.37-.46-6.56-.71q-.44,4-.88,8c-.48,4.42-.45,9.65.08,11.62.78,2.9.49,3.28-1.54,2a80,80,0,0,0-8.53-4.2,47.35,47.35,0,0,1-9.92-5.89c-3.59-3-4-3-5.32.22-1.18,2.91-12.28,13.42-13.91,13.17-.27,0-.61-2.42-.76-5.28s-1.75-10.51-3.56-17-3.69-13.53-4.19-15.68c-.75-3.23-1.09-3.45-2-1.25a50.06,50.06,0,0,0-1.95,9.1,50.76,50.76,0,0,1-3.72,12.49l-2.86,6-1.83-5.84c-1.95-6.27-5.2-13-6.38-13.17-.4-.07-1.08,1.72-1.51,4-.89,4.71-8.6,16.88-10.49,16.54-.69-.12-1.26-4-1.26-8.68s-.61-8.57-1.36-8.7-1.36,1-1.36,2.44c0,3.58-6.58,13.08-8.79,12.68-1-.18-2.51.81-3.44,2.19-2.43,3.6-4.41,2.66-3.39-1.59.47-2,.16-6.92-.7-10.95s-1.77-8.3-2-9.51c-.32-1.52-2.68-1.57-7.67-.18-8.07,2.23-10.78,1-6.63-2.91,1.52-1.44,3.83-7,5.13-12.37s3.23-10,4.27-10.25c1.47-.39,1.39.42-.34,3.5a18.12,18.12,0,0,0-2.25,6.88,27.91,27.91,0,0,1-2.06,7.93c-1.13,2.78-1.84,5.39-1.58,5.8s3.33-.7,6.82-2.48l6.35-3.26c0,1.33,0,2.66,0,4a107.74,107.74,0,0,0,1.7,13.13l1.68,9.15,4.32-2.11c4.41-2.16,8.59-12,8.59-20.18,0-4.05,1.59-3.15,2.24,1.27.19,1.3,1.19,6.21,2.22,10.92q.93,4.28,1.87,8.56l3-4.7a45,45,0,0,0,4.54-11.7c1.5-6.68,3.86-9.28,3.86-4.24,0,3.64,6.79,17.76,8.09,16.85.64-.44,1.9-5.13,2.8-10.42,1.89-11,4.93-18.22,6.87-16.27a2.66,2.66,0,0,1,.63,2.77c-.38.8,1.18,8.38,3.47,16.85s4.59,17,5.11,18.93c.84,3.13,1.6,2.81,6.51-2.84,3-3.51,5.83-7.55,6.16-9,.51-2.13,1.19-2,4.05,1,4,4.18,17.43,11.63,18.47,10.29.39-.49.79-5.6.89-11.35.05-3.49.11-7,.17-10.46l3.87,1.6c2.12.88,6.59,1.31,9.93.95l6.07-.67c-1.81-2-3.61-3.95-5.41-5.94-3-3.27-6-7.44-6.68-9.25s-3.4-3.77-6.39-4.48c-8.1-1.87-22.46-15.49-22.46-21.13,0-1.06,2,1,4.42,4.57,5.39,7.91,12.88,13.34,19.42,14.06l4.9.53-3-6.2c-1.74-3.57-3.3-10.16-3.67-15.47-.58-8.47-1.19-9.86-7.2-16.67a99.2,99.2,0,0,1-9.93-13.43l-3.38-6c-.57,2.12-1.14,4.23-1.72,6.35-.94,3.5-2.1,6.3-2.57,6.24s-2.28-2.42-4-5.25-3.54-5.19-4-5.24-2,3.22-3.46,7.25L811.74,443c-.69-1.58-1.38-3.17-2.06-4.75a81.34,81.34,0,0,0-6-10.52c-2.15-3.17-3.27-5.67-2.51-5.55s3.42,3.48,5.89,7.47q2.24,3.63,4.49,7.25c.6-1.52,1.21-3,1.82-4.55a23.37,23.37,0,0,0,1-10.68c-.71-5.28-.61-5.57.75-2.12a52.67,52.67,0,0,0,5.84,9.64l4.26,5.63,2.94-7.48c2.93-7.44,2.95-7.46,4.29-2.61,1.78,6.5,14.67,23.57,25.65,33.72,1.7,1.57,1-3.28-2.14-14.61A53.51,53.51,0,0,1,854.48,432c0-5.2-1-7.62-5.58-13.19-6.57-8.06-8.69-13.53-9.93-25.46-.5-4.84-1.66-10.29-2.56-12.12-1.34-2.71-1.56-1.31-1.2,7.59.24,6-.29,13.36-1.18,16.35q-.82,2.71-1.63,5.43-.61-2.43-1.25-4.86c-.69-2.68-3.74-7.57-6.78-10.9s-5.17-6.49-4.73-7,3.55,2.56,6.94,6.85c5.16,6.53,6.3,7.3,7,4.82.84-2.92,0-16.19-1.62-25.6-.81-4.7-.74-4.67,3.14,1.5,2.87,4.54,4.45,9.72,5.67,18.56,1.56,11.24,2.35,13.19,9.35,23,4.2,5.86,7.85,10.35,8.12,10s.8-14.22,1.18-30.84c.73-31.89-.1-39.57-5.37-50l-2.7-5.37,4.25-6.24c5.56-8.15,8.11-14.92,9.21-24.38l.9-7.69-4.8,6.17c-3.94,5-5.81,6-10.37,5.53s-6.27-1.83-9.31-6.92a47.93,47.93,0,0,0-16.33-15.89c-2.3-1.29-3.06-1-3.06,1.3,0,1.66-1.27,6.28-2.82,10.27l-2.82,7.24-5.9-9.38c-3.62-5.76-7.92-10.49-11.12-12.21-8.17-4.42-8.61-4.2-8.61,4.69,0,13.48-3.94,15.37-11,5.21-5.41-7.76-9.89-10-20.15-10.22l-7.92-.18c.48,1.83.95,3.66,1.43,5.49,1.19,4.58.92,6.37-1.63,10.85-4.14,7.26-9.52,9.73-17.8,8.12-3.81-.74-8.58-.53-10.6.47s-7,1.62-11.15,1.36-8.5-.14-9.75.28c-1.94.66-2.16-.26-1.53-6.6,1-9.71-3.78-18-11.16-19.54-9.58-2-14,9.54-10.24,26.85.72,3.33,1.66,8.53,2.1,11.57s4.76,12.18,10,21c5.1,8.51,9.91,17.26,10.7,19.44a29.27,29.27,0,0,0,5.81,8.41c1.45,1.48,2.91,2.95,4.37,4.43-.2-2.32-.39-4.63-.58-6.95-.63-7.63.49-8.58,3.22-2.73a39.68,39.68,0,0,0,5.51,7.91c3.24,3.56,3.74,3.71,3.74,1.19a36.47,36.47,0,0,1,1.47-7.92l1.47-5q1.27,3.86,2.54,7.7c1.41,4.24,6,14.14,10.13,22,8.08,15.21,13,31.39,10.46,34.43-1,1.23-3.82.61-9.59-2.19-4.48-2.18-10-4-12.31-3.94-4.68,0-5-.93-2.17-5.63,3-5,2.55-6-3.41-7.14-6.91-1.36-24-9.72-30.63-14.92-6.4-5-7.87-4.43-9.76,4-.85,3.81-2.4,10.7-3.45,15.33-.63,2.8-1.27,5.6-1.9,8.4l6.92.5a47.06,47.06,0,0,0,10.88-.42c2.18-.5,4.16-.59,4.4-.21s-.73,3.63-2.16,7.2c-.86,2.17-1.73,4.34-2.59,6.5l4.31-.38a26.61,26.61,0,0,0,7.94-2.21c3.46-1.73,3.74-1.5,6.47,5.46,3.37,8.56,6,8.78,6.65.54.62-8.51,2.56-6.84,6.22,5.33,3.52,11.7,7.18,16.3,7.89,9.92.23-2.12,2.13-5.28,4.21-7,4.21-3.53,7.39-1.63,9.21,5.52,1.88,7.4-2.32,13.9-14.55,22.35-24.49,16.87-38.73,43.46-42.79,80.42-3.67,33.3,7.78,71,30.75,100.94,11,14.34,28.46,30.43,27.35,25.33-4.71-21.6-4.56-61.08.26-66.84.72-.86.48,3.21-.55,9.06-3.83,21.77-2.17,40,7.64,83.86,8.88,39.61,7.65,55.65-4.91,64.06-4,2.69-6.63,2.79-17.47.49-11.77-2.52-13-2.45-16.83,1.19s-8.41,16.55-8.41,23.08c0,3.53,2.69,3.62,8,.23h0l4.57-2.94q1,2.13,2,4.26a9.15,9.15,0,0,0,14.62,2.75l3.66-3.28,3.07,4.57c4,6,11.56,7.42,16.37,3.06,3.37-3,3.84-3,6.06.14,1.33,1.9,5.22,4.48,8.65,5.72,6.18,2.23,6.27,2.17,9.88-5.14,3-6.13,3.5-8.74,2.78-15.29-.48-4.34-1-11.29-1.14-15.44-.28-7.51-.25-7.54,7.2-10.12a69.42,69.42,0,0,0,10.58-4.59c3-1.86,11.17-14.74,11.17-17.52,0-.74-3.2-2.32-7.12-3.55-15.57-4.91-18.21-17.6-8.08-38.68,16.51-34.43,26.47-69.19,26.54-92.12,0-10.26.43-13.65,1.33-11.3,3.69,9.6-2.92,47-12.93,73l-4,10.47,3.85-.74c2.11-.4,14.55-6.28,27.64-13.37,35.82-19.6,48.12-23.58,71.3-21,19.42,2,27.7,7.51,41.41,28.42,7.26,11,14.26,18.87,27.06,29.93,27.28,23.3,28.41,24.85,29.71,54.18,1.31,29.53.66,31.37-14.72,37.56-13.16,5.22-21.4,14.44-23.61,27-1.18,6.68,1.3,6.81,7.93.26l4.86-4.82,2.16,4.43c2.84,5.82,8.88,5.44,13.89-.95q1.9-2.41,3.79-4.84l3.87,4.15c6,6.44,14,3.8,16.28-5.24.43-1.74,1.59-1.34,3.93,1.33,4.4,5,15.66,5.75,16.88,1.13.46-1.75-.42-5.73-2-8.87-6.56-13.33-8.61-19.92-8.69-27.71-.12-10.86,2.1-16.36,10.56-26.54,10.28-12.42,13.46-26.9,5.64-25.51-4.83.82-9.69-4.66-12.79-14.36-6.31-19.74-5.08-43,4.39-82.94,9.62-40.62,10.69-48.09,10.72-74.22,0-21.16-.33-24.74-3.62-35.77a133.35,133.35,0,0,0-9.09-22l-5.42-9.77,7-9.45c21.25-29.34,16.9-70.37-8.67-82.71-7.83-3.92-9.78-4-23.49-2.47a182.83,182.83,0,0,0-27.88,5.64,114.81,114.81,0,0,1-27.91,4.38c-13.36.2-15.63-.39-20.78-4.44-5.37-4.26-6.29-6.28-7.34-15.95-.22-2-1.17-4-2.11-4.45-1.83-.88-10.26,9.51-11.51,14.18-.61,2.31-1.11,2.12-2.92-1.07a49.13,49.13,0,0,1-3.71-10.75c-2.13-9.52.48-16.41,8.06-21.37L921.3,361l-3.46-3.27c-7.15-6.72-19.31-3-23.7,7.41-1.25,2.94-2.6,5.32-3,5.3s-2.78-3.07-5.25-6.79c-9.23-13.91-6.06-33.09,6.29-38.15,6.58-2.72,12.41,0,13.62,6.48,1.85,9.89,7.6-2.71,6.57-14.37-.69-7.76-.58-8,3.08-7.86,5.09.23,15.92,10.27,19.27,17.9,3.89,8.88,3.61,22.78-.67,33.08q-1.68,4-3.37,8.07l4.4-1.21c6.45-1.78,12.72-7.63,15.89-14.75,3.35-7.53,3.71-22.14.74-30-2.88-7.62-2.55-8.83,1.71-6.28,7.24,4.31,11.11,9,14,17.25,2.61,7.39,2.76,9.24,1.34,17.06A63.16,63.16,0,0,1,964.44,365c-2.34,4.6-2.42,5.37-.55,5.32,3.47-.07,10.71-5.12,13.29-9.25a49.06,49.06,0,0,0,4.21-11.26c.62-2.49,1.23-5,1.85-7.48.71,1.84,1.42,3.67,2.12,5.51a36.09,36.09,0,0,0,16,18.47c7.66,4.15,10.84,4.07,6.84,0-2.7-2.76-7.68-23.67-6.17-25.89.89-1.3,11.29,9.55,23.16,23.65,11.23,13.33,18.28,17.1,28.6,15.34,13.17-2.3,20.84-20.78,14.92-35.37C1065.23,335.51,1057.54,335.67,1053,344.33Z" style="fill: #ffbe29"/>
    <path d="M980.13,740.93c-5.23.4-6.76-.37-9.52-4.7-4.48-7.06-4.21-15.31.8-24.63l4-7.47q-3.55-3.36-7.1-6.77c-3.9-3.74-10.94-12.74-15.65-20C942.11,661,931.73,653.08,918,650.81c-3.06-.51-6.12-1-9.18-1.58,0,3.38,0,6.77,0,10.15,0,13,4.21,25.88,15.67,47.51,13,24.54,13.93,28.2,14.46,59.85l.45,26.75-3.77,5.18c-3.41,4.65-4.94,5.28-15.93,5.84-10.47.49-12.67,1.12-15.74,4.94-4.07,5-5.29,7.83-6.55,15-.74,4.2-.44,5.15,1.66,5.28,1.4.08,4.78-1.81,7.49-4.22h0l4.94-4.39,3.35,4.78c4.39,6.25,9.53,6.28,13.75.08,1.84-2.7,3.49-4.57,3.67-4.15s1,2.48,1.83,4.56c1,2.63,3.18,4,7.05,4.42,4.67.51,5.92-.16,7.77-4.08q1.11-2.32,2.21-4.67l4.86,4.51c13.3,12.28,20.39-1.2,14.45-27-3-13.18-1.36-20.63,8.38-37.94,4.11-7.31,7.47-15.11,7.48-17.27C986.36,740.89,985.6,740.5,980.13,740.93Z" style="fill: #ffbe29"/>
    <path d="M640.05,667.06c-.9,4.54-2.4,4.23-5.8-1.22-5.12-8.19-5.23-22.87-.24-30.31,2.36-3.5,2.34-3.77-.66-8.58-3.23-5.17-5.54-14.51-4-16.27.48-.57,3,.52,5.67,2.42,3.74,2.68,5.22,3,6.76,1.6,4.67-4.35-.39-12.34-7.88-12.46-3,0-4.26-.93-4.7-3.3-.32-1.81-3-4.64-5.93-6.39-5.31-3.12-5.35-3.1-5.35,2.24,0,5.86-2.29,6.46-6.64,1.76-3.53-3.82-7-2.19-7,3.3,0,5.13,3.53,8.42,9.86,9.2,4.85.6,5,5.91.43,12.48l-3.32,4.73,2.63,6.08c3.89,9,3.56,22.48-.69,28.29l-3.33,4.55-2.19-4.7c-3-6.54-7.19-7.05-8.33-1-.74,3.95-.12,6,3.4,11.08,2.37,3.44,5.83,6.58,7.68,7,4.6,1,4.42,6.24-.36,10.53l-3.74,3.36,5.78,2.57c3.18,1.41,5.78,3.33,5.78,4.26,0,3.59,4,15.62,5.29,15.9.75.16,2.31-1.38,3.47-3.42h0a18.65,18.65,0,0,0,2.12-7.79c0-3.38,1-4.06,6.12-4L641,699l-4.08-5.64c-4.85-6.7-5.3-11.21-1-10.29s11.47-4,12.56-8.5a11.22,11.22,0,0,0-.72-6.87C645.37,663.21,640.88,662.83,640.05,667.06Z" style="fill: #ffbe29"/>
    <path d="M711.55,649.49c-8.07-12.3-16.84-32.08-19.12-43.06-1.18-5.72-6.91-16.27-23-42.58L647.91,528.8l-6.18.94a35.61,35.61,0,0,1-9.23.34c-2.88-.56-2.83-.31,1,4.86,1.35,1.81,2.69,3.63,4,5.45l5.67-3.36c5.49-3.26,5.68-3.24,6.36.49a12.62,12.62,0,0,1-2,8c-1.47,2.27-2.31,5-1.86,6.12s-1,2.88-3.14,4c-4,2-6.83,10.89-3.65,11.58,2.86.62,9.17-9.38,8.45-13.38-.38-2-.2-4,.4-4.42,2.45-1.56,2.3,7.33-.2,11.18-1.47,2.27-2.31,5-1.86,6.12s-1,2.88-3.14,4c-4,2-6.83,10.89-3.68,11.58s9.3-8.85,8.53-13.08c-.4-2.21-.25-4.34.35-4.71,1.65-1.06,2.55,6.18,1.15,9.33a9.28,9.28,0,0,0,0,6.39c1.37,3.92,0,10.59-2.56,12.2-1.08.7-.35,2.68,2.29,6.16,3.81,5,3.88,5.49,3.88,24,0,15.5.43,19.6,2.38,22.72,2.19,3.5,2.38,3.56,2.38.65,0-3.17,3.82-6.22,6.93-5.55.92.2,6.67,8.55,12.78,18.55s12.57,18.86,14.39,19.71,3.77,1.77,4.36,2,3.33-.36,6.11-1.38h0c5.25-1.93,16.62-13.68,16.62-17.16C718.52,661,715.38,655.33,711.55,649.49Z" style="fill: #ffbe29"/>
    <path d="M620.75,575.09c-6.82-2.6-6.93-2.56-6.93,2.41,0,4.12,1.08,6,5.78,10,7.56,6.45,16.66,7.93,16.66,2.7h0C636.26,585.19,629.2,578.31,620.75,575.09Z" style="fill: #ffbe29"/>
    <path d="M647,582.08c-2.38-.52-8.71,6.39-8.71,9.51,0,4.87,1.18,4.84,5.71-.18h0C647.44,587.6,649.07,582.53,647,582.08Z" style="fill: #ffbe29"/>
    <path d="M632.17,567c-7.72-6.78-16.95-11.15-19.18-9.08-4.09,3.81-1.37,10.72,5.26,13.29a38.74,38.74,0,0,1,8,4.39c5.08,4,9.92,3.74,10.38-.56C637,572.28,635.75,570.13,632.17,567Z" style="fill: #ffbe29"/>
    <path d="M620.93,543.65c-10.74-7.86-15.49-6.29-12.06,4,1.2,3.58,3.2,5.53,7.7,7.49a78.72,78.72,0,0,1,10.17,5.4c6,4,9.45,3.82,9.92-.58h0C637.07,556,635.31,554.17,620.93,543.65Z" style="fill: #ffbe29"/>
    <path d="M638.14,546.87c-1.31,6.49.82,6.67,5.72.48h0c2.17-2.74,3.95-6.15,3.95-7.57C647.81,535.17,639.24,541.46,638.14,546.87Z" style="fill: #ffbe29"/>
    <path d="M621.65,529.65c-7.53-4-10.85-3.37-10.29,1.86.31,2.86,2.82,5.44,9.93,10.23,11.39,7.67,14.81,8.36,15.37,3.09h0C637.13,540.35,631.91,535.07,621.65,529.65Z" style="fill: #ffbe29"/>
    <path d="M648.58,490.33c-5.15-3.47-8.43-2.92-10.4,1.74-1.51,3.57-.5,10.88,1.56,11.33.7.15,1.27,1.59,1.27,3.19,0,7.49-20.08,6.5-28.32-1.38-2.89-2.77-4.15-8.6-1.74-8.08,1.8.39,3-5,2.12-9.21-1.25-5.73-5-8.44-10.48-7.54-12.33,2.05-12,23.28.57,35,10.29,9.59,32.85,15,43.53,10.34h0C659.85,520,661,498.68,648.58,490.33Z" style="fill: #ffbe29"/>
    <path d="M650.52,213.52c-9.49,7.37-16.72,18.08-23.13,34.26C615.3,278.34,611.1,322.1,611.1,417.44c0,54.13.25,61.27,2.36,66.82,2,5.27,2.12,7.08.71,11.93-.92,3.15-1.33,6.26-.92,6.91,2.69,4.32,22.36,7.62,25.27,4.24h0c.76-.89.43-2.58-.85-4.32-2.8-3.82-2.65-8.56.42-13.36,2.3-3.6,2.59-9.68,3.38-71.44,1.37-106.44,6.8-185.54,14-203.25C658.29,207.91,657.89,207.8,650.52,213.52Z" style="fill: #ffbe29"/>
    <path d="M747,417.7c-2.37-7.88-3.33-9.3-6.72-9.95-10.6-2-27.65-12.33-45.23-27.45-10.15-8.73-13.66-11-14.88-9.58-3.1,3.63,2.06,14.94,10.05,22,7.09,6.26,26.92,16.18,36,17.95,5.25,1,5.37,1.4,2.39,7.12l-2.2,4.2,5.94,1.39a48.48,48.48,0,0,1,10,3.59c5.83,3.16,5.88,3.16,6.71,1.47h0C749.42,427.58,748.51,422.75,747,417.7Z" style="fill: #ffbe29"/>
    <path d="M825.34,463.68c-.48,2.2-1,4.4-1.45,6.6q-3.64-3.87-7.28-7.77c-4-4.28-7.92-9.88-8.71-12.41-1.9-6.05-3.22-6-4.41.13-.32,1.67-.65,3.35-1,5l-1.29-4.9c-1.28-4.87-10.38-20.43-12.12-20.73-.51-.08-1.28,2.12-1.73,4.89-1.57,9.73-3,10.74-7.11,4.88A73.93,73.93,0,0,1,774.08,428c-1.83-4.4-2.54-5.15-2.54-2.71,0,3.09,10.46,21.91,12.36,22.23.44.08,2-2.63,3.37-6s3-6.1,3.47-6c1.93.32,9.35,15,9.35,18.47,0,4.81,2.22,5.08,4.1.5,1.46-3.53,1.56-3.48,5.49,2.23,3.42,5,4,7.23,4,15.38,0,5.26-.33,10-.73,10.46s-2.75-2-5.23-5.63c-3.87-5.57-14.3-17.12-14.51-16,0,.21-.41,4.13-.83,8.71s-.95,8.61-1.19,8.93-1.64-2.87-3.11-7.09a58.87,58.87,0,0,0-5.7-11.94c-3-4.19-3.07-4.21-4.57-.93a68.11,68.11,0,0,1-5.06,8.38l-3.53,5-.93-9.81c-.5-5.4-1.51-10.43-2.24-11.18s-1.33-.25-1.33,1.1-1.45,5.5-3.22,9.22l-3.21,6.75q-1.45-6.28-2.92-12.57c-1.61-6.92-2.57-9.55-2.12-5.85s1.15,10,1.57,13.93,1.23,7.27,1.81,7.38c1.41.27,8.1-9.6,8.1-11.95,0-1,.68-1.14,1.51-.28s1.23,4.44.81,8.71c-.39,3.94-.29,7.23.22,7.32,2.14.38,7-4.87,9.73-10.62,1-2.05,2-4.1,3-6.16,1.27,2.62,2.55,5.23,3.82,7.84a62.9,62.9,0,0,1,4.76,13.1c.51,2.89,1.44,5.35,2.08,5.45,1.12.18,4-11.13,4-15.82,0-3.08.74-2.85,5.16,1.63,5.62,5.69,11.17,14,11.17,16.74h0c0,4.06,2.34,3.13,3.22-1.3A95.18,95.18,0,0,0,815,472.4l0-9.15,4.85,5.8c2.66,3.18,5,5.5,5.23,5.17,1.43-2.23,3.32-13.23,2.58-15C827.21,458.05,826.15,460.06,825.34,463.68Z"/>
    <path d="M816.43,385.51c0,3.95-.66,8.75-1.45,10.67-1.34,3.26-1.74,2.94-6.12-5q-2.34-4.23-4.69-8.46c0,1.78,0,3.56,0,5.35a60.56,60.56,0,0,1-.86,9.54c-.8,4-.93,4-3.09.46-1.24-2.05-3.3-6-4.58-8.75-2.58-5.54-2.91-4.31-1.21,4.47a32.84,32.84,0,0,1,.34,10c-.77,4.14-.85,4.11-6-3.33-5.85-8.37-6.27-8.73-6.34-5.37,0,1.29-1.42,4.43-3.1,7l-3,4.64-5-6.52c-2.9-3.82-5.21-8.72-5.54-11.78-.18-1.74-.37-3.49-.56-5.23-.07,1.76-.13,3.52-.2,5.28-.19,4.95,1.12,7.62,9.76,19.65h0c2.19,3,3.62,3.2,3.68.41,0-1.29,1.25-4.14,2.72-6.34.9-1.33,1.79-2.67,2.68-4l6,7.74,6,7.71,1-8.73c.9-7.86,1.14-8.29,2.4-4.28,1.95,6.18,3.25,5.8,5.25-1.54,2.12-7.78,3.22-7.73,6.51.26l2.58,6.24,2-5.12c2.74-7.13,3.77-15.81,2.28-19.26C816.81,379.18,816.45,380.42,816.43,385.51Z"/>
    <path d="M848,370.37c-.19-.47-.75-.34-1.24.29s1.67,4.83,4.81,9.32c7.55,10.76,8.95,10.61,2.14-.2C850.78,375.08,848.21,370.83,848,370.37Z"/>
    <path d="M820.71,345.1c-6-8.46-7.69-8-2.25.63l3.9,6.17-6.71-.65c-13.74-1.37-19.89-4.14-25-10.94-5-6.64-5.16-5.63-.72,4.83,1.87,4.4,3.4,8.28,3.4,8.63s-3-.37-6.7-1.63c-4.25-1.46-9.74-5.42-15.05-10.88-4.6-4.72-10.66-9.45-13.48-10.49-4.4-1.62-5.55-1.23-8.07,2.72-3.48,5.47-3.68,9.18-.81,15.37h0c2.34,5,8.51,7.24,11.21,4,2.37-2.84,2-11.81-.52-13.61-3.58-2.56-3.82-2-1.17,2.51,1.93,3.31,2.19,5,1.09,7.25-3.8,7.71-13-1.39-10.59-10.43.73-2.7,2.83-5.15,4.94-5.73,3.79-1.06,5.79.38,21.7,14.91,7,6.37,21.54,11.9,21.54,8.26,0-1.18-.59-2.24-1.32-2.35s-1.91-1.87-2.65-3.89c-1.28-3.51-1-3.49,5.73.07a32.91,32.91,0,0,0,15,3.72C826,353.51,826.35,353,820.71,345.1Z"/>
    <path d="M846,326.51c-7.91,6.36-14.61,8.22-25.64,7-8.92-1-10.48-.59-8.49,2.46h0c.48.74,2.17,1.18,3.74,1s6.13-.44,10.13-.53c8.26-.18,16.81-3.38,22.3-8.28C854,322.74,852.31,321.4,846,326.51Z"/>
  </g>
</svg>
