<svg xmlns="http://www.w3.org/2000/svg" viewBox="0 0 1260 1012.04">
  <g>
    <path d="M0,90.08v920C420,738.76,840,1193.28,1260,922V2C840,273.28,420-181.24,0,90.08Z" style="fill: #bf0a30"/>
    <path d="M0,215.53C420-55.78,840,398.74,1260,127.42M0,382.8C420,111.49,840,566,1260,294.7M0,550.08C420,278.76,840,733.28,1260,462M0,717.35C420,446,840,900.56,1260,629.24M0,884.62c420-271.31,840,183.21,1260-88.11"/>
    <path d="M0,926.44c420-271.32,840,183.21,1260-88.11V754.7C840,1026,420,571.49,0,842.8Z" style="fill: #fff"/>
    <path d="M0,257.35C420-14,840,440.56,1260,169.24V85.6C840,356.92,420-97.6,0,173.71Z" style="fill: #fff"/>
    <path d="M0,591.89c420-271.31,840,183.21,1260-88.1V420.15C840,691.46,420,236.94,0,508.26Z" style="fill: #fff"/>
    <path d="M0,424.62c420-271.31,840,183.21,1260-88.11V252.88C840,524.19,420,69.67,0,341Z" style="fill: #fff"/>
    <path d="M0,759.17c420-271.32,840,183.2,1260-88.11V587.42C840,858.74,420,404.22,0,675.53Z" style="fill: #fff"/>
    <path d="M301.44.1C201,1.8,100.48,25.17,0,90.08V508.26c100.48-64.91,201-88.28,301.44-90Z" style="fill: #002868"/>
    <path d="M122.77,233.05q21.51,2.34,43,6.66Q158.25,172.26,150.72,105,136.74,168.62,122.77,233.05Z" style="fill: #fff"/>
    <path d="M135.66,248.21q21.5-16.46,43-31-14-56.52-27.94-112.24Q143.19,176.5,135.66,248.21Z" style="fill: #fff"/>
    <path d="M146.29,255.71c30.15-29.69,60.29-56.51,90.43-81A557.76,557.76,0,0,0,146.29,193Z" style="fill: #fff"/>
    <path d="M163.56,262c24.39-30.81,48.78-59.81,73.16-87.29A678.81,678.81,0,0,0,137,218.77Q150.26,240,163.56,262Z" style="fill: #fff"/>
    <path d="M137.87,269.25q13.29-29.49,26.58-58.23a459.29,459.29,0,0,0-99.74,13.12A703.22,703.22,0,0,1,137.87,269.25Z" style="fill: #fff"/>
    <path d="M155.14,253.21V190.48a538,538,0,0,0-90.43,33.66A512.74,512.74,0,0,1,155.14,253.21Z" style="fill: #fff"/>
    <path d="M132.92,237.39q35.47,38.63,71,82.43-14-57.18-27.94-113.62Q154.42,220.86,132.92,237.39Z" style="fill: #fff"/>
    <path d="M130.71,264.3c24.39,16.66,48.77,35.26,73.16,55.52q-23.3-58.11-46.58-114.14Q144,234.62,130.71,264.3Z" style="fill: #fff"/>
    <path d="M97.56,350q36.59-51.47,73.16-97-13.29-22.17-26.57-43.62Q120.86,278.52,97.56,350Z" style="fill: #fff"/>
    <path d="M97.56,350Q133,285.9,168.51,227.35q-21.49-4.41-43-6.91Q111.53,284.79,97.56,350Z" style="fill: #fff"/>
  </g>
</svg>
