<svg xmlns="http://www.w3.org/2000/svg" viewBox="0 0 1260 1012.04">
  <g>
    <path d="M0,90.08v920C420,738.76,840,1193.28,1260,922V2C840,273.28,420-181.24,0,90.08Z" style="fill: #009543"/>
    <path d="M0,90.08v644C420,462.76,840,917.28,1260,646V2C840,273.28,420-181.24,0,90.08Z" style="fill: #fff"/>
    <path d="M0,90.08v276C420,94.76,840,549.28,1260,278V2C840,273.28,420-181.24,0,90.08Z" style="fill: #00209f"/>
    <path d="M731,610.26c-28.92-47.56-57.84-95.66-86.76-143.85l-.12-36.67,14.48,3.15L638.9,408.34l.12-61.8s-4.9-6.65-9.69-7.58h0c-4.79-.93-9.46,3.86-9.46,3.86q.21,31.08.41,62.14L602.4,421.59l14.48,3.14-.13,35.56c-28.55,35.89-57.1,71.85-85.65,108.34q-6.33-3.64-12.66-7.25Q507.37,585.13,496.3,609c0-.14,54.74,47.36,134.19,64,87.21,18.22,134.58-10.64,134.58-10.69q-11.43-27.55-22.87-55.26Z"/>
    <path d="M731.46,608.46c-28.6-47-57.21-94.6-85.81-142.26q-.06-17.31-.11-34.62,8.3,1.82,16.61,3.6Q651.22,421.59,640.3,408l.12-61.75-.39-.53c-.2-.27-4.5-6.05-9.3-7.87v-.14l-1.43-.28c-5.34-1-10.27,3.95-10.48,4.16l-.35.36q.19,31.05.41,62.11l-19.76,18.37L615.47,426l-.12,33.51C587.1,495,558.84,530.6,530.59,566.71q-6.45-3.71-12.89-7.37-11.6,24.88-23.19,49.91l1.05.9c.54.34,54.51,46.54,131.78,63.75,1,.23,2.11.46,3.17.67,86.64,18.12,134.9-10.48,135.38-10.82l1-.59q-12-28.89-24-57.93Zm-101,63c-72.08-15.11-124.37-56.41-132.37-62.79q10.53-22.71,21.06-45.29,6.23,3.54,12.44,7.13c28.85-36.86,57.69-73.19,86.54-109.45q.06-18.8.13-37.6l-12.61-2.74,16-14.89-.42-62.15c1.09-1,4.51-3.77,7.86-3.27l.23.05.11,0c3.37.74,7,4.91,8.15,6.36l-.12,61.81,17.57,21.9-12.35-2.69q.07,19.37.13,38.73c29,48.34,58,96.61,87,144.33l.66,1.09q5.49-1.53,11-3.1,10.86,26.34,21.74,52.56C756.07,665.47,709.44,688,630.48,671.5Z"/>
    <path d="M684.1,412.56c-5-39.74-22.92-62.37-54.74-69.32l-1-.21c-29.72-6.15-49.67,11.72-53.36,47.62-3.66,35.64,17.74,90.08,18.65,92.4l1.9,4.78c21.22,4.58,42.44,9.25,63.65,13.84v-7.62l6.26,4.74,5.07-10-.58-.13C676.51,472.63,687.61,440.35,684.1,412.56Zm-29.39,72.8q-25.1-5.43-50.19-10.92c-4.94-13.63-18.25-53.35-15.6-79.15,2.92-28.43,17-41.56,39.6-36.9,25.49,5.26,37.6,20.7,41.72,53.37C673.7,439.13,659.79,473.83,654.71,485.36Z"/>
    <path d="M525.81,584c-1,1.22-8.07,15.41-8.07,15.41L530,599l-4.2-15Z" style="fill: #fff"/>
    <path d="M532.9,605.54q-6.46,1-12.91,2.08,7.74,4.85,15.49,9.74l-2.58-11.82Z" style="fill: #fff"/>
    <path d="M538.72,586.88,545.17,609,561,607.33l-4.2-10.76Q547.76,591.7,538.72,586.88Z" style="fill: #fff"/>
    <path d="M548.72,617.21h0q1.13,4.47,2.26,8.94,10.49,5,21,10-4.19-10.6-8.39-21.2Q556.14,616.07,548.72,617.21Z" style="fill: #fff"/>
    <path d="M572,604.33q3.7,10.51,7.42,21L595.19,622l-5.16-9.6Q581,608.36,572,604.33Z" style="fill: #fff"/>
    <path d="M582.29,633.05h0l2.58,8q12.27,4.58,24.53,9.18l-10.33-19.91Q590.68,631.66,582.29,633.05Z" style="fill: #fff"/>
    <path d="M605.84,617.26h0l9,19.29,22.92-4.2-2.58-7.28Z" style="fill: #fff"/>
    <path d="M619.08,643.82h0l4.84,10.24q14.21,2.57,28.4,5.13l-10.65-19.64Z" style="fill: #fff"/>
    <path d="M649.1,627.39l7.74,16.17q9-2.8,18.08-5.65-2.43-4.41-4.85-8.81Z" style="fill: #fff"/>
    <path d="M678.78,644.73q-9,3-18.08,6l4.84,9.53q12.11.48,24.21.91-5.49-8.22-11-16.46Z" style="fill: #fff"/>
    <path d="M684.6,630.76h0L694,645.45q7.59-5,15.17-9.94L704,628.44Q694.29,629.63,684.6,630.76Z" style="fill: #fff"/>
    <path d="M712.35,643.24q-7.26,4.53-14.53,9,1.95,4.11,3.88,8.22,10-.75,20-1.58l-9.36-15.67Z" style="fill: #fff"/>
    <path d="M732.37,622.15q-8.4,2.07-16.78,4.08,5.16,8.29,10.32,16.56,5-7.14,10-14.3c-1.19-2.11-2.37-4.23-3.55-6.34Z" style="fill: #fff"/>
    <path d="M739.14,637.6q-3.54,5.14-7.1,10.28c.33,2.19.65,4.37,1,6.56q6.13-1.11,12.27-2.24l-6.14-14.6Z" style="fill: #fff"/>
  </g>
</svg>
