<svg xmlns="http://www.w3.org/2000/svg" viewBox="0 0 1260 1012.04">
  <g>
    <path d="M0,90.08v920C420,738.76,840,1193.28,1260,922V2C840,273.28,420-181.24,0,90.08Z" style="fill: #239e46"/>
    <path d="M0,90.08v690C420,508.76,840,963.28,1260,692V2C840,273.28,420-181.24,0,90.08Z"/>
    <path d="M0,90.08v230C420,48.76,840,503.28,1260,232V2C840,273.28,420-181.24,0,90.08Z" style="fill: #e70013"/>
    <path d="M630,391c-43.49-9.57-78.75,34.63-78.75,98.18S586.51,611.45,630,621s78.75-34.62,78.75-98.18S673.49,400.59,630,391Z" style="fill: #fff"/>
    <path d="M645.92,409.57c-37.79-8.27-68.42,29.89-68.42,85.11s30.63,106.46,68.42,114.73,68.43-30.22,68.43-85.43S683.71,417.85,645.92,409.57Z"/>
    <path d="M708.75,604.16q12.5-22.57,25-45.26-12.5-8.37-25-16.86Z" style="fill: #fff"/>
    <path d="M774.21,585.56q-12.5-27.3-25-54.77-7.73,14.09-15.46,28.11Q754,572.43,774.21,585.56Z" style="fill: #fff"/>
    <path d="M733.75,496.78l15.46,34q12.49-22.78,25-45.75Q754,491.15,733.75,496.78Z" style="fill: #fff"/>
    <path d="M668.29,514.33q20.24,13.95,40.46,27.71V503.65Q688.52,509.11,668.29,514.33Z" style="fill: #fff"/>
    <path d="M708.75,503.65V542q12.5,8.49,25,16.86,7.74-14,15.46-28.11l-15.46-34Q721.25,500.28,708.75,503.65Z" style="fill: #fff"/>
    <path d="M708.75,441.53v62.12q12.5-3.37,25-6.87Q721.25,469.23,708.75,441.53Z" style="fill: #fff"/>
  </g>
</svg>
