<svg xmlns="http://www.w3.org/2000/svg" viewBox="0 0 1260 1012.04">
  <g>
    <path d="M0,90.08v920C420,738.76,840,1193.28,1260,922V2C840,273.28,420-181.24,0,90.08Z" style="fill: #c1272d"/>
    <path d="M661.23,465.76q-15.62-56-31.23-112.09-15.62,49.24-31.23,98.51c-33.67-7.28-67.34-14.32-101-20.38,27.24,26.58,54.47,53.79,81.71,81.25q-15.6,49.29-31.21,98.72c27.24-16.13,54.49-31.87,81.73-47.6,27.24,27.62,54.49,55.24,81.73,82.46q-15.6-55.78-31.21-111.73c27.24-15.88,54.47-32,81.71-48.77C728.57,480.07,694.9,473,661.23,465.76ZM630,426.27l9.7,34.81-19.4-4.23Zm-69.19,40.28q15.66,3.26,31.3,6.62l-6,18.87Q573.47,479.26,560.81,466.55Zm26.41,94.66q4.85-15.29,9.68-30.56,7.85,7.92,15.68,15.86Q599.89,553.85,587.22,561.21Zm16.34-51.56q5-15.9,10.09-31.81l32.7,7.12q5.05,18.1,10.09,36.2L630,536.44Zm43.86,44.45L663.1,545q4.83,17.37,9.68,34.72Q660.11,567,647.42,554.1Zm26.44-43.05-6-21.43q15.65,3.38,31.3,6.63Q686.53,503.69,673.86,511.05Z" style="fill: #006233"/>
  </g>
</svg>
