<svg xmlns="http://www.w3.org/2000/svg" viewBox="0 0 1260 1012.04">
  <g>
    <path d="M0,90.08v920C420,738.76,840,1193.28,1260,922V2C840,273.28,420-181.24,0,90.08Z" style="fill: #cc092f"/>
    <path d="M0,90.08v920c280-180.88,560-39.16,840-5V85.1C560,50.92,280-90.8,0,90.08Z" style="fill: #ffd200"/>
    <path d="M0,90.08v920c140-90.44,280-100.23,420-83.14V6.94C280-10.15,140-.36,0,90.08Z" style="fill: #0046ae"/>
    <path d="M600.84,243l-5.2-1.12v-7.59c0-3,1.31-5.15,3.12-5.55a9.17,9.17,0,0,0-5.38-3.31h0a6.06,6.06,0,0,0-5.37,1c1.82,1.16,3.15,3.91,3.15,6.9v7.59L586,239.75c-2-.43-3.72-2.7-4.27-5.46-.89,1.49-1.47,4.24-1.47,7.54A20.28,20.28,0,0,0,581.7,250c.53-2.55,2.22-4.13,4.27-3.7l5.19,1.12v36.47c0,2.87-1.23,5-2.94,5.49,2.48,1,4.61,6.34,5.2,9.13.58-2.53,2.72-6.93,5.2-6.89a8.46,8.46,0,0,1-3-6.76V248.37l5.2,1.12c2,.44,3.72,2.72,4.26,5.48.9-1.49,1.47-4.24,1.47-7.53a20.13,20.13,0,0,0-1.47-8.17C604.57,241.82,602.88,243.39,600.84,243Z"/>
    <path d="M600.84,244.53l-5.2-1.13a.72.72,0,0,1-.22-.1l-.82-.17v-1.21a3.11,3.11,0,0,1,0-.32V234a8.22,8.22,0,0,1,1.9-5.61,8.43,8.43,0,0,0-3.08-1.44h0a6.43,6.43,0,0,0-3.08.07,11.75,11.75,0,0,1,1.94,6.48v7.59a1.55,1.55,0,0,1,0,.31v1.2l-.82-.18a.55.55,0,0,1-.22,0l-5.2-1.11a6.75,6.75,0,0,1-4.12-3.65,18.46,18.46,0,0,0-.53,4.38,22.43,22.43,0,0,0,.5,4.61,3.94,3.94,0,0,1,4.15-1.94l6.28,1.35c0,.15,0,.3,0,.46v.78c0,.11,0,.22,0,.32v36.48a7.65,7.65,0,0,1-1.94,5.29,13.88,13.88,0,0,1,2,3,23,23,0,0,1,1.08,3,14.28,14.28,0,0,1,1.07-2.48,7.66,7.66,0,0,1,2-2.14,11.29,11.29,0,0,1-1.94-6.17v-38l.86.18a.81.81,0,0,1,.22,0l5.2,1.12a6.77,6.77,0,0,1,4.12,3.66,18.46,18.46,0,0,0,.53-4.38,22.51,22.51,0,0,0-.5-4.61A4,4,0,0,1,600.84,244.53Z" style="fill: #f5d402"/>
    <path d="M650.79,360.16c-4.46-11.42-6.34-24.66-6.34-37.7,0-5.51,4.23-10.79,4.23-15.25,0-6.74-.43-10.87-.43-10.87,1.5.62,4.12,5.08,4.12,5.08s-.09-11.2-2.51-13.68c0,0,1-1.26,4.52-.64-1-3.89-5.92-9.45-5.92-9.45a2.94,2.94,0,0,1,1.29-1.39,10.51,10.51,0,0,1,4.3-1.11,47.54,47.54,0,0,1-4.83-3,132,132,0,0,1-13.41-10.87c-8.21-7.54-14.46-9.28-17.91-10-2.51-.54-6.19-1.24-8.35.39-2,1.48-1.82,4-2.51,4.74-1.63,1.7-4.43,1-5.77.73-8.71-1.88-9,11.66-9,11.66s2.22-4.44,6.16-3.59c6.55,1.41,11.5,7.7,11.5,9.66a.69.69,0,0,1-.71.79c-4.28-.93-10.73-5.92-14.16-6.83v2.46c7.65,5.53,15.41,12.72,15.41,37,0,15.28-1.25,30.59-6.48,41.71a27.86,27.86,0,0,1-7.67,9.7q15.53,7.44,31.07,14.93,15.52-.7,31.07-1.42A50.1,50.1,0,0,1,650.79,360.16Z"/>
    <path d="M627.34,369.76c.47-1.6.93-3.21,1.4-4.81l-1.38-8.76q-15.54,1.72-31.07,3.47a84.48,84.48,0,0,1-12.72-10.16c-8.21-8.42-12.47-16-22.22-18.65V320c0-5.79,1.43-10.7,1.43-16.24-4.11-2.46-15.52-25.21-26-36.34-15.49,11.56-27.49,33.4-27.49,44.46,0,0,.47,237.76,0,320.48,0,4.77-2,11.14-2,11.14,5.66-2.45,16-21.17,18.21-28.62v3.77c8.54-4,14.79-17.71,17.59-24.88,0,1.13.18,4,.18,4,7.63-8.23,17.35-64,17.35-64q8.08,13.29,16.18,26.63s-5.85,16.11-8.13,18.74a20.76,20.76,0,0,0,3.26,1c-1.07,2-9.2,17.41-11.76,23.34-2.38,5.54-4.07,2.5-7.74,1.75-3-.62-9.94,5.06-11.07,7.7a25,25,0,0,0-2.08,9.26c0,3.31,2.4,8.33,2.4,8.33a4,4,0,0,1,.72-2s6.31,12.75,7.24,14.45c.72,1.31,4,2.73,5.09,1.46,2.85-3.19,5.6-5.27,8.13-10.2,1.31-2.54,1.41-5.74,2.91-8.44,5-9.06,15-26.28,17.27-30.21.15,1.26.28,2.31.43,3.6,2.58-7.08,15-19,15-19l13,11.56s-24.28,76.2-45.84,84.23c0,0,9.38,7.78,20.9,19,1.68,1.64,3.41,3.37,5.16,5.14,1.45-2.24,3-4.74,4.47-7.36,6.89-12,13.62-26.09,13.62-26.09.47,4.15-3.16,15.86-9.31,30-1.21,2.77-2.48,5.67-3.87,8.59,1.56,1.63,3.1,3.28,4.65,5,11.41,12.49,22.12,26.35,26.09,37.8q1.39-4.8,2.8-9.62l-2.8-10.84Z"/>
    <path d="M566.54,339.52a36.77,36.77,0,0,0-5.84-.75c.91,3.72,3.24,12.8,4.73,13.7,1.37-3.71,9.2-7.63,9.21-7.64h0C571.64,342.14,568.78,340,566.54,339.52Z" style="fill: #b07f55"/>
    <path d="M577,356.63c2.16-2.49,7.47-2.54,7.49-2.54-3.08-2.69-6.52-6.3-9.82-9.26C574.64,344.85,575.12,355.63,577,356.63Z" style="fill: #b07f55"/>
    <polygon points="574.64 344.83 574.64 344.83 574.64 344.83 574.64 344.83" style="fill: #b07f55"/>
    <polygon points="584.46 354.09 584.46 354.09 584.46 354.09 584.46 354.09" style="fill: #b07f55"/>
    <path d="M623.77,359.3c-1.36,2.41-6.19,9.43-15.87,8.53a35.25,35.25,0,0,0,4.51-10.74,50,50,0,0,1-6.88,5.51c-6.59,3.37-16,1.47-16,1.48a38.45,38.45,0,0,0,6.56-4.25c-1.74-.48-7.71-2.29-11.65-5.74h0s-6.23,4.62-7.27,7.08c-3-2.53-4.91-10.61-4.91-10.61s-5.41,3.5-6.24,8.22c-5-7.36-9.25-18.52-10.57-22.14-.61,1.48-1.42,3.33-2.65,5.79v28.73l8.13-9.42v9.53l-9.17,10.61-6.06-9.45v203c7.66-8.14,14.37-53.89,14.37-53.89q9.57,20.57,19.13,41.17s-3.42,11.51-6.31,12.9c0,0,3.29,1.1,5.27-.4.36,2.89.82,7.29.83,7.29,1.57.26,4.44-2.3,4.44-2.3.61,2.37,1.65,8.94,1.65,8.94,2.43-1.85,9.92-13,9.92-13q10,8.94,20,17.9s-19.37,66.19-38.31,83.48a156.84,156.84,0,0,1,14.55,11c6.32-9.45,12.86-22.62,18.17-34.43,5.73-12.76,10.43-36.3,10.43-36.3,2.66,10-3,56.14-14.44,83.63,9.45,9.23,17.87,18.86,21.89,26.11q1.75-4.71,3.52-9.41V370.52l-3.5-.76A56.64,56.64,0,0,1,623.77,359.3Z" style="fill: #b07f55"/>
    <path d="M556,303.41c-4.85-3.47-19.24-25.67-19.24-25.66a86.14,86.14,0,0,0-18,22.16l3.61,12s5.68-7.42,7.14-9.34V299.9a13.82,13.82,0,0,1,2.15-6.74l2.07,1.51a11.86,11.86,0,0,0-2.18,6.05v3.35L537.7,319l6.3-8.62v-1.52a9.59,9.59,0,0,1,1.69-5.57l2.11,1.52a7.28,7.28,0,0,0-1.72,4.89v2.61c2.14,4.9,6.56,14.23,10.07,16.72V309.93l-.18-6.52Z" style="fill: #b07f55"/>
    <path d="M514.47,312.87v23.39l5-5.84V314.66l-3.3-9.37A21.53,21.53,0,0,0,514.47,312.87Z" style="fill: #b07f55"/>
    <path d="M529.34,340.28l5.77-6.77v-9.73q-2.88-7-5.77-14Z" style="fill: #b07f55"/>
    <path d="M521.53,330.86c1.92,3,3.85,6,5.77,9v-28.1q-2.88,3.86-5.77,7.72Z" style="fill: #b07f55"/>
    <path d="M545,317.29V344c3.79-2.22,7.3-8.26,8.64-10.75C549.86,329.79,545.87,319.57,545,317.29Z" style="fill: #b07f55"/>
    <path d="M537.19,333.93l5.77,9v-24.7l-5.77,7Z" style="fill: #b07f55"/>
    <path d="M514.47,356.78q2.5,3.9,5,7.81V339.94l-5,5.9Z" style="fill: #b07f55"/>
    <path d="M521.53,364.92q2.88-3.36,5.77-6.73v-8.84q-2.89-4.49-5.77-9Z" style="fill: #b07f55"/>
    <path d="M529.34,358.54q2.88,4.51,5.77,9V343q-2.9,3.38-5.77,6.76Z" style="fill: #b07f55"/>
    <path d="M537.19,368l5.77-6.74v-8.74q-2.9-4.53-5.77-9.06Z" style="fill: #b07f55"/>
    <path d="M545,353.5v8.21l5.77,9.08v-24.6C549,349.28,547,352.13,545,353.5Z" style="fill: #b07f55"/>
    <path d="M542.24,371.68l-6.09,7-6.09-9.52V608s10.19-13,12.9-16.48c-.3-6.62-.72-16.78-.72-16.78Z" style="fill: #b07f55"/>
    <path d="M514.47,366.3V622.62c3.95-2.74,12.11-16.38,12.11-22.9V368.57l-6.1,7.1Q517.48,371,514.47,366.3Z" style="fill: #b07f55"/>
    <path d="M577.17,588h0c-1.26-2.35-1.22-8.21-1.22-8.22a3,3,0,0,1-1.39.44c-.8,1.63-9.09,18.56-14.19,29-1.24,2.54-7.39-.9-8.17-.84-3.27.24-7.94,4.35-8.39,6.09-.26,1,.36,2.84,1,3,1.16.33,2.21-1.78,6-2.71,3.46-.85,6.06,1.35,9.06-1.27-.15,4.19-4.08,6.6-4.08,9.57a4.09,4.09,0,0,0,4-1.63s-.22,2.83-.22,5.24a6.44,6.44,0,0,0,2,4.23s1.13-6.49,2.48-8.85c5.41-9.51,16.34-29,18.24-32.37-.39-3-.68-5.22-.68-5.22Z" style="fill: #d10429"/>
    <path d="M548.14,617.46a.42.42,0,0,0-.47.11l-2,2.16a1.25,1.25,0,0,0,0,1.35c.25.47.67.63.93.35l2-2.16a1.27,1.27,0,0,0,0-1.35A1,1,0,0,0,548.14,617.46Z" style="fill: #d10429"/>
    <polygon points="548.6 617.92 548.6 617.92 548.6 617.92 548.6 617.92" style="fill: #d10429"/>
    <path d="M550.25,620.46a1,1,0,0,0-.86.35L544.52,626a3.08,3.08,0,0,0-.07,3.28c.6,1.13,1.62,1.5,2.25.83l4.88-5.24a3,3,0,0,0,.07-3.23A2,2,0,0,0,550.25,620.46Z" style="fill: #d10429"/>
    <path d="M554.44,627a2,2,0,0,0-1.43-1.18,1,1,0,0,0-.82.35l-4.88,5.18a3.1,3.1,0,0,0-.07,3.28c.6,1.13,1.59,1.5,2.22.82l4.91-5.22a3,3,0,0,0,.07-3.23Z" style="fill: #d10429"/>
    <path d="M556.12,631.19h0a.93.93,0,0,0-.82.3l-4.91,5.22a3,3,0,0,0,0,3.23c.6,1.14,1.58,1.5,2.22.83l4.87-5.18a3.1,3.1,0,0,0,.07-3.28A1.86,1.86,0,0,0,556.12,631.19Z" style="fill: #d10429"/>
    <path d="M745.44,361c0-11.06-12-37.36-27.49-55.14C707.43,312.8,696,330.8,691.9,331.54c0,5.54,1.43,11,1.44,16.84v10.83c-9.76-1.39-14,4.34-22.22,9.26-4.67,2.8-11.31,4.38-12.72,4.69q-15.54-8.46-31.07-17c-.46,2.72-.93,5.44-1.39,8.16l1.4,5.42V727.49q-1.4,4.82-2.8,9.62,1.4,5.43,2.8,10.84c4-9.72,14.68-18.9,26.09-26.45,1.55-1,3.1-2,4.66-3-1.4-3.52-2.66-7-3.87-10.25-6.15-16.76-9.79-30.06-9.32-34,0,0,6.73,17.06,13.62,32,1.5,3.26,3,6.42,4.48,9.29,1.75-1,3.48-2,5.16-2.92,11.51-6.26,20.89-10.1,20.89-10.1-21.55-17.07-45.83-103.9-45.83-103.89l13-5.92s12.43,17.26,15,25.43c.14-1.22.27-2.22.42-3.42,2.29,4.91,12.26,26.38,17.28,37.53,1.5,3.34,1.6,6.58,2.9,9.67,2.53,6,5.29,9.2,8.13,13.57,1.14,1.75,4.37,1.66,5.09.64.93-1.31,7.24-11.5,7.24-11.5A5.88,5.88,0,0,1,713,667s2.4-4.05,2.4-7.36a31.85,31.85,0,0,0-2.08-10.1c-1.13-3.1-8-11.58-11.07-12.22-3.67-.76-5.36,1.58-7.74-5-2.55-7-10.69-25.81-11.76-28.27a19,19,0,0,0,3.27.43c-2.29-3.59-8.14-22.19-8.14-22.19q8.1-9.88,16.19-19.81s9.71,59.77,17.34,71.09c0,0,.13-2.78.18-3.89,2.8,8.3,9.06,24.52,17.6,31.89v-3.77c2.18,8.31,12.54,31,18.2,35.58,0,0-2-7.11-2-11.88C745,598.6,745.44,361,745.44,361Z"/>
    <path d="M689.25,379.13c1.5-.27,3.82-8.38,4.73-11.72a40.61,40.61,0,0,0-5.84-1.7c-2.24-.47-5.1.47-8.1,1.9h0S687.89,374.85,689.25,379.13Z" style="fill: #b07f55"/>
    <polygon points="670.22 372.68 670.22 372.68 670.22 372.68 670.22 372.68" style="fill: #b07f55"/>
    <polygon points="680.04 367.61 680.04 367.61 680.04 367.61 680.04 367.61" style="fill: #b07f55"/>
    <path d="M680,367.61c-3.29,1.56-6.74,3.69-9.82,5.07,0,0,5.34,2.33,7.49,5.73C679.56,378.2,680,367.62,680,367.61Z" style="fill: #b07f55"/>
    <path d="M693.73,399.8v-9.52l8.13,12.78V374.33c-1.22-3-2-5.15-2.65-6.88-1.32,3.08-5.57,12.47-10.57,17.73-.82-5.06-6.24-10.84-6.24-10.84s-1.93,7.26-4.9,8.53c-1-2.91-7.27-10.18-7.28-10.19h0c-3.94,1.76-9.91,1-11.64.73a71.25,71.25,0,0,0,6.55,7.07s-9.39-2.15-16-8.38a96,96,0,0,1-6.88-8.51,53.94,53.94,0,0,0,4.52,12.71c-9.69-3.31-14.51-12.44-15.88-15.45a37.45,37.45,0,0,1-3.58,8.9l-3.5-.76V716.55l3.51,10.94c4-5.5,12.44-11.45,21.9-16.58-11.44-32.45-17.1-81.06-14.44-89.91,0,0,4.69,25.59,10.42,40.84,5.31,14.12,11.85,30.12,18.17,42.3a95.15,95.15,0,0,1,14.55-4.73c-18.94-25.35-38.31-100-38.31-100l20-9.2s7.49,14.37,9.93,17.26c0,0,1-6.12,1.65-8.23,0,0,2.87,3.79,4.44,4.2,0,0,.47-4.2.82-6.94a8.6,8.6,0,0,0,5.27,2.64c-2.89-2.61-6.31-15.58-6.31-15.58Q685,567,694.59,550.43S701.31,599,709,610.24v-203l-6.06,7Z" style="fill: #b07f55"/>
    <path d="M718,316.19S703.56,332.58,698.71,334h0l-.18,6.45v19.1c3.51-1,7.93-8.55,10.07-12.57v-2.62a10.42,10.42,0,0,0-1.72-5.58l2.11-.67a13.29,13.29,0,0,1,1.69,6.26v1.52l6.3,11.17q3.1-6.24,6.2-12.47v-3.35c0-2.26-1.18-5-2.18-6.93l2.08-.68a19.15,19.15,0,0,1,2.15,7.6V344l7.13,12.13s2.84-8.38,3.62-10.65A152.15,152.15,0,0,0,718,316.19Z" style="fill: #b07f55"/>
    <path d="M735.19,359.88v15.76q2.52,3.89,5,7.77V360a27.13,27.13,0,0,0-1.72-8.24Z" style="fill: #b07f55"/>
    <path d="M719.57,372.6l5.77,9.06V351.2l-5.77,11.67Z" style="fill: #b07f55"/>
    <path d="M727.38,382l5.77-6.72V363.88l-5.77-10Z" style="fill: #b07f55"/>
    <path d="M701,364.85c1.34,3,4.85,10.53,8.64,14.28V352.39C708.81,354.32,704.83,362.92,701,364.85Z" style="fill: #b07f55"/>
    <path d="M711.72,378.87l5.77-6.68v-8.74q-2.88-4.63-5.77-9.28Z" style="fill: #b07f55"/>
    <path d="M735.19,409.81c1.68-2,3.35-3.93,5-5.89V393l-5-7.82Z" style="fill: #b07f55"/>
    <path d="M727.39,400.38q2.88,4.49,5.77,9V384.82l-5.77,6.71Z" style="fill: #b07f55"/>
    <path d="M719.58,406.67l5.76-6.75v-8.74l-5.76-9.05Z" style="fill: #b07f55"/>
    <path d="M711.73,397.18l5.77,9.08V381.71l-5.77,6.74Z" style="fill: #b07f55"/>
    <path d="M703.92,378.94v24.6l5.77-6.72v-8.21C707.7,386.43,705.7,382.75,703.92,378.94Z" style="fill: #b07f55"/>
    <path d="M712.44,407.9v203s-.42,10-.71,16.5c2.71,4.56,12.9,21.65,12.9,21.64V410.3l-6.09,7.1Q715.48,412.66,712.44,407.9Z" style="fill: #b07f55"/>
    <path d="M728.11,411V642.18c0,6.53,8.16,23.35,12.11,27.58V413.45l-6,7.05Z" style="fill: #b07f55"/>
    <path d="M702.49,640.57c-.79-.38-6.94.51-8.17-2.54-5.11-12.57-13.4-33-14.2-35a4.93,4.93,0,0,1-1.39-1s0,5.89-1.22,7.69h0l-4.45-5.39s-.29,2.08-.68,4.93c1.91,4.21,12.84,28.32,18.24,40.08,1.35,2.93,2.48,9.89,2.48,9.89a3.82,3.82,0,0,0,2-3.41c0-2.41-.22-5.33-.22-5.33s1.47,2.77,4,3.3c0-3-3.93-7-4.09-11.27,3,3.87,5.6,2.75,9.07,5,3.77,2.48,4.82,5,6,5.16.68.08,1.3-1.51,1-2.62C710.42,648.17,705.75,642.16,702.49,640.57Z" style="fill: #d10429"/>
    <polygon points="706.08 651.56 706.08 651.56 706.08 651.56 706.08 651.56" style="fill: #d10429"/>
    <path d="M707,651.59a.6.6,0,0,0-.47-.3.52.52,0,0,0-.46.27,1.29,1.29,0,0,0,0,1.36c.66,1,1.33,2,2,3a.53.53,0,0,0,.93,0,1.31,1.31,0,0,0,0-1.36Z" style="fill: #d10429"/>
    <path d="M705.29,654.12a1.75,1.75,0,0,0-.86-.7,1.22,1.22,0,0,0-1.4.6,3.09,3.09,0,0,0,.08,3.26l4.87,7.23a1.28,1.28,0,0,0,2.26.09,3.18,3.18,0,0,0-.08-3.31Z" style="fill: #d10429"/>
    <path d="M702.5,658.36a1.74,1.74,0,0,0-.83-.7,1.27,1.27,0,0,0-1.43.59h0a3.11,3.11,0,0,0,.07,3.26l4.91,7.24a1.25,1.25,0,0,0,2.22.1,3.22,3.22,0,0,0-.07-3.32Z" style="fill: #d10429"/>
    <path d="M699.38,662.37a1.56,1.56,0,0,0-.82-.65h0a1.2,1.2,0,0,0-1.4.55,3.2,3.2,0,0,0,.07,3.31q2.44,3.6,4.88,7.19a1.24,1.24,0,0,0,2.22.09,3.07,3.07,0,0,0,0-3.25Z" style="fill: #d10429"/>
    <path d="M652.3,369.91c-1.8-2.72-2.66-6-3.73-8.92-2.72-7.46-6.56-16.84-6.56-39.06,0-7.07,4.12-11.09,4.12-15.27A127.94,127.94,0,0,0,645,290.72l4.59,3.09c0-3.22-1.81-6.94-3.62-7.54.53-2.64,3.76-2.47,3.76-2.48a11,11,0,0,0-4.94-6.15,7.67,7.67,0,0,1,2-3.32c-1.63-1.16-3.46-2.61-5.44-4.33-7.59-6.57-13.24-13.14-21.26-14.89h0c-.61-.13-1.31-.33-2.08-.5s-1.58-.34-2.4-.48c-2.73-.45-5.5-.47-6.49,1.31-.52.95-1,1.59-.46,3,.32.81,2.49,1.12,4.44,1.54,2.91.63,5.56,4.82,8.24,5.41,2.1.46,4.14.17,6.38.66,6.48,1.41,10.76,11.53,13.41,14.54-2.37-.18-9.3-10.87-12.62-11.6-2.71-.59-3.76.13-6.41-.45-3.59-.79-7.63-6-10.11-6.55-1.89-.41-2.43.31-2.43,1.57,0,6,9.11,10.33,8.52,10.59a5.16,5.16,0,0,0-1.93,3.35,6.16,6.16,0,0,0,1.11,3.22,14.69,14.69,0,0,1,2.72,7.61s-5-6.68-7.13-7.15c-4.18-.91-3.45,3.51-2.9,5.23,1.8,5.24,2.83,12.4,2.83,22.59,0,27.17-3.68,35.91-6.66,42.77-1.07,2.45-1.92,5.37-3.69,7.32,7.83-4.41,13.65-10.78,13.65-17.87V314.36l2,.44v26.85c0,5.14-.86,7.35-.86,7.35-1.23,5.42-3.72,13.65-5.27,16.85,7.23-4.13,10.9-10.47,10.9-13.12V315.84l2,.45V353.7l-.39,2.48a28.93,28.93,0,0,0,2.76,5.57c.78-.6,1.92-2.63,2.79-4.36l-.39-2.65V317.32l2,.45v36.89c0,2.65,3.67,10.59,10.89,17.87a153.55,153.55,0,0,1-5.26-19.15,26.92,26.92,0,0,1-.86-7.72V318.81l2,.45V346.1C638.61,353.19,644.45,362.1,652.3,369.91Z" style="fill: #b07f55"/>
    <polygon points="594.11 263.82 594.11 263.82 594.11 263.82 594.11 263.82" style="fill: #cc092f"/>
    <path d="M600.08,260.43c-4.26-.92-6,3.36-6,3.39a6.5,6.5,0,0,1,4.24-.37c10.16,2.2,13.8,12.58,13.8,12.58,0-5.19-3.58-11-4.37-14.12C607.78,261.91,601.87,260.81,600.08,260.43Z" style="fill: #cc092f"/>
    <path d="M602.12,274s3.74,6.43,5.88,8.08a20,20,0,0,1,2.64-4.53h0A12.91,12.91,0,0,1,602.12,274Z" style="fill: #d10429"/>
    <polygon points="607.21 267.96 607.21 267.96 607.21 267.96 607.21 267.96"/>
    <path d="M604.71,265c0,1.22,2.49,2.93,2.5,2.93a8.57,8.57,0,0,0-.56-2.86C605.92,263.73,604.71,263.47,604.71,265Z"/>
    <path d="M618,266.26c-2-.43-3.58,1.07-3.58,3.35a5.07,5.07,0,0,0,3.58,4.91c2,.43,3.58-1.07,3.58-3.35A5.07,5.07,0,0,0,618,266.26Z"/>
    <path d="M618,266.75c-1.38-.3-2.49,1.09-2.49,3.1s1.11,3.88,2.49,4.18,2.49-1.09,2.49-3.1S619.34,267.05,618,266.75Z" style="fill: #f5d402"/>
    <path d="M618,268.85c-.58-.13-1.06.46-1.06,1.31a1.79,1.79,0,0,0,1.06,1.78c.58.12,1.06-.46,1.06-1.32A1.77,1.77,0,0,0,618,268.85Z"/>
    <path d="M558.21,654.17l11.34,11.4q1.38-8.93,2.75-17.85L561,636.31Q559.59,645.24,558.21,654.17Z"/>
    <path d="M504,450.76q23.08,78,46.16,156.61l4.91,1q-23.49-80-47-159.59Z"/>
    <path d="M559.23,638c.69,2.37,1.39,4.75,2.08,7.13l4.05-1.88q-1.4-4.78-2.8-9.58Z"/>
    <polygon points="522.47 567.91 522.47 567.91 522.47 567.91 522.47 567.91"/>
    <path d="M537.07,574.71c-6.21-4.41-14.56-6.79-14.6-6.8s3.9,12.48,6.85,14.66c-1.53-.91-6.49.79-6.49.79s8.74,13.1,16.17,15.34c6.29,1.9,9.34-2.06,9.34-2.06l-1.26-10S543.23,579.07,537.07,574.71Z"/>
    <polygon points="551.78 552.74 551.78 552.74 551.78 552.74 551.78 552.74"/>
    <path d="M555.43,571.56c1-7.84-3.64-18.81-3.65-18.82a29.61,29.61,0,0,0-6.84,13.09c-1.47,7.48,1,16.8,1,16.8q2.26,6.6,4.51,13.21a22.87,22.87,0,0,0,8.91-10.29c2.66-6.72,1.69-16.72,1.69-16.72S556.06,570.5,555.43,571.56Z"/>
    <path d="M522.8,524.47a12.68,12.68,0,0,0-9.89-2.13s3.69,10,6.23,11.84c-2.31-1.06-7,2.68-7,2.69s4.7,7.8,10.34,9.39a24.59,24.59,0,0,0,12-.14h0q-1.53-5-3-10S527.44,527.93,522.8,524.47Z"/>
    <path d="M539,515.9c.72-3.07-2.33-12.91-2.33-12.91h0s-5.08,4.21-7.25,9.59-1.14,12.9-1.14,12.9l7,21.13s6.31-2.25,8.38-11.06-.09-24.21-.09-24.21S539.9,514,539,515.9Z"/>
    <path d="M509.54,476A23.38,23.38,0,0,0,496.9,471h0s2.29,6.57,4.49,8.39c-1.51-1.1-5.48.39-5.48.39s4.17,10.69,9.85,14.75S518.62,496,518.62,496l-2.49-10.21A20.75,20.75,0,0,0,509.54,476Z"/>
    <path d="M520.64,469a33.31,33.31,0,0,0-3-12.25h0a16.85,16.85,0,0,0-4.1,9.27c-.64,5.76,1.53,13.75,1.53,13.75q3.35,9.88,6.67,19.77s5.35-4.48,6.17-13.65-2.9-23-2.9-23S521.41,465.86,520.64,469Z"/>
    <polygon points="494.8 417.2 494.8 417.2 494.8 417.2 494.8 417.2"/>
    <path d="M506.31,419.75a43.26,43.26,0,0,0-2.21,10.34c-1.31-5-9.27-12.87-9.3-12.89s-1.19,9.87.84,16c1.82,5.51,3,6.85,3,6.85a18.42,18.42,0,0,0-8.71-5.18s1.86,11.28,6.32,17.08a15.75,15.75,0,0,0,11.34,5.9,36.93,36.93,0,0,0,4.21-17.48C511.46,430.86,506.31,419.75,506.31,419.75Z"/>
    <path d="M556.55,595c-.92.07-1.53,1-2.31,1.46-1.49.81-5.52-.21-5.54-.21.06,1.22.13,2.44.19,3.65,4.11.9,4.72.43,5.78,2.54.7,1.4,2.37,2.85,4.05,2.08s2.43-3.56,1.66-6.18S558.06,594.92,556.55,595Z"/>
    <polygon points="548.7 596.29 548.7 596.29 548.7 596.29 548.7 596.29"/>
    <path d="M548.34,593.46h0s-2,4.7-3.47,5.66c-.76.5-1.7.49-2.34,1.37a5.93,5.93,0,0,0-.55,6c1,2.46,3.13,3.51,4.67,2.34s1.78-3.78,1.42-5.39c-.54-2.42.13-2.73,2.28-7.41Z"/>
    <polygon points="534.41 547.73 534.41 547.73 534.41 547.72 534.41 547.73"/>
    <path d="M542.26,546.43c-.92.08-1.53,1-2.31,1.47-1.49.82-5.52-.17-5.53-.17l.18,3.65c4.11.87,4.72.4,5.78,2.5.7,1.4,2.37,2.84,4,2.06s2.43-3.57,1.67-6.18S543.77,546.3,542.26,546.43Z"/>
    <path d="M535.25,549.17h0s-2.55,4.09-4.11,4.69c-.82.31-1.77.09-2.51.79a5.35,5.35,0,0,0-1.19,5.67c.76,2.6,2.78,4.09,4.46,3.3s2.2-3.24,2-4.88c-.29-2.46.42-2.61,3.09-6.65Z"/>
    <path d="M528.42,500.9c-.93.09-1.53,1-2.32,1.48-1.49.84-5.53-.14-5.53-.14h0l.18,3.65c4.12.85,4.73.37,5.78,2.47.71,1.4,2.38,2.83,4.06,2s2.43-3.59,1.66-6.19S529.92,500.76,528.42,500.9Z"/>
    <polygon points="521.71 501.7 521.71 501.7 521.71 501.7 521.71 501.7"/>
    <path d="M521.71,501.7s-2.55,4.11-4.11,4.72c-.82.32-1.77.1-2.51.81a5.35,5.35,0,0,0-1.19,5.67c.76,2.6,2.78,4.08,4.46,3.28s2.2-3.26,2-4.9c-.29-2.46.42-2.61,3.09-6.67Z"/>
    <polygon points="505.82 454.3 505.82 454.3 505.82 454.3 505.82 454.3"/>
    <path d="M513.67,452.91c-.92.09-1.53,1-2.32,1.49-1.48.85-5.51-.1-5.53-.1L506,458c4.12.82,4.73.34,5.78,2.43.71,1.39,2.38,2.81,4.06,2s2.43-3.61,1.66-6.21S515.17,452.75,513.67,452.91Z"/>
    <path d="M507,453.76h0s-2.55,4.12-4.11,4.74c-.81.33-1.77.12-2.51.83a5.37,5.37,0,0,0-1.19,5.68c.77,2.6,2.78,4.06,4.46,3.25s2.21-3.28,2-4.92c-.29-2.45.42-2.61,3.09-6.69Z"/>
    <path d="M560.89,653l7,7.07L569.63,649l-7-7.08Z" style="fill: #f5d402"/>
    <path d="M522.5,507c-1,.45,2.39,9.22,4,14.81s3.79,15.25,5.26,14.65h0c1.38-.56-3.52-14-5.2-19.69S523.54,506.55,522.5,507Z" style="fill: #f5d402"/>
    <path d="M509.67,462.88c-.95.46.65,4.48,2.3,10.06s3.22,11.88,4.69,11.26h0c1.38-.58-1.75-7.92-3.06-12.35S510.71,462.38,509.67,462.88Z" style="fill: #f5d402"/>
    <path d="M535.22,547.42c-.94.44,2.1,11.61,6.18,25.49s9.13,30.36,10.29,30.14h0c.87-.16-4-15.35-8-29.24S536.27,546.93,535.22,547.42Z" style="fill: #f5d402"/>
    <path d="M496.83,423.69s-.18,7.32,1.49,11.8a14.89,14.89,0,0,0,5.39,6.82s.18-7.32-1.49-11.8A14.69,14.69,0,0,0,496.83,423.69Z" style="fill: #097754"/>
    <path d="M500.25,444.16a14.26,14.26,0,0,0-6.9-4.44s2.45,7.13,5,10.42,5.43,3.38,5.43,3.38S502.78,447.45,500.25,444.16Z" style="fill: #097754"/>
    <path d="M507.09,427.34a33.28,33.28,0,0,0-1.29,9.9,49,49,0,0,0,2.27,11.6,39.44,39.44,0,0,0,1.73-11.25C509.63,432.3,507.6,428.93,507.09,427.34Z" style="fill: #097754"/>
    <polygon points="507.09 427.35 507.09 427.35 507.09 427.35 507.09 427.35" style="fill: #097754"/>
    <path d="M507.64,477a16.63,16.63,0,0,0-7.92-3.66h0a27.16,27.16,0,0,0,5.46,7.78,20,20,0,0,0,8.24,4A30.81,30.81,0,0,0,507.64,477Z" style="fill: #097754"/>
    <polygon points="500.78 483.76 500.78 483.76 500.78 483.76 500.78 483.76" style="fill: #097754"/>
    <path d="M508.89,487.33c-2.88-2.48-8.1-3.57-8.11-3.57s1.58,4.8,4.47,7.27,8.8,3.42,8.8,3.42S511.78,489.8,508.89,487.33Z" style="fill: #097754"/>
    <polygon points="517.42 462.75 517.42 462.75 517.42 462.75 517.42 462.75" style="fill: #097754"/>
    <path d="M517.42,462.75a21.36,21.36,0,0,0-1.58,8.56,37.87,37.87,0,0,0,2.26,10.15,41.39,41.39,0,0,0,1.3-10.21A24.22,24.22,0,0,0,517.42,462.75Z" style="fill: #097754"/>
    <path d="M523.85,470a30.27,30.27,0,0,0-3.42,11.22,38.92,38.92,0,0,0,1.7,12.53,21.46,21.46,0,0,0,4-10.53c.43-5.94-2.32-13.22-2.32-13.22Z" style="fill: #097754"/>
    <path d="M523.73,527.61a11.55,11.55,0,0,0-8.12-3.63h0a18.84,18.84,0,0,0,1.61,4.77,40.51,40.51,0,0,0,3.39,5.38,6.91,6.91,0,0,1,4.63.74c2.56,1.31,6,5.32,6,5.32S527.54,531.46,523.73,527.61Z" style="fill: #097754"/>
    <path d="M515.23,537.67h0s3,4.79,6.91,6.31,9.21-.11,9.21-.11-3.53-5.22-7.44-6.74S515.24,537.67,515.23,537.67Z" style="fill: #097754"/>
    <path d="M535.33,509.29h0s-4.2,5.67-4.56,11.25,3.41,11.58,3.41,11.58a23,23,0,0,1,.47-5.92,21.55,21.55,0,0,1,2-4.52,20.13,20.13,0,0,0,.36-5.17A36.35,36.35,0,0,0,535.33,509.29Z" style="fill: #097754"/>
    <path d="M536.36,529.15c-1.05,6.06.81,13.12.81,13.12a18.23,18.23,0,0,0,4.66-9.49c1-6.06-.46-14.74-.46-14.75A28.09,28.09,0,0,0,536.36,529.15Z" style="fill: #097754"/>
    <polygon points="541.37 518.03 541.37 518.03 541.37 518.03 541.37 518.03" style="fill: #097754"/>
    <path d="M551.29,557.84h0s-4.21,5.36-4.78,11.16,3.15,14.65,3.15,14.65.16-3.65,1.23-5.45a42.9,42.9,0,0,1,2.69-3.68s.42-1.5,0-6.17A64.18,64.18,0,0,0,551.29,557.84Z" style="fill: #097754"/>
    <path d="M552.48,580.08a17.85,17.85,0,0,0-.91,9.37s3.4.25,5.29-4.07,2.28-13.23,2.29-13.26S554.37,575.74,552.48,580.08Z" style="fill: #097754"/>
    <polygon points="559.14 572.12 559.14 572.13 559.15 572.12 559.14 572.12" style="fill: #097754"/>
    <path d="M538.87,588.67c-4.21-2.35-11.08-3.43-11.08-3.43h0s3.68,7,7.88,9.32,8.93.06,8.93.06A13.82,13.82,0,0,0,538.87,588.67Z" style="fill: #097754"/>
    <polygon points="526.62 573.1 526.62 573.1 526.62 573.1 526.62 573.1" style="fill: #097754"/>
    <path d="M537.41,577.64a25.47,25.47,0,0,0-10.79-4.54s3.11,7.63,7.12,11a18.54,18.54,0,0,0,11.93,4.2S542.19,581.34,537.41,577.64Z" style="fill: #097754"/>
    <path d="M697.65,678.14a2,2,0,0,0,1.76-1.47,5.94,5.94,0,0,0-1.9-5.73,3.77,3.77,0,0,0-2.22-1.2,1.92,1.92,0,0,0-1.87,1.24h0a5.09,5.09,0,0,0,0,3.19s-2.5-1.67-3.37-1.23,0,17.84,0,17.84,10-7.12,9.86-8.46S697.65,678.14,697.65,678.14Z"/>
    <path d="M763,487a3.73,3.73,0,0,0-2.11,2.24c-.66,1.77.43,4.63.43,4.63s-7.56-2.34-8.74-1.44.45,8.74-.26,15.07c-1,8.83-3.41,7.62-3.51,9.34a15.56,15.56,0,0,0,.93,4.52s-1.41.39-1.72,1.2c-.48,1.3.34,4-.25,5.6-3.29,8.81-8.14,21.8-11.36,30.39-.44,1.19-1.65,1.45-2.25,3.06a9.14,9.14,0,0,0-.11,3.91,2.81,2.81,0,0,0-2.87,1.74,12.85,12.85,0,0,0-.32,5.22,2.33,2.33,0,0,0-2,1.75c-.71,1.89.49,3.19.18,4l-12.5,33.35c-1.15,3-5.14,2.89-7.46,9.06a14.26,14.26,0,0,0,1,11.39s-3.34-.24-4.23,2.12a9,9,0,0,0,2.22,8.78c2.41,2.28,5.05,1.37,6-1s-.9-6.93-.89-6.93,4.52,1.87,6.77-4.13c2.32-6.18.36-11.62,1.5-14.67,3.11-8.27,8.19-21.84,12.51-33.38.31-.83,1.59.19,2.29-1.7a5.86,5.86,0,0,0,0-3.61,5.66,5.66,0,0,0,2.76-3c.74-2-.39-4.84-.39-4.84a3.67,3.67,0,0,0,2.11-2c.61-1.61.16-3.39.61-4.59l11.36-30.41c.59-1.59,2.49-1.81,3-3.12a8.14,8.14,0,0,0-.18-3s2.09.08,3-.87-.94-3.76,3.48-9.42c3.16-4,8.27-5.88,8.2-7.75-.07-2.06-5.05-11.3-5.05-11.31a2.85,2.85,0,0,0,2.76-1.65,8.79,8.79,0,0,0,.22-4.05l2.07-.15V477l-8,7.06C762.42,485,762.72,486,763,487Z"/>
    <path d="M763.94,485l4.73,4.34c0-2.78,0-5.55-.07-8.33Z" style="fill: #f5d402"/>
    <path d="M765.62,488.91a2.62,2.62,0,0,0-1.54-.75,2,2,0,0,0-2,1.48h0a5.2,5.2,0,0,0,1.33,5.21c1.34,1.24,2.9.9,3.51-.73A5.2,5.2,0,0,0,765.62,488.91Z" style="fill: #f5d402"/>
    <path d="M755.3,494.58a3.08,3.08,0,0,0-1.32-.09c-.5.38.18,6.72,0,12a16.21,16.21,0,0,1-1.82,7.77,8.9,8.9,0,0,1-2.55,3l1.65,2.72s1.07-2.24,2.76-6.77c2-5.33,1.92-15.68,2.51-16.12a29.57,29.57,0,0,1,4.66-1.14S757.41,494.92,755.3,494.58Z" style="fill: #f5d402"/>
    <path d="M757.56,498.5c-.59.73-.33,9.41-2.65,15.63-1.92,5.15-2.86,7-2.86,7l2.36,2.16s.55-2.13,2.47-7.29c2.32-6.22,7.27-10.15,7.38-11.33s-1.71-7.37-1.71-7.37S758.18,497.74,757.56,498.5Z" style="fill: #f5d402"/>
    <path d="M765.55,505.38h0c0,1-5.72,6-7.71,11.33-1.69,4.53-2.4,7.09-2.4,7.1l2.29.94a18.24,18.24,0,0,1,.4-5c.6-1.61.75-3.68,3.44-6.29,2.85-2.76,6.69-4.95,6.66-5.82s-4.3-9.29-4.3-9.29S765.52,504.5,765.55,505.38Z" style="fill: #f5d402"/>
    <path d="M752.48,524.2a2.34,2.34,0,0,0-1.51-.75c-.72,0-1.25.55-1.54,1.33a70.27,70.27,0,0,1-3.66,12.14q-3.91,10.49-7.84,21a3.28,3.28,0,0,0,.71,3.48c1.54,1.44,2.22-.72,2.22-.72q3.93-10.5,7.85-21c3.46-9.25,4.51-9.74,4.95-10.9A4.15,4.15,0,0,0,752.48,524.2Z" style="fill: #f5d402"/>
    <path d="M738,562.91a3.36,3.36,0,0,0-1.94-1,1.16,1.16,0,0,0-1.25.8c-.43,1.15.3,3.09,1.64,4.35s2.8,1.35,3.23.21S739.38,564.17,738,562.91Z" style="fill: #f5d402"/>
    <path d="M735.88,568.62a4.27,4.27,0,0,0-1.79-1.08,1.66,1.66,0,0,0-2.15,1h0c-.55,1.48.31,3.93,1.94,5.46s3.38,1.56,3.94.08S737.51,570.14,735.88,568.62Z" style="fill: #f5d402"/>
    <path d="M733.34,575.5a3.42,3.42,0,0,0-2-1,1.18,1.18,0,0,0-1.26.8c-.42,1.14.31,3.09,1.65,4.35s2.8,1.36,3.23.21S734.68,576.77,733.34,575.5Z" style="fill: #f5d402"/>
    <path d="M731.19,581.16a1.41,1.41,0,0,0-1-.46c-.85,0-1.26,1.16-1.26,1.16s-8.71,23.32-11.79,31.51c-1,2.62-5.12,3.54-6.73,7.85s-.48,8.94,1.64,11,5.26,1.49,6.88-2.85.17-10.55,1.15-13.17c3.08-8.19,11.79-31.52,11.79-31.52A3.25,3.25,0,0,0,731.19,581.16Z" style="fill: #f5d402"/>
    <path d="M710.94,635.14a3.45,3.45,0,0,0-1.79-1,2,2,0,0,0-2.26,1.42h0a6.05,6.05,0,0,0,1.68,5.89c1.59,1.51,3.43,1.31,4.09-.42S712.53,636.65,710.94,635.14Z" style="fill: #f5d402"/>
    <path d="M697,672.34a3.26,3.26,0,0,0-1.68-.92h0a.87.87,0,0,0-1.07.51c-.34.88.35,2.54,1.54,3.67s2.42,1.3,2.76.41S698.15,673.47,697,672.34Z" style="fill: #f5d402"/>
    <path d="M695.1,677.29a6.69,6.69,0,0,0-3.91-2h0v12.35l6.89-5.78A13.39,13.39,0,0,0,695.1,677.29Z" style="fill: #f5d402"/>
    <path d="M559.16,371.84v161.5a22.09,22.09,0,0,0,2.33,10.21,53.1,53.1,0,0,0,7.63,11.54c9.76,11.3,26.08,24.55,38.42,35.44,10.29,9.06,14.47,12.73,19.82,23.57,5.34-8.5,9.56-10.34,19.85-14.93,12.34-5.51,28.66-11.76,38.41-19a29.14,29.14,0,0,0,7.64-8.34,16.63,16.63,0,0,0,2.29-9.25V401.12c0-6.77,6.09-12.18,6.09-12.18-49.52-10.25-99-21.64-148.57-31.81C553.07,357.13,559.16,365.06,559.16,371.84Z" style="fill: #f5d402"/>
    <path d="M560.88,363.88a20.83,20.83,0,0,1,1.79,8.69v91.37c21.57,14,43.14,28.27,64.71,42.51,21.56-4.83,43.13-9.66,64.7-14.68q0-45.69,0-91.38c0-5.17,1.79-7.95,1.79-7.95C649.51,383.17,605.2,373.08,560.88,363.88Z" style="fill: #d10429"/>
    <path d="M602.74,471.37q-20-3.78-40.07-7.43v70.13c0,3.53,2.51,12.28,17,25.86,23.88,22.46,42.24,34.61,47.74,45.69,5.5-8.7,23.85-12.77,47.73-25,14.44-7.43,16.95-15.19,16.95-18.7q0-35.07,0-70.12Q672,487,652,482.1,627.38,476.74,602.74,471.37Z" style="fill: #0b45bb"/>
    <path d="M650.33,385.71c-2.27,11.14,7.74,29.38,7.74,48.41,0,24.62-12.44,23.1-12.44,23.1-2.91-.64-4.09,2.14-5.23,1.89-2.45-.9-3.6-5.7-6-6.23s-4,4.25-7,3.6-4.72-6.16-7-6.66-3.57,3.77-6,3.61c-1.15-.24-2.33-3.54-5.24-4.17,0,0-12.43-3.87-12.43-28.49,0-19,10-32.93,7.74-45.06-.66,6.57-23.83,15.57-23.83,43.76,0,36.06,23.12,49.54,23.12,49.55l-6.6,16.11s9.55,2.76,14.62,10.18c6.12,8.94,5.52,24.94,5.52,36.68,0,9.24-.8,18.83-4,22.14-4.36,4.45-7.31,4.21-7.31,10.56,0,5.28,2.78,6.95,7.31,11.42,5.8,5.73,5.53,11.67,14.16,13.55s8.39-4.16,14.19-7.37c4.52-2.5,7.31-3,7.31-8.25,0-6.34-3-7.38-7.31-13.73-3.25-4.73-4-14.66-4-23.91,0-11.73-.6-28,5.52-34.28,5.07-5.2,14.62-3.83,14.62-3.83l-6.6-19s23.12-3.52,23.12-39.6C674.16,411.56,651,392.58,650.33,385.71Z"/>
    <path d="M637.14,410.36l5.19-14.83-10.93,5.2-4-17.52q-2,7.88-4,15.76l-10.93-10q2.6,8.53,5.2,17.09l-11.4,3.43,11.4,8.39q-2.61,7.4-5.2,14.78l10.93-5.21q2,8.76,4,17.52l4-15.76,10.93,10-5.19-17,11.39-3.43Z"/>
    <path d="M583.13,451.78a39.66,39.66,0,0,1-20.46,12.16,165.75,165.75,0,0,1,20.46,21.75c4.08-7.66,19.6-14.32,19.6-14.31h0S588.46,463.2,583.13,451.78Z"/>
    <path d="M652,482.1s15.53,13.37,19.6,22.76c8.84-7.87,20.46-13.09,20.46-13.09s-11.14-6.58-20.46-20.82C666.28,480.1,652,482.1,652,482.1Z"/>
    <path d="M603,501.73l5.55,9.32,5.55-6.91-5.55-9.31Z"/>
    <path d="M640.62,509.91l5.55,9.33,5.55-6.91L646.17,503Z"/>
    <path d="M613.67,515.08l-10.21-5.14a140.55,140.55,0,0,1,3.72,31.94h0a135,135,0,0,1-.68,15.5s7.83-1.66,9.39-12.92C616.62,539.18,617.44,519.32,613.67,515.08Z"/>
    <path d="M641.08,521.06c-3.77,2.59-3,22.8-2.22,28.4,1.56,11.94,9.39,17,9.39,17a144.35,144.35,0,0,1-.68-15.79,119.14,119.14,0,0,1,3.72-30.33Z"/>
    <path d="M601.59,523.93c-1.32-3.37-3.65-5.47-6-5.74a4.42,4.42,0,0,0-3.08.8,5.72,5.72,0,0,0-1.26,1.2,14,14,0,0,0-.18-2.39c-.77-4.67-3.6-8.25-6.66-8.71a4.56,4.56,0,0,0-1.33,0h0c-3.52.54-5.65,5.33-4.76,10.66a14.09,14.09,0,0,0,.61,2.32,6,6,0,0,0-1.62-.81,3.91,3.91,0,0,0-.68-.14c-3.33-.55-6.11,2.69-6.34,7.61-.25,5.23,2.51,10.37,6.13,11.49a4.66,4.66,0,0,0,1.58.23,8.24,8.24,0,0,0-.79,1.88c-1.36,4.63.28,10.64,3.65,13.33s7.21,1.07,8.57-3.56a11.76,11.76,0,0,0,.39-2.16,11.78,11.78,0,0,0,1.11,2c2.79,4,6.95,4.36,9.28.8s2-9.68-.82-13.68a9.48,9.48,0,0,0-1.36-1.55,4.64,4.64,0,0,0,1.47-.68C602.59,534.62,603.52,528.84,601.59,523.93Z"/>
    <path d="M666.7,534.05c-8.41-1.81-14.57,6.31-13.72,18.12.71,10,6.16,19.35,12.9,23.14a33.07,33.07,0,0,1-2.15-9.51c-.85-11.81,5.31-19.89,13.72-18.1a13.88,13.88,0,0,1,3.87,1.51C678.36,541.48,672.77,535.35,666.7,534.05Z"/>
    <path d="M653.7,396.64c-1,2.78,7.74,23.09,7.74,38.2,0,18.54-6.77,28-15.81,26-1.72-.38-3.6,2.62-5.23,2.26-2.65-.58-4.41-5.25-6-5.6-2-.45-3.46,3.95-7,3.18s-4.94-5.79-7-6.24c-1.61-.35-3.37,3.56-6,3-1.62-.35-3.51-4.16-5.23-4.54-9-2-15.81-14.34-15.81-32.88h0c0-15.11,8.69-31.66,7.74-34.85,0,0-16.95,14.1-16.95,35,0,33.69,23.4,47.06,23.4,47.07q-2.62,8.09-5.26,16.18s7.25,3.16,11.68,9.34c5.91,8.24,6,27.05,6,39.76,0,15-.38,21.24-4.08,24.49-3.91,3.44-6.85,3.72-6.85,8.09,0,3.81,3,6,7,9.42,4.49,3.87,4.9,9,11.4,10.39s6.94-3.5,11.43-5.41c4-1.68,7-2.57,7-6.38,0-4.37-2.94-5.93-6.85-11.07-3.7-4.87-4.08-11.3-4.08-26.27,0-12.71.08-31.49,6-37.16,4.43-4.25,11.68-4.26,11.68-4.26l-5.26-18.46s23.4-3.26,23.4-37C670.65,418.06,653.7,396.65,653.7,396.64ZM618.51,571.51c-4.6-1-7.53-3-7.53-5s2.93-2.82,7.53-1.81c1.22.26,2.61,1.66,2.61,4S619.73,571.78,618.51,571.51Zm17.73-3c4.6,1,7.53,3.06,7.53,5.1s-2.93,2.76-7.53,1.76c-1.22-.27-2.61-1.61-2.61-4S635,568.26,636.24,568.52Z" style="fill: #ffd200"/>
    <path d="M633.63,411.74l3.3-9.48L630,405.61l-2.58-11.19h0q-1.32,5-2.62,10.05l-6.95-6.38,3.3,10.93-7.24,2.19,7.24,5.34-3.3,9.44,6.95-3.3,2.58,11.13q1.3-5,2.62-10l6.95,6.33-3.3-10.87,7.24-2.19Z" style="fill: #ffd200"/>
    <path d="M582.92,456.86c-5,6.35-13.44,8.82-13.44,8.82l13.26,14.95c.08.13.17.25.25.37,0-.08.1-.15.14-.23l12-10.41h0A38.32,38.32,0,0,1,582.92,456.86Z" style="fill: #ffd200"/>
    <path d="M659.64,484.39s7.78,7.63,12,15.55l.14.29A3.07,3.07,0,0,0,672,500c4.44-4.77,13.26-9.31,13.26-9.32s-8.46-6-13.43-14.53A20.85,20.85,0,0,1,659.64,484.39Z" style="fill: #ffd200"/>
    <path d="M605.64,502.3l2.94,4.93,2.9-3.66q-1.44-2.44-2.9-4.87Z" style="fill: #ffd200"/>
    <path d="M643.27,510.49l2.9,4.93,2.94-3.66-2.94-4.87Z" style="fill: #ffd200"/>
    <path d="M607,515.21c.83,6.93,2.4,12.63,2.4,34.91,0,0,4.77-2.52,4.77-11.79s.34-15.72-1.69-20.25Z" style="fill: #ffd200"/>
    <path d="M642.23,524.55c-2,3.65-1.69,10.33-1.69,19.52s4.77,13.86,4.77,13.86c0-22.28,1.57-27.29,2.4-33.86h0Z" style="fill: #ffd200"/>
    <path d="M590,520c-.6-3.63-2.78-6.4-5.16-6.76a3.62,3.62,0,0,0-1,0c-2.74.42-4.41,4.11-3.72,8.26a10.09,10.09,0,0,0,.68,2.34,9.25,9.25,0,0,0,.93,1.77,5.3,5.3,0,0,1,5.55-2.48,6.43,6.43,0,0,1,2.55,1.18,8.64,8.64,0,0,0,.32-1.82A11.06,11.06,0,0,0,590,520Z" style="fill: #ffd200"/>
    <path d="M599.25,525.63c-1.5-3.82-4.65-5.58-7-3.9a4.72,4.72,0,0,0-1.22,1.36,6.66,6.66,0,0,0-.73,1.62,13.53,13.53,0,0,1,4.1,7.47,16.26,16.26,0,0,1,.38,3.81,3.28,3.28,0,0,0,2.89-.42h0c2.1-1.47,2.92-5,2.09-8.47A10.88,10.88,0,0,0,599.25,525.63Z" style="fill: #ffd200"/>
    <path d="M597.47,539a7,7,0,0,0-1.44-1.51,5,5,0,0,0-1.38-.77c-.2,3-1.23,5.57-3,7.09a5.26,5.26,0,0,1-2.31,1.18,10.61,10.61,0,0,0,.49,1.9,9.91,9.91,0,0,0,1.08,2.13h0c1.9,2.72,4.59,3.29,6.45,1.53a5.15,5.15,0,0,0,.76-.89C599.91,546.9,599.63,542.13,597.47,539Z" style="fill: #ffd200"/>
    <path d="M582.82,541.94a13.27,13.27,0,0,1-1.81-3.08,4.54,4.54,0,0,0-1,1,6.64,6.64,0,0,0-.9,1.89h0a10.78,10.78,0,0,0,1.9,9.41,6.73,6.73,0,0,0,.93.92c2.62,2.1,5.6.9,6.65-2.7a9.19,9.19,0,0,0,.34-2.3,11.28,11.28,0,0,0-.12-2.09C586.78,545.23,584.61,544.22,582.82,541.94Z" style="fill: #ffd200"/>
    <path d="M581.29,526a6.58,6.58,0,0,0-1.13-1.27,4.77,4.77,0,0,0-1.63-1h0c-2.47-.77-4.64,1.09-5.28,4.3a9.69,9.69,0,0,0-.18,1.47c-.19,4.08,1.93,8.1,4.74,9a3.33,3.33,0,0,0,1.65.08,3.45,3.45,0,0,0,1.31-.53,15.94,15.94,0,0,1-.67-9A10.47,10.47,0,0,1,581.29,526Z" style="fill: #ffd200"/>
    <path d="M587.22,526.81c-2.73-.59-4.94,2.17-4.94,6.16s2.21,7.69,4.94,8.28,4.95-2.17,4.95-6.16S590,527.39,587.22,526.81Z" style="fill: #ffd200"/>
    <path d="M655.91,552.34a26.87,26.87,0,0,0,4.88,13.19c-.86-12.55,5.05-21.86,13.26-22.42a14.41,14.41,0,0,0-7.35-4.72C659.81,536.91,655.25,543,655.91,552.34Z" style="fill: #ffd200"/>
  </g>
</svg>
