<svg xmlns="http://www.w3.org/2000/svg" viewBox="0 0 1260 1012.04">
  <g>
    <path d="M0,90.08v920C420,738.76,840,1193.28,1260,922V2C840,273.28,420-181.24,0,90.08Z" style="fill: #d3ae3b"/>
    <path d="M31.5,945.07c399-224.14,798,174,1197-50.09V67c-399,224.13-798-174-1197,50.09Z" style="fill: #c40308"/>
    <path d="M574.47,495.42h0v0Z" style="fill: #b96b29"/>
    <path d="M802.89,485.25c-2.33,2.3-9.35,9.26-14.12,12.35a36.08,36.08,0,0,1-11.8,4.79c-2.6.62-4.68.94-2.18-.07s10.65-3.8,16.94-12,11.25-21.2,11.35-29.64-.31-7.9-2.17-6.07-8.48,12.72-12.2,16.64a97.9,97.9,0,0,1-12.72,11c-3,2.06-7.24,4.19-1.35-.68a69.33,69.33,0,0,0,21.62-34.18c4.55-17.25,3.72-28,3.62-29.78s-1.14-5.62-2.17-2.45-8.49,23.72-14.48,32.08-4.55,6.78-5.9,8.06-3.62,3.61-.72-1.18a117.28,117.28,0,0,0,12-27.59,131.58,131.58,0,0,0,4-30.46c.1-6.93-2-16.92-2.9-19.94s-1.86-5.29-2.17-2-5.07,23.93-7.65,33.91a139,139,0,0,1-8.79,23c-1,2.08-3.72,6.29-.83-1.05s8.48-29.5,9.2-51.27-1.34-34.21-3.41-40.61-3.86-8.85-3.86-8.85a236.33,236.33,0,0,1-2.7,36c-3.06,20.94-7.52,31.48-7.52,31.48s-1.88,2.75-.59-2.17a118,118,0,0,0,3.49-23.41c.86-13.41,1-28.83-1.75-42.45-2.95-14.84-8.08-23.1-8.08-23.1-1.43,20.27-1.14,46.78-6.3,67.26-1-1.44-2.24-4-2.74.64a141.46,141.46,0,0,1-9.17,35.37c-6.34,15.61-8.92,17.32-8.92,17.32s-1.18-4.35-2-6.75-1.3-3.69-2.36-.81a107.64,107.64,0,0,1-12.33,25.52c-7.75,11.48-12.1,16.93-11.87,26.77s3.76,15.56,8.46,21,5.53,8,4.82,13.18-4.94,6.21-8.57,5.64-8.23-2-9.88-1-1.76,4.44-3.4,6.49-2.35,3.29-3.88,3.32c-.54,0-1,0-1.31,0-.34-25.91,6.51-36,6.51-36Q682.57,465,673,446.5c-1,.5-2,.95-3,1.36a9.38,9.38,0,0,0-.56-1.36,32.44,32.44,0,0,1-3.38-15.61c.95.34,2.86,1.76,4.6,1.62s.43-2.95-.09-5.48a74.57,74.57,0,0,1-.69-14.14c.34-3.1.52-4.34.52-4.34s2.78,5.05,4.51,5.42,1.57-2.21,1.83-5c.39-4.14,1.75-9.17,4-11.61,0,0,3,3.7,6.52,4.43a11.78,11.78,0,0,0,11.89-4.12c3.73-4.44,3.64-5.73,3.64-5.73s7,5,12.25,6.45,10.94,1.3,13.63-6.31-.79-15.8-1.39-17.19-2.34-2.75-2.34-.46.08,8.41-3.13,10.82-5.73,1.77-8.77-.24-7.29-4.67-12.16-4.66c-4.36,0-5,.38-5,.46.23-.29,4.18-5.39,8.06-6.32s6.34,1.94,7.65,4.49,2.42,6.48,3.47,1.34a29.56,29.56,0,0,0-1.3-15.65c-1.74-4.29-5.47-7.6-9.38-7.76s-5.29.42-5.29.43-2-8.68-7-11.26c-6.14-3.15-12.92-1.22-18.23,2a14,14,0,0,1-8.42-2.19,35,35,0,0,1-7.17-6.75c.49-2.27,1.44-6.46,1.44-6.46s1.22-.27,2.49-.7,1-1.1,1.17-2.61-2.39-4.76-2.39-4.76a7.69,7.69,0,0,1,3.82-7c4.18-2.29,3.73-1.85,3.73-1.85s2.45,1.19,3.45.34,1-1.51,1-1.51a4.27,4.27,0,0,0,2.54-2,9.62,9.62,0,0,0,.31-5.83c-.49-2-1.12-2.51-.43-3.27a8.44,8.44,0,0,0,1.36-4.33c.06-1.53.06-1.89.06-1.89s1.42-.43,1.36-3.61-1.24-4.71-1.92-5.13a3.91,3.91,0,0,0-1.11-.51,17.2,17.2,0,0,0-1.24-4.71,32.25,32.25,0,0,0-1.86-4s.8-.73.37-2.91a6.77,6.77,0,0,0-2.42-4.33,2.85,2.85,0,0,0-2-.44s-3.28-3.61-4.83-5.12l-1.92-1.87a10.21,10.21,0,0,0-.62-3.21,4.13,4.13,0,0,0-2.54-2.1,2.5,2.5,0,0,0-1.42.24s-5.58-3.3-7.86-4.34-2.42-1.34-2.42-1.34-4.95-4.53-6.87-5.49a24,24,0,0,1-2.48-1.35,15.39,15.39,0,0,0,2.13-7.16,16.12,16.12,0,0,0-3.71-10.46c-1.12-1.21-1.72-1.51-2.09-1.92,0-.94,0-1.88,0-2.82l3.72,1.36c.11-2.89.21-5.79.31-8.68l-3.62-.12c.18-1.71.37-3.43.55-5.14l-7.59-1.78c.19,1.79.37,3.58.56,5.38l-3.65-1.16.3,8.68,3.85.12c-.13,1.06-.25,2.12-.38,3.18a4.58,4.58,0,0,0-2.59,1.06c-2,1.29-3.66,4.29-3.54,8.4a26.29,26.29,0,0,0,1.8,8.1s-.5.07-2.42.19-6.87,2.5-6.87,2.5-.12.24-2.42.29-7.86.92-7.86.92a3.82,3.82,0,0,0-1.42-.85,2.48,2.48,0,0,0-2.54,1,8.2,8.2,0,0,0-.62,3l-1.92,1c-1.55.84-4.83,3-4.83,3a3.06,3.06,0,0,0-2-.44c-1,.25-2,1.3-2.41,3.3a3.91,3.91,0,0,0,.37,3.06,19.21,19.21,0,0,0-1.86,3.24,12.58,12.58,0,0,0-1.24,4.17,3.21,3.21,0,0,0-1.11,0c-.68.13-1.86,1.15-1.92,4.32s1.36,4.19,1.36,4.19,0,.36.06,1.91a12.11,12.11,0,0,0,1.37,4.92c.68,1.05.06,1.28-.44,3.08a10.37,10.37,0,0,0,.31,6A7.74,7.74,0,0,0,587,296a3.74,3.74,0,0,0,1,1.94c1,1.28,3.45,1.15,3.45,1.15s-.45-.63,3.73,3.46a11.73,11.73,0,0,1,3.82,8.66s-2.54,2.14-2.38,3.72-.11,2.15,1.16,3.12,2.49,1.77,2.49,1.77,1,4.6,1.44,7.08a19.28,19.28,0,0,1-7.16,3.66c-4.26.87-8.43-1.43-8.43-1.43-5.31-5.47-12.08-10.28-18.23-9.71-5,.47-7,8.32-7,8.32a19.61,19.61,0,0,0-5.3-2.62,7.33,7.33,0,0,0-9.38,3.93c-1.73,3.6-2.34,9.58-1.3,15.13s2.17,2.09,3.48.07,3.64-4,7.64-1.36,7.83,9.28,8.06,9.67c-.08-.11-.66-.74-5-2.56-4.86-2-9.11-1.11-12.15-.33s-5.55.4-8.77-3.29S535,336.58,535,334.29s-1.74-1.61-2.35-.46a22.2,22.2,0,0,0-1.39,16.64c2.69,8.66,8.34,11.06,13.63,11.75s12.24-1.44,12.24-1.44-.08,1.26,3.65,7.24,8.42,8.37,11.9,9.11,6.51-1.68,6.51-1.68c2.24,3.4,3.6,9,4,13.31.26,2.86.09,5.36,1.83,5.73s4.51-3.48,4.51-3.48.18,1.31.52,4.56a69.86,69.86,0,0,1-.69,13.84c-.52,2.3-1.83,4.57-.09,5.45s3.65.28,4.6.35c0,6.1-.83,10-3.38,14.16a7.52,7.52,0,0,0-.54,1.05c-1-.81-1.9-1.65-2.85-2.54q-9.57,14.39-19.15,28.81s6.85,13,6.51,38.73h0v0c-.35-.12-.81-.3-1.39-.55-1.53-.67-2.24-2.19-3.88-4.94s-1.76-6.21-3.41-7.93-6.22-2.16-9.87-3.08-7.87-3.67-8.57-9.15.12-7.7,4.81-11.21,8.23-7.75,8.46-17.5-4.11-17-11.86-31.65a168.52,168.52,0,0,1-12.34-30.49c-1.06-3.31-1.53-2.2-2.35-.12s-2,6-2,6-2.58-2.75-8.92-20.82A182.53,182.53,0,0,1,514,325.07c-.51-4.83-1.79-2.74-2.75-1.67-5.15-22.4-4.87-48.8-6.3-69.6,0,0-5.12,6.38-8.08,20.16-2.71,12.65-2.61,28.11-1.74,41.83a139.08,139.08,0,0,0,3.48,24.66c1.29,5.39-.58,1.95-.58,1.95s-4.47-12.14-7.52-34.15a253.4,253.4,0,0,1-2.71-36.9s-1.79,1.83-3.86,7.52-4.13,17.41-3.41,39.43,6.31,46.08,9.21,54.45.21,3.2-.83.76-6.2-15.12-8.79-26-7.34-33.09-7.65-36.47-1.24-1.41-2.18,1.32a72.33,72.33,0,0,0-2.89,19,148.18,148.18,0,0,0,4,31.77c3.1,12.59,9.1,25.82,12,31.6s.62,2.68-.73.94.11.31-5.89-10.06-13.45-33.29-14.48-36.77-2.07,0-2.17,1.77-.94,12.23,3.62,30.92,15.72,34.42,21.61,41.33,1.66,3.31-1.34.22a171.16,171.16,0,0,1-12.72-15.27c-3.73-5.14-10.35-18.12-12.21-20.51s-2.27-3.07-2.17,5.4,5.07,23,11.36,33.21a62,62,0,0,0,16.93,17.64c2.5,1.87.42.83-2.18-.68a56.63,56.63,0,0,1-11.79-8.73c-4.78-4.67-11.79-13.82-14.13-16.82s-2,.68-1.3,5.42,2.5,13.58,11.53,25.73,21.87,19.84,25.56,22,1.09,1.71,1.09,1.71-1.46-.57-8.94-4.31-18.8-14.22-21.87-17.51-3.53-4.42-3.11,1.57,4.73,19.34,11.63,26.39,19.38,12.24,22.6,13.06,2.39,1.33.94,1.22a50.21,50.21,0,0,1-10.91-2.74c-4.81-1.64-12-6.24-14.38-7.84-.28-1.55-.53-3.06-.64-4-.28-2.3-1.08-2.1-1.6-1.68a12.46,12.46,0,0,1-2.51,1.77c-1.72,1-1.78-.52-1.83-1.29s-.4-4.08-.46-5.76-.69-1.87-1.48-1.49-4.63,2.13-6.06,2.84-.12,2.57.63,4.69,1.88,5.23,1.88,5.23-3.6.87-4.74,1.12-.8,1.48-.52,2.69,2.06,7.34,2.52,9.08,1.48.9,1.48.9l3.6-2.54,1.26,7.22a9.36,9.36,0,0,0-3.49,1.88c-1.82,1.59-1.36,4.06.82,5.33s4.73,3.27,7.55,11.18,3.55,21.49,5.28,43,11,33.81,12.28,35.37.55,2.49.55,2.49A13.26,13.26,0,0,0,488,614.69a2.79,2.79,0,0,1,.91,2.69,65.85,65.85,0,0,0,0,12.79c.64,8.37,5.28,18.51,6.55,20.35s1.37,2.64,1.19,3.27-1,0-2.55,1.41a17.75,17.75,0,0,0-4.37,6.29c-1.09,2.74-.72,4.54-.36,8.6s4.36,8.37,4.36,8.37-.72.14-.9,3,1.27,6.49,3.09,9a16.91,16.91,0,0,0,5.28,4.15s.27,2.58.45,4.34,2.46,3.91,3.91,5.38,4.28,1.33,5.46.75,2,.51,2.73,2.37.45,8.49.45,11.15-1.09,5.26-.45,6.71,2.36.85,4.09-.29,2.19,0,3.73,1.79,4,3.57,4.64,3.56.37-2.46.37-4.46.24-6.47.88-7c.3-.25,3,0,5-.88,1-.4,2.18-.77,2.27-2.08s-1.27-1.59-4.27-4.44-3.55-4.3-5.46-6.54-1-2.72-1-3.52.91-1.55,1.27-2.55a11.85,11.85,0,0,0,.18-3.43s1.55-2,2.28-3a28.13,28.13,0,0,1,2.64-3.75c1-1,2.54-6.42,3.54-8.09s3.28-3.21,4.64-5.47,5-5.66,7.1-7.24a69.22,69.22,0,0,1,7.73-4.29s-.09,4.92,1.37,7.61,3.36-1.17,9.82-6.49S576,658,576,658s1.37,3.35,3.09,6.92,3.28.56,11.19-13.73a149.86,149.86,0,0,1,17.66-24.64l1.75,1.54c-.15.58-.31,1.24-.48,2-.72,3.16-1.9,5-3.44,9.32s-3.9,4.84-6.62,10.48-3.08,9.79-3.35,16.09,2.17,8.15,2.17,8.15-4,4.83-5.17,8.81S591,695.37,591,695.37s-.64.26-2.08,4.32-4.08,4.15-7.89,8.91-8.07,6.23-10.06,7.52-1.45,3.14-.91,5.51,3.26,5.18,6.44,7.58,4.26,2,6.44,2.29.45,2.48-.46,3.61-2.08,5.51-1.9,10.71,2.81,4.57,6.07,4.48a23.88,23.88,0,0,0,7.07-1.66l-.36,1.38c-.36,1.38-.54,2.39-.54,6.51s.45,6.18,1.27,7.41,2.45-.66,3.62-.93,3.18-1.57,6.08-1.87a5.49,5.49,0,0,0,4-1.91,9.3,9.3,0,0,0-.91,4,51.09,51.09,0,0,0,.36,9.88,25.35,25.35,0,0,0,3.72,9c2,3.09,2.45,2,3.89-1a40.4,40.4,0,0,1,4.45-6.58s.18,1.1,2.17,10.93S630,804.57,630,804.57s6.53-6.39,8.52-15.35,2.18-10,2.18-10a71.4,71.4,0,0,1,4.44,8.52c1.45,3.62,1.91,4.91,3.9,2.7a16,16,0,0,0,3.72-7.4,48.63,48.63,0,0,0,.36-9.72,12.53,12.53,0,0,0-.91-4.43,9.88,9.88,0,0,0,4,3.64c2.9,1.56,4.89,3.7,6.07,4.49s2.82,3.39,3.63,2.5,1.27-2.77,1.27-6.87a24.86,24.86,0,0,0-.54-6.73l-.37-1.54a38.74,38.74,0,0,0,7.07,4.69c3.27,1.49,5.9,3.25,6.08-1.88s-1-10-1.91-11.53-2.62-4.39-.45-3.79,3.26,1.48,6.44.44,5.89-2.73,6.44-4.86,1.08-3.75-.91-5.89-6.26-5.42-10.06-11.79-6.44-7.59-7.89-12.28-2.08-5.21-2.08-5.21-.64-8.74-1.82-13.23S662,688,662,688s2.45-.8,2.18-7.21-.63-10.72-3.35-17.53-5.08-8.38-6.62-13.35-2.72-7.34-3.45-10.81c-.14-.7-.3-1.4-.46-2.1.78-.34,1.56-.68,2.34-1a266.65,266.65,0,0,1,17.69,32.31c7.92,17.69,9.47,21.35,11.19,18.51s3.1-5.6,3.1-5.6,4.91,3.44,11.37,11.44,8.37,12.67,9.82,10.57c.77-1.11.94-3.17,1-4.75,0,0,3.71,2.34,8,5.38,2.55,1.82,5.39,4,7.49,5.75,5.59,4.57,6.2,6.47,10.65,12.47s10.79,6.73,16.79,5.18,22-6.35,28.39-9.33,11-5.78,11.67-7.55a38.69,38.69,0,0,0,1.41-8.75,12.68,12.68,0,0,0-1.88-5.45c-.47-.57-.27-2-.14-3.18a14.62,14.62,0,0,0-1.28-6.53c-1-1.75-.87-2.31-.74-6.84.29-9.59-4.42-22.5-11.09-27.51a5.2,5.2,0,0,0-.72-1.91,9.92,9.92,0,0,0-1.44-1.5s.13-5.52.09-6.71.31-1,.77-.6,1.16,1.86,2.25,2.44,1.75-.43,2-2.17,1.12-5.15,1.53-6.87-.09-2.06-.59-2.34-2.11-.81-2.88-1.22-.77-.45-.59-1a26.66,26.66,0,0,1,1.44-3.51c1-2.07.1-2.29-.85-2.91a73.42,73.42,0,0,0-6.39-3.75c-1.18-.47-1.45.93-1.45,1.66s.05,3.9.09,5.09-.72.73-1.17.33a23.22,23.22,0,0,1-2.29-2.59c-.81-1.06-1.4-.31-1.71.95s-1.31,6.5-1.62,8-.23,2.8.22,3.14,2.57.46,3.83.68.54,1.16.54,1.16-1.35,3-1.8,4.16-1.22,1.24-2.26,1.05l-2.77-.52s-6.92-.88-12,3.7a23.51,23.51,0,0,0-7.31,11.38c-.78,2.52-1.69,1.77-2.48,2.57s-3,3.81-3,5.91.52,3.34-1.7,5-4,10.46-1,15.82,4.18,10.33,5.09,12.8,0,3.24-.78,3.09-2.42-2.41-3.79-4.17-8.26-11-11.22-14.79-.79-3-.79-3a4.06,4.06,0,0,0,2.49-.46c1.72-.73,2-2,.27-3.15a28.69,28.69,0,0,1-6-6.13c-.92-1.51-1.37-3.07.36-4.06s5.55-3.82,2.55-5.62-6.55-3.44-9.47-5.24-3.18-3.05-3.18-3.05l1.91-3.6s1.55-2.88-.27-3.66a37.75,37.75,0,0,1-10.19-5.83c-8-6.72-13-16.36-14.86-27.22l.13-.22c1.5,4.63,5,13.43,10.22,14.78,7.16,1.84,8-1.27,6.34-5s-3.52-7.26-4-8.39-.59-2.53,1.29.44,5.46,12.48,16.27,13.65,10.75-2,10.75-2.83c0-3-2.2-4-3.5-6.11-.68-1.13-1.09-2.65,1.09-1s7.53,4.16,14.81,3.28c2.87-.34,10.48-3.75,11.22-9.26a25.08,25.08,0,0,1-8.21-4.06c-3.38-2.78-5.4-4.91-1.82-3.16s10.55,5.2,16.68,3.29c3.58-1.12,8.21-4.52,8.2-12.27a96.3,96.3,0,0,1-9.09-5,14.09,14.09,0,0,1-3.22-2.87s9.5,6.17,18.13,1.29a17.76,17.76,0,0,0,9-15.61,10.41,10.41,0,0,0-.21-2.7s-7.84,1.48-13.71.35-7.69-2.23-7.69-2.23,16.42,2.29,24.67-3.72,8.73-20.45,8.73-20.44S781.55,549,775.68,549a45.12,45.12,0,0,1-10.91-1.08c-1.45-.41-2.28-1.24.94-.9s15.69-.51,22.6-5.32,11.22-16.83,11.63-22.69-.05-4.86-3.12-2.53-14.38,9.16-21.86,10.28S766,527.9,766,527.91s-2.87-.72.83-1.55l.25.22c3.69-.86,16.52-4.11,25.56-13.38s10.8-17.61,11.53-22.13S805.23,483,802.89,485.25Zm-331.3,9.2v0l-3.31,2.23s-1.31-4.15-1.66-5.37-.17-1.71.29-1.63,1.83-.29,2.91-.28a2.74,2.74,0,0,0,.43,0,43.71,43.71,0,0,0,1.46,5A.31.31,0,0,1,471.59,494.45ZM572.37,599.81h0c-2,5-7.46,9.63-11.47,11.33s-8.37,1.6-10.19,1.63-.27,3.54-.27,3.54c.64,1.46,1.27,2.93,1.91,4.39,0,0-.27,1.14-3.18,1.75s-6.46.82-9.46,1.42.82,5,2.54,6.64,1.28,3.06.37,4.2a16.41,16.41,0,0,1-6,3.73c-1.72.46-1.45,1.85.28,3.26a49.68,49.68,0,0,0,6.46,3.69,25.63,25.63,0,0,1-3,2.86c-2.92,2.61-8,3.73-11.38,3.34a114.85,114.85,0,0,1-15.43-2.84,71.09,71.09,0,0,1-7.53-2.08s-.23-3.33-.69-8.29a61.62,61.62,0,0,0-4-15.68c-1.55-3.46-4.8-10.39-4.8-10.39s.07-1.34.3-2.88.08-3.28-.71-6.41-4.73-8.21-4.73-8.21-.16-3.25-.16-6.25a159.24,159.24,0,0,0-2.68-20.73c-1.26-5.75-7.41-21.32-10.25-28.7s-4.52-17.9-5.38-26-.51-10.63-.23-12.67a12.15,12.15,0,0,1,.65-2.39,27.06,27.06,0,0,0,4.56,6.74c8.26,8.73,24.68,12.37,24.68,12.39s-1.82.42-7.69-.56-13.71-5.12-13.71-5.12a9.39,9.39,0,0,0-.21,2.63c0,2.05.36,10.83,9,18.71A20.33,20.33,0,0,0,508,538.14a8.4,8.4,0,0,1-3.22,1.68,71.88,71.88,0,0,1-9.09,1.69,18.42,18.42,0,0,0,8.21,15.24c6.13,4.16,13.09,3.35,16.67,3s1.56,1-1.81,2.46-8.21,1-8.21,1c.74,5.78,8.35,12.07,11.22,13.52,7.27,3.68,12.62,3.31,14.8,2.53s1.77.57,1.1,1.43c-1.3,1.64-3.5,1.68-3.5,4.71,0,.87-.06,3.93,10.75,7.14s14.39-4.78,16.27-7,1.76-.84,1.29.09-2.35,3.64-4,6.73-.83,6.53,6.34,7.68c5.28.85,8.77-6.58,10.25-10.56l.09.22.29.62C574.81,592.68,573.65,596.57,572.37,599.81Zm92.16-318.7a21.51,21.51,0,0,1,2.73,8.67c.36,2,0,5.58-.36,8.9s-.36,5.36.11,6.67a12.2,12.2,0,0,0,.87,2,21.82,21.82,0,0,0-3.5.91c-1.7.61-3.92,1-5.16-.74s-1.54-2.9-.77-3.71,3.66-1.4,4-8.57-2-15.07-2.93-18h0c-1-2.93-1.49-4.32-1.49-4.32A35,35,0,0,1,664.53,281.11Zm-27.22,11h0c.93-3.24,1.32-6.44.6-13.65-.59-6.05-1.38-11.3-1.58-17.73,0,0,3,1.62,7.33,8.33s5.3,12.85,5.3,15.74-1,6.18-1.2,8.95a19.24,19.24,0,0,0,.55,5.4,13.12,13.12,0,0,0-3,1.75c-1.42,1.13-2.41,1.8-4.59,1.16s-3.51-2.36-4.76-3.6a7.39,7.39,0,0,0-2.08-1.57A8.81,8.81,0,0,0,637.31,292.13Zm-21-29h0c4.32-4.82,7.33-5.13,7.33-5.13-.2,6.34-1,11.25-1.59,17-.71,6.9-.33,10.26.6,13.91a15.75,15.75,0,0,0,3.45,6.28,4.59,4.59,0,0,0-2.08.67c-1.26.68-2.57,1.84-4.76,1.52s-3.17-1.41-4.59-3.16a24.51,24.51,0,0,0-3-3.05,16.34,16.34,0,0,0,.54-5.17c-.16-2.84-1.2-6.59-1.2-9.48A21.24,21.24,0,0,1,616.27,263.11Zm-15.6,31.68h0c-1.24,1.24-3.46-.14-5.16-1.49a34.31,34.31,0,0,0-3.51-2.41,7.18,7.18,0,0,0,.88-1.63c.47-1.1.47-3.14.1-6.62s-.72-7.17-.36-9.06.31-4,2.73-7.49a18.57,18.57,0,0,1,6.5-5.39s-.52,1.17-1.5,3.68a43.12,43.12,0,0,0-2.93,16.73c.36,7.32,3.25,9.15,4,10.3S601.91,293.55,600.67,294.79ZM658.26,368v0c-4.25,2.52-6.68,1.22-6.51,3.8s4,5.32,4,5.32-3.91,5.26-7,7.4a24.42,24.42,0,0,1-6.6,3.14s-1.21,0-.52,2.94a13.73,13.73,0,0,0,2.87,6.09,12.11,12.11,0,0,0,1.48,1.34s-5.3,7.11-7.64,9.27a14.69,14.69,0,0,1-5.56,3.5c-1.91.72-.95,5.51-.52,7.64s2.08,5.29,3,5.88,1.3,1.68.08,4.21c-.91,1.89-3.94,6.78-5.38,9.53l-.09,0c-1.43-3.36-4.51-9.65-5.42-11.95-1.21-3.07-.87-4,.09-4.18s2.6-2.61,3-4.55,1.39-6.31-.53-7.87a27.51,27.51,0,0,1-5.55-5.92c-2.35-3.18-7.64-12.6-7.64-12.6a6.8,6.8,0,0,0,1.47-.7c1-.55,2.17-2.2,2.87-4.84s-.52-3.17-.52-3.17a44.38,44.38,0,0,1-6.6-6c-3-3.46-6.95-10.41-6.95-10.41s3.82-1.08,4-3.59-2.26-2.27-6.51-6.62a24.38,24.38,0,0,1-5.65-9s5-1.35,7.38-8.07a17.24,17.24,0,0,0,1-6.66l.19.13A72.7,72.7,0,0,0,630,342.82c8.24,1.8,17.48,2.3,25.37.26l.18-.05a20.48,20.48,0,0,0,1,7.08c2.43,7.78,7.38,11.26,7.38,11.26A13.59,13.59,0,0,1,658.26,368Z" style="fill: #b96b29"/>
    <path d="M673.51,451.32c-15.93,5.58-30.52,2.94-43.51-9.54-13,6.82-27.58,3.08-43.5-9.32l-16.73,24.43s6.15,13.63,6.15,33.14-2.58,33.44-4.09,42.56-2.8,26.46.65,39.78,7.11,25.08,22,37.41,22.62,18.74,27.8,26.16A94.83,94.83,0,0,1,630,649a52,52,0,0,1,7.76-9.63c5.17-5.17,12.92-8.19,27.79-14.11s18.53-16.18,22-28,2.15-29.76.64-39.51-4.07-24.76-4.07-44.28h0c0-19.51,6.15-30.55,6.15-30.55Q681.86,467.11,673.51,451.32Z" style="fill: #d4af3a"/>
    <path d="M678.82,520.32a67.14,67.14,0,0,1,5.26-33.92l-14.31-27.5c-11,6.69-26.38,2.13-39.72-9.74-13.34,6-28.69,3.92-39.71-7.49q-7.17,10.68-14.32,21.39s7.36,18,5.26,36.16-6.63,46.71-5.5,59,7,27.42,12.93,36,14.85,16.65,21.15,21.32,12.44,12.37,15.35,16.31,4.84,7.19,4.84,7.19a51.91,51.91,0,0,1,4.85-5.08c2.9-2.67,9-7.69,15.34-9.63s15.18-6.14,21.15-12.18,11.8-18.71,12.93-30.5-3.41-42.26-5.52-61.34Z" style="fill: #b96b29"/>
    <path d="M677.45,522.24c-2.08-20.56,4.14-35.44,4.14-35.44L668.67,463c-10.92,5.84-24.2.84-38.66-9.64-14.45,4.17-27.73,3.39-38.65-7.14L578.44,464.5s6.22,17.53,4.14,37.21S577.34,543.5,578,557c0,.92.11,1.87.2,2.83,3.92.84,7.85,1.67,11.77,2.52a4.69,4.69,0,0,1,2-1.55,4.54,4.54,0,0,0,1.68-1s.25-3.42,1.69-3.84a4.43,4.43,0,0,1,2.61-.17c.56.12,1,0,1.69-.82a15.3,15.3,0,0,0,3.36-6.21c.81-3.3,1.31-4.56,1.31-6.84a47.55,47.55,0,0,1,.56-5.81,1.11,1.11,0,0,0-1.49-.78c-1.19.38-1.37-1.39-1.5-3.16s-.06-5.3.63-6.8.93-2,.93-2c-.17-1-.33-1.9-.5-2.84,0,0-7.48.57-8.79-8.2s-1.56-12.94-1.74-13.89S592,497,591,496.86s-3.12-1.58-4.62-6.29-1.62-6.55-1.18-8.19,1.25-.83,1.49-.23,2.25,5.23,3.06,4.21.37-1.11-.75-4.63a11.66,11.66,0,0,1-.62-6.17,44.49,44.49,0,0,0-.37-4.82c0-.91.68-1.5,1.37-.9a8,8,0,0,1,1.62,2.09c.31.61.43,1.47,1.06,1.05s.24-3.51.24-4.51.82-1.56,1.81-.53a6,6,0,0,1,1.5,3.79c0,1.1.06,2.12.44,2.2s.81-1.47.87-2.55.5-2.63,1.18-1.11a10.87,10.87,0,0,1,.69,5.62c-.25,2,.25,1.06-.25,4.6a42.65,42.65,0,0,0-.69,7.89,28.46,28.46,0,0,0,1.06,7.9c.94,3.58,1.69,7.66,3.43,8.13s2.25.58,2.25.58,1.93-5.06,3.43-6,3.61-.68,5.11-.63,2.11-.45,2.11-1-.49-.84-2.3-1.6-3.3-1.72-3.36-3.74.31-3.68-.88-4a9.58,9.58,0,0,1-5.17-5.41c-1.06-3.06-.81-3.65-.68-5.17s1.49-4.33,2.36-1.22,1.44,3.6,2.19,4.4,1.74,1.2,1.24-.92a15.22,15.22,0,0,1-.68-4.89c.12-1.44.81-1.92,1.62-2s3.24-.67,4.49-.76,1.3-.26,1.3-.26a2.06,2.06,0,0,1,1.75-1.63,7.8,7.8,0,0,1,3.86,0c1.19.26,2.06.72,3.62,0a5,5,0,0,1,3.8-.35,5.42,5.42,0,0,1,2.49,1.91c.75.9.5,1.85.5,2.85s.13,1.58,1.19,1.81a6.82,6.82,0,0,1,3,1.2c1,.77,2.37,1.88,1.5,3.25s-.94,3.08-1.5,2.87-.5.71-.75,1.21a1.16,1.16,0,0,0,.19,1.59,21,21,0,0,1,1.56,2.62c.87,1.38,2.18,2.94.87,4.57a11.43,11.43,0,0,1-3.61,2.69s-1.31.62.18,2.23,2.19,4.4,2.75,5,1.12,1.43,1.49,1.78.31,2.17.31,2.17a7,7,0,0,1-1.93,1,6.52,6.52,0,0,1-3.36.64c-1.06-.23-1.62-.35-1.19,1.2s1.19,3.28,1.37,4.13.44,2.38.44,2.38a15.29,15.29,0,0,0,3.3,1.27,26.35,26.35,0,0,0,5.68.78,19.49,19.49,0,0,1,7.73,1.5c3.3,1.26,3.8,1.19,4.67,1.83s1.75,1.48,1.75,1.48a33,33,0,0,0,7.23.65,3.08,3.08,0,0,0,2.81-3.87c-.38-1.36-.32-3.26-4.81-5.14s-6.29-1.91-9.85-3.69-9.1-5.63-10.09-12.33,2.62-8.65,4.42-9.53,5.74-2.05,7.55-2.75a11.9,11.9,0,0,1,8.6.4c3.49,1.49,5.48,3.28,6.85,2.39s2.5.26,2.25,2a7.33,7.33,0,0,1-5.55,6.12,16.84,16.84,0,0,1-11.22-1.51c-2.55-1.57-4.48-3.44-6-3s-3.31,2.93-1.63,6.67,10.29,6.62,12.6,7.48,10.84,1.79,13.27,8.52.5,13.25-2.36,14.19a24,24,0,0,1-7.48,1.41l-2.19,0a28.9,28.9,0,0,1,1,4.88c0,1.37-.12,3.9.94,5.12a6.43,6.43,0,0,0,4.36,2.41c1.81.12,4,2.41,4.12,4.81s.62,5.79.8,10.58,0,8.67,0,8.67a21.23,21.23,0,0,1-.55,3.44c-.44,1.65-2.69,7.89-2.69,7.89l12.55,2.68c.1-.93.16-1.84.21-2.75.51-13.44-2.66-36.88-4.73-57.44Z" style="fill: #1d5e91"/>
    <path d="M579.64,569.08c2.46,10.79,7.53,22.26,15.25,30.71,10.73,11.75,15.37,11.52,25.49,23.34s9.51,13.29,9.63,13.32-.49-1.72,9.64-9.12,14.75-5.16,25.48-12.28c7.72-5.13,12.79-14.44,15.25-24.19-33.57-7.14-67.15-14.64-100.72-21.78Z" style="fill: #6d8c3e"/>
    <path d="M602.19,506.46c-1.52-.33-1.46-1.2-2.37-3.52a63,63,0,0,1-3.09-12.09,39.37,39.37,0,0,1,.79-10.81c.42-1.86.48-3.17,0-3.63a2.06,2.06,0,0,0-1.46-.32s.37,1.76-.06,1.94-.79-1.06-1.09-2.36-.67-1.21-1.27-1.25-.61.76-.18,1.73a5.63,5.63,0,0,1,.18,2.52,28,28,0,0,0-1.88-2.18,1.32,1.32,0,0,0-1.94,1,10.84,10.84,0,0,0,1.63,5.57,8.16,8.16,0,0,1,.79,5.84c-.36,1.25-2.06.7-2.42,0s-1.09-1-1.58-.34-1,1.06.18,3.06h0c1.15,2,2,2.73,3.76,2.85s2.18,2.06,2.49,4.16.3,6.89,1.57,11.59a8.58,8.58,0,0,0,5.52,5.89A34.33,34.33,0,0,1,603,509C603.15,508.65,603.7,506.79,602.19,506.46Z" style="fill: #d4af3a"/>
    <path d="M586.84,485.37c-.24-.5-.73-1.58-.73-1.58a6.16,6.16,0,0,0-.12,1.48,5.78,5.78,0,0,0,.79,2.38l1-.85h0A14.91,14.91,0,0,1,586.84,485.37Z" style="fill: #d4af3a"/>
    <path d="M589.62,471.44a1.53,1.53,0,0,0-.78-.26,23.69,23.69,0,0,1,.6,2.7c.12,1,.31,1.39.85,1.16h0c.55-.24,1-.33.55-1.3A6.64,6.64,0,0,0,589.62,471.44Z" style="fill: #d4af3a"/>
    <path d="M593.64,469.54l-.36-.43s.21,2.08.15,2.85l0,0c-.06.79.06,1.17.55.92a1.77,1.77,0,0,0,.42-1.95A4.71,4.71,0,0,0,593.64,469.54Z" style="fill: #d4af3a"/>
    <path d="M597.5,473.75c-.3.55-.24.39.06,1s.36.17.42-.71h0a7.51,7.51,0,0,0-.18-1.89A4.25,4.25,0,0,1,597.5,473.75Z" style="fill: #d4af3a"/>
    <path d="M634.08,500.66c-1.17-1.77-1.85-3.12-3.29-3.94a7.54,7.54,0,0,0-3.44-.75l-.2-.65c-.21-.64-.62-.73-.89-.19a10.17,10.17,0,0,1-1.52,1.78c-.54.58-.89.91-1.23.53s.27-.94.27-.94a6.25,6.25,0,0,0,1.45-2.5c.68-1.87.89-3.73.34-4.76s-2.06-.45-2.88-.63-1.31-.08-1.38-.7.83-.12,1.86-.1,1.64-1.65,2-3.08.61-1.18,1.23-.14,1.17,1,1.31.38a19.48,19.48,0,0,1,1.37-3.32,5.86,5.86,0,0,0,.34-4.94,2.24,2.24,0,0,0-3.36-1c-.76.74-1.24,1.54-1.44,3.71s-.62.87-.62.16-.62-2-.34-2.79a4.08,4.08,0,0,0,0-1.91,3.47,3.47,0,0,0-1.58-2.66,7.77,7.77,0,0,0-4.53-.38c-1.44.19-1.17,2.06-1.17,2.06s-1.1-.14-2.27-.19a19.72,19.72,0,0,0-3.63.51c-1.1.17-1.51.28-1.51,1.08a19.39,19.39,0,0,0,.2,2.16,3.12,3.12,0,0,1,1.38.7.79.79,0,0,1-.35,1.33c-.55.19-.75.24-.75,1.24s.27,1.27.82,1.39a6.52,6.52,0,0,1,3.09,1.57,5,5,0,0,1,1.58,4.07c-.14,1-2.06,1.86-3,1.65s-1.24,0-1.24.94,1.17,1.06,1.17,1.06,1.16.35,3.43,1.25,2.61,1.67,3.64,3.2.27,1.67-.21,2a9.24,9.24,0,0,1-2,1.28c-.75.23-1.23.94-1.92,1a12.49,12.49,0,0,0-5.56.71c-3.16,1.12-4.26,6.92-4.26,6.92a11.29,11.29,0,0,0,1.86-.91A49.74,49.74,0,0,0,611.7,504c1.65-1.15,1.65,1.07.82,3s.76,1.88,1.24,1.38a10.22,10.22,0,0,1,2.68-1.83c1.58-.86,1,.93,1,.93a16.59,16.59,0,0,0-.62,4.59c-.14,3.29,2.26.69,3.36-1.18s1.58.35.76,2.58-2.41,3.8-3.3,3.6-1.58-1.75-1.65-2.57.28-3.16-.27-3.88-2.13-.36-3.3.39-1.44-.11-1.71-1.07.41-1.12.14-1.78-.9-.2-1.38,0-1.58.86-3.7,2-2,2.08-2,4.39.39,2.93,1.28,6.14l0-.11c.9,3.21,3.16-1,5.22-4.41s2-.46,1.72,2.59a22.36,22.36,0,0,0,1.37,8.85c.82,2.29,1.51,1.23,1.85-.2s.62-4.49,1.31-5.85,1.37.1,1.44,1.42a21.43,21.43,0,0,0,2.19,6.41c1,1.94,1.51-.27,1.86-2.31s.75-5.17,1-6.42,1.23.07,1.23.07.69,1.16,2.06,3.37,1.51-.78,1.65-2.25-.21-4.87.2-5.29,1.58,1,3.37,2.75,1.71-.83,1.51-2.29a20.58,20.58,0,0,0-2.68-7c-1.44-2.13-1.64-4.28-1.16-5.09s2.19.38,3.29.42,1.65,0,2.47-.06.82-1.23.82-1.23A18.59,18.59,0,0,0,634.08,500.66Z" style="fill: #d4af3a"/>
    <path d="M627.7,471.25c-1.22-.27-2,.46-2.68.72a8.46,8.46,0,0,1-1.5.38s.16.33.61,1.38,1.12,1.36,1.55,1l0,0a6.82,6.82,0,0,1,1.26-.62,15.13,15.13,0,0,1,1.94-.11c.93,0,.77-.78.57-1.47S628.91,471.51,627.7,471.25Z" style="fill: #d4af3a"/>
    <path d="M633.06,478.07c-1.42-.85-2.11-.29-2.27.45a11.86,11.86,0,0,1-.69,3c-.57,1.34.08,1.37.57,1.47v0a1.67,1.67,0,0,0,1-.2,10.7,10.7,0,0,1,1.71-.69c.81-.24,1.13-.35,1.61-1.67S634.48,478.91,633.06,478.07Z" style="fill: #d4af3a"/>
    <path d="M633.7,487.31c-1.3-1.75-2.1-2.25-3.48-2.55v-.05c-1.38-.3-2.92,2.38-3.49,2.79a.78.78,0,0,0-.24,1,18.91,18.91,0,0,1,.56,2.55c.17,1.22.21,3.24.21,3.24a2.63,2.63,0,0,0,1,.34c.81.18,1.3-.31,2.07-1a3.53,3.53,0,0,1,2.47-.88,5.45,5.45,0,0,0,2.84-.92C636.87,491.19,635,489.13,633.7,487.31Z" style="fill: #d4af3a"/>
    <path d="M611.52,484.05c-3.41-.3-6.72-2.8-7.33-7.88,0,0-1.16,2.85,1,6.77a8.77,8.77,0,0,0,6.75,4.74h0a1.37,1.37,0,0,0,1.57-1.51A2.06,2.06,0,0,0,611.52,484.05Z" style="fill: #d4af3a"/>
    <path d="M608.84,535.71c-.16-1.17-1.4-1.29-2.07-1.36s-.78,1.5-.88,3-.57,5.86-1.09,9.61-3.51,8.26-4.34,9.21-1.5,1.27-2.07,1.15a3.88,3.88,0,0,0-2.43,0,4,4,0,0,0-1.29,2.82,2.78,2.78,0,0,0,1.19,2,5.06,5.06,0,0,0,1.34-1.22c.37-.61,1.19-.58,2-.63s.93.43.62,1-.22.67.41,2.41v0a2.79,2.79,0,0,0,.6,1l5.24,1.13c.89-.17.9-1.36.94-2.18.05-1,.57-3.67,1.29-8.59a71.57,71.57,0,0,1,2.48-10.21c.52-1.94-.51-2.84-.88-4.21S609,536.88,608.84,535.71Z" style="fill: #d4af3a"/>
    <path d="M592.24,561.56c-.4.12-.69.64-.86,1.07l3.41.74a4,4,0,0,0-.33-1.33C594.05,561.21,593,561.34,592.24,561.56Z" style="fill: #d4af3a"/>
    <path d="M596.89,562.41h0a3.17,3.17,0,0,0-1.18,1.15l3.68.8a2,2,0,0,0-.28-1.77C598.28,561.41,597.46,562.07,596.89,562.41Z" style="fill: #d4af3a"/>
    <path d="M628.84,567.15h0c-.4-.09-.76.35-1.34.81a3.06,3.06,0,0,0-.84,2,.66.66,0,0,0,0,.32l1.56.34a.38.38,0,0,0,.11-.29,2.52,2.52,0,0,1,.85-1.9A.73.73,0,0,0,628.84,567.15Z" style="fill: #d4af3a"/>
    <path d="M631.36,568.87c-.36,0-.94.78-1.42,1.19a3,3,0,0,0-.63.83l2.31.5a3.42,3.42,0,0,0,.28-1.11h0C631.89,569.57,631.71,568.88,631.36,568.87Z" style="fill: #d4af3a"/>
    <path d="M646.68,543.88a8.06,8.06,0,0,0-3.64-2.29c-1.56-.34-4.49-.46-5.6.41s-1.65,4.72-1.65,6.8.22,2.45.62,2.54,1.07-1.26,1.07-1.26,1.46,3.12,2.35,5.26a4.93,4.93,0,0,1,.1,4.25c-.4,1.41-1.87,5.06-3,5.66s-2-.39-3.42-1a2.12,2.12,0,0,0-2.93.79,1.4,1.4,0,0,0,.44,2.19,2,2,0,0,1,1.69,1.27,5.85,5.85,0,0,1-.07,3.1l6.81,1.48c1.17-.5,2-2.65,2.28-3.85a11.53,11.53,0,0,1,2.54-3.74c.7-.83.8-1.46.8-3.6a14.3,14.3,0,0,0-.94-5.09,13.58,13.58,0,0,1-.76-5c.12-1.3,1.6-2.33,2.7-3.27l.06.09c1.11-.93.94-1.29,1-2.52S647.12,544.43,646.68,543.88Z" style="fill: #d4af3a"/>
    <path d="M669.71,551.07c-.08-2.5,0-4.34-3.14-5.45s-4.12-3.24-5.18-5-.81-5.32-1.65-9.84-2.93-5.66-6.63-7.52a23.91,23.91,0,0,0-9.17-2.79c-2.76-.23-6.19-.42-8.1-1.09s-1.58.12-.89,1.88l-.05.08c.68,1.77.34,2-.63,2.09a7.73,7.73,0,0,1-3.57-.4c-1.52-.52-1.49-.2-1.52.91a11.81,11.81,0,0,1-1.07,5c-.89,1.55-2,.62-2.67-.2s-1.06-.74-1.32.45a20.26,20.26,0,0,1-1.44,3.65c-.72,1.71-1.19,1.67-1.7,1.37s-1-1.52-1.49-1.69-1.31-1.83-2.08-3.8-1.14-.07-1.65,1.38-1,2.44-2,2-2.08-3.3-2.63-5-.89-3.35-1.74-3.48-2.25,2.18-3.18,2.66-1.19.18-1.62-.78-1,.1-1.52,2a4.84,4.84,0,0,0,.8,4.52c.77.72,2.29-.56,3.31-1.33s1.49-.42,2.55-.19,1,2.76,1.44,6.57,2,4.64,2,4.64.51.74,1.65-1.86,1.28-5.37,2.38-5.13,1.19.63,2.29,3.1,2,4.35,2.68,2.81,1.19-3.89,1.91-4.6,1.4-.81.63.64-1.1,3.1.47,2.76,7.56-2.56,10-2.72a41.93,41.93,0,0,1,6.11.41c3.27.46,4.07.32,5.35.6s1.31.1,1.4-1.12-.59-1.12-3-1.64a22.78,22.78,0,0,0-5.69-.43c-1.66,0-2.42-.22-2.13-.77s.77-.89,2.68-.91a54.34,54.34,0,0,1,7.85.91c2,.38,1.4,1.17,1.23,3.11a51.58,51.58,0,0,0,.3,6.83,13.59,13.59,0,0,0,1.27,5.3c1.11,2.84,4.93,5.28,6,6.39s.94.2.89-1.36.85-1.3,1.83-.29a19.54,19.54,0,0,0,3.73,2.74c1.15.67,1.32,1,1.32,1.89s.13,2.82.26,4.65.08,2.37-.43,3.37a40.6,40.6,0,0,1-2.67,3.76,9.74,9.74,0,0,0-3.06.09,3.13,3.13,0,0,0-2.93,2.78c-.21,1.19.38,1.69.47,2.21a12.13,12.13,0,0,1,0,1.49l.48.1a12.8,12.8,0,0,1,.75-1.45c.72-1.21,2.55-1.12,3.73-.06a3.09,3.09,0,0,1,.71,2.63l4.75,1c.65-1.67,2.17-5.66,2.57-6.89a13.86,13.86,0,0,0,.85-4.83c0-2.29.21-11.12-.09-11.68S669.8,553.57,669.71,551.07Z" style="fill: #d4af3a"/>
    <path d="M652.75,575h0a2.27,2.27,0,0,0-.68.83l3.21.7a2.76,2.76,0,0,0-.32-1.42C654.48,574.14,653.53,574.42,652.75,575Z" style="fill: #d4af3a"/>
    <path d="M658.49,575.93h0a2.61,2.61,0,0,0-1.07,1.07l3.26.7a2.53,2.53,0,0,0,0-.55A1.56,1.56,0,0,0,658.49,575.93Z" style="fill: #d4af3a"/>
    <path d="M579,566.14c34,7.22,68,14.82,102,22,.3-1.43.53-2.88.71-4.31-34.46-7.32-68.91-15-103.37-22.35C578.5,563,578.74,564.57,579,566.14Z" style="fill: #d4af3a"/>
    <path d="M662.06,509.53c-3.62-1.36-6.44-2.39-10.51-4.26s-6-4.7-6-8.16,2.2-4.8,3.78-5.12,4.12-.75,6.38,1,4.92,2.47,9.38,2.61a5.51,5.51,0,0,0,5.48-4.19s-.56.3-2.82-.11-3.9-2.24-8-3.22-5.6.86-7.52,1.43-7.06.2-8.58,4.73.23,7.24,3.46,11.08h0c3.22,3.83,13.45,6.21,18.25,8.65s4.47,7.73,3,10.21-8.22,1.38-9.43,1.35a19.6,19.6,0,0,1,1.64,3.08s.73.08,2.76.26,5.6.22,8-2.23,2.25-7.27.11-10.94S665.67,510.88,662.06,509.53Z" style="fill: #d4af3a"/>
    <path d="M620.24,474.22c-1.07-.23-1.93.82-1.93,2.34s.86,3,1.93,3.19,1.92-.82,1.92-2.35S621.3,474.45,620.24,474.22Z" style="fill: #b96b29"/>
    <path d="M661.54,490.68a17.34,17.34,0,0,0-5.88-.61,2.49,2.49,0,0,0,1.47,1,14.82,14.82,0,0,1,4.86,1.54,4.25,4.25,0,0,0,4.29-.15s-2.2-.87-4.74-1.77Z" style="fill: #b96b29"/>
    <path d="M637.33,554.72h0c-.62-1.57-.8-1.47-1.51-.72s-1.43-2.53-1.52-4.5.53-7.81.53-7.81a40.21,40.21,0,0,0-5.34.78,32.2,32.2,0,0,1-5.16.57c-1.52.2-2.32.53-3.12.1a18,18,0,0,0-3.83-1.22c-1.33-.29-1.24.12-2.58,1.78s-1.69,2.61-2.76,6a48.55,48.55,0,0,0-1.78,11,38.7,38.7,0,0,1-.86,5.75l16,3.47c.19-.7.44-1.59.66-2.24a3.73,3.73,0,0,1,1.92-2.21c.63-.29,1.18-.17,1.46-1.14a3.36,3.36,0,0,1,1.93-2c.84-.37,2.3.25,3.64,1.1s1.8-.41,2.17-1.06.55-1.65,1.26-2.83a3.15,3.15,0,0,0,.18-2.54A9.24,9.24,0,0,1,637.33,554.72Z" style="fill: #1d5e91"/>
    <path d="M663,560.91c-.21-1.39-.13-1.55-.67-1.85a14.35,14.35,0,0,1-2.26-1.4c-.79-.66-.71,2.47-.71,2.47a14.85,14.85,0,0,1-4-.93c-2.14-.83-4.64-4.18-5.52-5.29a19.92,19.92,0,0,1-1.85-3.39,6.31,6.31,0,0,1-1.33,1.17c-.67.41-1,2.28-1.17,4.21s1.54,4.67,1.67,6.65-1.46,5.54-2.26,7a30.12,30.12,0,0,0-1.63,4.41l7.7,1.67a5.41,5.41,0,0,1,.83-1.71,2.82,2.82,0,0,1,2.13-.94,5.6,5.6,0,0,1,.3-1.46,4.26,4.26,0,0,1,3-2.71,10.48,10.48,0,0,1,4.23-.37,9,9,0,0,0,1.59-2.28c.67-1.38.18-3.79,0-5.19Z" style="fill: #1d5e91"/>
    <path d="M653.37,654.83c-2.82-5.75-5-15.27-5.31-16.76a28.48,28.48,0,0,0-10.3,8.37c-6.34,8.28-7.71,10.39-7.71,10.39s-1.38-2.71-7.72-13.75A54,54,0,0,0,612,630.16c-.36,1.12-3,9.19-5.84,13.77-1.42,2.28-3.37,3.81-4.75,6a24.76,24.76,0,0,0-3.16,9.41c-1,6.74-.83,10.69.61,11.72l0,0c1.43,1,4.11,0,5.45-2s1.82-5.62,2.78-7.51,1.65-3.29,1.65-3.29a39,39,0,0,1-1.47,7.77,40,40,0,0,0-1.14,12.79c.58,5.3,2.87,6.64,4.22,6.23,1-.31,2.55-2.27,4-5.4.45-1,.76-2.43,1.2-3.54.91-2.32,1.72-6.27,2.12-6.06.89.44.32,3.23,0,5.12-.68,3.76-2,9.21-2.11,12.68s.19,9.83,2.58,10.63,3.64-2,5-8.84,1.63-9,2.2-8.89.58,5,.58,7.12c0,.72,0,2.71.21,4.75.38,3.9,1.14,8.66,1.9,9.83,1.14,1.79,2.1,1.72,2.1,1.72s1,.49,2.11-.8,2.1-11.57,2.1-13.67,0-7,.58-6.86.86,2.42,2.2,9.85,2.58,10.77,5,11,2.68-6,2.58-9.5-1.43-9.55-2.1-13.61.28-3.57,2.1,1.86c.57,1.7,1.16,3.75,1.74,5.22,1.27,3.24,2.51,5.29,3.43,6,1.34,1,3.64.65,4.22-4.4s-2.11-20.45-2.11-20.45l1.15,2.77c1,2.3,1.44,6,2.78,8.71s4,4.78,5.46,4.39,1.62-4.26.57-11.48S656.44,661.09,653.37,654.83Z" style="fill: #d4af3a"/>
    <path d="M660.51,687.69a9.46,9.46,0,0,1-2.75-1.39,16.87,16.87,0,0,1-2.35-2.43v5.33s3.37,5.4,4.16,7,2.36,4.28.06,1.48-4.22-5.5-4.22-5.5-.45,4.74-1.4,5.76a2.26,2.26,0,0,1-2.87.45l-.56-.46c-.05.62-.11,1.24-.17,1.86a68.08,68.08,0,0,1,2.36,8.47c.28,2.36-.17,2-1.12-1.15s-2.81-7.34-3.65-9.57-2.08-3.9-2-1.25a30.18,30.18,0,0,1-1.23,8.84,8.8,8.8,0,0,1-1,2.07s1.28,6.94,1.45,8.2.06,2.64-.67.92-2.81-8.73-2.81-8.73-2.75-.77-3.54-2.09a40.77,40.77,0,0,1-2-6s-1.13,5.4-2.06,7a10.51,10.51,0,0,1-3.1,2.94s-.16,9.79-.31,11.49-.2,2.45-.71,2.34-.55-.88-.71-2.65S629,709,629,709a20,20,0,0,1-3.1-4.3c-.93-2-2.06-7.91-2.06-7.91s-1.23,4.16-2,5.13-3.54.55-3.54.55-2.08,6.11-2.81,7.5-.84,0-.67-1.21,1.46-7.55,1.46-7.56a14.49,14.49,0,0,1-1-2.51,36.34,36.34,0,0,1-1.24-9.37c.11-2.61-1.12-1.48-2,.39s-2.7,5.24-3.65,8-1.41,2.9-1.13.66a47.69,47.69,0,0,1,2.36-7.44c0-.65-.11-1.29-.17-1.93l-.56.21c-.56.2-1.91-.25-2.86-1.69s-1.41-6.38-1.41-6.38a54.56,54.56,0,0,1-4.21,3.69c-2.3,1.8-.73-.24.06-1.47s4.15-5.17,4.15-5.17v-5.33a8.36,8.36,0,0,1-2.34,1.42,7.17,7.17,0,0,1-2.75.21s-1,1.65-3.76,6.81-1.56,15-1.56,15a5.26,5.26,0,0,0,4.41-1.52v0c1.85-2,2.81-3.09,2.81-3.09s1.35-1.35,1,1.7-1.07,9.29-.62,12.17.68,5.31,3,3.77a13.24,13.24,0,0,0,4-4.12c1.12-1.48,2.3-2,2,.68a56.8,56.8,0,0,0-.73,12.15c.4,5.58,2.25,6.8,4.66,2.65a57.17,57.17,0,0,0,4.61-10.23c.73-2.14,2.19-3.79,2.19.48,0,9.17,1.44,22.83,8.37,27.91,6.93-2,8.37-15.09,8.37-24.26,0-4.27,1.46-2,2.19.47a89.68,89.68,0,0,0,4.61,12.24c2.41,5.2,4.27,4.79,4.66-.62a61.65,61.65,0,0,0-.73-12.46c-.28-2.77.9-1.78,2,.19a25,25,0,0,0,4.05,5.88c2.36,2.56,2.58.23,3-2.46s-.28-9.25-.61-12.44,1-1.26,1-1.26,1,1.52,2.81,4.3a8.55,8.55,0,0,0,4.39,3.47s1.19-9.38-1.55-15.72S660.51,687.69,660.51,687.69Z" style="fill: #d4af3a"/>
    <path d="M632.42,766.21h0a50.16,50.16,0,0,1-2.37-5.06,28.6,28.6,0,0,1-2.36,4,51.31,51.31,0,0,1-5.93,6.49s.37,8.09,2.37,12.84c1.69,4,3.3,7.71,5.92,10.81,2.63-2,4.24-4.94,5.93-8.22,2-3.89,2.37-11.81,2.37-11.81A96,96,0,0,1,632.42,766.21Z" style="fill: #d4af3a"/>
    <path d="M629.17,775.3h0c.17,1.89.06,6.56.83,6.73s.66-4.55.83-6.37.22-6.26.22-6.26l-2.1-.46S629,773.4,629.17,775.3Z" style="fill: #b96b29"/>
    <path d="M630,336h0Z" style="fill: #d4af3a"/>
    <path d="M630,336h0c-7.41-1.43-16.1-4.82-20.89-8.46l-5.1.54c7.89,6,14.48,9.16,26,11.84,11.52,2.35,18.11,2.1,26-.53l-5.11-2.75C646.07,338.2,637.37,337.8,630,336Z" style="fill: #d4af3a"/>
    <path d="M651,315.8c-7.62-2.87-21-5.51-21-5.51s-13.4-3.21-21-3.65S600.1,308,600.1,308s-.34.57,1.76,1.82,5.92,3.64,6.07,4.39.83,2.62,0,3.07a42.89,42.89,0,0,0-4.84,3.82c-.59.59-.64,1.73.29,2s.95.25,3.57.05c7.85-.57,15.24.4,23.09,1.95a100.47,100.47,0,0,1,23.09,8.11c2.62,1.33,2.63,1.36,3.57,1.49s.88-1,.29-1.87h0c-.59-.85-4-5.09-4.84-5.92s-.2-2.41-.05-3.09,4-1.44,6.07-1.77,1.76-1.05,1.76-1.05S658.64,318.67,651,315.8Z" style="fill: #d4af3a"/>
    <path d="M630,330a90.59,90.59,0,0,0-18.25-2.21c3.3,2.65,8.63,4.78,18.25,6.88s15,2.29,18.25,1.08h0C643,333.65,639.69,331.94,630,330Z" style="fill: #d4af3a"/>
    <path d="M632.76,212.86l-5-1.14.87,5.69-4.37-1.56v5l4.33.21c-.08,1.8-.16,3.59-.23,5.39l4,.4c-.12-1.73-.25-3.46-.37-5.19l4.29,1.81.18-5-4.51-.38C632.23,216.37,632.49,214.62,632.76,212.86Z" style="fill: #d4af3a"/>
    <path d="M631.74,235.46v-6.68a6.27,6.27,0,0,0-1.58-.58,5.68,5.68,0,0,0-1.41-.12v6.73l-5.55-1.21a11.52,11.52,0,0,0-.29,2.63,11.22,11.22,0,0,0,.06,1.15l14.37,3.13c0-.37,0-.74,0-1.13a16.65,16.65,0,0,0-.31-2.76Z" style="fill: #d4af3a"/>
    <polygon points="630.16 247.4 630.16 247.4 630.16 247.4 630.16 247.4" style="fill: #1d5e91"/>
    <path d="M630.16,247.4c3.19.69,5.9-1.46,6.86-5.05l-13.73-3C624.26,243.37,627,246.7,630.16,247.4Z" style="fill: #1d5e91"/>
    <polygon points="633.11 229.69 633.11 229.69 633.11 229.69 633.11 229.69" style="fill: #1d5e91"/>
    <path d="M633.11,229.69v4.59l3.56.78A11.66,11.66,0,0,0,633.11,229.69Z" style="fill: #1d5e91"/>
    <path d="M623.62,232.21l3.56.78V228.4A6.41,6.41,0,0,0,623.62,232.21Z" style="fill: #1d5e91"/>
    <path d="M634.29,315.23h0c-1.35-1.23-4.31-3.72-4.31-3.72l-4.33,2.19c-1.52.79-1.33.5-1.8,2a2.27,2.27,0,0,0,.72,2.78c.66.58,5.49,5.24,5.49,5.24s4.78-2.2,5.93-2.75.94-1.38.62-2.68S635.62,316.46,634.29,315.23Z" style="fill: #b96b29"/>
    <path d="M625.35,315.34l4.73,4.54,4.66-2.5L630,313.07Z" style="fill: #d4af3a"/>
    <path d="M630,289.38h0a14.17,14.17,0,0,1-.93,3.26,4.47,4.47,0,0,0-.78,3.05,3.08,3.08,0,0,0,1.71,2.47c.58.12,1.56-.5,1.71-1.73a6,6,0,0,0-.78-3.38A20.89,20.89,0,0,1,630,289.38Z" style="fill: #d4af3a"/>
    <path d="M630,299.34c-.49-.11-.89.38-.89,1.1a1.5,1.5,0,0,0,.89,1.49c.49.11.89-.39.89-1.1A1.48,1.48,0,0,0,630,299.34Z" style="fill: #d4af3a"/>
    <path d="M634.63,249.17a6.27,6.27,0,0,1-4.67,1,9.78,9.78,0,0,1-4.67-3s-.45,11.76-1,18.52-2.1,12.82-.85,19.15,3.4,8.46,3.4,8.46h0a21.52,21.52,0,0,0,2.1-3.61c.57-1.45,1-2.76,1-2.76s.46,1.51,1,3.21a38.48,38.48,0,0,0,2.11,4.53s2.16-1.19,3.4-7-.28-12.5-.85-19.51S634.63,249.17,634.63,249.17Z" style="fill: #d4af3a"/>
    <path d="M630,275.09c-2.06-.45-3.73,1.54-3.73,4.44s1.67,5.62,3.73,6.07,3.73-1.54,3.73-4.44S632,275.54,630,275.09Z" style="fill: #b96b29"/>
    <path d="M630,263c-2-.43-3.59,1.49-3.59,4.28s1.61,5.41,3.59,5.84,3.59-1.48,3.59-4.28S631.94,263.4,630,263Z" style="fill: #b96b29"/>
    <path d="M630,251.41c-1.89-.41-3.42,1.42-3.42,4.08s1.53,5.16,3.42,5.57,3.42-1.41,3.42-4.08S631.85,251.83,630,251.41Z" style="fill: #b96b29"/>
    <path d="M630,276.62c-1.09-.24-2,.81-2,2.35s.89,3,2,3.21,2-.81,2-2.35S631.05,276.85,630,276.62Z" style="fill: #d4af3a"/>
    <path d="M630,264.44c-1.05-.23-1.9.78-1.9,2.26s.85,2.86,1.9,3.09,1.9-.78,1.9-2.26S631,264.67,630,264.44Z" style="fill: #d4af3a"/>
    <path d="M630,253c-.92-.2-1.67.69-1.67,2a2.72,2.72,0,0,0,1.67,2.71c.92.2,1.67-.69,1.67-2A2.72,2.72,0,0,0,630,253Z" style="fill: #d4af3a"/>
    <path d="M629.82,678c-.41,0-.64,1.72-.64,2.73s.18,6.77.18,8,.27,1.32.5,1.44h0c.23.12.28-.74.32-2.33s.19-5.43.46-7.63S630.23,677.92,629.82,678Z" style="fill: #b96b29"/>
    <path d="M600.45,710.43a76.65,76.65,0,0,1,.28-7.87,24.18,24.18,0,0,0-.39-6.39,16.5,16.5,0,0,1-4,3.17c-2.43,1.34-3.42.23-3.42.23-.21-1.23-.41-2.46-.61-3.68,0,0-1,3-2.54,6.48s-5.52,6.83-8.39,9.37-6,5.2-8.4,5.91a1.59,1.59,0,0,0-1,2.62s2.37,4,8.5,6.89,9.06-.08,10.72-1.26,3.09-2.57,6.84-5.4a16.18,16.18,0,0,0,5.14-6.58l-1.33-.28C601.11,713.48,600.51,711.89,600.45,710.43Z" style="fill: #d4af3a"/>
    <path d="M608.69,721.19c-.27-2.32.12-10.89.12-10.89a13.82,13.82,0,0,0-1.55,2,3.35,3.35,0,0,1-2.71,1.19,16.4,16.4,0,0,1-1.1,2.91,12.67,12.67,0,0,1-4,5.37,51.31,51.31,0,0,0-6.13,4.83,30.23,30.23,0,0,1-5.58,4.71c-2.09,1.24-4,3.6-4.69,8s-.16,6,2.26,6.23,2.71.65,6.63,0,9.5-5.8,13.58-8.71,7.08-9.79,7.08-9.79h0C610.43,726.25,609.12,724.75,608.69,721.19Z" style="fill: #d4af3a"/>
    <path d="M621.22,727.61c-.61-3.61-1.77-10.73-1.77-10.73s-.55,2.06-1.87,5.89-3.59,4.32-3.59,4.32a12.21,12.21,0,0,1-2,4.82,24.48,24.48,0,0,1-7.46,7.53c-2.82,1.81-6.46,4.34-8.45,8s-2.15,7.94-1.21,10,2.26.24,4.14-.73,7.23-1,14.63-5.24,9.83-16.86,9.83-16.86h0A30.26,30.26,0,0,1,621.22,727.61Z" style="fill: #d4af3a"/>
    <path d="M627.36,742.48a52,52,0,0,1-2.93-6.13s-1.21,3.45-2.54,6.64a20.72,20.72,0,0,1-4.75,7.38c-2.76,3.12-6.52,5.94-8.12,9.56s-.72,11.73.33,14.63,2.54,2.32,4.09.48,2-2.3,4.75-5.11,6.46-6.36,8.5-10.36h0c2-4,2.38-14.77,2.38-14.77S628.35,743.92,627.36,742.48Z" style="fill: #d4af3a"/>
    <path d="M603.72,656.41a28.9,28.9,0,0,0-2.17,7.12c-.47,2.59-.24,3.05.85.05a74.86,74.86,0,0,1,3.31-8.46,26.59,26.59,0,0,0,1.69-3.91A27.27,27.27,0,0,0,603.72,656.41Z" style="fill: #b96b29"/>
    <path d="M611.67,667.37c-.76,3.36-1.89,8.22-1.66,8.47s2.46-5.18,2.88-7.23.67-3.42.67-3.42.42-2,.19-2.16S612.42,664,611.67,667.37Z" style="fill: #b96b29"/>
    <path d="M621.49,674.06a21.54,21.54,0,0,0-.9,4.78c-.14.86-.94,3.79-.71,4.12s.81-1.41,1.28-2.83h0c.47-1.41.47-1.48.47-1.48s.85-3.82.85-4.65S622.2,672.15,621.49,674.06Z" style="fill: #b96b29"/>
    <path d="M592.78,712.56c-.94,1.25-2,1.59-2.71,2.81a9.32,9.32,0,0,1-3.53,3.61c-1.71.93-2.37,1.2-2,1.67s1.49-.25,1.49-.25.5,0,2.54-1.31a17.2,17.2,0,0,0,3.86-3.62,38.3,38.3,0,0,0,3.1-4.11l-1.11-1.21A27,27,0,0,1,592.78,712.56Z" style="fill: #b96b29"/>
    <path d="M603.89,726.3c-.71.73-2.76,3.12-3.7,4.13s-1.71,1.57-2.65,2.42a32,32,0,0,1-4,2.62c-1,.6-.06.88-.06.88a9.87,9.87,0,0,1,1.6-.63c.83-.22,3.21-1.25,3.2-1.25a12.26,12.26,0,0,0,2.21-1.46,29.41,29.41,0,0,0,3.93-4.25h0c.77-1,1.6-1.67,1.16-2.42S604.61,725.56,603.89,726.3Z" style="fill: #b96b29"/>
    <path d="M613.6,740.46c-1.1.41-3.59,3.84-5,5a18.52,18.52,0,0,1-3.87,2.07c-1.21.63-1.21,1.11-1.15,1.53s.55.52,1,.31,2.21-1.3,2.21-1.3a5,5,0,0,1,1.38-.11c.67.06,1.6-.79,3.1-2.32s2.81-2.38,3.47-4.18h0C615.42,739.65,614.71,740.05,613.6,740.46Z" style="fill: #b96b29"/>
    <path d="M619.57,756.32c-1.83,1.22-5,4.17-5.8,6.42s-1.38,3.82-1.11,4.29,1.16-.16,1.55-1a18.58,18.58,0,0,1,1.21-2.17,42.67,42.67,0,0,1,4.31-4.64,11.7,11.7,0,0,0,3.48-5.06,5.29,5.29,0,0,0,.11-2.72S621.39,755.09,619.57,756.32Z" style="fill: #b96b29"/>
    <path d="M570.92,359A30.2,30.2,0,0,0,560,351.85a22.8,22.8,0,0,0-12.44-.53,9.93,9.93,0,0,1-7.41-1.09c-3.42-2-6.08-7.05-7-12.75,0,0-3.15,5.28.07,12.32,1.55,3.39,3.57,5.72,5.63,6.74,6.69,3.3,13.25-1.32,18.83-.69,5.35.6,9.55,6.44,9.55,6.44a2.25,2.25,0,0,0,3,.66C572.07,361.8,572.59,360.75,570.92,359Z" style="fill: #c52126"/>
    <path d="M546.58,634.94c-.6-.51-1.52-.79-2.11,0s-5.4,4-5.4,4l8,1.6c2.76.56,4.6-2.82,4.6-2.82s-.65-.23-1.58-.61A20.47,20.47,0,0,1,546.58,634.94Z" style="fill: #d4af3a"/>
    <path d="M574.07,640.49v-1.16c-.36-1.19-.71-2.38-1.06-3.56a12.68,12.68,0,0,0-2.45,2.44,70.38,70.38,0,0,0-4,6.23c-1.33,2.2-3.18,4.15-1.59.51s2.12-5.22,3.39-7.6,2.23-3.33,2.07-3.52-1.17-.64-4.51-2a18.78,18.78,0,0,1-6.94-5.25c-1.54-1.64-4.3-4.38-4.3-4.38a59.32,59.32,0,0,1-7.8,2.67c-2.12.35-3.39.56-1.32,2.45s3.82,2.72,4.82,3.86a15.33,15.33,0,0,0,6.05,3.65c1.91.39,5.14,1.14,3.87,2.82s-2.71,5.11-4.08,10.49a52.05,52.05,0,0,0-1.43,12.91c0,2.49.21,5,.21,5s2.33-3.32,8.59-7.76,8.59-5.89,9.75-6.43,1.76-.4,1.54-2.62S574.07,641.58,574.07,640.49Z" style="fill: #d4af3a"/>
    <path d="M596.81,616.8a.89.89,0,0,0-.29.09,18.7,18.7,0,0,0-6.09,6.63c-1.55,3.31-3.09,3.31-1.4-.3a26.78,26.78,0,0,1,4.26-7c.51-.56,1-1,1.33-1.35A97.15,97.15,0,0,1,585,604.72a18.91,18.91,0,0,1-2.13,4.31,11.07,11.07,0,0,1-4.26,2.85,23.07,23.07,0,0,0,3.16-5.55,32.48,32.48,0,0,0,1-4.44,72.2,72.2,0,0,1-6.32-10.15,33.19,33.19,0,0,1-5.43,13c-4.91,7-14.75,9-14.75,9s-3.45-.18-.66,1.47,4.77,3.88,10.2,3.62,5.8-.5,6.53-.66,2.72.46,0,1.39-9,1-11.45.18-5.72-2.26-2.27,1.13,4.92,4.78,7,5.22,3,1.6,5.07,2,2.64,0,4.11-.1a2,2,0,0,1,2.42,1.69c0,.86-2,2.8-1.9,8.71a75.28,75.28,0,0,0,.73,11.62,66.94,66.94,0,0,0,1.84,6.51c.58,1.73.81,3.38,1.39.08s1.91-8,2.42-11.17.81-3.25,1-4.92,1.47-2.69.88.29-1.25,6.81-1.69,9.5-1.46,7.62.3,3.93,8.36-13.12,9.47-14.81,2-3.33,2.79-4.76,3.08-3.09,4.18-5.21a37.32,37.32,0,0,1,5.17-6.65c-1.87-1.57-3.84-3.21-5.92-5C597.59,617.5,597.2,617.16,596.81,616.8Z" style="fill: #d4af3a"/>
    <path d="M563.87,539.83c-2.64-2.09-3.69-5.91-4.31-8s-1.49-2.24-2.54-1.94a5.82,5.82,0,0,1-3.6.29c-1.5-.44-4.66-2.24-6.94-6.69s-1.85-8.21-1.94-10.15-2.19-1-3.24-1.17a14.08,14.08,0,0,1-6.94-4.85c-2.81-3.39-2.81-7.24-3.08-8.83A6,6,0,0,0,529,495a16.23,16.23,0,0,1-4.22-4.16c-1.93-2.69-2.63-7.32-2.72-8.88s-1.23-1.91-5.18-5.61-3.6-9.8-3.42-12.21,2-4.11,2-5-1.32-1.4-2.64-2.8-4.65-4-4.74-11.16,3.16-7.38,3.16-7.38a24.48,24.48,0,0,1-1.93-1.9c-1.32-1.4-4.92-5.66-4.92-9.9s1.32-5.92,2.29-6.77a10.59,10.59,0,0,1,3.6-1.39,12,12,0,0,1-2.38-5.32c-.7-3.47-1-7.63.7-10.27s4.48-2.12,6-1.84,2.81,1.69,3.33,1.15.62-1,.09-2.81a18.45,18.45,0,0,1-.17-7.22c.44-1.33.52-4.14,4.3-5.21s7.73,3.43,9,4.7.7-1.28.7-3.07-2.55-6.8-5.44-13.79a200.93,200.93,0,0,1-7.47-21,192,192,0,0,1-5.8-26.66c-.43-3.3-1.31-1.92-1.31-1.92s-.88.35-2.9,7.42a64.14,64.14,0,0,0-2.19,19.76h0c.17,5.93,4.65,18.07,7.2,24.59s3.25,9.09,2.81,9.4-1.49-3-2.9-5.94-4.13-9.77-6.41-14.95-5.62-17.08-6.06-18.19-.62-1.79-1.76-.71-3.33,13.14-.7,22.1a101.77,101.77,0,0,0,8.26,19.1c1.67,3.26,3.86,8.3,3.51,8.62s-1-.95-3-4.41-5.36-9.34-7.55-13.59a127.86,127.86,0,0,1-5.05-12.66c-.32-.92-.73-.76-1-.36-.72.93-1.88,3.19-1.37,10,.7,9.51,4,15.49,7,20.79s6,9.82,5.53,10.38-3.51-4-5.62-7.32-7.29-11.58-8.43-13.84-2.81-1.52-2.72,6.59,6.24,17.41,8.78,22.37,5.71,8.22,5.45,9.07-2.81-1.92-4.48-3.89-7.9-9-9.13-10.49-1.85.83-.27,8.82a44.63,44.63,0,0,0,8.87,18.26c2.73,3.32,7.12,7.59,6.85,8.44s-2.1-.64-4.65-2.9A54.84,54.84,0,0,0,492,435.3c-2.19-1.28-2.19,1-2.19,1a24.77,24.77,0,0,0,2.81,12.31c3.25,5.84,6.93,8.56,10.45,10.1s4,1.9,3.95,2.66-.44.81-1.23.67-4-.23-7-.77-4.56.2-4.56,2.13-.09,4.48,4.39,9.65,9.48,6.74,11.59,7.78,2.19,1.31,1.76,2.13-1.41.51-4.75.4-5.35,1.46-5.79,2.66.26,5.19,3,8.38,6.23,4.75,11.5,5.23,6.59.62,6.76,1.94-1.58,1.37-4.21,1.51-4.66-.25-6.15,1.27-.35,5.46,2.19,8.63,8.87,4.39,11.51,4.65,6.67-.36,6.94.72-1.93,2.19-4.66,3.07-3.51,1.62-4,3.19-.08,3.19,3.16,5.62,8,3.37,10.45,2.2,3.78-1.56,4.22-.83,0,1.29-.53,2.08a9.19,9.19,0,0,1-5.35,3.3c-2.73.49-3,.44-4,3.45s1.5,6.08,6.41,7.32,11.51-.25,13.62-1.62,2.9-1.58,3.25-.87.26,1.08-.79,2-4.4,3.72-6.06,4-1.85,2.06-1.85,3.73-.44,4.92,3.95,7.36,9.58,2.36,14.32-1.54a10.43,10.43,0,0,0,2.91-3.38,76.94,76.94,0,0,1,.36-15.15A16.2,16.2,0,0,1,563.87,539.83Z" style="fill: #d4af3a"/>
    <path d="M573,496.36c-2.27-.65-5.21-3.08-7.47-8.35s-5.66-7.14-11.54-8.19-8.6-5.72-10.07-12,.23-12.7,6.22-15.78,8.72-7.31,8.94-14.71-6-17.95-12.22-29.64-11.08-27.37-11.08-27.37a14.83,14.83,0,0,0-1.81,6.59c0,3.47.9,7.29,0,8.1s-1.25-1.73-4.86-4.76-6.57-3.92-8.83-.55,0,10.42,2,14,3.73,6.18,3.17,7.23-3.62-2.52-4.64-3.71-3.4-5.45-6.9-5.62-4.76,1.1-5.09,5.34,3.16,8.69,5.43,10.78,3.16,3.74,2.6,4.29-1.14-.22-2.15-.9-3.85-1.72-5.66-1.06-4.75,3.75-2,8.72,8.38,7.69,9.51,8.23,1.69.16,1.81,1.5-2.38.88-5.43.47-4,3.72-3.51,7.11,5.54,8,8.37,9.19,3.85.74,4.07,1.94-.34,1.59-1.92,1.95-4.64.27-5.21,3.8-.67,5.17,1.7,8.77a8.33,8.33,0,0,0,7.36,3.72c1.13-.11,2.49-1.67,3.62.21s-1,2.78-3,4.39-1.81,5.44,1.47,8.73,6.57,2.93,7.92,2.54,3.17-3.17,4.07-1-2.82,2.09-4.41,4.59-1,7.23,2.15,10.67,8.37,2.51,9.28,1.54,2-1.24,2.71-.11-.34,3.56-1,5.74-1.92,8.71,2.83,12.33,9.05-1.45,9.85-2.45,1.58-1,2.26-.36.34,1.56-.23,2.6a9.87,9.87,0,0,0,1.58,9.93,7.52,7.52,0,0,0,6.22,3.15c.71-3.73,1.63-7.67,2.56-13.27l-.71-.15c-.45-.1-.54.88-.54,1.27s.14.76-.27.67-.46.24-1,.71-1.13,1.08-1.45.69,1.23-1.27,1.64-1.91a6.4,6.4,0,0,0,1.27-2.38c0-.78.31-1.19,1.13-2a3.48,3.48,0,0,0,.61-.9c.54-3.75,1.08-8.15,1.56-13.52.33-3.64.52-7.1.59-10.35l-1.48-.42Z" style="fill: #d4af3a"/>
    <path d="M488,374.18c-1.89-4.68-5.95-13.64-8-22.25s-6.64-30.1-7.44-36.32-1.58-3-2.37,1.36a73.26,73.26,0,0,0-1.19,20.24,153.39,153.39,0,0,0,7.33,37.44c5.05,15.76,12.19,25.41,12.19,25.41s-.94-3.87-1.35-6.49a23.65,23.65,0,0,1-.09-5.46s-1.79-3.66-5.1-11.68-5.06-19.31-5.06-19.31,3.08,11.52,5.47,17.78a121.35,121.35,0,0,0,5.15,11.49s1-5,1.65-5.15,1.2.75,1.8,2,1.1,1.23,1.1,1.23-.81-2.61-2.07-5.78C489.38,377.23,488.55,375.64,488,374.18Z" style="fill: #d4af3a"/>
    <path d="M484.58,400.28c-3.37-4.36-12.09-20.17-15.66-29.29s-7.43-21.33-7.43-21.33a90.43,90.43,0,0,0,5.25,36.78c7.14,20,14.17,27.26,16.06,29.62s4.65,5.58,4.65,5.58a33.52,33.52,0,0,1-.71-3.42c-.28-1.84-.4-5.56-.4-5.56s-2.21-3.23-3.76-5.46a96,96,0,0,1-7.32-12.69c-3.84-7.59-.75-2.91,2.37,2.6s9.11,13.76,9.11,13.76,0-.11,0-1.61a6.93,6.93,0,0,1,.91-3.49C488.24,404.83,488,404.63,484.58,400.28Z" style="fill: #d4af3a"/>
    <path d="M518.48,524.8c-2.21.78-7.63,2.06-9.78,1.75s-2.14-.76-2.21-1.24,1.64.31,4.73.06,8.52-3.37,9.46-4.11.82-1-.56-1.41a6.53,6.53,0,0,1-3.09-2.34c-.51-.74-2-.09-5.49.45a59,59,0,0,1-16.46,0,52.86,52.86,0,0,1-11.73-3.72c-.89-.42-1.83.15.88,7.26S496.47,533.9,503.09,535s13.24-2.79,17.15-4.25,2.84-7.3,2.84-7.39A34.85,34.85,0,0,0,518.48,524.8Z" style="fill: #d4af3a"/>
    <path d="M510.34,504.26s-1.62.11-4.46.19a22,22,0,0,1-9.78-1.53c-3.65-1.58-2.08-1.9.81-.87s8.45.51,10.25-.08,1-1.58-.18-2.41a47.28,47.28,0,0,1-4.51-4.47,57,57,0,0,1-16-2.58c-7.7-2.61-12.56-6.28-14.13-6.88s-1.5.35-1.5.35-.41.95,2.25,7.48a30.36,30.36,0,0,0,12.28,14,55,55,0,0,0,17.25,6.28c6.83,1.34,9.38-1.14,9.38-1.14a10.25,10.25,0,0,0-.92-2.71A15.75,15.75,0,0,1,510.34,504.26Z" style="fill: #d4af3a"/>
    <path d="M497.47,476.32c-.93-1.1-1.22-1.42-5.38-2.82s-7.53-4-15-9.19S464,453.46,462.5,451.45s-1.39-.73-1,1.62.34,5.21,4.11,12.25,5.61,10.11,15.11,16.8a49.18,49.18,0,0,0,20.15,7.94,14.83,14.83,0,0,1-.7-2.75,4.19,4.19,0,0,1,.76-3.42,43.62,43.62,0,0,0-6.66-2.81c-5.1-1.83-5.38-2.47-8.51-4s-5.21-3.26-5.15-3.76,1,.43,2.89,1.76,9.67,3.88,13,5.15,5.15,2.12,5.73,1.72a10.8,10.8,0,0,1,2.6-.8,28.17,28.17,0,0,0-3.12-1.58A12.35,12.35,0,0,1,497.47,476.32Z" style="fill: #d4af3a"/>
    <path d="M496.78,459.26c-.46-.08-.58-.19-3.93-2.06s-6.78-3.22-11.41-6.55-6-5.41-5.9-5.91,2.14,2,6.42,5.07,9.27,4.9,12,6.24.34-.79-.93-2.12-3.07-5.71-3.07-5.71a67.63,67.63,0,0,1-7.93-4.33,71.65,71.65,0,0,1-13.14-10.23c-1.41-1.39-2.78-3.11-4.25-4.89-2.82-3.4-5.65-6.85-6.75-8.19-1.68-2-1.16-.51-1,.62a58.52,58.52,0,0,0,4,12.38c2.66,6,3.53,7.82,11.93,17.83s18.23,14.91,20.31,15.67c.47-.72-.5-3.76-.05-5.43.54-2,1.44-1.86,3.47-1.67S497.25,459.34,496.78,459.26Z" style="fill: #d4af3a"/>
    <path d="M484.11,425c-3.07-2.64-8.57-9.49-12.62-15.15S459.56,390.37,459,389.28s-.87-1-.93.28-.34,2.06.53,7.95a70.16,70.16,0,0,0,12.8,29.38A68.2,68.2,0,0,0,488.05,443c1.22,1,1.1-.06.87-1.11s-.41-4.39-.41-4.39l-6.25-6.33c-3.3-3.36-6.95-7.78-9.38-10.63s-1-2.45-.23-1.4,4.11,4.49,7.47,8.11,8.45,8.9,8.45,8.9a5.51,5.51,0,0,1,.81-2.48c.69-.9,2.43-.33,2.43-.33a22.92,22.92,0,0,1-1.39-2.7C489.9,429.34,487.18,427.6,484.11,425Z" style="fill: #d4af3a"/>
    <path d="M506.11,291.87c-.77-9.74-2-35.2-2-35.2-4.25,5.46-7.42,21.34-8,36.79-.42,11.64.87,22.72,1.25,27.18.75,8.84,1.78,15.82,3.34,20.84h0c.94,3,2,5.36,2.71,7.35,1.12,3,1.75,4.93,1.75,4.93a8.84,8.84,0,0,0,0-2.66,31.42,31.42,0,0,1,0-6.8,30.13,30.13,0,0,0,.33-4.23,29.31,29.31,0,0,0-.55-3.76c-.27-1.67-1.46-8.94-2-14a166.94,166.94,0,0,1-1.14-18.59c0-6.26.66-3,.66.06s.22,7.74.88,15.05,2.74,18.61,2.75,18.62a23.7,23.7,0,0,1,.75-3.94c.62-2.28,1.63-4.81,2.43-7.64s.52-3.37.52-3.37S506.87,301.61,506.11,291.87Z" style="fill: #d4af3a"/>
    <path d="M497.52,344.84a216,216,0,0,1-6.33-26.16c-2.45-14.08-3.84-26.74-3.89-34.15-.23-7.2-.34-10-.34-10s-4,3.7-5.33,25.74,2.67,44,4.67,52.48,5,19.08,5,19.08c.13-4.58.86-7.93,2.89-8.59a108.57,108.57,0,0,1-3.37-11.76,133.57,133.57,0,0,1-2.41-15.1c-1.11-11.08-2-22.45.22-3.7s4.89,25.72,4.89,25.73c1.07,2.73,2.15,5.47,3.22,8.21a50,50,0,0,1-.43-9.46A83.79,83.79,0,0,1,497.52,344.84Z" style="fill: #d4af3a"/>
    <path d="M531.08,539.68s-.5.46-1.89,1.57a19.13,19.13,0,0,1-4.85,3.11c-1.9.74-2.84,1.3-4,1.62s-.88-.35.13-1a14.71,14.71,0,0,1,3.84-2c2.52-1,7.57-6.45,7.57-6.45s-1.2-.42-3.28-.92a16.06,16.06,0,0,1-4.73-2.58s-2.08,2.35-10.47,6a44.29,44.29,0,0,1-15.51,3.78s.88,6.43,4.92,9.29c3.34,2.74,7.94,4.87,17,3.46a39.85,39.85,0,0,0,15.2-5.71h0s-.63-.77-2.52-2.9S531.08,539.68,531.08,539.68Z" style="fill: #d4af3a"/>
    <path d="M543,557.28c-1.26,1.41-3.1,4.17-6.63,6.05s-4.79,1.45-1.38-.56,8.39-8.56,8.39-8.55l-1.33-1c-1.32-1-3.59-.18-13,6.26s-15,5.7-15,5.69,4.23,8.25,15.71,9.94,15.64-5.44,16.33-10.47a16.83,16.83,0,0,0-1.32-9A11.22,11.22,0,0,0,543,557.28Z" style="fill: #d4af3a"/>
    <path d="M567.67,563.1a13.32,13.32,0,0,1-3,3.62c-1.7,1.3-6.24,1.38-6.24,1.38a10.14,10.14,0,0,1-1.07,2.17c-.88,1.48-2.84,5.05-4.86,6.75s-5.17,2.45-5.36,1.86,1.83-1.29,3.79-2.64,3.72-4.22,5-6.16-.56-2-.56-2a37.59,37.59,0,0,1-4.61-1.13c-2.21-.74-1.76-.36-2.4,1.08a34.92,34.92,0,0,1-3.15,5.08c-2,3-3.9,5.64-5.8,8.6-1.26,2-.32,2.8-.32,2.8s.57,1.49,5.68,3.35a10.86,10.86,0,0,0,10.16-1,27.58,27.58,0,0,0,6.87-7.19c6.11-8.5,5.8-16.59,5.8-16.59Z" style="fill: #d4af3a"/>
    <path d="M570.39,583.85a30.39,30.39,0,0,1-2,3,41.78,41.78,0,0,1,1.64-5.47c.4-.9.84-1.74,1.16-2.33a76.78,76.78,0,0,1-2-9.39c-.57,2.54-2.31,10-4.48,14.56-2.65,5.63-5,7.36-3.47,9.33s4.48,3,7.82,1.27,4.16-5.48,4.62-8.65c-.56-1.4-1.1-2.85-1.59-4.34A6.08,6.08,0,0,0,570.39,583.85Z" style="fill: #d4af3a"/>
    <path d="M569.64,333.91c-1.3-.27-2.35.91-2.35,2.65s1.05,3.35,2.35,3.63,2.34-.91,2.34-2.65S570.93,334.18,569.64,333.91Z" style="fill: #d4af3a"/>
    <path d="M588.45,331.79s.36.47,1.17,1.83,2.29,3.06,1.8,3.56-2.52-2.79-4.23-5a32.49,32.49,0,0,0-8.55-8c-4.32-2.77-9.18-3.92-12.43-2a6,6,0,0,0-3.05,6.61,1.8,1.8,0,0,0,1.54,1.28c2.14.37,3.29-.87,5.65,0,2.79,1,6.57,4.16,11.17,8.7,3.58,3.13,8.32,5.33,12.89,4.4a12.64,12.64,0,0,0,3.76-1.75c5.58-3.41,4.23-12.8,4.23-12.8C598.28,332,593.19,333.28,588.45,331.79Z" style="fill: #d4af3a"/>
    <path d="M625.35,409.56h0a12.58,12.58,0,0,1-5-4.9c-2.25-3.53-7.65-13.41-8.28-15.12s-.36-3.12,1.17-3.71,2.61-3.25,2.61-3.25a37.42,37.42,0,0,1-5.58-5.44c-2.25-2.86-7.47-10.85-8.19-12.72s-.36-2.06.72-2.35a2,2,0,0,0,1.35-1.29s-2.43-2.77-4.68-5.89-5.31-8.13-5.31-8.13c-3.37,1.25-8.66-.72-11.52-2.08a33.82,33.82,0,0,1-8.73-6.2,29.73,29.73,0,0,1-.82,3.26c-.63,2.1-3,2.93-5.31.2s-1.8-7.5-1.8-7.5a43.34,43.34,0,0,0-5.76-5c-3.87-2.92-7-3.83-10.17-2.36s-4.68,7.48-4.68,12.23,1.71,3.12,2.07,2.53,1.08-3.87,5-4,7.56,3.4,12.06,9.74,5.49,7,7.74,10.86.45,5.36-3.42,6.4-8.82-3.69-9-3.59c-.74.39,1.67,5.92,5,8.52s7.61,2.26,10.93,1c2.25-.84,2.67.61,3.32,1.76,3.66,6.39,4.61,11.85,5.23,18.39,1.86-.44,3.16-2.89,3.42-5.07.12-1.05.36-3.36,1.62-1.37s2.25,11.69,2.25,16a76.26,76.26,0,0,1-.9,10l.9.06a10.31,10.31,0,0,0,3.06-1.58c1.44-.88,1.53.46,1.53,2.84s.54,7,2.7,15.48,5.31,11.83,5.31,11.83a25.48,25.48,0,0,0,1.26-4.47,87.89,87.89,0,0,0,1.09-14.54c0-5.41-1-17.22-1-17.22s4.51,9,9.19,12,9.36,2.83,11.34,0S626.34,410.17,625.35,409.56Z" style="fill: #d4af3a"/>
    <path d="M594.56,423.69h0a60.65,60.65,0,0,1-2.19,5.75,5,5,0,0,1-1.12,1.66,14.91,14.91,0,0,0,3.49,3.45,45.4,45.4,0,0,0,3.92,2.35,62.17,62.17,0,0,1-3.15-8.6C594.69,424.85,594.56,423.69,594.56,423.69Z" style="fill: #d4af3a"/>
    <path d="M622.68,427.09c-.69-2.73-1.12-4.27-1.12-4.27-2.88.21-8.33-2.95-10.69-5.54,0,0,2.15,6.88,4.31,9.56a24.29,24.29,0,0,0,2.45,2.86s-2.15,0-5-4.75a41.61,41.61,0,0,1-4.18-9.84s.65,11.22-.52,17.76-1.42,7.36-1.42,7.36a23.41,23.41,0,0,0,12.93,1.62c6.81-1.29,7.32-2.05,7.32-2.06s.82-.13-.25-2.44A78.05,78.05,0,0,1,622.68,427.09Z" style="fill: #d4af3a"/>
    <path d="M610.31,400.07a30.83,30.83,0,0,1-2.3-4.86,2.7,2.7,0,0,0-.11,2.58,36.67,36.67,0,0,0,5.66,8.26,15.83,15.83,0,0,0,4.08,3.11c0-.21-.07-.43-.1-.64C617.54,408.52,612.41,404,610.31,400.07Z" style="fill: #b96b29"/>
    <path d="M601.48,405.27c0-2.07-.89-1.73-.89-1.73l-1,.46,2,20.79c.23,2.24,1,2.22,1.34,2.2-.75-.73-.89-5-.93-5.63C602,421.36,601.48,407.33,601.48,405.27Z" style="fill: #b96b29"/>
    <path d="M589.15,358.36c-.78-1.3-2.53-2.53-.84.58s3.89,7,4.53,10,1,6.56-.06,5.57-1.88-1.16-3-2.83-3.37-4.51-4.27-5.08-2.53-.54-1.23,1.81a54.48,54.48,0,0,0,5.18,7.83c2.46,3.18,3.89,4.62,5.18,6.23s2.6,3,2.59,3-1.16-11.61-3.3-17.08A67.17,67.17,0,0,0,589.15,358.36Z" style="fill: #b96b29"/>
    <path d="M547.14,539.74a7.76,7.76,0,0,1-3.65,1.72s-1-.27-1,.29,1.14.23,2.34.15,2.83-1.49,3.43-2,1.47-1.13,1.19-2.3S548.71,538.31,547.14,539.74Z" style="fill: #b96b29"/>
    <path d="M560.7,553.13c-.33.49-2.94,2.82-2.94,2.82a7.12,7.12,0,0,1-1.69.92,1.72,1.72,0,0,0-1.09,1s.17.35,1.09.15,3.65-2.43,4.52-3.37,1.25-1.17.93-1.72S561,552.64,560.7,553.13Z" style="fill: #b96b29"/>
    <path d="M505.33,397.63a30.93,30.93,0,0,0-1.46-3.2c-.54-.89-1.35-1.43-.32.57s1.68,3.64,2.16,4.61,1.09,2.25,1.36,1.91-.06-.81-.71-2S505.33,397.63,505.33,397.63Z" style="fill: #b96b29"/>
    <path d="M503.27,413.79a17.08,17.08,0,0,0-1.84-3,17.83,17.83,0,0,0-1.68-1.89s1.19,2.44,1.79,3.34,1.14,1.71,1.78,2.86,1.14,2.34,1.52,1.86S503.87,415,503.27,413.79Z" style="fill: #b96b29"/>
    <path d="M504.89,434.07a42.46,42.46,0,0,1-3-3.24,22.16,22.16,0,0,1-1.9-2.56c-.49-.8-1.06-1.55-1.25-1.34s1.44,3,1.93,3.53a22.56,22.56,0,0,1,2.39,3.63c1,1.77,2.56,2.53,2.78,1.94S505.76,434.86,504.89,434.07Z" style="fill: #b96b29"/>
    <path d="M505.32,450.74c-.87-.24-2.07-.7-2.07-.7s-1.68-1.26-1.79-.8,1.41,1.69,2.07,2a6.88,6.88,0,0,1,1.84,1.13c.39.39.72.21.72-.43S506.19,451,505.32,450.74Z" style="fill: #b96b29"/>
    <path d="M507.39,470.93c-1.85-.34-3.43-1.28-3.54-.9s.87,1.2,1.8,1.85a13.46,13.46,0,0,0,3.86,1.43c1.2.3,1.42-.05,1.36-.94S509.24,471.27,507.39,470.93Z" style="fill: #b96b29"/>
    <path d="M519.92,494.09a11.84,11.84,0,0,1-3.71,0c-1-.26-3.1-.75-3.1-.75l-1.2.18c0,.4,1.58.61,3.87,1.44a10.29,10.29,0,0,0,4.9.38c1.09,0,1.47-.67,1.2-1.13S521,494,519.92,494.09Z" style="fill: #b96b29"/>
    <path d="M527.86,510h0a4.92,4.92,0,0,1-2.83.24,16.43,16.43,0,0,0-2.94,0s-1,0-.82.56.49.1,1.36.1,1.53.3,3,.52a12.08,12.08,0,0,0,3.32-.23c.93-.06,2-.58,1.47-1.55S529,509.6,527.86,510Z" style="fill: #b96b29"/>
    <path d="M539.52,523.39a31.3,31.3,0,0,1-3.16,2.8,7.35,7.35,0,0,1-1.47,1c-1,.52-.93.85-.76,1.28s.76-.4,1.3-.61a17.52,17.52,0,0,0,3.27-2.54c.92-.93,2.12-1.57,1.9-2.4S540.17,522.57,539.52,523.39Z" style="fill: #b96b29"/>
    <path d="M518.33,370.89c-1-1.87-1.15-1.06-.65.08s2.44,5.3,2.44,5.3a45.48,45.48,0,0,0,2.23,4.83c2,4.06.94.39.43-.65S519.33,372.76,518.33,370.89Z" style="fill: #b96b29"/>
    <path d="M510.94,384.06s-.65-2.12-.87-1.95.79,3.5,1.73,5.05,2.15,4.39,2.8,5.66,1,1.87,1.29,1.5-.36-.9-1.51-3.22S510.94,384.06,510.94,384.06Z" style="fill: #b96b29"/>
    <path d="M518.16,428.93l-2.87-1.42s-2.17-1-2.22-.57.43.87,1.62,1.41,3,1.67,4.34,2.25,2.43,1.18,2.43.15S519.19,429.44,518.16,428.93Z" style="fill: #b96b29"/>
    <path d="M519.41,413.26a14,14,0,0,1-1.94-1.94s-.72-.66-1.36-1.31-1.73-1.48-.22.59a29.47,29.47,0,0,0,3.3,3.88c.79.78,1.44,1.85,1.87,1.2S520.7,414.35,519.41,413.26Z" style="fill: #b96b29"/>
    <path d="M528.89,400.51a17.49,17.49,0,0,0-1.73-2.13s-1.15-1.79-1.36-1.31,1.29,2.35,2,3.43,2,4.07,2.65,3.67S529.82,401.84,528.89,400.51Z" style="fill: #b96b29"/>
    <path d="M522.63,447.69l-2.23.45-2.07.4c-.81.16-.87.71.6,1s2.07-.16,3.54-.28,2-.25,1.74-1S523.23,447.57,522.63,447.69Z" style="fill: #b96b29"/>
    <path d="M526.49,463.75a8.73,8.73,0,0,0-2.72,1.79s-1,.52-1.09.9,1,.19,1.8-.05,2.34-1.14,3.27-1.36.92-.46.92-1.25S527.69,463.43,526.49,463.75Z" style="fill: #b96b29"/>
    <path d="M537.76,478.69c-.87.86-2.56,2.28-2.56,2.28a14.23,14.23,0,0,0-1.52.65c-.65.35-1.47,1-1.25,1.51s1.58.31,2.28-.43a32.21,32.21,0,0,1,3.7-2.36h0c1.09-.75,1.31-1.41.93-2S538.63,477.83,537.76,478.69Z" style="fill: #b96b29"/>
    <path d="M546.87,493.68c-1,.9-4.57,3.61-4.57,3.61l-.93.37c-1,.36-.54.85.27.85a2.65,2.65,0,0,0,2.35-.8c1-.91,1.41-1.06,1.85-1.53s1.74-.84,2.34-1.36,1-2.35.49-2.69S547.91,492.77,546.87,493.68Z" style="fill: #b96b29"/>
    <path d="M559,507.92c-.77.88-2.78,3.57-2.78,3.57s-.27,0-1.36,1.08.05,1,.43.56a3.17,3.17,0,0,1,1.58-1.11h0a10.89,10.89,0,0,0,2.94-2.57c.65-.74,1.47-1.69,1-2.34S559.71,507.05,559,507.92Z" style="fill: #b96b29"/>
    <path d="M597.48,314l4.13,3.54L606,313.9l-5.22-3.08Z" style="fill: #d4af3a"/>
    <path d="M615.79,309.28c-2.34-.5-4.23,1.75-4.23,5s1.89,6.36,4.23,6.87,4.22-1.74,4.22-5S618.12,309.79,615.79,309.28Z" style="fill: #b96b29"/>
    <path d="M615.79,310.42c-1.41-.31-2.55,1-2.55,3s1.14,3.8,2.55,4.11,2.55-1,2.55-3S617.19,310.72,615.79,310.42Z" style="fill: #d4af3a"/>
    <path d="M606.28,285.81c-.6-1-.75-1.35-.75-1.35s0,2.37-.08,3.83.43,3.76,1.52,4.59h0a4.82,4.82,0,0,0,2.5.87s.42-2.64-.61-4.2S606.89,286.83,606.28,285.81Z" style="fill: #d4af3a"/>
    <path d="M609.21,295.29c-.43-.09-.78.31-.78.9a1.26,1.26,0,0,0,.78,1.25c.43.09.78-.32.78-.91A1.24,1.24,0,0,0,609.21,295.29Z" style="fill: #d4af3a"/>
    <path d="M605.49,293.63c-1.37-1-1.72-.26-2,.33a15.69,15.69,0,0,1-1,1.51,3.29,3.29,0,0,1,1.56,1.12,4,4,0,0,0,2.45,1.75c.84,0,1.19-1,1-1.89A4.5,4.5,0,0,0,605.49,293.63Z" style="fill: #d4af3a"/>
    <path d="M606.39,301.81h0c-2.65-.23-6.16-5.27-6.16-5.27-.32,3.37-1.78,4.84-4,5l.2.2a18.19,18.19,0,0,0,4.53,3.07,6.43,6.43,0,0,0,3.29.33,9.11,9.11,0,0,0,3.92-1c1.6-1.1,1.13-4.94,1.12-4.94S609.05,302,606.39,301.81Z" style="fill: #d4af3a"/>
    <path d="M592.65,293.15c-.68-.19-1.66-.65-1.49,1.23a3.75,3.75,0,0,0,2.72,3.38,3.19,3.19,0,0,0,2.65-.63c.75-.39.62-.61-.47-1.45S593.34,293.35,592.65,293.15Z" style="fill: #d4af3a"/>
    <path d="M587.75,287.31a8.29,8.29,0,0,0-2.25-2.07,12.17,12.17,0,0,0-.34,4.77c.44,1.94,1.36,2.63,2.49,2.82s2.79-.3,2.31-1.65A12.25,12.25,0,0,0,587.75,287.31Z" style="fill: #d4af3a"/>
    <path d="M588.83,295a.73.73,0,0,0-.91.77,1.23,1.23,0,0,0,.91,1.16.74.74,0,0,0,.92-.77A1.22,1.22,0,0,0,588.83,295Z" style="fill: #d4af3a"/>
    <path d="M603.94,249.75c0,2.44-1.34,4.14-3,3.78a3.06,3.06,0,0,1-1.69-1.15c-1.34.09-5.79,3-6.93,4.16a7,7,0,0,1,.44,2.44c0,2.44-1.33,4.14-3,3.78a2.78,2.78,0,0,1-1.36-.78c-.14.28-.26.56-.38.86a47.38,47.38,0,0,0-2.14,6.67,6.67,6.67,0,0,1,1.28,4.11c0,2.43-1.13,4.17-2.53,3.89a22.43,22.43,0,0,0,0,2.85,4,4,0,0,0,2.21,3.52c1.71,1.08,4,6,4,6,.17,0,1.39-2.92.49-8.21a26.84,26.84,0,0,1,2.7-17.14,16.24,16.24,0,0,1,9.07-8,18.94,18.94,0,0,1,2-3,32.8,32.8,0,0,1,5.58-5.23s-4.34.62-6.81,1.24C603.93,249.62,603.94,249.68,603.94,249.75Z" style="fill: #d4af3a"/>
    <path d="M600.14,248.5a2,2,0,0,0-.24,2.48,1.27,1.27,0,0,0,2,.26,2,2,0,0,0,.23-2.47A1.26,1.26,0,0,0,600.14,248.5Z" style="fill: #d4af3a"/>
    <path d="M588.8,256.42a2.82,2.82,0,0,0-.27,3.11,1.35,1.35,0,0,0,2.29.28,2.8,2.8,0,0,0,.27-3.12A1.35,1.35,0,0,0,588.8,256.42Z" style="fill: #d4af3a"/>
    <path d="M584.21,269.71c-1-.21-1.72.73-1.72,2.09s.77,2.63,1.72,2.83,1.71-.74,1.71-2.1S585.15,269.91,584.21,269.71Z" style="fill: #d4af3a"/>
    <path d="M621.22,245.41a14,14,0,0,0-5,1.86h0a4.36,4.36,0,0,1,3,4.33c0,2.07-1.56,4-3.27,3.61s-2.87-2.8-2.87-4.87a4.09,4.09,0,0,1,.21-1.34c-.73.5-1.51,1.06-2.34,1.7-5.45,4.18-6.74,6.5-9.43,13.26s-3.68,14.59-2.52,19.59a10.47,10.47,0,0,0,5.52,6.92,5.77,5.77,0,0,1-.55-1.73,18.18,18.18,0,0,1,.3-3.07,27.92,27.92,0,0,0,.06-3.92A1.93,1.93,0,0,1,606,282.9c.55,1.1,1.35,2.44,1.9,3.54s2,3.31,2,3.31a8.75,8.75,0,0,0,.86-3.76c0-2.14-1-4.68-1.17-8.48a31,31,0,0,1,3.68-14.6,25.57,25.57,0,0,1,8.64-8.5,3.38,3.38,0,0,0,1.72-3c.06-.88.18-1.48.3-3.7S622.63,245.27,621.22,245.41Z" style="fill: #d4af3a"/>
    <path d="M615.93,248.26c-1-.21-1.75.57-1.75,1.73s.66,2.52,1.63,2.74,1.84-.87,1.84-2A2.45,2.45,0,0,0,615.93,248.26Z" style="fill: #d4af3a"/>
    <path d="M624.7,297.36c-.76.45-2.48,1.85-2.48,1.85a5.57,5.57,0,0,0,1.7,2.08,3,3,0,0,0,3.5.42,2.76,2.76,0,0,0,.1-3.4A2.2,2.2,0,0,0,624.7,297.36Z" style="fill: #d4af3a"/>
    <path d="M628.13,304.36h0c-.47,1-.83,1.54-2.29,1.31a5.15,5.15,0,0,1-4-2.31,20.23,20.23,0,0,1-1.62-3.7l-1.65-.4s-.54,3.23-1.27,4-3.27.36-4.38-1.09-2.13-3.16-2.32-3,0,1.39,1.15,3.08,1.93,2.75,3.77,3.15L626,307.66s2.13.64,2.73-1.08.63-2.88.35-3.41S628.61,303.39,628.13,304.36Z" style="fill: #d4af3a"/>
    <path d="M611.76,293.7c-.72,0-.83.1-.83.1s-.3,2.88,1.27,4.5h0c1.57,1.62,2.44,1,3,.13a5,5,0,0,0,.68-1.34,22,22,0,0,1-2.2-1.88C613,294.43,612.48,293.73,611.76,293.7Z" style="fill: #d4af3a"/>
    <path d="M604.62,269c-1.93-.42-3.49,1.5-3.49,4.3s1.56,5.39,3.49,5.81,3.5-1.51,3.5-4.3S606.55,269.42,604.62,269Z" style="fill: #b96b29"/>
    <path d="M610.69,257.85a2.68,2.68,0,0,0-4.59.23,5.74,5.74,0,0,0,.48,6.32,2.67,2.67,0,0,0,4.59-.23A5.75,5.75,0,0,0,610.69,257.85Z" style="fill: #b96b29"/>
    <path d="M604.49,270.55c-1.13-.24-2,.83-2,2.39s.9,3,2,3.26,2-.82,2-2.38S605.61,270.8,604.49,270.55Z" style="fill: #d4af3a"/>
    <path d="M609.23,258.09a1.72,1.72,0,0,0-2.48.91,2.37,2.37,0,0,0,1.23,3C610.18,263.15,611.23,259.33,609.23,258.09Z" style="fill: #d4af3a"/>
    <path d="M546.64,644.8a43.43,43.43,0,0,1-6.39,5.94,16.15,16.15,0,0,1-9.34,2.88c-4.22-.17-15.8-2.6-21-3.84s-8.43,0-10.67,3.24a12.07,12.07,0,0,0,.07,13c2.83,4.57,6,3.12,7,.81s.53-5.59.07-7.12.92-1.76,2.37-1.59a28.36,28.36,0,0,1,6.12,1.82,32.09,32.09,0,0,1,7.9,5.28c1.71,1.68.73,1.68-.46,1.16a26.81,26.81,0,0,1-4.61-3,16.56,16.56,0,0,0-5.2-2.82c-1.31-.34-.86.8-.59,1.53s1,2.5,1.18,3.31a14.74,14.74,0,0,1-.39,3.58l.66,2a24.65,24.65,0,0,0,1.05-2.6c.26-.91-.07-2.81.2-3.62s1.38-.61,2.24,1a18.7,18.7,0,0,1,2.3,7.28,14.88,14.88,0,0,1-.4,6.2,9.16,9.16,0,0,1,1.26,2.35,24.52,24.52,0,0,1-.27,4.3s.73.81,1.39-1.09a55.44,55.44,0,0,0,1.64-6.53c.2-1.21.79-3.41,1.84-1.47a20.39,20.39,0,0,1,2,5.3,12.87,12.87,0,0,1,.19,2,30,30,0,0,0,3.16-4.69,23.82,23.82,0,0,1,4.68-6.6c2.24-2.25,6.12-6.88,8-8.33s6.78-4.31,8.29-5.35,1.78-1.08,2-4.79,1.51-6.82,2.1-9.31.71-3.39.71-3.41c-.18.09-5.41,2.65-7.09,3A6.93,6.93,0,0,1,546.64,644.8Z" style="fill: #d4af3a"/>
    <path d="M555.84,641.58Z" style="fill: #d4af3a"/>
    <path d="M469.53,484.14c0-.65-.92-3-1.14-4.23s-1-.62-1-.62a12.6,12.6,0,0,1-3,1.46c-1.27.31-1.45-.42-1.58-1.4s-.44-4.06-.66-6.22-.52-2.07-1-1.83-2.11.83-3.2,1.37-.75,1.36-.4,2.31,1.63,4.94,2.2,6.38,0,1.94-.62,2.29-1.62.39-2.94.83-1.23.91-1.1,1.57,1,3.43,1.49,4.72.93.53.92.53A12.73,12.73,0,0,1,460,489c1.19-.64,1.28-.38,1.58,1s1.67,8.3,1.93,9.62.71,1.27,1.32,1A18.73,18.73,0,0,1,467,500c.7-.2,1-2.22,1-2.22s-2.59-7.22-3.29-9.07,0-2.13.52-2.17a32.39,32.39,0,0,0,3.38-.36c1.3-.28.95-1.43.91-2.09Z" style="fill: #d4af3a"/>
    <path d="M498.78,674.25c-.19-1.67,0-3.28-.85-4.68a21.89,21.89,0,0,1-2.31-6.2c-.39-2.1.33-2.93.2-4.11s-1.19-1.37-2.24-.3-2.43,2-2.43,5.64.92,8.16,4.41,10.32,3.42,1,3.23-.65Z" style="fill: #d4af3a"/>
    <path d="M504.43,677.58a5.7,5.7,0,0,1-.39-2.67c0-1.53-1.72-1.75-1.72-1.75v0s-.73-.8-1.06.1-.26,1.4.66,3.69a10.61,10.61,0,0,0,2.57,4c1.05,1.16.33-.9.2-1.51A8.7,8.7,0,0,0,504.43,677.58Z" style="fill: #d4af3a"/>
    <path d="M514.76,678c-1.25-.62-2.37-.83-2.76,0a4.15,4.15,0,0,1-2.51,2.23c-1.38.42-1.58,1.06-2.43,1.28s-.2,1.13-.92,1.86-1.71-.32-2.83-1a6.85,6.85,0,0,0-2.44-1.32c-1.25-.32-4.54-1.2-4.54-1.2a2.13,2.13,0,0,0-.86-.25c-.72-.13-.79.05-1.11,1.15a10.64,10.64,0,0,0,.85,5.65c.79,1.58,3.36,2.72,5.07,3.8a27.35,27.35,0,0,0,4,2.18c1.49.65,1.69.28,2.34-1h0c.66-1.33,1.25-1.6,2.83-2.36a13,13,0,0,1,5.46-.71c1,.09,3.23-2.28,2.9-5.24S516,678.59,514.76,678Z" style="fill: #d4af3a"/>
    <path d="M519.64,689.21c-1-.19-1.51-.29-2,.28a5.38,5.38,0,0,1-2.7,1.8,45.14,45.14,0,0,0-4.54,1.75c-2,.78-2.57,2.6-3.42,3.22s-2.5-.46-2.5-.46-1.19-.7-1.59-.29,0,1.44.79,2.84,2.31,1.58,4,2.67,2,.57,2.7,0,1.18-1.89,2.37-2.73,3.75-.55,5-.5,3.53-.1,4.9-1.19h0c1.39-1.08.6-3.55.27-5.06S520.63,689.4,519.64,689.21Z" style="fill: #d4af3a"/>
    <path d="M523.86,680.38s-1,4.25-1.45,5.32a1.7,1.7,0,0,0,.21,2.16h0c.6.89,1.26,2.08,1.78.92s1.38-3.58.79-5.24S523.86,680.38,523.86,680.38Z" style="fill: #d4af3a"/>
    <path d="M516.08,667.7a26.11,26.11,0,0,1-1.11,4.13,12.15,12.15,0,0,1-1.45,2.81,13.48,13.48,0,0,0,2.37,1.12c.65.12,1.4.29,1.4-2.21l0,0A21.25,21.25,0,0,0,516.08,667.7Z" style="fill: #d4af3a"/>
    <path d="M509.38,667l-1-.19a13.93,13.93,0,0,1-1.25,3.53c-.72,1.12-1.57,1.83-1.51,3.48s-.08,3.32,1.77,3.09v0a5.69,5.69,0,0,0,3.62-1.92,5.81,5.81,0,0,0,.72-4.78C511.23,668.82,509.91,667.13,509.38,667Z" style="fill: #d4af3a"/>
    <path d="M509.3,660.17s-.13,1.91-.26,2.94a7.62,7.62,0,0,1-.2,1.22,6.31,6.31,0,0,0,1,1.25c.45.34,1.24,1.09,1.3-.16h0a6.83,6.83,0,0,0-.86-3.63Z" style="fill: #d4af3a"/>
    <path d="M473.45,524.18A108.1,108.1,0,0,1,471,504.62c0-4.46,1.3-6.54,1.3-6.54a2.25,2.25,0,0,0,.05-2c-.52-.85-1.35-.28-2.17.79a14.1,14.1,0,0,0-2.05,4.69,11.7,11.7,0,0,0-.34,2.11,11.19,11.19,0,0,0-4.3-.94c-2.65-.1-3.91,0-4,.84s.35,1.52,2.26,3,3.13,2.2,4.08,4,3.4,10.51,4.15,14.64,2.34,15.28,3,23.92a140.49,140.49,0,0,0,5.38,28.42c.9,3,5.84,17.29,10,15.31v0q.62-5.58,1.24-11.15c-.93-11.52-5-23-8.19-30.95A204,204,0,0,1,473.45,524.18Z" style="fill: #d4af3a"/>
    <path d="M499.42,621.83c-2.91-7.57-4.39-9.21-6.18-8.07h0c-1.8,1.15-1.73,11.92-.93,17.63s4.53,13.32,5.67,15.38,1.4,2.11,2,1.73.87-.32.87-.32a8.11,8.11,0,0,0,2.8-1.64c1.2-1.15.74-4.66.54-7.73S502.35,629.39,499.42,621.83Z" style="fill: #d4af3a"/>
    <path d="M490.72,598.46a2.9,2.9,0,0,0-2.75.75c-2.43,2.78-1,11,2.55,11.64a3.74,3.74,0,0,0,3.68-1c.82-1,1-2.81,1-4.48h0C495.2,601.91,493.12,598.89,490.72,598.46Z" style="fill: #d4af3a"/>
    <path d="M530,713h0c-1-.43-1.53-1.11-2.94-2.79s-3.67-5-4.07-6.49-.4-1.56-1.75-1.16-3.28,0-4.74-.24.16,2.5,1.18,4.93.68,9.86.68,9.86a8.59,8.59,0,0,1-.23,1.69,2.22,2.22,0,0,0,.34,2.13c.4.32.62-.13,1.64-1.67a59.91,59.91,0,0,0,2.88-5.71s.28.13,1.86,1a8.88,8.88,0,0,0,5.43.73C531.63,715,531,713.43,530,713Z" style="fill: #d4af3a"/>
    <path d="M524,717.62h0c-.67-.3-1-.43-1.3.16a13.32,13.32,0,0,0-.79,2.41,2.06,2.06,0,0,0,.29,1.79c.39.57,1,1.26,1,1.26a7.38,7.38,0,0,0,1.13,1.53c.57.53.68-.69.68-1.6s.33-2.49.33-3.56A2,2,0,0,0,524,717.62Z" style="fill: #d4af3a"/>
    <path d="M780.82,697.76h0a6.58,6.58,0,0,1-2.36-1.89s-.7-.24-1.26,1.16a9.46,9.46,0,0,1-2.66,3,4.43,4.43,0,0,0-3.38,3.55c-.39,2.91,1,4.19,2.43,4.09s4.87-.54,6.36-2.93a15.93,15.93,0,0,0,2-4.82C782.3,698.93,782.47,698.62,780.82,697.76Z" style="fill: #1d5e91"/>
    <path d="M785.47,674.77c-1.07-6.81-4-15.48-9.65-20.55,0,0-2.12,10.53-2.75,13.86s-.63,3.22,1.17,4.22,7.62,3.82,8.8,4.47,3.15,2.45,2.44-2Z" style="fill: #1d5e91"/>
    <path d="M751.87,647.19c-5.19,2.71-7.46,9-7.46,9a33.61,33.61,0,0,0,4.87,2.87c3.54,1.78,7.93,4.2,9.27,4.78v0c1.33.59,1.18-.24,1.65-2.79s2.82-15.2,2.82-15.2S757.05,644.49,751.87,647.19Z" style="fill: #1d5e91"/>
    <path d="M744.68,679.32h0a26.89,26.89,0,0,1-2.9-1.47s1.33,7.71,3.53,12.25,4.63,7.08,9.19,8,8-2.1,8.55-4.86a22.44,22.44,0,0,1,1.5-4.78s-8.25-3.1-11.63-4.87S746.8,680.29,744.68,679.32Z" style="fill: #1d5e91"/>
    <path d="M784,679c-1.89-1-10.6-5.35-12.18-6.21s-1.25-2.28-1-3.84,3.69-17.14,3.69-17.14a24.45,24.45,0,0,0-10.05-6s-2.51,16.06-3,18.5-1.57,2.24-3.38,1.45-14.84-7.68-14.84-7.69l-1,3.36a38.36,38.36,0,0,0-1.49,9.69c0,2.17.53,2.23,2.56,3.27l0,0c2.05,1.1,18.85,8.9,20.26,9.59s2.59,1.38,3,.87.63-.8,2.12-1.34,1.42-2.73,1.42-2.73.39-2,.55-4,.94-2.58,2.59.23,2,6.52,2.27,10.14,4.17,5.18,5.66,5.77,2.19,0,3.06-1.89,1.34-6,1.57-8.57S785.86,680,784,679Z" style="fill: #d4af3a"/>
    <path d="M787.89,697.26v-.07c-1.73-1.93-3-2.58-3.9.35s-1,7.43-3.24,10.23-5.41,5.57-8.57,4.69-5-2.3-4.21-7.45,5.57-6,6.69-8.5a8.57,8.57,0,0,0-.83-8.17c-1.65-2.38-4.06-3.24-4.73-2.69a12.53,12.53,0,0,0-3.61,6.39c-1,3.78-1.58,6.87-3.68,9s-7.52,3.69-11.73,1.47-5.71-4.37-7.29-10.72-3.46-16.71-4.29-18-1.87-2.34-3.68-.82-2,4.23-2.18,6.39a14.19,14.19,0,0,0,1.8,8.27c1.81,3.54,3.69,7.09,4.37,10.51s2.7,8.88-.15,8.55-4.14-.47-6.32-4-10.67-13.65-13-16.87-3.31-4.29-3.31-4.29c-3.93-.9-7.87-4.06-11.8-8.79,0,0,2.26,8.93,2.7,12.21a30.38,30.38,0,0,1,.38,5s8.57,8.13,12,11.23,10.23,10.17,13.53,13.77,6.09,8.78,12,8.13,17.74-3.74,21.58-4.72,14.43-3,18.34-6.3,4.29-3,5-6.88S789.62,699.22,787.89,697.26Z" style="fill: #d4af3a"/>
    <path d="M777.7,633.87c-.78-.13-1.91-.32-3.21-.61s-.48-2-.48-2,1-2.12,1.69-3.71.48-1.89-.26-2.34-3-1.61-3.69-2-1-.3-1,.34-.09,3.92-.09,5.2-.08,2-1.21,1.88-1.83-1.22-2.74-2.84-1.3-1.12-1.39-.56-.83,4.62-1,5.73.21,1.11.86,1.08l0,0c.65,0,.92-.09,2.91-.11s1.26,2.63.92,3.65-1,3.07-1.78,5,.26,2.4.82,2.82,1.39.69,3,1.61,1.3-.86,1.35-1.74.13-5.51.3-7.13,1.22-1,1.61-.61,1.39,1.38,2.22,2.15,1.21.15,1.39-.52.56-1.87.91-3.66S778.49,634,777.7,633.87Z" style="fill: #d4af3a"/>
    <path d="M772.28,678.16l-.69-1.24,0,0a41.43,41.43,0,0,1-.31,4.42c-.24,1.11-.79,2.73.16,3.35s1.8,1.35,2.35,1.21.31-1.78,0-3.2A17.83,17.83,0,0,0,772.28,678.16Z" style="fill: #d4af3a"/>
    <path d="M785.4,692.54h0Z" style="fill: #d4af3a"/>
    <path d="M785.87,688.48c-.41,2-.79,3-.47,4a2.74,2.74,0,0,0,1.41,1.72c.47.31,1.1.41,1.1-.85a9.64,9.64,0,0,0-.55-4.33C786.66,687.58,786.28,686.51,785.87,688.48Z" style="fill: #d4af3a"/>
    <path d="M738.59,664.07c-.39.83-1.49.85-1.88,3.42s.15,2.76.55,3v0c.39.19,1.88,1.16,1.88,1.16a46.44,46.44,0,0,1,.31-5.33c.32-2.11.95-3.48.4-3.59S739,663.22,738.59,664.07Z" style="fill: #d4af3a"/>
    <path d="M746.69,662.26c-1.69-.31-3.07,1.43-3.07,3.9s1.38,4.73,3.07,5.05,3.06-1.43,3.06-3.9S748.38,662.58,746.69,662.26Z" style="fill: #b96b29"/>
    <path d="M755.31,666.86c-1.73-.32-3.14,1.48-3.14,4s1.41,4.85,3.14,5.16,3.14-1.47,3.14-4S757,667.18,755.31,666.86Z" style="fill: #b96b29"/>
    <path d="M780.45,679.09c-1.73-.29-3.14,1.52-3.14,4.06s1.41,4.82,3.14,5.12,3.14-1.53,3.14-4.06S782.19,679.38,780.45,679.09Z" style="fill: #b96b29"/>
    <path d="M764,671.42c-1.73-.31-3.14,1.49-3.14,4s1.41,4.84,3.14,5.16,3.15-1.5,3.15-4S765.69,671.73,764,671.42Z" style="fill: #b96b29"/>
    <path d="M766.24,660.81c-1.74-.3-3.14,1.5-3.14,4s1.4,4.84,3.14,5.15,3.14-1.5,3.14-4S768,661.12,766.24,660.81Z" style="fill: #b96b29"/>
    <path d="M768.44,650.19c-1.73-.3-3.14,1.5-3.14,4s1.41,4.83,3.14,5.14,3.14-1.5,3.14-4S770.18,650.5,768.44,650.19Z" style="fill: #b96b29"/>
    <path d="M746.9,664.11c-.84-.16-1.53.71-1.53,1.95a2.49,2.49,0,0,0,1.53,2.52c.85.16,1.53-.71,1.53-2A2.47,2.47,0,0,0,746.9,664.11Z" style="fill: #d4af3a"/>
    <path d="M755.55,668.74c-.87-.16-1.57.74-1.57,2s.7,2.43,1.57,2.59,1.57-.74,1.57-2A2.52,2.52,0,0,0,755.55,668.74Z" style="fill: #d4af3a"/>
    <path d="M780.69,681c-.87-.15-1.57.76-1.57,2s.7,2.41,1.57,2.56,1.57-.76,1.57-2S781.55,681.11,780.69,681Z" style="fill: #d4af3a"/>
    <path d="M764.19,673.3c-.87-.16-1.57.74-1.57,2s.7,2.42,1.57,2.57,1.57-.75,1.57-2S765.06,673.45,764.19,673.3Z" style="fill: #d4af3a"/>
    <path d="M766.47,662.69c-.86-.15-1.57.75-1.57,2a2.53,2.53,0,0,0,1.57,2.57c.87.15,1.57-.75,1.57-2A2.52,2.52,0,0,0,766.47,662.69Z" style="fill: #d4af3a"/>
    <path d="M768.68,652.07c-.87-.15-1.57.75-1.57,2s.7,2.42,1.57,2.57,1.57-.75,1.57-2S769.55,652.22,768.68,652.07Z" style="fill: #d4af3a"/>
    <path d="M687,742.25c-2.37-1.71-5.52-5.7-8.39-9.47s-6.9-8.83-8.4-12.95-2.54-7.58-2.54-7.58l-.6,3.42s-1,.68-3.43-1.71a30.79,30.79,0,0,1-4-4.91,21.88,21.88,0,0,0-.39,6.23,76.7,76.7,0,0,1,.28,8c-.06,1.45-.66,2.77-1.38,2.62l-1.33-.29a28.67,28.67,0,0,0,5.14,8.79c3.75,4.45,5.19,6.46,6.85,8.36s4.58,6.15,10.71,5.84,8.5-3.29,8.5-3.29S689.36,744,687,742.25Z" style="fill: #d4af3a"/>
    <path d="M672.17,749.61a56,56,0,0,1-5.58-7.1c-1.6-2.28-4-5.07-6.13-7.47a22.53,22.53,0,0,1-4-7.09,26,26,0,0,1-1.1-3.39,5.67,5.67,0,0,1-2.71-2.36,27.23,27.23,0,0,0-1.54-2.69s.39,8.74.11,11c-.43,3.38-1.73,4.3-3.92,4.16h0s3,8.17,7.07,12.86,9.66,12.28,13.58,14.58a20.1,20.1,0,0,0,6.63,2.8c2.43.76,3-.58,2.26-5.27A17.68,17.68,0,0,0,672.17,749.61Z" style="fill: #d4af3a"/>
    <path d="M655.39,750.5a45.7,45.7,0,0,1-7.46-10.76c-1.87-3.88-2-5.69-2-5.69s-2.27-1.46-3.59-5.88-1.88-6.71-1.88-6.71-1.16,6.62-1.77,10a19.62,19.62,0,0,1-2.26,6.06s2.43,13.71,9.83,21.14,12.75,9.81,14.63,11.59,3.2,4.16,4.14,2.51.78-6-1.21-10.53S658.21,753.53,655.39,750.5Z" style="fill: #d4af3a"/>
    <path d="M642.79,756a36.14,36.14,0,0,1-4.75-9.45c-1.32-3.77-2.54-7.75-2.54-7.75a31.14,31.14,0,0,1-2.92,4.86,22.27,22.27,0,0,1-1.72,1.57s.34,10.91,2.38,15.8,5.8,10.09,8.5,14.07,3.21,4.66,4.75,7.18,3,3.74,4.09,1.29,1.93-10.17.33-14.48S645.55,760.28,642.79,756Z" style="fill: #d4af3a"/>
    <path d="M656.21,667.84a49.41,49.41,0,0,0-3.68-6.81,42.23,42.23,0,0,0,1.7,4.65c1,2.21,2.22,6.41,3.3,9.89s1.32,3.12.86.33A41.11,41.11,0,0,0,656.21,667.84Z" style="fill: #b96b29"/>
    <path d="M646.19,670.09c-.24.09.19,2.25.19,2.25s.24,1.48.66,3.71,2.65,8.65,2.88,8.49-.89-5.5-1.65-9.19S646.42,670,646.19,670.09Z" style="fill: #b96b29"/>
    <path d="M638.44,677.76c-.71-2.22-1-1.32-1-.49s.85,5,.85,5,0,.07.47,1.69,1,3.61,1.28,3.39-.57-3.51-.71-4.44A26.06,26.06,0,0,0,638.44,677.76Z" style="fill: #b96b29"/>
    <path d="M669.86,732.68c-.72-1.53-1.77-2.32-2.71-4s-1.6-3.09-1.6-3.09l-1.11.73s1.77,3.46,3.1,5.44a31.93,31.93,0,0,0,3.86,5.28,12.06,12.06,0,0,0,2.54,2.4s1.16,1.22,1.49.89-.33-.88-2-2.54A17.45,17.45,0,0,1,669.86,732.68Z" style="fill: #b96b29"/>
    <path d="M666.36,751.28c-1-1-3-3.08-4-4.34s-1.71-2.15-2.65-3.56-3-4.69-3.7-5.74-1.27-1.24-1.71-.69.38,1.54,1.16,2.92a53,53,0,0,0,3.92,5.94,23.34,23.34,0,0,0,2.21,2.42s2.37,2,3.2,2.63a17,17,0,0,1,1.6,1.32S667.36,752.3,666.36,751.28Z" style="fill: #b96b29"/>
    <path d="M655.22,758.5a34.64,34.64,0,0,1-3.87-3.75c-1.43-1.76-3.92-6.27-5-7.15s-1.82-1.61-1.16.47,2,3.5,3.48,5.69,2.42,3.44,3.09,3.66a7.34,7.34,0,0,1,1.38.71s1.71,1.83,2.21,2.26,1,.54,1,.14S656.43,759.66,655.22,758.5Z" style="fill: #b96b29"/>
    <path d="M640.37,760.85c-1.82-2-3.76-6.56-3.76-6.56a5.33,5.33,0,0,0,.11,2.78,20.93,20.93,0,0,0,3.48,6.58c1.16,1.3,4.31,6.51,4.31,6.51s.83,1.64,1.21,2.69,1.28,2.06,1.55,1.72-.27-2.16-1.11-4.77S642.19,762.87,640.37,760.85Z" style="fill: #b96b29"/>
    <path d="M719.81,388.36c-2.28.44-4.58-.2-7.42-1.9-4-2.37-7.66-4.18-12.44-4.58A19.4,19.4,0,0,0,689,384.42c-1.66,1.08-1.15,2.35.64,4.25s3.05.62,3.05.62,4.2-4.07,9.56-2.45c5.57,1.67,12.13,9,18.83,8.35,2-.2,4.07-1.73,5.62-4.5,3.22-5.77.07-12.3.07-12.3C725.88,383.73,723.23,387.72,719.81,388.36Z" style="fill: #c52126"/>
    <path d="M713.36,670.47a12.77,12.77,0,0,1-3.49.83c-.92,0-1.58,0-1.58,0h0s1.84,4.14,4.61,4.7l8,1.6a82,82,0,0,1-5.4-6.19A1.62,1.62,0,0,0,713.36,670.47Z" style="fill: #d4af3a"/>
    <path d="M713,660.31c-2.12-1.21-7.8-5.86-7.8-5.86s-2.76,1.6-4.29,2.6a11.31,11.31,0,0,1-6.95,2.37c-3.34-.08-4.35-.07-4.51.06s.8,1.49,2.07,4.39,1.8,4.73,3.39,9-.26,1.57-1.59-1.19c-.74-1.55-2.42-5.21-4-7.89a24.36,24.36,0,0,0-2.44-3.48l-1.07,3.12v1.16c0,1.09-.63,6.31-.84,8.44s.37,2.26,1.54,3.28,3.5,3.46,9.75,10.51,8.6,11.33,8.6,11.33.21-2.44.21-4.92a59.35,59.35,0,0,0-1.43-13.5c-1.38-6-2.82-10-4.09-12.19s2-1.61,3.87-1.22a10.07,10.07,0,0,0,6-1.16c1-.73,2.76-.84,4.82-1.89S715.14,661.52,713,660.31Z" style="fill: #d4af3a"/>
    <path d="M703.65,645.3s-9.84-6.1-14.76-15.19a50.23,50.23,0,0,1-5.43-15.26,39.63,39.63,0,0,1-6.32,7.47,44.93,44.93,0,0,0,1,4.88,38.93,38.93,0,0,0,3.16,6.89,20.46,20.46,0,0,1-4.26-4.66,30.74,30.74,0,0,1-2.13-5.22,50.71,50.71,0,0,1-9.63,6c.37.5.82,1.15,1.33,1.92A46.06,46.06,0,0,1,670.9,641c1.69,4.33.15,3.67-1.39-.3a34.61,34.61,0,0,0-6.1-9.25,1.14,1.14,0,0,0-.28-.21l-1.17.52h0c-2.07.91-4.05,1.69-5.91,2.45a67.64,67.64,0,0,1,5.16,8.89c1.1,2.59,3.38,5.23,4.19,7s1.69,3.8,2.79,6,7.7,14.42,9.47,18.86.73-.91.29-3.8-1.1-7-1.69-10.22.66-1.68.88.08.51,1.93,1,5.37,1.84,8.64,2.42,12.2.81,2,1.4.51a49.13,49.13,0,0,0,1.83-5.73,69.77,69.77,0,0,0,.74-11.31c.07-5.88-1.91-8.66-1.91-9.52s1-1.4,2.42-.66,2,1.4,4.11,1.83,2.94-.35,5.07.1,3.59-.32,7-2.29.14-1.9-2.28-2.08-8.74-2.9-11.45-5-.74-1.87,0-1.39,1.1.87,6.53,3.4,7.42,1.12,10.21.62S703.65,645.3,703.65,645.3Z" style="fill: #d4af3a"/>
    <path d="M770.89,465.86c-1.23,1.07-7.47,5.87-9.14,7.24s-4.21,3.22-4.48,2.27,2.9-3.07,5.45-7.1,8.69-11.17,8.78-19.26-1.58-9.39-2.72-7.54-6.33,8.26-8.43,10.83-5.18,6-5.62,5.26,2.55-4.15,5.53-8.36,6.32-9,7-18.27c.5-6.64-.66-9.31-1.38-10.5-.31-.5-.72-.81-1,0a86.24,86.24,0,0,1-5,10.85c-2.19,3.45-5.53,8.11-7.55,10.81s-2.64,3.75-3,3.3,1.85-4.66,3.52-7.31A66.06,66.06,0,0,0,761.05,422c2.64-8,.44-20.86-.7-22.35s-1.32-.88-1.76.07-3.77,11.64-6.06,16-5,10.11-6.41,12.54-2.46,5.31-2.9,4.84.27-2.77,2.81-8.33,7-16,7.21-21.9a72.37,72.37,0,0,0-2.2-20.57c-2-7.82-2.89-8.51-2.89-8.51s-.88-1.7-1.32,1.43-2.55,15.32-5.8,24.46a137,137,0,0,1-7.46,18.08c-2.9,5.86-5.45,9.85-5.45,11.65s-.53,4.14.7,3.35,5.19-3.73,9-1.21,3.87,5.36,4.31,6.86a17.85,17.85,0,0,1-.18,7.16c-.53,1.57-.44,2.1.09,2.84s1.84-.16,3.33.12a7.58,7.58,0,0,1,6,4.07c1.67,3.27,1.4,7.33.7,10.54a7.66,7.66,0,0,1-2.37,4.44,16.79,16.79,0,0,1,3.6,2.72c1,1.21,2.28,3.37,2.28,7.61s-3.6,7.17-4.92,8.09a14.62,14.62,0,0,1-1.93,1.18s3.25,1.37,3.16,8.55-3.42,8.48-4.74,9.38-2.63.92-2.63,1.82,1.84,3.3,2,5.78.53,8.71-3.42,10.91-5.09,2.1-5.18,3.63-.79,5.88-2.72,7.82a9.15,9.15,0,0,1-4.22,2.51,3.54,3.54,0,0,0-2.28,2.64c-.27,1.49-.27,5.34-3.08,7.61a9.17,9.17,0,0,1-6.93,2.09c-1.06-.22-3.16-2.06-3.25-.15s.35,5.86-1.94,9.37-5.44,4-6.93,3.86a7.79,7.79,0,0,1-3.6-1.78c-1.06-.73-1.94-.91-2.55.89s-1.67,5.18-4.31,6.17a11.35,11.35,0,0,1-4.5.65,79.61,79.61,0,0,1,.36,15.3,19,19,0,0,0,2.91,4.6c4.75,5.88,9.93,8.1,14.32,7.46s4-4.08,4-5.75-.18-3.5-1.84-4.48-5-5.13-6.06-6.51-1.14-1.78-.79-2.34,1.14,0,3.24,2.2,8.7,6.4,13.62,7.13,7.37-1.37,6.41-4.77-1.23-3.45-3.95-5a16.09,16.09,0,0,1-5.36-5.44c-.53-1-1-1.73-.53-2.29s1.76.35,4.22,2.51a11.66,11.66,0,0,0,10.45,1.94c3.25-1.17,3.69-2.62,3.16-4.39s-1.32-2.82-4-4.77-4.92-3.93-4.65-4.9,4.3,1.24,6.93,2,9,2,11.51-.23,3.69-5.72,2.19-7.8-3.51-2.47-6.14-3.61-4.4-1.87-4.22-3.12,1.49-.87,6.76.65,8.79,1.26,11.51-.94,3.42-5.92,3-7.28-2.46-3.66-5.8-4.79-4.3-1.19-4.74-2.17-.35-1.22,1.75-1.47,7.12,0,11.59-3.53,4.4-6.14,4.4-8.07-1.58-3.23-4.57-3.77-6.24-1.65-7-1.8-1.14-.34-1.23-1.12.44-1,4-1.21,7.2-1.64,10.45-6.33,2.81-11.32,2.81-11.32,0-2.31-2.2-1.8a35.8,35.8,0,0,0-7.82,3c-2.54,1.34-4.39,2.15-4.65,1.21s4.13-3.62,6.85-5.95a28.68,28.68,0,0,0,8.87-15.12C772.73,467.34,772.11,464.79,770.89,465.86Z" style="fill: #d4af3a"/>
    <path d="M750.9,470.22a7.75,7.75,0,0,0-5.65-1.06c-1,.3-1.59.86-2.15.09s.33-2.09,2.6-3.31,5.77-4.38,5.43-8.74-1.59-6.09-5.09-7.25-5.89,2.19-6.9,3-4.08,3.19-4.64,1.92,1.13-3.26,3.16-6,4.3-8.94,2-13.17-5.2-4.48-8.82-2.87-4,4-4.87,2.84,0-4.63,0-8.1a20.24,20.24,0,0,0-1.81-7.31s-4.86,13.76-11.08,22.92-12.44,17.14-12.22,24.63,2.94,12.85,8.94,18.38,7.69,12.64,6.22,18.31-4.19,9.24-10.07,7.87-9.28-.93-11.54,3.4-5.2,5.52-7.46,5.21h0l-1.49-.2c.07,3.28.26,6.82.59,10.6.49,5.57,1,10.2,1.56,14.17a6.13,6.13,0,0,0,.61,1.16,4.54,4.54,0,0,1,1.14,2.49,10.08,10.08,0,0,0,1.27,2.91c.4.82,2,2.33,1.63,2.6s-.86-.58-1.45-1.3-.64-1.06-1-1.15-.28-.38-.28-.78-.09-1.41-.54-1.5l-.71-.15c.94,6,1.86,10.33,2.56,14.35a5.72,5.72,0,0,0,6.22-.55c3.39-2.77,2.15-8,1.58-9.27s-.9-2.33-.22-2.69,1.47,0,2.26,1.29,5.09,8.17,9.84,6.5,3.51-8.72,2.83-11.18-1.7-5.31-1-6.15,1.81-.13,2.71,1.2,6.11,4.38,9.28,2.19,3.73-6.7,2.15-9.82-5.32-4.54-4.41-6.34,2.71,1.7,4.07,2.63,4.64,2.58,7.92.56a5.38,5.38,0,0,0,1.47-8.15c-1.92-2.36-4.07-4.11-2.94-5.54s2.48.65,3.62,1.2,5,1.79,7.35-.9,2.26-4.38,1.7-8.12-3.62-4.83-5.21-5.79-2.15-1.58-1.92-2.69,1.24-.25,4.07-.37,7.92-2.81,8.37-6-.45-7.69-3.5-8.43-5.55-1.22-5.43-2.52.67-.7,1.8-.81,6.79-.7,9.51-4.67S752.71,471.55,750.9,470.22Z" style="fill: #d4af3a"/>
    <path d="M787.44,378.64c-.79,6-5.35,25.93-7.44,33.84S773.86,428,772,432c-.59,1.25-1.43,2.56-2,3.8-1.25,2.73-2.07,5.05-2.07,5.05s.51.2,1.11-.84,1.1-1.75,1.79-1.36,1.65,5.72,1.65,5.72a78,78,0,0,0,5.15-9.71c2.39-5.44,5.47-15.93,5.47-15.93s-1.75,10.72-5.05,17.61-5.11,9.92-5.11,9.92a23,23,0,0,1-.09,5.43c-.41,2.47-1.35,6-1.35,6s7.14-7.16,12.19-21.26h0a127.67,127.67,0,0,0,7.34-35,78.94,78.94,0,0,0-1.19-20.62C789,376.14,788.23,372.68,787.44,378.64Z" style="fill: #d4af3a"/>
    <path d="M791,435.18c-3.57,8-12.29,20.87-15.66,24.06s-3.66,3.27-3.11,4.41a8.88,8.88,0,0,1,.92,3.81c0,1.51,0,1.62,0,1.62a114.51,114.51,0,0,0,9.11-10.66c3.13-4.45,6.21-8.12,2.37-1.8s-5.78,8.52-7.32,10.23L773.59,471s-.12,3.68-.4,5.42a25.1,25.1,0,0,1-.71,3.18s2.77-2.27,4.66-4,8.92-6.6,16.05-24.3a81.28,81.28,0,0,0,5.26-35.12S794.58,427.2,791,435.18Z" style="fill: #d4af3a"/>
    <path d="M776.58,573.65a42.63,42.63,0,0,1-11.73-.39c-5.61-1-12.92-4.19-16.46-6s-5-3.07-5.48-2.52a4.19,4.19,0,0,1-3.09,1.16c-1.39-.09-1.52.08-.57,1.18s6.37,6.29,9.46,7.7,4.79,1.27,4.73,1.71-.07.91-2.21.42-7.57-3.81-9.78-5.44-4.6-3.28-4.6-3.19-1.07,5.52,2.84,8.48h0c3.91,3,10.53,9.38,17.15,10.69s16.15-.61,18.86-6.79S777.47,573.53,776.58,573.65Z" style="fill: #d4af3a"/>
    <path d="M787.57,548.7c-1.56.08-6.43,2.16-14.13,2.1s-16-3.1-16-3.1a27.39,27.39,0,0,1-4.51,2.81c-1.22.37-2,1.08-.18,2.34s7.36,3.81,10.25,3.82,4.46.88.81,1.16-6.94-.92-9.78-2-4.46-1.85-4.46-1.85.17,3.51-.75,5.36a7.36,7.36,0,0,0-.93,2.37s2.55,3.45,9.38,4.62a43.26,43.26,0,0,0,17.25-.15,18.61,18.61,0,0,0,12.28-9.88c2.66-5.65,2.25-6.73,2.25-6.73S789.13,548.62,787.57,548.7Z" style="fill: #d4af3a"/>
    <path d="M797.43,517.68c-1.5,1.54-7.12,5.4-14.59,8.13s-10.82,4.08-15,4-4.46.13-5.39.9a7.73,7.73,0,0,1-4.22,1.69,20.77,20.77,0,0,0-3.13.44,16.1,16.1,0,0,1,2.6,1.75c.58.61,2.44.44,5.74.36s11.11.1,13-.61,2.84-1.29,2.9-.77-2,1.52-5.15,2-3.42,1-8.52,1a35.24,35.24,0,0,0-6.65.41,5.42,5.42,0,0,1,.75,3.69,11.26,11.26,0,0,1-.7,2.5s10.66,2.62,20.16-.85,11.34-6,15.1-11.83,3.71-8.73,4.11-10.95S798.94,516.14,797.43,517.68Z" style="fill: #d4af3a"/>
    <path d="M802.05,488.25c-1.1,1-3.93,3.58-6.75,6.08a41.3,41.3,0,0,1-4.25,3.53,44.46,44.46,0,0,1-13.14,5.87,46.82,46.82,0,0,1-7.93,1.58s-1.79,3.75-3.07,4.63-3.65,2.14-.93,1.79,7.7-.43,12-2.07,6.31-3.42,6.43-2.9-1.28,2.17-5.91,3.92-8,1.92-11.4,2.59-3.48.74-3.94.66-1.79.26.23.8,2.93.72,3.48,2.91c.45,1.83-.53,4.52-.06,5.41,2.08,0,11.92-1.45,20.32-8.72s9.26-8.84,11.92-14a44.66,44.66,0,0,0,4-11.15C803.21,488.09,803.73,486.73,802.05,488.25Z" style="fill: #d4af3a"/>
    <path d="M800.89,456.59c-.52.94-8.39,12.24-12.45,16.56s-9.55,9.34-12.62,10.92-5.79,2.38-6.31,3.48a13.77,13.77,0,0,1-1.39,2.21,3.22,3.22,0,0,1,2.43,1.19,7.08,7.08,0,0,1,.81,2.77s5.1-3.52,8.46-6,6.71-4.81,7.46-5.62,2.2-.73-.23,1.33a119.22,119.22,0,0,1-9.38,7.48c-3.3,2.23-6.25,4.17-6.25,4.17s-.18,3.27-.41,4.25-.34,2,.87,1.42a41.2,41.2,0,0,0,16.62-10.49c8.28-8.22,11.92-19.69,12.8-25.31s.58-6.52.52-7.79S801.41,455.65,800.89,456.59Z" style="fill: #d4af3a"/>
    <path d="M755.81,308.67s-1.22,25-2,34.47-3.67,29.23-3.67,29.23-.28.45.51,3.57,1.81,6,2.44,8.54a28.52,28.52,0,0,1,.75,4.22s2.08-10.55,2.74-17.61.88-11.68.88-14.72.62-6.1.67.18A158,158,0,0,1,757,374.72c-.58,4.87-1.77,11.7-2,13.28a24.85,24.85,0,0,0-.55,3.55,32.79,32.79,0,0,0,.33,4.36,30.49,30.49,0,0,1,0,6.79,8.56,8.56,0,0,0,0,2.67s.63-1.7,1.74-4.29c.74-1.72,1.77-3.68,2.71-6.36h0c1.56-4.45,2.6-11.06,3.34-19.63a199.24,199.24,0,0,0,1.25-26.73C763.23,332.71,760.07,315.7,755.81,308.67Z" style="fill: #d4af3a"/>
    <path d="M773,332.69s-.11,2.74-.33,9.85c0,7.4-1.45,19.57-3.9,32.8a165.57,165.57,0,0,1-6.33,23.9A89.92,89.92,0,0,1,763.62,412a46.76,46.76,0,0,1-.43,9.3l3.22-7.06s2.67-6,4.89-24,1.33-6.91.22,3.78a113.23,113.23,0,0,1-2.41,14.26,80.22,80.22,0,0,1-3.37,10.56c2,1.38,2.76,5,2.89,9.62,0,0,3-9.55,5-17.33a179.43,179.43,0,0,0,4.67-50.89C777,337.76,773,332.69,773,332.69Z" style="fill: #d4af3a"/>
    <path d="M736.1,577.57a11.11,11.11,0,0,1-4.73.74c-2.08-.32-3.28-.37-3.28-.37s5,7.45,7.57,9.41a26.93,26.93,0,0,1,3.85,3.51c1,1,1.32,1.83.12,1s-2.14-1.7-4-3.17a33.61,33.61,0,0,1-4.86-5c-1.39-1.66-1.89-2.31-1.89-2.31s.57,5.38-1.32,6.75-2.53,1.9-2.53,1.9a63.77,63.77,0,0,0,15.2,11.64c9,4.86,13.62,4.41,17,2.9,4-1.38,4.92-7.51,4.92-7.5a61.74,61.74,0,0,1-15.52-9.51C738.18,580.75,736.1,577.57,736.1,577.57Z" style="fill: #d4af3a"/>
    <path d="M717.93,590.59l-1.32.47s5,8.57,8.39,11.92,2.14,3.28-1.39,0a40,40,0,0,1-6.63-8.7,19.44,19.44,0,0,0-1.7-2.37,13.48,13.48,0,0,0-1.32,8.5h0c.69,5.29,4.85,14.19,16.33,17S746,613.5,746,613.51s-5.55-1.32-15-11.47S719.26,590.12,717.93,590.59Z" style="fill: #d4af3a"/>
    <path d="M714.65,609.2a58.28,58.28,0,0,1-3.15-6.35c-.63-1.7-.19-1.89-2.4-2.06a34.7,34.7,0,0,1-4.6-.76s-1.89-.76-.57,1.73S707,607.84,709,610s4,3.67,3.78,4.19-3.35-1.51-5.36-4-4-6.91-4.86-8.75a15.94,15.94,0,0,1-1.07-2.62s-4.54-2-6.24-4a23.31,23.31,0,0,1-3-4.86h0s-.31,8,5.8,19a49.91,49.91,0,0,0,6.87,10c3.59,3.77,7,5,10.16,5.17,5.11.2,5.68-1.07,5.68-1.07s.94-.46-.32-2.92C718.55,616.43,716.65,613,714.65,609.2Z" style="fill: #d4af3a"/>
    <path d="M690.75,595.86a58.62,58.62,0,0,1-2,8.53c.32.72.76,1.74,1.16,2.81a58.44,58.44,0,0,1,1.64,6.16s-.69-1.16-2-3.83h0a11.54,11.54,0,0,0-1.71-2.73c-.49,1.29-1,2.51-1.59,3.67.46,3.36,1.39,7.6,4.62,10.59s6.31,3.35,7.82,2-.82-4.05-3.47-10.77A114.31,114.31,0,0,1,690.75,595.86Z" style="fill: #d4af3a"/>
    <path d="M690.29,359.9c-1.29-.27-2.34.92-2.34,2.65s1,3.36,2.34,3.63,2.35-.91,2.35-2.64S691.59,360.18,690.29,359.9Z" style="fill: #d4af3a"/>
    <path d="M693.72,349.63c-3.24-3.31-8.1-4.21-12.42-3.27a18,18,0,0,0-8.56,4.37c-1.71,1.47-3.74,3.88-4.23,3.18s1-1.77,1.8-2.78a12.17,12.17,0,0,1,1.17-1.34c-4.74-.54-9.83-4-14-9.2,0,0-1.35,8.81,4.23,14.63a22.82,22.82,0,0,0,3.77,3.38,13.47,13.47,0,0,0,12.89,1.12c4.59-2.58,8.37-4.16,11.16-4,2.36.16,3.51,1.89,5.66,2.41.69.17,1.29,0,1.54-.64C697.23,356.3,697,353,693.72,349.63Z" style="fill: #d4af3a"/>
    <path d="M709.83,361.16c-3.15-2.76-6.3-3.14-10.17-1.83A24.6,24.6,0,0,0,693.9,362s.54,5-1.8,6.74-4.68-.06-5.31-2.43a36.63,36.63,0,0,1-.81-3.61,20.15,20.15,0,0,1-8.73,2.5c-2.86.14-8.15-.16-11.53-2.86,0,0-3.06,3.69-5.31,5.84a46.14,46.14,0,0,1-4.68,3.86,3.55,3.55,0,0,0,1.35,1.88c1.08.76,1.44,1.1.72,2.66s-5.94,7.29-8.19,9.17a20.35,20.35,0,0,1-5.58,3s1.08,3.14,2.61,4.39a3.37,3.37,0,0,1,1.17,4.21c-.63,1.45-6,9-8.28,11.52a7,7,0,0,1-4.95,2.74h0c-1,.18-2.79,1.24-.82,5a10.52,10.52,0,0,0,11.35,5c4.68-1,9.18-8,9.18-8s-1,11.39-1,16.8a95.79,95.79,0,0,0,1.08,15,35.52,35.52,0,0,0,1.26,5s3.15-1.95,5.31-9.53,2.7-11.94,2.7-14.32.09-3.67,1.53-2.17a19.64,19.64,0,0,0,3.06,2.9l.91.32a85,85,0,0,1-.91-10.34c0-4.36,1-13.63,2.25-15.08s1.5,1,1.62,2.06c.26,2.3,1.56,5.3,3.43,6.54.61-6.28,1.56-11.33,5.22-16.17.66-.87,1.08-2.14,3.33-.35,3.32,2.65,7.58,4.78,10.92,3.58s5.76-5.73,5-6.43c-.18-.17-5.13,2.49-9-.17s-5.67-4.88-3.42-7.84,3.24-3.14,7.74-7.61,8.1-6.49,12.06-4.75a9.35,9.35,0,0,1,5,6c.36.74,2.08,3.06,2.08-1.68S713,363.91,709.83,361.16Z" style="fill: #d4af3a"/>
    <path d="M667.57,445.77c-.78-1.8-2.2-6.7-2.2-6.7a36.76,36.76,0,0,1-1,4.2,39.66,39.66,0,0,1-3.15,7.25,30.74,30.74,0,0,0,3.93-.67,8,8,0,0,0,3.49-2A7.85,7.85,0,0,1,667.57,445.77Z" style="fill: #d4af3a"/>
    <path d="M651.52,424.5a25.49,25.49,0,0,1-4.18,8c-2.89,3.52-5,2.55-5,2.55a12.94,12.94,0,0,0,2.46-1.8c2.15-1.73,4.3-7.68,4.3-7.68-2.36,1.57-7.81,2.35-10.68.88,0,0-.43,1.36-1.12,3.79h0a50.44,50.44,0,0,1-3.79,8.61c-1.08,1.84-.26,2.33-.26,2.33s.51,1,7.32,5.25a24.86,24.86,0,0,0,12.93,4s-.26-.93-1.42-8S651.52,424.5,651.52,424.5Z" style="fill: #d4af3a"/>
    <path d="M649.62,408.64c-2.09,3.06-7.22,5.3-7.22,5.3,0,.2-.07.39-.11.59a9.58,9.58,0,0,0,4.09-1.33,19.57,19.57,0,0,0,5.65-5.8,3,3,0,0,0-.11-2.62A18.64,18.64,0,0,1,649.62,408.64Z" style="fill: #b96b29"/>
    <path d="M658.45,417.66c0,2.06-.52,15.86-.52,15.86,0,.63-.18,4.83-.93,5.23.38.18,1.12.53,1.34-1.61.26-2.54,2-19.91,2-19.91l-1-.91S658.45,415.59,658.45,417.66Z" style="fill: #b96b29"/>
    <path d="M674.48,385.85c-.91.18-3.11,2.07-4.28,3.24s-1.94,1-3.05,1.53-.71-2.9-.06-5.6,2.85-5.64,4.53-8-.06-1.9-.84-.94a40.35,40.35,0,0,0-4.73,8c-2.14,4.55-3.3,15.65-3.3,15.65s1.29-.85,2.59-1.9,2.72-1.87,5.18-4a30.2,30.2,0,0,0,5.19-5.61C677,386.39,675.38,385.66,674.48,385.85Z" style="fill: #b96b29"/>
    <path d="M716.45,578.25A13.15,13.15,0,0,1,712.8,575h0c-1.58-2.07-2.07-4.16-2.34-3.1s.6,2,1.2,2.79,2.23,2.85,3.42,3.41,2.35,1.34,2.35.79S716.45,578.25,716.45,578.25Z" style="fill: #b96b29"/>
    <path d="M703.86,588.52a12.82,12.82,0,0,1-1.69-1.62s-2.61-3.41-2.94-4-.49-1-.81-.57.05.8.92,2.1a32.67,32.67,0,0,0,4.52,5.24c.92.58,1.09.3,1.09.3A3.06,3.06,0,0,0,703.86,588.52Z" style="fill: #b96b29"/>
    <path d="M756.06,446.53a20.75,20.75,0,0,0-1.46,2.66s-.38.48-1,1.47-1,1.33-.7,1.77.86-.63,1.35-1.41,1.14-2.17,2.17-3.8S756.6,445.83,756.06,446.53Z" style="fill: #b96b29"/>
    <path d="M756.66,466.1c-.59,1-1.95,1.94-1.57,2.57s.87-.4,1.52-1.31a27.16,27.16,0,0,1,1.78-2.2,28.39,28.39,0,0,0,1.79-2.69,10.7,10.7,0,0,0-1.68,1.28A10.2,10.2,0,0,0,756.66,466.1Z" style="fill: #b96b29"/>
    <path d="M759.91,481.77a13.4,13.4,0,0,1-1.89,1.87,26.68,26.68,0,0,1-3,2.15c-.87.47-1.2.92-1,1.6s1.74.47,2.78-.93a13.17,13.17,0,0,1,2.39-2.74c.49-.32,2.11-2.56,1.93-2.84S760.4,481.14,759.91,481.77Z" style="fill: #b96b29"/>
    <path d="M756.68,502.36s-1.2,0-2.07-.06-.76.26-.76.89.32.94.71.69a4.65,4.65,0,0,1,1.85-.45c.65,0,2.17-.72,2.07-1.22S756.68,502.37,756.68,502.36Z" style="fill: #b96b29"/>
    <path d="M752.55,521.73c-1.86-.35-3.44-.73-3.49.14s.16,1.3,1.36,1.45a11.15,11.15,0,0,0,3.87,0c.92-.31,1.9-.76,1.79-1.18S754.39,522.07,752.55,521.73Z" style="fill: #b96b29"/>
    <path d="M743.72,541.58a14,14,0,0,1-3.7-1.42c-1-.52-1.69-1-2-.62h0c-.28.35.1,1.14,1.2,1.59a11.62,11.62,0,0,0,4.89,1.49c2.29,0,3.87.41,3.87,0l-1.2-.62S744.7,541.69,743.72,541.58Z" style="fill: #b96b29"/>
    <path d="M737.84,555.48a22.33,22.33,0,0,0-2.94-1.12,6.4,6.4,0,0,1-2.83-1.35c-1.14-.86-2.12-2.16-2.61-1.39s.54,1.7,1.47,2.12a15.37,15.37,0,0,0,3.32,1.53c1.52.37,2.18.34,3,.67s1.2.94,1.36.42S737.84,555.48,737.84,555.48Z" style="fill: #b96b29"/>
    <path d="M725,567.4a13,13,0,0,1-1.47-1.57s-2.5-3-3.15-4.05-.87-1.69-1.09-.94,1,1.87,1.91,3.17a31.17,31.17,0,0,0,3.26,3.84c.54.42,1.14,1.5,1.31,1.13S726,568.31,725,567.4Z" style="fill: #b96b29"/>
    <path d="M741.6,417.57c-1,1.49-4,7-4.45,7.85s-1.58,4.1.43.82a28.65,28.65,0,0,0,2.23-4s1.94-3.41,2.44-4.36S742.61,416.08,741.6,417.57Z" style="fill: #b96b29"/>
    <path d="M749,433.53s-2.3,3.87-3.45,5.75-1.8,2.18-1.51,2.65h0c.29.47.65,0,1.29-1s1.87-3.42,2.81-4.61,1.93-4.15,1.72-4.4S749,433.53,749,433.53Z" style="fill: #b96b29"/>
    <path d="M744.64,475.35l-2.87.32c-1,.12-3.3-.47-3.3.56s1.08.84,2.43.78,3.15-.51,4.34-.6,1.68-.4,1.62-.8S744.64,475.35,744.64,475.35Z" style="fill: #b96b29"/>
    <path d="M743.83,457.53c-.65.4-1.37.79-1.37.79a7.76,7.76,0,0,1-1.94,1.2c-1.29.6-2.08,1-1.65,1.79s1.08,0,1.87-.49a15.8,15.8,0,0,0,3.3-2.62h0C745.55,456.71,744.47,457.13,743.83,457.53Z" style="fill: #b96b29"/>
    <path d="M732.77,441.65a9.55,9.55,0,0,0-1.72,1.45c-.93,1-2.23,2.4-1.58,3s1.94-1.83,2.66-2.63,2.22-2.08,2-2.65S732.77,441.65,732.77,441.65Z" style="fill: #b96b29"/>
    <path d="M741.6,495.22c-.81-.48-2.07-1.19-2.07-1.19l-2.23-1.31c-.6-.35-1.36-.74-1.58-.07s.27,1,1.74,1.69,2.07,1.36,3.54,1.64S742.42,495.69,741.6,495.22Z" style="fill: #b96b29"/>
    <path d="M736.16,510.12a15.37,15.37,0,0,0-2.72-2.84c-1.2-.79-2.18-1.62-2.18-.82s0,1,.93,1.61,2.5,2.08,3.26,2.63,1.91,1.16,1.8.74A5.23,5.23,0,0,0,736.16,510.12Z" style="fill: #b96b29"/>
    <path d="M726.25,522.33c-.65-.61-1.52-1.26-1.52-1.26s-1.69-2.09-2.56-3.3-1.2-1.35-1.58-.95-.16,1.16.93,2.34h0c1.09,1.17,3,2.82,3.7,3.84s2.07,1.76,2.29,1.33S726.91,522.94,726.25,522.33Z" style="fill: #b96b29"/>
    <path d="M718.56,535.3l-.93-.75s-3.53-4.13-4.57-5.46-1.3-2.41-1.79-2.27-.11,2.12.49,2.88,1.9,1.66,2.34,2.31.87,1,1.85,2.29a4.15,4.15,0,0,0,2.34,1.74C719.11,536.36,719.54,536.05,718.56,535.3Z" style="fill: #b96b29"/>
    <path d="M705.12,544.73c-1.08-1.5-1.36-1.63-1.36-1.63s-2-3.52-2.77-4.72-1.31-2-1.8-1.56.33,1.74,1,2.75a19.9,19.9,0,0,0,2.94,3.79,5.74,5.74,0,0,1,1.58,1.76C705.07,545.75,706.21,546.23,705.12,544.73Z" style="fill: #b96b29"/>
    <path d="M653.89,324.32l4.43,5.55,4.14-1.75-3.35-4.62Z" style="fill: #d4af3a"/>
    <path d="M644.15,315.47c-2.34-.51-4.23,1.74-4.23,5s1.89,6.36,4.23,6.87,4.22-1.74,4.22-5S646.48,316,644.15,315.47Z" style="fill: #b96b29"/>
    <path d="M644.15,316.6c-1.41-.31-2.55,1-2.55,3s1.14,3.8,2.55,4.11,2.55-1,2.55-3S645.56,316.9,644.15,316.6Z" style="fill: #d4af3a"/>
    <path d="M653.65,296.13c-.61.75-1.54,1.51-2.58,2.61s-.6,3.94-.6,3.94a4.36,4.36,0,0,0,2.5.22h0c1.08-.36,1.59-2.43,1.51-3.93s-.08-3.87-.08-3.87A9.72,9.72,0,0,1,653.65,296.13Z" style="fill: #d4af3a"/>
    <path d="M650.72,304.33c-.43-.09-.77.31-.77.91a1.25,1.25,0,0,0,.77,1.24c.43.09.78-.32.78-.91A1.24,1.24,0,0,0,650.72,304.33Z" style="fill: #d4af3a"/>
    <path d="M654.44,304.28a2.55,2.55,0,0,0-1.94,2,2.15,2.15,0,0,0,1,2.33,2.52,2.52,0,0,0,2.45-.69,2.09,2.09,0,0,1,1.56-.43s-.7-1.23-1-2S655.81,303.84,654.44,304.28Z" style="fill: #d4af3a"/>
    <path d="M659.7,309.47s-3.51,3.52-6.16,2.6a4.61,4.61,0,0,1-2.89-3.81s-.48,3.63,1.12,5.42a14.56,14.56,0,0,0,3.93,2.67,7.27,7.27,0,0,0,3.28,1.09,11,11,0,0,0,4.53-1.12l.2-.11C661.48,315.08,660,313,659.7,309.47Z" style="fill: #d4af3a"/>
    <path d="M667.28,309.35c-.68-.09-2.32.7-3.41,1.07s-1.22.53-.47,1.24a5,5,0,0,0,2.65,1.77,2.23,2.23,0,0,0,2.73-2.21C669,309.41,668,309.45,667.28,309.35Z" style="fill: #d4af3a"/>
    <path d="M672.18,305.62a6.9,6.9,0,0,0-2.21,2.92c-.48,1.14,1.19,2.35,2.32,2.64s2,0,2.48-1.76-.34-4.91-.34-4.91A4.73,4.73,0,0,0,672.18,305.62Z" style="fill: #d4af3a"/>
    <path d="M671.1,312.84a.74.74,0,0,0-.92.77,1.23,1.23,0,0,0,.92,1.16A.74.74,0,0,0,672,314,1.23,1.23,0,0,0,671.1,312.84Z" style="fill: #d4af3a"/>
    <path d="M672.73,292.16a4.61,4.61,0,0,1,1.27-3.57,69.68,69.68,0,0,0-2.13-7.58c-.12-.35-.25-.69-.38-1a1.9,1.9,0,0,1-1.37.21c-1.64-.36-3-2.63-3-5.07a5.29,5.29,0,0,1,.45-2.24c-1.14-1.63-5.6-6.48-6.94-7.15a1.94,1.94,0,0,1-1.69.42c-1.64-.35-3-2.63-3-5.07v-.19c-2.47-1.69-6.81-4.2-6.81-4.2a62.48,62.48,0,0,1,5.58,7.66,34,34,0,0,1,2,3.83,30.22,30.22,0,0,1,9.07,11.9c3.31,7.78,3.44,13.35,2.7,18.3h0c-.9,4.91.32,8.39.49,8.43,0,0,2.33-3.89,4.05-4.24s2.08-1.16,2.2-2.57a20.89,20.89,0,0,0,0-2.87C673.85,296.81,672.73,294.59,672.73,292.16Z" style="fill: #d4af3a"/>
    <path d="M657.77,260.87a2.21,2.21,0,0,0,.24,2.57c.62.89,1.53,1.16,2,.62a2.22,2.22,0,0,0-.24-2.58C659.17,260.59,658.26,260.32,657.77,260.87Z" style="fill: #d4af3a"/>
    <path d="M668.84,273.56a3.06,3.06,0,0,0,.27,3.23c.71,1.09,1.73,1.41,2.29.71a3.06,3.06,0,0,0-.27-3.23C670.42,273.18,669.4,272.87,668.84,273.56Z" style="fill: #d4af3a"/>
    <path d="M675.73,289.53c-1-.2-1.72.73-1.72,2.09s.77,2.63,1.72,2.83,1.71-.74,1.71-2.1S676.67,289.73,675.73,289.53Z" style="fill: #d4af3a"/>
    <path d="M648.89,259c-.83-1-1.61-1.89-2.34-2.71a5,5,0,0,1,.22,1.43c0,2.08-1.17,4-2.88,3.62s-3.27-3-3.27-5,1.33-3.37,3-3h0a24.35,24.35,0,0,0-5-4h0c-1.4-.75-2.81-1.15-2.69,1.12s.25,2.91.31,3.82a5.41,5.41,0,0,0,1.71,3.78,48,48,0,0,1,8.64,12.26c2.51,5.46,3.87,12.47,3.68,16.19s-1.17,5.83-1.17,8a11.75,11.75,0,0,0,.86,4.13,23,23,0,0,0,2-2.43c.55-.86,1.34-1.85,1.9-2.72a1.28,1.28,0,0,1,1.53-.47,30.08,30.08,0,0,0,.06,3.95,22.11,22.11,0,0,1,.31,3.2,4,4,0,0,1-.56,1.49,5.9,5.9,0,0,0,5.52-4.54c1.16-4.49.18-12.76-2.51-20.67S654.35,265.51,648.89,259Z" style="fill: #d4af3a"/>
    <path d="M644,254.38c-1-.21-1.72.52-1.72,1.69a3.1,3.1,0,0,0,1.85,2.83c1,.21,1.62-.88,1.62-2A2.55,2.55,0,0,0,644,254.38Z" style="fill: #d4af3a"/>
    <path d="M632.41,299.38c-.83.81-.59,2.61.11,3.44a3.33,3.33,0,0,0,3.5,1.1,2.92,2.92,0,0,0,1.69-1.33s-1.72-2.15-2.48-2.93A2,2,0,0,0,632.41,299.38Z" style="fill: #d4af3a"/>
    <path d="M647,309.59c-1.11,1-3.65.27-4.38-.82s-1.27-4.55-1.26-4.55l-1.65-.31a12.65,12.65,0,0,1-1.62,3c-1,1.19-2.54,1-4,.57s-1.81-1.13-2.29-2.31h0c-.47-1.17-.66-2-.95-1.6s-.25,1.57.35,3.56a3.45,3.45,0,0,0,2.73,2.27l10.47,2.28c1.84.4,2.63-.31,3.78-1.5s1.33-2.36,1.14-2.59S648.11,308.62,647,309.59Z" style="fill: #d4af3a"/>
    <path d="M648.17,301.63c-.72-.28-1.2.21-1.92.67a12.34,12.34,0,0,1-2.21.92,7.81,7.81,0,0,0,.68,1.64c.57,1.15,1.44,2.11,3,1.18s1.27-4,1.27-4S648.9,301.92,648.17,301.63Z" style="fill: #d4af3a"/>
    <path d="M655.31,280c-1.93-.42-3.49,1.5-3.49,4.3s1.56,5.39,3.49,5.81,3.49-1.51,3.49-4.3S657.24,280.46,655.31,280Z" style="fill: #b96b29"/>
    <path d="M649.25,266.25c-1.41,1.08-1.62,3.81-.49,6.11s3.2,3.29,4.59,2.22,1.62-3.8.48-6.11S650.64,265.18,649.25,266.25Z" style="fill: #b96b29"/>
    <path d="M655.45,281.64c-1.12-.24-2,.83-2,2.39s.91,3,2,3.27,2-.83,2-2.39S656.57,281.89,655.45,281.64Z" style="fill: #d4af3a"/>
    <path d="M650.7,267.13h0c-2,.36-1,4.64,1.26,4.46,1.2-.09,1.69-1.22,1.22-2.48S651.6,267,650.7,267.13Z" style="fill: #d4af3a"/>
  </g>
</svg>
