<svg xmlns="http://www.w3.org/2000/svg" viewBox="0 0 1260 1012.04">
  <g>
    <path d="M0,90.08v920C420,738.76,840,1193.28,1260,922V2C840,273.28,420-181.24,0,90.08Z" style="fill: #003893"/>
    <path d="M0,995.36c420-448,840-170.08,1260-618v-268c-420,529.94-840,334-1260,864Z" style="fill: #fff"/>
    <path d="M0,980.64C420,477.48,840,700.16,1260,197V16.69C840,575,420,407.56,0,965.92Z" style="fill: #dd7500"/>
    <path d="M229.78,341.16q12.35-1.61,24.71-2.7-6.18-142-12.36-284Q236,197.76,229.78,341.16Z" style="fill: #fff"/>
    <path d="M256.7,343.68q11.76-102.33,23.53-204.23Q253.89,236.64,227.56,336,242.14,339.51,256.7,343.68Z" style="fill: #fff"/>
    <path d="M255.2,348.86q30.26-96.32,60.53-189.79C286.84,214.44,258,271.52,229.07,330.79Q242.14,339.54,255.2,348.86Z" style="fill: #fff"/>
    <path d="M252.8,353.41c31.14-55.92,62.28-109.45,93.41-161.18C308,233.79,269.72,278.07,231.47,326.15Q242.14,339.59,252.8,353.41Z" style="fill: #fff"/>
    <path d="M249.67,357c40-43.95,80-83.92,119.94-121.18a1175.79,1175.79,0,0,0-135,86.58Q242.14,339.64,249.67,357Z" style="fill: #fff"/>
    <path d="M246,359.48a1058.71,1058.71,0,0,1,138.27-73.22c-48.69,6.66-97.39,17.12-146.08,33.65Q242.13,339.67,246,359.48Z" style="fill: #fff"/>
    <path d="M242.13,356.83c68.53-13.22,137.05-14.53,205.58-10.26-68.53-15.7-137-25.81-205.58-24Z" style="fill: #fff"/>
    <path d="M238.23,360.34c48.69,5.22,97.39,16.52,146.08,31.62-46.09-28.35-92.18-53.29-138.27-72.91Q242.13,339.68,238.23,360.34Z" style="fill: #fff"/>
    <path d="M234.59,358.68c45,22.49,90,50.21,135,81.37-40-42.89-80-83.06-119.94-119.27Q242.14,339.64,234.59,358.68Z" style="fill: #fff"/>
    <path d="M231.47,355.74C269.72,394.06,308,436.18,346.21,481c-31.13-54.4-62.27-107-93.41-157.21Q242.14,339.59,231.47,355.74Z" style="fill: #fff"/>
    <path d="M229.07,351.72c28.89,51.65,57.77,105.49,86.66,161Q285.46,419,255.2,327.93,242.14,339.54,229.07,351.72Z" style="fill: #fff"/>
    <path d="M227.56,346.87q26.34,92.39,52.67,187.07Q268.47,433.18,256.7,332.85,242.14,339.51,227.56,346.87Z" style="fill: #fff"/>
    <path d="M242.13,624.88q6.18-143.26,12.36-286.42-12.36,1.1-24.71,2.7Q235.95,483,242.13,624.88Z" style="fill: #fff"/>
    <path d="M204,542.36q26.33-100.58,52.66-198.68-14.56-4.17-29.14-7.64Q215.8,439,204,542.36Z" style="fill: #fff"/>
    <path d="M168.53,529.44c28.89-62.55,57.78-122.59,86.67-180.58q-13.06-9.32-26.13-18.07Q198.8,428.44,168.53,529.44Z" style="fill: #fff"/>
    <path d="M138.05,505.43c38.25-55,76.5-105.32,114.75-152q-10.67-13.83-21.33-27.26C200.33,383.19,169.19,442.75,138.05,505.43Z" style="fill: #fff"/>
    <path d="M114.66,471A1149.14,1149.14,0,0,1,249.67,357q-7.53-17.4-15.08-34.6C194.61,367.4,154.64,416.49,114.66,471Z" style="fill: #fff"/>
    <path d="M100,427.25A674.91,674.91,0,0,1,246,359.48q-3.91-19.82-7.81-39.57A1011,1011,0,0,0,100,427.25Z" style="fill: #fff"/>
    <path d="M242.13,356.83V322.54c-68.52,13.21-137,38.32-205.58,81.63C105.08,372.29,173.61,358.61,242.13,356.83Z" style="fill: #fff"/>
    <path d="M238.23,360.34q3.9-20.67,7.81-41.29c-48.7-5.87-97.39-5.79-146.09,2.49C146,327.76,192.14,341.33,238.23,360.34Z" style="fill: #fff"/>
    <path d="M234.59,358.68q7.54-19.05,15.08-37.9c-45-23.63-90-42.24-135-54C154.64,292.43,194.61,323.49,234.59,358.68Z" style="fill: #fff"/>
    <path d="M231.47,355.74q10.67-16.15,21.33-31.93C214.55,284.12,176.3,248,138.05,216.64,169.19,260.09,200.33,306.66,231.47,355.74Z" style="fill: #fff"/>
    <path d="M229.07,351.72q13.06-12.18,26.13-23.79C226.31,275,197.42,224.12,168.53,175.75Q198.8,262,229.07,351.72Z" style="fill: #fff"/>
    <path d="M227.56,346.87q14.58-7.37,29.14-14-26.32-93.68-52.66-185Q215.8,247.13,227.56,346.87Z" style="fill: #fff"/>
  </g>
</svg>
