<svg xmlns="http://www.w3.org/2000/svg" viewBox="0 0 1260 1012.04">
  <g>
    <path d="M0,90.08v920C420,738.76,840,1193.28,1260,922V2C840,273.28,420-181.24,0,90.08Z" style="fill: #d20000"/>
    <path d="M693,59.58c-42-8.8-84-18.32-126-27.12q31.5,203.74,63,407.85Q661.5,250,693,59.58Z" style="fill: #ffe600"/>
    <polygon points="630 506.02 630 506.02 630 506.02 630 506.02" style="fill: #ffe600"/>
    <polygon points="630 506.02 630 506.02 630 506.02 630 506.02 630 506.02" style="fill: #ffe600"/>
    <path d="M567,952.46c42,8.8,84,18.32,126,27.12q-31.5-203.74-63-407.84Q598.5,762,567,952.46Z" style="fill: #ffe600"/>
    <path d="M630,506c210,76.47,420,152.94,630,48V370C1050,536.29,840,521.16,630,506Z" style="fill: #ffe600"/>
    <path d="M0,1010.08c63-40.7,126-65.07,189-78C336,754,483,638.25,630,522.45,777,702.37,924,882.29,1071,1000c63-12.94,126-37.3,189-78C1050,904.29,840,705.16,630,506,420,613.55,210,721.08,0,1010.08Z" style="fill: #ffe600"/>
    <path d="M630,506h0C840,398.49,1050,291,1260,2c-63,40.7-126,65.06-189,78C924,258,777,373.8,630,489.59,483,309.67,336,129.76,189,12.08,126,25,63,49.38,0,90.08,210,107.75,420,306.89,630,506Z" style="fill: #ffe600"/>
    <path d="M630,506C420,429.55,210,353.08,0,458.08v184C210,475.75,420,490.89,630,506Z" style="fill: #ffe600"/>
    <path d="M630,358.16C574.08,345.79,528.75,403,528.75,484.69c0,81.58,45.33,156.82,101.25,169.19S731.25,609.1,731.25,527.35C731.25,445.78,685.92,370.54,630,358.16Z" style="fill: #ffe600"/>
    <path d="M630,341.74C568,328,517.5,391.81,517.5,482.52c0,90.47,50.47,174,112.5,187.79s112.5-50.08,112.5-140.78C742.5,439.06,692,355.51,630,341.74Zm0,295.71c-49.63-11-90-78.12-90-150.53s40.37-123.28,90-112.33,90,78.12,90,150.53S679.63,648.4,630,637.45Z" style="fill: #d20000"/>
  </g>
</svg>
