<svg xmlns="http://www.w3.org/2000/svg" viewBox="0 0 1260 1012.04">
  <g>
    <path d="M0,90.08v460C420,278.76,840,733.28,1260,462V2C840,273.28,420-181.24,0,90.08Z" style="fill: #fecb00"/>
    <path d="M0,1010.08C420,738.76,840,1193.28,1260,922V462C840,733.28,420,278.76,0,550.08Z" style="fill: #ea2839"/>
    <path d="M0,703.41C420,432.09,840,886.62,1260,615.3V308.63C840,580,420,125.43,0,396.74Z" style="fill: #34b233"/>
    <path d="M529.42,517.18c67.05,13.14,134.11,29.25,201.16,42.39Q680.28,380.2,630,199.36C596.47,305.05,563,410.74,529.42,517.18Z" style="fill: #fff"/>
    <path d="M448.06,777.34c87.77-57,175.54-104.9,263.31-156.86-54.25-54.22-108.49-110-162.74-164.21C515.11,562.45,481.58,669.23,448.06,777.34Z" style="fill: #fff"/>
    <path d="M598.92,636.38q31.08-98.05,62.16-196c-108.49-23.43-217-49.26-325.47-52.45C423.38,460.34,511.15,547.58,598.92,636.38Z" style="fill: #fff"/>
    <path d="M661.08,649.89C748.85,599,836.62,546.56,924.39,479.3c-108.49-3.19-217-29-325.47-52.44Q630,538.33,661.08,649.89Z" style="fill: #fff"/>
    <path d="M548.63,585.77C636.4,673.49,724.17,765.3,811.94,848Q761.66,671.11,711.37,491C657.12,523.1,602.88,553.65,548.63,585.77Z" style="fill: #fff"/>
  </g>
</svg>
