<svg xmlns="http://www.w3.org/2000/svg" viewBox="0 0 1260 1012.04">
  <g>
    <path d="M0,90.08v920C420,738.76,840,1193.28,1260,922V2C840,273.28,420-181.24,0,90.08Z" style="fill: #c4272f"/>
    <path d="M420,6.94v920C560,944,700,988,840,1005.1V85.1C700,68,560,24,420,6.94Z" style="fill: #015197"/>
    <path d="M210,238.18c-31.89,5.21-57.75,50.57-57.75,97.11s25.86,76.77,57.75,71.56,57.75-44.36,57.75-91C267.75,269.34,241.89,232.87,210,238.18Z" style="fill: #f9cf02"/>
    <path d="M210,192.18c-34.79,5.67-63,55.5-63,106.27s28.21,83.4,63,77.73,63-48.11,63-99C273,226.45,244.79,186.39,210,192.18Z" style="fill: #c4272f"/>
    <path d="M210,238.18c-23.2,3.81-42,36.12-42,70s18.8,56.51,42,52.7,42-32.83,42-66.74S233.2,234.32,210,238.18Z" style="fill: #f9cf02"/>
    <path d="M225.75,136.13c3.94,9-2.63,11.86-2.63,21.45s2.63,9.21,2.63,16.88c0,4.24-2.35,8-5.25,8.41s-5.25-2.63-5.25-6.87c0-7.67,5.25-16.13,5.25-27.63s-1.31-15.14-5.25-24.12-10.5-15.52-5.25-24.07c-7.88,5.17-3.94,19.85-3.94,29.42s-5.25,16.26-5.25,27.77,3.94,12.71,3.94,20.38c0,4.23-2.35,8.07-5.25,8.61s-5.25-2.43-5.25-6.67c0-7.66,2.63-8.17,2.63-17.75s-6.57-10.22-2.63-20.58c-7.88,11.15-3.94,18-3.94,23.78s-6.56,9-6.56,24.38c0,21.18,11.75,35.72,26.25,33.33s26.25-20.89,26.25-42.07c0-15.35-6.56-16.44-6.56-22.18S233.62,144.65,225.75,136.13Z" style="fill: #f9cf02"/>
    <path d="M210,790.18q26.25-27.34,52.5-52.29a571.37,571.37,0,0,0-105,17.63Q183.75,771.49,210,790.18Z" style="fill: #f9cf02"/>
    <path d="M94.5,822.67A534.45,534.45,0,0,1,147,804.45v-368a534.45,534.45,0,0,0-52.5,18.22Z" style="fill: #f9cf02"/>
    <path d="M157.5,740.19a571.4,571.4,0,0,1,105-17.64V691.89a571.37,571.37,0,0,0-105,17.63Z" style="fill: #f9cf02"/>
    <path d="M273,783.18q26.25-1.56,52.5-1.08v-368q-26.25-.44-52.5,1.08Z" style="fill: #f9cf02"/>
    <path d="M210,468.18q26.25-27.35,52.5-52.29a570.53,570.53,0,0,0-105,17.63Q183.75,449.5,210,468.18Z" style="fill: #f9cf02"/>
    <path d="M157.5,525.52a570.53,570.53,0,0,1,105-17.63V477.22a572.22,572.22,0,0,0-105,17.63Z" style="fill: #f9cf02"/>
    <path d="M210,524.92c-30.73,5-55.65,48.61-55.65,93.46s24.92,74.09,55.65,69.07,55.65-42.85,55.65-87.79S240.73,519.8,210,524.92Z" style="fill: #f9cf02"/>
    <path d="M210,520.32C194.29,522.91,179.53,535,168.42,554s-17.22,42.33-17.22,65.25,6.12,42.71,17.22,56.18,25.87,19.21,41.58,16.62,30.47-13.27,41.58-30.52,17.22-39.14,17.22-62.09-6.12-44.15-17.22-59.34S225.71,517.7,210,520.32Zm0,162.53c-28.95,4.74-52.5-23-52.5-65.33s23.55-83.27,52.5-88,52.5,28.15,52.5,70.37S239,678,210,682.85Z" style="fill: #c4272f"/>
    <path d="M210,520.32v9.2c13.61-2.27,24.67,12.62,24.67,32.48S223.61,599.32,210,601.58c-17.08,2.82-31,26.35-31,51.28s13.9,42,31,39.19v-9.2c-13.61,2.25-24.68-11.49-24.68-31.37S196.39,613,210,610.78c17.08-2.84,31-24.56,31-49.51S227.08,517.47,210,520.32Z" style="fill: #c4272f"/>
    <path d="M210,550.22c-5.8,1-10.5,8.71-10.5,17.17s4.7,14.45,10.5,13.49,10.5-8.5,10.5-17S215.8,549.25,210,550.22Z" style="fill: #c4272f"/>
    <path d="M210,631.48c-5.8,1-10.5,8.71-10.5,17.18s4.7,14.45,10.5,13.49,10.5-8.51,10.5-17S215.8,630.52,210,631.48Z" style="fill: #c4272f"/>
  </g>
</svg>
