<svg xmlns="http://www.w3.org/2000/svg" viewBox="0 0 1260 1012.04">
  <g>
    <path d="M0,90.08v920C420,738.76,840,1193.28,1260,922V2C840,273.28,420-181.24,0,90.08Z" style="fill: #00785e"/>
    <path d="M602.88,305,630,289.34l-16.77-17Z" style="fill: #fbd116"/>
    <path d="M586.1,244.9q13.56,13.7,27.13,27.45,3.21-10.1,6.41-20.19Q602.87,248.5,586.1,244.9Z" style="fill: #fbd116"/>
    <path d="M657.12,316.83l-10.35-37.17L630,289.34Q643.56,303.1,657.12,316.83Z" style="fill: #fbd116"/>
    <path d="M640.36,256.67q3.21,11.5,6.41,23,13.56-7.85,27.13-15.73Q657.13,260.35,640.36,256.67Z" style="fill: #fbd116"/>
    <path d="M619.64,252.16q-3.21,10.09-6.41,20.19l16.77,17,16.77-9.68q-3.21-11.49-6.41-23Z" style="fill: #fbd116"/>
    <path d="M630,219.48q-5.18,16.34-10.36,32.68l20.72,4.51Q635.18,238.08,630,219.48Z" style="fill: #fbd116"/>
    <path d="M632,729.14a18.24,18.24,0,0,0-2-7.73c-44.74-9.76-89.48-19.52-134.22-27.52q12.2,10.61,25.28,20c36.32,7,72.63,14.9,108.94,22.82A13.15,13.15,0,0,0,632,729.14Z" style="fill: #fff"/>
    <path d="M630,621.58a24.21,24.21,0,0,0,2.15-14A30.26,30.26,0,0,0,630,599.8a109.59,109.59,0,0,1-56.86,24.12A131.26,131.26,0,0,1,532,622.13c-36.83-7.26-73.65-13.66-110.48-18.2q4.88,8.46,10.24,16.64c35.6,4.72,71.2,11.08,106.8,18.2C573.39,645.75,605.29,639,630,621.58Z" style="fill: #fff"/>
    <path d="M537.06,724.72C565.82,743,597.18,756.64,630,763.81a19.27,19.27,0,0,0,2.19-9A25.84,25.84,0,0,0,630,744.41C599,737.65,568,730.89,537.06,724.72Z" style="fill: #fff"/>
    <path d="M586.64,404.37a155.61,155.61,0,0,0-5.86,43.09c0,32,8.83,63.56,24,91.56-18.57-30.31-29.64-65.61-29.64-101.4,0-23.77,4.89-45.27,13.61-63.55a82.38,82.38,0,0,1-13.18-27.7c-11.69,20.12-18.36,44.85-18.37,72.65,0,34.58,10.33,68.64,27.79,98.2-30.4-41.35-73.27-72.2-120.75-79.75-2.55-.41-5.1-.73-7.62-1a76.54,76.54,0,0,1,11.81,18.91c47.24,7.73,89.88,38.44,120.21,79.55-29-32.68-66.24-56.51-106.9-63.45-22.72-3.87-44.39-2.06-64.14,4.6,20.3,61,72.13,110.24,132.83,122.9,3.93.8,7.82,1.41,11.67,1.87a136.39,136.39,0,0,1-25.23-2.69c-38.3-7.68-73.06-30.13-98.61-60.64a51,51,0,0,1-17,1.81c26,35.37,64.05,61.61,106.38,70,40.22,7.88,76.54-2.41,102.38-26.27a880.62,880.62,0,0,0,8-111.17,962.62,962.62,0,0,0-8-131.44A122.29,122.29,0,0,0,586.64,404.37Z" style="fill: #fff"/>
    <path d="M630,674c-62-13.52-124-27-186-35.9,2.17,2.91,4.4,5.8,6.66,8.64,59.77,8.85,119.55,21.89,179.33,34.93a3.19,3.19,0,0,0,2.49-3.5A5.34,5.34,0,0,0,630,674Z" style="fill: #fff"/>
    <path d="M466.14,664.9q6.66,7.3,13.69,14.23c50.06,8.46,100.11,19.38,150.17,30.3a7.27,7.27,0,0,0,2.23-5.51,11.27,11.27,0,0,0-2.23-6.47C575.38,685.54,520.76,673.62,466.14,664.9Z" style="fill: #fff"/>
    <path d="M420.85,342q8.47,9.71,17,19.55l6.06-13.39Q432.36,345,420.85,342Z" style="fill: #fbd116"/>
    <path d="M465.27,393.68q-2.22-12.82-4.43-25.65-6.27,2.84-12.54,5.73Q456.79,383.66,465.27,393.68Z" style="fill: #fbd116"/>
    <path d="M428,383.28q10.15-4.84,20.29-9.52-5.24-6.13-10.48-12.2Q432.92,372.41,428,383.28Z" style="fill: #fbd116"/>
    <path d="M453.67,326.58q-4.89,10.77-9.79,21.59,7.11,2,14.22,4Q455.9,339.38,453.67,326.58Z" style="fill: #fbd116"/>
    <path d="M458.1,352.19q1.36,7.92,2.74,15.84,10.14-4.57,20.29-9Q469.61,355.52,458.1,352.19Z" style="fill: #fbd116"/>
    <path d="M443.88,348.17l-6.06,13.39q5.24,6.07,10.48,12.2,6.27-2.89,12.54-5.73-1.36-7.92-2.74-15.84Q451,350.14,443.88,348.17Z" style="fill: #fbd116"/>
    <path d="M485.41,290.3q11.59,2.22,23.19,4.6-2.09-7.89-4.19-15.79Q494.92,284.65,485.41,290.3Z" style="fill: #fbd116"/>
    <path d="M515.39,320.49q3.78-11.31,7.56-22.59-7.17-1.53-14.35-3Q512,307.7,515.39,320.49Z" style="fill: #fbd116"/>
    <path d="M527.62,284q-2.34,7-4.67,13.95,11.59,2.46,23.2,5Q536.88,293.4,527.62,284Z" style="fill: #fbd116"/>
    <path d="M497.63,253.58l6.78,25.53q5.88-3.42,11.75-6.81Q506.89,262.9,497.63,253.58Z" style="fill: #fbd116"/>
    <path d="M535.17,261.41q-9.51,5.4-19,10.89,5.73,5.81,11.46,11.65Q531.39,272.67,535.17,261.41Z" style="fill: #fbd116"/>
    <path d="M516.16,272.3q-5.88,3.39-11.75,6.81,2.1,7.89,4.19,15.79,7.17,1.47,14.35,3,2.32-7,4.67-13.95Q521.89,278.12,516.16,272.3Z" style="fill: #fbd116"/>
    <path d="M628,728.26a18.19,18.19,0,0,0,2,8.48c36.31,7.92,72.62,15.84,108.94,22.82a181.79,181.79,0,0,0,25.28-10.63c-44.74-8-89.48-17.77-134.22-27.52A12.86,12.86,0,0,0,628,728.26Z" style="fill: #fff"/>
    <path d="M627.81,753.84a26,26,0,0,0,2.19,10c32.82,7.17,64.18,7.08,92.94.28-31-6.17-62-12.93-92.94-19.68A19.37,19.37,0,0,0,627.81,753.84Z" style="fill: #fff"/>
    <path d="M627.77,703a11.28,11.28,0,0,0,2.23,6.48c50.06,10.92,100.11,21.83,150.17,30.29q7-4.53,13.69-9.73c-54.62-8.72-109.24-20.63-163.86-32.54A7.26,7.26,0,0,0,627.77,703Z" style="fill: #fff"/>
    <path d="M842.45,554.85a194,194,0,0,0-64.14-23.4c-40.66-6.94-77.94,1.14-106.9,21.45,30.33-28.19,73-40.71,120.21-33.14a50.22,50.22,0,0,1,11.81-15.2c-2.52-.51-5.07-1-7.62-1.38-47.48-7.55-90.35,5.11-120.75,33.57,17.46-22.1,27.79-51.94,27.79-86.52,0-27.8-6.68-55.26-18.37-80.33A48.75,48.75,0,0,1,671.3,392a188.86,188.86,0,0,1,13.61,69.35c0,35.79-11.07,66.43-29.64,88.69,15.12-21.44,24-49.3,24-81.27a183.67,183.67,0,0,0-5.86-45.58c-10.2-39.71-31.82-68.89-43.36-82.75a886.89,886.89,0,0,0-8,128A968.71,968.71,0,0,0,630,583c25.84,35.07,62.16,61.48,102.38,69.36,42.33,8.35,80.36-6.1,106.38-35.19a55.9,55.9,0,0,1-17-6.25c-25.55,23.55-60.31,34.37-98.61,26.69A139.5,139.5,0,0,1,698,630c3.85,1.15,7.74,2.15,11.67,3C770.32,645.65,822.15,611.33,842.45,554.85Z" style="fill: #fff"/>
    <path d="M627.51,677.06a5.33,5.33,0,0,0,2.49,4.58c59.78,13,119.56,26.07,179.33,34.93,2.26-2.18,4.49-4.41,6.66-6.7C754,701,692,687.49,630,674A3.1,3.1,0,0,0,627.51,677.06Z" style="fill: #fff"/>
    <path d="M686.86,648.46C659,633.31,640.06,612.41,630,599.8a21.2,21.2,0,0,0-2.15,6.84A29.79,29.79,0,0,0,630,621.58c24.71,28.19,56.61,49,91.44,56,35.6,7.12,71.2,13.48,106.8,18.2q5.35-6.75,10.24-14c-36.83-4.55-73.65-11-110.48-18.21A145.38,145.38,0,0,1,686.86,648.46Z" style="fill: #fff"/>
    <path d="M778.87,419.17Q789,427,799.16,434.8q1.37-7.5,2.74-15Q790.38,419.57,778.87,419.17Z" style="fill: #fbd116"/>
    <path d="M794.73,459q8.49-7.31,17-14.73-6.27-4.72-12.54-9.51Q796.94,446.92,794.73,459Z" style="fill: #fbd116"/>
    <path d="M832,459.43q-4.9-12.15-9.81-24.34-5.23,4.64-10.48,9.22Q821.84,452,832,459.43Z" style="fill: #fbd116"/>
    <path d="M816.12,420l6.06,15.09q8.49-7.5,17-15.12Q827.65,420.11,816.12,420Z" style="fill: #fbd116"/>
    <path d="M801.9,419.8q-1.36,7.5-2.74,15,6.27,4.79,12.54,9.51,5.24-4.59,10.48-9.22L816.12,420Q809,419.94,801.9,419.8Z" style="fill: #fbd116"/>
    <path d="M806.33,395.54q-2.22,12.13-4.43,24.26,7.11.13,14.22.2Q811.23,407.79,806.33,395.54Z" style="fill: #fbd116"/>
    <path d="M713.85,338.65q11.6,2.14,23.2,4.16-2.32-7.87-4.67-15.75Q723.13,332.9,713.85,338.65Z" style="fill: #fbd116"/>
    <path d="M744.61,368.3q3.39-11.52,6.79-23-7.17-1.2-14.35-2.45Z" style="fill: #fbd116"/>
    <path d="M724.83,301.54q3.78,12.76,7.55,25.52,5.73-3.62,11.46-7.25Q734.33,310.72,724.83,301.54Z" style="fill: #fbd116"/>
    <path d="M762.37,308q-9.27,6-18.53,11.85,5.88,5.63,11.75,11.21Z" style="fill: #fbd116"/>
    <path d="M743.84,319.81q-5.73,3.65-11.46,7.25,2.34,7.88,4.67,15.75,7.17,1.24,14.35,2.45,2.08-7.12,4.19-14.24Q749.71,325.43,743.84,319.81Z" style="fill: #fbd116"/>
    <path d="M755.59,331q-2.1,7.13-4.19,14.24Q763,347.2,774.59,349,765.1,340.05,755.59,331Z" style="fill: #fbd116"/>
  </g>
</svg>
