<svg xmlns="http://www.w3.org/2000/svg" viewBox="0 0 1260 1012.04">
  <g>
    <path d="M0,90.08v920C420,738.76,840,1193.28,1260,922V2C840,273.28,420-181.24,0,90.08Z" style="fill: #0071bc"/>
    <path d="M908.35,459.2c14.31-38.64-3-49.1-3-49.12s8.33-31.27-14.31-34.26c11.1-24.47-14.32-54.36-14.32-54.46s4.06-37.89-36.1-46.49C850.25,212,806,220.78,806,220.55s8.11-51.87-48.07-54.22c-12.39-47.12-38.88-32.71-38.88-32.74s-16.44-36.36-35.67-22c-14.53-29.27-33.36-12.61-38.64-10.76C630.21,92.48,607.69,62,597.11,86.32c-8.33-6.8-25,5.57-25,5.58s-26.28-31.43-44,15.67c-34.82-26.69-42.72,13.7-42.72,13.63s-25.64-11.17-32.9,22.15c-37.6-9.15-38.24,29.65-38.24,29.51s-23.92-1.36-26.06,46.89c-34.18,17.17-21.57,66.1-21.57,66s-23.93,12.69-19.66,71.6c-26.48,26.49-.42,66.08-.42,66.11S326.24,443,345,484.21c-25.2,27.48,7.48,53.26,7.48,53.37s-14.74,23.24,9,45.42c-12.82,47,12,49.06,15.59,51.32-.92,8.25,1.36,16.73,7.48,20.9,0,.09-2.14,39.52,25.85,38.78-4.49,16,7.48,25.18,7.69,25.54s-.64,33.43,26.49,29.08c6.62,33.36,19.44,28.18,20.08,28.3s-8.33,37.4,32.25,46c17.31,30.2,40.59,34.84,40.59,34.85s15.59-102,12-118.31-31.18-11.21-31.19-11.16S514,694,484.32,689.7c6.41-17.62-9.83-21.33-9.83-21.31s16.45-25.47-18.37-36.61c4.92-32.62-5.12-30.46-16.45-39.52-.21-12.17,5.34-32.07-12.39-42.84,15.6-27.92-9.18-47.37-9.18-47.31s13-43.66-4.91-52.68C431.77,423.59,418.1,397,418.1,397s12.82-20.55,7.9-39.26c13.89-8.48,12.39-40.76,12.39-40.78s15.38-3.43,19.23-35.87c29.48-2.83,26.91-31.11,26.91-31.18s24.57,3.72,29.48-27.11C535.37,235.56,548.62,204,548.62,204s15.59,14.4,33.11-7.75c9.83,24.23,39.52,2,39.52,2s12.6,24.29,35.24,8.61c11.33,29,30.34,19.3,30.34,19.29s5.77,19,19,11.76c6.84,39.23,41,32.51,41.23,32.47s2.13,25.41,19.44,24.46c3.2,34,29.48,30.61,29.48,30.54s3.41,40.85,20.5,47.69c-7.47,35.15,13.25,45.85,13.25,45.8s-6.2,25.77,12.81,51.52c-17.94,12.76,2.14,67.35,2.35,68s-15.8,23-3.84,57.88C821.41,603.44,825.25,646,825.25,646s-18.8,19.81-19.65,46.78c-31,3.9-28.63,44-28.63,44.05s-24.13-1.43-30.54,33.49c-21.36-10.57-43.58,19.12-43.58,19.12h0c0,.32,7.48,93.56,8.33,94.36s44.38,22.23,53.41-19.37c37.16,20.83,39.94-32.79,39.94-32.68s29.23,1.86,30.33-27.33c28-16.59,20.51-36.61,20.51-36.53s28.2-2.55,28.63-46.32c22.21-9,17.09-46.63,17.09-46.57S921,661.31,916,603.67c16.23-35.61-1.71-67.74-1.5-67.44S941.46,499.19,908.35,459.2Z" style="fill: #fff"/>
    <path d="M909.89,458.82c5.25-14.66,6.65-27.09,4.16-36.92-1.87-7.36-5.42-11.15-7.19-12.66.87-4.11,2.74-15.55-1.14-24.43a17.21,17.21,0,0,0-12.66-10.41c3.65-10.23,2.29-22.55-4-35.9a95.68,95.68,0,0,0-11-17.82,50.63,50.63,0,0,0-5.35-25c-6-11.42-16.24-18.78-30.56-22.27,2.51-18.21.75-32.18-5.25-41.61-8.89-14-24.2-13.73-29.37-13.27.43-5.52.6-18.88-6.11-31-7.82-14.17-22.15-21.72-42.63-22.92-4-14.63-9.81-24.8-17.23-30.28a22.09,22.09,0,0,0-22.06-2.85,74.12,74.12,0,0,0-10.36-15.63c-8.62-9.66-17.4-11.93-25.44-6.56-12.93-24.65-28.73-15.94-36.39-11.72-1,.57-1.92,1.06-2.6,1.35-3.55-2.1-7.59-5.51-11.87-9.12-12.37-10.42-27.7-23.34-36.22-5.72-8.09-5-21.33,3.53-24.47,5.73-2.54-2.73-11.65-11.55-22.29-9.72-8.85,1.52-16.34,10-22.29,25.16-11.6-8.62-21.51-10.76-29.45-6.4-8.85,4.86-12.49,16.22-13.53,20.25a26.52,26.52,0,0,0-13.17-1.1c-6.81,1.27-15.69,6.45-19.76,23.37-13.33-3.09-23.54-.35-30.36,7.89-6.41,7.74-7.82,18-8.14,21.86-2.08.15-6.84,1-11.79,5.54-5.84,5.32-13,17-14.3,41.77-26.39,13.82-26.07,48.64-21.94,66.31-2,1.42-6.61,5.28-10.88,13.57-5,9.76-10.58,27.81-8.53,58.14a41.46,41.46,0,0,0-11.73,27c-1.09,18.07,7.83,34.67,10.8,39.69a38.67,38.67,0,0,0-7.15,14.5c-2.53,9.38-3.53,24.87,5.81,46.1-6.56,7.52-9.61,15.75-9.08,24.36.93,15,12.43,26.36,16.35,29.92A38.1,38.1,0,0,0,347,558.51c.94,9.19,5.32,17.59,13,25.14-4,15.39-4.44,27.68-1.19,36.51,3.94,10.71,12.15,13.63,16.1,15.08l.84.31c-.59,8.84,2.23,16.55,7.57,20.7-.07,4.36.25,18.73,6.92,29a22,22,0,0,0,18.45,10.56,26.37,26.37,0,0,0,8.26,24.73c.61,12.36,4.24,19.29,7.19,23,4.66,5.78,11.25,8.13,19.62,7.1,2.16,10.06,7.82,29.1,19.54,28.36-.43,4.75-1,15.7,4.38,25.92s15,16.67,28.71,19.77c17.42,29.94,40.16,34.77,41.13,35l1,.2.21-1.36c.64-4.2,15.63-102.63,11.93-119.27-3.54-15.93-25.92-13.69-31.46-12.8a62.16,62.16,0,0,0-5.8-16.68c-4.35-8.29-12.55-18.62-27.18-21.43a18.92,18.92,0,0,0-.18-11.81,16.24,16.24,0,0,0-9.3-9.09c1.66-3.48,4.12-10.35,2.18-17.84-2.21-8.52-9.37-15-21.31-19,3.62-26.16-2.94-30.35-11.2-35.51-1.78-1.11-3.61-2.25-5.49-3.69,0-1.91.15-4,.3-6.27.73-11.32,1.71-26.77-12-36.2a37.51,37.51,0,0,0,3.92-23.6c-2.16-12.66-10.52-21.12-13.5-23.76,1.63-6,7.07-28.23,2.37-42.73-1.43-4.41-3.66-7.72-6.65-9.83,15-22.76,6.65-46,4.25-51.63,2.49-4.35,11.51-21.62,7.88-38.49,12-8.58,12.27-34,12.15-40.35,3.51-1.36,15.41-7.81,19-35.64,25-2.88,27.08-24.33,27.12-31,5.07.18,24.16-.62,29.11-26.65a21.65,21.65,0,0,0,6,2.16c15.55,3,25.81-15.91,28.25-21,3.81,2.73,17.51,10.42,32.45-7.37a18.45,18.45,0,0,0,7.91,8.57c11.59,6,27.71-4.33,31.6-7,3.09,4.87,15.48,21.4,35,8.71,10.23,24.32,26,20.63,30.18,19.1,1.05,2.68,3.55,8.05,7.77,11a10.6,10.6,0,0,0,11,.95c6.94,33.56,33.56,33.05,41.11,32.07,2.57,15.38,9.54,24.18,19.31,24.33,1.08,8.83,3.81,16,8.13,21.16A26.23,26.23,0,0,0,795,327.26a138,138,0,0,0,3.73,19.88c3.84,14.2,9.44,23.52,16.26,27-2.14,11.25-1.67,21.22,1.41,29.66,3.52,9.63,9.4,14.36,11.9,16a70.57,70.57,0,0,0,12.26,50.07c-14.84,13.64-.91,57.15,3,68.2l-.11.21c-11.31,21.28-8.63,42.25-4,56.72-7.74,3.64-12.84,13.33-14.77,28.26a117.22,117.22,0,0,0-.62,21.76c-3.07,3.47-18.22,21.51-19.53,46-27.08,4.13-28.72,36-28.71,43.93-4.92.32-24.09,3.23-30.18,33C724.15,758.82,702.87,786.8,702,788l-.33.45v.71c0,.42,2.1,26.39,3.86,47.22,4,47.82,4.33,48.11,5.15,48.87,1,.93,21.74,11.24,37.91,4.12,8.38-3.68,14-11.33,16.84-22.69,11.1,5.94,20.27,5.78,27.28-.38,10.12-8.91,12.48-27.34,13-32.76a35.94,35.94,0,0,0,14.1-2.77c9.93-4.27,15.56-13,16.3-25.09,11.72-7.05,18.73-15.74,20.84-25.57a26.84,26.84,0,0,0,.17-10.72c5.93-1.19,27.32-8.78,28.16-46.48,9-4,14.88-13.63,16.87-27.63a83.94,83.94,0,0,0,.36-19.31c3.78-3.21,19.15-20.06,14.87-71.85,14.12-31.6,2.19-60.62-1.15-67.65,2.48-3.51,7.73-13.15,9.45-26.25C928.55,487.67,918.88,470.08,909.89,458.82ZM914.47,534l-.73.9-.82,1.16c.24.45.47.9.7,1.35,1.7,3.3,16.16,32.95,1.4,65.29-.08.18-.16.36-.25.54l.06.65c4.73,55.53-14.11,69.47-14.29,69.53l-.83.57.18,1.33a78.83,78.83,0,0,1-.23,19.28c-1.9,13.22-7.3,21.79-16,25.29l-.83.33c0,.42,0,.85,0,1.27-.41,41.65-26.46,44.67-27.56,44.66l-1.78.16.87,2.38a19.69,19.69,0,0,1,.2,10.33c-1.37,6.17-6,15.42-20.18,23.77l-.64.38c0,.34,0,.69,0,1-1,27.25-28.9,25.91-29.19,25.8l-1.06-.07c0,.51-.06,1-.08,1.54,0,.21-1.31,22.34-12.08,31.79-6.62,5.8-15.48,5.68-26.34-.46l-1.14-.63c-.11.52-.23,1-.34,1.57-2.19,10.07-6.73,17.17-13.48,21.06-14.06,8.11-34.07-.12-37.8-2.19-1.25-8.64-7.3-82.52-8-92.22,3-3.79,23.13-27.7,42.06-18.34l1.14.56c.09-.53.19-1.06.29-1.59,6.11-33.28,28.51-32.37,29.46-32.36l1.22.06-.1-1.8c-.09-1.65-1.85-38.59,27.64-42.32l.94-.12c0-.46,0-.93.05-1.39.82-25.85,19-45.34,19.2-45.57s.35-.38.53-.56l-.09-1c0-.44-3.48-41.16,15-47.95l1.35-.5-.66-1.92c-4.65-13.54-7.86-34,3.21-54.88.65-1.22,1-1.89.65-3a2,2,0,0,1-.08-.22c-2-5.48-18.72-54.1-2.76-65.46l1.52-1.09-1.34-1.8c-18.11-24.51-12.69-48.55-12.45-49.53l.42-1.76-1.27-.64c-.07,0-7.62-4-11.56-14.83-2.89-8-3.17-17.58-.82-28.61.13-.62.26-1.24.4-1.86l-1.36-.54c-16-6.4-19.47-45.63-19.5-46-.06-.64-.11-1.29-.17-1.93l-1.29.18c-.12,0-12.45,1.55-20.72-8.45-4-4.86-6.49-11.71-7.31-20.34-.05-.61-.11-1.22-.17-1.83l-1.23.07c-11.95.68-16.35-11.7-17.93-22.14-.11-.74-.32-2.12-1.31-2.3a1.1,1.1,0,0,0-.47,0c-5.57.91-33.63,3.2-39.58-30.93l-.39-2.23-1.35.74c-3.82,2.1-7.33,2.06-10.41-.09-4.68-3.27-6.92-10.44-6.94-10.5-.18-.58-.35-1.16-.53-1.75l-1.11.57c-.74.38-18.17,8.8-28.76-18.3l-.65-1.65-1,.72c-21.43,14.83-33.19-7-33.68-7.91-.23-.45-.46-.9-.7-1.35l-.89.67c-.19.14-18.62,13.74-30.61,7.52-3.17-1.65-5.53-4.47-7.22-8.63-.27-.67-.55-1.35-.82-2l-1.07,1.35c-16.64,21-31.1,8.25-31.7,7.7l-1-1-.56,1.35c-.13.32-13,30.31-33.22,18.21l-1.23-.73c-.1.59-.19,1.18-.29,1.77-1.94,12.2-7.25,20.23-15.79,24a25.68,25.68,0,0,1-12.52,2l-1.36-.19c.06.66.12,1.33.17,2,.1,1.16,2,26.69-25.91,29.37l-.85.09c-.05.4-.1.81-.14,1.21-3.66,30.84-17.73,34.43-18.32,34.6l-1,.22c0,.5,0,1,.07,1.5,0,.32,1.27,31.21-11.73,39.16l-1,.61c.14.52.27,1,.41,1.56,4.58,17.46-7.58,37.28-7.7,37.49s-.43.7-.65,1l.63,1.22c.52,1,12.75,25.64-4.84,50.12-.48.67-1,1.34-1.45,2l2,1c3.27,1.63,5.54,4.54,6.95,8.88,4.87,15-2.78,41-2.85,41.28-.16.52-.31,1-.47,1.55l1.09.84c.11.07,10.89,8.61,13.19,22.09,1.25,7.35-.25,14.89-4.48,22.46l-1,1.86,1.63,1c13.46,8.15,12.6,21.53,11.85,33.25-.18,2.78-.35,5.41-.3,7.82,0,.37,0,.74,0,1.11l.69.56a63.32,63.32,0,0,0,6.45,4.41c8.13,5.09,13,8.22,9.31,33-.09.62-.19,1.25-.28,1.88l1.34.42c11.58,3.64,18.72,9.54,20.62,16.87,2.19,8.42-3,16.6-3,16.68-.55.84-1.09,1.68-1.63,2.53l2.51.55c2,.44,7.56,2.7,9.46,7.71,1.1,2.92.88,6.57-.68,10.85l-.9,2.48,2,.29c28.19,4,32.57,35.65,32.74,36.93l.24,1.93,1.27-.25c7.35-1.45,27-2.35,29.72,9.72,2.75,12.37-6.38,80.38-11.78,115.94-4.55-1.31-24-8.12-38.72-33.88-.12-.2-.24-.4-.35-.61l-.51-.11c-13.27-2.89-22.5-9-27.43-18.33-5.16-9.78-4.08-20.58-3.72-24.13.14-1.39.21-2-.2-2.79l-.39-.69-.55-.08a1.75,1.75,0,0,0-.62.05c-8.06,1.49-14.55-8-18.29-26.92-.11-.53-.22-1.07-.32-1.6l-1.1.17c-8.16,1.27-14.46-.73-18.73-6-2.58-3.2-5.75-9.35-6.25-20.58a3.42,3.42,0,0,0-.4-1.84,2.47,2.47,0,0,0-.53-.57c-4-3.64-10.14-11.4-6.89-23,.25-.87.49-1.74.73-2.61l-2,0c-8,.17-14.16-3-18.35-9.37-7-10.66-6.18-27.21-6.17-27.38l.06-1.29-.82-.56c-6.07-4.13-7.46-12.46-6.73-18.91,0-.48.11-1,.16-1.45l-1-.57a12.44,12.44,0,0,0-2.11-.89c-3.87-1.42-11.05-4-14.44-13.21-3-8.11-2.41-19.85,1.69-34.86l.37-1.37-.88-.83c-7.59-7.16-11.88-15-12.75-23.4a33.29,33.29,0,0,1,4.06-19.3l1-1.66L353.08,536c-.16-.17-15.35-12.46-16.32-28.17-.47-7.69,2.57-15.2,9-22.21l.9-1c-.21-.47-.42-.95-.64-1.42-17.86-39.2.39-57.58,1.18-58.31l1.19-1.15c-.34-.52-.68-1-1-1.56-.13-.21-12.22-18.89-11-38.4a37.53,37.53,0,0,1,11.29-25l.58-.58-.07-1c-2.16-29.68,3.1-47.14,7.9-56.51,5.17-10.11,10.94-13.24,11-13.26l1.11-.58c-.14-.56-.28-1.11-.43-1.67-.49-1.8-11.74-47.36,20.9-63.73l.71-.35c0-.37,0-.74.05-1.11,2-46,24-45.46,24.89-45.34l1.14.08,0-1.67c0-.12.33-12.43,7.47-21,6.47-7.77,16.38-10.18,29.47-6.92l1,.24c.1-.44.19-.87.29-1.31,6.85-31.41,30.51-21.61,31.51-21.12l1.09.47.3-1.5c0-.14,3-14.42,12.63-19.69,7.54-4.1,17.12-1.79,28.48,6.94l1,.79.51-1.34c5.68-15.09,12.82-23.49,21.2-25,11.22-1.93,20.94,9.48,21,9.59.22.27.44.54.67.8l.67-.5c4.49-3.34,17.52-10.84,23.87-5.67l1,.8c.18-.41.36-.81.53-1.22,7.32-16.8,20.72-5.51,33.68,5.41,4.53,3.81,8.81,7.42,12.64,9.61l.38.21.35-.12a24.68,24.68,0,0,0,3.2-1.6c7.78-4.28,22.25-12.27,34.05,11.52l.7,1.4.92-.69c7.52-5.61,15.48-3.8,23.67,5.34a71.92,71.92,0,0,1,10.35,15.92l.61,1.35.93-.5a20.6,20.6,0,0,1,21,2.2c7,5.16,12.4,15,16.15,29.3l.34,1.29.9,0c20.11,1,34.06,8,41.46,21.41,7.71,14,5.33,30.28,5.31,30.44-.14.9-.28,1.79-.41,2.68l1.87-.34c.19,0,19.22-3.3,28.85,11.82,5.58,8.79,7,22.3,4.29,40.21l-.3,2,1.41.32c14.31,3.18,24.47,10.14,30.18,21.05a45.89,45.89,0,0,1,4.8,23.3c0,.35-.07.69-.11,1l.58.69c.24.38,24.39,29.24,14,52.06l-1.14,2.52,2.11.29c6.15.85,10.41,3.87,12.68,9,4,9.23.58,22.62.55,22.75-.15.55-.29,1.09-.43,1.64l1.13.7c.05,0,4.72,3,6.84,11.32,2.32,9.12.8,21-4.49,35.28-.16.42-.31.85-.47,1.28l.79,1c10.76,13.1,16.18,27,16.11,41.61C923.62,518.2,916.77,530.62,914.47,534Z"/>
    <path d="M755.93,850.13a8.33,8.33,0,0,1-.09-4.38l-2.17-2a12.65,12.65,0,0,0-.07,7c1.21,5.14,4.77,10.11,10.57,14.72.31-1,.63-2.07,1-3.1C758.78,857.35,756.62,852.93,755.93,850.13Z"/>
    <path d="M780.84,825.77l.57,3.56c.14,0,14.48-2.58,23.9,3.76l.82-3.22C796,823.06,781.45,825.67,780.84,825.77Z"/>
    <path d="M826.18,780.83c0-.16,0-.32,0-.48l-1.52-.21-.92-.31c-.44,3.33-.36,12.57,10.1,25.88.5-.87,1-1.74,1.51-2.61C825.72,790.82,825.89,782.93,826.18,780.83Z"/>
    <path d="M834.09,755.87l-1.45,2.69a37.09,37.09,0,0,0,23,12l.87.09c0-1.19,0-2.38,0-3.57C842.56,765.9,834.17,756,834.09,755.87Z"/>
    <path d="M745.17,770.06c0,.23.38,23.85-7.72,33.07l1.64,3c8.94-10.18,8.54-34.64,8.51-35.67Z"/>
    <path d="M775.59,736l-.6,3.35a36.75,36.75,0,0,0,10.37,3.39c4.9.81,10.86.67,16.34-2.5-.36-1.11-.72-2.23-1.09-3.35C789.5,743.31,775.72,736.09,775.59,736Z"/>
    <path d="M867.3,713.29l-2,1.91c.32.68,3.33,6.45,16.18,7.51,1.13.09,2.35.14,3.64.15l-.12-3.57C870.51,719.19,867.33,713.32,867.3,713.29Z"/>
    <path d="M805.46,690.58l-1,3.06c.11.1,9.09,6,18.64,7.26,4.24.59,8.6.27,12.34-1.81-.34-1.11-.68-2.23-1-3.35C823.33,701.9,805.62,690.72,805.46,690.58Z"/>
    <path d="M841.22,594.58l-1.23.55,1,1.21c0,.59,0,1.17,0,1.75-.42,0-.73-.44-.81-.58.22.42,1.5,3.71,5.94,26.94l2.34-.7C843,595.3,842.07,594.91,841.22,594.58Z"/>
    <path d="M845.2,536.75c.39,1.09.78,2.18,1.16,3.27,8.85-6,9.73-21.55,9.77-22.2l-2.44-.52C853.69,517.43,852.86,531.54,845.2,536.75Z"/>
    <path d="M897.47,480.25l2.12-1.62c-1.06-2.82,4.11-11.34,9.6-17.59-.51-1-1-1.9-1.54-2.84C895.62,471.83,896.82,478.49,897.47,480.25Z"/>
    <path d="M846.77,445c.23.6,5.65,14.92-3.71,23.5.46,1,.93,2,1.4,3.07,11.19-10.27,4.47-28,4.4-28.14Z"/>
    <path d="M817.08,371.81l.11,3.57c.42.05,10.19.94,14.58,14l2.17-1.34C828.82,372.82,817.55,371.85,817.08,371.81Z"/>
    <path d="M840,275.89l1.22.14-1.22-.14-1.22-.15A3.07,3.07,0,0,0,839,277c.28.69,1.12,2.82-2,6.92l1.73,2.73c2.94-3.93,3.71-7.72,2.26-11.35Z"/>
    <path d="M761.07,266.19c.06.14,5.59,14.05,4.63,29.34l2.43.75c1-16.52-4.76-31-5-31.63Z"/>
    <path d="M795.71,224.17l.24,3.58c2.65.05,10.63-3.84,11.53-4.29l-1-3.4C804.15,221.22,797.63,224.2,795.71,224.17Z"/>
    <path d="M759.34,167.65l-1.05-1.05v-1.78c-.93-.17-1.21,1.05-1.32,1.51-.79,3.44-2.64,17.7,2.89,24.58.48-.87,1-1.74,1.43-2.62C756.67,182.55,759,168.76,759.34,167.65Z"/>
    <path d="M745.56,240.15l-2.43-.46a32.65,32.65,0,0,0,3.6,16c1.82,3.85,2.92,6.17-.4,14.13.7.72,1.41,1.44,2.12,2.15,3.84-9.19,2.64-13,.22-18.07A27.71,27.71,0,0,1,745.56,240.15Z"/>
    <path d="M720.77,218.73c-1.06-.2-16.43,14.44-16.43,18.44l2.44.5a.9.9,0,0,1,0,.26c.71-2.64,13-14.62,14.6-15.74-.2-.56-.39-1.12-.58-1.68Z"/>
    <path d="M680.85,204.24c.06.11,5.87,10,4.48,21.24l2.4,1.12c1.61-13-4.88-24-5.16-24.5Z"/>
    <path d="M628.28,180c-3.26,9.2-6.43,15.62-8.29,16.76l1.21,3.36c3.19-2,7.18-12.18,9.28-18.1a2.25,2.25,0,0,1,.08-.24l-2.18-2.06Z"/>
    <path d="M583.33,169.37v2l-.94.7c.06.13,4.58,14.37-1.25,23,.61.91,1.23,1.82,1.85,2.72,5.22-7.74,3.61-20,1.83-26.1C584.52,170.69,584.19,169.55,583.33,169.37Z"/>
    <path d="M502.26,215.59l-2.19,1.2c.34,1,.54,1.62,13.84,7.22.12-1.15.25-2.29.38-3.44-5.52-2.34-11.7-5.11-12.49-5.76A1.81,1.81,0,0,1,502.26,215.59Z"/>
    <path d="M468.6,252.27l1,1.64.41,1.43c.77-.38,9.77-2.9,15.26-4.35-.23-1.18-.46-2.36-.7-3.53C469.07,251.61,468.87,251.94,468.6,252.27Z"/>
    <path d="M446.08,276.3a10.56,10.56,0,0,0-1.21-.39c0,1.19,0,2.37-.05,3.55.12,0,.45.15.92.32a55.17,55.17,0,0,0,9,2.55,6.38,6.38,0,0,0,3.86-.26c-.36-1.12-.73-2.23-1.09-3.35C456.71,279.19,454.08,279.11,446.08,276.3Z"/>
    <path d="M438.34,288.9l-1.16,3a.83.83,0,0,1-.13-.14s2.49,4,0,25.67l2.4.91C442.19,294.51,439.29,289.78,438.34,288.9Z"/>
    <path d="M387.3,220.41l6.09,13.9,2-1.78-6.09-13.91Z"/>
    <path d="M368.86,286c-.44-.86-.89-1.74-1.73-1.38-.28.55-.56,1.09-.83,1.64l1.22.08,0,.1-.9,1.07.28.53c4.75,9.32,9.64,15.05,14.53,17,.17-1.14.35-2.29.52-3.43C379,300.45,374.33,296.77,368.86,286Z"/>
    <path d="M415.31,358.7c.05.59.09,1.19.14,1.78v1.78c.42,0,10.32-1.77,12.08-3.25l-1.35-3.13C425.05,356.83,416.5,358.58,415.31,358.7Z"/>
    <path d="M410,409.34c0,.16,0,.28,0,.36l1.15.65v1.78c1.1.12,1.26-1.5,1.31-2,.19-2.13.8-8.63,6.88-12.77l-1.17-3.27C413.41,397.29,410.67,402.45,410,409.34Z"/>
    <path d="M401.82,431.47l-1.08.71,1.22.12-1.22-.12-1.22-.13c0,2.16,8.42,16.35,13.35,18.74.2-1.13.4-2.26.59-3.39C409.18,445.34,402.4,432.89,401.82,431.47Z"/>
    <path d="M396.69,455c-.36.32-.61.56-.75.65.17.56.33,1.12.49,1.68-.12-.58-.25-1.15-.38-1.73.13.58.26,1.15.38,1.73l.39,1.72a4.93,4.93,0,0,0,1.26-1c2.42-2.22,8.86-8.08,16-6.67,0-1.18.09-2.36.13-3.54C406.23,446.22,399.3,452.57,396.69,455Z"/>
    <path d="M395.1,491.48h-1.21l1.22.07-1.22-.07-1.22-.05a10.24,10.24,0,0,0,2,5.34c2.09,2.91,6.48,6.19,15.73,7.23a62.09,62.09,0,0,0,7.17.35l-.21-3.58C396,501,395.11,491.63,395.1,491.48Z"/>
    <path d="M395,532l1.4.14,1,.61c0-.2,6.48-21.43,20.1-28.14-.32-1.13-.63-2.26-.94-3.39C402.15,508.24,395,530.9,395,532Z"/>
    <path d="M413.78,562.33l2.33,1.33c0-.07,2.1-8.74,13-13.55l-.89-3.44C416.12,552,413.87,561.93,413.78,562.33Z"/>
    <path d="M427.1,601.25l1.54,3c2.28-2.44,8.71-8.89,11-9.69-.26-1.16-.52-2.32-.77-3.48C435.73,592.13,428,600.31,427.1,601.25Z"/>
    <path d="M439.15,632.61l-.87,1.13.88-1.1-.88,1.1-.88,1.11a8.18,8.18,0,0,0,5.68,3.6c3.12.44,7.61-.69,13.66-6.13-.47-1-.95-2.07-1.42-3.11C443.81,639.58,439.19,632.7,439.15,632.61Z"/>
    <path d="M377.37,631.47l-.41.08c.13,1.18.26,2.36.4,3.54l.48-.09c7.15-1.5,19.87-2.12,24.67,9l2-1.74C400.41,632.7,390.76,628.71,377.37,631.47Z"/>
    <path d="M384.36,654.38c.1,1.19.21,2.37.31,3.56,9.08-1,19.75-.73,21.15,1,.5-.88,1-1.75,1.52-2.62C404.61,652.76,389.06,653.85,384.36,654.38Z"/>
    <path d="M455.29,670.86a.65.65,0,0,1,0,.57l-2.2-1.86a4.41,4.41,0,0,0,.36,3.44,3.68,3.68,0,0,0,3.11,1.94c2.84.44,8.38-.3,19.61-4.48l-.84-3.48C457.67,673.62,455.38,671,455.29,670.86Z"/>
    <path d="M483.12,688.33c-2.22,5.14-2.09,10.17-2,14.21.11,4.67.07,7-2.15,8.52.42,1.1.83,2.19,1.24,3.28,3.57-2.47,3.45-7.07,3.34-11.52-.09-3.76-.2-8,1.66-12.33Z"/>
    <path d="M417.28,672.71c.7,9.53-1.5,15.91-6.55,19a4.91,4.91,0,0,0-.52.35l1.33,3.13.27-.17c7.55-4.61,8.46-14.71,7.9-22.4Z"/>
    <path d="M419.05,717.8c-.56.24-.95.42-1.11.46l.6,3.53a14.13,14.13,0,0,0,1.37-.55c11.62-5,14.14-3.3,14.68-2.37l1.8-2.16C433.81,712.24,426.17,714.71,419.05,717.8Z"/>
    <path d="M443.41,747.89l2.41.87c.7-6.68,2.63-16.41,4.76-17.13-.26-1.16-.51-2.33-.77-3.49C445.51,729.6,443.73,744.85,443.41,747.89Z"/>
    <path d="M464.87,775.91l.06,3.56c.47,0,11.6,1.42,16.67-3.15-.48-1-1-2.08-1.45-3.12C475.7,777.22,465,775.91,464.87,775.91Z"/>
    <path d="M487.15,721.06c-.23.45-.47.89-.7,1.33l.86-1.11-.86,1.11-.86,1.11c.61,1,5.62,5.28,15.09,7a51.81,51.81,0,0,0,18-.13c-.19-1.19-.39-2.38-.58-3.56C496.92,730.42,487.24,721.18,487.15,721.06Z"/>
    <path d="M493.37,794.68c.83,6.36,3,23.77,2.77,27.79l2.43.69c.26-5.31-2.69-27.79-2.81-28.74Z"/>
    <path d="M796.58,327.1q4.18.66,8.37,1.29v-3.56q-4.19-.63-8.37-1.29Z"/>
    <path d="M655,206.27l1.23,3.33c4.65-3,8-16.4,8.14-17l-2.3-1.65C661.17,194.53,658.19,204.2,655,206.27Z"/>
    <path d="M571.81,93.31a2.07,2.07,0,0,1-.27-.68c.21,1.21.63,11-3.66,18.65l2,2.52c5-9,4.58-21.14,3.68-22.64Z"/>
    <path d="M527,108.12l1.22.23-1.22-.23-1.22-.24,0,.42c.35,3.38,0,11.32-10.47,12.5l.5,3.58c12.89-1.45,12.74-12.71,12.37-16.22Z"/>
    <path d="M707.77,842.21h0l4.11,28.47c0-.23,34.66-11,72.08-52.61,37.43-41.28,77.63-113.34,88.74-229.18C834.43,814.54,707.77,843.17,707.77,842.21Z" style="fill: #f7df73;fill-rule: evenodd"/>
    <path d="M873,586.72c-.81-.3-1.58.36-1.77,1.49-19.64,115-63.13,178.75-96.15,210.42-34.65,33.46-65.34,40.79-67.58,41.33a1,1,0,0,0-.37.1,2.19,2.19,0,0,0-.84,2.31q2.06,14.24,4.12,28.47a2.88,2.88,0,0,0,.75,1.63,1.44,1.44,0,0,0,.74.42,1,1,0,0,0,.52,0c.35-.15,35.34-11.79,72.55-52.94,34.35-37.71,77.71-110.35,89.25-230.61A2.51,2.51,0,0,0,873,586.72ZM783.05,816.14C750.8,851.81,720.26,865,713,867.87q-1.71-11.88-3.43-23.77c6.5-1.74,35.24-10.6,67.27-41.53,29-27.92,66.09-80.14,88.34-169.81C848.69,725.54,812.51,783.71,783.05,816.14Z"/>
    <path d="M378.33,493.06c11,119.17,50.83,201.52,87.92,256,37.08,54.15,71.42,80.41,71.42,80.19q2-13.66,4.07-27.31h0C541.74,800.9,416.23,725.05,378.33,493.06Z" style="fill: #f7df73;fill-rule: evenodd"/>
    <path d="M542.4,800a1.88,1.88,0,0,0-.36-.24c-2.23-1.41-32.53-21.64-66.84-67.41-32.76-43.94-75.91-119.59-95.38-239.72-.19-1.17-1-2-1.77-1.82s-1.35,1.21-1.24,2.4c11.43,123.89,54.39,207.14,88.42,257.28,36.87,54,71.55,80.47,71.9,80.69a1.26,1.26,0,0,0,.54.25.94.94,0,0,0,.73-.13,1.82,1.82,0,0,0,.76-1.34l4.08-27.31A3.1,3.1,0,0,0,542.4,800Zm-5.85,25.91c-7.28-5.88-37.48-31.76-69.38-78.57C438,704.44,402.26,636.59,385.9,539.64c22.06,94.81,58.67,157.51,87.39,195.91,31.74,42.3,60.23,63.16,66.67,67.54Q538.25,814.51,536.55,825.94Z"/>
    <path d="M739.72,835c-6.39-1.53-12,8.2-12,8.2s-5.56,5.83-11.33,5.57-2.06,11,4.33,10.19h0c3.91.79,13.6-13,19.16-13.69S746.1,836.55,739.72,835Z" style="fill: #8c1800"/>
    <path d="M766.71,816c-3.3,2.11-2.68,8.86-12.78,12.73s-6.18,6.67-6.18,6.67h0a5.92,5.92,0,0,0,6.18,1.75c2.88-.66,13-12.38,15-12.93s10.92-7.44,9.48-11.9S770,813.83,766.71,816Z" style="fill: #8c1800"/>
    <path d="M533.16,805.13c-5.72-2-11.23-10.16-11.23-10.16s-5.51-12.09-11.84-13-5.72,7.52-.21,10.38,15.11,20.64,19,21.4h0C535.2,817.17,538.88,807.18,533.16,805.13Z" style="fill: #8c1800"/>
    <path d="M496,770.24c-10-7.6-9.4-14.21-12.66-17.54s-10.21-11.83-11.64-7.77,7.35,14.08,9.39,15.36,12.05,16.78,14.91,18.53,4.9,1.49,6.12.49h0S506,777.87,496,770.24Z" style="fill: #8c1800"/>
    <path d="M793.7,792.81h0s-13.19,9-11.33,12,13.6-8.3,13.8-8.59S801.12,788.27,793.7,792.81Z" style="fill: #8c1800"/>
    <path d="M793,790.73l0,0c-4.42,3-11.89,8.65-12.26,12.67a4.52,4.52,0,0,0,.61,2.76,2.43,2.43,0,0,0,1.75,1.2c4.64.79,14.11-9.29,14.21-9.44s3.17-4.29,1.74-7.33C797.79,788.07,795.37,789.28,793,790.73Zm-7.63,11.57a64.21,64.21,0,0,1,9.08-7.42l.59-.36A57.3,57.3,0,0,1,785.36,802.3Z" style="fill: #8c1800"/>
    <path d="M456.59,720.18h0c-7.35-6.93-2.66,2.36-2.45,2.69S466,738.48,467.82,736,456.59,720.16,456.59,720.18Z" style="fill: #8c1800"/>
    <path d="M457.37,718.38l-.05,0c-2.25-2.13-4.76-4.21-6-2-1.46,2.61,1.67,7.92,1.7,8s10.12,13.61,14,14.25h0a1.83,1.83,0,0,0,1.84-.75,3.75,3.75,0,0,0,.59-2.57C469.13,731,461.74,722.83,457.37,718.38Zm-2.15,3.08h0l.61.56a98.17,98.17,0,0,1,9.07,10.58A97.39,97.39,0,0,1,455.22,721.46Z" style="fill: #8c1800"/>
    <path d="M811.8,765.37c-7.22,10.74-8.31,12.13-8.45,12.31l1.27,2.4-.7,2.59a1.65,1.65,0,0,0,.7.37c1,.15,2.45-1.93,10.14-13.38a3.94,3.94,0,0,0-.16-4.11C813.78,764.36,812.53,764.29,811.8,765.37Z" style="fill: #8c1800"/>
    <path d="M824.84,744.28q-4.12,6.83-8.24,13.61a3.66,3.66,0,0,0,.26,3.79,1.84,1.84,0,0,0,1.15.77,1.44,1.44,0,0,0,1.42-.79q4.13-6.79,8.24-13.62a3.64,3.64,0,0,0-.26-3.79A1.44,1.44,0,0,0,824.84,744.28Z" style="fill: #8c1800"/>
    <path d="M840.14,715.77a1.32,1.32,0,0,0-2.31.49q-4.64,10.26-9.28,20.48a3.34,3.34,0,0,0,.54,3.44,1.49,1.49,0,0,0,.88.49,1.41,1.41,0,0,0,1.43-1q4.64-10.23,9.27-20.5A3.34,3.34,0,0,0,840.14,715.77Z" style="fill: #8c1800"/>
    <path d="M850.85,686.41c-.75-.63-1.66-.29-2,.77q-3.81,10.7-7.63,21.37a3,3,0,0,0,.69,3.07,1.33,1.33,0,0,0,.68.32,1.37,1.37,0,0,0,1.36-1.07q3.81-10.68,7.63-21.4A3,3,0,0,0,850.85,686.41Z" style="fill: #8c1800"/>
    <path d="M855.75,670.67c-.77-.6-1.67-.21-2,.87q-1.25,3.78-2.47,7.55a2.94,2.94,0,0,0,.74,3,1.34,1.34,0,0,0,.64.28c.57.06,1.12-.36,1.38-1.15q1.25-3.78,2.47-7.56A2.92,2.92,0,0,0,855.75,670.67Z" style="fill: #8c1800"/>
    <path d="M861,650.6c-.48-.28-1,.06-1.15.75-.69,3-1.37,6.07-2.06,9.11a1.67,1.67,0,0,0,.59,1.74.63.63,0,0,0,.28.1c.39,0,.75-.29.87-.84.69-3,1.37-6.08,2.06-9.12A1.66,1.66,0,0,0,861,650.6Z" style="fill: #8c1800"/>
    <path d="M438.7,686.87c-.73-1.31-2-1.61-2.81-.67a3.82,3.82,0,0,0-.2,4.07c7.64,13.88,9,16.44,10.07,16.58a1.28,1.28,0,0,0,.71-.16c-.24-.94-.47-1.88-.7-2.82l0-.12,1.35-1.87C446.93,701.66,445.85,699.88,438.7,686.87Z" style="fill: #8c1800"/>
    <path d="M425.77,661.81c-.63-1.25-1.79-1.59-2.58-.76a3.46,3.46,0,0,0-.3,3.73q4.08,8,8.17,16.06a2,2,0,0,0,1.44,1.2,1.3,1.3,0,0,0,1.14-.43,3.46,3.46,0,0,0,.3-3.72Z" style="fill: #8c1800"/>
    <path d="M412.9,630c-.48-1.22-1.52-1.71-2.31-1.09a3,3,0,0,0-.56,3.31l9.19,23.14a2,2,0,0,0,1.44,1.35,1.16,1.16,0,0,0,.87-.25,3,3,0,0,0,.56-3.31Q417.5,641.55,412.9,630Z" style="fill: #8c1800"/>
    <path d="M402,597.85c-.37-1.15-1.29-1.71-2-1.24a2.59,2.59,0,0,0-.7,2.91Q403,611.25,406.82,623a1.84,1.84,0,0,0,1.38,1.41,1,1,0,0,0,.67-.15,2.58,2.58,0,0,0,.7-2.91Q405.79,609.58,402,597.85Z" style="fill: #8c1800"/>
    <path d="M397.14,580.87c-.35-1.16-1.26-1.76-2-1.32a2.56,2.56,0,0,0-.77,2.88q1.23,4.1,2.45,8.21a1.85,1.85,0,0,0,1.4,1.45,1,1,0,0,0,.63-.13,2.56,2.56,0,0,0,.77-2.88Q398.36,585,397.14,580.87Z" style="fill: #8c1800"/>
    <path d="M391.11,559.05c-.15-.72-.67-1.16-1.15-1a1.42,1.42,0,0,0-.6,1.63l2,9.68a1.16,1.16,0,0,0,.88,1,.63.63,0,0,0,.27,0,1.4,1.4,0,0,0,.6-1.63Z" style="fill: #8c1800"/>
    <polygon points="432.89 221.55 432.89 221.55 432.89 221.55 432.89 221.55" style="fill: #217900"/>
    <path d="M432.89,221.55c-.22-.35,1.45,10.89,1.45,24.7s-9.25,30.37-9.14,49.12,8.55,37.35,8.55,37.36.33-13.18-.54-20.67c-1.41-18.61,5.62-42.37,7.36-59.89A47.93,47.93,0,0,0,432.89,221.55Z" style="fill: #217900"/>
    <path d="M433.7,220.33a1.41,1.41,0,0,0-.45-.43.9.9,0,0,0-.28-.12.84.84,0,0,0-.65.1c-.82.5-.73,1.32-.48,3.75a218.2,218.2,0,0,1,1.28,22.46c0,6-1.93,12.83-4,20.07-2.45,8.71-5.23,18.59-5.17,29.07.11,19.07,8.42,37.6,8.77,38.39a1.38,1.38,0,0,0,1,.89.84.84,0,0,0,.35,0A1.55,1.55,0,0,0,435,333c0-.54.32-13.45-.55-20.94-.88-11.64,1.64-25.37,4.07-38.64,1.37-7.43,2.65-14.44,3.28-20.79a51,51,0,0,0-6.1-29.1A22.07,22.07,0,0,0,433.7,220.33Zm5.66,31.42c-.61,6.15-1.88,13.07-3.23,20.4-2.49,13.59-5.06,27.64-4.12,40.05.46,4,.57,9.8.58,14.17-2.45-6.77-6.1-18.87-6.17-30.86-.06-9.78,2.51-18.92,5-27.74,2.13-7.55,4.14-14.67,4.14-21.35,0-7.78-.53-14.76-.95-19.35A45.73,45.73,0,0,1,439.36,251.75Z"/>
    <path d="M414.48,258.13c-1.16,8.4-1.61,48.11-1.75,65.74-.27,5.38-1.81,26.58-2.14,34.32s9-12.23,9.52-29.29c-.29-17.78-.29-55.15.95-60.62,1.1-7.08.86-15.09,2.56-22.11,2.25-9.77,4.76-19.75,4.65-19.93h0S416.05,241.74,414.48,258.13Z" style="fill: #217900"/>
    <path d="M427.43,224.85c-.51.62-12.54,16.09-14.14,32.79-1.21,8.71-1.65,49.11-1.78,66-.1,2.13-.41,6.75-.77,12.11-.55,8.23-1.17,17.55-1.36,22.24a4.76,4.76,0,0,0,.79,3.27,1.35,1.35,0,0,0,.85.46,1.3,1.3,0,0,0,.86-.22c2.76-1.76,9-18.16,9.45-32.45-.35-21.34-.17-55.34.92-60.19.46-3,.7-6.2.92-9.28a79.89,79.89,0,0,1,1.61-12.68c1-4.31,2-8.67,2.88-12.2,2.07-8.62,2.07-8.62,1.47-9.57C428.67,224.35,427.91,224.24,427.43,224.85Zm-2.07,8.37c-.86,3.54-1.91,7.92-2.9,12.22a84.63,84.63,0,0,0-1.71,13.42c-.23,3.13-.44,6.07-.85,8.74-1.41,6.22-1.23,47.63-1,61.07a75.25,75.25,0,0,1-7,27.83c.26-5.05.81-13.34,1.27-20.17.36-5.38.67-10,.78-12.3.1-13.15.53-56.76,1.74-65.51.95-9.89,6.07-19.65,9.7-25.45Z"/>
    <path d="M366.91,395.28c-3.27-7.25-6-24.93-7.41-34.42-.09-.58-.18-1.16-.26-1.75-1.53-9.95-9.63-26.83-10-27.53s-.85-.93-1.36-.72a1.78,1.78,0,0,0-.84,1.66c0,.68-.21,71.21-1.06,87a42,42,0,0,1-3.1,13.7c-2.18,6-4.64,12.8-4.12,28.74.85,26.16,21.2,36.28,31,37.43,7.12.34,12.28-4.84,15.35-9.25,4.5-6.46,7.43-15.66,7.29-23.05-.68-11.67-9-35.51-24.78-70.25Zm16.43,92.21c-2.75,4-7.35,8.61-13.58,8.32-5.81-.74-27.7-8-28.55-34-.49-15,1.72-21,3.85-26.91a47,47,0,0,0,3.37-15.06c.71-13.26,1-64.3,1.05-81.53,2.52,5.7,6.43,15.26,7.38,21.42.09.58.18,1.16.26,1.75,1.59,10.4,4.24,27.81,7.78,35.64l.7,1.54c19.33,42.6,23.92,60.88,24.36,68.34C390.08,473.43,387.42,481.63,383.34,487.49Z" style="fill: #6b18b5"/>
    <path d="M490.54,120.36c-.36,0-8.79-.57-15.47,3.61-.61.45-1.28.93-2,1.43-5.31,3.77-12.58,9-18,19-7,6.88-15.44,11.56-23.61,16.19-9.8,5.55-18.27,10.48-22.34,18.15-2.62,5.65-3.46,15.63-2.09,24.83.94,6.27,3.28,15,9.16,21.12,4.18,4,11.42,8.51,18.83,9.51,7.26,1,14.69-1.42,19.55-11.19,6-12.1,6.35-19.67,6.65-26.36.2-4.55.4-8.84,2.36-14.24,7-27.13,22.62-52.93,27.23-60.14l.27-.44a1.32,1.32,0,0,0,0-1A.76.76,0,0,0,490.54,120.36Zm-28.07,61.17c-2.05,5.62-2.25,10.1-2.47,14.83-.3,6.78-.61,13.77-6.44,25.49-9.32,18.71-28.75,8.89-36.68,1.37-5.49-5.71-7.69-13.95-8.58-19.89-1.3-8.74-.53-18.17,1.9-23.4,3.86-7.27,12.59-12.35,21.84-17.58,8.26-4.67,16.8-9.4,23.91-16.42a.59.59,0,0,0,.13-.17c5.25-9.83,12.42-15,17.65-18.68l2-1.41c4.77-3,10.67-3.45,13.4-3.49C483.69,130.82,469.18,155.61,462.47,181.53Z" style="fill: #6b18b5"/>
    <path d="M685.18,117.44c-3.45-2-8.11-3.21-13.52-4.61-3.91-1-7.95-2.06-12.11-3.55-9-3.78-18.3-11.36-26.54-18-9.91-8.06-18.47-15-25.19-15.12-4.75.35-10.28,5.28-13.78,12.26a38.51,38.51,0,0,0-3.51,22.82c1.62,9.64,9,33.2,24.5,36.56a17.39,17.39,0,0,0,4.55.39c11-.45,15.17-2.83,19.19-5.13a29.54,29.54,0,0,1,8.7-3.68l.12-.05c21.94-13.18,44.32-7.63,50.66-5.65.34.11.38.12.49.11a.63.63,0,0,0,.47-.57,1.42,1.42,0,0,0-.19-.95C698.75,131.81,692.43,122.3,685.18,117.44ZM647,137.51a30.47,30.47,0,0,0-8.86,3.75c-3.93,2.25-8,4.58-18.81,5-17.66.72-25.92-25.22-27.6-35.24a36.25,36.25,0,0,1,3.33-21.43C598.41,83,603.63,78.3,608,78a10.71,10.71,0,0,1,2,.25c6.13,1.33,14.09,7.8,22.47,14.61s17.71,14.39,26.86,18.24c4.23,1.52,8.48,2.63,12.23,3.6,5.32,1.38,9.92,2.56,13.21,4.47,4.95,3.32,9.58,9.1,11.86,12.19C688.64,129.1,667.65,125.15,647,137.51Z" style="fill: #6b18b5"/>
    <path d="M902.4,430.86c0-.21-.09-.42-.14-.64-1.84-8.51-4.62-21.33-11.19-33.14-3.67-12.34-5.37-27-6.87-39.91-1.81-15.57-3.38-29-7.72-37a23.71,23.71,0,0,0-16.16-10.5,16.06,16.06,0,0,0-15.55,6.45c-6.59,9.3-16.4,35-4.64,55.5,7.2,12.52,12.12,15.27,16.46,17.69a24.25,24.25,0,0,1,9.08,7.67c10.18,11,17.78,25.73,23.87,37.54,5.82,11.26,10.41,20.1,15.21,22.12l.16,0c.24,0,.47-.19.57-.52,1.18-3.86,0-9.9-1.58-17.55C903.4,436.15,902.88,433.59,902.4,430.86Zm2.11,23.76c-4.21-2.3-8.55-10.64-14-21.14-6.16-11.91-13.82-26.79-24.11-37.86a25.22,25.22,0,0,0-9.47-8c-4.39-2.44-8.93-5-15.9-17.09-11.16-19.44-1.7-44.07,4.61-53a15,15,0,0,1,14-6.09l.64.08a22.31,22.31,0,0,1,15.24,9.8c4.11,7.53,5.72,21.38,7.42,36.06,1.53,13.07,3.25,27.9,7,40.48a.88.88,0,0,0,.1.22c6.44,11.56,9.19,24.23,11,32.63.05.19.09.39.13.59.48,2.71,1,5.29,1.5,7.78C904,445.58,905.14,451.25,904.51,454.62Z" style="fill: #6b18b5"/>
    <path d="M907.29,525.65c-3.53-3.24-9.09-6.67-15.58-4.64a35.36,35.36,0,0,0-15.12,12.17c-5.84,8.16-8,18.46-6.25,29.88,2.42,15.78,5.42,22,8.32,27.94a59.62,59.62,0,0,1,5,13.33c5.25,15.54,6.22,32,7.07,46.45.88,15,1.58,26.92,6.72,32.8a.55.55,0,0,0,.37.21h.1a.57.57,0,0,0,.41-.34c1.9-3.71,7.67-15.06,7-24.8-.26-4,.53-12.68,1.28-21.12.54-6,1.05-11.73,1.17-15.48.75-11.89,3.34-22.74,5.86-33.26,3.45-14.45,6.71-28.13,4.76-42.71A38.64,38.64,0,0,0,907.29,525.65Zm5.22,62.48c-2.53,10.61-5.15,21.57-5.92,33.72-.11,3.72-.62,9.37-1.16,15.36-.76,8.54-1.55,17.37-1.28,21.54.55,8.48-4.3,18.61-6.41,22.79-4.23-5.59-4.89-16.79-5.72-30.83-.86-14.66-1.84-31.27-7.16-47A61.41,61.41,0,0,0,879.68,590c-2.83-5.82-5.75-11.84-8.11-27.23-1.68-10.92.31-20.39,5.92-28.22a34.14,34.14,0,0,1,14.56-11.75,12.36,12.36,0,0,1,4.39-.54c4.17.27,7.72,2.66,10.21,4.93a36.66,36.66,0,0,1,10.59,19.23C919.12,560.47,915.91,573.92,912.51,588.13Z" style="fill: #6b18b5"/>
    <path d="M612.77,84.62c-3.8-.83-6.89,1.75-6.89,5.76a9.29,9.29,0,0,0,6.89,8.75c3.81.83,6.9-1.75,6.9-5.75A9.29,9.29,0,0,0,612.77,84.62Z" style="fill: #6b18b5"/>
    <path d="M615.52,102.39c-3.92-.85-7.1,1.58-7.1,5.42a9.22,9.22,0,0,0,7.1,8.5c3.92.85,7.1-1.57,7.1-5.41A9.23,9.23,0,0,0,615.52,102.39Z" style="fill: #6b18b5"/>
    <path d="M626.67,104.23c3.35,4.28,12.57-5,12.57-5l-7.8-6.44S623.33,100,626.67,104.23Z" style="fill: #6b18b5"/>
    <path d="M867.67,331.86a2.9,2.9,0,0,0-4.26-.41c-1.32,1.13-2.13,3.38-2.13,5.91a9.53,9.53,0,0,0,2.13,6.34,2.89,2.89,0,0,0,4.26.41c1.31-1.14,2.12-3.4,2.12-5.92A9.51,9.51,0,0,0,867.67,331.86Z" style="fill: #6b18b5"/>
    <path d="M862.26,312.89c-2.46-.25-4.45,2.95-4.45,7.16s2,7.84,4.45,8.09,4.44-3,4.44-7.19S864.71,313.13,862.26,312.89Z" style="fill: #6b18b5"/>
    <path d="M867.09,351.5c-1-.1-1.74,1.6-1.74,3.78s.78,4,1.74,4.12,1.74-1.6,1.74-3.79S868.05,351.59,867.09,351.5Z" style="fill: #6b18b5"/>
    <path d="M874.25,320.81c-1-.09-1.74,1.86-1.74,4.36s.78,4.59,1.74,4.67S876,328,876,325.48,875.21,320.89,874.25,320.81Z" style="fill: #6b18b5"/>
    <path d="M854.71,322.84c-1-.1-1.74,1.45-1.74,3.48s.78,3.76,1.74,3.86,1.74-1.45,1.74-3.48S855.67,323,854.71,322.84Z" style="fill: #6b18b5"/>
    <path d="M855.87,345c-2-.21-3.67,2.26-3.67,5.54s1.64,6.11,3.67,6.33,3.68-2.27,3.68-5.55S857.9,345.21,855.87,345Z" style="fill: #6b18b5"/>
    <path d="M846.78,334.08c-1.71-.19-3.1,1.92-3.1,4.72s1.39,5.25,3.1,5.45,3.09-1.92,3.09-4.73S848.48,334.28,846.78,334.08Z" style="fill: #6b18b5"/>
    <path d="M847,321.13a1.92,1.92,0,0,0-2.71-.32,4.49,4.49,0,0,0-1.35,3.51,5.63,5.63,0,0,0,1.35,3.84,1.92,1.92,0,0,0,2.71.32,4.53,4.53,0,0,0,1.35-3.52A5.59,5.59,0,0,0,847,321.13Z" style="fill: #6b18b5"/>
    <path d="M878.14,393.91c-3.9,3.36-3.82,12.61.18,20.65s10.39,11.77,14.28,8.33,3.82-12.68-.18-20.65S882,390.54,878.14,393.91Z" style="fill: #6b18b5"/>
    <path d="M896.73,526c-4.67-1.11-9.08,5.57-9.86,14.95s2.39,18,7,19.08,9.08-5.62,9.85-15S901.39,527.08,896.73,526Z" style="fill: #6b18b5"/>
    <path d="M900.24,608.06c-4.6-1.67-9.4,4.41-10.73,13.63s1.32,18.1,5.92,19.8,9.41-4.45,10.74-13.7h0C907.5,618.54,904.84,609.73,900.24,608.06Z" style="fill: #6b18b5"/>
    <path d="M913.21,544c-2.14-.1-3.87,2.85-3.87,6.6s1.73,6.86,3.87,7,3.87-2.87,3.87-6.62S915.35,544.05,913.21,544Z" style="fill: #6b18b5"/>
    <path d="M911.47,560.68c-2.9.15-3.69,5-3.87,5.32h0q-4,6.38-7.93,12.7s-7.44-.19-7.06,3.36,10.26,14.77,10.16,19,6.57-.64,6.57-.65,5.32-23.34,5.32-23.48S914.37,560.53,911.47,560.68Z" style="fill: #6b18b5"/>
    <polygon points="386.04 473.12 386.04 473.12 386.04 473.12 386.04 473.12" style="fill: #6b18b5"/>
    <path d="M382.27,467.28c-2.09-.17-3.78,2.16-3.78,5.2s1.69,5.65,3.78,5.82,3.77-2.14,3.77-5.18S384.35,467.46,382.27,467.28Z" style="fill: #6b18b5"/>
    <path d="M385.83,450.45c-2.08-.19-3.77,2.28-3.77,5.49s1.69,6,3.77,6.14,3.77-2.26,3.77-5.47S387.91,450.63,385.83,450.45Z" style="fill: #6b18b5"/>
    <path d="M352,368.05c-2.22,1.34-2.87,6.24-1.45,10.94s4.36,7.43,6.58,6.11,2.87-6.21,1.46-10.92S354.25,366.72,352,368.05Z" style="fill: #6b18b5"/>
    <path d="M358.93,416.62c-3.05,1.7-3.95,8-2,14.15s6,9.7,9.05,8,3.94-8,2-14.13S362,414.92,358.93,416.62Z" style="fill: #6b18b5"/>
    <path d="M373.23,446.24c-3.25-1.25-6.4,3.81-7,11.27S367.7,472,371,473.23s6.41-3.79,7-11.24S376.49,447.48,373.23,446.24Z" style="fill: #6b18b5"/>
    <path d="M360.23,449.4c-3-2.44-7,1.16-9,8s-1.26,14.38,1.69,16.79,7-1.17,9-8S363.17,451.85,360.23,449.4Z" style="fill: #6b18b5"/>
    <path d="M350.4,443.41c-2.32-.11-4.2,2.69-4.2,6.24s1.88,6.51,4.2,6.62,4.19-2.66,4.19-6.21S352.71,443.52,350.4,443.41Z" style="fill: #6b18b5"/>
    <path d="M347.46,428c-2.08-.1-3.77,2.44-3.77,5.65s1.69,5.89,3.77,6,3.78-2.43,3.78-5.64S349.55,428.07,347.46,428Z" style="fill: #6b18b5"/>
    <path d="M351.12,393.55c-2-.1-3.67,4.21-3.67,9.62s1.65,9.87,3.67,10,3.67-4.2,3.67-9.61S353.15,393.65,351.12,393.55Z" style="fill: #6b18b5"/>
    <path d="M363.33,391.26c-2-.52-4,3.39-4.52,8.73s.74,10.07,2.75,10.58,4-3.39,4.52-8.72S365.34,391.77,363.33,391.26Z" style="fill: #6b18b5"/>
    <path d="M443.09,158.62c-3.4-2.31-7.37,1.83-8.86,9.23s0,15.23,3.44,17.52,7.37-1.83,8.86-9.2S446.48,160.92,443.09,158.62Z" style="fill: #6b18b5"/>
    <path d="M423.58,192.64c-4.48,5-6.39,12.49-4.27,16.68s7.47,3.52,11.95-1.45,6.4-12.41,4.28-16.63S428.07,187.63,423.58,192.64Z" style="fill: #6b18b5"/>
    <path d="M414.75,174.81c-4.43,4.27-6.33,10.67-4.23,14.28s7.39,3.09,11.82-1.14,6.32-10.59,4.23-14.24S419.18,170.55,414.75,174.81Z" style="fill: #6b18b5"/>
    <path d="M451.58,150.42c-3,2.89-4.26,7.32-2.85,9.88s5,2.3,8-.58,4.26-7.29,2.85-9.87S454.57,147.53,451.58,150.42Z" style="fill: #6b18b5"/>
    <path d="M439.1,178c-1.87-1.78-5.05.3-7.09,4.64s-2.18,9.29-.31,11.06,5.05-.31,7.1-4.64S441,179.81,439.1,178Z" style="fill: #6b18b5"/>
    <path d="M458.59,163.14c-3.21,3.46-4.46,8.52-2.79,11.28s5.62,2.19,8.84-1.25,4.46-8.48,2.79-11.26S461.81,159.68,458.59,163.14Z" style="fill: #6b18b5"/>
    <path d="M417.18,203.66c-3-.14-5.27,1.78-5.06,4.28s2.81,4.63,5.81,4.77h0c3,.15,5.27-1.75,5.06-4.26S420.18,203.8,417.18,203.66Z" style="fill: #6b18b5"/>
    <path d="M474.78,139.21c-1.87-1.83-5,.16-7.09,4.44s-2.18,9.24-.31,11.06,5.05-.17,7.1-4.44S476.66,141.05,474.78,139.21Z" style="fill: #6b18b5"/>
    <path d="M701.33,179.63c-2.41,5.82,2.06,22.47.91,26.39s-7.6,12.62-5.16,17h0a40.78,40.78,0,0,0,20.38-26.37C722,177.72,703.74,173.83,701.33,179.63Z" style="fill: #ffd200"/>
    <path d="M714,178.45c-4.94-4.17-12-4.13-13.76.09-1.62,3.9-.66,11.2.18,17.65.47,3.63,1,7.75.66,8.93a31.91,31.91,0,0,1-2,4.25c-2.38,4.65-5.33,10.43-3,14.69l.6,1.08.81-.37a41.68,41.68,0,0,0,21-27.3C720.52,189.45,718.85,182.53,714,178.45Zm2.27,17.43a40,40,0,0,1-18.55,24.81c.13-2.45,2.21-6.52,3.43-8.91a32,32,0,0,0,2.19-4.86c.62-2.11.11-6-.53-10.92-.72-5.54-1.62-12.43-.44-15.29.59-1.42,3.06-2.11,5.85-1.54a10.73,10.73,0,0,1,4.8,2.34C716.69,184.59,717.81,189.55,716.3,195.88Z" style="fill: #ef8a10"/>
    <path d="M545.62,156.2c0,7.22,9.14,19.66,9.52,24.19s-1.9,17.41,1.53,19.78h0s10.28-18.45,7.62-39.59S545.62,149,545.62,156.2Z" style="fill: #ffd200"/>
    <path d="M555.42,145.43c-5.5-.38-11.32,5-11.32,10.46,0,5,3.23,11.26,6.09,16.78,1.41,2.72,3.34,6.45,3.44,7.69a46.34,46.34,0,0,1-.15,5.33c-.37,6.26-.84,14,2.71,16.5l1,.73.66-1.18c.43-.78,10.64-19.39,7.88-41.25C564.14,147.44,558,145.61,555.42,145.43Zm1.07,51a59.2,59.2,0,0,1,0-9.79,50.11,50.11,0,0,0,.15-6.26c-.22-2.57-1.95-5.92-4.14-10.16-2.39-4.63-5.38-10.38-5.37-13.77,0-2.35,4-6.9,8.56-6.58a7,7,0,0,1,.8.11c3.36.69,5.47,4.28,6.28,10.66C564.79,176.57,559,191.15,556.49,196.48Z" style="fill: #ef8a10"/>
    <path d="M517.81,163c0,7.22,9.15,19.56,9.53,24.09s-1.91,17.42,1.52,19.76h0s10.28-18.55,7.62-39.66S517.81,155.71,517.81,163Z" style="fill: #ffd200"/>
    <path d="M527.62,152.08c-5.51-.32-11.33,5.14-11.33,10.59,0,5,3.24,11.22,6.09,16.71,1.41,2.7,3.34,6.41,3.44,7.65a46.34,46.34,0,0,1-.15,5.33c-.37,6.26-.83,14,2.71,16.47l1,.72.66-1.18c.44-.8,10.64-19.5,7.89-41.33C536.33,154,530.19,152.23,527.62,152.08Zm1.07,51a58.15,58.15,0,0,1,0-9.79,50.26,50.26,0,0,0,.15-6.27c-.22-2.56-2-5.89-4.14-10.11-2.39-4.6-5.37-10.32-5.37-13.7,0-2.36,4-6.95,8.56-6.68a6.72,6.72,0,0,1,.8.1c3.37.66,5.48,4.22,6.28,10.6C537,183.13,531.16,197.76,528.69,203.12Z" style="fill: #ef8a10"/>
    <path d="M487,171.24c0,7.23,9.14,19.41,9.52,23.93s-1.91,17.46,1.52,19.75h0s10.29-18.71,7.62-39.78S487,164,487,171.24Z" style="fill: #ffd200"/>
    <path d="M496.76,160.21c-5.51-.24-11.33,5.32-11.33,10.77,0,5,3.24,11.16,6.09,16.6,1.41,2.69,3.34,6.37,3.45,7.6a49.29,49.29,0,0,1-.16,5.33c-.37,6.27-.83,14.07,2.71,16.43l1.06.71c.22-.4.44-.8.65-1.2.44-.8,10.65-19.66,7.89-41.45C505.47,162,499.33,160.31,496.76,160.21Zm1.07,51a58,58,0,0,1,0-9.78,50,50,0,0,0,.14-6.27c-.22-2.56-1.95-5.87-4.14-10-2.39-4.56-5.37-10.23-5.37-13.61,0-2.36,4-7,8.56-6.82a5.28,5.28,0,0,1,.81.09c3.36.6,5.47,4.13,6.27,10.5C506.13,191.11,500.31,205.83,497.83,211.22Z" style="fill: #ef8a10"/>
    <path d="M465.25,199.33c0,7.22,9.14,19.28,9.52,23.8s-1.91,17.48,1.52,19.72h0S486.58,224,483.91,203,465.25,192.07,465.25,199.33Z" style="fill: #ffd200"/>
    <path d="M475.05,188.16c-5.51-.16-11.33,5.48-11.33,10.93,0,5,3.24,11.12,6.1,16.52,1.4,2.66,3.33,6.31,3.44,7.54a49.41,49.41,0,0,1-.16,5.34c-.37,6.28-.83,14.08,2.71,16.39l1.06.69.65-1.2c.44-.81,10.65-19.8,7.89-41.55C483.76,189.83,477.62,188.23,475.05,188.16Zm1.07,51a58.14,58.14,0,0,1,0-9.79,50,50,0,0,0,.14-6.27c-.22-2.56-1.95-5.84-4.14-10-2.39-4.54-5.37-10.16-5.37-13.55,0-2.35,4-7.07,8.56-6.93a5.31,5.31,0,0,1,.81.07c3.36.56,5.47,4.07,6.27,10.42C484.42,218.94,478.6,233.73,476.12,239.16Z" style="fill: #ef8a10"/>
    <path d="M442.39,226.49c0,7.22,9.14,19.12,9.52,23.64s-1.9,17.51,1.53,19.69h0s10.28-19,7.61-40S442.39,219.23,442.39,226.49Z" style="fill: #ffd200"/>
    <path d="M452.19,215.15c-5.5-.07-11.32,5.68-11.32,11.13,0,5,3.23,11.06,6.09,16.41,1.41,2.64,3.34,6.26,3.44,7.49a49.52,49.52,0,0,1-.16,5.34c-.37,6.28-.83,14.09,2.71,16.34l1.06.68.66-1.22c.43-.82,10.64-20,7.88-41.67C460.91,216.68,454.76,215.17,452.19,215.15Zm1.07,51a59.09,59.09,0,0,1,0-9.78,48.18,48.18,0,0,0,.14-6.27c-.21-2.56-1.94-5.81-4.13-9.92-2.4-4.49-5.38-10.07-5.38-13.45,0-2.36,4-7.14,8.57-7.09a7,7,0,0,1,.8.07c3.36.5,5.47,4,6.28,10.32C461.56,245.78,455.74,260.67,453.26,266.13Z" style="fill: #ef8a10"/>
    <path d="M503.86,119.39c.45-4.35,5.11-15.45,2.12-19h0s-13.7,13.29-14.92,34,16.54,17.79,17.88,11.1S503.41,123.74,503.86,119.39Z" style="fill: #ffd200"/>
    <path d="M505.07,119.88a40.13,40.13,0,0,1,1.15-5c1.49-5.53,3.34-12.41.44-15.81l-.74-.86-.7.67A57,57,0,0,0,489.85,134c-.52,8.73,2.16,15,7.35,17.33a10.46,10.46,0,0,0,2.29.71c4.77.86,9.79-1.68,10.62-5.87.89-4.5-1.17-11.47-3-17.61C506.09,125.12,504.93,121.19,505.07,119.88Zm2.69,24.93c-.51,2.58-5.71,5.09-10.13,3.13-3.91-1.74-5.76-6.29-5.36-13.18,1-16.42,10.34-28.23,13.46-31.72.27,2.5-1,7.35-1.79,10.19a40,40,0,0,0-1.28,5.68c-.25,2.34.85,6,2.24,10.75C506.47,134.94,508.41,141.51,507.76,144.81Z" style="fill: #ef8a10"/>
    <path d="M549.57,107.7c.46-4.34,5.12-15.35,2.12-18.92h0a54.4,54.4,0,0,0-14.92,33.65c-1.22,20.61,16.55,18.16,17.88,11.48S549.12,112,549.57,107.7Z" style="fill: #ffd200"/>
    <path d="M550.78,108.21a41.37,41.37,0,0,1,1.15-5c1.49-5.5,3.34-12.35.44-15.8l-.73-.88-.7.66A55.55,55.55,0,0,0,535.56,122c-.52,8.72,2.16,15.09,7.35,17.5a10.14,10.14,0,0,0,2.3.75c4.76,1,9.78-1.47,10.61-5.65.89-4.48-1.17-11.49-3-17.67C551.81,113.48,550.64,109.52,550.78,108.21Zm2.69,25c-.51,2.57-5.71,5-10.13,2.92-3.91-1.82-5.76-6.41-5.35-13.29,1-16.4,10.33-28,13.45-31.43.27,2.5-1,7.32-1.79,10.15a39.43,39.43,0,0,0-1.28,5.65c-.25,2.34.85,6.07,2.25,10.8C552.18,123.3,554.13,129.91,553.47,133.19Z" style="fill: #ef8a10"/>
    <path d="M392,255.6c-2.44-2.94-7.39-15.11-10.6-13h0s2.89,25.33,14.84,38.09,16.86-12.23,13.32-17.7S394.4,258.53,392,255.6Z" style="fill: #ffd200"/>
    <path d="M398.68,256.22c-2.46-.51-5.25-1.08-6-2a37,37,0,0,1-2.57-4.22c-2.77-4.95-6.22-11.1-9.33-9-.26.18-.52.36-.79.53l.15,1.3c.12,1.08,3.12,26.23,15.36,39.3,2.26,2.41,4.46,3.72,6.5,3.94,2.54.26,4.82-1.16,6.66-4.26,3.39-5.75,4.26-16,1.69-20C408,258.19,403,257.12,398.68,256.22Zm8.1,23.15c-2.51,4.23-5.93,4.21-9.92-.06-9.49-10.15-13.09-28.9-14-34.94,1.6,1,4,5.29,5.45,7.83a35.88,35.88,0,0,0,2.94,4.75c1.31,1.58,3.95,2.11,7.28,2.81,3.75.77,8.42,1.77,10.15,4.44C410,266.3,409.6,274.58,406.78,279.37Z" style="fill: #ef8a10"/>
    <path d="M367.69,341.23c-2.12-3.38-5.74-16.33-9.17-14.88h0s.14,25.45,10.68,40.37,18.17-8.53,15.22-14.61S369.81,344.6,367.69,341.23Z" style="fill: #ffd200"/>
    <path d="M374.34,343.22c-2.4-1-5.13-2.13-5.77-3.16a41.61,41.61,0,0,1-2.1-4.65c-2.23-5.43-5-12.17-8.33-10.77l-.85.35c0,.44,0,.87,0,1.3,0,1.09.27,26.4,11.08,41.68,2.41,3.41,4.92,5.23,7.34,5.41,2,.16,4-.85,5.83-3.06,4-4.93,6-14.77,3.85-19.18C383.42,347.07,378.59,345,374.34,343.22Zm5.58,24.32c-2.95,3.63-6.37,2.91-9.89-2.07-8.38-11.87-9.94-31-10.23-37.13,1.49,1.27,3.45,6,4.6,8.8a40.33,40.33,0,0,0,2.41,5.27c1.14,1.81,3.71,2.87,7,4.23,3.66,1.53,8.21,3.48,9.66,6.45C384.58,355.42,383.27,363.43,379.92,367.54Z" style="fill: #ef8a10"/>
    <path d="M391.68,392.46c-13.27-9.15-14.63,17.38-10.47,21.63s15.2-.14,18,2.11,9.19,13,12,10h0S405,401.67,391.68,392.46Z" style="fill: #ffd200"/>
    <path d="M392.15,390.86c-5.61-3.89-10.23-2.28-12.67,4.34-2.5,6.78-2,17.23,1.06,20.33,2.79,2.87,7.71,2.39,12,2,2.44-.22,5.22-.46,6.05.22a29.8,29.8,0,0,1,3.05,3.47c2.58,3.2,5.65,7,8.17,7.3a2.42,2.42,0,0,0,2.09-.81c.23-.25.46-.49.7-.73-.11-.42-.22-.84-.32-1.25C412.06,424.71,405.75,400.3,392.15,390.86Zm11,27.71a29.41,29.41,0,0,0-3.49-3.91,4.46,4.46,0,0,0-2.47-.87,28.07,28.07,0,0,0-5,.18c-3.73.33-8.37.78-10.41-1.31-1.6-1.65-2.31-10-.23-15.63,1.84-5,5.16-6,9.58-3,10.55,7.31,16.58,25.09,18.31,30.84C407.85,424.36,404.91,420.71,403.19,418.57Z" style="fill: #ef8a10"/>
    <path d="M408.42,343.78c-2.39-21-18.56-10.25-18.66-3s8.91,18.91,9.23,23.42-2.14,17.52,1.26,19.64h0S410.81,364.69,408.42,343.78Z" style="fill: #ffd200"/>
    <path d="M399.76,329.73c-5.38,0-11.15,5.67-11.22,10.92-.06,4.83,3.06,10.74,5.82,16,1.56,2.94,3.32,6.29,3.42,7.65a49.28,49.28,0,0,1-.23,5.43c-.45,6.12-1,13.74,2.29,15.78l.84.52.54-1c.45-.82,10.85-20,8.4-41.4C408.61,334.78,405,329.7,399.76,329.73Zm.28,51.43c-.68-2.34-.29-7.7-.07-10.84a49.38,49.38,0,0,0,.23-6.17c-.17-2.42-1.84-5.59-3.95-9.59-2.37-4.5-5.31-10.08-5.27-13.62,0-2.78,4.48-7.62,9-7.64a4.64,4.64,0,0,1,.65,0c3.59.37,5.87,4,6.63,10.61C409.12,360.56,402.37,376.31,400,381.16Z" style="fill: #ef8a10"/>
    <path d="M733.72,206.73c-2.41,5.84,2,22.44.9,26.38s-7.59,12.71-5.16,17.08h0a41.47,41.47,0,0,0,20.38-26.64C754.37,204.54,736.13,200.9,733.72,206.73Z" style="fill: #ffd200"/>
    <path d="M746.41,205.38c-4.94-4.1-12-4-13.76.27-1.61,3.92-.66,11.21.18,17.64.47,3.63,1,7.74.66,8.93a32,32,0,0,1-2,4.28c-2.38,4.68-5.33,10.49-3,14.72l.6,1.08.81-.39a42.4,42.4,0,0,0,21-27.58C752.91,216.29,751.24,209.39,746.41,205.38Zm2.27,17.39a40.63,40.63,0,0,1-18.55,25.06c.13-2.45,2.21-6.54,3.43-9a31.51,31.51,0,0,0,2.19-4.88c.62-2.12.11-6-.53-10.93-.72-5.52-1.62-12.4-.44-15.27.59-1.43,3.07-2.16,5.85-1.62a10.68,10.68,0,0,1,4.8,2.27C749.07,211.48,750.19,216.43,748.68,222.77Z" style="fill: #ef8a10"/>
    <path d="M783.1,253.09c-3.61-20.85-19-9.22-18.65-2s9.94,18.62,10.52,23.12-1.08,17.76,2.41,19.69h0S786.7,274,783.1,253.09Z" style="fill: #ffd200"/>
    <path d="M773.69,239.5c-5.32.34-10.7,6.25-10.46,11.53.23,4.88,3.67,10.7,6.71,15.82,1.71,2.9,3.66,6.17,3.83,7.53a49.23,49.23,0,0,1,.1,5.48c-.08,6.18-.18,13.88,3.21,15.75l.86.47.47-1c.39-.83,9.56-20.82,5.87-42.22C782.76,244,778.9,239.17,773.69,239.5ZM777,291.25c-.81-2.31-.74-7.73-.7-10.91a50.54,50.54,0,0,0-.14-6.22c-.32-2.43-2.15-5.52-4.48-9.43-2.61-4.41-5.86-9.9-6-13.46-.13-2.8,4-7.86,8.41-8.15a5.73,5.73,0,0,1,1.32.07c3.22.55,5.46,4,6.52,10.19C784.78,269.93,779,286.24,777,291.25Z" style="fill: #ef8a10"/>
    <path d="M888.6,474.51C875.32,465.6,874,492,878.14,496.28s15.2-.37,18,1.74,9.2,12.55,12,9.39h0S901.88,483.37,888.6,474.51Z" style="fill: #ffd200"/>
    <path d="M889.06,472.9c-5.61-3.74-10.23-2.13-12.66,4.49s-1.94,17.22,1.08,20.33c2.79,2.87,7.7,2.35,12,1.84,2.45-.28,5.23-.61,6.06,0a28.72,28.72,0,0,1,3,3.34c2.58,3.08,5.65,6.72,8.17,6.85a2.53,2.53,0,0,0,2.09-.95l.7-.78-.32-1.23C909,505.79,902.68,482,889.06,472.9Zm11.07,27.31a28.36,28.36,0,0,0-3.49-3.76,4.41,4.41,0,0,0-2.46-.77,30.14,30.14,0,0,0-5,.33c-3.73.43-8.37.93-10.4-1.17-1.6-1.64-2.33-10-.25-15.62,1.84-5,5.15-6.05,9.58-3.09,10.55,7.05,16.6,24.4,18.33,30.05C904.79,505.75,901.85,502.26,900.13,500.21Z" style="fill: #ef8a10"/>
    <path d="M855.23,478.48c-10.67,12.84-11,38.23-11,38.24h0c3.42,2.11,7.14-10.11,9.29-13.08s13.81-2.07,16.81-7.57S865.89,465.62,855.23,478.48Z" style="fill: #ffd200"/>
    <path d="M854.41,477.07C843.48,490.22,843,515.45,843,516.54l0,1.3.85.52a2.48,2.48,0,0,0,1.05.38c2.86.34,5.33-5.07,7.36-9.52a33.53,33.53,0,0,1,2.14-4.24c.65-.89,3.38-1.48,5.79-2,4.27-.94,9.11-2,11.12-5.72,2.18-4,.29-14.22-3.67-19.93S858.91,471.64,854.41,477.07Zm14.92,17.83c-1.47,2.68-6,3.72-9.71,4.53-3.26.72-5.84,1.27-7,2.87a33.29,33.29,0,0,0-2.46,4.78C849,509.64,847,514,845.5,515c.34-6.06,2.07-24.87,10.54-35.09,1.94-2.33,3.83-3.41,5.63-3.23,1.51.15,3,1.19,4.28,3.11C869.25,484.53,870.49,492.79,869.33,494.9Z" style="fill: #ef8a10"/>
    <polygon points="833.91 245.31 833.9 245.31 833.91 245.31 833.91 245.31" style="fill: #ffd200"/>
    <path d="M804.71,241.37c-12.89,7.21-.22,28.33,4.56,27.12s9.34-16.22,12.18-17.55,12.26-.37,12.46-5.63C833.9,245.32,817.59,234.17,804.71,241.37Z" style="fill: #ffd200"/>
    <path d="M804.17,239.69c-5.44,3.05-7.5,9.08-5.64,16.58,1.73,7,6.56,13.51,10,14a2.72,2.72,0,0,0,1,0c3.2-.81,6-6.37,8.49-11.29,1.39-2.77,3-5.92,3.83-6.32a15.82,15.82,0,0,1,3.65-.72c4.17-.56,9.37-1.29,9.56-6.37,0-.43,0-.86,0-1.29l-.83-.57C833.65,243.25,817.38,232.31,804.17,239.69Zm21,8.68a16.22,16.22,0,0,0-4.14.86c-1.52.71-3,3.68-4.91,7.44-2.13,4.22-4.78,9.47-7.12,10.06-1.85.47-6.55-5-8.14-11.37-1.4-5.64.13-9.89,4.43-12.31a20.15,20.15,0,0,1,12.87-2,40.91,40.91,0,0,1,14.11,5.14C830.92,247.58,827.26,248.08,825.12,248.37Z" style="fill: #ef8a10"/>
    <path d="M767.38,189.61c-12.89,6.88-.21,28.32,4.57,27.23s9.34-16,12.18-17.22,12.26,0,12.45-5.27C796.57,194.36,780.27,182.72,767.38,189.61Z" style="fill: #ffd200"/>
    <polygon points="796.58 194.35 796.58 194.35 796.59 194.35 796.58 194.35" style="fill: #ffd200"/>
    <path d="M766.85,187.91c-5.45,2.92-7.5,8.9-5.64,16.44,1.73,7,6.56,13.67,10,14.28a2.74,2.74,0,0,0,1,0c3.2-.73,6-6.22,8.49-11.06,1.39-2.74,3-5.84,3.83-6.21a15.55,15.55,0,0,1,3.65-.63c4.17-.43,9.37-1,9.56-6.08l.05-1.29-.83-.59C796.33,192.29,780.06,180.86,766.85,187.91Zm20.95,9.24a16,16,0,0,0-4.14.75c-1.52.67-3,3.6-4.91,7.3-2.13,4.17-4.78,9.34-7.12,9.87-1.85.42-6.55-5.15-8.14-11.57-1.4-5.68.13-9.9,4.43-12.2a19.81,19.81,0,0,1,12.87-1.7,41.75,41.75,0,0,1,14.1,5.54C793.6,196.53,789.94,196.93,787.8,197.15Z" style="fill: #ef8a10"/>
    <polygon points="740.9 141.08 740.9 141.08 740.9 141.08 740.9 141.08" style="fill: #ffd200"/>
    <path d="M738.62,160c.49-4.33,5.25-15.3,2.28-18.87,0,0-13.82,12.87-15.22,33.42s16.42,18.34,17.81,11.64S738.13,164.29,738.62,160Z" style="fill: #ffd200"/>
    <path d="M739.83,160.47a37.37,37.37,0,0,1,1.2-4.95c1.53-5.49,3.44-12.32.57-15.77l-.73-.88-.71.66a55.34,55.34,0,0,0-15.69,34.55c-.59,8.69,2,15.11,7.21,17.58a10.69,10.69,0,0,0,2.47.82c4.71.91,9.65-1.5,10.51-5.62.93-4.47-1.08-11.47-2.85-17.65C740.81,165.73,739.68,161.78,739.83,160.47Zm2.49,24.95c-.54,2.57-5.76,4.94-10.18,2.84-3.9-1.87-5.71-6.49-5.25-13.35,1.11-16.34,10.59-27.82,13.74-31.23.26,2.5-1.09,7.3-1.88,10.12a41.66,41.66,0,0,0-1.33,5.64c-.26,2.33.81,6.06,2.16,10.79C741.1,175.54,743,182.15,742.32,185.42Z" style="fill: #ef8a10"/>
    <path d="M709.59,140.37c-1.16-4.39-1.3-18.17-4.91-19.24,0,0-6.3,22.46-.1,42.62s19.41,4.44,18.14-2.81S710.74,144.77,709.59,140.37Z" style="fill: #ffd200"/>
    <polygon points="704.68 121.13 704.68 121.13 704.68 121.13 704.68 121.13" style="fill: #ffd200"/>
    <path d="M715.38,146.54c-2-2.47-4.31-5.28-4.66-6.6a52.19,52.19,0,0,1-.82-5.5c-.74-6.26-1.66-14-5.15-15.07l-.88-.27-.33,1.15c-.26,1-6.42,23.37-.06,44,2,6.5,5,10.33,8.5,11a6.57,6.57,0,0,0,3.41-.25c5.06-1.71,9.43-9.1,8.5-14.36C723,155.87,719,150.92,715.38,146.54Zm-.84,25c-3.72,1.26-6.79-1.64-8.86-8.36-4.93-16-1.57-33.9-.29-39.46,1.08,2.13,1.73,7.61,2.11,10.82a50.69,50.69,0,0,0,1,6.24c.62,2.36,2.79,5,5.53,8.37,3.08,3.76,6.92,8.44,7.55,12C722,164,718.76,170.15,714.54,171.57Z" style="fill: #ef8a10"/>
    <path d="M592.9,145.86c-.36,7.13,8.24,20.5,8.4,25s-2.79,16.95.55,19.7h0s11.28-17,9.64-38.16S593.26,138.72,592.9,145.86Z" style="fill: #ffd200"/>
    <path d="M603.32,136.86c-5.39-1-11.37,3.43-11.63,8.61-.24,4.78,2.67,11.26,5.25,17,1.45,3.23,3.09,6.89,3.14,8.25a49,49,0,0,1-.42,5.34c-.67,6-1.5,13.42,1.72,16.07l.83.68.57-.87c.48-.71,11.6-17.75,9.92-39.45C612,143.53,608.65,137.86,603.32,136.86Zm-1.58,51c-.6-2.45,0-7.68.32-10.76a48.48,48.48,0,0,0,.46-6.07c-.09-2.42-1.65-5.88-3.61-10.26-2.21-4.91-5-11-4.79-14.53.14-2.74,4.76-6.66,9.25-5.82l.2,0c3.85.83,6.17,4.94,6.71,11.88C611.58,169.17,604.24,183.52,601.74,187.87Z" style="fill: #ef8a10"/>
    <path d="M884,518.45c-.63-7.5-3.09-14.23-6.45-17.69s-7.09-3.11-9.81.91-4,11.12-3.36,18.64,3.1,14.3,6.45,17.78,7.1,3.12,9.82-.94,4-11.2,3.35-18.7Z" style="fill: #de2010"/>
    <path d="M878.41,499c-3.94-4.05-8.54-3.63-11.73,1.08-3,4.45-4.44,12.24-3.75,20.36s3.42,15.57,7.12,19.42a8.25,8.25,0,0,0,5.1,2.77c2.42.21,4.77-1.1,6.64-3.89,3-4.49,4.43-12.33,3.74-20.43S882.12,502.81,878.41,499Zm1.17,36.58c-2.21,3.3-5.16,3.59-7.89.75-3-3.09-5.2-9.28-5.78-16.14s.55-13.34,3-16.92c1.28-1.9,2.82-2.79,4.42-2.65a5.7,5.7,0,0,1,3.48,1.92c3,3.08,5.19,9.23,5.77,16.08h0C883.14,525.46,882,532,879.58,535.57Z"/>
    <path d="M881.94,480.66c-.64-7.5-3.09-14.24-6.45-17.71s-7.1-3.13-9.82.89-4,11.11-3.35,18.63,3.09,14.31,6.45,17.8,7.09,3.13,9.81-.92,4-11.19,3.36-18.69Z" style="fill: #de2010"/>
    <path d="M876.31,461.18c-3.94-4.06-8.55-3.65-11.74,1.06-3,4.44-4.43,12.23-3.74,20.35S864.24,498.17,868,502a8.22,8.22,0,0,0,5.1,2.77c2.42.22,4.77-1.09,6.63-3.87,3-4.49,4.44-12.32,3.75-20.42S880,465,876.31,461.18Zm1.17,36.58c-2.21,3.3-5.16,3.58-7.9.74-3-3.1-5.19-9.29-5.77-16.16s.55-13.33,3-16.9c1.28-1.91,2.82-2.79,4.42-2.65a5.72,5.72,0,0,1,3.47,1.93c3,3.08,5.2,9.24,5.78,16.09h0C881,487.66,879.9,494.16,877.48,497.76Z"/>
    <path d="M876.71,440c-1.08-7.43-3.92-13.88-7.46-16.94s-7.22-2.27-9.67,2.09-3.29,11.63-2.2,19.09,3.92,14,7.46,17,7.22,2.26,9.67-2.14,3.29-11.7,2.2-19.13Z" style="fill: #de2010"/>
    <path d="M870,421.23c-4.14-3.59-8.68-2.62-11.55,2.49-2.71,4.82-3.66,12.81-2.49,20.86s4.32,15.2,8.22,18.6a8.07,8.07,0,0,0,4.47,2.12c2.69.25,5.24-1.35,7.09-4.69,2.71-4.86,3.66-12.88,2.48-20.91S873.86,424.6,870,421.23Zm3.37,36.49c-2,3.58-4.9,4.23-7.78,1.72-3.14-2.73-5.71-8.67-6.69-15.47s-.26-13.44,1.92-17.31c1.27-2.28,2.92-3.35,4.7-3.18a5.65,5.65,0,0,1,3.08,1.49c3.14,2.72,5.71,8.62,6.69,15.41h0C876.23,447.16,875.5,453.81,873.32,457.72Z"/>
    <path d="M857.12,383.21c-3.89-1.73-7.26.38-8.82,5.58s-1.09,12.68,1.24,19.63,6.16,12.33,10.05,14.06,7.26-.45,8.82-5.68,1.09-12.7-1.24-19.61S861,385,857.12,383.21Z" style="fill: #de2010"/>
    <path d="M857.46,381.11c-4.57-2-8.71.57-10.54,6.66-1.73,5.74-1.23,14,1.29,21.49s6.74,13.41,11,15.32a7.46,7.46,0,0,0,2.32.63c3.61.37,6.71-2.34,8.22-7.42,1.73-5.77,1.24-14-1.28-21.47S861.76,383,857.46,381.11ZM867,415.82c-1.27,4.25-3.93,6-7.09,4.56-3.47-1.54-6.93-6.45-9.06-12.8s-2.59-13.16-1.2-17.78c1.05-3.47,3-5.22,5.44-5a5.79,5.79,0,0,1,1.66.47c3.46,1.55,6.93,6.42,9.05,12.74h0C868,404.37,868.42,411.17,867,415.82Z"/>
    <path d="M846.93,348.39c-3.9-1.77-7.26.31-8.82,5.49s-1.09,12.67,1.24,19.65,6.16,12.39,10,14.15,7.26-.37,8.82-5.58,1.09-12.69-1.24-19.63S850.82,350.17,846.93,348.39Z" style="fill: #de2010"/>
    <path d="M847.27,346.3c-4.57-2.08-8.71.48-10.55,6.55-1.72,5.72-1.23,14,1.29,21.51s6.75,13.47,11,15.42a7.75,7.75,0,0,0,2.32.66c3.61.4,6.7-2.28,8.22-7.34,1.73-5.76,1.23-14-1.29-21.48S851.57,348.26,847.27,346.3Zm9.57,34.8c-1.28,4.24-3.93,5.91-7.1,4.48-3.46-1.56-6.93-6.5-9-12.88s-2.59-13.19-1.2-17.79c1-3.46,3-5.19,5.43-4.91a5.77,5.77,0,0,1,1.66.49c3.47,1.58,6.93,6.49,9.06,12.83h0C857.77,369.66,858.23,376.47,856.84,381.1Z"/>
    <path d="M831.72,313.94c-4-1.35-7.16,1.12-8.41,6.49s-.34,12.86,2.37,19.6,6.81,11.74,10.77,13.07,7.16-1.19,8.41-6.59.34-12.85-2.37-19.55S835.68,315.29,831.72,313.94Z" style="fill: #de2010"/>
    <path d="M831.94,311.8c-4.65-1.58-8.59,1.45-10.05,7.75-1.38,5.94-.41,14.17,2.52,21.46s7.45,12.76,11.82,14.24a8.63,8.63,0,0,0,1.51.35c4,.49,7.24-2.59,8.54-8.23,1.38-6,.41-14.18-2.52-21.42S836.31,313.29,831.94,311.8Zm11.49,33.86c-1,4.4-3.55,6.39-6.77,5.3-3.51-1.18-7.23-5.75-9.7-11.92s-3.33-13-2.22-17.73c.89-3.87,3-5.84,5.67-5.49a6.07,6.07,0,0,1,1.1.27c3.51,1.2,7.23,5.74,9.7,11.87h0C843.69,334.08,844.54,340.86,843.43,345.66Z"/>
    <path d="M814.88,280.57c-4-.85-7,2-7.86,7.61s.51,13,3.63,19.39,7.5,10.91,11.49,11.74,7-2.13,7.87-7.71-.52-13-3.64-19.33S818.88,281.42,814.88,280.57Z" style="fill: #de2010"/>
    <path d="M815,278.4c-4.7-1-8.37,2.55-9.4,9.08-1,6.15.54,14.3,3.91,21.24s8.2,11.85,12.61,12.77l.51.08c4.44.61,7.9-3,8.89-9.3s-.53-14.27-3.91-21.17S819.37,279.33,815,278.4Zm13.59,32.53c-.71,4.54-3.08,6.86-6.33,6.2-3.55-.74-7.52-4.84-10.37-10.72s-4.13-12.58-3.36-17.53c.69-4.36,2.89-6.64,5.95-6.19.13,0,.25,0,.38.06,3.55.76,7.52,4.85,10.37,10.69h0C828,299.27,829.32,306,828.54,310.93Z"/>
    <path d="M807.14,259.1c-3.67-5.8-8.39-9.41-12.37-9.47s-6.61,3.44-6.91,9.21,1.79,12.94,5.47,18.77,8.39,9.46,12.37,9.48,6.61-3.53,6.91-9.31-1.79-12.89-5.47-18.68Z" style="fill: #de2010"/>
    <path d="M794.63,247.42c-4.67-.07-7.92,4.24-8.27,11-.32,6.38,1.94,14.28,5.92,20.58,3.63,5.78,8.29,9.57,12.42,10.2a11.35,11.35,0,0,0,1.15.09c4.74,0,7.9-4.25,8.26-11.14.33-6.38-1.94-14.22-5.92-20.47S799,247.49,794.63,247.42Zm10.92,37.47c-3.54,0-7.82-3.35-11.17-8.68s-5.29-11.83-5-17c.24-4.7,2.32-7.47,5.56-7.42a5.33,5.33,0,0,1,.88.08c3.35.53,7.21,3.73,10.29,8.6h0c3.37,5.29,5.29,11.75,5,16.89C810.87,282.11,808.79,284.91,805.55,284.89Z"/>
    <path d="M785.5,227.68c-4-5.4-8.87-8.46-12.8-8s-6.3,4.27-6.23,10.12S769.05,242.57,773,248s8.87,8.49,12.8,8,6.3-4.35,6.23-10.2S789.49,233.06,785.5,227.68Z" style="fill: #de2010"/>
    <path d="M786.44,226.13c-4.31-5.83-9.69-9.16-14-8.69-4.61.49-7.53,5.23-7.45,12.09.08,6.47,2.81,14.14,7.13,20,3.57,4.87,7.87,8,11.71,8.63a8.19,8.19,0,0,0,2.31.07c4.61-.54,7.53-5.34,7.45-12.2C793.49,239.56,790.76,232,786.44,226.13Zm-.89,27.69c-3.49.42-7.92-2.42-11.56-7.37s-6-11.26-6-16.46c-.06-4.76,1.82-7.81,5-8.15a6.31,6.31,0,0,1,1.78.07c3.14.54,6.74,3.19,9.78,7.31h0c3.65,4.92,6,11.19,6,16.39C790.62,250.38,788.75,253.45,785.55,253.82Z"/>
    <path d="M762.56,201.36c-4.47-4.51-9.53-6.46-13.28-5.12s-5.6,5.78-4.87,11.65a30.57,30.57,0,0,0,8.42,16.82c4.47,4.53,9.54,6.47,13.28,5.1s5.61-5.85,4.87-11.72A30.25,30.25,0,0,0,762.56,201.36Z" style="fill: #de2010"/>
    <path d="M763.3,199.59c-4.83-4.87-10.41-7-14.54-5.5-4.4,1.57-6.68,7-5.82,13.93a33.52,33.52,0,0,0,9.15,18.46c3.17,3.21,6.65,5.22,9.84,5.79a8.94,8.94,0,0,0,4.71-.31c4.39-1.62,6.68-7.13,5.82-14A33.19,33.19,0,0,0,763.3,199.59Zm2.29,28.07c-3.33,1.22-7.93-.58-12-4.72a27.64,27.64,0,0,1-7.68-15.17c-.6-4.78.87-8.29,3.92-9.38a7,7,0,0,1,3.68-.21,16.66,16.66,0,0,1,8.33,4.95h0a27.49,27.49,0,0,1,7.68,15.1C770.1,223,768.64,226.54,765.59,227.66Z"/>
    <path d="M736.9,176.72h0c-4.69-4-9.79-5.34-13.4-3.53s-5.15,6.52-4.06,12.35a28.87,28.87,0,0,0,9.33,15.92c4.69,4,9.79,5.35,13.4,3.5s5.15-6.57,4.06-12.4A28.64,28.64,0,0,0,736.9,176.72Z" style="fill: #de2010"/>
    <path d="M737.51,174.84c-5.06-4.31-10.68-5.76-14.66-3.76-4.23,2.13-6.13,7.92-4.86,14.77a31.74,31.74,0,0,0,10.16,17.48,18.94,18.94,0,0,0,8.5,4.43,9.47,9.47,0,0,0,6.17-.7c4.23-2.16,6.13-8,4.86-14.82A31.52,31.52,0,0,0,737.51,174.84Zm4,28c-3.21,1.64-7.86.38-12.13-3.28a26.23,26.23,0,0,1-8.51-14.34c-.88-4.76.34-8.47,3.27-10a7.52,7.52,0,0,1,4.88-.5,16.44,16.44,0,0,1,7.25,3.81h0a26.06,26.06,0,0,1,8.51,14.29C745.67,197.63,744.45,201.36,741.52,202.86Z"/>
    <path d="M711.72,156.92c-4.81-3.61-9.92-4.51-13.4-2.35s-4.8,7-3.45,12.82a27.53,27.53,0,0,0,10,15.17c4.82,3.62,9.93,4.5,13.41,2.33s4.8-7.08,3.45-12.85A27.42,27.42,0,0,0,711.72,156.92Z" style="fill: #de2010"/>
    <path d="M712.25,155c-5.21-3.89-10.83-4.84-14.67-2.46-4.08,2.52-5.7,8.53-4.13,15.32a30.36,30.36,0,0,0,10.85,16.68,18.79,18.79,0,0,0,7.36,3.5,9.87,9.87,0,0,0,7.31-1.07c4.08-2.55,5.7-8.59,4.13-15.35A30.21,30.21,0,0,0,712.25,155Zm5.24,27.86c-3.09,1.94-7.75,1.09-12.14-2.21a25,25,0,0,1-9.07-13.68c-1.09-4.7-.06-8.56,2.78-10.31a7.87,7.87,0,0,1,5.81-.79,16.28,16.28,0,0,1,6.33,3h0a24.87,24.87,0,0,1,9.07,13.62C721.36,177.19,720.32,181.06,717.49,182.83Z"/>
    <path d="M686.15,139.89c-4.94-3.12-10-3.49-13.35-.94s-4.36,7.61-2.73,13.3a25.84,25.84,0,0,0,10.61,14.23c4.94,3.13,10,3.48,13.35.91s4.36-7.64,2.73-13.31A25.8,25.8,0,0,0,686.15,139.89Z" style="fill: #de2010"/>
    <path d="M686.56,137.87c-5.34-3.37-10.93-3.73-14.6-.92-3.89,3-5.18,9.23-3.27,15.89a28.5,28.5,0,0,0,11.57,15.66,18.5,18.5,0,0,0,6,2.5,10.33,10.33,0,0,0,8.65-1.61c3.9-3,5.18-9.26,3.27-15.91A28.35,28.35,0,0,0,686.56,137.87Zm6.63,27.53c-3,2.28-7.58,1.92-12.1-.94a23.42,23.42,0,0,1-9.65-12.81c-1.33-4.63-.51-8.63,2.2-10.7a8.29,8.29,0,0,1,6.94-1.22,15.8,15.8,0,0,1,5.15,2.18h0a23.38,23.38,0,0,1,9.66,12.78C696.71,159.31,695.89,163.31,693.19,165.4Z"/>
    <path d="M658,126.85c-5.1-2-10.05-1.27-13,2.06s-3.41,8.69-1.24,14.06a22,22,0,0,0,11.75,12c5.1,2,10,1.26,13-2.08s3.4-8.69,1.24-14.06A22,22,0,0,0,658,126.85Z" style="fill: #de2010"/>
    <path d="M658.17,124.72c-5.51-2.21-10.95-1.32-14.19,2.36-3.45,3.9-4,10.5-1.48,16.81a24.23,24.23,0,0,0,12.82,13.2,16.63,16.63,0,0,0,2.77.86c4.51,1,8.73-.17,11.43-3.24,3.44-3.91,4-10.51,1.48-16.81A24.21,24.21,0,0,0,658.17,124.72Zm9.31,26.34c-2.61,3-7.13,3.63-11.78,1.76A19.93,19.93,0,0,1,645,142.06c-1.77-4.38-1.39-8.61,1-11.32,2.15-2.44,5.59-3.32,9.35-2.51a16,16,0,0,1,2.43.75h0a19.91,19.91,0,0,1,10.67,10.76C670.24,144.11,669.87,148.34,667.48,151.06Z"/>
    <path d="M630.19,118.51c-5.14-1.43-10,0-12.66,3.72s-2.84,9.2-.39,14.35a20,20,0,0,0,12.26,10.61c5.13,1.43,10,0,12.65-3.72s2.84-9.2.4-14.35A20,20,0,0,0,630.19,118.51Z" style="fill: #de2010"/>
    <polygon points="630.19 118.51 630.19 118.51 630.19 118.51 630.19 118.51" style="fill: #de2010"/>
    <path d="M630.25,116.34c-5.56-1.54-10.85,0-13.82,4.17-3.16,4.38-3.35,11.11-.48,17.15a22,22,0,0,0,13.38,11.71l.91.22c5.22,1.14,10.11-.5,12.92-4.4,3.16-4.38,3.35-11.11.47-17.15A22,22,0,0,0,630.25,116.34Zm10.69,25.41c-2.39,3.32-6.8,4.57-11.48,3.26a18.11,18.11,0,0,1-11.14-9.51c-2-4.2-1.87-8.51.32-11.55s6.3-4.42,10.69-3.46l.8.2h0a18.08,18.08,0,0,1,11.13,9.52C643.25,134.4,643.13,138.72,640.94,141.75Z"/>
    <path d="M604.72,114.28c-5.13-1.42-10,0-12.65,3.75s-2.84,9.21-.4,14.35A19.93,19.93,0,0,0,603.93,143c5.14,1.42,10,0,12.66-3.73s2.84-9.19.39-14.34A19.93,19.93,0,0,0,604.72,114.28Z" style="fill: #de2010"/>
    <path d="M604.79,112.11c-5.55-1.53-10.85.08-13.83,4.2-3.16,4.39-3.35,11.12-.47,17.16a21.91,21.91,0,0,0,13.38,11.67c.3.08.6.16.9.22,5.22,1.13,10.11-.51,12.93-4.41,3.16-4.37,3.34-11.1.47-17.15A21.91,21.91,0,0,0,604.79,112.11Zm10.69,25.41c-2.4,3.31-6.8,4.57-11.49,3.26a18,18,0,0,1-11.13-9.49c-2-4.19-1.87-8.5.32-11.55s6.3-4.43,10.68-3.48l.8.2h0A18.06,18.06,0,0,1,615.8,126C617.79,130.16,617.67,134.48,615.48,137.52Z"/>
    <path d="M588.13,118.84a14.51,14.51,0,0,0-13.25-5.79,13.55,13.55,0,0,0-11.06,8.76A15.25,15.25,0,0,0,566,136.36a14.56,14.56,0,0,0,13.25,5.77,13.52,13.52,0,0,0,11.05-8.73A15.25,15.25,0,0,0,588.13,118.84Z" style="fill: #de2010"/>
    <path d="M589,117.29a16,16,0,0,0-14.49-6.45,14.9,14.9,0,0,0-12,9.69,18.49,18.49,0,0,0,2.63,17.39,16.53,16.53,0,0,0,9.65,6.2,14.71,14.71,0,0,0,16.9-9.43A18.52,18.52,0,0,0,589,117.29Zm0,14.82a12.28,12.28,0,0,1-10.06,7.81,13.18,13.18,0,0,1-12-5.12,12.12,12.12,0,0,1-1.77-11.71,12.28,12.28,0,0,1,10.05-7.84h0a13,13,0,0,1,4.22.19,13.28,13.28,0,0,1,7.79,5A12.16,12.16,0,0,1,589,132.11Z"/>
    <path d="M561.1,121.46a13.25,13.25,0,0,0-13.38-4.11,14.93,14.93,0,0,0-10.39,10.28,15.14,15.14,0,0,0,3,14.37,13.3,13.3,0,0,0,13.37,4.09,14.9,14.9,0,0,0,10.39-10.23A15.19,15.19,0,0,0,561.1,121.46Z" style="fill: #de2010"/>
    <path d="M561.9,119.78a14.57,14.57,0,0,0-14.63-4.62A16.43,16.43,0,0,0,536,126.52a18.37,18.37,0,0,0,3.57,17.17,14.91,14.91,0,0,0,8.17,4.75,14.27,14.27,0,0,0,6.46-.17A16.38,16.38,0,0,0,565.48,137,18.47,18.47,0,0,0,561.9,119.78Zm.8,14.95a13.45,13.45,0,0,1-9.45,9.17,11.92,11.92,0,0,1-14.53-15.15,13.51,13.51,0,0,1,9.46-9.22h0a12.27,12.27,0,0,1,5.58-.16,11.85,11.85,0,0,1,6.53,3.78A12.05,12.05,0,0,1,562.7,134.73Z"/>
    <path d="M536.34,129.58A12,12,0,0,0,523,127.92a17.37,17.37,0,0,0-9.3,12.32c-1.08,5.42.48,10.73,4.09,13.93a12.09,12.09,0,0,0,13.39,1.63,17.29,17.29,0,0,0,9.31-12.25C541.51,138.14,540,132.81,536.34,129.58Z" style="fill: #de2010"/>
    <path d="M537,127.73a13.15,13.15,0,0,0-14.66-1.92,19.13,19.13,0,0,0-10.13,13.57c-1.26,6.37.66,12.89,4.89,16.65a12.85,12.85,0,0,0,6.12,3,13.84,13.84,0,0,0,8.54-1.13,19,19,0,0,0,10.13-13.49C543.14,138.08,541.22,131.52,537,127.73Zm2,14.94a15.58,15.58,0,0,1-8.48,11,11,11,0,0,1-12.12-1.36c-2.94-2.61-4.17-6.8-3.3-11.21A15.74,15.74,0,0,1,523.57,130h0a11.73,11.73,0,0,1,7.3-1,10.08,10.08,0,0,1,4.83,2.4C538.64,134.06,539.87,138.26,539,142.67Z"/>
    <path d="M511.53,141.61c-3.74-2.76-8.81-2.69-13.29.18a19.6,19.6,0,0,0-8.45,13.71c-.74,5.61,1.11,10.73,4.85,13.45s8.81,2.64,13.29-.22a19.38,19.38,0,0,0,8.45-13.62C517.12,149.52,515.27,144.36,511.53,141.61Z" style="fill: #de2010"/>
    <path d="M512.06,139.65c-4.14-3.05-9.71-3-14.55.1a21.52,21.52,0,0,0-9.19,15.09c-.87,6.58,1.4,12.88,5.79,16.07a11.7,11.7,0,0,0,4.75,2,13.74,13.74,0,0,0,9.8-2.16,21.26,21.26,0,0,0,9.19-15C518.72,149.24,516.45,142.89,512.06,139.65Zm2.84,14.78a17.53,17.53,0,0,1-7.71,12.26c-4.09,2.6-8.69,2.72-12,.3-3.05-2.21-4.5-6.26-3.9-10.82A17.65,17.65,0,0,1,499,143.84h0a11.52,11.52,0,0,1,8.3-1.89,9.09,9.09,0,0,1,3.72,1.61C514.05,145.8,515.51,149.87,514.9,154.43Z"/>
    <path d="M487.88,158.38c-3.87-2.12-8.83-1.16-13,2.52a22.51,22.51,0,0,0-7.27,15.27c-.31,5.77,1.89,10.6,5.76,12.69s8.83,1.12,13-2.53a22.21,22.21,0,0,0,7.27-15.18C494,165.38,491.75,160.51,487.88,158.38Z" style="fill: #de2010"/>
    <path d="M488.25,156.32C484,154,478.51,155,474,159a24.71,24.71,0,0,0-7.89,16.79c-.37,6.77,2.33,12.71,6.88,15.16a10.07,10.07,0,0,0,3.14,1.07c3.62.6,7.65-.7,11.11-3.73a24.37,24.37,0,0,0,7.89-16.68C495.5,164.82,492.8,158.82,488.25,156.32Zm3.89,14.39a20.18,20.18,0,0,1-6.64,13.69c-3.82,3.33-8.33,4.25-11.77,2.39-3.15-1.69-4.88-5.51-4.63-10.21a20.36,20.36,0,0,1,6.64-13.75h0c3-2.62,6.36-3.75,9.33-3.23a7.6,7.6,0,0,1,2.44.84C490.66,162.17,492.39,166,492.14,170.71Z"/>
    <path d="M465.93,177.06c-3.95-1.59-8.79.07-12.7,4.36A24.94,24.94,0,0,0,447,197.79c0,5.84,2.47,10.38,6.41,11.94s8.79-.1,12.7-4.35a24.67,24.67,0,0,0,6.28-16.28C472.32,183.26,469.87,178.66,465.93,177.06Z" style="fill: #de2010"/>
    <path d="M466.17,174.94c-4.35-1.76-9.68,0-13.91,4.66a27.49,27.49,0,0,0-6.81,18c0,6.86,3,12.45,7.67,14.27a8.63,8.63,0,0,0,2,.54c3.92.59,8.32-1.28,11.92-5.19a27.08,27.08,0,0,0,6.81-17.87C473.81,182.47,470.8,176.81,466.17,174.94Zm-1.09,28.61c-3.57,3.89-8,5.44-11.47,4-3.21-1.27-5.14-4.85-5.16-9.61a22.61,22.61,0,0,1,5.76-14.76h0c3.06-3.36,6.73-5,9.93-4.47a6.92,6.92,0,0,1,1.54.43c3.21,1.29,5.14,4.92,5.16,9.68A22.34,22.34,0,0,1,465.08,203.55Z"/>
    <path d="M446.5,201.92c-4-1.12-8.69,1.13-12.35,5.91A27,27,0,0,0,428.73,225c.31,5.86,3,10.13,6.93,11.22s8.69-1.16,12.35-5.89a26.66,26.66,0,0,0,5.42-17.11C453.12,207.38,450.47,203.05,446.5,201.92Z" style="fill: #de2010"/>
    <path d="M446.64,199.76c-4.4-1.25-9.59,1.19-13.55,6.36A29.74,29.74,0,0,0,427.23,225c.37,6.88,3.62,12.12,8.29,13.4a8.24,8.24,0,0,0,1.1.22c4.14.57,8.81-1.86,12.45-6.55a29.35,29.35,0,0,0,5.86-18.77C454.56,206.41,451.31,201.08,446.64,199.76Zm.32,28.88c-3.34,4.32-7.62,6.39-11.15,5.44-3.24-.89-5.33-4.26-5.59-9a24.48,24.48,0,0,1,5-15.51h0c3.08-4,6.95-6.11,10.31-5.62a7.34,7.34,0,0,1,.84.17c3.24.92,5.33,4.33,5.59,9.11A24.24,24.24,0,0,1,447,228.64Z"/>
    <path d="M429.57,230.49c-4-.58-8.52,2.33-11.87,7.63a29.2,29.2,0,0,0-4.37,18c.64,5.84,3.51,9.76,7.5,10.31s8.53-2.34,11.87-7.59a29,29,0,0,0,4.38-17.92C436.43,235.06,433.57,231.08,429.57,230.49Z" style="fill: #de2010"/>
    <path d="M429.59,228.3c-4.47-.62-9.41,2.52-13,8.25a32.1,32.1,0,0,0-4.71,19.74c.75,6.85,4.28,11.67,9,12.32h.11c4.39.54,9.33-2.59,12.91-8.21a31.8,31.8,0,0,0,4.72-19.65C437.8,233.89,434.28,229,429.59,228.3Zm2,28.95c-3,4.76-7.09,7.42-10.62,7h-.09c-3.26-.45-5.51-3.55-6-8.3a26.48,26.48,0,0,1,4-16.25h0c3-4.79,7.09-7.47,10.63-7h.09c3.25.48,5.51,3.62,6,8.38A26.3,26.3,0,0,1,431.56,257.25Z"/>
    <path d="M413.81,259.9c-4,.1-8.23,3.79-11.14,9.68a31.52,31.52,0,0,0-3,18.77c1.07,5.74,4.17,9.18,8.15,9.06s8.23-3.79,11.14-9.62a31.29,31.29,0,0,0,3-18.72C420.89,263.31,417.79,259.8,413.81,259.9Z" style="fill: #de2010"/>
    <path d="M413.66,257.7c-4.39.11-9.08,4.14-12.23,10.5a34.63,34.63,0,0,0-3.2,20.59c1.15,6.23,4.51,10.32,8.71,10.78a8.78,8.78,0,0,0,1,0c4.39-.14,9.08-4.12,12.22-10.43a34.2,34.2,0,0,0,3.21-20.51C422.16,261.91,418.34,257.59,413.66,257.7Zm4.06,28.7c-2.66,5.33-6.5,8.7-10,8.81-3.23.11-5.69-2.62-6.56-7.29-.94-5.1.12-11.61,2.79-17h0c2.66-5.37,6.5-8.76,10-8.85a6.06,6.06,0,0,1,.75,0c2.87.33,5,3,5.81,7.34A28.4,28.4,0,0,1,417.72,286.4Z"/>
    <path d="M399.83,293.33c-3.85,1.16-7.54,6-9.68,12.59s-2.42,14.06-.71,19.49,5.14,8.06,9,6.9,7.55-5.93,9.69-12.52,2.41-14,.7-19.47S403.69,292.18,399.83,293.33Z" style="fill: #de2010"/>
    <path d="M399.43,291.18c-4.25,1.27-8.34,6.54-10.65,13.71s-2.59,15.34-.7,21.34c1.6,5.09,4.62,8.16,8.07,8.51a7.1,7.1,0,0,0,2.68-.28c4.26-1.28,8.34-6.48,10.65-13.6s2.59-15.28.7-21.33C408.17,293.11,404,289.81,399.43,291.18Zm7.32,27.55c-1.95,6-5.29,10.39-8.72,11.42-3.14,1-5.84-1.12-7.23-5.55-1.52-4.83-1.25-11.59.71-17.63h0c1.95-6,5.3-10.45,8.72-11.47a4.9,4.9,0,0,1,1.91-.2c2.31.24,4.23,2.3,5.33,5.81C409,306,408.71,312.72,406.75,318.73Z"/>
    <path d="M389,330.34c-3.75,1.71-7.1,7.06-8.81,14s-1.52,14.41.51,19.61,5.59,7.33,9.33,5.63,7.1-7,8.8-13.91,1.52-14.39-.51-19.62S392.78,328.63,389,330.34Z" style="fill: #de2010"/>
    <path d="M388.51,328.24c-4.14,1.89-7.85,7.75-9.69,15.25s-1.62,15.73.63,21.47c1.74,4.47,4.57,7.07,7.68,7.35a6.87,6.87,0,0,0,3.47-.63c4.13-1.89,7.84-7.68,9.69-15.14s1.61-15.68-.63-21.47C397.28,328.92,392.9,326.23,388.51,328.24Zm8.95,26.56c-1.56,6.3-4.59,11.16-7.92,12.68-3.05,1.39-5.85-.3-7.51-4.54-1.8-4.62-1.95-11.42-.38-17.75h0c1.55-6.34,4.59-11.23,7.92-12.75A4.78,4.78,0,0,1,392,332c2.06.2,3.87,1.95,5.07,5C398.88,341.68,399,348.49,397.46,354.8Z"/>
    <path d="M387.54,406.41c-2.81-3.58-6.56-4.31-9.85-1.9s-5.6,7.58-6.07,13.53h0c-.48,6,1,11.81,3.77,15.35s6.57,4.26,9.85,1.88,5.6-7.49,6.07-13.44S390.35,410,387.54,406.41Z" style="fill: #de2010"/>
    <path d="M388.39,405c-3.24-4.13-7.58-5-11.35-2.23s-6.23,8.43-6.75,15,1.1,13.14,4.25,17.12a9,9,0,0,0,6.23,3.75,7.54,7.54,0,0,0,5.12-1.55c3.65-2.64,6.24-8.33,6.76-14.87S391.55,409,388.39,405ZM390,421.48c-.43,5.32-2.49,9.92-5.39,12s-6,1.42-8.35-1.57-3.71-8.28-3.28-13.56h0c.42-5.33,2.48-10,5.39-12.09a5.62,5.62,0,0,1,3.81-1.18,6.63,6.63,0,0,1,4.54,2.76C389.14,411,390.4,416.2,390,421.48Z"/>
    <path d="M381.5,368c-3.55,2.37-6.44,8.31-7.58,15.54s-.37,14.67,2,19.51,6.09,6.37,9.65,4,6.45-8.23,7.58-15.45.37-14.66-2-19.54S385.06,365.58,381.5,368Z" style="fill: #de2010"/>
    <path d="M380.82,365.94c-3.93,2.63-7.13,9.13-8.37,17s-.35,16,2.32,21.33c1.85,3.72,4.42,5.8,7.14,6a6.81,6.81,0,0,0,4.38-1.24c3.93-2.6,7.14-9,8.37-16.83s.35-16-2.31-21.38C389.51,365.07,385,363.15,380.82,365.94Zm10.91,25c-1,6.59-3.65,12-6.81,14.06-2.89,1.92-5.8.72-7.76-3.23-2.14-4.3-2.83-11.07-1.78-17.68h0c1-6.6,3.65-12,6.81-14.13a4.65,4.65,0,0,1,3-.88c1.8.15,3.47,1.58,4.74,4.15C392.1,377.57,392.78,384.36,391.73,390.94Z"/>
    <path d="M865.74,431c-3.41,1.22-5,7.7-2.22,20h0c3.13-4.59,6-5.69,9.73-3.58C872,434.45,869.15,429.81,865.74,431Z" style="fill: #ffe300"/>
    <path d="M871.57,470.88c-3.48.86-5.37,7.12-3.27,19.63h0c3.38-4.22,6.36-5,9.94-2.52C877.61,474.91,875.05,470,871.57,470.88Z" style="fill: #ffe300"/>
    <path d="M855.61,394.27c-3,2.44-3.37,9.41,1.37,20.55h0c2.17-5.67,4.75-7.82,8.63-7.08C862.1,395.39,858.64,391.83,855.61,394.27Z" style="fill: #ffe300"/>
    <path d="M843.73,357.46c-3,2.4-3.37,9.36,1.36,20.56h0c2.18-5.65,4.76-7.77,8.64-7C850.22,358.65,846.75,355.05,843.73,357.46Z" style="fill: #ffe300"/>
    <path d="M813,289c-2.68,3.05-2.25,10.11,3.6,20.33h0c1.5-6.12,3.77-8.79,7.64-8.82C819.47,288.82,815.69,285.94,813,289Z" style="fill: #ffe300"/>
    <path d="M793.88,258c-2.59,3.17-2,10.23,4.1,20.25h0c1.34-6.21,3.54-9,7.39-9.16C800.3,257.53,796.47,254.79,793.88,258Z" style="fill: #ffe300"/>
    <path d="M750.81,205.05c-1.71,4.26.34,11,8,18.28-.08-6.71,1.35-10.4,4.85-12.24C756.61,201.86,752.52,200.79,750.81,205.05Z" style="fill: #ffe300"/>
    <polygon points="758.85 223.33 758.85 223.33 758.85 223.33 758.85 223.33" style="fill: #ffe300"/>
    <path d="M773.28,229.62c-2.22,3.69-.95,10.69,5.93,19.6h0c.71-6.5,2.59-9.71,6.33-10.63C779.51,228,775.51,225.93,773.28,229.62Z" style="fill: #ffe300"/>
    <path d="M726.42,182.93c-1.38,4.54,1.11,11,9.18,17.3h0c-.55-6.76.59-10.68,3.9-13C731.89,178.89,727.79,178.39,726.42,182.93Z" style="fill: #ffe300"/>
    <path d="M701.24,164.77c-.89,4.86,2.16,10.92,10.61,15.6h0c-1.2-6.71-.47-10.91,2.51-13.94C706.16,159.58,702.13,159.9,701.24,164.77Z" style="fill: #ffe300"/>
    <path d="M674.91,149c-.59,5,2.76,10.76,11.35,14.48h0c-1.57-6.63-1.1-10.95,1.66-14.36C679.45,143.18,675.51,144,674.91,149Z" style="fill: #ffe300"/>
    <path d="M649.21,137.58c-.34,5.12,3.25,10.55,11.91,13.41h0c-1.88-6.51-1.62-10.92.93-14.64C653.39,131.23,649.55,132.46,649.21,137.58Z" style="fill: #ffe300"/>
    <path d="M634.37,127.3c-8.84-3.85-12.52-2-12.49,3.21s3.94,10.15,12.62,11.72h0C632.2,135.93,632.13,131.44,634.37,127.3Z" style="fill: #ffe300"/>
    <path d="M579.8,121.7c-8.9-.64-12,2.57-11.14,7.81s5.35,8.75,13.72,7.16h0C579.19,131.18,578.39,126.69,579.8,121.7Z" style="fill: #ffe300"/>
    <path d="M606.81,122.2c-8.93-2.46-12.39,0-12,5.28s4.6,9.61,13.21,9.79h0C605.32,131.28,604.93,126.76,606.81,122.2Z" style="fill: #ffe300"/>
    <path d="M553.24,124.78c-8.69,1.32-11.41,5.26-10,10.34s6,7.66,14,4.21h0C553.58,134.48,552.36,130.13,553.24,124.78Z" style="fill: #ffe300"/>
    <path d="M503.32,148.75c-8.12,4-10.21,8.77-8.23,13.46s6.78,5.85,13.93,0h0A16.22,16.22,0,0,1,503.32,148.75Z" style="fill: #ffe300"/>
    <path d="M527.63,135.11c-8.52,2.31-11,6.59-9.42,11.55s6.35,7,14,2.64h0C528.43,144.83,527,140.59,527.63,135.11Z" style="fill: #ffe300"/>
    <path d="M458.45,187.11c-7.16,6.71-8.47,12.21-5.92,16.23s7.29,3.57,13.25-4.71h0C461.35,196.23,459.13,192.8,458.45,187.11Z" style="fill: #ffe300"/>
    <path d="M479.66,165.08c-7.56,5.7-9.18,11-6.82,15.26s7.13,4.48,13.57-2.92h0C482.08,174.47,480,170.79,479.66,165.08Z" style="fill: #ffe300"/>
    <path d="M439.52,211.72c-6.65,7.81-7.6,13.52-4.83,17.18s7.41,2.5,12.77-6.69h0C442.94,220.44,440.54,217.33,439.52,211.72Z" style="fill: #ffe300"/>
    <polygon points="431.03 251.04 431.03 251.04 431.03 251.04 431.03 251.04" style="fill: #ffe300"/>
    <path d="M422.54,241.69c-6.08,8.82-6.67,14.69-3.7,17.95s7.47,1.42,12.19-8.6C426.46,249.94,423.9,247.17,422.54,241.69Z" style="fill: #ffe300"/>
    <path d="M408,273.81c-5,10.27-5,16.27-1.73,18.83s7.44-.35,11-11.5h0C412.73,281.13,409.94,279,408,273.81Z" style="fill: #ffe300"/>
    <polygon points="405.23 313.75 405.23 313.75 405.23 313.75 405.23 313.75" style="fill: #ffe300"/>
    <path d="M395.49,308.29c-4,11.28-3.43,17.27,0,19.18s7.27-1.84,9.76-13.72C400.74,314.66,397.81,313.06,395.49,308.29Z" style="fill: #ffe300"/>
    <path d="M385.48,344.53c-2.69,12.22-1.48,18.05,2.06,19.13s6.9-3.57,8-16h0C391.3,349.62,388.26,348.73,385.48,344.53Z" style="fill: #ffe300"/>
    <path d="M378.94,383.85c-2.11,12.52-.64,18.23,2.92,18.95s6.69-4.31,7.25-16.91h0C385,388.33,381.9,387.76,378.94,383.85Z" style="fill: #ffe300"/>
    <path d="M386.48,418c-3.92,2.68-7,2.78-10.17.24-1.16,10.25.7,14.48,4.26,14.4s6.28-4.6,5.91-14.64Z" style="fill: #ffe300"/>
    <path d="M831.11,324.78c-2.72,3-2.36,10.08,3.39,20.33h0c1.56-6.1,3.87-8.75,7.74-8.75C837.58,324.66,833.83,321.75,831.11,324.78Z" style="fill: #ffe300"/>
    <path d="M874.49,510.63c-3.48.86-5.36,7.14-3.26,19.64h0c3.37-4.23,6.35-5,9.93-2.56C880.53,514.64,878,509.76,874.49,510.63Z" style="fill: #ffe300"/>
    <path d="M820.81,316.16c-3.6-20.75-19-8.71-18.65-1.47s9.94,18.37,10.52,22.85-1.08,17.79,2.41,19.63h0S824.41,336.93,820.81,316.16Z" style="fill: #ffd200"/>
    <path d="M811.5,303.68c-5,.45-10.19,6.17-10,11,.21,4.56,3.57,10.16,6.54,15.09,1.86,3.08,3.78,6.27,4,7.87a50.47,50.47,0,0,1,.1,5.66c-.07,5.89-.16,13.22,2.77,14.76l.45.23c.09-.18.17-.35.25-.53.39-.83,9.43-20.8,5.8-41.73C820,307.72,816.38,303.24,811.5,303.68ZM814.83,356c-1.53-1.73-1.45-7.87-1.4-12.46a49.88,49.88,0,0,0-.12-6c-.28-2.16-2.07-5.11-4.32-8.85-2.68-4.45-6-10-6.2-13.87-.16-3.51,4.3-8.77,8.91-9.19a5.84,5.84,0,0,1,1.44,0c2.69.39,5.68,2.78,7.05,10.72C823.34,334.41,816.34,352.39,814.83,356Z" style="fill: #ef8a10"/>
    <path d="M836.22,314.49h0a47.73,47.73,0,0,0-8.36,31.29c1.73,18,9.45,40.9,8,59.13a299.17,299.17,0,0,1-3.7,30.16s11.74-18.05,11.85-36.78-8-44.3-8-58.12S836.44,314.2,836.22,314.49Z" style="fill: #217900"/>
    <path d="M837.23,340.32c0-7.08.11-13.67.19-18.48.15-8.29.15-8.29-.7-8.93a1,1,0,0,0-.59-.21c-.47,0-.74.22-1.91,2a50.78,50.78,0,0,0-7.57,31.13,224.45,224.45,0,0,0,3.77,22.32c2.51,12.5,5.12,25.4,4.27,36.37-1.39,17.87-3.64,29.77-3.66,29.89a2.37,2.37,0,0,0,.6,2.11,1.07,1.07,0,0,0,.57.29,1,1,0,0,0,.92-.49c.49-.73,12-18.74,12.15-37.91.06-10.4-2.38-22.93-4.54-34C838.93,355.17,837.23,346.4,837.23,340.32Zm-2.58,87.43c.77-5.34,1.73-13.11,2.46-22.49.9-11.69-1.77-24.95-4.36-37.8-1.56-7.75-3-15.09-3.69-21.77A45.78,45.78,0,0,1,835,319c0,.76,0,1.57,0,2.4-.09,4.83-.2,11.45-.2,18.58,0,6.58,1.75,15.6,3.6,25.13,2.11,10.84,4.5,23.1,4.44,33C842.76,409.62,838,421.05,834.65,427.75Z"/>
    <path d="M856.66,417.48s-3.26-8.13-2.94-21,1.2-20,1.09-20.2h0s-7.83,7.55-7.07,27,14.46,56.5,14.46,56.47,10,31,9.67,38.7,1.85-7.29.87-24.52S856.66,417.51,856.66,417.48Z" style="fill: #217900"/>
    <path d="M857.7,416.66c0-.07-3.07-7.86-2.76-19.93.23-9,.72-15.15,1-18.11.19-2.37.22-2.74-.22-3.44s-1.11-.83-1.59-.36-8.35,8.28-7.56,28.46c.77,19.67,14,55.78,14.57,57.18,2.75,8.51,9.81,31.84,9.56,37.81-.08,1.84-.13,3.06.62,3.78a1.08,1.08,0,0,0,.63.31.92.92,0,0,0,.66-.21c1.52-1.26,1.94-18.48,1.39-28.22C873,456.54,858.33,418.35,857.7,416.66Zm14,72.21c-2.53-11.45-7.63-27.41-8.42-29.84-.13-.34-13.56-36.84-14.3-55.67-.45-11.54,2.2-18.59,4.28-22.28-.25,3.46-.57,8.6-.74,15.25-.33,13.21,3,21.62,3.11,21.93s15,39.16,15.92,55.75C871.83,479.42,871.82,484.6,871.68,488.87Z"/>
    <path d="M637.12,143.79s33.58,9.21,33.8,41c-.11,4.9,0,10.79-1.2,24.66,6.63-3.81,11.09-17.47,10.22-27C680.05,150.23,649.94,121.69,637.12,143.79Z" style="fill: #217900"/>
    <path d="M660.49,138c-9.84-7-19-5.4-24.59,4.19a3,3,0,0,0-.16,2.26,2.18,2.18,0,0,0,1.32,1.55c.32.1,32.14,9.19,32.33,38.36,0,.81,0,1.64,0,2.53-.06,4.4-.15,10.43-1.14,21.93a3.24,3.24,0,0,0,.65,2.26,1.63,1.63,0,0,0,.86.57,1,1,0,0,0,.73-.11c7.38-4.26,11.88-18.75,11-28.95C681.48,162.14,670.62,145.17,660.49,138Zm11.14,67.11c.64-8.62.71-13.65.77-17.47,0-.88,0-1.69,0-2.57-.09-14-6.31-26-18-34.68a59.93,59.93,0,0,0-14.18-7.76c4.8-5.6,11.79-5.89,19.24-.62,9.44,6.68,19,22.56,18.9,40.06a1.61,1.61,0,0,0,0,.31C679.08,189.5,676.26,200,671.63,205.11Z"/>
    <path d="M615.82,137.72h0s27.06-2.35,27.27,29.44-8.58,35-8.58,35,20.76-2,20.87-34.19S628.65,115.6,615.82,137.72Z" style="fill: #217900"/>
    <path d="M640.31,130c-9.68-6.86-19.53-4.52-25.7,6.13a3,3,0,0,0-.07,2.52c.34.85,1,1.39,1.6,1.33.13,0,13.35-1,20.63,9.15,3.14,4.38,4.76,10.34,4.81,17.73.2,29.47-7.57,33-7.62,33.07-.74.26-1.13,1.36-.9,2.51a2.29,2.29,0,0,0,1.46,1.9.85.85,0,0,0,.32,0c.22,0,22-2.49,22.07-36.09C657,152.2,650.45,137.19,640.31,130Zm0,67.79c2.3-5.15,4.47-14.26,4.36-30.31-.06-8.79-2.07-16-6-21.41a25.27,25.27,0,0,0-15.5-9.94,28.82,28.82,0,0,0-3.46-.55c6.14-6.95,13.91-5.63,19.63-1.57,8.87,6.29,14.57,19.47,14.52,33.58C653.8,186.83,646,194.64,640.27,197.78Z"/>
    <path d="M877,590.5c-1.25,17.5-15.56,68-15.15,81.9s-.41,23.3,4.57,33.78c-2.91-12.06,13.9-77.47,18.67-105.34,3.74-24.55-5.81-38.92-6.43-53.23C878.08,553.32,877,574.74,877,590.5Z" style="fill: #217900"/>
    <polygon points="878.7 547.61 878.7 547.61 878.7 547.61 878.7 547.61" style="fill: #217900"/>
    <path d="M880.22,547.59a2.16,2.16,0,0,0-1.45-2.19c-.73-.12-1.46.63-1.58,1.74-.66,6.07-1.67,27.76-1.67,43.11-.59,7.91-4,23.29-7.33,38.15-4.14,18.56-8.05,36.06-7.82,44,.07,2.33.1,4.54.14,6.64.16,10.65.29,19.07,4.71,28.38a1.65,1.65,0,0,0,1.24,1,1.11,1.11,0,0,0,.71-.19,2.56,2.56,0,0,0,.72-2.65c-1.8-7.49,5.84-42.66,11.41-68.42,3-13.69,5.76-26.65,7.32-35.72,2.5-16.44-.79-28.77-3.43-38.69C881.71,557.17,880.43,552.35,880.22,547.59Zm3.43,52.61c-1.52,8.88-4.31,21.76-7.26,35.39-5.85,27-10.35,48.48-11.5,61.19-1.15-5.31-1.23-10.83-1.34-17.59,0-2.13-.07-4.36-.14-6.73-.21-7.09,3.8-25,7.68-42.44,3.53-15.84,6.87-30.83,7.47-39.17v-.23c0-9.77.39-21.36.83-30.16.31,1.22.64,2.45,1,3.69C883,574,885.94,585.13,883.65,600.2Z"/>
    <path d="M878.7,547.92c-.21,0,5.81,23.2,7.47,38.47s-6.43,30.1-6,44.06,1.66,20.45,6.64,30.82c-2.9-12,5.81-38,6.64-60.73S878.7,548,878.7,547.92Z" style="fill: #217900"/>
    <path d="M877.45,546.53c-.48,1-.48,1,.64,5.77,1.6,6.9,5.35,23,6.57,34.32.84,7.74-1.07,15.68-2.93,23.35-1.63,6.71-3.3,13.64-3.1,20.45.44,14.73,1.92,21.64,6.93,32.07a1.61,1.61,0,0,0,1.23,1,1.11,1.11,0,0,0,.71-.21,2.59,2.59,0,0,0,.72-2.66c-1.45-6,.53-17.06,2.62-28.74,1.75-9.76,3.73-20.84,4.11-31.13.85-23.2-14.41-52.82-15.06-54.12A1.31,1.31,0,0,0,877.45,546.53Zm14.46,53.79c-.36,9.85-2.31,20.69-4,30.24-1.46,8.12-2.79,15.53-3.13,21.74-2.08-6-2.79-11.86-3.09-21.82-.17-6,1.34-12.21,2.94-18.83,2-8.18,4-16.65,3.06-25.5-.76-7-2.42-15.63-4-22.95C887.79,573.68,892.35,588.2,891.91,600.32Z"/>
    <polygon points="368.95 467.17 368.95 467.17 368.95 467.17 368.95 467.17" style="fill: #217900"/>
    <path d="M369,467.17c-.62,14.19-7.88,26.44-4.15,51.53,4.78,28.43,21.79,65.57,19.09,106.28,5-9.57,6.43-20.63,6.85-34.54s-18.88-62.54-20.13-80.13C370.61,494.56,369.58,473,369,467.17Z" style="fill: #217900"/>
    <path d="M372.14,510.3c0-15.37-1-37.21-1.68-43.37-.12-1.13-.79-2-1.58-2s-1.4.85-1.45,2a85.73,85.73,0,0,1-2.17,13.86c-2.11,9.91-4.5,21.16-1.94,38.36,1.57,9.35,4.42,19.55,7.44,30.37,6.29,22.5,13.41,48.12,11.61,75.12a2.68,2.68,0,0,0,1,2.38,1.18,1.18,0,0,0,1.77-.62c5.66-10.86,6.78-23.57,7.14-35.71.23-7.68-4.74-24-10-41.14C377.58,534.27,372.75,518.54,372.14,510.3ZM385.7,616.13c0-24.63-6.41-47.64-12.12-68.12-3-10.67-5.79-20.72-7.29-29.69-2.38-16-.12-26.65,1.88-36,.06-.27.11-.53.17-.79.4,8.63.75,19.5.75,28.71a1.77,1.77,0,0,0,0,.23c.63,8.94,5.59,25.08,10.39,40.74,4.88,15.91,9.92,32.42,9.73,39C389,598.92,388.3,607.93,385.7,616.13Z"/>
    <path d="M363.35,505.28c1.66-15,5.81-37.79,5.6-37.8h0s-15.14,26.91-14.31,49.72c.2,15.09,19.29,79.66,16.39,91.31,5-9.63,6.43-8.29,6.22-23.46C371.65,545.8,361.69,520.32,363.35,505.28Z" style="fill: #217900"/>
    <path d="M378.74,584.71c-2.52-17.69-6-32.84-8.75-45-3.35-14.65-6-26.21-5.13-34,1.09-9.88,3.26-23.12,4.56-31,1.24-7.55,1.24-7.55.73-8.53a1.58,1.58,0,0,0-1.2-.93h0a1.32,1.32,0,0,0-1.18.76c-.63,1.09-15.5,27.85-14.65,51.15.1,6.93,3.61,22.18,7.68,39.88,4.57,19.91,10.27,44.77,8.8,50.62a2.88,2.88,0,0,0,.73,2.77,1.25,1.25,0,0,0,.71.31,1.33,1.33,0,0,0,1.23-.83c1-1.87,1.79-3.3,2.52-4.57,3.24-5.64,4.17-7.8,4-20.22C378.77,585,378.76,584.85,378.74,584.71Zm-6.05,17.16c-.76-9.49-4.24-25.28-9-46.08-3.65-15.91-7.42-32.32-7.51-38.63-.51-13.83,5.28-29.59,9.56-39.2-1.29,7.93-3,18.53-3.87,26.87-1,8.86,1.63,20.28,5.25,36.11,2.74,12,6.15,26.91,8.63,44.24C375.87,595.94,375.25,597.41,372.69,601.87Z"/>
    <path d="M691.6,276.8c-1.33-22.89-28.36-31.15-28.36-31.16h0c-.19.55-58.23-13.82-77.33-16.5S564.17,248,564.17,248s1.51,28.2,6.81,68.79,18.34,38.68,18.34,38.69,44.43,13.51,72.79,14.69c26.46-8.66,23.06-58.3,23.06-58.29S692.92,299.72,691.6,276.8Z" style="fill: #8c8a8c"/>
    <path d="M692.81,276.91c-1.39-24.16-28.35-32.66-29.5-33l-4.06-1.26c.14.2.29.39.44.59-3.39-.69-9.17-2.06-15.46-3.5-18.44-4.25-46.3-10.67-58.38-12.36-10.32-1.46-16,4.05-18.93,8.92A31.46,31.46,0,0,0,563,247.45l0,.22,0,.22c0,.29,1.57,28.77,6.82,69,2.28,17.51,6.27,29.62,11.84,36,3.73,4.26,6.94,4.44,7.78,4.41,1.74.51,17.47,5.16,35.69,9.14,12.45,2.71,26.07,5.09,37.16,5.54l.28,0c25.25-8.27,24.17-53,23.89-59.25C687.91,310.09,694,297.93,692.81,276.91Zm-8.58,33.66-.32.5c0,.25,0,.5.05.75,0,.46,3,48.17-22.14,56.56-27.93-1.2-72-14.57-72.43-14.65l-.19-.06-.17,0c-.11,0-2.82.29-6.18-3.62s-8-12.95-10.68-33.36c-5-38-6.61-65.49-6.77-68.35.33-2.23,3.5-19.84,20.57-17.43,12,1.68,39.83,8.09,58.24,12.33,12.76,2.94,17.26,4,19,4v.11c.26.1,26,8.23,27.22,29.31C691.65,298.55,684.3,310.45,684.23,310.57Z"/>
    <path d="M684,310.26c-1.52,2.46-14.87,24.31-13.28,35.91a1.88,1.88,0,0,0,1.19,1.68,1,1,0,0,0,.24,0c.66-.05,1.09-.9,1-1.9-1.14-8.39,8.85-26.71,12.8-33.07a2.48,2.48,0,0,0-.18-2.55C685.21,309.62,684.44,309.58,684,310.26Z"/>
    <path d="M693.68,682.27Q684.23,556,674.77,429.78s-.76-16.45-1.51-32.91-4.16-22.15-7.75-27.34h0c-14.56,1.85-66.37-12.26-76.39-13-9.64,3.18-11.91,37.77-11.91,37.77q-9.74,129.36-19.47,258.76-10,101.88-20,203.83s3,21.27,21.55,33.65c2.65,16.28,17.59,26.86,24.2,29.67s21.37-2.32,29.87-1.56,22.5,12.35,26.47,13.49c4.35,1.26,48.4,3.59,56.53-19.63,11.16.67,15.13-19,15.13-19l-1.14-28.11Q702,773.88,693.68,682.27Z" style="fill: #8c8a8c"/>
    <path d="M694.89,682.33Q685.44,556.15,676,429.92q-.76-16.46-1.52-32.91c-.76-16.69-4.16-22.86-8.18-28.67L665,366.48l-.39,1.33c-9.85.89-34.92-4.64-53.34-8.69-10.47-2.3-18.73-4.1-22.26-4.37l-.31,0c-10.24,3.38-12.61,37.65-12.7,39.08q-9.74,129.33-19.47,258.71-10,101.89-20,203.84l0,.31,0,.31c.13.92,3.32,22,21.74,34.71,3.38,17.45,19.53,27.87,25,30.2a10.4,10.4,0,0,0,1.84.57c4,.86,9.61,0,15.46-.92,4.6-.71,9.35-1.45,12.85-1.14,5.27.45,13.05,5.48,18.73,9.14,3.37,2.17,6,3.89,7.58,4.33,3.5,1,48.1,4,57.38-19.58,11.32-.07,15.33-19.23,15.5-20.06l.06-.28q-.58-14.28-1.16-28.56Q703.21,773.92,694.89,682.33Zm1.31,228.4-.68,0-.3.85c-7.6,21.71-50,20.4-55.37,18.86-1.26-.36-3.92-2.08-7-4.07-5.87-3.78-13.92-9-19.63-9.46-3.7-.33-8.55.42-13.24,1.15-6.28,1-12.78,2-16.36.48-5.18-2.2-20.57-12-23.18-28.12-.06-.33-.11-.67-.17-1l-.65-.44c-16.62-11.11-20.24-29.22-20.68-31.87q10-101.8,20-203.55,9.74-129.4,19.48-258.78c.61-9.25,3.76-33.69,11-36.38,3.52.31,12,2.15,21.87,4.32,19.58,4.31,43.86,9.66,53.91,8.72,3.5,5.16,6.19,10.65,6.86,25.33q.76,16.5,1.52,33Q683,556,692.47,682.26q8.31,91.54,16.63,183,.55,13.91,1.12,27.8C709.7,895.34,705.72,911.3,696.2,910.73Z"/>
    <path d="M558.22,890l2.44.62q2-91.53,4-183l-2.44-.62Q560.21,798.49,558.22,890Z"/>
    <path d="M684.52,757.83q5.58,77,11.15,153.92l2.43.12Q692.52,834.94,686.94,758Z"/>
    <path d="M665.42,433.75Q646.57,345,627.72,256.11,608.87,336.72,590,417.39c-40.67-8.73-81.33-17-122-23.57,32.89,40.21,65.79,81.56,98.69,123.36Q547.87,598,529,679c32.9-28.46,65.8-56.21,98.7-83.94,32.9,42.08,65.8,84.18,98.7,125.59q-18.85-88.46-37.7-177.17c32.9-28,65.8-56.38,98.7-85.89C746.75,450.89,706.09,442.51,665.42,433.75Z" style="fill: #fff"/>
    <path d="M787.42,455.72c-40.36-6.63-80.72-14.93-121.07-23.62Q647.63,344,628.93,255.8a1.89,1.89,0,0,0-1.21-1.54c-.55-.12-1,.29-1.21,1q-18.71,80-37.41,160C548.74,406.68,508.38,398.46,468,392c-.55-.09-1,.35-1.21,1.09a2.59,2.59,0,0,0,.46,2.14c32.65,39.89,65.3,80.91,97.94,122.38q-18.71,80.17-37.4,160.59a2.65,2.65,0,0,0,.46,2.16,1,1,0,0,0,1.49.29c32.65-28.23,65.3-55.77,98-83.29C660.37,639.09,693,680.87,725.67,722a1.3,1.3,0,0,0,.75.5.86.86,0,0,0,.74-.21,2.09,2.09,0,0,0,.47-2q-18.71-87.78-37.41-175.82c32.64-27.78,65.29-56,97.94-85.29a2.13,2.13,0,0,0,.46-2A1.75,1.75,0,0,0,787.42,455.72ZM688,541.8a2.09,2.09,0,0,0-.47,2Q705.76,629.64,724,715.3c-31.84-40.12-63.69-80.87-95.53-121.6a1.38,1.38,0,0,0-.75-.52.85.85,0,0,0-.75.19c-31.84,26.85-63.69,53.71-95.53,81.23Q549.68,596.18,567.93,518a2.68,2.68,0,0,0-.47-2.17c-31.84-40.47-63.68-80.52-95.53-119.53,39.37,6.44,78.73,14.48,118.09,22.93.55.12,1-.3,1.21-1q18.24-78.09,36.49-156.11,18.24,86,36.49,172a1.91,1.91,0,0,0,1.21,1.54c39.36,8.48,78.73,16.6,118.09,23.17C751.66,487.26,719.82,514.72,688,541.8Z"/>
  </g>
</svg>
