<svg xmlns="http://www.w3.org/2000/svg" viewBox="0 0 1260 1008.3">
  <g>
    <path d="M1,1005.89c419.55-269,839.1,182.62,1258.65-87.24V1.94C840.14,271.8,420.59-179.84,1,89.18Z" style="fill: #21428e"/>
    <path d="M688,56.87C649.32,48.76,610.68,40.09,572,32V426.21c-190.66-40-381.31-66.3-572,56.46V614.08c190.66-122.76,381.31-96.47,572-56.46V951.84C610.68,960,649.32,968.62,688,976.73V582.51c190.65,40,381.31,66.3,572-56.46V394.64C1069.28,517.4,878.62,491.11,688,451.1Z" style="fill: #fff"/>
    <path d="M688,56.82C649.34,48.7,610.66,40,572,31.9V426.12c-190.66-40-381.31-66.27-572,56.52V614.19c190.66-122.8,381.31-96.52,572-56.52V951.9C610.66,960,649.34,968.7,688,976.82V582.59c190.66,40,381.31,66.28,572-56.51V394.53C1069.34,517.32,878.69,491.05,688,451Zm571.84,337.93V526c-190.65,122.73-381.31,96.42-572,56.4V976.65c-38.6-8.1-77.2-16.76-115.81-24.87V557.56c-190.65-40-381.31-66.32-572,56.4V482.7c190.65-122.73,381.31-96.42,572-56.41V32.06C610.7,40.17,649.3,48.83,687.9,56.93V451.16C878.56,491.17,1069.22,517.48,1259.87,394.75Z" style="fill: #21428e"/>
    <path d="M353.68,264.62c-24.35-4.28-72.27.52-93.14,9.47-3.86,1.6.39-1.77,9.66-7.47,11.21-6.64,29.76-11.82,54.88-14,55.65-3.76,80.77-13.11,80.77-38.91,0-24.26-24.73-42.26-77.68-49.21-52.17-5-56-14.45-12-30.23,31.3-9.94,47.15-23.72,47.15-44.61,0-31.38-15.85-44.56-68.79-46.7-32.08-.58-39.81,1.46-53.72,10-9.27,5.69-16.62,13.54-16.62,16.92,0,3.82,5.46,3.14-1.39,6.5s-24.34,10-36.93,11.87c-4.15.86-14.13.18-17,1.32s13.1,4.46,6.92,4.22c-8.5-.57-13.38-.22-6.81,2.8,5,2.17,16.11-.36,32-5.38,6.37-2.08,22.38-8.78,28.27-10,4.06-.9,3.75,2.58,6.26,2.49,20.87-1.58,57.93-4.31,74.16-6.65,13.53-2.16,18.55-1.13,22.42,4,7.73,10-.39,18-22.42,23.1-27.05,6.63-38.26,13.15-48.69,26.16-25.12,32.42,4.25,61.06,59.13,65.84,32.07,3.32,52.94,12.09,47.92,17.14-1.94,2-23.19,3.83-47.54,5.75-52.94,4.57-76.52,16.25-96.61,40-11.21,13.47-15.08,21.42-15.08,31.15,0,13.65,0,13.33-20.48,17.39-10.82,2.17-25.89,4.2-32.85,3.6-10.82,0-12.36.57-8.5,4.5,7.73,7.84,29.76,10.93,47.92,7.54,13.91-2.64,21.64-.87,34,7.19,24.73,16.84,53,21.58,99.71,21.91,61.45,1.23,96.61-10.46,96.61-40.95C425.17,289.15,402,272.08,353.68,264.62Zm-85-205.18c-1.16,2.19-4.26,4.53-6.19,4.67-2.32.18-2.7-1.9-1.54-4.12a8.57,8.57,0,0,1,6.18-4.69C269.43,55.14,269.82,56.82,268.66,59.44Zm119.41,247.9c-6.57,6.39-49.08,9.68-75,8-28.6-3.14-59.52-10.54-50.24-15.52,25.89-14.07,93.91-14.17,117.48-1.57C387.69,301.78,390.39,305,388.07,307.34Z" style="fill: #fff"/>
    <path d="M1044.6,348.16c-24.35,1.85-72.27,9.36-93.14,15.78-3.86,1.27.39-1.66,9.66-6.92,11.21-6.2,29.76-11,54.88-16.14,55.65-11.45,80.77-33.55,80.77-58.51s-24.73-30.77-77.68-30c-52.17-.57-56-11.27-12-28.88,31.3-13.16,47.15-31.77,47.15-52.41,0-32.28-15.85-38.19-68.79-37.55-32.08-.14-39.81.19-53.72,7.31-9.27,4.48-16.62,10.94-16.62,14.33,0,3.82,5.46,4.11-1.39,6.24s-24.34,5-36.93,3c-4.15-.32-14.13-4.24-17-4.16s13.1,8.85,6.92,6.55c-8.5-3.37-13.38-4.85-6.81.51,5,3.89,16.11,5.19,32,4.17,6.37-.36,22.38-3.75,28.27-4.14,4.06-.23,3.75,3.19,6.26,3.47,20.87,2.13,57.93.18,74.16-4,13.53-3.25,18.55-3.07,22.42,1.59,7.73,8.72-.39,18.56-22.42,25.54-27,8.39-38.26,13.79-48.69,26.27C926.73,249.31,956.1,285.14,1011,285c32.07-.21,52.94,2,47.92,8.6-1.94,2.48-23.19,9.81-47.54,14.26-52.94,9.3-76.52,15.58-96.61,36.35-11.21,11.38-15.08,18.3-15.08,28.06,0,13.51,0,13.71-20.48,12.11-10.82-.86-25.89-4.13-32.85-7.5-10.82-4.24-12.37-4.48-8.5,1.1,7.73,11.17,29.76,22.57,47.92,23.88,13.91,1,21.64,4.38,34,14.6,24.73,20.54,53,29,99.71,23.65,61.45-7.57,96.61-38.05,96.61-67.69C1116.09,349.59,1092.91,345,1044.6,348.16Zm-85-198.4c-1.16,2.15-4.26,4.31-6.19,4.33-2.32,0-2.7-2.1-1.54-4.23a8,8,0,0,1,6.18-4.31C960.35,145.51,960.74,147.2,959.58,149.76ZM1079,382c-6.57,9.08-49.08,23.24-75,22.79-28.6-.36-59.52-10.73-50.24-15,25.89-10.07,93.91-18.2,117.48-14.62C1078.61,376.59,1081.31,378.91,1079,382Z" style="fill: #fff"/>
    <path d="M355.3,788c-24.35-4.33-72.27.36-93.14,9.26-3.87,1.59.38-1.78,9.66-7.45C283,783.17,301.58,778,326.7,775.92c55.65-3.63,80.77-12.95,80.77-38.75,0-24.27-24.74-42.3-77.68-49.36-52.17-5.14-56-14.58-12-30.26C349.11,647.68,365,633.93,365,613c0-31.38-15.85-44.58-68.79-46.85-32.08-.65-39.81,1.36-53.72,9.89-9.28,5.67-16.62,13.49-16.62,16.88,0,3.81,5.46,3.15-1.39,6.49s-24.35,9.91-36.93,11.76c-4.15.85-14.14.14-17,1.26s13.1,4.51,6.92,4.25c-8.5-.6-13.38-.27-6.81,2.77,5,2.2,16.11-.3,31.95-5.27,6.38-2.07,22.39-8.72,28.27-9.94,4.07-.89,3.76,2.59,6.27,2.5,20.87-1.52,57.93-4.15,74.16-6.46,13.53-2.13,18.55-1.09,22.41,4.08,7.73,10.05-.38,18-22.41,23.05-27.05,6.57-38.26,13.06-48.7,26-25.12,32.34,4.26,61.07,59.13,66,32.08,3.39,52.95,12.2,47.92,17.24-1.93,2-23.18,3.79-47.53,5.66-52.95,4.45-76.52,16.06-96.62,39.7-11.2,13.44-15.07,21.38-15.07,31.11,0,13.65,0,13.33-20.48,17.33C179.07,832.64,164,834.62,157,834c-10.82,0-12.37.53-8.5,4.47,7.73,7.86,29.76,11,47.92,7.7,13.91-2.6,21.64-.81,34,7.29,24.73,16.9,52.94,21.73,99.71,22.15,61.44,1.36,96.61-10.29,96.61-40.77C426.79,812.61,403.6,795.51,355.3,788Zm-85-205.38c-1.16,2.19-4.25,4.52-6.18,4.66-2.32.17-2.71-1.91-1.55-4.12a8.57,8.57,0,0,1,6.19-4.68C271.05,578.3,271.43,580,270.27,582.59ZM389.69,830.75c-6.57,6.38-49.08,9.59-75,7.8-28.6-3.2-59.52-10.69-50.24-15.64,25.89-14,93.91-14,117.48-1.32C389.3,825.18,392,828.43,389.69,830.75Z" style="fill: #fff"/>
    <path d="M1044.6,871.1c-24.35,1.85-72.27,9.36-93.14,15.78-3.86,1.27.39-1.66,9.66-6.92,11.21-6.2,29.76-11,54.88-16.14,55.65-11.45,80.77-33.55,80.77-58.51s-24.73-30.77-77.68-30c-52.17-.57-56-11.27-12-28.88,31.3-13.16,47.15-31.77,47.15-52.41,0-32.28-15.85-38.19-68.79-37.55-32.08-.14-39.81.19-53.72,7.31-9.27,4.48-16.62,10.94-16.62,14.33,0,3.82,5.46,4.11-1.39,6.24s-24.34,5-36.93,3c-4.15-.32-14.13-4.24-17-4.16s13.1,8.85,6.92,6.55c-8.5-3.37-13.38-4.85-6.81.51,5,3.9,16.11,5.19,32,4.17,6.37-.36,22.38-3.75,28.27-4.14,4.06-.23,3.75,3.19,6.26,3.47,20.87,2.13,57.93.18,74.16-4,13.53-3.25,18.55-3.07,22.42,1.59,7.73,8.72-.39,18.56-22.42,25.54-27,8.39-38.26,13.79-48.69,26.27C926.73,772.25,956.1,808.08,1011,808c32.07-.21,52.94,2,47.92,8.6-1.94,2.48-23.19,9.81-47.54,14.26-52.94,9.3-76.52,15.58-96.61,36.35-11.21,11.38-15.08,18.3-15.08,28.06,0,13.51,0,13.71-20.48,12.11-10.82-.86-25.89-4.13-32.85-7.5-10.82-4.24-12.37-4.48-8.5,1.1,7.73,11.17,29.76,22.57,47.92,23.88,13.91,1,21.64,4.39,34,14.6,24.73,20.54,53,29,99.71,23.65,61.45-7.57,96.61-38,96.61-67.69C1116.09,872.53,1092.91,867.9,1044.6,871.1Zm-85-198.4c-1.16,2.15-4.26,4.31-6.19,4.33-2.32,0-2.7-2.1-1.54-4.23a8,8,0,0,1,6.18-4.31C960.35,668.45,960.74,670.14,959.58,672.7ZM1079,904.92c-6.57,9.08-49.08,23.24-75,22.79-28.6-.36-59.52-10.73-50.24-15,25.89-10.07,93.91-18.2,117.48-14.62C1078.61,899.53,1081.31,901.85,1079,904.92Z" style="fill: #fff"/>
  </g>
</svg>
