<svg xmlns="http://www.w3.org/2000/svg" xmlns:xlink="http://www.w3.org/1999/xlink" viewBox="0 0 1260 1012.04">
  <defs>
    <clipPath id="a">
      <path d="M0,90.08v230c245-158.27,490-69.55,735-22v230c-35-6.79-70-14.42-105-22.06C420,306.89,210,107.75,0,90.08ZM630,46C525,23.12,420,.22,315,0V536.67c-105-.22-210,22.24-315,90.07V550.08C210,261.09,420,153.55,630,46Z" style="fill: none"/>
    </clipPath>
  </defs>
  <g>
    <path d="M0,90.08v920C420,738.76,840,1193.28,1260,922V2C840,273.28,420-181.24,0,90.08Z" style="fill: #00247d"/>
    <path d="M0,90.08C210,107.75,420,306.89,630,506m0-460C420,153.55,210,261.09,0,550.08"/>
    <path d="M315,281.43C415.3,354.88,515.61,449,615.91,544.09L644.09,468C557.87,386.23,471.65,303.83,385.44,233.3c86.21-55.38,172.43-98.88,258.65-143.06Q637,68.13,630,46c-23.48-5.12-47-10.24-70.44-15.11C478,73.54,396.52,119.22,315,178.57,233.48,118.88,152,72.86,70.44,51.13A575.74,575.74,0,0,0,0,90.08v51.43c81.52,6.86,163,41.06,244.56,92C163,301.62,81.52,386.46,0,498.65v51.43q7.05,16,14.09,32.31C114.39,448.19,214.7,354.46,315,281.43Z" style="fill: #fff"/>
    <g style="clip-path: url(#a)">
      <path d="M0,90.08C210,107.75,420,306.89,630,506m0-460C420,153.55,210,261.09,0,550.08"/>
      <path d="M315,264.29C416.87,338.88,518.74,434.82,620.61,531.4l18.78-50.76C546.91,393,454.44,304.76,362,231.54c92.48-61.82,185-108.67,277.43-156L630,46c-15.65-3.41-31.31-6.83-47-10.16C493.69,82,404.35,130.66,315,195.71c-89.35-65.42-178.69-114.42-268-133Q23.49,74.94,0,90.08v34.28c89.35,7.52,178.7,47.89,268,107.13C178.7,302.73,89.35,392.83,0,515.79v34.29q4.7,10.68,9.39,21.48C111.26,434,213.13,338.46,315,264.29Z" style="fill: #cf142b"/>
    </g>
    <path d="M315,0V536.67M0,320.08c245-158.27,490-69.55,735-22"/>
    <path d="M367.5,1.9a728.67,728.67,0,0,0-105,0h0a728.67,728.67,0,0,1,105,0Z" style="fill: #fff"/>
    <path d="M262.5,538.55a731.56,731.56,0,0,1,105,0v-230C490,316.9,612.5,351,735,374.75V221.42c-122.5-23.78-245-57.85-367.5-66.19V1.9a728.67,728.67,0,0,0-105,0V155.22C175,161.86,87.5,186.88,0,243.41V396.74c87.5-56.52,175-81.54,262.5-88.19Z" style="fill: #fff"/>
    <path d="M315,0V536.67M0,320.08c245-158.27,490-69.55,735-22"/>
    <path d="M346.5.72c-21-.9-42-1-63-.08h0c21-.91,42-.82,63,.09Z" style="fill: #cf142b"/>
    <path d="M283.5,537.31c21-.91,42-.82,63,.08V276.72C476,282.31,605.5,319,735,344.08v-92C605.5,227,476,190.31,346.5,184.72V.73c-21-.91-42-1-63-.09v184C189,188.73,94.5,213,0,274.08v92C94.5,305,189,280.73,283.5,276.64Z" style="fill: #cf142b"/>
    <path d="M630,46V506c-210-45.8-420-91.6-630,44.06v460C420,738.76,840,1193.28,1260,922V2C1050,137.63,840,91.82,630,46Z" style="fill: #00247d"/>
    <path d="M808,307q-.16,141.71-.32,283.42c.1,141,72.56,199.69,135.38,222.25,88.49-31.5,136.57-116.17,134.33-227.52q.17-140.16.32-280.34C987.76,324.38,897.85,320.36,808,307Z" style="fill: #fff"/>
    <path d="M813.91,316.27l-.3,271.59C813.71,723,883,778.8,943,800.42c84.56-30.17,130.52-110.55,128.37-217.31q.15-134.31.31-268.63C985.76,332.23,899.83,328.69,813.91,316.27Z" style="fill: #00a2bd"/>
    <path d="M813.91,316.27l-.95-.14q-.15,135.81-.31,271.6c.11,140.2,74.31,194.22,130.12,214l.23.09.22-.08c87.77-31.57,131.2-114.56,129.1-218.86q.15-134.31.31-268.63v-1.4c-86.24,18-172.48,14.45-258.72,2Zm1,1.53c85.29,12.26,170.58,15.73,255.86-1.73l-.3,267.28c2.07,102.8-40.8,184.43-127.42,215.64-55.16-19.63-128.34-72.93-128.44-211Z"/>
    <path d="M943,799.06c63-23.07,117.31-78.62,126.69-183.79-84.67,17.34-169.33,14.1-254,2.16C827.31,733.94,887.26,777.28,943,799.06Z" style="fill: #a53d08"/>
    <polygon points="1069.68 615.27 1069.68 615.27 1069.68 615.27 1069.68 615.27" style="fill: #a53d08"/>
    <path d="M950.93,376.72l-.18-33.59q-9.16-.08-18.33-.38l.36,33.85q-25.15-.6-50.31-2.77,0,13.38,0,26.76c16.66,1.24,33.31,2,50,2.24q.12,155,.23,309.88,8.94.09,17.88,0,.19-154.73.4-309.45c16.77-.19,33.54-1,50.31-2.43l-.18-26.23C984.35,375.92,967.64,376.61,950.93,376.72Z"/>
    <path d="M889,640.37a9,9,0,0,0,2.9-2.21Z" style="fill: #ff9a08;fill-rule: evenodd"/>
    <path d="M917.36,556c-.72.39-4.57-3.1-8.29,19.26-3,22.88-20.73,28.65-21.87,29.14-1.16.79-14.73,10.71-13.3,22.92s9.58,14.38,9.58,14.37a13.46,13.46,0,0,0,5.53-1.31l2.9-2.21c1.69-2,2.68-5,1.72-9.73-2.29-8.5-7.15-5.3-9-1.69-8.15-8,16.23-17.71,26.18-27.27,4.52-4.14,8.78-17.51,11.28-28.7,20.87,18.13,31.88,113.1,16,138.55q-23-35-45.89-71.38h0l-.29.22a9,9,0,0,1-2.9,2.21l-1.81,1.39c0,.49,52.89,96.32,55.18,93.9,2.28-1.83,15-30.1,14.15-72.7S940.52,560.2,917.36,556Z" style="fill: #ff9a08;fill-rule: evenodd"/>
    <path d="M945.77,594.76c-7.67-23.59-17.74-37.56-28.36-39.51l-.09,0-.12.06a1,1,0,0,1-.23,0c-2.33-.22-5.42,1.88-8.4,19.82-2.4,18.28-14.28,25.74-21.14,28.42a3.65,3.65,0,0,0-.46.2c-.15.13-15.12,10.44-13.57,23.68,1.48,12.65,9.93,15,10.1,15a13,13,0,0,0,3.2-.42,2,2,0,0,0,.11.2c.13.24,13.38,24.67,26.73,48.11,24.1,42.2,27.76,46.05,28.78,46.14a.5.5,0,0,0,.31-.14c2.22-1.78,15.27-30.31,14.41-73.38C956.59,640.5,952.37,615.07,945.77,594.76Zm-3.53,140.15c-3.27-1.83-34-55.34-54.27-92.89l1.23-.94a9.69,9.69,0,0,0,2.93-2.19q23,36.39,46,71.52l.36-.58c8.62-13.76,8.84-45.38,6.16-70.32-3.59-33.56-12.34-60.7-22.29-69.37l-.54-.48c-.07.29-.13.58-.19.86-2.47,11.05-6.68,24.29-11.08,28.33-3.07,2.91-7.62,6-12,8.86-8.15,5.39-15.85,10.32-16,15.36a5.67,5.67,0,0,0,1.87,4.28l.41.39c.09-.18.18-.36.28-.54,1-2,3-3.81,4.85-3.36,1.4.35,2.5,2,3.25,4.77a11.47,11.47,0,0,1-.54,7.45,7.93,7.93,0,0,1-1,1.45l-2.85,2.18a13.63,13.63,0,0,1-5.25,1.26c-.08,0-7.79-2.16-9.14-13.72-1.24-10.59,10-20.13,13-22.13a3.31,3.31,0,0,1,.36-.15c16.49-6.56,20.75-21.41,21.82-29.5,3.17-19,6.35-18.76,7.39-18.7a1.13,1.13,0,0,0,.45,0C940.08,561,955.18,621.07,956,663,956.86,704.73,944.68,732.4,942.24,734.91ZM894.1,628.19c-1.14-4.25-2.85-5.5-4.09-5.81-2.13-.53-4.26,1.28-5.5,3.35a3.67,3.67,0,0,1-1-2.51c.14-4.17,8.28-9.4,15.46-14.15,4.43-2.93,9-6,12.13-9,4.5-4.12,8.74-17.11,11.28-28.21,9.47,9,17.77,35.32,21.26,67.84,3.31,30.86,1.18,57-5.55,68.5q-22.61-34.5-45.2-70.3a9.81,9.81,0,0,0,.55-.95Q895.18,633.48,894.1,628.19Z"/>
    <path d="M925.65,574.84q.15,62.74.29,125.48" style="fill: #ff9a08"/>
    <path d="M925.14,574.83q.15,62.74.29,125.48l1,0q-.13-62.74-.28-125.48Z"/>
    <path d="M920.79,689.9,920.51,577C920.51,577.18,920.76,678.42,920.79,689.9Z" style="fill: #ff9a08"/>
    <path d="M920.79,689.9v0Z" style="fill: #ff9a08"/>
    <path d="M920.79,690.46v0Z" style="fill: #ff9a08"/>
    <path d="M920.79,690.79v0Z" style="fill: #ff9a08"/>
    <path d="M920,577c0,.21.27,109.35.28,114l1,0c0-1.14-.29-113.65-.29-114Z"/>
    <path d="M914.93,593.26q.15,45.32.28,90.61" style="fill: #ff9a08"/>
    <path d="M914.42,593.24q.15,45.32.29,90.62l1,0q-.13-45.3-.28-90.61Z"/>
    <path d="M910.36,599.53q.14,37.49.28,75" style="fill: #ff9a08"/>
    <path d="M909.85,599.51q.14,37.49.28,75l1,0q-.15-37.49-.29-75Z"/>
    <path d="M905.49,602.63v63.25" style="fill: #ff9a08"/>
    <path d="M905,665.86l1,0V602.65l-1,0Z"/>
    <path d="M900.2,607.34v50.1" style="fill: #ff9a08"/>
    <path d="M899.7,657.41l1,.06v-50.1l-1-.06Z"/>
    <path d="M895.63,611v38.41" style="fill: #ff9a08"/>
    <path d="M895.12,649.4l1,.07V611.06l-1-.07Z"/>
    <path d="M891.87,645.36c-.19-.32-.51-.38-.72-.12a1,1,0,0,0,0,1q23.67,41.21,47.32,81.07a.46.46,0,0,0,.38.26.45.45,0,0,0,.34-.18,1,1,0,0,0,.05-1Q915.52,686.59,891.87,645.36Z" style="fill: #ffdf00"/>
    <path d="M940.69,596.6a1.73,1.73,0,0,0-.47,1.84c.22.72,21,68.53,1.6,123.64a1.76,1.76,0,0,0,.41,1.88.72.72,0,0,0,.43.15,1,1,0,0,0,.85-.75C963.36,667,942.17,598,942,597.3S941.17,596.29,940.69,596.6Z" style="fill: #ffdf00"/>
    <path d="M888,625.72c-1.73.52-2.75,4-2.93,4.73a1.73,1.73,0,0,0,.55,1.83.78.78,0,0,0,.34.12c.38,0,.74-.28.89-.83.32-1.2,1.06-3,1.62-3.12.06,0,.19-.06.44.29a.77.77,0,0,0,1.35-.06,1.89,1.89,0,0,0-.11-2C889.27,625.61,888.47,625.56,888,625.72Z" style="fill: #ffdf00"/>
    <path d="M881.56,612.1c-.22.27-5.41,6.61-5.59,13.38a11.41,11.41,0,0,0,1.68,6.47,1,1,0,0,0,.68.48.78.78,0,0,0,.67-.34,1.89,1.89,0,0,0,0-2,7.59,7.59,0,0,1-1.15-4.38c.15-5.58,4.91-11.41,5-11.47a1.86,1.86,0,0,0,.09-2C882.56,611.72,882,611.62,881.56,612.1Z" style="fill: #ffdf00"/>
    <path d="M997.63,620c1.51-23.56-.91-45-4.85-55.37s-4.54-23.56-10.59-38.71c4.48.85,7-12.78,8-29.21.6-9.31.15-16.37,1.52-33S989,441.31,986.2,438s-4.61-4.28-6-4.44c-4-1.76-13.77.34-15.75,1.25a11.26,11.26,0,0,1-6.61.8c-2-.41-3.61,2.05-6.79,6.05h0V636.47c1,17.37-2.19,54.42-8.85,81.36-2.66,10.77-1.51,15,2.12,18.58,15.87,15.48,26.65-.34,38.15-13.74,3.76-4.39,5.75-4.74,10.29,2s9.69,8.55,11.81,6.15C991.88,696.53,996.12,643.52,997.63,620Z" style="fill: #008021"/>
    <path d="M997.6,623.62c.08-1.27.16-2.47.24-3.61,1.62-25.3-1.28-46.1-4.87-55.53a104.17,104.17,0,0,1-4-15.13,141,141,0,0,0-6.42-23.09,2.87,2.87,0,0,0,2.16-1.19c3.46-4.08,5-17.67,5.69-28.34.23-3.59.31-6.92.39-10.45.13-5.78.29-12.34,1.12-22.59,1.45-17.73-3.31-23.22-5.6-25.89-2.46-2.88-4.4-4.31-6-4.49-4.19-1.85-14.07.42-15.88,1.25a11.08,11.08,0,0,1-6.52.79c-1.86-.39-3.42,1.61-6,4.9l-1,1.22-.07.09V636.5c1.07,17.62-2.23,54.52-8.83,81.23-2.8,11.29-1.32,15.51,2.2,18.94,4.74,4.63,9,6.45,13.07,6.39,8.37-.13,15.44-8.44,22.35-16.65,1-1.17,2-2.35,3-3.51,3.7-4.33,5.57-4.61,10,2,4.69,7,9.92,8.62,12.08,6.17l.15-.17c0-.07-.05-.15-.08-.22C992.71,698.11,996,647.77,997.6,623.62Zm-4.66,100.86c-4.07-6.06-6.17-7.2-10.58-2.05-1,1.16-2,2.34-3,3.51-10.58,12.54-20.57,24.24-34.94,10.22-3.42-3.34-4.76-7.24-2-18.22,6.62-26.79,9.93-63.81,8.86-81.47V441.84l.88-1.13c2.5-3.18,4-5.11,5.67-4.75a11.44,11.44,0,0,0,6.7-.82c2.09-1,11.78-2.94,15.67-1.23,1.6.18,3.47,1.57,5.86,4.37,2.24,2.61,6.88,8,5.46,25.37-.84,10.27-1,16.84-1.13,22.64-.08,3.51-.16,6.83-.39,10.41-1,14.91-2.92,24.83-5.53,27.9a2.32,2.32,0,0,1-2.25,1l-.43-.08.22.55c3.39,8.49,5.08,16.45,6.58,23.48a106.23,106.23,0,0,0,4,15.23c3.56,9.36,6.44,30,4.82,55.19-.07,1.14-.15,2.35-.24,3.62-1.58,24.14-4.88,74.42,7.14,107.17C1002.21,732.81,997.36,731.06,992.94,724.48Z"/>
    <path d="M975.22,419.46c.76-8.43,8.78-15.65,1.52-28.14-4.69-8.07-11.51-5.55-14.46-2.29a15.88,15.88,0,0,0-3,5.14c-.45,1.45.12,4.71-1,6.65a19.22,19.22,0,0,1-2.72,3.8,2.35,2.35,0,0,0-.38,3c.29.49.83.58,1.41.87a20.15,20.15,0,0,1-1.1,2.72,1.63,1.63,0,0,0,.22,1.87c-.57,2.65.53,2.93-.22,4.93-.66,1.73-1.55,3.78.91,5.74A10.06,10.06,0,0,0,962,425h0A26.34,26.34,0,0,1,961.9,438a24.91,24.91,0,0,0,.6,16.12c3.64-7.59,8.79-6.21,11.81-10.76s3.64-8.77,5.91-9.77C978,430.84,974.47,427.89,975.22,419.46Z" style="fill: #ffe1cf"/>
    <path d="M979.6,432.47c-2.15-2.49-4.83-5.61-4.17-13a29.45,29.45,0,0,1,2.1-7.55c2.1-5.64,4.48-12-.63-20.82-5-8.58-12.09-5.27-14.75-2.33a15.79,15.79,0,0,0-3.08,5.26,9.54,9.54,0,0,0-.25,2.43,9.43,9.43,0,0,1-.72,4.15,19.25,19.25,0,0,1-2.68,3.75,2.93,2.93,0,0,0-.84,1.77,2.87,2.87,0,0,0,.42,1.67,2,2,0,0,0,1.07.76l.2.09a18.41,18.41,0,0,1-1,2.35,2,2,0,0,0,.15,2.14,6.81,6.81,0,0,0,0,2.66,3.2,3.2,0,0,1-.16,2l-.06.17a6.35,6.35,0,0,0-.61,3.48,4.22,4.22,0,0,0,1.67,2.5,10.4,10.4,0,0,0,5.55,1.3,25.81,25.81,0,0,1-.12,12.59,25.22,25.22,0,0,0,.61,16.39c0,.15.1.29.16.44.06-.14.13-.28.2-.41a13.67,13.67,0,0,1,7.07-7,11.3,11.3,0,0,0,4.71-3.76,36,36,0,0,0,2.87-5.39c1-2.17,1.7-3.75,2.95-4.29l.38-.17-.3-.36C980.12,433.07,979.86,432.77,979.6,432.47Zm-2.62,5.4a36.92,36.92,0,0,1-2.81,5.29,11,11,0,0,1-4.55,3.6,14.21,14.21,0,0,0-7.08,6.79,24.31,24.31,0,0,1-.45-15.42c1.45-4.75.85-9.84.09-13.27a2,2,0,0,1,0-.24l-.18,0a9.92,9.92,0,0,1-5.47-1.19,3.66,3.66,0,0,1-1.46-2.14,5.59,5.59,0,0,1,.57-3l.06-.16a4.11,4.11,0,0,0,.2-2.48,5.76,5.76,0,0,1,0-2.52l0-.19-.1-.13a1.2,1.2,0,0,1-.2-1.44,20.32,20.32,0,0,0,1.13-2.78l.1-.31-.22-.11-.45-.2a1.68,1.68,0,0,1-.87-.58,2,2,0,0,1-.32-1.19,2.28,2.28,0,0,1,.66-1.35,19.72,19.72,0,0,0,2.77-3.85,10,10,0,0,0,.81-4.53,9.83,9.83,0,0,1,.2-2.19,15.48,15.48,0,0,1,3-5c2.56-2.82,9.38-6,14.18,2.25,4.93,8.47,2.72,14.4.58,20.14a30,30,0,0,0-2.14,7.77c-.7,7.7,2.08,10.94,4.31,13.52l.47.55C978.63,434.24,977.89,435.86,977,437.87Z"/>
    <path d="M938.66,389.11c1.52-1.7.64-3.64-.11-3.43a1.7,1.7,0,0,0,.42-1.93c-.27-.83-1-.9-2.05-.14-.15-2.59-2.84.13-3.37.67a57.39,57.39,0,0,0-4.2,4.06,6,6,0,0,0,.76-3.19c-.16-1.66-1.37-1-2.65,1.71a10,10,0,0,1-2.42,4c-2.12,1.93-2.35,5.79-2.35,9.22,0,5.19-1.67,11.34-5,22.26s-5.7,20.83-5,28.1a72.91,72.91,0,0,1-.14,13c-.31,3.3,1.51,5.1,3.78,4.8,5.15-.68,12,2.17,16.2.69h0V449.76a15.48,15.48,0,0,0-6,1.52c-1.51.62-1.21-1.36-1.21-3.57,0-8.18,2.8-5.34,2.8-39.39,0-3.1.07-4.31,1.51-5.16s5-4.82,5.57-6.25,2.18-2.67,3.63-4.48S939.46,388.73,938.66,389.11Z" style="fill: #ffe1cf"/>
    <path d="M939.17,388.84a3.08,3.08,0,0,0,.42-2.53,1.55,1.55,0,0,0-.58-.85,2,2,0,0,0,.15-1.84,1.22,1.22,0,0,0-.56-.74,1.56,1.56,0,0,0-1.52.29,1.22,1.22,0,0,0-.46-.83c-.76-.53-2.15.63-3.19,1.69-.16.16-.46.43-.85.78-.7.63-1.67,1.49-2.52,2.36a4.93,4.93,0,0,0,.25-2.05c-.07-.85-.39-1.08-.57-1.15-.63-.23-1.54.78-2.45,2.71-.13.27-.24.55-.36.83a7.49,7.49,0,0,1-2,3.11c-2.14,1.95-2.44,5.7-2.44,9.47,0,5-1.47,10.62-5,22.14-2.91,9.55-5.78,20.36-5,28.26a71.11,71.11,0,0,1-.15,13,5.77,5.77,0,0,0,.73,3.67,3.28,3.28,0,0,0,3.28,1.48,28.44,28.44,0,0,1,7.74.55,40.38,40.38,0,0,0,5.08.58,10,10,0,0,0,3.41-.44l.16-.05V449.46h-.21a15,15,0,0,0-5.89,1.48l-.15.06c-.35.14-.6.14-.74,0a5,5,0,0,1-.21-2.28c0-.31,0-.64,0-1a26.85,26.85,0,0,1,.7-6.12c.84-4.13,2.1-10.38,2.1-33.27,0-3.09.06-4.1,1.39-4.88s5.1-4.87,5.66-6.39a8.92,8.92,0,0,1,2-2.6c.53-.56,1.08-1.14,1.61-1.8a3.32,3.32,0,0,0,.68-3.18A1.25,1.25,0,0,0,939.17,388.84Zm-.45,3.35c-.52.65-1.06,1.22-1.59,1.77a9.11,9.11,0,0,0-2.1,2.8c-.48,1.31-4,5.26-5.46,6.12s-1.64,2.34-1.64,5.44c0,22.8-1.25,29-2.08,33.1a27.49,27.49,0,0,0-.72,6.28c0,.33,0,.65,0,1,0,1.23,0,2.29.38,2.79.25.29.61.33,1.11.13l.15-.07a15.42,15.42,0,0,1,5.56-1.45v18.69c-2.22.7-5.12.27-8.19-.21a46.4,46.4,0,0,0-5.4-.64,14.81,14.81,0,0,0-2.42.09,2.91,2.91,0,0,1-2.94-1.29,4.89,4.89,0,0,1-.61-3.16,71.75,71.75,0,0,0,.14-13.11c-.75-7.76,2.1-18.46,5-27.94,3.54-11.6,5-17.29,5-22.39,0-3.59.27-7.16,2.25-9a8.08,8.08,0,0,0,2.14-3.31c.12-.27.22-.54.35-.79.88-1.88,1.65-2.6,2-2.48.14.05.23.26.26.63a5.6,5.6,0,0,1-.73,3l.31.41a35.76,35.76,0,0,1,3.32-3.24c.4-.36.71-.65.87-.81,1.3-1.33,2.33-1.94,2.78-1.64,0,0,.23.16.26.75,0,.15,0,.3,0,.45l.28-.2c.8-.57,1.23-.55,1.45-.44a.67.67,0,0,1,.32.43c.23.72.12.95-.37,1.56-.2.26-.41.51-.61.76l.79-.22c.23-.07.49.18.62.58a2.39,2.39,0,0,1-.68,2.3l.2.54c.21-.1.44,0,.57.38A2.56,2.56,0,0,1,938.72,392.19Z"/>
    <path d="M981.13,459.87c-4.84,6.07-10.11,17.47-11.51,25.68-2.12,12.45-3.93,15.15-4.39,17.6s-2.17,2.48-4.24,3.19c-8.93,3-11,5-17.71,12.3A166.57,166.57,0,0,1,924.5,536c-4.84,3.83-5.74,4.23-6.81,7.4a33.31,33.31,0,0,1-3,7,7.22,7.22,0,0,0-1,4.82c.15,1.44-.31,8-.38,10.26s.3,2.78.91,2.91,1.44-.27,1.74-2.91c-.3,2.64,2.19,1.85,2.35-.13-.08,2.87,2.57,1.31,2.72-1.34,0,1.88,2,.65,2.2-.26a57.93,57.93,0,0,1,1.43-6.37c.88-2.54,1.83-5.84,3.56-7.64,2-2.06,1.06-4.39,5.15-7.3h0c6.84-4.87,14.68-6.72,18.77-8.31s10.6-6.34,13.78-8.86,5.75-5.93,7.57-6.89a10.66,10.66,0,0,0,5-6.18c5.91-17.08,9.09-30.78,9.09-42.49C987.64,461.94,986.28,453.41,981.13,459.87Z" style="fill: #ffe1cf"/>
    <path d="M985.21,457.55c-1.12-.71-2.54,0-4.22,2.09-5,6.3-10.21,17.86-11.57,25.84a87.41,87.41,0,0,1-3.64,15,18,18,0,0,0-.75,2.54c-.34,1.84-1.48,2.19-3.06,2.65l-1,.32c-9,3.07-11.14,5.09-17.79,12.36a167.24,167.24,0,0,1-18.75,17.34l-1.48,1.16c-3.59,2.81-4.44,3.47-5.42,6.37a33,33,0,0,1-2.91,6.88,7.61,7.61,0,0,0-1,5.08c.1,1-.09,4.55-.23,7.17-.07,1.24-.13,2.34-.15,3-.08,2.11.24,3.05,1.09,3.23a.58.58,0,0,0,.19,0c.43,0,1.13-.24,1.54-1.83a2,2,0,0,0,.16.24,1,1,0,0,0,1.34.16,2.15,2.15,0,0,0,.81-.87,1,1,0,0,0,.77.77c.77.07,1.71-.85,2.08-2.2a.76.76,0,0,0,.43.29,2,2,0,0,0,1.92-1.44c.11-.54.21-1.1.32-1.65a36.65,36.65,0,0,1,1.1-4.67l.35-1c.79-2.33,1.68-5,3.15-6.5a7.54,7.54,0,0,0,1.5-2.61,8.82,8.82,0,0,1,3.61-4.67c5.37-3.82,11.33-5.76,15.68-7.21,1.17-.4,2.19-.74,3-1.07,4.76-1.83,12.35-7.72,13.82-8.9a45.62,45.62,0,0,0,4.08-3.79,17.81,17.81,0,0,1,3.46-3.07,10.92,10.92,0,0,0,5.12-6.34c6.3-18.24,9.11-31.43,9.11-42.63C987.85,465.76,987.51,459,985.21,457.55ZM978.37,512a10.34,10.34,0,0,1-4.88,6,18.52,18.52,0,0,0-3.57,3.15,44.61,44.61,0,0,1-4,3.76c-4,3.22-10.08,7.43-13.73,8.84-.86.33-1.88.67-3,1.06-4.36,1.46-10.35,3.41-15.77,7.26a9.44,9.44,0,0,0-3.79,4.91,6.69,6.69,0,0,1-1.38,2.42c-1.55,1.61-2.47,4.32-3.28,6.72-.12.35-.23.7-.35,1a37.35,37.35,0,0,0-1.12,4.77c-.11.55-.21,1.11-.33,1.65s-.91,1.14-1.45,1c-.16,0-.33-.14-.33-.65l-.42,0c-.09,1.55-1.15,2.71-1.79,2.6-.45-.06-.53-.69-.51-1.21l-.42-.06a1.81,1.81,0,0,1-.84,1.41.71.71,0,0,1-.92-.05,1.65,1.65,0,0,1-.17-1.13l-.41-.12c-.22,1.89-.78,2.84-1.51,2.67-.42-.09-.81-.36-.73-2.58,0-.68.08-1.78.15-3,.15-2.79.33-6.28.23-7.31a6.84,6.84,0,0,1,.93-4.57,33.89,33.89,0,0,0,3-7c.92-2.73,1.66-3.3,5.25-6.11l1.48-1.16a168.28,168.28,0,0,0,18.79-17.39c6.59-7.21,8.68-9.21,17.64-12.25l1-.32c1.6-.47,3-.88,3.38-3.1a18.63,18.63,0,0,1,.72-2.42,86.93,86.93,0,0,0,3.68-15.18c1.34-7.88,6.46-19.29,11.43-25.52,1.13-1.42,2.12-2.16,3-2.2a1.28,1.28,0,0,1,.82.22c1.53,1,2.4,5.18,2.4,11.57C987.43,480.8,984.63,493.9,978.37,512Z"/>
    <path d="M993.31,725.44c-1.66-2.43-3.93-5.82-6.28-5.9s-3.7,2.31-4.54,3.13h0c.46,2.41,1.29,5.12,1.59,6.77a4.76,4.76,0,0,1-.53,3.12,87.55,87.55,0,0,0-3.56,17,22.31,22.31,0,0,1-1.81,6.27,3.69,3.69,0,0,0,1,4.27c.64.69,2.72-.36,3-1.92.76,1.07,2.12.55,2.72-1.14.69,1,1.83.23,2.58-1.48.68.63,1.66-.76,2-1.67,1.07.71,2.2-.31,2.24-3.35a7.6,7.6,0,0,1,.57-2.42,9.8,9.8,0,0,0,.38-3.34,16.6,16.6,0,0,1,1.21-5.44c.71-1.77,2-4.9,1.43-7.73C994.79,729,994,729.26,993.31,725.44Z" style="fill: #ffe1cf"/>
    <path d="M994.64,729a12.19,12.19,0,0,1-1.12-3.64l-.14-.26c-1.66-2.43-4-5.77-6.33-5.86-1.95-.07-3.25,1.51-4.11,2.54-.22.26-.4.49-.56.65l-.13.12,0,.22c.24,1.3.6,2.7.92,3.93.27,1.07.53,2.08.66,2.84a3.3,3.3,0,0,1-.26,2.26c-.09.21-.17.42-.25.65a89.42,89.42,0,0,0-3.58,17.09,17.39,17.39,0,0,1-1.42,5.2l-.37.95a4.06,4.06,0,0,0,1,4.65,1,1,0,0,0,.77.28,2.48,2.48,0,0,0,1.07-.36,3,3,0,0,0,1.33-1.58,1.28,1.28,0,0,0,1.21.32,2.56,2.56,0,0,0,1.48-1.5,1,1,0,0,0,.86.25,3,3,0,0,0,1.73-1.8.69.69,0,0,0,.58,0,3.59,3.59,0,0,0,1.47-1.7,1.13,1.13,0,0,0,1.37-.21,5.16,5.16,0,0,0,1-3.53,7.14,7.14,0,0,1,.54-2.26,10.27,10.27,0,0,0,.41-3.52,16.48,16.48,0,0,1,1.17-5.27c.71-1.73,2-5,1.46-8A8.43,8.43,0,0,0,994.64,729Zm-1,10.19a16.78,16.78,0,0,0-1.24,5.62,9.28,9.28,0,0,1-.35,3.16,8,8,0,0,0-.6,2.58,4.43,4.43,0,0,1-.8,3,.84.84,0,0,1-1.13.06l-.17-.11-.1.24a3.3,3.3,0,0,1-1.31,1.64.4.4,0,0,1-.44-.08l-.18-.16-.11.27c-.44,1-1,1.63-1.53,1.73a.67.67,0,0,1-.73-.33l-.2-.28-.13.38a2.21,2.21,0,0,1-1.3,1.48,1,1,0,0,1-1.09-.43l-.28-.39-.08.56a2.31,2.31,0,0,1-1.18,1.57c-.59.35-1.19.41-1.43.15-1.4-1.5-1.4-2.6-.93-3.88.1-.28.23-.6.36-.94a18.08,18.08,0,0,0,1.48-5.46,87.64,87.64,0,0,1,3.54-16.88c.07-.21.15-.39.22-.58a4.13,4.13,0,0,0,.32-2.75c-.14-.78-.4-1.81-.68-2.89s-.63-2.46-.87-3.67c.14-.16.3-.34.47-.55.86-1,2-2.47,3.82-2.39,2.23.07,4.44,3.32,6.06,5.69l0,.06a12.31,12.31,0,0,0,1.17,3.75,8.22,8.22,0,0,1,.78,2.34C995.6,734.44,994.34,737.52,993.67,739.18Z"/>
    <path d="M939.42,742.57c2.12,3.12,6.89,3.25,10.22-2a25.93,25.93,0,0,1-5.07-4C942.9,739.06,941,741.81,939.42,742.57Z" style="fill: #ffe1cf"/>
    <path d="M944.7,736.4l-.15-.18-.13.2c-1.65,2.4-3.53,5.12-5.07,5.86l-.32.15.24.36a5,5,0,0,0,4.16,2.27h.13c2.3,0,4.52-1.56,6.23-4.24l.2-.32-.27-.17A25.77,25.77,0,0,1,944.7,736.4Zm-1.15,8.05a4.7,4.7,0,0,1-3.74-1.77c1.51-.93,3.23-3.39,4.77-5.64a25.83,25.83,0,0,0,4.7,3.67C947.67,743.08,945.65,744.41,943.55,744.45Z"/>
    <path d="M987.94,408.31c2.35-4.34-1.21-7.11-2.87-7.35s-2.05-1.32-1.82-4a10.19,10.19,0,0,0-2.27-7c.45-6.33-2.93-8.45-7.42-6.53a9.16,9.16,0,0,1-5.68.42c-2.4-.73-6.21-.83-7,7,.76-1.56,1.89-1.48,2.73.27s4.84,4.19,6.66,3.24c-1.06,2.57-.16,7.19.91,8.36s1.43,2.61,1,3.4a7,7,0,0,0-.3,3.88c-1.82.61-1.75,5.47-.53,6a4.47,4.47,0,0,1,2.49,3.12c.53,1.75,3.41,1.85,4.55-.2a4.11,4.11,0,0,0,6,.91c1.52,3,5.15,2.24,6.36-1.26S990.21,410.16,987.94,408.31Z" style="fill: #870f00"/>
    <path d="M988.25,408.21a5.6,5.6,0,0,0,.51-4,5.06,5.06,0,0,0-3.67-3.56c-1.49-.22-1.86-1-1.64-3.66a10.62,10.62,0,0,0-2.25-7.13c.16-2.59-.32-4.62-1.38-5.89-1.38-1.66-3.62-1.94-6.32-.78a9,9,0,0,1-5.57.41c-2.07-.64-3.75-.33-5,.92s-2,3.37-2.31,6.37l.37.21c.31-.63.68-1,1.07-1h0c.45,0,.92.44,1.31,1.25.81,1.7,4.39,4,6.44,3.51-.76,2.74.1,7,1.17,8.16a4,4,0,0,1,1.08,2.24,1.21,1.21,0,0,1-.13.71,7.3,7.3,0,0,0-.39,3.87c-.94.49-1.32,2-1.36,3.3s.26,2.87,1,3.19a4.23,4.23,0,0,1,2.36,2.95,2.1,2.1,0,0,0,1.75,1.46,3,3,0,0,0,3-1.35,4.25,4.25,0,0,0,6,.85,3.17,3.17,0,0,0,3,1.8l.32,0a4.64,4.64,0,0,0,3.35-3.28C992.17,415.18,990.52,410.26,988.25,408.21Zm2.31,10.3a4.14,4.14,0,0,1-3,2.92,2.82,2.82,0,0,1-3-1.71l-.1-.2-.15.11a4,4,0,0,1-5.82-.85l-.16-.24-.15.27a2.71,2.71,0,0,1-2.77,1.37,1.71,1.71,0,0,1-1.43-1.12,4.72,4.72,0,0,0-2.62-3.28c-.45-.19-.77-1.3-.73-2.59s.39-2.52,1.24-2.81l.21-.07c0-.1,0-.2-.05-.3a6.56,6.56,0,0,1,.26-3.61,2.12,2.12,0,0,0,.23-1.18,4.64,4.64,0,0,0-1.24-2.65c-1-1.13-1.84-5.58-.86-8,.09-.24.19-.48.29-.72l-.54.28c-1.7.88-5.65-1.5-6.42-3.13-.47-1-1-1.51-1.65-1.5h0a1.24,1.24,0,0,0-.9.47,8.92,8.92,0,0,1,2-5c1.13-1.15,2.7-1.42,4.65-.82a9.13,9.13,0,0,0,5.78-.43c2.52-1.08,4.68-.84,5.94.67,1,1.17,1.4,3.09,1.22,5.54v.18l.09.1A9.73,9.73,0,0,1,983,397c-.22,2.52,0,4,2,4.32a4.63,4.63,0,0,1,3.33,3.19,4.9,4.9,0,0,1-.59,3.67l-.16.28.21.17C990,410.35,991.71,415.17,990.56,418.51Z"/>
    <path d="M962,424.66l.06.6a7.46,7.46,0,0,0,3.36-1.85,3.9,3.9,0,0,1,2.72-1.29l0-.61a4.27,4.27,0,0,0-3,1.37A7.26,7.26,0,0,1,962,424.66Z"/>
    <path d="M956.51,413.46a4.22,4.22,0,0,1-.68-.62l-.28.46a4.71,4.71,0,0,0,.76.7,3.45,3.45,0,0,0,1.69.61l.24,0c0-.2,0-.4,0-.6l-.24,0A3.08,3.08,0,0,1,956.51,413.46Z"/>
    <path d="M956.5,408.77a2.84,2.84,0,0,1,1.16,1l.3-.43a3.25,3.25,0,0,0-1.32-1.16C956.59,408.38,956.55,408.58,956.5,408.77Z"/>
    <path d="M971.44,390.09c-2.11-2.94-4.58-4.17-6.62-3.28a3.35,3.35,0,0,0-2,2.44,2.47,2.47,0,0,0,.4,1.86l.29-.45a1.65,1.65,0,0,1-.28-1.27,2.79,2.79,0,0,1,1.66-2c1.88-.83,4.21.34,6.2,3.14a3.51,3.51,0,0,0,3,1.16,3,3,0,0,0,1.18-.25c0-.19-.09-.38-.13-.58C974.47,391.24,972.26,391.25,971.44,390.09Z"/>
    <path d="M986,409.23c-1.32-.24-2.82-2.54-4.33-6.68-.86-2.33-1.83-2.77-2.68-3.17a2.83,2.83,0,0,1-1.86-2.33c-1-3.69-4.21-3.91-6.9-2.9l.09.59c.88-.32,5.28-1.75,6.42,2.55A3.31,3.31,0,0,0,978.8,400c.82.37,1.67.76,2.45,2.89,1.6,4.37,3.16,6.71,4.64,7a2.17,2.17,0,0,0,.36,0,2.55,2.55,0,0,0,1.83-1.34l-.29-.42C987.2,409,986.6,409.35,986,409.23Z"/>
    <path d="M978,412.91l0-.16-.08-.13c-.82-1.36-.5-4.39,0-6l-.37-.25c-.49,1.43-1,4.76-.05,6.5a11.42,11.42,0,0,0,.6,6.29l.34-.39A10.53,10.53,0,0,1,978,412.91Z"/>
    <path d="M972,410.05l-.41.07c.09,1.56,1.42,4,3.36,4.35l.06-.61C973.19,413.51,972.09,411.19,972,410.05Z"/>
    <path d="M983.91,413.78l-.41-.06c-.23,2.41-.41,4.31.72,6.38l.33-.39C983.53,417.84,983.69,416.13,983.91,413.78Z"/>
    <path d="M975.72,403.74l0-.12-.09,0c-1.36-.79-2.13-3.29-2.06-5.15l-.42,0c-.07,2,.76,4.76,2.24,5.69.38,1.21,1.78,3.8,4.42,3.68a4.44,4.44,0,0,0,.61-.08c0-.2,0-.4,0-.6C977.47,407.65,976,404.78,975.72,403.74Z"/>
    <path d="M974.06,385.85c2.79.43,4.91,2.38,6.79,4.41l.26-.49c-1.93-2.09-4.11-4.09-7-4.53Z"/>
    <path d="M962.34,454c-3.1,6.19-4.13,13.72-3.07,22.41l.12.93c1.22,9.95,2.89,23.6-1.87,30l.28.45c4.93-6.63,3.24-20.46,2-30.56l-.11-.92c-1.05-8.52,0-15.89,3-21.94Z"/>
    <path d="M970.86,527.93a7.77,7.77,0,0,1-10.08,1.14l-.18.55a7.8,7.8,0,0,0,4.72,1.41,8.21,8.21,0,0,0,5.79-2.61c2.61-2.85,7.55-3.12,11-2.2l.09-.6C978.54,524.64,973.59,525,970.86,527.93Z"/>
    <path d="M970.17,538.15c0,2.6-.12,5.62-.25,8.82A176.23,176.23,0,0,0,970,570l.41-.09a176.14,176.14,0,0,1-.1-22.94c.14-3.22.26-6.25.26-8.86,0-7.67,1.2-11,4.29-11.91,0-.2,0-.4-.07-.6C971.52,526.6,970.17,530.22,970.17,538.15Z"/>
    <path d="M968.82,529.44c-1.82.73-3.7,1.47-3.34,8.87l.42,0c-.34-6.89,1.22-7.51,3-8.23l.44-.18c0-.2-.07-.39-.11-.59A3.38,3.38,0,0,1,968.82,529.44Z"/>
    <path d="M960.76,530.44c-1.09,1.24-1.81,4.39-1.87,8.21h.42c.06-3.65.71-6.61,1.71-7.74a1.18,1.18,0,0,1,1.36-.43c0-.2.07-.4.1-.6A1.51,1.51,0,0,0,960.76,530.44Z"/>
    <path d="M988.44,570.13c-.55-2.63-1.08-4.84-1.6-7a106.84,106.84,0,0,1-3.23-20.08c-1.15-16.12-3-17.66-5.81-17.76a2.36,2.36,0,0,0-.46,0v.62h.39a1.83,1.83,0,0,1,1.33.86c1.17,1.63,1.72,5.69,1.63,12h.42c.1-6.62-.48-10.7-1.76-12.48l-.08-.11c1.68.88,3,4.23,3.92,16.93a106.87,106.87,0,0,0,3.26,20.22c.51,2.14,1,4.35,1.59,7,3.19,15.07,3.58,35.58,3.9,52.08.22,11.92.42,22.23,1.55,28l.41-.19c-1.12-5.74-1.32-16-1.54-27.89C992,605.84,991.65,585.28,988.44,570.13Z"/>
    <path d="M976.36,636.73c9.64-45.06,6-72.16.58-94.74l-.4.21c5.38,22.51,9,49.52-.61,94.46l0,.1,0,.1c2.56,10.23,5.1,19.23,7.35,27.16,3.26,11.54,5.84,20.62,6.56,26.88l.41-.13c-.72-6.32-3.31-15.43-6.58-27C981.44,655.87,978.91,646.91,976.36,636.73Z"/>
    <path d="M959.75,558.46c.88,2.57.64,7.64-.78,15.94-2.16,12.68-1.32,17.51-.77,20.71a12.21,12.21,0,0,1,.17,4.94l.4.15a13.07,13.07,0,0,0-.16-5.24c-.55-3.15-1.37-7.89.77-20.42,1.44-8.45,1.68-13.66.74-16.36Z"/>
    <path d="M960.14,569.88l-.41-.13c-.6,3.79.15,9,.94,14.46,1,7.19,2.2,15.32.58,21.95l.4.2c1.65-6.79.47-15-.57-22.28C960.3,578.66,959.56,573.53,960.14,569.88Z"/>
    <path d="M959.67,651.26c-.51-1.46-1-2.74-1.45-4-1.75-4.67-3-8-2.77-13.93.17-4.24-.14-9.2-.44-14-.24-3.85-.47-7.48-.47-10.77h-.42c0,3.31.23,7,.47,10.82.3,4.78.61,9.72.44,13.91-.24,6.06,1,9.5,2.82,14.25.46,1.24.94,2.52,1.44,4,9.15,26.56,14.72,43.87,13.9,67.56,0,.95,0,2.13,0,3.38.09,4.52.22,10.72-2.18,12.8l.21.53c2.61-2.28,2.48-8.69,2.39-13.36,0-1.24,0-2.41,0-3.34C974.43,695.28,968.85,677.9,959.67,651.26Z"/>
    <path d="M960.64,693.65c1.52,16.43-2.19,40.4-3.25,44.11-1.14,4-2.07,4.46-2.82,4.39l0,.61h.19c1.19,0,2.11-1.47,3-4.78,1.06-3.74,4.8-27.89,3.27-44.43Z"/>
    <path d="M962.45,712.18c.4,4.44.53,15.09-1.8,23.54l.39.22c2.36-8.57,2.23-19.35,1.83-23.85Z"/>
    <path d="M968.21,696.79c1.24,9.86,1.3,19.81.15,27.28l.41.12c1.16-7.55,1.1-17.58-.15-27.53Z"/>
    <path d="M965.59,724.21l-.42,0c0,.91.12,2.06.21,3.4.33,4.77.83,12-.81,12.66,0,.2.07.39.11.59,2-.82,1.5-7.76,1.11-13.33C965.7,726.25,965.62,725.1,965.59,724.21Z"/>
    <path d="M976.92,672.36l-.36.35c2.66,6,5,16.18,7.34,26,2.51,10.77,4.89,20.94,7.37,24.29l.3-.46c-2.42-3.25-4.78-13.35-7.28-24.05C982,688.64,979.6,678.4,976.92,672.36Z"/>
    <path d="M980.07,707.55l-.31.42c1.26,2,1.45,6.57,1.6,9.91,0,.15,0,.3,0,.44l.42-.06,0-.44C981.62,714.2,981.43,709.69,980.07,707.55Z"/>
    <path d="M920.91,562.88c0,.36,0,.72,0,1.08l.42,0c0-.37,0-.73,0-1.1a14.52,14.52,0,0,1,1.53-7.2l-.34-.36A15.13,15.13,0,0,0,920.91,562.88Z"/>
    <path d="M918.2,563.89l0,1.41.42,0,0-1.42c.19-7.12.21-7.87,1.72-9.92l-.29-.45C918.41,555.77,918.39,556.69,918.2,563.89Z"/>
    <path d="M917.06,553.28c-1.32,3-1.29,5-1.25,8.57,0,1,0,2.21,0,3.59l.42,0c0-1.39,0-2.57,0-3.61,0-3.47-.07-5.38,1.19-8.24Z"/>
    <path d="M930.78,389.84c.08.17.17.33.25.5,1.59-1.74,5.36-5.87,6-6.47l-.23-.51C936.16,384,932.37,388.1,930.78,389.84Z"/>
    <path d="M933.53,390.38l-1.62,1.81.26.49,1.61-1.81c2.56-2.86,4.25-4.77,4.8-4.89,0-.2,0-.4-.07-.6C937.86,385.52,936.32,387.26,933.53,390.38Z"/>
    <path d="M935.72,391.85c-.87,1-1.76,2.07-2.63,2.95l.24.51c.89-.9,1.78-2,2.65-3a18.5,18.5,0,0,1,2.77-2.93l-.18-.56A18.81,18.81,0,0,0,935.72,391.85Z"/>
    <path d="M928,389.7c-.38.55-.74,1.06-1,1.33l.26.49c.25-.29.62-.82,1-1.38a18.72,18.72,0,0,1,1.16-1.55l-.24-.5A17.31,17.31,0,0,0,928,389.7Z"/>
    <path d="M982.18,753.41c-.57,2.08-.67,4.27-.23,5l.32-.42c-.26-.4-.3-2.18.3-4.34Z"/>
    <path d="M985.06,751.94c0,.18-1,4.36-.37,5.31.09-.15.19-.29.29-.44-.26-.38,0-2.56.47-4.69Z"/>
    <path d="M987.3,751.44a7.2,7.2,0,0,0-.42,3.64,1.21,1.21,0,0,0,.44.76l.18-.57a.68.68,0,0,1-.23-.42,6.52,6.52,0,0,1,.4-3.16Z"/>
    <path d="M989.37,750.35a7.34,7.34,0,0,0-.33,3.39.63.63,0,0,0,.35.43l.13-.58a.21.21,0,0,1-.1-.14,6.48,6.48,0,0,1,.34-2.91Z"/>
    <path d="M962.1,401.11c-.2-1.35-1.34-1.1-2.43-3.18h0c-.24-.45,0,.89.12,1.44s.28.52.1.64a1.8,1.8,0,0,0-.39,1.19c.06.41.11.6-.28.71s.24,1,.77,1a4.24,4.24,0,0,1,1.79.14c.36.21,1.09.28.88-.12A3.84,3.84,0,0,1,962.1,401.11Z"/>
    <path d="M960.33,396c-.93-.14-.52.61-.09.76a6.08,6.08,0,0,1,2.49,2.11,2.19,2.19,0,0,0,1.81,1.2c.46-.06,1.19.3.29-1.13A7,7,0,0,0,960.33,396Z"/>
  </g>
</svg>
