<svg xmlns="http://www.w3.org/2000/svg" viewBox="0 0 1260 1012.04">
  <g>
    <path d="M0,90.08v920C420,738.76,840,1193.28,1260,922V2C840,273.28,420-181.24,0,90.08Z" style="fill: #cf142b"/>
    <path d="M0,90.08v920C210,874.42,420,920.22,630,966V46C420,.22,210-45.58,0,90.08Z" style="fill: #fff"/>
    <path d="M179.59,117.87V48.17A538.27,538.27,0,0,0,116,66.55v69.7C105.35,140,94.75,156,94.75,167.57a553.84,553.84,0,0,0-63.64,30.72V268a553.84,553.84,0,0,1,63.64-30.72c0,11.61,10.6,18.9,21.21,15.14v69.7a536.38,536.38,0,0,1,63.63-18.38V234c10.61-2.39,21.22-15.93,21.22-27.54a591,591,0,0,1,63.63-8v-69.7a591,591,0,0,0-63.63,8C200.81,125.17,190.2,115.47,179.59,117.87Z" style="fill: #e60d2e"/>
    <path d="M175.35,123.48V53.78A537.05,537.05,0,0,0,120.2,69.7v69.7C109.59,143.06,99,158.89,99,170.51a552,552,0,0,0-63.63,30.06V261A553.59,553.59,0,0,1,99,230.92c0,11.61,10.61,19,21.21,15.35V316A537.13,537.13,0,0,1,175.35,300V230.35c10.61-2.48,21.21-16.1,21.21-27.71a587.59,587.59,0,0,1,63.64-8.52V133.71a587.59,587.59,0,0,0-63.64,8.52C196.56,130.61,186,121,175.35,123.48Z" style="fill: #96877d"/>
    <path d="M173.23,126.3V56.6q-25.46,6-50.91,14.7V141c-10.6,3.61-21.21,19.39-21.21,31a550.39,550.39,0,0,0-63.63,29.73v55.75a552,552,0,0,1,63.63-29.72c0,11.61,10.61,19.06,21.21,15.46v69.69c17-5.82,33.94-10.68,50.91-14.69v-69.7c10.61-2.52,21.21-16.19,21.21-27.8A586.29,586.29,0,0,1,258.08,192V136.21A586.29,586.29,0,0,0,194.44,145C194.44,133.34,183.84,123.77,173.23,126.3Z" style="fill: #ccc"/>
    <path d="M102.6,149.83c-5,7.38-6,15.52-2.25,18.12s10.78-1.16,15.75-8.36,6-15.26,2.25-18.05S107.57,142.44,102.6,149.83Z" style="fill: #96877d"/>
    <polygon points="99.6 160.85 99.6 160.85 99.6 160.85 99.6 160.85" style="fill: #d0d0d0"/>
    <path d="M105.6,152l-1.5,2.21,3,5.43q-3-.51-6-1l-1.5,2.23q6,.92,12,2Q108.6,157.39,105.6,152Z" style="fill: #d0d0d0"/>
    <path d="M108.6,147.54q4.5,3.26,9,6.59l1.5-2.17q-4.5-3.36-9-6.62Z" style="fill: #d0d0d0"/>
    <path d="M177.2,124.55c-3.72,4.94-2.72,12.42,2.25,16.74s12,4,15.75-.82,2.72-12.34-2.25-16.81S180.93,119.6,177.2,124.55Z" style="fill: #96877d"/>
    <polygon points="183.96 122.23 183.96 122.23 183.96 122.23 183.96 122.23" style="fill: #d0d0d0"/>
    <path d="M182.46,130.77l3-7.22-1.5-1.32-6,14.46q6-4.63,12-9.15l-1.5-1.33C186.46,127.72,184.46,129.23,182.46,130.77Z" style="fill: #d0d0d0"/>
    <path d="M184,141.94l1.5,1.32q4.5-5.88,9-11.68L193,130.23Q188.46,136.05,184,141.94Z" style="fill: #d0d0d0"/>
    <path d="M179.45,210.67c-5,6.57-6,14.54-2.25,17.76S188,229,193,222.62s6-14.32,2.25-17.7S184.42,204.1,179.45,210.67Z" style="fill: #96877d"/>
    <path d="M190,219.94l1.5-1.95-3-6q3,1,6,2.08l1.5-1.93q-6-2.13-12-4.13Q187,214,190,219.94Z" style="fill: #d0d0d0"/>
    <polygon points="195.95 212.18 195.95 212.18 195.95 212.18 195.95 212.18" style="fill: #d0d0d0"/>
    <path d="M176.45,217.93q4.5,3.88,9,7.87l1.5-2q-4.5-4-9-7.9Z" style="fill: #d0d0d0"/>
    <path d="M100.35,232.41c-3.73,5.56-2.72,12.87,2.25,16.37s12,2,15.75-3.35,2.72-12.77-2.25-16.45S104.08,226.85,100.35,232.41Z" style="fill: #96877d"/>
    <path d="M105.6,244.35l1.5,1.07q3-2.78,6-5.5l-3,7.67,1.5,1.09q3-7.68,6-15.31Q111.6,238.78,105.6,244.35Z" style="fill: #d0d0d0"/>
    <polygon points="111.6 248.68 111.6 248.68 111.59 248.68 111.6 248.68" style="fill: #d0d0d0"/>
    <path d="M101.1,241.15l1.5,1.06q4.5-6.66,9-13.25l-1.5-1.09Q105.6,234.47,101.1,241.15Z" style="fill: #d0d0d0"/>
    <path d="M147.78,134.89C123,142,102.87,172.11,102.87,199.2s20.14,41.15,44.91,34.07,44.91-32.92,44.91-60.08S172.54,127.73,147.78,134.89Zm0,97.59c-24.37,7-44.19-6.84-44.19-33.55s19.82-56.28,44.19-63.25,44.19,11,44.19,37.65S172.14,225.44,147.78,232.48Z" style="fill: #96877d"/>
    <path d="M147.78,146.51c-18.92,5.42-34.31,28-34.31,48.72s15.39,31.84,34.31,26.42,34.3-25.51,34.3-46.25S166.69,141,147.78,146.51Zm0,74.35c-18.52,5.31-33.59-5.59-33.59-25.89s15.07-42.36,33.59-47.67,33.58,8,33.58,28.26S166.3,215.51,147.78,220.86Z" style="fill: #96877d"/>
    <path d="M130.81,226.44a3.34,3.34,0,0,0-2.12,3,1.55,1.55,0,0,0,2.12,1.63,3.33,3.33,0,0,0,2.12-3A1.56,1.56,0,0,0,130.81,226.44Z"/>
    <path d="M164.74,216.65a3.06,3.06,0,0,0-2.12,2.87,1.67,1.67,0,0,0,2.12,1.78,3,3,0,0,0,2.13-2.86A1.68,1.68,0,0,0,164.74,216.65Z"/>
    <path d="M152,224.8l-2.83.8v-2.43c0-2.42-2.83-1.61-2.83.82v2.41l-2.83.83c-2.83.84-2.83,3.27,0,2.42l2.83-.83v2.42c0,2.51,2.47,2.1,2.65-.55l.18-2.67,2.83-.8C154.85,226.44,154.85,224,152,224.8Z"/>
    <path d="M129.1,152.27a1,1,0,0,1,.34-.74l.12-.12-.12-.16L127,153.82l.11.16a2.38,2.38,0,0,1,.59-.49.57.57,0,0,1,.38,0,1.46,1.46,0,0,1,.48.48l1.2,1.64a5.81,5.81,0,0,1-.47.89,4.75,4.75,0,0,1-.63.79,3.71,3.71,0,0,1-1.4.92,2.4,2.4,0,0,1-1.65,0,3,3,0,0,1-1.43-1.09,3.71,3.71,0,0,1-.73-2.27,4.07,4.07,0,0,1,1.23-2.8,3.17,3.17,0,0,1,1.83-1.05,2.3,2.3,0,0,1,1.38.33l.17-.17-1.48-1.61h0l-.17.19a.66.66,0,0,1,.13.36.37.37,0,0,1-.1.23,2,2,0,0,1-.42.29c-.43.25-.75.46-1,.62a6.14,6.14,0,0,0-.67.62,6.59,6.59,0,0,0-1.4,2.1,5.78,5.78,0,0,0-.4,2.63,3.52,3.52,0,0,0,.64,1.84,2.5,2.5,0,0,0,2.06,1.05,5.09,5.09,0,0,0,3.59-1.89,9.2,9.2,0,0,0,1.88-2.83L129.45,153A1.61,1.61,0,0,1,129.1,152.27Z"/>
    <path d="M141.63,147.26a2,2,0,0,1-.82-.64c-1.4-1.57-2.79-3.13-4.19-4.68l-.19.11q-.5,3.85-1,7.71a5.12,5.12,0,0,1-.34,1.44,1.77,1.77,0,0,1-.54.58l.06.21,2.32-1.41-.06-.2a1.5,1.5,0,0,1-.73.25.27.27,0,0,1-.24-.21,2.12,2.12,0,0,1,0-.76l.19-1.48,2.86-1.71h0l.72.81a1.68,1.68,0,0,1,.42.63.54.54,0,0,1-.07.4,1.68,1.68,0,0,1-.56.51l.06.2,2.91-1.72-.06-.21A1.13,1.13,0,0,1,141.63,147.26Zm-5.45.41.49-3.79,2.05,2.27h0Z"/>
    <polygon points="104.46 196.2 104.46 196.2 104.46 196.2 104.46 196.2"/>
    <path d="M115.06,178a6,6,0,0,1-1.26,1q-1.3.84-2.61,1.71A2.66,2.66,0,0,0,111,179a1.11,1.11,0,0,0-1-.58,1.8,1.8,0,0,0-1.2.42,3.52,3.52,0,0,0-1,1.1,12,12,0,0,0-.8,2.07l-1,3.22h.2l.1-.34a1.47,1.47,0,0,1,.46-.74,1.43,1.43,0,0,1,.89-.15c1.54.06,3.07.13,4.61.21.41,0,.65.08.73.18a.84.84,0,0,1,.05.81l-.1.33h.19c.39-1.25.78-2.51,1.16-3.76h-.19l-.11.34a1.38,1.38,0,0,1-.46.73,1.43,1.43,0,0,1-.89.13l-2.07-.1c0-.07,0-.14.07-.2a1.89,1.89,0,0,1,.06-.18c0-.14.09-.32.16-.54,1.41-.94,2.83-1.88,4.25-2.8l.72-2.35h-.19A4,4,0,0,1,115.06,178Zm-4.62,4.55a1.31,1.31,0,0,0,0,.15c0,.06,0,.13-.07.21h0l-3-.13a7.5,7.5,0,0,1,.22-1,2.82,2.82,0,0,1,.84-1.36,1.73,1.73,0,0,1,1.24-.46,1,1,0,0,1,.93.69A3.16,3.16,0,0,1,110.44,182.53Z"/>
    <path d="M112.89,204.51l.07.27a1.31,1.31,0,0,1,0,.59.9.9,0,0,1-.18.38,4.49,4.49,0,0,1-.73.54c-.78.48-1.56,1-2.33,1.47l-.33-1.37a1.49,1.49,0,0,1,0-.62,1.24,1.24,0,0,1,.24-.49,2.34,2.34,0,0,1,.6-.52l0-.2-2.52,1.59.05.21a1.28,1.28,0,0,1,.88-.23c.17.06.3.24.37.55l.32,1.36-2.91,1.86h0l-.39-1.64a2.57,2.57,0,0,1-.1-.93,1.88,1.88,0,0,1,.24-.7,4,4,0,0,1,.69-.82l0-.19-1.61,1.12q.66,2.76,1.31,5.54l.21-.13-.07-.26a1.32,1.32,0,0,1,0-.59.75.75,0,0,1,.18-.38,4.27,4.27,0,0,1,.72-.54l4.8-3a2.08,2.08,0,0,1,.87-.4c.21,0,.36.2.43.51l.06.26.21-.12c-.26-1.07-.51-2.15-.76-3.22Z"/>
    <path d="M108.2,199.19a5.85,5.85,0,0,0,3-2.09,5.77,5.77,0,0,0,1.27-3.29,3,3,0,0,0-1-2.61,2.9,2.9,0,0,0-2.82-.33,5.69,5.69,0,0,0-2.87,2.1,5.8,5.8,0,0,0-1.27,3.23,3.08,3.08,0,0,0,.85,2.55A2.75,2.75,0,0,0,108.2,199.19Zm-3.34-3a3.5,3.5,0,0,1,.86-2.15,6.2,6.2,0,0,1,3-1.78,3.16,3.16,0,0,1,2.6,0A1.81,1.81,0,0,1,112,194a3.32,3.32,0,0,1-.86,2,6.24,6.24,0,0,1-2.91,1.78,3.36,3.36,0,0,1-2.72,0,1.6,1.6,0,0,1-.67-1.59Z"/>
    <path d="M172.71,139.24l-.16-.09c-1.94,1.77-3.88,3.54-5.81,5.33a4.87,4.87,0,0,1-1.16.87,1.09,1.09,0,0,1-.63,0l-.12.22,2,1,.12-.22a1.15,1.15,0,0,1-.49-.48.53.53,0,0,1,.05-.39,2.39,2.39,0,0,1,.54-.61l1.11-1,2.42,1.28h0c-.09.45-.18.89-.26,1.34a3.61,3.61,0,0,1-.27.91.55.55,0,0,1-.31.25.88.88,0,0,1-.59-.11l-.12.22,2.45,1.31.12-.22a.92.92,0,0,1-.44-.58,3.44,3.44,0,0,1,.09-1.28Zm-2.06,5.38h0l-2.14-1.14c1-.88,1.91-1.75,2.86-2.61Z"/>
    <path d="M190,182a2.54,2.54,0,0,1-.47.58,8.75,8.75,0,0,1-.8.51l-3.63,2.08-1.74-.13a1.29,1.29,0,0,1-.77-.19.81.81,0,0,1-.1-.78l.06-.3-.2,0c-.27,1.21-.55,2.41-.82,3.61l.2,0,.06-.28a1.34,1.34,0,0,1,.4-.74,1.54,1.54,0,0,1,.89-.11l1.85.13,2.34,2.26a4.24,4.24,0,0,1,.62.7,1.74,1.74,0,0,1,.23.6,1.31,1.31,0,0,1,0,.48l0,.16.2,0c.22-1,.45-2,.67-3h-.2a1.66,1.66,0,0,1-.18.5.71.71,0,0,1-.25.24.5.5,0,0,1-.29.07,1.32,1.32,0,0,1-.68-.44l-1.89-1.84,2.78-1.58a1.92,1.92,0,0,1,.79-.33.35.35,0,0,1,.31.28,1.14,1.14,0,0,1,0,.55l0,.19h.2c.28-1.2.55-2.41.83-3.62l-.2,0A1,1,0,0,1,190,182Z"/>
    <polygon points="189 187.62 189 187.62 189 187.62 189 187.62"/>
    <polygon points="183.28 177.79 183.28 177.79 183.28 177.79 183.28 177.79"/>
    <path d="M190.5,167.54l-.21.06,0,.31a1.14,1.14,0,0,1-.22.77,1.74,1.74,0,0,1-.88.4l-4.92,1.31a1.69,1.69,0,0,1-.84.1.69.69,0,0,1-.35-.66v-.31l-.21,0c.06,1.18.11,2.36.17,3.54l.21-.06,0-.32a1.11,1.11,0,0,1,.22-.76,1.72,1.72,0,0,1,.88-.41l2.22-.6v.36c0,.13,0,.3,0,.51l-3.43,3.75.11,2.21.2-.06a3.11,3.11,0,0,1,.27-1.18,5.38,5.38,0,0,1,.95-1.28l2.1-2.29a2.16,2.16,0,0,0,.81,1.34,1.44,1.44,0,0,0,1.24.18,2.11,2.11,0,0,0,1.11-.73,3,3,0,0,0,.6-1.23,7.74,7.74,0,0,0,.08-2C190.6,169.55,190.55,168.54,190.5,167.54Zm-.65,4.82a2,2,0,0,1-1.14.79,1.23,1.23,0,0,1-1.23-.28,2.44,2.44,0,0,1-.56-1.66v-.14c0-.06,0-.13,0-.2h0l3.17-.84a5.44,5.44,0,0,1,.15.93A2.17,2.17,0,0,1,189.85,172.36Z"/>
    <path d="M183.67,150.26a.62.62,0,0,1,.65.28l.16.2.16-.17c-.52-.67-1-1.33-1.58-2l-.17.18.16.19a.82.82,0,0,1,.2.69,2.13,2.13,0,0,1-.61.85l-3.53,3.65c.61-2.75,1.21-5.5,1.82-8.24l-1.23-1.55h0l-.16.17a1.68,1.68,0,0,1,.25.42,2,2,0,0,1,.12.56,4.69,4.69,0,0,1-.12.81l-4.26,4.42a2.3,2.3,0,0,1-.73.6.59.59,0,0,1-.65-.27l-.16-.19-.16.17c.52.66,1.05,1.31,1.58,2l.17-.17-.17-.2a.87.87,0,0,1-.2-.69,2.39,2.39,0,0,1,.62-.85c1.26-1.31,2.51-2.62,3.77-3.92-.65,3-1.29,5.91-1.94,8.87l.12.15c1.72-1.79,3.45-3.57,5.17-5.34A2.37,2.37,0,0,1,183.67,150.26Z"/>
    <polygon points="152.19 142.16 152.19 142.16 152.19 142.16 152.19 142.16"/>
    <path d="M162.35,142.41a6.35,6.35,0,0,1-.88,1.11,2.27,2.27,0,0,1-.76.45,3.73,3.73,0,0,1-1.21,0L159,144a2.92,2.92,0,0,1-.82-.15.34.34,0,0,1-.14-.21,2.07,2.07,0,0,1,.12-.73l1.5-5.39a3.43,3.43,0,0,1,.36-.95,1,1,0,0,1,.41-.31,1.94,1.94,0,0,1,.84,0l.07-.23-3.28-.33-.07.24.27,0a.61.61,0,0,1,.55.34,2.19,2.19,0,0,1-.13,1c-.52,1.84-1,3.69-1.55,5.53a3,3,0,0,1-.37.93.86.86,0,0,1-.76.29l-.27,0-.07.23,5.61.54,1.27-2.26-.16-.06Z"/>
    <path d="M151.56,143.45a2.43,2.43,0,0,1-.66.66,4.78,4.78,0,0,1-1.24.44l-.55.13a3.36,3.36,0,0,1-.88.15.27.27,0,0,1-.2-.14A1.62,1.62,0,0,1,148,144c.07-1.76.13-3.53.19-5.3a3.6,3.6,0,0,1,.12-1,1,1,0,0,1,.35-.41,2.25,2.25,0,0,1,.86-.33v-.23l-3.45.84v.23l.29-.07a.62.62,0,0,1,.64.12c.1.1.14.42.13,1-.07,1.81-.13,3.62-.2,5.44a2.25,2.25,0,0,1-.15.95,1,1,0,0,1-.7.52l-.29.07V146q2.94-.73,5.9-1.44l.73-2.44h-.18A6,6,0,0,1,151.56,143.45Z"/>
    <path d="M181.81,164.42l-.09-.25a1,1,0,0,1,0-.77,2,2,0,0,1,.77-.64c1.83-1.11,3.67-2.21,5.5-3.3l.36,1a1.78,1.78,0,0,1,.1.83,1.6,1.6,0,0,1-.29.71,2.7,2.7,0,0,1-.59.54l.08.21,1.65-1.08h0l-2.08-6-1.72.92.07.2a1.66,1.66,0,0,1,.86-.22.77.77,0,0,1,.55.25,2.19,2.19,0,0,1,.33.69l.31.88c-1.83,1.09-3.67,2.19-5.5,3.3a1.91,1.91,0,0,1-.81.35c-.23,0-.4-.18-.51-.49l-.09-.26-.2.12,1.08,3.1Z"/>
    <path d="M175.4,184.87a4.84,4.84,0,0,1-1.65.23.91.91,0,0,0,.21-.8,6.93,6.93,0,0,0-2,.51l0,1.52c.62,1.11,2.36,1.17,2.36,1.17a2.33,2.33,0,0,0-.25-1.12,3.16,3.16,0,0,0,1.54-.28s-.57-.52-1-.46C174.9,185.41,175.4,184.87,175.4,184.87Z" style="fill: #96877d"/>
    <path d="M175,185.5l.5-.52.36-.39-.45.13A6.39,6.39,0,0,1,174,185a1.17,1.17,0,0,0,.09-.73l0-.1H174a6.39,6.39,0,0,0-2,.52l.06.28a6,6,0,0,1,1.82-.47.64.64,0,0,1-.16.5l-.23.18.23.09a3,3,0,0,0,1.28-.11l-.39.38-.36.33.42,0a1.26,1.26,0,0,1,.74.26,2.29,2.29,0,0,1-1.16.17l-.4-.14c.07.13.14.26.2.39a2.36,2.36,0,0,1,.24.85,2.81,2.81,0,0,1-2.1-1.1l-.25.21a3.2,3.2,0,0,0,2.46,1.22h.16l0-.19a2.54,2.54,0,0,0-.15-.9,4.41,4.41,0,0,0,1.32-.33l.26-.11-.18-.17A2.27,2.27,0,0,0,175,185.5Z"/>
    <path d="M165.56,184.33s1.37,2,3.41,1.79c0-.56.07-1.12.11-1.68C168.66,185.68,165.56,184.33,165.56,184.33Z" style="fill: #96877d"/>
    <path d="M168.74,184.67c-.68.41-2.47-.22-3.1-.49l-.2.26c.06.09,1.43,2.08,3.51,1.83l0-.31a3.54,3.54,0,0,1-2.88-1.24c.77.27,2,.63,2.71.22a.86.86,0,0,0,.39-.47l-.26-.06A.46.46,0,0,1,168.74,184.67Z"/>
    <path d="M157.64,201.24l-2.87-1q-2.66.87-5.31,1.79L145,206q-3.06,1.29-6.1,2.62l-1.44,2.25L133,212.64q-3.54,1.06-7.1,2.17,5.92-1,11.84-1.77-4.87,1.23-9.76,2.57c.84.51,1.68,1,2.51,1.54h0q18.12-5.9,36.23-10.39c.93-1,1.87-2.09,2.8-3.13L164.82,202Q161.22,201.62,157.64,201.24Z" style="fill: #96877d"/>
    <path d="M157.71,201.08l-2.87-1h0c-1.79.59-3.57,1.2-5.35,1.81L145,205.82l-6.07,2.61-.05,0-1.44,2.25L133,212.49c-2.37.7-4.74,1.43-7.11,2.17l0,.31c3-.49,6.11-1,9.16-1.39q-3.74,1-7.47,2c1,.58,1.92,1.16,2.87,1.75q18.16-5.91,36.33-10.42,1.5-1.68,3-3.35c-1.63-.57-3.25-1.12-4.88-1.67C162.48,201.6,160.09,201.33,157.71,201.08Zm8.92,5.54q-18.06,4.5-36.12,10.35l-2.16-1.31c3.11-.85,6.23-1.67,9.34-2.46l0-.32q-4.89.68-9.78,1.44c1.68-.52,3.36-1,5-1.52,1.51-.62,3-1.22,4.52-1.82l.06,0L139,208.7c2-.87,4-1.74,6-2.59l4.47-3.89c1.75-.6,3.49-1.19,5.24-1.77l2.86,1c2.38.25,4.76.51,7.15.8l4.47,1.52Z"/>
    <path d="M174.22,189.62c0-.59-.49-.79-1.15-.52.12-.38-.36-.54-.36-.54-1.29.66-1.36,4.25-1.36,4.25s-2.26,2.43-3.09,3.11c0-2-3.16-4-2.51-5.51s2.67,1.36,4.45.32,2.65-3.77,2.72-5.76a25.9,25.9,0,0,0-1.72-3.12l-1.15.19c-.33-.81-.66-1.61-1-2.42,0,0-2.12,2-2.08,3.34s2.22,1.89,2.22,1.89a4,4,0,0,1-2.44,1.07c-.1,1.36,1.44.72,2,.6a2.11,2.11,0,0,0,1.15,1.22s.54,1.34-.86,1.54-3.05-2.92-5-.79.93,4.63.93,4.64a11.11,11.11,0,0,0-2.94,4.52c-4.47-3-7.08-.33-12.05,2.17h0c-4.54-1.38-5.87,5.61-7.82,7.78,2.63-.3,4.63-3.59,6.89-5.55,1.71,4.62,4.41.48,4.41.49s2.81,4.1,6.56.9c1,.57,2.15-.48,2.15-.48s1.37-.08,1.65-.82c.72.09,1.51-1.09,1.51-1.09s1.56-.37,1.87-1.33c2.31-.13,5.38-6.49,5.38-6.49l.93-2.19,1.36-.63S175,189.41,174.22,189.62Z" style="fill: #96877d"/>
    <path d="M174.34,189.43a.66.66,0,0,0-.29-.49,1,1,0,0,0-.82-.05.64.64,0,0,0-.46-.49h0l0,0c-1.29.66-1.45,3.81-1.47,4.36-.32.34-2,2.12-2.82,2.86A6.25,6.25,0,0,0,167,193c-.7-.94-1.37-1.82-1.07-2.49a.48.48,0,0,1,.22-.28c.29-.15.79.09,1.33.36a2.9,2.9,0,0,0,2.81.33c1.82-1.07,2.74-3.82,2.83-5.93v-.06a26.77,26.77,0,0,0-1.74-3.14l0-.06-1.14.19-1-2.5-.15.14c-.09.08-2.18,2.11-2.14,3.49,0,1.12,1.47,1.72,2.06,1.93a3.44,3.44,0,0,1-2.09.83h-.17l0,.19a.93.93,0,0,0,.23.8c.39.35,1.14.15,1.64,0l.18-.05a2.15,2.15,0,0,0,1.14,1.17,1.15,1.15,0,0,1,0,.87.93.93,0,0,1-.71.38,2.58,2.58,0,0,1-1.56-.67c-1-.71-2.22-1.51-3.56-.06a2.75,2.75,0,0,0-.79,1.74,4.2,4.2,0,0,0,1.58,3,11.66,11.66,0,0,0-2.76,4.26c-3.63-2.33-6.11-1-9.51.91-.78.43-1.58.88-2.47,1.33-3.3-1-5,2.39-6.32,5.1a13.13,13.13,0,0,1-1.61,2.75l-.26.3.32,0c1.9-.22,3.48-1.93,5-3.59.6-.65,1.21-1.32,1.84-1.88.57,1.46,1.32,2.17,2.21,2.1a3.76,3.76,0,0,0,2.26-1.6,5.9,5.9,0,0,0,1.81,1.55,3.73,3.73,0,0,0,2.8.35,5.15,5.15,0,0,0,2-1.07,2.17,2.17,0,0,0,2.19-.51c.27,0,1.32-.15,1.69-.81.67,0,1.33-.87,1.5-1.11a3,3,0,0,0,1.89-1.32l.18,0c2.33-.58,5.12-6.3,5.24-6.56l.9-2.11,1.4-.65v-.12a1.18,1.18,0,0,0-.23-.84A.52.52,0,0,0,174.34,189.43Zm-.94,1.5-1,2.25c0,.06-2.82,5.8-5,6.34a1.09,1.09,0,0,1-.25,0h-.12l0,.13c-.26.81-1.63,1.17-1.72,1.19h0l-.06,0,0,.06s-.74,1.09-1.35,1l-.12,0-.05.15c-.2.51-1.15.67-1.5.69h-.05l0,0s-1.06,1-2,.45l-.08,0-.08.07c-3.58,3.07-6.26-.74-6.37-.9l-.1-.15-.13.19s-1,1.53-2.12,1.61c-.82.06-1.51-.65-2.05-2.12l-.06-.15-.14.13a26,26,0,0,0-2,2c-1.45,1.58-2.83,3.08-4.46,3.42a18.15,18.15,0,0,0,1.42-2.54c1.35-2.73,2.89-5.82,6-4.88l0,0,.05,0c.91-.46,1.73-.92,2.52-1.36,3.51-1.93,5.82-3.19,9.41-.81l.14.1.08-.21a11,11,0,0,1,2.88-4.43l.17-.15-.14-.11s-1.71-1.36-1.63-2.92a2.4,2.4,0,0,1,.68-1.48c1.16-1.24,2.2-.54,3.2.14a2.72,2.72,0,0,0,1.73.71,1.22,1.22,0,0,0,1-.57,1.54,1.54,0,0,0,0-1.22l0-.05,0,0a1.92,1.92,0,0,1-1.08-1.14l0-.09-.1,0-.3.07c-.45.12-1.12.31-1.42,0a.59.59,0,0,1-.16-.4,4.21,4.21,0,0,0,2.38-1.12l.22-.21-.24-.06s-2.11-.58-2.14-1.77c0-1,1.41-2.58,1.88-3l1,2.35,1.16-.2a26,26,0,0,1,1.66,3c-.09,2.06-1,4.62-2.62,5.56-.84.49-1.76,0-2.57-.35-.62-.3-1.15-.56-1.56-.34a.9.9,0,0,0-.4.47c-.38.86.33,1.81,1.09,2.82a5.42,5.42,0,0,1,1.4,2.77v.25l.21-.17c.82-.68,3-3,3.1-3.13l.06,0v-.08c0-.95.27-3.49,1.2-4.05.1,0,.3.16.24.35l-.09.27.25-.1a.83.83,0,0,1,.78,0,.49.49,0,0,1,.2.44v.15l.14,0a.34.34,0,0,1,.35,0,.73.73,0,0,1,.15.49Z"/>
    <path d="M153.42,194.53a15.19,15.19,0,0,1-5.31,2.28c-.68.07-.25-1-.58-1.4,1.29-1.74.27-4.85-.43-5.93-2.85-1.25-6.25,3.34-3.66,5.24h0c1.87,1.37.57,5,1.3,5.35s1.86-.86,1.86-.86c2,0,5.45-2.18,5.45-2.18,1.54.52.93-.71,1.87-.91.82,2.09,3.58.91,3.58.91S155,194.88,153.42,194.53Z" style="fill: #96877d"/>
    <path d="M153.48,194.37h-.07l-.07.06a14.69,14.69,0,0,1-5.21,2.23c-.27,0-.3-.14-.31-.58a1.76,1.76,0,0,0-.11-.69c1.21-1.81.28-4.84-.49-6l0,0c-1.63-.72-3.41.41-4.26,1.83a2.68,2.68,0,0,0,.43,3.7c1.1.81,1.05,2.48,1,3.69,0,.83-.05,1.49.29,1.67.75.41,1.73-.58,2-.85,1.87,0,4.93-1.88,5.41-2.17.91.29,1.15,0,1.38-.46a.7.7,0,0,1,.4-.44c.66,1.51,2.34,1.28,3.19,1a3.49,3.49,0,0,0,.51-.17l.28-.12-.19-.16C157.5,196.81,155,194.73,153.48,194.37Zm.57,1.66,0-.09-.09,0-.06,0a1,1,0,0,0-.69.65c-.15.3-.26.51-1.06.25l-.05,0-.06,0s-3.48,2.16-5.37,2.16h-.07l-.06.07s-1,1.17-1.69.8c-.22-.12-.2-.73-.18-1.44,0-1.28.1-3-1.1-3.9a2.36,2.36,0,0,1-.4-3.29c.77-1.28,2.37-2.3,3.86-1.67.64,1,1.66,4,.43,5.7l-.08.12.06.09a1.18,1.18,0,0,1,.13.63c0,.39,0,.86.54.81a15.5,15.5,0,0,0,5.34-2.26,12.76,12.76,0,0,1,3.76,2.28C156.47,197.21,154.67,197.59,154.05,196Z"/>
    <path d="M131,192.82h0c-2.35,1.45-6.42-1.2-8.32,1s-1,5.69.25,7.14-1.81,3.13-2.63,4.52a1.6,1.6,0,0,0,.25,2.13l.86.32-.15,1.44c.15.5.3,1,.46,1.51,0,0,.41.26.55-.3.4.29,0,1.66,1,1.48-.35-.68.25-3.08.25-3.08s1.7-.44,2.13-1.39-.4-2.42-.4-2.42l.5-.17c-.57-.24-.76-1.47-.76-1.47s2.36-1.61,2.34-3.56-3.83-2.75-2.44-4.24c1.55-1.65,4.24,1.5,6.55-1.1.49-.56.8-.88,1-1.06C132.62,192.81,132.56,191.88,131,192.82Z" style="fill: #96877d"/>
    <path d="M132.49,193.56a4.5,4.5,0,0,1-.18.74S133.2,192.92,132.49,193.56Z" style="fill: #96877d"/>
    <path d="M132.67,193.26a1.05,1.05,0,0,0-.19-.85c-.27-.26-.77-.17-1.48.27-1,.65-2.48.44-3.88.24-1.67-.23-3.39-.46-4.49.8-1.91,2.21-1.16,5.78.23,7.36a1,1,0,0,1,.25.81,5.12,5.12,0,0,1-1.58,2.06,7.94,7.94,0,0,0-1.3,1.46,1.75,1.75,0,0,0,.28,2.35l.79.29c0,.45-.09.89-.14,1.34v0l.48,1.58,0,0a.5.5,0,0,0,.51,0,.7.7,0,0,0,.15-.15,3,3,0,0,1,.09.4c.08.48.18,1.07.9.94l.26,0-.11-.23a6.71,6.71,0,0,1,.23-2.85,3.61,3.61,0,0,0,2.14-1.47,3.08,3.08,0,0,0-.3-2.38l.74-.25-.38-.16c-.41-.17-.61-1-.67-1.26.49-.37,2.33-1.85,2.31-3.65,0-1-.86-1.65-1.62-2.25-.6-.49-1.17-.94-1.12-1.4a.75.75,0,0,1,.24-.44c.61-.66,1.47-.46,2.45-.23,1.29.3,2.74.65,4.1-.88.3-.35.53-.59.7-.76,0,.13-.07.24-.1.32l.23.09c.63-1,.52-1.06.46-1.12S132.78,193.2,132.67,193.26Zm-.3.24c-.21.19-.51.51-1,1-1.22,1.37-2.53,1.06-3.8.76-1-.24-2-.46-2.74.34a1.21,1.21,0,0,0-.36.72c-.06.6.52,1.07,1.2,1.61s1.52,1.22,1.53,2.06c0,1.81-2.21,3.36-2.23,3.38l-.12.08,0,.13a3.06,3.06,0,0,0,.56,1.35l-.4.13.11.19a3.12,3.12,0,0,1,.41,2.27c-.32.7-1.55,1.15-2,1.27l-.11,0,0,.13a9.63,9.63,0,0,0-.33,2.93c-.28-.05-.36-.34-.43-.78a1.08,1.08,0,0,0-.28-.7l-.16-.13-.07.28a.61.61,0,0,1-.09.18.26.26,0,0,1-.21,0c-.15-.47-.29-.95-.44-1.43l.16-1.51-.91-.33a1.48,1.48,0,0,1-.25-1.93,8.06,8.06,0,0,1,1.23-1.36,5.36,5.36,0,0,0,1.72-2.31,1.19,1.19,0,0,0-.3-1c-1.32-1.51-2.06-4.86-.29-6.91,1-1.1,2.61-.89,4.21-.66,1.44.2,2.93.41,4.07-.29.41-.25.95-.51,1.18-.28A1,1,0,0,1,132.37,193.5Z"/>
    <path d="M127.69,164.94c-1.64.46-2.75,3.66-2.51,4.14-3-.32-4.38,5.35-3.41,6.07-2.55,1-2.23,4.46-2.47,5.54-.82,2.45.18,2.83,1.79,1.49a1.6,1.6,0,0,1-.82,1.94c4.42,4,6.91-5.77,10.79-7a22.22,22.22,0,0,0,6.75-6.3l1.9-.31q1.71-4.5,3.44-9h0c-3.14-.52-9.55,1.39-13.13.63A4,4,0,0,0,127.69,164.94Z" style="fill: #96877d"/>
    <path d="M137.49,161.69c-2.68.35-5.46.74-7.41.32H130a4.22,4.22,0,0,0-2.43,2.81,4.18,4.18,0,0,0-1.94,2.06,5.4,5.4,0,0,0-.63,2c-1.12,0-2.18.81-2.91,2.28s-1,3.24-.59,3.92c-1.93.94-2.13,3.3-2.25,4.73,0,.35-.06.66-.09.83-.52,1.55-.28,2.12,0,2.33s1,.05,1.82-.57a1.41,1.41,0,0,1-.07.85,1.71,1.71,0,0,1-.69.7l-.23.14.16.14a2.86,2.86,0,0,0,2.83.88l.13,0c1.45-.49,2.73-2.24,4-3.92s2.53-3.43,4-3.9h0l0,0a22.53,22.53,0,0,0,6.76-6.28l1.93-.32,3.49-9.09.06-.16-.14,0A22.67,22.67,0,0,0,137.49,161.69Zm2.13,8.68-1.88.3-.05.09A21.9,21.9,0,0,1,131,177c-1.55.5-2.87,2.3-4.15,4s-2.43,3.33-3.77,3.78l-.11,0a2.63,2.63,0,0,1-2.49-.72,1.9,1.9,0,0,0,.64-.75,1.8,1.8,0,0,0,.07-1.26l0-.16-.15.12c-.75.63-1.36.86-1.66.64s-.3-.93.06-2a7.55,7.55,0,0,0,.11-.91c.13-1.48.32-3.71,2.24-4.46l.32-.13-.23-.17c-.46-.35-.33-2.14.47-3.73.41-.83,1.32-2.19,2.79-2l.33,0-.15-.31a4,4,0,0,1,.57-2,3.57,3.57,0,0,1,1.8-1.88l.13,0,0-.15a3.78,3.78,0,0,1,2.16-2.58c2,.41,4.77,0,7.46-.33a23.64,23.64,0,0,1,5.51-.33Q141.29,166,139.62,170.37Z"/>
    <path d="M147.2,151.31a7,7,0,0,0-4.62,6.43c0,2.8,2.07,4.45,4.62,3.71a6.94,6.94,0,0,0,4.63-6.39C151.83,152.26,149.76,150.57,147.2,151.31Z" style="fill: #96877d"/>
    <path d="M147.2,151.16a7.21,7.21,0,0,0-4.77,6.62c0,2.88,2.14,4.58,4.77,3.82A7.16,7.16,0,0,0,152,155C152,152.14,149.83,150.39,147.2,151.16Zm0,10.13c-2.47.72-4.48-.88-4.48-3.59a6.78,6.78,0,0,1,4.48-6.23c2.48-.72,4.49.92,4.49,3.63A6.73,6.73,0,0,1,147.2,161.29Z"/>
    <path d="M167,165.81c-1.11,2.08-4.52,4.91-4.52,4.92s-1.54-2.14-2.58-2.4c.82-2-4.16-6.43-4.16-6.43a10.84,10.84,0,0,0,3.51-2.12,3.41,3.41,0,0,0,2.73-1.57,1,1,0,0,0,1-.89,3.42,3.42,0,0,0-.43-2.64c-2.13.41-5.25-.16-7.53.74a3.39,3.39,0,0,0,.14-2.08,9.26,9.26,0,0,0-3.08,3.21,33,33,0,0,0-3.52,17.11c-1.19,8.92-15,7.09-17.64,19.51.48,4.1,5.23,5.84,8.1,5.54h0c.5,1.67-1.12,5.06-.64,6s3-1.75,7.89,1.57c.77-.44.83.3,1.5.43a10,10,0,0,0,2.8-.65s-1.06-2.6-2.08-3.33-2.58.51-2.58.51c-1.76-.62-3.45-.81-4-2.9,1.22-1,2.42-4.84,1.72-5.46,1.1-.68.93-2.64,1.22-4l2-.67s.74.39,3.23-1.55,4.29-4.68,6.74-6.19c3.46-.52,6.37-2.84,8.83-4.18.88.55,1.4.34,2.44-.06,3.4,1.15,3.44,5.42,4.3,2.58.86,3,3.16,2.08,3.16,2.08l-2.51-4.12s-2.82-1.73-4.74-3c-1.85-.78-5.24.6-5.24.6s3.63-3.45,3.73-7.07c3.7-1.92,6.37.7,7.61.29,1,2,3.37-.23,3.37-.23s-2-1.34-4-2.62C172.24,166.8,169,165.32,167,165.81Z" style="fill: #96877d"/>
    <polygon points="139.06 198.71 139.06 198.71 139.06 198.71 139.06 198.71" style="fill: #96877d"/>
    <path d="M173.94,166.53h-.06a10.39,10.39,0,0,1-2.69-.44,9.88,9.88,0,0,0-4.15-.43l-.08,0,0,.08c-1,1.81-3.76,4.25-4.35,4.76a7.94,7.94,0,0,0-2.45-2.3c.52-1.93-3.07-5.38-4.05-6.27a10.26,10.26,0,0,0,3.26-2,3.52,3.52,0,0,0,2.73-1.58,1.32,1.32,0,0,0,.75-.34,1.23,1.23,0,0,0,.35-.71,3.61,3.61,0,0,0-.44-2.73l0-.07h-.08a16.92,16.92,0,0,1-3,.18,14,14,0,0,0-4.34.48,3.65,3.65,0,0,0,0-1.92l0-.14-.13.08a9.41,9.41,0,0,0-3.17,3.29,33,33,0,0,0-3.54,17.18c-.54,4.1-3.72,5.81-7.4,7.86-4.12,2.29-8.8,5-10.24,11.65v.06c.47,4,5,5.92,8.14,5.64a8.3,8.3,0,0,1-.39,3.32,4.94,4.94,0,0,0-.27,2.63c.19.38.62.28,1.26.14,1.29-.27,3.44-.74,6.66,1.46l.06,0,.07,0a.57.57,0,0,1,.79.1,1.23,1.23,0,0,0,.63.34,4.91,4.91,0,0,0,1.71-.28c.6-.17,1.11-.35,1.15-.36l.2-.07-.08-.18c0-.11-1.08-2.65-2.11-3.38s-2.35.23-2.67.47l-.73-.23c-1.41-.45-2.64-.83-3.13-2.46a8.37,8.37,0,0,0,1.83-4,2.65,2.65,0,0,0-.06-1.47c.73-.6.85-1.75,1-2.87,0-.38.08-.74.15-1.08l1.85-.61c.21.07,1.08.16,3.33-1.6a29.3,29.3,0,0,0,3.07-2.92,19.1,19.1,0,0,1,3.63-3.23,19.22,19.22,0,0,0,7-3.12c.61-.37,1.2-.73,1.76-1,.86.52,1.42.31,2.44-.07a5.88,5.88,0,0,1,3,2.73c.35.55.57.86.85.78s.31-.25.46-.64c1,2.67,3.17,1.78,3.19,1.77l.2-.08-2.61-4.3,0,0s-2.83-1.74-4.75-3c-1.44-.6-3.74,0-4.78.41,1-1.06,3.2-3.75,3.34-6.63a6.63,6.63,0,0,1,5.65,0,3.61,3.61,0,0,0,1.73.37,1.44,1.44,0,0,0,1.18.81,3.93,3.93,0,0,0,2.36-1.11l.16-.15-.15-.1S175.9,167.81,173.94,166.53Zm1.65,3.67a1.23,1.23,0,0,1-1-.77l-.05-.08-.09,0a3.17,3.17,0,0,1-1.67-.34,6.81,6.81,0,0,0-6,.06l-.1.05v.12c-.1,3.49-3.63,6.89-3.66,6.93l.09.26s3.36-1.35,5.13-.61c1.81,1.22,4.45,2.84,4.72,3l2.38,3.91h0c-.58.13-2.11.24-2.76-2.09l-.13-.43-.14.49c-.23.73-.35.81-.37.81h0c-.12,0-.36-.35-.58-.69a6.09,6.09,0,0,0-3.16-2.83h-.07l-.05,0c-1,.38-1.47.56-2.3.05l0,0-.07,0c-.59.32-1.2.7-1.84,1.09-2,1.25-4.32,2.68-6.93,3.07h0l0,0a19.49,19.49,0,0,0-3.74,3.31,27.46,27.46,0,0,1-3,2.88C147.7,190.33,147,190,147,190l0,0-2.17.72,0,.12c-.08.39-.12.82-.17,1.24-.12,1.1-.24,2.23-.95,2.67l-.22.14.16.14c.18.16.22.66.1,1.36a7.72,7.72,0,0,1-1.78,3.84l-.11.09,0,.12c.51,1.83,1.87,2.25,3.31,2.71l.78.25.06,0,.07-.06s1.48-1.16,2.42-.49a9.18,9.18,0,0,1,2,3.11,8.7,8.7,0,0,1-2.53.57,1.23,1.23,0,0,1-.54-.3.76.76,0,0,0-.77-.24,1,1,0,0,0-.21.09c-3.27-2.21-5.55-1.72-6.77-1.45-.62.13-.92.18-1,0a5.17,5.17,0,0,1,.29-2.42,8,8,0,0,0,.37-3.58l0-.08h-.08c-2.6.27-7.48-1.26-8-5.41,1.41-6.46,6-9.09,10-11.33,3.62-2,7-3.86,7.61-8.2a32.75,32.75,0,0,1,3.49-17,9.51,9.51,0,0,1,2.87-3.05,3.15,3.15,0,0,1-.16,1.81l-.15.31.28-.11a12.68,12.68,0,0,1,4.5-.55,17.79,17.79,0,0,0,2.93-.17,3.26,3.26,0,0,1,.38,2.48.78.78,0,0,1-.23.47.94.94,0,0,1-.6.24H162l-.05.07a3.22,3.22,0,0,1-2.6,1.5h-.06l0,.05a10.75,10.75,0,0,1-3.45,2.07l-.29.11.2.18c1.37,1.2,4.78,4.7,4.14,6.26l-.07.16.14,0c1,.24,2.51,2.33,2.52,2.35l.07.1.12-.09c.14-.12,3.36-2.82,4.52-4.9a10.12,10.12,0,0,1,4,.44,10.77,10.77,0,0,0,2.72.45c1.62,1,3.25,2.15,3.75,2.5A3.28,3.28,0,0,1,175.59,170.2Z"/>
    <path d="M132.66,182.24q-1.62-.6-3.24-1.17s-1.78-.16-2,.28h0c-.26.43,1,1.44,1,1.44l3.15,1.2q2.91,1.8,5.83,3.65c1.4.06,2.81.13,4.21.21l-2.33-3Q136,183.52,132.66,182.24Z" style="fill: #96877d"/>
    <path d="M132.74,182.08l-3.27-1.18c-.57,0-1.91-.1-2.19.39h0c-.28.49.52,1.24,1,1.66l3.13,1.18c2,1.21,3.89,2.43,5.84,3.66,1.55.07,3.1.15,4.65.25l-2.57-3.33Q136.06,183.38,132.74,182.08Zm-5.35-.73.11.06Zm10.06,6.13q-2.91-1.84-5.83-3.65l-3.12-1.18c-.65-.53-1.07-1.09-1-1.24a3.39,3.39,0,0,1,1.84-.19l3.24,1.17q3.28,1.28,6.58,2.59l2.08,2.69Z"/>
    <path d="M158.5,190.72l4.23,3.93s.13-8.61,3.66-12.8C164.11,181.78,158.5,190.72,158.5,190.72Z" style="fill: #96877d"/>
    <path d="M166.11,181.73c-2.48.61-7.5,8.56-7.72,8.92l-.08.13,4.56,4.22v-.39c0-.08.17-8.58,3.61-12.66l.21-.25h-.26A1.22,1.22,0,0,0,166.11,181.73Zm-3.51,12.56-3.91-3.62c.65-1,5.2-8,7.37-8.62C163.12,185.86,162.67,192.6,162.6,194.29Z"/>
    <path d="M156.78,185.21a25.29,25.29,0,0,1-2.87-8c-2.23-2.3-6.07-1.15-6.07-1.14l.12-5.75.21-6.5-2.08-.58a3.81,3.81,0,0,0,.65-.66c.5.09,1.45-1.29,1.58-1.64.48.05.91-.08,1-.38s.16-1.4.34-2a2.52,2.52,0,0,0-2.63-4c-2.38.64-2.91,4-2.86,4.18a2.45,2.45,0,0,1,0,1.73,10,10,0,0,1-1,1.09,3.89,3.89,0,0,0-2.94.88c-1.61,1.18-3.43,2.67-3.51,3.83a5.29,5.29,0,0,0-2.16,2.72c-.64.07-1.49.93-2.87,3.83-2.47,2-2.62,7.84-2.62,7.84a7.42,7.42,0,0,0-.69,1.86c0,.58.23,1,.55.8,0,.36.49.55.68.37.07.35.57.39.86.25,0,.24,1-.13,1.06-.39s-.09-1.49,0-1.63.9.28,1.11,0,0-.73-.16-.91-.79-.16-.95-1a5.66,5.66,0,0,1,.43-2.34s2.69-3.17,3-5.25c2-.42,3.09-2.69,3.67-3.6h0c-1.24,2.12-1.35,5.67.26,6.59.16,2.09,1.81,5.88,3.11,5.9s7.11-.21,9.33-1.22c-.43,4.07,2.4,6.44,5,7.81a1.56,1.56,0,0,0,.28,1.15c.29.34,1.67,0,1.73-.2.61.78,3.57.42,3.78,0S157.79,186,156.78,185.21Z" style="fill: #96877d"/>
    <path d="M159.07,186.4a24.82,24.82,0,0,1-2.17-1.32,25,25,0,0,1-2.85-8v0l0,0c-2-2.06-5.3-1.39-6-1.21l.12-5.58c.07-2.2.15-4.4.22-6.61l-1.92-.53a3.68,3.68,0,0,0,.38-.4.87.87,0,0,0,.43-.19,4.7,4.7,0,0,0,1.17-1.45,1.21,1.21,0,0,0,.85-.22.69.69,0,0,0,.22-.32c0-.12.06-.36.1-.66a11.91,11.91,0,0,1,.22-1.31,2.68,2.68,0,0,0,.45-2.61,2.62,2.62,0,0,0-3.2-1.62,3.65,3.65,0,0,0-2.11,1.69,6,6,0,0,0-.89,2.72,2.32,2.32,0,0,1,0,1.59,9.11,9.11,0,0,1-.91,1,4.22,4.22,0,0,0-3,.93c-1.58,1.15-3.39,2.63-3.59,3.87a5.83,5.83,0,0,0-2.13,2.67l-.07,0c-.77.25-1.65,1.46-2.8,3.86-2.4,2-2.64,7.33-2.66,7.93a7,7,0,0,0-.7,1.9,1,1,0,0,0,.33.93.3.3,0,0,0,.26,0,.62.62,0,0,0,.43.38.36.36,0,0,0,.27,0,.73.73,0,0,0,.86.23h0a.42.42,0,0,0,.34,0c.28,0,.84-.29.94-.6a3.46,3.46,0,0,0,0-.88c0-.2,0-.47,0-.62l.23.05c.33.08.67.16.87-.06.33-.38,0-1-.13-1.13a.61.61,0,0,0-.23-.15,1,1,0,0,1-.7-.83,5.31,5.31,0,0,1,.4-2.2c.29-.35,2.61-3.17,3-5.19a5,5,0,0,0,2.8-2.26c-.6,2.05-.41,4.45.89,5.24.18,2.16,1.84,5.92,3.2,5.94,1.62,0,6.91-.23,9.21-1.15-.26,3.23,1.43,5.8,5,7.7a1.55,1.55,0,0,0,.31,1.15c.27.33,1.25.18,1.68,0l.14-.08c.6.53,2.24.45,3.15.21l.18-.05c.33-.1.52-.23.59-.39C162.42,188.43,161.89,188,159.07,186.4Zm2.11,2.58c-1.05.19-2.35.14-2.7-.31l-.18-.22-.07.31c-.2.16-1.26.36-1.49.1a1.42,1.42,0,0,1-.25-1.05v-.09l-.07,0c-3.63-1.89-5.3-4.46-5-7.68l0-.21-.18.08c-2.15,1-7.62,1.21-9.27,1.21-1.21,0-2.86-3.79-3-5.79v-.07l-.05,0c-1.53-.87-1.43-4.33-.24-6.38l-.22-.13c-.07.12-.16.26-.25.43-.61,1-1.61,2.72-3.3,3.08l-.13,0,0,.15c-.3,2-2.92,5.11-2.95,5.14l0,.06a5.88,5.88,0,0,0-.44,2.45,1.22,1.22,0,0,0,.81,1l.16.08c.2.3.27.62.2.69s-.42,0-.57-.06-.44-.1-.55,0-.1.34-.07,1a3.72,3.72,0,0,1,0,.74,1.09,1.09,0,0,1-.41.25l-.09,0c-.18.05-.27,0-.29.06v-.15l-.15.07c-.23.12-.64.08-.7-.18l0-.19-.17.15s-.07,0-.16,0a.42.42,0,0,1-.31-.33V183l-.17.1a.14.14,0,0,1-.15,0c-.13-.07-.24-.33-.22-.71a6.74,6.74,0,0,1,.67-1.77l0,0v-.05c0-.06.17-5.77,2.53-7.68l0,0,0,0c1.18-2.46,2.05-3.64,2.73-3.71h.13l0-.15a5,5,0,0,1,2-2.57l.11-.05v-.13c.08-1.1,2-2.63,3.42-3.67a3.78,3.78,0,0,1,2.83-.85h.07l.06-.06a9.41,9.41,0,0,0,1.05-1.13,2.57,2.57,0,0,0,0-1.86,5.89,5.89,0,0,1,.92-2.59,3.16,3.16,0,0,1,1.8-1.37,2.4,2.4,0,0,1,2.93,1.49,2.31,2.31,0,0,1-.4,2.29l0,0v0a11.34,11.34,0,0,0-.24,1.42c0,.26-.07.51-.09.6a.17.17,0,0,1-.07.09,1.09,1.09,0,0,1-.75.14h-.12l-.05.15a4.48,4.48,0,0,1-1.09,1.38c-.13.1-.23.14-.31.12h-.09l-.06.1a4,4,0,0,1-.61.61l-.26.21,2.26.62-.21,6.41q-.07,3-.13,5.91l.15-.05s3.77-1.1,5.94,1.09a25.45,25.45,0,0,0,2.88,8l0,0c.39.3,1.28.81,2.22,1.35a16.73,16.73,0,0,1,3.09,2A2.05,2.05,0,0,1,161.18,189Z"/>
    <path d="M147.22,154.45c-1.45.23-2.56,2.18-2.56,2.18s-3-.49-4.09.81a3.28,3.28,0,0,0-3.79,2.09,4.22,4.22,0,0,0-2.83,2.38h0c2.9-1,4.82.41,6.62-.34.68-1.22,2.52-2.52,3.66-3.56,1.94-1.06,4.49-.08,6-.9A2.43,2.43,0,0,0,147.22,154.45Z" style="fill: #96877d"/>
    <path d="M147.24,154.29c-1.33.21-2.36,1.73-2.63,2.17-.53-.08-3-.34-4.06.81a3.53,3.53,0,0,0-2.75.65,3.68,3.68,0,0,0-1.11,1.48,4.37,4.37,0,0,0-2.87,2.49l-.08.25.22-.07a7.7,7.7,0,0,1,3.92-.24,5.63,5.63,0,0,0,2.42,0l.28-.1.07,0,0-.07a11.88,11.88,0,0,1,2.55-2.58c.38-.31.74-.61,1.05-.89a6.52,6.52,0,0,1,3.25-.51,5.49,5.49,0,0,0,2.7-.39l.08,0,0-.08a2.55,2.55,0,0,0-.42-1.82A2.46,2.46,0,0,0,147.24,154.29Zm.37,3a6.76,6.76,0,0,0-3.41.56l0,0c-.31.28-.67.58-1.06.9a12.73,12.73,0,0,0-2.61,2.64,5,5,0,0,1-2.51.07,8.21,8.21,0,0,0-3.8.17,4.17,4.17,0,0,1,2.6-2l.1,0,0-.12a3.1,3.1,0,0,1,1-1.37,3.26,3.26,0,0,1,2.59-.57h.08l.07-.07c1-1.21,3.91-.76,3.94-.75l.11,0,.06-.12s1.08-1.85,2.44-2.08a2.23,2.23,0,0,1,2.45.93,2.51,2.51,0,0,1,.42,1.47A5.46,5.46,0,0,1,147.61,157.31Z"/>
    <path d="M146,163.37a12.85,12.85,0,0,1-3-1.79c-1.12-.64-2.77.66-3.45,1.31h0c-.27,1.13,1.07,1.87,2.34,3.19s.7,4.06,1.43,4.91c1.36,2.09,3.13,1.94,5,3.52q.32-5.2.61-10.43l-.93-.36Z" style="fill: #96877d"/>
    <path d="M146.06,163.22a13.07,13.07,0,0,1-3-1.79c-1.37-.78-3.38,1.13-3.61,1.35l-.05.05v.06c-.23.93.49,1.58,1.39,2.4.32.28.64.58,1,.92a5,5,0,0,1,.93,3,3.91,3.91,0,0,0,.49,1.94,5.91,5.91,0,0,0,2.85,2.22,9.8,9.8,0,0,1,2.19,1.32l.22.19.63-10.79V164l-1-.4Zm2.17,11a10.54,10.54,0,0,0-2-1.16,5.74,5.74,0,0,1-2.77-2.17,3.68,3.68,0,0,1-.45-1.81,5.33,5.33,0,0,0-1-3.11c-.33-.34-.66-.64-1-.92-.82-.75-1.48-1.35-1.34-2.06.36-.35,2.08-1.89,3.21-1.24a12.88,12.88,0,0,0,3,1.81l2,.35.86.33Q148.53,169.21,148.23,174.19Z"/>
    <path d="M147.37,164.89c0-.33-.28-.48-.68-.49-.1-.33-.47-.34-.84-.37-.3-.19-1.37.35-1.37.35s.42.5.84.28c.08.4.36.57.81.48.14.37.71.35,1,.42a1.22,1.22,0,0,0,.46.73l.35-.69S147.75,164.9,147.37,164.89Z" style="fill: #96877d"/>
    <path d="M147.51,164.75c0-.3-.3-.48-.72-.51-.14-.31-.5-.34-.84-.36h0c-.35-.17-1.28.27-1.47.36a1.51,1.51,0,0,1-.22.11l.14.16a.89.89,0,0,0,.84.36.69.69,0,0,0,.82.46c.16.27.53.32.8.36l.14,0a1.35,1.35,0,0,0,.48.73l.12.09.49-.93,0-.06C148,165.45,147.88,164.84,147.51,164.75Zm0,1.29a1,1,0,0,1-.3-.54v-.08l-.06,0-.22,0c-.25,0-.59-.08-.68-.31l0-.08-.09,0c-.38.07-.61-.07-.68-.4l0-.15-.15.08a.47.47,0,0,1-.52-.12c.39-.17.86-.31,1-.22l.09,0c.34,0,.63,0,.7.28l0,.08h.08c.21,0,.58.07.58.38v.12h.1c.22,0,.37.37.42.56Z"/>
    <path d="M151.87,155.37q-1.44,3.1-2.87,6.23l-1.26,1.5-.11,4.27c.35,1.22.7,2.45,1,3.67l-.36,3.17a11.26,11.26,0,0,0,1.62-2.78,11.72,11.72,0,0,0-.54-3.23s-.86-1.36.18-4.64,3.41-6.42,4-8.47h0C152.94,154.52,151.87,155.37,151.87,155.37Z" style="fill: #96877d"/>
    <path d="M151.81,155.24l0,0-2.88,6.26-1.29,1.53c0,1.46-.07,2.92-.11,4.37.35,1.22.69,2.44,1,3.66-.14,1.2-.27,2.39-.41,3.58l.29-.38a11.27,11.27,0,0,0,1.66-2.87,11,11,0,0,0-.56-3.33s-.81-1.36.19-4.52a29.76,29.76,0,0,1,2.34-5,18.63,18.63,0,0,0,1.65-3.46l0-.1-.05,0C153,154.32,151.85,155.2,151.81,155.24Zm0,3.22a29.2,29.2,0,0,0-2.37,5.08c-1.05,3.32-.21,4.72-.18,4.75a10.78,10.78,0,0,1,.53,3.15,8.62,8.62,0,0,1-1.28,2.28l.3-2.7v0c-.35-1.23-.7-2.45-1-3.68,0-1.39.07-2.78.1-4.18l1.21-1.44c1-2.08,1.92-4.15,2.87-6.23.19-.13.95-.64,1.43-.28A19.67,19.67,0,0,1,151.81,158.46Z"/>
    <polygon points="160.63 158.03 160.63 158.03 160.64 158.02 160.63 158.03" style="fill: #96877d"/>
    <path d="M148.82,170.76c-2,1.11-1.29-4.81-1.29-4.81l-.5.3s-1.13,5.92,1.57,5.2c7.38-3.7,12.91-13.61,12.91-13.61l-.88.19S156.14,166.19,148.82,170.76Z" style="fill: #96877d"/>
    <path d="M160.94,157.73l-.34.15V158l-.09,0c0,.09-4.54,8.16-11.73,12.66a.59.59,0,0,1-.67,0c-.94-.66-.46-4.68-.45-4.72l0-.25-.79.48,0,.1c0,.15-.72,3.83.38,5a1.24,1.24,0,0,0,1.36.31c7.34-3.69,12.94-13.59,13-13.7l.15-.27-.88.18Zm.29.32c-.95,1.63-6.1,10-12.62,13.25a1,1,0,0,1-1.12-.26c-.92-1-.44-4.12-.34-4.7l.21-.13c-.09.92-.35,4.08.57,4.73a.83.83,0,0,0,.93,0c6.9-4.31,11.34-11.84,11.84-12.73Z"/>
    <path d="M148.68,192.26c4.07-1.65,4.16.8,4.16.79s2.76-.9,2.23,1.43c1.61-.69,1.65,1.2,1.65,1.2s1.38-1.05,1.57.21c1.28-1.08,2.08,1.26,2.08,1.26a1.59,1.59,0,0,1,1.73.81,1.58,1.58,0,0,0,1.57-.41l.72-2.77S157.45,185.45,148.68,192.26Z" style="fill: #96877d"/>
    <path d="M148.62,192.13l.08.28c1.55-.64,2.73-.73,3.41-.29a1.3,1.3,0,0,1,.59,1v.15l.14,0s1.4-.45,1.93.13a1.23,1.23,0,0,1,.15,1.14l-.06.24.22-.09a1,1,0,0,1,1,0c.46.3.48,1.11.48,1.12V196l.19-.15c.18-.14.72-.47,1.06-.36.17.06.28.22.32.5l0,.21.17-.15a.82.82,0,0,1,.67-.23c.74.12,1.21,1.44,1.21,1.45l0,.09h.1a1.47,1.47,0,0,1,1.6.74v0H162a1.38,1.38,0,0,0,.87,0,1.84,1.84,0,0,0,.86-.5l-.17-.2a1.41,1.41,0,0,1-1.38.37,1.62,1.62,0,0,0-1.73-.84c-.13-.32-.6-1.4-1.35-1.52a1,1,0,0,0-.74.18.67.67,0,0,0-.43-.5,1.54,1.54,0,0,0-1.12.29,1.61,1.61,0,0,0-.57-1.11,1.09,1.09,0,0,0-1-.06,1.35,1.35,0,0,0-.24-1.17c-.53-.58-1.66-.34-2-.23a1.58,1.58,0,0,0-.67-1,3.23,3.23,0,0,0-2.74-.05,9.37,9.37,0,0,1,10.18-.68,14.75,14.75,0,0,1,4.53,3.78l.24-.23C164.44,194.57,157.4,185.31,148.62,192.13Z"/>
    <path d="M172.93,197.07c-.52.4-.87-.58-.87-.58s-.09,2.48-1.14,2.71-3.09-1.76-3.09-1.76l-1.29,2.37c5.2,3.12,7-1.94,7-1.94A.69.69,0,0,1,172.93,197.07Z" style="fill: #96877d"/>
    <path d="M173.07,197.05l0-.27-.23.17a.26.26,0,0,1-.2.06c-.22,0-.41-.45-.46-.6l-.28.11c0,.64-.25,2.35-1,2.53h0c-.82.18-2.43-1.19-3-1.74l-.21.26c.08.08,2.08,2,3.18,1.79h0c.84-.21,1.13-1.56,1.23-2.34a.71.71,0,0,0,.4.3.45.45,0,0,0,.23,0,.77.77,0,0,0,.58.69,4.78,4.78,0,0,1-2,2.27c-1.32.69-2.9.48-4.72-.61l-.18.29a5.53,5.53,0,0,0,4.11.93,3.7,3.7,0,0,0,.86-.32,5.27,5.27,0,0,0,2.28-2.66l.07-.19h-.16A.57.57,0,0,1,173.07,197.05Z"/>
    <path d="M157.28,203.23c.07-.68.38-1.36-.72-1-.81,1.16-2.8,2.78-3.3,2.55s2-2.12,1.29-3.5L152,202.57l-.72,3.42s-.91,1.16-.64,1.28,1.72-.8,1.72-.8a9.25,9.25,0,0,0,2.94-1.83,1.43,1.43,0,0,0,1.51.85,1.54,1.54,0,0,0-.08-.77,2.07,2.07,0,0,0,.94-.33S157.92,203.41,157.28,203.23Z" style="fill: #96877d"/>
    <path d="M157.46,202.9c.06-.34.11-.65-.07-.82s-.4-.14-.84,0l-.05,0,0,.06c-.85,1.22-2.75,2.65-3.12,2.48a3,3,0,0,1,.42-.65c.55-.74,1.38-1.86.92-2.8l-.26.2c.38.77-.34,1.73-.86,2.43-.32.43-.53.71-.51.93a.22.22,0,0,0,.13.19c.6.28,2.63-1.45,3.44-2.57.38-.12.51-.08.56,0s0,.3,0,.57c0,.11,0,.22,0,.33v.12l.08,0c.44.12.36.7.31.91a1.8,1.8,0,0,1-.79.26l-.29,0,.14.25a1.07,1.07,0,0,1,.07.51,1.28,1.28,0,0,1-1.25-.8l-.08-.18-.15.2a9.54,9.54,0,0,1-2.89,1.78,5.94,5.94,0,0,1-1.58.8,3.56,3.56,0,0,1,.65-1.06l0,0c.24-1.16.49-2.32.73-3.48h-.28c-.23,1.12-.47,2.25-.71,3.37-.2.27-.73,1-.7,1.3a.18.18,0,0,0,.11.18.46.46,0,0,0,.3,0,7.49,7.49,0,0,0,1.52-.78,10.16,10.16,0,0,0,2.87-1.72,1.52,1.52,0,0,0,1.54.75l.14,0,0-.14a2.66,2.66,0,0,0,0-.63,2.68,2.68,0,0,0,.78-.32l.06-.05,0-.07c.11-.37.17-1.08-.34-1.3Z"/>
  </g>
</svg>
