<svg xmlns="http://www.w3.org/2000/svg" viewBox="0 0 1260 1012.04">
  <g>
    <path d="M0,90.08v920C420,738.76,840,1193.28,1260,922V2C840,273.28,420-181.24,0,90.08Z" style="fill: #00a551"/>
    <path d="M0,90.08v690C420,508.76,840,963.28,1260,692V2C840,273.28,420-181.24,0,90.08Z" style="fill: #ffd500"/>
    <path d="M0,90.08v460C420,278.76,840,733.28,1260,462V2C840,273.28,420-181.24,0,90.08Z" style="fill: #1a206d"/>
    <path d="M0,90.08v230C420,48.76,840,503.28,1260,232V2C840,273.28,420-181.24,0,90.08Z" style="fill: #ea2839"/>
  </g>
</svg>
