<svg xmlns="http://www.w3.org/2000/svg" viewBox="0 0 1260 1012.04">
  <g>
    <path d="M0,90.08v920C420,738.76,840,1193.28,1260,922V2C840,273.28,420-181.24,0,90.08Z" style="fill: #d21034"/>
    <path d="M210,698.18c280-46.46,560,122.14,840,75.68v-460c-280,46.46-560-122.14-840-75.68Z" style="fill: #007e3a"/>
    <path d="M682.5,364c-77.32-16.83-140,38.45-140,123.39,0,84.42,62.68,166.45,140,183.28s140-43,140-127.87C822.5,458.33,759.82,380.94,682.5,364Z" style="fill: #fff"/>
    <path d="M735,374.75c-77.32-15.4-140,38.68-140,123.67,0,84.38,62.68,167.59,140,183s140-47.8,140-132.63C875,464.25,812.32,390.3,735,374.75Z" style="fill: #007e3a"/>
  </g>
</svg>
