<svg xmlns="http://www.w3.org/2000/svg" viewBox="0 0 1260 1012.04">
  <g>
    <path d="M0,90.08v920C420,738.76,840,1193.28,1260,922V2C840,273.28,420-181.24,0,90.08Z"/>
    <path d="M630,197.82c-99.74-22.76-180.6,53-180.6,162.69,0,108.75,80.86,210.15,180.6,232.91s180.6-53,180.6-162.68C810.6,322,729.74,220.58,630,197.82Z" style="fill: #ce1126"/>
    <path d="M0,703.41C420,432.09,840,886.62,1260,615.3V308.63C840,580,420,125.43,0,396.74Z" style="fill: #ce1126"/>
    <path d="M630,82.82c-6.16-1.34-8.4,8.29-8.4,18.1,0,24.54,2.8,37.41,8.4,73.9,5.71-34,8.4-46,8.4-70.23C638.4,94.47,635.6,84,630,82.82Z" style="fill: #ce1126"/>
    <path d="M654.89,89.43c-6.13-1.92-9.17,7.29-9.95,16.89-2,24-.14,36.9,2.63,73.17,8.5-32.74,12.18-44.22,14.1-67.93C662.48,101.65,660.47,91.17,654.89,89.43Z" style="fill: #ce1126"/>
    <path d="M679.59,98.3c-6.06-2.46-9.87,6.26-11.43,15.59-3.89,23.32-3.08,36.11-3.15,71.89,11.21-31.23,15.85-42.12,19.7-65.17C686.31,111,685.11,100.54,679.59,98.3Z" style="fill: #ce1126"/>
    <path d="M703.92,109.31c-5.95-3-10.51,5.21-12.83,14.2-5.79,22.48-6,35.08-8.91,70.11,13.85-29.51,19.42-39.75,25.14-62C709.71,122.36,709.33,112,703.92,109.31Z" style="fill: #ce1126"/>
    <path d="M727.68,122.31c-5.79-3.44-11,4.16-14.12,12.76-7.66,21.5-8.86,33.82-14.61,67.87,16.38-27.61,22.83-37.15,30.4-58.42C732.51,135.63,732.94,125.45,727.68,122.31Z" style="fill: #ce1126"/>
    <path d="M750.7,137.18c-5.58-3.89-11.52,3.11-15.3,11.26-9.47,20.39-11.67,32.37-20.2,65.2,18.78-25.53,26.07-34.33,35.42-54.52C754.53,150.67,755.78,140.71,750.7,137.18Z" style="fill: #ce1126"/>
    <path d="M772.8,153.76c-5.33-4.3-11.89,2.06-16.37,9.74-11.2,19.18-14.38,30.73-25.63,62.15,21.05-23.32,29.11-31.32,40.17-50.34C775.6,167.35,777.65,157.66,772.8,153.76Z" style="fill: #ce1126"/>
    <path d="M793.81,171.93c-5-4.67-12.18,1-17.32,8.18-12.84,17.87-17,28.93-30.86,58.74,23.15-21,31.94-28.14,44.63-45.89C795.56,185.53,798.4,176.17,793.81,171.93Z" style="fill: #ce1126"/>
    <path d="M795.45,198.16c-14.4,16.47-19.46,27-35.86,55,25.07-18.49,34.51-24.8,48.73-41.2,5.94-6.87,9.55-15.85,5.26-20.41C808.86,186.54,801.21,191.56,795.45,198.16Z" style="fill: #ce1126"/>
    <path d="M813.14,217.51c-15.84,15-21.78,24.92-40.59,51,26.81-15.92,36.83-21.34,52.47-36.29,6.53-6.27,10.89-14.84,6.93-19.68C827.59,207.18,819.48,211.5,813.14,217.51Z" style="fill: #ce1126"/>
    <path d="M829.44,238.07c-17.16,13.44-23.94,22.7-45,46.63,28.34-13.25,38.86-17.74,55.81-31.17,7.08-5.65,12.14-13.75,8.54-18.85C844.82,229.06,836.3,232.67,829.44,238.07Z" style="fill: #ce1126"/>
    <path d="M844.22,259.69c-18.35,11.83-25.91,20.38-49.08,42,29.65-10.5,40.6-14,58.72-25.87,7.57-5,13.3-12.59,10.09-17.92C860.42,252.07,851.56,254.94,844.22,259.69Z" style="fill: #ce1126"/>
    <path d="M857.38,282.28c-19.4,10.13-27.7,17.92-52.79,37.16,30.74-7.67,42-10.23,61.19-20.37,8-4.28,14.36-11.34,11.56-16.88C874.26,276.09,865.13,278.21,857.38,282.28Z" style="fill: #ce1126"/>
    <path d="M868.8,305.71c-20.3,8.35-29.27,15.34-56.09,32,31.6-4.77,43.14-6.32,63.19-14.7,8.37-3.55,15.31-10,12.94-15.73C886.24,301,876.92,302.34,868.8,305.71Z" style="fill: #ce1126"/>
    <path d="M878.4,329.86c-21,6.51-30.61,12.64-59,26.63,32.21-1.82,43.92-2.33,64.71-8.87,8.68-2.79,16.14-8.6,14.23-14.48C896.27,326.68,886.82,327.23,878.4,329.86Z" style="fill: #ce1126"/>
    <path d="M886.11,354.6c-21.63,4.59-31.73,9.81-61.38,21,32.58,1.18,44.37,1.73,65.73-2.9,8.93-2,16.86-7.1,15.41-13.09C904.27,353,894.77,352.73,886.11,354.6Z" style="fill: #ce1126"/>
    <path d="M348.74,296.11c-1.07,6.59,7.64,11.15,16.46,13.44,22.06,5.86,33.58,5.86,66.26,10.11-30.72-16.2-41.55-22.19-63.34-28C359,289.23,349.71,290.11,348.74,296.11Z" style="fill: #ce1126"/>
    <path d="M354.13,269.73c-1.59,6.44,6.75,11.84,15.41,15,21.63,8,33.18,9.18,65.73,16.64-29.62-19.05-40-26.08-61.38-34.09C365,264,355.58,263.88,354.13,269.73Z" style="fill: #ce1126"/>
    <path d="M361.62,244.13c-2.1,6.22,5.81,12.44,14.23,16.45,21,10.16,32.53,12.49,64.71,23.14-28.31-21.78-38.17-29.82-59-40C372.92,239.55,363.54,238.48,361.62,244.13Z" style="fill: #ce1126"/>
    <path d="M371.16,219.56c-2.6,5.93,4.82,12.93,12.94,17.79,20.3,12.25,31.64,15.73,63.19,29.53-26.77-24.35-36-33.34-56.09-45.57C382.83,216.24,373.53,214.16,371.16,219.56Z" style="fill: #ce1126"/>
    <path d="M382.66,196.26c-3.08,5.59,3.81,13.32,11.56,19,19.4,14.26,30.5,18.91,61.19,35.77-25-26.76-33.63-36.62-52.79-50.85C394.62,194.24,385.46,191.18,382.66,196.26Z" style="fill: #ce1126"/>
    <path d="M415.78,180.52c-7.57-6.71-16.52-10.76-19.73-6.05-3.53,5.19,2.75,13.59,10.09,20,18.35,16.17,29.13,21.94,58.72,41.74C441.76,207.28,433.9,196.63,415.78,180.52Z" style="fill: #ce1126"/>
    <path d="M430.56,162.58c-7.08-7.44-15.74-12.44-19.34-8.14-4,4.73,1.68,13.72,8.54,20.87,17.16,17.94,27.54,24.79,55.81,47.37C454.57,191.8,447.5,180.44,430.56,162.58Z" style="fill: #ce1126"/>
    <path d="M428.05,136.37c-4.36,4.22.59,13.72,6.93,21.52,15.84,19.55,25.74,27.44,52.47,52.61-18.73-32.57-24.95-44.51-40.59-64C440.33,138.43,432,132.54,428.05,136.37Z" style="fill: #ce1126"/>
    <path d="M446.42,120.45c-4.72,3.66-.5,13.59,5.26,22,14.4,21,23.75,29.83,48.73,57.39-16.32-34-21.64-46.39-35.86-67.24C458.61,123.86,450.71,117.13,446.42,120.45Z" style="fill: #ce1126"/>
    <path d="M466.19,106.85c-5.05,3.07-1.58,13.31,3.55,22.18,12.85,22.22,21.57,31.94,44.63,61.63-13.79-35.07-18.18-47.84-30.86-69.89C478.21,111.57,470.77,104.06,466.19,106.85Z" style="fill: #ce1126"/>
    <path d="M487.2,95.7c-5.33,2.45-2.65,12.9,1.83,22.18,11.2,23.23,19.22,33.73,40.17,65.28-11.15-35.84-14.57-48.85-25.63-71.88C499,101.67,492.05,93.47,487.2,95.7Z" style="fill: #ce1126"/>
    <path d="M509.3,87.08c-5.58,1.82-3.71,12.37.08,22,9.47,24,16.74,35.19,35.42,68.33C536.37,141.07,534,128,524.6,104.17,520.7,94.24,514.38,85.43,509.3,87.08Z" style="fill: #ce1126"/>
    <path d="M532.32,81.06c-5.79,1.17-4.73,11.73-1.67,21.55,7.66,24.57,14.12,36.31,30.4,70.73-5.65-36.45-7-49.57-14.61-73.87C543.28,89.32,537.58,80,532.32,81.06Z" style="fill: #ce1126"/>
    <path d="M556.08,77.65c-6,.52-5.72,11-3.4,20.94,5.8,24.89,11.4,37.09,25.14,72.48-2.81-36.28-3.19-49.27-8.91-73.88C566.51,86.92,561.49,77.18,556.08,77.65Z" style="fill: #ce1126"/>
    <path d="M580.41,76.85c-6.07-.12-6.67,10.15-5.12,20.14,3.89,25,8.6,37.53,19.7,73.58,0-35.81.69-48.56-3.15-73.25C590.23,87,585.92,77,580.41,76.85Z" style="fill: #ce1126"/>
    <path d="M605.11,78.59c-6.14-.74-7.56,9.25-6.78,19.2,1.95,24.86,5.71,37.62,14.1,74,2.88-35.05,4.56-47.46,2.63-72C614.26,89.56,610.69,79.27,605.11,78.59Z" style="fill: #ce1126"/>
    <path d="M0,396.74C420,125.43,840,580,1260,308.63v-23C840,557,420,102.43,0,373.74Z"/>
    <path d="M0,1010.08C420,738.76,840,1193.28,1260,922V615.3C840,886.62,420,432.09,0,703.41Z" style="fill: #339e35"/>
  </g>
</svg>
