<svg xmlns="http://www.w3.org/2000/svg" xmlns:xlink="http://www.w3.org/1999/xlink" viewBox="0 0 1260 1012.04">
  <defs>
    <linearGradient id="a" x1="378" y1="478.5" x2="864" y2="478.5" gradientTransform="matrix(1, -0.07, 0, 1, 0, 44.05)" gradientUnits="userSpaceOnUse">
      <stop offset="0" stop-color="#a2abca"/>
      <stop offset="0.35" stop-color="#002b5d"/>
      <stop offset="0.5" stop-color="#002b5d"/>
      <stop offset="0.65" stop-color="#002b5d"/>
      <stop offset="1" stop-color="#a2abca"/>
    </linearGradient>
  </defs>
  <g>
    <path d="M0,90.08v920C420,738.76,840,1193.28,1260,922V2C840,273.28,420-181.24,0,90.08Z" style="fill: #fff;fill-rule: evenodd"/>
    <path d="M853.91,442c-6.51-3.68-8.17-6.63-12.19-14.7-7.33-18.37-12-37.76-17.14-57.45-7-26.95-13.52-44.18-36.51-59.47-6.49-3.83-9.66-3.89-20.83-8,4.84-4.82,11.52-4.52,13.18-16.47-10.68.49-13.67-5.7-30.49,1.52,3.16-1.93,6.32-7.24,8.48-10.86-11.16-4.57-11.66.38-22,3.86-2.82-.95,4-8.3,1-8-3.51-2.15-7.19,6-12.34,6.24-9.51.63-12.18-7.71-.67-7.08A52.51,52.51,0,0,0,739.76,268c4.48-1.9,6-5,1.83-10.18a14.67,14.67,0,0,0,7.67,2.71c2.82-1.58,1-7-1.33-9.76,5.32.61,5.49-.22,8.67-1.12a23.74,23.74,0,0,0,2.33-8.43,15.22,15.22,0,0,0,5.32,1c.5,7.06,2.83,15.92,9.33,18.33a28.28,28.28,0,0,1,.83-11.7c.66-2,.31-1.64,1.33-.37,7.17,14.5,13.17,22.46,24.33,30.75,7,6.14,7,12.88,4.34,18.8a2.93,2.93,0,0,0,2,1.78,5,5,0,0,0,6.17-1.41,15.62,15.62,0,0,0,.83-2.41c2.64,3.33,7.15,6.28,11.66,5.44.85-1.36.85-3.49.67-5.61,13.49-6.88,12.32,25.45,21.17,29.65.49-1,.49-2.48,0-4.85,4.48,1.14,7.48,8.44,15.51,10.54-3.35-5.61-4.86-7.27-5.51-13.45,1-.33,1.82-.45,2.85-.78,0-7.78-1.36-14.44-8.17-16.47a13.18,13.18,0,0,0,.31-7.55c-4.66,1-20.83,4.7-28.48-10.91,4.15-1.35,8-8.65,7-13.22-3.68-2.17-6.34.21-9.36.64a18.12,18.12,0,0,0-3.83-8.94c-1-1.23-1.65-1.33-2.32-.33-.16,13.89-14.51,16.6-16.18,7-.5-8.93,1-10.82,7.83-11.68a23.44,23.44,0,0,1-2.5-8.15c-.15-2.36,2-.33,3.69-2.19-3.34-4.3-4.66-5.55-7.52-11.08,1.17.19,3.18-.57,3.35-1.16-3.82-5.89-3.66-10.39-22.68-23.7-4-2.78-7.82-3.86-11.66-5.14-6.83-1.44-12.83-2.3-18-1.15-2.49.8-6.48,2.15-9.84.43a23.45,23.45,0,0,0,0-14.75c-1.33-5.75-10.82-3.12-14,5.3-.5,1.38-.5,1.8-.5-.1,0-3.57-.31-9.78-5.31-15-5.51.18-7.52,5.44-9.84,11.72a22.58,22.58,0,0,0-1,2.11c-2-5.25-3.35-7.63-4.52-8.29-1.82,0-3.15,2.71-5,6.14-4.92,11.63-8,22.77-13.13,28.77-6.76,5.62-15.33,8.47-26.73,9a79.08,79.08,0,0,0-2.45-16c-3-11.63-8.55-21.38-15.93-28.14-16.77-15.32-39-11.34-53.44,8a45.69,45.69,0,0,1-5.79,2.36l-.32.08-.21.3A57.73,57.73,0,0,0,576,207.1c-.31.07-.6.23-.93.28l-.54.07-.16.25c-10.17-5.15-17.37-10.58-19.86-15.56-5.52-8.42-8.68-21.69-13.79-35.93-1.84-4.18-3.19-7.38-5-8.18-1.17.19-2.66,2-4.49,6.49-.17-.66-.67-1.6-1-2.52-2.32-7.21-4.34-13.28-9.84-15.62-5.5,3.16-5.34,10.17-5.18,13.38,0,2.29.18,1.5-.65-.78-2.17-7.38-12.66-15.66-14-10.39a23.65,23.65,0,0,0,0,14.74c-3.32.48-7.33-2.34-9.83-4-5.16-3-11.17-4.29-18-5.17-3.84,0-7.67-.22-11.68,1.26-19,7.25-18.84,12-22.66,16.71.16.65,2.16,2,3.33,2.15-2.81,4.69-4.16,5.55-7.49,8.9,1.66,2.33,3.83.93,3.66,3.25a17.78,17.78,0,0,1-2.5,7.43c6.84,2.82,8.34,5.19,7.84,14-1.66,9-16,2.23-16.17-11.65-.67-1.18-1.34-1.27-2.33-.3a13.66,13.66,0,0,0-3.85,7.92c-3-1.21-5.66-4.27-9.33-3-1,4.33,2.85,12.56,7,15-7.67,13.56-23.84,6.2-28.49,4.33a13.27,13.27,0,0,0,.33,7.62c-6.82.65-8.17,7.07-8.17,14.86,1,.53,1.85.8,2.84,1.32-.66,6.06-2.18,7.4-5.5,12.42,8-.62,11-7.27,15.5-7.47-.51,2.26-.51,3.73,0,4.85,8.81-2.25,7.65-34.9,21.14-24.71-.16,2.09-.16,4.19.67,5.79a10.64,10.64,0,0,0,11.68-2.35,15.33,15.33,0,0,0,.83,2.63c1.66,2.32,3.66,3.43,6.18,3.15a2.07,2.07,0,0,0,2-1.21c-2.67-6.67-2.67-13.44,4.32-17.53,11.17-5,17.18-11,24.33-23.1,1-.94.67-1.39,1.33.82a30.57,30.57,0,0,1,.84,12c6.5-.23,8.83-8.26,9.33-15.15a15.45,15.45,0,0,0,5.34.9,29.68,29.68,0,0,0,2.33,9.26c3.16,2,3.16,2.88,8.67,4.24-2.35,1.91-4.16,6.68-1.52,9.25,2.36,1.48,5.51,2.66,8.2,1.65-4.18,3.69-2.5,7.59,2,11.14,5.16,3.49,10.68,6.41,15,7,12.18,3.81,10.19,12.5,0,8.23-5.16-2.26-8.48-12.14-12-11.32-2.67.34,1.16,7.58-1.66,7.69-10.33-7.35-9.34-12.23-20.5-11.64,2.16,4.37,5.33,10.81,8.49,13.9-16.83-13.27-19.83-8-30.49-12,1.66,12.49,8.34,14.38,13.16,20.87-11.14.31-14.33-.6-20.83,1.15-23,8.18-29.64,24-36.49,49-5.17,18.36-9.82,36.61-17.17,53.34-4,7.19-5.65,9.75-12.15,12.12-6,.94-7.52-3-9.34.68-2.66,9.28,1.52,20.52,13.33,20.34-1,10.06,1,10.64.65,23.06a22.07,22.07,0,0,0,14.86-8.16c.16,3.8.32,7.83,1.32,10.67,4.66.33,8.83-3.61,10.17-5.55-3,10.4-5.35,12.83-15.67,14-1,10.42,8.69,11.05,13.17,9.51-3.49,10.51,7.16,14.32,14.5,10.68,1.18,2.48,1.18,6.9-.51,11.71-10.17,19.45-31.66,48.76-23,77,13.49-5.71,21.49-32,24.81-38.32,4.66,9.37-25.32,51-15.51,70.38,2.84-6.63,6.34-6.61,11.52-10.81-21.35,36.53-26.35,82.32-23.51,115.31a76.92,76.92,0,0,0,3.84,19.17c3.65,10.48,25,47.11,13.67,54.37-1.33.46-1.51,1.5-.34,3.31,5.84,10,18.83,11.54,21.34-3.48,17.16,13.43,27.16-8.27,23.83-26.53-2.82,2.92-12.51-7.45-16.84-2.59,7.16-16.65-3.85-36.92-16.83-28.94-1.33.66.33,2.36.83,3.44a11.8,11.8,0,0,1,.19,7.87c-.67,2-2.18,4.12-4.52,4.45-5.65-.52-11.17-2.92-16.66-14.3-15.84-39.64,21.67-94.8,36-124.12a94.64,94.64,0,0,0,8-24.52c1.67,6.79,4.82,10.42,8.49,8.47-5.17-11.36-.34-35.49-7.83-50.57,12.17,3.8,11.84-17.75,9.17-22.15-5.17,8.86-12.17,4.4-13.34-4.19,2.49-7.44,2.82-13.3.83-19.91-1.5-8-5.16-16.8-5.65-20.86,2,5.76,9.16,10.44,11.5,14.6,1-7.87-3.66-15.75-11-39.63,4.34,1.24,9,2.62,10.82-4.25-7.16-3.21-6.83-15.61-9.16-21,3,1.28,5.81,1.71,8.34.62.5-4.76,1.33-18-9.51-33.91-4.15-4.18-1.5-2.95,1.86-1.61,11,6.91,20.15-4.7,32.82-4.87,31,.42,36,19,59,32,6.06-15.48,17.64-10.45,30.07-5.79a18.69,18.69,0,0,0,1.12,1.77v0l.34.5.09,0,0,0,.11.1c5.42,6.18,18.66,24.85,22.55,30.65l10.57-8a91.25,91.25,0,0,1,17.52-9.55c1.92-.79,3.86-1.45,5.78-2.12l21.11,4.71c18.5,6.79,40.82,3.69,45.18,20.62,23-3.73,28-20.14,59-9.31,12.69,4.66,21.86,19.31,32.85,15.84,3.33-.3,6-.72,1.83,2.18a39.92,39.92,0,0,0-9.5,30.91,11.07,11.07,0,0,0,8.35,2c-2.36,4.68-2,17.2-9.18,18.11,1.84,7.47,6.49,7.57,10.84,7.68-7.36,21.61-12,27.95-11,36.15,2.33-3.39,9.5-5.8,11.5-11-.5,3.93-4.19,11.56-5.68,19.09-2,6-1.67,12,.83,20.17-1.16,8.23-8.14,10.5-13.33-.12-2.66,3.5-3,25,9.17,25.14-7.51,12.66-2.67,38.34-8,48,3.82,3.18,7,.58,8.66-5.67a126,126,0,0,0,8,27c14.35,34.12,51.86,98.5,36,134.16-5.48,10-11,11-16.84,9.89-2.16-1-3.67-3.49-4.32-5.69a11.37,11.37,0,0,1,.17-7.82c.48-.94,2-2.2.83-3.21-13-11.65-24.13,5-16.81,24-4.33-6.18-14,1.07-16.84-2.81-3.33,17.09,6.68,42.33,23.82,34,2.36,15.79,15.52,18,21.35,9.49,1.16-1.5,1-2.59-.33-3.39-11.52-10.29,10-41.21,13.67-50.93a65.65,65.65,0,0,0,3.83-18.27c2.83-32.41-2.16-79-23.5-121.27,5.18,5.61,8.66,6.5,11.49,13.85,9.84-16.78-20.14-66.31-15.49-74.54,3.33,7.22,11.17,35.82,24.83,44.77,8.67-26.13-12.84-60.48-23-82.89-1.69-5.28-1.69-9.73-.52-11.86,7.34,5.72,18,4.58,14.52-6.81,4.48,2.71,14.15,4.34,13.15-6.33-10.32-3.61-12.65-6.71-15.66-17.87,1.34,2.29,5.5,7.32,10.17,8.09,1-2.61,1.16-6.59,1.33-10.36a28.8,28.8,0,0,0,14.83,11.49c-.34-12.5,1.66-12.68.66-22.93,11.83,2.6,16-8,13.32-17.75C861.25,440.38,859.89,444.08,853.91,442Z" style="fill: url(#a)"/>
    <path d="M476.15,722.13c0,50.63,32.44,97,72.49,105.28,16.46,3.35,32.92,6.85,49.38,10.4,12.77,2.76,23.13,18.11,23.13,34.28,0-16.18,10.35-27,23.11-24.22.69.15,1.36.33,2,.54v-.1q23.69,5.15,47.36,10.15c40,8.45,72.47-26.83,72.51-77.5V412.85c-96.67-17.19-193.34-42.68-290-58.78Z" style="fill: #002b5d"/>
    <path d="M526.43,584.51c63.14,12.3,126.29,27.3,189.44,40.06V465.51c-63.15-12.76-126.3-27.76-189.44-40.05Z" style="fill: #0076bd"/>
    <path d="M526.43,730.08c0,.39,0,.82,0,1.21s0,.81,0,1.25c.46,14.07,9,27.06,19.8,30.76,23.68,4.8,47.36,9.91,71,15.07V700.15h0v-86c-30.28-6.6-60.57-13.11-90.85-19Z" style="fill: #cccdce"/>
    <path d="M715.86,634.33C685.55,628.2,655.25,621.57,625,615V778.81c23.7,5.17,47.39,10.36,71.09,15.3,10.83.73,19.34-8.89,19.83-22.76,0-.4,0-.82,0-1.23s0-.84,0-1.25Z" style="fill: #ba9400"/>
    <path d="M672.5,592.64h0l0,0Z" style="fill: #002b5d"/>
    <path d="M686.41,597.24l-1-.32a20.69,20.69,0,0,1-4.28-2.27c-.33-.22-.64-.46-.89-.63a.76.76,0,0,0-.14-.13,2.51,2.51,0,0,1-.29-.2c-2.56-1.67-5.06-2.39-6.38-1.89a1.4,1.4,0,0,0-.51.37,1.45,1.45,0,0,0-.42.5l0,0h0s0,0,0,0v0s0,0,0-.05l0,0,0,0c-.86-2.21-4.25-2.72-7.24-2.06-.14,0-.29.07-.43.12l-.65.18a14.21,14.21,0,0,1-4.57.47l-1-.07.46,1.14a.89.89,0,0,1,.07.16c.22.48.45.95.67,1.43,0,0,0,.11.09.24a3.55,3.55,0,0,0,.23.42,21.26,21.26,0,0,0,2.2,3.27,18.47,18.47,0,0,0,10.18,6.45,12.13,12.13,0,0,0,10.21-2.12,11,11,0,0,0,2.19-2.32,1.52,1.52,0,0,0,.22-.34.55.55,0,0,1,.11-.16l0-.06.06-.09.63-1h0a.08.08,0,0,1,0-.07Z" style="fill: #002b5d"/>
    <path d="M680.19,598.82l-1.25-.17h0c-.76-.06-1.41-.13-1.94-.16h0c-.27,0-.48,0-.7,0h0a4.85,4.85,0,0,0-1,.14l-.21.09,0,0s0,0,0,0l-.1,0h0a4.24,4.24,0,0,1-2.57.09,5.75,5.75,0,0,1-2.52-1.1l-.11-.09a2.91,2.91,0,0,0-.39-.4s-.13-.1-.17-.11,0-.06-.08-.07l-.16-.06a.22.22,0,0,0-.1-.06.65.65,0,0,1-.19-.09l-.12,0a.51.51,0,0,0-.21-.1.44.44,0,0,0-.16-.06.73.73,0,0,0-.26-.11.28.28,0,0,0-.16-.07.82.82,0,0,0-.3-.1s-.13-.06-.23-.1a1.76,1.76,0,0,1-.34-.12l-.22-.07c-.12,0-.25-.08-.4-.11a.68.68,0,0,0-.26-.11l-.45-.12a1,1,0,0,0-.3-.09c-.16-.07-.33-.11-.5-.18l-.33-.07c-.19,0-.37-.1-.58-.16a1.38,1.38,0,0,1-.29-.08c-.4-.08-.8-.19-1.23-.3l-.55-.12a23.38,23.38,0,0,0,1.44,2,16.92,16.92,0,0,0,9.38,5.92,11.08,11.08,0,0,0,9.38-1.9,9.59,9.59,0,0,0,1.42-1.43c-1.17-.24-2.21-.42-3.11-.56Z" style="fill: #e53138"/>
    <path d="M679.84,595.39a.53.53,0,0,0-.17-.12,1.9,1.9,0,0,1-.2-.18c-2.57-1.65-4.61-2.07-5.42-1.74a.7.7,0,0,0-.29.26v0l0,.1v0a1,1,0,0,1-1.14.77,1.69,1.69,0,0,1-1.12-1.17l-.05-.21v-.07c-.25-.71-2.4-1.66-5.7-.94-.32.08-.62.19-1,.31l-.67.16a21,21,0,0,1-2.8.35h0c.87.19,1.77.42,2.66.62H664c.41.14.83.25,1.24.37l.14,0c.39.12.78.24,1.14.37a.48.48,0,0,1,.17.05l1,.35.15.07c.33.12.64.26.9.36l.13.08c.28.15.53.27.75.4l.06,0c.22.16.43.29.57.41a.11.11,0,0,1-.07,0,1.54,1.54,0,0,1,.3.24,1,1,0,0,1,.16.22,5.2,5.2,0,0,0,1.71.65,4,4,0,0,0,.71.08.31.31,0,0,0,.19,0,1.08,1.08,0,0,0,.34,0,.7.7,0,0,0,.21,0,.45.45,0,0,0,.16,0l.16,0h0l.1,0c0-.06.12,0,.14-.12l.29-.07a1.08,1.08,0,0,1,.56-.15,2.09,2.09,0,0,1,.36,0,1.5,1.5,0,0,1,.36,0c.2,0,.42,0,.62,0a1.41,1.41,0,0,0,.29,0l.87.07h.18L679,597l.11,0c.42,0,.89.11,1.38.2l3.37.56a20,20,0,0,1-3.16-1.76C680.38,595.81,680.09,595.56,679.84,595.39Z" style="fill: #e53138"/>
    <path d="M537.82,688.48c.91,2.79,3,5.06,5.43,5.55s4.51-.94,5.44-3.36a6.41,6.41,0,0,1-5.44,1.25A9.56,9.56,0,0,1,537.82,688.48Z" style="fill: #002b5d"/>
    <path d="M532,703l.21.27q9,13.25,18.1,26.54l.18.25,1.32.27c-23.79,7.43,46.94,24,21.45,31.05,44.23.4-23.33-22.47,19.79-22.41l-.36-.08q9.2-9.68,18.4-19.32v-8.4c-26.37-5.73-52.73-11.38-79.09-16.57Z" style="fill: #002b5d"/>
    <path d="M533.3,702.56l.75,1.08,3.24.64q8.46,12.4,16.92,24.88l8.95,1.85q-5.2-12.22-10.4-24.42l5.17,1.06,8,23.94,11.18,2.35q4-10.28,8-20.56l5.13,1.1-10.36,20.06,9.15,2L606,718.7l3,.65.76-.76v-6.06c-25.49-5.54-51-11-76.47-16Z" style="fill: #fff"/>
    <path d="M678.7,698.69l-1.78-2.56c0-.06,0-.14,0-.19a12.1,12.1,0,0,0-2-6.55,2.85,2.85,0,0,0,.71-1.94,4.47,4.47,0,0,0-2.25-3.73l1.65-1.72-.83-1.2L672,683.16a3.29,3.29,0,0,0-2,.18,4.57,4.57,0,0,0-1.95-1L665.82,679l-.82.85,1.62,2.42a2.63,2.63,0,0,0-2.25,2.76,4.2,4.2,0,0,0,.71,2.25,8.06,8.06,0,0,0-1.94,5.18l-2.35,2.39-9.6,9.79c-2.37,2.38-3.25,6.52-2.33,10.77l.13.64.49.1a12.72,12.72,0,0,0,9.08-1.43,14.89,14.89,0,0,0,3.49-2.66l.18.93a1.11,1.11,0,0,0,0,.23c0,.1,0,.19,0,.31l.07.37h0a26.35,26.35,0,0,0,1.48,4.53c.32.66,1.39,2.39,1.39,2.39a8.24,8.24,0,0,0,4.74,3.56,5.13,5.13,0,0,0,4.74-1.52l0,0,.15-.1c.4-.55.8-1.11,1.21-1.66a14,14,0,0,0,1.5-3.89c0-.11.05-.22.08-.33v-.06a1,1,0,0,0,0-.21,1.23,1.23,0,0,1,.05-.25l0-.31a28,28,0,0,0,3,3.51c3,2.9,6.19,4.78,9.06,5.31l.5.11.15-.58a15.38,15.38,0,0,0-2.32-11.78Z" style="fill: #002b5d"/>
    <path d="M670,687.15c-3.15-.68-5.69,2-5.69,6a10.07,10.07,0,0,0,.92,4.14,9.46,9.46,0,0,0,1.37,2.13,4.08,4.08,0,0,1,3.4-.82,6.37,6.37,0,0,1,3.4,2.28c.1-.09.17-.23.27-.33s.07-.07.11-.07a5.76,5.76,0,0,0,1-1.14,7.37,7.37,0,0,0,.94-3.74,9.6,9.6,0,0,0-.25-1.55C674.92,690.67,672.75,687.73,670,687.15Z" style="fill: #ffd300"/>
    <path d="M664.22,698a12,12,0,0,1-1-3.31c-.89.93-1.53,1.57-1.53,1.57L652.09,706c-1.89,1.92-2.64,5.14-2.1,8.56a11.91,11.91,0,0,0,7.88-1.43,15.35,15.35,0,0,0,3.89-3.15l.16-.21v-.22c0-.26,0-.49,0-.71s0-.24,0-.34v-.26c0-.34,0-.69.07-1l0,0a11.54,11.54,0,0,1,.5-2.5l0,0,.22-.7.26-.71h.06c.17-.39.29-.81.46-1.13a8.46,8.46,0,0,1,1.7-2.35l0-.07,0,0A10.93,10.93,0,0,1,664.22,698Z" style="fill: #fff"/>
    <path d="M674.66,717.89a7.61,7.61,0,0,1-1.44,0h0a14.27,14.27,0,0,1-1.44-.09,1.06,1.06,0,0,1-.29,0c-.48-.07-1-.14-1.47-.25s-1-.25-1.49-.39a.77.77,0,0,1-.28-.09,14.13,14.13,0,0,1-1.43-.53h0c-.49-.21-1-.4-1.41-.64l-.07,0c-.47-.26-.91-.54-1.34-.8a14.89,14.89,0,0,0,1.94,4.32,18.3,18.3,0,0,0,4.11,1.46,15.38,15.38,0,0,0,4.12.31,8.83,8.83,0,0,0,1.93-3.49c-.43.07-.86.17-1.36.21C674.7,717.88,674.66,717.87,674.66,717.89Z" style="fill: #ffd300"/>
    <path d="M676.21,708.24a6.82,6.82,0,0,1-1.16.22.3.3,0,0,1-.13,0,7.26,7.26,0,0,1-1.16.06,6,6,0,0,1-.6,0c-.28,0-.56,0-.83-.06-.5,0-1-.11-1.6-.19l-.29,0a4.3,4.3,0,0,1-.45-.08l-.44-.11-.29-.08c-.54-.15-1.07-.31-1.58-.49a9.26,9.26,0,0,1-1-.36c-.15,0-.31-.14-.47-.2-.41-.18-.79-.36-1.19-.56,0,0-.06,0-.09-.07a9.34,9.34,0,0,1-1.18-.73,21.16,21.16,0,0,0-.47,2.32c0,.11,0,.31,0,.46a2.47,2.47,0,0,0,.27.21,15.71,15.71,0,0,0,5.15,2.55c.33.07.66.14,1,.23a.28.28,0,0,0,.13,0l.39.08a.14.14,0,0,0,.09,0,11.55,11.55,0,0,0,6.4-.23,2.27,2.27,0,0,0,0-.48A18.24,18.24,0,0,0,676.21,708.24Z" style="fill: #ffd300"/>
    <path d="M677.79,699.7l-1.08-1.54a7.19,7.19,0,0,1-.87,2.31,7.1,7.1,0,0,1-1,1.33l0,0,0,.06a14.14,14.14,0,0,1,1.7,3.07,12.82,12.82,0,0,1,.48,1.33l.27.83h0c.07.25.15.5.22.75l0,0a21.75,21.75,0,0,1,.53,2.72h0c0,.37,0,.74,0,1.1V712c0,.11,0,.22,0,.36s0,.45,0,.72,0,.6,0,.88a25.81,25.81,0,0,0,3.54,4.32,17.6,17.6,0,0,0,7.83,4.79,13,13,0,0,0-2-9.42Z" style="fill: #fff"/>
    <path d="M580.75,578l.06-.12-.06.07Z"/>
    <path d="M706.42,706l-1.89-1.26c-.16-1.13-.35-2.24-.5-3.14-.35-1.8-.86-3.66-1.37-5.48.45-.48.91-1,1.37-1.43l2.39-2.78.44-.48a74,74,0,0,0-3.93-9.43h-1.49l-3.08.25-1.53-.12c-.17-.23-.34-.49-.52-.75a48.57,48.57,0,0,0-4.27-6.07c.47-2.43,1-4.86,1.42-7.28a54.41,54.41,0,0,0-6.88-6.48h0l-3.92,3.51-.7.49a14.72,14.72,0,0,1-2.23-1.35c-.35-.07-.68-.34-1-.41-1-.68-2.08-1.09-3.27-1.78l-.69-3c-.28-1.15-.57-2.3-.85-3.45-.07-.39-.13-.78-.2-1.17a30.72,30.72,0,0,0-4-1.13,31.51,31.51,0,0,0-3.91-.57l-.8,2.51c-.28,1-.57,2-.85,3.06-.18.46-.35.92-.53,1.39l-.67-.15c-1.37.13-2.91.25-4.45.55a8.13,8.13,0,0,1-.85.26c-.15,0-.15,0-.35.12-.69-1-1.37-2-2.06-3l-2.05-2.61-.41-.53a32.83,32.83,0,0,0-6.84,3.53c.2,1.26.4,2.52.59,3.78.11.68.21,1.35.32,2l.36,2.05c-.19,0-.19.18-.36.14,0,.19-.17.15-.32.34l-1,1.07c-.33.16-.5.56-.84.7-.19.37-.52.53-.68.92a4.52,4.52,0,0,0-.51.56,3.81,3.81,0,0,0-.86,1.09l-.69-.35-.52-.11-.83-.4-.18,0-1.2-.48-1-.68-1.63-.69a42.66,42.66,0,0,0-4,7.87l1.15,2.05,2.91,4.32a37.75,37.75,0,0,0-1.7,7.86l-1.2.18-2,.63-2.54.62c-.14,1.59-.2,3.21-.2,4.84,0,1.81.08,3.56.21,5.3l2.54,1.38,2,1.31,1,.66a71.29,71.29,0,0,0,1.71,8.42l-2.74,3.51-1.12,1.66a72.82,72.82,0,0,0,4,9.6l1.55-.12h1l1.2-.16.19,0,.83,0,.51-.07.53.11a.22.22,0,0,0,.17.22,5.88,5.88,0,0,0,.86,1.49,3.74,3.74,0,0,0,.51.76c.16.24.49.75.67,1a7.22,7.22,0,0,0,.85,1.26l1,1.53c.14,0,.32.27.32.27,0,.24.17.27.17.27-.06.35-.12.7-.17,1-.11.7-.21,1.39-.32,2.09l-.57,4.2a52.58,52.58,0,0,0,7,6.58l.28-.23,2-1.94,2.06-2s.19.28.35.32c.32.07.49.32.85.6,1.54,1,3.08,1.76,4.45,2.49l.67.15.53,1.85c.28,1.15.57,2.3.85,3.45.2.77.39,1.55.58,2.33a37.75,37.75,0,0,0,4.13,1.14,31.15,31.15,0,0,0,3.94.61c.09-.29.17-.58.26-.87.29-1,.57-2.06.86-3.09l.84-2.85a15.4,15.4,0,0,0,3.1-.21,8.56,8.56,0,0,1,1-.19,7.71,7.71,0,0,0,2.23-.62l.7,1,3.82,5.25a30,30,0,0,0,7-3.63c-.4-2.68-.81-5.36-1.21-8.05a46.73,46.73,0,0,0,4-3.95,1.92,1.92,0,0,1,.69-.7l1.36.47,3.08,1.52,1.41.74a45.46,45.46,0,0,0,4-7.88l-.43-.71c-.8-1.4-1.59-2.8-2.39-4.19l-1.2-1.73a47,47,0,0,0,1.2-4.55c.15-1,.34-2.07.5-3.37l1.89-.25,3.9-.65c.12-1.71.21-3.44.21-5.22s-.09-3.29-.21-4.93Zm-36.69,33c-14.82-3.18-26.81-21-26.81-39.76s12-31.33,26.81-28.15S696.56,692,696.56,710.7,684.55,742.14,669.73,739Z" style="fill: #002b5d"/>
    <path d="M549.35,681.29c.92,2.8,3,5.06,5.43,5.56s4.5-.91,5.43-3.32a6.25,6.25,0,0,1-5.43,1.23A9.49,9.49,0,0,1,549.35,681.29Z" style="fill: #002b5d"/>
    <path d="M588.9,694.1c.94,2.83,3,5.12,5.43,5.64s4.51-.88,5.43-3.3a6.2,6.2,0,0,1-5.43,1.18A9.48,9.48,0,0,1,588.9,694.1Z" style="fill: #002b5d"/>
    <path d="M543.54,684.64c.93,2.8,3,5.09,5.45,5.59s4.48-.94,5.43-3.37A6.23,6.23,0,0,1,549,688.1,9.61,9.61,0,0,1,543.54,684.64Z" style="fill: #002b5d"/>
    <path d="M594.5,700.3c.94,2.81,3,5.11,5.43,5.64s4.52-.88,5.44-3.29a6.31,6.31,0,0,1-5.44,1.18A9.77,9.77,0,0,1,594.5,700.3Z" style="fill: #002b5d"/>
    <path d="M542.23,569.9l0,.14V570Z"/>
    <path d="M572.33,535.29l-.16-.2-7.92-1.66c-.16-.8-.36-1.53-.5-2.42a49.82,49.82,0,0,1-.49-6.87,46.07,46.07,0,0,1,.33-5.6c.94-7.58,3.76-12.41,6.79-11.78,3.7.78,6.9,9.42,7.11,19.23l1.31.3c.06-1.08.1-2,.1-2.83,0-11.9-4.1-22.05-9.31-23.14-4.25-.89-7.3,2.17-8.59,8.42-1.28-6.78-4.34-11.12-8.59-12-5.21-1.07-9.31,7.38-9.31,19.29,0,.85,0,1.77.1,2.86l1.3.25c.23-9.72,3.41-17,7.12-16.28,3,.62,5.86,6.62,6.79,14.59a47.6,47.6,0,0,1,.33,5.75,45.84,45.84,0,0,1-.47,6.67c-.14.84-.36,1.47-.51,2.2l-7.9-1.63-.18.14q-5.46,3.95-10.91,7.91l-.28.21v4.87l.28.29,1.32,1.49v13.33l.26.33c.33.35.65.71,1,1.07l.75.86.18.17c-.09.42-.18.79-.25,1.21-.46,3.24-.34,6.19.26,7.66l0,.06a8.25,8.25,0,0,0,.81,1.66L541.38,573l-.53.4.4.75,3.16,6.09.38.72.51-.37,5.66-4.12a4.16,4.16,0,0,0,1.84.85,3.9,3.9,0,0,0,2-.33,5.7,5.7,0,0,0,4,3.2,3.25,3.25,0,0,0,2.72-.93,5.27,5.27,0,0,0,2.76,2.07,3.55,3.55,0,0,0,4-1.53,5,5,0,0,0,1.94,1.15,3.24,3.24,0,0,0,1-.06l5.3,6.07.53.6.39-.56,3.15-4.78c.13-.2.26-.4.4-.59l-.56-.61-1-1.17a4,4,0,0,0,1.31-1.83c.63-1.16.75-4.11.28-7.56-.1-.75-.24-1.45-.37-2.15l.09-.07s.54-.4.54-.4l.41-.25.26-.22V554l1.31-1,.26-.18V548c-.09-.11-.18-.21-.26-.32Z" style="fill: #002b5d"/>
    <path d="M569.47,538.32l-4.15-.87c1.18,3.52,2.75,6,4.42,6.81l-.27,1.55c-2.24-1.07-4.18-4.15-5.58-8.64-.09-.25-.18-.49-.25-.74s-.15-.69-.22-1a3.29,3.29,0,0,1-.1-.51c-.12-.55-.23-1.12-.36-1.74s-.32-1.33-.44-2.11a54.71,54.71,0,0,1-.51-7.16,47.92,47.92,0,0,1,.34-5.87c1.07-8.49,4.31-13.69,8.08-12.89,2.28.48,4.32,3,5.81,6.76-1.44-5.47-3.86-9.35-6.6-9.93-4.61-1-7.58,3.77-7.93,12.71l-1.32-.28c-.37-9.08-3.32-15.05-7.94-16-2.74-.56-5.16,2.32-6.59,7.2,1.46-3.16,3.53-4.83,5.78-4.36,3.77.77,7,7.3,8.08,16.24a47.67,47.67,0,0,1,.35,6,48.39,48.39,0,0,1-.51,6.95c-.11.75-.3,1.29-.45,1.93s-.22,1.1-.35,1.59c-.06.16-.08.34-.12.47-.08.32-.13.68-.21,1s-.19.41-.27.63c-1.38,3.89-3.33,6.18-5.52,6.34-.08-.56-.17-1.11-.26-1.67,1.65-.1,3.21-1.95,4.4-5l-4.14-.85-1.85,1.32-5.88,4.26q1.82,2,3.62,4.1l4.11,4.61q8.42,1.73,16.82,3.49l4.11-2.9,3.62-2.6-5.88-6.7Z" style="fill: #ccd4e9"/>
    <path d="M548.77,574.07c-.12.06-.28,0-.38.07a3.57,3.57,0,0,1-1.58.27,4.77,4.77,0,0,1-2.69-1.4l-1.46,1.07L545,578.7l4.7-3.4a7.09,7.09,0,0,1-.69-.89C549,574.27,548.85,574.2,548.77,574.07Z" style="fill: #ba9400"/>
    <path d="M576.23,580.51a5,5,0,0,1-1.68-1,1.39,1.39,0,0,1-.46,0,3.34,3.34,0,0,1-1.34,1.1c1.33,1.52,2.67,3,4,4.57.8-1.21,1.59-2.42,2.39-3.62l-.95-1.1A3.25,3.25,0,0,1,576.23,580.51Z" style="fill: #ba9400"/>
    <path d="M579.48,569.14c-.1-.63-.21-1.27-.35-1.81a21.06,21.06,0,0,0-.64-2.07,12.92,12.92,0,0,1-2,3.66,9.58,9.58,0,0,1-.93,1c-.29.29-.54.62-.84.88l-.81.67,0-.33-.19-1a23.24,23.24,0,0,0-1.1-4.45,13.37,13.37,0,0,1-2,3.67,15.75,15.75,0,0,1-1.79,1.85l-.83.65c-.07-.45-.15-.9-.22-1.35a21.43,21.43,0,0,0-1.14-4.44,12.38,12.38,0,0,1-2,3.63,8.76,8.76,0,0,1-1.14,1.2c-.22.19-.39.47-.61.64a2.43,2.43,0,0,0-.14.31l-.17,0a2.08,2.08,0,0,0-.43.45l-.5.63-.49-.84a6.16,6.16,0,0,0-.44-.63l-.19,0c0-.12-.09-.24-.13-.36-.22-.27-.41-.61-.61-.9-.38-.54-.79-1.06-1.15-1.67a20.17,20.17,0,0,1-2-4.48,15.92,15.92,0,0,0-1.14,4c-.07.42-.15.83-.22,1.25l-.83-1a25,25,0,0,1-1.77-2.58,21,21,0,0,1-2-4.5,15.89,15.89,0,0,0-1.13,4l-.24,1.25-.82-1a21.4,21.4,0,0,1-1.79-2.58,19.76,19.76,0,0,1-2-4.5,14.83,14.83,0,0,0-.83,2.56c-.1.5-.23,1-.33,1.66,0,.17-.06.31-.09.49-.47,3.07-.3,5.61.08,6.46l0,.08,0,0a6.14,6.14,0,0,0,.82,1.38,4.69,4.69,0,0,0,1.17,1.18,3.44,3.44,0,0,0,1.31.68h0a2.28,2.28,0,0,0,1.42-.39c.12-.07.29,0,.4-.12l.62-.48c.12.31.24.61.35.92a4.62,4.62,0,0,0,.27.4,4,4,0,0,0,2.54,2.32,1.8,1.8,0,0,0,.37.22,2.55,2.55,0,0,0,1.83-.54l.62-.48.36.95a4.39,4.39,0,0,0,3.16,3,2.6,2.6,0,0,0,2.34-1l.49-.66.53.85a4.33,4.33,0,0,0,2.33,2,2.66,2.66,0,0,0,3.17-1.62c.13-.27.25-.54.37-.8l.6.73c.13.18.31.18.47.32a3.92,3.92,0,0,0,1.37,1,3.53,3.53,0,0,0,1.17-.11c.18,0,.41,0,.58,0a3,3,0,0,0,1.24-1.29c0-.07.13-.09.16-.18.12-.26.25-.51.37-.76l.6.73c.08.08.18.1.24.17a4.11,4.11,0,0,0,1.52,1s.06.06.08.06c.17,0,.3-.07.46,0a2.47,2.47,0,0,0,1.58-.26,3,3,0,0,0,1.26-1.56v0l0-.07c.41-.68.57-3.16.09-6.41C579.67,570,579.55,569.56,579.48,569.14Z" style="fill: #e53138"/>
    <path d="M572.2,561q-11.16-2.35-22.31-4.63l-.18-.18-8.29-9.39V558.1l.7.78c.17.21.35.41.52.61a7.72,7.72,0,0,1,1.77-3.71l.84-.62c.06.44.13.89.19,1.33a16.45,16.45,0,0,0,2.13,5.37c.28.44.54.85.83,1.28.45-1.92,1.13-3.85,2-4.5l.85-.65c.07.45.13.9.19,1.35a16.42,16.42,0,0,0,2.13,5.35c.27.45.56.88.83,1.29.45-1.91,1.12-3.85,2-4.5l.86-.63.18,1.34a16.36,16.36,0,0,0,2.13,5.39,27.57,27.57,0,0,0,1.7,2.46l.06,0v0h0a2.84,2.84,0,0,0,.24.29.6.6,0,0,0,.23-.19l0,0,0,0a14.23,14.23,0,0,0,1.73-1.74,10.4,10.4,0,0,0,2.12-4.51l.21-1.25c.27.33.55.65.83,1a13.93,13.93,0,0,1,2,5.31c.29-.31.55-.61.83-.94a10.44,10.44,0,0,0,2.15-4.46l.18-1.28.83,1c.86,1,1.54,3.22,2,5.31.29-.31.57-.62.83-.93a10.56,10.56,0,0,0,2.13-4.48c.06-.42.13-.84.19-1.26l.84,1a11.37,11.37,0,0,1,1.57,3.67c.16-.14.3-.24.3-.24l.13-.08h0V555l-8.33,5.95Z" style="fill: #fff0d9"/>
    <path d="M564.63,535.15c0,.16.07.39.11.51l5.11,1.08.17.2,2,2.3,6.59,7.47.73.86-.73.52-4.33,3.07-4.3,3.07-.17.12q-8.83-1.86-17.67-3.67l-.16-.19-4.3-4.85-4.33-4.87c-.24-.27-.49-.54-.73-.82l.73-.56,6.61-4.73,2-1.46.16-.13,5.11,1a4.11,4.11,0,0,0,.11-.47l-7.11-1.46Q545,536,539.8,539.82V543l.29.33,1.3,1.45,8.9,10.07Q561,557,571.72,559.28l8.92-6.37,1.3-.92.28-.21h0v-3.16l-10.46-12Z" style="fill: #fff0d9"/>
    <path d="M644.68,476.1l-.11,0h0Z" style="fill: #002b5d"/>
    <path d="M672.09,510.57a2.77,2.77,0,0,0-1.38-1.54c0-1.13.06-2.19,0-3.18a7.51,7.51,0,0,0-1.36-3.71c-1-1.32-1.78-1.12-2.07-1s-.87.53-.8,1.93c0,8.27-1.53,14.13-4.93,18.26a8,8,0,0,0,.22-3,2.79,2.79,0,0,0-.88-2,32.08,32.08,0,0,0,1-5.07,8.15,8.15,0,0,0-.49-3.74c-.35-1-.75-1.36-1.08-1.48,0-1.16,0-2.25,0-3.25a8.53,8.53,0,0,0-1.05-3.58c-.77-1.31-1.47-1.09-1.7-.9s-.7.59-.61,1.9h0c0,13.15-3,20.45-10.13,24.6a5.29,5.29,0,0,1,.4-.47,1.73,1.73,0,0,0,.74-1.42,3.83,3.83,0,0,0-1-2.13,21.49,21.49,0,0,1-3.53-6.75,4.09,4.09,0,0,0-.44-1c0-.39,0-.76-.07-1.12a1.28,1.28,0,0,0,0-.22s0,0,0-.06c-.06-.57-.1-1.11-.19-1.62a29.93,29.93,0,0,0-12.92-19.72,9.47,9.47,0,0,1,1.08-1.66,21,21,0,0,0,9.89-1.94l.56-.27-.3-.77-1.71-4.38a12.92,12.92,0,0,1,4-1.95l0,0a12,12,0,0,1,1.54-.64c1.09-.45,1.55-.61,1.45-1.22a.85.85,0,0,0-.67-.68,1,1,0,0,0-1.16-.66l.11,0-.13,0h0a1.55,1.55,0,0,0-.79,0l-.49.08c-.69.11-1.69.29-1.91.08.14-2-.07-2.36-.16-2.51s-.29-.42-.58-.45-.38.27-.55.7a11.11,11.11,0,0,1-.86,1.72l.07-.07a4.07,4.07,0,0,0-1.28,2.15v.05l-.27-.65-.3-.77-.56.26s-.06,0-.07,0l-.15,0a14.84,14.84,0,0,1-1.75.67,15.55,15.55,0,0,1-3,.57.36.36,0,0,0-.23,0h-.18a10.79,10.79,0,0,1-1.23-.11c0-1.8.08-3.83.15-5.71,0-1,.07-1.87.09-2.76a3.94,3.94,0,0,0,3.84-2.77c1.06-3.2-.76-7.74-4.08-10.14a6.16,6.16,0,0,0-5.35-1.21,4,4,0,0,0-2.58,2.71,7.44,7.44,0,0,0,.11,4.63,12.19,12.19,0,0,0,.7,1.4h0c-2.48,2.46-5.49,6-6.64,7.43-.34-.36-.7-.64-1-1A30.19,30.19,0,0,1,611,464c-.13-.25-.26-.49-.4-.73l-.51.41-.71.5-.42.35a.61.61,0,0,1,0-.11,6.66,6.66,0,0,0-.73-3.11s0,0,0,.08l0-.11v0c-.24-1.1-.33-1.83-.41-2.34s-.11-.91-.37-1.14a.57.57,0,0,0-.64,0c-.14,0-.43.24-.75,2.36-.23.07-1.29-1-1.93-1.66l-.45-.52a3.29,3.29,0,0,0-.88-.68l.09.07c-.66-.56-.93-.62-1.29-.28-.27-.14-.66-.27-.81.1s.17,1.06,1.15,2.33c.43.62.93,1.25,1.37,1.95v0l0,0a36.33,36.33,0,0,1,3.27,4.78l-2,1.54-.51.39.39.73a44.77,44.77,0,0,0,8.66,11.32l1.17,1.37a4.84,4.84,0,0,1,1.34,3.23A1.22,1.22,0,0,1,615,486c-.28,0-.58,0-.87.08a16.38,16.38,0,0,0-13.64,10.24,19.75,19.75,0,0,0-1.49,7.7,24.3,24.3,0,0,0,.5,4.68h0l0,.14c-4.37-6.11-6.32-13.25-6.28-22.55a2.82,2.82,0,0,0-.79-2.27,1.44,1.44,0,0,0-2.1.1A5,5,0,0,0,589,487.3a30.77,30.77,0,0,0,0,3.18,1.51,1.51,0,0,0-1.4.95,5.92,5.92,0,0,0-.6,3.6,33.63,33.63,0,0,0,1.26,5.49s-.08.07-.12.08a41.1,41.1,0,0,1-3.07-16.83,3,3,0,0,0-.76-2.27,1.48,1.48,0,0,0-2.11.09,4.89,4.89,0,0,0-1.33,3.13,26.24,26.24,0,0,0,0,3.2c-.41,0-.93.14-1.4,1a5.87,5.87,0,0,0-.59,3.6,30.26,30.26,0,0,0,1.25,5.48c-.38.11-.87.48-1.08,1.61a7.57,7.57,0,0,0,.42,3.89c.28.6.58,1.25.94,1.94-.33.1-1,.52-1,2.12a7.39,7.39,0,0,0,1.18,3.75,27.14,27.14,0,0,0,2.92,3.52,2.61,2.61,0,0,0-.15,2.42,7.33,7.33,0,0,0,2.07,3.24,19.86,19.86,0,0,0,2.82,1.81.25.25,0,0,1-.07.12,2.94,2.94,0,0,0,.48,2.73,5.62,5.62,0,0,0,2.67,2.28c.25.07.48.12.7.16a3,3,0,0,0,1,2.5,4.37,4.37,0,0,0,2.88,1.33,2.8,2.8,0,0,0,1.41,2.28,3.58,3.58,0,0,0,3,.39,17,17,0,0,0,1.62-.87,3.63,3.63,0,0,0,2.11.81,2.84,2.84,0,0,0,1.13,2,65.67,65.67,0,0,1,.5,7.65,59.17,59.17,0,0,1-.7,9.17,10.41,10.41,0,0,0-4.11,1.15c-4,2-6.67,6.48-7.11,11.9,0,.19,0,.38,0,.56v0c0,.35,0,.75,0,1.12a23.28,23.28,0,0,0,7.19,16.69,16.79,16.79,0,0,0,7.71,4.26,11.35,11.35,0,0,0,6.85-.73c-.1.1-.23.24-.31.34l-.07.12v.15a7.62,7.62,0,0,1-.28,1.2,20.5,20.5,0,0,0-.56,2h0v0c0,1.06-.42,1.32-.51,1.35h0a.89.89,0,0,0-.91.56,1.1,1.1,0,0,0,0,.57,1,1,0,0,0,.39.79,2.47,2.47,0,0,0,2.51-.08s0,0,0,0c1.08-.07,1.69-1.35,2.2-2.55.3-.75.63-1.5,1-1.6l.07,0,.05-.07a.45.45,0,0,1,.22-.12c.14-.06.28-.2.43-.28a10.39,10.39,0,0,0,4.91,3.11c6,1.43,11.29-4.92,12.91-15.45a38.46,38.46,0,0,0,.53-6c0-.77,0-1.56,0-2.39a47.13,47.13,0,0,0-1.06-8.3c-.18-.59-.3-1.17-.41-1.72A25.5,25.5,0,0,1,636,555l0-.22c0-.31,0-.65,0-1a21,21,0,0,1,1.25-7,11.67,11.67,0,0,1,4.81-6.19,23.52,23.52,0,0,0,3,4,2.54,2.54,0,0,0,2.44.75,1.43,1.43,0,0,0,1-1.26,23.41,23.41,0,0,0,2.74,2.72,4.07,4.07,0,0,0,3,.92,1.65,1.65,0,0,0,1.41-1.65,3.22,3.22,0,0,0,2.87-.13,1.91,1.91,0,0,0,1-2,4.36,4.36,0,0,0,.68.11,3.2,3.2,0,0,0,2.71-1.1,2.52,2.52,0,0,0,.43-2.55s-.06-.1-.06-.09a12.8,12.8,0,0,0,2.84-.64,4,4,0,0,0,2.07-2.35,2.9,2.9,0,0,0-.15-2.46,16.45,16.45,0,0,0,2.92-2.3,5.21,5.21,0,0,0,1.19-3.23,2.9,2.9,0,0,0-1-2.57c.37-.56.68-1,1-1.53a6.29,6.29,0,0,0,.43-3.67,3,3,0,0,0-1.08-2.09,25.67,25.67,0,0,0,1.27-4.93A7.11,7.11,0,0,0,672.09,510.57Z" style="fill: #002b5d"/>
    <path d="M608.19,461.43s0-.05,0-.08v0Z" style="fill: #002b5d"/>
    <path d="M643.38,536.3v0a2,2,0,0,1-1.41-1,3.9,3.9,0,0,1,.16-3.6,5.55,5.55,0,0,1,1.33-1.66,19.8,19.8,0,0,0-.79-1.87.43.43,0,0,0-.15,0,1.83,1.83,0,0,1-1,.34,1.16,1.16,0,0,1-.18,0,2.37,2.37,0,0,1-1.62-.91c-.17-.19-.39-.3-.51-.57s-.32-.62-.49-1a15.7,15.7,0,0,1-3.33,3s0,0,0,0h0a14.88,14.88,0,0,1,1.48,7.73,8.92,8.92,0,0,1-3.09,5.79s.78-.62,0,.14a15.13,15.13,0,0,1-2.24,1.53c.48.14,3.06.82,3.51.92s.76.18,1.14.3a12.53,12.53,0,0,1,4.94-6.2c.32-.2.64-.43,1-.61a10.18,10.18,0,0,1,2.2-.58c-.25-.45-.5-.84-.71-1.25A2.14,2.14,0,0,0,643.38,536.3Z" style="fill: #cccdce"/>
    <path d="M635.07,531.73v0c-.16-.57-.41-1.16-.64-1.75,0,0,0,0-.06,0-.2.26-.42.5-.65.75a18.11,18.11,0,0,1-7.49,5.61l.35,1c.13.37.27.74.4,1.12s.35,1,.52,1.49c.11.32.22.63.32,1,.29.79.57,1.59.86,2.39a7,7,0,0,0,1.06-.39,7.2,7.2,0,0,0,1-.37,9.6,9.6,0,0,0,.89-.55,6.39,6.39,0,0,0,.92-.65s0-.06.08-.07a7.85,7.85,0,0,0,3-5.19,11.53,11.53,0,0,0-.32-3.9A4.83,4.83,0,0,1,635.07,531.73Z" style="fill: #cccdce"/>
    <path d="M630.65,528.39c-.09,0-.26-.07-.51-.14l0,0,0,0a2.69,2.69,0,0,0-.66-.19l-.56,0c-1.34-.18-2.26-.28-2.74-.87a1.43,1.43,0,0,1-.27-.77v-.16a12.85,12.85,0,0,0,.35-1.59,10,10,0,0,1-1.27,1.5l0,0h0a2.92,2.92,0,0,0-1.49,1.52,2.28,2.28,0,0,1-1.06,1.12c.05.5.1,1,.16,1.51a15.3,15.3,0,0,1,5.67-1.1h0c.65-.13,1.32-.15,1.88-.21a5.57,5.57,0,0,1,.79-.08l-.06-.27A1.3,1.3,0,0,0,630.65,528.39Z" style="fill: #fff0d9"/>
    <path d="M620.28,541.92s0,0,0,.07l0,0Z" style="fill: #ccd4e9"/>
    <path d="M610.84,511.35a16.64,16.64,0,0,1,.06,2.64,2.12,2.12,0,0,1-1.26,1.69,1,1,0,0,1-.75.16,8.86,8.86,0,0,0,.21,1.71,7.55,7.55,0,0,1,1.25.41l.13,0a2.5,2.5,0,0,0,.25.09l.25.12c.06.09.11.19.16.28a1.13,1.13,0,0,0,.16.26v0A22.76,22.76,0,0,0,614,521a3.31,3.31,0,0,1,.44.39,23.51,23.51,0,0,0,4.31,2.23l.19.08.25.05a12,12,0,0,0,2.13.63l.54.14c0,.24.06.48.08.72.09.86.18,1.73.26,2.59a1.77,1.77,0,0,0,.51-.7,3.67,3.67,0,0,1,1.72-1.76,8.74,8.74,0,0,0,1.24-1.52c.26-.35.43-.59.72-.53a1,1,0,0,1,.52.62c.09.18.24.59-.28,2.6.16.28,1.42.46,2.15.51l.58.08a2.37,2.37,0,0,1,.93.25l-.09,0c.73.18,1,.4,1.15,1a1,1,0,0,1,.58.88c0,.57-.52.64-1.78.77a13.34,13.34,0,0,0-1.83.21h-.07a15.5,15.5,0,0,0-5.69,1.18c.09.94.19,1.88.28,2.82l.09.91-.75-.11a26.09,26.09,0,0,1-5.59-1.76,72.93,72.93,0,0,1,1.72,13,8.63,8.63,0,0,1,.84-.78,4.64,4.64,0,0,1,1.37-.8.5.5,0,0,1-.54-.06c-.32-.31-.15-.81,0-1.11a1.3,1.3,0,0,1,.32-1.45,2,2,0,0,1,.59-.77l.43-.4c.54-.5,1.49-1.37,1.45-1.68-1.58-1.34-1.68-1.75-1.74-2a.91.91,0,0,1,.07-.76c.2-.24.46-.14.88,0a17.29,17.29,0,0,0,1.9.48,3,3,0,0,1,1.21,0l-.33-.91-.3-.88.67-.19c2.75-.71,5.77-3,8.25-6.21a1.72,1.72,0,0,0,.26-.32v-.06c-.45-.88-.91-1.8-1.32-2.77C628,519,619.84,513.59,610.84,511.35Z" style="fill: #ccd4e9"/>
    <path d="M606.4,508.26a6.6,6.6,0,0,1,1.24-3.52,1.63,1.63,0,0,0-.23-.11c-1-.63-2.37-1.38-3.57-1.11a2.55,2.55,0,0,0-1.79,1.83,8.48,8.48,0,0,0-.64,3.31,6.5,6.5,0,0,0,.22,1.67,9.36,9.36,0,0,0,.28.93,10.35,10.35,0,0,1,.43,2.12c.17.51-.34,2,.2,2.85l1.92,1.34c.49-.09,1-.14,1.44-.21.22,0,.47-.31.41-.5a7.9,7.9,0,0,0,.21-3.07,18.48,18.48,0,0,1-.23-3.23,14.78,14.78,0,0,1,0-1.64C606.35,508.69,606.37,508.48,606.4,508.26Z" style="fill: #ba9400"/>
    <path d="M609.28,509.36a.41.41,0,0,1,0-.07,14.27,14.27,0,0,1-.71-3,5.28,5.28,0,0,0-.94,2.87c-.05.54-.08,1.06-.08,1.64a21.64,21.64,0,0,0,.25,3,8.53,8.53,0,0,1,0,1c.06-.14.06-.36.16-.46a.58.58,0,0,1,.8-.06,1.1,1.1,0,0,0,.91-.71,13.78,13.78,0,0,0-.09-2.44A11.54,11.54,0,0,0,609.28,509.36Z" style="fill: #fff0d9"/>
    <path d="M606.65,519.09c.08,0,.62.62.68.64.58-.47.53-.36.6-1.05a6.12,6.12,0,0,0-.2-1.81A5.55,5.55,0,0,1,606.65,519.09Z" style="fill: #fff0d9"/>
    <path d="M625.44,537.94a2.85,2.85,0,0,0-1.44-.06h-.11a11.52,11.52,0,0,1-1.89-.48,11.81,11.81,0,0,0,1.17,1.05l.08.07,0,.06a1.49,1.49,0,0,1,.21.77c0,.79-.75,1.43-1.71,2.33l-.41.37a3.88,3.88,0,0,0-.46.54v.07h0a3.93,3.93,0,0,0-.32.47s.05.13.08.24l.11.21c.21-.14.47-.27.71-.4.48-.3,1-.63,1.64-.92h0a15.58,15.58,0,0,1,3.27-1.75C626,539.67,625.73,538.81,625.44,537.94Z" style="fill: #fff0d9"/>
    <path d="M623.54,543.15h0q-.88.45-1.62.9a4.21,4.21,0,0,1-.8.38,7.14,7.14,0,0,1,1.21-.46,4.13,4.13,0,0,1,1.46-.12c.07,0,.13,0,.21,0,.31,0,.66.09,1,.17a17.38,17.38,0,0,0,2.48-.32l-.78-2.21A13.74,13.74,0,0,0,623.54,543.15Z" style="fill: #ccd4e9"/>
    <path d="M638.8,522.71a12.35,12.35,0,0,1-.43-2.05,2.22,2.22,0,0,0-.22-.45,4.68,4.68,0,0,0-1.86-1.46c.06.13.08.27.16.43a12.39,12.39,0,0,1,.8,2.13.38.38,0,0,1,0,.13c.18.52.25.73.52.95a2.22,2.22,0,0,1,.47.58c.12.14.23.27.32.39s.43.49.64.8c-.14-.41-.26-.8-.36-1.16A1.43,1.43,0,0,1,638.8,522.71Z" style="fill: #fff0d9"/>
    <path d="M639.48,524.78l.07-.07c-.11-.17-.18-.31-.29-.49C639.34,524.42,639.41,524.58,639.48,524.78Z" style="fill: #fff0d9"/>
    <path d="M639.24,524.16v0l0,0s0,0,0-.05Z" style="fill: #fff0d9"/>
    <path d="M644.76,539.6A6.9,6.9,0,0,0,643,540a19.92,19.92,0,0,0,2.54,3.23,1.69,1.69,0,0,0,1.59.45c.49-.13.53-.53.12-.87A40.1,40.1,0,0,1,644.76,539.6Z" style="fill: #cccdce"/>
    <path d="M671,511.22c-.36-.75-.66-.78-.74-.08a34.62,34.62,0,0,1-3.13,9.26c0-.67,2.56-10.24,2.27-14.76a5.36,5.36,0,0,0-.92-2.49c-.48-.62-.79-.57-.7.19a43.86,43.86,0,0,1-1.22,11.33,20.08,20.08,0,0,1-5.46,9.59,19,19,0,0,1-4.19,3,28.06,28.06,0,0,1-5.5,2.3c-1.48.39-4.24,0-6.31,1.21a4.43,4.43,0,0,0-1,1c-.29.31-.63.47-.86.9,0,.09-1.08,2.3.57,1.82,0,0,.09,0,.14,0,.23.52.46,1,.69,1.48.13.24.28.49.41.72.23.41.43.81.66,1.22s.39.71.6,1.06a4.11,4.11,0,0,1,.27.35c.59.9,1.23,1.75,1.88,2.58a21.76,21.76,0,0,0,1.57,1.75,22.62,22.62,0,0,0,1.76,1.77,2.79,2.79,0,0,0,2,.55c.62-.12.67-.49.12-.92-.92-.85-1.68-1.79-2.51-2.71-.3-.32-.63-.64-.93-1s-.41-.42-.61-.65a4.49,4.49,0,0,0-.41-.46c.14.06,1,.71,2.06,1.44a35.79,35.79,0,0,0,4.28,2.73,2.51,2.51,0,0,0,2-.07c.54-.34.51-.77-.07-1a37.57,37.57,0,0,1-3.42-2.17c.53,0,4.37.91,5.8,1.08a2.37,2.37,0,0,0,1.8-.77c.44-.54.33-.92-.28-.93-.93-.2-1.8-.46-2.68-.72.59-.37,5.08-1.37,6.61-2a2.59,2.59,0,0,0,1.38-1.58c.27-.7,0-1.08-.47-.8a30,30,0,0,1-3.57.61c.34-.45,5.4-3.3,7.13-5a3.94,3.94,0,0,0,.79-2.22c0-.8-.25-1.08-.65-.58a25.06,25.06,0,0,1-4.81,3.28c.2-.58,4.36-5.19,5.62-7.57a4.58,4.58,0,0,0,.27-2.51c-.14-.79-.45-1-.72-.36a30.41,30.41,0,0,1-3.76,5c.1-.63,4.07-8.31,4.67-12.24A5.67,5.67,0,0,0,671,511.22Z" style="fill: #cccdce"/>
    <path d="M660.56,508.16c-.29-.74-.54-.76-.58,0a44.64,44.64,0,0,1-2.46,9.38c0-.65,2-10.35,1.79-14.85a6.16,6.16,0,0,0-.74-2.46c-.37-.64-.6-.52-.53.22a57.67,57.67,0,0,1-1,11.37c-1.46,7.16-4.85,12-10.76,15a2.17,2.17,0,0,1-.91,1.32,2.89,2.89,0,0,1-1.12.29c.1.26.17.58.27.85a11.57,11.57,0,0,1,4.67-1.09,12.37,12.37,0,0,0,1.7-.17,23.36,23.36,0,0,0,8.05-4.09,20,20,0,0,0,1.55-3,5.51,5.51,0,0,0,.23-2.49c-.11-.85-.35-1-.56-.37a34.44,34.44,0,0,1-3,5.13c.08-.67,3.2-8.5,3.66-12.45A6.67,6.67,0,0,0,660.56,508.16Z" style="fill: #cccdce"/>
    <path d="M646.12,521.83a25,25,0,0,1-3.31-6.12,14.59,14.59,0,0,1-.55-1.42,3.17,3.17,0,0,0-.53-.91,6.48,6.48,0,0,0-2.41-2,1.67,1.67,0,0,0-2.28.52c-.94,1.51-1.78,3.53-1.7,4.39a.66.66,0,0,1,0,.2s0,.06.18.11c.43.19.79.42,1.14.58.05.07.09.07.13.1,1.72,1,2.7,2.09,2.86,3.38,0,.23.09.53.15.79a.28.28,0,0,1,0,.11,1.61,1.61,0,0,1,.07.37c.13.51.29,1,.46,1.61a7.2,7.2,0,0,0,1.16,2.33,4.69,4.69,0,0,0,.45.21,3.75,3.75,0,0,0,.49.23,3.08,3.08,0,0,0,.84.28h0a2.1,2.1,0,0,0,1.41,0,1,1,0,0,0,.44-.86c0-.05,0-.06,0-.08a3.14,3.14,0,0,1,1.17-2.67,3.93,3.93,0,0,1,.28-.34A3,3,0,0,0,646.12,521.83Z" style="fill: #ba9400"/>
    <path d="M629.44,491.78s0-.06-.06-.08c0,.15,0,.31,0,.48-.15,1.18-.25,2.4-.36,3.62v.51c-.09,1.33-.14,2.66-.14,4a64.32,64.32,0,0,0,4.5,24.5,17,17,0,0,1,1.19,2.16c.05.11.13.21.18.32A15.07,15.07,0,0,0,637.4,525a3.7,3.7,0,0,0,.42-.48.55.55,0,0,0-.14-.17,4.21,4.21,0,0,0-.47-.58,3.49,3.49,0,0,1-.55-.73,4.68,4.68,0,0,1-.6-1.35,10.14,10.14,0,0,0-.69-1.78,4.32,4.32,0,0,1-.42-2.11,2,2,0,0,1-.79-.93c-.65-2,1.24-5.18,1.8-6.12a2.67,2.67,0,0,1,3.57-.91,7.12,7.12,0,0,1,2.09,1.47c-.06-.45-.1-.87-.16-1.28A27.6,27.6,0,0,0,629.44,491.78Z" style="fill: #ccd4e9"/>
    <path d="M645.15,477a1.65,1.65,0,0,0-.47,0h-.07a1.48,1.48,0,0,0-.58,0l-.5.1c-1.18.18-2,.35-2.52-.11a1.46,1.46,0,0,1-.36-.67l0-.07v-.1c.05-.65.05-1.1.05-1.44a13,13,0,0,1-.81,1.66l0,0,0,0a3.16,3.16,0,0,0-1.08,1.75,2.52,2.52,0,0,1-.3.8l.53,1.32a14.93,14.93,0,0,1,4.09-2l0,0a15.79,15.79,0,0,1,1.59-.68c.21-.11.45-.19.63-.29l0-.16A1,1,0,0,0,645.15,477Z" style="fill: #fff0d9"/>
    <path d="M629.85,457.85a5,5,0,0,0-4.4-1,3,3,0,0,0-1.9,2,5.81,5.81,0,0,0,.11,3.41c.06.2.21.36.3.58a4.15,4.15,0,0,1,2.27-1.79,2.7,2.7,0,0,1,2.2.48c.06,0,.13,0,.17.09h.06s0,0,0,0a4.07,4.07,0,0,1,.73.88,3.16,3.16,0,0,1,.28.45,7.51,7.51,0,0,1,.52,1.27s0,0,0,0v.14a7.9,7.9,0,0,1,.33,1.87,9.6,9.6,0,0,1,0,1.52,2.87,2.87,0,0,0,2.62-2.08C634,463.26,632.5,459.74,629.85,457.85Z" style="fill: #0076bd"/>
    <path d="M628,472.35a9.37,9.37,0,0,0-1.7,3.21,13.69,13.69,0,0,0-.21,1.69c.34.09.67.22,1,.29a13,13,0,0,0,1.94.15c0-1.85.08-4,.14-5.94,0-.22,0-.42,0-.64l-.39.3A5.84,5.84,0,0,1,628,472.35Z" style="fill: #ba9400"/>
    <path d="M628.22,463.06c-.06-.06-.08-.13-.14-.18a1.47,1.47,0,0,0-1.42-.32,3.45,3.45,0,0,0-1.94,1.68,4.82,4.82,0,0,0-.61,1s0,.05,0,.05a2.21,2.21,0,0,0-.06.32,12.4,12.4,0,0,0-.39,1.57,10.58,10.58,0,0,0,0,1.38,8.65,8.65,0,0,0,.08,1.15,3.23,3.23,0,0,0,.93,1.61,1.61,1.61,0,0,0,1.43.33,2.4,2.4,0,0,0,1.13-.73,10.16,10.16,0,0,0,1.35-1.84.39.39,0,0,1,.08-.1,10.15,10.15,0,0,0,.3-1.35,6.81,6.81,0,0,0,.08-3.1A3.59,3.59,0,0,0,628.22,463.06Z" style="fill: #fff0d9"/>
    <path d="M629.23,470.89v-.11l-.05.08Z"/>
    <path d="M624.09,472.65a5.75,5.75,0,0,1-.89-1.07,13.82,13.82,0,0,1-.32,1.68,10.66,10.66,0,0,1-1.09,2.19,20,20,0,0,0,3.29,1.47,13.48,13.48,0,0,1,.26-2,10.53,10.53,0,0,1,.74-1.66A2.87,2.87,0,0,1,624.09,472.65Z" style="fill: #fff0d9"/>
    <path d="M617.66,472.48a25,25,0,0,0,3.09,2.35,9.64,9.64,0,0,0,1.18-2.21,12.44,12.44,0,0,0,.45-4.62c0-.27-.08-.52-.08-.84C620.56,469.07,618.85,471.09,617.66,472.48Z" style="fill: #ba9400"/>
    <path d="M607.52,461.67l0-.07,0,0a21.58,21.58,0,0,1-.44-2.45,11.58,11.58,0,0,0-.31,1.6l0,.06-.05.08a.55.55,0,0,1-.49.31c-.59,0-1.41-.78-2.49-1.94l-.48-.46a4.37,4.37,0,0,0-.58-.54h-.11a2.6,2.6,0,0,0-.47-.36.6.6,0,0,0-.13.14l-.14.14c.19.28.4.56.61.84.45.58,1,1.26,1.41,2l0-.06a34.65,34.65,0,0,1,3.42,4.95l.65-.5.37-.27c0-.26-.05-.5-.05-.79A5.61,5.61,0,0,0,607.52,461.67Z" style="fill: #fff0d9"/>
    <path d="M628.32,490.16l0-.32.09-.09s0-.05,0-.05a10.89,10.89,0,0,1,1.7-2.71l.16-.2.23,0a23.45,23.45,0,0,0,9.08-1.54c-.31-.81-.79-2.08-1.26-3.29-.11-.33-.23-.66-.35-.95-.19-.5-.34-.85-.51-1.24a10.12,10.12,0,0,0-.41-1c-.06-.16-.18-.42-.18-.41a14.66,14.66,0,0,1-1.49.52,16.21,16.21,0,0,1-3.18.59l-.13,0c-.12,0-.19,0-.27,0a13.26,13.26,0,0,1-1.51-.11c-.42,0-.84-.07-1.27-.11a14.33,14.33,0,0,1-1.94-.15,10.93,10.93,0,0,1-1.19-.38,9.83,9.83,0,0,1-1.06-.33c-.45-.15-.9-.28-1.35-.48a21.68,21.68,0,0,1-2.45-1.24c-.13-.08-.26-.13-.38-.2a4.14,4.14,0,0,1-.63-.43,25.66,25.66,0,0,1-2.94-2.24,17.75,17.75,0,0,1-1.33-1.28c-.34-.34-.73-.66-1.07-1a40.78,40.78,0,0,1-4.41-6.1.9.9,0,0,1-.17.15l-.7.56-.65.46-.2.16s-.31.25-.69.52c-.19.16-.39.27-.6.46-.63.47-1.3,1-1.46,1.13a41.58,41.58,0,0,0,7.93,10.09.32.32,0,0,0,.06.07l0,0,1.16,1.38a6.86,6.86,0,0,1,1.87,4.82,2.55,2.55,0,0,1-1.37,2.31l-.06,0h-.1a5.88,5.88,0,0,0-.92.1,15.33,15.33,0,0,0-12.82,9.51,17.32,17.32,0,0,0-1.28,7,13.21,13.21,0,0,0,.18,1.51,11.71,11.71,0,0,1,.36-1.41,3.62,3.62,0,0,1,2.57-2.56c2.57-.57,5.68,2.19,5.81,2.32l.41.36c0,.26,0,.52.08.79a23.89,23.89,0,0,0,.63,3.18,4.58,4.58,0,0,1,.33,1.19,39.67,39.67,0,0,1,20.09,11.68,64.28,64.28,0,0,1-2.26-9.65c0-.25-.09-.5-.13-.76-.1-.59-.17-1.18-.24-1.8a12.57,12.57,0,0,1-.15-1.39c0-.5-.11-1-.15-1.54s-.08-1.23-.13-1.86c0-.41,0-.78-.07-1.19,0-1.06-.07-2.11-.07-3.17,0-.8,0-1.66,0-2.45a69.78,69.78,0,0,1,.61-7.09l-.07.32.09-.57Z" style="fill: #ccd4e9"/>
    <path d="M601.09,513.43c-.17-.43-.41-.87-.57-1.34a33.64,33.64,0,0,1-7.39-14.22A51.3,51.3,0,0,1,591.91,486c.1-.71-.22-.92-.7-.48a3.57,3.57,0,0,0-.94,2.09c-.26,4.42,2.29,15.08,2.29,15.74a54.84,54.84,0,0,1-3.14-10.59c-.06-.75-.39-.87-.74-.24a4.33,4.33,0,0,0-.44,2.4c.45,3.24,2.87,9.47,4.06,12.52a43.15,43.15,0,0,0,8.3,7.9l.7.37a6.88,6.88,0,0,1-.18-1.91C601.13,513.67,601.09,513.56,601.09,513.43Z" style="fill: #cccdce"/>
    <path d="M603.51,532.17c.11,0,.25.08.36.09a7.15,7.15,0,0,0,.78-.12c-.07-.28-.1-.61-.15-.92A9.81,9.81,0,0,1,603.51,532.17Z" style="fill: #cccdce"/>
    <path d="M608.3,523.42a9.47,9.47,0,0,0-3.71-4.15c-.3-.2-.62-.37-.92-.55a130.25,130.25,0,0,0-1.82-1,17.1,17.1,0,0,1-1.74-1,39.63,39.63,0,0,1-11.72-13c-.37-.67-.81-1.32-1.14-2A36,36,0,0,1,585,495.3a50.71,50.71,0,0,1-1.22-11.86c.08-.71-.22-.94-.71-.51a3.53,3.53,0,0,0-.92,2.11c-.29,4.39,2.28,15.07,2.28,15.74a53.89,53.89,0,0,1-3.15-10.6c0-.75-.38-.84-.72-.22a4.38,4.38,0,0,0-.44,2.41c.58,4.22,4.57,13.62,4.66,14.28a60.51,60.51,0,0,1-3.76-6.58c-.25-.73-.58-.69-.72.07a5.44,5.44,0,0,0,.29,2.64c1.23,2.92,5.38,9.26,5.6,10a49.08,49.08,0,0,1-4.81-5.37c-.38-.65-.67-.49-.64.32a5.51,5.51,0,0,0,.79,2.54c1.74,2.51,6.79,7.53,7.13,8.11-1.15-.62-2.33-1.33-3.57-2.15-.5-.48-.73-.2-.49.6A4.84,4.84,0,0,0,586,519c1.56,1.24,6,4.17,6.63,4.78-.87-.1-1.76-.26-2.7-.46-.57-.2-.71.14-.26.82a3.78,3.78,0,0,0,1.81,1.55c1.12.38,3.71.9,5,1.23a6,6,0,0,1,.75.22c-.18,0-.39.06-.57.11a17,17,0,0,1-2.84.57c-.59,0-.63.38-.06.92a3.09,3.09,0,0,0,2,.92,16.08,16.08,0,0,0,2.61-.44c.91-.19,1.75-.42,2.46-.62a12.5,12.5,0,0,1,1.27-.33c-.21.18-.5.3-.72.47-.57.4-1.21.77-1.83,1.17a20.64,20.64,0,0,1-1.93,1.25c-.56.17-.49.58.12,1a2.63,2.63,0,0,0,2,.29,48.82,48.82,0,0,1,2-1.17,11.86,11.86,0,0,0,1.56-1.13c.26-.23.51-.48.78-.76s.65-.56,1-.89a.63.63,0,0,0,.12-.11c.19-.27.39-.52.59-.81.35-.46.75-.95,1.08-1.48.22-.37.47-.76.67-1.15a.74.74,0,0,0,.17.12c1,.72,1,.06.83-.63A8.32,8.32,0,0,0,608.3,523.42Z" style="fill: #cccdce"/>
    <path d="M595.15,565.61a3.62,3.62,0,0,0,.41.27c.06,0,.14.1.23.14a3.56,3.56,0,0,0,.87.29c2.66.57,5.19-2.16,7-7.58a31.55,31.55,0,0,0,1.08-4.31,10.73,10.73,0,0,0-3.15,1C598,557.18,595.7,561,595.15,565.61Z" style="fill: #cccdce"/>
    <path d="M621.46,533.05c-.05-.43-.09-.87-.13-1.3s-.07-.69-.11-1l-.17-1.7c0-.32-.07-.65-.11-1v0h0c-.08-.76-.15-1.52-.23-2.28-.61-.16-1.18-.32-1.73-.49a.41.41,0,0,0-.14-.08l-.27-.08c-.58-.22-1.12-.61-1.67-.88a20.55,20.55,0,0,1-2.94-1.53,27.37,27.37,0,0,1-3.46-2.81l-.08-.07-.08-.15s0-.08-.07-.13l-.09,0a9.5,9.5,0,0,0-1-.31,2.11,2.11,0,0,1-.46.92,1.42,1.42,0,0,1-.75.36,10.65,10.65,0,0,1,1.39,2.29,5.26,5.26,0,0,1,.24.74,4.8,4.8,0,0,1,.25,2,1.75,1.75,0,0,1-.34.93,1.23,1.23,0,0,1-1.4.39v0a1.66,1.66,0,0,0-.21.31,19.54,19.54,0,0,1-1.77,2.43c-.18.23-.41.36-.57.57.11.56.2,1.15.29,1.71s.16,1,.23,1.53.14.92.21,1.39c.08.62.21,1.12.26,1.73a68.79,68.79,0,0,1,.41,7.26,61.52,61.52,0,0,1-.61,8.8h0l-.2,1.15a39,39,0,0,1-1.38,5.83c-1.94,6-4.92,9.07-8.16,8.37a5.3,5.3,0,0,1-.78-.24s-.13-.08-.22-.1-.37-.19-.57-.3l-.06,0h0v.44a21.07,21.07,0,0,0,6.53,15.11,15,15,0,0,0,7.06,3.88,10,10,0,0,0,7.7-1.26,41.67,41.67,0,0,1-4.53-20.08,36.6,36.6,0,0,1,2.35-12.95,1.68,1.68,0,0,1,.07-.24c.17-.42.38-.74.58-1.14a20.22,20.22,0,0,1,2.35-3.7A69.68,69.68,0,0,0,615.08,532c-.12-.47-.25-1-.37-1.43l1.15.54A24.27,24.27,0,0,0,621.46,533.05Z" style="fill: #cccdce"/>
    <path d="M615.79,588.72a7.12,7.12,0,0,1-.27,1.27c-.16.54-.53,1.87-.53,1.87v0c0,1.48-.71,2-1.15,2s-.38.11-.38.12v0a2.09,2.09,0,0,0,1.74-.11l.08-.1h.13c.79,0,1.3-1.16,1.77-2.21a3.55,3.55,0,0,1,1.25-1.93s0,0,.05,0a1.8,1.8,0,0,1,.34-.21s0,0,.08,0a21.26,21.26,0,0,1-1.49-2A3.67,3.67,0,0,0,615.79,588.72Z" style="fill: #fff0d9"/>
    <path d="M635.65,561.38c-.17-.61-.32-1.19-.45-1.83a28.34,28.34,0,0,1-.57-4.82v-.22c0-.34,0-.66,0-1a22.76,22.76,0,0,1,1-6.61c-.11,0-.17-.07-.27-.09a27.84,27.84,0,0,0-6.86-1.38l-.33,0h-.37v0a12.82,12.82,0,0,1-2.61.32l-.08,0h0a4.37,4.37,0,0,0-1-.14h-.2a5.65,5.65,0,0,0-1.21.1,6.75,6.75,0,0,0-2.76,1.24,9.11,9.11,0,0,0-1.51,1.42,15.5,15.5,0,0,0-1.22,1.57,23.29,23.29,0,0,0-1.48,2.77c-.08.24-.23.51-.31.74a6.44,6.44,0,0,0-.25.66,35.63,35.63,0,0,0-2.09,11.81,39.59,39.59,0,0,0,4.27,19c.25.47.51,1,.79,1.47l.06,0a14.48,14.48,0,0,0,1.87,2.38,9.06,9.06,0,0,0,4.47,2.91c5.34,1.28,10.11-4.63,11.63-14.38a46.77,46.77,0,0,0,.48-5.77c0-.72,0-1.45,0-2.3A44.12,44.12,0,0,0,635.65,561.38Z" style="fill: #cccdce"/>
    <path d="M677.6,600.26c-1.41.3-2.45,1-2.32,1.53s1.39.73,2.81.42,2.45-1,2.31-1.53S679,600,677.6,600.26Z" style="fill: #002b5d"/>
    <path d="M648.27,585l.21,0-.13-.07Z"/>
    <path d="M577.56,691.7c.93,2.8,3,5.11,5.43,5.63s4.5-.91,5.44-3.32a6.21,6.21,0,0,1-5.44,1.2A9.53,9.53,0,0,1,577.56,691.7Z" style="fill: #002b5d"/>
    <path d="M583.16,697.87c.93,2.81,3,5.11,5.44,5.63s4.49-.89,5.43-3.3a6.37,6.37,0,0,1-5.43,1.19A9.87,9.87,0,0,1,583.16,697.87Z" style="fill: #002b5d"/>
    <path d="M583.37,688.4c.92,2.81,3,5.09,5.41,5.61s4.51-.85,5.44-3.28a6.22,6.22,0,0,1-5.44,1.19A9.55,9.55,0,0,1,583.37,688.4Z" style="fill: #002b5d"/>
    <path d="M571.83,695.47c.93,2.8,3,5.1,5.42,5.61s4.5-.9,5.45-3.31a6.37,6.37,0,0,1-5.45,1.2A9.7,9.7,0,0,1,571.83,695.47Z" style="fill: #002b5d"/>
    <path d="M560.48,693.09c.94,2.81,3,5.09,5.43,5.6s4.51-.91,5.44-3.32a6.38,6.38,0,0,1-5.44,1.21A9.77,9.77,0,0,1,560.48,693.09Z" style="fill: #002b5d"/>
    <path d="M549.15,690.76c.94,2.8,3,5.08,5.44,5.58s4.5-.93,5.43-3.34a6.34,6.34,0,0,1-5.43,1.23A9.77,9.77,0,0,1,549.15,690.76Z" style="fill: #002b5d"/>
    <path d="M560.69,683.63c.94,2.8,3,5.07,5.42,5.57s4.5-.89,5.44-3.3a6.2,6.2,0,0,1-5.44,1.21A9.47,9.47,0,0,1,560.69,683.63Z" style="fill: #002b5d"/>
    <path d="M554.9,687c.91,2.79,3,5.1,5.41,5.59s4.52-.92,5.44-3.34a6.26,6.26,0,0,1-5.44,1.22A9.36,9.36,0,0,1,554.9,687Z" style="fill: #002b5d"/>
    <path d="M572,686c1,2.81,3,5.09,5.43,5.6a4.72,4.72,0,0,0,5.44-3.29,6.22,6.22,0,0,1-5.44,1.2A9.58,9.58,0,0,1,572,686Z" style="fill: #002b5d"/>
    <path d="M566.2,689.3c.95,2.81,3,5.11,5.44,5.62s4.51-.91,5.44-3.32a6.25,6.25,0,0,1-5.44,1.2A9.51,9.51,0,0,1,566.2,689.3Z" style="fill: #002b5d"/>
    <path d="M822.56,277.34c6.18-5.06,10-9.37-3.48-6.37.16-6.31-1.85-12.27-2.84-10.74-.83,9.58-3.83,17.83-17.83,13.56,8,3.57,12.84,13.56,7.33,21.38,2.66,2.52,8.17-1.52,5.83-6.29,3.19,5.14,19,13,7.86,1.54-1.36-1.66,8.65,1.62,9,.18C824.91,281.92,814.92,280.73,822.56,277.34Z" style="fill: #002b5d"/>
    <path d="M425.78,185.93c-1.17-1.81-3.16,3.63-2.82,10-13.66-6.51-9.68-1.16-3.66,5.44,7.65,5.38-2.19,4-5.68,11.8.32,1.48,10.34.8,9,2.12-11.33,8.53,4.67,4.79,7.67.56-2.34,4.12,3.17,9.69,5.83,7.94-5.5-9.39-.67-18,7.34-19.23C429.44,204.68,426.61,195.77,425.78,185.93Z" style="fill: #002b5d"/>
    <path d="M437.3,437.59c-.51-1.13-.18-.43-.83-1.36-6.51,34.9-25.18,50.57-26.67,80.16C429.47,499.5,435,460.51,437.3,437.59Z" style="fill: #002b5d"/>
    <path d="M435.13,460.29c-1.66,9.67,9.66,16.08,11.84,5.87C442,469.45,436.62,465.33,435.13,460.29Z" style="fill: #002b5d"/>
    <path d="M446.79,484.07c-1.66,1.66-3.66,2.23-7,2.17,4.81,17.1-13.85,32.68-19.67,55.18C426.29,538.26,457.3,510,446.79,484.07Z" style="fill: #002b5d"/>
    <path d="M432.3,476.16c5.34,12.51,17.33,7,15.15-5.7C443.13,477.21,439.13,479.58,432.3,476.16Z" style="fill: #002b5d"/>
    <path d="M446.29,703.52c3.51-11.7-.33-27.26-10.33-27.39,3,12.9-5.34,19.9-19.48,7.68,13.65,18.16,41.65,49.45,49.81,22.59C459.64,707.87,459.47,699.38,446.29,703.52Z" style="fill: #002b5d"/>
    <path d="M449.44,469.47c3.18,16.29,20.17,15.77,17.18-1.55C462.63,477.37,454,475.62,449.44,469.47Z" style="fill: #002b5d"/>
    <path d="M418.31,689.47c1.33,3.73,23.65,34.26,9.16,45.25,1.17,1.62,8,4.61,11.81-.76C448.28,718.53,423.63,696.61,418.31,689.47Z" style="fill: #002b5d"/>
    <path d="M455.29,488.26C449,541.64,402.13,610,408.8,642.4,411.12,595,468.28,537.41,455.29,488.26Z" style="fill: #002b5d"/>
    <path d="M425.5,316.34c0-.6-.05-1.22-.05-1.79A5.76,5.76,0,0,0,425.5,316.34Z" style="fill: #cccdce"/>
    <path d="M425.32,281.65C423.47,288,409.48,373.09,383,364.4c.52,4.91,3.67,9.62,7.17,9.53C410.81,375.89,421.46,318.08,425.32,281.65Z" style="fill: #cccdce"/>
    <path d="M424.12,308.27c-1.65,31.34-25.82,87.87-28.3,87.72C412,398.45,420.44,350.2,421,350.45c-2.66,17.82-5.32,32.68-10,49.45,6.51-.31,9.17-12.19,9.67-13.6,4.68,7.55-1.49,30.13-14.35,28.49,10.53,14.62,20.36-12.36,17.84-13.54,6.18,2.93,4.86,19.38-5,24.08,5.16,7.57,10.33,3.41,13.32-2.94a36.9,36.9,0,0,0,1.36-6.26c-.56,15,1.91,20,14.81,32.55.51-18.48-13.18-30.79-20.66-71.81C423.3,356.24,424,324.92,424.12,308.27Z" style="fill: #cccdce"/>
    <path d="M444.8,423.88c1.68,1.07,3.34.25,4-1.76-1.16-5.42-1.33-5-1.83-13.33,2,6.47,6.19,6.92,6.95,7.21-1.75-9.5-26.62-52.53-28.6-81.64C425.13,343.63,426.46,387.57,444.8,423.88Z" style="fill: #cccdce"/>
    <path d="M432.33,288c4.54,20.24,20.67,37.82,31.13,36.25-1.33-8.52-6-18.41-14.53-20.73a8.55,8.55,0,0,1-3.12-.5,13.74,13.74,0,0,1,3.12.5c8-.14,12.59-12.38,4.87-17.86.32,8-11,12.27-15.33,6.42-9.49-13.31,3.33-31,9.48-38.72-15,.35-23.32,28.69-21.14,49A121.48,121.48,0,0,0,449,361c2,1.36,5,3.49,7.31,2.36-1.25-15.16-22.8-30.77-27.12-65.05,2.31,10.69,11.93,30.85,17.45,30.94.85-.3,0-3.17,3.34-1,3.33,1.12,11.81,7.28,13.86-2.11C449.85,326.08,436.58,310.41,432.33,288Z" style="fill: #cccdce"/>
    <path d="M425.5,316.34c.7,25.31,12.36,66.76,22.95,72.21,4.51,3.2,8,1,7.83-2.2C441.23,382.88,426.77,327.05,425.5,316.34Z" style="fill: #cccdce"/>
    <path d="M445.81,303a8.55,8.55,0,0,0,3.12.5A13.74,13.74,0,0,0,445.81,303Z" style="fill: #cccdce"/>
    <path d="M602.43,309.74l-1.45-.49c-2.51-.88-7.65,1.66-13,9.34-.82,1.21-1.61,2.45-2.35,3.74-6.07,10.72-7.35,21.45-4.69,24.39l0,0,0,.05.16.2a194.13,194.13,0,0,1,17.3,22.67c5.8-4.78,13.74-9.33,22.53-13a103.92,103.92,0,0,1,17.32-5.5c.44-.09.89-.17,1.28-.26l.33-.06c3.55-1,7.5-3.87,10.79-8,.58-.75,1.1-1.53,1.62-2.31a190.75,190.75,0,0,1-16.1-72.17,29,29,0,0,0-3.74,5.82.62.62,0,0,0,0,.16.65.65,0,0,1-.09.15,32.74,32.74,0,0,1-12.08,13.71,38,38,0,0,1-17.8,5.68,5.51,5.51,0,0,1,.1.89c.11,1.22.17,2.46.21,3.7s.06,2.56,0,3.84c0,1.88-.12,3.8-.28,5.7Z" style="fill: #ccc"/>
    <path d="M586.62,203.31c.25-.15.53-.22.79-.39l.67-.46.77.65a241.44,241.44,0,0,1,39.41,41l.39.52c0,.23.05.46.07.69A37.25,37.25,0,0,1,627,262.49c-4.72,12.6-16.9,18.18-34.36,15.78l-.36-.08L592,278c-.73-.56-1.39-1.25-2.1-1.86.46.62.94,1.16,1.38,1.73,1.29,3.46,4.09,7,6.47,10l.74.93c.26.36.55.71.8,1.07l.28.33c.76,0,1.49,0,2.21-.05a1.29,1.29,0,0,0,.39,0,35.19,35.19,0,0,0,16.58-5.34,30.08,30.08,0,0,0,11.16-12.57l0-.07c0-.08.07-.16.11-.26a31.7,31.7,0,0,1,6.14-8.75,32.12,32.12,0,0,1,3.46-3,34.31,34.31,0,0,1,6.71-4.21v-4.17c0-1.78.08-3.62.13-5.58-2.11-1.49-4.2-3-6.22-4.57-19-14.68-35-33-43.12-49.36a36.72,36.72,0,0,1-5.63,3.25,47.7,47.7,0,0,1-5.6,2.25,6.13,6.13,0,0,0-.6.22,58.29,58.29,0,0,0-5.13,8.15c.64-.2,1.31-.28,1.93-.51A27.78,27.78,0,0,0,586.62,203.31Z" style="fill: #ccc"/>
    <path d="M641.43,238.45c2.27,1.73,4.64,3.47,7.06,5.18l1,.68-.06,1.3c-.08,2.44-.15,4.65-.18,6.75,0,1.5,0,3.16,0,5.17v1.13l-.8.36a32,32,0,0,0-8.88,5.75,183.07,183.07,0,0,0,15,71.94c.1-.22.25-.44.35-.67a29.5,29.5,0,0,1,1.2-2.88,38,38,0,0,1,4.55-7.35,31.45,31.45,0,0,1,2.28-2.56,27.94,27.94,0,0,1,2.88-2.61c.24-.18.48-.4.74-.58a8.87,8.87,0,0,1-1.41-.71,9.56,9.56,0,0,1-1-.66,14.68,14.68,0,0,1-1.21-1c-10-8.77-13.66-33.72-8.5-60.27l0-.15,0-.1a78.5,78.5,0,0,0,3.08-12.37,77.25,77.25,0,0,0-1.38-32c-2.82-10.71-7.87-19.65-14.62-25.84-13.27-12.15-30.31-11.08-43.42.84.17.34.33.68.49,1C606.23,205.07,622.21,223.6,641.43,238.45Z" style="fill: #ccc"/>
    <path d="M578.23,256.61a56.81,56.81,0,0,0,14.58,18c16.13,2.08,27.32-2.91,31.55-14.18a33.11,33.11,0,0,0,1.56-14.59,236.44,236.44,0,0,0-37.6-39.13,30.33,30.33,0,0,1-4,1.94,28.23,28.23,0,0,1-4,1.35c-.73.23-1.5.38-2.26.57a10.85,10.85,0,0,1-1.61.41,42.31,42.31,0,0,0-4.77,20,55.19,55.19,0,0,0,6,24.41C577.87,255.79,578,256.21,578.23,256.61Z" style="fill: #ccc"/>
    <path d="M684.36,317.82c-6.87,1.52-7.63,1.91-9.19,2.29-1,.35-2.12.87-3.4,1.36l-1,.42a25.48,25.48,0,0,0-7.87,6.88,32.27,32.27,0,0,0-4.2,6.8,24.28,24.28,0,0,0-1.12,2.67l0,.07,0,.06a40.07,40.07,0,0,1-4.53,7.37c-3.62,4.53-8,7.73-12,8.82l-.41.08-1.2.23a103.76,103.76,0,0,0-17,5.4c-9.13,3.8-17.32,8.59-23,13.51l-1.08.91-.93-1.52a183.78,183.78,0,0,0-17.79-23.52l-.08,0a3.17,3.17,0,0,1-.22-.32c-4.38-5-2.69-17.61,4-29.4.78-1.36,1.6-2.7,2.48-4,4.78-6.91,10-10.76,14.11-10.5.08-1.27.14-2.58.16-3.81,0-1.07,0-2.14,0-3.18-5.75,1.33-15.09,9.44-17.5,13.41-.39.66-.79,1.29-1.2,1.91-.54.8-1.07,1.63-1.56,2.47-6.78,12-10.39,28-3.29,37.09l.09,0,.37.53v0c.08.11.23.27.23.27l.13.13a179.59,179.59,0,0,1,17,22.53l4,6.42c1.62-1.38,4.52-3.89,4.52-3.89,5.45-4.68,13.29-9.25,22.08-12.91a97,97,0,0,1,16.4-5.21c.36-.09.74-.16,1.14-.22,0,0,.67-.16.72-.16,4.76-1.26,9.66-4.87,13.82-10.08a42.19,42.19,0,0,0,5.13-8.29l.14-.29.11-.33c.25-.69.55-1.46.92-2.24a29.88,29.88,0,0,1,3.63-5.87c2.51-3.15,5.46-5.53,8.13-6.47l4.63-1.72c5.2-2,10.22-3.86,15.58-4.73l-7.47-3.64C687.25,317.34,685.67,317.51,684.36,317.82Z" style="fill: #ccc"/>
    <path d="M457.39,171c6.89-22.45,11.67-23.24,11.67-23.25-5.39-4.31-23.28,4.22-27.54,12.67,7.11,1.41-3.32,9.56-3.17,10.78,4.9-.14-.49,10.15.62,8.89,5.85,3,7.63,7.1,6,16.27C447.7,196.15,452.92,185.62,457.39,171Z" style="fill: #ba9400"/>
    <path d="M473.5,159.29c0-5.61,0-5.61,1.11-10-16.47-.05-12.66,41.4-29.46,51.34,11.25.61,18.53-22,22.33-19.22a25.81,25.81,0,0,1,2.21,11.79c5.88-1.87,5.88-14.47,4.92-20.06a4.39,4.39,0,0,0,4.11-2.49C476.52,168.61,475.08,166.57,473.5,159.29Z" style="fill: #ba9400"/>
    <path d="M676.65,367.17a30.52,30.52,0,0,0,15.48-2.71c7.35-3.29,13-8.81,15.77-14.78-2.81-.87-14.12-3.41-14.24,11-9.46-17.82-15.11-4.54-15.11-4.54S691.93,364,676.65,367.17Z" style="fill: #ba9400"/>
    <path d="M392.45,211.91c-.83,1.62.31,3.41.48,5.31-6.49,2.56-7.66,5.43-8,12.77a6.28,6.28,0,0,0,5.17-2.27c-.67,1.63.16,4.46.83,5.36,7-5.66,7.16-16.62,14.5-18.79C402.93,215.06,395.6,213.9,392.45,211.91Z" style="fill: #ba9400"/>
    <path d="M532.76,314.9c-.34,4.31-.34,13.83,5.1,20.05-10.39,9.73,4.47,17.52,4.47,17.53s-.11-7.89,7.7-8.34c7.33-.43,9.56,1.85,14.84,1.05a48.46,48.46,0,0,1-16.22-9.64A62.42,62.42,0,0,1,532.76,314.9Z" style="fill: #ba9400"/>
    <path d="M849.44,299.45c.17-1.86,1.37-3.41.51-5.21-3.17,1.35-10.5.88-13-.48,7.5,3.85,7.5,14.84,14.51,22,.83-.75,1.48-3.42,1-5.17a7.88,7.88,0,0,0,5.18,3.3C857.09,306.42,856.12,303.38,849.44,299.45Z" style="fill: #ba9400"/>
    <path d="M767.93,208.58C769,213.41,769,213.41,769,219c-1.58,6.74-3.16,8.27-5.22,9.5a6.77,6.77,0,0,0,4.13,3.91c-1.11,5.23-1.11,17.84,4.91,21.72a18.38,18.38,0,0,1,2.2-11c3.65-1.58,11.08,23.53,22.33,26.31C780.57,254.29,784.39,214.05,767.93,208.58Z" style="fill: #ba9400"/>
    <path d="M563,331.26s-5.67-15.68-15.13-1.77c-.11-14.49-11.43-16.58-14.25-16.83,2.83,7.11,8.43,14.89,15.77,21.22a46.1,46.1,0,0,0,15.48,9.19C549.59,333.49,563,331.26,563,331.26Z" style="fill: #ba9400"/>
    <path d="M804,242c.17-1.18-10.29-12.42-3.16-11.71-4.28-9.64-22.16-23.79-27.55-21.36,0,0,4.78,2.42,11.67,27.06,4.47,16.08,9.7,28.21,12.4,29.23-1.58-9.67.16-13.2,6-14.5C804.49,252.29,799.1,240.43,804,242Z" style="fill: #ba9400"/>
    <path d="M708.77,352.26a34.14,34.14,0,0,1-15.9,14.18,32,32,0,0,1-16.22,2.87c2.34,2.72,7.44,3.61,14.78,7.05,7.79,3.69,7.75,9.61,7.75,9.62s14.87-1.77,4.48-15.71C709.1,366.22,709.1,356.69,708.77,352.26Z" style="fill: #ba9400"/>
    <path d="M439.39,280.32c-.58,3.64,2.17,10.38,6.48,9.36,7-1.63,2.74-12.21,2.69-12.36-.94.17-1.91.31-2.78.54A28.71,28.71,0,0,0,439.39,280.32Z" style="fill: #002b5d"/>
    <path d="M485.86,221.38c25.84,25.6,43.69,39.75,74.49,37.8a40.57,40.57,0,0,0,13.56-5,63.94,63.94,0,0,1-3.78-11.89C523.8,270.39,495,217.35,485.86,221.38Z" style="fill: #002b5d"/>
    <path d="M569,276.48a99,99,0,0,0,14.53-1.37c.14-1.16.14-2.53.2-3.81-.57-1.12-1.15-2.18-1.65-3.35a62.57,62.57,0,0,1-6.13-9.52A98.08,98.08,0,0,1,550,261.8c-51.17-4.23-48.51-35.06-85.35-37.2C492.2,247.68,529.51,277.42,569,276.48Z" style="fill: #002b5d"/>
    <path d="M484.73,181.38c3.66-.36,4,3.76,4,3.76.83,2.88,11.51,6.9,12,7.63-1.68-.94-11.83-3.17-11.83-2.94-6.34,2.87,14.17,7.14,16.65,8.89-4.51.22-10.83,1.19-10.66,2.93-3,3,1.81,3.25,10,3.49,8,.59,12.57,6.59,18,9.93-5,1.76-23.52-6.95-20.52-1.77-.67,1.14,20.66,11.45,24.17,16.4,2.67,6.23-2,8.68-7.67,7.16-7.15-2.85-10.34-13.55-12.64-11.44,0,3,12.35,21,29.66,22.15a49.56,49.56,0,0,0,22.18-4.37,86.29,86.29,0,0,0,11.26-6,53.66,53.66,0,0,1-.47-6.78,49.66,49.66,0,0,1,1.42-12c-1.09.19-2.11.38-3.32.53-14.59,2.37-55.79-.81-72.83-39.11,0,0-5.93-16.19-15.06-17.54.33,4.29,6.57,8.52,6.57,8.53l-2.55,4.41c-.87,1.51-4.42,4.25-5.6,5C477.53,181.3,483.2,181.5,484.73,181.38Z" style="fill: #002b5d"/>
    <path d="M680.36,242.22c19.52,7.86,52.39,13.67,66.72-15.29,0,0,7-15.32,16.58-13.9-.12-.88-1.65-7.67-1.65-7.67-3.56-.44-11.07.12-15.78,2.74-9.5,5.27-20.64,14.06-31.12,16.36,4.81-4.28,19.67-17.61,23.65-33.72-6.67-6.14-12.16,8.18-13.18,7.77-.34-7.88.84-14.17-4.66-16.55-1.83,23.67-10.49,39.68-30.48,44.15,2.15-2.27,24.82-22.5,16-38-6.65,20-13.49,42.36-40.35,43.07a10,10,0,0,0,.67.77C668.07,234.31,673.83,239.32,680.36,242.22Z" style="fill: #002b5d"/>
    <path d="M495,174.84c14.3,34,47.19,41.29,66.67,41.76a28.16,28.16,0,0,0,9.72-2,46,46,0,0,1,1.85-4.44c-24.5-12.54-31.17-36.55-37.57-58.41-8.86,11.94,13.82,41.36,16,44.57-20-12.73-28.67-32.06-30.49-56.46-5.51.22-4.35,7-4.68,14.73-1,0-6.46-16.44-13.14-12.81,4,17.59,18.82,36.65,23.66,42.88-10.52-6.47-21.61-19.54-31.13-28.29A41.15,41.15,0,0,0,480.07,148s-1.5,6.28-1.64,7.06C488.05,156.93,495,174.84,495,174.84Z" style="fill: #002b5d"/>
    <path d="M684.09,270.29c1.81,1.66,11.49,9.82,22.15,13.49,17.32,5.89,29.68-7.55,29.68-10.51-2.33-3-5.52,6.52-12.67,6.58-5.68-.69-10.34-5-7.67-10.17,3.49-3.49,24.82-5.62,24.16-7.07,3-4-15.5-2.34-20.48-6.11,5.44-1.2,10-5.44,18-3,8.16,2.83,13,4.35,10,.22.16-1.67-6.17-5-10.67-6.9,2.5-.73,23,2.44,16.67-2.74,0-.23-10.16-1.69-11.84-1.4.5-.52,11.16-.63,12-3.23,0,0,.35-4,4-2.33,1.52.68,7.19,2.44,7.27,1.41-1.2-1.15-4.75-5.13-5.6-6.95l-2.58-5.32s6.29-2,6.61-6.21C754,218.24,748,232.23,748,232.23c-17,32.31-58.25,18.84-72.83,10.11-4.27-2.35-7.79-4.55-10.63-6.48a87.19,87.19,0,0,1-1.11,11.72.93.93,0,0,0,0,.22C670.44,258.87,684.09,270.29,684.09,270.29Z" style="fill: #002b5d"/>
    <path d="M756.27,276.7c-9.75-7.73-41.95,41.5-93.94-23.31-.61,2.5-1.31,5-2.12,7.41-.24,1.17-.45,2.37-.61,3.53a70.88,70.88,0,0,0,22.15,21C712.59,300.13,730.43,293,756.27,276.7Z" style="fill: #002b5d"/>
    <path d="M793.51,345v0l0,0Z" style="fill: #002b5d"/>
    <path d="M448.56,277.32h0v0Z" style="fill: #002b5d"/>
    <path d="M686.46,309.44l.33-.08.75-.09.77.36.35.17q7.11,3.49,14.22,6.94l2.48,1.22c0,1.07-.06,2.13-.08,3.2,0,.17,0,.34,0,.5,0,.51,0,1,0,1.52s0,1,0,1.55l-.1,3.21-2.49,0a35.09,35.09,0,0,0-9.76,1.31c27.13,1.76,73.68,1.8,99.08,11a61.13,61.13,0,0,1,9.08,4.25c-3.6-15.58-19.43-30.35-19.42-30.38-16.7-14.85-40.16,1.52-83.65-5.44a125.23,125.23,0,0,1-20.82-5.45A115.13,115.13,0,0,1,659.05,295c1.37,9.05,4.25,15.43,7.84,17.51a6.52,6.52,0,0,0,4.25.83l2.46-.36c.37-.09.77-.19,1.22-.33l.08,0H675c1.39-.34,5.46-1.43,8-2.19A24.31,24.31,0,0,1,686.46,309.44Z" style="fill: #002b5d"/>
    <path d="M796.32,346.44c-.87-.49-1.86-.93-2.8-1.39,0,.11-4.28,9.42,2.71,13.18,4.3,2.33,7-3.61,6.46-7.43A40.58,40.58,0,0,0,796.32,346.44Z" style="fill: #002b5d"/>
    <path d="M695.52,335c-5.31.31-19.64-1-18.69-.8,2,.5,10.78,5.88,14,11.26,12.8-6.11,23,2.72,23,2.72s3,11.08.36,17.82a18.2,18.2,0,0,1-3.24,5,18.5,18.5,0,0,1,1.25,10.43,13.2,13.2,0,0,1-.34,1.66,57.27,57.27,0,0,1,32-6.11c13.23,1.39,24,7.71,30,12q.69-2.69,1.36-5.37a28.31,28.31,0,0,1,6.07-11.86,18.7,18.7,0,0,1,2.14-2,22.54,22.54,0,0,1-2.73-6.72,16.66,16.66,0,0,1,.33-9.32,10,10,0,0,1,5.9-6.16c2.19-.84,4.37-1.68,6.55-2.54C770.31,334,727,333.84,695.52,335Z" style="fill: #002b5d"/>
    <path d="M448.57,277.31l6.56,4.58a15.53,15.53,0,0,1,5.91,8,17.23,17.23,0,0,1,.37,9.44,15.7,15.7,0,0,1-2.76,5.83,26.76,26.76,0,0,1,2.14,2.66,41.18,41.18,0,0,1,6.07,13.85c.46,1.94.91,3.89,1.37,5.83a48.51,48.51,0,0,1,29.93-1.41c15.09,4,26.57,13.52,32,18.43-.11-.57-.25-1.21-.33-1.79a15.81,15.81,0,0,1,1.25-9.93,30.81,30.81,0,0,1-3.27-6.33c-2.61-7.76.37-17.67.37-17.67s10.26-4.77,23.07,6.66c3.28-4.05,12-5.74,14-5.38.94.16-13.36-4.52-18.69-7C515.12,288.77,471.79,273,448.57,277.31Z" style="fill: #002b5d"/>
    <path d="M599.3,293.92h-.7l-.52-.74c-.6-.87-1.38-1.85-2.22-2.89-2.29-2.93-5.13-6.55-6.79-10.46-.47-.59-1-1.15-1.41-1.77-.1-.16-.19-.34-.3-.5-1.29.33-2.66.66-4.29.93a91.25,91.25,0,0,1-18.07.56,125.85,125.85,0,0,1-20.83-3.22c-43.48-10.84-66.94-35-83.67-25.69,0,0-15.8,9.78-19.38,24.4a44.2,44.2,0,0,1,9.06-1.51c25.44-1.72,71.95,15.73,99.09,25.49,0,0,18.45,8.12,31.05,10.43,2.43-3.71,12.24-13.16,19.46-14.26,0-.27-.06-.5-.07-.79Z" style="fill: #002b5d"/>
    <path d="M777.41,287.2c-36.81-10.59-34.16,21.46-85.31,5-3.83-1.43-20.55-8.81-33.53-20.13a99.24,99.24,0,0,0,0,19.29A138,138,0,0,0,673.09,299C712.59,316.75,749.93,301.33,777.41,287.2Z" style="fill: #002b5d"/>
    <path d="M795.75,397.61c5.53,1.63,15.15-15.77,17.47-25.88-4.31,33.22-25.86,42.34-27,57,2.33,1.87,5.17.65,7.34-.07,21.17-23.66,21.67-52.42,22-52.33,2.16-19.73-6-50.15-21-55.05,6,9.61,18.84,30.93,9.5,41.54-4.31,4.62-15.65-3.1-15.34-11-7.83,3-3.28,16.75,4.74,19.35a14.64,14.64,0,0,1,3.1.44,8.48,8.48,0,0,1-3.1-.44c-8.47-.3-13.07,8-14.55,16.12,10.37,5,26.43-7.5,31.17-26.22-4.51,21-17.68,32.53-31.5,28,2,10.06,10.48,6.62,13.83,6.51C795.94,394.48,794.92,397.06,795.75,397.61Z" style="fill: #cccdce"/>
    <path d="M796.58,371.58a14.64,14.64,0,0,0-3.1-.44A8.48,8.48,0,0,0,796.58,371.58Z" style="fill: #cccdce"/>
    <path d="M816.91,389c0,.58,0,1.19,0,1.8A4.76,4.76,0,0,0,816.91,389Z" style="fill: #cccdce"/>
    <path d="M817.06,356.12c3.84,37.4,14.5,98.29,35.17,100.61,3.51.81,6.68-3.3,7.17-8.12C833.08,452.19,819.08,362.87,817.06,356.12Z" style="fill: #cccdce"/>
    <path d="M818.41,383.06c0,16.66.82,48.2-4,67.54-7.49,39-21.17,47.21-20.47,65.84,13.44-9.12,15.4-13.63,14.48-30.79a50,50,0,0,0,1.67,9.27c3,7.18,8.17,12.77,13.35,6.53-10-7.3-11.33-24.17-5-25.39-2.51.49,7.16,30.16,17.66,18-12.65-1.39-19-25.76-14.17-32,.35,1.49,3.18,14.13,9.5,16-4.66-17.91-7.32-33.45-10-52,.48-.15,9.15,50.52,25.17,51.52C844.05,477.38,819.9,415,818.41,383.06Z" style="fill: #cccdce"/>
    <path d="M793.93,456.36c10.73-2.18,22.23-40.45,22.93-65.59-1.24,10.4-15.71,62.29-30.61,61C786.09,454.89,789.6,458.21,793.93,456.36Z" style="fill: #cccdce"/>
    <path d="M797.58,492.8c18.32-30.91,19.8-74.7,19.49-84-1.81,28.78-26.86,64.51-28.62,73.28.69-.05,4.85.89,7-5.05-.52,8.15-.68,7.68-1.85,12.77C794.45,492.08,795.94,493.38,797.58,492.8Z" style="fill: #cccdce"/>
    <path d="M810.07,548.71c-6.84,1.49-10.83-2.06-15-10.11C792.76,550.68,804.92,559.79,810.07,548.71Z" style="fill: #002b5d"/>
    <path d="M832.56,594.81c-1.49-29.86-20-50.3-26.64-87.21-.67.74-.18.16-.67,1.15C807.41,532.24,813.08,573.08,832.56,594.81Z" style="fill: #002b5d"/>
    <path d="M807.41,532.07c-1.67,4.6-7,7.18-12,2.36C797.57,545.32,809.07,542.23,807.41,532.07Z" style="fill: #002b5d"/>
    <path d="M822.23,617.26c-5.66-23.9-24.49-44.88-19.65-60.62-3.34-.93-5.35-2.11-6.84-4.23C785.24,575.23,816.05,612.74,822.23,617.26Z" style="fill: #002b5d"/>
    <path d="M833.75,721.09c6.48-30.38-40.17-111.16-46.67-167.15C774.08,599.48,831.25,673.93,833.75,721.09Z" style="fill: #002b5d"/>
    <path d="M793.1,537c-4.7,4.75-13.17,3.77-17.2-7C772.75,546.3,789.73,552.34,793.1,537Z" style="fill: #002b5d"/>
    <path d="M806.42,747.64c-10-2.76-13.86,11.56-10.34,24.35-13.16-8.19-13.16.19-20-3.49,8.19,29.73,36.15,7,50-7.91C811.73,769.19,803.41,759.64,806.42,747.64Z" style="fill: #002b5d"/>
    <path d="M803.09,804.51c3.82,6.48,10.66,5.39,11.82,4.09-14.49-15,7.82-39.34,9.33-42.78C818.74,771.71,794.24,786.53,803.09,804.51Z" style="fill: #002b5d"/>
    <path d="M645.24,288.12c-1-.21-1.77.63-1.77,1.87a2.67,2.67,0,0,0,1.77,2.64c1,.21,1.76-.62,1.76-1.87A2.67,2.67,0,0,0,645.24,288.12Z" style="fill: #002b5d"/>
    <path d="M648.11,302.79c-1-.22-1.76.62-1.76,1.87a2.68,2.68,0,0,0,1.76,2.64c1,.21,1.77-.63,1.77-1.88A2.66,2.66,0,0,0,648.11,302.79Z" style="fill: #002b5d"/>
    <path d="M652.62,317.32c-1-.22-1.77.62-1.77,1.87a2.67,2.67,0,0,0,1.77,2.64c1,.21,1.76-.63,1.76-1.87A2.67,2.67,0,0,0,652.62,317.32Z" style="fill: #002b5d"/>
    <path d="M606.32,224.73c-2.14-2.21-4.37-4.4-6.65-6.54a65.19,65.19,0,0,0-1.2,8.69l7.32,2.84C605.9,228,606.08,226.34,606.32,224.73Z" style="fill: #002b5d"/>
    <path d="M587.73,243.16a102.29,102.29,0,0,0,2.53,12.56l7.19-.82a93.89,93.89,0,0,1-2.21-10.77Z" style="fill: #002b5d"/>
    <path d="M596.15,214.92c-2.19-2-4.4-3.93-6.72-5.84a80.91,80.91,0,0,0-2.27,13.47l7.42,2.84A77.58,77.58,0,0,1,596.15,214.92Z" style="fill: #002b5d"/>
    <path d="M601.19,254.46l7.12-.8a72.45,72.45,0,0,1-1.74-8l-7.42-1A93.63,93.63,0,0,0,601.19,254.46Z" style="fill: #002b5d"/>
    <path d="M611.31,253.3l6.17-.71c-.53-1.85-1-3.74-1.31-5.67l-6.46-.85A62.94,62.94,0,0,0,611.31,253.3Z" style="fill: #002b5d"/>
    <path d="M615.69,244a61.06,61.06,0,0,1-.52-7.65l-6.4-2.17c0,.24,0,.43,0,.7a67.61,67.61,0,0,0,.48,7.92Z" style="fill: #002b5d"/>
    <path d="M609.18,227.74c-.13,1-.21,2.08-.29,3.15l4.79,1.84C612.22,231.06,610.73,229.41,609.18,227.74Z" style="fill: #002b5d"/>
    <path d="M606.1,242.22a68.72,68.72,0,0,1-.49-8c0-.37,0-.72,0-1.1l-7.39-2.48c0,.66-.06,1.31-.06,2,0,2.76.19,5.48.45,8.19Z" style="fill: #002b5d"/>
    <path d="M591.52,260.07a103.89,103.89,0,0,0,3.92,10.54,38.59,38.59,0,0,0,7.66-.21,96.87,96.87,0,0,1-4.5-11.62Z" style="fill: #002b5d"/>
    <path d="M582.66,260.73a49.67,49.67,0,0,0,9.19,9.51.69.69,0,0,1,.2,0,104,104,0,0,1-3.71-9.82Z" style="fill: #002b5d"/>
    <path d="M594.74,240.1c-.27-2.76-.41-5.54-.41-8.32,0-.82,0-1.63,0-2.45l-7.44-2.5c0,1.1-.07,2.22-.07,3.33,0,2.85.13,5.7.37,8.55Z" style="fill: #002b5d"/>
    <path d="M612.17,256.27a75.44,75.44,0,0,0,3.45,8.78,18.7,18.7,0,0,0,4.2-5.5c-.58-1.44-1.1-2.9-1.59-4.39Z" style="fill: #002b5d"/>
    <path d="M602.26,258.11a95,95,0,0,0,4.55,11.54,23,23,0,0,0,6.4-2.8,83.2,83.2,0,0,1-4-10Z" style="fill: #002b5d"/>
    <path d="M585.65,209.3a27.41,27.41,0,0,1-7.64,2.44c-.5,2.93-.87,6-1.11,9.08l6.78.72A79.17,79.17,0,0,1,585.65,209.3Z" style="fill: #002b5d"/>
    <path d="M583.3,229.42c0-1.18.06-2.35.09-3.53l-6.7-1.31c0,1.15-.08,2.27-.08,3.42,0,3.38.18,6.72.51,10.07l6.6.26C583.45,235.36,583.3,232.4,583.3,229.42Z" style="fill: #002b5d"/>
    <path d="M584.28,242.84l-6.64-.28a109.94,109.94,0,0,0,3.21,15.23l6.22-1.49A100.78,100.78,0,0,1,584.28,242.84Z" style="fill: #002b5d"/>
    <path d="M752.92,536.93c-.15,3.18-.63,3.28-4.45,2.57l-12.09-2.31c-5.88-1.32-5.89-1.33-6.06-4.78l-1.75-.34c.17,2.24.17,4.07.17,5.69a40.86,40.86,0,0,1-.17,4.78l1.75.34c.17-3.21.46-3.32,5.58-2.51q6.36,1.23,12.72,2.42-9.47,7.5-18.94,14.9l-1.12,1v2.65l5.26,1c.31.07,15,2.88,17.2,3.46,1.75.54,1.9,1.56,1.9,3.79l1.76.32c-.17-1.83-.17-3.65-.17-5.43s0-3.45.17-5.24l-1.76-.33c0,3.42-.15,3.6-4.45,2.79-3.19-.53-6.38-1.08-9.57-1.63C744,556,749.27,552,754.68,548.14c-.17-2-.17-3.88-.17-5.89,0-1.63,0-3.21.17-5Z" style="fill: #afb6d1"/>
    <path d="M729.66,527.85c2.4,1.06,3.34,1.67,5.75,2.94.16-.71.32-1.42.47-2.13-2.22-1.84-3.33-2.65-4.3-4.27s-1-3.4-1-5.63c0-3.6,1.12-3.6,3.19-3.19l7.34,1.23a50.44,50.44,0,0,1-.18,5.42c-.31,1.33-1.26,1.36-2.88,1.25v2.4a30.69,30.69,0,0,1,4.33.61,24.8,24.8,0,0,1,3.8.94V525c-3-.78-3-1.2-3.2-7.87l6.25,1.18c3.16.78,3.16.78,3.16,3.22,0,5.23-.48,6.17-4.44,6.39.06.83.11,1.66.17,2.49,2.7.1,3.64.28,6.52.39-.17-2.62-.17-13.94-.17-16.35,0-1.81,0-3.65.17-6.63l-1.76-.33c-.15,3.22-.15,3.45-5.72,2.4q-6.06-1.14-12.11-2.31c-4.47-.87-4.78-.94-4.78-4.4l-1.76-.35c0,5.26.18,8.35.18,12.76,0,4-.18,7.82-.18,11.86C728.89,527.5,729.34,527.79,729.66,527.85Z" style="fill: #afb6d1"/>
    <path d="M502.22,571.32a3,3,0,0,0-3,1.09,5,5,0,0,0-1.27,3.61,6.75,6.75,0,0,0,1.27,3.83,4.72,4.72,0,0,0,3,2.18c1.77.32,3.36-.8,4-2.89a5.76,5.76,0,0,0,.15-1.59,7.5,7.5,0,0,0-.15-1.82C505.58,573.57,504,571.64,502.22,571.32Z" style="fill: #afb6d1"/>
    <path d="M729.66,477.47a20.83,20.83,0,0,0-1.59,8.54,46.78,46.78,0,0,0,1.59,11.19c0,.4.18.62.18.86a27.24,27.24,0,0,1,4,.54c3.82.74,4.28.83,4.63,3.72l1.57.31V487.91l-1.74-.33v.81c0,3.43-.29,3.38-4.94,2.47-1.25-.24-3.19-.62-3.19-4.05,0-2.63,1.29-6.62,6.38-7.23a16.37,16.37,0,0,1,5.27.39c2.23.43,6.2,1.6,8.76,4.7a11.57,11.57,0,0,1,2.23,7.06c0,2.65-.81,4.89-2.72,6.17a6.66,6.66,0,0,1-4,.83c.06.89.11,1.77.16,2.66a47.06,47.06,0,0,1,7.18.92,48.89,48.89,0,0,0,1.58-11.6c0-11.28-6.19-18-13.2-19.39C737.33,470.52,732.22,471.94,729.66,477.47Z" style="fill: #afb6d1"/>
    <path d="M626.93,432.36c.65.14,1.27.28,1.27,1.51a4.41,4.41,0,0,1-.29,1.55,3.4,3.4,0,0,1-2.87,1.41c0,.65-.1,1.3-.16,1.95a4.93,4.93,0,0,0,5.09-1.92,9.77,9.77,0,0,0,1.42-5.12c0-3.44-1.42-6.34-3.79-6.86-1.94-.42-3.38,1.08-3.38,3.47A3.85,3.85,0,0,0,626.93,432.36Z" style="fill: #afb6d1"/>
    <path d="M488.69,552.39l1.77.31c0-1.8,0-3.25,1.59-3.14q9.31,1.65,18.62,3.39a3.32,3.32,0,0,1,1.45.64c.62.54.62,1.55.79,3.2l1.74.33c-.15-3.08-.15-5.49-.15-8.1,0-1.41.15-7.43.15-8.62,0-3-.15-7.49-2.53-10.6a.21.21,0,0,1-.17-.2,9.2,9.2,0,0,0-4.76-2.9l-1-.18c-2.23,0-4.13,1.26-4.94,4.33a18.77,18.77,0,0,0-.78,4.5,11.58,11.58,0,0,0-.34-2.1,10.57,10.57,0,0,0-.95-2.57,6.21,6.21,0,0,0-4.63-3.85,4,4,0,0,0-4.29,1.45c-1.28,2-1.6,4.77-1.6,7.38,0,.59,0,2.42.19,4.24v4.44C488.88,547.19,488.69,549.36,488.69,552.39ZM503,536.81a3.27,3.27,0,0,1,3.19-1.42,2.49,2.49,0,0,1,1.29,0,5.92,5.92,0,0,1,4.12,2.35,6.77,6.77,0,0,0,.49.71,9.17,9.17,0,0,1,.62,3.35,5.24,5.24,0,0,1-.62,2.9c-.8.45-1.92.24-3.53,0-2.22-.42-4.45-.83-6.67-1.23C501.92,540.44,501.92,538.24,503,536.81Zm-11.79-.3c.46-.93,1.59-1.93,4-1.5,2.08.37,3.36,1.19,4,2.53.8,1.54.8,3.56.8,5.58l-9.22-1.64C490.79,539.05,490.79,537.42,491.25,536.51Z" style="fill: #afb6d1"/>
    <path d="M717.07,448.73V451l.63.13c1.28.26,2.56.31,3.84.57s2.54.71,3.83,1v-2.22a2,2,0,0,1-1.92-2.2c0-1.41,1-4.64,1.75-7.29l6.85,1.34c.27,1.2.54,2.4.8,3.6a24.85,24.85,0,0,1,1,4.58c0,1.43-1.12,1.41-1.92,1.26v2.22c1.92.37,3.65.51,5.56.88s3.5.87,5.58,1.27v-2.22c-1.93-.37-2.08-.81-3.35-6.1q-2.62-10.47-5.24-21c-.63-3.15-1-4-1.44-6.54l-4.29.94-.32.17-1.26,4.38q-1.29,3.67-2.56,7.34l-2.07,6.26c-.53,1.56-1,3.13-1.58,4.7-1.45,3.75-1.75,4.68-3.2,4.62A.73.73,0,0,1,717.07,448.73Zm11.62-19.48c.06-.32.11-.63.17-.95q1.27,5.59,2.54,11.18L726,438.4Z" style="fill: #afb6d1"/>
    <path d="M557.18,416.82V414.6c-2.09-.24-2.71-.74-2.86-3a30.37,30.37,0,0,1-.16-4.46v-5.88l1.74.36c.42,1,.85,2.06,1.28,3.09,1.05,2.57,2.11,5.13,3.17,7.7,2.24,5.31,2.4,5.34,6.21,6.14l3.67.77v-2c-1.09-.42-1.59-1.36-3.17-4.71q-2.64-5.68-5.26-11.36a6.53,6.53,0,0,0,4.14-3.18,9.42,9.42,0,0,0,.8-4.26,9.21,9.21,0,0,0-3-7.28,11.93,11.93,0,0,0-5.57-2.37l-1-.2c-1.59-.33-4.3-.68-4.93-.81-2.38-.49-4.62-1.15-6.85-1.6v2.22c2.54.52,2.54,1.12,2.69,6.59v17.14c-.15,4.6-.15,5.2-2.69,4.69v2.22c2.69.55,4.47.71,6.36,1.1S555.42,416.46,557.18,416.82ZM554.32,386a13.45,13.45,0,0,1,2.86.8,5.31,5.31,0,0,1,1.45,1.31,9.61,9.61,0,0,1,1.4,5.3c0,3.25-1.09,4.44-1.25,4.61a3,3,0,0,1-1.6,1.27,7.84,7.84,0,0,1-2.86-.2Z" style="fill: #afb6d1"/>
    <path d="M507.51,377v21.36c0,6-.18,6.41-3,5.89v2.22c2.08.38,4.12.56,6.2.95s4,.95,6.07,1.35v-2.23c-2.72-.51-2.88-1.35-2.88-6V378.22l2.4.45c1.25.24,2.71.52,2.71,3.13a19.5,19.5,0,0,1-.33,2.56l2.07.4,1.59-8.55-1.59-.31c-.32.31-.47.28-1,.42a18.23,18.23,0,0,1-3.49-.46l-8.59-1.61a22.32,22.32,0,0,1-3.81-.91,1.42,1.42,0,0,1-1.12-.81l-1.46-.27c-.78,3.3-1,4.66-1.9,8.51l2.05.38C502.87,376.36,504.15,376.4,507.51,377Z" style="fill: #afb6d1"/>
    <path d="M700.82,447.61v-2.22c-2.7-.56-2.87-1-2.87-7.63q-.08-8.08-.16-16.16,7.82,14.31,15.62,28.6l2.22.45c-.15-3.28-.15-4.67-.15-6.67,0-.4.15-18.94.31-21.53,0-2,.62-2.29,1.9-2.23l.64.13v-2l-8.44-1.71v2c2.71.55,3,1,3,6.47v12.07c-3.83-7.42-7.8-14.89-11.77-22.36l-8.44-1.76v2c2.52.73,2.53,1.34,2.53,6.17v15.32c0,7.47-.16,7.44-2.85,7.06v2.22c1.9.4,3.17.47,4.61.77C698.27,446.88,699.55,447.35,700.82,447.61Z" style="fill: #afb6d1"/>
    <path d="M650,436.79l.78.17c2.56.55,5.89,1.07,8.13-1.88a10.35,10.35,0,0,0-2.54-13.81,12.6,12.6,0,0,0-3.65-1.82c.46-.1,1,0,1.59-.06,1.27-.31,4.28-1.28,4.28-6.11a9.09,9.09,0,0,0-1.75-5.83,9.73,9.73,0,0,0-6-3.33l-3.33-.73c-1.43-.31-3-.46-3.5-.56-2.22-.48-4-1.07-6.37-1.59v2.22c1.43.31,2.55.56,2.72,2.62v23.57c-.17,2.38-.82,2.46-2.72,2.23v2.22c2.4.32,4.3.74,6.37,1.19C644.92,435.48,648.27,436.41,650,436.79ZM650,407a.67.67,0,0,1,.49.32c.78.78,1.74,2.4,1.74,5.41,0,3.42-1,4.64-2.21,5.16a10.1,10.1,0,0,1-3.52-.37V405.81h0A6.87,6.87,0,0,1,650,407Zm-3.51,13a24.35,24.35,0,0,1,3.51.94,7.66,7.66,0,0,1,1.9,1.42c.8,1,1.75,2.8,1.75,6.25,0,3-.64,4.29-1.29,4.94a3,3,0,0,1-2.36.92l-.65-.14c-2.86-.62-2.86-2.42-2.86-5.89Z" style="fill: #afb6d1"/>
    <path d="M488.69,472v10.69l1.6.28c.17-3.22.63-3.14,4.46-2.46q6.06,1.08,12.11,2.2c2.86.53,4.45.83,5.26,1.59.79.57.79,1.36.79,3.19l1.74.33V477.12l-1.74-.33c0,1.78-.16,2.6-.79,3-.81.27-2.23,0-4.61-.44l-1.3-.24-7-1.08-4.63-.83,4.63-3.6,7-5.77,5.91-4.54,2.7-2.12v-2.81a15.59,15.59,0,0,1-2.7-.32l-2.73-.51-3.18-.59c-2.08-.39-4.63-1-7-1.47a53.13,53.13,0,0,1-6.84-1.44c-1.91-.52-1.91-1.33-2.08-3.62l-1.6-.28v10.71l1.6.28c0-3.43.3-3.77,4.62-3,3.18.57,6.37,1.14,9.55,1.73-1.75,1.27-3.5,2.55-5.25,4.06C495.7,466.55,492.2,469.37,488.69,472Z" style="fill: #afb6d1"/>
    <path d="M496.66,620.92l2.55-.55c2.33-.52,4.67-1,7-1.53l5.91-1.34.31-.14c2.37-.55,3-.63,4.93-1.08l-1.44-6.13-3.65-2.3-.15,0-5.91-4.15-.15,0-5.26-3.55L499.21,599l-2.4-1.82c-3.84-2.69-4.14-2.94-4.31-5.6l-1.92-.34c.19,2.26.19,3.86.19,5.68a43.64,43.64,0,0,1-.19,5l1.92.34c0-.78-.15-2.66,1.44-2.37,1,.17,3.2,1.59,5.25,3a2.58,2.58,0,0,1,.81.58v8.42l-.81.26-2.05.45a31.45,31.45,0,0,1-3.34.6c-1.3-.23-1.3-1.86-1.45-2.88l-1.77-.32c.19,2.48.19,4.87.19,7.09,0,2.39,0,4.62-.19,7l1.93.34v0C492.51,622,492.84,622,496.66,620.92Zm5.43-16.36,4.12,2.81,4.15,2.56-4.15.85-4.12.65Z" style="fill: #afb6d1"/>
    <path d="M676.29,443.24l.32.07C683.46,444.59,690,440.13,690,429c0-10.67-5.9-18.37-13.38-20l-.15,0c-6.53-1.21-13.37,2.77-13.37,14.27C663.09,435.17,669.47,441.78,676.29,443.24ZM671.51,415c1-2,2.56-3.68,5.11-3.35a6.47,6.47,0,0,1,4.17,3.49c1.58,2.95,2.05,6.91,2.2,11.14v.24c0,5-.15,10-2.55,12.74a4.08,4.08,0,0,1-3.83,1.19,6.56,6.56,0,0,1-3.82-2.82c-2.23-3.49-2.55-8.81-2.54-12.83C670.24,419.61,670.89,416.51,671.51,415Z" style="fill: #afb6d1"/>
    <path d="M499.21,521.82c.8.14,1.59.49,2.55.66a15.3,15.3,0,0,0,4.45.22,10.75,10.75,0,0,0,5.91-3.35,18.5,18.5,0,0,0,3.19-11.08A25.15,25.15,0,0,0,512.12,496a16.47,16.47,0,0,0-5.91-6,12.64,12.64,0,0,0-4.45-1.59,10.91,10.91,0,0,0-2.55-.28c-7,.15-11.15,6.3-11,15C488.38,510.6,491.89,518.88,499.21,521.82Zm-6.84-23.41c1.74-1.3,4.13-1.66,6.84-1.39.48.09,1.12,0,1.75.12a23.69,23.69,0,0,1,5.25,1.38,11,11,0,0,1,5.25,3.79l.64.91a10,10,0,0,1,.94,4.2,8.07,8.07,0,0,1-.94,3.88,5.38,5.38,0,0,0-.64.69,7.48,7.48,0,0,1-5.25,1.82,17,17,0,0,1-4.45-.4l-2.55-.46a18.54,18.54,0,0,1-5.39-2.62,9.13,9.13,0,0,1-3.53-7.06A5.87,5.87,0,0,1,492.37,498.41Z" style="fill: #afb6d1"/>
    <path d="M739.4,803.78q-4.67-3.69-9.33-7.4c-4.17-3.36-4.53-3.85-3.51-5.92L725,789.18c-.61,1.51-.93,2.8-1.42,4s-1.17,2.37-1.65,3.56l2.22,8.69L719,803.52l-.53-.17-2.72,2.5.94,1.87c.44-.57.7-.77.91-.82.65-.16,1.08.63,1.44,1.16q1.58,12.08,3.16,24.14c.17,1.48.62,3.2-1.29,3.68l.75,2.35,6.58-3c-.32-.78-.65-1.55-1-2.33-1.21.62-1.76.63-2.43-.58q-1.37-9.12-2.72-18.22l8.32,5.77,1.06-2.06q-1.51-6.13-3-12.25c-.83-3.11,1.34-.48-.42-3.23l9,7.4c4.58,3.62,4.76,3.75,3.57,6.61l1.59,1.26c.74-2.31,1.56-4.33,2.39-6.36.66-1.7,1.49-3.27,2.27-5.13l-1.45-1.17C744.3,807.68,744.08,807.29,739.4,803.78Z" style="fill: #afb6d1"/>
    <path d="M714.26,825.48c-2-6.3-3.5-9.39-3.83-11.5-.15-2.22-.3-3.26,1.45-3.71l-.65-2.15-2.86.81L704.71,810l.48,2.28c1.1-.36,1.59-.86,2.08.43.47,1.11,1.58,4.79,3.34,10.16,2.23,6.11,2.7,7.59,2.7,9.21,0,1,.48,2.32-1,3.86a3.79,3.79,0,0,1-2.53,1.3,5.17,5.17,0,0,1-3-1,10.23,10.23,0,0,1-2.53-4.56A92.43,92.43,0,0,1,702.5,822a82.47,82.47,0,0,1-1.11-8.7c-.17-1.85.62-1.87,2.07-2l-.33-2.07c-2,.17-3.82.37-5.55.45a32.53,32.53,0,0,1-4.63,0,.41.41,0,0,1-.48.12c.11.7.21,1.4.32,2.09l.16,0c2.08-.17,2.39.71,3,4.68.53,3.4,1.07,6.8,1.6,10.2.94,6,1.58,9.17,4.43,11.56a8.52,8.52,0,0,0,6.54,2c3.34-.14,4.78-1.23,5.74-2.23a4,4,0,0,1,.47-.52c2.07-3,1.44-6.58.32-10C714.74,827,714.59,826.12,714.26,825.48Z" style="fill: #afb6d1"/>
    <path d="M731.73,647.55a8.82,8.82,0,0,1-2.08.62,5.41,5.41,0,0,1-1.42.33v9.26l1.74.34c.16-2.21.31-2.77,2.87-2.27l3.52.69,10.34,2.56c5.57,1.49,5.73,1.71,5.9,4.54l1.74.32a48,48,0,0,1-.17-4.85,38.86,38.86,0,0,1,.17-4.43l-1.74-.32c-.17,2.38-.48,2.56-4.29,1.84l-2.73-.51-9.39-2c1.76-.45,2.24-.55,3.8-1L750.85,649c1.42-.32,1.75-.46,3.49-1v-2.42c-1.74-1.13-2.07-1.4-3.67-2.5q-4.77-3.42-9.53-6.87a47.81,47.81,0,0,0-5.27-3.81q5.42,1.05,10.83,2.07c5.57,1,5.9,1.29,5.9,4.72l1.74.33c-.17-2.68-.17-5.1-.17-7.71,0-2,0-4,.17-6.22l-1.74-.32v.05c0,3.22-.33,3.16-5.9,2.33q-5.66-1.06-11.3-2.16c-4.93-1-5.43-1.06-5.43-3.7l-1.74-.34v9.07c.49.32,1,.61,1.42.89,1.6,1.1,2.54,1.69,4.78,3.36l5.09,3.6c2.54,1.89,3.35,2.45,6.53,4.68-3.18,1-3.8,1.07-6.85,2.12Z" style="fill: #afb6d1"/>
    <path d="M745.12,761.39,745,763.6c3,1.38,7.46,3.42,7.46,9.87,0,6.82-5.4,8.26-11.13,7.16a15.49,15.49,0,0,1-8.92-4.75,9.29,9.29,0,0,1-2.4-6.7c0-6.85,5.27-6.41,6.54-6.39l-.15-2.45c-2.88-.39-3.83-.34-6.71-.9l-.47-.1c-1.12,5-1.59,7.15-1.59,10.58a22.31,22.31,0,0,0,2,9.66,16.55,16.55,0,0,0,11.79,9.14c7.64,1.46,13.39-2.94,13.39-12.82,0-4.63-1-7.44-2.23-11.69Z" style="fill: #afb6d1"/>
    <path d="M667.14,826.06l-4.8-19.18c-.65-3-.94-3.84-1.44-6.14l-4,.74-.17.15-1.26,4c-.74,2.25-1.49,4.5-2.23,6.75q-.94,2.73-1.91,5.46l-1.59,4.29c-1.28,3.74-1.61,4.5-3,4.36l-.46-.11v2l7.62,1.66v-2a1.75,1.75,0,0,1-1.73-2c0-1.21,1-4.21,1.59-6.7l6.35,1.37c.26,1.13.53,2.26.79,3.39a26.48,26.48,0,0,1,.79,4.23c0,1.38-.95,1.17-1.72,1.21v1.81l10.17,2.2v-2C668.39,831.14,668.23,830.94,667.14,826.06Zm-12.59-8.95c.8-2.72,1.59-5.45,2.39-8.17l.3-.74q1.13,5,2.24,10Z" style="fill: #afb6d1"/>
    <path d="M647.08,820.91l-.34-.26-1.41-.73c-.8,2.27-1.76,5.48-5.89,4.58-2.71-.59-2.87-1.44-2.87-5.88V803.7c0-5.05.16-5.2,2.7-4.84v-2c-1.9-.42-3.81-.61-5.89-1.07a43.85,43.85,0,0,1-5.08-1.33v2c2.24.49,2.53.76,2.52,6v15.1c0,4.85-.14,5.61-2.52,5.09v1.82l17,3.71c.62-2.69.78-3.65,1.41-5.92A4.38,4.38,0,0,1,647.08,820.91Z" style="fill: #afb6d1"/>
    <path d="M690.38,832.22Q688,827,685.62,821.74a5.23,5.23,0,0,0,3.82-2.84,10.51,10.51,0,0,0-2.25-10.74,11.17,11.17,0,0,0-4.93-2.07l-1-.2a42,42,0,0,1-4.63-.77c-2-.44-4.12-.88-6.37-1.58v2c2.41.51,2.55,1.17,2.55,6.22v15.5c0,4.43-.15,5-2.55,4.47v1.82l10.85,2.32v-1.82c-1.75-.37-2.39-.71-2.54-2.75v-9.46l1.42.1c.43,1,.86,2.06,1.28,3.09q1.44,3.52,2.87,7c1.91,4.83,2.22,4.9,5.87,5.67l3.36.7v-1.82c-.16,0-.31-.26-.49-.3C692.13,835.8,691.5,834.88,690.38,832.22Zm-7.63-13.28a2,2,0,0,1-1.44,1.07,6.48,6.48,0,0,1-2.7-.17V808a12.7,12.7,0,0,1,2.7.78,3.31,3.31,0,0,1,1.44,1.09,9.2,9.2,0,0,1,1.09,4.86C683.84,817.54,682.91,818.72,682.75,818.94Z" style="fill: #afb6d1"/>
    <path d="M746.23,609.83c0-2.81-1.9-5.59-4.14-6s-4.31,1.6-4.31,4.41c0,3,1.92,5.83,4.31,6.28S746.23,612.85,746.23,609.83Z" style="fill: #afb6d1"/>
    <path d="M743.84,666.6c-7.47-1.42-9.54-1.83-11.46-2.37-2.24-.63-2.4-1.25-2.4-3.69l-1.74-.34a47.82,47.82,0,0,1,.16,4.86c0,1.64,0,3-.16,5.24l1.74.34c.16-1.8.16-2.63,1.28-2.59,1-.23,4.15.39,8.92,1.31,4.94.94,5.41,1,6.69,1.52a7.28,7.28,0,0,1,4.45,3.41,9,9,0,0,1,.81,3.57,5.11,5.11,0,0,1-1,3.46,5,5,0,0,1-3.83,1.72c-1.76,0-3.67-.32-8.45-1.24-1.44-.27-5.72-1.1-7.15-1.55-1.61-.75-1.77-1.56-1.77-3.36l-1.74-.34c.16,2.6.16,4.84.16,7.06s0,4.43-.16,6.64l1.74.34c.16-2.81.63-2.92,4.32-2.2l8.59,1.65c5.1.79,8,1.32,10-1.72,1.12-1.42,1.92-3.67,1.92-7.71,0-5.05-1.29-7.29-2.08-8.61C750.36,668.07,746.86,667.41,743.84,666.6Z" style="fill: #afb6d1"/>
    <path d="M747,571.31c-4.77-.9-6.69,2.76-8.45,6.44-1.73,3.29-2.55,5-4.78,4.53-2.07-.4-3.5-2.89-3.5-5.73a6,6,0,0,1,.8-3.28c1.11-2.59,3.49-2.95,5.42-3.15L736,567.4c-2.86.05-3.65.1-6.36.19l-.16,0a29.94,29.94,0,0,0-1.44,8.55,17.61,17.61,0,0,0,1.6,7.57,10.12,10.12,0,0,0,7,5.81c4.94,1,6.86-2.71,9.41-7.66,1.42-2.38,2.24-3.61,3.82-3.31,1.75.33,3,2.35,3,5.19a4.67,4.67,0,0,1-1.42,3.54,4.16,4.16,0,0,1-3.65,1.15c.1.88.21,1.76.31,2.64,2.86.16,3.64.31,6,.55a25.59,25.59,0,0,0,1-7.48C755.15,575.23,750.53,572,747,571.31Z" style="fill: #afb6d1"/>
    <path d="M747.35,719.1c-.17.65-.33,1.3-.49,1.95,2.41,1.63,3.5,2.45,4.31,4s1,3.2,1,5.21c0,3.43-1,3.44-3.19,3L741.79,732a47.18,47.18,0,0,1,.15-4.8c.32-1.35,1.26-1.39,2.85-1.26v-2.2a39.15,39.15,0,0,1-4.31-.66,31.38,31.38,0,0,1-3.82-.9v2.2c2.87.73,3,1.2,3,7.22l-6.06-1.17c-3.17-.62-3.34-.65-3.34-3.08,0-4.83.63-5.49,4.62-5.74l-.33-2.29c-2.05-.21-3.17-.21-4.93-.37a3,3,0,0,0-1.42-.06c0,2.22.16,12.92.16,15.13,0,1.61,0,3.23-.16,6l1.74.34c.16-3,.16-3,5.73-2.12q6.06,1.18,12.12,2.32c4.29,1,4.6,1,4.77,4.12a5.93,5.93,0,0,1-1.59,4.15c-2.4,2.16-6.54,1.77-9.71,1.16-4.32-.82-6.71-2.1-8-3.15a7.64,7.64,0,0,1-3.33-6.3l-1.74-.34a23.44,23.44,0,0,0,1.42,7.74,15.21,15.21,0,0,0,11.64,10.32c9.37,1.79,13-5.43,13-13.27,0-4.87-.17-7.49-.17-11.74,0-3.63,0-7.25.17-10.84A58.48,58.48,0,0,1,747.35,719.1Z" style="fill: #afb6d1"/>
    <path d="M747.49,706.23l-12.9-2.46c-4.12-.81-4.61-.91-4.61-4.32l-1.74-.34c0,2.57.16,5.06.16,7.47,0,2.24,0,4.21-.16,6.6l1.74.34c0-2.79.16-3.16,4.78-2.26,4.36.84,8.72,1.68,13.07,2.49,4.13,1,4.77,1.1,4.77,4.09l1.57.29V696.58c-2.86-1.55-3.64-1.86-6.52-3.63l-.63,2.3c2.06,1.18,5.08,3.19,5.08,8.21C752.12,707.1,751.48,707,747.49,706.23Z" style="fill: #afb6d1"/>
    <path d="M539,409.29c-1.11,1-2.54.7-4.28.36-2.87-.57-3.06-1.82-3.2-4.64V395.7c.79.16,3.66.72,4.31,1.26,1.1.64,1.26,1.68,1.42,3.71l1.92.39c-.18-1.86-.18-3.66-.18-5.49a42.61,42.61,0,0,1,.18-4.8l-1.92-.38c-.17,3.79-.49,3.72-5.75,2.88v-7.86c0-4,0-4,2.06-3.6,4.15.82,4.95,1.79,5.76,6.79l1.89.17c-.31-3.49-.47-4.52-.63-8.19q-9.08-1.81-18.15-3.57v2.22c2.55.49,2.71.73,2.71,7.78v15.34c0,5.42,0,5.84-2.71,5.5v2q9.63,1.86,19.26,3.79c.8-4,1-4.85,1.75-8.31l-1.75-1C540.63,407,540.14,408.32,539,409.29Z" style="fill: #afb6d1"/>
    <path d="M492.51,723.5v0c0-2.41.33-2.56,4.15-3.47l2.55-.55c2.33-.6,4.67-1.18,7-1.77l5.91-1.29.31-.13a29.55,29.55,0,0,1,4.93-.88l-1.44-6.15q-1.81-1.24-3.65-2.47l-.15,0-5.91-3.93-.15-.23-5.26-3.59-1.59-1.1-2.4-1.64c-3.84-2.71-4.14-3.16-4.31-5.6l-1.92-.34a56.73,56.73,0,0,1,.19,5.67,40.22,40.22,0,0,1-.19,4.8l1.92.34c0-.79-.15-2.45,1.44-2.17a19.74,19.74,0,0,1,5.25,2.78c.17.2.49.25.81.51V711l-.81.08-2.05.4a11.67,11.67,0,0,1-3.34.62c-1.3-.23-1.3-1.63-1.45-2.68l-1.77-.32c.19,2.26.19,4.65.19,7.09,0,2.21,0,4.43-.19,7Zm9.58-19.8,4.12,2.58,4.15,2.59-4.15.84-4.12.86Z" style="fill: #afb6d1"/>
    <path d="M504.24,757.92a15.35,15.35,0,0,1-5.51-.36,5.82,5.82,0,0,1-4-4.39c-1.85-5.52,2.88-9.19,8.64-11a21.06,21.06,0,0,1,5.1-1,10.51,10.51,0,0,1,4.77.57,6.75,6.75,0,0,1,2.9,2.33,7.69,7.69,0,0,1,1,2.27c1.82,5.56-3.43,7.86-4.56,8.36.24.67.48,1.34.73,2a22.94,22.94,0,0,1,4-1.43,29.7,29.7,0,0,1,3-1.13c0-1.47-.07-2.78-.1-3.79a32.24,32.24,0,0,0-1.08-5.77c-.52-1.26-.91-2.43-1.4-3.41a11.33,11.33,0,0,0-6.14-5.45,14.5,14.5,0,0,0-10.53-.27c-7.79,2.37-11.89,8.62-9.34,16.88a24.35,24.35,0,0,0,4.94,8.52l.14.14,7.88-1.06C504.59,759.26,504.41,758.59,504.24,757.92Z" style="fill: #afb6d1"/>
    <path d="M617.6,820.31c-5.39-1.17-7.33-8-7.33-14.49,0-3.22.48-7.36,2.4-9.93.93-1.43,2.56-2.09,4.93-1.57,5.24,1.14,5.9,7.33,6,9l1.93.18c-.19-3.64-.33-4.68-.33-8.5-4.13-2.13-5.88-3.09-8.59-3.68-9.24-2-12.44,5.75-12.44,13.21,0,9.09,4,16.39,11.81,18.09,3.65.79,5.71.21,8.9-.47q.57-4.21,1.12-8.43l-1.76-.6C623.64,816.41,622.71,821.42,617.6,820.31Z" style="fill: #afb6d1"/>
    <path d="M499.21,691.5a6.37,6.37,0,0,0,1.91.56l5.11.94c3,.56,4.62,1.06,5.9,1.3l.47.09c2.06.57,2.23,1.41,2.39,3.88l1.61.31V687.69l-1.61-.31c-.16,2-.16,2.77-1.27,3a3.18,3.18,0,0,1-1.59-.08,51.57,51.57,0,0,1-5.9-.9l-1.44-.26a33.34,33.34,0,0,1-5.57-1.22l-1.1-.2a8.07,8.07,0,0,1-4.47-3.83,7.27,7.27,0,0,1-.78-3.76,5.59,5.59,0,0,1,1-3.66c.29-.54,1.1-1.83,3.81-1.93.49-.13,1,0,1.59-.15l6.86,1.25.15,0,5.91,1.1a2.64,2.64,0,0,0,1.1.43c1.6.52,1.74,1.74,1.6,3.51l1.75.34v-14.9L515,665.8c-.16,2.8-.46,3.16-2.84,2.9q-6.46-1.22-12.92-2.38c-3.34-.4-5.58,0-7.15,2.56-1.12,1.62-1.92,4.09-1.92,8.33,0,5.44,1.12,7.82,2.07,9.44C494.11,689.81,496.66,690.83,499.21,691.5Z" style="fill: #afb6d1"/>
    <path d="M490.79,647.3a21.28,21.28,0,0,0,1.88,5.33,19.56,19.56,0,0,0,5.1,6.17c.49.29,1,.57,1.44.9a13,13,0,0,0,4.46,1.58,10.45,10.45,0,0,0,2.54.27,10,10,0,0,0,5.91-1.93,8.36,8.36,0,0,0,1.42-1.35c2.07-2.24,3.64-6,3.64-11.2a23.22,23.22,0,0,0-5.06-14.86c-.49-.48-1-1-1.45-1.47a16.45,16.45,0,0,0-4.46-2.84c-.94-.18-1.75-.53-2.71-.71a10.87,10.87,0,0,0-4.29,0,8.39,8.39,0,0,0-5.75,3.2,14.51,14.51,0,0,0-2.21,3.63c-.16.38-.16,1-.33,1.36a38,38,0,0,0-2.54,4.79,75.86,75.86,0,0,0-5.25,10.76,26.49,26.49,0,0,0-1.28,8.67A67.81,67.81,0,0,0,483,670.9l1.58.27a30.63,30.63,0,0,1-.47-4.93,20,20,0,0,1,.8-5.93C485.82,656.89,486.79,654.85,490.79,647.3Zm3.16-9.56c1.26-1.39,3.2-1.83,5.26-1.87a16.9,16.9,0,0,1,4.46.41,12.55,12.55,0,0,1,2.54.67,10.52,10.52,0,0,1,2.55.9,17.12,17.12,0,0,1,3.36,2,11.58,11.58,0,0,1,2.07,2.83,8.66,8.66,0,0,1,.77,3.95,5.85,5.85,0,0,1-2.07,4.85,2.53,2.53,0,0,0-.79.46,10.12,10.12,0,0,1-5.9.93l-3.5-.64a27,27,0,0,1-3.51-.84,11.2,11.2,0,0,1-5.39-4,8.79,8.79,0,0,1-1.62-5.12A6.73,6.73,0,0,1,494,637.74Z" style="fill: #afb6d1"/>
    <path d="M510.17,780.21c-1.95-3-.4-2.78,2.61-4.69q5.24-3,10.48-5.95c3.45-1.81,3-3,4.93-.3l1.44-.75-4.23-6c-1.16-1.93-2.2-3.38-3.57-5.61l-1.45.78c1.5,2.4,2.3,3.78-1.37,5.88L508.66,770c-2.23,1.35-3.46,1.89-4.47,1.28a4.3,4.3,0,0,1-1.6-1.69l-1.34,1.51,1.37,1.91c.58,1.08,1.16,1.9,2.65,4.26,4.92,7.22,5.17,7.56,7.11,10.57,2.57-1.42,3.23-1.58,5.71-2.9-.32-.71-.64-1.43-1-2.15C515.38,783.63,513,784.23,510.17,780.21Z" style="fill: #afb6d1"/>
    <path d="M597.37,811.11c-1.74-.38-3,1.15-3,3.37a3.66,3.66,0,0,0,2.53,3.8c.47.1,1.11.24,1.11,1.41a8.78,8.78,0,0,1-.31,1.35,3.42,3.42,0,0,1-2.71,1.24l-.16,1.76c1.11,0,3.18.32,4.8-1.77a9.52,9.52,0,0,0,1.25-4.78C600.86,814.47,599.63,811.59,597.37,811.11Z" style="fill: #afb6d1"/>
    <path d="M596.17,425.08c1.6.34,2.9.42,4.48.76,1.28.28,2.55.75,3.82,1v-2.22a2.07,2.07,0,0,1-1.91-2.23c0-1.42,1-4.63,1.76-7.27l6.85,1.49c.27,1.2.53,2.41.8,3.61a23.68,23.68,0,0,1,.95,4.6c0,1.43-1.11,1.39-1.92,1.21v2.23c1.78.38,3.67.59,5.6,1,1.74.38,3.47,1,5.38,1.38v-2.23c-1.72-.37-1.91-.82-3.16-6.14q-2.62-10.55-5.27-21.1c-.79-3.2-.95-4-1.42-6.57l-4.3.85-.31.17c-.49,1.44-1,2.88-1.45,4.32-.8,2.44-1.59,4.88-2.39,7.33q-1,3.1-2.08,6.21-.78,2.34-1.58,4.68c-1.59,4.28-1.92,4.61-3.85,4.62-1.26-.46-1.72-1.4-3.32-4.76q-2.54-5.67-5.08-11.36a6.49,6.49,0,0,0,4.12-3.15,9.29,9.29,0,0,0,.81-4.26,9.49,9.49,0,0,0-3.18-7.33,11.44,11.44,0,0,0-5.43-2.37l-1.09-.24c-1.61-.34-4.14-.67-5-.85-2.22-.47-4.46-1.14-6.86-1.65v2.22c2.73.58,2.73,1.19,2.73,6.62v17.14c0,4.63-.17,5.2-2.73,4.66v2.22c2.73.58,4.64.78,6.38,1.15,2.07.44,3.66,1,5.43,1.36V420c-1.92-.22-2.71-.76-2.71-3a27,27,0,0,1-.18-4.46v-5.88l1.6.34,1.29,3.1q1.59,3.87,3.17,7.72c2.22,5.32,2.39,5.36,6.37,6.21l3.63.79Zm11.66-21.49.16-.94,2.55,11.23-5.42-1.18C606,409.66,606.93,406.63,607.83,403.59Zm-23.1-.11a3.55,3.55,0,0,1-1.73,1.23,7.45,7.45,0,0,1-2.89-.23V391.42a13.56,13.56,0,0,1,2.89.81,6.38,6.38,0,0,1,1.59,1.35,9.91,9.91,0,0,1,1.44,5.33C586,402.14,584.88,403.31,584.73,403.48Z" style="fill: #afb6d1"/>
    <path d="M539.57,797.7Q538.3,788,537,778.4c-.47-3.06-.54-3.88-.77-6.22l-4.13.09-.33.07c-.52,1.23-1,2.46-1.58,3.68-1,2.07-2,4.13-3,6.2q-1.27,2.49-2.53,5-1.06,1.95-2.11,3.9c-1.91,3.75-2.25,4-4,3.58l-.21,2,7.57,2.82.21-2a1.77,1.77,0,0,1-1.55-2.2,30.75,30.75,0,0,1,2.36-6.26c2.05.78,4.11,1.55,6.16,2.34.15,1.14.29,2.28.44,3.42a21,21,0,0,1,.48,4.27c-.15,1.36-1.27.94-2.05.84l-.24,1.75L542,805.53l.21-2C540.44,802.91,540.33,802.48,539.57,797.7ZM527.8,787c1.16-2.48,2.32-5,3.49-7.45l.39-.66c.38,3.34.77,6.67,1.15,10Z" style="fill: #afb6d1"/>
    <path d="M588.14,808.92q-2.39-9.58-4.76-19.17c-.8-3-1-3.84-1.45-6.13l-4,.76-.32.11-1.11,4-2.22,6.77c-.64,1.82-1.29,3.64-1.93,5.47L570.8,805c-1.44,4.13-1.75,4.48-3.51,4.28v.2c-1.13-.6-1.59-1.34-3-4.43l-4.77-10.47a4.57,4.57,0,0,0,3.8-2.85,6.93,6.93,0,0,0,.83-3.65,9.88,9.88,0,0,0-2.87-7.05,11.66,11.66,0,0,0-5.12-2.08l-1-.2a41.13,41.13,0,0,1-4.45-.69c-2.23-.46-4.3-.88-6.36-1.52v2c2.38.48,2.38,1.11,2.54,6.19v15.5c-.16,4.4-.16,5-2.54,4.51v1.81l10.81,2.21V807c-1.74-.36-2.38-.69-2.54-2.73a28.29,28.29,0,0,1-.16-4.25v-5.22l1.61.13,1.11,3,2.87,7c2.07,4.63,2.23,4.66,5.89,5.65l11,2.31v-2c-.64-.14-1.77-.17-1.77-2a31.28,31.28,0,0,1,1.61-6.72l6.35,1.35c.21,1.12.43,2.23.64,3.35a20.12,20.12,0,0,1,1,4.26c0,1.38-1.11,1.15-1.76,1.21v1.82l10.19,2.18v-2C589.4,814,589.24,813.58,588.14,808.92Zm-31.37-17.07a2.11,2.11,0,0,1-1.61,1,5.23,5.23,0,0,1-2.54-.12V780.9a11.16,11.16,0,0,1,2.54.72,2.41,2.41,0,0,1,1.45,1.09,7.91,7.91,0,0,1,1.28,4.9A6.66,6.66,0,0,1,556.77,791.85ZM575.41,800c.85-2.72,1.7-5.43,2.54-8.15l.31-.74,2.22,10Z" style="fill: #afb6d1"/>
    <path d="M493.16,439.91l6,4.11.17.24,5.25,3.58,1.6,1.09,2.37,1.65a30.14,30.14,0,0,1,3.53,2.88,6.26,6.26,0,0,1,.79,2.78l1.74.32V446.08l-1.74-.33c0,.62,0,2-.79,2.27l-.65-.12c-.93-.17-3.17-1.59-5.24-2.78a6.19,6.19,0,0,1-.79-.55v-8.65l.79-.07,1.91-.44a11.18,11.18,0,0,1,3.51-.54l.48.09c.79.55.79,1.73.79,2.56l1.74.33c0-2.41-.14-4.66-.14-7.07s.14-4.43.14-7l-1.74-.33c0,1.41-.15,2-.79,2.48a12.89,12.89,0,0,1-3.53,1l-2.37.59-7,1.71-6.36,1.49c-2.25.41-3,.7-4.78.94q.71,3.07,1.43,6.13Zm6-2.74,4.15-.88v6.89l-4.15-2.57L495.07,438Z" style="fill: #afb6d1"/>
    <path d="M580.67,633.87a13.24,13.24,0,0,0-9.42-5,11.88,11.88,0,0,1,7.84-5.73l.63-.19c-.09-.28-.17-.56-.25-.84-.25-.81-.46-1.63-.62-2.42l-.19-.88L578,619a16.75,16.75,0,0,0-9,5.58A21.58,21.58,0,0,0,564,609.89c-3.53-4.12-8.12-5.88-12.27-4.67l-.35.08,0,.49a21.6,21.6,0,0,0,1.73,10.14,12.34,12.34,0,0,0-1.92-.39c-5.6-.74-10.53,2.32-13.19,8.09,0,.14-.11.28-.17.42l.24.47a21.51,21.51,0,0,0,10.26,10.37.15.15,0,0,1-.08.08c-4.65,6-6.08,15.07-3.82,24.24l.13.48.39.17c6.6,2.61,13.16,1.2,17.8-3.77a25.57,25.57,0,0,0,8.85,14.16l.35.29.31-.27c4.35-3.63,6.48-10.09,5.69-17.26a25.72,25.72,0,0,0-.88-4.43,10.47,10.47,0,0,0,8.11,1.3l.39-.08c0-.18,0-.35,0-.52A21.51,21.51,0,0,0,580.67,633.87Z" style="fill: #002b5d"/>
    <path d="M579.89,635c-2.54-3-5.82-4.64-9-4.54h-.35l-.24-.41a2.69,2.69,0,0,0-.24-.33,1.17,1.17,0,0,0-.17-.26l-.31-.5.21-.48a12.87,12.87,0,0,1,8.3-6.88,6.16,6.16,0,0,1-.25-.88,15.73,15.73,0,0,0-8.83,6.32l-.39.6c-.18-.21-.35-.43-.52-.64-.06,0-.1-.11-.16-.19s-.06-.09-.12-.11c-.23-.26-.5-.55-.81-.86l-1.21-1.23,1.39-.23h.11l.39-.08a19.29,19.29,0,0,0-4.42-13.3c-3.06-3.55-7-5.16-10.61-4.3a19.34,19.34,0,0,0,2.27,10l1,1.81-1.57-.62a11.59,11.59,0,0,0-3-.76c-5-.66-9.41,2-11.9,7,2.48,4.72,6.22,8.19,10.3,9.54l1.33.43-.93,1c-.29.36-.57.65-.83,1-4.27,5.5-5.61,13.75-3.69,22.18,6.42,2.36,12.75.73,17-4.53l.84-1c.09.52.19,1,.28,1.57a24,24,0,0,0,8.08,14.09c3.78-3.36,5.64-9.15,4.94-15.58a27.42,27.42,0,0,0-1.36-5.79l-.77-2.17,1.59,1.23a10,10,0,0,0,8.18,2.1A19.22,19.22,0,0,0,579.89,635Z" style="fill: #6a9519"/>
    <path d="M566,650.19c-2.82-.59-5.11,2.47-5.11,6.83s2.29,8.37,5.11,9,5.12-2.46,5.12-6.82S568.83,650.78,566,650.19Z" style="fill: #522078"/>
    <path d="M576.23,652.34c-2.83-.6-5.11,2.46-5.11,6.82s2.28,8.37,5.11,9,5.11-2.45,5.11-6.81S579.05,652.94,576.23,652.34Z" style="fill: #522078"/>
    <path d="M561,635.47c-2.82-.59-5.1,2.48-5.1,6.84s2.28,8.36,5.1,9,5.1-2.47,5.1-6.83S563.79,636.05,561,635.47Z" style="fill: #522078"/>
    <path d="M571.19,637.61c-2.82-.6-5.11,2.46-5.11,6.82s2.29,8.37,5.11,9,5.12-2.46,5.12-6.82S574,638.2,571.19,637.61Z" style="fill: #522078"/>
    <path d="M571.19,664.86c-2.82-.59-5.11,2.47-5.11,6.83s2.29,8.37,5.11,9,5.12-2.45,5.12-6.81S574,665.46,571.19,664.86Z" style="fill: #522078"/>
    <path d="M581.41,639.82c-2.83-.6-5.12,2.44-5.12,6.79s2.29,8.37,5.12,9,5.11-2.44,5.11-6.79S584.23,640.42,581.41,639.82Z" style="fill: #522078"/>
    <path d="M566.07,622.91c-2.82-.59-5.11,2.46-5.11,6.81s2.29,8.36,5.11,8.95,5.11-2.45,5.11-6.81S568.89,623.5,566.07,622.91Z" style="fill: #522078"/>
    <path d="M576.31,625.07c-2.83-.6-5.12,2.44-5.12,6.8s2.29,8.36,5.12,9,5.11-2.44,5.11-6.79S579.13,625.67,576.31,625.07Z" style="fill: #522078"/>
    <path d="M586.5,627.24c-2.81-.6-5.1,2.45-5.09,6.81s2.28,8.38,5.09,9,5.1-2.44,5.1-6.8S589.32,627.84,586.5,627.24Z" style="fill: #522078"/>
    <path d="M555.86,620.79c-2.82-.58-5.1,2.49-5.1,6.85s2.28,8.36,5.1,8.94,5.1-2.48,5.1-6.84S558.67,621.37,555.86,620.79Z" style="fill: #522078"/>
    <path d="M703,591.06c-1.31-4.21-4.89-6.82-8-5.89l-1.82-2.67a10.15,10.15,0,0,0-3.33-10.83L682.08,566c-3.13-2.28-6.71-1.17-8,2.5l-2.57-.55c-1.31-4.24-4.91-6.86-8-5.93l-7.76,2.4c-3.13,1-4.63,5.19-3.33,9.43-.6.63-1.2,1.26-1.79,1.9-3.14-2.28-6.71-1.18-8,2.47q-1.58,4.49-3.16,9l-.37,1,4.87,1.07.16-.49c.71-2,1.43-4,2.14-6a3.12,3.12,0,0,0,.54,1.19,2,2,0,0,0,1.62,1c.37.08.62-.12.92-.26l-1.5,4.3c-.13.35-.25.7-.37,1l4.95,1.08c.06-.16.11-.33.16-.49l1.44-4a9.8,9.8,0,0,0-.13-6.21c.59-.6,1.14-1.2,1.73-1.81a5.33,5.33,0,0,0,4.85,1.18l7.78-2.41a5.42,5.42,0,0,0,3.37-3.74l2.46.53a9.46,9.46,0,0,0,3.36,5.17l7.76,5.74a5.2,5.2,0,0,0,4.9.88l1.74,2.56a9.44,9.44,0,0,0-.13,6.17l1.41,4.62c.06.19.12.37.19.56l5,1c-.12-.4-.25-.8-.37-1.2l-1.5-5a2.38,2.38,0,0,0,1,.73,1.52,1.52,0,0,0,1.54-.39,2,2,0,0,0,.54-1c.71,2.32,1.42,4.65,2.12,7,.07.19.13.38.2.56l4.85,1-.45-1.2Zm-43.28-17.34a2.83,2.83,0,0,0,.39-1.18,3.75,3.75,0,0,0-.55-2.07,2.44,2.44,0,0,0-1.09-.78l5.7-1.76a2.4,2.4,0,0,0-.47,1.28,3.16,3.16,0,0,0,.86,2.21,3.09,3.09,0,0,0,.6.64ZM686,576.11a2.42,2.42,0,0,0-.51,2.11,3.19,3.19,0,0,0,.13.89l-5.22-3.84a1.87,1.87,0,0,0,.75-.49,2.34,2.34,0,0,0,.7-1.72,3.58,3.58,0,0,0-.24-1.3l5.47,4C686.7,575.85,686.31,575.8,686,576.11Z" style="fill: #002b5d"/>
    <path d="M664.57,571.43h0c0-.07-.11-.1-.16-.18Z" style="fill: #002b5d"/>
    <path d="M657.89,570.9a.7.7,0,0,0-.75.19s-.15.17-.28.29c-.26.28-.62.64-1.21,1.27s-1,1.11-1.65,1.73l-.92,1c-.48.52-.94,1-1.43,1.51l-.9,1c-.62.62-1.18,1.21-1.66,1.74s-1,1-1.22,1.26l-.25.28a1.1,1.1,0,0,0-.3.88,1.64,1.64,0,0,0,.3,1c.12.18.36.36.42.33h.08l.14,0a.72.72,0,0,0,.73-.21l.56-.56,1-1.07c.53-.57,1.07-1.13,1.61-1.69.3-.33.61-.65.92-1l2.26-2.39c.54-.56,1.08-1.12,1.61-1.69l1.57-1.61a1.14,1.14,0,0,0,.29-.9,1.54,1.54,0,0,0-.17-.83A1.05,1.05,0,0,0,657.89,570.9Z" style="fill: #ba9400"/>
    <path d="M685.49,578.22h0c0-.1,0-.17,0-.27Z"/>
    <path d="M651,583.39a4.38,4.38,0,0,1-.21,1.35l-1.43,4.08,2.19.48,1.23-3.59a7.18,7.18,0,0,0,.07-4.21Z" style="fill: #ba9400"/>
    <path d="M643.76,579,641,587l2.07.45c.78-2.24,1.57-4.47,2.36-6.71a2.51,2.51,0,0,1,1.55-1.65c.13,0,.26,0,.38,0l2.15-2.27A3.83,3.83,0,0,0,643.76,579Z" style="fill: #ba9400"/>
    <path d="M664,563.59,656.19,566a4.06,4.06,0,0,0-2.62,2.77,7.38,7.38,0,0,0-.14,3.89l2.15-2.22c0-.13,0-.35.09-.47a2.46,2.46,0,0,1,1.57-1.68l7.13-2.2a2.58,2.58,0,0,1,2.21.48,1.83,1.83,0,0,1,.32.35l3.06.66C668.76,564.64,666.23,562.9,664,563.59Z" style="fill: #ba9400"/>
    <path d="M689.35,573.1l-7.76-5.72a3.81,3.81,0,0,0-6,1.4l3.06.65a1.36,1.36,0,0,1,.31-.24,2.64,2.64,0,0,1,2.23.48l7.11,5.24a4.32,4.32,0,0,1,1.57,2.35,1.58,1.58,0,0,1,.09.49l2.17,3.18A7.61,7.61,0,0,0,692,577,7.38,7.38,0,0,0,689.35,573.1Z" style="fill: #ba9400"/>
    <path d="M694.58,592.69c-.61-.9-1.21-1.81-1.82-2.72a7.56,7.56,0,0,0,0,4.29l1.26,4.12,2.16.45-1.41-4.69A4.12,4.12,0,0,1,694.58,592.69Z" style="fill: #ba9400"/>
    <path d="M666.6,573.33l-7.12,2.21a2.18,2.18,0,0,1-1.08.05l-1.83,1.94a4,4,0,0,0,3.35.64l7.76-2.42a4,4,0,0,0,2.43-2.42l-2.58-.55A2.12,2.12,0,0,1,666.6,573.33Z" style="fill: #ba9400"/>
    <path d="M686.07,581.23,679,576a4.07,4.07,0,0,1-1-1l-2.55-.55a7.2,7.2,0,0,0,2.42,3.47l7.76,5.74a4.15,4.15,0,0,0,3.39.78l-1.83-2.69A2.51,2.51,0,0,1,686.07,581.23Z" style="fill: #ba9400"/>
    <path d="M696.07,586.76l2.16,3.19a2.18,2.18,0,0,1,.38.18,4.44,4.44,0,0,1,1.57,2.32l2.37,7.71,2,.42-2.79-9.15C700.86,588.38,698.39,586.49,696.07,586.76Z" style="fill: #ba9400"/>
    <path d="M694.79,587.23l-.9-1.36-1.43-2.1-4.05-6a1,1,0,0,0-.76-.52.71.71,0,0,0-.74.2.85.85,0,0,0-.2.5h0l0,.12v.14a1.69,1.69,0,0,0,.28,1l1.51,2.19,1.65,2.45c1.07,1.58,2.13,3.16,3.2,4.73.55.79,1.09,1.59,1.63,2.38l1.55,2.31a1.1,1.1,0,0,0,.75.53.64.64,0,0,0,.62-.11,1.12,1.12,0,0,0,.29-.88,1.64,1.64,0,0,0-.29-1Z" style="fill: #ba9400"/>
    <path d="M679.51,571.21q-6.74-1.43-13.45-2.88a.69.69,0,0,0-.74.27,1.09,1.09,0,0,0-.32.87,1.36,1.36,0,0,0,.16.59l.08.07.08.12a1.1,1.1,0,0,0,.74.58l13.45,2.88a.66.66,0,0,0,.72-.27,1,1,0,0,0,.32-.64,1.56,1.56,0,0,0-.32-1A1,1,0,0,0,679.51,571.21Z" style="fill: #ba9400"/>
    <path d="M643.41,273.11c-1-.21-1.77.62-1.77,1.87a2.67,2.67,0,0,0,1.77,2.64c1,.21,1.76-.62,1.76-1.87A2.67,2.67,0,0,0,643.41,273.11Z" style="fill: #002b5d"/>
  </g>
</svg>
