<svg xmlns="http://www.w3.org/2000/svg" viewBox="0 0 1260 1012.04">
  <g>
    <path d="M0,90.08v920C420,738.76,840,1193.28,1260,922V2C840,273.28,420-181.24,0,90.08Z" style="fill: #fff;fill-rule: evenodd"/>
    <path d="M613.4,405.81q3.15,8.49,6.31,17,2.68-5.83,5.35-11.66c-.48-9.06,2.66-18.24,7.55-26.21,2.22.21,4.43.42,6.65.61q-9.87-1.31-19.83-3.53-7.24-1.55-14.47-3.54l0,.32.91.31C610.26,388.15,613.21,397.58,613.4,405.81Z" style="fill: #da251d"/>
    <path d="M655.33,402.4a17,17,0,0,0-3.49-3.46Z" style="fill: #da251d"/>
    <path d="M774.21,472.39l.45.15h0Z" style="fill: #da251d"/>
    <path d="M762,463.58c-8.24-9.65-11.95-24.46-2-36-.27.29-.53.61-.8.95.27-.34.53-.66.8-.95.53-.6,1.08-1.2,1.69-1.79-12.24-6.8-28.86,7.61-51.38,3.13-17.59-3.47-44.8-30.6-59.11-30.55l.57.53a17,17,0,0,1,3.49,3.46c26.48,28.92-8.31,60.62-27.16,20.94l-8.61,17q-4.15-11.43-8.33-22.85a16.3,16.3,0,0,1-.77,1.5c-18.63,32.23-53.82-14.44-27.48-32.17a9.43,9.43,0,0,1,3.76-2.1c.16-.08.31-.16.48-.23-14.41-6.28-41.55,9.33-59.21,5.82-22.44-4.5-39.12-24.95-51.37-22.41.4.53.79,1.06,1.16,1.6a19.72,19.72,0,0,1,1.38,2,19.72,19.72,0,0,0-1.38-2c10.69,15.36,7,29.21-1.41,36.1l0,0a67.71,67.71,0,0,1,1.1,12.11c-.12,28.63-13.75,47.73-10.19,64,.37-.46.74-.91,1.11-1.32a11.49,11.49,0,0,1,1.38-1.52,11.49,11.49,0,0,0-1.38,1.52c24.09-27.1,52.08,42.15,18.09,49.43a27.72,27.72,0,0,1-10.07.33c.62.09,1.23.17,1.85.22,6,25.56,24.32,52.72,14.75,89.51-3.24,12.42-10.67,18.82-19.36,20.22,40.47,226.32,268.6,258.62,291.27,59-8.8-4.35-16.34-13.49-19.55-27.2-9.63-40.31,8.77-60.7,14.69-84.24a26.16,26.16,0,0,0,2.68.57,31.89,31.89,0,0,1-10.79-4c-34.26-20-5.82-79,18.33-42.62a20.77,20.77,0,0,0-1.71-2.52,20.77,20.77,0,0,1,1.71,2.52c.26.38.51.76.76,1.16,3.58-15-10-38.74-10.17-67.45A72.44,72.44,0,0,1,762,463.58Z" style="fill: #da251d"/>
    <path d="M473.93,529.61l.14,0-.14,0Z" style="fill: #da251d"/>
    <path d="M474.83,407.33l-.39-.84h0l-.26.18.37.84Z"/>
    <path d="M474,407.87l-.18-.43-.18-.43-.31.18.36.86Z"/>
    <path d="M613,405.75q3.33,9,6.67,18l5.72-12.45v-.14c-.55-10.36,3.69-19.71,7.39-25.78l.4,0,6.09.56-.06-.93c-6.56-.87-13.19-2.05-19.81-3.53-4.8-1-9.68-2.22-14.45-3.54l-.32-.09c0,.4-.1.8-.14,1.2l1.12.38C610.31,389.11,612.87,398.19,613,405.75Zm6.39-23.3c4.21.93,8.45,1.76,12.68,2.46-3.72,6.16-7.93,15.56-7.41,26l-5,10.85-6-16c-.19-7.66-2.75-16.81-7.42-26.49C610.67,380.46,615.06,381.54,619.43,382.45Z"/>
    <path d="M769.16,470.37h0c.07-.28.15-.55.23-.83l-.59-.38c-.09.27-.17.54-.26.81.2.13.4.27.61.39Z"/>
    <path d="M768,469.62c.1-.27.19-.54.28-.81h0l-.55-.4c-.1.26-.19.53-.29.79l.57.41Z"/>
    <path d="M771.56,470.77h0l-.68-.36-.21.85.71.37Z"/>
    <path d="M469.74,409.79l-.26-.9-.09,0,.24.9Z"/>
    <path d="M770.58,470.25l-.64-.38h0c-.08.28-.15.56-.23.84l.65.38C770.44,470.81,770.51,470.53,770.58,470.25Z"/>
    <path d="M771.84,471.86l.76.35c0-.29.1-.59.14-.88L772,471C772,471.28,771.9,471.57,771.84,471.86Z"/>
    <path d="M773.1,472.42l.42.17c.05-.29.09-.59.14-.88l-.43-.17C773.19,471.83,773.14,472.13,773.1,472.42Z"/>
    <path d="M774.82,472.15l-.56-.21c0,.3-.07.6-.1.89l.86.3v-.82Z"/>
    <path d="M475.78,529.54v.92l.66.11v-.92Z"/>
    <path d="M475.64,529.52l-.13,0c0,.31,0,.62.05.93h.08Z"/>
    <path d="M761.28,475.37a71.67,71.67,0,0,1,1.1-11.63l0-.27-.17-.21a31.51,31.51,0,0,1-7.79-18.35A23.34,23.34,0,0,1,760.33,428c.58-.67,1.13-1.25,1.67-1.78l.47-.46-.61-.35c-6.24-3.46-13.59-1.51-22.11.68s-18.2,4.64-29.37,2.42l-.11,0c-8.33-1.69-18.89-8.71-29.1-15.54-11.52-7.7-22.38-15-30-15h-1l1.5,1.35c1.25,1.14,2.42,2.3,3.46,3.44,7.24,7.91,10.48,16.72,9.14,24.82-1.32,7.94-7.13,13.68-14.12,13.94-8.08.31-16-6.39-21.68-18.35l-.32-.68-8.56,16.93-8.34-22.89-.33.71c-.25.53-.51,1-.76,1.48-5.62,9.72-13.49,13.17-21.64,9.48-7-3.19-12.92-11.39-14.31-19.95s1.79-16.13,9-21a27.65,27.65,0,0,1,3.72-2.08l1.41-.66-1-.45c-7.62-3.31-18.5-.66-30,2.21-10.22,2.55-20.79,5.24-29.15,3.61l-.11,0c-11.12-2.23-20.78-8.38-29.3-13.75s-15.92-10-22.18-8.66l-.61.13.48.63c.39.52.77,1,1.14,1.58,4.52,6.49,6.75,13.26,6.45,19.57a21.56,21.56,0,0,1-7.8,15.83l0,0,.21.37-.29,0a68,68,0,0,1,1.09,12c-.06,14.19-3.44,26-6.42,36.37s-5.58,19.45-3.76,27.74l.18.82.43-.55c.36-.45.73-.88,1.1-1.31,6.21-7,13.3-8.07,20-3.08,8.13,6.07,13.82,19.72,13.24,31.67-.3,6.3-2.72,17.22-15.48,20a27.11,27.11,0,0,1-10,.33v.92h0c.52.08,1,.15,1.58.2a204.92,204.92,0,0,0,6.78,21.14c6.94,19.25,14.8,41.15,7.88,67.73-3,11.41-9.75,18.46-19.1,20l-.34.06c0,.15.05.3.08.45,9.55,53.91,30.44,99.95,60.4,134,25.07,28.47,56,47.82,87.75,54.76,2.18.47,4.38.89,6.56,1.25,32.87,5.37,64.31-3.24,88.55-24.5,26.58-23.29,43.43-60.32,48.71-106.39l0-.41-.31-.15c-9.5-4.69-16.35-14.26-19.3-26.84-6.93-29.05.9-48,7.8-64.72a143.62,143.62,0,0,0,6.81-18.92,22.1,22.1,0,0,0,2.42.5c0-.3,0-.61,0-.92h0a32.38,32.38,0,0,1-10.66-4,30.69,30.69,0,0,1-15.56-25.9c-.53-12.21,5.22-23.65,13.39-26.67,6.75-2.51,13.91,1.27,20.13,10.64h0c.26.38.51.76.76,1.16l.43.68.18-.76c1.83-7.69-.76-17.59-3.75-29.06S761.36,489.56,761.28,475.37Zm9.63,66.44-.3-.46a20.59,20.59,0,0,0-1.76-2.58l0,.05c-6-7.85-12.74-10.86-19.16-8.49-8.43,3.12-14.37,14.9-13.82,27.48.3,6.69,2.77,19.12,16.07,26.83a34.11,34.11,0,0,0,7.73,3.34,143.41,143.41,0,0,1-6.72,18.6c-7,16.9-14.86,36-7.84,65.4,3,12.77,9.91,22.52,19.49,27.39C752.67,802,687.46,839.21,628,829.19c-33.86-5.54-67.19-25.45-93.86-55.74-29.73-33.8-50.49-79.49-60-133,9.42-1.67,16.26-8.86,19.27-20.43,7-26.92-.92-49-7.92-68.43a202.43,202.43,0,0,1-6.69-20.79,27.55,27.55,0,0,0,7.84-.58c13.18-2.9,15.68-14.22,16-20.76.59-12.3-5.28-26.37-13.66-32.64-6.46-4.83-13.27-4.23-19.34,1.65l0-.05,0,0a15.1,15.1,0,0,0-1.1,1.17l-.28.36c-.23.25-.45.51-.67.78-1.42-7.78,1.06-16.41,3.91-26.34,3-10.47,6.4-22.32,6.46-36.66a68.35,68.35,0,0,0-1.06-11.93,22.36,22.36,0,0,0,7.88-16.29c.29-5.9-1.53-12.17-5.28-18.23l0,0v0c-.37-.61-.74-1.17-1.11-1.67-.09-.13-.19-.26-.29-.38-.22-.32-.45-.63-.68-1,5.92-.83,13,3.55,21.11,8.68,8.57,5.4,18.3,11.58,29.54,13.84l.11,0c8.49,1.66,19.11-1.05,29.39-3.61,10.82-2.7,21.07-5.22,28.45-2.71a10,10,0,0,0-3.2,1.94c-10,6.75-10.1,16.59-9.25,21.84,1.44,8.93,7.56,17.47,14.88,20.79,8.45,3.83,16.59.29,22.37-9.73.15-.27.31-.55.46-.85l8.32,22.84,8.66-17.12c5.83,11.9,13.85,18.54,22.09,18.23,7.27-.27,13.31-6.25,14.68-14.53.82-4.91.68-14.78-9.42-25.82a18.74,18.74,0,0,0-3-3.15c7.34.68,17.59,7.57,28.42,14.81,10.28,6.87,20.9,13.93,29.35,15.66l.11,0c11.3,2.25,21-.21,29.61-2.43,8.11-2.09,15.17-3.94,21-1.06-.4.4-.8.84-1.21,1.32a11.6,11.6,0,0,0-.82,1h0a24.14,24.14,0,0,0-5.27,16.61,32.63,32.63,0,0,0,7.89,18.86,72.06,72.06,0,0,0-1.07,11.54c.08,14.35,3.47,27.36,6.45,38.83C769.86,525,772.34,534.48,770.91,541.81Z"/>
    <path d="M763.08,588.74v-.92l-.28,0v.91Z"/>
    <path d="M463.85,409.8h-.14l.13.45v.46H464c0-.15-.08-.3-.13-.45Z"/>
    <path d="M473.57,529.06V530l.31.1a.67.67,0,0,0,.19.05v-.46l.21,0-.21,0c0-.15,0-.29,0-.44Z"/>
    <path d="M655.34,402.42a17.25,17.25,0,0,0-3.46-3.44Z" style="fill: #75c5f0"/>
    <path d="M651.27,398.41l.61.57a17.25,17.25,0,0,1,3.46,3.44c26.53,29-8.5,60.77-27.32,20.62l-8.5,17.28q-3.93-10.69-7.87-21.41c-.12-.5-.25-1-.38-1.49-.25.55-.52,1.08-.81,1.6-18.63,32.22-53.81-14.43-27.49-32.16a9.33,9.33,0,0,1,3.73-2.1l.52-.25c-14.41-6.28-41.55,9.33-59.21,5.82a55.66,55.66,0,0,1-11.74-3.84V606.91c0,173.7,197.34,230.87,207.26,43.55V429.68a47.52,47.52,0,0,1-13.15-.72C692.79,425.49,665.58,398.36,651.27,398.41Z" style="fill: #75c5f0"/>
    <path d="M710.38,428.5l-.12,0c-8.32-1.69-18.88-8.71-29.09-15.54-11.52-7.7-22.36-15-30-15h-1.06l1,.84.37.33.24.22c1.23,1.13,2.39,2.28,3.43,3.41,7.25,7.93,10.49,16.75,9.12,24.86s-7.18,13.69-14.19,13.9c-8.13.27-16.07-6.55-21.75-18.66-.1-.23-.21-.46-.32-.69l-8.46,17.2q-3.78-10.26-7.54-20.51c-.09-.34-.17-.68-.26-1l-.39-1.54-.39.84c-.27.57-.53,1.08-.8,1.56-5.62,9.72-13.49,13.19-21.64,9.48-7-3.19-12.92-11.38-14.31-19.94s1.78-16.13,9-21a27.23,27.23,0,0,1,3.69-2.08l.23-.11.28-.14,1-.42-1.05-.46c-7.62-3.31-18.5-.66-30,2.21-10.22,2.55-20.79,5.24-29.14,3.61l-.12,0a56,56,0,0,1-11.67-3.81l-.43-.19v221c0,40.66,10.66,77.32,30.82,106.4,18.06,26,42.46,44.2,68.68,51,1.24.32,2.47.62,3.7.88,25.38,5.54,49.33-.5,67.79-17.34,21.89-19.94,34.67-53.69,37-97.3V429.18l-.43,0A47.18,47.18,0,0,1,710.38,428.5Zm12.79,221.86c-2.3,43.33-15,76.87-36.74,96.68-18.33,16.72-42.12,22.71-67.32,17.21-1.22-.26-2.45-.56-3.67-.87-26.05-6.8-50.28-24.82-68.21-50.68-20-28.88-30.6-65.31-30.6-105.71V387.12A55.36,55.36,0,0,0,528,390.79l.12,0c8.48,1.66,19.1-1.05,29.38-3.61,10.83-2.7,21.08-5.2,28.46-2.71a10.07,10.07,0,0,0-3.22,2c-10,6.75-10.09,16.58-9.24,21.83,1.44,8.93,7.56,17.46,14.88,20.78,8.43,3.82,16.59.29,22.37-9.73.15-.26.29-.53.44-.81,0,.17.08.34.13.53q4.09,11.13,8.17,22.24l8.55-17.38c5.82,12,13.88,18.8,22.15,18.53,7.3-.22,13.37-6.19,14.77-14.49.82-4.91.7-14.79-9.41-25.85a18.64,18.64,0,0,0-3.08-3.17c7.33.64,17.6,7.56,28.44,14.81,10.28,6.87,20.9,13.93,29.34,15.65l.12,0a47.91,47.91,0,0,0,12.79.76Z"/>
    <path d="M620.18,546.39c-39.19-8.6-71,25.47-71,75.57s31.77,97.15,71,105.75,71-25.25,71-75.35S659.36,555,620.18,546.39Z" style="fill: #fff500"/>
    <path d="M620.18,545.94c-39.32-8.63-71.32,25.68-71.32,75.95s32,97.65,71.32,106.28,71.3-25.46,71.3-75.73S659.5,554.56,620.18,545.94Zm0,181.32c-38.93-8.55-70.59-55.52-70.59-105.23s31.66-83.72,70.59-75.18,70.59,55.73,70.59,105.43S659.1,735.79,620.18,727.26Z"/>
    <path d="M713.48,493.24q-17.31-3.51-34.62-7.21c-.2.8-.39,1.54-.6,2.23-1.41,4.62-5,4-5,9.69,0,.63,0,1.27,0,1.91l.09,0q20.09,4.29,40.19,8.4c3.44.7,6.26-1.24,6.26-4.31v-3.89C719.74,497,716.92,493.94,713.48,493.24Z" style="fill: #e77817"/>
    <path d="M713.47,492.78q-17.43-3.54-34.88-7.27l-.08.31c-.18.79-.39,1.53-.59,2.21a8.46,8.46,0,0,1-2.48,3.79,7.26,7.26,0,0,0-2.58,6.05c0,.64,0,1.27,0,1.9,0,.16,0,.32.08.49q20.28,4.33,40.55,8.48c3.66.74,6.63-1.37,6.63-4.7v-3.89C720.1,496.82,717.13,493.52,713.47,492.78Zm5.91,11.12c0,2.82-2.65,4.58-5.91,3.92q-20-4.05-39.91-8.35c0-.48,0-1,0-1.45a6.44,6.44,0,0,1,2.36-5.43,9.2,9.2,0,0,0,2.67-4.1c.18-.61.36-1.26.53-1.95q17.18,3.66,34.34,7.16c3.26.66,5.91,3.49,5.91,6.31Z"/>
    <path d="M630.74,479c-2.11-.46-3.42.26-5.27.87-1.32.39-3.17,4-4.22,4.14a13.58,13.58,0,0,1-2.59-1.09c.42,3.89,1.13,9.3-5.85,20.08-3.88,3.44.77,5.53,3.13,6.57,0,2.43.06,4.64.1,6.66q10.22,3.21.06,1.94c-2.54,6.31-2.13,10,1.47,11.91a8.88,8.88,0,0,1-1.07-4.65c0-4.72,2.11-3.24,5.8-2.43,4,.86,7.92,3.75,11.87,4.61C645.72,530.1,657.24,484.74,630.74,479Z" style="fill: #f5c491"/>
    <path d="M630.75,478.51a7.36,7.36,0,0,0-4.52.56l-.9.31c-.74.22-1.57,1.28-2.37,2.31-.63.8-1.33,1.71-1.75,1.81a12.25,12.25,0,0,1-2.45-1l-.53-.3.1.9c.41,3.84,1,9.1-5.76,19.51-1.28,1.15-1.79,2.26-1.56,3.4.38,1.82,2.52,3,4.58,3.88,0,1.14,0,2.22,0,3.26s0,2.06,0,3v.42l.32.1c2.08.65,3.28,1.09,4,1.39-.68,0-1.87-.11-3.91-.36l-.21,0-.09.22c-1.64,4.07-2,7-1.29,9.22a6,6,0,0,0,3,3.39l1.12.61-.76-1.28a8.34,8.34,0,0,1-1-4.33,3.85,3.85,0,0,1,.57-2.59c.57-.58,1.66-.29,3.18.12.52.14,1.09.29,1.69.42a28.57,28.57,0,0,1,5.87,2.28,29.16,29.16,0,0,0,6,2.33c6.36,1.38,13.07-11.55,13.07-25.16a30.08,30.08,0,0,0-3.69-15.26A19,19,0,0,0,630.75,478.51Zm3.42,48.61a28.71,28.71,0,0,1-5.86-2.28,29,29,0,0,0-6-2.33c-.59-.13-1.15-.28-1.66-.42-1.69-.45-2.92-.77-3.71,0-.54.54-.79,1.56-.79,3.2a10.79,10.79,0,0,0,.56,3.68,4.58,4.58,0,0,1-1.57-2.17c-.64-1.86-.24-4.55,1.2-8.2,5.19.65,5.19.27,5.19-.25s0-.9-5.13-2.53c0-.83,0-1.7,0-2.59,0-1.17,0-2.38-.06-3.65v-.38l-.29-.13c-1.29-.56-4-1.75-4.29-3.23-.15-.72.31-1.59,1.39-2.56,6.67-10.3,6.4-15.76,6-19.72a15.33,15.33,0,0,0,2.13.84l.06,0h.06c.63-.06,1.34-1,2.17-2,.71-.91,1.51-1.93,2.1-2.11.32-.1.62-.21.92-.32a6.9,6.9,0,0,1,4.22-.54A18.14,18.14,0,0,1,643,488.11a28.75,28.75,0,0,1,3.51,14.61C646.52,515.89,640.17,528.43,634.17,527.12Z"/>
    <path d="M759.29,331.25C729.21,366.5,670.53,373.34,619.43,363c-51.06-12.25-109.75-43.35-139.86-88.68-10.15-15.37-22-9.4-8.48,11.51,31.91,49.27,90,83.57,148.34,96.19,58.26,13.19,116.36,2.57,148.39-36.28C781.29,329.3,769.47,319.45,759.29,331.25Z" style="fill: #f8c300"/>
    <path d="M759,330.89c-14,16.26-35.36,27.75-61.9,32.88-23.59,4.59-51.18,4-77.7-1.26a279.48,279.48,0,0,1-77.68-31.91c-26.54-16-47.95-35.44-61.92-56.59-5.42-8.21-11.29-10.38-13.83-7.74-3.52,3.65.4,12.93,4.82,19.8,15.28,23.69,37.56,45,64.43,62a261.62,261.62,0,0,0,83,34.17l2.32.5c29.13,6.36,57.8,6.87,83,1.14,26.86-6.09,49.17-19.26,64.5-37.77,4.42-5.37,8.32-13.37,4.8-18.18C770.34,324.4,764.46,324.59,759,330.89Zm8.53,14.46c-15.26,18.41-37.46,31.51-64.21,37.57-25.12,5.71-53.7,5.2-82.76-1.14l-1.16-.25a260.61,260.61,0,0,1-83.95-34.32c-26.76-16.92-48.93-38.11-64.13-61.67-6.73-10.43-6.82-16.49-4.86-18.52a3.3,3.3,0,0,1,3-.85c2.68.44,6.3,3.12,9.78,8.39,14.06,21.26,35.57,40.78,62.23,56.88a280,280,0,0,0,77.88,32h0c26.58,5.31,54.26,5.87,77.91,1.27,26.65-5.17,48.16-16.72,62.2-33.08,5.13-5.95,10.56-6.27,12.84-3.15C774.35,331.15,774.26,337.19,767.56,345.35Z"/>
    <path d="M550.07,317.24v18.64A276.58,276.58,0,0,0,619.43,363c22.44,4.48,46.33,5.78,68.62,2.76V346.82C642.06,304,596,293.54,550.07,317.24Z" style="fill: #f8c300"/>
    <path d="M549.89,316.8l-.18.1v19.26l.26.15a276.78,276.78,0,0,0,69.47,27.12c23.33,4.66,47.08,5.69,68.7,2.77l.27,0V346.63l-.18-.17C642.33,303.76,595.78,293.14,549.89,316.8Zm137.8,48.51c-21.49,2.87-45.09,1.83-68.25-2.8a276.12,276.12,0,0,1-69-26.9v-18C596,294.2,642.14,304.73,687.69,347Z"/>
    <path d="M623.9,284.94A61.26,61.26,0,0,1,627.43,305c0,.4,0,.8,0,1.2-.86,1-1.53,1.82-2.06,2.46l.75.22c4.37-3.87,14.36-13.18,19-14.61a201.11,201.11,0,0,0-8.95,18.08q25.72,10.2,51.45,34.08l.31.07,13.27-7-.23-.27C675.31,309.15,649.61,291.29,623.9,284.94Z" style="fill: #da251d"/>
    <path d="M539,304.94v.83h0v0l10.82,11.11.64.13c17.65-9,35.32-13,53-12.05-2.62-7.3-5.69-14.51-8.81-21.68,4.93,3.61,25.53,31.31,16.59,17.72a49.5,49.5,0,0,1,3.39-17.89C589.41,279.63,564.21,287.11,539,304.94Z" style="fill: #da251d"/>
    <path d="M593.89,282.27l-.14-.1,0,.11c-18.15,1.8-36.57,9.2-55,22.24l-.16.16V306q5.54,5.67,11.07,11.37l.84.17.08,0c17.52-9,35.3-13,52.86-12l.5,0c-.07-.21-.15-.42-.23-.63-2.5-7-5.47-14-8.16-20.18,2.83,2.7,8,9,11.92,13.79,5.81,7.1,5.84,7.05,6.19,6.65s.35-.42-2.13-4.19a48.6,48.6,0,0,1,3.36-17.51l.26-.65-.61-.08A87.36,87.36,0,0,0,593.89,282.27Zm9,22.23c-17.45-.85-35.12,3.18-52.52,12.06l-.45-.09q-5.28-5.43-10.55-10.85v-.37c18.38-13,36.75-20.31,54.82-22.06,0,.1.09.2.13.3C597.09,289.83,600.24,297.19,602.89,304.5Zm8-3.55v.19l.1.15.57.87c-1-1.21-2.3-2.78-3.57-4.32-4.63-5.66-10.35-12.65-12.94-14.73a86.86,86.86,0,0,1,19,.41A50.23,50.23,0,0,0,610.86,301Z"/>
    <path d="M701.23,338.91c-25.27-29.58-51.29-48-77.32-54.43l-.59-.14c.09.24.17.49.26.74A60.56,60.56,0,0,1,627.07,305v1c-.82,1-1.47,1.74-2,2.35l-.51.61,1.65.47.11-.09,1.72-1.54c4.5-4,11.8-10.57,16.13-12.59-2.7,5-5.72,10.79-8.31,16.92-.08.18-.15.35-.22.53l.49.19c17,6.76,34.29,18.23,51.32,34l.08.07.5.11,13.82-7.31-.64-.77ZM627.59,307l-.93.83,1-1.21.09-.11v-.18c0-.4,0-.8,0-1.2a62.11,62.11,0,0,0-3.3-19.56,103.91,103.91,0,0,1,21.25,8.07l-.72.22C640.82,295.13,632.54,302.54,627.59,307Zm60.28,39.07-.12,0c-16.92-15.66-34.07-27.09-51-33.89,2.73-6.4,5.93-12.44,8.71-17.52l.48-.88c18.4,9.34,36.71,24.64,54.64,45.59Z"/>
    <path d="M538.78,282.72v23l.22.05v-.86c25.21-17.83,50.4-25.31,75.61-21.8,1.74-4.28,3.71-6.71,4.72-6.4s2.86,3.43,4.57,8.2c25.7,6.35,51.41,24.21,77.11,54.3V317.29C646.93,250.67,592.85,241.47,538.78,282.72Z" style="fill: #f8c300"/>
    <path d="M619.89,259.09c-26.55-5.37-53.91,2.3-81.33,23.22l-.14.11v23.72l.94.19v-1.08c25.37-17.9,50.69-25.07,75.27-21.64l.21,0,.09-.23c1.85-4.52,3.67-6.37,4.35-6.22h0c.68.21,2.45,2.79,4.28,7.89l.09.27.22,0c25.88,6.39,51.76,24.72,76.9,54.16l.58.67V317.15l-.13-.17C674.66,284.24,647.32,264.61,619.89,259.09Zm80.76,79.15c-25-29.1-50.76-47.27-76.53-53.7-1.67-4.59-3.57-7.89-4.77-8.25l-.07,0c-1.43-.31-3.46,2.92-4.91,6.38-24.58-3.37-49.89,3.8-75.23,21.63V283c27.24-20.73,54.41-28.33,80.76-23l1.24.26c26.76,5.84,53.51,25.19,79.51,57.17Z"/>
    <path d="M468.17,198q35.06,42.36,70.12,86.21l6.81-4.66C512.9,213,495.55,198.26,468.17,198Z" style="fill: #00923f"/>
    <path d="M468.13,197.52h-.84q35.38,42.74,70.77,87l.21.26,7.33-5-.2-.42C514.87,216.26,497.54,197.81,468.13,197.52Zm70.18,86.1q-34.63-43.18-69.25-85.17c28.49.66,45.62,19.13,75.55,80.86Z"/>
    <path d="M782.77,405.74c-27.67-21.05-54.85,2.22-98.9-18.21-17.08,0-34.17-1-51.26-2.62-7.07,11.43-10.38,25.41-4.61,37.92,19.52,42.34,57.23,5.54,23.24-24.42,14.4,0,41.54,27.07,59.2,30.56,22.44,4.46,39.13-9.93,51.38-3.13-27,26.22,24.49,73.11,35.14,30.47C801.64,437.65,799,418,782.77,405.74Z" style="fill: #f8c300"/>
    <path d="M782.93,405.35c-14.17-10.76-28.14-10-44.31-9.38-15.51.61-33.08,1.15-54.68-8.88l-.06,0h-.07c-16.13,0-32.89-.85-51.23-2.62h-.16l-.1.15c-8.14,13.15-9.83,27.16-4.62,38.44,6,13,14.42,20.07,23.15,19.39,7.53-.58,13.41-7.13,14.31-15.9.93-9.21-3.71-19.2-12.78-27.59,7.33.6,17.68,7.55,28.57,14.83,10.27,6.87,20.9,13.93,29.38,15.66l.11,0c11.25,2.24,21-.21,29.55-2.42,8.13-2.1,15.2-4,21.1-1.07-6.85,7-9,16-6.12,25.61,3.33,11,13.09,20.56,22.54,22.17.32.06.65.1,1,.14,12.25,1.37,17-10.32,18.82-17.36C802.72,434.92,797.48,416.38,782.93,405.35Zm13.68,50.77c-4,15.92-13.1,17.39-18.17,16.81-9.46-1.08-19.47-10.6-22.81-21.61-2.85-9.41-.57-18.3,6.43-25.09l.48-.47-.62-.34a14.67,14.67,0,0,0-4.52-1.61c-5.21-.95-11.09.6-17.65,2.28-8.52,2.2-18.19,4.63-29.31,2.42l-.11,0c-8.36-1.71-18.93-8.73-29.15-15.56-11.51-7.7-22.42-15-30-15h-1.06l1,.84C664,410.16,665,420.86,664.44,426.24c-.85,8.4-6.51,14.68-13.75,15.24-8.41.66-16.57-6.21-22.39-18.83-5-10.87-3.37-24.44,4.52-37.26,18.27,1.75,35,2.63,51,2.6,21.71,10.07,39.33,9.53,54.88,8.91,16-.65,29.91-1.38,43.87,9.24C796.81,416.89,801.91,435,796.61,456.12Z"/>
    <path d="M769.41,425.15c-4-1.65-7.59-.6-10.41,3.08l.55.69c2.67-3.49,5.94-4.46,9.73-2.89,5.5,2.3,9.93,9,10.67,11.82,3,11.48-1.57,15.55-3,16.51a5.47,5.47,0,0,1-7.56-1.13c-1.78-2.46-1.54-6.44.63-10.91l-.62-.57c-2.36,4.84-2.54,9.24-.5,12.06a5.89,5.89,0,0,0,3.81,2.4,6.37,6.37,0,0,0,4.63-1c1.59-1,6.51-5.39,3.33-17.54C779.71,434.15,774.77,427.38,769.41,425.15Z"/>
    <path d="M646.6,396.75c-3,.21-5.51,2.64-7,6.85-3.94,10.91.46,16.49,2.53,18.38a11.37,11.37,0,0,0,5.17,2.71c2.92.63,5.73-.11,7-2.28.94-1.57,1.76-5.15-3.26-11.5-.15.21-.3.41-.46.61,3.4,4.29,4.5,7.93,3.13,10.25-1.86,3.13-7.53,2.86-11.24-.52-2.36-2.15-5.79-7.24-2.22-17.15,1.42-4,3.74-6.23,6.52-6.42s5.92,1.74,8.68,5.45l.48-.58C653,398.59,649.68,396.54,646.6,396.75Z"/>
    <path d="M762,463.58a63.44,63.44,0,0,0-1.1,11.73c.12,28.71,13.76,52.44,10.2,67.46C746.8,504,717.41,564,751.93,584.2c15.14,8.82,32.37,4.78,37.78-16.13,10.6-40.94-6.4-67.49-6.82-94.81C775.81,474.56,767.81,470.36,762,463.58Z" style="fill: #f8c300"/>
    <path d="M783.24,473.31v-.59l-.45.08c-6.62,1.22-14.49-2.45-20.54-9.54l-.45-.53-.12.69a62.51,62.51,0,0,0-1.11,11.83c.06,14.37,3.46,27.41,6.47,38.89,2.84,10.9,5.32,20.36,3.9,27.67-6.41-9.89-13.82-14-20.91-11.61-8.41,2.83-14.65,14.81-14.22,27.34a31.64,31.64,0,0,0,16,27.09,32.93,32.93,0,0,0,10.61,4,23.07,23.07,0,0,0,12.17-.92c7.53-2.76,12.87-9.52,15.45-19.47,6.91-26.69,2.09-47.52-2.15-65.91C785.58,492.32,783.39,482.83,783.24,473.31Zm6.12,94.56C785.18,584,771,594.8,752,583.78c-12.95-7.52-15.27-19.63-15.5-26.14-.42-12.17,5.63-23.79,13.77-26.54a11.58,11.58,0,0,1,5.91-.43c5.07.92,10.12,5.14,14.65,12.36l.43.69.18-.76c1.82-7.68-.76-17.56-3.76-29s-6.36-24.37-6.42-38.59a60.1,60.1,0,0,1,1-10.94c6,6.8,13.69,10.36,20.28,9.36.22,9.46,2.38,18.82,4.67,28.71C791.43,520.76,796.2,541.44,789.36,567.87Z"/>
    <path d="M764,653.16c-3.59-16.26,20.65-34.83,20.74-63.54a66.29,66.29,0,0,0-.73-9.39c-6,7.63-14.85,9.84-23.85,7.44-6,23.52-24.31,43.93-14.74,84.23,5.42,22.8,22.61,33,37.77,29.48C817.66,693.28,788.32,623,764,653.16Z" style="fill: #f8c300"/>
    <path d="M785.07,648.05c-7.09-4.91-14.49-3.39-20.9,4.2-1.16-7.25,3.18-15.11,8.17-24.19,5.95-10.81,12.7-23.12,12.74-38.38a65.87,65.87,0,0,0-.74-9.48c0-.31-.09-.63-.13-1l-.49.63c-5.6,7.13-14.2,9.8-23.55,7.34l-.29-.08c0,.11,0,.22-.08.33-1.63,6.38-4.16,12.48-6.82,18.94-7,16.93-14.93,36.05-7.92,65.56,2.58,10.86,7.91,19.5,15.43,24.92a29.41,29.41,0,0,0,12.17,5.22,26.91,26.91,0,0,0,10.61-.27c5.75-1.3,15.45-5.9,16-21.47C799.71,668,793.47,653.84,785.07,648.05Zm-2,52.87c-19,4.32-33.14-11.5-37.32-29.09-6.92-29.14,1-48.11,7.88-64.89a147.13,147.13,0,0,0,6.79-18.74c9.2,2.34,17.66-.21,23.35-7a64.62,64.62,0,0,1,.61,8.37c-.06,15-6.74,27.19-12.63,37.9-5.29,9.6-9.85,17.86-8.1,25.77l.18.82c.14-.18.28-.36.43-.53,6.31-7.81,13.61-9.46,20.55-4.67,8.14,5.61,14.18,19.35,13.75,31.37C798.32,686.64,796,698,783.06,700.92Z"/>
    <path d="M768.39,539.39a16.22,16.22,0,0,1,3.7,12.05c-.73,6.81-5.54,12.27-7.91,13.29-5.33,2.28-9.77,1.43-12.19-2.32a9.79,9.79,0,0,1-.74-9.07c1.47-3.06,4.47-3.83,8.23-2.16,0-.29.1-.58.14-.87-4-1.82-7.39-.89-9,2.46a11,11,0,0,0,.84,10.17,8.57,8.57,0,0,0,5.65,3.83,12.74,12.74,0,0,0,7.38-1.16c2.5-1.06,7.55-6.8,8.31-13.92a17.36,17.36,0,0,0-3.94-12.91Z"/>
    <path d="M775.48,664.76l.15.93a7.69,7.69,0,0,1,8.23,5.07c1.28,3.11,1,6.73-.74,8.8-2.42,2.9-6.86,2.19-12.19-2-2.38-1.86-7.19-9-7.91-16.09-.46-4.45.78-8.07,3.69-10.74l-.47-.79c-3.1,2.86-4.43,6.73-3.94,11.53.76,7.39,5.82,14.91,8.32,16.86,3,2.38,5.46,3.44,7.37,3.77a5.71,5.71,0,0,0,5.65-1.84c1.93-2.33,2.28-6.38.85-9.87A8.57,8.57,0,0,0,775.48,664.76Z"/>
    <path d="M707.24,545.75c1.22-23.3-19.09-23.65-29.3-18.15-1.31,2,0,13.74,0,16.19-1.58-4.72-6.53-6.79-6.53-12.86,0-11.11,1.78-21.88,1.78-33,0-5.73,3.64-5.07,5-9.69,2.61-8.56,4.35-27.11-5.32-28.82-4.48-.8-9.22.7-13.18-.16-5.27-1.14-10.55-5.28-16.09-6.48-5.81-1.27-7.1,6.2-15.3,4.41,1.06,1.58-5-.42-5.8-.59-2.64-.57-5.28-1.82-7.92-2.4-5.8-1.26-7.38-.59-7.38,6.15,0,3.71,2.9,5,4.22,7,2.37,3.54,2.83,6.84,3.47,10.21.84,4.33,4,5.67,6.29,6.4,1-.1,2.9-3.75,4.22-4.13,1.85-.61,3.16-1.33,5.27-.87,26.5,5.77,15,51.12,3.43,48.61-3.95-.87-7.91-3.75-11.87-4.61-3.69-.81-5.8-2.29-5.8,2.43,0,6.41,4,7.61,8.44,8.59,4,.86,2.14,10.2,2.14,14.25,0,.91,71.22,24.5,62.87,121C715.79,660.48,707,583.18,707.24,545.75Z" style="fill: #fddc00"/>
    <path d="M707.59,545.86c.39-7.46-1.33-13.15-5.12-16.92-6.41-6.36-17.52-5.66-24.72-1.78l-.11.11c-1,1.51-.66,7.06-.23,13.08,0,.56.08,1.09.11,1.57a23.27,23.27,0,0,0-2.33-3.28c-1.75-2.17-3.4-4.23-3.4-7.63,0-5.53.45-11.08.89-16.45s.89-11,.89-16.54a6.44,6.44,0,0,1,2.36-5.43,9.2,9.2,0,0,0,2.67-4.1c1.84-6,3.5-18.14.09-24.89a8,8,0,0,0-5.76-4.62,27,27,0,0,0-6.84-.06,22.54,22.54,0,0,1-6.33-.1,34.41,34.41,0,0,1-7.77-3.14,37.14,37.14,0,0,0-8.32-3.34c-2.77-.61-4.55.69-6.44,2.06-2.22,1.62-4.53,3.3-8.86,2.35l-.84-.13c.17.24.33.48.49.73a17.68,17.68,0,0,1-4.63-1l-.82-.23a33.23,33.23,0,0,1-3.92-1.19,36,36,0,0,0-4-1.21c-5.9-1.28-7.74-.55-7.74,6.53,0,2.87,1.61,4.47,2.91,5.76a10.61,10.61,0,0,1,1.41,1.58c2.09,3.12,2.64,6,3.22,9.09,0,.3.11.59.17.89,1,5,4.91,6.28,6.6,6.82l.06,0h.06c.63-.06,1.34-1,2.17-2,.71-.91,1.51-1.93,2.1-2.11.32-.1.63-.21.92-.32a6.84,6.84,0,0,1,4.22-.54A18.16,18.16,0,0,1,643,488.1a28.79,28.79,0,0,1,3.51,14.62c0,13.17-6.35,25.71-12.35,24.4a28.71,28.71,0,0,1-5.86-2.28,29,29,0,0,0-6-2.33c-.59-.13-1.15-.28-1.66-.42-1.7-.47-2.92-.78-3.71,0-.54.55-.79,1.57-.79,3.21,0,7.21,4.88,8.27,8.8,9.13a2.06,2.06,0,0,1,1.35,1c1.18,1.92.86,6.09.61,9.45-.1,1.22-.18,2.37-.18,3.27,0,.45.06.48,1.7,1.24A103.93,103.93,0,0,1,665.6,578c19.13,23.37,27.2,54,24,91.06,0,.25,0,.51-.07.76l.57-.19c21.06-7.09,19.32-59.88,18-98.37C707.83,561.91,707.54,553.08,707.59,545.86ZM690.37,668.54c3.06-37.09-5.12-67.69-24.32-91.16a105,105,0,0,0-37.49-28.85l-1.12-.53c0-.81.09-1.82.17-2.87.27-3.53.61-7.93-.79-10.19a2.89,2.89,0,0,0-1.88-1.41c-4.73-1-8.08-2.21-8.08-8a3.88,3.88,0,0,1,.57-2.6c.57-.57,1.67-.29,3.18.13.52.13,1.09.28,1.69.41a28.61,28.61,0,0,1,5.87,2.29,29.16,29.16,0,0,0,6,2.33c6.36,1.38,13.07-11.55,13.07-25.17a30,30,0,0,0-3.69-15.25,19,19,0,0,0-12.8-9.12,7.4,7.4,0,0,0-4.51.57l-.91.31c-.74.22-1.57,1.28-2.37,2.31-.63.8-1.33,1.71-1.75,1.81-2.51-.8-5.16-2.15-5.9-6l-.17-.88c-.57-3.06-1.17-6.22-3.4-9.56a11.92,11.92,0,0,0-1.54-1.75c-1.27-1.25-2.57-2.54-2.57-4.89,0-6.43,1.41-7,7-5.77a37.49,37.49,0,0,1,3.92,1.19,36,36,0,0,0,4,1.21l.78.22c3.92,1.12,5.2,1.25,5.46.56a.94.94,0,0,0,0-.09c4.27.77,6.69-1,8.82-2.54,1.86-1.35,3.47-2.53,6-2a36.6,36.6,0,0,1,8.17,3.29,36,36,0,0,0,7.92,3.2,23.33,23.33,0,0,0,6.49.1,26.82,26.82,0,0,1,6.7,0,7.1,7.1,0,0,1,5.16,4.11c3.24,6.43,1.6,18.15-.19,24a8.46,8.46,0,0,1-2.48,3.79,7.26,7.26,0,0,0-2.58,6.05c0,5.53-.46,11.07-.89,16.44s-.9,11-.9,16.55c0,3.84,1.86,6.16,3.66,8.4a15.1,15.1,0,0,1,2.91,4.65l.68,0c0-.66-.08-1.89-.19-3.45-.29-4.08-.77-10.88.06-12.43,7-3.74,17.76-4.45,23.9,1.66,3.55,3.52,5.16,8.91,4.79,16-.06,7.26.23,16.11.54,25.48C708.67,609,710.38,660.84,690.37,668.54Z"/>
    <path d="M615,477.57a40.7,40.7,0,0,0-1.47-6.23c-25.57-5.56-51.14-11-76.7-16.15-15.42-2.57-14.06,17,0,20.51,26.55,5.29,53.11,11,79.66,16.79.57-5.28,2.72-4.47.77-10.66C616.75,480.35,615.34,479.53,615,477.57Z" style="fill: #e77817"/>
    <path d="M616.48,479.84a5.62,5.62,0,0,1-1.17-2.31c-.06-.3-.11-.6-.17-.9a34.87,34.87,0,0,0-1.33-5.43l-.1-.28c-25.64-5.57-51.29-11.08-76.93-16.19-7.84-1.32-11.38,3.06-11.41,8,0,5.29,3.87,11.59,11.41,13.46,26.67,5.31,53.33,11.06,80,16.86,0-.13,0-.26,0-.39a14.1,14.1,0,0,1,1-3.87c.63-1.69,1.09-2.91-.21-7A6.4,6.4,0,0,0,616.48,479.84Zm.62,8.4a15.19,15.19,0,0,0-1,3.72c-26.44-5.75-52.89-11.45-79.34-16.72-7.07-1.75-10.74-7.55-10.71-12.39,0-4.47,3.34-8.44,10.7-7.2,25.49,5.08,51,10.55,76.47,16.1a35.61,35.61,0,0,1,1.18,4.95l.18.91a6.61,6.61,0,0,0,1.38,2.81,5.4,5.4,0,0,1,.89,1.52C618.06,485.67,617.7,486.64,617.1,488.24Z"/>
    <path d="M623.85,489.67l.07-.08-.07.08c.21-.31.75.38,1.17.27,3.39-.93,5.55-1.46,10.37,7.13a2.7,2.7,0,0,0,.54-1.25C636.38,492,627.92,482.22,623.85,489.67Z" style="fill: #1f1a17"/>
    <path d="M631.23,487.76c-3.15-2.17-6-1.58-7.68,1.6l.55.68s0,0,0,0l.23.12a1.22,1.22,0,0,0,.86.23c3.29-.91,5.27-1.46,10,6.9l.29.52.27-.41a3,3,0,0,0,.62-1.45C636.56,493.67,634.14,489.76,631.23,487.76Zm4.13,8.55c-2.9-5.06-4.92-6.83-6.79-7.24a7.76,7.76,0,0,0-3.68.41c-.08,0-.22-.05-.35-.13,2.08-3.07,4.89-1.84,6.44-.78,2.78,1.91,4.79,5.45,4.6,7.11A1.82,1.82,0,0,1,635.36,496.31Z"/>
    <path d="M629,495.44c-.61-.68-1.33-1.49-2.16-2.47a.3.3,0,0,0-.51,0,.58.58,0,0,0,.08.66c.84,1,1.56,1.8,2.17,2.49,1.26,1.42,2.26,2.54,2.24,2.93s-1.07.85-2.39,1.44c-.77.34-1.7.76-2.81,1.31a.46.46,0,0,0-.14.6.48.48,0,0,0,.31.3.23.23,0,0,0,.18,0c1.1-.55,2-1,2.79-1.3,1.88-.84,2.73-1.22,2.78-2.11S630.8,497.5,629,495.44Z"/>
    <path d="M626.38,494.48c-.64-.14-1.17,1.33-1.17,3.29s.53,3.65,1.17,3.79,1.18-1.33,1.18-3.28S627,494.63,626.38,494.48Z" style="fill: #1f1a17"/>
    <path d="M626.38,494c-1-.21-1.53,1.68-1.53,3.67s.53,4.11,1.53,4.33,1.54-1.68,1.54-3.66S627.39,494.24,626.38,494Zm0,7.08c-.27-.06-.81-1.26-.81-3.25s.54-3,.81-2.9.82,1.26.82,3.25S626.66,501.16,626.38,501.1Z"/>
    <path d="M623.53,505.27c-1-.23-1.85.06-1.85.63s.83,1.23,1.85,1.45,1.85-.06,1.85-.64S624.55,505.49,623.53,505.27Z" style="fill: #1f1a17"/>
    <path d="M621.32,505.83c0,1,1.11,1.74,2.21,2s2.21,0,2.21-1C625.74,504.82,621.32,503.85,621.32,505.83Zm2.21,1.06A2.07,2.07,0,0,1,622,506c0-.14.53-.46,1.49-.25a2.1,2.1,0,0,1,1.49.9C625,506.78,624.49,507.1,623.53,506.89Z"/>
    <path d="M614.39,472a.18.18,0,0,1-.06-.12l-.72-.26a1.44,1.44,0,0,0,.36,1,1.59,1.59,0,0,0,.87.46c1.44.32,4.1-.49,8.06-2.44-.12-.29-.24-.59-.35-.88C616.13,472.91,614.68,472.25,614.39,472Z"/>
    <path d="M653.31,475.57c-.81-.5-4,2.08-3.33,5.86s2,7.27,3.33,7.3,4-2.82,3.33-5.86S654.12,476.07,653.31,475.57Z" style="fill: #1f1a17"/>
    <path d="M653.42,475.15c-.6-.36-1.52.23-2.14.84a6.12,6.12,0,0,0-1.65,5.48c.67,3.56,1.94,7.36,3.53,7.71l.2,0c.93,0,2.22-1,3-2.48a5.52,5.52,0,0,0,.62-3.91C656.29,479.78,654.42,475.78,653.42,475.15Zm2.34,11c-.72,1.32-1.88,2.18-2.5,2.17-1,0-2.2-3-2.94-6.88a5.16,5.16,0,0,1,1.29-4.45c.73-.8,1.38-1,1.56-1h0c.58.36,2.38,3.79,3.1,6.95A4.51,4.51,0,0,1,655.76,486.1Z"/>
    <path d="M662.89,492.07c-.81-.46-4,1.72-3.33,5.05s2,6.41,3.33,6.48,4-2.37,3.34-5.05S663.71,492.53,662.89,492.07Z" style="fill: #1f1a17"/>
    <path d="M663,491.65c-.63-.37-1.81.3-2.56,1.11a4.9,4.9,0,0,0-1.22,4.41c.65,3,1.95,6.53,3.53,6.87l.2,0c1,.06,2.46-1,3.21-2.44a4.3,4.3,0,0,0,.42-3.14C665.86,495.79,664,492.22,663,491.65Zm2.54,9.36a3.83,3.83,0,0,1-2.68,2.12c-1-.1-2.2-2.6-3-6.07a3.92,3.92,0,0,1,1-3.51,2.72,2.72,0,0,1,1.84-1.07l0,0c.64.36,2.41,3.53,3.08,6.13A3.29,3.29,0,0,1,665.53,501Z"/>
    <path d="M652.19,502.82c-.85-.48-4.24,1.79-3.49,5.28s2.12,6.72,3.49,6.79,4.23-2.48,3.49-5.28S653,503.3,652.19,502.82Z" style="fill: #1f1a17"/>
    <path d="M652.29,502.4h0c-.67-.38-1.88.31-2.67,1.16a5.1,5.1,0,0,0-1.26,4.59c.68,3.14,2,6.82,3.68,7.18l.2,0c1,.06,2.58-1.11,3.35-2.54a4.47,4.47,0,0,0,.44-3.28C655.29,506.72,653.33,503,652.29,502.4Zm2.68,9.79c-.71,1.32-2.07,2.27-2.82,2.23h-.1c-1-.22-2.24-2.84-3-6.37a4.13,4.13,0,0,1,1.08-3.72,2.77,2.77,0,0,1,1.92-1.09h.05c.67.39,2.53,3.72,3.24,6.45A3.38,3.38,0,0,1,655,512.19Z"/>
    <path d="M663.69,513.75c-.85-.48-4.24,1.79-3.49,5.28s2.12,6.72,3.49,6.78,4.23-2.48,3.49-5.28S664.54,514.23,663.69,513.75Z" style="fill: #1f1a17"/>
    <path d="M663.79,513.33c-.68-.41-1.88.31-2.67,1.16a5.09,5.09,0,0,0-1.26,4.59c.68,3.14,2,6.82,3.68,7.17a.69.69,0,0,0,.2,0c1,.05,2.58-1.12,3.35-2.55a4.47,4.47,0,0,0,.44-3.28C666.79,517.64,664.83,513.92,663.79,513.33Zm2.68,9.79c-.71,1.32-2.07,2.27-2.82,2.23l-.1,0c-1-.21-2.24-2.83-3-6.35a4.13,4.13,0,0,1,1.08-3.73,2.77,2.77,0,0,1,1.92-1.09h.05c.67.38,2.53,3.71,3.24,6.44A3.42,3.42,0,0,1,666.47,523.12Z"/>
    <path d="M651.29,528.21c-2.44-.86-3.42,2.27-1.66,6.35s4,7.84,5.33,7.87,2-2.8,2.93-5.53S653.73,529.07,651.29,528.21Z" style="fill: #1f1a17"/>
    <path d="M651.33,527.76a1.88,1.88,0,0,0-2.5.85c-.75,1.34-.56,3.68.5,6.12.57,1.31,3.41,7.69,5.48,8.14l.2,0c1.29,0,2-2,2.76-4.41l.46-1.34a3.78,3.78,0,0,0-.28-2.72C656.8,531.69,653.35,528.47,651.33,527.76Zm6.23,8.89c-.16.45-.31.91-.45,1.35-.68,2-1.32,4-2.21,4h-.1c-1-.23-3-3.34-4.86-7.56-.91-2.11-1.1-4.08-.51-5.15a1.33,1.33,0,0,1,1.54-.67l.28.09c1.82.64,5,3.64,6.08,6.1A2.65,2.65,0,0,1,657.56,536.65Z"/>
    <path d="M633.87,543.38c-1.87,1.61-.65,5.1,2.65,6.75s6.72,2.56,7.48,1.34-.46-4.15-1.46-7.29S635.75,541.77,633.87,543.38Z" style="fill: #1f1a17"/>
    <path d="M642.87,544.07a3.33,3.33,0,0,0-1.69-2,8.09,8.09,0,0,0-7.54.87,3.18,3.18,0,0,0-.94,3.07,6.74,6.74,0,0,0,3.75,4.51,23,23,0,0,0,4.71,1.76c1.37.3,2.63.29,3.13-.52.76-1.2,0-3.51-.91-6.19C643.21,545.11,643,544.59,642.87,544.07Zm.83,7.07c-.57.92-3.56.32-7.1-1.45a5.68,5.68,0,0,1-3.2-3.7,2.27,2.27,0,0,1,.71-2.21,7.75,7.75,0,0,1,5.85-1.17,4.19,4.19,0,0,1,1,.36,2.26,2.26,0,0,1,1.2,1.32c.17.54.34,1.05.51,1.57C643.49,548.15,644.22,550.32,643.7,551.14Z"/>
    <path d="M665.82,547.05c-1.88,1.62-.66,5.1,2.65,6.74s6.71,2.54,7.47,1.32-.45-4.15-1.46-7.29S667.69,545.43,665.82,547.05Z" style="fill: #1f1a17"/>
    <path d="M674.81,547.71a3.23,3.23,0,0,0-1.69-2,8.07,8.07,0,0,0-7.53.9,3.14,3.14,0,0,0-.94,3.08,6.69,6.69,0,0,0,3.74,4.49A23.16,23.16,0,0,0,673.1,556c1.38.29,2.63.27,3.14-.54.75-1.2,0-3.51-.92-6.18C675.15,548.75,675,548.23,674.81,547.71Zm.84,7.07c-.57.93-3.56.33-7.1-1.43a5.61,5.61,0,0,1-3.2-3.69,2.25,2.25,0,0,1,.7-2.21,7.76,7.76,0,0,1,5.85-1.2,4.42,4.42,0,0,1,1.06.37,2.23,2.23,0,0,1,1.19,1.31c.17.53.35,1.05.52,1.57C675.44,551.79,676.16,554,675.65,554.78Z"/>
    <path d="M653.57,558c-1.88,1.61-.66,5.1,2.65,6.74s7.95,3.53,8.71,2.31-.18-5.68-1.18-8.82S655.44,556.36,653.57,558Z" style="fill: #1f1a17"/>
    <path d="M662.59,556.41c-2.55-1.28-7.64-.23-9.25,1.17a3.16,3.16,0,0,0-.94,3.08,6.72,6.72,0,0,0,3.74,4.49,31.76,31.76,0,0,0,6.51,2.55c1.23.27,2.21.24,2.58-.34.94-1.53-.28-6.54-1.15-9.26A2.84,2.84,0,0,0,662.59,556.41Zm2,10.29c-.39.63-3.17.16-8.34-2.41a5.64,5.64,0,0,1-3.2-3.71,2.23,2.23,0,0,1,.7-2.2c1.44-1.24,6.35-2.27,8.63-1.1a1.82,1.82,0,0,1,1,1C664.49,561.68,665.24,565.73,664.64,566.7Z"/>
    <path d="M683.38,570.44a3.06,3.06,0,0,0-.87-.52,22.25,22.25,0,0,0-2.57-3.82c-1.84-1.92-3,.26-2,4.56.19.82.4,1.71.62,2.61a12.63,12.63,0,0,0-5.18.9c-1.88,1.05-.66,3.63,2.65,5a50.88,50.88,0,0,0,5,1.82,1.87,1.87,0,0,0,.47.58,1.14,1.14,0,0,0,1.23-.15,4,4,0,0,0,1.73.06,1.55,1.55,0,0,0,.48.48c1,.55,2.79-.88,3.84-2.18S685.22,572,683.38,570.44Z" style="fill: #1f1a17"/>
    <path d="M683.53,570.06a3.46,3.46,0,0,0-.83-.53,21.25,21.25,0,0,0-2.56-3.77c-1.07-1.1-1.76-.86-2.09-.62-.89.66-1.06,2.8-.44,5.58.15.66.31,1.37.49,2.09a12.43,12.43,0,0,0-4.9.93,1.94,1.94,0,0,0-1,2.09c.22,1.45,1.68,2.9,3.81,3.79,1,.43,3,1.23,4.9,1.79a1.91,1.91,0,0,0,.53.58,1.22,1.22,0,0,0,.37.16,1.63,1.63,0,0,0,1.08-.24,4.82,4.82,0,0,0,1.54.09,1.82,1.82,0,0,0,.47.4c1.34.71,3.26-1.08,4.2-2.25a1.55,1.55,0,0,0,.21-1.23C688.89,576.45,685.09,571.34,683.53,570.06Zm5,9.37c-1.1,1.37-2.69,2.54-3.48,2.12a1.44,1.44,0,0,1-.34-.35l-.17-.23-.21.07a3.41,3.41,0,0,1-1.58-.07l-.11,0-.08,0c-.4.24-.7.29-.93.17a1.72,1.72,0,0,1-.31-.41l-.09-.17-.15,0c-1.89-.56-3.94-1.38-5-1.81-2-.86-3.09-2.09-3.21-2.93a1.18,1.18,0,0,1,.7-1.21,12.59,12.59,0,0,1,5-.86h.42l-.14-.54c-.22-.9-.43-1.78-.61-2.6-.6-2.66-.34-4.25.18-4.63a.51.51,0,0,1,.43-.09,1.86,1.86,0,0,1,.83.57h0a21.93,21.93,0,0,1,2.49,3.7l.09.17.15,0a2.3,2.3,0,0,1,.74.46c1.59,1.29,5,6.14,5.35,8.12A.67.67,0,0,1,688.53,579.43Z"/>
    <path d="M688.68,551.21c-1.34,1.74-.46,5.15,1.9,6.57s4.8,2.11,5.34.84-.33-4.12-1-7.19S690,549.47,688.68,551.21Z" style="fill: #1f1a17"/>
    <path d="M695.22,551.36a2.83,2.83,0,0,0-1.55-2c-1.67-.75-4.21.18-5.26,1.54a4.28,4.28,0,0,0-.58,3.53,6,6,0,0,0,2.64,3.81,11.45,11.45,0,0,0,3.4,1.46c1.11.24,2,.07,2.37-.77.52-1.21,0-3.45-.66-6Zm.38,7c-.4.91-2.46.5-4.92-1a4.86,4.86,0,0,1-2.16-3.09,3.28,3.28,0,0,1,.44-2.7c.89-1.17,3.19-2.05,4.57-1.38a1.78,1.78,0,0,1,1,1.31c.12.51.25,1,.37,1.5C695.46,555.28,696,557.44,695.6,558.35Z"/>
    <path d="M683,534c-1.1,1.79-.39,5.16,1.55,6.5s3.94,1.93,4.39.64-.27-4.11-.86-7.15S684.12,532.21,683,534Z" style="fill: #1f1a17"/>
    <path d="M688.45,534a2.58,2.58,0,0,0-1.44-2.07c-1.44-.62-3.45.43-4.29,1.8a5.21,5.21,0,0,0-.4,3.82,5.65,5.65,0,0,0,2.13,3.4,8.49,8.49,0,0,0,2.83,1.35c.94.2,1.71,0,2-.86.42-1.22,0-3.42-.55-6C688.64,534.93,688.54,534.44,688.45,534Zm.17,6.95c-.31.88-2,.55-3.92-.81a4.46,4.46,0,0,1-1.69-2.71,4.18,4.18,0,0,1,.3-3.06,3.58,3.58,0,0,1,3.27-1.66,1.58,1.58,0,0,1,.31.09,1.61,1.61,0,0,1,.86,1.29c.1.49.2,1,.29,1.46C688.51,537.79,689,540,688.62,540.9Z"/>
    <path d="M696.24,538.93c-.64,2.79-1.4,5.3-.92,6.78s2.62,1.75,4.7,1.26,2.85-3.56,1.67-5.82S696.87,536.14,696.24,538.93Z" style="fill: #1f1a17"/>
    <path d="M697.36,537.29c-.75,0-1.26.52-1.47,1.44-.11.46-.21.92-.32,1.36-.56,2.33-1,4.34-.58,5.73a2.62,2.62,0,0,0,2.14,1.73,7.31,7.31,0,0,0,3-.12,3.3,3.3,0,0,0,2.3-2.59,5.6,5.6,0,0,0-.46-3.91C701.08,539.21,698.85,537.25,697.36,537.29Zm4.4,7.14a2.63,2.63,0,0,1-1.86,2.08c-2.13.51-3.92.11-4.25-.92s.12-3,.61-5.09l.33-1.38c.13-.59.43-.89.91-.9l.35,0a6.71,6.71,0,0,1,3.55,3.11A4.47,4.47,0,0,1,701.76,544.43Z"/>
    <path d="M702.62,570.85c-2.26-1.39-4.31-2.91-5.41-2.59s-1.06,3.08-.42,5.91,3.12,4.46,4.75,3.38S704.87,572.25,702.62,570.85Z" style="fill: #1f1a17"/>
    <path d="M702.73,570.44c-.38-.23-.74-.47-1.1-.7-1.89-1.2-3.51-2.24-4.56-1.93-1.43.41-1.24,3.71-.63,6.42a5.72,5.72,0,0,0,2.3,3.55,3.48,3.48,0,0,0,1.19.51,2.34,2.34,0,0,0,1.81-.32,6.48,6.48,0,0,0,2.3-5.3A2.85,2.85,0,0,0,702.73,570.44Zm-1.39,6.68h0A2.05,2.05,0,0,1,699,577a4.61,4.61,0,0,1-1.85-2.86c-.65-2.89-.57-5.16.2-5.38a1.17,1.17,0,0,1,.59,0,13.44,13.44,0,0,1,3.48,1.85l1.11.7a1.74,1.74,0,0,1,.82,1.38A5.67,5.67,0,0,1,701.34,577.12Z"/>
    <path d="M700,594.22c-.5.36-.48,2.66-.19,5s1.43,3.49,2.18,2.46,1.53-4.69.5-5.68S700.53,593.87,700,594.22Z" style="fill: #1f1a17"/>
    <path d="M702.69,595.61c-.17-.16-.34-.32-.49-.49-1-.94-1.76-1.74-2.38-1.32-.85.6-.52,4-.34,5.4s.77,2.77,1.5,3.16a.86.86,0,0,0,.29.11,1,1,0,0,0,1-.48,8.54,8.54,0,0,0,1-4.93A2.33,2.33,0,0,0,702.69,595.61Zm-1,5.69c-.18.25-.36.32-.57.21-.37-.2-.8-1-1-2.32-.35-2.71-.2-4.38,0-4.55a.16.16,0,0,1,.12,0,5.42,5.42,0,0,1,1.46,1.2l.5.5a1.32,1.32,0,0,1,.29.74A7.81,7.81,0,0,1,701.73,601.3Z"/>
    <path d="M691.18,594.68a2.87,2.87,0,0,0-.8-.45A18.49,18.49,0,0,0,688,591c-1.68-1.63-2.69.16-1.82,3.76.17.7-1.4.42-1.2,1.17-1.94,0-2.15,1.28-3,1.69-1.72.85-.6,3,2.43,4.22,1.42.57,3.12,1.18,4.59,1.6a1.55,1.55,0,0,0,.43.49,1.12,1.12,0,0,0,1.13-.11,3.86,3.86,0,0,0,1.58.08,1.49,1.49,0,0,0,.45.41c.94.47,2.55-.69,3.51-1.76S692.87,596,691.18,594.68Z" style="fill: #1f1a17"/>
    <path d="M691.32,594.29a3.35,3.35,0,0,0-.76-.46,18.84,18.84,0,0,0-2.35-3.18c-1-1-1.7-.74-2-.49-.75.62-.89,2.36-.36,4.57a2,2,0,0,1-.37.14c-.26.09-.69.23-.81.61a2.87,2.87,0,0,0-2.21,1.17,2,2,0,0,1-.61.54,1.64,1.64,0,0,0-1,1.78c.17,1.26,1.53,2.53,3.53,3.33,1.17.46,2.89,1.1,4.48,1.56a1.79,1.79,0,0,0,.49.5,1,1,0,0,0,.34.13,1.55,1.55,0,0,0,1-.18,5,5,0,0,0,1.41.1,1.54,1.54,0,0,0,.44.34c1.22.64,3-.86,3.85-1.82a1.21,1.21,0,0,0,.22-1.06C696.3,599.8,692.78,595.4,691.32,594.29Zm4.56,7.9c-1,1.11-2.5,2-3.18,1.69a.86.86,0,0,1-.29-.27l-.16-.21-.2.06a3.5,3.5,0,0,1-1.45-.09l-.1,0-.08,0a1,1,0,0,1-.85.12,1.25,1.25,0,0,1-.26-.33l-.1-.16-.14,0c-1.62-.45-3.38-1.11-4.57-1.58-1.88-.75-2.83-1.79-2.92-2.46-.07-.47.36-.76.62-.89a2.59,2.59,0,0,0,.77-.67,2.37,2.37,0,0,1,2.08-1h.44c0-.16-.09-.31-.13-.47a2,2,0,0,1,.39-.16c.37-.11,1-.31.8-1.08-.51-2.09-.32-3.38.1-3.72s.91.12,1.19.39a18.45,18.45,0,0,1,2.27,3.11l.1.16.14,0a2.58,2.58,0,0,1,.68.39c1.44,1.1,4.64,5.25,4.88,6.83C695.94,602.12,695.9,602.17,695.88,602.19Z"/>
    <path d="M692.15,620.57c-1.19,1.54-.42,4.55,1.68,5.81s4.24,1.86,4.72.74-.29-3.65-.92-6.36S693.33,619,692.15,620.57Z" style="fill: #1f1a17"/>
    <path d="M698,620.69a2.56,2.56,0,0,0-1.4-1.85,4.35,4.35,0,0,0-4.69,1.38,3.79,3.79,0,0,0-.53,3.16,5.35,5.35,0,0,0,2.37,3.42,10.39,10.39,0,0,0,3,1.29c1,.21,1.82.06,2.14-.7.47-1.09,0-3.07-.57-5.36C698.19,621.6,698.08,621.15,698,620.69Zm.26,6.15c-.33.77-2.17.4-4.3-.88a4.23,4.23,0,0,1-1.89-2.69,2.84,2.84,0,0,1,.38-2.34,4.09,4.09,0,0,1,3.58-1.36,2.16,2.16,0,0,1,.43.14,1.55,1.55,0,0,1,.86,1.11c.1.46.21.92.32,1.36C698.1,624.18,698.56,626.07,698.23,626.84Z"/>
    <path d="M695.69,638.94c-1.75.34-2.29,3.17-.86,5.58s3.18,4.39,4.1,3.87,1.25-3,1.79-5.48S697.44,638.6,695.69,638.94Z" style="fill: #1f1a17"/>
    <path d="M695.58,638.48a2.44,2.44,0,0,0-1.81,2,6,6,0,0,0,.78,4.25c1.17,2,2.69,3.9,3.86,4.14a.94.94,0,0,0,.7-.09c.9-.5,1.27-2.35,1.71-4.49.08-.4.16-.82.25-1.23a3,3,0,0,0-.53-2.38A5.82,5.82,0,0,0,695.58,638.48Zm4.54,5.48c-.38,1.87-.74,3.64-1.38,4s-2.19-1.21-3.64-3.67a4.74,4.74,0,0,1-.64-3.37,1.8,1.8,0,0,1,1.33-1.5,3.09,3.09,0,0,1,1.2,0,5.32,5.32,0,0,1,3,1.83,1.81,1.81,0,0,1,.34,1.44C700.28,643.14,700.2,643.55,700.12,644Z"/>
    <path d="M644.59,460.69c-2.11,0-4.7,1.21-5,2s1.65,5.36,4.3,5.5,5-.48,5-2S646.71,460.66,644.59,460.69Z" style="fill: #fff"/>
    <path d="M647.35,462a3.92,3.92,0,0,0-2.82-1.77c-2.12,0-4.89,1.2-5.28,2.24-.24.62.2,1.85.69,2.8.36.72,1.65,3,3.53,3.37a3.11,3.11,0,0,0,.44.06c2.61.14,5.38-.43,5.33-2.44A8.54,8.54,0,0,0,647.35,462Zm-3.53,5.77c-1.51-.1-2.68-1.8-3.1-2.53a5.16,5.16,0,0,1-.82-2.25c.24-.59,2.57-1.8,4.76-1.83a3.27,3.27,0,0,1,2.23,1.45,7.63,7.63,0,0,1,1.64,3.52C648.55,467.21,646.52,467.91,643.82,467.77Z"/>
    <path d="M642.39,462.1a3.26,3.26,0,0,0-2.39,1c-.16.4.78,2.55,2,2.62s2.41-.23,2.39-1S643.4,462.08,642.39,462.1Z" style="fill: #1f1a17"/>
    <path d="M642.33,461.63c-1,0-2.43.56-2.66,1.18s.22,1.33.35,1.59a3.1,3.1,0,0,0,1.84,1.73l.23,0c.64,0,2.74,0,2.7-1.37a4.34,4.34,0,0,0-1-2.23A2.05,2.05,0,0,0,642.33,461.63Zm-.33,3.6a1.58,1.58,0,0,1-1.07-.73,3.3,3.3,0,0,1-.59-1.2,3.72,3.72,0,0,1,2.11-.74,1.42,1.42,0,0,1,.92.62,3.24,3.24,0,0,1,.7,1.48C644.08,464.9,643.39,465.3,642,465.23Z"/>
    <path d="M635.7,463.26c0,.29-.06.59-.1.89l.1,0c.7.15,4.2.48,4.63-.1l-.54-.73A13.08,13.08,0,0,1,635.7,463.26Z"/>
    <path d="M668.13,465.8c-1.88-.74-3.9,2.11-1.23,6.31s1.51,10.67,2.5,10.64,4.3-5.48,2.93-9.2S670,466.53,668.13,465.8Z" style="fill: #1f1a17"/>
    <path d="M672.12,472c-1.13-3.17-2.12-5.9-3.94-6.61a2,2,0,0,0-2.61,1.28c-.67,1.5-.27,3.64,1.06,5.74,1.54,2.42,1.74,5.73,1.88,7.92.08,1.41.13,2.27.49,2.69a.58.58,0,0,0,.35.22h.12c.76,0,1.95-1.82,2.66-3.54.56-1.35,1.37-4,.52-6.26Zm-.64,7.17a7.36,7.36,0,0,1-2.07,3.13,15.35,15.35,0,0,1-.19-1.89c-.14-2.32-.35-5.82-2.06-8.51-1.13-1.78-1.48-3.49-.95-4.67a1.49,1.49,0,0,1,1.66-1,.83.83,0,0,1,.21.06c1.45.56,2.31,3,3.4,6,.17.48.35,1,.53,1.46C672.71,475.6,672,477.92,671.48,479.13Z"/>
    <path d="M681.76,478.55c-1-.29-1.86.48-1.92,1.7q-.44,8.7-.88,17.4a2.75,2.75,0,0,0,1.69,2.74c1,.29,1.86-.47,1.93-1.7l.87-17.4A2.75,2.75,0,0,0,681.76,478.55Z" style="fill: #f5c491"/>
    <path d="M687.11,478.06c-1.29-.37-2.42.66-2.49,2.3l-1.14,23.33a3.65,3.65,0,0,0,2.19,3.65c1.3.38,2.42-.65,2.5-2.29l1.14-23.34A3.66,3.66,0,0,0,687.11,478.06Z" style="fill: #f5c491"/>
    <path d="M698.16,474.59a2.05,2.05,0,0,0-2.77,1.76l-1.26,19.26a3.28,3.28,0,0,0,2.44,3.15,2.05,2.05,0,0,0,2.77-1.76l1.26-19.26A3.28,3.28,0,0,0,698.16,474.59Z" style="fill: #f5c491"/>
    <path d="M692.42,478.74c-1.19-.35-2.23.6-2.3,2.11l-1,21.5a3.36,3.36,0,0,0,2,3.36c1.19.35,2.22-.6,2.3-2.11l1.05-21.5A3.36,3.36,0,0,0,692.42,478.74Z" style="fill: #f5c491"/>
    <path d="M687.13,477.61a2,2,0,0,0-2,.45,3.13,3.13,0,0,0-.91,2.19l-1.14,23.34c-.09,1.89,1,3.78,2.53,4.21l.17,0c1.42.3,2.62-.87,2.71-2.68l1.14-23.35A4.2,4.2,0,0,0,687.13,477.61Zm.68,27.34c-.06,1.33-.94,2.19-2,2l-.13,0a3.1,3.1,0,0,1-1.86-3.09q.58-11.67,1.15-23.34a2.3,2.3,0,0,1,.67-1.61,1.42,1.42,0,0,1,1.32-.36l.12,0a3.08,3.08,0,0,1,1.86,3.09Z"/>
    <path d="M698.18,474.14l-.18,0a2.33,2.33,0,0,0-3,2.14c-.1,1.62-.21,3.23-.32,4.85a3.67,3.67,0,0,0-2.27-2.81,1.88,1.88,0,0,0-1.83.42,3,3,0,0,0-.85,2.05l-1,21.5a4.49,4.49,0,0,0,.63,2.47,3.11,3.11,0,0,0,1.74,1.44l.16,0a1.84,1.84,0,0,0,1.67-.46,3,3,0,0,0,.85-2c.1-2.21.21-4.41.32-6.62.06.13.13.26.2.38a3.88,3.88,0,0,0,2.27,1.76,2.36,2.36,0,0,0,3.15-2.11L701,477.85a3.45,3.45,0,0,0-.51-2A3.82,3.82,0,0,0,698.18,474.14ZM693,503.49a2.09,2.09,0,0,1-.61,1.46,1.36,1.36,0,0,1-1.31.31,2.22,2.22,0,0,1-1.23-1,3.09,3.09,0,0,1-.46-1.77L690.48,481a2.14,2.14,0,0,1,.61-1.47,1.33,1.33,0,0,1,1.19-.33l.12,0a2.8,2.8,0,0,1,1.69,2.8Zm5.94-6.6a1.74,1.74,0,0,1-2.39,1.41,3,3,0,0,1-1.77-1.33,2.2,2.2,0,0,1-.33-1.24l1.26-19.27A1.72,1.72,0,0,1,698,475l.14,0a3,3,0,0,1,1.77,1.33,2.24,2.24,0,0,1,.33,1.25Z"/>
    <path d="M683.29,479.35a2.7,2.7,0,0,0-1.51-1.25l-.13,0c-1.14-.24-2.1.67-2.17,2.08l-.88,17.41a3.63,3.63,0,0,0,.53,2,2.68,2.68,0,0,0,1.5,1.25l.14,0c1.13.24,2.09-.67,2.16-2.09q.45-8.7.88-17.4A3.62,3.62,0,0,0,683.29,479.35Zm-1.07,19.23c-.05,1-.74,1.58-1.55,1.35a1.81,1.81,0,0,1-1-.83,2.41,2.41,0,0,1-.35-1.34q.43-8.7.88-17.41c0-.93.68-1.53,1.45-1.37l.09,0a1.86,1.86,0,0,1,1,.85,2.32,2.32,0,0,1,.34,1.33Z"/>
    <path d="M701,477c-.7-.15-.26,1.28-.5,2l-.75,11.46,7.61,1.56c0-.62.09-1.27.09-1.94C707.47,484.25,703.75,477.54,701,477Z" style="fill: #f5c491"/>
    <path d="M701,476.51a.54.54,0,0,0-.55.16,1.87,1.87,0,0,0-.23,1.25,3.27,3.27,0,0,1,0,.81l-.81,12.08,8.32,1.71,0-.4c.06-.65.1-1.33.1-2C707.83,484,703.93,477.11,701,476.51Zm6,15-6.89-1.42.72-10.91a4.42,4.42,0,0,0,.08-1.09,3.83,3.83,0,0,1,0-.62h0c2.54.53,6.09,6.95,6.09,12.55C707.11,490.48,707.09,491,707.05,491.47Z"/>
    <path d="M699.68,493.85q1.07,5.61,2.11,11.24-12.36-2-24.73-4.09c-1.27,2.15-1.56,5.36-.47,9.76,1.89,7.56,4.18,12,7.4,14.59,5.22-1.21,11.2-.94,15.8,2,3.87-2.16,6.55-6.3,8-10a31.69,31.69,0,0,0,1.65-6.48c.64-5.33-2.67-10-3.34-16.34C705.12,491.14,698.78,489,699.68,493.85Z" style="fill: #f5c491"/>
    <path d="M706.49,494.5l0-.12c-.73-2.41-3.81-4.16-5.65-3.76-1.28.27-1.83,1.47-1.49,3.27l2,10.67q-12.15-2-24.3-4l-.18,0-.1.18c-1.42,2.39-1.59,5.81-.51,10.15,1.89,7.58,4.23,12.17,7.59,14.9l.13.11.14,0c5.82-1.35,11.49-.66,15.57,1.91l.15.1.15-.08c3.36-1.87,6.34-5.58,8.18-10.17a32.45,32.45,0,0,0,1.68-6.6c.38-3.15-.56-6.06-1.55-9.15A35.48,35.48,0,0,1,706.49,494.5Zm2.64,16.19A31,31,0,0,1,707.5,517c-.83,2.08-3.24,7.17-7.75,9.76-4.17-2.56-9.89-3.26-15.74-1.95-3.09-2.58-5.28-7-7.08-14.16-1-3.94-.87-7,.33-9.2q12.5,2.11,25,4.14L700,493.81c-.24-1.31.1-2.07,1-2.27,1.49-.32,4.13,1.13,4.75,3a36.62,36.62,0,0,0,1.84,7.52C708.58,505,709.48,507.79,709.13,510.69Z"/>
    <path d="M620.18,555.4c-31.83-7-58.34,17.46-63.14,55.48,42.09,8.69,84.18,18.22,126.26,27.14C678.51,598,652,562.36,620.18,555.4Z" style="fill: #da251d"/>
    <path d="M662.11,584c-11.67-15.39-26.56-25.74-41.93-29.09a46.61,46.61,0,0,0-41.94,10.93c-11.55,10.29-19.2,26.25-21.55,44.86l-.07.52C599,620,641.36,629.6,683.73,638.57c0-.18-.05-.36-.07-.54A112.84,112.84,0,0,0,662.11,584ZM557.47,610.51c2.39-18.19,9.93-33.76,21.24-43.85a46.08,46.08,0,0,1,41.47-10.8c15.2,3.31,29.92,13.54,41.46,28.77a111.56,111.56,0,0,1,21.24,52.85C641.08,628.61,599.27,619.15,557.47,610.51Z"/>
    <path d="M600,606.25l-10.1,26q-5.29-15.24-10.57-30.48-9.79-2.07-19.58-4.11a90,90,0,0,0-2.8,14.24q10.82,2.07,21.61,4.19v24.48q14.87,3.15,29.71,6.39l3.74.81,16.07,3.5V637.46L612,634v-11.7q23.92,5.21,47.84,10.41v25.07q11.77,2.55,23.56,5a100.24,100.24,0,0,0,.7-11.92,110.25,110.25,0,0,0-3.44-27.14C653.75,618,626.86,612.06,600,606.25Z" style="fill: #00923f"/>
    <path d="M680.9,623.32c-27.06-5.75-54.11-11.74-81.16-17.58q-4.93,12.72-9.88,25.46l-10.24-29.52c0-.09-.06-.18-.1-.28q-10-2.13-20.06-4.21l-.08.29a89.39,89.39,0,0,0-2.81,14.32l-.06.53q10.83,2.05,21.66,4.19V641q25.13,5.32,50.24,10.85V637.08l-16.07-3.5V622.8q23.56,5.12,47.12,10.25v25.07q12.12,2.63,24.23,5.19c0-.13,0-.25,0-.38a102,102,0,0,0,.7-12,111.1,111.1,0,0,0-3.46-27.3Zm2.17,38.94q-11.45-2.41-22.9-4.9V632.29Q635.9,627,611.62,621.72v12.62l16.07,3.5v12.93q-24.39-5.32-48.79-10.55V615.74q-10.78-2.12-21.56-4.18A88.6,88.6,0,0,1,560,598.21q9.54,2,19.09,4,5.4,15.57,10.81,31.16l10.32-26.63c26.73,5.78,53.46,11.7,80.18,17.38a109.85,109.85,0,0,1,3.34,26.67A100,100,0,0,1,683.07,662.26Z"/>
    <path d="M647.86,642q-5.15,10.59-10.28,21.16c-26.29-5.73-52.58-11.49-78.87-16.93.75,3.51,1.67,7,2.73,10.35,26.07,5.42,52.13,11.14,78.2,16.82L647.86,659l7.47,17.85q11.79,2.56,23.58,5.07a81.31,81.31,0,0,0,2.74-9.2q-10.83-2.31-21.65-4.64Q653.94,655,647.86,642Z" style="fill: #da251d"/>
    <path d="M647.83,641.13q-5.22,10.77-10.46,21.54c-26.38-5.75-52.76-11.53-79.13-17,0,.2.08.41.13.61.74,3.47,1.66,7,2.74,10.41l.1.3c26.21,5.45,52.41,11.2,78.62,16.91q4-7,8-14.07L655,677l.11.25q12,2.6,24,5.16c0-.09.07-.17.1-.26a81.66,81.66,0,0,0,2.74-9.26c0-.18.09-.37.14-.55q-11-2.33-21.93-4.7Zm30.85,40.25q-11.56-2.46-23.14-5-3.82-9.17-7.67-18.32l-8.43,14.82c-25.92-5.65-51.84-11.34-77.76-16.73-1-3.1-1.8-6.25-2.49-9.39,26.2,5.43,52.4,11.18,78.6,16.89q5.06-10.39,10.09-20.78,5.93,12.68,11.83,25.34l.1.22q10.68,2.31,21.36,4.58A82.72,82.72,0,0,1,678.68,681.38Z"/>
    <path d="M596.21,598.23,589.52,616l-6.93-20.69Q572.27,593.11,562,591q-1.26,3.25-2.25,6.74,9.79,2,19.59,4.11l10.57,30.48q5.05-13,10.1-26c26.89,5.82,53.78,11.77,80.66,17.48-.66-2.59-1.41-5.16-2.24-7.68C651,610.21,623.6,604.13,596.21,598.23Z" style="fill: #fff"/>
    <path d="M678.72,615.92l-.1-.29c-27.55-5.86-55.09-12-82.64-17.91q-3.24,8.58-6.47,17.17l-6.6-19.71-.09-.28q-10.55-2.25-21.1-4.45l-.09.25c-.84,2.18-1.6,4.46-2.26,6.78,0,.19-.11.38-.16.57q9.93,2.06,19.86,4.17,5.4,15.57,10.81,31.16l10.32-26.63c27,5.84,54,11.81,80.93,17.54l-.16-.64C680.32,621.06,679.56,618.46,678.72,615.92Zm-79-10.18q-4.93,12.72-9.88,25.46-5.11-14.76-10.24-29.52c0-.09-.06-.18-.1-.28q-9.64-2.05-19.3-4.06c.59-2,1.25-4,2-5.88q10.08,2.1,20.17,4.26,3.58,10.69,7.16,21.4l6.93-18.38c27.23,5.87,54.47,11.91,81.71,17.71.72,2.21,1.38,4.46,2,6.71C653.33,617.46,626.53,611.53,599.74,605.74Z"/>
    <path d="M647.86,659l-8.22,14.44c-25.9-5.64-51.8-11.33-77.7-16.72,10,30.39,32.4,54.91,58.24,60.55s48.17-9.28,58.22-35.46q-11.53-2.44-23.07-5Z" style="fill: #f8c300"/>
    <path d="M647.87,658.09l-8.43,14.82c-26-5.67-52-11.38-78.06-16.79l.23.69C572,688.34,595,712.2,620.18,717.7s48.12-8.5,58.55-35.66l.23-.6q-11.72-2.49-23.42-5Q651.72,667.24,647.87,658.09Zm-27.69,58.69c-24.68-5.39-47.26-28.69-57.68-59.51,25.78,5.37,51.56,11,77.33,16.64q4-7,8-14.07L655,677l.11.25q11.36,2.46,22.71,4.88C667.42,708.58,644.85,722.17,620.18,716.78Z"/>
    <path d="M561.4,442.48c-2.62-.54-4.76,2.66-4.76,7.12v42.2c0,4.45,2.14,8.54,4.76,9.08s4.77-2.65,4.77-7.1v-42.2C566.16,447.12,564,443,561.4,442.48Z" style="fill: #e77817"/>
    <path d="M545.08,439.13c-2.62-.53-4.76,2.69-4.76,7.14v42.2c0,4.46,2.14,8.53,4.76,9.06s4.76-2.67,4.76-7.13V448.2C549.84,443.75,547.7,439.67,545.08,439.13Z" style="fill: #e77817"/>
    <path d="M578.54,446.09c-2.62-.56-4.76,2.63-4.76,7.09v42.2c0,4.45,2.14,8.55,4.76,9.1s4.76-2.63,4.76-7.08V455.2C583.3,450.74,581.16,446.64,578.54,446.09Z" style="fill: #e77817"/>
    <path d="M545.08,438.67c-2.82-.57-5.12,2.81-5.12,7.53v42.2c0,4.72,2.3,9,5.12,9.59s5.12-2.79,5.12-7.51v-42.2C550.2,443.56,547.91,439.25,545.08,438.67Zm4.4,51.66c0,4.21-2,7.24-4.4,6.74s-4.4-4.31-4.4-8.52v-42.2c0-4.21,2-7.25,4.4-6.75s4.4,4.32,4.4,8.53Z"/>
    <path d="M578.54,445.63c-2.82-.6-5.12,2.75-5.12,7.47v42.2c0,4.72,2.3,9,5.12,9.64s5.12-2.74,5.12-7.46v-42.2C583.66,450.56,581.37,446.23,578.54,445.63Zm4.4,51.69c0,4.22-2,7.22-4.4,6.71s-4.4-4.36-4.4-8.58v-42.2c0-4.21,2-7.22,4.4-6.7s4.4,4.36,4.4,8.57Z"/>
    <path d="M561.4,442c-2.82-.58-5.12,2.78-5.12,7.5v42.2c0,4.72,2.3,9,5.12,9.62s5.13-2.77,5.13-7.49v-42.2C566.53,446.93,564.23,442.61,561.4,442Zm4.4,51.68c0,4.21-2,7.23-4.4,6.72s-4.4-4.33-4.4-8.55v-42.2c0-4.21,2-7.23,4.4-6.73s4.4,4.35,4.4,8.56Z"/>
    <path d="M677.42,543.41c14.07,26.52,22.77,60.79,26.6,104.86l.72.05C700.9,604.07,692.15,569.65,678,543Z"/>
    <path d="M620.18,554.94c-35.44-7.77-64.27,23.09-64.27,68.39s28.83,88.07,64.27,95.83,64.26-22.91,64.26-68.21S655.61,562.7,620.18,554.94Zm0,163.31c-35-7.68-63.55-50-63.55-94.77s28.51-75.3,63.55-67.62,63.54,50.19,63.54,94.94S655.21,725.93,620.18,718.25Z"/>
    <path d="M620.18,727.71q-2.53-.56-5-1.32-.36,18.57-.71,37.15A89.68,89.68,0,0,0,626,765.92l-1.41-37.43C623.14,728.29,621.66,728,620.18,727.71Z" style="fill: #f9d7a3"/>
    <path d="M625,728.08l-.37-.05c-1.61-.23-3.05-.48-4.4-.77-1.59-.35-3.27-.8-5-1.33l-.37-.11q-.37,19-.73,38.08l.35.09q2.45.66,4.84,1.19c2.3.5,4.57.9,6.78,1.2l.35,0q-.72-18.95-1.43-37.88Zm-10.14,35.1q.36-18.12.7-36.23c1.61.49,3.18.9,4.67,1.22,1.26.28,2.6.52,4.08.74q.71,18.24,1.39,36.49A88.87,88.87,0,0,1,614.81,763.18Z"/>
    <path d="M631.63,729q3.06,18.81,6.11,37.62a74.24,74.24,0,0,0,11.17-.89q-4.1-18.72-8.18-37.45A50.51,50.51,0,0,1,631.63,729Z" style="fill: #da251d"/>
    <path d="M640.63,727.83a50.62,50.62,0,0,1-9,.72h-.38q3.09,19.07,6.19,38.12c0,.15.05.3.07.45h.34a78,78,0,0,0,11.21-.89l.35-.06Q645.16,747,641,727.77ZM638,766.17q-3-18.34-5.95-36.69a51.32,51.32,0,0,0,8.42-.66q4,18.25,8,36.51A78.41,78.41,0,0,1,638,766.17Z"/>
    <path d="M648.18,726.43l13.21,36.16a71,71,0,0,0,10.26-4.5q-7.57-17.65-15.13-35.32A51.09,51.09,0,0,1,648.18,726.43Z" style="fill: #00923f"/>
    <path d="M656.64,722.17l-.31.16A49.92,49.92,0,0,1,648,726l-.36.12q6.78,18.54,13.55,37.06l.31-.11a71.15,71.15,0,0,0,10.29-4.52l.31-.17q-7.65-17.86-15.31-35.75ZM661.56,762l-12.89-35.27a50.92,50.92,0,0,0,7.73-3.39q7.36,17.24,14.75,34.45A71.59,71.59,0,0,1,661.56,762Z"/>
    <path d="M662.1,719.22l19.13,32.68a79.27,79.27,0,0,0,8.8-7.75Q679.67,728.61,669.31,713A56.71,56.71,0,0,1,662.1,719.22Z" style="fill: #28166f"/>
    <path d="M669.32,712.38l-.26.26a58.36,58.36,0,0,1-7.17,6.17l-.31.22q9.69,16.58,19.38,33.11l.22.38.27-.21a79.23,79.23,0,0,0,8.83-7.78l.26-.27q-10.49-15.72-21-31.51Zm12,38.9-18.67-31.87a57.81,57.81,0,0,0,6.68-5.74L689.51,744A80.36,80.36,0,0,1,681.29,751.28Z"/>
    <path d="M674,707.71q12,13.6,23.95,27.14a102,102,0,0,0,6.82-10.63q-12.54-12.44-25.08-25A69.92,69.92,0,0,1,674,707.71Z" style="fill: #fff500"/>
    <path d="M679.55,698.59l-.19.33a68.85,68.85,0,0,1-5.66,8.43l-.25.33q12.12,13.79,24.26,27.5l.27.31.22-.29A102.1,102.1,0,0,0,705,724.53a4,4,0,0,0,.2-.35q-12.69-12.6-25.39-25.29Zm18.31,35.62Q686.18,721,674.5,707.74a69.77,69.77,0,0,0,5.27-7.85q12.24,12.23,24.47,24.37A102.78,102.78,0,0,1,697.86,734.21Z"/>
    <path d="M591.12,753.91a109.19,109.19,0,0,0,11.26,5.5q3-17.77,6-35.54a73.22,73.22,0,0,1-9.08-4.72Z" style="fill: #fff500"/>
    <path d="M599.38,718.73l-.35-.22q-4.17,17.82-8.36,35.62l.36.2a109.38,109.38,0,0,0,11.29,5.52l.34.14q3.06-18.19,6.13-36.4l-.37-.16A73.29,73.29,0,0,1,599.38,718.73Zm2.71,40.09a108,108,0,0,1-10.52-5.14l7.95-33.9a76.35,76.35,0,0,0,8.41,4.37Q605,741.49,602.09,758.82Z"/>
    <path d="M567,736.2A131.94,131.94,0,0,0,577.42,745q6.89-15.74,13.78-31.45a93.54,93.54,0,0,1-8.26-7.39Z" style="fill: #28166f"/>
    <path d="M583.13,705.76l-.31-.31q-8.05,15.21-16.12,30.45l-.2.36.33.3a128,128,0,0,0,10.45,8.78l.31.24q7-16.11,14.1-32.19l-.34-.27A93.29,93.29,0,0,1,583.13,705.76Zm-5.88,38.56c-3.38-2.57-6.66-5.32-9.75-8.18q7.79-14.7,15.56-29.37a91.61,91.61,0,0,0,7.65,6.85Q584,729,577.25,744.32Z"/>
    <path d="M547.11,713.16c2.83,4.07,5.82,7.89,8.92,11.53q10.34-12.77,20.66-25.46a110,110,0,0,1-7-9.47Q558.39,701.42,547.11,713.16Z" style="fill: #f9d7a3"/>
    <path d="M569.93,689.49l-.25-.38q-11.41,11.8-22.82,23.67l-.26.27.26.39c2.7,3.88,5.71,7.77,8.95,11.57l.27.31q10.56-13.05,21.13-26l-.3-.37A108.86,108.86,0,0,1,569.93,689.49ZM556,724.05c-3-3.54-5.82-7.17-8.35-10.79q11-11.46,22-22.85c2.06,3.06,4.24,6,6.51,8.77Q566.08,711.59,556,724.05Z"/>
    <path d="M530.91,683.48c2,4.8,4.19,9.44,6.55,13.86q13.31-8.54,26.61-16.94c-1.93-3.59-3.7-7.31-5.29-11.13Q544.85,676.31,530.91,683.48Z" style="fill: #fff500"/>
    <path d="M559.09,669.1c-.06-.14-.12-.28-.17-.42q-14.1,7.11-28.18,14.37l-.32.16.18.45c2.08,4.94,4.29,9.62,6.57,13.9.07.12.14.25.2.38q13.46-8.62,26.89-17.11l.33-.21-.24-.44C562.46,676.66,560.69,672.93,559.09,669.1Zm-21.55,27.63c-2.12-4-4.18-8.37-6.13-13q13.62-7,27.24-13.89c1.5,3.56,3.14,7,4.89,10.32Q550.55,688.4,537.54,696.73Z"/>
    <path d="M619.52,440.32c.72-1.46,8.59-17.09,8.4-17.5a31.85,31.85,0,0,1-2.87-12q-2.79,5.66-5.57,11.32l-6.09-16.59a26.52,26.52,0,0,1-2.11,11.86c.12.49.25,1,.37,1.48Q615.6,429.62,619.52,440.32Z" style="fill: #0093dd"/>
    <path d="M723.53,429.68V650.46c-9.92,187.32-207.26,130.15-207.26-43.55V386.49c.06,0-8.8-4.52-10-5.22V605c0,190.19,216.37,253,227.26,47.38V428.09C733.16,428.18,719.83,430,723.53,429.68Z" style="fill: #0093dd"/>
    <path d="M611.33,419.05q4.09,11.13,8.17,22.24l1-2.05c8-16,7.89-16.2,7.7-16.61a31.27,31.27,0,0,1-2.81-11.74l-.67-.34q-2.62,5.31-5.24,10.64l-5.79-15.76-.68.08A26,26,0,0,1,611,417.14l-.08.16c0,.2.1.39.16.59Zm2.42-11.48q2.87,7.79,5.72,15.55,2.65-5.42,5.32-10.82a32.69,32.69,0,0,0,2.74,10.52c-.33,1-2.9,6.34-7.63,15.82l-.36.72q-3.76-10.26-7.54-20.51c-.09-.38-.19-.75-.29-1.12l0-.18A25.74,25.74,0,0,0,613.75,407.57Z"/>
    <path d="M731,428c-5.22.74-7.25,1-8,1.26h-.08v0c-.41.14-.38.27-.35.47.08.37.23.45.64.43V650.36c-2.3,43.33-15,76.87-36.74,96.68-19.22,17.53-44.41,23.23-71,16.34-26.05-6.8-50.28-24.82-68.21-50.68-20-28.88-30.6-65.31-30.6-105.71V386.66c.07-.42.07-.42-1.16-1.06-2.22-1.15-8.13-4.19-9.08-4.75l-.47-.28V605c0,44.57,11.68,84.69,33.79,116.51,19.79,28.5,46.53,48.36,75.28,55.87,1.36.35,2.7.67,4,1,27.82,6.08,54.07-.55,74.31-19,24-21.9,38-59,40.55-106.77V427.53l-.47.1Zm2.19,224.31c-2.53,47.54-16.46,84.39-40.3,106.16C671.78,777.72,644.14,784,615,776.41c-28.58-7.46-55.14-27.2-74.81-55.51-22-31.62-33.57-71.5-33.57-115.82V382c1.72.93,6.66,3.48,8.66,4.51l.62.32V606.85c0,40.66,10.66,77.32,30.82,106.4,18.06,26,42.46,44.2,68.68,51,26.73,7,52.13,1.19,71.49-16.46,21.89-19.94,34.67-53.69,37-97.3V430c1.63-.27,5.16-.76,7.28-1.07l2-.28Z"/>
    <path d="M779.92,716.41c0-7.39-4.61-14.2-10.25-15.19a7.52,7.52,0,0,0-5.1.87C740,897.61,515.7,865.39,474.19,642.61a9.39,9.39,0,0,0-4.09-1.78c-5.64-.92-10.25,4.4-10.25,11.79,0,6.47,3.54,12.44,8.21,14.44-14.64,19.44-6.41,62.83,19.16,99.2,17.34,24.7,38.45,40.45,55.66,43.52,0,.11,0,.23,0,.35,0,32,34.71,65.17,77.27,74.53s77.26-9.46,77.26-41.52c0-.12,0-.24,0-.35,17,3.48,37.62-4.07,54.66-22.19,25.5-27.29,33.83-68.24,19.27-92.43C776.18,728,779.92,723.06,779.92,716.41Z" style="fill: #f8c300"/>
    <path d="M780.28,716.47c0-7.66-4.76-14.68-10.61-15.71a7.78,7.78,0,0,0-5.28.91l-.15.08,0,.21c-5.71,45-22.65,81-49,103.62-24.06,20.66-55.15,28.91-87.54,23.52-33.5-5.55-66.54-25.29-93-55.15-29.57-33.39-50.36-78.54-60.12-131.39l0-.22-.16-.12a9.73,9.73,0,0,0-4.24-1.85c-5.85-1-10.61,4.54-10.61,12.19,0,6.31,3.29,12.34,7.91,14.67-14.36,20-5.86,63.15,19.57,99.31,16.63,23.7,37.12,39.91,55,43.52l.55.11c.08,32.24,34.87,65.55,77.63,75s77.54-9.51,77.62-41.8c17.72,3.46,38.08-4.84,54.55-22.35,25.36-27.15,33.9-67.78,19.68-92.38C776.83,728,780.28,723,780.28,716.47Zm-9,11.23-.63,0,.41.69c14.53,24.13,6.08,64.7-19.24,91.8-16.44,17.48-36.78,25.72-54.41,22.11l-.35-.08v.81c0,31.85-34.5,50.45-76.9,41.14s-76.91-42.22-76.91-74c0-.28,0-.55,0-.83l-.37-.06-.87-.17c-17.45-3.53-38.26-20-54.53-43.17-25.37-36.11-33.78-79.13-19.14-98.57l.4-.53-.6-.25c-4.59-2-7.92-7.82-7.92-14,0-7.15,4.44-12.28,9.89-11.39a9,9,0,0,1,3.79,1.6c9.81,53,30.68,98.23,60.34,131.73,26.6,30,59.78,49.78,93.46,55.41,32.55,5.41,63.79-2.88,88-23.64,26.45-22.68,43.47-58.85,49.23-103.95a7.26,7.26,0,0,1,4.77-.76c5.45,1,9.89,7.52,9.89,14.67C779.56,722.63,776,727.52,771.26,727.7Z"/>
    <path d="M554.58,359.75c-44,2.1-71.23-31-98.9-18.92C439.46,348,436.82,367,441.5,387c10.65,45.3,62.14,16.52,35.14-19.1,12.25-2.54,28.93,17.91,51.37,22.41,17.66,3.51,44.8-12.1,59.21-5.82-34,15.39,3.71,68.29,23.24,34.5,5.77-10,2.46-25.42-4.62-39.93C588.75,373.29,571.67,366.92,554.58,359.75Z" style="fill: #f8c300"/>
    <path d="M606,378.68l-.17-.05c-18.34-6.22-35.1-12.56-51.23-19.32l-.07,0h-.06c-21.59,1-39.17-6.46-54.67-12.87-16.18-6.68-30.14-12.26-44.31-6C441,346.82,435.74,364,441.15,387.1c1.77,7.6,6.58,20.64,18.83,23.24l1,.17c9.44,1.47,19.21-4.67,22.54-14.48,2.9-8.55.73-18.4-6.13-27.76,5.92-.84,13,3.56,21.11,8.68,8.57,5.4,18.3,11.58,29.54,13.84l.11,0c8.49,1.66,19.11-1.05,29.39-3.61,10.88-2.72,21.18-5.23,28.56-2.67C577,389,572.36,397,573.3,406.64c.89,9.15,6.77,18.2,14.3,22,8.73,4.44,17.16,1,23.16-9.35,5.2-9,3.51-23.76-4.63-40.45Zm4.12,40c-5.83,10.08-14,13.41-22.4,9.11-7.24-3.68-12.89-12.37-13.75-21.14-.54-5.6.47-15.89,13.37-21.72l1-.43-1.05-.45c-7.62-3.31-18.5-.66-30,2.21-10.22,2.55-20.79,5.24-29.15,3.61l-.11,0c-11.12-2.23-20.78-8.38-29.3-13.75s-15.93-10-22.18-8.66l-.61.13.48.63c7,9.23,9.27,19,6.42,27.35-3.34,9.82-13.35,15.85-22.81,13.85-5.07-1.09-14.17-5.39-18.17-22.49-5.29-22.64-.2-39.39,14-45.65,14-6.14,27.83-.61,43.88,6,15.55,6.43,33.17,13.92,54.87,12.92,16.08,6.74,32.79,13.06,51.06,19.25C613.52,395.72,615.17,410,610.16,418.7Z"/>
    <path d="M469,364.63c-5.36.43-10.3,5.59-11.22,8.81-3.18,11.12,1.75,17.06,3.33,18.62a8.83,8.83,0,0,0,4.63,2.54,4.19,4.19,0,0,0,3.82-1.12c2-2.13,1.85-6.59-.5-12.23l-.63.35c2.18,5.21,2.41,9.27.63,11.13s-5,1.18-7.55-1.38c-1.48-1.45-6.06-7-3.05-17.5.74-2.58,5.17-7.86,10.67-8.29,3.78-.31,7.06,1.8,9.74,6.24l.54-.51C476.63,366.62,473,364.32,469,364.63Z"/>
    <path d="M591.86,384.85c-3.08-1.54-6.39-.91-9.32,1.79.15.26.31.52.47.78,2.76-2.53,5.84-3.14,8.69-1.7s5.09,4.67,6.52,9.24c3.56,11.45.13,15.05-2.23,16.18-3.7,1.79-9.38-.41-11.23-4.33-1.38-2.91-.27-6.07,3.12-8.9l-.46-.81c-5,4.18-4.2,8.12-3.26,10.1a10.21,10.21,0,0,0,7,5.3,8.11,8.11,0,0,0,5.17-.47c2.07-1,6.47-4.67,2.54-17.28C597.36,389.88,594.87,386.36,591.86,384.85Z"/>
    <path d="M467.33,481.67c-3.56-16.24,10.07-35.34,10.19-64a68.73,68.73,0,0,0-1.1-12.11,19.1,19.1,0,0,1-20.85,2.73c-.42,27.13-17.43,48.46-6.83,92.66,5.42,22.54,22.65,32.12,37.79,28.8C521.05,522.39,491.65,451.1,467.33,481.67Z" style="fill: #f8c300"/>
    <path d="M488.42,476.46c-7.08-5-14.49-3.42-20.91,4.31-1.42-7.78,1.06-16.41,3.91-26.34,3-10.47,6.4-22.32,6.46-36.66a68.58,68.58,0,0,0-1.11-12.22l-.12-.73-.45.37c-6.05,5-13.92,6-20.54,2.7l-.44-.23v.59c-.15,9.48-2.34,18.26-4.65,27.57-4.25,17.07-9.07,36.44-2.16,65.25,2.58,10.75,7.92,19.16,15.45,24.41a29.82,29.82,0,0,0,12.17,5,27.88,27.88,0,0,0,10.61-.28c5.74-1.28,15.46-5.66,16-21.2C503.08,496.68,496.83,482.33,488.42,476.46Zm-2,52.86c-19,4.21-33.15-11-37.33-28.43-6.84-28.52-2.06-47.75,2.15-64.69,2.29-9.18,4.45-17.86,4.68-27.24a19.32,19.32,0,0,0,20.27-2.6,65.56,65.56,0,0,1,1,11.28c-.06,14.19-3.44,26-6.42,36.37s-5.58,19.45-3.76,27.74l.18.82.43-.54c6.31-7.93,13.61-9.63,20.56-4.77,8.15,5.69,14.19,19.61,13.77,31.61C501.69,515.31,499.38,526.47,486.42,529.32Z"/>
    <path d="M454.47,514.93a61.79,61.79,0,0,0-.74,9.16c.09,28.63,24.34,55.29,20.74,70.4-24.33-38.53-53.68,23.31-19.18,41.86,15.15,8.25,32.35,4.29,37.77-16.51,9.57-36.79-8.73-63.94-14.75-89.5C469.31,529.58,460.45,524.45,454.47,514.93Z" style="fill: #f8c300"/>
    <path d="M478.65,530.25l-.08-.36-.28,0c-9.36-.79-18-6.29-23.55-15.2-.17-.26-.33-.52-.49-.78-.05.3-.09.6-.14.9a61.62,61.62,0,0,0-.74,9.25c.05,15.27,6.79,29.72,12.74,42.52,5,10.74,9.33,20.11,8.18,27-6.42-9.81-13.82-13.77-20.91-11.11-8.4,3.14-14.64,15.48-14.2,28,.55,15.72,10.26,23.23,16,26.38a32.84,32.84,0,0,0,10.61,3.73A23.8,23.8,0,0,0,478,639.43c7.52-2.79,12.86-9.47,15.44-19.39,7-26.92-.92-49-7.92-68.43A200.09,200.09,0,0,1,478.65,530.25Zm14.06,89.39.34.2-.34-.2c-5.53,21.22-22.95,24.11-37.32,16.28-12.95-7-15.26-18.94-15.49-25.47-.43-12.13,5.62-24.11,13.75-27.15a11.66,11.66,0,0,1,5.91-.63c5.06.79,10.11,4.91,14.65,12.09l.43.68.18-.76c1.74-7.31-2.82-17.16-8.1-28.52-5.9-12.69-12.58-27-12.63-42a59.16,59.16,0,0,1,.6-8.19c5.69,8.61,14.16,13.93,23.36,14.81a204.92,204.92,0,0,0,6.78,21.14C491.77,571.16,499.63,593.06,492.71,619.64Z"/>
    <path d="M478.83,493.15l.14.92a7.7,7.7,0,0,1,8.24,5.09c1.28,3.13,1,6.74-.75,8.8-2.41,2.88-6.85,2.15-12.19-2-2.37-1.84-7.18-8.93-7.91-16-.45-4.46.79-8.1,3.7-10.81-.16-.26-.32-.52-.47-.78-3.11,2.91-4.43,6.81-3.94,11.59.76,7.37,5.82,14.81,8.31,16.74,3,2.35,5.47,3.41,7.38,3.73a5.74,5.74,0,0,0,5.65-1.82c1.93-2.31,2.28-6.37.85-9.86C486.22,494.88,482.86,492.75,478.83,493.15Z"/>
    <path d="M471.74,591.14a16.1,16.1,0,0,1,3.69,12c-.72,6.8-5.53,12.32-7.91,13.39-5.33,2.37-9.77,1.66-12.18-2a9.71,9.71,0,0,1-.75-9c1.47-3.11,4.47-4,8.23-2.4l.15-.88c-4-1.7-7.4-.67-9,2.74a10.89,10.89,0,0,0,.85,10.13,8.22,8.22,0,0,0,5.65,3.66,13,13,0,0,0,7.37-1.32c2.5-1.12,7.56-6.91,8.32-14a17.3,17.3,0,0,0-3.94-12.88C472.05,590.73,471.9,590.94,471.74,591.14Z"/>
    <path d="M620.41,100C613,98.37,607,140.93,607,194.71c0,28.19,1.32,49.43,3.65,63.5h.08l1,.09,1,.1.29,0H613l1.08.14.29,0h.08l1,.14c.62.09,1.24.18,1.86.29l.36.06c.7.12,1.39.25,2.09.39l.4.08,2,.44.28.06.3.07c.69.16,1.39.34,2.08.52l.44.12,1.48.41.29.08,1.14.34.29.09.29.09.29.09c2.93-12.93,4.9-33.35,4.9-61.33C633.86,146.79,627.81,101.6,620.41,100Z" style="fill: #00923f"/>
    <path d="M620.41,99.52c-7.75-1.68-13.81,40.1-13.81,95.12,0,27.5,1.23,48.9,3.66,63.59l.15.42,5,.58,1.85.29.36.07,2.08.38.4.08c.67.14,1.34.28,2,.44l.57.13c.69.16,1.39.34,2.08.52l.43.11,1.49.42.28.08,1.15.33,1.15.37a3.59,3.59,0,0,1,.08-.35c3.21-14.19,4.9-35.44,4.91-61.45C634.22,145.63,628.15,101.21,620.41,99.52Zm8.28,161.83-.57-.17-1.15-.34-.29-.09-1.49-.41-.44-.12-2.09-.52-.58-.13c-.67-.16-1.33-.3-2-.44l-.41-.08c-.69-.14-1.4-.27-2.1-.39l-.36-.06c-.62-.11-1.24-.2-1.86-.29l-4.46-.54c-2.37-14.61-3.57-35.79-3.57-63,0-52.68,6-95.89,13.09-94.34s13.09,47.36,13.09,100C633.5,232.88,630.9,251.43,628.69,261.35Z"/>
    <path d="M581.12,111.17c-6.8.16-7,38.53-.43,85.41,3.43,24.4,8,46.42,12.59,61.92a82.14,82.14,0,0,1,16.88-.33c.22-15.6-1.36-37.69-4.77-62.1C598.8,149.16,587.91,111,581.12,111.17Z" style="fill: #96aebe"/>
    <path d="M581.54,110.75a2,2,0,0,0-.49,0c-7.11.16-7.43,37.89-.71,85.87,3.28,23.39,7.88,46,12.61,62l.12.4.3,0a83.1,83.1,0,0,1,16.82-.33l.32,0c0-.14,0-.27,0-.41.23-16.15-1.51-38.82-4.78-62.19C599.16,149.14,588.65,112.26,581.54,110.75ZM593.5,258c-4.67-15.94-9.21-38.29-12.46-61.42-6.41-45.89-6.35-84.78.14-84.93a1.81,1.81,0,0,1,.4,0c6.53,1.38,17.14,39.41,23.46,84.39,3.22,23.11,5,45.53,4.76,61.61A83.9,83.9,0,0,0,593.5,258Z"/>
    <path d="M658.19,127.88c-6.79-3.07-17.68,30.35-24.25,74.41-3.39,22.75-5,44-4.8,59.67a101.49,101.49,0,0,1,17.12,7.24c4.49-13.51,9-33.23,12.33-55.74C665.16,169.39,665,131,658.19,127.88Z" style="fill: #da251d"/>
    <path d="M658.26,127.44a2.42,2.42,0,0,0-.5-.16c-7.11-1.54-17.6,30.79-24.18,74.85-3.29,22.09-5,43.32-4.8,59.76,0,.14,0,.28,0,.42l.33.1a103.09,103.09,0,0,1,17.06,7.22l.3.16.12-.35c4.7-14.14,9.08-34,12.34-55.82C665.67,168.51,665.37,130.66,658.26,127.44Zm0,85.86c-3.22,21.62-7.55,41.24-12.18,55.31a104.26,104.26,0,0,0-16.55-7c-.17-16.32,1.53-37.31,4.79-59.16,6.3-42.24,16.91-75.68,23.43-74.26a1.7,1.7,0,0,1,.4.13C664.61,131.25,664.67,170.17,658.23,213.3Z"/>
    <path d="M686.41,156.55c-6.19-3.84-20.13,27-31.45,68.58a444.47,444.47,0,0,0-9.29,43.76A132.76,132.76,0,0,1,664,280.59a381.8,381.8,0,0,0,13.22-41.47C688.56,197.51,692.43,160.34,686.41,156.55Z" style="fill: #fff500"/>
    <path d="M686.52,156.13c-7.31-4.52-21.89,32.08-31.91,68.79a446.58,446.58,0,0,0-9.3,43.81l-.06.42.33.17A133.59,133.59,0,0,1,663.86,281l.32.25.14-.38a382.21,382.21,0,0,0,13.24-41.51c5.44-20,9.39-39.7,11.12-55.55C689.68,174.6,690.74,158.79,686.52,156.13ZM688,183.52c-1.73,15.79-5.67,35.47-11.1,55.39a382.68,382.68,0,0,1-13.06,41,133.35,133.35,0,0,0-17.72-11.32c2.07-13.27,5.25-28.23,9.2-43.29,10.89-39.93,24.25-69.93,30.39-68.64a2.18,2.18,0,0,1,.62.25C689,158.65,689.6,168.58,688,183.52Z"/>
    <path d="M673.56,248.6c-4.91,10.27-9.24,20.34-12.79,29.62a174.27,174.27,0,0,1,19.08,15.93c4.6-7.85,9.39-16.87,14.08-26.68,17.74-36.73,27.19-71.12,21.81-76.2C709.77,186.07,690.92,211.91,673.56,248.6Z" style="fill: #f8c300"/>
    <path d="M673.25,248.31c-4.82,10.07-9.13,20.05-12.8,29.65l-.16.41.35.25a174.15,174.15,0,0,1,19,15.89l.29.28a3.37,3.37,0,0,0,.19-.32c4.76-8.13,9.51-17.12,14.1-26.71C712,231,721.74,196.4,715.91,190.9,709.69,185.52,691,210.81,673.25,248.31Zm20.37,18.86c-4.52,9.46-9.19,18.31-13.88,26.34a175.6,175.6,0,0,0-18.48-15.44c3.63-9.45,7.88-19.27,12.62-29.18,17.27-36.51,36-62.21,41.68-57.26C720.26,196.06,712.4,228.27,693.62,267.17Z"/>
    <path d="M688.56,274.22c-4,6-7.75,11.91-11.13,17.65a234.73,234.73,0,0,1,18.89,19.8c3.64-4.81,7.35-10,11.06-15.57,21.62-32.57,35.34-64.23,29.8-70.23C732.24,220,710.39,241.84,688.56,274.22Z" style="fill: #96aebe"/>
    <path d="M737.4,225.55a3.08,3.08,0,0,0-2.37-1.11c-7.71-.19-27.37,20.68-46.76,49.44-3.92,5.83-7.67,11.77-11.14,17.67l-.22.37.34.32A234.82,234.82,0,0,1,696.11,312l.27.32.22-.29c3.71-4.91,7.43-10.16,11.07-15.59,19.53-29.42,32.28-57.38,31-67.66A5.78,5.78,0,0,0,737.4,225.55Zm-30.3,70.22c-3.57,5.31-7.21,10.45-10.83,15.26A238.86,238.86,0,0,0,678,291.83c3.4-5.77,7.06-11.58,10.89-17.27,19-28.14,38.87-49.37,46.28-49.19a2.35,2.35,0,0,1,1.85.83,4.62,4.62,0,0,1,1,2.59C739.19,238.68,726.21,267,707.1,295.77Z"/>
    <path d="M551.05,127.51c-6.14,1.29-2.09,40.06,9,86.39,4.43,18.49,9.35,35.48,14,49.13A92,92,0,0,1,592,258.66c-2-14.05-5.26-31.08-9.61-49.26C571.27,163,557.2,126.23,551.05,127.51Z" style="fill: #da251d"/>
    <path d="M582.72,209.33c-5.38-22.46-11.61-43.39-17.55-58.91-4.26-11.13-10.2-24.2-14.23-23.37-6.45,1.35-2.59,39.5,8.78,86.92,4.3,17.91,9.16,34.92,14.06,49.19l.15.43.32-.11a91.66,91.66,0,0,1,17.84-4.35l.32-.05-.07-.42C590.26,244,586.93,226.92,582.72,209.33Zm-8.44,53.13c-4.83-14.13-9.63-30.94-13.87-48.63-12-50-14.47-84.76-9.25-85.86a1.68,1.68,0,0,1,.59,0c2.83.58,7.42,8.73,12.79,22.74,5.92,15.47,12.13,36.34,17.5,58.75,4.16,17.37,7.45,34.23,9.54,48.78A92,92,0,0,0,574.28,262.46Z"/>
    <path d="M521.84,150.35c-5.65,2.93,4.09,41,21.66,85,5,12.57,10.17,24.31,15.07,34.59a108.23,108.23,0,0,1,18.8-7.95c-3.63-11.3-8.16-23.89-13.37-37C546.42,180.85,527.48,147.41,521.84,150.35Z" style="fill: #00923f"/>
    <path d="M564.31,224.82c-8.51-21.36-17.6-40.91-25.59-55C533,159.64,525.38,148,521.66,149.91c-5.92,3.08,3.54,40.55,21.53,85.56,4.91,12.28,10,23.93,15.08,34.63l.19.39.29-.16a108.46,108.46,0,0,1,18.76-7.92l.34-.11-.15-.47C573.91,250.05,569.4,237.59,564.31,224.82Zm-5.63,44.49c-5-10.56-10-22.05-14.86-34.16-19-47.49-26.61-81.87-21.81-84.37a1.54,1.54,0,0,1,1-.11c2.9.56,8.29,7.49,15.12,19.58,8,14.08,17,33.58,25.52,54.88,5,12.58,9.46,24.85,13.22,36.48A108.27,108.27,0,0,0,558.68,269.31Z"/>
    <path d="M500.08,176.64c-5.16,4,8.33,40.59,30,81.86,4,7.66,8.07,15,12,21.74A139.63,139.63,0,0,1,561,268.66c-3.63-7.79-7.68-16-12.07-24.37C527.17,202.82,505.25,172.6,500.08,176.64Z" style="fill: #f8c300"/>
    <path d="M549.17,244.07c-10.51-20.07-21.4-38.17-30.65-51-6.63-9.19-15.25-19.54-18.65-16.88s.75,16.42,4.83,27.52c5.7,15.49,14.62,35,25.14,55,3.95,7.51,8,14.83,12,21.76l.22.38.27-.2a138.23,138.23,0,0,1,18.79-11.56l.34-.17c-.07-.16-.15-.31-.22-.46C557.5,260.42,553.43,252.2,549.17,244.07Zm-7,35.56c-3.94-6.81-7.9-14-11.78-21.35-10.49-19.94-19.39-39.38-25.06-54.82-5.52-15-7.36-24.62-5.05-26.42a1.67,1.67,0,0,1,1.4-.26c3,.55,8.79,6.47,16.33,16.9,9.22,12.76,20.08,30.81,30.57,50.83,4.17,8,8.15,16,11.84,23.88A140.71,140.71,0,0,0,542.19,279.63Z"/>
    <path d="M693.22,308.1q3.6,4.06,7.2,8.48c22.69-19.06,45.37-38.35,68.06-58.11C741.58,249.54,724.36,257.2,693.22,308.1Z" style="fill: #f8c300"/>
    <path d="M732.25,260.42c-11.51,7.13-23.64,21.75-39.32,47.35l-.2.33.28.32c2.31,2.61,4.66,5.38,7.19,8.47l.22.28c22.77-19.12,45.53-38.47,68.29-58.3l.65-.57-.84-.27C753.77,253.15,742.91,253.81,732.25,260.42ZM700.42,316c-2.35-2.87-4.54-5.46-6.7-7.9,15.52-25.31,27.53-39.77,38.92-46.82,10.43-6.48,20.62-7.2,35-2.62C745.2,278.14,722.81,297.18,700.42,316Z"/>
    <path d="M578.38,336.63v12.93a267.33,267.33,0,0,0,41,13.41,225.18,225.18,0,0,0,40.88,4.38v-13C633.32,333.79,606,327.73,578.38,336.63Z" style="fill: #1f1a17"/>
    <path d="M578.24,336.18l-.22.07v13.63l.31.12a266.69,266.69,0,0,0,41.11,13.43,224.11,224.11,0,0,0,40.92,4.39h.31V354.15l-.22-.16C633.49,333.42,605.83,327.29,578.24,336.18ZM660,366.88a224,224,0,0,1-40.51-4.37,267,267,0,0,1-40.7-13.26V337c27.26-8.69,54.58-2.64,81.21,17.6Z"/>
    <path d="M619.33,276.74c-2-.62-8,9.92-8.11,24.29a99.68,99.68,0,0,1,8.67,16.56,62.93,62.93,0,0,1,7.53-11.36c0-.4,0-.8,0-1.2C627.43,290.42,621.37,277.37,619.33,276.74Z" style="fill: #00923f"/>
    <path d="M619.35,276.29c-.46-.15-1,.09-1.59.67-2.72,2.62-6.79,12.05-6.9,24v.19l.1.16a97.79,97.79,0,0,1,8.62,16.45l.31.73.31-.59a61.44,61.44,0,0,1,7.49-11.29l.09-.11v-.17c0-.4,0-.8,0-1.21C627.79,290.51,621.73,277,619.35,276.29ZM627.07,306a61,61,0,0,0-7.17,10.73,98.71,98.71,0,0,0-8.32-15.77c.15-12,4.41-21,6.67-23.18.64-.62,1-.58,1-.56,1.82.56,7.77,13.2,7.77,27.76Z"/>
    <path d="M619.89,317.58c-5.66-13.53-13.42-25.57-25.26-34.27,6.13,14.1,12.09,28.34,14.77,43.16v33.9q5.05,1.42,10,2.6c3.59.71,7.21,1.35,10.87,1.89V331c2.8-13.62,8.62-25.31,14.86-36.72C633.42,297.88,625.72,306.56,619.89,317.58Z" style="fill: #00923f"/>
    <path d="M619.9,316.69c-6.39-15-14.62-26.05-25.14-33.77l-1-.75.57,1.32c6.26,14.38,12.1,28.5,14.72,43v34.28l.34.1c3.42,1,6.8,1.83,10.06,2.6,3.53.7,7.19,1.34,10.87,1.9l.34.05q0-17.08,0-34.17c2.91-14.08,9.18-26.28,14.83-36.6.19-.36.39-.72.59-1.08l-1,.31C634.57,297,626.58,304.3,619.9,316.69Zm10,14.25v33.41c-3.55-.54-7.09-1.16-10.49-1.84-3.13-.74-6.38-1.58-9.68-2.5V326.44c-2.56-14.17-8.16-27.95-14.23-42,10,7.7,17.92,18.6,24.06,33.27.11.24.21.49.31.73l.31-.59c6.44-12.17,14.1-19.44,24-22.8C638.74,305.23,632.77,317.13,629.93,330.94Z"/>
  </g>
</svg>
