<svg xmlns="http://www.w3.org/2000/svg" viewBox="0 0 1260 1012.04">
  <g>
    <path d="M0,1010.08C420,738.76,840,1193.28,1260,922V2C840,273.28,420-181.24,0,90.08Z" style="fill: #ffd327"/>
    <path d="M0,90.07v920C210,874.42,420,920.22,630,966V46C420,.22,210-45.58,0,90.07Z" style="fill: #234f8d"/>
    <g>
      <path d="M804.48,692.13a177.4,177.4,0,0,0,7.12-18.9,6.29,6.29,0,0,0,1.09-2.46l2-9.53c4.29-19.94,6.08-37.07,6.08-51.82v-.09c0-25.69-5.57-44.29-12.39-56.8a79.2,79.2,0,0,0-4.54-7.38c6.75-6.45,13.41-18.74,13.39-37.42v-.19a92.9,92.9,0,0,0-.55-9.9c0-.22,0-.45-.07-.68-.08-.44-.17-.89-.26-1.34-.06-.19-.11-.38-.16-.58-.14-.43-.48-1.58-1.06-3.06-.14-.3-.3-.64-.46-1-.1-.8-.22-1.53-.34-2.13s-.18-.92-.24-1.21l0-.09-.15-.7-.17-.64A42.16,42.16,0,0,0,798,463a37,37,0,0,0-13.58-6.81,35.56,35.56,0,0,0-.73-6.69c-.63-2.94-1.27-5.89-1.9-8.84a7.57,7.57,0,0,0-3.69-5.19,4.49,4.49,0,0,0-2.22-.5l-.32-.08a4,4,0,0,0-4.5,1.84l-1.53,2.33c-.72-.91-1.7-2.17-2.74-3.54a47.18,47.18,0,0,0-8.84-9.11,11.94,11.94,0,0,0-2-1.43c-.31-.17-.64-.36-.95-.5l-.08-.06-.16-.07-.12-.08a23.08,23.08,0,0,0-6.66-2.4,17.51,17.51,0,0,0-13,2.52,15.21,15.21,0,0,0-12,4.49c-2.87,3.23-4.29,7.08-5.37,10.61a25,25,0,0,0-10.1-4.73,17.62,17.62,0,0,0-3.42-.4l-3.16,0a4.13,4.13,0,0,0-1.64.4l-.51-.65c-.49-.64-1-1.23-1.45-1.83a21.11,21.11,0,0,0,1.75-5.05,27.59,27.59,0,0,0,.59-5.74,38.29,38.29,0,0,0-2.35-12.73c-.19-.59-.44-1.23-.66-1.75-.54-1.47-1.14-2.89-1.78-4.24l.21-.45,4.8-10.38a8.26,8.26,0,0,0,0-6.28,7,7,0,0,0-4.14-4.29l-10.14-3.16a66.48,66.48,0,0,0-6.75-1.8q-1-.22-2-.39c-.12-.62-.27-1.25-.43-1.87a34.87,34.87,0,0,0-9.9-16.42c-.44-.43-.89-.83-1.19-1.09a48,48,0,0,0-4-3.18,7.93,7.93,0,0,0-.06-.82l0-.38-1.08-13.47a8.69,8.69,0,0,0-2.77-5.79,6.11,6.11,0,0,0-.69-.51c2.64.37,5.12.83,7.41,1.33,3.38.72,6.36,1.52,8.81,2.29,0,2-.05,3.94-.08,5.91a8.83,8.83,0,0,0,2.43,6.24l2,2a45.05,45.05,0,0,0,15.28,9.63A98.43,98.43,0,0,0,709.94,365a199.84,199.84,0,0,0,32.52,3.59,58.43,58.43,0,0,1,9.23,1.05,137.68,137.68,0,0,1,19.81,5.52c2.74,1,5,1.86,6.62,2.47s2.37,1,2.37,1q4.95,2.15,9.89,4.24a4.06,4.06,0,0,0,5.32-1.92,8.08,8.08,0,0,0,0-7.36l-5.64-11.61a102.27,102.27,0,0,0-18.23-26.67c-.91-.94-1.83-1.84-2.78-2.72,3.71.28,7.53.81,10.39,1.31v0l.34.08,3.83.68c.9.18,1.31.28,1.31.28q6.5,1.41,13,2.78c2.25.46,4.3-1,5.06-3.57a8.48,8.48,0,0,0-1.71-7.73q-5.13-5.84-10.26-11.71c-16.43-19.05-31.07-26.59-43.34-28.84h-.08a2.21,2.21,0,0,0-.51-.08c-10.76-1.87-19.28-.66-25.63-2l-.11,0-.38-.06c-.54-.12-1.08-.25-1.65-.41a37.34,37.34,0,0,1-16.45-10,35.9,35.9,0,0,1-2.64-2.94q.16-7.08.35-14.16a8.56,8.56,0,0,0-3.71-7.32l-3-1.77a101,101,0,0,0-29.9-11.52,114.11,114.11,0,0,0-18-2.39c-.14-.59-.32-1.17-.49-1.75.37-.56.74-1.12,1.12-1.67a7.36,7.36,0,0,0,.84-5.57q-3.7-17.35-7.4-34.72-2.41-11.22-4.81-22.45c-.64-3-2.65-5.37-5-5.87s-4.34,1-5,3.71q-6.1,25.92-12.2,51.85a8.76,8.76,0,0,0,.84,6c.37.72.75,1.44,1.13,2.16a23.77,23.77,0,0,0-1.39,8.2,29.46,29.46,0,0,0,3.52,13.8V305c-1.25-2.67-2.51-5.34-3.76-8a6.68,6.68,0,0,0-4.35-3.88,3.93,3.93,0,0,0-4.3,2.12l-6.11,10.92c-11.28,20.07-15.26,41.42-15.26,60.38,0,0,0,0,0,0s0,.27,0,.42a156.11,156.11,0,0,0,6.16,42.38,1,1,0,0,0-.23.2l-.72.73c-.8.77-8.06,8.37-14.59,26.57a27.91,27.91,0,0,0-2.57-9.77A30.48,30.48,0,0,0,564,416.62c0-.71-.08-1.39-.15-2.11-.14-1.33-.27-2.66-.41-4-.31-3-2-5.57-4.26-6.52l-3-1.28a20.34,20.34,0,0,0-3.54-1.06,18.53,18.53,0,0,0-10.13.62,43.46,43.46,0,0,0-5.25-12.59,24.46,24.46,0,0,0-12.17-9.41,24.91,24.91,0,0,0-13-7.47,19.05,19.05,0,0,0-6.66-.08l-.09,0-.17,0h0c-.31,0-.65.11-1,.17a11.07,11.07,0,0,0-2.16.73,27.39,27.39,0,0,0-8.68,5.86c-1.08,1-2.06,1.95-2.84,2.63-.56-1-1.13-2.08-1.7-3.12a5.77,5.77,0,0,0-4.56-3.33,3.4,3.4,0,0,0-1,.07,4,4,0,0,0-1.34,0,4.77,4.77,0,0,0-3.63,3.92c-.62,2.69-1.25,5.39-1.87,8.09a30.11,30.11,0,0,0-.71,6.38A27,27,0,0,0,462,396.61a27.77,27.77,0,0,0-15.65,18.09l-.12.4-.16.65a26.9,26.9,0,0,0-.75,3.73,19.63,19.63,0,0,0-.9,2c-.19.47-.32.87-.4,1.1a.82.82,0,0,0-.06.14h0c-.06.13-.11.25-.16.38l-.17.54c-.1.47-.2.95-.29,1.43l-.07.57a89.64,89.64,0,0,0-.56,9.77v.18c0,18.64,6.64,32.81,13.41,41.37a46.68,46.68,0,0,0-4.63,6.15c-6.78,10.45-12.32,27.46-12.31,53a4.7,4.7,0,0,0,0,.5c0,14.71,1.82,32.19,6.07,53.2l2.19,10.78a8.38,8.38,0,0,0,1.17,2.9c2.15,7.46,4.62,14.37,6.89,20.21C463.86,645,467,662.24,467,671.52v.41a25.21,25.21,0,0,1-.51,5.52s.14,0-.47.48a10.45,10.45,0,0,1-4.72,1.65c-.95.12-1.82.14-2.45.16l-.54,0h-.1l-.4,0-4.09-.35a4,4,0,0,0-3.7,1.84,7.23,7.23,0,0,0-1.16,4.9l.6,5.76c.76,7.8,3.08,14.16,6.14,18.73a31.52,31.52,0,0,0-.19,3.46c0,.05,0,.42,0,.69a43.92,43.92,0,0,0,.69,6.92,11.89,11.89,0,0,0-3.66,1.75l-.33.21-5.43,4.18a6.47,6.47,0,0,0-2.14,5.52,8.15,8.15,0,0,0,2.75,5.78l3.79,3.09v.17c.1,1,.15,1.7.18,2.29,0,.43,0,.72,0,.72v.07c.15,12.44,1.94,21.4,5.66,28.29a22.09,22.09,0,0,0,8.17,8.82,31.78,31.78,0,0,0,8.8,8.74A29.45,29.45,0,0,0,485,795.57a33.26,33.26,0,0,0,3.6.42c.65.2,1.28.35,1.86.47a26.66,26.66,0,0,0,4.78,6.69A19.87,19.87,0,0,0,506,808.92a17.61,17.61,0,0,0,6.6,0l8.46-1.85c1.89-.42,3.27-2.25,3.53-4.72a8.76,8.76,0,0,0-2.29-6.85l-6-6.11a8.2,8.2,0,0,1-.06-1.16v-.15c0-2.32.78-7.57,4.7-15.64,5.19-10.83,6.76-23.45,7-34.8l.22-.15c.23-.14.45-.29.67-.44C543.1,793.7,583,840.66,630,851s86.9-20.11,101.24-71.29c.22.25.46.49.7.74l.2.2c.19,11.44,1.75,24.66,6.94,37.49,4,9.82,4.71,15.39,4.69,17.62v.32c0,.35,0,.62,0,.82l-6,3.81c-1.67,1.07-2.56,3.4-2.29,6a8.17,8.17,0,0,0,3.55,6.08l8.21,4.94a21.22,21.22,0,0,0,6.82,2.54,14.25,14.25,0,0,0,10.71-1.93,15.48,15.48,0,0,0,4.74-5c.59.09,1.2.14,1.83.18a31.63,31.63,0,0,0,3.6.83,23.41,23.41,0,0,0,11.13-.56,19.57,19.57,0,0,0,8.81-5.89,13.89,13.89,0,0,0,8.19-6.3c3.69-5.73,5.5-14.16,5.64-26.48v0c0-.57.09-2.08.23-3.22l3.78-2a5.77,5.77,0,0,0,2.75-5,8.43,8.43,0,0,0-2.14-6.13L807.88,793l-.37-.36-.06-.07a18.33,18.33,0,0,0-3.54-2.74,41.75,41.75,0,0,0,.7-7.16c0-.07,0-.23,0-.23a30.59,30.59,0,0,0-.19-3.52c3.08-3.67,5.39-9.34,6.15-16.94l.6-5.51a8.8,8.8,0,0,0-1.14-5.26,6,6,0,0,0-3.72-3l-4.1-.9h-.06l-.4-.09A22.41,22.41,0,0,1,796.4,745a12.05,12.05,0,0,1-2.53-2.06,2.86,2.86,0,0,1-.32-.47,27,27,0,0,1-.52-5.91v-.1C793,727.15,796.09,710.93,804.48,692.13Z" style="fill: #fff"/>
      <path d="M787.36,542.2h0c-.22-.15-.4-.33-.61-.48,0,.06,24.91-5.19,20.79-43.78a12.86,12.86,0,0,0-1.87-3.81,17.65,17.65,0,0,0-.5-4.66l0-.09a28.29,28.29,0,0,0-11-16.21c-11.25-8.45-14.94-3.58-17.54-8.44,0,0-3.25,6.09,1.52,9.95,0,0-6.5,2.76-5.63,13.42,0,0,5,4.75,10.83,3.24,0,0-3.25,5.82,2.59,12.89,0,0,2-11.85,9.12-9.88,0-.15,5.4,30.85-40.74,25.37,0,0,15.38-4.41,20.57-12.1a8.72,8.72,0,0,0-6.71-6.16s3.69-8.22,1.95-15.43a10.75,10.75,0,0,0-12.13,3.36s-.42-8.1-6.29-11.12c0,0,.23,18.62-14.29,18.32a41.22,41.22,0,0,0,9.46-23.1,10.47,10.47,0,0,0,4.44-3.38c2.64,9.1,12,12.62,12,12.61,6.74-7.07,3.61-18.36,3.61-18.35,10.8.36,7.92-13,7.92-13l0,0a2.11,2.11,0,0,0-.09-.36l-.13.22c-2.32,1.68-4.27,1.65-6.12.61a16.94,16.94,0,0,1-2.2-1.7c-3.6-3.5-7.1-10-12.14-13.65a6.31,6.31,0,0,0-.91-.68c-.22-.13-.47-.24-.72-.36a2.43,2.43,0,0,0-.32-.18c-6.7-3.59-11.45-.8-13.82,1.38-3.8-.78-7.09.05-8.9,2-5.27,5.7-7.18,31.37-7.18,31.37-1.2-23.83-16.8-23.62-16.8-23.63-.49,4.49,1,10.62,1,10.62-2.41-1.73-7-2.05-10.09,3.43s1.22,11.28,1.22,11.28c-1.45-3.67,3.33-7.89,7.18-3.11s4.56,13.22-4.31,14.14c-6.78.71-20.29-12.64-26.33-19a58.77,58.77,0,0,0-1.13-8.23c-.2-1-.43-2-.69-2.87a21.54,21.54,0,0,0,4.19.89c-3.9,6.48,7.2,15.65,8.87,3.41,1.54-11.21-3.17-17-4-17.88,5.62,6.47,10,4.66,10,4.66-7.11-9.18-14.23-14.94-20.85-18.47a16.1,16.1,0,0,0,2.19-.85c.22-.09.43-.2.64-.3.88-.45,1.69-.93,2.4-1.37a10,10,0,0,0,4.6,5,6.65,6.65,0,0,0,5.75.18,7.47,7.47,0,0,0,3.94-5.48c.62-2.79.24-6.26-1.12-10.1-.15-.45-.32-.89-.47-1.31A36.61,36.61,0,0,0,682,399.75a10.5,10.5,0,0,0,4.83-4.68l1.83-4-3.85-1.2a55.56,55.56,0,0,0-19.19-2.77,8.74,8.74,0,0,0,1.44-2.26,13,13,0,0,0,.51-8.61,19.7,19.7,0,0,0-5.73-9.18c-.32-.31-.66-.61-1-.9a25.64,25.64,0,0,0-10.45-6.05,19.17,19.17,0,0,0,1.59-8.51c-.15-1.8-.3-3.61-.44-5.41l-3.63,1.86A58.57,58.57,0,0,0,634,357.94v-3.48a7.25,7.25,0,0,0,4.73-2.9,14,14,0,0,0,2.58-8.55,18,18,0,0,0-3.27-10.42,16.3,16.3,0,0,0-4-3.95v-9.22a115.19,115.19,0,0,1,48.24,8.18q-.09,6.84-.19,13.67c11.29,11.41,41.45,14.82,59.22,15.32s41.08,10.73,41.08,10.7c-8-16.45-21.14-32.69-38.5-37.15-21.08-5.45-25.9-10.3-25.9-10.28,13.51,3.92,28.31,2.49,38.67.84s28.68,2.44,28.68,2.41C754.63,287.7,737.05,300,718.74,295s-28-21.6-28-21.59l.39-15.52c-23-13.56-47.93-13.29-56.87-12.63,2-1.25,3.24-3.81,3.24-7.06a12.49,12.49,0,0,0-3.85-9.07l4.23-6.29-6.84-32.08c-.28-1.29-.56-2.59-.83-3.89l-.84,3.53-6.84,29.09q2.11,4.06,4.24,8.14c-2.3,1.06-3.87,3.82-3.87,7.39a12.63,12.63,0,0,0,3.52,8.74v82a21.37,21.37,0,0,0-12.26.77A28,28,0,0,0,612,315.35c-.94-2-1.87-4-2.8-6l-2.73,4.85a110.29,110.29,0,0,0-13.78,54.43,141.48,141.48,0,0,0,9.9,51.08c-1.37.65-2.5,1.27-3.36,1.78a5.67,5.67,0,0,0-4.22-1.26s-7.82,7.81-14.15,28.21a8.24,8.24,0,0,0-4.92,1.7s-7.44,7-16.32,2.4-8.17-12.72-4.33-15.92,8.64,3,7.21,6.1c0,0,4.31-4,1.2-10.79s-7.69-8.34-10.09-7.6a33.84,33.84,0,0,0,1-10.23s-15.6-6.56-16.79,16.82c0,0-1.93-26.44-7.2-34.22a13.79,13.79,0,0,0-8.9-5.46c-2.35-3.09-7.11-7.71-13.82-6.61l-.33.06-.71.09a5.5,5.5,0,0,0-.9.35c-5.05,1.83-8.54,7-12.15,9.25a11,11,0,0,1-2.19.92c-1.86.39-3.82-.27-6.11-2.74l-.14-.27s0,.11-.1.32v0s-2.88,12.36,7.92,15.79A24.16,24.16,0,0,0,496.76,428s9.35-.14,12-8.23a18.42,18.42,0,0,0,4.44,5c1.21,14.73,9.46,26.7,9.46,26.71-14.51-5.26-14.28-23.73-14.28-23.74-5.86.85-6.3,8.81-6.3,8.8-5.18-8.15-12.12-7.7-12.12-7.7-1.74,6.61,1.94,16.11,1.94,16.11a5.59,5.59,0,0,0-6.7,3.82c5.18,9.44,20.57,19.44,20.57,19.46-46.14-11-40.71-39.26-40.71-39.41,7.14.32,9.08,12.83,9.08,12.83,5.85-5.12,2.61-12,2.61-12a11,11,0,0,0,10.84.46c.85-10.37-5.65-15.36-5.64-15.36,4.75-2.23,1.51-9.43,1.51-9.43-2.6,4-6.28-2.2-17.55,2.63a18.55,18.55,0,0,0-11,12.78.25.25,0,0,1,0,.07,16.32,16.32,0,0,0-.48,4.52,8.52,8.52,0,0,0-1.88,3.25c-4.11,37.25,20.79,50.25,20.79,50.31-.22.09-.43.21-.65.29-5.55,1.87-36.82,17.7-18.35,108.87a191.09,191.09,0,0,0,9.47,31.38c11.49,29.59,14.2,52.06,11.65,62.78s-16.74,9.38-16.74,9.4c1.46,14.16,8.37,15.71,8.37,15.72-5.45,7.5.37,20.51.37,20.51,9.46.6,13.82-7.47,13.82-7.48,1.46,10,6.17,9.89,6.17,9.9,8.37-9.69,4.38-38.28,4.38-38.28,6.18,20.15.72,36.39.72,36.39,10.91,3.79,12-3.42,12-3.43,2.92,10.31.37,21,.37,21-11.64,6.7-14.55-7.72-14.55-7.73-6.9,17.38,7.64,21.33,7.64,21.34-7.4,9-13.35,8.11-16.83,6.12-1.91-3.62-.74-9,1.62-10,2.74-1.2,5.79,1.38,5.79,1.38-1.16-13.18-8.54-13-8.54-13a23.08,23.08,0,0,0-1.74-13.42,10.59,10.59,0,0,0-11,7.07c-4.63-7.58-9.7-3.73-9.7-3.73,3,2.5,3,12.68,3,12.68.24,22.5,7,25.37,9.52,25.69.11.24.21.44.32.65,4.72,8.8,12.5,10.84,18.32,11a15.49,15.49,0,0,0,7.38.72c2.54,14.86,13.83,12.29,13.83,12.3s-8.37-8.54,2.9-32,2.55-62.72,2.55-62.72c5.45,7.54,7.63,24.24,7.63,24.23,7.28-4.64,5.84-13.26,5.84-13.26a10.29,10.29,0,0,0,4.83,1.09c7.62,60.64,47.84,114,96.32,124.72s88.69-26.22,96.33-84a9.78,9.78,0,0,0,4.83.81s-1.46,8.07,5.83,15.54c0,0,2.18-15.85,7.64-21.32,0,0-8.75,36,2.55,63.69S750.07,847,750.07,847s11.28,6.74,13.82-7.24a17.09,17.09,0,0,0,7.39,1.9c5.82,1.88,13.6,2.45,18.32-4.82.11-.17.21-.35.32-.55,2.49.51,9.27-.23,9.51-22.66,0,0,0-10.18,3.06-11.74,0,0-5.08-5.4-9.72.68,0,0-2.32-8.31-11-10.67,0,0-3,4.85-1.74,12.83,0,0-7.38-2.74-8.54,10a5.73,5.73,0,0,1,5.78.62c2.37,1.82,3.55,7.54,1.64,10.51-3.49.81-9.44-.35-16.84-12,0,0,14.56,1.19,7.64-18.63,0,0-2.91,13.46-14.55,2.51,0,0-2.55-11.63.37-20.86,0,0,1.09,7.66,12,7.76,0,0-5.46-18.17.72-36.14,0,0-4,27.2,4.38,39.81,0,0,4.7,1.75,6.16-7.77,0,0,4.38,9.59,13.84,12.05,0,0,5.81-11.15.35-20.4,0,0,6.92.64,8.37-13.08,0,0-14.18-3.16-16.72-14.76s.15-33.08,11.63-59a144,144,0,0,0,9.49-28.47v0C824.27,571,792.78,546,787.36,542.2ZM500.91,523.94c2.4-1.31,4.93-2.59,7.57-3.86A63.88,63.88,0,0,1,496.87,547C500.08,541.23,501.1,532.25,500.91,523.94Zm-18.35,11.73a27.79,27.79,0,0,1-.86,12.23c-1.51,5.07-10.15,9.58-17.45,5C464.25,552.9,469.9,545.21,482.56,535.67Zm49.82,159a10.88,10.88,0,0,0-3.9-3.26c4-5.72.37-13.86.37-13.86-25.11-1.16-32-30.63-32-30.67,9.82,5.94,16.36,23.48,16.36,23.47a13.17,13.17,0,0,0,2.55-9.28c5.82,4.82,10.55.16,10.55.16.36-13.41-9.09-19.42-9.09-19.41,2.18-2.36,1.45-10.42,1.45-10.42q-8.1-1.56-16.21-3a16.31,16.31,0,0,0,5.3-3.19c0-.18-.08-.35-.11-.52-3.66-15.56-9.34-18.88-9.34-18.87,7.27-8,0-16.28,0-16.28s2.54,8.12-12.38,5.26c-15.47-2.91-18.56-21.81-19.16-28.38,16.05,19.26,39.1,18.81,42.25,24,4.56,7.51-.21,9.65-.21,9.65,5.84,2.48,12.56,1,12.56-6.2s-5.64-13-5.64-13c15.17,3.18,13.65,13.44,13.65,13.43a11.07,11.07,0,0,0,3-1.8Zm0-137.38a17.25,17.25,0,0,1-2.59-.29c-6.26-1.24-15.45,2.55-18.82,4.1a14.17,14.17,0,0,1-1.32.62s.48-.24,1.32-.62c8.55-4.57,16.48-19,21.41-30.57Zm17.08-39c-5.21,9.73-12.21,9.74-12.21,9.74.32.77.63,1.54.94,2.32l-5.31-1.06a108,108,0,0,0,3.84-10.51c3-10.21,11.28-10.2,11.28-10.2a19.32,19.32,0,0,0-.93-1.71c3.14-.71,6.4-1.37,9.75-1.95C554.77,507.78,552.84,512.08,549.46,518.34Zm54.93,18.08a6.79,6.79,0,0,1-.68-.41l-.87,2.46a51.17,51.17,0,0,1-2,5q-14.46-3.13-28.92-6.19c-.72-8.08-.15-25.47,16.26-32.44l2.92-.8c3,8.11,7.51,18.19,11.79,21.66a17.51,17.51,0,0,0,3.77-.45C606.73,527.62,606.65,533.11,604.39,536.42Zm173.05,58.92c12.66,13.84,18.31,23.23,18.31,23.24-7.3,2.29-15.94-5.14-17.45-10.73A29.77,29.77,0,0,1,777.44,595.34Zm-18.35-18.21c-.19,8.24.82,17.59,4,24.47,0,0-8.84-14.1-11.6-31.12Q755.49,573.86,759.09,577.13Zm-31.47-5.34c4.92,13.48,12.85,31.05,21.41,38.82.84.69,1.33,1.11,1.33,1.11-.45-.34-.89-.72-1.33-1.11-3.38-2.81-12.56-10.09-18.83-11.33a17.84,17.84,0,0,1-2.58-.73Zm0,39.51c7,0,15.68,2.86,21.64,6.58A157.27,157.27,0,0,0,769,628.11c-5.64,1.8-21.88-7.83-31.42-12.46a24.07,24.07,0,0,0-9.94-2.28Zm-5.82-42c.32-.65.63-1.3,1-1.94,0,0-7-2.81-12.22-14.67-3.35-7.63-5.3-12.73-7.35-16.39,3.35,2,6.6,4,9.74,5.95a12.31,12.31,0,0,0-.92,1.33s8.24,3.33,11.27,14.73c.77,2.91,2.1,7.17,3.85,12Zm52.29,84c-14.92-2.36-12.39-9.65-12.39-9.63s-7.25,5.67,0,16.27c0,0-5.67,1.26-9.31,15.47,0,.15-.09.3-.13.46a27,27,0,0,0,5.31,5.15q-8.12-1.47-16.22-3s-.73,7.77,1.44,11c0,0-9.44,2.37-9.09,15.9,0,0,4.74,6.51,10.55,3.9A16.55,16.55,0,0,0,746.8,719s6.55-15,16.38-17.44c0,0-6.92,27.21-32,18.62a15.43,15.43,0,0,0,.37,14,6.79,6.79,0,0,0-3.91,1.73V633.75a19.41,19.41,0,0,0,3,3s-1.51-10.79,13.64-8.16a13.49,13.49,0,0,0-5.62,10.83c0,7.2,6.7,11.26,12.56,11,0,0-4.78-3.93-.22-9.73,3.15-4,26.19,4.91,42.26-9.32C792.66,637.66,789.55,655.69,774.09,653.3Zm-17.68-42.67c-12.85-16.74-17.59-38-19.33-51.71.31.25.62.5.93.73,3.76,18.19,12.74,42.81,26.21,55.73,17.75,17,32.28,6,32.28,6S777.21,637.72,756.41,610.63Z" style="fill: #135c9e"/>
      <path d="M674.26,644.8a8.64,8.64,0,0,0-4.08-6.06,3.74,3.74,0,0,0,1.68-3.29,5.94,5.94,0,0,0-4.18-5.54,4,4,0,0,0,.77-2.45,6,6,0,0,0-4.43-5.62,3.45,3.45,0,0,0-.71-.09,4.16,4.16,0,0,0,.34-1.7,6,6,0,0,0-4.42-5.61,3.94,3.94,0,0,0-1.48-.05v-.15a6,6,0,0,0-4.42-5.63,3.78,3.78,0,0,0-2.91.5.83.83,0,0,0,0-.32,6,6,0,0,0-4.42-5.63,3.47,3.47,0,0,0-3.81,1.48,6,6,0,0,0-4.41-5.31,3.49,3.49,0,0,0-3.61,1.2,5.88,5.88,0,0,0-4-3.54l-.09,0h-.08a3.43,3.43,0,0,0-4,1.8,5.74,5.74,0,0,0-3.6-2.78,3.52,3.52,0,0,0-4.41,3.39,5.78,5.78,0,0,0-3.81-3.13,3.55,3.55,0,0,0-4.42,3.7c0,.12,0,.22,0,.33a5.43,5.43,0,0,0-2.88-1.75,3.55,3.55,0,0,0-4.43,3.71s0,.11,0,.15a4.77,4.77,0,0,0-1.47-.59,3.54,3.54,0,0,0-4.42,3.7,5.32,5.32,0,0,0,.34,1.85,4.06,4.06,0,0,0-.73-.22,3.55,3.55,0,0,0-4.42,3.71,5.76,5.76,0,0,0,.76,2.79,3.54,3.54,0,0,0-4.18,3.74,5.93,5.93,0,0,0,1.67,4,4.93,4.93,0,0,0-4.06,4.32.08.08,0,0,1,0,0,7.32,7.32,0,0,0-.08,1v0h0a8.43,8.43,0,0,0,.08,1,0,0,0,0,1,0,0,8.61,8.61,0,0,0,4.06,6,3.8,3.8,0,0,0-1.67,3.31,6,6,0,0,0,4.18,5.54,4,4,0,0,0-.76,2.46,5.94,5.94,0,0,0,4.42,5.61,4.53,4.53,0,0,0,.73.08,4.18,4.18,0,0,0-.34,1.69,5.93,5.93,0,0,0,4.42,5.62,4.09,4.09,0,0,0,1.47.06c0,.05,0,.09,0,.15A6,6,0,0,0,607,664a3.64,3.64,0,0,0,2.73-.42l.14.1v.15a6,6,0,0,0,4.42,5.62,3.53,3.53,0,0,0,3.32-.89c.21.13.42.23.64.36a6,6,0,0,0,4.26,4.36,3.49,3.49,0,0,0,3.59-1.18h0a5.94,5.94,0,0,0,1.47,2.13,5.23,5.23,0,0,0,2.49,1.38l.08,0,.09,0a3.88,3.88,0,0,0,2.07-.11,3.31,3.31,0,0,0,1.89-1.66h0a5.77,5.77,0,0,0,3.59,2.73,3.46,3.46,0,0,0,4.24-2.47l.7-.06a5.59,5.59,0,0,0,3.28,2.28,3.54,3.54,0,0,0,4.42-3.7v-.08a.73.73,0,0,0,.2,0,5.47,5.47,0,0,0,2.67,1.55,3.55,3.55,0,0,0,4.42-3.71v-.15a4.91,4.91,0,0,0,1.48.58,3.55,3.55,0,0,0,4.42-3.71,5.3,5.3,0,0,0-.34-1.84,3.91,3.91,0,0,0,.71.23,3.56,3.56,0,0,0,4.43-3.71,5.63,5.63,0,0,0-.77-2.79,3.55,3.55,0,0,0,4.18-3.74,6,6,0,0,0-1.68-4,4.9,4.9,0,0,0,4.08-4.3v0a5.19,5.19,0,0,0,.08-1v0a5.62,5.62,0,0,0-.08-1Z" style="fill: #008c5b"/>
      <path d="M738.42,318.94c12.83-1.43,24.18-4.67,39.5.84l-.35-.47c-2.61-3.42-20-24.56-46.66-19.35-10.19,2-19.93-3.08-27.45-9.06-.34-.33-.73-.67-1.13-1-1.48-1.22-2.81-2.39-4-3.53a89,89,0,0,1-7.58-8.27,1.4,1.4,0,0,1-.16-.2l0,.07a39.89,39.89,0,0,1-3.26-4.91,4.49,4.49,0,0,1-.24-.42q.32-6.33.64-12.67A104.76,104.76,0,0,0,634,248.49l-.88.06a2,2,0,0,1-.28,0c.28,9.71.69,23,1.16,37.65.31,9.76.66,20.08,1,30.3,8.78-.66,28.75-.42,51.2,11.15v0a26.37,26.37,0,0,1,5.11,3.33l.21-.31c.92-1.36,1.33-3.31.54-6.15-2.48-8.94-4.1-17.2-3.34-35.42,0,0,1.71,25.21,5.24,33.74a14.82,14.82,0,0,1,.66,9.69,12.87,12.87,0,0,1-8.67,9c3.08,1.48,23.66,11,43.83,9.85,21.86-1.14,47.18,11.9,47.18,11.87s-.11-.21-.34-.58c-2.33-3.8-16.37-25.49-35.17-29.71a85.71,85.71,0,0,1-34.66-17.16l.79.17C711.31,316.91,727.14,320.19,738.42,318.94Z" style="fill: #ef4138"/>
      <path d="M648.06,273.59l3.62.61.12,4.65,3.06.52-.12-4.63,3.6.62-.11-3.92-3.61-.63-.13-4.64-3-.52c0,1.54.09,3.09.13,4.63l-3.61-.61C648,271,648,272.28,648.06,273.59Z" style="fill: #ffd327"/>
      <path d="M658.51,297.67l-.12-3.93-3.59-.63c0-1.54-.09-3.08-.13-4.62l-3.06-.54c0,1.55.09,3.09.13,4.63l-3.61-.61c0,1.31.07,2.62.11,3.93l3.6.62.12,4.63,3.07.54c0-1.55-.09-3.09-.13-4.63Z" style="fill: #ffd327"/>
      <path d="M669,273.28l-3.61-.62c0,1.31.06,2.62.1,3.92l3.61.63.12,4.63,3.07.52c0-1.54-.09-3.09-.14-4.63l3.61.62c0-1.31-.07-2.62-.11-3.94l-3.6-.61c0-1.55-.09-3.09-.13-4.64l-3-.51C668.92,270.19,669,271.73,669,273.28Z" style="fill: #ffd327"/>
      <path d="M682,285.31l-.18-6.6-4.93-.84c.06,2.21.13,4.41.19,6.61l-12.5-2.12q-.22-8-.44-16.09l5.13.88c-.05-2.1-.11-4.21-.16-6.31L659,259.12l-5.13-.89.18,6.33,5.13.87.42,16.07-12.5-2.16q-.09-3.29-.16-6.59L642,271.9c.05,2.2.11,4.4.16,6.59s.11,4.22.17,6.32.14,4.41.2,6.61l4.89.85c-.05-2.2-.11-4.4-.16-6.6l12.51,2.15.42,16.08-5.13-.89c0,2.11.11,4.22.16,6.32l5.14.88,4.92.85,5.12.87c0-2.11-.1-4.21-.16-6.32l-5.14-.87q-.23-8-.43-16.07l12.51,2.12.18,6.6,4.91.84c-.06-2.2-.13-4.4-.19-6.6Z" style="fill: #ffd327"/>
      <path d="M675.83,296.72l-3.62-.62c0-1.54-.08-3.09-.13-4.64l-3.05-.52c0,1.55.09,3.1.13,4.65l-3.61-.62c0,1.31.07,2.62.1,3.93l3.61.61c0,1.55.09,3.1.13,4.65l3.05.51c0-1.55-.08-3.09-.13-4.64l3.62.6Z" style="fill: #ffd327"/>
      <path d="M680,687.88a2.34,2.34,0,0,0-2.6-.89c1.56.67,1.25,2.82,1.25,2.82-.63,2.29-4.76.71-4.76.71-3.15-4.69-5-1.43-5-1.43,2.63.56,2.08,3.32,2.08,3.32-4,6.16-2.7,19.3.8,25.79s4.49,12.21.45,13.3c-3.1.83-6-1.88-7.18-3.18,0-.84-.44-2.3-2.12-4.37-2.76-3.33-3.08-9.9-1.17-14.86.34-.89.69-1.8,1-2.75l.39,1.11a13,13,0,0,0,1.35-5.43l.71,1.26a11.26,11.26,0,0,0-.06-6.41l.72.66c-.46-4.66-1.88-6.64-1.88-6.64l.95.63a14.5,14.5,0,0,0-4.41-6.42,3.2,3.2,0,0,0-1.54-1c-3.44-.86-4.71-1.2-4.71-1.2s-1.35,2.8-4.77,1.18a4,4,0,0,0,1.45,4.66l.9,1.65c0-.42.06-.83.1-1.24a7.86,7.86,0,0,1,5,4.43,3.55,3.55,0,0,1-4.08-.35c0-.53,0-1.06.05-1.59l-.92,1.21-.86-.53s-2.05,1.22.24,4.51a1.66,1.66,0,0,1,2.81-.33h0a7.35,7.35,0,0,1,0,1l-.09,0a7.53,7.53,0,0,1-3.9,1.07c-.31-.52-.77-1.28-1.09-1.75a41.37,41.37,0,0,1-4-10.47,7.92,7.92,0,0,0-2.19-7.4s1.08,2,0,3.41a5.25,5.25,0,0,0-3.55-3.28,10,10,0,0,1,1.07,4.17,3,3,0,0,0-2.52.1s2.11.83,2.49,2.16c.24.88.73,8.26,3,15.6.52.92,1,1.75,1.5,2.51a.56.56,0,0,0,0-.07,9.34,9.34,0,0,0,.77,1.39,13.46,13.46,0,0,0,.65,2.41s-7.24-9.57-9.1-18.7a8,8,0,0,0-2.19-7.4s1.07,2,0,3.4a5.29,5.29,0,0,0-2.45-2.83c-.11-2.23-.21-4.35-.3-6.33a3.79,3.79,0,0,1-2.07.1h-.09l-.08,0a5.36,5.36,0,0,1-2.49-1.38c-.11,2-.2,4.18-.33,6.47a2.93,2.93,0,0,0-2.45,1.76,3.28,3.28,0,0,1,.05-3.38c-3.33,1.6-2.19,6.45-2.19,6.45-1.86,8.31-9.12,14.73-9.12,14.73a8.59,8.59,0,0,0,.65-2.13A5.51,5.51,0,0,0,615,697a.56.56,0,0,0,0,.07c.47-.56,1-1.17,1.5-1.86,2.27-6.35,2.75-13.52,3-14.29.38-1.17,2.48-1.07,2.48-1.07a3.8,3.8,0,0,0-2.53-1.21,7.09,7.09,0,0,1,1.08-3.7,3,3,0,0,0-3.54,1.74,3.27,3.27,0,0,1,0-3.4c-3.33,1.6-2.19,6.45-2.19,6.45a26.14,26.14,0,0,1-4,8.73c-.31.34-.76.9-1.08,1.28a12.59,12.59,0,0,1-3.9-2.76h-.07a4.21,4.21,0,0,1,0-1h0c1.73-.89,2.79,1.55,2.79,1.55a3,3,0,0,0,.24-4.41l-.84.16-.93-1.62c0,.54,0,1.08,0,1.62-2.11.73-4.06-1.41-4.06-1.41,1.3-2.9,4.94-2.29,4.94-2.29l.09,1.28.88-1.26c2.62-.91,1.46-4,1.46-4-3.41.15-4.76-3.24-4.76-3.24s-1.27-.21-4.72-.84a2.21,2.21,0,0,0-1.55.3,8,8,0,0,0-4.4,4.52l1-.21s-1.42,1.36-1.87,5.82l.7-.35s-1,2.19-.06,6.39l.71-1a16.7,16.7,0,0,0,1.37,6l.38-.95c.32,1.08.64,2.15,1,3.19,1.91,5.78,1.6,12.22-1.17,14.35a4.83,4.83,0,0,0-2.12,3.45,6.13,6.13,0,0,1-7.19.09c-4-2.81-3-8.1.46-13.1s4.76-17.58.8-25.44c0,0-.52-3,2.08-2.43,0,0-1.89-4.08-5-.74,0,0-4.13-.18-4.77-2.74,0,0-.3-2.28,1.28-2.28,0,0-1.71-1.25-2.62-.22s-1,6.94,2.42,8.14c0,0-3.5,1.08-1.35,5.93,0,0,.69-5.19,4.79-3.29s5.1,13.73.84,20.15-4.17,15.27.28,17.9a8.65,8.65,0,0,0,8,.2,13.71,13.71,0,0,1-7.93,11,3.17,3.17,0,0,0,1.55,2.83c.38,5.33-.94,5.28-.94,5.28,1.41,4.49,6.36,9.48,7.24,9.87s1,1.83,1,1.83c1.21-.81.6-2.85.6-2.85l.61-.06c2.57-.15,3.42,2.54,3.42,2.54a4,4,0,0,0-1.13-3.35c.79-.6,1.92.23,1.92.23-1.35-4.05-5.52-3-5.52-3-2.84-2.64-1.4-7-1.4-7,4.57-.65,6.75-3.62,7.74-7a1.44,1.44,0,0,0,.56.14,20.84,20.84,0,0,1,.1,13.22c1,1.56,2.13.95,2.13.95,2.61,3.73,1.85,4.68,1.85,4.68,2.79,2.31,7.78,2.33,8.44,1.93s1.39.61,1.39.61a2.94,2.94,0,0,0-.94-2.59c.11-.16.21-.33.31-.49a2,2,0,0,1,3-.67,2.3,2.3,0,0,0-2.12-1.67,1.61,1.61,0,0,1,1.17-1.26c-2.56-2-4.42,1.87-4.42,1.87-2.77.14-3.91-4.19-3.91-4.19,5.64-9.86-3.67-19.48-3.67-19.48a4.4,4.4,0,0,1,1.13-5.26,11.77,11.77,0,0,0,.64-1.12l0,0a3.11,3.11,0,0,0,.38-.75c5-1.07,6.58-5.6,8.53-5.29a4.11,4.11,0,0,1,2.89,2.71c4.81-4.09,6.6-13.31,7.36-18.52-1.15,23.69-2.61,52.83-3,56.68-.63,6.61-1.76,10.06-7.85,11.4s-5,6.5-5,6.5c0-1.85,2.73-4.52,5.94-3.82S624,759,624,759s.31,3.16-5.13,5.44-4,10.81-4,10.81-.16-7.83,5.13-7.68,7.21-5,7.21-5l.54.22a12.29,12.29,0,0,0,1.28,4.81c1.54,3,3.71,14,1,17.56,0,0,4.22-3.44,2.51-13.66-.65-3.91-.64-6.31-.31-7.73h.54s1.93,5.94,7.23,8.13,5.13,9.92,5.13,9.92,1.44-7.87-4-12.55-5.13-7.68-5.13-7.68,3.86,4.54,7.06,5.24,5.93,4.56,5.93,6.4c0,0,1.13-4.66-5-8.66s-7.23-7.93-7.86-14.82c-.38-4-1.84-33.76-3-58,.76,5.57,2.56,15.54,7.36,21.72a2.35,2.35,0,0,1,2.88-1.46c2,.54,3.58,5.77,8.53,9a5.48,5.48,0,0,0,.38.91s0,0-.07,0c.22.46.43.93.67,1.41,0,0,2.49,2.88,1.12,5.75,0,0-9.32,5.58-3.67,17.88,0,0-1.14,3.84-3.89,2.5,0,0-1.86-4.69-4.44-3.79a2.93,2.93,0,0,1,1.18,1.77,1.56,1.56,0,0,0-2.13.74s1.66-.64,3,2c.1.22.2.43.31.64a1.84,1.84,0,0,0-.93,2.17,1,1,0,0,1,1.39,0c.65.69,5.63,2.83,8.43,1.74,0,0-.74-1.28,1.85-3.88a1.44,1.44,0,0,0,2.12,0s-2.4-7.63.11-13.17a1.61,1.61,0,0,0,.57.1,16.19,16.19,0,0,0,7.72,10.32s1.45,5-1.4,6.37c0,0-4.15-2.8-5.51.67a1.88,1.88,0,0,1,1.92.6,2.54,2.54,0,0,0-1.11,2.85s.83-2.32,3.4-1l.6.31a3.34,3.34,0,0,0,.61,3.11s.14-1.39,1-1.39,5.84-2.86,7.25-6.75c0,0-1.32-.51-.94-5.68,0,0,1.46,0,1.53-2.17,0,0-7-5.72-7.92-14.44,1.66,1.46,4.86,3.74,8,3.23,4.47-.72,4.54-9.56.28-17.78s-3.23-19.61.86-19.79,4.78,5.33,4.78,5.33a5,5,0,0,0-1.36-6.5C681,695.24,680.93,689.27,680,687.88Z" style="fill: #ffd327"/>
      <path d="M615.22,566.31c-.53.06-1.06.11-1.64.13-1.09.06-2.27.06-3.49,0h-.24c-5.55-.3-12.38-1.89-20.55-5.84a3.81,3.81,0,0,1,0-5.09,6.68,6.68,0,0,1,1.89-1.37c-16.29-3.5-32.59-6.94-48.88-10.22V695.79c0,61.83,39.26,120,87.69,130.7s87.68-31.49,87.68-93.42V581.2c-28.28-5.69-56.56-11.84-84.84-18C628,565.3,620.34,566,615.22,566.31ZM701,729.65c0,25.08-7.94,46.05-20.79,59.77s-30.57,20-50.19,15.71-37.32-18.26-50.19-37.42A124.42,124.42,0,0,1,559,699.21V568.7c47.31,9.8,94.63,20.64,142,30.44Z" style="fill: #ffd327"/>
      <path d="M559.46,731.35l-2.52,2.7-2.52-3.74-3.87,4.15,2.53,3.74-2.53,2.7,3.87,5.74,2.52-2.72,2.52,3.76,3.87-4.14-2.52-3.74,2.52-2.7Z" style="fill: #ef4138"/>
      <path d="M556.92,652.37l-2.51-3.73,2.51-2.71-3.87-5.73-2.51,2.71L548,639.17l-3.86,4.15,2.52,3.74-2.52,2.71c1.29,1.9,2.57,3.81,3.86,5.72l2.52-2.71c.84,1.25,1.68,2.49,2.51,3.74Z" style="fill: #ef4138"/>
      <path d="M548,565.64l2.52-2.69,2.51,3.72,3.87-4.13c-.83-1.25-1.67-2.49-2.51-3.74l2.51-2.7-3.87-5.74-2.51,2.71L548,549.33c-1.29,1.38-2.57,2.77-3.86,4.16l2.52,3.73-2.52,2.71Z" style="fill: #ef4138"/>
      <path d="M632.51,808.49c-.83.9-1.67,1.79-2.51,2.68q-1.26-1.89-2.53-3.77l-3.86,4.1q1.26,1.89,2.53,3.76l-2.53,2.66,3.86,5.8,2.53-2.67q1.26,1.88,2.51,3.77l3.88-4.11L633.86,817l2.53-2.66Z" style="fill: #ef4138"/>
      <path d="M712,584.29,709.46,587l-2.52-3.74-3.86,4.15,2.5,3.74-2.5,2.7c1.28,1.91,2.57,3.81,3.86,5.72l2.52-2.68c.84,1.23,1.67,2.47,2.51,3.71l3.88-4.14c-.84-1.25-1.69-2.49-2.53-3.73.84-.91,1.69-1.81,2.53-2.71Z" style="fill: #ef4138"/>
      <path d="M712,674.13l-2.51,2.71-2.52-3.74-3.86,4.14,2.5,3.75-2.5,2.69q1.92,2.88,3.86,5.74l2.52-2.71,2.51,3.74,3.88-4.16-2.53-3.72,2.53-2.72Z" style="fill: #ef4138"/>
      <path d="M705.57,762.65l-2.51,2.7-2.52-3.74-3.87,4.14,2.53,3.75-2.53,2.69,3.87,5.75,2.52-2.71,2.51,3.75,3.87-4.15-2.5-3.73c.83-.91,1.67-1.81,2.5-2.71Z" style="fill: #ef4138"/>
      <path d="M519.43,391c-1.53-1.57-4.06-2.59-8.09-.73-7.15,3.28-9.1,15-9.52,18.75C505.11,395.38,512.68,390.85,519.43,391Z" style="fill: #ffd327"/>
      <path d="M674,474l0-.06v0Z" style="fill: #ffd327"/>
      <path d="M672.7,424.37a17.52,17.52,0,0,1-2.19.85c6.61,3.53,13.74,9.29,20.85,18.47,0,0-4.41,1.81-10-4.66.79.9,5.5,6.67,4,17.89-1.68,12.23-12.77,3.06-8.87-3.41a22.1,22.1,0,0,1-4.19-.9c.26.93.49,1.89.69,2.87l.59.16a10.47,10.47,0,0,0,1.6,5.85,9,9,0,0,0,4.25,3.76,4.81,4.81,0,0,0,5-.75c1.51-1.27,2.54-3.55,3-6.69,0-.37.08-.73.12-1.07a30.6,30.6,0,0,0-.62-10.74,7.53,7.53,0,0,0,5.4.28l2.89-1.19c-.82-1-1.63-2.09-2.45-3.14-6.53-8.44-13.13-14.13-19.36-17.88C673.13,424.17,672.92,424.28,672.7,424.37Z" style="fill: #ffd327"/>
      <path d="M501.57,410.08l0,0a1.41,1.41,0,0,0,0,.18C501.56,410.17,501.56,410.12,501.57,410.08Z" style="fill: #ffd327"/>
      <path d="M718.28,499.76c21.65,1.07,25.7-21.37,26.3-25.83a8,8,0,0,1-4.69-1.43C736.64,494.31,718.28,499.78,718.28,499.76Z" style="fill: #ffd327"/>
      <path d="M541.71,462.25s-18.34-12.75-21.61-35.76a7.1,7.1,0,0,1-4.67-.36C516,430.86,520.08,454.67,541.71,462.25Z" style="fill: #ffd327"/>
      <path d="M804.07,493.17s-5.08-9-15.15-10.18l-.54-.07a11,11,0,0,0-6.63,1.52C792.35,482.3,800,488.49,804.07,493.17Z" style="fill: #ffd327"/>
      <path d="M758.46,463l-.05,0s0,.09.05.14Z" style="fill: #ffd327"/>
      <path d="M758.19,461.9c-.44-3.92-2.38-16.32-9.53-22.28-4-3.37-6.56-3.32-8.09-2.33C747.32,439.71,754.88,447,758.19,461.9Z" style="fill: #ffd327"/>
      <path d="M481.49,505.24A71.22,71.22,0,0,1,489,523c.6-.36,1.19-.73,1.8-1.08A62.93,62.93,0,0,0,481.49,505.24Z" style="fill: #ffd327"/>
      <path d="M522.44,570.54a22.66,22.66,0,0,1,9.94,1.61v-2.08c-7-2.76-15.68-3.24-21.64-1.76A131.48,131.48,0,0,1,491,571.38C496.66,575.12,512.9,571.45,522.44,570.54Z" style="fill: #ffd327"/>
      <path d="M509.65,561.75a14.17,14.17,0,0,0,1.32-.62C510.13,561.51,509.65,561.75,509.65,561.75Z" style="fill: #ffd327"/>
      <path d="M466.16,592.73a4,4,0,0,1,.26.45c5,8.06,12.58,15.7,24.2,21.48-1-.62-32.45-17-32.21-55.15A59.65,59.65,0,0,0,466.16,592.73Z" style="fill: #ffd327"/>
      <path d="M463.51,555.44h0s19.28,22.39,40.08,3c12.84-12,17.6-31.33,19.34-44.42l-.95.36c-3.76,16.75-12.73,37.89-26.2,46C478,571,463.51,555.44,463.51,555.44Z" style="fill: #ffd327"/>
      <path d="M492.62,528.76l-2.17,1.39c1.1,8.32.11,17.44-5.93,25.16C484.52,555.3,495.55,546,492.62,528.76Z" style="fill: #ffd327"/>
      <path d="M478.24,423.31a15.51,15.51,0,0,0-6.62-3.71l-.54-.1a14.81,14.81,0,0,0-15.16,5.4C460,421.46,467.64,417.62,478.24,423.31Z" style="fill: #ffd327"/>
      <path d="M474,750.21s6.52-7.23,2.9-16.54c0,0-6.38-2.54-9.7,10.61,0,0-1.15-8.32-7-8.3,0,0,2.18,3.48,2.32,10.53.13,6.69.27,18.46,6.05,22.69-4.92-13.28,2.93-22.37,2.93-22.36s-11.3,23.09,11,33.66c0,0,.34.13.93.29-3.06-3.07-5.53-8.37-5.75-17.39-.28-3.23.07-10.47,8.89-9.39h0S483.28,741.39,474,750.21Z" style="fill: #ffd327"/>
      <path d="M655.35,417.67a46.36,46.36,0,0,1,5.27,3.39c.23.16.48.32.72.46a8.6,8.6,0,0,0,3.5,1.12,11.58,11.58,0,0,0,4.79-.6,23.25,23.25,0,0,0,7.44-4.4c.21,10.78,14.86,10.57,9.57-4.44-4.75-13.48-11.85-15.67-13.23-16,8.38,1.87,11.19-4.15,11.19-4.15h0c-12.09-3.82-22-3.25-30-.54.06-.15.14-.29.2-.43.55-1.22,1-2.42,1.4-3.53l.18-.57.57.37a6.5,6.5,0,0,0,5.47.92,7.08,7.08,0,0,0,3.19-2.15,8.91,8.91,0,0,0,1.44-2.26,13,13,0,0,0,.51-8.61,19.7,19.7,0,0,0-5.73-9.18c-.32-.31-.66-.61-1-.9a25.58,25.58,0,0,0-10.45-6.05,18.93,18.93,0,0,0,1.58-8.51c-.14-1.81-.29-3.61-.43-5.41-1.21.62-2.42,1.24-3.62,1.87A57.91,57.91,0,0,0,634,357.94c-.49.49-1,1-1.47,1.45,0,.37,0,.7,0,1.06,0,1.32-.05,2.69-.16,4.08.53-.6,1.06-1.19,1.61-1.77a55.49,55.49,0,0,1,15.21-11.36,15,15,0,0,1-6.69,13c1.63-1,8.15-3.76,17.93,5.48,11.35,10.73-.15,22.64-5.44,12.09a43.78,43.78,0,0,1-2.57,7.83,24.57,24.57,0,0,1-2.74,4.78c-1.61,2.15-3.63,3.75-6.08,3.94a2.41,2.41,0,0,0-.4,0,29.73,29.73,0,0,0-6.25,1.06c-5.29,1.61-10.6,5.63-13.29,16.41.49,0,1,0,1.51.1l1.45.15a32.78,32.78,0,0,1,1.46-4c2-4.41,4.58-6.76,7.39-8.17a16.3,16.3,0,0,1,2.44-1,52.85,52.85,0,0,0-9.75,13.37c.86.11,1.75.26,2.67.42,20.4-23.2,36.21-19.35,36.22-19.36-15.83,2.4-27.32,13-33.32,20,1.06.24,2.16.53,3.3.84l.42.13C644.17,413.6,650.28,415,655.35,417.67Z" style="fill: #ffd327"/>
      <path d="M749,610.61c.44.39.88.77,1.33,1.11C750.36,611.72,749.87,611.3,749,610.61Z" style="fill: #ffd327"/>
      <path d="M738,559.65c-.31-.23-.62-.48-.93-.73,1.74,13.75,6.47,35,19.33,51.71,20.8,27.09,40.09,10.74,40.09,10.73s-14.53,11-32.28-6C750.75,602.46,741.77,577.83,738,559.65Z" style="fill: #ffd327"/>
      <path d="M727.62,611.3v2.08a23.9,23.9,0,0,1,9.94,2.27c9.54,4.63,25.78,14.25,31.42,12.46a158.13,158.13,0,0,1-19.72-10.24C743.3,614.17,734.62,611.32,727.62,611.3Z" style="fill: #ffd327"/>
      <path d="M778.5,565.27a40.07,40.07,0,0,0-9.31,13.42c.61.56,1.2,1.13,1.8,1.7A48.23,48.23,0,0,1,778.5,565.27Z" style="fill: #ffd327"/>
      <path d="M775.48,614.3a40.33,40.33,0,0,1-5.93-27.23c-.72-.7-1.44-1.41-2.18-2.15C764.44,601.15,775.48,614.31,775.48,614.3Z" style="fill: #ffd327"/>
      <polygon points="792.77 809.03 792.77 809.03 792.77 809.03 792.77 809.03" style="fill: #ffd327"/>
      <path d="M769.38,671.53c11.62-1.71,19.24-6.88,24.2-13.35.08-.13.16-.25.25-.37,7.81-10.93,8.17-24.22,7.75-30.79C801.84,665.43,770.37,671.46,769.38,671.53Z" style="fill: #ffd327"/>
      <path d="M772.66,539.34c22.53,4.73,33.36-16.75,32.93-29.79s-8.44-14.3-8.44-14.31c.63,19-15,24.45-15,24.43-26.85,10.18-53.5-5.67-53.5-5.67,28.38,7.24,44.19-6.74,44.19-6.72-4.33-5.46-9.54-3.62-9.54-3.62,5.85-2.56,5-13.79,5-13.79a11.88,11.88,0,0,0-13.22,5.37A16.35,16.35,0,0,0,753,481c-1.73,14.35-11.69,27.19-26.21,24.32S704.41,495,704.41,495c24.8,6,32.32-15.67,34.22-23.45a24.25,24.25,0,0,1-4.9-6s9.36,1.8,7.93-8.6-13.21-14.81-14.65-5-.23,29.09-11.51,32.65c0,0,7-10.87,3.59-20.13A18.52,18.52,0,0,0,707.81,453a18,18,0,0,0,2.41,9.07s-9.13-7.08-12.25.86c0,0,10.09-1.3,11.28,9.36s-6.47,21.71-22.79,12.14c0,0-7.06-5.28-11.49-9.47q-.68,4.32-1.37,8.63c8.42,6.27,21.13,15.93,29.13,22.71,0,0-15.32-11.23-29.42-20.95l-.3,1.9-.91-.16c9.74,7,25.25,18.64,35.31,27.12,0,0-20-14.3-37-25.73l-.88,1.64c11.1,7.66,30.9,22,44.34,33.35,0,0-25.08-18-45.41-31.17-.23.47-.44.95-.64,1.45,11.94,8,34.29,23.5,49.16,36,0,0-28.15-19.82-50.1-33.78-.29.74-.59,1.5-.88,2.26,12.45,7.69,37.25,23.8,54.16,37.27,0,0-31.47-20.78-55.14-34.6-.3.82-.58,1.65-.87,2.48,7.34,4.11,27.24,17.34,30.58,42.78a64.19,64.19,0,0,0-31.36-40.38c-.38,1.23-.75,2.44-1.1,3.63,2.79,1.87,33.85,22.76,28.8,53.63q13.53,2.84,27,5.56c-8.7-5.94-15.62-25.85-17.7-30.58-2.33-5.3-13.9-18.52-13.9-18.53l5.34,3.83c13,5.52,20.56,11.46,24.23,14.92l2.27,1.42c4.15.09,8.17,3.56,8.17,3.56-3.48-4.85-2.61-14.36-.65-18.4h0c1.94-4.06.2-6.61.2-6.61,17.12,6.69,15.18,19.56,15.17,19.57,9.75-8.38,18.63,4,18.63,4s-9.21,5.4-9.12,20.89q4.4,3.48,8.84,7.33a33.76,33.76,0,0,1,2.23-9.6,27.66,27.66,0,0,0,2.6-12.54c6.5,3.92,6.06,13.52,6.06,13.53,6.07-9.45,14.3-3.91,14.3-3.92s-2.6.94-1.08,7.27a12.85,12.85,0,0,1-2.17,10.73c9.31,2.66,9.31,12.6,9.31,12.61-3.45-1.1-6.12-1.08-8.15-.31,2.91,1.89,8.61,6.43,15.91,16.38-.18.7-.38,1.39-.59,2.09-3.16-5.09-9.08-13.7-15.54-18.38a7.4,7.4,0,0,0-2.45,1.71c4.65,5,9.15,10.22,13.41,15.76a97,97,0,0,1,6.95,9.59c2.33-4.11,5.32-8.63,5.45-20.55C806.24,556.57,772.66,539.45,772.66,539.34Zm28.91-16.27c-6.37,3.57-10.84.28-10.84.28a11.25,11.25,0,0,0,11.63-3C802.09,521.39,801.81,522.32,801.57,523.07Zm1.48-5.7c-5,6-9.91,4.85-9.91,4.85,6.14-1.14,9.2-6,10.4-8.58A31.36,31.36,0,0,1,803.05,517.37Zm.18-9.76a19.39,19.39,0,0,1,.39,3.75c-5.51,9.31-12,8.63-12,8.63C799.07,517.58,802.18,510.68,803.23,507.61Zm-.77-2.43c-4,11.52-10.76,12.37-10.76,12.37,6.74-4,8.85-11.46,9.48-14.88A21.64,21.64,0,0,1,802.46,505.18Zm-4.16-5.83a11.11,11.11,0,0,1,1.61,1.56c-2.92,12.52-9.61,14.34-9.61,14.34C796.34,510.41,797.91,503,798.3,499.35Zm-103-6c-.56-1.14-1.11-2.28-1.67-3.43,24.23,6.57,19.44-24.52,19.44-24.5C720.06,500.29,695.33,493.39,695.33,493.36Zm30.41,13.94c23.52,5.19,37.38-14.25,37.38-14.24C750.88,520.44,725.74,507.33,725.74,507.3Zm46.07,38.19s13.89,5.13,21.37,13.64c.47,1.23,1,2.57,1.44,4C790.27,558.76,780.35,549.34,771.81,545.49ZM799.3,601c-2.94-3.75-7.24-9.11-9.87-11.78a65.38,65.38,0,0,1,10.21,9.61C799.55,599.59,799.43,600.32,799.3,601Zm.58-4.15c-2.77-3.32-6.75-8-8.86-10a63.34,63.34,0,0,1,9,7.52C800,595.26,799.93,596.07,799.88,596.89Zm.19-5.15c-4.18-4.45-12.17-13.2-12.17-13.2,3.72,2.47,9.17,7.71,12.1,10.62C800.05,590,800.07,590.88,800.07,591.74Zm-.24-5.42c-3.52-3.74-9.92-10.22-15.06-13.3a46.55,46.55,0,0,1,14.76,10.54C799.65,584.48,799.74,585.39,799.83,586.32Zm-.66-5.4c-4.41-4.47-14.06-13.27-14.06-13.28,4.33,2.29,10.43,7.65,13.59,10.56C798.85,579.09,799,580,799.17,580.92ZM798,575c-3.69-4.19-9.31-10.08-13.94-13a55.94,55.94,0,0,1,13.15,9.74C797.52,572.81,797.78,573.91,798,575Zm-1.62-6.3a92.47,92.47,0,0,0-10.64-10.23c1.57,1.13,6.14,4.5,9.93,7.85C795.93,567.13,796.16,567.91,796.4,568.73Z" style="fill: #ffd327"/>
      <path d="M792.77,809h0c-3.33-14.21-9.68-13.79-9.68-13.79-3.63,8.1,2.88,17.5,2.88,17.5-9.26-11.89-12.58-.47-12.58-.46,8.79,2,9.14,9.27,8.88,12.41-.24,8.95-2.7,13.42-5.76,15.44.59,0,.93,0,.93,0,22.29-3.13,11-30,11-30s7.84,11.62,2.93,23.32c5.77-2.38,5.92-14.13,6-20.76.14-7,2.32-9.81,2.32-9.81C793.93,801.09,792.77,809,792.77,809Z" style="fill: #ffd327"/>
      <path d="M587.45,493.36c-18.21,6.64-22.18,24.94-22.18,24.94,2.33-16.77,12.67-24.2,21.24-27.45-.54-1.3-1.11-2.7-1.72-4.09-22.2,3.87-45.42,10.34-45.42,10.36,14-5.58,31.46-10.11,44.31-12.87-.36-.82-.74-1.62-1.09-2.4-19.88,4.53-40,10.79-40,10.8,11.8-5.17,27.2-10,38.94-13.16-.24-.52-.48-1-.69-1.47-17.68,4.26-35.14,9.63-35.14,9.64,9.86-4.32,23.46-8.65,34.15-11.7l-.12-.24a26,26,0,0,1-4.46-1.37.43.43,0,0,1,0-.05c-12.2,3.33-23.1,6.73-23.1,6.73,6-2.63,15.22-6,23.39-8.78.16-.95.31-1.89.46-2.81-9.94,2.8-19.19,5.61-19.19,5.61,4.74-2.06,12.71-5,19.48-7.36.43-2.41.88-4.72,1.37-6.92-7.12,1-12.64-.14-16.75-2.41l-.2-.1a.51.51,0,0,0-.18-.09,19,19,0,0,1-8.07-9.09.3.3,0,0,0,0-.1c-.13-.3-.26-.61-.38-.92a1.17,1.17,0,0,1-.06-.2c-.11-.28-.22-.57-.3-.85,0-.08,0-.15-.08-.22-.08-.3-.17-.58-.24-.87a1.29,1.29,0,0,1-.06-.21c-.07-.31-.15-.61-.22-.92a.35.35,0,0,0,0-.14c-.07-.35-.13-.7-.18-1v0c-.07-.45-.13-.89-.16-1.33,0-.11,0-.23,0-.32,0-.34,0-.67,0-1,0-.16,0-.33,0-.5s0-.51,0-.76c0-.43.05-.84.09-1.25,1.2-10.18,11.28-4.71,11.28-4.7-3.12-9.25-12.24-5.92-12.24-5.91a13.6,13.6,0,0,0,2.4-8.09,11.07,11.07,0,0,0-11.27,6.91c-3.37,7.9,3.6,21.57,3.6,21.57C533.23,440.14,534.43,421.38,533,411s-13.19-10.57-14.63-.7,7.92,11.64,7.92,11.65a13.91,13.91,0,0,1-4.89,4.1c1.89,8.55,9.41,32.93,34.19,37.1,0,0-7.79,4.18-22.3,1.31s-24.48-19.38-26.22-34.37c0,0-4.76,4.38-2.16,13.44,0,0-4.12-9.08-13.22-10.14,0,0-.86,10.92,5,15.56,0,0-5.21-3.7-9.54.26,0,0,15.82,19.24,44.2,23.16,0,0-26.66,5.19-53.52-14,0,0-15.59-10.58-14.94-29.28,0,0-8-1.25-8.46,11.71s10.41,37.45,32.94,40.5c0-.11-33.6,6.08-33.18,44.24.13,12,3.11,17.38,5.45,22.22a61.23,61.23,0,0,1,6.94-7.41A122.49,122.49,0,0,1,480,529a11.6,11.6,0,0,0-2.46-2.54c-6.45,2.52-12.37,9.24-15.52,13.35-.23-.77-.43-1.53-.61-2.29,7.31-7.66,13-10.31,15.92-11.22a13.81,13.81,0,0,0-8.15-2.38s0-10,9.31-9.53c0,0-3.69-5.61-2.17-11.46s-1.08-7.62-1.09-7.62,8.24-2.8,14.3,8.79c0,0-.43-9.77,6.07-11.38a33,33,0,0,0,2.61,13.47,44.64,44.64,0,0,1,2.24,10.41c2.94-1.49,5.89-2.85,8.8-4.08.12-15.47-9.1-24.25-9.1-24.24s8.88-9.19,18.64,2.92c0,0-2-13.7,15.16-13.67,0,0-1.74,1.87.21,6.7s2.82,14.67-.65,18.14a11.4,11.4,0,0,1,8.17-.3l2.27-.5c3.66-2,11.19-4.89,24.21-4.94l5.33-1.58s-11.55,8.36-13.88,12.71h0c-2.08,3.87-9,20.91-17.72,23.34q13.49,2.72,27,5.55c-4.51-25.52,9.61-34.71,20.36-38-.45-1.34-.84-2.56-1.13-3.51C587.89,494.63,587.68,494,587.45,493.36ZM546.9,430h0s-4.79,29,19.45,32.52l-1.68,2.73S539.94,462,546.9,430Zm-88.08,5.26a32.26,32.26,0,0,0,9.47,17.87s-6.73-3-10.76-15.75A14.12,14.12,0,0,1,458.82,435.28Zm-2.05,4.31c1,3.4,4.15,11.22,11.63,16,0,0-6.5-1.42-12-12.4A18.34,18.34,0,0,1,456.77,439.59Zm-.31,5.94c1.21,2.93,4.27,8.73,10.4,11.82,0,0-4.93-.45-9.91-7.94A33.17,33.17,0,0,1,456.46,445.53Zm2,10c-.25-.83-.52-1.84-.8-2.95,1.19,1.62,5.29,6.48,11.64,6.66C469.27,459.27,464.8,461.09,458.43,455.56Zm1.65-21.65a7.73,7.73,0,0,1,1.62-1.06,33.32,33.32,0,0,0,8,18.45S463,447.33,460.08,433.91Zm4.24,66.77a84.23,84.23,0,0,1,9.92-4.64c-3.29,1.36-7.6,4.43-10.64,6.79C463.83,502.08,464.07,501.38,464.32,500.68Zm-3,10.9c3.14-1.93,9.22-5.33,13.56-6.19,0,0-9.63,5.64-14.05,8.76C461,513.28,461.15,512.42,461.32,511.58ZM460,527.42a40.09,40.09,0,0,1,9-4.67,78.45,78.45,0,0,0-8.83,7.15C460.07,529.07,460,528.23,460,527.42Zm10.59-1.82a101.46,101.46,0,0,0-9.87,8.63c-.13-.76-.25-1.52-.35-2.28A40.15,40.15,0,0,1,470.57,525.6Zm-10.64-.91c0-.86,0-1.73.07-2.55,2.93-2,8.38-5.51,12.1-6.77C472.1,515.37,464.11,521.52,459.93,524.69Zm.24-5.35c.08-.89.18-1.78.3-2.66a30.74,30.74,0,0,1,14.76-5.79C470.09,512.25,463.69,516.69,460.17,519.34Zm15.75-19.23c-4.63,1.39-10.23,5.47-13.94,8.51.24-1,.51-2.06.78-3A36.27,36.27,0,0,1,475.92,500.11Zm-10.55-2.32c.49-1.27,1-2.46,1.45-3.53,7.48-6.16,21.37-6.5,21.37-6.49C479.64,488.62,469.72,494.79,465.37,497.79Zm31.51-59.37h0s13.86,24.27,37.37,28.39C534.25,466.78,509.11,470.08,496.88,438.42Z" style="fill: #ffd327"/>
      <path d="M618.51,382.33a42.79,42.79,0,0,1,6-6.23,2.32,2.32,0,0,0,.18-.16,10,10,0,0,0,1.75-2.2,14.4,14.4,0,0,0,1.42-3.21,31,31,0,0,0,1.31-7.3,69.6,69.6,0,0,0-.85-14.84c2.15,1.84,4.11,2.21,5.71,1.6,4.58-1.71,6.08-11.38,0-16.76a13.71,13.71,0,0,0-5.71-2.93c-.64-.18-1.27-.32-1.88-.43-12.2-2.38-16.9,5.05-18,7.26,5-11.07.81-20.05.81-20.05-23.8,42.48-9.48,87.05-3.71,101.41.85-.31,1.76-.62,2.73-.89-12.43-49.61-2.37-70.43-2.37-70.43C601.15,375,607,403,610.89,417c.7-.14,1.42-.28,2.16-.4l.7-.1c-.28-1.27-.51-2.5-.72-3.69C610.45,397.34,613.93,388.33,618.51,382.33Z" style="fill: #ffd327"/>
      <path d="M524.11,692.45s5.09-1.33,3.27-11.44c0,0-22.92,4.38-36.37-40.71,0,0,12.36,2.18,22.18,23.58,0,0,1.47-6.24-1.8-11.51,0,0,6.17,6.72,12.72,7.54,0,0,0-12.1-10.55-15.5,0,0,2.55-2.77,2.18-8.41,0-.45,0-.83-.08-1.14l-1,.36q-9.1-3-18.19-6a14.39,14.39,0,0,1-6.93-2.68s2.9,14.9-10.91,13.48c0,0,4.74-7.09.72-12.42-.51-.7-1.1-1.4-1.74-2.13l.75,9.63a98.48,98.48,0,0,1-2.31-11.38c-.68-.74-1.39-1.53-2.12-2.35,1,6.77,3.32,16,3.32,16-3.06-6-5.12-14.43-6.19-19.44a34.6,34.6,0,0,1-6.62-13.69s1.09,9.45,9,31.92c6.53,18.52,11.34,63.86-11.58,58.78,0,0,.73,12.17,10.91,8.72,0,0-8,10.32-3.64,20.32,0,0,9.1,3.36,13.1-14.55,0,0-.36,12.48,3.27,16.83a43.08,43.08,0,0,1,2.92-11.12c2.18-4.72,1.81-33.15-6.55-55.51,0,0,16.37,37.72,17.09,52.28s-3.28,14.28-3.28,14.28,8.37,5.7,8-13c0,0,6.91,17.54,4.36,28.23,0,0,11.27-18.33,5.45-31.53s-15.64-36.81-15.64-43.31c0,0,11.64,26.76,16.37,30.45s9.82,15.81,10.55,23.86c0,0,5.09-6.92-1.45-17.93a10.88,10.88,0,0,1,5.81,5.76,20.55,20.55,0,0,0,4.06,2.05c-.41-4-.68-8-.79-11.94A13.31,13.31,0,0,0,524.11,692.45Zm-5.45-37.25c-10.52-14.45-26.28-21.34-26.28-21.32C515.3,640,518.66,655.23,518.66,655.2Zm-35,13.17c7.48,34.83-11.15,51.39-11.15,51.42C486.82,695.53,483.63,668.38,483.63,668.37Zm4-27.82q3.82,9,7.64,18-4.46-8.73-8.91-17.42Zm21.66,64.55s4.45,13.45,3,20.31c0,0,.16-12-4.3-20.15s-23.73-57.38-25.47-63.33l2.38.4Q497.07,673.64,509.26,705.1Zm13.54-8.62h0c-2.07-1.21-11.95-13.07-16.25-23.83,0,0,10.83,16.66,16.55,21.25A26,26,0,0,1,530.91,704S524.86,697.69,522.8,696.48Z" style="fill: #ffd327"/>
      <path d="M619,388.57a29.3,29.3,0,0,0-3.59,15h0a50.74,50.74,0,0,0,.45,6.53,90.76,90.76,0,0,1,4.19-23.19Q619.54,387.73,619,388.57Z" style="fill: #ffd327"/>
      <polygon points="546.9 430.02 546.9 430.02 546.9 430.02 546.9 430.02" style="fill: #ffd327"/>
      <path d="M777.72,769.19c4,19.29,13.09,18.91,13.09,18.91,4.38-8.59-3.63-21.5-3.63-21.51,10.18,6.77,10.91-5.23,10.91-5.22-22.92-2.29-18.1-46.22-11.58-62.5,7.94-19.87,9-29,9-29a23.28,23.28,0,0,1-6.63,11.57c-1,4.66-3.13,12.41-6.18,17.39,0,0,2.28-8.46,3.32-14.89-.73.59-1.45,1.14-2.12,1.66a76.13,76.13,0,0,1-2.32,10.61c.26-3.13.51-6.26.77-9.39a19.77,19.77,0,0,0-1.76,1.54c-4,4,.74,12.67.74,12.67-13.83-3.28-10.93-17.24-10.93-17.23a11.63,11.63,0,0,1-6.91.23q-9.1-.32-18.2-.72l-1-.74c0,.31-.05.68-.08,1.11a15.79,15.79,0,0,0,2.18,9.24c-10.55-.6-10.54,11.46-10.55,11.47,6.56,1.72,12.73-2.69,12.73-2.69-3.26,4-1.8,10.83-1.8,10.83C756.63,694.85,769,697,769,697c-13.45,40.45-36.37,27.19-36.37,27.17-1.82,9.4,3.27,12.72,3.26,12.72-4.14-.5-6.72,1-8.34,3.16q-.18,5.92-.79,11.63a14.94,14.94,0,0,0,4-.45,6.65,6.65,0,0,1,5.81-3.51c-6.55,8.48-1.45,17.37-1.45,17.37.73-7.76,5.81-17.92,10.55-19.81s16.37-24.4,16.37-24.41c0,6.51-9.82,26.58-15.65,37.54S751.89,792,751.89,792c-2.55-11.64,4.37-26.63,4.37-26.63-.35,18.54,8,15.86,8,15.85s-4-1.17-3.29-15.46,17.1-46.24,17.1-46.26c-8.36,19.48-8.73,47.75-6.55,53.25a53.85,53.85,0,0,1,2.91,12.12C778.08,781.8,777.72,769.19,777.72,769.19Zm-36.37-67.43s3.35-13.73,26.27-11.63C767.62,690.14,751.86,691.38,741.35,701.76Zm-4.14,39.69c-2.08.42-8.13,4.32-8.13,4.32a15.09,15.09,0,0,1,7.82-7c5.72-2.36,16.55-15,16.55-15C749.15,733,739.28,741.06,737.21,741.45Zm35.2-43,1.26,1-8.92,14.29ZM752,755.85h0c-4.46,6.5-4.3,18.54-4.3,18.54-1.44-7.4,3-19.17,3-19.18q12.18-26.93,24.35-54l2.4.41C775.74,707,756.48,749.39,752,755.85Zm24.36-28.18s-3.18,26.13,11.14,55.16C787.52,782.86,768.89,760,776.38,727.67Z" style="fill: #ffd327"/>
      <path d="M634,374.91c1.08-1.76,2.23-3.48,3.48-5.15A17.5,17.5,0,0,0,634,373a42.77,42.77,0,0,0-4.93,7.15c-3.9,7-8.22,18.21-10.65,35.81.72,0,1.52-.07,2.36-.09,1.11-9.09,3.78-22.74,10.08-35.32C631.87,378.65,632.91,376.75,634,374.91Z" style="fill: #ffd327"/>
      <polygon points="775.48 614.3 775.48 614.3 775.48 614.3 775.48 614.3" style="fill: #ffd327"/>
      <path d="M650.6,424.07c1.27.77,2.54,1.61,3.77,2.51a54.78,54.78,0,0,1,22.16,8.68S668.59,426,650.6,424.07Z" style="fill: #ffd327"/>
      <path d="M651.43,419.22a12.58,12.58,0,0,0-9.63.45l-.17.09c.81.31,1.64.63,2.46,1a35.92,35.92,0,0,1,9.71-.55A18.77,18.77,0,0,0,651.43,419.22Z" style="fill: #ffd327"/>
      <path d="M590,473.74c.11,0,.19,0,.29,0,19.78,2.49,41,.65,45.51.21.91-4.75,4.37-7.69,8.52-6.79a9.3,9.3,0,0,1,4.64,2.74l18.53,3,3.25.54a52.21,52.21,0,0,0-.14-8,56.92,56.92,0,0,0-2.4-11.92c-.38-1.18-.81-2.38-1.29-3.59a47.19,47.19,0,0,0-21.4-24.08q-2-1.11-4.23-2.12c-.67-.31-1.34-.59-2-.87l-1.49-.59-.57-.22-.7-.25s-.84-.21-2.32-.51c-.84-.17-1.86-.37-3.06-.56-.65-.12-1.34-.22-2.07-.32-.34-.05-.69-.11-1-.15-.57-.08-1.18-.15-1.8-.22a2.65,2.65,0,0,1-.38-.05c-.92-.09-1.87-.18-2.85-.25-.82-.07-1.66-.11-2.52-.16s-1.61,0-2.42-.06l-.2,0c-.64,0-1.28,0-1.91,0l-1.37.05c-.44,0-.88,0-1.33.08s-.87.06-1.29.11l-.16,0a19.48,19.48,0,0,0-2.68.72,16.91,16.91,0,0,0-2.21,1,15,15,0,0,0-2.71,1.82,14.23,14.23,0,0,0-4.26,6.31c6.22,19.19,37.6,38.75,37.6,38.75-40.2-19.21-42.21-43.32-42.21-43.33-4.44,6.23-8.16,15.59-11,24.29-.69,2.13-1.33,4.24-1.89,6.25-.45,1.5-.85,3-1.2,4.35-.69,2.5-1.24,4.74-1.66,6.57-.19.75-.34,1.43-.47,2-.3,1.28-.49,2.18-.59,2.68-.06.24-.08.39-.08.38,1.2.3,2.43.56,3.68.81,2.1.43,4.27.79,6.45,1.1C589,473.6,589.5,473.67,590,473.74Zm2.09-19.2a35.57,35.57,0,0,0,18.72,7.94c.47,1.37.93,2.74,1.39,4.12,0,0-11.83,4.22-20.73-4C591.44,462.63,590.52,457.45,592.06,454.54Z" style="fill: #bec0c2"/>
      <path d="M651.28,473.19a15.48,15.48,0,0,1,1.77,7.1v.19q9.15,1.78,18.31,3.55h0l.31-1.83,1-5.82-5.67-.84Z" style="fill: #bec0c2"/>
      <path d="M593.5,503.42c.17.58.36,1.17.54,1.74,2.89,9.51,9.48,18.15,9.66,18.39,0,0,.07,0,.12,0,21.64-6.79,35.42-26.23,40.21-34a8.46,8.46,0,0,1-2.82-1.33,84.31,84.31,0,0,1-26.36,24.94s14.67-14,23.81-27.38a15.61,15.61,0,0,1-2.21-4.09c-9.11,2-22.9-.52-22.9-.52a204.74,204.74,0,0,0,22.34-1.41,17.51,17.51,0,0,1-.31-2.14c-20.08,1.5-34.15,1.06-43.61.11a2.46,2.46,0,0,1-.37,0c-.71-.06-1.4-.14-2.06-.23-1.41-.16-2.7-.34-3.88-.53s-2.32-.38-3.29-.57c.22.38.43.8.66,1.18s.52.91.78,1.39c.43.79.84,1.6,1.26,2.42s.79,1.61,1.17,2.43.77,1.71,1.16,2.6c.52,1.22,1,2.45,1.5,3.7.33.85.65,1.69,1,2.55.68,1.81,1.32,3.64,1.92,5.44.29.9.59,1.77.86,2.65S593.21,502.52,593.5,503.42Zm9.11-14.19c1.18-.36,2.54.65,3,2.28s-.09,3.23-1.28,3.58-2.53-.66-3-2.29S601.43,489.59,602.61,489.23Zm-3.06,7.44a2.54,2.54,0,0,1,.2.24,3.73,3.73,0,0,1,.74,1.38c.47,1.59-.08,3.16-1.23,3.55l0,0h-.07c-1.16.3-2.47-.72-2.95-2.3a1.49,1.49,0,0,0,0-.18,3.57,3.57,0,0,1,.11-2.21,2,2,0,0,1,1.21-1.19A2.14,2.14,0,0,1,599.55,496.67Zm-6.21-11.29a2.1,2.1,0,0,1,1-1.22s0,0,0,0l.29-.13c1.18-.35,2.53.67,3,2.3a3.62,3.62,0,0,1,0,2,2.23,2.23,0,0,1-1,1.41,1.3,1.3,0,0,1-.3.13,2.3,2.3,0,0,1-2.43-1.07,3.9,3.9,0,0,1-.59-1.21A3.65,3.65,0,0,1,593.34,485.38Z" style="fill: #bec0c2"/>
      <path d="M635.3,535.12c-13.66,5.74-23.66,7.62-30.59,4.39a22.19,22.19,0,0,1-.93,4.65,24.08,24.08,0,0,1-7.16,11.15,25.41,25.41,0,0,1-4.37,3.07,57,57,0,0,0,27.62,2,49.81,49.81,0,0,0,8.39-2.32c4.22-2.41,8-4.4,11.52-6a105.76,105.76,0,0,1,15.69-6.19q-4.11-7.47-8.24-14.94A101.39,101.39,0,0,0,635.3,535.12Zm10.13,2.63a2,2,0,0,1-1.29-1.94c0-.91.57-1.54,1.29-1.38a2,2,0,0,1,1.3,1.94C646.73,537.28,646.16,537.91,645.43,537.75Zm3.23,4a2,2,0,0,1,1.3,1.94c0,.91-.58,1.53-1.3,1.38a2,2,0,0,1-1.29-1.94C647.37,542.19,647.94,541.58,648.66,541.74Z" style="fill: #bec0c2"/>
      <path d="M649.74,479.57c0-3.85-2.43-7.5-5.45-8.16s-5.45,1.94-5.45,5.79,2.43,7.48,5.45,8.15S649.74,483.42,649.74,479.57Zm-5.45,2.62c-1.65-.36-3-2.35-3-4.46s1.33-3.52,3-3.16,3,2.35,3,4.46S645.94,482.55,644.29,482.19Z" style="fill: #bec0c2"/>
      <path d="M643.05,494.4c-13.47,20.94-26.41,27.89-33.81,30.2a36.87,36.87,0,0,1-2.71,12.67c4.17,1.28,13.15,2.12,28.24-5.38,0,0,13.38-6.78,20.64-6.64.29-15.12,7.42-34,9.6-39.47l-12.35-2.3a9.76,9.76,0,0,1-1.68,3.57,25.53,25.53,0,0,1-1.86,12.87c-3.89,9.28-1,23.66-1,23.66s-3.81-15.5-.65-24.94a21.43,21.43,0,0,0,.89-9.48,6.3,6.3,0,0,1-2.49.56c-.48.83-.95,1.62-1.46,2.41a2.16,2.16,0,0,1,.95,1.8c0,.92-.59,1.53-1.31,1.37A1.58,1.58,0,0,1,643.05,494.4Zm-.52,12.76a2,2,0,0,1,1.3,1.94c0,.92-.59,1.52-1.3,1.37a2,2,0,0,1-1.3-1.94C641.23,507.61,641.81,507,642.53,507.16Zm-1.82,9c0-.92.57-1.55,1.31-1.39a2,2,0,0,1,1.29,2c0,.91-.58,1.53-1.29,1.38A2,2,0,0,1,640.71,516.18Zm1.83,9.8a2,2,0,0,1-1.31-1.94c0-.92.58-1.53,1.31-1.37a2,2,0,0,1,1.3,1.94C643.84,525.52,643.26,526.14,642.54,526Zm1.79-24.52c0,.91-.57,1.53-1.28,1.37a2,2,0,0,1-1.3-1.94c0-.92.59-1.54,1.3-1.39A2,2,0,0,1,644.33,501.46Z" style="fill: #bec0c2"/>
      <path d="M655.82,529.18a39.2,39.2,0,0,0-6.63,1.15q3.25,7.7,6.5,15.4c6.41-1.85,9.4-1.7,9.4-1.7C661,541.11,657.05,532.16,655.82,529.18Z" style="fill: #bec0c2"/>
    </g>
  </g>
</svg>
