<svg xmlns="http://www.w3.org/2000/svg" xmlns:xlink="http://www.w3.org/1999/xlink" viewBox="0 0 1260 1012.04">
  <defs>
    <linearGradient id="a" x1="624.07" y1="447.58" x2="624.68" y2="447.58" gradientTransform="matrix(1, -0.07, 0, 1, 0, 44.05)" gradientUnits="userSpaceOnUse">
      <stop offset="0.02" stop-color="#fce900"/>
      <stop offset="0.25" stop-color="#ffed00"/>
      <stop offset="0.53" stop-color="#fdc800"/>
      <stop offset="0.71" stop-color="#ffed00"/>
      <stop offset="0.96" stop-color="#fce900"/>
    </linearGradient>
    <linearGradient id="b" x1="625.43" y1="452.02" x2="637.11" y2="452.02" xlink:href="#a"/>
    <linearGradient id="c" x1="624.71" y1="444.87" x2="625.32" y2="444.87" xlink:href="#a"/>
    <linearGradient id="d" x1="621.58" y1="428.1" x2="621.89" y2="428.1" xlink:href="#a"/>
    <linearGradient id="e" x1="611.55" y1="451.99" x2="623.62" y2="451.99" xlink:href="#a"/>
    <linearGradient id="f" x1="629.28" y1="460.38" x2="629.87" y2="460.38" xlink:href="#a"/>
    <linearGradient id="g" x1="621.22" y1="443.07" x2="622.3" y2="443.07" xlink:href="#a"/>
    <linearGradient id="h" x1="621.89" y1="438.41" x2="622.16" y2="438.41" xlink:href="#a"/>
    <linearGradient id="i" x1="612.69" y1="440.36" x2="614.02" y2="440.36" xlink:href="#a"/>
    <linearGradient id="j" x1="623.56" y1="449.89" x2="623.79" y2="449.89" xlink:href="#a"/>
    <linearGradient id="k" x1="613.11" y1="449.93" x2="637.9" y2="449.93" xlink:href="#a"/>
    <linearGradient id="l" x1="625.3" y1="447.92" x2="625.58" y2="447.92" xlink:href="#a"/>
    <linearGradient id="m" x1="612.92" y1="438.03" x2="615.89" y2="438.03" xlink:href="#a"/>
    <linearGradient id="n" x1="618.69" y1="438.92" x2="621.25" y2="438.92" xlink:href="#a"/>
    <linearGradient id="o" x1="615.84" y1="436.32" x2="618.74" y2="436.32" xlink:href="#a"/>
    <linearGradient id="p" x1="608.25" y1="441.45" x2="612.98" y2="441.45" xlink:href="#a"/>
    <linearGradient id="q" x1="612.7" y1="442.82" x2="613.44" y2="442.82" xlink:href="#a"/>
    <linearGradient id="r" x1="480.63" y1="519.52" x2="774.78" y2="519.52" gradientTransform="matrix(1, -0.07, 0, 1, 0, 44.05)" gradientUnits="userSpaceOnUse">
      <stop offset="0.01" stop-color="#bebfc0"/>
      <stop offset="0.55" stop-color="#fff"/>
      <stop offset="1" stop-color="#bebfc0"/>
    </linearGradient>
  </defs>
  <g>
    <path d="M0,90.08v920C420,738.76,840,1193.28,1260,922V2C840,273.28,420-181.24,0,90.08Z" style="fill: #fff;fill-rule: evenodd"/>
    <path d="M627.21,177.07C555.75,161.48,484.28,146,412.82,137.74V755.42h0c.62,32,20.54,59.84,45.27,64.47v0c52.22,8,104.44,19.13,156.66,30.49l12.92,20.07q6.59-7.18,13.16-14.39c52.15,11.36,104.29,22.53,156.43,30.72v0c24.73,3.1,44.65-20.26,45.27-52h0V217.07c-71.46-8.56-142.93-24.2-214.39-39.79Z" style="fill: #e6e6e6"/>
    <path d="M411.71,136.19v619.1c.66,32.79,21,61.27,46.38,66,0-1.88,155.27,29.18,156.22,30.43l13.38,20.8,13.65-14.91c.93,1.18,155.95,32.43,155.95,30.62,25.39,3.15,45.75-20.75,46.39-53.34l0-619.13-1.12-.14C699,198.45,555.33,152.61,411.71,136.19ZM841.47,834.61c-.63,31-20,53.78-44.2,50.75C745,877.15,692.68,866,640.39,854.57l-12.68,13.87c-1.41-2.18-12.45-19.34-12.45-19.34-52.38-11.4-104.76-22.54-157.14-30.59-24.14-4.57-43.55-31.77-44.15-63,0,0,0-613.38,0-616.22,1.1-.42,54.42,6.8,107.46,17.09,53,9.79,105.81,22.65,105.81,22.1s53,12.37,106.3,22.34c53.29,10.45,106.86,17.95,108,17.53Z"/>
    <path d="M627.23,194.25c-67.92-14.82-135.84-29.54-203.76-38.05V743.27h0c.59,30.36,19.52,57.06,43,61.61v0c49.63,7.94,99.27,18.51,148.91,29.31l12.27,19.08,12.51-13.68c49.56,10.8,99.12,21.43,148.68,29.52v0c23.5,3.09,42.43-18.92,43-49.13h0V232.92C764,224.14,696.1,209.27,628.18,194.45Z" style="fill: #f2f2f2"/>
    <path d="M422.35,154.63v588.5c.64,31.21,20,58.51,44.14,63.19,0-1.62,147.51,28.14,148.46,29.24l12.74,19.81,13-14.2c.94,1,148.21,31,148.21,29.41,24.16,3.14,43.53-19.41,44.14-50.41l0-588.53-1.12-.15C695.41,213.84,558.88,171.59,422.35,154.63ZM830.83,819.85c-.61,29.45-19,50.86-42,47.84-49.7-8.1-99.41-18.76-149.12-29.58l-12,13.16L615.9,832.92c-49.79-10.84-99.59-21.45-149.38-29.42C443.61,799,425.19,773,424.61,743.38c0,0,0-582.78,0-585.61,1.1-.34,51.76,6.93,102.15,16.82,50.38,9.47,100.5,21.55,100.49,21.08s50.35,11.67,101,21.3c50.63,10,101.52,17.56,102.63,17.23Z"/>
    <path d="M488.35,479.78v233.1c0,9.1,5.71,17.46,12.74,18.74C585.5,747,669.91,768.33,754.32,783.9c7,1.3,12.74-5.07,12.74-14.16V313c-92.9-16.46-185.8-40.65-278.71-56.85Z" style="fill: #b8cbda"/>
    <path d="M647.7,570.45c.15-4.76-3.44-18.14-2.44-25.51a11.92,11.92,0,0,0-6.1-12.44c-1.69-.83-8.27,5.7-11,8.51l-.81-22.73c2.86-7.11,11.13-23.29,14.75,15.93,1.85-.33,1.65-17,.34-24.76a41.37,41.37,0,0,0-.93-4.26c1-4.74.71-19.36-.39-26.83-1.32-8.9-3.7-12.85-5.7-14-1.47-.81-6.86,5.8-9.67,9.44q-.45-12.27-.89-24.53l-1.75.37q0,12.27-.08,24.54c-1.43-4-5.72-11.18-18.07-10.54-6.36,2.85-5.57,31.82-3.51,32.15s3.88-23.88,10.4-21c7.8,3.46,10.53,13.46,11.12,16.09q0,6.65,0,13.3c-1.93-4.16-5.75-10.5-10.36-8.22-6.7,3.31-20.33,26-18.73,28.11,15.85-21.39,25.6-11,29-5.66l-.06,18.31c-4.88-10-17.52-30.54-27.23.45-1,11.77-3.41,20.54-3.51,24.67s12.94-56.15,30.67-4.22q0,6.47,0,12.93c-4.83-5.24-14.56-15.46-17.16-15.52-3.51-.09-7.66,2.44-10,10.56s-2.63,27,.59,28.55c6.66-44.86,22.3-16.24,26.47-7.52l-.13,39.42,8.78,1.92-1.56-43.49c3.9-6.91,10.59-12.68,13.82,20.1,2-.3,1.77-16.93.36-24.75s-3.95-11.38-6.09-12.43c-1.28-.64-5.4,3-8.49,6q-.35-9.39-.68-18.8C631.18,548.45,638.94,528.76,647.7,570.45Zm-21.43-82.2c2.94-8.17,10.37-23.81,14.07,13.54-1.13-2.64-2.43-4.09-3.59-4.69-1.5-.76-7.11,5.15-9.86,8.19Q626.57,496.77,626.27,488.25Z" style="fill: green"/>
    <path d="M645.53,545.05a12.48,12.48,0,0,0-3.2-10.53c2-1.06,1.59-18,.39-25.09a42.9,42.9,0,0,0-.91-4.2c1.05-5.09.66-19.62-.41-26.88-1.6-10.82-4.66-13.59-5.91-14.28s-4.37,2.34-9.49,8.9q-.42-11.81-.85-23.61c-.12-.14-.24-.27-.37-.4l-1.94.4q0,11.73-.08,23.46c-1.94-4.3-6.64-10.09-17.85-9.5l-.07,0c-5.68,2.54-5.74,24.26-4.48,30.61.29,1.43.63,2.14,1.08,2.24h0c.88.15,1.45-2.08,2.56-6.73,1.54-6.48,3.62-15.25,7.27-14.45a2.5,2.5,0,0,1,.51.16C619.32,478.5,622,488,622.7,490.91q0,6,0,12.11c-2.07-4.13-5.78-9.55-10.22-7.36-6.15,3-18.64,23.06-19,27.67a1.43,1.43,0,0,0,.22,1l.21.28.18-.24c7-9.44,13.54-13.72,19.45-12.71a3.4,3.4,0,0,1,.46.09c4.06.88,6.92,4.11,8.64,6.76l-.06,17.06c-3-6-8.46-14.86-14.46-15.16-4.92-.27-9.22,5.31-12.75,16.59l0,.09a169.22,169.22,0,0,1-2.39,16.94,61.75,61.75,0,0,0-1.12,7.76c0,.32.08.53.25.61s.37,0,1.19-2.54c2.16-6.66,7.9-24.36,15.75-23l.22,0c4.41,1,8.87,7.94,13.26,20.77q0,6.09,0,12.18c-5.23-5.66-13.76-14.49-16.65-15.12l-.28,0c-2.13-.06-7.39.89-10.17,10.75-2,7-2.56,22.33-.49,27.4a3,3,0,0,0,1.28,1.66l.28.14c0-.12,0-.24.05-.35,2.36-15.87,6-24.06,11-24.32,6.06-.29,12.44,11.5,14.94,16.72q-.06,19.65-.13,39.31v.36l9.35,2q-.78-21.87-1.57-43.75c1.65-2.91,4.13-6.06,6.43-4.89,2.11,1.06,5,6.23,6.84,24.82,0,.14,0,.28,0,.42l.31,0c2.35-.36,1.86-17.87.55-25.13-1.7-9.54-5-12.09-6.3-12.75-.42-.19-1.64-.79-8.3,5.61q-.33-9-.65-17.94l0-.07c1.39-3.44,4.24-10.49,7.84-9.71l.27.07c3.55,1.17,7,9.72,10.33,25.44l.55,0a58.48,58.48,0,0,0-1.06-8.85C646,556.24,644.93,549.46,645.53,545.05Zm-8.38-.69a1.92,1.92,0,0,0-.32-.09c-4-.86-6.91,6.44-8.35,10l-.09.23q.35,9.45.68,18.89l.47.35c6.19-6,7.83-6.21,8.24-6,1.23.6,4.25,3,5.88,12.12,1.41,7.86,1.41,22.08.13,24.13-1.51-14.87-3.93-23.24-7.21-24.9-2.14-1.08-4.52.66-7.07,5.16l0,.08L631,627.58l-8.21-1.79q.08-19.53.13-39.07v-.11l-.05-.1c-2.54-5.3-9.12-17.56-15.57-17.25-5.12.28-8.94,8.49-11.35,24.39a2.92,2.92,0,0,1-.63-1c-2-4.91-1.41-19.93.53-26.79,2.68-9.52,7.7-10.43,9.73-10.38l.22,0c2,.44,8.1,6,16.74,15.39l.44-.2,0-12.93,0-.16c-4.49-13.17-9.13-20.35-13.79-21.36l-.24-.05c-8.22-1.41-14.05,16.59-16.25,23.36-.07.23-.15.45-.22.67.19-1.57.55-3.54,1-5.85.82-4.56,1.84-10.23,2.4-17,3.45-11,7.58-16.46,12.28-16.19a6.28,6.28,0,0,1,1,.13c5.65,1.23,10.82,10.19,13.47,15.62l.51-.09.06-18.31v-.14l-.08-.12c-1.79-2.79-4.8-6.26-9.12-7.2l-.48-.09c-6-1-12.51,3.14-19.46,12.35.68-4.5,12.49-23.91,18.68-27,4.46-2.19,8.17,4.08,10,8l.51-.08,0-13.31v-.11c-.67-3-3.47-12.89-11.34-16.38-4.49-2-6.75,7.64-8.42,14.66-.68,2.85-1.52,6.41-2,6.33,0,0-.31-.19-.63-2-1.27-7.38-.65-27.13,4.24-29.41,12-.62,16.25,6.18,17.73,10.28l.53,0q0-12.13.07-24.28l1.22-.26.87,24.06.49.32c5.6-7.25,8.44-9.61,9.29-9.43a.25.25,0,0,1,.09,0c1.14.63,4,3.22,5.5,13.64,1,7.09,1.44,21.85.4,26.67l0,.1,0,.12a41.81,41.81,0,0,1,.92,4.21c1.31,7.79,1.32,21.88.15,24.09-1.46-15.35-3.74-23.48-7-24.85a1.87,1.87,0,0,0-.44-.14c-3.18-.7-6.24,5.58-7.83,9.5l0,.08.81,22.82.48.34c5.38-5.56,9.4-8.78,10.62-8.51l.11,0a11.49,11.49,0,0,1,5.88,12c-.62,4.53.45,11.1,1.39,16.89.29,1.76.55,3.4.75,4.84C644,553,640.64,545.49,637.15,544.36ZM641.82,534a10.63,10.63,0,0,0-2.6-1.84l-.19-.07c-1.78-.39-6.62,4.08-10.61,8.16l-.78-21.85c1.3-3.2,4.56-10.34,7.64-9C637.3,510.25,640.07,515.22,641.82,534Z"/>
    <path d="M636.68,497.44c.87.44,2.18,1.58,3.42,4.48l.52-.12c-1.49-15-3.68-22.88-6.68-24.07s-6,5-7.92,10.33l0,.07q.32,8.55.62,17.12l.48.33C633,499,636,497.05,636.68,497.44Zm-10.13-9.06c1.48-4.09,4.3-10.64,7-10l.27.08c1.79.71,4.28,5.11,6,21.83a7.84,7.84,0,0,0-3.1-3.48l-.18-.07c-1.32-.28-4.51,2.34-9.5,7.81Q626.85,496.44,626.55,488.38Z"/>
    <path d="M624.68,448.25a4.31,4.31,0,0,1,0-.6,2.92,2.92,0,0,1-.56.21Z" style="fill: url(#a)"/>
    <path d="M637.05,456c-.92-3.21-2.36-5.22-4.71-6.53-1.71-1-5.06-2.3-6.76-1.22C629,449.07,635.84,451.35,637.05,456Z" style="fill: url(#b)"/>
    <path d="M625.32,444.3a5.45,5.45,0,0,0-.6,1.84A9.91,9.91,0,0,0,625.32,444.3Z" style="fill: url(#c)"/>
    <path d="M621.89,421.22a93.57,93.57,0,0,0,0,14.88v-.75C621.85,430.63,621.89,425.93,621.89,421.22Z" style="fill: url(#d)"/>
    <path d="M611.71,454.54c2.36-5.63,5.52-8.89,11.13-4.21-1.84.49-4,.78-5.16,2.77s-.72,4.1-.74,6.63c2.19-3.74,2.94-8.19,6.62-9.47-1.84-1.71-4.56-3.56-6.82-4C612.52,445.45,612.06,450.19,611.71,454.54Z" style="fill: url(#e)"/>
    <path d="M629.29,458.84c.18,1.1.36,2.17.57,3.15A8.2,8.2,0,0,0,629.29,458.84Z" style="fill: url(#f)"/>
    <path d="M622.25,444.38c-.3-.89-.63-1.79-1-2.68a12.3,12.3,0,0,0,1,3.9C622.29,445.19,622.26,444.79,622.25,444.38Z" style="fill: url(#g)"/>
    <path d="M622.16,441.83c-.08-1.91-.16-3.82-.27-5.73A54.74,54.74,0,0,0,622.16,441.83Z" style="fill: url(#h)"/>
    <path d="M613,440.53a6.47,6.47,0,0,0-.25,2,3.62,3.62,0,0,1,.72.06c.17-.62.36-1.24.58-1.86A5.69,5.69,0,0,0,613,440.53Z" style="fill: url(#i)"/>
    <path d="M623.65,450.22l-.09,0,.21.18,0-.05A2.09,2.09,0,0,1,623.65,450.22Z" style="fill: url(#j)"/>
    <path d="M625.31,448.26c-.06-.06-.1-.13-.16-.18l.23.06c2.81-5.19,7.54-4.55,12.4-3.4-3-2-4.7-4.64-7.79-2.52-1.85,1.28-3.34,4.55-5.35,5.43a4.31,4.31,0,0,0,0,.6l-.6-.39a2.92,2.92,0,0,0,.56-.21c-.16-2.92,2.5-3.07,3.85-4.17-1.36-1.22-2.5-.44-3.17.82a10.71,10.71,0,0,1-.6,1.84,5.52,5.52,0,0,1,.6-1.84,17.19,17.19,0,0,1,1.15-3.88c1.34-2.5,2.32-1.36,4.17-1.76-4.83-4.45-6.29,2.24-7.82,6.38a13.46,13.46,0,0,1-.66-3.21c0,.85.07,1.7.09,2.55a16.63,16.63,0,0,1,1,4.3c-2.09-3.36-5.9-7.15-9.23-8-.22.62-.41,1.24-.58,1.86a10.17,10.17,0,0,1,2.28,1,22.11,22.11,0,0,1,7.94,6.67,1.63,1.63,0,0,1,.19-.09,2,2,0,0,1-.05.26,1.56,1.56,0,0,0,.16.2l-.18-.15c-.23,1.66-1.49,2.66-1.84,4.33-.6,2.77.75,6,.55,8.59,1.1-3.66.32-11.18,2.8-14.25.84,1.1,1.1,2.72,1.54,4,.62,1.86,1.78,3.75,2.47,5.7-.63-3.81-1.36-8-3.91-10.5-.07.07-.17.1-.23.18C625.19,448.42,625.26,448.36,625.31,448.26Z" style="fill: url(#k)"/>
    <path d="M625.31,448.26a.27.27,0,0,0,.07.08l.2-.14-.2-.06A1.27,1.27,0,0,1,625.31,448.26Z" style="fill: url(#l)"/>
    <path d="M615.87,437.47a3.91,3.91,0,0,0-2.31,1.73,5,5,0,0,0-.6,1.33,5.69,5.69,0,0,1,1,.16A8.17,8.17,0,0,1,615.87,437.47Z" style="fill: url(#m)"/>
    <path d="M621.24,441.7c-.31-1.92-.68-3.56-2.52-4.15A14.4,14.4,0,0,1,621.24,441.7Z" style="fill: url(#n)"/>
    <path d="M618.72,437.55a2.06,2.06,0,0,0-1.36-.79,2.35,2.35,0,0,0-1.49.71,5.2,5.2,0,0,1,1.83-.15A4,4,0,0,1,618.72,437.55Z" style="fill: url(#o)"/>
    <path d="M613,440.53c-2-.1-3.77,1.12-4.65,4.58,1.39-2,2.69-2.82,4.4-2.62A6.47,6.47,0,0,1,613,440.53Z" style="fill: url(#p)"/>
    <path d="M612.71,442.49c0,.92.08,1.91,0,3.09.18-.8.42-1.89.72-3A3.62,3.62,0,0,0,612.71,442.49Z" style="fill: url(#q)"/>
    <path d="M629.91,442.06a7.27,7.27,0,0,0-1.34,1.28h0a1.9,1.9,0,0,0-2-.53,2.48,2.48,0,0,0-.85.68,0,0,0,0,0,0,0,11.81,11.81,0,0,1,.91-2.91c.9-1.68,1.62-1.66,2.6-1.62l1.87-.11-.35-.3c-1.31-1.21-2.45-1.68-3.47-1.44-2,.46-3.06,3.59-4,6.35l-.39,1.13a15.42,15.42,0,0,1-.57-2.92c-.09-2.26-.18-4.55-.18-4.55,0-.47,0-1-.06-1.43,0-.12,0-9.27,0-9.27,0-1.71,0-3.42,0-5.13l-.28-.08a0,0,0,0,1,0,0h0c-.21,2.1-.29,4.23-.29,6.36,0,2.69.15,5.38.3,8v.51c0,1.65,0,3.64.24,5.5,0,.89,0,1.12.07,1.8-.21-.59-.45-1.18-.7-1.75-.3-1.86-.71-3.55-2.52-4.21a2.31,2.31,0,0,0-1.51-.87,2.46,2.46,0,0,0-1.56.74,4,4,0,0,0-2.32,1.76,4.73,4.73,0,0,0-.57,1.3c-.16,0-.33-.05-.49,0-2,.15-3.46,1.73-4.21,4.69l.24.22c1.35-2,2.57-2.77,4.14-2.64,0,.25,0,.51,0,.78,0,.72,0,1.43,0,2.14l.27.13.09-.42c.16-.7.35-1.55.58-2.43a9.32,9.32,0,0,1,2.16.91,23.12,23.12,0,0,1,7.17,5.71,15.25,15.25,0,0,0-6.11-3.34c-4.41-.86-4.83,4.28-5.17,8.41l.27.15c2.79-6.64,6.08-8,10.61-4.4l-.35.09c-1.69.42-3.45.85-4.53,2.64a6.56,6.56,0,0,0-.84,3.59c0,.46,0,.93,0,1.4l.06,2.37.24-.48c.55-1.12,1.09-2.24,1.64-3.35,1.19-2.65,2.34-5.11,4.88-6l0,0a5.94,5.94,0,0,1-.85,2.08,6.52,6.52,0,0,0-1,2.12,7.75,7.75,0,0,0-.16,1.6,20.7,20.7,0,0,0,.38,3.4,19.52,19.52,0,0,1,.35,3.08,4.87,4.87,0,0,1,0,.54l.27.13a27.4,27.4,0,0,0,.72-5.36c.24-3.18.53-6.74,2-8.66a9.2,9.2,0,0,1,1.07,2.65l.33,1.12,1.27,2.92c.42.89.86,1.8,1.19,2.71,0,0,.58,3.19.58,3.19l.27,0c0-.09,0-.18,0-.27a9.06,9.06,0,0,0-.6-3c-.61-3.69-1.38-7.78-3.82-10.34l0,0c3.34.87,10.12,3.16,11.29,7.59h0l.26-.07h0c-.94-3.27-2.42-5.33-4.8-6.65-1.76-1-4.88-2.21-6.65-1.39,2.77-4.63,7.27-4.08,12-2.95l.05-.33L636,443.23C634,441.63,632.37,440.36,629.91,442.06Zm-8.17-14.13c0-.11,0-.21,0-.32s0-.16,0-.24Zm10.57,21.65a8.83,8.83,0,0,1,3.84,4.27c-2.16-3-6.76-4.8-10.09-5.7C627.77,447.52,630.65,448.66,632.31,449.58Zm-5.67-6.43a1.56,1.56,0,0,1,1.51.31l-1.09.62a5.57,5.57,0,0,0-1.91,1.31c.11-.34.22-.68.31-1A2.54,2.54,0,0,1,626.64,443.15Zm-4.54,1.21c0,.09,0,.3,0,.37a10.54,10.54,0,0,1-.5-1.72Q621.88,443.68,622.1,444.36Zm-1.2-3.72a16.18,16.18,0,0,0-1.54-2.62A3.65,3.65,0,0,1,620.9,440.64Zm-3.52-3.71a1.32,1.32,0,0,1,.69.26,3.79,3.79,0,0,0-.38-.06,6.15,6.15,0,0,0-1.06,0A2,2,0,0,1,617.38,436.93Zm-1.47.72a5.16,5.16,0,0,1,1.81-.16,4.52,4.52,0,0,1,1,.25c.12.13.24.23.37.39a17.23,17.23,0,0,1,2,3.62.43.43,0,0,1,0,.11,12.51,12.51,0,0,0,1.06,3.82l.28.52s0-.85,0-.87a15.94,15.94,0,0,1,.64,2.86c-2.25-3.42-5.79-6.69-8.86-7.57A7.83,7.83,0,0,1,615.91,437.65Zm-2.23,1.68a4,4,0,0,1,1.58-1.46,10.3,10.3,0,0,0-1.35,2.63,5.77,5.77,0,0,0-.71-.1A4.54,4.54,0,0,1,613.68,439.33Zm-1.11,2.92c-1.44-.13-2.61.52-3.8,2,.77-2.2,2-3.44,3.68-3.56a2.64,2.64,0,0,1,.28,0A7.1,7.1,0,0,0,612.57,442.25Zm.28,2c0-.39,0-.82,0-.82,0-.29,0-.55,0-.82l.39.07C613.09,443.23,613,443.75,612.85,444.25Zm.47-1.89-.47-.09a6.48,6.48,0,0,1,.2-1.53,4.87,4.87,0,0,1,.75.07C613.62,441.33,613.46,441.84,613.32,442.36Zm5.14,13.92-1.4,2.83c0-.51,0-1.11,0-1.11,0-.48,0-.94,0-1.4a6.21,6.21,0,0,1,.79-3.38c1-1.7,2.75-2.13,4.4-2.54l.3-.07C620.55,451.78,619.5,453.94,618.46,456.28Zm4.6-6-.17-.14c-5.9-4.93-9-1-11,3.48.34-3.94,1-8,4.82-7.22,2.14.41,4.7,2.11,6.54,3.77C623.2,450.24,623.14,450.29,623.06,450.32Zm2.24-2.38-.16,0-.07.32s0,0,0,0-.06.09-.08.14l.22.26s.08-.05.12-.08c2.15,2.18,3,5.63,3.56,9-.24-.54-.49-1.07-.74-1.59-.41-.95-.82-1.91-1.24-2.87-.11-.36-.22-.73-.32-1.09a8.7,8.7,0,0,0-1.26-3l-.11-.14-.09.11c-1.57,2-1.86,5.71-2.11,9a39.25,39.25,0,0,1-.49,4.15c0-.79-.14-1.59-.28-2.45a21.21,21.21,0,0,1-.37-3.33,6.85,6.85,0,0,1,.15-1.51,6.41,6.41,0,0,1,.91-2,6.54,6.54,0,0,0,.88-2.11l0,0,.17-.25a1.27,1.27,0,0,0-.11-.13c0-.07,0-.11.05-.18v-.28l-.2.06s-.08.05-.12.06a22.56,22.56,0,0,0-7.93-6.63,9.87,9.87,0,0,0-2.14-.9c.14-.52.3-1,.48-1.55,3.14.84,6.85,4.32,9.06,7.85l.24.38v-.47a17,17,0,0,0-1-4.38c0-.13,0-.34,0-.51.11.44.2.91.34,1.29l.14.36.12-.32.53-1.52c.93-2.7,2-5.75,3.84-6.19a3.46,3.46,0,0,1,2.87,1.08l-1,.06c-1,0-1.84-.07-2.8,1.74a11.69,11.69,0,0,0-1,3c-.06.28-.13.56-.2.84a5.64,5.64,0,0,0-.62,1.94l.09.06a3.24,3.24,0,0,0-.22,1.19c0,.05,0,.12,0,.17a2.72,2.72,0,0,1-.44.18l.09.36a3.08,3.08,0,0,0,.38-.16c0,.13,0,.24,0,.37l.27,0a3.58,3.58,0,0,1,0-.45,4.86,4.86,0,0,0,1.06-.7A7.87,7.87,0,0,0,625.3,447.94Zm-.56-.55c0-1.8,1.25-2.39,2.46-3l.93-.53-.59.72A9.58,9.58,0,0,1,624.74,447.39Zm2.7-2.1.32-.4a12.32,12.32,0,0,1,2.31-2.51c2.34-1.6,3.87-.39,5.82,1.15l1.17.87C633.46,443.59,630.05,443.23,627.44,445.29Z"/>
    <path d="M762.11,758c-2.37-2.89-4.29-7.22-6.38-10.47-3.07-4.78-6.08-8.81-8.67-13.91-7.74-15.21-20.38-20.77-32.56-30.08-7.32-5.59-14.21-11.32-20.53-18.56-4.4-5.05-7.89-11.46-12.3-16.43-4.29-4.81-9.7-7.11-14.21-11.31-5.25-4.89-10-10.72-15.39-15.51-4-3.56-8.18-6.89-12.42-10.11-3.7-2.81-10.09-10-13.75-8-3.87-.85-7.62-2.05-10.3,1.19-3.26,3.92-2.08,6-7.44,5.19-4.4-.65-8.69-2.07-12.9-1.16-4,.86-6.61,4.08-9.8,6.48-3.76,2.83-7.94,5-11.55,8.21-2.88,2.58-4.17,6.4-6.91,9.41-3.43,3.77-7.83,9.68-12,11.81-4.62,2.37-12.25,2.78-17.57,3.63-4,.63-8.33-1.59-11.79.85s-6.4,7.06-9.46,10.33c-6.72,7.2-15.89,15.92-25.53,15.9-1.07,2.31-2.39,4.23-3,7.07-.7,3.34-.53,2.57.16,6.07,1,5.09-3.83,20.24.73,20.71,7.33-1.61,269.35,57.83,279.12,56.85,1.2-4.2-.17-9.58-.35-14.21C767,764.08,766.73,763.62,762.11,758Z" style="fill: #814115"/>
    <path d="M767.6,772c-.3-7.93-.66-8.55-5.32-14.23a43,43,0,0,1-4-6.35c-.77-1.39-1.57-2.83-2.38-4.09s-1.72-2.62-2.56-3.89a95.58,95.58,0,0,1-6.09-10c-6-11.78-14.82-17.77-24.19-24.19-2.78-1.9-5.66-3.87-8.48-6a135,135,0,0,1-20.47-18.51,90.86,90.86,0,0,1-6-8,88.88,88.88,0,0,0-6.32-8.42,42.61,42.61,0,0,0-8.07-6.62,52.12,52.12,0,0,1-6.16-4.71c-2.43-2.27-4.81-4.78-7.11-7.21-2.66-2.82-5.41-5.73-8.29-8.31-3.43-3.07-7.27-6.2-12.44-10.13-.83-.63-1.81-1.5-2.86-2.42-3.61-3.19-8.11-7.17-11.08-5.63l-.89-.2c-3.62-.85-7-1.6-9.54,1.48a19.66,19.66,0,0,0-2,3c-1.11,1.91-1.57,2.69-5.24,2.16-1.12-.17-2.26-.39-3.35-.6-3.17-.61-6.45-1.24-9.62-.55-3,.63-5.21,2.58-7.39,4.46-.8.69-1.63,1.41-2.49,2.05-1.49,1.12-3.08,2.16-4.62,3.17a55.65,55.65,0,0,0-6.94,5.05,22,22,0,0,0-3.85,5.08,28.42,28.42,0,0,1-3.08,4.35c-.76.84-1.57,1.78-2.42,2.77-3,3.45-6.31,7.36-9.51,9-3.53,1.81-8.85,2.47-13.53,3.06-1.41.18-2.76.36-4,.55a17.33,17.33,0,0,1-4.6-.11c-2.49-.27-5.07-.55-7.27,1a34.66,34.66,0,0,0-6.34,6.63c-1.08,1.33-2.1,2.6-3.15,3.73-6.89,7.37-16,15.85-25.37,15.83h-.14l-.07.15c-.29.62-.6,1.21-.9,1.8a20.6,20.6,0,0,0-2.12,5.34c-.57,2.75-.58,2.83-.17,4.68.09.41.2.91.33,1.57.37,1.84-.09,5.27-.54,8.58-.62,4.62-1.26,9.39,0,11.43a2,2,0,0,0,1.54,1c3.54.12,66,11.82,132.15,26.75,37.79,8.33,76.27,16.74,104.42,22.28,23.82,4.73,40.24,7.55,42.56,7.82l.18,0a1.42,1.42,0,0,1,.07-.22c.84-3,.45-6.48.06-9.87C767.82,774.87,767.66,773.39,767.6,772Zm-.13,13.8c-6.45-.47-77.77-14.44-146.76-30.08-36.7-8.1-72.27-15.67-97.27-20.46-20.06-3.88-33.32-6.11-34.91-6.29a1.48,1.48,0,0,1-1.1-.7c-1.09-1.75-.44-6.57.13-10.82.48-3.53.93-6.88.53-8.88-.13-.66-.24-1.17-.33-1.59-.37-1.68-.37-1.68.17-4.3a19.65,19.65,0,0,1,2.05-5.15c.29-.56.58-1.11.85-1.69,9.5-.06,18.64-8.57,25.55-16,1.07-1.14,2.14-2.47,3.17-3.76,2-2.43,4-5,6.25-6.53,2.07-1.46,4.46-1.21,7-.93a18.14,18.14,0,0,0,4.71.11c1.23-.2,2.57-.37,4-.55,4.73-.6,10.08-1.26,13.67-3.1,3.28-1.67,6.66-5.62,9.65-9.1.84-1,1.65-1.92,2.41-2.76a29.08,29.08,0,0,0,3.14-4.43,21.36,21.36,0,0,1,3.75-5,56.32,56.32,0,0,1,6.9-5c1.54-1,3.13-2,4.64-3.18.87-.65,1.7-1.37,2.51-2.07,2.24-1.93,4.35-3.76,7.21-4.37,3.09-.67,6.18-.07,9.45.56,1.1.21,2.24.43,3.37.6,4,.57,4.53-.42,5.68-2.39a19.26,19.26,0,0,1,1.95-2.88c2.38-2.87,5.65-2.13,9.12-1.33L626,624l.07,0c2.69-1.48,7.08,2.39,10.6,5.5,1.06.93,2.05,1.8,2.9,2.45,5.16,3.92,9,7,12.4,10.1,2.86,2.55,5.6,5.46,8.25,8.26,2.31,2.44,4.69,5,7.13,7.24a51.9,51.9,0,0,0,6.24,4.77,41.56,41.56,0,0,1,7.94,6.52,86.22,86.22,0,0,1,6.26,8.33,92.43,92.43,0,0,0,6,8.09,135.45,135.45,0,0,0,20.59,18.62c2.83,2.16,5.72,4.14,8.51,6,9.28,6.36,18,12.3,23.93,23.88A96.17,96.17,0,0,0,753,743.83c.84,1.26,1.69,2.54,2.56,3.87s1.54,2.6,2.34,4a43.91,43.91,0,0,0,4.06,6.48c4.55,5.55,4.82,5.87,5.12,13.68.05,1.46.23,3,.4,4.54C767.81,779.67,768.19,783,767.47,785.76Z"/>
    <path d="M619.25,623.66c-2.92,1.06-3.78,5.08-6.28,6.39-3.22,1.68-7.36-.84-10.94-1-6.84-.28-10.94,5.15-16.22,9.09-2.38,1.77-5.42,1.87-7.83,3.52-3,2.08-5.56,5.83-8.32,8.32-3.22,2.89-4.53,5.74-6.9,9.72s-5.43,4.58-9.31,5.3c-7.13,1.31-15.15.69-22,2.58s-13.91,9-18.57,15.19c-5.29,7-12.31,7.62-18.35,13.54a15,15,0,0,0-4.8,9.26c-.49,3.62-1.7,13.66.41,16.37-.13-1.21-.27-2.42-.4-3.63.51,5.46,4.53,9.47,8.8,10.22,6.72,1.17,7.76-4.36,10.54-9.79,1.77-3.47,4.65-8.1,7.92-9.28,3.72-1.34,8.91.54,8.89-6.73,2,2,3.82,4,6.69,5.23,1.84-5-3.49-12.84,1.78-14.72,3-1.07,6.48,3.28,9.45,2.83,1.43-.22,1.73-2,3-2.39,2.76-.89,6.89,1.36,9.62.28,1.7-.68,3.4-2.55,4.64-4.14s2.49-5.91,4.09-6.71c3-1.5,14.5,8.22,14.79,3.25-3.47-1-10.6-10.85-4.42-11.26-.2-5.82,9.61-2.6,13.18-2.78.7-3-.27-10.25-1.06-13.24,1.65.21,4.48,1.58,6,1.18,1.76-.45,1.39-2.16,2.88-2.94,4.18-2.2,5.41-.34,5.52-7.94.07-4.55.45-10.61,3.51-13.1,3.33-2.71,7.91-.95,8.94,4.36,3.09,16-7.6,20.52-13.16,29.51-1.87,3-1.42,4.24-4.6,5.51-2.17.87-4.8.39-6.89,1.44s-6.62,3.8-7.74,5.7c-1.77,3-.33,7.51-1.31,11.29-1.06,4-3.68,5.63-6.8,6.8-4.41,1.65-11.08,2.57-14.88,5.55-2.74,2.15-5.08,5.59-8.08,7.82-3.57,2.65-9.77,4-12.67,7.22-.82.91-1.36,3.75-2.27,5-1.13,1.59-2.74,1.84-3.34,4-1.59,5.83,2.45,5.16,5.91,5.64a51.55,51.55,0,0,1,11.25,3.28,148.06,148.06,0,0,0,23.65,6.45c2.91.56,7.4-.13,7.23-4.68-.26-6.86-6.37-5.13-9.59-6.57-.43-5.51,5.07-6.76,8.48-6.26a12.92,12.92,0,0,1,6.33,2.47c1.89,1.61,2.73,4.7,4.73,5.44,1.72-6.09-1.67-10.64,1.38-15.79,3.93-6.62,10.71-9.22,13.51-16.1,3-7.29,6.07-11.65,12-15,1-.57,4.48-2.09,3.71-4.41-.61-1.87-5.34-2.38-6.78-4.08-.28-4.86,7.14-2.84,8.37-7.73,1.12-4.51-.39-11.24,3.7-13.84,2.28-1.45,9.2,1.54,5.92-4-2.92-4.91-8.3-2.27-8.43-10.37-.11-6.84,2.83-6.72,7.13-6.58,3.62.12,9.35-.47,6.18-6.26C634.44,626.76,623.61,622.07,619.25,623.66Z" style="fill: #520"/>
    <path d="M685.38,725c-5.19-3.54-4.53-3.58-6.5-10-1.13-3.71-4.56-9.21-7.79-6.36,2.1,3.1,8.61,16.1,1.68,15.24-4.75-.6-5.29-12.41-6-16.18-.65-3.3-.78-7.21-2.43-10.25-2.25-4.13-4-2.61-7.52-5.29-6.18-4.71-9-19.44-17.43-17.52l-.82-.18c-2.47,3.38-.22,6.53,2.53,8.61,4.89,3.7,9.56,6.28,13.37,12.25s4.93,11.44,6,18.2c1,6.24,4.32,13.9,9.48,16.79,4,2.23,9.42,1.77,13.5,2.45,3.11.52,6.57,2.3,6.6-1.79S687.51,726.44,685.38,725Z" style="fill: #520"/>
    <path d="M591.63,743.62l0,0c0-.16,0-.31,0-.46Z" style="fill: #520"/>
    <path d="M622.62,736c-1.21,1.48-5.28,6.16-6.91,6.71-7,2.31-21.07-11.5-24.06.84a9.57,9.57,0,0,0,.05,1.51c3.9,2.23,7.24,5,11.69,5.18a17.23,17.23,0,0,0,5.89-.67c1.16-.41,1.58-1.87,2.72-2.11,5.2-1.13,7.71,1.38,12.24-2.84,3.69-3.45,6.57-9.14,3.57-16.19C625,729,624.35,733.88,622.62,736Z" style="fill: #520"/>
    <path d="M658.22,754c-4.14-.89-11.56-.73-15.3-4.35-6-5.76,7.46-15.63-2.29-21.43-2.73,3.2-.94,8.82-1.69,13.19-.79,4.61-4.13,6.66-4.08,12.12V754a13.84,13.84,0,0,0,.06,3A177,177,0,0,0,657.28,762c1.76.25,4.49,1.22,6.12.81,2.18-.56,1.39-1.28,2.73-2.1,1.94-1.17,6.31-1.8,5.46-5.81C667.35,753.88,662.86,755,658.22,754Z" style="fill: #520"/>
    <path d="M481.19,478V720.61c0,9.47,6,18.15,13.39,19.47,88.75,15.82,177.5,38.6,266.25,54.65,7.39,1.34,13.39-5.31,13.39-14.78V304.58c-97.68-16.88-195.35-42.74-293-59.34Zm7.16,190V256.11c92.9,16.2,185.81,40.39,278.71,56.85V769.73c0,9.1-5.71,15.47-12.74,14.17C669.91,768.33,585.5,747,501.09,731.62c-7-1.28-12.74-9.64-12.74-18.74Z" style="fill: url(#r)"/>
    <path d="M480.07,243.63V720.42c0,10.24,6.51,19.66,14.51,21.09,88.75,15.81,177.5,38.59,266.25,54.64,8,1.45,14.51-5.77,14.51-16V303.35l-1.12-.19C676.17,286.21,578.12,260.21,480.07,243.63Zm293,536.13c0,8.66-5.5,14.77-12.27,13.54-88.75-16-177.5-38.83-266.25-54.64-6.77-1.21-12.27-9.19-12.27-17.86V246.86c2.2-2.45,288.59,61.16,290.79,59Z"/>
    <path d="M487.24,254.49V712.68c0,9.88,6.21,19,13.85,20.37,84.41,15.36,168.82,36.71,253.23,52.28,7.64,1.41,13.85-5.53,13.85-15.4V311.74l-1.11-.2C673.78,295,580.51,270.69,487.24,254.49Zm278.7,515.05c0,8.29-5.21,14.12-11.62,12.94-84.41-15.57-168.82-36.93-253.23-52.28-6.41-1.17-11.62-8.83-11.62-17.13V257.73c2.21-2.05,274.27,58.28,276.47,56.46Z"/>
    <path d="M632.84,327.85l-5.13-14.7q-2.58,6.23-5.14,12.45l-11.69-.49q4.25,6.15,8.51,12.29-1,7.2-2.09,14.39l10.41-4.86,10.4,9.39Q637.06,348.67,636,341q4.26-4.29,8.51-8.59Z" style="fill: #ffdb00"/>
    <path d="M644.61,331.75l-11.39-4.48-5-14.32-1-.22-5,12.14-11.39-.48-.31,1.15,8.3,12q-1,7-2,14l.81.93,10.14-4.73,10.13,9.16.82-.58-2-14.91,8.3-8.37C644.82,332.61,644.71,332.18,644.61,331.75Zm-9.19,8.9q1,7.1,1.93,14.18l-9.64-8.71-9.65,4.51q1-6.67,1.93-13.35l-7.9-11.4,10.85.46,4.77-11.55q2.37,6.81,4.76,13.63l10.84,4.26Z"/>
    <path d="M627.71,380.5c-51.2-11.31-90.84-33.29-108.17-50.74q-9.74,14.52-19.48,29.14c17.53,19.79,57.59,44.15,127.65,58.79,70,16.27,110.11,7.39,127.64-6.13q-9.74-18.18-19.48-36.46C718.54,386,678.9,391.73,627.71,380.5Z" style="fill: #f2f2f2"/>
    <path d="M736,374.17l-.44.28c-23.58,14.86-71.16,13.39-107.86,5.34s-84.3-26.86-107.87-50.57l-.43-.44q-10.06,15-20.14,30.12l.46.51c10.67,12.11,44.53,41.58,128,59l5,1.12c79.84,17.56,112.53.67,123-7.33l.45-.35q-9.9-18.48-19.81-37.08C736.21,374.57,736.11,374.37,736,374.17Zm-103.3,43.92q-2.48-.54-5-1.12c-1.69-.35-3.35-.7-5-1.06-78.37-17.22-111-45-121.85-57q9.4-14.13,18.82-28.16c16.12,15.94,53.86,38.51,108,50.47s91.91,4.69,108-5.18q9.4,17.67,18.82,35.24C743.72,419.32,711.09,435.34,632.71,418.09Z"/>
    <path d="M648.36,233.38c-2.53-.55-4.59,1.63-4.59,4.86s2.06,6.31,4.59,6.86,4.59-1.62,4.59-4.86S650.89,233.93,648.36,233.38Z" style="fill: #1a171b"/>
    <path d="M728.57,250.18c-2.54-.49-4.59,1.72-4.59,5s2,6.27,4.59,6.77,4.58-1.73,4.58-5S731.1,250.68,728.57,250.18Z" style="fill: #1a171b"/>
    <path d="M510,184.41l.94.18a3.08,3.08,0,0,1,1.88,1.09,4.56,4.56,0,0,1,.93,1.9,32.26,32.26,0,0,1,.22,5v33.69a29.65,29.65,0,0,1-.21,4.74,2.86,2.86,0,0,1-.85,1.66,2.21,2.21,0,0,1-2,.43l-.95-.18v1.34q7.37,1.38,14.72,2.8v-1.33l-.93-.19a3,3,0,0,1-1.86-1.09,4.86,4.86,0,0,1-.93-1.91,28.48,28.48,0,0,1-.25-5V193.85a26.41,26.41,0,0,1,.23-4.74,3.23,3.23,0,0,1,.85-1.66,2.24,2.24,0,0,1,2-.42l.93.18v-1.33q-7.35-1.42-14.71-2.81Z" style="fill: #1a171b"/>
    <path d="M547.09,235.34a6.2,6.2,0,0,1-6.38,2L539,237a2.8,2.8,0,0,1-1.76-1,4.07,4.07,0,0,1-.76-1.7,36.07,36.07,0,0,1-.21-5.21V214.73a5.56,5.56,0,0,1,3.16,1.59,10.15,10.15,0,0,1,1.9,4.12,36.89,36.89,0,0,1,1.08,7.37l.7.14V201.21l-.7-.14a26.54,26.54,0,0,1-1.56,8.67q-1.25,2.81-4,2.26l-.61-.12V191.11h0l3,.6a11.71,11.71,0,0,1,4.44,1.57,10.05,10.05,0,0,1,3.12,4.13,30.59,30.59,0,0,1,1.71,8.21l.7.14v-15q-11.85-2.42-23.72-4.73v1.34l1,.18a3.26,3.26,0,0,1,2.17,1.49,5.27,5.27,0,0,1,.77,2.2c.06.54.09,2,.09,4.3v33.7a29.65,29.65,0,0,1-.21,4.74,2.83,2.83,0,0,1-.85,1.65,2.17,2.17,0,0,1-2,.41l-1-.18v1.34q12.24,2.37,24.47,4.88.65-8,1.27-16l-.76-.15Q549.5,232.53,547.09,235.34Z" style="fill: #1a171b"/>
    <path d="M572.59,197a4.27,4.27,0,0,1,3.32,2.82,19.32,19.32,0,0,1,.73,6.41v21.87l-13.88-34.5-10-2.07v1.34a3.84,3.84,0,0,1,2,1.13,11.82,11.82,0,0,1,1.6,3l.57,1.4v36.18c0,2.75-.31,4.62-.92,5.64s-1.71,1.37-3.27,1.08v1.34l10.12,2.09V243.4l-.69-.14a4.19,4.19,0,0,1-2.59-2.1c-.74-1.2-1.12-3.28-1.12-6.25V202.17q9.52,23.39,19,46.81l.71.15V206.52a26.12,26.12,0,0,1,.33-5.07,3.69,3.69,0,0,1,1-2,4,4,0,0,1,2.4-.57v-1.33l-9.28-2Z" style="fill: #1a171b"/>
    <path d="M604.32,247.42a6.12,6.12,0,0,1-6.38,1.93l-1.69-.37a2.89,2.89,0,0,1-1.77-1,4.16,4.16,0,0,1-.75-1.71,36.35,36.35,0,0,1-.21-5.22V226.64a5.77,5.77,0,0,1,3.16,1.65,10.46,10.46,0,0,1,1.89,4.15,36.22,36.22,0,0,1,1.09,7.38l.69.16V213.23l-.69-.15a26.3,26.3,0,0,1-1.57,8.65c-.82,1.86-2.15,2.59-4,2.19l-.6-.13V203h0l3,.65A11.75,11.75,0,0,1,601,205.3a10.11,10.11,0,0,1,3.12,4.18,30.7,30.7,0,0,1,1.72,8.23l.69.15v-15q-11.85-2.58-23.71-5.11v1.34l.94.2a3.37,3.37,0,0,1,2.18,1.53,5.52,5.52,0,0,1,.77,2.21c.05.54.08,2,.08,4.31v33.69a31.6,31.6,0,0,1-.2,4.74,2.76,2.76,0,0,1-.86,1.63,2.14,2.14,0,0,1-2,.38l-.94-.2V249q12.22,2.61,24.47,5.27.63-8,1.27-16l-.76-.17Q606.71,244.64,604.32,247.42Z" style="fill: #1a171b"/>
    <path d="M622.91,225.84a62.64,62.64,0,0,1-4.5-5.38,16.51,16.51,0,0,1-1.93-3.92,10.81,10.81,0,0,1-.42-3.1A7.67,7.67,0,0,1,617.3,209a3,3,0,0,1,3.37-1.32q2.75.6,5.11,5a28.85,28.85,0,0,1,3,10.93l.84.18-.21-17.07h0l-.63-.14a9.56,9.56,0,0,1-.61,2.75.72.72,0,0,1-.84.41,5.76,5.76,0,0,1-2-1.64,15.16,15.16,0,0,0-2.38-2.18,7.67,7.67,0,0,0-2.65-1.18q-3.76-.82-6.24,2.94t-2.48,9.86a24.57,24.57,0,0,0,.9,6.75,23.86,23.86,0,0,0,2.57,5.95,50.54,50.54,0,0,0,5.5,7,35.23,35.23,0,0,1,3.83,4.81,14.47,14.47,0,0,1,1.6,3.57,12.54,12.54,0,0,1,.54,3.61,8.75,8.75,0,0,1-1.39,5.05,3.36,3.36,0,0,1-3.73,1.48c-2-.44-3.88-2.26-5.63-5.48s-2.93-7.57-3.55-13.1l-.7-.15V256.3l.7.15a4.75,4.75,0,0,1,1-2.13,1.23,1.23,0,0,1,1.14-.52,3.85,3.85,0,0,1,1.65,1.12,20.51,20.51,0,0,0,3,2.51,7.91,7.91,0,0,0,2.55,1.05q4.26.93,7-3.08T631.34,245a24.85,24.85,0,0,0-1.73-9.35A36,36,0,0,0,622.91,225.84Z" style="fill: #1a171b"/>
    <path d="M684.86,262.17a8.65,8.65,0,0,1-2.58,4,4.4,4.4,0,0,1-3.73.65l-2.34-.5a6.53,6.53,0,0,1-2.5-.87,3.37,3.37,0,0,1-1-1.82,30.23,30.23,0,0,1-.25-5.06V226a25.77,25.77,0,0,1,.24-4.73,3.08,3.08,0,0,1,.87-1.64,2.26,2.26,0,0,1,2-.36l1.26.27v-1.34l-15.14-3.25v1.34l.95.2a3.16,3.16,0,0,1,1.88,1.15,4.7,4.7,0,0,1,.93,1.92,32.26,32.26,0,0,1,.22,5v33.7a25.85,25.85,0,0,1-.24,4.73,2.65,2.65,0,0,1-.82,1.64,2.14,2.14,0,0,1-2,.37l-.95-.2v1.34q12.53,2.7,25,5.35.53-8.9,1-17.79h0l-.9-.19A48.73,48.73,0,0,1,684.86,262.17Z" style="fill: #1a171b"/>
    <path d="M714.32,266.89q-5.12-22-10.22-44l-.39-.08-10.14,38.67a33.41,33.41,0,0,1-2.41,7.24,3.12,3.12,0,0,1-2.49,1.76v1.34l9.38,2v-1.34a6.25,6.25,0,0,1-2.77-1.48,5.41,5.41,0,0,1-.95-3.38,17.3,17.3,0,0,1,.59-4c.41-1.57.83-3.14,1.24-4.71l9.93,2.06,1.53,6.67c.39,1.75.6,2.74.62,3a9.09,9.09,0,0,1,.12,1.43,2.58,2.58,0,0,1-.44,1.66,2.47,2.47,0,0,1-2.33.35l-.57-.11v1.34q6.86,1.41,13.69,2.78v-1.34a3.58,3.58,0,0,1-2-1.76A40,40,0,0,1,714.32,266.89Zm-17.47-10.65,4.35-16.6q2.12,9.2,4.22,18.37C702.56,257.43,699.7,256.83,696.85,256.24Z" style="fill: #1a171b"/>
    <path d="M745.35,245.87l.7.13q.48-5.56,2.32-8.26,1.32-1.94,4.24-1.39l2.09.39v39.48a25.91,25.91,0,0,1-.24,4.74,2.89,2.89,0,0,1-.84,1.67,2.19,2.19,0,0,1-2,.43l-.94-.17v1.33q7.37,1.38,14.72,2.69v-1.34l-.93-.16a3,3,0,0,1-1.87-1.08,5.06,5.06,0,0,1-.93-1.89,30,30,0,0,1-.24-5V238l2.09.38a5.2,5.2,0,0,1,2.81,1.18,10.59,10.59,0,0,1,2.26,3.73,36.59,36.59,0,0,1,1.48,7.12l.7.13V236.69q-12.72-2.22-25.46-4.64Z" style="fill: #1a171b"/>
    <path d="M805.16,266.46q-4.3-7-8.61-14l-.79.75a8.42,8.42,0,0,1,1.38,3.24,3.79,3.79,0,0,1-.36,2,15.44,15.44,0,0,1-2.9,3.24Q784,271,774.17,280.25a14.11,14.11,0,0,1-3.26,2.57,2.22,2.22,0,0,1-1.67-.12,7,7,0,0,1-2.16-2.57c-.26.25-.52.5-.79.74l9.55,15.75.79-.74a8.49,8.49,0,0,1-1.37-3.25,3.7,3.7,0,0,1,.35-2,15.4,15.4,0,0,1,2.9-3.2l8.54-8,1.19,1.95q-3.91,11.42-7.84,22.79l5.81,9.54.84-.8a5.15,5.15,0,0,1-.54-2.83,27.59,27.59,0,0,1,1.23-4.36q2.91-8.48,5.83-17a8.25,8.25,0,0,0,4.7,2.32c2.44.21,4.77-.74,7-2.87a13.89,13.89,0,0,0,3.8-6.17,12.62,12.62,0,0,0,.26-6.79A33.78,33.78,0,0,0,805.16,266.46Zm-.36,8a12.89,12.89,0,0,1-4.1,6.46,10.49,10.49,0,0,1-4.39,2.77,4.19,4.19,0,0,1-3.51-.47,13.22,13.22,0,0,1-3.4-4.1l-.77-1.26q6.58-6.22,13.18-12.5c.48.78,1,1.57,1.45,2.35A9.21,9.21,0,0,1,804.8,274.47Z" style="fill: #1a171b"/>
    <path d="M803.32,532c-2.54-.39-4.59,1.92-4.59,5.15s2,6.19,4.59,6.57,4.59-1.93,4.59-5.16S805.85,532.4,803.32,532Z" style="fill: #1a171b"/>
    <path d="M800.26,653.66c-2.53-.39-4.59,1.91-4.59,5.15s2.06,6.18,4.59,6.58,4.59-1.92,4.59-5.16S802.79,654.06,800.26,653.66Z" style="fill: #1a171b"/>
    <path d="M803.32,800.25c-2.54-.39-4.59,1.91-4.59,5.15s2,6.18,4.59,6.57,4.59-1.93,4.59-5.17S805.85,800.63,803.32,800.25Z" style="fill: #1a171b"/>
    <path d="M783.26,307a6.36,6.36,0,0,1-1.79-3.49l-1.05-.17v12l1.05.18a8.36,8.36,0,0,1,.71-3.42,2.37,2.37,0,0,1,2.49-.8,11.43,11.43,0,0,1,3.24,1.29l3.88,2.21v12.69l-5,1.15a21.72,21.72,0,0,1-2.22.42,4,4,0,0,1-1.1,0,2,2,0,0,1-1.37-.8,5.62,5.62,0,0,1-.65-3.08v-.72l-1.05-.18v17.49l1.05.18a3.31,3.31,0,0,1,1.06-2.38c.82-.67,2.78-1.36,5.9-2.08q16.41-3.85,32.8-8.09v-.5q-16-8.69-31.91-17.78A29.78,29.78,0,0,1,783.26,307ZM794,316q6.85,3.87,13.7,7.68-6.84,1.67-13.7,3.27Z" style="fill: #1a171b"/>
    <path d="M818.91,351.46a2.27,2.27,0,0,1-1.36,1.09,13.44,13.44,0,0,1-4.13-.23q-13-1.87-25.95-4a14.47,14.47,0,0,1-4.12-1.05,3.63,3.63,0,0,1-1.36-1.5,8.36,8.36,0,0,1-.52-3.53l-1.05-.17v18.35q0,7.71,3.57,12.3a11.49,11.49,0,0,0,7.46,4.51,7.73,7.73,0,0,0,7-1.87c1.25-1.19,2.33-3.43,3.21-6.71q1.33,4.94,3.6,7.16a9.08,9.08,0,0,0,5.16,2.65,8.93,8.93,0,0,0,5.19-.73,7.67,7.67,0,0,0,3.66-3.56c.82-1.61,1.23-4.47,1.23-8.6V348.24l-1.05-.14A7.22,7.22,0,0,1,818.91,351.46Zm-19.62,13.22a5.38,5.38,0,0,1-3.12,2.75,9.67,9.67,0,0,1-5,.39,11.46,11.46,0,0,1-4.42-1.69,8.6,8.6,0,0,1-3-3.29,8.73,8.73,0,0,1-1.05-4.12,2.4,2.4,0,0,1,.8-2,3.05,3.05,0,0,1,2.38-.35l1.46.24q6.44,1.08,12.87,2.1A14.68,14.68,0,0,1,799.29,364.68Zm18.08,2.23a5.14,5.14,0,0,1-2.6,2.33,8.44,8.44,0,0,1-4.37.3,10,10,0,0,1-4.39-1.61,8.31,8.31,0,0,1-2.67-3.17,13.65,13.65,0,0,1-1-5.75q7.92,1.25,15.84,2.38A12.21,12.21,0,0,1,817.37,366.91Z" style="fill: #1a171b"/>
    <path d="M783.26,380.2a6.36,6.36,0,0,1-1.79-3.48l-1.05-.18v12l1.05.18a8.36,8.36,0,0,1,.71-3.42,2.35,2.35,0,0,1,2.49-.79,11.06,11.06,0,0,1,3.24,1.28l3.88,2.21v12.69l-5,1.15a16.78,16.78,0,0,1-2.22.42,4,4,0,0,1-1.1,0,2.07,2.07,0,0,1-1.37-.79,5.69,5.69,0,0,1-.65-3.09v-.72l-1.05-.17v17.49l1.05.17a3.31,3.31,0,0,1,1.06-2.38c.82-.67,2.78-1.36,5.9-2.08q16.41-3.84,32.8-8.09v-.49q-16-8.7-31.91-17.79A29.78,29.78,0,0,1,783.26,380.2Zm10.69,9q6.85,3.87,13.7,7.68-6.84,1.68-13.7,3.27Z" style="fill: #1a171b"/>
    <path d="M819.42,429.4a4.19,4.19,0,0,1-.58,2.37,2.4,2.4,0,0,1-1.35,1,14.05,14.05,0,0,1-3.86-.24q-10.73-1.56-21.43-3.28a54.67,54.67,0,0,1-7.64-1.55,4.41,4.41,0,0,1-2-1.38,3.16,3.16,0,0,1-.65-2,3.43,3.43,0,0,1,.83-2.48,1.4,1.4,0,0,1,1.33-.45,5,5,0,0,1,1.7,1c.8.6,1.3.95,1.5,1.06a5.64,5.64,0,0,0,1.45.42,3.52,3.52,0,0,0,2.84-.63,3,3,0,0,0,1.16-2.53,4.29,4.29,0,0,0-1.29-3,5.73,5.73,0,0,0-3.35-1.69,6.88,6.88,0,0,0-5.89,1.82q-2.65,2.36-2.66,6.91a12.68,12.68,0,0,0,1.76,6.65,12,12,0,0,0,4.37,4.4,26.53,26.53,0,0,0,8.37,2.39q9.81,1.57,19.61,3a14.25,14.25,0,0,1,3.75.84,3.7,3.7,0,0,1,1.42,1.25,5.12,5.12,0,0,1,.62,2.65v1.16l1.05.15V428l-1-.15Z" style="fill: #1a171b"/>
    <path d="M783.26,444.21a6.36,6.36,0,0,1-1.79-3.49l-1.05-.17v12l1.05.18a8.47,8.47,0,0,1,.71-3.43,2.39,2.39,0,0,1,2.49-.79,10.86,10.86,0,0,1,3.24,1.29l3.88,2.21v12.69l-5,1.15a21.72,21.72,0,0,1-2.22.42,4,4,0,0,1-1.1,0,2,2,0,0,1-1.37-.8,5.62,5.62,0,0,1-.65-3.08v-.72l-1.05-.18v17.49l1.05.18a3.34,3.34,0,0,1,1.06-2.39c.82-.66,2.78-1.35,5.9-2.07q16.41-3.86,32.8-8.09v-.5q-16-8.69-31.91-17.78A29.78,29.78,0,0,1,783.26,444.21Zm10.69,9q6.85,3.87,13.7,7.68-6.84,1.67-13.7,3.27Z" style="fill: #1a171b"/>
    <path d="M818.85,487.41a6.34,6.34,0,0,1-2.13,1.74l-1,.58q-14.16-2-28.32-4.35a8,8,0,0,1-4.56-1.94,6.24,6.24,0,0,1-1.37-4.4l-1.05-.17v12.92l1.05.18v-.88a4.19,4.19,0,0,1,1.22-3.1c.81-.82,2.38-1,4.71-.65q12.81,2.1,25.62,4-16.75,9.72-33.51,19v.91q16.68,2.82,33.35,5.26a14.25,14.25,0,0,1,4,1,4,4,0,0,1,1.69,1.46,9.21,9.21,0,0,1,.85,3.19l1,.15V510.46l-1-.15c0,2-.52,3.32-1.66,4q-1.29.77-4.9.24-8.57-1.24-17.12-2.6,12.36-6.92,24.72-14.06h0V485.11l-1-.14A4.94,4.94,0,0,1,818.85,487.41Z" style="fill: #1a171b"/>
    <path d="M821.37,581.32a20.46,20.46,0,0,0-2.84-10.18,24.86,24.86,0,0,0-8-8.45,26.46,26.46,0,0,0-10.86-4.35,21,21,0,0,0-10.24.81,13.67,13.67,0,0,0-7.38,5.72,18.08,18.08,0,0,0-2.57,9.85,19.34,19.34,0,0,0,1.59,8,24.9,24.9,0,0,0,5.11,7.17l3.45.57a28.21,28.21,0,0,1-5.7-6.91A13.71,13.71,0,0,1,782.3,577a8.54,8.54,0,0,1,2.27-6.38,11,11,0,0,1,6.68-2.74,36.15,36.15,0,0,1,9.8.32,32.1,32.1,0,0,1,9.93,3.15,15.44,15.44,0,0,1,5.65,5,11.28,11.28,0,0,1,2.16,6.49,9,9,0,0,1-2.92,6.85c-1.94,1.85-4.74,2.9-8.38,3.14v1.07q6.93,1,13.88,2v-1.08a4.59,4.59,0,0,1-2.18-1.11,2.28,2.28,0,0,1-.68-1.59,10.37,10.37,0,0,1,1-3A18.84,18.84,0,0,0,821.37,581.32Z" style="fill: #1a171b"/>
    <path d="M818.75,600.65a11,11,0,0,0-6.38-3.06,8.33,8.33,0,0,0-6.28,1.2,5.92,5.92,0,0,0-2.44,5.12,8,8,0,0,0,2.42,5.79,10.8,10.8,0,0,0,6.38,3.06,8.28,8.28,0,0,0,6.34-1.24,6,6,0,0,0,2.44-5.13A7.94,7.94,0,0,0,818.75,600.65Zm.11,7.27q-1.11.52-5.17-.06A39.24,39.24,0,0,1,807,606.5a3.47,3.47,0,0,1-1.57-1,2.17,2.17,0,0,1-.56-1.45,1.7,1.7,0,0,1,1.15-1.61c.77-.36,2.39-.35,4.86,0a44.65,44.65,0,0,1,7,1.38,3.22,3.22,0,0,1,1.63,1,2.31,2.31,0,0,1,.53,1.49A1.67,1.67,0,0,1,818.86,607.92Z" style="fill: #1a171b"/>
    <path d="M818.85,617.16a6.34,6.34,0,0,1-2.13,1.74l-1,.58q-14.16-2-28.32-4.35a8,8,0,0,1-4.56-1.94,6.24,6.24,0,0,1-1.37-4.4l-1.05-.17v12.92l1.05.18v-.88a4.19,4.19,0,0,1,1.22-3.1c.81-.82,2.38-1,4.71-.65q12.81,2.1,25.62,4-16.75,9.72-33.51,19V641q16.68,2.82,33.35,5.26a13.91,13.91,0,0,1,4,1,4.1,4.1,0,0,1,1.69,1.45,9.35,9.35,0,0,1,.85,3.2l1,.14V640.21l-1-.15c0,2-.52,3.32-1.66,4q-1.29.77-4.9.24-8.57-1.24-17.12-2.6,12.36-6.91,24.72-14.06h0V614.86l-1-.14A4.94,4.94,0,0,1,818.85,617.16Z" style="fill: #1a171b"/>
    <path d="M820.9,694.21a11.74,11.74,0,0,0,.47-3.32,12,12,0,0,0-3.36-8.44,13.44,13.44,0,0,0-8.14-4.34,11,11,0,0,0-5.13.37,11.19,11.19,0,0,0-4.22,2.64,33.54,33.54,0,0,0-4.57,6.32,23.5,23.5,0,0,1-3.1,4.4,6.7,6.7,0,0,1-2.52,1.64,5.42,5.42,0,0,1-2.74.23,7,7,0,0,1-4.19-2.46,7.51,7.51,0,0,1-1.79-5.06,8.43,8.43,0,0,1,3.32-6.64c2.22-1.86,5.44-2.84,9.65-3v-.89q-7.53-1.2-15.06-2.48v.9a5.36,5.36,0,0,1,1.83,1.57,2.93,2.93,0,0,1,.61,1.56,4.69,4.69,0,0,1-.6,2,19.64,19.64,0,0,0-1.46,3.57,12.23,12.23,0,0,0-.39,3.19,15,15,0,0,0,12.25,14.53,10.49,10.49,0,0,0,7-1.09c2-1.19,4.21-3.7,6.51-7.56a43,43,0,0,1,3.45-5.23,8,8,0,0,1,2.74-2.07,4.75,4.75,0,0,1,2.35-.19,6,6,0,0,1,3.7,2.11,6.59,6.59,0,0,1,1.61,4.53,7.79,7.79,0,0,1-3,6.1,12.21,12.21,0,0,1-8.05,2.63v1.07q6.68.87,13.33,1.65h0v-.8a6.92,6.92,0,0,1-2.25-1.09,1.54,1.54,0,0,1-.47-1.14,6,6,0,0,1,1-2.38A14.12,14.12,0,0,0,820.9,694.21Z" style="fill: #1a171b"/>
    <path d="M818.73,734.72a2.66,2.66,0,0,1-1.6,1,10,10,0,0,1-3.85,0q-8.16-1.19-16.33-2.47c-4.25-.67-7.23-1.49-9-2.44a11,11,0,0,1-4-3.71,9.36,9.36,0,0,1-1.47-5.18,6.25,6.25,0,0,1,1.15-3.95,5.25,5.25,0,0,1,2.9-1.89c1.16-.3,3.53-.15,7.11.43q9.81,1.56,19.61,3a18.44,18.44,0,0,1,4.3.93,3.31,3.31,0,0,1,1.35,1.3,6.39,6.39,0,0,1,.48,3v.94l1.05.15V707.12l-1-.15a6.14,6.14,0,0,1-.48,3.09,2.35,2.35,0,0,1-1.35,1,14.37,14.37,0,0,1-4.31-.26q-9.79-1.43-19.6-3a17.88,17.88,0,0,0-7.94.13A8.77,8.77,0,0,0,780.9,712c-.92,1.54-1.39,3.86-1.39,7a15.55,15.55,0,0,0,2.63,9.26,14.09,14.09,0,0,0,5.76,5,46.16,46.16,0,0,0,10.18,2.45q7.59,1.2,15.2,2.3a12.57,12.57,0,0,1,3.41.82,4.61,4.61,0,0,1,2,1.76,4.88,4.88,0,0,1,.69,2.62V744l1,.15V731.63l-1-.15A6.1,6.1,0,0,1,818.73,734.72Z" style="fill: #1a171b"/>
    <path d="M820.9,761.18a11.79,11.79,0,0,0,.47-3.32,12.08,12.08,0,0,0-3.36-8.45,13.48,13.48,0,0,0-8.14-4.33,10.49,10.49,0,0,0-9.35,3A33.39,33.39,0,0,0,796,754.4a24,24,0,0,1-3.1,4.41,7,7,0,0,1-2.52,1.64,5.53,5.53,0,0,1-2.74.23,6.94,6.94,0,0,1-4.19-2.47,7.49,7.49,0,0,1-1.79-5.06,8.42,8.42,0,0,1,3.32-6.63q3.33-2.79,9.65-3v-.89q-7.53-1.2-15.06-2.48v.89a5.37,5.37,0,0,1,1.83,1.58,2.87,2.87,0,0,1,.61,1.56,4.65,4.65,0,0,1-.6,2,20,20,0,0,0-1.46,3.58,12.15,12.15,0,0,0-.39,3.18,15,15,0,0,0,12.25,14.54,10.49,10.49,0,0,0,7-1.1q3.06-1.77,6.51-7.56a43.82,43.82,0,0,1,3.45-5.23,8,8,0,0,1,2.74-2.07,4.76,4.76,0,0,1,2.35-.18,6,6,0,0,1,3.7,2.11,6.59,6.59,0,0,1,1.61,4.53,7.77,7.77,0,0,1-3,6.09,12.16,12.16,0,0,1-8.05,2.64v1.07q6.68.86,13.33,1.65h0v-.81a7,7,0,0,1-2.25-1.08,1.55,1.55,0,0,1-.47-1.14,6,6,0,0,1,1-2.39A14.07,14.07,0,0,0,820.9,761.18Z" style="fill: #1a171b"/>
    <path d="M794,851.57a2.4,2.4,0,0,1-2-.45,3.93,3.93,0,0,1-1.25-1.58,31.82,31.82,0,0,1-1.17-4.89q-3.07-16.15-6.16-32.31c-.44-2.32-.67-3.62-.69-3.91a12.06,12.06,0,0,1,.1-2.89,3.5,3.5,0,0,1,.88-1.77,2.52,2.52,0,0,1,1.6-.82l.28-.05-.25-1.33c-3.12.48-6.23,1-9.34,1.42.09.45.17.9.26,1.34a3.31,3.31,0,0,1,3,.78A7.13,7.13,0,0,1,781,808c.18.57.52,2.12,1,4.64l6.87,36q-9.75-22.29-19.51-44.72l-.48.07-1.56,48.3q-3.62-19-7.24-38a28.62,28.62,0,0,1-.68-4.84,3.81,3.81,0,0,1,.45-1.94,2.39,2.39,0,0,1,1.79-1.07l.89-.13c-.09-.44-.17-.89-.26-1.34q-7.14,1-14.27,2c.08.45.17.89.25,1.34l.89-.12a2.54,2.54,0,0,1,2,.5,4,4,0,0,1,1.24,1.61,31.26,31.26,0,0,1,1.17,4.93q3.23,16.93,6.44,33.85a30.23,30.23,0,0,1,.69,4.85,4.14,4.14,0,0,1-.46,1.92,2.39,2.39,0,0,1-1.79,1.08l-.88.12c.08.45.17.9.25,1.34q5.55-.76,11.09-1.57l1-35.08q7.11,16.43,14.21,32.79,5.55-.85,11.1-1.76c-.09-.45-.17-.89-.26-1.34Z" style="fill: #1a171b"/>
    <path d="M804.46,604.9a10,10,0,0,1,.73-5.29s-4.09,7.22-11.73,4.91c-.71.42-.55,1.07-.12,1.67s7.69,4.14,16.79,5.92C808.72,610.85,804.94,607.56,804.46,604.9Z" style="fill: #1a171b"/>
    <path d="M453.19,615.65c-2.53-.38-4.59,1.94-4.59,5.18s2.06,6.16,4.59,6.54,4.59-1.93,4.59-5.17S455.72,616,453.19,615.65Z" style="fill: #1a171b"/>
    <path d="M453.19,334.81c-2.53-.38-4.59,1.94-4.59,5.18s2.06,6.16,4.59,6.54,4.59-1.93,4.59-5.16S455.72,335.19,453.19,334.81Z" style="fill: #1a171b"/>
    <path d="M453.19,256.66c-2.53-.38-4.59,1.95-4.59,5.18s2.06,6.16,4.59,6.55,4.59-1.93,4.59-5.17S455.72,257,453.19,256.66Z" style="fill: #1a171b"/>
    <path d="M499.54,182.5a4.43,4.43,0,0,1,2.61,1.34,5.57,5.57,0,0,1,1,2.23,22.68,22.68,0,0,1,.39,5v20.86q0,8.15-.78,11.28a9.93,9.93,0,0,1-2.38,4.72,4.18,4.18,0,0,1-3.87,1.17,5.07,5.07,0,0,1-3.24-2,10.79,10.79,0,0,1-1.86-4,48.23,48.23,0,0,1-.56-9.2v-25a33.14,33.14,0,0,1,.25-5.45,2.81,2.81,0,0,1,.86-1.58,2.91,2.91,0,0,1,2.27-.22l.73.13v-1.34q-7.29-1.29-14.58-2.53v1.33a4.07,4.07,0,0,1,2.47,1,4.44,4.44,0,0,1,.95,1.89,31.39,31.39,0,0,1,.28,5.56v25A39.33,39.33,0,0,0,485.16,223a16.22,16.22,0,0,0,3.81,6.85,9.92,9.92,0,0,0,5.63,2.77q4.36.78,6.9-2.12a13.39,13.39,0,0,0,3.18-6.77,88.72,88.72,0,0,0,.65-12.89V191.4a22.8,22.8,0,0,1,.26-4.31,4.42,4.42,0,0,1,1.15-2.4,2.2,2.2,0,0,1,2-.51l.59.11V183l-9.76-1.79Z" style="fill: #1a171b"/>
    <path d="M473.39,759.62l.76.25q1.71-6.29,4.42-8.71a6.32,6.32,0,0,1,6.66-1.09l1.68.57a3.1,3.1,0,0,1,1.69,1.18,4.13,4.13,0,0,1,.59,1.76,34,34,0,0,1-.31,5.11q-.74,7-1.46,14a6.1,6.1,0,0,1-3-2,10.25,10.25,0,0,1-1.51-4.29,35.5,35.5,0,0,1-.35-7.33l-.69-.23L479.14,785l.7.23c.61-3.78,1.43-6.53,2.45-8.23a3.28,3.28,0,0,1,4.25-1.64l.6.2L485,795.76l-3-1a12.9,12.9,0,0,1-4.34-2.13,10.27,10.27,0,0,1-2.74-4.45,29.49,29.49,0,0,1-.91-8.22l-.69-.23q-.76,7.29-1.51,14.6,11.76,3.87,23.52,7.93c0-.43.09-.87.13-1.3l-.93-.32a3.58,3.58,0,0,1-2.06-1.78,5.37,5.37,0,0,1-.55-2.26c0-.53.11-1.93.35-4.2l3.39-32.81a27.53,27.53,0,0,1,.69-4.58,2.62,2.62,0,0,1,1-1.49,2.25,2.25,0,0,1,2-.09l.94.32c0-.43.09-.87.13-1.3q-12.14-4.22-24.26-8.26Q474.84,751.9,473.39,759.62Z" style="fill: #1a171b"/>
    <path d="M472.79,734a8.72,8.72,0,0,1,.82,3.46,3.27,3.27,0,0,1-.72,1.82,13.54,13.54,0,0,1-3.48,2.2q-5,2.57-10,5.17c-.28-.73-.57-1.46-.85-2.2q5.94-9.69,11.89-19.32-2.07-5.36-4.15-10.69l-1,.51a4.82,4.82,0,0,1,.05,2.84,23.47,23.47,0,0,1-2,3.77q-4.42,7.18-8.85,14.41a9.92,9.92,0,0,0-4.3-3.54,8.83,8.83,0,0,0-7.5.75,11.74,11.74,0,0,0-4.89,4.78,11.36,11.36,0,0,0-1.46,6.38,34.71,34.71,0,0,0,2.63,9.45q3.08,7.85,6.14,15.71l.93-.49a8.45,8.45,0,0,1-.81-3.45,3.27,3.27,0,0,1,.71-1.83,14,14,0,0,1,3.48-2.26q11.54-6.1,23.06-12a12.22,12.22,0,0,1,3.73-1.49,2.47,2.47,0,0,1,1.65.58,7.73,7.73,0,0,1,1.72,3l.93-.47q-3.42-8.8-6.82-17.61Zm-30.63,21.77c-.35-.89-.69-1.77-1-2.65-1-2.67-1.16-5-.35-6.84s2.56-3.55,5.24-5a9.88,9.88,0,0,1,4.89-1.4,4.91,4.91,0,0,1,3.44,1.45,15,15,0,0,1,2.68,4.84l.55,1.41Q449.86,751.6,442.16,755.72Z" style="fill: #1a171b"/>
    <path d="M469.4,685a16,16,0,0,1-3.26,1.9q-6.79,3.24-13.59,6.55a13.41,13.41,0,0,0-2.74-5.53A11.58,11.58,0,0,0,442.5,684a9.72,9.72,0,0,0-6.32,1,8,8,0,0,0-3.7,4.45q-1,2.9-1,9.47v16.79l1,.14a7.41,7.41,0,0,1,.51-3.37,2.28,2.28,0,0,1,1.34-1.1,13.39,13.39,0,0,1,4.08.2q13.05,1.8,26.09,3.87a14.51,14.51,0,0,1,4.07,1A3.61,3.61,0,0,1,470,718a8.46,8.46,0,0,1,.51,3.54l1,.17V703.09l-1-.17a7.29,7.29,0,0,1-.5,3.34,2.2,2.2,0,0,1-1.34,1.07,13,13,0,0,1-4.09-.29q-5.64-.88-11.3-1.74V703q9.13-4.46,18.28-8.78V682.86l-1.12-.19A3.61,3.61,0,0,1,469.4,685Zm-18.25,20q-8.72-1.29-17.44-2.47V699.7h0q0-4.31,2.17-5.92t6.73-1a11.68,11.68,0,0,1,5.09,1.79,7,7,0,0,1,2.7,3.27,16.36,16.36,0,0,1,.75,5.63Z" style="fill: #1a171b"/>
    <path d="M469.4,648q-1.22,1-5.89,2.11-16.41,3.93-32.8,8.3v.49q16,8.58,31.91,17.58a29.18,29.18,0,0,1,6.06,4,6.3,6.3,0,0,1,1.79,3.47l1,.17v-12l-1-.17a8.47,8.47,0,0,1-.71,3.43,2.4,2.4,0,0,1-2.49.8A11,11,0,0,1,464,675l-3.88-2.18V660.13l5-1.18a19.43,19.43,0,0,1,2.23-.44,4,4,0,0,1,1.1,0,2,2,0,0,1,1.37.79,5.69,5.69,0,0,1,.65,3.08v.72l1,.17V645.81l-1-.17A3.32,3.32,0,0,1,469.4,648ZM458,671.6q-6.86-3.84-13.7-7.6,6.84-1.71,13.7-3.35Z" style="fill: #1a171b"/>
    <path d="M434.87,560.58a6.88,6.88,0,0,1-2.35-3.82l-1-.13v11.8l1,.13a6.93,6.93,0,0,1,.51-2.94,2.3,2.3,0,0,1,1-1.13,2.73,2.73,0,0,1,1.58-.22,8,8,0,0,1,1.87.56c.74.31,2.19,1,4.36,2.21q8.85,4.79,17.7,9.71-9.94,2.28-19.9,4.74c-2.12.52-3.43.83-3.91.91a4.32,4.32,0,0,1-1.27.05,1.82,1.82,0,0,1-1.32-.78,6,6,0,0,1-.66-3.29v-.6l-1-.14v17.27l1,.14a3.5,3.5,0,0,1,1.28-2.69c.67-.42,2.94-1.11,6.79-2.05q15.92-3.94,31.84-7.51v-.89q-15.3-8.68-30.6-17A45.46,45.46,0,0,1,434.87,560.58Z" style="fill: #1a171b"/>
    <path d="M445.87,544.91a10.73,10.73,0,0,0-6.39-3,8.27,8.27,0,0,0-6.33,1.28,6,6,0,0,0-2.44,5.14,7.87,7.87,0,0,0,2.48,5.72,10.82,10.82,0,0,0,6.38,3,8.29,8.29,0,0,0,6.28-1.24,5.94,5.94,0,0,0,2.44-5.13A8,8,0,0,0,445.87,544.91Zm.08,7.27c-.77.36-2.39.36-4.86,0a44,44,0,0,1-7-1.33,3.14,3.14,0,0,1-1.63-1,2.29,2.29,0,0,1-.54-1.48,1.73,1.73,0,0,1,1.12-1.61c.74-.34,2.46-.34,5.17,0a40.71,40.71,0,0,1,6.72,1.32,3.6,3.6,0,0,1,1.57,1,2.2,2.2,0,0,1,.56,1.45A1.73,1.73,0,0,1,446,552.18Z" style="fill: #1a171b"/>
    <path d="M457.43,509.92v1.16a36,36,0,0,1,7.17,3.74,11.78,11.78,0,0,1,3.56,3.87,10.34,10.34,0,0,1,1.13,4.95v3a10.63,10.63,0,0,1-.27,3.14,1.8,1.8,0,0,1-1.26,1.06,14.7,14.7,0,0,1-3.91-.31q-12.77-2-25.54-3.79a13.6,13.6,0,0,1-3.74-.82,3.42,3.42,0,0,1-1.42-1.3,5.09,5.09,0,0,1-.63-2.66v-1.62l-1-.14v19.35l1,.13v-1.2a4.07,4.07,0,0,1,.58-2.33,2.28,2.28,0,0,1,1.35-1,15,15,0,0,1,3.86.24q13.19,1.82,26.37,3.92a14,14,0,0,1,3.74.9,3.07,3.07,0,0,1,1.43,1.28,5.12,5.12,0,0,1,.62,2.63v1.2l1,.17v-32q-7-1.82-14.09-3.57Z" style="fill: #1a171b"/>
    <path d="M434.87,475.8a6.88,6.88,0,0,1-2.35-3.82l-1-.14v11.8l1,.14a6.9,6.9,0,0,1,.51-2.94,2.26,2.26,0,0,1,1-1.13,2.73,2.73,0,0,1,1.58-.22,8,8,0,0,1,1.87.56q1.11.45,4.36,2.21,8.85,4.78,17.7,9.7-9.94,2.3-19.9,4.74c-2.12.53-3.43.83-3.91.92a4.32,4.32,0,0,1-1.27.05,1.82,1.82,0,0,1-1.32-.78,6,6,0,0,1-.66-3.29V493l-1-.14v17.27l1,.14a3.54,3.54,0,0,1,1.28-2.7,36.52,36.52,0,0,1,6.79-2q15.92-4,31.84-7.51v-.9q-15.3-8.67-30.6-17A45.46,45.46,0,0,1,434.87,475.8Z" style="fill: #1a171b"/>
    <path d="M458.81,443.47a17.75,17.75,0,0,1,7.89,5.64,14,14,0,0,1,2.59,8.56v2.16a3.69,3.69,0,0,1-.48,2.18,1.9,1.9,0,0,1-1.21.77,17.25,17.25,0,0,1-4.05-.38q-5.64-.88-11.29-1.73a8,8,0,0,1,.76-3.93,5,5,0,0,1,2.93-2,15.55,15.55,0,0,1,5.59-.53v-.89q-10.46-1.64-20.92-3.1v.89a17.56,17.56,0,0,1,7,3,6.6,6.6,0,0,1,2.38,5.43v.77q-8.11-1.2-16.25-2.29h0v-3.84a19.54,19.54,0,0,1,.52-5.61A6.85,6.85,0,0,1,437,445c1.25-.78,3.3-1.23,6.15-1.33v-.89q-5.85-.84-11.71-1.61v30.3l1,.14v-1.2a3.87,3.87,0,0,1,.83-2.68A2.45,2.45,0,0,1,435,467a27.88,27.88,0,0,1,3.35.35q13.19,1.81,26.37,3.91a16.45,16.45,0,0,1,3.74.87,3.3,3.3,0,0,1,1.43,1.32,5.11,5.11,0,0,1,.62,2.62v1.21l1,.17V446.14q-6.36-1.84-12.71-3.64Z" style="fill: #1a171b"/>
    <path d="M469.4,405.78a15.64,15.64,0,0,1-3.26,1.89q-6.79,3.24-13.59,6.55a13.48,13.48,0,0,0-2.74-5.53,11.61,11.61,0,0,0-7.31-3.92,9.66,9.66,0,0,0-6.32,1,8,8,0,0,0-3.7,4.44q-1,2.91-1,9.47v16.8l1,.13a7.41,7.41,0,0,1,.51-3.37,2.27,2.27,0,0,1,1.34-1.09,12.92,12.92,0,0,1,4.08.19q13.05,1.8,26.09,3.88a14.27,14.27,0,0,1,4.07,1,3.61,3.61,0,0,1,1.35,1.48,8.46,8.46,0,0,1,.51,3.54l1,.17V423.82l-1-.17A7.29,7.29,0,0,1,470,427a2.21,2.21,0,0,1-1.34,1.08,13.69,13.69,0,0,1-4.09-.29q-5.64-.9-11.3-1.75V423.7q9.13-4.45,18.28-8.77V403.59l-1.12-.18A3.61,3.61,0,0,1,469.4,405.78Zm-18.25,19.94q-8.72-1.29-17.44-2.46v-2.83h0c0-2.86.72-4.84,2.17-5.92s3.69-1.42,6.73-1a11.81,11.81,0,0,1,5.09,1.79,7,7,0,0,1,2.7,3.28,16.32,16.32,0,0,1,.75,5.63Z" style="fill: #1a171b"/>
    <path d="M469.4,368.76q-1.22,1-5.89,2.11-16.41,3.94-32.8,8.3v.5q16,8.58,31.91,17.58a29.18,29.18,0,0,1,6.06,4,6.3,6.3,0,0,1,1.79,3.47l1,.17V393l-1-.17a8.36,8.36,0,0,1-.71,3.42,2.38,2.38,0,0,1-2.49.81,11,11,0,0,1-3.24-1.27l-3.88-2.19V380.87l5-1.18a19.43,19.43,0,0,1,2.23-.44,4,4,0,0,1,1.1,0,2,2,0,0,1,1.37.78,5.73,5.73,0,0,1,.65,3.09v.71l1,.17V366.55l-1-.18A3.3,3.3,0,0,1,469.4,368.76ZM458,392.34q-6.86-3.84-13.7-7.6,6.84-1.71,13.7-3.36Z" style="fill: #1a171b"/>
    <path d="M469.4,287.45q-1.22,1-5.89,2.11-16.41,3.94-32.8,8.3v.5q16,8.58,31.91,17.58a29.18,29.18,0,0,1,6.06,4,6.3,6.3,0,0,1,1.79,3.47l1,.17v-12l-1-.17a8.36,8.36,0,0,1-.71,3.42,2.38,2.38,0,0,1-2.49.81,11,11,0,0,1-3.24-1.27l-3.88-2.19V299.56l5-1.18a19.43,19.43,0,0,1,2.23-.44,4,4,0,0,1,1.1,0,2,2,0,0,1,1.37.78,5.73,5.73,0,0,1,.65,3.09v.71l1,.17V285.24l-1-.18A3.3,3.3,0,0,1,469.4,287.45ZM458,311q-6.86-3.84-13.7-7.6,6.84-1.71,13.7-3.36Z" style="fill: #1a171b"/>
    <path d="M482.37,227.2a5.84,5.84,0,0,1-4.44,3.26c-1.84.2-4-.48-6.52-2.06q1.65-5.49-1.31-13.57a40.13,40.13,0,0,0-9.45-14.62q-7.44-7.49-14.75-8.27T435,197.61q-3.63,6.46-1,15.55a37.78,37.78,0,0,0,10.08,16.47q6.43,6.39,12.82,8t10.49-2.09q5.16,2.86,9.08,2.17a8.49,8.49,0,0,0,6.07-4.47,22.71,22.71,0,0,0,2.24-6.32c-.51-.51-1-1-1.51-1.54A15,15,0,0,1,482.37,227.2ZM468,230.59q-1.74,3.06-5.59,1.89-5.53-1.66-14.09-10.2-7.12-7.09-10-12.57-3.48-6.54-1.41-10.23t7.77-1.31q4.47,2,12.48,10c5.42,5.44,9,10.38,10.77,14.77Q469.69,227.53,468,230.59Z" style="fill: #1a171b"/>
    <path d="M458.63,554.69c-7.64-.08-11.72-8.49-11.72-8.49a11.57,11.57,0,0,1,.72,5.5c-.48,2.52-4.26,4.69-5.67,5.56,9.11.84,16.37-.41,16.79-.87A1.06,1.06,0,0,0,458.63,554.69Z" style="fill: #1a171b"/>
    <path d="M711.47,731.82a20.33,20.33,0,0,0-8.08-2.46c.67,3.72-1.54,4.91-4.13,4.18-.38,0-.77-.21-1.17-.16.69,7.57,21.46,13.19,19.45,4.5C715.15,736,714.3,733.5,711.47,731.82Z" style="fill: #520"/>
    <path d="M677.25,766.27c.26.08.51.1.76.16a2.23,2.23,0,0,1-.35-1.1C677.52,765.65,677.39,766,677.25,766.27Z" style="fill: #520"/>
    <path d="M740.83,774c-8.58,1-17.84-4.95-26.64-6.19-3.54-.5-8.06.6-11.25-.25s-5.28-6.21-8.08-5.82c-3,.42-1.46,4.87-4,5.86-1.3.5-4.37-.79-5.89-.87-2.37-.12-4.54.24-6.92-.32,3.29,5.57,29.34,7.44,33.06,7.53,6.56.23,12.78,2.36,19.17,4.24,5,1.48,16.89,5.36,20.68,3-1,0-1.92-.86-2.73-1.11,1.78-4.77,5.6-6.78,8.08-10.69C749.79,764.33,746.51,773.35,740.83,774Z" style="fill: #520"/>
    <path d="M641.45,798.44c-2.53-.56-4.59,1.62-4.59,4.86s2.06,6.31,4.59,6.86,4.59-1.63,4.59-4.86S644,799,641.45,798.44Z" style="fill: #1a171b"/>
    <path d="M557.36,780.37c-2.54-.52-4.59,1.68-4.59,4.92s2.05,6.28,4.59,6.81,4.58-1.68,4.58-4.91S559.89,780.9,557.36,780.37Z" style="fill: #1a171b"/>
    <path d="M740.89,801.63a6.1,6.1,0,0,1,2.77,1.44,5.31,5.31,0,0,1,1,3.36,17.44,17.44,0,0,1-.59,4c-.41,1.58-.82,3.15-1.24,4.73l-9.92-1.91q-.78-3.33-1.54-6.66c-.39-1.75-.6-2.74-.62-3a9,9,0,0,1-.12-1.43,2.51,2.51,0,0,1,.45-1.66,2.48,2.48,0,0,1,2.33-.38l.56.11v-1.34c-4.57-.88-9.13-1.79-13.69-2.7v1.34a3.6,3.6,0,0,1,2,1.76,41,41,0,0,1,2.39,8q5.1,22,10.21,43.91l.39.07q5.07-19.4,10.15-38.83a33.76,33.76,0,0,1,2.4-7.29,3.25,3.25,0,0,1,2.49-1.82v-1.34l-9.38-1.77Zm-3.15,32.85q-2.12-9.16-4.22-18.32l8.57,1.65Z" style="fill: #1a171b"/>
    <path d="M710.08,795.52l.68.14a4.17,4.17,0,0,1,2.59,2.09q1.13,1.79,1.12,6.24v32.74q-9.51-23.33-19-46.73l-.71-.14v42.6a25,25,0,0,1-.34,5.07,3.69,3.69,0,0,1-.95,2,4,4,0,0,1-2.41.58v1.34l9.28,1.93V842a4.24,4.24,0,0,1-3.31-2.81,19,19,0,0,1-.74-6.41V810.91q6.94,17.25,13.89,34.45l10,2v-1.34a3.76,3.76,0,0,1-2-1.12,12.28,12.28,0,0,1-1.59-3l-.57-1.4V804.3c0-2.74.3-4.62.92-5.64s1.7-1.38,3.26-1.09v-1.34q-5.06-1-10.11-2.05Z" style="fill: #1a171b"/>
    <path d="M684,818.43q-2.6-.55-4.25,2.19c-1.1,1.83-1.65,4.44-1.65,7.81a19.26,19.26,0,0,0,1.68,8.45q1.68,3.48,4.28,4t4.22-2.28a15.28,15.28,0,0,0,1.68-7.81,19.19,19.19,0,0,0-1.67-8.37Q686.59,819,684,818.43Zm1.69,18.45a3.89,3.89,0,0,1-.61,2,1.06,1.06,0,0,1-1.11.44c-.56-.12-1-.69-1.37-1.71a26.08,26.08,0,0,1-.53-6.71,76,76,0,0,1,.3-8.53,3.93,3.93,0,0,1,.59-1.88A1,1,0,0,1,684,820c.56.12,1,.71,1.4,1.78a23.08,23.08,0,0,1,.55,6.32A85.14,85.14,0,0,1,685.65,836.88Z" style="fill: #1a171b"/>
    <path d="M674.06,787.83c-.41.43-.79.61-1.14.53a3.92,3.92,0,0,1-1.66-1.11,19.39,19.39,0,0,0-3-2.51,7.62,7.62,0,0,0-2.54-1q-4.26-.91-7,3.1t-2.77,10.42a24.66,24.66,0,0,0,1.74,9.35,35.63,35.63,0,0,0,6.69,9.77,63,63,0,0,1,4.5,5.37,16.38,16.38,0,0,1,1.94,3.92,11.13,11.13,0,0,1,.41,3.1,7.62,7.62,0,0,1-1.24,4.46,3,3,0,0,1-3.37,1.32c-1.83-.39-3.53-2.06-5.1-5a28.8,28.8,0,0,1-3-10.93l-.83-.18.21,17.07h0l.63.13a9.78,9.78,0,0,1,.6-2.75.73.73,0,0,1,.84-.41,5.76,5.76,0,0,1,2,1.64,15.66,15.66,0,0,0,2.39,2.18,7.67,7.67,0,0,0,2.65,1.17q3.76.81,6.24-3t2.47-9.87a25,25,0,0,0-.89-6.75,23.79,23.79,0,0,0-2.57-5.94,50.58,50.58,0,0,0-5.5-7,35.53,35.53,0,0,1-3.84-4.8,14.85,14.85,0,0,1-1.6-3.57,12.88,12.88,0,0,1-.53-3.61,8.6,8.6,0,0,1,1.39-5.05,3.34,3.34,0,0,1,3.72-1.49q3,.65,5.63,5.46T675.05,805l.7.15V785.85l-.7-.15A4.91,4.91,0,0,1,674.06,787.83Z" style="fill: #1a171b"/>
    <path d="M599.3,788.42h0l.91.19a49,49,0,0,1,2-8.72,8.61,8.61,0,0,1,2.58-4,4.43,4.43,0,0,1,3.73-.63l2.35.51a6.67,6.67,0,0,1,2.49.88,3.48,3.48,0,0,1,1,1.82,31.51,31.51,0,0,1,.25,5.06v32.63a24.53,24.53,0,0,1-.25,4.73,3,3,0,0,1-.87,1.63,2.25,2.25,0,0,1-2,.36l-1.27-.28V824l15.14,3.29v-1.33l-.94-.21a3.16,3.16,0,0,1-1.89-1.15,4.73,4.73,0,0,1-.93-1.93,33.68,33.68,0,0,1-.22-5V784a25.77,25.77,0,0,1,.24-4.73,2.65,2.65,0,0,1,.82-1.64,2.16,2.16,0,0,1,2-.37l.94.21v-1.34q-12.52-2.73-25-5.44Z" style="fill: #1a171b"/>
    <path d="M589.07,769.55a6.38,6.38,0,0,1,2.77,1.51,5.44,5.44,0,0,1,.94,3.39,17.21,17.21,0,0,1-.58,4c-.42,1.57-.83,3.13-1.24,4.7L581,781l-1.53-6.69c-.4-1.75-.6-2.74-.62-3a8.88,8.88,0,0,1-.12-1.42,2.58,2.58,0,0,1,.44-1.66,2.47,2.47,0,0,1,2.33-.34l.56.12v-1.33q-6.84-1.47-13.68-2.9v1.34a3.58,3.58,0,0,1,2,1.78,40.13,40.13,0,0,1,2.39,8q5.12,22,10.22,44.08l.38.08q5.08-19.3,10.15-38.6a33.26,33.26,0,0,1,2.41-7.23,3.13,3.13,0,0,1,2.49-1.75v-1.33l-9.38-2Zm-3.15,32.79q-2.11-9.21-4.22-18.41l8.57,1.84Z" style="fill: #1a171b"/>
    <path d="M538.74,803.78c-.88,1.28-2.29,1.72-4.24,1.34l-2.09-.42V765.22a27.47,27.47,0,0,1,.23-4.74,2.88,2.88,0,0,1,.85-1.65,2.15,2.15,0,0,1,2-.41l.93.19v-1.34q-7.35-1.47-14.72-2.88v1.33l.93.18a3.06,3.06,0,0,1,1.88,1.1,5,5,0,0,1,.92,1.91,28.48,28.48,0,0,1,.25,5v39.49l-2.09-.41a5.3,5.3,0,0,1-2.82-1.22,10.87,10.87,0,0,1-2.26-3.76,37.8,37.8,0,0,1-1.48-7.15l-.7-.13v13.82q12.74,2.41,25.46,5V795.69l-.69-.14C540.74,799.25,540,802,538.74,803.78Z" style="fill: #1a171b"/>
    <path d="M500.3,751.73l.93.17a3,3,0,0,1,1.86,1.08,4.65,4.65,0,0,1,.93,1.89,28.48,28.48,0,0,1,.25,5v33.69a26.41,26.41,0,0,1-.23,4.74,3.27,3.27,0,0,1-.85,1.67,2.25,2.25,0,0,1-2,.44l-.93-.17v1.34q7.35,1.34,14.72,2.73V803l-.95-.18a3,3,0,0,1-1.88-1.1,4.5,4.5,0,0,1-.93-1.9,32,32,0,0,1-.22-5V761.11a29.9,29.9,0,0,1,.21-4.75,2.89,2.89,0,0,1,.85-1.66,2.18,2.18,0,0,1,2-.42l.95.18v-1.34q-7.36-1.39-14.72-2.73Z" style="fill: #1a171b"/>
    <path d="M685.19,805.83c-.28-1.05-.8-1.07-1.28-.73s-3.62,8.37-5.6,19.31c1.07-1.35,3.84-5,5.92-4.72s4,2.74,4,2.74S683,814.76,685.19,805.83Z" style="fill: #1a171b"/>
    <path d="M521.64,343.1l4.6,4.16q-3.43,7.2-6.85,14.41l1.85,1.67q3.42-7.2,6.85-14.41l4.62,4.19c.3-.64.61-1.28.92-1.92q-5.53-5-11.07-10C522.25,341.81,521.94,342.46,521.64,343.1Z" style="fill: #1a171b"/>
    <path d="M530.27,370.51l2,1.39,6-17.76-2-1.4Q533.25,361.62,530.27,370.51Z" style="fill: #1a171b"/>
    <path d="M537.28,375.41q5.7,3.38,11.4,6.79c.18-.73.37-1.46.55-2.2l-9.37-5.59,1.6-6.31q4.23,2.5,8.45,5c.18-.73.37-1.45.55-2.18l-8.45-5,1.45-5.68q4.5,2.68,9,5.39c.19-.73.37-1.46.56-2.2l-11-6.59Z" style="fill: #1a171b"/>
    <path d="M566.56,370.8a10.89,10.89,0,0,0-3.07-2.08l-6.92-3.39-3.45,19.23,2.06,1c.51-2.85,1-5.7,1.54-8.54l2.39,1.17a7.17,7.17,0,0,1,1.13.65,4.35,4.35,0,0,1,.85,1,7.77,7.77,0,0,1,.82,1.8c.28.8.62,1.93,1,3.38l1.35,5,2.6,1.27q-.89-3.27-1.78-6.56a19.1,19.1,0,0,0-1.25-3.4,8.75,8.75,0,0,0-1.07-1.56,4.18,4.18,0,0,0,3.64-.16,4.12,4.12,0,0,0,1.69-2.92,7.44,7.44,0,0,0-.13-3.21A5.85,5.85,0,0,0,566.56,370.8Zm-.59,4.85a2.89,2.89,0,0,1-.72,1.52,1.79,1.79,0,0,1-1.42.56,6.21,6.21,0,0,1-2.28-.73l-4.44-2.18,1.14-6.36,4.94,2.43a5,5,0,0,1,2.38,2.12A4,4,0,0,1,566,375.65Z" style="fill: #1a171b"/>
    <path d="M582.91,377.82a10.46,10.46,0,0,0-3.14-1.85l-7-2.87q-1.23,9.82-2.47,19.65l2.1.86c.36-2.91.73-5.82,1.09-8.73l2.42,1a7,7,0,0,1,1.15.58,4.54,4.54,0,0,1,.89.91,8.18,8.18,0,0,1,.89,1.75q.48,1.18,1.17,3.33.79,2.47,1.58,4.95l2.63,1.08c-.69-2.16-1.39-4.32-2.08-6.48a18.84,18.84,0,0,0-1.4-3.32,8.74,8.74,0,0,0-1.14-1.5,4.13,4.13,0,0,0,3.59-.44,4.45,4.45,0,0,0,1.53-3.08,7.89,7.89,0,0,0-.29-3.23A6,6,0,0,0,582.91,377.82Zm-1,6.53a1.8,1.8,0,0,1-1.37.68,5.93,5.93,0,0,1-2.29-.55l-4.49-1.85.81-6.5,5,2.05a4.79,4.79,0,0,1,2.46,1.95,4.2,4.2,0,0,1,.52,2.63A3,3,0,0,1,581.92,384.35Z" style="fill: #1a171b"/>
    <path d="M593.54,381.21l-7.74,17.84,2.23.77c.75-1.81,1.49-3.63,2.24-5.44l6.65,2.31q.68,3.33,1.36,6.68l2.39.83q-2.43-11.1-4.87-22.21Zm-2.49,11.23q1.13-2.62,2.23-5.25a25.48,25.48,0,0,0,1.17-3.52c.15,1.17.42,2.68.79,4.53l1.2,6.11Z" style="fill: #1a171b"/>
    <path d="M616.66,394.34c-.72,1.14-1.34,2.18-1.86,3.11-.46-1.28-1-2.57-1.51-3.86l-2.95-7-2.56-.69,5.76,13.34-.28,8.58,2.12.57.28-8.58,6.75-9.95-2.46-.66Z" style="fill: #1a171b"/>
    <path d="M634.1,410.4q-.17-9-.32-18.07l-2.11-.4q.17,10.24.35,20.49l10,1.89c0-.81,0-1.61,0-2.42Z" style="fill: #1a171b"/>
    <ellipse cx="646.62" cy="404.77" rx="1.48" ry="14.57" transform="translate(-17.12 28.73) rotate(-2.51)" style="fill: #1a171b"/>
    <path d="M661.18,405.83a3.48,3.48,0,0,0,1.54-1.72,5.17,5.17,0,0,0,.38-2.44,7.09,7.09,0,0,0-.82-2.79,5.5,5.5,0,0,0-1.86-2.09,6.72,6.72,0,0,0-3-.92l-6-.59q.74,10.32,1.46,20.65l6.07.6a7.91,7.91,0,0,0,2.54-.09,3.64,3.64,0,0,0,1.67-.86,4.18,4.18,0,0,0,1-1.8,7.31,7.31,0,0,0,.28-2.65,6.93,6.93,0,0,0-1-3.2A5.39,5.39,0,0,0,661.18,405.83Zm-7.42-7.91,3.18.32a7.63,7.63,0,0,1,2.44.53,2.65,2.65,0,0,1,1.16,1.18,4.57,4.57,0,0,1,.51,1.84,3.29,3.29,0,0,1-.28,1.77,1.84,1.84,0,0,1-1.14.91,6,6,0,0,1-2,0l-3.44-.34C654.05,402.09,653.91,400,653.76,397.92Zm8.4,14.7a2.16,2.16,0,0,1-.72,1.07,2.46,2.46,0,0,1-1.17.45,6.82,6.82,0,0,1-1.43-.05l-4-.39-.51-7.1,3.68.37a6.76,6.76,0,0,1,2.35.57,3.31,3.31,0,0,1,1.36,1.32,4.71,4.71,0,0,1,.59,2.05A4,4,0,0,1,662.16,412.62Z" style="fill: #1a171b"/>
    <path d="M671.1,415l-.81-7.05,8.74.18c-.09-.81-.18-1.62-.28-2.43l-8.74-.18c-.24-2.12-.49-4.23-.73-6.34l9.33.2-.28-2.44-11.42-.25q1.2,10.35,2.38,20.7l11.8.25c-.1-.82-.19-1.63-.29-2.44Z" style="fill: #1a171b"/>
    <path d="M693.42,408.43a6.34,6.34,0,0,0-1.42-.92,4.46,4.46,0,0,0,3-2.18,5.9,5.9,0,0,0,.44-3.79,8,8,0,0,0-1.17-3.06,4.52,4.52,0,0,0-2.07-1.83,7.31,7.31,0,0,0-3.26-.32l-6.92.51q1.76,10.34,3.49,20.67l2.07-.15q-.78-4.59-1.55-9.18l2.39-.18a5.38,5.38,0,0,1,1.17,0,3.17,3.17,0,0,1,1,.48,6.36,6.36,0,0,1,1.28,1.31c.5.62,1.16,1.53,2,2.73l2.79,4.14,2.6-.2-3.67-5.42A15.82,15.82,0,0,0,693.42,408.43Zm-3.36-2.95-4.43.34c-.39-2.28-.77-4.56-1.16-6.84l4.94-.37a3.42,3.42,0,0,1,2.7.75,4,4,0,0,1,1.21,2.35,4.07,4.07,0,0,1-.11,1.88,2.2,2.2,0,0,1-1,1.33A4.84,4.84,0,0,1,690.06,405.48Z" style="fill: #1a171b"/>
    <path d="M708.37,393.46q-6.06,1.13-12.11,2.23c.19.81.37,1.61.55,2.42l5-.93q2.05,9,4.12,18.08l2-.38q-2.07-9-4.13-18.07l5.06-.94C708.74,395.07,708.56,394.26,708.37,393.46Z" style="fill: #1a171b"/>
    <path d="M712.35,392.26q0,11,.11,21.9l2.09-.63q-.07-3.3-.13-6.6l6.22-1.86,3.5,5.59,2.24-.68q-6-9.15-11.91-18.35Zm7,10.82-5,1.51q0-3.21-.08-6.41a32.84,32.84,0,0,0-.31-4.1c.55,1,1.31,2.31,2.27,3.88Z" style="fill: #1a171b"/>
    <path d="M737.59,393a17.91,17.91,0,0,0-2.36-4.35,7.88,7.88,0,0,0-3-2.49,4.41,4.41,0,0,0-2.6-.38,10.06,10.06,0,0,0-2.61,1l-4.85,2.39q3.81,9.74,7.61,19.46l5.07-2.51a8.67,8.67,0,0,0,2.13-1.46,5.89,5.89,0,0,0,1.3-1.81,8.11,8.11,0,0,0,.59-2.4,12.83,12.83,0,0,0-.15-3.31A20.25,20.25,0,0,0,737.59,393Zm-.91,7.81a3.76,3.76,0,0,1-.87,1.63,6.15,6.15,0,0,1-2,1.44l-3,1.49L725,390.5l2.95-1.46a6.12,6.12,0,0,1,2.57-.79,4.16,4.16,0,0,1,2.61,1.32,11.83,11.83,0,0,1,2.56,4.33,17.79,17.79,0,0,1,1.1,3.93A8,8,0,0,1,736.68,400.8Z" style="fill: #1a171b"/>
  </g>
</svg>
