<svg xmlns="http://www.w3.org/2000/svg" viewBox="0 0 1260 1012.04">
  <g>
    <path d="M0,90.08H0C420-181.24,840,273.28,1260,2h0C840,273.28,420-181.24,0,90.08Z" style="fill: #fff;fill-rule: evenodd"/>
    <path d="M0,1010.08C420,738.76,840,1193.28,1260,922V2C840,273.28,420-181.24,0,90.08Z" style="fill: #fff;fill-rule: evenodd"/>
    <path d="M458.62,254.55c52.25,37.46,104.49,78,156.74,118.75-41.24-59.43-82.47-118.7-123.71-176.43C477.92,212.82,466.7,232.47,458.62,254.55Z" style="fill: #131516;fill-rule: evenodd"/>
    <path d="M497,191c39.46,59.81,78.92,121,118.38,182.29q-34.44-107.68-68.88-215C528.15,164.81,511.35,176,497,191Z" style="fill: #131516;fill-rule: evenodd"/>
    <path d="M553.34,156q31,108.41,62,217.29-1.86-109.83-3.71-219.65A124.78,124.78,0,0,0,553.34,156Z" style="fill: #131516;fill-rule: evenodd"/>
    <path d="M615.36,373.3c57.09,10.84,114.18,22,171.27,29.82a295,295,0,0,0-11.55-76.55C721.84,343.85,668.6,358.44,615.36,373.3Z" style="fill: #131516;fill-rule: evenodd"/>
    <path d="M615.36,373.3c52.27-18,104.54-35.8,156.82-56.1a288.16,288.16,0,0,0-33-69.21C697.89,290.51,656.62,331.83,615.36,373.3Z" style="fill: #131516;fill-rule: evenodd"/>
    <path d="M615.36,373.3c39.49-44.13,79-88.11,118.46-133.15a241.29,241.29,0,0,0-49.42-52.29Q649.89,280.74,615.36,373.3Z" style="fill: #131516;fill-rule: evenodd"/>
    <path d="M615.36,373.3q31-95.28,62.1-190.63c-18.58-13.14-38.36-22.53-58.3-27.39Q617.26,264.28,615.36,373.3Z" style="fill: #131516;fill-rule: evenodd"/>
    <path d="M444.17,335.87c57.06,9.74,114.13,23.43,171.19,37.43C562.17,335.28,509,297.52,455.8,263A252.62,252.62,0,0,0,444.17,335.87Z" style="fill: #131516;fill-rule: evenodd"/>
    <path d="M490.76,211.06l-1.13,1.45-1.13,1.56c-.38.52-.75,1-1.13,1.55l-1.13,1.67c-.38.55-.76,1.1-1.13,1.66l-1.05,1.67L483,222.3,482,224l-1,1.78-1.05,1.78-1.05,1.68-1,1.91-1,1.79c-.32.6-.64,1.2-1,1.8s-.64,1.27-1,1.9-.64,1.2-1,1.8l-.88,1.92c-.3.61-.6,1.21-.89,1.82l-.81,1.93-.89,1.92-.81,1.83c-.26.64-.53,1.28-.8,1.93s-.49,1.23-.73,1.84c37.9,27.47,75.8,56.45,113.7,85.88-30-43.09-60-85.89-90-127.88Z" style="fill: #fee200;fill-rule: evenodd"/>
    <path d="M541.39,170.4l-1.61.71-1.54.72-1.61.71-1.62.81-1.53.83-1.62.82-1.53.94-1.62.82-1.53.93-1.53,1.05-1.54.94-1.53,1-1.54.94-1.53,1.05-1.46,1.06-1.45,1.17L515.15,186l-1.46,1.17-1.37,1.18L511,189.55l-1.37,1.19-1.38,1.19-1.29,1.2c28.69,43.66,57.39,88,86.08,132.51q-25-78.12-50-155.95Z" style="fill: #fee200;fill-rule: evenodd"/>
    <path d="M604.46,161.17l-1.78-.18-1.77-.28-1.78-.18-1.78-.07-1.78-.18-1.77-.07-1.78-.08-1.77-.07-1.78,0-1.78,0-1.77,0-1.78,0-1.78.14-1.78.14-1.77.13-1.7.16-1.77.24-1.7.16-1.77.25-1.7.26-1.78.35-1.69.26-1.7.37-1.61.28Q584.92,241.86,607.44,321q-1.46-79.92-2.9-159.84Z" style="fill: #fee200;fill-rule: evenodd"/>
    <path d="M779.28,388.17l-.16-2.3c0-.77-.11-1.53-.16-2.3l-.24-2.31c-.08-.77-.16-1.54-.25-2.31l-.24-2.31-.24-2.31c-.11-.78-.21-1.55-.32-2.33l-.33-2.32-.32-2.33c-.11-.77-.21-1.55-.32-2.32s-.27-1.56-.41-2.34-.27-1.56-.4-2.34-.27-1.56-.4-2.34-.27-1.56-.41-2.34l-.4-2.34c-.16-.75-.33-1.5-.49-2.25l-.48-2.35-.48-2.36c-.17-.75-.33-1.5-.49-2.25s-.38-1.51-.56-2.26-.33-1.5-.49-2.25l-.57-2.27C732.42,349.84,693.71,361,655,371.82c41.5,7.76,83,15.24,124.51,21v-.2l-.08-2.19C779.39,389.7,779.33,388.93,779.28,388.17Z" style="fill: #fee200;fill-rule: evenodd"/>
    <path d="M761.11,306.77c-.27-.7-.54-1.4-.8-2.1l-.81-2.21c-.3-.75-.59-1.49-.89-2.23l-.89-2.12-.88-2.23c-.33-.71-.65-1.42-1-2.14l-.88-2.22-1-2.14-1-2.14L752,285l-1-2-1-2.15-1.05-2.16-1-2.05-1.13-2.07-1-2.06-1.13-2.07-1-2.06c-.38-.65-.75-1.31-1.13-2s-.76-1.31-1.13-2-.81-1.25-1.21-1.88-.76-1.24-1.13-1.87c-30,30.93-60,61.22-90,91.39,38-13.11,75.91-26.4,113.86-40.93l-.81-2.11Z" style="fill: #fee200;fill-rule: evenodd"/>
    <path d="M721.3,235.1c-.45-.58-.91-1.15-1.37-1.72l-1.37-1.72-1.46-1.74-1.37-1.72-1.45-1.64-1.54-1.75-1.45-1.64-1.53-1.65L708.3,220l-1.53-1.65-1.54-1.56-1.61-1.67-1.54-1.56-1.53-1.45-1.62-1.57-1.53-1.46-1.61-1.47-1.62-1.47-1.53-1.35L691,203.39,689.41,202l-1.54-1.35q-25.07,67.46-50.14,134.69c28.72-32.09,57.44-64.22,86.16-96.86l-1.3-1.7Z" style="fill: #fee200;fill-rule: evenodd"/>
    <path d="M665.1,183.74l-1.69-1-1.7-1.08-1.78-1-1.69-1-1.78-.9-1.78-1-1.77-.9-1.78-.9-1.78-.9-1.77-.9-1.78-.8-1.77-.8-1.78-.8-1.78-.8-1.78-.7-1.77-.69-1.78-.7-1.77-.59-1.78-.7-1.78-.6-1.69-.47-1.78-.59-.16,0-2.91,158.58q22.62-69.32,45.22-138.66l-1.61-1C666.28,184.48,665.69,184.11,665.1,183.74Z" style="fill: #fee200;fill-rule: evenodd"/>
    <path d="M459.19,277.13l-.57,2.08-.48,2.09-.57,2.08-.48,2.2c-.16.73-.33,1.46-.49,2.19s-.27,1.4-.4,2.11-.32,1.46-.49,2.19-.26,1.48-.4,2.21-.27,1.47-.4,2.21-.27,1.47-.41,2.21-.21,1.48-.32,2.22l-.4,2.21-.33,2.22c-.1.74-.21,1.48-.32,2.22l-.24,2.24-.32,2.22c-.09.74-.17,1.49-.25,2.23l-.24,2.24c-.05.74-.11,1.49-.16,2.24s-.11,1.5-.16,2.25-.11,1.49-.16,2.24-.11,1.5-.17,2.25-.1,1.43-.16,2.14v.21c41.54,7.41,83.07,16.83,124.6,26.86C537.14,327.23,498.4,300.3,459.67,275Z" style="fill: #fee200;fill-rule: evenodd"/>
    <path d="M615.36,291.07c-35.05-7.68-63.55,23-63.55,67.79s28.5,87.15,63.55,94.82S679,431,679,386.16,650.41,298.74,615.36,291.07Z" style="fill: #1f1a17;fill-rule: evenodd"/>
    <path d="M615.36,301.8c-30.36-6.64-55.07,19.89-55.07,58.81s24.71,75.6,55.07,82.24,55.23-19.67,55.23-58.48S645.8,308.45,615.36,301.8Z" style="fill: #da251d;fill-rule: evenodd"/>
    <path d="M417.6,328V689.69c0,67,43,126.91,95.45,137,68.39,12.89,136.79,29.34,205.18,43.1,52.49,10.74,95.37-38,95.37-105.16V403c-132-19.1-264-59.09-396-74.92Z" style="fill: #1f1a17;fill-rule: evenodd"/>
    <path d="M424.79,686.24c0,64.66,41.34,122.57,92,132.37,65.92,12.53,131.84,28.29,197.76,41.64,50.55,10.4,92-36.28,92-101V655.12c-127.23-19.12-254.47-56.9-381.7-73Z" style="fill: #fee200;fill-rule: evenodd"/>
    <path d="M424.54,569.41c62.24,7.86,124.47,20.91,186.7,34.43v-232c-62.23-13.53-124.46-26.58-186.7-34.43Z" style="fill: #da251d;fill-rule: evenodd"/>
    <path d="M621.17,606c61.83,13.48,123.66,27.17,185.49,36.46V410.4c-61.83-9.28-123.66-23-185.49-36.45Z" style="fill: #0063a8;fill-rule: evenodd"/>
    <path d="M732,492q-8-30.66-16-61.37-8,27.48-16,54.92c-17.25-3.58-34.5-7.3-51.76-11.05q20.92,22.56,41.83,45-7.95,27.42-15.91,54.82Q695.07,560.73,716,547q21,22.23,41.91,44.09-8-30.55-16-61.18,21-14,41.9-28.49Q757.88,497.08,732,492Z" style="fill: #fff;fill-rule: evenodd"/>
    <path d="M783.8,500.51c-17.11-2.85-34.23-6-51.34-9.34q-7.92-30.35-15.83-60.75c-.2-.75-1.12-.93-1.31-.26q-7.92,27.19-15.83,54.36-25.63-5.32-51.27-10.95a.57.57,0,0,0-.66.49,1.19,1.19,0,0,0,.28,1.05q20.68,22.32,41.38,44.51-7.86,27.12-15.73,54.21a1.16,1.16,0,0,0,.23,1,.8.8,0,0,0,.42.28.59.59,0,0,0,.39-.07q20.72-13.41,41.44-27,20.76,22,41.52,43.69a.6.6,0,0,0,.82.11.94.94,0,0,0,.22-1q-7.89-30.23-15.8-60.5,20.73-13.86,41.46-28.2a.9.9,0,0,0,.28-.95A.92.92,0,0,0,783.8,500.51Zm-42.29,28.57a.89.89,0,0,0-.27,1l15.29,58.53q-20.09-20.93-40.17-42.27a.6.6,0,0,0-.77-.16q-20.05,13.22-40.1,26.16,7.6-26.22,15.22-52.45a1.19,1.19,0,0,0-.27-1.08q-20-21.39-39.94-42.95c16.49,3.58,33,7.13,49.49,10.55a.56.56,0,0,0,.65-.45L716,433.26l15.34,58.87a1,1,0,0,0,.65.72q24.79,4.84,49.57,9Q761.52,515.73,741.51,529.08Z" style="fill: #1f1a17"/>
    <path d="M579.67,452.9c-.06-.32-.11-.64-.16-1l-.09-.84-.16-.76c0-.25-.11-.5-.16-.75l-.16-.55-.24-.57-.24-.56-.33-.49-.32-.27-.24-.36-.4-.39-.33-.18-.4-.19-.41-.19-.48-.2-.49-.11-.56-.12-1.13-.13-1.21-.15-1.38-.08-1.53-.22-1.61-.24-1.78-.27L552,436q-7.87-6.61-15.75-13.18l-1.05-.83-1-.5-1-.3-.89-.17-.81.15-.73.37-.72.48-.65.8-.65.8-.56,1c-.16.38-.32.76-.49,1.14l-.48,1.25-.4,1.36c-.17.52-.33,1-.49,1.56s-.21,1.06-.32,1.59-.22,1.12-.32,1.69-.27,1.11-.41,1.67l-.24,1.71-.24,1.81-.33,1.8-.48,3.72c-.13,1.24-.27,2.49-.4,3.74s-.27,2.35-.41,3.53-.21,2.16-.32,3.24l-.24,1.6-.25,1.4c0,.47-.1.95-.16,1.42L522,460l3.72-1.66,3.47-1.49,1.53-.62,1.62-.62.72-.16.73-.17.73-.16.72-.06L536,455l.73-.06.72.14.73.14.65.13.72.36.73.35.65.33.72.56.73.56.73.66.64.75.73.87.73,1,.8,1.08.73,1.08.65,1.06c.19.38.37.77.56,1.15s.33.68.49,1l.48,1.13.48,1.13.33,1.09c.11.37.21.74.32,1.1s.22.8.32,1.2.17.72.25,1.09l.24,1.18c0,.35,0,.7.08,1.05s.11.84.16,1.27.06.7.08,1.05v2.16c0,.41,0,.82-.08,1.22s-.11.67-.16,1-.11.67-.16,1-.11.74-.16,1.11l-.33,1.07-.24,1-.4.94c-.14.32-.27.64-.41.95s-.26.64-.4.95-.38.54-.56.82l-.49.83-.56.81-.65.7c-.22.26-.43.53-.65.8l-.72.67-.73.68-.81.56L542,495.86l-1.62,1-1.61,1-1.7.9-1.69.8-1.7.8L532,501l-1.69.49-1.78.48-1.69.29-1.78.27-1.78.07-1.77.07-1.7-.12-1.78-.23-1.69-.43-1.7-.42-1.69-.74-1.62-.72-1.69-.93-1.54-1-1.61-1.23L505,495.51,503.44,494,502,492.28l-1.37-1.8c-.46-.67-.91-1.34-1.37-2l-1.37-2.21c-.41-.76-.81-1.52-1.21-2.28l-1.22-2.49c-.4-.93-.8-1.86-1.21-2.79l-1.05-2.88c-.19-.54-.37-1.09-.56-1.64s-.27-1.08-.41-1.62l-.32-1.4-.4-1.51-.24-1.49-.33-1.3c-.05-.42-.11-.84-.16-1.26s-.11-.92-.16-1.37-.11-.85-.16-1.27v-1.13c0-.42-.06-.84-.08-1.26v-2.27l.08-1.22c0-.37.05-.75.08-1.12s.11-.74.16-1.11.11-.74.16-1.11.11-.73.16-1.1.16-.73.25-1.09.1-.81.16-1.22c.18-.75.37-1.51.56-2.27l.57-2.37c.21-.86.43-1.72.64-2.57l.65-2.57c.24-.95.48-1.91.73-2.86l.72-3.07Q474.45,407,453.62,379.87q4.8,19.56,9.6,39.14c.3,1.36.6,2.71.89,4.06s.65,2.86,1,4.28c.14.75.27,1.49.41,2.24s.26,1.48.4,2.23.27,1.48.4,2.23.27,1.56.41,2.33.27,1.63.4,2.44.22,1.62.32,2.43l.33,2.42c.1.81.21,1.62.32,2.43l.24,2.41.24,2.52c.08.83.17,1.67.25,2.51s.1,1.6.16,2.4.11,1.67.16,2.5.11,1.67.16,2.5v2.37c0,.83.05,1.67.08,2.5v4.74c0,.79-.05,1.57-.08,2.36s-.11,1.5-.16,2.25-.11,1.49-.16,2.24-.11,1.5-.16,2.24l-.33,2.12-.32,2.11c-.13.67-.27,1.33-.4,2l-.33,2c-.18.63-.37,1.25-.56,1.87s-.32,1.19-.49,1.78l-1.05,3.34L464.27,498l-1,3.24c-.35,1.08-.7,2.16-1,3.24l-1.06,3.13c-.34,1.12-.69,2.23-1,3.35L459,514.11c-.33,1.09-.65,2.17-1,3.25l-.25.69-.16.8c0,.2,0,.41-.08.61s-.05.54-.08.81v1.34c0,.21.06.42.08.63s.06.42.08.63l.16.65.17.64.24.55.24.66.32.47.33.56.32.46.4.48.41.37.4.48.48.38.41.37.48.28.57.3.48.18.57.3.48.07.57.19.64.11.57.09.48,0H467l.57-.12h.56l2.75-.7,2.74-.68,2.75-.68,2.74-.67,2.75-.67,2.82-.76,2.75-.56,2.75-.65,1.61-.33,1.7-.33,1.77-.3,1.78-.19,1.86-.08,1.85-.08,1.94-.16,1.94,0,2,.07,2,.06,2.1.09,2,.16,2.09.3,2.1.19,2.1.4,2.1.41,2.1.4,2,.6,2.1.51,2.1.62,2,.6,2,.81,2,.71,1.93.8,1.94.8,1.86,1,1.78,1,1.85,1.09,1.78,1.09,1.61,1,1.7,1.27,1.53,1.24q8.37,7.18,16.72,14.41l.57.43.64.44.65.45.57.22.64.24.56.22.57,0,.57.12h.56l.49-.1.48-.11.48-.1.49-.31.4-.22.4-.33.41-.33.32-.45.33-.44.24-.57.32-.55c.06-.2.11-.39.16-.59l.24-.57.16-.68.09-.81.08-.7c0-.27,0-.55.08-.82v-.71c0-.29,0-.57-.08-.85l-.08-.84c-.06-.32-.11-.64-.16-1s-.11-.65-.17-1l-.24-.87q-2.58-9.84-5.17-19.67l-.48-2.68c-.13-.92-.27-1.85-.4-2.77s-.27-2-.41-3l-.48-3.1c-.14-1.06-.27-2.12-.4-3.18l-.33-3.16c-.11-1.13-.22-2.25-.32-3.37l-.24-3.25c-.06-1.08-.11-2.16-.17-3.23s-.1-2.16-.16-3.23v-4.65c0-.51.06-1,.08-1.53s.06-1,.08-1.53.06-.95.08-1.43.11-.94.16-1.41.11-.87.17-1.31l.24-1.39.24-1.19.24-1.29.33-1.17,1-2.36c.4-.77.8-1.55,1.21-2.32l1-2.26c.38-.81.75-1.62,1.13-2.44l1.05-2.35,1-2.26,1.13-2.34,1.05-2.35V455c0-.38-.06-.76-.08-1.14S579.69,453.21,579.67,452.9Z" style="fill: #fee200;fill-rule: evenodd"/>
    <path d="M580.09,451c-.18-.76-.37-1.52-.55-2.29-.2-.44-.4-.88-.59-1.32l-.32-.48a1.3,1.3,0,0,0-.18-.21l-.93-1a1.1,1.1,0,0,0-.18-.14l-1.79-.82-4.8-.59-4.8-.71q-6.84-4.12-13.67-8.21-7.89-6.62-15.77-13.2l-1.17-.91-1.08-.54-1.91-.49a.45.45,0,0,0-.2,0l-.95.2-1.5.88a.49.49,0,0,0-.13.12c-.46.56-.91,1.13-1.36,1.7l-.6,1.1c-.34.83-.67,1.65-1,2.48-.31,1-.61,2-.91,3-.35,1.67-.71,3.34-1.06,5l-.81,5.32c-.16,1.25-.33,2.5-.49,3.75-.37,3.49-.75,7-1.12,10.47-.17,1-.33,2-.49,3l-.15,1.33-.24,1.19a1.19,1.19,0,0,0,.24,1,.64.64,0,0,0,.74.24l7.18-3.14,3.06-1.21,4.15-.68,1.95.37,2,1,2,1.64,2.83,3.59,1.3,2,1.94,4.23,1.41,5.41.24,2.33c0,1,.06,2,.08,3-.17,1.37-.35,2.74-.53,4.11-.17.65-.35,1.31-.53,2l-1.14,2.72-1,1.64-1.77,2.21-1.39,1.3-5.59,3.69-5,2.46-1.67.58-3.42,1-3.41.56-3.49.13-3.37-.33-3.3-.82-3.25-1.43-1.64-.9-1.49-1-1.58-1.2-1.49-1.27-1.48-1.47c-.47-.55-.94-1.11-1.42-1.66s-.89-1.17-1.34-1.76l-1.34-2-1.34-2.15c-.4-.74-.79-1.49-1.19-2.24s-.79-1.62-1.19-2.44l-1.19-2.73c-.52-1.47-1.05-2.93-1.57-4.39l-1.11-4.44L491.9,468c-.1-.38-.2-.77-.29-1.15l-.48-3.76c0-1.53-.06-3-.08-4.58l.15-2.26c.24-1.48.49-2.95.73-4.43.05-.37.09-.73.14-1.1Q494,442.86,496,435a1.17,1.17,0,0,0-.2-.94q-20.83-27.66-41.67-54.77a.61.61,0,0,0-.84-.21.91.91,0,0,0-.28,1q4.8,19.53,9.6,39.1.92,4.16,1.85,8.3c.53,3,1.07,6,1.61,9,.45,3.21.91,6.42,1.36,9.63q.6,7.36,1.21,14.73,0,4.79.08,9.57c-.19,3-.37,6-.56,9l-.63,4.18c-.14.68-.28,1.36-.41,2l-.3,1.89c-.35,1.22-.7,2.43-1,3.65q-3.68,11.28-7.36,22.58c-.31,1.08-.63,2.15-.95,3.22l-.28.81c-.06.29-.11.58-.17.87-.06.52-.12,1-.17,1.56s0,1,0,1.49l.18,1.4c.29.88.57,1.75.85,2.62a1.05,1.05,0,0,0,.13.26c.21.34.43.68.65,1l1.71,2,1,.82,2.13,1.07a.6.6,0,0,0,.19.06l.39,0,.66.22,1.32.2,2.37-.16q11-2.76,22-5.36l5.05-1,7.36-.5,10,.41,2.13.31,2,.18q5.19,1.14,10.37,2.3l8.09,2.72,3.82,1.57,3.61,2,5.17,3.18,1.67,1.25q9.15,7.8,18.28,15.67l2,1.42,1.77.68.1,0h.1l1.14.13h.68l1.45-.31a.51.51,0,0,0,.17-.07l1.85-1.34,1.25-2.07a1.08,1.08,0,0,0,.08-.19L579,551l.18-.81c.09-.82.17-1.63.25-2.44V547c-.18-1.27-.35-2.54-.53-3.82l-5.38-20.44-1.77-11.45c-.13-1.05-.26-2.1-.4-3.15-.21-2.17-.43-4.34-.64-6.51q-.29-4.8-.56-9.62v-4.59c0-1,.1-2,.16-3.06s.15-1.84.23-2.76c.29-1.68.58-3.36.86-5,.1-.35.19-.7.28-1.05.35-.77.69-1.54,1-2.31l1.23-2.36,6.46-14a.87.87,0,0,0,.08-.4v-1.32C580.38,453.7,580.23,452.35,580.09,451Zm-7.32,18.67L571.54,472l-1.09,2.47-.83,3.74-.58,4.23L568.8,487v4.71l.57,9.76q.32,3.28.65,6.57.86,6,1.7,12.08l.51,2.78q2.58,9.83,5.17,19.68c.07.25.15.5.22.75.1.62.2,1.23.31,1.84s.11,1.46.16,2.19-.15,1.46-.22,2.19l-.53,1.7-1,1.76-1.57,1.1-1.25.29-1.13-.14h-.47l-1.52-.56q-9.27-7.87-18.53-15.7l-3.3-2.56-3.41-2.16-5.58-3.1-8-3.14c-2.77-.79-5.53-1.57-8.3-2.34-1.4-.28-2.8-.54-4.2-.81-2.12-.31-4.23-.61-6.35-.9-2.73-.14-5.46-.26-8.19-.38l-7.65.27-1.81.2-10.62,2.18q-8.21,2-16.42,4.14l-.66,0-.47.11-2.15-.14-.67-.21-.39-.07-1.84-.89-1.62-1.52L459,524.94l-.69-2.1c0-.79-.11-1.57-.16-2.36l.08-.77,1.41-5.17,6.3-19.25,2.13-7.12c.25-1.34.49-2.68.73-4l.66-4.31.57-9.18L470,461q-.48-6.24-1-12.48c-.41-3.25-.81-6.5-1.22-9.76L467,434l-3.09-15.11q-4.39-18-8.8-35.87,19.71,25.62,39.42,51.8l-3.78,15.31c-.3,1.89-.59,3.79-.89,5.69-.06.8-.11,1.61-.17,2.42l.09,4.8.51,4.05c.11.4.21.8.31,1.19s.17,1.08.26,1.61c.39,1.54.77,3.08,1.16,4.61l1.65,4.6,1.23,2.85,1.23,2.52,1.25,2.35c.47.75.93,1.5,1.4,2.24l1.4,2.05,1.41,1.84,1.51,1.77,1.58,1.57,1.57,1.34,1.66,1.26,1.59,1,1.74,1,3.42,1.48,3.46.87,1.81.24,1.75.12,3.61-.15,3.53-.57,1.78-.48,3.47-1.11,5.15-2.53,5.73-3.77,2.83-2.95,1.69-2.6c.42-1,.84-2,1.25-3,.2-.72.39-1.43.59-2.14.16-1.07.33-2.13.49-3.19l.09-1.3c0-.75,0-1.5,0-2.25-.11-1.18-.23-2.35-.34-3.52-.08-.4-.17-.8-.25-1.2l-1.28-4.7c-.7-1.53-1.4-3.05-2.09-4.58l-.68-1.11-2.33-3.23-1.46-1.71-2.34-1.89-2.27-1.1-2.25-.43-4.5.71L523,458.6l.34-2.28,1.38-12.14q.63-4.46,1.27-8.93c.34-1.63.69-3.26,1-4.89l.87-2.87c.31-.76.62-1.53.92-2.29.17-.31.34-.62.5-.93l1.24-1.53,1.19-.72.71-.14.73.14.86.26.84.42q8.45,7,16.89,14.07l13.88,8.34a.48.48,0,0,0,.24.09l5,.74,1.33.07,3.23.46,1.5.7.39.49a.91.91,0,0,0,.18.21l.25.21.54,1.14.69,3.63.15,3Z" style="fill: #1f1a17"/>
    <path d="M479.46,708.71c19.16,3.24,38.32,6.83,57.49,10.65q-14.87-46.46-29.72-92.7Q493.34,667.57,479.46,708.71Z" style="fill: #48a55c;fill-rule: evenodd"/>
    <path d="M507.23,625.77h0a.57.57,0,0,0-.63.43q-13.89,40.92-27.78,82.07a1.18,1.18,0,0,0,.07.84.84.84,0,0,0,.58.49c19.16,3.23,38.33,6.83,57.49,10.64a.52.52,0,0,0,.58-.28,1.07,1.07,0,0,0,.06-.83q-14.87-46.46-29.72-92.71A.89.89,0,0,0,507.23,625.77ZM480.49,708q13.38-39.64,26.76-79.07,14.32,44.57,28.64,89.33C517.42,714.59,499,711.13,480.49,708Z" style="fill: #1f1a17"/>
    <path d="M685.29,751c19.19,4,38.38,8,57.57,11.63q-14.9-46.32-29.79-92.85Q699.18,710.46,685.29,751Z" style="fill: #48a55c;fill-rule: evenodd"/>
    <path d="M713.07,668.9h0a.57.57,0,0,0-.64.42Q698.53,710,684.65,750.53a1.15,1.15,0,0,0,.06.85.9.9,0,0,0,.58.51c19.19,4.06,38.38,8,57.58,11.64a.56.56,0,0,0,.58-.29,1,1,0,0,0,0-.83q-14.89-46.32-29.8-92.85A1,1,0,0,0,713.07,668.9Zm-26.75,81.44q13.39-39.09,26.77-78.27,14.35,44.82,28.71,89.48C723.31,758,704.82,754.24,686.32,750.34Z" style="fill: #1f1a17"/>
    <path d="M584,729.1c19.16,4.09,38.33,8.29,57.49,12.46q-14.85-46.72-29.72-93.45Q597.85,688.58,584,729.1Z" style="fill: #48a55c;fill-rule: evenodd"/>
    <path d="M611.72,647.22a.55.55,0,0,0-.64.41q-13.89,40.47-27.77,81a1.15,1.15,0,0,0,.06.85.9.9,0,0,0,.58.51c19.16,4.09,38.33,8.29,57.49,12.47a.52.52,0,0,0,.58-.28,1,1,0,0,0,.06-.82q-14.87-46.73-29.72-93.46C612.25,647.54,612,647.19,611.72,647.22ZM585,728.43q13.38-39,26.77-78,14.31,45,28.63,90.06Q612.67,734.41,585,728.43Z" style="fill: #1f1a17"/>
    <path d="M482,765.06q25.52,4.35,51,9.44v17.85c52.65,10.4,105.3,22.56,158,33.62V808.12q25.51,5.37,51,10.28V782.59C655.3,766.05,568.63,744,482,729.25Z" style="fill: #48a55c;fill-rule: evenodd"/>
    <path d="M742,781.71c-86.68-16.54-173.35-38.57-260-53.34-.38-.06-.7.28-.7.77v35.8a1,1,0,0,0,.7,1q25.17,4.29,50.34,9.3v17a1,1,0,0,0,.69,1c52.65,10.41,105.3,22.57,158,33.63.39.08.7-.25.7-.74v-17q25.17,5.29,50.34,10.13c.38.08.69-.26.69-.75V782.72A1,1,0,0,0,742,781.71Zm-.7,35.67c-16.78-3.2-33.56-6.62-50.34-10.14-.38-.08-.69.25-.69.74v17c-52.19-11-104.37-23-156.56-33.34v-17a1,1,0,0,0-.7-1c-16.78-3.32-33.56-6.46-50.34-9.32v-34c86.21,14.73,172.42,36.61,258.63,53.09Z" style="fill: #1f1a17"/>
  </g>
</svg>
