<svg xmlns="http://www.w3.org/2000/svg" xmlns:xlink="http://www.w3.org/1999/xlink" viewBox="0 0 1260 1012.04">
  <defs>
    <linearGradient id="a" x1="643.56" y1="660.19" x2="696.64" y2="713.27" gradientTransform="matrix(1, -0.07, 0, 1, 0, 44.05)" gradientUnits="userSpaceOnUse">
      <stop offset="0.25" stop-color="#f9b64a"/>
      <stop offset="0.42" stop-color="#f7b449"/>
      <stop offset="0.53" stop-color="#f4ac45"/>
      <stop offset="0.64" stop-color="#ed9e3f"/>
      <stop offset="0.73" stop-color="#e48a37"/>
      <stop offset="0.82" stop-color="#da712e"/>
      <stop offset="0.9" stop-color="#cd5126"/>
      <stop offset="0.98" stop-color="#c02820"/>
      <stop offset="1" stop-color="#bc101e"/>
    </linearGradient>
    <linearGradient id="b" x1="684.5" y1="698.73" x2="731.71" y2="651.53" gradientTransform="matrix(1, -0.07, 0, 1, 0, 44.05)" gradientUnits="userSpaceOnUse">
      <stop offset="0.32" stop-color="#c7c6c5"/>
      <stop offset="0.44" stop-color="#b5b3b0"/>
      <stop offset="0.7" stop-color="#8b8780"/>
      <stop offset="0.9" stop-color="#6e6962"/>
      <stop offset="1" stop-color="#625d56"/>
    </linearGradient>
    <linearGradient id="c" x1="693.92" y1="690.74" x2="695.37" y2="689.29" xlink:href="#b"/>
    <linearGradient id="d" x1="616.71" y1="790.82" x2="830.1" y2="577.43" xlink:href="#b"/>
    <linearGradient id="e" x1="730.21" y1="709.78" x2="737.45" y2="702.54" gradientTransform="matrix(1, -0.07, 0, 1, 0, 44.05)" gradientUnits="userSpaceOnUse">
      <stop offset="0.12" stop-color="#aba7b3"/>
      <stop offset="0.18" stop-color="#a6a1ab"/>
      <stop offset="0.57" stop-color="#807c7a"/>
      <stop offset="0.85" stop-color="#64605a"/>
      <stop offset="1" stop-color="#58544d"/>
    </linearGradient>
    <linearGradient id="f" x1="686.64" y1="744.3" x2="800.25" y2="630.69" xlink:href="#e"/>
    <linearGradient id="g" x1="714.35" y1="733.77" x2="753.87" y2="694.25" xlink:href="#b"/>
    <linearGradient id="h" x1="660.01" y1="720.34" x2="704.15" y2="676.19" xlink:href="#b"/>
    <linearGradient id="i" x1="655.2" y1="756.28" x2="706.47" y2="705.01" gradientTransform="matrix(1, -0.07, 0, 1, 0, 44.05)" gradientUnits="userSpaceOnUse">
      <stop offset="0.12" stop-color="#aba7b3"/>
      <stop offset="0.4" stop-color="#a19796"/>
      <stop offset="0.79" stop-color="#928375"/>
      <stop offset="1" stop-color="#8b7b69"/>
    </linearGradient>
    <linearGradient id="j" x1="719.15" y1="728.7" x2="749.5" y2="698.35" xlink:href="#i"/>
    <linearGradient id="k" x1="666.11" y1="713.78" x2="707.36" y2="672.53" gradientTransform="matrix(1, -0.07, 0, 1, 0, 44.05)" gradientUnits="userSpaceOnUse">
      <stop offset="0.12" stop-color="#aba7b3"/>
      <stop offset="0.69" stop-color="#d2c9c0"/>
      <stop offset="1" stop-color="#e3d8c3"/>
    </linearGradient>
    <linearGradient id="l" x1="712.77" y1="659.24" x2="713.22" y2="658.78" xlink:href="#k"/>
    <linearGradient id="m" x1="700.25" y1="680.4" x2="723.83" y2="656.82" xlink:href="#k"/>
    <linearGradient id="n" x1="505.45" y1="597.8" x2="505.45" y2="551.7" gradientTransform="matrix(1, -0.07, 0, 1, 0, 44.05)" gradientUnits="userSpaceOnUse">
      <stop offset="0.43" stop-color="#8e6a58"/>
      <stop offset="0.55" stop-color="#b39989"/>
      <stop offset="0.69" stop-color="#dbcdc5"/>
      <stop offset="0.8" stop-color="#f5f1ee"/>
      <stop offset="0.86" stop-color="#fff"/>
    </linearGradient>
    <linearGradient id="o" x1="592.05" y1="604.98" x2="592.05" y2="590.61" gradientTransform="matrix(1, -0.07, 0, 1, 0, 44.05)" gradientUnits="userSpaceOnUse">
      <stop offset="0.37" stop-color="#bd8d73"/>
      <stop offset="0.51" stop-color="#d3b3a0"/>
      <stop offset="0.67" stop-color="#eadbd1"/>
      <stop offset="0.79" stop-color="#f9f5f2"/>
      <stop offset="0.86" stop-color="#fff"/>
    </linearGradient>
    <linearGradient id="p" x1="589.05" y1="622.53" x2="589.05" y2="563.25" xlink:href="#o"/>
    <linearGradient id="q" x1="574.24" y1="583.73" x2="587.22" y2="583.73" gradientTransform="matrix(1, -0.07, 0, 1, 0, 44.05)" gradientUnits="userSpaceOnUse">
      <stop offset="0.01" stop-color="#42351e"/>
      <stop offset="0.23" stop-color="#715d43"/>
      <stop offset="0.43" stop-color="#907862"/>
      <stop offset="0.58" stop-color="#a18776"/>
      <stop offset="0.67" stop-color="#a78d7d"/>
    </linearGradient>
    <linearGradient id="r" x1="575.32" y1="606.6" x2="593.55" y2="575.03" gradientTransform="matrix(1, -0.07, 0, 1, 0, 44.05)" gradientUnits="userSpaceOnUse">
      <stop offset="0.21" stop-color="#c8bbb9"/>
      <stop offset="0.5" stop-color="#fbfdfe"/>
      <stop offset="0.53" stop-color="#f5f6f7"/>
      <stop offset="0.78" stop-color="#c8bbb9"/>
    </linearGradient>
    <linearGradient id="s" x1="496.65" y1="632.84" x2="581.54" y2="632.84" gradientTransform="matrix(1, -0.07, 0, 1, 0, 44.05)" gradientUnits="userSpaceOnUse">
      <stop offset="0.14" stop-color="#ebebec"/>
      <stop offset="0.53" stop-color="#f8f8f8"/>
      <stop offset="0.86" stop-color="#fff"/>
    </linearGradient>
    <linearGradient id="t" x1="546.25" y1="663.88" x2="546.77" y2="663.88" xlink:href="#s"/>
    <linearGradient id="u" x1="488.73" y1="604.24" x2="521.99" y2="550.61" gradientTransform="matrix(1, -0.07, 0, 1, 0, 44.05)" gradientUnits="userSpaceOnUse">
      <stop offset="0.21" stop-color="#c8bbb9"/>
      <stop offset="0.5" stop-color="#fff"/>
      <stop offset="0.53" stop-color="#f9f7f7"/>
      <stop offset="0.78" stop-color="#c8bbb9"/>
    </linearGradient>
    <linearGradient id="v" x1="476.71" y1="362.27" x2="477.07" y2="362.27" gradientTransform="matrix(1, -0.07, 0, 1, 0, 44.05)" gradientUnits="userSpaceOnUse">
      <stop offset="0.23" stop-color="#b18c64"/>
      <stop offset="0.3" stop-color="#a98660"/>
      <stop offset="0.4" stop-color="#957454"/>
      <stop offset="0.53" stop-color="#745840"/>
      <stop offset="0.68" stop-color="#453123"/>
      <stop offset="0.77"/>
    </linearGradient>
    <linearGradient id="w" x1="476.44" y1="356.49" x2="497.6" y2="356.49" xlink:href="#v"/>
    <linearGradient id="x" x1="476.8" y1="362.51" x2="477.29" y2="362.51" gradientTransform="matrix(1, -0.07, 0, 1, 0, 44.05)" gradientUnits="userSpaceOnUse">
      <stop offset="0.23" stop-color="#ddae7b"/>
      <stop offset="0.41" stop-color="#d3a375"/>
      <stop offset="0.71" stop-color="#b98764"/>
      <stop offset="0.77" stop-color="#b28060"/>
    </linearGradient>
    <linearGradient id="y" x1="449.22" y1="302.93" x2="552.61" y2="302.93" xlink:href="#x"/>
    <linearGradient id="z" x1="470.19" y1="316.44" x2="494.07" y2="316.44" gradientTransform="matrix(1, -0.07, 0, 1, 0, 44.05)" gradientUnits="userSpaceOnUse">
      <stop offset="0.38" stop-color="#c69060"/>
      <stop offset="1" stop-color="#947333"/>
    </linearGradient>
    <linearGradient id="aa" x1="503.24" y1="248.51" x2="516.2" y2="248.51" xlink:href="#z"/>
    <linearGradient id="ab" x1="508.05" y1="277.02" x2="521.17" y2="277.02" xlink:href="#z"/>
    <linearGradient id="ac" x1="523.16" y1="320.51" x2="543.12" y2="320.51" xlink:href="#z"/>
    <linearGradient id="ad" x1="499.98" y1="360.48" x2="513.21" y2="360.48" xlink:href="#z"/>
    <linearGradient id="ae" x1="513.11" y1="374.18" x2="518.24" y2="374.18" xlink:href="#z"/>
    <linearGradient id="af" x1="518.12" y1="353.52" x2="551.47" y2="353.52" xlink:href="#z"/>
    <linearGradient id="ag" x1="739.67" y1="384.51" x2="743.65" y2="384.51" xlink:href="#x"/>
    <linearGradient id="ah" x1="713.85" y1="358.33" x2="755.74" y2="358.33" xlink:href="#x"/>
    <linearGradient id="ai" x1="752.7" y1="394.96" x2="757.8" y2="394.96" xlink:href="#x"/>
    <linearGradient id="aj" x1="716.89" y1="361.47" x2="770.53" y2="361.47" xlink:href="#x"/>
    <linearGradient id="ak" x1="772.62" y1="406.39" x2="778.77" y2="406.39" xlink:href="#x"/>
    <linearGradient id="al" x1="731.27" y1="366.16" x2="795.82" y2="366.16" xlink:href="#x"/>
    <linearGradient id="am" x1="455.76" y1="310.04" x2="528.31" y2="310.04" xlink:href="#v"/>
    <linearGradient id="an" x1="504.16" y1="307.49" x2="538.64" y2="269.2" gradientTransform="matrix(1, -0.07, 0, 1, 0, 44.05)" gradientUnits="userSpaceOnUse">
      <stop offset="0.24" stop-color="#8f979b"/>
      <stop offset="0.45" stop-color="#e6f0f6"/>
      <stop offset="0.5" stop-color="#e0eaf0"/>
      <stop offset="0.58" stop-color="#d0dadf"/>
      <stop offset="0.68" stop-color="#b5bec3"/>
      <stop offset="0.79" stop-color="#8e959a"/>
      <stop offset="0.85" stop-color="#757b7f"/>
    </linearGradient>
    <linearGradient id="ao" x1="457.18" y1="315.75" x2="523.62" y2="315.75" xlink:href="#v"/>
    <linearGradient id="ap" x1="577.43" y1="469.25" x2="592.69" y2="469.25" gradientTransform="matrix(1, -0.07, 0, 1, 0, 44.05)" gradientUnits="userSpaceOnUse">
      <stop offset="0.01" stop-color="#f2f0f7"/>
      <stop offset="0.57" stop-color="#e4d9d0"/>
      <stop offset="0.91" stop-color="#ddcec0"/>
    </linearGradient>
    <linearGradient id="aq" x1="610.72" y1="474.26" x2="634.99" y2="474.26" xlink:href="#ap"/>
    <linearGradient id="ar" x1="566.48" y1="403.81" x2="624.28" y2="403.81" gradientTransform="matrix(1, -0.07, 0, 1, 0, 44.05)" gradientUnits="userSpaceOnUse">
      <stop offset="0.01" stop-color="#6cb1db"/>
      <stop offset="0.05" stop-color="#6badd8"/>
      <stop offset="0.45" stop-color="#678dc2"/>
      <stop offset="0.75" stop-color="#6577b2"/>
      <stop offset="0.91" stop-color="#656eac"/>
    </linearGradient>
    <linearGradient id="as" x1="568.6" y1="381.78" x2="602.68" y2="381.78" gradientTransform="matrix(1, -0.07, 0, 1, 0, 44.05)" gradientUnits="userSpaceOnUse">
      <stop offset="0.23" stop-color="#f9d67b"/>
      <stop offset="0.35" stop-color="#f4ce7a"/>
      <stop offset="0.53" stop-color="#e8ba77"/>
      <stop offset="0.77" stop-color="#d59870"/>
      <stop offset="0.77" stop-color="#d49770"/>
    </linearGradient>
    <linearGradient id="at" x1="610.5" y1="321.14" x2="637.17" y2="321.14" xlink:href="#as"/>
    <linearGradient id="au" x1="630.04" y1="345.82" x2="633.16" y2="345.82" xlink:href="#ap"/>
    <linearGradient id="av" x1="572.19" y1="372.99" x2="600.62" y2="372.99" xlink:href="#as"/>
    <linearGradient id="aw" x1="582.53" y1="390.18" x2="635.32" y2="390.18" gradientTransform="matrix(1, -0.07, 0, 1, 0, 44.05)" gradientUnits="userSpaceOnUse">
      <stop offset="0.01" stop-color="#f2f0f7"/>
      <stop offset="0.6" stop-color="#e5dad1"/>
      <stop offset="0.85" stop-color="#ddcec0"/>
    </linearGradient>
    <linearGradient id="ax" x1="594.01" y1="452.83" x2="613.73" y2="452.83" xlink:href="#as"/>
    <linearGradient id="ay" x1="577.18" y1="473.57" x2="591.71" y2="473.57" xlink:href="#as"/>
    <linearGradient id="az" x1="613.99" y1="483.04" x2="631.09" y2="483.04" xlink:href="#as"/>
    <linearGradient id="ba" x1="623.29" y1="454.85" x2="640.28" y2="454.85" xlink:href="#as"/>
    <linearGradient id="bb" x1="628.52" y1="446.59" x2="630.12" y2="446.59" xlink:href="#as"/>
    <linearGradient id="bc" x1="629.46" y1="331.3" x2="629.46" y2="350.35" gradientTransform="matrix(1, -0.07, 0, 1, 0, 44.05)" gradientUnits="userSpaceOnUse">
      <stop offset="0.32" stop-color="#c9c7c4"/>
      <stop offset="0.36" stop-color="#c3bebc"/>
      <stop offset="0.52" stop-color="#aa9a9c"/>
      <stop offset="0.61" stop-color="#a18d90"/>
    </linearGradient>
    <linearGradient id="bd" x1="624.15" y1="339.05" x2="624.15" y2="361.76" gradientTransform="matrix(1, -0.07, 0, 1, 0, 44.05)" gradientUnits="userSpaceOnUse">
      <stop offset="0.43" stop-color="#c2b6aa"/>
      <stop offset="0.5" stop-color="#d4c7c1"/>
      <stop offset="0.52" stop-color="#cfc2ba"/>
      <stop offset="0.55" stop-color="#c9beb3"/>
    </linearGradient>
    <linearGradient id="be" x1="622.24" y1="328.46" x2="622.24" y2="344.96" xlink:href="#bc"/>
  </defs>
  <g>
    <path d="M1260,2V922h0V2Z" style="fill: #fff;fill-rule: evenodd"/>
    <path d="M0,90.08v920C420,738.76,840,1193.28,1260,922V2C840,273.28,420-181.24,0,90.08Z" style="fill: #fff;fill-rule: evenodd"/>
    <path d="M622.81,796.54c65.56,14.29,131.12,28.79,196.68,38v-279c-65.56-9.17-131.12-23.67-196.68-38Z" style="fill: #fab900;fill-rule: evenodd"/>
    <path d="M794.94,785.92c-1.88.55-3,2-5,2.56-3.63,1-3.1,1.51-6.4-3-1.7-2.31.75-3.75-2.42-4.81-2.35-.78-4.18.53-4.36,3.56-1.91-.53-3-2.58-3.28-5.34-3.65,3.27-10.58-4.32-13-7.37-.21-6-3.13-4.44-5.46-8.71-1.61-3-1.12-9-3.26-12.57-1-1.65-5.21-4-6.08-6.48-1-2.76-.75-8.33-1.34-11.39-3.47-.14-6.23-2.45-9.57-3.21-3-.67-5.57,2-8.53-2.49-.81-1.22-1.07-6.13-1.56-7.82-1.62-5.57-2.1-3.64-4.29-6.8-7.68-11.11-12.56-22-19.57-33.24-.83-1.33-.38-4.19-1.34-5.11-1.23-1.18-3.46.06-4.7-1.05-3.47-3.09-2.38-2-4.48-7.23-1.87-4.68-5.43-10.39-6.75-14.51-1.73-5.39-1.58-10.67-3.54-15.66-3.72-9.45-6.92-5.14-13.76-7.95.18-6.44,1.66-12.29-.48-18.36-1.77-5-7.08-11.5-9.84-16.84-3-5.75-4.94-11.41-7.8-17-3-5.86-6.94-10.39-9.42-17.27-.63-.19-1.25-.36-1.91-.5,1.15-.63,1.92-2.16,3-2.88-5.53-9.65-3.39-14.22-4.4-24.64-1.41,0-2.44-1.49-3.65-1.73.21-2.27-.72-3.66-1.19-5.74l-7-.55L618.25,802c62,10,124,20.4,186,26.37q5.4-22.83,10.81-45.7c-3.56-.41-14,2.46-16.26,3.84S796.67,785.42,794.94,785.92Z" style="fill: #8ca5c6;fill-rule: evenodd"/>
    <path d="M798.58,786c-1,.62-1.37.32-1.85-.08a1.92,1.92,0,0,0-1.93-.55l-2.46,1.28a8.72,8.72,0,0,1-2.53,1.28l-1.08.3c-2.16.64-2.16.64-4.61-2.67l-.3-.41a2.84,2.84,0,0,1-.54-2.1c0-1.23-.08-2.21-2.11-2.89a3.39,3.39,0,0,0-3.41.5,4.6,4.6,0,0,0-1.28,2.87c-1.88-.8-2.45-3.19-2.59-4.63,0-.33-.07-.65-.1-1l-.58.52c-3.79,3.4-11.49-6.09-12.31-7.14-.2-3.68-1.47-4.72-2.84-5.78a8.71,8.71,0,0,1-2.68-3,17.7,17.7,0,0,1-1.27-5.25c-.38-2.59-.78-5.27-2-7.33a12.34,12.34,0,0,0-2.52-2.51c-1.43-1.21-3.05-2.58-3.5-3.85a27.8,27.8,0,0,1-.85-6.53l-.51-5.29-.4.06a14.58,14.58,0,0,1-5.41-1.66,21,21,0,0,0-4.1-1.54,7.83,7.83,0,0,0-2.9,0c-1.88.25-3.5.48-5.34-2.31a17.49,17.49,0,0,1-.94-4.5c-.18-1-.36-2.08-.53-3.13-1.05-3.6-1.67-4.25-2.67-5.1l-1.72-1.9a219.1,219.1,0,0,1-11.51-19.22c-2.51-4.55-5.11-9.26-8.05-14a6.15,6.15,0,0,1-.49-2.24c-.13-1.15-.26-2.35-.94-3a3.43,3.43,0,0,0-2.67-.68,3,3,0,0,1-2-.39l-.36-.32c-2.2-2-2.2-2-2.91-3.93-.35-.91-.7-1.82-1-2.74-.85-2.12-2.05-4.47-3.21-6.74A56.85,56.85,0,0,1,684,650.8a48.34,48.34,0,0,1-1.56-7.28,39.77,39.77,0,0,0-2-8.42c-2.62-6.65-5.17-6.84-8.4-7.1a17.77,17.77,0,0,1-5.28-1.06c0-.81.3-4.57.3-4.57.18-2,.34-4,.34-5.94a22.48,22.48,0,0,0-1.19-7.62c-1.07-3-3.39-6.59-5.64-10-1.54-2.33-3.12-4.75-4.24-6.91l-7.8-17-3.65-6.22a55.6,55.6,0,0,1-5.73-11c0-.1-.07-.21-.11-.31l-1.14-.29.87-.81,1.65-1.61c-.07-.16-.14-.31-.2-.47-3.85-6.71-3.89-10.81-4-16.48-.12-2.82-.25-5.64-.37-8.46l-.45,0a3.75,3.75,0,0,1-1.9-.86l-1.26-.64c0-.08,0-.16,0-.24a10.49,10.49,0,0,0-.71-3.48c-.22-.72-.43-1.45-.65-2.17l-.32-.07-7-.55-.36,0-5.43,281.16c62.25,10.09,124.49,20.49,186.73,26.47q5.52-23.34,11.05-46.72l-.56-.07C811.32,781.72,800.8,784.7,798.58,786Zm5.35,41.79c-.59,2.42-184.38-25.06-185.26-26.27,0-1.12,5.36-278.21,5.38-279.12l6.31.5c.16.52.44,1.48.44,1.48a9.06,9.06,0,0,1,.64,3,5.78,5.78,0,0,1,0,.58l0,.45.46.22,1.4.75a5.51,5.51,0,0,0,1.86.93c0,.88.32,7.26.32,7.26.06,5.53.17,10,3.92,16.72l-1.19,1.16-2.26,2.11,1,.32,1.68.44a59,59,0,0,0,5.72,10.93l3.6,6.12,7.8,17c1.15,2.23,2.76,4.67,4.31,7,2.2,3.35,4.48,6.82,5.49,9.71a21,21,0,0,1,1.11,7.16c0,1.91-.17,3.83-.33,5.81s-.25,3.74-.38,5.62l.38.13a18,18,0,0,0,5.88,1.23c3.26.26,5.23.4,7.59,6.39a38.2,38.2,0,0,1,1.91,8.11,49.42,49.42,0,0,0,1.61,7.5,59.58,59.58,0,0,0,3.61,7.93c1.15,2.24,2.33,4.56,3.16,6.63l1,2.68c.83,2.3.92,2.38,3.26,4.47l.36.32a3.44,3.44,0,0,0,2.58.61,3,3,0,0,1,2.11.43,4.23,4.23,0,0,1,.53,2.15,7,7,0,0,0,.71,2.84c2.92,4.7,5.51,9.4,8,13.94a221.05,221.05,0,0,0,11.58,19.32l1.92,2.13c.8.68,1.29,1.09,2.27,4.47.17,1,.33,2,.5,2.92.34,2.55.61,4.27,1.15,5.09,2.17,3.3,4.19,3,6.14,2.75a7.47,7.47,0,0,1,2.67,0,20.53,20.53,0,0,1,4,1.49,16.42,16.42,0,0,0,5.27,1.68c.06.7.39,4.14.39,4.14a28.65,28.65,0,0,0,.94,6.93c.57,1.6,2.31,3.08,3.86,4.39a12,12,0,0,1,2.27,2.21c1.08,1.83,1.46,4.36,1.82,6.81a18.19,18.19,0,0,0,1.43,5.73,9.69,9.69,0,0,0,3,3.35c1.37,1.07,2.27,1.77,2.39,5.06v.23l.14.17c.88,1.14,8.48,10.54,13,7.75.44,2.73,1.67,4.61,3.51,5.12l.42.12,0-.53a3.89,3.89,0,0,1,1.11-2.78,2.74,2.74,0,0,1,2.78-.37c1.44.48,1.42.83,1.39,1.67a4.22,4.22,0,0,0,.8,3l.31.42c2.65,3.59,2.81,3.81,5.45,3l1.06-.3a9.43,9.43,0,0,0,2.71-1.36l2.3-1.2a1.19,1.19,0,0,1,1.26.38A1.93,1.93,0,0,0,799,787c2-1.21,11.55-3.92,15.48-3.8C814.15,784.61,804.09,827.15,803.93,827.82Z" style="fill-rule: evenodd"/>
    <path d="M427.09,759.92c65.56,8.42,131.12,22.54,196.68,36.83v-279c-65.56-14.29-131.12-28.41-196.68-36.83Z" style="fill: #fab900;fill-rule: evenodd"/>
    <path d="M391.93,152.81V727.6c0,39.51,28.72,74.39,63.83,79.8,48.21,7.33,96.42,17.3,144.62,27.72C609,837,619.76,844.44,624,852.37c4.88-6.21,14.4-9,22.8-7.14,48.66,10.58,97.32,20.9,146,28.71,35.11,5.7,63.84-23.72,63.84-63.23V235.93c-62.1-6.6-124.21-18.91-186.31-32.24C577.52,183.78,484.73,161.6,391.93,152.81ZM813.26,739.29l0,28.91c-.9,31.32-8.47,55.91-36.52,51.18-43.15-7.39-86.29-16.56-129.44-25.94-8-1.73-20.08-1.41-23.55,5.63-2.71-7.86-15.46-14.13-23.55-15.88-42.67-9.23-85.34-18.09-128-25.09-28.05-4.52-35.63-30.77-36.53-62.46l0-28.92V211.34c125.89,17.1,251.77,54.32,377.66,72.57Z" style="fill: #2063a5;fill-rule: evenodd"/>
    <path d="M390.28,150.55V727.44c0,40.78,29.38,76.5,65.48,82.07,48.21,7.32,96.42,17.3,144.62,27.72,8.54,1.84,18.55,9.09,22.32,16.15.42.77.83,1.54,1.24,2.31l1.32-1.68c4.42-5.62,13.48-8.43,21.55-6.68,48.66,10.59,97.32,20.91,146,28.71,36.11,5.87,65.49-24.39,65.49-65.16V234l-1.65-.18C701.18,217.3,545.73,165,390.28,150.55ZM855,810.53c0,38.45-27.91,66.87-62.2,61.3-48.66-7.8-97.32-18.13-146-28.71-8.4-1.82-17.44.74-22.77,6.24-5-7.48-14.86-14.44-23.66-16.34-48.2-10.42-96.41-20.4-144.62-27.72-34.29-5.28-62.18-39.09-62.18-77.55V155.08c1.62-1,70.81,8,139.59,21.58C602,189.52,670.32,207,670.32,205.8c0-.36,45.36,10.3,91.12,18.23,45.76,8.37,91.93,14,93.55,13.83Z" style="fill-rule: evenodd"/>
    <path d="M434,209V666.5q0,14.46,0,28.92c.72,25.59,5.46,59.56,38.17,64.79,42.66,7,85.33,15.86,128,25.08,8.74,1.89,20,8.27,22.07,14.37.45,1.31.9,2.62,1.36,3.93l1.56-3.16c2.8-5.69,13.49-6.76,22.11-4.88,43.15,9.38,86.29,18.55,129.44,25.94,32.7,5.48,37.45-27.83,38.17-53l0-29V282l-1.64-.24C686.82,263.47,560.39,226,434,209Zm377.66,530,0,28.91c-1.09,37.73-11.85,53.23-34.88,49.31-43.15-7.39-86.29-16.56-129.44-25.94-6.18-1.34-18.17-1.87-23.48,4.31-4.61-7.47-16-12.92-23.62-14.56-42.67-9.22-85.34-18.09-128-25.08-23-3.75-33.8-22-34.88-60.21l0-28.85V213.67c1.63-.63,94.4,14.27,187.18,35.5,92.78,21.41,185.55,37.22,187.18,36.61Z" style="fill-rule: evenodd"/>
    <ellipse cx="623.8" cy="659.12" rx="1.27" ry="197.96"/>
    <path d="M468.07,797.63a4.67,4.67,0,0,1-4.53,1.48l-1.2-.19a2,2,0,0,1-1.25-.6,2.5,2.5,0,0,1-.52-1.1,22.22,22.22,0,0,1-.15-3.45v-9.55a3.92,3.92,0,0,1,2.24,1,6.58,6.58,0,0,1,1.35,2.7,22.51,22.51,0,0,1,.75,4.87l.51.08V775.12l-.51-.08a16.82,16.82,0,0,1-1.11,5.78,2.46,2.46,0,0,1-2.81,1.58l-.42-.07V768.58h0l2.11.33a8,8,0,0,1,3.13,1,6.44,6.44,0,0,1,2.23,2.71,19.45,19.45,0,0,1,1.22,5.48l.51.08v-10q-8.42-1.36-16.84-2.63v.87l.67.1a2.16,2.16,0,0,1,1.53.94,3.19,3.19,0,0,1,.55,1.46c.05.36.08,1.32.08,2.88v22.22a18.25,18.25,0,0,1-.16,3.18,2.09,2.09,0,0,1-.59,1.14,1.79,1.79,0,0,1-1.41.32l-.67-.1v.86q8.67,1.3,17.35,2.71.47-5.31.92-10.62l-.53-.09C470,794.26,469.21,796.36,468.07,797.63Z" style="fill: #fab900"/>
    <path d="M484.31,783.41a37.32,37.32,0,0,1-3.22-3.47,9.78,9.78,0,0,1-1.39-2.55,6.34,6.34,0,0,1-.31-2,4.85,4.85,0,0,1,.89-3,2.3,2.3,0,0,1,2.42-.94q2,.33,3.67,3.2a17.46,17.46,0,0,1,2.14,7.18l.59.11q-.09-5.65-.17-11.31l-.43-.07a5.88,5.88,0,0,1-.42,1.84.58.58,0,0,1-.62.3,3.89,3.89,0,0,1-1.39-1.06,10.05,10.05,0,0,0-1.71-1.4,5.54,5.54,0,0,0-1.91-.73,4.28,4.28,0,0,0-4.46,2.09,11.32,11.32,0,0,0-1.77,6.59,15.24,15.24,0,0,0,.63,4.45,14.52,14.52,0,0,0,1.83,3.88,32.42,32.42,0,0,0,3.94,4.53,23.71,23.71,0,0,1,2.74,3.1,9.74,9.74,0,0,1,1.16,2.33,7.9,7.9,0,0,1,.38,2.39,5.54,5.54,0,0,1-1,3.37,2.57,2.57,0,0,1-2.68,1.06q-2.18-.37-4.05-3.52a22.21,22.21,0,0,1-2.53-8.65l-.51-.08V803.8l.51.08a3,3,0,0,1,.69-1.42,1,1,0,0,1,.83-.37,2.67,2.67,0,0,1,1.18.69,12.93,12.93,0,0,0,2.13,1.59,5.73,5.73,0,0,0,1.81.63,4.82,4.82,0,0,0,5-2.18,11.39,11.39,0,0,0,2-6.94,15.46,15.46,0,0,0-1.2-6.14A22.22,22.22,0,0,0,484.31,783.41Z" style="fill: #fab900"/>
    <path d="M494.82,781.56l.51.09a11.12,11.12,0,0,1,1.67-5.47,2.74,2.74,0,0,1,3-.92l1.48.27v26.1a16.84,16.84,0,0,1-.17,3.18,2,2,0,0,1-.6,1.11,1.63,1.63,0,0,1-1.4.28l-.66-.12V807l10.47,1.92V808l-.66-.12a2.14,2.14,0,0,1-1.34-.75,3,3,0,0,1-.66-1.28,19.3,19.3,0,0,1-.17-3.33V776.41l1.48.28a3.86,3.86,0,0,1,2,.82,7.16,7.16,0,0,1,1.6,2.51,23.34,23.34,0,0,1,1.05,4.76l.51.1v-9.17h0q-9-1.71-18.07-3.31Z" style="fill: #fab900"/>
    <path d="M532.42,806.51l-7.23-29.2-.27,0q-3.6,12.81-7.19,25.64a21.75,21.75,0,0,1-1.72,4.87,2.23,2.23,0,0,1-1.76,1.2v.87l6.66,1.27v-.87a4.45,4.45,0,0,1-1.95-1,3.44,3.44,0,0,1-.69-2.27,11.36,11.36,0,0,1,.41-2.7c.3-1,.59-2.1.89-3.15l7,1.35c.37,1.49.74,3,1.1,4.47.29,1.17.44,1.84.45,2a4.75,4.75,0,0,1,.1,1,1.57,1.57,0,0,1-.33,1.11,1.81,1.81,0,0,1-1.65.24l-.39-.07v.86l9.7,1.9v-.86a2.5,2.5,0,0,1-1.41-1.2A26.65,26.65,0,0,1,532.42,806.51Zm-12.36-7.11,3.06-10.92,3,12.08Z" style="fill: #fab900"/>
    <path d="M553.32,785.34a11.45,11.45,0,0,0-5.8-2.83l-9-1.82v.87l.66.13a2.23,2.23,0,0,1,1.34.76,3.18,3.18,0,0,1,.66,1.29,18.47,18.47,0,0,1,.17,3.35V809.3a19.56,19.56,0,0,1-.14,3.18,2.29,2.29,0,0,1-.69,1.15,1.54,1.54,0,0,1-1.33.2l-.67-.13v.86l9,1.82a9.65,9.65,0,0,0,2.84.27,8,8,0,0,0,3.47-1.12,8.15,8.15,0,0,0,2.49-2.64,15.13,15.13,0,0,0,1.77-4.6,27.59,27.59,0,0,0,.69-6.44,31.35,31.35,0,0,0-1.39-9.55A16.22,16.22,0,0,0,553.32,785.34Zm-1.69,27.14c-.87,1.72-2.13,2.41-3.8,2.07a2.09,2.09,0,0,1-1.16-.61,1.81,1.81,0,0,1-.39-.81,15.7,15.7,0,0,1-.12-2.59V784.12a7.37,7.37,0,0,1,3.56,1.47,10.27,10.27,0,0,1,2.48,4.66,38.76,38.76,0,0,1,1.22,10.66Q553.42,809,551.63,812.48Z" style="fill: #fab900"/>
    <path d="M574,787.5q-4.47-1.26-7.52,3.14t-3.05,11.94a29.92,29.92,0,0,0,2.35,12.1q3,6.81,8.42,8t8.39-4.72a23.85,23.85,0,0,0,2.23-10.86,27.68,27.68,0,0,0-3-13.2Q578.81,788.2,574,787.5Zm4.74,27.87a9.67,9.67,0,0,1-2,4.67,2.66,2.66,0,0,1-2.57.71q-2.28-.48-3.54-3.65-1.82-4.51-1.81-13.17,0-7.29,1.16-10.93,1.45-4.44,4.23-3.85a4.43,4.43,0,0,1,2.65,1.93,14,14,0,0,1,1.9,5.11,52.83,52.83,0,0,1,.74,10.19A44.52,44.52,0,0,1,578.74,815.37Z" style="fill: #fab900"/>
    <path d="M613.13,804.73a14,14,0,0,0-5.8-2.5l-9-2v.65l.66.14a2.69,2.69,0,0,1,1.34.66,2.45,2.45,0,0,1,.66,1,10.6,10.6,0,0,1,.17,2.52V821.9a10.92,10.92,0,0,1-.14,2.38,1.55,1.55,0,0,1-.69.81,1.92,1.92,0,0,1-1.33.06l-.67-.14v.65l9,2h0a13.28,13.28,0,0,0,2.84.4,9.88,9.88,0,0,0,3.47-.62,6.85,6.85,0,0,0,2.5-1.82,9.54,9.54,0,0,0,1.77-3.34,15.58,15.58,0,0,0,.68-4.78,18.75,18.75,0,0,0-1.39-7.24A13.16,13.16,0,0,0,613.13,804.73ZM611.44,825a3.37,3.37,0,0,1-3.8,1.31,2.5,2.5,0,0,1-1.16-.53,1.46,1.46,0,0,1-.39-.63,9,9,0,0,1-.12-2v-19.8a9.42,9.42,0,0,1,3.56,1.33,8.14,8.14,0,0,1,2.48,3.65,22.89,22.89,0,0,1,1.22,8.07Q613.23,822.46,611.44,825Z" style="fill: #fab900"/>
    <path d="M638,831.22a5.38,5.38,0,0,1-4.53.66l-1.2-.26A2.47,2.47,0,0,1,631,831a2,2,0,0,1-.53-.88,12.8,12.8,0,0,1-.15-2.6v-7.15a5.25,5.25,0,0,1,2.24,1,5.3,5.3,0,0,1,1.35,2.15,13.83,13.83,0,0,1,.76,3.73l.51.11V814.08l-.51-.11a9.23,9.23,0,0,1-1.12,4.21,2.43,2.43,0,0,1-2.81.91l-.42-.09V808.7h0l2.11.46a11.08,11.08,0,0,1,3.13,1,6.24,6.24,0,0,1,2.23,2.25,12.92,12.92,0,0,1,1.22,4.23l.51.11v-7.51l-16.84-3.68v.65l.67.14a2.71,2.71,0,0,1,1.53.87,2.38,2.38,0,0,1,.55,1.15,17.23,17.23,0,0,1,.08,2.17V827.2a9.89,9.89,0,0,1-.16,2.36,1.27,1.27,0,0,1-.59.79,2,2,0,0,1-1.41.09l-.67-.14V831l17.36,3.78c.3-2.62.61-5.25.92-7.87l-.54-.11A7.45,7.45,0,0,1,638,831.22Z" style="fill: #fab900"/>
    <path d="M664.05,820.34a40.76,40.76,0,0,1-3.22-3.61,10.63,10.63,0,0,1-1.39-2.62,6.49,6.49,0,0,1-.31-2.06,4.73,4.73,0,0,1,.88-2.94,2.23,2.23,0,0,1,2.43-.84q2,.43,3.67,3.37a17.89,17.89,0,0,1,2.13,7.27l.6.13q-.09-5.65-.17-11.31l-.43-.09a5.78,5.78,0,0,1-.42,1.82.54.54,0,0,1-.62.27,4.19,4.19,0,0,1-1.4-1.12,10.58,10.58,0,0,0-1.71-1.47,5.62,5.62,0,0,0-1.9-.81,4.09,4.09,0,0,0-4.46,1.88,10.9,10.9,0,0,0-1.77,6.5,15.67,15.67,0,0,0,.63,4.49,15.47,15.47,0,0,0,1.83,4,34.25,34.25,0,0,0,3.94,4.71,26.42,26.42,0,0,1,2.74,3.22,10.23,10.23,0,0,1,1.16,2.38,8.13,8.13,0,0,1,.38,2.41,5.31,5.31,0,0,1-1,3.32,2.46,2.46,0,0,1-2.68.95q-2.18-.46-4.05-3.71a22.91,22.91,0,0,1-2.53-8.77l-.5-.11v12.78l.5.11a2.85,2.85,0,0,1,.69-1.39,1,1,0,0,1,.83-.33,2.88,2.88,0,0,1,1.18.76,14,14,0,0,0,2.13,1.68,5.91,5.91,0,0,0,1.81.72,4.67,4.67,0,0,0,5-2,11.19,11.19,0,0,0,2-6.86,15.78,15.78,0,0,0-1.21-6.19A23.66,23.66,0,0,0,664.05,820.34Z" style="fill: #fab900"/>
    <path d="M685.22,811.5q-4.47-1.25-7.52,3.14t-3.05,11.92A30.09,30.09,0,0,0,677,838.68c2,4.54,4.78,7.21,8.42,8s6.41-.81,8.39-4.72a24,24,0,0,0,2.24-10.88,27.64,27.64,0,0,0-3-13.19C691,814.1,688.42,812,685.22,811.5ZM690,839.37a9.68,9.68,0,0,1-2,4.68,2.71,2.71,0,0,1-2.58.71c-1.52-.33-2.7-1.54-3.54-3.65Q680,836.58,680,827.93q0-7.29,1.16-10.93,1.46-4.43,4.23-3.84a4.41,4.41,0,0,1,2.65,1.93,13.85,13.85,0,0,1,1.9,5.1,52,52,0,0,1,.74,10.19A43.74,43.74,0,0,1,690,839.37Z" style="fill: #fab900"/>
    <path d="M713.86,818.81a3.07,3.07,0,0,1,2.39,1.9,12.09,12.09,0,0,1,.52,4.3v14.48q-4.95-11.47-9.91-23h0c-2.38-.48-4.75-1-7.13-1.47v.86a2.77,2.77,0,0,1,1.41.79,8,8,0,0,1,1.13,2.06l.45,1v23.86a7.46,7.46,0,0,1-.65,3.72,2,2,0,0,1-2.31.68v.87l7.14,1.47v-.86l-.47-.1a3,3,0,0,1-1.85-1.42,7.77,7.77,0,0,1-.81-4.14V822.31q6.79,15.51,13.59,31l.51.1V825.23a15.27,15.27,0,0,1,.25-3.39,2.47,2.47,0,0,1,.68-1.31,3,3,0,0,1,1.73-.37v-.87L713.86,818Z" style="fill: #fab900"/>
    <path d="M735.21,821.68q-4.47-1.17-7.53,3.26t-3,12A29.79,29.79,0,0,0,727,849q3,6.78,8.41,7.84t8.39-4.88A24.1,24.1,0,0,0,746,841a27.25,27.25,0,0,0-3-13.13Q740,822.31,735.21,821.68Zm4.73,27.79a9.9,9.9,0,0,1-2,4.71,2.69,2.69,0,0,1-2.58.75q-2.28-.43-3.54-3.59Q730,846.86,730,838.2a38.81,38.81,0,0,1,1.16-11c1-3,2.38-4.27,4.23-3.92a4.38,4.38,0,0,1,2.66,1.89,13.73,13.73,0,0,1,1.89,5.06,51.84,51.84,0,0,1,.74,10.18A44.08,44.08,0,0,1,739.94,849.47Z" style="fill: #fab900"/>
    <path d="M768.78,857.74q-2.41-6.15-4.81-12.32a4.77,4.77,0,0,0,2.84-1.82,9.71,9.71,0,0,0,1.6-5.91,13.89,13.89,0,0,0-1.07-5.54,8.12,8.12,0,0,0-2.76-3.63,14.34,14.34,0,0,0-5.34-1.81L749.88,825v.86a3.57,3.57,0,0,1,1.91.78,3,3,0,0,1,.71,1.26,17.24,17.24,0,0,1,.21,3.5V853.5a15.75,15.75,0,0,1-.21,3.41,1.86,1.86,0,0,1-.71,1,2.75,2.75,0,0,1-1.91.08v.87l10.38,1.91v-.87a3.61,3.61,0,0,1-1.91-.77,2.62,2.62,0,0,1-.71-1.27,17,17,0,0,1-.21-3.49v-9.54l1.32.24h0l6.47,16.59,6.31,1.11v-.92a2.5,2.5,0,0,1-1.4-1.1A19.44,19.44,0,0,1,768.78,857.74ZM763,841.12a3.25,3.25,0,0,1-1.61,2,5.58,5.58,0,0,1-3.09.08l-.85-.15V828.27l1.59.28a4.66,4.66,0,0,1,3.47,2.47,13,13,0,0,1,1.06,5.89A12.55,12.55,0,0,1,763,841.12Z" style="fill: #fab900"/>
    <path d="M791.91,859.35l-7.23-29-.28,0q-3.58,12.92-7.19,25.81a22.49,22.49,0,0,1-1.71,4.91,2.29,2.29,0,0,1-1.77,1.23v.86c2.22.39,4.45.77,6.67,1.14v-.86a4.51,4.51,0,0,1-2-.95,3.38,3.38,0,0,1-.68-2.25,11.58,11.58,0,0,1,.41-2.71l.88-3.16,7,1.17c.37,1.47.73,3,1.1,4.43.28,1.17.43,1.83.44,2a4.62,4.62,0,0,1,.11.95,1.59,1.59,0,0,1-.34,1.12,1.81,1.81,0,0,1-1.64.3l-.39-.07v.86c3.23.54,6.46,1.06,9.69,1.58v-.87a2.38,2.38,0,0,1-1.4-1.14A25,25,0,0,1,791.91,859.35Zm-12.37-6.75,3.06-11,3,12Z" style="fill: #fab900"/>
    <path d="M676.53,674.16c-.66-2.81-2.06-4.45-3.27-6.74-1.36-2.61-1.79-5.85-3-8.32-4.15-8.71-7.62-2.46-11.88-1.08l.29.06c1.93,4.07.06,7.72-1.1,10.87a17.52,17.52,0,0,0-1.28,6c0,2.1,1.37,5,.66,7.11-1.2,3.58-6,3.47-5,8.89.79,4.28,5.13,7,7.77,9.45,5.71,5.22,8.92,8.74,15.86,10.16,4.28.87,6.21,1.35,6.28-4.3,0-4.11-.91-8.33-1.58-12.49C679.26,687.39,678,680.42,676.53,674.16Z" style="fill: url(#a)"/>
    <path d="M680.9,693.74c-1.24-7.63-2.51-14.25-3.78-19.69a17.42,17.42,0,0,0-2.31-5.17l-1-1.83a22.92,22.92,0,0,1-1.57-4.33l-1.38-4c-1.2-2.52-2.45-4-3.81-4.68-2-.93-3.92.3-5.75,1.49a13.74,13.74,0,0,1-3.07,1.66s.17.52.31,1l-.29.19a7.48,7.48,0,0,1,.73,3.23,16.3,16.3,0,0,1-1.45,5.73l-.44,1.14a18.46,18.46,0,0,0-1.33,6.3l.44,2.93a13.85,13.85,0,0,1,.43,2.8,3.48,3.48,0,0,1-.16,1.1,6.38,6.38,0,0,1-2.33,2.79c-1.36,1.11-2.87,2.33-2.87,5a9.11,9.11,0,0,0,.15,1.57c.71,3.83,3.87,6.48,6.42,8.6l1.66,1.43,1.63,1.51c4.71,4.36,8.11,7.5,14.52,8.81l.22,0c4.12.84,6.6,1.34,6.68-5a55,55,0,0,0-1.13-10C681.21,695.54,681.06,694.64,680.9,693.74Zm-5.09,16.07-.22,0c-6.08-1.24-9.19-4.12-13.91-8.48L660,699.77l-1.71-1.47c-2.44-2-5.19-4.33-5.76-7.41a6.76,6.76,0,0,1-.12-1.2c0-1.79,1-2.68,2.41-3.86a7.36,7.36,0,0,0,2.71-3.35,5.42,5.42,0,0,0,.24-1.66,15.55,15.55,0,0,0-.48-3.27l-.39-2.47a16.8,16.8,0,0,1,1.24-5.7l.42-1.11a17.76,17.76,0,0,0,1.56-6.39,9.45,9.45,0,0,0-.72-3.5,18.19,18.19,0,0,0,2.5-1.34c1.7-1.1,3.3-2.15,4.82-1.45,1,.47,2,1.73,3,3.84.41,1.21.83,2.42,1.25,3.63a25.57,25.57,0,0,0,1.73,4.73l1.11,1.93a15.41,15.41,0,0,1,2.06,4.55c1.26,5.39,2.52,12,3.75,19.54.16.91.32,1.82.47,2.73a52.5,52.5,0,0,1,1.1,9.57C681.2,710.9,680,710.65,675.81,709.81Z"/>
    <path d="M702.22,663.6c-2.45,6.7-6.15,13.65-7.45,21.21,5.4-5.08,18.14.14,21.4-7.63,2.44-5.79-.57-20.89-1.5-27.25C707.46,651.14,705,656,702.22,663.6Z" style="fill-rule: evenodd;fill: url(#b)"/>
    <path d="M694.52,686.22c.06-.47.16-.94.25-1.41a6.12,6.12,0,0,0-.71.73Z" style="fill-rule: evenodd;fill: url(#c)"/>
    <path d="M715,649.34l-.42.06c-7.54,1.27-10,6.56-12.72,13.92q-1.25,3.07-2.47,6.15c-2,4.82-4,9.8-5,15.11a6.87,6.87,0,0,0-.66.55l.44.57c0,.12,0,.23-.07.35l.81.34c.05-.37.15-.72.22-1.09,2.32-2.15,6.05-2.47,9.74-2.68,4.79-.29,9.75-.6,11.66-5.13a18.57,18.57,0,0,0,1-6.82c0-5.52-1.11-12.4-1.94-17.54Zm.82,27.53c-1.73,4.11-6.27,4.39-11.09,4.68-3.37.2-6.78.47-9.26,2.12a76.9,76.9,0,0,1,4.66-13.58c.82-2.07,1.65-4.13,2.48-6.2,2.63-7.17,4.92-12,11.77-13.32l.42,2.62c.78,4.82,1.91,11.85,1.91,17.36A17.16,17.16,0,0,1,715.8,676.87Z" style="fill-rule: evenodd"/>
    <path d="M757.25,611.19c-4.14-2.52-.46,9.31,1.38,22.56,8.27,6.2.92,14.26.92,14.26s-5.06,18.64-40.44,21c-10.57-.74-80.88,33.46-73.07,65,13.79,9.15,103.4-5.58,124.08-80.63C772.41,623.31,757.25,630.58,757.25,611.19Z" style="fill-rule: evenodd;fill: url(#d)"/>
    <path d="M763.41,626.25c-3.09-3.66-5.75-6.83-5.75-15v-.38l-.29-.17c-.8-.49-1.42-.53-1.84-.1-1.19,1.17-.37,5.63.88,12.37L758.27,634l.19.16a8.4,8.4,0,0,1,3.62,5.45c.58,4.13-2.79,7.9-2.83,7.93l-.06.08,0,.11c0,.12-5.45,18.4-40.13,20.72-8.57-.66-55.47,21.64-69.7,46.15-4,6.82-5.18,13.37-3.67,19.49l.06.26.2.13c6.8,4.36,32.82,3.34,59.77-8.67,19.14-8.44,53-29.57,64.82-72.19C771.84,636.22,767.36,630.93,763.41,626.25Zm6.29,27c-11.69,42.16-45.36,63.14-64.39,71.54-26.51,11.8-52,13-58.91,8.84a19.57,19.57,0,0,1-.55-4.53A27.69,27.69,0,0,1,650,715.37c14.13-24.33,60.6-46.47,69.14-45.82,34.57-2.31,40.35-19.86,40.76-21.2a12.47,12.47,0,0,0,3.07-7.57,8.7,8.7,0,0,0-4-7.31c-.08-.5-1.78-10.6-1.78-10.6a70.89,70.89,0,0,1-1.44-9.87,2.39,2.39,0,0,1,.31-1.52c.15-.14.43-.09.78.07.1,8.33,3,11.8,6,15.44,3.47,4.1,7,8.32,7,20.48C769.94,649.24,769.87,651.17,769.7,653.3Z" style="fill-rule: evenodd"/>
    <path d="M738.25,698.78l-9,.44C733,700.09,735.83,699.81,738.25,698.78Z" style="fill: url(#e)"/>
    <path d="M766.43,651c-.5,6.23-1.84,9.93-5,14.4-5.32,7.4-10,15.26-15.73,22.28S732.74,696,725,698.82c-7.05,2.6-11.59,8.81-17.47,13.52-1,.84-3.73,0-3,2.92.45,1.94,4.81,2.74,5.91,3.08,6.09,1.91,6.63,0,10.44-3.92,2.66-2.75,6.52-4.82,9.67-7,2.94-2,8.21-4.07,9.71-8.33-.45-.23-.91-.12-1.33-.34l-.62,0c-2.42,1-5.23,1.31-9,.44l9-.44c3.45-1.46,6.07-4.47,9.38-8.19,4.43-5,8.28-9.29,11.45-15.64,6-12,14.47-22.77,9.1-38.85C766.54,639.52,766.79,646.52,766.43,651Z" style="fill: url(#f)"/>
    <path d="M729.22,701c-7.68-1.41-13.66,1.18-16.54,10.2v.58c2.82-1.31,8.39,1.33,12,1.83,4.64.65,9.19.14,13.8.23,6.1.15,15.67-2.39,15.92-11.47C746.58,700,737.46,702.49,729.22,701Z" style="fill-rule: evenodd;fill: url(#g)"/>
    <path d="M740.54,700.87a54.14,54.14,0,0,1-11.33-.42c-8.5-1.55-14.19,1.94-16.92,10.46l.44.3c-.08,0-.18,0-.25,0l.39,1c1.78-.83,4.81,0,7.73.86l4.11,1a54.54,54.54,0,0,0,9,.28l4.84,0c5.92.14,16-2.28,16.28-11.91l0-.5-.39-.11C750.07,700.52,745.23,700.7,740.54,700.87Zm-2.09,12.42-4.88.05a54.18,54.18,0,0,1-8.89-.28l-4-1c-2.72-.77-5.48-1.48-7.46-1,2.66-8,7.9-11.11,16-9.63a53.53,53.53,0,0,0,11.47.43c4.46-.15,9.08-.31,13.24.83C753.31,711.24,744,713.42,738.45,713.29Z" style="fill-rule: evenodd"/>
    <path d="M684.77,681.45c-2.37,3.91-5.12,7.53-6.91,12.08-1.4,3.55-2.24,11.49-4.7,12.9l.92.78c2.4-3.29,5.42-7.73,8.61-10.05,3.76-2.72,8.69-2.34,12.44-5-.23-2.8-1.71-10.43-3.12-12.88C688.74,673.63,687.07,677.66,684.77,681.45Z" style="fill-rule: evenodd;fill: url(#h)"/>
    <path d="M692.33,679c-1.11-1.92-2.14-2.93-3.14-3.07-1.62-.23-2.78,1.75-4.12,4l-.64,1.07c-.65,1-1.3,2-1.94,3.08a50.84,50.84,0,0,0-5,9.07L676.16,698c-.81,3.34-1.72,7.12-3.22,8l.43,1c1.77-1,2.69-4.82,3.58-8.51.42-1.53.85-3,1.28-4.58a50.61,50.61,0,0,1,4.92-8.92l2-3.09.64-1.09c1.17-2,2.27-3.87,3.48-3.7.73.1,1.53.94,2.46,2.55,1.27,2.21,2.68,9.21,3,12.24a19,19,0,0,1-5.8,2.27,18.67,18.67,0,0,0-6.42,2.59c-2.89,2.1-5.66,5.93-7.88,9l-.81,1.12.64.8.81-1.13c2.2-3,4.93-6.82,7.73-8.85a18.22,18.22,0,0,1,6.22-2.49,19.19,19.19,0,0,0,6.21-2.47l.2-.14,0-.31C695.31,689.5,693.86,681.7,692.33,679Z" style="fill-rule: evenodd"/>
    <path d="M753.39,670l-1.38,1.5c-5.76,6.35-12.94,14.21-20.06,17.79a68.91,68.91,0,0,1-9.22,3.58,78.45,78.45,0,0,0-8.88,3.37,61.68,61.68,0,0,0-8.32,5.08L700,705l-5.08,2.92c-7.52,4.29-14.61,8.32-21.57,13.47a29.9,29.9,0,0,1-13.21,5.24,24.1,24.1,0,0,0-6.84,2.6c-2.44,1.2-5,2.45-7.35,2.57,0,.35.11.71.16,1.06,2.52-.12,5.1-1.39,7.59-2.63a24.1,24.1,0,0,1,6.67-2.54,30.38,30.38,0,0,0,13.47-5.35c6.93-5.13,14-9.15,21.51-13.43l5.09-2.93,5.55-3.61a60.72,60.72,0,0,1,8.24-5,79.67,79.67,0,0,1,8.81-3.35,70.33,70.33,0,0,0,9.3-3.61c7.23-3.63,14.45-11.55,20.25-17.94l1.37-1.5c11.18-12.27,16.81-23.21,16.26-31.49l-.82,0C769.93,647.3,764.39,658,753.39,670Z" style="fill-rule: evenodd"/>
    <path d="M693.61,712.65c-4.59.17-8.82,4.44-12.76,6.85-4.76,2.91-9.39,6-14.37,8.38-5.67,2.68-11.91,2.54-17.45,5.21l1.38-.29a27.49,27.49,0,0,0-2.82,1.15c4.78,1.82,10.18,1.76,14.64,1.28a152.31,152.31,0,0,0,17.11-2.32,162.45,162.45,0,0,0,19.8-6c4.31-1.61,12.76-4.36,16.1-8C709,718.55,700,712.42,693.61,712.65Z" style="fill: url(#i)"/>
    <path d="M717.73,708.09l.92-.41a6.82,6.82,0,0,0-4,.4c13.11,5,29.53,7.52,39.22-3.6-5.43-.94-11.37,4.68-16.38,6.33C730.67,713.07,724.83,709.55,717.73,708.09Z" style="fill: url(#j)"/>
    <path d="M689.78,678.94c-1.06,5.07-1,8.39-3.87,11.86-2.36,2.89-6.59,4.44-8.16,8.39l.46.1c2-4.78,6.33-6.15,10.21-7.38,6.2-1.95,5.79-3.37,4-11.25A4.32,4.32,0,0,0,689.78,678.94Z" style="fill: url(#k)"/>
    <path d="M712.68,653a3.07,3.07,0,0,1,.46.52v-.42Z" style="fill: url(#l)"/>
    <path d="M713.14,653.56c0,3.45.23,7.09-.92,10s-3.53,3.58-4.42,6.61c2.05.5,7.32-1.44,8.1-3.53C716.83,664.14,714.92,655.8,713.14,653.56Z" style="fill: url(#m)"/>
    <path d="M516.25,568c-4.21,5.38-11.67,6-16.84,9.76-4.7,3.4-5.78,6-6,13.36.44,3.93.6,5.56,4.59,9.76,3,.54,3.6-5.54,4.59-7,5.08-7.73,10.69-1.63,13.39-12.8,1.12-4.6,2.42-7.85.63-13Z" style="fill-rule: evenodd;fill: url(#n)"/>
    <path d="M516.42,568.15c1.52,4.35.76,7.3-.2,11.05-.14.57-.29,1.15-.43,1.73-1.51,6.2-3.89,7-6.64,7.85a11,11,0,0,0-6.73,4.87c-.28.75-.57,1.49-.85,2.24-.71,2.27-1.59,5.09-3.57,4.73-3.77-4-3.95-5.59-4.38-9.39.22-7.45,1.32-9.92,5.9-13.22a32.69,32.69,0,0,1,6.86-3.46c3.67-1.51,7.45-3.06,10-6.34-.1-.13-.2-.27-.31-.4-2.51,3.2-6.26,4.73-9.88,6.22a33.79,33.79,0,0,0-6.92,3.5c-4.67,3.37-5.86,6-6.09,13.55.45,4,.65,5.76,4.68,10,2.38.47,3.36-2.65,4.07-4.93.27-.71.54-1.42.8-2.13a10.52,10.52,0,0,1,6.55-4.72c2.74-.89,5.32-1.72,6.88-8.15l.44-1.72c1-3.69,1.77-6.88.17-11.43Z" style="fill-rule: evenodd"/>
    <path d="M583.19,596.06c6.39,2.78,12.11,4.24,17.73,8.79C596.93,601.46,588.3,595.51,583.19,596.06Z" style="fill-rule: evenodd;fill: url(#o)"/>
    <path d="M569.57,576.46c1.55,3.09,3.68,5.84,5,9.31,2,5.33,2,7.27,7,9.57.56.26,1.09.49,1.64.72,5.11-.55,13.74,5.4,17.73,8.79-5.62-4.55-11.34-6-17.73-8.79a6.41,6.41,0,0,0-.9.08c-5,1.45-4.58,10.69-3.64,15.85,6,2.55,13.33,5.91,18.57,3.13a51.38,51.38,0,0,0,11.3-7.82c-5.7-3.78-11.15-10.41-15.87-16.07C585.71,582.89,578.45,579.6,569.57,576.46Z" style="fill-rule: evenodd;fill: url(#p)"/>
    <path d="M593.15,591.49l-.37-.44c-7.24-8.7-14.79-11.89-23.19-14.85l0,.26-.17.12c.67,1.17,1.33,2.34,2,3.51a35.55,35.55,0,0,1,3,5.76c.26.69.51,1.38.76,2.07,1.39,3.88,2,5.64,6.37,7.67l.7.29c-3.23.94-4.36,5.12-4.36,9.78a37.19,37.19,0,0,0,.59,6.34l0,.18.88.38c6,2.57,12.88,5.51,18,2.81a52.45,52.45,0,0,0,11.34-7.85l.25-.24-.33-.21C603.06,603.4,597.79,597.07,593.15,591.49Zm4,23.38c-5,2.63-11.72-.27-17.69-2.81l-.6-.26a35.15,35.15,0,0,1-.57-6.07c0-4.47,1.06-8.45,4.11-9.33a5.67,5.67,0,0,1,.84-.1l4.73,2c4.49,1.76,8.74,3.43,12.89,6.79l.18-.44h0c-4-3.44-12.62-9.35-17.8-8.86l-1.61-.67c-4.15-1.93-4.71-3.51-6.08-7.33-.25-.69-.51-1.38-.76-2.08a36.47,36.47,0,0,0-3-5.87l-1.64-2.89c8.13,2.89,15.46,6.08,22.47,14.49l.37.45c4.58,5.5,9.77,11.7,15.24,15.43A53.34,53.34,0,0,1,597.12,614.87Zm-12.74-18.61c3.13.2,7.14,2.26,10.68,4.57-2.3-1.17-4.64-2.11-7.06-3.06Z" style="fill-rule: evenodd"/>
    <path d="M585,584.86c-2.29-2.53-7-3.68-9.73-4l-.72.31c2.88,5.76,4.78,17.4,10.53,10.5C587.09,589.29,588.06,588.18,585,584.86Z" style="fill-rule: evenodd;fill: url(#q)"/>
    <path d="M585.16,584.67c-2.18-2.4-6.68-3.7-9.86-4.08l0,.53c3.12.37,7.51,1.63,9.6,3.93a6,6,0,0,1,1.82,3.08c.09,1.06-.68,2-1.75,3.28-1.48,1.77-2.72,2.4-3.85,2-1.87-.71-3.21-4.29-4.51-7.76l-1.88-4.58-.34.23,1.86,4.52c1.34,3.6,2.73,7.32,4.82,8.1,1.27.48,2.64-.18,4.17-2,1.18-1.42,2-2.41,1.89-3.71A6.41,6.41,0,0,0,585.16,584.67Z" style="fill-rule: evenodd"/>
    <path d="M568.65,576.71c-4,3.88,1.27,18.88,4,20.65,4-2.09,16.12-2.93,32.49,5.46C600.19,590.05,572.62,572.8,568.65,576.71Z" style="fill-rule: evenodd;fill: url(#r)"/>
    <path d="M576.21,577.44c-2.76-1.18-6.34-2.29-7.7-1-1.14,1.12-1.51,3-1.51,5a22.32,22.32,0,0,0,.29,3.34c.83,5.26,3.43,11.6,5.25,12.8,4.5-2.22,16.69-2.64,32.51,5.48l.44.22-.21-.55C601.6,593.18,585.87,581.53,576.21,577.44Zm-3.7,19.67c-1.36-1-4-6.89-4.81-12.34-.43-2.68-.58-6.21,1.09-7.84,1-.95,3.58-.59,7.35,1,9.17,3.89,24.52,15.23,28.48,24.4C589,594.46,576.85,594.86,572.51,597.11Z" style="fill-rule: evenodd"/>
    <path d="M574,581.87c-3.29-4.64-7.55-5.89-11.67-8.72-9-6.19-19.65-11.26-29.14-9.71-6.06,1-12.91,3.58-19.44,2.71l.36.07c-1.45,6.73,5.87,13.46-.28,18.48-4.41,3.6-11.4,2.66-15.13,7.78-5,6.81,2.38,12.51,7.59,15,3.06,1.44,5.43,1,7.39,5.26,1.5,3.26,1.65,8.1,1.51,11.7-.37,9.49-5.36,10.57-9.37,16.54s-3.29,13.49.37,20.9c1.87,3.78,4.15,7.78,6.84,10.48,3.36,3.35,4.5,3.85,6.11,9a74.1,74.1,0,0,1,2.82,11.1c.52,3.51.19,7.17,2.31,10.11,3.61,5,10.9,9.81,15.77,11.74,7.24,2.86,9.55-2.21,13.61-8.27,2.36-3.53,4.13-7.59,6.3-11.36,1.46-2.52,5.56-7.06,5.31-10.51-.35-5-5.83-4.91-8.73-6.52-3.4-1.89-6.37-6.45-9.73-7.79a2.21,2.21,0,0,0-.32-.06l-.2-.17c.17.06.34.16.52.23,2.46.29,6.68,3.46,8.81,4.93,3.74,2.58,7.78,4.33,11.34,3.15,7.66-2.54,11.57-10.19,11.27-20.51-.21-7.5-2.47-14.68-2.89-21.77-.33-5.55,2.22-5.83,3.89-9.88,1.28-3.1,1.59-8.46,1.89-12,.58-6.79-.27-17.18-2.88-23.51A46.24,46.24,0,0,0,574,581.87Z" style="fill-rule: evenodd;fill: url(#s)"/>
    <path d="M546.45,669.77a2.21,2.21,0,0,1,.32.06c-.18-.07-.35-.17-.52-.23Z" style="fill-rule: evenodd;fill: url(#t)"/>
    <path d="M574.11,581.7c-2.34-3.3-5.13-4.89-8.07-6.56l-3.66-2.22c-11.37-7.8-21.21-11.07-29.28-9.74l-5.41,1.13c-4.6,1.07-9.36,2.19-14,1.57,0,.18,0,.36,0,.53h.12a9.36,9.36,0,0,0-.17,1.67,21.54,21.54,0,0,0,1.28,6.25,18.73,18.73,0,0,1,1.14,5.31,5.9,5.9,0,0,1-2.42,4.82,18.82,18.82,0,0,1-6.63,2.95c-3.14.93-6.38,1.91-8.54,4.87a8,8,0,0,0-1.69,4.72,6.84,6.84,0,0,0,.22,1.73c1.26,4.92,7.34,8.09,9.18,9l2.24.85c2,.67,3.62,1.2,5,4.27,1.2,2.62,1.52,6.34,1.52,9.52,0,.7,0,1.38,0,2-.25,6.45-2.67,8.94-5.48,11.84a32.53,32.53,0,0,0-3.85,4.56,16.45,16.45,0,0,0-2.72,9.33A27.07,27.07,0,0,0,506,662c2.44,4.94,4.63,8.3,6.9,10.56l1.35,1.33c2.36,2.28,3.33,3.23,4.68,7.55a74.48,74.48,0,0,1,2.8,11c.09.9.19,1.81.29,2.71.22,2.6.45,5.3,2.08,7.56,3.64,5,10.9,9.85,15.88,11.83,6.65,2.62,9.3-1.44,12.65-6.58l1.16-1.76a73.09,73.09,0,0,0,3.91-6.91l2.4-4.46c.5-.75,1-1.51,1.51-2.26,1.72-2.46,3.84-5.48,3.84-8.09,0-.11,0-.22,0-.32-.28-3.86-3.38-4.85-6.12-5.72l-2.76-1.06a23.17,23.17,0,0,1-4.48-3.75,30.06,30.06,0,0,0-3.59-3,38.19,38.19,0,0,1,6,3.71l1,.68c4.6,3.17,8.36,4.22,11.49,3.18,7.55-2.5,11.7-10,11.4-20.74a79.44,79.44,0,0,0-1.51-11.86,84.47,84.47,0,0,1-1.38-9.91,8.19,8.19,0,0,1,1.93-6.45,15.3,15.3,0,0,0,1.94-3.31c1.16-2.81,1.52-7.3,1.81-10.91l.1-1.2c.57-6.7-.26-17.27-2.91-23.68A46.91,46.91,0,0,0,574.11,581.7Zm6.77,31.94-.1,1.2c-.28,3.39-.65,8-1.77,10.75a14.79,14.79,0,0,1-1.9,3.22,8.75,8.75,0,0,0-2,6.8,85.08,85.08,0,0,0,1.39,10,81.26,81.26,0,0,1,1.5,11.77c.29,10.45-3.77,17.83-11.15,20.28-3,1-6.69,0-11.18-3.13l-1-.68c-2.38-1.67-5.94-4.17-8.1-4.32-.11,0-.21-.15-.32-.18v.41l0,.11h0v0l.09.08.13,0c1.85.64,3.57,2.26,5.39,4a23.17,23.17,0,0,0,4.58,3.81l2.84,1.1c2.7.86,5.5,1.76,5.74,5.16a2.81,2.81,0,0,1,0,.29c0,2.42-2.07,5.38-3.75,7.77l-1.53,2.3q-1.21,2.24-2.41,4.47a71.06,71.06,0,0,1-3.89,6.87l-1.16,1.76c-3.4,5.22-5.85,9-12.26,6.45-4.92-1.95-12.08-6.68-15.66-11.65-1.51-2.11-1.73-4.59-2-7.21l-.3-2.75a75,75,0,0,0-2.82-11.15c-1.4-4.48-2.48-5.53-4.85-7.83l-1.34-1.32c-2.22-2.21-4.37-5.52-6.79-10.4a26.83,26.83,0,0,1-3.05-11.58,15.84,15.84,0,0,1,2.68-9,31.62,31.62,0,0,1,3.81-4.5c2.87-3,5.34-5.52,5.6-12.18,0-.64,0-1.32,0-2,0-3.26-.32-7.09-1.58-9.83-1.51-3.3-3.28-3.89-5.33-4.56l-2.19-.84c-3.67-1.72-7.93-4.86-8.88-8.55a6.42,6.42,0,0,1-.2-1.56,7.47,7.47,0,0,1,1.6-4.4c2.09-2.87,5.28-3.83,8.37-4.75a18.89,18.89,0,0,0,6.74-3,6.34,6.34,0,0,0,2.58-5.19,19.58,19.58,0,0,0-1.17-5.53,20.79,20.79,0,0,1-1.25-6.06,9,9,0,0,1,.17-1.71c4.51.47,9.1-.57,13.55-1.6l5.39-1.13c8-1.31,17.74,1.93,29,9.67l3.69,2.24c2.9,1.65,5.63,3.2,7.91,6.4a43.68,43.68,0,0,1,4.19,8.27C580.63,596.6,581.44,607,580.88,613.64Z" style="fill-rule: evenodd"/>
    <path d="M535.47,712.6c-2.79-2.8-5.12-5.89-8-8.65-3.75-3.56-4.65-3.26-5.08-9.14-.34-4.42-.39-8.79-2.13-12.94-1.92-4.57-5.38-7.59-7.9-11.52-4.37-6.84-12.59-17.48-8-25.78,4-7.28,11.85-7.79,11.58-19.08-.08-3.13-.19-9.75-1.35-12.69-1.62-4.13-4.82-3.91-8-5.75-2.23-1.31-6.92-3-8.5-5.55-1.06-1.68-.42-4.06-1.13-5.33-1.12-2,5-16.23,8.49-17.39a31.9,31.9,0,0,1,6.55-1.9c3.14-.37,5.14,1,5.34-4,.41-10.13-6.4-10-11.81-9.31-4.16.56-8,2.44-12.18,2.49s-11.33-1.89-12.89,3.75l1.08-.75c-2.49,1.44-2.73,6.24-3.66,9.49a114,114,0,0,1-4.12,10.84c-3.47,8.59-10.12,14.77-11.91,25C458.2,635.29,467.16,659,473,679c2.6,9,6.84,19.89,14,25,4.19,3,9.35,2.44,13.85,4.63,4.32,2.09,8,4.33,11.47,9,5.34,7.19,10.34,20,17.7,24.25,8.53,4.89,11.28-9.94,14.62-16.08,3.17-5.81,6.79-10.64,8.64-17.91C548.63,714.66,542.23,719.36,535.47,712.6Z" style="fill: #520;fill-rule: evenodd"/>
    <path d="M535.58,712.4l-3.64-4-4.38-4.69-1.65-1.5c-2.35-2.1-3-2.66-3.34-7.43,0-.61-.08-1.23-.13-1.85-.24-3.72-.5-7.58-2-11.19a31.53,31.53,0,0,0-4.84-7.43l-3.09-4.15L511,668c-4.44-6.74-10.53-15.93-6.5-23.21a22.65,22.65,0,0,1,5.23-6c3.37-3,6.55-5.87,6.38-13.23,0-.12,0-.24,0-.36-.08-3.34-.23-9.56-1.36-12.45s-3.21-3.82-5.35-4.65l-2.75-1.25-2.06-1.07c-2.32-1.16-5.2-2.58-6.35-4.4a6.05,6.05,0,0,1-.66-2.94,5.57,5.57,0,0,0-.46-2.37c-.06-.09-.21-.52.09-1.92,1-4.75,5.59-14.17,8.31-15.08l1.63-.56a20.82,20.82,0,0,1,4.9-1.32l1.84-.08c2,0,3.49,0,3.66-4.1.13-3.25-.48-5.72-1.8-7.37-2.32-2.88-6.49-2.76-10.27-2.26l-5.1,1.17a27.72,27.72,0,0,1-7.06,1.32l-2.8-.13c-4-.3-9-.63-10.25,4l.15.09c-1.13,1.42-1.64,3.7-2.11,5.95l-.62,2.7a83.23,83.23,0,0,1-3.16,8.49c-.32.77-.64,1.55-1,2.33a63.88,63.88,0,0,1-5,9.28c-2.86,4.65-5.82,9.47-6.93,15.77a60.47,60.47,0,0,0-.85,10.29c0,15,4.86,31,9.24,45.36l2.72,9.11c3.71,12.81,8.31,21,14.09,25.21,2.42,1.74,5.2,2.31,7.88,2.87a25.55,25.55,0,0,1,6,1.78c4.58,2.22,8.08,4.5,11.37,8.93a89.21,89.21,0,0,1,5.22,8.37c3.72,6.43,7.56,13.09,12.56,16,6.75,3.86,10-4.34,12.6-11,.75-1.73,1.51-3.46,2.26-5.2l2.35-4.1c2.52-4.28,4.9-8.33,6.31-13.87l-.36-.31C549,713.76,542.59,719.41,535.58,712.4Zm11.18,9.21-2.36,4.11L542.12,731c-2.68,6.76-5.7,14.42-12.11,10.75-4.88-2.79-8.68-9.38-12.36-15.75a91.83,91.83,0,0,0-5.26-8.43c-3.36-4.52-6.91-6.83-11.56-9.09a25.64,25.64,0,0,0-6.08-1.81c-2.65-.55-5.39-1.11-7.74-2.8-5.67-4.09-10.2-12.21-13.86-24.88l-2.73-9.12c-5.37-17.67-11.46-37.64-8.36-55.34,1.08-6.19,4-11,6.86-15.58a63.78,63.78,0,0,0,5-9.35l1-2.33a82.48,82.48,0,0,0,3.18-8.54l.63-2.74c.57-2.75,1.16-5.6,2.94-6.62l-.21-.49a3.89,3.89,0,0,0-.52.48c1.48-3.64,5.78-3.4,9.63-3.11l2.83.13a27.75,27.75,0,0,0,7.14-1.33l5.06-1.16c3.68-.49,7.73-.62,9.91,2.09,1.22,1.51,1.77,3.83,1.65,6.9-.15,3.68-1.27,3.68-3.31,3.68l-1.88.08a21.69,21.69,0,0,0-5,1.33l-1.62.57c-3,1-7.63,11.05-8.56,15.38a3.86,3.86,0,0,0,0,2.41,5.16,5.16,0,0,1,.37,2.06,6.72,6.72,0,0,0,.77,3.27c1.23,2,4.18,3.41,6.56,4.59l2,1.06,2.8,1.27c2.12.83,4,1.55,5,4.33s1.23,8.91,1.31,12.21v.36c.17,7.1-2.94,9.88-6.24,12.84a23.24,23.24,0,0,0-5.3,6.09c-4.21,7.6,2,17,6.55,23.87l1.46,2.24c1,1.4,2.09,2.81,3.13,4.21a30.57,30.57,0,0,1,4.75,7.26c1.47,3.51,1.71,7.13,2,11l.12,1.86c.38,5.05,1.12,5.7,3.56,7.88l1.63,1.49,4.35,4.65,3.67,4c6.86,6.87,13,2.07,17.24-3.64A54.09,54.09,0,0,1,546.76,721.61Z" style="fill-rule: evenodd"/>
    <path d="M541.65,601.39c-2.89-3.23-5.38-7.21-8.32-10.14-4.25-4.24-9.47-6.44-13.26-11.88l.36,1c-.24-.31-.56-.56-.81-.94-1.25-1.91-2.36-4.39-4.61-3.79s-1.24,1.73-1.43,3.89c-.06.59.74,1.66.64,2.78-.07.8-.93,1.41-1.1,2.19-.56,2.55-1.2,2.48.12,5,1.74,3.32,4.78,3.77,6.21,8.18,1.34,4.13.93,8.54,1.62,12.75,1.19,7.27,3.44,22.66,9.65,26.76,3.27,2.17,6.36-.51,7.28-4.21.52-2.1-.21-4.52.52-6.62.48-1.38,1.83-2.28,2.38-3.65-2.75-3-6.6-13.19-7.51-17.33C531.72,597.7,537.34,596,541.65,601.39Z" style="fill: #520;fill-rule: evenodd"/>
    <path d="M533.44,591.05a46.5,46.5,0,0,0-5.3-4.37c-2.77-2.06-5.64-4.19-7.93-7.47l-.25.28-.2-.22-.51-.82c-1-1.7-2.25-3.63-4.31-3.08-1.75.47-1.76,1.22-1.62,2.51l0,1.57c.09.38.19.76.28,1.13a3.79,3.79,0,0,1,.37,1.65c-.18.35-.35.7-.52,1s-.39.74-.58,1.11l-.39,1.44c-.39,1.33-.47,1.84.54,3.76a11.82,11.82,0,0,0,2.78,3.3,10.15,10.15,0,0,1,3.41,4.82,31.13,31.13,0,0,1,1.13,7.73l.48,5c0,.32.1.65.16,1,1.25,7.69,3.57,22,9.62,26a4.07,4.07,0,0,0,4,.47,6.91,6.91,0,0,0,3.52-4.81,12,12,0,0,0,.2-3.12,9.69,9.69,0,0,1,.32-3.47,6.24,6.24,0,0,1,1.17-1.83c.45-.66.89-1.33,1.33-2l-.2-.15c-2.72-3-6.55-13.2-7.42-17.18-.67-3-.19-5.35,1.31-6.32,1.78-1.16,4.44-.12,6.62,2.59h0c.08-.12.16-.25.25-.37s-3.65-4.54-3.65-4.54A55.39,55.39,0,0,0,533.44,591.05Zm1.23,7.45c-1.18.77-1.79,2.25-1.79,4.22a12.4,12.4,0,0,0,.32,2.65c.89,4.08,4.6,14,7.42,17.29l-1,1.57a6.37,6.37,0,0,0-1.25,2,7.91,7.91,0,0,0-.37,2.7c0,.32,0,.65,0,1s0,.65,0,1a8.23,8.23,0,0,1-.19,2,6.62,6.62,0,0,1-3.31,4.53,3.71,3.71,0,0,1-3.7-.44c-5.83-3.86-8.13-18-9.36-25.56,0-.33-.11-.66-.16-1-.16-1.64-.31-3.27-.47-4.9a31.54,31.54,0,0,0-1.17-7.91,10.93,10.93,0,0,0-3.57-5.1,11.09,11.09,0,0,1-2.66-3.13c-.93-1.76-.83-2.08-.48-3.25l.4-1.49c.16-.31.33-.62.5-.93s.41-.87.61-1.3a4.49,4.49,0,0,0-.41-2l-.24-.82,0-1.71c-.12-1.08-.17-1.57,1.35-2,1.8-.49,2.8,1.13,3.87,2.85.17.27.34.55.52.82l.51.61.31.35.22-.27a35.25,35.25,0,0,0,7.47,6.88,46.59,46.59,0,0,1,5.24,4.31,57.06,57.06,0,0,1,4.64,5.57l1.65,2.06C537.78,597.9,536,597.64,534.67,598.5Z" style="fill-rule: evenodd"/>
    <path d="M562.32,603c-.5-2.71-3.75-24.84-8.53-19.58-.74.81-.66,3.86-.83,5.22a23,23,0,0,1-1.35,4.88,19.57,19.57,0,0,0-.78,10.33c.81,3.94,2.87,7.78,4,11.84s4.28,10.29,4.31,14.25l-.72-1.06c1.63,3.25,4.75,2.4,5.85-.06,1.18-2.62.06-9.35-.09-12.68A94.49,94.49,0,0,0,562.32,603Z" style="fill: #520;fill-rule: evenodd"/>
    <path d="M564.35,616.15a92.82,92.82,0,0,0-1.75-12.77l-.08-.42-.18-1c-.73-4.32-3-17.48-6.28-19.37a1.81,1.81,0,0,0-2.41.61c-.6.65-.7,2.43-.79,4,0,.46-.07.91-.1,1.37a14.32,14.32,0,0,1-.86,3.4l-.48,1.43a23,23,0,0,0-1.18,6.77,20,20,0,0,0,.39,3.72,42.37,42.37,0,0,0,2.12,6.52q.91,2.67,1.85,5.35.85,2.47,1.73,5a37.66,37.66,0,0,1,2.47,8.36c-.08-.13-.17-.17-.25-.32l-.33.23a3.68,3.68,0,0,0,2.73,2.26,3.5,3.5,0,0,0,3.47-2.27c.9-2,.5-6.31.18-9.76Zm-.3,12.49a3.22,3.22,0,0,1-3.13,2.06,2.9,2.9,0,0,1-1.64-1c-.1-2.58-1.35-5.91-2.59-9.15l-1.71-4.9-1.87-5.43a41.77,41.77,0,0,1-2.08-6.4,17.54,17.54,0,0,1-.37-3.57,22.27,22.27,0,0,1,1.14-6.6c.16-.47.32-.94.47-1.41a14.36,14.36,0,0,0,.89-3.52l.11-1.41c.08-1.33.18-3.15.67-3.68.69-.76,1.34-.94,2-.57,2,1.17,4.07,7.54,6,18.93l.18,1,.08.42a92,92,0,0,1,1.74,12.67c.08,1,.16,2.06.25,3.08C564.5,622.55,564.9,626.74,564.05,628.64Z" style="fill: #520;fill-rule: evenodd"/>
    <path d="M526.33,662c0-.12,0-.27,0-.41l-.38-1Z" style="fill: #520;fill-rule: evenodd"/>
    <path d="M540.74,678.21c-3.47-2.22-8.07-3.54-10.54-7.54a61.63,61.63,0,0,1-3.85-9.1c0,.14,0,.29,0,.41l-.36-1.45.38,1a4,4,0,0,0-.09-1.35c-2-6.17-2.79,3.56-2.36,5.89.76,4.13,2.08,8.29,3.16,12.49,1.29,5,2,7.55,5.76,10.45,2.71,2.1,6.19,7.83,9.28,7.72,3.57-.13,4.76-4.68,4.41-8.67C546,682.59,544.57,680.65,540.74,678.21Z" style="fill: #520;fill-rule: evenodd"/>
    <path d="M540.8,678l-3.11-1.73c-2.75-1.43-5.6-2.9-7.33-5.71a61.26,61.26,0,0,1-3.83-9c0-.4-.08-1.34-.08-1.34-.2-.59-.79-2.39-1.55-2.2-1.28.32-1.5,6.59-1.2,8.18.52,2.86,1.33,5.78,2.11,8.6.35,1.31.71,2.61,1.06,3.92,1.32,5.13,2.12,7.72,5.87,10.63a24.49,24.49,0,0,1,2.93,3c2,2.27,4.34,4.85,6.46,4.78,3.27-.12,4.64-3.77,4.64-7.55q0-.69-.06-1.38C546.21,682.31,544.55,680.36,540.8,678Zm1.26,18.53c-1.95.07-4.09-2.32-6.15-4.63a25.49,25.49,0,0,0-3-3c-3.61-2.79-4.34-5.17-5.65-10.28-.36-1.31-.71-2.62-1.06-3.93-.78-2.81-1.58-5.71-2.1-8.53-.34-1.86.11-7.41.93-7.62.26-.06.64.62,1,1.82,0,0,0,.25,0,.45l-.22.1c.07.21.18.5.26.73v.09l0,.27.16,0a59.75,59.75,0,0,0,3.77,8.84c1.82,3,4.73,4.46,7.54,5.92l3.08,1.71c3.75,2.39,5.16,4.21,5.63,9.65,0,.43.06.88.06,1.32C546.36,693,545.09,696.39,542.06,696.5Z" style="fill: #2b1100;fill-rule: evenodd"/>
    <path d="M576.39,648.71c-2.75-2.78-5.64.06-8.35.44-7.38,1-14.47-8.32-16.51,4.51-.57,3.6-.13,6.79-2.6,9-3.28,3-6.69.78-10.35-1.52v.46c-.5-.2-.46-.62-1-.6.2,3.87,3.53,4.09,5.62,5.75,2.42,1.92,4.62,5,7.12,7,5.85,4.56,13.62,7.82,19.7,5.27,5.27-2.21,9.27-11.83,9.27-19.12C579.27,656.78,578.77,651.12,576.39,648.71Z" style="fill: #520;fill-rule: evenodd"/>
    <path d="M576.5,648.51c-2-2-4.08-1.21-6.07-.41l-2.44.78c-2.47.35-5-.5-7.15-1.25-4.36-1.49-8.13-2.76-9.51,5.94l-.3,2.59c-.23,2.51-.43,4.67-2.23,6.31-3.17,2.87-6.51.76-10-1.46l-.13.47c3.65,2.3,7.1,4.47,10.44,1.44,1.93-1.75,2.15-4.11,2.38-6.61.1-.85.2-1.7.29-2.55,1.32-8.25,4.73-7.09,9.06-5.62,2.23.76,4.76,1.63,7.31,1.27l2.51-.79c1.89-.77,3.84-1.56,5.67.29,2.05,2.07,2.78,7,2.78,11,0,7.11-3.91,16.7-9.16,18.9s-12.52.23-19.52-5.24a31.78,31.78,0,0,1-3.62-3.55,33.27,33.27,0,0,0-3.5-3.44l-2-1.2c-1.63-.84-3.13-1.68-3.41-3.94l.19.09.51.38.07-.5-.35-.27-1-.48c0,.13.07.25.1.37.15,3,2,3.92,3.81,4.84l1.93,1.16a32.87,32.87,0,0,1,3.43,3.37,32.1,32.1,0,0,0,3.69,3.61c7.11,5.56,14.54,7.55,19.87,5.31s9.39-12.06,9.39-19.33C579.47,658,579.26,651.3,576.5,648.51Z" style="fill-rule: evenodd"/>
    <path d="M560.13,656.86l-.36-.53c-1.89,0-2.51,2.71-1.74,5.08C562,663.15,563.57,657.75,560.13,656.86Z" style="fill: #e3dbdb;fill-rule: evenodd"/>
    <path d="M560.13,656.6c0,.18,0,.35,0,.53a2.13,2.13,0,0,1,1.58,1.35,2.32,2.32,0,0,1-.32,2,2.48,2.48,0,0,1-3.19.69,6.34,6.34,0,0,1-.28-1.76,4.28,4.28,0,0,1,.35-1.78,1.66,1.66,0,0,1,1.54-1.06l-.06-.54a2,2,0,0,0-1.84,1.27,5.93,5.93,0,0,0-.06,4.15l0,.14.11,0a2.83,2.83,0,0,0,3.72-.76,2.94,2.94,0,0,0,.36-2.57A2.65,2.65,0,0,0,560.13,656.6Z" style="fill: #e3dbdb;fill-rule: evenodd"/>
    <path d="M573.52,657.44c-.2.36-.44.72-.67,1.07a1.8,1.8,0,0,1,2-.39L572,660.27C575.59,664,577.81,656.81,573.52,657.44Z" style="fill: #e3dbdb;fill-rule: evenodd"/>
    <path d="M572.85,658.51a5.46,5.46,0,0,0-1.06,1.65C572.12,659.62,572.49,659.07,572.85,658.51Z" style="fill: #e3dbdb;fill-rule: evenodd"/>
    <path d="M573.46,657.17a11.67,11.67,0,0,0-.72,1.06A5.69,5.69,0,0,0,571.6,660l.35.35.08-.12-.13.24c1.23,1.28,2.51,1.51,3.43.6a2.66,2.66,0,0,0,.58-2.75A2,2,0,0,0,573.46,657.17Zm1.59,3.46c-.77.76-1.86.55-2.92-.55l.46-.7.42-.69a1.68,1.68,0,0,1,1.86-.32c0-.17,0-.34,0-.51a2.15,2.15,0,0,0-1.33-.09l.1-.16a1.76,1.76,0,0,1,1.87.89A2.11,2.11,0,0,1,575.05,660.63Z" style="fill: #e3dbdb;fill-rule: evenodd"/>
    <path d="M555,668.39a6.55,6.55,0,0,0-4.38,4.65l.39.25a6.18,6.18,0,0,1,4.16-4.38c5.85-2.07,16.16,1.67,20.41,5.05l.18-.44C571.4,670.09,560.91,666.29,555,668.39Z" style="fill-rule: evenodd"/>
    <path d="M550.2,632.41c-3.55,1.29-7.61,5.21-10,8.17l-2.07,3.27c-1.43,2.6-2.38,4.32-6,3.39l-1-.25c.13.41.27.83.41,1.25.2.62.51,1.37.79,2.09-1.44-2.37-2.87-4.78-4.28-7.18-4-6.84-8.17-13.9-12.52-19.28l-.79,1.07c4.27,5.27,8.39,12.27,12.37,19a182.31,182.31,0,0,0,11.27,17.68h0l.81-1,0,0A50.86,50.86,0,0,1,533.12,649c3.46.47,4.7-1.6,6-4l2-3.09c2.31-2.86,6.2-6.64,9.57-7.86,5.68-2.08,21.18-1.14,24.42,7.95l1.11-.46C572.45,630.84,556.06,630.26,550.2,632.41Z" style="fill-rule: evenodd"/>
    <path d="M525.67,606.66c.76,5.15,10.41,13.15,12.5,7.11-.6,0-.77-.55-1-.74C535,609.26,528.76,609.62,525.67,606.66Z" style="fill-rule: evenodd"/>
    <path d="M537.5,613.1l-.25-.26c-1.25-2.14-3.77-3-6.22-3.81-1.93-.64-3.93-1.3-5.26-2.57l-.39-.38c0,.2,0,.4.08.6.51,3.39,4.74,8.06,8.4,9.25,2.2.72,3.8,0,4.5-2l.08-.25-.3-.16Zm-3.6,2.31c-3.25-1-7-5.11-7.82-8.21a16,16,0,0,0,4.91,2.35c2.39.79,4.86,1.62,6,3.61l.16-.13c0,.11-.07.23-.07.23l.17.19.64.39C537,615.89,535.27,615.86,533.9,615.41Z" style="fill: #c8beb7;fill-rule: evenodd"/>
    <path d="M580.66,602.25a.53.53,0,0,1,0,.12c0-.27,0-.54,0-.81Z" style="fill: #520"/>
    <path d="M574.72,635l0-.07,0,.1C574.68,635.54,574.7,635.52,574.72,635Z" style="fill: #520"/>
    <path d="M580.69,602.37c.29,5-2.17,9.64-3.3,13.72s-1.45,12.14-4.24,14.55a16.45,16.45,0,0,0,1.54,4.29c.94-5.42,4.4-8.22,5.31-13.57s1-12.08,1.66-17.39C580.38,603.75,581,603.11,580.69,602.37Z" style="fill: #520"/>
    <path d="M581.07,603.47l0-.34-.12-.52c0-.35,0-.69-.06-1.05h-.41a12.23,12.23,0,0,1,.1,1.59c0,3.21-1.09,6.23-2.14,9.16L577.19,616l-.9,4.56c-.64,3.87-1.38,8.26-3.28,9.89l-.1.09,0,.17a17.71,17.71,0,0,0,1.52,4.24v0c0,.13.06.12.07.21a.9.9,0,0,0,0,.15h.08c0,.12,0,.34.12.36s.09-.2.12-.31l.07,0s0-.1,0-.18,0,0,0-.13,0-.06,0-.08a21.85,21.85,0,0,1,2.64-6.68,21.87,21.87,0,0,0,2.67-6.85c.54-3.2.79-6.79,1-10.26.22-2.46.43-4.93.65-7.39l-.23-.1Zm-.24,7.58c-.25,3.46-.5,7-1,10.2a20.69,20.69,0,0,1-2.62,6.69,23.39,23.39,0,0,0-2.54,6.42,19.27,19.27,0,0,1-1.25-3.63c1.92-1.8,2.67-6.14,3.32-10,.29-1.5.59-3,.88-4.5.41-1.2.81-2.41,1.21-3.61a29.76,29.76,0,0,0,2.11-8.75l.54.26C581.4,604.55,580.83,611.05,580.83,611.05Z"/>
    <path d="M515.47,566.26c-4.73-3-24.6,15.84-25.3,27.76,12.36-9.57,22-8.52,26.25-7.18C521,587.72,520.2,569.19,515.47,566.26Z" style="fill-rule: evenodd;fill: url(#u)"/>
    <path d="M515.54,566c-1.69-1-4.72.52-7,2-7.43,4.91-18.09,17.22-18.6,25.93l0,.57.37-.28c12.75-9.88,22.5-8.29,26.1-7.15,1.58.3,2.67-1.35,3.1-4.64C520.27,576.61,518.67,568,515.54,566Zm3.56,16.28c-.39,3-1.37,4.52-2.68,4.27-3.58-1.13-13.28-2.68-25.93,6.9.92-8.51,11.12-20.2,18.3-25,3.08-2,5.43-2.75,6.62-2,2.39,1.49,3.87,7.57,3.87,12.81A23.83,23.83,0,0,1,519.1,582.3Z" style="fill-rule: evenodd"/>
    <path d="M435.72,484c62.81-82.38,125.61-159.75,188.42-237-62.81-13.66-125.61-27.17-188.42-35.67Z" style="fill: green;fill-rule: evenodd"/>
    <path d="M813.19,556.54V283.9c-63.87-9.3-127.75-23.47-191.62-37.43C685.44,351.3,749.32,456.36,813.19,556.54Z" style="fill: maroon;fill-rule: evenodd"/>
    <path d="M477.07,373.24a3.14,3.14,0,0,1-.15-.49l-.21,0Z" style="fill: url(#v)"/>
    <path d="M481.72,357.18c-2.48,2-6.41,11.63-4.8,15.57,4.81.51,9.38,4.37,14.48,4.33,6.32,0,6.87-5.33,4.73-12.81C494.09,357.18,486.57,353.3,481.72,357.18Z" style="fill: url(#w)"/>
    <path d="M495.35,374.34c1-2.2.88-5.59-.4-10.37a12.34,12.34,0,0,0-5.61-7.63,6.8,6.8,0,0,0-8.11.55c-1.81,1.57-4.51,7.93-4.9,12.52,0,.38-.05.75-.05,1.09a6.36,6.36,0,0,0,.41,2.36V373h0a3.54,3.54,0,0,0,.14.39l.29-.28s0,0,0,0a20.52,20.52,0,0,1,5.72,1.95c2.41,1.09,10.78,4.57,13.41,4.54C498.71,379.48,494.5,376.16,495.35,374.34ZM495,374c-.78,1.69-2.36,2.57-4.67,2.62-2.57.05-5-1.07-7.41-2.14a20.49,20.49,0,0,0-6-2,5.77,5.77,0,0,1-.29-1.91c0-.32,0-.67,0-1,.38-4.48,3-10.66,4.75-12.18a6.53,6.53,0,0,1,7.78-.53,11.8,11.8,0,0,1,5.36,7.27C495.83,368.7,496,371.94,495,374Z"/>
    <path d="M477.28,373.27l-.42-.14-.06.07Z" style="fill: url(#x)"/>
    <path d="M541.5,327.21c-2.18-3.38-2.48-8.56-3.64-12.21-3.29-10.38-11-21.08-15.49-30.69-1.94-4.19-3.86-11-3.86-15.28,0-4.91,1.57-6.54-1.54-11.73-3.42-5.73-6.29-26-15.38-19.23-5.95,4.4-11.25,14.36-13.18,21.62-2.41,9.11-7.5,17.68-9.08,27-.6,3.49.65,7.74-.71,10.73-1.52,3.32-4.81,5.25-7,8.09-3.14,4-4.84,9.26-7.83,13.61a67.22,67.22,0,0,0-8.82,16.74c-1.61,4.85-2,8.57-2.82,13.77-.62,3.93-2.92,7.05-2.9,11.44,0,6.39,2.61,6.05,8.33,7.2,6.47,1.31,13,2.52,19.31,4.86,3.28-3.16,2.37-14.8,10.1-13.2,2.71.56,7.15,5.52,7.77,8.11.74,3-2.88,7-.64,10,1.92,2.57,9.77,2.51,12.71,3.2,5,1.15,9.94,3.09,15,3.75a19.45,19.45,0,0,0,11.6-1.75c4.06-1.85,3.79-4,6.41-7.42s5.9-5.46,7.18-10.07,3.15-9.41,3.83-14.47c.6-4.5,2.46-11.21-.48-15.65C548.14,332.27,543.7,330.63,541.5,327.21Z" style="fill: url(#y)"/>
    <path d="M546.06,331.25a17.32,17.32,0,0,1-4.41-4.2c-1.4-2.16-2-5.09-2.59-7.91-.34-1.41-.67-2.81-1-4.21-2-6.43-5.76-13-9.36-19.27-2.28-4-4.44-7.79-6.15-11.47-1.88-4.05-3.83-10.81-3.83-15.12.08-1.14.15-2.28.23-3.42.29-2.69.5-4.63-1.81-8.49a42.38,42.38,0,0,1-2.69-6.73c-1.89-5.5-4-11.72-7.48-13.5-1.67-.86-3.52-.56-5.49.9-6.05,4.47-11.34,14.55-13.25,21.75a101.37,101.37,0,0,1-4.12,11.57c-2,5-4.07,10.13-5,15.45a22.55,22.55,0,0,0-.11,4.66c.1,2.22.19,4.32-.58,6a16.86,16.86,0,0,1-4.11,5l-2.89,3a43.43,43.43,0,0,0-4.29,7.3,53.66,53.66,0,0,1-3.54,6.32,67.67,67.67,0,0,0-8.85,16.8A61.61,61.61,0,0,0,452.31,347l-.39,2.52a24.37,24.37,0,0,1-1.34,4.57A18.94,18.94,0,0,0,449,361c0,5.94,2.27,6.33,6.75,7.15l1.77.34,2.5.5a109.39,109.39,0,0,1,17.21,4.49c0-.17.05-.34.07-.51l-.11,0a14.81,14.81,0,0,0,2.29-5.2c1.26-4.23,2.57-8.62,7.45-7.6,2.59.54,7,5.43,7.58,7.89a7.92,7.92,0,0,1-.62,4c-.67,2.07-1.36,4.21,0,6.08s5.93,2.43,9.52,2.83l3.32.46,5.46,1.48a64.51,64.51,0,0,0,9.56,2.28,19.63,19.63,0,0,0,11.68-1.76,8.76,8.76,0,0,0,4.59-4.52L540,376c.83-.95,1.66-1.9,2.5-2.84,1.95-2.08,3.8-4,4.71-7.31l1.26-4.18A62.93,62.93,0,0,0,551,351.35l.38-2.4c.71-4.31,1.61-9.67-.91-13.49A18.12,18.12,0,0,0,546.06,331.25ZM551,348.77l-.38,2.42a61.49,61.49,0,0,1-2.56,10.23l-1.26,4.2c-.88,3.16-2.69,5.08-4.61,7.12-.85.95-1.69,1.91-2.53,2.87l-1.92,3A8.36,8.36,0,0,1,533.3,383a19.31,19.31,0,0,1-11.51,1.73,64.41,64.41,0,0,1-9.51-2.26L506.81,381l-3.36-.48c-3.34-.37-7.9-.86-9.23-2.63-1.18-1.59-.57-3.48.07-5.49a8.55,8.55,0,0,0,.63-4.39c-.64-2.66-5.19-7.74-8-8.32-5.18-1.07-6.6,3.69-7.85,7.88-.65,2.19-1.28,4.23-2.37,5.3a113.46,113.46,0,0,0-16.68-4.33l-2.51-.5-1.77-.33c-4.48-.82-6.33-1.15-6.35-6.58V361a19,19,0,0,1,1.53-6.66,24.76,24.76,0,0,0,1.36-4.67l.39-2.53A61,61,0,0,1,455.14,336a66.65,66.65,0,0,1,8.78-16.67A54.79,54.79,0,0,0,467.5,313a42.65,42.65,0,0,1,4.24-7.24l2.85-3a17.15,17.15,0,0,0,4.21-5.16,10,10,0,0,0,.69-4.11c0-.72,0-1.45-.07-2.17s-.06-1.46-.06-2.18a13.71,13.71,0,0,1,.17-2.34c.89-5.26,3-10.39,4.94-15.33a101.89,101.89,0,0,0,4.14-11.64c1.89-7.12,7.12-17.09,13.09-21.51,1.9-1.4,3.59-1.69,5.16-.87,3.27,1.68,5.36,7.78,7.21,13.16a41.92,41.92,0,0,0,2.75,6.86c2.18,3.66,2,5.41,1.71,8.06-.08,1.16-.15,2.33-.23,3.49,0,4.4,2,11.3,3.9,15.42,1.72,3.71,3.88,7.5,6.17,11.51,3.58,6.28,7.28,12.79,9.3,19.14.33,1.38.66,2.76,1,4.14.6,2.89,1.21,5.88,2.68,8.15a17.94,17.94,0,0,0,4.55,4.35,17.69,17.69,0,0,1,4.29,4.06C552.56,339.36,551.69,344.58,551,348.77Z"/>
    <path d="M486.66,308.3c-2.17,5.07-6.19,9.21-7.74,14.58s-2.71,9.52-5.8,13.91c-3.42,4.85-2.9,15.86-2.5,23,3.31-1.6,4.3-5.64,6.34-9.15,2.93-5,8.67-6.47,10.4-12.25,1.64-5.51,5.43-9.09,6.1-15.09,1.08-9.65-1.75-19.79-2.15-29.43C489.69,298.55,488.55,303.89,486.66,308.3Z" style="fill: url(#z)"/>
    <path d="M511.81,248.09c.21,5.53-5.17,3.57-7.07,7-1.32,2.38-2,8.11-.47,10.89,1.41-1.95,2.47-3.15,4.31-3.84,2-.74,5.82.75,6.9-1.37,1.55-3-2.09-9.23-3.67-12.23Z" style="fill: url(#aa)"/>
    <path d="M517.59,267.12c.49.14.44-.17.66-.42l-.36-.07c-4.5-1.59-7.79,10.9-7.6,14.72.21,4,.74,8.28.1,12.25-.55,3.42-2.26,6.62-2.2,10.36.9-3.8,3.55-9.18,6.47-10.84,3.56-2,5.66,1.36,6.1-5,.31-4.56-1.4-7.25-2.16-11.3C518,273.6,518.6,270.11,517.59,267.12Z" style="fill: url(#ab)"/>
    <path d="M538,321.79c-4.37-.85-4.63-.44-7.18,3.14-1.93,2.72-4.95,3.07-7.12,5.42,3.49.83,7.15-.27,11.06.77,1.33.35,3.64,1.59,5,1.45.84-.08,1.9-1.89,2.82-2.2A27.69,27.69,0,0,1,538,321.79Z" style="fill: url(#ac)"/>
    <path d="M506.43,366.12c.17-3.48,1.8-6.18,1.76-9.59-5.94-.61-8.33,17.66-8.17,23.28,3.42,1.32,6.64.11,10,.55a15.88,15.88,0,0,1,3.12.8,23.88,23.88,0,0,0-5.56-3.13A44.54,44.54,0,0,1,506.43,366.12Z" style="fill: url(#ad)"/>
    <path d="M518.19,383.19c0-.13,0-.28,0-.42a48.39,48.39,0,0,1-5.08-1.61A11.15,11.15,0,0,0,518.19,383.19Z" style="fill: url(#ae)"/>
    <path d="M550.48,338.5c-5-3.6-7.76,2.11-11.08,5-2,1.71-2.14,2.59-4.67,2.72s-5.23-1.81-7.62-1.5c-10.22,1.34-8.51,26.84-8.9,38.07a11.43,11.43,0,0,0,1.19.27c3.52.44,5.85-1.41,9.2-1.41,4.06,0,6.11-.13,8.91-3.75,3.61-4.67,7.27-9.39,9-15.7,1.59-5.69,4.12-12.52,4.64-18.54a12.23,12.23,0,0,0-.72-5.58Z" style="fill: url(#af)"/>
    <path d="M436.87,483.06c124.94,17.11,249.87,53.9,374.81,72.17C749,455.81,686.29,351.72,623.6,247.8,561.36,324.48,499.11,401.33,436.87,483.06Z" style="fill: #e6e6e6"/>
    <path d="M623,247C560.34,324.15,497.69,401.51,435,483.87,561.2,501,687.36,538.29,813.52,556.55,750.21,456.25,686.9,351.14,623.6,246.21ZM809.85,553.91c-1.8.56-93.7-15.19-185.58-36.11-91.89-21.26-183.78-36.12-185.58-35.54,1.19-1.91,47.11-61.49,92.89-118.79,45.78-57.63,91.41-113,92-114.08C624.82,252.57,807.46,552.7,809.85,553.91Z"/>
    <path d="M743.53,382.24c-1.45-4.45-3-8.71-3.95-11.06C739.66,375.82,741.58,379.07,743.53,382.24Z" style="fill-rule: evenodd;fill: url(#ag)"/>
    <path d="M745.11,312.34a41.68,41.68,0,0,0-19.41-6.53c-5.12-.3-7.84,2.94-12.06,4.36l-.66,1.56c.17,5.56,3.2,7.64,5.29,12,1.89,4,3.17,9.72,4.63,14.47,3.83,12.43,6.6,16.87,2.5,27.38-1.49,3.83-2.91,7.69-4.33,11.34-.66,1.69-3,3.81-2.83,6,.34,5.37,1.33,2.24,4,5,4.37,4.49,7.94,4.69,13.11,6,3.21.85,7.47,2.8,11.26,2,.07-3.11-1.42-8.57-3.1-13.77-1.95-3.17-3.87-6.42-3.95-11.06.91,2.35,2.5,6.61,3.95,11.06,2.19,3.59,4.41,7.06,4,12.31,7.49-4.58-2.69-23.35-4.95-29.4-4.37-11.67,4.49-16,8.62-25.85C756.14,327.5,756.46,319.44,745.11,312.34Z" style="fill-rule: evenodd;fill: url(#ah)"/>
    <path d="M745.18,312.1a42.28,42.28,0,0,0-19.5-6.56c-3.37-.19-5.66,1.09-8.08,2.44l-4.1,2,0,.08-.66,1.56c.09,4,1.57,6.22,3.12,8.6.73,1.24,1.46,2.47,2.18,3.71a67.66,67.66,0,0,1,3.35,10c.42,1.47.84,2.93,1.27,4.4l1.62,5.08c2.88,8.82,4.33,13.24.88,22.08q-2.18,5.67-4.34,11.35c-.37.62-.73,1.25-1.1,1.88-.86,1.27-1.84,2.72-1.74,4.26.2,3.21.65,3.61,1.79,3.88a4.12,4.12,0,0,1,2.31,1.33c3.72,3.8,6.85,4.56,10.82,5.51l2.4.59,2.34.71c2.83.9,6,1.92,9,1.28l.14,0s0-.32,0-.38c0-2.81-1.16-7.4-2.6-12,1.69,2.8,3.13,5.61,3.13,9.4,0,.41,0,.82,0,1.24,0,.18,0,.35-.05.53l.36-.22c6.4-3.91.4-17.55-3.19-25.72l-1.69-4c-2.92-7.79.19-12.25,3.8-17.42a44.41,44.41,0,0,0,4.83-8.2c3.2-7.65,4-12.79,2.66-17.19C752.89,318.43,750,315.12,745.18,312.1Zm5.84,27a43.67,43.67,0,0,1-4.79,8.12c-2.65,3.81-5.05,7.25-5.05,11.9a17.31,17.31,0,0,0,1.21,6.08l1.71,4c2.41,5.49,5.94,13.52,5.94,19.2,0,2.4-.67,4.35-2.28,5.54,0-.23,0-.45,0-.67,0-4.56-2-7.83-3.95-11l-.15-.25c-1.41-4.31-3-8.48-3.92-11l-.39.05c.08,4.7,2,8,4,11.18,1.65,5.09,3.08,10.36,3.09,13.43-2.85.56-5.94-.41-8.69-1.28l-2.36-.72-2.4-.59c-3.91-.94-7-1.68-10.61-5.39a4.51,4.51,0,0,0-2.53-1.45c-.87-.2-1.2-.28-1.39-3.32a1,1,0,0,1,0-.17c0-1.28.88-2.59,1.67-3.75l1.14-2q2.18-5.69,4.34-11.35a25.77,25.77,0,0,0,2-9.52c0-4.09-1.23-7.86-2.91-13q-.81-2.53-1.61-5.07c-.43-1.45-.85-2.91-1.27-4.37a66.26,66.26,0,0,0-3.39-10.15l-2.22-3.8c-1.57-2.38-2.92-4.45-3-8.1,0,0,.55-1.25.61-1.37s4-1.91,4-1.91c2.38-1.34,4.64-2.6,7.91-2.4A41.69,41.69,0,0,1,745,312.57c4.7,2.95,7.52,6.15,8.63,9.82a14,14,0,0,1,.59,4.11C754.26,329.89,753.21,333.91,751,339.14Zm-8.27,41.38a19.52,19.52,0,0,1-2.77-7.74C740.77,374.89,741.76,377.59,742.75,380.52Z" style="fill-rule: evenodd"/>
    <path d="M734,392.94v.63a7.86,7.86,0,0,0,2.88.46c.25-6.23-1.27-11.28-1.4-17.28C734.05,380.18,736,388.66,734,392.94Z" style="fill: #b67b71"/>
    <path d="M720.71,385.9l.5.73c3.22,4.87,4.94-6.74,4.34-10.42C723.47,378.88,722.9,383.25,720.71,385.9Z" style="fill: #b67b71"/>
    <path d="M729.59,357.41c-.13-.22-.3-.48-.46-.73h0C729.26,356.93,729.43,357.17,729.59,357.41Z" style="fill: #b67b71"/>
    <path d="M729.13,356.68c.16.25.33.51.46.73-.16-.24-.33-.48-.49-.73h0c-.19-.28-.37-.55-.52-.82a11.83,11.83,0,0,0-.91,4.26c.89-.69,2-.24,2.8-.54.1,2.6.08,5.26,0,7.88,1-2,1.22-5,1.08-7.66.56.69,1.12.5,1.89,1.9.09-.19.75-.45.92-.3a11.13,11.13,0,0,0,.15-1.66c.26,0,1.72.43,1.82.37.31,1.26,1.26,3,1.45,3.91a32.84,32.84,0,0,1,.54-6C735.45,357.19,732,356.12,729.13,356.68Z" style="fill: #b67b71"/>
    <path d="M750.8,323c.23,3.11,0,10-1.06,12.44-1.56,3.59-4.91,3.06-3.79,9,3.09-4.25,9.92-15.6,4.85-22.08Z" style="fill: #b67b71"/>
    <path d="M744.88,315.62c-3,4.61.49,10.91-1.9,15.85a16.91,16.91,0,0,0,1.32,2.13c-.12-3.22,1.36-5.45,1.57-8.32.25-3.36-.59-6.21-.5-9.57Z" style="fill: #b67b71"/>
    <path d="M722.08,330.35a65,65,0,0,0,2.09,7.53C723.66,335.58,722.92,332.94,722.08,330.35Z" style="fill: #b67b71"/>
    <path d="M726.17,312.14c-2.82.35-5.13,1.42-7.92,1.43l1,.2c0,.35-1.22.06-.45,2.21-1.18-1.08-2.63-1.55-3.84-2.51.24.51.76.94,1,1.42-.61-.35-1.92-.64-2.62-1,1.17,4.17,5.08,6.77,6.72,10.86.69,1.71,1.36,3.63,2,5.57-1.05-5-1.48-10.31.21-13.4,2.21-.94,3.75,1.47,5.7,1.8.35,1.16,1,1.85,1.19,3.2,0,0,1.42.38,1.32.26-.55-6.09,3.51-5.81,3.47-10.5C731.54,312.81,728.69,311.83,726.17,312.14Z" style="fill: #b67b71"/>
    <path d="M741.43,317.49c-1.2,4.49-2.15,10.76-2.88,15.47C739.48,328.84,741.33,321.85,741.43,317.49Z" style="fill: #b67b71"/>
    <path d="M746.85,324.28v0l0-.06C746.84,324.71,746.85,324.75,746.85,324.28Z" style="fill: #b04d5b"/>
    <path d="M748.33,321.31V322c-.34-1.49.17-2.46-1.39-2.71a26.73,26.73,0,0,0-.09,5,23.14,23.14,0,0,1,2.12,4.62c.07-.86.34-1.72.34-2.76.27,2.87.91,3.13,1.91,4.5.23-.58.4-1.5.59-2.1.11,4.23-2.72,7.13-2.91,11.68C751.55,335.93,757.76,323.06,748.33,321.31Z" style="fill: #b04d5b"/>
    <path d="M740.49,358.27a8.1,8.1,0,0,0-.33-1.56,2,2,0,0,0,1.39-1.18l.1-.32-.28-.07c-.66-.18-1.34-.29-2-.45-.28-.65-.6-1.3-1-2a7.94,7.94,0,0,1-.31-1.71v-.15l-.11-.09a38.81,38.81,0,0,1-3.23-4.18c-3.65-5.08-8.65-12.05-11.44-11.22-1.09.33-1.73,1.84-1.89,4.49l.39.22c.78-1.82,2.16-2.28,4.12-1.38,4.07,1.88,9.26,8.75,12.11,14.2.1.41.22.83.33,1.19l.12.43c-2.42-.54-4.85-1-7.24-1.46l-4.14-.78v.53l4.15.77c2.43.44,4.91.94,7.38,1.5l.1.41.41,0s0-.2-.08-.29h0c.17.39.35.81.48,1.17a6.64,6.64,0,0,1-1.54.12c-3.56-2-8.53-3-10.85-2.23,0,.17,0,.35.08.52l3,.73A39.11,39.11,0,0,0,738,357a11.56,11.56,0,0,1,2,1.35,36,36,0,0,1-7.31-1.11l-6.14-1.16.53.57c2.44,2.7,6,2.75,9.42,2.79a20.92,20.92,0,0,1,4.9.42l.48.13-.31-.53A6.53,6.53,0,0,0,740.49,358.27ZM726,338.17c-1.78-.82-3.1-.4-4,.88.24-1.77.68-2.95,1.47-3.19,1.8-.54,4.88,2.87,7.73,6.57A18.88,18.88,0,0,0,726,338.17Zm11.08,12.16c.21.25.46.58.62.73a4.17,4.17,0,0,0,.08.49C737.56,351.14,737.35,350.74,737.1,350.33Zm-6.82,4.61-1.5-.36a18.83,18.83,0,0,1,8.09,1.8A49.15,49.15,0,0,1,730.28,354.94Zm10.63.62a1.68,1.68,0,0,1-.9.66c-.1-.29-.27-.64-.4-1C740.05,355.37,740.48,355.44,740.91,355.56Zm-2,1.42a5.66,5.66,0,0,0,.89-.16,8.33,8.33,0,0,1,.19.85A10.5,10.5,0,0,0,738.89,357Zm-2.49,1.9c-3,0-6-.19-8.27-2l4.51.86a34.65,34.65,0,0,0,7.77,1.16h.07c.08.09.17.18.24.27A24.64,24.64,0,0,0,736.4,358.88Z"/>
    <path d="M757.93,393.24c-1.85-5.68-3.88-11.12-5-14.11C753,385.06,755.45,389.21,757.93,393.24Z" style="fill-rule: evenodd;fill: url(#ai)"/>
    <path d="M760,303.72a53.62,53.62,0,0,0-24.85-8.22c-6.56-.35-10,3.81-15.45,5.64l-.84,2c.22,7.12,4.1,9.76,6.78,15.4,2.42,5.09,4.06,12.44,5.93,18.52,4.9,15.9,8.45,21.56,3.2,35-1.91,4.92-3.72,9.87-5.55,14.55-.85,2.17-3.8,4.89-3.62,7.71.44,6.87,1.7,2.86,5.14,6.37,5.6,5.73,10.17,6,16.79,7.67,4.11,1.06,9.57,3.52,14.42,2.44.08-4-1.82-11-4-17.61-2.48-4-4.95-8.18-5-14.11,1.16,3,3.19,8.43,5,14.11,2.82,4.58,5.66,9,5.13,15.73,9.6-5.94-3.45-29.87-6.34-37.59-5.6-14.9,5.75-20.51,11-33.21C774.09,323,774.5,312.69,760,303.72Z" style="fill-rule: evenodd;fill: url(#aj)"/>
    <path d="M760,303.48a53.29,53.29,0,0,0-24.95-8.24c-4.29-.24-7.22,1.41-10.31,3.15a30.72,30.72,0,0,1-5.19,2.49l-.07,0-.88,2.07c.13,5,2,7.9,4,10.92a36.66,36.66,0,0,1,2.8,4.76,85.11,85.11,0,0,1,4.3,12.85l1.62,5.62q1,3.24,2.08,6.5c3.69,11.3,5.55,17,1.12,28.33L729,386.51l-1.42,2.42c-1.1,1.63-2.34,3.48-2.22,5.42.27,4.26.88,4.58,2.24,4.89a5.31,5.31,0,0,1,3,1.7c4.73,4.84,8.74,5.79,13.81,7l3.07.75,3,.89c3.61,1.13,7.7,2.39,11.47,1.55l.14,0s0-.35,0-.43c0-3.69-1.55-9.74-3.45-15.77,2.26,3.71,4.25,7.38,4.25,12.43,0,.52,0,1.05-.07,1.6,0,.17,0,.35,0,.52l.36-.22c8.14-5,.48-22.4-4.1-32.8l-2.16-5.11c-3.76-10,.23-15.75,4.86-22.43A57,57,0,0,0,768,338.32c4.09-9.8,5.11-16.38,3.41-22C769.88,311.48,766.17,307.29,760,303.48ZM767.58,338a55.6,55.6,0,0,1-6.14,10.46c-3.39,4.9-6.45,9.31-6.45,15.25a21.81,21.81,0,0,0,1.55,7.74c.73,1.71,1.45,3.43,2.18,5.15,3.09,7,7.61,17.26,7.61,24.55,0,3.15-.88,5.71-3,7.26,0-.34,0-.69,0-1,0-5.81-2.57-10-5.05-14a3.37,3.37,0,0,0-.19-.32c-1.8-5.52-3.78-10.84-5-14.07l-.38.06c.1,6,2.59,10.21,5.07,14.24,2.11,6.51,4,13.28,4,17.23v0c-3.65.76-7.64-.46-11.16-1.55l-3-.9-3.08-.75c-5-1.18-9-2.12-13.6-6.86a5.75,5.75,0,0,0-3.21-1.83c-1.12-.26-1.59-.36-1.84-4.32,0-.08,0-.16,0-.23,0-1.67,1.14-3.36,2.15-4.86l1.46-2.5q2.77-7.26,5.55-14.55a32.79,32.79,0,0,0,2.64-12.17c0-5.12-1.56-9.87-3.75-16.59q-1-3.25-2.08-6.49l-1.62-5.6a86,86,0,0,0-4.33-13,38.89,38.89,0,0,0-2.85-4.84c-2-3.06-3.76-5.71-3.9-10.42l.79-1.8a31.68,31.68,0,0,0,5.17-2.48c3-1.72,5.94-3.35,10.15-3.12A52.94,52.94,0,0,1,759.89,304c6,3.73,9.65,7.82,11.09,12.53a18,18,0,0,1,.76,5.28C771.74,326.11,770.39,331.29,767.58,338Zm-10.42,53.51a25.19,25.19,0,0,1-3.88-10.81C754.37,383.57,755.77,387.39,757.16,391.53Z" style="fill-rule: evenodd"/>
    <path d="M745.77,407v.81a10.12,10.12,0,0,0,3.69.57c.32-8-1.63-14.44-1.8-22.12C745.79,390.69,748.33,401.53,745.77,407Z" style="fill: #b67b71"/>
    <path d="M728.72,398.09l.63.93c4.13,6.23,6.33-8.66,5.56-13.35C732.25,389.09,731.52,394.69,728.72,398.09Z" style="fill: #b67b71"/>
    <path d="M740.08,361.57c-.17-.29-.38-.61-.6-.93h0Z" style="fill: #b67b71"/>
    <path d="M739.48,360.64c.22.32.43.64.6.93l-.62-.93h0c-.23-.35-.46-.71-.66-1.05a15.49,15.49,0,0,0-1.15,5.46c1.14-.89,2.52-.32,3.58-.72.13,3.35.1,6.74.07,10.1,1.28-2.59,1.56-6.38,1.39-9.81.71.88,1.42.63,2.41,2.42.12-.24,1-.59,1.18-.4a16,16,0,0,0,.2-2.12c.32,0,2.2.54,2.32.46.39,1.61,1.62,3.8,1.86,5a42,42,0,0,1,.69-7.74C747.58,361.24,743.14,359.89,739.48,360.64Z" style="fill: #b67b71"/>
    <path d="M767.24,317.36c.31,4,0,12.81-1.35,15.94-2,4.62-6.28,4-4.85,11.58,4-5.47,12.7-20.1,6.2-28.33Z" style="fill: #b67b71"/>
    <path d="M759.67,307.93c-3.88,5.93.62,14-2.44,20.31a24.33,24.33,0,0,0,1.69,2.71c-.14-4.12,1.75-7,2-10.67.32-4.3-.76-7.93-.64-12.23Z" style="fill: #b67b71"/>
    <path d="M730.47,326.93a79.85,79.85,0,0,0,2.69,9.65C732.5,333.64,731.54,330.25,730.47,326.93Z" style="fill: #b67b71"/>
    <path d="M735.71,303.61c-3.62.46-6.57,1.84-10.15,1.87l1.27.25c0,.45-1.56.08-.58,2.83-1.52-1.37-3.37-2-4.92-3.2.32.65,1,1.21,1.35,1.82-.78-.45-2.46-.82-3.36-1.24,1.5,5.34,6.51,8.65,8.61,13.89.88,2.18,1.74,4.62,2.54,7.1-1.35-6.35-1.9-13.17.27-17.14,2.83-1.21,4.81,1.87,7.3,2.28.46,1.48,1.26,2.35,1.53,4.08,0,0,1.81.48,1.69.33-.71-7.79,4.49-7.47,4.43-13.48C742.58,304.44,738.94,303.2,735.71,303.61Z" style="fill: #b67b71"/>
    <path d="M755.24,310.35c-1.53,5.76-2.74,13.79-3.68,19.83C752.75,324.91,755.12,315.94,755.24,310.35Z" style="fill: #b67b71"/>
    <path d="M764.09,315.18c0,.27,0,.54,0,.81-.44-1.91.22-3.15-1.78-3.44a33.86,33.86,0,0,0-.11,6.38,28.42,28.42,0,0,1,2.71,5.9,33.54,33.54,0,0,0,.43-3.55c.36,3.68,1.18,4,2.45,5.75.3-.75.52-1.93.76-2.7.14,5.41-3.49,9.16-3.73,15C768.21,333.86,776.16,317.31,764.09,315.18Z" style="fill: #b04d5b"/>
    <path d="M762.19,319v-.07s0-.07-.05-.07C762.17,319.55,762.18,319.59,762.19,319Z" style="fill: #b04d5b"/>
    <path d="M754,362.62a11.47,11.47,0,0,0-.45-2.09,2.52,2.52,0,0,0,1.79-1.51c0-.11.07-.21.1-.32l-.28-.07c-.85-.22-1.72-.37-2.58-.56-.37-.84-.79-1.7-1.27-2.62a10.58,10.58,0,0,1-.38-2.2v-.15l-.1-.09a45.85,45.85,0,0,1-4.15-5.33c-4.67-6.46-11.07-15.34-14.6-14.27-1.38.42-2.18,2.33-2.38,5.7l.39.21c1-2.35,2.8-3,5.33-1.8,5.24,2.39,11.9,11.18,15.55,18.15.14.53.29,1.06.44,1.53l.17.65c-3.13-.68-6.27-1.3-9.35-1.84l-5.3-1v.52l5.3,1c3.13.55,6.33,1.17,9.5,1.87.07.26.15.59.15.59l.41,0-.13-.47.18,0c.23.55.49,1.11.66,1.61a8,8,0,0,1-2,.19c-4.55-2.51-10.91-3.74-13.87-2.78l.08.52L741,359a48,48,0,0,0,9.93,1.88,13.85,13.85,0,0,1,2.65,1.87,44.75,44.75,0,0,1-9.51-1.38l-7.69-1.42c.18.19.36.38.53.58,3.11,3.41,7.64,3.46,12,3.48a27.71,27.71,0,0,1,6.3.5l.47.13-.3-.53A8.68,8.68,0,0,0,754,362.62ZM735.51,337c-2.4-1.1-4.16-.5-5.31,1.39.26-2.6.93-4.15,2-4.48,2.56-.77,7.08,4.54,11,9.75C740.57,340.62,737.83,338.08,735.51,337Zm13.77,14.87a12.91,12.91,0,0,0,1.27,1.46,8.13,8.13,0,0,0,.15.95C750.25,353.5,749.79,352.71,749.28,351.89Zm2.73,6.05c-.06-.25-.09-.35-.13-.51.09.19.13.35.22.53Zm-11,.53-2.33-.56a23.67,23.67,0,0,1,11.26,2.41A58,58,0,0,1,741,358.47Zm10.8,2.4a7.76,7.76,0,0,0,1.4-.22,9.25,9.25,0,0,1,.3,1.37A13.64,13.64,0,0,0,751.77,360.87Zm1.64-.83c-.15-.43-.39-.93-.58-1.39.63.14,1.26.25,1.88.41A2.21,2.21,0,0,1,753.41,360Zm-4.59,3.43c-3.94,0-7.94-.19-10.88-2.7l6.07,1.12a43.69,43.69,0,0,0,9.92,1.41H754a5.75,5.75,0,0,1,.48.53A31.25,31.25,0,0,0,748.82,363.47Z"/>
    <path d="M778.75,404.68c-2.23-6.84-4.7-13.36-6.1-17C772.77,394.87,775.75,399.84,778.75,404.68Z" style="fill-rule: evenodd;fill: url(#ak)"/>
    <path d="M781.17,296.87a64.42,64.42,0,0,0-29.91-9.57c-7.89-.37-12.07,4.67-18.58,6.91l-1,2.41c.26,8.57,4.93,11.73,8.16,18.49,2.91,6.11,4.88,14.94,7.13,22.24,5.9,19.09,10.17,25.86,3.86,42.13-2.31,5.94-4.48,11.91-6.69,17.56-1,2.61-4.57,5.91-4.36,9.3.53,8.27,2.06,3.44,6.19,7.63,6.75,6.84,12.24,7.08,20.2,9,5,1.23,11.51,4.11,17.37,2.74.09-4.78-2.18-13.15-4.77-21.08-3-4.84-6-9.81-6.1-17,1.4,3.6,3.87,10.12,6.1,17,3.38,5.44,6.78,10.72,6.14,18.8,11.55-7.31-4.14-35.88-7.63-45.14-6.73-17.85,6.92-24.76,13.29-40.14C798.16,319.83,798.65,307.43,781.17,296.87Z" style="fill-rule: evenodd;fill: url(#al)"/>
    <path d="M781.24,296.64a65.06,65.06,0,0,0-30-9.6c-5.16-.24-8.68,1.76-12.4,3.88a36.44,36.44,0,0,1-6.24,3l-.07,0c-.35.83-.7,1.66-1.06,2.49.16,6,2.42,9.43,4.8,13a46.78,46.78,0,0,1,3.38,5.71c2,4.29,3.63,10,5.17,15.48l1.95,6.71c.83,2.61,1.67,5.21,2.5,7.81,4.45,13.57,6.68,20.38,1.35,34.12q-3.35,8.78-6.68,17.56l-1.72,2.93c-1.31,2-2.81,4.19-2.66,6.5.33,5.08,1.05,5.45,2.66,5.81a6.34,6.34,0,0,1,3.62,2c5.7,5.78,10.52,6.89,16.62,8.26l3.68.86,3.65,1c4.33,1.3,9.25,2.76,13.79,1.69l.14,0s0-.39,0-.49c0-4.48-1.93-11.89-4.26-19.23,2.79,4.54,5.3,9,5.3,15.22,0,.62,0,1.27-.08,1.93,0,.18,0,.35,0,.53l.35-.23c9.78-6.19.57-26.91-4.94-39.33l-2.61-6.13c-4.53-12,.29-19,5.86-27.11a69.6,69.6,0,0,0,7.43-12.79c4.92-11.86,6.15-19.79,4.11-26.46C793.07,306.08,788.62,301.12,781.24,296.64Zm9.13,41.42a68.75,68.75,0,0,1-7.39,12.7c-4.08,5.95-7.75,11.28-7.75,18.42a26,26,0,0,0,1.85,9.25l2.63,6.17c3.72,8.4,9.17,20.66,9.17,29.45,0,3.84-1.09,7-3.76,8.89,0-.45.06-.91.06-1.34,0-7-3.08-11.92-6.06-16.73l-.24-.38c-2.16-6.62-4.54-13-6-16.86l-.39.06c.12,7.2,3.11,12.23,6.09,17,2.55,7.82,4.77,15.95,4.77,20.71v.08c-4.42,1-9.23-.42-13.48-1.7l-3.67-1-3.69-.86c-6-1.36-10.8-2.45-16.41-8.14a6.87,6.87,0,0,0-3.83-2.16c-1.38-.3-2-.43-2.26-5.24a2.72,2.72,0,0,1,0-.28c0-2,1.37-4.06,2.59-5.88.59-1,1.17-2,1.76-3q3.35-8.78,6.68-17.56c2.23-5.76,3.16-10.31,3.16-14.64,0-6.15-1.87-11.85-4.51-19.91-.83-2.6-1.66-5.19-2.5-7.79-.64-2.24-1.29-4.47-1.93-6.7-1.55-5.53-3.16-11.25-5.22-15.59a47.85,47.85,0,0,0-3.42-5.79c-2.44-3.68-4.53-6.87-4.71-12.55l1-2.22a37.77,37.77,0,0,0,6.22-3c3.68-2.1,7.16-4.08,12.23-3.84,9.84.45,20.43,3.85,29.82,9.54,7.26,4.4,11.64,9.26,13.36,14.92a21.35,21.35,0,0,1,.92,6.36C795.38,323.64,793.76,329.9,790.37,338.06ZM778,402.93c-2.37-3.91-4.46-8.16-4.9-13.62C774.4,392.83,776.19,397.69,778,402.93Z" style="fill-rule: evenodd"/>
    <path d="M764.09,421.38v1a12.05,12.05,0,0,0,4.44.64c.39-9.61-2-17.35-2.16-26.59C764.12,401.72,767.17,414.74,764.09,421.38Z" style="fill: #b67b71"/>
    <path d="M743.57,410.8c.26.37.51.74.76,1.12,5,7.46,7.62-10.48,6.69-16.13C747.82,400,746.94,406.68,743.57,410.8Z" style="fill: #b67b71"/>
    <path d="M757.25,366.75c-.2-.35-.46-.73-.72-1.12h0Z" style="fill: #b67b71"/>
    <path d="M756.53,365.63c.26.39.52.77.72,1.12l-.75-1.11h0c-.28-.41-.56-.84-.8-1.25a18.59,18.59,0,0,0-1.38,6.59c1.37-1.09,3-.42,4.31-.9.15,4,.12,8.11.07,12.14,1.55-3.12,1.88-7.7,1.67-11.83.86,1.07,1.72.76,2.91,2.9.14-.3,1.16-.73,1.42-.5a19.16,19.16,0,0,0,.24-2.56c.39,0,2.65.62,2.79.53.48,1.93,2,4.56,2.24,6a51.43,51.43,0,0,1,.83-9.32C766.27,366.26,760.93,364.7,756.53,365.63Z" style="fill: #b67b71"/>
    <path d="M789.93,313.17c.37,4.79,0,15.42-1.63,19.2-2.4,5.61-7.56,4.89-5.84,14,4.77-6.65,15.28-24.4,7.47-34.19Z" style="fill: #b67b71"/>
    <path d="M780.81,302c-4.67,7.19.76,16.8-2.92,24.48a26.44,26.44,0,0,0,2,3.24c-.18-5,2.11-8.45,2.43-12.88.38-5.18-.92-9.53-.78-14.71Z" style="fill: #b67b71"/>
    <path d="M745.67,325.15a97.31,97.31,0,0,0,3.24,11.6C748.12,333.21,747,329.14,745.67,325.15Z" style="fill: #b67b71"/>
    <path d="M752,297.05c-4.36.58-7.91,2.28-12.21,2.33l1.52.29c0,.55-1.88.12-.69,3.42-1.83-1.64-4.06-2.35-5.92-3.82a24.25,24.25,0,0,0,1.62,2.19c-.94-.54-3-1-4-1.47,1.81,6.41,7.84,10.36,10.37,16.64,1,2.61,2.08,5.55,3,8.52-1.61-7.62-2.27-15.83.34-20.61,3.4-1.48,5.78,2.2,8.77,2.67.55,1.77,1.52,2.82,1.84,4.89a10.39,10.39,0,0,0,2,.38c-.85-9.37,5.4-9,5.34-16.27C760.26,298,755.87,296.53,752,297.05Z" style="fill: #b67b71"/>
    <path d="M775.49,304.92c-1.85,7-3.3,16.64-4.43,23.92C772.49,322.48,775.34,311.65,775.49,304.92Z" style="fill: #b67b71"/>
    <path d="M783.85,315.22a.31.31,0,0,0,0-.09s0-.06,0-.08C783.82,315.89,783.84,316,783.85,315.22Z" style="fill: #b04d5b"/>
    <path d="M786.13,310.6v1c-.53-2.29.26-3.79-2.15-4.11a42.53,42.53,0,0,0-.14,7.67,34.08,34.08,0,0,1,3.27,7.06,37.81,37.81,0,0,0,.52-4.27c.43,4.42,1.42,4.8,3,6.88.35-.91.62-2.34.91-3.27.17,6.52-4.2,11.09-4.49,18.11C791.1,333,800.66,313,786.13,310.6Z" style="fill: #b04d5b"/>
    <path d="M773.93,367.68a13.31,13.31,0,0,0-.52-2.39,3,3,0,0,0,2.17-1.83c0-.11.07-.22.1-.32l-.28-.07c-1-.26-2.09-.42-3.13-.64-.45-1-.95-2.07-1.54-3.18a12.4,12.4,0,0,1-.46-2.65v-.15l-.1-.09a54.93,54.93,0,0,1-5-6.38c-5.61-7.69-13.29-18.29-17.52-17-1.64.51-2.6,2.81-2.84,6.84l.39.21c1.22-2.86,3.4-3.61,6.47-2.24,6.31,2.83,14.33,13.36,18.74,21.72.17.63.35,1.26.52,1.82l.23.85c-3.79-.78-7.59-1.49-11.32-2.11l-6.36-1.1v.53l6.36,1.1c3.78.63,7.64,1.34,11.46,2.14.1.35.21.76.21.76l.4,0-.17-.64.29.06c.3.69.62,1.4.84,2a9.46,9.46,0,0,1-2.44.28c-5.46-3-13.19-4.38-16.76-3.19l.08.52,4.55,1.06c3.88,1,8.51,2.1,12.06,2.14a16.38,16.38,0,0,1,3.25,2.26s0,.06,0,.09A52.6,52.6,0,0,1,762,366.5,83.34,83.34,0,0,0,753.5,365l-.58-.06.48.52c3.72,4.07,9.16,4.07,14.42,4a32.54,32.54,0,0,1,7.58.52l.48.12-.31-.52A9.5,9.5,0,0,0,773.93,367.68Zm-22.2-30.38c-2.86-1.28-5-.7-6.4,1.56.32-3.09,1.13-4.94,2.45-5.35,3.23-1,9,5.95,13.86,12.43C758.25,342,754.7,338.63,751.73,337.3Zm16.06,17a20.57,20.57,0,0,0,2.09,2.44,12.1,12.1,0,0,0,.22,1.39C769.39,356.83,768.63,355.57,767.79,354.27Zm3.79,8c-.15-.54-.29-1.08-.29-1.08v0c.2.41.32.75.5,1.15Zm-13.27.78-3.1-.72c3.56-.51,9.45.57,14.13,2.84A66.67,66.67,0,0,1,758.31,363.07Zm14.2-.06c.81.18,1.63.3,2.44.5a2.81,2.81,0,0,1-1.69,1.3C773.07,364.25,772.76,363.61,772.51,363Zm-1.17,2.7a8.37,8.37,0,0,0,1.69-.29,12.18,12.18,0,0,1,.39,1.79A17.59,17.59,0,0,0,771.34,365.71ZM767.76,369c-4.83,0-9.76-.12-13.33-3.31,2.47.31,5,.82,7.54,1.35,4,.84,8.14,1.7,11.93,1.58h.19v-.18a7.71,7.71,0,0,1,.78,1A35,35,0,0,0,767.76,369Z"/>
    <path d="M486.71,271.79l-4.91-.85q-6.71,7.43-13.41,14.91l-1.33-1.9-1.69,1.9,1.7,2.44q-5.47,11.43-11,22.9,6.81-9.82,13.6-19.58,27.94,37.11,55.9,75.18l2.27-2.45q-28.51-38.14-57-75.44Q478.78,280.31,486.71,271.79Z" style="fill: url(#am)"/>
    <path d="M487.21,271.61l-.5-.09-4.91-.84s-13.13,14.47-13.41,14.8l-1.32-1.9-2,2.22,1.73,2.5c-.15.3-10.87,22.72-10.87,22.73l.34.35s13.19-19,13.46-19.38c.32.15,55.88,74.92,55.88,75.16.85-.92,1.7-1.85,2.56-2.77,0-.25-56.71-75.31-57-75.45C471.46,288.58,487.21,271.59,487.21,271.61Zm40.37,92.69-2,2.13c-.29-.64-55.92-75.48-55.92-75.2,0,0-9.58,13.77-12.11,17.42l9.74-20.36-1.66-2.39,1.41-1.57,1.32,1.9.14-.17q6.71-7.49,13.41-14.9s3.47.64,4.27.8c-.68.71-15.67,16.88-15.67,16.91C470.54,288.57,527.26,363.61,527.58,364.3Z"/>
    <path d="M505.87,293.9c0,5.06,12.65,21.91,15.3,22.43S541,294.88,534,284.57,505.87,288.81,505.87,293.9Z" style="fill: url(#an)"/>
    <path d="M520.68,281.76c-7.15,2.41-15,8.77-15,12.1,0,5.43,12.9,22.22,15.5,22.73,1.91.37,10-9.21,13.32-18.73,1.94-5.61,1.83-10.26-.33-13.44C531.61,280.65,526.82,279.7,520.68,281.76Zm13.43,15.83c-3.35,9.65-11.36,18.78-12.94,18.48-2.44-.49-15.09-17.08-15.09-22.13,0-2.83,7.3-9.15,14.76-11.66,6-2,10.6-1.13,13,2.45C536.43,288.52,535.41,293.81,534.11,297.59Z"/>
    <path d="M467.91,343.07c-2.64-.43-5.29-.84-7.93-1.25,0,0-2.27.61-2.27,2.54-.28,2.24,6.1,12.12,9.26,13.27,1.63.62,2.45-3.7,2.45-3.7q.33-3.57.64-7.14,21.4-21.62,42.8-42.66,5.28-5.76,10.57-11.49-5.94,4.75-11.89,9.55Q489.73,322.37,467.91,343.07Zm.1,10.52c0-2.3-6-9.91-7.38-10.12,0-.94,7.25.67,7.53,1.09s1,1.85,1,1.85S468.48,353.07,468,353.59Z" style="fill: url(#ao)"/>
    <path d="M511.41,302q-21.81,20.18-43.63,40.89c-2.6-.44-5.2-.88-7.8-1.3-.16,0-2.47.68-2.47,2.77-.32,2.45,6.18,12.37,9.42,13.57,1.81.67,2.66-3.68,2.69-3.87.22-2.39.43-4.78.65-7.17q21.36-21.54,42.73-42.5,5.28-5.76,10.58-11.5l-.27-.45Q517.36,297.17,511.41,302Zm1.3,2Q491.32,325,469.93,346.58c-.24,2.43-.47,4.86-.71,7.29-.21,1.1-1,3.95-2.22,3.51-3.16-1.16-9.33-11-9.08-12.95,0-1.76,2.11-2.35,2.13-2.36l7.86,1.26c0-.18,43.75-41.06,43.76-40.91L521,295Z"/>
    <path d="M468.31,344.4c-.37-.54-6.45-1.81-7.56-1.39a.44.44,0,0,0-.32.43v.26l.21,0c1.35.21,7.16,7.75,7.16,9.83v.64l.35-.39s0-.15.06-.18h0c.49-.89,1-6.05,1.12-7.14C469.3,346.3,468.31,344.4,468.31,344.4Zm-.28,8.43c-.81-2.79-5.17-8.24-6.92-9.36,1.27-.2,6.35.81,6.93,1.29l.92,1.77C468.67,349,468.3,351.73,468,352.83Z"/>
    <path d="M589.39,475.14c1.54-9.47.77-18,1.29-27.58-2.33-.66-7.88-3.05-10.2-3.39q.25,10.2.52,20.41c0,6.31,0,11.43-1.44,16.86s-3.69,8.81.92,14.56c3,3.72,8.12,6,11.28,3.77-.22-3.2-1.81-7.07-2.46-10.31C588.15,483.64,588.51,480.59,589.39,475.14Z" style="fill-rule: evenodd;fill: url(#ap)"/>
    <path d="M590.74,493.38c-.35-1.32-.69-2.65-1-4-1.15-5.8-.76-8.81.09-14.08a110.19,110.19,0,0,0,1.07-17.75l.24-10.38-.4-.16-3.8-1.32a42.33,42.33,0,0,0-6.44-2.07l-.41-.06s.54,20.9.54,20.92c0,6,0,11.26-1.42,16.69-.25.87-.5,1.73-.74,2.59a19.26,19.26,0,0,0-1.13,5.5c0,2.12.73,4.34,2.92,7.08,3,3.76,8.37,6.32,11.78,3.89l.18-.13,0-.31A32.46,32.46,0,0,0,590.74,493.38Zm-10,2.27c-2-2.43-2.61-4.34-2.61-6.22a17.9,17.9,0,0,1,1.07-5.13l.75-2.62c1.46-5.59,1.46-10.88,1.46-17,0,0-.48-18.89-.51-19.9a52.35,52.35,0,0,1,5.9,2l3.45,1.21c0,.91-.21,9.44-.21,9.44A111.14,111.14,0,0,1,589,475a47.26,47.26,0,0,0-.83,7.8,34.49,34.49,0,0,0,.74,6.75l1.08,4.11a33.49,33.49,0,0,1,1.3,5.77C588.28,501.28,583.46,499.06,580.74,495.65Z" style="fill-rule: evenodd"/>
    <path d="M626.45,486.29a153.73,153.73,0,0,1,1.44-17A81.4,81.4,0,0,0,628,453c-.61-7.91-1.36-9.11-6.73-13.36l-.52-.11c-1.13,3.36-6.67,6.13-9.61,7.27,1.33,6.29,4,12,5.85,17.83a34.26,34.26,0,0,1,1.7,14.72c-.56,5-3.63,11.23-1.42,16.67,1.38,3.4,9,10.16,11.6,11.93,6.52,4.37,6.43-1.36,2.76-7.32S626.36,493.53,626.45,486.29Z" style="fill-rule: evenodd;fill: url(#aq)"/>
    <path d="M630.38,497.84c-2.47-3.82-3.59-5.57-3.52-11.45a152.39,152.39,0,0,1,1.44-16.93,80.53,80.53,0,0,0,.13-16.44c-.64-8.27-1.55-9.56-7-13.84-.11.3-.23.59-.34.88,5.19,4.11,5.89,5.09,6.49,12.89a78.5,78.5,0,0,1-.13,16.16A154.88,154.88,0,0,0,626,486.19c-.08,6.31,1.2,8.3,3.75,12.25l1.56,2.45c1.95,3.18,2.86,6.34,2.17,7.52-.55.94-2.19.6-4.49-.94-2.72-1.84-10.09-8.47-11.39-11.66a10.65,10.65,0,0,1-.73-4.06,31.87,31.87,0,0,1,1.2-7.32c.34-1.65.67-3.3,1-4.94a33.32,33.32,0,0,0,.21-3.7,36.58,36.58,0,0,0-1.93-11.3l-2.22-6.31a83.39,83.39,0,0,1-3.49-11c1.88-.75,8.17-3.51,9.47-7.36l-.76-.56c-1,2.9-5.68,5.6-9.4,7l-.32.12.1.45a81.88,81.88,0,0,0,3.67,11.67q1.09,3.12,2.2,6.24a33.19,33.19,0,0,1,1.66,14.43c-.33,1.59-.65,3.19-1,4.79-.94,3.85-2,8.22-.39,12.22,1.44,3.54,9.11,10.39,11.83,12.22,3.49,2.34,4.89,1.7,5.45.75.92-1.58,0-5.13-2.25-8.83Z" style="fill-rule: evenodd"/>
    <path d="M573.77,366.69c-5.17-1.09-5.68,12.66-5.68,12.66s-3.62,32.9,0,49.5,23.24,18.79,23.24,18.8,29.18-1.27,32-8.24c4.39-4.65-22.21-45.75-22.21-45.74S578.93,367.76,573.77,366.69Z" style="fill-rule: evenodd;fill: url(#ar)"/>
    <path d="M573.77,366.16c-5.5-1.16-6.07,12.5-6.1,13.08,0,.28-3.58,33.16,0,49.68,3.67,16.81,23.47,19.23,23.67,19.26,1.25-.06,29.47-1.36,32.37-8.46,4.46-4.69-19.54-42.11-22.29-46.35C600.48,392.22,579,367.25,573.77,366.16ZM623.06,439c-2.8,6.79-31.52,8.11-31.81,8.14s-19.29-2.37-22.77-18.33c-3.55-16.3,0-49,0-49.28s.56-13.3,5.28-12.3c5,1,26.91,26.56,27.13,26.83C611.43,410.3,626.08,435.79,623.06,439Z" style="fill-rule: evenodd"/>
    <path d="M638.35,296.65c.46-4-.64-8.39-.56-12.56a15.38,15.38,0,0,1-4.64-.72,13.63,13.63,0,0,0,2.9,2.84c-.07,2.11.4,4.27.31,6.37-.14,3.14-1.05,2.33-2.81,2.86,0,1.32.5,4.19.15,5.1-.45,1.19-2.92-.36-2.44,1.79.34,1.5,2.09,1.44,2.13,3.53a3.23,3.23,0,0,1-2.12,2.8l-.29.12a1.06,1.06,0,0,1,0,.47c2,1.19,3,2.1,4.47,1,.68-2.3,3.06-1.51,2.87-4.71-.77.79-2,.26-3,0-.18-1.56-.07-4.68.55-5.83C636.73,298.23,638.1,298.92,638.35,296.65Z" style="fill-rule: evenodd"/>
    <path d="M615.54,301.27c0-2.08,1.8-1.25,2.13-2.6.48-1.95-2-1.48-2.44-2.86-.35-1.06.21-3.7.15-5-1.76-1.3-2.67-.89-2.81-4.08-.09-2.14.38-4.09.31-6.24a7.36,7.36,0,0,0,2.9-1.57,17.19,17.19,0,0,1-4.63-1.3c.08,4.2-1,8.06-.57,12.31.26,2.38,1.62,2.29,2.41,4.12a15.59,15.59,0,0,1,.55,6.07c-1-.16-2.2-.16-3-1.28-.2,3.12,2.18,3.36,2.87,6,1.48,1.73,2.45,1.24,4.46.92a1.1,1.1,0,0,1,0-.45l-.28-.25C616.72,304.16,615.52,302.68,615.54,301.27Z" style="fill-rule: evenodd"/>
    <path d="M569.12,367.69l-.52.55c3.33,9.29,7.15,18.4,12.92,25.7,4.06,5.13,22.3,15.79,20.58,2C592.75,394.28,577.34,362.94,569.12,367.69Z" style="fill-rule: evenodd;fill: url(#as)"/>
    <path d="M602.44,395.49l-.36-.07c-4.05-.72-9.52-7.53-14.81-14.1-6.68-8.31-13.6-16.88-18.37-14.13l-.59.61-.21.23.13.36c3.06,8.53,7,18.27,13,25.9,3,3.76,14.06,11,19,8.44,1.91-1,2.66-3.27,2.22-6.77Zm-2.57,6.24c-4.36,2.26-14.94-4.16-18.09-8.14-5.81-7.36-9.53-16.42-12.67-25.15.14-.16.3-.32.3-.32,4.2-2.41,10.88,5.88,17.35,13.91,5.49,6.82,10.67,13.23,15,14.31,0,.42.08.84.08,1.21C601.8,399.66,601.15,401.06,599.87,401.73Z" style="fill-rule: evenodd"/>
    <path d="M630.61,318.42c-.34-3.39.28-5.79,1.85-7.66,1.37-1.64,1.44-5.32,0-7.59-1.66-2.63-5.52-2.61-7.79-3.37S619,297.09,617,298l.14.21c-2,1.45-2,4.62-.56,7.31,1.61,2.94,3.74,3.32,3.29,7.21-.15,1.31-1.71,2.38-2.08,3.53s-3,1.69-2.78,3c.38,2.33,8.84,3.28,10.46,4.13-4.44.57-8.83-5-12.33-.72a16.09,16.09,0,0,0-2.64,8.95,11.58,11.58,0,0,0,1.15,4.77c.73,1.24,2.05,1.76,2.68,3.11.09-1.12-.31-2.25-.3-3.45,0-3,.85-7.43,3.54-7.37s5.6,1.88,8.35,2.18,6.44.47,6.66,5.08a25.71,25.71,0,0,1-.14,4.67c-.23,1.5-1.06,3-.83,4.68,4,.12,4.92-7.3,4.93-11.56a16.65,16.65,0,0,0-2.14-7.83C632.69,323.39,631,321.9,630.61,318.42Z" style="fill-rule: evenodd;fill: url(#at)"/>
    <path d="M633.63,324.07c-1.32-1.72-2.36-3.08-2.61-5.63-.31-3.2.22-5.45,1.75-7.26s1.54-5.88,0-8.31c-1.34-2.14-3.84-2.65-6-3.11l-2-.48L623,298.6c-2-.82-4.51-1.86-6.15-1.16l.12.34-.05-.09a4.46,4.46,0,0,0-1.7,3.23,5.53,5.53,0,0,0,0,.71,8.63,8.63,0,0,0,1.11,4.1l1.71,2.38a4.81,4.81,0,0,1,1.55,3.49,8,8,0,0,1-.06.93,4,4,0,0,1-1,1.77l-1,1.64c-.1.29-.67.67-1.14,1-.83.55-1.69,1.11-1.69,2.05a1.33,1.33,0,0,0,0,.28,2.25,2.25,0,0,0,.89,1.33,4.29,4.29,0,0,0-2.67,1.64c-1.48,1.81-2.76,6-2.76,8.84,0,.16,0,.32,0,.47a12.71,12.71,0,0,0,1.26,5.1l1.38,1.56a4.82,4.82,0,0,1,1.26,1.49l.91,1.93-.15-2c0-.66-.1-1.32-.14-2l-.15-1.51c0-3.24.88-7,3.18-6.94a14.78,14.78,0,0,1,4.4,1.09,17.47,17.47,0,0,0,3.92,1.08l.38,0c1.85.19,3.94.41,5,1.85a4.49,4.49,0,0,1,.8,2.6,25.08,25.08,0,0,1-.13,4.54c-.13.51-.25,1-.38,1.53a7.73,7.73,0,0,0-.45,3.34c0,.17,0,.34.07.51l.39,0c5,.15,5.28-10,5.29-12a17.19,17.19,0,0,0-2.28-8.25Zm2.52,9.53c0,1.8-.27,10.42-4.11,11a8.76,8.76,0,0,1,.42-2.17c.13-.56.27-1.12.41-1.68a21,21,0,0,0,.18-3c0-.57,0-1.18,0-1.83a6,6,0,0,0-1.09-3.4c-1.35-1.79-3.64-2-5.65-2.23l-.37,0a17.55,17.55,0,0,1-3.76-1,15.13,15.13,0,0,0-4.61-1.14c-2.81-.07-3.85,4.17-3.89,7.81.06.58.11,1.16.17,1.74l0,.38c-.23-.24-.47-.47-.71-.69L612,336.08a10.55,10.55,0,0,1-1.06-4.44c0-.13,0-.27,0-.41,0-2.61,1.2-6.53,2.55-8.18,2-2.4,4.2-1.47,6.78-.39,1.73.72,3.51,1.47,5.35,1.23l1.54-.2-1.55-.82a16.64,16.64,0,0,0-3.2-.91c-2.19-.52-6.76-1.59-7-2.76v0c0-.4.83-.94,1.33-1.27.68-.45,1.26-.83,1.44-1.41l.88-1.35a4.63,4.63,0,0,0,1.22-2.28,10.12,10.12,0,0,0,.06-1.06,6.13,6.13,0,0,0-1.87-4.41l-1.56-2.16a7.24,7.24,0,0,1-.93-3.41,5.44,5.44,0,0,1,0-.57,3.56,3.56,0,0,1,1.38-2.59l-.09-.19c1.41-.53,3.69.39,5.53,1.16l1.78.7,2.09.5c2,.42,4.33.9,5.44,2.64a7,7,0,0,1,.93,3.61,5.23,5.23,0,0,1-.94,3.27,9.31,9.31,0,0,0-2,6.28c0,.57,0,1.16.09,1.78a11.36,11.36,0,0,0,2.89,6.36l1,1.42a16,16,0,0,1,2,7.41Z" style="fill-rule: evenodd"/>
    <path d="M633.31,343.36c-.65-.33-1.37.41-1.6,1.66s.1,2.53.74,2.86,1.36-.41,1.6-1.66S634,343.69,633.31,343.36Z" style="fill-rule: evenodd;fill: url(#au)"/>
    <path d="M633.4,342.87l-1,0a2.77,2.77,0,0,0-1.08,1.92,4.6,4.6,0,0,0,.24,2.6l.81,1,1,0a2.77,2.77,0,0,0,1.09-1.92h0C634.74,344.88,634.28,343.32,633.4,342.87Zm.25,3.15a2,2,0,0,1-.72,1.34l-.38,0-.31-.38a3.24,3.24,0,0,1-.13-1.78,2,2,0,0,1,.72-1.34l.38,0a1.82,1.82,0,0,1,.5,1.49A4,4,0,0,1,633.65,346Z" style="fill-rule: evenodd"/>
    <path d="M588.75,376.5c-3.08-6.3-3.51-12.5-6.2-19.05-3.29,1.41-8.81,1.14-10.34,5.66a15.65,15.65,0,0,0,.08,2.56c4.46,1.3,11.65,9,15.05,13C591,383,597,388.12,600,393.94,600.32,387.89,591.45,382,588.75,376.5Z" style="fill-rule: evenodd;fill: url(#av)"/>
    <path d="M594,382.63a31.49,31.49,0,0,1-4.88-6.36,51.45,51.45,0,0,1-3.43-10.2,67.63,67.63,0,0,0-2.75-8.81l-.18-.43-.36.11-3.09.91c-2.94.71-6.28,1.51-7.45,5l.38.28-.41-.11.1,3.15.36,0c3.9,1.13,10.43,7.63,14.83,12.86l3.86,4.19c3.12,3.27,6.66,7,8.73,10.94l.67,1.28c0-.47,0-.94.07-1.4C600.62,390.05,597.24,386.27,594,382.63Zm-2.57-.17-3.81-4.14c-1.59-1.89-9.63-11.17-14.91-13,0-.49,0-1.8-.06-2,1.06-3,4-3.73,6.93-4.43l2.8-.83a68.21,68.21,0,0,1,2.53,8.19,53.82,53.82,0,0,0,3.53,10.47,32.65,32.65,0,0,0,5.08,6.66c2.54,2.82,5,5.72,5.78,8.57A63.56,63.56,0,0,0,591.4,382.46Z" style="fill-rule: evenodd"/>
    <path d="M627.05,357.55c2.56-2.87,7.66-15.79,6.65-20.83-1.58-7.87-14.24-10.27-18.22-6.77a6.23,6.23,0,0,0-1.78,3.48.79.79,0,0,0-.28-.18c-.75-.16-1.35.92-1.35,2.41a3.46,3.46,0,0,0,1.11,2.85c0,.55-.09,1.1-.16,1.63-.64,5.26-1,6.22-5,7.67-6.59,2.39-18,.62-22.87,6.77,0,0-1.91,3-2.58,2.87-.49,3.92,7.71,23.44,10.25,24.51.06-3.85,1.5-10.29,2.43-13.8-2.86,12.23-3.32,26.47-2.87,40.77.21,6.64,2.16,15.83,1,22-.59,3.26-6.16,17.14,2.51,16.28,1-7.08,5.14-2.09,7.34-4.88,2.58-3.31-3-6.46-5.63-7.29-.29-7.32-.61-14.56-.6-21.78,0-8.44,2.31-13.63,4.51-20.84,1.82-6,5.39-9.4,11.1-8.68,4.69.59,8.25,5.35,10.7,1.81-1.23,8.35.34,26,.55,31.56.46,11.86,2,23.84,2.15,35.32,9.06,5.14,5.23-40.45,6.23-46.58a84.61,84.61,0,0,0,.92-13.8c0-5.19,1.38-8.06,1.55-12.21C635,372.45,631.19,362.71,627.05,357.55Z" style="fill-rule: evenodd;fill: url(#aw)"/>
    <path d="M627.59,357.63c2.43-3.08,6.64-13.63,6.64-19.37a7.67,7.67,0,0,0-.14-1.58,9.92,9.92,0,0,0-4.84-6.49c-4.58-2.8-11.27-3.14-14-.7a6.27,6.27,0,0,0-1.75,3.26l0,0c-1-.22-1.76,1-1.76,2.85a4.31,4.31,0,0,0,1.09,3c0,.31-.13,1.39-.13,1.39-.63,5.11-1,5.94-4.79,7.32a37,37,0,0,1-8.21,1.49c-5.68.64-11.56,1.31-14.8,5.39a8.88,8.88,0,0,1-2.29,2.75l-.27,0-.11.33a2.94,2.94,0,0,0,0,.44c0,4.91,7.57,22.83,10.43,24.58-.5,5.27-.75,11-.75,17.45q0,4.35.15,9.12c.22,2.55.44,5.11.65,7.66a95.55,95.55,0,0,1,.73,9.83,25,25,0,0,1-.34,4.38l-.6,2.3a36.44,36.44,0,0,0-1.72,9.07,7.27,7.27,0,0,0,.89,3.83c.87,1.4,2.37,2,4.44,1.81l.26,0,0-.33c.55-3.91,2.05-3.78,3.79-3.63,1.17.1,2.48.22,3.45-1a3.29,3.29,0,0,0,.77-2.09,3.2,3.2,0,0,0-.15-1c-.81-2.66-4.46-4.4-6.17-5,0-.55-.07-1.69-.07-1.69-.25-6.36-.51-12.94-.51-19.36v-.26c0-6.78,1.52-11.44,3.26-16.83.41-1.28.82-2.56,1.22-3.84,1.91-6.24,5.52-9.07,10.75-8.41a14.42,14.42,0,0,1,4.74,1.76c2,1,3.86,1.8,5.41.61a70.87,70.87,0,0,0-.35,7.43c0,6.11.43,13.09.73,17.95.09,1.67.19,3.35.28,5q.51,8,1,16c.5,6.4,1,13,1.11,19.33v.4l.3.17a2.46,2.46,0,0,0,2.92-.05c3.24-2.52,3.82-14.2,3.82-25.71,0-3.48,0-6.94-.1-10.12,0-2.48-.07-4.71-.07-6.54a35.41,35.41,0,0,1,.17-4.45,83.82,83.82,0,0,0,.93-13.56v-.41a33.47,33.47,0,0,1,.82-6.95,31.91,31.91,0,0,0,.73-5.16c0-.29,0-.58,0-.87C635.15,371.66,631.43,362.63,627.59,357.63Zm6,27.08a33.88,33.88,0,0,0-.84,7.26,82.86,82.86,0,0,1-.92,13.7,103.63,103.63,0,0,0-.12,11.21c.2,12.75.49,32-3.4,35.05a1.73,1.73,0,0,1-1.91.14c-.12-6.23-.61-12.7-1.1-19q-.51-8-1-15.91c-.09-1.69-.19-3.38-.28-5.07-.3-4.84-.73-11.8-.73-17.86a61.49,61.49,0,0,1,.46-8.52l-.73-.57c-1.36,2-3.06,1.09-5.42-.12a15.4,15.4,0,0,0-5-1.83c-5.5-.69-9.47,2.4-11.46,8.95L599.92,396c-1.78,5.48-3.31,10.21-3.32,17.19v.27c0,6.45.26,13,.51,19.41,0,.86.07,1.73.1,2.6l.37.11c2,.62,5.25,2.43,5.83,4.35a1.87,1.87,0,0,1,.09.56,2.37,2.37,0,0,1-.57,1.45c-.76,1-1.8.87-2.91.77-1.75-.15-3.7-.23-4.42,4-1.64.12-2.81-.31-3.44-1.32-1.59-2.56,0-8.35,1-11.8l.63-2.41c.75-4.12.17-9.44-.38-14.58-.22-2.53-.43-5.05-.65-7.57-.54-17.07.37-30,2.86-40.6l-.79-.48v0A76.22,76.22,0,0,0,592.45,381c-2.59-2.42-9.51-19.1-9.51-23.1,0,0,0-.06,0-.1a8.85,8.85,0,0,0,2.51-2.88c3-3.83,8.8-4.48,14.37-5.11a37.51,37.51,0,0,0,8.34-1.52c4.15-1.5,4.6-2.59,5.26-8,.06-.69.13-1.39.19-2.09l-.33-.19a2.84,2.84,0,0,1-.81-2.27c0-1.28.49-2.07.93-2l.05,0,.43.31.21-.48a5.67,5.67,0,0,1,1.65-3.24c2.59-2.28,8.91-1.93,13.26.74a8.85,8.85,0,0,1,4.29,5.63c1,4.84-4.1,17.6-6.55,20.35-.1.11-.2.23-.31.34l.35.44c3.94,4.89,7.82,14.39,7.52,21.83A31.48,31.48,0,0,1,633.6,384.71Z" style="fill-rule: evenodd"/>
    <path d="M599.59,442.17c-11.76-1.29-3.09,32.54,8.91,23.88,3.57-2.58,5.74-10.23,4-15.78C609.92,441.91,604.94,443.56,599.59,442.17Z" style="fill-rule: evenodd;fill: url(#ax)"/>
    <path d="M603.1,442.26l-3.49-.61,0,.52c0-.26,0-.53,0-.53-2.9-.32-4.91,1.4-5.65,4.85-1.22,5.62,1.22,14.35,5.21,18.69,3,3.21,6.38,3.69,9.63,1.34,3.88-2.8,5.89-10.75,4.15-16.37C610.77,443.29,607,442.79,603.1,442.26Zm5.16,23.31c-3.78,2.72-6.8.87-8.67-1.16-3.09-3.35-5.18-9.49-5.18-14.49a14.87,14.87,0,0,1,.29-3c.46-2.13,1.69-4.58,4.93-4.23l3.52.63c4,.53,7.09.95,9,7.07C613.72,455.5,611.8,463,608.26,465.57Z" style="fill-rule: evenodd"/>
    <path d="M604.9,353.72l-.28.93c3.1,2.12,6,7,5.41,11.82l.82.35A14.44,14.44,0,0,0,604.9,353.72Z" style="fill-rule: evenodd"/>
    <path d="M622.39,355.88c-2-1.34-3.68-4.49-4.33-6.9l-.77.19c.71,2.66,2.6,6.14,4.83,7.64a3.25,3.25,0,0,0,3.51.39l-.42-1A2.59,2.59,0,0,1,622.39,355.88Z" style="fill-rule: evenodd"/>
    <path d="M579.45,469.53l1.55.33c-9-2.12-.22,18,7.75,13.73,2.47-1.33,3.35-8.79.92-11.74C588.14,470,581.48,470,579.45,469.53Z" style="fill-rule: evenodd;fill: url(#ay)"/>
    <path d="M581.87,469.3l-2.42-.3v.21a2.6,2.6,0,0,0-2.48,1.91,5.12,5.12,0,0,0-.2,1.47,14.7,14.7,0,0,0,3.24,8.16c2.8,3.6,6.14,4.85,8.94,3.34,1.58-.84,2.42-3.73,2.55-6.21a9.51,9.51,0,0,0-1.57-6.39C588.77,470.08,585.6,469.66,581.87,469.3Zm6.67,13.8c-2.49,1.33-5.48.19-8-3.05-2.17-2.78-3.4-6.47-2.8-8.4.49-1.56,2-1.55,3.25-1.27,0,0,0-.1,0-.13l1,.11c2.42.24,6.48.64,7.47,1.85a8.28,8.28,0,0,1,1.26,5.43C590.54,480.25,589.66,482.49,588.54,483.1Z" style="fill-rule: evenodd"/>
    <path d="M616.64,475.57l1,.89c-1.24,0-2.47.78-3.52,1.32-1.44,9,8.81,17.82,14,12.36C636.22,481.61,621.48,476.62,616.64,475.57Z" style="fill-rule: evenodd;fill: url(#az)"/>
    <path d="M616.64,475.05v1.05h.05a9.37,9.37,0,0,0-2.2.88l-.71.38,0,.22a12,12,0,0,0-.14,1.8,14.16,14.16,0,0,0,4.72,10.28c2.94,2.66,7.21,4,10.11.9,2.17-2.28,2.93-4.56,2.27-6.76C628.87,477.78,617.14,475.15,616.64,475.05Zm11.21,14.65c-2.6,2.75-6.47,1.54-9.14-.87a12.79,12.79,0,0,1-4.28-9.27,10.67,10.67,0,0,1,.1-1.38l.38-.2a6,6,0,0,1,2.83-1s0-.33-.08-.64c4.68,1.2,11.16,4,12.27,7.7a3.66,3.66,0,0,1,.17,1.14A6.81,6.81,0,0,1,627.85,489.7Z" style="fill-rule: evenodd"/>
    <path d="M578.58,413.78c-1.82-3.23-4.58-8.11-4.25-10a.77.77,0,0,1,.49-.65l-.36-1a1.59,1.59,0,0,0-.93,1.28c-.41,2.37,2.27,7.11,4.42,10.92.58,1.07,1.16,2.14,1.73,3.21,2.2,4.8,4.7,11,4.47,16l.82.24c.24-5.31-2.33-11.67-4.6-16.62Z" style="fill-rule: evenodd"/>
    <path d="M611.74,430.91,609,427.47l-.54.68,0,0c1.92,2.47,3.73,4.75,5.57,7a15,15,0,0,1,2.64,5.53l.79-.13a13.3,13.3,0,0,0-.76-2.31c.95,1.11,1.86,2.22,2.89,3.35l.47-.76c-2-2.16-3.75-4.25-5.53-6.4C613.66,433.2,612.7,432,611.74,430.91Z" style="fill-rule: evenodd"/>
    <path d="M629.35,446.39a7.17,7.17,0,0,1,.72.43l-1.55-.34c.29,0,.55-.06.83-.09-8.59-5.27-8.92,20.89,4.85,17.35,4.89-1.26,7.32-7.21,4-13.68C635.4,444.64,633.06,446,629.35,446.39Z" style="fill-rule: evenodd;fill: url(#ba)"/>
    <path d="M630.07,446.82a7.17,7.17,0,0,0-.72-.43c-.28,0-.54.07-.83.09Z" style="fill-rule: evenodd;fill: url(#bb)"/>
    <path d="M630.77,445.66l-1.55.19c-1.89-1.05-3.57-.94-4.77.69-2.12,2.86-2.11,8.85,0,13.08,1.19,2.38,4.06,6.14,9.89,4.64a7.68,7.68,0,0,0,5.52-5.81,12.57,12.57,0,0,0-1.34-8.63C636,444.85,633.67,445.21,630.77,445.66ZM639.06,458a6.94,6.94,0,0,1-5,5.23,7.23,7.23,0,0,1-8.94-4.06c-1.88-3.76-1.9-9.28,0-11.81a2.66,2.66,0,0,1,3.44-.79l.08.46.66-.07a3.84,3.84,0,0,1,.63.33l.16-.43.94-.12c2.9-.45,4.64-.72,6.86,3.58A11,11,0,0,1,639.06,458Z" style="fill-rule: evenodd"/>
    <path d="M603.48,384.43a15.71,15.71,0,0,1-.88,4.25l.73.63a16.72,16.72,0,0,0,1-4.55c.21-1.82.39-3.4,1.17-4.12l-.54-.91C603.92,380.66,603.71,382.49,603.48,384.43Z" style="fill-rule: evenodd"/>
    <path d="M614,382.35c0,.35,0,.7,0,1,2,.47,3.13-.76,3.21-3.38l-.82-.23C616.29,381.85,615.49,382.71,614,382.35Z" style="fill-rule: evenodd"/>
    <path d="M627.9,341.58c1.4.83,3,1.24,4.09.83a8.14,8.14,0,0,0-5.06-3A6.53,6.53,0,0,1,627.9,341.58Z" style="fill-rule: evenodd;fill: url(#bc)"/>
    <path d="M622.29,350.47c1.67,1,3.62,1.49,4.87,1a9.78,9.78,0,0,0-6-3.61A7.73,7.73,0,0,1,622.29,350.47Z" style="fill-rule: evenodd;fill: url(#bd)"/>
    <path d="M619.65,336.23a6.29,6.29,0,0,1,1.11,2.1,4.85,4.85,0,0,0,4.07.33A7.55,7.55,0,0,0,619.65,336.23Z" style="fill-rule: evenodd;fill: url(#be)"/>
  </g>
</svg>
