<svg xmlns="http://www.w3.org/2000/svg" viewBox="0 0 1260 1012.04">
  <g>
    <path d="M0,90.08v920C420,738.76,840,1193.28,1260,922V2C840,273.28,420-181.24,0,90.08Z" style="fill: #fff;fill-rule: evenodd"/>
    <path d="M550.48,279.22c-18.36-3.78-38.29-25.46-38.29-25.44-25.88,21.9-51.76,44.31-77.64,67.58,7.35,1,19.41,26.7,19.41,30.64V725.58c0,56.91,43.54,99,70.82,104.56,27.28,5.36,33.57-7.87,57.7-2.78s49.31,47.18,49.31,47.17V274q-22.81-4.65-45.64-9.23S568.84,283,550.48,279.22Z" style="fill: #6a95a9"/>
    <path d="M550.48,281c17.36,3.55,33.42-11.48,36.25-14.3q22.54,4.48,45.08,9.11c.77.16,1.4-.52,1.39-1.52a2.14,2.14,0,0,0-1.41-2.09h0Q609,267.58,586.14,263a1,1,0,0,0-1,.31c-.17.18-17.12,17.69-34.68,14.11s-37.28-24.77-37.48-25a1.19,1.19,0,0,0-1.7-.24c-25.88,21.91-51.76,44.34-77.64,67.63a2,2,0,0,0-.44,1.94,1.76,1.76,0,0,0,1.33,1.38c6.38.84,17.9,25.4,18,28.63V725.36c0,57.27,42.78,100.65,72.23,106.58,14.3,2.78,22.91.62,31.24-1.48,7.72-1.93,15-3.73,26.46-1.3,23.21,5,48,45.93,48.25,46.33a1.69,1.69,0,0,0,1.06.84,1,1,0,0,0,.93-.24,2.12,2.12,0,0,0,.13-2.52c-1.05-1.73-25.89-42.78-50.37-48-11.94-2.54-19.46-.68-27.41,1.32-8.1,2-16.48,4.14-30.29,1.46-41.73-8.13-69.41-66.52-69.41-102.55V352.22c0-3.89-9.69-25.56-17.75-31.3,24.88-22.3,49.76-43.84,74.64-64.89C516.39,260.31,533.87,277.61,550.48,281Z"/>
    <path d="M712.27,313.74C693.9,310,676.6,284.39,676.6,284.39q-22.83-5.2-45.64-10.54.36,300.2.73,600.39s24.45-30.86,48.58-25.72,30.42,21,57.7,26.36,70.82-22.81,70.82-80V421.29c0-3.93,12.06-26.1,19.41-25.14-25.88-30.2-51.76-61.26-77.64-92.84C750.56,303.32,730.63,317.5,712.27,313.74Z" style="fill: #eb3b42"/>
    <path d="M751.44,302.07a1.23,1.23,0,0,0-1.69-.39c-.2.15-19.77,13.89-37.48,10.26-17.56-3.57-34.51-28.37-34.68-28.62a1.72,1.72,0,0,0-1-.73Q653.79,277.4,631,272.05h0c-.77-.16-1.4.49-1.41,1.48a2.15,2.15,0,0,0,1.39,2.12q22.54,5.25,45.08,10.42c2.83,4,18.88,25.95,36.25,29.48,16.61,3.4,34.08-7.25,38.21-10,24.89,30.37,49.77,60.26,74.65,89.35-8.06,3.56-17.75,22.31-17.75,26.2V794.65c0,54.49-41.78,84-69.41,78.42-13.81-2.67-22.19-8.2-30.29-13.55s-15.47-10.26-27.41-12.8c-24.5-5.21-48.63,24.82-49.65,26.11a2.24,2.24,0,0,0,.15,2.57,1.63,1.63,0,0,0,.92.64,1,1,0,0,0,1.07-.39c.24-.31,24.31-30.26,47.51-25.33,11.45,2.44,18.74,7.28,26.46,12.39,8.33,5.51,16.94,11.2,31.24,14,29.45,5.89,72.23-24.07,72.23-81.61V421.5c.1-3.18,11.62-24.38,18-23.55a1.26,1.26,0,0,0,1.33-1,2.29,2.29,0,0,0-.45-2.06C803.2,364.69,777.32,333.64,751.44,302.07Z"/>
    <path d="M551.36,279.42c-18.63-3.84-38.86-25.58-38.86-25.56C486.25,275.68,460,298,433.73,321.26c7.46,1,19.7,26.72,19.7,30.67V536.31c60.14,9,120.28,22.24,180.42,35.35V274.49q-24.42-4.64-48.84-9.21S570,283.23,551.36,279.42Z" style="fill: #eb3b42"/>
    <path d="M584.67,264.24l-.23.26c-.14.19-15,17.64-33.08,13.94s-38.22-25.11-38.42-25.31-.31-.33-.47-.5c-27,22.42-54,45.4-80.93,69.32l2.19.29c7,.93,18.93,26.26,18.93,29.57V536.19l1.54.23V352.05c0-3.91-10.73-27-18.65-31.15,25.67-22.66,51.33-44.49,77-65.82,3.23,3.35,21.51,21.76,38.82,25.32,17.73,3.63,32-11.75,34-14.07q23.86,4.43,47.72,9V571.5l1.54.33V273.66q-24.81-4.71-49.62-9.36Z"/>
    <path d="M713.61,314c-18.14-3.68-35.25-29.25-35.25-29.25q-23.72-5.38-47.41-10.92l-.57,297.07c59.54,13,119.09,26,178.63,34.8V421.32c0-3.93,11.93-26.11,19.19-25.17C802.62,366,777,335,751.46,303.48,751.46,303.49,731.76,317.73,713.61,314Z" style="fill: #6a95a9"/>
    <path d="M679.15,447.82c-50.85,53.39-55.47,97.43-55.47,97.47q11.57,39.6,23.14,79.19s71.35-19.84,109.83-67.34c38.35-47.3,29.12-135.85,29.12-135.75S730,394.63,679.15,447.82Z" style="fill: #f9bd57"/>
    <path d="M786.46,420.71l-.51-.25c-.56-.07-56.77-26.33-107.34,26.55-26.35,27.69-40.07,52.75-47,69-7.49,17.63-8.7,28.57-8.74,29l0,.24q11.75,40.21,23.5,80.41l.71-.2c.72-.17,71.95-20.42,110.12-67.55s29.4-135.73,29.31-136.52ZM756.08,556.38c-35.88,44.27-101.29,64.71-108.83,66.92l-22.78-77.95c.22-1.7,1.81-12.34,8.61-28.32s20.46-40.91,46.61-68.4c47.37-49.58,99.64-28.8,105.38-26.55C785.81,430.36,792,512.15,756.08,556.38Z"/>
    <path d="M619.26,272.5c19.93,4.34,39.86,8.71,59.79,13l16.14-44.1c-21.07-9.55-42.14-19.28-63.21-29Z" style="fill: #f9bd57"/>
    <path d="M631.71,214.05q30.75,14.22,61.48,28.24l-15.06,41.17c-19.63-4.18-39.25-8.48-58.87-12.76v3.6c20.24,4.41,40.48,8.85,60.71,13.15q8.61-23.49,17.21-47c-21.65-9.79-43.29-19.79-64.94-29.79C632.06,211.77,631.89,212.91,631.71,214.05Z"/>
    <path d="M568.77,214.15q8.07,25.44,16.13,50.92,26.43,5.65,52.85,11.46-2.89-32.08-5.77-64.19C610.91,212.89,589.84,213.43,568.77,214.15Z" style="fill: #f9bd57"/>
    <path d="M570.76,215.92c20.5-.69,41-1.22,61.48-1.75-.18-1.22-.35-2.44-.53-3.66-21.64.57-43.29,1.12-64.94,1.88q8.61,27.12,17.21,54.29c17.92,3.82,35.84,7.75,53.77,11.66v-3.61c-17.31-3.77-34.62-7.56-51.92-11.26Q578.3,239.68,570.76,215.92Z"/>
    <path d="M561.38,193.24c0,34.32,22.62,41.32,30.1,42.95s12.69-8.58,12.69-8.58c4.92,6.79,9.34,12.85,15.83,14.26s12.4-8,12.4-8V168.69c-13.77-3-4.73-10.75-27.74-15.75S561.38,167.85,561.38,193.24Z" style="fill: #eb3b42"/>
    <path d="M623.35,162c-2.54-3.37-5.43-7.2-18.69-10.08-23-5-44,14.68-44,41.12,0,33.88,21.58,42.08,30.86,44.09,6.54,1.41,11.32-5.48,12.84-8,4.66,6.41,9.16,12.29,15.68,13.71,6.81,1.48,12.77-7.88,13-8.28l.14-.23V167.87l-.76-.16C626.68,166.46,625.14,164.41,623.35,162Zm8.28,71.35c-.91,1.36-6.13,8.7-11.63,7.5-6.24-1.36-10.44-7.17-15.32-13.9l-.69-1-.48.93c0,.1-5.09,9.74-12,8.25-8.82-1.92-29.33-9.7-29.33-41.81,0-25.41,20.26-44.32,42.51-39.48,12.69,2.76,15.34,6.28,17.68,9.39,1.86,2.45,3.61,4.78,9.29,6.18Z"/>
    <path d="M593.07,200.7c0,12.23,10.14,26.88,10.57,27.5L604.7,227c-.1-.15-10.09-14.6-10.09-26,0-26,12.45-36.62,37-31.52v59.64l1.53.33V167.87l-.76-.16C606.3,162,593.07,173.14,593.07,200.7Z"/>
    <path d="M660.13,165c-23-5-14,6.67-27.73,3.68v65.19s5.9,12,12.39,13.4,10.92-2.73,15.84-7.39c0,0,5.21,12.45,12.68,14.05s30.1,4.12,30.1-30.24C703.41,198.32,683.15,170,660.13,165Z" style="fill: #eb3b42"/>
    <path d="M660.13,164c-13.26-2.87-16.14-.31-18.69,2-1.78,1.59-3.33,3-9,1.72l-.77-.17V234l.14.29c.25.5,6.21,12.47,13,13.95,6.52,1.42,11-2.51,15.68-6.9,1.52,3.2,6.3,12.16,12.84,13.56,9.28,2,30.87,2.85,30.87-31.06C704.18,197.43,683.18,169,660.13,164ZM673.31,253c-6.94-1.48-12-13.3-12-13.42l-.48-1.14-.7.66c-4.87,4.62-9.08,8.6-15.32,7.25-5.49-1.2-10.71-10.82-11.63-12.58v-63.9c5.68,1.08,7.44-.48,9.29-2.13,2.34-2.09,5-4.45,17.68-1.7,22.25,4.83,42.51,32.15,42.51,57.55C702.64,255.68,682.13,254.86,673.31,253Z"/>
    <path d="M632.4,167.71l-.77-.17v61.61l1.53.33V169.84c24.57,5.63,37,21.61,37,47.6,0,11.38-10,21.52-10.1,21.62l1.07,1.65c.42-.43,10.56-10.71,10.56-22.94C671.72,190.2,658.49,173.4,632.4,167.71Z"/>
    <path d="M776.45,713.19c-5.55-3.51-4,8.12-5.83,10.79-3.21,4.65-4.16-1.74-5.36-5.29-.87-2.59-4-7.7-5.83-9.15a16.88,16.88,0,0,0-15.08-2.74,4.28,4.28,0,0,0-2.06,1.78c-1.12,1.93-1.1,5.28-1.18,7.81-.11,3.51-.56,6.84.59,10.05,1,2.81,2.38,4.33,4.09,6.44a77,77,0,0,1,13.06,22.91c1.37,3.92,2.44,8.83,1.19,12.55-2.27,6.73-9.23,5-14,1.78a30.08,30.08,0,0,1-4.27-3.64,38.2,38.2,0,0,1-4.26-4.83c-1.2-1.7-2.14-3.71-3.72-4.88s-3.24-1.63-4.14-3.66c-1-2.25.19-3.62,1.23-4.9,1.7-2.08,1.5-5.41,1.72-8.38.3-4.19.69-8.35.76-12.6a41.7,41.7,0,0,0-.74-7.59c-.4-2.49-.74-5-1.38-7.44-1-4-1.73-7-4.44-9.6-4.27-4.12-8.69-8.45-9.43-15.46a40.68,40.68,0,0,1,.13-5.42,12.54,12.54,0,0,0-.08-2.61c-.14-.82-.44-1.53-1.06-1.73a6.39,6.39,0,0,0-6,1.33c-1.61,1.33-1.91,3.32-2.3,5.68-.26,1.57-.81,3.84-2.54,3.23-.7-.26-1.06-1.18-1.29-2-.33-1.11-.5-2.26-.78-3.38-.35-1.41-.86-2.77-1.17-4.2a10.75,10.75,0,0,0-1.24-3.94,1.38,1.38,0,0,0-2.45,0c-1,1.67-.67,4.23-.67,6.33,0,1.21,0,2.43,0,3.65s.41,2.84-.2,3.64c-.84,1.1-2-1.55-2.38-2.26-.68-1.4-1.27-2.84-1.9-4.28-1.25-2.83-4.45-7.55-5.71-3.49-1,3.16.34,10.76.46,14.39.1,3.06-.34,7.28-2.08,9.24a12.83,12.83,0,0,1-2.6,1.9c-1.08.75-2.18,1.47-3.29,2.16-1.9,1.18-1.25,5.08-.15,7.34,2.47,5,6.41,2.14,7.86-1.09.68-1.5,1.59-2.72,3.13-2.67,1.13,0,2.77-.1,3.83.88a5.23,5.23,0,0,1,1.12,3.94c-.14,1.57-1.25,2.45-2.06,3.4a47.2,47.2,0,0,1-4,3.81,23.57,23.57,0,0,1-3.89,3.28,6.47,6.47,0,0,1-2.42.94c-2.73.41-5.61-2-7.9-4.25a29.67,29.67,0,0,1-6.2-9.56c-1.56-3.45-4-7.87-7.34-7.05-2.12.52-4.29,4-3.49,7.06.32,1.22,1.16,2.08,1.28,3.41.23,2.59-1.19,4.34.08,7.07.61,1.32,1.6,3.24,2.82,3.53,1.4.34,2.45-1.15,3.83-.8s2,2,2.76,3.28c2.23,4,6.41,4.92,9.11,8.18a4.24,4.24,0,0,1,.93,3c0,2.42-.51,4.67-.52,7.08,0,2.09,1.29,4.53,3,5a13,13,0,0,0,4.43.15c6.37-.54,3.62,2.45,1.06,3.55-1.55.66-3,1.67-4.46,2.47a15.52,15.52,0,0,1-8.85,1.31c-2.71-.4-2.5-2-4.14-4.22a3.37,3.37,0,0,0-4.63-.74c-2.4,2.21-2.14,6.14-6.13,5.43-.58-.1-.93-.31-1.16.37-1.31,3.85,1.52,8.37,4.49,9.56,1,.42,2.37.48,3.31,1.4,1.15,1.12.83,3.18,2,4.13,2.45,1.94,5.58-2,7.44-2.93,3.45-1.8,8.18-1,12,.32a107.48,107.48,0,0,1,12.11,4.62c7.25,3.51,12,9.24,19.58,6.8,2.74-.88,6.67-5.8,9.69-1.68,1.76,2.41,1.72,7.46,1.45,10.16-.44,4.48-1.5,7-4.93,7.55a10.52,10.52,0,0,1-5.36-.19c-1.41-.52-3.08-.2-4.41-1.27-1-.85-1.42-2.36-1.8-3.72-.68-2.44-3.4-3.58-5.09-3.63a4.62,4.62,0,0,0-2.79.92c-1.5,1.09-2,3.66-3.44,4.84-1.21,1-3-.34-4.17.46a3.38,3.38,0,0,0-.74,1.38c-.8,2.27-.24,5,.94,7.37.62,1.23,2.19,1.43,3.11,2.09a5.81,5.81,0,0,1,2.19,3.12,4.73,4.73,0,0,0,3.63,3.56c1.66.31,3.78.63,5-.75s1-3.53,1.73-5.22c1.14-2.51,4.85-.13,6.57.69,2.43,1.17,3.78,3.8,5.82,5.74,5,4.79,9.67-.79,13.56-3.15,2.7-1.63,9-4.12,12.06-.79,2.22,2.42,2,6.13,1.32,8.91-.84,3.57.23,7.94-2.53,10.15-1.08.87-3.28,5.83-.9,7,.65.33,1.69.08,2.14.94s.2,2.48.41,3.49c.68,3.23,4.66,7,7.14,5.94,1.74-.76,2-3.46,2.62-5.38.21-.68.21-1,.78-1.36.92-.51,2.1.1,3-.35,1.7-.82,2.45-4.41,1.81-6.72-1-3.51-5.93-1.61-5.92-6.44a4.41,4.41,0,0,1,2.19-3.75c2.88-2,3.35-5.17,2.87-9.52-.72-6.52-.62-12.41-4.25-18.19-1.84-2.92-4.17-8.8-.85-10.52a13.37,13.37,0,0,0,6-7.84c.71-2.18.55-4.68.72-7.07.3-4.12.42-9.46-.73-13.65-1.22-4.41-4.58-10-6.86-13.91a35.07,35.07,0,0,0-5.88-7.7c-2-2-4.27-3.82-5.49-6.79-1.62-4-1.64-13.8,3.16-12.76,2.46.53,3.82,4.14,5,6.54,2.6,5.42,4.21,10,8.74,13.14,4,2.73,8.87,4.73,11.54-.49,2-3.85-.2-8.88-.09-13.22C778.27,718.41,779.55,715.15,776.45,713.19Z" style="fill: #f9bd57"/>
    <path d="M779,721.46c0-.59.08-1.19.15-1.8.26-2.3.61-5.44-2.41-7.35-1.3-.83-2.41-1-3.29-.47-1.7,1-2.08,4.08-2.45,7.07-.23,1.8-.46,3.65-1,4.36-1,1.42-1.48,1.41-1.65,1.33-.66-.24-1.35-2.63-1.81-4.21-.2-.7-.4-1.38-.6-2-.94-2.79-4.18-8.09-6.19-9.7a17.58,17.58,0,0,0-15.71-2.88,5,5,0,0,0-2.41,2.09c-1.14,2-1.22,5.07-1.29,7.57l0,.72c0,.63,0,1.25-.08,1.88-.13,2.84-.28,5.78.75,8.65a19.61,19.61,0,0,0,3.83,6.24l.46.57a75.73,75.73,0,0,1,12.86,22.54c1.19,3.41,2.36,8.21,1.17,11.76-2.24,6.61-9.48,3.83-13,1.41a29.32,29.32,0,0,1-4.21-3.6,37.56,37.56,0,0,1-4.07-4.61c-.32-.46-.63-.94-.92-1.42a13,13,0,0,0-3-3.7c-.4-.3-.82-.55-1.24-.81a5.67,5.67,0,0,1-2.56-2.4c-.6-1.36-.11-2.19,1.16-3.75,1.58-1.92,1.71-4.77,1.83-7.29,0-.55.05-1.08.08-1.61l.21-2.86c.25-3.2.5-6.49.56-9.81a43.56,43.56,0,0,0-.76-7.82c-.06-.42-.13-.84-.2-1.27A61.17,61.17,0,0,0,732,712c0-.17-.08-.34-.13-.51-1-3.72-1.81-6.94-4.63-9.66-4.12-4-8.37-8.08-9.07-14.69a20.18,20.18,0,0,1,0-3.47c0-.58.08-1.18.1-1.75a14.18,14.18,0,0,0-.1-2.88c-.33-1.91-1.23-2.47-1.74-2.63a6.81,6.81,0,0,0-6.55,1.43c-1.78,1.48-2.15,3.7-2.56,6.19-.45,2.69-1.13,2.85-1.69,2.62-.16,0-.39-.24-.68-1.23-.18-.63-.32-1.28-.45-1.92-.1-.47-.2-.94-.31-1.41-.16-.64-.35-1.28-.54-1.91s-.46-1.49-.62-2.24c0-.23-.09-.46-.14-.69a9.71,9.71,0,0,0-1.3-3.72,2.34,2.34,0,0,0-1.75-1.14,2,2,0,0,0-1.88,1.07c-.91,1.59-.86,3.75-.82,5.66,0,.4,0,.8,0,1.18,0,1.22,0,2.46,0,3.7,0,.27,0,.59.06.92a5.22,5.22,0,0,1,0,2.1c-.08,0-.4-.26-1.21-1.95-.46-1-.89-2-1.32-3-.18-.43-.37-.86-.56-1.29-.83-1.89-2.85-5.48-4.93-5.68-.66,0-1.58.26-2.15,2.08-.74,2.41-.31,6.81.08,10.68.15,1.56.3,3,.33,4.08.1,3-.34,6.85-1.87,8.56a7.81,7.81,0,0,1-1.75,1.34c-.25.15-.49.3-.73.47-1.07.74-2.16,1.45-3.27,2.14a3.52,3.52,0,0,0-1.47,2.56,11.39,11.39,0,0,0,1.11,6.12c1.21,2.46,2.67,3.17,3.65,3.27,2.36.31,4.51-2,5.52-4.19.73-1.61,1.51-2.31,2.55-2.27h.52a4.36,4.36,0,0,1,2.84.65,3.74,3.74,0,0,1-.63,5.21c-.17.19-.35.38-.5.57a29,29,0,0,1-2.68,2.64l-1.23,1.11-.48.47a20.6,20.6,0,0,1-3.3,2.74,6.08,6.08,0,0,1-2.21.86c-2.43.36-5-1.84-7.31-4a28.93,28.93,0,0,1-5.94-9.19c-1.08-2.38-3.93-8.72-8.25-7.64-2.53.62-4.9,4.61-3.95,8.21a7.72,7.72,0,0,0,.69,1.68,4.12,4.12,0,0,1,.54,1.51,8.87,8.87,0,0,1-.2,2.41,7.68,7.68,0,0,0,.41,5.12c.8,1.71,1.91,3.73,3.45,4.1a3.55,3.55,0,0,0,2.29-.44,2.82,2.82,0,0,1,1.53-.36c.78.2,1.33,1.21,1.91,2.29l.28.5a15.23,15.23,0,0,0,5.37,5.19,17.28,17.28,0,0,1,3.86,3.18,2.85,2.85,0,0,1,.63,2.18,26.83,26.83,0,0,1-.25,3.55,32.46,32.46,0,0,0-.27,3.51c0,2.74,1.73,5.59,3.72,6.1a12.13,12.13,0,0,0,4.63.17,8.76,8.76,0,0,1,2.76.08,6.24,6.24,0,0,1-2.21,1.53,24.07,24.07,0,0,0-2.88,1.55c-.54.32-1.07.65-1.63.94a14.92,14.92,0,0,1-8.5,1.25c-1.55-.23-1.77-.72-2.4-1.9a16.06,16.06,0,0,0-1.18-2c-1.46-2-4.33-2.19-5.66-1a9.81,9.81,0,0,0-2,2.85c-.9,1.7-1.49,2.82-3.68,2.43l-.21,0a1.19,1.19,0,0,0-1.63.87,8.45,8.45,0,0,0,.33,5.89,9.5,9.5,0,0,0,4.76,5.15c.35.13.72.24,1.11.35a4.28,4.28,0,0,1,1.92.86,3.25,3.25,0,0,1,.65,1.5,4.8,4.8,0,0,0,1.44,2.69c2.23,1.78,4.61-.12,6.52-1.65a11.5,11.5,0,0,1,1.62-1.17c3.45-1.8,8.19-.79,11.57.35l.75.26a100.73,100.73,0,0,1,11.28,4.32,56.23,56.23,0,0,1,5.48,3.17c4.51,2.84,8.78,5.52,14.55,3.67a11.74,11.74,0,0,0,2.65-1.45c2.63-1.72,4.62-2.77,6.23-.57,1.3,1.77,1.54,5.92,1.21,9.27-.45,4.62-1.56,6.34-4.38,6.83a9.92,9.92,0,0,1-5.05-.15,8.72,8.72,0,0,0-1.82-.39,4.56,4.56,0,0,1-2.37-.75c-.7-.58-1-1.69-1.41-3.1a6.45,6.45,0,0,0-5.91-4.42,5.21,5.21,0,0,0-3.14,1,7.34,7.34,0,0,0-2,2.68,6.61,6.61,0,0,1-1.5,2.18,2.19,2.19,0,0,1-1.74.16,3.29,3.29,0,0,0-2.39.27,3.51,3.51,0,0,0-1,1.76,10.84,10.84,0,0,0,1,8.33,4.51,4.51,0,0,0,2.5,2,5.08,5.08,0,0,1,1,.49,4.71,4.71,0,0,1,1.76,2.51,5.78,5.78,0,0,0,4.34,4.29c1.95.37,4.15.63,5.57-.93a6.87,6.87,0,0,0,1.34-3.46,8.5,8.5,0,0,1,.52-2c.71-1.57,3.37-.19,5,.63l.76.39a11.12,11.12,0,0,1,3.52,3.25,23.77,23.77,0,0,0,2.08,2.33c4.47,4.25,8.63,1.15,12-1.33.83-.62,1.62-1.21,2.39-1.68,3-1.82,8.72-3.71,11.21-1,1.88,2.07,1.6,5.38,1,7.79a21.6,21.6,0,0,0-.45,3.91c-.13,2.43-.24,4.53-1.82,5.78a8.69,8.69,0,0,0-2.2,6.44,3,3,0,0,0,1.59,2.33,3.56,3.56,0,0,0,1,.27c.19,0,.68.11.74.23a4.61,4.61,0,0,1,.17,1.52,8.71,8.71,0,0,0,.12,1.62,10.32,10.32,0,0,0,3.79,5.68,6.18,6.18,0,0,0,2.6,1.25,3,3,0,0,0,1.83-.17c1.66-.73,2.21-2.87,2.66-4.6.11-.43.22-.85.34-1.26l.1-.35c.12-.43.12-.44.34-.56a2.48,2.48,0,0,1,1.25-.13,3.22,3.22,0,0,0,1.74-.21c2.12-1,2.93-5.14,2.18-7.86-.58-2.12-2.18-2.76-3.47-3.28-1.75-.7-2.41-1.12-2.4-2.81a3.52,3.52,0,0,1,1.86-3c3.54-2.53,3.6-6.69,3.19-10.41-.12-1.1-.22-2.18-.32-3.25-.49-5.37-1-10.43-4.12-15.48-1.29-2.07-2.56-5.2-2.29-7.2a2.29,2.29,0,0,1,1.24-1.85c2.81-1.46,5.13-4.48,6.37-8.28a19.32,19.32,0,0,0,.68-5.36c0-.66,0-1.31.1-2,.43-6,.18-10.6-.78-14.09-1.22-4.46-4.45-9.9-6.79-13.88l-.21-.35a36.07,36.07,0,0,0-6.05-7.93l-.8-.75c-1.78-1.69-3.47-3.29-4.43-5.63-1-2.55-1.3-7.62,0-10.09a2.12,2.12,0,0,1,2.42-1.36l.09,0c1.75.38,2.89,2.86,3.91,5,.14.32.29.63.43.95.38.78.74,1.55,1.08,2.3,2.1,4.53,3.92,8.45,8,11.27,5.95,4.08,10.14,3.83,12.47-.74,1.42-2.78.93-6,.47-9.09A26.11,26.11,0,0,1,779,721.46Zm-1.34,12.44c-1.91,3.74-5.38,3.83-10.59.24-3.65-2.49-5.26-6-7.3-10.37-.35-.76-.71-1.54-1.09-2.34l-.42-.9c-1.1-2.37-2.6-5.63-5.17-6.17-1.63-.45-3,.34-3.86,2-1.57,3.06-1.28,8.89,0,12.06a18.47,18.47,0,0,0,5,6.45l.77.73a33.84,33.84,0,0,1,5.69,7.46c.07.12.13.24.2.35,2.28,3.86,5.4,9.14,6.53,13.26.88,3.19,1.1,7.52.69,13.21-.05.68-.07,1.37-.1,2.05a17,17,0,0,1-.58,4.75,12.58,12.58,0,0,1-5.68,7.4,3.89,3.89,0,0,0-2,3.1c-.39,2.82,1.19,6.57,2.66,8.9,2.84,4.54,3.26,9.08,3.74,14.34.1,1.08.2,2.18.32,3.3.5,4.54-.21,7-2.54,8.64a5.22,5.22,0,0,0-2.53,4.49c0,3.5,2.12,4.36,3.68,5,1.24.5,2,.85,2.29,1.81.5,1.84-.12,4.93-1.45,5.57a2.46,2.46,0,0,1-1.18.11,3.27,3.27,0,0,0-1.85.25,2.14,2.14,0,0,0-1.05,1.52l-.08.29c-.13.43-.25.89-.37,1.36-.41,1.59-.79,3.09-1.86,3.56-.81.36-2,0-3.13-.86a8.18,8.18,0,0,1-2.94-4.26,8.45,8.45,0,0,1-.07-1.12,6,6,0,0,0-.47-2.73,2.25,2.25,0,0,0-1.75-1.2l-.25,0a3.81,3.81,0,0,1-.58-.14.74.74,0,0,1-.44-.63,7,7,0,0,1,1.64-4.57c2.12-1.69,2.27-4.44,2.42-7.09a20.84,20.84,0,0,1,.38-3.51c1-4.3.46-7.77-1.61-10-3.38-3.68-9.92-1.2-12.91.6-.8.49-1.63,1.1-2.48,1.74-3.3,2.44-6.7,5-10.29,1.56a26,26,0,0,1-1.91-2.14,12.86,12.86,0,0,0-4.14-3.76l-.72-.37c-2-1-5.41-2.81-6.69,0a10,10,0,0,0-.66,2.42,5.1,5.1,0,0,1-.94,2.59c-1,1.12-2.85.88-4.49.57a3.72,3.72,0,0,1-2.91-2.82,7.16,7.16,0,0,0-2.61-3.74,7.6,7.6,0,0,0-1.24-.65,3.08,3.08,0,0,1-1.54-1,8.39,8.39,0,0,1-.84-6.39,2.73,2.73,0,0,1,.46-1,2.31,2.31,0,0,1,1.59-.09,3.17,3.17,0,0,0,2.62-.4,7.94,7.94,0,0,0,1.86-2.64,6.55,6.55,0,0,1,1.54-2.19,4.15,4.15,0,0,1,2.45-.81c1.48,0,3.77,1,4.33,3.07a7.72,7.72,0,0,0,2.13,4.11,5.88,5.88,0,0,0,3.1,1.09,7.77,7.77,0,0,1,1.54.31,11,11,0,0,0,5.68.22c3.94-.68,5-3.8,5.48-8.26.17-1.81.58-7.94-1.7-11-2.62-3.57-5.67-1.59-8.12,0a11.7,11.7,0,0,1-2.38,1.32c-5.25,1.68-9.06-.72-13.49-3.5a56.8,56.8,0,0,0-5.64-3.25,101,101,0,0,0-11.45-4.4l-.74-.25c-3.6-1.24-8.7-2.29-12.5-.3a12.46,12.46,0,0,0-1.81,1.29c-1.58,1.26-3.57,2.83-4.93,1.74-.3-.24-.43-.67-.63-1.41a5.46,5.46,0,0,0-1.31-2.65,5.58,5.58,0,0,0-2.63-1.29,9,9,0,0,1-1-.3,7.2,7.2,0,0,1-3.64-3.94,6.32,6.32,0,0,1-.32-4.16l.28,0,.26.05c3,.54,4-1.31,4.94-3.1a9,9,0,0,1,1.68-2.47,2.72,2.72,0,0,1,3.61.52,12.61,12.61,0,0,1,1,1.65c.72,1.33,1.35,2.58,3.7,2.93a16,16,0,0,0,9.2-1.36c.57-.31,1.12-.64,1.67-1a22.23,22.23,0,0,1,2.74-1.48c.39-.16,3.8-1.7,3.21-3.91-.37-1.38-1.75-1.83-4.78-1.58a12.44,12.44,0,0,1-4.23-.13c-1.29-.33-2.25-2.29-2.24-3.82a28,28,0,0,1,.25-3.26,29.57,29.57,0,0,0,.27-3.85,5.62,5.62,0,0,0-1.22-3.82,19.49,19.49,0,0,0-4.28-3.57,13.5,13.5,0,0,1-4.71-4.43c-.09-.16-.18-.32-.26-.48-.7-1.29-1.57-2.9-3.07-3.28a3.12,3.12,0,0,0-2.31.42,2.37,2.37,0,0,1-1.5.38h0c-.93-.22-1.89-2.27-2.2-3a5.3,5.3,0,0,1-.19-3.57,10.72,10.72,0,0,0,.23-3.05,6.52,6.52,0,0,0-.83-2.49,5.37,5.37,0,0,1-.48-1.14c-.63-2.41,1.22-5.47,3-5.91,2.18-.55,4.17,1.45,6.43,6.46a31.11,31.11,0,0,0,6.46,9.93c2.54,2.46,5.54,4.92,8.5,4.48a6.92,6.92,0,0,0,2.62-1,20.22,20.22,0,0,0,3.51-2.89l.48-.47,1.21-1.09a29.19,29.19,0,0,0,2.8-2.77l.47-.52a5.51,5.51,0,0,0,1.78-3.39,6.4,6.4,0,0,0-1.5-5A5.35,5.35,0,0,0,691.5,708H691c-2-.08-3.09,1.71-3.7,3.06-.82,1.82-2.59,3.63-4.25,3.41a3.34,3.34,0,0,1-2.3-2.14,8.72,8.72,0,0,1-.87-4.58,1.89,1.89,0,0,1,.81-1.42c1.12-.7,2.22-1.43,3.31-2.18.23-.15.46-.3.7-.44a8.75,8.75,0,0,0,2-1.57c2.34-2.63,2.35-8.25,2.3-9.91,0-1.14-.19-2.65-.35-4.25-.34-3.47-.77-7.78-.16-9.77q.35-1.11.87-1.08c.94.05,2.55,2.37,3.47,4.46.18.42.36.85.55,1.27.44,1,.88,2,1.42,3.18.63,1.3,1.4,2.67,2.34,2.93a1.06,1.06,0,0,0,1.2-.47c.69-.89.55-2.33.45-3.49,0-.28,0-.55-.06-.78,0-1.2,0-2.41,0-3.61,0-.4,0-.82,0-1.24,0-1.69-.08-3.45.56-4.57a.83.83,0,0,1,.75-.44.66.66,0,0,1,.52.33,7.37,7.37,0,0,1,.9,2.74c.05.25.1.49.14.73.18.83.43,1.65.68,2.47.18.59.35,1.17.5,1.77.11.43.2.87.29,1.31.15.72.3,1.43.51,2.13s.65,2.26,1.91,2.71c1.74.6,2.85-.67,3.4-4,.38-2.26.65-3.91,2-5a5.9,5.9,0,0,1,5.43-1.23c.08,0,.26.08.39.84a12.1,12.1,0,0,1,.07,2.35c0,.56-.06,1.12-.1,1.68a22.09,22.09,0,0,0,0,3.91c.8,7.56,5.58,12.18,9.8,16.25,2.35,2.26,3,4.88,4,8.5l.14.51c.51,2,.82,4,1.15,6,.07.42.14.85.2,1.28a42,42,0,0,1,.73,7.36c-.06,3.24-.31,6.5-.55,9.66-.07,1-.14,1.91-.22,2.87,0,.55-.06,1.11-.09,1.67-.11,2.42-.21,4.7-1.51,6.28-1.07,1.3-2.53,3.09-1.24,6a7.43,7.43,0,0,0,3.39,3.39c.38.24.76.46,1.11.72a11,11,0,0,1,2.49,3.13c.32.51.65,1,1,1.52a40.2,40.2,0,0,0,4.39,5,29.67,29.67,0,0,0,4.4,3.76c5.58,3.82,12.64,4.77,15-2.14,1.4-4.16.11-9.56-1.21-13.35a78.26,78.26,0,0,0-13.27-23.28l-.47-.58a17.28,17.28,0,0,1-3.41-5.49c-.85-2.37-.72-4.93-.59-7.64,0-.64.06-1.28.08-1.92,0-.25,0-.49,0-.73.06-2.25.13-5.06,1-6.6a3.65,3.65,0,0,1,1.7-1.49,16.4,16.4,0,0,1,14.47,2.6c1.65,1.31,4.67,6.26,5.47,8.62.19.57.37,1.21.56,1.87.72,2.5,1.47,5.09,3,5.66,1,.37,2-.24,3.08-1.81.75-1.08,1-3.09,1.26-5.22.31-2.44.65-5.19,1.72-5.81.48-.29,1.13-.14,2,.4,1.76,1.11,1.7,2.5,1.41,5.06-.07.68-.15,1.35-.17,2a29.5,29.5,0,0,0,.47,5C778.33,729,778.74,731.72,777.63,733.9Z"/>
    <path d="M751,302.64a.69.69,0,0,0-.93-.21c-.19.15-19.94,14-37.84,10.33s-32.64-27.64-32.78-27.88a1,1,0,0,0-.58-.45q-23.92-5.06-47.85-10.27c-.42-.09-.77.27-.76.81a1.17,1.17,0,0,0,.76,1.15q23.76,5.14,47.52,10.2c2,3.25,16.22,24.85,33.69,28.4,17,3.49,35-8,38.25-10.19,25.29,30.87,50.58,61.24,75.88,90.78-7.81,2.1-18.38,22-18.38,25.87V605.57a1.07,1.07,0,0,0,.77,1.1c.42.06.76-.32.76-.87V421.4c0-3.29,11.71-25.17,18.65-24.26a.7.7,0,0,0,.72-.56,1.28,1.28,0,0,0-.24-1.13C802.8,365.27,776.92,334.22,751,302.64Z"/>
    <path d="M649.18,295.22q1.85,15.5,3.68,31,31.93,61.55,63.86,122.71,7.17-5.64,14.34-11.31-32.28-62.49-64.56-125.7Z" style="fill: #9fb6c3"/>
    <path d="M647.34,291.35q2.05,17.41,4.12,34.83,32.5,62.82,65,125.23,8.28-6.51,16.56-13.07-32.68-63.24-65.38-127.26Q657.49,301.24,647.34,291.35ZM717,446.43q-31.4-60-62.8-120.65-1.58-13.33-3.16-26.69l14.5,14q31.79,62.15,63.58,123.81Q723.05,441.67,717,446.43Z"/>
    <path d="M730.35,425.72Q718.13,436,705.88,446.17c-2.34,1.95-2.51,6.55-.37,10.28s5.76,5.18,8.1,3.23q12.24-10.2,24.47-20.52c2.35-2,2.51-6.58.38-10.29S732.7,423.76,730.35,425.72Z" style="fill: #9fb6c3"/>
    <path d="M729.87,424.87q-12.24,10.28-24.47,20.44a6.69,6.69,0,0,0-2.13,4.7,12.32,12.32,0,0,0,1.65,6.94,8.7,8.7,0,0,0,5.43,4.49,4.35,4.35,0,0,0,3.75-.9q12.23-10.2,24.47-20.53a6.75,6.75,0,0,0,2.12-4.72,12.34,12.34,0,0,0-1.64-6.93C736.66,424.2,732.54,422.63,729.87,424.87Zm7.73,13.43q-12.24,10.33-24.47,20.52c-2,1.68-5.16.39-7-2.88a9.71,9.71,0,0,1-1.3-5.42,4.92,4.92,0,0,1,1.57-3.49q12.23-10.17,24.47-20.45a3.22,3.22,0,0,1,2.78-.68,6.8,6.8,0,0,1,4.25,3.48,9.68,9.68,0,0,1,1.29,5.42A5,5,0,0,1,737.6,438.3Z"/>
    <path d="M658.07,532.32Q671,552.72,684,573.08q19.54-25.27,39.09-50.76Q710.6,504,698.13,485.57,678.11,509,658.07,532.32Z" style="fill: #75888f"/>
    <path d="M657.51,531.53l-.49.56q13.49,21.27,27,42.47,20.06-25.92,40.1-52.09-13-19.1-26-38.32Q677.8,507.94,657.51,531.53Zm64.5-9.37Q703,547,683.94,571.6q-12.41-19.5-24.82-39.06,19.51-22.71,39-45.56Q710.09,504.62,722,522.16Z"/>
    <path d="M684.33,639q16.92,3.59,33.83,7v-78q-16.9-3.4-33.83-7Z" style="fill: #fff"/>
    <path d="M683.56,639.86q17.69,3.75,35.37,7.31V567.23q-17.68-3.56-35.37-7.32Zm1.54-77.67q16.14,3.42,32.3,6.69v76q-16.15-3.25-32.3-6.69Z"/>
    <path d="M675.67,657.58c17.88,3.82,35.76,7.55,53.64,11.06V648.07q-26.82-5.28-53.64-11.06Z" style="fill: #fff"/>
    <path d="M674.91,658.4c18.39,3.93,36.78,7.76,55.17,11.37V647.24c-18.39-3.61-36.78-7.44-55.17-11.37Zm1.53-20.25c17.37,3.71,34.74,7.33,52.11,10.75v18.61q-26.06-5.13-52.11-10.74Z"/>
    <path d="M534.83,627.56c17.7,3.51,35.4,7.22,53.11,11V618c-17.71-3.79-35.41-7.5-53.11-11Z" style="fill: #fff"/>
    <path d="M534.06,628.39q27.32,5.42,54.65,11.33V617.18c-18.22-3.9-36.44-7.72-54.65-11.32Zm1.53-20.27c17.2,3.41,34.39,7,51.58,10.69v18.62q-25.78-5.52-51.58-10.7Z"/>
    <path d="M567.6,532.93q15.93,3,31.86,6.18l1.5-71.22q-16.89-3.86-33.78-7.61Z"/>
    <path d="M563.49,537.45q20,3.78,40,7.75l1.71-81.63q-21.11-4.83-42.21-9.51Q563.24,495.75,563.49,537.45Zm33.21-65.23q-.65,30.4-1.28,60.8-11.85-2.32-23.7-4.6-.18-31-.37-61.92Q584,469.34,596.7,472.22Z"/>
    <path d="M599.93,459l-9.64-2.08c-.22-3.56-.44-7.11-.67-10.67l-10.73-2.29c-.16,3.38-.31,6.77-.47,10.16l-10.2-1.89c0-3.51-.05-7-.07-10.54l-9.91-2.07v25.8l3.75.78-3.75,66.61q10.2,2.12,20.41,4.28c-1.25-24.4,10.55-25.26,10.39,2.22q10.83,2.32,21.66,4.68l-5.43-68.57,5.43,1.18v-25.8l-10.34-2.24C600.22,452,600.07,455.47,599.93,459Z" style="fill: #f9bd56"/>
    <path d="M612.11,478.66v-29.4L599,446.42q-.21,5.22-.43,10.44l-7-1.51c-.22-3.56-.44-7.11-.67-10.67l-13.36-2.86-.47,10.2-7.47-1.38c0-3.5,0-7-.07-10.51l-12.72-2.65v29.4l3.64.76-3.75,66.61q11.71,2.41,23.44,4.91c0-.65-.07-1.29-.1-1.94-.51-9.83,1.2-15.47,3-16.55a.88.88,0,0,1,1.18.17c1.29,1.19,3.46,6.35,3.39,18.1,0,.61,0,1.21,0,1.82q12.32,2.63,24.64,5.32-2.71-34.29-5.42-68.57Zm-3,63.14q-9.35-2-18.69-4c-.13-9.89-1.87-17-4.84-19.78a3.24,3.24,0,0,0-4.05-.68c-3,1.78-4.61,8.45-4.38,17.63q-8.71-1.86-17.42-3.66l3.75-66.61-3.85-.8V441.67l7.1,1.48c0,3.53,0,7.05.07,10.58l12.93,2.39c.16-3.38.31-6.75.47-10.13l8.1,1.73c.22,3.56.45,7.12.67,10.67L601.27,461l.43-10.44,7.59,1.65v22.19l-5.58-1.21Q606.42,507.52,609.13,541.8Z"/>
    <path d="M563.13,475.45c-13-2.7-23.48,8.5-23.48,24.9s10.51,31.79,23.48,34.49,23.47-8.33,23.48-24.73S576.1,478.15,563.13,475.45Z" style="fill: #1f8fc9"/>
    <path d="M563.13,473.65c-13.72-2.86-24.89,9.05-24.89,26.41s11.17,33.72,24.89,36.58S588,527.78,588,510.41,576.85,476.51,563.13,473.65Zm0,59.39c-12.17-2.54-22.07-17-22.07-32.41s9.9-25.91,22.07-23.38,22.07,17.18,22.07,32.56S575.3,535.58,563.13,533Z"/>
    <path d="M545.06,608.91q16.92,3.44,33.83,7V538.27q-16.9-3.6-33.83-7Z" style="fill: #fff"/>
    <path d="M544.29,609.74q17.69,3.57,35.37,7.35V537.45Q562,533.7,544.29,530.1Zm1.54-77.37q16.14,3.28,32.3,6.72V614.8q-16.15-3.42-32.3-6.71Z"/>
    <path d="M631,489.6c-28.61-6.26-51.8,25.26-51.8,70.25s23.19,86.39,51.8,92.66,51.8-25.27,51.8-70.26S659.57,495.87,631,489.6Z" style="fill: #a0b6c4"/>
    <path d="M631,487.8c-29.34-6.42-53.21,25.83-53.21,71.75s23.87,88.33,53.21,94.76,53.21-25.85,53.21-71.77S660.3,494.23,631,487.8Zm0,162.91c-27.79-6.09-50.39-46.65-50.39-90.56s22.6-74.83,50.39-68.75S681.35,538,681.35,582,658.74,656.79,631,650.71Z"/>
    <path d="M615.35,559c-1.58,19.19-24.16,53-24.16,53Q617.11,628.42,643,645L631,544.6C623.54,543.43,616.26,547.78,615.35,559Z"/>
    <path d="M630.87,542.14c-7.91-1.25-16.37,3.27-17.43,16.18-1.5,18.3-23.56,51.49-23.78,51.84a2.73,2.73,0,0,0-.29,2.13,2.94,2.94,0,0,0,1.22,1.85q25.92,16.47,51.83,33.06a1.86,1.86,0,0,0,.6.26,1.38,1.38,0,0,0,1.24-.32,2.36,2.36,0,0,0,.65-2.1L632.85,544.63A2.74,2.74,0,0,0,630.87,542.14Zm-36.58,69.21c5.23-8.17,21.58-34.88,23-51.7.8-9.72,6.68-12.9,12.1-12.75q5.64,47,11.29,94Q617.47,626.12,594.29,611.35Z"/>
    <path d="M631,544.6q.42,45.75.85,91.5,19.46-3.71,38.91-7.46s-22.58-43-24.15-62.85C645.65,554.18,638.38,546.67,631,544.6Z"/>
    <path d="M648.47,566c-1.05-13.37-9.51-21.57-17.42-23.77a1.5,1.5,0,0,0-1.42.37,2.33,2.33,0,0,0-.59,1.66q.42,45.75.85,91.5a3.37,3.37,0,0,0,.79,2.13,2.16,2.16,0,0,0,1.12.71,1.68,1.68,0,0,0,.59,0q19.46-3.7,38.91-7.46a1.69,1.69,0,0,0,1.25-1.33,3.28,3.28,0,0,0-.3-2.28C672,627.08,650,584.92,648.47,566Zm-14.78,67.22q-.41-42.7-.79-85.42c5.32,2.3,11,8,11.76,17.87,1.38,17.4,17.66,50.69,22.93,61.06Q650.64,630,633.69,633.17Z"/>
    <path d="M591,614.18c9.5,20.14,23.88,34.81,40,38.32,17.47,3.81,30.58-2.16,40-21,0,0-17.45-25.69-39.48-30.51S591,614.18,591,614.18Z" style="fill: #1f8fc9"/>
    <path d="M631.44,600c-22.08-4.82-40.79,13.14-41,13.32l-.48.47c.12.26.25.52.37.77,10,21.27,24.83,35.45,40.61,38.89,18.46,4,31.37-2.75,40.63-21.32l.29-.6-.42-.62C671.28,630.69,653.53,604.86,631.44,600ZM631,651.52c-15.06-3.28-29.23-16.74-39-37,3-2.74,19.93-16.83,39.44-12.57s35.7,25.62,38.51,29.51C661,649,648.61,655.38,631,651.52Z"/>
    <path d="M631,550.15c-3.21-.7-10.59,5.6-13,8.13s-1.21,14.34-1.21,18.1,4.33,6.42,5.54,8.21-1,27.47-1,27.47,8,14,9.71,14.4,9.71-10.17,9.71-10.17-2.25-26.66-1-27.92,5.54-2,5.54-5.81,1.2-15-1.21-18.62S634.17,550.85,631,550.15Z" style="fill: #fae2cc"/>
    <path d="M631,548.35c-4.62-1-13.9,8.33-14,8.43-2.18,2.28-2.06,9-1.73,16.18.06,1.27.11,2.36.11,3.11,0,3.7,2.76,6.37,4.59,8.14.45.44.92.9,1.2,1.23.4,2.54-.32,15.06-1.29,26.12l-.06.75.38.67c8.47,14.77,10.22,15.15,10.79,15.28s2.32.5,10.79-10.58l.38-.5-.06-.78c-1-11.48-1.7-24.31-1.29-26.68a10.7,10.7,0,0,1,1.2-.7c1.83-1,4.59-2.45,4.59-6.15,0-.75,0-1.82.1-3.07.34-7.07.46-13.69-1.72-16.92C644.85,562.74,635.58,549.35,631,548.35ZM643.86,579c-.06,1.34-.11,2.48-.11,3.29,0,1.64-1.78,2.58-3.2,3.34a7.89,7.89,0,0,0-1.92,1.27c-.5.52-1.67,1.75.57,28.53-3.13,4.05-6.91,8.38-8.24,9.14-1.33-1.34-5.11-7.32-8.24-12.73,2.23-25.81,1.07-27.54.57-28.29a13.82,13.82,0,0,0-1.92-2.1c-1.43-1.38-3.2-3.1-3.2-4.74,0-.8,0-2-.11-3.32-.18-3.92-.56-12.06.9-13.59,3.28-3.44,9.75-8.31,12-7.82s8.72,8.19,12,13.06C644.42,567.16,644,575.14,643.86,579Z"/>
    <path d="M630.85,547.39h-.06C631.22,547.48,631.28,547.49,630.85,547.39Z" style="fill: #f9bd57"/>
    <path d="M630.79,547.38h-.06C630.3,547.27,630.36,547.29,630.79,547.38Z" style="fill: #f9bd57"/>
    <path d="M630.73,547.37h0Z" style="fill: #f9bd57"/>
    <path d="M635.21,511.77c-3.6-.79,1-11.32-4.42-12.5s-.82,11.36-4.43,10.57-15.54-.15-15.54,12.29,5.64,20.22,7.87,21.7c1.78,1.18,10.08,3.1,12,3.54h.12c2,.42,10.26,2.12,12,1.72,2.23-.51,7.87-5.84,7.87-18.28S638.82,512.56,635.21,511.77Z" style="fill: #f9bd57"/>
    <path d="M635.25,510.06a12.38,12.38,0,0,1-.18-3.2c0-2.45.06-5.23-1.3-7.31s-4.5-2.88-6-1.3-1.33,4.28-1.3,6.74a12.68,12.68,0,0,1-.15,3.05c-5.31-1.16-17,.71-17,13.79,0,13.29,6.06,21.77,8.82,23.6.08.06,8.43,3.08,12.21,3.6l.7.23v-.07c3.81,1.13,12.12,1.74,12.21,1.72,2.76-.63,8.82-6.48,8.82-19.77C652.17,518.06,640.62,511.33,635.25,510.06Zm7.17,37.24c-1.31.3-8.33-1-11.28-1.64h0l-.35-.08-.35-.08h0c-3-.66-10-2.41-11.28-3.28-1.78-1.18-6.93-8.33-6.93-19.79s11.81-11.31,14.13-10.8a2,2,0,0,0,2-.57c1-1.12,1-3.26,1-5.52,0-1.67-.05-3.75.49-4.33.07-.08.27-.3,1-.15a1.44,1.44,0,0,1,1,.57c.54.82.51,2.88.48,4.54,0,2.25,0,4.38,1,5.95a3.26,3.26,0,0,0,2,1.44c2.33.51,14.14,5.49,14.14,16.95S644.2,546.9,642.42,547.3Z"/>
    <path d="M630.79,499.27c-5.38-1.17-.82,11.35-4.43,10.57a11.14,11.14,0,0,0-2.08-.22c.93,5.39,3.48,9.69,6.51,10.35s5.57-2.53,6.51-7.51a12.82,12.82,0,0,0-2.09-.69C631.61,511,636.16,500.44,630.79,499.27Z" style="fill: #d09a49"/>
    <path d="M635.25,510.06l0-.09h0Z"/>
    <path d="M635.22,510l0,.09,0-.09h0a14.39,14.39,0,0,1-.15-3.11c0-2.46.06-5.24-1.3-7.31-1.47-2.23-4.51-2.88-6-1.3s-1.33,4.28-1.3,6.74a12.68,12.68,0,0,1-.15,3.05,12.4,12.4,0,0,0-2.3-.24l-1.5,0c.11.65.23,1.31.34,2,1.12,6.42,4.29,11.26,7.89,12s6.76-2.67,7.88-8.6c.12-.61.23-1.21.34-1.82l-1.5-.62A15.09,15.09,0,0,0,635.22,510Zm-4.43,8.2c-1.91-.42-3.68-3-4.68-6.58a2.07,2.07,0,0,0,2.24-.52c1-1.12,1-3.26,1-5.52,0-1.67-.05-3.75.49-4.34.06-.07.27-.29,1-.14a1.41,1.41,0,0,1,1,.57c.54.81.51,2.88.48,4.54,0,2.25,0,4.38,1,5.95a3.3,3.3,0,0,0,2.24,1.5C634.47,516.81,632.7,518.59,630.79,518.17Z"/>
    <path d="M635.25,510.06a12.38,12.38,0,0,1-.18-3.2c0-2.45.06-5.23-1.3-7.31s-4.5-2.88-6-1.3-1.33,4.28-1.3,6.74a12.68,12.68,0,0,1-.15,3.05c-5.31-1.16-17,.71-17,13.79,0,13.29,6.06,21.77,8.82,23.6.08.06,8.43,3.08,12.21,3.6l.7.23v-.07c3.81,1.13,12.12,1.74,12.21,1.72,2.76-.63,8.82-6.48,8.82-19.77C652.17,518.06,640.62,511.33,635.25,510.06Zm7.17,37.24c-1.31.3-8.33-1-11.28-1.64h0l-.35-.08-.35-.08h0c-3-.66-10-2.41-11.28-3.28-1.78-1.18-6.93-8.33-6.93-19.79s11.81-11.31,14.13-10.8a2,2,0,0,0,2-.57c1-1.12,1-3.26,1-5.52,0-1.67-.05-3.75.49-4.33.07-.08.27-.3,1-.15a1.44,1.44,0,0,1,1,.57c.54.82.51,2.88.48,4.54,0,2.25,0,4.38,1,5.95a3.26,3.26,0,0,0,2,1.44c2.33.51,14.14,5.49,14.14,16.95S644.2,546.9,642.42,547.3Z"/>
    <path d="M745.91,487.56c-3,2.95-1.37,9.37.9,10.52l9.9-20.42Z" style="fill: #fbe3cc"/>
    <path d="M756.5,478.09c4.86-3.8-1.79-17.24-6.14-13.52,4.09-3.45-1.62-15.08-6.25-11.86,1.69-6.57.22-10.16-5.94-11.6q-11.56,9.39-23.12,18.67c-4.62,6.34-8,25.7-12.76,32.12q10.26,15,20.51,29.9,12-11.62,24.1-23.37c1.69,2.21,4.12,2.84,5.92.94l9.13-9C765.14,486,759.9,475,756.5,478.09Zm-9.69,20c-2.27-1.15-3.88-7.57-.9-10.52l10.8-9.9Z" style="fill: #fbe3cc"/>
    <path d="M759.39,476.29a10.46,10.46,0,0,0,.16-3.4c-.41-3.95-2.6-8.1-5.19-9.89a5.55,5.55,0,0,0-1.25-.65,12.94,12.94,0,0,0-1.56-7.24c-1.5-2.83-3.49-4.47-5.49-4.74a10.74,10.74,0,0,0-.85-6.27c-1.23-2.44-3.45-4-7-4.78l-.52-.12q-11.87,9.68-23.74,19.23c-2.44,3.35-4.43,9.67-6.54,16.36-2,6.25-4,12.71-6.22,15.74l-.82,1.11q11.19,16.35,22.38,32.64,12.13-11.7,24.25-23.52c2.21,2,4.85,2.13,6.76.12q4.63-4.58,9.26-9.18c2.39-3.24,1.24-9.4-1.35-13.13A7.71,7.71,0,0,0,759.39,476.29ZM743.1,494.12a10.6,10.6,0,0,0,1.6,4q-10.94,10.67-21.87,21.2-9.33-13.59-18.68-27.24c2.18-3.65,4.08-9.66,5.91-15.49,1.93-6.15,3.93-12.5,5.86-15.22q11.36-9.12,22.71-18.35c2.23.59,3.67,1.51,4.28,2.72s.59,3.34-.15,6.17l-1.23,4.78,3.39-2.36c1.64-1.15,3.38.63,4.37,2.51s1.74,4.82.2,6.14l0,0c.59,1,1.18,2.09,1.78,3.13l0,0a1.53,1.53,0,0,1,2.05,0c1.62,1.12,3.16,4.13,3.43,6.7a4.07,4.07,0,0,1-.86,3.43l-.1-.16q-5.41,5-10.83,9.93C743.16,487.84,742.47,490.85,743.1,494.12ZM761,488.85l-9.15,9c-1.35,1.42-3,.69-4-.65l-1-1.24-.08.08a5.44,5.44,0,0,1-1-2.34c-.14-.73-.47-3.18,1-4.65l10.44-9.57a1.09,1.09,0,0,0,.08.15l.17-.14c.74-.5,1.58.37,2.18,1.23C761.16,482.89,762.31,487,761,488.85Z"/>
    <path d="M737.47,478c3-2.18,13.24-11.27,13.67-11.67-.6-1-1.21-2.06-1.81-3.1-.11.11-10.64,9.42-13.52,11.53-4.28,3.14-4,8.09-2.27,11.67,1.48,3.11,4.26,5.76,6.91,6.27a4.11,4.11,0,0,0,2.95-.48c.13-.07.87-.72,1.62-1.4s1.25-1.14,1.43-1.28l-.64-1.35.87,1.17.92-1.15-.92-1.38c-.95-1.41-1.54-.87-3.5.91l-1.26,1.14c-1.63,1-4.62-1-6-4C735,483,734.49,480.21,737.47,478Zm8.16,9.94-1-1.39Z"/>
    <path d="M729.84,462.62c-2.81,1.24-5,.67-6-1.57s-.66-6.14,1.4-7.69l-1.69-3.23c-3.07,2.32-4,8-2.11,12.33a7.12,7.12,0,0,0,4.85,4.27,8.18,8.18,0,0,0,5-.8q6.81-5.69,13.61-11.41l-1.77-3.14Q736.53,457,729.84,462.62Z"/>
    <path d="M719.75,456.09l4.62,20.68C755.27,475.11,752.32,458.81,719.75,456.09Z" style="fill: #fbe3cc"/>
    <path d="M719.62,454.27l.25,3.64c18,1.57,24.4,6.89,24.66,9.28.27,2.56-5,7-20.43,7.76l.54,3.65c14.88-.74,23.36-5.07,22.68-11.38C746.6,460.57,736,455.71,719.62,454.27Z"/>
    <path d="M488.87,396.38q15.84,2.72,31.67,5.72l1.5-73.8q-16.86-3.46-33.71-6.63Z"/>
    <path d="M484.69,401.05q20,3.38,40,7.21l1.71-84.46q-21.14-4.38-42.28-8.3Q484.38,358.27,484.69,401.05Zm33-68.25q-.63,31.57-1.27,63.14-11.7-2.19-23.4-4.23l-.45-63.85Q505.15,330.25,517.71,332.8Z"/>
    <path d="M521.05,321.74l-9.64-1.84q-.33-5.32-.67-10.65l-10.73-2c-.16,3.39-.31,6.79-.47,10.18-3.4-.53-6.8-1-10.2-1.55,0-3.51,0-7-.07-10.54l-9.91-1.71v25.8l3.75.64-3.75,66.75q10.2,1.73,20.41,3.58c-1.25-24.38,10.55-25.59,10.39,1.91q10.83,2,21.66,4.16L526.39,338l5.43,1.06V313.3q-5.18-1-10.34-2C521.34,314.77,521.19,318.25,521.05,321.74Z" style="fill: #f9bd56"/>
    <path d="M533.23,341.18v-29.4l-13.09-2.55q-.21,5.22-.43,10.45l-7-1.33q-.33-5.34-.67-10.66-6.67-1.26-13.36-2.46l-.47,10.21-7.47-1.13c0-3.51-.05-7-.07-10.51q-6.36-1.11-12.72-2.18V331l3.64.61-3.75,66.76q11.73,2,23.44,4.1c0-.64-.07-1.29-.1-1.94-.51-9.82,1.2-15.51,3-16.64a.87.87,0,0,1,1.18.13c1.29,1.16,3.46,6.25,3.39,18,0,.61,0,1.21,0,1.81q12.32,2.29,24.64,4.74-2.71-34.23-5.42-68.46Zm-3,63.2q-9.35-1.83-18.69-3.59c-.13-9.88-1.87-17-4.84-19.65a3.19,3.19,0,0,0-4.05-.55c-3,1.87-4.61,8.59-4.38,17.76q-8.71-1.58-17.42-3.05l3.75-66.75-3.85-.66v-22.2l7.1,1.22c0,3.53.05,7.06.08,10.59q6.46.94,12.92,2c.16-3.38.31-6.76.47-10.15l8.1,1.5c.22,3.55.45,7.1.67,10.65q6.14,1.16,12.28,2.33l.43-10.44,7.59,1.48V337l-5.58-1.09Q527.54,370.16,530.25,404.38Z"/>
    <path d="M567.63,412.24q15.9,3,31.8,6.15l1.5-73q-16.86-3.86-33.73-7.61Z"/>
    <path d="M563.47,416.81q20,3.78,40,7.75L605.23,341q-21.12-4.84-42.25-9.53Q563.22,374.15,563.47,416.81Zm33.16-67Q596,381,595.35,412.23q-11.79-2.3-23.56-4.56l-.36-63.59Q584,346.89,596.63,349.77Z"/>
    <path d="M599.93,338l-9.64-2.08q-.33-5.32-.67-10.67L578.89,323c-.16,3.39-.31,6.78-.47,10.16l-10.2-1.88c0-3.52-.05-7-.07-10.55l-9.91-2.06v25.79l3.75.78-3.75,66.61q10.2,2.12,20.41,4.28c-1.25-24.4,10.55-25.26,10.39,2.22L610.7,423l-5.43-68.57,5.43,1.18v-25.8l-10.34-2.24C600.22,331.06,600.07,334.54,599.93,338Z" style="fill: #f9bd56"/>
    <path d="M612.11,357.73v-29.4L599,325.49q-.21,5.22-.43,10.44l-7-1.51c-.22-3.56-.44-7.11-.67-10.67l-13.36-2.86-.47,10.2-7.47-1.38c0-3.5,0-7-.07-10.51l-12.72-2.65V346l3.64.76-3.75,66.61q11.71,2.42,23.44,4.92c0-.65-.07-1.3-.1-1.94-.51-9.84,1.2-15.48,3-16.56a.89.89,0,0,1,1.18.17c1.29,1.19,3.46,6.35,3.39,18.11,0,.6,0,1.21,0,1.81q12.32,2.64,24.64,5.32-2.71-34.27-5.42-68.56Zm-3,63.14-18.69-4c-.13-9.88-1.87-17-4.84-19.78a3.22,3.22,0,0,0-4.05-.67c-3,1.78-4.61,8.45-4.38,17.62q-8.71-1.85-17.42-3.65l3.75-66.61-3.85-.81V320.74l7.1,1.48c0,3.53,0,7,.07,10.58l12.93,2.39c.16-3.37.31-6.75.47-10.13l8.1,1.73c.22,3.56.45,7.12.67,10.68l12.28,2.64.43-10.44,7.59,1.65v22.19l-5.58-1.2Q606.42,386.59,609.13,420.87Z"/>
    <path d="M488.74,517.85q15.92,2.46,31.82,5.22l1.5-72.4q-16.87-3.46-33.75-6.63Q488.54,481,488.74,517.85Z"/>
    <path d="M484.6,522.55q20,3,40,6.56.87-41.44,1.72-82.89-21.12-4.38-42.24-8.29Q484.35,480.23,484.6,522.55Zm33.17-67.42q-.64,31-1.28,61.9-11.81-2-23.6-3.87-.19-31.5-.37-63Q505.15,452.57,517.77,455.13Z"/>
    <path d="M521.05,442.66l-9.64-1.83q-.33-5.32-.67-10.65l-10.73-2c-.16,3.39-.31,6.79-.47,10.18-3.4-.53-6.8-1-10.2-1.55,0-3.52,0-7-.07-10.54l-9.91-1.71v25.8l3.75.64-3.75,66.75q10.2,1.72,20.41,3.57c-1.25-24.37,10.55-25.58,10.39,1.92q10.83,2,21.66,4.16L526.39,459l5.43,1.06v-25.8q-5.18-1-10.34-2C521.34,435.7,521.19,439.18,521.05,442.66Z" style="fill: #f9bd56"/>
    <path d="M533.23,462.11v-29.4l-13.09-2.55q-.21,5.22-.43,10.45l-7-1.33q-.33-5.34-.67-10.66-6.67-1.26-13.36-2.46l-.47,10.21-7.47-1.13c0-3.51-.05-7-.07-10.51q-6.36-1.11-12.72-2.19v29.4l3.64.62-3.75,66.75q11.73,2,23.44,4.11c0-.65-.07-1.3-.1-1.94-.51-9.82,1.2-15.51,3-16.65a.89.89,0,0,1,1.18.14c1.29,1.16,3.46,6.25,3.39,18,0,.6,0,1.21,0,1.81q12.32,2.3,24.64,4.73-2.71-34.23-5.42-68.45Zm-3,63.2q-9.35-1.84-18.69-3.6c-.13-9.88-1.87-17-4.84-19.64a3.19,3.19,0,0,0-4.05-.55c-3,1.86-4.61,8.59-4.38,17.75q-8.71-1.56-17.42-3l3.75-66.74c-1.28-.23-2.57-.45-3.85-.66v-22.2l7.1,1.22c0,3.53.05,7.06.08,10.59q6.46.94,12.92,2c.16-3.38.31-6.77.47-10.15l8.1,1.5c.22,3.55.45,7.1.67,10.65q6.14,1.16,12.28,2.33l.43-10.44,7.59,1.47V458l-5.58-1.09Q527.54,491.08,530.25,525.31Z"/>
    <g>
      <g>
        <path d="M538.5,651.25a11,11,0,0,0,4.6,8.9q-1.7,38.07-3.38,76.14c7.32.93,22.4-1.28,26.54,7.1q-10.32-45.24-20.65-90.4Z"/>
        <path d="M536.68,648.5c0,.81,0,1.61,0,2.42a13.63,13.63,0,0,0,4.53,10.21q-1.71,38.61-3.41,77.22l2,.26c1.81.23,4,.27,6.43.32,6.75.14,16,.37,18.53,5.48l6.5,13.14Q559.13,704.24,547,651,541.82,649.74,536.68,648.5Zm9.07,85.78c-1.46,0-2.86-.06-4.11-.13q1.67-37.53,3.32-75l-1.09-.89a9,9,0,0,1-3.17-4.13l3.56.87q9.42,41.2,18.85,82.47C558.31,734.56,551.53,734.4,545.75,734.28Z"/>
      </g>
      <g>
        <path d="M528.21,649.21l-8.33-1.61q-10.2,39.17-20.4,78.44c3.8-8.5,18.57,5.79,25.69,7.81q-1.39-38.26-2.78-76.55C525,656.21,527.43,652.82,528.21,649.21Z"/>
        <path d="M497.77,725l3.3,2.38c1.86-4.16,8.77.1,14.86,3.9,3.39,2.11,6.59,4.11,9.12,4.82l2,.56L524.24,659a14.19,14.19,0,0,0,5.71-8.83l.6-2.77q-6-1.17-12-2.32Q508.17,685,497.77,725Zm27.73-74a8.61,8.61,0,0,1-3.88,4.09l-1.09.45q1.37,37.62,2.74,75.26c-1.8-.88-3.95-2.22-6.18-3.61-4.14-2.57-8.58-5.33-12.28-6a8.53,8.53,0,0,0-2.05-.14q9.23-35.49,18.43-70.87Z"/>
      </g>
      <g>
        <g>
          <path d="M552,683.18c-3.65-5.83-7.61-6.66-10.53-8-1-3-1-1.76-.66-5.46,18.37-35.18-32.06-45.41-15.19-3.76.22,1.93-.18,4.86-.67,5.15q-5.36,1.62-10.69,3.26c-9.09,11.52-14.41,36.39-19.87,52.34q3.49,5.7,7,11.43,7.65-18.69,15.3-37.32c.07.34.65,5.74,3.53,8.14l1.92,26.18c-4.23,3.82-7.86,8-9,13.37q21.55,4.07,43.12,8.53c-3.29-9-4.57-10-9.12-16.57l-.3-26.68c2.17-.65,2.72-3.67,3.39-6.53l10.84,20.88q.9,10.11,1.81,20.23l10,2.09c.18-4.73.59-12.53.29-18.92C572.08,728.43,561.87,698.91,552,683.18Z" style="fill: #fbe3cc"/>
          <path d="M574.09,729.94c-9.71-27.22-16.79-41-21-47.76a18.69,18.69,0,0,0-9.84-8.11l-.75-.32-.24-.64a3.48,3.48,0,0,1-.19-.52c0-.17.05-.88.13-1.7l0-.31c7.75-15.06,2.75-24.37.22-27.69-4.7-6.17-12.5-7.82-17.39-3.67-2.6,2.21-7.86,9.25-.75,27a11.82,11.82,0,0,1-.25,3.2l-10.25,3.13-.55.39c-6.86,8.69-11.58,24.63-15.74,38.7-1.51,5.1-2.93,9.91-4.37,14.11l-.33,1,8.94,14.67q7.35-18,14.71-35.87a12.48,12.48,0,0,0,2.44,4.22q.9,12.16,1.79,24.32c-3.78,3.49-7.66,7.85-8.87,13.71l-.45,2.16q23.61,4.42,47.21,9.35l-1-2.82c-2.9-8-4.36-10-7.55-14.51l-1.43-2q-.13-12.41-.28-24.8a6.63,6.63,0,0,0,2.5-3.87l9,17.24,1.92,21.37,12.6,2.64.15-3.69c.2-4.84.47-11.47.21-17.13C574.44,731.12,574.26,730.53,574.09,729.94Zm-2.51,18.12c0,.1,0,.2,0,.3l-7.41-1.55q-.85-9.55-1.72-19.1-6.37-12.3-12.77-24.59c-.3,1.31-.61,2.62-.91,3.93-.65,2.82-1.14,4.56-2.42,4.94l-.9.27q.15,14.34.32,28.68l2.3,3.27A39.56,39.56,0,0,1,554,754.75q-19.41-4-38.81-7.69c1.54-4.2,4.81-7.59,7.92-10.4l.55-.5q-1-14.05-2.06-28.13l-.7-.58c-1.31-1.09-2.29-3.42-2.79-6.85-.33-1.62-.65-3.24-1-4.85q-8,19.5-16,39.08-2.49-4.11-5-8.2c1.35-4,2.68-8.53,4.08-13.27,4-13.62,8.6-29,15-37.34q5.19-1.59,10.37-3.15l.22-.1c1.4-.82,1.52-5.22,1.33-6.84-.06-.21-.11-.43-.17-.64-4.4-10.87-4.43-19.23-.06-22.93,3.81-3.22,10.11-1.9,13.76,2.88,4.24,5.56,3.9,14-.93,23.28l-.27,1.36c-.23,2.27-.27,2.74.36,4.41.13.32.29.75.49,1.36l.3.88.69.33c.49.23,1,.44,1.54.67a15.29,15.29,0,0,1,8.24,6.66c4.11,6.56,11,20,20.57,46.81l.25.7C572,737.08,571.77,743.41,571.58,748.06Z"/>
        </g>
        <g>
          <path d="M550.05,707.94q-6.88.78-13.76,1.61C540.38,718.41,548.17,717.58,550.05,707.94Z" style="fill: #fbe3cc"/>
          <path d="M543.31,713.89c-2.2,0-4.33-1.82-5.83-5.09l-2.37,1.49c1.84,4,4.52,6.55,7.36,7.13a7.37,7.37,0,0,0,1.32.12c3.65-.07,6.57-3.47,7.63-8.9l-2.74-1.4C547.89,711.3,545.83,713.84,543.31,713.89Z"/>
        </g>
        <g>
          <path d="M530.53,708.41q-6.88-3.54-13.76-7C518.65,711.74,526.44,715.65,530.53,708.41Z" style="fill: #fbe3cc"/>
          <path d="M523.51,710c-2.52-1-4.58-4.4-5.37-8.76l-2.74.31c1.06,5.85,4,10.4,7.63,11.91a6.76,6.76,0,0,0,1.31.4c2.85.55,5.53-1,7.37-4.21l-2.37-2.42C527.83,709.87,525.7,710.88,523.51,710Z"/>
        </g>
      </g>
      <g>
        <g>
          <path d="M531.21,597.42q-11,.62-22.05,1.35v9.3l7.59,37.85q15.32,2.67,30.63,5.57,3.32-17.31,6.62-34.6c-.16-3-.33-6.06-.49-9.09Q542.37,602.56,531.21,597.42Z" style="fill: #ffc65a"/>
          <path d="M531.21,595.58q-11.73.66-23.46,1.45v10.78l7.92,39.72q16.43,2.87,32.83,6,3.46-18.09,6.92-36.17l-.58-10.75Q543,601,531.21,595.58Zm15,53.9q-14.21-2.67-28.43-5.18l-7.26-36.21v-7.58q10.32-.68,20.63-1.26,10.49,4.85,21,9.76.2,3.72.4,7.44Q549.42,633,546.26,649.48Z"/>
        </g>
        <g>
          <path d="M516.87,646.63q15.28,2.82,30.59,5.85l1.26-7.94q-16.79-3.52-33.57-6.83C515.72,640.68,516.3,643.66,516.87,646.63Z" style="fill: #ffc65a"/>
          <path d="M515.77,648.23q16.43,3,32.85,6.28.92-5.71,1.81-11.42-18.54-3.9-37.1-7.54Q514.56,641.9,515.77,648.23ZM547,646c-.24,1.49-.47,3-.71,4.46Q532.13,647.65,518,645l-1-5.16Q532,642.83,547,646Z"/>
        </g>
        <g>
          <path d="M516.9,598.89l-.21,11.84" style="fill: #fbe3cc"/>
          <path d="M514.89,610.33l3.6.79.21-11.83-3.6-.8Z"/>
        </g>
        <g>
          <path d="M546.59,605c-.09,3.62-.17,7.23-.25,10.85" style="fill: #fbe3cc"/>
          <path d="M544.54,615.45l3.6.87.25-10.86-3.6-.86Z"/>
        </g>
        <g>
          <path d="M539,601.48v11.44" style="fill: #fbe3cc"/>
          <path d="M537.22,612.56l3.6.72V601.84l-3.6-.72Z"/>
        </g>
        <g>
          <path d="M524.24,598.57c0,3.91-.07,7.82-.11,11.72" style="fill: #fbe3cc"/>
          <path d="M522.33,609.92l3.6.75.11-11.73-3.6-.75Z"/>
        </g>
      </g>
    </g>
    <g>
      <g>
        <path d="M512.26,747.1q-9.5,16.18-19,32.45c19.44,28.18,57.66,36.4,85.11,20.66q-11.68-23.52-23.39-47C540.93,756,525.94,754.91,512.26,747.1Z" style="fill: #f9bd56"/>
        <path d="M554.57,751.44c-15.26,3-29.75,1-41.9-6l-1-.57q-10.11,17.22-20.22,34.56l.83,1.2a68.22,68.22,0,0,0,43,27.93c14.85,2.95,30.51,1,43.86-6.68l1.28-.73q-12.42-25-24.85-49.93ZM495.1,779.63q8.88-15.2,17.76-30.32c12.22,6.66,26.55,8.69,41.57,5.92q11,22,21.92,44C549.42,813.77,513.58,805.14,495.1,779.63Z"/>
      </g>
      <g>
        <path d="M507.05,775.48l-6.78,12" style="fill: #f9bd56"/>
        <path d="M498.77,785.94c1,1,2,2,3,3.07l6.78-12-3-3.07Z"/>
      </g>
      <g>
        <path d="M513.21,781.44q-2.6,6.27-5.17,12.54" style="fill: #f9bd56"/>
        <path d="M506.42,792.67l3.23,2.62q2.6-6.27,5.18-12.53l-3.24-2.63Z"/>
      </g>
      <g>
        <path d="M519,785.7q-1.71,6.9-3.41,13.81" style="fill: #f9bd56"/>
        <path d="M513.89,798.52l3.45,2q1.71-6.91,3.41-13.82l-3.45-2Q515.61,791.61,513.89,798.52Z"/>
      </g>
      <g>
        <path d="M525.58,788.55l-1.68,15.06" style="fill: #f9bd56"/>
        <path d="M522.11,802.94l3.57,1.33,1.68-15.06-3.57-1.33Z"/>
      </g>
      <g>
        <path d="M532,790.24q0,7.89,0,15.77" style="fill: #f9bd56"/>
        <path d="M530.15,805.65l3.6.73q0-7.89,0-15.77l-3.6-.73Q530.16,797.77,530.15,805.65Z"/>
      </g>
      <g>
        <path d="M538.38,791.7q.24,7.62.5,15.25" style="fill: #f9bd56"/>
        <path d="M536.58,791.44q.25,7.62.5,15.25l3.59.52q-.24-7.62-.49-15.25Z"/>
      </g>
      <g>
        <path d="M547.14,807.71q-1.3-7.79-2.6-15.58" style="fill: #f9bd56"/>
        <path d="M542.78,792.27q1.31,7.79,2.6,15.58l3.51-.27q-1.29-7.8-2.59-15.59Z"/>
      </g>
      <g>
        <path d="M551.37,791.46l4.2,16" style="fill: #f9bd56"/>
        <path d="M549.68,791.88q2.09,8,4.19,16l3.39-.84q-2.09-8-4.19-16Z"/>
      </g>
      <g>
        <path d="M558.32,789.43,564,806" style="fill: #f9bd56"/>
        <path d="M556.69,790.07l5.64,16.56,3.26-1.27L560,788.8Z"/>
      </g>
      <g>
        <path d="M565.21,786.92l5.94,16.33" style="fill: #f9bd56"/>
        <path d="M563.61,787.61q3,8.17,5.93,16.33l3.21-1.39q-3-8.16-5.93-16.33Z"/>
      </g>
    </g>
    <g>
      <path d="M565.9,767.38c-4.6-.8-.77,7.53-.77,7.53C568,772.1,568.39,768.31,565.9,767.38Z" style="fill: #1d7b4c"/>
      <path d="M566,766.49l-.11,0a2.18,2.18,0,0,0-2.67,1.17c-1.06,2.36,1.07,7.12,1.32,7.66l.47,1,.62-.61c2-2,3-4.6,2.52-6.66A3.45,3.45,0,0,0,566,766.49Zm-.71,7c-.59-1.57-1.21-3.76-.79-4.69.19-.41.65-.57,1.37-.45a1.37,1.37,0,0,1,.91,1A5.29,5.29,0,0,1,565.28,773.44Z"/>
    </g>
    <g>
      <g>
        <path d="M568.09,758.83c-1.34-.28-2.42.87-2.42,2.57v0a3.61,3.61,0,0,0,2.44,3.57c1.34.28,2.42-.87,2.42-2.57v0A3.61,3.61,0,0,0,568.09,758.83Z" style="fill: #ea5c9f"/>
        <path d="M568.09,757.44h0c-1.93-.39-3.5,1.29-3.49,3.76s1.58,4.77,3.51,5.17h0a2.55,2.55,0,0,0,2.49-.8,4.27,4.27,0,0,0,1-2.93l-1.08-.22,1.08.2C571.6,760.17,570,757.85,568.09,757.44Zm1.36,4.76a1.59,1.59,0,0,1-.39,1.1,1,1,0,0,1-.95.32h0a2,2,0,0,1-1.35-2c0-.93.6-1.57,1.34-1.42h0a2,2,0,0,1,1.35,2Z"/>
      </g>
      <g>
        <path d="M569.27,764.1c-1.34-.28-2.43.88-2.42,2.57v0a3.61,3.61,0,0,0,2.44,3.57c1.34.27,2.42-.88,2.41-2.58v0A3.59,3.59,0,0,0,569.27,764.1Z" style="fill: #ea5c9f"/>
        <path d="M569.27,762.72h0c-1.93-.4-3.5,1.28-3.49,3.76s1.58,4.76,3.51,5.17h0c1.93.39,3.5-1.28,3.49-3.74l-1.08-.22,1.08.2C572.78,765.44,571.2,763.12,569.27,762.72Zm1.35,4.75c0,.93-.6,1.57-1.34,1.42h0a2,2,0,0,1-1.35-2c0-.93.6-1.56,1.34-1.41h0a2,2,0,0,1,1.35,2Z"/>
      </g>
      <g>
        <g>
          <path d="M560.59,762.66c-1.35-.27-2.43.88-2.42,2.58v0a3.6,3.6,0,0,0,2.43,3.57c1.34.27,2.43-.89,2.42-2.58v0A3.59,3.59,0,0,0,560.59,762.66Z" style="fill: #ea5c9f"/>
          <path d="M560.59,761.28h0c-1.93-.39-3.5,1.29-3.49,3.76s1.58,4.77,3.51,5.17h0c1.93.39,3.5-1.29,3.49-3.74v0C564.09,764,562.52,761.68,560.59,761.28Zm1.35,4.74c0,.94-.6,1.58-1.34,1.43h0a2,2,0,0,1-1.35-2c0-.93.6-1.57,1.34-1.42h0a2,2,0,0,1,1.35,2Z"/>
        </g>
        <g>
          <g>
            <path d="M573.09,744.67c1.1,3.1,3.88,2,5.53-2.17C578.62,742.5,571.76,738.82,573.09,744.67Z" style="fill: #1d7b4c"/>
            <path d="M572.84,741.15c-.46.52-.91,1.57-.43,3.64l0,.15a3.31,3.31,0,0,0,2.21,2.39h0c1.62.32,3.42-1.37,4.59-4.31l.37-.93-.84-.45C578.36,741.4,574.42,739.37,572.84,741.15Zm1.83,4.34c-.14,0-.57-.11-.9-1s-.16-1.51.11-1.83c.62-.7,2.37-.24,3.66.29C576.55,744.88,575.4,745.64,574.67,745.49Z"/>
          </g>
          <g>
            <path d="M560.25,739.32c1.65,4.85,4.43,7.13,5.52,4.49C567.11,738.52,560.25,739.31,560.25,739.32Z" style="fill: #1d7b4c"/>
            <path d="M560.07,738.39l-.84.1.36,1.08c1.18,3.44,3,5.89,4.6,6.24h0c.95.2,1.74-.32,2.21-1.46l0-.13a4.69,4.69,0,0,0-.43-3.82C564.45,738,560.51,738.33,560.07,738.39Zm5,4.93c-.34.77-.72.7-.9.65-.73-.16-1.89-1.4-2.87-3.77,1.28,0,3,.29,3.66,1.25A2.43,2.43,0,0,1,565.1,743.32Z"/>
          </g>
          <g>
            <path d="M558.11,747.53c1.66,4.85,4.44,7.13,5.53,4.49C565,746.73,558.11,747.53,558.11,747.53Z" style="fill: #1d7b4c"/>
            <path d="M557.94,746.61l-.85.09c.13.37.25.73.37,1.09,1.17,3.43,3,5.88,4.6,6.23h0c1,.2,1.74-.32,2.22-1.46l0-.13a4.73,4.73,0,0,0-.43-3.82C562.32,746.17,558.38,746.55,557.94,746.61Zm5,4.93c-.34.76-.76.68-.9.64-.74-.16-1.89-1.4-2.87-3.76,1.28,0,3,.29,3.65,1.25A2.41,2.41,0,0,1,563,751.54Z"/>
          </g>
          <g>
            <path d="M554.29,758.37c1.65,4.86,4.43,7.13,5.52,4.49C561.15,757.56,554.29,758.37,554.29,758.37Z" style="fill: #1d7b4c"/>
            <path d="M554.11,757.45l-.84.1c.12.36.24.72.37,1.08,1.17,3.43,3,5.88,4.59,6.23h0c1,.2,1.74-.32,2.21-1.47l0-.12a4.68,4.68,0,0,0-.43-3.82C558.48,757,554.55,757.39,554.11,757.45Zm5,4.93c-.34.77-.76.65-.9.64-.74-.16-1.89-1.4-2.87-3.76,1.28,0,3,.28,3.66,1.24A2.44,2.44,0,0,1,559.14,762.38Z"/>
          </g>
          <g>
            <path d="M576.65,767.5c-4.6-.82-.77,7.53-.77,7.53C578.74,772.22,579.14,768.44,576.65,767.5Z" style="fill: #1d7b4c"/>
            <path d="M576.74,766.61l-.11,0a2.17,2.17,0,0,0-2.67,1.16c-1.06,2.35,1.07,7.12,1.32,7.66l.47,1,.62-.62c2-2,3-4.59,2.52-6.65A3.47,3.47,0,0,0,576.74,766.61Zm-.71,6.94c-.59-1.57-1.21-3.77-.79-4.69.18-.41.64-.56,1.37-.45a1.38,1.38,0,0,1,.91,1A5.26,5.26,0,0,1,576,773.55Z"/>
          </g>
          <g>
            <path d="M578.59,765.68c1.1,3.1,3.87,2,5.53-2.16C584.12,763.52,577.26,759.83,578.59,765.68Z" style="fill: #1d7b4c"/>
            <path d="M578.34,762.17c-.46.52-.91,1.57-.44,3.63l.05.15a3.29,3.29,0,0,0,2.21,2.39h0c1.62.33,3.42-1.36,4.59-4.3l.37-.93-.84-.45C583.85,762.42,579.92,760.38,578.34,762.17Zm1.83,4.34c-.15,0-.57-.12-.91-1-.19-.9-.15-1.51.12-1.82.62-.69,2.38-.23,3.65.29C582.05,765.9,580.9,766.66,580.17,766.51Z"/>
          </g>
          <g>
            <path d="M574.62,752.74c1.09,3.1,3.87,2,5.53-2.17C580.15,750.57,573.29,746.89,574.62,752.74Z" style="fill: #1d7b4c"/>
            <path d="M574.37,749.22c-.46.52-.91,1.57-.44,3.65l0,.14a3.33,3.33,0,0,0,2.21,2.39h0c1.62.32,3.43-1.36,4.6-4.31.12-.31.24-.62.37-.93l-.85-.45C579.88,749.48,575.94,747.44,574.37,749.22Zm1.82,4.34c-.13,0-.56-.11-.9-1s-.16-1.51.12-1.82c.61-.7,2.37-.23,3.65.28C578.08,753,576.93,753.72,576.19,753.56Z"/>
          </g>
          <g>
            <path d="M579.79,766c-1.34-.28-2.43.87-2.42,2.57v0a3.62,3.62,0,0,0,2.44,3.58c1.34.28,2.42-.87,2.42-2.57v0A3.64,3.64,0,0,0,579.79,766Z" style="fill: #ea5c9f"/>
            <path d="M579.8,764.67h0a2.54,2.54,0,0,0-2.47.79,4.27,4.27,0,0,0-1,3c0,2.45,1.58,4.77,3.51,5.18h0c1.94.4,3.5-1.27,3.5-3.72v0C583.3,767.4,581.72,765.07,579.8,764.67Zm1.35,4.75c0,.93-.6,1.57-1.35,1.41h0a2,2,0,0,1-1.35-2,1.64,1.64,0,0,1,.39-1.12,1,1,0,0,1,.95-.3h0a2,2,0,0,1,1.35,2Z"/>
          </g>
          <g>
            <path d="M564.71,762.58c-1.35-.27-2.43.89-2.42,2.58v0a3.59,3.59,0,0,0,2.43,3.56c1.35.28,2.43-.88,2.42-2.57v0A3.61,3.61,0,0,0,564.71,762.58Z" style="fill: #ea5c9f"/>
            <path d="M564.71,761.21h0a2.56,2.56,0,0,0-2.48.8,4.22,4.22,0,0,0-1,3,6,6,0,0,0,1,3.35,4.12,4.12,0,0,0,2.47,1.82h0a2.58,2.58,0,0,0,2.48-.8,4.21,4.21,0,0,0,1-2.93v0C568.21,763.93,566.64,761.61,564.71,761.21Zm1.35,4.74a1.59,1.59,0,0,1-.38,1.11,1,1,0,0,1-1,.31h0a1.61,1.61,0,0,1-1-.7,2.31,2.31,0,0,1-.39-1.29,1.58,1.58,0,0,1,.38-1.1,1,1,0,0,1,1-.32h0a2,2,0,0,1,1.35,2Z"/>
          </g>
        </g>
        <g>
          <path d="M572.8,765.21c-1.34-.27-2.42.88-2.42,2.58v0a3.61,3.61,0,0,0,2.44,3.57c1.34.28,2.42-.87,2.42-2.57v0A3.64,3.64,0,0,0,572.8,765.21Z" style="fill: #ea5c9f"/>
          <path d="M572.8,763.84h0c-1.93-.39-3.5,1.28-3.49,3.76s1.58,4.77,3.51,5.17h0c1.85.37,3.36-1.13,3.49-3.41V769C576.31,766.56,574.74,764.24,572.8,763.84Zm0,6.17h0a2,2,0,0,1-1.35-2c0-.93.6-1.57,1.34-1.42h0a2,2,0,0,1,1.34,1.9v.1C574.16,769.52,573.55,770.16,572.81,770Z"/>
        </g>
        <g>
          <path d="M576.18,762c-1.34-.28-2.42.87-2.42,2.57v0a3.64,3.64,0,0,0,2.44,3.58c1.34.28,2.43-.87,2.42-2.57v0A3.62,3.62,0,0,0,576.18,762Z" style="fill: #ea5c9f"/>
          <path d="M576.19,760.64h0a2.54,2.54,0,0,0-2.47.79,4.23,4.23,0,0,0-1,3,6.1,6.1,0,0,0,1,3.35,4.1,4.1,0,0,0,2.48,1.82h0a2.56,2.56,0,0,0,2.48-.8,4.22,4.22,0,0,0,1-2.93v0C579.69,763.37,578.12,761.05,576.19,760.64Zm1.35,4.75a1.59,1.59,0,0,1-.38,1.11,1.07,1.07,0,0,1-1,.31,1.61,1.61,0,0,1-1-.7,2.37,2.37,0,0,1-.4-1.3,1.61,1.61,0,0,1,.39-1.11,1,1,0,0,1,1-.3h0a2,2,0,0,1,1.35,2Z"/>
        </g>
        <g>
          <path d="M572.5,761.06c-1.34-.28-2.42.87-2.41,2.57v0a3.62,3.62,0,0,0,2.43,3.58c1.34.27,2.43-.88,2.42-2.58v0A3.59,3.59,0,0,0,572.5,761.06Z" style="fill: #ea5c9f"/>
          <path d="M575,761.5a4.12,4.12,0,0,0-2.47-1.82,2.43,2.43,0,0,0-2.5.8,4.21,4.21,0,0,0-1,2.95c0,2.45,1.58,4.77,3.51,5.17h0a2.58,2.58,0,0,0,2.48-.8,4.25,4.25,0,0,0,1-2.93l-1.08-.22,1.08.2A6.07,6.07,0,0,0,575,761.5Zm-1.13,2.93a1.61,1.61,0,0,1-.38,1.11,1,1,0,0,1-1,.31h0a2,2,0,0,1-1.35-2,1.62,1.62,0,0,1,.38-1.11,1,1,0,0,1,1-.3h0a1.61,1.61,0,0,1,1,.7,2.28,2.28,0,0,1,.39,1.26Z"/>
        </g>
        <g>
          <path d="M563.68,757.16c-1.35-.28-2.43.88-2.42,2.58v0a3.6,3.6,0,0,0,2.43,3.57c1.34.27,2.43-.88,2.42-2.58v0A3.59,3.59,0,0,0,563.68,757.16Z" style="fill: #ea5c9f"/>
          <path d="M563.69,755.78h0a2.56,2.56,0,0,0-2.48.8,4.25,4.25,0,0,0-1,3,6,6,0,0,0,1,3.35,4.06,4.06,0,0,0,2.47,1.81h0a2.56,2.56,0,0,0,2.48-.81,4.19,4.19,0,0,0,1-2.93v0a6,6,0,0,0-1-3.35A4.12,4.12,0,0,0,563.69,755.78Zm1.34,4.75a1.61,1.61,0,0,1-.38,1.11,1,1,0,0,1-1,.31h0a1.55,1.55,0,0,1-.95-.69,2.33,2.33,0,0,1-.39-1.29,1.59,1.59,0,0,1,.38-1.11,1,1,0,0,1,1-.31h0a1.61,1.61,0,0,1,.95.7,2.28,2.28,0,0,1,.39,1.26Z"/>
        </g>
        <g>
          <path d="M560.73,754.5c-1.34-.27-2.42.88-2.42,2.58v0a3.62,3.62,0,0,0,2.44,3.57c1.34.27,2.42-.89,2.42-2.58v0A3.61,3.61,0,0,0,560.73,754.5Z" style="fill: #ea5c9f"/>
          <path d="M560.74,753.12h0a2.54,2.54,0,0,0-2.47.8,4.23,4.23,0,0,0-1,3,6.1,6.1,0,0,0,1,3.35,4.05,4.05,0,0,0,2.48,1.81h0a2.57,2.57,0,0,0,2.49-.8,4.3,4.3,0,0,0,1-2.93v0C564.24,755.84,562.67,753.52,560.74,753.12Zm1.35,4.75a1.61,1.61,0,0,1-.38,1.11,1,1,0,0,1-1,.3,1.59,1.59,0,0,1-1-.69,2.33,2.33,0,0,1-.39-1.29,1.59,1.59,0,0,1,.39-1.11,1,1,0,0,1,1-.31h0a2,2,0,0,1,1.35,2Z"/>
        </g>
        <g>
          <path d="M563.09,750.52c-1.34-.27-2.43.88-2.42,2.58v0a3.59,3.59,0,0,0,2.44,3.57c1.34.27,2.42-.88,2.41-2.58v0A3.59,3.59,0,0,0,563.09,750.52Z" style="fill: #ea5c9f"/>
          <path d="M563.09,749.14h0c-1.93-.39-3.5,1.29-3.49,3.76s1.58,4.77,3.51,5.17h0a2.56,2.56,0,0,0,2.48-.81,4.17,4.17,0,0,0,1-2.93l-1.08-.22,1.08.2C566.6,751.86,565,749.54,563.09,749.14Zm1.35,4.75a1.61,1.61,0,0,1-.38,1.11,1,1,0,0,1-1,.31h0a2,2,0,0,1-1.35-2c0-.93.6-1.57,1.34-1.42h0a2,2,0,0,1,1.35,2Z"/>
        </g>
        <g>
          <path d="M566.91,752.06c-1.34-.27-2.42.88-2.42,2.58v0a3.61,3.61,0,0,0,2.44,3.57c1.34.28,2.43-.88,2.42-2.57v0A3.62,3.62,0,0,0,566.91,752.06Z" style="fill: #ea5c9f"/>
          <path d="M566.92,750.68h0c-1.93-.39-3.5,1.29-3.5,3.76s1.58,4.77,3.52,5.17h0c1.93.4,3.5-1.28,3.49-3.73v0C570.42,753.41,568.85,751.09,566.92,750.68Zm1.35,4.75c0,.94-.6,1.58-1.34,1.42h0a2,2,0,0,1-1.35-2c0-.93.61-1.57,1.35-1.42h0a2,2,0,0,1,1.35,2Z"/>
        </g>
        <g>
          <path d="M570.89,755c-1.34-.28-2.43.87-2.42,2.57v0a3.59,3.59,0,0,0,2.43,3.57c1.35.28,2.43-.87,2.42-2.57v0A3.59,3.59,0,0,0,570.89,755Z" style="fill: #ea5c9f"/>
          <path d="M570.89,753.57h0a2.53,2.53,0,0,0-2.48.8,4.21,4.21,0,0,0-1,3,6,6,0,0,0,1,3.35,4.12,4.12,0,0,0,2.47,1.82h0a2.55,2.55,0,0,0,2.48-.79,4.22,4.22,0,0,0,1-2.94v0C574.4,756.29,572.82,754,570.89,753.57Zm1.35,4.75a1.61,1.61,0,0,1-.38,1.11,1,1,0,0,1-1,.3h0a1.61,1.61,0,0,1-.95-.7,2.31,2.31,0,0,1-.39-1.29,1.58,1.58,0,0,1,.38-1.1,1,1,0,0,1,1-.31h0a2,2,0,0,1,1.35,2Z"/>
        </g>
        <g>
          <path d="M574.86,756.71c-1.34-.27-2.42.88-2.42,2.58v0a3.61,3.61,0,0,0,2.44,3.57c1.34.28,2.42-.87,2.42-2.57v0A3.64,3.64,0,0,0,574.86,756.71Z" style="fill: #ea5c9f"/>
          <path d="M574.86,755.34h0c-1.93-.39-3.5,1.28-3.49,3.76s1.58,4.77,3.51,5.17h0c1.94.39,3.5-1.28,3.49-3.73l-1.07-.23,1.07.2C578.37,758.06,576.8,755.74,574.86,755.34Zm1.36,4.75c0,.93-.61,1.57-1.35,1.42h0a2,2,0,0,1-1.35-2c0-.93.6-1.57,1.34-1.42h0a2,2,0,0,1,1.35,2Z"/>
        </g>
        <g>
          <path d="M578.54,759.17c-1.34-.28-2.43.87-2.42,2.57v0a3.62,3.62,0,0,0,2.44,3.58c1.34.28,2.42-.87,2.42-2.57v0A3.64,3.64,0,0,0,578.54,759.17Z" style="fill: #ea5c9f"/>
          <path d="M578.54,757.79h0c-1.93-.4-3.5,1.27-3.49,3.75s1.58,4.77,3.51,5.18h0c1.93.4,3.5-1.27,3.49-3.73v0C582.05,760.52,580.47,758.2,578.54,757.79Zm1.36,4.75c0,.94-.61,1.57-1.35,1.42h0a2,2,0,0,1-1.35-2c0-.93.6-1.56,1.34-1.41h0a2,2,0,0,1,1.35,2Z"/>
        </g>
        <g>
          <path d="M575.59,752.4c-1.34-.27-2.42.88-2.41,2.57v0a3.61,3.61,0,0,0,2.43,3.57c1.34.28,2.43-.87,2.42-2.57v0A3.61,3.61,0,0,0,575.59,752.4Z" style="fill: #ea5c9f"/>
          <path d="M575.61,751h0a2.58,2.58,0,0,0-2.48.8,4.22,4.22,0,0,0-1,2.95,6.15,6.15,0,0,0,1,3.36A4.13,4.13,0,0,0,575.6,760h0a2.55,2.55,0,0,0,2.48-.79,4.25,4.25,0,0,0,1-2.93v0a6.07,6.07,0,0,0-1-3.35A4.12,4.12,0,0,0,575.61,751Zm1.34,4.75a1.61,1.61,0,0,1-.38,1.11,1,1,0,0,1-1,.3,1.61,1.61,0,0,1-1-.7,2.31,2.31,0,0,1-.39-1.29,1.61,1.61,0,0,1,.38-1.11,1,1,0,0,1,1-.31h0a1.53,1.53,0,0,1,.95.7,2.28,2.28,0,0,1,.39,1.26Z"/>
        </g>
        <g>
          <path d="M572.06,749.8c-1.34-.28-2.42.87-2.42,2.57v0a3.61,3.61,0,0,0,2.44,3.57c1.34.28,2.43-.87,2.42-2.57v0A3.6,3.6,0,0,0,572.06,749.8Z" style="fill: #ea5c9f"/>
          <path d="M572.07,748.42h0c-1.93-.39-3.5,1.28-3.5,3.76s1.58,4.77,3.52,5.17h0c1.93.39,3.5-1.28,3.49-3.73l-1.08-.23,1.08.21C575.57,751.14,574,748.82,572.07,748.42Zm1.35,4.75c0,.93-.6,1.57-1.34,1.42h0a2,2,0,0,1-1.35-2c0-.93.61-1.57,1.35-1.42h0a2,2,0,0,1,1.35,2Z"/>
        </g>
        <g>
          <path d="M567.8,748.15c-1.34-.27-2.43.88-2.42,2.58v0a3.59,3.59,0,0,0,2.43,3.57c1.35.28,2.43-.87,2.42-2.57v0A3.62,3.62,0,0,0,567.8,748.15Z" style="fill: #ea5c9f"/>
          <path d="M570.28,748.6a4.12,4.12,0,0,0-2.47-1.82h0a2.56,2.56,0,0,0-2.48.8,4.21,4.21,0,0,0-1,2.95c0,2.45,1.58,4.77,3.51,5.17h0a2.56,2.56,0,0,0,2.48-.8,4.19,4.19,0,0,0,1-2.93l-1.08-.22,1.08.2A6,6,0,0,0,570.28,748.6Zm-1.13,2.93a1.58,1.58,0,0,1-.38,1.1,1,1,0,0,1-1,.31h0a2,2,0,0,1-1.35-2,1.61,1.61,0,0,1,.38-1.11,1,1,0,0,1,1-.3h0a1.53,1.53,0,0,1,1,.7,2.28,2.28,0,0,1,.39,1.26Z"/>
        </g>
        <g>
          <path d="M563.82,743.41c-1.34-.27-2.42.89-2.42,2.58v0a3.61,3.61,0,0,0,2.44,3.56c1.34.28,2.42-.88,2.42-2.57v0A3.62,3.62,0,0,0,563.82,743.41Z" style="fill: #ea5c9f"/>
          <path d="M563.83,742h0c-1.93-.39-3.5,1.29-3.5,3.77s1.59,4.76,3.51,5.16h0a2.57,2.57,0,0,0,2.49-.8,4.3,4.3,0,0,0,1-2.93l-1.08-.22,1.08.2C567.33,744.75,565.76,742.44,563.83,742Zm1.35,4.76a1.6,1.6,0,0,1-.38,1.1,1,1,0,0,1-1,.31h0a2,2,0,0,1-1.35-2c0-.93.6-1.57,1.35-1.42h0a2,2,0,0,1,1.35,2Z"/>
        </g>
        <g>
          <path d="M567.94,744.09c-1.34-.28-2.42.88-2.42,2.58v0a3.62,3.62,0,0,0,2.44,3.57c1.34.27,2.43-.88,2.42-2.58v0A3.6,3.6,0,0,0,567.94,744.09Z" style="fill: #ea5c9f"/>
          <path d="M568,742.71h0a2.56,2.56,0,0,0-2.47.79,4.25,4.25,0,0,0-1,3,6.15,6.15,0,0,0,1,3.35,4.09,4.09,0,0,0,2.48,1.81h0a2.58,2.58,0,0,0,2.48-.8,4.3,4.3,0,0,0,1-2.93v0C571.45,745.43,569.88,743.12,568,742.71Zm1.35,4.75a1.61,1.61,0,0,1-.38,1.11,1,1,0,0,1-1,.31h0a1.65,1.65,0,0,1-1-.7,2.36,2.36,0,0,1-.39-1.29,1.59,1.59,0,0,1,.39-1.11,1,1,0,0,1,1-.31h0a2,2,0,0,1,1.35,2Z"/>
        </g>
        <g>
          <path d="M573.09,745.17c-1.34-.27-2.42.88-2.42,2.58v0a3.61,3.61,0,0,0,2.44,3.57c1.34.28,2.43-.87,2.42-2.57v0A3.62,3.62,0,0,0,573.09,745.17Z" style="fill: #ea5c9f"/>
          <path d="M573.1,743.8h0a2.58,2.58,0,0,0-2.47.79,4.23,4.23,0,0,0-1,3,6.16,6.16,0,0,0,1,3.36,4.13,4.13,0,0,0,2.48,1.82h0a2.58,2.58,0,0,0,2.48-.8,4.22,4.22,0,0,0,1-2.93v0C576.6,746.52,575,744.2,573.1,743.8Zm1.35,4.75a1.61,1.61,0,0,1-.38,1.11,1,1,0,0,1-1,.3h0a1.61,1.61,0,0,1-1-.7,2.24,2.24,0,0,1-.4-1.29,1.59,1.59,0,0,1,.39-1.11,1,1,0,0,1,1-.31h0a2,2,0,0,1,1.35,2Z"/>
        </g>
        <g>
          <path d="M571.33,740c-1.34-.27-2.43.88-2.42,2.58v0a3.6,3.6,0,0,0,2.44,3.57c1.34.28,2.42-.87,2.41-2.57v0A3.62,3.62,0,0,0,571.33,740Z" style="fill: #ea5c9f"/>
          <path d="M573.82,740.41a4.1,4.1,0,0,0-2.48-1.82,2.33,2.33,0,0,0-2.5.79,4.28,4.28,0,0,0-1,3,6.07,6.07,0,0,0,1,3.35,4.12,4.12,0,0,0,2.47,1.82h0a2.56,2.56,0,0,0,2.48-.8,4.19,4.19,0,0,0,1-2.93l-1.08-.22,1.08.2A6,6,0,0,0,573.82,740.41Zm-1.14,2.93a1.58,1.58,0,0,1-.38,1.1,1.18,1.18,0,0,1-1,.31,1.61,1.61,0,0,1-1-.7,2.31,2.31,0,0,1-.39-1.29,1.59,1.59,0,0,1,.38-1.11,1,1,0,0,1,1-.31h0a1.61,1.61,0,0,1,.95.7,2.24,2.24,0,0,1,.39,1.27Z"/>
        </g>
        <g>
          <path d="M566.77,738.82c-1.35-.28-2.43.88-2.42,2.57v0a3.61,3.61,0,0,0,2.43,3.57c1.35.27,2.43-.88,2.42-2.58v0A3.59,3.59,0,0,0,566.77,738.82Z" style="fill: #ea5c9f"/>
          <path d="M566.77,737.44h0c-1.93-.4-3.5,1.28-3.49,3.76s1.58,4.76,3.51,5.17h0c1.93.39,3.5-1.28,3.49-3.74v0C570.27,740.16,568.7,737.84,566.77,737.44Zm1.35,4.75c0,.93-.6,1.57-1.34,1.42h0a2,2,0,0,1-1.35-2c0-.93.6-1.56,1.34-1.41h0a2,2,0,0,1,1.35,2Z"/>
        </g>
        <g>
          <path d="M568.68,734c-1.34-.28-2.42.88-2.42,2.57v0a3.63,3.63,0,0,0,2.44,3.57c1.34.27,2.42-.88,2.42-2.58v0A3.61,3.61,0,0,0,568.68,734Z" style="fill: #ea5c9f"/>
          <path d="M568.69,732.63h0a2.57,2.57,0,0,0-2.49.8,4.3,4.3,0,0,0-1,3c0,2.46,1.58,4.77,3.51,5.18h0c1.93.39,3.5-1.28,3.5-3.74v0C572.19,735.35,570.61,733,568.69,732.63Zm1.35,4.75c0,.93-.61,1.57-1.35,1.42h0a2,2,0,0,1-1.35-2,1.58,1.58,0,0,1,.38-1.1,1,1,0,0,1,1-.31h0a2,2,0,0,1,1.35,2Z"/>
        </g>
      </g>
    </g>
    <g>
      <path d="M493.56,748.59c-4.6-.66-.76,7.55-.76,7.55C495.66,753.24,496.06,749.44,493.56,748.59Z" style="fill: #1d7b4c"/>
      <path d="M493.65,747.7l-.11,0a2.23,2.23,0,0,0-2.66,1.25c-1.06,2.39,1.06,7.09,1.31,7.62l.47,1,.63-.64c2-2,3-4.69,2.51-6.74A3.26,3.26,0,0,0,493.65,747.7Zm-.7,7c-.6-1.54-1.21-3.72-.8-4.66.19-.42.65-.59,1.37-.49a1.3,1.3,0,0,1,.91,1A5.4,5.4,0,0,1,493,754.66Z"/>
    </g>
    <g>
      <g>
        <path d="M495.75,740c-1.34-.23-2.42,1-2.42,2.66v0a3.48,3.48,0,0,0,2.44,3.49c1.34.24,2.42-1,2.42-2.65v0A3.5,3.5,0,0,0,495.75,740Z" style="fill: #ea5c9f"/>
        <path d="M495.76,738.58h0c-1.94-.33-3.5,1.4-3.5,3.87s1.59,4.72,3.52,5.06h0c1.93.34,3.5-1.38,3.49-3.83v0C499.26,741.2,497.69,738.93,495.76,738.58Zm1.35,4.72c0,.93-.6,1.58-1.34,1.45h0a1.94,1.94,0,0,1-1.35-1.94c0-.94.6-1.6,1.35-1.47h0a1.94,1.94,0,0,1,1.35,1.93Z"/>
      </g>
      <g>
        <path d="M496.93,745.2c-1.34-.23-2.42.95-2.42,2.65v0a3.5,3.5,0,0,0,2.44,3.5c1.34.23,2.42-1,2.42-2.65v0A3.5,3.5,0,0,0,496.93,745.2Z" style="fill: #ea5c9f"/>
        <path d="M496.94,743.82h0a2.64,2.64,0,0,0-2.49.88,4.42,4.42,0,0,0-1,3c0,2.46,1.58,4.72,3.51,5.07h0c1.94.33,3.5-1.38,3.5-3.84v0C500.44,746.44,498.87,744.17,496.94,743.82Zm1.35,4.71c0,.94-.6,1.59-1.35,1.46h0a1.94,1.94,0,0,1-1.35-2,1.68,1.68,0,0,1,.38-1.12,1,1,0,0,1,1-.34h0a1.94,1.94,0,0,1,1.35,1.92Z"/>
      </g>
      <g>
        <g>
          <path d="M488.25,744c-1.34-.23-2.43,1-2.42,2.66v0a3.44,3.44,0,0,0,2.44,3.48c1.34.23,2.42-1,2.41-2.65,0,0,0,0,0,0A3.44,3.44,0,0,0,488.25,744Z" style="fill: #ea5c9f"/>
          <path d="M488.26,742.66h0a2.63,2.63,0,0,0-2.48.89,4.45,4.45,0,0,0-1,3,5.84,5.84,0,0,0,1,3.31,3.88,3.88,0,0,0,2.47,1.73h0a2.65,2.65,0,0,0,2.48-.88,4.35,4.35,0,0,0,1-3v0C491.76,745.26,490.18,743,488.26,742.66Zm1.35,4.7a1.64,1.64,0,0,1-.39,1.12.93.93,0,0,1-1,.34,1.5,1.5,0,0,1-.95-.66,2.27,2.27,0,0,1-.39-1.28,1.67,1.67,0,0,1,.38-1.12,1,1,0,0,1,1-.34h0a1.92,1.92,0,0,1,1.35,1.91Z"/>
        </g>
        <g>
          <g>
            <path d="M500.76,725.66c1.09,3.06,3.87,1.87,5.52-2.33C506.28,723.32,499.42,719.84,500.76,725.66Z" style="fill: #1d7b4c"/>
            <path d="M500.5,722.15c-.46.53-.9,1.6-.43,3.65l0,.14a3.18,3.18,0,0,0,2.21,2.33h0c1.62.29,3.42-1.45,4.6-4.43l.36-.94-.84-.43C506,722.24,502.08,720.32,500.5,722.15Zm1.83,4.29c-.16,0-.56-.1-.9-1s-.16-1.52.11-1.83c.62-.72,2.38-.32,3.66.18C504.22,725.77,503.06,726.56,502.33,726.44Z"/>
          </g>
          <g>
            <path d="M487.91,720.71c1.65,4.8,4.43,7,5.53,4.31C494.77,719.68,487.91,720.7,487.91,720.71Z" style="fill: #1d7b4c"/>
            <path d="M487.73,719.79l-.84.12c.12.36.24.72.37,1.08,1.17,3.39,3,5.78,4.59,6.08h0c.95.17,1.74-.37,2.21-1.53l0-.13a4.61,4.61,0,0,0-.43-3.81C492.11,719.21,488.17,719.71,487.73,719.79Zm5,4.77c-.34.78-.72.73-.9.67-.73-.14-1.88-1.34-2.87-3.67,1.29,0,3,.19,3.66,1.13A2.41,2.41,0,0,1,492.76,724.56Z"/>
          </g>
          <g>
            <path d="M485.78,729c1.65,4.8,4.43,7,5.52,4.31C492.64,728,485.78,729,485.78,729Z" style="fill: #1d7b4c"/>
            <path d="M485.6,728.07l-.84.13.36,1.07c1.18,3.39,3,5.78,4.6,6.08h0c.95.17,1.73-.37,2.21-1.54l0-.12a4.64,4.64,0,0,0-.43-3.81C490,727.48,486,728,485.6,728.07Zm5,4.77c-.33.74-.72.7-.88.67-.67-.06-1.9-1.32-2.89-3.67,1.29,0,3,.19,3.65,1.13A2.36,2.36,0,0,1,490.63,732.84Z"/>
          </g>
          <g>
            <path d="M482,740c1.65,4.79,4.43,7,5.53,4.29C488.81,738.92,482,740,482,740Z" style="fill: #1d7b4c"/>
            <path d="M481.77,739.05l-.84.13c.12.36.24.71.37,1.07,1.17,3.39,3,5.77,4.59,6.07h0c.95.17,1.74-.38,2.21-1.54l.05-.13a4.64,4.64,0,0,0-.44-3.81C486.15,738.45,482.22,739,481.77,739.05Zm5,4.75c-.34.78-.77.72-.9.68-.74-.14-1.89-1.34-2.88-3.67,1.28,0,3,.18,3.66,1.12A2.46,2.46,0,0,1,486.81,743.8Z"/>
          </g>
          <g>
            <path d="M504.31,748.39c-4.6-.69-.77,7.54-.77,7.54C506.41,753.05,506.8,749.25,504.31,748.39Z" style="fill: #1d7b4c"/>
            <path d="M504.4,747.49l-.11,0a2.24,2.24,0,0,0-2.67,1.24c-1.06,2.39,1.07,7.09,1.32,7.63.16.33.31.66.47,1l.63-.63c2-2,3-4.68,2.51-6.72A3.34,3.34,0,0,0,504.4,747.49Zm-.7,7c-.6-1.56-1.21-3.74-.8-4.67.19-.42.65-.59,1.37-.49a1.32,1.32,0,0,1,.91,1A5.44,5.44,0,0,1,503.7,754.46Z"/>
          </g>
          <g>
            <path d="M506.26,746.51c1.09,3.07,3.87,1.89,5.52-2.31C511.78,744.2,504.92,740.7,506.26,746.51Z" style="fill: #1d7b4c"/>
            <path d="M506,743c-.46.53-.9,1.59-.43,3.65l0,.14a3.18,3.18,0,0,0,2.21,2.33h0c1.62.28,3.42-1.45,4.59-4.43l.37-.94-.84-.43C511.51,743.11,507.58,741.18,506,743Zm1.83,4.29c-.14,0-.56-.1-.9-1s-.16-1.52.11-1.83c.62-.71,2.38-.3,3.66.19C509.71,746.64,508.56,747.43,507.83,747.3Z"/>
          </g>
          <g>
            <path d="M502.28,733.68c1.09,3.07,3.87,1.89,5.53-2.32C507.81,731.36,501,727.87,502.28,733.68Z" style="fill: #1d7b4c"/>
            <path d="M502,730.18c-.46.53-.91,1.59-.44,3.65l.05.14a3.16,3.16,0,0,0,2.21,2.33h0c1.62.28,3.43-1.46,4.6-4.44l.37-.93-.85-.44C507.54,730.27,503.61,728.35,502,730.18Zm1.82,4.28c-.13,0-.56-.1-.9-1a2.24,2.24,0,0,1,.12-1.83c.62-.72,2.38-.3,3.65.18C505.74,733.8,504.59,734.59,503.85,734.46Z"/>
          </g>
          <g>
            <path d="M507.45,746.84c-1.34-.24-2.42.94-2.42,2.64v0a3.51,3.51,0,0,0,2.44,3.51c1.34.24,2.42-.93,2.42-2.63v0A3.52,3.52,0,0,0,507.45,746.84Z" style="fill: #ea5c9f"/>
            <path d="M507.46,745.46h0a2.64,2.64,0,0,0-2.49.87,4.4,4.4,0,0,0-1,3,6,6,0,0,0,1,3.32,4,4,0,0,0,2.47,1.75h0a2.63,2.63,0,0,0,2.49-.86,4.38,4.38,0,0,0,1-3v0C511,748.1,509.39,745.82,507.46,745.46Zm1.35,4.72a1.68,1.68,0,0,1-.38,1.12,1,1,0,0,1-1,.33h0a1.58,1.58,0,0,1-1-.68,2.25,2.25,0,0,1-.39-1.28,1.63,1.63,0,0,1,.39-1.11,1,1,0,0,1,.95-.34h0a2,2,0,0,1,1.35,1.93Z"/>
          </g>
          <g>
            <path d="M492.37,743.83c-1.34-.23-2.43,1-2.42,2.66v0a3.46,3.46,0,0,0,2.44,3.49c1.34.23,2.42-1,2.42-2.66v0A3.48,3.48,0,0,0,492.37,743.83Z" style="fill: #ea5c9f"/>
            <path d="M492.38,742.45h0a2.64,2.64,0,0,0-2.49.88,4.46,4.46,0,0,0-1,3,5.87,5.87,0,0,0,1,3.32,3.88,3.88,0,0,0,2.47,1.73h0a2.68,2.68,0,0,0,2.49-.88,4.39,4.39,0,0,0,1-3v0a5.8,5.8,0,0,0-1-3.32A3.91,3.91,0,0,0,492.38,742.45Zm1.35,4.71a1.66,1.66,0,0,1-.39,1.12,1.06,1.06,0,0,1-1,.34,1.55,1.55,0,0,1-.95-.67,2.25,2.25,0,0,1-.39-1.28,1.63,1.63,0,0,1,.38-1.12,1,1,0,0,1,1-.34h0a1.51,1.51,0,0,1,.95.67,2.24,2.24,0,0,1,.4,1.25Z"/>
          </g>
        </g>
        <g>
          <path d="M500.46,746.21c-1.34-.24-2.42.95-2.42,2.65v0a3.5,3.5,0,0,0,2.44,3.5c1.34.24,2.42-1,2.42-2.64v0A3.51,3.51,0,0,0,500.46,746.21Z" style="fill: #ea5c9f"/>
          <path d="M500.47,744.83h0a2.65,2.65,0,0,0-2.49.88,4.4,4.4,0,0,0-1,3,6,6,0,0,0,1,3.32,3.94,3.94,0,0,0,2.47,1.74h0a2.66,2.66,0,0,0,2.49-.87,4.42,4.42,0,0,0,1-3l-1.08-.19,1.08.17C504,747.46,502.4,745.18,500.47,744.83Zm1.35,4.71a1.68,1.68,0,0,1-.38,1.12.92.92,0,0,1-1,.34,1.58,1.58,0,0,1-1-.68,2.24,2.24,0,0,1-.39-1.27,1.64,1.64,0,0,1,.39-1.12,1,1,0,0,1,1-.34h0a1.94,1.94,0,0,1,1.35,1.93Z"/>
        </g>
        <g>
          <path d="M503.85,742.92c-1.35-.24-2.43.94-2.42,2.64v0a3.49,3.49,0,0,0,2.43,3.51c1.35.24,2.43-.94,2.42-2.64v0A3.49,3.49,0,0,0,503.85,742.92Z" style="fill: #ea5c9f"/>
          <path d="M503.86,741.54a2.35,2.35,0,0,0-2.5.87,4.32,4.32,0,0,0-1,3,5.87,5.87,0,0,0,1,3.32,4,4,0,0,0,2.47,1.75h0a2.62,2.62,0,0,0,2.48-.87,4.28,4.28,0,0,0,1-3v0a5.92,5.92,0,0,0-1-3.32A4,4,0,0,0,503.86,741.54Zm1.34,4.72a1.65,1.65,0,0,1-.38,1.12,1.34,1.34,0,0,1-1,.33,1.53,1.53,0,0,1-1-.68,2.25,2.25,0,0,1-.39-1.28,1.61,1.61,0,0,1,.38-1.11,1,1,0,0,1,1-.34h0a1.53,1.53,0,0,1,.95.68,2.23,2.23,0,0,1,.39,1.25Z"/>
        </g>
        <g>
          <path d="M500.17,742.06c-1.34-.24-2.43,1-2.42,2.65v0a3.47,3.47,0,0,0,2.44,3.5c1.34.24,2.42-.94,2.41-2.64v0A3.49,3.49,0,0,0,500.17,742.06Z" style="fill: #ea5c9f"/>
          <path d="M500.17,740.68h0c-1.84-.32-3.36,1.23-3.48,3.51v.35c0,2.45,1.58,4.72,3.51,5.07h0c1.93.34,3.5-1.38,3.49-3.83v0C503.68,743.31,502.1,741,500.17,740.68Zm1.35,4.72c0,.93-.6,1.58-1.34,1.45h0a2,2,0,0,1-1.35-1.85v-.1c0-.93.6-1.59,1.34-1.46h0a1.93,1.93,0,0,1,1.35,1.93Z"/>
        </g>
        <g>
          <path d="M491.34,738.44c-1.34-.23-2.43,1-2.42,2.65v0a3.46,3.46,0,0,0,2.44,3.48c1.34.23,2.42-1,2.42-2.65v0A3.48,3.48,0,0,0,491.34,738.44Z" style="fill: #ea5c9f"/>
          <path d="M493.82,738.8a3.91,3.91,0,0,0-2.47-1.74h0a2.63,2.63,0,0,0-2.48.88,4.46,4.46,0,0,0-1,3c0,2.45,1.58,4.71,3.51,5.05a2.75,2.75,0,0,0,2.49-.88,4.32,4.32,0,0,0,1-3l-1.08-.19,1.08.17A5.87,5.87,0,0,0,493.82,738.8Zm-1.12,3a1.64,1.64,0,0,1-.39,1.12,1,1,0,0,1-1,.34h0a1.92,1.92,0,0,1-1.35-1.94,1.63,1.63,0,0,1,.38-1.12,1,1,0,0,1,1-.34h0a1.48,1.48,0,0,1,.95.67,2.32,2.32,0,0,1,.4,1.25Z"/>
        </g>
        <g>
          <path d="M488.4,735.87c-1.35-.23-2.43,1-2.42,2.66v0a3.45,3.45,0,0,0,2.43,3.48c1.34.23,2.43-1,2.42-2.66v0A3.46,3.46,0,0,0,488.4,735.87Z" style="fill: #ea5c9f"/>
          <path d="M488.41,734.5h0a2.64,2.64,0,0,0-2.47.88,4.38,4.38,0,0,0-1,3,5.8,5.8,0,0,0,1,3.32,4,4,0,0,0,2.47,1.73h0a2.63,2.63,0,0,0,2.48-.89,4.32,4.32,0,0,0,1-3v0a5.87,5.87,0,0,0-1-3.31A3.88,3.88,0,0,0,488.41,734.5Zm1.34,4.7a1.65,1.65,0,0,1-.38,1.12,1,1,0,0,1-1,.34h0a1.51,1.51,0,0,1-.95-.67,2.33,2.33,0,0,1-.4-1.27,1.67,1.67,0,0,1,.39-1.13,1,1,0,0,1,1-.34h0a1.55,1.55,0,0,1,.95.67,2.23,2.23,0,0,1,.39,1.25Z"/>
        </g>
        <g>
          <path d="M490.75,731.82c-1.34-.23-2.42,1-2.42,2.66v0a3.48,3.48,0,0,0,2.44,3.49c1.34.23,2.42-1,2.42-2.66v0A3.48,3.48,0,0,0,490.75,731.82Z" style="fill: #ea5c9f"/>
          <path d="M490.75,730.44h0c-1.93-.33-3.5,1.4-3.49,3.88s1.58,4.7,3.51,5h0c1.94.32,3.5-1.4,3.5-3.85l-1.08-.19,1.08.16C494.26,733,492.69,730.78,490.75,730.44Zm1.36,4.71c0,.93-.6,1.58-1.35,1.46h0a1.93,1.93,0,0,1-1.35-2c0-.93.6-1.59,1.34-1.46h0a1.92,1.92,0,0,1,1.35,1.91Z"/>
        </g>
        <g>
          <path d="M494.58,733.24c-1.35-.23-2.43,1-2.42,2.65v0a3.47,3.47,0,0,0,2.43,3.49c1.34.23,2.43-1,2.42-2.65v0A3.47,3.47,0,0,0,494.58,733.24Z" style="fill: #ea5c9f"/>
          <path d="M494.58,731.86h0a2.61,2.61,0,0,0-2.47.87,4.36,4.36,0,0,0-1,3c0,2.45,1.58,4.71,3.51,5.06h0c1.93.33,3.5-1.39,3.49-3.84v0C498.08,734.47,496.51,732.2,494.58,731.86Zm1.35,4.71c0,.93-.6,1.59-1.34,1.46h0a1.94,1.94,0,0,1-1.35-1.95,1.59,1.59,0,0,1,.39-1.12,1,1,0,0,1,.95-.34h0a1.9,1.9,0,0,1,1.35,1.92Z"/>
        </g>
        <g>
          <path d="M498.55,736c-1.34-.24-2.43,1-2.42,2.65v0a3.49,3.49,0,0,0,2.44,3.5c1.34.23,2.42-.95,2.42-2.65v0A3.49,3.49,0,0,0,498.55,736Z" style="fill: #ea5c9f"/>
          <path d="M498.56,734.62h0a2.63,2.63,0,0,0-2.49.87,4.46,4.46,0,0,0-1,3,5.9,5.9,0,0,0,1,3.32,3.94,3.94,0,0,0,2.47,1.74h0a2.67,2.67,0,0,0,2.49-.87,4.37,4.37,0,0,0,1-3v0a5.82,5.82,0,0,0-1-3.32A3.93,3.93,0,0,0,498.56,734.62Zm1.35,4.71a1.64,1.64,0,0,1-.39,1.12,1,1,0,0,1-1,.34h0a1.48,1.48,0,0,1-.95-.67,2.22,2.22,0,0,1-.39-1.27,1.68,1.68,0,0,1,.38-1.13,1,1,0,0,1,1-.33h0a1.55,1.55,0,0,1,.95.67,2.26,2.26,0,0,1,.4,1.25Z"/>
        </g>
        <g>
          <path d="M502.52,737.65c-1.34-.24-2.42,1-2.42,2.64v0a3.51,3.51,0,0,0,2.44,3.5c1.34.24,2.42-.94,2.42-2.64v0A3.51,3.51,0,0,0,502.52,737.65Z" style="fill: #ea5c9f"/>
          <path d="M502.53,736.27h0a2.65,2.65,0,0,0-2.49.87,4.44,4.44,0,0,0-1,3,6,6,0,0,0,1,3.33,3.94,3.94,0,0,0,2.47,1.74h0a2.64,2.64,0,0,0,2.49-.87,4.38,4.38,0,0,0,1-3l-1.08-.19,1.08.17C506,738.9,504.46,736.63,502.53,736.27Zm1.35,4.72a1.72,1.72,0,0,1-.38,1.12,1.11,1.11,0,0,1-1,.33,1.55,1.55,0,0,1-1-.68,2.25,2.25,0,0,1-.39-1.28,1.63,1.63,0,0,1,.39-1.11,1,1,0,0,1,1-.34h0a1.94,1.94,0,0,1,1.35,1.93Z"/>
        </g>
        <g>
          <path d="M506.2,740c-1.34-.24-2.42.94-2.42,2.64v0a3.51,3.51,0,0,0,2.44,3.51c1.34.24,2.42-.94,2.42-2.63v0A3.52,3.52,0,0,0,506.2,740Z" style="fill: #ea5c9f"/>
          <path d="M506.21,738.62h0a2.64,2.64,0,0,0-2.49.87,4.4,4.4,0,0,0-1,3,6,6,0,0,0,1,3.32,4,4,0,0,0,2.47,1.76h0a2.66,2.66,0,0,0,2.49-.86,4.4,4.4,0,0,0,1-3v0C509.71,741.26,508.14,739,506.21,738.62Zm1.35,4.72a1.64,1.64,0,0,1-.39,1.12,1,1,0,0,1-1,.33h0a1.55,1.55,0,0,1-1-.68,2.25,2.25,0,0,1-.39-1.28,1.67,1.67,0,0,1,.38-1.11,1,1,0,0,1,1-.34h0a2,2,0,0,1,1.35,1.93Z"/>
        </g>
        <g>
          <path d="M503.26,733.32c-1.34-.24-2.43.94-2.42,2.64v0a3.49,3.49,0,0,0,2.44,3.51c1.34.24,2.42-.94,2.41-2.64v0A3.49,3.49,0,0,0,503.26,733.32Z" style="fill: #ea5c9f"/>
          <path d="M505.74,733.7a3.91,3.91,0,0,0-2.47-1.76h0a2.63,2.63,0,0,0-2.47.86,4.32,4.32,0,0,0-1,3c0,2.45,1.58,4.72,3.51,5.07h0a2.62,2.62,0,0,0,2.48-.87,4.28,4.28,0,0,0,1-3l-1.08-.19,1.08.17A5.9,5.9,0,0,0,505.74,733.7Zm-1.12,3a1.63,1.63,0,0,1-.39,1.11,1,1,0,0,1-1,.34h0a2,2,0,0,1-1.35-2,1.59,1.59,0,0,1,.39-1.12,1,1,0,0,1,.95-.33h0a1.53,1.53,0,0,1,1,.68,2.32,2.32,0,0,1,.4,1.25Z"/>
        </g>
        <g>
          <path d="M499.73,730.81c-1.35-.23-2.43,1-2.42,2.65v0a3.47,3.47,0,0,0,2.43,3.5c1.34.24,2.43-.94,2.42-2.64v0A3.49,3.49,0,0,0,499.73,730.81Z" style="fill: #ea5c9f"/>
          <path d="M499.73,729.43h0c-1.93-.33-3.5,1.39-3.49,3.87s1.58,4.71,3.51,5.06h0c1.93.34,3.5-1.38,3.49-3.83v0C503.24,732.06,501.66,729.78,499.73,729.43Zm1.35,4.72c0,.93-.6,1.58-1.34,1.45h0a1.93,1.93,0,0,1-1.35-2c0-.93.6-1.59,1.34-1.46h0a1.94,1.94,0,0,1,1.35,1.93Z"/>
        </g>
        <g>
          <path d="M495.46,729.3c-1.34-.23-2.43,1-2.42,2.65v0a3.47,3.47,0,0,0,2.44,3.49c1.34.23,2.42-1,2.42-2.65v0A3.5,3.5,0,0,0,495.46,729.3Z" style="fill: #ea5c9f"/>
          <path d="M495.46,727.92h0c-1.93-.33-3.5,1.39-3.49,3.87s1.58,4.71,3.51,5.06h0A2.6,2.6,0,0,0,498,736a4.28,4.28,0,0,0,1-3l-1.07-.19L499,733C499,730.54,497.39,728.27,495.46,727.92Zm1.36,4.71a1.64,1.64,0,0,1-.39,1.12,1,1,0,0,1-1,.34h0a1.93,1.93,0,0,1-1.35-2c0-.93.6-1.59,1.34-1.46h0a1.94,1.94,0,0,1,1.35,1.93Z"/>
        </g>
        <g>
          <path d="M491.49,724.69c-1.35-.23-2.43,1-2.42,2.65v0a3.46,3.46,0,0,0,2.43,3.49c1.34.23,2.43-1,2.42-2.66v0A3.46,3.46,0,0,0,491.49,724.69Z" style="fill: #ea5c9f"/>
          <path d="M491.49,723.31h0c-1.93-.33-3.5,1.4-3.49,3.88s1.58,4.7,3.51,5h0c1.93.32,3.5-1.4,3.49-3.85v0C495,725.91,493.42,723.65,491.49,723.31Zm1.35,4.71c0,.93-.6,1.58-1.34,1.46h0a1.94,1.94,0,0,1-1.36-2c0-.93.61-1.59,1.35-1.46h0a1.9,1.9,0,0,1,1.35,1.92Z"/>
        </g>
        <g>
          <path d="M495.61,725.23c-1.35-.23-2.43,1-2.42,2.65v0a3.47,3.47,0,0,0,2.43,3.49c1.34.24,2.43-.95,2.42-2.65v0A3.48,3.48,0,0,0,495.61,725.23Z" style="fill: #ea5c9f"/>
          <path d="M495.62,723.86h0a2.64,2.64,0,0,0-2.47.88,4.33,4.33,0,0,0-1,3,5.87,5.87,0,0,0,1,3.32,4,4,0,0,0,2.47,1.74h0a2.62,2.62,0,0,0,2.48-.87,4.35,4.35,0,0,0,1-3v0a5.87,5.87,0,0,0-1-3.32A3.9,3.9,0,0,0,495.62,723.86Zm1.34,4.7a1.63,1.63,0,0,1-.38,1.12,1,1,0,0,1-1,.34h0a1.55,1.55,0,0,1-.95-.67,2.25,2.25,0,0,1-.39-1.28,1.59,1.59,0,0,1,.39-1.12,1,1,0,0,1,.95-.34h0a1.55,1.55,0,0,1,.95.67,2.28,2.28,0,0,1,.39,1.26Z"/>
        </g>
        <g>
          <path d="M500.76,726.16c-1.35-.24-2.43,1-2.42,2.65v0a3.48,3.48,0,0,0,2.43,3.5c1.35.24,2.43-.94,2.42-2.64v0A3.49,3.49,0,0,0,500.76,726.16Z" style="fill: #ea5c9f"/>
          <path d="M500.77,724.79h0a2.61,2.61,0,0,0-2.47.87,4.32,4.32,0,0,0-1,3,5.92,5.92,0,0,0,1,3.32,3.9,3.9,0,0,0,2.47,1.74h0a2.62,2.62,0,0,0,2.48-.87,4.3,4.3,0,0,0,1-3v0a5.93,5.93,0,0,0-1-3.33A3.9,3.9,0,0,0,500.77,724.79Zm1.34,4.71a1.67,1.67,0,0,1-.38,1.12,1,1,0,0,1-1,.33h0a1.55,1.55,0,0,1-.95-.67,2.3,2.3,0,0,1-.39-1.28,1.63,1.63,0,0,1,.39-1.13,1.2,1.2,0,0,1,1-.33,1.53,1.53,0,0,1,1,.68,2.23,2.23,0,0,1,.39,1.25Z"/>
        </g>
        <g>
          <path d="M499,721c-1.34-.23-2.42,1-2.42,2.65v0a3.5,3.5,0,0,0,2.44,3.5c1.34.24,2.42-.95,2.42-2.64v0A3.51,3.51,0,0,0,499,721Z" style="fill: #ea5c9f"/>
          <path d="M501.48,721.37a4,4,0,0,0-2.47-1.74,2.81,2.81,0,0,0-2.51.87,4.42,4.42,0,0,0-1,3c0,2.45,1.58,4.72,3.51,5.07h0a2.65,2.65,0,0,0,2.49-.87,4.42,4.42,0,0,0,1-3l-1.08-.19,1.08.17A6,6,0,0,0,501.48,721.37Zm-1.13,3a1.63,1.63,0,0,1-.39,1.11,1,1,0,0,1-1,.34h0a1.94,1.94,0,0,1-1.35-1.95,1.68,1.68,0,0,1,.38-1.12,1.05,1.05,0,0,1,1-.34h0a1.58,1.58,0,0,1,1,.68,2.23,2.23,0,0,1,.39,1.25Z"/>
        </g>
        <g>
          <path d="M494.43,720c-1.34-.24-2.43,1-2.42,2.65v0a3.49,3.49,0,0,0,2.44,3.5c1.34.23,2.42-1,2.42-2.65v0A3.48,3.48,0,0,0,494.43,720Z" style="fill: #ea5c9f"/>
          <path d="M494.43,718.62h0c-1.93-.33-3.5,1.39-3.49,3.87s1.58,4.71,3.51,5.06h0c1.94.33,3.5-1.39,3.49-3.85v0C497.94,721.23,496.36,719,494.43,718.62Zm1.36,4.7c0,.94-.61,1.6-1.35,1.47h0a2,2,0,0,1-1.35-1.95c0-.93.6-1.59,1.34-1.46h0a1.93,1.93,0,0,1,1.35,1.92Z"/>
        </g>
        <g>
          <path d="M496.34,715.13c-1.34-.24-2.42,1-2.42,2.65v0a3.5,3.5,0,0,0,2.44,3.5c1.34.23,2.42-.95,2.42-2.65v0A3.48,3.48,0,0,0,496.34,715.13Z" style="fill: #ea5c9f"/>
          <path d="M496.35,713.75h0a2.62,2.62,0,0,0-2.49.88,4.42,4.42,0,0,0-1,3,6,6,0,0,0,1,3.32,3.94,3.94,0,0,0,2.47,1.74h0a2.64,2.64,0,0,0,2.49-.87,4.42,4.42,0,0,0,1-3l-1.08-.19,1.08.17C499.85,716.37,498.28,714.09,496.35,713.75Zm1.35,4.71a1.7,1.7,0,0,1-.38,1.12,1,1,0,0,1-1,.33h0a1.52,1.52,0,0,1-1-.67A2.25,2.25,0,0,1,495,718a1.67,1.67,0,0,1,.38-1.11,1,1,0,0,1,1-.34h0a1.92,1.92,0,0,1,1.35,1.92Z"/>
        </g>
      </g>
    </g>
    <path d="M521.23,649.05q.53,4,1,8.09c3.5-1.54,4.48-4,5.83-7.29C525.09,648,523.66,649.34,521.23,649.05Z"/>
    <path d="M523.21,647.57a7.66,7.66,0,0,1-2,.08l-1.2-.14q.74,5.78,1.48,11.54l1.3-.58c3.82-1.68,4.91-4.37,6.3-7.77l-.95-.85,1,.79.54-1.3-1.16-.73A6.82,6.82,0,0,0,523.21,647.57Zm-.13,7.56c-.2-1.55-.4-3.1-.59-4.65.45,0,.86-.08,1.25-.13a5.37,5.37,0,0,1,2.8.14A9.22,9.22,0,0,1,523.08,655.13Z"/>
    <path d="M538.71,652.74c1.35,3.85,2.33,6.67,5.83,9.59q.53-3.84,1-7.68C543.15,654,541.72,652.05,538.71,652.74Z"/>
    <path d="M543.6,652.39a7,7,0,0,0-5.23-1l-1.14.31c.17.51.35,1,.53,1.52,1.39,4,2.48,7.09,6.3,10.28l1.3,1.09q.75-5.46,1.49-10.94l-1.21-.34A9.64,9.64,0,0,1,543.6,652.39Zm.13,7.61a15.52,15.52,0,0,1-3.45-6,6.36,6.36,0,0,1,2.79,1c.39.2.81.42,1.26.62Z"/>
    <path d="M517.36,739.78a49.25,49.25,0,0,0-5.21,7.14c14.33,8.3,28.76,12.62,44.26,9.41l-4.19-8.57C539.46,748.86,529.23,748.08,517.36,739.78Z" style="fill: #f9bd56"/>
    <path d="M552.08,747c-13.07,1.14-22.9.24-34.5-7.87l-.37-.26-.28.31a49.75,49.75,0,0,0-5.26,7.23l-.45.76.76.44c8.38,4.85,16.21,8,23.8,9.52a51.53,51.53,0,0,0,20.81,0l.75-.15q-2.43-5-4.87-10Zm-39-.31a46.63,46.63,0,0,1,4.41-6c11.57,7.95,21.8,8.91,34.45,7.85l3.51,7.18C541.94,758.33,528.43,755.4,513.1,746.69Z"/>
    <path d="M635,141.87V129.4l7.43,1.62v-6.66L635,122.74v-10l-5.06-1.1v10L622.48,120v6.66l7.44,1.62v12.47c-4.79.42-8.36,5.1-8.36,11.67,0,7.68,4.87,15,10.89,16.28s10.88-3.85,10.88-11.54C643.33,150.62,639.76,144.38,635,141.87Z" style="fill: #f9bd57"/>
    <path d="M635.74,141.28V130.55l7.44,1.62v-8.62l-7.44-1.62v-10l-6.59-1.44v10l-7.44-1.62v8.62l7.44,1.63v10.73c-4.95.78-8.36,5.78-8.36,12.42,0,8.21,5.23,16,11.66,17.43s11.65-4.14,11.65-12.35C644.1,150.71,640.69,144.22,635.74,141.28Zm-3.29,26.46c-5.58-1.22-10.12-8-10.12-15.13,0-6,3.19-10.45,7.76-10.85l.59,0V127.49l-7.43-1.62v-4.7l7.43,1.62v-10l3.53.76v10l7.43,1.62v4.7l-7.43-1.62v14.22l.59.3c4.57,2.4,7.76,8.25,7.76,14.24C642.56,164.15,638,169,632.45,167.74Z"/>
    <path d="M702,505.25c-13-2.68-23.48,8.36-23.48,24.77S689,562,702,564.64s23.47-8.53,23.47-24.93S715,507.94,702,505.25Z" style="fill: #1f8fc9"/>
    <path d="M702,503.45c-13.73-2.84-24.89,8.9-24.89,26.27s11.17,33.89,24.89,36.73,24.88-9.1,24.88-26.46S715.73,506.29,702,503.45Zm0,59.39c-12.17-2.51-22.07-17.15-22.07-32.52s9.9-25.78,22.07-23.26,22.06,17,22.06,32.37S714.17,565.36,702,562.84Z"/>
  </g>
</svg>
