<svg xmlns="http://www.w3.org/2000/svg" viewBox="0 0 1260 1012.04">
  <g>
    <path d="M0,90.08v920C420,738.76,840,1193.28,1260,922V2C840,273.28,420-181.24,0,90.08Z" style="fill: #fff"/>
    <path d="M436.31,182.91v287c0,62.89,32.68,112.8,52.16,137.68a318.1,318.1,0,0,0,60.72,58.66c25.39,18.48,51.75,31.21,78.36,37.49l4.62,1c54.29,11.9,100.69.72,141.84-35.38,19.59-16.77,52.48-56.56,52.48-126.14l.31-287c-130.16-17.52-260.33-56.83-390.49-74.7Z" style="fill: #00844a;fill-rule: evenodd"/>
    <path d="M440.31,470.46h0c0,59.67,31,109.18,51.18,134.69,32.49,40.86,80.61,81,136.08,94.21l4.6,1c58.84,12.93,103.28-3.08,139.14-34.47,16.86-14.68,51.18-52.94,51.18-123.21q.15-141.3.31-282.59c-127.5-17.6-255-55.67-382.49-73.6Z" style="fill: #e2c575;fill-rule: evenodd"/>
    <path d="M823.76,736.11v-8.84l-3.48-.48c-4-.55-7.19,2.51-7.19,6.86V748.1c-1.23.62-92.16-14.63-183.09-35.37-90.93-21-181.86-36.26-183.09-35.64v-14.4c0-4.34-3.22-8.35-7.19-8.9l-2.24-.31-1.24-.17v8.84c-4.76,2.23-7.81,7.36-7.81,13.31v69.23c0,6,4.38,11.38,9.77,12.12,127.87,17.65,255.73,55.78,383.6,73.42,5.39.75,9.77-3.54,9.77-9.5l-.06-66.79.06-2.44A19.59,19.59,0,0,0,823.76,736.11Z" style="fill: #00844a"/>
    <path d="M431.91,678.81v66.33c0,3.86,2.83,7.38,6.29,7.86,127.87,17.65,255.73,55.78,383.6,73.43,3.46.47,6.29-2.31,6.29-6.16L828,754C696,736.45,564,696.35,431.91,678.81Z" style="fill: #e2c575"/>
    <path d="M484.8,699.63a17.84,17.84,0,0,1,3.47.92,2.36,2.36,0,0,1,1.7,2.14,3.67,3.67,0,0,1-1.09,2.23q-5.36,6.38-10.7,12.8-5.48-8.13-10.94-16.21a5.59,5.59,0,0,1-1.24-2.87q0-2.25,5.21-1.28v-1.2q-10.41-1.71-20.81-3.25v1.2q3.45.67,7.06,5,.39.51,5,7.09l9.76,14.09v11.34q0,4.23-1.27,5.11t-6.18.34v1.2q11.34,1.8,22.68,3.77v-1.2q-4.73-1-6-2c-1.12-.91-1.67-2.62-1.67-5.15V721q5.52-6.43,11.05-12.83a19,19,0,0,1,6.25-5.18,7.55,7.55,0,0,1,4.06-.44v-1.2q-8.16-1.49-16.32-2.9Z" style="fill: #00844a"/>
    <path d="M537,709.39c3.07.89,5.05,2.07,5.93,3.52q1,1.67,1,6.27v17q0,6.27-1.74,8.92c-2.09,3.16-6.18,4.12-12.28,2.93q-8.37-1.65-11.32-7.44a18.4,18.4,0,0,1-1.61-8.33V711.36c0-2.38.47-3.85,1.4-4.4s2.67-.53,5.51-.15v-1.2q-10.57-2.05-21.15-4v1.2c2.77.7,4.55,1.45,5.35,2.23s1.34,2.52,1.34,4.88v20.42a20.37,20.37,0,0,0,2.36,10.21c2.91,5.15,8.4,8.47,16.46,10.05s13.69.39,16.6-3.68q2.37-3.33,2.37-10.09v-17q0-4.62,1-5.83c.86-1.1,2.84-1.49,5.93-1.15v-1.2q-8.55-1.75-17.09-3.46Z" style="fill: #00844a"/>
    <path d="M594.29,759a23.86,23.86,0,0,1-24.52-8.67,23.55,23.55,0,0,1-4.58-14.25q0-8.25,4-13,4.8-5.52,13.72-3.63,12.1,2.6,16.22,15.59l1.71.39-.69-14.79-1.56-.34c-.47,1.28-1.57,1.73-3.31,1.35a49.59,49.59,0,0,1-5.55-2.22,42,42,0,0,0-7.51-2.64q-11.31-2.42-18.52,2.52t-7.2,14.84A25.21,25.21,0,0,0,563,751.05q7.07,8.19,19.06,10.74a25,25,0,0,0,13.57-.6,17.34,17.34,0,0,0,6.15-3.48l-1.39-1.51A24.52,24.52,0,0,1,594.29,759Z" style="fill: #00844a"/>
    <path d="M649.22,768.32q-9.27-20.51-18.55-41l-1.45-.32q-7.77,14.31-15.53,28.61-3.13,5.77-3.21,5.89a6.34,6.34,0,0,1-6,2.83v1.2l14.79,3.21v-1.2a16.5,16.5,0,0,1-3.58-1.35,3,3,0,0,1-1.54-2.64q0-1.17,4-9.21l19.45,4.25,3.17,7a13.07,13.07,0,0,1,1.36,4.53c0,1.09-.59,1.64-1.78,1.68a25,25,0,0,1-3.37-.38v1.2l19,4.12v-1.2a8.91,8.91,0,0,1-4.38-2.76A26.17,26.17,0,0,1,649.22,768.32ZM619.47,752l8.47-16q4.29,9.87,8.59,19.73Z" style="fill: #00844a"/>
    <path d="M657.79,733.93c-.15,3.65-.29,7.29-.44,10.94l1.82.39q1.13-4.87,3.4-6c1.51-.73,4.31-.65,8.38.22l4.15.89V773c0,2.75-.39,4.42-1.18,5s-2.72.62-5.83.16v1.2q10.78,2.32,21.58,4.6v-1.2q-4.51-1.25-5.71-2.32-1.51-1.38-1.52-5.1V742l4.16.89c4.17.88,7,2,8.39,3.27s2.59,3.8,3.49,7.49l1.79.38c-.13-3.71-.27-7.42-.4-11.13Q678.83,738.51,657.79,733.93Z" style="fill: #00844a"/>
    <path d="M746.73,788.43q-9.27-20.22-18.55-40.54l-1.45-.29Q719,762.06,711.2,776.47c-2.09,3.89-3.16,5.86-3.2,5.94a6.4,6.4,0,0,1-6,2.89v1.2q7.39,1.53,14.79,3v-1.2a15.11,15.11,0,0,1-3.58-1.3,2.92,2.92,0,0,1-1.54-2.61q0-1.17,4-9.26,9.74,2,19.45,3.85l3.17,6.92a12.76,12.76,0,0,1,1.36,4.49c0,1.09-.59,1.66-1.77,1.73a26.13,26.13,0,0,1-3.37-.3V793q9.46,1.85,19,3.6v-1.2a8.66,8.66,0,0,1-4.38-2.63A25.55,25.55,0,0,1,746.73,788.43ZM717,772.77l8.47-16.16L734,776.15Q725.51,774.5,717,772.77Z" style="fill: #00844a"/>
    <path d="M788.93,760.84q4.11,1,5.31,2.23,1.82,1.92,1.81,7.3v21.84q-14.31-18-28.64-36.24-6.37-1.12-12.77-2.31v1.2a12.58,12.58,0,0,1,3.57,1.18,11.38,11.38,0,0,1,2.69,2.49l1,1.25v28.79q0,4.75-1,6-1.32,1.58-6.22,1.13v1.18q8.72,1.6,17.42,3.12V798.8c-2.66-.72-4.37-1.51-5.14-2.34q-1.75-2-1.76-7.32V763.63q16.49,20.86,33,41.37l1.22.21V770.88q0-4.56,1.06-5.86c.9-1.15,2.92-1.62,6.06-1.43v-1.21q-8.76-1.32-17.53-2.75Z" style="fill: #00844a"/>
    <path d="M509,481.77c0,31.54,16.86,61.22,30.65,79.11,23.29,30.14,55.78,55.91,89.49,64,39.85,9.38,68.65.11,94.7-22.24,10.43-8.63,30-30.12,30-71.1q.15-103.69.31-207.38c-81.83-15.22-163.66-35.86-245.49-51.2Z" style="fill: #00844a;fill-rule: evenodd"/>
    <path d="M706.64,500.11c-.61-1.47-1.84-2.73-2.76-4.6a33,33,0,0,1-2.14-5.81c-.31-.4-.62-.47-1.23-.92-.61-3.83-2.14-8.17-5.21-10.49-2.14-1.79-4.9-2.71-6.43-5a7.26,7.26,0,0,1-1.84-5.42q.45-6.79.91-13.57a25.24,25.24,0,0,0-3.06-13.07,56.31,56.31,0,0,0-6.74-9.49,13.41,13.41,0,0,0-3.68-2.8c-3.37-2.39-7.05-3.52-10.42-5.93q-15-12.12-30-24.31c-6.43-6.77-13.17-13.62-16.54-22.07-.31-1.07-.62-2.15-.92-3.22s-.92-1.88-1.23-2.95c-4-8.92-9.5-17.17-14.71-25a6.21,6.21,0,0,1,1.84-4c2.14-2.22,4.59-3.7,6.13-6.06a21.29,21.29,0,0,0,2.76-9.13v-5.37l-2.46,9.2c-.61,1.21-.92,3.16-2.14,2.56a2.38,2.38,0,0,1-.92-1.55c-.92-2.54-.92-4.22-1.23-4.29l-.3-.07c-.31,5.64-1.54,10.75-4.6,14.11-.61.88-1.23,1.08-1.53,1.69s-.62,1.21-1.23,1.41-.61.88-1.22.74-.62-.46-.92-.86a4.79,4.79,0,0,0-2.15.2,17.76,17.76,0,0,0-4.9,3.65c-3.07,2-4.29,2.1-6.44,3.32-2.14.56-4.9,1-6.13,3.07a3.85,3.85,0,0,0-.3,2.62,5.75,5.75,0,0,0,4,2.86,29.29,29.29,0,0,0,7.35,1.57c1.23.26,1.54-.35,2.46.18,4.9,4.75,8,1.38,8.27,3.46.61,2.15,1.23,5.3.92,6.91,0,1-.61,1.89-.31,3l-.3,14a9.92,9.92,0,0,0,.3,2.75,14.73,14.73,0,0,1,1.84,4.43,5.79,5.79,0,0,0,.31,2.41c.61,1.14,2.45,1.88,2.15,3.49a1,1,0,0,1-1.54.34c-4.29,4.78-8,9.69-10.42,15.55l1.23,2.94,10.73,17.09a8.82,8.82,0,0,0,4.29,2.6l.91-.47c.31.4,1.23.94,1.54.33a1.52,1.52,0,0,0-.31-1.07,13.32,13.32,0,0,0-2.76-3c-4.6-5-8.58-10.92-10.11-17.29,0-.34.31-.61.31-1.28.61-.54,1.53-1,2.14-1.55l10.73-6.07c1.53.34,3.67.47,5.21,1.81.61.47,1.22.6,1.22,1.27a5.14,5.14,0,0,0-1.22,4.43,10.21,10.21,0,0,0,4.59,4.7,108.43,108.43,0,0,0,33.72,17.75c2.76.93,5.52,2.2,8,1.39v-.34c-.31-.74-.92-.87-.92-1.54l1.83.4c.72.93,1.43,1.87,2.15,2.81,2.76,6,4.9,12.14,7.66,18.1a22.31,22.31,0,0,0,4,7.23,115.83,115.83,0,0,1,14.71,12.18,75.77,75.77,0,0,1,15.93,24.8,55.24,55.24,0,0,0,3.38,9.76c.3.73,1.22.58,1.22-.09.1-1.21.21-2.42.31-3.63-.31-1.41-1.53-2.33-1.53-4A20.91,20.91,0,0,0,706.64,500.11Z" style="fill: #e2c575;fill-rule: evenodd"/>
    <path d="M655.46,246.57v-6.38l-6.13-1.33,4-6.85q-22.51-4.89-45-9.81l4.29,8.31-6.43-1.39v6.71l7,1.53-11.34,13q-.17,19.44-.31,38.87c20.33,4.4,40.66,8.88,61,13.26V263.2q-6.6-9-13.18-18Z" style="fill: #00844a;fill-rule: evenodd"/>
    <path d="M656.68,647v-6.37l-6.43-1.4c1.33-2.29,2.66-4.57,4-6.86q-22.51-4.71-45.05-9.47l4.29,8.32-6.44-1.4v6.38l7.05,1.53-11.34,13V689.6c20.23,4.38,40.46,8.83,60.69,13.19V663.52q-6.6-9-13.18-18Z" style="fill: #00844a;fill-rule: evenodd"/>
    <path d="M812.68,471.81l-1.53-.23v-1l-1.84-.27v1l-1.53-.22v1.34l-3.37-.51V446.75l-4.9-.76v1.35l-2.76-.44-2.15-4-3.37-.54v-4l-2.76-.45v-2l1.84.3v-1l-1.84-.3v-2l-1.23-.2v2l-1.83-.3v1l1.83.3v2l-2.75-.45v4l-3.07-.52c-.61,1.13-1.22,2.26-1.84,3.39l-2.45-.42v-1.34l-4.59-.8v25.18l-3.38-.59v-1.35l-1.53-.27v-1l-1.53-.27v1l-1.54-.27v1.34l-3.67-.66v32.9c18.49,3.34,37,6.39,55.47,9v-32.9l-3.68-.53Z" style="fill: #00844a;fill-rule: evenodd"/>
    <path d="M498.24,409.31,496.7,409v-1l-1.84-.33v1l-1.22-.22v1.34l-3.68-.65V384l-4.9-.86v1.35L482.3,384l-2.15-4-3.37-.57v-4l-2.76-.46v-2l1.84.3v-1l-1.84-.31v-2l-1.22-.2v2l-1.84-.3v1l1.84.3v2l-2.45-.4v4l-3.07-.49-2.15,3.34-2.45-.38v-1.35l-4.29-.66V404l-3.67-.56v-1.34l-1.54-.23v-1l-1.53-.23v1l-1.53-.23v1.34l-3.68-.53v32.89q27.74,4,55.47,9.14v-32.9l-3.67-.67Z" style="fill: #00844a;fill-rule: evenodd"/>
    <path d="M716.14,327.83c-1.53,6.4,0,14.1,4,20.27q1.68,2.36,3.37,4.7c5.51,6.47,14.09,9.5,21.14,7.8,3.07-.75,5.83-2.93,5.83-6.28V326.79q-15.48-2.71-31-5.67A42.48,42.48,0,0,0,716.14,327.83Z" style="fill: #e2c575;fill-rule: evenodd"/>
    <path d="M634,650.07l-2.14-.46q-3.23,9-6.44,18.07l-4.9-1.07v21.48l25.13,5.48V672.09l-4.9-1.07Z" style="fill: #e2c575;fill-rule: evenodd"/>
    <path d="M633.09,249.42l-2.15-.46q-3.21,9-6.44,18.06L619.6,266v21.82l25.13,5.48V271.43l-4.9-1.07Q636.46,259.89,633.09,249.42Z" style="fill: #e2c575;fill-rule: evenodd"/>
    <path d="M707,324.62a6,6,0,0,0-4.29-.21c-2.15.89-4.6-.62-7.36-.86a1.37,1.37,0,0,1-.92-.53c-.3-.74-1.53-2-2.45-1.86l-4.9-1c-.62-.13-.92.48-1.23.75l-.61.21c-.92.14-1.54.68-1.23,1.41a2.4,2.4,0,0,1,.62,1.14,7.86,7.86,0,0,1,7.65.94c1.85,1.4,2.76,3.27,4.3,4.93a7.19,7.19,0,0,0,6.13,2.95l.3-.27,2.76.9c3.07-.38,4-4.22,3.07-7.76A1.54,1.54,0,0,0,707,324.62Z" style="fill: #e2c575;fill-rule: evenodd"/>
    <path d="M699.9,464.48c-1.84-1.39-4.29-1.56-6.13-3.3-.61-.46-.92-1.19-1.54-1.32a78.88,78.88,0,0,0,1.54,8,9.85,9.85,0,0,0,.92,1.87c2.45,1.52,4,3.18,6.13,4.63l.92.53q3.82,6.84,7.66,13.66c1.84,3.73,3.68,7.13,4.29,10.94.92.52,1.53-.69,1.53-1.7a7.48,7.48,0,0,0,.31-2.63C714,489.53,710,485,707.26,479.76,704.8,474.56,703,469.14,699.9,464.48Z" style="fill: #e2c575;fill-rule: evenodd"/>
    <path d="M592,386.86c-.31-.07-.62.54-.92.14a1.33,1.33,0,0,0-.92-.54l-4.6,1.7-10.42.81v14.1c-.3.94-.3,1.94-.61,2.55L573,414c-.31,2.28-.92,4.84.61,6.84a2.45,2.45,0,0,0,2.45.85,6.24,6.24,0,0,0,.92-3.5c0-1.34.31-2.62.31-4,0-.67-.62-1.14-.31-1.74s.92-.81,1.23-1.08a4.53,4.53,0,0,0,.61-2.22v-8.73a10.39,10.39,0,0,1,2.15-5.25,1.85,1.85,0,0,1,1.83-.28c.62-.21,1.23.93,2.15,1.13.61.13.92-.14,1.53,0,1.53,0,3.37.72,4.6.31,1.84-.27,3.67-1.22,4-2.83A6.22,6.22,0,0,0,592,386.86Z" style="fill: #e2c575;fill-rule: evenodd"/>
    <path d="M711.55,356.44,710,360.82a6.54,6.54,0,0,1-4,3.55c-.92.48-2.46-.5-3.68-.09-.92.15-1.53,1.37-2.45,1.85a3.17,3.17,0,0,0-.31,4c.92-.48,1.53-.69,2.45-1.17a29,29,0,0,1,6.13-1.09,5,5,0,0,0,4-1.53l4.29-6.85,1.22-1.1C716.45,355.42,712.46,353.94,711.55,356.44Z" style="fill: #e2c575;fill-rule: evenodd"/>
    <path d="M704.5,341.57a6.42,6.42,0,0,0-2.15,2.24c-.61.54-.61,1.55-1.23,1.76l-5.2.93c2.14,2.13,4.59,4,7.35,4.21,1.23-1.09,2.14-2.24,3.68-2.93.61-.21,1.22.25,1.84.38a8.76,8.76,0,0,0,2.76-.78l-1.23-6.3Z" style="fill: #e2c575;fill-rule: evenodd"/>
    <path d="M611.94,342.83a4.67,4.67,0,0,0-2.15.21,35.92,35.92,0,0,1-4,3.16c-.31-.07-.61.2-.61.87l1.22.27v-.67a6.67,6.67,0,0,0,4,1.53l7.35-3.77a12.31,12.31,0,0,0-3.06-1.33Z" style="fill: #e2c575;fill-rule: evenodd"/>
    <path d="M588,315.85q-1.21-2-2.45-3.88,1.53,5.7,3.07,11.39c.3.41.61,1.48.3,1.75,0,1-1.53,1-2.14.21l-3.68-3.81v1c4.29,5.28,8.27,11.84,9.2,18.08a2.41,2.41,0,0,0,1.83-1.28c.62-4.23-.61-8.86-2.14-13.55A48.77,48.77,0,0,0,588,315.85Z" style="fill: #e2c575;fill-rule: evenodd"/>
    <path d="M468.81,404.27q5.22.84,10.42,1.72V395.25q-5.21-.88-10.42-1.72Z" style="fill: #e2c575;fill-rule: evenodd"/>
    <path d="M783.26,467.2q5.21.87,10.42,1.71V458.16q-5.2-.82-10.42-1.7Z" style="fill: #e2c575;fill-rule: evenodd"/>
    <path d="M579.45,333.48l-1.22.08a23.66,23.66,0,0,0,3.06,7.37l.31.4c.92.19,2.14.79,3.06.65a2.81,2.81,0,0,0,3.68-1.23A16.24,16.24,0,0,0,579.45,333.48Z" style="fill: #e2c575;fill-rule: evenodd"/>
    <path d="M594.16,349.05c-2.45-.53-6.13,1.37-5.51,2.17a6.87,6.87,0,0,0,4.29,2.6,3.69,3.69,0,0,0,5.21-3.24C596.92,349.31,595.7,349.38,594.16,349.05Z" style="fill: #00844a;fill-rule: evenodd"/>
    <path d="M481.38,433.21c3,.5,5.92,1,8.89,1.54V422l-8.89-1.54Z" style="fill: #e2c575;fill-rule: evenodd"/>
    <path d="M458.09,429.44c3,.45,5.92.92,8.88,1.39V418.07c-3-.47-5.92-.94-8.88-1.39Z" style="fill: #e2c575;fill-rule: evenodd"/>
    <path d="M795.82,496.1l8.89,1.38V484.72l-8.89-1.38Z" style="fill: #e2c575;fill-rule: evenodd"/>
    <path d="M772.54,492.23q4.29.75,8.58,1.47V480.94l-8.58-1.47Z" style="fill: #e2c575;fill-rule: evenodd"/>
    <path d="M740.66,371.6l.61-.89a1,1,0,0,0,.31-.62c-.61-.11-1.23.78-1.84.66l-4.6-.89v2c0,1.34.92,3.19,1.23,4.6.3,1.06.61,1.79.92,2.86a29.72,29.72,0,0,1,1.84,4.38c.61,3.81-3.07,6.12-2.76,9.54.3,1.07.92,3.2,1.22,1.91,1.23-3.11,4-4.93,5.22-8.06.61-2.23-.62-4.81-1.23-6.95C741,377,740.35,374.22,740.66,371.6Z" style="fill: #e2c575;fill-rule: evenodd"/>
    <path d="M722.27,366c-.92,1.5-.92,3.51-.61,5.59.2,1.83.41,3.66.61,5.49,0,1.68-.61,2.9-.61,4.58,1.23.24,2.45-.85,3.06-2.08a32.4,32.4,0,0,0,2.15-9.64l1.84-2.66-3.38-2.68C724.11,364,722.89,364.76,722.27,366Z" style="fill: #e2c575;fill-rule: evenodd"/>
    <path d="M687.64,438.75c-3.06,1,1.84,2.07,2.76,1.25l1.22-1.08,1.54,0v-.67l-4,.17Z" style="fill: #e2c575;fill-rule: evenodd"/>
    <path d="M645.34,606.9c-.61-.81-1.22-.27-1.83-.74l-1.84-1.41a8.81,8.81,0,0,1-3.38-5.43l-1.22-.27a3.27,3.27,0,0,1-.61-1.48,1.82,1.82,0,0,0-1.23-1.6c-.61-.47-1.53-.34-1.84-.74-.61-.47-.3-1.41-.92-1.55l-3.37-1.06-.3-.41a14.25,14.25,0,0,1-4.91-3.42c-1.22-.93-1.84-3.08-3.37-3.42-.61-.46-.92-.2-1.23-.26-.3-.4-.3-1.08-.92-1.21l-5.51-1.54c-1.84.27-4.9-.05-5.52-2.2a15.12,15.12,0,0,1-5.51-3.55c-.31-.73-.92-.87-1.84-1.07-.92-.53-1.84-1.07-2.46-.53l-6.43,2.64c-1.23.08-2.45-.86-3.07.36-.3.6-1.53.34-2.45.47-.31.28-.31,3,.61,3.16l4.91.38,8,2.39a11.34,11.34,0,0,0,5.51,1.53v1a15.6,15.6,0,0,0,5.21,1.47c.62.8.62,1.48,1.23,1.61l4,1.2a8.68,8.68,0,0,1,1.84,1.74c.31.41.92.54,1.23.94a.42.42,0,0,0,.3.41l2.76.93c.92,1.88,1.54,4,3.07,5.37.61,2.48,3.67,1.8,6.13,3,.61.81.3,2.08,1.53,2.69a2.93,2.93,0,0,0,3.68-.55,6,6,0,0,1,4.6,2.35l.3.74,2.45,1.54c0,.33,0,.67.31.74.61,1.14,1.84.4,2.76,1.27.61.47.61,1.14,1.22,1.61l1.23,1.61c.92.53,1.22-.74,1.22-1.75l-2.45-1.54C646.57,610.52,646.57,608.51,645.34,606.9Z" style="fill: #e2c575;fill-rule: evenodd"/>
    <path d="M623.58,549.12q-25.74-18.71-51.48-37.28,23.6,20.25,47.19,40.71c1.23,1.27,3.07,3,4.6,1.67C625.12,553.14,627.57,552,623.58,549.12Z" style="fill: #e2c575;fill-rule: evenodd"/>
    <path d="M627.57,559.39c1.84,1.4,4.29,2.27,5.82.26q21.92-27.61,43.83-55.3-24.53,24.64-49,49.12C627,554.55,626,557.71,627.57,559.39Z" style="fill: #e2c575;fill-rule: evenodd"/>
    <path d="M581.6,499.43q16.86,20,33.71,40.17l11.34,8.51c1.53,1.34,4-2.49,3.06-3.7Q605.67,521.88,581.6,499.43Z" style="fill: #e2c575;fill-rule: evenodd"/>
    <path d="M681.82,599.31c-.62-.8-1.23-1.94-2.15-2.13l-2.76-1.93c-.31-.07,0-.34-.31-.4l-6.43-1.38c-.21.4-.41.81-.61,1.21a39.35,39.35,0,0,1-10.42-2.58l-2.46.14a37.08,37.08,0,0,1-8,5c-.61.54-1.22,1.41-1.83,1.95-.61.2-1.54,0-2.15.21s-.31,1.28-.92,1.14l-2.14-.13a1.62,1.62,0,0,0,0,1.68,3.8,3.8,0,0,0,2.45,1.2c.92.54,1.84.4,3.06.67l1.53,2c.31.74.62,1.47,1.23,1.61l4.6.66,2.45-3.49,5.21.79a1.52,1.52,0,0,0,.31,1.07l3.37,1.73c.92.87,8.58,1.51,9.5,1.71.61-.54,1.84.39,2.46-.15,0-.34,0-.67.3-.61l5.51.5c.62-1.21,1.23-2.42,1.84-3.64-1.53-1.66-1.84-3.75-2.45-5.89A1.5,1.5,0,0,1,681.82,599.31Z" style="fill: #e2c575;fill-rule: evenodd"/>
    <path d="M646.57,615.89c-2.15-2.15-5.21-1.8-8-3.08-.61-.47-.61-1.81-1.22-1.94a19.38,19.38,0,0,1-4.29-.94c-1.54-.33-3.38.27-4.29-1.27a.41.41,0,0,0-.31-.4l-8.28-2.14c-1.22.74-2.75.74-3.06,2.35l-3.07-.67a9,9,0,0,1-3.67,2.56c-.31.27-.62.87-1.23.74-.61.2-1.53-.67-2.15-.47-.91-.19-1.53.35-1.53,1.35l9.81,4.82c.31-.27.92.2,1.53.33l10.42,3.62a18,18,0,0,1,5.83,1.27c.61.13,1.22.6,1.53,0a58.83,58.83,0,0,0,13.18,2.2l1.53-5.37a6,6,0,0,0-2.76-1.61Z" style="fill: #e2c575;fill-rule: evenodd"/>
    <path d="M642.89,552.32l-3.67,4.9c-1.23,1.42,1.53,2,2.45,1.54q19.77-8.12,39.53-16.31-17.93,4.24-35.86,8.39C643.51,551.44,644.12,550.91,642.89,552.32Z" style="fill: #e2c575;fill-rule: evenodd"/>
    <path d="M617.76,598.2a3.27,3.27,0,0,1-2.45-.54c-.31-.4-.31-1.07-.92-1.54l-2.76-1.61-.3-.74-2.46-.86-5.82-5a19.39,19.39,0,0,0-4.29-1.6l-8.27-1.78-1.23.07c-.31.61.31,1.41,0,1.68,0,.67-.92,1.15-1.23,1.75,0,.34,0,.67-.3.61l-2.45.82c-.62,1.21-3.07,3.71-3.38,4.32-.41.91-.81,1.83-1.22,2.75l2.76,2.27L597.84,609l2.45,1.2c1.23-.07,1.84-1.61,1.54-3l3.06.66c.61-.54,1.53-.67,1.84-1.61a2.37,2.37,0,0,0,0-2l4.6.33c.2-.52.41-1,.61-1.54l2.76-1.42,4.9.73a2.41,2.41,0,0,0-.31-2.08C618.68,599.74,617.76,599.21,617.76,598.2Z" style="fill: #e2c575;fill-rule: evenodd"/>
    <path d="M589,480.52s31,52,31,52c1.22,1.27,2.45,3.56,4,3.22a3.57,3.57,0,0,0,1.53-2.35c.62-2.22-.61-4.84-2.14-7.18Q606.12,503.36,589,480.52Z" style="fill: #e2c575;fill-rule: evenodd"/>
    <path d="M646.57,547.75Q663.88,536.91,681.2,526q-11.49,4.1-23,8.15Z" style="fill: #e2c575;fill-rule: evenodd"/>
    <path d="M682.12,617.84c0-1-.92-1.54-1.53-2.67-1.53-4-10.42-2.57-12.57-3.7-1.83.28-4.29.42-5.51-1.53-.31-.4-.92-.86-1.23-.6s-.31.95-.92.81l-3.37-.39c-.92.81-1.83,1.62-1.53,2.69A13.19,13.19,0,0,0,653,618a15.85,15.85,0,0,0-.92,3.83c-.31.27-.61.53-.61.87a2.09,2.09,0,0,0,1.53,1.68l6.43,0q10-1.54,19.92-3.11l4-1.5C682.43,619.58,682.43,618.57,682.12,617.84Z" style="fill: #e2c575;fill-rule: evenodd"/>
    <path d="M636.76,525.47q-1.83-30.78-3.67-61.55l-5.52,72.3c-.31,3.3,4,6.92,5.82,5.63L642,534a17.93,17.93,0,0,0,2.45-4.16Q651,508.44,657.61,487l-.31-.06Z" style="fill: #e2c575;fill-rule: evenodd"/>
    <path d="M582.82,576.89c-1.22-1.94-3.06-.65-4.59-.3-1.84.27-2.76-2.27-4.3-3.26-1.22-.93-2.75-.92-4.29-.91l-.3.27a4.86,4.86,0,0,0-3.07,1.38,2.26,2.26,0,0,1-2.14-.12c-.31.61-.61,1.22-1.54,1l-4.29-.56c-.61.21-.91.82-1.53,1.36a119,119,0,0,0,20.54,18.07c.61-.55,3.68-6.28,4.59-6.75,4.6-2,3.07-3,1.23-7.46C582.52,578.5,583.44,577.69,582.82,576.89Z" style="fill: #e2c575;fill-rule: evenodd"/>
    <path d="M604.58,464.76q8.13,25.59,16.25,51.2a31.89,31.89,0,0,0,3.67,6.84c.62.47,1.54.33,1.54-.34.2-2.86.41-5.73.61-8.59,0-1.34-.92-2.55-1.23-4Q615,487.34,604.58,464.76Z" style="fill: #e2c575;fill-rule: evenodd"/>
    <path d="M702.35,606.3a2.55,2.55,0,0,1-1.53-.65l-.92-1.2a14.85,14.85,0,0,0-4.9-4.71l-5.83,5.16-1.84,3a25.86,25.86,0,0,1-.61,2.56,22.21,22.21,0,0,1-1.53,7.73,1.54,1.54,0,0,0,.3,1.07,9.52,9.52,0,0,0,2.15-1.22c6.74-1.94,13.48-4.57,18.39-9.93-.11-.36-.21-.72-.31-1.08Z" style="fill: #e2c575;fill-rule: evenodd"/>
    <path d="M648.1,588.36l-5.21-2.48-9.5,6.33c.1.24.21.49.31.74l1.84.73c.3-.26.3-.6.3-1.27l3.38,2.74a18,18,0,0,0,3.06,2.35l5.21-2.22.92-1.48c.92-.47,1.84.4,2.45-.14s.92-1.48,1.53-1.68l-.61-1.14C650.56,590.91,649.63,589.37,648.1,588.36Z" style="fill: #e2c575;fill-rule: evenodd"/>
    <path d="M629.41,585.3a17.22,17.22,0,0,0,4,.87c.92.53,2.76.6,2.76.26l1.23-1.07-7-1.54Z" style="fill: #e2c575;fill-rule: evenodd"/>
    <path d="M621.44,561.41a.86.86,0,0,1-.31.6l-.3.27.3,1.74a7.16,7.16,0,0,0,2.45.87h1.54c.3.07.3-.26.61-.54l2.45-.13v-2l-6.13-1.67Z" style="fill: #e2c575;fill-rule: evenodd"/>
    <path d="M626.34,572.88c-.3.27-.3-.07-.61,1.21-.31.6,0,1,.31,1.07l6.43,1.74c.11-.2.21-.4.31-.6-.1-.7-.2-1.39-.31-2.08Z" style="fill: #e2c575;fill-rule: evenodd"/>
    <path d="M627.26,567.71l1.23,2.62,1.53.33,2.45.87v-1.68l1.23-.07.3-2.28-4.59-1Z" style="fill: #e2c575;fill-rule: evenodd"/>
    <path d="M625.42,586.78l1.23,2a8.68,8.68,0,0,0,4,.86c.31-.27.62-.54.62-.87l-.62-.81Z" style="fill: #e2c575;fill-rule: evenodd"/>
    <path d="M635.23,566.09l2.15,1.47,1.84.4v-2.68l-4.6-1.34C634.82,564.66,635,565.38,635.23,566.09Z" style="fill: #e2c575;fill-rule: evenodd"/>
    <path d="M625.73,577.78l-3.68-.8c-.61.54-.92,1.81-.3,2.28l2.45,1.21,1.22-.74.92-1.48C626.34,577.91,626,577.85,625.73,577.78Z" style="fill: #e2c575;fill-rule: evenodd"/>
    <path d="M634.62,576.36c0,.67.61,1.14.92,1.55l2.75.6.93-.14v-2l-4-.87C634.93,575.76,634.93,576.09,634.62,576.36Z" style="fill: #e2c575;fill-rule: evenodd"/>
    <path d="M632.47,579.59l-3.67-.47-.31,1.27a20.56,20.56,0,0,0,4.29,1.28.94.94,0,0,0,.31-1.28Z" style="fill: #e2c575;fill-rule: evenodd"/>
    <path d="M621.75,582.28l-.31,1.28a10.09,10.09,0,0,0,4.29.94c.31.06.31-.61.31-.94l-.62-.81Z" style="fill: #e2c575;fill-rule: evenodd"/>
    <path d="M635.23,571.46v1.34a17.87,17.87,0,0,0,4,1.21,1.43,1.43,0,0,0,.61-1.21l-.61-.81Z" style="fill: #e2c575;fill-rule: evenodd"/>
    <path d="M621.13,567.38v1.34a18.4,18.4,0,0,0,4,1.21,1.43,1.43,0,0,0,.61-1.21l-.61-.81Z" style="fill: #e2c575;fill-rule: evenodd"/>
    <path d="M635.84,580.66V582a6.12,6.12,0,0,0,3.38.73c.3.07.61-.53.61-.87-.21-.38-.41-.76-.61-1.14Z" style="fill: #e2c575;fill-rule: evenodd"/>
    <path d="M623,572.48l-1.53-.33c-.1.42-.2.85-.31,1.27,1.54.67.62.47,1.84.74a.93.93,0,0,0,.31-1.27Z" style="fill: #e2c575;fill-rule: evenodd"/>
  </g>
</svg>
