<svg xmlns="http://www.w3.org/2000/svg" viewBox="0 0 1260 1012.04">
  <g>
    <path d="M0,90.08v920C420,738.76,840,1193.28,1260,922V2C840,273.28,420-181.24,0,90.08Z" style="fill: #cc0001"/>
    <path d="M0,1010.08C420,738.76,840,1193.28,1260,922V856.25C840,1127.57,420,673.05,0,944.36Z" style="fill: #fff"/>
    <path d="M0,878.65c420-271.32,840,183.2,1260-88.11V724.83C840,996.14,420,541.62,0,812.93Z" style="fill: #fff"/>
    <path d="M0,747.22C420,475.9,840,930.43,1260,659.11V593.4C840,864.71,420,410.19,0,681.5Z" style="fill: #fff"/>
    <path d="M0,615.79C420,344.48,840,799,1260,527.68V462C840,733.28,420,278.76,0,550.08Z" style="fill: #fff"/>
    <path d="M0,484.36c420-271.31,840,183.21,1260-88.11V330.54C840,601.85,420,147.33,0,418.65Z" style="fill: #fff"/>
    <path d="M0,352.93c420-271.31,840,183.21,1260-88.1V199.11C840,470.43,420,15.9,0,287.22Z" style="fill: #fff"/>
    <path d="M0,221.5C420-49.81,840,404.71,1260,133.4V67.68C840,339,420-115.52,0,155.79Z" style="fill: #fff"/>
    <path d="M630,46C420,.22,210-45.58,0,90.08V615.79c210-135.66,420-89.86,630-44Z" style="fill: #010066"/>
    <path d="M293.25,88.87c14.65-.42,28.68,3.47,41.67,10.84C313.3,77.83,287.24,65.58,259.2,67.86c-74.77,5.4-135.45,116-135.45,224.76S184.43,467.54,259.2,462.15c27-2.2,52.18-14,73.32-33.31a96.94,96.94,0,0,1-39.27,9.64C227,439.92,173.14,375.5,173.14,279S227,90.3,293.25,88.87Z" style="fill: #fc0"/>
    <path d="M441.59,240q21.23-31.78,42.46-62.89-28.57,16.71-57.15,34.58,8.53-43.35,17.06-86.58-19.15,34.4-38.32,69.42-5.86-45.94-11.71-91.84-6,44.72-11.91,89.51-19.08-38.82-38.16-76.81,8.43,44.82,16.87,89.81-28.53-23.44-57.06-44.86,21.16,34.57,42.31,70.37c-21.55-2.22-43.1-3.58-64.65-3.88q29.69,17,59.36,36.45Q311,280.39,281.25,299.91c21.55-2.22,43.1-3.37,64.66-3.67q-21.23,33.87-42.46,68.92,28.57-22,57.15-41.84-8.53,43.94-17.06,88.05Q362.7,375,381.86,339.5q5.86,45.81,11.71,91.69,6-44.71,11.91-89.36,19.08,39.27,38.16,79.23-8.43-45.69-16.87-91.26,28.53,25.4,57.06,52.09-21.16-38.49-42.31-76.37c21.55,4.34,43.1,9.25,64.65,14.53q-29.68-23.82-59.36-46.55c19.81-9.27,39.63-18.06,59.44-26.55C484.7,244.18,463.15,241.78,441.59,240Z" style="fill: #fc0"/>
  </g>
</svg>
