<svg xmlns="http://www.w3.org/2000/svg" viewBox="0 0 1260 1012.04">
  <g>
    <path d="M0,90.08v920C420,738.76,840,1193.28,1260,922V2C840,273.28,420-181.24,0,90.08Z"/>
    <path d="M0,90.08V406.33C420,135,840,589.53,1260,318.22V2C840,273.28,420-181.24,0,90.08Z" style="fill: #fff"/>
    <path d="M0,90.08v287.5c420-271.32,840,183.2,1260-88.11V2C840,273.28,420-181.24,0,90.08Z" style="fill: #007168"/>
    <path d="M0,1010.08C420,738.76,840,1193.28,1260,922V605.33C840,876.65,420,422.13,0,693.44Z" style="fill: #fff"/>
    <path d="M0,1010.08C420,738.76,840,1193.28,1260,922V634.47C840,905.78,420,451.26,0,722.58Z" style="fill: #fce100"/>
    <path d="M0,90.08v920C183.75,738,367.5,604.94,551.25,489.2,367.5,298.27,183.75,124.71,0,90.08Z" style="fill: #d21034"/>
    <path d="M222.52,426.12q-19.4-63.4-38.78-125.43Q164.4,371,145.08,442.81A544.94,544.94,0,0,0,18.15,498.09c34.31,6.57,68.63,17.84,102.94,33Q101.26,604,81.42,678.68c34.1-42.29,68.19-80.4,102.28-115.13C217.84,583.56,252,607,286.12,633q-19.87-65.18-39.73-129.13c34.32-30.61,68.64-58.27,103-83.77C307.07,418.34,264.8,419.85,222.52,426.12Z" style="fill: #fce100"/>
    <path d="M247.88,447.08c0,.15-16.52-9.72-47.9-.47-31.39,9.64-42.4,8.55-42.4,8.35s-27.53,11.43-35.24,18.59c-.84,1-8.81,12.73-8.81,12.75q-9.36,47.12-18.72,94.63a537.13,537.13,0,0,1,73.78-23.87c5.94,5.81,19.18,5.74,31.8-6.89,23.12-18.73,67.86-8.65,67.86-8.3q4.41-5.43,8.81-10.78-10.74-38-21.47-75.69Q251.74,451.22,247.88,447.08Z" style="fill: #fff;fill-rule: evenodd"/>
    <path d="M256.64,455a1,1,0,0,0-.25-.45c-2.57-2.8-5.14-5.57-7.71-8.34a1.12,1.12,0,0,0-.24-.19c-.68-.23-17.19-9.81-48.58-.55-30.61,9.39-41.76,8.5-41.87,8.3a1,1,0,0,0-.54.07c-1.13.24-27.81,11.62-35.6,18.84a1.34,1.34,0,0,0-.2.21c-.87,1-8.08,11.66-8.9,12.89a1.84,1.84,0,0,0-.29.68q-9.36,47.13-18.72,94.67A1,1,0,0,0,94,582a.77.77,0,0,0,.86.1,537.15,537.15,0,0,1,73.3-23.74c3.5,3.18,9,4.47,15.21,3.12,5.54-1.2,11.7-4.47,17.67-10.44,22.47-18.1,66.52-8.47,67-8a1.1,1.1,0,0,0,1.1-.41q4.41-5.42,8.81-10.77a1.31,1.31,0,0,0,.25-1.19Q267.39,492.64,256.64,455Zm11.26,85.57a128.71,128.71,0,0,0-24.78-2.92c-18.92-.32-33.47,3.92-43.26,11.59l-.13.12c-11.88,11.92-24.49,12.45-30.31,6.74a.85.85,0,0,0-.83-.2,534.94,534.94,0,0,0-72.39,23.3q9.17-46.5,18.34-92.62c3-4.38,7.56-11.07,8.41-12.19,7.21-6.53,31.69-17.18,34.5-18.12,1.94.36,13.66.41,42.64-8.44,29.19-8.63,45.51-.37,47.09.31,2.48,2.66,4.95,5.32,7.43,8q10.61,37.18,21.21,74.73C273.18,534.05,270.54,537.29,267.9,540.53Z"/>
    <path d="M253.53,521.32c-32.21-1.9-54.62,8.14-68.59,18-9.52-2.47-22-2.33-37.41,1.13a179.12,179.12,0,0,0-38,13.66,1.82,1.82,0,0,0-1,1.7.77.77,0,0,0,1.23.59c.55-.71,44.44-21.66,72.37-15-8.85,6.81-13.73,13.24-15.09,16.07a1.13,1.13,0,0,0,.29,1.52,22.26,22.26,0,0,0,16,2.69c5.67-1.22,11.51-4.72,17.73-10.52a1.52,1.52,0,0,0,.47-.89,1.19,1.19,0,0,0-.21-.88,28.6,28.6,0,0,0-13.76-9.22c13.23-9,34.29-18.2,65.58-16.38a1.24,1.24,0,0,0,1.24-1.14A1.07,1.07,0,0,0,253.53,521.32Zm-54.61,28.93c-10.66,9.61-19.77,11.79-29.27,6.93A69.72,69.72,0,0,1,185,542C190.6,543.61,195.43,546.27,198.92,550.25Z"/>
    <path d="M185.11,456.19q-.27,42.58-.55,85.15m63.32-93.66q6.6,33.1,13.21,66.36m-138-40.6q-3.66,18.68-7.33,37.4"/>
    <path d="M123.32,472.18a1.66,1.66,0,0,0-1.32,1.36q-3.68,18.68-7.34,37.41c-.13.7.23,1.21.83,1.15l.25-.06a1.82,1.82,0,0,0,1.07-1.32q3.66-18.71,7.33-37.37C124.28,472.65,123.91,472.13,123.32,472.18Z"/>
    <path d="M185.12,455h0a1.5,1.5,0,0,0-1.1,1.43q-.28,42.57-.55,85.15a.9.9,0,0,0,1.09,1h0a1.51,1.51,0,0,0,1.1-1.44q.27-42.57.55-85.14A.9.9,0,0,0,185.12,455Z"/>
    <path d="M249,447.32a1,1,0,0,0-1.3-.8,1.35,1.35,0,0,0-.85,1.52q6.6,33.1,13.21,66.34a1,1,0,0,0,1.08.87,1,1,0,0,0,.23,0,1.3,1.3,0,0,0,.85-1.49Q255.55,480.44,249,447.32Z"/>
    <path d="M197.56,420.92l.4-2-.51,1.78Z" style="fill-rule: evenodd"/>
    <path d="M208.76,426q5.91-6.62,11.83-13.12a12.14,12.14,0,0,1,7.71,5.68q16.26-17.27,32.52-33.62a4.69,4.69,0,0,0,5.23.43q26.88-30.15,53.76-58.12-29.3,22.41-58.59,47.29L259.16,373c0-1.87,2.13-2.51,0-5.63-2.28-2.81-5.66,3.3-6.17,3.35s-8.48-2.27-10.23-6l-.57,10.43q-7.45,8.41-14.92,17-5.66.48-11.31,1.08-8.24,10-16.46,20.26c-.51,1.79-1,3.57-1.54,5.36-.13.68-.26,1.35-.4,2l2.46,4.92s-8.75,10.11-8.75,9.57-1.76-2.14-1.84-2.37q3.75-4.47,7.5-8.88l.63-3.24-.11-.24.51-1.78h0l-2.5-3.81c-.76.73-10.36,13.68-10.87,12.69-.86-1.09-27.77-27.87-27.77-27.66.51-2.2,1-4.4,1.54-6.61q-8.75-8.08-17.48-15.87c-6.38-.51-16.46,2.43-18.52,18.37-1.6,4.06-14.91,5.87-14.91,5.93q-3.6,2.19-7.2,4.46-20.32,39.53-40.63,81,11.31,9.38,22.63,19.38,23.13-42.16,46.28-81.86l1.38-18.64q4.84,4.35,9.71,8.82a18,18,0,0,0,9.25-3.86q13.73,12.84,27.43,26.46c-1.52,2-3.05,4-4.57,5.95,1.54,1.5,2.61,2.45,4.15,4,1.54-1.49,3-3.17,4.56-4.64.51.64,1.37,1.87,1.89,2.51-2.3,1.88-3.91,4.06-6.21,6-3.68-1.78-7.23-4.18-7-9.44q-7.71,8.91-15.43,18.09l-.51,2.95q-22.89,27.18-45.77,56.6-2.07,1.05-4.12,2.13-.51,6.68-1,13.35,14.92-19.3,29.83-37.61v-3.94l3.09,1.83q11.57-13.77,23.14-27s1.54,1.84,1,2-20.57,26-20.57,26.15c-.17.8-.35,1.6-.52,2.41-1.2,1.49-2.4,3-3.6,4.5l-2-1q-13.89,18-27.78,36.78l-4.11,1.59Q93.05,552.29,85.33,564c-4,2.09-7.43,4.07-10.8,8.14q-13.82,19.64-27.63,40.2Q55.57,619,64.25,626c2,.36,3.84-.58,5.65-2.67q12.85-22.87,25.72-44.95,5.4-9.51,10.8-18.87a13,13,0,0,0,2-7.54Q118.81,538,129.12,524.6c1.69-.42,2.7-.54,4.39-1-2,.07-3.46-.52-1.89-3.42,1.54-1.81,3.08-3.62,4.63-5.41l3.6,3.95s-5.15,8.91-5.66,9.08l-5.66,1.83q-5.4,7.14-10.8,14.39,2.37,1.45,4.72,2.93,3.55,9.45,7.11,19,4.37-4.82,8.74-9.54-2.82-10.11-5.65-20.19,6.16-9.3,12.34-18.43c-1.54-2.18-3.09-4.35-4.63-6.51l3.09-5.43c0-.48,42.71,17.72,59.17,7.54.45.09,1-21.19,1-21.19,0-.55-44.23,4.08-45.26-4.63-1-9.33,9.77-13.24,9.77-13.21q-2.31-3.09-4.63-6.16c.35-1.4.69-2.8,1-4.2q3.85,4.37,7.72,8.8,8.73-10.24,17.48-20.19c34.29,35.81,68.57,75,102.86,116.8,5.61-2.65,6.81-4.16,7.2-10.32-.07,0-25.27-31.49-50.46-60.49C224.15,469.22,199,442.31,199,442.36q3.85-5.22,7.71-10.39C208.22,429.83,208.76,428.94,208.76,426Z" style="fill-rule: evenodd"/>
    <path d="M319.18,326.24q-29,22.18-57.94,46.78c-.29-.21-.58-.42-.86-.64.05-.14.13-.29.22-.48.67-1.39,1.14-2.85-.59-5.38a2.65,2.65,0,0,0-2.27-1.1c-2,.07-3.6,2.22-4.72,3.63l-.29.37c-1.84-.45-7.71-2.62-9-5.32a1,1,0,0,0-1.2-.52,1.36,1.36,0,0,0-.89,1.21l-.54,9.95Q234,382.8,226.86,391q-5.42.47-10.85,1a1.22,1.22,0,0,0-.82.47q-8.22,10-16.45,20.29a1.36,1.36,0,0,0-.28.53l-.82,2.83-1.25-1.92a.89.89,0,0,0-.73-.39,1.19,1.19,0,0,0-.85.37c-.25.25-.75.89-2.26,2.81-1.87,2.4-6,7.74-7.6,9.29-3.39-3.61-23.8-24-26.91-26.86l1.38-5.93a1.09,1.09,0,0,0-.25-1.07q-8.74-8.1-17.48-15.9a.83.83,0,0,0-.46-.19,17.09,17.09,0,0,0-13.46,4.85c-3.43,3.42-5.61,8.4-6.47,14.72-1,1.82-7.88,3.83-13.63,4.71a1.43,1.43,0,0,0-.46.17c-2.4,1.47-4.79,3-7.19,4.47a1.81,1.81,0,0,0-.67.75Q79,445.62,58.72,487.14a1.21,1.21,0,0,0,.05,1.44q11.31,9.36,22.63,19.35a.79.79,0,0,0,.86.06,2,2,0,0,0,.85-.83Q106.26,465,129.4,425.38a1.79,1.79,0,0,0,.23-.72q.59-7.89,1.16-15.78,4,3.62,8,7.28a.79.79,0,0,0,.68.18,20,20,0,0,0,9.12-3.55Q161.68,425,174.77,438c-1.27,1.66-2.54,3.31-3.81,5a1.31,1.31,0,0,0-.05,1.68c.77.75,1.43,1.37,2.08,2s1.3,1.23,2.07,2a1,1,0,0,0,1.43-.13c.79-.76,1.57-1.57,2.34-2.38.45-.47.89-.94,1.34-1.39l.3.4.26.36c-.77.72-1.48,1.45-2.17,2.17s-1.56,1.63-2.4,2.38c-3.27-1.66-6.12-3.83-5.9-8.21a.92.92,0,0,0-.6-1,1.18,1.18,0,0,0-1.21.44q-7.71,8.94-15.42,18.11a1.65,1.65,0,0,0-.38.8c-.15.84-.29,1.68-.44,2.52q-22.61,26.9-45.22,56c-1.27.65-2.53,1.3-3.79,2a1.92,1.92,0,0,0-1,1.46l-1,13.36a.79.79,0,0,0,.58.94,1.36,1.36,0,0,0,1.22-.61q14.91-19.27,29.82-37.56a1.69,1.69,0,0,0,.4-1.06v-1.37l1.28.76a1.16,1.16,0,0,0,1.4-.42q11.1-13.22,22.21-25.91l0,.05c-1.78,2-6.48,7.71-20.08,25.61a1.71,1.71,0,0,0-.32.7c-.15.67-.29,1.34-.43,2l-2.66,3.33-1.35-.68a1.2,1.2,0,0,0-1.4.51q-13.72,17.79-27.45,36.41l-3.7,1.43a1.74,1.74,0,0,0-.78.66q-7.58,11.26-15.14,22.81c-4.08,2.15-7.51,4.25-11,8.52Q60,591.25,46.17,611.85c-.46.67-.5,1.45-.11,1.74q8.67,6.6,17.35,13.57a.66.66,0,0,0,.27.12,5.66,5.66,0,0,0,3.44-.49,10.73,10.73,0,0,0,3.37-2.74,1.9,1.9,0,0,0,.26-.37q12.87-22.86,25.72-44.92,5.4-9.48,10.79-18.82a14.88,14.88,0,0,0,2.34-7.9q9.95-13.38,19.9-26.32l1.68-.36c.69-.13,1.38-.27,2.25-.48a1.64,1.64,0,0,0,1.16-1.38c.1-.65-.26-1.13-.81-1.11-1.46.05-1.68-.33-1.71-.4s0-.53.36-1.18l3.62-4.24,2.4,2.63c-1.85,3.17-3.9,6.58-4.61,7.56q-2.66.84-5.31,1.72a1.6,1.6,0,0,0-.74.55q-5.4,7.14-10.8,14.41a1.79,1.79,0,0,0-.36,1,.86.86,0,0,0,.37.76l4.51,2.79q3.51,9.33,7,18.69a.75.75,0,0,0,.71.51,1.32,1.32,0,0,0,1-.48q4.37-4.8,8.74-9.53a1.59,1.59,0,0,0,.42-1.44q-2.75-9.82-5.49-19.61,6-9,11.93-17.78a1.38,1.38,0,0,0,.12-1.51c-1.41-2-2.81-4-4.22-5.93l2-3.55c6.33,1.95,43.55,16.82,59.28,7.08a1.57,1.57,0,0,0,.26-.19c.58-.54.91-.84,1.46-22.23a1,1,0,0,0-1-1.06c-31.58,2.2-43.92-.42-44.28-3.84a8.86,8.86,0,0,1,1.28-5.79c2.45-4,7.46-5.8,7.51-5.81a1.57,1.57,0,0,0,.89-.91,1.24,1.24,0,0,0-.09-1.18l-4.33-5.77c.09-.4.19-.8.29-1.2q3.19,3.61,6.38,7.28a.85.85,0,0,0,.76.27,1.35,1.35,0,0,0,.82-.48q8.32-9.75,16.66-19.23c34,35.56,68.09,74.46,102.14,115.91a1,1,0,0,0,1.24.29c6.08-2.87,7.48-4.86,7.89-11.36a1.28,1.28,0,0,0-.29-.89c-.38-.39-23.25-29-47.1-56.67-23.86-28-48.7-55-53-59.49l7.06-9.49c1.59-2.24,2.25-3.43,2.33-6.27q5.47-6.14,11-12.16a11.46,11.46,0,0,1,6.57,5.13.91.91,0,0,0,.76.42,1.1,1.1,0,0,0,.86-.39q15.94-16.89,31.87-32.91a5.79,5.79,0,0,0,5.7-.07,1.51,1.51,0,0,0,.23-.21q26.88-30.12,53.77-58.06a1.3,1.3,0,0,0,.08-1.64A1,1,0,0,0,319.18,326.24ZM197.67,424.92a1.73,1.73,0,0,0,.29-.51l.69,1.39c-2.73,3.13-5.61,6.39-7,7.85-.2-.24-.43-.5-.71-.79Q194.31,428.87,197.67,424.92ZM265.4,384.4a3.73,3.73,0,0,1-3.8-.4,1,1,0,0,0-1.49.06q-15.8,15.92-31.6,32.68a12.63,12.63,0,0,0-7.56-5.08,1.19,1.19,0,0,0-1.09.39Q214,418.56,208,425.19a1.5,1.5,0,0,0-.38,1c0,2.64-.42,3.22-1.76,5.11q-3.85,5.18-7.71,10.41a1.29,1.29,0,0,0,0,1.62c85.58,94,98.51,115.23,100.5,116.23-.36,4.89-1.24,6.21-5.76,8.42-34.12-41.59-68.23-80.62-102.34-116.31a1,1,0,0,0-1.54.19q-8.31,9.46-16.62,19.2-3.5-4-7-8a.89.89,0,0,0-1.08-.16,1.63,1.63,0,0,0-.85,1.07c-.34,1.4-.68,2.8-1,4.2a1.16,1.16,0,0,0,.16,1l3.65,4.85a18.15,18.15,0,0,0-7.23,6.31,11.91,11.91,0,0,0-1.76,7.72c1,9,35.83,5.63,45.23,5.49-.19,6.82-.53,16.72-.8,19.18-16.1,9-57.24-8.3-57.66-8a1.3,1.3,0,0,0-1.47.74l-3.08,5.44a1.32,1.32,0,0,0,0,1.39l4.17,5.84q-5.88,8.73-11.76,17.61a1.55,1.55,0,0,0-.26,1.22q2.73,9.71,5.45,19.42-3.47,3.75-6.93,7.57-3.3-8.86-6.61-17.66a.76.76,0,0,0-.31-.39l-3.79-2.36q4.78-6.42,9.57-12.73l5.23-1.69c.59-.18,1.06-.35,6.53-9.82a1.29,1.29,0,0,0,0-1.47l-3.6-4c-.38-.41-1.07-.28-1.55.28-1.54,1.8-3.09,3.6-4.63,5.41a2.27,2.27,0,0,0-.22.32,5,5,0,0,0-.8,3.39l-.72.18a1.37,1.37,0,0,0-.81.56q-10.32,13.45-20.65,27.38a1.75,1.75,0,0,0-.36,1.13,11.3,11.3,0,0,1-1.82,6.59q-5.4,9.38-10.79,18.88-12.8,22-25.6,44.8c-1.42,1.58-2.7,2.18-4.21,2q-8.26-6.68-16.52-13,13.35-19.85,26.72-38.81c3.09-3.73,6.21-5.56,10.27-7.69a1.8,1.8,0,0,0,.68-.64q7.56-11.49,15.11-22.71l3.65-1.41a1.7,1.7,0,0,0,.74-.58Q119.16,521.49,132.7,504l1.34.68a1.19,1.19,0,0,0,1.38-.49l3.6-4.5a1.6,1.6,0,0,0,.35-.73c.15-.68.29-1.35.44-2,7.24-9.58,18.8-24.28,20.05-25.53a1.88,1.88,0,0,0,.61-.76c.25-.61.33-1.28-1.23-3.14a.84.84,0,0,0-.74-.28,1.4,1.4,0,0,0-.83.48q-11.22,12.82-22.44,26.19l-2.39-1.42a1,1,0,0,0-1.18.21,1.78,1.78,0,0,0-.63,1.29v3.38q-13.69,16.86-27.4,34.54l.72-9.38c1.08-.57,2.16-1.12,3.23-1.67a1.76,1.76,0,0,0,.57-.49Q131,490.91,153.92,463.8a1.75,1.75,0,0,0,.38-.8c.14-.84.29-1.68.44-2.51q6.72-8,13.46-15.79c.75,4.2,4.05,6.33,7.32,7.91a1.07,1.07,0,0,0,1.12-.21,38.71,38.71,0,0,0,3.24-3.11,33.15,33.15,0,0,1,3-2.84,1.63,1.63,0,0,0,.55-.92,1.15,1.15,0,0,0-.19-.94c-.26-.32-.59-.78-.93-1.24s-.7-1-1-1.28a1,1,0,0,0-1.49.05c-.79.75-1.55,1.55-2.32,2.36-.49.5-1,1-1.46,1.51l-1.44-1.38c-.44-.41-.88-.82-1.35-1.28l3.81-4.95a1.32,1.32,0,0,0,.05-1.68q-13.71-13.62-27.42-26.5a1,1,0,0,0-1.32.1,16.41,16.41,0,0,1-8.22,3.49q-4.71-4.34-9.43-8.59a.94.94,0,0,0-1.17.05,1.76,1.76,0,0,0-.75,1.29l-1.35,18.27q-22.62,38.88-45.24,80.07Q71.62,495.49,61,486.66,80.95,446,100.9,407.22c2.18-1.36,4.37-2.72,6.55-4.05,3.57-.6,14.11-2.39,15.9-7a1.86,1.86,0,0,0,.1-.39c.73-5.67,2.57-10,5.47-12.9a14.66,14.66,0,0,1,11.33-4q8.44,7.49,16.89,15.29c-.46,2-.92,3.95-1.39,5.92a1.15,1.15,0,0,0,.24,1.06c.27,0,26.93,26.54,27.78,27.61h0a1.12,1.12,0,0,0,.74.31c1,0,2.13-1,9.6-10.61l1.13-1.45c.51.76,1,1.52,1.51,2.28-.12.41-.23.81-.35,1.21a1.29,1.29,0,0,0,0,.78l-.48,2.43-7.24,8.59a1.49,1.49,0,0,0-.31,1.34,2.85,2.85,0,0,0,.76,1,10.42,10.42,0,0,1,1.05,1.23,1,1,0,0,0,.64.77c.78.24,1,.25,9.92-10a1.39,1.39,0,0,0,.25-1.49q-1.14-2.3-2.27-4.57c.09-.51.19-1,.29-1.52l1.44-5q8-9.9,15.93-19.58,5.42-.57,10.83-1A1.21,1.21,0,0,0,228,393q7.46-8.6,14.91-17a1.38,1.38,0,0,0,.35-.84c.13-2.47.27-4.93.41-7.4a22.18,22.18,0,0,0,9.29,4.19c.6-.06.95-.5,1.64-1.37s2.11-2.66,3.05-2.72a.7.7,0,0,1,.58.3c1,1.49.8,1.94.41,2.76a4.82,4.82,0,0,0-.61,2.19,1.13,1.13,0,0,0,.44.93l2.06,1.53a1,1,0,0,0,1.29-.08q23.31-19.83,46.61-38Q286.94,360.27,265.4,384.4Zm-106,87.21a1.36,1.36,0,0,0,.41-.19A1.21,1.21,0,0,1,159.39,471.61Zm30.78-36Zm-.73-2.59h0Z"/>
  </g>
</svg>
