<svg xmlns="http://www.w3.org/2000/svg" viewBox="0 0 1260 1012.04">
  <g>
    <path d="M0,90.08v920C420,432.09,840,580,1260,2,840,273.28,420-181.24,0,90.08Z" style="fill: #003580"/>
    <path d="M0,1010.08C420,738.76,840,1193.28,1260,922V2C840,580,420,432.09,0,1010.08Z" style="fill: #009543"/>
    <path d="M0,1010.08C420,432.09,840,580,1260,2"/>
    <path d="M1260,2c-84.13,54.34-168.26,79.57-252.39,87.34C671.74,365.56,335.87,363.58,0,825.79v184.29c84.13-54.35,168.26-79.57,252.39-87.34C588.26,646.49,924.13,648.46,1260,186.25Z" style="fill: #fff"/>
    <path d="M0,1010.08C420,432.09,840,580,1260,2"/>
    <path d="M1260,2C1196.9,42.73,1133.81,67.11,1070.71,80,713.81,413.69,356.9,380.71,0,871.86v138.22C63.1,969.32,126.2,944.94,189.29,932,546.2,598.35,903.1,631.33,1260,140.18Z" style="fill: #d21034"/>
    <path d="M252,406.68q10.88-33.26,21.74-66.11-21.74,1.26-43.48,4.06Q241.14,375.44,252,406.68Z" style="fill: #ffce00"/>
    <path d="M170.86,290.5V242.88q-29.43,19-58.86,41.6A477.28,477.28,0,0,1,170.86,290.5Z" style="fill: #ffce00"/>
    <path d="M230.26,166.9q21.74-2.84,43.48-4.06Q262.87,131.24,252,100,241.13,133.25,230.26,166.9Z" style="fill: #ffce00"/>
    <path d="M333.14,274.64q29.43-11.13,58.86-20.17c-19.62-9.8-39.24-19-58.86-27.45Z" style="fill: #ffce00"/>
    <path d="M182,396.92q24.13-27.24,48.26-52.29Q211.44,335.17,192.6,327,187.31,361.89,182,396.92Z" style="fill: #ffce00"/>
    <path d="M170.86,242.88q10.88-23.24,21.74-46a494.61,494.61,0,0,0-61.84,4.47Q150.82,221.26,170.86,242.88Z" style="fill: #ffce00"/>
    <path d="M311.4,185.52q5.3-33.89,10.6-67.69-24.13,21.67-48.26,45Q292.57,173.64,311.4,185.52Z" style="fill: #ffce00"/>
    <path d="M311.4,315.63c20.61,3.81,41.23,8.5,61.84,13.91q-20.06-27.92-40.1-54.9Q322.27,295,311.4,315.63Z" style="fill: #ffce00"/>
    <path d="M130.76,354.67A647.85,647.85,0,0,1,192.6,327q-10.86-18.47-21.74-36.47Q150.81,321.76,130.76,354.67Z" style="fill: #ffce00"/>
    <path d="M192.6,196.87q18.84-15.65,37.66-30Q206.13,148.06,182,131.34,187.3,164.06,192.6,196.87Z" style="fill: #ffce00"/>
    <path d="M333.14,227q20.06-25.9,40.1-50.81c-20.61,2.33-41.23,5.38-61.84,9.31Q322.26,206.12,333.14,227Z" style="fill: #ffce00"/>
    <path d="M273.74,340.57q24.13,20.55,48.26,42.84-5.29-33.93-10.6-67.78Q292.56,327.59,273.74,340.57Z" style="fill: #ffce00"/>
    <path d="M252,169c-42.53,3.79-77,50.17-77,96.7s34.47,75.76,77,72c42.53-4,77-40.25,77-87C329,204.28,294.53,165.05,252,169Z" style="fill: #ffce00"/>
    <path d="M252,161.34c-46.32,4.11-84,55.37-84,106s37.68,82.06,84,77.95c46.32-4.3,84-43.55,84-94.43C336,200.33,298.32,157,252,161.34ZM252,330c-38.6,3.46-70-23.56-70-65.88s31.4-84,70-87.45,70,31.76,70,73.94C322,293,290.6,326.41,252,330Z" style="fill: #003580"/>
  </g>
</svg>
