<svg xmlns="http://www.w3.org/2000/svg" viewBox="0 0 1260 1012.04">
  <g>
    <path d="M0,90.08v920C420,738.76,840,1193.28,1260,922V2C840,273.28,420-181.24,0,90.08Z" style="fill: #009543"/>
    <path d="M0,90.08V703.41C420,432.09,840,886.62,1260,615.3V2C840,273.28,420-181.24,0,90.08Z" style="fill: #ed4135"/>
    <path d="M0,90.08V396.74C420,125.43,840,580,1260,308.63V2C840,273.28,420-181.24,0,90.08Z" style="fill: #0035ad"/>
    <path d="M420,165.43C306,149.67,213.53,300.7,213.53,467.61,213.53,633.74,306,752.7,420,768.46c114,15.1,206.47-95.62,206.47-263.21C626.47,339.79,534,180.53,420,165.43Z" style="fill: #fae600"/>
    <path d="M420,160.31C304.22,144.24,210,298.67,210,468.18c0,168.64,94.19,289.31,210,305.39C535.78,788.93,630,676.2,630,506,630,338.05,535.78,175.68,420,160.31Zm0,603C308.08,747.92,217,630.12,217,467.06c0-163.81,91-311.95,203-296.52,111.92,14.76,203,171.52,203,334C623,668.94,531.92,778.11,420,763.34Z"/>
    <path d="M385,508.24c23.33,2,46.67,5,70,8.48m-70-84.13c23.33,2,46.67,5,70,8.49M420,166.41v515.2"/>
    <path d="M424.2,166.93c-2.8-.35-5.6-.7-8.4-1V429.64q-15.41-1.83-30.8-3.18v12.26q15.4,1.35,30.8,3.18v63.38q-15.41-1.81-30.8-3.18v12.27q15.4,1.35,30.8,3.18V681.1c2.8.33,5.6.68,8.4,1V518.57q15.41,1.95,30.8,4.28V510.59q-15.4-2.34-30.8-4.28V442.93q15.41,1.94,30.8,4.28V434.94q-15.4-2.32-30.8-4.28Z"/>
    <path d="M455,686.17c-14.91-20.48-58.79-25.11-73.76-8.81-12.49,13.08-48.33,64.54-44.39,59.86,84.27,52.91,163.25,22.45,163.25,22C500.12,759.17,470.3,706.78,455,686.17Z"/>
    <path d="M420,556.9c-12.76-1.57-23.1,19.4-23.1,46.5S407.24,653.47,420,655s23.1-18.91,23.1-46S432.76,558.45,420,556.9Z"/>
    <path d="M420,448.21c-15.46-1.89-28,8.55-28,22.84s12.54,27,28,28.93,28-7.82,28-22.12S435.46,450.1,420,448.21Z"/>
    <path d="M420,313.61c-15.46-1.9-28,15.26-28,37.84s12.54,42,28,43.94,28-14.54,28-37.13S435.46,315.49,420,313.61Z"/>
    <path d="M453.59,206.75s.27.91-3.52,5.14c-24.27,27-55.28,23.34-59,53.07-.27,2.14-.61,24.58-1,30,0,0,2.17.61,7.29-5,4.64-5.1,29.13-3.89,53.52-64.36,5.11-12.66,2.67-18.92,2.68-18.89Z"/>
    <path d="M387.8,370.49c-4.45-13.73-16.1-35.07-16.1-35.05s5.48,23.37,6.3,46.48c1.31,36.83,25.45,40,42,42.09V403.56C407.6,402.05,396.83,398.25,387.8,370.49Z"/>
    <path d="M379.24,555.52c-2.77,43.06-8.24,76.31-8.24,76.31s8.81-15.26,19.13-51.52c5.38-18.94,18.13-28.95,29.87-27.5V524.19C393.36,521,380.59,534.6,379.24,555.52Z"/>
    <path d="M420,403.56V424c16.55,1.94,40.69,4.61,42-31.94a250.08,250.08,0,0,1,6.3-45s-11.65,18.58-16.1,31.23C443.17,403.91,432.4,405.08,420,403.56Z"/>
    <path d="M420,524.19v28.62c11.74,1.42,24.49,14.53,29.87,34.75C460.18,626.31,469,643.63,469,643.62s-5.47-34.53-8.24-78.25C459.41,544.14,446.64,527.5,420,524.19Z"/>
  </g>
</svg>
