<svg xmlns="http://www.w3.org/2000/svg" viewBox="0 0 1260 1012.04">
  <g>
    <path d="M0,90.08v920C420,738.76,840,1193.28,1260,922V2C840,273.28,420-181.24,0,90.08Z" style="fill: #0db02b"/>
    <path d="M0,90.08V703.41C420,432.09,840,886.62,1260,615.3V2C840,273.28,420-181.24,0,90.08Z" style="fill: #fff"/>
    <path d="M0,90.08V396.74C420,125.43,840,580,1260,308.63V2C840,273.28,420-181.24,0,90.08Z" style="fill: #e05206"/>
    <path d="M630,375.69c-84.5-19-153,27.28-153,99.56,0,71.69,68.5,142.06,153,161.11s153-27.29,153-99.57C783,465.11,714.5,394.73,630,375.69Z" style="fill: #e05206"/>
  </g>
</svg>
