<svg xmlns="http://www.w3.org/2000/svg" viewBox="0 0 1260 1012.04">
  <g>
    <path d="M0,90.08v920C420,738.76,840,1193.28,1260,922V2C840,273.28,420-181.24,0,90.08Z" style="fill: #007934"/>
    <path d="M383.48,3.13v920c164.35,14.1,328.69,71.69,493,85.79v-920C712.17,74.82,547.83,17.23,383.48,3.13Z" style="fill: #fff"/>
    <path d="M699.12,723.62c31.68,8.54,63.2,20.65,95,23.66,8.61-14.92-10.83-24.11-22.74-12.36-7-17.91-21.29-4.35-30.84-7.79s-5.13-19.6,7-14.65,33.76,5,37.8-2.37S783,693.7,763,697.74c-6.76-10.8-21.63-4-28.6-2.18-9.28-9.29-30.86-7.21-38.2-6.1C689,681.56,734,680.15,734,680c17.37,2.92,27.16.29,32.67-.85,26.25-15.89-.37-22.58-14.15-10.32-8.55-11.28-16.67-2.31-24.37-.1-7.23,2.08-20.59,1.91-22.23.55a.27.27,0,0,1-.08-.07s0-.06,0-.07l0-.06V669a.76.76,0,0,1,0-.11c1.08-2.19,20.87-15.83,20.87-15.86s25.69,2.3,30.83,2.12c3.13-.07,14.11-5.66,14.1-8.47-.09-1.76-4.66-2.36-18.52.19-12.48-.71-19.81-3.2-24.58-3.6-7.67-2.66-10.9-4.5-11.55-5.66l-.08-.19a.73.73,0,0,1,.08-.56l.12-.15c1.88-1.79,14-1,14-1s37.07,2.11,39.52-.4l0-.05,0-.11,0,0c.76-21.79-31.45-17.54-32.31-17.63.09-15.4-29.07-6-30.43-6.06h0A6.34,6.34,0,0,1,706,607.8a4,4,0,0,1,.08-1.2c.73-3,5.14-4.61,5.14-4.61,8.07-1.19,20.14.3,23.3-2.82,0,0,22.79,4.05,25.49-4.29-5.59-23.27-48.22-5.23-53.93-2.51a2.81,2.81,0,0,1-2.19-1.55c-1.88-4.36,7.37-15.55,7.68-16,0,0,0,0,0,0,1.41-.24,35.45,4,51.71-25.16,1.15-19.54-19.44,7.61-19.44,7.58-1.54-25.93-22.39-2.68-34.5-3.06s-12.46-10.57-4-10.43,18,3.1,22.75-14.61,19.1,4.78,21.67-1.68c2.48-6.25-4.69-13.31-5.14-13.75,0,0,10.63-14-6.62-16.77-17.07-2.73-39.14-11-39.59-11.13,1.07-.37,18.46-6.27,34.82-2.57,16.88,3.77,7.7-16.07-8.45-19.25s-24.58-13-24.58-13q13.77-4.61,27.53-9.34c-.61-3.85-1.22-7.68-1.84-11.53,0,0,16.15-15.47-6.61-15.72S694,414,694,414s-44.79.43-45.85.31h0c-.44-.19-4.87-3.16-5.7-5.81l-.08-.3c0-.11,0-.26,0-.36s0-.29,0-.4c.19-1.26,1.57-2.37,5.1-2.89,11.74-1.65,53.24-5.06,59.47-.65.81.57,1.4.6,1.76.24,2.34-2.6-5.45-23.75-24.54-30.56-22-7.87-35.57.32-35.57.33s-14.33-10.6-1.12-14.12,34.14,9.5,34.14,9.49,23.47-5.2,4-13.55S660,354.09,651,352.61c-3.56-7.2,30.53-1.37,32.66-6.28-3.6-10.35-24.69-5.28-37.05-8-5.25-4.38-5.6-9.72.36-11.66,12.6,2,24.45,5.66,37,7.62-.37-9.84,0-21.35-.36-31.19-16-7.62-34.73-4.36-43.7-6.93,2.4-10.12,36.91-5.41,40.75-7.52,7.93-12.67-33.1-7.32-34.1-7.35-7.28-3.14-6.84-9.73-2.23-12.74,10.65.55,34.51,9.72,32.71-1.16-1.39-10.11-16.55-8.11-22.79-7.33s-15.41-2.83-15.41-2.83c-4-8.67,36,3.19,35.61-2.94-.52-7-25.34-7.61-33.78-8.93-6.49-7.9,30.52-4.19,32.26-4.7l0-.05c1.39-17.4-25.69-5.53-30.83-6.67a3.34,3.34,0,0,1-2-1.31,4.66,4.66,0,0,1-.32-.53c-1.76-3.37-.2-9.88-.2-9.88s9.65-4.19,10.24-5.58l0,0v-.11l0-.07a.88.88,0,0,0-.12-.2c-1.13-1.51-7.77-6.15-8.64-6.45h0s0-.06,0-.06l0-.07,0-.07c-.5-1.6.12-12.06.12-12.06s7.64-6.66,8.12-9.86a.4.4,0,0,0,0-.11.48.48,0,0,0,0-.12v-.12a.41.41,0,0,0,0-.11v-.06a.56.56,0,0,0,0-.12s0-.05,0-.06a.25.25,0,0,0,0-.07l0-.06a.5.5,0,0,0,0-.13l0-.07-.12-.14-.08-.07c-1.93-1.77-9.91.5-9.91.5V176.28s7,.42,7.72-4.22a2.75,2.75,0,0,0,0-.81c0-.1,0-.26,0-.36a3.5,3.5,0,0,0-.2-.68.91.91,0,0,0-.08-.13c-1.6-3.35-8.12-5.18-8.12-5.18l-3.66-56.7q-1.66,25.72-3.31,51.47l-12.11,0s8.41,8.72,9.88,16a3.94,3.94,0,0,1-.2,2.68,2.54,2.54,0,0,1-.44.54c-2.43,2.2-9.64-.66-9.64-.66s9.55,13.84,10.28,18.27a1.55,1.55,0,0,1,0,.29,2.8,2.8,0,0,1,0,.29,2,2,0,0,1-.08.22,1.85,1.85,0,0,1-.32.56c-2.24,2.54-12.83,1.08-12.83,1.08s11.74,14.78,12.47,21.87a39.9,39.9,0,0,1,0,10.58c-.82-1.2-19.74-28.55-31.95-24.41a2.28,2.28,0,0,0-1.11,1.09,1.46,1.46,0,0,0,0,.69c.86,4,18.12,11.73,30.15,29.57-.29,3.72-34.31-19.57-35.57-9.85,1.07,3,36.61,18.21,39.24,25.57-13.09-2.16-40.13-12.92-39.24-6.43-2.73,6.66,25.54,8.67,37.41,17.19,3.47,6.5,3.14,11.25-2.91,10.53-11.44-10.44-37-21.87-37.09-11.73v.06l0,.06a.65.65,0,0,0,0,.13,1.29,1.29,0,0,0,.2.21c2.89,2.71,26.72,6.85,35.69,17.45-12.72,1.38-55.85-20.59-56.12-14.37,1.23,3.16,8.05,17.31,19.79,19.29s38.92,15.36,40.76,21.09a1.35,1.35,0,0,1,0,.47c-.8,3.54-35.79-19.14-49.24-12.72-13.94,6.58,40,12.34,48.8,26.05s-17.61-4.94-17.61-4.94S572.89,301,567.39,303.66s-11.76,9.82-11.76,9.82,3.66,11.39,7.33,10a1.34,1.34,0,0,1,1.16-.05h0a.25.25,0,0,0,0,.07l0,.07,0,.06,0,.07a1.5,1.5,0,0,1,0,.24c.08,1.61-2.51,5.72-2.51,5.72s51.4,29,62.78,47.53-65.33-39.2-65.33-39c0,0-30.83,10.2,1.83,18-3.64,7,1.51,12.8,1.83,13.16,0-.09,54.33,28.11,59.84,42.16s-37.07-20.35-46.61-29.26c-9.21-8.67-34.83-3.7-36.29-.84l0,.11v.29l0,.06v.06l.08.19,0,.06c1.64,2.95,13.08,8.9,13.42,13.49,0,0,0,0,0,.06a2.13,2.13,0,0,1-.11.72c-1.45,3.75-15.09,2.72-15.66,6.43a1.85,1.85,0,0,0,0,.23c0,4.05,68.65,39.29,87,65.83,18.35,26.35-53.94-38.39-53.94-38.28s4,8.84,0,10.13S552.31,407,528.83,422.09c-4.28,7.25,20.5,18.61,26.81,20.84-2.16,7.59-4,9.86,4.78,19.67,1,1.08,1.5,1.72,1.71,2l0,.07,0,.07v.11h-.08c-1.37-.61-17.19-15.67-18.84-16.48h-.12c0,1.07,1.83,14.25,1.83,14.25-8.13-11.24-18-16.07-27.17-8,0,.58-.08,9.74,9.16,17.22-5.21,14.45,5.89,11.75,23.51,29.74-26.18-15.22-28.28,2.89-9.56,10.85s70.11,21.66,82.22,47.26c2.55,5.39,3.24,8,2.75,8.64-2,2.22-20.61-21.35-23.31-22.65,0,0,0,0,0,0l0,.05s-.08.17-.12.26c-.66,2-1.27,11.06-1.27,11.06-7.83-8.27-15-15.72-24.38-20.49-.73,2-.58,5-1.32,7-8.49-10.69-15.9-18.51-28.24-21.89-.49,2.74-1,5.52-1.47,8.26,0,0-10.29-20.79-30.48-6-11.27,9.46,42.58,12.51,51.39,28.4,8.81,15.7,1.83,16.35,1.83,16.35-7.34-5.45-14.65-10.83-22-16.23,0,0-26.08-12.19-33.42-5-7.34,6.48,107.16,51.12,110.46,75.16,2.23,12.93-26.9-18.92-52.1-35.16q-1.47,5.79-2.95,11.58c-.6-1-10.34-16.8-21.27-21.4l0,.05v.12c0,1.75,2.23,14.68,2.23,14.68s-28.23-24.92-42.54-17.38c-14.32,7.27,49.89,25,55.77,36.07a5.4,5.4,0,0,1,.87,2.5,1.07,1.07,0,0,1-.08.27c-1.42,2.7-20.56-12.36-22.46-7.2-2.21,5.88-33.39-18.24-33-9.58a27.68,27.68,0,0,0,4.43,14.13c0-.26,64.95,21.94,67.16,33.8,2.2,11.61-36-13.9-36-13.83s-3.7,7.21-.76,11.53a4.06,4.06,0,0,1,.24.4v.06h0c-1.33-.93-22-24.67-20-9.16-8.09-6.28-29-24.58-26.05-12.84,2.89,11.32,57.39,37.66,59,38.64-1.44-.17-24.49-2-23.42,7-30.89-33.34-30.82-16.75-30.11-15.39v.05c-1.74-.79-39.74-21.1-9.52,7.89,16.2,15.63,20.15,21.4,20.23,23.31a1.08,1.08,0,0,1,0,.18.75.75,0,0,1,0,.16l0,0a.49.49,0,0,1,0,.11l0,.05,0,0,0,0s0,.05,0,.05c-.62.47-2.14-.06-2.59-.14h-.08l0,0,0,.06c.44,1,2.81,10.86,2.67,12.48a.36.36,0,0,1,0,.11s0,.05,0,.05h0v0h-.08c-1.32-.76-21.34-20-28.2-22.15s-40,6.75-4.78,34.87C514.9,737.24,536.54,714,556,721.17s28.65,14,26.81,22.69-19.9-34-38.88-4.27c-21.59-10.57-36.24-16.83-25.09,8.3-35.27-25.72-56.8-4.31-12.39,13.64,43.64,10,70.47-1.26,70.47-1.34s7.36,21.31,18,9.75c10.14-11,10.94,6,11.31,7.65,0,0,0,0,0,.07s0,.05,0,.06h0c.79-.12,10.24-4.2,10.24-4.2l2.59.56V902q17.8,4.15,35.57,8.27s-11.37-113.82-5.14-127.38c6.05-13.14,11.76-10.35,12.11-10.16,0,0,23.13,15.06,25.7,14l.12,0,.08,0a1.07,1.07,0,0,1,.16-.14s0,0,0,0c1.87-2.1,0-12.32,11.71-8.37,3.62-1.16,2.24-9.85,4.58-11.43l.16-.08a1.1,1.1,0,0,1,.32-.11,1.81,1.81,0,0,1,.47,0c3.67.53,74.5,43.46,89.91,17.7-4-16.07-18-4-21.67-4.12-3.3-.56-17.26-12.64-25.33-4.58-7.34-9.29-40.72-21.27-40.72-21.33-4.4-6.88,79.64,18.71,84.41,14.06,9.91-12.76-18.34-15.76-22.74-11.82-7.83-8.3-17.67-9.61-23.67-6-2.87-10.48-30.16-11.48-45.33-17.53C695,727.72,695.83,725.51,699.12,723.62ZM628,296.75s-8.23-2.41-9.76-4.62l0-.06,0-.07,0-.07,0-.06a.93.93,0,0,0,0-.13s0,0,0-.05l0-.07s0-.05,0-.06a.41.41,0,0,1,0-.11s0-.05,0-.06,0-.05,0-.06a.9.9,0,0,1,0-.16l0-.05.08-.16,0,0,.08-.1.2-.19c2.76-2.2,8.28-.93,9.36-1.14h0s0,0,0-.05h0s0,0,0-.05h0Zm-64.73,419s-10.47-6.41-13.78-15.62a6.8,6.8,0,0,1,2.07-.1h0c5.29.62,11.2,6.58,11.87,7.2h0C563.48,707.48,563.28,715.73,563.28,715.73Zm35.57-80.81c.3-.33.92-.47,1.88-.29h0l.24,0c15.67,5.85,21.53,15.65,23.18,19.44C621,661.39,596.25,638.16,598.85,634.92Zm-8.64,43.54s0-.1,0-.12v-.47s0-.08,0-.1v-.06a5.28,5.28,0,0,1,3.35-.73h0c3.31.47,6.2,4.25,9.24,7.43,6.76-.54,20.63,6.05,20.63,6.05v8.91l0,0h0c-1.26,0-17.52-4.53-21.15-8.65C599.24,690.12,590.86,681.89,590.21,678.46Zm33.54,47.24a1.81,1.81,0,0,1-.32.22c-3.22,1.75-18.65-6-19.56-15.19,1.82-2.39,4.51-2.88,7.33-2.46h0c5.79.87,12.07,5.58,12.07,5.58C623.42,714.31,626.38,723.43,623.75,725.7Zm-34.93-256h0c9,1.24,36.15,25.26,37.48,26.11h0c-.14.78-.16,7.31-.28,8.33v.11h0c-.73-.75-38-31.28-39.63-29.82C585.36,470.69,586.42,469.37,588.82,469.7Zm-17.33,29.75v-.06a2.71,2.71,0,0,1,0-.29,2.13,2.13,0,0,1,.28-.87c.37-.59,1.24-1.17,3.26-.93h0c5.26.64,18.27,6.52,50.39,30.48l1.08,9.38S573,500.48,571.49,499.45ZM586,327.78l-.24-.11a3.11,3.11,0,0,1-.28-.23l-.12-.09,0-.06a2.25,2.25,0,0,1-.28-.47l0-.06,0-.13v-.06s0-.1,0-.12v-.29l0-.22a1.31,1.31,0,0,1,.24-.47c.54-.66,1.89-1.14,4.5-.77h0c5.26.73,15.7,4.77,35.3,16.9,0,.61.39,8.07.24,9.25l0,0s0,.05,0,.06,0,.05,0,.05c-.31-.31-35.66-22.73-38.88-23.17A2.3,2.3,0,0,1,586,327.78Zm1.47,75.28h0c4.52.61,15,6.47,38.44,26,.06,2.84.11,5.69.16,8.53,0,0-39.64-26.08-41-29.24C584.31,406.75,583.05,402.46,587.42,403.06Zm40.15,55.09h0c-1.78-1.26-53.9-39.11-53.9-39-.06-.31-.84-5,4.54-4.31h0c5.92.8,19.28,8.2,49.24,35.34C627.42,450.34,627.68,457.5,627.57,458.15Zm.2-88.75s0,0,0,.05l0,.05,0,.05-.08,0h0l-.07,0h0c-1.15-.67-21.07-14.2-21.83-18.12a.59.59,0,0,1,0-.23.71.71,0,0,1,.12-.38l0-.05,0,0a2.7,2.7,0,0,1,2.19-.28h0c5.63.93,19.13,8.59,19.87,8.49C627.85,360.51,628.45,368,627.77,369.4Zm11.92-67.68c.28.07,16.39,3.77,17.8,7.11l0,.13,0,.18v.11a1.08,1.08,0,0,1,0,.18l0,.16c-1.23,3.53-17.53,2.27-17.53,2.27l-.31-10.14Zm-.32,20.7v-.06a.16.16,0,0,1,0-.07c-.28-.89-.56-6.25-.56-6.25h.08c1,.57,7.63,2.34,8.44,4.15,0,0,0,.05,0,.07s0,.05,0,.06,0,0,0,.06,0,.05,0,.06v.12s0,0,0,.05,0,.05,0,.06l0,.05s0,.05,0,.06,0,.08,0,.1,0,.05,0,.05,0,.05,0,.06c-1.38,2.16-7.54,1.48-7.84,1.42Zm1,58.22c.57,0,14.06.43,23.11,2.12h0c5.38,1,9.17,2.49,7.76,4.56-3.84,5.67-30.39,5.23-30.39,5.22Zm52.35,190.43c0,.09.06.22.07.31a2.37,2.37,0,0,1,0,.53,6,6,0,0,1-1.59,3.08c-2.61,3.07-44.26,13.27-44.25,13.24s-.32-12.78-.16-13.86C671.12,569,683,568,688.52,568.82h0C691.17,569.23,692.32,570.11,692.67,571.07Zm-45.58,45.36c.73.15,25.61-4.4,31.83-3.32h0c.82.15,1.33.45,1.4.82v.12a2.09,2.09,0,0,1-.8,1.1c-6.92,5.69-32.9,7.38-32.9,7.37S646.94,617.6,647.09,616.43ZM646,603.94v-6.31c3.25.55,10.48.59,15.57,1.41h0c2.65.43,4.72,1.1,5.34,2.14a1.15,1.15,0,0,1,.12.25,1.29,1.29,0,0,1,0,.19,1,1,0,0,1,0,.17,1.41,1.41,0,0,1,0,.29,2.24,2.24,0,0,1-.2.54C663.33,606.93,646,603.94,646,603.94ZM643.71,434h0c.9.16,15.44-2.27,21.35-1.44h0a3.33,3.33,0,0,1,2.35,1l0,.07a1.16,1.16,0,0,1,0,.18s0,.14,0,.18a1.74,1.74,0,0,1-.36.85c-3.69,5.24-23.5,6.95-23.5,6.94Zm.12,43.75h0l0-.06,0-.13v-.06a.42.42,0,0,1,0-.12,57,57,0,0,1,.48-7.07v-.06h0s0,.07,0,.07h0c1.92.38,25-2.06,33.14-.83h0c1.51.23,2.51.63,2.75,1.16a2,2,0,0,1,0,.24,1.3,1.3,0,0,1-.4.78c-4.73,5.22-34.86,6.21-35.93,6.08Zm.2,13c.73-.06,17.3-.08,24.93,1.06h0a8.07,8.07,0,0,1,3.67,1.13.71.71,0,0,1,.12.2v.12s0,.09,0,.11l0,.05a1.58,1.58,0,0,1-.12.15c-2.77,3-28.44,4.79-28.44,4.78S644,491.44,644,490.77Zm22.86,24.5h0c1.81.3,3.09.73,3.39,1.25l0,.07s0,.09,0,.11,0,.06,0,.07,0,0,0,.05,0,.09,0,.11l0,.05-.08.16-.12.15c-2.77,2.89-24.54,4.82-24.54,4.81s-.6-7.71-.6-7.94C645.55,514.32,660.1,514.14,666.89,515.27ZM645.5,532.39c.64.34,9.61,2.72,11.27,5.11l0,.06,0,.07,0,.07a.56.56,0,0,1,0,.12l0,.07a.58.58,0,0,1,0,.18v.29a.49.49,0,0,1,0,.11s0,0,0,.06l0,.1c-1.38,2.83-10.75,2-10.75,2s-.46-6.22-.68-8.19Zm0,22.51h0c.95,0,14.7-1.25,21.63,0h0c2.09.37,3.59,1,3.9,2,.18.64-.16,1.45-1.15,2.41-7.68,7.51-24.42,5.66-24.42,5.65Zm.28,86.65v-.12c0-1,.48-6.26.48-6.26,12.49-8.11,35.19-13.39,47.2-11h0c3.06.6,5.4,1.74,6.73,3.42h0v.23a11.25,11.25,0,0,1-8.92,8.84c-8.54-2.85-44.78,4.87-45.49,4.94ZM657,673.12a4.51,4.51,0,0,1,2.67,1.16,1.71,1.71,0,0,1,.2.27,1,1,0,0,1,.08.14l.08.19a1,1,0,0,1,0,.18,2.92,2.92,0,0,1-.2,1.69c-2.46,6.17-13.22,1.36-13.22,1.35v-4.68h0c.6.2,6.54-.9,10.31-.31Zm9.17,59.42c-2.92,4.5-19.52-3.76-19.52-3.77v-6.24a14.85,14.85,0,0,1,5.69.25h0c5.9,1.23,13,4.78,14.07,7.9A2.19,2.19,0,0,1,666.14,732.54Zm.16-30.34c-5.54,10.2-19.84,2.42-19.84,2.42l-.6-7.19c5,1.39,14.27-1.23,18.8-.61h0C667.21,697.17,668.28,698.54,666.3,702.2Zm15.93-43.9c.42-.13,5.31-3.22,8.32-2.76h0a2.69,2.69,0,0,1,1.6.86,3.21,3.21,0,0,1,.44.73,4.45,4.45,0,0,1,.27,1.44C691.23,661.91,682.76,658.52,682.23,658.3Z" style="fill: #007934"/>
    <path d="M634.54,108.17v0Z" style="fill: #007934"/>
  </g>
</svg>
