<svg xmlns="http://www.w3.org/2000/svg" xmlns:xlink="http://www.w3.org/1999/xlink" viewBox="0 0 1260 1012.04">
  <defs>
    <clipPath id="a">
      <path d="M630,393.13c-26.75,50.56-53.51,101.11-80.26,152,53.5,10.92,107,23.34,160.52,34.26Q670.14,486.65,630,393.13Z" style="fill: none"/>
    </clipPath>
    <linearGradient id="b" x1="627.43" y1="481.27" x2="631.19" y2="492.51" gradientTransform="matrix(1, -0.07, 0, 1, 0, 44.05)" gradientUnits="userSpaceOnUse">
      <stop offset="0" stop-color="#510000"/>
      <stop offset="0.3" stop-color="#8a0000"/>
      <stop offset="1" stop-color="#a00"/>
    </linearGradient>
    <linearGradient id="c" x1="630.09" y1="488.14" x2="633.36" y2="496.77" gradientTransform="matrix(1, -0.07, 0, 1, 0, 44.05)" gradientUnits="userSpaceOnUse">
      <stop offset="0" stop-color="#ff2a2a"/>
      <stop offset="1" stop-color="red"/>
    </linearGradient>
    <linearGradient id="d" x1="560.08" y1="540.07" x2="799.36" y2="540.07" gradientTransform="matrix(1, -0.07, 0, 1, 0, 44.05)" gradientUnits="userSpaceOnUse">
      <stop offset="0" stop-color="#025"/>
      <stop offset="0.5" stop-color="#04a"/>
      <stop offset="1" stop-color="#025"/>
    </linearGradient>
    <linearGradient id="e" x1="560.08" y1="538.36" x2="799.36" y2="538.36" xlink:href="#d"/>
    <linearGradient id="f" x1="560.08" y1="536.65" x2="799.36" y2="536.65" xlink:href="#d"/>
    <linearGradient id="g" x1="560.08" y1="534.94" x2="799.36" y2="534.94" xlink:href="#d"/>
    <linearGradient id="h" x1="560.08" y1="533.23" x2="799.36" y2="533.23" xlink:href="#d"/>
    <linearGradient id="i" x1="560.08" y1="531.52" x2="799.36" y2="531.52" xlink:href="#d"/>
    <linearGradient id="j" x1="560.08" y1="529.81" x2="799.36" y2="529.81" xlink:href="#d"/>
    <linearGradient id="k" x1="560.08" y1="528.1" x2="799.36" y2="528.1" xlink:href="#d"/>
    <linearGradient id="l" x1="560.08" y1="526.39" x2="799.36" y2="526.39" xlink:href="#d"/>
    <linearGradient id="m" x1="562.46" y1="519.79" x2="793.61" y2="519.79" xlink:href="#d"/>
    <linearGradient id="n" x1="563.68" y1="517.64" x2="790.64" y2="517.64" xlink:href="#d"/>
    <linearGradient id="o" x1="562.97" y1="518.88" x2="792.36" y2="518.88" xlink:href="#d"/>
    <linearGradient id="p" x1="563.36" y1="518.23" x2="791.41" y2="518.23" xlink:href="#d"/>
    <linearGradient id="q" x1="561.89" y1="520.85" x2="794.97" y2="520.85" xlink:href="#d"/>
    <linearGradient id="r" x1="561.33" y1="521.9" x2="796.32" y2="521.9" xlink:href="#d"/>
    <linearGradient id="s" x1="560.08" y1="524.19" x2="799.36" y2="524.19" xlink:href="#d"/>
    <linearGradient id="t" x1="560.76" y1="522.97" x2="797.7" y2="522.97" xlink:href="#d"/>
    <linearGradient id="u" x1="575.55" y1="510.26" x2="586.16" y2="510.26" xlink:href="#d"/>
    <linearGradient id="v" x1="678.25" y1="539.55" x2="688.86" y2="539.55" xlink:href="#d"/>
    <linearGradient id="w" x1="665.88" y1="546.16" x2="665.88" y2="535.2" gradientTransform="matrix(1, -0.07, 0, 1, 0, 44.05)" gradientUnits="userSpaceOnUse">
      <stop offset="0" stop-color="#f5f549"/>
      <stop offset="1" stop-color="#97c924"/>
    </linearGradient>
    <linearGradient id="x" x1="646.55" y1="540.7" x2="646.55" y2="529.72" xlink:href="#w"/>
    <linearGradient id="y" x1="629.97" y1="536.07" x2="629.97" y2="524.79" xlink:href="#w"/>
    <linearGradient id="z" x1="605.71" y1="528.05" x2="605.71" y2="517.58" xlink:href="#w"/>
    <linearGradient id="aa" x1="586.27" y1="522.47" x2="586.27" y2="512" xlink:href="#w"/>
    <linearGradient id="ab" x1="555.43" y1="546.19" x2="701.84" y2="546.19" xlink:href="#d"/>
    <linearGradient id="ac" x1="550.16" y1="560.95" x2="709.83" y2="560.95" xlink:href="#d"/>
    <linearGradient id="ad" x1="550.16" y1="558.97" x2="709.83" y2="558.97" xlink:href="#d"/>
    <linearGradient id="ae" x1="550.16" y1="557" x2="709.83" y2="557" xlink:href="#d"/>
    <linearGradient id="af" x1="550.16" y1="555.02" x2="709.83" y2="555.02" xlink:href="#d"/>
    <linearGradient id="ag" x1="550.16" y1="553.04" x2="709.83" y2="553.04" xlink:href="#d"/>
    <linearGradient id="ah" x1="550.16" y1="551.07" x2="709.83" y2="551.07" xlink:href="#d"/>
    <linearGradient id="ai" x1="550.16" y1="549.1" x2="709.83" y2="549.1" xlink:href="#d"/>
    <linearGradient id="aj" x1="550.16" y1="547.12" x2="709.83" y2="547.12" xlink:href="#d"/>
    <linearGradient id="ak" x1="550.16" y1="545.15" x2="709.83" y2="545.15" xlink:href="#d"/>
  </defs>
  <g>
    <path d="M0,90.08v920C420,738.76,840,1193.28,1260,922V2C840,273.28,420-181.24,0,90.08Z" style="fill: #0067c6"/>
    <path d="M0,703.41C420,432.09,840,886.62,1260,615.3V308.63C840,580,420,125.43,0,396.74Z" style="fill: #fff"/>
    <path d="M522.38,467.08c-1.15-.73-2.56-1.09-3.56-.28-1.26.89-1.49,2.87-1.65,4.6-.22,3.3-.38,6.62-.57,9.92h0l12.57,3.45c0-.74.08-1.48.13-2.21l-4.95-1.37c.13-2.43.3-4.86.38-7.3l5.25-3.6.15-2.8-5.53,3.8A5.7,5.7,0,0,0,522.38,467.08Zm.42,9.31-.24,4.31-4-1.11c.16-2.48.25-5,.45-7.45.15-1.2.34-2.6,1.23-3.22s2,.22,2.33,1.39C523.17,472.35,522.88,474.4,522.8,476.39Z" style="fill: #c8a400"/>
    <polygon points="518.24 458.13 518.24 458.13 518.24 458.13 518.24 458.13" style="fill: #c8a400"/>
    <path d="M529.18,461.07l-3.74-1.79q1.08-5.36,2.14-10.72l-1.73-.83q-1.07,5.36-2.14,10.72l-3.3-1.57,2.28-11.46-1.75-.84-2.7,13.55q6.13,2.92,12.27,5.87l2.79-14-1.75-.84Z" style="fill: #c8a400"/>
    <path d="M532.32,435.19a8.43,8.43,0,0,0-.16-5.62A4.73,4.73,0,0,0,529,427a3.1,3.1,0,0,0-3.09,2.12,47,47,0,0,0-2.06,6.1l-1.14,3.76q5.94,3.68,11.9,7.37l.6-2-4.68-2.9C531.09,439.33,531.76,437.29,532.32,435.19Zm-3.53,5.16L525,438h0c.63-2.05,1.21-4.14,1.9-6.15.43-1.07.95-2.33,2-2.48.89-.08,1.82.94,1.9,2.07.22,2.09-.52,3.88-1,5.68C529.44,438.18,529.11,439.26,528.79,440.35Z" style="fill: #c8a400"/>
    <path d="M540.12,413.33l-4.35-4-.93,1.74c2.14,1.95,4.29,3.88,6.41,5.86a5,5,0,0,1,1.68,4A10.3,10.3,0,0,1,541,425.4a2.5,2.5,0,0,1-3.11,1.19,15.8,15.8,0,0,1-3.49-2.77l-4.29-3.9c-.3.58-.61,1.16-.92,1.74,2.24,2,4.47,4.09,6.73,6.1,1.27,1.08,2.88,1.88,4.21,1.21,1.82-.85,3-2.88,3.85-4.91a7.71,7.71,0,0,0,.31-6C543.37,416,541.62,414.76,540.12,413.33Z" style="fill: #c8a400"/>
    <path d="M550.86,401.55a2.49,2.49,0,0,0-1.79.36,4,4,0,0,0-2-4c-1.48-1-3-.09-4,1-1.16,1.3-2.13,2.83-3.19,4.26-.54.74-1.08,1.49-1.61,2.24q5,5.65,10,11.34c1.56-2.15,3.1-4.31,4.67-6.45a6.36,6.36,0,0,0,1.11-5.29A5.29,5.29,0,0,0,550.86,401.55Zm-7.35,6.93-2.67-3c1.18-1.59,2.28-3.25,3.51-4.77.57-.66,1.49-1.35,2.37-.61a2.31,2.31,0,0,1,.62,2.69,21.91,21.91,0,0,1-2.46,3.8C544.42,407.2,544,407.84,543.51,408.48Zm8.8-1.71c-.5,1.91-1.74,3.19-2.73,4.65-.52.72-1,1.45-1.57,2.17l-3.09-3.51c1.22-1.64,2.36-3.37,3.64-4.94.66-.7,1.48-1.58,2.52-1.13A2.54,2.54,0,0,1,552.31,406.77Z" style="fill: #c8a400"/>
    <path d="M558.56,401.13l-.15.14-.11-.16L551,390.18l-1.33,1.26q4.33,6.45,8.65,12.92l7.42-7-1.23-1.84Q561.52,398.33,558.56,401.13Z" style="fill: #c8a400"/>
    <path d="M560.74,381.91l7.68,13.76,1.5-1.09-7.68-13.76Z" style="fill: #c8a400"/>
    <path d="M580.6,382.24c.45,3.16-1.17,4.28-3,5.3-2.84,1.51-5.62.77-7.32-2.75-1.76-3.94.17-6.49,2.59-7.89,1.72-.94,3.41-1.48,5,.11l1.37-1.19a5.48,5.48,0,0,0-3.22-1.75,6.29,6.29,0,0,0-4,.88h0a8.47,8.47,0,0,0-3,2.7,7,7,0,0,0-1.25,3.76,9.2,9.2,0,0,0,.92,4.26,10,10,0,0,0,2.49,3.36,5.73,5.73,0,0,0,3.38,1.46,7.6,7.6,0,0,0,4.12-1.1,7.27,7.27,0,0,0,3.15-3.21,7.37,7.37,0,0,0,.52-4.4Z" style="fill: #c8a400"/>
    <path d="M586.92,369.07h0L585.6,386l2-.54c.13-1.75.27-3.5.4-5.25h0l6.37-1.76,3.32,4.22,2-.54-10.74-13.57Zm1.22,8.74c.17-2.21.33-4.41.5-6.61l4.19,5.31Z" style="fill: #c8a400"/>
    <path d="M623.92,367.32a21.93,21.93,0,0,0-5.81-1.26l-3.58-.5h0q.4,7.74.79,15.47c2.27.31,4.55.68,6.82.94,1.79.14,3.71,0,4.93-1.47,1.57-1.78,1.8-4.91,1.11-7.71A8.16,8.16,0,0,0,623.92,367.32Zm2.7,8.43c-.09,2.11-1.37,3.79-3.08,4a17.61,17.61,0,0,1-3-.12l-3.52-.5L616.47,368h0c1.81.27,3.62.45,5.43.83a5.22,5.22,0,0,1,2.89,1.71A7,7,0,0,1,626.62,375.75Z" style="fill: #c8a400"/>
    <polygon points="616.47 368.01 616.47 368.01 616.47 368.01 616.47 368.01" style="fill: #c8a400"/>
    <path d="M631.38,383.63l12.24,3.52c0-.72.07-1.43.1-2.15l-10.41-3c.07-1.53.14-3.07.22-4.61l9.38,2.7c0-.71.07-1.43.1-2.14l-9.38-2.7c.06-1.36.13-2.72.19-4.08l10,2.88c0-.72.07-1.44.1-2.16l-11.85-3.41Z" style="fill: #c8a400"/>
    <path d="M671.85,399.75c-.06.18-.12.36-.19.54-.06-.23-.13-.46-.2-.69l-4.35-16.13L665,382l-4.56,13.31,1.62,1.12,3.61-10.56c.06-.18.13-.36.19-.55l.2.7,4.35,16.14,2.12,1.46q2.28-6.66,4.55-13.32l-1.62-1.11Q673.66,394.47,671.85,399.75Z" style="fill: #c8a400"/>
    <path d="M674.51,405.51l1.68,1.41,5.73-12.44-1.68-1.4Z" style="fill: #c8a400"/>
    <path d="M691.43,403.26h0a12.94,12.94,0,0,0-3.76-2.74,5.15,5.15,0,0,0-3.52-.44,4.53,4.53,0,0,0-2.66,2.16,7.75,7.75,0,0,0-1.07,3.7,9.18,9.18,0,0,0,.84,4.23,15.66,15.66,0,0,0,3.2,4.4,9.81,9.81,0,0,0,4.21,2.76,4.13,4.13,0,0,0,3.59-.55l-1.35-1.86c-2.1,1.34-3.87-.22-5.68-2-2.76-2.86-3.8-6.21-2.15-9.06,1.93-3,4.94-1.49,7.38.9,1.69,1.71,3.06,3.5,2.8,5.75l1.68,1.24a7.91,7.91,0,0,0-.55-4.12A13.21,13.21,0,0,0,691.43,403.26Z" style="fill: #c8a400"/>
    <path d="M703.42,416.77q-6.58,1.85-13.17,3.65l1.6,2,4.08-1.15h0l5.19,6.56-1,5c.54.67,1.07,1.35,1.6,2q1.68-8,3.35-16.08c-.53-.67-1.07-1.34-1.6-2Zm-1.82,8.84q-1.92-2.4-3.82-4.82l5.14-1.45h0Z" style="fill: #c8a400"/>
    <polygon points="702.92 419.34 702.92 419.34 702.92 419.34 702.92 419.34" style="fill: #c8a400"/>
    <path d="M712.94,429.38h0l-9.72,7.76,1.17,2,3.82-3.05c1.3,2.16,2.56,4.34,3.88,6.47-.4,2.5-.81,5-1.2,7.5l1.48,2.5c.42-2.64.85-5.28,1.27-7.92,1.09,1.31,2.68,2.18,4,1.58a3.28,3.28,0,0,0,2.16-3c.14-2.08-1.1-4.05-2.09-5.81Zm4.53,14c-.56,1-1.8.62-2.57-.23-1.54-1.58-2.56-3.72-3.76-5.65-.52-.86-1-1.73-1.54-2.59l3.12-2.5c1.37,2.32,2.8,4.59,4.09,7C717.41,440.62,718.16,442.29,717.47,443.42Z" style="fill: #c8a400"/>
    <polygon points="727.68 456.73 727.68 456.73 727.68 456.73 727.68 456.73" style="fill: #c8a400"/>
    <path d="M713.51,454.69c.36.81.71,1.63,1.06,2.44l4.39.63h0c1.15,2.64,2.29,5.29,3.43,7.93-.8,1.34-1.59,2.68-2.39,4,.35.82.7,1.63,1.06,2.44l7.67-13-1.05-2.44Q720.6,455.73,713.51,454.69ZM721,458l5.53.78-3,5.06Z" style="fill: #c8a400"/>
    <path d="M731.63,471.24c-2.34-1.89-5.45-1.81-7.11.37-1.45,1.79-1.52,4.73-1.13,7.37a21.74,21.74,0,0,0,3.22,8.59l-.94.22c.2.72.41,1.44.61,2.16l5.9-1.42c-.77-2.73-1.53-5.47-2.3-8.2l-1.36.33c.56,2,1.12,4,1.69,6l-2,.48a17.71,17.71,0,0,1-3.26-7.92c-.38-2.11-.39-4.55.87-5.9a3.88,3.88,0,0,1,5.78.3,14.54,14.54,0,0,1,3.19,7.11c.34,1.69.28,3.61-.73,4.68-.29.2.16.65.24,1l.48,1.06a4.87,4.87,0,0,0,1.69-4,17,17,0,0,0-.71-4.92C735,475.85,733.73,473,731.63,471.24Z" style="fill: #c8a400"/>
    <path d="M734.63,505.26c-3.09.13-4.13-2.05-4.66-5.53v-.05c-.55-3.48-.19-5.72,2.9-5.85l6.87-.29c-.12-.76-.23-1.51-.35-2.26h0l-7,.3a4.94,4.94,0,0,0-3,.91,4.12,4.12,0,0,0-1.27,2.62,15.11,15.11,0,0,0,.12,4.64.09.09,0,0,1,0,.05,16.44,16.44,0,0,0,1.31,4.59,5.56,5.56,0,0,0,2.06,2.48,5.78,5.78,0,0,0,3.19.66l7-.31c-.11-.76-.23-1.51-.35-2.26Q738.07,505.13,734.63,505.26Z" style="fill: #c8a400"/>
    <path d="M730.21,508.81l.15,2.6,4,2.88h0q.24,4.22.5,8.44l-3.76,2,.15,2.6q6-3.32,12.1-6.67l-.15-2.59Q736.72,513.48,730.21,508.81Zm6,6.79,5.1,3.61-4.73,2.6C736.49,519.74,736.36,517.67,736.24,515.6Z" style="fill: #c8a400"/>
    <polygon points="743.25 518.12 743.25 518.12 743.25 518.12 743.25 518.12" style="fill: #c8a400"/>
    <path d="M524.54,512.57c.67,3.25,1.35,6.49,2,9.74l1.83-.23c-.68-3.25-1.35-6.49-2-9.74Z" style="fill: #c8a400"/>
    <path d="M731.66,564.89l1.82.94c.68-3,1.35-6,2-9l-1.82-.94Q732.66,560.41,731.66,564.89Z" style="fill: #c8a400"/>
    <path d="M545.85,555.55c-4.69-.29-9.39-.58-14.08-.84l1.17,2.37,4.37.24h0q1.92,3.85,3.83,7.71L539,569.29c.4.79.79,1.58,1.18,2.37L547,557.93c-.39-.79-.78-1.59-1.18-2.38Zm-3.74,7.56-2.82-5.68,5.5.32Z" style="fill: #c8a400"/>
    <path d="M549.19,581.28q2.05-6.07,4.13-12.14L551.25,566q-4.5,4.18-9,8.39l1.2,1.81,7.56-7.08q-2,6.24-4,12.49l1.38,2.07q5.41-.9,10.85-1.78l-7.43,6.92,1.2,1.81q4.49-4.18,9-8.36l-1.83-2.75Q554.7,580.4,549.19,581.28Z" style="fill: #c8a400"/>
    <path d="M556.75,595.64q4.89,5.49,9.79,11l1.08-1.51-8.33-9.38,2.3-3.25L569.1,601l1.08-1.5L562.67,591l2-2.87,8,9,1.08-1.52L564.33,585Q560.53,590.3,556.75,595.64Z" style="fill: #c8a400"/>
    <path d="M583.48,604.42c-2.27-2-4.55-3.92-6.83-5.89h0q-3,6.13-5.93,12.28l1.62,1.4,2.34-4.83c1.79,1.52,3.56,3.1,5.36,4.59.44,2.67.87,5.33,1.31,8,.69.59,1.38,1.18,2.06,1.78L582,613.31c1.34.78,3,.9,3.92-.3a4.29,4.29,0,0,0,.95-3.84C586.46,607.07,584.84,605.68,583.48,604.42Zm-.64,7c-1.84-.77-3.39-2.43-5-3.77l-2.29-2c.64-1.32,1.28-2.63,1.91-4,1.9,1.66,3.84,3.25,5.7,5,.86.89,2,2.09,1.85,3.5A1.42,1.42,0,0,1,582.84,611.37Z" style="fill: #c8a400"/>
    <path d="M586.12,623.8l1.75,1.25,4.77-13.18-1.75-1.24Z" style="fill: #c8a400"/>
    <path d="M601.67,619.66c1.92,1.19,3.57,2.56,3.81,4.92l1.81.72a8.39,8.39,0,0,0-1.38-4,11.6,11.6,0,0,0-3.66-3.45h0a10.6,10.6,0,0,0-4-1.57,4.56,4.56,0,0,0-3.34.69,5.26,5.26,0,0,0-2,3,9.52,9.52,0,0,0,1.48,8.09,13.4,13.4,0,0,0,3.88,3.43,8,8,0,0,0,4.46,1.44,4.1,4.1,0,0,0,3.19-1.7l-1.64-1.46c-1.64,2-3.61,1-5.66-.23-3.15-2-4.83-5.05-3.91-8.46C595.82,617.43,598.91,618,601.67,619.66Z" style="fill: #c8a400"/>
    <path d="M614.92,624.05h0q-4.12,6.12-8.24,12.25l2.09.82q1.28-1.9,2.54-3.81h0l6.8,2.67c.48,1.79,1,3.58,1.43,5.37l2.09.83L617,624.88Zm-2.45,7.55,3.21-4.8,1.8,6.77Z" style="fill: #c8a400"/>
    <path d="M646.3,644.1c-3.27,0-5.82-1.9-6.47-5.73-.6-4.23,2.07-5.57,4.89-5.68,2,0,3.84.26,5,2.38l1.71-.41a7,7,0,0,0-2.69-3,7.7,7.7,0,0,0-4.26-1.07h0a7.82,7.82,0,0,0-3.8,1,5.23,5.23,0,0,0-2.35,2.7,7.75,7.75,0,0,0-.33,4.13,10.72,10.72,0,0,0,1.49,4.05,7.58,7.58,0,0,0,2.92,2.82,9,9,0,0,0,4.43.91,6.22,6.22,0,0,0,4.08-1.36,5.51,5.51,0,0,0,1.82-3.59l-1.87-.39C650.36,643.79,648.42,644,646.3,644.1Z" style="fill: #c8a400"/>
    <path d="M657.7,643.64c-.37-1.57-.73-3.14-1.09-4.71l9-1.31-.51-2.19-9,1.31c-.32-1.39-.64-2.78-1-4.17l9.63-1.39-.51-2.21-11.38,1.65h0q1.78,7.73,3.58,15.47l11.76-1.71-.51-2.19Z" style="fill: #c8a400"/>
    <path d="M676.68,624.8l4.41,12.53c-4.19-3.2-8.35-6.47-12.53-9.7l-2.06.72q2.64,7.53,5.29,15l1.57-.55L669,630.3c4.08,3.13,8.14,6.31,12.2,9.45.28.34.55.21.82.09l1.59-.56q-2.65-7.51-5.29-15Z" style="fill: #c8a400"/>
    <path d="M687.52,621.78l.18-.1,4.52-2.67-1-2-10.9,6.43,1,2,4.5-2.66.17-.1.09.18,5.85,12.06,1.53-.91-5.85-12Z" style="fill: #c8a400"/>
    <path d="M705.77,611.6c-.59-1.44-1.66-2.79-3-3.05-1.74-.4-3.08.92-4.31,2-1.83,1.67-3.66,3.35-5.49,5h0l8.54,13.06,1.35-1.24-3.35-5.13c1.48-1.37,3-2.7,4.45-4.11l6.42,2.36,1.71-1.58-6.77-2.47A5,5,0,0,0,705.77,611.6Zm-1.86,3c-1,1.75-2.49,2.78-3.81,4.07l-1.77,1.62-2.75-4.2h0c1.61-1.43,3.15-3,4.81-4.31.85-.61,2.06-1.35,3.14-.36A2.64,2.64,0,0,1,703.91,614.65Z" style="fill: #c8a400"/>
    <polygon points="707.67 600.7 707.67 600.7 707.67 600.7 707.67 600.7" style="fill: #c8a400"/>
    <path d="M707.67,600.7l5.64,17,1.34-1.72c-.59-1.75-1.18-3.51-1.76-5.26h0l4.35-5.59,4.3,2,1.34-1.73Q716,602.19,709,599Zm7.62,3.5-3.2,4.11c-.74-2.21-1.47-4.42-2.21-6.63Z" style="fill: #c8a400"/>
    <path d="M723.34,600.25l-.12.19-.13-.13-8.94-8.85-1,1.67q5.28,5.25,10.57,10.47l5.55-9.32-1.5-1.48Z" style="fill: #c8a400"/>
    <g style="clip-path: url(#a)">
      <path d="M630,393.18q-19.83,37.49-39.66,75-9.72,18.38-19.43,36.81c39.39,8.29,78.79,17.18,118.18,25.47q-9.27-21.48-18.54-43Q650.29,440.38,630,393.18Z" style="fill: #fff"/>
      <polygon points="630 393.18 630 393.18 630 393.18 630 393.18" style="fill: #fff"/>
      <g style="opacity: 0.6204081773757935;isolation: isolate">
        <path d="M627,398.79l3,84.95,3-83.65-3-6.91Z" style="fill: #17c0eb"/>
        <path d="M627,398.75l3,85,.16,0,3-83.65v0c-1-2.37-2-4.73-3-7.1Zm3,82.68q-1.44-41.3-2.89-82.6,1.46-2.71,2.89-5.45c1,2.24,1.93,4.48,2.89,6.71Q631.45,440.77,630,481.43Z" style="fill: #17c0eb"/>
      </g>
      <path d="M629.83,471.45c.06,1.6.12,3.21.17,4.81.06-1.58.11-3.16.17-4.73l-.17,0Z" style="fill: #fff"/>
      <g style="opacity: 0.6204081773757935;isolation: isolate">
        <path d="M630,483.74c22.27-2.68,44.53-5.37,66.8-8.26l4-4.55L695,468.22C673.31,473.53,651.66,478.63,630,483.74Z" style="fill: #17c0eb"/>
        <path d="M695,468.12c-21.66,5.3-43.33,10.41-65,15.52l0,.2c22.27-2.68,44.54-5.37,66.8-8.26h0l4.09-4.67L695,468.13Zm1.8,7.26c-21.66,2.82-43.31,5.43-65,8,21.06-5,42.11-9.94,63.17-15.09l5.65,2.63Z" style="fill: #17c0eb"/>
      </g>
      <path d="M639.52,481.83l-3.67.87,3.78-.45c0-.07,0-.14,0-.21Z" style="fill: #fff"/>
      <g style="opacity: 0.6204081773757935;isolation: isolate">
        <path d="M630,483.74q19.15,39.33,38.32,78.64l5.42,4.1c-.21-2.44-.41-4.88-.62-7.32Q651.57,521.51,630,483.74Z" style="fill: #17c0eb"/>
        <path d="M630.07,483.69l-.14.09q19.16,39.33,38.32,78.64v0l5.45,4.12.13.1q-.33-3.76-.64-7.52Q651.63,521.47,630.07,483.69Zm38.3,78.62q-18.63-38.19-37.26-76.47,21,36.71,41.93,73.34c.2,2.37.4,4.75.61,7.12Z" style="fill: #17c0eb"/>
      </g>
      <path d="M635.78,495l.14-.09.13-.09q-1.21-2.14-2.44-4.27Q634.71,492.8,635.78,495Z" style="fill: #fff"/>
      <g style="opacity: 0.6204081773757935;isolation: isolate">
        <path d="M586.26,547.52l5.43-1.78q19.15-31,38.31-62-21.56,28.34-43.12,56.73Q586.58,544,586.26,547.52Z" style="fill: #17c0eb"/>
        <path d="M586.82,540.39l0,0-.63,7.25,5.55-1.82h0q19.17-31.05,38.33-62l-.13-.15Q608.37,512,586.82,540.39Zm4.81,5.27-5.27,1.72.6-6.86q21-27.63,41.93-55.16Q610.26,515.48,591.63,545.66Z" style="fill: #17c0eb"/>
      </g>
      <path d="M624.08,492.36l.14.15,2.17-3.51L624,492.21Z" style="fill: #fff"/>
      <g style="opacity: 0.6204081773757935;isolation: isolate">
        <path d="M559.23,440.58l4,6.19c22.27,12.18,44.54,24.57,66.8,37-21.65-14.55-43.31-29.11-65-43.46Z" style="fill: #17c0eb"/>
        <path d="M565,440.18l-6,.3,4.06,6.35,0,0c22.27,12.18,44.55,24.58,66.82,37l0-.18c-21.65-14.55-43.31-29.1-65-43.45Zm-1.79,6.51-3.87-6,5.65-.29q31.59,20.94,63.17,42.25C606.55,470.58,584.9,458.54,563.25,446.69Z" style="fill: #17c0eb"/>
      </g>
      <path d="M620.42,477.86c0,.06,0,.13,0,.19l3.78,2.1-3.68-2.47Z" style="fill: #fff"/>
      <g style="opacity: 0.6204081773757935;isolation: isolate">
        <path d="M636.7,401.22q-3.35,41.25-6.7,82.52,6.29-40.12,12.58-80.23l-2.22-7.19Z" style="fill: #17c0eb"/>
        <path d="M636.64,401.14l0,0q-3.35,41.28-6.7,82.55l.16.06q6.3-40.11,12.58-80.23v0q-1.15-3.69-2.29-7.38Zm-6.38,80.37q3.27-40.11,6.52-80.24c1.19-1.58,2.37-3.17,3.56-4.76l2.16,7Z" style="fill: #17c0eb"/>
      </g>
      <path d="M631.24,471.85c-.13,1.55-.26,3.11-.38,4.67.23-1.52.47-3,.71-4.54l-.17-.07Z" style="fill: #fff"/>
      <g style="opacity: 0.6204081773757935;isolation: isolate">
        <path d="M630,483.74c22.91,1.3,45.82,2.61,68.74,3.67l4.54-3.7-5.58-3.63C675.14,481.45,652.57,482.59,630,483.74Z" style="fill: #17c0eb"/>
        <path d="M697.71,480c-22.58,1.37-45.15,2.51-67.73,3.66l0,.2c22.91,1.3,45.82,2.61,68.74,3.67h0l4.57-3.71.1-.09L697.73,480Zm1,7.33c-22.28-1-44.56-2.3-66.83-3.57,21.94-1.11,43.88-2.23,65.83-3.56l5.42,3.53Z" style="fill: #17c0eb"/>
      </g>
      <path d="M639.88,483.56l-3.83.2,3.89.22c0-.07,0-.14,0-.21A1.55,1.55,0,0,0,639.88,483.56Z" style="fill: #fff"/>
      <g style="opacity: 0.6204081773757935;isolation: isolate">
        <path d="M659.9,566.37l5,4.91.2-7.17Q647.57,524,630,483.74,645,525.07,659.9,566.37Z" style="fill: #17c0eb"/>
        <path d="M629.93,483.76q14.94,41.33,29.9,82.63v0l5,4.94.12.11.21-7.34v0q-17.58-40.17-35.16-80.4Zm35.13,80.35-.2,7-4.9-4.78Q645.42,526.16,630.89,486,648,525,665.06,564.11Z" style="fill: #17c0eb"/>
      </g>
      <path d="M634.58,495.65l.15-.06.15-.07c-.67-1.52-1.33-3-2-4.55Q633.73,493.31,634.58,495.65Z" style="fill: #fff"/>
      <g style="opacity: 0.6204081773757935;isolation: isolate">
        <path d="M578.31,537.7l5.71-.77q23-26.67,46-53.19Q604.88,507.32,579.75,531Z" style="fill: #17c0eb"/>
        <path d="M579.69,530.91l0,0-1.47,6.89L584,537h0q23-26.67,46-53.2l-.11-.17Q604.81,507.25,579.69,530.91Zm4.28,5.92-5.55.76c.47-2.18.93-4.35,1.4-6.53q24.43-23.05,48.87-45.95Q606.32,510.94,584,536.83Z" style="fill: #17c0eb"/>
      </g>
      <path d="M623,491l.12.16,2.6-3-2.84,2.67Z" style="fill: #fff"/>
      <g style="opacity: 0.6204081773757935;isolation: isolate">
        <path d="M563.12,429.67c1.11,2.23,2.21,4.46,3.32,6.68C587.63,452,608.81,467.88,630,483.74Q599.52,457,569,430.41Z" style="fill: #17c0eb"/>
        <path d="M569.06,430.31l-5.95-.74-.14,0q1.71,3.42,3.4,6.85l0,0q31.79,23.52,63.58,47.4l.07-.16q-30.48-26.75-61-53.33Zm-2.57,6q-1.61-3.26-3.23-6.5l5.76.71q29.64,25.77,59.28,51.86C607.7,466.94,587.1,451.52,566.49,436.29Z" style="fill: #17c0eb"/>
      </g>
      <path d="M621,476.39c0,.06-.05.12-.07.17l3.6,2.69-3.45-3S621,476.34,621,476.39Z" style="fill: #fff"/>
      <g style="opacity: 0.6204081773757935;isolation: isolate">
        <path d="M646.24,405.25q-8.12,39.24-16.24,78.49l22-75.26-1.44-7.32Z" style="fill: #17c0eb"/>
        <path d="M650.56,401l-4.39,4.2Q638,444.45,629.92,483.7l.16.09q11-37.64,21.95-75.26v0l-1.44-7.35Zm-20,80.66q7.9-38.16,15.79-76.32l4.16-4c.46,2.37.93,4.74,1.39,7.12Q641.19,445.06,630.52,481.64Z" style="fill: #17c0eb"/>
      </g>
      <path d="M632.61,472.48c-.3,1.48-.61,3-.91,4.44.41-1.42.82-2.84,1.24-4.26l-.16-.1Z" style="fill: #fff"/>
      <g style="opacity: 0.6204081773757935;isolation: isolate">
        <path d="M630,483.74c23.11,5.26,46.22,10.52,69.33,15.55l5-2.79q-2.62-2.24-5.24-4.48C676.08,489.42,653,486.58,630,483.74Z" style="fill: #17c0eb"/>
        <path d="M699.14,491.92c-23-2.6-46.1-5.44-69.14-8.28v.2c23.11,5.26,46.22,10.52,69.33,15.55h0l5.17-2.86-5.37-4.59Zm.17,7.26c-22.47-4.88-44.94-10-67.42-15.11,22.41,2.76,44.81,5.52,67.22,8.05l5.1,4.35Z" style="fill: #17c0eb"/>
      </g>
      <path d="M640.05,485.3l-3.91-.48,3.93.89a1.48,1.48,0,0,0,0-.21A1.41,1.41,0,0,0,640.05,485.3Z" style="fill: #fff"/>
      <g style="opacity: 0.6204081773757935;isolation: isolate">
        <path d="M650.9,568.74c1.52,1.88,3,3.75,4.55,5.63.35-2.3.69-4.59,1-6.89Q643.25,525.62,630,483.74,640.46,526.24,650.9,568.74Z" style="fill: #17c0eb"/>
        <path d="M629.92,483.75l20.91,85v0l4.57,5.66.11.13,1-7.06v0l-26.49-83.77Zm26.48,83.72c-.33,2.23-.67,4.47-1,6.7L651,568.7Q640.82,527.38,630.65,486,643.52,526.77,656.4,567.47Z" style="fill: #17c0eb"/>
      </g>
      <path d="M633.29,496l.16,0,.15,0-1.5-4.74C632.5,492.83,632.89,494.43,633.29,496Z" style="fill: #fff"/>
      <g style="opacity: 0.6204081773757935;isolation: isolate">
        <path d="M571.36,526.85l5.88.23Q603.63,505.3,630,483.74q-28.2,18.38-56.41,36.88C572.85,522.69,572.1,524.77,571.36,526.85Z" style="fill: #17c0eb"/>
        <path d="M573.54,520.52l0,0c-.76,2.13-1.52,4.27-2.29,6.4l6,.24h0q26.38-21.8,52.77-43.37l-.1-.17Q601.75,502,573.54,520.52Zm3.67,6.46-5.72-.23,2.16-6.06q27.44-18.06,54.86-35.86Q602.86,505.86,577.21,527Z" style="fill: #17c0eb"/>
      </g>
      <path d="M622.07,489.55l.1.18,3-2.44L622,489.37A1.62,1.62,0,0,0,622.07,489.55Z" style="fill: #fff"/>
      <g style="opacity: 0.6204081773757935;isolation: isolate">
        <path d="M568.31,419.81l2.6,7.05q29.55,28.29,59.09,56.88-27.88-31.15-55.77-62.17Z" style="fill: #17c0eb"/>
        <path d="M574.26,421.48q-3-.92-6.09-1.8l2.67,7.2v0q29.55,28.3,59.11,56.9l.09-.14q-27.88-31.16-55.77-62.17ZM571,426.8c-.85-2.28-1.69-4.57-2.54-6.85l5.76,1.71q27.12,30.1,54.23,60.45Q599.7,454.38,571,426.8Z" style="fill: #17c0eb"/>
      </g>
      <path d="M621.65,475.07l-.09.15,3.35,3.22c-1.06-1.17-2.11-2.35-3.16-3.52Z" style="fill: #fff"/>
      <g style="opacity: 0.6204081773757935;isolation: isolate">
        <path d="M655.46,410.8Q642.74,447.28,630,483.74q15.45-34.41,30.89-68.83c-.21-2.44-.41-4.88-.62-7.32Z" style="fill: #17c0eb"/>
        <path d="M655.42,410.71h0l-25.47,73,.14.11Q645.52,449.39,661,415v0q-.32-3.76-.64-7.52ZM630.77,481.8q12.38-35.46,24.76-70.92l4.67-3.12.6,7.12Q645.79,448.36,630.77,481.8Z" style="fill: #17c0eb"/>
      </g>
      <path d="M633.94,473.32l-1.44,4.13c.58-1.3,1.17-2.6,1.75-3.89l-.15-.12Z" style="fill: #fff"/>
      <g style="opacity: 0.6204081773757935;isolation: isolate">
        <path d="M630,483.74c22.86,9.12,45.72,18.24,68.58,27.13l5.43-1.82-4.81-5.24C676.14,497.28,653.07,490.51,630,483.74Z" style="fill: #17c0eb"/>
        <path d="M699.23,503.72c-23.07-6.53-46.15-13.31-69.22-20.08l0,.19c22.86,9.12,45.72,18.24,68.58,27.13h0l5.45-1.82.13,0-4.92-5.36Zm-.66,7c-22.23-8.64-44.46-17.5-66.69-26.37,22.43,6.58,44.86,13.16,67.29,19.51l4.68,5.1Z" style="fill: #17c0eb"/>
      </g>
      <path d="M640,487.4l0-.2c0-.06,0-.13,0-.2l-3.92-1.15Z" style="fill: #fff"/>
      <g style="opacity: 0.6204081773757935;isolation: isolate">
        <path d="M641.5,569.45l4,6.24c.61-2.16,1.23-4.32,1.84-6.48L630,483.74Q635.75,526.59,641.5,569.45Z" style="fill: #17c0eb"/>
        <path d="M629.92,483.74q5.75,42.85,11.5,85.71v0l4,6.26.1.15q.93-3.32,1.88-6.63v0l-17.31-85.5Zm17.3,85.45c-.59,2.1-1.19,4.2-1.78,6.3l-3.86-6.07-11.19-83.34Z" style="fill: #17c0eb"/>
      </g>
      <path d="M631.93,496.18h.33c-.33-1.61-.65-3.23-1-4.84C631.5,493,631.71,494.57,631.93,496.18Z" style="fill: #fff"/>
      <g style="opacity: 0.6204081773757935;isolation: isolate">
        <path d="M565.56,515.15l5.94,1.25q29.25-16.47,58.5-32.66c-20.49,8.53-41,17.07-61.47,25.78Z" style="fill: #17c0eb"/>
        <path d="M568.49,509.42h0q-1.53,2.9-3.05,5.79l6.1,1.28Q600.79,500,630,483.83l-.08-.19C609.47,492.18,589,500.72,568.49,509.42Zm3,6.88-5.77-1.22,2.88-5.47c19.93-8.47,39.86-16.78,59.78-25.08Q599.92,500.34,571.47,516.3Z" style="fill: #17c0eb"/>
      </g>
      <path d="M621.28,488l.09.2,3.31-1.84-3.48,1.45C621.23,487.83,621.25,487.9,621.28,488Z" style="fill: #fff"/>
      <g style="opacity: 0.6204081773757935;isolation: isolate">
        <path d="M574.7,411.2q.91,3.65,1.84,7.27Q603.27,451,630,483.74q-24.75-35-49.49-69.8Z" style="fill: #17c0eb"/>
        <path d="M580.55,413.86l-5.83-2.75-.14-.06,1.88,7.43v0Q603.2,451,630,483.8l.11-.12q-24.75-34.95-49.49-69.8Zm-3.94,4.56c-.6-2.35-1.19-4.7-1.79-7.06l5.65,2.66q24.06,33.86,48.12,67.87Q602.6,450.11,576.61,418.42Z" style="fill: #17c0eb"/>
      </g>
      <path d="M622.52,473.91l-.11.13q1.51,1.84,3,3.7l-2.8-4Z" style="fill: #fff"/>
      <g style="opacity: 0.6204081773757935;isolation: isolate">
        <path d="M630,483.74q19.62-30.51,39.23-61.06.1-3.6.2-7.18l-5.24,2.26Q647.09,450.78,630,483.74Z" style="fill: #17c0eb"/>
        <path d="M664.13,417.68q-17.1,33-34.2,66l.14.14q19.6-30.51,39.22-61.06l0,0,.21-7.37-5.37,2.32Zm5.22-2q-.11,3.48-.2,7Q650.07,452.36,631,482q16.63-32.06,33.25-64.15Z" style="fill: #17c0eb"/>
      </g>
      <path d="M635.19,474.37l-1.93,3.74,2.22-3.46a.93.93,0,0,1-.14-.14Z" style="fill: #fff"/>
      <g style="opacity: 0.6204081773757935;isolation: isolate">
        <path d="M630,483.74c22.17,12.8,44.33,25.6,66.5,38.19l5.7-.81-4.27-5.91C675.29,504.87,652.65,494.31,630,483.74Z" style="fill: #17c0eb"/>
        <path d="M698,515.13c-22.65-10.34-45.3-20.91-68-31.49l0,.19c22.16,12.8,44.33,25.6,66.49,38.19h0l5.86-.83c-1.46-2-2.91-4-4.37-6.05Zm-1.47,6.69c-21.56-12.24-43.11-24.68-64.66-37.12,22,10.27,44,20.54,66,30.6l4.16,5.74Z" style="fill: #17c0eb"/>
      </g>
      <path d="M639.73,489c0-.06,0-.12,0-.19a1.29,1.29,0,0,0,0-.19L636,486.85Z" style="fill: #fff"/>
      <g style="opacity: 0.6204081773757935;isolation: isolate">
        <path d="M631.87,568.49q1.67,3.36,3.32,6.72l2.61-5.93L630,483.74Q630.93,526.12,631.87,568.49Z" style="fill: #17c0eb"/>
        <path d="M629.92,483.72q.93,42.38,1.87,84.76v0l3.33,6.75.08.15,2.67-6.06v0l-7.8-85.57Zm7.79,85.52c-.84,1.92-1.69,3.84-2.53,5.77-1.08-2.18-2.15-4.36-3.23-6.53q-.9-41.21-1.82-82.42Q633.92,527.66,637.71,569.24Z" style="fill: #17c0eb"/>
      </g>
      <path d="M630.54,496.09l.16,0,.17,0c-.15-1.61-.29-3.23-.44-4.84C630.47,492.89,630.5,494.49,630.54,496.09Z" style="fill: #fff"/>
      <g style="opacity: 0.6204081773757935;isolation: isolate">
        <path d="M561,502.85l5.88,2.23c21-7.23,42.07-14.29,63.11-21.34-21.78,4.66-43.56,9.32-65.34,14.18Z" style="fill: #17c0eb"/>
        <path d="M564.64,497.82h0l-3.67,5-.08.11,6,2.29h0c21-7.24,42.09-14.3,63.13-21.36l-.06-.19C608.19,488.3,586.41,493,564.64,497.82Zm2.23,7.16-5.71-2.17,3.55-4.8c21.18-4.73,42.36-9.26,63.54-13.79C607.79,491.08,587.33,497.94,566.87,505Z" style="fill: #17c0eb"/>
      </g>
      <path d="M620.67,486.29l.06.2,3.57-1.19-3.69.79A1.52,1.52,0,0,0,620.67,486.29Z" style="fill: #fff"/>
      <g style="opacity: 0.6204081773757935;isolation: isolate">
        <path d="M582.17,404c.34,2.45.69,4.9,1,7.34q23.4,36.12,46.8,72.39-21.12-38.06-42.25-76.06Z" style="fill: #17c0eb"/>
        <path d="M587.8,407.61l-5.73-3.77,1,7.51v0q23.42,36.14,46.82,72.41l.13-.1q-21.14-38.06-42.26-76.06Zm-4.52,3.71c-.34-2.38-.67-4.75-1-7.13l5.43,3.56q20.53,36.93,41.08,74Q606,446.48,583.28,411.32Z" style="fill: #17c0eb"/>
      </g>
      <path d="M623.53,472.94l-.13.11q1.33,2,2.65,4.1l-2.39-4.31Z" style="fill: #fff"/>
      <g style="opacity: 0.6204081773757935;isolation: isolate">
        <path d="M630,483.74q23.4-26,46.8-52.12.53-3.45,1-6.9L672.25,426Q651.13,454.92,630,483.74Z" style="fill: #17c0eb"/>
        <path d="M672.2,425.91q-21.13,28.92-42.26,57.75l.12.16q23.4-26,46.8-52.12l0,0c.35-2.36.7-4.73,1.06-7.09l-5.72,1.31Zm5.53-1.06q-.51,3.34-1,6.71Q654,457,631.22,482.24q20.53-28,41.08-56.15Z" style="fill: #17c0eb"/>
      </g>
      <path d="M636.34,475.61,634,478.87c.88-1,1.77-2,2.65-2.95l-.13-.16Z" style="fill: #fff"/>
      <g style="opacity: 0.6204081773757935;isolation: isolate">
        <path d="M630,483.74q31.56,24.35,63.12,48.51l5.88.22L695.34,526C673.56,512.06,651.78,497.9,630,483.74Z" style="fill: #17c0eb"/>
        <path d="M695.39,525.94c-21.79-14-43.57-28.13-65.36-42.29l-.06.17q31.56,24.35,63.11,48.51l0,0,6,.22L695.4,526Zm-2.26,6.21Q662.44,508.73,631.76,485c21.17,13.77,42.35,27.54,63.53,41.11l3.56,6.28Z" style="fill: #17c0eb"/>
      </g>
      <path d="M639.27,490.54l.07-.18.06-.17-3.7-2.41Z" style="fill: #fff"/>
      <g style="opacity: 0.6204081773757935;isolation: isolate">
        <path d="M624.81,572.94c1.11-1.75,2.21-3.51,3.32-5.27q.93-42,1.87-83.93-3.9,41.07-7.79,82.14C623.07,568.23,623.94,570.59,624.81,572.94Z" style="fill: #17c0eb"/>
        <path d="M622.13,565.85v0c.88,2.36,1.75,4.73,2.62,7.09l.06.17,3.4-5.4v0q.94-42,1.87-84l-.16-.05Q626,524.78,622.13,565.85Zm5.92,1.78c-1.08,1.7-2.15,3.41-3.23,5.12l-2.53-6.87q3.8-39.95,7.58-79.87Q629,526.81,628.05,567.63Z" style="fill: #17c0eb"/>
      </g>
      <path d="M629.3,495.81l.17,0c0-1.58.07-3.16.1-4.75-.14,1.55-.29,3.1-.44,4.65Z" style="fill: #fff"/>
      <g style="opacity: 0.6204081773757935;isolation: isolate">
        <path d="M557.8,490.17l5.71,3.18c22.16-3.35,44.33-6.48,66.49-9.61-22.64.69-45.29,1.38-67.93,2.3Z" style="fill: #17c0eb"/>
        <path d="M562.05,485.94h0l-4.29,4.15-.1.1q2.93,1.62,5.84,3.25h0c22.17-3.35,44.34-6.48,66.51-9.61l0-.2C607.34,484.33,584.7,485,562.05,485.94Zm1.46,7.3L558,490.16q2.07-2,4.15-4c22-.9,44-1.57,66-2.25C606.61,486.94,585.06,490,563.51,493.24Z" style="fill: #17c0eb"/>
      </g>
      <path d="M620.23,484.57a1.6,1.6,0,0,0,0,.21l3.76-.53-3.85.11A1.55,1.55,0,0,1,620.23,484.57Z" style="fill: #fff"/>
      <g style="opacity: 0.6204081773757935;isolation: isolate">
        <path d="M590.57,398.39l.21,7.26q19.61,39,39.22,78.09-17.1-40.44-34.19-80.83Z" style="fill: #17c0eb"/>
        <path d="M595.87,402.85l-5.39-4.65.21,7.44v0q19.6,39,39.23,78.11l.14-.08q-17.1-40.43-34.19-80.83Zm-5,2.79-.21-7.07,5.1,4.4q16.62,39.27,33.25,78.59Q609.92,443.58,590.86,405.64Z" style="fill: #17c0eb"/>
      </g>
      <path d="M624.67,472.18l-.15.08,2.22,4.43c-.64-1.53-1.29-3.06-1.93-4.58Z" style="fill: #fff"/>
      <g style="opacity: 0.6204081773757935;isolation: isolate">
        <path d="M630,483.74q26.73-21,53.47-42.17l1.83-6.49-5.81.27Q654.76,459.64,630,483.74Z" style="fill: #17c0eb"/>
        <path d="M679.45,435.25q-24.75,24.3-49.51,48.4l.11.18q26.73-21,53.47-42.18h0q.91-3.25,1.84-6.51l0-.15-5.94.27Zm5.73-.06c-.59,2.1-1.19,4.2-1.78,6.3q-26,20.61-52,41,24.06-23.47,48.12-47.05Z" style="fill: #17c0eb"/>
      </g>
      <path d="M637.37,477l-2.8,2.73,3-2.38a1.74,1.74,0,0,0-.11-.18A1,1,0,0,0,637.37,477Z" style="fill: #fff"/>
      <g style="opacity: 0.6204081773757935;isolation: isolate">
        <path d="M630,483.74q29.25,29,58.51,57.89l5.94,1.25-3-6.88Q660.73,510,630,483.74Z" style="fill: #17c0eb"/>
        <path d="M691.53,535.93Q660.8,510,630,483.66l-.08.15q29.25,29,58.5,57.9h0l6.11,1.28q-1.53-3.51-3-7Zm-3,5.61q-28.44-28-56.89-56.29,29.9,25.49,59.78,50.81,1.44,3.35,2.89,6.69Z" style="fill: #17c0eb"/>
      </g>
      <path d="M638.63,491.92l.09-.15a1.3,1.3,0,0,0,.08-.17l-3.48-3Z" style="fill: #fff"/>
      <g style="opacity: 0.6204081773757935;isolation: isolate">
        <path d="M614.53,568.94l4-4.5q5.76-40.35,11.5-80.7l-17.31,77.93Q613.62,565.32,614.53,568.94Z" style="fill: #17c0eb"/>
        <path d="M612.62,561.63v0c.61,2.43,1.23,4.86,1.84,7.3l0,.17,4.06-4.61,0,0q5.74-40.37,11.5-80.73l-.16-.07Q621.27,522.66,612.62,561.63Zm5.81,2.75-3.87,4.38c-.59-2.36-1.19-4.72-1.78-7.07q8.41-37.91,16.83-75.78Q624,525.13,618.43,564.38Z" style="fill: #17c0eb"/>
      </g>
      <path d="M627.91,495.27l.16.07c.22-1.52.44-3,.65-4.57-.32,1.47-.65,2.94-1,4.41Z" style="fill: #fff"/>
      <g style="opacity: 0.6204081773757935;isolation: isolate">
        <path d="M556,477.36l5.42,4.06c22.86.62,45.72,1.47,68.58,2.32-23.07-3.29-46.13-6.59-69.2-9.64Z" style="fill: #17c0eb"/>
        <path d="M560.79,474h0L556,477.27l-.12.07,5.56,4.16,0,0c22.87.62,45.74,1.47,68.6,2.32v-.2C606.93,480.35,583.86,477.05,560.79,474Zm.64,7.32-5.27-3.95q2.33-1.59,4.67-3.16c22.43,3,44.86,6.16,67.29,9.36C605.89,482.74,583.66,481.92,561.43,481.32Z" style="fill: #17c0eb"/>
      </g>
      <path d="M620,482.84a1.5,1.5,0,0,0,0,.2l3.88.15-3.92-.56C620,482.7,620,482.77,620,482.84Z" style="fill: #fff"/>
      <g style="opacity: 0.6204081773757935;isolation: isolate">
        <path d="M599.73,394.43q-.3,3.52-.62,7.05Q614.56,442.6,630,483.74q-12.74-42-25.46-84Q602.14,397.06,599.73,394.43Z" style="fill: #17c0eb"/>
        <path d="M604.6,399.67l-4.93-5.44c-.21,2.42-.43,4.84-.64,7.25q15.45,41.13,30.9,82.29l.15,0-25.47-84Zm-5.4,1.81.6-6.86,4.67,5.14q12.39,40.85,24.76,81.71Q614.22,441.47,599.2,401.48Z" style="fill: #17c0eb"/>
      </g>
      <path d="M625.91,471.65l-.16.05q.88,2.34,1.75,4.66l-1.44-4.76Z" style="fill: #fff"/>
      <g style="opacity: 0.6204081773757935;isolation: isolate">
        <path d="M630,483.74q29.55-15.63,59.09-31.41,1.3-3,2.6-5.95l-5.92-.74Q657.89,464.81,630,483.74Z" style="fill: #17c0eb"/>
        <path d="M685.74,445.54q-27.9,19.17-55.79,38.11l.09.18q29.55-15.63,59.09-31.41h0c.89-2,1.79-4.07,2.68-6.11l-6.07-.76Zm5.82.93c-.84,1.92-1.69,3.85-2.53,5.78-19.15,10.28-38.31,20.41-57.46,30.54q27.12-18.46,54.23-37.05Z" style="fill: #17c0eb"/>
      </g>
      <path d="M638.25,478.52l-3.15,2.15,3.34-1.77-.09-.19C638.32,478.64,638.28,478.58,638.25,478.52Z" style="fill: #fff"/>
      <g style="opacity: 0.6204081773757935;isolation: isolate">
        <path d="M630,483.74q26.38,33.12,52.76,66.14l5.88,2.25L686.42,545Q658.21,514.48,630,483.74Z" style="fill: #17c0eb"/>
        <path d="M686.48,544.91q-28.22-30.48-56.43-61.24l-.1.13q26.37,33.13,52.76,66.15l0,0,6,2.31-2.28-7.34Zm-3.69,4.89q-25.65-32.06-51.3-64.32,27.43,29.84,54.86,59.53l2.16,7Z" style="fill: #17c0eb"/>
      </g>
      <path d="M637.83,493.15l.11-.14.1-.14-3.2-3.47Z" style="fill: #fff"/>
      <g style="opacity: 0.6204081773757935;isolation: isolate">
        <path d="M604.55,563.29l4.55-3.65q10.46-38,20.9-75.9Q616.75,519.83,603.52,556C603.86,558.4,604.21,560.85,604.55,563.29Z" style="fill: #17c0eb"/>
        <path d="M603.44,555.9v0l1,7.55,4.66-3.75h0l20.91-75.93-.15-.1Zm5.59,3.66-4.42,3.56c-.34-2.38-.67-4.76-1-7.14q12.89-35.12,25.75-70.22Q619.2,522.66,609,559.56Z" style="fill: #17c0eb"/>
      </g>
      <path d="M626.56,494.5l.16.1c.39-1.43.79-2.86,1.18-4.29l-1.5,4.08A.91.91,0,0,0,626.56,494.5Z" style="fill: #fff"/>
      <g style="opacity: 0.6204081773757935;isolation: isolate">
        <path d="M555.63,464.66l5,4.87c23.11,4.57,46.22,9.39,69.33,14.21-23-7.21-46.08-14.42-69.12-21.39C559.13,463.12,557.38,463.88,555.63,464.66Z" style="fill: #17c0eb"/>
        <path d="M560.86,462.24l-5.39,2.38,5.16,5,0,0c23.11,4.58,46.23,9.4,69.35,14.22v-.2c-23-7.21-46.09-14.42-69.13-21.39Zm67.25,21c-22.47-4.68-45-9.36-67.42-13.81q-2.45-2.37-4.9-4.73l5.1-2.25C583.3,469.23,605.7,476.23,628.11,483.24Z" style="fill: #17c0eb"/>
      </g>
      <path d="M619.94,481.12v.2l3.92.82L620,480.91A1.48,1.48,0,0,0,619.94,481.12Z" style="fill: #fff"/>
      <g style="opacity: 0.6204081773757935;isolation: isolate">
        <path d="M609.49,392.22l-1.44,6.7q11,42.4,22,84.82-8.12-42.8-16.24-85.57Z" style="fill: #17c0eb"/>
        <path d="M613.84,398.14l-4.29-6-.11-.14L608,398.88v0q11,42.4,21.95,84.84l.16,0q-8.12-42.78-16.24-85.57Zm-5.7.8c.46-2.18.93-4.35,1.39-6.52l4.16,5.79q7.89,41.6,15.79,83.2Q618.82,440.18,608.14,398.94Z" style="fill: #17c0eb"/>
      </g>
      <path d="M627.23,471.35l-.16,0q.61,2.4,1.24,4.8c-.31-1.62-.62-3.23-.92-4.84Z" style="fill: #fff"/>
      <g style="opacity: 0.6204081773757935;isolation: isolate">
        <path d="M630,483.74c21.19-6.62,42.38-13.23,63.56-20,1.11-1.77,2.22-3.53,3.32-5.3L691,456.67C670.64,465.8,650.32,474.77,630,483.74Z" style="fill: #17c0eb"/>
        <path d="M690.94,456.56c-20.32,9.14-40.65,18.11-61,27.08l.07.2c21.19-6.62,42.38-13.23,63.57-20h0l3.33-5.32.08-.13L691,456.57Zm5.8,1.91c-1.08,1.71-2.15,3.43-3.23,5.15-20.6,6.61-41.2,13.05-61.81,19.48Q661.34,470,691,456.77Z" style="fill: #17c0eb"/>
      </g>
      <path d="M639,480.14l-3.45,1.52,3.6-1.12a1.59,1.59,0,0,0-.07-.2A1.67,1.67,0,0,0,639,480.14Z" style="fill: #fff"/>
      <g style="opacity: 0.6204081773757935;isolation: isolate">
        <path d="M630,483.74q23,36.59,46,73.11l5.7,3.2c-.48-2.44-1-4.88-1.43-7.31Q655.14,518.33,630,483.74Z" style="fill: #17c0eb"/>
        <path d="M680.33,552.7q-25.14-34.43-50.27-69l-.12.11q23,36.58,46,73.11l0,0,5.73,3.22.14.08-1.47-7.49Zm-4.3,4.07q-22.35-35.47-44.71-71.09,24.43,33.6,48.86,67.09c.47,2.37.93,4.74,1.4,7.12Z" style="fill: #17c0eb"/>
      </g>
      <path d="M636.87,494.19l.13-.11.11-.12q-1.41-2-2.84-3.91Q635.58,492.12,636.87,494.19Z" style="fill: #fff"/>
      <g style="opacity: 0.6204081773757935;isolation: isolate">
        <path d="M595.07,556.11l5-2.75q15-34.83,29.9-69.62-17.57,32.53-35.14,65.1Z" style="fill: #17c0eb"/>
        <path d="M594.79,548.77v0l.21,7.46,5.17-2.81q15-34.85,29.91-69.65l-.14-.13Q612.37,516.21,594.79,548.77Zm5.25,4.51-4.9,2.67c-.06-2.36-.13-4.71-.2-7.07q17.09-31.68,34.17-63.3Q614.57,519.42,600,553.28Z" style="fill: #17c0eb"/>
      </g>
      <path d="M625.27,493.53l.15.12,1.7-3.94-2,3.68Z" style="fill: #fff"/>
      <g style="opacity: 0.6204081773757935;isolation: isolate">
        <path d="M556.72,452.31q2.26,2.81,4.55,5.59c22.91,8.46,45.82,17.15,68.73,25.84-22.57-11-45.13-22-67.7-32.74Z" style="fill: #17c0eb"/>
        <path d="M562.29,450.9l-5.73,1.35,4.65,5.72,0,0c22.92,8.46,45.84,17.15,68.76,25.84l0-.19c-22.57-11-45.14-22-67.7-32.73Zm-1,6.91-4.42-5.43,5.42-1.28c22,10.47,43.89,21.15,65.84,31.83C605.86,474.48,583.58,466,561.3,457.81Z" style="fill: #17c0eb"/>
      </g>
      <path d="M620.08,479.45a1.23,1.23,0,0,1,0,.19l3.89,1.48-3.83-1.87C620.11,479.32,620.09,479.38,620.08,479.45Z" style="fill: #fff"/>
      <g style="opacity: 0.6204081773757935;isolation: isolate">
        <path d="M619.64,391.8,617.42,398q6.29,42.86,12.58,85.72-3.35-42.72-6.7-85.44Z" style="fill: #17c0eb"/>
        <path d="M623.38,398.27c-1.25-2.22-2.51-4.44-3.76-6.67q-1.14,3.19-2.27,6.37v0q6.28,42.87,12.58,85.75h.16q-3.35-42.74-6.7-85.45Zm-5.88-.22c.73-2,1.45-4,2.17-6.05l3.55,6.32q3.25,41.54,6.52,83.08Z" style="fill: #17c0eb"/>
      </g>
      <path d="M628.6,471.3h-.17l.72,4.86c-.13-1.62-.26-3.23-.38-4.84Z" style="fill: #fff"/>
      <path d="M666.5,478.06c-9.79-12.38-22.56-21.37-36.5-24.41h0c-13.94-3-26.71.39-36.5,8.56q-9.24,17.49-18.47,35a79.39,79.39,0,0,0-.94,12.45l6.34,1.34c0-33.32,22.19-55.59,49.57-49.6s49.57,37.75,49.57,71.05l6.34,1.35A87.18,87.18,0,0,0,685,521Q675.73,499.53,666.5,478.06Z" style="fill: red"/>
      <path d="M668.15,482c-9.87-13.74-23.33-23.83-38.15-27.06h0c-14.82-3.23-28.27,1-38.15,10.51q-7.59,14.34-15.16,28.72a75.68,75.68,0,0,0-1.62,15.76l5.36,1.13c0-33.32,22.19-55.59,49.57-49.6s49.57,37.75,49.57,71.05l5.36,1.14a86.32,86.32,0,0,0-1.62-16.49Q675.74,499.54,668.15,482Z" style="fill: #f60"/>
      <path d="M670.24,486.81C660.37,471.22,646,459.63,630,456.14h0c-16-3.49-30.37,1.85-40.24,13.22q-5.49,10.39-11,20.8a72.45,72.45,0,0,0-2.67,19.94l4.33.92c0-33.33,22.19-55.6,49.57-49.61s49.57,37.75,49.57,71.05l4.33.92a85.33,85.33,0,0,0-2.67-21.07Q675.74,499.56,670.24,486.81Z" style="fill: #ff0"/>
      <path d="M673.94,495.42c-9.49-19.24-25.62-34.08-43.94-38.08h0c-18.33-4-34.49,3.86-44,19.07q-1.77,3.36-3.55,6.72a67.34,67.34,0,0,0-5.39,27.17l3.35.71c0-33.32,22.19-55.59,49.57-49.6s49.57,37.75,49.57,71.05l3.35.71a84.8,84.8,0,0,0-5.4-29.41Q675.74,499.59,673.94,495.42Z" style="fill: lime"/>
      <path d="M630,458.58h0c-28.66-6.27-51.9,17.05-51.9,51.94l2.33.49c0-33.32,22.19-55.59,49.57-49.6s49.57,37.75,49.57,71.05l2.33.5C681.9,498.09,658.66,464.86,630,458.58Z" style="fill: #0cf"/>
      <polygon points="630 459.78 630 459.78 630 459.78 630 459.78" style="fill: blue"/>
      <path d="M630,459.78c-28.11-6.15-50.87,16.75-50.87,51l1.69.36c0-33.07,22-55.15,49.18-49.21s49.18,37.44,49.18,70.49l1.73.37C680.91,498.56,658.11,465.94,630,459.78Z" style="fill: blue"/>
      <path d="M630,461h0c-27.55-6-49.88,16.38-49.88,49.91,0,.38,0,.75,0,1.13l1,.21c0-.37,0-.75,0-1.12,0-32.86,21.88-54.81,48.87-48.9s48.87,37.21,48.87,70v1.12l1,.21c0-.37,0-.74,0-1.12C679.88,499,657.55,467.06,630,461Z" style="fill: purple"/>
      <path d="M630.5,487.94c-.81-.37-1.55-1.08-2.24-1.43a3.29,3.29,0,0,0-.92,3c.33.29.39.63,1.11,1.56s.62,1.32.58,3.14c0,.77.09,2.44.73,2.74s1.17-.28,1.37-1.48A6.84,6.84,0,0,1,632,493C632.4,490.29,631.77,489.14,630.5,487.94Z" style="fill: #510000"/>
      <path d="M633.06,478.06c-1.49-3.41-3.4-4.51-6.39-3a5.15,5.15,0,0,0-2.73,3,2.65,2.65,0,0,0,0,2.16c.53.93,1.7-.34,2.45-.2h0c.56.11.58-.85.66-.15a7.22,7.22,0,0,1-1.73,4.48c-.44.36-.94,1.3-.35,1.91.76.77,1.69.26,2.5.21,2.39-.17,6.49,5.06,8.18,3.3.56-.58.24-2,.2-2.81C635.77,484.37,634.44,481.08,633.06,478.06Z" style="fill: red"/>
      <path d="M635.52,491c-1.72-1.09-5.15-1.41-6.77-1.42-.52-6.38-.07-4.08-.19-6.8s-.78-3,.09-5c-.73,1.18-1.61.78-2.52.69h0c-1.37.38-1.22,1.38-1.9,2a1.22,1.22,0,0,0,1.71-.09,2.79,2.79,0,0,1,.86-.37,7.59,7.59,0,0,0-.86.87,5.9,5.9,0,0,0-1.69,2.46,7.68,7.68,0,0,0-.48,2.63,5.42,5.42,0,0,0,2,2.32c2.56,1.79,3,4.4,5.64,5,2,.44,1.7-1.25,3.33-.55C636.13,493.28,636.88,492.08,635.52,491Z" style="fill: url(#b)"/>
      <path d="M633.07,478.08h0c-.08-.19-.16-.38-.25-.56a8.25,8.25,0,0,0-1-1.54l-.07-.09c-.1-.12-.21-.24-.32-.35l-.25-.23h0a4.87,4.87,0,0,0-.07.9c.11.55.22,1.11.35,1.6s.2.94.3,1.49a2.75,2.75,0,0,0,.88,1.3c.46.53.1,1.61.39,1.73s.62-1.51.62-1.78a8.2,8.2,0,0,0,0-1C633.44,479.05,633.26,478.56,633.07,478.08Z" style="fill: #ff2a2a"/>
      <path d="M636,489.82c.16-.69-.5-.69-1.06-1.11-1.3-.77-2.48-1.18-3.39-1.67s-1.79-1.22-2.56-1.67c-1.52-.88-3.13-2.42-4.24-2.17-.4.13-.37.62-.5,1.29s-.75,1.86-.17,1.59c.87-.4,3.14,1.8,3.9,2.54a4.81,4.81,0,0,1,1.37,1.87,14.38,14.38,0,0,1,0,3.53c-.07.85.15,2.85.86,3.23s1.36-.19,1.66-1.52a8.31,8.31,0,0,1,.95-2.73,1.81,1.81,0,0,1,1.67-1c.71,0,1.74,1.09,1.74.07C636.3,491.44,635.82,490.69,636,489.82Z" style="fill: url(#c)"/>
      <path d="M624.58,482.83a3,3,0,0,0-.65,1.49,5.87,5.87,0,0,0-.23,1.27c0,.37.11.62.4.49.92-.43,3.43,2.11,3.84,2.48,0,0,.47-2.87.56-3.52C627.44,484.34,625.45,482.13,624.58,482.83Z" style="fill: #910000"/>
      <path d="M633,490.7c-2,.63-1.62,5.42-2.56,5.68,1,1.21,1.42-2.37,1.81-3.12h0c1.16-2.21,1.9-1.73,3.29-1.39.47.12.6-.37.5-.91C635.66,491.84,633.91,490.39,633,490.7Z" style="fill: #ff3a3a"/>
      <path d="M570.91,505q-6.27,11.9-12.54,23.81c47.75,9.88,95.51,20.83,143.27,30.71l-12.55-29C649.7,522.19,610.3,513.3,570.91,505Z" style="fill: #fff"/>
      <path d="M693.78,552.5c-1.92-.43-3.82-.75-5.73-1.2-4.4-.93-8.15-.58-12.3-1.34-4.15-1-7.92-3-12.33-3.92-1.91-.44-3.82-.77-5.7-1.23-4.41-.95-8.18-.63-12.33-1.41-4.15-1-7.92-3-12.33-3.95-1.92-.45-3.83-.79-5.73-1.25-4.41-1-8.16-.63-12.3-1.41-4.15-1-7.9-3-12.31-3.95-1.92-.44-3.82-.77-5.71-1.23-4.41-1-8.17-.61-12.33-1.37-4.15-1-7.91-3-12.32-3.89-1.92-.44-3.84-.76-5.73-1.21h0a40.15,40.15,0,0,0-5.94-.69c-.2.39-.4.78-.61,1.17,3.07.3,5.92.23,9,.79,4.15,1,7.91,2.94,12.33,3.88,1.91.43,3.81.77,5.7,1.22,4.41.94,8.18.6,12.33,1.38,4.15,1,7.94,3,12.35,4,1.91.42,4,.83,5.71,1.24,4.41,1,8.15.63,12.3,1.41,4.15,1,7.9,3,12.31,4,1.93.45,3.82.79,5.72,1.25,4.41,1,8.18.63,12.34,1.4,4.15,1,7.91,3,12.32,3.92,1.91.44,3.82.78,5.71,1.22,4.41.94,8.16.59,12.3,1.34,3.22.77,6.2,2.09,9.43,3.08l-.64-1.51A44.66,44.66,0,0,0,693.78,552.5Z" style="fill: url(#d)"/>
      <path d="M693.78,550.8c-1.92-.44-3.82-.76-5.73-1.21-4.4-.93-8.15-.58-12.3-1.34-4.15-1-7.92-3-12.33-3.92-1.91-.44-3.82-.77-5.7-1.23-4.41-1-8.18-.62-12.33-1.4-4.15-1-7.92-3-12.33-4-1.92-.45-3.83-.79-5.73-1.25-4.41-1-8.16-.63-12.3-1.41-4.15-1-7.9-3-12.31-3.94-1.92-.45-3.82-.78-5.71-1.24-4.41-.95-8.17-.61-12.33-1.37-4.15-1-7.91-3-12.32-3.89-1.92-.44-3.84-.76-5.73-1.2h0a38.91,38.91,0,0,0-5.94-.7c-.2.39-.4.78-.61,1.17,3.07.3,5.92.24,9,.79,4.15,1,7.91,2.94,12.33,3.88,1.91.43,3.81.77,5.7,1.22,4.41.94,8.18.61,12.33,1.38,4.15,1,7.94,3,12.35,4,1.91.42,4,.83,5.71,1.24,4.41,1,8.15.63,12.3,1.41,4.15,1,7.9,3,12.31,4,1.93.44,3.82.78,5.72,1.24,4.41,1,8.18.63,12.34,1.4,4.15,1,7.91,3,12.32,3.93,1.91.43,3.82.77,5.71,1.22,4.41.94,8.16.58,12.3,1.33,3.22.77,6.2,2.09,9.43,3.08l-.64-1.5A41.45,41.45,0,0,0,693.78,550.8Z" style="fill: url(#e)"/>
      <path d="M693.78,549.08c-1.92-.43-3.82-.75-5.73-1.2-4.4-.93-8.15-.58-12.3-1.34-4.15-1-7.92-3-12.33-3.92-1.91-.44-3.82-.77-5.7-1.23-4.41-.95-8.18-.63-12.33-1.41-4.15-1-7.92-3-12.33-4-1.92-.45-3.83-.79-5.73-1.25-4.41-1-8.16-.63-12.3-1.41-4.15-1-7.9-3-12.31-4-1.92-.44-3.82-.77-5.71-1.23-4.41-1-8.17-.61-12.33-1.37-4.15-1-7.91-3-12.32-3.89-1.92-.44-3.84-.76-5.73-1.21h0a40.15,40.15,0,0,0-5.94-.69c-.2.39-.4.78-.61,1.17,3.07.3,5.92.23,9,.79,4.15,1,7.91,2.94,12.33,3.88,1.91.43,3.81.77,5.7,1.22,4.41.94,8.18.6,12.33,1.38,4.15,1,7.94,3,12.35,3.95,1.91.42,4,.83,5.71,1.24,4.41,1,8.15.63,12.3,1.41,4.15,1,7.9,3,12.31,3.95,1.93.45,3.82.79,5.72,1.25,4.41,1,8.18.63,12.34,1.4,4.15,1,7.91,3,12.32,3.92,1.91.44,3.82.78,5.71,1.22,4.41.94,8.16.59,12.3,1.34,3.22.77,6.2,2.09,9.43,3.08l-.64-1.51A44.66,44.66,0,0,0,693.78,549.08Z" style="fill: url(#f)"/>
      <path d="M693.78,547.38c-1.92-.44-3.82-.76-5.73-1.21-4.4-.93-8.15-.58-12.3-1.34-4.15-1-7.92-3-12.33-3.92-1.91-.44-3.82-.77-5.7-1.23-4.41-.95-8.18-.62-12.33-1.4-4.15-1-7.92-3-12.33-4-1.92-.45-3.83-.79-5.73-1.25-4.41-1-8.16-.63-12.3-1.41-4.15-1-7.9-3-12.31-3.94-1.92-.45-3.82-.78-5.71-1.24-4.41-1-8.17-.61-12.33-1.37-4.15-1-7.91-3-12.32-3.89-1.92-.44-3.84-.76-5.73-1.2h0a38.91,38.91,0,0,0-5.94-.7c-.2.39-.4.78-.61,1.17,3.07.3,5.92.24,9,.79,4.15,1,7.91,2.94,12.33,3.88,1.91.43,3.81.77,5.7,1.22,4.41.94,8.18.61,12.33,1.38,4.15,1,7.94,3,12.35,4,1.91.42,4,.83,5.71,1.24,4.41,1,8.15.63,12.3,1.41,4.15,1,7.9,3,12.31,4,1.93.44,3.82.78,5.72,1.24,4.41,1,8.18.63,12.34,1.4,4.15,1,7.91,3,12.32,3.93,1.91.43,3.82.77,5.71,1.22,4.41.94,8.16.58,12.3,1.33,3.22.77,6.2,2.09,9.43,3.08l-.64-1.5A41.45,41.45,0,0,0,693.78,547.38Z" style="fill: url(#g)"/>
      <path d="M693.78,545.67c-1.92-.44-3.82-.76-5.73-1.2-4.4-.93-8.15-.58-12.3-1.34-4.15-1-7.92-3-12.33-3.92-1.91-.45-3.82-.78-5.7-1.23-4.41-1-8.18-.63-12.33-1.41-4.15-1-7.92-3-12.33-4-1.92-.45-3.83-.79-5.73-1.25-4.41-1-8.16-.63-12.3-1.41-4.15-1-7.9-3-12.31-3.94-1.92-.45-3.82-.78-5.71-1.23-4.41-.95-8.17-.61-12.33-1.38-4.15-1-7.91-3-12.32-3.89-1.92-.43-3.84-.76-5.73-1.2h0a38.91,38.91,0,0,0-5.94-.7c-.2.39-.4.78-.61,1.17,3.07.31,5.92.24,9,.79,4.15,1,7.91,2.94,12.33,3.88,1.91.43,3.81.77,5.7,1.22,4.41,1,8.18.61,12.33,1.38,4.15,1,7.94,3,12.35,4,1.91.42,4,.84,5.71,1.24,4.41,1,8.15.63,12.3,1.41,4.15,1,7.9,3,12.31,4,1.93.44,3.82.78,5.72,1.24,4.41,1,8.18.63,12.34,1.41,4.15,1,7.91,3,12.32,3.92,1.91.43,3.82.77,5.71,1.22,4.41.94,8.16.58,12.3,1.33,3.22.77,6.2,2.1,9.43,3.08l-.64-1.5A41.45,41.45,0,0,0,693.78,545.67Z" style="fill: url(#h)"/>
      <path d="M693.78,544c-1.92-.44-3.82-.76-5.73-1.21-4.4-.93-8.15-.58-12.3-1.34-4.15-1-7.92-3-12.33-3.92-1.91-.44-3.82-.77-5.7-1.23-4.41-1-8.18-.62-12.33-1.4-4.15-1-7.92-3-12.33-4-1.92-.45-3.83-.79-5.73-1.25-4.41-1-8.16-.63-12.3-1.41-4.15-1-7.9-3-12.31-3.94-1.92-.45-3.82-.78-5.71-1.24-4.41-.95-8.17-.61-12.33-1.37-4.15-1-7.91-3-12.32-3.89-1.92-.44-3.84-.76-5.73-1.2h0a38.91,38.91,0,0,0-5.94-.7c-.2.39-.4.78-.61,1.17,3.07.3,5.92.24,9,.79,4.15,1,7.91,2.94,12.33,3.88,1.91.43,3.81.77,5.7,1.22,4.41.94,8.18.61,12.33,1.38,4.15,1,7.94,3,12.35,3.95,1.91.42,4,.83,5.71,1.24,4.41,1,8.15.63,12.3,1.41,4.15,1,7.9,3,12.31,4,1.93.44,3.82.78,5.72,1.24,4.41,1,8.18.63,12.34,1.4,4.15,1,7.91,3,12.32,3.93,1.91.43,3.82.77,5.71,1.22,4.41.94,8.16.58,12.3,1.33,3.22.77,6.2,2.09,9.43,3.08l-.64-1.5A41.45,41.45,0,0,0,693.78,544Z" style="fill: url(#i)"/>
      <path d="M693.78,542.24c-1.92-.43-3.82-.75-5.73-1.2-4.4-.93-8.15-.58-12.3-1.34-4.15-1-7.92-3-12.33-3.92-1.91-.44-3.82-.77-5.7-1.23-4.41-1-8.18-.63-12.33-1.41-4.15-1-7.92-3-12.33-3.95-1.92-.45-3.83-.79-5.73-1.25-4.41-1-8.16-.63-12.3-1.41-4.15-1-7.9-3-12.31-3.95-1.92-.44-3.82-.77-5.71-1.23-4.41-1-8.17-.61-12.33-1.37-4.15-1-7.91-3-12.32-3.89-1.92-.44-3.84-.76-5.73-1.21h0a40.15,40.15,0,0,0-5.94-.69c-.2.39-.4.78-.61,1.17,3.07.3,5.92.23,9,.79,4.15,1,7.91,2.94,12.33,3.88,1.91.43,3.81.77,5.7,1.22,4.41.94,8.18.6,12.33,1.38,4.15,1,7.94,3,12.35,4,1.91.42,4,.83,5.71,1.24,4.41,1,8.15.63,12.3,1.41,4.15,1,7.9,3,12.31,3.95,1.93.45,3.82.79,5.72,1.25,4.41,1,8.18.63,12.34,1.4,4.15,1,7.91,3,12.32,3.92,1.91.44,3.82.78,5.71,1.22,4.41.94,8.16.59,12.3,1.34,3.22.77,6.2,2.09,9.43,3.08l-.64-1.51A44.66,44.66,0,0,0,693.78,542.24Z" style="fill: url(#j)"/>
      <path d="M693.78,540.54c-1.92-.44-3.82-.76-5.73-1.21-4.4-.93-8.15-.58-12.3-1.34-4.15-1-7.92-3-12.33-3.92-1.91-.44-3.82-.77-5.7-1.23-4.41-1-8.18-.62-12.33-1.4-4.15-1-7.92-3-12.33-4-1.92-.45-3.83-.79-5.73-1.25-4.41-1-8.16-.63-12.3-1.41-4.15-1-7.9-3-12.31-3.94-1.92-.45-3.82-.78-5.71-1.24-4.41-.95-8.17-.61-12.33-1.37-4.15-1-7.91-3-12.32-3.89-1.92-.44-3.84-.76-5.73-1.2h0a38.91,38.91,0,0,0-5.94-.7c-.2.39-.4.78-.61,1.17,3.07.3,5.92.24,9,.79,4.15,1,7.91,2.94,12.33,3.88,1.91.43,3.81.77,5.7,1.22,4.41.94,8.18.61,12.33,1.38,4.15,1,7.94,3,12.35,4,1.91.42,4,.83,5.71,1.24,4.41,1,8.15.63,12.3,1.41,4.15,1,7.9,3,12.31,4,1.93.44,3.82.78,5.72,1.24,4.41,1,8.18.63,12.34,1.4,4.15,1,7.91,3,12.32,3.93,1.91.43,3.82.77,5.71,1.22,4.41.94,8.16.58,12.3,1.33,3.22.77,6.2,2.09,9.43,3.08l-.64-1.5A41.45,41.45,0,0,0,693.78,540.54Z" style="fill: url(#k)"/>
      <path d="M693.78,538.82c-1.92-.43-3.82-.75-5.73-1.2-4.4-.93-8.15-.58-12.3-1.34-4.15-1-7.92-3-12.33-3.92-1.91-.44-3.82-.77-5.7-1.23-4.41-1-8.18-.63-12.33-1.41-4.15-1-7.92-3-12.33-4-1.92-.45-3.83-.79-5.73-1.25-4.41-1-8.16-.63-12.3-1.41-4.15-1-7.9-3-12.31-4-1.92-.44-3.82-.77-5.71-1.23-4.41-.95-8.17-.61-12.33-1.38-4.15-1-7.91-2.95-12.32-3.88-1.92-.44-3.84-.76-5.73-1.21h0a40.15,40.15,0,0,0-5.94-.69c-.2.39-.4.78-.61,1.17,3.07.3,5.92.23,9,.79,4.15,1,7.91,2.94,12.33,3.88,1.91.43,3.81.77,5.7,1.22,4.41.94,8.18.6,12.33,1.38,4.15,1,7.94,3,12.35,3.95,1.91.42,4,.83,5.71,1.24,4.41,1,8.15.63,12.3,1.41,4.15,1,7.9,3,12.31,4,1.93.45,3.82.79,5.72,1.25,4.41,1,8.18.63,12.34,1.4,4.15,1,7.91,3,12.32,3.92,1.91.44,3.82.78,5.71,1.22,4.41.94,8.16.59,12.3,1.34,3.22.77,6.2,2.09,9.43,3.08-.21-.51-.43-1-.64-1.51A44.66,44.66,0,0,0,693.78,538.82Z" style="fill: url(#l)"/>
      <path d="M690.18,533c-.11-.24-.21-.49-.32-.73-39.9-8.39-79.81-17.41-119.72-25.8l-.31.6C609.94,515.54,650.06,524.61,690.18,533Z" style="fill: url(#m)"/>
      <path d="M689.09,530.53c-.05-.13-.1-.25-.16-.37-39.28-8.27-78.57-17.14-117.86-25.41-.05.1-.1.2-.16.3C610.31,513.34,649.7,522.23,689.09,530.53Z" style="fill: url(#n)"/>
      <path d="M689.72,532l-.26-.6c-39.64-8.34-79.28-17.29-118.92-25.63l-.26.49C610.1,514.62,649.91,523.61,689.72,532Z" style="fill: url(#o)"/>
      <path d="M689.21,530.8c-39.47-8.31-78.94-17.22-118.42-25.53l-.16.31c39.58,8.32,79.16,17.26,118.74,25.59Z" style="fill: url(#p)"/>
      <path d="M690.37,533.48c-40.25-8.46-80.49-17.56-120.73-26h0l-.32.6c40.46,8.5,80.91,17.65,121.36,26.15C690.58,534,690.47,533.72,690.37,533.48Z" style="fill: url(#q)"/>
      <path d="M690.87,534.64c-40.58-8.52-81.16-17.7-121.73-26.22l-.31.59c40.78,8.57,81.56,17.79,122.35,26.36Z" style="fill: url(#r)"/>
      <path d="M568.09,510.4l-.38.73c41.53,8.71,83.06,18.12,124.58,26.82l-.38-.89C650.64,528.41,609.37,519.06,568.09,510.4Z" style="fill: url(#s)"/>
      <path d="M691.37,535.81c-40.91-8.59-81.82-17.85-122.74-26.44l-.31.6c41.12,8.63,82.24,17.94,123.37,26.56Z" style="fill: url(#t)"/>
      <path d="M581,514.27l-4.76-1C580.62,515.19,581,514.27,581,514.27Z" style="fill: url(#u)"/>
      <path d="M683.73,536.47l-4.77-1S679.38,536.56,683.73,536.47Z" style="fill: url(#v)"/>
      <path d="M671.43,511.79a4,4,0,0,0-2.84-1.93h0c-2.16-.46-2.82.72-2.82.72-3.44,15.48-14.87,29.5-28.47,26.53l-10.18-2.22V551.4h0C653,557,678.8,562.69,704.63,568q-3.89-9.21-7.79-18.41C684.61,544.83,674.61,527.46,671.43,511.79Z" style="fill: url(#w)"/>
      <path d="M681.48,536.83A69.89,69.89,0,0,1,671,512l0,0a2,2,0,0,0-.43-.5,3.78,3.78,0,0,0-1.93-1h0a2.79,2.79,0,0,0-1.94.13.88.88,0,0,0-.41.35l0,0c-1.76,7.78-5.48,15.18-10.5,20.29s-11.43,8-18.4,6.47l-9.67-2.11v15.21c25.56,5.58,51.12,11.16,76.68,16.43q-3.58-8.46-7.16-16.91C691.27,548.22,685.87,543.17,681.48,536.83Z" style="fill: #97c924"/>
      <path d="M668.59,510.51h0a3.37,3.37,0,0,0-1.19-.07h0a1.93,1.93,0,0,0-.72.21c-.34.18-.4.33-.41.35l0,0c-.22,1-.46,1.94-.74,2.9-.14.48-.3,1-.45,1.43-.47,1.42-1,2.82-1.58,4.17-.39.91-.81,1.77-1.26,2.64a40,40,0,0,1-3.79,6,31.08,31.08,0,0,1-2.68,3.1A21.58,21.58,0,0,1,643.42,538c3.48,1.71,10.54,2.7,13.72,2.77a24.77,24.77,0,0,0,6.47-.46c1.72-2.54,2.27-1.51,3-3.74a20.69,20.69,0,0,0,2.54-9.34c0-4.12,0-11.92,0-16.56A5.36,5.36,0,0,0,668.59,510.51Z" style="fill: #ede71f"/>
      <path d="M652.24,540c2.5,1,5.09-.31,7.11-1.92,5.5-5.89,7.85-16.36,8.37-25.5C666,521.53,660.77,533.35,652.24,540Z" style="fill: #c6cb24"/>
      <polygon points="660.86 526.96 660.86 526.96 660.86 526.96 660.86 526.96" style="fill: #9ecb34"/>
      <path d="M646.19,539.24a30.18,30.18,0,0,0,3.53.71c5.11-4,9.88-9.09,11.14-13C656.55,533.7,649.3,539.57,646.19,539.24Z" style="fill: #9ecb34"/>
      <path d="M652.1,507.62a4,4,0,0,0-2.83-1.94h0c-2.16-.46-2.82.72-2.82.72C643,521.86,631.58,535.86,618,532.9l-10.18-2.22V547.2h0c25.83,5.61,51.66,11.31,77.48,16.77q-3.88-9.22-7.79-18.45C665.28,540.69,655.28,523.3,652.1,507.62Z" style="fill: url(#x)"/>
      <path d="M662.15,532.68a70,70,0,0,1-10.5-24.82l0,0a2.12,2.12,0,0,0-.43-.51,3.93,3.93,0,0,0-1.93-1h0a2.8,2.8,0,0,0-1.94.12c-.34.19-.4.34-.41.36l0,0c-1.76,7.78-5.48,15.16-10.5,20.26s-11.43,8-18.4,6.46l-9.67-2.1v15.21c25.56,5.55,51.12,11.19,76.68,16.6q-3.59-8.47-7.16-16.94C671.94,544.12,666.54,539.05,662.15,532.68Z" style="fill: #97c924"/>
      <path d="M649.26,506.33h0a3.67,3.67,0,0,0-1.19-.08h0a1.94,1.94,0,0,0-.72.2.94.94,0,0,0-.41.36l0,0c-.22,1-.46,1.94-.74,2.89-.14.48-.3,1-.45,1.44-.46,1.41-1,2.81-1.58,4.16-.39.91-.81,1.77-1.25,2.63a41.52,41.52,0,0,1-3.8,6,33.37,33.37,0,0,1-2.68,3.09,21.68,21.68,0,0,1-12.31,6.7c3.48,1.7,10.54,2.7,13.72,2.78a24.32,24.32,0,0,0,6.47-.45c1.72-2.53,2.27-1.51,3-3.74a20.61,20.61,0,0,0,2.54-9.32c0-4.13,0-11.93,0-16.57A5.36,5.36,0,0,0,649.26,506.33Z" style="fill: #ede71f"/>
      <path d="M632.91,535.74c2.5,1,5.09-.3,7.11-1.91,5.5-5.88,7.85-16.35,8.37-25.48C646.62,517.34,641.44,529.15,632.91,535.74Z" style="fill: #c6cb24"/>
      <polygon points="641.53 522.77 641.53 522.77 641.53 522.77 641.53 522.77" style="fill: #9ecb34"/>
      <path d="M626.86,535a30.6,30.6,0,0,0,3.53.71c5.11-3.94,9.88-9.07,11.14-13C637.22,529.5,630,535.36,626.86,535Z" style="fill: #9ecb34"/>
      <path d="M632.79,503.43h0a4.05,4.05,0,0,0-2.83-1.95c-2.15-.46-2.83.72-2.83.72-3.45,15.46-14.87,29.46-28.47,26.52l-10.17-2.19V543h0c27.63,5.93,55.27,12.06,82.9,18h0V544.52l-10.19-2.2C647.65,539.38,636.24,520.39,632.79,503.43Z" style="fill: url(#y)"/>
      <path d="M642.86,528.5a70.07,70.07,0,0,1-10.51-24.84l0,0a1.89,1.89,0,0,0-.42-.51,3.82,3.82,0,0,0-1.94-1h0a2.74,2.74,0,0,0-1.94.12c-.33.18-.4.34-.4.35l0,0c-1.76,7.78-5.48,15.17-10.5,20.26s-11.42,8-18.4,6.48L589,527.28V542.5c27.29,5.85,54.58,11.9,81.88,17.75V545L661.28,543C654.3,541.46,647.92,535.84,642.86,528.5Z" style="fill: #97c924"/>
      <path d="M628.77,502.05h0a2.21,2.21,0,0,0-.72.21c-.33.18-.39.33-.4.35l0,0c-.22,1-.47,1.94-.75,2.9-.14.48-.29,1-.45,1.43-.46,1.42-1,2.81-1.57,4.17-.39.9-.82,1.76-1.26,2.63a39.93,39.93,0,0,1-3.79,6,32.52,32.52,0,0,1-2.69,3.1,21.7,21.7,0,0,1-12.3,6.71c3.48,1.7,5.08,1,8.25,1.09a33.77,33.77,0,0,0,7.61-.2c1.72-2.53,1.13-1.75,1.82-4,1.49-3.08,3.66-5.68,4.2-9.33,2-4.19,2.4-12.69,2.4-15.14h0Z" style="fill: #ede71f"/>
      <path d="M613.6,531.53c2.5,1,5.09-.3,7.12-1.91,5.5-5.88,7.85-16.34,8.37-25.48C627.32,513.14,622.13,524.94,613.6,531.53Z" style="fill: #c6cb24"/>
      <path d="M607.56,530.83a31.91,31.91,0,0,0,3.53.71c5.11-3.95,9.88-9.08,11.14-13h0C617.92,525.28,610.67,531.15,607.56,530.83Z" style="fill: #9ecb34"/>
      <path d="M640.19,524.23a70.42,70.42,0,0,1-3.8-7.69c-.44-1-.86-2.1-1.25-3.18-.59-1.61-1.11-3.23-1.58-4.85-.15-.54-.31-1.09-.45-1.62-.28-1.08-.52-2.16-.74-3.23,0,0,0,0,0,0a1.8,1.8,0,0,0-.41-.53,3.54,3.54,0,0,0-.72-.52h0c-.2,6.45,1.68,13.76,2.35,17.08s1.9,5.86,5.22,11.78,7.28,7.78,16.41,9.72c-4.59-2.63-8.77-7.52-12.31-12.66C641.93,527.14,641,525.71,640.19,524.23Z" style="fill: #ede71f"/>
      <path d="M631.86,504.74c.52,9.37,2.8,19,8.3,27.31,2,2.49,4.61,4.91,7.11,5C638,527.37,633.63,514.51,631.86,504.74Z" style="fill: #c6cb24"/>
      <path d="M613.6,499.24a4,4,0,0,0-2.82-1.94h0c-2.15-.47-2.83.71-2.83.71-3.18,14.25-14.9,31-27.08,30.68q-3,5.71-6,11.43c20.59,4.35,41.17,8.86,61.76,13.35v-17.4C625.47,530,616.57,513.87,613.6,499.24Z" style="fill: url(#z)"/>
      <path d="M613.15,499.47s0,0,0,0a1.8,1.8,0,0,0-.41-.53,3.86,3.86,0,0,0-1.94-1h0a2.68,2.68,0,0,0-1.93.15c-.34.18-.42.3-.43.32l0,0c-1.77,7.78-5.9,15.14-10.18,20.78S586,529.8,580.53,529.34l-5.4,10.2c20.18,4.27,40.37,8.68,60.56,13.08V536.23a40.1,40.1,0,0,1-12-11.92A70,70,0,0,1,613.15,499.47Z" style="fill: #97c924"/>
      <path d="M587,530.94c1.42.09,5.51.62,7.84.14,7.17-1.47,13.51-17.58,14.29-31.28C607,510.94,599.54,526.38,587,530.94Z" style="fill: #93bc30"/>
      <polygon points="609.14 499.8 609.14 499.8 609.14 499.8 609.14 499.8" style="fill: #93bc30"/>
      <path d="M623.65,524.31c-.62-.9-1.19-1.83-1.77-2.77-.26-.5-.63-1.21-.75-1.41a71.92,71.92,0,0,1-4-7.78c-.44-1.06-.86-2.1-1.26-3.18q-.88-2.42-1.57-4.85c-.16-.54-.31-1.09-.45-1.63-.28-1.08-.53-2.15-.75-3.22,0,0,0,0,0,0a1.63,1.63,0,0,0-.4-.53,3.64,3.64,0,0,0-.73-.52h0a4.51,4.51,0,0,0-1.19-.44h0a3.34,3.34,0,0,0-.51-.06c0,4.62,0,12.43,0,16.56,0,3.6,1.05,6.7,2.53,10.43.09.31.17.58.26.81.52,1.77.9,2.43,2.87,4.69a30.37,30.37,0,0,0,18.66,10.26c-1.43-1.69-3-3.28-4.32-4.72a26.79,26.79,0,0,0,5.69.46C631.37,533.74,627.19,529.45,623.65,524.31Z" style="fill: #ede71f"/>
      <polygon points="611.66 500.34 611.66 500.34 611.66 500.34 611.66 500.34" style="fill: #ccd11e"/>
      <path d="M611.66,500.34c.52,9.37,2.87,20.85,8.37,29.13,2,2.5,4.62,4.92,7.12,5C618.62,524.17,613.43,510.11,611.66,500.34Z" style="fill: #ccd11e"/>
      <path d="M616.91,514.28c3,9.6,10.55,19.61,18.33,26.93a24.86,24.86,0,0,0,3.19.6C632.87,537,623.89,529.82,616.91,514.28Z" style="fill: #9ecb34"/>
      <path d="M594.15,495a3.9,3.9,0,0,0-2.81-1.93h0c-2.15-.46-2.83.71-2.83.71-3.18,14.27-14.9,31-27.09,30.79l-6,11.46c20.59,4.24,41.17,8.69,61.76,13.17v-17.4C606,525.77,597.13,509.65,594.15,495Z" style="fill: url(#aa)"/>
      <path d="M593.71,495.27s0,0,0,0a1.71,1.71,0,0,0-.41-.52,3.78,3.78,0,0,0-1.94-1h0a2.71,2.71,0,0,0-1.94.15,1.19,1.19,0,0,0-.42.32l0,0c-1.77,7.79-5.9,15.16-10.18,20.81s-12.25,10.63-17.7,10.2q-2.69,5.12-5.39,10.22c20.18,4.16,40.37,8.52,60.55,12.91V532a40.15,40.15,0,0,1-12-11.91A69.91,69.91,0,0,1,593.71,495.27Z" style="fill: #97c924"/>
      <path d="M567.56,526.82c1.43.08,5.51.6,7.85.11,7.17-1.5,13.51-17.63,14.29-31.33C587.51,506.75,580.1,522.2,567.56,526.82Z" style="fill: #93bc30"/>
      <polygon points="589.7 495.6 589.7 495.6 589.7 495.6 589.7 495.6" style="fill: #93bc30"/>
      <path d="M604.2,520.08c-.61-.89-1.19-1.82-1.76-2.77-.27-.5-.63-1.2-.75-1.4a71.92,71.92,0,0,1-4-7.78c-.45-1.05-.87-2.1-1.26-3.17q-.88-2.41-1.57-4.85c-.16-.54-.31-1.09-.45-1.63-.28-1.08-.53-2.15-.75-3.22l0,0a1.55,1.55,0,0,0-.4-.52,3,3,0,0,0-.73-.52h0a4.65,4.65,0,0,0-1.19-.44h0a3.25,3.25,0,0,0-.51-.05c0,4.62,0,12.43,0,16.56,0,3.6,1,6.7,2.53,10.42.09.32.17.58.26.81.51,1.77.9,2.43,2.87,4.69a30.3,30.3,0,0,0,18.66,10.23c-1.43-1.69-3-3.27-4.32-4.72a26.75,26.75,0,0,0,5.69.46C611.93,529.5,607.74,525.22,604.2,520.08Z" style="fill: #ede71f"/>
      <polygon points="592.22 496.14 592.22 496.14 592.22 496.14 592.22 496.14" style="fill: #c6cb24"/>
      <path d="M592.22,496.14c.52,9.36,2.87,20.84,8.37,29.11,2,2.49,4.61,4.91,7.12,5C599.18,520,594,505.9,592.22,496.14Z" style="fill: #c6cb24"/>
      <path d="M597.47,510.06c3,9.6,10.55,19.59,18.33,26.91a23,23,0,0,0,3.19.6C613.42,532.72,604.45,525.58,597.47,510.06Z" style="fill: #9ecb34"/>
      <path d="M693.08,557.39l-1.61.18c-1.41-.31-2.82-.56-4.19-.88-4.54-1-8.38-.32-12.7-1.25s-8.15-3.2-12.69-4.18c-1.41-.32-2.82-.57-4.2-.91-4.54-1-8.37-.36-12.69-1.3s-8.16-3.23-12.7-4.22c-1.42-.32-2.82-.58-4.22-.92-4.54-1-8.35-.37-12.67-1.31s-8.14-3.22-12.67-4.2l-1-.19-.7-.18-.43-.09-.45-.09-.66-.12c-.33-.08-.64-.17-1-.24-4.54-1-8.37-.35-12.69-1.27s-8.16-3.2-12.7-4.16l-1-.18-.66-.16-.47-.1c-.14,0-.29-.06-.45-.09s-.45-.08-.68-.12l-1-.23c-3.63-.77-7.84-.71-11.26-1l-7.91,15c26.45,5.39,52.9,11.16,79.35,16.92,27,5.9,54.07,11.81,81.11,17.33q-4.51-10.12-9-20.26C700.47,559.31,695.62,557.7,693.08,557.39Z" style="fill: #fff"/>
      <path d="M690.47,554.49h0q-.37-.09-.75-.15c-4.08-.72-7,.23-14.11-1.28s-7.84-3.24-15.86-4.76c-7.49-1.42-10.64-.37-14.7-1.32s-10.68-3.4-15.76-3.86-11.13-.46-15.09-1.31c-4.93-1.1-9.85-3.26-15-3.75s-7.56.67-13.94-.72c-5.49-1.19-11.45-3.5-16.06-4.47-4.33-.9-9.16-.44-12.71-.43l-1.06,2c2.83.18,10.77.37,13.61.88s13.5,3.59,19.32,4.6,6.5-.4,13.38,1.08c4.79,1,8.4,2.44,13.31,3.5,3.07.67,5.85-.63,10.52.39,1.17.22,2.34.42,3.52.63,3.92.07,10.56,2.37,15.18,3.66,4.17,1.18,6.87.56,11.23,1.32,1.88.31,3.77.72,5.63,1,4.36.76,8.1,2.72,12.2,3.58,4.1.57,8.07.3,12.42,1,1.91.29,3.78.69,5.66,1a55.31,55.31,0,0,1,10.43,2.94c-.36-.81-.71-1.62-1.06-2.44C697.78,556.88,694.09,555.25,690.47,554.49Z" style="fill: url(#ab)"/>
      <path d="M705.18,576.84c-4.1-1-7.81-3.06-12.17-4-1.9-.42-3.77-.74-5.65-1.19-4.36-.91-8.06-.39-12.16-1.13-4.11-1-7.82-3.12-12.18-4.06-1.89-.44-3.77-.77-5.64-1.22-4.35-.94-8.08-.44-12.18-1.19-4.1-1-7.82-3.16-12.18-4.11-1.89-.44-3.78-.78-5.65-1.23-4.36-1-8.07-.45-12.16-1.2-4.1-1-7.81-3.15-12.16-4.09-1.9-.44-3.77-.77-5.64-1.22-4.36-.94-8.07-.43-12.18-1.17-4.1-1-7.82-3.11-12.18-4-1.89-.43-3.79-.76-5.66-1.19h0c-4.35-.92-8.06-.38-12.16-1.08a39.16,39.16,0,0,1-4.45-1.45l-.62,1.18c.61.18,1.23.35,1.88.48,1.89.42,3.76.72,5.63,1.16,4.36.9,8,.37,12.14,1.08,4.1,1,7.82,3.1,12.18,4,1.89.43,3.77.75,5.64,1.21,4.35.93,8.08.42,12.18,1.17,4.1,1,7.85,3.15,12.2,4.09,1.89.44,3.77.77,5.63,1.23,4.36,1,8.07.45,12.17,1.2,4.1,1,7.8,3.15,12.15,4.1,1.91.44,3.78.77,5.66,1.23,4.36.95,8.08.45,12.18,1.19,4.11,1,7.83,3.14,12.18,4.08,1.89.43,3.78.75,5.64,1.2,4.35.93,8.06.41,12.16,1.13,4.1,1,7.82,3.09,12.18,4,1.89.42,3.77.72,5.63,1.16.77.15,1.51.25,2.24.34-.19-.45-.38-.9-.58-1.34A31.73,31.73,0,0,1,705.18,576.84Z" style="fill: url(#ac)"/>
      <path d="M705.18,574.86c-4.1-1-7.81-3.06-12.17-4-1.9-.43-3.77-.75-5.65-1.19-4.36-.92-8.06-.4-12.16-1.13-4.11-1-7.82-3.13-12.18-4.07-1.89-.44-3.77-.77-5.64-1.22-4.35-.94-8.08-.44-12.18-1.19-4.1-1-7.82-3.16-12.18-4.11-1.89-.44-3.78-.78-5.65-1.23-4.36-1-8.07-.45-12.16-1.2-4.1-1-7.81-3.15-12.16-4.09-1.9-.44-3.77-.77-5.64-1.22-4.36-.94-8.07-.43-12.18-1.16-4.1-1-7.82-3.12-12.18-4-1.89-.43-3.79-.75-5.66-1.19h0c-4.35-.91-8.06-.38-12.16-1.08a39.1,39.1,0,0,1-4.45-1.44l-.62,1.17c.61.18,1.23.35,1.88.49,1.89.41,3.76.71,5.63,1.16,4.36.9,8,.36,12.14,1.08,4.1,1,7.82,3.1,12.18,4,1.89.44,3.77.75,5.64,1.21,4.35.93,8.08.43,12.18,1.17,4.1,1,7.85,3.15,12.2,4.1,1.89.43,3.77.76,5.63,1.22,4.36.95,8.07.45,12.17,1.2,4.1,1,7.8,3.15,12.15,4.1,1.91.45,3.78.77,5.66,1.23,4.36.95,8.08.45,12.18,1.2,4.11,1,7.83,3.13,12.18,4.07,1.89.43,3.78.75,5.64,1.2,4.35.93,8.06.41,12.16,1.13,4.1,1,7.82,3.09,12.18,4,1.89.42,3.77.72,5.63,1.16.77.16,1.51.26,2.24.34-.19-.45-.38-.89-.58-1.34A31.73,31.73,0,0,1,705.18,574.86Z" style="fill: url(#ad)"/>
      <path d="M705.18,572.89c-4.1-1-7.81-3.06-12.17-4-1.9-.43-3.77-.75-5.65-1.19-4.36-.92-8.06-.4-12.16-1.13-4.11-1-7.82-3.13-12.18-4.07-1.89-.44-3.77-.77-5.64-1.22-4.35-.94-8.08-.44-12.18-1.19-4.1-1-7.82-3.16-12.18-4.11-1.89-.44-3.78-.78-5.65-1.23-4.36-.95-8.07-.45-12.16-1.2-4.1-1-7.81-3.15-12.16-4.09-1.9-.44-3.77-.77-5.64-1.22-4.36-.94-8.07-.43-12.18-1.17-4.1-1-7.82-3.11-12.18-4-1.89-.43-3.79-.75-5.66-1.19h0c-4.35-.91-8.06-.38-12.16-1.08a39.1,39.1,0,0,1-4.45-1.44l-.62,1.17c.61.18,1.23.35,1.88.48,1.89.42,3.76.72,5.63,1.16,4.36.91,8,.37,12.14,1.09,4.1,1,7.82,3.1,12.18,4,1.89.44,3.77.75,5.64,1.21,4.35.93,8.08.43,12.18,1.17,4.1,1,7.85,3.15,12.2,4.1,1.89.43,3.77.76,5.63,1.22,4.36.95,8.07.45,12.17,1.2,4.1,1,7.8,3.15,12.15,4.1,1.91.45,3.78.77,5.66,1.23,4.36,1,8.08.45,12.18,1.2,4.11,1,7.83,3.13,12.18,4.07,1.89.43,3.78.75,5.64,1.2,4.35.93,8.06.41,12.16,1.13,4.1,1,7.82,3.09,12.18,4,1.89.42,3.77.72,5.63,1.16.77.16,1.51.26,2.24.34-.19-.45-.38-.9-.58-1.34A31.73,31.73,0,0,1,705.18,572.89Z" style="fill: url(#ae)"/>
      <path d="M705.18,570.91c-4.1-1-7.81-3.06-12.17-4-1.9-.42-3.77-.74-5.65-1.19-4.36-.91-8.06-.39-12.16-1.13-4.11-1-7.82-3.12-12.18-4.06-1.89-.44-3.77-.77-5.64-1.22-4.35-.94-8.08-.44-12.18-1.19-4.1-1-7.82-3.16-12.18-4.11-1.89-.44-3.78-.78-5.65-1.23-4.36-.95-8.07-.45-12.16-1.2-4.1-1-7.81-3.15-12.16-4.09-1.9-.44-3.77-.77-5.64-1.22-4.36-.94-8.07-.43-12.18-1.17-4.1-1-7.82-3.11-12.18-4-1.89-.43-3.79-.76-5.66-1.19h0c-4.35-.92-8.06-.38-12.16-1.08a39.16,39.16,0,0,1-4.45-1.45l-.62,1.18c.61.18,1.23.35,1.88.48,1.89.42,3.76.72,5.63,1.16,4.36.9,8,.37,12.14,1.08,4.1,1,7.82,3.1,12.18,4,1.89.43,3.77.75,5.64,1.21,4.35.93,8.08.42,12.18,1.17,4.1,1,7.85,3.15,12.2,4.09,1.89.44,3.77.77,5.63,1.23,4.36,1,8.07.45,12.17,1.2,4.1,1,7.8,3.15,12.15,4.1,1.91.44,3.78.77,5.66,1.23,4.36,1,8.08.45,12.18,1.19,4.11,1,7.83,3.14,12.18,4.08,1.89.43,3.78.75,5.64,1.2,4.35.93,8.06.41,12.16,1.13,4.1,1,7.82,3.09,12.18,4,1.89.42,3.77.72,5.63,1.16.77.15,1.51.25,2.24.34-.19-.45-.38-.9-.58-1.34A31.73,31.73,0,0,1,705.18,570.91Z" style="fill: url(#af)"/>
      <path d="M705.18,568.93c-4.1-1-7.81-3.06-12.17-4-1.9-.43-3.77-.75-5.65-1.19-4.36-.92-8.06-.4-12.16-1.13-4.11-1-7.82-3.13-12.18-4.07-1.89-.44-3.77-.77-5.64-1.22-4.35-.94-8.08-.44-12.18-1.19-4.1-1-7.82-3.16-12.18-4.11-1.89-.44-3.78-.78-5.65-1.23-4.36-1-8.07-.45-12.16-1.2-4.1-1-7.81-3.15-12.16-4.09-1.9-.44-3.77-.77-5.64-1.22-4.36-.94-8.07-.43-12.18-1.16-4.1-1-7.82-3.12-12.18-4-1.89-.43-3.79-.75-5.66-1.19h0c-4.35-.91-8.06-.38-12.16-1.08a39.1,39.1,0,0,1-4.45-1.44l-.62,1.17c.61.18,1.23.35,1.88.49,1.89.41,3.76.71,5.63,1.16,4.36.9,8,.36,12.14,1.08,4.1,1,7.82,3.1,12.18,4,1.89.43,3.77.74,5.64,1.2,4.35.93,8.08.43,12.18,1.17,4.1,1,7.85,3.15,12.2,4.1,1.89.43,3.77.76,5.63,1.22,4.36,1,8.07.45,12.17,1.2,4.1,1,7.8,3.16,12.15,4.1,1.91.45,3.78.77,5.66,1.24,4.36.94,8.08.44,12.18,1.19,4.11,1,7.83,3.13,12.18,4.07,1.89.43,3.78.75,5.64,1.2,4.35.93,8.06.41,12.16,1.13,4.1,1,7.82,3.09,12.18,4,1.89.42,3.77.72,5.63,1.16.77.16,1.51.26,2.24.34-.19-.45-.38-.89-.58-1.34A30,30,0,0,1,705.18,568.93Z" style="fill: url(#ag)"/>
      <path d="M705.18,567c-4.1-1-7.81-3.06-12.17-4-1.9-.43-3.77-.75-5.65-1.19-4.36-.92-8.06-.4-12.16-1.13-4.11-1-7.82-3.13-12.18-4.07-1.89-.44-3.77-.77-5.64-1.22-4.35-.94-8.08-.44-12.18-1.19-4.1-1-7.82-3.16-12.18-4.11-1.89-.44-3.78-.78-5.65-1.23-4.36-1-8.07-.45-12.16-1.2-4.1-1-7.81-3.15-12.16-4.09-1.9-.44-3.77-.77-5.64-1.22-4.36-.94-8.07-.43-12.18-1.16-4.1-1-7.82-3.12-12.18-4-1.89-.43-3.79-.75-5.66-1.19h0c-4.35-.91-8.06-.38-12.16-1.08a39.1,39.1,0,0,1-4.45-1.44l-.62,1.17c.61.18,1.23.35,1.88.48,1.89.42,3.76.72,5.63,1.16,4.36.91,8,.37,12.14,1.09,4.1,1,7.82,3.1,12.18,4,1.89.44,3.77.75,5.64,1.21,4.35.93,8.08.43,12.18,1.17,4.1,1,7.85,3.15,12.2,4.1,1.89.43,3.77.76,5.63,1.22,4.36,1,8.07.45,12.17,1.2,4.1,1,7.8,3.15,12.15,4.1,1.91.45,3.78.77,5.66,1.23,4.36.95,8.08.45,12.18,1.2,4.11,1,7.83,3.13,12.18,4.07,1.89.43,3.78.75,5.64,1.2,4.35.93,8.06.41,12.16,1.13,4.1,1,7.82,3.09,12.18,4,1.89.42,3.77.72,5.63,1.16.77.16,1.51.26,2.24.34-.19-.45-.38-.9-.58-1.34A31.73,31.73,0,0,1,705.18,567Z" style="fill: url(#ah)"/>
      <path d="M705.18,565c-4.1-1-7.81-3.06-12.17-4-1.9-.43-3.77-.74-5.65-1.19-4.36-.91-8.06-.39-12.16-1.13-4.11-1-7.82-3.12-12.18-4.06-1.89-.44-3.77-.77-5.64-1.22-4.35-.94-8.08-.44-12.18-1.2-4.1-1-7.82-3.15-12.18-4.1-1.89-.44-3.78-.78-5.65-1.23-4.36-1-8.07-.45-12.16-1.2-4.1-1-7.81-3.15-12.16-4.09-1.9-.44-3.77-.77-5.64-1.22-4.36-.94-8.07-.43-12.18-1.17-4.1-1-7.82-3.12-12.18-4-1.89-.43-3.79-.75-5.66-1.19h0c-4.35-.91-8.06-.37-12.16-1.07a39.16,39.16,0,0,1-4.45-1.45l-.62,1.18c.61.18,1.23.35,1.88.48,1.89.42,3.76.72,5.63,1.16,4.36.9,8,.36,12.14,1.08,4.1,1,7.82,3.1,12.18,4,1.89.43,3.77.75,5.64,1.21,4.35.93,8.08.42,12.18,1.17,4.1,1,7.85,3.15,12.2,4.09,1.89.44,3.77.77,5.63,1.23,4.36.95,8.07.45,12.17,1.2,4.1,1,7.8,3.15,12.15,4.1,1.91.44,3.78.77,5.66,1.23,4.36.95,8.08.45,12.18,1.19,4.11,1,7.83,3.14,12.18,4.08,1.89.43,3.78.75,5.64,1.2,4.35.93,8.06.4,12.16,1.13,4.1,1,7.82,3.08,12.18,4,1.89.41,3.77.72,5.63,1.16.77.15,1.51.25,2.24.34-.19-.45-.38-.9-.58-1.35A30,30,0,0,1,705.18,565Z" style="fill: url(#ai)"/>
      <path d="M705.18,563c-4.1-1-7.81-3.06-12.17-4-1.9-.43-3.77-.75-5.65-1.19-4.36-.92-8.06-.4-12.16-1.13-4.11-1-7.82-3.13-12.18-4.07-1.89-.44-3.77-.77-5.64-1.22-4.35-.94-8.08-.44-12.18-1.19-4.1-1-7.82-3.16-12.18-4.11-1.89-.44-3.78-.78-5.65-1.23-4.36-.95-8.07-.45-12.16-1.2-4.1-1-7.81-3.15-12.16-4.09-1.9-.44-3.77-.77-5.64-1.22-4.36-.94-8.07-.43-12.18-1.17-4.1-1-7.82-3.11-12.18-4-1.89-.43-3.79-.75-5.66-1.19h0c-4.35-.92-8.06-.38-12.16-1.08a39.1,39.1,0,0,1-4.45-1.44l-.62,1.17c.61.18,1.23.35,1.88.48,1.89.42,3.76.72,5.63,1.16,4.36.91,8,.37,12.14,1.09,4.1,1,7.82,3.1,12.18,4,1.89.44,3.77.75,5.64,1.21,4.35.93,8.08.43,12.18,1.17,4.1,1,7.85,3.15,12.2,4.1,1.89.43,3.77.76,5.63,1.22,4.36.95,8.07.45,12.17,1.2,4.1,1,7.8,3.15,12.15,4.1,1.91.45,3.78.77,5.66,1.23,4.36,1,8.08.45,12.18,1.2,4.11,1,7.83,3.13,12.18,4.07,1.89.43,3.78.75,5.64,1.2,4.35.93,8.06.41,12.16,1.13,4.1,1,7.82,3.09,12.18,4,1.89.42,3.77.72,5.63,1.16.77.16,1.51.26,2.24.34-.19-.45-.38-.9-.58-1.34A31.73,31.73,0,0,1,705.18,563Z" style="fill: url(#aj)"/>
      <path d="M705.18,561c-4.1-1-7.81-3.06-12.17-4-1.9-.43-3.77-.75-5.65-1.19-4.36-.92-8.06-.4-12.16-1.14-4.11-1-7.82-3.12-12.18-4.06-1.89-.44-3.77-.77-5.64-1.22-4.35-.94-8.08-.44-12.18-1.19-4.1-1-7.82-3.16-12.18-4.11-1.89-.44-3.78-.78-5.65-1.23-4.36-.95-8.07-.45-12.16-1.2-4.1-1-7.81-3.15-12.16-4.09-1.9-.44-3.77-.77-5.64-1.22-4.36-.94-8.07-.43-12.18-1.17-4.1-1-7.82-3.11-12.18-4-1.89-.43-3.79-.76-5.66-1.19h0c-4.35-.92-8.06-.38-12.16-1.08a41.2,41.2,0,0,1-4.45-1.44l-.62,1.17c.61.18,1.23.35,1.88.48,1.89.42,3.76.72,5.63,1.16,4.36.9,8,.37,12.14,1.09,4.1,1,7.82,3.09,12.18,4,1.89.44,3.77.75,5.64,1.21,4.35.93,8.08.42,12.18,1.17,4.1,1,7.85,3.15,12.2,4.1,1.89.43,3.77.76,5.63,1.22,4.36,1,8.07.45,12.17,1.2,4.1,1,7.8,3.15,12.15,4.1,1.91.45,3.78.77,5.66,1.23,4.36,1,8.08.45,12.18,1.2,4.11,1,7.83,3.13,12.18,4.07,1.89.43,3.78.75,5.64,1.2,4.35.93,8.06.41,12.16,1.13,4.1,1,7.82,3.09,12.18,4,1.89.42,3.77.72,5.63,1.16.77.16,1.51.26,2.24.34-.19-.45-.38-.9-.58-1.34A31.73,31.73,0,0,1,705.18,561Z" style="fill: url(#ak)"/>
      <path d="M698.34,553.4c-42.52-7.7-85.05-16.22-127.57-24l-11.52-.64-3.06,5.79c3.57,0,8.95-.75,13.4.18,4.61,1,10.18,3.53,15.67,4.72,6.38,1.39,8.79.24,13.94.72s10.08,3,15,4.09c4,.85,10,.51,15.09,1s9.74,2.58,15.88,4,7.09-.27,14.58,1.15c8,1.52,8.76,3.24,15.86,4.76,5.34,1.49,9.93.8,14.7,1.39s7,1.53,10.46,2.36q-1.15-2.75-2.32-5.47Z" style="fill: #97c924"/>
      <path d="M693.08,557.39s3.42.94,4.85,1.44,3.73,1.16,3.73,1.16l-.47-.84C700.47,559.31,695.62,557.7,693.08,557.39Z" style="fill: #fff"/>
    </g>
    <polygon points="630 390.83 630 390.83 630 390.83 630 390.83" style="fill: #c8a400"/>
    <path d="M630,390.83q-20.25,38.28-40.5,76.6Q568.8,506.61,548.1,546c27,5.5,54,11.38,81,17.26,27.59,6,55.18,12,82.78,17.67q-20.25-46.81-40.51-93.87Q650.69,439,630,390.83ZM629.12,561c-25.92-5.65-51.83-11.3-77.75-16.6q19.89-37.83,39.77-75.43,19.43-36.8,38.86-73.5,19.88,46.24,39.75,92.43Q689.19,533,708.62,578C682.12,572.52,655.62,566.74,629.12,561Z" style="fill: #c8a400"/>
  </g>
</svg>
