<svg xmlns="http://www.w3.org/2000/svg" viewBox="0 0 1260 1011.17">
  <g>
    <path d="M306.36.1q7.2-.15,14.4,0Q313.56-.09,306.36.1Z" style="fill: #ef2b2d"/>
    <path d="M950.92,1011.13q-4.27,0-8.55,0Q946.65,1011.2,950.92,1011.13Z" style="fill: #ef2b2d"/>
    <path d="M320.76.09q-7.2-.13-14.4,0C204.24,2.91,102.12,65.88,0,245.8v760.61c314.12-553.5,628.25,0,942.37,4.69q4.27,0,8.55,0C1054,1009.35,1157,946.89,1260,765.38V4.75C946.92,556.41,633.84,8.34,320.76.09Z" style="fill: #ef2b2d"/>
    <path d="M343.64,762.26c76.36,8.17,152.72,46.11,229.09,90V91.62C496.36,47.74,420,9.81,343.64,1.63Z" style="fill: #fff"/>
    <path d="M0,531.05V721.21c420-740.06,840,499,1260-241.07V290C840,1030,420-209,0,531.05Z" style="fill: #fff"/>
    <path d="M400.91,773.6c38.18,10.81,76.36,27.51,114.54,47.2V60.19C477.27,40.49,439.09,23.75,400.91,13Z" style="fill: #002868"/>
    <path d="M0,578.59v95.08C420-66.39,840,1172.6,1260,432.57V337.5C840,1077.55,420-161.48,0,578.59Z" style="fill: #002868"/>
  </g>
</svg>
