<svg xmlns="http://www.w3.org/2000/svg" viewBox="0 0 1260 930.23">
  <g>
    <path d="M45.46,878.44c352.09-171.09,704.18,89.73,1056.27,2-249-87.09-498-348.5-747-508.2-103.1-4.37-206.2,8.69-309.31,58.79Z" style="fill: #dc143c"/>
    <path d="M45.46,34.85v210.9c103.11,11.66,206.21,60.35,309.31,126.48,249,10.56,498,122.83,747,60.78C749.64,388.69,397.55-4.18,45.46,34.85Z" style="fill: #dc143c"/>
    <path d="M45.46,431c103.11-50.1,206.21-63.16,309.31-58.79C251.67,306.1,148.57,257.41,45.46,245.75Z" style="fill: #dc143c"/>
    <path d="M1260,394.7h0Z" style="fill: #003893"/>
    <path d="M0,10.22H0v920c403.83-240.54,807.66,131.3,1211.49-62.09h0C807.65,1061.51,403.83,689.69,0,930.22Z" style="fill: #003893"/>
    <path d="M1260,394.71h0C840,487.32,420-82.41,0,10.22v920c403.82-240.53,807.64,131.29,1211.47-62.08-249-29.91-498-274.68-746.95-458.31C729.68,446.56,994.83,552.63,1260,394.71ZM90.93,64.28C375.1,61.62,659.28,318.43,943.46,424.37c-190,.43-379.9-66.55-569.85-78.38C279.38,283.68,185.15,234.93,90.93,214.72Zm0,227.46c51.36,11,102.72,30.51,154.09,56.07C193.65,353,142.29,364.29,90.93,384ZM992,870.13c-300.35,20.24-600.7-154.14-901-38.68v-393c81.67-31.4,163.34-41.36,245-39.64C554.62,534.47,773.29,753.89,992,870.13Z" style="fill: #003893"/>
    <path d="M45.46,878.44c352.09-171.09,704.18,89.73,1056.27,2-249-87.09-498-348.5-747-508.2-103.1-4.37-206.2,8.69-309.31,58.79Z" style="fill: #dc143c"/>
    <path d="M45.46,34.85v210.9c103.11,11.66,206.21,60.35,309.31,126.48,249,10.56,498,122.83,747,60.78C749.64,388.69,397.55-4.18,45.46,34.85Z" style="fill: #dc143c"/>
    <path d="M45.46,431c103.11-50.1,206.21-63.16,309.31-58.79C251.67,306.1,148.57,257.41,45.46,245.75Z" style="fill: #dc143c"/>
    <path d="M425.37,295.78q-9-5-18-9.84,17.61-6.26,35.21-12-21.3-5.88-42.6-11,11.26-10.46,22.53-20.68-22-.47-44-.08l6.51-25.69q-19.1,5.44-38.2,11.64Q341.39,215,335.94,202q-13.21,10.28-26.41,21-13.2-10.41-26.41-20.34Q277.59,215.69,272,228.9q-19-5.58-38-10.09,3.26,12.8,6.51,25.63-22,.44-44,2.42,11.44,9.38,22.89,19.2-21.48,6.31-43,14.2,17.61,4.11,35.21,9.3Q202.85,295,194,300.67c-41.72-7.13-75.69-18.73-94.71-40.82,0,69.38,94.19,88.73,210.38,89.39l-.18-.31c116.19-.32,210.37-35.56,210.37-106.34C501.42,267.67,468,285.33,425.37,295.78Z" style="fill: #fff"/>
    <polygon points="208.13 542.88 208.13 542.88 208.13 542.88 208.13 542.88" style="fill: #fff"/>
    <path d="M448.08,582.13q28.6-19,57.21-37c-31.45-2.81-62.91-4.89-94.36-5.68q5.81-27.69,11.62-55.32c-25.23,8.71-50.47,18.21-75.7,28.78q-18.66-26.92-37.32-53-18.48,26.4-37,53.72a744.71,744.71,0,0,0-76.05-25.24q5.81,27.21,11.62,54.54h0a561.48,561.48,0,0,0-94.36,16.22q28.61,13,57.21,29.32A761.21,761.21,0,0,0,83.49,638a503.73,503.73,0,0,1,87.49-5q-28.6,29.13-57.21,61.37a620.31,620.31,0,0,1,94.36-30.14q-5.81,29.24-11.62,58.6c25.23-16,50.47-30.31,75.7-43.28q18.66,25.11,37.32,51.18,18.48-26.46,37-52.09c25.35,12.3,50.7,25.69,76.05,39.87q-5.81-28.87-11.62-57.71c31.45,5.42,62.91,12.14,94.36,19.59q-28.6-27.3-57.21-53.68c29.16-3.67,58.33-6.42,87.49-8.69C506.41,605.38,477.24,593.3,448.08,582.13Z" style="fill: #fff"/>
  </g>
</svg>
