<svg xmlns="http://www.w3.org/2000/svg" viewBox="0 0 1260 1012.04">
  <g>
    <path d="M0,90.08v920C420,738.76,840,1193.28,1260,922V2C840,273.28,420-181.24,0,90.08Z" style="fill: #002b7f"/>
    <path d="M0,588.41C420,317.09,840,771.62,1260,500.3V423.63C840,695,420,240.43,0,511.74Z" style="fill: #ffc61e"/>
    <path d="M365.71,633.6q20.12-27.09,40.22-53.28c-17.93,5.53-35.87,11.53-53.81,18.12q7.69-38.9,15.38-77.67-19.46,28.05-38.91,57Q321.8,538,315,498.33q-6.79,39.63-13.59,79.38-19.46-29-38.91-57,7.69,38.72,15.38,77.6C259.94,591.81,242,586,224.07,581q20.1,25.58,40.22,52.55Q237.14,645.47,210,659.85c18.1,3.61,36.19,8.12,54.29,13.41q-20.12,29.88-40.22,61.1,26.9-15,53.81-27.58-7.69,39.69-15.38,79.56Q282,755.5,301.41,725.82,308.21,765.34,315,805q6.79-39.63,13.59-79.12Q348,755.64,367.5,786.35q-7.69-39.81-15.38-79.48,26.91,12.57,53.81,26.78-20.1-30.6-40.22-60.36,27.15-8.13,54.29-14.68Q392.85,645.37,365.71,633.6Z" style="fill: #fff"/>
  </g>
</svg>
