<svg xmlns="http://www.w3.org/2000/svg" xmlns:xlink="http://www.w3.org/1999/xlink" viewBox="0 0 1260 1012.04">
  <defs>
    <clipPath id="a">
      <path d="M0,90.08v230c245-158.27,490-69.55,735-22v230c-35-6.79-70-14.42-105-22.06C420,306.89,210,107.75,0,90.08Zm0,460V703.41c105-67.83,210-90.29,315-90.07V0C420,.22,525,23.12,630,46,420,153.55,210,261.09,0,550.08Z" style="fill: none"/>
    </clipPath>
  </defs>
  <g>
    <path d="M0,90.08v920C420,738.76,840,1193.28,1260,922V2C840,273.28,420-181.24,0,90.08Z" style="fill: #002868"/>
    <path d="M0,90.08C210,107.75,420,306.89,630,506m0-460C420,153.55,210,261.09,0,550.08"/>
    <path d="M315,281.43C415.3,354.88,515.61,449,615.91,544.1Q630,506,644.09,468C557.87,386.23,471.65,303.83,385.44,233.3c86.21-55.38,172.43-98.88,258.65-143.06Q637,68.13,630,46c-23.48-5.12-47-10.24-70.44-15.11C478,73.54,396.52,119.22,315,178.57,233.48,118.88,152,72.86,70.44,51.13A575.74,575.74,0,0,0,0,90.08v51.43c81.52,6.86,163,41.06,244.56,92C163,301.62,81.52,386.46,0,498.65v51.43q7.05,16,14.09,32.31C114.39,448.19,214.7,354.46,315,281.43Z" style="fill: #fff"/>
    <g style="clip-path: url(#a)">
      <path d="M0,90.08C210,107.75,420,306.89,630,506m0-460C420,153.55,210,261.09,0,550.08"/>
      <path d="M315,264.29C416.87,338.88,518.74,434.82,620.61,531.4l18.78-50.76C546.91,393,454.44,304.76,362,231.54c92.48-61.82,185-108.67,277.43-156L630,46c-15.65-3.41-31.31-6.83-47-10.16C493.69,82,404.35,130.66,315,195.72c-89.35-65.43-178.69-114.43-268-133Q23.49,74.94,0,90.08v34.28c89.35,7.52,178.69,47.89,268,107.13C178.69,302.73,89.35,392.83,0,515.79v34.28q4.7,10.7,9.39,21.49C111.26,434,213.13,338.46,315,264.29Z" style="fill: #cf142b"/>
    </g>
    <path d="M315,0V613.34M0,320.08c245-158.27,490-69.55,735-22"/>
    <path d="M367.5,1.9a728.67,728.67,0,0,0-105,0h0a728.67,728.67,0,0,1,105,0Z" style="fill: #fff"/>
    <path d="M262.5,615.22a730.11,730.11,0,0,1,105,0V308.56C490,316.9,612.5,351,735,374.75V221.42c-122.5-23.78-245-57.85-367.5-66.19V1.9a728.67,728.67,0,0,0-105,0V155.22C175,161.86,87.5,186.89,0,243.41V396.74c87.5-56.52,175-81.54,262.5-88.19Z" style="fill: #fff"/>
    <path d="M315,0V613.34M0,320.08c245-158.27,490-69.55,735-22"/>
    <path d="M346.5.72c-21-.9-42-1-63-.08h0c21-.91,42-.82,63,.09Z" style="fill: #cf142b"/>
    <path d="M283.5,614c21-.91,42-.82,63,.09V276.72C476,282.31,605.5,319,735,344.08v-92C605.5,227,476,190.31,346.5,184.72V.73c-21-.91-42-1-63-.09v184C189,188.73,94.5,213,0,274.08v92C94.5,305,189,280.73,283.5,276.64Z" style="fill: #cf142b"/>
    <path d="M630,46V506c-210-45.8-420-91.6-630,44.06v460C420,738.76,840,1193.28,1260,922V2C1050,137.63,840,91.82,630,46Z" style="fill: #fcd116"/>
    <path d="M315,151.74c-29.6-.12-53.59,37-53.59,80.23s24,76.17,53.59,76.29,53.59-33,53.59-76.29S344.6,151.8,315,151.74Z" style="fill: #002868"/>
    <path d="M283.5,294q15.75-17.38,31.5-34.06-9.74-10.33-19.47-20.43Q289.52,266.65,283.5,294Z" style="fill: #fcd116"/>
    <path d="M264,207.59q15.75,15.56,31.5,31.87,3.72-16.8,7.44-33.57Q283.5,206.19,264,207.59Z" style="fill: #fcd116"/>
    <path d="M346.5,294q-6-27.3-12-54.51Q324.74,249.6,315,259.89,330.75,276.65,346.5,294Z" style="fill: #fcd116"/>
    <path d="M303,205.89q-3.72,16.77-7.44,33.57,9.74,10.08,19.47,20.43,9.74-10.3,19.47-20.36-3.72-16.82-7.44-33.59Q315,205.71,303,205.89Z" style="fill: #fcd116"/>
    <path d="M327,205.94q3.72,16.78,7.44,33.59,15.75-16.26,31.5-31.92Q346.5,206.32,327,205.94Z" style="fill: #fcd116"/>
    <path d="M315,151.74q-6,27-12,54.15,12-.16,24.06.05Q321,178.79,315,151.74Z" style="fill: #fcd116"/>
    <path d="M112.73,305.3q9.27-13.19,18.52-26-5.72-4.21-11.44-8.29Q116.27,288.12,112.73,305.3Z" style="fill: #fcd116"/>
    <path d="M101.29,258.19q9.25,6.21,18.52,12.81,2.18-10.59,4.37-21.15Q112.73,253.74,101.29,258.19Z" style="fill: #fcd116"/>
    <path d="M149.77,293.32q-3.54-14.9-7.08-29.73-5.72,7.79-11.44,15.7Q140.51,286.13,149.77,293.32Z" style="fill: #fcd116"/>
    <path d="M131.25,215.72q-3.54,17-7.07,34.13,7.06-2.4,14.14-4.57Q134.78,230.48,131.25,215.72Z" style="fill: #fcd116"/>
    <path d="M138.32,245.28q2.19,9.14,4.37,18.31,9.26-12.58,18.52-24.82Q149.77,241.76,138.32,245.28Z" style="fill: #fcd116"/>
    <path d="M124.18,249.85Q122,260.41,119.81,271q5.72,4.06,11.44,8.29,5.72-7.92,11.44-15.7-2.17-9.16-4.37-18.31Q131.26,247.46,124.18,249.85Z" style="fill: #fcd116"/>
    <path d="M480.23,287.46q9.27-8.26,18.52-16.41Q493,264,487.31,256.88Z" style="fill: #fcd116"/>
    <path d="M517.27,294.14,510.19,261q-5.71,5-11.44,10Q508,282.56,517.27,294.14Z" style="fill: #fcd116"/>
    <path d="M468.79,234.13q9.25,11.33,18.52,22.75,2.18-9.44,4.37-18.87Q480.24,236,468.79,234.13Z" style="fill: #fcd116"/>
    <path d="M491.68,238q-2.19,9.44-4.37,18.87,5.71,7.06,11.44,14.17,5.72-5,11.44-10-2.18-10.23-4.37-20.46Q498.76,239.26,491.68,238Z" style="fill: #fcd116"/>
    <path d="M498.75,207.48q-3.54,15.26-7.07,30.53,7.06,1.25,14.14,2.55Q502.28,224,498.75,207.48Z" style="fill: #fcd116"/>
    <path d="M505.82,240.56Q508,250.79,510.19,261q9.26-8.1,18.52-16.1Q517.27,242.67,505.82,240.56Z" style="fill: #fcd116"/>
    <path d="M333.52,425.27q-3.54-16-7.08-31.95-5.71,6-11.44,12Q324.26,415.19,333.52,425.27Z" style="fill: #fcd116"/>
    <path d="M296.48,425.2q9.27-10.05,18.52-19.85-5.72-6.08-11.44-12.07Q300,409.23,296.48,425.2Z" style="fill: #fcd116"/>
    <path d="M285,374.14q9.25,9.44,18.52,19.14,2.18-9.86,4.37-19.69Q296.49,373.68,285,374.14Z" style="fill: #fcd116"/>
    <path d="M322.07,373.62q2.19,9.84,4.37,19.7,9.26-9.66,18.52-19.09Q333.52,373.75,322.07,373.62Z" style="fill: #fcd116"/>
    <path d="M315,341.78q-3.54,15.89-7.07,31.81,7.06-.06,14.14,0Q318.53,357.68,315,341.78Z" style="fill: #fcd116"/>
    <path d="M307.93,373.59q-2.19,9.84-4.37,19.69,5.71,6,11.44,12.07,5.72-6.06,11.44-12-2.18-9.85-4.37-19.7Q315,373.53,307.93,373.59Z" style="fill: #fcd116"/>
    <path d="M296.48,118.53q9.27-10.05,18.52-19.84-5.72-6.09-11.44-12.08Q300,102.56,296.48,118.53Z" style="fill: #fcd116"/>
    <path d="M322.07,67q2.19,9.84,4.37,19.71Q335.7,77,345,67.56,333.52,67.08,322.07,67Z" style="fill: #fcd116"/>
    <path d="M285,67.47q9.25,9.45,18.52,19.14,2.18-9.85,4.37-19.69Q296.49,67,285,67.47Z" style="fill: #fcd116"/>
    <path d="M333.52,118.6q-3.54-16-7.08-31.94-5.71,6-11.44,12Q324.26,108.53,333.52,118.6Z" style="fill: #fcd116"/>
    <path d="M315,35.12q-3.54,15.89-7.07,31.8,7.06-.06,14.14,0Q318.53,51,315,35.12Z" style="fill: #fcd116"/>
    <path d="M307.93,66.92q-2.19,9.84-4.37,19.69,5.71,6,11.44,12.08,5.72-6.06,11.44-12-2.18-9.87-4.37-19.71Q315,66.86,307.93,66.92Z" style="fill: #fcd116"/>
  </g>
</svg>
