<svg xmlns="http://www.w3.org/2000/svg" xmlns:xlink="http://www.w3.org/1999/xlink" viewBox="0 0 1260 1012.04">
  <defs>
    <clipPath id="a" transform="translate(0 0)">
      <path d="M0,90.08C210-45.58,420,.22,630,46V506c-210-45.8-420-91.6-630,44.06Z" style="fill: none"/>
    </clipPath>
    <clipPath id="b" transform="translate(0 0)">
      <path d="M0,90.08c105,8.83,210,63,315,139.92-105-.22-210,22.25-315,90.08ZM315,0C420,.22,525,23.12,630,46,525,99.79,420,153.55,315,230Zm0,230c105,.22,210,23.12,315,46V506C525,406.45,420,306.89,315,230Zm0,0V460c-105-.22-210,22.25-315,90.08C105,405.58,210,306.45,315,230Z" style="fill: none"/>
    </clipPath>
  </defs>
  <g>
    <path d="M0,90.08v920C420,738.76,840,1193.28,1260,922V2C840,273.28,420-181.24,0,90.08Z" transform="translate(0 0)" style="fill: #00247d"/>
    <g style="clip-path: url(#a)">
      <path d="M0,90.08C210,107.75,420,306.89,630,506M0,550.08C210,261.08,420,153.55,630,46" transform="translate(0 0)"/>
      <path d="M315,281.43C415.3,354.88,515.61,449,615.91,544.09L644.09,468C557.87,386.23,471.65,303.83,385.44,233.3c86.21-55.38,172.43-98.88,258.65-143.06Q637,68.13,630,46c-23.48-5.12-47-10.24-70.44-15.11C478,73.54,396.52,119.22,315,178.57,233.48,118.88,152,72.86,70.44,51.13A575.74,575.74,0,0,0,0,90.08v51.43c81.52,6.86,163,41.06,244.56,92C163,301.62,81.52,386.46,0,498.65v51.43q7.05,16,14.09,32.31C114.39,448.19,214.7,354.46,315,281.43Z" transform="translate(0 0)" style="fill: #fff"/>
    </g>
    <g style="clip-path: url(#b)">
      <path d="M0,90.08C210,107.75,420,306.89,630,506M0,550.08C210,261.08,420,153.55,630,46" transform="translate(0 0)"/>
      <path d="M315,264.29C416.87,338.88,518.74,434.82,620.61,531.4l18.78-50.76C546.91,393,454.44,304.76,362,231.54c92.48-61.82,185-108.67,277.43-156L630,46c-15.65-3.41-31.31-6.83-47-10.16C493.69,82,404.35,130.66,315,195.71c-89.35-65.42-178.69-114.42-268-133Q23.49,74.94,0,90.08v34.28c89.35,7.52,178.7,47.89,268,107.13C178.7,302.73,89.35,392.83,0,515.79v34.29q4.7,10.68,9.39,21.48C111.26,434,213.13,338.46,315,264.29Z" transform="translate(0 0)" style="fill: #cc142b"/>
    </g>
    <g style="clip-path: url(#a)">
      <path d="M315,0V460M0,320.08C210,184.42,420,230.22,630,276" transform="translate(0 0)"/>
      <path d="M367.5,1.9a728.67,728.67,0,0,0-105,0h0a728.67,728.67,0,0,1,105,0Z" transform="translate(0 0)" style="fill: #fff"/>
      <path d="M262.5,461.89a728.67,728.67,0,0,1,105,0V308.56c87.5,6,175,25,262.5,44.13V199.35c-87.5-19.08-175-38.16-262.5-44.12V1.9a728.67,728.67,0,0,0-105,0V155.22C175,161.86,87.5,186.88,0,243.41V396.74c87.5-56.52,175-81.54,262.5-88.19Z" transform="translate(0 0)" style="fill: #fff"/>
    </g>
    <g style="clip-path: url(#a)">
      <path d="M315,0V460M0,320.08C210,184.42,420,230.22,630,276" transform="translate(0 0)"/>
      <path d="M346.5.72c-21-.9-42-1-63-.08h0c21-.91,42-.82,63,.08Z" transform="translate(0 0)" style="fill: #cc142b"/>
      <path d="M283.5,460.64c21-.91,42-.82,63,.08v-184C441,280.8,535.5,301.41,630,322V230c-94.5-20.61-189-41.22-283.5-45.3V.72c-21-.9-42-1-63-.08v184C189,188.73,94.5,213,0,274.08v92C94.5,305,189,280.73,283.5,276.64Z" transform="translate(0 0)" style="fill: #cc142b"/>
    </g>
    <path d="M945,288.23q23.84-17.36,47.67-36.34-23.83,1.62-47.67,1.53Z" transform="translate(0 0)" style="fill: #fff"/>
    <path d="M954.1,294.3q19.29-20.66,38.57-42.41-26.29,8.16-52.58,14.26Q947.1,280.29,954.1,294.3Z" transform="translate(0 0)" style="fill: #fff"/>
    <path d="M945,288.23V253.42q-23.84,0-47.67-1.58Q921.17,270.74,945,288.23Z" transform="translate(0 0)" style="fill: #fff"/>
    <path d="M935.9,294.27q7-14,14-28.09-26.29-6.27-52.58-14.34Q916.62,273.52,935.9,294.27Z" transform="translate(0 0)" style="fill: #fff"/>
    <path d="M937.06,279.75q18.71,28,37.4,55-7.37-32.82-14.73-65.78Q948.39,274.53,937.06,279.75Z" transform="translate(0 0)" style="fill: #fff"/>
    <path d="M935.9,294.27q19.27,20.73,38.56,40.44-12.27-34.05-24.55-68.53Q942.91,280.28,935.9,294.27Z" transform="translate(0 0)" style="fill: #fff"/>
    <path d="M930.27,268.88q11.34,5.63,22.67,10.9-4-38.44-7.94-76.93Q937.64,235.93,930.27,268.88Z" transform="translate(0 0)" style="fill: #fff"/>
    <path d="M937.06,279.75q11.34-5.24,22.67-10.82-7.37-33-14.73-66.08Q941,241.31,937.06,279.75Z" transform="translate(0 0)" style="fill: #fff"/>
    <path d="M915.54,334.62q18.69-27,37.4-54.84-11.34-5.28-22.67-10.9Q922.91,301.82,915.54,334.62Z" transform="translate(0 0)" style="fill: #fff"/>
    <path d="M915.54,334.62q19.28-19.68,38.56-40.32-7-14-14-28.14Q927.82,300.59,915.54,334.62Z" transform="translate(0 0)" style="fill: #fff"/>
    <path d="M945,284.1q15.75-11.48,31.5-23.64-15.75.68-31.5.64Z" transform="translate(0 0)" style="fill: #cc142b"/>
    <path d="M951,288.12q12.74-13.59,25.48-27.66-17.37,5-34.74,9.05Q946.38,278.84,951,288.12Z" transform="translate(0 0)" style="fill: #cc142b"/>
    <path d="M945,284.1v-23q-15.75,0-31.5-.73Q929.25,272.55,945,284.1Z" transform="translate(0 0)" style="fill: #cc142b"/>
    <path d="M939,288.1q4.63-9.25,9.26-18.57-17.37-4.18-34.74-9.16Q926.24,274.44,939,288.1Z" transform="translate(0 0)" style="fill: #cc142b"/>
    <path d="M939.76,278.5q12.35,18.44,24.71,36.45-4.87-21.75-9.74-43.57Q947.25,275,939.76,278.5Z" transform="translate(0 0)" style="fill: #cc142b"/>
    <path d="M939,288.1q12.75,13.65,25.49,26.85-8.12-22.62-16.23-45.42Q943.62,278.85,939,288.1Z" transform="translate(0 0)" style="fill: #cc142b"/>
    <path d="M935.27,271.34q7.49,3.66,15,7.18-2.61-25.41-5.24-50.85Q940.14,249.54,935.27,271.34Z" transform="translate(0 0)" style="fill: #cc142b"/>
    <path d="M939.75,278.5q7.5-3.48,15-7.12-4.86-21.83-9.73-43.71Q942.38,253.1,939.75,278.5Z" transform="translate(0 0)" style="fill: #cc142b"/>
    <path d="M925.53,314.88q12.36-18,24.71-36.36-7.49-3.51-15-7.18Q930.4,293.14,925.53,314.88Z" transform="translate(0 0)" style="fill: #cc142b"/>
    <path d="M925.53,314.88q12.75-13.17,25.49-26.76-4.63-9.27-9.26-18.61Q933.65,292.28,925.53,314.88Z" transform="translate(0 0)" style="fill: #cc142b"/>
    <path d="M1069.77,433.45q21.21-19.79,42.42-41.36-21.21,6.12-42.42,10.39Z" transform="translate(0 0)" style="fill: #fff"/>
    <path d="M1077.88,437.18q17.14-21.94,34.31-45.09-23.39,12.42-46.78,22.61Q1071.63,426,1077.88,437.18Z" transform="translate(0 0)" style="fill: #fff"/>
    <path d="M1069.77,433.45v-31q-21.21,4.31-42.42,6.94Q1048.56,422.25,1069.77,433.45Z" transform="translate(0 0)" style="fill: #fff"/>
    <path d="M1061.67,440.47q6.24-13.7,12.47-27.54-23.4-.74-46.79-3.51Q1044.51,425.47,1061.67,440.47Z" transform="translate(0 0)" style="fill: #fff"/>
    <path d="M1062.71,427.34q16.63,21.53,33.28,42-6.56-27.8-13.11-55.75Q1072.8,420.66,1062.71,427.34Z" transform="translate(0 0)" style="fill: #fff"/>
    <path d="M1061.67,440.47q17.16,15,34.32,28.84-10.92-27.94-21.85-56.38Q1067.9,426.78,1061.67,440.47Z" transform="translate(0 0)" style="fill: #fff"/>
    <path d="M1056.67,418.89q10.08,3,20.17,5.59-3.54-33.48-7.07-67Q1063.22,388.27,1056.67,418.89Z" transform="translate(0 0)" style="fill: #fff"/>
    <path d="M1062.71,427.34q10.08-6.69,20.17-13.78-6.56-28-13.11-56.09Q1066.25,392.43,1062.71,427.34Z" transform="translate(0 0)" style="fill: #fff"/>
    <path d="M1043.56,480q16.64-27.24,33.28-55.5-10.1-2.61-20.17-5.59Q1050.11,449.51,1043.56,480Z" transform="translate(0 0)" style="fill: #fff"/>
    <path d="M1043.56,480q17.16-20.85,34.32-42.8-6.24-11.16-12.47-22.48Q1054.47,447.57,1043.56,480Z" transform="translate(0 0)" style="fill: #fff"/>
    <path d="M1069.77,429.32q13.13-12.26,26.25-25.17-13.12,3.35-26.25,6Z" transform="translate(0 0)" style="fill: #cc142b"/>
    <path d="M1074.79,431.64q10.62-13.51,21.23-27.49-14.48,7.2-29,13.57Q1070.93,424.71,1074.79,431.64Z" transform="translate(0 0)" style="fill: #cc142b"/>
    <path d="M1069.77,429.32V410.15q-13.12,2.67-26.25,4.68Q1056.65,422.39,1069.77,429.32Z" transform="translate(0 0)" style="fill: #cc142b"/>
    <path d="M1064.76,433.68l7.72-17.06q-14.49-.5-29-1.79Q1054.14,424.46,1064.76,433.68Z" transform="translate(0 0)" style="fill: #cc142b"/>
    <path d="M1065.4,425.55q10.3,13.26,20.6,26.12-4.07-17.28-8.11-34.62Q1071.64,421.37,1065.4,425.55Z" transform="translate(0 0)" style="fill: #cc142b"/>
    <path d="M1064.76,433.68q10.62,9.21,21.24,18-6.76-17.43-13.52-35.05Z" transform="translate(0 0)" style="fill: #cc142b"/>
    <path d="M1061.66,420.34q6.24,1.8,12.48,3.44Q1072,403,1069.77,382.3,1065.72,401.35,1061.66,420.34Z" transform="translate(0 0)" style="fill: #cc142b"/>
    <path d="M1065.4,425.55q6.24-4.17,12.49-8.5-4.07-17.34-8.12-34.75Q1067.59,403.93,1065.4,425.55Z" transform="translate(0 0)" style="fill: #cc142b"/>
    <path d="M1053.55,458.26q10.31-17,20.59-34.48-6.24-1.65-12.48-3.44Q1057.61,439.33,1053.55,458.26Z" transform="translate(0 0)" style="fill: #cc142b"/>
    <path d="M1053.55,458.26q10.62-13.1,21.24-26.62-3.86-6.93-7.72-13.92Q1060.32,438.08,1053.55,458.26Z" transform="translate(0 0)" style="fill: #cc142b"/>
    <path d="M799.43,489.51q23.84-13.69,47.67-28.31c-15.89-1.83-31.78-4-47.67-6.5Z" transform="translate(0 0)" style="fill: #fff"/>
    <path d="M808.53,497q19.29-17.6,38.57-35.81-26.28,3.35-52.57,5.49Q801.52,481.89,808.53,497Z" transform="translate(0 0)" style="fill: #fff"/>
    <path d="M799.43,489.51V454.7q-23.83-3.7-47.67-8.18Q775.6,468.36,799.43,489.51Z" transform="translate(0 0)" style="fill: #fff"/>
    <path d="M790.33,494.17q7-12.94,14-25.95-26.3-10.38-52.58-21.7Q771.05,470.57,790.33,494.17Z" transform="translate(0 0)" style="fill: #fff"/>
    <path d="M791.49,479.83q18.71,30.74,37.4,60.95-7.36-34.06-14.73-68.24Q802.84,476.29,791.49,479.83Z" transform="translate(0 0)" style="fill: #fff"/>
    <path d="M790.33,494.17q19.27,23.59,38.56,46.61-12.27-36.15-24.55-72.56Q797.33,481.23,790.33,494.17Z" transform="translate(0 0)" style="fill: #fff"/>
    <path d="M784.7,468q11.34,7.26,22.67,14.34-4-39.07-7.94-78.17Q792.07,436.08,784.7,468Z" transform="translate(0 0)" style="fill: #fff"/>
    <path d="M791.49,479.83q11.34-3.56,22.67-7.29-7.36-34.17-14.73-68.41Q795.46,442,791.49,479.83Z" transform="translate(0 0)" style="fill: #fff"/>
    <path d="M770,531.65q18.71-24.43,37.4-49.35Q796,475.22,784.7,468,777.33,499.85,770,531.65Z" transform="translate(0 0)" style="fill: #fff"/>
    <path d="M770,531.65q19.28-17.07,38.56-34.64-7-15.13-14-30.32Q782.25,499.27,770,531.65Z" transform="translate(0 0)" style="fill: #fff"/>
    <path d="M799.43,485.37q15.75-9,31.5-18.48-15.75-2.06-31.5-4.52Z" transform="translate(0 0)" style="fill: #cc142b"/>
    <path d="M805.45,490.34q12.74-11.59,25.48-23.45-17.37,2-34.74,3.41Q800.81,480.34,805.45,490.34Z" transform="translate(0 0)" style="fill: #cc142b"/>
    <path d="M799.43,485.37v-23q-15.75-2.44-31.5-5.24Q783.68,471.41,799.43,485.37Z" transform="translate(0 0)" style="fill: #cc142b"/>
    <path d="M793.41,488.46q4.64-8.56,9.26-17.15-17.37-6.88-34.74-14.18Q780.68,472.9,793.41,488.46Z" transform="translate(0 0)" style="fill: #cc142b"/>
    <path d="M794.19,479q12.34,20.29,24.71,40.36-4.87-22.56-9.74-45.16Q801.68,476.63,794.19,479Z" transform="translate(0 0)" style="fill: #cc142b"/>
    <path d="M793.41,488.46Q806.16,504,818.9,519.34q-8.11-24-16.23-48Q798.05,479.91,793.41,488.46Z" transform="translate(0 0)" style="fill: #cc142b"/>
    <path d="M789.7,471.15q7.49,4.77,15,9.47L799.43,429Q794.57,450.07,789.7,471.15Z" transform="translate(0 0)" style="fill: #cc142b"/>
    <path d="M794.19,479q7.48-2.36,15-4.8-4.86-22.59-9.73-45.23Q796.81,454,794.19,479Z" transform="translate(0 0)" style="fill: #cc142b"/>
    <path d="M780,513.29q12.36-16.23,24.72-32.67-7.5-4.69-15-9.47Q784.83,492.24,780,513.29Z" transform="translate(0 0)" style="fill: #cc142b"/>
    <path d="M780,513.29q12.75-11.37,25.49-22.95-4.63-10-9.26-20Q788.08,491.84,780,513.29Z" transform="translate(0 0)" style="fill: #cc142b"/>
    <path d="M945,841.57q26.46-19.26,52.92-40.56c-17.64,1.36-35.28,2-52.92,1.92Z" transform="translate(0 0)" style="fill: #fff"/>
    <path d="M955.11,848.31q21.4-23,42.81-47.3c-19.46,6.22-38.91,11.52-58.37,16Q947.34,832.77,955.11,848.31Z" transform="translate(0 0)" style="fill: #fff"/>
    <path d="M945,841.57V802.93c-17.64,0-35.28-.71-52.92-1.92Q918.54,822.15,945,841.57Z" transform="translate(0 0)" style="fill: #fff"/>
    <path d="M934.89,848.27q7.79-15.51,15.56-31.18c-19.46-4.62-38.91-10-58.37-16.08Q913.49,825.19,934.89,848.27Z" transform="translate(0 0)" style="fill: #fff"/>
    <path d="M936.19,832.15q20.76,31.07,41.52,60.94-8.18-36.37-16.36-73Q948.78,826.37,936.19,832.15Z" transform="translate(0 0)" style="fill: #fff"/>
    <path d="M934.89,848.27q21.4,23,42.82,44.82-13.63-37.73-27.26-76Q942.67,832.75,934.89,848.27Z" transform="translate(0 0)" style="fill: #fff"/>
    <path d="M928.65,820.07q12.57,6.27,25.16,12.12-4.41-42.68-8.81-85.41Q936.83,783.52,928.65,820.07Z" transform="translate(0 0)" style="fill: #fff"/>
    <path d="M936.19,832.15q12.59-5.79,25.16-12-8.18-36.58-16.35-73.35Q940.59,789.5,936.19,832.15Z" transform="translate(0 0)" style="fill: #fff"/>
    <path d="M912.29,893q20.76-29.85,41.52-60.81-12.59-5.85-25.16-12.12Q920.48,856.63,912.29,893Z" transform="translate(0 0)" style="fill: #fff"/>
    <path d="M912.29,893q21.4-21.75,42.82-44.69-7.79-15.54-15.56-31.25Q925.93,855.28,912.29,893Z" transform="translate(0 0)" style="fill: #fff"/>
    <path d="M945,837.44q18.38-13.38,36.75-27.72-18.37.94-36.75.88Z" transform="translate(0 0)" style="fill: #cc142b"/>
    <path d="M952,842.13q14.87-15.89,29.73-32.41-20.26,6-40.53,10.7Q946.62,831.31,952,842.13Z" transform="translate(0 0)" style="fill: #cc142b"/>
    <path d="M945,837.44V810.6q-18.37,0-36.75-1Q926.63,824,945,837.44Z" transform="translate(0 0)" style="fill: #cc142b"/>
    <path d="M938,842.1q5.4-10.79,10.8-21.66-20.26-4.86-40.53-10.8Q923.12,826.14,938,842.1Z" transform="translate(0 0)" style="fill: #cc142b"/>
    <path d="M938.88,830.91q14.42,21.52,28.83,42.47Q962,848,956.36,822.59,947.62,826.85,938.88,830.91Z" transform="translate(0 0)" style="fill: #cc142b"/>
    <path d="M938,842.1q14.87,15.95,29.73,31.28-9.47-26.34-18.93-52.94Q943.38,831.32,938,842.1Z" transform="translate(0 0)" style="fill: #cc142b"/>
    <path d="M933.64,822.54q8.75,4.31,17.48,8.39-3.06-29.64-6.12-59.32Q939.32,797.13,933.64,822.54Z" transform="translate(0 0)" style="fill: #cc142b"/>
    <path d="M938.88,830.91q8.75-4.06,17.48-8.32-5.68-25.44-11.36-51Q941.94,801.28,938.88,830.91Z" transform="translate(0 0)" style="fill: #cc142b"/>
    <path d="M922.29,873.3q14.41-20.91,28.83-42.37-8.75-4.08-17.48-8.39Q928,848,922.29,873.3Z" transform="translate(0 0)" style="fill: #cc142b"/>
    <path d="M922.29,873.3Q937.16,858,952,842.13q-5.4-10.82-10.8-21.71Q931.75,847,922.29,873.3Z" transform="translate(0 0)" style="fill: #cc142b"/>
  </g>
</svg>
