<svg xmlns="http://www.w3.org/2000/svg" viewBox="0 0 1260 1012.04">
  <g>
    <path d="M0,90.08v920C420,738.76,840,1193.28,1260,922V2C840,273.28,420-181.24,0,90.08Z" style="fill: #db161b"/>
    <path d="M315,0V306.67c315,.65,630,205.45,945,2V2C945,205.45,630,.66,315,0Z" style="fill: #fff"/>
    <path d="M315,920c315,.66,630,205.45,945,2V615.3c-315,203.49-630-1.31-945-2Z" style="fill: green"/>
    <path d="M106.37,193.39q-16.92,6.41-33.85,14.16c-1.86.85-3.37,3.63-3.37,6.18V237c0,2.55,1.51,3.91,3.37,3.06q16.94-7.77,33.85-14.16c1.87-.71,3.38-3.34,3.38-5.89V196.74C109.75,194.19,108.24,192.68,106.37,193.39Z" style="fill: #fff;fill-rule: evenodd"/>
    <path d="M106.37,193.17q-16.92,6.42-33.85,14.16c-1.94.89-3.52,3.8-3.52,6.47v23.29c0,2.67,1.58,4.1,3.52,3.21q16.94-7.77,33.85-14.16c1.95-.74,3.53-3.49,3.53-6.16V196.69C109.9,194,108.32,192.43,106.37,193.17Zm3.23,26.92c0,2.43-1.45,4.94-3.23,5.61q-16.92,6.42-33.85,14.16c-1.78.82-3.23-.48-3.23-2.91V213.66c0-2.43,1.45-5.08,3.23-5.9q16.94-7.75,33.85-14.15c1.78-.68,3.23.76,3.23,3.19Z" style="fill: #db161b"/>
    <path d="M105.51,195.07q-16.07,6.1-32.12,13.43c-1.77.8-3.2,3.37-3.2,5.71v21.35c0,2.34,1.43,3.57,3.2,2.76q16.06-7.33,32.12-13.43c1.76-.68,3.2-3.11,3.2-5.45V198.1C108.71,195.76,107.27,194.39,105.51,195.07Z" style="fill: #fff;fill-rule: evenodd"/>
    <path d="M105.51,194.86Q89.45,201,73.39,208.3c-1.84.84-3.34,3.53-3.34,6v21.35c0,2.45,1.5,3.74,3.34,2.9q16.06-7.32,32.12-13.43c1.84-.7,3.34-3.25,3.34-5.7V198C108.85,195.6,107.35,194.16,105.51,194.86Zm3.06,24.63c0,2.23-1.37,4.55-3.06,5.2q-16.07,6.1-32.12,13.43c-1.69.77-3.06-.4-3.06-2.63V214.15c0-2.23,1.37-4.68,3.06-5.45q16.06-7.33,32.12-13.43c1.69-.64,3.06.65,3.06,2.88Z" style="fill: #db161b"/>
    <path d="M93.05,211.69c.47-.63.94-1.25,1.42-1.87L93,209.25l-1.24,2-1.59-.53L90,209.46l-1.94.73-.27,1.4-1.94,1.21-1.15-.8-1.59,2.28,1.23.85c-.35.74-.7,1.49-1.06,2.23l-1.5.46.09,3,1.5-.65,1.06.63-.88,2.07,1.5.44,1-1.9,1.76.34.27,2,2.12-1.09-.09-2.14,2-1.4,1.33.94,1.23-1.88-1.59-1c.24-.59.47-1.18.71-1.78l1.41-.46v-2.38l-1.76.81Z" style="fill: #fff;fill-rule: evenodd"/>
    <path d="M93.15,211.7c.5-.65,1-1.3,1.49-2L93,209.12l-.06,0c-.41.67-.82,1.33-1.24,2l-1.5-.49-.09-1.29-2,.75-.07,0-.26,1.42-1.86,1.15-1.12-.78-.05,0c-.55.78-1.1,1.57-1.64,2.36l-.1.14,1.26.86c-.33.68-.65,1.36-1,2l-1.56.48.09,3.29,1.56-.68,1,.57-.9,2.09,1.6.47.06,0,1-1.91,1.67.32.27,2c.73-.38,1.46-.76,2.2-1.13l.08-.05c0-.72-.06-1.43-.08-2.15q.92-.68,1.83-1.32l1.35,1,1.38-2.1-1.62-1.06.63-1.58,1.46-.48v-2.65l-1.79.82Zm1.94,3.09-1.33.43,0,0c-.27.66-.53,1.31-.79,2l1.57,1c-.37.55-.73,1.11-1.09,1.66L92.1,219c-.66.48-1.32,1-2,1.43l-.07.06.09,2.12-2,1c-.09-.65-.17-1.29-.26-1.94L86,221.29c-.32.63-.64,1.26-1,1.89l-1.35-.39.88-2-1.14-.68h0l-1.45.63-.08-2.76,1.45-.44,1.15-2.43-1.21-.83,1.44-2.06,1.09.76,0,0,2-1.23.05,0c.09-.46.18-.92.26-1.38l1.8-.67.09,1.21,1.69.55,1.23-2,1.32.5L93,211.67l.39,1.81,1.75-.8Z" style="fill: #db161b"/>
    <path d="M88.69,213.69a4.1,4.1,0,0,0-2.14,3.58c0,1.47,1,2.26,2.14,1.77a4.08,4.08,0,0,0,2.13-3.57C90.82,214,89.87,213.2,88.69,213.69Z" style="fill: #fff;fill-rule: evenodd"/>
    <path d="M88.69,212.16c-1.76.74-3.19,3.24-3.19,5.55s1.43,3.6,3.19,2.86,3.18-3.21,3.18-5.53S90.45,211.42,88.69,212.16Zm0,5.34a.72.72,0,0,1-1.09-.68,1.9,1.9,0,0,1,1.09-1.59.71.71,0,0,1,1.08.68A1.9,1.9,0,0,1,88.69,217.5Z" style="fill: #db161b"/>
    <path d="M75.39,209l-3.12,5.49" style="fill: #fff;fill-rule: evenodd"/>
    <path d="M72.18,214.33l.18.22q1.56-2.75,3.13-5.49l-.19-.22Z" style="fill: #db161b"/>
    <path d="M77.48,208q-1.58,2.73-3.13,5.47" style="fill: #fff;fill-rule: evenodd"/>
    <path d="M74.26,213.38l.18.22,3.13-5.47-.19-.22Z" style="fill: #db161b"/>
    <path d="M79.56,207.09q-1.56,2.73-3.13,5.46" style="fill: #fff;fill-rule: evenodd"/>
    <path d="M76.34,212.44l.19.22,3.12-5.46-.19-.22Z" style="fill: #db161b"/>
    <path d="M81.64,206.18l-3.12,5.44" style="fill: #fff;fill-rule: evenodd"/>
    <path d="M78.42,211.51l.19.22,3.12-5.44-.18-.22Z" style="fill: #db161b"/>
    <path d="M83.72,205.28,80.6,210.7" style="fill: #fff;fill-rule: evenodd"/>
    <path d="M80.51,210.59l.18.22,3.12-5.42-.18-.23Z" style="fill: #db161b"/>
    <path d="M85.8,204.38l-3.12,5.41" style="fill: #fff;fill-rule: evenodd"/>
    <path d="M82.59,209.68l.18.22c1-1.81,2.09-3.61,3.13-5.41-.07-.07-.13-.15-.19-.22Z" style="fill: #db161b"/>
    <path d="M87.89,203.5l-3.13,5.39" style="fill: #fff;fill-rule: evenodd"/>
    <path d="M84.67,208.78l.19.22L88,203.61l-.19-.22Z" style="fill: #db161b"/>
    <path d="M90,202.63,86.85,208" style="fill: #fff;fill-rule: evenodd"/>
    <path d="M86.75,207.89l.19.22,3.12-5.37-.18-.23C88.84,204.3,87.79,206.09,86.75,207.89Z" style="fill: #db161b"/>
    <path d="M92.05,201.76l-3.12,5.36" style="fill: #fff;fill-rule: evenodd"/>
    <path d="M88.84,207l.18.23,3.12-5.36-.18-.23Z" style="fill: #db161b"/>
    <path d="M94.13,200.91,91,206.26" style="fill: #fff;fill-rule: evenodd"/>
    <path d="M90.92,206.14l.18.23q1.56-2.69,3.13-5.35L94,200.8C93,202.57,92,204.36,90.92,206.14Z" style="fill: #db161b"/>
    <path d="M96.22,200.07q-1.57,2.66-3.13,5.33" style="fill: #fff;fill-rule: evenodd"/>
    <path d="M93,205.29l.18.22,3.13-5.33-.19-.23Z" style="fill: #db161b"/>
    <path d="M98.3,199.24c-1,1.76-2.08,3.54-3.13,5.31" style="fill: #fff;fill-rule: evenodd"/>
    <path d="M95.08,204.44l.19.23,3.12-5.32-.18-.23Q96.64,201.77,95.08,204.44Z" style="fill: #db161b"/>
    <path d="M90,202.63,86.85,208" style="fill: #fff;fill-rule: evenodd"/>
    <path d="M86.75,207.89l.19.22,3.12-5.37-.18-.23C88.84,204.3,87.79,206.09,86.75,207.89Z" style="fill: #db161b"/>
    <path d="M100.38,198.41l-3.12,5.3" style="fill: #fff;fill-rule: evenodd"/>
    <path d="M97.16,203.6l.19.23,3.12-5.3-.18-.23Z" style="fill: #db161b"/>
    <path d="M102.46,197.6l-3.12,5.29" style="fill: #fff;fill-rule: evenodd"/>
    <path d="M99.25,202.77l.18.23,3.12-5.28-.18-.24Z" style="fill: #db161b"/>
    <path d="M104.54,196.8l-3.12,5.27" style="fill: #fff;fill-rule: evenodd"/>
    <path d="M101.33,202l.18.23,3.13-5.27-.19-.23Z" style="fill: #db161b"/>
    <path d="M106.63,196l-3.13,5.25" style="fill: #fff;fill-rule: evenodd"/>
    <path d="M103.41,201.15l.19.23,3.12-5.26-.18-.23Q105,198.52,103.41,201.15Z" style="fill: #db161b"/>
    <path d="M103.5,197.2l3.13,2.87" style="fill: #fff;fill-rule: evenodd"/>
    <path d="M103.41,197.38l3.13,2.88.18-.38L103.6,197Z" style="fill: #db161b"/>
    <path d="M101.42,198l3.12,2.85" style="fill: #fff;fill-rule: evenodd"/>
    <path d="M101.33,198.19l3.12,2.86.19-.37-3.13-2.86Z" style="fill: #db161b"/>
    <path d="M99.34,198.82l3.12,2.84" style="fill: #fff;fill-rule: evenodd"/>
    <path d="M99.25,199l3.12,2.84.18-.37-3.12-2.85Z" style="fill: #db161b"/>
    <path d="M97.26,199.65l3.12,2.83" style="fill: #fff;fill-rule: evenodd"/>
    <path d="M97.16,199.84l3.13,2.82.18-.37-3.12-2.83Z" style="fill: #db161b"/>
    <path d="M95.17,200.49c1,.93,2.09,1.87,3.13,2.81" style="fill: #fff;fill-rule: evenodd"/>
    <path d="M95.08,200.68l3.13,2.81.18-.38-3.12-2.81Z" style="fill: #db161b"/>
    <path d="M93.09,201.34l3.13,2.79" style="fill: #fff;fill-rule: evenodd"/>
    <path d="M93,201.52l3.12,2.8.19-.38c-1-.93-2.08-1.87-3.13-2.79Z" style="fill: #db161b"/>
    <path d="M91,202.19,94.13,205" style="fill: #fff;fill-rule: evenodd"/>
    <path d="M90.92,202.38,94,205.16l.19-.38L91.1,202Z" style="fill: #db161b"/>
    <path d="M88.93,203.06l3.12,2.77" style="fill: #fff;fill-rule: evenodd"/>
    <path d="M88.84,203.25,92,206l.18-.38L89,202.87Z" style="fill: #db161b"/>
    <path d="M86.85,203.94,90,206.69" style="fill: #fff;fill-rule: evenodd"/>
    <path d="M86.75,204.13l3.13,2.75.18-.38-3.12-2.75Z" style="fill: #db161b"/>
    <path d="M84.76,204.83l3.13,2.73" style="fill: #fff;fill-rule: evenodd"/>
    <path d="M84.67,205l3.12,2.73.19-.38-3.12-2.73Z" style="fill: #db161b"/>
    <path d="M82.68,205.73c1,.9,2.08,1.8,3.12,2.72" style="fill: #fff;fill-rule: evenodd"/>
    <path d="M82.59,205.92l3.12,2.72.19-.39-3.13-2.72Z" style="fill: #db161b"/>
    <path d="M80.6,206.64l3.12,2.7" style="fill: #fff;fill-rule: evenodd"/>
    <path d="M80.51,206.83c1,.89,2.08,1.8,3.12,2.7l.18-.38-3.12-2.71Z" style="fill: #db161b"/>
    <path d="M88.93,203.06l3.12,2.77" style="fill: #fff;fill-rule: evenodd"/>
    <path d="M88.84,203.25,92,206l.18-.38L89,202.87Z" style="fill: #db161b"/>
    <path d="M78.52,207.55l3.12,2.69" style="fill: #fff;fill-rule: evenodd"/>
    <path d="M78.42,207.75l3.13,2.68.18-.38-3.12-2.69Z" style="fill: #db161b"/>
    <path d="M76.43,208.48l3.13,2.68" style="fill: #fff;fill-rule: evenodd"/>
    <path d="M76.34,208.68q1.56,1.32,3.12,2.67l.19-.38-3.12-2.68Z" style="fill: #db161b"/>
    <path d="M74.35,209.42l3.13,2.66" style="fill: #fff;fill-rule: evenodd"/>
    <path d="M74.26,209.62l3.12,2.65.19-.38c-1-.89-2.08-1.78-3.13-2.66Z" style="fill: #db161b"/>
    <path d="M72.27,210.38q1.56,1.31,3.12,2.64" style="fill: #fff;fill-rule: evenodd"/>
    <path d="M72.18,210.57l3.12,2.64.19-.39-3.13-2.64Z" style="fill: #db161b"/>
    <path d="M75.39,232l-3.12,5.5" style="fill: #fff;fill-rule: evenodd"/>
    <path d="M72.18,237.38l.18.21c1-1.83,2.08-3.67,3.13-5.5l-.19-.22Z" style="fill: #db161b"/>
    <path d="M77.48,231.05q-1.58,2.73-3.13,5.48" style="fill: #fff;fill-rule: evenodd"/>
    <path d="M74.26,236.43l.18.21,3.13-5.48-.19-.22Q75.82,233.67,74.26,236.43Z" style="fill: #db161b"/>
    <path d="M79.56,230.12c-1,1.82-2.08,3.65-3.13,5.47" style="fill: #fff;fill-rule: evenodd"/>
    <path d="M76.34,235.48l.19.22,3.12-5.46-.19-.23Z" style="fill: #db161b"/>
    <path d="M81.64,229.21l-3.12,5.45" style="fill: #fff;fill-rule: evenodd"/>
    <path d="M78.42,234.55l.19.22,3.12-5.45-.18-.22Z" style="fill: #db161b"/>
    <path d="M83.72,228.31l-3.12,5.43" style="fill: #fff;fill-rule: evenodd"/>
    <path d="M80.51,233.63l.18.23,3.12-5.44-.18-.22Z" style="fill: #db161b"/>
    <path d="M85.8,227.41l-3.12,5.43" style="fill: #fff;fill-rule: evenodd"/>
    <path d="M82.59,232.72l.18.23,3.13-5.42-.19-.23Z" style="fill: #db161b"/>
    <path d="M87.89,226.53c-1,1.8-2.09,3.6-3.13,5.41" style="fill: #fff;fill-rule: evenodd"/>
    <path d="M84.67,231.83l.19.22L88,226.64l-.19-.22Z" style="fill: #db161b"/>
    <path d="M90,225.66l-3.12,5.39" style="fill: #fff;fill-rule: evenodd"/>
    <path d="M86.75,230.94l.19.22,3.12-5.39-.18-.23Z" style="fill: #db161b"/>
    <path d="M92.05,224.79l-3.12,5.38" style="fill: #fff;fill-rule: evenodd"/>
    <path d="M88.84,230.06l.18.22,3.12-5.37-.18-.23Z" style="fill: #db161b"/>
    <path d="M94.13,223.94,91,229.3" style="fill: #fff;fill-rule: evenodd"/>
    <path d="M90.92,229.19l.18.23q1.56-2.68,3.13-5.37l-.19-.22Z" style="fill: #db161b"/>
    <path d="M96.22,223.1q-1.57,2.67-3.13,5.34" style="fill: #fff;fill-rule: evenodd"/>
    <path d="M93,228.33l.18.23,3.13-5.35-.19-.23Z" style="fill: #db161b"/>
    <path d="M98.3,222.27l-3.13,5.33" style="fill: #fff;fill-rule: evenodd"/>
    <path d="M95.08,227.48l.19.23,3.12-5.33-.18-.23Z" style="fill: #db161b"/>
    <path d="M90,225.66l-3.12,5.39" style="fill: #fff;fill-rule: evenodd"/>
    <path d="M86.75,230.94l.19.22,3.12-5.39-.18-.23Z" style="fill: #db161b"/>
    <path d="M100.38,221.44l-3.12,5.32" style="fill: #fff;fill-rule: evenodd"/>
    <path d="M97.16,226.65l.19.22,3.12-5.31-.18-.23Z" style="fill: #db161b"/>
    <path d="M102.46,220.63l-3.12,5.3" style="fill: #fff;fill-rule: evenodd"/>
    <path d="M99.25,225.82l.18.23,3.12-5.3-.18-.23Z" style="fill: #db161b"/>
    <path d="M104.54,219.83l-3.12,5.29" style="fill: #fff;fill-rule: evenodd"/>
    <path d="M101.33,225l.18.23,3.13-5.29-.19-.23Z" style="fill: #db161b"/>
    <path d="M106.63,219l-3.13,5.27" style="fill: #fff;fill-rule: evenodd"/>
    <path d="M103.41,224.19l.19.23,3.12-5.27-.18-.23Q105,221.55,103.41,224.19Z" style="fill: #db161b"/>
    <path d="M103.5,220.23l3.13,2.88" style="fill: #fff;fill-rule: evenodd"/>
    <path d="M103.41,220.42l3.13,2.88.18-.37L103.6,220Z" style="fill: #db161b"/>
    <path d="M101.42,221l3.12,2.87" style="fill: #fff;fill-rule: evenodd"/>
    <path d="M101.33,221.22l3.12,2.87.19-.37-3.13-2.87Z" style="fill: #db161b"/>
    <path d="M99.34,221.85l3.12,2.86" style="fill: #fff;fill-rule: evenodd"/>
    <path d="M99.25,222l3.12,2.86.18-.38-3.12-2.85Z" style="fill: #db161b"/>
    <path d="M97.26,222.68l3.12,2.84" style="fill: #fff;fill-rule: evenodd"/>
    <path d="M97.16,222.87c1,.94,2.09,1.89,3.13,2.84l.18-.37c-1-1-2.08-1.9-3.12-2.85Z" style="fill: #db161b"/>
    <path d="M95.17,223.52l3.13,2.82" style="fill: #fff;fill-rule: evenodd"/>
    <path d="M95.08,223.71l3.13,2.82.18-.37-3.12-2.83Z" style="fill: #db161b"/>
    <path d="M93.09,224.37l3.13,2.81" style="fill: #fff;fill-rule: evenodd"/>
    <path d="M93,224.56l3.12,2.81.19-.38c-1-.94-2.08-1.88-3.13-2.81Z" style="fill: #db161b"/>
    <path d="M91,225.22l3.12,2.8" style="fill: #fff;fill-rule: evenodd"/>
    <path d="M90.92,225.41l3.12,2.8.19-.38L91.1,225Z" style="fill: #db161b"/>
    <path d="M88.93,226.09l3.12,2.78" style="fill: #fff;fill-rule: evenodd"/>
    <path d="M88.84,226.28,92,229.06l.18-.38L89,225.9Z" style="fill: #db161b"/>
    <path d="M86.85,227,90,229.73" style="fill: #fff;fill-rule: evenodd"/>
    <path d="M86.75,227.16l3.13,2.77.18-.38-3.12-2.77Z" style="fill: #db161b"/>
    <path d="M84.76,227.86l3.13,2.75" style="fill: #fff;fill-rule: evenodd"/>
    <path d="M84.67,228.05l3.12,2.75.19-.38-3.12-2.75Z" style="fill: #db161b"/>
    <path d="M82.68,228.76l3.12,2.73" style="fill: #fff;fill-rule: evenodd"/>
    <path d="M82.59,229l3.12,2.73.19-.38-3.13-2.73Z" style="fill: #db161b"/>
    <path d="M80.6,229.67c1,.9,2.08,1.8,3.12,2.72" style="fill: #fff;fill-rule: evenodd"/>
    <path d="M80.51,229.86l3.12,2.72.18-.39-3.12-2.72Z" style="fill: #db161b"/>
    <path d="M88.93,226.09l3.12,2.78" style="fill: #fff;fill-rule: evenodd"/>
    <path d="M88.84,226.28,92,229.06l.18-.38L89,225.9Z" style="fill: #db161b"/>
    <path d="M78.52,230.59q1.56,1.33,3.12,2.7" style="fill: #fff;fill-rule: evenodd"/>
    <path d="M78.42,230.78c1,.89,2.09,1.8,3.13,2.7l.18-.38-3.12-2.71Z" style="fill: #db161b"/>
    <path d="M76.43,231.51l3.13,2.69" style="fill: #fff;fill-rule: evenodd"/>
    <path d="M76.34,231.71l3.12,2.69.19-.39-3.12-2.69Z" style="fill: #db161b"/>
    <path d="M74.35,232.46l3.13,2.67" style="fill: #fff;fill-rule: evenodd"/>
    <path d="M74.26,232.65l3.12,2.67.19-.38-3.13-2.68Z" style="fill: #db161b"/>
    <path d="M72.27,233.41l3.12,2.65" style="fill: #fff;fill-rule: evenodd"/>
    <path d="M72.18,233.6l3.12,2.66.19-.39-3.13-2.66Z" style="fill: #db161b"/>
    <path d="M242.48,161.12q-16.93,1.83-33.85,4.67c-1.87.32-3.38,2.65-3.38,5.21v23.28c0,2.56,1.51,4.36,3.38,4.05q16.92-2.85,33.85-4.68c1.86-.2,3.37-2.43,3.37-5V165.38C245.85,162.83,244.34,160.91,242.48,161.12Z" style="fill: #fff;fill-rule: evenodd"/>
    <path d="M242.48,160.9q-16.93,1.84-33.85,4.68c-1.95.33-3.53,2.77-3.53,5.44v23.29c0,2.67,1.58,4.56,3.53,4.23q16.92-2.85,33.85-4.67c1.94-.22,3.52-2.55,3.52-5.22V165.37C246,162.7,244.42,160.69,242.48,160.9Zm3.23,27.78c0,2.43-1.45,4.56-3.23,4.75q-16.93,1.84-33.85,4.68c-1.78.3-3.23-1.42-3.23-3.85V171c0-2.43,1.45-4.66,3.23-5q16.92-2.85,33.85-4.68c1.78-.19,3.23,1.64,3.23,4.07Z" style="fill: #db161b"/>
    <path d="M241.61,162.56q-16.06,1.77-32.12,4.44c-1.76.29-3.2,2.44-3.2,4.78v21.35c0,2.34,1.44,4,3.2,3.69q16.06-2.69,32.12-4.44c1.77-.19,3.2-2.24,3.2-4.58V166.45C244.81,164.11,243.38,162.36,241.61,162.56Z" style="fill: #fff;fill-rule: evenodd"/>
    <path d="M241.61,162.36q-16.06,1.77-32.12,4.44c-1.84.3-3.34,2.56-3.34,5v21.35c0,2.45,1.5,4.18,3.34,3.87q16.06-2.67,32.12-4.44c1.84-.2,3.34-2.35,3.34-4.8V166.44C245,164,243.45,162.15,241.61,162.36Zm3.06,25.45c0,2.23-1.37,4.18-3.06,4.37q-16.06,1.77-32.12,4.44c-1.69.28-3.06-1.29-3.06-3.52V171.76c0-2.23,1.37-4.28,3.06-4.56q16.06-2.69,32.12-4.44c1.69-.18,3.06,1.48,3.06,3.71Z" style="fill: #db161b"/>
    <path d="M230.62,175.38l1.23-1.54-1.59-1.39-1.15,1.44-1.94-.13-.27-1.25-1.94.36-.09,1.3-1.59,1.4L222,174.28l-1.51,1.4,1.42,1.08-.36,1.83-1.76.17v2.37l1.41-.31.71,1.38-1.59,1.92,1.23,1.2,1.33-1.68,2,.33-.09,2.19,2.12-.1.27-2.12,1.76-1.32,1,1.36,1.5-1.28-.88-1.58,1.06-1.22,1.5-.19.09-3.08-1.5.39Z" style="fill: #fff;fill-rule: evenodd"/>
    <path d="M230.74,175.38l1.26-1.57-1.74-1.52-1.17,1.46-1.86-.11c-.09-.43-.18-.85-.26-1.27l-2,.37-.07,0-.09,1.34-1.5,1.32c-.42-.43-.83-.86-1.24-1.3l-1.69,1.58,1.49,1.13c-.11.55-.22,1.09-.32,1.64l-1.7.16h-.09v2.64l1.46-.32.63,1.23-1.62,1.95,1.38,1.34,1.35-1.7,1.83.3-.08,2.21,2.28-.1.27-2.17,1.67-1.25.93,1.3,0,.07,1.56-1.33.1-.09-.9-1.58c.32-.38.64-.75,1-1.12l1.56-.2.09-3.34-1.56.4C231.39,176.38,231.07,175.88,230.74,175.38Zm2.27,4.21-1.45.18-1.16,1.34c.29.52.58,1,.88,1.56l-1.35,1.15c-.33-.45-.65-.91-1-1.36l-1.87,1.4c-.09.69-.17,1.39-.26,2.08l-2,.08c0-.68.06-1.37.08-2.06v-.11l-2.06-.34-1.31,1.65-1.09-1.06,1.57-1.88c-.26-.52-.52-1-.79-1.54l-1.37.31v-2.11l1.68-.16h.07l.39-2-1.34-1,1.32-1.23,1.23,1.3,1.69-1.49L225,173l1.8-.33c.08.41.17.82.26,1.24l2,.12h0l1.12-1.41,1.44,1.26c-.4.51-.81,1-1.21,1.51l1.12,1.74,0,0,1.45-.38C233.06,177.72,233,178.66,233,179.59Z" style="fill: #db161b"/>
    <path d="M226.31,176.34a2.9,2.9,0,0,0-2.13,3c0,1.48.95,2.54,2.13,2.38a2.9,2.9,0,0,0,2.14-3C228.45,177.25,227.49,176.18,226.31,176.34Z" style="fill: #fff;fill-rule: evenodd"/>
    <path d="M226.31,174.81c-1.76.24-3.18,2.33-3.19,4.65s1.43,4,3.19,3.76,3.19-2.31,3.19-4.63S228.07,174.57,226.31,174.81Zm0,5.34a1,1,0,0,1-1.08-1,1.32,1.32,0,0,1,1.08-1.28,1,1,0,0,1,1.09,1A1.34,1.34,0,0,1,226.31,180.15Z" style="fill: #db161b"/>
    <path d="M239.61,164.15l3.12,3.72" style="fill: #fff;fill-rule: evenodd"/>
    <path d="M239.51,164.31l3.13,3.72.18-.33L239.7,164Z" style="fill: #db161b"/>
    <path d="M237.52,164.39q1.57,1.85,3.13,3.71" style="fill: #fff;fill-rule: evenodd"/>
    <path d="M237.43,164.55l3.13,3.71.18-.33-3.12-3.7Z" style="fill: #db161b"/>
    <path d="M235.44,164.64l3.13,3.69" style="fill: #fff;fill-rule: evenodd"/>
    <path d="M235.35,164.8l3.12,3.69.19-.32-3.12-3.7Z" style="fill: #db161b"/>
    <path d="M233.36,164.89l3.12,3.69" style="fill: #fff;fill-rule: evenodd"/>
    <path d="M233.27,165.06l3.12,3.68.19-.33-3.13-3.68Z" style="fill: #db161b"/>
    <path d="M231.28,165.16l3.12,3.67" style="fill: #fff;fill-rule: evenodd"/>
    <path d="M231.19,165.32l3.12,3.67.18-.32L231.37,165Z" style="fill: #db161b"/>
    <path d="M229.2,165.43q1.56,1.81,3.12,3.66" style="fill: #fff;fill-rule: evenodd"/>
    <path d="M229.1,165.59l3.13,3.66.18-.33-3.12-3.66Z" style="fill: #db161b"/>
    <path d="M227.11,165.7l3.13,3.65" style="fill: #fff;fill-rule: evenodd"/>
    <path d="M227,165.87l3.12,3.65.19-.33-3.12-3.65Z" style="fill: #db161b"/>
    <path d="M225,166l3.12,3.64" style="fill: #fff;fill-rule: evenodd"/>
    <path d="M224.94,166.15l3.12,3.64.19-.33-3.13-3.64Z" style="fill: #db161b"/>
    <path d="M223,166.28l3.12,3.63" style="fill: #fff;fill-rule: evenodd"/>
    <path d="M222.86,166.45l3.12,3.62.18-.32q-1.56-1.83-3.12-3.63Z" style="fill: #db161b"/>
    <path d="M220.87,166.58,224,170.2" style="fill: #fff;fill-rule: evenodd"/>
    <path d="M220.77,166.75q1.57,1.8,3.13,3.61l.18-.33L221,166.42Z" style="fill: #db161b"/>
    <path d="M218.78,166.89q1.58,1.8,3.13,3.61" style="fill: #fff;fill-rule: evenodd"/>
    <path d="M218.69,167.06l3.13,3.6.18-.33-3.12-3.6Z" style="fill: #db161b"/>
    <path d="M216.7,167.21l3.13,3.59" style="fill: #fff;fill-rule: evenodd"/>
    <path d="M216.61,167.37l3.12,3.59.19-.32c-1-1.21-2.08-2.4-3.13-3.6Z" style="fill: #db161b"/>
    <path d="M225,166l3.12,3.64" style="fill: #fff;fill-rule: evenodd"/>
    <path d="M224.94,166.15l3.12,3.64.19-.33-3.13-3.64Z" style="fill: #db161b"/>
    <path d="M214.62,167.53l3.12,3.58" style="fill: #fff;fill-rule: evenodd"/>
    <path d="M214.53,167.7l3.12,3.58.19-.33-3.13-3.58Z" style="fill: #db161b"/>
    <path d="M212.54,167.86l3.12,3.57" style="fill: #fff;fill-rule: evenodd"/>
    <path d="M212.45,168l3.12,3.57.18-.33q-1.56-1.8-3.12-3.57Z" style="fill: #db161b"/>
    <path d="M210.46,168.2l3.12,3.56" style="fill: #fff;fill-rule: evenodd"/>
    <path d="M210.36,168.37l3.13,3.56.18-.34L210.55,168Z" style="fill: #db161b"/>
    <path d="M208.37,168.55c1,1.18,2.09,2.36,3.13,3.55" style="fill: #fff;fill-rule: evenodd"/>
    <path d="M208.28,168.72l3.12,3.54.19-.33c-1-1.18-2.08-2.37-3.13-3.55Z" style="fill: #db161b"/>
    <path d="M211.5,168c-1,1.53-2.09,3.05-3.13,4.59" style="fill: #fff;fill-rule: evenodd"/>
    <path d="M208.28,172.48l.18.27,3.13-4.58-.19-.27Z" style="fill: #db161b"/>
    <path d="M213.58,167.7l-3.12,4.57" style="fill: #fff;fill-rule: evenodd"/>
    <path d="M210.36,172.13l.19.27,3.12-4.57-.18-.27C212.45,169.08,211.4,170.6,210.36,172.13Z" style="fill: #db161b"/>
    <path d="M215.66,167.37l-3.12,4.56" style="fill: #fff;fill-rule: evenodd"/>
    <path d="M212.45,171.79l.18.27,3.12-4.55-.18-.28Z" style="fill: #db161b"/>
    <path d="M217.74,167.05l-3.12,4.55" style="fill: #fff;fill-rule: evenodd"/>
    <path d="M214.53,171.46l.18.27q1.56-2.28,3.13-4.54l-.19-.28Z" style="fill: #db161b"/>
    <path d="M219.83,166.74l-3.13,4.53" style="fill: #fff;fill-rule: evenodd"/>
    <path d="M216.61,171.13l.18.28,3.13-4.54-.19-.27Z" style="fill: #db161b"/>
    <path d="M221.91,166.43,218.78,171" style="fill: #fff;fill-rule: evenodd"/>
    <path d="M218.69,170.82l.19.27,3.12-4.52-.18-.28Z" style="fill: #db161b"/>
    <path d="M224,166.13l-3.12,4.52" style="fill: #fff;fill-rule: evenodd"/>
    <path d="M220.77,170.51l.19.27,3.12-4.51-.18-.27Z" style="fill: #db161b"/>
    <path d="M226.07,165.85l-3.12,4.5" style="fill: #fff;fill-rule: evenodd"/>
    <path d="M222.86,170.21l.18.27,3.12-4.5-.18-.27Q224.42,167.95,222.86,170.21Z" style="fill: #db161b"/>
    <path d="M228.15,165.56,225,170.05" style="fill: #fff;fill-rule: evenodd"/>
    <path d="M224.94,169.91l.18.28,3.13-4.49-.19-.28Z" style="fill: #db161b"/>
    <path d="M230.24,165.29c-1,1.49-2.09,3-3.13,4.48" style="fill: #fff;fill-rule: evenodd"/>
    <path d="M227,169.63l.19.28,3.12-4.48-.19-.28Z" style="fill: #db161b"/>
    <path d="M232.32,165l-3.12,4.47" style="fill: #fff;fill-rule: evenodd"/>
    <path d="M229.1,169.35l.19.28,3.12-4.47-.18-.28Z" style="fill: #db161b"/>
    <path d="M234.4,164.76l-3.12,4.46" style="fill: #fff;fill-rule: evenodd"/>
    <path d="M231.19,169.08l.18.28,3.12-4.46-.18-.28Z" style="fill: #db161b"/>
    <path d="M226.07,165.85l-3.12,4.5" style="fill: #fff;fill-rule: evenodd"/>
    <path d="M222.86,170.21l.18.27,3.12-4.5-.18-.27Q224.42,167.95,222.86,170.21Z" style="fill: #db161b"/>
    <path d="M236.48,164.51,233.36,169" style="fill: #fff;fill-rule: evenodd"/>
    <path d="M233.27,168.82l.18.28q1.56-2.23,3.13-4.45l-.19-.28Z" style="fill: #db161b"/>
    <path d="M238.57,164.27q-1.57,2.21-3.13,4.43" style="fill: #fff;fill-rule: evenodd"/>
    <path d="M235.35,168.56l.19.28,3.12-4.43-.19-.28Z" style="fill: #db161b"/>
    <path d="M240.65,164c-1,1.47-2.08,2.95-3.13,4.42" style="fill: #fff;fill-rule: evenodd"/>
    <path d="M237.43,168.31l.19.28,3.12-4.42-.18-.28C239.51,165.36,238.47,166.84,237.43,168.31Z" style="fill: #db161b"/>
    <path d="M242.73,163.8l-3.12,4.41" style="fill: #fff;fill-rule: evenodd"/>
    <path d="M239.51,168.07l.19.28,3.12-4.41-.18-.28Z" style="fill: #db161b"/>
    <path d="M239.61,187.18l3.12,3.73" style="fill: #fff;fill-rule: evenodd"/>
    <path d="M239.51,187.34c1.05,1.24,2.09,2.49,3.13,3.73l.18-.32L239.7,187Z" style="fill: #db161b"/>
    <path d="M237.52,187.42l3.13,3.72" style="fill: #fff;fill-rule: evenodd"/>
    <path d="M237.43,187.58l3.13,3.72.18-.32-3.12-3.72Z" style="fill: #db161b"/>
    <path d="M235.44,187.67l3.13,3.71" style="fill: #fff;fill-rule: evenodd"/>
    <path d="M235.35,187.83l3.12,3.71.19-.32-3.12-3.71Z" style="fill: #db161b"/>
    <path d="M233.36,187.92l3.12,3.7" style="fill: #fff;fill-rule: evenodd"/>
    <path d="M233.27,188.09l3.12,3.69.19-.32-3.13-3.7Z" style="fill: #db161b"/>
    <path d="M231.28,188.19l3.12,3.68" style="fill: #fff;fill-rule: evenodd"/>
    <path d="M231.19,188.35l3.12,3.69.18-.33L231.37,188Z" style="fill: #db161b"/>
    <path d="M229.2,188.46l3.12,3.67" style="fill: #fff;fill-rule: evenodd"/>
    <path d="M229.1,188.62l3.13,3.68.18-.33-3.12-3.68Z" style="fill: #db161b"/>
    <path d="M227.11,188.73c1,1.22,2.09,2.44,3.13,3.67" style="fill: #fff;fill-rule: evenodd"/>
    <path d="M227,188.9l3.12,3.66.19-.32-3.12-3.67Z" style="fill: #db161b"/>
    <path d="M225,189l3.12,3.65" style="fill: #fff;fill-rule: evenodd"/>
    <path d="M224.94,189.18l3.12,3.66.19-.33-3.13-3.65Z" style="fill: #db161b"/>
    <path d="M223,189.31l3.12,3.64" style="fill: #fff;fill-rule: evenodd"/>
    <path d="M222.86,189.48l3.12,3.64.18-.33L223,189.15Z" style="fill: #db161b"/>
    <path d="M220.87,189.61l3.12,3.63" style="fill: #fff;fill-rule: evenodd"/>
    <path d="M220.77,189.78l3.13,3.63.18-.33L221,189.45Z" style="fill: #db161b"/>
    <path d="M218.78,189.92l3.13,3.62" style="fill: #fff;fill-rule: evenodd"/>
    <path d="M218.69,190.09l3.13,3.62.18-.33-3.12-3.62Z" style="fill: #db161b"/>
    <path d="M216.7,190.24l3.13,3.61" style="fill: #fff;fill-rule: evenodd"/>
    <path d="M216.61,190.4l3.12,3.61.19-.33c-1-1.2-2.08-2.41-3.13-3.61Z" style="fill: #db161b"/>
    <path d="M225,189l3.12,3.65" style="fill: #fff;fill-rule: evenodd"/>
    <path d="M224.94,189.18l3.12,3.66.19-.33-3.13-3.65Z" style="fill: #db161b"/>
    <path d="M214.62,190.56l3.12,3.6" style="fill: #fff;fill-rule: evenodd"/>
    <path d="M214.53,190.73l3.12,3.59.19-.33-3.13-3.59Z" style="fill: #db161b"/>
    <path d="M212.54,190.89l3.12,3.59" style="fill: #fff;fill-rule: evenodd"/>
    <path d="M212.45,191.06l3.12,3.58.18-.33-3.12-3.58Z" style="fill: #db161b"/>
    <path d="M210.46,191.23l3.12,3.58" style="fill: #fff;fill-rule: evenodd"/>
    <path d="M210.36,191.4l3.13,3.57.18-.33-3.12-3.57Z" style="fill: #db161b"/>
    <path d="M208.37,191.58l3.13,3.56" style="fill: #fff;fill-rule: evenodd"/>
    <path d="M208.28,191.75l3.12,3.56.19-.33q-1.56-1.78-3.13-3.56Z" style="fill: #db161b"/>
    <path d="M211.5,191.06l-3.13,4.6" style="fill: #fff;fill-rule: evenodd"/>
    <path d="M208.28,195.53l.18.27,3.13-4.6-.19-.27Z" style="fill: #db161b"/>
    <path d="M213.58,190.73l-3.12,4.58" style="fill: #fff;fill-rule: evenodd"/>
    <path d="M210.36,195.18l.19.27,3.12-4.59-.18-.27Z" style="fill: #db161b"/>
    <path d="M215.66,190.4,212.54,195" style="fill: #fff;fill-rule: evenodd"/>
    <path d="M212.45,194.84l.18.27,3.12-4.57-.18-.28Z" style="fill: #db161b"/>
    <path d="M217.74,190.08l-3.12,4.56" style="fill: #fff;fill-rule: evenodd"/>
    <path d="M214.53,194.51l.18.27c1-1.52,2.08-3.05,3.13-4.56l-.19-.28Z" style="fill: #db161b"/>
    <path d="M219.83,189.77q-1.58,2.26-3.13,4.55" style="fill: #fff;fill-rule: evenodd"/>
    <path d="M216.61,194.18l.18.28,3.13-4.55-.19-.28Z" style="fill: #db161b"/>
    <path d="M221.91,189.46c-1,1.51-2.08,3-3.13,4.54" style="fill: #fff;fill-rule: evenodd"/>
    <path d="M218.69,193.86l.19.28L222,189.6l-.18-.27Z" style="fill: #db161b"/>
    <path d="M224,189.17l-3.12,4.52" style="fill: #fff;fill-rule: evenodd"/>
    <path d="M220.77,193.56l.19.27,3.12-4.53-.18-.27Z" style="fill: #db161b"/>
    <path d="M226.07,188.88,223,193.39" style="fill: #fff;fill-rule: evenodd"/>
    <path d="M222.86,193.25l.18.28,3.12-4.51-.18-.28Z" style="fill: #db161b"/>
    <path d="M228.15,188.59,225,193.1" style="fill: #fff;fill-rule: evenodd"/>
    <path d="M224.94,193l.18.28c1-1.51,2.09-3,3.13-4.51l-.19-.27C227,190,226,191.46,224.94,193Z" style="fill: #db161b"/>
    <path d="M230.24,188.32l-3.13,4.49" style="fill: #fff;fill-rule: evenodd"/>
    <path d="M227,192.68l.19.27,3.12-4.49-.19-.28C229.1,189.68,228.06,191.17,227,192.68Z" style="fill: #db161b"/>
    <path d="M232.32,188.05l-3.12,4.49" style="fill: #fff;fill-rule: evenodd"/>
    <path d="M229.1,192.4l.19.28,3.12-4.49-.18-.28Z" style="fill: #db161b"/>
    <path d="M234.4,187.79l-3.12,4.47" style="fill: #fff;fill-rule: evenodd"/>
    <path d="M231.19,192.13l.18.27,3.12-4.46-.18-.28Q232.75,189.88,231.19,192.13Z" style="fill: #db161b"/>
    <path d="M226.07,188.88,223,193.39" style="fill: #fff;fill-rule: evenodd"/>
    <path d="M222.86,193.25l.18.28,3.12-4.51-.18-.28Z" style="fill: #db161b"/>
    <path d="M236.48,187.54,233.36,192" style="fill: #fff;fill-rule: evenodd"/>
    <path d="M233.27,191.86l.18.28,3.13-4.46-.19-.28Z" style="fill: #db161b"/>
    <path d="M238.57,187.3q-1.57,2.22-3.13,4.45" style="fill: #fff;fill-rule: evenodd"/>
    <path d="M235.35,191.61l.19.28,3.12-4.45-.19-.28Z" style="fill: #db161b"/>
    <path d="M240.65,187.06l-3.13,4.44" style="fill: #fff;fill-rule: evenodd"/>
    <path d="M237.43,191.36l.19.28,3.12-4.44-.18-.28Z" style="fill: #db161b"/>
    <path d="M242.73,186.83l-3.12,4.43" style="fill: #fff;fill-rule: evenodd"/>
    <path d="M239.51,191.12l.19.28,3.12-4.43-.18-.28Z" style="fill: #db161b"/>
    <path d="M191.85,144c-10.12-3.07-5.29,15.79-59,108.35-50.52,88.9-72.07,110.79-62,111.23,10.11,1,42.65-50.46,76.5-109.46S202,148.08,191.85,144Z" style="fill: #fff;fill-rule: evenodd"/>
    <path d="M191.93,143.68c-4.8-1.78-6.43,2-11.83,14.8-6.4,15.32-18.32,43-47.42,93.69-23.89,41.78-41.45,69.39-51.94,86-8.81,14-12.83,20.59-12.5,23.67.13,1.23.94,1.87,2.56,2.05a4.64,4.64,0,0,0,2.43-.52c4.29-1.92,12.27-9.9,27.13-31.87,13.39-19.76,29.7-46.66,47.18-77.23,30-52.34,48.85-93.62,47-106.6C194.19,145.56,193.32,144.21,191.93,143.68ZM147.22,253.93C110,318.93,80.12,364.24,71,363.24c-1.45-.16-2.17-.69-2.28-1.67-.29-2.73,3.93-9.62,12.33-23,10.5-16.65,28.07-44.26,52-86.06,29.13-50.69,41.07-78.43,47.48-93.77,5.38-12.71,6.82-16.11,11.29-14.44,1.25.47,2,1.68,2.31,3.6C195.92,160.69,177.1,201.75,147.22,253.93Z" style="fill: #db161b"/>
    <path d="M67.4,365.8c5.21,1.54,23.95-16.44,40.6-45.62q-8.85-.07-17.69.22C76.77,347.67,62.2,364.22,67.4,365.8Z" style="fill: #fff;fill-rule: evenodd"/>
    <path d="M90.25,320.14l-.07.14C84.38,332,78.29,341.84,73.84,349.1c-4.73,7.72-7.85,12.9-7.68,15.41a1.55,1.55,0,0,0,1.16,1.55,4.82,4.82,0,0,0,3.27-.59c3.21-1.49,7.79-5.3,12.89-10.76,8.36-9,17.11-21.16,24.64-34.39l-.07-.4Q99.16,319.85,90.25,320.14Zm-22.76,45.4a1.29,1.29,0,0,1-1-1.24c-.15-2.25,3.09-7.6,7.56-14.9s10.51-17.06,16.31-28.74q8.64-.29,17.29-.22C91.06,349.39,72.53,367,67.49,365.54Z" style="fill: #db161b"/>
    <path d="M68.46,364c4.15.72,20.2-12.94,36.42-41.24q-7.27.07-14.57.39C77.12,349.41,64.28,363.23,68.46,364Z" style="fill: #fff;fill-rule: evenodd"/>
    <path d="M90.25,322.85l-.07.14a310.1,310.1,0,0,1-16.8,29c-3.76,5.92-6,9.54-5.89,11.24a1,1,0,0,0,.9,1,4.45,4.45,0,0,0,2.52-.56c2.8-1.3,6.89-4.62,11.3-9.24,5.36-5.62,13.67-15.63,22.79-31.56l-.07-.4Q97.58,322.53,90.25,322.85ZM68.53,363.69c-.44-.08-.67-.3-.7-.67-.12-1.42,2.35-5.34,5.76-10.71a312,312,0,0,0,16.78-28.94q7.08-.3,14.16-.38C88.56,350.7,72.63,364.41,68.53,363.69Z" style="fill: #db161b"/>
    <path d="M144.45,246.21c0,.6-.13,1.5-.21,2a20.12,20.12,0,0,1-.12,2.14c0,.15-.06.29-.09.42a1.2,1.2,0,0,1-.44.9l-.06,0,0,.08a3.4,3.4,0,0,1-1,1.42,8.4,8.4,0,0,1-1.26,1.34,2.15,2.15,0,0,1-1.42.6c-.22-.14-.41-.28-.6-.42s-.32-.24-.48-.34h0a8.69,8.69,0,0,0-.25-1.69l-.33.26c.05.24.09.56.13.87s.07.53.11.76,0,.24,0,.36a4.58,4.58,0,0,1-.38,1.57l-.11.32.29.16.12-.31a5.66,5.66,0,0,0,.41-1.68l.27.19a4.92,4.92,0,0,0,.65.45l0,0a2.49,2.49,0,0,0,1.64-.68,8.47,8.47,0,0,0,1.31-1.4,3.69,3.69,0,0,0,1.07-1.51,1.91,1.91,0,0,0,.61-1.26c0-.12,0-.26.09-.4l0-.11c.06-.7.12-1.35.12-2.14.07-.46.15-1.34.2-2,0-.29.05-.52.06-.63h-.34C144.5,245.68,144.47,245.92,144.45,246.21Z" style="fill: #db161b"/>
    <path d="M139.88,257.84l0,.07c-.11-.06-.28-.15-.53-.26a3.94,3.94,0,0,0-1.75-.16l-1.81.57A5.61,5.61,0,0,0,134,259L134,259a5.29,5.29,0,0,1-.67.83,6.73,6.73,0,0,0-.6.72,4.49,4.49,0,0,0-.82,1.65,8.53,8.53,0,0,0-.45.91,4.77,4.77,0,0,1-.43.85l-.05.07,0,.09a1.74,1.74,0,0,1-.29.77l-.12.21-.42.1a1.53,1.53,0,0,0-1.07.49,4.33,4.33,0,0,1-.54.38l0,0a1.53,1.53,0,0,1-.82.58v.51a1.84,1.84,0,0,0,1-.67,4.38,4.38,0,0,0,.57-.4c.31-.24.55-.44.89-.41h0l.22-.07-.1.34.26-.06a2.13,2.13,0,0,1,.94-.07l.32.18,0,.05.06,0a.48.48,0,0,0,.25,0c.06,0,.1-.07.14-.18s-.05-.31-.21-.39l-.08,0a.76.76,0,0,0-.36-.2,1.07,1.07,0,0,1-.18-.15l0,0h0l-.28,0h-.08a2.53,2.53,0,0,0,.33-.88,6.86,6.86,0,0,0,.46-.9,6.25,6.25,0,0,1,.42-.86l0-.08a4.15,4.15,0,0,1,.73-1.49,6.85,6.85,0,0,1,.57-.68,6.71,6.71,0,0,0,.7-.86,5.55,5.55,0,0,1,1.59-.82l1.78-.55a3.6,3.6,0,0,1,1.63.14l.53.26c.16.09.28.15.37-.07s0-.33-.14-.46Z" style="fill: #db161b"/>
    <path d="M132.63,268.63c-.41.19-1.26.6-1.62.49a1.25,1.25,0,0,1-1.06-.71c-.08-.22-.18-.19-.25-.14s-.16.35-.11,1c0,.24,0,.51,0,.67a2.28,2.28,0,0,1-.33,1.19,5.46,5.46,0,0,0-.25.49l-.43.52a10,10,0,0,1-.73.86,6.05,6.05,0,0,1-1.13,1.18l-.14.13a7,7,0,0,0-1.05,1.12,2.8,2.8,0,0,0-.52,1.21c0,.19-.1.39-.17.61l0,.08v.08a2.1,2.1,0,0,0,.55,1.64,3.27,3.27,0,0,0,.78,1.24c0,.11.11.21.15.3a1.51,1.51,0,0,1,.17.35s0,.1-.38.31a1,1,0,0,1-.7.29,1.86,1.86,0,0,0-.38.06l0,.51.36-.06a1.89,1.89,0,0,0,.39-.07,1.26,1.26,0,0,0,.45-.28,1.13,1.13,0,0,0,.61-.67,1.06,1.06,0,0,0-.2-.82l-.16-.3,0-.05a3.08,3.08,0,0,1-.73-1.16l0-.06,0,0c-.29-.22-.39-.52-.44-1.28a5.41,5.41,0,0,0,.17-.62,2.08,2.08,0,0,1,.4-.93,6.43,6.43,0,0,1,1-1l.14-.13a6.28,6.28,0,0,0,1.17-1.24,8,8,0,0,0,.75-.86c.15-.19.29-.37.43-.53l.06-.09c.09-.2.18-.36.25-.5a3,3,0,0,0,.42-1.54c0-.19,0-.46,0-.72a1.24,1.24,0,0,0,1,.48,3.3,3.3,0,0,0,1.76-.51l.26-.12,0-.5Z" style="fill: #db161b"/>
    <path d="M121,283.33a3,3,0,0,0-1,.77,5.85,5.85,0,0,1-.43.42l0,.07a6.17,6.17,0,0,1-1.12,1.52l-.06.09c-.07.13-.14.29-.23.45a13.56,13.56,0,0,0-.83,1.84,9.87,9.87,0,0,0-.28,2.37,5,5,0,0,0,.14,1.14,4.13,4.13,0,0,1,.13.85,4.2,4.2,0,0,0,.8,1.77c.07.24.16.31.35.32l.09-.52c-.1,0-.1,0-.13-.13l0-.07a4,4,0,0,1-.73-1.59,4.15,4.15,0,0,0-.14-.9,4.26,4.26,0,0,1-.12-1,9.49,9.49,0,0,1,.24-2.15,12.9,12.9,0,0,1,.77-1.68l.21-.41a6.92,6.92,0,0,0,1.16-1.58c.17-.15.3-.29.42-.41a2.62,2.62,0,0,1,.91-.68l1.78-.61a18.93,18.93,0,0,0,1.94.17l.07-.52a17.26,17.26,0,0,1-1.93-.17Z" style="fill: #db161b"/>
    <path d="M118.6,296.56c-.13,0-.19.21-.3.51a4.76,4.76,0,0,1-.19.53c-.39.71-.39.72-1,.93-.3.09-.38,0-.5,0a.76.76,0,0,0-.3-.15l-.21-.33a4.35,4.35,0,0,1-.4-.7l0-.05c0-.12,0-.23,0-.35v-.07a7.41,7.41,0,0,0-.4-.89l-.07-.16,0,0-.21-.19a.74.74,0,0,0-.71-.29h-.07l0,.51h0a.46.46,0,0,1,.21,0l.1.05a3.46,3.46,0,0,0,.22.31,4.54,4.54,0,0,1,.32.51,2.8,2.8,0,0,1,.26.57c.05.1.09.21.13.3l0,.12a6.2,6.2,0,0,1,.09,1,6.57,6.57,0,0,1-.15,1.76l-.17.33a4.24,4.24,0,0,1-.44.77,10.33,10.33,0,0,0-.65,1.28l-.6.8-.2.27a3.17,3.17,0,0,1-.9.82,1.08,1.08,0,0,1-.79-.05l-.22-.07c-.18-.13-.35-.22-.51-.32l-.42-.26a2.51,2.51,0,0,1-.59-.77l0-.07h-.06a1.39,1.39,0,0,0-1.25.76,5.82,5.82,0,0,0-.66,1.18c-.08.1-.17.23-.26.36a3.38,3.38,0,0,1-.25.34l.15.4a4.43,4.43,0,0,0,.3-.41,3.06,3.06,0,0,1,.25-.33l0-.05,0-.07a5.62,5.62,0,0,1,.61-1.1,1,1,0,0,1,.89-.56,2.47,2.47,0,0,0,.64.81l.43.26.53.33.24.08a1.31,1.31,0,0,0,.95,0,3.77,3.77,0,0,0,1.09-1l.19-.27c.22-.3.4-.54.62-.82l0-.09a9.73,9.73,0,0,1,.61-1.2,5.13,5.13,0,0,0,.48-.85l.18-.35,0-.09a7.22,7.22,0,0,0,.19-2v-.21l0,0c.07.12.15.23.22.36l0,.05h.05a.81.81,0,0,1,.28.13.67.67,0,0,0,.7.08c.69-.25.79-.36,1.24-1.2.09-.21.17-.44.23-.62s.08-.21.1-.25l-.1-.16Z" style="fill: #db161b"/>
    <path d="M109.76,306.91a4.15,4.15,0,0,1-.19-.62l0-.09-.06,0-.43-.23a2.36,2.36,0,0,0-.51-.26l-.13.52a3.2,3.2,0,0,1,.45.23c.14.08.28.17.39.22a3.72,3.72,0,0,0,.19.59,3.67,3.67,0,0,1,.23.95,11.85,11.85,0,0,1,.11,2v.12a12.53,12.53,0,0,1-.4,1.73c-.05.16-.1.32-.14.48l-.26.37c-.2.29-.38.54-.68.91a10.13,10.13,0,0,1-1.43.69l0,0a1.79,1.79,0,0,1-1.25.49h0a2.23,2.23,0,0,1-1.12-.15l-.07,0c-.17-.07-.3-.15-.44-.22a2.86,2.86,0,0,0-.68-.32,3.55,3.55,0,0,0-.48-.62c-.14-.15-.27-.31-.41-.48s-.13-.2-.19-.29a3.47,3.47,0,0,1-.47-.88l-.32.32a8.26,8.26,0,0,0,.29.88c.1.29.2.57.29.91l.11.24a3,3,0,0,1,.33,1.35,7,7,0,0,1,.11,1.76v.39c0,.14,0,.32,0,.51a7.93,7.93,0,0,1-.17,1.46l0,.63.35-.13v-.45a9.9,9.9,0,0,0,.19-1.59c0-.19,0-.36,0-.53v-.42a7.68,7.68,0,0,0-.12-1.86,3.33,3.33,0,0,0-.37-1.49l0-.12a2.2,2.2,0,0,0,.2.23,4.32,4.32,0,0,1,.48.62l0,0,0,0a3,3,0,0,1,.68.31l.46.24.09,0a2.33,2.33,0,0,0,1.19.16,2.11,2.11,0,0,0,1.46-.54,10.21,10.21,0,0,0,1.48-.73l0-.05a10.26,10.26,0,0,0,.76-1l.29-.41,0-.05,0-.08.15-.55a12.28,12.28,0,0,0,.43-1.9v-.17A12.05,12.05,0,0,0,110,308,3.65,3.65,0,0,0,109.76,306.91Z" style="fill: #db161b"/>
    <path d="M97.38,326l-.16-.06a2.34,2.34,0,0,0-1.93-.08h-.05a3.73,3.73,0,0,0-1.33,1.52,6,6,0,0,1-.36.61c-.62.47-1.31.59-1.6.3-.07-.43-.11-.74-.14-.92s-.07-.42-.22-.34-.15.21-.16.4v.24l0,0c0,.2.07.52.14.95l0,.1c.42.51,1.32.25,2-.28l.06-.06c.18-.27.31-.51.43-.72a3,3,0,0,1,1.13-1.29,2.12,2.12,0,0,1,1.76.08l.18.07a1.68,1.68,0,0,1,1.38,1,1.9,1.9,0,0,1,.14.93,1.15,1.15,0,0,1-.4.51l0,0a6.56,6.56,0,0,1-1.93,1.69l-.39.15A2.37,2.37,0,0,0,94.42,332a4.71,4.71,0,0,0-.6,2.86V335a7.72,7.72,0,0,0-.23,1.39c0,.28-.07.58-.1.79a3.82,3.82,0,0,1-1.4,1c-.17-.64-.36-1.67-.48-2.36l0-.11c0-.2-.07-.44-.1-.68a4.05,4.05,0,0,0-.48-1.81,3.45,3.45,0,0,0-1.31-1.17,1.48,1.48,0,0,0-1.17-.5l-.12.52c.61.14.71.48.8,1.43l-.2.23a3.46,3.46,0,0,1-1.43,1.07c-1,.31-1.17.09-1.53-.44l-.31.26a7.78,7.78,0,0,1-.29,1.66c-.09.33-.17.68-.25,1.12a12.68,12.68,0,0,0-.52,1.54c-.12.38-.23.77-.39,1.2l0,.1v.09a4.5,4.5,0,0,0,.28,1,3,3,0,0,1,.27,1.36v.07c.07.24.11.48.16.72a2.18,2.18,0,0,0,.57,1.4,2,2,0,0,1-1.22-.07,4.38,4.38,0,0,1-.8-.43,5.25,5.25,0,0,0-.66-.36,4.13,4.13,0,0,0-2.29-.48l-.37.16A2.55,2.55,0,0,0,78.64,345,7.89,7.89,0,0,0,77.48,348c-.17,1.31-.26,2.29.2,2.94a2.46,2.46,0,0,1,0,2.11,4.1,4.1,0,0,1-1.53,1.66l-.37.29a4.88,4.88,0,0,1-1.77.34l-.11.53a5.23,5.23,0,0,0,1.88-.36h0l0,0,.39-.31a4.57,4.57,0,0,0,1.75-2,3.16,3.16,0,0,0,0-2.65c-.38-.55-.31-1.35-.16-2.57a7,7,0,0,1,1-2.71l0,0c.26-.55.71-.73,1.33-1l.34-.14a4.11,4.11,0,0,1,2.15.47,6.74,6.74,0,0,1,.64.35,4.36,4.36,0,0,0,.83.44,3.11,3.11,0,0,0,2.48-.3v-.51c-.5.18-.61.15-.82-.08s-.4-.65-.5-1.22c0-.24-.1-.48-.16-.73a3.61,3.61,0,0,0-.31-1.51,3.25,3.25,0,0,1-.23-.8c.14-.42.25-.79.36-1.15a13,13,0,0,1,.51-1.49l0-.11c.07-.42.16-.76.24-1.09a10.77,10.77,0,0,0,.26-1.22c.32.37.68.47,1.54.19a3.86,3.86,0,0,0,1.59-1.19l.31-.35.12-.12,0-.18a6.74,6.74,0,0,0-.13-1h0l0,0a3.24,3.24,0,0,1,1.24,1.11,4,4,0,0,1,.41,1.6c0,.25.06.5.1.71l0,.11c.14.76.35,1.92.54,2.56l0,.14.12,0a4.48,4.48,0,0,0,1.72-1.2l.07-.07,0-.11a8.8,8.8,0,0,0,.14-1,6.3,6.3,0,0,1,.21-1.25l0-.08v-.27a3.82,3.82,0,0,1,.51-2.46c.26-.54.7-.71,1.31-.93l.42-.16a6.75,6.75,0,0,0,2.07-1.82,1.65,1.65,0,0,0,.59-.83,2.27,2.27,0,0,0-.15-1.38A1.89,1.89,0,0,0,97.38,326Z" style="fill: #db161b"/>
    <path d="M223.68,59.21c-4.08-2.19-25.59,44.53-48,106.29q7.4,3.27,14.8,6.76C212.9,111.24,227.78,61.46,223.68,59.21Z" style="fill: #fff;fill-rule: evenodd"/>
    <path d="M223.76,59c-4.23-2.26-25.42,43.59-48.24,106.45l-.09.27q7.48,3.3,15,6.82l.14.07.08-.22c21-57.06,35.48-104.59,33.76-112.3A1.55,1.55,0,0,0,223.76,59Zm-33.35,113q-7.24-3.41-14.49-6.61C197.24,106.63,218.45,60,223.23,59.39a.6.6,0,0,1,.38.06c.21.11.35.37.45.8C225.72,67.7,210.94,116,190.41,171.94Z" style="fill: #db161b"/>
    <path d="M222.25,63c-3.26-1.74-23.46,43.63-45.09,103.14q5.91,2.63,11.84,5.4C210.62,112.63,225.52,64.82,222.25,63Z" style="fill: #fff;fill-rule: evenodd"/>
    <path d="M222.32,62.81c-3.77-2.09-26,50.11-45.3,103.27l.27.16c10.46-28.76,20.91-55.16,29.43-74.51C214.57,73.89,220.19,63.46,222,63.2a.35.35,0,0,1,.23,0,.73.73,0,0,1,.28.5c1.35,6.07-13.41,52.68-33.6,107.73l.26.18c20.57-56.06,35-101.81,33.63-108.09A1.05,1.05,0,0,0,222.32,62.81Z" style="fill: #db161b"/>
    <path d="M177.16,166.16q5.91,2.63,11.84,5.4c2.7-7.37,5.65-15.13,8.12-22.08q-5.93-2.86-11.84-5.58C182.65,150.83,179.87,158.73,177.16,166.16Z" style="fill: #fff;fill-rule: evenodd"/>
    <path d="M185.13,143.79c-1.72,4.54-3.54,9.58-5.3,14.46-1,2.62-1.89,5.25-2.83,7.82l-.09.26q6,2.67,12,5.48l.14.07.08-.22c.94-2.57,1.91-5.18,2.88-7.78,1.78-4.81,3.63-9.77,5.24-14.31l.09-.26q-6.08-2.92-12.15-5.73Zm11.74,5.85c-1.59,4.46-3.4,9.32-5.15,14-.94,2.53-1.88,5.07-2.79,7.56q-5.76-2.69-11.53-5.25c.91-2.49,1.82-5,2.73-7.55,1.73-4.8,3.52-9.75,5.22-14.23Q191.11,146.86,196.87,149.64Z" style="fill: #db161b"/>
    <path d="M179.12,165.51q4.44,2,8.87,4.05c2.71-7.37,4.71-12.54,7.17-19.5q-4.44-2.13-8.88-4.18C183.66,152.81,181.82,158.09,179.12,165.51Z" style="fill: #fff;fill-rule: evenodd"/>
    <path d="M186.21,145.57l-.08.21c-1.73,4.58-3.15,8.51-4.65,12.67l-2.51,7-.1.27q4.53,2,9,4.13l.14.07.08-.22,2.52-6.79c1.55-4.15,3-8.07,4.66-12.72l.09-.25q-4.53-2.18-9.06-4.26Zm4.15,17.1c-.77,2.06-1.57,4.2-2.44,6.57-2.85-1.32-5.7-2.63-8.55-3.9.88-2.42,1.66-4.61,2.42-6.71,1.47-4.09,2.86-7.95,4.56-12.43q4.29,2,8.57,4C193.31,154.75,191.88,158.6,190.36,162.67Z" style="fill: #db161b"/>
    <path d="M181.55,163.55q3,1.33,5.92,2.72,2.63-7.19,5.25-14.32-3-1.41-5.92-2.77Q184.18,156.35,181.55,163.55Z" style="fill: #fff"/>
    <path d="M181.05,163.89c2.19,1,4.37,2,6.56,3q2.8-7.65,5.61-15.28c-2.19-1-4.37-2.06-6.56-3.08Zm11.17-11.61-4.9,13.35-5.27-2.42q2.44-6.71,4.9-13.4C188.71,150.62,190.46,151.45,192.22,152.28Z" style="fill: #db161b"/>
    <path d="M192.73,152q-5.59,5.75-11.17,11.6" style="fill: #fff;fill-rule: evenodd"/>
    <path d="M181.47,163.35l.17.4q5.6-5.85,11.17-11.59l-.17-.41Q187.06,157.48,181.47,163.35Z" style="fill: #db161b"/>
    <path d="M187.47,166.27l-.66-17.09" style="fill: #fff;fill-rule: evenodd"/>
    <path d="M186.63,149.23l.66,17.09.35-.11L187,149.12Z" style="fill: #db161b"/>
    <path d="M219.48,79.87l-5.92-3.07" style="fill: #fff;fill-rule: evenodd"/>
    <path d="M213.49,77.05q3,1.52,5.92,3.07l.15-.49c-2-1-3.95-2.06-5.93-3.07Z" style="fill: #db161b"/>
    <path d="M218.73,69.46a2.91,2.91,0,0,0-1.29,3c.21,1.15,1.13,1.69,2.05,1.21a2.87,2.87,0,0,0,1.29-2.94C220.57,69.53,219.66,69,218.73,69.46Z" style="fill: #db161b"/>
    <path d="M218.48,68a4.06,4.06,0,0,0-1.78,2.16,5.3,5.3,0,0,0-.28,2.77c.3,1.62,1.38,2.55,2.6,2.37a2,2,0,0,0,.72-.24,4,4,0,0,0,1.78-2.15,5.3,5.3,0,0,0,.28-2.77C221.45,68.21,220,67.25,218.48,68Zm1.23,3.6a1,1,0,0,1-.48.56.49.49,0,0,1-.77-.3.68.68,0,0,1,0-.41,1.06,1.06,0,0,1,.48-.56h0a.7.7,0,0,1,.22-.07.46.46,0,0,1,.55.38A.64.64,0,0,1,219.71,71.62Z" style="fill: #db161b"/>
    <path d="M182.16,239.11c-53.72-63.73-48.89-85.19-59-76.64C113,172,133.77,207.73,167.62,248.69S234,323,244.12,316.22C254.23,309.91,232.68,300.83,182.16,239.11Z" style="fill: #fff;fill-rule: evenodd"/>
    <path d="M234.26,296.41c-10.49-10.75-28-28.63-51.94-57.57-29.1-35-41-56.37-47.42-68.23-5.4-9.85-7-12.8-11.83-8.42a8.76,8.76,0,0,0-2.58,5.41c-1.88,14,17,45.05,47,81.36,17.48,21.2,33.79,39.28,47.18,51.68,14.86,13.79,22.84,17.23,27.13,16.73a5.2,5.2,0,0,0,2.43-.86c1.62-1.1,2.43-2.21,2.56-3.5C247.09,309.73,243.07,305.47,234.26,296.41ZM246.32,313c-.11,1-.83,2-2.28,3-9.15,6.26-39.07-22.36-76.26-67.51-29.88-36.2-48.7-67.07-46.85-80.84a7.75,7.75,0,0,1,2.31-4.84,7.58,7.58,0,0,1,2.53-1.7c2.74-.91,4.54,2.35,8.76,10.05,6.41,11.87,18.35,33.24,47.48,68.29,23.91,28.94,41.48,46.83,52,57.57C242.39,305.59,246.61,310.06,246.32,313Z" style="fill: #db161b"/>
    <path d="M224.69,284q-8.85,4.62-17.69,9.53c16.65,20.11,35.39,27.52,40.6,23S238.23,303.72,224.69,284Z" style="fill: #fff;fill-rule: evenodd"/>
    <path d="M241.16,303.42a158.65,158.65,0,0,1-16.34-19.66l-.07-.1q-8.9,4.65-17.8,9.58l-.07.44c7.53,9.12,16.28,16.48,24.64,20.77,5.1,2.61,9.68,3.84,12.89,3.5a5.83,5.83,0,0,0,3.27-1.28,3.09,3.09,0,0,0,1.16-2.21C249,311.85,245.89,308.46,241.16,303.42Zm6.35,12.83c-5,4.37-23.57-2.79-40.17-22.7q8.66-4.8,17.29-9.31a160,160,0,0,0,16.31,19.6c4.47,4.77,7.71,8.26,7.56,10.6A2.64,2.64,0,0,1,247.51,316.25Z" style="fill: #db161b"/>
    <path d="M224.69,286.66q-7.29,3.73-14.57,7.66c16.22,19.42,32.27,24,36.42,20.9S237.88,305.65,224.69,286.66Z" style="fill: #fff;fill-rule: evenodd"/>
    <path d="M241.62,306.06a137.24,137.24,0,0,1-16.8-19.59l-.07-.1q-7.33,3.76-14.68,7.71l-.07.44c9.12,10.93,17.43,16.32,22.79,18.93,4.41,2.15,8.5,3.16,11.3,2.87a5,5,0,0,0,2.52-.88,2,2,0,0,0,.9-1.5C247.65,312.17,245.38,309.85,241.62,306.06Zm4.85,8.93c-4.09,3.06-20-1.62-36-20.6q7.08-3.81,14.16-7.44a137.37,137.37,0,0,0,16.78,19.53c3.41,3.44,5.88,5.95,5.76,7.44A1.51,1.51,0,0,1,246.47,315Z" style="fill: #db161b"/>
    <path d="M176.57,244.74c0-.13,0-.27,0-.41s.07-.53.11-.81.08-.67.13-.94l-.33-.08a11.63,11.63,0,0,0-.25,1.81v0c-.16.18-.32.38-.48.59s-.38.49-.6.74a1.78,1.78,0,0,1-1.42.17,4,4,0,0,1-1.29-.69,1.52,1.52,0,0,1-1-.87l0-.06h-.06c-.31,0-.36-.28-.44-.66l-.09-.38a20.25,20.25,0,0,1-.13-2.13c-.07-.39-.15-1.25-.2-1.82,0-.28-.05-.51-.06-.62l-.34.17c0,.11,0,.33.06.6,0,.62.13,1.46.2,1.81a20,20,0,0,0,.13,2.18v.06c0,.12.06.24.09.36.08.38.18.82.61.93a1.71,1.71,0,0,0,1,.92,4.35,4.35,0,0,0,1.35.71,2,2,0,0,0,1.64-.2l0,0c.25-.28.46-.54.65-.8l.27-.33a3.74,3.74,0,0,0,.41,1.46l.12.25.29-.33-.11-.25A3.16,3.16,0,0,1,176.57,244.74Z" style="fill: #db161b"/>
    <path d="M186.52,250.5a2.26,2.26,0,0,1-.54-.09,1.22,1.22,0,0,0-1.07.09,2.64,2.64,0,0,0-.42.13l-.12-.15a1,1,0,0,1-.29-.61l0-.08-.05,0a2.47,2.47,0,0,1-.43-.62,5.22,5.22,0,0,0-.45-.67,2.21,2.21,0,0,0-.81-1.19,2.76,2.76,0,0,0-.61-.42,2.42,2.42,0,0,1-.67-.46l-.07,0a4,4,0,0,0-1.72,0l-1.84.42a6.36,6.36,0,0,0-1.73,1.09l-.52.54,0-.05,0,.07c-.13.2-.24.35-.14.52s.21.05.37-.12l.52-.54a6,6,0,0,1,1.61-1l1.81-.41a3.92,3.92,0,0,1,1.59,0,3.28,3.28,0,0,0,.7.49,2.83,2.83,0,0,1,.59.38,2.12,2.12,0,0,1,.71,1.09l0,.06a3,3,0,0,1,.42.63,3.1,3.1,0,0,0,.46.65,1.41,1.41,0,0,0,.33.7l-.08.06-.28.19,0,0,0,.06a1.8,1.8,0,0,1-.18.25,1.74,1.74,0,0,0-.36.4l-.08.08c-.16.17-.28.3-.21.5s.08.12.14.11a.79.79,0,0,0,.25-.18l.06-.07a.43.43,0,0,1,0-.07l.32-.35a2.83,2.83,0,0,1,.94-.44l.26-.08-.1-.28.22-.06,0,0a1,1,0,0,1,.89-.06,2.35,2.35,0,0,0,.57.09,1,1,0,0,0,.95.15v-.51a.9.9,0,0,1-.82-.13Z" style="fill: #db161b"/>
    <path d="M190,259.22a1.5,1.5,0,0,0-.51-.92,3.38,3.38,0,0,0-1.06-.56l-.15-.05a3.15,3.15,0,0,1-1.16-.6,4.68,4.68,0,0,1-.7-.44l-.42-.29a3.14,3.14,0,0,0-.25-.36,1.35,1.35,0,0,1-.33-1c0-.18,0-.46,0-.71.05-.69.06-.92-.11-1s-.17,0-.24.24a2.6,2.6,0,0,1-1.1,1.33,3.21,3.21,0,0,1-1.59.36l-.27,0,0,.51.26,0a3,3,0,0,0,1.73-.42,2.6,2.6,0,0,0,1-1c0,.27,0,.55,0,.75a1.89,1.89,0,0,0,.42,1.3,3.87,3.87,0,0,1,.25.37l.06.05.43.3a3.53,3.53,0,0,0,.71.44,3,3,0,0,0,1.21.62l.14.06a2.85,2.85,0,0,1,1,.52,1.08,1.08,0,0,1,.39.71,3.88,3.88,0,0,0,.17.52,2.45,2.45,0,0,1-.44,1.52l0,.05,0,.07a6,6,0,0,1-.73,1.56l0,.06-.16.39a1.48,1.48,0,0,0-.2.93c.07.22.24.32.58.33a.84.84,0,0,0,.49,0,1.74,1.74,0,0,0,.38-.14c.11,0,.22-.09.36-.13l0-.5a2.15,2.15,0,0,0-.38.15.92.92,0,0,1-.73.08.68.68,0,0,1-.35-.08,2.51,2.51,0,0,1,.17-.46c0-.11.1-.24.15-.38a6.45,6.45,0,0,0,.78-1.66,3.29,3.29,0,0,0,.55-1.94v-.08l0-.07A5.08,5.08,0,0,1,190,259.22Z" style="fill: #db161b"/>
    <path d="M196.94,265.43l-.23-.33-.06-.05a3,3,0,0,1-1.12-.92l-.05,0a3,3,0,0,1-.43-.19,1.64,1.64,0,0,0-1.06-.2l-1.81.36-.05,0c-.51.35-1.62,1.06-1.93,1.21,0,.16.05.32.07.48.34-.16,1.45-.87,1.94-1.21l1.77-.35a1.41,1.41,0,0,1,.92.18l.42.19a3.12,3.12,0,0,0,1.16.94l.21.3a7,7,0,0,1,.76,1.24,7.67,7.67,0,0,1,.25,2,5.2,5.2,0,0,1-.12,1.07,5.27,5.27,0,0,0-.14.92,6.76,6.76,0,0,1-.73,2l0,.09c0,.15,0,.15-.13.21l.09.47a.72.72,0,0,0,.35-.52,7.13,7.13,0,0,0,.8-2.25,4.35,4.35,0,0,1,.13-.87,6.3,6.3,0,0,0,.14-1.22,8,8,0,0,0-.29-2.24A6.56,6.56,0,0,0,196.94,265.43Z" style="fill: #db161b"/>
    <path d="M207.17,278.35a2.57,2.57,0,0,0-.65-.81c-.34-.36-.71-.39-1.26-.09l-.06,0,0,.09a4.81,4.81,0,0,1-.6,1.1l-.41.49c-.16.18-.33.36-.48.56l-.25.22a1.8,1.8,0,0,1-.76.48,1.54,1.54,0,0,1-.93-.33l-.2-.16c-.21-.18-.39-.31-.6-.47a4.71,4.71,0,0,0-.67-.94,2.18,2.18,0,0,1-.42-.52l-.17-.24a5.63,5.63,0,0,1-.15-1.67,7.2,7.2,0,0,1,.09-1.1l0-.13c0-.12.08-.24.13-.37a4.56,4.56,0,0,1,.28-.74c.09-.23.19-.43.3-.65a4.51,4.51,0,0,0,.22-.44l.1-.09a.65.65,0,0,1,.21-.16l0,0,0-.49-.07,0a1.56,1.56,0,0,0-.71.68l-.21.31-.12.27c-.14.35-.28.72-.4,1.11v.08c0,.12,0,.25,0,.37a.2.2,0,0,0,0,.08,7.81,7.81,0,0,1-.39.9l-.21.44a1.7,1.7,0,0,0-.3.32.73.73,0,0,1-.5.32c-.59.11-.59.1-1-.37a3,3,0,0,1-.21-.45c-.11-.24-.17-.38-.3-.36v.32l-.1.16s.06.12.1.19a4,4,0,0,0,.25.52c.43.56.53.63,1.23.5h0a1.1,1.1,0,0,0,.69-.46,1.84,1.84,0,0,1,.28-.28l.05,0,0-.08.22-.48,0,0v.2a6.14,6.14,0,0,0,.19,1.91l0,.07.18.26a2.55,2.55,0,0,0,.46.56,4.59,4.59,0,0,1,.63.89l.05.06c.22.16.4.3.62.48l.22.18a1.77,1.77,0,0,0,1.09.36,2.09,2.09,0,0,0,.92-.55l.27-.25c.18-.22.34-.4.5-.57l.43-.5a5.15,5.15,0,0,0,.64-1.16c.4-.21.65-.18.9.09a2.28,2.28,0,0,1,.6.75l0,0,0,0a1.2,1.2,0,0,1,.25.2,1.84,1.84,0,0,0,.3.24l.15-.49a1.2,1.2,0,0,1-.25-.2A2.18,2.18,0,0,0,207.17,278.35Z" style="fill: #db161b"/>
    <path d="M212.85,283c-.06.12-.13.25-.19.39s-.27.48-.41.7a9.87,9.87,0,0,0-.48.89,7.34,7.34,0,0,0-.68.7c-.14.15-.27.3-.43.45l-.08.07a3.67,3.67,0,0,1-1.12.77l-.05,0a1.52,1.52,0,0,1-1.25.2h0a6.94,6.94,0,0,1-1.43.09,5.38,5.38,0,0,1-.68-.54l-.26-.22c0-.14-.09-.28-.14-.41a8.22,8.22,0,0,1-.39-1.46v-.17a13.44,13.44,0,0,1,.11-2.13,5.24,5.24,0,0,1,.23-1.05,5.89,5.89,0,0,0,.19-.7l.39-.42c.17-.19.38-.44.45-.49l-.13-.44a4.91,4.91,0,0,0-.51.54c-.16.17-.32.36-.43.46l-.06.06,0,.1a5.93,5.93,0,0,1-.19.73,5.19,5.19,0,0,0-.26,1.17,13.53,13.53,0,0,0-.12,2.23v.22a8.84,8.84,0,0,0,.43,1.61l.15.47,0,.06,0,0,.29.25a5.68,5.68,0,0,0,.76.58h0a6.66,6.66,0,0,0,1.48-.08,1.8,1.8,0,0,0,1.46-.25,4,4,0,0,0,1.19-.82l.1-.08.45-.48a6.29,6.29,0,0,1,.68-.69l0,0,0-.06a9.89,9.89,0,0,1,.48-.87l.2-.33,0,.14a4.46,4.46,0,0,0-.36,1.63,8.64,8.64,0,0,0-.13,2v.45c0,.13,0,.3,0,.48a8,8,0,0,0,.19,1.48v.45l.35-.05v-.51l0-.11a6.6,6.6,0,0,1-.17-1.37c0-.18,0-.36,0-.46v-.42a8.41,8.41,0,0,1,.11-1.88,4.14,4.14,0,0,1,.33-1.47l.12-.35c.08-.34.18-.67.28-1s.21-.68.29-1l-.32-.14A6.5,6.5,0,0,1,212.85,283Z" style="fill: #db161b"/>
    <path d="M239.2,310.43l-.37-.07c-.72-.15-1.2-.24-1.51-.76a2.49,2.49,0,0,1,0-2.12,5.09,5.09,0,0,0,.21-3.13,4.23,4.23,0,0,0-1.16-2.37,1.17,1.17,0,0,0-1.27-.39l-.72.1a8.2,8.2,0,0,0-2.25,1.75c-.23.24-.45.49-.66.74a9.37,9.37,0,0,1-.8.87,3.24,3.24,0,0,1-1.22.76,3.94,3.94,0,0,0,.57-1.72c.05-.26.09-.54.16-.81v-.08a4.09,4.09,0,0,1,.27-1.5,7.22,7.22,0,0,0,.28-1.17v-.1l0-.08c-.16-.35-.27-.67-.39-1a7.65,7.65,0,0,0-.52-1.25,9,9,0,0,0-.25-1,5.77,5.77,0,0,1-.29-1.5l-.31-.09a2,2,0,0,1-3,1l-.2-.12c.09-1,.19-1.39.8-1.87l-.12-.46a3,3,0,0,0-1.17,1.16,7.58,7.58,0,0,0-1.3,1.87,6,6,0,0,0-.49,2.1c0,.26-.06.51-.1.74l0,.11c-.12.77-.31,1.9-.48,2.63a2.25,2.25,0,0,1-1.4-.21c0-.18-.07-.46-.1-.73a5.83,5.83,0,0,0-.23-1.26v-.13c0-1.23,0-1.79-.59-2.51-.31-.45-.73-.46-1.25-.39l-.7.12a3.22,3.22,0,0,1-1.95-.63l0,0a.54.54,0,0,1-.4-.29,2.2,2.2,0,0,1,.13-1,3.65,3.65,0,0,1,1.41-1.8l.16-.16a3.46,3.46,0,0,1,1.76-1.05,1.41,1.41,0,0,1,1.13.67,5.59,5.59,0,0,0,.43.48l.06,0a1.87,1.87,0,0,0,2-.84l0-.12c.07-.47.12-.81.14-1h0v-.25h0c0-.18,0-.31-.16-.3s-.19.2-.22.45-.07.53-.14,1a1.59,1.59,0,0,1-1.6.59,3.2,3.2,0,0,1-.36-.41,1.71,1.71,0,0,0-1.33-.78h0a3.75,3.75,0,0,0-1.93,1.15l-.15.14a4.14,4.14,0,0,0-1.56,2,2.65,2.65,0,0,0-.13,1.42.79.79,0,0,0,.59.51,3.39,3.39,0,0,0,2.09.67l.4-.07c.6-.1,1-.18,1.32.22.5.6.5,1,.5,2.17v.27l0,.06a4.85,4.85,0,0,1,.21,1.14,6.92,6.92,0,0,0,.14.93l0,.09.07,0a2.49,2.49,0,0,0,1.72.25l.12,0,0-.16c.19-.75.4-2,.54-2.87l0-.11c0-.24.07-.5.1-.77a5.81,5.81,0,0,1,.42-1.85,7.38,7.38,0,0,1,1.23-1.78l.05-.07h0a8.65,8.65,0,0,0-.13,1l0,.19.12.06.31.17a2.09,2.09,0,0,0,1.61.31A2,2,0,0,0,229,296.3a7.81,7.81,0,0,0,.26,1.08,9.32,9.32,0,0,1,.24.95l0,.09a7.46,7.46,0,0,1,.51,1.21c.11.3.22.61.36.94a5,5,0,0,1-.23.94,4.92,4.92,0,0,0-.31,1.67c-.06.29-.11.57-.16.83a3,3,0,0,1-.52,1.53c-.19.32-.3.41-.8.5v.51a3.87,3.87,0,0,0,2.47-1.07,10.06,10.06,0,0,0,.84-.91c.22-.25.42-.49.65-.72a7.86,7.86,0,0,1,2.1-1.66l.38-.05c.62-.1,1.07-.16,1.33.24l0,0a3.74,3.74,0,0,1,1,2.11,4.39,4.39,0,0,1-.17,2.73,3.22,3.22,0,0,0,0,2.65c.41.7,1,.81,1.73,1l.39.08h0a5.75,5.75,0,0,0,1.88-.7l-.11-.46A5.43,5.43,0,0,1,239.2,310.43Z" style="fill: #db161b"/>
    <path d="M91.32,95.09c-4.1,4.54,10.78,46,33.2,94.89q7.39-7.48,14.8-14.73C116.91,125.5,95.4,90.61,91.32,95.09Z" style="fill: #fff;fill-rule: evenodd"/>
    <path d="M91.24,94.89a3,3,0,0,0-.63,1.45c-1.72,8.66,12.79,48.08,33.76,93.82l.08.18q7.56-7.65,15.12-15.05l-.09-.21C116.66,124.44,95.48,90.27,91.24,94.89Zm33.35,94.74c-20.53-44.85-35.31-84.91-33.65-93.28a2.14,2.14,0,0,1,.45-1,1.1,1.1,0,0,1,.38-.27c4.78-2,26,32.91,47.31,80.18Q131.83,182.31,124.59,189.63Z" style="fill: #db161b"/>
    <path d="M92.75,98.12c-3.27,3.62,11.63,43.1,33.25,90.37q5.92-6,11.84-11.79C116.21,128.79,96,94.55,92.75,98.12Z" style="fill: #fff;fill-rule: evenodd"/>
    <path d="M93,97.71a1,1,0,0,0-.32.23,2,2,0,0,0-.44,1c-1.4,7,13.06,44.74,33.63,89.71l.26-.32C105.94,144.16,91.18,105.77,92.53,99a1.36,1.36,0,0,1,.28-.65.6.6,0,0,1,.23-.16c1.77-.72,7.39,6.58,15.24,20.14,8.52,14.7,19,35.44,29.43,58.58l.27-.31C119.17,134.81,97.58,95.75,93,97.71Z" style="fill: #db161b"/>
    <path d="M117.88,170.8c2.47,5.61,5.42,11.77,8.12,17.69q5.92-6,11.84-11.79c-2.71-6-5.49-12.37-8.12-17.88Q123.79,164.73,117.88,170.8Z" style="fill: #fff;fill-rule: evenodd"/>
    <path d="M135.17,170.23c-1.76-3.93-3.58-8-5.3-11.6l-.08-.17q-6.07,6.07-12.15,12.31l.09.21c1.61,3.66,3.46,7.62,5.24,11.46,1,2.08,1.94,4.17,2.88,6.23l.08.17q6.07-6.12,12.16-12.1l-.09-.21C137.06,174.46,136.12,172.35,135.17,170.23Zm-9.1,17.9c-.91-2-1.85-4-2.79-6-1.75-3.77-3.56-7.65-5.15-11.25q5.76-5.91,11.52-11.67c1.7,3.57,3.49,7.56,5.22,11.42.91,2,1.82,4.09,2.73,6.09Q131.82,182.33,126.07,188.13Z" style="fill: #db161b"/>
    <path d="M119.84,170.32c2.46,5.62,4.46,9.71,7.17,15.62q4.44-4.45,8.87-8.83c-2.7-6-4.54-10.26-7.16-15.77Q124.28,165.8,119.84,170.32Z" style="fill: #fff;fill-rule: evenodd"/>
    <path d="M133.52,171.32c-1.5-3.35-2.92-6.52-4.65-10.16l-.08-.17q-4.6,4.6-9.2,9.3l.09.21c1.65,3.75,3.11,6.88,4.66,10.19.79,1.69,1.61,3.46,2.52,5.43l.08.18q4.59-4.62,9.19-9.16l-.1-.21Zm-6.44,14.27c-.87-1.9-1.67-3.62-2.44-5.26-1.52-3.25-3-6.33-4.56-10q4.29-4.36,8.57-8.66c1.7,3.57,3.09,6.68,4.56,10,.76,1.69,1.54,3.46,2.42,5.4Q131.36,181.29,127.08,185.59Z" style="fill: #db161b"/>
    <path d="M122.28,170.89q2.63,5.72,5.25,11.47,3-3,5.92-5.9-2.62-5.79-5.25-11.55Q125.23,167.88,122.28,170.89Z" style="fill: #fff"/>
    <path d="M121.78,170.83q2.81,6.1,5.61,12.24,3.29-3.28,6.56-6.54-2.8-6.18-5.61-12.32Q125.06,167.5,121.78,170.83Zm5.9,10.82q-2.46-5.35-4.9-10.7c1.76-1.79,3.51-3.56,5.27-5.33q2.46,5.37,4.9,10.77C131.19,178.13,129.44,179.89,127.68,181.65Z" style="fill: #db161b"/>
    <path d="M122.27,170.89q5.6,2.72,11.17,5.57" style="fill: #fff;fill-rule: evenodd"/>
    <path d="M122.19,171.15q5.58,2.72,11.17,5.56l.17-.5q-5.58-2.85-11.17-5.57Z" style="fill: #db161b"/>
    <path d="M127.53,182.36l.66-17.44" style="fill: #fff;fill-rule: evenodd"/>
    <path d="M127.36,182.41l.35-.09.66-17.45L128,165Z" style="fill: #db161b"/>
    <path d="M95.52,113.43q3-3.18,5.92-6.33" style="fill: #fff;fill-rule: evenodd"/>
    <path d="M95.44,113.23l.15.41,5.92-6.34-.14-.4Q98.4,110.05,95.44,113.23Z" style="fill: #db161b"/>
    <path d="M96.27,102.61c-.93,0-1.84,1.09-2,2.36s.37,2.26,1.29,2.23a2.65,2.65,0,0,0,2-2.35C97.77,103.59,97.19,102.58,96.27,102.61Z" style="fill: #db161b"/>
    <path d="M96.52,101c-1.48.06-3,1.84-3.32,4a4.48,4.48,0,0,0,.28,2.62,1.91,1.91,0,0,0,1.78,1.17,2.34,2.34,0,0,0,.72-.16,5,5,0,0,0,2.6-3.8,4.48,4.48,0,0,0-.28-2.62A1.91,1.91,0,0,0,96.52,101Zm-.75,4.59a.5.5,0,0,1-.48-.3.54.54,0,0,1-.05-.38,1,1,0,0,1,.55-.68.79.79,0,0,1,.22,0h0a.5.5,0,0,1,.48.3.54.54,0,0,1,.05.38A.9.9,0,0,1,95.77,105.61Z" style="fill: #db161b"/>
    <path d="M139.82,222.63c-2.27,2-65.47,23.37-65.47,38.3,0,12.69,52.06,5.28,67.67,1.7,20.82-6.17,31.24-21.85,31.24-49V145.82q-15.62,3.69-31.24,8.37C142,201.63,142.21,219.45,139.82,222.63Z" style="fill: #fff;fill-rule: evenodd"/>
    <path d="M141.86,164c0,39.36,0,55.64-2.14,58.52-.64.93-7.35,3.3-15.11,6.33-20.08,7.43-50.42,22.28-50.42,32.19,0,8,17.61,7.42,28.11,7,14-.77,31.44-2.76,39.72-5.18,20.84-6.18,31.4-22.09,31.4-49.3v-68q-15.78,3.72-31.56,8.45Zm31.24-17.87v67.54c0,13.43-2.61,24.23-7.76,32.22s-13,13.45-23.32,16.54c-14.68,3.29-67.51,11.11-67.51-1.53,0-9.5,31.37-24.71,50.11-31.59,9.58-3.7,14.61-5.46,15.29-6.48,2.29-3,2.29-18.25,2.27-58.93v-9.49Q157.65,149.74,173.1,146.09Z" style="fill: #db161b"/>
    <path d="M142,167.74v6.78a94.4,94.4,0,0,0,31.24-8.37v-6.78A94.4,94.4,0,0,1,142,167.74Z" style="fill: #fff;fill-rule: evenodd"/>
    <path d="M142,167.53l-.16,0v7.19H142A89.59,89.59,0,0,0,157.64,172a101.6,101.6,0,0,0,15.64-5.62l.12-.06v-7.18l-.16.07A94.63,94.63,0,0,1,142,167.53ZM173.12,166a94.6,94.6,0,0,1-31,8.29v-6.36a95.18,95.18,0,0,0,31-8.3Z" style="fill: #db161b"/>
    <path d="M142,154.19V161a94.62,94.62,0,0,0,31.24-8.36v-6.78A94.4,94.4,0,0,1,142,154.19Z" style="fill: #fff;fill-rule: evenodd"/>
    <path d="M142,154h-.16v7.19H142a88.64,88.64,0,0,0,15.64-2.75,101.65,101.65,0,0,0,15.64-5.63l.12,0v-7.19l-.16.07A94.65,94.65,0,0,1,142,154Zm31.08-1.53a94.62,94.62,0,0,1-31,8.3v-6.37a95.16,95.16,0,0,0,31-8.29Z" style="fill: #db161b"/>
    <path d="M142,161v6.78a94.4,94.4,0,0,0,31.24-8.37V152.6A94.62,94.62,0,0,1,142,161Z" style="fill: #fff;fill-rule: evenodd"/>
    <path d="M142,160.76h-.16V168H142a89.56,89.56,0,0,0,15.64-2.75,101.65,101.65,0,0,0,15.64-5.63l.12,0v-7.19l-.16.07A94.9,94.9,0,0,1,142,160.76Zm31.08-1.53a94.6,94.6,0,0,1-31,8.29v-6.36a95.18,95.18,0,0,0,31-8.3Z" style="fill: #db161b"/>
    <path d="M142,174.52v6.78a94.89,94.89,0,0,0,31.24-8.37v-6.78A94.4,94.4,0,0,1,142,174.52Z" style="fill: #fff;fill-rule: evenodd"/>
    <path d="M142,174.31l-.16,0v7.19H142a89.59,89.59,0,0,0,15.64-2.76,101.6,101.6,0,0,0,15.64-5.62l.12-.06v-7.19l-.16.08A94.87,94.87,0,0,1,142,174.31Zm31.08-1.52a94.84,94.84,0,0,1-31,8.29v-6.37a95.16,95.16,0,0,0,31-8.29Z" style="fill: #db161b"/>
    <path d="M143.44,162.93a2.1,2.1,0,0,0-1.42,1.89,1,1,0,0,0,1.42,1,2.07,2.07,0,0,0,1.42-1.88A1,1,0,0,0,143.44,162.93Z" style="fill: #fff"/>
    <path d="M143.44,156.09c-3.42,1-6.1,5.5-6.1,10.16s2.68,7.46,6.1,6.45,6.11-5.43,6.11-10.08S146.87,155.07,143.44,156.09Zm0,13.68c-1.77.53-3.26-1.48-3.26-4.4s1.49-5.83,3.26-6.36,3.27,1.51,3.27,4.42S145.21,169.25,143.44,169.77Z" style="fill: #db161b"/>
    <path d="M149.12,162a2.06,2.06,0,0,0-1.42,1.87,1.05,1.05,0,0,0,1.42,1.05,2,2,0,0,0,1.42-1.86A1,1,0,0,0,149.12,162Z" style="fill: #fff"/>
    <path d="M149.12,155.16c-3.42,1-6.1,5.43-6.1,10.09s2.68,7.5,6.1,6.52,6.11-5.35,6.11-10S152.55,154.19,149.12,155.16Zm0,13.69c-1.77.5-3.27-1.52-3.27-4.44s1.5-5.82,3.27-6.32,3.27,1.54,3.27,4.46S150.89,168.34,149.12,168.85Z" style="fill: #db161b"/>
    <path d="M154.8,161.15a2,2,0,0,0-1.42,1.85,1.07,1.07,0,0,0,1.42,1.08,2,2,0,0,0,1.42-1.85A1.06,1.06,0,0,0,154.8,161.15Z" style="fill: #fff"/>
    <path d="M154.8,154.31c-3.42.93-6.1,5.36-6.11,10s2.69,7.53,6.11,6.6,6.11-5.28,6.11-9.94S158.22,153.37,154.8,154.31Zm0,13.68c-1.77.49-3.26-1.56-3.26-4.47s1.49-5.8,3.26-6.29,3.27,1.58,3.27,4.5S156.57,167.51,154.8,168Z" style="fill: #db161b"/>
    <path d="M160.48,159.63a2,2,0,0,0-1.42,1.84,1.08,1.08,0,0,0,1.42,1.09,2,2,0,0,0,1.42-1.84A1.08,1.08,0,0,0,160.48,159.63Z" style="fill: #fff"/>
    <path d="M160.48,152.79c-3.42.89-6.11,5.28-6.11,9.94s2.69,7.56,6.11,6.67,6.1-5.21,6.1-9.87S163.9,151.89,160.48,152.79Zm0,13.68c-1.77.47-3.27-1.59-3.27-4.51s1.5-5.78,3.27-6.25,3.27,1.62,3.27,4.54S162.25,166,160.48,166.47Z" style="fill: #db161b"/>
    <path d="M166.16,157.45a2,2,0,0,0-1.42,1.82,1.08,1.08,0,0,0,1.42,1.1,2,2,0,0,0,1.42-1.82A1.09,1.09,0,0,0,166.16,157.45Z" style="fill: #fff"/>
    <path d="M166.16,150.6c-3.43.86-6.11,5.22-6.11,9.87s2.68,7.6,6.11,6.74,6.1-5.13,6.1-9.79S169.58,149.75,166.16,150.6Zm0,13.69c-1.77.44-3.27-1.64-3.27-4.55s1.5-5.77,3.27-6.21,3.26,1.65,3.26,4.57S167.93,163.85,166.16,164.29Z" style="fill: #db161b"/>
    <path d="M171.84,155.33a1.92,1.92,0,0,0-1.42,1.8,1.09,1.09,0,0,0,1.42,1.12,2,2,0,0,0,1.42-1.8A1.1,1.1,0,0,0,171.84,155.33Z" style="fill: #fff"/>
    <path d="M171.84,148.48c-3.43.82-6.11,5.15-6.11,9.8s2.68,7.63,6.11,6.81,6.1-5.07,6.1-9.72S175.26,147.66,171.84,148.48Zm0,13.69c-1.77.42-3.27-1.67-3.27-4.59s1.5-5.75,3.27-6.17,3.26,1.69,3.26,4.61S173.61,161.75,171.84,162.17Z" style="fill: #db161b"/>
    <path d="M142,188.08q15.63,13.6,31.24,28.23" style="fill: #fff;fill-rule: evenodd"/>
    <path d="M141.94,188.26q15.62,13.61,31.23,28.23l.18-.36q-15.63-14.61-31.24-28.24Z" style="fill: #db161b"/>
    <path d="M145.14,187.15q14.06,12.14,28.12,25.08" style="fill: #fff;fill-rule: evenodd"/>
    <path d="M145.06,187.33q14.06,12.13,28.11,25.08l.18-.36Q159.28,199.1,145.23,187Z" style="fill: #db161b"/>
    <path d="M149.31,187.29q12,10.14,23.95,20.88" style="fill: #fff;fill-rule: evenodd"/>
    <path d="M149.23,187.48q12,10.14,24,20.87l.17-.36q-12-10.74-23.95-20.88Z" style="fill: #db161b"/>
    <path d="M152.44,186.41q10.41,8.63,20.82,17.69" style="fill: #fff;fill-rule: evenodd"/>
    <path d="M152.35,186.6q10.43,8.63,20.83,17.69l.16-.37q-10.41-9.06-20.82-17.69Z" style="fill: #db161b"/>
    <path d="M155.56,185.55q8.85,7.09,17.7,14.49" style="fill: #fff;fill-rule: evenodd"/>
    <path d="M155.48,185.74q8.85,7.08,17.7,14.48l.16-.36q-8.85-7.41-17.7-14.49Z" style="fill: #db161b"/>
    <path d="M158.68,184.72Q166,190.24,173.26,196" style="fill: #fff;fill-rule: evenodd"/>
    <path d="M158.6,184.9q7.29,5.52,14.58,11.26l.16-.37q-7.29-5.73-14.58-11.26Z" style="fill: #db161b"/>
    <path d="M161.81,183.89q5.72,3.95,11.45,8" style="fill: #fff;fill-rule: evenodd"/>
    <path d="M161.73,184.09q5.73,3.93,11.45,8l.16-.38q-5.73-4.07-11.46-8Z" style="fill: #db161b"/>
    <path d="M164.92,183.1q4.17,3,8.34,6.1" style="fill: #fff;fill-rule: evenodd"/>
    <path d="M164.85,183.28q4.17,3,8.33,6.11l.16-.38q-4.17-3.07-8.34-6.1Z" style="fill: #db161b"/>
    <path d="M168.05,182.32c1.74,1.38,3.47,2.77,5.21,4.17" style="fill: #fff;fill-rule: evenodd"/>
    <path d="M168,182.5c1.74,1.38,3.47,2.77,5.21,4.17l.16-.37q-2.59-2.1-5.21-4.17Z" style="fill: #db161b"/>
    <path d="M171.17,181.56c.7.73,1.39,1.47,2.09,2.21" style="fill: #fff;fill-rule: evenodd"/>
    <path d="M171.08,181.73l2.09,2.22.18-.35-2.09-2.22Z" style="fill: #db161b"/>
    <path d="M142,192.14q15.63,13.61,31.24,28.23" style="fill: #fff;fill-rule: evenodd"/>
    <path d="M141.94,192.32q15.62,13.6,31.23,28.23l.18-.36Q157.72,205.58,142.11,192Z" style="fill: #db161b"/>
    <path d="M173.26,179.71q-17.17,24.39-34.36,50" style="fill: #fff;fill-rule: evenodd"/>
    <path d="M138.82,229.56l.17.26q17.17-25.6,34.36-50l-.18-.28Q156,204,138.82,229.56Z" style="fill: #db161b"/>
    <path d="M170.13,180.46Q155,201.73,139.94,223.94" style="fill: #fff;fill-rule: evenodd"/>
    <path d="M139.86,223.81l.17.26q15.09-22.22,30.19-43.47l-.17-.28Q154.95,201.61,139.86,223.81Z" style="fill: #db161b"/>
    <path d="M166,182.83q-12,16.56-23.95,33.7" style="fill: #fff;fill-rule: evenodd"/>
    <path d="M141.94,216.4l.17.27q12-17.14,23.95-33.7l-.17-.28Q153.92,199.25,141.94,216.4Z" style="fill: #db161b"/>
    <path d="M162.84,183.63Q152.43,197.82,142,212.47" style="fill: #fff;fill-rule: evenodd"/>
    <path d="M141.94,212.34l.17.27q10.41-14.66,20.82-28.84l-.17-.28Q152.35,197.68,141.94,212.34Z" style="fill: #db161b"/>
    <path d="M159.73,184.44q-8.86,11.82-17.71,24" style="fill: #fff;fill-rule: evenodd"/>
    <path d="M141.94,208.27l.16.28q8.86-12.15,17.71-24l-.17-.28Q150.79,196.12,141.94,208.27Z" style="fill: #db161b"/>
    <path d="M156.6,185.27q-7.29,9.43-14.58,19.07" style="fill: #fff;fill-rule: evenodd"/>
    <path d="M141.94,204.2l.16.29q7.29-9.65,14.58-19.07l-.16-.29Q149.23,194.55,141.94,204.2Z" style="fill: #db161b"/>
    <path d="M153.48,186.12q-5.73,7-11.46,14.15" style="fill: #fff;fill-rule: evenodd"/>
    <path d="M142,200.12l.15.29q5.73-7.14,11.45-14.14l-.15-.3Q147.67,193,142,200.12Z" style="fill: #db161b"/>
    <path d="M150.35,187q-4.17,5.25-8.33,10.57" style="fill: #fff;fill-rule: evenodd"/>
    <path d="M142,197.42l.15.29q4.17-5.33,8.33-10.57l-.16-.29Q146.12,192.1,142,197.42Z" style="fill: #db161b"/>
    <path d="M147.23,187.89l-5.21,7" style="fill: #fff;fill-rule: evenodd"/>
    <path d="M141.94,194.71l.16.28,5.21-7-.16-.28Q144.54,191.22,141.94,194.71Z" style="fill: #db161b"/>
    <path d="M144.1,188.81c-.69,1.1-1.38,2.22-2.08,3.33" style="fill: #fff;fill-rule: evenodd"/>
    <path d="M141.93,192l.19.24,2.07-3.33-.18-.25C143.32,189.79,142.62,190.9,141.93,192Z" style="fill: #db161b"/>
    <path d="M173.26,183.77q-17.17,24.39-34.36,50" style="fill: #fff;fill-rule: evenodd"/>
    <path d="M138.82,233.62l.17.26q17.17-25.6,34.36-50l-.18-.27Q156,208,138.82,233.62Z" style="fill: #db161b"/>
    <path d="M173.26,187.84q-17.17,24.38-34.36,50" style="fill: #fff;fill-rule: evenodd"/>
    <path d="M138.82,237.68l.17.26q17.17-25.59,34.36-50l-.18-.27Q156,212.09,138.82,237.68Z" style="fill: #db161b"/>
    <path d="M173.26,191.9q-17.17,24.39-34.36,50" style="fill: #fff;fill-rule: evenodd"/>
    <path d="M138.82,241.76l.17.26q17.17-25.61,34.36-50l-.18-.28Q156,216.17,138.82,241.76Z" style="fill: #db161b"/>
    <path d="M173.26,196q-17.17,24.39-34.36,50" style="fill: #fff;fill-rule: evenodd"/>
    <path d="M138.82,245.82l.17.27q17.17-25.6,34.36-50l-.18-.27Q156,220.23,138.82,245.82Z" style="fill: #db161b"/>
    <path d="M173.26,200q-17.17,24.39-34.36,50" style="fill: #fff;fill-rule: evenodd"/>
    <path d="M138.82,249.89l.17.26q17.17-25.6,34.36-50l-.18-.28Q156,224.29,138.82,249.89Z" style="fill: #db161b"/>
    <path d="M173.26,204.1q-17.17,24.39-34.36,50" style="fill: #fff;fill-rule: evenodd"/>
    <path d="M138.82,254l.17.26q17.17-25.61,34.36-50l-.18-.27Q156,228.36,138.82,254Z" style="fill: #db161b"/>
    <path d="M173.26,208.17q-17.17,24.39-34.36,50" style="fill: #fff;fill-rule: evenodd"/>
    <path d="M138.82,258l.17.26q17.17-25.6,34.36-50l-.18-.27Q156,232.42,138.82,258Z" style="fill: #db161b"/>
    <path d="M173.26,212.25q-17.17,24.38-34.36,50" style="fill: #fff;fill-rule: evenodd"/>
    <path d="M138.82,262.09l.17.27q17.17-25.61,34.36-50l-.18-.27Q156,236.5,138.82,262.09Z" style="fill: #db161b"/>
    <path d="M173.26,216.31Q157.12,239.1,141,262.94" style="fill: #fff;fill-rule: evenodd"/>
    <path d="M140.9,262.81l.17.26q16.14-23.85,32.28-46.62l-.18-.28Q157,239,140.9,262.81Z" style="fill: #db161b"/>
    <path d="M173.26,220.37Q158.68,240.76,144.1,262" style="fill: #fff;fill-rule: evenodd"/>
    <path d="M144,261.87l.17.27q14.58-21.25,29.16-41.63l-.18-.28Q158.59,240.63,144,261.87Z" style="fill: #db161b"/>
    <path d="M172.21,226.05q-11.44,16.27-22.9,33.09" style="fill: #fff;fill-rule: evenodd"/>
    <path d="M149.22,259l.18.27q11.44-16.81,22.9-33.09l-.18-.28Q160.68,242.2,149.22,259Z" style="fill: #db161b"/>
    <path d="M171.17,231.71q-9.36,13.1-18.73,26.55" style="fill: #fff;fill-rule: evenodd"/>
    <path d="M152.35,258.13l.17.27q9.38-13.45,18.74-26.55l-.18-.28Q161.72,244.68,152.35,258.13Z" style="fill: #db161b"/>
    <path d="M169.09,239q-4.68,6.57-9.36,13.22" style="fill: #fff;fill-rule: evenodd"/>
    <path d="M159.64,252.08l.17.27q4.68-6.66,9.37-13.22l-.17-.28Q164.32,245.42,159.64,252.08Z" style="fill: #db161b"/>
    <path d="M142,196.2q15.1,13.1,30.19,27.14" style="fill: #fff;fill-rule: evenodd"/>
    <path d="M141.94,196.39q15.09,13.08,30.18,27.13l.18-.36q-15.11-14-30.19-27.14Z" style="fill: #db161b"/>
    <path d="M142,200.27q15.1,13.08,30.19,27.13" style="fill: #fff;fill-rule: evenodd"/>
    <path d="M141.94,200.45q15.09,13.1,30.18,27.13l.18-.36q-15.11-14-30.19-27.14Z" style="fill: #db161b"/>
    <path d="M142,204.34q14.58,12.57,29.15,26" style="fill: #fff;fill-rule: evenodd"/>
    <path d="M141.94,204.53q14.56,12.56,29.14,26l.18-.36q-14.58-13.44-29.15-26Z" style="fill: #db161b"/>
    <path d="M142,208.41q14.58,12.57,29.15,26" style="fill: #fff;fill-rule: evenodd"/>
    <path d="M141.94,208.59q14.56,12.57,29.14,26l.18-.35q-14.58-13.45-29.15-26Z" style="fill: #db161b"/>
    <path d="M142,212.47q14.05,12,28.11,24.92" style="fill: #fff;fill-rule: evenodd"/>
    <path d="M141.94,212.66q14.06,12,28.11,24.91l.17-.36q-14.06-12.87-28.11-24.92Z" style="fill: #db161b"/>
    <path d="M141,215.5q14.06,12,28.11,24.86" style="fill: #fff;fill-rule: evenodd"/>
    <path d="M140.9,215.68Q155,227.7,169,240.54l.17-.36q-14.06-12.84-28.11-24.87Z" style="fill: #db161b"/>
    <path d="M141,219.56q13,11,26,22.66" style="fill: #fff;fill-rule: evenodd"/>
    <path d="M140.9,219.75q13,11,26,22.65l.17-.36q-13-11.68-26-22.66Z" style="fill: #db161b"/>
    <path d="M139.94,222.59q13,10.95,26,22.6" style="fill: #fff;fill-rule: evenodd"/>
    <path d="M139.86,222.78q13,10.93,26,22.59l.17-.36q-13-11.65-26-22.6Z" style="fill: #db161b"/>
    <path d="M138.9,225.62q12.49,10.4,25,21.45" style="fill: #fff;fill-rule: evenodd"/>
    <path d="M138.82,225.81q12.5,10.4,25,21.44l.17-.36q-12.5-11.05-25-21.45Z" style="fill: #db161b"/>
    <path d="M138.9,229.69q12,9.87,23.94,20.36" style="fill: #fff;fill-rule: evenodd"/>
    <path d="M138.82,229.87q12,9.88,23.94,20.36l.17-.36Q151,239.39,139,229.5Z" style="fill: #db161b"/>
    <path d="M138.9,233.75q10.42,9,20.83,18.46" style="fill: #fff;fill-rule: evenodd"/>
    <path d="M138.82,233.94q10.41,9,20.82,18.45l.17-.36Q149.4,242.57,139,233.56Z" style="fill: #db161b"/>
    <path d="M142,181.3v6.78a94.89,94.89,0,0,0,31.24-8.37v-6.78A94.89,94.89,0,0,1,142,181.3Z" style="fill: #fff;fill-rule: evenodd"/>
    <path d="M142,181.09l-.16,0v7.18H142a89.56,89.56,0,0,0,15.64-2.75,102.66,102.66,0,0,0,15.64-5.62l.12-.06v-7.19l-.16.08A95.12,95.12,0,0,1,142,181.09Zm31.08-1.52a95.09,95.09,0,0,1-31,8.29v-6.37a95.41,95.41,0,0,0,31-8.29Z" style="fill: #db161b"/>
    <path d="M138.9,237.81q9.38,8,18.74,16.32" style="fill: #fff;fill-rule: evenodd"/>
    <path d="M138.82,238q9.36,8,18.73,16.31l.17-.36q-9.36-8.34-18.73-16.32Z" style="fill: #db161b"/>
    <path d="M138.9,241.89q8.34,6.93,16.66,14.15" style="fill: #fff;fill-rule: evenodd"/>
    <path d="M138.82,242.08q8.33,6.93,16.65,14.14l.17-.36q-8.32-7.23-16.65-14.15Z" style="fill: #db161b"/>
    <path d="M138.9,246q7.29,5.89,14.58,12" style="fill: #fff;fill-rule: evenodd"/>
    <path d="M138.82,246.14q7.29,5.9,14.57,12l.17-.37q-7.29-6.12-14.57-12Z" style="fill: #db161b"/>
    <path d="M138.9,250q5.21,4.5,10.41,9.12" style="fill: #fff;fill-rule: evenodd"/>
    <path d="M138.82,250.2q5.2,4.52,10.4,9.13l.18-.37q-5.21-4.62-10.41-9.12Z" style="fill: #db161b"/>
    <path d="M138.9,254.08q4.17,3.46,8.33,7" style="fill: #fff;fill-rule: evenodd"/>
    <path d="M138.82,254.27q4.16,3.46,8.33,7l.17-.37q-4.17-3.54-8.33-7Z" style="fill: #db161b"/>
    <path d="M138.9,258.15q2.61,1.91,5.2,3.86" style="fill: #fff;fill-rule: evenodd"/>
    <path d="M138.82,258.34q2.61,1.91,5.2,3.86l.16-.38q-2.6-1.95-5.19-3.86Z" style="fill: #db161b"/>
    <path d="M143.44,183.26a2.11,2.11,0,0,0-1.42,1.89,1,1,0,0,0,1.42,1,2.1,2.1,0,0,0,1.42-1.89A1,1,0,0,0,143.44,183.26Z" style="fill: #fff"/>
    <path d="M143.44,176.42c-3.42,1-6.1,5.5-6.1,10.16s2.68,7.47,6.1,6.45,6.11-5.42,6.11-10.08S146.87,175.4,143.44,176.42Zm0,13.69c-1.77.52-3.26-1.49-3.26-4.4s1.49-5.84,3.26-6.37,3.27,1.51,3.27,4.42S145.21,189.58,143.44,190.11Z" style="fill: #db161b"/>
    <path d="M149.12,182.34a2.06,2.06,0,0,0-1.42,1.87,1,1,0,0,0,1.42,1,2,2,0,0,0,1.42-1.86A1,1,0,0,0,149.12,182.34Z" style="fill: #fff"/>
    <path d="M149.12,175.5c-3.42,1-6.1,5.43-6.1,10.08s2.68,7.5,6.1,6.53,6.11-5.35,6.11-10S152.55,174.52,149.12,175.5Zm0,13.68c-1.77.51-3.27-1.52-3.27-4.43s1.5-5.82,3.27-6.33,3.27,1.54,3.27,4.46S150.89,188.68,149.12,189.18Z" style="fill: #db161b"/>
    <path d="M154.8,181.48a2,2,0,0,0-1.42,1.86,1.07,1.07,0,0,0,1.42,1.07,2,2,0,0,0,1.42-1.85A1.06,1.06,0,0,0,154.8,181.48Z" style="fill: #fff"/>
    <path d="M154.8,174.64c-3.42.94-6.1,5.36-6.11,10s2.69,7.53,6.11,6.59,6.11-5.28,6.11-9.94S158.22,173.7,154.8,174.64Zm0,13.69c-1.77.48-3.26-1.56-3.26-4.48s1.49-5.8,3.26-6.29,3.27,1.59,3.27,4.5S156.57,187.84,154.8,188.33Z" style="fill: #db161b"/>
    <path d="M160.48,180a2,2,0,0,0-1.42,1.84,1.08,1.08,0,0,0,1.42,1.09,2,2,0,0,0,1.42-1.83A1.08,1.08,0,0,0,160.48,180Z" style="fill: #fff"/>
    <path d="M160.48,173.12c-3.42.9-6.11,5.29-6.11,9.94s2.69,7.57,6.11,6.67,6.1-5.21,6.1-9.86S163.9,172.22,160.48,173.12Zm0,13.69c-1.77.46-3.27-1.6-3.27-4.52s1.5-5.78,3.27-6.25,3.27,1.62,3.27,4.54S162.25,186.34,160.48,186.81Z" style="fill: #db161b"/>
    <path d="M166.16,177.78a2,2,0,0,0-1.42,1.82,1.08,1.08,0,0,0,1.42,1.1,2,2,0,0,0,1.42-1.81A1.09,1.09,0,0,0,166.16,177.78Z" style="fill: #fff"/>
    <path d="M166.16,170.94c-3.43.85-6.11,5.21-6.11,9.87s2.68,7.59,6.11,6.74,6.1-5.14,6.1-9.8S169.58,170.08,166.16,170.94Zm0,13.68c-1.77.44-3.27-1.63-3.27-4.55s1.5-5.77,3.27-6.21,3.26,1.66,3.26,4.57S167.93,184.18,166.16,184.62Z" style="fill: #db161b"/>
    <path d="M171.84,175.66a1.93,1.93,0,0,0-1.42,1.8,1.09,1.09,0,0,0,1.42,1.12,1.94,1.94,0,0,0,1.42-1.8A1.1,1.1,0,0,0,171.84,175.66Z" style="fill: #fff"/>
    <path d="M171.84,168.82c-3.43.81-6.11,5.14-6.11,9.8s2.68,7.62,6.11,6.81,6.1-5.07,6.1-9.73S175.26,168,171.84,168.82Zm0,13.68c-1.77.42-3.27-1.67-3.27-4.59s1.5-5.75,3.27-6.17,3.26,1.69,3.26,4.61S173.61,182.08,171.84,182.5Z" style="fill: #db161b"/>
    <path d="M97.26,267.42Q116,245.7,134.74,225.56" style="fill: #fff;fill-rule: evenodd"/>
    <path d="M97.19,267.27l.13.31q18.74-21.73,37.48-41.86l-.13-.32Q115.94,245.56,97.19,267.27Z" style="fill: #db161b"/>
    <path d="M95.17,266.9q17.7-20.71,35.4-40" style="fill: #fff;fill-rule: evenodd"/>
    <path d="M95.11,266.74l.13.31q17.7-20.72,35.39-40l-.13-.32Q112.8,246.05,95.11,266.74Z" style="fill: #db161b"/>
    <path d="M94.13,264.62q16.14-18.78,32.28-36.36" style="fill: #fff;fill-rule: evenodd"/>
    <path d="M94.07,264.47l.13.3q16.14-18.76,32.27-36.35l-.12-.32Q110.21,245.71,94.07,264.47Z" style="fill: #db161b"/>
    <path d="M93.09,262.33q14.05-16.6,28.11-32.3" style="fill: #fff;fill-rule: evenodd"/>
    <path d="M93,262.18l.13.3q14.06-16.59,28.11-32.29l-.13-.32Q107.09,245.58,93,262.18Z" style="fill: #db161b"/>
    <path d="M91,260.48q13-14.9,26-29" style="fill: #fff;fill-rule: evenodd"/>
    <path d="M91,260.32l.12.31q13-14.88,26-29l-.12-.32Q104,245.45,91,260.32Z" style="fill: #db161b"/>
    <path d="M92.05,256q8.85-10.42,17.7-20.48" style="fill: #fff;fill-rule: evenodd"/>
    <path d="M92,255.83l.13.3q8.84-10.41,17.69-20.47l-.13-.31Q100.83,245.4,92,255.83Z" style="fill: #db161b"/>
    <path d="M91,253.7q6.76-8.23,13.53-16.24" style="fill: #fff;fill-rule: evenodd"/>
    <path d="M90.94,253.55l.14.3q6.77-8.22,13.53-16.23l-.13-.31Q97.72,245.32,90.94,253.55Z" style="fill: #db161b"/>
    <path d="M91,249.63q4.68-5.32,9.37-10.55" style="fill: #fff;fill-rule: evenodd"/>
    <path d="M91,249.48l.12.31q4.68-5.32,9.37-10.56l-.12-.31Q95.63,244.16,91,249.48Z" style="fill: #db161b"/>
    <path d="M100.38,267.54q17.7-20.51,35.4-39.6" style="fill: #fff;fill-rule: evenodd"/>
    <path d="M100.31,267.38l.13.31q17.7-20.5,35.4-39.59l-.13-.32Q118,246.89,100.31,267.38Z" style="fill: #db161b"/>
    <path d="M103.5,267.69q16.66-19.31,33.32-37.36" style="fill: #fff;fill-rule: evenodd"/>
    <path d="M103.44,267.53l.13.31q16.65-19.29,33.31-37.35l-.13-.32Q120.1,248.25,103.44,267.53Z" style="fill: #db161b"/>
    <path d="M106.63,267.84q15.62-18.1,31.22-35.12" style="fill: #fff;fill-rule: evenodd"/>
    <path d="M106.56,267.69l.13.31q15.61-18.1,31.23-35.12l-.13-.31Q122.18,249.59,106.56,267.69Z" style="fill: #db161b"/>
    <path d="M109.75,268q13-15,26-29.24" style="fill: #fff;fill-rule: evenodd"/>
    <path d="M109.68,267.87l.13.31q13-15,26-29.24l-.13-.31Q122.69,252.88,109.68,267.87Z" style="fill: #db161b"/>
    <path d="M113.91,266.5q11.46-13,22.91-25.33" style="fill: #fff;fill-rule: evenodd"/>
    <path d="M113.85,266.34l.13.31q11.44-12.94,22.9-25.32l-.13-.32Q125.31,253.4,113.85,266.34Z" style="fill: #db161b"/>
    <path d="M117,266.74q9.9-11,19.79-21.5" style="fill: #fff;fill-rule: evenodd"/>
    <path d="M117,266.59l.13.31q9.89-11,19.78-21.5l-.13-.32Q126.87,255.61,117,266.59Z" style="fill: #db161b"/>
    <path d="M120.16,267q7.82-8.81,15.62-17.35" style="fill: #fff;fill-rule: evenodd"/>
    <path d="M120.1,266.84l.13.31q7.8-8.81,15.61-17.35l-.13-.32Q127.91,258,120.1,266.84Z" style="fill: #db161b"/>
    <path d="M124.32,265.57q6.26-6.87,12.5-13.56" style="fill: #fff;fill-rule: evenodd"/>
    <path d="M124.26,265.41l.12.31q6.26-6.86,12.5-13.55l-.13-.32Q130.51,258.56,124.26,265.41Z" style="fill: #db161b"/>
    <path d="M128.49,265.54c2.77-3.18,5.55-6.32,8.33-9.45" style="fill: #fff;fill-rule: evenodd"/>
    <path d="M128.42,265.38l.14.31q4.16-4.76,8.32-9.44l-.13-.31Q132.58,260.62,128.42,265.38Z" style="fill: #db161b"/>
    <path d="M132.66,264.18c1.73-1.91,3.46-3.82,5.19-5.71" style="fill: #fff;fill-rule: evenodd"/>
    <path d="M132.59,264l.13.31,5.2-5.71-.13-.32C136.06,260.21,134.32,262.11,132.59,264Z" style="fill: #db161b"/>
    <path d="M134.74,224.21a158.94,158.94,0,0,0,0,40.66c1.73-.55,3.47-1.09,5.2-1.61a159,159,0,0,1,0-40.67C138.21,223.12,136.47,223.66,134.74,224.21Z" style="fill: #fff;fill-rule: evenodd"/>
    <path d="M140.11,222.34q-2.75.82-5.49,1.7l0,.17a160.48,160.48,0,0,0,0,40.74l0,.16q2.74-.87,5.49-1.7l0-.23a159.31,159.31,0,0,1,0-40.59Zm-.33,40.76-4.93,1.53a160.42,160.42,0,0,1,0-40.26c1.64-.52,3.29-1,4.93-1.53A159.49,159.49,0,0,0,139.78,263.1Z" style="fill: #db161b"/>
    <path d="M78.52,264.49q6.24-9.56,12.49-18.92" style="fill: #fff;fill-rule: evenodd"/>
    <path d="M78.43,264.36l.17.25q6.24-9.54,12.49-18.91l-.16-.26Q84.68,254.82,78.43,264.36Z" style="fill: #db161b"/>
    <path d="M78.52,255q6.24,5.36,12.49,10.9" style="fill: #fff;fill-rule: evenodd"/>
    <path d="M78.42,255.19q6.26,5.35,12.5,10.9l.18-.38q-6.24-5.54-12.49-10.91Z" style="fill: #db161b"/>
    <path d="M91,244.21a71.76,71.76,0,0,0,0,24.39q3.12.06,6.25.17a97.56,97.56,0,0,1,0-28.46C95.17,241.6,93.09,242.89,91,244.21Z" style="fill: #fff;fill-rule: evenodd"/>
    <path d="M97.35,240.31l0-.22q-3.19,2-6.39,4l-.07,0,0,.1a72.75,72.75,0,0,0,0,24.47l0,.07q3.15.06,6.3.17h.16l0-.23A97.08,97.08,0,0,1,97.35,240.31Zm-6.26,28.14a71.9,71.9,0,0,1,0-24.15q3-1.91,6-3.76a97.43,97.43,0,0,0,0,28.08Q94.1,268.52,91.09,268.45Z" style="fill: #db161b"/>
    <path d="M165.42,135.48q-7.8,2-15.6,4.23a11.54,11.54,0,0,1-7.8,10.41v6.78q15.6-4.69,31.2-8.36v-6.83C168.55,142.87,165.42,139.6,165.42,135.48Z" style="fill: #fff;fill-rule: evenodd"/>
    <path d="M173.12,141.48a5.84,5.84,0,0,1-6.07-1.76,6.69,6.69,0,0,1-1.46-4.29v-.25q-7.89,2-15.77,4.28l-.17,0v.24A11.23,11.23,0,0,1,142,149.87l-.17,0v7.28q15.77-4.74,31.54-8.45v-7.33l-.17,0Zm-.07,6.85q-15.44,3.64-30.86,8.27v-6.29a11.88,11.88,0,0,0,7.8-10.4q7.63-2.19,15.26-4.14a7.11,7.11,0,0,0,1.56,4.36,6.08,6.08,0,0,0,6.24,1.87Z" style="fill: #db161b"/>
    <path d="M150.94,139.39q6.67-1.87,13.37-3.58v-8.13q-6.69,1.69-13.37,3.58Z" style="fill: #fff"/>
    <path d="M150.79,139.64q6.84-1.92,13.66-3.66v-8.55q-6.82,1.74-13.66,3.66Zm.29-8.21q6.54-1.85,13.09-3.5v7.71q-6.55,1.67-13.09,3.5Z" style="fill: #db161b"/>
    <path d="M152.05,131q5.56-1.56,11.14-3v-8.13q-5.56,1.42-11.14,3Z" style="fill: #fff"/>
    <path d="M151.91,131.2q5.72-1.6,11.43-3.06v-8.55q-5.72,1.45-11.43,3.06Zm.28-8.22q5.43-1.5,10.86-2.9v7.71q-5.43,1.39-10.86,2.91Z" style="fill: #db161b"/>
    <path d="M152.05,122.81q5.56-1.55,11.14-3V111.7q-5.56,1.42-11.14,3Z" style="fill: #fff"/>
    <path d="M151.91,123.06q5.72-1.59,11.43-3.06v-8.55q-5.72,1.47-11.43,3.06Zm.28-8.21q5.43-1.51,10.86-2.9v7.71q-5.43,1.4-10.86,2.91Z" style="fill: #db161b"/>
    <path d="M153.16,114.37c3-.82,6-1.62,8.92-2.38V101.14c-3,.77-6,1.57-8.92,2.39Z" style="fill: #fff"/>
    <path d="M153,114.62c3.07-.85,6.13-1.67,9.2-2.46V100.9c-3.07.79-6.13,1.61-9.2,2.46Zm.29-10.92c2.87-.8,5.75-1.57,8.62-2.31v10.42c-2.87.75-5.75,1.52-8.62,2.31Z" style="fill: #db161b"/>
    <path d="M152.79,103.63q4.83-1.34,9.68-2.59V91.55q-4.84,1.24-9.68,2.59Z" style="fill: #fff"/>
    <path d="M152.64,103.89q5-1.38,10-2.67V91.3q-5,1.28-10,2.67Zm.29-9.57c3.13-.87,6.26-1.7,9.39-2.51v9q-4.69,1.22-9.39,2.51Z" style="fill: #db161b"/>
    <path d="M158.16,71c-7.13,1.9-12.91,9.39-12.91,16.5s5.78,11.16,12.91,9.26,12.91-9,12.91-16.15S165.29,69.09,158.16,71Z" style="fill: #fff"/>
    <path d="M158.16,69.46c-7.7,2.05-14,10.39-14,18.33s6.26,12.54,14,10.49,14-10,14-17.93S165.86,67.41,158.16,69.46Zm0,25.75c-6.54,1.74-11.86-1.77-11.86-8s5.32-12.91,11.86-14.65S170,74.6,170,80.85,164.7,93.47,158.16,95.21Z" style="fill: #db161b"/>
    <path d="M158.16,71a19.91,19.91,0,0,0-9.68,6.75S151.7,81.4,151.7,85s-3.22,10.4-3.22,10.4c1.68,2.61,6.12,2.33,9.68,1.39a20.24,20.24,0,0,0,9.68-6.55s-3.22-5.13-3.22-8.69,3.22-8.94,3.22-8.94A11.71,11.71,0,0,0,158.16,71Z" style="fill: #fff;fill-rule: evenodd"/>
    <path d="M168.06,72.49l-.14-.11a11.76,11.76,0,0,0-9.76-1.59,19.84,19.84,0,0,0-9.76,6.8l-.14.18.12.14s3.18,3.66,3.18,7.09-3.16,10.19-3.19,10.26l-.07.15.07.11c2.08,3.23,8,1.9,9.79,1.44a20.33,20.33,0,0,0,9.76-6.61l.13-.16L168,90c0-.05-3.19-5.12-3.19-8.56s3.15-8.73,3.18-8.78Zm-3.58,9.06c0,3.28,2.61,7.75,3.16,8.65a19.9,19.9,0,0,1-9.48,6.34c-1.72.45-7.43,1.74-9.5-1.24.49-1,3.19-7,3.19-10.38s-2.55-6.5-3.15-7.22a19.52,19.52,0,0,1,9.46-6.5,11.65,11.65,0,0,1,9.46,1.46C167,73.7,164.48,78.31,164.48,81.55Z" style="fill: #db161b"/>
    <path d="M158.16,71c-3.56,1-5.2,1.79-7.53,4.78,0,0,3.23,5,3.23,8.59s-3.23,11.74-3.23,11.74c1.68,2.63,4,1.6,7.53.65s5.2-1.74,7.53-4.66c0,0-3.22-6.47-3.22-10s3.22-10.31,3.22-10.31C163.36,70,161.72,70.05,158.16,71Z" style="fill: #fff;fill-rule: evenodd"/>
    <path d="M165.89,71.66l-.12-.09c-2.33-1.75-4-1.74-7.61-.78s-5.27,1.85-7.61,4.83l-.12.16.09.15s3.2,5,3.2,8.47S150.55,95.94,150.51,96l0,.14.06.1c1.38,2.16,3.13,1.93,5.64,1.25l.93-.26c.35-.1.7-.2,1.07-.29,3.59-1,5.28-1.8,7.61-4.72l.11-.14-.07-.15c0-.07-3.2-6.47-3.2-9.92s3.16-10.11,3.19-10.18ZM162.33,82.1c0,3.31,2.67,9,3.17,10-2.23,2.75-3.82,3.53-7.34,4.46l-1.07.3c-2.9.8-4.83,1.37-6.28-.8.44-1.14,3.19-8.36,3.19-11.72s-2.62-7.69-3.16-8.56c2.22-2.8,3.81-3.62,7.32-4.56s5.1-1,7.33.65C164.94,73,162.33,78.81,162.33,82.1Z" style="fill: #db161b"/>
    <path d="M145.25,84.1c-1.78.52-3.23,2.78-3.23,5s1.45,3.63,3.23,3.11,3.23-2.76,3.23-5S147,83.57,145.25,84.1Z" style="fill: #fff"/>
    <path d="M145.25,82.57c-2.36.69-4.28,3.78-4.28,6.87s1.92,5,4.28,4.32,4.28-3.74,4.28-6.83S147.61,81.87,145.25,82.57Zm0,8.13c-1.2.35-2.18-.49-2.18-1.89a3.42,3.42,0,0,1,2.18-3.18c1.2-.35,2.18.5,2.18,1.9A3.41,3.41,0,0,1,145.25,90.7Z" style="fill: #db161b"/>
    <path d="M171.07,77.21c-1.78.43-3.23,2.61-3.23,4.85s1.45,3.71,3.23,3.29,3.23-2.59,3.23-4.84S172.85,76.78,171.07,77.21Z" style="fill: #fff"/>
    <path d="M171.07,75.68c-2.36.57-4.28,3.56-4.28,6.65s1.92,5.11,4.28,4.55,4.28-3.52,4.28-6.61S173.43,75.11,171.07,75.68Zm0,8.13c-1.2.29-2.18-.61-2.18-2a3.19,3.19,0,0,1,2.18-3.06c1.2-.29,2.18.61,2.18,2A3.19,3.19,0,0,1,171.07,83.81Z" style="fill: #db161b"/>
    <path d="M158.16,80.48c-1.78.48-3.23,2.7-3.23,4.94s1.45,3.67,3.23,3.2,3.23-2.67,3.23-4.92S159.94,80,158.16,80.48Z" style="fill: #fff"/>
    <path d="M158.16,79c-2.36.63-4.28,3.67-4.28,6.76s1.92,5.07,4.28,4.44,4.28-3.63,4.28-6.72S160.52,78.32,158.16,79Zm0,8.13c-1.2.32-2.18-.55-2.18-1.94A3.31,3.31,0,0,1,158.16,82c1.2-.32,2.18.56,2.18,2A3.29,3.29,0,0,1,158.16,87.08Z" style="fill: #db161b"/>
    <path d="M158.16,66.93c-1.78.47-3.23,2.69-3.23,4.94s1.45,3.67,3.23,3.19,3.23-2.67,3.23-4.91S159.94,66.45,158.16,66.93Z" style="fill: #fff"/>
    <path d="M158.16,65.4c-2.36.62-4.28,3.67-4.28,6.75s1.92,5.07,4.28,4.45,4.28-3.64,4.28-6.73S160.52,64.77,158.16,65.4Zm0,8.13c-1.2.32-2.18-.55-2.18-2a3.31,3.31,0,0,1,2.18-3.12c1.2-.32,2.18.56,2.18,2A3.3,3.3,0,0,1,158.16,73.53Z" style="fill: #db161b"/>
    <path d="M148.71,146.8c-1.85.53-3.34,2.79-3.34,5s1.49,3.63,3.34,3.1a5.33,5.33,0,0,0,3.34-5C152.05,147.68,150.55,146.28,148.71,146.8Z" style="fill: #fff"/>
    <path d="M148.71,145.27c-2.42.69-4.39,3.79-4.39,6.88s2,5,4.39,4.32,4.39-3.75,4.39-6.84S151.13,144.58,148.71,145.27Zm0,8.13a1.77,1.77,0,0,1-2.29-1.87,3.51,3.51,0,0,1,2.29-3.19,1.78,1.78,0,0,1,2.29,1.88A3.49,3.49,0,0,1,148.71,153.4Z" style="fill: #db161b"/>
    <path d="M166.54,142c-1.85.46-3.35,2.67-3.35,4.91s1.5,3.69,3.35,3.22,3.34-2.64,3.34-4.88S168.38,141.57,166.54,142Z" style="fill: #fff"/>
    <path d="M166.54,140.5c-2.43.6-4.4,3.63-4.4,6.71s2,5.09,4.4,4.49,4.39-3.59,4.39-6.68S169,139.89,166.54,140.5Zm0,8.13a1.84,1.84,0,0,1-2.3-1.95,3.36,3.36,0,0,1,2.3-3.12,1.85,1.85,0,0,1,2.29,2A3.35,3.35,0,0,1,166.54,148.63Z" style="fill: #db161b"/>
    <path d="M157.63,149.76q3.88-7.15,7.79-14.23-7.8,2-15.6,4.18Q153.74,144.7,157.63,149.76Z" style="fill: #fff;fill-rule: evenodd"/>
    <path d="M149.82,139.5l-.1.38q4,5.06,7.91,10.18,3.94-7.23,7.89-14.41l-.1-.33Q157.62,137.29,149.82,139.5Zm7.81,9.95q-3.74-4.84-7.47-9.63,7.46-2.12,14.93-4Q161.35,142.62,157.63,149.45Z" style="fill: #db161b"/>
    <path d="M157.62,141.63c-2.46.65-4.46,3.64-4.46,6.63s2,4.87,4.46,4.21,4.46-3.6,4.46-6.59S160.08,141,157.62,141.63Z" style="fill: #fff"/>
    <path d="M157.62,140.09c-3,.81-5.51,4.63-5.51,8.46s2.47,6.27,5.51,5.45,5.51-4.56,5.51-8.4S160.66,139.28,157.62,140.09Zm0,10.85c-1.88.5-3.41-.82-3.41-3a5.13,5.13,0,0,1,3.41-4.81c1.88-.5,3.41.84,3.41,3A5.11,5.11,0,0,1,157.62,150.94Z" style="fill: #db161b"/>
    <path d="M163.1,186.29q-10.66,2.73-21.34,5.94a2,2,0,0,0-1.3,1.84v5.25a1,1,0,0,0,1.3,1.05q10.67-3.21,21.34-6a1.87,1.87,0,0,0,1.3-1.77V187.4A1,1,0,0,0,163.1,186.29Z" style="fill: #fff"/>
    <path d="M163.1,186q-10.66,2.73-21.34,5.94a2.33,2.33,0,0,0-1.48,2.14v5.25c0,.94.67,1.49,1.48,1.25q10.67-3.21,21.34-6a2.17,2.17,0,0,0,1.48-2.06v-5.26A1.19,1.19,0,0,0,163.1,186Zm1.13,6.66a1.59,1.59,0,0,1-1.13,1.47q-10.66,2.73-21.34,5.94a.83.83,0,0,1-1.13-.84V194a1.68,1.68,0,0,1,1.13-1.52q10.67-3.21,21.34-6a.87.87,0,0,1,1.13.9Z" style="fill: #db161b"/>
    <path d="M171.7,180.1c-1.74.41-3.13,3.28-3.13,6.43v3.57c0,3.14,1.39,5.31,3.13,4.9s3.11-3.25,3.11-6.39V185C174.81,181.89,173.43,179.68,171.7,180.1Z" style="fill: #fff;fill-rule: evenodd"/>
    <path d="M171.7,177.38c-2.89.69-5.21,4.43-5.21,8.36v6.16c0,3.93,2.32,6.5,5.21,5.81s5.2-4.37,5.2-8.3v-6.16C176.9,179.32,174.58,176.69,171.7,177.38Zm3.11,11.23c0,3.14-1.38,6-3.11,6.39s-3.13-1.76-3.13-4.9v-3.57c0-3.15,1.39-6,3.13-6.43s3.11,1.79,3.11,4.93Z" style="fill: #fff;fill-rule: evenodd"/>
    <path d="M171.7,177.13c-3,.71-5.39,4.61-5.39,8.65V192c0,4,2.42,6.73,5.39,6s5.38-4.55,5.38-8.6v-6.16C177.08,179.16,174.66,176.42,171.7,177.13Zm5,12.32c0,3.77-2.26,7.35-5,8s-5-1.83-5-5.6V185.7c0-3.77,2.26-7.4,5-8.06s5,1.88,5,5.65Z" style="fill: #db161b"/>
    <path d="M171.7,179.84c-1.83.44-3.31,3.46-3.31,6.73v3.57c0,3.26,1.48,5.55,3.31,5.11s3.29-3.43,3.29-6.68V185C175,181.73,173.51,179.41,171.7,179.84Zm2.94,8.81c0,3-1.32,5.71-2.94,6.1s-3-1.71-3-4.69v-3.57c0-3,1.33-5.75,3-6.14s2.94,1.74,2.94,4.72Z" style="fill: #db161b"/>
    <path d="M144.63,186c-1.74.51-3.12,3.44-3.12,6.58v6.29c0,3.14,1.38,5.26,3.12,4.74s3.12-3.43,3.12-6.58v-6.28C147.75,187.57,146.36,185.46,144.63,186Z" style="fill: #fff;fill-rule: evenodd"/>
    <path d="M144.63,183.25c-2.89.85-5.21,4.73-5.21,8.65v8.88c0,3.92,2.32,6.37,5.21,5.52s5.21-4.67,5.21-8.59v-8.88C149.84,184.91,147.51,182.4,144.63,183.25ZM147.75,197c0,3.15-1.39,6.07-3.12,6.58s-3.12-1.6-3.12-4.74v-6.29c0-3.14,1.38-6.07,3.12-6.58s3.12,1.6,3.12,4.75Z" style="fill: #fff;fill-rule: evenodd"/>
    <path d="M144.63,185.71c-1.82.54-3.3,3.64-3.3,6.9v6.28c0,3.27,1.48,5.48,3.3,5s3.29-3.62,3.29-6.89v-6.28C147.92,187.41,146.44,185.18,144.63,185.71Zm2.94,11.34c0,3-1.32,5.8-2.94,6.28s-2.95-1.55-2.95-4.54V192.5c0-3,1.32-5.8,2.95-6.28s2.94,1.57,2.94,4.55Z" style="fill: #db161b"/>
    <path d="M144.63,183c-3,.87-5.38,4.91-5.38,8.95v8.88c0,4,2.41,6.6,5.38,5.72s5.38-4.84,5.38-8.89v-8.88C150,184.73,147.59,182.12,144.63,183Zm5,14.76c0,3.76-2.26,7.47-5,8.29s-5-1.56-5-5.32v-8.88c0-3.77,2.26-7.53,5-8.34s5,1.6,5,5.37Z" style="fill: #db161b"/>
    <path d="M136.3,188.5c-2.89.9-5.21,4.81-5.21,8.74v4.06c0,3.93,2.32,6.33,5.21,5.43s5.21-4.76,5.21-8.69V194C141.51,190.06,139.18,187.6,136.3,188.5Zm3.12,8.87c0,3.15-1.39,6.1-3.12,6.64s-3.13-1.54-3.13-4.68v-1.47c0-3.15,1.4-6.12,3.13-6.67s3.12,1.57,3.12,4.71Z" style="fill: #fff;fill-rule: evenodd"/>
    <path d="M136.3,191.19c-1.73.55-3.13,3.52-3.13,6.67v1.47c0,3.14,1.4,5.22,3.13,4.68s3.12-3.49,3.12-6.64V195.9C139.42,192.76,138,190.65,136.3,191.19Z" style="fill: #fff;fill-rule: evenodd"/>
    <path d="M136.3,188.24c-3,.93-5.38,5-5.38,9v4.07c0,4,2.41,6.55,5.38,5.62s5.38-4.94,5.38-9v-4.06C141.68,189.88,139.27,187.31,136.3,188.24Zm5,9.86c0,3.76-2.25,7.51-5,8.37s-5-1.46-5-5.23v-4.06c0-3.77,2.25-7.56,5-8.43s5,1.52,5,5.28Z" style="fill: #db161b"/>
    <path d="M136.3,190.94c-1.82.57-3.3,3.7-3.3,7v1.47c0,3.27,1.48,5.46,3.3,4.89s3.29-3.68,3.29-7v-1.47C139.59,192.58,138.12,190.37,136.3,190.94Zm2.95,6.49c0,3-1.33,5.82-2.95,6.33s-3-1.5-3-4.49V197.8c0-3,1.33-5.84,3-6.35s2.95,1.52,2.95,4.51Z" style="fill: #db161b"/>
    <path d="M123.81,191.53c-3.12,1.06-5.62,4.76-5.62,8.27v7c0,3.51,2.5,5.44,5.62,4.38a9.07,9.07,0,0,0,5.61-8.2v-7C129.42,192.48,126.92,190.47,123.81,191.53Z" style="fill: #fff;fill-rule: evenodd"/>
    <path d="M123.81,188.49c-5.19,1.76-9.37,6.82-9.37,11.21v9.92c0,4.39,4.18,6.39,9.37,4.63s9.36-6.61,9.36-11v-9.92C133.17,189,129,186.73,123.81,188.49ZM129.42,203a9.07,9.07,0,0,1-5.61,8.2c-3.12,1.06-5.62-.87-5.62-4.38v-7c0-3.51,2.5-7.21,5.62-8.27s5.61.95,5.61,4.46Z" style="fill: #fff;fill-rule: evenodd"/>
    <path d="M123.81,191.27c-3.2,1.09-5.8,5-5.8,8.59v7c0,3.63,2.6,5.66,5.8,4.58s5.79-4.89,5.79-8.52v-7C129.6,192.3,127,190.19,123.81,191.27Zm5.44,11.8a8.78,8.78,0,0,1-5.44,7.89c-3,1-5.45-.84-5.45-4.19v-7a8.87,8.87,0,0,1,5.45-8c3-1,5.44.91,5.44,4.26Z" style="fill: #db161b"/>
    <path d="M123.81,188.24c-5.26,1.78-9.54,7-9.54,11.52v9.92c0,4.5,4.28,6.61,9.54,4.82s9.53-6.8,9.53-11.3v-9.92C133.34,188.77,129.07,186.45,123.81,188.24ZM133,203.31c0,4.22-4.13,9-9.19,10.69s-9.2-.22-9.2-4.44v-9.93c0-4.23,4.13-9.17,9.2-10.89s9.19.42,9.19,4.65Z" style="fill: #db161b"/>
    <path d="M191.48,174.71c-3.12.62-5.63,4-5.63,7.5v7c0,3.51,2.51,5.8,5.63,5.17s5.62-3.92,5.62-7.43v-7C197.1,176.45,194.59,174.08,191.48,174.71Z" style="fill: #fff;fill-rule: evenodd"/>
    <path d="M191.48,171.69c-5.2,1-9.38,5.49-9.38,9.87v9.92c0,4.39,4.18,7,9.38,6s9.36-5.32,9.36-9.71V177.8C200.84,173.42,196.67,170.64,191.48,171.69ZM197.1,187c0,3.51-2.51,6.81-5.62,7.43s-5.63-1.66-5.63-5.17v-7c0-3.51,2.51-6.88,5.63-7.5s5.62,1.74,5.62,5.25Z" style="fill: #fff;fill-rule: evenodd"/>
    <path d="M191.48,174.45c-3.2.65-5.8,4.16-5.8,7.8v7c0,3.64,2.6,6,5.8,5.39s5.79-4.08,5.79-7.71v-7C197.27,176.29,194.67,173.81,191.48,174.45ZM196.92,187c0,3.36-2.44,6.54-5.44,7.15s-5.46-1.61-5.46-5v-7c0-3.36,2.45-6.62,5.46-7.22s5.44,1.67,5.44,5Z" style="fill: #db161b"/>
    <path d="M191.48,171.43c-5.27,1.06-9.55,5.67-9.55,10.17v9.92c0,4.51,4.28,7.22,9.55,6.16s9.54-5.48,9.54-10v-9.92C201,173.27,196.74,170.38,191.48,171.43Zm9.19,16.33c0,4.22-4.12,8.4-9.19,9.42s-9.21-1.51-9.21-5.73v-9.92c0-4.23,4.13-8.58,9.21-9.59s9.19,1.67,9.19,5.89Z" style="fill: #db161b"/>
    <path d="M185.59,181q-5.57,1.17-11.14,2.48c-.37.09-.68.8-.68,1.6v5.25c0,.8.31,1.37.68,1.28q5.58-1.3,11.14-2.48c.37-.08.68-.79.68-1.58v-5.26C186.27,181.53,186,181,185.59,181Z" style="fill: #fff"/>
    <path d="M185.59,180.77Q180,182,174.45,183.26c-.47.11-.85.94-.85,1.89v5.25c0,.95.38,1.61.85,1.49q5.58-1.29,11.14-2.48c.48-.1.85-.92.85-1.87v-5.25C186.44,181.34,186.07,180.67,185.59,180.77Zm.51,6.85c0,.64-.24,1.23-.51,1.29q-5.57,1.17-11.14,2.48c-.27.06-.5-.43-.5-1.07v-5.26c0-.64.23-1.23.5-1.3q5.58-1.31,11.14-2.48c.27-.06.51.44.51,1.08Z" style="fill: #db161b"/>
    <path d="M169.22,183.41c-2.16.53-4.33,1.07-6.49,1.63-.22.05-.4,1-.4,2v7c0,1.06.18,1.88.4,1.82,2.16-.56,4.33-1.1,6.49-1.63.22-.05.4-.95.4-2v-7C169.62,184.17,169.44,183.35,169.22,183.41Z" style="fill: #fff"/>
    <path d="M169.22,183.16c-2.16.52-4.33,1.07-6.49,1.62-.45.12-.57,1.52-.57,2.32v7c0,.81.12,2.14.57,2,2.16-.55,4.33-1.1,6.49-1.63.45-.1.57-1.5.57-2.3v-7C169.79,184.38,169.67,183.05,169.22,183.16Zm.22,9.12a4.8,4.8,0,0,1-.22,1.72q-3.24.8-6.48,1.63a3.27,3.27,0,0,1-.24-1.61v-7a4.19,4.19,0,0,1,.24-1.72c2.15-.56,4.31-1.1,6.46-1.63a3.27,3.27,0,0,1,.24,1.61Z" style="fill: #db161b"/>
    <path d="M134.87,193c-2.17.68-4.33,1.38-6.5,2.1-.22.07-.4,1-.4,2v7c0,1.06.18,1.86.4,1.79,2.17-.71,4.33-1.41,6.5-2.1.21-.07.39-1,.39-2v-7C135.26,193.74,135.08,192.94,134.87,193Z" style="fill: #fff"/>
    <path d="M134.87,192.76c-2.17.68-4.33,1.38-6.5,2.09-.45.15-.57,1.56-.57,2.36v7c0,.81.12,2.13.57,2,2.17-.71,4.33-1.41,6.5-2.09.44-.15.56-1.55.56-2.35v-7C135.43,193.94,135.31,192.62,134.87,192.76Zm.22,9.11a4.94,4.94,0,0,1-.22,1.73q-3.24,1-6.48,2.1a3.19,3.19,0,0,1-.24-1.59v-7a4.78,4.78,0,0,1,.23-1.75c2.16-.71,4.31-1.41,6.47-2.09a3.21,3.21,0,0,1,.24,1.6Z" style="fill: #db161b"/>
    <path d="M118.85,197q-6.5,2.28-13,4.75c-.43.16-.79,1.37-.79,2.7v8.76c0,1.32.36,2.26.79,2.09,4.34-1.64,8.67-3.23,13-4.74.43-.16.79-1.35.79-2.68V199.1C119.64,197.78,119.28,196.83,118.85,197Z" style="fill: #fff"/>
    <path d="M118.85,196.73q-6.5,2.28-13,4.74c-.55.21-1,1.51-1,3v8.76c0,1.51.41,2.49,1,2.29q6.51-2.47,13-4.75c.55-.19,1-1.48,1-3V199C119.81,197.53,119.4,196.53,118.85,196.73Zm.62,11.19c0,1.23-.33,2.26-.62,2.36q-6.5,2.28-13,4.75c-.29.11-.61-.68-.61-1.91v-8.76c0-1.23.32-2.27.61-2.38q6.51-2.47,13-4.75c.29-.1.62.7.62,1.93Z" style="fill: #db161b"/>
    <path d="M208.44,175.33q-6,1-12.07,2.18c-.41.07-.73,1.21-.73,2.53v8.76c0,1.33.32,2.34.73,2.26q6-1.16,12.07-2.17c.4-.07.73-1.2.73-2.52v-8.76C209.17,176.28,208.84,175.27,208.44,175.33Z" style="fill: #fff"/>
    <path d="M208.44,175.08q-6,1-12.07,2.17c-.52.1-.91,1.32-.91,2.83v8.76c0,1.51.39,2.57.91,2.47q6-1.16,12.07-2.17c.51-.09.9-1.29.9-2.8v-8.76C209.34,176.07,209,175,208.44,175.08ZM209,186.4c0,1.33-.33,2.2-.56,2.24q-6,1-12.07,2.17c-.23,0-.56-.71-.56-2V180c0-1.33.33-2.21.56-2.25q6-1.15,12.07-2.17c.23,0,.56.72.56,2Z" style="fill: #db161b"/>
  </g>
</svg>
