<svg xmlns="http://www.w3.org/2000/svg" viewBox="0 0 1260 1012.04">
  <g>
    <path d="M0,90.08v920C420,738.76,840,1193.28,1260,922V2C840,273.28,420-181.24,0,90.08Z" style="fill: #fff"/>
    <path d="M282.55,225.05q25,7.77,49.93,17.33Q323.75,178.6,315,115,298.77,169.66,282.55,225.05Z" style="fill: #005293"/>
    <path d="M297.52,242.32q25-9.45,49.93-17.18Q331.22,169.73,315,115,306.26,178.56,297.52,242.32Z" style="fill: #005293"/>
    <path d="M309.86,252c35-19.34,70-36.12,105-51.18a864.11,864.11,0,0,0-105-6.32Z" style="fill: #005293"/>
    <path d="M329.91,262.24c28.32-21.91,56.64-42.24,84.95-61.45a860.51,860.51,0,0,0-115.8,14.9Q314.48,238.63,329.91,262.24Z" style="fill: #005293"/>
    <path d="M294.34,231.69c27.46,29.79,54.92,61.23,82.38,93.92q-16.23-56-32.45-111.31Q319.31,222.18,294.34,231.69Z" style="fill: #005293"/>
    <path d="M291.77,255.77c28.32,21.66,56.63,45.09,85,69.84q-27-59.17-54.09-116.63Q307.19,232.05,291.77,255.77Z" style="fill: #005293"/>
    <path d="M253.28,325.69c28.32-25.1,56.63-48.23,85-69.84q-15.44-23.76-30.86-46.9Q280.32,266.24,253.28,325.69Z" style="fill: #005293"/>
    <path d="M253.28,325.69c27.46-33,54.92-64.2,82.38-93.93q-25-9.62-49.93-17.55Q269.5,269.54,253.28,325.69Z" style="fill: #005293"/>
    <path d="M300.09,262.18q15.42-23.55,30.85-46.43c-38.6-7.93-77.2-12.95-115.8-13.93C243.45,219.92,271.77,240.19,300.09,262.18Z" style="fill: #005293"/>
    <path d="M320.14,252v-57.5a640.44,640.44,0,0,0-105,7.33C250.14,215.5,285.14,232.51,320.14,252Z" style="fill: #005293"/>
    <path d="M0,550.08v460C210,874.42,420,920.22,630,966V506C420,460.22,210,414.42,0,550.08Z" style="fill: #005293"/>
    <path d="M630,46V506c210,45.8,420,91.61,630-44V2C1050,137.63,840,91.82,630,46Z" style="fill: #d21034"/>
    <path d="M912.55,775.65q25,10,49.93,18.36Q953.75,730.64,945,667,928.77,721.7,912.55,775.65Z" style="fill: #d21034"/>
    <path d="M927.52,793.94q25-8.25,49.93-18.21Q961.22,721.78,945,667,936.25,730.6,927.52,793.94Z" style="fill: #d21034"/>
    <path d="M939.86,804a1029.12,1029.12,0,0,0,105-64.83,640.44,640.44,0,0,1-105,7.33Z" style="fill: #d21034"/>
    <path d="M959.91,814c28.32-23.07,56.64-47.86,84.95-74.83a702.52,702.52,0,0,1-115.8,28.23Q944.48,791,959.91,814Z" style="fill: #d21034"/>
    <path d="M924.34,783.15c27.46,31.34,54.92,61.24,82.38,89.27q-16.23-53.2-32.45-107.26Q949.31,775,924.34,783.15Z" style="fill: #d21034"/>
    <path d="M921.77,807.07c28.32,23.46,56.63,45.4,85,65.35q-27-54.6-54.09-111.48Q937.2,784.33,921.77,807.07Z" style="fill: #d21034"/>
    <path d="M883.28,872.51c28.32-20.31,56.63-42,85-65.36q-15.43-22.77-30.86-46.24Q910.33,817.63,883.28,872.51Z" style="fill: #d21034"/>
    <path d="M883.28,872.51c27.46-28.38,54.92-58,82.38-89.29q-25-8.21-49.93-18.14Q899.5,819.11,883.28,872.51Z" style="fill: #d21034"/>
    <path d="M930.09,813.92q15.42-22.92,30.85-46.48c-38.6-6.24-77.2-15.7-115.8-27.26C873.45,766,901.77,790.76,930.09,813.92Z" style="fill: #d21034"/>
    <path d="M950.14,804V746.5a864.11,864.11,0,0,1-105-6.32C880.14,763.45,915.14,785,950.14,804Z" style="fill: #d21034"/>
  </g>
</svg>
