<svg xmlns="http://www.w3.org/2000/svg" xmlns:xlink="http://www.w3.org/1999/xlink" viewBox="0 0 1260 1012.04">
  <defs>
    <clipPath id="a">
      <path d="M630,305.49c99.57,22.72,180.28,126.36,180.28,237.9,0,112.51-80.71,190.48-180.28,167.77S449.72,584.79,449.72,473.25C449.72,360.75,530.43,282.77,630,305.49Z" style="fill: none"/>
    </clipPath>
  </defs>
  <g>
    <path d="M0,90.08v920C420,738.76,840,1193.28,1260,922V2C840,273.28,420-181.24,0,90.08Z" style="fill: #ce1126"/>
    <path d="M0,780.08C420,508.76,840,963.28,1260,692V232C840,503.28,420,48.76,0,320.08Z" style="fill: #fff"/>
    <g style="clip-path: url(#a)">
      <path d="M551.7,467.67q15.3,3.61,30.61,7.37h0Q567,464.67,551.7,454.42Z" style="fill: #ff9c10"/>
      <path d="M548.64,421.22c-.51,4.31,3.06,4.49,3.06,4.49v22.08q15.24,11.61,30.48,23.36.14-8.81.26-17.61C571,442.62,548.81,412,548.64,421.22Z" style="fill: #ff9c10"/>
      <polygon points="582.18 471.15 582.18 471.15 582.18 471.15 582.18 471.15" style="fill: #ff9c10"/>
      <path d="M450.18,504.09v0c21.42,3.35,42.85,7.24,64.27,11.47V471.92C490,466,465.48,460.56,441,455.84Q445.58,479.95,450.18,504.09Z" style="fill: #ff9c10"/>
      <path d="M448.13,391.12l-1,52.31h0c22.79,5.71,45.57,12,68.36,18.74l-.51-31C492.68,417.37,470.41,404,448.13,391.12Z" style="fill: #ff9c10"/>
      <path d="M521.29,399c.09-3.34-5.4-4.79-5.46-8.16-.36-3.71,4.23-6.73,4.23-6.73q-23.71-26.91-47.44-53.21-5.87,26.37-11.73,52.79h0q26.26,17.91,52.54,36.71l7.5-7.05s-4.83-4.53-4.59-7.8C516.43,402.2,521.2,402.61,521.29,399Z" style="fill: #ff9c10"/>
      <polygon points="805.73 574.01 805.73 574.01 805.73 574.02 805.73 574.01" style="fill: #ff9c10"/>
      <path d="M737.37,519.63l.51,42.61c22.62,4.36,45.23,8.36,67.85,11.77l6.12-47.68C787,524.73,762.2,522.4,737.37,519.63Z" style="fill: #ff9c10"/>
      <polygon points="807.39 512.85 807.39 512.85 807.39 512.85 807.39 512.85" style="fill: #ff9c10"/>
      <path d="M796.69,464c-.22-.68-.56-1.32-.79-2-19.33,5.81-38.67,11.21-58,16.35q.27,15.78.53,31.58c23,1.43,46,2.49,69,2.93-.86-7-1.76-14.05-3.22-21A252.86,252.86,0,0,0,796.69,464Z" style="fill: #ff9c10"/>
      <path d="M767.74,404.15Q750.39,415.46,733,426.43c.06,2.76,2.56,5.36,3.26,8.13,1.6,4-1.59,6.65-3.56,8.88-1.6,2.1,1.85,4,3,5.64,2.52,3.32.33,7.34-2.36,8.46,3.24,2.75,4.87,7,5.58,11.07q26-9.81,52-20.36a250.35,250.35,0,0,0-23.17-44.1Z" style="fill: #ff9c10"/>
      <path d="M671.08,495.24q14.53,2.43,29.07,4.76l.51-12.59q-14.79,4-29.59,7.83Z" style="fill: #ff9c10"/>
      <path d="M671.06,488.34h0q15-4.5,30.09-9.11v-21a14.84,14.84,0,0,0,3.19-9.14C698.47,452.9,670.93,474,670.93,474Q671,481.15,671.06,488.34Z" style="fill: #ff9c10"/>
      <polygon points="492.53 330.43 492.54 330.43 492.53 330.43 492.53 330.43" style="fill: #ff9c10"/>
      <path d="M492.54,330.43c.52.59,30.9,42.78,30.9,42.85.85-3.3,7.86-2.47,15-.49s12.84,2.08,12.84,7.6-3.62,4-3.62,7.87,5.43,4.65,5.43,9.61-3.94,3.15-4,7c0,3.17,4.11,4.19,4.11,4.19q14.47,18.15,28.94,36.43.08-16.2.13-32.41-29.84-57-59.68-113.52Q507.59,314.88,492.54,330.43Z" style="fill: #ff9c10"/>
      <path d="M540.29,301.12h0c.45,1.48,40.42,97.8,40.42,97.86s.46-82.51,7.27-85.47q-5.67-12.52-11.35-25Q558.45,294.7,540.29,301.12Z" style="fill: #ff9c10"/>
      <path d="M670.76,319.5h0l-15.09,53.89a81.29,81.29,0,0,0,14.18,3.55c4.26,1.31.94,5,1.17,7.6L671,419.66q21.33-36.68,42.65-73.58a266.47,266.47,0,0,0-30.69-20Q676.94,322.54,670.76,319.5Z" style="fill: #ff9c10"/>
      <path d="M723.85,354.4h0q-26.39,39.18-52.76,77.88,0,17.1-.07,34.2c11.75-9.72,23.56-19.4,35.27-29.28,2.22-3-7.06-6.59-2.42-9.83,4.2-.59,4.91-7.88.49-10.22-3.65-6.61,3.3-8.28,7.67-6.75,6.09,1.54,12.37,1,18.32,4.06,3.28,4.08,6.3-3.95,9.52-5.28,6.36-5.79,12.73-11.6,19-17.54A237.71,237.71,0,0,0,723.85,354.4Z" style="fill: #ff9c10"/>
      <path d="M625.68,695.41c-12.75-4-17.86-20.79-36.23-24.74-.57-.12-1.13-.28-1.7-.37h0c-13-2-25.9,4.91-32,8.8a214,214,0,0,0,34.85,19.42C610.32,706.37,630,710.67,649.7,715c3.21.25,6.39.44,9.51.55q20.74-3.16,41.48-6.5s-20-18.57-35.77-21.37S638.43,699.44,625.68,695.41Z" style="fill: #083d9c"/>
      <path d="M664.84,685.24c-8.5-1.49-15.61,1.7-21.89,4.52-5.88,2.63-11.44,5.13-17.08,3.34-5-1.58-8.72-5.39-13-9.8-5.79-5.92-12.36-12.63-23.38-15l-.53-.13c-.43-.09-.86-.2-1.3-.26-13.38-2-26.52,4.77-33.15,9l-2.88,1.85,3.33,2.28a218.78,218.78,0,0,0,35.36,19.69c19.6,7.81,39.44,12.19,58.63,16.37l.39.08.67.13c3.31.26,6.54.45,9.59.55q23-3.49,46-7.21l-3.69-3.43C701,706.51,681.1,688.18,664.84,685.24Zm-6.15,27.85c-2.91-.11-6-.29-9.13-.53l-.26-.06c-19.14-4.07-38.93-8.51-58.23-16.2a212.11,212.11,0,0,1-31-16.87c6.72-3.84,17.27-8.34,27.76-6.74h0c.33,0,.65.13,1,.21l.61.14c9.61,2.06,15.31,7.88,20.82,13.51,4.64,4.74,9,9.22,15.22,11.18,7,2.22,13.2-.52,19.71-3.44,6.11-2.74,12.42-5.58,19.8-4.28,10.9,1.92,24.11,12,30.57,17.32Q677.14,710.28,658.69,713.09Z" style="fill: #083d9c"/>
      <path d="M703.72,660.33c-24-5.55-17.34,7.43-35.7,5.16s-23-17.11-39.79-20.23-26.53,5.81-39.28,3.63-29.08-20-38.77-21.39-44.38,7.83-44.38,7.91l6.63,7.86h0c78.56,15.14,157.12,35,235.68,50.13C748.1,693.41,727.7,665.85,703.72,660.33Z" style="fill: #083d9c"/>
      <path d="M703.77,658.12c-13.87-3.19-18.2-.45-22.34,2.24-3,2-5.93,3.84-13.58,2.88-9-1.12-14.39-5.39-20.1-9.91-5.41-4.28-11-8.72-19.59-10.31-9.44-1.74-16.8.16-23.29,1.85-5.39,1.4-10.49,2.73-16,1.79-6.29-1.09-13.71-6.39-20.88-11.5-6.62-4.72-12.86-9.13-17.92-9.89-9.93-1.56-43.63,7.47-45.06,8l-2.92.81,9,10.63,1.36-1.38c0,.74,0,1.47,0,2.21,80.14,15.44,160.27,35.81,240.41,51l-3.24-4.37C748.72,691,728.31,663.77,703.77,658.12ZM513.22,641.2l-3.7-4.38c8.53-2.29,33.14-8.24,40.77-7.07,4,.59,9.85,4.71,16,9.09,7.61,5.42,15.47,11.07,22.74,12.29,6.27,1.07,11.71-.34,17.46-1.84,6.46-1.67,13.14-3.4,21.8-1.8,7.51,1.36,12.4,5.27,17.58,9.37,6,4.72,12.14,9.61,22.31,10.88,8.87,1.11,12.37-1.16,15.76-3.36,3.74-2.42,7.26-4.7,19.74-1.83,17.07,3.92,32.51,19.79,39.3,27.64C666.39,675.25,589.81,656,513.22,641.2Z" style="fill: #083d9c"/>
      <path d="M741.47,635.81c-14.29-2.18-24.49,11.22-36.22,9.37s-25-21.24-38.26-23.54-27,9.6-40.3,6.71-23-21-39.79-24.63-24.48,12.47-37.24,8.76-24-22.49-36.21-24.8-32.65,14-36.73,12.23,5.1,9.13,5.61,7.57h0c96.92,16.91,193.84,42.87,290.76,60.06C777.68,661.16,758.81,640.81,741.47,635.81Z" style="fill: #083d9c"/>
      <path d="M741.64,633.63l-.12,0-.12,0c-8.07-1.23-14.64,2-21,5.14-5.25,2.59-10.22,5-15.24,4.22s-10.84-5.57-16.91-10.62c-6.85-5.71-14-11.69-21.34-12.91-6.95-1.21-13.89,1.18-20.61,3.5-6.56,2.26-13.34,4.59-19.61,3.22-5.68-1.24-10.9-5.77-16.42-10.56-6.51-5.65-13.89-12.05-23.37-14.08s-16.11,1.7-22,5c-5.19,2.89-9.68,5.4-15.06,3.83-5.71-1.67-11.43-6.94-17-12-6.17-5.68-12.55-11.52-19.41-12.82-7.87-1.49-18.17,3.76-26.44,8-3.85,2-8.64,4.49-9.81,4.32-2.76-1.21-3.4.93-3.47,1.17-.83,3.16,5.78,9.71,7.44,10.55a2.46,2.46,0,0,0,1.78.26c96.72,16.91,193.43,42.8,290.14,60l1.06.19.6-.85c1-1.34,1.77-3.82.12-8C771.12,651.68,755.79,637.71,741.64,633.63Zm-259.3-28.37-.41-.07a25.21,25.21,0,0,1-2.81-3.05c2.22-.47,5.28-2,10.05-4.5,7.42-3.83,17.58-9,24.28-7.74,5.64,1.07,11.25,6.2,17.18,11.65s12.11,11.14,18.87,13.11,12.11-.95,17.7-4.06,11.57-6.41,19.7-4.66c8.36,1.79,14.94,7.49,21.3,13,6,5.22,11.7,10.15,18.49,11.63,7.25,1.58,14.48-.9,21.47-3.31,6.32-2.17,12.85-4.43,18.91-3.38s12.82,6.58,19.18,11.88c6.59,5.49,12.82,10.69,19.09,11.65,6.09,1,11.5-1.68,17.23-4.5S734.5,637,741.42,638C754,641.71,768,654.27,771.2,662.36a6.15,6.15,0,0,1,.55,2.72C675.28,647.89,578.81,622.09,482.34,605.26Z" style="fill: #083d9c"/>
      <path d="M627.2,583.66c-20-3.8-33.5,15.36-32.46,15.58h0c21.64,4.65,43.27,9.4,64.91,14.07C660.15,612.87,645.12,585.9,627.2,583.66Z" style="fill: #083d9c"/>
      <path d="M627.15,581.42c-20.23-3.84-34.53,14.45-34.49,17.32,0,.76.05,1.53.08,2.29l2,.43c21.92,4.71,43.83,9.53,65.75,14.25l.59-.52c.32-.28,1-1.11.33-2.8C659.48,607.44,644.36,583.58,627.15,581.42Zm-28.86,16.36c4-4.77,14.71-14.6,29.09-11.87.55.07,1.1.16,1.65.28,12.22,2.67,22.87,17.4,27,24.1C636.75,606.14,617.52,601.92,598.29,597.78Z" style="fill: #083d9c"/>
      <path d="M776.64,614.53c-11-2.44-21.94,10.27-33.44,7.52s-9.93-5.88-15.67-10.39c-3.13,6.17-14.63,11.21-14.63,11.21,29.61,6,59.21,11.55,88.82,16.11h0C801.72,639.55,787.61,617,776.64,614.53Z" style="fill: #083d9c"/>
      <path d="M802.56,636.88c-.14-.18-.29-.41-.47-.66-3.81-5.34-15.4-21.66-25.35-23.89-6.06-1.39-11.84,1.33-17.46,3.89-5.3,2.41-10.76,4.9-16,3.63-7.15-1.72-8.56-3.4-10.52-5.7a27.58,27.58,0,0,0-4.28-4.26l-1.83-1.44-.94,1.85c-2.35,4.61-10.79,9.11-13.84,10.44l-6.47,2.82c32,6.57,63.93,12.65,95.9,17.57a1.33,1.33,0,0,0,.34.1,1.78,1.78,0,0,0,.78-.06l1.32-.35c0-1.25,0-2.5,0-3.76ZM719.61,622a31.3,31.3,0,0,0,8.58-7.15c.72.72,1.3,1.4,1.87,2.07,2.77,3.27,5,5.4,13.05,7.33,6.37,1.56,12.4-1.17,18.2-3.82,5.35-2.44,10.39-4.77,15.23-3.69,5.09,1.13,12,7.65,20.59,19.3C771.29,632,745.45,627.18,719.61,622Z" style="fill: #083d9c"/>
      <path d="M525.9,569.17c-5.75,2.29-4.18,6-15.68,4.36S487.76,555.3,476.79,554s-25.08,17-25.08,16.4h0c29.61,4.41,59.21,9.84,88.82,15.78C540.53,586.2,529,576.56,525.9,569.17Z" style="fill: #083d9c"/>
      <path d="M527.71,568.52c-.32-.74-.63-1.48-.94-2.22l-1.83.73a15.58,15.58,0,0,0-4.28,2.59c-2,1.55-3.37,2.67-10.53,1.68-5.19-.71-10.68-5.21-16-9.52-5.62-4.58-11.42-9.31-17.46-10-9.95-1.16-21.54,11.55-25.35,15.76l-.47.52-1.19-.18c0,1.26,0,2.52,0,3.78l1.31.73a2.39,2.39,0,0,0,.77.29,2,2,0,0,0,.35,0c32,4.77,63.93,10.72,95.89,17.23q-3.22-2.73-6.46-5.45C538.5,581.92,530.05,574.05,527.71,568.52Zm-71.41.38c8.58-9,15.49-13.22,20.58-12.63,4.84.55,9.89,4.64,15.24,9,5.8,4.72,11.78,9.65,18.2,10.51,8,1.11,10.28-.13,13.05-2.32a17,17,0,0,1,1.87-1.34,56.59,56.59,0,0,0,8.58,10.54C508,577.53,482.14,572.83,456.3,568.9Z" style="fill: #083d9c"/>
      <path d="M475.69,537.36c-11.73-1.41-24-17.59-24-17.59l6.63,21.44h0c21.08,3.43,42.17,7.36,63.25,11.6A74.74,74.74,0,0,1,517,531C500.68,521.77,487.42,538.76,475.69,537.36Z" style="fill: #083d9c"/>
      <path d="M519,531.23c0-.51,0-1-.07-1.52l-1.31-.74c-10.77-6.05-20.1-1.74-28.33,2.11-4.94,2.32-9.61,4.53-13.73,4-10.7-1.32-22.29-16.5-22.4-16.65l-3.39,1.76,7.1,23c22.64,3.65,45.27,7.89,67.91,12.48-.46-1.16-.93-2.32-1.39-3.47A72.68,72.68,0,0,1,519,531.23Zm-59.26,8q-1.74-5.67-3.5-11.33c4.92,4.92,12.21,10.83,19.5,11.7,5.12.62,10.22-1.79,15.61-4.32,7.46-3.49,15.18-7,23.68-3A78.38,78.38,0,0,0,518.56,550C499,546.06,479.38,542.43,459.78,539.22Z" style="fill: #083d9c"/>
      <path d="M778.7,598.4c-11.73-2.55-25-24.25-41.32-21.33a57.47,57.47,0,0,1-4.59,20.09c21.09,3.93,42.17,7.56,63.26,10.71h0l6.63-19.4S790.44,601,778.7,598.4Z" style="fill: #083d9c"/>
      <path d="M778.79,596.19c-4.12-.89-8.78-4.71-13.73-8.78-8.23-6.76-17.55-14.49-28.33-12.57l-1.31.23-.06,1.5a55.91,55.91,0,0,1-4.4,19.27l-1.39,2.94c22.64,4.25,45.28,8.17,67.91,11.52q3.56-10.38,7.11-20.79l-3.39-2.78C801.08,586.85,789.48,598.52,778.79,596.19Zm15.82,9.24c-19.59-2.95-39.19-6.31-58.78-9.93a62.11,62.11,0,0,0,3.49-16.38c8.5-.8,16.21,5.6,23.69,11.76,5.39,4.44,10.48,8.61,15.61,9.72,7.22,1.61,14.57-2,19.49-5.4Q796.37,600.32,794.61,605.43Z" style="fill: #083d9c"/>
      <path d="M626.68,563.21c-16.83-3.67-15.3,8.82-15.81,8.15h0l32.13,5.9S643.52,566.88,626.68,563.21Z" style="fill: #083d9c"/>
      <path d="M626.68,561c-7-1.52-15.51-1.32-17.44,7.85l-3.15-.58,4.28,5.55,1-.14,33.61,6.17c0-.67.07-1.35.1-2a13.34,13.34,0,0,0-2.82-8C639.1,565.52,633.87,562.56,626.68,561Zm-13.23,8.62c.86-2.72,3.55-6.29,13.23-4.18,5.88,1.28,10.2,3.59,12.51,6.68a9.5,9.5,0,0,1,1.35,2.48Z" style="fill: #083d9c"/>
      <path d="M658.81,317.3c-53-19.83-59.17-6.26-65.29,8.45L594,454.51h0c22.27,11.24,44.55,22.59,66.83,33.85V385.1C630.25,380.11,604.74,309.94,658.81,317.3Z" style="fill: #ce1126"/>
      <path d="M660.76,382.86c-16.24-2.63-30.47-25-31.4-41.75-.92-16.39,9.87-24.23,29.61-21.56a1.66,1.66,0,0,0,1.87-1.74,2.81,2.81,0,0,0-1.74-2.65c-55-20.56-61.33-5.38-67.45,9.32a2.13,2.13,0,0,0-.16.84L592,454.08a2.85,2.85,0,0,0,1.51,2.47c22.28,11.23,44.55,22.59,66.83,33.85a2.47,2.47,0,0,0,.52.18,1.63,1.63,0,0,0,1.23-.19,1.83,1.83,0,0,0,.79-1.59V385.54a2.83,2.83,0,0,0-.63-1.75A2.51,2.51,0,0,0,660.76,382.86ZM658.83,485C637.9,474.46,617,463.8,596.05,453.23q-.25-63.3-.5-126.61c5.19-12.46,10.48-24.07,49.83-11.72-13.57,1.91-20.89,10.92-20.07,25.6,1,18.41,15.69,41.93,33.52,46.4Z" style="fill: #630810"/>
      <path d="M546.39,538c-2.72-1.38-1.11-112.46-1.11-112.46s-4.34-3-4.54-6.48,5.9-2.59,5.9-7-6.23-3.95-6.35-8.43c0-4.25,6.65-2.33,6.35-6.32-.35-4.51-7.42-5.28-7.72-9.43-.23-3.29,5.06-5.06,6.53-6.22-1-.15-4.91-1.06-4.94-1.08l-11.13-2c-7.9-1.53.14,1.89,0,6.81-.07,3.21-4,4.59-4.36,7.33-.12,2.85,5.64,6,5.71,9.47.06,3.09-5.66,2.18-5.45,5.09.35,4.92,5.07,6.91,5,9.83s-6.35,2.81-6.37,5.15c.22,4.57.91,114.73.91,114.73,10,57.8,67.68,84.12,84,14h0C594.34,573.91,555.48,558,546.39,538Z" style="fill: #ce1126"/>
      <path d="M609.65,549.17a1.72,1.72,0,0,0-2.51.35c-5.75,9.07-16.46,12.46-29.41,9.39s-25.17-12-29.56-21.63A2.59,2.59,0,0,0,548,537c-1.58-6.63-1.27-71.25-.69-111a2.85,2.85,0,0,0-1.19-2.29c-1.06-.75-3.26-2.79-3.36-4.37,0-.34,1.07-.89,1.72-1.22,1.67-.84,4.19-2.1,4.19-5.64,0-3.73-2.77-5.48-4.42-6.53s-1.92-1.36-1.93-1.89.55-1,2.21-1.52,4.4-1.49,4.13-5-3.11-5.58-5.18-7c-1.5-1-2.49-1.76-2.54-2.4-.08-1.19,2.89-2.81,4-3.42a12.6,12.6,0,0,0,1.86-1.12,2.1,2.1,0,0,0,.51-2.39,2.65,2.65,0,0,0-2-1.77c-.78-.12-4.22-.9-4.67-1l-.21-.05q-5.54-1-11.09-1.95c-2.39-.47-4.64-.9-5.35.91-.62,1.6.57,3.06,1.45,4.13s1.92,2.36,1.9,3.54c0,.91-.92,1.84-1.79,2.75a7.72,7.72,0,0,0-2.57,4.53c-.11,2.48,1.74,4.52,3.38,6.31,1,1.07,2.3,2.54,2.34,3.25a5.15,5.15,0,0,1-1.75.89c-1.56.58-3.92,1.47-3.72,4.4.26,3.58,2.24,5.95,3.68,7.68a10.53,10.53,0,0,1,1.34,1.8c-.2.43-1.64,1-2.42,1.31-1.85.74-4,1.58-4,4.13.21,4.46.9,113.52.9,114.63,0,.13,0,.27,0,.41,5,29.21,22.75,52.75,43.06,57.52l.81.18c20.4,4.27,36.86-11.55,44.12-42.73A2.82,2.82,0,0,0,609.65,549.17ZM547,536h0Zm0,0Zm0,0Zm0,0h0ZM566,590.14c-18.35-4.31-34.43-26-39.14-53,0-6.72-.67-106.47-.89-114.16a9.73,9.73,0,0,1,1.82-.85c2-.79,4.45-1.77,4.52-4.58.06-2.32-1.43-4.12-2.63-5.56s-2.17-2.61-2.36-4.33a6.84,6.84,0,0,1,1.53-.7c1.58-.6,4-1.49,3.92-4.44s-2.13-5.1-3.8-6.93a13.12,13.12,0,0,1-1.89-2.37,6.5,6.5,0,0,1,1.54-2c1.22-1.28,2.75-2.86,2.8-5.39a8.82,8.82,0,0,0-1.55-5l9.54,1.68a5.79,5.79,0,0,0-2.52,5.05c.24,3.37,3,5.23,4.93,6.59s2.73,2,2.79,2.83c0,.39-.56.65-1.89,1.1-1.77.6-4.45,1.52-4.47,5.11s2.86,5.45,4.5,6.49,1.86,1.33,1.86,1.87c0,1-.75,1.49-2.33,2.29s-3.74,1.89-3.57,4.86c.19,3.43,2.87,6.24,4.52,7.65-.08,5.91-.4,30.22-.45,54.4-.11,47.35.64,56.15,2.05,58.36,5.22,10.91,18.61,20.76,32.79,24.15,10.6,2.48,19.89,1.1,26.67-3.91C596.58,582.7,582.72,594.11,566,590.14Z" style="fill: #630810"/>
      <polygon points="646.9 559.34 646.9 559.34 646.9 559.34 646.9 559.34" style="fill: #ce1126"/>
      <path d="M725.48,458.34c-.07-2.95,4.65-3.08,5-7.87.21-2.82-5.52-4.16-5.45-7.23.07-3.44,5.83-4.33,5.71-7.23-.36-2.88-4.29-5.8-4.37-9-.11-5,7.93-5.23,0-6.8l-11.12-2.47s-3.74-.63-4.69-.88c1.47,1.77,4.72,4.57,4.49,8-.27,4-5.08,2.54-5.43,6.9-.29,3.88,5.82,4.81,5.85,9.08-.12,4.43-6,1.5-6,5.92s5.71,5.91,5.52,9.33-4.54,4.64-4.54,4.64,1.6,111.74-1.12,112c-9.08,16.4-47.94,15.86-62.47-13.41,16.35,77.42,74,75.3,84,21,0,0,.68-109.89.9-114.38C731.83,463.64,725.55,461.29,725.48,458.34Z" style="fill: #ce1126"/>
      <path d="M729.9,460.83a13.81,13.81,0,0,1-2.39-2.15c0-.31.79-1,1.32-1.39a8.22,8.22,0,0,0,3.67-6.24c.21-2.85-2.15-4.65-3.71-5.85a10.56,10.56,0,0,1-1.73-1.51c0-.76,1.35-1.7,2.32-2.39,1.64-1.16,3.49-2.47,3.37-5.2a12.42,12.42,0,0,0-2.56-5.33c-.87-1.25-1.77-2.53-1.79-3.46,0-1.18,1-2.07,1.9-2.79s2.07-1.72,1.45-3.56c-.71-2.09-3-2.54-5.32-3q-5.56-1.23-11.12-2.48l-.22,0c-.47-.07-3.65-.62-4.41-.82a1.61,1.61,0,0,0-2,1,2.64,2.64,0,0,0,.51,2.6c.27.32.59.68.95,1.07,1.69,1.86,3,3.41,2.87,5,0,.84-.46,1.13-1.71,1.79-1.46.76-3.45,1.81-3.71,5.09s2.17,5.33,3.78,6.68,2.06,1.84,2.06,2.51-.17.82-1.78,1.23-4.19,1.06-4.19,4.76c0,3.49,2.36,5.76,3.92,7.26.76.73,1.62,1.55,1.6,1.93-.09,1.54-2.3,2.68-3.35,3a1.74,1.74,0,0,0-1.19,1.81c.57,40,.88,104.72-.69,110.71a1.44,1.44,0,0,0-.18.25c-4.38,7.88-16.53,11.73-29.55,9.29a40.93,40.93,0,0,1-29.41-22,2.38,2.38,0,0,0-2.51-1.44,1.83,1.83,0,0,0-1.2,2.31c7.27,34.33,23.72,57.35,44.13,61.66l.8.16c20.32,3.78,38-12.8,43.07-40.07a2.73,2.73,0,0,0,0-.41c0-1.1.69-109.89.91-114.41C733.86,463.94,731.76,462.29,729.9,460.83ZM708.83,570.49Zm0,0h0Zm0,0h0Zm0,0h0Zm20.1,9.25c-4.72,25.15-20.79,40.46-39.14,37-16.71-3-30.57-20.47-38.29-47.09a46.18,46.18,0,0,0,26.67,15.38c14.18,2.65,27.57-1.69,32.78-10.5,1.42-1.64,2.16-10.13,2.06-57.53-.06-24.19-.37-48.64-.45-54.57,1.65-.75,4.32-2.49,4.52-5.83.17-2.87-1.86-4.81-3.34-6.22s-2.18-2.19-2.18-3.24c0-.58.07-.75,1.7-1.17s4.17-1.06,4.28-4.78c0-3.42-2.47-5.46-4.09-6.82-1.47-1.22-1.8-1.61-1.77-2,.09-1.08.57-1.43,1.92-2.14s3.31-1.75,3.51-4.8a9.28,9.28,0,0,0-1.48-5.43l10.29,2.28a6.24,6.24,0,0,0-1.55,4.34c0,2.55,1.58,4.74,2.8,6.49a11.69,11.69,0,0,1,1.54,2.62,7.4,7.4,0,0,1-1.89,1.63c-1.67,1.18-3.74,2.64-3.8,5.43s2.33,4.77,3.92,6a12.41,12.41,0,0,1,1.52,1.3c-.18,1.66-1.19,2.47-2.35,3.41s-2.69,2.17-2.63,4.52c.06,2.84,2.53,4.79,4.51,6.36a17.45,17.45,0,0,1,1.83,1.56C729.57,474.54,729,573.06,728.91,579.74Z" style="fill: #630810"/>
      <path d="M568.53,547.36q11.47,2.42,23,4.88c5.61-2.11,10.71-4.31,14.28-11.27q-11-2.1-21.94-4.17S573.64,541.25,568.53,547.36Z" style="fill: #630810"/>
      <polygon points="591.49 552.24 591.49 552.24 591.49 552.24 591.49 552.24" style="fill: #630810"/>
      <path d="M582.34,533.72c-.44.18-10.74,4.74-16.12,11.19l-3.69,4.41q14.85,3.09,29.7,6.29l.65-.24c6.2-2.33,11.64-4.86,15.51-12.38l2.2-4.31Q596.8,536,583,533.43Zm18,9.41c-2.58,2.82-5.74,4.28-9.56,5.74l-15.28-3.26a57.84,57.84,0,0,1,9.23-5.44Z" style="fill: #630810"/>
      <polygon points="662.38 567.64 662.38 567.64 662.38 567.64 662.38 567.64" style="fill: #630810"/>
      <path d="M670,555.48q-11-2.62-21.93-5.29c3.57,8.5,8.67,12.92,14.28,17.45q11.48,2.48,23,4.91C680.23,564.29,670,555.48,670,555.48Z" style="fill: #630810"/>
      <path d="M671.53,553l-.66-.57q-13.8-3.32-27.59-6.67c.73,1.76,1.47,3.51,2.21,5.27,3.85,9.2,9.3,14.09,15.5,19.09l.65.53q14.85,3.19,29.69,6.33l-3.68-6C682.27,562.36,672,553.42,671.53,553Zm-8.41,11.55c-3.81-3.1-7-5.93-9.55-9.87q7.8,1.89,15.61,3.76a109.42,109.42,0,0,1,9.23,9.39Z" style="fill: #630810"/>
      <path d="M551.69,520.69c50.33,10.49,100.67,22.27,151,32.85" style="fill: #630810"/>
      <path d="M702.7,550.33C652.37,539.75,602,528,551.7,517.48h0a2.43,2.43,0,0,0-2.93,2.6,4,4,0,0,0,2.92,3.81c50.33,10.49,100.67,22.28,151,32.86h0a2.43,2.43,0,0,0,2.93-2.59A4,4,0,0,0,702.7,550.33Z" style="fill: #630810"/>
      <path d="M558.83,483l17.86,29.7" style="fill: #630810"/>
      <path d="M561.17,481.52c-1-1.62-2.81-2.28-4.1-1.48s-1.55,2.76-.58,4.37q8.93,14.82,17.85,29.69a3.74,3.74,0,0,0,2.35,1.77,2.4,2.4,0,0,0,1.76-.27c1.29-.8,1.55-2.75.58-4.38Q570.11,496.36,561.17,481.52Z" style="fill: #630810"/>
      <path d="M558.83,508.91q9.69-10.7,19.39-21.33" style="fill: #630810"/>
      <path d="M576,485q-9.69,10.65-19.39,21.34A3.56,3.56,0,0,0,557,511a3.53,3.53,0,0,0,1.88,1.14,2.33,2.33,0,0,0,2.25-.69q9.69-10.68,19.39-21.32a3.57,3.57,0,0,0-.37-4.6C578.85,484.11,577,483.9,576,485Z" style="fill: #630810"/>
      <path d="M569,483.41l-.51,15.91" style="fill: #630810"/>
      <path d="M569.14,480.23a2.39,2.39,0,0,0-3,2.46l-.51,15.9a4,4,0,0,0,2.83,3.92l.1,0a2.41,2.41,0,0,0,2.93-2.48l.51-15.91A4,4,0,0,0,569.14,480.23Z" style="fill: #630810"/>
      <path d="M587.4,489l17.85,29.8" style="fill: #630810"/>
      <path d="M589.74,487.56c-1-1.63-2.82-2.3-4.11-1.51s-1.55,2.75-.57,4.37q8.93,14.88,17.85,29.8a3.76,3.76,0,0,0,2.35,1.78,2.39,2.39,0,0,0,1.76-.26c1.29-.79,1.55-2.75.57-4.37Z" style="fill: #630810"/>
      <path d="M587.4,514.93l19.38-21.21" style="fill: #630810"/>
      <path d="M604.54,491.17q-9.7,10.6-19.39,21.22c-1,1.14-.87,3.2.37,4.61a3.55,3.55,0,0,0,1.88,1.14,2.3,2.3,0,0,0,2.25-.67L609,496.26c1-1.13.88-3.19-.37-4.6S605.57,490,604.54,491.17Z" style="fill: #630810"/>
      <path d="M597.6,489.5q-.26,8-.5,15.91" style="fill: #630810"/>
      <path d="M597.71,486.32a2.38,2.38,0,0,0-3,2.44l-.51,15.9a4,4,0,0,0,2.82,3.93l.11,0a2.39,2.39,0,0,0,2.92-2.47l.51-15.9A4,4,0,0,0,597.71,486.32Z" style="fill: #630810"/>
      <path d="M616.47,495.28q8.94,14.91,17.86,29.84" style="fill: #630810"/>
      <path d="M618.82,493.86c-1-1.63-2.82-2.32-4.11-1.53s-1.55,2.74-.58,4.37q8.94,14.91,17.86,29.84a3.7,3.7,0,0,0,2.34,1.79,2.33,2.33,0,0,0,1.76-.26c1.3-.78,1.56-2.74.58-4.37Z" style="fill: #630810"/>
      <path d="M616.47,521.22l19.39-21.17" style="fill: #630810"/>
      <path d="M633.61,497.5l-19.38,21.17a3.56,3.56,0,0,0,.37,4.61,3.49,3.49,0,0,0,1.87,1.15,2.31,2.31,0,0,0,2.25-.66l19.39-21.17c1-1.14.87-3.2-.37-4.6S634.65,496.36,633.61,497.5Z" style="fill: #630810"/>
      <path d="M626.68,495.82l-.51,15.9" style="fill: #630810"/>
      <path d="M626.78,492.64a2.39,2.39,0,0,0-3,2.43l-.51,15.9a4.06,4.06,0,0,0,2.83,3.94l.1,0a2.37,2.37,0,0,0,2.93-2.45l.51-15.91A4,4,0,0,0,626.78,492.64Z" style="fill: #630810"/>
      <path d="M646.57,501.84l17.86,29.82" style="fill: #630810"/>
      <path d="M648.91,500.41c-1-1.62-2.81-2.3-4.1-1.52s-1.55,2.74-.58,4.37l17.85,29.82a3.74,3.74,0,0,0,2.35,1.79,2.4,2.4,0,0,0,1.76-.27c1.29-.79,1.55-2.75.58-4.37Z" style="fill: #630810"/>
      <path d="M646.57,527.78,666,506.58" style="fill: #630810"/>
      <path d="M663.71,504q-9.69,10.6-19.39,21.19a3.57,3.57,0,0,0,.37,4.6,3.51,3.51,0,0,0,1.88,1.16,2.31,2.31,0,0,0,2.25-.66q9.69-10.59,19.39-21.21c1-1.14.87-3.2-.37-4.6S664.75,502.9,663.71,504Z" style="fill: #630810"/>
      <path d="M656.78,502.37l-.51,15.9" style="fill: #630810"/>
      <path d="M656.88,499.19a2.38,2.38,0,0,0-3,2.44l-.51,15.9a4,4,0,0,0,2.83,3.93l.1,0A2.39,2.39,0,0,0,659.2,519l.51-15.9A4,4,0,0,0,656.88,499.19Z" style="fill: #630810"/>
      <path d="M675.65,508.11q8.93,14.88,17.85,29.73" style="fill: #630810"/>
      <path d="M678,506.68c-1-1.62-2.82-2.3-4.11-1.51s-1.55,2.75-.57,4.37q8.93,14.9,17.85,29.74a3.71,3.71,0,0,0,2.35,1.77,2.36,2.36,0,0,0,1.76-.28c1.29-.79,1.55-2.75.57-4.37Q686.92,521.57,678,506.68Z" style="fill: #630810"/>
      <path d="M675.65,534.06,695,512.75" style="fill: #630810"/>
      <path d="M692.78,510.23q-9.69,10.66-19.38,21.29c-1,1.13-.87,3.19.37,4.6a3.57,3.57,0,0,0,1.88,1.15,2.34,2.34,0,0,0,2.25-.67q9.69-10.64,19.38-21.32a3.55,3.55,0,0,0-.37-4.6C695.67,509.29,693.82,509.08,692.78,510.23Z" style="fill: #630810"/>
      <path d="M685.85,508.6q-.24,7.95-.5,15.91" style="fill: #630810"/>
      <path d="M686,505.42a2.39,2.39,0,0,0-3,2.45l-.51,15.9a4,4,0,0,0,2.82,3.92l.11,0a2.41,2.41,0,0,0,2.93-2.48q.24-7.95.5-15.91A4,4,0,0,0,686,505.42Z" style="fill: #630810"/>
    </g>
  </g>
</svg>
