<svg xmlns="http://www.w3.org/2000/svg" viewBox="0 0 1260 1012.04">
  <g>
    <path d="M0,90.08v920C420,738.76,840,1193.28,1260,922V2C840,273.28,420-181.24,0,90.08Z"/>
    <path d="M0,90.08C420,125.43,840,886.62,1260,922V2C840,273.28,420-181.24,0,90.08Z" style="fill: #ce1126"/>
    <path d="M1017,529c-16.48,40.78-49.46,64.82-97.83,46,2.75,4.38,28.58,26.29,56.61,17.55,23.62-7.12,51.52-26.61,57.43-64.48a134.85,134.85,0,0,0-12.81-20.4A84.22,84.22,0,0,1,1017,529Z" style="fill: #fcd116"/>
    <path d="M950,431.61c-2.48-1.56-4.4-2.66-5.58-3.24-13.19-6.53-16.49-6.63-3.3,6.4,1.74,1.71,4.82,4.22,8.84,7.4C950.17,438.69,950,434.63,950,431.61Z" style="fill: #fcd116"/>
    <path d="M944.43,428.37c1.18.58,3.1,1.68,5.58,3.24,0-2.33.28-4,1-4.33,2.75-1,23.09,10.83,27.48,10.53s3.85-9.29,5.5-8.31c1.19.85,26.44,23.5,34.18,56.56a223.83,223.83,0,0,1,15.7,17.41c-4.08-51.42-21.88-56.84-24.6-64.62s4.4,1.75,10.44,3.2-1.1-11.1-2.75-16.82,18.14,10.21,23.09,11c4.94.91-11.54-42.18-16.49-44.88s4.95.49,8.24,1.1c3.3.86-30.23-46.15-37.37-46-7.14.5,6-3.09,9.89-3.46,3.85,0-38.47-30.5-45.61-30.84-7.15.18,15.38-8.88,17.58-9.62,3.85.58-48.91-25-96.18-1.66-2.75-2.27,22.26-17.34,23.09-24.62.27-1.85-8.25-6.38-8.8-8.57s13.19-7.75,13.74-12.58c-3.3-4.43-9.34-3.18-12.64-4.46-.82-4,11.54-13.22,10.44-17.59-.82-2.43-9.89-3.76-12.09-2.32s5.77-10.86,4.4-14.7c-1.1-1.67-5.5-.88-9.89-.13-2.75-.7,14.29-22.58,11-26-3.3-3.07-49.47,19.74-66.51,47.12-17,27.72-3.84,53.54-6,63.42s-4.95,19.68-12.09,18.65-23.63-14.27-29.13-20.56-6.6-10.19-14.29-13.67-25.28-.28-31.88-1-32.43-11.23-34.07-10,25.28,16.38,31.32,20.71,6.6,8.76,11,12.26c4.39,3.65,45.61,22.55,32.42,36.83-9.3,10.15-31.33-17.18-57.71-23s-45.07,15.27-52.76,22.2-32.43,46.48-31.88,51.41,15.39-10,20.89-12.05c.55,6.54-6,12.61-4.4,15.1s19.24-8.68,25.28-7.94c1.65,4.63-3.29,7.86-1.65,14.63,2.2,2.61,12.1-8.13,18.69-9.43,1.1,5-6,12.65-2.2,19.34,2.75,1.12,19.24-14.21,24.74-15.26s-2.75,17.1,0,19.26c4.94-2.2,20.33-16.31,25.28-17.53s-.55,21.83,1.65,22.25c6-3.12,21.43-20.67,23.08-23.61s-1.65,30.79,15.39,51.86,42.87,45.58,45.62,45.87c3.3-5.46-1.1-18.33,1.65-17.44,7.69,9.05,22,22.46,25.28,22.78s-2.2-13.07,2.2-12.61c8.79,8.68,34.07,43.76,83.54,58.8-3.3-9.11-10.45-17.25-11-21.54,3.3.63,14.85,6.06,17,5.49,2.2-.42-24.18-32.3-22.53-36.66,6-.38,8.79,3.4,11,.75-2.75-4.2-25.83-30.09-25.83-36.07s7.15,1.38,9.34.37-8.79-23.87-6.59-26.47,26.38,15.28,32.42,15.15c2.35,0,3.12-3.16,3.35-7.07-4-3.18-7.1-5.69-8.84-7.4C927.94,421.74,931.24,421.84,944.43,428.37Z" style="fill: #fcd116"/>
    <path d="M1034,505a101.39,101.39,0,0,1-.83,23.07c6.27,12.49,10.18,26.07,10.18,40.85,0,71.61-64.86,76.34-83.55,73.34,20.89,18.55,100,5.67,100-76.13,0-23-10.86-43.94-26-62.67C1033.92,504,1034,504.48,1034,505Z" style="fill: #fcd116"/>
    <path d="M1034,505c0-.53-.09-1-.13-1.54a223.83,223.83,0,0,0-15.7-17.41,84.1,84.1,0,0,1,2.19,21.62,134.85,134.85,0,0,1,12.81,20.4A101.39,101.39,0,0,0,1034,505Z" style="fill: #fcd116"/>
    <path d="M1018.18,486.06C993,460.87,963.26,440,950,431.61c-.06,3,.16,7.08,0,10.56,16.38,13.13,48.45,36.56,70.4,65.51A84.1,84.1,0,0,0,1018.18,486.06Z" style="fill: #fcd116"/>
    <path d="M349.45,633.63q9.45,7.39,18.9,15L372.79,635Q361.12,634.17,349.45,633.63Z" style="fill: #fff"/>
    <path d="M361.35,670.09Q370.62,664,379.88,658q-5.78-4.71-11.53-9.36Q364.85,659.36,361.35,670.09Z" style="fill: #fff"/>
    <path d="M398.94,673.82q-3.58-11.7-7.16-23.38-6,3.75-11.9,7.57Q389.41,665.83,398.94,673.82Z" style="fill: #fff"/>
    <path d="M380.15,612.58q-3.67,11.22-7.36,22.46,7.32.54,14.63,1.2Q383.79,624.41,380.15,612.58Z" style="fill: #fff"/>
    <path d="M372.79,635l-4.44,13.61q5.76,4.64,11.53,9.36,5.94-3.82,11.9-7.57-2.17-7.1-4.36-14.2Q380.12,635.58,372.79,635Z" style="fill: #fff"/>
    <path d="M387.42,636.24q2.19,7.1,4.36,14.2,9.53-6,19.06-11.81Q399.14,637.3,387.42,636.24Z" style="fill: #fff"/>
    <path d="M278.1,403.71q18.52-14.35,37-27.71-11.52-8.52-23.05-16.67Q285.09,381.46,278.1,403.71Z" style="fill: #fff"/>
    <path d="M353.27,405.14q-7.15-23-14.32-45.94-11.9,8.21-23.81,16.8Q334.21,390.1,353.27,405.14Z" style="fill: #fff"/>
    <path d="M254.3,333.73q18.88,12.24,37.79,25.6,4.44-14.06,8.89-28.06Q277.64,331.68,254.3,333.73Z" style="fill: #fff"/>
    <path d="M315.69,285.1q-7.37,23-14.71,46.17,14.63-.25,29.25.08Q323,308.16,315.69,285.1Z" style="fill: #fff"/>
    <path d="M330.23,331.35q4.36,13.9,8.72,27.85Q358,346,377.07,333.76,353.66,331.92,330.23,331.35Z" style="fill: #fff"/>
    <path d="M301,331.27q-4.46,14-8.89,28.06,11.52,8.15,23.05,16.67Q327,367.41,339,359.2q-4.35-13.95-8.72-27.85Q315.61,331,301,331.27Z" style="fill: #fff"/>
    <path d="M109.92,545.53q18.9,6.91,37.79,15.42,4.46-15.21,8.89-30.33Q133.26,536.92,109.92,545.53Z" style="fill: #fff"/>
    <path d="M133.73,609q18.51-19.29,37-37.15-11.53-5.72-23.06-10.89Q140.72,584.86,133.73,609Z" style="fill: #fff"/>
    <path d="M208.9,592.16q-7.17-21.46-14.32-42.74-11.91,10.94-23.81,22.42Q189.83,581.29,208.9,592.16Z" style="fill: #fff"/>
    <path d="M185.86,523.59q4.37,12.87,8.72,25.83,19-17.5,38.12-33.68Q209.29,518.68,185.86,523.59Z" style="fill: #fff"/>
    <path d="M171.31,480.81Q164,505.6,156.6,530.62q14.64-3.95,29.26-7Q178.58,502.1,171.31,480.81Z" style="fill: #fff"/>
    <path d="M156.6,530.62q-4.44,15.12-8.89,30.33,11.53,5.16,23.06,10.89,11.89-11.49,23.81-22.42-4.37-13-8.72-25.83Q171.24,526.68,156.6,530.62Z" style="fill: #fff"/>
    <path d="M398,502.56q18.88,15.82,37.79,32.34,4.44-13.32,8.89-26.6Q421.33,505,398,502.56Z" style="fill: #fff"/>
    <path d="M497,589.73q-7.15-24-14.32-47.85-11.91,6.58-23.81,13.36Q477.9,572.24,497,589.73Z" style="fill: #fff"/>
    <path d="M421.79,576.89q18.52-11.11,37-21.65Q447.31,545,435.78,534.9,428.78,555.86,421.79,576.89Z" style="fill: #fff"/>
    <path d="M473.92,512.82q4.36,14.52,8.72,29.06,19.07-10.54,38.12-20.66Q497.35,516.72,473.92,512.82Z" style="fill: #fff"/>
    <path d="M459.38,464.43Q452,486.31,444.67,508.3q14.63,2.1,29.25,4.52Q466.65,488.58,459.38,464.43Z" style="fill: #fff"/>
    <path d="M444.67,508.3q-4.46,13.29-8.89,26.6Q447.3,545,458.83,555.24q11.91-6.78,23.81-13.36-4.35-14.53-8.72-29.06Q459.3,510.41,444.67,508.3Z" style="fill: #fff"/>
    <path d="M278.1,826.18q18.52-14.35,37-27.71-11.52-8.52-23.05-16.67Q285.09,803.93,278.1,826.18Z" style="fill: #fff"/>
    <path d="M353.27,827.61q-7.15-23-14.32-45.94-11.9,8.22-23.81,16.8Q334.21,812.57,353.27,827.61Z" style="fill: #fff"/>
    <path d="M254.3,756.2q18.88,12.24,37.79,25.6,4.44-14.06,8.89-28.06C285.42,754,269.86,754.81,254.3,756.2Z" style="fill: #fff"/>
    <path d="M315.69,707.57q-7.37,23-14.71,46.17,14.63-.25,29.25.08Q323,730.63,315.69,707.57Z" style="fill: #fff"/>
    <path d="M330.23,753.82q4.36,13.9,8.72,27.85,19.07-13.15,38.12-25.44Q353.66,754.39,330.23,753.82Z" style="fill: #fff"/>
    <path d="M301,753.74q-4.46,14-8.89,28.06,11.52,8.15,23.05,16.67Q327,789.89,339,781.67q-4.35-13.95-8.72-27.85Q315.61,753.49,301,753.74Z" style="fill: #fff"/>
  </g>
</svg>
