<svg xmlns="http://www.w3.org/2000/svg" viewBox="0 0 1260 1012.04">
  <g>
    <path d="M0,90.08v920C420,738.76,840,1193.28,1260,922V2C840,273.28,420-181.24,0,90.08Z" style="fill: #0038a8"/>
    <path d="M0,1010.08C420,738.76,840,1193.28,1260,922V462C840,733.28,420,278.76,0,550.08Z" style="fill: #ce1126"/>
    <path d="M0,90.08v920c181.87-270.82,363.73-405.54,545.6-522C363.73,297.87,181.87,125.93,0,90.08Z" style="fill: #fff"/>
    <path d="M196,378.69c-34.79,6.57-63,57.26-63,108s28.21,82.55,63,76,63-49.63,63-100.53C259,411.44,230.79,372,196,378.69Z" style="fill: #fcd116"/>
    <path d="M63,514.64q4.09,4,8.18,8.09a589.73,589.73,0,0,1,124.82-52A500.1,500.1,0,0,0,71.18,498.83Q67.09,506.71,63,514.64Z" style="fill: #fcd116"/>
    <path d="M83.68,537.83A741.45,741.45,0,0,1,196,470.69,657.27,657.27,0,0,0,77,531Q80.35,534.4,83.68,537.83Z" style="fill: #fcd116"/>
    <path d="M77,485.26a477.88,477.88,0,0,1,119-14.57,470.69,470.69,0,0,0-112.32,1.88Q80.34,478.89,77,485.26Z" style="fill: #fcd116"/>
    <path d="M102,360.37v16.89c31.35,28,62.7,59.3,94.05,93.43-27.49-40.5-55-78.86-82.48-114.67Q107.75,358.12,102,360.37Z" style="fill: #fcd116"/>
    <path d="M100.78,405.25c31.74,18.54,63.48,40.56,95.22,65.44-31.74-29.48-63.48-56.09-95.22-79.23Z" style="fill: #fcd116"/>
    <path d="M122.93,351q36.54,57,73.07,119.7-31.81-63.42-63.63-122.83Q127.66,349.38,122.93,351Z" style="fill: #fcd116"/>
    <path d="M187.82,290.05q4.1,90.29,8.18,180.64,4.09-91.92,8.18-183.78-4.1-5.27-8.18-10.44Q191.91,283.22,187.82,290.05Z" style="fill: #fcd116"/>
    <path d="M173.66,311.43Q184.82,390.81,196,470.69q-7.83-85.4-15.67-170.54Q177,305.77,173.66,311.43Z" style="fill: #fcd116"/>
    <path d="M196,470.69q11.17-84.17,22.34-167.86-3.33-4.36-6.67-8.7Q203.83,382.3,196,470.69Z" style="fill: #fcd116"/>
    <path d="M196,470.69c31.35-46.17,62.7-89.55,94.05-130.74v-16.9q-5.79.19-11.57.49C251,370.72,223.49,419.63,196,470.69Z" style="fill: #fcd116"/>
    <path d="M196,470.69q36.54-76.54,73.07-148.32-4.72.3-9.44.69Q227.82,395.15,196,470.69Z" style="fill: #fcd116"/>
    <path d="M291.22,367.43V353.65c-31.74,36.57-63.48,75.38-95.22,117C227.74,433.62,259.48,399.41,291.22,367.43Z" style="fill: #fcd116"/>
    <path d="M196,470.69c41.61-4,83.21-3.1,124.82,1.29q4.1-5.93,8.18-11.82-4.1-6.06-8.18-12.07A650.4,650.4,0,0,0,196,470.69Z" style="fill: #fcd116"/>
    <path d="M196,470.69a689.82,689.82,0,0,1,119-33.57q-3.35-4.87-6.68-9.73A750.19,750.19,0,0,0,196,470.69Z" style="fill: #fcd116"/>
    <path d="M308.32,492.65q3.35-4.9,6.68-9.77c-39.67-7.71-79.33-12.18-119-12.19C233.44,474.38,270.88,482,308.32,492.65Z" style="fill: #fcd116"/>
    <path d="M278.48,598.21q5.77-.29,11.57-.49V580.83c-31.35-39.1-62.7-76-94.05-110.14C223.49,511.19,251,553.83,278.48,598.21Z" style="fill: #fcd116"/>
    <path d="M291.22,567.05V553.26c-31.74-30-63.48-57.69-95.22-82.57C227.74,500.16,259.48,532.49,291.22,567.05Z" style="fill: #fcd116"/>
    <path d="M259.63,601.17q4.71-.37,9.44-.69Q232.53,533.34,196,470.69,227.82,534.11,259.63,601.17Z" style="fill: #fcd116"/>
    <path d="M187.82,654.6q4.1,5.11,8.18,10.31,4.09-6.76,8.18-13.45Q200.08,561,196,470.69,191.91,562.61,187.82,654.6Z" style="fill: #fcd116"/>
    <path d="M211.67,641.69q3.33-5.41,6.67-10.8Q207.18,550.57,196,470.69,203.83,556.07,211.67,641.69Z" style="fill: #fcd116"/>
    <path d="M180.33,647.71q7.84-88.63,15.67-177-11.17,84.15-22.34,168.8Q177,643.57,180.33,647.71Z" style="fill: #fcd116"/>
    <path d="M102,635q5.79-2.25,11.57-4.35,41.25-83.62,82.48-160c-31.35,46.16-62.7,95.11-94,147.45Z" style="fill: #fcd116"/>
    <path d="M132.37,626Q164.19,546.23,196,470.69q-36.54,76.55-73.07,158.41Q127.66,627.48,132.37,626Z" style="fill: #fcd116"/>
    <path d="M100.78,604.86c31.74-48,63.48-92.51,95.22-134.17-31.74,37.06-63.48,77-95.22,120.39Z" style="fill: #fcd116"/>
    <path d="M419.28,496.9q12-3.86,24-7.44,7.58,15.66,15.14,31.41l.51-36.51q11.83-4.19,23.68-8.16c-16.34-2.79-32.67-5.33-49-7.52Q426.43,482.75,419.28,496.9Z" style="fill: #fcd116"/>
    <path d="M458.41,423.65q-7.57,13.43-15.14,26.93-12-7-24-13.77,7.16,15.88,14.32,31.87c16.33,2.19,32.66,4.73,49,7.52q-11.85-8-23.68-15.87Z" style="fill: #fcd116"/>
    <path d="M39.63,847.45q-12.44,9-24.87,18.82,10.73,3,21.45,6.56-2.35,19.26-4.71,38.56,12.26-37.86,24.5-75-5.32-13.9-10.66-27.66Q42.49,828.09,39.63,847.45Z" style="fill: #fcd116"/>
    <path d="M56,836.43q-12.26,37.1-24.5,75,9.48-17.29,19-34.12,11,3.19,22,7-4.86-14.64-9.73-29.16Q71.84,838.17,81,821.65,68.49,828.66,56,836.43Z" style="fill: #fcd116"/>
    <path d="M72.42,136.17q-11,13.86-22,28.31-9.48-7.09-19-13.74,12.26,24.1,24.5,49Q68.48,195,81,191.1q-9.14-8.5-18.28-16.62Q67.57,155.26,72.42,136.17Z" style="fill: #fcd116"/>
    <path d="M36.21,184.07Q25.49,199.43,14.76,215.4q12.44-5.25,24.87-9.69,2.86,16.28,5.71,32.6Q50.67,218.95,56,199.72q-12.26-24.87-24.5-49Q33.86,167.39,36.21,184.07Z" style="fill: #fcd116"/>
  </g>
</svg>
