<svg xmlns="http://www.w3.org/2000/svg" viewBox="0 0 1260 1012.04">
  <g>
    <path d="M0,90.08v920C420,738.76,840,1193.28,1260,922V2C840,273.28,420-181.24,0,90.08Z" style="fill: #fff"/>
    <path d="M315,0V920c315,.66,630,205.45,945,2V2C945,205.45,630,.66,315,0Z" style="fill: #01411c"/>
    <path d="M787.5,261.54c-69.59-11.65-132.59,4.68-178.19,44.84C563.71,346.23,535.5,409.91,535.5,486c0,76.32,28.21,150.64,73.81,210.68,45.6,59.73,108.6,105.19,178.19,116.84,69.59,12,132.59-15.38,178.19-66.62,45.6-50.92,73.81-125.7,73.81-201.42,0-76.71-28.21-139.93-73.81-188.9C920.09,307.94,857.09,273.54,787.5,261.54Z" style="fill: #fff"/>
    <path d="M698.45,268.91c-95.36,72.45-104,230.28-19.19,353.14,42.38,61,100.07,101.83,159.09,112.69,59,11.17,119.36-7.68,167-58.85,47.68-50.78,73.66-121.17,77.14-186.23,3.47-65.75-15.58-126.19-58-173-42.38-46.6-100.07-74.41-159.09-84.1C806.46,223.35,746.12,232.21,698.45,268.91Z" style="fill: #01411c"/>
    <path d="M879.39,342.63q3,33.51,6,67,17.28-7,34.56-14.63Q899.66,369.32,879.39,342.63Z" style="fill: #fff"/>
    <path d="M895.08,517.94q15.42-27.83,30.85-56.23-18.42-4.93-36.85-10.7Z" style="fill: #fff"/>
    <path d="M829.47,430.56c19.87,7.38,39.74,14.25,59.61,20.45q-1.85-20.68-3.7-41.38C866.74,417.14,848.11,424.07,829.47,430.56Z" style="fill: #fff"/>
    <path d="M975.85,368.07c-18.64,9.72-37.28,18.65-55.91,26.93q12.52,15.88,25,31.35Q960.43,397.55,975.85,368.07Z" style="fill: #fff"/>
    <path d="M945,426.35q-9.53,17.81-19.06,35.36c19.87,5.32,39.74,9.87,59.61,13.51Q965.28,451.4,945,426.35Z" style="fill: #fff"/>
    <path d="M919.94,395q-17.28,7.68-34.56,14.63,1.86,20.69,3.7,41.38,18.43,5.75,36.85,10.7,9.52-17.56,19.06-35.36Q932.46,410.89,919.94,395Z" style="fill: #fff"/>
  </g>
</svg>
