<svg xmlns="http://www.w3.org/2000/svg" xmlns:xlink="http://www.w3.org/1999/xlink" viewBox="0 0 1260 1012.04">
  <defs>
    <clipPath id="a">
      <path d="M0,90.08v230c245-158.27,490-69.55,735-22v230c-35-6.79-70-14.42-105-22.06C420,306.89,210,107.75,0,90.08ZM630,46C525,23.12,420,.22,315,0V613.33c-105-.21-210,22.25-315,90.08V550.08C210,261.09,420,153.55,630,46Z" style="fill: none"/>
    </clipPath>
  </defs>
  <g>
    <path d="M0,90.08v920C420,738.76,840,1193.28,1260,922V2C840,273.28,420-181.24,0,90.08Z" style="fill: #00247d"/>
    <path d="M0,90.08C210,107.75,420,306.89,630,506m0-460C420,153.55,210,261.09,0,550.08"/>
    <path d="M315,281.43C415.3,354.88,515.61,449,615.91,544.09L644.09,468C557.87,386.23,471.65,303.83,385.44,233.3c86.21-55.38,172.43-98.88,258.65-143.06Q637,68.13,630,46c-23.48-5.12-47-10.24-70.44-15.11C478,73.54,396.52,119.22,315,178.57,233.48,118.88,152,72.86,70.44,51.13A575.74,575.74,0,0,0,0,90.08v51.43c81.52,6.86,163,41.06,244.56,92C163,301.62,81.52,386.46,0,498.65v51.43q7.05,16,14.09,32.31C114.39,448.19,214.7,354.46,315,281.43Z" style="fill: #fff"/>
    <g style="clip-path: url(#a)">
      <path d="M0,90.08C210,107.75,420,306.89,630,506m0-460C420,153.55,210,261.09,0,550.08"/>
      <path d="M315,264.29C416.87,338.88,518.74,434.82,620.61,531.4l18.78-50.76C546.91,393,454.44,304.76,362,231.54c92.48-61.82,185-108.67,277.43-156L630,46c-15.65-3.41-31.31-6.83-47-10.16C493.69,82,404.35,130.66,315,195.71c-89.35-65.42-178.69-114.42-268-133Q23.49,74.94,0,90.08v34.28c89.35,7.52,178.7,47.89,268,107.13C178.7,302.73,89.35,392.83,0,515.79v34.29q4.7,10.68,9.39,21.48C111.26,434,213.13,338.46,315,264.29Z" style="fill: #cf142b"/>
    </g>
    <path d="M315,0V613.33M0,320.08c245-158.27,490-69.55,735-22"/>
    <path d="M367.5,1.9a728.67,728.67,0,0,0-105,0h0a728.67,728.67,0,0,1,105,0Z" style="fill: #fff"/>
    <path d="M262.5,615.22a730.11,730.11,0,0,1,105,0V308.56C490,316.9,612.5,351,735,374.75V221.42c-122.5-23.78-245-57.85-367.5-66.19V1.9a728.67,728.67,0,0,0-105,0V155.22C175,161.86,87.5,186.88,0,243.41V396.74c87.5-56.52,175-81.54,262.5-88.19Z" style="fill: #fff"/>
    <path d="M315,0V613.33M0,320.08c245-158.27,490-69.55,735-22"/>
    <path d="M346.5.72c-21-.9-42-1-63-.08h0c21-.91,42-.82,63,.09Z" style="fill: #cf142b"/>
    <path d="M283.5,614c21-.91,42-.82,63,.09V276.72C476,282.31,605.5,319,735,344.08v-92C605.5,227,476,190.31,346.5,184.72V.73c-21-.91-42-1-63-.09v184C189,188.73,94.5,213,0,274.08v92C94.5,305,189,280.73,283.5,276.64Z" style="fill: #cf142b"/>
    <path d="M630,46V506c-210-45.8-420-91.6-630,44.06v460C420,738.76,840,1193.28,1260,922V2C1050,137.63,840,91.82,630,46Z" style="fill: #00247d"/>
    <path d="M817.36,675.15c-1.8-34.44,7.31-82.68,23.4-102.11-13.44,15-26.25,37.43-29.4,58.92-8.87,60.46-20.63,72.42-38.77,56,0,33.21,19.91,39.11,28.64,21,0,31.07,7.73,59.34,25.16,84.71,7.35,10.67,8.74,4.2,5.25-7s-3.48-45.84-10.46-66.66c11.18,13.3,27.6,8.6,26.21-23.72C833.07,707,818.83,704.49,817.36,675.15Z" style="fill: #f7e017"/>
    <path d="M841,573.41q6.4-7.75,12.82-15.58-6.63,7.45-13.24,14.84c-12,13.42-26.08,35.79-29.5,59.15-5.42,37-12,56.43-20.79,61.2-4.84,2.63-10.57.86-17.53-5.42l-.45-.42v.75c0,14.64,4.06,25.88,10.88,30,6.27,3.8,13.3.77,17.76-7.51.25,31.72,8.52,59.25,25.26,83.61,2.42,3.52,4.36,5.41,5.69,5.58a1.25,1.25,0,0,0,1.08-.35c1.39-1.33,1-6.18-1-12.67-1.41-4.53-2.25-13.05-3.23-22.91-1.32-13.39-3-29.91-6.71-42.13,5.64,6,12.16,7.64,17.28,4.13,6.07-4.17,9.07-14.6,8.44-29.3,0-.25,0-.5,0-.75l-.44.33c-8.84,6.55-16.63,7.48-21.92,2.71-4.49-4-7.06-12-7.63-23.52C815.92,641.58,824.85,592.88,841,573.41ZM817.05,675.14c.59,11.88,3.27,20.07,8,24.3,5.4,4.88,13.23,4.08,22.09-2.33.48,13.93-2.4,23.79-8.15,27.73-5.2,3.56-11.94,1.61-17.59-5.1l-1.06-1.26c.2.59.4,1.19.59,1.78,4.09,12.21,5.8,29.54,7.18,43.47,1,9.94,1.83,18.52,3.28,23.18,2.11,6.77,2.13,10.69,1.22,11.57-.45.42-1.93.8-6-5.07-16.85-24.53-25.05-52.29-25.05-84.36v-1.53l-.58,1.19c-4.26,8.8-11.34,12.18-17.63,8.37-6.52-3.94-10.3-14.25-10.43-28.3,6.94,6.12,12.71,7.78,17.63,5.11,9-4.87,15.66-24.53,21.12-61.79,2.91-19.81,13.56-38.93,24.06-52.4C822.54,602.32,815.46,644.86,817.05,675.14Z"/>
    <path d="M816.77,291.48c-11.84-16.89-23.43-13.7-32.08-2.87-12.94-12.35-19.79,22.57-34.44,13.79,2.43,12.16,6.3,18,13.6,15.24-7.68,8.8,0,22.46-9.07,33,16.42,10.68,25.16-1.14,24.45-24.25,6.3,9.23,16,10.32,21.29,1.92-8.74-5.47-8.78-16.54-5.25-26.34,5.25-14.35,29.86-10.19,28.48,23.23C824.71,313.07,822.91,300.26,816.77,291.48Z" style="fill: #f7e017"/>
    <path d="M817,291.17c-6.06-8.64-18.3-20.5-32.35-3.13-6.67-6.14-11.68-.21-17,6-5,6-10.27,12.1-17.31,7.88l-.55-.33c.05.28.11.56.17.83,1.5,7.52,3.42,12.12,6.06,14.5a6.83,6.83,0,0,0,6.67,1.53c-2.85,4.1-3,9-3.14,14.19-.17,6-.34,12.21-5,17.58l-.4.46.52.34a24.21,24.21,0,0,0,8.74,3.79A10.56,10.56,0,0,0,773,352.2c4.45-4.2,6.76-13,6.55-24.72,3.14,4.25,7.19,6.78,11.18,7s7.54-1.87,10-5.82l.3-.47-.44-.28a14.7,14.7,0,0,1-6.53-8.81c-1.29-4.67-.77-10.66,1.46-16.85,2.51-6.91,10-9.57,16.6-6,7.64,4.12,11.86,14.88,11.28,28.9l-.69,16.75,1.32-16.59C825.15,311.59,822.57,299.17,817,291.17Zm-4.67,4.21c-7-3.78-14.64-1-17.32,6.35-2.32,6.43-2.84,12.69-1.48,17.62a15.6,15.6,0,0,0,6.47,9.1c-2.35,3.48-5.62,5.28-9.27,5.09-4.08-.21-8.19-2.93-11.27-7.45l-.56-.82,0,1.09c.37,12-1.86,20.88-6.28,25.05-4.14,3.92-10.1,3.63-17.24-.85,4.43-5.49,4.61-11.71,4.78-17.72.16-5.51.31-10.71,3.9-14.82l1.23-1.41-1.56.58c-3,1.13-5.45.8-7.45-1-2.34-2.11-4.17-6.38-5.57-13.05,7.1,3.8,12.3-2.34,17.35-8.3,5.19-6.12,10.1-11.93,16.47-5.85l.2.2.17-.21c5.9-7.4,17.87-16.85,31.66,2.82,4,5.7,6.38,13.73,7,22.89C822.13,305.45,818.19,298.54,812.31,295.38Z"/>
    <path d="M859.4,508.5c.76-.42,1.51-.85,2.23-1.33C860.89,507.64,860.14,508.07,859.4,508.5Z" style="fill: #337321"/>
    <path d="M858.19,374.45c3.48-5.22,3.44-16.14,2.39-21.89-11.84,16.57-29,6.47-51.66,54.62,3.49-17.32,10.12-52.07,14-75,.37-2.27.67-4.56.88-6.93,1.34-33.42-23.23-37.58-28.48-23.16,5.76,10.35,2.73,20.92.67,37.34-2.43,19.49-7.68,64.58-12.22,79.1-1.38-24.2-12.22-27.59-14.32-39.69-3.15,2.52-4.87,10.36-4.2,16.06-3.86-6.8-17.14-1.58-22-11.72-5.25,14.27,3.15,31.22,11.89,39.45-5.08-.45-6.3,8.28-11.89,7.22,7.52,14.19,15.21,20.71,24.11,23.33s15.54,8.57,21,25.22c8.53,26.39,40.44,47.85,71.1,30.14-18.88,10.39-50.27-1.06-53.29-35.44-3.15-35.63,20.24-48,26.54-51.85,9.79-5.92,17.47,7.69,14.32,22.17,10.84-4.35,13.27-22.54,8-33.75,14.33,3.09,27.6-11.68,33.18-33.73C883.13,382.55,869.44,376.7,858.19,374.45Z" style="fill: #337321"/>
    <path d="M859.23,508.11c-11.92,6.51-28,4.23-39.13-5.79-7.89-7.06-12.62-17.22-13.68-29.27-3-34.43,18.72-46.85,25.88-51.12l.49-.29c4.07-2.46,8.08-1.62,11,2.34,3.31,4.49,4.45,12,2.88,19.23l-.18.85.59-.23c5-2,8.57-7,10.12-14.05a33.82,33.82,0,0,0-1.58-19.57c13.72,2.47,27.14-11.59,32.85-34.13.15-.6.3-1.2.46-1.8-.33.42-.65.85-1,1.27-3.72,4.89-12.66,2.73-21.31.48-2.6-.67-5.28-1.38-7.82-1.91,3.13-5.51,3.12-15.82,2-21.65,0-.26-.09-.53-.14-.79l-.39.54c-4,5.63-8.65,8.14-14,11-9.88,5.26-22.12,11.65-36.56,41.32,3.58-18,9.73-50.28,13.42-72.24.39-2.34.68-4.62.89-7,.58-14.51-3.82-25.64-11.78-29.9-7-3.76-14.61-1-17.29,6.42l-.09.26c0,.09.09.17.14.26,4.66,8.39,3.41,17,1.69,29-.36,2.53-.74,5.15-1.1,8-.24,2-.52,4.21-.82,6.65-2.63,21.34-7,56.49-10.9,70.72-1.1-13.75-5.28-20.39-9-26.29-2.38-3.79-4.43-7.06-5.22-11.6l-.11-.64-.36.29c-3.15,2.5-4.77,9.72-4.45,15.25-2-2.42-5.34-3-8.88-3.61-4.84-.84-9.87-1.75-12.46-7.12-.1-.22-.2-.43-.31-.64l-.22.61c-4.94,13.42,2,30,11.18,39.27-2,.28-3.42,2-4.78,3.66-1.72,2.1-3.34,4.07-6.12,3.54l-.69-.13.45.85c7.1,13.38,14.6,20.66,24.32,23.52,9.88,2.9,15.88,10.09,20.71,24.93a55.79,55.79,0,0,0,23.07,29.42,47.74,47.74,0,0,0,19.31,7.13A46,46,0,0,0,859.51,509c.77-.42,1.53-.88,2.27-1.37q16.32-10.95,32.64-22.45-16.47,11.1-32.93,21.6C860.74,507.22,860,507.68,859.23,508.11Zm-47.94-1a54.84,54.84,0,0,1-22.71-28.9c-4.94-15.18-11.09-22.54-21.21-25.52-9.36-2.75-16.62-9.67-23.47-22.32,2.64.16,4.29-1.85,5.89-3.8s3-3.71,5.35-3.5l1.12.09-1-.94c-9.22-8.68-16.44-25-12-38.21,2.86,5.22,8.05,6.15,12.64,6.95,3.82.67,7.42,1.28,9.07,4.19l.73,1.28c-.07-.53-.13-1.05-.19-1.58-.61-5.14.85-12.55,3.71-15.31.91,4.46,3,7.84,5.26,11.39,3.79,6,8.09,12.87,8.93,27.55,0,.61.07,1.23.1,1.84l.5-1.59c4.09-13.1,8.68-50.31,11.42-72.55.3-2.44.58-4.68.82-6.65.36-2.81.73-5.42,1.1-7.95,1.74-12.09,3-20.85-1.7-29.53,2.63-6.83,9.81-9.36,16.47-5.8,7.65,4.1,11.88,14.86,11.31,28.87-.2,2.32-.49,4.57-.87,6.89-3.9,23.14-10.52,57.81-14,75-.2,1-.39,1.94-.59,2.91.39-.82.77-1.63,1.15-2.45,14.84-31.49,27.36-38,37.43-43.39,5.24-2.79,9.78-5.26,13.8-10.63.9,5.85.74,15.89-2.46,20.67l-.44.66.66.13c2.71.54,5.61,1.3,8.41,2,8.54,2.22,16.64,4.18,20.89.31-5.91,21.61-19.1,34.81-32.45,31.92l-.67-.15.39.85a32.12,32.12,0,0,1,1.86,19.57c-1.43,6.5-4.67,11.19-9.15,13.25,1.37-7.28.12-14.79-3.25-19.37-3.12-4.23-7.38-5.15-11.69-2.54l-.49.29c-7.26,4.33-29.33,16.91-26.23,52,1.1,12.36,5.94,22.78,14,30a36.65,36.65,0,0,0,30.28,9.13C837.13,516.52,823.49,514.79,811.29,507.1Z"/>
    <path d="M806.15,473c3.15,35.78,37,46.69,55.52,34.1-22,28.48-57.29,4.36-90.13,43.43-10.5,15-5.59,35.75.34,42.93a15.27,15.27,0,0,0,5,3.8c12-14.12,56.87-39.13,78.88-44.84,12.93-3.07,41.58-30.95,52-72.89-2.1-7.2-13.28-27.24-17.1-33.73C862.05,488.84,826.06,483.77,806.15,473Z" style="fill: #f7e017"/>
    <path d="M890.89,445.52c-.08-.13-.16-.26-.23-.39l-.24.35c-32.77,49.32-72.72,33.34-84.19,27.09l-.46-.24c0,.23,0,.46.07.69,1.09,12.36,5.94,22.78,14,30,11.42,10.24,27.82,12.51,39.93,5.74-9.65,11-21.87,13-34.77,15-16.71,2.5-35.65,4.92-53.7,26.44-5.9,8.45-6.58,17.89-6.1,24.35.55,7.61,3.1,15.18,6.48,19.28a15.52,15.52,0,0,0,5.07,3.89l.17.08.12-.14c11.93-14,56.82-39.06,78.73-44.76,13.05-3.1,41.67-30.67,52.26-73.17l0-.17,0-.17C905.89,472,894.55,451.75,890.89,445.52ZM855.63,552c-21.91,5.69-66.72,30.68-78.89,44.78a14.61,14.61,0,0,1-4.68-3.63c-3.24-3.92-5.69-11.22-6.23-18.58-.46-6.26.2-15.44,5.93-23.63,17.9-21.35,36.74-23.76,53.37-26.25,13.75-2,26.73-4.25,36.76-17.2l1.65-2.12-2,1.35c-12.08,8.13-29.48,6.25-41.38-4.43-7.73-6.92-12.43-16.83-13.61-28.58,7.29,3.83,21.63,9.5,38.67,6.37,17.41-3.19,32.69-14.57,45.45-33.55,3.84,6.56,14.57,25.81,16.76,33C896.85,521.63,868.54,548.9,855.63,552Z"/>
    <path d="M906.74,481.51c-11.47,45.29-42.09,65-66,91.53-16.59,18.51-25.2,67.66-23.44,102.1.5,9.58,2.31,16.27,5.08,20.58,1.22-19.26,10.46-67.9,34-87.65,19.91-16.6,51-56.92,62.54-105.11A41.13,41.13,0,0,0,906.74,481.51Z" style="fill: #337321"/>
    <path d="M906.91,481.13l-.33-.32c-.05.17-.09.35-.14.53-8.55,33.72-28.1,53.6-47,72.06-6.33,6.2-12.88,12.55-18.89,19.27-7.68,8.58-14.32,24.63-18.7,45.27A231,231,0,0,0,817,675.13c.48,9.28,2.23,16.31,5.17,20.89l.48.73.06-.94c1-16.3,9.46-66.88,33.87-87.34,17.51-14.55,50.4-54.15,62.67-105.35l0-.15,0-.15A41.55,41.55,0,0,0,906.91,481.13ZM856.25,607.67c-24.15,20.23-32.79,69.61-34.09,87-2.56-4.41-4.08-11-4.53-19.51-1.77-34.73,7.17-83.7,23.33-101.73,6-6.71,12.53-13,18.86-19.24,18.87-18.44,38.39-38.3,47.08-72A40.46,40.46,0,0,1,918.63,503C906.39,553.84,873.67,593.18,856.25,607.67Z"/>
    <path d="M806.06,473.12c13.28,9.25,46.12,14.51,62.54,6.7-.17,4.83-1.05,10.57-3.82,14.9,12.89-5.89,26.38-22.77,32.3-35.41-1.22-4.43-3.66-8.64-6.51-13.38C862,489,826,483.89,806.06,473.12Z" style="fill: #316d3a"/>
    <path d="M890.8,445.64l-.23-.39-.23.35c-32.77,49.31-72.73,33.33-84.2,27.08-2.16-1.15-4.31-2.31-6.47-3.48l6.28,4.33c13.47,9.38,45.86,14.4,62.31,6.94-.28,5.83-1.53,10.52-3.72,13.93l-.84,1.31,1.19-.55c13.09-6,26.49-22.86,32.45-35.58l.09-.2-.06-.23C896.14,454.68,893.77,450.57,890.8,445.64Zm-25,48.11c1.88-3.56,2.94-8.22,3.14-13.88,0-.23,0-.47,0-.7l-.45.21c-11.59,5.44-31.63,4.6-47,.05a56.93,56.93,0,0,0,23.65.73c17.4-3.19,32.69-14.56,45.45-33.55,2.76,4.6,5,8.49,6.15,12.62C890.94,471.45,878.32,487.45,865.78,493.75Z"/>
    <path d="M798.46,613.63c7.35-8.56,3.15-25-3.82-30.16-1.39,19.67-16.76,17.14-22.72,10s-10.88-27.92-.38-42.93c-26.71,31.71-9.07,66.73,1.39,75.74-2.78,25.05,13.6,24.77,13.27,46.1,6.63-4.49,8.4-19.07,7.35-30.94,8.4,14.65,29.69,2.94,34.23,28C830.59,642.71,816.27,613.91,798.46,613.63Z" style="fill: #337321"/>
    <path d="M799.31,613.2c2.72-3.66,3.83-8.79,3.13-14.57-.79-6.51-3.88-12.76-7.68-15.57l-.39-.29c0,.2,0,.4,0,.6-.63,8.86-4.1,12.42-6.9,13.84-5.24,2.65-11.91,0-15.33-4.08-3.26-3.92-5.71-11.21-6.26-18.57-.47-6.26.18-15.44,5.93-23.67l5.24-7.51-5.69,6.78c-7.46,8.9-15.92,23.52-13.85,43.08,1.7,16.1,9.89,28.61,15.11,33.24-1.41,13.44,2.7,19.73,6.67,25.8,3.49,5.33,6.79,10.35,6.63,20v.81l.48-.33c6.46-4.37,8.46-18,7.62-30,3.63,5.39,9.23,6.89,14.66,8.3,8,2.1,16.26,4.15,18.84,18.43.13.72.27,1.44.4,2.16.07-.71.15-1.42.22-2.13,1.49-14.17-1.71-29.46-8.56-41C813.92,619.1,806.78,613.69,799.31,613.2Zm28.34,54c-3.09-13-11.16-15-19-17.1-5.91-1.53-11.48-3-14.9-9-.23-.39-.45-.78-.67-1.17l.12,1.46c1,11.72-.65,25.44-6.71,30.16,0-9.57-3.5-14.83-6.84-19.93-4.07-6.21-7.9-12.09-6.44-25.28l0-.33-.21-.18c-5.09-4.38-13.28-16.73-15-32.68-1.42-13.45,2.14-26.45,10.32-38a39.39,39.39,0,0,0-3.2,19.31c.57,7.61,3.13,15.18,6.53,19.27,3.57,4.26,10.51,7,16,4.27,2.89-1.46,6.45-5.07,7.22-13.92,3.43,2.8,6.18,8.55,6.91,14.53s-.56,11.06-3.57,14.56l-.71.82h1c7.57.11,14.89,5.43,20.59,15C825.46,639.85,828.62,653.93,827.65,667.24Z"/>
    <path d="M836.14,797.26c-1-7.8-4.37-7.43-6.81-5.72-2.9,2.07-2.69,7.55-.88,11.35,3.65,7.58-2.6,23,9.24,28,3.49,1.47,6.17-1.34,7.52-7C848.86,808.24,837.19,805.07,836.14,797.26Z" style="fill: #f7e017"/>
    <path d="M840.41,804.38c-1.86-2.32-3.61-4.53-4-7.17-.44-3.28-1.31-5.46-2.61-6.48-1.59-1.27-3.41-.49-4.65.39h0a6.11,6.11,0,0,0-2.26,4.25,14.38,14.38,0,0,0,1.29,7.76c1.23,2.57,1.28,6.14,1.33,9.93.1,7,.2,14.94,8.1,18.26a4.92,4.92,0,0,0,1.38.38c2.91.36,5.24-2.34,6.5-7.65C847.91,813.76,843.75,808.57,840.41,804.38Zm4.5,19.31c-1.34,5.64-3.94,8.1-7.16,6.74-7.4-3.11-7.49-10.34-7.59-17.31,0-3.93-.1-7.65-1.46-10.47a13,13,0,0,1-1.17-7,5.3,5.3,0,0,1,2-3.69c1.12-.78,2.74-1.49,4.08-.42,1.1.87,1.86,2.81,2.26,5.78s2.24,5.31,4.19,7.75C843.37,809.27,847.17,814,844.91,823.69Z"/>
    <path d="M853.23,831.71c-2.6-7.21-9.41-11.3-13.94-8.79-3.91,2.16-7.35,5.45-5.76,24,.63,7.69.34,26.06-4.2,25.71,2.77,2.39,8.74,5.35,11.17.92,2.36,6.06,7.69,5,9.79-1.92,2.77,3.63,6.64-1.54,6.64-6.39,2.43,2.53,7.35-.29,6.09-11.33,3,1.83,6.8-.88,8.19-3.57C866.84,848.66,855.83,838.89,853.23,831.71Z" style="fill: #f7e017"/>
    <path d="M853.51,831.52c-2.63-7.28-9.61-11.65-14.36-9-4,2.24-7.54,5.76-5.93,24.45.52,6.37.41,20-2.2,24.11-.5.8-1.06,1.17-1.7,1.12l-1.23-.1,1.1,1c3,2.63,8.66,5.15,11.28,1.31,1,2.15,2.4,3.45,4,3.64l.34,0c2.29,0,4.41-2.1,5.61-5.64a2.5,2.5,0,0,0,3.32.56c1.81-1,3.26-4,3.47-6.9a2.84,2.84,0,0,0,3.7-.28c1-.86,3.19-3.66,2.49-11.14,3.05,1.39,6.68-1.27,8.06-4l.29-.55-.48-.19C867,848.26,856.11,838.68,853.51,831.52Zm9.61,22-.5-.31.09.77c.85,7.49-1.22,10.17-2.15,11a2.38,2.38,0,0,1-3.46-.06l-.49-.5v.84c0,2.76-1.41,5.83-3.14,6.84a2.11,2.11,0,0,1-3-.75l-.33-.42c0,.18-.1.36-.16.54-1.07,3.52-3.07,5.69-5.24,5.65-1.63,0-3.08-1.39-4-3.72l-.24-.62-.29.52c-2.1,3.81-7.13,1.69-9.94-.35a3.21,3.21,0,0,0,1.19-1.19c2.74-4.33,2.88-18.29,2.34-24.81-1.55-18.08,1.61-21.34,5.58-23.54,4.47-2.47,11.05,1.68,13.53,8.56,2.58,7.1,13,16.5,17.7,18.65C869.13,852.93,865.74,855.09,863.12,853.48Z"/>
    <path d="M778.5,297.8c.18.2.35.41.52.61a54.77,54.77,0,0,1,5.89-9.43l-.44-.73A56.18,56.18,0,0,0,778.5,297.8Z"/>
    <path d="M845.05,374.86c.11.28.21.56.31.84,2.59-1.87,6.66-2.14,12.81-.91l0-.92C851.84,372.61,847.78,372.89,845.05,374.86Z"/>
    <path d="M840,853.82l-.61-.25c-.89,6.4-.43,17.36.84,20.2l.52-.46C839.68,870.89,839.11,860.4,840,853.82Z"/>
    <path d="M844.39,854.81l-.63.05c.67,6.95,4.48,14.84,6.34,17.11l.38-.69C848.74,869.15,845,861.41,844.39,854.81Z"/>
    <path d="M847.53,844l-.61.16c1.36,7.75,7.4,19.58,9.87,21.52l.27-.81C854.7,863,848.81,851.26,847.53,844Z"/>
    <path d="M847.91,833.76l-.54.41C851,843.41,859.88,853,863,854.28l.13-.88C860.1,852.16,851.45,842.79,847.91,833.76Z"/>
    <path d="M1024,563.82q-.35,25.56-.71,51.11c18.52,7.06,36.33,39.46,39.82,61.71C1069.78,650.42,1067,610.59,1024,563.82Z" style="fill: #f7e017"/>
    <path d="M1024.25,563.44l-.51-.56q-.36,26-.73,52.08v.34l.22.08c17.88,6.83,36,38.22,39.61,61.42l.22,1.42c.13-.49.25-1,.38-1.47C1068.86,655.2,1071,614.17,1024.25,563.44Zm39,111.62c-4.15-23.16-21.93-53.57-39.57-60.49q.35-24.92.7-49.82C1069.21,613.8,1068.26,653.4,1063.22,675.06Z"/>
    <path d="M908.8,566.31c-5.76-11-6.22-21.8-6.3-28.91-18.64-1-37.27-2.72-55.91-4.88V670.21c0,117.23,44.73,192.28,90.14,229.47C982.17,864,1026.86,789,1026.86,671.54V533.85a646.71,646.71,0,0,1-79.63,4.82C936.89,551,922,565.08,908.8,566.31Z" style="fill: #337321"/>
    <path d="M947,538.32c-8.19,9.75-24,26.09-38.09,27.52-5.93-11.49-6.06-22.93-6.13-28.43V537c-18.85-1.06-37.69-2.75-56.53-4.94V670.17c0,53.83,9.45,102.89,28.09,145,15.26,34.44,36.19,63.45,62.2,84.88l.16.12.15-.12c26-20.66,47-49.2,62.22-83.53,18.63-42,28.07-91.2,28.07-145V533.35a647.6,647.6,0,0,1-80.06,4.86Zm79.51-4V671.58c0,53.66-9.41,102.71-28,144.49-15.17,34.13-36,62.51-61.84,83.08-25.86-21.33-46.66-50.18-61.83-84.42-18.57-42-28-90.85-28-144.48V533c18.42,2.14,36.85,3.79,55.28,4.83.07,5.79.36,17.24,6.36,28.74l.1.21.18,0c14.25-1.32,30.21-17.76,38.51-27.64A647.47,647.47,0,0,0,1026.54,534.35Z"/>
    <path d="M846.68,670.22c0,35.39,4.07,66.91,11,94.75q39.54-101.79,79.09-207,39.54,106.47,79.08,208.41c6.93-27.78,11-59.41,11-94.8V533.85c-60.06,7.49-120.12,5.64-180.18-1.32Z" style="fill: #006ec7"/>
    <path d="M846.36,670.18c0,33.56,3.71,65.53,11,94.92l.24,1q39.57-101.85,79.14-207.18,39.4,106.11,78.81,207.7l.33.85.24-1c7.31-29.34,11-61.36,11-95V533.35C966.9,540.9,906.63,539,846.36,532ZM847,533c59.85,6.92,119.7,8.76,179.55,1.33V671.58c0,33.13-3.61,64.7-10.74,93.66q-39.37-101.32-78.75-207.53c-.1-.25-.19-.49-.28-.74q-39.53,105.36-79,206.9c-7.13-29-10.75-60.54-10.75-93.61Z"/>
    <path d="M855.29,754.6c1.38,6.4,3.9,16.79,5.88,23.24q37.8-98.76,75.6-200.71,37.8,103.11,75.6,202.09c1.93-6.45,4.49-16.84,5.88-23.25Q977.53,650.1,936.81,539,896.06,648.84,855.29,754.6Z" style="fill: #f7e017"/>
    <path d="M959.74,822.16a58.13,58.13,0,0,1,7,6.33c-5.25,7.85-17.52,20.84-24.49,23.83V742.9c0-7.67-1.76-14.06-1.76-20.44V699.83c0-5.09-.72-12.51-3.83-12.55s-3.82,7.36-3.82,12.45v22.63c0,6.38-1.76,13.77-1.76,20.39V852.17c-3.82-16.35-18.9-11.28-25.87-28a13.77,13.77,0,0,1,8.4-.09c-5.25-26.18-19.58-29.06-22.35-37,0,10.73-3.15,35.48,1.77,46.55a20.17,20.17,0,0,1,4.74-5.34c5.92,19.4,32.64,20.51,38.94,51.54,5-11.35,23.22-24.59,35.95-45.07,2.1,1.45,6,4.11,7.68,5.06,4.2-12.48,4.88-29.82,3.49-45.08C979.31,812,963.94,812,959.74,822.16Z" style="fill: #f7e017"/>
    <path d="M984,793c-.15.56-.29,1.12-.44,1.68-2.57,9.7-8.79,13.93-14.28,17.57-4.1,2.73-8,5.26-9.81,9.72-.06.14-.11.29-.17.43l.3.22a55.27,55.27,0,0,1,6.67,6c-5,7.35-16.62,19.82-23.68,23.13V742.9a84.77,84.77,0,0,0-1-11.25,70.43,70.43,0,0,1-.82-9.18V699.83c0-3-.3-13-4.14-13s-4.13,9-4.13,12.9v22.64a79.8,79.8,0,0,1-.87,9.92,85.54,85.54,0,0,0-.9,10.47V849.84c-2.31-7-6.93-9.49-11.8-12.22s-9.92-5.6-13.25-13.13a13.24,13.24,0,0,1,7.84,0l.51.17-.15-.73c-3.55-17.72-11.14-24.78-16.69-30-2.68-2.53-4.8-4.54-5.68-7-.2-.56-.4-1.12-.59-1.68v1.86c0,2.62-.19,6-.41,10-.65,11.95-1.54,28.32,2.23,36.81.07.17.15.35.23.52l.27-.45a19.79,19.79,0,0,1,4.37-5c2.66,8.07,9,13.1,15.67,18.31,9.15,7.15,19.51,15,23.09,32.7.07.33.13.65.2,1l.37-.84c2.47-5.57,8.19-11.64,14.82-18.78,6.81-7.33,14.52-15.75,20.94-26,2.13,1.48,5.82,4,7.49,4.93l.27.15.14-.39c3.82-11.35,5.1-27.89,3.51-45.34C984.11,794.12,984.06,793.54,984,793Zm-3.79,46.32c-1.82-1-5.41-3.52-7.39-4.89l-.21-.15-.16.26c-6.41,10.28-14.17,18.75-21,26.11-6.36,6.86-11.9,12.73-14.6,18.22-3.82-17.44-14.11-25.23-23.21-32.33-6.72-5.24-13.07-10.28-15.54-18.33l-.15-.47-.3.24a20.52,20.52,0,0,0-4.54,5c-3.39-8.36-2.53-24.11-1.9-35.68.18-3.28.34-6.19.39-8.6,1.12,2.11,3,3.92,5.34,6.09,5.38,5.08,12.72,11.92,16.26,28.76a14,14,0,0,0-8,.24l-.42.13c.08.18.15.37.23.55,3.44,8.23,8.71,11.24,13.81,14.09s10.11,5.6,12,13.83c.2.88.41,1.76.61,2.63V742.76a85.63,85.63,0,0,1,.89-10.3,83.08,83.08,0,0,0,.88-10.09V699.74c0-2.83.25-12,3.5-12,2.59,0,3.51,6.26,3.51,12.09v22.63a70.68,70.68,0,0,0,.83,9.36A82.77,82.77,0,0,1,942,742.9v110l.4-.18c7.24-3.11,19.61-16.46,24.62-24l.26-.39-.3-.31a60.32,60.32,0,0,0-6.75-6.14c1.8-4,5.47-6.36,9.34-8.93,5.3-3.52,11.26-7.57,14.15-16.52C985,813,983.76,828.46,980.21,839.27Z"/>
    <path d="M968.35,723.81c-6.8.3-25.66-2.39-31.62-2.55-5.93,0-24.78,2.19-31.63,1.75-1.76-.09-3.23,3.69-3.23,8.47s1.42,8.73,3.23,8.83c6.85.44,25.7,3.88,31.63,3.89s24.78-2.8,31.62-3.1c1.77-.05,3.24-4,3.24-8.75S970.16,723.75,968.35,723.81Z" style="fill: #f7e017"/>
    <path d="M968.35,723.35a158.75,158.75,0,0,1-16.73-1.16c-6.17-.65-12-1.35-14.89-1.39s-8.67.51-14.81,1a159,159,0,0,1-16.82.76c-2-.1-3.55,3.89-3.55,8.92s1.56,9.19,3.55,9.3c3.53.19,10.29,1.27,16.82,2.21,6.14.89,11.94,1.64,14.81,1.68a148.32,148.32,0,0,0,14.8-1.29c6.53-.77,13.29-1.69,16.82-1.81,2-.06,3.55-4.2,3.55-9.22S970.34,723.29,968.35,723.35Zm0,17.29c-3.56.12-10.32,1-16.87,1.81a147.83,147.83,0,0,1-14.75,1.29c-2.85,0-8.63-.79-14.76-1.67-6.54-.94-13.31-2-16.87-2.22-1.61-.08-2.92-3.83-2.92-8.35s1.34-8.11,2.92-8a157.08,157.08,0,0,0,16.87-.76c6.12-.48,11.91-1,14.76-1s8.69.74,14.85,1.39a159,159,0,0,0,16.77,1.16c1.61,0,2.92,3.57,2.92,8.09S969.93,740.6,968.35,740.64Z"/>
    <path d="M935.3,706.52c0,5.27-3.19,9.52-7.14,9.42s-7.18-4.5-7.18-9.77,3.23-9.46,7.18-9.36a6.42,6.42,0,0,1,4.74,2.49c0-2.21.3-4.78.42-6.12a9.54,9.54,0,0,0-5.16-1.77c-6.18-.15-11.22,6.33-11.22,14.61s5,15.17,11.22,15.32,11.21-6.49,11.21-14.77C939.37,702.46,935.3,702.41,935.3,706.52Z" style="fill: #f7e017"/>
    <path d="M935,706.51c0,5-3.06,9.07-6.82,9s-6.87-4.28-6.87-9.3,3.08-9,6.87-8.91a6.15,6.15,0,0,1,4.55,2.39l.51.61v-1c0-1.84.21-4,.35-5.37,0-.34.06-.69.1-1l-.21-.15a9.88,9.88,0,0,0-5.3-1.81c-6.36-.15-11.53,6.55-11.53,15.06s5.17,15.64,11.53,15.79,11.53-6.72,11.53-15.23C939.69,701.93,935,701.87,935,706.51Zm-6.82,14.37c-6-.14-10.9-6.85-10.9-14.85s4.89-14.31,10.9-14.16a9.29,9.29,0,0,1,4.82,1.58c0,.12,0,.23,0,.35-.11,1.21-.29,2.94-.34,4.6a6.41,6.41,0,0,0-4.44-2c-4.14-.1-7.5,4.28-7.5,9.81s3.37,10.14,7.5,10.24,7.45-4.35,7.45-9.88c0-1.8.9-2.61,1.72-2.6a1.52,1.52,0,0,1,1.19.67,3.32,3.32,0,0,1,.54,2C939.06,714.56,934.17,721,928.16,720.88Z"/>
    <path d="M905.14,723v17.29c1.77.1,3.19-3.7,3.19-8.48S906.91,723.11,905.14,723Z" style="fill: #f7e017"/>
    <path d="M905.14,722.56v.92c1.56.08,2.88,3.9,2.88,8.33s-1.32,8.13-2.88,8v.92c2,.11,3.51-3.82,3.51-8.93S907.11,722.66,905.14,722.56Z"/>
    <path d="M907.75,723.15v17.3c1.76.09,3.19-3.71,3.19-8.5S909.51,723.24,907.75,723.15Z" style="fill: #f7e017"/>
    <path d="M907.75,722.69v.92c1.55.08,2.87,3.89,2.87,8.33s-1.32,8.13-2.87,8v.92c2,.1,3.5-3.83,3.5-8.94S909.71,722.79,907.75,722.69Z"/>
    <path d="M925,722.05v20.86c2.14.06,3.86-4.56,3.86-10.33S927.15,722.12,925,722.05Z" style="fill: #f7e017"/>
    <path d="M925,721.6v.92c2,.05,3.55,4.56,3.55,10.06s-1.6,9.92-3.55,9.87v.92c2.34.07,4.18-4.68,4.18-10.78S927.35,721.66,925,721.6Z"/>
    <path d="M929,721.61v21.83c2.22,0,4-4.82,4-10.83S931.22,721.66,929,721.61Z" style="fill: #f7e017"/>
    <path d="M929,721.15v.92c2,0,3.71,4.86,3.71,10.53S931,743,929,743v.92c2.4.06,4.34-5,4.34-11.29S931.4,721.2,929,721.15Z"/>
    <path d="M942.44,721.68v22.08c2.27,0,4.07-5,4.07-11S944.66,721.69,942.44,721.68Z" style="fill: #f7e017"/>
    <path d="M942.44,721.22v.92c2,0,3.76,4.86,3.76,10.59s-1.69,10.58-3.76,10.57v.92c2.46,0,4.39-5,4.39-11.49S944.86,721.23,942.44,721.22Z"/>
    <path d="M946.64,722.12v21.35c2.22,0,4-4.8,4-10.69S948.86,722.12,946.64,722.12Z" style="fill: #f7e017"/>
    <path d="M946.64,721.66v.92c2,0,3.72,4.67,3.72,10.2S948.65,743,946.64,743v.92c2.4,0,4.35-5,4.35-11.15S949,721.66,946.64,721.66Z"/>
    <path d="M965.41,723.65v17.66c1.81,0,3.28-4,3.28-8.92S967.22,723.6,965.41,723.65Z" style="fill: #f7e017"/>
    <path d="M965.41,723.19v.92c1.61,0,3,3.75,3,8.29s-1.35,8.41-3,8.45v.92c2,0,3.59-4.18,3.59-9.39S967.42,723.14,965.41,723.19Z"/>
    <path d="M905.27,824.22a21.3,21.3,0,0,0-7.48,4.11C900.28,827,902.78,825.6,905.27,824.22Z" style="fill: #f7e017"/>
    <path d="M897.63,827.93l.33.81a21.07,21.07,0,0,1,7.38-4.07c-.05-.3-.1-.6-.14-.9A21.62,21.62,0,0,0,897.63,827.93Z"/>
    <path d="M968.86,830.57c-.69-.69-1.38-1.38-2.06-2.08C967.51,829.27,968.23,829.92,968.86,830.57Z" style="fill: #f7e017"/>
    <path d="M967,828.12c-.13.25-.26.49-.38.74.42.46.84.88,1.25,1.28s.55.54.81.81l.37-.75c-.26-.28-.54-.55-.82-.83S967.41,828.57,967,828.12Z"/>
    <path d="M983.89,808q-5.61,13.43-11.21,26.77A86.89,86.89,0,0,0,983.89,808Z" style="fill: #f7e017"/>
    <path d="M972.45,834.49c.15.21.31.41.46.61a87,87,0,0,0,11.28-26.94l-.6-.26A85.5,85.5,0,0,1,972.45,834.49Z"/>
    <path d="M951.22,627.53q-11.47.08-22.94-.21c-1.76,0-2.56,1-4.53,3.07-1.64,1.73-3,2.72-3,5.23v42.82q15.25.51,30.5.43c1.72,0,2.1-.7,2.1-3V630.46C953.32,628.13,952.9,627.52,951.22,627.53Z" style="fill: #fff"/>
    <path d="M951.22,627.07q-11.47.07-22.94-.21c-1.72,0-2.57.86-4.27,2.67l-.45.48-.66.68c-1.24,1.26-2.33,2.36-2.47,4.43q0,21.89,0,43.76,15.4.54,30.81.45c1.85,0,2.41-.82,2.41-3.43V630.45C953.63,627.84,953.07,627.06,951.22,627.07ZM953,675.91c0,2-.21,2.49-1.78,2.5q-15.09.09-30.18-.42V635.64c0-1.93.93-2.88,2.22-4.19l.68-.69.45-.49c1.63-1.73,2.38-2.53,3.89-2.49q11.47.29,22.94.21c1.5,0,1.78.38,1.78,2.47Z"/>
    <path d="M952.14,632.12c0-2.14-.38-2.75-1.93-2.74q-10.61,0-21.21-.2c-1.68,0-2.4.92-4.2,2.89-1.51,1.62-2.77,2.62-2.77,4.95v45.45q11.76.38,23.52.4h0c3,0,2.47-.13,4.57-3.2s2-3,2-5.9Z" style="fill: #e5e5e5"/>
    <path d="M950.21,628.92q-10.61,0-21.21-.2c-1.65,0-2.47.86-4,2.5l-.94,1c-1.28,1.34-2.39,2.48-2.39,4.78v45.9q11.92.4,23.84.42c2.52,0,2.7-.1,3.93-2,.23-.37.51-.8.86-1.32,2.07-3,2.13-3.14,2.12-5.55V632.12C952.45,629.68,951.91,628.91,950.21,628.92Zm-.31,50.42c-.36.54-.65,1-.88,1.35-1.1,1.72-1.1,1.72-3.47,1.72q-11.61,0-23.21-.39V637c0-1.83.89-2.76,2.13-4l1-1c1.47-1.62,2.14-2.36,3.57-2.32q10.61.24,21.21.2c1.36,0,1.62.35,1.62,2.28v42.35C951.84,676.55,951.84,676.56,949.9,679.34Z"/>
    <path d="M945.71,633.43q-11.46,0-22.93-.38c-1.68,0-2.06.61-2.06,2.88v45.51c0,2.33.34,3,2.06,3q11.47.36,22.93.38c1.73,0,2.1-.68,2.1-2.94V636.38C947.81,634,947.44,633.43,945.71,633.43Z" style="fill: #fff"/>
    <path d="M945.71,633q-11.46,0-22.93-.37c-1.79-.06-2.37.74-2.37,3.32v45.51c0,2.64.53,3.42,2.37,3.48q11.47.36,22.93.38c1.85,0,2.42-.8,2.42-3.41v-45.5C948.13,633.74,947.59,633,945.71,633Zm1.79,48.92c0,2-.21,2.48-1.79,2.48q-11.46,0-22.93-.38c-1.58,0-1.74-.53-1.74-2.54V635.94c0-2,.2-2.47,1.74-2.42q11.47.36,22.93.37c1.52,0,1.79.37,1.79,2.49Z"/>
    <path d="M979.65,396c-13.61-10.57-77.53-21.19-78.58-2.35-1.68,3-3.53,6.41-5.21,9.92-10.5,5.48-23.44,19.37-28,33.22,4.24,0,10.83,1.29,16.55,3.08,8.73,12.6,21.29,40.93,27.25,66.26-11.55,13.72-12,43.78-2.94,60.09,31.08-4.61,51.75-55.32,69.51-53.81,11.89.95,13.61,12.4,10.84,24.87l6.64-.45c2.43-9.76,1-19.39-3.49-26.38C985.61,491.06,979.69,418,979.65,396Z" style="fill: #96877d"/>
    <path d="M980,396v-.26l-.15-.12c-11.35-9.07-60.83-18.05-75.12-8.73a8.45,8.45,0,0,0-3.93,6.58c-1.69,3.06-3.49,6.35-5.11,9.73-10.13,5.34-23.37,19.11-28,33.39l-.22.67h.53a65.14,65.14,0,0,1,16.38,3c8.59,12.44,21,40.23,27,65.68-11,13.38-12.45,43.21-2.82,60.53l.11.2.18,0c16.67-2.45,30.21-18,42.16-31.94,10.26-12,19.12-22.53,27.28-21.87,4.88.41,8.29,2.59,10.13,6.55,2.44,5.28,1.58,12.56.43,17.73l-.14.61c2.43-.15,4.87-.31,7.3-.49,0-.1,0-.2.07-.31,2.42-9.7,1.14-19.44-3.52-26.78C985.74,490.29,980,417.3,980,396Zm15.56,140.4c-2,.15-4,.28-6,.41,1.57-7.43,1.35-13.61-.64-17.91s-5.51-6.51-10.6-6.93c-8.42-.69-17.36,10-27.72,22.07-11.84,13.82-25.26,29.21-41.69,31.72-9.35-17.07-7.88-46.3,3-59.25l.16-.2L912,506c-6.06-25.73-18.66-53.92-27.34-66.44l-.07-.1-.09,0a73.94,73.94,0,0,0-14.11-3q-1.05-.09-2-.12c4.82-13.89,17.7-27.18,27.58-32.34l.09,0,0-.12c1.64-3.43,3.47-6.78,5.2-9.9l0-.1v-.14a7.61,7.61,0,0,1,3.59-6c14.12-9.21,62.82-.37,74.37,8.57.08,21.69,5.84,94.54,12.63,114.4l0,.1C996.49,517.83,997.76,527.13,995.52,536.41Z"/>
    <path d="M918.58,437.2c-8.73,8.9-21.63,8.16-27.93,5.12,13.23,20,22.64,48.39,24.15,82.44-3.27,1.33-5.29,24.23-4.83,33.7-.17-7.68,1.93-21.37,5-26.58,6.8-1.72,17.39-6.81,21-14.44-4.16,4.81-14.57,11.28-19.28,11.07,2.44-21.37-2.73-62-8.65-79.07,6.85,9,10,23.92,11.72,30.86-.55-9.71-2.1-21.73-4-28.43,4.7,4.23,3.15,9.57,7.69,15.3-2.78-16.17.71-23.19,8.56-28.37,8.19-4.48,37.22-20.64,39.82-10.74a36.28,36.28,0,0,0-.71-13.22C960.16,407,930.09,426.59,918.58,437.2Z"/>
    <path d="M977.63,452.06c-.16,4.12,5.76,42.35,6.81,47.62a24.8,24.8,0,0,0-6.47-2.74c-1.55-6.31-4-22-5.92-35.7l-3.87,2.4c.55,5.57,3.87,28.45,4.37,33.77a37.61,37.61,0,0,0-10.67,5.4c13.78-5.75,24.57-1.32,30.37,7.67-4-11.81-7.31-42-9.37-62.79Z"/>
    <path d="M978.31,512.5c-9.2-.75-19.2,12.6-31,26.17q20.91,0,41.83-1.31C991.91,524.89,990.19,513.45,978.31,512.5Z" style="fill: #96877d"/>
    <path d="M978.33,512c-8.34-.68-17.19,9.9-27.46,21.9q-1.85,2.17-3.75,4.37l-.72.82q21.48,0,43-1.32l.07-.32c1.72-7.7,1.54-14.1-.51-18.52C987,514.77,983.42,512.46,978.33,512Zm10.58,24.88q-20.34,1.27-40.69,1.29l3-3.55c10.16-11.89,18.93-22.34,27-21.7,4.88.4,8.29,2.58,10.13,6.55C990.81,524.68,990,531.77,988.91,536.92Z"/>
    <path d="M889.06,423.31a48.72,48.72,0,0,1,1.72-7.11c-3.66,3.31-10.63,9.75-13.27,14.37,8.4,3.33,25.7,5.77,34.44-2.6C906.7,428.8,895,426.59,889.06,423.31Z" style="fill: #96877d"/>
    <path d="M889.43,423a51,51,0,0,1,1.64-6.63l.42-1.39-.89.79c-6.92,6.25-11.4,11.08-13.34,14.46l-.32.55.5.2a48.66,48.66,0,0,0,13.86,3c7.58.54,15.69-.76,20.82-5.65l1.1-1.05-1.32.2C906.58,428.35,895.17,426.07,889.43,423Zm-11.34,7.29c2-3.13,6-7.45,12-12.93a44.15,44.15,0,0,0-1.33,5.81l-.06.4.27.14c5.39,3,15.73,5.22,21.67,4.83C902,435.42,886.54,433.51,878.09,430.32Z"/>
    <path d="M911.44,506.36a115.44,115.44,0,0,1,3.34,23h.63A116.62,116.62,0,0,0,912,506.09Z"/>
    <path d="M889.43,423c.85-5.16,3.11-11.57,6.73-19.09-.17-.18-.34-.37-.52-.55-3.76,7.81-6.08,14.46-6.89,19.8l-.06.41.27.14c4.5,2.48,12.85,4.53,18.87,4.82a21.06,21.06,0,0,0,4.16-.13l-.09-.92C906.56,428.36,895.15,426.07,889.43,423Z"/>
    <path d="M921.28,433.82c-1.09,1.14-2,2.16-2.88,3-8.43,8.59-21.25,8.16-27.66,5.06a51.14,51.14,0,0,0-6.21-2.37l-.1.9a49.88,49.88,0,0,1,6.14,2.35,23.83,23.83,0,0,0,8.63,2.06,25,25,0,0,0,19.57-7.24c.83-.85,1.79-1.86,2.88-3,10.41-10.95,32.07-34,56.34-37.88,0-.31,0-.62,0-.92C953.49,399.69,931.73,422.82,921.28,433.82Z"/>
    <path d="M911.77,427.58c-8.54,8.16-25.48,6-34.16,2.55,0,.29-.08.59-.13.88a48.78,48.78,0,0,0,13.82,3c7.58.53,15.68-.76,20.82-5.65,21.11-20,40.48-30.87,59.23-33l0-.92C952.45,396.59,933,407.47,911.77,427.58Z"/>
    <path d="M1081.33,658c-6.3-44.48-28-68.14-57.29-94.2,43,46.71,45.74,86.6,39.15,112.69-6.64,25.85-23.73,27.22-37,19.59,1.72,24.87,19.9,33.11,31.41,25.35-5.92,8.17-5.58,23.42-4.53,29.87,2.39,14.69-5.93,30.63-4.54,48.73,21.67-16.89,30-55.82,28.64-86,15.33,17.13,33.52,9,37-18.61C1099.52,712,1087.63,702.47,1081.33,658Z" style="fill: #337321"/>
    <path d="M1098.73,702c-7.64-3.08-13.39-18-17.09-44.11-6.16-43.53-26.54-67.05-57.42-94.44-1.87-1.66-3.73-3.33-5.6-5,1.74,1.94,3.48,3.86,5.22,5.78,46.44,50.38,44.4,90.93,39.05,112.2-2.34,9.1-6.13,15.7-11.27,19.54-6.8,5.07-16,5-25.3-.27l-.5-.28c0,.27,0,.53,0,.8.74,10.56,4.57,19.21,10.8,24.22,6,4.81,13.57,5.64,19.75,2.25-4.74,8.13-4.82,21.72-3.66,28.83,1.2,7.34-.34,15.06-2,23.23s-3.27,16.43-2.58,25.44c0,.2,0,.4,0,.6l.39-.3c21.59-16.82,30-55.27,28.88-85.43,8.4,9,17.86,10.91,25.43,5.18,6-4.52,10.08-13.38,11.53-24.8l.12-1-.59.67C1108.34,701.46,1103.2,703.77,1098.73,702Zm4,17.41c-7.52,5.69-17,3.55-25.37-5.75l-.58-.65c0,.38,0,.76,0,1.13,1.37,29.82-6.79,68.26-28.06,85.22-.56-8.59,1-16.64,2.6-24.45,1.65-8.3,3.21-16.14,2-23.71-1.2-7.37-1-21.83,4.43-29.4l1.31-1.8L1057.5,721c-6.21,4.14-14.25,3.56-20.49-1.46-5.91-4.75-9.6-12.86-10.45-22.76,9.26,5.09,18.45,5,25.29-.08,5.31-4,9.22-10.76,11.63-20.12,5.22-20.69,7.35-59.73-34.42-107.72,27.84,25.36,46.2,48.53,52,89.27,3.75,26.43,9.62,41.54,17.45,44.7,4.5,1.82,9.63-.33,15.26-6.44C1112.22,707,1108.34,715.17,1102.76,719.38Z"/>
    <path d="M1062,316.22a24.64,24.64,0,0,0-.87,3.23C1061.37,318.34,1061.66,317.27,1062,316.22Z" style="fill: #337321"/>
    <path d="M1148.41,295c-19.91,15.68-23.06-27.05-46.46-1.14-7.77-12.09-30.35-10.68-40,22.32,4.13-11.89,16.82-16.58,24.29-11.27,8,5.71,9.07,24.93-5.25,33.84,6.63,9.27,23,5.07,27.59-9.54,5.25,26.71,24.78,31.5,38.77,16.1-16.43-3.32-5.59-22.49-13.28-30C1141.43,313.43,1148.07,303.32,1148.41,295Z" style="fill: #337321"/>
    <path d="M1128.41,291.75c-6.66-6.09-13.56-12.38-26.38,1.54-4.42-6.68-12.66-8.65-20.59-5.09-5.11,2.32-14.21,8.84-19.74,27.79a24.85,24.85,0,0,0-.92,3.39l-2.22,11.47,2.82-11.29c.28-1.12.58-2.21.88-3.26a20.21,20.21,0,0,1,7-9.6c5.48-4.06,12.25-4.6,16.83-1.32,4,2.91,6.27,9.29,5.56,16a22.54,22.54,0,0,1-10.72,17l-.49.31.34.48c3.63,5,10.44,6.47,16.93,3.48a21.27,21.27,0,0,0,10.81-12.15c2.62,12.18,8.4,20.48,16.35,23.18a17.37,17.37,0,0,0,11.32-.11,28,28,0,0,0,11.33-7.84l.64-.71-.67-.12c-9.58-1.88-9.69-9.43-9.81-16.62-.07-4.68-.14-9.5-2.79-12.7,7-2.39,13.5-12,13.85-20.61l0-.67-.43.35C1139.45,301.71,1134.09,296.89,1128.41,291.75Zm5.69,23.12-.88.23.65.65c3,3,3.09,7.71,3.16,12.74.12,7.33.23,15,9.54,17.19-6.62,6.87-14.4,9.45-21.46,7.06-8-2.71-13.76-11.22-16.22-23.7l-.21-1.1-.37,1.18a20.46,20.46,0,0,1-10.7,12.62c-6.1,2.8-12.45,1.61-16-2.84a23.89,23.89,0,0,0,10.67-17.57c.75-7-1.59-13.75-5.83-16.8-4.74-3.4-11.73-2.84-17.4,1.35a20.32,20.32,0,0,0-5.22,5.7c5.43-15,13.2-20.44,17.73-22.49,7.71-3.46,16-1.41,20.18,5.16a2.33,2.33,0,0,0,.17.26l.23-.25c12.59-13.84,19.06-7.93,25.9-1.68,5.46,5,11.11,10,20,3.21C1147.39,303.91,1140.76,313.17,1134.1,314.87Z"/>
    <path d="M1090.4,536.53c-28-1.93-51.66-9.28-62.49-22.19-7.14-8.58-1.14-12.33,6.3-7.46,16.84,11.36,47.12,1.73,46.79-41.07-14.16,24.74-39.48,34.83-56.24,14.26-14.53-17.66-28-45.24-34.53-75.5-2.89.69-8.4-1.41-8.82-8.26.55,3.59-.79,4.64-1.21,4.9-2.23,1.4-3.91-.92-5.46-4.48-5.51,1.94-7.65-3.11-8.07-6.52.38,5.87-3.11,5.79-4.7,6,9.78,11.66,11.21,25.35,9,33.36-2.82,10.3-12.6,10.06-18.19,3.46-17.47,38.94,19.91,51.44,29,18-1.38,125.76,84.88,96.35,127.3,137.8,5.93,6.09,2.57,13.32-1.55,14.6C1121.86,599.53,1139.29,538.62,1090.4,536.53Z" style="fill: #337321"/>
    <path d="M1090.47,536.07c-33-2.46-52.84-10.89-62.35-22.1-2.52-3-3.6-5.77-2.88-7.34.87-1.9,4.49-2.16,8.82.67,9.64,6.38,25,6.63,35.77-5.05,7.63-8.28,11.6-21,11.48-36.52,0-.37,0-.74,0-1.11-.17.31-.35.61-.53.92-17.18,30-42.34,30.7-55.8,14.17-15.54-18.91-28.42-47.34-34.44-75.3l-.07-.36-.26.07a7,7,0,0,1-6.38-2.38,8.44,8.44,0,0,1-2-4.42c0-.35-.06-.72-.12-1.13q-.53-3.48-1.06-7c.15,2.38.29,4.76.44,7.13a9.92,9.92,0,0,0,.12,1.11c.11,2.16-.64,3-1.14,3.32-1.76,1.11-3.28-.19-5.08-4.31l-.11-.27-.22.08c-2.17.76-4,.48-5.34-.83a9.07,9.07,0,0,1-2.35-5.34q-.66-5.42-1.33-10.83c.24,3.65.47,7.31.71,11a6.78,6.78,0,0,1-.59,3.72,4.06,4.06,0,0,1-3.42,1.73l-1.18.15.6.71c9.34,11.14,11.22,24.46,8.94,32.84-1.26,4.59-3.78,6.47-5.68,7.24-3.85,1.55-8.68,0-12-4l-.27-.32-.19.43c-4.89,10.89-5.95,20.94-3,28.33,2.71,6.74,8.44,10.47,15,9.61,7.44-1,13.66-7.49,16.92-17.43-.09,35.66,7.25,62,22.43,79.74,13.82,16.12,32.8,23.48,51.16,29.5,19.32,6.43,39.3,11.76,53.83,26.73,2.57,2.65,3.59,5.74,2.88,8.73a6.82,6.82,0,0,1-4.23,5q-6.73,2.07-13.46,4,6.73-1.43,13.46-3l.23-.06c6.91-1.91,13.92-16.25,15.07-30.72.54-6.91,0-16.73-5.7-24.61C1111.64,540.91,1102.67,536.9,1090.47,536.07Zm31.73,37.15c-.9,11.33-5.69,22.91-11,27.66a8.9,8.9,0,0,0,1.13-2.74c.47-2,.69-5.83-3-9.69-14.63-15.05-34.67-20.39-54-26.82-18.3-6-37.23-13.33-51-29.34-15.34-17.89-22.6-44.74-22.19-81.24,0-.82,0-1.64,0-2.46l-.63,2.31c-3,10.77-9.31,17.89-17,18.9-6.19.82-11.83-2.82-14.38-9.16-2.81-7-1.82-16.51,2.78-26.94,3.47,3.88,8.37,5.42,12.3,3.83,2.92-1.18,5-3.88,6.1-7.8,2.32-8.51.55-21.88-8.53-33.15a4.28,4.28,0,0,0,3.49-2,5.92,5.92,0,0,0,.64-1.89,8.35,8.35,0,0,0,2.09,3.55,5.24,5.24,0,0,0,5.61,1c1.32,3,3.15,6,5.72,4.38a3.33,3.33,0,0,0,1.38-2.19,9,9,0,0,0,1.73,3,7.53,7.53,0,0,0,6.59,2.61c6.08,28,19,56.43,34.53,75.36,17.34,21.27,42.43,9.72,56.14-13.44-.07,14.67-3.93,26.67-11.18,34.52a27.26,27.26,0,0,1-35.14,4.93c-4.28-2.79-8.42-2.94-9.63-.29-.55,1.2-.9,3.91,3,8.54,9.59,11.32,29.5,19.82,62.64,22.3,12.06.83,20.91,4.78,26.31,12.27C1122.2,557,1122.73,566.51,1122.2,573.22Z"/>
    <path d="M1120.06,406.3c1.93-7.21-.72-14.31-2.61-16.81.72,7.48-10.29,12.21-12.39,32.12-1.17,11.19-5.25,11.6-5.92-5-.5-12.2-4.54-45.24-9.41-61.36s-6-39.72.63-44.86a12.74,12.74,0,0,0-4.11-5.27c-8.11-5.76-22.35.22-25.16,14.49C1052,356,1077.51,371,1075.41,409c-3.82-26.91-34.94-28.63-34.57-56.48-10.12,8.09-8.73,20.12-4.87,29.29-6.3-13.37-20.62,11.9-32.84-6.49-1.39,25.65,14,34.05,26.54,33.35-6.3,17.1,2.1,29.9,10.46,33.2.34-28.19,40.45-23.91,40.87,24.54.33,41.84-30.41,51.77-46.83,40.46,20.24,16.64,43.17,12.24,64.26-29,6.63-12.92,17.09-25.57,24.44-28.93s7-13.43,12.56-17.32c-3.49-.36-4.88-6-10.12-3.56,13.1-10.86,9.24-25,15.7-34.55C1135.76,398.23,1127.57,389.49,1120.06,406.3Z" style="fill: #f7e017"/>
    <path d="M1134.83,394.73c-4.13,0-9.2,0-14,9.22,1-6.75-1.58-12.76-3.15-14.84l-.69-.91c0,.48.09,1,.14,1.44.27,2.86-1.35,5.35-3.6,8.76-3.19,4.85-7.54,11.41-8.79,23.23-.52,5-1.57,7.32-2.37,7.49-1.15.23-2.56-3.64-2.93-12.66-.5-12.07-4.56-45.38-9.43-61.49-4-13.27-5.15-29.9-2.68-38.64.75-2.67,1.8-4.54,3.13-5.58l.36-.28-.2-.42a13,13,0,0,0-4.21-5.4c-4.73-3.38-11.7-2.84-17.35,1.32a21.78,21.78,0,0,0-8.28,13.49c-4.94,19.8.26,33.38,5.77,47.64,4.39,11.39,8.93,23.06,8.65,38.93-2.56-11.45-10.16-17.94-17.53-24.45-8.59-7.57-16.71-15-16.52-29.09v-.72l-.45.36a20.33,20.33,0,0,0-7.46,11.82,29.06,29.06,0,0,0,1.24,14.95c-2.91-3-6.84-1.34-11.25.49-6.26,2.59-13.36,5.41-19.89-4.39l-.49-.73-.06,1.05c-.5,9.26,1.12,16.94,4.82,22.76,6.44,10.19,16.85,11.25,21.53,11.08A31.46,31.46,0,0,0,1028,427.4c2.15,8.32,7.6,13.2,12,14.93l.42.16v-.65c.11-9.21,4.62-15.55,11.78-16.76h0c11.3-1.79,28.15,9.53,28.42,41.43.12,14.71-3.74,26.84-11.16,34.83-10.77,11.63-25.86,11.43-35.2,5.13-2.43-1.62-4.86-3.27-7.29-4.92q3.48,2.9,7,5.75c9.06,7.43,18.12,10.33,27,8.68a29,29,0,0,0,5-1.43c11.59-4.44,22.57-16.72,32.65-36.39,6.75-13.16,17.17-25.49,24.23-28.72,4.18-1.9,5.93-5.89,7.62-9.75,1.33-3,2.58-5.91,5-7.6l1.12-.78-1.1-.11a6.16,6.16,0,0,1-3.29-1.93c-1.43-1.27-2.89-2.58-5.21-2.18,6.76-6.42,8.38-14,9.81-20.65,1-4.59,1.92-8.93,4.38-12.58l1.59-2.38-1.89,1.69C1139.2,394.67,1137.08,394.71,1134.83,394.73Zm1.41,11.61c-1.57,7.3-3.2,14.9-11,21.36l-2.58,2.11c.91-.41,1.81-.84,2.72-1.26,3.12-1.46,4.83.07,6.49,1.55a8.73,8.73,0,0,0,2.65,1.84c-2.07,1.87-3.29,4.65-4.47,7.35-1.6,3.67-3.26,7.47-7.17,9.25-7.2,3.28-17.8,15.79-24.65,29.13-21.88,42.74-43.58,42.37-59.23,32.2,9.34,3.62,21.66,2.14,30.89-7.82,7.62-8.21,11.58-20.64,11.46-35.7-.28-32.52-17.5-44-29-42.2h0c-7.37,1.24-12.07,7.69-12.39,17.1-4.18-1.81-9.2-6.48-11.21-14.25a30.08,30.08,0,0,1,1.33-18.14c.08-.23.16-.45.25-.68l-.51,0c-4.32.25-15.06-.48-21.59-10.79-3.44-5.42-5-12.51-4.71-21,6.63,9.3,13.72,6.48,20,3.89,5.14-2.13,9.58-4,12.34,1.83q3.81,8.1,7.62,16.16-3.54-8.34-7.09-16.72c-1.84-4.37-3.76-10.95-2.38-17.4a19.22,19.22,0,0,1,6.67-10.85c.08,14.09,8.2,21.52,16.78,29.09,7.86,6.95,16,13.87,17.79,26.78.15,1.05.29,2.09.44,3.13l.18-3.32c1-17.7-3.9-30.22-8.61-42.42-5.44-14.08-10.57-27.48-5.72-46.91a20.76,20.76,0,0,1,7.9-12.86c5.47-4,12.22-4.56,16.79-1.29a12.26,12.26,0,0,1,3.82,4.74,12.25,12.25,0,0,0-3.14,5.85c-2.52,9-1.37,25.9,2.68,39.37,4.85,16,8.89,49.2,9.39,61.22.35,8.73,1.67,13.73,3.52,13.37l.07,0c1.33-.36,2.43-3.49,2.95-8.43,1.21-11.47,5.47-17.88,8.57-22.61,2-3,3.62-5.51,3.84-8.28a21.55,21.55,0,0,1,2,15.5c-.34,1.25-.67,2.5-1,3.75.52-1.15,1-2.3,1.55-3.46,4.83-10.82,9.91-10.79,14.39-10.83a11.07,11.07,0,0,0,5.18-.86C1138,398.3,1137.12,402.22,1136.24,406.34Z"/>
    <path d="M1090.4,536.53c48.89,2.09,31.46,63,17.14,66.93-9.11,2.24-17.81-6.84-18.35-16.4-10.46,10.61-7.69,26,.33,30.53-22,1.4-31.25,23.86-31.79,47.23,4-11.41,16.25-14.58,20.79-13.35s16.25-.21,21-9.16c-3.87,5.85,2.43,15.44-3,25.49,18.36-5.81,26.38-33.54,23.23-43.48C1143.49,584.66,1139,536.4,1090.4,536.53Z" style="fill: #f7e017"/>
    <path d="M1090.46,536.07q-9.48-.18-19-.72,9.42,1,18.84,1.65c12.06.83,20.91,4.78,26.31,12.27,5.55,7.68,6.08,17.24,5.55,24-1.1,13.79-8,27.92-14.45,29.72l-.2.06c-7.62,1.89-17.44-5.32-18-16,0-.23,0-.46,0-.69l-.42.43a23.62,23.62,0,0,0-7,16.5c0,5.9,2.34,11.26,6.1,14-8.78,1-15.93,5.28-21.29,13-5.77,8.37-9.13,20.6-9.46,34.57,0,.65,0,1.29,0,1.94L1058,665c4-11.34,16.13-14.23,20.42-13.07,3.8,1.1,14,.32,19.64-6.82a26.28,26.28,0,0,0,.08,7.34c.46,4.6,1,9.82-1.88,15.11l-.51.94.76-.23c8.77-2.74,16.37-11.11,20.85-22.72,3.09-8,4.15-16.29,2.73-21.21,11.55-19,16.32-40.66,12.78-57.47C1128.61,546.59,1113.55,536.48,1090.46,536.07Zm29,88-.17.27.09.27c1.46,4.64.44,12.74-2.6,20.61-4.25,11-11.37,19-19.62,21.91,2.51-5.33,2-10.44,1.55-15-.34-3.42-.64-6.41.49-8.77.16-.26.31-.54.46-.82l3.21-6.09q-1.82,2.78-3.65,5.55c-.18.28-.34.56-.49.85-4.68,7.7-15.47,9.49-20.16,8.14-4.23-1.14-15.82,1.56-20.52,12,.55-13,3.79-24.28,9.18-32.11s13-12.23,22.2-12.86l1.63-.11-1.44-.8c-4.26-2.35-7-7.92-7-14.09a22.35,22.35,0,0,1,6.23-15.19c.9,9.16,9.17,18.38,18.61,16.06l.23-.06c6.91-1.91,13.92-16.25,15.07-30.72.54-6.91,0-16.73-5.7-24.61a28.14,28.14,0,0,0-14.49-10.22c15.88,3.29,26.24,12.91,29.62,29C1135.76,583.89,1131,605.3,1119.51,624.05Z"/>
    <path d="M1053.19,786.57c-2.69-2-6.34-2.44-7.77,6.25s-14.49,11.88-10.88,29.51c1.31,6.38,4.2,9.66,8.15,8.14,13.32-5.24,6.81-22.69,11.13-31.13C1056,795.1,1056.38,788.9,1053.19,786.57Z" style="fill: #f7e017"/>
    <path d="M1053.36,786.15c-1.35-1-3.34-1.91-5.14-.56-1.46,1.11-2.5,3.51-3.11,7.17-.47,3-2.5,5.43-4.64,8-3.83,4.58-8.59,10.19-6.23,21.76,1.25,6.14,3.86,9.26,7.26,8.75a5.48,5.48,0,0,0,1.24-.34c8.83-3.45,9.19-12.35,9.51-20.14.18-4.26.34-8.29,1.82-11.18a16.26,16.26,0,0,0,1.67-8.71A6.56,6.56,0,0,0,1053.36,786.15Zm.22,12.94c-1.6,3.14-1.78,7.31-2,11.74-.32,7.8-.65,15.94-9,19.19-3.66,1.4-6.49-1.47-7.79-7.86-2.24-11,2.13-16.11,6-20.72,2.24-2.68,4.36-5.22,4.89-8.56s1.47-5.52,2.73-6.47a2.8,2.8,0,0,1,1.22-.54A4.62,4.62,0,0,1,1053,787h0a5.79,5.79,0,0,1,2.09,4.15A14.82,14.82,0,0,1,1053.58,799.09Z"/>
    <path d="M1046.89,848.52c2.27-20.73-1.43-24.54-5.71-27.08-5-2.92-12.68,1.35-15.79,9.2s-15.67,18.27-20.58,19.82c1.47,3.06,5.67,6.36,9,4.48-1.68,12.31,3.65,15.76,6.47,13-.17,5.41,3.94,11.45,7.18,7.54,2.14,7.83,8,9.25,10.83,2.58,2.61,5,9.29,2,12.48-.66C1045.72,877.73,1045.93,857.13,1046.89,848.52Z" style="fill: #f7e017"/>
    <path d="M1048.91,875.64c-2.78-4.71-2.48-20.23-1.71-27.1,2.29-20.9-1.47-24.92-5.88-27.53h0c-5.19-3-13.07,1.51-16.2,9.42s-15.58,18.07-20.36,19.58l-.49.16c.09.19.18.38.28.57,1.48,3.09,5.48,6.27,8.89,4.87-1,8.39,1.36,11.65,2.44,12.66a3.13,3.13,0,0,0,4.11.47c.12,3.26,1.62,6.65,3.59,8a2.76,2.76,0,0,0,3.76-.46c1.23,4,3.52,6.54,6.07,6.59a3.9,3.9,0,0,0,.59,0c1.7-.23,3.24-1.62,4.34-3.91,2.79,4.45,9.13,1.82,12.59-1l1.13-.94-1.24.08C1050.09,877,1049.46,876.59,1048.91,875.64Zm-10.33,2.16-.27-.52c-.08.2-.16.41-.25.61-1.09,2.57-2.76,4-4.58,4-2.42,0-4.6-2.57-5.7-6.57l-.15-.55-.33.4a2.35,2.35,0,0,1-3.42.67c-1.92-1.26-3.36-4.73-3.26-7.88l0-.84-.5.48a2.68,2.68,0,0,1-3.9-.11c-1-1-3.25-4.09-2.1-12.49,0-.26.07-.52.1-.78l-.51.29c-3,1.66-6.75-1-8.38-3.78,5.19-2,17.18-12,20.3-19.89,3-7.52,10.45-11.85,15.38-9,4.34,2.59,7.76,6.32,5.54,26.62-.81,7.23-1.1,22.82,1.83,27.8a3.39,3.39,0,0,0,1.39,1.42C1046.29,880.22,1040.8,882.08,1038.58,877.8Z"/>
    <path d="M1039.44,856.05c.83,7.43-.12,19.2-1.41,21.88l.5.48c1.51-3.12,2.34-15.37,1.53-22.59Z"/>
    <path d="M1027.31,875.22l.36.71c2.13-2.43,6.59-11.07,7.52-18.83l-.62-.08C1033.68,864.42,1029.31,872.94,1027.31,875.22Z"/>
    <path d="M1020.14,867.63l.25.82c2.79-2,9.85-15,11.6-23.62l-.6-.19C1029.73,852.78,1022.83,865.68,1020.14,867.63Z"/>
    <path d="M1013.74,854.55c0,.3.07.6.11.9,3.45-1.18,13.6-11.42,17.89-21.69-.17-.15-.35-.29-.53-.43C1027,843.39,1017.1,853.41,1013.74,854.55Z"/>
    <path d="M1002,508.64c2.43-.45,6.3,4.32,12.39,1.67-3-9.4-7.86-23.63-19.2-24.81,3-.7,9.45.31,13.61-2.43-5.92-12.68-21.63-5.18-27.05-31.95-.59,52.25,14.28,78.2,34.9,93.17C1009.05,538.38,1012.37,515.15,1002,508.64Z" style="fill: #f7e017"/>
    <path d="M1011,528.38c-1.39-7.35-2.82-14.92-7.31-19,.42.16.87.37,1.34.59,2.28,1.07,5.4,2.52,9.44.76l.37-.17c0-.16-.1-.33-.16-.49-2.42-7.64-6.75-21.22-16.53-24.43l1,0c3.11-.11,7-.28,9.82-2.14.12-.08.24-.16.37-.23-.07-.16-.15-.31-.22-.46-2.37-5.11-6.27-7-10.41-9.05-6.25-3.09-13.34-6.74-16.6-22.78-.19-1-.38-1.91-.58-2.87l0,3c-.52,45.93,10.29,75.49,35.06,93.58q12.81,9.28,25.61,18-12.64-9.13-25.29-18.84C1013.46,541.27,1012.28,535,1011,528.38Zm-28.94-74.46c3.55,14.23,10.34,17.72,16.37,20.7,3.91,1.94,7.6,3.73,9.89,8.27-2.68,1.56-6.28,1.71-9.2,1.82a21.92,21.92,0,0,0-3.95.33l-2.67.63,2.66.28c11.28,1.18,16.15,15.77,18.79,24.07-3.66,1.43-6.44.15-8.69-.91-1.26-.58-2.36-1.11-3.28-.93l-1.16.22,1,.66c5.47,3.47,7,11.67,8.52,19.62,1,5,1.86,9.83,3.71,13.13C992,524.11,982.05,496.18,982.09,453.92Z"/>
    <path d="M974.74,396.86c-5.51,1.93-7.65-3.11-8.07-6.53.34,5.88-3.11,5.73-4.74,5.94,9.82,11.66,11.25,25.35,9.07,33.36-2.82,10.3-12.56,10.06-18.19,3.46-.71,21.72,18.52,28.55,25.5.84,0,4.61,4,3.92,5.08,9.93,5-12,1.17-28.62-5.29-42.3C976.84,401,975.79,399.21,974.74,396.86Z" style="fill: #f7e017"/>
    <path d="M978.3,401.16l-.11,0c-1-.45-2-1.81-3.19-4.52l-.12-.27-.21.08c-2.17.76-4,.48-5.34-.83a9,9,0,0,1-2.35-5.34c-.39-3.21-.79-6.42-1.18-9.63.19,3.26.37,6.51.56,9.77a6.79,6.79,0,0,1-.61,3.71,4,4,0,0,1-3.4,1.68l-.45.05-.77.1.6.71c9.37,11.13,11.26,24.45,9,32.84-1,3.62-3,6.13-5.66,7.23-3.84,1.56-8.68,0-12-4l-.48-.56,0,.9c-.38,11.36,4.42,17.9,9.35,19.27a7.73,7.73,0,0,0,2.27.28c4.78-.12,10.58-4.58,14.07-17a6.53,6.53,0,0,0,2,3.06,8.72,8.72,0,0,1,2.88,5.31l.18,1c.13-.31.26-.63.4-.94,4.37-10.6,2.39-26.55-5.3-42.8Zm5.18,41.56a9.54,9.54,0,0,0-2.91-4.8c-1.09-1.1-2-2-2-4v-2.55l-.61,2.41c-3.84,15.22-11,19.05-16,17.65-4.53-1.26-9-7.16-8.86-17.43,3.48,3.71,8.27,5.15,12.1,3.59,2.91-1.18,5-3.89,6.08-7.8,2.32-8.51.54-21.88-8.56-33.14a4.28,4.28,0,0,0,3.49-2,5.65,5.65,0,0,0,.66-1.91,8.46,8.46,0,0,0,2.1,3.59,5.26,5.26,0,0,0,5.61,1c.87,1.92,1.94,3.9,3.3,4.57C985.17,417.4,987.23,432.48,983.48,442.72Z"/>
    <path d="M952.68,232.12c0,.36-.12.71-.16,1.09A10.53,10.53,0,0,0,952.68,232.12Z" style="fill: #337321"/>
    <path d="M955.29,237.23c1.93-1.56,3-9.49,2.1-13.28-1.63.48-4,3.66-4.71,8.17a10.53,10.53,0,0,1-.16,1.09c0-.38.11-.73.16-1.09.53-4.59-.72-13.31-5.24-14.71-1.39,2.82-1.77,9.69.16,13.49-4.53-1.52-11.17,2.76-12.76,8.31.33-6.74,1-16.35,3.86-22.39,1-2-1.39-5.6-3.23-.78-3.41-9.73-12.48-15-16.51-10.36s-9.41-2.66-12.73,4.77-14.57,7.6-14,15.72c.33,4.87-.46,12.3-2.1,14.88-4,6.33,1.93,11.61,3,17.56-.71-19.43,20.41-55.63,41.58-40.56-1.93,4.82-3.61,14.47-4.2,26.17-.88,17.32.88,41.91,12.39,56.29l4.49-1.77C938.66,287,934.63,267.29,935,256.08s3.49-23.38,14.66-18.25c-3.48,0-1,10.18-4.7,11.23,3,1.54,7-2,7.52-4.38.71,3.55,5.25,2.52,5.58,6.55C959.83,249.18,957.89,239.28,955.29,237.23Z" style="fill: #337321"/>
    <path d="M955.85,237.2c1.81-2.34,2.68-9.76,1.84-13.4l-.09-.38-.27.08c-1.3.38-3.12,2.4-4.23,5.56a23.61,23.61,0,0,0-1.46-7.48c-1-2.5-2.43-4.09-4.14-4.62l-.2-.06-.12.24c-1.28,2.61-1.83,8.94-.23,13.12-4.12-.83-9.43,2.38-11.69,6.94.42-7.25,1.27-15,3.7-20.12a3.36,3.36,0,0,0,.08-2.48,1.84,1.84,0,0,0-1.49-1.42c-.44,0-1.26.23-2.07,1.94-2.09-5.4-6.16-9.84-10.29-11.21-2.63-.87-4.9-.37-6.43,1.4-1.71,2-3.66,1.7-5.71,1.38-2.53-.4-5.15-.82-7.08,3.5-1.43,3.22-4.39,5.06-7.26,6.81-3.66,2.25-7.13,4.34-6.78,9.19s-.46,12.07-2,14.54c-2.85,4.48-1,8.48.83,12.35a23.58,23.58,0,0,1,2.09,5.63l.78,4.46-.17-4.56c-.43-11.74,6.91-28.24,16.37-37,5.72-5.31,14.59-10.17,24.46-3.34-2,5.25-3.53,15.1-4.07,25.93-1.77,34.77,8.15,51.28,12.5,56.68l.12.15c1.74-.67,3.47-1.36,5.21-2.05l-.42-.56c-9.05-12.13-12.64-32.09-12.29-42.29.17-5.77,1.13-13.38,4.7-17,2.14-2.17,5-2.59,8.47-1.29-1,.91-1.2,3-1.42,5.13-.29,2.67-.55,5.2-2.17,5.65l-1.14.33c.37.18.73.37,1.09.56,1.42.73,3.25.44,5-.82a8.16,8.16,0,0,0,2.59-3,5.26,5.26,0,0,0,2.66,2.39c1.28.7,2.49,1.35,2.64,3.19,0,.27,0,.54.07.81l.44-.51c.79-.92.85-2.86.77-4.32C958.83,243.7,957.53,239,955.85,237.2Zm-16.2,1.16c-3.78,3.82-4.78,11.73-5,17.69-.35,10.23,3.18,30.07,12.08,42.46L943,300c-4.34-5.46-13.88-21.72-12.16-55.74.56-11,2.15-21,4.16-26l.17-.43-.3-.22a18.07,18.07,0,0,0-10.05-3.59c-5.11-.15-10.34,2.12-15.34,6.76-9,8.35-16.12,23.65-16.63,35.44a38.62,38.62,0,0,0-1.58-3.67c-1.74-3.72-3.39-7.24-.87-11.21,1.72-2.71,2.53-10.2,2.18-15.23-.3-4.19,2.81-6.07,6.42-8.29,2.95-1.8,6-3.7,7.52-7.14,1.73-3.87,4-3.49,6.5-3.11,2.09.34,4.25.67,6.16-1.56,1.38-1.6,3.47-2,5.9-1.24,4.14,1.38,8.21,6,10.13,11.44.09.26.18.52.26.77.1-.25.2-.49.29-.74.55-1.43,1.21-2.21,1.8-2.17.39,0,.75.36.94.91a2,2,0,0,1,0,1.54c-2.75,5.82-3.52,14.7-3.92,22.62l-.14,2.82.75-2.6c1.53-5.32,8-9.51,12.4-8l.84.28-.51-1c-1.84-3.61-1.44-10-.28-12.7,1.45.54,2.63,1.92,3.51,4.11a23.15,23.15,0,0,1,1.33,9.57c-.09.49-.16,1-.21,1.53l-.51,5.13-1.94-.88C945.58,235.48,942.19,235.8,939.65,238.36Zm18.55,11.83a4.9,4.9,0,0,0-2.87-2.95c-1.16-.63-2.26-1.23-2.55-2.69-.09-.47-.19-.93-.28-1.39-.11.46-.22.91-.32,1.37a6.69,6.69,0,0,1-2.6,3.32,5.06,5.06,0,0,1-3.57,1.08c1.18-1.16,1.44-3.62,1.68-5.84.31-3,.61-4.8,2-4.8l2,0-.05.55,1.17-5.48a12.56,12.56,0,0,0,.22-1.55c.75-3.91,2.73-6.62,4.13-7.28.68,3.71-.27,10.9-2,12.32l-.51.4.51.4c1.67,1.32,3.06,6.18,3.26,9.72A8.69,8.69,0,0,1,958.2,250.19Z"/>
    <path d="M989,237c-7.05,1.53-13.86-9.85-22.68-9.71-7.3.08-12.76,6.06-12.64,10.66.21,6.86,4.37,9,11.47,12.74,8.31,4.19,14.57-4.14,20.87,1.27,2.86,2.47,3.74.57,3.24-2.22a7.75,7.75,0,0,1,1.84-6.75C992.54,241.39,996,235.4,989,237Z" style="fill: #cf142b"/>
    <path d="M988.94,236.57c-3.41.75-6.83-1.66-10.45-4.25-3.78-2.7-7.69-5.53-12.19-5.46h-.24A13.91,13.91,0,0,0,955,233a8.88,8.88,0,0,0-1.62,5h0c.21,7,4.35,9.28,11.21,12.9l.46.24c4.09,2.07,7.76,1.13,11,.29,3.57-.93,6.66-1.76,9.81.94a3.8,3.8,0,0,0,2.42,1.21,1.2,1.2,0,0,0,.86-.43c.57-.65.73-1.9.43-3.53a7.17,7.17,0,0,1,1.73-6.24c.93-1,2.71-3.79,2.21-5.64C993.1,236.34,991.62,236,988.94,236.57Zm1.95,6.09a8.36,8.36,0,0,0-2,7.24,3.43,3.43,0,0,1-.19,2.54c-.44.49-1.37.18-2.57-.85a7.56,7.56,0,0,0-5.64-1.94,22.58,22.58,0,0,0-4.6.88c-3.32.87-6.75,1.74-10.69-.25l-.46-.24c-6.84-3.61-10.61-5.67-10.8-12.08a7.71,7.71,0,0,1,1.44-4.35,13.32,13.32,0,0,1,10.65-5.83h.23c4.35-.07,8.19,2.71,11.91,5.37s7.2,5.11,10.81,4.33c3-.69,3.73.1,3.87.64C993.2,239.32,991.78,241.68,990.89,242.66Z"/>
    <path d="M981.12,304.26c-2.31.31-10.67-.86-16.76-3,4.54-4.41,19.53-25.67,23.56-33.08l3.32,2.36,3.15-6.35q-3.15-2.56-6.3-5.16c-16.42,28.22-52,54.83-78.24,35-3.83,5.23-12.23,14.44-15.71,16.22l.33,8.67c6.47,4.51,19.74,22.76,23.23,38.93,7.14,14.52,42.08,12.76,51.83,15.21,7-27.73,24.82-69.84,40.53-90.3l3.32,2.49,4.2-4.8q-2.36-4.33-4.71-8.71C1007.29,273.36,995.78,288.19,981.12,304.26Z" style="fill: #96877d"/>
    <path d="M1012.83,271.3c-4.44,1.28-12.51,10.71-22.73,22.32-2.9,3.3-5.9,6.7-9.09,10.19-2.3.25-10-.82-15.89-2.76,5.13-5.46,18.85-25,22.88-32.29l3.33,2.38q1.77-3.54,3.52-7.1-3.4-2.78-6.82-5.59l-.17.3c-8.67,14.79-21.88,28.14-35.33,35.4-20.2,10.9-34.29,5.64-42.55-.51l-.19-.15-.16.21c-3.77,5.15-12.16,14.37-15.61,16.13l-.21.1.36,9.29.18.13c6.09,4.25,19.47,22,23,38.64l.05.14c5.18,10.39,24.57,12.75,38.73,13.83,5.64.46,10.51.78,13.28,1.56l.27.07.09-.37c6.87-27.16,24.66-69.42,40.27-89.9l3.3,2.48c1.55-1.75,3.09-3.52,4.63-5.28-1.67-3.09-3.34-6.17-5-9.27Zm.53,13.41-3.33-2.5-.17.22c-15.66,20.39-33.54,62.74-40.53,90.11-2.85-.74-7.62-1.05-13.11-1.5-14-1.07-33.18-3.39-38.24-13.38-3.62-16.69-17-34.49-23.2-39q-.16-4-.31-8.06c3.58-2,11.64-10.85,15.44-16,8.39,6.17,22.59,11.35,42.84.41,13.45-7.27,26.66-20.59,35.4-35.38l5.78,4.74c-.92,1.87-1.85,3.73-2.78,5.6l-3.31-2.36-.16.3c-3.93,7.24-18.87,28.49-23.49,33l-.6.59.69.24c6.28,2.2,14.55,3.31,16.86,3h.09l.07-.09c3.22-3.53,6.25-6.95,9.18-10.28,10-11.38,17.93-20.64,22.25-22.08q2.21,4.08,4.4,8.15Z"/>
    <path d="M958.9,298.07l-.17.23c-3,4.12-10.27,7.18-18.49,7.62l0,.92c8.21-.44,15.51-3.5,18.72-7.65a21.09,21.09,0,0,0,5.29,2.53c.06-.3.11-.6.16-.89a19.2,19.2,0,0,1-5.34-2.61Z"/>
    <path d="M927.28,305.71l-.17-.17-.18.16c-6.76,6.32-10.49,27.63-8.15,46.64l.62-.14c-2.28-18.52,1.24-39.21,7.71-45.56,14.95,14.81,39.7,13.9,54.15-2.07-.12-.25-.24-.49-.37-.73C966.57,319.65,942,320.49,927.28,305.71Z"/>
    <path d="M960.5,345.8c-5.64-1-30.06-3.88-41.42-3.93,0,.31,0,.62,0,.92,11.35,0,35.69,2.93,41.31,3.92,6.06,1.21,13.09,3.75,14.21,6.75a2,2,0,0,1,0,1.38l.57.36a3.26,3.26,0,0,0-.06-2.2C973.77,349.25,965.29,346.77,960.5,345.8Z"/>
    <path d="M920.62,335c1.21,1.83,2.42,3.67,3.63,5.49q1.85-2.59,3.68-5.21l-3.68-5.41Zm3.64,4.19q-1.38-2.07-2.75-4.15l2.74-3.87,2.79,4.09Z"/>
    <path d="M931.85,245.05c-4-8.21-15.07-11.15-17.47-.3-1,4.8-2.6,9.83-5.25,12s-2,9.16-.88,12.22c2.77,7.56.34,14.56,5.75,19.65,0-5.89,5.93-11.71,11-13.1s12.72-7.89,13.77-15.31S941.64,246.68,931.85,245.05Z" style="fill: #337321"/>
    <path d="M932,244.61c-2.53-5-7.58-8.07-11.84-7.23-3.05.6-5.21,3.16-6.11,7.22-1.37,6.27-3,10-5.11,11.78-2.85,2.34-2.15,9.7-1,12.83a32.69,32.69,0,0,1,1.61,8.36c.43,4.24.83,8.25,4.26,11.47l.48.44v-.82c0-5.51,5.78-11.29,10.75-12.66s12.91-7.79,14-15.66c.08-.56.17-1.11.25-1.66.58-3.71,1.12-7.21-.16-9.82C938.09,246.62,935.81,245.28,932,244.61Zm6.7,13.86c-.09.55-.17,1.11-.25,1.67-1,7.21-8.57,13.61-13.54,15s-10.72,7-11.22,12.73c-2.76-2.9-3.11-6.37-3.52-10.36a34,34,0,0,0-1.67-8.68c-1.1-3-1.65-9.62.76-11.61s4-5.78,5.39-12.28c.82-3.71,2.81-6.05,5.61-6.61a7.11,7.11,0,0,1,1.6-.13c3.69.12,7.65,3,9.71,7.15l.08.17.14,0c3.63.62,5.87,1.88,6.85,3.89C939.78,251.67,939.3,254.82,938.73,258.47Z"/>
    <path d="M917.2,325.64c-2.75,2.2-5.49,4.4-8.24,6.57a2.84,2.84,0,0,0-.84-.65q0-7,0-13.93l-1.38-.07v13.93a1.81,1.81,0,0,0-.8.69q-4.14-3.68-8.28-7.41c-.23.58-.47,1.16-.71,1.74q4.11,3.72,8.23,7.41a7.62,7.62,0,0,0,0,1.35q-4.12,3.27-8.27,6.51c.24.61.48,1.22.71,1.82q4.13-3.21,8.24-6.45a3.22,3.22,0,0,0,.84.65v13.93l1.38.07V337.93a1.87,1.87,0,0,0,.8-.69q4.15,3.63,8.32,7.23c.23-.58.47-1.17.71-1.75q-4.11-3.63-8.23-7.28a7.76,7.76,0,0,0,0-1.36c2.75-2.19,5.51-4.41,8.27-6.63C917.67,326.84,917.43,326.24,917.2,325.64Z" style="fill: #96877d"/>
    <path d="M910,334.35q4.18-3.35,8.36-6.72l-1-2.61q-4.17,3.35-8.34,6.65a3,3,0,0,0-.53-.42q0-7,0-14.06l-2-.1v14.06a2.37,2.37,0,0,0-.52.46q-4.18-3.71-8.35-7.47c-.34.84-.69,1.67-1,2.51,2.78,2.51,5.55,5,8.33,7.5a8.24,8.24,0,0,0,0,.86q-4.17,3.32-8.36,6.58c.34.88.69,1.76,1,2.63q4.17-3.24,8.34-6.54a3.13,3.13,0,0,0,.53.43v14.06l2,.1v-14a2.17,2.17,0,0,0,.52-.47q4.2,3.68,8.39,7.3c.34-.85.69-1.69,1-2.53q-4.17-3.66-8.33-7.37A8,8,0,0,0,910,334.35Zm7.1,9.49q-4.12-3.57-8.25-7.18l-.17.24a1.74,1.74,0,0,1-.66.59l-.23.08v13.75l-.76,0V337.47l-.23-.11a2.78,2.78,0,0,1-.75-.59l-.16-.17q-4.07,3.21-8.13,6.38c-.13-.33-.27-.67-.4-1q4.1-3.2,8.19-6.44l0-.31a6.42,6.42,0,0,1,0-1.22l0-.31-8.14-7.32.4-1q4.1,3.69,8.21,7.35l.17-.24a1.68,1.68,0,0,1,.66-.59l.23-.08V318l.76,0q0,6.9,0,13.81l.23.11a2.78,2.78,0,0,1,.75.59l.16.16q4.06-3.22,8.13-6.49c.13.34.27.67.4,1-2.73,2.21-5.46,4.39-8.19,6.57l0,.31a6.36,6.36,0,0,1,0,1.22l0,.3q4.06,3.63,8.14,7.21Z"/>
    <path d="M907.33,318.09c5.88.29,10.66,7,11.25,15.33a76,76,0,0,1,1.93-12.87c-3-5.87-7.77-9.79-13.14-10.07-9.16-.46-16.55,9.79-16.55,23.17s7.39,24.7,16.55,25.16c4.62.24,8.78-2.29,11.76-6.6-.63-2.54-.72-9.84-.76-13-1.3,7-5.84,12.17-11,11.9-6.22-.31-11.3-8-11.3-17.14S901.07,317.77,907.33,318.09Z" style="fill: #96877d"/>
    <path d="M907.37,310c-9.3-.47-16.86,10-16.86,23.61s7.56,25.17,16.86,25.64c4.57.23,8.83-2.17,12-6.73l.14-.2-.07-.28c-.59-2.39-.69-9.48-.73-12.6l0,.42.18-6.43a75.14,75.14,0,0,1,1.91-12.72l.06-.24a2.12,2.12,0,0,0-.11-.21C917.53,314,912.65,310.29,907.37,310Zm11.13,20.35c-1.41-7.21-5.9-12.48-11.17-12.74-6.41-.33-11.62,6.93-11.62,16.29s5.21,17.3,11.62,17.62c4.63.24,8.91-3.81,10.76-9.85a76,76,0,0,0,.68,10.38c-3,4.26-7.07,6.5-11.4,6.28-9-.45-16.24-11.61-16.23-24.68s7.28-23.18,16.23-22.73c5,.26,9.68,3.76,12.79,9.67A77.14,77.14,0,0,0,918.5,330.37Zm0,6.36-.43,2.32c-1.29,6.93-5.81,11.83-10.74,11.57-6.06-.3-11-7.82-11-16.66s4.93-15.72,11-15.42c5.66.29,10.36,6.67,10.94,14.92Z"/>
    <path d="M986.66,360.51a36.07,36.07,0,0,1-2.6,6c.71-3.84.17-8.65.17-10.43-1.05,2.63-4.54,7.35-6.3,8.47-.21-3.06-2.65-9.08-5.08-10.77-.89,3.6-3.53,10.56-5.09,11.89a30.74,30.74,0,0,0,0-6.87,22.68,22.68,0,0,0-4.87,6.76c.34-3.32.51-9.46-.71-12.25-1.39,1.07-2.77,5.63-3.66,8.22.21-4.05-1.21-8.87-2.6-13-1.39,1.55-2.94,7.95-3.65,11.51a14.91,14.91,0,0,0-5.25-9.42c.71,3.31.54,9.2.88,12.51a20.69,20.69,0,0,0-4.71-9.45c-.5,3.06-2.77,6.61-4.7,9.16a19.52,19.52,0,0,0-1.22-10c-.88,2-3,5.85-4.53,6.55a37.93,37.93,0,0,0-4.54-15.12c-2.06,1.17-3.49,6-3.82,10.08-1.56-3.12-4-5.28-5.59-7.61-1,2.05-2.27,10.4-2.43,15.49-.72-3.34-4.2-8.33-6.3-10.21-.72,4,0,10.67.33,13.26C909,361.53,905,358,903,356.87c-.38,2.55.34,8.17.51,10.76-1.39-2.1-4.37-3.81-5.93-3.66-.21,3.54,1.73,8.51,2.78,10.35,35.28,5.07,70.39,6.73,87.1,12.39,1.94-5.76,4-13.5,3.87-17.85-1.39.09-3.7,1.53-5.25,3.64C986.83,369.15,987.38,363,986.66,360.51Z" style="fill: #337321"/>
    <path d="M991.67,368.38l-.3,0a8.26,8.26,0,0,0-4.69,2.83c.57-3.46.94-8.55.28-10.91-.09-.29-.17-.58-.25-.87-.11.28-.21.56-.32.85s-.19.51-.31.83c-.39,1.05-.9,2.47-1.46,3.66a48.77,48.77,0,0,0,0-7c0-.71-.07-1.31-.07-1.73v-1.67l-.58,1.47a26.6,26.6,0,0,1-5.78,8c-.46-3.26-2.76-8.82-5.19-10.5l-.32-.22-.12.49c-.78,3.16-2.87,8.74-4.35,10.92a35.11,35.11,0,0,0-.13-5.84l-.06-.62-.39.3a21.47,21.47,0,0,0-4.28,5.53c.22-3.42.21-8.34-.9-10.87l-.15-.36-.26.2c-1.19.93-2.33,4.08-3.2,6.69a45.12,45.12,0,0,0-2.63-11.23c-.05-.16-.11-.33-.17-.49l-.3.34c-1.4,1.57-2.82,7.4-3.45,10.25a15.14,15.14,0,0,0-5.12-8.21l-.68-.53.24,1.07a51.64,51.64,0,0,1,.62,7.81l.06,1.47a22.81,22.81,0,0,0-4-6.72L943,353l-.11.69c-.44,2.64-2.28,5.7-4,8.05a19.66,19.66,0,0,0-1.39-9l-.27-.62c-.09.2-.18.41-.26.61-.91,2.08-2.68,5.17-4,6.15a38.63,38.63,0,0,0-4.56-14.77l-.15-.25-.21.12c-2,1.14-3.42,5.41-3.91,9.39a29.09,29.09,0,0,0-3.12-4.21,31.59,31.59,0,0,1-2-2.6l-.25-.38-.22.42c-1,1.94-2.07,8.85-2.41,13.95a27.73,27.73,0,0,0-5.92-8.78l-.36-.33c0,.2-.06.39-.1.59-.59,3.32-.22,8.36.09,11.41a21.36,21.36,0,0,0-6.69-7l-.34-.2c0,.17,0,.34-.08.51a46.48,46.48,0,0,0,.3,8.51c0,.44.08.86.11,1.24-1.54-1.73-4-3.13-5.55-3l-.26,0c0,.13,0,.25,0,.38-.23,3.86,1.86,9,2.85,10.69l.08.16,4.29.58c34.39,4.73,66.86,6.35,82.89,11.82l.25.08.12-.34c1-2.88,4.1-12.71,3.89-18.09Zm-4.33,17.79c-16.18-5.41-48.53-7-82.77-11.75l-4-.54c-1-1.85-2.67-6.21-2.63-9.46,1.48,0,4.13,1.59,5.4,3.52.21.31.42.62.62.94,0-.43-.05-.85-.08-1.28,0-.65-.12-1.49-.2-2.43a54.87,54.87,0,0,1-.37-7.65c2.17,1.42,5.59,4.74,6.83,8.09.32.86.64,1.73,1,2.6-.12-1-.24-1.92-.37-2.88-.25-1.93-1-8.32-.43-12.46,2,2,5.12,6.49,5.79,9.6.17.83.35,1.66.53,2.48,0-.85,0-1.71.08-2.57.16-4.94,1.28-12.34,2.18-14.79.54.75,1.16,1.49,1.81,2.26a25.61,25.61,0,0,1,3.47,4.88c.15.32.31.63.47.95l.09-1.15c.31-3.75,1.6-8.28,3.43-9.58a37.58,37.58,0,0,1,4.3,14.61c0,.18,0,.37.05.56l.36-.17c1.6-.72,3.53-4.24,4.43-6.13a19.26,19.26,0,0,1,.92,9c-.06.45-.11.9-.17,1.34l.69-.91c1.77-2.33,3.94-5.68,4.66-8.72a20,20,0,0,1,4.23,8.77c.56,3.41,1.11,6.82,1.67,10.22l-1-10.39c-.13-1.23-.18-2.84-.24-4.54a67.69,67.69,0,0,0-.46-7A14.65,14.65,0,0,1,952,360.2c.08.61.17,1.21.25,1.81l.36-1.77c.65-3.25,2-8.91,3.25-10.88,1.32,4,2.58,8.42,2.39,12.18l-.12,2.33c.35-1,.69-2.05,1-3.08.76-2.27,1.88-5.62,2.94-6.81,1,2.94.79,8.76.51,11.55-.07.65-.13,1.3-.2,2l.77-1.65a23.83,23.83,0,0,1,4.37-6.26,29.85,29.85,0,0,1-.06,6l-.15,1,.61-.52c1.65-1.42,4.15-8.12,5.09-11.63,2.28,1.92,4.42,7.45,4.6,10.17,0,.2,0,.41,0,.61l.39-.25c1.57-1,4.47-4.75,5.91-7.52,0,.14,0,.29,0,.45a38.67,38.67,0,0,1-.22,8.51c-.11.56-.21,1.13-.32,1.69l.84-1.27a28.85,28.85,0,0,0,2.29-5.14,40.07,40.07,0,0,1-.75,10.66l-.35,1.61.86-1.16a9,9,0,0,1,4.73-3.47C991.08,374.4,988.37,383.07,987.34,386.17Z"/>
    <path d="M983.6,239.79c-4.92.76-10.63-5.61-16.8-5.5-5.17.09-8,4.36-7.94,6.26.13,2.81,3,3.64,8,5.15,5.8,1.61,10.21-1.83,14.62.27,2,.94,2.64.17,2.27-1a2.44,2.44,0,0,1,1.3-2.77C986.12,241.55,988.55,239,983.6,239.79Z" style="fill: #f7e017"/>
    <path d="M899.72,372.5c-1.76-2.44-5.41-.34-4,4.84s-2.43,7.75-1.38,13.71,6.25,7.83,11.5-1.1c1.05,3.13,5.25,4.87,6.68,1.86s-.54-8.43-3-16.21S901.49,374.88,899.72,372.5Z" style="fill: #f7e017"/>
    <path d="M909.8,375.42c-1.65-5.26-4.74-4.16-7-3.37-1.26.44-2.35.82-2.87.12a2.31,2.31,0,0,0-3.64-.45c-1.22,1.16-1.56,3.31-.9,5.77s.1,4.24-.57,6.3a14.07,14.07,0,0,0-.83,7.35c.46,2.63,1.69,4.51,3.35,5.16a3.88,3.88,0,0,0,1.11.25c2.32.14,4.91-1.91,7.31-5.82a5.36,5.36,0,0,0,3.86,3.06,2.84,2.84,0,0,0,3.12-1.72c1.37-3-.19-7.88-2.34-14.7C910.2,376.72,910,376.07,909.8,375.42Zm2.43,16.12a2.31,2.31,0,0,1-2.56,1.34,4.77,4.77,0,0,1-3.57-3.12l-.22-.64-.31.52c-2.67,4.55-5.69,6.7-8.08,5.77-1.43-.55-2.48-2.18-2.88-4.46a12.85,12.85,0,0,1,.79-6.74c.67-2.06,1.36-4.18.58-7-.54-2-.29-3.78.68-4.69a1.83,1.83,0,0,1,1.39-.55,2,2,0,0,1,1.47.88c.78,1.05,2,.62,3.46.11,2.26-.79,4.82-1.7,6.24,2.84.21.65.41,1.3.62,2C911.91,384.28,913.4,389,912.23,391.54Z"/>
    <path d="M945.21,374.3c-2.44-7.24-6.8,2.29-9.62-2.35s-8.23,1.68-7.26,5.07c1.34,4.51,2.47,8.77,3.52,12.41,1.94,6.92,9.08,5.1,8.74,2.69,2.44,3.6,10.29,1.44,9.07-2.68S947.65,381.6,945.21,374.3Z" style="fill: #f7e017"/>
    <path d="M948.78,385.1c-.78-2.89-1.67-6.16-3.29-11-1.44-4.3-3.59-3.15-5.5-2.15-1.55.82-3,1.59-4.16-.3-1.59-2.61-3.86-2-5.46-.56s-2.92,4-2.33,6.1h0c.82,2.77,1.56,5.4,2.27,7.94.43,1.57.85,3.06,1.25,4.45,1.05,3.74,3.53,5.13,5.71,5.16a5,5,0,0,0,2-.4,2.65,2.65,0,0,0,1.49-1.38c2.05,2.13,6.24,1.77,8.25-.23a3.37,3.37,0,0,0,.91-3.48C949.54,387.89,949.17,386.53,948.78,385.1Zm-.09,6.88c-1.91,1.9-6.31,2.13-7.88-.18l-.74-1.09.21,1.5c.06.42-.42.94-1.17,1.26-2.14.94-5.72.24-7-4.22-.4-1.4-.81-2.88-1.25-4.44-.71-2.55-1.45-5.18-2.27-8-.39-1.37.55-3.59,2.08-5s3.34-1.8,4.66.38c1.43,2.37,3.25,1.41,4.85.56,1.89-1,3.52-1.86,4.72,1.69,1.6,4.81,2.49,8.07,3.27,10.94.39,1.44.76,2.81,1.17,4.19A2.23,2.23,0,0,1,948.69,392Z"/>
    <path d="M973.06,378.83c-3.32-6.36-9.71-1.11-8.4,2.41a44.17,44.17,0,0,1,2,8.84c.59,4.4,2.94,8.58,8.11,6.84,2.89,7.67,6.88,4.65,6.72,1.59s-.38-7.64-.8-15.41S973.94,376.11,973.06,378.83Z" style="fill: #f7e017"/>
    <path d="M981,383.05c-.28-5.12-2.87-6.24-4-6.49a3.71,3.71,0,0,0-4,1.5c-2.06-3.43-5.16-3.27-7.26-1.27a4.55,4.55,0,0,0-1.41,4.67,42.55,42.55,0,0,1,2,8.72,10.48,10.48,0,0,0,2.69,6.23,5.32,5.32,0,0,0,5.56,1c1.43,3.62,3.14,4.84,4.52,4.77A2.07,2.07,0,0,0,980,402a3.74,3.74,0,0,0,1.82-3.53c-.07-1.25-.15-2.76-.24-4.64C981.39,391.11,981.22,387.63,981,383.05Zm-1.2,18.07c-1.26.61-3.17-.24-4.76-4.43,0-.1-.07-.2-.11-.3l-.23.08c-2.16.73-3.95.45-5.31-.84a9.48,9.48,0,0,1-2.42-5.65,43.76,43.76,0,0,0-2-8.94v0c-.47-1.27.35-2.66,1.19-3.46,1.58-1.51,4.66-2.34,6.68,1.55l.32.6c.07-.23.14-.46.22-.69a3,3,0,0,1,3.55-1.55c1,.22,3.21,1.2,3.45,5.68s.43,8.06.56,10.77c.1,1.88.17,3.39.24,4.65A2.72,2.72,0,0,1,979.77,401.12Z"/>
    <path d="M917.24,372c-3.57-4-8.82.84-8,3.45,1.13,4.66,3.15,13.28,6,15.73,2.52,2.13,7.35,2.72,7.6.15,1.43,3.73,7,4.92,8.32,2.24s1.05-3.65-3.23-17.67C925.76,369,920.81,376,917.24,372Z" style="fill: #337321"/>
    <path d="M922.38,372.53c-1.71.37-3.48.74-5-.88-2.6-2.9-5.82-1.37-7.36.36a4,4,0,0,0-1.15,3.61l.12.48c1.18,4.87,3.17,13,6,15.49,2.14,1.8,5.63,2.48,7.19,1.39a2,2,0,0,0,.62-.7,6.53,6.53,0,0,0,5,3.19l.4,0a3.18,3.18,0,0,0,3.15-1.64c1.4-2.88,1.11-4-3.21-18.13C926.9,371.54,924.6,372.05,922.38,372.53Zm8.5,20.78a2.83,2.83,0,0,1-3,1.24,5.83,5.83,0,0,1-4.78-3.43l-.46-1.18-.13,1.33a1.17,1.17,0,0,1-.53.88c-1.36.94-4.69.26-6.6-1.36-2.66-2.27-4.59-10.22-5.75-15,0-.17-.08-.35-.13-.52a3,3,0,0,1,1-2.54c1.38-1.57,4.27-3,6.58-.38,1.69,1.87,3.68,1.45,5.44,1.07,2.17-.47,4-.88,5.13,2.65C931.94,390.25,932.07,390.88,930.88,393.31Z"/>
    <path d="M956.55,376.44c-3.61-6.87-11.8-3.36-10.58.56,1.26,3.43,2.39,7.66,3.69,12.44s7.23,6.32,9.16,4.5c1.38,3.42,5.63,2.28,6.8.9,1.64-1.95,1.3-6.11-1-13.6S958.4,374,956.55,376.44Z" style="fill: #337321"/>
    <path d="M960.26,374.57a3.5,3.5,0,0,0-3.66,1.21c-2.68-4.63-7.4-4.35-9.72-2.33a3.51,3.51,0,0,0-1.2,3.74v0c1.19,3.23,2.25,7.15,3.48,11.67.07.24.13.48.2.72a7.45,7.45,0,0,0,4.1,4.83c2,.92,4,.95,5.24.11a3.68,3.68,0,0,0,2.4,2,4.35,4.35,0,0,0,1.19.13,5.07,5.07,0,0,0,3.52-1.46c1.76-2.09,1.49-6.32-.88-14.14C963.85,377.43,962.18,375.13,960.26,374.57Zm5.17,19.91a4.76,4.76,0,0,1-4.2,1.13,3,3,0,0,1-2.14-1.91c-.06-.13-.11-.27-.17-.4l-.27.26c-1,.9-3.06.91-5,0a6.72,6.72,0,0,1-3.72-4.3c-.06-.24-.13-.48-.19-.72-1.24-4.54-2.31-8.47-3.51-11.75a2.49,2.49,0,0,1,1-2.56c2.23-1.94,6.77-1.95,9.1,2.48l.21.4c.08-.12.17-.23.25-.34a3.09,3.09,0,0,1,3.37-1.31c1.22.36,2.94,1.68,4.24,6C966.57,388.71,966.9,392.73,965.43,394.48Z"/>
    <path d="M986.66,383.38c-1.63-5.11-6.09-3.22-5.92.33s.25,7.22.8,13.76,8.65,9.09,10.29,5.89,2.35-9.61,2.27-11.26C993.64,383.43,988.34,388.51,986.66,383.38Z" style="fill: #337321"/>
    <path d="M990.18,385.78c-1.33-.33-2.58-.64-3.23-2.6-1-3.09-3-3.82-4.45-3.18a3.78,3.78,0,0,0-2.07,3.75c.08,3.53.25,7.22.8,13.78a8.47,8.47,0,0,0,5.64,7.25,6.48,6.48,0,0,0,2.54.4,3.06,3.06,0,0,0,2.67-1.55c1.72-3.33,2.41-10,2.33-11.58C994.13,386.72,992,386.22,990.18,385.78Zm1.4,17.31c-.61,1.19-2.48,1.52-4.54.79a7.68,7.68,0,0,1-5.19-6.49c-.54-6.53-.71-10.21-.79-13.72h0a2.82,2.82,0,0,1,1.59-2.78,2.35,2.35,0,0,1,.73-.17c1.1-.06,2.32.76,3,2.89.78,2.38,2.25,2.74,3.67,3.08,1.87.46,3.49.84,3.73,5.48C993.86,393.62,993.17,400,991.58,403.09Z"/>
    <path d="M900.93,383h0c-1.12-.06-2.17.9-3.22,2.93l.5.58c.92-1.77,1.83-2.64,2.72-2.59h0c1.6.1,3.07,3.11,4.24,5.53l.39.79.51-.52-.39-.78C904.42,386.32,902.85,383.09,900.93,383Z"/>
    <path d="M919.41,382.77a37.37,37.37,0,0,0,3.21,8.78l.5-.54a36.38,36.38,0,0,1-3.1-8.48Z"/>
    <path d="M936.84,385.43l-.56.42a20.83,20.83,0,0,0,4.13,6.71l.36-.75A19.91,19.91,0,0,1,936.84,385.43Z"/>
    <path d="M945.34,385.13c-.84-1.72-3.06-6.29-6.31-6.85,0,.31,0,.61-.07.92,3,.5,5,4.68,5.87,6.47.64,1.27,2.89,5.44,4.73,5.94l.12-.9C948.39,390.36,946.53,387.48,945.34,385.13Z"/>
    <path d="M956.77,387.57l-.61.19A21.68,21.68,0,0,0,958,393q.27.6.54,1.23l.53-.49c-.18-.43-.36-.84-.54-1.25A21.52,21.52,0,0,1,956.77,387.57Z"/>
    <path d="M956.29,376.71a33.69,33.69,0,0,1,2.41,5.88l.58-.36a34.38,34.38,0,0,0-2.47-6.06Z"/>
    <path d="M969.41,387.86c-.09.29-.18.57-.26.85,1.66,1.05,3.83,4.5,5.27,8.38l.55-.46C973.45,392.53,971.22,389,969.41,387.86Z"/>
    <path d="M978.33,390.27c-1.92-1.75-3.91-3.57-4-7.46l-.63.06c.09,4.36,2.31,6.4,4.27,8.19,1.59,1.44,3,2.69,3.08,4.87l.63-.1C981.54,393.19,980,391.78,978.33,390.27Z"/>
    <path d="M986.39,383.62a19.19,19.19,0,0,1,1,6.73l.63-.07a20.14,20.14,0,0,0-1.09-7.13Z"/>
  </g>
</svg>
