<svg xmlns="http://www.w3.org/2000/svg" viewBox="0 0 1260 1012.04">
  <g>
    <path d="M0,90.08v920C420,738.76,840,1193.28,1260,922V2C840,273.28,420-181.24,0,90.08Z" style="fill: #ed0000"/>
    <path d="M0,366.08C420,94.76,840,549.28,1260,278M0,734.08C420,462.76,840,917.28,1260,646"/>
    <path d="M0,826.08C420,554.76,840,1009.28,1260,738V554C840,825.28,420,370.76,0,642.08Z" style="fill: #fff"/>
    <path d="M0,458.08C420,186.76,840,641.28,1260,370V186C840,457.28,420,2.76,0,274.08Z" style="fill: #fff"/>
    <path d="M0,90.08v920c242.49-310,485-378,727.46-483.47C485,325.4,242.49,86.77,0,90.08Z" style="fill: #0050f0"/>
    <path d="M199.22,462.57a625.6,625.6,0,0,1,66.58,15.26q-11.66-83.94-23.31-167.43Q220.86,385.67,199.22,462.57Z" style="fill: #fff"/>
    <path d="M219.18,482.92c22.19-11.21,44.38-21.1,66.57-29.88q-21.63-72-43.26-142.64Q230.83,396.43,219.18,482.92Z" style="fill: #fff"/>
    <path d="M235.64,493.8a1070.15,1070.15,0,0,1,140-78.7c-46.67-3.6-93.34-3.59-140,2Z" style="fill: #fff"/>
    <path d="M262.37,504.64c37.76-32.91,75.51-62.41,113.27-89.54-51.47,5.4-102.94,15.19-154.41,32Q241.8,475.17,262.37,504.64Z" style="fill: #fff"/>
    <path d="M222.6,509q20.58-34,41.15-66.47c-51.47-5.56-102.94-4.78-154.41,5C147.09,463.5,184.85,484.35,222.6,509Z" style="fill: #fff"/>
    <path d="M249.34,492.31V415.64a552.39,552.39,0,0,0-140,31.87C156,455.7,202.67,471.3,249.34,492.31Z" style="fill: #fff"/>
    <path d="M214.94,469.3c36.61,35,73.22,73.56,109.84,114.84Q303.15,510.89,281.51,439C259.32,447.87,237.13,457.92,214.94,469.3Z" style="fill: #fff"/>
    <path d="M211.51,501.86c37.76,23.88,75.51,51.66,113.27,82.28q-36.06-76.64-72.12-149.53Q232.08,467.52,211.51,501.86Z" style="fill: #fff"/>
    <path d="M160.2,602.85A1464.67,1464.67,0,0,1,273.46,495.07q-20.58-29.81-41.15-58.24Q196.27,517.45,160.2,602.85Z" style="fill: #fff"/>
    <path d="M160.2,602.85c36.61-50.32,73.22-96.52,109.83-139.58a636.46,636.46,0,0,0-66.57-15.74Q181.83,524.3,160.2,602.85Z" style="fill: #fff"/>
  </g>
</svg>
