<svg xmlns="http://www.w3.org/2000/svg" viewBox="0 0 1260 1012.04">
  <g>
    <path d="M0,90.08v920C420,738.76,840,1193.28,1260,922V2C840,273.28,420-181.24,0,90.08Z" style="fill: red"/>
    <path d="M0,90.08v920C168,901.55,336,909.16,504,940V20C336-10.84,168-18.45,0,90.08Z" style="fill: #060"/>
    <path d="M328,340.85q-8,14.5-16.07,29.2c1,14.62,74.23,73.89,155.14,141.2C548,577,636.58,650.68,668.3,657h0q7.59-13.12,15.19-26.25c-14.61,2.2-96.26-66.49-177.87-133.64C424,428.8,342.45,362,328,340.85Z" style="fill: #ff0;fill-rule: evenodd"/>
    <path d="M683.36,630.1c-12.87.8-85.82-56.26-177.43-133.58-77.65-66.26-162.63-133.15-177.42-156a.55.55,0,0,0-.51-.3.59.59,0,0,0-.5.31q-8,14.52-16.06,29.21a.85.85,0,0,0-.09.38c.61,9.64,26.36,32.47,47.85,51.27,28.31,24.53,66.52,56.22,107.57,90.24,71.84,59.23,167.71,138,201.52,146.08h0a.47.47,0,0,0,.56-.3q7.57-13.08,15.15-26.19a.72.72,0,0,0,0-.72A.71.71,0,0,0,683.36,630.1ZM668,656.28c-33.89-8.53-129.11-86.77-200.55-145.7C379,436.86,314.05,384.79,312.57,370.2q7.76-14.16,15.49-28.15C344.37,365.71,428.44,432,505.31,497.54c75.77,63.63,158.78,131.34,177.07,133.8Z"/>
    <path d="M484.29,519.74c-5-4.07-49.88-40.55-92.52-74.85-42.65-35-83-67.82-79-80.84l-.48-.16-2.41,4.69c-8.89,15.39,73,72.67,172.13,155.78C567.17,595.19,639.17,651,662.9,658.54c3.81,1.28,5.82,1.63,6.9-.27h0l2.67-4.45C665.13,663,582.41,604,484.29,519.74Z" style="fill: #ff0;fill-rule: evenodd"/>
    <path d="M682.18,626.81c-26.53-13.58-95.71-65-181.39-137.95C415.12,415.46,340.58,360,329,338a14.79,14.79,0,0,1-1.26-6.58h-.28q-1.24,2.34-2.47,4.68c-.11.25-.23.49-.34.74h0c-5.69,16.44,75.91,72.06,174.1,156.39,98.17,83.92,182.83,144.63,189.11,139.48.38-.67,3.08-5.19,2.84-5.21C689.51,629.16,686.65,629.17,682.18,626.81Z" style="fill: #ff0;fill-rule: evenodd"/>
    <path d="M690.6,626.79a.48.48,0,0,0-.41.2c-1.09,1.56-3.94,1.29-7.84-.78-29.08-15-100.68-69.34-181.24-137.86-73.45-63.48-159.33-127.84-171.6-150.69a14.06,14.06,0,0,1-1.18-6.21.72.72,0,0,0-.16-.49.62.62,0,0,0-.43-.22h-.28a.64.64,0,0,0-.54.32l-2.48,4.72-.34.73,0,.07c-5.67,16.74,68.69,66.83,174.35,157.12C584,566.57,668.88,630.36,685.71,633.39a3.32,3.32,0,0,0,2.52-.14.34.34,0,0,0,.14-.15l.32-.54c2.81-4.8,2.78-4.86,2.51-5.36A.79.79,0,0,0,690.6,626.79Zm-3,4.9-.26.44c-6.24,4.17-87.45-53.14-188.33-139.45-84.1-73-179.42-139.51-173.86-155.58l2-3.86a14.7,14.7,0,0,0,1.3,5.05c6.51,14.42,31.95,34.25,172,151.07,80.66,68.58,152.38,123,181.53,138,2.93,1.55,5.33,2.17,7,1.85Q688.49,630.23,687.64,631.69Z"/>
    <path d="M672,653.32c-7.09,8.94-90.5-51-187.37-134.08-.93-.79-3.24-2.69-6.67-5.47-32.07-26.27-74.77-60.26-108.69-88.34-33.92-28.38-59-50.85-56-61.17a.69.69,0,0,0,0-.51.66.66,0,0,0-.35-.33l-.48-.16a.58.58,0,0,0-.7.31l-2.4,4.66a6.75,6.75,0,0,0-.53,4.91c3.84,18.16,60.39,58.88,172.86,151.74,84.19,69.93,157,126.57,181.19,134.3a30.56,30.56,0,0,0,3.06.9c2,.43,3.47.24,4.38-1.31l0,0,2.67-4.45a.79.79,0,0,0-.19-.91A.55.55,0,0,0,672,653.32Zm-2.67,4.45a.43.43,0,0,0,0,.07c-.89,1.57-2.58,1.3-6.3,0-24-7.67-96.65-64.18-180.7-134C370.09,431.19,313.72,390.63,310,372.83a5.34,5.34,0,0,1,.39-3.93l1.5-2.91c.08,18.44,55.69,59.65,165.48,148.81,3.41,2.78,5.72,4.66,6.65,5.45,77.34,65.89,169.48,137.51,186.79,135.09Z"/>
    <path d="M681.59,399.93c-26.65,10.82-105.44,3-177.77-8.85-85.55-16.87-145.93-29-176.18-51.64q-4.59,9.12-9.17,18.29c55.61,26.26,112.6,37.87,185.89,51.56h0c63.49,11.08,141.85,20.36,186.95,10Z" style="fill: #ff0;fill-rule: evenodd"/>
    <path d="M682.1,399.69a.68.68,0,0,0-.8-.4c-20.11,8.41-84.23,6.89-177.47-8.86C412,372.51,356.15,360.2,328,338.9a.55.55,0,0,0-.48-.1.59.59,0,0,0-.38.31q-4.59,9.12-9.17,18.3a.7.7,0,0,0,0,.53.66.66,0,0,0,.33.4c55.94,26.41,112.69,37.9,186.13,51.61h.05c90.39,16.41,155.92,17.49,187.12,10a.5.5,0,0,0,.35-.34.79.79,0,0,0-.06-.56Zm-177.75,8.94h0c-73-13.62-129.45-25.06-185-51.21q4.28-8.54,8.54-17c28.55,21.18,84.51,33.5,176,51.35,92.71,15.65,156.77,17.28,177.55,9q4.51,9,9,18C659.06,426.1,594,424.89,504.35,408.63Z"/>
    <path d="M504.62,392.37c45.77,8.44,81.59,12.44,109.76,14.09,42.21,1.85,66.2-2.34,71-5.58h0l-3.09-6.29c-3.47,2.25-26.3,9.25-68.73,6.37-28-1.64-63.41-5.46-109-13.86-43.26-7.94-78.83-15.86-105.55-22.7-43.45-11-65.47-20.75-71.87-24.53-.86,1.53-1.69,3.05-2.51,4.59,8.23,3.47,31,14.5,73.91,24.88C425.62,376.37,461.14,384.39,504.62,392.37Z" style="fill: #ff0;fill-rule: evenodd"/>
    <path d="M618.69,420.7c-29.2-1.54-67.1-5.49-114.69-14.25-45.21-8.28-81.87-16.74-109.78-23.56C366.59,375.58,343,367.76,318,356.67c-.8,1.69-1.33,2.95-2.16,4.76,8.68,4,32.15,14.49,77.63,26.55,28.09,6.84,65.2,15.31,110.63,23.64,47.82,8.81,86.14,13.17,115.51,14.6,43.32,1.3,72.73-3.59,74.28-6h0l-3.14-6.59C687.39,417.61,663.12,422.58,618.69,420.7Z" style="fill: #ff0;fill-rule: evenodd"/>
    <path d="M328,346.56c10.59,4.69,32.63,14.22,70.55,23.42,30.69,8,67.05,15.85,105.19,22.88l.92.17c38,7,73.94,11.93,109.85,14.1,43,1.88,66.58-2.48,71.31-5.66A.53.53,0,0,0,686,401a.77.77,0,0,0-.09-.36l-3.09-6.29a.82.82,0,0,0-.4-.4.5.5,0,0,0-.48,0c-4.08,2.65-27.88,9.05-68.45,6.3-23-1.31-59.29-4.68-108.87-13.85l-1-.18c-48.06-8.85-83.3-17.08-104.45-22.51-46.92-11.88-68-22.14-71.69-24.46a.57.57,0,0,0-.79.23q-1.28,2.3-2.51,4.6a.69.69,0,0,0,0,.56.65.65,0,0,0,.36.4C325.44,345.47,326.6,346,328,346.56Zm357.45,54.32h0Zm-358-60.14c4.9,2.86,26.23,12.81,71.56,24.3,21.34,5.47,56.95,13.73,105.63,22.72,49.66,9.19,86,12.56,109,13.87,41.92,2.85,63.85-3.77,68.46-6.13q1.25,2.52,2.48,5c-5.48,3.08-28.65,7.07-70.31,5.24-35.84-2.16-71.72-7.11-109.67-14.07-38.39-7-75.05-15-105.94-23-37.8-9.18-59.74-18.67-70.29-23.35-1.06-.46-2-.87-2.82-1.21Q326.49,342.42,327.43,340.74Z"/>
    <path d="M691.31,413.4a.79.79,0,0,0-.47-.43.48.48,0,0,0-.52.14c-3.37,3.94-27.84,8.77-71.72,6.92-38.2-2.1-75.69-7.13-114.6-14.23l-.85-.16c-37.88-6.95-74.49-15-108.84-23.4-28.66-7.58-52.11-15.55-76.05-26.18a.59.59,0,0,0-.76.31c-.48,1-.86,1.85-1.26,2.75-.28.62-.57,1.27-.91,2a.74.74,0,0,0,0,.53.66.66,0,0,0,.33.38l.94.42c9,4.14,32.83,14.48,76.83,26.16,34.3,8.38,71.25,16.41,109.85,23.5l.87.16c40.58,7.42,79.47,12.78,115.61,14.61,41.94,1.27,72.23-3.31,74.63-6.13a.76.76,0,0,0,.08-.11.7.7,0,0,0,0-.66C693.41,417.79,692.36,415.6,691.31,413.4Zm-71.76,12.15c-36.07-1.82-74.9-7.18-115.42-14.59-38.88-7.09-76.05-15.2-110.54-23.62-43.86-11.66-67.61-22-76.55-26.1l-.34-.15.62-1.38c.33-.73.64-1.43,1-2.2,23.85,10.55,47.26,18.47,75.82,26C428.55,392,465.22,400,503.15,407l.85.15c39,7.12,76.51,12.16,114.79,14.26,44.47,1.88,67-2.94,71.88-6.69l2.52,5.28C690.19,422,662.46,426.84,619.55,425.55Z"/>
    <path d="M502.92,508.83c-92.59-18.94-178.58-37.69-207.24-56.28q.09,10.35.17,20.68h0c39,20.93,125.8,38.14,207.89,55.12,74.74,13.93,172.11,24,208.52,9.83q-.5-11.61-1-23.23C699.87,533,595.52,527.15,502.92,508.83Z" style="fill: #ff0;fill-rule: evenodd"/>
    <path d="M711.41,514.35a.51.51,0,0,0-.66.15c-11.19,17.68-116,11.75-207.82-6.32C412,489.5,324.92,470.7,296,452a.58.58,0,0,0-.62,0,.72.72,0,0,0-.31.6q.09,10.32.17,20.64a.63.63,0,0,0,.31.6c27.92,15.68,97.26,33.3,208.17,55.2l1.12.21c73.61,13.61,171.07,23.88,207.69,9.6a.53.53,0,0,0,.32-.55q-.5-11.61-1-23.23A.83.83,0,0,0,711.41,514.35ZM504.86,527.91l-1.12-.21c-110.27-21.77-179.3-39.29-207.29-54.87q-.07-9.54-.16-19.09c30,18.51,116.4,37.25,206.63,55.75,91.44,18.06,192.14,24,207.82,7.19l.9,21C674.93,551.7,578.09,541.45,504.86,527.91Z"/>
    <path d="M714.25,533.67h0c-8.66,6.8-52.64,10.2-83.51,8.27-32.54-1.55-75-7.05-128-16.83-50.29-9.24-90.36-18.18-121.41-26-17.34-5.08-69-17.07-88-29.8,0,2.13,0,4.27,0,6.4,6.34,4,37.94,16.46,87.36,28.41,31.25,7.81,71.56,16.8,122.11,26.08,53.2,9.83,95.9,15.36,128.65,16.92,43,1.83,77.34-1.9,82.81-8v-5.49Z" style="fill: #ff0;fill-rule: evenodd"/>
    <path d="M714.27,514.14h0c-8.66,6.79-52.64,10.19-83.51,8.26-32.54-1.54-75-7-127.95-16.82-50.3-9.24-90.37-18.18-121.42-26-17.34-5.07-69-17.06-88-29.8,0,2.14,0,4.27,0,6.41,6.34,4,38,16.46,87.36,28.4,31.25,7.82,71.56,16.8,122.11,26.09,53.2,9.83,95.9,15.36,128.65,16.92,43,1.83,77.34-1.9,82.81-8v-5.49Z" style="fill: #ff0;fill-rule: evenodd"/>
    <path d="M714.81,514a.81.81,0,0,0-.43-.44.51.51,0,0,0-.51,0c-8.61,6.76-52.55,10.09-83.2,8.17-37.84-1.86-80.86-8.18-127.86-16.81C458.34,496.75,417.52,488,381.49,479c-15.76-4.68-68.67-17-87.79-29.72a.58.58,0,0,0-.62,0,.7.7,0,0,0-.32.59l0,6.4a.68.68,0,0,0,.3.57c7.62,4.77,40.25,17,87.57,28.47,36.32,9.08,77.43,17.87,122.21,26.1,47.26,8.68,90.58,15,128.74,16.93,42.52,1.81,77.5-1.81,83.19-8.15a.59.59,0,0,0,.14-.4c0-1.83,0-3.66,0-5.49A.85.85,0,0,0,714.81,514Zm-83.44,13c-38.1-1.88-81.36-8.24-128.56-16.91-44.71-8.21-85.77-17-122-26.07-50.83-12.25-81.2-24.72-86.84-28.16,0-1.6,0-3.21,0-4.82,20,12.57,71.76,24.66,87.34,29.25,36.09,9.06,77,17.81,121.51,26,47.06,8.64,90.14,15,128,16.83,29.77,1.86,72.11-1.25,82.82-7.69v3.89C707.8,525.23,672.6,528.72,631.37,527Z"/>
    <path d="M714.5,533.12a.54.54,0,0,0-.65,0c-8.61,6.75-52.55,10.08-83.2,8.17-37.85-1.87-80.87-8.19-127.87-16.82-44.46-8.17-85.28-16.91-121.31-26-15.77-4.68-68.7-17-87.79-29.71a.56.56,0,0,0-.62,0,.67.67,0,0,0-.32.58l0,6.41a.64.64,0,0,0,.3.56c7.62,4.78,40.26,17,87.57,28.47,36.35,9.08,77.46,17.88,122.21,26.1,47.27,8.68,90.58,15.05,128.74,16.93,42.51,1.82,77.5-1.81,83.19-8.15a.59.59,0,0,0,.14-.4c0-1.83,0-3.66,0-5.49A.85.85,0,0,0,714.5,533.12Zm-83.15,13.37c-38.1-1.88-81.36-8.24-128.56-16.91-44.69-8.2-85.74-17-122-26.07-50.82-12.25-81.2-24.71-86.84-28.15,0-1.61,0-3.21,0-4.82,19.41,12.29,67.37,23.56,87.34,29.25,36.1,9,77,17.8,121.5,26,47.06,8.64,90.14,15,128.05,16.85,29.77,1.85,72.1-1.26,82.82-7.69v3.87C707.78,544.77,672.57,548.25,631.35,546.49Z"/>
    <path d="M503.56,618.65c-89.82-18-166.79-47.11-183-51q5.93,10.21,11.85,20.52c28.71,13.19,103.79,39.4,172.05,50.59,68.26,10.53,127.91,18.78,170,5.18q6.07-9.24,12.15-18.48c-28.65,9-126.14,3.26-183-6.78Z" style="fill: #ff0;fill-rule: evenodd"/>
    <path d="M686.26,624.78c-28.2,8.83-125.53,3.32-182.7-6.79-79.12-15.68-148.52-40.74-174.65-48.5-3.53-1.12-6.32-2-8.24-2.51a.58.58,0,0,0-.64.25.7.7,0,0,0,0,.74q5.93,10.21,11.85,20.52a.68.68,0,0,0,.27.26c28.18,13.06,97.35,36.77,161.77,48.9q5.29.95,10.53,1.74c62.47,9.54,126.33,19.3,170.19,5.17a.53.53,0,0,0,.25-.19L687,625.89a.74.74,0,0,0-.06-.8A.66.66,0,0,0,686.26,624.78ZM674,643.31c-43.65,14-107.28,4.26-169.55-5.24-66.95-11-141.87-36.8-171.62-50.44q-5.46-9.52-10.93-19c1.77.53,4,1.23,6.74,2.08,26.17,7.77,95.68,32.84,175,48.55h0c56.12,9.92,150.9,15.44,181.38,7.3Q679.45,635,674,643.31Z"/>
    <path d="M607.61,646.61A652.11,652.11,0,0,1,504.1,635.94c-58-12.3-119.18-28.79-173.67-51.22l-4.19-1.86-.41.69,2.48,4.7c30.64,14.81,95.77,36.32,175.34,52.67,37,6.72,78.64,11.21,105.57,11,13.19.51,44.43-.67,64.26-4.09,1.84-2.47,3.66-5,5.45-7.64l-1.44.57C671.82,643,653.33,646.56,607.61,646.61Z" style="fill: #ff0;fill-rule: evenodd"/>
    <polygon points="678.93 640.16 678.93 640.16 678.93 640.16 678.93 640.16" style="fill: #ff0;fill-rule: evenodd"/>
    <path d="M689.47,623.36h0l-5.3,1c.12.18.23.36.33.53-7.39,1-32,4.5-80.88,2.16-27.39-1.72-48.77-2.59-99-10.86C437.43,602.67,376.49,583.32,316.84,566q1.17,2.46,2.35,4.94c15.83,5.5,82.47,28.12,185.4,50.43,54.93,9.2,72.1,9.33,99.71,11,41.91,2.72,70.61-.25,81.18-2.19,1.41-2.22,2.79-4.44,4.12-6.63l-.13-.21Z" style="fill: #ff0;fill-rule: evenodd"/>
    <polygon points="678.93 640.16 678.93 640.17 678.93 640.16 678.93 640.16" style="fill: #ff0;fill-rule: evenodd"/>
    <path d="M678.65,639.55l-1.44.58c-3.45,1.36-18.67,5.78-69.7,5.84a649.43,649.43,0,0,1-103.4-10.66c-66.48-14.09-124.85-31.12-173.47-51.17l-4.19-1.87a.57.57,0,0,0-.7.24l-.4.7a.68.68,0,0,0,0,.65l2.48,4.7a.59.59,0,0,0,.27.27c30.28,14.66,94.43,36.09,175.57,52.72,35.2,6.39,77.68,11.22,105.67,11,13.59.53,44.65-.7,64.35-4.1a.43.43,0,0,0,.28-.18c1.77-2.37,3.61-4.94,5.46-7.66a.7.7,0,0,0-.06-.79A.62.62,0,0,0,678.65,639.55Zm-5.54,7.65c-19.65,3.37-50.47,4.58-64,4.06-28,.22-70.33-4.6-105.45-11-54.53-11.48-129.73-30.95-175-52.53q-1.06-2-2.15-4.08l3.68,1.63C379,605.39,437.47,622.45,504.1,636.57a645.18,645.18,0,0,0,103.62,10.69c48.65-.06,64.94-4.09,69.44-5.68C675.78,643.55,674.43,645.43,673.11,647.2Z"/>
    <path d="M690,623.12h0a.7.7,0,0,0-.69-.4l-5.3,1a.46.46,0,0,0-.35.36.57.57,0,0,0,0,.26l-.11,0c-8.12,1.11-32.83,4.3-80,2.05l-8.68-.56c-23.38-1.37-45.46-3-90.26-10.29C444.77,603.7,385.15,585.4,317,565.36a.53.53,0,0,0-.6.21.68.68,0,0,0-.06.69l2.34,4.94a.66.66,0,0,0,.34.32c29.84,10.29,93.63,30.59,185.59,50.45,46.88,7.8,66,9.17,88.11,10.34,3.76.22,7.6.45,11.67.72,37.29,2.41,67.1.4,81.3-2.19a.4.4,0,0,0,.29-.2c1.42-2.23,2.8-4.45,4.13-6.64a.74.74,0,0,0,0-.73Zm-4.86,6.48c-14.23,2.57-43.85,4.54-80.88,2.15-4.07-.28-7.91-.5-11.68-.72-22.08-1.18-41.15-2.54-87.93-10.32-91.57-19.77-155.14-40-185-50.32L318,566.94C385.68,586.85,445,605,504.61,616.88c44.88,7.34,67,8.93,90.41,10.31l8.68.56c47.23,2.25,72-.94,80.14-2.06l.83-.11a.47.47,0,0,0,.37-.32.69.69,0,0,0,0-.35l3.38-.67C687.35,626,686.23,627.81,685.1,629.6Z"/>
    <path d="M503.25,253.12c-114.42-22.71-207.74,81.79-207.74,207.39,0,124.48,93.32,223.94,207.74,246.64,114.42,22.28,208.52-57.42,208.52-183.41C711.77,399.65,617.67,275.4,503.25,253.12ZM690.54,513.91h0c.29,64.81-29.94,116.45-54.3,136.73-34.46,28.81-80.14,41.78-133.49,33C443.17,673.54,387,625.57,371.93,606.07c-29.46-38.74-53.45-85.11-54.21-147.65,3.64-70.57,29-119.88,65.66-150.47,36.7-30.78,85.56-40,126.25-31.07,47,10.07,101.8,47.56,139.7,105.86,24.82,38.2,35.58,76.06,41.21,131.17Z" style="fill: #ff0;fill-rule: evenodd"/>
    <path d="M509.63,276.88c-40.69-8.92-89.55.29-126.25,31.07-36.7,30.59-62,79.9-65.66,150.47.76,62.54,24.75,108.91,54.21,147.65,15.06,19.5,71.24,67.47,130.82,77.58,53.35,8.77,99-4.2,133.49-33,24.36-20.28,54.59-71.92,54.3-136.73-5.63-55.11-16.39-93-41.21-131.17C611.43,324.44,556.58,287,509.63,276.88Z" style="fill: #ff0;fill-rule: evenodd"/>
    <path d="M503.25,252.46c-114.88-22.8-208.34,82-208.34,208.06,0,125,93.46,224.5,208.34,247.29,55.55,10.23,108-1.55,147.59-36.1s61.54-87.26,61.54-147.85S690.52,401.75,650.84,350C611.21,298.36,558.8,262.68,503.25,252.46ZM650,670.59c-39.41,34.35-91.52,46.07-146.75,35.91C389,683.85,296.11,584.77,296.11,460.49c0-125.35,92.93-229.36,207.14-206.71C558.48,263.94,610.59,299.4,650,350.72c39.45,51.49,61.17,112.65,61.17,172.9S689.45,636.29,650,670.59Z"/>
    <path d="M509.65,276.22c-43.77-9.57-92.31,2.36-126.66,31.2-40.35,33.74-62.51,86-65.88,151,.66,53.74,18.44,101,54.37,148.05,13.14,17,67.66,65.95,128.73,77.41.85.15,1.7.3,2.55.43,50.74,8.31,97-2.32,133.9-33.1,26.44-22,54.77-74.47,54.48-137.17V514c-5.94-58.06-17.53-94.89-41.35-131.54C615,329,561.33,287.37,509.65,276.22ZM635.82,650.07c-36.63,30.6-82.65,41.18-133.09,32.92l-2.52-.43c-60.65-11.38-114.79-60-127.83-76.89-35.72-46.83-53.41-93.85-54.06-147.21,3.34-64.61,25.36-116.48,65.44-150,33.06-27.71,79.32-39.75,121.71-31.79,1.39.26,2.77.53,4.15.83C561,288.61,614.31,330,648.86,383.06c23.65,36.39,35.17,73,41.08,130.77C690.21,576.12,662.08,628.21,635.82,650.07Z"/>
    <path d="M503.81,252.44h0c-114.52-22.76-207.92,82-207.92,208,0,124.89,93.4,224.73,207.92,247.49,114.52,22.33,207.92-57.87,207.92-184.25C711.73,399.19,618.33,274.78,503.81,252.44Zm0,450.49C392.31,680.8,300.46,582.31,300.46,460.35c0-123,91.85-225,203.35-202.9,111.5,21.68,203.35,143.69,203.35,265.3C707.16,646.14,615.31,724.61,503.81,702.93Z" style="fill: #ff0;fill-rule: evenodd"/>
    <path d="M503.81,251.78c-115-22.85-208.52,82.19-208.52,208.69,0,125.39,93.54,225.27,208.52,248.13,115,22.43,208.53-57.89,208.52-184.79C712.34,398.82,618.79,274.22,503.81,251.78Zm0,455.5c-114.32-22.7-207.32-122.17-207.32-246.84,0-125.76,93-230,207.32-207.34,114.32,22.29,207.32,146.18,207.32,270.46C711.13,649.72,618.13,729.57,503.81,707.28Z"/>
    <path d="M503.81,256.79c-54.12-10.07-105.23,6.91-143.91,47.08s-60,97.25-60,156.5c0,59.51,21.32,114.48,60,159s89.79,74.09,143.91,84.17,105.24-1.72,143.91-35.7,60-85.64,60-145-21.32-119.74-60-170.54S557.94,266.77,503.81,256.79Zm143.06,410c-38.45,33.78-89.25,45.42-143.06,35.5S399.2,662.78,360.75,618.54s-59.68-99-59.68-158.2c0-58.89,21.19-115.6,59.68-155.48S450,248.1,503.81,258.11s104.61,44.62,143.06,95c38.49,50.51,59.69,110.5,59.69,169.54S685.36,633.06,646.87,666.77Z"/>
    <polygon points="503.98 271.4 503.98 271.4 503.98 271.4 503.98 271.4" style="fill: #ff0;fill-rule: evenodd"/>
    <path d="M504,271.4C399.55,250.85,313.52,344.86,313.52,460c0,114.3,86,208.06,190.46,228.61,104.43,20.16,190.45-53.25,190.45-168.73C694.43,405.92,608.41,291.56,504,271.4Zm0,412.22c-101.93-20-185.88-112-185.88-223.57,0-112.39,83.95-203.64,185.88-183.64C605.91,296,689.86,407.67,689.86,519,689.86,631.62,605.9,703.25,504,683.62Z" style="fill: #ff0;fill-rule: evenodd"/>
    <path d="M504,275.75c-49.49-9.2-96.22,6.05-131.59,42.26S317.5,405.85,317.5,460c0,54.4,19.49,105.23,54.89,146.49s82.1,68.55,131.59,77.75,96.22-1.72,131.59-32.75,54.89-78.15,54.89-132.45S671,409.48,635.57,363,553.47,284.87,504,275.75ZM634.72,650.41C599.58,681.24,553.15,692,504,683s-95.6-36.36-130.74-77.31S318.7,514.1,318.7,460.05c0-53.84,19.37-105.11,54.54-141S454.81,267.93,504,277.07s95.6,40.62,130.74,86.68,54.54,101.13,54.54,155.08S669.89,619.62,634.72,650.41Z"/>
    <path d="M504,270.74c-50.7-9.43-98.58,6.27-134.82,43.5S312.92,404.52,312.92,460c0,55.74,20,107.67,56.24,149.81s84.12,70,134.82,79.46,98.58-1.73,134.81-33.53S695,575.67,695,520s-20-112.26-56.23-159.87S554.68,280.09,504,270.74Zm134,383.91c-36,31.6-83.58,42.61-134,33.33s-98-37.19-134-79S314.13,515.42,314.13,460c0-55.16,19.84-107.84,55.89-144.79s83.58-52.55,134-43.18,98,41.67,134,88.86,55.89,103.59,55.89,158.87S674,623.1,637.94,654.65Z"/>
    <path d="M494.54,249.85q0,228.8,0,457.61,8.94,1.59,17.88,3.27,0-228.81-.08-457.62Q503.45,251.43,494.54,249.85Z" style="fill: #ff0;fill-rule: evenodd"/>
    <path d="M512.36,252.45q-8.91-1.68-17.82-3.26a.51.51,0,0,0-.43.11.6.6,0,0,0-.17.44q0,228.81,0,457.61a.78.78,0,0,0,.6.76q8.94,1.6,17.88,3.28a.51.51,0,0,0,.43-.11.58.58,0,0,0,.17-.43Q513,482,513,253.22A.8.8,0,0,0,512.36,252.45Zm-17.2,454.46,0-456.3q8.31,1.48,16.62,3,0,228.15.08,456.3Q503.5,708.4,495.16,706.91Z"/>
    <path d="M492.89,247V709.82l4.58.82q0-231.43,0-462.88Z" style="fill: #ff0;fill-rule: evenodd"/>
    <path d="M510.57,250.17q0,231.44,0,462.88l4.54.85,0-462.88Z" style="fill: #ff0;fill-rule: evenodd"/>
    <path d="M497.46,247.1l-4.57-.81a.55.55,0,0,0-.6.55V709.72a.79.79,0,0,0,.6.76l4.58.82a.46.46,0,0,0,.42-.12.59.59,0,0,0,.18-.43q0-231.43,0-462.88A.8.8,0,0,0,497.46,247.1Zm-4,462.17V247.71l3.37.6V709.87Z"/>
    <path d="M515.11,250.36l-4.54-.85a.48.48,0,0,0-.42.11.59.59,0,0,0-.18.43q0,231.45,0,462.89a.81.81,0,0,0,.6.77l4.54.85a.48.48,0,0,0,.42-.11.55.55,0,0,0,.18-.43q0-231.45,0-462.89A.8.8,0,0,0,515.11,250.36Zm-3.9,462.14q0-230.78,0-461.56l3.34.63q0,230.78,0,461.56Z"/>
    <path d="M627.9,464.16c-34.3-11.31-68.6-22.61-102.9-33.1-41.3-5.72-82.6-10.26-123.9-12.26A896.79,896.79,0,0,0,312.9,437q-8.91,7.23-17.81,14.68V468.6q22.56-11.67,45.11-21.92a979.87,979.87,0,0,1,107.1-8.28c34.3,5,68.6,11.38,102.9,18.39,25.2,8.21,50.4,16.75,75.6,25.32,17.5,8.41,35,16.84,52.5,25.16q16.79,12.71,33.58,25.26V515.61q-6.28-7.69-12.58-15.42C675.5,488.35,651.7,476.25,627.9,464.16Z" style="fill: #ff0;fill-rule: evenodd"/>
    <path d="M699.71,499.8a.75.75,0,0,0-.26-.21c-23.83-11.85-47.66-24-71.49-36.07-34.33-11.32-68.66-22.63-103-33.12-41.34-5.72-82.67-10.27-124-12.25a894,894,0,0,0-88.2,18.21.65.65,0,0,0-.22.11q-8.9,7.23-17.81,14.69a.72.72,0,0,0-.24.54v16.92a.64.64,0,0,0,.27.54.55.55,0,0,0,.58,0q22.52-11.64,45-21.88a981.72,981.72,0,0,1,106.93-8.26c34.28,5,68.56,11.37,102.83,18.37,25.18,8.2,50.35,16.73,75.53,25.29q26.19,12.58,52.37,25.09,16.8,12.7,33.58,25.26a.8.8,0,0,0,.27.12.58.58,0,0,0,.32,0,.56.56,0,0,0,.28-.51V515.74a.83.83,0,0,0-.19-.52Q706,507.53,699.71,499.8Zm11.57,31.55q-16.42-12.27-32.84-24.69c-17.52-8.33-35.05-16.77-52.57-25.19-25.23-8.57-50.45-17.12-75.67-25.34-34.33-7-68.66-13.41-103-18.4A982.38,982.38,0,0,0,340.11,446a.43.43,0,0,0-.16.05q-22.12,10.1-44.26,21.5V452q8.74-7.31,17.47-14.39a897.93,897.93,0,0,1,88-18.15c41.27,2,82.54,6.54,123.81,12.24,34.27,10.48,68.54,21.77,102.81,33.07,23.75,12.06,47.5,24.14,71.25,36l12.28,15Z"/>
    <path d="M638.43,486C600.64,469.73,553,453.88,503.9,444.94h0c-51.84-9.52-99.91-10.38-137.14-4.81-41.31,6.24-70.75,20.53-73.47,29.3v6.18c4.94-13,44.49-26.18,74.14-30.27,36.95-5.5,84.94-4.73,136.47,4.74,48.83,8.88,96.15,24.62,133.65,40.74,28.45,12.51,65.38,31.26,76.69,48.42,0-2,0-4,0-5.94C704.87,519.43,677.43,503.07,638.43,486Z" style="fill: #ff0;fill-rule: evenodd"/>
    <path d="M638.45,466.46c-37.79-16.25-85.43-32.11-134.53-41h0C452.08,415.9,404,415,366.78,420.6c-40.71,5.89-70.76,20.61-73.47,29.29v6.19c4.59-13,45.75-26.65,74.37-30.25,37-5.48,84.71-4.74,136.24,4.72,48.83,8.88,96.15,24.62,133.65,40.75C666,483.81,703,502.56,714.26,519.71c0-2,0-4,0-5.94C704.89,499.9,677.45,483.54,638.45,466.46Z" style="fill: #ff0;fill-rule: evenodd"/>
    <path d="M638.57,465.84c-40.27-17.34-88.09-32.67-134.66-41.08h0c-48.76-9-97.5-10.76-137.24-4.82-39.17,5.62-70.95,20.18-73.93,29.76a.76.76,0,0,0,0,.21v6.19a.62.62,0,0,0,.49.63h.11a.62.62,0,0,0,.56-.43c4.12-11.6,41.16-25.54,73.92-29.83,39.82-5.89,88.16-4.08,136.13,4.73,46.25,8.38,93.64,23.53,133.54,40.71,23.37,10.29,64.37,30,76.34,48.12a.67.67,0,0,0,.67.33.5.5,0,0,0,.39-.53V513.9a.78.78,0,0,0-.14-.46C705.62,500,679.29,483.67,638.57,465.84Zm75.09,52c-13.37-18-53.08-37.12-76-47.19-39.56-17-86.5-32.08-132.34-40.52l-1.44-.27c-48-8.82-96.46-10.63-136.34-4.72-25.89,3.27-65.26,15.38-73.66,28.41V450c2.66-7.82,30.59-22.54,73-28.74,39.67-5.92,88.33-4.11,137,4.83l1.34.24c46.07,8.48,93.28,23.62,133.07,40.76,40.24,17.62,66.28,33.65,75.34,46.82C713.67,515.22,713.67,516.54,713.66,517.87Z"/>
    <path d="M638.55,485.36C598.3,468,550.49,452.72,503.89,444.28c0,.22,0,.44,0,.66,0-.22,0-.44,0-.66-48.74-8.95-97.48-10.75-137.25-4.81s-71,20.31-73.92,29.76a.76.76,0,0,0,0,.21v6.19a.63.63,0,0,0,.48.63h.12a.64.64,0,0,0,.56-.42c4.54-11.9,41.38-25.31,73.69-29.85,39.78-5.91,88.21-4.1,136.36,4.74,46.28,8.38,93.64,23.52,133.53,40.7,23.38,10.3,64.39,30,76.35,48.13a.68.68,0,0,0,.66.33.51.51,0,0,0,.4-.54v-5.93a.76.76,0,0,0-.14-.46C705.6,519.49,679.26,503.19,638.55,485.36Zm75.09,52c-13.37-18-53.08-37.12-76-47.19-39.57-17-86.53-32.08-132.38-40.53l-1.4-.25c-48.22-8.86-96.73-10.66-136.58-4.73-23.83,3.18-64.61,14.9-73.41,28.48v-3.65c3.32-10.27,40-24,73-28.74,39.69-5.92,88.35-4.12,137,4.82,46.53,8.46,94.24,23.7,134.41,41,40.23,17.61,66.27,33.64,75.34,46.82C713.65,534.75,713.65,536.07,713.64,537.39Z"/>
    <path d="M502.91,325.6h0c-66.57-12.85-140.33-10.46-171.61,7.29q-6.72,12.15-13.45,24.43C356,334.53,431.93,333,503,346.29c87.25,14,160.07,47.95,186.91,69q-5.62-11.85-11.26-23.72C647.79,368,580.29,339.65,502.91,325.6Z" style="fill: #ff0;fill-rule: evenodd"/>
    <path d="M679.19,391.32a1,1,0,0,0-.25-.31c-32.39-24.78-101.46-52.57-176-66.07h-.07c-62.09-12.1-139.26-11.21-171.81,7.38a.62.62,0,0,0-.24.24q-6.72,12.17-13.45,24.44a.71.71,0,0,0,.09.79.54.54,0,0,0,.43.21.54.54,0,0,0,.28-.08c19.09-10.38,68.49-31.19,184.91-11,85.31,13.66,158.45,46.74,186.61,68.83a.53.53,0,0,0,.71,0,.65.65,0,0,0,.09-.77Q684.83,403.19,679.19,391.32ZM503,345.63c-113-19.7-163.1-.52-183.56,10.06q6.14-11.19,12.27-22.28c32.47-18.4,109.33-19.21,171.18-7.14H503c74.2,13.46,143,41.06,175.24,65.67l10.15,21.37C658.83,391.2,586.74,359,503,345.63Z"/>
    <polygon points="503.92 323.89 503.92 323.89 503.92 323.89 503.92 323.89" style="fill: #ff0;fill-rule: evenodd"/>
    <path d="M503.92,328.9c42.23,8.15,82.21,19.31,114.46,32.4C646,372.7,677.23,389,685.53,400.87q-2.44-4.77-4.88-9.53c-9.29-9.55-34.64-23.58-60.28-34.65-32.51-13.46-74.21-25.17-116.45-32.8-44.59-8.12-85.8-10.83-117.83-7.2-23.25,2.88-41.71,8.19-53.13,14.48-1.44,2.33-2.87,4.67-4.3,7,8.28-5.64,27.85-12.75,58.18-16.38C418.63,318.22,459.59,320.83,503.92,328.9Z" style="fill: #ff0;fill-rule: evenodd"/>
    <path d="M624.64,377.58c-33.92-14.07-76.57-26.19-120.7-34.17h0c-49.22-8.74-88.34-11.82-122.69-7.82-31.15,3.6-49.68,11.26-61.37,17.63L316.61,360c6-4.83,30.39-15.13,65.51-19.36,33.22-3.54,71.92-1.42,121.74,7.92,43.89,7.93,86.51,19.6,120.12,33.82s59.54,28.21,70,37.87q-1.66-3.58-3.34-7.17C686.34,407,656.22,390.94,624.64,377.58Z" style="fill: #ff0;fill-rule: evenodd"/>
    <polygon points="503.92 323.23 503.92 323.23 503.92 323.23 503.92 323.23"/>
    <path d="M329,338.73c9.41-6.45,31.08-13.11,58-16.28,30.25-3.39,70.7-1.31,117,7.11,47.62,9.25,85,20.5,114.37,32.37,25.47,10.53,58.25,27.1,66.8,39.29a.72.72,0,0,0,.45.31.45.45,0,0,0,.36-.06.64.64,0,0,0,.15-.84l-4.89-9.54a.9.9,0,0,0-.14-.2c-8.72-9-33-22.95-60.54-34.82-30.14-12.46-70.4-24.43-116.55-32.84C457,314.69,416.2,312.61,386,316c-23.53,2.92-42,8.3-53.3,14.55a.58.58,0,0,0-.22.22q-2.16,3.49-4.3,7a.71.71,0,0,0,.07.83A.57.57,0,0,0,329,338.73Zm4.38-7c11.26-6.16,29.52-11.46,52.83-14.35,30.15-3.4,70.86-1.32,117.72,7.21,46.06,8.34,86.27,20.34,116.33,32.76,27.24,11.76,51.29,25.56,60,34.39q1.31,2.57,2.63,5.13c-11.86-11.92-41.13-26.57-64.34-36.16-29.41-11.89-66.88-23.16-114.58-32.43-46.34-8.43-86.86-10.51-117.18-7.11-25.06,3-45.65,9-56.12,15.05Z"/>
    <polygon points="503.94 344.07 503.94 344.07 503.94 344.07 503.94 344.07"/>
    <path d="M691.1,412.76c-4.39-6.18-34.15-22.18-66.36-35.81-31.52-13.05-73.24-25.55-120.8-34.2-56.11-9.9-91.68-11.36-122.8-7.81-25.65,2.93-45.77,9-61.53,17.69a.64.64,0,0,0-.26.28l-3.27,6.81a.71.71,0,0,0,.14.81.55.55,0,0,0,.75,0c6.06-4.87,30.32-15,65.26-19.23,33.22-3.54,71.86-1.41,121.63,7.92,49.66,9,90.07,21.17,120,33.79,34.1,14.54,59.53,28.26,69.79,37.72a.83.83,0,0,0,.33.18.46.46,0,0,0,.41-.1.64.64,0,0,0,.11-.78C693.37,417.63,692.24,415.2,691.1,412.76Zm-67-31c-29.35-12.38-68.67-24.24-116.92-33.26l-3.31-.6C454,338.61,415.32,336.46,382,340c-32.16,3.87-55.38,12.85-63.81,18.12l2.13-4.41c15.62-8.55,35.59-14.57,61-17.47,31-3.53,66.56-2.07,122.58,7.82h0c47.44,8.62,89.14,21.11,120.59,34.13,31.44,13.31,61.51,29.39,65.6,35.13.73,1.58,1.47,3.15,2.2,4.73C680.9,408.6,656.33,395.54,624.09,381.79Z"/>
    <polygon points="503.94 342.75 503.94 342.75 503.94 342.75 503.94 342.75"/>
    <polygon points="607.22 595.96 607.22 595.96 607.21 595.96 607.22 595.96" style="fill: #ff0;fill-rule: evenodd"/>
    <path d="M504.56,547.27c-83-17.37-153.2-7.21-186,19.11q4.83,8.63,9.64,17.33c5.09-7,46.74-38.71,175.7-17.46,26.77,4.51,65.1,13.53,103.35,29.71l8.9-15.25C584.83,567.3,547.65,556,504.56,547.27Z" style="fill: #ff0;fill-rule: evenodd"/>
    <path d="M616.22,580.09c-29.63-12.69-66.16-24.23-111.65-33.48-83.83-17.53-153.49-7.13-186.4,19.23a.71.71,0,0,0-.16.88q4.83,8.63,9.64,17.32a.61.61,0,0,0,.5.33h0a.58.58,0,0,0,.5-.28c5.58-7.93,49.74-38,175.21-17.18A473,473,0,0,1,607,596.55a.5.5,0,0,0,.71-.15l8.89-15.25a.66.66,0,0,0,0-.6A.81.81,0,0,0,616.22,580.09Zm-9.32,15.07a473.34,473.34,0,0,0-103-29.57c-54.72-9.45-101.21-9.4-134.45-1.76-25.95,6-37.77,14.47-41.18,18.72q-4.44-8-8.89-16c32.89-25.92,102.06-36,185.22-18.64,45,9.15,81.2,20.55,110.62,33.06Q611,588.06,606.9,595.16Z"/>
    <path d="M503.12,563.69h0c-45.74-8-90.64-12.09-138.64-.19-24.73,6-38,15.52-38.67,20q1.21,2.24,2.45,4.47c2.23-7.72,24.12-16.36,37.34-19.42,41.91-10.5,90-8.75,137.64.46,37.27,6.64,70.92,16.3,102.49,29.5l2.46-4.22c-34-14.31-69.2-23.44-105.07-30.59Z" style="fill: #ff0;fill-rule: evenodd"/>
    <polygon points="503.12 563.69 503.12 563.69 503.12 563.69 503.12 563.69" style="fill: #ff0;fill-rule: evenodd"/>
    <path d="M504.75,544.22c-48.12-8.83-98.89-12.21-145.29-.08-20,5.1-42.2,14.57-42.76,22q1.23,2.39,2.45,4.77c.86-8.21,26.52-18,41.38-21.69,46.05-12,96.69-8.53,144.44.24,44.19,9,76.38,18.5,110.07,33.1l2.56-4.4c-37.31-16.22-75.69-26.33-112.85-33.92Z" style="fill: #ff0;fill-rule: evenodd"/>
    <path d="M608.29,593.68C573.51,579,537.23,569.85,503.2,563.07l-.09,0c-50.13-8.74-92.92-11.53-138.79-.18-24.32,6-38.29,15.44-39.08,20.51a.7.7,0,0,0,.07.43q1.23,2.24,2.45,4.47a.59.59,0,0,0,.5.31h.07a.59.59,0,0,0,.48-.43c2.05-7.09,22.84-15.72,36.95-19,38.61-9.64,84.84-9.68,137.48.47,39.18,6.93,72.68,17.06,102.38,29.47a.47.47,0,0,0,.61-.17l2.46-4.23a.66.66,0,0,0,0-.57A.81.81,0,0,0,608.29,593.68Zm-2.86,4.06c-29.68-12.37-63.08-22.37-102.19-29.38-52.74-10.16-99.09-10.12-137.79-.43-12.72,3-33.31,11-37.27,18.67l-1.76-3.21c1-4,13.6-13.25,38.22-19.28,45.72-11.3,88.4-8.52,138.41.2h.06c33.74,6.71,69.7,15.78,104.17,30.23Z"/>
    <path d="M617.71,577.55c-37.73-16.42-76.59-26.55-113-34h0C445.2,532.72,399,533.21,359.3,543.53c-9.95,2.34-42.44,12.69-43.17,22.54a.65.65,0,0,0,.07.36l2.45,4.76a.56.56,0,0,0,.5.33h.12a.61.61,0,0,0,.46-.55c.71-6.79,21.73-16.25,41-21.14,39.19-10.12,85-10.56,144.27.25,40.12,8.1,74.18,17.52,110,33.06a.45.45,0,0,0,.62-.17l2.56-4.4a.66.66,0,0,0,0-.57A.74.74,0,0,0,617.71,577.55Zm-3,4.21C579,566.29,545,556.89,505,548.8c-59.35-10.83-105.3-10.38-144.59-.22-4,.81-37.19,10.51-41.38,20.7L317.3,566c.77-5.76,17.3-14.72,42.32-21.23,39.58-10.27,85.69-10.75,145.12.09,36.06,7.35,74.56,17.37,112,33.55Z"/>
    <path d="M594.3,514.37c-26.6-24.13-53.2-48.09-79.8-71.52-46.2-34.8-92.4-68-138.6-97.64q-21-7.38-42-13.73l-4.89,2.8q-7.22,14.49-14.41,29.1c22.53,8.47,45.07,18,67.6,28.34,43.4,29.73,86.8,62.51,130.2,96.73,38.5,35.61,77,72.35,115.5,109.11q22.26,26.52,44.52,53l15.5-23c.29-1.77.59-3.53.88-5.29q-13.65-20.13-27.3-40.33Q627.9,548.17,594.3,514.37Z" style="fill: #ff0;fill-rule: evenodd"/>
    <path d="M661.85,581.41q-33.61-33.72-67.23-67.53c-26.61-24.14-53.23-48.12-79.84-71.57-46.25-34.83-92.49-68.05-138.73-97.73q-21-7.38-42-13.73a.56.56,0,0,0-.44,0l-4.89,2.81a.6.6,0,0,0-.24.26q-7.2,14.49-14.41,29.1a.77.77,0,0,0,0,.56.63.63,0,0,0,.37.38c22.5,8.45,45,17.95,67.5,28.27,43.39,29.71,86.77,62.46,130.15,96.67,38.48,35.57,77,72.29,115.44,109q22.26,26.5,44.52,53a.75.75,0,0,0,.4.25l.08,0a.48.48,0,0,0,.43-.21q7.74-11.5,15.49-23a.43.43,0,0,0,.09-.22c.29-1.77.59-3.53.88-5.29a.87.87,0,0,0-.13-.58Q675.55,601.68,661.85,581.41Zm26.07,46.08h0Zm-.57-.37L672.3,649.5q-22-26.14-44.06-52.41c-38.52-36.78-77-73.54-115.55-109.16-43.43-34.25-86.86-67.06-130.3-96.82-22.3-10.24-44.61-19.68-66.92-28.1q7-14.19,14-28.23l4.53-2.6q20.82,6.27,41.64,13.59c46.19,29.63,92.37,62.79,138.56,97.58,26.59,23.41,53.18,47.36,79.77,71.48Q627.49,548.44,661,582.2q13.56,20.07,27.12,40.06Z"/>
    <path d="M502.33,477.67C411.16,399.4,324,354.36,312.17,364.07h0l-2.61,5.5c8.3-11.82,91.39,28,191.09,112.51,102.27,87.16,163.9,156.2,167.78,170.44,1.69,5.09.38,6.56.13,6.71.39-.26.78-.52,1.18-.77l2.58-3.89C680.15,644,593.26,555.27,502.33,477.67Z" style="fill: #ff0;fill-rule: evenodd"/>
    <polygon points="312.16 364.07 312.17 364.07 312.17 364.07 312.16 364.07" style="fill: #ff0;fill-rule: evenodd"/>
    <path d="M517.56,443.3C415.05,359.31,341.17,319.79,327.68,331l-3,5.93c0,.33.11-.41.74-.93,2.46-2.31,6.52-2.06,8.36-2.05,23.24.77,89.6,37.65,182.71,114.35C557.29,481.63,688.84,603.44,688.34,629c0,1.86.12,2.51-.29,3.22,1-1.47,2-2.94,3-4.42h0C698.59,613.73,617.77,528.22,517.56,443.3Z" style="fill: #ff0;fill-rule: evenodd"/>
    <path d="M688.05,632.2l-.31.45A2.8,2.8,0,0,0,688.05,632.2Z" style="fill: #ff0;fill-rule: evenodd"/>
    <path d="M502.64,477.16c-91-78.17-178.4-123.77-190.81-113.64a.66.66,0,0,0-.2.24c-.87,1.84-1.74,3.67-2.62,5.51a.69.69,0,0,0,.21.85A.56.56,0,0,0,310,370c7.48-10.44,85.74,24.29,190.32,112.59C598.69,566.33,663.87,638,667.86,652.64c1.56,4.71.39,5.92.34,6l0,0a.66.66,0,0,0-.11.89.78.78,0,0,0,.48.37.55.55,0,0,0,.36,0l0,0h0l1.18-.77a.47.47,0,0,0,.14-.14l2.57-3.88a4.55,4.55,0,0,0,.45-3.54C669.39,631.91,584.5,546.87,502.64,477.16Zm169.16,177L669.87,657a14.27,14.27,0,0,0-.88-4.57c-4.12-15.21-68.11-85.74-168-170.88-85.68-72.49-162.9-115.11-185.78-114.48a11,11,0,0,0-4.05.61c.5-1.06,1-2.12,1.51-3.17C325,355.14,413.21,401.87,502,478.18c79.64,67.74,166.31,154.33,170.06,173.35A3.25,3.25,0,0,1,671.8,654.11Z"/>
    <path d="M517.86,442.79c-78-64.93-174.33-126.81-190.54-112.33a.55.55,0,0,0-.17.2l-3,5.93a.77.77,0,0,0-.07.26.81.81,0,0,0,.43.78.71.71,0,0,0,.76-.41,2.12,2.12,0,0,1,.55-.73c2.09-2,5.6-1.93,7.49-1.89h.46c23.21.76,89.7,37.84,182.42,114.2,38,30.94,172,154.61,171.55,180.06,0,.27,0,.55,0,.82a4.38,4.38,0,0,1-.18,2l-.34.49a.75.75,0,0,0,.16.93.67.67,0,0,0,.34.2.49.49,0,0,0,.48-.16,3.92,3.92,0,0,0,.38-.55l3-4.35,0-.06C700,612.48,608.33,519.32,517.86,442.79Zm173.24,185h0Zm-.54-.43L689,629.69c0-.19,0-.38,0-.57.55-28-145.29-159.79-172.15-181.35C423.9,371.23,357.2,334,333.77,333.29h-.47a14.54,14.54,0,0,0-6.62,1.06c.49-1,1-1.93,1.46-2.9,12.51-9.59,79.65,23,189.12,112.37C621.3,532,697.39,614.37,690.56,627.35Z"/>
    <path d="M628.58,349c-83.11-18.24-166.23-36.41-249.35-43.26l0,182.34h0c0,37.45,14,72.28,36.66,99.68s53.57,47.61,87.8,53.92c34.4,6.32,65.62-2.32,88.23-22.17s36.63-50.81,36.64-88.37h0Z" style="fill: #fff"/>
    <path d="M378.53,304.93q0,91.94,0,183.88h0c.18,36.09,13.26,70.95,36.86,99.46,24,29,55.38,48.13,88.3,54.2,33.46,6.15,65-1.45,88.73-22.29s36.84-52.33,36.84-88.87V348.4C545.7,330.06,462.11,311.76,378.53,304.93Zm212.92,314c-23.48,20.61-54.64,28.13-87.73,22-32.54-6-63.55-24.93-87.3-53.64C392.91,558.88,380,524.1,380,488.16v-.78l0-180.8c82.65,6.89,165.3,24.92,248,43.06V531.56C627.75,567.45,614.82,598.4,591.45,618.88Z"/>
    <path d="M623.13,353.62c-79.69-17.39-159.38-34.49-239.07-41.39q-.06,88.26-.14,176.51h0v.1c0,35.81,13.53,69.42,35.23,95.7S470.84,630,503.6,636.06c32.93,6,62.81-2.25,84.47-21.23s35.06-48.6,35.06-84.51h0ZM575,520.45a88.81,88.81,0,0,1-.51,9.62c-1.94,17.37-9.41,31.28-20.46,41.06-12.95,11.46-30.81,16.61-50.5,13s-37-15.51-50-31.63c-13.34-16.53-21.07-37.44-21.07-58.06q0-62.13,0-124.26C480,376.62,527.5,386,575.06,396.11h0q0,56.22,0,112.45c0,4-.05,7.92-.08,11.87Z" style="fill: red"/>
    <path d="M383.53,311.6q-.07,88.54-.14,177.09l1.06.1.15-175.93c79.33,6.92,158.66,23.92,238,41.23V530.67c-.12,34.39-12.5,64-34.91,83.66s-52.38,27-84.09,21.14-61.44-23.9-84.07-51.3-35.08-60.82-35.08-95.28v-.1h-1.06c0,34.77,12.57,68.5,35.38,96.11s53,45.85,84.83,51.73,62.13-1.41,84.84-21.32,35.22-50,35.23-84.88q0-88.65,0-177.29C543.62,335.69,463.58,318.49,383.53,311.6Z"/>
    <path d="M503.52,584.72c19.18,3.51,37.25-1,50.87-13.1C566,561.36,573.13,547.09,575,530.26a90.12,90.12,0,0,0,.51-9.7l.09-11.88q0-56.22,0-112.45V396c-.1-.13-.2-.27-.31-.4C527.65,385.4,480,376,432.39,369.61l-.54-.07,0,124.84c0,20.57,7.74,41.78,21.22,58.49C466.94,570,484.85,581.29,503.52,584.72Zm-70.6-213.87c47.2,6.39,94.41,15.66,141.61,25.73q0,55.94,0,111.87l-.09,11.88a89.71,89.71,0,0,1-.5,9.56c-1.85,16.58-8.88,30.64-20.31,40.75-13.42,11.88-31.22,16.37-50.12,12.91-18.39-3.38-36-14.48-49.67-31.39-13.28-16.48-20.9-37.37-20.9-57.64Z"/>
    <path d="M408,345c-.06,0-8.29,2.16-8.57,14.83h0q8.72,1,17.42,2.05C416.85,349.23,408,344.93,408,345Z" style="fill: #ff0"/>
    <path d="M392.3,343.61h0q-.72,7.23-1.43,14.46,4.35.42,8.69.87c.09-12.07,8.35-13.2,8.55-13.12s8.38,3.62,8.59,15q4.37.53,8.72,1.08-.78-7.46-1.57-14.91Q408.07,345.08,392.3,343.61Z" style="fill: #ff0"/>
    <path d="M391.92,343l-.12.38q-.75,7.61-1.51,15.21,4.89.46,9.8,1V359c.08-11.76,8-12.61,8-12.62s7.93,3.35,8.14,14.41c0,.19,0,.38,0,.57,3.27.39,6.55.79,9.82,1.21q-.84-8-1.7-16.07Q408.13,344.51,391.92,343Zm11.85,4.09c-2.07,1.61-4.54,4.87-4.72,11.22l-7.6-.76,1.32-13.32q6.86.63,13.71,1.36A10.08,10.08,0,0,0,403.77,347.09Zm13.44,13.24a18.18,18.18,0,0,0-4.4-11.59,15.3,15.3,0,0,0-3.32-2.82q6.94.76,13.89,1.61.74,6.87,1.45,13.74C422.29,361,419.75,360.63,417.21,360.33Z"/>
    <path d="M425.87,362q-17.79-2.26-35.58-3.94c-.76-.07-1.37.69-1.37,1.68a1.81,1.81,0,0,0,1.37,1.92q17.79,1.66,35.58,3.94c.75.1,1.36-.63,1.36-1.62A1.91,1.91,0,0,0,425.87,362Z" style="fill: #ff0"/>
    <path d="M425.87,361.44q-17.79-2.28-35.58-3.94c-1.05-.1-1.89.89-1.89,2.2a2.43,2.43,0,0,0,1.89,2.55q17.79,1.65,35.58,3.94c1,.13,1.89-.82,1.89-2.13A2.54,2.54,0,0,0,425.87,361.44Zm0,3.6q-17.79-2.27-35.58-3.94c-.46,0-.84-.64-.84-1.3s.38-1.19.84-1.15q17.79,1.65,35.58,3.94c.46.05.84.67.84,1.33S426.33,365.09,425.87,365Z"/>
    <path d="M408,350s-4.74,1.64-4.78,9.25h0q4.88.52,9.73,1.08C412.91,352.82,408,350,408,350Z" style="fill: #ff0"/>
    <path d="M408.06,349.48c-.38-.11-1.42.57-2,1.07-1.52,1.3-3.34,3.86-3.36,8.68l.52.06v.58q5.13.54,10.26,1.14v-.58C413.44,352.71,408.44,349.52,408.06,349.48Zm-4.3,9.3c.22-5.93,3.43-7.75,4.23-8.11.87.58,4.19,3.17,4.43,9.07Q408.08,359.23,403.76,358.78Z"/>
    <path d="M425.16,341.2Q408.09,339,391,337.42c-.72-.07-1.31.61-1.31,1.5a1.67,1.67,0,0,0,1.31,1.74q17.06,1.6,34.12,3.78c.71.09,1.3-.57,1.3-1.46A1.75,1.75,0,0,0,425.16,341.2Z" style="fill: #ff0"/>
    <path d="M425.16,340.62q-17.07-2.16-34.12-3.77a1.82,1.82,0,0,0-1.83,2,2.29,2.29,0,0,0,1.83,2.37q17.06,1.59,34.12,3.77c1,.13,1.83-.75,1.83-2A2.38,2.38,0,0,0,425.16,340.62Zm0,3.24q-17.07-2.16-34.12-3.77a1.05,1.05,0,0,1-.78-1.12c0-.57.36-1,.78-1q17.06,1.59,34.12,3.77a1.13,1.13,0,0,1,.78,1.15C425.94,343.48,425.58,343.92,425.16,343.86Z"/>
    <path d="M424.38,344.37q-16.31-2.07-32.63-3.62c-.68-.06-1.25.62-1.25,1.51a1.65,1.65,0,0,0,1.25,1.73q16.32,1.54,32.63,3.62c.69.08,1.25-.57,1.25-1.47A1.7,1.7,0,0,0,424.38,344.37Z" style="fill: #ff0"/>
    <path d="M424.38,343.79q-16.31-2.06-32.63-3.61c-1-.09-1.77.82-1.77,2a2.27,2.27,0,0,0,1.77,2.36q16.32,1.55,32.63,3.61c1,.12,1.78-.76,1.78-2A2.36,2.36,0,0,0,424.38,343.79Zm0,3.24q-16.31-2.05-32.63-3.61c-.39,0-.72-.55-.72-1.12s.33-1,.72-1q16.32,1.55,32.63,3.61c.4.05.73.57.73,1.14S424.78,347.08,424.38,347Z"/>
    <path d="M411.28,320.44l-1.89-.21v-2l-2.64-.3v2.05l-1.88-.21v-2l-2.57-.28h0c0,1.53,0,3.05,0,4.57a1.4,1.4,0,0,0,1.2,1.34c3.09.33,6.17.67,9.26,1a1,1,0,0,0,1.15-1.06c0-1.55,0-3.09,0-4.63l-2.64-.3Z" style="fill: #ff0"/>
    <path d="M410.75,319.81l-.83-.09v-2l-3.69-.43v2.06l-.83-.09v-2l-3.1-.33-.53.1v5a2,2,0,0,0,1.73,2c3.09.33,6.17.67,9.26,1a1.48,1.48,0,0,0,1.68-1.58v-5.2l-3.69-.43Zm1.05-.78,1.59.18v4.06a.53.53,0,0,1-.63.55c-3.09-.36-6.17-.7-9.26-1a.81.81,0,0,1-.68-.71v-4l1.53.17v2l2.93.32v-2.05l1.59.18v2.05l2.93.33Z"/>
    <path d="M404.14,323.79l-.6,14.78q4.53.49,9,1-.29-7.46-.58-14.91Z" style="fill: #ff0"/>
    <path d="M403.64,323.16q-.31,8-.64,15.93,5.06.56,10.13,1.16l-.63-16.06C409.55,323.84,406.59,323.49,403.64,323.16Zm.45,14.9q.29-6.82.56-13.63c2.28.25,4.56.52,6.85.79q.25,6.87.53,13.75C409.39,338.66,406.74,338.35,404.09,338.06Z"/>
    <polygon points="400.97 330.38 400.97 330.38 400.97 330.38 400.97 330.38" style="fill: #ff0"/>
    <path d="M401,330.38q-4.07-.44-8.14-.82l-.24,8c2.88.28,5.77.56,8.66.86-.09-2.67-.18-5.35-.28-8Z" style="fill: #ff0"/>
    <path d="M392.32,328.94q-.13,4.56-.28,9.13c3.25.3,6.5.63,9.76,1-.11-3.06-.21-6.12-.32-9.18Q396.91,329.38,392.32,328.94Zm.81,8.08.21-6.83c2.37.23,4.75.46,7.13.71q.12,3.44.23,6.87C398.18,337.51,395.65,337.26,393.13,337Z"/>
    <polygon points="423.25 332.93 423.25 332.93 423.25 332.93 423.25 332.93" style="fill: #ff0"/>
    <path d="M423.25,332.93c-2.71-.34-5.43-.67-8.14-1l-.24,8q4.32.49,8.66,1c-.09-2.67-.19-5.35-.28-8Z" style="fill: #ff0"/>
    <path d="M414.6,331.31q-.14,4.56-.28,9.12,4.88.57,9.75,1.18c-.1-3.07-.21-6.13-.31-9.19C420.71,332,417.65,331.67,414.6,331.31Zm.81,8.1.21-6.83,7.13.86c.08,2.29.15,4.59.23,6.88C420.46,340,417.93,339.7,415.41,339.41Z"/>
    <path d="M400,326.5l-1.85-.19v-2.05l-2.58-.26v2.05l-1.84-.18v-2l-2.52-.24h0v4.57a1.38,1.38,0,0,0,1.18,1.32q4.53.44,9.06.91a1,1,0,0,0,1.13-1.08v-4.62l-2.58-.28Z" style="fill: #ff0"/>
    <path d="M399.49,325.87l-.79-.08v-2.05l-3.63-.37v2.05l-.8-.07v-2l-3-.3h-.16l-.37.23c0,1.63,0,3.26,0,4.88a2,2,0,0,0,1.7,1.95l9.06.9a1.49,1.49,0,0,0,1.65-1.59c0-1.73,0-3.47,0-5.2l-3.64-.39Zm1.05-.8,1.54.17c0,1.35,0,2.7,0,4.05a.52.52,0,0,1-.6.55l-9.06-.9a.76.76,0,0,1-.65-.7c0-1.33,0-2.67,0-4l1.47.15v2l2.9.29v-2.05l1.53.15v2.05l2.89.3Z"/>
    <path d="M422.3,329l-1.85-.23v-2l-2.58-.32v2.05l-1.84-.22v-2l-2.52-.3h0v4.58a1.41,1.41,0,0,0,1.18,1.34c3,.36,6,.72,9.06,1.1a1,1,0,0,0,1.13-1.05v-4.62L422.3,327Z" style="fill: #ff0"/>
    <path d="M421.77,328.39l-.79-.1v-2l-3.63-.45v2.05l-.8-.09v-2l-3-.37h-.16l-.37.22c0,1.63,0,3.26,0,4.89a2,2,0,0,0,1.7,2q4.53.53,9.06,1.1A1.46,1.46,0,0,0,425.4,332c0-1.73,0-3.47,0-5.2l-3.64-.46Zm1.05-.77,1.54.19c0,1.35,0,2.7,0,4.06a.51.51,0,0,1-.6.54q-4.53-.57-9.06-1.1a.78.78,0,0,1-.65-.71c0-1.34,0-2.67,0-4l1.47.17v2l2.9.35v-2.05l1.53.19v2l2.89.36Z"/>
    <path d="M407.19,328.86h0v3.53l1.82.2v-3.53C409,327.6,407.13,327.41,407.19,328.86Z"/>
    <path d="M396,332.82h0v2.73l1.73.17V333C397.75,331.57,396,331.42,396,332.82Z"/>
    <path d="M418.34,335.27h0V338l1.74.21v-2.73C420.1,334.06,418.34,333.88,418.34,335.27Z"/>
    <path d="M408,451.51c-.06,0-8.29,2.16-8.57,14.84h0q8.72.94,17.42,2C416.85,455.76,408,451.47,408,451.51Z" style="fill: #ff0"/>
    <path d="M392.3,450.14h0q-.72,7.23-1.43,14.46,4.35.4,8.69.87c.09-12.08,8.35-13.2,8.55-13.13s8.38,3.63,8.59,15c2.91.35,5.82.7,8.72,1.07q-.78-7.45-1.57-14.9Q408.07,451.62,392.3,450.14Z" style="fill: #ff0"/>
    <path d="M391.92,449.53l-.12.38q-.75,7.6-1.51,15.21c3.26.32,6.53.64,9.8,1v-.57c.08-11.76,8-12.62,8-12.63s7.93,3.35,8.14,14.42c0,.19,0,.38,0,.56,3.27.39,6.55.8,9.82,1.21q-.84-8-1.7-16.07Q408.13,451,391.92,449.53Zm11.85,4.1c-2.07,1.61-4.54,4.87-4.72,11.22-2.53-.26-5.06-.52-7.6-.76l1.32-13.33q6.86.64,13.71,1.37A10.08,10.08,0,0,0,403.77,453.63Zm13.44,13.24a18.16,18.16,0,0,0-4.4-11.59,15,15,0,0,0-3.32-2.82q6.94.75,13.89,1.61.74,6.87,1.45,13.73Z"/>
    <path d="M425.87,468.55q-17.79-2.26-35.58-3.94c-.76-.07-1.37.68-1.37,1.68a1.81,1.81,0,0,0,1.37,1.92q17.79,1.65,35.58,3.94c.75.09,1.36-.64,1.36-1.63A1.89,1.89,0,0,0,425.87,468.55Z" style="fill: #ff0"/>
    <path d="M425.87,468q-17.79-2.27-35.58-3.94c-1.05-.09-1.89.9-1.89,2.21a2.43,2.43,0,0,0,1.89,2.55q17.79,1.65,35.58,3.93c1,.14,1.89-.82,1.89-2.13A2.54,2.54,0,0,0,425.87,468Zm0,3.6q-17.79-2.26-35.58-3.93c-.46-.05-.84-.64-.84-1.31s.38-1.19.84-1.15q17.79,1.67,35.58,3.94c.46.06.84.67.84,1.34S426.33,471.63,425.87,471.57Z"/>
    <path d="M408,456.58s-4.74,1.63-4.78,9.25h0q4.88.51,9.73,1.08C412.91,459.35,408,456.57,408,456.58Z" style="fill: #ff0"/>
    <path d="M408.06,456c-.38-.1-1.42.58-2,1.08-1.52,1.29-3.34,3.86-3.36,8.68l.52.06v.57q5.13.56,10.26,1.14V467C413.44,459.24,408.44,456.05,408.06,456Zm-4.3,9.3c.22-5.93,3.43-7.74,4.23-8.1.87.57,4.19,3.17,4.43,9.06Z"/>
    <path d="M425.16,447.73Q408.09,445.57,391,444c-.72-.07-1.31.61-1.31,1.5A1.67,1.67,0,0,0,391,447.2q17.06,1.59,34.12,3.77c.71.1,1.3-.56,1.3-1.45A1.75,1.75,0,0,0,425.16,447.73Z" style="fill: #ff0"/>
    <path d="M425.16,447.16Q408.09,445,391,443.38a1.83,1.83,0,0,0-1.83,2,2.27,2.27,0,0,0,1.83,2.36q17.06,1.61,34.12,3.78c1,.13,1.83-.75,1.83-2A2.38,2.38,0,0,0,425.16,447.16Zm0,3.24q-17.07-2.16-34.12-3.78a1.07,1.07,0,0,1-.78-1.12c0-.56.36-1,.78-1q17.06,1.61,34.12,3.78a1.11,1.11,0,0,1,.78,1.14C425.94,450,425.58,450.45,425.16,450.4Z"/>
    <path d="M424.38,450.9q-16.31-2.06-32.63-3.61c-.68-.07-1.25.61-1.25,1.5a1.67,1.67,0,0,0,1.25,1.74q16.32,1.55,32.63,3.61c.69.09,1.25-.57,1.25-1.46A1.72,1.72,0,0,0,424.38,450.9Z" style="fill: #ff0"/>
    <path d="M424.38,450.33q-16.31-2.06-32.63-3.62c-1-.09-1.77.82-1.77,2a2.27,2.27,0,0,0,1.77,2.36q16.32,1.54,32.63,3.62c1,.12,1.78-.76,1.78-2A2.35,2.35,0,0,0,424.38,450.33Zm0,3.24q-16.31-2.07-32.63-3.62c-.39,0-.72-.54-.72-1.11s.33-1,.72-1q16.32,1.54,32.63,3.62c.4,0,.73.57.73,1.13S424.78,453.61,424.38,453.57Z"/>
    <path d="M411.28,427l-1.89-.21v-2l-2.64-.31v2.05l-1.88-.2v-2L402.3,424h0c0,1.52,0,3.05,0,4.57a1.41,1.41,0,0,0,1.2,1.34c3.09.33,6.17.67,9.26,1a1,1,0,0,0,1.15-1.07c0-1.54,0-3.08,0-4.62l-2.64-.31Z" style="fill: #ff0"/>
    <path d="M410.75,426.35l-.83-.1v-2l-3.69-.42v2l-.83-.09v-2l-3.1-.34-.53.11v5a2,2,0,0,0,1.73,2c3.09.33,6.17.67,9.26,1a1.48,1.48,0,0,0,1.68-1.58v-5.2l-3.69-.42Zm1.05-.78,1.59.18v4.05a.52.52,0,0,1-.63.55c-3.09-.36-6.17-.7-9.26-1a.8.8,0,0,1-.68-.71v-4l1.53.16v2l2.93.32v-2.05l1.59.18v2l2.93.34Z"/>
    <path d="M404.14,430.33l-.6,14.78q4.53.5,9,1-.29-7.45-.58-14.91C409.38,430.93,406.76,430.62,404.14,430.33Z" style="fill: #ff0"/>
    <path d="M403.64,429.7q-.31,8-.64,15.92,5.06.56,10.13,1.17l-.63-16.06C409.55,430.37,406.59,430,403.64,429.7Zm.45,14.89q.29-6.81.56-13.63c2.28.26,4.56.52,6.85.8q.25,6.87.53,13.74Z"/>
    <polygon points="400.97 436.91 400.97 436.91 400.97 436.91 400.97 436.91" style="fill: #ff0"/>
    <path d="M401,436.91q-4.07-.42-8.14-.81l-.24,8q4.32.41,8.66.86c-.09-2.68-.18-5.35-.28-8Z" style="fill: #ff0"/>
    <path d="M392.32,435.48q-.13,4.56-.28,9.12,4.88.47,9.76,1c-.11-3.06-.21-6.12-.32-9.18Q396.91,435.91,392.32,435.48Zm.81,8.08.21-6.84,7.13.71q.12,3.45.23,6.88C398.18,444.05,395.65,443.8,393.13,443.56Z"/>
    <polygon points="423.25 439.47 423.25 439.47 423.25 439.47 423.25 439.47" style="fill: #ff0"/>
    <path d="M423.25,439.47c-2.71-.34-5.43-.67-8.14-1l-.24,8,8.66,1.05c-.09-2.68-.19-5.36-.28-8Z" style="fill: #ff0"/>
    <path d="M414.6,437.84q-.14,4.56-.28,9.12c3.25.38,6.5.78,9.75,1.18-.1-3.06-.21-6.12-.31-9.18C420.71,438.57,417.65,438.2,414.6,437.84Zm.81,8.1.21-6.83,7.13.87c.08,2.29.15,4.58.23,6.88C420.46,446.54,417.93,446.24,415.41,445.94Z"/>
    <path d="M400,433l-1.85-.19v-2l-2.58-.27v2.05l-1.84-.18v-2l-2.52-.25h0v4.58a1.38,1.38,0,0,0,1.18,1.32q4.53.43,9.06.9a1,1,0,0,0,1.13-1.07v-4.63L400,431Z" style="fill: #ff0"/>
    <path d="M399.49,432.4l-.79-.08v-2l-3.63-.38V432l-.8-.08v-2l-3-.29-.16,0-.37.24c0,1.62,0,3.25,0,4.88a2,2,0,0,0,1.7,1.94q4.53.44,9.06.91a1.49,1.49,0,0,0,1.65-1.6c0-1.73,0-3.46,0-5.2l-3.64-.38Zm1.05-.79,1.54.16c0,1.35,0,2.7,0,4.05a.52.52,0,0,1-.6.56q-4.53-.48-9.06-.91a.75.75,0,0,1-.65-.69c0-1.34,0-2.67,0-4l1.47.14v2l2.9.28v-2l1.53.16v2.05l2.89.29Z"/>
    <path d="M422.3,435.57l-1.85-.23v-2l-2.58-.32v2L416,434.8v-2l-2.52-.3h0v4.57a1.41,1.41,0,0,0,1.18,1.35q4.53.52,9.06,1.1a1,1,0,0,0,1.13-1v-4.63l-2.58-.33Z" style="fill: #ff0"/>
    <path d="M421.77,434.93l-.79-.1v-2.05l-3.63-.45v2.06l-.8-.1v-2l-3-.37-.16,0-.37.23c0,1.63,0,3.25,0,4.88a2,2,0,0,0,1.7,2c3,.36,6,.72,9.06,1.1a1.45,1.45,0,0,0,1.65-1.56c0-1.73,0-3.46,0-5.2l-3.64-.46Zm1.05-.78,1.54.2c0,1.35,0,2.7,0,4a.5.5,0,0,1-.6.54c-3-.38-6-.74-9.06-1.1a.78.78,0,0,1-.65-.71c0-1.33,0-2.66,0-4l1.47.18v2l2.9.34v-2.05l1.53.19v2.05l2.89.36Z"/>
    <path d="M407.19,435.39h0v3.54l1.82.2v-3.54C409,434.14,407.13,433.94,407.19,435.39Z"/>
    <path d="M396,439.35h0v2.73l1.73.17v-2.73C397.75,438.1,396,438,396,439.35Z"/>
    <path d="M418.34,441.81h0v2.73l1.74.21V442C420.1,440.6,418.34,440.41,418.34,441.81Z"/>
    <path d="M433.16,563.48c0,.08-3.86,8.07,4.17,18.33h0q6.18-5.89,12.35-11.7C441.52,560,433.18,563.41,433.16,563.48Z" style="fill: #ff0"/>
    <path d="M422.28,574.43h0q4.23,6.23,8.45,12.48,3.06-3,6.14-5.92c-7.77-9.62-3.25-16.85-3.08-17s7.64-3.61,15.16,5.34q3.06-2.94,6.14-5.86-5.32-5.37-10.64-10.7Q433.37,563.52,422.28,574.43Z" style="fill: #ff0"/>
    <path d="M421.54,574.34q4.57,6.69,9.15,13.42,3.45-3.35,6.92-6.67l-.37-.46c-7.56-9.37-3.11-16.08-3.13-16.09s7.18-3.47,14.47,5.2l.38.45q3.45-3.32,6.92-6.6-5.75-5.8-11.47-11.55Q433,563.08,421.54,574.34Zm14.59,6.54-5.36,5.18q-3.9-5.77-7.79-11.51,4.83-4.74,9.64-9.43a12.48,12.48,0,0,0-.75,3.25C431.6,571.25,432.13,575.71,436.13,580.88Zm18.17-17.42-5.37,5.12c-3.6-4.1-7.17-5.43-9.71-5.78l-.53-.06a11.13,11.13,0,0,0-4,.32q4.89-4.75,9.77-9.47Z"/>
    <path d="M455.43,563.25q-12.54,11.93-25.08,24.1a1.85,1.85,0,0,0,.21,2.36c.64.78,1.6,1,2.13.49q12.53-12.16,25.07-24.06a1.82,1.82,0,0,0-.2-2.35C456.91,563,456,562.75,455.43,563.25Z" style="fill: #ff0"/>
    <path d="M456.5,562.47a1.52,1.52,0,0,0-1.44.32Q442.52,574.72,430,586.9a2.44,2.44,0,0,0,.21,3.17,2.62,2.62,0,0,0,1.61,1,1.49,1.49,0,0,0,1.26-.39q12.54-12.15,25.07-24a1.74,1.74,0,0,0,.5-1.3,3.08,3.08,0,0,0-.7-1.87A2.73,2.73,0,0,0,456.5,562.47Zm.89,3.21q-12.54,11.91-25.08,24.06c-.31.32-.95.14-1.38-.39s-.52-1.23-.2-1.54q12.52-12.18,25.07-24.1a.59.59,0,0,1,.6-.11,1.57,1.57,0,0,1,.79.54,1.67,1.67,0,0,1,.39,1A.71.71,0,0,1,457.39,565.68Z"/>
    <path d="M436.46,567.47s-1.94,4.93,3,11h0q3.43-3.32,6.86-6.59C441.36,565.88,436.46,567.47,436.46,567.47Z" style="fill: #ff0"/>
    <path d="M436.15,567c-.36.24-.55,1.87-.58,2.26-.16,2.23.32,5.69,3.48,9.6l.37.46L447,572l-.38-.46C441.58,565.35,436.47,566.84,436.15,567Zm3.28,10.69c-3.64-4.82-2.82-8.77-2.56-9.68.94-.21,4.72-.67,8.66,3.81Z"/>
    <path d="M441.5,547.17q-12,11.57-24,23.37a1.67,1.67,0,0,0,.13,2.18,1.35,1.35,0,0,0,2,.36q12-11.79,24-23.33a1.68,1.68,0,0,0-.13-2.18A1.37,1.37,0,0,0,441.5,547.17Z" style="fill: #ff0"/>
    <path d="M442.37,546.33h0a1.47,1.47,0,0,0-1.24.38q-12,11.56-24,23.38a1.82,1.82,0,0,0-.5,1.31,2.67,2.67,0,0,0,.63,1.68,2.32,2.32,0,0,0,1.35.84l.12,0a1.49,1.49,0,0,0,1.24-.41q12-11.79,24-23.32a1.78,1.78,0,0,0,.5-1.3,2.72,2.72,0,0,0-.63-1.69A2.4,2.4,0,0,0,442.37,546.33Zm.86,3q-12,11.55-24,23.34a.59.59,0,0,1-.56.15,1.21,1.21,0,0,1-.67-.43,1.33,1.33,0,0,1-.32-.83.72.72,0,0,1,.19-.52q12-11.82,24-23.37a.57.57,0,0,1,.5-.15h0a1.21,1.21,0,0,1,.72.45,1.38,1.38,0,0,1,.32.84A.72.72,0,0,1,443.23,549.29Z"/>
    <path d="M443.07,550.29q-11.49,11-23,22.32a1.65,1.65,0,0,0,.17,2.13c.58.7,1.44.88,1.93.41q11.49-11.25,23-22.28a1.66,1.66,0,0,0-.17-2.14C444.42,550,443.55,549.82,443.07,550.29Z" style="fill: #ff0"/>
    <path d="M442.7,549.83q-11.51,11.05-23,22.33a1.79,1.79,0,0,0-.47,1.42,2.78,2.78,0,0,0,.64,1.52,2.37,2.37,0,0,0,1.33.85l.15,0a1.45,1.45,0,0,0,1.19-.38q11.49-11.25,23-22.27a2.26,2.26,0,0,0-.17-3A1.86,1.86,0,0,0,442.7,549.83Zm2.1,2.58q-11.51,11-23,22.29a.58.58,0,0,1-.51.12,1.23,1.23,0,0,1-.67-.44,1.42,1.42,0,0,1-.33-.78.71.71,0,0,1,.16-.54q11.51-11.28,23-22.31a.52.52,0,0,1,.45-.12,1.19,1.19,0,0,1,.74.46C445,551.54,445.07,552.15,444.8,552.41Z"/>
    <path d="M419.89,538.17,418,540c.44.53.88,1.07,1.33,1.6L418,542.91l-1.32-1.6-1.87,1.82c.44.54.89,1.07,1.33,1.6L414.84,546l-1.3-1.56-1.81,1.78h0l3,3.56a1.12,1.12,0,0,0,1.63.11l6.53-6.4a1.28,1.28,0,0,0,0-1.74Z" style="fill: #ff0"/>
    <path d="M419.89,537.36l-2.6,2.55,1.32,1.6-.58.58-1.33-1.59-2.6,2.55c.44.53.88,1.07,1.33,1.6l-.59.57-1.3-1.56-2.19,2.16.38.45-.38-.45-.37.36,3.34,4a1.74,1.74,0,0,0,1.12.62,1.51,1.51,0,0,0,1.25-.42l6.53-6.4a1.88,1.88,0,0,0,0-2.55Zm2.59,5.73q-3.27,3.2-6.53,6.4a.62.62,0,0,1-.89,0l-2.59-3.11,1.08-1.06,1.3,1.56,2.06-2c-.44-.53-.88-1.07-1.33-1.6l1.13-1.1,1.32,1.6,2.07-2-1.33-1.61c.38-.36.75-.73,1.12-1.1.88,1.06,1.75,2.12,2.62,3.19A.66.66,0,0,1,422.48,543.09Z"/>
    <path d="M417,549.78q4.61,6,9.19,12.06l6.39-6.17q-5-5.67-10-11.29C420.72,546.17,418.86,548,417,549.78Z" style="fill: #ff0"/>
    <path d="M416.28,549.68q5,6.47,9.91,13,3.58-3.48,7.16-6.91-5.4-6.12-10.79-12.18Zm15.56,5.91q-2.82,2.7-5.62,5.42-4.25-5.58-8.48-11.13l4.85-4.7Z"/>
    <polygon points="419.26 557.39 419.26 557.39 419.26 557.39 419.26 557.39" style="fill: #ff0"/>
    <path d="M413.52,563l5,6.43,6.1-6-5.37-6.08Z" style="fill: #ff0"/>
    <polygon points="419.26 557.39 419.26 557.39 419.26 557.38 419.26 557.39" style="fill: #ff0"/>
    <path d="M412.79,562.94l5.73,7.34,6.87-6.73q-3.08-3.49-6.15-7Q416,559.76,412.79,562.94Zm11.09.46-5.34,5.23-4.29-5.5,5-4.94Z"/>
    <path d="M435,542.09h0l-5.74,5.56,5,6.5,6.1-5.9L435,542.09Z" style="fill: #ff0"/>
    <polygon points="434.96 542.09 434.96 542.09 434.96 542.09 434.96 542.09" style="fill: #ff0"/>
    <polygon points="434.96 542.09 434.96 542.09 434.96 542.09 434.96 542.09" style="fill: #ff0"/>
    <polygon points="434.96 542.09 434.96 542.09 434.96 542.09 434.96 542.09 434.96 542.09" style="fill: #ff0"/>
    <path d="M435,542.09l-.37-.46-.39.37h0l-5.71,5.55,5.73,7.42q3.43-3.33,6.87-6.63l-5.78-6.63Zm-.72,11.23L430,547.76l5-4.87c1.54,1.75,3.07,3.51,4.61,5.27Z"/>
    <path d="M416.63,551.7l-1.82,1.78,1.33,1.61-1.31,1.28-1.32-1.6-1.82,1.79c.44.54.88,1.07,1.33,1.6l-1.3,1.29c-.44-.52-.87-1-1.3-1.57l-1.78,1.76h0l3,3.55a1.1,1.1,0,0,0,1.61.13L419.6,557a1.25,1.25,0,0,0,0-1.71Q418.14,553.51,416.63,551.7Z" style="fill: #ff0"/>
    <path d="M416.63,550.88l-2.57,2.52c.45.53.89,1.07,1.33,1.6l-.56.56-1.32-1.6-2.57,2.52c.45.53.89,1.07,1.33,1.6l-.56.55-1.3-1.56-2.14,2.12.37.45-.37-.45-.38.37,3.35,4a1.74,1.74,0,0,0,1.12.62,1.5,1.5,0,0,0,1.23-.41l6.39-6.29a1.71,1.71,0,0,0,.49-1.23A2,2,0,0,0,420,555Zm2.6,5.7-6.39,6.29a.61.61,0,0,1-.87,0l-2.59-3.11,1-1,1.3,1.56,2-2-1.33-1.6,1.08-1.06,1.33,1.59,2-2-1.33-1.6,1.08-1.06,2.62,3.17a.65.65,0,0,1,0,.9Z"/>
    <path d="M432.33,536.36l-1.83,1.76c.45.54.89,1.09,1.33,1.63l-1.3,1.26-1.32-1.61-1.83,1.76,1.33,1.62-1.3,1.26-1.3-1.58-1.77,1.73h0l3,3.6a1.11,1.11,0,0,0,1.61.15q3.19-3.12,6.39-6.2a1.25,1.25,0,0,0,0-1.71Z" style="fill: #ff0"/>
    <path d="M432.33,535.55,429.76,538l1.33,1.62-.56.55-1.32-1.62-2.57,2.49,1.33,1.61-.56.55-1.3-1.58-2.3,2.24v.48l3.12,3.78a1.76,1.76,0,0,0,1.13.63,1.49,1.49,0,0,0,1.23-.39l6.38-6.2a1.85,1.85,0,0,0,0-2.52Zm2.6,5.73-6.39,6.2a.61.61,0,0,1-.87-.05l-2.59-3.15,1-1c.43.53.86,1.06,1.3,1.58l2-2-1.33-1.62,1.08-1,1.32,1.61,2.05-2-1.33-1.62,1.08-1.05,2.62,3.21A.64.64,0,0,1,434.93,541.28Z"/>
    <path d="M422.22,551.38h0c.77.92,1.53,1.85,2.29,2.78l1.28-1.26c-.76-.92-1.52-1.85-2.29-2.77C422.58,549,421.25,550.29,422.22,551.38Z"/>
    <path d="M417.66,563.14h0l1.77,2.14,1.22-1.2-1.77-2.14C418,560.8,416.75,562.05,417.66,563.14Z"/>
    <path d="M433.4,547.77h0l1.76,2.16,1.23-1.18-1.77-2.17C433.72,545.44,432.5,546.67,433.4,547.77Z"/>
    <path d="M504,359.43c-.06,0-8.29,1.54-8.57,14.19h0q8.72,1.62,17.42,3.32C512.85,364.31,504,359.39,504,359.43Z" style="fill: #ff0"/>
    <path d="M488.3,356.86h0q-.72,7.17-1.43,14.34l8.69,1.55c.09-12.06,8.35-12.57,8.55-12.48s8.38,4.22,8.59,15.63l8.72,1.66q-.78-7.5-1.57-15Q504.07,359.59,488.3,356.86Z" style="fill: #ff0"/>
    <path d="M487.78,356.2l-1.5,15.48,9.81,1.75v-.57c.08-11.74,8-12,7.94-12s7.94,3.92,8.15,15c0,.19,0,.38,0,.57,3.27.61,6.55,1.24,9.82,1.87q-.84-8.1-1.7-16.18Q504.05,359,487.78,356.2Zm12,5c-2.07,1.46-4.54,4.53-4.72,10.87l-7.6-1.36,1.32-13.22q6.86,1.19,13.71,2.41A9.21,9.21,0,0,0,499.77,361.23Zm13.44,14.2a19.53,19.53,0,0,0-4.4-11.89,16.66,16.66,0,0,0-3.32-3.06q6.94,1.26,13.89,2.57.72,6.92,1.45,13.83Z"/>
    <path d="M521.87,377.69q-17.79-3.42-35.59-6.52c-.75-.13-1.36.57-1.36,1.57a2,2,0,0,0,1.36,2q17.81,3.08,35.59,6.52c.75.15,1.36-.54,1.36-1.53A2.07,2.07,0,0,0,521.87,377.69Z" style="fill: #ff0"/>
    <path d="M521.87,377.12q-17.79-3.44-35.59-6.53c-1-.18-1.88.74-1.88,2.06a2.67,2.67,0,0,0,1.88,2.69q17.81,3.09,35.59,6.53c1,.2,1.89-.7,1.89-2A2.75,2.75,0,0,0,521.87,377.12Zm0,3.6q-17.79-3.44-35.59-6.53c-.45-.07-.83-.7-.83-1.36s.38-1.16.83-1.09q17.81,3.09,35.59,6.53a1.38,1.38,0,0,1,.84,1.39C522.71,380.32,522.32,380.81,521.87,380.72Z"/>
    <path d="M504,364.49s-4.73,1.29-4.77,8.9h0c3.24.59,6.49,1.18,9.73,1.79C508.91,367.62,504,364.49,504,364.49Z" style="fill: #ff0"/>
    <path d="M504.06,363.93c-.4-.13-1.42.47-2,.93-1.51,1.18-3.33,3.61-3.36,8.43l.53.1V374q5.13.91,10.26,1.88v-.58C509.44,367.55,504.44,364,504.06,363.93Zm-4.3,9c.22-5.91,3.43-7.49,4.23-7.79.87.64,4.19,3.48,4.42,9.38Z"/>
    <path d="M521.15,356.83q-17.06-3.27-34.11-6.25c-.72-.13-1.31.5-1.31,1.39a1.85,1.85,0,0,0,1.31,1.85q17.06,3,34.11,6.25c.72.14,1.31-.47,1.31-1.36A1.9,1.9,0,0,0,521.15,356.83Z" style="fill: #ff0"/>
    <path d="M521.15,356.26Q504.1,353,487,350c-1-.17-1.83.67-1.83,1.88a2.51,2.51,0,0,0,1.83,2.51q17.06,3,34.11,6.26c1,.19,1.84-.63,1.84-1.84A2.58,2.58,0,0,0,521.15,356.26Zm0,3.24q-17.06-3.28-34.11-6.26a1.15,1.15,0,0,1-.78-1.18c0-.56.36-1,.78-.91q17.06,3,34.11,6.26a1.2,1.2,0,0,1,.79,1.19C521.94,359.17,521.58,359.58,521.15,359.5Z"/>
    <path d="M520.38,360q-16.31-3.13-32.63-6c-.68-.12-1.25.51-1.25,1.4a1.83,1.83,0,0,0,1.25,1.84q16.32,2.84,32.63,6c.69.13,1.25-.49,1.25-1.38A1.86,1.86,0,0,0,520.38,360Z" style="fill: #ff0"/>
    <path d="M520.38,359.38q-16.31-3.13-32.63-6c-1-.17-1.77.68-1.77,1.89a2.5,2.5,0,0,0,1.77,2.5q16.32,2.84,32.63,6c1,.19,1.78-.64,1.78-1.85A2.54,2.54,0,0,0,520.38,359.38Zm0,3.23q-16.31-3.12-32.63-6a1.16,1.16,0,0,1-.72-1.17c0-.57.33-1,.72-.92q16.32,2.85,32.63,6a1.17,1.17,0,0,1,.73,1.18C521.11,362.28,520.78,362.69,520.38,362.61Z"/>
    <path d="M507.28,335.13l-1.89-.35v-2l-2.64-.49v2.05l-1.88-.35v-2l-2.57-.47h0c0,1.52,0,3,0,4.57a1.55,1.55,0,0,0,1.2,1.43l9.26,1.7a.92.92,0,0,0,1.15-1c0-1.54,0-3.08,0-4.63l-2.64-.49Z" style="fill: #ff0"/>
    <path d="M506.75,334.46l-.83-.16v-2l-3.69-.7v2.06l-.83-.16v-2l-3.1-.57-.53.07v5a2.25,2.25,0,0,0,1.73,2.1c3.09.55,6.17,1.12,9.26,1.7a1.37,1.37,0,0,0,1.68-1.46v-5.2l-3.69-.69Zm1.05-.71,1.59.3v4.05a.49.49,0,0,1-.63.51c-3.09-.58-6.17-1.15-9.26-1.7a.89.89,0,0,1-.68-.76v-4l1.53.28v2l2.93.54v-2.05l1.59.3v2l2.93.54Z"/>
    <path d="M500.14,338l-.6,14.73,9,1.7q-.29-7.47-.58-14.95Z" style="fill: #ff0"/>
    <path d="M499.64,337.29q-.33,7.93-.64,15.88,5.06.93,10.13,1.9L508.5,339Zm.45,14.93q.29-6.8.55-13.59l6.85,1.29.54,13.79Z"/>
    <polygon points="496.97 344.3 496.97 344.31 496.97 344.31 496.97 344.3" style="fill: #ff0"/>
    <path d="M497,344.3l-8.14-1.44-.24,8,8.66,1.53q-.13-4-.28-8.05Z" style="fill: #ff0"/>
    <path d="M488.32,342.2c-.09,3-.18,6.07-.28,9.1,3.25.57,6.5,1.14,9.75,1.73q-.15-4.61-.31-9.21C494.43,343.27,491.37,342.73,488.32,342.2Zm.81,8.14.21-6.81,7.13,1.26c.08,2.3.15,4.59.23,6.89Z"/>
    <polygon points="519.25 348.44 519.25 348.44 519.25 348.44 519.25 348.44" style="fill: #ff0"/>
    <path d="M519.25,348.44l-8.14-1.54-.25,8c2.89.53,5.78,1.08,8.67,1.63-.09-2.68-.19-5.37-.28-8.05Z" style="fill: #ff0"/>
    <path d="M510.6,346.23c-.09,3-.19,6.07-.28,9.1l9.75,1.84c-.1-3.07-.21-6.14-.31-9.21Zm.81,8.15.21-6.81,7.13,1.35c.07,2.3.15,4.59.23,6.89Z"/>
    <path d="M496,340.35l-1.85-.33v-2l-2.58-.47v2.05l-1.84-.32v-2l-2.52-.44h0v4.57a1.53,1.53,0,0,0,1.18,1.42c3,.52,6,1.06,9.06,1.6a.92.92,0,0,0,1.13-1v-4.62L496,338.3Z" style="fill: #ff0"/>
    <path d="M495.49,339.68l-.79-.14v-2l-3.63-.66v2.06l-.8-.14v-2l-3-.54-.16,0-.37.2c0,1.63,0,3.26,0,4.88a2.19,2.19,0,0,0,1.7,2.08l9.06,1.61a1.37,1.37,0,0,0,1.65-1.47v-5.2l-3.64-.66Zm1.05-.71,1.54.28c0,1.35,0,2.7,0,4.05a.48.48,0,0,1-.6.51l-9.06-1.61a.83.83,0,0,1-.65-.75v-4l1.47.26v2l2.9.51v-2.05l1.53.28v2l2.89.52Z"/>
    <path d="M518.3,344.48l-1.85-.35v-2.05l-2.58-.5v2.05l-1.84-.34v-2l-2.52-.48h0c0,1.52,0,3.05,0,4.57a1.54,1.54,0,0,0,1.18,1.43c3,.56,6,1.14,9.06,1.72a.92.92,0,0,0,1.13-1v-4.63l-2.58-.5Z" style="fill: #ff0"/>
    <path d="M517.77,343.8l-.79-.15v-2l-3.64-.7v2l-.79-.15v-2l-3-.58-.16,0-.37.2c0,1.63,0,3.26,0,4.88a2.23,2.23,0,0,0,1.7,2.1l9.06,1.72a1.36,1.36,0,0,0,1.65-1.45c0-1.73,0-3.47,0-5.2l-3.64-.7Zm1.05-.7,1.54.3c0,1.35,0,2.7,0,4.05a.47.47,0,0,1-.6.5l-9.06-1.72a.84.84,0,0,1-.65-.75c0-1.34,0-2.67,0-4l1.47.28v2l2.89.55v-2.05l1.54.29v2.05l2.89.55Z"/>
    <path d="M503.19,343.25h0v3.53l1.82.33v-3.53C505,342.13,503.13,341.79,503.19,343.25Z"/>
    <path d="M492,346.36h0v2.73l1.73.31v-2.73C493.75,345.25,492,345,492,346.36Z"/>
    <path d="M514.34,350.45h0v2.73l1.74.33v-2.73C516.1,349.36,514.34,349.06,514.34,350.45Z"/>
    <path d="M599.59,378.85c-.05-.06-8.88,1.32-8.85,14q8.71,1.81,17.42,3.65h0C607.88,383.7,599.65,378.91,599.59,378.85Z" style="fill: #ff0"/>
    <path d="M615.26,382.5h0q-15.76-3.47-31.54-6.9-.79,7.19-1.58,14.37l8.72,1.87c.22-11.32,8.41-12.24,8.59-12.19s8.47,3.8,8.55,15.89l8.69,1.87q-.71-7.45-1.43-14.9Z" style="fill: #ff0"/>
    <path d="M615.79,382q-16.27-3.58-32.54-7.11-.86,7.74-1.7,15.49l9.82,2.1c0-.18,0-.37,0-.56.22-11,8.07-11.72,8-11.74s8,3.44,8,15.21c0,.19,0,.38,0,.57l9.8,2.11q-.75-7.77-1.49-15.53Zm-21-1c-1.89,1.5-4.15,4.47-4.4,10.13l-7.62-1.64q.72-6.61,1.45-13.24l13.89,3A9.92,9.92,0,0,0,594.75,381Zm21.36,15.68-7.6-1.63a19.22,19.22,0,0,0-4.72-12.74,15.65,15.65,0,0,0-2.71-2.38l13.71,3Z"/>
    <path d="M617.28,397.59q-17.79-3.88-35.59-7.68c-.75-.16-1.36.52-1.36,1.51a2.11,2.11,0,0,0,1.36,2.09q17.79,3.78,35.59,7.68c.75.16,1.36-.51,1.36-1.5A2.11,2.11,0,0,0,617.28,397.59Z" style="fill: #ff0"/>
    <path d="M617.28,397q-17.79-3.87-35.59-7.68c-1-.22-1.89.67-1.89,2a2.81,2.81,0,0,0,1.89,2.77q17.79,3.8,35.59,7.68c1,.23,1.89-.65,1.89-2A2.85,2.85,0,0,0,617.28,397Zm0,3.6q-17.79-3.87-35.59-7.68a1.43,1.43,0,0,1-.84-1.4c0-.67.39-1.15.84-1q17.79,3.79,35.59,7.68a1.45,1.45,0,0,1,.84,1.41C618.12,400.24,617.73,400.71,617.28,400.61Z"/>
    <path d="M599.57,383.9s-4.92,1.16-5,8.7l9.73,2.11h0C604.3,387.08,599.59,383.9,599.57,383.9Z" style="fill: #ff0"/>
    <path d="M601.51,385.05a7.28,7.28,0,0,0-1.94-1.72c-.44-.1-5.45,1.45-5.49,9.16v.58l10.79,2.33v-.58A14.87,14.87,0,0,0,601.51,385.05Zm-6.36,7.1c.23-5.82,3.56-7.32,4.42-7.61.8.62,4,3.48,4.23,9.48Z"/>
    <path d="M616.52,376.7q-17.06-3.72-34.11-7.36c-.72-.16-1.31.45-1.31,1.34a2,2,0,0,0,1.31,1.9q17.05,3.63,34.11,7.36c.72.16,1.31-.44,1.31-1.34A2,2,0,0,0,616.52,376.7Z" style="fill: #ff0"/>
    <path d="M616.52,376.12q-17.06-3.71-34.11-7.36c-1-.22-1.83.59-1.83,1.81a2.62,2.62,0,0,0,1.83,2.58q17.05,3.64,34.11,7.37c1,.22,1.83-.59,1.83-1.8A2.67,2.67,0,0,0,616.52,376.12Zm0,3.25q-17.06-3.72-34.11-7.37a1.22,1.22,0,0,1-.78-1.21c0-.57.35-1,.78-.88q17.05,3.63,34.11,7.36a1.24,1.24,0,0,1,.78,1.22C617.3,379.07,617,379.46,616.52,379.37Z"/>
    <path d="M615.81,379.81q-16.32-3.56-32.63-7c-.69-.15-1.25.46-1.25,1.35a1.89,1.89,0,0,0,1.25,1.88q16.3,3.5,32.63,7.05c.69.15,1.25-.46,1.25-1.35A1.93,1.93,0,0,0,615.81,379.81Z" style="fill: #ff0"/>
    <path d="M615.81,379.23q-16.32-3.54-32.63-7c-1-.21-1.78.61-1.78,1.82a2.62,2.62,0,0,0,1.78,2.57q16.32,3.48,32.63,7c1,.22,1.77-.59,1.77-1.81A2.63,2.63,0,0,0,615.81,379.23Zm0,3.24q-16.32-3.54-32.63-7a1.22,1.22,0,0,1-.73-1.2c0-.57.34-1,.73-.89q16.32,3.48,32.63,7a1.23,1.23,0,0,1,.72,1.21C616.53,382.15,616.2,382.56,615.81,382.47Z"/>
    <path d="M605.27,353.16l-2.58-.55v2l-1.88-.4v-2l-2.64-.56v2l-1.88-.41v-2.05l-2.65-.57c0,1.55,0,3.09,0,4.63a1.5,1.5,0,0,0,1.15,1.45l9.26,2a1,1,0,0,0,1.2-.95c0-1.53,0-3.05,0-4.58Z" style="fill: #ff0"/>
    <path d="M602.16,351.92v2l-.82-.18v-2.05l-3.69-.78v2l-.84-.18v-2l-3.69-.8v5.21a2.2,2.2,0,0,0,1.68,2.13l9.26,2a1.39,1.39,0,0,0,1.73-1.41c0-1.66,0-3.32,0-5l-.45-.25Zm2.58,5.7a.54.54,0,0,1-.68.49l-9.26-2a.78.78,0,0,1-.63-.76V351.3l1.59.34v2.05l2.94.64v-2.05l1.59.34v2.05l2.92.63v-2l1.53.33Z"/>
    <path d="M595.56,357.25,595,372l9,1.92-.6-15Z" style="fill: #ff0"/>
    <path d="M595.06,356.57l-.63,15.85,10.14,2.15q-.33-8.06-.65-16.13Zm.47,14.94.54-13.58,6.85,1.45q.27,6.9.55,13.81Z"/>
    <polygon points="606.59 366.51 606.59 366.51 606.59 366.51 606.59 366.51" style="fill: #ff0"/>
    <path d="M606.59,366.51h0q-.14,4-.28,7.94l8.67,1.89c-.08-2.69-.17-5.37-.25-8.06Z" style="fill: #ff0"/>
    <path d="M606.08,365.83c-.1,3-.21,6.05-.31,9.08l9.75,2.12c-.09-3.07-.19-6.14-.28-9.21Zm.78,8.16c.08-2.26.16-4.53.23-6.79l7.13,1.55.21,6.9Z"/>
    <polygon points="584.31 361.71 584.31 361.71 584.31 361.71 584.31 361.71" style="fill: #ff0"/>
    <path d="M584.31,361.71h0q-.13,4-.28,7.94l8.67,1.86c-.08-2.68-.16-5.37-.25-8.05Z" style="fill: #ff0"/>
    <path d="M583.81,361c-.11,3-.22,6.05-.32,9.08l9.75,2.1c-.09-3.07-.19-6.15-.28-9.22Zm.77,8.16.24-6.79,7.13,1.53.21,6.89Z"/>
    <path d="M616.33,362.83l-2.52-.54v2l-1.84-.4v-2l-2.58-.56v2l-1.85-.4v-2.05l-2.58-.56V365a1.48,1.48,0,0,0,1.13,1.43l9.07,2a.94.94,0,0,0,1.17-.95c0-1.52,0-3.05,0-4.57h0Z" style="fill: #ff0"/>
    <path d="M613.29,361.61v2l-.79-.17v-2.06l-3.64-.77v2l-.79-.17v-2.06l-3.64-.78c0,1.74,0,3.47,0,5.2a2.2,2.2,0,0,0,1.65,2.13l9.07,2a1.37,1.37,0,0,0,1.69-1.41c0-1.63,0-3.26,0-4.89l-.37-.35Zm2.51,5.68a.52.52,0,0,1-.64.5l-9.07-2a.75.75,0,0,1-.6-.75V361l1.53.33v2l2.89.63v-2l1.54.33v2.05l2.89.63v-2l1.47.32C615.81,364.63,615.81,366,615.8,367.29Z"/>
    <path d="M594.05,358l-2.51-.54v2l-1.85-.4V357l-2.58-.54v2l-1.85-.39v-2.06l-2.58-.54c0,1.54,0,3.08,0,4.62a1.47,1.47,0,0,0,1.12,1.44l9.07,1.94a1,1,0,0,0,1.17-1c0-1.52,0-3.05,0-4.57h0Z" style="fill: #ff0"/>
    <path d="M591,356.79v2l-.79-.17v-2.05l-3.63-.77v2l-.8-.17v-2.05l-3.63-.77v5.2a2.21,2.21,0,0,0,1.65,2.12l9.07,1.94a1.38,1.38,0,0,0,1.7-1.41v-4.88l-.37-.35Zm2.52,5.68a.52.52,0,0,1-.65.49L583.81,361a.75.75,0,0,1-.6-.74v-4.06l1.53.33v2.05l2.9.62v-2.05l1.53.33v2.05l2.89.62v-2l1.47.31Z"/>
    <path d="M598.55,362.59v3.53l1.82.4V363h0C600.43,361.55,598.53,361.13,598.55,362.59Z"/>
    <path d="M609.83,370.16v2.73l1.74.38v-2.73h0C611.57,369.15,609.81,368.73,609.83,370.16Z"/>
    <path d="M587.48,365.34v2.73l1.74.37v-2.73h0C589.23,364.32,587.46,363.91,587.48,365.34Z"/>
    <path d="M599.59,485.39c-.05-.06-8.88,1.32-8.85,13.95L608.16,503h0C607.88,490.23,599.65,485.44,599.59,485.39Z" style="fill: #ff0"/>
    <path d="M615.26,489h0q-15.76-3.48-31.54-6.9-.79,7.19-1.58,14.37l8.72,1.86c.22-11.32,8.41-12.23,8.59-12.18s8.47,3.79,8.55,15.89l8.69,1.87q-.71-7.45-1.43-14.91Z" style="fill: #ff0"/>
    <path d="M615.79,488.57q-16.27-3.58-32.54-7.11-.86,7.74-1.7,15.49l9.82,2.1c0-.19,0-.37,0-.56.22-11,8.07-11.73,8-11.74s8,3.43,8,15.21c0,.19,0,.38,0,.57l9.8,2.11q-.75-7.77-1.49-15.54Zm-21-1c-1.89,1.5-4.15,4.46-4.4,10.12l-7.62-1.63q.72-6.62,1.45-13.24l13.89,3A9.74,9.74,0,0,0,594.75,487.56Zm21.36,15.68-7.6-1.64a19.24,19.24,0,0,0-4.72-12.74,15.54,15.54,0,0,0-2.71-2.37l13.71,3Z"/>
    <path d="M617.28,504.12q-17.79-3.87-35.59-7.68c-.75-.16-1.36.52-1.36,1.51a2.11,2.11,0,0,0,1.36,2.09q17.79,3.79,35.59,7.68c.75.17,1.36-.51,1.36-1.5A2.13,2.13,0,0,0,617.28,504.12Z" style="fill: #ff0"/>
    <path d="M617.28,503.55q-17.79-3.89-35.59-7.68c-1-.23-1.89.66-1.89,2a2.82,2.82,0,0,0,1.89,2.78q17.79,3.78,35.59,7.68c1,.23,1.89-.65,1.89-2A2.83,2.83,0,0,0,617.28,503.55Zm0,3.6q-17.79-3.87-35.59-7.68a1.44,1.44,0,0,1-.84-1.41c0-.66.39-1.14.84-1q17.79,3.78,35.59,7.68a1.44,1.44,0,0,1,.84,1.41C618.12,506.77,617.73,507.25,617.28,507.15Z"/>
    <path d="M599.57,490.44s-4.92,1.16-5,8.7l9.73,2.1h0C604.3,493.61,599.59,490.44,599.57,490.44Z" style="fill: #ff0"/>
    <path d="M601.51,491.59a7.37,7.37,0,0,0-1.94-1.73c-.44-.09-5.45,1.45-5.49,9.16v.58l10.79,2.33v-.58A14.82,14.82,0,0,0,601.51,491.59Zm-6.36,7.09c.23-5.81,3.56-7.32,4.42-7.61.8.62,4,3.48,4.23,9.48Z"/>
    <path d="M616.52,483.23q-17.06-3.71-34.11-7.36c-.72-.15-1.31.45-1.31,1.34a1.94,1.94,0,0,0,1.31,1.9q17.05,3.64,34.11,7.37c.72.15,1.31-.45,1.31-1.34A2,2,0,0,0,616.52,483.23Z" style="fill: #ff0"/>
    <path d="M616.52,482.66q-17.06-3.72-34.11-7.36c-1-.22-1.83.59-1.83,1.8a2.65,2.65,0,0,0,1.83,2.59q17.05,3.63,34.11,7.36c1,.22,1.83-.58,1.83-1.8A2.66,2.66,0,0,0,616.52,482.66Zm0,3.24q-17.06-3.7-34.11-7.36a1.23,1.23,0,0,1-.78-1.22c0-.56.35-1,.78-.87q17.05,3.63,34.11,7.36a1.23,1.23,0,0,1,.78,1.22C617.3,485.59,617,486,616.52,485.9Z"/>
    <path d="M615.81,486.35q-16.32-3.56-32.63-7.05c-.69-.15-1.25.46-1.25,1.35a1.91,1.91,0,0,0,1.25,1.89q16.3,3.48,32.63,7c.69.15,1.25-.45,1.25-1.34A1.92,1.92,0,0,0,615.81,486.35Z" style="fill: #ff0"/>
    <path d="M615.81,485.77q-16.32-3.56-32.63-7c-1-.21-1.78.6-1.78,1.81a2.61,2.61,0,0,0,1.78,2.57q16.32,3.5,32.63,7.05c1,.21,1.77-.6,1.77-1.81A2.62,2.62,0,0,0,615.81,485.77Zm0,3.24q-16.32-3.56-32.63-7a1.24,1.24,0,0,1-.73-1.21c0-.56.34-1,.73-.88q16.32,3.48,32.63,7a1.23,1.23,0,0,1,.72,1.2C616.53,488.69,616.2,489.09,615.81,489Z"/>
    <path d="M605.27,459.7l-2.58-.56v2l-1.88-.41v-2.05l-2.64-.56v2l-1.88-.4v-2l-2.65-.57c0,1.54,0,3.08,0,4.63a1.49,1.49,0,0,0,1.15,1.44l9.26,2a1,1,0,0,0,1.2-1c0-1.52,0-3,0-4.57Z" style="fill: #ff0"/>
    <path d="M602.16,458.46v2l-.82-.18v-2l-3.69-.78v2l-.84-.18v-2l-3.69-.8v5.2a2.21,2.21,0,0,0,1.68,2.14l9.26,2a1.4,1.4,0,0,0,1.73-1.41c0-1.67,0-3.33,0-5l-.45-.26Zm2.58,5.69a.55.55,0,0,1-.68.5l-9.26-2a.79.79,0,0,1-.63-.76v-4.05l1.59.34v2.05l2.94.63v-2l1.59.34v2l2.92.64v-2l1.53.33Z"/>
    <path d="M595.56,463.79q-.28,7.35-.58,14.71l9,1.92-.6-15Z" style="fill: #ff0"/>
    <path d="M595.06,463.11,594.43,479l10.14,2.15q-.33-8.07-.65-16.13Zm.47,14.93.54-13.57,6.85,1.44q.27,6.91.55,13.82Z"/>
    <polygon points="606.59 473.05 606.59 473.05 606.59 473.05 606.59 473.05" style="fill: #ff0"/>
    <path d="M606.59,473.05h0c-.09,2.65-.18,5.29-.28,7.94l8.67,1.88c-.08-2.68-.17-5.37-.25-8.05Z" style="fill: #ff0"/>
    <path d="M606.08,472.36c-.1,3-.21,6.06-.31,9.08l9.75,2.13c-.09-3.07-.19-6.14-.28-9.22Zm.78,8.17q.12-3.39.23-6.8l7.13,1.55.21,6.9Z"/>
    <path d="M584.31,468.25h0c-.09,2.65-.18,5.29-.28,7.94l8.67,1.86c-.08-2.68-.16-5.37-.25-8.05Z" style="fill: #ff0"/>
    <polygon points="584.31 468.25 584.31 468.25 584.31 468.25 584.31 468.25" style="fill: #ff0"/>
    <path d="M583.81,467.57q-.16,4.53-.32,9.08l9.75,2.09c-.09-3.07-.19-6.14-.28-9.21Zm.77,8.16.24-6.8,7.13,1.53.21,6.9Z"/>
    <path d="M616.33,469.37l-2.52-.54v2l-1.84-.41v-2.05l-2.58-.55v2l-1.85-.4v-2.05l-2.58-.55v4.62a1.48,1.48,0,0,0,1.13,1.44l9.07,2a1,1,0,0,0,1.17-.95c0-1.53,0-3.05,0-4.58Z" style="fill: #ff0"/>
    <path d="M613.29,468.14v2l-.79-.18v-2.05l-3.64-.78v2.05l-.79-.18V467l-3.64-.78c0,1.73,0,3.47,0,5.2a2.22,2.22,0,0,0,1.65,2.13l9.07,2a1.36,1.36,0,0,0,1.69-1.41c0-1.63,0-3.25,0-4.88l-.37-.35Zm2.51,5.69a.51.51,0,0,1-.64.49l-9.07-2a.77.77,0,0,1-.6-.75v-4.06l1.53.33v2.06l2.89.62v-2l1.54.33v2l2.89.62v-2l1.47.31C615.81,471.17,615.81,472.5,615.8,473.83Z"/>
    <path d="M594.05,464.54l-2.51-.53v2l-1.85-.39v-2.05l-2.58-.55v2.05l-1.85-.4v-2.05l-2.58-.55c0,1.54,0,3.09,0,4.63a1.47,1.47,0,0,0,1.12,1.43l9.07,1.95a1,1,0,0,0,1.17-1c0-1.53,0-3.05,0-4.57h0Z" style="fill: #ff0"/>
    <path d="M591,463.32v2l-.79-.17V463.1l-3.63-.76v2l-.8-.17v-2l-3.63-.77v5.2a2.21,2.21,0,0,0,1.65,2.12l9.07,1.94a1.39,1.39,0,0,0,1.7-1.42v-4.88l-.37-.35Zm2.52,5.68a.52.52,0,0,1-.65.5l-9.07-1.94a.75.75,0,0,1-.6-.75v-4.05l1.53.32v2.05l2.9.62v-2l1.53.32v2.05l2.89.62v-2l1.47.32Z"/>
    <path d="M598.55,469.12v3.54l1.82.39v-3.53h0C600.43,468.09,598.53,467.66,598.55,469.12Z"/>
    <path d="M609.83,476.7v2.73l1.74.37v-2.73h0C611.57,475.68,609.81,475.27,609.83,476.7Z"/>
    <path d="M587.48,471.87v2.73l1.74.37v-2.73h0C589.23,470.85,587.46,470.45,587.48,471.87Z"/>
    <path d="M557.88,589.72l12.36,16h0a15.65,15.65,0,0,0,4.16-16.88C574.39,588.8,566,582.49,557.88,589.72Z" style="fill: #ff0"/>
    <path d="M563.11,574.28l-10.63,6.94,6.14,8c7.52-6.29,15-.22,15.15,0s4.69,8.95-3.07,15.88l6.14,8,8.44-9.6h0Q574.19,588.89,563.11,574.28Z" style="fill: #ff0"/>
    <path d="M551.69,581l6.92,9.06.37-.31c7.27-6.08,14.37-.24,14.4-.23a12.44,12.44,0,0,1-3.06,15.1l-.37.32,6.93,9.07,8.81-10,.28-.35q-11.4-15.09-22.81-30.12Zm32.89,22.43q-3.9,4.41-7.78,8.84l-5.37-7a13.12,13.12,0,0,0,4.27-11,15.22,15.22,0,0,0-.76-3.53Q579.77,597.06,584.58,603.43Zm-15.71-17.22a11.43,11.43,0,0,0-10.24,2.25l-5.37-7,9.81-6.39q4.88,6.42,9.76,12.87A14.63,14.63,0,0,0,568.87,586.21Z"/>
    <path d="M552.13,580.82a1.43,1.43,0,0,0-2.12-.22,1.7,1.7,0,0,0-.21,2.28q12.54,16.39,25.08,32.88A1.44,1.44,0,0,0,577,616a1.72,1.72,0,0,0,.21-2.29Q564.67,597.23,552.13,580.82Z" style="fill: #ff0"/>
    <path d="M552.51,580.5a2.11,2.11,0,0,0-1.44-.84,1.82,1.82,0,0,0-1.43.46,2.13,2.13,0,0,0-.71,1.62,2.44,2.44,0,0,0,.5,1.47Q562,599.61,574.5,616.09a2.16,2.16,0,0,0,1.26.81,1.84,1.84,0,0,0,1.61-.41,2.32,2.32,0,0,0,.21-3.1Q565,596.91,552.51,580.5Zm24.12,35a.94.94,0,0,1-1.38-.08q-12.54-16.48-25.08-32.88A1,1,0,0,1,550,582a1.14,1.14,0,0,1,.4-.87,1,1,0,0,1,.78-.27l.09,0a.82.82,0,0,1,.51.31q12.54,16.4,25.08,32.89A1.12,1.12,0,0,1,576.63,615.51Z"/>
    <path d="M561.28,592.7l6.86,9h0a9.57,9.57,0,0,0,3-10A8.2,8.2,0,0,0,561.28,592.7Z" style="fill: #ff0"/>
    <path d="M571.3,591.24a8.63,8.63,0,0,0-10.39,1l-.37.32q3.8,5,7.6,10l.37-.33a10,10,0,0,0,3.48-8.39A5.5,5.5,0,0,0,571.3,591.24Zm-3.17,9.64-6.1-8a7.73,7.73,0,0,1,8.66-.81A9.13,9.13,0,0,1,568.13,600.88Z"/>
    <path d="M566.07,569.67a1.35,1.35,0,0,0-2-.29,1.6,1.6,0,0,0-.12,2.13q12,15.76,24,31.6a1.35,1.35,0,0,0,2,.3,1.59,1.59,0,0,0,.13-2.13Q578.09,585.44,566.07,569.67Z" style="fill: #ff0"/>
    <path d="M566.44,569.34a2.12,2.12,0,0,0-1.24-.81h0a1.72,1.72,0,0,0-1.47.37,2,2,0,0,0-.62,1.48,2.41,2.41,0,0,0,.49,1.47q12,15.75,24,31.6a2.15,2.15,0,0,0,1.25.82l.11,0a1.64,1.64,0,0,0,1.35-.39,1.91,1.91,0,0,0,.63-1.47,2.47,2.47,0,0,0-.49-1.47Q578.45,585.13,566.44,569.34Zm23.16,33.58a.84.84,0,0,1-.67.2.78.78,0,0,1-.55-.33q-12-15.84-24-31.61a.87.87,0,0,1-.19-.59.94.94,0,0,1,.31-.72.85.85,0,0,1,.73-.2h0a.84.84,0,0,1,.5.32q12,15.78,24,31.61a1,1,0,0,1,.19.59A1,1,0,0,1,589.6,602.92Z"/>
    <path d="M564.49,572.24a1.32,1.32,0,0,0-1.93-.24,1.56,1.56,0,0,0-.17,2.08q11.5,15.07,23,30.22a1.34,1.34,0,0,0,1.94.24,1.56,1.56,0,0,0,.16-2.08Q576,587.33,564.49,572.24Z" style="fill: #ff0"/>
    <path d="M564.87,571.91a2,2,0,0,0-1.35-.8,1.7,1.7,0,0,0-1.33.41,2,2,0,0,0-.63,1.32,2.29,2.29,0,0,0,.46,1.57q11.51,15.08,23,30.21a2.11,2.11,0,0,0,1.2.78l.15,0a1.69,1.69,0,0,0,1.33-.4,2,2,0,0,0,.63-1.32,2.28,2.28,0,0,0-.46-1.57Q576.36,587,564.87,571.91ZM587,604.05a.86.86,0,0,1-.68.21.73.73,0,0,1-.51-.29q-11.5-15.13-23-30.22a.87.87,0,0,1-.17-.6,1,1,0,0,1,.33-.66.86.86,0,0,1,.67-.22l.07,0a.71.71,0,0,1,.45.27q11.49,15.09,23,30.23a.81.81,0,0,1,.16.6A1,1,0,0,1,587,604.05Z"/>
    <path d="M595.84,578.9c-.61-.8-1.22-1.59-1.82-2.39l-1.3,1.13-1.32-1.74,1.32-1.16-1.86-2.45-1.32,1.16c-.45-.58-.89-1.17-1.33-1.75l1.32-1.16-1.86-2.45-3,2.62a1.3,1.3,0,0,0,0,1.75q3.27,4.29,6.53,8.6c.44.57,1.2.8,1.63.42l3-2.57Z" style="fill: #ff0"/>
    <path d="M592.72,576.83l-.58-.77,1.33-1.16-2.61-3.42-1.32,1.16-.59-.78,1.33-1.16-2.61-3.43-3.36,3a1.89,1.89,0,0,0,0,2.56l6.53,8.6a2.21,2.21,0,0,0,1.25.84,1.27,1.27,0,0,0,1.12-.25l3.34-2.9c-.85-1.13-1.71-2.25-2.56-3.37ZM592.5,581c-.21.19-.64.06-.89-.26l-6.52-8.6a.67.67,0,0,1,0-.93l2.62-2.3,1.12,1.48-1.33,1.16,2.07,2.72,1.33-1.15,1.12,1.47-1.33,1.16,2.07,2.72,1.3-1.14,1.07,1.42Z"/>
    <path d="M575,581.26l6.39,8.36,9.19-9L585,573.39Z" style="fill: #ff0"/>
    <path d="M574.21,581.08l7.16,9.37,9.91-9.65L585,572.6Zm7.13,7.7-5.61-7.33,9.25-7.27c1.61,2.12,3.23,4.23,4.84,6.34Z"/>
    <path d="M582.93,591.79l6.1,8,5-4.75-5.74-7.56Z" style="fill: #ff0"/>
    <polygon points="588.3 587.52 588.3 587.52 588.3 587.52 588.3 587.52" style="fill: #ff0"/>
    <polygon points="588.3 587.51 588.3 587.52 588.3 587.52 588.3 587.51" style="fill: #ff0"/>
    <path d="M589.06,587.69c-.13-.16-.25-.33-.38-.5h0l-.37.32L588,587l-5.78,4.59,6.87,9,5.73-5.44-5.71-7.53Zm4.25,7.24L589,599l-5.33-7,4.6-3.66Z"/>
    <path d="M567.23,571.15l6.1,8,5-4.76-5.73-7.55Z" style="fill: #ff0"/>
    <polygon points="572.61 566.86 572.61 566.86 572.61 566.86 572.61 566.86" style="fill: #ff0"/>
    <polygon points="572.61 566.86 572.61 566.86 572.61 566.86 572.61 566.86" style="fill: #ff0"/>
    <path d="M573.36,567c-.12-.17-.25-.34-.38-.5h0l-.38.33c-.11-.17-.23-.33-.35-.49L566.47,571l6.87,9,5.73-5.45q-2.85-3.76-5.71-7.51Zm4.25,7.22-4.29,4.08q-2.67-3.51-5.33-7l4.6-3.67Z"/>
    <path d="M598.93,593.29,597.15,591l-1.3,1.14c-.44-.57-.87-1.14-1.3-1.72l1.33-1.15-1.83-2.4L592.73,588c-.44-.57-.87-1.15-1.3-1.72l1.33-1.16-1.83-2.39-3,2.62a1.26,1.26,0,0,0,0,1.72l6.39,8.41a1.16,1.16,0,0,0,1.61.41l3-2.58h0Z" style="fill: #ff0"/>
    <path d="M595.85,591.27l-.56-.73,1.33-1.16L594.05,586l-1.32,1.15c-.19-.24-.37-.49-.56-.74l1.33-1.16-2.57-3.37-3.36,3a1.46,1.46,0,0,0-.48,1.13,2.37,2.37,0,0,0,.5,1.4q3.2,4.21,6.38,8.42a2.21,2.21,0,0,0,1.23.82,1.29,1.29,0,0,0,1.13-.25l3.12-2.71v-.48l-2.3-3Zm-.26,4.11c-.22.19-.63.07-.87-.24l-6.39-8.42a.9.9,0,0,1-.19-.52.51.51,0,0,1,.17-.39l2.62-2.29,1.08,1.42-1.33,1.16,2,2.69,1.33-1.16,1.08,1.42-1.32,1.16,2,2.69,1.3-1.13,1,1.36Z"/>
    <path d="M583.23,572.6c-.6-.77-1.19-1.55-1.78-2.33l-1.3,1.14-1.3-1.71,1.33-1.16c-.61-.8-1.22-1.59-1.82-2.39L577,567.31l-1.3-1.71,1.33-1.17c-.61-.79-1.22-1.59-1.82-2.39l-3,2.63a1.27,1.27,0,0,0,0,1.72l6.39,8.4a1.17,1.17,0,0,0,1.61.4l3-2.58h0Z" style="fill: #ff0"/>
    <path d="M580.15,570.6c-.18-.25-.37-.49-.56-.74l1.33-1.16-2.56-3.36c-.45.38-.89.77-1.33,1.16l-.56-.74,1.33-1.17-2.56-3.36-3.37,3a1.87,1.87,0,0,0,0,2.53l6.39,8.4a2.09,2.09,0,0,0,1.22.81,1.26,1.26,0,0,0,1.13-.25l3.12-2.72v-.48c-.76-1-1.53-2-2.3-3Zm-.26,4.11c-.21.18-.63.07-.87-.24l-6.39-8.4a.68.68,0,0,1,0-.91l2.62-2.3c.36.47.73.94,1.09,1.42-.45.38-.89.77-1.33,1.16l2,2.68,1.32-1.16,1.09,1.42-1.33,1.16,2,2.68,1.3-1.14c.34.46.69.91,1,1.37Z"/>
    <path d="M584.06,578.82l-2.29,2,1.28,1.68,2.29-2h0C586.31,579.75,585,578,584.06,578.82Z"/>
    <path d="M588.68,592.19l-1.77,1.55c.41.53.82,1.07,1.22,1.61l1.77-1.55h0C590.81,593,589.59,591.37,588.68,592.19Z"/>
    <path d="M572.94,571.47,571.17,573c.4.54.81,1.07,1.22,1.61l1.77-1.55h0C575.07,572.29,573.84,570.64,572.94,571.47Z"/>
    <path d="M488.53,482.75h0a23.67,23.67,0,0,0,4.64,13.9,18.42,18.42,0,0,0,11.13,7.48,12.3,12.3,0,0,0,11.14-3.36,17,17,0,0,0,4.63-12.21V463.81q-15.75-3-31.49-5.81Z" style="fill: #039"/>
    <path d="M495.76,465.27a2.67,2.67,0,0,0-3.13,2.86,4.09,4.09,0,0,0,3.13,4,2.67,2.67,0,0,0,3.12-2.86A4.1,4.1,0,0,0,495.76,465.27Z" style="fill: #fff"/>
    <path d="M513.22,468.5a2.64,2.64,0,0,0-3.12,2.83,4.13,4.13,0,0,0,3.12,4,2.63,2.63,0,0,0,3.12-2.82A4.13,4.13,0,0,0,513.22,468.5Z" style="fill: #fff"/>
    <path d="M504.47,476.05a2.66,2.66,0,0,0-3.12,2.85,4.12,4.12,0,0,0,3.12,4,2.65,2.65,0,0,0,3.12-2.84A4.12,4.12,0,0,0,504.47,476.05Z" style="fill: #fff"/>
    <path d="M495.76,484.09a2.67,2.67,0,0,0-3.13,2.86,4.08,4.08,0,0,0,3.13,4,2.66,2.66,0,0,0,3.12-2.85A4.1,4.1,0,0,0,495.76,484.09Z" style="fill: #fff"/>
    <path d="M513.2,487.27a2.64,2.64,0,0,0-3.12,2.83,4.13,4.13,0,0,0,3.12,4,2.63,2.63,0,0,0,3.12-2.82A4.13,4.13,0,0,0,513.2,487.27Z" style="fill: #fff"/>
    <path d="M488.53,422.92h0a23.67,23.67,0,0,0,4.64,13.9,18.37,18.37,0,0,0,11.13,7.48A12.3,12.3,0,0,0,515.45,441a17,17,0,0,0,4.63-12.21V404q-15.75-3-31.49-5.8Z" style="fill: #039"/>
    <path d="M495.76,405.43a2.68,2.68,0,0,0-3.13,2.87,4.09,4.09,0,0,0,3.13,4,2.66,2.66,0,0,0,3.12-2.86A4.1,4.1,0,0,0,495.76,405.43Z" style="fill: #fff"/>
    <path d="M513.22,408.66a2.64,2.64,0,0,0-3.12,2.83,4.15,4.15,0,0,0,3.12,4,2.64,2.64,0,0,0,3.12-2.83A4.13,4.13,0,0,0,513.22,408.66Z" style="fill: #fff"/>
    <path d="M504.47,416.22a2.65,2.65,0,0,0-3.12,2.84,4.12,4.12,0,0,0,3.12,4,2.64,2.64,0,0,0,3.12-2.84A4.1,4.1,0,0,0,504.47,416.22Z" style="fill: #fff"/>
    <path d="M495.76,424.25a2.67,2.67,0,0,0-3.13,2.86,4.09,4.09,0,0,0,3.13,4,2.67,2.67,0,0,0,3.12-2.86A4.1,4.1,0,0,0,495.76,424.25Z" style="fill: #fff"/>
    <path d="M513.2,427.43a2.64,2.64,0,0,0-3.12,2.83,4.15,4.15,0,0,0,3.12,4,2.64,2.64,0,0,0,3.12-2.83A4.14,4.14,0,0,0,513.2,427.43Z" style="fill: #fff"/>
    <path d="M444.86,475.78h0a23,23,0,0,0,4.64,13.76,17.74,17.74,0,0,0,11.14,7.16,12.61,12.61,0,0,0,11.13-3.66,17.37,17.37,0,0,0,4.63-12.33V456q-15.75-2.64-31.49-4.92Q444.88,463.41,444.86,475.78Z" style="fill: #039"/>
    <path d="M452.08,458.08A2.75,2.75,0,0,0,449,461a3.93,3.93,0,0,0,3.12,3.88,2.75,2.75,0,0,0,3.12-3A3.94,3.94,0,0,0,452.08,458.08Z" style="fill: #fff"/>
    <path d="M469.55,460.81a2.72,2.72,0,0,0-3.13,2.92,4,4,0,0,0,3.13,3.92,2.71,2.71,0,0,0,3.12-2.91A4,4,0,0,0,469.55,460.81Z" style="fill: #fff"/>
    <path d="M460.79,468.61a2.73,2.73,0,0,0-3.12,2.93,4,4,0,0,0,3.12,3.9,2.74,2.74,0,0,0,3.13-2.93A4,4,0,0,0,460.79,468.61Z" style="fill: #fff"/>
    <path d="M452.08,476.89a2.76,2.76,0,0,0-3.12,3,3.93,3.93,0,0,0,3.12,3.88,2.75,2.75,0,0,0,3.12-3A4,4,0,0,0,452.08,476.89Z" style="fill: #fff"/>
    <path d="M469.53,479.58a2.72,2.72,0,0,0-3.12,2.92,4,4,0,0,0,3.12,3.92,2.71,2.71,0,0,0,3.12-2.91A4,4,0,0,0,469.53,479.58Z" style="fill: #fff"/>
    <path d="M532.1,490.88h0v0a24.14,24.14,0,0,0,4.64,14,18.88,18.88,0,0,0,11.14,7.71A12.11,12.11,0,0,0,559,509.46c2.85-2.77,4.62-7,4.62-12.13V472.56q-15.74-3.3-31.48-6.43Z" style="fill: #039"/>
    <path d="M539.32,473.56a2.6,2.6,0,0,0-3.12,2.79,4.19,4.19,0,0,0,3.12,4,2.6,2.6,0,0,0,3.12-2.79A4.19,4.19,0,0,0,539.32,473.56Z" style="fill: #fff"/>
    <path d="M556.79,477.13a2.58,2.58,0,0,0-3.12,2.77,4.21,4.21,0,0,0,3.12,4.06,2.58,2.58,0,0,0,3.12-2.77A4.23,4.23,0,0,0,556.79,477.13Z" style="fill: #fff"/>
    <path d="M548,484.52a2.59,2.59,0,0,0-3.12,2.78,4.2,4.2,0,0,0,3.12,4.05,2.59,2.59,0,0,0,3.12-2.78A4.21,4.21,0,0,0,548,484.52Z" style="fill: #fff"/>
    <path d="M539.32,492.37a2.61,2.61,0,0,0-3.12,2.8,4.2,4.2,0,0,0,3.12,4,2.6,2.6,0,0,0,3.12-2.79A4.21,4.21,0,0,0,539.32,492.37Z" style="fill: #fff"/>
    <path d="M556.77,495.9a2.59,2.59,0,0,0-3.12,2.77,4.23,4.23,0,0,0,3.12,4.06,2.58,2.58,0,0,0,3.12-2.77A4.23,4.23,0,0,0,556.77,495.9Z" style="fill: #fff"/>
    <path d="M488.53,542.06h0a23.67,23.67,0,0,0,4.64,13.9,18.37,18.37,0,0,0,11.13,7.48,12.3,12.3,0,0,0,11.14-3.36,17,17,0,0,0,4.63-12.21V523.11q-15.75-3-31.49-5.8Z" style="fill: #039"/>
    <path d="M495.76,524.57a2.68,2.68,0,0,0-3.13,2.87,4.09,4.09,0,0,0,3.13,4,2.66,2.66,0,0,0,3.12-2.86A4.1,4.1,0,0,0,495.76,524.57Z" style="fill: #fff"/>
    <path d="M513.22,527.8a2.64,2.64,0,0,0-3.12,2.83,4.15,4.15,0,0,0,3.12,4,2.64,2.64,0,0,0,3.12-2.83A4.13,4.13,0,0,0,513.22,527.8Z" style="fill: #fff"/>
    <path d="M504.47,535.36a2.65,2.65,0,0,0-3.12,2.84,4.12,4.12,0,0,0,3.12,4,2.64,2.64,0,0,0,3.12-2.84A4.1,4.1,0,0,0,504.47,535.36Z" style="fill: #fff"/>
    <path d="M495.76,543.39a2.67,2.67,0,0,0-3.13,2.86,4.09,4.09,0,0,0,3.13,4,2.67,2.67,0,0,0,3.12-2.86A4.1,4.1,0,0,0,495.76,543.39Z" style="fill: #fff"/>
    <path d="M513.2,546.57a2.64,2.64,0,0,0-3.12,2.83,4.15,4.15,0,0,0,3.12,4,2.64,2.64,0,0,0,3.12-2.83A4.14,4.14,0,0,0,513.2,546.57Z" style="fill: #fff"/>
  </g>
</svg>
