<svg xmlns="http://www.w3.org/2000/svg" viewBox="0 0 1260 1012.04">
  <g>
    <path d="M0,90.08v920C420,738.76,840,1193.28,1260,922V2C840,273.28,420-181.24,0,90.08Z" style="fill: #0038a8"/>
    <path d="M0,90.08V703.41C420,432.09,840,886.62,1260,615.3V2C840,273.28,420-181.24,0,90.08Z" style="fill: #fff"/>
    <path d="M0,90.08V396.74C420,125.43,840,580,1260,308.63V2C840,273.28,420-181.24,0,90.08Z" style="fill: #d52b1e"/>
    <path d="M630,389.44c-48.49-10.69-87.81,33.45-87.81,97.89S581.51,611.91,630,622.6s87.82-33.49,87.81-98S678.51,400.14,630,389.44Z" style="fill: #fff"/>
    <path d="M630,386.87C580.51,376,540.25,421.2,540.25,486.94S580.51,614.25,630,625.17,719.75,590.82,719.75,525C719.75,459.42,679.49,397.79,630,386.87ZM630,620c-47.36-10.43-85.88-69.48-85.88-132.31S582.64,381.57,630,392s85.88,69.46,85.88,132.25C715.88,587.2,677.35,630.47,630,620Z"/>
    <path d="M672.5,497.11c-2.14-.57-2.15,2.55-2.15,2.55s.07-.91,0,.12.35,3.64,1.93,4.18,2.21-1.91,2.23-3.15C674.51,500.31,674.39,497.58,672.5,497.11Z" style="fill: #009b3a"/>
    <path d="M672.51,496.43a1.74,1.74,0,0,0-1.81.44,4.5,4.5,0,0,0-.87,2.67h0v.09c-.06,1.34.46,4.33,2.39,5l.22.06a1.55,1.55,0,0,0,1.48-.44,5.31,5.31,0,0,0,1.09-3.34C675,499.48,674.5,496.92,672.51,496.43Zm.73,6.66a.81.81,0,0,1-.9.2c-1.2-.41-1.49-2.61-1.46-3.35a4.51,4.51,0,0,0,0-.52,2.59,2.59,0,0,1,.53-1.4,1,1,0,0,1,1.06-.23h0c1.44.36,1.52,2.48,1.52,2.9A4,4,0,0,1,673.24,503.09Z"/>
    <path d="M576.72,539.7l-.17-.4a2.87,2.87,0,0,1-.2-1.16,3.75,3.75,0,0,1,.41-1.2c.66-1.33,1.32-2.65,2-4-.65-1.62-1.31-3.23-2-4.85-.64,1.22-1.28,2.45-1.93,3.67-.07.2-.2.5-.33,1a9.64,9.64,0,0,0-.23,1,6.55,6.55,0,0,0,.12,1.32,7.51,7.51,0,0,0-1-1.28,3.15,3.15,0,0,0-1.5-.82,2.3,2.3,0,0,0-1.55.31,2.81,2.81,0,0,0-1.29,1.56,4,4,0,0,0-.17,2.2,15.77,15.77,0,0,0,1,3.16c1,2.38,1.94,4.75,2.92,7.13q4.77-2.78,9.55-5.52c-.59-1.43-1.18-2.87-1.76-4.3ZM573,541.88l-.76-1.89a3.69,3.69,0,0,1-.41-1.75,1,1,0,0,1,.51-.84.8.8,0,0,1,.69,0,1.1,1.1,0,0,1,.58.5,8.76,8.76,0,0,1,.58,1.06c.26.61.51,1.21.76,1.82Z"/>
    <path d="M570.72,513.57l1.86,7.86-2.06.45c-.57-2.35-1.14-4.71-1.7-7.06l-2.16.49q.86,3.54,1.72,7.09l-1.69.4-1.83-7.64-2.25.53q1.47,6.1,2.92,12.19l10.54-2.47-3-12.42Z"/>
    <path d="M568.05,504.52l-.21-2.52a8.38,8.38,0,0,0-1.29-4.21,3.53,3.53,0,0,0-2.74-1.48,2.48,2.48,0,0,0-2.4,1.1,6.12,6.12,0,0,0-.55,3.7l.66,7.66c3.68.19,7.35.4,11,.61-.14-1.54-.27-3.09-.41-4.63Zm-4.7-.25-.09-1.33a2.7,2.7,0,0,1,.2-1.74,1,1,0,0,1,.83-.41,1.28,1.28,0,0,1,.94.59,4,4,0,0,1,.49,1.9l.12,1.11Z"/>
    <path d="M571.31,480.63a5.51,5.51,0,0,0-1.43-1.8,5.94,5.94,0,0,0-1.8-1.05l-6.59-2.32-.36,4.45,6.74,2.38a2.42,2.42,0,0,1,1.36,1.15,3.55,3.55,0,0,1,.35,2,2.3,2.3,0,0,1-.66,1.61,1.4,1.4,0,0,1-1.46.17l-6.74-2.38c-.12,1.49-.23,3-.35,4.46l6.56,2.29a4.77,4.77,0,0,0,1.91.25,2.55,2.55,0,0,0,1.35-.48,3.59,3.59,0,0,0,1.07-1.22,5.94,5.94,0,0,0,.62-1.91,21,21,0,0,0,.31-2.24,12.16,12.16,0,0,0-.11-3.25A7.27,7.27,0,0,0,571.31,480.63Z"/>
    <path d="M575,462.75a4.4,4.4,0,0,0-1.32-1.45,2.29,2.29,0,0,0-1.87-.45,2.54,2.54,0,0,0-1.5,1.44,5.48,5.48,0,0,0-.31-1.88,4,4,0,0,0-1.39-1.82,2.06,2.06,0,0,0-2.14-.24,3.63,3.63,0,0,0-1.58,2.41c-.7,2.55-1.41,5.09-2.11,7.64l10.47,7.06q1-3.51,2-7c.09-.29.19-.92.36-1.92a6.7,6.7,0,0,0,.1-1.77A6.14,6.14,0,0,0,575,462.75Zm-6.48,2.55c-.17.58-.33,1.16-.5,1.75l-2-1.34c.17-.59.35-1.19.52-1.79a1.78,1.78,0,0,1,.61-1.12.76.76,0,0,1,.81.12,1.41,1.41,0,0,1,.64.86A2.73,2.73,0,0,1,568.56,465.3Zm4.21,2.47c-.19.69-.39,1.38-.59,2.06l-2.13-1.43c.19-.69.39-1.38.58-2.07a2.1,2.1,0,0,1,.71-1.29.75.75,0,0,1,.87.09,1.62,1.62,0,0,1,.67.94A3.31,3.31,0,0,1,572.77,467.77Z"/>
    <path d="M577.43,454.44q-3.58-3.63-7.15-7.27l-1.8,3.52,9.52,9.65q2.28-4.5,4.54-9L580.21,449Q578.81,451.69,577.43,454.44Z"/>
    <path d="M575.82,437.73,584.28,449l2.22-3L578,434.7Z"/>
    <path d="M591.21,433.09a6.72,6.72,0,0,1,.45,2.36,2.23,2.23,0,0,1-.78,1.65,1.41,1.41,0,0,1-1.67.27,6.28,6.28,0,0,1-2.05-2.54,7.55,7.55,0,0,1-1-2.84,2.65,2.65,0,0,1,.77-2.33,1.42,1.42,0,0,1,.85-.37,1.38,1.38,0,0,1,.92.21,2.87,2.87,0,0,1,.74.63l1.89-2.86a5,5,0,0,0-3-1.77,4,4,0,0,0-3.08,1.25,6.53,6.53,0,0,0-2.24,4.57,11,11,0,0,0,1.58,5.9,9.43,9.43,0,0,0,2.8,3.34,4.16,4.16,0,0,0,2.72.8,5.4,5.4,0,0,0,2.62-1.41,6.68,6.68,0,0,0,1.61-2.19,6.5,6.5,0,0,0,.41-2.59,11,11,0,0,0-.61-3.1Z"/>
    <path d="M596.6,419.11l1.32,15.94,3.13-1.43-.36-2.58,3.48-1.59c.45.7.89,1.41,1.34,2.12l3.19-1.48-8.76-12.52Zm3.67,8.56c-.24-1.88-.49-3.76-.73-5.63,1,1.53,1.93,3.07,2.9,4.61Z"/>
    <path d="M624.25,418.32a8.77,8.77,0,0,0-1.12-2.41,5.38,5.38,0,0,0-1.7-1.63,5.18,5.18,0,0,0-2.45-.61l-5-.14q.76,7.47,1.54,14.92l5.06.16a5.35,5.35,0,0,0,2-.37,3,3,0,0,0,1.41-1.13,5.93,5.93,0,0,0,.87-2.2,11.93,11.93,0,0,0,0-3.68A14.85,14.85,0,0,0,624.25,418.32Zm-2.82,5.47a1.83,1.83,0,0,1-.57,1.12,2.45,2.45,0,0,1-1.5.26h-.83c-.29-2.72-.57-5.43-.85-8.15l.85,0a2.44,2.44,0,0,1,2,.92,7.17,7.17,0,0,1,.91,3.26A8.86,8.86,0,0,1,621.43,423.79Z"/>
    <path d="M628.23,428.47l9.34,3,.19-3.29-5.91-1.87c.06-.94.11-1.89.16-2.84l5.29,1.66c.07-1,.13-2,.19-2.95l-5.32-1.68c.05-.77.09-1.54.14-2.31L638,420c.06-1,.12-2.07.17-3.1l-9.16-2.9Z"/>
    <path d="M646.47,420.7l-3.3-1.93q-1.51,6.75-3,13.49l8.46,5,.75-3.31-5.15-3.05Z"/>
    <path d="M666.4,436.57l-4.77-5.21-6.1,11,2.88,3.16,2.25-4.08,1.57,1.72c1.16,1.26,2.17,1.86,3.1,1.86a2.66,2.66,0,0,0,2.28-1.66,4.87,4.87,0,0,0,.61-3.35A6.67,6.67,0,0,0,666.4,436.57Zm-1.63,3.8a.79.79,0,0,1-.82.5,2.43,2.43,0,0,1-1.34-.92l-.71-.77,1.36-2.46c.27.31.55.61.82.91a3.16,3.16,0,0,1,.9,1.54A2,2,0,0,1,664.77,440.37Z"/>
    <path d="M670.67,449.9l-5.13,2,2.5,3.79,1.68-.86,2.78,4.23-.9,2.06,2.55,3.91L679,451.69l-2.66-4.05Zm3,6.53-1.74-2.66,3.68-1.85C675,453.42,674.32,454.92,673.67,456.43Z"/>
    <path d="M687.82,468.09c-1-2.35-2.05-4.7-3.07-7L675.39,467l1.85,4.25,3.81-2.41.15.37a2.2,2.2,0,0,1,.23,1.17,3.2,3.2,0,0,1-.37,1.24c-.63,1.36-1.26,2.71-1.88,4.06l2.1,4.8c.6-1.26,1.2-2.52,1.81-3.78a5.63,5.63,0,0,0,.33-1c.1-.43.18-.77.2-1a8.22,8.22,0,0,0-.15-1.32,8.7,8.7,0,0,0,1,1.26,3.2,3.2,0,0,0,1.51.73,2,2,0,0,0,1.56-.37,2.94,2.94,0,0,0,1.23-1.61,4.66,4.66,0,0,0,.15-2.21A18.33,18.33,0,0,0,687.82,468.09Zm-2.36,2.85a.7.7,0,0,1-.66.08,1.1,1.1,0,0,1-.59-.47,7.79,7.79,0,0,1-.61-1.05c-.27-.6-.53-1.2-.79-1.81l1.91-1.19c.27.61.53,1.23.79,1.85a3.76,3.76,0,0,1,.46,1.73A1.11,1.11,0,0,1,685.46,470.94Z"/>
    <path d="M682.05,481.16c.41,1.54.81,3.08,1.21,4.63l1.9.22q.66,2.58,1.33,5.16L685,492.36l1.23,4.76,9-8.36c-.43-1.64-.85-3.28-1.28-4.92Zm6.46,8.46c-.28-1.07-.55-2.14-.83-3.2l4.16.57Z"/>
    <path d="M698.1,504.13a7.36,7.36,0,0,0-2.3-3,5.54,5.54,0,0,0-3.23-1.15,4.71,4.71,0,0,0-2.94.77,4.65,4.65,0,0,0-1.74,2.53,10.56,10.56,0,0,0-.29,4.3,16.86,16.86,0,0,0,.73,3.74,18.53,18.53,0,0,0,1.72,3.67l4.7.24-.66-7.17L691.8,508l.3,3.08-1.05,0a12.26,12.26,0,0,1-.71-1.66,6.87,6.87,0,0,1-.3-1.46,3.74,3.74,0,0,1,.53-2.53,2.89,2.89,0,0,1,2.47-.79,3.56,3.56,0,0,1,2.55,1,4.21,4.21,0,0,1,1,2.46,3.61,3.61,0,0,1-.18,1.64,1.61,1.61,0,0,1-.86.91c.33,1.48.66,3,1,4.45a3.32,3.32,0,0,0,1.63-1.13,4.14,4.14,0,0,0,.84-2,13.35,13.35,0,0,0,0-3.67A13.07,13.07,0,0,0,698.1,504.13Z"/>
    <path d="M691.18,519.58a2.68,2.68,0,0,0-1.37.47,3.89,3.89,0,0,0-1.06,1.19,5.83,5.83,0,0,0-.65,1.9c-.13.81-.23,1.57-.3,2.26a12.84,12.84,0,0,0,.09,3.26,7.44,7.44,0,0,0,.75,2.09,6.29,6.29,0,0,0,1.42,1.8,6,6,0,0,0,1.82,1.06l6.56,2.36.39-4.44-6.73-2.39a2.59,2.59,0,0,1-1.35-1.19,3.46,3.46,0,0,1-.34-2,2.3,2.3,0,0,1,.65-1.62,1.41,1.41,0,0,1,1.48-.14l6.72,2.42.4-4.42c-2.2-.79-4.39-1.57-6.58-2.37A4.54,4.54,0,0,0,691.18,519.58Z"/>
    <path d="M685.85,539.06l1.55,1.8c-.42,1.54-.85,3.08-1.27,4.62l-1.92-.52L683,549.23l11.83,2.11,1.26-4.45-9.13-12C686.62,536.29,686.23,537.67,685.85,539.06Zm3.57,4.21c1.12,1.33,2.25,2.65,3.38,4l-4.19-1.08Z"/>
    <path d="M680.51,555.29c-.58,1.19-1.17,2.37-1.76,3.56l4,4,3.37,10,1.92-3.9L686,563.39l4.37.9c.64-1.32,1.29-2.63,1.93-3.95l-7.75-1.05Z"/>
    <path d="M630,407.37c-41-9-74.31,28.3-74.31,82.71S589,595.65,630,604.66s74.3-28.32,74.3-82.76S671,416.38,630,407.37Zm0,195.24c-40.12-8.82-72.76-59-72.76-112.21s32.64-89.79,72.76-81,72.75,58.94,72.75,112.15S670.13,611.42,630,602.61Z"/>
    <path d="M630,432c-30.6-6.7-55.5,21-55.5,61.66s24.9,78.95,55.5,85.65,55.49-21.05,55.49-61.69S660.61,438.73,630,432Zm0,145.26c-29.75-6.52-54-43.8-54-83.27s24.2-66.44,54-59.93S684,477.86,684,517.31,659.75,583.79,630,577.28Z"/>
    <path d="M634.61,498,630,479.52q-2.31,8.24-4.61,16.46l-13.94-2.62L622.57,507q-2,8.41-4,16.82l11.46-8,11.44,13q-2-9.3-4-18.58l11.09-8.78Z" style="fill: #fedf00"/>
    <path d="M634.84,497.63q-2.42-9.69-4.82-19.38-2.43,8.64-4.84,17.27l-14.62-2.75L622.2,507,618,524.7l12-8.42q6,6.83,12,13.66l-4.23-19.49,11.63-9.21Zm6.06,30L630,515.26l-10.89,7.63,3.81-16L612.38,494l13,2.46.22,0q2.19-7.83,4.39-15.65l4.29,17.27.07.29,13.22,3.27L637.07,510Q639,518.81,640.9,527.63Z"/>
    <path d="M644.08,556.52l0-.15C643.85,556.38,644.08,556.52,644.08,556.52Z" style="fill: #009b3a"/>
    <path d="M659.9,561.14a19.55,19.55,0,0,1-2.94-1.52,13.87,13.87,0,0,0-4.61-1.84,9.16,9.16,0,0,0-4.35.38,7.79,7.79,0,0,1-3,.05s-.95,0-.5-.21a17.19,17.19,0,0,0,1.88-1.38c.32-.51.64-1,1-1.52.27,0,5.08-7.37,4.56-9.73.73-1.49,1.59-4.25,1.27-4.84-.15-.24-3.74.7-4.53,1.48a9.29,9.29,0,0,0-1.82,4.08A3.49,3.49,0,0,1,645.2,548c-1.12.82-1.93,4-2.32,6.73s-5.46,3.06-5.46,3.06-1.41.39-.16,1.19c.21.13.77,1.51,1.22,1.62.62.23,3.78-.87,4.27-.62s2,1.06,3.18,1.84,2.19,1.3,3,1.07a5,5,0,0,1,3,.64,4.34,4.34,0,0,0,2.49.45,14.29,14.29,0,0,0,2.25-1s1.77-.63,2.8-1S659.9,561.14,659.9,561.14Zm-15.82-4.62s-.23-.14,0-.15c.11-.3.39-1,.62-1.49s1.58-4.17,2-5.18,1.57-3.63,2.23-4.7c.33-.58,1.64-2.18,2-1.27-2.29,2.13-4.09,6.31-5,9.18a20,20,0,0,1-1.15,2.24c-.27.38-.16,1.24-.58,1.21h-.08Zm8.37,5.06c-.49,0-2.45-.42-3.28-.55-.46-.06-1.34-.09-1.8-.18-4-1.49,6.53.89,7.91.44C654.82,561.71,653,561.58,652.45,561.58Z" style="fill: #009b3a"/>
    <path d="M644.41,556.88c.39-.08.5-.6.56-.92a1.71,1.71,0,0,1,.12-.41,19.74,19.74,0,0,0,1.22-2.36c.5-1.5,2.34-6.59,4.94-9a2.39,2.39,0,0,1,.23-.22l-.14-.39a.93.93,0,0,0-.55-.63c-.89-.22-2.08,1.67-2.08,1.68a33.34,33.34,0,0,0-1.6,3.3c-.26.58-.49,1.1-.65,1.44-.29.6-.84,2-1.33,3.33-.33.86-.62,1.6-.73,1.84-.19.4-.41,1-.55,1.32a.43.43,0,0,0-.27.43.76.76,0,0,0,.4.71l.32.18Z"/>
    <path d="M660,560.67l-.07,0a18.86,18.86,0,0,1-2.88-1.48,14,14,0,0,0-4.74-1.89,9.17,9.17,0,0,0-4.47.38,6.17,6.17,0,0,1-2.07.13c.41-.31.79-.62.87-.68l1-1.61a32.58,32.58,0,0,0,3.67-6.16c1-2.13,1.06-3.18,1-3.78.35-.8,1.77-4.17,1.13-5.31-.53-.85-4.63.89-5.07,1.33-1.16,1.08-1.82,3.77-1.94,4.3a3.17,3.17,0,0,1-1.5,1.67c-1.54,1.13-2.28,5.67-2.47,7-.28,1.9-3.83,2.6-5.22,2.72-.29.08-.95.34-.93,1a1.38,1.38,0,0,0,.74,1.12c0,.05.15.25.24.4.3.53.68,1.2,1.1,1.31a6.38,6.38,0,0,0,2.39-.32,10,10,0,0,1,1.84-.33h0c.53.26,1.92,1,3.13,1.81a7,7,0,0,0,2.27,1.13,2.11,2.11,0,0,0,1,0,4.94,4.94,0,0,1,2.77.61,4.71,4.71,0,0,0,2.69.49,13.82,13.82,0,0,0,2.3-1s1.78-.64,2.81-1.06c.39-.16.84-.42.81-1A1.07,1.07,0,0,0,660,560.67Zm-.7.79c-1,.41-2.78,1-2.82,1.06a13,13,0,0,1-2.18.94A4,4,0,0,1,652,563a5.31,5.31,0,0,0-3.2-.66c-.79.21-1.8-.37-2.78-1-1.18-.76-2.59-1.56-3.22-1.87l-.15,0a6.63,6.63,0,0,0-2.12.32,8.59,8.59,0,0,1-2.06.33,3.81,3.81,0,0,1-.58-.83,2.14,2.14,0,0,0-.54-.74l-.11-.08.23-.11c.55,0,5.35-.51,5.77-3.42.36-2.49,1.13-5.67,2.13-6.4a3.84,3.84,0,0,0,1.83-2.19,8.76,8.76,0,0,1,1.71-3.86,10.75,10.75,0,0,1,3.93-1.42,15.45,15.45,0,0,1-1.28,4l-.09.18,0,.23c.39,1.79-3.63,8.39-4.36,9.13l-1.05,1.61a17,17,0,0,1-1.78,1.31.55.55,0,0,0-.32.68c.13.55.61.56,1,.56a8.23,8.23,0,0,0,3.1-.06,8.77,8.77,0,0,1,4.21-.37,13.75,13.75,0,0,1,4.46,1.77,18.06,18.06,0,0,0,2.55,1.36Z"/>
    <path d="M649.76,560.23c-3.54-.55-3.68-.57-3.69.07s.43.75,1.3,1.07a10.88,10.88,0,0,0,1.18.13l.63,0,1,.19c.9.17,1.92.36,2.3.38h.31c1.13,0,2.26,0,2.7-.37-.13-.32-.26-.65-.4-1A27.37,27.37,0,0,1,649.76,560.23Z"/>
    <path d="M634.19,556a8.77,8.77,0,0,0-2.81-1.1,15.25,15.25,0,0,0-3,.12l1.74,1.32s1.63,1.42,2.42,2.17a3.29,3.29,0,0,1,1.2,2l6.33,5.08,1.29,1.51s1.17-1.89,4.76-.8c0,0-7-6.38-7.37-6.58S635.54,556.81,634.19,556Z" style="fill: #009b3a"/>
    <path d="M637.77,558.44a36,36,0,0,0-3.49-2.86,8.6,8.6,0,0,0-2.92-1.14,14.83,14.83,0,0,0-3.1.12l-.9.12,2.59,2s1.62,1.42,2.42,2.16a2.87,2.87,0,0,1,1,1.65l0,.26,6.45,5.16,1.54,1.8.18-.29s1.16-1.7,4.49-.68c0-.26.11-.51.17-.76-1.65-1.5-7.07-6.43-7.45-6.63C638.69,559.26,638.23,558.84,637.77,558.44Zm3.52,8.09-1.12-1.3-6.19-5a4.09,4.09,0,0,0-1.32-2.14c-.8-.75-2.43-2.17-2.45-2.19l-.84-.64a11.49,11.49,0,0,1,2,0,8.56,8.56,0,0,1,2.69,1.06,36.08,36.08,0,0,1,3.4,2.79,8.35,8.35,0,0,0,1.15,1c.3.19,3.57,3.14,6.15,5.48A3.86,3.86,0,0,0,641.29,566.53Z"/>
    <path d="M657.42,539.51a17.11,17.11,0,0,1-2.06,1.65c-.48.5-1,1-1.43,1.49,0,0-5.08,11.27-5.75,13.05-.14.36-4.48,2.69-3.13,2.5a51.87,51.87,0,0,0,6.5-1.65c1.4-.51,2.23-2,3.28-3.18s4.37-4.65,4.94-6.14,1.07-3.75-1.17-9.43A5.19,5.19,0,0,1,657.42,539.51Zm.73,3.31c-.34.73-.8.91-1,1.29a24.26,24.26,0,0,0-1.77,2.22,3.64,3.64,0,0,1-1.57,2c-.95.55-.65,1.82-.73,2.31s-1.55,1.62-2.26,3.2c-.13,1.77-.2,1-1,1.47a66.21,66.21,0,0,0,3.33-6.84c2.2-2.12,3.27-5.6,5.09-7.26C658.51,541.61,658.51,542.07,658.15,542.82Z" style="fill: #009b3a"/>
    <path d="M658.19,540.56l-.25.22a14.61,14.61,0,0,0-2.39,3.42,17.15,17.15,0,0,1-2.7,3.85l-.09.13a65.43,65.43,0,0,1-3.31,6.8c.19.3.38.6.56.9a1.13,1.13,0,0,1,.47-.15c.58-.09.66-.48.75-1.58a8.91,8.91,0,0,1,1.43-2,2.83,2.83,0,0,0,.83-1.25,3.41,3.41,0,0,0,0-.56c0-.56,0-1.13.51-1.43a4.06,4.06,0,0,0,1.73-2.24,6.6,6.6,0,0,1,1-1.23,9.92,9.92,0,0,0,.79-1,1.57,1.57,0,0,1,.26-.31,3,3,0,0,0,.74-1,2,2,0,0,0,0-2.3Zm-.76,2.44.28-.39Z"/>
    <path d="M658.56,536.6c-.11.3-.22.59-.34.89a4.82,4.82,0,0,1-1.08,1.55,18.11,18.11,0,0,1-2.07,1.66l-1.43,1.49-.08.12c-.21.45-5,11.06-5.73,13-.17.16-.86.59-1.37.92-1.93,1.22-2.24,1.44-2.05,2.06a.58.58,0,0,0,.45.45.78.78,0,0,0,.3,0,52.91,52.91,0,0,0,6.56-1.67,6.4,6.4,0,0,0,2.61-2.3c.26-.33.52-.66.79-1l.48-.52c1.4-1.52,4-4.37,4.55-5.77.68-1.87,1-4.37-1.19-9.93C658.83,537.27,658.7,536.94,658.56,536.6Zm.84,10.32c-.47,1.22-3.12,4.1-4.38,5.48l-.48.52c-.29.31-.56.65-.83,1a5.75,5.75,0,0,1-2.33,2.09c-.76.29-2.76.84-4.41,1.23,1.29-.82,1.5-1,1.59-1.21h0c.63-1.67,5.27-12,5.7-13l1.33-1.39a16.87,16.87,0,0,0,2.1-1.68,5.8,5.8,0,0,0,.89-1.1C660.3,543.58,659.91,545.5,659.4,546.92Z"/>
    <path d="M653.94,556.57l-.52.07.37,0A1.43,1.43,0,0,1,653.94,556.57Z" style="fill: #009b3a"/>
    <path d="M665.82,555.16s-2.78-.93-3-1a39.39,39.39,0,0,0-4-1.14c-2.19-.48-3,.35-3.59,1s-2.36,2.5-2.36,2.5l.57.06.52-.07c2.15-1.63,3.81-.49,4.49-.41a7.29,7.29,0,0,0,3.81-.16c2.26-.56,2.12.39,1.88.44a8.56,8.56,0,0,1-3.35.17c-1.68-.24-3.15-.12-3.81-.27a18.51,18.51,0,0,0-3,.23,1.43,1.43,0,0,0-.15.11l-.37,0-2,.27s5.29,1.56,5.86,1.94a2.28,2.28,0,0,0,2.19.17,11.36,11.36,0,0,1,3.78-.92,5,5,0,0,0,1.83-.57,3.24,3.24,0,0,0,1-1.42C666.61,555,665.82,555.16,665.82,555.16Z" style="fill: #009b3a"/>
    <path d="M665.78,554.62c-.59-.2-2.75-.92-3-1a3.86,3.86,0,0,1-.41-.13,33.41,33.41,0,0,0-3.59-1c-2.28-.49-3.2.34-3.89,1.16s-2.31,2.45-2.32,2.47l-.08.07-1.21.17c0,.35.05.7.08,1,2.18.64,5.41,1.65,5.74,1.87a2.22,2.22,0,0,0,.87.39,2.68,2.68,0,0,0,1.64-.16,10.38,10.38,0,0,1,3.56-.88h.12a5.57,5.57,0,0,0,2-.62,3.79,3.79,0,0,0,1.16-1.58,1.59,1.59,0,0,0,.09-1.4A.8.8,0,0,0,665.78,554.62Zm0,1.16a3.15,3.15,0,0,1-.88,1.25,4.92,4.92,0,0,1-1.73.54l-.14,0a10.88,10.88,0,0,0-3.72.92,2,2,0,0,1-1.9-.13,25.92,25.92,0,0,0-3.39-1.21l0,0,.06,0a17.86,17.86,0,0,1,2.87-.23,7.89,7.89,0,0,0,1.36.09,21.57,21.57,0,0,1,2.46.18,8.57,8.57,0,0,0,3.46-.18.56.56,0,0,0,.39-.49,1,1,0,0,0-.18-.74c-.22-.31-.7-.66-2.34-.25a6.83,6.83,0,0,1-3.46.19l-.25,0a2.37,2.37,0,0,1-.46-.13,4.09,4.09,0,0,0-3.38,0c.36-.38.71-.77.94-1,.46-.56,1.17-1.41,3.3-1a31.17,31.17,0,0,1,3.52,1,4.12,4.12,0,0,0,.48.15c.17,0,1.92.62,3,1h0Zm-1.81.14h0Z"/>
    <path d="M667,543.26a5.44,5.44,0,0,0,.61-.19c.28-.11.56-.25.84-.38l-.57.2C667.54,543,667.25,543.13,667,543.26Z" style="fill: #009b3a"/>
    <path d="M677,536.93a3.62,3.62,0,0,0-1.36.53c-2.27.42-3.2,2.11-4.19,3.44-.46.64-1.11,1.07-3,1.79-.28.13-.56.27-.84.38a5.44,5.44,0,0,1-.61.19,16.6,16.6,0,0,0-3,2s-.69,0-.56.52c0,.22.64.18.64.18s4.51.12,6.38-1a7.36,7.36,0,0,0,3-3.41c.51-.92,1.08-2.74,1.1-1.48.09,3.32-3.78,5.7-5.46,6.33a12.22,12.22,0,0,1-3.68.27c-1.56,0-2.5-.27-2.39-.7a3,3,0,0,1,.75-1.28c.63-.87,2-1,3.24-1.39.28-.13.57-.26.88-.37l.57-.2a8.49,8.49,0,0,0,2.94-2.27,5.22,5.22,0,0,0,1.22-2.35c.58-2.48.61-3.91,1.15-4.73,1.9-2.7,2.18-3.65,2.27-5,0-.31-1,.53-1.51.81-1,.58-1.41.5-3.51.78s-2.08,2.08-2.41,2.87a5,5,0,0,1-1.37,1.75,8.18,8.18,0,0,0-1.8,3c-.28.78-.78,1.27-1.17,1.11s.8-6,1.06-6.89a15.8,15.8,0,0,0,.35-3.5c0-.63,0-2.26-.81-2.62s-.85-1.87-.85-1.87c-2,1.84-.87,6.06-.66,8.48a37.72,37.72,0,0,1-.41,6.59c1.91,1.49.41,4.24-.18,5.1s-1.8.81-2.33,1.58-4.55,7.3-4.55,7.3l5-.79s.46.21-.28-.7.24-3.42.88-4c1.22-1,2.87.27,2.87.27a8.08,8.08,0,0,0,5.11.08c2.36-.73,3.37-2.51,4.49-3.77a33.3,33.3,0,0,0,2.42-4.64C676.72,538.43,677.48,536.82,677,536.93Zm-8.6-.46c.34-1,1.17-3.43,2.06-4.26a4.94,4.94,0,0,1,2-.77c.21-.05,1.73.18-.17.46a3,3,0,0,0-2.32,1.45c-.66,2.31-1.25,4.31-2.48,5.61a10.48,10.48,0,0,0-1.48,2.59l-1,.23C666.79,540.72,667.56,538.2,668.41,536.47Z" style="fill: #009b3a"/>
    <path d="M666.34,541.84a10.11,10.11,0,0,1,1.39-2.44c1.31-1.37,1.9-3.42,2.55-5.7a2.8,2.8,0,0,1,2.09-1.27c.91-.14,1.15-.25,1.22-.6l0-.32a2.2,2.2,0,0,0-.17-.25c-.3-.43-1.15-.34-1.18-.34s-.28.08-.45.13a3.4,3.4,0,0,0-1.62.71c-.85.79-1.64,2.82-2.15,4.4-.17.35-.34.73-.51,1.12-.67,1.51-1.42,3.22-2.74,4l.33,1,1.13-.28Z"/>
    <path d="M676.89,536.41a4.15,4.15,0,0,0-1.42.54,4.93,4.93,0,0,0-2.49,1.28c.2-.89.34-1.64.45-2.28a6.66,6.66,0,0,1,.6-2.21c1.89-2.68,2.26-3.71,2.36-5.29,0-.13,0-.25,0-.38l-.21-.21c-.29-.29-.58-.1-1.27.37-.23.15-.45.31-.63.4a4.61,4.61,0,0,1-2.28.61l-1.12.14a2.83,2.83,0,0,0-2.52,2.58,3.2,3.2,0,0,1-.17.55A4.66,4.66,0,0,1,667,534c-.55.25-1.61,2.14-2,3.19a1.88,1.88,0,0,1-.48.79,52.26,52.26,0,0,1,1.11-6,16.85,16.85,0,0,0,.37-3.72c0-.74,0-2.68-1.13-3.18-.49-.21-.53-1.29-.53-1.3l0-1.1-.62.58c-1.77,1.65-1.31,5-1,7.42.08.54.15,1,.19,1.49a38.34,38.34,0,0,1-.4,6.44l-.06.4.29.23a1.69,1.69,0,0,1,.66,1,5.09,5.09,0,0,1-1,3.2,2.37,2.37,0,0,1-1.1.74,2.57,2.57,0,0,0-1.23.84c-.56.8-4.4,7.06-4.56,7.33l-.66,1.07,6-1h0a.38.38,0,0,0,.45-.26c.17-.48-.24-1-.55-1.36a.71.71,0,0,1-.1-.42,4.76,4.76,0,0,1,1-2.7c1-.84,2.45.25,2.57.32a8.42,8.42,0,0,0,5.32.09,8.05,8.05,0,0,0,4-3.1l.63-.77a22.92,22.92,0,0,0,2.1-3.92l.38-.8c1.06-2.11,1-2.53.81-2.9A.53.53,0,0,0,676.89,536.41Zm-13.46,7.83-.25.33a2.57,2.57,0,0,0-.58,1.11,1,1,0,0,0,.11.73h0a2,2,0,0,0-1.56.44,5.63,5.63,0,0,0-1.29,3.48,2.12,2.12,0,0,0,.33,1.2l-3.37.54c1.16-1.89,3.46-5.63,3.88-6.21a2.13,2.13,0,0,1,.95-.62,2.88,2.88,0,0,0,1.38-1,6.07,6.07,0,0,0,1.14-4.09,3,3,0,0,0-.83-1.6,35.31,35.31,0,0,0,.36-6.38c0-.47-.11-1-.19-1.57-.27-2-.61-4.41.25-5.89a2,2,0,0,0,1,1.33c.47.21.47,1.51.47,2a15,15,0,0,1-.32,3.33c0,.06-1.5,6.22-1.08,7.28l.15.31.19.07c.58.25,1.22-.33,1.58-1.33a8.7,8.7,0,0,1,1.61-2.75,5,5,0,0,0,1.55-1.95,3.74,3.74,0,0,0,.2-.64c.22-.86.47-1.84,2-2l1.12-.14a5.21,5.21,0,0,0,2.48-.67,6.89,6.89,0,0,0,.68-.44l.13-.08a11.34,11.34,0,0,1-2.08,3.84,7.37,7.37,0,0,0-.75,2.6c-.11.64-.25,1.4-.46,2.3a4.65,4.65,0,0,1-1.15,2.17,7.88,7.88,0,0,1-2.68,2.11l-.68.25a8.09,8.09,0,0,0-1,.42L666,543A4.34,4.34,0,0,0,663.43,544.24Zm5.82,2.92a8.19,8.19,0,0,1-4.82,0h0a6.61,6.61,0,0,0,1,0H666a9.69,9.69,0,0,0,3.16-.3,11.33,11.33,0,0,0,3.23-2A6.59,6.59,0,0,1,669.25,547.16Zm6.71-8.22-.39.81c-.25.53-.53,1.14-.82,1.72a4.81,4.81,0,0,0,.16-1.37c0-.22,0-.79-.39-1s-.63.27-1,1.15c-.13.31-.28.64-.42.9a7,7,0,0,1-2.89,3.27c-1.39.82-4.34,1-5.63,1a13.69,13.69,0,0,1,2.45-1.56,5.7,5.7,0,0,0,.73-.25,9.25,9.25,0,0,0,1-.43c1.8-.67,2.53-1.12,3-1.85l.38-.52c.86-1.2,1.75-2.45,3.62-2.79l.13-.06a2.4,2.4,0,0,1,.67-.31C676.44,537.93,676.25,538.36,676,538.94Z"/>
    <path d="M663.11,547.72c-.52-.07-1.07-.34-2.08,1.25a1.82,1.82,0,0,0,1,2.77,1.61,1.61,0,0,0,.9-.12c.38-.13.44-.2,1.13-1.06S664.16,547.88,663.11,547.72Z" style="fill: #009b3a"/>
    <path d="M663.08,547.13l-.14,0c-.67-.11-1.3-.09-2.27,1.44a2.44,2.44,0,0,0-.31,2.08,2.83,2.83,0,0,0,1.67,1.7h.05a1.92,1.92,0,0,0,1-.15c.46-.15.57-.28,1.29-1.17a2.49,2.49,0,0,0,.24-2.29A2.26,2.26,0,0,0,663.08,547.13Zm.64,3c-.65.81-.66.81-.93.9h0a2.05,2.05,0,0,1-.68.14h0a1.67,1.67,0,0,1-.93-.85,1.28,1.28,0,0,1,.22-.93c.79-1.24,1.18-1.18,1.6-1.1l.15,0h0a1,1,0,0,1,.68.74A1.12,1.12,0,0,1,663.72,550.14Z"/>
    <path d="M662.79,539c-1.14-1-1.93-.46-2.4.56-.66,1.31-1,2.91-.49,3.54.11.11.57.74,1,.83a2.58,2.58,0,0,0,2.07-1.5C663.55,541.37,664.05,540.14,662.79,539Z" style="fill: #009b3a"/>
    <path d="M660.17,542.72h0Z"/>
    <path d="M663,538.54c-1.2-1-2.3-.82-3,.66s-1.2,3.35-.37,4.35l.12.14a2.51,2.51,0,0,0,1.11.87,2.86,2.86,0,0,0,2.44-1.69,3.89,3.89,0,0,0,.67-2.7A2.87,2.87,0,0,0,663,538.54Zm-.44,3.51a2.39,2.39,0,0,1-1.69,1.31c-.16,0-.47-.39-.58-.53l-.11-.12h0a4.06,4.06,0,0,1,.61-2.73v0c.67-1.43,1.53-.68,1.81-.43a1.34,1.34,0,0,1,.51.76A3,3,0,0,1,662.55,542.05Z"/>
    <path d="M662.27,518.77a4.14,4.14,0,0,0-1.82,3.39,29.86,29.86,0,0,1,0,4.46,16.25,16.25,0,0,1-.83,3.42c-.69,2.09.1,4.31.25,5.07s.68,3.1.68,3.1a3,3,0,0,1,.72-.35,4.21,4.21,0,0,1,.93.17,10.06,10.06,0,0,0,.86-2.89,34.81,34.81,0,0,0-.37-4.36,15.89,15.89,0,0,1-.11-5.66,4.09,4.09,0,0,1,1.53-2.54s.1-.2-.33-.89C663.13,520.61,662.27,518.77,662.27,518.77Z" style="fill: #009b3a"/>
    <path d="M662.6,518.54l-.21-.43-.31.16c-1.53.77-2,2.89-2,3.8,0,.24,0,.57,0,1a20,20,0,0,1,0,3.45,15.51,15.51,0,0,1-.79,3.28,9.12,9.12,0,0,0,.13,5c.05.17.08.3.1.38.12.76.67,3.06.69,3.16s.1.45.16.67l.43-.27a2.84,2.84,0,0,1,.6-.31,3.22,3.22,0,0,1,.82.16l.24.07.12-.26a10.16,10.16,0,0,0,.9-3.12,33.78,33.78,0,0,0-.37-4.46,15.22,15.22,0,0,1-.11-5.47,3.72,3.72,0,0,1,1.36-2.25l.12-.14c.1-.19.18-.64-.39-1.54S662.61,518.56,662.6,518.54Zm-.37,6.39a16.5,16.5,0,0,0,.1,5.86,31.13,31.13,0,0,1,.36,4.25,8.59,8.59,0,0,1-.69,2.4,2.44,2.44,0,0,0-.79-.11,1.65,1.65,0,0,0-.41.14c-.17-.74-.44-1.93-.51-2.42q0-.19-.12-.48a7.69,7.69,0,0,1-.15-4.26,16.5,16.5,0,0,0,.85-3.53,21.39,21.39,0,0,0,0-3.66c0-.36,0-.65,0-.88a3.91,3.91,0,0,1,1.31-2.79,28.83,28.83,0,0,0,1.37,2.54,3.3,3.3,0,0,1,.16.29A4.53,4.53,0,0,0,662.23,524.93Z"/>
    <path d="M664.89,521.7c-1.44,3.61,1.28,4.37,1.28,4.37a1.56,1.56,0,0,0,1.17-.93,4.72,4.72,0,0,0,.36-2.24C666.5,519.56,664.89,521.7,664.89,521.7Z" style="fill: #009b3a"/>
    <path d="M668.09,522.72a3.35,3.35,0,0,0-1.65-2.19c-1-.4-1.85.68-1.88.73l-.06.11a4.66,4.66,0,0,0-.21,3.52,3.05,3.05,0,0,0,1.86,1.75l.06,0h.06a1.89,1.89,0,0,0,1.44-1.14,5.26,5.26,0,0,0,.42-2.6ZM667,524.78a1.19,1.19,0,0,1-.83.69,1.86,1.86,0,0,1-1.09-1,3.47,3.47,0,0,1,.21-2.35c.19-.22.64-.63,1.09-.46s.65.57.94,1.33A4,4,0,0,1,667,524.78Z"/>
    <path d="M670.26,521.29c-1.79-.26-2.67,3.82-2.67,3.82a3.14,3.14,0,0,1-1.25,1.6c-1,.62-.41,1.94-.41,4.07a24.82,24.82,0,0,1-1.12,5.64l-.42,1.18s0,1,.7-.63c1.11-2.68,2.32-1.71,2.78-4.76.29-2.27,3.21-2.39,3.21-2.39l-.82-.38c-3-2.54.17-6.55.69-7.27S672,521.56,670.26,521.29Z" style="fill: #009b3a"/>
    <path d="M670.42,520.63l-.19,0c-2.1-.31-3,3.76-3.13,4.17a2.67,2.67,0,0,1-1,1.3c-1,.6-.87,1.8-.76,3a15,15,0,0,1,.1,1.63,24.37,24.37,0,0,1-1.07,5.37c-.16.45-.31.89-.47,1.33a.86.86,0,0,0,0,.16,1.17,1.17,0,0,0,.51,1l.13,0c.45.1.76-.53,1-1.2a4.6,4.6,0,0,1,1.34-1.9,4.23,4.23,0,0,0,1.49-3c.19-1.49,2.08-1.89,2.79-1.93v-1.34l-.75-.35a2.46,2.46,0,0,1-.9-1.52c-.19-1.16.39-2.66,1.73-4.48l.09-.12a2.56,2.56,0,0,1,.31-.33.87.87,0,0,0,.3-1C671.79,520.84,671.52,520.8,670.42,520.63Zm-1.91,6.75a4.08,4.08,0,0,0,1,2.07,3.07,3.07,0,0,0-2.11,2.52,3.15,3.15,0,0,1-1.15,2.33c-.1.09-.21.19-.32.31a17.71,17.71,0,0,0,.55-3.72c0-.69-.05-1.29-.1-1.81-.12-1.23-.11-1.49.28-1.73a3.69,3.69,0,0,0,1.47-2c.2-.94,1-3.58,2.19-3.42h0C669.62,522.94,668.15,525.14,668.51,527.38Z"/>
    <path d="M672.09,524.64c-.47-.31-1.49-.68-2.34,1.61a1.77,1.77,0,0,0,2,2.47,5,5,0,0,0,.72-.79A2.48,2.48,0,0,0,672.09,524.64Z" style="fill: #009b3a"/>
    <path d="M672.23,524.12c-.66-.44-1.91-.79-2.88,1.79a2.43,2.43,0,0,0,1.71,3.43,1.45,1.45,0,0,0,1-.06,4.32,4.32,0,0,0,.86-.94,3.45,3.45,0,0,0,.39-2.64A2.7,2.7,0,0,0,672.23,524.12Zm-.06,3.36a4.2,4.2,0,0,1-.59.69,1.58,1.58,0,0,1-1.44-.55c-.06-.09-.25-.36,0-1h0c.42-1.15.91-1.67,1.47-1.55a1,1,0,0,1,.36.16,1.31,1.31,0,0,1,.45.74A2.06,2.06,0,0,1,672.17,527.48Z"/>
    <path d="M667.76,518.69c-.27-1.45-.2-3.21-.75-4.47s-1.8-2.87-2.3-4.78a19.61,19.61,0,0,1-.06-5.65c.05-.38.2-.09-.07-.55a24.5,24.5,0,0,0-2.42-2.49,26.88,26.88,0,0,1,.07,3.14c0,.48-.12,1-.18,1.87s.31,1.89,1.2,4.4c1,2.9,1.52,4.66,2.07,6.08.61,1.65,2.32,6.23,2.72,6s.05-1,.05-1A19.33,19.33,0,0,0,667.76,518.69Z" style="fill: #009b3a"/>
    <path d="M668.14,518.64c-.09-.49-.14-1-.19-1.58a10.66,10.66,0,0,0-.6-3,15.17,15.17,0,0,0-.83-1.57,13.21,13.21,0,0,1-1.44-3.11A17.23,17.23,0,0,1,665,504a.91.91,0,0,0-.14-1,20,20,0,0,0-2.55-2.65l-.69-.64.11,1.05a23.23,23.23,0,0,1,.07,3,6.79,6.79,0,0,1-.06.71c0,.32-.08.69-.11,1.14-.07.94.33,2.12,1.24,4.69.51,1.45.89,2.6,1.21,3.58s.58,1.79.86,2.52c1.95,5.24,2.58,6.32,3,6.41a.36.36,0,0,0,.23,0c.52-.22.33-1.28.27-1.47A18.81,18.81,0,0,0,668.14,518.64Zm-2.47-2.57h0c-.27-.69-.53-1.47-.85-2.45s-.7-2.16-1.22-3.61c-.81-2.31-1.2-3.45-1.15-4.11,0-.42.06-.77.1-1.07s.06-.57.08-.83c0-.93,0-1.67,0-2.21a16.73,16.73,0,0,1,1.67,1.74c0,.06,0,.13,0,.21a19.09,19.09,0,0,0,.1,5.81,14,14,0,0,0,1.58,3.47,14.7,14.7,0,0,1,.76,1.42,9.34,9.34,0,0,1,.48,2.6c.06.57.12,1.16.22,1.71a20.94,20.94,0,0,1,.31,2.36C667.34,520.37,666.73,518.93,665.67,516.07Z"/>
    <path d="M677.43,500.5c-.23.26-3.75,3.52-3.95,3.64s-2,.53-3.68,6.17a31.15,31.15,0,0,0-.95,11.37l.81,0c0-.19.09-.37.14-.55,0,0,.27-1.93.48-3.39s1.49-3.24,2.32-4.6a19.57,19.57,0,0,0,1.43-3.34c1-2.32,1.4-4.48,2.33-6,0,2.1-6,13.7-6.6,17.94l1.78,0c1.42-1.41,3.27-4.63,4.53-6.7s1.8-5.6,2-7.18.17-8.88.17-8.88A14.87,14.87,0,0,1,677.43,500.5Z" style="fill: #009b3a"/>
    <path d="M678.65,497.22l-.72,1.44c-.25.49-.66,1.26-.78,1.41s-3.67,3.43-3.95,3.62c-1.47.73-2.74,2.87-3.77,6.36a31.49,31.49,0,0,0-1,11.64l.06.5.75,0v0l2.44,0,.09-.09a36.92,36.92,0,0,0,4.1-6c.16-.28.33-.55.49-.82,1.33-2.18,1.87-5.82,2.1-7.38s.18-8.68.18-9C678.66,498.46,678.66,497.84,678.65,497.22Zm-.94,10.48c-.2,1.36-.73,5-2,7l-.5.82a38.91,38.91,0,0,1-3.89,5.72h-1.07a74.7,74.7,0,0,1,3.64-9.55c1.77-4.14,2.85-6.73,2.83-7.8l0-1.59-.69,1.15a18.34,18.34,0,0,0-1.44,3.51c-.27.84-.56,1.7-.93,2.62a19.29,19.29,0,0,1-1.39,3.25l-.39.61a12.89,12.89,0,0,0-2,4.18c-.2,1.44-.47,3.32-.47,3.33l-.06.25h-.17a30.49,30.49,0,0,1,1-10.6c.66-2.24,1.79-5.08,3.4-5.87l.12-.07c.28-.17,3.86-3.52,4-3.71a1.24,1.24,0,0,0,.17-.23C677.88,502.94,677.86,506.68,677.71,507.7Z"/>
    <path d="M668.26,503.22a17.42,17.42,0,0,0-2-5.46A7.15,7.15,0,0,0,664.7,496s.22,2.23.22,3.56.09,3.59,0,4.77a13.56,13.56,0,0,0,.16,5.13,46.11,46.11,0,0,0,1.91,4.49c.47,1.27,1.34,7.56,1.34,7.56s-.32-8.32-.05-10.59A30.15,30.15,0,0,0,668.26,503.22Z" style="fill: #009b3a"/>
    <path d="M668.64,503.16a18.42,18.42,0,0,0-2-5.72h0a7.84,7.84,0,0,0-1.74-1.92l-.61-.42c0,.29,0,.58.08.86,0,0,.21,2.21.21,3.49,0,.51,0,1.13,0,1.79,0,1.1,0,2.24,0,3,0,.26,0,.57-.07.9a10.86,10.86,0,0,0,.26,4.47,22.65,22.65,0,0,0,1.3,3.17c.23.47.44.9.62,1.35a70.91,70.91,0,0,1,1.3,7.4l.78,0c0-.09-.31-8.29,0-10.49A31.33,31.33,0,0,0,668.64,503.16Zm-.72,7.57a48.75,48.75,0,0,0-.1,4.91,13.78,13.78,0,0,0-.46-1.91c-.2-.5-.42-1-.66-1.47a20.92,20.92,0,0,1-1.23-3,9.61,9.61,0,0,1-.2-3.9c0-.36.07-.7.08-1,0-.77,0-1.93,0-3.05,0-.64,0-1.26,0-1.76,0-.77-.07-1.83-.13-2.6a9.87,9.87,0,0,1,.86,1.07,16.41,16.41,0,0,1,1.84,5.21A29.64,29.64,0,0,1,667.92,510.73Z"/>
    <path d="M669.55,495.83c.1-.25.65-3.14,1-5.53,0,.1-.09.22-.13.3Z" style="fill: #009b3a"/>
    <path d="M672.24,476.65s-.85.72-1.35,4c-.15,1,.18,3.85.05,6.79,0,.54-.17,1.63-.36,2.84a12.89,12.89,0,0,0,1-3.83,30,30,0,0,0,.14-3.49c0-.71-.23-2,0-2s0,.39.15,1.46c.06.39-.13,1.38-.17,2.69a14.08,14.08,0,0,1-.43,3.28c-.31,1.2,0,2.65-.22,3a18.31,18.31,0,0,0-.75,1.75,7.75,7.75,0,0,0-.28,2.27c0,1.14.08,2.38.08,2.38a1.47,1.47,0,0,1,1.28-.86s.2-1.86.2-2.46a50.64,50.64,0,0,1,.87-5.51,21.38,21.38,0,0,0,0-8.31C672.37,479.66,672.24,476.65,672.24,476.65Z" style="fill: #009b3a"/>
    <path d="M672.64,476.7c0-.34,0-.68,0-1l-.59.5c-.1.09-1,.92-1.5,4.3a18.22,18.22,0,0,0,0,2.6c0,1.22.11,2.74,0,4.27a25.35,25.35,0,0,1-.33,2.68s0,0,0,.06l-.09.19.06.06c-.36,2.26-.87,4.89-1,5.17l.5.45c0,.94.06,1.79.06,1.79,0,.6.06,1.21.08,1.81.22-.47.45-.95.67-1.43a1.12,1.12,0,0,1,1-.66h.3l0-.38c0-.2.21-1.92.21-2.54a49.92,49.92,0,0,1,.85-5.35,22,22,0,0,0,0-8.6C672.8,479.84,672.67,477.53,672.64,476.7Zm-1.36,4.15a13,13,0,0,1,.65-2.69c.06.91.14,2,.23,2.54a.13.13,0,0,1,0,.06.46.46,0,0,0-.08-.13l-.23-.22-.19,0c-.5.07-.43.87-.34,1.79,0,.25,0,.49,0,.69,0,.53,0,1.23,0,1.9q0-.87-.06-1.62A16.35,16.35,0,0,1,671.28,480.85Zm.85,7.88a48,48,0,0,0-.9,5.67c0,.37-.09,1.39-.15,2a1.44,1.44,0,0,0-.58.23c0-.37,0-.78,0-1.19a7.32,7.32,0,0,1,.24-2c.22-.55.58-1.45.73-1.7a2.77,2.77,0,0,0,.13-1.26,7.31,7.31,0,0,1,.13-1.85,15,15,0,0,0,.46-3.42c0-.64.07-1.2.11-1.65a4.8,4.8,0,0,0,0-1.14,7.47,7.47,0,0,1,0-1v-.07A20.15,20.15,0,0,1,672.13,488.73Z"/>
    <path d="M670.45,490.6a.93.93,0,0,0-.05.13.27.27,0,0,0,.05-.13" style="fill: #009b3a"/>
    <path d="M670.27,490.49l-.2-.11a.16.16,0,0,1,0-.09h0l-.06.13.6.78a.73.73,0,0,0,.19-.37l-.67-.49Z"/>
    <path d="M669.76,499.49c-.12-.94-.24-1.88-.35-2.83,0,0-.4-3.39.35-5.28a23.83,23.83,0,0,0,.58-6.89c-.19-2-.25-2.59-.43-4.49-.28-3-1.15-7.3-1.25-7.82a26.73,26.73,0,0,0-.75-3c-.1-.43-.3-1.81-.62-1.9s-.47,1.63-.47,1.63-.42,1.81-.51,2.3a33.75,33.75,0,0,0-1.2,6c-.05.61-.11,2.28-.16,2.49a7.66,7.66,0,0,0,0,1.55,16.71,16.71,0,0,0,1.22,4.1,33,33,0,0,1,1,3.41,14.62,14.62,0,0,1,.2,1.54c0,.2.1,1.62.1,1.62v.58s-2.41-2.38-3.47-3.6-2.24-2.87-3-3.87-2.92-4.81-3-7.41l-1-1.35a15.12,15.12,0,0,0,2.69,10.09,23.86,23.86,0,0,0,4.34,4.56c2.3,1.9,2,3.09,2.95,6s1.53,4.6,1.65,5.39-.26,12.29-.26,12.29c0,.36.06.71.08,1.06,0,0,2.1-10.22,3.11-11.2C671.6,504.47,669.6,503.63,669.76,499.49Zm-1.54-8.55a19.23,19.23,0,0,0-.5-3.55,9.9,9.9,0,0,1-.16-5.65,6.51,6.51,0,0,0,.2-1.78c0-.81-.37-2.27-.44-3.14-.07-.69,0-2.11,0-2.63s-.13-1-.19-1.5c.45.1.45.75.36,1.25a16,16,0,0,0-.06,1.7c0,.23.19,1.67.34,2.44a6,6,0,0,1,.32,2.57c-.08.93-.82,1.89-.56,3.56a24,24,0,0,0,.82,2.64,15.77,15.77,0,0,1,.14,2.8,4.18,4.18,0,0,0,.43,1.75S668.4,492.56,668.22,490.94Z" style="fill: #009b3a"/>
    <path d="M670.15,499.49c-.12-.94-.24-1.88-.35-2.82,0,0-.37-3.26.34-5.05a24.81,24.81,0,0,0,.6-7.12c-.07-.68-.14-1.37-.2-2.05s-.14-1.37-.24-2.43c-.17-1.81-.57-4.38-1.21-7.65l-.05-.25a22.5,22.5,0,0,0-.6-2.49l-.15-.53c0-.08,0-.19-.07-.32-.16-.83-.37-1.87-.91-2-.28-.07-.55,0-.87,1.92,0,0-.42,1.83-.51,2.33s-.21.87-.34,1.34a22.52,22.52,0,0,0-.88,4.73c0,.25,0,.67-.06,1.1s-.06,1.17-.09,1.34a8.68,8.68,0,0,0,0,1.75,15,15,0,0,0,1.11,3.85l.15.39a33.16,33.16,0,0,1,.93,3.3,13.21,13.21,0,0,1,.19,1.41c0,.14.05.83.08,1.26-.79-.78-2.11-2.14-2.81-3s-1.7-2.13-2.42-3.08l-.57-.76c-.81-1.06-2.78-4.58-2.8-7v-.23c-.53-.77-1.07-1.53-1.61-2.29l-.12.92a15.8,15.8,0,0,0,2.86,10.65,23.87,23.87,0,0,0,4.4,4.61,5.75,5.75,0,0,1,2.2,3.75c.14.56.31,1.2.55,1.95l.57,1.75a33.33,33.33,0,0,1,1,3.49c.06.57-.13,7.79-.26,12.27,0,.36.05.71.08,1.06l.78.25c.8-3.9,2.31-10.32,3-11l.61-.59-.81-.36C671.6,503.94,670,503.19,670.15,499.49Zm-1.26,12.4c.1-3.5.23-8.95.17-9.59a30.45,30.45,0,0,0-1.11-3.77l-.57-1.75c-.23-.71-.39-1.32-.53-1.86a7,7,0,0,0-2.61-4.43A23.27,23.27,0,0,1,660,486a14.14,14.14,0,0,1-2.6-8.55l.22.31c.15,2.89,2.33,6.62,3.09,7.62l.57.75c.72,1,1.63,2.16,2.45,3.13,1.06,1.23,3.4,3.55,3.5,3.64l.59.59V492s-.09-1.38-.09-1.58-.13-1.15-.21-1.64a34.24,34.24,0,0,0-1-3.56c0-.13-.1-.27-.14-.4a13.86,13.86,0,0,1-1-3.51v0a10.2,10.2,0,0,1,0-1.28,9.39,9.39,0,0,0,.12-1.54c0-.41,0-.82.06-1.06a21.31,21.31,0,0,1,.84-4.5c.14-.5.27-1,.36-1.45s.5-2.27.51-2.31c0-.25.09-.51.14-.73,0,.2.08.4.11.52s0,.29.08.41.11.38.17.57a20.64,20.64,0,0,1,.57,2.36l.05.25c.62,3.22,1,5.74,1.19,7.5.1,1.07.16,1.72.23,2.44s.14,1.36.2,2.05a23.44,23.44,0,0,1-.55,6.6h0l-.09.26-.1-.19a3.69,3.69,0,0,1-.35-1.44c0-.34,0-.71,0-1.06a6.87,6.87,0,0,0-.15-1.91c-.09-.29-.2-.61-.32-1a8.45,8.45,0,0,1-.48-1.6,4.31,4.31,0,0,1,.29-2.25,5.24,5.24,0,0,0,.27-1.14,5.09,5.09,0,0,0-.21-2.29q-.06-.22-.12-.48c-.15-.77-.32-2.11-.33-2.37s0-1.11.05-1.51a2.33,2.33,0,0,0-.12-1.46.91.91,0,0,0-.62-.51c0,.34,0,.68,0,1a1.34,1.34,0,0,1,0,.57,3.71,3.71,0,0,0,0,.38l-.14,0v.49c0,.69,0,1.64,0,2.2,0,.41.13.91.22,1.43a11.74,11.74,0,0,1,.23,1.64,6,6,0,0,1-.16,1.57,10.48,10.48,0,0,0,.14,6.08,14.91,14.91,0,0,1,.43,2.89l.05.52c0,.31.12,1.15.6,1.36.32.16.57-.12.72-.36a16.41,16.41,0,0,0-.13,4.74c.11.9.23,1.81.34,2.71-.12,3.12.94,4.59,1.62,5.21A46.28,46.28,0,0,0,668.89,511.89Z"/>
    <path d="M661.59,489.71c-2.73-2.39-3.45-5.51-4.84-7a6.58,6.58,0,0,0-1.87-1.27s1.21,2.48,1.5,3.31a11.83,11.83,0,0,0,2,3.92,13.14,13.14,0,0,0,4.49,3.95,24.26,24.26,0,0,1,3.88,3.63,11.33,11.33,0,0,0-.71-1.71C665.28,493.23,664.32,492.08,661.59,489.71Z" style="fill: #009b3a"/>
    <path d="M666.3,494.23c-.72-1.29-1.66-2.46-4.54-5a14.7,14.7,0,0,1-3.23-4.51,12.14,12.14,0,0,0-1.56-2.48,6.69,6.69,0,0,0-2-1.38l-1-.42.57,1.16c.33.68,1.24,2.58,1.47,3.23l.14.43a12.13,12.13,0,0,0,1.9,3.66,13.28,13.28,0,0,0,4.48,4l.16.09a24.65,24.65,0,0,1,3.77,3.53c.39.47.79.93,1.19,1.39l-.6-1.9A12.74,12.74,0,0,0,666.3,494.23Zm-3.36-2.12-.16-.1a12.48,12.48,0,0,1-4.17-3.69,10.52,10.52,0,0,1-1.72-3.3l-.16-.46c-.15-.45-.55-1.33-.91-2.08a3.84,3.84,0,0,1,.71.59,10.84,10.84,0,0,1,1.38,2.22,15.8,15.8,0,0,0,3.5,4.85,21.93,21.93,0,0,1,3.81,3.88A14.53,14.53,0,0,0,662.94,492.11Z"/>
    <path d="M658.1,477.07s-.1-.18,0,.16a28,28,0,0,0,2.25,6.44,31.28,31.28,0,0,0,6.61,7.92,37.17,37.17,0,0,0-1.68-6.65C663.32,480.28,658.1,477.07,658.1,477.07Z" style="fill: #009b3a"/>
    <path d="M665.63,484.73c-1.89-4.45-6.48-7.53-7.3-8.06l-.17-.32-.3.18c-.32.18-.16.68-.11.84l0,0h0l0,0a28,28,0,0,0,2.3,6.55,31.47,31.47,0,0,0,6.75,8.1l.74.62c-.06-.37-.12-.73-.19-1.09A36.57,36.57,0,0,0,665.63,484.73Zm-5-1.32a25.07,25.07,0,0,1-2-5.38c1.47,1.05,4.81,3.7,6.26,7.11a34,34,0,0,1,1.42,5.33A29.36,29.36,0,0,1,660.67,483.41Z"/>
    <path d="M662.23,472.18c.58,1.14,2.18,4.41,2.19,4.41.16-1,.33-2,.49-3-1.38-2-2.77-3.94-4.15-5.92-.06.72-1.34,1-1.34,1-.62,4.52,4.92,11.66,4.92,11.66,1.17-3.15-2.32-7.15-3.3-9.73C661.4,470.32,661.83,471.43,662.23,472.18Z" style="fill: #009b3a"/>
    <path d="M661,467.33l-.53-.7c0,.3-.08.6-.13.9s-.51.51-1.07.65l-.22.06,0,.29c-.66,4.76,4.83,11.89,5.06,12.19l.4.51.21-.57a5.4,5.4,0,0,0,0-3.35l.63-3.82Zm3.19,8c-.52-1.06-1.3-2.64-1.67-3.36l-.21-.42c-.32-.65-.63-1.27-1-1.43a.47.47,0,0,0-.5.09l-.26.22c.05.14.1.28.16.42a19.1,19.1,0,0,0,1.36,2.64c1.11,1.95,2.35,4.12,2.1,6-1.24-1.73-4.63-6.8-4.37-10.25a2.42,2.42,0,0,0,1.07-.65l3.63,5.16Z"/>
    <path d="M659.18,468.77l-1.48-.18s.41,1.94-.6,2.33a2.86,2.86,0,0,1-1.36.3c.19.7.38,1.39.56,2.09l.33.61s1.3,2.79,2.07,3.27a24.27,24.27,0,0,1,2.7,1.69,31.38,31.38,0,0,1,4,4.55s-4.08-7-5.64-11.9C659.53,470.61,659.36,469.69,659.18,468.77Z" style="fill: #009b3a"/>
    <path d="M659.48,468.29l-2.29-.29.13.65c0,.06.3,1.49-.38,1.75a3,3,0,0,1-1.2.29l-.57-.12c.26.95.51,1.9.76,2.85l.37.73c.23.49,1.43,3,2.26,3.5.1.07.28.17.52.3a15.32,15.32,0,0,1,2.16,1.38,30.78,30.78,0,0,1,3.85,4.44l.55-.63c0-.06-4-7-5.55-11.66C659.89,470.41,659.68,469.35,659.48,468.29Zm2.07,10.14a16.93,16.93,0,0,0-2.27-1.45c-.21-.11-.36-.2-.47-.27a11.54,11.54,0,0,1-1.88-3.06l-.28-.53c-.12-.46-.25-.93-.38-1.4a5.62,5.62,0,0,0,1-.29h0c.81-.32,1-1.4.9-2.26l.71.09c.16.8.31,1.61.47,2.41a56.23,56.23,0,0,0,3.51,8A12.26,12.26,0,0,0,661.55,478.43Z"/>
    <path d="M650.7,469.58l-.13-.05Z" style="fill: #009b3a"/>
    <path d="M647.22,466.14a18,18,0,0,1-2.35-3.27l-3.1-.86s-1.52-.46.07,1.69a21.73,21.73,0,0,0,2.22,2.66c.9.92,3.49,3.51,5.43,4.42.45.19,2.89,1.13,2.89,1.13.1-1.4,1.26-1.27,1.26-1.27l-2.94-1.06-.13-.05-.39-.14a11.76,11.76,0,0,1-6.55-5.72c1.93,2,4.58,4.87,6.94,5.86l.13.05a4.75,4.75,0,0,0,.9.26C662.18,470.75,648.41,467.42,647.22,466.14Z" style="fill: #009b3a"/>
    <path d="M651.61,467.48a22.29,22.29,0,0,1-4.18-1.74,17.36,17.36,0,0,1-2.25-3.14l-.11-.2-3.27-.9c-.15,0-.83-.22-1,.39s.33,1.48.82,2.14a27,27,0,0,0,7.85,7.25c.45.2,2.9,1.14,2.9,1.14l.41.15,0-.53c.07-.92.81-.88.9-.87v-.66c2.18.1,2.3-.18,2.3-.66C656,469.09,655.31,468.79,651.61,467.48Zm.46,3.78-2.51-1c-.89-.42-2.53-1.51-5.3-4.32a21.44,21.44,0,0,1-2.16-2.6h0a4.51,4.51,0,0,1-.54-.85l.19,0,2.94.82a19.66,19.66,0,0,0,1.76,2.56c-.71-.68-1.39-1.38-2-2l-.61-.63-.5.69c1.82,3.13,4,5.07,6.8,5.94l.42.15a4.24,4.24,0,0,0,.5.18l1.27.47A1.62,1.62,0,0,0,652.07,471.26Zm-.49-1.95-.41-.09-.59-.21a12.32,12.32,0,0,1-3-2.08,31.6,31.6,0,0,0,4,1.57c.83.3,1.83.66,2.6,1C653.58,469.46,652.77,469.41,651.58,469.31Z"/>
    <path d="M654.42,471c-.56-.31-1.54-.56-1.94.67s1.15,2.48,1.15,2.48a1.31,1.31,0,0,0,.66.26c.69.08,1.17,0,1.32-.95A2.18,2.18,0,0,0,654.42,471Z" style="fill: #009b3a"/>
    <path d="M654.52,470.5a1.51,1.51,0,0,0-2.4.88,2.13,2.13,0,0,0,0,1.3,4.11,4.11,0,0,0,1.37,1.9,1.84,1.84,0,0,0,.68.33l.18,0c.7.08,1.45.05,1.67-1.31A2.84,2.84,0,0,0,654.52,470.5Zm.7,2.76c-.09.58-.27.69-1,.61h0a1,1,0,0,1-.47-.19,3,3,0,0,1-.95-1.24.78.78,0,0,1,0-.5.8.8,0,0,1,1-.65,2.17,2.17,0,0,1,.49.19A1.52,1.52,0,0,1,655.22,473.26Z"/>
    <path d="M655.48,466.61c-.9-.2-1.2.71-1,2.64s2.43,1.6,2.44,1.6l.4-.19s.3-.24.14-1.8A2.27,2.27,0,0,0,655.48,466.61Z" style="fill: #009b3a"/>
    <path d="M655.48,466.08a1,1,0,0,0-1.06.35,4.24,4.24,0,0,0-.34,2.82,2.52,2.52,0,0,0,.64,1.45,2.19,2.19,0,0,0,1.17.63,3.17,3.17,0,0,0,1.19,0l.47-.23c.15-.12.46-.57.29-2.25A2.81,2.81,0,0,0,655.48,466.08ZM657,470.2l-.24.12a2.06,2.06,0,0,1-1.66-.42,1.08,1.08,0,0,1-.28-.63c-.13-1.33,0-1.83.16-2s.18-.18.46-.12a1.71,1.71,0,0,1,1.57,1.72A3.7,3.7,0,0,1,657,470.2Z"/>
    <path d="M659.08,468.72h0" style="fill: #009b3a"/>
    <path d="M659.1,468.7l-.06-.51-.13,0-.36.27.29.84h.32l0-.39v-.17l.3-.1Z"/>
    <path d="M659.45,464.51c-1.79-.86-1.84,1.22-1.84,1.22-.49,2.61,1.17,2.94,1.43,3a1.48,1.48,0,0,1,.32-.08c.46-.13.92-1.49.92-1.49A2.71,2.71,0,0,0,659.45,464.51Z" style="fill: #009b3a"/>
    <path d="M659.53,464a1.47,1.47,0,0,0-1.68,0,2.2,2.2,0,0,0-.62,1.49h0a3.86,3.86,0,0,0,.25,2.58,2.24,2.24,0,0,0,1.49,1.13l.09,0,.15,0,.29-.07c.57-.16,1-1.36,1.17-1.84A3.42,3.42,0,0,0,659.53,464Zm-.49,4.69h0Zm.21-.6-.29.07a1.32,1.32,0,0,1-.86-.61,2.83,2.83,0,0,1-.09-1.74,1.37,1.37,0,0,1,.34-.87.72.72,0,0,1,.62-.1,1.26,1.26,0,0,1,.34.12,2,2,0,0,1,.61,1.89A3,3,0,0,1,659.25,468.11Z"/>
    <path d="M653.38,458.92c-.17-.18-.74-1.29-1.38-2.48.78,1.49,2.32,4.67,3.6,7.55-.19-.74-.35-1.34-.39-1.45A16.18,16.18,0,0,0,653.38,458.92Z" style="fill: #009b3a"/>
    <path d="M657.18,464a19,19,0,0,0-1.56-6.87,8.32,8.32,0,0,0-2.67-3.38c-.91-.63-2-1.46-3.13-2.2s-.27.88.17,2.19a21.14,21.14,0,0,1,1.08,3.89,9,9,0,0,0,1.21,2.7c.18.24,1.41,2.22,1.83,3.07s1.8,4.64,1.8,4.64a.43.43,0,0,0,.35-.25,14.87,14.87,0,0,0-.66-3.82c-1.28-2.88-2.82-6.06-3.6-7.55.64,1.19,1.21,2.3,1.38,2.48a16.18,16.18,0,0,1,1.83,3.62c0,.11.2.71.39,1.45.77,1.75,1.46,3.39,1.81,4.49C657.41,468.48,657.3,465.59,657.18,464Z" style="fill: #009b3a"/>
    <path d="M656.07,457.22,656,457a8.93,8.93,0,0,0-2.88-3.68c-.31-.21-.64-.45-1-.7-.67-.49-1.4-1-2.16-1.51-.21-.13-.71-.43-1,0s0,1.1.33,2c.12.3.24.61.34.91a20.43,20.43,0,0,1,1,3.72h0a8.17,8.17,0,0,0,1.24,2.88l.1.17c.17.22,1.38,2.16,1.77,3s1.39,3.53,1.77,4.57l.14.36H656a.71.71,0,0,0,.62-.44,1.31,1.31,0,0,0,.06-.61q.24.6.39,1.08l.76-.09c0-.11-.12-2.92-.24-4.49A19.93,19.93,0,0,0,656.07,457.22Zm-.11,6.63c-.21-.83-.39-1.44-.39-1.44a15.61,15.61,0,0,0-1.8-3.61l-.17-.26c-.12-.16-.64-1.14-1.06-1.92l-.23-.44-.62.51c.73,1.41,2.27,4.57,3.55,7.45.19.77.39,1.68.51,2.38-.44-1.19-1.06-2.79-1.32-3.33-.44-.91-1.71-2.93-1.85-3.12l-.08-.14a6.56,6.56,0,0,1-1-2.27,20.22,20.22,0,0,0-1.12-4c-.1-.32-.24-.66-.36-1-.07-.17-.15-.37-.21-.55.72.46,1.41,1,2,1.43l1,.72a7.79,7.79,0,0,1,2.45,3.1l.13.3a18.62,18.62,0,0,1,1.39,6.35c0,.58.09,1.34.12,2.07C656.63,465.37,656.3,464.62,656,463.85Z"/>
    <path d="M652.94,462.68a21,21,0,0,1-2.2-3.65s-1.78-.91-3.72-1.76c-1.44-.61-4.15-4-4.1-3.23a18.53,18.53,0,0,0,1.13,5,26,26,0,0,0,2.6,5.05c1.17,1.56,1.69,2.59,4.12,3.6s2.65.86,2.65.86,1.26-.54.62-1.39c-3.59-2.87-7-6.11-8.72-9.29,0,0,.3-.32,1.55,1.6a22.55,22.55,0,0,0,1.64,2.27,37,37,0,0,0,3.18,3.2,15.35,15.35,0,0,0,2.43,1.57s.24-.65.47-.68S654.45,464.63,652.94,462.68Z" style="fill: #009b3a"/>
    <path d="M653.19,462.33a20.3,20.3,0,0,1-2.12-3.52l-.09-.2-.15-.08s-1.82-.92-3.75-1.76a12.17,12.17,0,0,1-2.52-2.09c-1.06-1-1.48-1.44-1.82-1.23l-.24.23,0,.32a19.28,19.28,0,0,0,1.2,5.24l.19.44a23.35,23.35,0,0,0,2.48,4.73c.13.18.26.35.38.53a7.88,7.88,0,0,0,3.94,3.24,15,15,0,0,0,2.41.87c.38.09.45,0,.47,0a1.6,1.6,0,0,0,1-1.21,1.43,1.43,0,0,0-.2-.87l.06-.17c.08-.2.21-.43.21-.45l.29-.09,0-.31C655.16,465.19,654.16,463.58,653.19,462.33Zm1.29,3h0Zm-.56.56a12.66,12.66,0,0,1-2-1.35l-.62-.57a29.25,29.25,0,0,1-2.55-2.61,21.82,21.82,0,0,1-1.56-2.17c-1-1.56-1.72-2.14-2.1-1.72l-.26.27.23.43c1.53,2.82,4.43,5.92,8.81,9.4,0,.12-.25.33-.55.49a9,9,0,0,1-2.45-.85,6.94,6.94,0,0,1-3.54-2.91l-.38-.52a22.43,22.43,0,0,1-2.33-4.48c-.06-.14-.13-.29-.19-.44a16.94,16.94,0,0,1-1-4.06c.24.21.53.5.79.75a12.42,12.42,0,0,0,2.79,2.27c1.58.69,3.08,1.43,3.55,1.67A20.55,20.55,0,0,0,652.7,463a10.13,10.13,0,0,1,1.49,2.41A1.41,1.41,0,0,0,653.92,465.85Z"/>
    <path d="M629.25,558.14c-.23-.26-1.71-1.66-2.78-1.47s-9,2.41-9,2.41l-2.22.7c3.06-.25,5.41,2.31,5.41,2.31l8.84-3.51A.91.91,0,0,0,629.25,558.14Z" style="fill: #009b3a"/>
    <path d="M629.43,557.84c-.32-.37-1.87-1.81-3-1.59s-8.7,2.32-9,2.42l-2.22.7c.06.28.12.56.19.84,2.88-.24,5.14,2.17,5.16,2.2l.15.16,9.23-3.67c0-.11,0-.22-.05-.33A1.44,1.44,0,0,0,629.43,557.84Zm-8.75,3.78a8.56,8.56,0,0,0-3.38-2l.28-.09c.08,0,7.94-2.23,9-2.4h0c.8-.15,2,.8,2.41,1.23Z"/>
    <path d="M614.91,560.07a.34.34,0,0,0,0,.44c.44.42.32.52,2.33,1.28s3.33.51,3.68.07S616,559.08,614.91,560.07Z" style="fill: #009b3a"/>
    <path d="M614.69,559.68a.91.91,0,0,0,.09,1.18l.15.15c.36.37.59.56,2.31,1.21a8,8,0,0,0,1.17.35c1.47.32,2.45.08,2.8-.35a.7.7,0,0,0,0-.77C620.62,560.55,615.8,558.63,614.69,559.68Zm.39.44,0,0Zm2.23,1.23c-1.6-.6-1.77-.76-2-1,1-.39,4,.68,5.05,1.35A5.08,5.08,0,0,1,617.31,561.35Z"/>
    <path d="M601.84,516s-.47-9-1.23-11c-.14-.43-.08-1.34-.56-1.46-.93-.29-.93,2.61-1,5.21-1.51,12.92,6.45,24.75,6.45,24.75q-1.63-7.08-3.25-14.16C602.08,518.25,602,517.13,601.84,516Z" style="fill: #009b3a"/>
    <path d="M602.28,516.06c0-.94-.5-9.2-1.27-11.19a1.8,1.8,0,0,1-.06-.33c-.07-.44-.2-1.37-.87-1.53a.68.68,0,0,0-.7.16c-.62.59-.69,2.48-.77,4.66l0,.78c-1.53,13.06,6.49,25.16,6.58,25.29l.72-.45q-1.62-7.05-3.25-14.11C602.51,518.24,602.39,517.15,602.28,516.06Zm-2.83-7.14,0-.84c.06-1.51.14-3.58.51-4a2.28,2.28,0,0,1,.1.46,3.25,3.25,0,0,0,.14.66c.59,1.5,1,8.24,1.17,10.75.13,1.13.25,2.25.37,3.38l2.64,11.49C602.25,526.83,598.38,518.11,599.45,508.92Z"/>
    <path d="M645.35,565.94a7,7,0,0,0-1.77-.69,3,3,0,0,0-2.31.76.78.78,0,0,0,.3,1.18s.35.23.77.54a6.63,6.63,0,0,0,2,.63,2.13,2.13,0,0,0,2.29-.66C646.86,567.22,646,566.29,645.35,565.94Z" style="fill: #009b3a"/>
    <path d="M645.46,565.45a6.59,6.59,0,0,0-1.88-.74,3.23,3.23,0,0,0-2.62.89,1.34,1.34,0,0,0-.23,1.13,1.54,1.54,0,0,0,.73.95l.78.54a6.55,6.55,0,0,0,2.07.67,2.4,2.4,0,0,0,2.63-.82,1.14,1.14,0,0,0,.06-.86A3.48,3.48,0,0,0,645.46,565.45Zm-1.15,2.37a6.22,6.22,0,0,1-1.82-.56l-.78-.55,0,0-.17-.1h0a.45.45,0,0,1,.08-.16,2.75,2.75,0,0,1,2-.63,6.39,6.39,0,0,1,1.66.65,4.7,4.7,0,0,1,1,.88A1.86,1.86,0,0,1,644.31,567.82Z"/>
    <path d="M601.6,464.3a1.82,1.82,0,0,0-.15.27Z" style="fill: #009b3a"/>
    <path d="M592.91,498.32a13.08,13.08,0,0,1-.63-1.42c.16.44.31.86.47,1.25C592.75,498.15,594.09,500.53,592.91,498.32Z" style="fill: #009b3a"/>
    <path d="M633,559s-2.73-2.26-5.32-4.5a38,38,0,0,1-10.37-13.18,70.75,70.75,0,0,0-7.43-13.08c-.77-.92-.89-1.22-1.17-.76s-.08.85.14,1.38c.73,1.75,2.54,5.12,3.19,6.87,1.11,3.1,3.43,6.73,3.4,8.57,0,.26-.67-.33-.67-.33s-5.41-3.63-7.6-12.81c-1.59-6.65-.91-8.35-1.29-11.58-.63-5.74-.76-6.22-2.85-13-.05-.17-1.27-3.06-1.44-2.51a16.36,16.36,0,0,0,.21,3.6c.07,1.1.15,2.19.22,3.28,0,0-.17,7.14-.17,7.58s-1.37,4.62,4.42,13.4c0,0,.09,1.31-.69,0-.55-.93-4.69-6-5.95-13.27s-1.49-14.22-.51-16.9c.89-2.42,2.68-8.41,1.92-14.15-.09-.6-.21-2.34-.49-1.95-.12.19-.64,2.9-1,3.81-.44,1.24-1.12,2.41-1.33,3.29-.41,1.47-2.4,3.46-2,8a39.28,39.28,0,0,0,1.16,8c.16.7.54,2.48.29,2.6s-1-2.26-1-2.26S593,498.8,595.2,491.54s8-13.32,8-13.32,4.66-4.11,5.6-5.1c.37-.38.29-.75.16-.72-1.15.14-10.11.66-13.26,14.15,0,0-.17.56-.4.36s0-.83,0-.83,2-9.63,7.5-13c6-3.69,5.33-3.11,7.33-4.25,1.25-.76,2.39-1.9,3.79-4.68a8.68,8.68,0,0,0,.64-2.31c-.06-.32-.33,0-.46.52,0,0-1.71,3.14-4.27,3.76s-4.65-1.51-7.23,1.71a41.56,41.56,0,0,0-4.63,8.07s-.68,1.22-.82,1.15.13-1.42.13-1.42,3.45-9,6.22-10.34a41.32,41.32,0,0,0,6.82-4c1.91-1.58,5.21-5.74,6.4-7.16a37.78,37.78,0,0,0,2.41-3c.24-.37.8-.86.71-1-.26-.31-1.93.4-1.93.4s-9.13,1.35-14.81,11.51a14.49,14.49,0,0,1-1.23,1.79,3,3,0,0,0-.29.46l-.15.27a7.37,7.37,0,0,0-.47,1.3c-.1-.13.12-.65.47-1.3a1.82,1.82,0,0,1,.15-.27c.94-1.68,2.59-4.08,2.59-4.08l.63-3.71a32.22,32.22,0,0,1,3.29-9.14c.22-.32,1.54-1.8,1.76-2.12.44-.54-.84.38-.61.16,0,0-8.52,6.27-8.52,16.49,0,1.84-.86,3.33-2,5.36-1.39,2.35-1.85,3.88-2.45,7.69-.43,2.73-.78,4.8-.78,4.8s.08,1.48-.28,1.29-.24-1.36-.24-1.36.87-7.44,1.49-9.65,1-3.62,1-3.62-.36-5.8.6-8.73c.81-2.57,2.87-5.73,3.19-6.56a21.41,21.41,0,0,0,1.36-5.6c0-.38-.2-.11-.58,1-.94,2.6-1.72,3.16-3.26,5.47,0,0-4,2.94-5.38,13.93,0,0,0,4.2-.53,10.69a59.76,59.76,0,0,0,.36,12.17c.27,1.72.76,1.84.46,2s.12.05-.33-1.31a23.61,23.61,0,0,1-1-7.26c0-5.89.38-10.54.38-10.54s.29-9.45-2.68-14.38c-.14-.26.52,2,.82,4.24a30.24,30.24,0,0,1-.5,7.68c-.19,1.4-2.17,7.27-1.47,13.32a108,108,0,0,0,3.37,14.44,13.08,13.08,0,0,0,.63,1.42c1.18,2.21-.16-.17-.16-.17-.16-.39-.31-.81-.47-1.25-1.25-3.19-3-9.22-3.18-9.82s-1.92-5.89-3.55-8.21a38.29,38.29,0,0,0-3.17-3.57s-1.26-1.55-.3.35c.76,1.5,1.77,4.11,2.25,5.26,1.22,2.86,2.13,5.54,2.68,7.3.78,2.43,2.58,9.48,2.58,9.48.39,1.49.77,3,1.16,4.48a20.65,20.65,0,0,1,3,3.63,40.2,40.2,0,0,1,4.14,10.2,25.21,25.21,0,0,0,2,4.8s-.28.66-1.47-2.33-2.32-8.46-5.14-13.11c-2.15-3.56-7.92-7.92-7.92-7.92s3.71,9.38,4.63,11.11c1.56,2.79,3.81,6.71,4.39,7.75s4.09,7.53,4.61,8.56a28.88,28.88,0,0,0,1.77,3c.92,1.5,3.65,4.46,3.86,4.88a.87.87,0,0,0,0,.1c0,.08,0,.09,0,0a.65.65,0,0,0-.16-.29c-1.21-1.22-2.65-3-4.14-4.65s-7.23-6.13-11.1-14c-.91-2.29-1.35-3.22-1.66-3.07-.47.23,2.6,14.41,8.93,20.07,0,0,7,5.63,8.53,7.21.85.86,2.56,2.23,3.36,3.25.45.6-.42.38-.47.36-3.71-1.2-9-3-12.3-6.22,0,0-1.41-1.61-.26.48.92,1.62,2.66,5.5,6,8.2a36.43,36.43,0,0,0,10,5.39c1.76.51,8,1.91,9.21,2.69s3.17,2.92,4.31,3.65,4.18,3,4.18,3,.94.89,1.44,1.24,2.91.91,3.08.36S633,559,633,559Z" style="fill: #009b3a"/>
    <path d="M604.63,532.87c0,.09,0,.08,0,0Z" style="fill: #009b3a"/>
    <path d="M633.13,558.7l0-.05s-2.76-2.28-5.31-4.5a37.54,37.54,0,0,1-10.25-13,71.09,71.09,0,0,0-7.51-13.2c-.12-.15-.23-.29-.33-.4-.35-.44-.57-.7-.82-.7a.55.55,0,0,0-.45.34,2,2,0,0,0,.12,1.84c.32.77.84,1.83,1.39,3,.7,1.44,1.43,2.93,1.79,3.88a41.05,41.05,0,0,0,1.66,3.78,20.1,20.1,0,0,1,1.66,4.13l-.21-.17c-.05,0-5.29-3.66-7.4-12.5a34.28,34.28,0,0,1-1.13-8.64,26.63,26.63,0,0,0-.14-2.88c-.63-5.68-.74-6.16-2.88-13.07,0,0-1-2.75-1.65-2.88h0c-.16,0-.29.08-.35.27a14.37,14.37,0,0,0,.18,3.79c.08,1.08.15,2.15.23,3.23,0,.29-.18,7.15-.18,7.57a.93.93,0,0,1,0,.14c-.61,3.84,1.35,8.34,3.47,11.9a30.82,30.82,0,0,1-5-11.84c-1.27-7-1.49-14-.53-16.63.67-1.81,2.77-8.17,1.94-14.4a3.67,3.67,0,0,1,0-.43c-.14-1.21-.24-1.75-.56-1.94-.07-.05-.27-.12-.45.13a9.28,9.28,0,0,0-.4,1.53c-.18.84-.42,1.88-.58,2.35s-.43,1.07-.66,1.58a10.37,10.37,0,0,0-.68,1.73,8.14,8.14,0,0,1-.55,1.25,11.59,11.59,0,0,0-1.48,6.94,40.89,40.89,0,0,0,1.11,7.79l.06.29c.13.57.22,1,.27,1.32-.14-.36-.3-.79-.44-1.18,0-.1-3.57-10.24-1.39-17.27s7.88-13.12,7.92-13.16c.19-.17,4.68-4.13,5.62-5.12a1.08,1.08,0,0,0,.3-1.16c-.09-.23-.28-.37-.43-.33h-.13a13.76,13.76,0,0,0-10.51,7,14,14,0,0,1,4.72-5.52c4.28-2.62,5.17-3.09,6-3.54l1.29-.71c1.11-.68,2.35-1.72,3.91-4.82a8.32,8.32,0,0,0,.67-2.61.6.6,0,0,0-.37-.5h0c-.38-.08-.61.6-.68.81s-1.79,3-4.08,3.59a6.35,6.35,0,0,1-2.42,0c-1.55-.21-3.16-.42-4.94,1.81a42.13,42.13,0,0,0-4.67,8.12l-.11.19c.29-.73,3.52-8.86,6.06-10.12a39.62,39.62,0,0,0,6.86-4.05,57.74,57.74,0,0,0,5.73-6.35l.71-.86.28-.32a25.61,25.61,0,0,0,2.15-2.69,4.14,4.14,0,0,1,.35-.43c.28-.32.44-.5.43-.78V450l-.13-.15c-.12-.15-.4-.49-2.2.27a22.25,22.25,0,0,0-13.07,8.7l.36-2.14c0-.05,1.07-5.51,3.23-9,.1-.16.52-.65.89-1.08s.75-.88.85-1a.61.61,0,0,0,.1-.72c-.2-.37-.45-.22-.93.07l-.16.09,0,.14-.08-.14c-.35.26-8.65,6.48-8.65,16.8,0,1.74-.87,3.23-2,5.13-1.39,2.36-1.88,3.9-2.5,7.84-.06.37-.12.73-.17,1.07a54.74,54.74,0,0,1,1-5.64c.6-2.15,1-3.62,1-3.62l0-.07v-.09c0-.06-.33-5.74.58-8.56a31.17,31.17,0,0,1,2.4-5,14.75,14.75,0,0,0,.8-1.56,21,21,0,0,0,1.37-5.67.65.65,0,0,0-.25-.67c-.26-.16-.47,0-.93,1.27a12.64,12.64,0,0,1-2.08,3.77c-.33.45-.69.95-1.11,1.58-.44.35-4.09,3.57-5.47,14.21,0,0,0,.85-.07,2.32-.19-3.26-.81-8-2.68-11.13l-.19-.31-.22.12c-.25.13-.19.35,0,1.18s.5,2.17.68,3.49a26.69,26.69,0,0,1-.4,6.86c0,.25-.07.48-.1.67s-.15.75-.3,1.36a34.79,34.79,0,0,0-1.17,12.13c0,.18.37,2.25.92,4.95,0-.08,0-.17-.07-.26l-.06-.18c-.14-.54-1.91-6-3.63-8.4a39.81,39.81,0,0,0-3.19-3.6c-.56-.68-.85-.86-1.06-.63s0,.81.32,1.48c.55,1.09,1.25,2.83,1.77,4.09l.46,1.14a76.93,76.93,0,0,1,2.66,7.24c.76,2.39,2.56,9.38,2.57,9.45l.88,3.37a52.51,52.51,0,0,0-4.7-4.06l-.86-.65c.16.39.31.78.46,1.16s3.73,9.42,4.66,11.17c1.07,1.92,2.47,4.36,3.43,6,.44.77.79,1.38,1,1.71.59,1,4.09,7.52,4.59,8.53.37.73.68,1.29.95,1.74l-.41-.4a43.53,43.53,0,0,1-9.75-12.64c-1-2.39-1.49-3.64-2.09-3.32-.22.11-.21.46-.21.57,0,2,3.11,14.84,9.16,20.26.07,0,7,5.63,8.5,7.17.31.32.73.7,1.19,1.11.61.55,1.29,1.17,1.81,1.74-3.1-1-8.77-2.84-12.07-6.08-.6-.69-.91-.86-1.11-.62s0,.87.43,1.62c.13.23.28.5.44.81a23.33,23.33,0,0,0,5.69,7.52A36.38,36.38,0,0,0,611.38,550c.48.14,1.3.34,2.26.59,2.41.6,6.05,1.52,6.87,2.06a21.6,21.6,0,0,1,2.08,1.77,21.47,21.47,0,0,0,2.23,1.88c1,.66,4.12,2.91,4.12,2.91a19.12,19.12,0,0,0,1.48,1.27,4.31,4.31,0,0,0,1.4.53,3.83,3.83,0,0,0,1.73.06.55.55,0,0,0,.36-.37C634.15,560,633.38,559,633.13,558.7Zm-43.24-61.09c-.08-.29-1.82-7.09-2.59-9.51-.44-1.4-1.37-4.22-2.7-7.35l-.46-1.12c-.44-1.08-1-2.51-1.53-3.61a31.7,31.7,0,0,1,2.72,3.11c1.52,2.16,3.24,7.18,3.48,8.05l.05.2c.82,2.76,2.18,7.23,3.19,9.78.15.43.3.83.46,1.21.8,1.43.83,1.48,1.09,1.26s.2-.32-.45-1.52c-.16-.31-.36-.77-.6-1.37a108.22,108.22,0,0,1-3.32-14.28,33.62,33.62,0,0,1,1.15-11.73c.16-.66.27-1.14.32-1.45s0-.4.09-.65a27.12,27.12,0,0,0,.4-7.18c-.07-.53-.16-1.07-.26-1.57,1.68,4.91,1.5,11.55,1.5,11.61s-.39,4.74-.39,10.58a23.74,23.74,0,0,0,1,7.45h0a3.3,3.3,0,0,0,.14.49,2.29,2.29,0,0,1,.08.59v.29l.16.16.22.14.16-.07a.46.46,0,0,0,.26-.32,1.06,1.06,0,0,0-.12-.6,2.37,2.37,0,0,1-.17-.4c0-.14-.08-.29-.14-.46s-.08-.38-.12-.63a59.15,59.15,0,0,1-.35-12c.48-6.42.53-10.66.52-10.66,1.39-10.67,5.22-13.66,5.26-13.69l.06-.07c.43-.64.79-1.14,1.12-1.6a13.6,13.6,0,0,0,1.79-3,21.19,21.19,0,0,1-1,3.19,15,15,0,0,1-.74,1.41,31.83,31.83,0,0,0-2.45,5.17c-.92,2.82-.68,8.06-.63,8.83-.09.33-.46,1.68-1,3.54-.62,2.22-1.46,9.41-1.5,9.72s-.12,1.58.48,1.89a.35.35,0,0,0,.41-.05c.27-.25.28-1.05.26-1.54s.38-2.28.77-4.75c.6-3.81,1.07-5.29,2.4-7.55,1.18-2,2.11-3.59,2.11-5.58,0-7,4.16-12.17,6.62-14.61a33.24,33.24,0,0,0-3.17,9c-.2,1.21-.41,2.41-.61,3.62-1.27,1.83-2.06,3.1-2.55,4l-.16.29c-.75,1.45-.56,1.72-.41,1.91s.25.33.37.49l.14-.59a6.83,6.83,0,0,1,.44-1.24c.06-.12.14-.26.22-.4a1.28,1.28,0,0,1,.17-.22,15.79,15.79,0,0,0,1.26-1.85c5.54-9.92,14.54-11.37,14.68-11.39a8.63,8.63,0,0,1,1-.36l-.17.24a28.6,28.6,0,0,1-2.1,2.61l-.28.33-.71.86a57.49,57.49,0,0,1-5.66,6.27,39.17,39.17,0,0,1-6.77,4c-2.83,1.4-6.21,10.12-6.36,10.51a3.12,3.12,0,0,0-.2,1.66.65.65,0,0,0,.29.38c.18.09.37.17,1.17-1.28a40.91,40.91,0,0,1,4.59-8c1.61-2,2.95-1.84,4.51-1.63a6.83,6.83,0,0,0,2.59,0,7.4,7.4,0,0,0,3.83-3c0,.13-.09.24-.12.3-1.49,2.95-2.65,3.94-3.68,4.57-.58.33-.93.51-1.28.7-.87.46-1.76.93-6.05,3.55C597.23,476,595.2,485,595,485.85a1.6,1.6,0,0,0-.12.94.94.94,0,0,0,.27.47.42.42,0,0,0,.4.1c.27-.08.4-.48.44-.63,2.51-10.74,8.7-13.31,12.46-13.83-1.16,1.15-5.42,4.92-5.48,5s-5.81,6.22-8.09,13.45,1.27,17.53,1.42,18c.77,2.23,1.08,2.43,1.18,2.5l.18.08.11-.05c.32-.14.41-.69-.13-3.06l-.08-.3a40.8,40.8,0,0,1-1.07-7.61,10.74,10.74,0,0,1,1.39-6.43,7.81,7.81,0,0,0,.61-1.41,10.37,10.37,0,0,1,.63-1.59c.24-.53.48-1.07.69-1.65s.41-1.54.61-2.45c0-.16.08-.35.12-.52,0,.17,0,.33,0,.43s0,.35.06.46c.79,6-1.25,12.16-1.89,13.91-1,2.79-.83,9.85.48,17.16l0,.17a19.76,19.76,0,0,1-1.12-3A42,42,0,0,0,594,505.57a20.35,20.35,0,0,0-3-3.64C590.63,500.49,590.26,499.05,589.89,497.61Zm40.76,62.13c-.48-.34-1.39-1.2-1.44-1.24s-3.15-2.29-4.19-3a19.3,19.3,0,0,1-2.13-1.8,22.57,22.57,0,0,0-2.18-1.85c-.85-.55-3.69-1.29-7.05-2.14-.95-.24-1.76-.44-2.24-.58a36.5,36.5,0,0,1-9.92-5.34,22.53,22.53,0,0,1-5.44-7.22l-.21-.4c3.5,3.19,9,5,12,5.92,0,0,.75.28.94-.2a.87.87,0,0,0-.22-.84,19.48,19.48,0,0,0-2.23-2.22c-.44-.4-.85-.77-1.15-1.08-1.55-1.57-8.28-7-8.55-7.22-5.4-4.84-8.5-16.39-8.79-19,.33.59.85,1.9,1.12,2.56a44.49,44.49,0,0,0,10,13c.52.5.94.89,1.21,1.18.66.72,1.32,1.48,1.94,2.21.79.91,1.52,1.76,2.22,2.5a.52.52,0,0,0,.29.41l.24.09.09-.28a.62.62,0,0,0,0-.4l-.06-.2a13.44,13.44,0,0,0-1.21-1.53,34.87,34.87,0,0,1-2.67-3.4c-.09-.13-.17-.26-.25-.39a24.63,24.63,0,0,1-1.5-2.59c-.53-1.06-4-7.51-4.62-8.58-.18-.33-.53-.94-1-1.72-1-1.68-2.35-4.12-3.42-6-.7-1.32-3.09-7.27-4.12-9.85,1.68,1.36,5.35,4.48,6.93,7.11a43.52,43.52,0,0,1,4,9.83c.39,1.23.72,2.29,1.07,3.19.88,2.22,1.33,2.59,1.61,2.66h.09a34,34,0,0,0,5.07,10.37c.18.26.32.45.39.57s.53.89.92.75.33-.77.32-1l0-.15-.08-.13c-2.35-3.56-5-8.68-4.36-12.79a2.52,2.52,0,0,0,0-.29c0-.34.12-5.1.18-7.62-.08-1.11-.16-2.22-.23-3.33a24.65,24.65,0,0,1-.27-2.9,20.07,20.07,0,0,1,.9,1.93c2.11,6.79,2.22,7.27,2.83,12.84a24.35,24.35,0,0,1,.14,2.77,35.17,35.17,0,0,0,1.16,8.89c2.22,9.28,7.57,13,7.76,13.09.69.6.88.49,1,.43l.17-.14v-.23c0-1.26-.84-3-1.83-5.11-.58-1.23-1.19-2.5-1.61-3.68-.38-1-1.12-2.53-1.84-4-.54-1.1-1-2.15-1.36-2.89s-.27-.74-.15-.92l0-.06c.07.07.21.24.34.4l.34.41a70.86,70.86,0,0,1,7.36,13,38.36,38.36,0,0,0,10.49,13.34c2.42,2.1,5,4.24,5.3,4.49a4.45,4.45,0,0,1,.56.88A4.35,4.35,0,0,1,630.65,559.74Z"/>
    <path d="M674.19,494.53l-.63.46a5,5,0,0,0-1.17,1.95,2.33,2.33,0,0,1,1.13.46c.71.5,1,3.36,1,3.36s-.06-1.61-.06-2.4S674.19,494.53,674.19,494.53Z" style="fill: #009b3a"/>
    <path d="M674.58,494.55l-.09-.89-1.18.87a5.39,5.39,0,0,0-1.29,2.14l-.24.78.67,0a2.07,2.07,0,0,1,.94.4,7,7,0,0,1,.76,2.88l.79.07s-.06-1.6-.06-2.37S674.59,494.67,674.58,494.55Zm-.93,2.39h0a3.82,3.82,0,0,0-.64-.35,3.55,3.55,0,0,1,.78-1.11l.09-.07c0,.62.12,1.38.16,2A1.36,1.36,0,0,0,673.65,496.94Z"/>
  </g>
</svg>
