<svg xmlns="http://www.w3.org/2000/svg" viewBox="0 0 1260 1012.04">
  <g>
    <path d="M0,90.08v920C420,738.76,840,1193.28,1260,922V2C840,273.28,420-181.24,0,90.08Z" style="fill: #8d1b3d"/>
    <path d="M369.6,819.82c33.6-14.67,67.2-27.42,100.8-39-33.6-22.5-67.2-43.83-100.8-63.23,33.6-14.67,67.2-27.42,100.8-39-33.6-22.5-67.2-43.83-100.8-63.24,33.6-14.66,67.2-27.41,100.8-39-33.6-22.5-67.2-43.82-100.8-63.23,33.6-14.67,67.2-27.42,100.8-39-33.6-22.5-67.2-43.82-100.8-63.23,33.6-14.67,67.2-27.42,100.8-39-33.6-22.5-67.2-43.83-100.8-63.23,33.6-14.67,67.2-27.42,100.8-39-33.6-22.5-67.2-43.83-100.8-63.23,33.6-14.67,67.2-27.42,100.8-39-33.6-22.51-67.2-43.83-100.8-63.24,33.6-14.67,67.2-27.41,100.8-39C436.8,42.77,403.2,21.45,369.6,2,246.4-6.64,123.2,10.49,0,90.08v920c123.2-79.59,246.4-96.72,369.6-88,33.6-14.67,67.2-27.42,100.8-39C436.8,860.55,403.2,839.22,369.6,819.82Z" style="fill: #fff"/>
  </g>
</svg>
