<svg xmlns="http://www.w3.org/2000/svg" viewBox="0 0 1260 1012.04">
  <g>
    <path d="M0,90.08v920C420,738.76,840,1193.28,1260,922V2C840,273.28,420-181.24,0,90.08Z" style="fill: #36f"/>
    <path d="M0,1010.08C420,738.76,840,1193.28,1260,922,1050,904.29,840,705.16,630,506,420,613.55,210,721.08,0,1010.08Z" style="fill: red"/>
    <path d="M0,515.58v69C210,437.42,420,471.72,630,506,420,448.72,210,391.42,0,515.58Z" style="fill: #ff0"/>
    <path d="M1260,496.47v-69C1050,574.63,840,540.32,630,506,840,563.32,1050,620.63,1260,496.47Z" style="fill: #ff0"/>
    <path d="M1207.5,32.21c-385,195.57-770-167.94-1155,27.63A583.75,583.75,0,0,0,0,90.08v57.5C210,146.08,420,326.05,630,506c210-88.36,420-176.73,630-446.55V2A586.17,586.17,0,0,1,1207.5,32.21Z" style="fill: #ff0"/>
    <path d="M661.5,52.87c-21-4.54-42-9.16-63-13.7L630,506Q645.75,279.46,661.5,52.87Z" style="fill: #ff0"/>
  </g>
</svg>
