<svg xmlns="http://www.w3.org/2000/svg" viewBox="0 0 1260 1012.04">
  <g>
    <path d="M0,90.08v920C420,738.76,840,1193.28,1260,922V2C840,273.28,420-181.24,0,90.08Z" style="fill: #20603d"/>
    <path d="M0,90.08v690C420,508.76,840,963.28,1260,692V2C840,273.28,420-181.24,0,90.08Z" style="fill: #fad201"/>
    <path d="M0,90.08v460C420,278.76,840,733.28,1260,462V2C840,273.28,420-181.24,0,90.08Z" style="fill: #00a1de"/>
    <path d="M1033.08,325.48,1034.25,475q2.74-51.75,5.48-103.53,14.79,46.66,29.58,92.54-9.49-48.49-19-97.31,25.83,38.7,51.65,74.84-21.08-40.37-42.15-82.5c23.4,18.49,46.8,35.44,70.21,50.61q-31.23-28.26-62.46-60.59a530.21,530.21,0,0,0,84,22.33,615.3,615.3,0,0,1-78.5-33.85,475.12,475.12,0,0,0,92-7.2,471.75,471.75,0,0,1-89.19-5A568.83,568.83,0,0,0,1169.7,290,539.48,539.48,0,0,1,1033.08,325.48Z" style="fill: #e5be01"/>
    <path d="M1165.08,253.5a681.23,681.23,0,0,1-92,48.79c26.17-24.34,52.34-50.65,78.5-79.3a1054.63,1054.63,0,0,1-84,70q31.23-44.64,62.46-93.2-35.12,45.66-70.21,86.2,21.08-49.87,42.15-101.46-25.82,49.88-51.65,97.12,9.5-52,19-104.3-14.79,51.84-29.58,102.85-2.74-51-5.48-102L1033.08,328a547.51,547.51,0,0,0,136.62-38,510.37,510.37,0,0,1-93.81,23.28A816.39,816.39,0,0,0,1165.08,253.5Z" style="fill: #e5be01"/>
    <path d="M992.61,336.86a871.27,871.27,0,0,1-89.19,32.71,780,780,0,0,0,92-21.31C969.28,369,943.11,388.14,917,406c28-14.31,56-30.08,84-47.75q-31.23,41-62.46,79c23.41-22.55,46.81-46.2,70.21-71.2q-21.07,48-42.16,94.54,25.83-43.72,51.66-89.5-9.49,51.44-19,102.58,14.79-50,29.58-100.74,2.74,51,5.48,102l1.17-149.79c-45.54,6.79-91.08,8.09-136.62,5.74A731.25,731.25,0,0,0,992.61,336.86Z" style="fill: #e5be01"/>
    <path d="M1028.77,281.72q-14.79-47-29.58-94.64,9.49,49.65,19,99-25.83-40.15-51.66-82.45,21.09,45.39,42.16,89.42c-23.4-20.6-46.8-42.55-70.21-65.61q31.23,38.79,62.46,74.78c-28-13.11-56-28.12-84-44.59,26.16,19.87,52.33,38.46,78.5,55.42a775.51,775.51,0,0,1-92-20.28,867.63,867.63,0,0,0,89.19,32.07,731.39,731.39,0,0,1-93.81,6c45.54,3.2,91.08,2.75,136.62-3.18l-1.17-149.47Q1031.51,230,1028.77,281.72Z" style="fill: #e5be01"/>
    <path d="M1034.25,282.77c-22.1,3.06-40,23.74-40,48s17.92,42.73,40,39.68,40-26.61,40-50.8S1056.35,279.76,1034.25,282.77Z" style="fill: #e5be01"/>
    <path d="M1034.25,280.6c-23.16,3.2-42,24.89-42,50.28s18.84,44.92,42,41.72,42-28,42-53.39S1057.41,277.45,1034.25,280.6Zm0,87.65c-21,2.91-38-14.7-38-37.65s17.06-42.76,38-45.66,38,12.12,38,35.11S1055.22,365.4,1034.25,368.25Z" style="fill: #00a1de"/>
  </g>
</svg>
