<svg xmlns="http://www.w3.org/2000/svg" viewBox="0 0 1260 1012.04">
  <g>
    <path d="M0,90.08v920C420,738.76,840,1193.28,1260,922V2C840,273.28,420-181.24,0,90.08Z" style="fill: #006c35"/>
    <polygon points="678.78 309.59 678.78 309.59 678.78 309.59 678.78 309.59" style="fill: #fff;fill-rule: evenodd"/>
    <path d="M654.25,305.32c11.59,19.57,22.74,39.1,33.5,59.1,1.69,13.52,2.93,26.66,3.73,39.66,1.74,28.48,2.27,63.6.68,92.89,4.81,1.22,12.52-5.91,15.22-18.12,1.76-17.3-.62-53.82-.78-64.27-.12-4.35-.36-9.57-.63-15,12.52,25,24.66,51.15,36.59,79.49,4.35-1.44,3.38-28.43.84-32.67-9.54-24.31-22.73-49.14-26.93-58.54-1.52-3.39-6.69-13-12.81-24.23-1.13-14.4-2.36-26.65-3.15-30.44-2-15.38,5.62,2.85,4.56-6.07-2.46-15.46-10-27.18-18.9-42.76-2.87-5.06-2.81-5.95-7.24-.44-2.65,6-2.61,11.5-1.84,16.8-1.16-2.1-2.6-4.61-4.67-7.78-7.69-8.88-8.16-9.37-14.54-16.65-2-2-5.85-5.23-8.77-5.58h0c-1.76-.2-3.15.62-3.68,3.34a49,49,0,0,0,.69,16C646.9,293.92,651.83,301.2,654.25,305.32Zm24.53,4.27h0c.3,1.51.59,3,.79,4.54.66,3.33,1.23,6.61,1.84,9.88-2.55-4.39-4.66-7.94-5.57-9.24C670.07,306,676,309.87,678.78,309.59Z" style="fill: #fff;fill-rule: evenodd"/>
    <path d="M713.85,362.38c6.91,5,19.92,6,19.37-6.32,0-1.08-.27-4.76-.37-5.77-.7-1.94-2-2.87-3.25-2.88h0c-1.25,0-2.45.94-2.89,2.71-.27,1.16.54,3.29-.47,3.7-.58.53-2.82-.29-2.73-3.65a7.53,7.53,0,0,0-1.15-3.16,2.58,2.58,0,0,0-1.53-.7c-1-.16-.94.13-1.47.91a10.35,10.35,0,0,0-.52,2.71c-.12,1.18-.51,1.5-1.31,1.52-.91-.18-.74,0-1.47-.7-.44-.61-.95-.92-.95-1.8a11.4,11.4,0,0,0-.47-3.09,3.7,3.7,0,0,0-1.68-1.32c-3.78-.75-4,3.9-3.78,5.73C708.89,350.55,708.7,359,713.85,362.38Z" style="fill: #fff;fill-rule: evenodd"/>
    <path d="M657.4,501.67c0,.29,2.71,3.42,5.88,2.07,6.7-1.35,10.88-3.18,20.27-3.42,2.46.46,2.32-6.79-1.58-7.87-5.08-.8-9.77-1.52-14.86,1.77-3.12.12-3.66-2.08-4.35-4.1-.8-4.81,1.78-7.52,1.26-11.12a9.49,9.49,0,0,0-3.78-2.48,4,4,0,0,0-2.31,0c-.16,0-7.07,3.59-9.3,6.67-1.35.83-1.2,1.85-.78,3.91,1.06,2.89,2.92,2.46,5,1.67,2.81.19,4.16,2.5,3.93,6.14A8,8,0,0,0,657.4,501.67Z" style="fill: #fff;fill-rule: evenodd"/>
    <path d="M930.88,353.33c.92-2.55,5.55.36,7.2-2.58,2.41-2.65-12-23.05-17-31.9-1-2.2-1.63-4-2.52-3.94h0c-.7,0-1.54,1.25-2.84,4.2-3.11,5.47-4.19,15.42-2.94,24.32,7.5,55.9,13.08,109.85,14.23,159.14a54.34,54.34,0,0,1-2.84,13c-4.42,6.09-9.31,13.7-13.91,17.23s-14.39,6.56-17.59,9.11c-10.15,5.71-10.2,13.08-2,14,14.15-.77,30.89-1.35,42.42-20.24,3.08-5.28,6.72-19.73,6.88-28.6,1.07-52-.61-102.77-7.72-140.46C931.79,362.86,930.32,354.42,930.88,353.33Z" style="fill: #fff;fill-rule: evenodd"/>
    <polygon points="660.24 476.52 660.24 476.52 660.24 476.52 660.24 476.52" style="fill: #fff;fill-rule: evenodd"/>
    <path d="M718.52,316c2.46,8.05-1.89,14.39.68,15.95,2.36,1.64,5.64-6.68,6.88-14.73,1.42-6.43-3-21-9.14-25.11a7.41,7.41,0,0,0-1.47-.47h0c-3.54-.83-7.46.81-5.93,6C708.65,300.09,717.15,310.81,718.52,316Z" style="fill: #fff;fill-rule: evenodd"/>
    <path d="M775.14,470.9c.17-.77.13-.72,0,0Z" style="fill: #fff;fill-rule: evenodd"/>
    <path d="M820.73,342.42c9.37,13.9,18.94,28.54,28.56,43.63,2,28.78,2.57,55,4.62,83.83-.29,12.2-3.73,28.07-7,29.23,0,0-5,2.55-8.3-1.34-2.41-1.34-12.07-19.19-12.07-19.21-4.95-5.62-8.24-4.67-11.76-1.63-9.7,8.86-14.09,27.39-20.69,39.58-1.7,2.69-6.48,4.44-11.81-2.16-10.95-18.24-7.84-39.74-7.16-43.45,0,.16-.08.35-.14.58-12,12.77-6.71,38.32-4,44.1,4,9.39,7.19,15.53,14.91,21.11,7,6.84,12.52,4.15,15.54.64,7.09-7,7.18-27.51,10.5-31.08,2.34-7.13,8.18-5,11-1.31a33.77,33.77,0,0,0,10.08,10.88c6.6,7.23,14.49,9.33,22.26,4.35,5.31-2.69,8.76-6.59,11.86-14.66,3.34-9.46,1.69-60.82.95-89.38,5,8.17,9.91,16.46,14.8,24.8a641.94,641.94,0,0,1,2.42,73.44c-.51,4.7,15-13,14.86-21.88-.07-7.76,0-14.78,0-21.33,7.5,13.56,14.76,27.23,21.63,41,4.25-2.34,2.79-28.76.1-32.49-7.19-13.43-16.39-28.14-23.52-39.63-1.41-14-3.33-30.59-4.2-35.69-1.36-7.94-2.72-19.83-4.78-29.31-.56-3.68-2.26-15.43-1.73-16.51.84-2.54,4,.37,5.57-2.54,2.33-2.62-8.1-32.92-13.39-41.83-1.9-3.94-5.35-2.92-9.61,2.85-3.95,3.68-2.5,13-1,22,3.92,22.77,7.42,45.88,10.19,68.87-5.13-8.77-11.38-19.43-17.54-29.79-.16-1-.78-4.46-.78-4.51,0-.4-.85-18.41-1.58-22.76-.13-1.74-.5-2.28,1.16-1.89a10.76,10.76,0,0,0,3.09,2.55c1.78.54,3.33-2.6,2.26-5.75q-8.24-17.46-16.48-35.09a5.46,5.46,0,0,0-2.26-1.86h0c-.86-.25-1.79.1-2.84,1.68a12,12,0,0,0-4.09,9.4c.49,7.95,1.77,16.18,2.26,24.13.17,1.08.35,2.15.52,3.23-.77-1.18-1.45-2.1-1.84-2.58-14-17.89,6.46-1.85-2.67-15.45-7.73-10.25-10-13.51-16.59-20-3.32-2.8-5.32-7.57-6.41-.1-.43,6.65-.88,14.35-.47,20.06C815.19,332.24,818.17,338.58,820.73,342.42Z" style="fill: #fff;fill-rule: evenodd"/>
    <path d="M746.09,486.62C735,497.24,719,509.77,701.52,513.36c-1.88,1.92,4.66,13.12,13.12,14.83,14.15,1.06,26.58-5.23,38.12-26,3.08-4.77,8.5-15.22,8.66-24.06,1.08-51.78-2.39-92.81-9.5-131.69-.46-3.75-.15-8,.42-9,.91-1,4,.77,5.67-1.89,2.41-2.26-6.46-26.3-11.5-35.89-1-2.35-1.63-4.19-2.52-4.27h0c-.7-.05-1.54,1-2.84,3.72-3.11,5-5.23,14.31-5,23.48,6.74,52.48,8.81,97.65,13.23,149.66C749.76,477.25,749.09,484.32,746.09,486.62Z" style="fill: #fff;fill-rule: evenodd"/>
    <path d="M889.25,537.76c-1.31-1.73-4.27-1-6.25-1.39-1-.07-4-.83-2.57-3.71a19.35,19.35,0,0,0,2.52-5.09c.93-2.18.11-3.76-3.26-5.26a18.42,18.42,0,0,0-4.15-.76h0c-1.25-.06-2.56,0-4.47,0-2.05.29-2.77,1.21-3.15,3.9.15,4.16,2.46,4.17,4.83,6,1.38,2,2.27,3.84-.1,6.77-2.25,2-3.85,3.15-6.09,5.18-1.06,1.88-1.72,4.86,1.52,6.13,6,2.45,19.84-6.32,19.84-6.55C890.18,541.34,889.44,537.78,889.25,537.76Z" style="fill: #fff;fill-rule: evenodd"/>
    <path d="M902.16,363.55c1.13,3.85-1.7,15.91.63,17.17,2.16,1.38,5.18-8.17,6.3-17.1.63-4.89-2.7-22.29-8.34-25.69a6.47,6.47,0,0,0-1.37-.31h0c-3.23-.31-6.74,2.13-5.35,7.48C893.22,347.93,900.92,358.16,902.16,363.55Z" style="fill: #fff;fill-rule: evenodd"/>
    <path d="M838.73,482.23c2.15,1.54,7.81-5.42,7.61-15,.63-4.85-1.6-23.21-7.24-27a5.1,5.1,0,0,0-2.05-.43h0c-2.95,0-5.76,2.72-4.46,7.77-.81,2.77,4,13.42,5.25,18.89C839,470.41,836.39,480.82,838.73,482.23Z" style="fill: #fff;fill-rule: evenodd"/>
    <path d="M782.21,504.92c4.81.85,10.37-10.35,12.75-21.95,1.31-16.29-.87-26.67-1.26-36.43s-10-90-12-97.64c-2.35-14.25,9.37-.27,8.09-8.55-4.05-10.82-14.16-27.33-17.33-36.73-1.19-2.57-1.33-4.78-2.31-4.77h0c-.58,0-1.44.83-3,2.86-3.95,13.45-5.34,24.75-3.83,33.81C773.46,395.37,783.86,450,782.21,504.92Z" style="fill: #fff;fill-rule: evenodd"/>
    <path d="M843.28,415.16h0a1,1,0,0,0-.57,0c0,.13-32,20.8-32.82,21.42-3.17,2.62-1.58,13.73,0,12.71,2.3,1.44,34.53-18.23,33.92-21.24C845.21,428.3,845.89,416,843.28,415.16Z" style="fill: #fff;fill-rule: evenodd"/>
    <path d="M825.26,413.16c.12-7.11.75-16.49,1.11-22.34.15-2.2.62-4.59,2.57-4.89s5.32,2.83,5.35.52c-.35-4.57-1.18-11.36-3.51-14.82a7.7,7.7,0,0,0-5.2-3.8h0c-3.39-.64-7,1.26-7.93,6.21,0,3,1.24,4.81,1,7.5-.35,1.5-1.82,2.32-5.3,0,.54-.47-2.26-5.22-2.26-5.22-2.72-2.21-6.35-.84-8.72.48a15.18,15.18,0,0,0-.78,11.43C805.49,396.74,818.88,412.19,825.26,413.16Z" style="fill: #fff;fill-rule: evenodd"/>
    <path d="M494.3,302.25c-6.11,2.53-8.47,12.87-4.67,19.81,3.56,6.16,9.18,5.14,9.92,5.28,6,1.9,9.56-10.55,9.56-10.55s.18-3.67-6.93,2c-3,.07-3.4-1.19-4.15-3.17a16.9,16.9,0,0,1,1-10.12c.66-1.93,0-3.35-1.42-3.76h0A4.66,4.66,0,0,0,494.3,302.25Z" style="fill: #fff;fill-rule: evenodd"/>
    <path d="M689.09,435.17l0-.05.05,0,.06-.05v-.11a2,2,0,0,0-.06-.59l-3-2.6c-20-4.32-40-8.79-60-13.24a8.78,8.78,0,0,1-1.63-1.28l-.1-.14,0-.06-.06-.07a.5.5,0,0,0,0-.13l0-.07v-.06s-.05-.06-.05-.07v-.45l.05-.05a.31.31,0,0,1,0-.1,3.37,3.37,0,0,1,1.89-.8c14.33,1,39.79,2,41.48-24.52-.27-14-5.46-24.27-21.11-30.21C635,359,626.82,369.34,628.14,383c-.55,3.49,1.11,10.94-2.26,11-22-2.62-46.13,7.36-46.94,18h-.05l0,.05-.11,0-.1,0-.16,0-.05,0-.1,0h-.06l-.1,0L578,412c-1.44-.74-3.29-3.73-3-7.31-.84-18.9-6.41-41.27-15.12-59.4-3.11-4-4.47-5.71-5.36-6l-.1,0-.16,0h-.05l-.06,0h-.05a1.59,1.59,0,0,0-.27.12l-.15.08a25.52,25.52,0,0,1-3.26,2.55c-3,3.14-3.54,5.63-3.36,13.18.17.83,5.71,18.81,10.4,31.62,3.16,13,6.08,27.68,3.94,40.55-7.41,16.07-22.29,28.8-36.65,34.6-7.32,1.14-13.64-.91-15.33-3l-.05-.06a12.81,12.81,0,0,1-4-10.3v-.06l0,0c12.12-7,26-11.81,36.8-34.58,3.2-8.89,4.18-14.42,1-29.81-1.24-5.75-2.77-10.58-6.2-15.16l.06,0c2.06-.68,7.41,4.72,8.24,2.17-1.27-7.3-5.62-17.63-10.55-23.45-4.32-5.15-9-6.57-13-3.4-4.45,1.86-5.4,11.43-3.26,20.37,2.38,6.87,8.81,9.24,13.39,23.07v.05c.1.83,1.57,10-.73,13.08-1.88,6-25.92,22.17-27.62,23.15l-.16.09,0,.05-.05,0-.05.05h-.11L503,424v-.06l0-.13c-.08-.53,0-1.82,0-4-.16-3.92,1.31-12.45,1.2-14v-.06l-.05-.07v-.06h-.05c-7.95,4.17-10.57,20.94-12,25.78-20.12,11.63-43,19.47-56.13,33.14-6.85,10.51,47.22-6.52,53.5-8.13.06.06.11.14.16.2,1.19,1.65,1.3,6.69,4.88,11.85,5.62,9.33,17.57,16.65,29.19,15.72,19.49-3.92,30.73-16.13,42.16-29.89,1.63-2.26,4.19-3.78,6.56-1.27,7.86,20.91,30.51,39.47,59.8,47.29,6.78-7.55,3.54-12.69.79-15.18-.85-.8-14.57-9.65-16.7-15.94-1.34-5.72,1.92-9.83,8.45-12,18.81,1.61,37.29,2.88,55.18.39.18-6.55,3.72-15.64,6.09-19.41A7,7,0,0,1,689.09,435.17ZM639.6,383.26a1.55,1.55,0,0,1,.21-.53,1.36,1.36,0,0,1,.1-.21l.05,0a3,3,0,0,1,.27-.23,2.42,2.42,0,0,1,1.52-.3h0a9.56,9.56,0,0,1,4.67,2.4c2.39,2,3.87,4.64,3.68,6.26,0,0,0,.13,0,.17s-.1.11-.11.15l0,.16-.05.11,0,.1a1.72,1.72,0,0,1-.32.34c-1.15.92-3.8.18-6.3-1.95s-3.83-4.64-3.67-6.26A.75.75,0,0,1,639.6,383.26Zm-24,60.59c-6.44,1-12.62,1.56-12.65,11.74.84,5.24.67,7.85-.05,8.91l-.21.24-.06,0,0,.05-.05.05,0,0-.11,0a1.6,1.6,0,0,1-.31.1,1.74,1.74,0,0,1-.32,0c-1.53-.09-3.75-2.16-5.41-3.47-4-4-15.1-13.92-16.69-30.48-.23-3.71,2.28-6.34,6.3-5.79h0c.2,0,.37.08.57.12l.11,0c6.68,3.41,16.54,5.75,25.1,8.58C618.69,436,622.14,442.76,615.61,443.85Z" style="fill: #fff;fill-rule: evenodd"/>
    <path d="M337.79,243.32c1,2.92-1.05,12.16,1.15,13.09,2,1,4.82-6.26,5.88-13.06.59-3.72.14-16.6-7.82-19.49a5.93,5.93,0,0,0-1.26-.21h0c-3.05-.19-6.41,1.81-5.09,5.85C329.88,231.66,336.61,239.21,337.79,243.32Z" style="fill: #fff;fill-rule: evenodd"/>
    <path d="M331,324.18c20.17,2.73,9-37.05,16.33-43.95,1.38-3.48,3.94-3.42,4.15,1v33.53c-.19,10.88,6.36,14.45,11.44,17,5.29-.11,8.8.31,10.87,6.1.83,19.39,1.69,38.83,2.52,58.21,0,0,12.22,4.86,12.81-31.51.58-21.35-3.89-39.72-1.26-43.64.09-4.09,4.88-3.85,8.19-1.53,5.27,4.61,7.61,9.85,15.8,8.76,12.47-2.32,20-7.9,20.16-18.37-.73-10.06-1.78-20.18-5.72-30.65.55-1.74-2.39-6.83-1.84-8.57,2.24,4.12,5.63,4.25,6.41.83-2.13-7.94-5.43-15.71-10.77-19.54-4.41-4.8-10.86-4.64-13.23,4-1.09,10.12,3.39,22.71,10.19,33.43,1.44,4,3.46,10.72,2.57,16.41-3.62,1.82-7.21.46-10.24-3.38,0,0-9.92-9.22-9.92-11,2.63-18.19.57-20.52-.89-25.79-1-7.18-4.08-9.72-6.56-14.79-2.49-3.12-5.85-3.42-7.46-.68-4.38,7.95-2.33,26,.84,34.29,2.29,7.56,5.8,12.48,4.15,12.33-1.36,4-4.2,2.81-6.25-2.16-2.92-10.18-3.52-25-3.52-31.69-.87-8.34-1.85-26.1-6.82-31-1.33-2.08-2.89-2.88-4.41-2.79h0c-1.95.11-3.79,1.73-4.67,4a163,163,0,0,0,.47,24c3.41,13.49,4.49,25.23,6.14,38.94.46,18.22-9.59,7.22-9.13-1.76,2.32-11.57,1.69-30.06-.37-34.86-1.64-4.78-3.53-6.05-7.51-5.49-3.16-.38-11.32,9-13.6,25.06,0,0-1.9,8.21-2.73,15.55-1.11,8.29-6.15,14-9.66-1.39-3-11.23-4.89-38.79-10-32.38C316.07,282.32,314.35,320,331,324.18Z" style="fill: #fff;fill-rule: evenodd"/>
    <path d="M393.17,247.41c6.91,4.24,19.87,4.17,19.32-8.08,0-1.08-.22-4.73-.32-5.73-.7-1.88-2-2.71-3.25-2.61h0a3.44,3.44,0,0,0-2.89,2.9c-.27,1.19.49,3.3-.52,3.8-.58.57-2.77-.09-2.68-3.45a6.67,6.67,0,0,0-1.15-3,2.33,2.33,0,0,0-1.53-.56c-1-.05-.94.23-1.47,1.06a10.4,10.4,0,0,0-.53,2.76c-.12,1.19-.56,1.55-1.37,1.65-.9-.09-.69,0-1.42-.55-.43-.56-.94-.81-.94-1.7a10.84,10.84,0,0,0-.47-3,3.27,3.27,0,0,0-1.68-1.19c-3.78-.34-4,4.39-3.84,6.2C388.16,236.18,388,244.58,393.17,247.41Z" style="fill: #fff;fill-rule: evenodd"/>
    <polygon points="785.6 709.4 785.6 709.4 785.6 709.4 785.6 709.4" style="fill: #fff;fill-rule: evenodd"/>
    <path d="M452.92,421.65c7.19-25.13-.14-46,2.26-48.07,0,0,.09,0,.11-.05l.1,0a.49.49,0,0,0,.11,0,1.58,1.58,0,0,1,.31,0c8.87,11.8,21.32,4.72,24.05,1.57,1.17-1.62,4.09-2.29,6.14.41,6.92,6.63,19.05,6.27,21.58-2.85a219.18,219.18,0,0,0,3-28.54c-4.51.69-8.14,1.17-9.61,2.6a2.31,2.31,0,0,0-.68,1.25c-.39,2.71-.76,5.43-1.16,8.13a1.94,1.94,0,0,1-.21.6,2,2,0,0,1-.84.71,3.41,3.41,0,0,1-4.51-2.94c-2.14-11.06-11-14-16.33,1.67-3.61,2.59-10.18,2.15-10.87-2.75.88-11-3.2-13.13-11.39-9.14-2.63-22.39-5.24-43.77-7.87-66.14,3.41.39,6.54,3.56,9.66-.23-3.38-12-10.52-36.47-14.55-39.22l-.1-.08a7.38,7.38,0,0,0-.58-.71l-.26-.27-.26-.21a3.56,3.56,0,0,0-.53-.3,2.58,2.58,0,0,0-1.1-.27h0c-1,0-2.11.47-3.41.62-4.29.91-8.3,4.45-7,12.52,5.07,34.39,8.37,60.58,13.44,95,.78,4.06-2.24,8.84-6.14,7.77-6.63-5.79-8.27-16-19.58-16.93-8.19-.88-17.53,7.92-18.69,17.2-1.37,7.33-1.85,15.38,0,22.08,5.75,8.16,12.65,8.11,18.69,7.12,5-1.65,9.06-6.49,10.81-5,0,0,.05,0,.06,0s0,0,0,.06c1.08,2.27-.11,19.45-23.42,30.41-14.33,5.51-25.73,6.29-31.87-7-3.8-8.27.28-38.5-9.08-32.07-27.68,75.67,64.84,94,75.18,10.94.67-2.33,2.71-4.48,4.15-3.68.63.38,1.21,1.41,1.41,3.19-2.14,76.77-71.57,74.24-83.37,49.93-2.92-5.93-3.8-18.8-4.09-26.51-.53-4.68-1.6-7.42-2.84-8.54-2.81-2.47-6.59,3.4-7.4,13.85-1.17,8.38-.84,10.71-.84,18.82C349.06,486.79,438.4,468.9,452.92,421.65Zm-34.51-57.79s0,0,0,.05a1,1,0,0,0-.05.11c-.7.9-3.14.2-4.89,0a5.31,5.31,0,0,1-4.41-2.86c-.6-2.16,1.24-4,2.05-5.46,0,0,.05,0,.05-.05a2.42,2.42,0,0,1,.37-.42,4.66,4.66,0,0,1,2.89-1.05,5.15,5.15,0,0,1,.68,0h0c1.63.21,3.34,1.3,4.25,3.9A6,6,0,0,1,418.41,363.86Z" style="fill: #fff;fill-rule: evenodd"/>
    <path d="M329.17,436.27c-4.37,9.61-6.18,3-6.57-2.47a136,136,0,0,1,1.26-27.24c.55-3.83.53-5.18.11-5.17h0c-.42,0-1.26,1.36-2.36,2.9-9.88,17.14-10.75,42.89-5.31,50.56,2.9,3.63,7.67,5.27,11.19,4.21,6.2-2.82,8.92-16.48,7.45-21.56C332.87,433.9,331.23,433.29,329.17,436.27Z" style="fill: #fff;fill-rule: evenodd"/>
    <polygon points="792.74 752.14 792.74 752.14 792.74 752.14 792.74 752.14" style="fill: #fff;fill-rule: evenodd"/>
    <path d="M319.81,376.57c17.51-9.05,34.71-17.17,52.5-25.39-2.87-4.89-.17-9-11-10h0C344.75,340.38,320.45,363.46,319.81,376.57Z" style="fill: #fff;fill-rule: evenodd"/>
    <path d="M581.8,282c4-10.91,4-15.9,4.26-20.83-.62-3.93-2.13-6.08-3.84-6.28h0c-1.7-.2-3.6,1.57-5.14,5.46-1.33,2.92-2.94,19.33-2.68,19.38C573.34,284.47,579.16,287.81,581.8,282Z" style="fill: #fff;fill-rule: evenodd"/>
    <path d="M595.74,376c6.91,5.09,23.38,6.55,19.38-6,0-1.08-.27-4.77-.37-5.78-.71-1.95-2-2.91-3.26-2.95h0a3,3,0,0,0-2.88,2.6c-.28,1.15.53,3.35-.48,3.75-.57.51-2.82-.35-2.73-3.7a7.62,7.62,0,0,0-1.15-3.18,2.47,2.47,0,0,0-1.47-.72c-1-.17-1,.1-1.52.87a9.88,9.88,0,0,0-.53,2.71c-.12,1.17-.51,1.49-1.31,1.5-.9-.2-.69,0-1.42-.71-.43-.61-1-.94-1-1.83a11,11,0,0,0-.42-3.08,4,4,0,0,0-1.73-1.35c-3.77-.8-4,3.85-3.78,5.69C590.79,364.06,590.6,372.5,595.74,376Z" style="fill: #fff;fill-rule: evenodd"/>
    <path d="M474.8,393.43c-.15,2.88,7.37,7.7,7.83,14.54,1.07,3-1.61,11.43.63,12.64,2.05,1.28,4.9-5.32,6-11.73.6-3.51-2.58-16.71-8-19.89a9.36,9.36,0,0,0-2.57-.66h0C476.08,388.09,473.76,389.23,474.8,393.43Z" style="fill: #fff;fill-rule: evenodd"/>
    <path d="M845,737.66c-4.13.22-15.7,0-15.7,0-13.4-3.52-23.22-5.14-38.27-8.16,1.39-1.71,3.84-9.14.84-12.46a5.35,5.35,0,0,0-3.57-1.55h-.06l-.1,0s0-.06,0-.06a.83.83,0,0,1-.16-.09,1.81,1.81,0,0,1-.26-.33l-.11-.13c-.76-1.34-1.18-4.38-1.68-5.22a.3.3,0,0,1,0-.07s-.05-.06-.05-.06l-.11-.08h-.1l-.05.05c-10,1.13-9.65,12.5-3.26,18.55-105.16-18.32-266.53-59.09-301.14-62.68-19.36-3.84-80.62-14.22-81.8-13.86,13.14,22.39,32.17,28.87,57.07,33.1,46.71,4.31,263.12,54.82,324.71,63.89-4.38,7.77.4,22.29,3.84,25.36a2.53,2.53,0,0,0,.26.22,2.62,2.62,0,0,0,.42.24.9.9,0,0,0,.16,0c4.07,1.72,5.87-1.22,7.24-3.37,6.62,1.89,43.84,7.7,47.25,6.65l.05-.05c2.31,4,4.59,7.78,9,7.67,7.68-.94,13.72-1.26,13.91-18.3C863.24,766.86,862.46,737.83,845,737.66Zm-7.51,30.26a1.29,1.29,0,0,1-.26.08,1.49,1.49,0,0,1-.21,0,1.52,1.52,0,0,1-.21,0c-5-.76-7.88-1.27-12.86-2.08a3.68,3.68,0,0,0-.11-.82c-1.18-4-9.74-4.94-11.76-2.24l-.1.16a2.26,2.26,0,0,0-.11.22,2.15,2.15,0,0,0-.1.27,2.63,2.63,0,0,0-.06.39,3.41,3.41,0,0,0,0,.46c-6.73-.1-12.79-2.17-19.53-3.52-2-3-1.74-7.85.58-8.65h0s0,0,0,0c15.34,3.27,29.76,4.69,45.1,7.42C840.32,762.14,839.1,767.17,837.52,767.92Z" style="fill: #fff;fill-rule: evenodd"/>
    <path d="M461,300.16H461s0,.06.06.06h.05l.05.07c1.31,1.14,17.48,3.75,19.27,3.19l.05,0s.05,0,.05,0v0c5.56-1.38,31.92-29.59,31.92-29.53-1.36-1.54-2.62-2.72-4-4.26s-1.31-3,0-4.14c6.53-2.94,4.46-12.48,1-17.28a18,18,0,0,0-7.87-3.18h0a12.9,12.9,0,0,0-6.3.76,13.25,13.25,0,0,0-2.05,17c3.51,2.43,7,6.94,4.67,8.65-9.92,9.75-35.76,24.91-37.06,28.31,0,0-.05.08-.05.11a.41.41,0,0,0,0,.11s0,0,0,.06a.35.35,0,0,0,.05.13S461,300.15,461,300.16ZM500.07,255h.31c1.61.11,3.56,2.09,4.52,4.56,1,2.64.5,4.88-1.16,5s-3.81-1.87-4.83-4.5S498.4,255.18,500.07,255Z" style="fill: #fff;fill-rule: evenodd"/>
    <path d="M536.55,333.1c8.06,5.27,13.18-10.5,16.48-28.23,2.26-4.7,4-4.94,5.15-2.05-.3,24.43,1.6,30.28,7.35,38.91,12.82,13.51,23.42,6.34,24.25,5.6l10-8.78c2.22-2.08,5.15-1.6,8.29,1.34,3.05,3.7,2.66,8.84,9.19,13.9,5.49,3.6,17.23,4.34,20-.25,3.66-6.08,4.55-8.25,6.25-10.48,2.61-3.25,7.08-.59,7.09.62-.42,2-3,3.56-1.26,7.77,3.1,3.23,3.83,1.75,5.67,1.58,6.5-2,11.39-16.4,11.39-16.4.28-5.7-2.71-5.91-4.62-5.14-2.5,1.14-2.65,1.67-5.15,2.8-3.18-.17-9.34.79-12.39-5.05-3.11-6.89-3.13-15.57-5.51-22.36,0-.45-4.16-10.77-.31-10.53,1.94.82,6.11,2.91,6.77-.77,2-3.28-4.39-15.24-8.77-21.52-3.8-5.39-9-7.09-14.12-3.54-3.56,2.81-3,6.93-3.73,10.58-.91,4.16-.73,9.6,3.31,16.24,3.55,8.45,10,19.69,7.87,33.11,0,0-3.75,5.8-10.34,3.5-2.75-1.26-7.23-3.53-9.61-23.31-1.8-15,.45-34.9-5.2-45.69-1.27-3.88-2.37-7.62-4.2-7.75h0c-1.09-.07-2.44,1.18-4.3,4.48-1.34,3.59-7.1,8.22-2.94,21.21,3.4,8.41,4.8,21.18,3.25,34.74-2.35,3.45-2.89,4.69-6,8-4.34,4.19-9,1.87-12.65-.8-3.37-3.2-6-5-7.56-13.27.27-12.54,1-33-1.16-37.85-3.1-7.43-8.21-6.06-10.39-4.47-10.5,8.35-15.68,25.06-18.85,38.54-2.91,9.71-6,6.12-8.19,1.54-5.3-6.49-5.67-49.11-12.08-43.35C509.23,296.08,525.37,334.28,536.55,333.1Z" style="fill: #fff;fill-rule: evenodd"/>
    <path d="M532.51,268.53c1.94,3.46,3.89,3.55,7.82,2.08,2.26-1.37,3-2.38,3.78-5.28.93-4.93-4.92,1.43-5.67-4.42-1.31-5.55,2.43-7,6-11.38.08-2.4.12-4.36-1.31-4.7h0a5.14,5.14,0,0,0-3,.67c-3.07,1.63-9.16,7.38-9.35,15.33C530.59,265.3,529.81,265.13,532.51,268.53Z" style="fill: #fff;fill-rule: evenodd"/>
  </g>
</svg>
