<svg xmlns="http://www.w3.org/2000/svg" viewBox="0 0 1260 1012.04">
  <g>
    <path d="M0,90.08v920C420,432.09,840,580,1260,2,840,273.28,420-181.24,0,90.08Z" style="fill: #0051ba"/>
    <path d="M0,1010.08C420,738.76,840,1193.28,1260,922V2C840,580,420,432.09,0,1010.08Z" style="fill: #215b33"/>
    <path d="M0,1010.08C420,432.09,840,580,1260,2"/>
    <path d="M1260,2a579.63,579.63,0,0,1-63.39,35.62C797.74,520.62,398.87,414.89,0,963.79v46.29a579.74,579.74,0,0,1,63.39-35.63C462.26,491.42,861.13,597.16,1260,48.25Z" style="fill: #fcd116"/>
    <path d="M201,281.24q15,4.38,30,9.57-5.25-50.19-10.49-100.27Q210.77,235.72,201,281.24Z" style="fill: #fff"/>
    <path d="M210,293.89q15-9.58,30-18.38-9.74-42.64-19.47-85Q215.25,242.17,210,293.89Z" style="fill: #fff"/>
    <path d="M217.42,300.57q31.5-27.79,63-52.22a613.37,613.37,0,0,0-63,6.22Z" style="fill: #fff"/>
    <path d="M229.45,306.94q25.49-30.37,51-58.59a710,710,0,0,0-69.49,24.11Q220.2,289.55,229.45,306.94Z" style="fill: #fff"/>
    <path d="M211.55,309.58q9.25-20.13,18.52-39.93a531.93,531.93,0,0,0-69.49-3.38Q186.07,286.66,211.55,309.58Z" style="fill: #fff"/>
    <path d="M223.58,299.67v-46a557.26,557.26,0,0,0-63,12.6C181.58,276.11,202.58,287.31,223.58,299.67Z" style="fill: #fff"/>
    <path d="M208.1,285.65q24.72,32.46,49.43,67.06-9.73-42.93-19.47-85.55Q223.09,276,208.1,285.65Z" style="fill: #fff"/>
    <path d="M206.56,305.12q25.49,22.65,51,47.59Q241.3,308.43,225.08,265,215.83,284.92,206.56,305.12Z" style="fill: #fff"/>
    <path d="M183.47,363.67q25.49-32.54,51-62.65-9.25-17.47-18.52-34.65Q199.69,314.54,183.47,363.67Z" style="fill: #fff"/>
    <path d="M183.47,363.67q24.71-42,49.43-81.67-15-5.24-30-9.67Q193.21,317.83,183.47,363.67Z" style="fill: #fff"/>
    <path d="M76.66,164.12q15,.39,30,1.84-5.25-48.87-10.49-97.62Q86.4,116,76.66,164.12Z" style="fill: #fff"/>
    <path d="M85.64,174.4q15-13.5,30-26-9.73-40.26-19.47-80.1Q90.88,121.31,85.64,174.4Z" style="fill: #fff"/>
    <path d="M93.05,179.16q31.5-35.9,63-67.34a535.55,535.55,0,0,0-63,21.34Z" style="fill: #fff"/>
    <path d="M105.08,182.48q25.49-36.76,51-70.66a706.08,706.08,0,0,0-69.49,40.91Q95.83,167.4,105.08,182.48Z" style="fill: #fff"/>
    <path d="M87.18,189.68Q96.43,167.15,105.7,145a441.84,441.84,0,0,0-69.49,15.32Q61.7,173.39,87.18,189.68Z" style="fill: #fff"/>
    <path d="M99.21,176.68v-46a551.89,551.89,0,0,0-63,29.67A450.72,450.72,0,0,1,99.21,176.68Z" style="fill: #fff"/>
    <path d="M83.74,166.66q24.71,26,49.42,54.77-9.73-40.65-19.47-80.87Q98.72,153.1,83.74,166.66Z" style="fill: #fff"/>
    <path d="M82.19,186.53q25.49,15.94,51,34.9Q116.93,181,100.71,141.66,91.46,163.91,82.19,186.53Z" style="fill: #fff"/>
    <path d="M59.1,251.3q25.49-39.56,51-76-9.25-15.18-18.52-30Q75.33,197.7,59.1,251.3Z" style="fill: #fff"/>
    <path d="M59.1,251.3q24.72-48.78,49.43-94.62-15-1.52-30-2Q68.84,202.78,59.1,251.3Z" style="fill: #fff"/>
    <path d="M325.4,427.26q15,7.35,30,15.27-5.25-51.13-10.49-102.21Q335.14,383.67,325.4,427.26Z" style="fill: #fff"/>
    <path d="M334.38,441.67q15-6.69,30-12.82-9.73-44.39-19.47-88.53Q339.62,391,334.38,441.67Z" style="fill: #fff"/>
    <path d="M341.79,449.77c21-14.55,42-28.27,63-41.34-21-2.26-42-3.88-63-4.66Z" style="fill: #fff"/>
    <path d="M353.82,458.39q25.49-25.72,51-50c-23.17,3.12-46.33,7-69.49,12Q344.56,439.29,353.82,458.39Z" style="fill: #fff"/>
    <path d="M335.92,457.65q9.25-18.33,18.52-36.45c-23.17-6.84-46.33-12.72-69.49-17.39Q310.44,429.8,335.92,457.65Z" style="fill: #fff"/>
    <path d="M348,450V404c-21-.94-42-1.07-63-.21C306,418.28,327,433.75,348,450Z" style="fill: #fff"/>
    <path d="M332.47,433.06q24.72,37.26,49.43,76-9.73-44.56-19.47-88.93Q347.45,426.34,332.47,433.06Z" style="fill: #fff"/>
    <path d="M330.93,452.22q25.49,27.64,51,56.87-16.23-47-32.45-93.43Q340.18,433.84,330.93,452.22Z" style="fill: #fff"/>
    <path d="M307.84,506.12q25.49-27.24,51-52.75-9.27-19.15-18.52-38.09Q324.06,460.36,307.84,506.12Z" style="fill: #fff"/>
    <path d="M307.84,506.12q24.71-36.84,49.42-72.05-15-7.95-29.95-15.34Q317.58,462.29,307.84,506.12Z" style="fill: #fff"/>
    <path d="M334.38,130.34q15-6.69,30-12.82Q354.61,73.14,344.87,29,339.62,79.63,334.38,130.34Z" style="fill: #fff"/>
    <path d="M325.4,115.93q15,7.35,30,15.27Q350.11,80.07,344.87,29,335.14,72.34,325.4,115.93Z" style="fill: #fff"/>
    <path d="M348,138.69v-46c-21-.94-42-1.07-63-.21C306,107,327,122.42,348,138.69Z" style="fill: #fff"/>
    <path d="M335.92,146.32q9.25-18.33,18.52-36.45C331.27,103,308.11,97.15,285,92.48Q310.44,118.48,335.92,146.32Z" style="fill: #fff"/>
    <path d="M353.82,147.05q25.49-25.71,51-50c-23.17,3.12-46.33,7-69.49,12Q344.56,128,353.82,147.05Z" style="fill: #fff"/>
    <path d="M341.79,138.44c21-14.55,42-28.27,63-41.34-21-2.26-42-3.88-63-4.66Z" style="fill: #fff"/>
    <path d="M307.84,194.79q24.71-36.84,49.42-72-15-8-29.95-15.34Q317.58,151,307.84,194.79Z" style="fill: #fff"/>
    <path d="M307.84,194.79q25.49-27.24,51-52.75-9.27-19.15-18.52-38.09Q324.06,149,307.84,194.79Z" style="fill: #fff"/>
    <path d="M330.93,140.89q25.49,27.65,51,56.87-16.23-47-32.45-93.43Q340.18,122.51,330.93,140.89Z" style="fill: #fff"/>
    <path d="M332.47,121.73q24.72,37.26,49.43,76-9.73-44.56-19.47-88.93Q347.45,115,332.47,121.73Z" style="fill: #fff"/>
    <path d="M85.64,485.73q15-13.5,30-26-9.73-40.26-19.47-80.1Q90.88,432.64,85.64,485.73Z" style="fill: #fff"/>
    <path d="M76.66,475.45q15,.39,30,1.84-5.25-48.87-10.49-97.62Q86.4,427.34,76.66,475.45Z" style="fill: #fff"/>
    <path d="M99.21,488V442a551.89,551.89,0,0,0-63,29.67A452.11,452.11,0,0,1,99.21,488Z" style="fill: #fff"/>
    <path d="M87.18,501q9.25-22.53,18.52-44.65a441.84,441.84,0,0,0-69.49,15.32Q61.7,484.72,87.18,501Z" style="fill: #fff"/>
    <path d="M105.08,493.81q25.49-36.76,51-70.66a706.08,706.08,0,0,0-69.49,40.91Q95.83,478.73,105.08,493.81Z" style="fill: #fff"/>
    <path d="M93.05,490.49q31.5-35.89,63-67.34a535.55,535.55,0,0,0-63,21.34Z" style="fill: #fff"/>
    <path d="M59.1,562.63Q83.82,513.85,108.53,468q-15-1.51-30-2Q68.84,514.11,59.1,562.63Z" style="fill: #fff"/>
    <path d="M59.1,562.63q25.49-39.55,51-76-9.25-15.18-18.52-30Q75.33,509,59.1,562.63Z" style="fill: #fff"/>
    <path d="M82.19,497.86q25.49,15.95,51,34.9Q116.93,492.29,100.71,453,91.46,475.24,82.19,497.86Z" style="fill: #fff"/>
    <path d="M83.74,478q24.71,26,49.42,54.77-9.73-40.65-19.47-80.87Q98.72,464.43,83.74,478Z" style="fill: #fff"/>
  </g>
</svg>
