<svg xmlns="http://www.w3.org/2000/svg" viewBox="0 0 1260 1012.04">
  <g>
    <path d="M0,90.08v920C420,738.76,840,1193.28,1260,922V2C840,273.28,420-181.24,0,90.08Z" style="fill: #d62828"/>
    <path d="M0,90.08v920c280-487.55,560-652.5,840-925C560,50.92,280-90.8,0,90.08Z" style="fill: #fcd856"/>
    <path d="M0,90.08v920C140,613,280,296.51,420,6.94,280-10.15,140-.36,0,90.08Z" style="fill: #003f87"/>
    <path d="M1260,922V308.63C840,784.39,420,534.32,0,1010.08,420,738.76,840,1193.28,1260,922Z" style="fill: #fff"/>
    <path d="M1260,922V615.3C840,988.84,420,636.54,0,1010.08,420,738.76,840,1193.28,1260,922Z" style="fill: #007a3d"/>
  </g>
</svg>
