<svg xmlns="http://www.w3.org/2000/svg" viewBox="0 0 1260 1012.04">
  <g>
    <path d="M0,90.08v460C420,278.76,840,733.28,1260,462V2C840,273.28,420-181.24,0,90.08Z" style="fill: #ed2939"/>
    <path d="M0,1010.08C420,738.76,840,1193.28,1260,922V462C840,733.28,420,278.76,0,550.08Z" style="fill: #fff"/>
    <path d="M274.22,58.13c-87.23,4-157.94,108.71-157.94,204.23S187,408.1,274.22,404.09c87.22-4.67,157.94-69.41,157.94-165.6C432.16,143.61,361.44,53.46,274.22,58.13Z" style="fill: #fff"/>
    <path d="M332.53,66.77C250.1,63.86,183.27,153,183.27,243.29S250.1,390.81,332.53,393.72c82.43,2.42,149.26-56.86,149.26-147.66C481.79,156.3,415,69.2,332.53,66.77Z" style="fill: #ed2939"/>
    <path d="M280.46,188q-4.08-14.35-8.16-28.66-4.07,14.81-8.15,29.65-13.27.94-26.55,2.46,10.76,7.7,21.52,15.79-4.12,14.86-8.26,29.79,10.72-10,21.45-19.69,10.72,8.35,21.46,17.08l-8.27-28.79q10.75-9.39,21.52-18.45Q293.73,187.38,280.46,188Z" style="fill: #fff"/>
    <path d="M448.8,198.07q-4.07-15.15-8.15-30.27-4.08,14-8.15,28-13.28-1.78-26.56-3.28,10.77,10.14,21.53,20.48-4.14,14-8.26,28,10.73-7.72,21.45-15.23,10.72,10.51,21.45,21.21-4.12-15.18-8.26-30.33,10.75-7.35,21.51-14.52Q462.09,200,448.8,198.07Z" style="fill: #fff"/>
    <path d="M364.72,120.54q-4.08-14.82-8.16-29.6-4.08,14.32-8.15,28.7-13.28-.63-26.56-.82,10.77,9.08,21.53,18.46-4.14,14.37-8.26,28.79,10.72-8.72,21.45-17.13,10.73,9.6,21.45,19.48-4.12-14.86-8.26-29.69,10.75-8.21,21.52-16.15Q378,121.37,364.72,120.54Z" style="fill: #fff"/>
    <path d="M312,296.75q-4.08-14.55-8.16-29.05L295.65,297q-13.27.3-26.56,1.14,10.77,8.25,21.53,16.86-4.12,14.67-8.26,29.39,10.72-9.5,21.45-18.66,10.72,8.87,21.46,18.06-4.14-14.61-8.27-29.15,10.75-8.91,21.52-17.52Q325.23,296.69,312,296.75Z" style="fill: #fff"/>
    <path d="M417.3,303.36q-4.07-15-8.15-30.05-4.08,14.1-8.15,28.23-13.28-1.41-26.56-2.46,10.77,9.78,21.53,19.8-4.14,14.13-8.26,28.29,10.73-8.06,21.45-15.86,10.72,10.21,21.45,20.64-4.12-15.07-8.26-30.12,10.75-7.63,21.51-15.05Q430.59,304.92,417.3,303.36Z" style="fill: #fff"/>
  </g>
</svg>
