<svg xmlns="http://www.w3.org/2000/svg" viewBox="0 0 1260 1012.04">
  <g>
    <path d="M1260,2V922C840,1193.28,420,738.76,0,1010.08H0C420,738.76,840,1193.28,1260,922V2Z" style="fill: #00247d"/>
    <path d="M1260,2C840,273.28,420-181.24,0,90.08v920C420,738.76,840,1193.28,1260,922Z" style="fill: #00247d"/>
    <path d="M366.56,137.14V1.83a728.28,728.28,0,0,0-104.66.1V137.24C199.94,96.9,138,65.79,76,48.57A575,575,0,0,0,0,90.08V146c44.29,3.85,88.58,15.77,132.87,34.05C88.58,194.19,44.29,214.73,0,243.35V396.74c44.29-28.61,88.58-49.15,132.87-63.32C88.58,380,44.29,433,0,494.11V550a573.76,573.76,0,0,1,76-41.5c62-73,123.92-132.1,185.88-182V461.89a728.28,728.28,0,0,1,104.66-.11V326.46c62,49.26,123.92,105.12,185.88,162.94,25.56,5.24,51.12,10.81,76.68,16.38V449.86c-44.51-42.16-89-84.32-133.53-124.73,44.51,8,89,17.65,133.53,27.36V199.1c-44.51-9.71-89-19.4-133.53-27.36,44.51-24.5,89-47.26,133.53-70V45.83C603.56,40.25,578,34.68,552.44,29.44,490.48,61.85,428.52,96.19,366.56,137.14Z" style="fill: #fff"/>
    <path d="M369.68,155.43c16.75,1.18,33.51,2.84,50.26,4.88C489.67,117.7,559.39,81.75,629.12,45.83q-24.74-5.4-49.46-10.69C509.67,71.38,439.67,109.24,369.68,155.43Z" style="fill: #cf142b"/>
    <path d="M419.72,313.56c69.8,59.61,139.6,125.9,209.4,192.22V469.24c-53-50.47-105.94-100.93-158.91-148.45Q445,316.68,419.72,313.56Z" style="fill: #cf142b"/>
    <path d="M0,126.7c53.23,4.54,106.45,20.73,159.68,45.62q25.35-6.67,50.71-10.82C140.26,122,70.13,95.9,0,90.08Z" style="fill: #cf142b"/>
    <path d="M0,550q25.13-16.23,50.24-29.09c70-87.05,140-155.55,210-212.22q-25.14,2-50.27,6.13C140,377.56,70,453.72,0,550Z" style="fill: #cf142b"/>
    <path d="M345.7.69c-20.51-.86-41-.95-61.51-.08V185.7C189.46,189.71,94.73,214,0,275.17V365c94.73-61.19,189.46-85.46,284.19-89.47v185c20.5-.86,41-.78,61.51.08v-185c94.47,4,188.94,24.54,283.42,45.14V230.92c-94.48-20.6-188.95-41.15-283.42-45.13Z" style="fill: #cf142b"/>
    <path d="M945,756.22c92.49-55.48,103.76-175.46,104-278.32-69.3,11.37-138.61,9.59-207.92,1.2C841.24,582.28,852.51,700.3,945,756.22Z" style="fill: #8fc5ff"/>
    <path d="M838.83,478.84c.09,45.51,2.16,104.69,17.56,157.51,16.44,56.21,45.16,97.9,87.8,122.87l.81.47.82-.47c42.64-24.7,71.36-66.75,87.79-123.51,8.09-28,17.39-71.45,17.56-158.17,0-1.08,0-2.16,0-3.23-70.79,11.9-141.57,10-212.36,1.29Zm207.92,2.64c-.46,105.4-13.59,218-101.75,271.27C856.84,699,843.71,588.25,843.25,482.59,911.09,490.66,978.92,492.33,1046.75,481.48Z" style="fill: #fff"/>
    <path d="M1018.22,649.25c-2.28,1.78-88.68-7.47-98.91-15.06-8.91-4.88-42.87,1.76-58.73,8.19,14.79,46.27,40.41,88,84.42,113.84,41.93-24.3,67.17-63.74,82.25-107.76A72.25,72.25,0,0,1,1018.22,649.25Z" style="fill: #366cc9"/>
    <path d="M914.76,605.12c-1.73-5.5-1.71-6.88-3.64-10.29a6.75,6.75,0,0,1-1.25-3.54,12.31,12.31,0,0,0-1.93-6.24c-3.44-4.78-4.78-19.68-6.14-30.71-.78-6.33-.23-21.1-2-23.53-3.08-3.84-4.55-3.28-6.6-4.58-1.48-3.09-2.16-9.11-3.52-14.52-2.16.34-3.64,3.55-5.12,4.6s-1.71,1-1.71,4-1.14,7-3.18,11.54-5.46,2.86-8.3,9.57c-6.25-11.71-6.37-14.89-6.82-18.09s-1.48-4-5-8.8c0-1.33-.46-6.69-.12-9.64-2.61-3.43-4.55-3.14-5.79-1s-2.16,5.57-4.1,6.68A131.8,131.8,0,0,0,842,523.81c2.6,58,11.53,116.74,38.38,164.92a9.83,9.83,0,0,1,5.17.18c1.25.42,1.48.61,1.94-1.35s1.47-1.39,2.27-.34,2.84.7,3.64-.91,1-1.42,1.82-.21,1.13.9,1.93.62a5.92,5.92,0,0,0,2.84-3.31c.69-1.78,1.7-2.39,2.27-1.36s1.14,1.56,1.94,1.44,1,1,.91,2.53.34,1.85,2.27-.37c1.71,2.57,2.27,1.6,2.27-1s-.45-12.48-1.13-13.84-1.37-5.22-1.48-8.21c-.21-5.66-.23-6-4.89-9.73,0-2-.34-2.84-3.64-2.71a6.79,6.79,0,0,0-1.13-3.56c-.69-.87-.8-1.21-.46-3.51a3.07,3.07,0,0,0,3.64-1.6c.79-1.62,3.41-1.13,5-.06s3.64,1.36,6.71.83a41.68,41.68,0,0,1,5.12-4.27c2-1.59,2.61-2.23,2.72-4.55a48.3,48.3,0,0,0-2.27-16C916.69,614.17,916.35,610.17,914.76,605.12Z" style="fill: #5d3100"/>
    <path d="M1048.23,367.11c-34.56-16.55-80-19-103.23-19.34-23.19.26-68.67,2.39-103.23,20.5.68,33.53-.81,71.51-.73,110.83,69.31,8.39,138.62,10.17,207.92-1.2C1049,438.58,1047.55,400.66,1048.23,367.11Z" style="fill: #ff0"/>
    <path d="M1050.37,366.85c0-.7,0-1.4,0-2.1l-1.31-.64c-39-18.55-89.55-19.1-104.1-19.47-14.55.36-65,.35-104.1,20.67l-1.31.7c0,.7,0,1.4,0,2.1.39,19,.07,39.38-.26,60.94-.25,16.15-.51,32.85-.48,49.79,0,1,0,2.08,0,3.13,70.73,8.7,141.47,10.58,212.2-1.3,0-1,0-2.08,0-3.12,0-17-.23-33.67-.48-49.84C1050.3,406.2,1050,385.88,1050.37,366.85ZM843.18,476.22c0-15.79.24-31.4.48-46.52.32-20.84.62-40.57.3-59.14,11.32-6,46.65-20,101-19.66,54.4.07,89.72,13.12,101,18.58-.33,18.57,0,38.27.3,59.07.23,15.13.47,30.75.47,46.56C978.94,486,911.06,484.31,843.18,476.22Z" style="fill: #fff"/>
    <path d="M905.78,662.65c-.11-2.5-.46-3.18-1.25-3.72a3.5,3.5,0,0,1-1.59-2.58c-.12-1.17-.8-1.62-1.31-1.65s-1-.64-1.25-1.48-.57-1-1.14-1.07-1.48.33-1.76-1a20.46,20.46,0,0,0-1.25-4.4c-.57-1.11-1.08-1.48-1.14-5.21s-.11-4.25-.91-5.63a63.37,63.37,0,0,1-2.73-6.49c-.56-1.54-1.13-3.07-1.13.09s0,4.81,1.36,6.06,1.71,1.28,1.14,2.91,0,2.82.22,4,.69,2.37,0,3.48-1.36.74-1.25-1.07a14.84,14.84,0,0,0-.9-5.55c-.57-1.53-1-2.56-1.71-1.78s-1.25-.26-.79-.89a1.31,1.31,0,0,0,0-1.66c-.35-.52-.46-1,.11-2s.57-1.45.23-3.79-2.85-14.16-4-16.91-1-4.73.45-2,2.73,5.19,2.84,7.35a11,11,0,0,0,.91,4.39c.46.86.8.55,1-1.26s1.13-1.08-.46-4.67A60.08,60.08,0,0,1,883.84,596c-1.14-10.55-1.6-17.56-2.73-20.47s-1.48-3.61-1.59-6.28,0-5.31-.8-7.37-1.36-2.44-1.48.54.12,9.64.69,10.85.22,4.17.11,5.82-1.9,3.15,1.82,6.8a4.51,4.51,0,0,1,1,4.4c-.22,1.14-.45,1-1.25-.93a21.53,21.53,0,0,0-2.39-4.52c-.79-1.07-.91-1.74-.79-4.06s.45-3.94,0-4.81-.69-.22-.91,1.08-.46,4.94-.91,5.9-.69.27-1-1.92.12-5.46.91-9.21a35.4,35.4,0,0,0,.57-12.74c-.68-5-.34-6.5-3-10.89s-5.56-8.65-6.82-13.92-1.47-9.78-2.84-12.24-3.29-5.65-4.54-6.61c0-4,0-5.81,0-7.63s-.57-3.05-2-2.88-2.39,1.9-3.3,4.29-1.59,1.15-2.84,5.33-3.07,6.12-3.07,10.77c1.14,2.79,3.18,7.59,3.41,10.1.8-2.32,1.42-3.32,1.59-4.8s1.37-4.25.91-5.88-.79-2.91.46-1.61,1,3.29.73,6.23c-.73,8.05-3.06,9.46-3.4,14.9,3.35,11.91.85,15.79,4.48,27.47.57.56,2.09-.16,2.55.05,1.93-1.79,3.37-.92,6.09.19a7.19,7.19,0,0,1,4.21,6.55c0,2.49,0,3.15.57,4.7s1.71,4,1.48,5.62a6.27,6.27,0,0,0,.57,3.54c.34.86-.11,2.64-.46,3.77s-.22,2.64,1.14,5.26,4.55,13.36,4.55,19.5.22,9,1.93,10.29,2.28,2.35,2,5,.79,16.5,1,18.68.8,1.73,1.48,2.94,1.13,2.58,3.41,2.75,4.47-.11,6,.33a49.33,49.33,0,0,1,3.75,13.53c.46,3.52.42,8.28,1.21,8.33s1.59.27,1.37-4.07-.46-5-1.48-7.23-1.59-3.26-1-4.55a10.86,10.86,0,0,0,.45-5.12c-.23-1.67-.57-4.18,1.37-.74s2.5,4.31,3.07,5.5a12.6,12.6,0,0,1,.68,5.36c-.11,2,.11,2.82.9,1.87s1.82.77,1.37,2.9.11,3.5,1.48,4.24a3.59,3.59,0,0,1,2.27,2.77c.34,1.52,1.48,2.23,1.48-.75a64,64,0,0,0-1.36-11.36A51.56,51.56,0,0,1,905.78,662.65Z" style="fill: #cf6200"/>
    <path d="M893.73,676.37c0-1.66-1.37-7.72-1.94-9.92s-1.36-3.25-2.15-3-.8.61-2.28-.16a6.06,6.06,0,0,0-3.3-.92c-1.59-.12-1.7-.79-2.61-2.2s-1.36-1.77-2.84-1.89-3.19-2.59-3.76-5.13.12-2.82.69-1.11a6.92,6.92,0,0,0,1.82,3.32c1,1.08,1.36-.55,1-2.58s.11-4.8,0-8.8-.8-7.87-1.71-9.27a17.32,17.32,0,0,1-2-5.82,126.85,126.85,0,0,1-1.71-14.77A23,23,0,0,0,868.49,601c-2.84-4.09-2.84-10.9-2.84-14.55A24.41,24.41,0,0,0,862.81,575c-1.82-3-3.46-.29-4.82.56s-2.24.2-3.15-.73c-.56.94-.11,1.32.23,2.69a19.14,19.14,0,0,1,.23,5.83,35.86,35.86,0,0,0,.23,6.17c.11,1.84.45,5.7-.46,8.42s-.68,4.24,0,5.15,1.25,1.63,2.62,3.76,2,6.2,2.16,9.36.79,2.9,1.82,3.51,1.7,2,2.72,3.92,2.17,13.33,2.73,18.87,1.48,3.62,3.3,6.12,1.25,3.6,1.94,4.82a4.51,4.51,0,0,1,.56,3.38,8,8,0,0,0-.23,3.62,9.34,9.34,0,0,1,.8,3.4c0,1.66.34,1.52.8,1.9s1.13-.07,1.25,1.1-.12,2.32.34,2.86A4.25,4.25,0,0,1,877,672c.11,1,.56,1.71,1.47,1.78a2.36,2.36,0,0,1,2.28,2c.34,1.52.34,1.52,1,1.91a3.33,3.33,0,0,1,2.16,2.16c.68,1.72.91,1.07,1.48.28s.91-.76,1.59.12.8-.94.8-2.43.57-.79,1.48,1.27.34,1.85,1.25,2.74,1.36,1.43,2,1.31.68-.45,1.59.6,1.14-.59.34-2.3A11.36,11.36,0,0,1,893.73,676.37Z" style="fill: #cf6200"/>
    <path d="M917.11,625c-.91-1.36-.46-3.56-.61-5.78a38.61,38.61,0,0,0-2.58-10.51c-1.81-5-2.87-11-4.09-12.58s-1.82-5.41-2-7.18-1.51-3.4-2.42-4.78-1.82-3.41-2.88-11.22-1.82-13.39-1.82-14.72-.15-1.56-1.06-2-1.37-2.75-1.06-3.83-.31-2.23-.61-3.58a9.64,9.64,0,0,1,.61-5c.6-1.3.45-5.07-.16-8.2s-1.21-5.83-3.64-6.44S892,527.6,891,524.65s-1.82-8.09-2.13-9.23-.75-1.38-2.57.7-2.43,2.76-2.43,6.9a11.75,11.75,0,0,0,.91,5.16c.61,1.6.76,2.05,1.22,6.29s3,11.08-.31,14.59-2.88,4.43-2.73,7.09-.91,4.36-1.51.55,0-6,1.82-7.6,3.48-3.72,2.27-6.25-1.67-8.32-1.82-11-.45-3.58-1.52-1.67a28.94,28.94,0,0,1-5.3,7.09c-2.12,2-4.85,3.56-3.34,7.46s2.73,4.45,3,7.35.77,5.38,2.28,6.17,2.12.39,2.12,5,0,6.42,1.37,8.3,1.21,3.63,1.82,7.89.6,13.33,2.42,19.66,5.91,18.36,5.46,20.76-1.06,4.14.76,7.13a24.88,24.88,0,0,1,3.18,9.73c.15,2.45.46,3.36,2.27,2.59a6.31,6.31,0,0,0,3.34-2.69c.6-1.07,1.81-.77,3.49.64s4.24,2.87,5.75,1.61,2.28-3.21,3.64-3.15c2.12-2.13,2.88-6.76,3.34-8.06S918,626.4,917.11,625Z" style="fill: #cf6200"/>
    <path d="M857.16,585.31c.53-2.67-.81-2.79-1.92-1.2a48.77,48.77,0,0,0,.29,5.4c.11,1.84.45,5.7-.46,8.42s-.68,4.24,0,5.15a1.34,1.34,0,0,1,.11.14c1.86-.71,2.1-3.7,1.6-5.22a7.37,7.37,0,0,1,.23-5,3.91,3.91,0,0,0,.07-3.54C856.55,588.35,856.55,588.35,857.16,585.31Z" style="fill: #00b800"/>
    <path d="M872.92,614.14A23,23,0,0,0,868.49,601c-2.22-3.19-2.71-8-2.81-11.74-1.67-1.65-2.37-1.05-2.23,1.73.15,3,2.2,4.65,1.89,8.93s-.3,3.18,1.14,5.43,2,4.28,1.21,5.1a2,2,0,0,0,.23,3c1.06.66,1.14,2.32,1,3.86s.84,2,1.44,3.12a7.92,7.92,0,0,1,.08,5.32c-.61,1.49-.68,3.92.38,2.7s1.52,0,2.35,2.2c.72,1.88,1.32,1.36,2.11.88a20,20,0,0,1-.63-2.57A126.85,126.85,0,0,1,872.92,614.14Z" style="fill: #00b800"/>
    <path d="M889.41,668.77c-.68,2-1.48,1.22-2.16.18s-1.48-1.11-1.14-2.91.23-2.14-.68-3.21l-.32-.34c-.28,0-.61-.06-1.05-.1-1.59-.12-1.7-.79-2.61-2.2a8.45,8.45,0,0,0-.56-.78c0,.32,0,.74,0,1.24,0,1.82,0,1.49-1.25,1.89s-1-1.92-1.25-3.43a6.81,6.81,0,0,0-.2-.91c-1.37-.5-2.81-2.73-3.33-5-.56-2.54.12-2.82.69-1.11a6.92,6.92,0,0,0,1.82,3.32c1,1.08,1.36-.55,1-2.58a11.69,11.69,0,0,1-.12-2.21,3.28,3.28,0,0,0-1-1.54c-1.82-1.31-1.25-1.6-1.13-3.75s-.23-2.17-1.37-1.11-1.25-.28-1.25-3.6-1.48-3.45-1.82-1.16-.91.75-1.59-2.63-1.59-4.31-1.7-1.16c-.1,2.66-.61,3.25-1.8,1.66.21,2,.4,3.76.54,5.2.57,5.53,1.48,3.62,3.3,6.12s1.25,3.6,1.94,4.82a4.51,4.51,0,0,1,.56,3.38,8,8,0,0,0-.23,3.62,9.34,9.34,0,0,1,.8,3.4c0,1.66.34,1.52.8,1.9.28.23.65.14.91.33a16.62,16.62,0,0,1,.91-1.67c1.36-1.88,3.41.45,4.09,3s1.47,3.28,2.5,1.37.68-1.61,1.82.3,1.59,1.62,1.59,1.62a1.54,1.54,0,0,1,1.93.48c.8,1.05,1.25.92,2.73-2.14S890.09,666.83,889.41,668.77Z" style="fill: #00b800"/>
    <path d="M917.11,625c-.91-1.36-.46-3.56-.61-5.78a38.61,38.61,0,0,0-2.58-10.51c-1.81-5-2.87-11-4.09-12.58s-1.82-5.41-2-7.18-1.51-3.4-2.42-4.78-1.82-3.41-2.88-11.22c-.83-6.11-1.47-10.84-1.72-13.26-1.09,2.48-1.83,3-2.22,1.29-.46-2-1.07-3.16-1.67-1.87s-.76-1.16-.76-2.26-.15-1.34-.91-1.39-.15-1.78-.46-5.12-.75-3.81-1.05.15-1.82,6.29-1.22,7.22.31,2.68-.3,5.3a11.14,11.14,0,0,0,.15,6c.46,1.8-.3,5.07-.61,7.93s1.22,5.84,1.67,1,.15-9.73,1.52-11.41,3-5.12,2.88,2.4-.3,7.06-1.36,8.77-2,2.08-.91,5,1.21,3.18,1,7.6-.14,6.18,1.07,8.48,1.51,2.52,1.82,5a18.66,18.66,0,0,0,2.72,7.68c1.37,1.85,2.89,7,3,10.58s2.28,4.54,4.25,7.07-.45,4.19-2,3-.91,0-1.82,1.46-1.21,1.71-2-1-3.34-4.62-4.55-5.36-2.27-3.68-3.33-6.62c-.91-2.53-2.72-4.46-4.36-4.76a12.85,12.85,0,0,1,.57,4.06c-.46,2.41-1.06,4.14.76,7.13a24.88,24.88,0,0,1,3.18,9.73c.15,2.45.46,3.36,2.27,2.59a6.31,6.31,0,0,0,3.34-2.69c.6-1.07,1.81-.77,3.49.64s4.24,2.87,5.75,1.61,2.28-3.21,3.64-3.15c2.12-2.13,2.88-6.76,3.34-8.06S918,626.4,917.11,625Z" style="fill: #00b800"/>
    <path d="M861.48,527.43c-.15,2.86-.61,2.15-1.67,2.48s-.61,1.71-1.82,1.8-1.37.75-.6,1.93.14,2.24-.46,4.38-.91,2.56.76,3.63,1.51.16,1.36,3.9-.75,6.79.15,8.87,1.52,1.71,1.22-.76-.91-6.07.3-5.94,2.12-.67,1.06-3-2.27-2.44-2.12-5.08-.46-7.58.76-4.58,1.66,6.38,2.27,8,2.22,2.45,1.82-.7c-.65-5.09.12-6.45,1.25-6.46-.66-1.79-1.63-7.64-2.37-11.41C862.15,523.62,861.6,525,861.48,527.43Z" style="fill: #00b800"/>
    <path d="M890.13,587.68c1.06-3.24-.15-3.55-1.82-4.56s-1.67-3.22-2.58-6.83-.76-5.15-.15-7.09.15-3.53-1.06-4.07-.91-1.84-.46-4,.76-2.6-1.06-2.07c-1.37.39-1.71.73-2.12,1.43a19.55,19.55,0,0,1,.15,2.84c0,4.65,0,6.42,1.37,8.3s1.21,3.63,1.82,7.89.6,13.33,2.42,19.66c.54,1.89,1.29,4.29,2.06,6.79a12.24,12.24,0,0,0,2.19-4c.45-1.53-.91-4.72-2-7.45S889.07,590.93,890.13,587.68Z" style="fill: #00b800"/>
    <path d="M913.47,615.14c-1.82-1.41-3.18-7.89-3.94-12.36s-3.18-10.55-4.55-11.73c-.15-3.12.16-4.65-1.21-6.27a8.24,8.24,0,0,1-1.82-5.2,6.79,6.79,0,0,0-1.36-4.06,3.83,3.83,0,0,1-.91-2.93c0-1.33-1.06-1.17-1.22,1.25-.16,2.65-.15,4-.6,4.83s-.15,2.21.3,3.57a10.56,10.56,0,0,1,.3,5.55c-.45,2.41.31,4.45,1.22,5.17s1.36.08,1.06,3.16a12.73,12.73,0,0,0,2,7.86,8.22,8.22,0,0,1,1.66,5,4,4,0,0,0,1.82,3.42c1.07.72.91.94.91,1.82s.46.91,1.67,1.41,2.12,1.65,3.49,4.15,3.33,3.9,3,1.23S915.29,616.55,913.47,615.14Z" style="fill: #5d3100"/>
    <path d="M890.43,692.09c2.05,2.14,5.69,2,7.85.85.91,1.38,3.75,2.39,6.25,2.69-.57-.2-1.48-2.08-1.82-3.26.68.7,2.39,1.3,5,.6-1.36-.07-4.55-2.73-6.37-4.67C900.55,689.26,893.16,692,890.43,692.09Z" style="fill: #00d860"/>
    <path d="M902.42,704.22c-1-.33.46-1,1.77-1.14-2.68.18-4-1.81-2.45-3.71a44.54,44.54,0,0,1-6.42-2c4.32,11.68,14.83,8.49,17,4.5C911.06,702.85,904.76,705,902.42,704.22Z" style="fill: #00d860"/>
    <path d="M899.64,707.8c1,1.39,4.38,1.58,6.08.76C904.19,707.4,901,706.88,899.64,707.8Z" style="fill: #00d860"/>
    <path d="M904.53,707.91c.79.63,1.65.75,1.14,1.14,1,0,2.33.87,3.74,1.6s5.58.51,6.37-2.54C913.45,710.1,906.86,707.46,904.53,707.91Z"/>
    <path d="M916.92,711.4c-1.93,1-8.24,1.88-10,1.37,4,2.94,6.76,2.56,10.17,1,1.19.8,4.89,1.93,6.82.24C923,714.18,919,712.47,916.92,711.4Z" style="fill: #00d860"/>
    <path d="M917.09,713.8c-2.48,1.12-4.64,1.62-7.16.67a5.31,5.31,0,0,0-1.59,3.85c1.19-1.35,6.08-2,8.92-2,1.14,1,6.77,2.07,8.3,1.19-1.48-.21-3-1.58-4.15-2.57A8.34,8.34,0,0,1,917.09,713.8Z" style="fill: #00d860"/>
    <path d="M919.65,694.14c-3.64,2.38-10.76,2.51-12.73,1.44s-1.92-.15-.57,1c3.41,2.84,8.07,1.9,14-.89C922,694.89,921.08,693.21,919.65,694.14Z"/>
    <path d="M915.1,684.17c-1.13-.55-1.93-.08-.68,1.14s8,4.12,9.55,4.32,1,1.28.06,1.67-1.26,1.37.05.66,8.62-.8,11.6,1.51c1.3,1,1.65.85,1.53.1s.57-1.24,1.54-1.39,1.53-.65.79-1.07-.85-.68-.28-1.09.62-.82-.23-1.08-1.42-.6-.62-1.17a7.51,7.51,0,0,1,2.9-1.13c.22-.91-.17-3.32.51-4.15C933.06,688.39,927.26,690.12,915.1,684.17Z" style="fill: #00d860"/>
    <path d="M951.71,677.67a18.19,18.19,0,0,1-5.34-3.46c-4.89,7-14.1,10.2-19.11,9.54-1.58-.21-1.24.63.12.83,4.8.72,12.39-1.07,18.87-6.89a12.83,12.83,0,0,0,5.91,2C954.1,679.64,953,678,951.71,677.67Z"/>
    <path d="M918.12,654.32c.39.85,1.93.65,3.12,2.35.74-1.22,3.58-2.45,6.2-4a17.79,17.79,0,0,1-6.31-4.75c-3.92.28-6.94-2.75-8.64-4.57-3.7,3.82-8.25,4.58-9.78,4.4s.45,2,1.53,2.08,1.08.64,1.71,3c5.57-4.11,7.33-2.22,9.38,2.68s8,6.61,11.08,5.1c1.18-.57.8-2.29-.62-1.75s-7.16-1-7.9-1.75S917,655.61,918.12,654.32Z" style="fill: #00d860"/>
    <path d="M913.85,654.15c-1,.31-3.64,2.33-4.6,2.45s-2.67,2-.91,2.2,4-2.55,5.28-2.75S915,653.78,913.85,654.15Z" style="fill: #00d860"/>
    <path d="M919.36,662.75c-.67.15-3.58,1-4.37.91s-1.59.18-1.54,1,.29,1.34-.91,1.12a2.55,2.55,0,0,0-2.5.88c-.28.49-.51,1,.68,1.2a3.51,3.51,0,0,0,3.19-.44c1.36-.86,2.67-2.22,4.15-2.25S921,662.39,919.36,662.75Z" style="fill: #00d860"/>
    <path d="M924.88,672.06c-2.22.2-8.37-3.08-9.61-4.32-1-1-2.27-.43-.85,1.3,2.87,3.47,7.1,5.83,10.57,4.85C926.68,673.41,927.1,671.88,924.88,672.06Z"/>
    <path d="M944.38,672.79a15.4,15.4,0,0,1-11.43.54c-1.93-.78-3.7-1-2.39.87s5.52,3.17,7.9,2.28c-8.47,2.72-10.68,2.38-12.78,1.83a29.23,29.23,0,0,0-7.73-.42,5.46,5.46,0,0,1-3.7-.89c-.74-.7-1-2,1.25-1.53s2.5-.23.57-.73-4.61.56-2,3.08,8.35.16,12,1.75,11.37,2.84,18.71-5.79C945.15,673.34,945.8,672.13,944.38,672.79Z" style="fill: #00d860"/>
    <path d="M927.15,663.16a5.84,5.84,0,0,0-3.18-1,3.74,3.74,0,0,1-2.11-.56c-.56-.35-.73-.19-.56.64a5.35,5.35,0,0,1,0,2.33c-.17.58-.17,1.32.56.52s1.2-1.79,1.94-1.19,2.61.58,3.46.43S928.4,663.94,927.15,663.16Z" style="fill: #00d860"/>
    <path d="M944.32,663.9a3.84,3.84,0,0,1-2.67.24c-1.08-.26-2.5-.44-2.85-.85s-.34-.76.57-1,1.2-1.15,0-.83a12.35,12.35,0,0,1-6.37-.75c-1.76-.86-2.5-1-3.24-.57a.89.89,0,0,0,.45,1.68c1.08.1,3.53.48,4.38,1.66s.74,1.26-.22.66-2.73-.3-.91,1.64c-1,.07-2.68-.88-3.59-1.48s-2.21-.72-1.24,1.22,5.17,3.1,6.65,2.2.85-1.89,2.32-.54,3,2.27,4.1,2.28,1.48,0,.28-1-1.76-1.26-1.87-2.09-.29-1.33.79-.82,2.33,1.42,3.19.76,2.44-2.15,3.86-2.15c.11-.42.23-.84.34-1.25A5.75,5.75,0,0,0,944.32,663.9Z" style="fill: #00d860"/>
    <path d="M971.21,660.49a10.91,10.91,0,0,0-5.69,1.09,17.43,17.43,0,0,1-5.57,1c-1.7,0-4,1.31-6,.58s-4.6-.21-5.74-.21l-.34,1.25c2.1-.09,7.22.62,8.87,2.08,1.59-1.85,1.31-2.43,2.44-2.11s2.56.86,3.19.35a1.73,1.73,0,0,1,1.76-.29,4.32,4.32,0,0,0,3-1.08,7.69,7.69,0,0,1,3.64-1.86C971.83,661.21,973.08,660.83,971.21,660.49Z" style="fill: #00d860"/>
    <path d="M974.56,660.86c-3.41,3.79-7.5,4.76-12.39,5.37-1.42.18-1,.75.23.91,5.11.64,11-2.33,13-5.4C975.91,660.85,975.85,659.42,974.56,660.86Z"/>
    <path d="M963,668.2a2.56,2.56,0,0,0-2.34.63c-.68.6-1.08.86-1.93.37s-2.39-1.12-3.24-.36-2.61.11-4.15,1c1.48.08,6.59,1.93,8.24,2.72,1.25-.19,1.6-.61,1.37-1.27s-.4-1.4,1.87-1.29,7.51-.12,8.47-.16c.8-.53,2.56-2.59,3.36-2.7C972.57,667.44,964.05,668.36,963,668.2Z" style="fill: #00d860"/>
    <path d="M1011.28,667.3c-1.93.71-10.23,1.27-11.59-.13s-2.28-1.49-3.07-.93-1.6.45-1.26-2.07c-4.31,2.8-5.34.37-7.61.84s-3.47,0-5.8-.34-2.84,1.3-2.27,2.19-.29,1.18-1.08,1-2.51-1-4-.74c-.8.11-2.56,2.17-3.36,2.7,1.94,1.18,4.21,2.25,5.57,1.69s2.39-.94,4.44.62,3,.68,4.77-.76,2.28-1.63,3.64-.55-.11,2-2,2.45-2.16.29-3.18,1.84-.91,1.22.68,1.79,3-.34,4.78-1.28,4.77-.49,6.14.07a3.3,3.3,0,0,0,3.07.1c1.36-.44,1.82-1,4.32-.52s2.73.09,3.64-1,1.25-2,3.07-1.79,1.47-.64,1.13-1.27,0-1.66,1.48-2.47S1013.21,666.61,1011.28,667.3Z" style="fill: #00d860"/>
    <path d="M978.08,674.57c-2.6.66-3.3-1.76-6-1.16-.91.2-2.45,1.91-.34,1.59s4.37,1.24,6.42.9S979.28,674.27,978.08,674.57Z" style="fill: #00d860"/>
    <path d="M980.47,677.7c-1.19.39-4-.87-5.4-.09-1.87,1.07-.51,1.76.85,1.13s4.38.88,5.63.23S981.67,677.31,980.47,677.7Z" style="fill: #00d860"/>
    <path d="M970.3,684.1a16.23,16.23,0,0,1-9.84-4.06c-.85-.81-1-.53-1.25.11-2.67,8.36-9.43,8.84-11.31,8.74s-2.39.84,0,.92c4,.14,9.26-.73,12.22-7.6,1.77,1.55,7,2.75,10.29,3S971.94,684.25,970.3,684.1Z" style="fill: #00d860"/>
    <path d="M987,696.69c-2.33.14-5.17.29-6.31-.24s-2-1.23-.8-2.45,2.45-1,3-2.07c-3.75.12-8.36-2.59-5.8-5.36.59-.64.4-.68-.57-.8a14.39,14.39,0,0,1-5-2.13c-1.19-.95-.4-1.81.57-2.1-2.22.67-6.66-.94-9.61-4.11-.91,1.85-4,5.06-5.46,5.25a19.32,19.32,0,0,1-6.76-.93c-1.08-.58-2.39-.41-.86,1.17s5.35,2.62,6.88,2.09,3.3-1.29,4.49-.24,3.42,3.08,4.72,2.63,4-.53,4.83,0,2.34,2.25.12,1.33-4,0-5.06-.68c1.13,2.3,3.72,6,5.91,5.88.51,0,.85,1.3-.23,2.09,1.08.71,3.58,1.19,4.89-.61a1,1,0,0,0,.4,1.48c.57.39,1.25.94.23,1.15s-3.36.72-4,.33c2.22,2,8,5.08,13.81,3.07,1.12-.38,1.71-1.09-.11-.9-3.75.38-4,.3-4.66-.24s-.57-1,.51-1.61a18.41,18.41,0,0,1,5-1.35C988.2,697.28,989.34,696.55,987,696.69Z" style="fill: #00d860"/>
    <path d="M1002.47,678.31c-2.16-.73-5.68.21-6.54.6s-3.18.31-1.93-.36a10,10,0,0,0,3-2.46,8.44,8.44,0,0,1-1.08-.42,12.61,12.61,0,0,1-7.56,3.67c-1.65.1-1.88.94-.57,1.11a7.91,7.91,0,0,0,3.3,0,1.45,1.45,0,0,1,1.76.14,4.65,4.65,0,0,0,4.26-.14,14.27,14.27,0,0,1,5.29-1.42C1003.44,679.06,1004.63,679,1002.47,678.31Z" style="fill: #00d860"/>
    <path d="M1003,684.33c-2.56.88-6.94-.61-8.24-2.1-1.77,2-4.32,4-6.94,4.36,2.39,1.1,4.38,4.53,5.91,4.26-.74.72-1.64,1.78-2.61,2,1.48.48,4-.36,6-2.17,3.42,1.16,7.85-.14,9.33-2.11a7.77,7.77,0,0,1-6.08-2.13A3.86,3.86,0,0,0,1003,684.33Z" style="fill: #00d860"/>
    <path d="M981.27,687.45c-2.45-3-2.45-.63-.74,1.53s4.72,5.42,10.63,3.88c1-.23,1.87-1.29,2.61-2C991.9,691.91,983.71,690.5,981.27,687.45Z" style="fill: #00d860"/>
    <path d="M995.71,703a5.5,5.5,0,0,0,1.47-2.93c-1,.91-5.91,1.75-7.5,1.35s-2.27-.11-1.87.78.56,1.71-.74,1.54a9.67,9.67,0,0,0-4.61.92c-1,.55-2.16,1.86-.11,1.25s3.92-1.29,5.46-.8,7,.29,8.07-.46.34-.69-.17-.65S995,703.55,995.71,703Z" style="fill: #00d860"/>
    <path d="M969.33,693.93c-3.18.44-9.32-.75-10.91-1.89a9.75,9.75,0,0,0,4.55,2.9c-3,1.22-7.05,2.14-13.08-2.65-2,1.35-8.87,4-10.69,4.13-2.27,1.47-4.09,2.27-5.23,2.25.8,1,3.87,2.05,5.12,1.57a17.26,17.26,0,0,1-2.84,2.61,14.1,14.1,0,0,1,4.89.55,10,10,0,0,1-7.39,2.24c.57,1.17,1.36,2.35,2.39,2.36a8.71,8.71,0,0,1-6.15.06c.57,1.67,1.14,2.68,1.94,2.86-1.82.3-4.1.74-6-1,1.48,2.86,4.78,3.94,9.67,3.19a19,19,0,0,0,10.12-5.23,18.94,18.94,0,0,1-6.15.13c2.73-1,8.64-4.61,9.67-6.12a4.28,4.28,0,0,1-3.07-1.32c1.59.34,7.16-.68,8.87-1.7a6.93,6.93,0,0,1-3.87-3.62c7.16,3.28,15.13,2,19,.45C971,695.36,971.15,693.68,969.33,693.93Z" style="fill: #00d860"/>
    <path d="M930.79,695c-1.48-1.2-4.2-.93-5.23-.63s-.68,2.81,3.64,2.25c-1.82,1.79-6.71,2.32-8.53,1.59.46,2.16.8,4.34.34,5.48,2.39,2.08,8.64,4.75,11.71,4.46-2.73-1.54-4.21-3.24-1.93-3.52a18.39,18.39,0,0,0,5.46-1.74,17.26,17.26,0,0,0,2.84-2.61c-1.25.48-4.32-.56-5.12-1.57,1.14,0,3-.78,5.23-2.25C935.11,696.21,932.27,696.15,930.79,695Z" style="fill: #00d860"/>
    <path d="M947.73,705.75c-5.8,7.18-13.09,7.24-18.53,7.77-2.73.26-1.37,2.36,1.59,2.36,7.27,0,14.9-5.47,18-9.47C950.2,704.53,949.21,703.92,947.73,705.75Z"/>
    <path d="M981.33,710.12a6,6,0,0,1,2.21-2c-1.13-.27-4.72.08-5.57.78a5.91,5.91,0,0,1,1.65-2.74c-4.49.22-10,.33-11.94-1.19,3.19.4,6.71-2.48,8.19-2.54-2.5,0-5.23-.71-5.91-2.19-1.37.8-5.18,1.82-6.31,1.6s-2.79-.27-3.7.57-1,1.35.29,1.49a18.42,18.42,0,0,0,3.64.17,8,8,0,0,0-1.94,2.54c1.82-.7,5.17.37,6.14,1.17a2.23,2.23,0,0,1-2.22-.52c3.07,4.67,12.17,4.31,13.65,3.39a6.8,6.8,0,0,1-2,1.84,9,9,0,0,0,8.41-2.34A20.78,20.78,0,0,1,981.33,710.12Z" style="fill: #00d860"/>
    <path d="M952.62,707.14c1.48-.68,3.41-2.2,5.91-3a28.89,28.89,0,0,0-6.48,2.83c-.91.75-1.88,1.17.11,1.16s7.39.24,8.59.46a50.71,50.71,0,0,0-7.9-.72C952.05,707.89,951.14,707.81,952.62,707.14Z" style="fill: #00d860"/>
    <path d="M965.58,713.79c-1.76.05-4.49-2.12-5.91-3.68-1.37,1.78-4.84,1.82-5.63,1.83,1.76.4,3.47,1.29,5.51.17,1.54,1.64,4.55,2.89,6.08,2.6S967.34,713.75,965.58,713.79Z" style="fill: #00d860"/>
    <path d="M958,741.36a37,37,0,0,1,4.55-.34c-1.36-1.62-6.26-1.62-8.64-2.76s-4.32-.8-6.48-.13-6.14.49-8.07-2c-3.41,1.63-8.08.06-11.6-2,2.73,3.73,9.55,8,13,5.12a10.82,10.82,0,0,0,1.42,3.32c2.1-1.88,8.64-1.8,10.69-.76-3.59,0-5.86,3.52-6.6,6.09,2-2.56,8.7-5,12.56-4.75C957.68,742.19,957.34,741.61,958,741.36Z" style="fill: #00d860"/>
    <path d="M927,720.1c-1.25,1.8-4.1,3.67-8.3,4.4-1.19.2-1.13,1.12.23,2.24s5.51.52,6.94-.52a19.06,19.06,0,0,1,7.84-2.56,3.19,3.19,0,0,1,.45-2.9C930.79,722.2,927.72,721.12,927,720.1Z" style="fill: #00d860"/>
    <path d="M950.91,709.89c-2.16,4.17-7.16,6.49-9.32,5.8a6.35,6.35,0,0,0,1.48,4.33c-2.28.66-6.14,1.12-8,.59,1,1.51,2.95,2.86,4.09,2.71-2.38,0-3.63.62-5.51.34a19.06,19.06,0,0,0-7.84,2.56,14.26,14.26,0,0,1,.51,3.08c4.09-2,13.47-3.21,17-2.38-1.71.16-4.95,2.7-6.76,3a24.69,24.69,0,0,1,9.88,1.32c1.14.41,1.37,1.66.52,2.82s-1.25,1.33.56,1.41,5.58-.27,7.28-2.7c-.68-1.08-2.44-.64-2.95-1.39a8.25,8.25,0,0,0,3.07-2.77c-3.07-.05-4.21-.13-5.23-.45s-1.77-.75-.52-1.74a8.87,8.87,0,0,0,2.22-2.5c-2.22.93-5.68,1.68-8.58-1.66a7,7,0,0,0,4.54-.4,4.7,4.7,0,0,0-2.55-1.33c2.33-1.66,6.93-3.15,12.62.08a18.64,18.64,0,0,1,8.07.49c.91-1.35,2.84-4.56,3.86-5.43C962.74,716.76,950.69,715.05,950.91,709.89Z" style="fill: #00d860"/>
    <path d="M974,726.22a1.68,1.68,0,0,0,.35-.1Z" style="fill: #00d860"/>
    <path d="M974,726.22c-1.53.32-6.08.13-7.95,1-2,1-6.31.74-11.08,1.37a8.25,8.25,0,0,1-3.07,2.77c.51.75,2.27.32,2.95,1.39-1.7,2.43-5.46,2.79-7.28,2.7,2.28.33,2.56,1.82,1,2.33,2.5-.59,4.15,0,6.65,1,1.93-2.42,5.68-2.66,6.82-2,.29-.92,1.59-3.69,4.32-1.44.23-1.25,2.79-4.48,4.83-4.39-1.08,0-2.78-.82-2.55-1.91S969.8,727.4,974,726.22Z" style="fill: #00d860"/>
    <path d="M973.48,717.6a9,9,0,0,1,2-2.24c-1.2.3-4.55.18-6.09.31a42.07,42.07,0,0,0-3.86,5.43,10.7,10.7,0,0,1,4.77-3.71c1-.2,1.6.27.69.64s-.4,1,.39,1.31a9.34,9.34,0,0,0,4.78-.35,8.2,8.2,0,0,1-3.58,2c-1.65.39-1,1.2.11.91a32.76,32.76,0,0,1,8.25-.11c2.38.37.62-1-.69-1.22s-1.87-.74-.91-1.7,2.9-2.8,4.78-2.48C982.63,716.11,977.35,716.8,973.48,717.6Z" style="fill: #00d860"/>
    <path d="M959.72,724.64c-3.52-.1-5.74-1.82-7.61-4.88-.94-1.53-1.74-.24-1.31.67,2.1,4.47,4.49,6.12,9.27,5.78C961.84,726.08,960.46,724.66,959.72,724.64Z"/>
    <path d="M992.07,663.24a19.69,19.69,0,0,1-11.48-2.32c-1-.62-1.31.15-.29.93a14.3,14.3,0,0,0,12.11,2.61C994.13,664.12,992.75,663.15,992.07,663.24Z"/>
    <path d="M998,658.91a22.37,22.37,0,0,0-8.53,0,31,31,0,0,1-7.9.86,2,2,0,0,1,1.54.91c3.86-.37,6.76-.47,8,1.11,2.22-1.14,6.2-2,7.11-1.84S1000.14,659.49,998,658.91Z" style="fill: #00d860"/>
    <path d="M1006.79,660.17c-1.59,1.14-6.82.26-8.64,1.8,2.5-.77,5.4.48,6.54,1.12s1.93,1.24,3.41.19,4.89-1.63,6.48-3.29C1010.43,662,1005.65,662.26,1006.79,660.17Z" style="fill: #00d860"/>
    <path d="M1011.05,656.61c.8,1.33-.16,2.59-.79,1.73s-2.73-1.39-3.92-1.7c-.69,1.39-2.68,1.4-3.53,1.22-1.36,3.52-2.78,2.3-4.66,4.11,1.82-1.54,7.05-.66,8.64-1.8-1.14,2.09,3.64,1.83,7.79-.18a33.14,33.14,0,0,0,5.4-5.73,30.5,30.5,0,0,0-3.87,1.42C1011.74,657.73,1012.93,655.43,1011.05,656.61Z" style="fill: #00d860"/>
    <path d="M930.9,493.39V634.73c.94.27,2.21.54,3,.72-.08-12.56-.91-117.72-.91-142C933,487.61,930.9,488.74,930.9,493.39Z" style="fill: #ff0"/>
    <path d="M934,613c-.26-35.31-.75-101-.75-119.52,0-2.71-.45-4.34-1.21-4.36s-1.38,1.8-1.38,4.31V635.05l.22.07c.67.19,1.51.39,2.21.55l1.07.25v-.47C934.11,632.45,934.05,624.16,934,613Zm-.84,21.93c-.61-.14-1.33-.31-2-.48v-141c0-2.35.53-3.52.83-3.52s.67.88.67,3.55c0,18.5.48,84.22.74,119.53.08,10.67.14,18.7.16,22Z"/>
    <path d="M964.12,485.69q1.11,75.55,2.24,151.09l2.06-.11.62-1.22q-1.77-74.9-3.55-149.79Z" style="fill: #ff0"/>
    <path d="M965.75,485.25l-1.91.05,2.25,151.49v.4l2.47-.13.76-1.49q-1.79-75-3.56-149.93C965.76,485.51,965.76,485.38,965.75,485.25Zm2.53,151-1.65.08q-1.12-75.14-2.23-150.27l.82,0q1.77,74.64,3.55,149.27Z"/>
    <path d="M991.39,490.44c.2,28,1.35,106.43,1.56,120.57.74-.06,2-.25,2.48-.26-.29-15.25-1.61-85.81-2.11-120.61C993.25,485.5,991.36,486.44,991.39,490.44Z" style="fill: #ff0"/>
    <path d="M993.59,490.11c0-2.62-.64-3.51-1.19-3.47h0c-.65.06-1.29,1.39-1.28,3.82.23,30.42,1.55,119.68,1.56,120.57,0,.13,0,.26,0,.39H993l1.27-.14c.49-.06,1-.12,1.2-.12h.29v-.42C995.68,609.91,994.16,528.79,993.59,490.11Zm.61,120.36c-.34,0-.69.09-1,.11-.09-6.52-1.33-90.79-1.55-120.17,0-2,.48-3,.73-3h0c.23,0,.62.71.64,2.74.55,37.25,2,113.87,2.1,120.2Z"/>
    <path d="M917.83,509.61c-1.7,8.9,5.91,9,8.76,6.75,3.29,3.74,5.79,3.46,7.61.5,2.62,3.2,5.91,2.4,7.28.42,3.64,4,7.39,0,6.59-6.46Q933,510.52,917.83,509.61Z" style="fill: #fff"/>
    <path d="M948.3,510.43q-15.34-.3-30.68-1.23l-.06.29c-.7,3.7.2,5.72,1.08,6.77,2.06,2.43,6,2,7.92.57,1.73,1.92,3.18,2.65,4.38,2.68a4,4,0,0,0,3.29-2.11c2.66,3,5.81,2.22,7.27.39,1.66,1.72,3.49,2,4.92.68,1.59-1.43,2.33-4.39,1.92-7.72C948.33,510.64,948.31,510.53,948.3,510.43Zm-2.16,7.36c-1.29,1.16-3,.85-4.5-.83l-.19-.21-.17.24c-1.22,1.78-4.38,2.65-6.9-.44l-.21-.24-.17.28c-1.85,3-4.29,2.82-7.25-.54l-.14-.16-.16.12c-1.75,1.39-5.53,1.93-7.47-.37-1.05-1.25-1.37-3.14-.94-5.62q14.9.89,29.8,1.2C948.12,514.08,947.48,516.58,946.14,517.79Z"/>
    <path d="M926.93,538.62a4.84,4.84,0,0,0,7.27,2.15c2.62,3,5.91.91,7.62-1.58,3.18,2.19,6.93,2.84,8.52-6.13q-15.45,0-30.92-.65C914.08,539.68,921,543.62,926.93,538.62Z" style="fill: #fff"/>
    <path d="M919.23,532.12c-2.73,3.72-2,6.15-1.55,7,1.28,2.5,5.31,3.1,9.14,0a4.69,4.69,0,0,0,2.1,2.22,5.12,5.12,0,0,0,5.25-.16,3.92,3.92,0,0,0,2.88,1.42c1.89,0,3.71-1.45,4.82-3,2.23,1.47,4,1.7,5.45.7s2.63-3.47,3.29-7.21l.09-.5q-15.71,0-31.39-.65ZM950,533.46c-.63,3.21-1.6,5.3-2.9,6.19s-3,.65-5.16-.82l-.17-.12-.14.2c-1.53,2.23-4.72,4.48-7.25,1.55l-.13-.16-.16.11a4.77,4.77,0,0,1-5,.24,4,4,0,0,1-1.93-2.19l-.12-.41-.26.22c-3.55,3-7.51,2.68-8.67.41-.74-1.46-.23-3.59,1.41-5.86Q934.75,533.43,950,533.46Z"/>
    <path d="M919.65,560.48c-.57,7.79,5.46,7,7.84,5.06,2.28,5.2,7.28,4.14,9.21,1.17,2.84,2.86,5.46,2.21,6.94-.44,3.3,4.16,6-1.16,5.79-5Q934.55,561.19,919.65,560.48Z" style="fill: #fff"/>
    <path d="M949.69,560.89q-15-.09-30-.81h-.25c0,.12,0,.24,0,.36-.24,3.26.67,4.89,1.47,5.69,1.82,1.8,4.87,1.14,6.55-.06a5.66,5.66,0,0,0,4.14,3.47,4.48,4.48,0,0,0,.63.06,5.65,5.65,0,0,0,4.57-2.37c2.58,2.47,5.25,2.31,6.93-.39,1.25,1.43,2.56,1.74,3.73.87,1.44-1.08,2.46-3.92,2.31-6.45Zm-2.54,6.1c-1,.77-2.19.42-3.33-1l-.22-.27-.17.32c-1.54,2.75-4.06,2.89-6.57.36l-.2-.2a2.13,2.13,0,0,1-.16.25,5.14,5.14,0,0,1-4.91,2.31c-1.16-.18-2.78-.92-3.87-3.41-.05-.11-.09-.22-.14-.32l-.22.18c-1.5,1.21-4.49,2-6.21.27-.93-.92-1.35-2.46-1.25-4.57q14.64.68,29.27.8C949.19,563.79,948.32,566.11,947.15,567Z"/>
    <path d="M917.6,588.14c-1.82,8.23,3.3,9.92,5.69,8,.79,4.85,5.23,3.31,6.36-.16,1.71,2.53,3.87,1.24,4.89-.4.46,4.49,4.32,4.71,7.28.91,6,6.19,11.71-1,9.09-7Q934.26,589.19,917.6,588.14Z" style="fill: #fff"/>
    <path d="M951.07,589.11q-16.74-.3-33.46-1.37l-.21,0-.06.28c-1,4.57.16,6.86.94,7.81a3.67,3.67,0,0,0,4.84.89c.37,1.64,1.21,2.65,2.38,2.86a2.45,2.45,0,0,0,.38,0,4.51,4.51,0,0,0,3.84-3,2.78,2.78,0,0,0,2.17,1.19,3.5,3.5,0,0,0,2.49-1.45,4,4,0,0,0,1.8,2.86c1.63.89,3.83,0,5.66-2.23,3.53,3.48,6.87,2.55,8.65,0a8,8,0,0,0,.65-7.73Zm-1,7.34c-1.65,2.32-4.81,3.13-8.14-.3l-.18-.18-.16.21c-1.69,2.17-3.81,3.08-5.27,2.28a3.54,3.54,0,0,1-1.56-3c0-.28,0-.56-.08-.84l-.39.63a3.3,3.3,0,0,1-2.46,1.7,2.43,2.43,0,0,1-2-1.31c-.1-.13-.19-.27-.28-.4l-.17.5c-.61,1.88-2.36,3.24-3.84,3-.73-.13-1.68-.71-2-2.72,0-.18,0-.35-.08-.52l-.32.25a3.26,3.26,0,0,1-4.53-.58c-1.14-1.39-1.42-3.69-.82-6.65q16.49,1,33,1.36A7,7,0,0,1,950.12,596.45Z"/>
    <path d="M952.73,577.54c1.25,8.29,4,10.43,8.42,5.52,3.29,4.93,8.75,2.93,10.11.38,6,6.93,9.33-1.56,9.21-6.36Q966.61,577.59,952.73,577.54Z" style="fill: #fff"/>
    <path d="M952.73,577.14h-.34l.08.49c.69,4.62,1.82,7.29,3.43,8.15,1.41.75,3.16,0,5.22-2.19a6.25,6.25,0,0,0,5.79,2.87A6.11,6.11,0,0,0,971.3,584c1.74,1.92,3.19,2.51,4.35,2.46a3.32,3.32,0,0,0,1.91-.73c2.08-1.61,3.26-5.67,3.19-8.67,0-.13,0-.25,0-.38Q966.73,577.19,952.73,577.14ZM977.31,585c-1.65,1.28-3.69.62-5.87-1.89l-.22-.25c-.05.11-.11.21-.17.32a5.43,5.43,0,0,1-4.17,2.46,5.79,5.79,0,0,1-5.54-2.88l-.16-.25-.2.22c-2,2.18-3.63,2.94-4.89,2.28s-2.36-3.11-3-7.09q13.56,0,27.12-.45C980.17,580.18,979.12,583.63,977.31,585Z"/>
    <path d="M950.8,549c.45,10,6.93,9.57,10.23,5.17,2.5,4.61,6.94,3.15,8.53-.22,3.41,4.87,9,1.64,8.07-4.47Q964.22,549.51,950.8,549Z" style="fill: #fff"/>
    <path d="M977.85,549.08q-13.67,0-27.34-.49c0,.14,0,.29,0,.44.23,5.08,1.93,7.12,3.32,7.93,2.17,1.27,5.07.35,7.15-2.22,1.09,1.82,2.58,2.79,4.23,2.74h.17a5.45,5.45,0,0,0,4.19-2.94c2.1,2.73,4.75,2.57,6.38,1.21a6.87,6.87,0,0,0,1.93-6.36C977.88,549.29,977.87,549.18,977.85,549.08Zm-2.15,6c-1.5,1.26-4,1.36-6-1.4l-.23-.33c-.06.13-.12.26-.19.39a5,5,0,0,1-3.94,3h-.15c-1.59,0-3-.94-4-2.77l-.18-.33-.22.29c-1.91,2.54-4.76,3.52-6.79,2.34-1.71-1-2.73-3.36-3-6.81q13.15.48,26.3.47A5.8,5.8,0,0,1,975.7,555.06Z"/>
    <path d="M952.28,518.93c.34,7,6.7,10.9,11.6,4.13,1.36,7.94,6.59,5.3,8.86,2.05,3.3,6,10.91-1.32,8.42-7Q966.71,518.82,952.28,518.93Z" style="fill: #fff"/>
    <path d="M981.31,517.69q-14.67.75-29.32.85c0,.14,0,.28,0,.42.16,3.29,1.63,6.11,3.84,7.35,2.58,1.46,5.5.51,7.88-2.52.67,3.15,1.95,4.29,2.94,4.68a3.13,3.13,0,0,0,1.25.21c1.72,0,3.56-1.38,4.8-3,1.88,3.05,4.92,2.45,7,.19a7.59,7.59,0,0,0,1.65-8Zm-1.89,7.54c-2,2.11-4.81,2.65-6.46-.38-.06-.11-.13-.22-.19-.34l-.22.31c-1.4,2-3.82,3.63-5.73,2.88-1.33-.53-2.23-2.13-2.68-4.74,0-.22-.07-.44-.11-.65l-.34.47c-2.28,3.15-5.14,4.19-7.64,2.79a7.84,7.84,0,0,1-3.47-6.24q14.2-.12,28.42-.82A6.63,6.63,0,0,1,979.42,525.23Z"/>
    <path d="M953.64,498.17c-.45,6.15,5.69,8.73,8,3.69,1.25,3.13,5.57,2.69,6.82-.35,2.05,4.59,4.55,1.34,5.34-.18,3,3,6.14,1.39,5.69-4.4Q966.55,497.8,953.64,498.17Z" style="fill: #fff"/>
    <path d="M979.69,496.52q-13.14.89-26.29,1.26l0,.35c-.21,2.83.94,5.33,2.93,6.36a3.8,3.8,0,0,0,1.8.43,4.07,4.07,0,0,0,3.49-2.37,3.54,3.54,0,0,0,3.18,1.86h.08a4.26,4.26,0,0,0,3.57-2.2c.68,1.34,1.48,2,2.37,2.06,1.19,0,2.33-1.21,3-2.41,1.58,1.51,3.28,1.78,4.47.72s1.65-3.05,1.44-5.71ZM978,501.9c-1,1-2.62.6-4.08-.9l-.21-.22-.16.31c-.47.9-1.57,2.4-2.74,2.38-.8,0-1.52-.75-2.16-2.18l-.24-.53c-.07.19-.15.37-.22.55a3.76,3.76,0,0,1-3.41,2.3,3,3,0,0,1-2.94-2c-.08-.18-.15-.36-.22-.55l-.25.54c-1.16,2.58-3.29,2.92-4.89,2.1a5.38,5.38,0,0,1-2.58-5.18q12.65-.37,25.3-1.21C979.32,499.49,978.89,501.1,978,501.9Z"/>
    <path d="M978.08,510.28c-.11,4.82,3.3,6.65,5.35,4.54,0,4.66,4.43,5.91,7.28,2.06,1.93,3.87,7.61,4.62,9.89-1,4.66,5.28,9.66.8,9.09-7.28Q993.9,509.82,978.08,510.28Z" style="fill: #fff"/>
    <path d="M1009.94,508.13q-16.07,1.31-32.12,1.76c0,.13,0,.26,0,.39,0,2.3.65,4.19,1.94,5.18a2.73,2.73,0,0,0,3.43,0,4.48,4.48,0,0,0,2,3.58c1.72,1,3.9.38,5.53-1.62a5.55,5.55,0,0,0,5.12,2.86l.25,0c2-.25,3.61-1.63,4.63-3.89,2.23,2.36,4.7,2.76,6.65,1.06s2.93-5.05,2.65-9Zm-2.89,8.66c-1.82,1.59-4.17,1.11-6.28-1.28l-.24-.28-.17.41c-.9,2.25-2.44,3.62-4.35,3.86a5.05,5.05,0,0,1-5.08-2.86l-.18-.35-.22.3c-1.47,2-3.6,2.7-5.17,1.75a3.89,3.89,0,0,1-1.66-3.53v-.75l-.43.44a2.35,2.35,0,0,1-3.25.25,5.12,5.12,0,0,1-1.66-4.08q15.54-.46,31.08-1.7C1009.61,512.42,1008.73,515.33,1007.05,516.79Z"/>
    <path d="M978.31,548.46c.23,6.3,5.23,8.21,8.07,4.72.69,5.28,4.55,5.37,6.82,2.55,2.73,4.31,7.28,4.29,9.78-.91,3.75,1.67,6.6-3.26,6.26-8.37Q993.77,547.85,978.31,548.46Z" style="fill: #fff"/>
    <path d="M1009.48,546q-15.72,1.43-31.46,2l0,.42c.1,2.88,1.18,5.15,3,6.22a4.09,4.09,0,0,0,5.22-.84c.36,1.9,1.19,3.25,2.37,3.81,1.44.69,3.22.14,4.59-1.4,1.38,2,3.2,3.1,5.05,3l.3,0c1.79-.26,3.41-1.65,4.56-3.92a3.69,3.69,0,0,0,4.41-1.37,11.16,11.16,0,0,0,2-7.52Zm-2.32,7.28a3.27,3.27,0,0,1-4.09,1.12l-.19-.08-.12.25c-1.06,2.2-2.58,3.56-4.27,3.81-1.89.26-3.72-.81-5.08-2.95l-.17-.28-.21.25c-1.23,1.53-2.94,2.13-4.26,1.49-.79-.37-1.8-1.35-2.12-3.83l-.08-.65-.36.44a3.75,3.75,0,0,1-5,1.09c-1.49-.9-2.42-2.76-2.6-5.13q15.18-.62,30.37-2A10,10,0,0,1,1007.16,553.31Z"/>
    <path d="M990.59,585.3c2.39,4,6,3.74,8.07.25,3.3,3.91,8.3,2.3,9-4.91q-12.21.87-24.44,1.28C983.2,588.23,988.32,588.78,990.59,585.3Z" style="fill: #fff"/>
    <path d="M982.93,581.53v.4c0,2.63.88,4.63,2.42,5.48,1.72.94,3.86.29,5.22-1.54,1.2,1.86,2.73,2.83,4.33,2.76h.1a5,5,0,0,0,3.69-2.52,5.09,5.09,0,0,0,4.14,1.92,4.16,4.16,0,0,0,1.87-.65c1.77-1.13,2.91-3.51,3.22-6.7l0-.45q-12.37.88-24.76,1.3Zm24.39-.47c-.33,2.66-1.32,4.63-2.81,5.58-1.77,1.13-4,.58-5.67-1.4l-.2-.24-.18.3a4.56,4.56,0,0,1-3.46,2.53h-.09c-1.53.07-3-.92-4.11-2.8l-.19-.32-.21.32c-1.18,1.8-3.26,2.5-4.84,1.63-1.27-.7-2-2.24-2.08-4.35Q995.41,581.91,1007.32,581.06Z"/>
    <path d="M991.73,611.13a17.4,17.4,0,0,0-2.62,7.14c-6.13,1.87-9.77,2.69-11.37,3.27s-2.48.79-3.75,3.31c-2,4.07-4,8.78-5.57,11.82-13.18.76-26.6.72-35.7-1.45s-12-4.17-18.19-9.85c-9.32-8.56-11.59-10.64-24.78-22.82-2-1.88-4.21.1-1.36,3.05,13.29,13.72,18.33,18.67,24.66,25A92,92,0,0,1,928,649.73c5.23,8.76,9.09,9,11.48,7.67s6.14-3.11,9.89-1.8a22.22,22.22,0,0,0,11.37.7c2.39,3.11,7.84,2.3,10.92,1.19s5.34-1.71,7.5-1.14,5.45-.11,7.61-.74,7.85-1.82,11.83-1.31a18.64,18.64,0,0,0,10.69-1.75,15.71,15.71,0,0,1,9-1.08,19.59,19.59,0,0,0,4-9.42c2.67-.81,3.56-1.41,4.15-3.74,1.08-4.29,2.1-8.49,2.44-10.35l1.08-.14c.11-1.26.23-2.52.34-3.78-.74-1.15-1.48-2.3-2.21-3.45.26-2.42.53-4.83.79-7.24l2.39-1.14a21.65,21.65,0,0,0-1-6.68C1015.83,608.24,1001.79,610.13,991.73,611.13Z"/>
    <path d="M1030.32,605.1l-.18,0c-14.17,2.69-28.17,4.59-38.42,5.6h-.09l-.07.09a17.86,17.86,0,0,0-2.68,7.11c-2.9.88-5.19,1.51-7,2s-3.32.89-4.14,1.19l-.2.07c-1.46.52-2.44.86-3.71,3.4-1,2-2,4.19-2.95,6.28s-1.77,3.88-2.55,5.38c-13,.74-26.36.73-35.52-1.46s-12-4.22-18.09-9.79l-.92-.84c-8.54-7.85-11.12-10.2-23.86-22-1.27-1.17-2.57-.94-3,0-.16.37-.55,1.74,1.33,3.69,8.92,9.21,14.22,14.55,18.49,18.83l6.18,6.2a90.66,90.66,0,0,1,14.84,19c4.25,7.12,8.22,9.74,11.79,7.78,2.69-1.47,6.22-3,9.73-1.78a22.31,22.31,0,0,0,11.35.73c1.44,1.77,3.73,2.22,5.85,2.16a18.58,18.58,0,0,0,5.21-1c3.1-1.13,5.3-1.68,7.38-1.14,2.35.61,5.84-.19,7.72-.74,2.59-.74,8.07-1.77,11.74-1.3a18.79,18.79,0,0,0,10.81-1.77,15.56,15.56,0,0,1,8.82-1.07l.13,0,.11-.13a19.65,19.65,0,0,0,4-9.39c2.63-.81,3.57-1.51,4.19-4,.87-3.44,2-7.91,2.4-10.09l1.11-.14.39-4.32c-.74-1.14-1.48-2.29-2.21-3.44.24-2.26.49-4.53.74-6.79l2.4-1.15c0-.09,0-.19,0-.29a22.22,22.22,0,0,0-1-6.88A2,2,0,0,1,1030.32,605.1Zm-1.77,7.95-.84,7.69,2.21,3.46c-.09,1.08-.19,2.17-.29,3.25l-1.05.14c0,.1,0,.2,0,.3-.3,1.59-1.14,5.15-2.44,10.31-.52,2-1.18,2.62-3.93,3.46l-.18.05-.05.27a19,19,0,0,1-3.77,9.06,16.06,16.06,0,0,0-9,1.14,18.74,18.74,0,0,1-10.57,1.73c-4.2-.55-10,.77-11.91,1.31-1.48.43-5.17,1.35-7.52.73-2.17-.56-4.43,0-7.61,1.15-2.87,1-8.34,1.94-10.68-1.1l-.1-.13-.13,0a21.69,21.69,0,0,1-11.25-.69c-3.65-1.28-7.29.31-10.06,1.82-3.33,1.82-7.1-.72-11.18-7.56A91.67,91.67,0,0,0,913.2,630.3L907,624.1c-4.27-4.28-9.57-9.62-18.49-18.82-1-1-1.42-2-1.16-2.6s1.21-.75,2.24.2c12.74,11.78,15.32,14.13,23.86,22l.92.85c6.05,5.52,9,7.67,18.29,9.9s22.63,2.22,35.75,1.46h.13l.08-.15c.8-1.54,1.7-3.5,2.64-5.58s1.92-4.23,2.93-6.25c1.16-2.3,1.95-2.58,3.4-3.09l.19-.06c.81-.29,2.2-.66,4.11-1.19s4.26-1.16,7.25-2.08l.19-.06,0-.28a17.21,17.21,0,0,1,2.45-6.81c10.2-1,24.08-2.89,38.15-5.55a22,22,0,0,1,.93,6Z"/>
    <path d="M1018.22,576.58c-4,21.36-5.52,29.35-6,32,.77-.09,1.87-.33,2.26-.35.7-3.6,2.56-13.27,5.93-31.57C1020.94,573.61,1019,572.66,1018.22,576.58Z"/>
    <path d="M1019.87,573.62c-.64-.19-1.49.62-1.92,2.88-4,21.36-5.52,29.34-6,32l-.1.53.37,0c.37,0,.83-.13,1.25-.2a9.06,9.06,0,0,1,1-.15l.21,0,.05-.3c1-5.4,2.92-15.25,5.93-31.58C1021,574.94,1020.51,573.8,1019.87,573.62Zm.24,3c-3,16-4.81,25.82-5.86,31.27l-.83.14-.87.14c.6-3.13,2.16-11.39,5.93-31.48.29-1.54.76-2.22,1.13-2.26a.17.17,0,0,1,.12,0C1020.1,574.51,1020.34,575.36,1020.11,576.59Z"/>
    <path d="M1027.26,575.51c-2-.88-5-1.17-6.79.29a5.84,5.84,0,0,1-.09.87c-2.08,11.27-3.58,19.26-4.59,24.58,3.58,1.47,9.74,1,11.18-1.45s5.52-2.54,7.56-2.66c1.31-2.67,1.82-5.82,1.48-7.27a16,16,0,0,1,.28-6.26c.52-2.15,1.2-9,.35-13.16C1031.8,574.77,1029.47,576.48,1027.26,575.51Z" style="fill: #fff"/>
    <path d="M1036.81,569.84l-.3.27c-4.72,4.23-7,5.95-9.15,5s-5.18-1.21-7,.32l-.15.12v.25a4.11,4.11,0,0,1-.08.77c-1.75,9.52-3.29,17.79-4.58,24.57,0,.13,0,.25-.07.37l.24.1a13.8,13.8,0,0,0,6.52.76c2.23-.26,4.18-1,5-2.35,1.3-2.21,5-2.38,7-2.48l.52,0,.09-.18c1.4-2.87,1.87-6.14,1.52-7.64a15.48,15.48,0,0,1,.28-6c.57-2.36,1.2-9.24.35-13.41Zm-.77,13.67a16.63,16.63,0,0,0-.29,6.53c.3,1.25-.14,4.14-1.35,6.71h-.23c-2.21.12-5.92.28-7.4,2.79-1.22,2.07-6.9,2.82-10.65,1.4,1.28-6.72,2.8-14.86,4.52-24.2q.06-.36.09-.72c1.71-1.28,4.5-1,6.43-.13,2.3,1,4.63-.68,9.3-4.85A40.49,40.49,0,0,1,1036,583.51Z"/>
    <path d="M891.33,603.91l.39.59c11.3-15.64,29.89-66,35.12-88l-.51-.28C921.1,538.2,902.59,588.34,891.33,603.91Z"/>
    <path d="M899.94,611.8l.34.65c12.12-12.74,44.73-58.94,50.32-79.24l-.51-.3C944.54,553.09,912,599.1,899.94,611.8Z"/>
    <path d="M912.7,623.86l.54.15c1.87-16.41,5.21-46.5,6.68-63.47l-.54-.12C917.91,577.38,914.56,607.45,912.7,623.86Z"/>
    <path d="M918.35,607.63c-3.07,4.77-6.25,9.68-8.9,12.94l.36.62c2.67-3.29,5.86-8.22,8.94-13,2.2-3.41,4.28-6.64,6.06-9.13l-.38-.59C922.63,601,920.55,604.22,918.35,607.63Z"/>
    <path d="M964.76,564.92c-3.52,5.08-7.51,10.79-11,12.25l.14.77c3.59-1.52,7.63-7.31,11.2-12.46l.34-.49-.38-.57Z"/>
    <path d="M967.58,565.2l-.39.55c1.53,2.35,6.9,10.12,11.62,11.77.05-.26.09-.52.14-.78C974.37,575.14,969.09,567.5,967.58,565.2Z"/>
    <path d="M952.2,548.67l.15.76c5.57-2.33,11.15-9.12,12.72-11.15l-.35-.6C963.16,539.69,957.66,546.38,952.2,548.67Z"/>
    <path d="M966.94,538.61l-.36.62c.77.93,1.55,2,2.37,3,2.22,2.94,4.52,6,7.2,7.57.08-.25.15-.49.22-.74-2.6-1.55-4.86-4.54-7-7.43C968.5,540.58,967.72,539.55,966.94,538.61Z"/>
    <path d="M952.88,518.54c0,.26.11.51.16.77a30.42,30.42,0,0,0,11.61-9.94l-.39-.54A29.74,29.74,0,0,1,952.88,518.54Z"/>
    <path d="M966.23,508l-.42.54a27.27,27.27,0,0,0,12.09,10.14c.05-.26.09-.52.14-.78A26.55,26.55,0,0,1,966.23,508Z"/>
    <path d="M953.58,497.78l.12.78a18.38,18.38,0,0,0,10.7-9.32l-.45-.45A18,18,0,0,1,953.58,497.78Z"/>
    <path d="M965.36,488c3.43,4.19,8.67,9.17,12.13,9.5,0-.27,0-.53,0-.8-3.56-.34-9.11-6-11.82-9.32Z"/>
    <path d="M981.68,509.76h-.06v.8h.07c3.33-.16,8.25-6.22,10-9l-.39-.53C989.4,504,984.66,509.62,981.68,509.76Z"/>
    <path d="M993.72,500.69c-.16.15-.31.31-.46.46,1.42,3.23,5.09,8.2,7.24,8.46,0-.26,0-.53.08-.79C998.6,508.58,995.06,503.72,993.72,500.69Z"/>
    <path d="M979.47,548l.18.75a35.88,35.88,0,0,0,12.46-12.49l-.42-.48A35.18,35.18,0,0,1,979.47,548Z"/>
    <path d="M994.33,536l-.48.42c1.13,2.91,5.56,9.68,8.24,11,.07-.26.13-.51.2-.76C999.91,545.52,995.52,539.11,994.33,536Z"/>
    <path d="M984.22,581.49l.12.77c1.84-.67,6.9-4.63,8.31-9.13l-.49-.31C990.84,577,985.94,580.86,984.22,581.49Z"/>
    <path d="M994.9,570.23l-.43.53c1.75,3,6.4,9.17,9.44,10.5l.19-.76C1001.4,579.31,996.84,573.63,994.9,570.23Z"/>
    <path d="M921.61,588l.17.77c5.31-2.26,16.73-11.89,22.52-21.74l-.41-.52C938.16,576.25,926.87,585.77,921.61,588Z"/>
    <path d="M933.29,578.94c6.05,6.36,10.88,10,14.33,10.89,0-.26.07-.52.1-.78-3.38-.88-8.13-4.47-14.11-10.76C933.5,578.51,933.4,578.73,933.29,578.94Z"/>
    <path d="M920.56,560.17c.07.24.15.49.22.74a32.75,32.75,0,0,0,10.32-9.71l-.39-.56A32.18,32.18,0,0,1,920.56,560.17Z"/>
    <path d="M933.47,550.08l-.44.45c1.37,2.86,10.65,11.09,14.58,11.15v-.8C943.71,560.82,934.62,552.47,933.47,550.08Z"/>
    <path d="M919.92,532c.05.26.09.52.14.78,2.85-1,8.65-6,11-8.73l-.35-.63C928.4,526.17,922.71,531.07,919.92,532Z"/>
    <path d="M932.92,524.31c2.67,2.77,9.38,9.15,14,9.14v-.8c-4.43,0-11-6.27-13.65-9Z"/>
    <path d="M920.37,509.37l.15.78c2.75-1.06,6.31-5.11,10.59-12.09l-.41-.54C926.49,504.38,923,508.36,920.37,509.37Z"/>
    <path d="M933.2,498.61l-.47.42c2,4.74,7.36,11.2,11,12.07l.09-.79C940.41,509.5,935.14,503.19,933.2,498.61Z"/>
    <path d="M979.22,525.93l-.48.4c7.53,19.93,22.13,46,37.8,58.74.09-.23.19-.47.29-.7C1001.25,571.7,986.72,545.77,979.22,525.93Z"/>
    <path d="M960.86,514.65c-2-4.31-3.92-8.39-5.57-11.83l-.45.46c1.65,3.44,3.56,7.52,5.57,11.83,13.31,28.47,33.41,70.93,53,86.7l.29-.7C994.21,585.43,974.14,543.06,960.86,514.65Z"/>
    <path d="M996.58,610.33l.3.64a117.25,117.25,0,0,0,21-31.47l-.45-.42A116.09,116.09,0,0,1,996.58,610.33Z"/>
    <path d="M999.37,518.13l-.53.25c.45,2.32.9,4.59,1.33,6.81,5,25.62,8.92,45.84,16,61.5.16-.16.31-.32.47-.47-7-15.57-10.92-35.73-15.89-61.28Q1000,521.6,999.37,518.13Z"/>
    <path d="M937.07,599.31q4.68,18.9,9.38,37.75l.51-.27-9.38-37.74Z"/>
    <path d="M935.32,598.39q4.15,19.27,8.3,38.52l.52-.24q-4.15-19.23-8.3-38.51Z"/>
    <path d="M933.54,596.57q3.84,20.07,7.69,40.11l.53-.22q-3.84-20-7.7-40.1Z"/>
    <path d="M932.75,597.16q3,19.62,6,39.24l.53-.17L933.29,597Z"/>
    <path d="M938.75,635.29q3.71,0,7.43,0v-.8q-3.72,0-7.43,0Z"/>
    <path d="M938.18,631.2c2.33,0,4.67,0,7,0v-.8c-2.34,0-4.68,0-7,0Z"/>
    <path d="M937.65,628c2.26,0,4.51,0,6.77.05v-.8c-2.26,0-4.51,0-6.77,0Z"/>
    <path d="M937.17,624.83l6.45.06v-.8l-6.45-.06Z"/>
    <path d="M936.63,621.34c2,0,4.09,0,6.14.06v-.8c-2,0-4.09,0-6.14-.06Z"/>
    <path d="M936.17,618.33l5.83.06v-.8l-5.83-.06Z"/>
    <path d="M935.75,615.5l5.53.06v-.8c-1.84,0-3.69,0-5.53-.06Z"/>
    <path d="M935.28,612.42l5.26.06v-.8l-5.26-.06Z"/>
    <path d="M934.87,609.67c1.65,0,3.3.05,5,.06v-.8c-1.66,0-3.31,0-5-.06Z"/>
    <path d="M934.43,606.82c1.57,0,3.14,0,4.72.06v-.8c-1.58,0-3.15,0-4.72-.06Z"/>
    <path d="M934,604.2l4.47.06v-.8L934,603.4Z"/>
    <path d="M933.6,601.77l4.34.06V601L933.6,601Z"/>
    <path d="M933.36,599.7c1.35,0,2.69,0,4,.06V599c-1.35,0-2.69,0-4-.06Z"/>
    <path d="M920.5,630.44l.53.21,5.28-31.35-.53-.21Z"/>
    <path d="M922.79,631.78l.53.17q2.28-16.58,4.54-33.16l-.54-.17Z"/>
    <path d="M924.87,632.82l.54.13q1.83-17.67,3.67-35.35l-.54-.14Q926.7,615.15,924.87,632.82Z"/>
    <path d="M927.42,633.78l.54.1q1.34-18.51,2.66-37l-.54-.09Q928.75,615.28,927.42,633.78Z"/>
    <path d="M922.49,632c2.8.09,5.61.16,8.41.22v-.8c-2.8-.06-5.61-.13-8.41-.22Z"/>
    <path d="M921.17,628.51c3.24.11,6.49.2,9.73.27V628c-3.24-.07-6.49-.16-9.73-.27Z"/>
    <path d="M921.74,625c3,.1,6.11.19,9.16.25v-.8c-3-.06-6.11-.15-9.16-.25Z"/>
    <path d="M922.31,621.74c2.86.09,5.73.17,8.59.23v-.8c-2.86-.06-5.73-.14-8.59-.23Z"/>
    <path d="M922.86,618.36l8,.21v-.8q-4-.09-8-.21Z"/>
    <path d="M923.5,614.64q3.71.12,7.4.19V614q-3.69-.07-7.4-.19Z"/>
    <path d="M924,611.42c2.29.07,4.57.12,6.86.17v-.8c-2.29,0-4.57-.1-6.86-.17Z"/>
    <path d="M924.62,608.11c2.1.06,4.19.12,6.28.16v-.8c-2.09,0-4.18-.1-6.28-.16Z"/>
    <path d="M925.15,604.89c1.92.06,3.83.11,5.75.15v-.8c-1.92,0-3.83-.09-5.75-.15Z"/>
    <path d="M925.6,602.08c1.77,0,3.54.1,5.3.13v-.8c-1.76,0-3.53-.08-5.3-.13Z"/>
    <path d="M926,599.85c1.63,0,3.27.08,4.9.12v-.8c-1.63,0-3.27-.07-4.9-.12Z"/>
    <path d="M930.63,634.72h.55V597.17l-.55,0Z"/>
    <path d="M941.32,636.38l.49.36Q950.62,611,959.44,585l-.49-.35Q950.13,610.63,941.32,636.38Z"/>
    <path d="M945,636.66l.51.31q7.5-26.36,15-52.87l-.5-.3Q952.55,610.31,945,636.66Z"/>
    <path d="M949.21,637l.52.25q6-26.81,11.91-53.72l-.52-.23Q955.17,610.18,949.21,637Z"/>
    <path d="M952.63,637l.53.19q4.62-26.35,9.26-52.78l-.53-.19Q957.25,610.62,952.63,637Z"/>
    <path d="M942.22,635.07c3.69,0,7.39,0,11.08,0v-.8c-3.69,0-7.39,0-11.08,0Z"/>
    <path d="M943.84,630.35c3.44,0,6.87,0,10.31,0v-.8c-3.44,0-6.87,0-10.31,0Z"/>
    <path d="M945.17,626.53c3.17,0,6.33,0,9.5,0v-.8c-3.17,0-6.33,0-9.5,0Z"/>
    <path d="M946.58,622.38c3,0,6,0,9-.06v-.8c-3,0-6,.06-9,.06Z"/>
    <path d="M947.72,619.06c2.76,0,5.53,0,8.29-.06v-.8c-2.76,0-5.53.06-8.29.07Z"/>
    <path d="M949,615.24c2.61,0,5.21,0,7.82-.07v-.8c-2.61,0-5.21.06-7.82.07Z"/>
    <path d="M950.51,610.77q3.54,0,7.08-.07v-.8q-3.54.06-7.08.07Z"/>
    <path d="M951.68,607.36c2.17,0,4.34,0,6.51-.08v-.8c-2.17,0-4.34.06-6.51.08Z"/>
    <path d="M953,603.47l5.9-.08v-.8l-5.9.08Z"/>
    <path d="M953.88,600.8l5.46-.08v-.8l-5.46.08Z"/>
    <path d="M954.78,598.3c1.67,0,3.33,0,5-.07v-.8l-5,.08Z"/>
    <path d="M955.62,595.76l4.6-.08v-.8l-4.6.08Z"/>
    <path d="M956.39,593.51l4.23-.07v-.8l-4.23.07Z"/>
    <path d="M957.14,591.26l3.88-.07v-.8l-3.88.07Z"/>
    <path d="M957.92,588.94l3.5-.07v-.8l-3.5.07Z"/>
    <path d="M958.63,586.85l3.15-.06V586l-3.15.06Z"/>
    <path d="M973,585.42q3.85,17.67,7.71,35.31l.52-.26q-3.86-17.64-7.71-35.31Z"/>
    <path d="M974.46,586.12q4.68,16.92,9.36,33.77l.51-.32q-4.68-16.85-9.36-33.77Z"/>
    <path d="M975.8,586.17q5.49,16.5,11,32.91l.5-.37q-5.49-16.41-11-32.9Z"/>
    <path d="M977.32,585.47q6,15.35,12.08,30.58l.48-.43q-6-15.23-12.09-30.57Z"/>
    <path d="M980,616.75q4.8-.24,9.59-.54v-.8q-4.78.3-9.59.54Z"/>
    <path d="M979.16,612.55q4.43-.19,8.83-.47v-.8q-4.41.27-8.83.47Z"/>
    <path d="M978.26,608.37l8.09-.42v-.8l-8.09.42Z"/>
    <path d="M977.33,604.17q3.69-.17,7.38-.37V603q-3.69.21-7.38.37Z"/>
    <path d="M976.38,600c2.23-.1,4.46-.2,6.69-.32v-.8c-2.23.12-4.46.22-6.69.32Z"/>
    <path d="M975.48,595.79l5.95-.28v-.8l-5.95.28Z"/>
    <path d="M974.57,591.59l5.22-.23v-.8l-5.22.23Z"/>
    <path d="M973.64,587.39l4.51-.19v-.8l-4.51.19Z"/>
    <path d="M980.25,620.63l.52.23q3.76-16.71,7.54-33.47l-.52-.22Q984,603.93,980.25,620.63Z"/>
    <path d="M983.06,619.84l.52.2q3.49-17.13,7-34.3l-.53-.2Q986.56,602.72,983.06,619.84Z"/>
    <path d="M986.29,618.93l.53.15Q989.4,603,992,586.87l-.53-.15Q988.87,602.83,986.29,618.93Z"/>
    <path d="M988.43,618.36l.53.12q2.16-15.3,4.32-30.63l-.53-.12Z"/>
    <path d="M981.38,617.28c2.53-.12,5-.27,7.58-.42v-.8c-2.53.15-5.05.3-7.58.42Z"/>
    <path d="M982.32,613.12q3.61-.18,7.22-.42v-.8q-3.6.24-7.22.42Z"/>
    <path d="M983.26,609c2.3-.12,4.59-.26,6.88-.4v-.8c-2.29.14-4.58.28-6.88.4Z"/>
    <path d="M984.2,604.8c2.18-.12,4.35-.25,6.53-.39v-.8c-2.18.14-4.35.27-6.53.39Z"/>
    <path d="M985.15,600.64c2.05-.11,4.11-.24,6.16-.38v-.8c-2,.14-4.11.27-6.16.38Z"/>
    <path d="M986.09,596.48l5.81-.36v-.8l-5.81.36Z"/>
    <path d="M987,592.31c1.82-.11,3.64-.22,5.46-.35v-.8c-1.82.13-3.64.24-5.46.35Z"/>
    <path d="M988,588.15l4.49-.29v-.8l-4.49.29Z"/>
    <path d="M996.19,588q1.86,11.19,3.7,22.37l.54-.23q-1.86-11.18-3.71-22.37Z"/>
    <path d="M997.58,586.84q2.55,11.61,5.11,23.21l.52-.29q-2.55-11.58-5.11-23.2Z"/>
    <path d="M999.31,586.59l5.58,23.19.51-.31q-2.77-11.58-5.57-23.18Z"/>
    <path d="M1001.6,587.74l5.59,21.73.51-.32-5.58-21.72Z"/>
    <path d="M999.78,608.41c2.39-.19,4.78-.4,7.17-.61V607c-2.39.21-4.78.42-7.17.61Z"/>
    <path d="M999.3,605.12q3.41-.27,6.81-.57v-.8l-6.81.57Z"/>
    <path d="M998.74,601.84c2.17-.17,4.35-.35,6.52-.54v-.8c-2.17.19-4.35.38-6.52.54Z"/>
    <path d="M998.16,598.57c2.09-.16,4.18-.34,6.26-.52v-.8c-2.08.18-4.17.36-6.26.52Z"/>
    <path d="M997.64,595.29q3-.22,5.94-.48V594l-5.94.48Z"/>
    <path d="M997.12,592l5.62-.45v-.8l-5.62.45Z"/>
    <path d="M996.56,588.73l5.33-.42v-.8l-5.33.42Z"/>
    <path d="M981.84,649.9c-4.21-4.09-9.67-3.54-13.19.21-4.55-4.33-8.53-3.58-13.19,1.12-3.07-3.94-9.66-4.73-13.3-1.78-3.07-3.33-9.1-4.08-12.62-.85,6.14-1.85,10,.66,12.62,3.67,3.3-3.79,9.44-3.64,13.53,1.29,3.75-6.36,10-5.67,13-.62,2.27-4.05,9.21-6.48,13.19-.88,5.11-6.08,10.23-4.26,12.61-1.94C990.48,644.27,985.93,646.87,981.84,649.9Z" style="fill: #00b800"/>
    <path d="M990.88,637.25a13.65,13.65,0,0,1-1.31.5c-.46-3-.91-11.23-.91-14.64a11.15,11.15,0,0,0,.79-1.13c0-.5,0-1.33-.05-2-3.5,1.1-5.8,1.76-9.84,3-2.25.66-2.73.87-3.81,3s-4.66,9.73-6.93,14.21c-11.71,1.3-33,1.23-42.92-2.43-2.5-.9-3.31.64-.34,1.82,8.64,3.7,48,6.81,66.11.65C992.46,639.8,991.67,636.87,990.88,637.25Z" style="fill: #cf6200"/>
    <path d="M993.83,612.73c-1,.07-1.48,0-1.87,2.2-2.16,11.92.82,28.31,9,37.19.57.62,1.28,0,.33-1.19a39.67,39.67,0,0,1-4.88-8.88c1.59-.15,4.82-.48,5.79-.62.46,2.75,1.91,8.52,2.2,9.49s1,1.05.65-.41c-.78-3.42-1.2-7.36-1.54-9.24,1.48-.18,4.27-.39,6-.69.09,3.14.31,7.35.37,8.51s.74,1.17.75-.16,0-6.94,0-8.6c1.92-.26,4.38-.64,5.29-.73-.13,1.8-.36,7.64-.45,8.57-.13,1.36.35,2,.58,0s.68-6.45.81-8.73c.77-.11,2.8-.46,3.65-.59a83.7,83.7,0,0,1-1.56,8.74c-.34,1.45.21,1.43.59.06a73,73,0,0,0,1.77-8.9l2.38-.36c.74-.12,1.78-1,2.23-2.7s1.87-8,2.38-10.68c-.61-1.25-1.21-2.51-1.82-3.77.4-3.36.91-7.9,1-8.82.91-.61,1.87-1.23,2.32-1.54a6.72,6.72,0,0,0-.56-3.37C1021.4,609.13,998.09,612.48,993.83,612.73Z" style="fill: #cf6200"/>
    <path d="M992.75,627c.17,4.72,2.1,11.08,2.73,12.86,1.31-.11,4.15-.44,6.48-.72-.4-1.78-1.15-9.4-1.45-12.94C998.52,626.41,994.4,626.83,992.75,627Z"/>
    <path d="M1001.88,626c.21,2.7,1.19,12,1.35,13,1.68-.28,5.6-.66,6.27-.81-.07-2.49-.34-11.81-.37-13.14C1007.36,625.36,1002.77,625.93,1001.88,626Z"/>
    <path d="M993.06,615.12a80,80,0,0,0-.28,9.7c2-.07,6.89-.62,7.57-.76-.17-2.47-.44-6.93-.61-9.72C998.12,614.58,994.14,615,993.06,615.12Z"/>
    <path d="M1001.19,614.19c.06,2.32.41,8,.53,9.71,1.72-.21,5.92-.71,7.35-.92-.08-2.12-.31-9-.34-9.78C1006.45,613.51,1002.64,614.05,1001.19,614.19Z"/>
    <path d="M1010.22,613c.07,2.15.26,8.23.2,9.81,1.83-.24,5.31-.65,6.39-.9.09-2.17.33-8.39.21-10C1015,612.28,1011.71,612.77,1010.22,613Z"/>
    <path d="M1018.06,621.76l7-1.16c.28-2.17.85-7.8,1-10.17-1.7.3-6.54,1.13-7.78,1.31C1018.28,613.57,1018.12,620,1018.06,621.76Z"/>
    <path d="M1018,623.88c-.19,4.22-.55,11.53-.72,13.21,2-.28,6.2-1,7.11-1.11.68-2.08,2.16-8.48,2.5-10.43-.51-1.1-.91-1.72-1.54-2.85C1023,623.1,1019.24,623.67,1018,623.88Z"/>
    <path d="M1010.69,638c1.33-.19,4.8-.62,5.31-.76.25-4.19.64-12.21.71-13.22-2.36.35-4.68.69-6.25.89C1010.46,626.44,1010.64,637.12,1010.69,638Z"/>
    <path d="M977.35,625.48c-1.37,3.28-6.43,13.44-7.05,14.62,3.52-.26,9-.66,10.35-.92-.09-2.67-.34-13.29-.34-14.61Z"/>
    <path d="M981.62,624.15c.06,3.4.29,12.46.35,14.87,1.74-.24,5-.73,6.26-1-.3-4.26-.85-14.45-1-15.69C985.8,622.83,982.92,623.73,981.62,624.15Z"/>
    <path d="M951.08,589.12q-16.79-.2-33.59-1.16c-.39,0-.45.48,0,.5q16.8.94,33.59,1.16C951.53,589.62,951.48,589.12,951.08,589.12Z"/>
    <path d="M951.09,588.72q-16.8-.19-33.59-1.15h0a.57.57,0,0,0-.59.63.62.62,0,0,0,.59.66q16.78.95,33.59,1.16h0a.59.59,0,0,0,.59-.63A.62.62,0,0,0,951.09,588.72Z"/>
    <path d="M977.48,549.2q-13.31.06-26.61-.39c-.4,0-.46.48,0,.49q13.3.47,26.61.4C977.93,549.7,977.88,549.2,977.48,549.2Z"/>
    <path d="M977.49,548.8q-13.31.08-26.61-.39a.54.54,0,0,0-.55.35.77.77,0,0,0,0,.56.54.54,0,0,0,.53.38q13.3.46,26.61.4h0a.65.65,0,0,0,0-1.3Z"/>
    <path d="M949.41,561.07q-14.89-.11-29.79-.8c-.39,0-.45.48,0,.5q14.89.69,29.78.8C949.86,561.57,949.81,561.07,949.41,561.07Z"/>
    <path d="M949.41,560.67q-14.89-.1-29.79-.8a.59.59,0,0,0-.59.64.71.71,0,0,0,.21.52.61.61,0,0,0,.38.14q14.89.69,29.78.8h0a.59.59,0,0,0,.59-.64A.61.61,0,0,0,949.41,560.67Z"/>
    <path d="M950.29,532.84q-15.59,0-31.15-.73c-.4,0-.46.48,0,.5q15.57.67,31.15.72C950.74,533.33,950.69,532.83,950.29,532.84Z"/>
    <path d="M950.29,532.44q-15.57,0-31.15-.72a.59.59,0,0,0-.54.35.83.83,0,0,0,0,.56.61.61,0,0,0,.54.38q15.58.68,31.16.72a.55.55,0,0,0,.38-.13.67.67,0,0,0,.21-.51A.6.6,0,0,0,950.29,532.44Z"/>
    <path d="M948.13,510.57q-15.14-.3-30.27-1.21c-.4,0-.46.47,0,.5q15.14.9,30.27,1.21C948.58,511.08,948.53,510.58,948.13,510.57Z"/>
    <path d="M948.13,510.17q-15.12-.3-30.26-1.21a.52.52,0,0,0-.55.34.83.83,0,0,0,0,.56.61.61,0,0,0,.54.4q15.14.9,30.27,1.21h0a.56.56,0,0,0,.53-.35.77.77,0,0,0,0-.56A.58.58,0,0,0,948.13,510.17Z"/>
    <path d="M979.48,496.74q-13,.79-26,1.1c-.4,0-.45.51,0,.5q13-.3,26-1.1C979.94,497.21,979.87,496.71,979.48,496.74Z" style="fill: #fff"/>
    <path d="M979.48,496.34h0q-13,.8-26,1.1a.63.63,0,0,0-.59.68.57.57,0,0,0,.58.62h0q13-.3,26-1.1a.6.6,0,0,0,.54-.4.77.77,0,0,0,0-.56A.55.55,0,0,0,979.48,496.34Z"/>
    <path d="M981.07,517.89q-14.36.72-28.71.83c-.4,0-.45.5,0,.5q14.35-.12,28.71-.83C981.52,518.37,981.47,517.87,981.07,517.89Z"/>
    <path d="M981.07,517.49q-14.36.72-28.71.83a.62.62,0,0,0-.59.67.7.7,0,0,0,.21.51.6.6,0,0,0,.38.12q14.35-.12,28.71-.83a.62.62,0,0,0,.38-.15.71.71,0,0,0,.21-.52A.58.58,0,0,0,981.07,517.49Z"/>
    <path d="M1009.26,546.08q-15.46,1.47-30.94,2.17c-.4,0-.45.52,0,.5q15.46-.71,30.94-2.17C1009.71,546.53,1009.66,546,1009.26,546.08Z"/>
    <path d="M1009.26,545.68q-15.46,1.47-30.94,2.17a.7.7,0,0,0-.38,1.19.54.54,0,0,0,.38.11q15.46-.72,30.94-2.17a.64.64,0,0,0,.38-.17.73.73,0,0,0,.21-.53A.54.54,0,0,0,1009.26,545.68Z"/>
    <path d="M1009.69,508.26q-15.8,1.29-31.61,1.77c-.39,0-.46.51,0,.5q15.81-.5,31.61-1.77C1010.14,508.72,1010.09,508.23,1009.69,508.26Z"/>
    <path d="M1009.7,507.86q-15.81,1.29-31.61,1.77a.64.64,0,0,0-.55.39.77.77,0,0,0,0,.56.52.52,0,0,0,.54.35q15.79-.49,31.61-1.77h0a.65.65,0,0,0,.58-.69A.54.54,0,0,0,1009.7,507.86Z"/>
    <path d="M980.47,576.77q-13.9.56-27.8.53c-.4,0-.46.5,0,.5q13.9,0,27.81-.53C980.92,577.26,980.87,576.76,980.47,576.77Z"/>
    <path d="M980.48,576.37q-13.9.55-27.81.53h0a.55.55,0,0,0-.53.38.77.77,0,0,0,0,.56.55.55,0,0,0,.54.36q13.9,0,27.81-.53h0a.61.61,0,0,0,.58-.66A.58.58,0,0,0,980.48,576.37Z"/>
    <path d="M1007.64,580.36q-12.21.9-24.43,1.31c-.4,0-.47.51,0,.5q12.22-.42,24.44-1.31C1008.09,580.83,1008,580.33,1007.64,580.36Z"/>
    <path d="M1007.65,580q-12.23.9-24.44,1.31h0a.61.61,0,0,0-.54.4.77.77,0,0,0,0,.56.52.52,0,0,0,.53.34q12.22-.42,24.45-1.31h0a.66.66,0,0,0,.59-.68A.56.56,0,0,0,1007.65,580Z"/>
    <path d="M1030.09,575.41a3.36,3.36,0,0,1-2.83.1,10.55,10.55,0,0,0-1.5-.49,69.06,69.06,0,0,1-1.52,11.83c-1.37.73-4.14.39-5.72-.16q-.62,3.33-1.14,6.14a10.5,10.5,0,0,0,6.35-.78c-.15,3.86-.5,7.4-1.92,10,2.32-.19,4.4-.95,5.16-2.23a2.88,2.88,0,0,1,.23-.34c1.08-2.75,1.11-6.17,1.36-8.5a3,3,0,0,0,2.28-1.21,2.36,2.36,0,0,1,1.93-1.17,5.91,5.91,0,0,0,3.06-1.34,18.5,18.5,0,0,1,.46-3.63,24.77,24.77,0,0,0,.45-2.9c-1.69,1.43-5.47,3.91-7,4A27.87,27.87,0,0,0,1030.09,575.41Z" style="fill: #ef072d"/>
    <path d="M1030.1,584.28a29.24,29.24,0,0,0,.25-9l-.07-.34-.25.1a3.2,3.2,0,0,1-2.68.11,8,8,0,0,0-1.52-.5l-.32-.08c0,.16,0,.32,0,.48a71.6,71.6,0,0,1-1.44,11.5c-1.28.59-3.78.35-5.44-.23l-.27-.09q-.66,3.48-1.3,7l.28.06a10.65,10.65,0,0,0,6.12-.64c-.18,3.86-.58,6.92-1.84,9.2l-.37.69.57-.05.44,0c1.41-.16,4-.69,4.94-2.34a1.45,1.45,0,0,1,.19-.29l.07-.11a25.42,25.42,0,0,0,1.24-7c0-.47.08-.91.12-1.33h0A3.22,3.22,0,0,0,1031,590a2.16,2.16,0,0,1,1.72-1,5.89,5.89,0,0,0,3.18-1.38l.16-.12v-.26a18.6,18.6,0,0,1,.45-3.51,28,28,0,0,0,.46-3c0-.26.06-.51.08-.77l-.47.4C1035,581.76,1031.73,583.86,1030.1,584.28Zm5.94-.77a19.32,19.32,0,0,0-.48,3.49,5.15,5.15,0,0,1-2.77,1.18,2.68,2.68,0,0,0-2.15,1.31,2.71,2.71,0,0,1-2.06,1.07h-.25l0,.37c0,.52-.1,1.1-.15,1.71a23.93,23.93,0,0,1-1.15,6.58,3.78,3.78,0,0,0-.22.33c-.59,1-2.25,1.75-4.4,2,1.13-2.47,1.48-5.62,1.63-9.53,0-.18,0-.35,0-.53l-.35.16a10.39,10.39,0,0,1-5.95.83l1-5.33c1.59.49,4.21.8,5.61.05l.12-.06,0-.18A67.9,67.9,0,0,0,1026,575.5a8.06,8.06,0,0,1,1.14.4,3.45,3.45,0,0,0,2.73,0,28.12,28.12,0,0,1-.44,8.73c-.06.19-.11.38-.17.57l.41,0h.09c1.55-.19,4.83-2.31,6.6-3.7C1036.27,582.3,1036.15,583,1036,583.51Z"/>
    <path d="M981.46,426.86c3.36.27,7.91,0,7.91-1.31s-5.24-3.43-7.42-3.62c2.08-.82,5.24-2.75,6.72-5.29.88-1.51-.17-1.78-3.26-1.69-9.49.24-14.23.49-19.17-3.52-7.91-6.43-12.43-13.4-16.31-16.34-2.07-1.58-3.34-5.25-4.14-8.42-2.57-10.13-2.44-14.66-8.47-18.05s-13,.49-16.12,4.56c-3.47.05-11-.18-12.58,1s-2.28,1.77.49,2.62,7.46,3,10,5.39,4.72,6.55,4,12.36c-2.12,17.45,4.15,34.55,13.24,41,.88.62,1.09,1.09.89,3.47s-.79,6.35-1.28,7.35-.74,2.67.84,1.89c-1.09,2.95-3.51,8.83-4.25,10.33-7.27-1.43-13.2-.21-13.74,10.89-.06,1.08.2,2.82,1.33.12s2.42-5.26,5.53-5.9c-1.82,4.07-2.41,7.73-2.12,10.13s.74,3.85,1.53.83a18.54,18.54,0,0,1,3.81-7.48c.59-.63,1-.77.54,1.1a13.42,13.42,0,0,0,1.09,7.32c.89,1.38,1.34.82,1.09-1.42s.14-6.92,2-8.35c2.72-2,5-.94,6.13,1.82s2,.16.84-3-2.42-5.29-4.4-5.53c1.73-4.46,3.76-9.86,4.2-10.93s1.14-1.58,1.73-.93,1,.58,1.59-1.22,1.62-7.14,3.11-9.31a6.07,6.07,0,0,0,2.37-1.31c1.93,4.11,3.66,8.65,4.1,9.66a4.17,4.17,0,0,1,.5,3.53c-.45,2.1-2,8.76-2.23,10.2-5.39.33-7.85.44-9.59,4.84-.75,1.92.45,2.68,1.74,1.67s3.11-1.87,4-1.65,1.38.91.44,1.59c-3.31,2.39-5.38,5.4-5.24,9.59,0,1.52.48,2.27,1.29.23,1.14-2.89,3.21-5.77,5.73-6.58-.15,3.54.4,8.74,1.88,9.81s1.58,0,1-2.1a11.48,11.48,0,0,1,1.14-8.47c2.32-3.77,7.61,1.33,8.6,2.61s1.89,1.79,1.34-1.56c-.75-4.45-5.1-6.95-8.8-7.63,1-7.31,3.8-22.08,5.29-27.17,2.17,1.69,3.87-2.91,7.51-1.05,6.12,3.15,15.31,11.07,16.9,12.84s2.17,1.32,3,.26,2.18-.13,3.26.08,2.08.59.69-3.36A41.76,41.76,0,0,0,981.46,426.86Z"/>
    <path d="M983.43,435.46c1.36,1.34,2.1.46,1.08-1.22a50.53,50.53,0,0,0-4.26-5.76,3,3,0,0,0-2.73-1.2c-1.82-.08-5.69.07-6.82.11s-1.48.22,1,1.46,7.62,5.82,8.75,6.93,1.94,3.72-.57,1.52-10.34-9-15.57-11.55c-11.94,1.46-21.37,3.73-28.42-7.65-3.38-5.47-3.53-17.82,2.15-22.89-1.13-1.43-1-2.26-.51-2.59s.63-.65.17-1.49-.39-1.58,0-1.9A4.17,4.17,0,0,1,936,385.8c-1.53-.52-2.21-3.19-4.26-2.4s-3.07.1-3.69-.66a2.19,2.19,0,0,0-2.28-1,1.75,1.75,0,0,1-2.1-1.39c-.06-.83,1-1.2,2.5-.17,3.24,2.16,5.85,3.21,7.84-.66s-.56-7.55-4.37-8.72-6.6,2.81-8,4.68c-1.53-.14-4.55-.77-7.05-.52-.57.06-1.25.45.12.76a40.72,40.72,0,0,1,6.36,2.47c1.31.71.74,1.69-.4,1.23s-1.55.15-.62,1.15c4.83,5.14,5.34,7.06,4.09,24.12a20.55,20.55,0,0,0,2.45,2.23c.79.6.57,1.43-.29,1.07s-1.65.37-.28.82,2,1.39.68,1.27-2.84,1.5-.28,1.15,3.58,1.42.57,1.43-1.88,1.44-.29,1.49c2.84.07,2,1.21,1.25,1.19s-1.08,1.39.8,1.19a9.52,9.52,0,0,1,3.29-.1c.69.18,1,1-.05,1.08s-1,1.14.57,1.17,2.17.71.79,1.09c-.57.16-1.35.56.29.92,2.84.63,2.95,1.62,2,1.78s-1,.9.29,1.08,2.44.78,1.36,1.18-1.65,1.31-.29,1.49,2.51.95,1.48,1.43-1.25,1.4.06,1.33,1.82,1,.91,1.75-1.54,1.23-2.1-.1-.91-1.76-1.08-.76-.57.32-1-1.18-1.26-1.93-1-.76-.79,1.31-1.76.71c3.58,5.38,8.87,10.29,17.28,5.27.72-.42.85,0,1.42,1.74s2.16,5.55,2.73,6.95,1,.13,1.3-1.26c1.14-5.49,2-9.57,2.34-11.07s1.93-3,1.42,2.21c1.25-1.26,6.79-2.55,11.08-.36a50.35,50.35,0,0,1,11.89,8.71,2.09,2.09,0,0,0,2.15.8c1.14-.23,1.42-.49-.74-3.28S982.07,434.12,983.43,435.46Z" style="fill: #fff"/>
    <path d="M983.27,435.79c.8.79,1.51.94,1.84.39.14-.24.39-.93-.4-2.22a48.76,48.76,0,0,0-4.31-5.81l-.22-.23c-.65-.66-.94-1-2.65-1-1.21-.05-3.51,0-6.83.11-.67,0-1.08.06-1.14.55s.12.72,2.07,1.68c2.48,1.24,7.55,5.79,8.69,6.89a3.9,3.9,0,0,1,1,1.64c-.13,0-.46-.12-1.23-.8-3-2.63-10.55-9.11-15.63-11.58l0,0h-.06l-3.41.44c-10.34,1.33-18.52,2.18-24.79-8-1.76-2.84-2.61-7.64-2.18-12.23.42-4.39,1.94-8,4.28-10.05l.32-.29-.29-.36c-.73-.91-.77-1.41-.76-1.58a.47.47,0,0,1,.19-.34,1.21,1.21,0,0,0,.58-.84,2,2,0,0,0-.31-1.25,1.78,1.78,0,0,1-.26-1,.49.49,0,0,1,.18-.33l.42-.35-.43-.35a3.71,3.71,0,0,1-1.61-3.05c0-.11,0-.23,0-.34l-.23-.08a3.75,3.75,0,0,1-1.41-1.16c-.74-.83-1.6-1.77-3-1.24-2,.79-2.94.05-3.45-.58a2.42,2.42,0,0,0-2.48-1.07,1.49,1.49,0,0,1-1.8-1,.25.25,0,0,1,.07-.2c.27-.28,1-.26,2,.42,3.05,2,6,3.5,8.17-.78a6.18,6.18,0,0,0,.56-4.45,7.36,7.36,0,0,0-5.1-4.9c-3.77-1.15-6.56,2.52-8,4.5l-.12.16-1.34-.17a24.41,24.41,0,0,0-5.64-.33c-.34,0-.92.17-.92.72s.51.7,1,.82a38.52,38.52,0,0,1,6.31,2.46,2,2,0,0,1,.58.45c0,.08-.32.22-.82,0-.77-.31-1.28-.2-1.43.3-.1.32-.08.84.58,1.55,4.71,5,5.24,6.64,4,23.75l0,.24.14.13a20.33,20.33,0,0,0,2.48,2.26c.26.2.33.41.35.37s-.15.09-.45,0a1,1,0,0,0-1.24.21.73.73,0,0,0-.1.58c.07.36.37.62.93.8a3.3,3.3,0,0,1,1,.49h-.22a2,2,0,0,0-1.89.95.81.81,0,0,0,0,.63c.12.27.41.54,1.62.37a2.78,2.78,0,0,1,2.05.33,2.69,2.69,0,0,1-1.52.3c-1.47,0-2.15.33-2.15,1s1,1.23,1.87,1.26a3.3,3.3,0,0,1,1.61.29.62.62,0,0,1-.36.1.86.86,0,0,0-.79.59,1.05,1.05,0,0,0,0,.8c.15.34.55.7,1.59.59a9.67,9.67,0,0,1,3.23-.1.71.71,0,0,1,.34.2.78.78,0,0,1-.37.09.9.9,0,0,0-.95.9c0,.65.59,1.05,1.54,1.07a3.09,3.09,0,0,1,1.09.18,2.32,2.32,0,0,1-.35.12c-.65.18-.93.43-.92.84s.44.69,1.22.86a4.68,4.68,0,0,1,2.25.93.6.6,0,0,1-.2.06c-.6.1-.94.43-.93.91s.42.86,1.22,1a4.17,4.17,0,0,1,1.35.39h0c-.31.11-1.34.56-1.29,1.41s.8.83,1.05.86a3.34,3.34,0,0,1,1.56.57l-.14.08c-.71.34-1.1.86-1,1.4s.46.75,1.18.71,1,.27,1.08.48-.06.32-.32.52c-1,.79-1.32,1-1.73,0s-.75-1.57-1.11-1.49-.43.65-.47.84a.17.17,0,0,1,0,.07,6.56,6.56,0,0,1-.49-1.31c-.35-1.13-.9-1.83-1.31-1.63-.12.06-.39.3-.23,1.13,0,.29,0,.37,0,.4-.17.23-.73.23-1.36-.15-.41-.26-.82-.52-1.24-.77.32.47.63.94.94,1.41,3.24,4.86,8.59,10.73,17.58,5.36.45-.27.48-.28,1.07,1.54.47,1.44,1.6,4.18,2.34,6,.13.34.27.67.4,1,.22.54.47.81.73.81h.07c.4-.08.72-.76,1-2.15,1.31-6.34,2-9.76,2.33-11.07.15-.68.58-1.19.73-1.14s.4.69.16,3.18l-.09.9.51-.52c1.15-1.16,6.57-2.49,10.84-.31a50,50,0,0,1,11.81,8.66,2.31,2.31,0,0,0,2.35.87c.45-.09,1-.2,1.09-.77s-.25-1.37-1.67-3.21c-1.14-1.48-1.29-2.43-1.17-2.64S982.74,435.28,983.27,435.79Zm-.14,2.88a8.77,8.77,0,0,1,1.54,2.36c-.06.08-.27.15-.65.23a1.89,1.89,0,0,1-2-.73,50.45,50.45,0,0,0-11.95-8.77c-3.87-2-8.89-1.21-10.85,0,.14-2-.08-3.12-.64-3.3s-1.16.74-1.37,1.68c-.31,1.33-1,4.65-2.34,11.08-.3,1.5-.54,1.59-.55,1.59h0s-.11-.07-.25-.42-.28-.67-.41-1c-.69-1.69-1.85-4.52-2.32-5.94s-.69-2.1-1.23-2.1a1.08,1.08,0,0,0-.53.18c-8.07,4.82-13.11.27-16.29-4.16a1,1,0,0,0,.94-.35,1.44,1.44,0,0,0,.19-1.21v0a3.07,3.07,0,0,1,.51,1.08c.42,1.38.71,1.91,1.08,1.88s.38-.28.46-.76a1.43,1.43,0,0,1,0-.2,5.48,5.48,0,0,1,.53,1.07c.72,1.67,1.61.94,2.47.24a1.38,1.38,0,0,0-1-2.5,1.1,1.1,0,0,1-.58-.07,1.57,1.57,0,0,1,.62-.48.86.86,0,0,0,.58-.88c-.09-1-1.91-1.3-2.12-1.32a1.17,1.17,0,0,1-.51-.16,1.92,1.92,0,0,1,.84-.55.81.81,0,0,0,.63-.8c0-.77-1.29-1.06-2-1.17a1.65,1.65,0,0,1-.62-.18,1.31,1.31,0,0,1,.35-.11.77.77,0,0,0,.74-.79c0-.77-.93-1.36-2.79-1.77l-.38-.1.12,0c.47-.13,1-.35,1-.95-.05-.78-1.17-.92-1.82-.93a1.49,1.49,0,0,1-.94-.26.68.68,0,0,1,.38-.11c.79-.06.92-.53.93-.81a1.07,1.07,0,0,0-.84-1.06,9.67,9.67,0,0,0-3.37.09c-.81.08-1.06-.16-1.08-.2a.33.33,0,0,1,.31-.19,1,1,0,0,0,1-.9.89.89,0,0,0-.63-.84,4.85,4.85,0,0,0-1.62-.25,2,2,0,0,1-1.26-.43,3.06,3.06,0,0,1,1.55-.26c1.19,0,1.88-.27,2.06-.78a.89.89,0,0,0,0-.68c-.29-.62-1.37-.94-2.63-.76a3.26,3.26,0,0,1-.93,0,1.83,1.83,0,0,1,1.23-.38c.26,0,.94.08,1-.57.08-.88-1.33-1.39-1.62-1.49l-.3-.12a.82.82,0,0,1,.46.08c.65.27,1,0,1.09-.42a1.36,1.36,0,0,0-.61-1.4,18.61,18.61,0,0,1-2.28-2.06c1.22-16.63.8-18.9-4.22-24.25a2.75,2.75,0,0,1-.4-.54c.06,0,.3-.1.8.1.74.3,1.34.08,1.47-.52.05-.27.07-.94-.92-1.47a41.2,41.2,0,0,0-6.33-2.48,26.06,26.06,0,0,1,5.34.35c.56.08,1.06.15,1.46.19h.11c.1-.13.19-.26.29-.38,1.42-1.88,4.07-5.39,7.57-4.32a6.74,6.74,0,0,1,4.7,4.4,5.1,5.1,0,0,1-.49,3.69c-1.78,3.46-4,2.87-7.51.53-1.1-.73-2.09-.86-2.59-.35a1.2,1.2,0,0,0-.29.93,2,2,0,0,0,2.4,1.75,2,2,0,0,1,2.07.88c1,1.18,2.21,1.42,3.94.75,1.14-.44,1.78.27,2.52,1.1a4.85,4.85,0,0,0,1.4,1.21,4.49,4.49,0,0,0,1.58,3.2,1.66,1.66,0,0,0-.12.45,2.68,2.68,0,0,0,.36,1.63,1.18,1.18,0,0,1,.21.58s-.06.14-.29.31a1.25,1.25,0,0,0-.49,1,3,3,0,0,0,.68,1.93c-2.31,2.25-3.81,5.89-4.23,10.33-.46,4.81.45,9.87,2.32,12.88,6.45,10.43,14.74,9.58,25.23,8.22l3.35-.42c5,2.45,12.49,8.87,15.47,11.48,1.12,1,1.73,1.17,2,.59.33-.74-.43-2.12-1.12-2.79-1.15-1.11-6.28-5.72-8.82-7-.6-.3-1-.52-1.26-.68h.15c3.31-.12,5.6-.16,6.8-.11,1.55.07,1.77.3,2.35.9l.24.24a48.42,48.42,0,0,1,4.21,5.69c.45.74.42,1.12.4,1.16s-.43.13-1.12-.55-1.36-.76-1.68-.17C981.48,435.74,981.93,437.13,983.13,438.67Z"/>
    <path d="M970.13,419c-2.11-2.16-8.64-8.3-10.46-10.27s-1,.43-.86,1.18a1.17,1.17,0,0,1-2,.78c-.74-.91-1.25-1.9-.22-2.74s1.25-.93-.29-2.9-2-1.8-1.64-.15.45,3.48-1.14,2.59-2.39-2-1.37-2.9,2.34-1.43.63-3.49-1.19,0-1.59,1.18a1.36,1.36,0,0,1-2.45.26c-.74-.91-1.08-1.82-.57-2.57s.46-1.17,1.2-.59,1.87.24.51-1.5-1.88-1-1.59,0-.8,2.74-2.5.42c-.81-1.1-.8-2.58.06-2.83s.93-.89.33-2.16c-3.46-7.39-2-13.36-5.51-18.86a13.15,13.15,0,0,0-4.2-4c-1-.52-1.14,1-.57,1.73-.46,1-.63,3.4.17,4.08a1.29,1.29,0,0,1,.06,2.15c-1.14.81-.76,5.23,1,4,.57-.41,1-.24.91.43s.11,1.49.62,1.66.46,1.25.34,1.67.06.58.63.67.63,2.08-.4,2.74c1.25,0,1.59-.32,1.94,1.18s1.7,1.83,1.7,3.65-.23,2.16-1.7,1.82a2,2,0,0,0-2.51,1.14c-.45.83-.57,1.66.57,1.75s1.37.84.23,1.58-3,.22-3.29,1.79,0,2.32.84,1.75,2.62-1.63,3.3-2.2,1.31-.66,1.88.68.11,2.82-.85,1.65-1.43-.1-2,.56A3,3,0,0,1,937,406c-.9,0-1.53.15-1.41,3.14.34,9,5.11,15.71,13.86,15.52s13.08-.51,14.39-.29c-2.9-2.25-4.72-3.47-5.75-3.29s-1.87.45-1.42-.72,0-1.17-.51-1.66-1-1.15-1.93.28a10.13,10.13,0,0,1-4.15,3.35c-1.08.34-2.39.26-1.36-1.24s3.29-2,4-2.68a1.82,1.82,0,0,0,.68-1.58c0-.5-.17-1.91,1.14-.84,2.61,2.13,6.7,5.29,7.78,5.18s1.82-.79.86-1.68a2.75,2.75,0,0,1-1-2.72c.28-.5.45-1,2.16.37a63,63,0,0,0,5.51,3.73C970.87,421.49,972.23,421.19,970.13,419Z" style="fill: #fff"/>
    <path d="M970.29,418.69c-1-1-2.93-2.88-5-4.85-2.22-2.15-4.52-4.38-5.48-5.41-.74-.8-1.16-1-1.43-.7s-.12,1.26.08,2a2.48,2.48,0,0,1,.07.3s-.06.22-.3.39a.9.9,0,0,1-1.25-.05,2.32,2.32,0,0,1-.7-1.4,1,1,0,0,1,.43-.68l.09-.08c.5-.41.82-.68.86-1.2s-.31-1.15-1.19-2.28c-1-1.34-1.61-1.75-2-1.41s-.24,1.07-.11,1.69c.33,1.63.16,2.08.08,2.2s-.44.13-.86-.11c-1.18-.66-1.63-1.27-1.65-1.61a.81.81,0,0,1,.33-.57c.13-.12.28-.24.42-.35a2.45,2.45,0,0,0,1.16-1.69,3.1,3.1,0,0,0-.92-2.09c-.69-.83-1.09-1.1-1.41-.92s-.39.74-.45,1.28a4.28,4.28,0,0,1-.16.94,1,1,0,0,1-.63.65,1.36,1.36,0,0,1-1.39-.51,2.64,2.64,0,0,1-.72-1.46.88.88,0,0,1,.17-.53c.11-.17.2-.33.28-.46.21-.36.21-.36.59-.06s1.2.46,1.46-.09,0-1.21-.64-2.06c-1.05-1.33-1.59-1.26-1.87-1a1.54,1.54,0,0,0-.16,1.44.91.91,0,0,1-.22.82c-.16.17-.78.59-1.83-.86a2.21,2.21,0,0,1-.49-1.64.6.6,0,0,1,.41-.5,1.18,1.18,0,0,0,.89-.83,2.88,2.88,0,0,0-.38-1.94,34,34,0,0,1-2.66-9.7c-.54-3.24-1-6.29-2.88-9.21a13.44,13.44,0,0,0-4.32-4.14.75.75,0,0,0-1.15.41,2.22,2.22,0,0,0,.16,1.75,6.86,6.86,0,0,0-.25,3,2.25,2.25,0,0,0,.62,1.37,1.13,1.13,0,0,1,.47.82.83.83,0,0,1-.4.63c-.84.6-1,2.62-.57,3.89.36,1,1,1.36,1.78.83.31-.23.5-.19.53-.16a.31.31,0,0,1,0,.13,2.76,2.76,0,0,0,.15,1.43,1.21,1.21,0,0,0,.68.72.29.29,0,0,1,.15.17,2.08,2.08,0,0,1,0,1,1.14,1.14,0,0,0,0,.71c.14.33.44.44.84.51.07,0,.13.16.15.37a1.76,1.76,0,0,1-.63,1.6l-1.18.75h1.29a5.36,5.36,0,0,0,.58,0c.78,0,.88,0,1.1.92a4,4,0,0,0,.9,1.68,2.75,2.75,0,0,1,.79,1.85,2.78,2.78,0,0,1-.18,1.4c-.19.23-.72.14-1.21,0a2.17,2.17,0,0,0-2.76,1.28,2.14,2.14,0,0,0-.33,1.65,1.11,1.11,0,0,0,1.1.75,1.13,1.13,0,0,1,.71.23s0,.24-.58.59a4.24,4.24,0,0,1-1.37.44c-.91.17-1.85.35-2.08,1.61a2.88,2.88,0,0,0,.17,2.21c.25.31.61.31,1.06,0L938,404c.89-.57,1.89-1.21,2.39-1.62s1-.57,1.51.54a1.79,1.79,0,0,1,.11,1.41c-.1.12-.32,0-.56-.27-1-1.21-1.62-.38-2.08.22a4.19,4.19,0,0,1-.26.33,2.8,2.8,0,0,1-2.16,1,1.32,1.32,0,0,0-1.27.55,5.43,5.43,0,0,0-.42,3c.38,9.79,5.66,15.93,13.83,15.9h.32c1.85,0,3.5-.09,5-.14a91.79,91.79,0,0,1,9.37-.15l1.44.24L964,424c-2.9-2.25-4.8-3.54-5.9-3.33l-.27,0a5.24,5.24,0,0,1-1,.14,1.14,1.14,0,0,1,.09-.32c.45-1.17.11-1.58-.32-1.93a2.2,2.2,0,0,1-.29-.27c-.45-.48-1.21-1.3-2.27.35a9.82,9.82,0,0,1-4,3.24c-.84.26-1.34.14-1.4,0a1.36,1.36,0,0,1,.29-.61,6.44,6.44,0,0,1,2.62-1.85,5.33,5.33,0,0,0,1.32-.78,2.28,2.28,0,0,0,.8-1.91v-.18a1.54,1.54,0,0,1,0-.64s.14-.11.68.33c4.31,3.51,7,5.25,7.89,5.23h0c.41,0,1.38-.23,1.54-1.09a1.43,1.43,0,0,0-.56-1.33,3,3,0,0,1-.93-1.74.64.64,0,0,1,.07-.45c.18-.33.34-.62,1.78.53a61.68,61.68,0,0,0,5.53,3.75c.54.34,1.44.57,1.71-.13S971.31,419.74,970.29,418.69Zm-21.77-21.41c.05,0,.41-.06,1.19.93.55.7.55,1,.55,1s-.41.12-.75-.15a1.18,1.18,0,0,0-.66-.32.45.45,0,0,0-.34.17,2,2,0,0,0,0-1.14C948.47,397.48,948.49,397.31,948.52,397.28ZM970,420.49a60.46,60.46,0,0,1-5.49-3.72c-1.56-1.26-2-1.12-2.5-.27a1.73,1.73,0,0,0-.15,1,3.75,3.75,0,0,0,1.18,2.29c.29.26.33.43.32.46s-.31.41-1,.48c-.38.05-1.8-.38-7.64-5.13-.56-.46-1-.55-1.24-.3s-.32,1-.31,1.35v.14a1.38,1.38,0,0,1-.57,1.25,5.46,5.46,0,0,1-1.19.68,6.89,6.89,0,0,0-2.83,2.05,1.84,1.84,0,0,0-.39,1.53c.31.81,1.5.54,2,.38a10.47,10.47,0,0,0,4.29-3.47c.72-1.14,1.1-.73,1.57-.23a4.26,4.26,0,0,0,.32.3c.32.26.34.27.11.84a1.59,1.59,0,0,0-.08,1.12c.22.49.77.39,1.52.25l.25-.05c.84-.15,2.35.79,4.51,2.41-1.52,0-4.12.1-8.21.23-1.47,0-3.12.1-5,.14-8,.15-13.23-5.69-13.59-15.14a4.87,4.87,0,0,1,.27-2.42c.17-.26.44-.3.87-.3a3.26,3.26,0,0,0,2.51-1.14l.28-.35c.27-.37.48-.64.74-.64s.37.13.62.43c.71.84,1.15.41,1.27.26a2.67,2.67,0,0,0,0-2.43c-.57-1.34-1.31-1.61-2.25-.82a24.16,24.16,0,0,1-2.33,1.58l-.94.61c-.28.18-.43.17-.48.11s-.16-.48,0-1.39c.12-.69.7-.85,1.63-1a4.21,4.21,0,0,0,1.51-.5c.67-.43,1-.92.9-1.44s-.3-.83-1.22-.91c-.41,0-.6-.17-.63-.28a1.43,1.43,0,0,1,.26-.82,1.71,1.71,0,0,1,2.24-1c.79.18,1.32.2,1.65-.22a3.26,3.26,0,0,0,.38-2,3.6,3.6,0,0,0-1-2.46,3.43,3.43,0,0,1-.75-1.33c-.31-1.38-.74-1.49-1.41-1.47a3.18,3.18,0,0,0,.28-1.67c-.06-.6-.31-1-.63-1.05s-.42-.13-.4-.12a3.12,3.12,0,0,0,0-1.63.88.88,0,0,0-.51-.58.59.59,0,0,1-.33-.36,1.61,1.61,0,0,1-.09-.82,1.16,1.16,0,0,0-.17-.93c-.25-.29-.67-.27-1.12.05s-.83.18-1.05-.46c-.31-.91-.2-2.44.33-2.82a1.65,1.65,0,0,0,.7-1.32,2,2,0,0,0-.75-1.54,1.53,1.53,0,0,1-.36-.85,5.36,5.36,0,0,1,.29-2.65c0-.1.08-.19.13-.29l-.18-.23a1.19,1.19,0,0,1-.21-1c.09-.24.39-.13.51-.07a13,13,0,0,1,4.09,3.93c1.74,2.76,2.21,5.58,2.74,8.85a35.65,35.65,0,0,0,2.75,10c.36.76.35,1.07.32,1.19s-.21.27-.49.35a1.28,1.28,0,0,0-.83,1.06,3.29,3.29,0,0,0,.64,2.45c1.23,1.68,2.1,1.29,2.43,1l0,.07a1.82,1.82,0,0,0-.32,1.13,3.39,3.39,0,0,0,.91,2,1.78,1.78,0,0,0,1.85.68,1.6,1.6,0,0,0,1-1.07,5.53,5.53,0,0,0,.21-1.18,5.06,5.06,0,0,1,.1-.65s.2,0,.86.78.75,1.19.73,1.41c0,.37-.46.72-.88,1.06l-.44.37a1.59,1.59,0,0,0-.58,1.32c0,.81.7,1.56,2,2.29.66.37,1.12.35,1.43-.06s.39-1.46.07-3a3.87,3.87,0,0,1-.1-.76c.12,0,.46.25,1.3,1.33a5.89,5.89,0,0,1,1,1.59c0,.11-.34.39-.58.59l-.1.07a1.86,1.86,0,0,0-.71,1.3,3.13,3.13,0,0,0,.9,2.09,1.34,1.34,0,0,0,2,0,1.28,1.28,0,0,0,.38-1.19l-.08-.34a7.31,7.31,0,0,1-.22-1,3.29,3.29,0,0,1,.73.65c1,1,3.28,3.28,5.51,5.44,2,1.88,4,3.82,5,4.84a4.23,4.23,0,0,1,1,1.34C970.88,420.78,970.45,420.79,970,420.49Z"/>
    <path d="M940.3,376.64c-.68.65-.83,2.53.31,2.32a2.46,2.46,0,0,0,1.55-1.38,16,16,0,0,0-.9-2.1C941,376.13,940.85,376.1,940.3,376.64Z" style="fill: #cf6200"/>
    <path d="M937.12,373.06c.53,0,.3.11-.08,1a.7.7,0,0,0,1.22.68c.45-.66.53-.88.75,0,.19.72.94.05,1.41-.65a14.1,14.1,0,0,0-2.72-2.82C936.83,372.5,936.67,373.05,937.12,373.06Z" style="fill: #cf6200"/>
    <path d="M938.48,380.27c-1.59,0-2-.47-.53-1.78,1.36-1.17.47-2-1.4-1.65a1.21,1.21,0,0,1-.41,1.57c-1.14.81-.76,5.23,1,4,.57-.41,1-.24.91.43a2.15,2.15,0,0,0,.1,1.07,5.79,5.79,0,0,0,1.89-2C941.06,380.18,940.07,380.28,938.48,380.27Z" style="fill: #cf6200"/>
    <path d="M943.26,385.62a1.44,1.44,0,0,0,.48-.61c-.26-1.46-.46-2.87-.73-4.24-.48.2-1,1.75-1.19,2.52-.23,1.1-.46,1.76-1.21,1.42s-1.35.8-1.49,2a1.18,1.18,0,0,0,.48.15c.32.05.47.67.38,1.34,2-.08,2.4,2,2.75,3.41s.83,1.33,1.14.45-.38-2.43-1.22-3.77S942.35,386.28,943.26,385.62Z" style="fill: #cf6200"/>
    <path d="M951,423.08c-1.29-.16-2.24-.43-2.54-1.81s-.57-2.11.15-3.27,1.44-2.05,1-4-1.11-4.2-2.62-4.81-1-3.63-2.54-3.93c-.57-.11-1.06-.11-1.21.39-.37,1.22-.38,1.1-1.6,1.2s-2.73.39-3.4,1.41c-.37.55-2.46.67-2.47,2s0,2.49.91,2.58,1,.27.69,1.26-.57,2.65,1,2.83,2.73-.55,3.12.77,0,3.45.29,4.24,1.39,1.3,3.06,2.06a19.51,19.51,0,0,0,6.59.56C952.76,424.36,952.28,423.24,951,423.08Z" style="fill: #ff0"/>
    <path d="M942.67,431.85c-.51.83-.62-.33-.57-2.07,0-1.47-.62-1.08-.85-.17s-.74-.59-.46-1.5,0-1.25-.56-1-.57,0-.63-1.67-.57-1.41-.74-.75-.62-.26-1.31-1.6c-.59-1.17-1.28-.49-2.47.18a1.66,1.66,0,0,0,.83.3c1.3.19,2.44.78,1.36,1.18s-1.65,1.31-.29,1.49,2.51.95,1.48,1.43-1.25,1.4.06,1.33,1.82,1,.91,1.75-1.54,1.23-2.1-.1-.91-1.76-1.08-.76-.57.32-1-1.18-1.26-1.93-1-.76-.79,1.31-1.76.71a24.2,24.2,0,0,0,3.24,4,5.26,5.26,0,0,1,3.47,0,9.4,9.4,0,0,1,3.29,1.44c1,.75,1.6-.58,1.2-2.08S943.18,431,942.67,431.85Z" style="fill: #cf6200"/>
    <path d="M943.64,432c.4,1.5-.23,2.83-1.2,2.08a9.4,9.4,0,0,0-3.29-1.44c-.53-.08-2.1-.7-3.5,0,3.38,3.31,7.86,5,14.07,1.29a16,16,0,0,1-3.58.68C945.12,434.69,944.49,433.61,943.64,432Z" style="fill: #ff0"/>
    <path d="M935,389.85c-.68.1-1-.13-1.75-.58s-1.74.08-1.89,2.07a6.05,6.05,0,0,1-2.12,4.15,5.32,5.32,0,0,0-1.82,4.17,6.58,6.58,0,0,1-1.06,4c-.34.63-.82,1.34-1.26,2.1a16.92,16.92,0,0,0,1.43,1.22c.79.6.57,1.43-.29,1.07s-1.65.37-.28.82,2,1.39.68,1.27-2.84,1.5-.28,1.15,3.58,1.42.57,1.43-1.88,1.44-.29,1.49c2.84.07,2,1.21,1.25,1.19s-1.08,1.39.8,1.19l.08,0a4.55,4.55,0,0,0,.62-1.55c.3-1.32.6-5.19,1.67-6.27a5.8,5.8,0,0,0,1.59-3.73c0-1.11,1.59-6,2.65-7.15s1.52-3.85,1.14-5.74S935.68,389.75,935,389.85Z" style="fill: #ff0"/>
    <path d="M934.24,392.16c-1.08-1.06-2.13-.48-2.13,1.52a3.15,3.15,0,0,1-1.59,3.17,5.87,5.87,0,0,0-1.89,3.84c-.15,1.54.15,2.54-.61,3.74s-.83,2.19-.3,2.87a3.2,3.2,0,0,1,.76,1.79c.23,1,1.51-.07,1.51-1.18s.31-1.1,1.14-1.74,2.2-3.84,1.89-4.73-1-1.68-.07-2.88,2-1.29,2-2.51a3.07,3.07,0,0,1,.6-2.09C935.91,393.52,934.92,392.84,934.24,392.16Z" style="fill: #cf6200"/>
    <path d="M934.24,390.51c-.71-.42-1.14,1.75-.15,2.1S935.23,391.07,934.24,390.51Z"/>
    <path d="M934,393.32c-.75.12-1.59,1.55-.34,1.32S935.45,393.1,934,393.32Z"/>
    <path d="M932.55,396c-.77.55-.62,2.06.51,1S934.49,394.66,932.55,396Z"/>
    <path d="M931.34,398.31c-.78.55-.63,2.06.51,1S933.27,396.94,931.34,398.31Z"/>
    <path d="M929.75,399.33c-.78.55-.29,2.07.85,1S931.68,398,929.75,399.33Z"/>
    <path d="M930.73,400.73c-.77.56-.28,2.07.86,1S932.67,399.36,930.73,400.73Z"/>
    <path d="M929.37,401.31c-.78.55-.29,2.07.85,1S931.3,399.94,929.37,401.31Z"/>
    <path d="M930.24,402.93c-.78.55-.28,2.07.85,1S932.17,401.56,930.24,402.93Z"/>
    <path d="M928.91,403.85c-.77.54-.28,2.06.86,1S930.85,402.48,928.91,403.85Z"/>
    <path d="M929,405.34c-.78.55-.29,2.07.85,1S931,404,929,405.34Z"/>
    <path d="M931.74,423.56c-.91-.58-1.75-1-1.82-2.26s-.91-2.12-1.52-2c-.78.13-1.29,1.75-.3,2.1s1.21.47,1.21,1.58.31,2.66,1.37,2.8S932.65,424.12,931.74,423.56Z" style="fill: #cf6200"/>
    <path d="M970.13,419c-2.11-2.16-8.64-8.3-10.46-10.27s-1,.43-.86,1.18a1.17,1.17,0,0,1-2,.78,5.77,5.77,0,0,1-.51-.78,2.29,2.29,0,0,0,.4,1.44,37.74,37.74,0,0,1,2.9,6,2.58,2.58,0,0,0,3.14,1.62,2.5,2.5,0,0,1-.58-2.26c.28-.5.45-1,2.16.37a63,63,0,0,0,5.51,3.73C970.87,421.49,972.23,421.19,970.13,419Z" style="fill: #ff0"/>
    <path d="M1016.28,665.12c.69,1.59.46,4.11-1,4.76.34,1.46-.8,1.58-2.16,2.55a6.38,6.38,0,0,0-2.5,2.74c.74-.66,1.76-1.26,2.33-1.07s.68,1.43-.34,1.87a4.24,4.24,0,0,0-2.05,2c1.48-1,3.58-.78,2.16.78s-3.29,4.23-2.05,7.59c.15-.13.29-.28.44-.42a246.1,246.1,0,0,0,14.39-32.47c0-.38.1-.74.13-1.05a24.19,24.19,0,0,1-5.12,5.09C1021.17,660.1,1018,664,1016.28,665.12Z" style="fill: #00d860"/>
    <path d="M943.87,407.45c.68,1.33.17,2-1.31,2.32a28.86,28.86,0,0,1-4.61.71c-.91,0-2,1.8.17,1.66a22,22,0,0,0,6.77-1.78c1-.58,1.76-1.66.4-3.4C943.61,404.81,943.18,406.12,943.87,407.45Z"/>
    <path d="M945.47,406.66c-1.23-1.57-1.78-1.31-2-1a2.1,2.1,0,0,0,.18,2,1.51,1.51,0,0,1,.22.91c0,.19-.3.55-1.35.78a29.13,29.13,0,0,1-4.57.7,1.51,1.51,0,0,0-1.27,1,1.17,1.17,0,0,0,0,.88c.17.4.56.59,1.19.6h.28a22.29,22.29,0,0,0,6.85-1.81,2.37,2.37,0,0,0,1.28-1.79,3.15,3.15,0,0,0-.8-2.28Zm-.69,3.33a21.62,21.62,0,0,1-6.67,1.76c-.83.05-1-.21-1-.21a.48.48,0,0,1,.09-.21.94.94,0,0,1,.72-.45,29.61,29.61,0,0,0,4.65-.71c1-.23,1.6-.62,1.78-1.27a2.33,2.33,0,0,0-.3-1.69,1.67,1.67,0,0,1-.24-1s.41-.07,1.27,1a2.34,2.34,0,0,1,.62,1.54A1.71,1.71,0,0,1,944.78,410Z"/>
    <path d="M947.05,410.7c.34,1.33-.29,1.58-1.19,2a34.6,34.6,0,0,1-6,2.38c-1.54.23-1.88,1.81.4,1.75s6.64-2.71,7.16-3.22.68-1.49,1.25-1,1.08-.41-.06-1.91C947.19,408.88,946.7,409.37,947.05,410.7Z"/>
    <path d="M948.76,410.4h0c-.87-1.15-1.48-1.53-1.85-1.15-.16.15-.38.57-.12,1.59a1.45,1.45,0,0,1,.05.72c-.11.31-.52.5-1,.72l-.54.25a30.49,30.49,0,0,1-5.5,2.14c-.9.14-1.51.72-1.47,1.42,0,.42.27,1.11,1.72,1.13h.18c2.33-.07,6.79-2.77,7.31-3.28a2.86,2.86,0,0,0,.47-.66c.28-.46.32-.48.49-.33a.54.54,0,0,0,.92-.15C949.64,412.35,949.59,411.48,948.76,410.4Zm.22,1.93s-.08,0-.2-.07c-.58-.5-.94.1-1.18.49a2.27,2.27,0,0,1-.36.52c-.49.48-4.83,3.09-7,3.15-1,0-1.33-.3-1.35-.37s.33-.48,1-.58a30.38,30.38,0,0,0,5.6-2.18L946,413c.6-.27,1.12-.51,1.33-1.13a2.4,2.4,0,0,0,0-1.35,2.11,2.11,0,0,1-.09-.65h0c.07,0,.4.07,1.17,1.08C949,411.74,949,412.24,949,412.33Z"/>
    <path d="M952.05,413.5c-1.88-1.48-3-.73-2.1.43s.22,1.58-.34,2.08a24.2,24.2,0,0,1-4.55,2.9c-1,.41-1.88,2.07.28,1.83s4.72-3.16,5.4-3.74,1-1,1.59-.93S953.93,415,952.05,413.5Z"/>
    <path d="M952.18,413.15c-1.25-1-2.38-1.16-2.73-.41a1.38,1.38,0,0,0,.32,1.49c.34.43.35.64.35.7s-.29.42-.52.61l-.13.12a24.21,24.21,0,0,1-4.48,2.87,1.92,1.92,0,0,0-1.26,1.79c.07.56.48.84,1.22.84a3.1,3.1,0,0,0,.42,0c1.83-.21,3.88-2.22,5-3.3.23-.22.41-.4.53-.5l.31-.27c.47-.42.73-.66,1.12-.6a1.1,1.1,0,0,0,1.06-1C953.48,414.94,953.37,414.09,952.18,413.15Zm.18,2.52c-.57-.07-.94.26-1.45.72l-.3.26c-.13.11-.32.3-.56.53-1.06,1-3,3-4.73,3.16-.88.1-1.05-.16-1.05-.16a1.44,1.44,0,0,1,.86-.88,23.93,23.93,0,0,0,4.61-2.95l.14-.12a1.73,1.73,0,0,0,.78-1.23,2,2,0,0,0-.53-1.37,1,1,0,0,1-.23-.44c.06-.14.76-.33,2,.66.77.61,1,1.13.93,1.42A.52.52,0,0,1,952.36,415.67Z"/>
    <path d="M931.89,374.08c-2.78-2.72-5.95,2.78-2.88,5.91C931.7,382.74,934.54,376.67,931.89,374.08Z"/>
    <path d="M929.25,376.54l-.82-.1c-.28,2.56,1.76,3.94,2.81,2.8C929.94,379.67,929.08,377.78,929.25,376.54Z" style="fill: #fff"/>
    <path d="M939.16,442.36c-.15,1.81.3,1.52.59.8s.59-1.36,1.19-3.09,1.23-.65,1.28,1,.2,1.59.49.51.75-2.09,1.24-3.61a24.1,24.1,0,0,1-4.74-.9A46.75,46.75,0,0,1,939.16,442.36Z" style="fill: #fff"/>
    <path d="M840.49,479c.09,45.28,2.15,104.13,17.42,156.5,16.25,55.56,44.67,96.75,86.89,121.43l.2.12.21-.11c42.21-24.42,70.63-66,86.88-122,8-27.7,17.25-70.86,17.42-157.13V477c-69.67,11.5-139.35,9.7-209,1.22Zm207.93-.24C1048.14,586,1035.31,701.16,945,755.36,854.69,700.7,841.86,587.49,841.59,480,910.53,488.28,979.47,490,1048.42,478.79Z"/>
    <path d="M1048.78,367c0-.18,0-.36,0-.53l-.34-.17c-38.76-18.46-89-19-103.45-19.37-14.47.36-64.69.36-103.45,20.55l-.33.18c0,.18,0,.35,0,.53.39,19.09.07,39.48-.26,61.06-.25,16.14-.51,32.83-.48,49.74v.8c69.67,8.47,139.35,10.28,209-1.22v-.8c0-16.93-.22-33.63-.47-49.78C1048.7,406.48,1048.39,386.13,1048.78,367ZM841.58,478.36c0-16.62.23-33,.48-48.9.33-21.4.64-41.63.27-60.61,38.52-19.92,88.3-19.93,102.67-20.28,14.38.36,64.15.91,102.67,19.14-.37,19-.06,39.17.27,60.54.25,15.88.5,32.3.48,48.94C979.47,488.43,910.53,486.68,841.58,478.36Z"/>
  </g>
</svg>
