<svg xmlns="http://www.w3.org/2000/svg" viewBox="0 0 1260 1012.04">
  <g>
    <path d="M0,90.08v920C420,738.76,840,1193.28,1260,922V2C840,273.28,420-181.24,0,90.08Z" style="fill: #ed1c24"/>
    <path d="M0,90.08V703.41C420,432.09,840,886.62,1260,615.3V2C840,273.28,420-181.24,0,90.08Z" style="fill: #005da4"/>
    <path d="M0,90.08V396.74C420,125.43,840,580,1260,308.63V2C840,273.28,420-181.24,0,90.08Z" style="fill: #fff"/>
    <path d="M233.5,184.89q3.31,70.88,6.62,141.79c3,63.8,32.79,114.63,74.88,133.32,42.09-18.39,71.92-69.7,74.89-133.62q3.3-71,6.61-141.94C344.92,143.37,285.09,142.48,233.5,184.89Z" style="fill: #005da4"/>
    <path d="M333.34,306.56q-9.16-27-18.34-53.82-9.17,26.76-18.34,53.75-6.11-11.76-12.22-23.4-15.29,30.39-30.56,61.51c7.08,45.95,30.23,81.73,61.12,97.34,30.89-15.43,54-51.35,61.13-97.42q-15.28-30.93-30.56-61.34Q339.45,294.82,333.34,306.56Z" style="fill: #fff"/>
    <path d="M345.57,368.45c-6.31-5.58-14.08-5.81-20.38-.59s-14.07,5.19-20.37,0-14.08-5-20.38.55h0c-9.75,8.59-22.21,4.59-27.83-9.13v8.59h0c5.62,13.72,18.08,17.72,27.83,9.13,6.3-5.59,14.07-5.8,20.38-.55s14.07,5.25,20.37,0,14.07-5,20.38.59h0c9.74,8.6,22.2,4.53,27.83-9.26v-8.59h0C367.77,373,355.31,377.05,345.57,368.45Z" style="fill: #005da4"/>
    <path d="M345.57,385.63c-6.31-5.58-14.08-5.81-20.38-.59s-14.07,5.19-20.37,0-14.08-5-20.38.55h0c-9.75,8.59-22.21,4.59-27.83-9.13V385h0c5.62,13.72,18.08,17.72,27.83,9.12,6.3-5.58,14.07-5.79,20.38-.54s14.07,5.25,20.37,0,14.07-5,20.38.59h0c9.74,8.6,22.2,4.53,27.83-9.26v-8.59h0C367.77,390.16,355.31,394.23,345.57,385.63Z" style="fill: #005da4"/>
    <path d="M316.53,219.12,315,211.83c-.51,2.42-1,4.86-1.53,7.29-1.69-.58-3.39-1.14-5.08-1.7L312,223c-1.19,1.87-2.38,3.73-3.56,5.6l5.08-1.73,1.53,7.29,1.53-7.29,5.09,1.76c-1.19-1.88-2.37-3.75-3.56-5.61,1.19-1.86,2.37-3.71,3.56-5.55Z" style="fill: #fd0"/>
    <path d="M293.61,174.76l-1.53-7.25-1.53,7.35q-2.54-.78-5.09-1.53,1.79,2.71,3.56,5.44l-3.56,5.72c1.7-.64,3.4-1.28,5.09-1.9l1.53,7.24,1.53-7.34,5.09,1.59q-1.79-2.75-3.56-5.49,1.77-2.84,3.56-5.67Z" style="fill: #fd0"/>
    <path d="M339.45,174.94l-1.53-7.35c-.51,2.42-1,4.83-1.52,7.25-1.7-.63-3.4-1.24-5.09-1.85l3.56,5.67q-1.78,2.73-3.56,5.48l5.09-1.57c.51,2.44,1,4.89,1.52,7.34l1.53-7.24,5.09,1.9L341,178.86c1.19-1.82,2.37-3.64,3.56-5.45Z" style="fill: #fd0"/>
    <path d="M384,325.28c-2.77,59.41-30.11,107.59-69,125.71-38.9-18.37-66.25-66.2-69-125.52q-3.37-72.56-6.76-145.06-2.83,2.29-5.72,4.48,3.31,70.88,6.62,141.78c3,63.81,32.79,114.64,74.88,133.33,42.09-18.39,71.92-69.71,74.89-133.62q3.3-71,6.61-141.94c-1.92-1.41-3.82-2.86-5.72-4.34Q387.41,252.67,384,325.28Z" style="fill: #ed1c24"/>
  </g>
</svg>
