<svg xmlns="http://www.w3.org/2000/svg" viewBox="0 0 1260 1012.04">
  <g>
    <path d="M0,90.08v920C420,738.76,840,1193.28,1260,922V2C840,273.28,420-181.24,0,90.08Z" style="fill: #ee1c25"/>
    <path d="M0,90.08V703.41C420,432.09,840,886.62,1260,615.3V2C840,273.28,420-181.24,0,90.08Z" style="fill: #0b4ea2"/>
    <path d="M0,90.08V396.74C420,125.43,840,580,1260,308.63V2C840,273.28,420-181.24,0,90.08Z" style="fill: #fff"/>
    <path d="M442.76,219.25c-58.73-8.33-117.46-12.44-176.19-8.36,0,0-6.81,71.43-6.81,227.39,0,78.18,26.93,134,63.27,178.84,36.33,44.5,82.08,78.07,119.73,103.53,75.3-29.38,183-83.12,183-239.37,0-156-6.81-228.37-6.81-228.37C560.22,240.12,501.49,227.57,442.76,219.25Z" style="fill: #fff"/>
    <path d="M442.76,240c-53.88-7.64-107.76-11.73-161.64-9.2,0,0-6.25,65.38-6.25,208.47,0,141.58,98.81,212.23,167.89,260.73h0c69.08-27,167.89-76.74,167.89-220,0-143.07-6.25-209.5-6.25-209.5C550.52,258.78,496.64,247.59,442.76,240Z" style="fill: #ee1c25"/>
    <path d="M457.53,412.76h0V363.13a193.18,193.18,0,0,1,69.39,23.11s-.86-12.9-.86-27.74.86-27.4.86-27.4c-27.73,4.73-52.27,1.47-69.31-1.29.87-31.3,9.23-69.6,9.23-69.59s-17.2-1.23-24.08-2.17-24.08-4.67-24.08-4.64,8.35,40.65,9.23,72.2c-17-2-41.58-5.75-69.31-17.51,0,0,.86,12.79.86,27.62s-.86,27.53-.86,27.53c27.77-8.58,52.34-6.67,69.39-4.3v49.63c-18.71-2.18-55.2-5.31-87.69-18.24,0,0,.86,12.77.86,27.6s-.86,27.54-.86,27.54c29.8-10,66.61-6.53,87.69-3.39v79q14.77,1.9,29.54,4.18v-79c21.08,2.84,57.89,9.66,87.69,26.71,0,0-.86-12.91-.86-27.75s.86-27.4.86-27.4C512.73,423.07,476.24,415.87,457.53,412.76Z" style="fill: #fff"/>
    <polygon points="442.75 514.56 442.75 514.56 442.75 514.56 442.75 514.56" style="fill: #0b4ea2"/>
    <path d="M534.93,558.31c-28.38-5.59-38.76,17.76-38.76,17.73s-18.63-56.46-53.42-61.48-53.42,46.63-53.42,46.55c0,.1-10.34-26.3-38.72-27.79-19.2-.92-33.35,17.75-42.35,35.13C343.2,628.66,398.94,670.24,442.75,700c43.82-17.08,99.59-43.49,134.53-96.88C568.29,583.84,554.13,562.13,534.93,558.31Z" style="fill: #0b4ea2"/>
  </g>
</svg>
