<svg xmlns="http://www.w3.org/2000/svg" viewBox="0 0 1260 1012.04">
  <g>
    <path d="M0,90.08v920C420,738.76,840,1193.28,1260,922V2C840,273.28,420-181.24,0,90.08Z" style="fill: #00853f"/>
    <path d="M420,6.94v920c280,34.19,560,175.9,840-5V2C980,182.84,700,41.13,420,6.94Z" style="fill: #fdef42"/>
    <path d="M840,85.1v920c140,17.1,280,7.31,420-83.13V2C1120,92.41,980,102.2,840,85.1Z" style="fill: #e31b23"/>
    <path d="M586.74,489.14c22.19,12.65,44.38,25.43,66.57,38.14L630,352.69Q608.37,420.88,586.74,489.14Z" style="fill: #00853f"/>
    <path d="M606.69,517.13c22.19-3.08,44.38-6.09,66.57-9.24Q651.63,430.36,630,352.69Z" style="fill: #00853f"/>
    <path d="M623.15,533.81c46.66-15.38,93.33-30.67,140-47.84-46.67-8.38-93.34-18.65-140-28.82Z" style="fill: #00853f"/>
    <path d="M649.89,553.1c37.75-21.84,75.5-43.87,113.26-67.13-51.47.12-102.94-2.05-154.41-3.86Q629.32,517.59,649.89,553.1Z" style="fill: #00853f"/>
    <path d="M602.45,501.94c36.62,48.64,73.23,97.52,109.84,145.67Q690.66,570.3,669,492.71C646.84,495.84,624.64,498.85,602.45,501.94Z" style="fill: #00853f"/>
    <path d="M599,533.21c37.75,38.2,75.51,76.68,113.26,114.4q-36.06-83.4-72.12-167.47Q619.61,506.66,599,533.21Z" style="fill: #00853f"/>
    <path d="M547.71,612.53c37.75-22.37,75.51-44,113.26-65.85q-20.57-35.46-41.14-71Q583.77,543.92,547.71,612.53Z" style="fill: #00853f"/>
    <path d="M547.71,612.53c36.61-33.27,73.22-65.82,109.84-98.6-22.19-12.7-44.39-25.49-66.58-38.16Q569.34,544.05,547.71,612.53Z" style="fill: #00853f"/>
    <path d="M610.11,544.43l41.15-53.06c-51.47-20.54-102.94-41.45-154.41-60.06C534.61,468.13,572.36,506.19,610.11,544.43Z" style="fill: #00853f"/>
    <path d="M636.85,536.8V460.13c-46.66-10.17-93.33-20.44-140-28.82C543.52,465.24,590.19,501.07,636.85,536.8Z" style="fill: #00853f"/>
  </g>
</svg>
