<svg xmlns="http://www.w3.org/2000/svg" viewBox="0 0 1260 1012.04">
  <g>
    <path d="M0,90.08v920C420,738.76,840,1193.28,1260,922V2C840,273.28,420-181.24,0,90.08Z" style="fill: #4189dd"/>
    <path d="M567.51,481.73c32,18.13,64.11,36.67,96.16,55Q646.84,410.66,630,284.54,598.75,383,567.51,481.73Z" style="fill: #fff"/>
    <path d="M596.33,522.09c32-4.5,64.11-8.77,96.16-13.46Q661.24,396.76,630,284.54,613.17,403.29,596.33,522.09Z" style="fill: #fff"/>
    <path d="M620.1,546.16c67.41-22.22,134.82-44.16,202.22-71.8-67.4-9.27-134.81-24.25-202.22-38.94Z" style="fill: #fff"/>
    <path d="M658.72,574c54.54-31.6,109.07-63.75,163.6-99.65-74.34,3.31-148.68-.33-223-2.86Q629,522.71,658.72,574Z" style="fill: #fff"/>
    <path d="M601.28,561.52q29.72-38.37,59.43-76.67c-74.35-29.59-148.69-60.3-223-84.05C492.21,451.69,546.74,506.33,601.28,561.52Z" style="fill: #fff"/>
    <path d="M639.9,550.48V439.74c-67.41-14.69-134.82-29.67-202.22-38.94C505.08,447,572.49,498.88,639.9,550.48Z" style="fill: #fff"/>
    <path d="M590.21,500.15C643.09,570.31,696,641.2,748.86,709.91q-31.25-111.18-62.49-223.18C654.32,491.37,622.26,495.62,590.21,500.15Z" style="fill: #fff"/>
    <path d="M585.26,545.33c54.54,55,109.07,111,163.6,164.58-34.72-79.76-69.44-160.46-104.17-241.28Q615,507,585.26,545.33Z" style="fill: #fff"/>
    <path d="M511.14,660.5c54.53-33.18,109.06-64,163.6-95.79Q645,513.58,615.31,462.23C580.58,527.93,545.86,593.75,511.14,660.5Z" style="fill: #fff"/>
    <path d="M511.14,660.5C564,611.6,616.91,564.87,669.79,517.42c-32-18.29-64.11-36.85-96.16-55Q542.39,561.12,511.14,660.5Z" style="fill: #fff"/>
  </g>
</svg>
