<svg xmlns="http://www.w3.org/2000/svg" viewBox="0 0 1260 1012.04">
  <g>
    <path d="M0,90.08v920C420,738.76,840,1193.28,1260,922V2C840,273.28,420-181.24,0,90.08Z" style="fill: #377e3f"/>
    <path d="M0,826.08C420,554.76,840,1009.28,1260,738V186C840,457.28,420,2.76,0,274.08Z" style="fill: #fff"/>
    <path d="M0,734.08C420,462.76,840,917.28,1260,646V278C840,549.28,420,94.76,0,366.08Z" style="fill: #b40a2d"/>
    <path d="M531.25,651.61c32.92-19.71,65.83-38.72,98.75-57.74q-30.51-30.93-61-61.7Q550.12,591.78,531.25,651.61Z" style="fill: #ecc81d"/>
    <path d="M470.22,434.85c32.92,31.54,65.83,64.21,98.75,97.32q11.65-36.85,23.31-73.62C551.6,449.8,510.91,441.46,470.22,434.85Z" style="fill: #ecc81d"/>
    <path d="M728.75,693.29Q709.88,626,691,558.46q-30.51,17.87-61,35.41C662.92,627.25,695.83,660.62,728.75,693.29Z" style="fill: #ecc81d"/>
    <path d="M630,339.59q-18.86,59.46-37.72,119c25.15,5.4,50.29,11,75.44,16.37Q648.87,407.3,630,339.59Z" style="fill: #ecc81d"/>
    <path d="M592.28,458.55Q580.63,495.33,569,532.17q30.51,30.68,61,61.7,30.51-17.62,61-35.41-11.65-41.75-23.31-83.54C642.57,469.51,617.43,464,592.28,458.55Z" style="fill: #ecc81d"/>
    <path d="M667.72,474.92q11.65,41.79,23.31,83.54c32.92-19.28,65.83-39,98.75-59.84C749.09,492,708.4,483.67,667.72,474.92Z" style="fill: #ecc81d"/>
  </g>
</svg>
