<svg xmlns="http://www.w3.org/2000/svg" viewBox="0 0 1260 1012.04">
  <g>
    <path d="M0,90.08v920C420,738.76,840,1193.28,1260,922V2C840,273.28,420-181.24,0,90.08Z" style="fill: #078930"/>
    <path d="M0,90.08v644C420,462.76,840,917.28,1260,646V2C840,273.28,420-181.24,0,90.08Z" style="fill: #fff"/>
    <path d="M0,90.08v276C420,94.76,840,549.28,1260,278V2C840,273.28,420-181.24,0,90.08Z"/>
    <path d="M0,688.08C420,416.76,840,871.28,1260,600V324C840,595.28,420,140.76,0,412.08Z" style="fill: #da121a"/>
    <path d="M0,90.08v920c181.87-270.82,363.73-405.54,545.6-522C363.73,297.87,181.87,125.93,0,90.08Z" style="fill: #0f47af"/>
    <path d="M81.07,506.34a456.58,456.58,0,0,1,69.65,8.09V448.34C127.5,465.9,104.28,485.15,81.07,506.34Z" style="fill: #fcdd09"/>
    <path d="M150.72,621.38q21.53-49.33,43-96.78-21.52-6-43-10.17Z" style="fill: #fcdd09"/>
    <path d="M263.41,548.34q-21.51-41.65-43-81.78-13.31,28.69-26.61,58A673.44,673.44,0,0,1,263.41,548.34Z" style="fill: #fcdd09"/>
    <path d="M193.76,417.65q13.31,24.12,26.61,48.91,21.52-46.43,43-91.26C240.2,388,217,402.08,193.76,417.65Z" style="fill: #fcdd09"/>
    <path d="M150.72,448.34v66.09q21.53,4.16,43,10.17,13.31-29.36,26.61-58-13.31-24.78-26.61-48.91Q172.24,432.08,150.72,448.34Z" style="fill: #fcdd09"/>
    <path d="M150.72,341.39v107q21.53-16.29,43-30.69Q172.24,378.61,150.72,341.39Z" style="fill: #fcdd09"/>
  </g>
</svg>
