<svg xmlns="http://www.w3.org/2000/svg" viewBox="0 0 1260 1012.04">
  <g>
    <path d="M0,90.08v920C420,738.76,840,1193.28,1260,922V2C840,273.28,420-181.24,0,90.08Z" style="fill: #12ad2b"/>
    <path d="M0,747.22C420,475.9,840,930.43,1260,659.11V264.83C840,536.14,420,81.62,0,352.93Z" style="fill: #ffce00"/>
    <path d="M0,90.08v920C105,788.91,210,613.12,315,460,210,306.45,105,175.58,0,90.08Z" style="fill: #d21034"/>
    <path d="M602.19,493.54,645,523.16q-7.5-74.28-15-148.57Z"/>
    <path d="M615,516.63q21.4-5.49,42.8-11-13.9-65.5-27.81-131Q622.5,445.62,615,516.63Z"/>
    <path d="M625.6,530.16c30-15.36,60-30.7,90-46.54-30-6.06-60-12.63-90-19.17Z"/>
    <path d="M642.78,545.45c24.27-20.47,48.54-41,72.82-61.83-33.09,1.34-66.18,2.07-99.27,2.9Q629.56,516,642.78,545.45Z"/>
    <path d="M612.29,503.8q35.31,60,70.61,120-13.9-65.44-27.81-131Q633.69,498.33,612.29,503.8Z"/>
    <path d="M610.09,530.76c24.27,31,48.54,62.12,72.81,93q-23.17-70.12-46.36-140.42Z"/>
    <path d="M577.1,600.92c24.27-20.61,48.54-41,72.81-61.49Q636.68,510,623.46,480.51,600.29,540.66,577.1,600.92Z"/>
    <path d="M577.1,600.92c23.54-29.91,47.07-59.62,70.61-89.4q-21.4-14.81-42.8-29.63Q591,541.38,577.1,600.92Z"/>
    <path d="M617.22,539.87q13.21-23.7,26.45-47.4c-33.09-15.23-66.18-30.56-99.27-45.28C568.68,477.85,593,508.84,617.22,539.87Z"/>
    <path d="M634.4,532.08V466.37c-30-6.54-60-13.11-90-19.18C574.4,475.16,604.4,503.64,634.4,532.08Z"/>
    <path d="M917.19,545q21.39,11,42.8,20.75-7.5-72.51-15-145.18Q931.1,483.09,917.19,545Z"/>
    <path d="M930,565.73q21.4-9.68,42.8-20.61-13.9-62-27.81-124.51Q937.5,493.26,930,565.73Z"/>
    <path d="M940.6,577.12c30-21.66,60-45.15,90-71a650.05,650.05,0,0,1-90,5.28Z"/>
    <path d="M957.78,588.59c24.27-26.13,48.54-53.53,72.82-82.46a742.09,742.09,0,0,1-99.27,29.23Q944.56,562.21,957.78,588.59Z"/>
    <path d="M927.29,553.43q35.31,53.25,70.61,103Q984,595,970.09,533,948.69,543.86,927.29,553.43Z"/>
    <path d="M925.09,580.81c24.27,26.44,48.54,51.75,72.81,75.64Q974.73,593,951.54,527.94,938.31,554.61,925.09,580.81Z"/>
    <path d="M892.1,656.45c24.27-24.09,48.54-49.18,72.81-75.57q-13.23-26.24-26.45-53Q915.29,592.86,892.1,656.45Z"/>
    <path d="M892.1,656.45q35.31-49.92,70.61-103-21.4-9.66-42.8-20.6Q906,594.91,892.1,656.45Z"/>
    <path d="M932.22,588.54q13.21-26.32,26.45-53.13a927.18,927.18,0,0,1-99.27-28.73C883.68,534.94,908,562.33,932.22,588.54Z"/>
    <path d="M949.4,577.14V511.42a840,840,0,0,1-90-4.74C889.4,531.69,919.4,555.35,949.4,577.14Z"/>
  </g>
</svg>
