<svg xmlns="http://www.w3.org/2000/svg" viewBox="0 0 1260 1012.04">
  <g>
    <path d="M0,90.08v920C420,738.76,840,1193.28,1260,922V2C840,273.28,420-181.24,0,90.08Z" style="fill: #012a87"/>
    <path d="M0,90.08v460C420,278.76,840,733.28,1260,462V2C840,273.28,420-181.24,0,90.08Z" style="fill: #dc171d"/>
    <path d="M0,90.08v920C186.67,736.16,373.33,605.62,560,491,373.33,299,186.67,122.82,0,90.08Z" style="fill: #fff"/>
    <path d="M277,315.57s-7.78-1.73-7.21-11.13c0,0-8.4-.06-9.27-7.81,0,0-8.4,2.21-12.1-5,0,0-8.2,2.6-10.51-3.41,0,0-8,4-12.7-2.75,0,0-8.41,4.92-11.94-1.48-3.48,7.49-11.89,5.28-11.89,5.3a12.68,12.68,0,0,1-12.7,6.77c-2.23,6.75-10.4,6.75-10.4,6.77a15.13,15.13,0,0,1-12.08,9c-.83,8-9.22,10.82-9.22,10.84.66,9.21-7.11,13.49-7.11,13.51,2.05,7.21-6.55,14.66-6.55,14.68,4.16,5.36.7,12.42.7,12.42-.07,2.21-.13,4.42-.2,6.63,46.36-13.52,92.72-20.21,139.08-22h0c.06-2.38.11-4.76.17-7.13a12.87,12.87,0,0,1,.56-12.66S275,323.48,277,315.57Z" style="fill: #ff0"/>
    <path d="M282.85,347.84h0Z" style="fill: #f9d90f"/>
    <path d="M277,315.57s-7.79-1.73-7.21-11.13c0,0-8.41-.06-9.28-7.81,0,0-8.4,2.21-12.1-5,0,0-8.2,2.59-10.51-3.41,0,0-8,4-12.69-2.75,0,0-8.42,4.92-11.95-1.48-3.48,7.49-11.89,5.28-11.89,5.29-4.68,8.21-12.7,6.77-12.7,6.78-2.23,6.75-10.41,6.76-10.41,6.77a15.12,15.12,0,0,1-12.08,9c-.82,8-9.21,10.82-9.21,10.84.66,9.21-7.11,13.48-7.11,13.5,2.05,7.22-6.55,14.67-6.55,14.69,4.16,5.36.7,12.42.7,12.42-.06,2.21-.13,4.42-.19,6.63,46.35-13.52,92.7-20.21,139-22l.17-7.12a12.88,12.88,0,0,1,.56-12.67S275,323.48,277,315.57Z" style="fill: #f9d90f"/>
    <polygon points="282.83 347.85 282.83 347.85 282.83 347.85 282.83 347.85" style="fill: #f9d90f"/>
    <path d="M277.2,315.64l.07-.28-.25-.06a9.81,9.81,0,0,1-3.74-2c-2.41-2.08-3.51-5.05-3.28-8.85l0-.28h-.26a12,12,0,0,1-4.23-1,7.69,7.69,0,0,1-4.8-6.58l0-.29-.26.07c-.08,0-8.27,2.07-11.83-4.92l-.09-.18-.19.06c-.08,0-8,2.46-10.22-3.27l-.09-.24-.23.12c-.08,0-7.85,3.79-12.41-2.69l-.11-.17-.19.11c-.08,0-8.25,4.73-11.62-1.4l-.23-.41-.22.48C209.67,291,201.51,289,201.42,289l-.19-.05-.11.2a12.49,12.49,0,0,1-12.41,6.62l-.23,0-.09.27c-2.13,6.44-10,6.52-10.12,6.54h-.18l-.09.2a14.9,14.9,0,0,1-11.81,8.79l-.27,0,0,.3c-.79,7.67-8.9,10.49-9,10.54l-.25.09,0,.27a13.51,13.51,0,0,1-3.2,9.92,15.18,15.18,0,0,1-3.72,3.24l-.26.14.07.26c2,6.92-6.33,14.24-6.42,14.33l-.25.22.16.21c4,5.16.73,12,.69,12.12l0,.07-.21,7c46.36-13.54,92.72-20.25,139.08-22.09h.26v-.27h.24c.05-2.38.11-4.75.16-7.13v-.08l0-.07a12.66,12.66,0,0,1,.56-12.36l.15-.26-.25-.14C283.6,327.74,275.28,323.23,277.2,315.64Zm5.54,25.16q-.08,3.39-.16,6.78c-46.18,1.82-92.36,8.49-138.54,21.93l.18-6.27c.36-.79,3.15-7.35-.58-12.43,1.39-1.33,8.13-8,6.49-14.57a15.08,15.08,0,0,0,7.07-13.43c1.41-.58,8.26-3.63,9.16-10.77a15.56,15.56,0,0,0,12-9c1.24-.08,8.22-.65,10.42-6.74a13.06,13.06,0,0,0,12.64-6.77c1.26.25,8.45,1.44,11.8-5.06,3.4,5.44,10.59,1.93,11.85,1.28,4.34,6,11.3,3.33,12.65,2.76,2.26,5.35,9.28,3.69,10.51,3.37,3.41,6.42,10.57,5.32,12,5,.95,6.86,7.82,7.63,9.23,7.74-.32,7.22,4.39,10.33,7.17,11.09-1.61,7.11,5.16,11.53,6.55,12.38A13.33,13.33,0,0,0,282.74,340.8Z"/>
    <path d="M328.15,473c-15.85-46.07-2.27-97.51,4.55-143.55-8.34,4.77-17.63,7-26.9,9.63-7.4,1.16-15.64.89-23.13.79l-3.1-.77h0c-21.85-1.4-47-4.42-66.42,10.74-13-6.36-31.14-2.28-46.57,3.26-8.38,3.73-18.24,6.44-27,10.7l-1.38.63c-15.89,6.06-30.3,6.15-44.11,5,4.39,25.46,9.25,51.51,11.64,79.14,5.21,40.16-18.26,84.9-8.63,122.85,5.75,17.66,25.86,21.62,44.27,18.49a194.57,194.57,0,0,1,52.77-4.79,39,39,0,0,1,9,1.64,25.15,25.15,0,0,1,10.8,6.6c10-13,24.55-18.08,39-21,26-5.87,58-4.51,73.85-29.83v-1.46c8.63-14.06,7.48-35.79,3.74-52C330.27,483.39,328.9,478.39,328.15,473Z" style="fill: #dc171d"/>
    <path d="M312.21,469.9h0c-12.9-39-2.39-79.78,3.08-118.62-9.22,4.45-18.86,8-29.48,9-15.89.75-32.48-1-47.91-.87-8.12,1.92-16.93,4.74-24.46,9.5-13.67-4.61-30.65-1.19-45.24,4.67-19.69,9.1-40,13.91-57.48,11.47a371.6,371.6,0,0,1,10.47,68.9C123.25,486,105.7,520.5,113,551c2.86,11.56,14.59,17,25.85,17.45,22.4-.73,48.21-10.48,68.06-2.24,2.8.93,5,3,7.16,4.21,3.39-4,10-9.82,14.85-11.91,24.13-11,51.47-6.44,72.31-21.25,18.85-12.64,15.92-39,12.88-59.14C313.59,475.29,312.1,472.92,312.21,469.9Z" style="fill: #62afe1"/>
    <path d="M233.65,409.81q0-9.37-.1-18.74l4.93-.59Q225.73,382,213,374q-12.69,12-25.37,24.65c1.64-.34,3.27-.67,4.91-1l.09,18.7Q167.26,439.42,141.9,465l4-1.17q.08,18.23.17,36.45c44.85-13,89.71-19.73,134.57-21.83v0q-.09-18.27-.17-36.53l4.11-.18Q259.14,424.74,233.65,409.81Z" style="fill: #fff"/>
    <path d="M234.74,409l-.09-16.88c2.41-.29,4.83-.57,7.24-.84q-14.46-9.75-28.91-18.77-14.39,13.64-28.77,28c2.41-.51,4.81-1,7.22-1.5q0,8.43.08,16.86-26.64,24.27-53.28,51.35c2.21-.66,4.42-1.32,6.63-1.95q.07,18.23.17,36.46c45.22-13.26,90.44-20,135.66-22.15l.65,0c.15-.32.31-.64.46-.95q-.09-17.82-.17-35.63l6.72-.27Q261.55,424.76,234.74,409Zm44.69,31.72.17,36.55c-44.13,2.14-88.26,8.73-132.39,21.47q-.09-18.22-.17-36.45l-1.48.42q24.08-24.15,48.15-45.93,0-10.28-.1-20.56l-2.6.52q11-10.86,22-21.28,11.06,6.88,22.09,14.21l-2.62.33q.06,10.29.1,20.58,24.19,14.06,48.38,30.07Z"/>
    <path d="M132,552.5l.07,11.37c54.76-17.54,109.52-25.34,164.28-26.6,0-3.81,0-7.62,0-11.43h0C241.61,527.12,186.82,534.93,132,552.5Z" style="fill: #fff"/>
    <path d="M296.55,525.84c.05-.38.11-.77.16-1.15l-1.43-.45v.43C240.87,526,186.45,533.85,132,551.31l-1.1.35.08,13.76c55.49-17.91,111-25.78,166.46-27q0-6.32,0-12.64ZM133.2,562.32l-.06-9c54.05-17.2,108.09-24.94,162.14-26.28,0,3,0,6,0,9C241.26,537.43,187.23,545.14,133.2,562.32Z"/>
    <path d="M149.54,508q-3.33,1-6.66,2V510q3.33-.88,6.65-1.73Z" style="fill: #fff"/>
    <path d="M142.88,510q.08,19.28.14,38.55c2-.6,4.1-1.2,6.15-1.78l.36-38.5Q146.21,509.12,142.88,510Z" style="fill: #fff"/>
    <path d="M149.17,547.21v-.43h0Z" style="fill: #fff"/>
    <path d="M278,526.44V526h0Z" style="fill: #fff"/>
    <path d="M286.81,478.64c-48.94,1.82-97.88,9-146.82,23.85v8.3l2.89-.78v-.09q3.33-1,6.66-2v.32h0q-.19,19.26-.4,38.51A575,575,0,0,1,278,526q-.17-19.35-.32-38.71c2.25-.12,4.49-.22,6.74-.32h0l2.46-.1Z" style="fill: #fff"/>
    <path d="M277.67,487.28q.16,19.35.32,38.71h0q-.09-19.36-.17-38.72c2.2-.11,4.39-.22,6.59-.31h0C282.16,487.06,279.92,487.16,277.67,487.28Z" style="fill: #fff"/>
    <path d="M278,526q3.28-.16,6.57-.3L284.41,487c-2.2.09-4.39.2-6.59.31Q277.91,506.64,278,526Z" style="fill: #fff"/>
    <path d="M159,512q0,9,.07,18,5.61-1.49,11.21-2.84,0-9-.05-18.05Q164.64,510.49,159,512Zm2.25,15.08q0-6.63-.05-13.26,3.42-.88,6.84-1.73,0,6.63,0,13.26C165.82,525.89,163.55,526.47,161.27,527.06Z"/>
    <path d="M250.09,490.27q0,14.67.1,29.36,10.92-1.05,21.85-1.71l-.12-29.34Q261,489.24,250.09,490.27ZM252.37,517l-.09-24.57q8.73-.79,17.46-1.35.06,12.28.11,24.55Q261.1,516.23,252.37,517Z"/>
    <path d="M266.51,468.7q0-9,0-18c-3.38.23-6.76.5-10.14.79v1.2l-1.11.1.06,16.83Q260.92,469.09,266.51,468.7Zm-2.2-15.49q0,6.63,0,13.25c-2.27.17-4.55.34-6.82.54q0-6.63-.05-13.25C259.74,453.56,262,453.38,264.31,453.21Z"/>
    <path d="M270.81,474.07v-1.2l1.08-.07-.12-28.16q-10.92.66-21.86,1.72,0,14.68.08,29.36Q260.4,474.73,270.81,474.07Zm-1.22-26.9q.06,12.29.11,24.58-8.76.56-17.53,1.37l-.06-24.57Q260.86,447.74,269.59,447.17Z"/>
    <path d="M287.89,477.4c-49.67,1.76-99.33,9-149,24.23v10.66l2.9-.79q.08,18.71.13,37.4l2.19-.66q-.06-18.66-.13-37.32c1.48-.4,3-.78,4.45-1.16l-.36,37.74,2.19-.59q.21-20.05.41-40.12h0v-.35q-4.42,1.26-8.86,2.6v.05l-.7.19v-5.93c48.21-14.52,96.43-21.61,144.64-23.48,0,1.94,0,3.88,0,5.83q-4.61.18-9.21.42l.33,40.37h0l2.19-.13-.16-38,4.4-.21.15,37.54,2.18-.11q-.06-18.75-.14-37.52L288,488Z"/>
    <path d="M233.33,471.89q0-9-.05-18.06-5.07.63-10.14,1.35v1.2l-1.09.16q0,8.43.07,16.85Q227.73,472.58,233.33,471.89Zm-2.24-15.39q0,6.63,0,13.27-3.4.44-6.83.92l-.06-13.27Q227.68,456.94,231.09,456.5Z"/>
    <path d="M237.6,477.05v-1.2l1.09-.13q-.06-14.09-.14-28.16-10.94,1.26-21.87,2.91.06,14.67.11,29.34Q227.2,478.24,237.6,477.05Zm-1.23-26.84q.07,12.29.13,24.57-8.76,1-17.53,2.3l-.09-24.54Q227.63,451.24,236.37,450.21Z"/>
    <path d="M153.66,507.8l.12,29.32q10.4-2.85,20.8-5.27v-1.19l1.1-.27q-.06-14.07-.11-28.14Q164.61,504.79,153.66,507.8Zm2.3,26.33q0-12.27-.1-24.53,8.76-2.39,17.52-4.44,0,12.27.1,24.55Q164.72,531.77,156,534.13Z"/>
    <path d="M173.34,488.18v.75l2.18-1.72-.15-28.82q-10.92,2.52-21.86,5.52,0,14.65.1,29.31Q163.48,490.51,173.34,488.18Zm-.14-26.88.12,24.48q-8.76,2.07-17.53,4.45,0-12.25-.08-24.52Q164.46,463.36,173.2,461.3Z"/>
    <path d="M170.15,483.3q0-9-.07-18Q165,466.5,160,467.83V469l-1.1.29q0,8.4.05,16.8Q164.54,484.65,170.15,483.3Zm-2.25-15.09q0,6.62,0,13.23c-2.28.55-4.56,1.13-6.84,1.72q0-6.62,0-13.22C163.35,469.35,165.62,468.77,167.9,468.21Z"/>
    <path d="M256.5,495.34v1.19l-1.1.11q.06,8.4.11,16.8,5.61-.5,11.2-.88l-.09-18Q261.55,494.91,256.5,495.34Zm1.19,15.52-.09-13.22q3.42-.28,6.84-.54,0,6.61.07,13.22Q261.09,510.58,257.69,510.86Z"/>
    <path d="M211.2,480.69q-.06-14.64-.1-29.3-10.95,1.78-21.88,4l.09,29.33Q200.25,482.49,211.2,480.69Zm-2.28-26.54q0,12.25.08,24.51-8.76,1.47-17.51,3.23,0-12.27-.08-24.54Q200.17,455.6,208.92,454.15Z"/>
    <path d="M205.83,476q0-9-.07-18.07c-3.36.59-6.73,1.2-10.1,1.85v1.2l-1.09.22q0,8.4.05,16.8Q200.21,476.9,205.83,476Zm-2.25-15.29q0,6.63,0,13.26c-2.28.4-4.55.8-6.83,1.22q0-6.6,0-13.22Z"/>
    <path d="M242.47,467a574.42,574.42,0,0,0-57,9q.1,31.05.2,62.1a575,575,0,0,1,57.05-9q-.1-31.08-.22-62.16Z" style="fill: #fff"/>
    <path d="M229.38,412l-.07-18.06q-16.27,2.13-32.55,5.2,0,9,.07,18.06Q213.11,414.1,229.38,412Zm-2.25-15.37q0,6.63.05,13.26-14.09,1.9-28.17,4.5,0-6.63,0-13.26Q213,398.51,227.13,396.62Z"/>
    <path d="M243.55,465.71a575.25,575.25,0,0,0-59.21,9.39l.21,64.49a573.16,573.16,0,0,1,59.24-9.31q-.1-31.69-.22-63.38Zm-57,11.32c18.28-3.82,36.56-6.68,54.84-8.69l.06,15.4c-18.29,2-36.57,4.86-54.85,8.68Q186.56,484.73,186.54,477Zm.2,59.71-.15-41.92,4.39-.9.18,41.91Zm6.61-1.34q-.09-21-.19-41.91,20.66-4.07,41.31-6.55l.18,42Q214,531.4,193.35,535.4Zm43.49-6.75-.18-42c1.59-.19,3.19-.37,4.79-.54q.08,21,.14,42Z"/>
    <path d="M194.72,420.8q-17.43,17.4-34.85,36a572,572,0,0,1,103.43-17v-1.2c.21-.34.43-.68.65-1q-16.22-11.76-32.42-22.67Q213.13,417.27,194.72,420.8Zm-28.18,31.89q14.44-15.22,28.9-29.63,17.69-3.39,35.38-5.63,14.56,9.76,29.12,20.26A573.13,573.13,0,0,0,166.54,452.69Z"/>
    <path d="M196.76,399.14l.06,18.05q16.27-3.09,32.56-5.2l-.07-18.06Q213,396.06,196.76,399.14ZM199,414.38q0-6.63,0-13.26,14.08-2.61,28.17-4.5,0,6.63.05,13.26Q213.09,411.79,199,414.38Z"/>
    <path d="M213.61,378.58l-.63,1.08-.63-.88q-9.78,9.18-19.56,18.71h0q20.27-4,40.53-6.45h0Q223.47,384.64,213.61,378.58Zm-14,15.21q6.66-6.41,13.32-12.66,6.72,4.13,13.43,8.4Q213,391.35,199.66,393.79Z"/>
    <path d="M205,401.52l.06,10.19q8.07-1.41,16.13-2.58l-.06-10.2Q213.05,400.1,205,401.52Zm2.23,7.42,0-5.41q5.88-1,11.75-1.88c0,1.8,0,3.6,0,5.4Q213.1,407.93,207.22,408.94Z"/>
    <path d="M287.31,396c0-10.77-1.25-32.51-6.05-32.16v0c-4.85.11-5.86,21.93-5.86,32.72-4.09,1.47-13.16,8.42-17.14,14.38q23.17-1.87,46.35-2.09C300.57,403.16,291.43,397.09,287.31,396Z" style="fill: #fff"/>
    <path d="M188.11,476.1v1.21l-1,.78.88,1.55a7,7,0,0,0,0,6.27l-1.71,3.71c2.57-.54,5.13-1.06,7.7-1.56L192.34,485a6.9,6.9,0,0,0,0-6.12c.6-1.32,1.19-2.64,1.79-4h0Q191.11,475.48,188.11,476.1Zm2.31,1.93-.22.5-.23-.41Zm-.39,8.43.17-.36.15.29Zm.14-1.75,0,.07c-.27-.49-1.38-2.78,0-4.61l.07-.09A4.22,4.22,0,0,1,190.17,484.71Z"/>
    <path d="M288.4,395.09c0-5.22-.49-26.95-4.91-31.49a2.79,2.79,0,0,0-2.19-1h0v0a3.2,3.2,0,0,0-2.27,1.16c-4.19,4.71-4.68,24.62-4.71,31.94-4.44,2-12.87,8.49-16.91,14.53L256,412.3q25.41-2.15,50.82-2.3l-1.38-1.92C301.42,402.4,292.89,396.67,288.4,395.09Zm-27.73,14.44c4.33-5.22,11.68-10.65,15-11.86l.8-.29v-.91c0-12.76,1.27-27.93,4.05-31,.33-.37.53-.45.69-.41,0-.37,0-.74,0-1.11l0,1.12c.08,0,.31,0,.67.35,2.78,2.84,4.24,17.58,4.25,30.67v.9l.8.22c3.4.9,10.77,5.55,15.18,10.48Q281.43,408,260.67,409.53Z"/>
    <path d="M196.58,474.42v1.21l-1,.76.87,1.57a7.13,7.13,0,0,0,0,6.27l-1.7,3.68q3.84-.74,7.66-1.43c-.54-1-1.08-2.08-1.63-3.11a6.91,6.91,0,0,0,0-6.15c.58-1.3,1.17-2.6,1.76-3.9Q199.59,473.85,196.58,474.42Zm2.32,2-.23.52-.24-.43Zm-.41,8.43.16-.37.16.31Zm.15-1.74,0,.07c-.27-.51-1.34-2.84,0-4.63l.08-.1h0S200.17,480.24,198.64,483.07Z"/>
    <path d="M204,473.08c.58,1.07,1.16,2.14,1.75,3.21a7.09,7.09,0,0,0,0,6.27c-.55,1.2-1.1,2.41-1.66,3.62q3.81-.63,7.62-1.2c-.55-1.07-1.1-2.14-1.64-3.21a6.89,6.89,0,0,0,0-6.14l1.83-3.89Q207.9,472.37,204,473.08Zm4.14,1.67-.23.5-.23-.42Zm-.4,8.44.17-.36.16.31Zm.14-1.77,0,.06c-.27-.53-1.33-2.84,0-4.61l.06-.08A4.23,4.23,0,0,1,207.85,481.42Z"/>
    <path d="M225.52,469.7v1.2l-1,.71c.29.55.59,1.09.89,1.64a7.06,7.06,0,0,0-.08,6.29c-.54,1.19-1.09,2.38-1.64,3.58,2.55-.36,5.09-.7,7.64-1l-1.66-3.24a6.83,6.83,0,0,0,0-6.1c.59-1.28,1.19-2.56,1.79-3.85C229.51,469.16,227.52,469.42,225.52,469.7Zm2.31,2.08-.22.48-.23-.42Zm-.43,8.44.18-.4.18.35Zm.16-1.79-.06.11c-.28-.56-1.31-2.9.05-4.61l.06-.07A4.12,4.12,0,0,1,227.56,478.43Z"/>
    <path d="M216.25,471.06v1.2l-.94.73.9,1.62a7.13,7.13,0,0,0-.06,6.27c-.56,1.21-1.13,2.41-1.69,3.62q3.85-.6,7.72-1.16l-1.7-3.2a6.85,6.85,0,0,0,0-6.1c.6-1.3,1.19-2.59,1.79-3.88C220.26,470.45,218.26,470.75,216.25,471.06Zm2.34,2-.22.5-.24-.43Zm-.42,8.44.17-.37.17.32Zm.14-1.77,0,.08c-.29-.58-1.29-2.9,0-4.59l.06-.08A4.16,4.16,0,0,1,218.31,479.76Z"/>
    <path d="M232.9,468.77c.59,1.09,1.17,2.19,1.76,3.29a7.12,7.12,0,0,0-.07,6.27l-1.69,3.57c2.54-.32,5.09-.62,7.63-.91L239,477.74a6.79,6.79,0,0,0,0-6.12c.6-1.28,1.2-2.55,1.79-3.83Q236.82,468.26,232.9,468.77Zm4.15,1.87-.23.49-.23-.44Zm-.44,8.41.2-.43.19.39Zm.21-1.78-.09.14c-.24-.47-1.36-2.92,0-4.64l.07-.09A4.09,4.09,0,0,1,236.82,477.27Z"/>
    <path d="M214.28,612.7h0Z" style="fill: #f9d90f"/>
    <path d="M274.17,594.64c-12.3,7.57-38.58,14.62-59.94,18.07h0c-21.33,3.18-48.37,4.72-60.67,1.35q-13.55,2.4-27.09,5.58l-.3,36.24c23,5.16,76.53-3.53,88.17-4.67,11.63-2.47,64.5-10.66,87.4-24.08L301.2,591Q287.69,592.56,274.17,594.64Z" style="fill: #f9d90f"/>
    <path d="M274.15,594.37l-.09,0c-11.77,7.26-37.18,14.35-59.31,17.94l-.52.08h0c-22.31,3.34-48.9,4.55-60.55,1.34q-13.59,2.4-27.19,5.58l-.27.06-.3,36.55v.17l.13,0c23.39,5.26,76.8-3.64,87.8-4.6l1-.15c10.86-2.43,63.84-10.44,87.06-24l.13-.08q-.27-18.3-.55-36.58Q287.8,592.27,274.15,594.37Zm-59.92,18.08v0Zm.58,38.41-.47.07c-9.76.83-64.17,9.92-87.91,4.7q.15-17.88.29-35.77,13.4-3.15,26.77-5.51c11.75,3.2,38.43,2,60.8-1.37h0l.46-.08c22.17-3.61,47.65-10.71,59.5-18q13.35-2.05,26.7-3.58l.54,35.64C278.29,640.47,225.62,648.44,214.81,650.86Z"/>
    <path d="M56.6,508.9c-9.74,37.08-5.94,57.4-5.94,57.38q11.28-7.69,22.55-14.76,3.6-22.75,7.2-45.45-11.91,1.08-23.82,2.85Z" style="fill: #f9d90f"/>
    <path d="M56.61,508.84l-.26.09c-9.64,36.74-6,57.34-5.94,57.53l.05.24q11.38-7.79,22.78-14.92l.18-.12Q77,528.8,80.66,506l0-.26q-12,1.08-24,2.87Zm23.51-2.45q-3.57,22.46-7.13,45-11.05,6.95-22.12,14.48c-.38-2.39-3-22.46,5.88-56.66Q68.44,507.45,80.12,506.39Z"/>
    <path d="M50.66,566.28q11.27-7.93,22.53-15.22-4.14-7.06-8.27-14Q57.78,551.53,50.66,566.28Z" style="fill: #7e7e7e"/>
    <path d="M64.92,537q-7.14,14.51-14.26,29.25,11.27-7.92,22.53-15.21h0Q69.05,544,64.92,537Z" style="fill: #f9b60f"/>
    <path d="M65,536.46Q57.53,551.58,50.1,567q11.57-8.16,23.14-15.65l0-.25.23-.23Q69.19,543.6,65,536.46ZM51.23,565.6q6.83-14.13,13.65-28,4,6.69,7.93,13.44Q62,558,51.23,565.6Z"/>
    <path d="M65.31,536.91q-11.49,4.56-23,9.77h0c-2.19,20.37-1.24,55,13.75,77,15,22.63,44,32.76,98,16.69q1.38-15.17,2.75-30.33C112.5,620.3,89.75,609.3,78,590.87,66.28,572.81,65.56,547.31,65.31,536.91Z" style="fill: #f9d90f"/>
    <path d="M78.24,590.66c-11.81-18.37-12.44-44.1-12.68-53.88v-.25q-11.44,4.54-22.91,9.74v0l-.29.15v.28l-.24.1c-3.28,30.88,1.56,72.05,26,90.31,18.69,14.18,46.1,14.38,81.51,4.84q-11.53,6-23,12.62l.11.51h0q12.63-7.23,25.25-13.77c.71-.19,1.43-.4,2.15-.61l.23-.06q1.4-15.45,2.81-30.88l-.27.06C119.3,618.08,92.86,613.55,78.24,590.66Zm75.59,49.53-.14,0-.08-.39h0l-1.75.9c-36.34,10.12-64.39,10.21-83.38-4.21-24.25-18.14-29.1-59-25.89-89.68q11.24-5.11,22.48-9.57c.24,10,1,35.54,12.73,53.83,14.68,23,41.17,27.55,78.74,19.3Z"/>
    <path d="M370,453.51q-11.87,3.27-23.72,6.87,3.75,21.24,7.52,42.52,11.29,2.57,22.59,5.44S380,486.42,370,453.48Z" style="fill: #ff0"/>
    <path d="M370,453.51h0q-11.87,3.27-23.72,6.87,3.76,21.24,7.52,42.52,11.29,2.58,22.59,5.45S380,486.42,370,453.49Z" style="fill: #f9d90f"/>
    <path d="M370,453.45l0-.22v.22h0l-.06-.21q-11.85,3.27-23.72,6.87l-.21.07q3.78,21.36,7.56,42.76l0,.19q11.37,2.6,22.76,5.49l.25.06,0-.26c0-.21,3.53-22.38-6.4-55ZM376.17,508q-11.09-2.82-22.16-5.35-3.72-21-7.45-42.08,11.64-3.52,23.28-6.73C379,484.23,376.53,505.42,376.17,508Z"/>
    <path d="M353.79,502.46q11.29,2.81,22.59,5.91-7.23-11.67-14.45-23.22Q357.87,493.79,353.79,502.46Z" style="fill: #7e7e7e"/>
    <path d="M353.79,502.46h0q11.29,2.81,22.59,5.91-7.23-11.67-14.45-23.22Q357.87,493.78,353.79,502.46Z" style="fill: #f9b60f"/>
    <path d="M361.89,484.61l-8.33,17.71.23.14,0,.27q11.28,2.81,22.58,5.91l.62.17q-7.41-12-14.81-23.81Zm-7.72,17.66q3.9-8.31,7.8-16.58,6.91,11.07,13.84,22.24Q365,505,354.17,502.27Z"/>
    <path d="M361.51,485.12c-.34,22.53-2,99.31-90.67,106.71q1.52,14.68,3,29.37c53.93-1.79,82.76-24.13,97.51-53,14.76-28.56,15.46-63.68,13.13-83Q373,485,361.51,485.12Z" style="fill: #f9d90f"/>
    <path d="M384.49,485.1h0Z" style="fill: #f9d90f"/>
    <path d="M384.49,485.08v-.25q-11.49-.13-23,0h-.23v.25c-.15,9.86-.56,35.92-12.19,59-14.38,28.75-40.71,43.33-78.23,47.42l-.27,0q1.51,14.82,3,29.66l0,.24h.22l2.16-.11q12.66,2.36,25.31,5.17l.11-.54q-11.55-2.58-23.1-4.77c35.35-2.24,62.63-12.84,81.15-34.66,24.23-28.36,28.75-72.12,25.27-101.49ZM359.1,586.18c-18.81,22.17-46.73,32.7-83,34.63l-1.76-.32-.08.41h-.15q-1.47-14.42-2.95-28.83c37.57-4.14,63.94-18.8,78.38-47.66,11.58-23,12.09-48.94,12.25-59q11.25-.15,22.52,0C387.69,514.63,383.13,558,359.1,586.18Z"/>
    <path d="M198.67,625.92q-3.57.42-7.13.9l-1,17,2.12-.27v0c.14-2.4.29-4.81.43-7.22l5-.58a5.08,5.08,0,0,0,3.63-1.9,6,6,0,0,0,1.34-3.58,3.66,3.66,0,0,0-4.4-4.36Zm1.2,7.05h0a4.29,4.29,0,0,1-2.38.94c-1.42.19-2.85.38-4.28.59l.37-5.93,4.24-.57a3.79,3.79,0,0,1,1.92.16c.86.33,1.23,1.17,1.16,2.43A3.16,3.16,0,0,1,199.87,633Z" style="fill: #012a87"/>
    <path d="M117.47,624.1c-2.34,0-4.67.09-7,.16q-2.44,8.9-4.9,17.82l2-.08h0c.69-2.54,1.39-5.08,2.08-7.62l4.67,0a2.74,2.74,0,0,1,1.74.28c.57.36.75,1.14.46,2.29-.23,1-.47,2-.7,3-.16.72-.24,1.19-.31,1.42a3.15,3.15,0,0,0,0,.57h2.47l.15-.44c-.27-.14-.42-.5-.41-1,.06-.33.14-.86.3-1.49l.6-2.39a3.78,3.78,0,0,0,.11-2.23,2,2,0,0,0-1-1.13,6,6,0,0,0,3.3-4.26c.56-2,.25-3.43-1-4.15A5.49,5.49,0,0,0,117.47,624.1Zm1.5,5.09a4.34,4.34,0,0,1-1.51,2.46,5.3,5.3,0,0,1-2.44.67c-1.58,0-3.15,0-4.73.07q.84-3,1.66-6.08h0c1.67,0,3.35,0,5-.06a2.79,2.79,0,0,1,1.57.32C119.18,627,119.35,627.9,119,629.19Z" style="fill: #012a87"/>
    <path d="M89.8,620a3.37,3.37,0,0,0-1.48-2.84l-4.95-3.42Q77.61,622,71.85,630.44l1.49,1h0c1.62-2.37,3.23-4.72,4.85-7.07l3.45,2.31a3.28,3.28,0,0,0,3.43.29,8.18,8.18,0,0,0,3.17-2.86A7.11,7.11,0,0,0,89.8,620Zm-3,3.07a3.84,3.84,0,0,1-2.22,1.84h0a2.65,2.65,0,0,1-2.06-.49l-2.94-2,4-5.71,3,2A3.1,3.1,0,0,1,87.61,620,3.61,3.61,0,0,1,86.77,623.05Z" style="fill: #012a87"/>
    <path d="M87.25,638.82h0q5,1.18,10,2.48c.33-.7.66-1.39,1-2.09-2.73-.71-5.47-1.4-8.2-2.06.94-2,1.89-4,2.83-6q3.73.93,7.47,1.93l1-2c-2.48-.68-5-1.34-7.45-2,.84-1.78,1.67-3.57,2.51-5.35,2.7.68,5.4,1.4,8.1,2.13.35-.7.69-1.4,1-2.1q-4.92-1.41-9.86-2.7Q91.42,629.89,87.25,638.82Z" style="fill: #012a87"/>
    <path d="M54.42,587.35a7.48,7.48,0,0,0,2.89-3.63,8.84,8.84,0,0,0,.58-3l.1-2.51a22,22,0,0,1,.37-3.31,3.5,3.5,0,0,1,1.51-2.08,2.1,2.1,0,0,1,2-.36c.64.12,1.06.8,1.27,2.05a5.8,5.8,0,0,1-.63,4,9.65,9.65,0,0,1-1.82,2c.11.66.23,1.31.34,2a8.75,8.75,0,0,0,3.49-4.22,8.66,8.66,0,0,0,.44-4.86c-.27-1.75-1-2.83-2-3.13a4.17,4.17,0,0,0-3.71.85,6.62,6.62,0,0,0-2.67,3.43A12.93,12.93,0,0,0,56,578l-.1,2.42a12.35,12.35,0,0,1-.49,3.12,4,4,0,0,1-1.65,2c-1.13.78-2,.72-2.72-.21a4.7,4.7,0,0,1-.73-1.84,6.21,6.21,0,0,1,.91-4.67,8.29,8.29,0,0,1,2-2.1l-.36-1.93v0a10,10,0,0,0-3.73,4.33,9.11,9.11,0,0,0-.69,5.47,5.11,5.11,0,0,0,1.9,3.46C51.31,588.81,52.67,588.56,54.42,587.35Z" style="fill: #012a87"/>
    <path d="M59.49,593.56l2.64,7.6,1.77-1.46-2.67-7.58,4.6-3.73,2.88,8.23,1.85-1.49q-1.77-5-3.53-10-7.56,6.06-15.13,12.41h0q1.79,5,3.58,10.07l1.81-1.46c-1-2.79-1.95-5.57-2.93-8.35Z" style="fill: #012a87"/>
    <path d="M58.61,614.39h0Z" style="fill: #012a87"/>
    <path d="M78.43,608.33q-7,4.41-14,9.07,4.78-7.83,9.57-15.55l-1.49-2.17q-7,7.23-13.91,14.7l1,1.4q4.08-4.41,8.17-8.73c.53-.51,1-1,1.54-1.62.7-.76,1.21-1.28,1.51-1.6l.45-.47q-4.74,7.71-9.5,15.54l1,1.49q7-4.65,13.92-9.07c-.73.74-1.46,1.51-2.12,2.13L73.19,615Q69.1,619.18,65,623.5l1,1.4q6.94-7.3,13.89-14.39Z" style="fill: #012a87"/>
    <path d="M349.23,559.76q6.81,4.69,13.63,9.51v0l1.12-1.93q-6.83-4.8-13.65-9.48Z" style="fill: #012a87"/>
    <path d="M370.83,547.35l-3.63,9.2-5-2.53c1.09-2.8,2.19-5.59,3.28-8.38l-1.7-.88q-1.65,4.2-3.31,8.4L356.08,551l3.54-9.14-1.79-.85-4.34,11.1q7.36,3.6,14.71,7.33h0q2.21-5.62,4.42-11.22Z" style="fill: #012a87"/>
    <path d="M340.38,574.65h0Z" style="fill: #012a87"/>
    <path d="M352,570.64a8.6,8.6,0,0,0-5.07-2.76,5.51,5.51,0,0,0-5.1,2.15l-4.29,4.89q5.93,5.85,11.84,11.78l4.29-4.85v0a6.4,6.4,0,0,0,1.14-7A12.78,12.78,0,0,0,352,570.64Zm1.06,8.63a6.6,6.6,0,0,1-1.06,1.51l-2.52,2.89q-4.55-4.54-9.1-9h0v0h0l2.51-2.93a4,4,0,0,1,3.75-1.63,7.59,7.59,0,0,1,4.19,2.5A7.47,7.47,0,0,1,352,573.9a9.15,9.15,0,0,1,1.27,2.58A4.93,4.93,0,0,1,353.07,579.27Z" style="fill: #012a87"/>
    <path d="M375.6,505.37a3.59,3.59,0,0,0-3.39,1,7,7,0,0,0-1.24,2.4c-.23.76-.46,1.52-.7,2.28a12.42,12.42,0,0,1-1.13,2.86,1.62,1.62,0,0,1-1.76.7,2.83,2.83,0,0,1-1.8-1.14,4.58,4.58,0,0,1-.52-3.05c.15-1.66.64-2.77,1.53-3.25a3.12,3.12,0,0,1,2-.4l.15-2.11a3.94,3.94,0,0,0-3.95,1.12,7.43,7.43,0,0,0-1.6,4.28,6.41,6.41,0,0,0,1,4.59,4.91,4.91,0,0,0,3.37,2.18,3,3,0,0,0,3.08-1.1,9,9,0,0,0,1.34-2.92c.23-.72.47-1.45.71-2.17a7.77,7.77,0,0,1,1.14-2.55,1.91,1.91,0,0,1,1.93-.5,2.84,2.84,0,0,1,2.2,2.48,7.14,7.14,0,0,1,.15,2.38c-.17,1.86-.82,3.07-1.94,3.65a3.9,3.9,0,0,1-2.23.29c-.06.71-.12,1.41-.19,2.12h0a4.77,4.77,0,0,0,4.22-1,6.71,6.71,0,0,0,1.92-4.58,10.25,10.25,0,0,0-.71-4.89A4.54,4.54,0,0,0,375.6,505.37Z" style="fill: #012a87"/>
    <path d="M218.47,638.66a6.26,6.26,0,0,1-.16-1.4c0-.75,0-1.5,0-2.24a3,3,0,0,0-.55-2,2.23,2.23,0,0,0-1.39-.87,6.21,6.21,0,0,0,1.68-1.77,5.61,5.61,0,0,0,.57-2.63c0-1.92-.71-3.14-2.18-3.62a6.53,6.53,0,0,0-3-.15c-2.45.37-4.91.75-7.36,1.15L206,642l2.12-.37v0l0-7.18,4.9-.74a4.14,4.14,0,0,1,1.95,0c.73.25,1.08,1,1.11,2s.09,1.86.13,2.8c0,.67,0,1.08.08,1.36a3.27,3.27,0,0,0,.19.53l2.64-.4,0-.36A1.19,1.19,0,0,1,218.47,638.66Zm-3-7.95a4.52,4.52,0,0,1-2.35,1c-1.67.25-3.34.5-5,.77l0-5.79h0c1.74-.28,3.48-.54,5.22-.8a4.56,4.56,0,0,1,1.78.12c.81.29,1.18,1.06,1.18,2.26A3.19,3.19,0,0,1,215.51,630.71Z" style="fill: #012a87"/>
    <path d="M361.74,524.54q6.28,1.9,12.56,3.9-7.16,2.1-14.3,4.32l-.51,2.59q7.74,2.32,15.47,4.8h0l.45-2.15q-6.29-2-12.56-3.85,7.15-2.25,14.32-4.39c.16-.83.32-1.67.49-2.5q-7.74-2.44-15.48-4.75Z" style="fill: #012a87"/>
    <path d="M341.43,591q-4,2.67-8,5.38-1.48-2.4-3-4.8,3.65-2.49,7.29-4.94l-1-1.68q-3.64,2.46-7.3,5l-2.7-4.34q3.94-2.68,7.9-5.34l-1.07-1.72q-4.82,3.22-9.63,6.53,4.38,7.08,8.78,14.2,4.89-3.3,9.8-6.54Z" style="fill: #012a87"/>
    <path d="M227.84,621a8.18,8.18,0,0,0-5.92,4.27h0a11.41,11.41,0,0,0-1.28,6.11,8.9,8.9,0,0,0,2.2,5.86,6.48,6.48,0,0,0,5.88,1.39,8.35,8.35,0,0,0,5.89-3.94,12,12,0,0,0,1.47-6.61,8.58,8.58,0,0,0-1.88-5.33C232.78,621.05,230.68,620.48,227.84,621Zm5,12.69a5,5,0,0,1-4,2.89c-2,.38-3.48.07-4.43-1.06h0a7.52,7.52,0,0,1-1.56-4.46,8.56,8.56,0,0,1,1.28-5.49,5.83,5.83,0,0,1,3.92-2.57,4.25,4.25,0,0,1,4.06,1.11,6.37,6.37,0,0,1,1.75,4.43A10.56,10.56,0,0,1,232.86,633.68Z" style="fill: #012a87"/>
    <path d="M295.55,603l.25,1.85,4.93-.94c.28,1.95,0,3.48-.79,4.49a5.25,5.25,0,0,1-3.31,2c-1.86.33-3.3,0-4.27-1.1a8.09,8.09,0,0,1-2-4.53,8.28,8.28,0,0,1,.69-5.49,5.08,5.08,0,0,1,3.41-2.39,5.3,5.3,0,0,1,3.17.23,4.09,4.09,0,0,1,2,2.34l2.12-.36c-.72-2.12-1.87-3.49-3.59-4a7.07,7.07,0,0,0-3.93-.15v0a6.91,6.91,0,0,0-4.9,3.35,10.1,10.1,0,0,0-1.12,7.05,9,9,0,0,0,3.18,6.11,6.55,6.55,0,0,0,5.09,1,7,7,0,0,0,3.42-1.49,8.75,8.75,0,0,0,1.65-2.09l.84,2,1.37-.24c-.45-3-.9-5.93-1.34-8.9Z" style="fill: #012a87"/>
    <path d="M323.91,602.35c-.19-.32-.38-.77-.64-1.3l-.81-2.11a4.41,4.41,0,0,0-1.18-1.84,3.73,3.73,0,0,0-1.64-.5,4.7,4.7,0,0,0,1-2,4.94,4.94,0,0,0-.25-2.58,3.89,3.89,0,0,0-3.42-2.92,6.81,6.81,0,0,0-3,.56c-2.31.89-4.61,1.8-6.92,2.72q2.79,7.9,5.59,15.82l2-.82v0l-2.4-6.76c1.52-.61,3-1.21,4.57-1.8a4.66,4.66,0,0,1,1.91-.4,2.37,2.37,0,0,1,1.84,1.69l1.05,2.59a4.31,4.31,0,0,0,.56,1.21,1.41,1.41,0,0,0,.33.51l2.48-1-.13-.36A1.22,1.22,0,0,1,323.91,602.35Zm-5.56-6.87A4.07,4.07,0,0,1,316.3,597l-4.62,1.82q-1-2.7-1.91-5.38c1.64-.67,3.28-1.32,4.92-2a3.61,3.61,0,0,1,1.76-.3c.91.08,1.57.68,1.95,1.86A2.84,2.84,0,0,1,318.35,595.48Z" style="fill: #012a87"/>
    <polygon points="332.7 599.21 332.7 599.21 332.69 599.21 332.7 599.21" style="fill: #012a87"/>
    <path d="M308.75,319c-25.81-19.83-50.26-9.6-72.65-6-7.17,1.19-8-2.68-.8-3.38s26.43-3.95,25.81-7.34c-.66-3.7-35.93-2.23-45.36-.65-9.46,1.31-8.58,8.8-4.44,11.79s9,1.64,5.9,2.55c-5.46,1.61-14.76-3-14.76-3-55,5-71.76,25.89-73.57,30.66v0c-1.21,4.64,19.25-6.72,19.25-6.59,6.57.31,41.26-8.2,41.26-7.86-2.88,3.75-19.27,12-18,14.82s9.9-1,14.81-2c-2,6.43,16.61-.73,21.72-3.2,31,4.87,35.92-8,34.64-11.54,9.86-.41,17.42-7.71,17.42-7.72,9.85.83,32.62-1.4,32.62-1.31C301,321.82,311.83,321.4,308.75,319Z" style="fill: #bc715f"/>
    <path d="M176.93,383.84a27,27,0,0,0-15.32,5.35c-2.1.28-4.9,5.63-5.69,2-1.23.07-1.81-2-3.31-1.23-4.22,5.64-6.56-.56-10-.54-1.58.43-1.88,2.5-2.62,3.83h0c-6-5.09-16-4.39-24.25,2-.22,5.17,4.15,6.59,7.18,8.38,1.33.63,3.58-.62,4.25,1-3,4.43-4.24,10.56-3.23,14.8,3.12,3.86,5.78-6.48,10.6-4.58.46,2.71,3.68,1.25,4.62,3-2.76,3.61-3.5,8.43-2.21,11.85.67,3.08,2.46,6.48,5.52,6.66,2.63-3.47,4-6.66,5.81-10.36.55,2.43,0,6.34.86,8.59,1-.83,2-1.67,3-2.49,4.51-4.49,4.4-9.27,5.25-14.44-.34-1.22-2.7-1.55-1.31-3.57,1.35.94,1.8,3.44,4,2.93,1.26-1.19.77-2.76,1.29-4.23,1.74-.48,3.81,1.12,5.06-1.52-.71-1.11-2.52-1.91-2.27-3.24.53-.31.73.18,1,.39,2.06,1,4.51.68,7,.57,2-.92,1.51-3.05,2.05-4.59.06-3.81-3.07-5.49-3.14-9.25C174.41,392.29,177.09,387.55,176.93,383.84Z" style="fill: #008830"/>
    <path d="M147.94,404.86c-2,.9-3.6-2.79-5.27,1.13-1.07-1.15,0-3.24-.89-4.31h0c-1.06-.88-1.87-2.08-3.63-1.2-2,2-1.22,3.86-1.47,6.39-1.78,1.94-4.67-.07-6.32,3.31-.79,1.92-.32,3.73,1.26,4.17,2.55.7,2.5-1.51,3.72-3.57,1.69.85.09,2.6.57,4.16.93,1.79,3.78.86,5.62-.13,1-2.52-.19-3.64-1.49-4.57.21-.31.41-.63.61-.95,2.18,1.5,5.14-.23,7.6-1.65C148.15,406.74,148.55,405.5,147.94,404.86Z" style="fill: #f9d90f"/>
    <path d="M140.89,397.22c.63.09.23,1,.36,1.36.81.68,1.15,2.94,2.87,1.71,1.15-1.91,0-1.77-.53-3l1-1.33c1.57,1.67,2.73-2.39,4.33-2.16-2-1.94-4.8,1.91-4.61-2.3h0c-.35-1.07-1.45-.23-2.31-.14-1.25,1.21-.29,2.38-.45,3.64-1,1.66-3-.36-4.35,2-.72.84,0,1.67.36,2.36A5.39,5.39,0,0,0,140.89,397.22Z" style="fill: #f9d90f"/>
    <path d="M155.16,394.3c-1-.3-.48-1.56-.59-2.34h0c-3-3.54-3.11,2.36-4.36,4.22a2.47,2.47,0,0,0-3.05.53c-.79,1.24-.07,2.25.67,2.94,2,.54,1-2,2.59-2.49,1.34.2.18,2.49,1,2.61,1.26-.94,1.82,1.23,3-.33.27-1.1-.84-1.24-1.32-1.91.64-.64,1.14-1.54,2-1.49.24.34.86.44.72.89l1.95-.13c.87-.58.66-1.48.67-2.21C157.73,393.43,156.41,393.22,155.16,394.3Z" style="fill: #f9d90f"/>
    <path d="M143.74,402.2c1.34-.23,4.2,3.32,5-1.08C146.65,402.47,145.53,398.19,143.74,402.2Z" style="fill: #fff"/>
    <path d="M155,400.73c1,.8.67,3.6,2.66,2.45h0a20.51,20.51,0,0,0-1.9-3.42C155.53,400.08,155.27,400.4,155,400.73Z" style="fill: #fff"/>
    <path d="M156.67,404.9c-.27.34-.89,1.15-1.39,1.75-1.59-.62.27-2.28-.3-3.57-1.2-1.38-2.53-2.75-4.88-1.5-1.63,2.1.19,3.47-.47,5.72-1,3.12-3.78,3.47-6.09,4.09l-.3,3.19c2.41,1.36,3.43-1,4.36-3.49,2.82-.71.18,2.54.89,4-.17,2.91,2.76,1.27,4.65.88,2.24-2.34.07-3.26-.28-5.11a1.94,1.94,0,0,1,1.74-1.2c.27.51,1.33.59,1,1.54l1.59-.36c1.6-1.28,4.43-2,3.41-4.74C159.61,404.82,158,405,156.67,404.9Z" style="fill: #f9d90f"/>
    <path d="M153.29,408.22c-.72-.36-1.19-1.67-2.33-.84-1,1-2.24,1.56-1.78,3.3a2,2,0,0,0,2.34.44c.76-1,2.36-1.52,1.77-2.9Z"/>
    <path d="M150.56,408.47l.36,1.77c.38-.21.73-.19,1-.63h0C152.3,408.32,151.32,408.33,150.56,408.47Z" style="fill: #fff"/>
  </g>
</svg>
