<svg xmlns="http://www.w3.org/2000/svg" viewBox="0 0 1260 1012.04">
  <g>
    <path d="M0,90.08v920C420,738.76,840,1193.28,1260,922V2C840,273.28,420-181.24,0,90.08Z"/>
    <path d="M0,90.08V703.41C420,432.09,840,886.62,1260,615.3V2C840,273.28,420-181.24,0,90.08Z" style="fill: #fff"/>
    <path d="M0,90.08V396.74C420,125.43,840,580,1260,308.63V2C840,273.28,420-181.24,0,90.08Z" style="fill: #ce1126"/>
    <path d="M349.88,456q26.63,10.74,53.26,23.09Q390.57,420.89,378,363,363.95,409.27,349.88,456Z" style="fill: #007a3d"/>
    <path d="M352.86,475.1c17.75-5.42,35.51-10.26,53.26-14.64Q392.07,411.53,378,363,365.43,418.87,352.86,475.1Z" style="fill: #007a3d"/>
    <path d="M373.55,492.86c30.33-18.17,60.66-34.8,91-50.44-30.34-4.8-60.67-8.62-91-10.89Z" style="fill: #007a3d"/>
    <path d="M390.93,491.58c24.54-17.23,49.08-33.52,73.62-49.16A1050,1050,0,0,0,358,439.47Q374.47,465.21,390.93,491.58Z" style="fill: #007a3d"/>
    <path d="M365.07,489.52q16.47-23.75,32.92-46.87a825.77,825.77,0,0,0-106.54-13.11C316,448.3,340.53,468.39,365.07,489.52Z" style="fill: #007a3d"/>
    <path d="M382.45,493.57V432.24a785.81,785.81,0,0,0-91-2.7C321.79,449,352.12,470.56,382.45,493.57Z" style="fill: #007a3d"/>
    <path d="M350.11,465.68c27.13,26.57,54.25,54.49,81.38,83.35q-14.07-49.24-28.12-98.15Q376.73,457.53,350.11,465.68Z" style="fill: #007a3d"/>
    <path d="M357.87,483.34C382.41,504.27,407,526.26,431.49,549q-20.36-56.79-40.71-112.82Q374.33,459.49,357.87,483.34Z" style="fill: #007a3d"/>
    <path d="M324.51,540.71c24.54-19.16,49.08-37.12,73.62-54.16q-16.45-26.48-32.91-52.38Q344.86,486.94,324.51,540.71Z" style="fill: #007a3d"/>
    <path d="M324.51,540.71c27.13-24.87,54.25-48.27,81.38-70.6q-26.62-12.37-53.26-23.25Q338.58,493.54,324.51,540.71Z" style="fill: #007a3d"/>
    <path d="M853.88,541.83q26.63,12.38,53.26,23.26Q894.57,507.58,882,449.7,867.95,496,853.88,541.83Z" style="fill: #007a3d"/>
    <path d="M856.86,561.1q26.63-6.65,53.26-14.81Q896.07,498.23,882,449.7,869.43,505.58,856.86,561.1Z" style="fill: #007a3d"/>
    <path d="M877.55,579.54c30.33-17.88,60.66-37.24,91-58.64a785.81,785.81,0,0,1-91-2.69Z" style="fill: #007a3d"/>
    <path d="M894.93,578.09c24.54-17.92,49.08-36.89,73.62-57.19A808.46,808.46,0,0,1,862,525.73Q878.47,552.19,894.93,578.09Z" style="fill: #007a3d"/>
    <path d="M869.07,576q16.47-23.26,32.92-47.12c-35.51-5-71-12.27-106.54-20.89C820,531.44,844.53,554.21,869.07,576Z" style="fill: #007a3d"/>
    <path d="M886.45,580.25V518.92c-30.33-2.28-60.66-6.09-91-10.9C825.79,533.27,856.12,557.53,886.45,580.25Z" style="fill: #007a3d"/>
    <path d="M854.11,551.53c27.13,28.23,54.25,55.38,81.38,81.06q-14.07-47.6-28.12-95.72Q880.73,545,854.11,551.53Z" style="fill: #007a3d"/>
    <path d="M861.87,569.6c24.54,22,49.08,43.1,73.62,63q-20.36-54.4-40.71-109.86Q878.33,546.46,861.87,569.6Z" style="fill: #007a3d"/>
    <path d="M828.51,624.27c24.54-16.28,49.08-33.34,73.62-51.47q-16.46-25.74-32.91-52.11Q848.87,572.89,828.51,624.27Z" style="fill: #007a3d"/>
    <path d="M828.51,624.27c27.13-21.69,54.25-44.33,81.38-68.32q-26.62-10.74-53.26-23.1Q842.58,578.75,828.51,624.27Z" style="fill: #007a3d"/>
  </g>
</svg>
