<svg xmlns="http://www.w3.org/2000/svg" viewBox="0 0 1260 1012.04">
  <g>
    <path d="M0,90.08v920C420,738.76,840,1193.28,1260,922V2C840,273.28,420-181.24,0,90.08Z" style="fill: #3e5eb9"/>
    <path d="M0,837.58c420-271.32,840,183.2,1260-88.11v-575C840,445.78,420-8.74,0,262.58Z" style="fill: #ffd900"/>
    <path d="M0,780.08C420,508.76,840,963.28,1260,692V232C840,503.28,420,48.76,0,320.08Z" style="fill: #b10c0c"/>
    <path d="M984,465.6q25.5,8.46,51,14.82,25.5-13.41,51-29.19-25.5-3.89-51-10.24C1018,449.93,1001,458.09,984,465.6Z" style="fill: #fff"/>
    <path d="M983.63,464.52v2.19q25.68,8.54,51.36,14.94,25.66-13.5,51.35-29.41v-2.19q-25.68-3.89-51.35-10.29Q1009.31,453.26,983.63,464.52ZM1035,479.19q-23.91-5.93-47.82-13.78,23.91-10.67,47.82-23.19,23.91,5.92,47.81,9.74Q1058.89,466.66,1035,479.19Z"/>
    <path d="M1001.44,457.85c-245.65,20.2-491.29-106-736.93-88.11a7.18,7.18,0,0,0-6.52,7.08h0a6,6,0,0,0,6.52,6.06C510.15,365,755.79,491.19,1001.44,471a7.28,7.28,0,0,0,6.52-7.14h0A5.91,5.91,0,0,0,1001.44,457.85Z" style="fill: #ffd900"/>
    <path d="M1001.43,456.69c-245.64,20.2-491.28-106-736.92-88.11a8.42,8.42,0,0,0-7.58,8.33,7,7,0,0,0,7.58,7.13c245.64-17.86,491.28,108.31,736.92,88.11a8.53,8.53,0,0,0,7.59-8.4A6.91,6.91,0,0,0,1001.43,456.69Zm0,13.14c-245.64,20.2-491.28-106-736.92-88.11a5,5,0,0,1-5.47-5,6,6,0,0,1,5.47-5.83C510.15,353,755.79,479.21,1001.43,459a4.93,4.93,0,0,1,5.47,4.94A6,6,0,0,1,1001.43,469.83Z"/>
    <path d="M990,458.67q0,6.57,0,13.14c3-.19,6-3.7,6-7S993,458.48,990,458.67Z" style="fill: #ffd900"/>
    <path d="M990,457.51v2.32c2.4-.15,4.94,2.45,4.94,5.08s-2.54,5.59-5,5.74V473c3.57-.22,7.07-4.32,7.07-8.22S993.59,457.28,990,457.51Z"/>
    <path d="M984,459v13.14c3-.16,6-3.64,6-6.93S987,458.86,984,459Z" style="fill: #ffd900"/>
    <path d="M984,457.87v2.32c2.4-.13,4.94,2.49,4.94,5.12s-2.54,5.57-4.94,5.7v2.32c3.56-.19,7.06-4.26,7.06-8.16S987.58,457.67,984,457.87Z"/>
    <path d="M978,459.33v13.14c3-.13,6-3.59,6-6.87S981,459.19,978,459.33Z" style="fill: #ffd900"/>
    <path d="M978,458.17v2.32c2.41-.11,5,2.54,5,5.17s-2.55,5.54-5,5.65v2.32c3.57-.16,7.07-4.19,7.07-8.09S981.58,458,978,458.17Z"/>
    <path d="M935.12,506q25.5,10.24,51,18.67,25.5-11.32,51-24.78c-17-4.14-34-9.06-51-14.64Q960.62,496.54,935.12,506Z" style="fill: #fff"/>
    <path d="M934.77,504.86v2.19c17.11,6.88,34.23,13.19,51.35,18.81q25.67-11.42,51.35-25v-2.18q-25.68-6.25-51.35-14.73Q960.44,495.4,934.77,504.86Zm51.35,18.54q-23.91-7.85-47.82-17.4,23.91-9,47.82-19.56,23.91,7.85,47.82,13.86Q1010,512.81,986.12,523.4Z"/>
    <path d="M952.57,499.46c-245.64,2.07-491.29-123-736.93-84.74a8,8,0,0,0-6.52,7.63,5.43,5.43,0,0,0,6.52,5.51c245.64-38.24,491.29,86.82,736.93,84.75a6.64,6.64,0,0,0,6.52-6.66A6.46,6.46,0,0,0,952.57,499.46Z" style="fill: #ffd900"/>
    <path d="M952.57,498.3c-245.64,2.07-491.29-123-736.93-84.74a9.35,9.35,0,0,0-7.58,9,6.36,6.36,0,0,0,7.58,6.49c245.64-38.24,491.29,86.81,736.93,84.74a7.77,7.77,0,0,0,7.58-7.83A7.56,7.56,0,0,0,952.57,498.3Zm0,13.15c-245.64,2.07-491.29-123-736.93-84.75a4.52,4.52,0,0,1-5.46-4.53,6.64,6.64,0,0,1,5.46-6.29c245.64-38.24,491.29,86.81,736.93,84.74A5.37,5.37,0,0,1,958,506,5.52,5.52,0,0,1,952.57,511.45Z"/>
    <path d="M941.16,499.46V512.6c3,0,6-3.26,6-6.55S944.16,499.48,941.16,499.46Z" style="fill: #ffd900"/>
    <path d="M941.16,498.3v2.32c2.4,0,4.94,2.8,4.94,5.43s-2.54,5.41-4.94,5.39v2.32c3.56,0,7.06-3.81,7.06-7.71S944.72,498.33,941.16,498.3Z"/>
    <path d="M935.15,499.39v13.14c3,.05,6-3.21,6-6.5S938.15,499.44,935.15,499.39Z" style="fill: #ffd900"/>
    <path d="M935.15,498.23v2.32c2.41,0,5,2.84,5,5.47s-2.55,5.39-5,5.35v2.32c3.57.06,7.06-3.75,7.06-7.65S938.72,498.29,935.15,498.23Z"/>
    <path d="M929.15,499.28v13.14c3,.07,6-3.17,6-6.46S932.14,499.35,929.15,499.28Z" style="fill: #ffd900"/>
    <path d="M929.15,498.12v2.32c2.4.05,4.94,2.88,4.94,5.51s-2.54,5.37-4.94,5.31v2.32c3.56.08,7.06-3.7,7.06-7.6S932.71,498.2,929.15,498.12Z"/>
    <path d="M1136.7,512.28C802.63,626.16,468.55,370.67,134.48,476.4c-4.9,1.55-8.87,7.31-8.87,12.75s4,8.51,8.87,7C468.55,390.39,802.63,645.87,1136.7,532c4.9-1.66,8.88-7.52,8.88-13S1141.6,510.61,1136.7,512.28Z" style="fill: #ffd900"/>
    <path d="M1136.7,511C802.63,624.91,468.55,369.43,134.48,475.16c-5.52,1.74-10,8.25-10,14.37s4.49,9.57,10,7.83C468.55,391.63,802.63,647.11,1136.7,533.24c5.52-1.88,10-8.51,10-14.62S1142.22,509.16,1136.7,511Zm0,19.71C802.63,644.63,468.55,389.14,134.48,494.87c-4.27,1.35-7.74-1.35-7.74-6.1s3.47-9.78,7.74-11.13C468.55,371.92,802.63,627.4,1136.7,513.52c4.27-1.45,7.74,1.16,7.74,5.92S1141,529.3,1136.7,530.75Z"/>
    <path d="M630,308.87c-140-32.22-240,85.8-300,151.31,60,65.92,160,210.76,300,243,160,36.26,240-86.77,300-151.29C870,485,790,345.12,630,308.87Z" style="fill: #fff"/>
    <path d="M901.24,515.4C844,443.62,765.67,338.31,630,307.71,504.06,279.07,410.87,370,349.21,437.65c-7.08,7.67-13.76,15-20,21.7l-.75.8.75.84c6.24,7,12.94,14.76,20,23.11C410.92,555.84,504.11,675.68,630,704.31,765.7,734.92,844.05,651.78,901.26,586c10.39-11.9,20.21-23.33,29.47-33.28l.75-.8-.75-.83C921.46,540.7,911.64,528.51,901.24,515.4Zm-1.54,68.91C842.75,649.71,764.76,732.38,630,702,505,673.58,412.2,554.13,350.78,482.56c-6.81-8-13.27-15.56-19.31-22.34,6-6.47,12.46-13.52,19.26-20.88C412.14,372,505,281.6,630,310c134.76,30.38,212.75,135.29,269.69,206.84,10.14,12.8,19.73,24.73,28.82,35C919.41,561.6,909.83,572.73,899.7,584.31Z"/>
    <path d="M618.22,638.85c2.16-12.41,51.76.16,52.4-11S624.71,599.42,626.08,587c1.09-13.23,24-9.57,24.84-30.31.49-36.18,28.64-28.93,28.46-40.77-.18-11.44-8.79-2.12-19.06-20.11-10.09-17.31,1.44-60.66-9-63.43-15-3.93-4.89-21.08-22.71-26.4-16.89-5-3.57-10-19.53-33.13h0c-20.61-31.47,20.94-64,20.94-64-140-32.21-240,85.81-300,151.31,60,65.92,160,210.88,300,243,22.22,4.85,51.62,7.7,61.95,6.14C686.36,674.76,617.12,650.21,618.22,638.85Z"/>
    <path d="M449.26,453.35V400.78m29.08,4.59v52.57m29.11-47.42V463.1"/>
    <path d="M442,452.3q7.26,1,14.54,2.14V401.87q-7.27-1.11-14.54-2.14Z" style="fill: #fff"/>
    <path d="M471.07,456.74q7.28,1.18,14.55,2.44V406.61q-7.28-1.26-14.55-2.44Z" style="fill: #fff"/>
    <path d="M500.18,461.76q7.27,1.32,14.54,2.7V411.89q-7.26-1.38-14.54-2.7Z" style="fill: #fff"/>
    <path d="M449.26,541V488.41M478.34,493v52.57m29.11-47.42v52.58"/>
    <path d="M442,539.94q7.26,1,14.54,2.13V489.5q-7.27-1.11-14.54-2.14Z" style="fill: #fff"/>
    <path d="M471.07,544.37q7.28,1.18,14.55,2.44V494.24q-7.28-1.26-14.55-2.44Z" style="fill: #fff"/>
    <path d="M500.18,549.39q7.27,1.32,14.54,2.7V499.52q-7.26-1.38-14.54-2.7Z" style="fill: #fff"/>
    <path d="M536.54,468.7V416.13m29.08,5.94v52.57m29.11-46.38v52.57"/>
    <path d="M529.26,467.26q7.28,1.42,14.55,2.89V417.58q-7.27-1.47-14.55-2.89Z" style="fill: #fff"/>
    <path d="M587.45,479.26,602,482.4V429.83l-14.55-3.14Z" style="fill: #fff"/>
    <path d="M558.35,473.13q7.27,1.5,14.54,3V423.6q-7.27-1.55-14.54-3Z" style="fill: #fff"/>
    <path d="M536.54,556.33V503.76m29.08,5.94v52.57m29.11-46.38v52.57"/>
    <path d="M587.45,566.9q7.27,1.54,14.55,3.13V517.46l-14.55-3.14Z" style="fill: #fff"/>
    <path d="M529.26,554.89q7.28,1.43,14.55,2.89V505.21q-7.27-1.45-14.55-2.89Z" style="fill: #fff"/>
    <path d="M558.35,560.76q7.27,1.5,14.54,3V511.23q-7.27-1.53-14.54-3Z" style="fill: #fff"/>
    <path d="M669.26,497V444.44m29.08,6.15v52.57m29.11-46.66v52.57"/>
    <path d="M662,495.44l14.55,3.12V446L662,442.87Z"/>
    <path d="M720.17,507.62q7.27,1.47,14.55,2.87V457.92q-7.28-1.41-14.55-2.87Z"/>
    <path d="M691.07,501.64q7.27,1.53,14.54,3V452.1q-7.27-1.5-14.54-3Z"/>
    <path d="M669.26,584.64V532.07m29.08,6.15v52.57m29.11-46.66V596.7"/>
    <path d="M662,583.07l14.55,3.12V533.62L662,530.5Z"/>
    <path d="M720.17,595.25c4.85,1,9.7,1.93,14.55,2.88V545.56c-4.85-.95-9.7-1.9-14.55-2.88Z"/>
    <path d="M691.07,589.27q7.27,1.53,14.54,3V539.73q-7.27-1.5-14.54-3Z"/>
    <path d="M756.53,514.62V462m29.09,5.08v52.57m29.1-48.06V524.2"/>
    <path d="M778.34,518.47q7.27,1.24,14.55,2.41V468.31q-7.27-1.17-14.55-2.41Z"/>
    <path d="M749.26,513.27q7.28,1.37,14.54,2.66V463.36q-7.27-1.31-14.54-2.66Z"/>
    <path d="M807.45,523.14q7.27,1.08,14.55,2.09V472.66q-7.28-1-14.55-2.09Z"/>
    <path d="M756.53,602.25V549.67m29.09,5.08v52.57m29.1-48.06v52.57"/>
    <path d="M807.45,610.77q7.27,1.08,14.55,2.09V560.29q-7.28-1-14.55-2.09Z"/>
    <path d="M749.26,600.9q7.28,1.36,14.54,2.66V551q-7.27-1.31-14.54-2.66Z"/>
    <path d="M778.34,606.1q7.27,1.24,14.55,2.41V555.94q-7.27-1.17-14.55-2.41Z"/>
    <polygon points="1073.84 531.55 1073.83 531.56 1073.84 531.55 1073.84 531.55" style="fill: #3d5da7"/>
    <path d="M1120,542.82c-39.19-17.33-55.25,7.48-46.17-11.26-26.73,19.18-45.31,48.6-49,72.49,3.85-3.55,7-6.46,10.87-9.5-5.44,14.6,4.72,31.35,7.44,47.05,6.87-5.28,10.35-7.86,12.75-14.06,2.72,9.83,23.6,24.91,31.75,30.7.67-4.74,11.25-22.5,14.23-27.43.4,1.56,1,3.86,3.44,4.79.12-3.41,5.33-14.29,5.55-18a73.54,73.54,0,0,1,7.14,4.6c-.85-7.27,2.36-15.53.64-21.71,2.52.09,2.2,4.46,7,4.45-2.44-5.15-1-21-1.38-26.43,2,4,1.44,6,7.57,7.71-.82-6.48-6.37-19-3.53-23,2,1.29,3.4,3.85,5.24,4.58C1133.61,558,1127.27,546,1120,542.82Z" style="fill: #3d5da7"/>
    <path d="M1120.5,541.85c-22.58-9.77-37.48-6.23-44.62-4.46-1.57.38-3.33.8-3.61.57-.24-.64,1.64-4.59,2.34-6.08l-.54-.23-.23-1.08-.52.11-.12.25C1048.17,549,1028,578,1024,604l-.38,2.43,1.79-1.65c3.18-2.92,5.8-5.33,8.66-7.71-2.31,9.46.93,19.66,4.07,29.51a117.14,117.14,0,0,1,4.16,15.35c.08.44.16.88.23,1.32l1.91-1.47c5.61-4.32,9-7,11.39-11.83,4.2,9,19.92,21,28.65,27.28l3.83,2.79c.09-.61.18-1.22.26-1.83.56-3.92,8.77-18.11,13-25.19a5.9,5.9,0,0,0,3.34,3.58l1.3.5.06-1.68c0-1.52,1.44-5.25,2.67-8.54a78.9,78.9,0,0,0,2.56-7.57l.31.18a48,48,0,0,1,5.62,3.68l1.52-1.28a41.81,41.81,0,0,1,.52-10.05,44.87,44.87,0,0,0,.57-9l.16.22a5.85,5.85,0,0,0,5.29,3h1.86l-.8-1.68c-1.6-3.37-1.42-12.16-1.3-18.58,0-.91,0-1.78,0-2.59.91,1.71,2.26,3,6.18,4.13l1.56.44c-.08-.63-.15-1.25-.23-1.87a63.26,63.26,0,0,0-2-8.17c-1.23-4.33-2.85-10.08-2.25-12.9a18.12,18.12,0,0,1,1.58,1.58,8.79,8.79,0,0,0,3,2.44l1.39.56v-1.84C1134.51,557.15,1127.84,545,1120.5,541.85Zm11.07,22.84a13.79,13.79,0,0,0-2.61-2.39l-.63-.4c-.2.28-.4.56-.59.85-2.26,3.2-.5,9.44,1.36,16,.6,2.13,1.18,4.18,1.56,6-3.06-1.16-3.61-2.45-4.49-4.56-.28-.69-.6-1.44-1-2.29l-1.71,1c.12,1.64.07,4.28,0,7.34-.12,6-.26,13.15.8,17.45a5.1,5.1,0,0,1-2.55-2.22c-.68-.94-1.38-1.92-2.75-2l-1.57-.06.45,1.61c.87,3.16.38,7-.15,11a59.23,59.23,0,0,0-.68,8.07c-1.5-1-2.94-1.87-4.08-2.53-.58-.34-1.07-.63-1.43-.86l-1.36-.89-.12,2c-.09,1.63-1.43,5.21-2.71,8.65a75.45,75.45,0,0,0-2.55,7.52,6.47,6.47,0,0,1-2-3.68c-.16-.59-.31-1.18-.46-1.77-.37.61-.74,1.22-1.12,1.83-.5.87-11.55,18.92-14,26.21l-1.57-1.13c-9.25-6.6-26.47-19.76-28.86-28.36-.22-.8-.45-1.61-.68-2.42-.33.86-.66,1.73-1,2.59-2.15,5.55-5.22,8-11.29,12.7a128.81,128.81,0,0,0-4-14.28c-3.34-10.49-6.81-21.37-3.27-30.88l-1.28-1.05c-3.22,2.54-5.94,5-9.1,7.85,4.59-23.93,22.82-50.13,45.49-67.37-1.21,2.78-1.49,4.13-1,5,.7,1.14,2.3.78,5.2.08,7-1.73,21.47-5.18,43.58,4.44,6.25,2.72,12.18,12.85,13.09,22C1132.26,565.43,1131.92,565.07,1131.57,564.69Z"/>
    <path d="M1058.3,588.08c-3.75-.42-4.36,7.13-8.67,17.2-2.44,5.72-5.91,8.89-9.69,17.71h0c10.08-8.15,12.39-10.56,17.25-20.6S1062.06,588.47,1058.3,588.08Z" style="fill: #a70000"/>
    <path d="M1066.62,612.76c-3.46,1-.81,5.39-.29,12.42.31,4-1.36,6.94-.87,13.14h0c5.24-8,6.25-10.15,6.24-17.32S1070.08,611.73,1066.62,612.76Z" style="fill: #a70000"/>
    <path d="M1081.66,611.49c-3.21,1.63.13,7.44,1.81,17,1,5.44-.16,9.59,1.35,18,3.77-11.37,4.41-14.3,3.2-24.11S1084.87,609.85,1081.66,611.49Z" style="fill: #a70000"/>
    <polygon points="1104.96 579.9 1104.96 579.9 1104.96 579.9 1104.96 579.9" style="fill: #a70000"/>
    <path d="M1084.6,571.5c-1.73,2.74-.5,5.07,5.13,7.8s7.53,2.57,15.23.61c-4.73-2.65-7.49-2.21-10.54-4C1089.05,572.86,1086.33,568.74,1084.6,571.5Z" style="fill: #a70000"/>
    <polygon points="1101.62 609.95 1101.62 609.95 1101.62 609.95 1101.62 609.95" style="fill: #a70000"/>
    <path d="M1088.94,591.87c-3.09,2.16-3.33,5.12,0,10.53s5,6.13,12.71,7.55c-2.49-5-5.12-5.77-6.73-9C1092,595.24,1092,589.7,1088.94,591.87Z" style="fill: #a70000"/>
    <polygon points="169.65 485.2 169.64 485.2 169.64 485.2 169.65 485.2" style="fill: #3d5da7"/>
    <path d="M201.94,472.46c-2.73.26-19.78-2.73-25-1.71,2.23,5.08,1.43,5.29-.4,6.75-5,4.7-5.15-.25-9.25-1.13,2.82,3.09,1.84,3.94,2.34,8.83h0c-12.91-4.49-30.91,24.4-35.08,57.62,4.4-5.56,1.52-3.29,5.92-8-1.11,8.55,1.68,10.64,3.4,22.55,4.14-7.5,3.93-5.83,6.22-10.64,2.64,6.75,3.28,13,5.63,22.61,2.17-7.93,1.26-7,3.27-12.07,11.61,7.79,6.31,25.15,21.13,29.18,1.53-3.36,2.84-5.85,4.48-7.36,3.83,4.06,7.52,2.7,15.95,6.55-9.34-7,14.9-18.7,18.51-27.66,1.49,2.54.2,1.62,1.54,6.66,0-13.36,4.45-16.34,8.17-28.14,1.4,2.91,1.19,1.64,2.62,4.44,0-12.39,2.93-33.82.15-45.15,3.71,4.31,2,5.43,5.53,6.84,0-13.35,2.91-23.75-5.81-32.31C222.19,460.81,209.1,471.49,201.94,472.46Z" style="fill: #3d5da7"/>
    <path d="M209.21,468.73a33.61,33.61,0,0,1-7.22,2.49,79.7,79.7,0,0,1-8.78-.85c-6.11-.75-13-1.42-16.2-.85l-1.8.32.72,1.64c1.67,3.81,1.48,4,.42,4.8l-.41.33c-2.49,2.34-3.12,1.81-4.62.53a8,8,0,0,0-3.59-2l-1.3,2.24c1.82,2,1.84,2.74,1.9,4.95,0,.38,0,.8,0,1.25-3.33-.43-7,.93-10.75,4-11.34,9.32-21.28,32.32-24.18,55.41-.14,1.14-.29,2.27-.43,3.4l2.27-2.88a24.85,24.85,0,0,0,3.08-4.48,6,6,0,0,1,.75-1.17,29.61,29.61,0,0,0,1.44,9.55,81.83,81.83,0,0,1,2.21,10.43c.14.94.27,1.89.41,2.84.53-1,1.07-1.94,1.61-2.91,2-3.6,3-5,3.67-6.12.47-.69.86-1.27,1.35-2.15a96,96,0,0,1,2.82,11.32c.57,2.73,1.19,5.69,2,9.07l2.15-.51c.94-3.45,1.31-5.26,1.59-6.59a21.81,21.81,0,0,1,1-3.65c4.15,3.32,5.76,8.21,7.33,12.94,2.14,6.5,4.35,13.15,13,15.54l.94.27.51-1.11a28.54,28.54,0,0,1,3.37-6.06c2.16,2,4.34,2.49,7.24,3.22a45.46,45.46,0,0,1,8.27,2.81l1.29-2.23a3.46,3.46,0,0,1-1.72-3c.19-3.08,5.07-7.39,9.78-11.47,3.61-3.12,7.31-6.28,9.44-9.4a18,18,0,0,0,.75,4.42l2.2-.66c0-8.5,1.84-12.6,4.18-17.78,1-2.13,2-4.48,3.06-7.37l.25.33a11.45,11.45,0,0,1,1.18,2l2.12-.84c0-3.9.29-8.74.61-13.87.52-8.61,1.1-18.1.43-25.63a5.1,5.1,0,0,0,3,2.5l1.61.65v-2c0-2.76.12-5.39.25-7.94.46-9.68.86-18.09-6.36-25.19C225.21,462.17,216.33,465.71,209.21,468.73Zm27,25.93c-.09,1.89-.19,3.82-.23,5.84a4.53,4.53,0,0,1-.77-1.29,16.71,16.71,0,0,0-2.81-4.36l-1.94,1.35c1.86,7.53,1.1,19.9.43,30.8-.21,3.51-.42,6.87-.53,9.92-.15-.28-.34-.64-.58-1.14-.39-.81-.78-1.62-1.16-2.43l-.9,2.83a81,81,0,0,1-3.79,9.61,43.45,43.45,0,0,0-3.86,11.44l0-.06-1.09-1.85c-.3.76-.59,1.51-.89,2.26-1.26,3.19-5.66,6.93-9.91,10.63-5.43,4.7-10.55,9.26-10.82,13.6a5.82,5.82,0,0,0,.05,1.11c-1.85-.65-3.43-1.06-4.8-1.4-3-.78-5-1.27-7.11-3.45l-.64-.68-.82.76c-1.62,1.49-2.9,3.71-4.33,6.76-7-2.36-8.85-8.06-10.85-14.12-1.79-5.43-3.65-11.07-9.1-14.69l-1.1-.73L158,557a27.81,27.81,0,0,0-1.78,5.87c-.1.48-.22,1-.37,1.7-.37-1.69-.7-3.29-1-4.81A82.32,82.32,0,0,0,151.14,546l-.82-2.11c-.4.83-.79,1.66-1.18,2.49a25.12,25.12,0,0,1-2.34,4.16c-.52.79-1.19,1.78-2.25,3.61-.6-3.37-1.27-5.88-1.83-8-1.06-4-1.76-6.61-1.13-11.5.12-1,.25-2,.37-2.94L139.83,534c-2.38,2.57-2.79,3.26-3.31,4.26-.08.16-.18.34-.3.56,3.35-20.95,12.32-41,22.42-49.29,3.8-3.12,7.33-4.15,10.48-3.09l1.87.64c-.08-.75-.15-1.5-.23-2.25-.13-1.28-.16-2.27-.19-3.1s0-1.29-.1-1.85c1.45,1.11,3.26,1.76,6.59-1.38l.3-.23c2.23-1.74,2.62-3.06,1.36-6.41a106.27,106.27,0,0,1,13.87,1c5,.59,8.08,1,9.29.85,2.27-.29,5-1.46,7.83-2.67,6.91-2.9,14.75-6,20.76.21C237,477.65,236.66,485.18,236.21,494.66Z"/>
    <polygon points="151.41 541.93 151.41 541.93 151.41 541.93 151.41 541.93" style="fill: #a70000"/>
    <path d="M169.87,497.59c-3.66-.52-4.37,8.92-8.73,21.65-2.47,7.24-5.91,11.37-9.73,22.69,10-10.88,12.26-13.82,17.16-26.44S173.53,498.12,169.87,497.59Z" style="fill: #a70000"/>
    <polygon points="165.87 563.74 165.87 563.73 165.87 563.74 165.87 563.74" style="fill: #a70000"/>
    <path d="M175,525.34c-3.4.38-2.42,7.9-4.18,18.73-1,6.16-3.41,10.09-4.94,19.66,7.2-10.49,8.76-13.27,11-24.15S178.39,525,175,525.34Z" style="fill: #a70000"/>
    <path d="M187.77,541.06c-3.25.72-1.47,7.58-2,17.78-.28,5.8-2.19,9.68-2.62,18.68,5.82-10.41,7-13.15,8-23.46S191,540.35,187.77,541.06Z" style="fill: #a70000"/>
    <path d="M189.48,489.71c-2.87,3.52-1.15,7.47,7.35,14.15s11.45,7.41,23.46,8.67c-7.1-6.7-11.39-7.41-16-11.59C196.25,493.62,192.35,486.22,189.48,489.71Z" style="fill: #a70000"/>
    <path d="M194.9,517.52c-3,2.46-2.32,6.26,3.39,13.7s8,8.6,17.67,11.91h0c-4.62-7.06-8-8.5-11-13C199.7,522.28,197.89,515.08,194.9,517.52Z" style="fill: #a70000"/>
    <polygon points="532.98 323.37 532.98 323.38 532.98 323.38 532.98 323.37" style="fill: #3d5da7"/>
    <path d="M583.38,357.4c-35.84-37.14-58.7-18-50.41-34-24.44,9-41.44,34.11-44.77,57.41a92,92,0,0,1,9.94-6.49c-5,13.24-5,12.66-2.49,29.6,3.31-4.12,3.52-4.09,6.83-8.2,2.49,10.87,9.32,20.17,16.77,29.65.63-4.59,1-6.82,3.73-10.47-1.87,6.09,18.42,26.95,18,26.52.11-3.44.42-6.63,3.22-8.13,5.28,11.09,18.64,23,31.7,27.8-7.47-8.07,7.45-24.36,2.17-35.51A100.78,100.78,0,0,1,589,435.84c0-10-5-15.23-5-21.72,1.87,5.11,4.67,5.13,10.27,10.17,0-20.06-15.86-40.85-15.86-40.84s13.52,11.12,21.15,14.56C599.54,388,590,364.29,583.38,357.4Z" style="fill: #3d5da7"/>
    <path d="M583.9,356.75c-20.62-21.37-37-24.34-45.75-25.89-2.92-.53-5.44-1-5.9-1.86-.36-.7.1-2.31,1.37-4.78l.34-.13c0-.24-.09-.48-.13-.73l-1-.36-.24-.54c-23,8.49-41.6,32.57-45.24,58-.11.8-.22,1.59-.34,2.38l1.75-1.25c2.78-2,5.09-3.63,7.57-5.12-3.94,10.56-3.85,11.56-1.61,26.78.13.94.27,1.89.41,2.83l1.22-1.51c1.64-2,2.52-3.06,3.39-4.07.68-.79,1.36-1.58,2.4-2.84,2.87,10.33,9.44,19.23,16.52,28.22.4.52.81,1,1.22,1.55l.24-1.81c.5-3.64.82-5.66,2.23-8.08,2.3,7.83,15.63,21.9,17.95,24.28l.15.17h0l.19.18.69.49.81-1.25-.25-.29c.1-2.75.4-5.13,2.09-6.51,5.82,11.26,19,22.61,31.82,27.36l.66-1.55c-3.37-3.64-1.37-9.69.74-16.08,1.82-5.5,3.69-11.16,2.59-16.28a98.76,98.76,0,0,1,8.65,8.39l1.4,1.53v-2c0-5.76-1.57-10-3-13.67-.54-1.44-1-2.77-1.41-4.08a20.63,20.63,0,0,0,3.58,3,49.74,49.74,0,0,1,4.75,3.75l1.33,1.19v-1.71c0-14.72-8.19-29.6-12.9-36.92,4.64,3.59,12.08,9.06,17.14,11.34l1,.46v-1.17C600.41,388,590.84,364,583.9,356.75Zm-5.08,25.95-1,1.28c.15.2,14.72,19.52,15.57,38.42-1.39-1.15-2.58-2-3.59-2.72-2.51-1.79-3.89-2.78-5-5.77l-1.66,0c0,3.1,1,5.9,2.16,8.86A37.11,37.11,0,0,1,588,433.63a102.39,102.39,0,0,0-9.53-8.81l-1.17,1.06c2.36,5,.26,11.36-1.78,17.52-1.93,5.85-3.78,11.43-1.82,15.83-11.82-5.14-23.9-16.05-28.77-26.28l-.47-1-.77.41c-2.61,1.4-3.29,4.05-3.51,7-5.21-5.5-17.68-19.92-16.4-24.1l-1.54-1.13a17.37,17.37,0,0,0-3.62,9.05c-6.85-8.79-13-17.55-15.33-27.62l-.45-2c-.35.45-.71.89-1.07,1.34-1.66,2.05-2.53,3.07-3.41,4.08-.64.74-1.27,1.48-2.2,2.61-2.06-14.07-1.91-14.47,2.4-26l.36-.94-1.29-1.37a78.61,78.61,0,0,0-8.21,5.25c4.2-23.15,20.88-44.74,41.63-53.46-.81,2-.87,3.38-.3,4.5,1,1.92,3.4,2.34,7.41,3.05,8.57,1.53,24.53,4.42,44.66,25.28,6.25,6.48,15.08,28.32,15.78,38.55C591.07,392.76,578.94,382.81,578.82,382.7Z"/>
    <path d="M521.73,359.15c-4.44-1.1-2.61,9.29-4.16,22.74-.86,7.64-3.76,11.67-5.09,23.55h0c8.73-10.32,10.58-13.28,12.78-26.57S526.18,360.27,521.73,359.15Z" style="fill: #a70000"/>
    <polygon points="535.69 432.15 535.69 432.14 535.69 432.15 535.69 432.15" style="fill: #a70000"/>
    <path d="M541.81,406.89c-.42-11.8-2.38-16.09-6.25-16.14s-.61,8.46.38,20.26c.57,6.71-1.15,10.72-.25,21.14C541.19,421.59,542.23,418.68,541.81,406.89Z" style="fill: #a70000"/>
    <path d="M553.15,419.88c-3.47.78-3.27,5.05,1.73,15.88s7.27,13.31,17,21.95c-3.94-9.69-7.32-13-9.86-19.27C557.55,427.49,556.62,419.12,553.15,419.88Z" style="fill: #a70000"/>
    <path d="M562.8,366.9c-11.39-8.89-18-17.58-20.37-14s.79,8.23,12.53,16.56,15.34,9.39,29.49,11.59h0C574.42,373.12,569.26,372,562.8,366.9Z" style="fill: #a70000"/>
    <path d="M556.58,384.5c-2.77,2.43-.92,6.75,7.8,15.64s11.69,10.41,23.75,14.83c-7.31-8.22-11.63-10.12-16.34-15.39C563.49,390.32,559.36,382.08,556.58,384.5Z" style="fill: #a70000"/>
  </g>
</svg>
