<svg xmlns="http://www.w3.org/2000/svg" xmlns:xlink="http://www.w3.org/1999/xlink" viewBox="0 0 1260 1012.04">
  <defs>
    <clipPath id="a">
      <path d="M0,90.08v230c245-158.27,490-69.55,735-22v230c-35-6.79-70-14.42-105-22.06C420,306.89,210,107.75,0,90.08ZM630,46C525,23.12,420,.22,315,0V536.67c-105-.22-210,22.24-315,90.07V550.08C210,261.09,420,153.55,630,46Z" style="fill: none"/>
    </clipPath>
  </defs>
  <g>
    <path d="M0,90.08v920C420,738.76,840,1193.28,1260,922V2C840,273.28,420-181.24,0,90.08Z" style="fill: #00247d"/>
    <path d="M0,90.08C210,107.75,420,306.89,630,506m0-460C420,153.55,210,261.09,0,550.08"/>
    <path d="M315,281.43C415.3,354.88,515.61,449,615.91,544.09L644.09,468C557.87,386.23,471.65,303.83,385.44,233.3c86.21-55.38,172.43-98.88,258.65-143.06Q637,68.13,630,46c-23.48-5.12-47-10.24-70.44-15.11C478,73.54,396.52,119.22,315,178.57,233.48,118.88,152,72.86,70.44,51.13A575.74,575.74,0,0,0,0,90.08v51.43c81.52,6.86,163,41.06,244.56,92C163,301.62,81.52,386.46,0,498.65v51.43q7.05,16,14.09,32.31C114.39,448.19,214.7,354.46,315,281.43Z" style="fill: #fff"/>
    <g style="clip-path: url(#a)">
      <path d="M0,90.08C210,107.75,420,306.89,630,506m0-460C420,153.55,210,261.09,0,550.08"/>
      <path d="M315,264.29C416.87,338.88,518.74,434.82,620.61,531.4l18.78-50.76C546.91,393,454.44,304.76,362,231.54c92.48-61.82,185-108.67,277.43-156L630,46c-15.65-3.41-31.31-6.83-47-10.16C493.69,82,404.35,130.66,315,195.71c-89.35-65.42-178.69-114.42-268-133Q23.49,74.94,0,90.08v34.28c89.35,7.52,178.7,47.89,268,107.13C178.7,302.73,89.35,392.83,0,515.79v34.29q4.7,10.68,9.39,21.48C111.26,434,213.13,338.46,315,264.29Z" style="fill: #cf142b"/>
    </g>
    <path d="M315,0V536.67M0,320.08c245-158.27,490-69.55,735-22"/>
    <path d="M367.5,1.9a728.67,728.67,0,0,0-105,0h0a728.67,728.67,0,0,1,105,0Z" style="fill: #fff"/>
    <path d="M262.5,538.55a731.56,731.56,0,0,1,105,0v-230C490,316.9,612.5,351,735,374.75V221.42c-122.5-23.78-245-57.85-367.5-66.19V1.9a728.67,728.67,0,0,0-105,0V155.22C175,161.86,87.5,186.88,0,243.41V396.74c87.5-56.52,175-81.54,262.5-88.19Z" style="fill: #fff"/>
    <path d="M315,0V536.67M0,320.08c245-158.27,490-69.55,735-22"/>
    <path d="M346.5.72c-21-.9-42-1-63-.08h0c21-.91,42-.82,63,.09Z" style="fill: #cf142b"/>
    <path d="M283.5,537.31c21-.91,42-.82,63,.08V276.72C476,282.31,605.5,319,735,344.08v-92C605.5,227,476,190.31,346.5,184.72V.73c-21-.91-42-1-63-.09v184C189,188.73,94.5,213,0,274.08v92C94.5,305,189,280.73,283.5,276.64Z" style="fill: #cf142b"/>
    <path d="M630,46V506c-210-45.8-420-91.6-630,44.06v460C420,738.76,840,1193.28,1260,922V2C1050,137.63,840,91.82,630,46Z" style="fill: #00247d"/>
    <path d="M830.58,346.09V476.7C830.58,583,859.42,688.54,945,749.86c85.56-60.66,114.4-168.75,114.4-274.85V344.4h0C983.12,358.38,906.85,356.05,830.58,346.09Z" style="fill: #fff"/>
    <path d="M838.28,482.2c0,99.17,26.9,197.25,106.71,254.35,79.8-56.51,106.7-156.62,106.7-255.67V359.07h0c-71.14,12-142.27,10.11-213.41,1.31Z" style="fill: #fdc300"/>
    <path d="M895.3,419.21h0a8.26,8.26,0,0,0-5.53-3.19c.51-8.24-3.61-12.1-6.57-13.84s-4-3.52-4.5-6.95-2.06-5.62-4.77-7-5-5.54-6-7.51-1.41-1.64-2.18,1.48-3.87,8.83-1,9.3a8.19,8.19,0,0,0-1.93,8.83c-1.41,1.55-2.44,3.89-.51,5s2.44,1.94,2.58,2.7c-1.74-.17-2.19,4.86,1.92,6.39-.9.1-1.28,4.2.39,4.36-2.31-.22-4.25,4.67-7.21,4.36s-4.5.47-4.63,2.33-1.67,4-2.44,4.81c2.18.62,3.6.39,4.76-.8a2.8,2.8,0,0,1,4.37.26c1.29,1.64,4,2.66,5.28,2.4a15.07,15.07,0,0,0-5.15,9.65c-.26,3.54-1.93,7.51-3.86,8.44a11.57,11.57,0,0,0-5.4,7.12c2.44,9.11,5.91,11.66,9.39,14.34,6.18,4.76,10,8.1,12.62,12.47s3.6,1.44,7.46,8.89,7.47,21.25,11.32,23.77,8.76,1.3,11.59-5.7S909.85,432.13,895.3,419.21Z" style="fill: #ff9e3d"/>
    <path d="M895.38,419.05a8.36,8.36,0,0,0-5.47-3.21c.24-4.47-.75-10.38-6.67-13.85-2.82-1.65-3.89-3.31-4.41-6.79s-2.06-5.73-4.86-7.14c-1.9-1-3.91-3.47-6-7.44-.51-1-.85-1.37-1.18-1.31s-.8,1.05-1.24,2.83c-.2.78-.54,1.73-.9,2.74-.82,2.26-1.67,4.61-1.16,5.92a1.33,1.33,0,0,0,.82.83,8.35,8.35,0,0,0-1.77,8.65A5,5,0,0,0,861,403.9a2.17,2.17,0,0,0,1.14,1.66c1.75,1,2.26,1.74,2.43,2.31-.65.07-1.14.82-1.21,1.93a4.86,4.86,0,0,0,2.93,4.7,4.06,4.06,0,0,0-.51,2.36,2.76,2.76,0,0,0,.62,1.83,7,7,0,0,0-2.57,2c-1.2,1.22-2.44,2.48-4,2.32-3-.31-4.63.52-4.77,2.5-.12,1.72-1.56,3.75-2.39,4.68l-.25.27.32.09c2.23.63,3.69.38,4.86-.83a2.71,2.71,0,0,1,4.21.24,7.36,7.36,0,0,0,4.84,2.49,15,15,0,0,0-4.76,9.37c-.27,3.64-2,7.43-3.78,8.28a11.75,11.75,0,0,0-5.48,7.24l0,.07,0,.07c2.42,9,5.9,11.71,9.26,14.3l.2.16c6.2,4.77,10,8.12,12.57,12.41a7.74,7.74,0,0,0,2.82,3c1.2.79,2.44,1.61,4.64,5.87a106,106,0,0,1,4.21,10c2.42,6.29,4.7,12.22,7.17,13.83a7.37,7.37,0,0,0,3.47,1.2c3,.19,6.18-1.76,8.29-7,1.1-2.73,1.93-14.22,2-27.3,0-9.47-.36-27.63-3.2-43C902,429.73,899.1,422.38,895.38,419.05Zm9.71,92c-2.08,5.14-6.42,8.88-11.41,5.62-2.39-1.55-4.75-7.69-7-13.64a105.54,105.54,0,0,0-4.23-10c-2.25-4.34-3.58-5.22-4.75-6a7.4,7.4,0,0,1-2.72-2.91c-2.57-4.34-6.43-7.72-12.66-12.52l-.2-.15c-3.46-2.66-6.73-5.2-9.11-14a11.39,11.39,0,0,1,5.31-7c1.9-.91,3.67-4.77,4-8.6a14.88,14.88,0,0,1,5.09-9.51c0-.12-.07-.24-.11-.37-1.29.26-3.93-.78-5.16-2.34a2.93,2.93,0,0,0-4.55-.29c-1.07,1.11-2.35,1.37-4.35.86a9.48,9.48,0,0,0,2.26-4.66c.12-1.74,1.63-2.46,4.49-2.17,1.62.17,2.9-1.13,4.14-2.39,1-1.06,2-2.07,3.07-2v-.4c-.84-.08-1-1.26-1-1.76-.06-1.07.27-2.16.64-2.2,0-.13,0-.26,0-.39a4.48,4.48,0,0,1-3.08-4.41c.07-1,.53-1.65,1.13-1.59l.17,0,0-.26c-.18-1-.95-1.84-2.67-2.84a1.79,1.79,0,0,1-1-1.34,4.79,4.79,0,0,1,1.51-3.34l.09-.09,0-.15a7.88,7.88,0,0,1,1.89-8.59l.28-.3-.36-.06a1.11,1.11,0,0,1-.93-.7c-.42-1.12.42-3.46,1.17-5.54.37-1,.71-2,.92-2.78.32-1.32.67-2.54,1-2.59s.5.32.93,1.14c2.1,4,4.16,6.59,6.12,7.58a8.39,8.39,0,0,1,4.66,6.84c.54,3.6,1.7,5.39,4.59,7.09,3.23,1.9,7,5.77,6.48,13.63,0,.07,0,.14,0,.21l.14,0a8.09,8.09,0,0,1,5.46,3.15h0c3.66,3.27,6.56,10.54,8.6,21.64C908.48,466.31,907.21,505.83,905.09,511.05Z"/>
    <path d="M926.71,458.82c.77-4.49-1-7-2.06-9.83a17.16,17.16,0,0,1-.9-9.05,9.33,9.33,0,0,0-2.58-8.17,7.59,7.59,0,0,1-2.18-6.84c.38-3-1.3-4.93-3.22-7.27a14.77,14.77,0,0,1-3.35-9.91c0-4.51-5.92-15.31-10.55-18.21h0c-3.61,5.43-8.25,10.77-7.47,21s1.54,26.81-4.89,32-9.53,19.2-1.8,28.06,8,19,9.26,28.46,4.64,17.21,9.79,11.08c5.14,1.39,8-1.51,8-7.52s.26-9.38,4.11-11.12,4.9-3.6,6.7-8.62,2.83-7.26,1.8-10.29S925.93,463.31,926.71,458.82Z" style="fill: #ff927f"/>
    <path d="M926.84,458.87c.62-3.62-.38-5.95-1.35-8.2-.26-.61-.51-1.18-.72-1.77a16.9,16.9,0,0,1-.89-8.92,9.57,9.57,0,0,0-2.63-8.37,7.31,7.31,0,0,1-2.13-6.64c.39-3.05-1.25-5-3.14-7.31l-.13-.15a14.67,14.67,0,0,1-3.29-9.76c0-2.19-1.37-6-3.58-9.84s-4.92-7.22-7.06-8.56l-.09-.05-.06.1-1.22,1.79c-3.27,4.77-7,10.16-6.29,19.33.86,11.28,1.29,26.88-4.82,31.81-3.71,3-6.23,8.75-6.42,14.73a19.66,19.66,0,0,0,4.61,13.67c6.69,7.66,7.74,16.3,8.75,24.68.14,1.2.29,2.44.46,3.65.95,7,2.81,11.78,5.09,13.07a2.84,2.84,0,0,0,1.2.37c1.16.06,2.39-.67,3.67-2.17,2.77.73,5,.22,6.35-1.46,1.14-1.39,1.72-3.5,1.72-6.28,0-5.83.19-9.2,4-10.93s5-3.82,6.77-8.71l.48-1.34c1.52-4.19,2.29-6.29,1.32-9.14S926,463.52,926.84,458.87Zm-.93,22.55c-.15.42-.32.87-.48,1.34-1.76,4.89-2.72,6.76-6.62,8.52s-4.21,5.46-4.21,11.3c0,2.65-.55,4.66-1.63,6-1.33,1.62-3.48,2.09-6.19,1.36l-.06,0-.05.06c-1.67,2-3.24,2.6-4.65,1.8-2.19-1.23-4-5.89-4.91-12.76-.17-1.21-.32-2.44-.46-3.64-1-8.46-2.08-17.18-8.86-24.94a19.2,19.2,0,0,1-4.5-13.32c.19-5.85,2.66-11.49,6.29-14.42,2.85-2.29,4.61-7.1,5.21-14.26a116.12,116.12,0,0,0-.25-17.93c-.69-9,2.82-14.07,6.21-19,.39-.57.78-1.13,1.15-1.7,4.61,3,10.38,13.61,10.38,18a15.12,15.12,0,0,0,3.4,10.07l.13.16c1.82,2.21,3.4,4.11,3,6.92a7.88,7.88,0,0,0,2.24,7,9.1,9.1,0,0,1,2.52,8,17.36,17.36,0,0,0,.92,9.19c.22.61.48,1.21.73,1.8.94,2.18,1.91,4.43,1.31,7.89-.74,4.29-.44,10.65.66,13.88C928.13,475.3,927.39,477.35,925.91,481.42Z"/>
    <polygon points="903.28 512.37 903.28 512.37 903.28 512.37 903.28 512.37" style="fill: #ff9ee1"/>
    <path d="M907.79,449.26c3.6-13.73-4.38-27.29-2.32-32.45s1.8-8,1.54-9.7-2.18-3.12-2.31.44a10.5,10.5,0,0,1-2.32,7c-1.54,2.17-1.16,7.07,0,12.59s3.6,13.93-.26,24.61-2.27,15.63-.77,20.83c2.32,8,7.85,35.76,1.93,39.77,8.62-2.74,7.85-23.48,6.57-32.18S905.25,458.93,907.79,449.26Z" style="fill: #ff9ee1"/>
    <path d="M909,474.51c-1.4-7.79-3.13-17.5-1.12-25.18,2.15-8.18.25-16.17-1.28-22.6-1-4.35-1.86-7.79-1-9.82,1.94-4.87,1.88-7.71,1.56-9.84-.16-1.05-.88-2-1.53-1.93-.3,0-1,.29-1.06,2.4a10.2,10.2,0,0,1-2.28,6.88c-1.39,2-1.4,6.26,0,12.79.1.49.21,1,.33,1.51,1.23,5.6,2.92,13.27-.58,23-3.8,10.52-2.31,15.67-.87,20.65l.09.34c2.1,7.25,7.9,35.53,2,39.52l.09.38c3.78-1.19,6.23-6.05,7.1-14a77.93,77.93,0,0,0-.43-18.4C909.72,478.41,909.38,476.52,909,474.51Zm1.11,24c-.55,5.07-2,11.34-6,13.34,4.84-6-.56-32-2.65-39.29,0-.12-.07-.23-.1-.34-1.48-5.12-2.88-9.95.86-20.32,3.56-9.83,1.78-17.91.6-23.26q-.18-.78-.33-1.5c-1.34-6.37-1.35-10.55,0-12.39a10.74,10.74,0,0,0,2.35-7.15c0-1.28.34-2,.81-2h.06c.49,0,1.06.78,1.18,1.61.31,2.05.37,4.79-1.53,9.55-.87,2.18,0,5.7,1,10.15,1.52,6.36,3.4,14.28,1.29,22.33-2,7.79-.3,17.57,1.1,25.42.36,2,.7,3.89,1,5.62A78,78,0,0,1,910.14,498.48Z"/>
    <path d="M864.66,391.52l2.84,1.59C867.5,391.23,865.63,391.61,864.66,391.52Z" style="fill: #ff9e3d"/>
    <path d="M865.23,391.34l-.57,0v.4l.59,0c.69,0,1.54,0,1.91.56a1.34,1.34,0,0,1,.2.79l.28,0a2,2,0,0,0-.29-1.09C866.89,391.35,866,391.34,865.23,391.34Z"/>
    <path d="M864.64,400a2.29,2.29,0,0,0-1.91.39Z" style="fill: #ff9e3d"/>
    <path d="M864.64,400a4.33,4.33,0,0,0,3.37-.7Z" style="fill: #ff9e3d"/>
    <path d="M864.78,399.77a2.52,2.52,0,0,0-2.13.41,3.54,3.54,0,0,1,.16.34,2.39,2.39,0,0,1,2-.35,4.26,4.26,0,0,0,3.3-.73l-.14-.36A4.14,4.14,0,0,1,864.78,399.77Z"/>
    <path d="M870.33,406.25l-5.53,1.82A5.94,5.94,0,0,0,870.33,406.25Z" style="fill: #ff9e3d"/>
    <path d="M864.8,407.87v.4a6.06,6.06,0,0,0,5.62-1.86l-.18-.33A5.85,5.85,0,0,1,864.8,407.87Z"/>
    <path d="M871.42,410.86c-1.56,1.2-3.13,2.41-4.7,3.6A4.76,4.76,0,0,0,871.42,410.86Z" style="fill: #ff9e3d"/>
    <path d="M866.72,414.26v.4a4.87,4.87,0,0,0,4.83-3.72l-.26-.16A4.63,4.63,0,0,1,866.72,414.26Z"/>
    <path d="M874.06,419.37l-6.2-.49C870.5,419.2,873.59,420.62,874.06,419.37Z" style="fill: #ff9e3d"/>
    <path d="M867.11,418.82l.75.06Z" style="fill: #ff9e3d"/>
    <path d="M870.53,419.22a17.92,17.92,0,0,0-3.42-.6c0,.14,0,.27,0,.4a16.91,16.91,0,0,1,3.38.6,17.61,17.61,0,0,0,2.19.44c.76.06,1.3-.06,1.49-.59l-.24-.21C873.67,420,872.15,419.62,870.53,419.22Z"/>
    <path d="M869.65,430.12a10.49,10.49,0,0,0-2.41,2.06Z" style="fill: #ff9e3d"/>
    <path d="M874.77,425.73l-5.12,4.39C871.69,428.75,874.06,427.54,874.77,425.73Z" style="fill: #ff9e3d"/>
    <path d="M870.74,429.19a14.44,14.44,0,0,0-3.59,2.84l.18.31a14.63,14.63,0,0,1,3.53-2.78c1.77-1.13,3.43-2.2,4-3.72l-.24-.22C874.1,427,872.39,428.14,870.74,429.19Z"/>
    <path d="M879.85,410.56c.61-3.71.65-4.27-1.67-5.4s.26-4.49-2.57-7.93c-1.59-1.94-.26-4.72-3.48-6.51q4.44,13.74,8.88,27.45C882,415.34,879.14,414.92,879.85,410.56Z" style="fill: #ff9e3d"/>
    <path d="M880,410.61c.6-3.73.64-4.46-1.77-5.64-1-.49-1-1.37-1-2.69a7.29,7.29,0,0,0-1.53-5.2,5.28,5.28,0,0,1-.93-2.47,5.08,5.08,0,0,0-2.59-4.08l-.08.37a4.61,4.61,0,0,1,2.41,3.8,5.71,5.71,0,0,0,1,2.68,6.79,6.79,0,0,1,1.43,4.88c0,1.28,0,2.5,1.2,3.09,2.23,1.09,2.16,1.55,1.57,5.15a6.77,6.77,0,0,0,.79,4.68,3.12,3.12,0,0,1,.38,2.89l.24.2a3.65,3.65,0,0,0-.4-3.32A6.09,6.09,0,0,1,880,410.61Z"/>
    <path d="M883.07,420.69l6.7-4.67C888.48,415.93,884.68,415.83,883.07,420.69Z" style="fill: #ff9e3d"/>
    <path d="M883,420.59l.25.19c1.07-3.22,3.34-4.79,6.57-4.56v-.4C886.42,415.58,884.07,417.22,883,420.59Z"/>
    <path d="M876.17,452.79l3.88-4.24A7.39,7.39,0,0,0,876.17,452.79Z" style="fill: #ff9e3d"/>
    <path d="M864.92,466.08c.45-1.27.65-2.2,2-2.16s3.41-.34,3.86-1.8,2.06.1,3.41-3.73c.65-1.83,1.19-3.84,2-5.6q-6.95,7.6-13.89,15.09C863.77,468.41,864.51,467.25,864.92,466.08Z" style="fill: #ff9e3d"/>
    <path d="M874.69,456.43c-.2.62-.41,1.25-.62,1.86-.81,2.28-1.68,2.57-2.38,2.81a1.29,1.29,0,0,0-1,.93c-.38,1.22-2.16,1.73-3.75,1.69-1.32,0-1.62.84-2,1.95,0,.1-.07.2-.11.31-.55,1.55-1.37,2.11-2.49,1.71,0,.13,0,.26,0,.39a2.3,2.3,0,0,0,.54.12c1,.1,1.73-.58,2.24-2l.11-.32c.38-1.1.62-1.77,1.77-1.74.57,0,3.4,0,4-1.91.14-.48.44-.58.86-.72.71-.24,1.69-.57,2.54-3,.22-.61.43-1.25.63-1.87,1.07-3.31,2.18-6.73,5.15-7.88l-.09-.39C876.92,449.55,875.78,453,874.69,456.43Z"/>
    <path d="M987.32,648c-3.17-4.44,1.95-9-1.22-12s.73-8.59-2.44-12,1.71-8.64-1.71-11,.49-8.93-2.44-11.28,1.71-9-2.2-11.66-.49-7.82-3.41-9.84c-3.28-2.26-.27-7.69-3.3-9.32-3.41-1.85-.89-7.49-3.78-9-2.47-1.27-1-4.65-2.42-7.7h0c-9.25,7.37-31.75,4.26-39-.23-1.59,3.09,0,6.56-2.5,7.84-2.9,1.48-.37,7.12-3.78,9-3,1.63,0,7.06-3.3,9.32-2.92,2,.49,7.16-3.41,9.84s.73,9.3-2.2,11.66,1,9-2.44,11.29,1.46,7.56-1.71,11,.73,9-2.44,12,1.95,7.61-1.22,12.06c-2.44,3.42.88,7.1-1,12.41-1.22,3.49,1.22,17.91,8.05,16.82,2.44,6.2,12,11.92,15.37,10.22,3.42,3.69,14.4,8.88,20,1,5.62,7.88,16.6,2.73,20-.95,3.41,1.72,12.93-4,15.37-10.2,6.83,1.08,9.27-13.36,8-16.84C986.44,655.13,989.76,651.43,987.32,648Z" style="fill: #00a728"/>
    <path d="M988.14,653.72c.3-2.07.58-4-.73-5.85-1.55-2.18-1-4.36-.54-6.48s.94-4-.69-5.59-1.35-3.49-1.17-5.65.38-4.56-1.27-6.32-1.11-3.67-.72-5.66.8-4.09-1-5.32-1.5-3.35-1.31-5.68c.18-2.16.37-4.4-1.12-5.6-1.28-1-1-2.89-.73-5,.33-2.41.7-5.13-1.48-6.62-2-1.39-2-3.43-2-5.4,0-1.7,0-3.45-1.42-4.44-1.6-1.1-1.63-3-1.67-4.83s-.07-3.65-1.64-4.5-1.86-2.84-2-4.69-.3-3.53-1.76-4.28-1.44-2-1.55-3.69a10.64,10.64,0,0,0-.81-3.94l-.07-.14-.1.08c-9.11,7.26-31.38,4.41-38.9-.23l-.1-.06-.06.12a10.08,10.08,0,0,0-.89,4.09c-.11,1.67-.2,3-1.55,3.69s-1.62,2.54-1.76,4.27-.32,3.77-2,4.69-1.61,2.7-1.64,4.49-.07,3.73-1.67,4.83c-1.43,1-1.42,2.75-1.42,4.44,0,2,0,4-2,5.4-2.18,1.49-1.81,4.22-1.48,6.62.3,2.15.55,4-.73,5.05-1.49,1.19-1.3,3.43-1.12,5.6.19,2.33.37,4.53-1.31,5.67s-1.41,3.31-1,5.32.79,4-.72,5.66c-1.65,1.77-1.46,4.09-1.27,6.33s.35,4.21-1.17,5.66-1.18,3.52-.69,5.59,1,4.29-.55,6.48c-1.3,1.83-1,3.78-.72,5.85a12.94,12.94,0,0,1-.28,6.62c-.78,2.24-.11,8.34,1.91,12.53,1.12,2.35,3.12,5,6.2,4.6,2.55,6.26,11.91,11.84,15.42,10.22a18.67,18.67,0,0,0,11.81,5.12,9.6,9.6,0,0,0,8.22-4c5.78,7.88,16.73,2.5,20-1,3.51,1.64,12.87-3.94,15.42-10.21,3.08.43,5.08-2.26,6.2-4.61,2-4.19,2.69-10.29,1.91-12.54A12.9,12.9,0,0,1,988.14,653.72Zm-1.85,18.93c-1.09,2.28-3,4.91-6,4.42h-.09l0,.12c-1.1,2.78-3.81,5.78-7.25,8-3.26,2.08-6.38,2.9-8,2.12l-.06,0-.06.06c-3.21,3.46-14.17,8.92-19.84,1l-.1-.13-.09.13c-5.66,7.93-16.63,2.42-19.84-1l-.06-.06-.06,0c-1.58.78-4.7-.05-8-2.14-3.44-2.2-6.15-5.2-7.25-8l-.05-.12-.09,0c-3,.49-4.94-2.14-6-4.41-1.43-3-2.84-9.37-1.88-12.12a13.54,13.54,0,0,0,.3-6.88c-.3-2-.55-3.8.65-5.49,1.67-2.35,1.11-4.76.61-6.89s-.88-3.73.59-5.14c1.65-1.58,1.46-3.84,1.28-6s-.36-4.32,1.17-6,1.2-4.07.81-6.08-.74-3.77.87-4.86c1.86-1.27,1.65-3.71,1.46-6.08-.18-2.13-.34-4.14,1-5.21s1.15-3.35.86-5.46c-.32-2.38-.66-4.84,1.33-6.2,2.17-1.49,2.16-3.75,2.15-5.75,0-1.72,0-3.2,1.26-4.09,1.74-1.2,1.78-3.31,1.82-5.17s.07-3.38,1.47-4.14c1.85-1,2-3.12,2.19-5s.28-3.29,1.59-4c1.51-.77,1.62-2.34,1.72-4a9.93,9.93,0,0,1,.77-3.77c7.63,4.6,29.73,7.41,38.92.24a10,10,0,0,1,.69,3.6c.11,1.67.22,3.25,1.73,4,1.31.67,1.44,2.19,1.59,4s.34,4,2.19,5c1.4.75,1.43,2.32,1.47,4.14s.08,4,1.82,5.17c1.28.89,1.27,2.37,1.26,4.09,0,2,0,4.26,2.15,5.75,2,1.36,1.65,3.82,1.33,6.19-.29,2.11-.59,4.3.86,5.46s1.17,3.09,1,5.22c-.2,2.36-.4,4.81,1.46,6.07,1.61,1.09,1.27,2.84.87,4.86s-.84,4.31.81,6.08,1.36,3.74,1.17,6-.37,4.46,1.28,6c1.47,1.4,1.06,3.13.59,5.14s-1.07,4.54.61,6.88c1.2,1.69.95,3.45.65,5.49a13.54,13.54,0,0,0,.3,6.88C989.13,663.28,987.72,669.68,986.29,672.65Z"/>
    <path d="M915.93,642.19c-.36,2-.73,3.94-1.09,5.91A10.86,10.86,0,0,0,915.93,642.19Z" style="fill: #00a728"/>
    <path d="M930.85,561.16l-1,5.21A8.88,8.88,0,0,0,930.85,561.16Z" style="fill: #00a728"/>
    <path d="M911.41,666.65c-.16.91-.33,1.82-.5,2.72A5.63,5.63,0,0,0,911.41,666.65Z" style="fill: #00a728"/>
    <path d="M918.18,630c-.28,1.54-.57,3.08-.85,4.62A8.16,8.16,0,0,0,918.18,630Z" style="fill: #00a728"/>
    <path d="M912.64,660.21c1.09-1.54,1-3.14.85-4.83l-.9,4.92Z" style="fill: #00a728"/>
    <path d="M920.36,618.16l-.81,4.37A7.15,7.15,0,0,0,920.36,618.16Z" style="fill: #00a728"/>
    <path d="M925.82,589.05a8,8,0,0,0,.87-5.26c-.34,1.86-.69,3.73-1,5.6A3.54,3.54,0,0,1,925.82,589.05Z" style="fill: #00a728"/>
    <path d="M924.78,594.17l-1.14,6.2C925.16,598.17,924.86,596.26,924.78,594.17Z" style="fill: #00a728"/>
    <path d="M922.54,606.33c-.35,1.87-.69,3.74-1,5.61A8.83,8.83,0,0,0,922.54,606.33Z" style="fill: #00a728"/>
    <path d="M909.47,677.17l1.44-7.8a2.88,2.88,0,0,1-.22.38C909,672.16,908.74,675.62,909.47,677.17Z" style="fill: #00a728"/>
    <path d="M927.28,578c-1.18,2.27-.81,4-.59,5.75q1.6-8.71,3.2-17.42l-.16.32C927,571.26,929.48,573.81,927.28,578Z" style="fill: #00a728"/>
    <path d="M924.78,594.17c.29-1.59.58-3.19.88-4.78A9.34,9.34,0,0,0,924.78,594.17Z" style="fill: #00a728"/>
    <path d="M930.85,561.16c.36-1.94.71-3.88,1.07-5.83C930.47,557.42,930.73,559.22,930.85,561.16Z" style="fill: #00a728"/>
    <path d="M922.54,606.33c.37-2,.73-4,1.1-6l0,0C922.23,602.38,922.41,604.33,922.54,606.33Z" style="fill: #00a728"/>
    <path d="M918.18,630q.69-3.74,1.37-7.45c-.1.17-.2.35-.32.52C917.69,625.25,918.08,627.62,918.18,630Z" style="fill: #00a728"/>
    <path d="M915.93,642.19q.69-3.8,1.4-7.59a4.94,4.94,0,0,1-.3.49C915.57,637.17,915.85,639.64,915.93,642.19Z" style="fill: #00a728"/>
    <path d="M920.36,618.16l1.14-6.22a.91.91,0,0,1-.07.14C920,614.36,920.24,616.27,920.36,618.16Z" style="fill: #00a728"/>
    <path d="M913.49,655.38l1.35-7.28a4.91,4.91,0,0,1-.25.44C913,651,913.3,653.28,913.49,655.38Z" style="fill: #00a728"/>
    <path d="M911.41,666.65q.58-3.17,1.18-6.35C911.11,662.46,911.41,664.7,911.41,666.65Z" style="fill: #00a728"/>
    <path d="M931.82,555.19a7.75,7.75,0,0,0-1.13,5.55,9,9,0,0,1-1.07,5.82,10.8,10.8,0,0,0-1.44,6.19,9.85,9.85,0,0,1-1,5.17,8.16,8.16,0,0,0-.68,5.4,8.13,8.13,0,0,1-.78,5.6,10.25,10.25,0,0,0-1,6c.09,1.77.18,3.45-1.14,5.35s-1.26,4-1.14,5.85.24,3.81-1.06,5.84a8.44,8.44,0,0,0-1.14,5.79c.12,1.71.24,3.34-1.06,5.18s-1.26,4.11-1.13,6.17.23,4-1.06,5.86-1.27,4.13-1.18,6.45.19,4.76-1.27,7c-1.58,2.43-1.36,4.68-1.16,6.66s.33,3.43-.78,5c-1.38,1.94-1.33,4-1.29,5.74,0,1.47.07,2.75-.67,3.79-1.72,2.43-2,6-1.23,7.68l.22-.22c-.65-1.37-.5-4.76,1.21-7.17.82-1.16.78-2.58.75-4.08,0-1.79-.09-3.63,1.2-5.45s1-3.48.86-5.34-.4-4,1.09-6.35,1.44-4.87,1.35-7.29c-.09-2.23-.18-4.34,1.09-6.15,1.39-2,1.26-4.11,1.14-6.17s-.24-4,1.06-5.86a7.66,7.66,0,0,0,1.14-5.51,8,8,0,0,1,1.06-5.47c1.38-2.16,1.26-4.19,1.13-6.14s-.23-3.7,1.06-5.55c1.41-2,1.32-3.78,1.22-5.65a9.83,9.83,0,0,1,1-5.71,8.61,8.61,0,0,0,.83-5.92,7.6,7.6,0,0,1,.63-5.09,10.55,10.55,0,0,0,1.07-5.4,10.11,10.11,0,0,1,1.37-5.94,9.44,9.44,0,0,0,1.13-6.11c-.12-1.74-.23-3.37,1.06-5.24Z"/>
    <path d="M931.19,623c1.19-2.15.48-3.95.24-6.06q-.34,3.57-.67,7.15A4.75,4.75,0,0,1,931.19,623Z" style="fill: #00a728"/>
    <path d="M926.06,679.23c.84-1.62.24-3.27,0-5.18l-.6,6.38C925.67,680,925.87,679.61,926.06,679.23Z" style="fill: #00a728"/>
    <path d="M930.21,634.42c1.75-3,.5-5.74.36-8.33-.29,3.17-.59,6.33-.88,9.5A7,7,0,0,1,930.21,634.42Z" style="fill: #00a728"/>
    <path d="M927,669.27c2.44-4.21-.49-8.92,1.22-12.08s-1-7.51,1-11.39c1.2-2.37.39-4.51.14-6.79q-1.49,15.82-3,31.65A7.33,7.33,0,0,1,927,669.27Z" style="fill: #00a728"/>
    <path d="M936.07,567.52a6.19,6.19,0,0,0,.43-4.89l-.46,4.94Z" style="fill: #00a728"/>
    <path d="M934.36,587.81c1.53-3.2.58-4.71.43-6.89-.23,2.52-.47,5-.7,7.56C934.17,588.26,934.26,588,934.36,587.81Z" style="fill: #00a728"/>
    <path d="M935.34,577.49a7.93,7.93,0,0,0,.24-5q-.29,3-.56,6A9.37,9.37,0,0,1,935.34,577.49Z" style="fill: #00a728"/>
    <path d="M933.14,600.62c1.49-2.79.81-5.23.54-7.74q-.39,4.13-.77,8.24C933,601,933.05,600.79,933.14,600.62Z" style="fill: #00a728"/>
    <path d="M932.17,612.36c1.21-2.54.63-4.45.29-6.44-.23,2.49-.47,5-.7,7.45A8.94,8.94,0,0,1,932.17,612.36Z" style="fill: #00a728"/>
    <path d="M931.43,617l.33-3.61A8,8,0,0,0,931.43,617Z" style="fill: #00a728"/>
    <path d="M935.58,572.52c.15-1.65.31-3.3.46-4.95A6.07,6.07,0,0,0,935.58,572.52Z" style="fill: #00a728"/>
    <path d="M933.68,592.88c.13-1.47.27-2.94.41-4.4A9.35,9.35,0,0,0,933.68,592.88Z" style="fill: #00a728"/>
    <path d="M924.84,687.39q.33-3.48.65-7C924.33,683.11,923.63,686.35,924.84,687.39Z" style="fill: #00a728"/>
    <path d="M936.5,562.63l.54-5.79A7.59,7.59,0,0,0,936.5,562.63Z" style="fill: #00a728"/>
    <path d="M934.79,580.92c.08-.79.15-1.58.23-2.38A7.67,7.67,0,0,0,934.79,580.92Z" style="fill: #00a728"/>
    <path d="M929.37,639c.1-1.14.21-2.28.32-3.42A7.26,7.26,0,0,0,929.37,639Z" style="fill: #00a728"/>
    <path d="M926.09,674.05l.32-3.39A7.66,7.66,0,0,0,926.09,674.05Z" style="fill: #00a728"/>
    <path d="M932.46,605.92l.45-4.8A7.59,7.59,0,0,0,932.46,605.92Z" style="fill: #00a728"/>
    <path d="M930.57,626.09c.07-.65.13-1.31.19-2A6.17,6.17,0,0,0,930.57,626.09Z" style="fill: #00a728"/>
    <path d="M936.94,556.72a7.75,7.75,0,0,0-.57,5.93,6,6,0,0,1-.41,4.74,6.17,6.17,0,0,0-.54,5,7.88,7.88,0,0,1-.2,5,8.66,8.66,0,0,0-.35,5.12,7.38,7.38,0,0,1-.62,5.19c-1.11,2.31-.83,4.4-.56,6.42s.55,4.11-.66,6.38a8.32,8.32,0,0,0-.58,6.14,8.1,8.1,0,0,1-.4,5.61,9.16,9.16,0,0,0-.56,6.09c.26,1.58.49,2.95-.41,4.57s-.67,3.55-.38,5.3c.32,1.93.65,3.93-.59,6.08s-1,4.31-.66,6.26c.29,1.73.57,3.36-.33,5.13-1,2.08-.8,4.23-.57,6.32.2,1.85.39,3.6-.4,5.06s-.62,3.33-.42,5.26c.24,2.26.49,4.6-.8,6.82a8.47,8.47,0,0,0-.79,6.25,5.6,5.6,0,0,1-.19,3.72c-1.11,2.12-2.11,5.13-1.83,7a2.13,2.13,0,0,0,.66,1.4l.13-.34a1.79,1.79,0,0,1-.52-1.13c-.26-1.79.74-4.75,1.78-6.74a6.08,6.08,0,0,0,.24-4,7.93,7.93,0,0,1,.73-5.91c1.37-2.35,1.1-4.89.86-7.13-.19-1.84-.38-3.58.37-5,.86-1.59.66-3.43.45-5.37s-.45-4.07.53-6,.66-3.72.37-5.46c-.33-1.94-.63-3.77.6-5.91,1.33-2.3,1-4.49.65-6.43-.29-1.73-.56-3.36.33-5,1-1.77.72-3.3.45-4.91a8.6,8.6,0,0,1,.53-5.77,8.62,8.62,0,0,0,.43-5.94,7.82,7.82,0,0,1,.54-5.8c1.28-2.41,1-4.58.71-6.69s-.53-3.94.52-6.12a7.9,7.9,0,0,0,.65-5.52,8.12,8.12,0,0,1,.33-4.82,8.47,8.47,0,0,0,.22-5.29,5.63,5.63,0,0,1,.49-4.65,6.51,6.51,0,0,0,.46-5.11,7.27,7.27,0,0,1,.52-5.58Z"/>
    <path d="M944.85,635.1v-9.34C943.67,630,944.39,632.37,944.85,635.1Z" style="fill: #00a728"/>
    <path d="M944.85,649.24v-7.75A22.78,22.78,0,0,0,944.85,649.24Z" style="fill: #00a728"/>
    <path d="M944.85,598.6v-1.23C944.84,597.79,944.84,598.19,944.85,598.6Z" style="fill: #00a728"/>
    <path d="M944.85,615.74V609.2A14.88,14.88,0,0,0,944.85,615.74Z" style="fill: #00a728"/>
    <path d="M944.85,681.12v7.3A17,17,0,0,0,944.85,681.12Z" style="fill: #00a728"/>
    <path d="M944.85,666.23v-6.68C943.6,662.49,944.22,664.29,944.85,666.23Z" style="fill: #00a728"/>
    <path d="M944.85,681.12V674A16.14,16.14,0,0,0,944.85,681.12Z" style="fill: #00a728"/>
    <path d="M945.1,673.09a10,10,0,0,0-.25-6.86V674C944.93,673.71,945,673.41,945.1,673.09Z" style="fill: #00a728"/>
    <path d="M944.85,635.1v6.39A17,17,0,0,0,944.85,635.1Z" style="fill: #00a728"/>
    <path d="M944.85,589.51v-8A15.38,15.38,0,0,0,944.85,589.51Z" style="fill: #00a728"/>
    <path d="M944.85,649.24v10.31C946.38,656,945.43,653,944.85,649.24Z" style="fill: #00a728"/>
    <path d="M944.85,598.6v10.6C946,605.14,945,602,944.85,598.6Z" style="fill: #00a728"/>
    <path d="M944.85,615.74v10C946,621.73,945.33,618.65,944.85,615.74Z" style="fill: #00a728"/>
    <path d="M944.85,570.05v-8.87A33.33,33.33,0,0,0,944.85,570.05Z" style="fill: #00a728"/>
    <path d="M944.85,570.05v11.41C945.85,577.83,945.27,574.05,944.85,570.05Z" style="fill: #00a728"/>
    <path d="M944.85,589.51v7.86a14.91,14.91,0,0,1,.25-2.24A13.49,13.49,0,0,0,944.85,589.51Z" style="fill: #00a728"/>
    <path d="M945.29,651a24.9,24.9,0,0,1-.3-9.44,18.51,18.51,0,0,0-.19-7.54,15.7,15.7,0,0,1,.18-8.17,20.5,20.5,0,0,0,.1-9.57,15.73,15.73,0,0,1-.1-7,19.59,19.59,0,0,0,.26-7.79,19.85,19.85,0,0,1,0-6.3,13.66,13.66,0,0,0-.28-5.87,14.92,14.92,0,0,1,0-7.77c.9-3.28.54-6.64.15-10.2a36.71,36.71,0,0,1-.14-10.12l-.27-.09a37.08,37.08,0,0,0,.14,10.28c.38,3.5.74,6.8-.13,10a15.37,15.37,0,0,0,0,8,13.48,13.48,0,0,1,.28,5.65,20.33,20.33,0,0,0,0,6.47,19.1,19.1,0,0,1-.24,7.59,15.88,15.88,0,0,0,.09,7.23,19.76,19.76,0,0,1-.09,9.33,16.06,16.06,0,0,0-.19,8.43,18.19,18.19,0,0,1,.18,7.32,25.54,25.54,0,0,0,.3,9.65c.52,2.92,1,5.45-.28,8.35a8.27,8.27,0,0,0,0,6.78A9.84,9.84,0,0,1,945,673a16,16,0,0,0-.26,8.09,17,17,0,0,1,0,7.25l.26.13a17.47,17.47,0,0,0,0-7.48,15.16,15.16,0,0,1,.24-7.83,10.47,10.47,0,0,0-.27-7.12c-.63-1.93-1.18-3.6,0-6.4C946.27,656.6,945.82,654,945.29,651Z"/>
    <path d="M970.16,622.62l-.81-4.37A7.15,7.15,0,0,0,970.16,622.62Z" style="fill: #00a728"/>
    <path d="M968.21,612c-.35-1.87-.69-3.75-1-5.62A8.85,8.85,0,0,0,968.21,612Z" style="fill: #00a728"/>
    <path d="M963.89,589.12l.16.34q-.51-2.79-1-5.6A8,8,0,0,0,963.89,589.12Z" style="fill: #00a728"/>
    <path d="M959.82,566.43l-1-5.21A8.88,8.88,0,0,0,959.82,566.43Z" style="fill: #00a728"/>
    <path d="M966.07,600.45l-1.14-6.2C964.85,596.34,964.55,598.24,966.07,600.45Z" style="fill: #00a728"/>
    <path d="M972.38,634.7c-.28-1.54-.57-3.09-.85-4.63A8.19,8.19,0,0,0,972.38,634.7Z" style="fill: #00a728"/>
    <path d="M978.8,669.47c-.17-.9-.34-1.81-.5-2.72A5.63,5.63,0,0,0,978.8,669.47Z" style="fill: #00a728"/>
    <path d="M977.07,660.31l0,.09-.9-4.92C976.06,657.17,976,658.77,977.07,660.31Z" style="fill: #00a728"/>
    <path d="M974.87,648.2q-.54-3-1.09-5.92A10.88,10.88,0,0,0,974.87,648.2Z" style="fill: #00a728"/>
    <path d="M972.68,635.18c-.12-.16-.2-.32-.3-.48q.71,3.79,1.4,7.58C973.86,639.74,974.14,637.27,972.68,635.18Z" style="fill: #00a728"/>
    <path d="M975.12,648.63a4.77,4.77,0,0,1-.25-.43l1.35,7.28C976.41,653.38,976.74,651.13,975.12,648.63Z" style="fill: #00a728"/>
    <path d="M977.12,660.4c.4,2.12.79,4.23,1.18,6.35C978.3,664.79,978.6,662.56,977.12,660.4Z" style="fill: #00a728"/>
    <path d="M978.8,669.47l1.44,7.8c.74-1.55.49-5-1.22-7.43A2.77,2.77,0,0,1,978.8,669.47Z" style="fill: #00a728"/>
    <path d="M970.48,623.15c-.12-.18-.22-.35-.32-.53q.68,3.74,1.37,7.45C971.63,627.72,972,625.34,970.48,623.15Z" style="fill: #00a728"/>
    <path d="M957.79,555.39c.36,1.94.71,3.89,1.07,5.83C959,559.28,959.24,557.48,957.79,555.39Z" style="fill: #00a728"/>
    <path d="M968.28,612.17a.91.91,0,0,1-.07-.14l1.14,6.22C969.47,616.36,969.74,614.45,968.28,612.17Z" style="fill: #00a728"/>
    <path d="M962.43,578.11c-2.2-4.23.24-6.78-2.45-11.36-.06-.1-.1-.21-.16-.32q1.6,8.73,3.2,17.43C963.24,582.07,963.61,580.38,962.43,578.11Z" style="fill: #00a728"/>
    <path d="M964.05,589.46c.3,1.6.59,3.2.88,4.79A9.39,9.39,0,0,0,964.05,589.46Z" style="fill: #00a728"/>
    <path d="M966.09,600.47l0,0c.37,2,.74,4,1.1,6C967.3,604.41,967.48,602.47,966.09,600.47Z" style="fill: #00a728"/>
    <path d="M978.45,665.91c0-1.78.09-3.8-1.29-5.74-1.11-1.58-.95-3.17-.78-5s.41-4.24-1.16-6.67c-1.46-2.25-1.37-4.66-1.27-7s.17-4.52-1.18-6.45-1.18-3.8-1.06-5.86.25-4.2-1.13-6.18-1.18-3.47-1.06-5.18a8.5,8.5,0,0,0-1.13-5.79c-1.31-2-1.19-4-1.07-5.84s.25-3.88-1.14-5.86S965,596.75,965,595a10.25,10.25,0,0,0-1-6,8.16,8.16,0,0,1-.78-5.61,8.16,8.16,0,0,0-.68-5.4,9.85,9.85,0,0,1-1-5.17,10.83,10.83,0,0,0-1.44-6.2A9,9,0,0,1,959,560.8a7.75,7.75,0,0,0-1.13-5.55l-.2.28c1.29,1.87,1.18,3.5,1.06,5.24a9.48,9.48,0,0,0,1.13,6.12,10.11,10.11,0,0,1,1.37,5.94,10.55,10.55,0,0,0,1.07,5.4,7.68,7.68,0,0,1,.63,5.1,8.68,8.68,0,0,0,.83,5.92,9.81,9.81,0,0,1,1,5.7c-.1,1.87-.19,3.64,1.22,5.67,1.29,1.85,1.18,3.64,1.06,5.54s-.25,4,1.13,6.15a8,8,0,0,1,1.06,5.48,7.65,7.65,0,0,0,1.14,5.5c1.3,1.85,1.18,3.8,1.06,5.86s-.25,4.2,1.14,6.18c1.27,1.8,1.18,3.91,1.09,6.15-.09,2.42-.19,4.92,1.35,7.29s1.29,4.36,1.09,6.35-.35,3.62.86,5.34,1.25,3.66,1.2,5.45c0,1.5-.07,2.92.75,4.08,1.71,2.41,1.86,5.8,1.21,7.17l.22.22c.8-1.68.49-5.25-1.23-7.68C978.38,668.66,978.41,667.38,978.45,665.91Z"/>
    <path d="M957.54,612.42a8.24,8.24,0,0,1,.41,1c-.23-2.49-.47-5-.7-7.45C956.91,608,956.33,609.87,957.54,612.42Z" style="fill: #00a728"/>
    <path d="M954.37,577.53a9.37,9.37,0,0,1,.32,1.05c-.18-2-.37-4-.56-6A8,8,0,0,0,954.37,577.53Z" style="fill: #00a728"/>
    <path d="M955.35,587.86a6.11,6.11,0,0,1,.27.66c-.23-2.51-.47-5-.7-7.54C954.77,583.15,953.82,584.66,955.35,587.86Z" style="fill: #00a728"/>
    <path d="M956.57,600.67c.09.17.16.34.23.51q-.37-4.12-.77-8.25C955.76,595.44,955.08,597.87,956.57,600.67Z" style="fill: #00a728"/>
    <path d="M958.52,623.1a4.75,4.75,0,0,1,.43,1.09q-.33-3.59-.67-7.15C958,619.15,957.33,620.94,958.52,623.1Z" style="fill: #00a728"/>
    <path d="M959.5,634.48a6.49,6.49,0,0,1,.52,1.16c-.29-3.16-.59-6.33-.88-9.49C959,628.74,957.75,631.46,959.5,634.48Z" style="fill: #00a728"/>
    <path d="M963.65,679.3c.19.38.39.79.57,1.21l-.6-6.39C963.41,676,962.81,677.69,963.65,679.3Z" style="fill: #00a728"/>
    <path d="M964.87,687.47c1.21-1,.51-4.28-.65-7Q964.53,684,964.87,687.47Z" style="fill: #00a728"/>
    <path d="M960.48,645.87c1.95,3.88-.74,8.21,1,11.38s-1.22,7.87,1.22,12.1a7.33,7.33,0,0,1,.63,1.39q-1.47-15.82-3-31.66C960.09,641.35,959.28,643.5,960.48,645.87Z" style="fill: #00a728"/>
    <path d="M956.8,601.18l.45,4.8A7.59,7.59,0,0,0,956.8,601.18Z" style="fill: #00a728"/>
    <path d="M960,635.64c.11,1.14.22,2.29.32,3.44A7.35,7.35,0,0,0,960,635.64Z" style="fill: #00a728"/>
    <path d="M959,624.19c.06.65.12,1.31.19,2A6.17,6.17,0,0,0,959,624.19Z" style="fill: #00a728"/>
    <path d="M963.3,670.74c.11,1.12.21,2.25.32,3.38A7.61,7.61,0,0,0,963.3,670.74Z" style="fill: #00a728"/>
    <path d="M958,613.43l.33,3.61A8,8,0,0,0,958,613.43Z" style="fill: #00a728"/>
    <path d="M954.69,578.58l.23,2.4A7.82,7.82,0,0,0,954.69,578.58Z" style="fill: #00a728"/>
    <path d="M955.62,588.52c.14,1.47.28,2.94.41,4.41A9.4,9.4,0,0,0,955.62,588.52Z" style="fill: #00a728"/>
    <path d="M953.67,567.61c.15,1.65.31,3.3.46,4.95A6.07,6.07,0,0,0,953.67,567.61Z" style="fill: #00a728"/>
    <path d="M952.67,556.88l.54,5.79A7.59,7.59,0,0,0,952.67,556.88Z" style="fill: #00a728"/>
    <path d="M953.64,567.56l0,.05c-.16-1.65-.31-3.29-.46-4.94A6.2,6.2,0,0,0,953.64,567.56Z" style="fill: #00a728"/>
    <path d="M963.57,675.47a8.46,8.46,0,0,0-.79-6.25c-1.29-2.23-1-4.57-.8-6.83.2-1.93.39-3.74-.42-5.26s-.6-3.21-.39-5.06c.22-2.09.46-4.24-.58-6.32-.9-1.78-.62-3.41-.33-5.14.32-2,.66-4-.66-6.26s-.91-4.15-.59-6.08c.29-1.75.58-3.55-.38-5.3s-.67-3-.41-4.58a9.16,9.16,0,0,0-.56-6.09,8.08,8.08,0,0,1-.4-5.6,8.35,8.35,0,0,0-.58-6.15c-1.21-2.28-.95-4.27-.66-6.38s.55-4.1-.56-6.43a7.38,7.38,0,0,1-.62-5.19,8.63,8.63,0,0,0-.35-5.11,7.91,7.91,0,0,1-.2-5,6.13,6.13,0,0,0-.54-5,6,6,0,0,1-.41-4.74,7.78,7.78,0,0,0-.57-5.94l-.21.25a7.25,7.25,0,0,1,.52,5.57,6.53,6.53,0,0,0,.46,5.12,5.63,5.63,0,0,1,.49,4.65,8.47,8.47,0,0,0,.22,5.29,8.16,8.16,0,0,1,.33,4.83,7.84,7.84,0,0,0,.66,5.51c1,2.19.78,4.1.51,6.13s-.57,4.28.71,6.7a7.82,7.82,0,0,1,.54,5.8,8.59,8.59,0,0,0,.43,5.93,8.61,8.61,0,0,1,.53,5.77c-.27,1.62-.53,3.15.45,4.92.89,1.6.62,3.23.33,5-.31,1.94-.68,4.13.65,6.43,1.24,2.14.93,4,.6,5.91-.29,1.74-.59,3.54.37,5.47s.75,4,.53,6-.41,3.77.45,5.37c.74,1.38.56,3.12.37,5-.24,2.24-.51,4.77.86,7.14a7.91,7.91,0,0,1,.73,5.9,6.18,6.18,0,0,0,.24,4c1,2,2,5,1.79,6.74a1.85,1.85,0,0,1-.53,1.13l.13.34a2.13,2.13,0,0,0,.66-1.39c.28-1.92-.72-4.93-1.83-7.07A5.57,5.57,0,0,1,963.57,675.47Z"/>
    <path d="M928.32,572.9h0a10,10,0,0,1-1,5.14c-2.19,4.22,1,6.44-1.46,11s.49,7.5-2.2,11.34.49,7.5-2.19,11.69.49,7.15-2.2,11,.49,8.22-2.2,12,.49,8.93-2.44,13.45.49,8.21-2,11.67-.24,7.12-1.95,9.54c2.93-3.08,2.93-8.07,5.12-10.47s-.73-6.09.49-7.82.25-9.26,2.44-12.74.25-10.68,2.2-13.11.49-10,2.93-12.38,0-8.56,2-11.71,0-8.19,1.95-12.06.09-7.48,1.46-10.66C929.85,577.39,929.85,567.05,928.32,572.9Z" style="fill: #fcc300"/>
    <path d="M929.08,570.92c-.19,0-.46.26-.89,1.9v.07a9.74,9.74,0,0,1-1,5,8.16,8.16,0,0,0-.68,5.4,8.13,8.13,0,0,1-.78,5.6,10.25,10.25,0,0,0-1,6c.09,1.77.18,3.45-1.14,5.35s-1.26,4-1.14,5.85.24,3.81-1.06,5.84a8.45,8.45,0,0,0-1.14,5.79c.12,1.71.24,3.34-1.06,5.18s-1.26,4.11-1.13,6.17.23,4-1.06,5.86-1.27,4.13-1.18,6.45.19,4.76-1.27,7c-1.58,2.43-1.36,4.68-1.16,6.67.18,1.83.33,3.42-.78,5-1.38,1.94-1.33,4-1.29,5.74,0,1.47.07,2.75-.67,3.79l.18.31c1.61-1.68,2.36-4,3-6a12.38,12.38,0,0,1,2.1-4.47c1.32-1.45.9-3.31.53-5-.27-1.19-.5-2.22,0-2.89s.68-2.63.82-4.76c.19-2.83.4-6,1.63-8s1.19-4.62,1.22-7.3c0-2.41.06-4.67,1-5.8s1.12-3.46,1.29-5.87c.19-2.59.38-5.26,1.62-6.5s1.28-3.75,1.21-6.09c-.06-2.07-.12-4.21.77-5.64,1-1.64,1-3.71,1-5.9s0-4.3,1-6.18a11.82,11.82,0,0,0,1-6.17,10.35,10.35,0,0,1,.51-4.5c.45-1,.6-6.43.08-7.67C929.31,571,929.18,570.91,929.08,570.92Zm0,7.77a10.74,10.74,0,0,0-.55,4.73,11.52,11.52,0,0,1-.91,5.92c-1,2-1,4.23-1,6.41s0,4.11-.94,5.64-.9,3.77-.84,5.92c.07,2.33.13,4.54-1.09,5.75s-1.55,4.1-1.74,6.78c-.17,2.33-.32,4.53-1.2,5.62s-1,3.59-1.05,6.08-.06,5.3-1.16,7c-1.28,2-1.51,5.46-1.69,8.21-.14,2.05-.25,3.83-.74,4.52-.59.84-.32,2,0,3.3.36,1.59.73,3.23-.44,4.51a12.75,12.75,0,0,0-2.18,4.61,18,18,0,0,1-2.21,5,10.37,10.37,0,0,0,.2-2.88c0-1.79-.09-3.63,1.2-5.45s1-3.48.86-5.34-.4-4,1.09-6.34,1.44-4.88,1.35-7.3c-.09-2.23-.18-4.34,1.09-6.15,1.39-2,1.26-4.11,1.14-6.17s-.24-4,1.06-5.86a7.65,7.65,0,0,0,1.14-5.5,8,8,0,0,1,1.06-5.48c1.38-2.16,1.26-4.19,1.13-6.14s-.23-3.7,1.06-5.55c1.41-2,1.32-3.78,1.22-5.65a9.83,9.83,0,0,1,1-5.71,8.61,8.61,0,0,0,.83-5.92,7.6,7.6,0,0,1,.63-5.09,10.16,10.16,0,0,0,1.07-5.22c.4-1.51.61-1.61.65-1.62h0s.07.09.09.12C929.65,572.54,929.52,577.76,929.12,578.69Z"/>
    <polygon points="935.34 577.49 935.34 577.49 935.34 577.49 935.34 577.49" style="fill: #fcc300"/>
    <path d="M935.34,577.49c-1.71,4.61,1.22,5.72-1,10.32s1.22,8.22-1.22,12.81,1.22,7.15-1,11.74,1,7.15-1,10.68,1.46,7.16-1,11.38,1,7.51-1,11.38.74,8.22-1,11.39,1.22,7.87-1.22,12.08.49,7.15-1,10c2.93-1.35,1.84-7.26,2.93-8.48s-.36-9.46,1.34-11.56-1.09-8.75.49-11.57c2.69-4.76.37-8,1.95-11.72s-.6-8.56.62-11c2.07-4.24-.92-8.15.6-11.22,2.2-4.42-.42-8.13,1.1-11,2.32-4.42-.24-8.91.74-11.21S938.39,579.14,935.34,577.49Z" style="fill: #fcc300"/>
    <path d="M936.93,579.83a3.6,3.6,0,0,0-1.55-2.53l-.11-.06,0,.15a8.66,8.66,0,0,0-.35,5.12,7.38,7.38,0,0,1-.62,5.19c-1.11,2.31-.83,4.4-.56,6.42s.55,4.11-.66,6.38a8.32,8.32,0,0,0-.58,6.14,8.1,8.1,0,0,1-.4,5.61,9.16,9.16,0,0,0-.56,6.09c.26,1.58.49,2.95-.41,4.57s-.67,3.55-.38,5.3c.32,1.93.65,3.93-.59,6.08s-1,4.31-.66,6.26c.29,1.73.57,3.36-.33,5.13-1,2.08-.8,4.23-.57,6.32.2,1.85.39,3.6-.4,5.06s-.62,3.33-.42,5.26c.24,2.26.49,4.6-.8,6.82a8.49,8.49,0,0,0-.79,6.26,5.58,5.58,0,0,1-.19,3.71l-.26.5.42-.19c1.92-.88,2.18-3.62,2.39-5.81a5.77,5.77,0,0,1,.58-2.7c.54-.61.52-2.55.5-4.8,0-2.65-.06-5.66.84-6.76s.64-3.37.33-5.73-.57-4.54.18-5.87a12.14,12.14,0,0,0,1.4-7.1,10.15,10.15,0,0,1,.56-4.64c.88-2.06.64-4.45.42-6.55-.18-1.82-.34-3.4.19-4.48,1.15-2.36.78-4.64.46-6.65-.28-1.73-.52-3.23.15-4.57a11.35,11.35,0,0,0,.77-6.74c-.18-1.63-.33-3,.32-4.28,1.43-2.73,1-5.49.75-7.71a7.43,7.43,0,0,1,0-3.53C936.68,589.76,937.82,583.54,936.93,579.83Zm-1.25,15.27c.31,2.25.66,4.81-.7,7.39-.72,1.38-.55,2.94-.37,4.59a10.82,10.82,0,0,1-.73,6.45c-.74,1.48-.47,3.14-.19,4.89.33,2,.67,4.11-.42,6.32-.59,1.22-.41,2.94-.23,4.77.21,2,.44,4.35-.38,6.28a10.73,10.73,0,0,0-.61,4.88,11.56,11.56,0,0,1-1.33,6.82c-.83,1.47-.53,3.87-.23,6.19s.55,4.38-.25,5.36c-1,1.23-1,4.33-.93,7.07,0,2,0,4-.4,4.48a6,6,0,0,0-.68,3c-.19,1.92-.41,4.28-1.83,5.27a7,7,0,0,0,0-3.51,7.93,7.93,0,0,1,.73-5.91c1.37-2.35,1.1-4.89.86-7.13-.19-1.84-.38-3.58.37-5,.86-1.59.66-3.43.45-5.37s-.45-4.08.53-6,.66-3.72.37-5.46c-.33-1.94-.63-3.77.6-5.91,1.33-2.3,1-4.49.65-6.43-.29-1.73-.56-3.36.33-5,1-1.77.72-3.3.45-4.92a8.58,8.58,0,0,1,.53-5.76,8.62,8.62,0,0,0,.43-5.94,7.82,7.82,0,0,1,.54-5.8c1.28-2.41,1-4.58.71-6.69s-.53-3.94.52-6.12a7.88,7.88,0,0,0,.65-5.51,8.22,8.22,0,0,1,.27-4.68,3.47,3.47,0,0,1,1.28,2.21c.84,3.55-.27,9.7-1,11.34A7.67,7.67,0,0,0,935.68,595.1Z"/>
    <path d="M947.54,643.15c.73-5-1.71-11.76-.12-17.1s-2.44-11-.86-15.69-.73-10.33.73-14.07-1.09-8.73-.48-10.87-.61-10-2-4h0c-1.7,6.21,1.22,8.7.25,13.67s1.22,8.69-.25,14.07,2,9.53,0,16.56,1.26,8.8,0,15.73c-1.46,8.08,2.44,12.36,0,18.06s2.8,7.59.25,13.54c-1.22,2.85.12,10.16,2.07,1.43s-1.46-9.8.25-13.37S946.81,648.14,947.54,643.15Z" style="fill: #fcc300"/>
    <path d="M947.86,651.23a40.37,40.37,0,0,1-.19-8,29.29,29.29,0,0,0-.25-7.34c-.37-3.33-.76-6.77.12-9.73.83-2.79.18-5.63-.45-8.37s-1.16-5.1-.4-7.31c.83-2.43.61-5.1.41-7.68-.19-2.38-.38-4.62.31-6.39.9-2.29.33-5-.13-7.27a9.25,9.25,0,0,1-.35-3.62,12.05,12.05,0,0,0-.56-6.08c-.23-.4-.44-.43-.58-.39-.39.1-.74.88-1.06,2.38a15.34,15.34,0,0,0,0,8,13.48,13.48,0,0,1,.28,5.65,20.33,20.33,0,0,0,0,6.47,19.1,19.1,0,0,1-.24,7.59,15.88,15.88,0,0,0,.09,7.23,19.76,19.76,0,0,1-.09,9.33,16.06,16.06,0,0,0-.19,8.43,18.19,18.19,0,0,1,.18,7.32,25.54,25.54,0,0,0,.3,9.65c.52,2.92,1,5.45-.28,8.35s-.55,4.9.13,6.81,1.36,3.82.11,6.73a8.63,8.63,0,0,0-.12,5.35c.19.43.4.54.57.54h.07c.58-.1,1.19-1.54,1.8-4.28a18.44,18.44,0,0,0,.08-9.33c-.34-1.5-.57-2.48.15-4C948.53,659.17,948.19,655.13,947.86,651.23Zm-.73,14.15a18.08,18.08,0,0,1-.09,9.08c-.78,3.5-1.36,4-1.58,4s-.25-.09-.37-.35a8.15,8.15,0,0,1,.12-4.92c1.34-3.11.61-5.15-.09-7.13s-1.31-3.7-.15-6.42c1.3-3,.85-5.65.32-8.66a24.9,24.9,0,0,1-.3-9.44,18.51,18.51,0,0,0-.19-7.54,15.7,15.7,0,0,1,.18-8.17,20.5,20.5,0,0,0,.1-9.57,15.73,15.73,0,0,1-.1-7,19.59,19.59,0,0,0,.26-7.79,19.85,19.85,0,0,1,0-6.3,13.66,13.66,0,0,0-.28-5.87,14.91,14.91,0,0,1,0-7.77v0c.4-1.8.73-2.08.86-2.11h0c.09,0,.19.09.28.27a11.57,11.57,0,0,1,.53,5.67,9.51,9.51,0,0,0,.34,3.89c.47,2.25,1,4.81.15,7-.73,1.88-.54,4.18-.34,6.63s.41,5.13-.39,7.46-.22,4.9.39,7.6,1.25,5.44.46,8.09c-.91,3.07-.52,6.57-.14,10a29.55,29.55,0,0,1,.26,7.18,40.15,40.15,0,0,0,.18,8.17c.32,3.83.66,7.79-.29,9.76A5.76,5.76,0,0,0,947.13,665.38Z"/>
    <path d="M944.85,504.51c-14.39-.08-18.3,13.6-18.3,53.91q18.3.48,36.61.07h0C963.16,518.18,959.25,504.5,944.85,504.51Z" style="fill: #ef072d"/>
    <path d="M944.85,504.31c-7.42,0-11.94,3.61-14.67,11.92-2.64,8-3.76,20.64-3.76,42.18v.2q18.44.5,36.87.08v-.2c0-21.55-1.12-34.16-3.76-42.2C956.8,508,952.27,504.32,944.85,504.31Zm-18.16,53.91c0-41.23,4.27-53.58,18.16-53.51S963,517.06,963,558.3Q944.86,558.72,926.69,558.22Z"/>
    <path d="M926.55,558.42h0l7,.15c1-1.94,1.1-7.11.12-6.06s-1.1-1.09,0-3.56.73-7.47-1.1-4.48-.24-5.7,1.59-9.41.49-6.23-1.22-4.12-.49-4.47.73-6.76,2-6.56.49-4.63-2.08,2.28-1-2.69,5.12-12.37,11.71-12.35C930.46,504.43,926.55,518.11,926.55,558.42Z"/>
    <path d="M930.18,516.23c-2.64,8-3.76,20.64-3.76,42.18v.2q3.57.1,7.16.16l0-.08c.85-1.69,1.07-5.55.53-6.34-.08-.11-.29-.33-.6,0-.1.11-.35.34-.46.18s-.09-1.79.66-3.47.86-4.74.16-5.52c-.27-.3-.75-.4-1.48.8-.34.55-.48.57-.5.54-.4-.47.71-6.48,2.3-9.7,1.12-2.29,1.06-4.11.52-4.83-.36-.5-1.06-.65-1.94.43-.25.31-.45.44-.52.33-.4-.55.45-4.92,1.45-6.81.88-1.66,1.64-4.69,1.18-5.31-.28-.39-.74.21-.89.41-.9,1.19-1.18,1.34-1.26,1.26s-.19-.59.5-3.73c1.09-4.95,5.08-12.24,11.58-12.22v-.4C937.43,504.29,932.91,507.92,930.18,516.23Zm2.83.57c-.69,3.14-.66,3.94-.39,4.2s.79-.24,1.59-1.3c.34-.44.49-.47.53-.42.23.32-.25,3-1.22,4.77s-2,6.47-1.42,7.35c.2.27.5.17.89-.31.61-.76,1.22-.93,1.58-.45s.42,2.3-.56,4.3c-1.35,2.74-3,9.43-2.25,10.25.3.36.73-.35.87-.58.27-.44.78-1.13,1.12-.75.53.59.5,3.32-.23,5s-1,3.43-.62,4c.11.15.36.34.81-.15.16-.17.22-.08.24,0,.4.58.24,4.13-.51,5.74l-6.75-.15c0-37.68,3.57-51.26,14.79-53.24C936.82,506.92,933.92,512.67,933,516.8Z"/>
    <path d="M952.3,512.15c-3-1.8-3.12-1.41-1.67,1.44s1.23,6.94-.12,4.1-1.78-3.38-2.34-2.13,1.56,7.12,3.13,12.46c1.26,4.29.44,6.41-1.46,2.14s-1.89-.39-.23,3.21c2.14,4.63,2.08,18.7,2.08,24.58,2.89-.55,5.77-1.13,8.66-1.72h0C960.35,524.69,957.67,515.31,952.3,512.15Z"/>
    <path d="M952.36,512c-1.87-1.1-2.51-1.31-2.72-.91s0,1,.88,2.66a8.06,8.06,0,0,1,.89,4.56q0,.16-.12.18c-.08,0-.27-.05-.66-.88-.91-1.93-1.43-2.85-1.9-2.85h0c-.3,0-.51.39-.67.73-.44,1,.45,4,2,8.81.39,1.26.8,2.57,1.17,3.84.73,2.48.68,3.95.41,4.16s-.71-.16-1.62-2.21-1.23-2-1.37-2-.21.11-.27.28c-.24.7.19,3,1.18,5.11,2.06,4.45,2,18.12,2,24v.74q4.41-.85,8.82-1.75l.12,0v-.18C960.49,527.05,958.36,515.5,952.36,512Zm-.54,45.77v-.29c0-6.37,0-19.64-2.09-24.18-1-2.1-1.34-4.19-1.16-4.71,0-.06,0-.06,0-.06s.36.07,1.12,1.78c.83,1.87,1.54,2.7,2,2.34s.41-2.29-.29-4.67c-.37-1.28-.78-2.58-1.17-3.85-1.16-3.72-2.35-7.56-2-8.42.17-.37.31-.55.45-.55h0c.34,0,.87,1,1.67,2.68.35.73.66,1.08.91,1s.26-.1.35-.41a8.51,8.51,0,0,0-.92-5c-.83-1.62-.94-2.08-.88-2.18s.54-.05,2.39,1.05c5.87,3.45,8,14.86,8,43.72Q956,556.92,951.82,557.73Z"/>
    <path d="M958.16,552.82c-2.57,1.69-9.65,2.8-13.31,2.78s-10.73-1.13-13.3-2.84-5.24-3.11-6.46-.9c-1.74,3.13-1.47,5.64,3.54,8.6a34.41,34.41,0,0,0,32.45.07c5-2.95,5.27-5.46,3.54-8.59C963.4,549.73,960.72,551.14,958.16,552.82Z" style="fill: #ef072d"/>
    <path d="M958.1,552.64c-2.54,1.68-9.54,2.78-13.25,2.76s-10.7-1.13-13.24-2.82c-2.69-1.78-5.37-3.14-6.63-.85a6,6,0,0,0-.93,4c.32,1.73,1.76,3.3,4.53,4.94a34.54,34.54,0,0,0,32.55.07c2.77-1.63,4.21-3.2,4.53-4.92a6,6,0,0,0-.93-4C963.47,549.52,960.8,550.87,958.1,552.64Zm7.29,3.06c-.29,1.59-1.68,3.07-4.36,4.65a34.36,34.36,0,0,1-32.35-.07c-2.68-1.58-4.07-3.07-4.36-4.66a5.4,5.4,0,0,1,.87-3.63,1.9,1.9,0,0,1,1.83-1.07c1.25,0,2.86,1,4.48,2,2.58,1.72,9.63,2.86,13.35,2.86s10.79-1.09,13.36-2.8,5.15-3,6.31-.94A5.44,5.44,0,0,1,965.39,555.7Z"/>
    <path d="M1002.31,506.24c-.61,1-1.21,1.92-1.81,2.88h0s3.75,9.17,6.51,15.82,5,8,7,5.75.3-7.71-1.29-10.21S1002.31,506.25,1002.31,506.24Z" style="fill: #b95a1e"/>
    <path d="M1002.42,506.06l-.11-.15-2,3.2.06.14s3.76,9.17,6.51,15.81c1.76,4.26,3.36,6.48,4.89,6.82a1.89,1.89,0,0,0,.58,0,2.78,2.78,0,0,0,1.74-1.06,4.27,4.27,0,0,0,.95-2.55,14.89,14.89,0,0,0-2.22-8C1011.23,517.85,1002.5,506.2,1002.42,506.06Zm12.3,22.23a3.7,3.7,0,0,1-.82,2.22,2.14,2.14,0,0,1-2.07.92c-1.44-.32-3-2.48-4.69-6.62-2.55-6.16-6-14.47-6.45-15.67l1.62-2.58c1,1.4,8.79,11.77,10.27,14.08A14.3,14.3,0,0,1,1014.72,528.29Z"/>
    <path d="M1001.91,508.08l-2.3,1.84s1.48,10.74,2.58,18.58,2.87,10.31,5.19,9.19,2-7.26,1-10.51S1001.91,508.09,1001.91,508.08Z" style="fill: #b95a1e"/>
    <polygon points="999.61 509.92 999.61 509.92 999.61 509.92 999.61 509.92" style="fill: #b95a1e"/>
    <path d="M1002.05,508l-.07-.2-2.55,2,0,.17s1.49,10.74,2.59,18.57c.71,5.05,1.71,8,3.06,9.14a1.94,1.94,0,0,0,1.45.47,2.33,2.33,0,0,0,.87-.26,3,3,0,0,0,1.41-1.89c.79-2.39.44-6.39-.28-8.93C1007.63,523.86,1002.1,508.14,1002.05,508Zm6.5,27.86a2.55,2.55,0,0,1-1.21,1.64,1.8,1.8,0,0,1-2.08-.18c-1.27-1-2.22-3.94-2.91-8.85-1-7.26-2.37-17-2.57-18.4l2.06-1.64c.64,1.84,5.56,15.87,6.42,18.88C1009,529.77,1009.27,533.65,1008.55,535.83Z"/>
    <path d="M1000.5,509.31,998,510.39h0v19.2c0,8.1,1.38,11.13,3.78,10.8s2.86-6.55,2.4-10.07S1000.5,509.32,1000.5,509.31Z" style="fill: #b95a1e"/>
    <path d="M1000.65,509.24l0-.21-2.74,1.19v.18s0,11.1,0,19.2c0,5.23.57,8.51,1.73,10a2.21,2.21,0,0,0,2,1l.15,0a2.27,2.27,0,0,0,1.61-1.39c1.1-2.1,1.3-6.19.94-9C1003.9,526.77,1000.68,509.42,1000.65,509.24Zm2.52,29.72a2,2,0,0,1-1.38,1.2,2,2,0,0,1-2-.86c-1.09-1.45-1.62-4.63-1.63-9.72,0-7.5,0-17.57,0-19l2.21-1c.37,2,3.23,17.51,3.66,20.77C1004.4,533.08,1004.17,537,1003.17,539Z"/>
    <path d="M993.74,506.89S985,520,983.36,522.73s-3.29,8.47-1.3,10.41,4.23.25,7-6.82,6.52-16.81,6.52-16.82h0Z" style="fill: #b95a1e"/>
    <path d="M993.64,506.74c-.09.15-8.82,13.14-10.4,15.85a16.78,16.78,0,0,0-2.22,8.34,3.71,3.71,0,0,0,1,2.41,2.34,2.34,0,0,0,1.74.78,1.68,1.68,0,0,0,.58-.13c1.53-.57,3.13-3,4.89-7.57,2.75-7.07,6.51-16.81,6.51-16.81l.06-.16-2-2.88Zm-4.73,19.47c-1.72,4.4-3.25,6.8-4.68,7.34a1.88,1.88,0,0,1-2.08-.6,3.22,3.22,0,0,1-.82-2.09,16,16,0,0,1,2.15-8c1.47-2.54,9.23-14.11,10.26-15.66l1.62,2.33C994.87,510.82,991.46,519.66,988.91,526.21Z"/>
    <polygon points="996.45 510.17 996.45 510.17 996.45 510.17 996.45 510.17" style="fill: #b95a1e"/>
    <path d="M987.65,528.77c-.93,3.39-1.3,9.59,1,10.36s4.09-2,5.19-10,2.59-19,2.59-19l-2.3-1.49S988.58,525.38,987.65,528.77Z" style="fill: #b95a1e"/>
    <path d="M994,508.59c-.06.17-5.58,16.75-6.5,20.1-.73,2.66-1.08,6.71-.29,9a2.44,2.44,0,0,0,1.41,1.68,2.28,2.28,0,0,0,.88.12,2.22,2.22,0,0,0,1.44-.69c1.35-1.31,2.35-4.46,3.06-9.61,1.1-8,2.59-19,2.59-19l0-.17-2.55-1.65Zm2.26,1.72c-.19,1.43-1.54,11.38-2.56,18.79-.69,5-1.65,8.06-2.92,9.3a1.92,1.92,0,0,1-2.08.5,2.12,2.12,0,0,1-1.21-1.45c-.72-2.07-.42-6,.3-8.6.86-3.14,5.77-17.93,6.42-19.87Z"/>
    <path d="M998,510.39l-2.47-.7s-3.25,18-3.71,21.58,0,9.72,2.4,9.69,3.77-3.27,3.78-11.37,0-19.2,0-19.2Z" style="fill: #b95a1e"/>
    <path d="M998.18,510.2l-2.74-.77,0,.21c0,.19-3.26,18-3.71,21.59-.36,2.83-.15,6.88.94,8.82a1.88,1.88,0,0,0,1.61,1.14h.15a2.71,2.71,0,0,0,2.06-1.3c1.16-1.71,1.72-5.09,1.72-10.31,0-8.11,0-19.2,0-19.2Zm-.31,19.4c0,5.1-.54,8.36-1.63,10a2.38,2.38,0,0,1-2,1.17,1.6,1.6,0,0,1-1.37-1c-1-1.76-1.24-5.68-.88-8.44.42-3.33,3.29-19.28,3.66-21.34l2.2.62C997.87,512,997.88,522.1,997.87,529.6Z"/>
    <path d="M1019,404.05a125.33,125.33,0,0,0-16.82,20.61h0l3.06,3.54s9.17-12.2,16.82-20.71,16.82-19.27,16.82-21.18C1037.46,384.91,1029.72,393.36,1019,404.05Z" style="fill: #b95a1e"/>
    <path d="M1022.68,400.1l-3.75,3.76a126.91,126.91,0,0,0-16.86,20.66l-.11.18,3.29,3.79.1-.13c.09-.11,9.26-12.29,16.81-20.69,16.89-18.84,16.89-20.85,16.89-21.38v-.12l-.06-.06C1037.65,384.8,1031.69,391,1022.68,400.1Zm-.7,7.22c-7.14,7.93-15.71,19.23-16.73,20.58l-2.84-3.27a127.83,127.83,0,0,1,16.68-20.4c1.3-1.29,2.55-2.55,3.75-3.76,8.1-8.18,14.53-14.86,15.89-14C1038.54,387.44,1036,391.76,1022,407.32Z"/>
    <path d="M1020.54,417.16a206.39,206.39,0,0,0-17.64,15h0l3.06,3.53a206.16,206.16,0,0,1,17.64-15.12c9.18-6.73,22.94-8.85,24.47-11C1048.07,407.71,1032,409.09,1020.54,417.16Z" style="fill: #b95a1e"/>
    <path d="M1048,409.06c-1.87-1.48-16.93.4-27.52,7.9A208.42,208.42,0,0,0,1002.81,432l-.18.18c1.11,1.27,2.21,2.55,3.31,3.82l.1-.1a206.72,206.72,0,0,1,17.62-15.11c5.59-4.13,12.82-6.44,18.09-8.22,3.36-1.13,5.79-2,6.42-2.86l.06-.07v-.11A.62.62,0,0,0,1048,409.06Zm-6.29,3.08c-5.29,1.78-12.54,4.1-18.17,8.26a206.61,206.61,0,0,0-17.57,15l-2.81-3.24a216.56,216.56,0,0,1,17.44-14.84c11-7.77,25.66-9.13,27.22-7.89l.06,0C1047.17,410.28,1044.74,411.12,1041.71,412.14Z"/>
    <path d="M1020.61,434c-12.32,7.11-17.65,11.22-17.65,11.24h0l3.06,3.53s9.68-7.37,19.17-11.51c9.18-4.12,22.37-5,23.89-7.21C1049.09,428.21,1032.84,427,1020.61,434Z" style="fill: #b95a1e"/>
    <path d="M1049,429.52c-2-1.74-16.94-2.3-28.43,4.29-12.19,7-17.61,11.19-17.67,11.25l-.21.17q1.65,1.92,3.32,3.83l.09-.07c.09-.07,9.77-7.4,19.14-11.5,4.91-2.22,11-3.47,15.8-4.54,4.3-.94,7.41-1.68,8.16-2.73l0-.07V430A.67.67,0,0,0,1049,429.52Zm-8,3c-4.86,1.07-10.91,2.32-15.85,4.56-8.92,3.89-18.1,10.71-19.11,11.46q-1.41-1.61-2.8-3.23a183,183,0,0,1,17.4-11.06c11.4-6.54,26.41-5.83,28.15-4.31a.26.26,0,0,1,.09.1C1048.05,430.91,1044.78,431.67,1041,432.5Z"/>
    <path d="M1022.75,447.05c-13.07,3.39-19.21,11.41-19.21,11.44h0l3.06,3.52s7.34-7.95,17.07-10.57c9.17-2.52,21.41,5.86,22.94,3.69C1046.61,453.23,1035.9,443.61,1022.75,447.05Z" style="fill: #b95a1e"/>
    <path d="M1045.85,453.44c-2.32-2.71-11.55-9.64-23.12-6.62-13,3.37-19.22,11.4-19.29,11.5a1.33,1.33,0,0,1-.14.19l3.29,3.79.1-.1c.07-.09,7.42-7.95,17-10.54,5.49-1.52,12.05.92,16.83,2.62,3.32,1.2,5.52,2,6.2,1l0-.08v-.1A3,3,0,0,0,1045.85,453.44Zm-5.24.4c-4.81-1.72-11.41-4.18-17-2.62-9,2.44-16.12,9.55-17,10.51l-2.82-3.26c1-1.23,7.19-8.13,19-11.2,11.44-3,20.57,3.86,22.87,6.54a3.7,3.7,0,0,1,.8,1.24C1045.77,455.66,1043.38,454.83,1040.61,453.84Z"/>
    <polygon points="1000.5 416.99 1000.5 416.99 1000.5 416.99 1000.5 416.99" style="fill: #b95a1e"/>
    <path d="M1004.78,380.57c1.23,3.69,5.58,10.87,5.58,18.46s-9.86,18-9.86,18l3.06,3.54s9.26-13.43,9.26-21.74C1012.82,391.2,1007.24,380.36,1004.78,380.57Z" style="fill: #b95a1e"/>
    <path d="M1004.78,380.34l-.25,0,.11.32c.32.95.84,2.13,1.44,3.49,1.74,3.93,4.12,9.3,4.12,14.88,0,7.4-9.69,17.68-9.79,17.75l-.17.19,3.32,3.84.1-.14c.38-.53,9.32-13.6,9.32-21.92a30.75,30.75,0,0,0-3.13-12.15C1008,382.7,1006,380.23,1004.78,380.34Zm-1.23,39.88-2.79-3.23c1.36-1.44,9.75-10.8,9.75-18,0-5.71-2.41-11.14-4.16-15.11-.53-1.18-1-2.23-1.31-3.09,2.48.54,7.63,10.61,7.63,18C1012.67,406.46,1004.56,418.76,1003.55,420.22Z"/>
    <path d="M1006.66,374.71A46.6,46.6,0,0,0,999.27,400c0,11.39,1.23,17,1.23,17h0l3.06,3.54s-1.83-12.43-1.83-20.72C1001.73,388.43,1007.17,377.6,1006.66,374.71Z" style="fill: #b95a1e"/>
    <path d="M1006.74,374.25c-.06.1-.13.2-.19.31A47.08,47.08,0,0,0,999.11,400c0,11.29,1.23,17,1.24,17.05v.06l3.45,4-.1-.64c0-.12-1.82-12.5-1.82-20.68,0-6.91,2-13.59,3.48-18.48,1-3.18,1.65-5.48,1.44-6.67Zm-1.65,6.9c-1.48,4.92-3.52,11.65-3.52,18.67a175.42,175.42,0,0,0,1.74,20.13c-.89-1-1.78-2.07-2.68-3.1-.13-.64-1.21-6.26-1.21-16.86a46.43,46.43,0,0,1,7.12-24.76A30.44,30.44,0,0,1,1005.09,381.15Z"/>
    <path d="M977,407.28c-10.7-9-18.45-16.23-19.88-14.6,0,1.91,9.18,11.25,16.82,18.53s16.83,18.1,16.83,18.09l3.06-4h0A99.32,99.32,0,0,0,977,407.28Z" style="fill: #b95a1e"/>
    <path d="M977.12,407.08c-1.29-1.08-2.53-2.14-3.73-3.16-9-7.7-15-12.94-16.33-11.42l-.06.07v.12c0,.54,0,2.52,16.89,18.71,7.56,7.22,16.72,18,16.82,18.08l.1.12c1.09-1.43,2.19-2.86,3.28-4.3l-.11-.16A99.63,99.63,0,0,0,977.12,407.08ZM990.81,429c-1-1.18-9.6-11.17-16.74-18-14-13.37-16.56-17.25-16.74-18.22,1.35-1,7.78,4.6,15.9,11.52l3.73,3.17a101.1,101.1,0,0,1,16.68,17.82Z"/>
    <path d="M948,417.43c1.53,1.93,15.3,1.81,24.47,7.12a163,163,0,0,1,17.65,12.39l3.06-4h0a165.66,165.66,0,0,0-17.65-12.31C964.1,414.32,948,415.56,948,417.43Z" style="fill: #b95a1e"/>
    <path d="M975.57,420.42c-10.59-5.86-25.65-5.31-27.51-3.5a.67.67,0,0,0-.23.51v.11l0,.07c.63.78,3.06,1.22,6.42,1.81,5.28.92,12.5,2.09,18.09,5.34A163.47,163.47,0,0,1,990,437.14l.09.08,3.31-4.32-.18-.16A167.28,167.28,0,0,0,975.57,420.42Zm14.51,16.24a162.79,162.79,0,0,0-17.57-12.32c-5.63-3.28-12.88-4.45-18.17-5.38-3-.52-5.45-1-6.16-1.6l.05-.06c1.56-1.51,16.25-2.53,27.22,3.54A171.2,171.2,0,0,1,992.89,433Q991.5,434.84,990.08,436.66Z"/>
    <path d="M947,438.1c1.53,1.92,14.71.68,23.89,3.38C980.35,444.14,990,450,990,450l3.06-4h0s-5.32-3.32-17.64-8.52S947,436.23,947,438.1Z" style="fill: #b95a1e"/>
    <path d="M975.49,437.29c-11.48-4.82-26.46-1.83-28.43.25a.84.84,0,0,0-.25.56v.1l.06.07c.75.93,3.85,1.15,8.16,1.4,4.85.29,10.88.57,15.8,2,9.37,2.63,19,8.48,19.14,8.53l.09.06c1.1-1.45,2.21-2.89,3.32-4.34l-.22-.14C993.1,445.76,987.68,442.43,975.49,437.29ZM990,449.75c-1-.59-10.2-6-19.12-8.5-4.94-1.46-11-1.75-15.85-2-3.77-.21-7-.44-7.88-1.19l.09-.12c1.74-1.81,16.75-5,28.15-.18a146.89,146.89,0,0,1,17.4,8.38Z"/>
    <path d="M949.45,462.76c1.52,1.91,13.76-8.45,22.94-7.36,9.72,1.1,17.06,7.93,17.06,7.93l3.06-4h0s-6.14-7.11-19.21-8.47S949.45,460.85,949.45,462.76Z" style="fill: #b95a1e"/>
    <path d="M973.32,450.64c-11.57-1.23-20.8,7.21-23.12,10.3a3.69,3.69,0,0,0-.91,1.82v.1l.05.07c.68.84,2.88-.28,6.2-2,4.79-2.48,11.35-6,16.83-5.29,9.57,1.09,16.92,7.82,17,7.9l.1.09,3.29-4.3-.14-.16C992.55,459.06,986.29,452,973.32,450.64Zm16.12,12.41c-.92-.82-8-6.85-17-7.88a12.24,12.24,0,0,0-1.92-.07c-5.11.17-10.78,3.17-15,5.39-2.76,1.44-5.16,2.67-5.82,2.16a4.21,4.21,0,0,1,.79-1.37c2.3-3.06,11.43-11.39,22.88-10.19,11.78,1.24,18,7.19,19,8.27Z"/>
    <path d="M985.7,400.93c0-7.59,4.34-15.44,5.58-19.33-2.47.18-8,11.88-8,19.46,0,8.32,9.27,20.34,9.27,20.32l3.06-4S985.7,408.54,985.7,400.93Z" style="fill: #b95a1e"/>
    <polygon points="995.55 417.37 995.55 417.37 995.55 417.37 995.55 417.37" style="fill: #b95a1e"/>
    <path d="M985.85,400.92c0-5.58,2.38-11.31,4.12-15.51.61-1.45,1.13-2.71,1.45-3.72l.1-.33-.25,0c-1.24.08-3.23,2.85-5.07,7.06a34.18,34.18,0,0,0-3.13,12.63c0,8.32,8.94,20,9.32,20.48l.1.13,3.33-4.36-.18-.15C995.54,417.11,985.85,408.32,985.85,400.92Zm6.65,20.15c-1-1.31-9.11-12.36-9.11-20,0-7.38,5.14-18.24,7.62-19.17-.32.92-.78,2-1.3,3.3-1.76,4.24-4.17,10-4.17,15.75,0,7.17,8.39,15.24,9.76,16.47Z"/>
    <path d="M994.32,400.37c0,8.3-1.82,21-1.82,21l3.06-4h0s1.23-5.79,1.23-17.17a40.88,40.88,0,0,0-7.4-24.17C988.88,379,994.32,389,994.32,400.37Z" style="fill: #b95a1e"/>
    <path d="M989.31,375.59c0,.13,0,.26-.07.4-.21,1.23.48,3.42,1.44,6.45,1.47,4.66,3.49,11,3.49,17.95,0,8.17-1.81,20.83-1.83,20.95l-.09.66,3.41-4.47,0,0v-.06c0-.06,1.24-5.95,1.24-17.25a41.66,41.66,0,0,0-7.44-24.31A2.75,2.75,0,0,0,989.31,375.59Zm7.32,24.62a95,95,0,0,1-1.21,17l-2.68,3.51a182.6,182.6,0,0,0,1.74-20.4c0-7-2-13.43-3.51-18.13a26.05,26.05,0,0,1-1.45-5.69A41.22,41.22,0,0,1,996.63,400.21Z"/>
    <path d="M1027.61,427.48c.17-20.85-8.63-31.17-17.25-30.35-7.4.72-12.33,8.66-12.33,20.05l3.7-.29c0-7.6,3.7-13.58,8.63-14.06,7.39-.72,13.08,7.56,13.55,25.1.53,20.28-1.48,73.34-1.23,87.45a93.57,93.57,0,0,0,7.4,35.14h0c-3.83-12.61-4.93-35.44-4.93-39.23C1025.15,500.6,1027.44,448.33,1027.61,427.48Z" style="fill: #b95a1e"/>
    <path d="M1026.53,478.19c.65-18.42,1.38-39.29,1.48-50.76.08-10.45-2.13-19.24-6.22-24.82-3.17-4.32-7.23-6.46-11.43-6.05-7.61.73-12.72,8.95-12.72,20.65v.58l4.48-.36v-.58c0-7.24,3.54-13,8.24-13.45,7.68-.74,12.72,8.6,13.16,24.6.3,11.5-.22,33.6-.68,53.09-.35,15.15-.66,28.24-.55,34.35a95.19,95.19,0,0,0,7.45,35.42l.7-.61c-3.93-12.92-4.9-36.16-4.9-39C1025.54,506.44,1026,493.35,1026.53,478.19Zm1.57,66a95.55,95.55,0,0,1-5-28.89c-.11-6.08.19-19.15.55-34.28.46-19.52,1-41.64.68-53.18-.46-16.68-5.8-26.4-13.95-25.61-5,.49-8.83,6.46-9,14.09l-2.91.24c.17-10.71,4.92-18.19,11.93-18.87,4-.39,7.84,1.66,10.87,5.77,3.94,5.38,6.07,13.9,6,24-.1,11.45-.83,32.3-1.47,50.7-.54,15.18-1,28.29-1,33.12C1024.75,513.78,1025.46,531,1028.1,544.21Z" style="fill: #fdc301"/>
    <path d="M985.7,399c-8.63.51-17.43,12.21-17.26,33s2.47,72.73,2.47,83.42c0,3.8-1.1,26.8-4.93,40h0a102.91,102.91,0,0,0,7.39-36.3c.25-14.15-1.76-66.9-1.23-87.26.48-17.62,6.16-26.78,13.56-27.21,4.93-.28,8.62,5.14,8.62,12.74l3.7-.28C998,405.79,993.09,398.6,985.7,399Z" style="fill: #b95a1e"/>
    <path d="M985.7,398.45c-4.2.25-8.26,3-11.43,7.83-4.1,6.21-6.31,15.36-6.22,25.79.09,11.46.83,32.22,1.47,50.53.53,15.07,1,28.1,1,32.9,0,2.84-1,26.24-4.89,39.78l.69.5a104.51,104.51,0,0,0,7.46-36.59c.1-6.13-.2-19.17-.56-34.26-.46-19.43-1-41.45-.68-53,.44-16.07,5.48-26.2,13.17-26.64,4.69-.27,8.23,4.94,8.23,12.18v.58l4.48-.33v-.58C998.41,405.45,993.3,398,985.7,398.45Zm9,18.4c-.18-7.6-4-13-9-12.7-8.15.46-13.5,11-14,27.77-.3,11.59.22,33.63.67,53.07.36,15.08.67,28.1.56,34.2a103.6,103.6,0,0,1-5,29.67c2.64-13.59,3.35-31,3.35-33.39,0-4.83-.46-17.87-1-33-.65-18.3-1.38-39-1.47-50.47-.09-10.13,2-19,6-25,3-4.59,6.88-7.23,10.87-7.46,7-.4,11.76,6.36,11.92,17Z" style="fill: #fdc301"/>
    <polygon points="998.03 510.18 998.03 510.18 998.03 510.18 998.03 510.18" style="fill: #b95a1e"/>
    <path d="M998,495v15.18c6.89-.69,7.65-4.44,7.65-4.43s1.53-7.73.77-9.56S998,495,998,495Z" style="fill: #b95a1e"/>
    <path d="M998,494.77h-.15v15.64H998c6.93-.7,7.77-4.46,7.8-4.61.06-.32,1.54-7.85.75-9.74S998.82,494.72,998,494.77Zm7.5,10.93s-.79,3.52-7.34,4.23V495.21c2.21-.14,7.55-.26,8.12,1.11S1006,503.58,1005.53,505.7Z"/>
    <path d="M998,487.4v15.19h0c7.4-.59,8.63-4.53,8.63-4.52s2.46-7.82,1.23-9.6S998,487.42,998,487.4Z" style="fill: #b95a1e"/>
    <path d="M998,487.18h-.15v15.64H998c7.41-.59,8.72-4.51,8.77-4.67.1-.32,2.5-8,1.21-9.85S998.39,487.17,998,487.18Zm8.49,10.8s-1.29,3.76-8.33,4.37V487.62c2.49-.17,8.64-.36,9.59,1S1007.19,495.85,1006.52,498Z"/>
    <path d="M998,479.81V495h0a15.79,15.79,0,0,0,9.86-4.64s2.47-7.82,1.23-9.6S998,479.83,998,479.81Z" style="fill: #b95a1e"/>
    <path d="M998,479.58l-.15,0v15.64l.15,0a16.05,16.05,0,0,0,10-4.68l0-.09c.11-.33,2.5-8,1.21-9.86S998.44,479.58,998,479.58Zm9.74,10.64a15.76,15.76,0,0,1-9.58,4.53V480c2.83-.19,9.87-.47,10.82.9S1008.45,488,1007.77,490.22Z"/>
    <path d="M998,470.32v15.19c11.1-1.05,11.09-5.85,11.09-5.83s2.47-7.83,1.24-9.61S998,470.35,998,470.32Z" style="fill: #b95a1e"/>
    <path d="M998,470.1l-.14,0v15.63l.15,0c10.61-1,11.21-5.45,11.25-6,.21-.69,2.45-8,1.19-9.82S999.16,469.92,998,470.1Zm11,9.49v.1s-.19,4.53-10.78,5.57V470.52c3.17-.52,11.1-1.64,12-.28S1009.65,477.46,1009,479.59Z"/>
    <polygon points="998.03 477.91 998.03 477.91 998.03 477.91 998.03 477.91" style="fill: #b95a1e"/>
    <path d="M998,462.73v15.18c11.1-1,12.33-4.88,12.33-4.86s2.46-7.83,1.23-9.61S998,462.77,998,462.73Z" style="fill: #b95a1e"/>
    <path d="M998,462.5h-.15v15.65l.15,0c11.07-1,12.41-4.87,12.47-5,.1-.32,2.49-8,1.2-9.86S998.54,462.5,998,462.5ZM1010.22,473s-1.39,3.68-12,4.71V463c3.52-.24,12.33-.71,13.28.66S1010.89,470.83,1010.22,473Z"/>
    <path d="M998,453.24v15.19c11.1-1,13.56-5,13.56-5s2.46-7.84,1.23-9.61S998,453.29,998,453.24Z" style="fill: #b95a1e"/>
    <path d="M998,453l-.15,0v15.64l.15,0c11-1,13.57-4.92,13.67-5.06l0-.07c.1-.32,2.5-8,1.21-9.86S999.43,453,998,453Zm13.43,10.3c-.24.32-3,3.89-13.27,4.87V453.46c3.86-.26,13.56-.82,14.52.54S1012.14,461.14,1011.46,463.31Z"/>
    <path d="M998,443.75v15.19c11.1-1,14.79-5.13,14.79-5.11s1.23-7.72,0-9.49S998,443.8,998,443.75Z" style="fill: #b95a1e"/>
    <path d="M998,443.52l-.15,0v15.64l.15,0c11-1,14.73-5,14.88-5.15l.05-.06v-.09c0-.32,1.24-7.85,0-9.69S999.43,443.46,998,443.52Zm14.65,10.18c-.47.45-4.38,4-14.49,5V444c3.86-.26,13.56-.82,14.52.54C1013.8,446.08,1012.82,452.83,1012.68,453.7Z"/>
    <path d="M998,434.26v15.19c11.1-1,14.79-5.13,14.79-5.11s0-7.59-1.23-9.37S998,434.3,998,434.26Z" style="fill: #b95a1e"/>
    <path d="M998,434l-.15,0v15.64l.15,0c11-1,14.73-5,14.88-5.15l.07-.08v-.12c0-.31,0-7.7-1.28-9.52S998.54,434,998,434Zm.16,15.17V434.48c3.52-.24,12.33-.7,13.28.66,1.1,1.57,1.19,8.09,1.19,9.09C1012.11,444.74,1008.18,448.25,998.19,449.2Z"/>
    <path d="M998,424.77V440h0c11.1-1,13.56-5,13.56-5s0-7.59-1.23-9.37S998,424.8,998,424.77Z" style="fill: #b95a1e"/>
    <path d="M998,424.55h-.15V440.2l.15,0c11-1,13.57-4.92,13.67-5.06l0-.07V435c0-.32,0-7.71-1.27-9.53S998.49,424.54,998,424.55Zm.16,15.16V425c3.18-.22,11.1-.59,12,.78,1.1,1.59,1.19,8.21,1.19,9.11C1011.05,435.37,1008.15,438.76,998.19,439.71Z"/>
    <path d="M998,416.15q.06,8.1.11,16.2c-.11,0,8.43-.68,9.75-2.72l2.49-3.81C1010.4,426,1006.67,415.49,998,416.15Z" style="fill: #b95a1e"/>
    <path d="M1010.41,425.46c-1.36-3.12-5.21-10.08-12.38-9.54h-.16l.11,16.4,0,.15.1.07h.09v0l.15,0h0c1.38-.08,8.45-.83,9.7-2.76l2.46-3.76.09-.06-.06-.63Zm-2.63,4c-1.12,1.72-8.22,2.54-9.49,2.63q0-7.87-.1-15.74c7-.42,10.69,6.42,12,9.43h0Z"/>
    <polygon points="998.02 510.18 998.02 510.18 998.02 510.18 998.02 510.18" style="fill: #b95a1e"/>
    <path d="M989.61,497.48c-.77,1.95.76,9.44.76,9.44s.76,3.62,7.65,3.26V495S990.37,495.55,989.61,497.48Z" style="fill: #b95a1e"/>
    <path d="M989.47,497.38c-.79,2,.69,9.31.75,9.62,0,.15.88,3.78,7.8,3.41h.16V494.76H998C997.23,494.84,990.26,495.39,989.47,497.38Zm8.4,12.58c-6.52.29-7.34-3.09-7.35-3.11-.42-2.06-1.38-7.73-.78-9.26s5.91-2.16,8.13-2.35Z"/>
    <path d="M989.39,499.4s1.24,3.74,8.63,3.19h0V487.4s-8.63.63-9.86,2.58S989.39,499.4,989.39,499.4Z" style="fill: #b95a1e"/>
    <path d="M988.05,489.83c-1.29,2.07,1.1,9.36,1.2,9.67,0,.15,1.36,3.87,8.77,3.32l.16,0V487.16l-.16,0C997.67,487.22,989.31,487.83,988.05,489.83Zm9.82,12.54c-7,.47-8.32-3.06-8.34-3.08-.67-2-2.2-7.64-1.25-9.16s7.09-2.27,9.59-2.49Z"/>
    <path d="M988.16,491.88A13.39,13.39,0,0,0,998,495h0V479.81s-9.86.71-11.09,2.65S988.16,491.88,988.16,491.88Z" style="fill: #b95a1e"/>
    <path d="M998,479.59c-.42.05-9.94.73-11.2,2.72s1.1,9.37,1.2,9.68l.05.08a13.67,13.67,0,0,0,9.95,3.15h.16V479.57l-.16,0Zm-.15,15.19a13.47,13.47,0,0,1-9.59-3.06c-.68-2.08-2.18-7.6-1.24-9.11s8-2.31,10.83-2.56Z"/>
    <path d="M985.7,472c-1.24,2,1.23,9.42,1.23,9.42s0,4.78,11.09,4.12V470.32S986.93,470,985.7,472Z" style="fill: #b95a1e"/>
    <path d="M985.58,471.82c-1.25,2,1,9,1.19,9.63,0,.56.64,4.92,11.25,4.29h.16V470.1H998C996.89,470.1,986.83,469.85,985.58,471.82Zm12.29,13.47c-10.59.59-10.78-3.89-10.79-3.91v-.1c-.67-2-2.21-7.64-1.26-9.16.53-.84,3.19-1.24,6-1.42,2.27-.16,4.64-.17,6.06-.15Z"/>
    <polygon points="998.02 477.92 998.02 477.92 998.02 477.92 998.02 477.92" style="fill: #b95a1e"/>
    <path d="M984.46,465.52c-1.23,2,1.24,9.43,1.24,9.42s1.22,3.64,12.32,3V462.73S985.7,463.6,984.46,465.52Z" style="fill: #b95a1e"/>
    <path d="M984.35,465.37c-1.29,2.06,1.1,9.37,1.21,9.68.05.13,1.39,3.76,12.46,3.09h.16V462.49H998C997.52,462.58,985.61,463.39,984.35,465.37Zm13.52,12.33c-10.65.6-12-2.85-12-2.86-.68-2-2.21-7.65-1.26-9.16s9.76-2.41,13.29-2.71Z"/>
    <path d="M984.46,465.53s2.46,3.57,13.56,2.9V453.24c0,.05-13.56.95-14.79,2.86S984.46,465.53,984.46,465.53Z" style="fill: #b95a1e"/>
    <path d="M983.12,456c-1.29,2.06,1.1,9.37,1.2,9.68l0,.06c.1.13,2.63,3.63,13.67,3h.16V453l-.16,0C996.63,453.16,984.36,454,983.12,456Zm14.75,12.26c-10.28.59-13-2.55-13.28-2.83-.68-2.07-2.19-7.62-1.24-9.12s10.65-2.44,14.52-2.78Z"/>
    <path d="M983.23,456.1s3.69,3.51,14.79,2.84V443.75c0,.05-13.56.95-14.79,2.86S983.23,456.1,983.23,456.1Z" style="fill: #b95a1e"/>
    <path d="M983.12,446.46c-1.28,2-.09,9.39,0,9.7v.09l0,.05c.16.12,3.86,3.54,14.88,2.87h.16V443.51l-.16,0C996.63,443.67,984.36,444.52,983.12,446.46Zm14.75,12.26c-10.12.59-14-2.39-14.5-2.77-.13-.85-1.12-7.45,0-9.18,1-1.51,10.65-2.44,14.52-2.78Z"/>
    <path d="M983.23,446.61s3.69,3.51,14.79,2.84V434.26s-12.32.87-13.56,2.8S983.23,446.61,983.23,446.61Z" style="fill: #b95a1e"/>
    <path d="M984.35,436.91c-1.26,2-1.27,9.4-1.27,9.71v.12l.06.07c.16.12,3.86,3.54,14.88,2.87h.16V434l-.16,0C997.52,434.11,985.61,434.93,984.35,436.91Zm13.52,12.32c-10,.58-13.93-2.32-14.48-2.75,0-1,.1-7.53,1.19-9.27,1-1.51,9.76-2.4,13.29-2.71Z"/>
    <path d="M984.46,437.06s2.46,3.57,13.56,2.9h0V424.77s-11.09.79-12.32,2.73S984.46,437.06,984.46,437.06Z" style="fill: #b95a1e"/>
    <path d="M985.58,427.35c-1.26,2-1.27,9.4-1.27,9.72v.09l0,.06c.1.13,2.63,3.63,13.67,3h.16V424.53l-.16,0C997.57,424.61,986.85,425.36,985.58,427.35Zm12.29,12.39c-10,.57-12.87-2.37-13.25-2.79,0-.91.09-7.54,1.19-9.3,1-1.52,8.88-2.36,12.06-2.64Z"/>
    <path d="M985.68,427.72c.82,1.15,1.65,2.29,2.48,3.43,1.32,1.83,9.86,1.23,9.75,1.21l.11-16.21C989.39,416.82,985.65,427.94,985.68,427.72Z" style="fill: #b95a1e"/>
    <path d="M985.65,427.36l-.09-.11-.06.64.09,0,2.46,3.39c1.25,1.73,8.35,1.4,9.71,1.27h.14v0H998l.1-.09,0-.15.11-16.18v-.23H998C990.86,416.48,987,424,985.65,427.36Zm12.11,4.79h-.09c-1.48.12-8.3.34-9.4-1.18l-2.39-3.3v0c1.29-3.2,5-10.62,12-11.27Q997.82,424.28,997.76,432.15Z"/>
  </g>
</svg>
