<svg xmlns="http://www.w3.org/2000/svg" viewBox="0 0 1260 1012.04">
  <g>
    <path d="M0,90.08v920C420,738.76,840,1193.28,1260,922V2C840,273.28,420-181.24,0,90.08Z" style="fill: #002395"/>
    <path d="M512.4,21.55C341.6-10.56,170.8-20.26,0,90.08v377.2c170.8-110.34,341.6-100.64,512.4-68.53Z" style="fill: #fff"/>
    <path d="M168,16.82C112,30.63,56,53.9,0,90.08v368c56-36.18,112-59.45,168-73.26Z" style="fill: #002395"/>
    <path d="M504,388V20C448,9.71,392,2,336,.34v368C392,370,448,377.71,504,388Z" style="fill: #ed2939"/>
    <path d="M835.8,706.73q-14.16-1.79-28.31-3.9,8.19,17.32,16.39,34.54,6,.81,11.92,1.56Z" style="fill: #fff"/>
    <path d="M751.8,693.43v32.2l7.63,1.4q8.21-14.61,16.43-29.3Q763.83,695.66,751.8,693.43Z" style="fill: #fff"/>
    <path d="M775.86,697.73q-8.22,14.68-16.43,29.3c21.48,3.9,43,7.41,64.45,10.34q-8.21-17.22-16.39-34.54Q791.68,700.46,775.86,697.73Z" style="fill: #fff"/>
    <path d="M995.4,712.46q-12,.87-24.06,1.3,8.22,15.81,16.43,31.41c2.54-.15,5.09-.32,7.63-.51Z" style="fill: #fff"/>
    <path d="M911.4,713.38v32.2q6,.27,11.93.45,8.19-15.84,16.37-31.87Q925.56,714,911.4,713.38Z" style="fill: #fff"/>
    <path d="M897.75,723V632.14q17.32,1.08,34.65,1.42,12.87-22.18,25.72-44.81c-20.12.33-40.24-.21-60.37-1.46V558.54a750.38,750.38,0,0,0,76.91,1q13.51-24.12,27-48.81c-85.4,7.06-170.8-3.58-256.2-19.73q13.51,26.14,27,52.07c25.63,4.46,51.27,8.3,76.91,11.21V718.72Q820.58,666,791.7,611.82c-25.9,41.06-51.8,81.41-77.7,121.39q18.9,3.84,37.8,7.37L759.43,727l-7.63-1.4v-32.2q12,2.24,24.06,4.3,7.92-14.16,15.84-28.41,7.9,16.8,15.79,33.51,14.16,2.11,28.31,3.9v32.2q-6-.75-11.92-1.56,24.86,52.26,49.72,103.39Q898.46,794.1,923.33,746q-6-.18-11.93-.45v-32.2q14.16.64,28.3.78,7.9-15.45,15.8-31.07,7.92,15.42,15.84,30.67,12-.43,24.06-1.3v32.2c-2.54.19-5.09.36-7.63.51q3.81,7.25,7.63,14.44,18.9-1.36,37.8-3.92-38.85-62.57-77.7-130.1Q926.63,675.41,897.75,723Z" style="fill: #fff"/>
    <path d="M939.7,714.16q-8.19,16-16.37,31.87c21.48.66,43,.44,64.44-.86q-8.21-15.6-16.43-31.41Q955.53,714.32,939.7,714.16Z" style="fill: #fff"/>
    <path d="M899.52,962.27q-4.95-17-9.9-34-8,5.81-16,11.46Q886.56,951.17,899.52,962.27Z" style="fill: #fff"/>
    <path d="M831.66,901.73q13,12,25.92,23.68l6.12-20Q847.68,903.81,831.66,901.73Z" style="fill: #fff"/>
    <path d="M847.68,957.69q13-8.82,25.92-18-8-7.08-16-14.3Q852.63,941.57,847.68,957.69Z" style="fill: #fff"/>
    <path d="M873.6,873q-5,16.24-9.9,32.44,9.9,1,19.8,1.76Q878.55,890.09,873.6,873Z" style="fill: #fff"/>
    <path d="M883.5,907.16q3.06,10.56,6.12,21.09,13-9.39,25.92-19.17Q899.52,908.44,883.5,907.16Z" style="fill: #fff"/>
    <path d="M863.7,905.4l-6.12,20q8,7.22,16,14.3,8-5.65,16-11.46-3.06-10.53-6.12-21.09Q873.6,906.4,863.7,905.4Z" style="fill: #fff"/>
    <path d="M737.16,808q13,12.82,25.92,25.47l6.12-19.54Q753.18,811.08,737.16,808Z" style="fill: #fff"/>
    <path d="M753.18,865q13-7.92,25.92-16-8-7.72-16-15.54Z" style="fill: #fff"/>
    <path d="M805,873.78q-4.95-17.43-9.9-34.91-8,5.1-16,10.11Q792.06,861.51,805,873.78Z" style="fill: #fff"/>
    <path d="M789,817.26l6.12,21.61q13-8.25,25.92-16.77Q805,819.88,789,817.26Z" style="fill: #fff"/>
    <path d="M779.1,782.24l-9.9,31.66q9.9,1.74,19.8,3.36Z" style="fill: #fff"/>
    <path d="M769.2,813.9l-6.12,19.54q8,7.81,16,15.54,8-5,16-10.11L789,817.26Q779.1,815.64,769.2,813.9Z" style="fill: #fff"/>
    <path d="M926.16,831.24q13,10.66,25.92,20.88l6.12-20.7Q942.18,831.69,926.16,831.24Z" style="fill: #fff"/>
    <path d="M942.18,885.51q13-10.25,25.92-21-8-6.12-16-12.44Q947.13,868.85,942.18,885.51Z" style="fill: #fff"/>
    <path d="M994,883.89q-4.95-16.35-9.9-32.76-8,6.81-16,13.43Q981.06,874.47,994,883.89Z" style="fill: #fff"/>
    <path d="M968.1,797.82q-5,16.83-9.9,33.6,9.9-.17,19.8-.61Q973.05,814.36,968.1,797.82Z" style="fill: #fff"/>
    <path d="M958.2,831.42l-6.12,20.7q8,6.32,16,12.44,8-6.62,16-13.43Q981.06,841,978,830.81,968.1,831.26,958.2,831.42Z" style="fill: #fff"/>
    <path d="M978,830.81q3.06,10.17,6.12,20.32,13-11,25.92-22.58Q994,830.1,978,830.81Z" style="fill: #fff"/>
    <path d="M673.38,616.6q13-7.54,25.92-15.16-8-8-16-16.11Z" style="fill: #fff"/>
    <path d="M657.36,559.15q13,13.11,25.92,26.18L689.4,566Q673.38,562.63,657.36,559.15Z" style="fill: #fff"/>
    <path d="M725.22,627.34,715.32,592q-8,4.75-16,9.46Q712.26,614.44,725.22,627.34Z" style="fill: #fff"/>
    <path d="M699.3,534.69,689.4,566q9.9,2.09,19.8,4.11Q704.25,552.41,699.3,534.69Z" style="fill: #fff"/>
    <path d="M689.4,566l-6.12,19.33q8,8.07,16,16.11,8-4.71,16-9.46l-6.12-21.87Q699.3,568.09,689.4,566Z" style="fill: #fff"/>
    <path d="M709.2,570.11,715.32,592q13-7.69,25.92-15.52Q725.22,573.4,709.2,570.11Z" style="fill: #fff"/>
    <path d="M1022,649q13-11.82,25.92-24.23-8-5.07-16-10.38Q1026.93,631.73,1022,649Z" style="fill: #fff"/>
    <path d="M1006,596.63q13,9.15,25.92,17.74,3.06-10.73,6.12-21.47Q1022,595.21,1006,596.63Z" style="fill: #fff"/>
    <path d="M1073.82,640.55q-5-15.64-9.9-31.38-8,7.92-16,15.58Q1060.86,633,1073.82,640.55Z" style="fill: #fff"/>
    <path d="M1047.9,558q-5,17.49-9.9,34.9,9.9-1.44,19.8-3.22Q1052.85,573.89,1047.9,558Z" style="fill: #fff"/>
    <path d="M1057.8,589.68q3.06,9.77,6.12,19.49,13-12.79,25.92-26.24Q1073.82,586.8,1057.8,589.68Z" style="fill: #fff"/>
    <path d="M1038,592.9q-3.06,10.76-6.12,21.47,8,5.31,16,10.38,8-7.66,16-15.58-3.06-9.72-6.12-19.49Q1047.9,591.47,1038,592.9Z" style="fill: #fff"/>
  </g>
</svg>
