<svg xmlns="http://www.w3.org/2000/svg" viewBox="0 0 1260 1012.04">
  <g>
    <path d="M0,90.08v920C420,738.76,840,1193.28,1260,922V2C840,273.28,420-181.24,0,90.08Z" style="fill: #006a4e"/>
    <path d="M0,458.08C420,186.76,840,641.28,1260,370V186C840,457.28,420,2.76,0,274.08Z" style="fill: #ffce00"/>
    <path d="M0,826.08C420,554.76,840,1009.28,1260,738V554C840,825.28,420,370.76,0,642.08Z" style="fill: #ffce00"/>
    <path d="M467.24,13.65C311.5-11.33,155.75-10.54,0,90.08v552c155.75-100.62,311.5-101.41,467.24-76.43Z" style="fill: #d21034"/>
    <path d="M187.9,279.75A619.68,619.68,0,0,1,262,297.8Q247.8,201.56,233.62,106,210.76,191.93,187.9,279.75Z" style="fill: #fff"/>
    <path d="M205.28,304.86a822.62,822.62,0,0,1,74.06-36.58q-22.86-82-45.72-162.32Q219.46,205.07,205.28,304.86Z" style="fill: #fff"/>
    <path d="M226.38,319.69a1174.16,1174.16,0,0,1,148-95.32c-49.32-3.74-98.64-3.41-148,3.32Z" style="fill: #fff"/>
    <path d="M254.64,327.26c39.9-37.78,79.8-71.66,119.7-102.89C319.18,229.63,264,240,208.86,258.67Q231.75,292,254.64,327.26Z" style="fill: #fff"/>
    <path d="M200.81,289.39c39.92,38.63,79.85,81.74,119.78,128.06q-22.86-83.34-45.72-165.21A819.62,819.62,0,0,0,200.81,289.39Z" style="fill: #fff"/>
    <path d="M200.89,324.44c39.9,27,79.8,58.38,119.7,93q-37-88.95-73.93-173.91Q223.77,283.08,200.89,324.44Z" style="fill: #fff"/>
    <path d="M146.65,440A1610,1610,0,0,1,266.36,316.28q-22.89-35.62-45.78-69.51Q183.62,340.79,146.65,440Z" style="fill: #fff"/>
    <path d="M146.65,440c39.93-57.54,79.86-110,119.79-158.77a631.4,631.4,0,0,0-74.06-18.63Q169.51,350.23,146.65,440Z" style="fill: #fff"/>
    <path d="M212.61,332.49q22.88-40.9,45.77-80c-55.16-4.88-110.32-2.38-165.48,10.79C132.8,281.19,172.7,304.67,212.61,332.49Z" style="fill: #fff"/>
    <path d="M240.86,317.9v-92a546.52,546.52,0,0,0-148,37.4C142.22,273.75,191.54,292.73,240.86,317.9Z" style="fill: #fff"/>
  </g>
</svg>
