<svg xmlns="http://www.w3.org/2000/svg" viewBox="0 0 1260 1012.04">
  <g>
    <path d="M0,90.08v920C420,738.76,840,1193.28,1260,922V2C840,273.28,420-181.24,0,90.08Z" style="fill: #060"/>
    <path d="M0,90.08V747.22C420,475.9,840,930.43,1260,659.11V2C840,273.28,420-181.24,0,90.08Z" style="fill: #fff"/>
    <path d="M0,90.08V352.93c420-271.31,840,183.21,1260-88.1V2C840,273.28,420-181.24,0,90.08Z" style="fill: #c00"/>
    <path d="M638.36,446.62c-13.92-9.78-28.94-2-33.56,17.28a55.82,55.82,0,0,0,0,24.41c3.12-7.16,10-8.33,15.38-2.6,3.36,3.59,5.47,9.23,5.59,14.92v65.72l8.46,1.84V502.48c.19-9,5.38-15,11.59-13.4,3.88,1,7.43,4.88,9.38,10.2C659.82,480,652.28,456.39,638.36,446.62Z" style="fill: #f8c300"/>
    <path d="M627.37,451.92c-8.6-.15-15.36,8.25-16.54,20.55,7.57-.61,15.29,6.12,19.17,16.73,3.88-8.91,11.6-12.28,19.17-8.38C647.72,465.05,638,452.11,627.37,451.92Z" style="fill: #fff"/>
    <path d="M588.65,577.32c-7.61-2.62-14.77-8.83-20.34-17.63-7.27,25.11-27.94,33.8-46.18,19.68a46.24,46.24,0,0,1-7.58-7.5c3.28,48.33,52.43,48.47,56.09,2.82,15.44,42.8,49.38,38.85,59.32-7.46q-2.1-13.56-4.19-27.14C624.08,567.2,607.46,583.83,588.65,577.32Z" style="fill: #f8c300"/>
    <path d="M691.69,586.26c-5.57,6.46-12.73,9.63-20.34,9-18.81-1.57-35.43-25.48-37.12-53.32q-2.1,12.66-4.19,25.31c9.94,50.66,43.88,69.39,59.32,33,3.66,47.45,52.81,67.13,56.09,19.72a26.5,26.5,0,0,1-7.58,4.61C719.63,631.72,699,614.43,691.69,586.26Z" style="fill: #f8c300"/>
    <path d="M582.26,614c-1-7-5.13-13.77-8.06-17.31-2.8,3.9-4.78,11.8-3.81,18-5.16.28-10,4.26-10,4.26,12,19.93,25.69,19.14,32.55-1C593,618,589.48,614.19,582.26,614Z" style="fill: #f8c300"/>
    <polygon points="592.96 617.99 592.96 617.99 592.96 617.99 592.96 617.99" style="fill: #f8c300"/>
    <polygon points="646.6 627.2 646.6 627.2 646.59 627.2 646.6 627.2" style="fill: #f8c300"/>
    <path d="M630,602.07c-3.26,3.06-6.14,10.16-5.86,16.39-5.24-1-10.55,1.58-10.55,1.59,9.89,22.21,23.82,24.85,33,7.15,0,0-3.08-4.51-10.36-6.46C636,613.71,632.58,606.21,630,602.07Z" style="fill: #f8c300"/>
    <polygon points="699.79 648.9 699.79 648.89 699.79 648.9 699.79 648.9" style="fill: #f8c300"/>
    <path d="M690,640.25c.52-6.84-2.07-14.86-4.2-19.45-3.64,2.18-7.34,8.33-7.75,14.39a20.07,20.07,0,0,0-10.85-1c7.52,23.76,21.31,29.62,32.56,14.7C699.79,648.89,697.17,643.84,690,640.25Z" style="fill: #f8c300"/>
    <path d="M540.65,645.2q2.05,10.5,4.1,21c55.77-13,114.73.78,170.5,36.29q2.06-9.66,4.1-19.33C660.9,646,599.1,631.51,540.65,645.2Z" style="fill: #f8c300"/>
    <path d="M616.77,385.15,630,374l-8.17-10.45Q619.29,374.35,616.77,385.15Z" style="fill: #f8c300"/>
    <path d="M643.23,390.92q-2.54-11.91-5.06-23.81L630,374Z" style="fill: #f8c300"/>
    <path d="M608.6,346.64l13.23,16.91L625,350.2Z" style="fill: #f8c300"/>
    <path d="M625,350.2l-3.12,13.35L630,374l8.17-6.89-3.12-14.71Z" style="fill: #f8c300"/>
    <path d="M630,328.59q-2.52,10.8-5,21.61l10.1,2.2Q632.53,340.49,630,328.59Z" style="fill: #f8c300"/>
    <path d="M635.05,352.4l3.12,14.71L651.4,356Z" style="fill: #f8c300"/>
    <path d="M545.6,358l13.23,16.74L562,361.33Q553.78,359.64,545.6,358Z" style="fill: #f8c300"/>
    <path d="M553.77,396.38,567,385.09l-8.17-10.37Q556.29,385.55,553.77,396.38Z" style="fill: #f8c300"/>
    <path d="M580.23,401.92q-2.54-11.9-5.06-23.78L567,385.09Q573.62,393.49,580.23,401.92Z" style="fill: #f8c300"/>
    <path d="M567,339.69q-2.52,10.81-5,21.64l10.1,2.12Q569.53,351.57,567,339.69Z" style="fill: #f8c300"/>
    <path d="M562,361.33l-3.12,13.39L567,385.09l8.17-6.95-3.12-14.69Z" style="fill: #f8c300"/>
    <path d="M572.05,363.45l3.12,14.69,13.23-11.21Q580.23,365.17,572.05,363.45Z" style="fill: #f8c300"/>
    <path d="M507.66,454.68q6.6-5.79,13.22-11.54l-8.17-10.22Q510.17,443.8,507.66,454.68Z" style="fill: #f8c300"/>
    <path d="M499.48,416.44q6.61,8.22,13.23,16.48l3.12-13.44Q507.66,417.92,499.48,416.44Z" style="fill: #f8c300"/>
    <path d="M534.11,459.76q-2.54-11.85-5.06-23.7l-8.17,7.08Q527.49,451.44,534.11,459.76Z" style="fill: #f8c300"/>
    <path d="M525.93,421.42l3.12,14.64q6.62-5.73,13.23-11.41Q534.11,423,525.93,421.42Z" style="fill: #f8c300"/>
    <path d="M515.83,419.48l-3.12,13.44,8.17,10.22,8.17-7.08-3.12-14.64Q520.88,420.43,515.83,419.48Z" style="fill: #f8c300"/>
    <path d="M520.88,397.74q-2.52,10.86-5,21.74,5.05.94,10.1,1.94Q523.41,409.57,520.88,397.74Z" style="fill: #f8c300"/>
    <path d="M482.6,505.47q6.61,8.14,13.23,16.35L499,508.35Q490.78,506.87,482.6,505.47Z" style="fill: #f8c300"/>
    <path d="M509.05,510.2l3.12,14.62q6.62-5.77,13.23-11.51Q517.23,511.74,509.05,510.2Z" style="fill: #f8c300"/>
    <path d="M517.23,548.48q-2.54-11.84-5.06-23.66L504,532Q510.62,540.21,517.23,548.48Z" style="fill: #f8c300"/>
    <path d="M490.77,543.63Q497.39,537.77,504,532q-4.08-5.09-8.17-10.15Q493.29,532.71,490.77,543.63Z" style="fill: #f8c300"/>
    <path d="M504,486.56q-2.52,10.89-5.05,21.79c3.37.61,6.73,1.22,10.1,1.85Q506.53,498.38,504,486.56Z" style="fill: #f8c300"/>
    <path d="M499,508.35l-3.12,13.47q4.08,5.07,8.17,10.15l8.17-7.15-3.12-14.62C505.68,509.57,502.32,509,499,508.35Z" style="fill: #f8c300"/>
    <path d="M706.23,429q-2.54-11.88-5.06-23.75l-8.17,7Z" style="fill: #f8c300"/>
    <path d="M671.6,385l13.23,16.85L688,388.45Z" style="fill: #f8c300"/>
    <path d="M679.77,423.45q6.62-5.61,13.23-11.24-4.08-5.19-8.17-10.39Q682.3,412.64,679.77,423.45Z" style="fill: #f8c300"/>
    <path d="M698.05,390.56l3.12,14.68q6.62-5.64,13.23-11.32Q706.23,392.27,698.05,390.56Z" style="fill: #f8c300"/>
    <path d="M688,388.45l-3.12,13.37q4.08,5.21,8.17,10.39l8.17-7-3.12-14.68Z" style="fill: #f8c300"/>
    <path d="M693,366.8q-2.52,10.83-5,21.65l10.1,2.11Q695.53,378.68,693,366.8Z" style="fill: #f8c300"/>
    <path d="M717.72,461.94q6.62,8.34,13.23,16.66l3.12-13.42Q725.9,463.59,717.72,461.94Z" style="fill: #f8c300"/>
    <path d="M752.34,505.39q-2.52-11.82-5.05-23.65l-8.17,7.12Z" style="fill: #f8c300"/>
    <path d="M725.89,500.31q6.61-5.71,13.23-11.45L731,478.6Q728.42,489.46,725.89,500.31Z" style="fill: #f8c300"/>
    <path d="M739.12,443.45q-2.52,10.86-5,21.73l10.1,1.94Q741.65,455.29,739.12,443.45Z" style="fill: #f8c300"/>
    <path d="M734.07,465.18,731,478.6l8.17,10.26,8.17-7.12-3.12-14.62Z" style="fill: #f8c300"/>
    <path d="M744.17,467.12l3.12,14.62q6.62-5.78,13.23-11.59Q752.35,468.67,744.17,467.12Z" style="fill: #f8c300"/>
    <path d="M742.77,595.59Q749.39,589.83,756,584l-8.17-10.19Q745.3,584.72,742.77,595.59Z" style="fill: #f8c300"/>
    <path d="M734.6,557.28q6.61,8.29,13.23,16.56L751,560.39Q742.78,558.88,734.6,557.28Z" style="fill: #f8c300"/>
    <path d="M769.23,600.44q-2.54-11.79-5.06-23.6L756,584Q762.62,592.27,769.23,600.44Z" style="fill: #f8c300"/>
    <path d="M761.05,562.25l3.12,14.59q6.62-5.83,13.23-11.72Q769.23,563.73,761.05,562.25Z" style="fill: #f8c300"/>
    <path d="M751,560.39l-3.12,13.45L756,584l8.17-7.19-3.12-14.59C757.68,561.64,754.32,561,751,560.39Z" style="fill: #f8c300"/>
    <path d="M756,538.62q-2.52,10.89-5,21.77c3.37.63,6.73,1.25,10.1,1.86Q758.53,550.43,756,538.62Z" style="fill: #f8c300"/>
  </g>
</svg>
