<svg xmlns="http://www.w3.org/2000/svg" viewBox="0 0 1260 1012.04">
  <g>
    <path d="M0,90.08v920C420,738.76,840,1193.28,1260,922V2C840,273.28,420-181.24,0,90.08Z" style="fill: #00247d"/>
    <path d="M977.18,199.54c3.76-9.11,32.68-39.48,23.2-34.17C955,192.6,855.22,269.3,748.85,342.62c-106.38,74.66-219.32,157.14-291,232.47-54.65,56-114.62,109.79-159.36,152.53-44.74,42.2-74.25,73.38-68,72.07h0c316.7-37.07,633.4,187.52,950.1,51.39v-9.2c-67.47,23.34-65.6,17.59-102-13.38-60.51-65.79-110.09-184.78-132.44-304C923.88,404.48,928.76,284.24,977.18,199.54Z" style="fill: #fed100"/>
    <polygon points="222.69 819.22 222.69 819.22 222.69 819.22 222.69 819.22" style="fill: #fed100"/>
    <path d="M222.69,819.22s-9.22,11-9.19,18.16c0,7.92,10.34,16.87,10.34,16.9,312.37-39,624.74,180.79,937.12,62.23q8.61-11.79,17.22-23.93-12-5.64-24.11-12C843.61,994.62,533.15,778.71,222.69,819.22Z" style="fill: #fed100"/>
    <path d="M240.07,127.14q15.75-13.27,31.5-25.74-15.75,1-31.5,2.74Z" style="fill: #fff"/>
    <path d="M246.09,130.53q12.74-14.84,25.48-29.13-17.37,5.28-34.74,11.54Q241.45,121.7,246.09,130.53Z" style="fill: #fff"/>
    <path d="M234.82,122.19q12.36,16.81,24.72,34.14-4.87-21.48-9.74-42.88Q242.32,117.73,234.82,122.19Z" style="fill: #fff"/>
    <path d="M234.05,131.89q12.75,11.94,25.49,24.44-8.12-22.17-16.23-44.12Q238.69,122,234.05,131.89Z" style="fill: #fff"/>
    <path d="M220.6,160.74q12.75-15.39,25.49-30.21-4.64-8.84-9.26-17.59Q228.71,136.73,220.6,160.74Z" style="fill: #fff"/>
    <path d="M220.6,160.74Q233,140.61,245.31,121q-7.49-2.77-15-5.35Q225.47,138.15,220.6,160.74Z" style="fill: #fff"/>
    <path d="M234.05,131.89q4.63-9.88,9.26-19.68-17.37-2.34-34.74-3.65Q221.31,119.93,234.05,131.89Z" style="fill: #fff"/>
    <path d="M240.07,127.14v-23q-15.75,1.77-31.5,4.42Q224.32,117.41,240.07,127.14Z" style="fill: #fff"/>
    <path d="M230.34,115.65q7.49,2.58,15,5.35-2.61-25.15-5.24-50.28Q235.2,93.15,230.34,115.65Z" style="fill: #fff"/>
    <path d="M234.82,122.19q7.5-4.47,15-8.74-4.86-21.4-9.73-42.73Q237.45,96.45,234.82,122.19Z" style="fill: #fff"/>
    <path d="M364.84,281.91q13.13-8.73,26.25-17.08-13.12-1.23-26.25-2.09Z" style="fill: #fff"/>
    <path d="M369.86,285.61q10.62-10.51,21.23-20.78-14.47,2.16-28.95,4.76Z" style="fill: #fff"/>
    <path d="M360.47,277q10.3,15.88,20.6,32Q377,290.44,373,271.91,366.71,274.41,360.47,277Z" style="fill: #fff"/>
    <path d="M359.83,285q10.62,11.9,21.24,24.05-6.76-19.59-13.53-39.07Q363.69,277.44,359.83,285Z" style="fill: #fff"/>
    <path d="M348.62,306.9q10.62-10.77,21.24-21.29-3.86-8-7.72-16Q355.38,288.19,348.62,306.9Z" style="fill: #fff"/>
    <path d="M348.62,306.9q10.29-14.79,20.59-29.34-6.24-3.39-12.48-6.7Q352.68,288.86,348.62,306.9Z" style="fill: #fff"/>
    <path d="M359.83,285q3.85-7.53,7.71-15-14.48-4.49-29-8.5Q349.21,273.07,359.83,285Z" style="fill: #fff"/>
    <path d="M364.84,281.91V262.74q-13.12-.86-26.25-1.3Q351.72,271.46,364.84,281.91Z" style="fill: #fff"/>
    <path d="M356.73,270.86q6.24,3.3,12.48,6.7-2.18-21.35-4.37-42.67Z" style="fill: #fff"/>
    <path d="M360.47,277q6.24-2.58,12.48-5.08-4.05-18.53-8.11-37Q362.67,255.94,360.47,277Z" style="fill: #fff"/>
    <path d="M94.5,377.68Q110.25,359.79,126,343q-15.75,5.26-31.5,11.66Z" style="fill: #fff"/>
    <path d="M100.52,379.31Q113.26,360.8,126,343q-17.37,10-34.74,21.42Q95.88,371.82,100.52,379.31Z" style="fill: #fff"/>
    <path d="M89.26,374.28q12.34,13.14,24.71,27-4.87-20.11-9.74-40.12Q96.74,367.6,89.26,374.28Z" style="fill: #fff"/>
    <path d="M88.48,384.2q12.75,8.16,25.49,17.08-8.11-19.89-16.23-39.48Q93.12,373,88.48,384.2Z" style="fill: #fff"/>
    <path d="M75,417.11q12.75-19.29,25.49-37.8-4.63-7.49-9.26-14.87Q83.14,390.62,75,417.11Z" style="fill: #fff"/>
    <path d="M75,417.11Q87.39,393.2,99.75,370q-7.5-.6-15-.94Q79.9,393,75,417.11Z" style="fill: #fff"/>
    <path d="M88.48,384.2q4.63-11.25,9.26-22.4Q80.37,364.52,63,368.65,75.73,376,88.48,384.2Z" style="fill: #fff"/>
    <path d="M94.5,377.68v-23q-15.75,6.39-31.5,14Q78.75,372.57,94.5,377.68Z" style="fill: #fff"/>
    <path d="M84.77,369.07q7.49.35,15,.94-2.61-24.39-5.24-48.75Q89.64,345.11,84.77,369.07Z" style="fill: #fff"/>
    <path d="M89.25,374.28q7.5-6.69,15-13.12-4.86-20-9.73-39.9Q91.88,347.75,89.25,374.28Z" style="fill: #fff"/>
    <path d="M240.07,680.48q18.38-15.5,36.75-29.87-18.37,1-36.75,3Z" style="fill: #fff"/>
    <path d="M247.09,684.44q14.86-17.28,29.73-33.83-20.26,6-40.53,13.31Q241.69,674.14,247.09,684.44Z" style="fill: #fff"/>
    <path d="M234,674.71q14.42,19.59,28.83,39.89-5.67-25.1-11.35-50.08Q242.69,669.49,234,674.71Z" style="fill: #fff"/>
    <path d="M233.05,686q14.87,13.9,29.73,28.57-9.46-25.9-18.93-51.53Q238.45,674.5,233.05,686Z" style="fill: #fff"/>
    <path d="M217.36,719.75q14.87-18,29.73-35.31-5.4-10.31-10.8-20.52Q226.83,691.69,217.36,719.75Z" style="fill: #fff"/>
    <path d="M217.36,719.75q14.41-23.58,28.83-46.42-8.74-3.26-17.48-6.24Q223,693.36,217.36,719.75Z" style="fill: #fff"/>
    <path d="M233.05,686q5.4-11.53,10.8-23-20.26-2.76-40.53-4.09Q218.19,672.11,233.05,686Z" style="fill: #fff"/>
    <path d="M240.07,680.48V653.65q-18.37,2.07-36.75,5.33Q221.7,669.12,240.07,680.48Z" style="fill: #fff"/>
    <path d="M228.71,667.09q8.74,3,17.48,6.24-3.06-29.36-6.12-58.67Q234.39,640.82,228.71,667.09Z" style="fill: #fff"/>
    <path d="M234,674.71q8.75-5.22,17.48-10.19-5.69-25-11.36-49.86Q237,644.66,234,674.71Z" style="fill: #fff"/>
  </g>
</svg>
