<svg xmlns="http://www.w3.org/2000/svg" viewBox="0 0 1260 1012.04">
  <g>
    <path d="M0,90.08v920C420,738.76,840,1193.28,1260,922V2C840,273.28,420-181.24,0,90.08Z" style="fill: #dc241f"/>
    <path d="M0,90.08v920C210,721.08,420,613.55,630,506,420,306.89,210,107.75,0,90.08Z" style="fill: #ffc726"/>
    <path d="M0,90.08v920C140,766.3,280,603.18,420,466.94,280,296.51,140,153,0,90.08Z"/>
    <path d="M124.61,504.67q26-14.48,51.92-26.1-34.17-66-68.34-127.25Q116.41,427.84,124.61,504.67Z" style="fill: #fff"/>
    <path d="M148.16,506.62q18.69-32.28,37.4-63.12c-25.79-32.77-51.58-63.61-77.37-92.18Q128.17,428.08,148.16,506.62Z" style="fill: #fff"/>
    <path d="M160.92,506.21q37.56-80.08,75.13-154.72a1344,1344,0,0,0-98.61,92.85Q149.17,475,160.92,506.21Z" style="fill: #fff"/>
    <path d="M185.25,502.78q25.4-76.84,50.8-151.29c-32.47,39.75-64.93,82.2-97.39,128Q162,490,185.25,502.78Z" style="fill: #fff"/>
    <path d="M157.24,530q4.31-39,8.6-77.86A922,922,0,0,0,48.48,545.88,451.4,451.4,0,0,1,157.24,530Z" style="fill: #fff"/>
    <path d="M48.48,545.88a554.37,554.37,0,0,1,122.09-49.14q-11.74-31.46-23.48-62.34A1483.73,1483.73,0,0,0,48.48,545.88Z" style="fill: #fff"/>
    <path d="M140.58,497.62c38.26,8.7,76.51,22.08,114.77,39-25.79-36-51.58-70.33-77.36-102.72Q159.29,465.07,140.58,497.62Z" style="fill: #fff"/>
    <path d="M146.59,530.35c36.25-1.74,72.51.67,108.76,6.3C222,505.56,188.58,477.2,155.2,452.3Q150.9,491.29,146.59,530.35Z" style="fill: #fff"/>
    <path d="M139.43,643.53q25.4-79.21,50.79-155.77Q166.93,474.83,143.63,464,141.53,553.77,139.43,643.53Z" style="fill: #fff"/>
    <path d="M139.43,643.53q17.74-90.75,35.49-180.17Q149,475.11,123,489.63,131.21,566.43,139.43,643.53Z" style="fill: #fff"/>
  </g>
</svg>
