<svg xmlns="http://www.w3.org/2000/svg" viewBox="0 0 1260 1012.04">
  <g>
    <path d="M0,90.08v920C420,738.76,840,1193.28,1260,922V2C840,273.28,420-181.24,0,90.08Z" style="fill: #e70013"/>
    <path d="M630,276c-116-26.88-210,63.13-210,190.92C420,593.2,514,709.14,630,736S840,672.89,840,545.1C840,418.84,746,302.9,630,276Z" style="fill: #fff"/>
    <path d="M546,488.13c0-76.4,56.41-126.23,126-111,31.52,6.84,61.87,26,85.06,53.54-29.59-49.79-76.8-86-127.06-97.15-87-19.64-157.5,45.39-157.5,141,0,94.94,70.51,184.37,157.5,204,50.26,11,97.47-5.49,127.07-44.67-23.2,19.14-53.55,26-85.07,19.28C602.41,637.9,546,564.16,546,488.13Z" style="fill: #e70013"/>
    <path d="M748.45,591.49q-20.18-34.2-40.35-68.78-12.48,16.24-25,32.39C704.92,567.46,726.69,579.66,748.45,591.49Z" style="fill: #e70013"/>
    <path d="M577.5,494.68C599.27,507,621,519.56,642.8,532.05V485.57C621,488.58,599.27,491.55,577.5,494.68Z" style="fill: #e70013"/>
    <path d="M642.8,607.25q20.18-26,40.35-52.15Q663,543.66,642.8,532.05Z" style="fill: #e70013"/>
    <path d="M642.8,410.38v75.19q20.18-2.77,40.35-5.66Q663,445.21,642.8,410.38Z" style="fill: #e70013"/>
    <path d="M683.15,479.91q12.48,21.43,25,42.8,20.17-26.28,40.35-52.9C726.69,473.48,704.92,476.77,683.15,479.91Z" style="fill: #e70013"/>
    <path d="M642.8,485.57v46.48Q663,543.63,683.15,555.1q12.48-16.15,25-32.39-12.48-21.36-25-42.8Q663,482.8,642.8,485.57Z" style="fill: #e70013"/>
  </g>
</svg>
