<svg xmlns="http://www.w3.org/2000/svg" viewBox="0 0 1260 1012.04">
  <g>
    <path d="M0,90.08v920C420,738.76,840,1193.28,1260,922V2C840,273.28,420-181.24,0,90.08Z" style="fill: #c10000"/>
    <path d="M525,24C350-10,175-23,0,90.08v460C175,437,350,450,525,484Z" style="fill: #fff"/>
    <path d="M223.12,408.66a632.78,632.78,0,0,1,78.76-6.07v-345a632.78,632.78,0,0,0-78.76,6.07Z" style="fill: #c10000"/>
    <path d="M144.38,310.72c78.74-23.26,157.5-26.85,236.25-20.33v-115c-78.75-6.52-157.51-2.93-236.25,20.33Z" style="fill: #c10000"/>
  </g>
</svg>
