<svg xmlns="http://www.w3.org/2000/svg" viewBox="0 0 1260 1012.04">
  <g>
    <path d="M0,90.08v920C420,738.76,840,1193.28,1260,922V2C840,273.28,420-181.24,0,90.08Z" style="fill: #e30a17"/>
    <path d="M446.25,240.45c-116-18.65-210,96.51-210,224,0,126.56,94,217.35,210,236,116,18.06,210-60.62,210-188.72C656.25,385.78,562.23,258.51,446.25,240.45Z" style="fill: #fff"/>
    <path d="M498.75,295c-92.78-17.71-168,63.29-168,165.16,0,101.37,75.22,185.13,168,202.84,92.78,17.43,168-46.89,168-149C666.75,412.91,591.53,312.47,498.75,295Z" style="fill: #e30a17"/>
    <path d="M685.05,627.28q22.43-29.06,44.84-58.42-22.41-12.37-44.84-25.13Z" style="fill: #fff"/>
    <path d="M802.45,607.51Q780,570.26,757.61,532.35q-13.86,18.35-27.72,36.51C754.08,582.22,778.26,595.19,802.45,607.51Z" style="fill: #fff"/>
    <path d="M612.5,502.21c24.18,13.86,48.37,27.8,72.55,41.52V492.09C660.87,495.58,636.68,498.86,612.5,502.21Z" style="fill: #fff"/>
    <path d="M685.05,408.54v83.55q22.43-3.24,44.84-6.78Q707.48,447.1,685.05,408.54Z" style="fill: #fff"/>
    <path d="M729.89,485.31q13.86,23.61,27.72,47,22.41-29.72,44.84-60C778.26,477.21,754.08,481.45,729.89,485.31Z" style="fill: #fff"/>
    <path d="M685.05,492.09v51.64q22.43,12.72,44.84,25.13,13.86-18.17,27.72-36.51-13.86-23.43-27.72-47Q707.48,488.88,685.05,492.09Z" style="fill: #fff"/>
  </g>
</svg>
