<svg xmlns="http://www.w3.org/2000/svg" viewBox="0 0 1260 1012.04">
  <g>
    <path d="M0,90.08v920C420,738.76,840,1193.28,1260,922V2C840,273.28,420-181.24,0,90.08Z" style="fill: #da1a35"/>
    <path d="M0,90.08c291.55,118.33,583.09,586.41,874.64,918.67C1003.09,1020,1131.55,1005,1260,922,968.45,803.64,676.91,335.56,385.36,3.29,256.91-8,128.45,7.1,0,90.08Z" style="fill: #fff"/>
    <path d="M1195.77,958C904.23,790.91,612.68,309.74,321.13,0c-85.63-.89-171.27,13-256.9,54C355.77,221.13,647.32,702.3,938.87,1012,1024.5,1012.9,1110.14,999,1195.77,958Z"/>
  </g>
</svg>
