<svg xmlns="http://www.w3.org/2000/svg" xmlns:xlink="http://www.w3.org/1999/xlink" viewBox="0 0 1260 1012.04">
  <defs>
    <clipPath id="a">
      <path d="M0,90.08v230c245-158.27,490-69.55,735-22v230c-35-6.79-70-14.42-105-22.06C420,306.89,210,107.75,0,90.08Zm0,460V703.41c105-67.83,210-90.29,315-90.08V0C420,.22,525,23.12,630,46,420,153.55,210,261.09,0,550.08Z" style="fill: none"/>
    </clipPath>
  </defs>
  <g>
    <path d="M0,90.08v920C420,738.76,840,1193.28,1260,922V2C840,273.28,420-181.24,0,90.08Z" style="fill: #00247d"/>
    <path d="M0,90.08C210,107.75,420,306.89,630,506M0,550.08C210,261.09,420,153.55,630,46"/>
    <path d="M315,281.43C415.3,354.88,515.61,449,615.91,544.09L644.09,468C557.87,386.23,471.65,303.83,385.44,233.3c86.21-55.38,172.43-98.88,258.65-143.06Q637,68.13,630,46c-23.48-5.12-47-10.24-70.44-15.11C478,73.54,396.52,119.22,315,178.57,233.48,118.88,152,72.86,70.44,51.13A575.74,575.74,0,0,0,0,90.08v51.43c81.52,6.86,163,41.06,244.56,92C163,301.62,81.52,386.46,0,498.65v51.43q7.05,16,14.09,32.31C114.39,448.19,214.7,354.46,315,281.43Z" style="fill: #fff"/>
    <g style="clip-path: url(#a)">
      <path d="M0,90.08C210,107.75,420,306.89,630,506M0,550.08C210,261.09,420,153.55,630,46"/>
      <path d="M315,264.29C416.87,338.88,518.74,434.82,620.61,531.4l18.78-50.76C546.91,393,454.44,304.76,362,231.54c92.48-61.82,185-108.67,277.43-156L630,46c-15.65-3.41-31.31-6.83-47-10.16C493.69,82,404.35,130.66,315,195.71c-89.35-65.42-178.69-114.42-268-133Q23.49,74.94,0,90.08v34.28c89.35,7.52,178.7,47.89,268,107.13C178.7,302.73,89.35,392.83,0,515.79v34.29q4.7,10.68,9.39,21.48C111.26,434,213.13,338.46,315,264.29Z" style="fill: #cf142b"/>
    </g>
    <path d="M315,0V613.33M0,320.08c245-158.27,490-69.55,735-22"/>
    <path d="M367.5,1.9a728.67,728.67,0,0,0-105,0h0a728.67,728.67,0,0,1,105,0Z" style="fill: #fff"/>
    <path d="M262.5,615.22a730.11,730.11,0,0,1,105,0V308.56C490,316.9,612.5,351,735,374.75V221.42c-122.5-23.78-245-57.85-367.5-66.19V1.9a728.67,728.67,0,0,0-105,0V155.22C175,161.86,87.5,186.88,0,243.41V396.74c87.5-56.52,175-81.54,262.5-88.19Z" style="fill: #fff"/>
    <path d="M315,0V613.33M0,320.08c245-158.27,490-69.55,735-22"/>
    <path d="M346.5.72c-21-.9-42-1-63-.08h0c21-.91,42-.82,63,.09Z" style="fill: #cf142b"/>
    <path d="M283.5,614c21-.91,42-.82,63,.09V276.72C476,282.31,605.5,319,735,344.08v-92C605.5,227,476,190.31,346.5,184.72V.73c-21-.91-42-1-63-.09v184C189,188.73,94.5,213,0,274.08v92C94.5,305,189,280.73,283.5,276.64Z" style="fill: #cf142b"/>
    <path d="M630,46V506c-210-45.8-420-91.6-630,44.06v460C420,738.76,840,1193.28,1260,922V2C1050,137.63,840,91.82,630,46Z" style="fill: #5b97b1"/>
    <path d="M646.7,941.31q15.45-13,30.91-26.13Q668.06,903,658.5,890.81,652.61,916.07,646.7,941.31Z" style="fill: #ffce00"/>
    <path d="M708.52,954.44q-5.91-27.74-11.81-55.5-9.56,8.14-19.1,16.24Q693.06,934.88,708.52,954.44Z" style="fill: #ffce00"/>
    <path d="M627.6,851.29q15.45,19.77,30.9,39.52,3.66-15.62,7.3-31.22Q646.71,855.48,627.6,851.29Z" style="fill: #ffce00"/>
    <path d="M677.61,809.06q-5.91,25.28-11.81,50.53,11.81,2.55,23.61,5Q683.52,836.86,677.61,809.06Z" style="fill: #ffce00"/>
    <path d="M689.41,864.62q3.65,17.16,7.3,34.32,15.45-13.17,30.91-26.51Q708.51,868.67,689.41,864.62Z" style="fill: #ffce00"/>
    <path d="M665.8,859.59q-3.64,15.61-7.3,31.22,9.56,12.2,19.11,24.37,9.54-8.1,19.1-16.24-3.65-17.15-7.3-34.32Q677.61,862.15,665.8,859.59Z" style="fill: #ffce00"/>
    <path d="M796.52,790.46q5.9,27.45,11.8,54.87,9.55-8.72,19.11-17.57Q812,809.3,796.52,790.46Z" style="fill: #ffce00"/>
    <path d="M777.41,873.17q19.11,3.27,38.21,6-3.64-16.92-7.3-33.86Q792.87,859.42,777.41,873.17Z" style="fill: #ffce00"/>
    <path d="M827.43,933.88q5.9-25.74,11.8-51.55-11.81-1.46-23.61-3.14Q821.53,906.57,827.43,933.88Z" style="fill: #ffce00"/>
    <path d="M858.34,798.65q-15.47,14.77-30.91,29.11,9.54,11.4,19.1,22.65Q852.43,824.57,858.34,798.65Z" style="fill: #ffce00"/>
    <path d="M846.53,850.41q-3.64,16-7.3,31.92,19.11,2.34,38.21,4Q862,868.61,846.53,850.41Z" style="fill: #ffce00"/>
    <path d="M827.43,827.76q-9.55,8.85-19.11,17.57,3.66,16.93,7.3,33.86,11.8,1.68,23.61,3.14,3.66-15.95,7.3-31.92Q837,839.16,827.43,827.76Z" style="fill: #ffce00"/>
    <path d="M777.41,686.13q19.11,3.25,38.21,6-3.64-16.92-7.3-33.86Q792.87,672.38,777.41,686.13Z" style="fill: #ffce00"/>
    <path d="M827.43,746.84q5.9-25.76,11.8-51.55-11.81-1.45-23.61-3.14Q821.53,719.53,827.43,746.84Z" style="fill: #ffce00"/>
    <path d="M796.52,603.41q5.9,27.47,11.8,54.88,9.55-8.71,19.11-17.57Q812,622.25,796.52,603.41Z" style="fill: #ffce00"/>
    <path d="M846.53,663.37q-3.64,16-7.3,31.92,19.11,2.34,38.21,4Q862,681.57,846.53,663.37Z" style="fill: #ffce00"/>
    <path d="M858.34,611.61q-15.47,14.77-30.91,29.11,9.54,11.4,19.1,22.65Z" style="fill: #ffce00"/>
    <path d="M827.43,640.72q-9.55,8.85-19.11,17.57,3.66,16.94,7.3,33.86,11.8,1.68,23.61,3.14,3.66-15.94,7.3-31.92Q837,652.12,827.43,640.72Z" style="fill: #ffce00"/>
    <path d="M909.72,841.19q19.11.91,38.21.9-3.66-16.4-7.3-32.82Q925.18,825.55,909.72,841.19Z" style="fill: #ffce00"/>
    <path d="M928.82,756q5.91,26.67,11.81,53.25,9.55-10,19.1-20.36Q944.28,772.8,928.82,756Z" style="fill: #ffce00"/>
    <path d="M978.83,808.55q-3.65,16.58-7.29,33.1,19.1-.69,38.2-2.5Q994.29,824.24,978.83,808.55Z" style="fill: #ffce00"/>
    <path d="M959.73,895q5.91-26.64,11.81-53.38-11.81.42-23.61.44Q953.83,868.61,959.73,895Z" style="fill: #ffce00"/>
    <path d="M959.73,788.91q-9.56,10.3-19.1,20.36,3.64,16.43,7.3,32.82,11.8,0,23.61-.44,3.65-16.53,7.29-33.1Q969.29,798.86,959.73,788.91Z" style="fill: #ffce00"/>
    <path d="M990.64,754.83q-15.45,17.4-30.91,34.08,9.56,9.95,19.1,19.64Q984.74,781.74,990.64,754.83Z" style="fill: #ffce00"/>
    <path d="M909.72,434.23c12.74.6,25.47.92,38.21.89q-3.66-16.39-7.3-32.82Q925.18,418.57,909.72,434.23Z" style="fill: #ffce00"/>
    <path d="M928.82,349.06q5.91,26.67,11.81,53.24,9.55-10.05,19.1-20.36Q944.28,365.83,928.82,349.06Z" style="fill: #ffce00"/>
    <path d="M959.73,488.06q5.91-26.64,11.81-53.38-11.81.42-23.61.44Q953.83,461.64,959.73,488.06Z" style="fill: #ffce00"/>
    <path d="M978.83,401.58q-3.65,16.57-7.29,33.1,19.1-.69,38.2-2.5Q994.29,417.27,978.83,401.58Z" style="fill: #ffce00"/>
    <path d="M990.64,347.86q-15.45,17.4-30.91,34.08,9.56,10,19.1,19.64Q984.74,374.78,990.64,347.86Z" style="fill: #ffce00"/>
    <path d="M959.73,381.94q-9.56,10.31-19.1,20.36,3.64,16.44,7.3,32.82,11.8,0,23.61-.44,3.65-16.53,7.29-33.1Q969.29,391.91,959.73,381.94Z" style="fill: #ffce00"/>
    <path d="M1015.35,748.74q15.47-18,30.91-36.87-9.54-8.61-19.1-17.55Q1021.27,721.59,1015.35,748.74Z" style="fill: #ffce00"/>
    <path d="M1077.17,738.86q-5.89-25.26-11.8-50.63-9.55,12-19.11,23.64Q1061.72,725.81,1077.17,738.86Z" style="fill: #ffce00"/>
    <path d="M996.25,664.59q15.46,15.25,30.91,29.73,3.64-16.86,7.3-33.76Q1015.35,663.2,996.25,664.59Z" style="fill: #ffce00"/>
    <path d="M1034.46,660.56q-3.64,16.91-7.3,33.76,9.55,8.92,19.1,17.55,9.56-11.65,19.11-23.64-3.66-15.69-7.3-31.43Q1046.27,658.93,1034.46,660.56Z" style="fill: #ffce00"/>
    <path d="M1058.07,656.8q3.65,15.74,7.3,31.43,15.45-19.41,30.9-39.74Q1077.18,653.37,1058.07,656.8Z" style="fill: #ffce00"/>
    <path d="M1046.26,605.75q-5.9,27.46-11.8,54.81,11.8-1.63,23.61-3.76Q1052.16,631.35,1046.26,605.75Z" style="fill: #ffce00"/>
    <path d="M1020.91,375.51q19.11-2.19,38.21-5.66-3.64-15.72-7.3-31.51Q1036.37,357.36,1020.91,375.51Z" style="fill: #ffce00"/>
    <path d="M1040,287.15q5.89,25.67,11.8,51.19,9.56-11.74,19.1-23.84Q1055.47,301.27,1040,287.15Z" style="fill: #ffce00"/>
    <path d="M1070.92,420.62q5.91-27.74,11.81-55.61-11.81,2.69-23.61,4.84Q1065,395.3,1070.92,420.62Z" style="fill: #ffce00"/>
    <path d="M1090,330.49l-7.3,34.52q19.11-4.36,38.21-10.2Q1105.48,343.16,1090,330.49Z" style="fill: #ffce00"/>
    <path d="M1070.92,314.5q-9.54,12.09-19.1,23.84,3.65,15.78,7.3,31.51,11.81-2.16,23.61-4.84l7.3-34.52Q1080.48,322.67,1070.92,314.5Z" style="fill: #ffce00"/>
    <path d="M1101.83,274.43q-15.45,20.52-30.91,40.07,9.55,8.17,19.11,16Q1095.93,302.53,1101.83,274.43Z" style="fill: #ffce00"/>
    <path d="M1108,540.35q15.45,12.07,30.91,23.14,3.64-17.65,7.29-35.37Q1127.08,535,1108,540.35Z" style="fill: #ffce00"/>
    <path d="M1169.78,518.94l7.3,29.69q15.45-23.1,30.91-47.35Q1188.88,511,1169.78,518.94Z" style="fill: #ffce00"/>
    <path d="M1188.89,596.41q-5.91-23.8-11.81-47.78-9.55,14.28-19.1,28.12Q1173.43,587.13,1188.89,596.41Z" style="fill: #ffce00"/>
    <path d="M1127.07,620.48q15.45-21.33,30.91-43.73-9.56-6.42-19.1-13.26Q1133,592.06,1127.07,620.48Z" style="fill: #ffce00"/>
    <path d="M1158,470.63q-5.91,28.81-11.81,57.49,11.8-4.27,23.61-9.18Q1163.88,494.86,1158,470.63Z" style="fill: #ffce00"/>
    <path d="M1146.17,528.12q-3.64,17.71-7.29,35.37,9.54,6.84,19.1,13.26,9.55-13.85,19.1-28.12l-7.3-29.69Q1158,523.85,1146.17,528.12Z" style="fill: #ffce00"/>
    <path d="M1127.07,261.58q15.45-21.34,30.91-43.74-9.56-6.42-19.1-13.25Q1133,233.16,1127.07,261.58Z" style="fill: #ffce00"/>
    <path d="M1188.89,237.5q-5.91-23.81-11.81-47.77-9.55,14.27-19.1,28.11Q1173.43,228.24,1188.89,237.5Z" style="fill: #ffce00"/>
    <path d="M1108,181.44q15.45,12.09,30.91,23.15,3.64-17.65,7.29-35.38Q1127.08,176.13,1108,181.44Z" style="fill: #ffce00"/>
    <path d="M1169.78,160l7.3,29.7q15.45-23.1,30.91-47.36Q1188.88,152.11,1169.78,160Z" style="fill: #ffce00"/>
    <path d="M1158,111.72q-5.91,28.83-11.81,57.49Q1158,165,1169.78,160,1163.88,136,1158,111.72Z" style="fill: #ffce00"/>
    <path d="M1146.17,169.21q-3.64,17.73-7.29,35.38,9.54,6.82,19.1,13.25,9.55-13.84,19.1-28.11l-7.3-29.7Q1158,165,1146.17,169.21Z" style="fill: #ffce00"/>
  </g>
</svg>
