<svg xmlns="http://www.w3.org/2000/svg" viewBox="0 0 1260 1012.04">
  <g>
    <path d="M0,90.08v920C420,738.76,840,1193.28,1260,922V2C840,273.28,420-181.24,0,90.08Z" style="fill: #fe0000"/>
    <path d="M630,46C420,.22,210-45.58,0,90.08v460C210,414.42,420,460.22,630,506Z" style="fill: #000095"/>
    <path d="M281.84,194.4A733.62,733.62,0,0,0,157.5,249.52c41.45,1,82.89,7.3,124.34,17.51q-4.43-18-8.84-35.85Q277.42,212.76,281.84,194.4Z" style="fill: #fff"/>
    <path d="M348.16,194.48Q331.59,125.65,315,57.5q-16.58,68.06-33.16,136.9Q298.41,188.79,315,184,331.58,188.88,348.16,194.48Z" style="fill: #fff"/>
    <path d="M348.16,194.48q4.43,18.36,8.84,36.76-4.42,17.92-8.84,35.87c41.45-10.23,82.89-17.3,124.34-22.6C431.05,225.6,389.61,208.46,348.16,194.48Z" style="fill: #fff"/>
    <path d="M281.84,267Q298.41,334.37,315,402.5q16.58-68.06,33.16-135.39Q331.59,271.2,315,276,298.42,271.13,281.84,267Z" style="fill: #fff"/>
    <path d="M360.29,218.14q16.74-67,33.46-133.47c-30.3,30.34-60.59,62.09-90.89,95.8q16.58,4.64,33.14,10Q348.15,204.14,360.29,218.14Z" style="fill: #fff"/>
    <path d="M302.86,180.47c-41.42-11.6-82.84-19.53-124.26-22.4,30.37,26.33,60.74,55.38,91.11,86.6q4.46-18.43,8.92-36.8Q290.75,194,302.86,180.47Z" style="fill: #fff"/>
    <path d="M269.71,244.67Q253,313.81,236.25,383.83c30.3-36.87,60.59-71.39,90.89-104.1q-16.58-5.19-33.14-9.63Q281.85,257.17,269.71,244.67Z" style="fill: #fff"/>
    <path d="M360.29,218.14Q355.84,236,351.37,254q-12.12,12.71-24.23,25.78c41.42,13,82.84,29.35,124.26,47.72C421,289.76,390.66,253.14,360.29,218.14Z" style="fill: #fff"/>
    <path d="M327.14,180.52c-30.3-33.82-60.59-65.82-90.89-95.46q16.73,66,33.46,133Q281.85,204,294,190.43,310.58,185.09,327.14,180.52Z" style="fill: #fff"/>
    <path d="M269.71,218.09C239.34,253.23,209,290.54,178.6,330.57a745.14,745.14,0,0,1,124.26-50.88q-12.12-13.12-24.23-25.82Q274.16,235.95,269.71,218.09Z" style="fill: #fff"/>
    <path d="M327.14,180.52Q339.26,194,351.37,208q4.47,18.36,8.92,36.78C390.66,213.36,421,183.62,451.4,155,410,161,368.56,169.07,327.14,180.52Z" style="fill: #fff"/>
    <path d="M302.86,279.69c30.3,32.81,60.59,67.58,90.89,103.76Q377,313.79,360.29,244.73,348.16,257.27,336,270.18,319.42,274.56,302.86,279.69Z" style="fill: #fff"/>
    <path d="M315,132.25c-49.29-.31-89.25,49.59-89.25,103.54s40,91.65,89.25,92c49.29.13,89.25-38.48,89.25-92.62C404.25,181.3,364.29,132.38,315,132.25Z" style="fill: #000095"/>
    <path d="M315,143.75c-43.49-.24-78.75,43.09-78.75,90.7S271.51,316,315,316.25s78.75-34.44,78.75-82.19C393.75,186.54,358.49,143.85,315,143.75Z" style="fill: #fff"/>
  </g>
</svg>
