<svg xmlns="http://www.w3.org/2000/svg" viewBox="0 0 1260 1012.04">
  <g>
    <path d="M0,90.08v920C420,432.09,840,580,1260,2,840,273.28,420-181.24,0,90.08Z" style="fill: #1eb53a"/>
    <path d="M0,1010.08C420,738.76,840,1193.28,1260,922V2C840,580,420,432.09,0,1010.08Z" style="fill: #00a3dd"/>
    <path d="M0,1010.08C420,432.09,840,580,1260,2"/>
    <path d="M1260,2h0c-99.9,64.53-199.81,88-299.71,89.94C640.19,331.84,320.1,350.74,0,791.24v218.84c99.9-64.54,199.81-88,299.71-90C619.81,680.2,939.9,661.3,1260,220.81Z" style="fill: #fcd116"/>
    <path d="M0,1010.08C420,432.09,840,580,1260,2"/>
    <path d="M1260,2C1191.64,46.12,1123.29,71.06,1054.93,83,703.29,401.32,351.64,376.43,0,860.35v149.73C68.36,965.92,136.71,941,205.07,929,556.71,610.73,908.36,635.61,1260,151.7Z"/>
  </g>
</svg>
