<svg xmlns="http://www.w3.org/2000/svg" viewBox="0 0 1260 1012.04">
  <g>
    <path d="M0,90.08v920C420,738.76,840,1193.28,1260,922V2C840,273.28,420-181.24,0,90.08Z"/>
    <path d="M0,550.08C420,278.76,840,733.28,1260,462V155.3C840,426.62,420-27.91,0,243.41Z" style="fill: #fcdc04"/>
    <path d="M0,550.08C420,278.76,840,733.28,1260,462V308.63C840,580,420,125.43,0,396.74Z" style="fill: #d90000"/>
    <path d="M0,1010.08C420,738.76,840,1193.28,1260,922V615.3C840,886.62,420,432.09,0,703.41Z" style="fill: #fcdc04"/>
    <path d="M0,1010.08C420,738.76,840,1193.28,1260,922V768.63C840,1040,420,585.43,0,856.74Z" style="fill: #d90000"/>
    <path d="M630,362.66C557.71,346.5,499.1,399.74,499.1,479.1c0,79,58.61,154.14,130.9,170.29s130.9-37.08,130.9-116.45C760.9,454,702.29,378.81,630,362.66Z" style="fill: #fff"/>
    <path d="M606.93,391.2l8.19-2.95s.89-17.91.89-18.57c-8.78-1.91-14.3-.33-17.57,2.55Z" style="fill: #d90000"/>
    <path d="M597.94,371.58l-.37.33q4.54,10.13,9.07,20.26l9.16-3.3c0-.14,0-.29,0-.43.09-1.83.89-17.95.89-18.61v-.76l-.7-.15C608.13,367.2,601.88,368.12,597.94,371.58Zm16.5,16-7.23,2.61q-3.94-8.84-7.9-17.66c3.56-2.87,9.06-3.65,16-2.27C615.17,372.91,614.75,381.47,614.44,387.62Z"/>
    <path d="M616.31,369.75q-.6,9.33-1.19,18.66L634,399.71s9.53-12.77,9.38-12.64C633.89,372.44,616.31,369.75,616.31,369.75Z" style="fill: #fcdc04"/>
    <path d="M644,386.7c-9.65-14.81-27-17.63-27.69-17.73l-.62-.09q-.63,9.94-1.27,19.9l19.92,11.9,5-6.71C644.38,387.16,644.38,387.16,644,386.7Zm-10.19,12L615.85,388q.55-8.7,1.12-17.4c3.1.64,17.31,4.11,25.57,16.3C641.39,388.52,637,394.45,633.77,398.74Z"/>
    <path d="M634.33,399.61c.15.2,4,8.22,4,8.38s13.85-.41,13.71-.6c-.9-7.38-3.28-12.62-9.09-20.58Z" style="fill: #d90000"/>
    <path d="M643.48,386.4l-.62-.84-9.12,13.51-.36.37.4.52c.24.42,3.4,7,3.87,8.05,0,.14,0,.28,0,.42l.52.27h0c.24.05,14,0,14.48-.79l.27-.46-.21-.28C651.79,399.83,649.43,394.55,643.48,386.4Zm-4.75,20.84c-.79-1.83-2.79-5.86-3.58-7.43l7.92-11.73c5.18,7.22,7.33,12.1,8.21,18.62C649.15,406.89,640.75,407.26,638.73,407.24Z"/>
    <path d="M674.55,555.46Q648.26,513,622,470.32s-5.36-28.9,5.36-39.94c13-8.91,11.62-21.93,11.17-21.87-1.78-13.27-19.66-26.47-31.72-17.18a14,14,0,0,0-2.38,16.12s-18.77,1.5-19.51,4.93,21.14,3.9,21.14,3.91q-1,8-2.08,16s-42.6,33.27-10,77c.3-.1,1-1.41,1-1.41s11.47,18,23.53,24c9,12.06,10.18,13.16,10.29,13.11v-.11s0,.09,0,.11c.16,1.48,2.14,20.58.14,23.91-2.83-1.61-31.72-9-36-8.15-3.87.46-18.77-3.52-15,23.86,2.82-6.58,5.36-12.4,5.36-12.4s-.45,9.53,3.13,13.72c-.6-10.24,3.42-16.23,3.42-16.23s.75,11.25,3,13.36,2.23-17.47,14.6-13.16a140.2,140.2,0,0,0,21.29,5.78s4.17,39.24,2.83,42.54c-8.93-4.24-30.23-5.6-31.57,0,12.51,1.89,18.32,4.79,18.32,4.79s-10.13,7.58-7,14c0,0,16.23-16.84,47.81-5.58-4.77-9.51-20.11-11.87-20.11-11.87s-4.77-40.68-1-41.82,19.51,4.4,19.51,4.4c2.08.45,5.66-5,2.83-9.5s-11.17-21.34-7.75-23.54S674.55,555.46,674.55,555.46Z"/>
    <path d="M628.82,544.89a.63.63,0,0,1,0,.11S628.82,544.89,628.82,544.89Z"/>
    <path d="M627.78,431.07c13-8.92,11.93-21.57,11.4-22.72l0,0c-1-6.65-5.86-13.52-12.48-17.55-7.17-4.37-14.78-4.41-20.44,0a14.84,14.84,0,0,0-2.9,16c-4.53.4-18.4,1.91-19.14,5.33a1.76,1.76,0,0,0,.34,1.41c2,2.75,15.3,3.4,20.67,3.56l-1.92,14.75c-2.14,1.75-21.62,18.4-22.3,42.6-.33,11.9,3.87,23.76,12.48,35.31l.36.47.45-.15c.11,0,.34-.11.83-.82,2.59,3.86,12.48,17.87,23.07,23.29,6.39,8.57,8.88,11.74,10,12.82.59,5.69,1.65,19.13.39,22.63-5-2-31.52-8.84-35.85-8a16.05,16.05,0,0,1-1.78,0c-5.55-.08-17.12-.22-13.75,24.58l.37,2.71c.32-.75.65-1.49,1-2.24,1.58-3.68,3.07-7.13,4.08-9.45.21,3.29.94,8,3.3,10.81.43.49.85,1,1.27,1.48,0-.62-.07-1.24-.11-1.86a30.15,30.15,0,0,1,2.26-13.74c.38,3.68,1.26,9.63,3.06,11.32a1.17,1.17,0,0,0,1,.38c.84-.14,1.24-1.36,2-3.59,1.51-4.68,4-12.5,11.94-9.75a147.64,147.64,0,0,0,20.76,5.69c1.57,14.81,3.49,36.55,2.93,40.87-8.88-3.81-30.19-5.75-31.73.66-.08.33-.16.65-.23,1l1,.14a78.87,78.87,0,0,1,16.8,4.16c-2.58,2.21-8.91,8.41-6.12,14.1.16.33.33.67.49,1l.63-.66a33.09,33.09,0,0,1,11.92-6.91c7.21-2.51,19.18-4.27,35.28,1.45l1.45.52-.77-1.53c-4.41-8.81-17-11.68-20.09-12.26-2.21-19.1-3.34-39.79-1.35-40.41,2.9-.89,14.79,2.87,19.21,4.42,1.46.31,2.93-1.2,3.73-2.85a8,8,0,0,0-.35-7.78c-2.65-4.24-8.87-17-8.38-21.37a1.41,1.41,0,0,1,.51-1.11c2.32-1.48,14.11,3,21.46,6.4l1.91.88q-26.84-43.37-53.68-86.91C622.21,467.71,617.92,441.24,627.78,431.07Zm24.29,117.3a2.6,2.6,0,0,0-1,2c-.61,5.45,6.74,19.48,8.67,22.57a6.37,6.37,0,0,1,.19,6.12c-.76,1.56-1.88,2.38-2.39,2.28s-16-5.61-19.89-4.42-.49,32.85.65,42.53c0,.24,0,.48.08.72l.65.1c.14,0,13.22,2.13,18.54,9.8-15.68-5.19-27.39-3.39-34.54-.89a35.31,35.31,0,0,0-11.51,6.45c-1-4.57,4.73-10.11,7.23-12l1-.74-1.28-.64a55.18,55.18,0,0,0-11.73-3.62c-1.67-.36-3.53-.72-5.58-1,3.42-3.8,21.8-2.68,30.23,1.32l.58.27c.08-.19.16-.37.23-.56,1.37-3.37-2.35-38.87-2.78-42.91,0-.24,0-.48-.08-.72l-.65-.11a142.77,142.77,0,0,1-21.18-5.75c-9-3.16-11.9,5.71-13.44,10.47a15.74,15.74,0,0,1-1,2.69c-1.26-1.65-2.21-8.2-2.5-12.53l-.16-2.32-1.13,1.69c-.15.23-3.54,5.38-3.6,14.3-2-4.34-1.67-11-1.66-11.06l-1.34-.63s-2,4.5-4.36,10.06c-2-20.46,7.66-20.34,13-20.27a17.57,17.57,0,0,0,2,0c4.07-.83,32.72,6.44,35.58,8.06l.53.3c.1-.15.19-.31.29-.47,2-3.36.37-20.35,0-24l.17-.15c-.11-.21-.21-.43-.31-.65l-.58.09.21-.39c-.25-.19-1.69-1.71-10-12.88l-.14-.18-.19-.1c-11.7-5.87-23.05-23.51-23.16-23.68l-.66-1-.5.89c-.15.27-.32.54-.46.76-8-10.95-11.86-22.16-11.55-33.37.69-24.83,21.82-41.61,22-41.77l.19-.15,2.25-17.3-1,0c-9.14-.22-19.5-1.41-20.34-2.81.41-1.88,10-3.76,19-4.47l1-.08-.6-1A13.2,13.2,0,0,1,607.25,392c5.28-4.07,12.19-4,19,.1,6.22,3.79,10.77,10.22,11.6,16.38,0,.31.08.62.13.93l.11,0c.28,2.79-.5,13-11.24,20.37-10.83,11.15-5.74,39.38-5.52,40.57l0,.18q25.74,41.72,51.49,83.38C667.78,551.69,655.1,546.44,652.07,548.37Z"/>
    <path d="M599.46,485s0,0,0,0S599.39,484.91,599.46,485Z" style="fill: #9ca69c"/>
    <path d="M598.65,491.13c.68-3.7.42-6.2.81-6.14-.07-.08-.06-.1,0,0s0,0,0,0c.41.53,3.83,4.16,3.53,3.42.1-2.05-1.4-6.81-1.4-6.81l4.19,2.06-2.44-5.5,5.94,2s-2.1-6.58-1.4-6.43,4.89,1.45,4.89,1.45c-8.81-19.24-.5-31.83,3.5-46.32C616.27,428.9,585.27,459.61,598.65,491.13Z" style="fill: #9ca69c"/>
    <path d="M598,491.35c.31.72.62,1.45.92,2.17l.39-2.09a37.56,37.56,0,0,0,.54-4.73c0-.07,0-.13,0-.2,1.12,1.26,2.88,3.07,3.51,2.73l.5-.37c-.07-.15-.13-.31-.2-.46a24.64,24.64,0,0,0-1-5.48l4.48,2.2-2.56-5.76,5.75,2c-.14-.42-.27-.85-.41-1.27a53.31,53.31,0,0,1-1.45-5.37c1.12.31,3.31,1,4.24,1.27l1.3.4-.63-1.39c-6.87-15-3.17-25.66.73-37,1-2.84,2-5.77,2.82-8.76l-1.19-1C615.44,428.58,584.58,459.67,598,491.35Zm14.78-54.13c-3.72,10.78-7.57,21.92-1.25,36.86-1.31-.4-3.19-1-3.67-1.07l-.46,0-.2.28c-.18.25-.54.73,1,5.82L602.08,477l2.34,5.25-3.94-1.93.45,1.46a39.86,39.86,0,0,1,1.27,5.21c-.89-.88-2.06-2.14-2.26-2.4l-.23.17.14-.31-.6-.51-.74.9.09.13a13,13,0,0,0-.13,1.38c0,.56-.08,1.29-.17,2.13-8.67-24.8,9.72-49,16.28-56.49C614,433.73,613.4,435.49,612.8,437.22Z" style="fill: #9ca69c"/>
    <path d="M627,399.16s1.64,13.25-4.76,15.6c-1,.59-5.06,1.18-4.47,3.92.75,3.75,2.53,3.49,5.06,3.39C629.57,422.22,637.31,408.26,627,399.16Z" style="fill: #9ca69c"/>
    <path d="M627.4,398.59l-1.26-1.12c.07.55.13,1.1.2,1.65,0,.12,1.5,12.72-4.48,14.93a5.5,5.5,0,0,1-.93.36c-1.65.58-4.41,1.55-3.81,4.29a5.68,5.68,0,0,0,1.57,3.29,3.24,3.24,0,0,0,1.55.79,9.74,9.74,0,0,0,2.44.08H623c4.13.1,8.48-4.67,9.5-10.41A14.59,14.59,0,0,0,627.4,398.59Zm3.71,13.26c-.91,5.11-4.82,9.52-8.41,9.44h-.35c-1.29.06-2.31.11-2.92-.45a4,4,0,0,1-.95-2.2c-.31-1.42,1.36-2.13,3.09-2.73a8.55,8.55,0,0,0,1-.41c5.39-2,5.49-10.81,5.27-14.59A12.57,12.57,0,0,1,631.11,411.85Z" style="fill: #9ca69c"/>
    <path d="M613.2,404.53a2.07,2.07,0,0,0-2.52,2.22,3.46,3.46,0,0,0,2.52,3.3,2.06,2.06,0,0,0,2.52-2.21A3.48,3.48,0,0,0,613.2,404.53Z" style="fill: #fff"/>
    <path d="M605.59,416.35c-1.64,1.12-10.28,9-1.79,14.46,8.79-.7,6.4-3,8.34-4.71C612.19,421.7,607.77,419.6,605.59,416.35Z" style="fill: #d90000"/>
    <path d="M608.67,418.8a18.9,18.9,0,0,1-2.55-2.83l-.45-.66-.53.35c-1.28.88-6.33,5.45-5.65,10.25.3,2.16,1.67,4,4.06,5.56l.21.14.22,0c6.2-.5,7.17-1.79,7.86-3.56a2.91,2.91,0,0,1,.8-1.28l.2-.18v-.31C612.88,422.92,610.64,420.73,608.67,418.8Zm1.87,8.39c-.45,1.15-.91,2.33-6.7,2.82a5.94,5.94,0,0,1-3-4.05c-.48-3.37,2.92-7.12,4.68-8.55a26,26,0,0,0,2.32,2.48c1.86,1.82,3.47,3.39,3.57,5.76A4.29,4.29,0,0,0,610.54,427.19Z"/>
    <path d="M624.35,512.93c-.44,2-2.38,9.43.3,16.05,7.45-1.8,10.87-.08,13.41,2.27C632,524.53,629.57,521.73,624.35,512.93Z" style="fill: #9ca69c"/>
    <path d="M624.91,512.59l-.9-1.52-.42,1.92c-.61,2.64-2.21,9.66.43,16.19.1.23.2.47.29.71l.61-.15c7.34-1.77,10.47,0,12.76,2.07.27-.36.54-.71.82-1.06C632.47,524.12,630.12,521.39,624.91,512.59Zm.1,15.47c-1.77-5-.93-10.38-.31-13.28a79.43,79.43,0,0,0,9.68,13.36C632.17,527.37,629.22,527.13,625,528.06Z" style="fill: #9ca69c"/>
    <path d="M637.16,552.75l.45,18.37s5.81,2.4,8.49,1.84S646,560.21,637.16,552.75Z" style="fill: #fff"/>
    <path d="M637.51,552.16l-1.08-.92q.24,10.18.49,20.37l.57.23a33.06,33.06,0,0,0,5.19,1.65,9.32,9.32,0,0,0,3.67.24c.47-.09,1.28-.52,1.4-2.31C648,567.34,644.56,558.14,637.51,552.16Zm8.33,20c-2,.41-6.06-1-7.55-1.59l-.39-16.3c5.82,5.53,8.7,13.21,8.46,16.69C646.31,571.7,646.12,572.14,645.84,572.2Z" style="fill: #fff"/>
    <path d="M679,509.59c-5.21-2-41.55-30-49.44-35.82s-8.79-1.75-10,.76c-2.24,1.47-5.81,32.66,21.59,45.82s38.13,43.78,38.13,43.79C679.76,564.89,684.23,511.68,679,509.59Z" style="fill: #9ca69c"/>
    <path d="M679.13,508.86c-3.91-1.55-26.52-18.56-40-28.77-4.1-3.1-7.43-5.61-9.25-6.95-3.25-2.39-5.7-3.39-7.46-3.06s-2.57,2-3.17,3.38L619,474c-1.44,1.4-2.4,9.17-.77,17.5,1.84,9.4,7.28,22.17,22.78,29.61,26.73,12.82,37.54,42.93,37.65,43.23s.27.49.41.73l.5-.11c1.58-.34,3.3-36.72,2.27-48.06C681.4,511.9,680.56,509.43,679.13,508.86Zm-.14,52.7c-3.23-7.58-14.73-30.93-37.64-41.92a38.39,38.39,0,0,1-21.53-27.21c-2.05-9.28-.53-16.65.21-17.2l.12-.09.07-.14c.1-.21.19-.42.29-.64.54-1.22,1.1-2.49,2.38-2.73a3.24,3.24,0,0,1,1.3.05,14.81,14.81,0,0,1,5.08,2.72c1.81,1.33,5.13,3.84,9.22,6.93,14.45,10.92,36.29,27.36,40.41,29,0,0,.18.1.39.52C682.38,517,680,552.31,679,561.56Z"/>
    <path d="M669.33,506.05c4.17,5.63,3.58,4.85,3.58,4.85l-19.66,11.91c-.45.26,36.64,31.85,25.47,49.85,10.57-5.42,7.15-19.53,7.15-19.53s8.63,26.47-12.37,34.07c2.24,2.6,3.73,2.43,3.73,2.43l-3.58,3.15s-1.64,2.6,12.51-1.91c-3.87,2.61-4.17,5-4.17,5s1,3.49,10.28-3.37c-7.45,7.24-9.09,11.46-9.09,11.29C703.29,606,747.08,543.58,669.33,506.05Z" style="fill: #d90000"/>
    <path d="M669.5,505.35l-2.37-1.16,1.7,2.29,3,4.1-19,11.52-.29.15v.41c0,.48,0,.51,1.89,2.32,27.31,26.54,28,40.26,23.69,47.16l1,1.24c5.2-2.66,7.13-7.39,7.74-11.61.7,8.2-.77,20-13.66,24.69l-.91.32.77.91a9.35,9.35,0,0,0,2.63,2.23l-2.51,2.21-.11.12a1.23,1.23,0,0,0,.09,1.34c.4.58,1.12,1.6,9.66-.84a5.89,5.89,0,0,0-1.5,2.87l0,.17.05.19a2.2,2.2,0,0,0,1.13,1.25c1.1.57,2.73.33,4.87-.68a37.83,37.83,0,0,0-4.58,6.41l-.27,0v1.31l.54.26.18.06a.5.5,0,0,0,.17,0c5.61.58,12.9-3.58,19.07-10.87a51.65,51.65,0,0,0,11.89-29C716.62,533,687.23,514,669.5,505.35Zm43.44,59c-1.56,21.64-18,38.41-28.45,38.74a52.23,52.23,0,0,1,8.29-9.94l-1-1.31c-5.93,4.41-8.19,4.31-8.88,4.07l-.16-.07c.25-.69,1.09-2.4,3.83-4.25l-.74-1.44c-6.76,2.16-9.69,2.6-11,2.63l4.55-4-2.42.12s-.87,0-2.26-1.26c20.09-8.17,11.83-34.34,11.74-34.6l-1.33.21c.12.5,2.65,11.45-4.56,17.25,4.78-13.36-10.86-32.41-25.4-46.56l-.84-.82q9.23-5.57,18.45-11.17l.09.11.5-.42c.25-.22.38-.33-.08-1.08l0-.05-.43-.56h0c-.32-.47-.78-1.1-1.4-2C699.86,522.42,714.53,542.2,712.94,564.32Z"/>
    <path d="M674,511.77q-8.79-4.89-17.57-9.82s-2.09-1.1-16.83-12c-14.3-7.36-10.73,8.1-6.86,11.06,0,0,7.75,7.07,9.09,7.37,1.79,1.2,11.77,13.81,11.77,13.81a34.6,34.6,0,0,1,8.78,2.72c-.59-2.09-2.38-3.78-7.44-8.79a144.06,144.06,0,0,1,16.68,8,49.51,49.51,0,0,0-7.75-12.1c2.24.65,20.26,14.29,20.26,14.28Z" style="fill: #fff"/>
    <path d="M656.57,501.26c-.09-.05-2.4-1.34-16.84-12-7.67-3.95-10-1.29-10.77.65-1.35,3.57.82,9.74,3.36,11.68,1.78,1.63,7.55,6.82,9.27,7.5,1.39,1.08,7.73,8.83,11.47,13.56l.23.28.3,0a33.83,33.83,0,0,1,8.59,2.65l1.21.56-.39-1.37c-.55-1.92-1.9-3.46-5.2-6.74,4.27,1.81,8.11,3.85,12.43,6.14l2.7,1.43-.74-1.74a52.07,52.07,0,0,0-5.47-9.37c4.24,2.85,11.92,8.52,17,12.39l.83-1-10.26-14.74Zm7.3,10-2.18-.63,1.69,1.88a47.94,47.94,0,0,1,6.71,10,130.26,130.26,0,0,0-15.1-7.16l-.51,1.28.72.7c3.14,3.11,4.86,4.81,5.76,6.17a37.39,37.39,0,0,0-5.92-1.83c-.55-.12-1-.19-1.23-.24-1.72-2.17-10-12.55-11.76-13.73l-.27-.12c-.77-.21-5.12-3.88-8.77-7.21-1.82-1.4-3.86-6.7-2.74-9.67,1-2.61,4.12-2.64,9-.16,14.63,10.79,16.85,12,16.93,12q8.69,4.88,17.39,9.72l7.6,10.92C675.76,519.26,665.65,511.81,663.87,511.29Z"/>
    <path d="M584.74,413.33q9.68.1,19.36.25C602,412.47,584.74,413.32,584.74,413.33Z"/>
    <path d="M584.57,412.55l.33,1.56c8.29-.42,17.77-.49,19,.17.12-.46.25-.93.38-1.39C602.12,411.74,587.49,412.4,584.57,412.55Z" style="fill: #fff"/>
  </g>
</svg>
