<svg xmlns="http://www.w3.org/2000/svg" viewBox="0 0 1260 1012.04">
  <g>
    <path d="M0,90.08v920C420,738.76,840,1193.28,1260,922V2C840,273.28,420-181.24,0,90.08Z" style="fill: #0981cf;fill-rule: evenodd"/>
    <path d="M710.47,419.56l-1.05-.22v1l1.05.22Z" style="fill: #fff"/>
    <path d="M649.89,424.16l-.33-1.17-.52.08.33,1.16Z" style="fill: #fff"/>
    <path d="M704.88,421.13s-.35,3.61-1.39,4.17l-2.45-.51a13.37,13.37,0,0,0,1,1.77c.53.7,1.76,2.11.53,2.64s.18.61.18.61-.18,4.05-1.75,3.14-2.1,1.7-2.1,2.47,6.21,2.36,5.24,1.09c-.52-.7.7-1.8.7-1.8s4.2,1.25,5.07,1.43,1.56.12,1-.95a2.72,2.72,0,0,0-2.09-1.2,6.23,6.23,0,0,1-4-1.41c-1.92-1.56.35-1.48.7-1.41s1.91-1,1.22-2.08,0-2.72,0-1.95,1.92,1.57,2.28,1.06a3.26,3.26,0,0,0-.89-3.09c-.87-.77,1.58-.65.89-1.77A10.3,10.3,0,0,1,708,421h0S707,422.34,704.88,421.13Z" style="fill: #fff"/>
    <path d="M651.13,423.17l-.35-1.83-1,0c.12.61.23,1.22.35,1.82Z" style="fill: #fff"/>
    <path d="M708.41,418.93l-.09-1.18-1.75-.17c0,.39.07.79.1,1.18Z" style="fill: #fff"/>
    <polygon points="694.87 436.13 694.87 436.13 694.87 436.13 694.87 436.13" style="fill: #fff"/>
    <path d="M691.83,432.52c-.17.42-.35.83-.52,1.25l1,.66.52-1.24Z" style="fill: #fff"/>
    <path d="M656.55,424.07c0-.39,0-.78,0-1.16l-3.83-.65c0,.39,0,.78.05,1.17Z" style="fill: #fff"/>
    <path d="M712.56,427.75l-1-.22v1.36l1,.21Z" style="fill: #fff"/>
    <path d="M720,478.85l-.51.22-1.3.54-1.14-1-.54.87,1.39,1.25.27.24.26-.11,1.05-.45.14.39,1-.23-.34-1.05Z" style="fill: #fff"/>
    <path d="M694.87,436.13a9.37,9.37,0,0,0-1.86-.2c-.87,0-.69.82,0,1.95l2.1,0s1.57-.45,1.22-1.1A2.29,2.29,0,0,0,694.87,436.13Z" style="fill: #fff"/>
    <path d="M714.8,429.41l-.94-.72c-.17.36-.35.71-.52,1.07l.93.7Z" style="fill: #fff"/>
    <path d="M724.16,479.15l1.93.77.18-1.11-1.93-.76Z" style="fill: #fff"/>
    <path d="M686.69,428.57c0,.39.07.78.1,1.18l1.76.17c0-.39-.07-.79-.11-1.18Z" style="fill: #fff"/>
    <path d="M601.36,377.85l-1-1.2-.68.76,1.05,1.19Z" style="fill: #fff"/>
    <path d="M711.35,401.77c.06.6.12,1.19.17,1.79l1.05.08-.18-1.78Z" style="fill: #fff"/>
    <path d="M567.84,334.33l1,1.38.75-.66-1-1.39Z" style="fill: #fff"/>
    <path d="M598.24,377.83s-2.09-.27-1.92-1.2c.06.73.12,1.45.17,2.18l2.62.56C600.16,379.6,598.24,377.83,598.24,377.83Z" style="fill: #fff"/>
    <path d="M557.62,467.69l-.23-.16Z" style="fill: #fff"/>
    <polygon points="596.32 376.63 596.32 376.63 596.32 376.63 596.32 376.63" style="fill: #fff"/>
    <path d="M552.68,470.64c.18,2.17,1.57-1,1.57-1V456.41l-3.14-1,.18,1.4.87.18c1.39,3,.17,9.35.17,9.35s-2.09-.24-2.44-1.47-1.22,2.27-.52,3S552.51,468.47,552.68,470.64Z" style="fill: #fff"/>
    <path d="M615.7,333.3c-1.58-.34-1.23-1.23-1.75-1.93a4.63,4.63,0,0,0-2.25-.87h0c-1-.17-1.83-.17-1.77.19a7,7,0,0,0,1.57,2.47s2.62.78,2.79,1.39,1.93,1.19,2.1.65S617.26,333.64,615.7,333.3Z" style="fill: #fff"/>
    <polygon points="557.09 373.31 557.09 373.31 557.09 373.31 557.09 373.31" style="fill: #fff"/>
    <polygon points="842.55 394.28 842.55 394.28 842.55 394.28 842.55 394.28" style="fill: #fff"/>
    <path d="M827.4,413.19c1.92,7.31,4.75,14.32,6.26,21.81l-.44.33a75.06,75.06,0,0,0-14.16-24.71C807,396.47,788.8,386,782.83,366.71c.27,25.44,20,48.07,38.07,65.46a86.2,86.2,0,0,1,19.17,27.62,104.11,104.11,0,0,1-.45-19.75c1.86-22,3.06-46.63-10.81-65.27-6.64-8.93-14.07-16.24-22.92-20.06h0C823.07,370.2,822.14,393.11,827.4,413.19Z" style="fill: #fff"/>
    <path d="M845.44,469.26q.87,12.89,1.73,25.77c-.25.17-.25.93-.87.57a83.09,83.09,0,0,1-1.46-9c-3.18-21-19.72-37.36-33.74-54a39.94,39.94,0,0,1-7.3-13,113.68,113.68,0,0,0,8,31.32c10.79,25.58,31.63,47.52,35.38,75.1,1.83-25.83,16.4-43.65,16.4-71.44,0-22.47-8-41.55-20-59.7-.34-.24-.6-.65-1.05-.61C855.75,417.8,843.74,444.14,845.44,469.26Z" style="fill: #fff"/>
    <path d="M790.11,368.58c8.15,13.13,19.33,22.15,28.95,33.39-5.19-12.52-6.15-26.18-12.74-38.57-11.27-21.19-29.91-31.79-47.26-42.39C771.8,335.58,780.32,352.8,790.11,368.58Z" style="fill: #fff"/>
    <polygon points="582.1 405.95 582.1 405.95 582.1 405.95 582.1 405.95" style="fill: #fff"/>
    <path d="M660.71,426.33c0,.59,1.23,1.43,1.92,1.58s2.62-1,2.62-1,.88-2.52.18-2.48-2.09.91-2.27-.29c-.08-.61-.65-.88-1.2-1h0a4.74,4.74,0,0,0-1.07-.08l-2.79-.21-.18,1.32,1.92.61S660.71,425.76,660.71,426.33Z" style="fill: #fff"/>
    <path d="M632.56,419.42l1.22.46.15-1.13-1.22-.45Z" style="fill: #fff"/>
    <polygon points="725.85 594.05 725.85 594.05 725.86 594.05 725.85 594.05" style="fill: #fff"/>
    <path d="M665.36,531l-.55-1.09-1.4.66.56,1.11Z" style="fill: #fff"/>
    <path d="M634.81,420.5,636,421c.05-.37.1-.74.14-1.12l-1.22-.46Z" style="fill: #fff"/>
    <path d="M637.33,422.61l1.4.31v-1.16l-1.4-.31Z" style="fill: #fff"/>
    <path d="M638.86,423.66c0,.46,0,.92,0,1.38l1.05.17-.06-1.37Z" style="fill: #fff"/>
    <path d="M557.35,491.54h0a.61.61,0,0,0-.74.66h0a1,1,0,0,0,.74,1,.62.62,0,0,0,.74-.67h0A1,1,0,0,0,557.35,491.54Z" style="fill: #fff"/>
    <path d="M555.65,483.47l-1.22-.06c-.06.51-.12,1-.19,1.52l1.41.48Z" style="fill: #fff"/>
    <path d="M556.87,488.19a1,1,0,0,0-.74-1,.62.62,0,0,0-.73.68,1,1,0,0,0,.73,1A.62.62,0,0,0,556.87,488.19Z" style="fill: #fff"/>
    <path d="M552.59,494.29l1.48.11v-1.35l-1.48-.12Z" style="fill: #fff"/>
    <path d="M555,478.28c.12-.56.23-1.11.35-1.67l-1.23-.84c.06-1,.12-1.91.17-2.87l1.06,0c.06-.44.12-.88.17-1.32l-2.62,1.4-1.75-1.52v4.66l2.81,4.65C554.25,480,554.6,479.11,555,478.28Z" style="fill: #fff"/>
    <path d="M625.41,506.93s-.65,1-1.69-.37a.84.84,0,0,0-.39-.3c-.88-.24-1.62,2.59-2,3.28,0,0,.4,1.69,1.17,1.72s1.32-.3,2-.31.92-1.11,1.17-2.21A2.24,2.24,0,0,0,625.41,506.93Z" style="fill: #fff"/>
    <path d="M557.39,469.38a.62.62,0,0,0-.74.67h0a1,1,0,0,0,.74,1,.62.62,0,0,0,.74-.67A1,1,0,0,0,557.39,469.38Z" style="fill: #fff"/>
    <path d="M622.05,417.14l-1.22-.45-.15,1.12,1.22.45Z" style="fill: #fff"/>
    <path d="M492,528.23l1.91,2.28.7-1.23-1.23-3.13-1.22-1.2c-.29-1-.58-1.91-.88-2.86l-2.61-1.82,1.23,3.71.7,1.87Z" style="fill: #fff"/>
    <path d="M441,329.32c9.62-8.56,20.8-14.15,28.95-24.62,9.79-12.58,18.3-26.91,31.06-36.86-17.37,4.24-36,8.77-47.26,26.61C447.13,304.87,446.18,318.27,441,329.32Z" style="fill: #fff"/>
    <path d="M479.89,509.85v1.94l1.4.24v2.52l1,.17-.18-2.92-1.4-.83v-1Z" style="fill: #fff"/>
    <path d="M420,381.62A58.11,58.11,0,0,1,439.13,359c18.05-12.45,37.81-28.43,38.08-53.76-6,17.23-24.15,21.89-36.23,32.72a51.83,51.83,0,0,0-14.15,20.91l-.45-.44c1.51-7.11,4.34-13.38,6.26-20.18,5.26-18.61,4.33-41.95,21.52-52.36-8.85,1.15-16.29,6.39-22.92,13.57-13.88,15.05-12.68,40.12-10.83,62.51A100.89,100.89,0,0,1,420,381.62Z" style="fill: #fff"/>
    <path d="M448.26,380.36a91.72,91.72,0,0,0,8-28.94,27.15,27.15,0,0,1-7.31,10.79c-14,12.48-30.56,24.8-33.74,45.07a72.11,72.11,0,0,1-1.47,8.66c-.61.22-.61-.54-.87-.77l1.74-25.37c1.7-24.72-10.31-53.86,2.88-74.3-.44-.14-.69.21-1,.36-12,15.31-20,32.89-20,55.34,0,27.73,14.57,48.65,16.39,75C416.61,419.34,437.46,402.65,448.26,380.36Z" style="fill: #fff"/>
    <polygon points="454.16 285.89 454.16 285.89 454.16 285.89 454.16 285.89" style="fill: #fff"/>
    <path d="M528.41,584.89l1.41,2.61c.06.6.11,1.19.17,1.79l1.74.91c.23.44.47.87.7,1.3l1.22-.53-.87-2.7-2.27-2.57Z" style="fill: #fff"/>
    <path d="M633.84,482.19c.38,1.78.35-2.65,1-2.29s.18-2.67.18-2.67l-3.14,1.83C633.5,479.6,633.66,481.38,633.84,482.19Z" style="fill: #fff"/>
    <path d="M621.06,418.53l-1.4-.7c-.09.35-.17.71-.25,1.07l1.39.69C620.89,419.24,621,418.88,621.06,418.53Z" style="fill: #fff"/>
    <path d="M625.12,416.45l-1.4-.3v1.16l1.4.3Z" style="fill: #fff"/>
    <path d="M617.81,596.68l.87-.79.52-.45-.66-.51-1.74-1.35-.47.94,1.09.84-.36.33Z" style="fill: #fff"/>
    <path d="M644.84,482.06c.87.77,2.28-.21,1.39-1.06-2.61-2.51-2.43-5-3.14-6.89a1.55,1.55,0,0,0-.7-.92c-.28-.11-.61.06-.87.77v2.52S644,481.28,644.84,482.06Z" style="fill: #fff"/>
    <path d="M619.34,420.52l-.18-1.21-1,0c.05.4.11.8.17,1.2Z" style="fill: #fff"/>
    <path d="M604.36,577l-1.05.73-.52.38c.19.18.37.37.55.55l1.23,1.23.61-.8-.68-.68L605,578Z" style="fill: #fff"/>
    <path d="M457,431.57a219.71,219.71,0,0,0,7,54.5l4.09-.47a215,215,0,0,1-6.83-51.09q15.6,2.44,31.2,5.21a176.93,176.93,0,0,0,5.9,42.7l4.05-.38a171.27,171.27,0,0,1-5.78-41.58q14.11,2.54,28.25,5.28a131,131,0,0,0,1,13.69,18.56,18.56,0,0,0-3.81.24c-.3,1-.59,2-.89,2.94-1.91,0-3.14,3.27-3.14,3.27-1.56.29-2.79,2.2-2.26,2.87s-.88.62-.88.62v4.26l-.87,1.2c.06,1.56.12,3.12.17,4.69,1,.19.88,2.29.88,2.29-1.74-.13-1.4,2.46-1.4,2.46l-3.66.67-.7,1-4.54-1-1.22,1.13h0c-.38-1.33-.75-2.66-1.11-4l-4,.38c.12.47.26.93.4,1.4l-5.18-.92c-.12-.35-.23-.69-.35-1l-1.74-.7-.18-2.17-2.61-.26c-.18.35-.35.71-.53,1.07l-2.79-.29c.17,2-2.79,4.37-3.14,3.54s-2.28-3.31-1.4-3.54a18.35,18.35,0,0,1,3.14-.24v-1.36l-6.45-1.29-.71,1.06-2.61-.26v3.11l-1.22.19c-.88.44.17,2.74.17,2.74,1.22,1.56-.17,3.47-.17,3.47-1.05,1,.86,3.44.86,3.44,1.41.61-.86,1.41-.86,1.41a4.38,4.38,0,0,0,1.39,2.75,2.32,2.32,0,0,0,.7,3l.18,3.33,1.22,1V504l.69,1.47,2.79.47c-.05-1.63-.11-3.25-.17-4.88-2.44-3.52,2.09-3.52,2.27-2.33s2.1,2.11,2.1,2.11c.35,3,3.31,5.21,4.18,2.47s1.58-.9,2.1.55,3.83,5.33,3.83,5.34l2.63.46c.11.93.23,1.86.35,2.79,3,.34,3.84.89,5.06,5.57a10.47,10.47,0,0,0,4.53,6.46l2.45.26c0-2.33,2.45.85,2.45,2s4.71,6.51,4.71,6.52l4.7,2.06.88.94q4.34,6.84,9.27,13.39-11,9.91-22.07,19.93a234.8,234.8,0,0,1-41.14-84l-4.09.48a245,245,0,0,0,91.46,134.59l2.07-3.6a234.59,234.59,0,0,1-45.35-43.69q11-10,22.06-19.9a190.05,190.05,0,0,0,38.68,36.93c.68-1.19,1.37-2.38,2.06-3.57a184.57,184.57,0,0,1-37.79-36l4.1-3.67a5.57,5.57,0,0,1,.46,1.73c.35,3,1.57,2.64,1.57,2.64l10,1.84,3.5-2.58,8.9,1.66c4.54.75,1.75-6.63.88-6.81a3.28,3.28,0,0,1-.55-2.47,142.46,142.46,0,0,0,22.92,19.55l2.06-3.55a136.68,136.68,0,0,1-26-23c-1.58-1.93-3.15-3.87-4.73-5.81q11-9.76,22-19.45a94.21,94.21,0,0,0,24.29,21.58,80.58,80.58,0,0,0,7.41,4c-.44.32-.68.66-.58,1,.35,1-1.39,1.64-1.39,1.64l-1.58.23-1,1.52-2.09.32-.36,4-1,.55v1.74l-1.22.13v1l-1.75-.18,1,3.14,1.4,1.08c2.45.91,1.4,4,1.4,4l1.39.5c.24.76.47,1.52.71,2.28l1.38,3.4c.53,2.45,2.1,2.21,2.81,2.16s1.38,2.64,1.38,2.64l7,1.72s-.34.69.88,1.35a39.11,39.11,0,0,0,5.79,1.73v3.42a114,114,0,0,1-37-16.56l-2.06,3.54a118.77,118.77,0,0,0,39.07,17.58v30.95a152.48,152.48,0,0,1-53-24.41l-2.06,3.56a157.42,157.42,0,0,0,55.07,25.42V650c-24.78-5.74-48.7-17.08-70.46-32.92l-2.07,3.58c23,16.8,48.36,28.68,74.62,34.41,27.54,6,54.09,4.73,78-3.62A128.74,128.74,0,0,0,752.38,625a146.61,146.61,0,0,0,33.41-45.48l0-.05c11.28-23.58,17.27-50.8,17.27-79.91a222.36,222.36,0,0,0-12.56-73.06,243.42,243.42,0,0,0-38.12-69.57,238.13,238.13,0,0,0-57.71-53.31v0C674.36,290.42,652.51,281,630,276h0c-27.81-6.07-54.11-4.5-77.42,3.55-33.69,11.61-61.12,36.92-77.82,71.21C463,374.87,456.94,402.58,457,431.57Zm67.85,9.61q-14.13-2.74-28.26-5.29c.3-21.32,4.77-41.13,13-58.38a111.74,111.74,0,0,1,24.64-33.95h0q10,12.94,20,26a87.81,87.81,0,0,0-19.69,27.58h0A109.65,109.65,0,0,0,524.81,441.18Zm67.5-14.58c0,2.14-3.32-1.68-3.32-1.68l-6.11-6.16c-3.49-4.23-8.73-.88-8.91.05.1,1.49-1.08,1.28-2.18.78A53.62,53.62,0,0,1,582.1,406h0q8.55,11.19,17.09,22.4l-1.65-.43c-.7,1.6-2.44-.72-2.44-.72C594.75,426,592.3,426.6,592.31,426.6Zm.73,37.25L592,464l-.36-.85c-.17.67-.35,1.34-.52,2l-3.14-.67c-.06-.79-.11-1.57-.17-2.36l1.92-.17.69-1,.29-1.6,2,.42C592.71,461.1,592.85,462.48,593,463.85Zm-29.19-42.51c1.4.1-.52,3.19-1.4,2.82l-2.43-.31-.88.78-2.27-.47c-.35.45-.7.89-1,1.34l-3.32-.88s-1.92,1.36-1.74,2-.36,2.25-.88,2.14-1.57,1.43-1.22,2.09-1,2.3-1,2.3c-.12.63-.23,1.25-.35,1.88l-1,.17v5.24l-2.09,1.13v2.33l-1,.93L529,442a105.47,105.47,0,0,1,9.13-42h0a84.29,84.29,0,0,1,19-26.64h0q11,14.37,22.08,28.82a57.55,57.55,0,0,0-11.5,15.53c-.78-.18-1.51-.16-1.72.44-.52,1.43-2.79.58-2.79.58l-.36.7-1.74,0c-.12.36-.23.72-.35,1.08l-2.1,0ZM550.94,446c-2.11-1.79-1.05-6.62-1.05-6.62,1.44-2.08,3-2.51,4.29-2.32h0a5.64,5.64,0,0,1,2.87,1.46l2.44.32a5.32,5.32,0,0,1,1.26,1.75c-.21,1.76-.37,3.54-.46,5.35a6.79,6.79,0,0,1-.45.73,3.33,3.33,0,0,0-.38,1.45l-6.63-1.37,0-.17ZM560,370.7a74.94,74.94,0,0,1,25.88-14.32c13-4.12,27.21-4.83,42-1.92v34.18a58.44,58.44,0,0,0-27.51,1.19,52.35,52.35,0,0,0-18.29,9.7Q571.08,385.09,560,370.7ZM584,352a78.57,78.57,0,0,0-26.89,14.92q-10-13-20-26a99,99,0,0,1,33.77-19.2h0c17.54-5.83,36.91-6.83,57-2.77v30.94A87.5,87.5,0,0,0,584,352ZM534.17,547c-1.63-2.16-3.2-4.35-4.73-6.56l.73.14c.27-1,.87-1.23,1.57-1.07a7.29,7.29,0,0,1,3.83,3.49,4.92,4.92,0,0,0,1.18,1.69Zm4-85.15c.87-.21.69,2.66,0,2.91s-2.63.64-1.58,1.62-2.79,0-2.79-1.13-2.09-2.55-2.61-2.26c-.31.17-.72-.53-1-1.16A124.88,124.88,0,0,1,529,446.56h0q6.12,1.19,12.24,2.42c0,.38.09.75.13,1.12l-2.62,2.58c.12,1.06.23,2.12.35,3.18l-1.57.26c-.12.43-.24.86-.35,1.3l-.69,3.93Zm18.89,64.68q-2.15-2.88-4.14-5.88a8.41,8.41,0,0,1,1-2.26c2.26-1.09-.53-4.18-.53-4.18.35-2.27-1.22-5.3-1.22-5.3a8.39,8.39,0,0,1-2.27-7.26v-3.11c-2.62-3.25,1.05-2.89,1.05-2.89,1.21-2.07-.88-4.25-.88-4.25-.06-.85-.12-1.7-.17-2.55l-2.8-1c-.11-3.07-.23-6.13-.34-9.19q-3.15-5.58-6.28-11.16c-1.23-.64-.36-2.8-.36-2.8,1.57-.65-.35-3.36-.35-3.36l-.18-4.3,3.67.35.88-1.38,1.74.36c-.06-1.7-.11-3.39-.17-5.09.32-.86.81-1.17,1.31-1.2h0l.87.17a4.08,4.08,0,0,1,.79.47l2.44.7c.08-.15.16-.31.25-.46l8.3,1.71c.24,1.71.47,3.41.7,5.12l-2.27,1.65c-1.92.78-1.92,3.49.17,4.51,1.4.48.88,4.06-1.21,1.11-2.85-.59.88,2.71.57,2.55,2.88,2.05,2.22-1.2,2.22-1.2l1.57-1.07a96.23,96.23,0,0,0,2.78,11.75,100.57,100.57,0,0,0,15,29.85Q568.13,516.77,557.09,526.57Zm25-22.14a95.31,95.31,0,0,1-13.86-27.53,88.51,88.51,0,0,1-3-13.13h0a9.93,9.93,0,0,1,3.15,4.31c0,.58,7,1.66,7,1.66,1.92,1.77,2.62,5.41,2.62,5.41,1.93-2.32,5.94,1.07,3,2,2.8,2.52,2.8,4.27,2.8,4.27,2.27-.28,2.28,1.66,2.28,2.24a18.78,18.78,0,0,0,.69-2.76c-2.62-2.7,3.49-2.17,1.74,1.34l-1.05,1.52,1.76,1.93c.05,1.5.11,3,.16,4.49,3.85.45,2.8-5,2.8-5l1.74,0c0-1.74,1.23-.5,1.23-.5-.85-4.77.82-6.35,1.92-6.88a54.73,54.73,0,0,0,5.09,9.06Q592.11,495.6,582.1,504.43Zm45.83,10.81c-.24-.12-.46-.2-.72-.35v1.36l-1.4-.11,1.22,1.8.9.33v3.17l0,.19c0,2.52-5.75-.48-6.28-1.17l-.18,3.45-1.05,0,.18,2.37-.18,3.26,1.92,0v1.36l4.72,1.22.9-.86v3.59l0,.18-3.15-.3-1.39.48-.52-1.29-1.4-.3c-.28.38-.57.75-.86,1.13a75.73,75.73,0,0,1-12.08-5.84h0a88.16,88.16,0,0,1-23.43-20.57q10-8.83,20-17.62a46.7,46.7,0,0,0,21.78,15v.07s-.65,1.6.13,2.07c.09.05.12.09.19.13.5.34.38.47.72.93l-.39.94a.87.87,0,0,0-.08-.1c-.6-.83-.95.62-.57,1.12s-.92-.05-.92.53-.39.78,0,1.17-.13.41-.65.73,2.22,1.06,2.22,1.06-.52-1.28.13-1.14l.29.08ZM706,646.89c-22.28,7.79-47.35,9.49-73.92,4.05V616.76a120.37,120.37,0,0,0,37.08,1.87l3.05,1.67.87,3.29,1.4.1,1-.74,4.19.7,2.1-1.69,2.27.1q8.22-5.92,16.45-11.88a102.79,102.79,0,0,0,25.29-16.13h0q11,14.24,22,28.35A125.85,125.85,0,0,1,706,646.89ZM640.65,508.11l.09-.92c.82-.09,1.63-.21,2.44-.35h0a4.31,4.31,0,0,0,.26,1.1l.87.58-1.57,1-1.4,1.45-1.74-1-2.09-.65c-.24-.5-.47-1-.71-1.51l-1.21-.46-.18,2.68-.87,1-2.09,1.88c2.19.48.72,1.45-.35,1.78V507a33.3,33.3,0,0,0,6.64.39c.21.25.33.43.33.43Zm-.71-5.59v-4.25l1.75-1.76a.86.86,0,0,1,.36,0h0c1.46.32,1.16,4.12,1.08,5.41A27.24,27.24,0,0,1,639.94,502.52Zm-6.1,23.12,4-.09c.35-1.87,2.09.84,2.09.84A2.33,2.33,0,0,1,642,528l2.27.89c1.92,1,.76.94.87,1.74.17,1.2,1.05,1,1.05,1,.12-.81.23-1.63.35-2.44l1,.42-1-1.59-1.92-1.39-2.1-1.42c-1.4-2.45.36-1.67,1.75-1.17l2.27.49S649.2,529,649.2,530s1.22,1.43,1.22,1.43l1.57.14.52,1.47,1.58.35.52,1.27,3.14.68.18-1.7-3-1.23-.18-2-2.09-1c-.7-3.44.53-4.14,1.4-2.4l1,.41c-.12-1-.23-2-.35-3l1.22-.13c-.12-1.38-.23-2.77-.35-4.15l-1-.61v-1.36l4.36,1.14a6.84,6.84,0,0,1,.18-3.64h0l1.22.26c.06.34.12.67.17,1l5.34,1.7.25.09c2.09,1.8,1,3.33.35,3.56a4.76,4.76,0,0,1-1.92,0c-.12.24-.24.47-.35.71l-4.54-.6c-.12.62-.24,1.24-.35,1.87-2.27-.88-3.14,1.64-2.62,3.11a3.41,3.41,0,0,1,0,2.53l1.92,1.38,2.44-.24c.36-1.87,1.92-1.92,3.32-2.78s3.67,2.92,3,4.32c-.09.18-.14.29-.2.44a49,49,0,0,1-8.4,3.56,52.13,52.13,0,0,1-14.61,2.38l-.19-.19-1.92-1c0-1-.11-2-.16-2.94-.35-2-3.67-2.74-3.5-1.35s-6.23-.77-6.27-.78v-5.35Zm10.64-101.27c-.17.92-1.91,1.13-1.91,1.13s-1.4.27-.87,1.17-1.05.93-1.05.93a4.94,4.94,0,0,1,.05,1,39.86,39.86,0,0,0-8.61-3.51v-31a73.87,73.87,0,0,1,23.32,10.61A89.7,89.7,0,0,1,675,422.86l-1.13,1c-.57-.74-2.47-1.53-2.47-2.22s-1.74-2.12-1.56-.91a1,1,0,0,1-1.58,1c-.35-.46-1.4.86-1.4.86,0,.58-.34,1.29.7,1.71s3-.14,3.15,1.06a9.3,9.3,0,0,0,.2,1.09L664,432.54a10.51,10.51,0,0,1-1.84-.48c-.52,1.64-3-.82-2.27-1.84a3.46,3.46,0,0,0,.7-1.78l-.87-.39-1,1.9c-2.44-.53-3.14.88-2.61,2s-.7-.34-1,.94.18,1.4,1.23,2.2-.54.47.16,1.59c.45.72,1.45.77,1.81,1l-1.32,1.17a5.83,5.83,0,0,1-2.59-.48.84.84,0,0,1-.51.75,50.53,50.53,0,0,0-9.2-8.1c.54-.32,1.43-.12,1.86-1.33a30.28,30.28,0,0,0,1.05-5.41S644.66,423.44,644.48,424.37ZM693.71,394l.79.28c.56.62,1.11,1.25,1.66,1.89v1.65c1.22-.09,3.1,1.89,3.44,3.27q-10.85,9.63-21.7,19.19a95.08,95.08,0,0,0-21-19.45,78.75,78.75,0,0,0-24.84-11.24V355.38a113.81,113.81,0,0,1,36.25,16.06h0q4.67,3.1,9.14,6.68a2,2,0,0,0,.55.44,139.75,139.75,0,0,1,14.1,13.1v0A3.61,3.61,0,0,0,693.71,394Zm14.64,18.41.85,1.34c.11,1.31.11,3.15,2,3.26h.05q3.36,5.65,6.18,11.54l.05.21h.06c.29.62.59,1.25.88,1.89a2.72,2.72,0,0,0-.59.68l-2.79-.17v3.11l-1.4.29c.06.66.11,1.32.17,2l1.92.19s0,2.34.53,1.46,4.89,1.18,4.53,3.44c-.13.93,4.37,4.36,3.85,7.36a2.76,2.76,0,0,1,.88.51c.84,2.83,1.58,5.67,2.23,8.54-.1.21-.21.41-.32.62a7.35,7.35,0,0,1,.64.74q.81,3.75,1.41,7.51c-.14,2.1-.57,4-1.54,4.47-2.09.94.18.61.18.61-.11,1.4-.23,2.81-.35,4.21.53,2,1.39,1.24,1.92.38a3.3,3.3,0,0,1,.87-1c.27,3,.44,5.95.5,8.93q-10.54-2.07-21.1-4.22c.1-.14.35-.45.35-.45l.87-2.55,3-.36c.11-.81.23-1.63.34-2.45l-1.56-.51s1.74-3.14,2.61-3,6.64,1.34,7.15,1.05,1.58-3.17,1.58-3.76,1.39-.5,1.92-.58a5.45,5.45,0,0,0,2.09-2.12c.36-.71-.86-5.81-1.57-5.16a4.38,4.38,0,0,1-2.26.71c-.18.68-.35,1.36-.53,2l-.87.6a5.21,5.21,0,0,1,0,1.94c-.18,1.33-1.74,1.8-1.74,1.79-.24.28-.47.56-.71.83a30,30,0,0,1-4.7-.95c-1.58-1.1-.52-3.21.52-2.8s-.17-3.34-.17-3.34l1.39.09s.17-3.46.7-3.36-.17-1.19-.88-1.91-1.57-2.85-2.26-2.79a21.93,21.93,0,0,1-3.5-.71c-.18.35-.35.71-.53,1.07l-1.92,0s.17,1.54-.16,1.91c-1.05,1.15-5.06,3.23-3.32-1.26.17-.36.35-.71.52-1.06v-1.75l-3.14-.83s-1.57-.91-1.57-1.69a12.84,12.84,0,0,0-.17-1.77L697.71,442l-4.35-1.49c-.12-.35-.23-.7-.35-1l-2.61-.94a8.31,8.31,0,0,0-1.15-.74c-1.23-2.41-2.56-4.78-4-7.08,0-.16-.08-.35-.1-.46-.16-.73-2.08-4.09-3.13-4.45-.4-.57-.78-1.13-1.18-1.69q10.85-9.57,21.69-19.22a20.23,20.23,0,0,0,1.64,2.16,2.48,2.48,0,0,0,1,.65c.58.81,1.13,1.62,1.68,2.44l-.39.49C706.45,412.82,707.41,412.38,708.35,412.38Zm10.13-8.66c.36-3.42,3.32-1.67,3.5-.47s.69,3.83.69,3.83l.87,1.91,1.23,1.61,1.92.19.53,1.26,2.27.84a27.17,27.17,0,0,1,2.09,3.32c.18.61,2.79.94,3.49,1.26a3.35,3.35,0,0,1,1.91,2.12,11.63,11.63,0,0,0,1.23,2.76s2.09,1,2.27,1.79a21.9,21.9,0,0,0,1,2.72l1.74,1.89c.06.59.12,1.19.17,1.78l1.92.56c.18.81.35,1.61.53,2.42l3.14.4,1.75-1a10.07,10.07,0,0,0,1.47-.73q1,2.53,1.84,5.12a173.21,173.21,0,0,1,9.35,53.36q-14.12-2.52-28.24-5.28a134.46,134.46,0,0,0-1.36-16.49c.18-.74.28-1.42,0-1.75-.53-.69.52-3.2.52-3.2a4.08,4.08,0,0,0,0-3.11,4.08,4.08,0,0,1,.69-3.95l-1.39-1-1.4-.46h-1.06c-.32-1.3-.67-2.6-1-3.89h0l.87.37v-1.17l-1.27-.64c-.24-.85-.51-1.71-.78-2.55-.07-1.35-.14-2.7-.22-4.05l-1.21-1.2.34-1.49-1.39-.86.7-2.38-1.23-3-1.76-.35c-.84-2-1.72-4-2.65-6a1.69,1.69,0,0,1,.75-.21,4.65,4.65,0,0,1,1.38-.05l-.15-2L722,424.41c-.17-.81-.35-1.62-.52-2.44,0,0-1.93,0-1.75,1.21a.5.5,0,0,1-.31.55q-1.83-3.59-3.85-7.07c.05-.1.09-.2.14-.31.7-1.21.35-2.06-.87-2.69s-1.23-.64-1.58-2.27a3.47,3.47,0,0,0-1.74-2.29c-.17-.81-.35-1.62-.52-2.43l-1.31.63c-.69-1-1.39-2-2.11-3l.63-2.06a2.19,2.19,0,0,1-1.24-1.29l5.49-4.87c2.43,2.06,4.25,6.05,3.94,6.67S718.48,403.72,718.48,403.72Zm32.44,148.72a112.11,112.11,0,0,1-25.13,35l-.76-1c-.09-1.65-.17-3.3-.25-5l-.88-1.14c0-1.63-.11-3.26-.17-4.89.7-2.39-3.31-6.87-3.66-6.16s-2.62-.34-2.62.44-1.39,4.38-.7,5.88c0,.07,0,.14.09.22l-11-14.26a88.07,88.07,0,0,0,20.25-28.78h0a110.66,110.66,0,0,0,9.08-42.91h0q14.13,2.73,28.25,5.28c-.29,21.2-4.77,40.55-12.53,57.24ZM702.08,595c-2.26-.76-1.22-3.16.87-3.12l1.22-.33v-1.74l4-3.25v-3.11l-8.71-9.75c-1.79-1.08-1.9-3.49-1.27-5.69,1.6-1.16,3.19-2.39,4.73-3.69h0l7.69,10c-.36,1.34-1.57,1.92-2.25,1.2s.87,1.15,1.22,2,1.4,1.06,1.75.36a9.11,9.11,0,0,0,.32-2.21c1.18,1.53,2.36,3.07,3.55,4.6a4.05,4.05,0,0,0-.73,2.51l1.58,1.09c.05,1.11.11,2.23.17,3.34,1.17,1.55,3.81,2,5.92,2.06.24.31.47.62.71.92a99.38,99.38,0,0,1-21.13,14v-1.86C704.88,600.4,705,596,702.08,595Zm-7.68-52.43c.41-.3.82-.6,1.22-.91V539.7l1.06-.17c.05-1.41.11-2.82.16-4.23h.87V526l-2.61-3.26c-.18.93-3,.35-3,.35s-.69,1.21-1.22,1.1.7,1.89.35,3-1.75.79-1.75.79l-2.62.23-.69.82-2.8-.59c-.07-.58-.15-1.16-.23-1.74.29-.31.56-.63.83-.95l2.2-.21,1.74-.6.87-1.75c.18-1.91,2.28-1.27,2.28-1.27s4-2.85,4.18-4.55,1.57-6.27,4-5.77l4.54.94c1.74-.42,1.21-3.05,1.21-3.05l2.27.08.36,1.43s3.14,1,3.48.53,1.05-1.73,1.93-1,3.66-.61,3.66-.62c.18-1.31,4.54.15,4.54.15.17-.55.35-1.1.52-1.65,0,0-3-5.05-3.48-5.16s-3.32-3.38-3.67-2.49c-2.79-1.33-2.62-5.58-2.62-5.58-.35-1-.7-1.95-1-2.92,0-1.56-2.62-5.39-3.15-5.11a3.77,3.77,0,0,1-1.31-2.93h0q12.26,2.51,24.49,4.91a105.59,105.59,0,0,1-8.63,40.77,84.79,84.79,0,0,1-19.34,27.7c-.34-4-1.15-8.42-1.15-8.42l-1.39-1.06c.11-1.53.23-3.06.34-4.6l-1.91-.39-3.15,3.81c-.11.39-.23.78-.34,1.16l-1.79-2.34.92-.82Zm-27-34.65c-.11-.51,1.08-.9,1.86-.71h0a.73.73,0,0,1,.59,1,3.24,3.24,0,0,0,0,2.53c2.26-1.85,4.18,1.08,4,1.63s1.22,1.42,2.09,1,1.92,2.15,1.57,3.23-3.49.24-3.66-1-.71-.94-1-.42-1.47.52-2.36.07l-.74-1a.58.58,0,0,0,0-.74,1.35,1.35,0,0,0-.9-.48l-1.59-2.08C667.15,509.86,667.45,508.4,667.35,507.89ZM685,440.06c.52,3,1.39,4.38-.35,4a2.76,2.76,0,0,1-2.1-2s-1.38-.88-1.38-.11-.53,2.22,0,3.11-.71,1.79-1.23,1.09-1.92-2.73-1.58-3.23-2.43-4.8.36-4.78-.18-2.37.87-2.53l1.4-.48,1.39.3.85-.58c.67,1.14,1.31,2.28,1.92,3.45A3,3,0,0,0,685,440.06ZM681,434l-1.4-.49-2.62-.76a6.1,6.1,0,0,0-3.14,3.6c-1.2,2.25-3.82-1-3.74-2.75l4.64-4.1a6.62,6.62,0,0,0,.84.24,26.61,26.61,0,0,0,3.32.31,18.6,18.6,0,0,0,1.93.89c.83,1.28,1.63,2.59,2.39,3.91ZM669.2,537.44c.09-.05.2-.1.29-.16h0l4.14,3.2c.52.88,2.79,1.17,2.79,1.17l.7,1.13a3.19,3.19,0,0,1,2.27,1.45c.87,1.34,5.41,1.34,5.41,1.34L686,547l1.91,1.19,3.23.79,2,2.63c-3.16.92-9.56-1-10-1.52a39.69,39.69,0,0,0-4.17-3.21s-2.8-3.12-3.32-2.46-3-1.6-3-1-2.27-1.85-2.27-1.85L667,539.44l2.62,0Zm-35,34.47h0a7.69,7.69,0,0,1,.9.2A6.8,6.8,0,0,1,638,573.7a5.65,5.65,0,0,0,4.54,1.58l1.93,3a93.3,93.3,0,0,1-12.39-1.57V572.1a3.33,3.33,0,0,1,2.1-.19ZM646.56,583c.12.33.24.65.37,1l3,1.61,2.09,1c.23,1.15.47,2.3.7,3.44l1.56.54c.18.75.36,1.5.53,2.25,1.92,2-.53,4.74-.53,4.74v4.27l1.4,1.07-.18,1.52,2.28,3,2.62.76,4.33,6a116.8,116.8,0,0,1-32.6-2v-31A97.17,97.17,0,0,0,646.56,583ZM782,576.55h0a143.49,143.49,0,0,1-31.22,43.12q-11-14.1-22-28.32a115.6,115.6,0,0,0,25.89-36h0c8.21-17.6,12.66-37.78,13-59.44q15.61,2.76,31.21,5.21C798.5,529.06,792.49,554.63,782,576.55Zm4.61-148.89a216.86,216.86,0,0,1,12.21,68.92q-15.6-2.43-31.2-5.2a178.69,178.69,0,0,0-9.7-55.21c-.88-2.59-1.83-5.16-2.82-7.73.29-1,.83-2,2-1.38,1.74.9.53-4.18.53-4.18s-2.44-2.39-2.27-3.32-2.45-3.36-2.27-4.11-2.27-2.74-2.1-3.5-1.22-3.13-1.22-3.13l-2.61-3.21-.36-1.81-2.09-.59-4.19-6.42c.06-.51.11-1,.17-1.52l-1.22-.43v-2.13l-1.22-1-1.92-.56-3.84-5.41c-.12-.73-.23-1.46-.35-2.19l-1.92-.38.28-3.23q10.2-9.17,20.38-18.44A237.22,237.22,0,0,1,786.61,427.66ZM632.08,281.11a191.68,191.68,0,0,1,61,26.46v0a232,232,0,0,1,54.76,50.15q-9.35,8.49-18.69,16.89a3,3,0,0,1-1.81-.34c-1.22-.81.52-1.84.52-1.84v-1.55l-1-1.37s-3-.2-3.14-.81-.69-3.24-.69-3.24l-.18-3.34-1.22-.82c-.06-.4-.12-.8-.17-1.2l-1.93-.19v-2.34l-1-.59-1-.79c-.06-.79-.11-1.58-.17-2.37l-3.84-1-1.23-2.19c-.46-.88-.93-1.75-1.39-2.62l-4.36-1.27-1.05-1.38-1.74-.75-1.23-.84-.53.87-3.31-.5c-.06.38-.12.76-.17,1.13-1,.36-3.84-.26-6.06-.74-3.49-2.66-7-5.19-10.65-7.55-.5,1.3-1,2.61-1.52,3.92,2.91,1.91,5.79,3.93,8.6,6-.2.63-.45,1.06-.85,1-.87-.19-.53,2.42-.53,2.42a21.66,21.66,0,0,1,3,.82c.7.33.7,2.27.7,2.27,2.61.36,3.66,4.46,3.32,5.36s1,1.18,1,1.18a16.9,16.9,0,0,1-.35,3.81c-.35.7,2.27,1.83,3,3.14s-.35,5-.88,5.06,1.4,1.06,1.23,2,.52.11.69,1.71.53,4.95.53,4.95l2.44.71c.35-2.45,4.85-1.63,5.59-1.18,3,1.77,5.24,7.28,5.24,8.44s-1.93,1-1.93,1c0,.42,0,.84.08,1.27l-6.12,5.45c-.63-.56-1.26-.89-1.63-.73-.87.4-.52-4.19-.52-4.19s1.57-.84,2.26-.11-5.93-10.93-7.32-10.24-4.54-1.93-4.36-3.64-6.29-8.88-6.29-8.89-2.09-2-2.44-.89-1,1.72,0,2.52.86-.79,2.09.83,3.5,3.84,2.62,4.82a3.64,3.64,0,0,1-1.93,1.15l1.23,1.81,1.92.4c.12,1.13.24,2.25.35,3.37a9.36,9.36,0,0,1,2.62,3.07,4.08,4.08,0,0,1,.33,2.14,143.71,143.71,0,0,0-12.19-11.4,2.79,2.79,0,0,0,0-1c-.36-1.44,1.4-1.64,2.27.09l1.74.18c.12-.56.23-1.11.35-1.67l-2.44-2.66-1.92-.4s-.18,1.51-1.4.68-.52-.51-1.57-.93-.76,1.81-.58,2.85c-2.69-2.1-5.45-4.09-8.25-6a118.68,118.68,0,0,0-37.78-16.71v-17c1.13.27,1.63-.09,1.75-.58.17-.75.35-.9,1.4-.87s-.18-2.56-1.23-2.59a2.56,2.56,0,0,1-1.92-1.07v-8.8a151.08,151.08,0,0,1,48.1,21c.51-1.3,1-2.61,1.52-3.92a155.54,155.54,0,0,0-49.63-21.69ZM629.66,429c.12,1.57.23,3.15.34,4.73l-1.92-1.15-1.22-.26c-.17-.43-.35-.85-.52-1.28l-1.05-.42v4.26l1.05,1.2.87,1.16,1.74.57.36,2.41,4.35,1.15.53,1.08,2.61.77,5.07,6.72c-.12.56-.24,1.12-.35,1.67l-.87.39c.34,1.44-2.27.09-2.27.09v1.16l1.22.46,1.23,1.05,1.74-2.92c1.92-.94,2.79,1.19,3,2.4s-.87.77-.87.77v2.72l1.05.62c1.74,2.7-.71,3.53-.71,3.53-.17.61-.35,1.22-.52,1.82-.52,1.64-2.44.83-2.44.83l-.69,1-2.1.12,4.15,1.49c.39-1.47,1.44-1.63,2-.74a5.16,5.16,0,0,1,.53,2.24l1,.43c-.06.69-.12,1.39-.17,2.09l1,.62v6.21l1.22,1.81c2.09-.51,2.09,1,1.05,1.59s-.36,4.19-.36,4.19l-.87.79V488l-1.05.54v2.14c-1.75-1.36-3.85-1.42-4.37-1-1.57-1.51-4.88-1.85-4.88-.87,1.05,1.78-1.22,1.67-1.22,1.67l-1.23,1.28c.88,2.14-.86,1.95-.86,1.95v3.7l-2.1,1.67.12,3.44A31.57,31.57,0,0,1,630,502c-8.17-1.78-15.89-6.67-22-13.85a.73.73,0,0,0,.32-.28,2.63,2.63,0,0,1,2.27-1.26l.52-1.24,4.72,1.22c.34-2.06,2.61-.79,2.61.18s1.74.57,1.74.58l1.22-1.87,1.92.42.18-2.29.87-.39v-3.49c2.8-.36,2.45-3.36,2.45-3.36l.69-.81c-.11-.48-.23-1-.34-1.44-1.4-.89-.71-2.09.18-1.51s-1.23-2-1.23-2c-1,.76-1.91-1.57-1.91-1.57l-2.63-.58v-2.71c-.11-.87-.23-1.74-.35-2.61l-2.61-1.92-1.92,1.52-.36,2.64v1.75h-1.74c-.12,1.72-.23,3.44-.35,5.16l-1.39.28c.05.66.11,1.32.17,2l-1.92.16-1.92.17c-.11.81-.23,1.63-.35,2.44l-1.39.68c-.24.72-.47,1.44-.71,2.17q-.42,2.65-.85,5.31a48.83,48.83,0,0,1-6-10.73,14.53,14.53,0,0,0,.37-2.58c-1.57-1.12-.7-3.65,1-.94s-1-4.88-1-4.88l-1.4-1.66-1.81-.58a45.47,45.47,0,0,1-.41-5.79c0-.8,0-1.59.09-2.37a.9.9,0,0,1,1.09,0l1,1.2,1.58,1.7c0,.4.11.8.17,1.2l-1,.35c-.06.51-.12,1-.17,1.52.17.75.35,1.5.52,2.24l1.4.31c.52-3,4.19-2.2,5.24,0l1-2.49c-2.45-1.89,0-3.5.65-2.39s2.31-2,2.31-2,1.23,2,0-.59.87-3.29.87-3.29c-.35-2.41,2.27-1.46,2.27-1.46l.18-3.06-2.45-.73c-.52,2.6-2.62-.18-1.57-.53a7.06,7.06,0,0,0,2.09-1.3v-1.93l1.05-.16c.06-.64.12-1.27.17-1.91l2.63.57,2.26-.67.53-.85,2.45.34,3.48-2.74-.34-1.62c-2.09-.46,0-1.75,0-1.75l.34-2.82-1.92-.42c-.11-1.4-.22-2.8-.34-4.19a29.79,29.79,0,0,1,7.33.62Zm-1.74-35.84v31a31.9,31.9,0,0,0-10.6.05h-.06c-.06-.72-.12-1.45-.17-2.18l.88-.38-1.41-.89-1,1.32c-.11.56-.23,1.12-.35,1.68h-1.75v1l-1.22-.26v1.15a28,28,0,0,0-7.13,3.95q-10-13.14-20-26.25a49,49,0,0,1,17.27-9.11h0a55.26,55.26,0,0,1,25.59-1.05ZM554.48,284c22.57-7.75,47.52-9.08,73.44-3.77v34.18c-21.14-4.27-41.12-3-58.93,3a102.62,102.62,0,0,0-34.78,19.81q-11.06-14.3-22.11-28.49A125.35,125.35,0,0,1,554.48,284Zm-45.32,27.39h0q11,14.16,22.1,28.44a115.93,115.93,0,0,0-25.35,34.91c-8.39,17.54-13.22,38-13.52,60.44q-15.61-2.76-31.21-5.2c.31-27.86,6.26-53.86,17.21-76.4A143,143,0,0,1,509.16,311.36Z" style="fill: #fff"/>
    <path d="M424.76,515.39l1.29,1.31c-1.38-10.56-2.08-21.83.6-31.4,4.08-15.34,9.21-30.06,11.9-46.13,2.09-12.47,4.5-26.46,3.12-39-1.56,6.45-3.17,12.81-6.51,18-12.7,19.81-25.74,43.6-16.85,72-.2.27-.49.62-.83.38-3.57-9.46-4.37-19.83-6.69-29.78-6.15-26.43-24.18-49.62-18.9-78.79-2.79,6.19-3.93,13.36-5.4,20.24-3.11,17.89,0,37.42,4.51,54.53C396.63,478.08,415.3,495,424.76,515.39Z" style="fill: #fff"/>
    <path d="M784.31,666.52c-4.58,3.41-9.12,6.47-14.15,8.16l-.26-.34c5.56-4.53,11.56-10.07,15.87-16.2,13.75-19.65,9.17-50.31,19.78-71.88-9.64,11.17-18.67,22.71-24.22,36.24-8.93,21.74-12,47.85-32,61.84,21.67-3.74,46.68,2,66.2-9.24,20.51-11.74,39.52-32.94,43.43-58.77C844.57,650.72,808.36,648.77,784.31,666.52Z" style="fill: #fff"/>
    <polygon points="821.33 534.65 821.33 534.65 821.33 534.65 821.33 534.65" style="fill: #fff"/>
    <path d="M730.35,689.61c-4.29.16-8.32.92-12.93-.77,3.67-1.82,8.53-1.14,12.76-2.05,23.93-5.23,27.66-32.66,40.74-49.62h0c-16.72,9.23-30.56,23.27-46.21,35.84-10.88,8.74-24.43,10.63-38.5,10.79,3.38,2.07,7.8,2.68,11.44,4.42,25.25,12.13,53.26,28.49,80.14,23.34,17.34-3.28,35.39-15.46,44.16-33.08C798.85,704.19,761.19,688.58,730.35,689.61Z" style="fill: #fff"/>
    <path d="M868.15,466.24c5.28,30.21-12.75,49.92-18.91,74.85-2.32,9.41-3.11,19.61-6.69,28.22-.32.16-.62-.26-.83-.58,8.91-26.3-4.13-53-16.84-76.3-3.34-6.12-5-12.94-6.51-19.83-1.38,12.18,1,26.85,3.12,39.9,2.69,16.82,7.82,32.92,11.91,49.3,2.67,10.26,2,21.34.59,31.55l1.3-1c9.46-17.87,28.11-30.81,33.75-51.21,4.51-16.26,7.63-35.27,4.51-53.7C872.07,480.32,870.94,473,868.15,466.24Z" style="fill: #fff"/>
    <path d="M420.38,546.92c13.56,13.35,29.76,24.81,42.1,37.06-2.43-7.13-6.38-14-8-21.3-7.27-33.22-3.21-69.81-15.79-101.32h0c2.35,17.23-3.77,31.31-5.19,47.21a83.18,83.18,0,0,0,5.63,37.91c1.39,3.48,3.91,6.81,4.61,10.26-4.52-5.1-7.73-11.25-10.85-17.19-14.58-28-45.18-47.9-47.26-79.43-1.05,13.9.06,28.84,4.32,41.67C395.88,519.6,407.26,534,420.38,546.92Z" style="fill: #fff"/>
    <path d="M827.14,614.41c-3.12,5.12-6.32,10.39-10.85,14.2.7-3.24,3.22-5.86,4.61-9a73.83,73.83,0,0,0,5.63-36.38c-1.43-16.26-7.54-32-5.2-48.62-12.57,28-8.51,65.68-15.78,96.74-1.61,6.87-5.56,12.49-8,18.84,12.35-8.34,28.54-15.17,42.1-25.23,13.12-9.71,24.5-21.85,30.41-38.57,4.27-12,5.38-26.81,4.33-40.89C872.32,577,841.72,590.66,827.14,614.41Z" style="fill: #fff"/>
    <polygon points="868.15 466.24 868.15 466.24 868.15 466.24 868.15 466.24" style="fill: #fff"/>
    <path d="M721,712.18c-20.76-13.58-41.89-30.59-65.56-35.72a78.27,78.27,0,0,0-25.4-1.21c3.1,1.7,6.15,3.56,9.18,5.54a36.86,36.86,0,0,1,8.22.81C662.84,685,674,700.21,686.91,712c18,16.4,42.66,28.53,63.8,23.21,11.37-2.6,22.38-7.64,30.62-17.57C764.69,727.47,739.77,724.52,721,712.18Z" style="fill: #fff"/>
    <polygon points="489.11 579.76 489.11 579.76 489.11 579.76 489.11 579.76" style="fill: #fff"/>
    <path d="M510.7,634.76c-20-21.41-23.06-48.43-32-73.24-5.55-15.4-14.59-29.9-24.22-44,10.61,24.84,6,54,19.78,78.15,4.3,7.55,10.32,15.12,15.87,21.61l-.26.24c-5-3.45-9.57-8.06-14.15-13-24.06-26.08-60.26-33.62-74.66-70.67,3.9,26.61,22.92,51.87,43.44,69.57C464,620.2,489,622.84,510.7,634.76Z" style="fill: #fff"/>
    <path d="M562.39,659.17c3.64-.23,8.06,1,11.44.37-14.06-6.1-27.62-13.54-38.51-26.6-15.63-18.76-29.48-38.07-46.21-53.17,13.09,21.63,16.82,50.27,40.75,64.78,4.23,2.58,9.09,3.84,12.76,7.13-4.61-.16-8.64-2.52-12.94-4.37C498.85,634,461.19,636.88,438.09,605c8.77,20,26.82,37.52,44.16,46.77C509.12,666.08,537.14,660.77,562.39,659.17Z" style="fill: #fff"/>
    <path d="M564.13,707a115.52,115.52,0,0,0,9.94,12c17.14-15.79,36.58-32.57,55.95-37a63.3,63.3,0,0,0-9.18-5.14C599.18,681.57,579.49,694.07,564.13,707Z" style="fill: #fff"/>
    <path d="M604.62,665.41c-23.67-5.13-44.8,2.91-65.57,8.18-18.79,4.76-43.7-1.57-60.34-16.9,8.23,12.69,19.25,21.6,30.62,28.45,21.14,13.15,45.82,11.11,63.8,2.33,13-6.34,24.07-16.8,39.49-13.45a42.56,42.56,0,0,1,8.22,2.77,91.08,91.08,0,0,1,9.18-1.54A94.92,94.92,0,0,0,604.62,665.41Z" style="fill: #fff"/>
    <path d="M686,743.09a60.32,60.32,0,0,0,9.94-7.82C680.55,716,660.85,695,639.2,680.79a43.18,43.18,0,0,0-9.18,1.14C649.39,694.83,668.83,720.07,686,743.09Z" style="fill: #fff"/>
    <path d="M719.89,413.52a1.51,1.51,0,0,0,1.05,2,5.14,5.14,0,0,1,1.92,1.16,7,7,0,0,1,1.75,2.09l1.74-.24s.18-1.89-.53-1.46-1.21-1.6-1.92-1.54-1-1-1.74-2.09-.53-1.27-1.4-2a2.22,2.22,0,0,0-1-.62c-.24,0-.36.14-.36.53C719.37,412.05,720.24,412.61,719.89,413.52Z" style="fill: #fff"/>
    <polygon points="669.21 507.18 669.21 507.18 669.21 507.18 669.21 507.18" style="fill: #fff"/>
    <path d="M703.74,537.21l-1.22-.25v3.69l1.22.25Z" style="fill: #fff"/>
    <path d="M734.73,564.86l1.7.46c0-.52.09-1,.13-1.56l-1.7-.62C734.82,563.72,734.77,564.29,734.73,564.86Z" style="fill: #fff"/>
    <path d="M724.08,505c.7.33,1.4.86.7-1.6a1.89,1.89,0,0,0-1.43-1.36c-1.43-.39-3.28.41-2.76,1.3C721.64,505.05,723.39,504.62,724.08,505Z" style="fill: #fff"/>
    <path d="M784.7,550.51a1.44,1.44,0,0,0,.35,1,.89.89,0,0,0,.71.27c-.07-.39-.14-.77-.2-1.16a.36.36,0,0,1,.21.21s0-.18,0-.28a3.76,3.76,0,0,0-.28-1.26l-.93.37A2.73,2.73,0,0,1,784.7,550.51Z" style="fill: #fff"/>
    <path d="M785.1,553.68a23.39,23.39,0,0,1-.64-2.37h0l-1,.11c.26,1.23.65,2.46.67,2.51Z" style="fill: #fff"/>
    <path d="M620.05,490.24l-1.57-.15.18,2.75,1,1.2,1.92,1s2.62-.21,2.79-2.5l-4-1.07C620.28,491.06,620.17,490.65,620.05,490.24Z" style="fill: #fff"/>
    <polygon points="634.2 571.91 634.2 571.91 634.2 571.91 634.2 571.91" style="fill: #fff"/>
    <path d="M730.72,436.22c-.53.29-.89,1-1.41,1.48s1.05,1.56,1.05,2.15.36,3.55.36,3.55,1.21.83,1.38,1.64,0,2.33.53,2.62,1.57,1.27,1.23,2a6.77,6.77,0,0,0-.36,2.26l.7,1.89,1.4,1.23s.52-4.55-.36-4.91-.51-3-.51-3,.87-3.51-.53-3.78-.35-2-1.22-2.76-.35-3.37-.7-4.21-.35-1.81-1.22-2.57a.39.39,0,0,0-.25-.13C730.42,433.71,731.17,436,730.72,436.22Z" style="fill: #fff"/>
    <path d="M733.46,567h0c-.12.35-.23.7-.34,1a3.6,3.6,0,0,1,.33.25c.07.35.14.7.22,1.06-.09.11-.17.22-.23.28l.76.95a2,2,0,0,0,.62-1.87A3,3,0,0,0,733.46,567Z" style="fill: #fff"/>
    <path d="M737,463l-1-.35-.18,1.51,1,.36Z" style="fill: #fff"/>
    <polygon points="724.95 420.33 724.95 420.33 724.95 420.33 724.95 420.33" style="fill: #fff"/>
    <path d="M725,420.33l-2.09-.22c.53.88,1.58,1.67,1.58,2.46s-.36,1.28.69,1.69,1.74.14,2.1,1.18a7.31,7.31,0,0,1,.17,3.34c-.17.73.18,2,1.05,2.13s1,.41,1,1,1-1.93,1-1.93a10.57,10.57,0,0,1-1.57-2.83s-.87-2.88-.87-3.27-1.23-1-1.74-1.31A7.94,7.94,0,0,1,725,420.33Z" style="fill: #fff"/>
    <path d="M734.79,468.78l.93.7.53-1.06-.93-.7C735.14,468.08,735,468.43,734.79,468.78Z" style="fill: #fff"/>
    <polygon points="785.46 549.32 785.46 549.32 785.46 549.32 785.46 549.32" style="fill: #fff"/>
    <path d="M659.67,297.77l.29-.13,1.92-.95-.56-1.09-1.65.79-1.11-1-.56.87,1.4,1.27Z" style="fill: #fff"/>
    <path d="M645.35,310.47v-2.13l-.69-.94c-.24-.95-.47-1.91-.71-2.86l-2.26-1.27-2.27.47L637,305l-2.62-.18-1.4,1.44,5.59,1.8,1.05,2.17,4,1.26,2.61,3.48c2.27,1.27,2.8.22,1.4-1.44Z" style="fill: #fff"/>
    <path d="M710.11,345.77l2.63,1.5s3.27,4.88,3.14,2.76c-.35-5.89-2.79-6.58-3.66-7.92a1.73,1.73,0,0,0-1.1-.65c-1.41-.32-3.48.32-3.27,1.51A3.94,3.94,0,0,0,710.11,345.77Z" style="fill: #fff"/>
    <path d="M616.74,454.2l-1.92-.62c-.12.31-.23.61-.35.91l-.87-.19-.18,1.51,1.05.23.18,1.2-.7.62c-.12.3-.24.6-.35.9l-1.4.09-3.15,2.61c0,.5-.11,1-.17,1.51l-.87,1.18-1,2.68-3.66-.61c-.24,1.11-.47,2.23-.71,3.34.18,1,.35,2,.53,3l3.14,2,.36-1.85,1-.36c.06-.64.12-1.27.17-1.91.24-.4.47-.8.7-1.2s.7-.76,1.06-1.13l.33-1.48,1.76-.78,2.09.06.88-1c.11-.75.23-1.5.35-2.25l.12-1.72.75-1,2.09-.51v-3.68l-1-.22Z" style="fill: #fff"/>
    <path d="M664,304.82a7.11,7.11,0,0,1-2.61-.37l-3.15-.68a1.34,1.34,0,0,0-1-1h0c-.88-.28-2-.12-2.12.35-.18.73-1.22.7-1.22.7l-4-.48c-.36,1.09-2.45,1.4-2.63.59-.38-1.78-2.61,1.56-.34,2.84a8.07,8.07,0,0,0,4.53,1c.18-.35.35-.7.53-1l8.72,2.08a4.38,4.38,0,0,0,1-1.72s2.09-.33,3,.25S664.91,304.62,664,304.82Z" style="fill: #fff"/>
    <path d="M675.73,364.94c-.87-.18-2.44-1.68-2.09-2.38s-3-2.18-3-2.19-3-3.74-1.93-3.13.53-1.25.53-1.25a10,10,0,0,1-2.61-.36c-.53-.31-.36-2-.36-2a7.43,7.43,0,0,0-1.77-.63h0c-.18,0-.32,0-.32.18,0,.58.7.73,1,2s.17,3.14,1.74,3.87,1.92,1.18,2.1,2,2.09,1.42,2.09,1.42l1.4,1.08,4.19,4.77v-1.55S676.6,365.13,675.73,364.94Z" style="fill: #fff"/>
    <path d="M667.92,302.93l-.9-1.18-.73.67,1.22,1.62.33.44.36-.25L670,303l-.65-1Z" style="fill: #fff"/>
    <path d="M774.05,531.51a.22.22,0,0,1,0-.08h1a1.33,1.33,0,0,0-.58-.92,1.5,1.5,0,0,0-.65-.23h0a3.85,3.85,0,0,0-2.07.48l.58,1.07A2.38,2.38,0,0,1,774.05,531.51Z" style="fill: #fff"/>
    <path d="M661.59,336.11s-1.92-.61-1.92-1.2a.08.08,0,0,0,0-.07h0c-.13-.15-1.07,1.21-1.77,1.41.85.67,2,1.61,2,1.61a3,3,0,0,1,2.27,2.24c0,.59,1.91.8,1.91.8l.18-1.31-1.4-2.25Z" style="fill: #fff"/>
    <path d="M779.52,557.46l.21-1.1h0a1.93,1.93,0,0,1-.12-1l-1-.29C778.5,556,778.7,557.14,779.52,557.46Z" style="fill: #fff"/>
    <path d="M776.88,560.51c.66-.62,1.44.24,1.58-1.92.06-1.08-.15-1.43-.46-1.45s-.74.27-1.12.46C775.83,558.14,776.23,561.13,776.88,560.51Z" style="fill: #fff"/>
    <path d="M654.05,335.09l-.26-.08-1.74-.59c0,.38-.07.76-.11,1.14l1.5.5,1.09,2.12.87-.43-1.21-2.39Z" style="fill: #fff"/>
    <path d="M656,342.08v1.75l1.92.61-.51-1.68Z" style="fill: #fff"/>
    <path d="M657.35,332.91l-1-.68-.71,1.59,1,.68Z" style="fill: #fff"/>
    <path d="M630,675.25c-1.36-.42-8.54.89-9.18,1.54,0,.41,8.66,5.06,9.18,5.14,1,.39,9-.43,9.18-1.14C639.2,680.36,631.6,675.55,630,675.25Z" style="fill: #fff"/>
  </g>
</svg>
