<svg xmlns="http://www.w3.org/2000/svg" viewBox="0 0 1260 1012.04">
  <g>
    <path d="M0,90.08v920C420,738.76,840,1193.28,1260,922V2C840,273.28,420-181.24,0,90.08Z" style="fill: #fff"/>
    <path d="M0,90.08C420,125.43,840,886.62,1260,922M0,1010.08C420,432.09,840,580,1260,2"/>
    <path d="M1260,828c-167.09-14.06-334.19-143-501.28-295.43C925.81,441,1092.91,325.9,1260,96V2c-42.91,27.71-85.81,47.86-128.72,62C964.19,240.91,797.09,326.48,630,412,462.91,253.59,295.81,95.14,128.72,28.1A557,557,0,0,0,0,90.08v94c167.09,14.06,334.19,143,501.28,295.44C334.19,571.08,167.09,686.15,0,916.09v94a557,557,0,0,1,128.72-62C295.81,771.13,462.91,685.57,630,600,797.09,758.46,964.19,916.9,1131.28,983.94c42.91-14.11,85.81-34.25,128.72-62Z" style="fill: #b10021"/>
  </g>
</svg>
