<svg xmlns="http://www.w3.org/2000/svg" viewBox="0 0 1260 1012.04">
  <g>
    <path d="M0,90.08v920C420,738.76,840,1193.28,1260,922V2C840,273.28,420-181.24,0,90.08Z" style="fill: #0f204b"/>
    <path d="M1016.13,253.56q11,2.52,22,4.63-3.86-25.89-7.71-51.83Q1023.28,230,1016.13,253.56Z" style="fill: #ffb612"/>
    <path d="M1022.72,260.21q11-5,22-10.4-7.14-21.63-14.3-43.45Q1026.58,233.32,1022.72,260.21Z" style="fill: #ffb612"/>
    <path d="M1028.16,263.63q23.13-14.9,46.27-31.72-23.13,4.89-46.27,7.8Z" style="fill: #ffb612"/>
    <path d="M1037,266.64q18.7-16.72,37.43-34.73-25.52,9.78-51,17.16Q1030.2,257.94,1037,266.64Z" style="fill: #ffb612"/>
    <path d="M1023.85,268.36q6.8-10.49,13.6-21.14-25.51-.72-51-3.66Q1005.14,256.52,1023.85,268.36Z" style="fill: #ffb612"/>
    <path d="M1032.69,263V239.12q-23.15,3.12-46.27,4.44Q1009.55,254.17,1032.69,263Z" style="fill: #ffb612"/>
    <path d="M1021.32,255.92q18.15,17,36.3,32.77-7.15-21.46-14.3-43.12Q1032.33,251,1021.32,255.92Z" style="fill: #ffb612"/>
    <path d="M1020.19,266q18.72,11.94,37.43,22.65-11.91-21.6-23.83-43.7Q1027,255.6,1020.19,266Z" style="fill: #ffb612"/>
    <path d="M1003.23,295.84q18.71-15.66,37.43-32.49-6.79-8.66-13.6-17.48Q1015.15,271.09,1003.23,295.84Z" style="fill: #ffb612"/>
    <path d="M1003.23,295.84q18.15-20.59,36.3-42.31-11-2.07-22-4.58Q1010.38,272.49,1003.23,295.84Z" style="fill: #ffb612"/>
    <path d="M195.25,373.76q6.56.93,13.11,2l-4.59-30.74Q199.51,359.38,195.25,373.76Z" style="fill: #ffb612"/>
    <path d="M199.18,377.42q6.56-3.42,13.12-6.69l-8.53-25.68Z" style="fill: #ffb612"/>
    <path d="M202.42,379.26q13.8-9.61,27.59-18.53-13.8,1.8-27.59,4.27Z" style="fill: #ffb612"/>
    <path d="M207.69,380.84q11.16-10.27,22.32-20.11-15.22,4.59-30.43,10Q203.63,375.76,207.69,380.84Z" style="fill: #ffb612"/>
    <path d="M199.85,382.23q4.07-6.51,8.11-13-15.21,0-30.42.81Q188.7,375.91,199.85,382.23Z" style="fill: #ffb612"/>
    <path d="M205.12,378.78V364.52q-13.78,2.42-27.58,5.55Q191.33,374.06,205.12,378.78Z" style="fill: #ffb612"/>
    <path d="M198.34,374.92Q209.17,384.25,220,394l-8.53-25.8Q204.91,371.5,198.34,374.92Z" style="fill: #ffb612"/>
    <path d="M197.67,381q11.16,6.27,22.32,13-7.11-13.1-14.21-26Q201.71,374.47,197.67,381Z" style="fill: #ffb612"/>
    <path d="M187.56,399.77q11.16-10.71,22.31-20.94-4.05-5.08-8.1-10.12Q194.66,384.15,187.56,399.77Z" style="fill: #ffb612"/>
    <path d="M187.56,399.77Q198.38,386.17,209.2,373q-6.55-1.1-13.12-2.05Q191.82,385.32,187.56,399.77Z" style="fill: #ffb612"/>
    <path d="M343.85,420.58q6.56,2.46,13.12,5-2.31-15.89-4.6-31.77Q348.11,407.19,343.85,420.58Z" style="fill: #ffb612"/>
    <path d="M347.78,425.15q6.56-1.9,13.12-3.71-4.26-13.83-8.53-27.6Z" style="fill: #ffb612"/>
    <path d="M351,427.74q13.8-6.47,27.59-12.47-13.8-1.11-27.59-1.79Z" style="fill: #ffb612"/>
    <path d="M356.29,430.52q11.16-7.77,22.32-15.25-15.21,1.38-30.43,3.3Q352.25,424.53,356.29,430.52Z" style="fill: #ffb612"/>
    <path d="M348.45,430.12,356.56,419q-15.21-3.45-30.42-6.33Q337.3,421.23,348.45,430.12Z" style="fill: #ffb612"/>
    <path d="M353.72,427.88V413.62q-13.79-.72-27.58-1Q339.92,420,353.72,427.88Z" style="fill: #ffb612"/>
    <path d="M347,422.46q10.82,11.84,21.64,23.94-4.26-13.84-8.53-27.67Q353.51,420.54,347,422.46Z" style="fill: #ffb612"/>
    <path d="M346.27,428.38q11.16,8.87,22.32,18-7.11-14.64-14.21-29.16Q350.32,422.79,346.27,428.38Z" style="fill: #ffb612"/>
    <path d="M336.16,444.78q11.16-8,22.32-15.78l-8.11-12Q343.26,430.85,336.16,444.78Z" style="fill: #ffb612"/>
    <path d="M336.16,444.78Q347,433.74,357.8,423q-6.56-2.58-13.12-5.05Q340.42,431.34,336.16,444.78Z" style="fill: #ffb612"/>
    <path d="M417.7,508.51q6.57,3,13.12,6.06-2.29-16.08-4.59-32.13Q422,495.46,417.7,508.51Z" style="fill: #ffb612"/>
    <path d="M421.64,513.39q6.56-1.39,13.11-2.71-4.26-14.13-8.52-28.24Z" style="fill: #ffb612"/>
    <path d="M424.88,516.23q13.78-5.39,27.58-10.44-13.79-2.07-27.58-3.82Z" style="fill: #ffb612"/>
    <path d="M430.15,519.42q11.16-6.93,22.31-13.63-15.21.33-30.42,1.06Z" style="fill: #ffb612"/>
    <path d="M422.31,518.42q4.05-5.26,8.11-10.5-15.21-4.62-30.43-8.81Q411.15,508.65,422.31,518.42Z" style="fill: #ffb612"/>
    <path d="M427.58,516.58V502.32q-13.8-1.79-27.59-3.21Q413.79,507.66,427.58,516.58Z" style="fill: #ffb612"/>
    <path d="M420.8,510.63q10.83,12.69,21.64,25.59-4.26-14.18-8.52-28.3Q427.37,509.24,420.8,510.63Z" style="fill: #ffb612"/>
    <path d="M420.13,516.51q11.16,9.74,22.31,19.71-7.1-15.16-14.21-30.23Q424.18,511.24,420.13,516.51Z" style="fill: #ffb612"/>
    <path d="M410,532.08q11.16-7.12,22.32-14-4.05-6.3-8.11-12.58Q417.13,518.72,410,532.08Z" style="fill: #ffb612"/>
    <path d="M410,532.08q10.83-10.14,21.65-20.06-6.57-3.07-13.12-6.07Q414.28,519,410,532.08Z" style="fill: #ffb612"/>
    <path d="M492.45,605.31q6.56,3.38,13.12,6.78-2.29-16.19-4.6-32.37Z" style="fill: #ffb612"/>
    <path d="M496.38,610.42q6.56-1,13.12-2-4.26-14.35-8.53-28.69Z" style="fill: #ffb612"/>
    <path d="M499.62,613.44q13.8-4.63,27.59-9.06-13.8-2.7-27.59-5.2Z" style="fill: #ffb612"/>
    <path d="M504.89,616.91q11.16-6.33,22.32-12.53Q512,604,496.79,603.9,500.84,610.4,504.89,616.91Z" style="fill: #ffb612"/>
    <path d="M497.06,615.48l8.1-10.06q-15.21-5.42-30.42-10.56Q485.9,605.09,497.06,615.48Z" style="fill: #ffb612"/>
    <path d="M502.32,613.93V599.67q-13.79-2.52-27.58-4.81Q488.53,604.28,502.32,613.93Z" style="fill: #ffb612"/>
    <path d="M495.55,607.62q10.81,13.29,21.64,26.71-4.26-14.37-8.53-28.73Q502.11,606.59,495.55,607.62Z" style="fill: #ffb612"/>
    <path d="M494.87,613.45q11.16,10.37,22.32,20.88-7.11-15.5-14.21-31Z" style="fill: #ffb612"/>
    <path d="M484.76,628.44q11.16-6.47,22.32-12.77l-8.11-13Q491.86,615.52,484.76,628.44Z" style="fill: #ffb612"/>
    <path d="M484.76,628.44q10.82-9.5,21.64-18.85-6.56-3.42-13.12-6.78Q489,615.61,484.76,628.44Z" style="fill: #ffb612"/>
    <path d="M714.91,733.38q6.55,3.52,13.12,7-2.31-16.21-4.6-32.44Z" style="fill: #ffb612"/>
    <path d="M718.84,738.58q6.55-.89,13.12-1.81-4.28-14.38-8.53-28.8Z" style="fill: #ffb612"/>
    <path d="M722.08,741.67q13.8-4.38,27.59-8.93-13.8-2.57-27.59-5.33Z" style="fill: #ffb612"/>
    <path d="M727.35,745.22q11.16-6.18,22.32-12.48-15.21-.22-30.43-.68Z" style="fill: #ffb612"/>
    <path d="M719.51,743.66l8.11-9.93q-15.21-5.61-30.42-11.41Q708.36,733,719.51,743.66Z" style="fill: #ffb612"/>
    <path d="M724.78,742.2V727.94q-13.78-2.73-27.58-5.62Q711,732.33,724.78,742.2Z" style="fill: #ffb612"/>
    <path d="M718,735.76q10.83,13.53,21.65,27-4.27-14.37-8.53-28.77Q724.57,734.88,718,735.76Z" style="fill: #ffb612"/>
    <path d="M717.33,741.58q11.16,10.62,22.32,21.15-7.11-15.51-14.21-31.07Z" style="fill: #ffb612"/>
    <path d="M707.22,756.28q11.16-6.09,22.31-12.28l-8.1-13.14Q714.32,743.6,707.22,756.28Z" style="fill: #ffb612"/>
    <path d="M707.22,756.28q10.81-9.13,21.64-18.36-6.55-3.49-13.12-7Z" style="fill: #ffb612"/>
    <path d="M482.66,724.13q6.55,3.33,13.12,6.7l-4.59-32.34Q486.93,711.3,482.66,724.13Z" style="fill: #ffb612"/>
    <path d="M486.59,729.22q6.57-1.08,13.12-2.09l-8.52-28.64Q488.9,713.85,486.59,729.22Z" style="fill: #ffb612"/>
    <path d="M489.84,732.22q13.79-4.71,27.58-9.21-13.78-2.62-27.58-5Z" style="fill: #ffb612"/>
    <path d="M495.1,735.65q11.16-6.39,22.32-12.64-15.21-.28-30.42-.32Z" style="fill: #ffb612"/>
    <path d="M487.27,734.27l8.11-10.11q-15.22-5.32-30.43-10.37Q476.11,723.95,487.27,734.27Z" style="fill: #ffb612"/>
    <path d="M492.54,732.69V718.43Q478.74,716,465,713.79,478.75,723.12,492.54,732.69Z" style="fill: #ffb612"/>
    <path d="M485.76,726.42Q496.58,739.64,507.4,753q-4.26-14.35-8.52-28.68Q492.31,725.35,485.76,726.42Z" style="fill: #ffb612"/>
    <path d="M485.08,732.25Q496.24,742.56,507.4,753q-7.11-15.46-14.21-30.88Z" style="fill: #ffb612"/>
    <path d="M475,747.31q11.16-6.54,22.32-12.91-4.05-6.49-8.11-13Q482.09,734.33,475,747.31Z" style="fill: #ffb612"/>
    <path d="M475,747.31q10.83-9.57,21.64-19-6.56-3.39-13.11-6.71Q479.24,734.45,475,747.31Z" style="fill: #ffb612"/>
    <path d="M650,815.33l13.12,7.25q-2.3-16.26-4.6-32.52Z" style="fill: #ffb612"/>
    <path d="M653.88,820.59,667,819q-4.26-14.47-8.53-29Z" style="fill: #ffb612"/>
    <path d="M657.12,823.73q13.8-4.14,27.59-8.35-13.8-2.91-27.59-5.91Z" style="fill: #ffb612"/>
    <path d="M662.39,827.37q11.16-6,22.32-12-15.21-.6-30.42-1.3Z" style="fill: #ffb612"/>
    <path d="M654.56,825.68l8.1-9.79q-15.21-5.89-30.42-11.83Z" style="fill: #ffb612"/>
    <path d="M659.82,824.31V810.05q-13.79-3-27.58-6Q646,814.2,659.82,824.31Z" style="fill: #ffb612"/>
    <path d="M653.05,817.76q10.82,13.69,21.64,27.38-4.26-14.48-8.53-29Z" style="fill: #ffb612"/>
    <path d="M652.37,823.56q11.16,10.8,22.32,21.58-7.11-15.67-14.21-31.36Z" style="fill: #ffb612"/>
    <path d="M642.26,838.13q11.16-6,22.32-11.93-4.07-6.65-8.11-13.29Q649.36,825.53,642.26,838.13Z" style="fill: #ffb612"/>
    <path d="M642.26,838.13q10.82-9,21.64-18l-13.12-7.24Z" style="fill: #ffb612"/>
  </g>
</svg>
