<svg xmlns="http://www.w3.org/2000/svg" viewBox="0 0 1260 1012.04">
  <g>
    <path d="M0,90.08v920C420,738.76,840,1193.28,1260,922V2C840,273.28,420-181.24,0,90.08Z" style="fill: #bf0a30"/>
    <path d="M105,493c174.28,62.4,348.55,228.94,522.83,395.91C803.55,798,979.28,707.54,1155,511.21,979.28,452,803.55,286.88,627.83,122.22,453.55,210.8,279.28,299.81,105,493Z" style="fill: #002868"/>
    <path d="M235.2,461.9c131.06,81.09,262.11,206.47,393.17,332,132.14-68.35,264.29-136.51,396.43-249.7-132.14-79-264.29-203-396.43-326.83C497.31,284,366.26,350.81,235.2,461.9Z" style="fill: #fff"/>
    <path d="M509.57,474.11a69.24,69.24,0,0,1-.33-9.71q0-8.79-1.94-12.28a14.44,14.44,0,0,0-5.6-5.61,10.15,10.15,0,0,0,6.8-4.63,16.82,16.82,0,0,0,2.39-9.18,23.54,23.54,0,0,0-1.34-7.52,21.41,21.41,0,0,0-5.49-8.62q-4.06-4.1-11.88-5.67-15-2.65-30.05-5V471q6.09,1,12.17,2V447.45q6.42,1.07,12.83,2.18c4.43.73,7.19,2.17,8.29,4.29s1.57,5.38,1.4,9.75a74.19,74.19,0,0,0,.35,8,36.28,36.28,0,0,0,1,5.38q6.87,1.24,13.74,2.53v-1.72A4.65,4.65,0,0,1,509.57,474.11Zm-13.48-35.9c-1.59,1.1-4,1.35-7.22.75q-7.29-1.27-14.57-2.48V419.07q7.74,1.29,15.48,2.64c3.55.76,5.91,2.18,7.08,4.23a10.64,10.64,0,0,1,1.61,5.84C498.48,435,497.68,437.11,496.09,438.21Z" style="fill: #002868"/>
    <path d="M574,427,558,423.61q-11.34,10.89-22.69,21.87V419q-6.21-1.23-12.41-2.43v65.1q6.21,1.2,12.41,2.43v-22l5.8-5.37q9.18,16.13,18.38,32.31,8,1.65,16,3.35-12.82-21.94-25.66-43.79Q561.91,437.74,574,427Z" style="fill: #002868"/>
    <path d="M418.86,399.83q-10.59,31.28-21.19,62.75,6.54.66,13.08,1.4L414.89,451q11,1.29,21.94,2.79l3.81,13.95q6.74.95,13.49,2-10.47-34.12-20.94-68.08Q426,400.7,418.86,399.83Zm-.66,40.36q3.81-12.42,7.62-24.81l.16,0q3.69,13.35,7.37,26.72Q425.78,441.1,418.2,440.19Z" style="fill: #002868"/>
    <path d="M677.86,494.74l-.16,0q-11.81-25.18-23.6-50.41L641,441.45v65.1l11.59,2.52V462.65l.17,0Q664.9,488.54,677,514.33q6.19,1.33,12.41,2.63V451.87l-11.59-2.46Z" style="fill: #002868"/>
    <path d="M857.59,513.33A29.78,29.78,0,0,0,846.76,507q-7.23-2.79-14.48-5.67A12.5,12.5,0,0,1,828.2,499q-2.06-1.63-2.21-5.36c.13-2.88,1.27-4.77,3.4-5.65a12.91,12.91,0,0,1,6.94-.8c5.23.88,8.58,2.54,10,5s2.17,4.55,2.14,6.23q6,.68,11.92,1.29a24.17,24.17,0,0,0-2-9.21,22.64,22.64,0,0,0-7.09-9.12q-5.05-4.07-14.09-5.34c-6.35-.68-11.18-.14-14.49,1.68a14.23,14.23,0,0,0-6.72,7.1A20.43,20.43,0,0,0,814.4,493q.27,10.41,5.83,14.85a41.12,41.12,0,0,0,13,6.86l6.38,2.43a34.22,34.22,0,0,1,7.74,3.66,6.63,6.63,0,0,1,3,5.67c-.15,3.35-1.49,5.47-4,6.34a17.31,17.31,0,0,1-8.41.62c-5.26-.86-8.71-2.62-10.33-5.22s-2.37-4.91-2.25-6.92q-6-.81-11.92-1.67a25.85,25.85,0,0,0,1.77,9.48,22.3,22.3,0,0,0,7.41,9.73c3.68,2.95,9.09,5,16.23,6a30.1,30.1,0,0,0,8.39-.17,18.55,18.55,0,0,0,10.12-4.79q4.64-4.1,4.92-13.72C862.19,520.41,860.61,516.15,857.59,513.33Z" style="fill: #002868"/>
    <path d="M773.28,468.17q-10.59,30.7-21.19,61.29,6.54,1.21,13.08,2.38l4.14-12.69q11,1.94,21.94,3.71,1.89,7,3.8,14,6.75,1.07,13.5,2.07-10.47-34.11-20.95-68.38Q780.45,469.41,773.28,468.17Zm-.66,40.32,7.62-24.44.16,0q3.69,13.5,7.37,27Q780.2,509.81,772.62,508.49Z" style="fill: #002868"/>
    <path d="M598.34,432.17q-10.61,30.25-21.2,60.56,6.54,1.38,13.08,2.79L594.36,483l21.94,4.75L620.11,502l13.49,2.95-20.94-69.67Zm-.67,40.29,7.62-24.1.17,0q3.67,13.67,7.36,27.35Z" style="fill: #002868"/>
    <path d="M742.47,495.74a33.12,33.12,0,0,0-10.83-7.27q-7.23-3.36-14.48-6.77a13.94,13.94,0,0,1-4.08-2.56,7.35,7.35,0,0,1-2.21-5.52c.13-2.87,1.27-4.68,3.4-5.41a12.66,12.66,0,0,1,6.94-.3c5.23,1.28,8.58,3.2,10,5.8s2.17,4.73,2.14,6.4q6,1.15,11.92,2.29a25.93,25.93,0,0,0-9.09-19.1q-5.06-4.49-14.09-6.45-9.52-1.73-14.49.65a12.88,12.88,0,0,0-6.72,6.66,19.68,19.68,0,0,0-1.63,8.07q.27,10.42,5.83,15.23a45.39,45.39,0,0,0,13,7.77l6.37,2.9a37,37,0,0,1,7.74,4.27,7.28,7.28,0,0,1,3,5.91q-.22,5-4,6a17.32,17.32,0,0,1-8.41,0c-5.26-1.26-8.71-3.26-10.33-6s-2.37-5.08-2.25-7.08q-6-1.22-11.92-2.46a27,27,0,0,0,1.76,9.6,24.62,24.62,0,0,0,7.42,10.21c3.68,3.2,9.09,5.59,16.23,7.13a30.91,30.91,0,0,0,8.39.48,17.09,17.09,0,0,0,10.12-4q4.63-3.71,4.92-13.3Q747,500.35,742.47,495.74Z" style="fill: #002868"/>
    <path d="M633,167.75q-3-10.59-5.93-21.18l-5.88,18.63-19.08-4.1,15.46,15.63q-2.92,9.32-5.86,18.63,7.71-4.49,15.43-9L642.56,202q-3-10.59-5.93-21.18l15.42-9Z" style="fill: #fff"/>
    <path d="M657.9,634.76,630,650.4l-27.93-27.77q5.32,18.72,10.66,37.44-14,7.83-27.9,15.71,17.25,3.69,34.49,7.45Q624.67,702,630,720.69l10.65-32.8q17.25,3.74,34.51,7.43-13.95-13.83-27.91-27.72Z" style="fill: #002868"/>
    <path d="M550.32,554.8l-10.65-37.28-10.69,33q-17.24-3.39-34.49-6.48,14,13.35,27.9,26.92-5.32,16.53-10.66,33.09,14-8.22,27.93-16.27,14,13.66,27.9,27.45-5.32-18.69-10.64-37.36,14-8,27.91-15.83Q567.58,558.36,550.32,554.8Z" style="fill: #002868"/>
    <path d="M604.75,787.38,586.58,790l-11.25-19.28q0,10.46,0,20.91-9.08,1.33-18.15,2.7,9.09,5.09,18.18,10.24l0,20.9,11.22-14.54q9.07,5.16,18.17,10.34L593.55,801.9Z" style="fill: #fff"/>
    <path d="M681.87,793.69l-11.25,14.49q-9.09-5.19-18.17-10.41,5.61,9.68,11.2,19.35L652.4,831.59l18.17-2.5,11.22,19.33,0-20.9q9.09-1.29,18.18-2.62-9.07-5.13-18.15-10.3Q681.85,804.15,681.87,793.69Z" style="fill: #fff"/>
    <path d="M731,593.1l-10.65-37.24q-5.34,16.5-10.69,33-17.24-3.52-34.49-7.24,14,13.86,27.9,27.61-5.33,16.47-10.66,32.9,14-7.92,27.93-16,13.95,13.65,27.9,27.14-5.32-18.57-10.64-37.18,13.95-8.15,27.91-16.51Q748.26,596.5,731,593.1Z" style="fill: #002868"/>
    <path d="M640.66,313.47,630,276q-5.34,16.41-10.69,32.81-17.24-3.76-34.49-7.47,13.95,13.84,27.9,27.76-5.33,16.39-10.66,32.81,14-7.83,27.93-15.62l27.9,27.78q-5.32-18.72-10.64-37.45,13.95-7.83,27.91-15.68Q657.92,317.26,640.66,313.47Z" style="fill: #002868"/>
    <path d="M1028.88,468.89q-9.08,4.41-18.16,8.53-5.62-7.89-11.25-15.89,0,10.46,0,20.91-9.07,4-18.15,7.67,9.09,2.76,18.18,5.26l0,20.89q5.61-8.91,11.21-17.92,9.09,2.32,18.18,4.37-5.62-7.72-11.25-15.56Q1023.28,478.08,1028.88,468.89Z" style="fill: #fff"/>
    <path d="M953.28,418.74q-9.07,3.33-18.16,6.43-5.62-8.54-11.25-17.14,0,10.46,0,20.91-9.07,3-18.15,5.74,9.09,3.69,18.18,7.19l0,20.9q5.61-8.29,11.21-16.68,9.09,3.35,18.18,6.48-5.62-8.4-11.25-16.88Q947.69,427.26,953.28,418.74Z" style="fill: #fff"/>
    <path d="M877.68,360.54q-9.07,2.47-18.16,4.78-5.62-9-11.25-18.11,0,10.46,0,20.91-9.07,2.2-18.15,4.27,9.09,4.39,18.18,8.66l0,20.91q5.61-7.83,11.21-15.72,9.09,4.15,18.18,8.14-5.62-8.92-11.25-17.92Q872.09,368.54,877.68,360.54Z" style="fill: #fff"/>
    <path d="M802.08,299.25q-9.08,1.85-18.16,3.58-5.62-9.39-11.25-18.81,0,10.47,0,20.92-9.08,1.67-18.15,3.24,9.09,4.89,18.18,9.69l0,20.91q5.61-7.5,11.21-15,9.09,4.72,18.18,9.34-5.62-9.31-11.25-18.68Q796.49,306.85,802.08,299.25Z" style="fill: #fff"/>
    <path d="M726.48,230.61q-9.08,1.44-18.16,2.83l-11.25-19.22q0,10.47,0,20.92l-18.15,2.67Q688,243,697.12,248.07l0,20.91q5.61-7.29,11.21-14.62,9.09,5.08,18.18,10.09L715.29,245.3Z" style="fill: #fff"/>
    <path d="M268.75,496.84q-9.09,3.84-18.17,8-5.62-7.91-11.25-15.71,0,10.46,0,20.91-9.07,4.28-18.15,8.85,9.09,1.89,18.18,4.07l0,20.9q5.61-9.1,11.22-18.11,9.08,2.35,18.17,5-5.62-8.07-11.25-16Q263.15,505.67,268.75,496.84Z" style="fill: #fff"/>
    <path d="M336,544.8q-9.09,3-18.17,6.16-5.62-8.48-11.25-16.87,0,10.45,0,20.91-9.07,3.35-18.15,6.91,9.09,2.9,18.18,6l0,20.9q5.61-8.52,11.22-17,9.07,3.27,18.17,6.75-5.62-8.61-11.25-17.15Q330.35,553.1,336,544.8Z" style="fill: #fff"/>
    <path d="M403.15,598.54q-9.09,2.28-18.17,4.73-5.62-8.94-11.25-17.8,0,10.46,0,20.91-9.08,2.57-18.15,5.32,9.09,3.7,18.18,7.61l0,20.91q5.61-8.06,11.22-16,9.08,4,18.17,8.19-5.62-9-11.25-18Q397.55,606.42,403.15,598.54Z" style="fill: #fff"/>
    <path d="M470.35,659.81q-9.09,1.77-18.17,3.66-5.62-9.29-11.25-18.52,0,10.45,0,20.91-9.07,2-18.15,4.09,9.09,4.35,18.18,8.85l0,20.9q5.61-7.68,11.22-15.31,9.07,4.58,18.17,9.26-5.62-9.36-11.25-18.68Q464.75,667.37,470.35,659.81Z" style="fill: #fff"/>
    <path d="M537.55,721.16q-9.09,1.43-18.17,2.93-5.62-9.52-11.25-19,0,10.45,0,20.92-9.07,1.56-18.15,3.21,9.09,4.81,18.18,9.72l0,20.91L519.43,745q9.08,5,18.17,10-5.62-9.57-11.25-19.12Q531.95,728.5,537.55,721.16Z" style="fill: #fff"/>
    <path d="M201.55,452.68q-9.09,4.89-18.17,10.1-5.62-7.23-11.25-14.33,0,10.46,0,20.9-9.08,5.41-18.15,11.16,9.09.71,18.18,1.77l0,20.89q5.61-9.81,11.22-19.48,9.07,1.24,18.17,2.81-5.62-7.42-11.25-14.74Q195.95,462.16,201.55,452.68Z" style="fill: #fff"/>
    <path d="M259.07,373.68q-5.62,8.91-11.25,17.91-9.09-2.34-18.17-4.39,5.61,7.73,11.2,15.57-5.62,9.08-11.25,18.26,9.09-4.39,18.17-8.51,5.61,7.91,11.22,15.91l0-20.9q9.09-4,18.18-7.66-9.07-2.76-18.15-5.27Q259.05,384.15,259.07,373.68Z" style="fill: #fff"/>
    <path d="M334.67,316.63q-5.62,8.28-11.25,16.65-9.09-3.36-18.17-6.51,5.61,8.4,11.2,16.89-5.62,8.43-11.25,16.94,9.09-3.32,18.17-6.4,5.61,8.54,11.22,17.17l0-20.9q9.09-3,18.18-5.72-9.07-3.71-18.15-7.21Q334.65,327.08,334.67,316.63Z" style="fill: #fff"/>
    <path d="M410.27,266.92q-5.62,7.81-11.25,15.68-9.09-4.17-18.17-8.17,5.61,8.93,11.2,17.93-5.62,7.92-11.25,15.9,9.09-2.46,18.17-4.74,5.61,9,11.22,18.13l0-20.89q9.09-2.19,18.18-4.23-9.07-4.42-18.15-8.7Q410.25,277.38,410.27,266.92Z" style="fill: #fff"/>
    <path d="M485.87,225.75q-5.62,7.47-11.25,15-9.09-4.76-18.17-9.38,5.61,9.31,11.2,18.68-5.62,7.54-11.25,15.14,9.09-1.83,18.17-3.53,5.61,9.39,11.22,18.83l0-20.9q9.09-1.63,18.18-3.19-9.08-4.92-18.15-9.73Q485.85,236.21,485.87,225.75Z" style="fill: #fff"/>
    <path d="M561.47,185.1l-11.25,14.57q-9.09-5.1-18.17-10.14,5.61,9.57,11.2,19.17L532,223.35q9.09-1.41,18.17-2.77l11.22,19.24,0-20.89,18.18-2.61q-9.08-5.17-18.15-10.31Q561.45,195.56,561.47,185.1Z" style="fill: #fff"/>
    <path d="M1085.07,509.51q-5.62,9.76-11.25,19.39-9.09-1.33-18.17-3,5.61,7.49,11.2,14.84-5.62,9.56-11.25,19,9.09-4.82,18.17-9.93,5.61,7.27,11.22,14.44l0-20.9q9.09-5.34,18.18-11-9.08-.81-18.15-1.94Q1085.05,520,1085.07,509.51Z" style="fill: #fff"/>
    <path d="M1017.87,573.26q-5.62,9.06-11.25,18-9.09-2.43-18.17-5.11,5.61,8.12,11.2,16.14Q994,611.21,988.4,620q9.09-3.78,18.17-7.81,5.61,8,11.22,15.81l0-20.9q9.09-4.22,18.18-8.71-9.07-2-18.15-4.22Z" style="fill: #fff"/>
    <path d="M950.67,626.09Q945,634.57,939.42,643q-9.09-3.33-18.17-6.89,5.61,8.65,11.2,17.23-5.62,8.34-11.25,16.6,9.09-2.89,18.17-6,5.61,8.52,11.22,17l0-20.9q9.09-3.27,18.18-6.77-9.07-3-18.15-6.16Q950.65,636.54,950.67,626.09Z" style="fill: #fff"/>
    <path d="M883.47,672.61q-5.62,8-11.25,15.94-9.09-4.06-18.17-8.3,5.61,9.07,11.2,18.09-5.62,7.9-11.25,15.74,9.09-2.22,18.17-4.61,5.61,9,11.22,17.88l0-20.9q9.09-2.51,18.18-5.2-9.08-3.76-18.15-7.73Q883.45,683.07,883.47,672.61Z" style="fill: #fff"/>
    <path d="M816.27,717.22q-5.62,7.63-11.25,15.23-9.09-4.62-18.17-9.36l11.2,18.73q-5.62,7.57-11.25,15.09,9.09-1.71,18.17-3.55,5.61,9.32,11.22,18.59l0-20.9q9.09-1.92,18.18-4-9.07-4.41-18.15-9Q816.25,727.68,816.27,717.22Z" style="fill: #fff"/>
    <path d="M749.07,755.09q-5.62,7.39-11.25,14.75-9.09-5-18.17-10.06l11.2,19.15q-5.62,7.35-11.25,14.67,9.09-1.4,18.17-2.85,5.61,9.56,11.22,19.07l0-20.9q9.09-1.51,18.18-3.12-9.08-4.84-18.15-9.8Q749.05,765.55,749.07,755.09Z" style="fill: #fff"/>
  </g>
</svg>
