<svg xmlns="http://www.w3.org/2000/svg" viewBox="0 0 1260 1012.04">
  <g>
    <path d="M0,90.08v920C420,738.76,840,1193.28,1260,922V2C840,273.28,420-181.24,0,90.08Z" style="fill: #102e82"/>
    <path d="M0,703.41C420,432.09,840,886.62,1260,615.3V308.63C840,580,420,125.43,0,396.74Z" style="fill: #fff"/>
    <path d="M637,223.26c-71.68-47.4-148.32-61.08-214.3-38.27-66,22.09-121.27,80.67-150.27,161.22-29,81.12-26.19,164,1.78,234.58,28,71,81.11,129.74,152.79,171.32,71.68,40.65,148.32,55.21,214.3,38.68,66-16.15,121.27-63.38,150.27-137.59C705,600.91,618.52,540.73,532,485.33c86.52-21.27,173-37.75,259.57-62.13C763.11,341.79,707.34,270,637,223.26Z" style="fill: #bf2c34"/>
    <path d="M532,332c-77.32-15.79-140,47.06-140,131.9,0,84.53,62.68,159,140,174.76s140-38.55,140-123.53C672,430.74,609.32,347.64,532,332Z" style="fill: #f6d047"/>
  </g>
</svg>
