<svg xmlns="http://www.w3.org/2000/svg" viewBox="0 0 1260 1012.04">
  <g>
    <path d="M0,90.08v920C420,738.76,840,1193.28,1260,922V2C840,273.28,420-181.24,0,90.08Z" style="fill: #fff"/>
    <path d="M295.53,133.72q15,6.74,30,14.09Q320.24,96.87,315,46,305.27,89.73,295.53,133.72Z" style="fill: #e81b39"/>
    <path d="M304.51,147.77q15-7.31,30-14Q324.74,89.78,315,46,309.75,96.85,304.51,147.77Z" style="fill: #e81b39"/>
    <path d="M311.92,155.57c21-15.38,42-29.84,63-43.57-21-1.6-42-2.47-63-2.43Z" style="fill: #e81b39"/>
    <path d="M324,163.72q25.49-26.67,51-51.72c-23.16,3.85-46.33,8.6-69.49,14.48Q314.7,145,324,163.72Z" style="fill: #e81b39"/>
    <path d="M302.6,139.23Q327.32,175.5,352,213.41q-9.73-44.24-19.47-88.23Q317.59,131.9,302.6,139.23Z" style="fill: #e81b39"/>
    <path d="M301.06,158.46q25.49,26.6,51,54.95Q335.8,167,319.58,121.16,310.33,139.7,301.06,158.46Z" style="fill: #e81b39"/>
    <path d="M278,213.33q25.48-28.35,51-54.81-9.26-18.81-18.52-37.38Q294.19,166.86,278,213.33Z" style="fill: #e81b39"/>
    <path d="M278,213.33q24.7-37.92,49.43-74.05-15-7.4-30-14.17Q287.71,169.09,278,213.33Z" style="fill: #e81b39"/>
    <path d="M306.05,163.68q9.26-18.69,18.52-37.16c-23.16-6-46.33-10.87-69.49-14.45Q280.57,136.87,306.05,163.68Z" style="fill: #e81b39"/>
    <path d="M318.08,155.58v-46c-21-.13-42,.64-63,2.49C276.08,125.55,297.08,140.12,318.08,155.58Z" style="fill: #e81b39"/>
    <path d="M610.53,175.28l30,20.74Q635.24,144,630,92Z" style="fill: #e81b39"/>
    <path d="M619.51,191.45l30-7.69L630,92Q624.75,141.73,619.51,191.45Z" style="fill: #e81b39"/>
    <path d="M626.92,200.92c21-10.75,42-21.5,63-32.42-21-4.41-42-9-63-13.58Z" style="fill: #e81b39"/>
    <path d="M639,211.62q25.49-21.48,51-43.12c-23.16.75-46.33,1.29-69.49,1.87Z" style="fill: #e81b39"/>
    <path d="M617.6,182.47q24.72,42,49.43,84-9.74-45.84-19.47-91.71Z" style="fill: #e81b39"/>
    <path d="M616.06,201.34q25.49,32.58,51,65.15-16.23-49.14-32.45-98.33Z" style="fill: #e81b39"/>
    <path d="M593,250.41q25.49-21.56,51-43l-18.52-41.25Q609.19,208.27,593,250.41Z" style="fill: #e81b39"/>
    <path d="M593,250.41q24.71-31.32,49.43-62.54l-30-20.74Q602.71,208.76,593,250.41Z" style="fill: #e81b39"/>
    <path d="M621.05,207.72q9.26-16.59,18.52-33.18c-23.16-10.67-46.33-21.37-69.49-31.86Q595.57,175.08,621.05,207.72Z" style="fill: #e81b39"/>
    <path d="M633.08,202.26v-46c-21-4.57-42-9.16-63-13.58Q601.58,172.31,633.08,202.26Z" style="fill: #e81b39"/>
    <path d="M925.53,225.24q15,7.53,30,14.46Q950.24,188.91,945,138,935.27,181.77,925.53,225.24Z" style="fill: #e81b39"/>
    <path d="M934.51,239.66q15-6.87,30-14.35Q954.74,181.81,945,138,939.75,188.89,934.51,239.66Z" style="fill: #e81b39"/>
    <path d="M941.92,247.6q31.5-22.8,63-48.48c-21,1.85-42,2.61-63,2.48Z" style="fill: #e81b39"/>
    <path d="M954,255.65q25.49-27.3,51-56.53c-23.16,7.66-46.33,14-69.49,19.27Q944.69,237.14,954,255.65Z" style="fill: #e81b39"/>
    <path d="M932.6,231.06q24.72,37.11,49.43,72.51-9.74-43.24-19.47-86.77Q947.59,224.24,932.6,231.06Z" style="fill: #e81b39"/>
    <path d="M931.06,250.24q25.49,27.56,51,53.33-16.23-44.81-32.45-90.39Q940.33,231.83,931.06,250.24Z" style="fill: #e81b39"/>
    <path d="M908,303.49q25.49-25.77,51-53.2-9.26-18.45-18.52-37.13Q924.19,258.67,908,303.49Z" style="fill: #e81b39"/>
    <path d="M908,303.49q24.72-35.4,49.43-72.38-15-6.88-30-14.38Q917.71,260.23,908,303.49Z" style="fill: #e81b39"/>
    <path d="M936.05,255.62q9.26-18.48,18.52-37.19c-23.16-5.36-46.33-11.86-69.49-19.25Q910.57,228.18,936.05,255.62Z" style="fill: #e81b39"/>
    <path d="M948.08,247.61v-46c-21,0-42-.82-63-2.43Q916.58,224.59,948.08,247.61Z" style="fill: #e81b39"/>
    <path d="M0,550.08C420,278.76,840,733.28,1260,462V278C840,549.28,420,94.76,0,366.08Z" style="fill: #e81b39"/>
    <path d="M0,826.08C420,554.76,840,1009.28,1260,738V554C840,825.28,420,370.76,0,642.08Z" style="fill: #e81b39"/>
  </g>
</svg>
