<svg xmlns="http://www.w3.org/2000/svg" viewBox="0 0 1260 1012.04">
  <g>
    <path d="M0,90.08v920C420,738.76,840,1193.28,1260,922V2C840,273.28,420-181.24,0,90.08Z" style="fill: #fff"/>
    <path d="M0,90.08V396.74C420,125.43,840,580,1260,308.63V2C840,273.28,420-181.24,0,90.08Z" style="fill: #b50027"/>
    <path d="M525,24C350-10,175-23,0,90.08V703.41c175-113,350-100.08,525-66.12Z" style="fill: #002d56"/>
    <path d="M270.06,69.43q-3.37-12.56-6.77-25.08-3.69,12.93-7.37,25.91-11.44.8-22.89,2,9.16,6.87,18.33,14-3.68,13-7.37,26.05,9.36-8.7,18.7-17.1,9.17,7.32,18.34,14.9Q277.64,97.55,274.25,85q9.36-8.25,18.7-16.22Q281.51,68.9,270.06,69.43Z" style="fill: #fff;fill-rule: evenodd"/>
    <path d="M194.74,89.8q-10.2,8-20.42,16.46-8.07-7.59-16.16-14.91,1.77,12.74,3.55,25.49-10.22,8.68-20.42,17.81,11.29-1.29,22.6-2.05,1.77,12.75,3.55,25.52,5.2-13.19,10.43-26.27,11.3-.43,22.6-.39-8.07-8-16.16-15.73Q189.53,102.71,194.74,89.8Z" style="fill: #fff;fill-rule: evenodd"/>
    <path d="M111.88,202.62q-.12-13.34-.23-26.65Q105,189.29,98.37,202.83q-10.92.33-21.84,1.23,6.82,7.66,13.64,15.57-6.63,13.65-13.27,27.51Q87.74,238,98.6,229.47q6.83,8,13.64,16.26-.1-13.32-.22-26.65,10.85-8.22,21.7-15.93Q122.8,202.63,111.88,202.62Z" style="fill: #fff;fill-rule: evenodd"/>
    <path d="M74.55,315.47Q69.13,306.15,63.72,297q-1.55,14-3.09,28-11.27,7.88-22.52,16.39,10.3.18,20.61.92l-3.09,28q7.92-13.62,15.83-26.93,10.32,1,20.62,2.61-5.42-9.54-10.83-19,7.91-13.12,15.82-25.95Q85.82,308,74.55,315.47Z" style="fill: #fff;fill-rule: evenodd"/>
    <path d="M97.87,395.49q-9,11.82-18.05,24-9.48-3.3-18.95-6.17,3.9,10.67,7.8,21.41-9,12.45-18.05,25.3,11.45-6.33,22.87-12,3.9,10.8,7.81,21.65,3.17-14.24,6.33-28.42,11.43-5.29,22.87-10-9.48-4-19-7.55Q94.71,409.6,97.87,395.49Z" style="fill: #fff;fill-rule: evenodd"/>
    <path d="M141.08,490.63l-4.62-24.78q-4.72,13.65-9.44,27.41-11.37,2.3-22.73,5.17,8.44,5.77,16.9,11.86-4.71,13.81-9.43,27.72,9.94-10.26,19.88-20.07,8.46,6.28,16.91,12.87L143.93,506q9.94-9.56,19.88-18.71Q152.44,488.67,141.08,490.63Z" style="fill: #fff;fill-rule: evenodd"/>
    <path d="M240,508.09q-10.65,6.06-21.31,12.52-7.26-9.25-14.51-18.32.68,13.23,1.34,26.46-10.65,6.72-21.31,13.86,11.07,1,22.14,2.5.66,13.23,1.33,26.46,6.18-12.3,12.35-24.47,11.07,1.75,22.14,3.94-7.26-9.56-14.51-18.92Q233.84,520,240,508.09Z" style="fill: #fff;fill-rule: evenodd"/>
    <path d="M320.82,493.77q-7.5,10-15,20.18-10.54-5.1-21.07-9.89,5.89,11.2,11.8,22.52-7.5,10.27-15,20.7,11.16-3.53,22.3-6.68,5.91,11.39,11.8,22.85l2-26.62q11.14-2.94,22.3-5.56-10.55-5.58-21.08-10.89Z" style="fill: #fff;fill-rule: evenodd"/>
    <path d="M397.61,469.91q-4.41-12.78-8.84-25.5-2.62,12.76-5.26,25.54-11.4.12-22.81.52,9.78,7.53,19.56,15.28-2.62,12.78-5.26,25.59,8.69-8.05,17.35-15.94,9.78,7.88,19.56,15.93-4.41-12.82-8.83-25.62,8.67-7.8,17.34-15.45Q409,470,397.61,469.91Z" style="fill: #fff;fill-rule: evenodd"/>
    <path d="M464.54,372.48q-9.66,5.64-19.33,11.4-8.81-9.78-17.63-19.43,2.85,13.31,5.69,26.63Q423.61,397,413.94,403q11.43,2.16,22.84,4.56,2.85,13.33,5.69,26.68,4.21-11.84,8.43-23.63,11.43,2.53,22.84,5.25-8.82-10-17.63-19.83Z" style="fill: #fff;fill-rule: evenodd"/>
    <path d="M427.35,172.6q-6.36-11.94-12.72-23.79-.44,13.31-.88,26.62-11,2.35-22,4.95,10.72,5.63,21.46,11.5-.45,13.31-.89,26.61,7.08-9.69,14.15-19.29,10.74,6,21.47,12.18-6.36-12-12.72-24,7.08-9.56,14.15-19Q438.35,170.39,427.35,172.6Z" style="fill: #fff;fill-rule: evenodd"/>
    <path d="M368.34,75q-8.29,8.63-16.6,17.4-10-6.89-20.09-13.51,4.92,12.18,9.84,24.43-8.31,8.9-16.6,18,11.34-1.56,22.68-2.79,4.92,12.29,9.84,24.63l4.17-26q11.34-1.05,22.68-1.8-10-7.25-20.1-14.29Q366.26,88,368.34,75Z" style="fill: #fff;fill-rule: evenodd"/>
    <path d="M464.63,283.67q-1.2-13.49-2.42-27-5.7,10.69-11.41,21.43-11.19-4.41-22.39-8.62,7.66,10.92,15.33,21.92Q438,302.21,432.33,313q10.44-4.07,20.89-8,7.66,11.07,15.33,22.22-1.21-13.49-2.42-27,10.44-3.78,20.89-7.43Q475.83,288.21,464.63,283.67Z" style="fill: #fff;fill-rule: evenodd"/>
    <path d="M165.92,461.23a.83.83,0,0,1-.52-.35,1.55,1.55,0,0,1-.14-.68V447.74a2.13,2.13,0,0,1,.13-.76,1.24,1.24,0,0,1,.53-.61,5.66,5.66,0,0,1,.78-.39,8,8,0,0,1,.77-.29v-.86q-3.32.82-6.63,1.69v.86a3.53,3.53,0,0,1,.77,0,4.19,4.19,0,0,1,.78.06c.29.06.47.17.54.35a1.54,1.54,0,0,1,.12.67v12.47a1.74,1.74,0,0,1-.16.81,1.51,1.51,0,0,1-.5.55,3.09,3.09,0,0,1-.74.34l-.81.28v.86l6.63-1.68h0v-.86a4.79,4.79,0,0,1-.84.08A4.07,4.07,0,0,1,165.92,461.23Z" style="fill: #eed000;fill-rule: evenodd"/>
    <path d="M166.66,461.1a4.76,4.76,0,0,1-.68,0,.71.71,0,0,1-.45-.3,1.34,1.34,0,0,1-.12-.6V447.7a1.91,1.91,0,0,1,.12-.68,1,1,0,0,1,.44-.49,5.22,5.22,0,0,1,.75-.38,5.64,5.64,0,0,1,.75-.28l.15,0v-1.21q-3.47.86-6.93,1.76v1.2l.14,0a3.25,3.25,0,0,1,.74,0,4.07,4.07,0,0,1,.77.06c.25.05.4.14.46.28a1.41,1.41,0,0,1,.1.6v12.47a1.53,1.53,0,0,1-.13.7,1.35,1.35,0,0,1-.43.47,2.76,2.76,0,0,1-.7.32l-.95.33V464c2.31-.61,4.62-1.19,6.93-1.76V461l-.15,0A4.33,4.33,0,0,1,166.66,461.1Zm.66.81q-3.16.78-6.33,1.61V463l.67-.24a3.55,3.55,0,0,0,.79-.36,1.81,1.81,0,0,0,.57-.64,2,2,0,0,0,.18-.9V448.38a1.93,1.93,0,0,0-.13-.74.77.77,0,0,0-.62-.41,3.69,3.69,0,0,0-.81-.07,4.36,4.36,0,0,0-.65,0v-.53c2.11-.55,4.22-1.08,6.33-1.61v.53a4.9,4.9,0,0,0-.64.25,4.58,4.58,0,0,0-.8.4,1.39,1.39,0,0,0-.62.72,2.32,2.32,0,0,0-.15.84v12.46a1.52,1.52,0,0,0,.17.76.9.9,0,0,0,.59.41,4.26,4.26,0,0,0,.73,0,7,7,0,0,0,.72-.06Z" style="fill: #eed000"/>
    <path d="M179.64,442.83a3.81,3.81,0,0,1,1,0,2.62,2.62,0,0,1,1,.24,1.47,1.47,0,0,1,.48,1,11.7,11.7,0,0,1,.16,2.27v8.19q-4.12-5.65-8.27-11.25l-4.2,1v.86a2.91,2.91,0,0,1,1,.07,2.18,2.18,0,0,1,1,.44,1.5,1.5,0,0,1,.45.75,3.58,3.58,0,0,1,.16,1.08V456a15.27,15.27,0,0,1-.13,2.42,2.49,2.49,0,0,1-.5,1.15,3.49,3.49,0,0,1-.83.59,6.87,6.87,0,0,1-.94.45v.87q3-.74,6-1.43v-.86a4.75,4.75,0,0,1-1,0,1.85,1.85,0,0,1-1-.26,1.8,1.8,0,0,1-.5-1,12.58,12.58,0,0,1-.15-2.25V446.7q4.46,6,8.92,12.06l.9-.2V446a15.26,15.26,0,0,1,.13-2.21,2.24,2.24,0,0,1,.5-1.27,4,4,0,0,1,.86-.56,4.09,4.09,0,0,1,.9-.38h0v-.87c-2,.43-4,.86-6,1.31Z" style="fill: #eed000;fill-rule: evenodd"/>
    <path d="M179.49,443l.14,0a4.17,4.17,0,0,1,1,0,2.37,2.37,0,0,1,.9.22,1.38,1.38,0,0,1,.42.89,11,11,0,0,1,.17,2.22V454q-4-5.47-8-10.88l-.05-.06-4.42,1.05v1.2l.14,0a2.48,2.48,0,0,1,1,.07,2,2,0,0,1,1,.41,1.5,1.5,0,0,1,.41.69,3.5,3.5,0,0,1,.15,1V456a14.6,14.6,0,0,1-.13,2.38,2.21,2.21,0,0,1-.45,1.05,2.91,2.91,0,0,1-.77.54,5.78,5.78,0,0,1-.92.44l-.13.05v1.2q3.16-.78,6.33-1.5v-1.2l-.14,0a4.65,4.65,0,0,1-1,0,1.66,1.66,0,0,1-.93-.25,1.58,1.58,0,0,1-.45-.94,12.2,12.2,0,0,1-.15-2.22v-8.35q4.35,5.83,8.69,11.76l1.13-.25V445.92a16.55,16.55,0,0,1,.12-2.18,2.1,2.1,0,0,1,.44-1.14,4,4,0,0,1,.82-.53,4.39,4.39,0,0,1,.86-.37l.15,0v-1.2c-2.1.44-4.19.9-6.29,1.37Zm.3-.91c1.9-.43,3.79-.84,5.69-1.24v.53a4.68,4.68,0,0,0-.78.35,3.84,3.84,0,0,0-.91.6,2.57,2.57,0,0,0-.57,1.4,15.61,15.61,0,0,0-.13,2.24v12.43l-.68.15q-4.56-6.22-9.14-12.37v9.41a12.19,12.19,0,0,0,.16,2.3A1.43,1.43,0,0,0,175,459.3a7.47,7.47,0,0,0,.87,0v.53q-2.87.66-5.73,1.36v-.54a9.26,9.26,0,0,0,.83-.42,2.81,2.81,0,0,0,.88-.63,2.57,2.57,0,0,0,.55-1.26,14.33,14.33,0,0,0,.14-2.46v-8.48a3.86,3.86,0,0,0-.17-1.13,1.76,1.76,0,0,0-.49-.82,2.35,2.35,0,0,0-1.06-.45,3.29,3.29,0,0,0-.93-.09v-.53l4-1q4.26,5.75,8.5,11.56V446.3a11.24,11.24,0,0,0-.17-2.31,1.61,1.61,0,0,0-.53-1.06,2.68,2.68,0,0,0-1-.26,4.73,4.73,0,0,0-.89,0Z" style="fill: #eed000"/>
    <path d="M207.33,446q-3.22.54-6.45,1.14V448c.22,0,.53,0,.91,0a2.52,2.52,0,0,1,.94.1.66.66,0,0,1,.48.49,2.55,2.55,0,0,1,.13.88v.94c0,.3,0,.67,0,1.1a11.13,11.13,0,0,1-.08,1.28,3.94,3.94,0,0,1-1.07.89,4.69,4.69,0,0,1-1.66.63,3.55,3.55,0,0,1-2.19-.22,3.82,3.82,0,0,1-1.61-1.39,6.8,6.8,0,0,1-1-2.31,13.13,13.13,0,0,1-.34-3,16,16,0,0,1,.35-3.43,9.86,9.86,0,0,1,1-2.69,6.08,6.08,0,0,1,1.52-1.86,4.48,4.48,0,0,1,2-.9,2.92,2.92,0,0,1,1.74.15,3,3,0,0,1,1.24,1,5.69,5.69,0,0,1,.83,1.59,14.23,14.23,0,0,1,.54,1.86l.85-.15-.09-6-.83.15-.42.9a5.9,5.9,0,0,0-1.63-.56,5.71,5.71,0,0,0-2.17,0,7.66,7.66,0,0,0-2.93,1.22,9.42,9.42,0,0,0-2.34,2.33,11.62,11.62,0,0,0-1.58,3.24,12.77,12.77,0,0,0-.55,3.74,10.06,10.06,0,0,0,.59,3.58A6.62,6.62,0,0,0,195,454a5.27,5.27,0,0,0,2.28,1.33,6.06,6.06,0,0,0,2.72.11,11.89,11.89,0,0,0,2.69-.88,18.25,18.25,0,0,0,2.75-1.6c0-.22,0-.5-.05-.83s0-1,0-2v-1.33a2.44,2.44,0,0,1,.13-.8,1.38,1.38,0,0,1,.44-.6,2.69,2.69,0,0,1,.68-.33l.67-.24h0Z" style="fill: #eed000;fill-rule: evenodd"/>
    <path d="M200.73,448.18h.14a9.08,9.08,0,0,1,.91-.05,2.5,2.5,0,0,1,.89.1.57.57,0,0,1,.41.41,2.73,2.73,0,0,1,.11.81v.95c0,.3,0,.66,0,1.09s0,.8-.07,1.21a3.92,3.92,0,0,1-1,.78,4.41,4.41,0,0,1-1.61.61,3.48,3.48,0,0,1-2.12-.2,3.8,3.8,0,0,1-1.56-1.35,7.1,7.1,0,0,1-1-2.26,12.8,12.8,0,0,1-.33-3,16.26,16.26,0,0,1,.34-3.38,9.5,9.5,0,0,1,1-2.64,6,6,0,0,1,1.47-1.79,4.26,4.26,0,0,1,1.91-.86,2.77,2.77,0,0,1,1.67.13,3,3,0,0,1,1.2.95,5.83,5.83,0,0,1,.81,1.55,15.62,15.62,0,0,1,.53,1.84l0,.12,1.12-.19c0-2.12-.07-4.23-.1-6.35l-1.06.19c-.13.27-.27.55-.4.83a6.39,6.39,0,0,0-1.53-.51,5.94,5.94,0,0,0-2.21.05,7.57,7.57,0,0,0-3,1.25,9.31,9.31,0,0,0-2.4,2.37,11.75,11.75,0,0,0-1.6,3.3,12.64,12.64,0,0,0-.56,3.81,10.37,10.37,0,0,0,.59,3.64,6.87,6.87,0,0,0,1.6,2.55,5.42,5.42,0,0,0,2.33,1.35,6,6,0,0,0,2.77.11,11.08,11.08,0,0,0,2.72-.89,18.58,18.58,0,0,0,2.78-1.61l.09-.07v-.12c0-.22,0-.49,0-.82s0-1,0-2v-1.34a2.27,2.27,0,0,1,.11-.72,1.1,1.1,0,0,1,.38-.5,2.63,2.63,0,0,1,.63-.32l.67-.23.13,0v-1.21q-3.37.57-6.75,1.19Zm.3-.93,6.15-1.09v.56l-.54.2a2.54,2.54,0,0,0-.72.36,1.55,1.55,0,0,0-.52.69,2.67,2.67,0,0,0-.13.88v1.33c0,1,0,1.63,0,2s0,.52,0,.72a17.41,17.41,0,0,1-2.63,1.52,7.71,7.71,0,0,1-5.31.75,5.12,5.12,0,0,1-2.23-1.29,6.67,6.67,0,0,1-1.54-2.45,10.09,10.09,0,0,1-.57-3.51,12.74,12.74,0,0,1,.54-3.68,11.54,11.54,0,0,1,1.55-3.17,9.18,9.18,0,0,1,2.29-2.28,7.52,7.52,0,0,1,2.87-1.2,5.65,5.65,0,0,1,2.12,0,6,6,0,0,1,1.6.55l.13.07c.15-.33.3-.65.46-1l.59-.1.09,5.65-.58.11a16.13,16.13,0,0,0-.52-1.75,5.84,5.84,0,0,0-.85-1.63,3.13,3.13,0,0,0-1.29-1,3,3,0,0,0-1.81-.15,4.57,4.57,0,0,0-2.05.93,6.21,6.21,0,0,0-1.57,1.92,9.81,9.81,0,0,0-1,2.76,16.34,16.34,0,0,0-.34,3.47,13.44,13.44,0,0,0,.33,3.07,7,7,0,0,0,1,2.36,3.94,3.94,0,0,0,1.66,1.44,3.77,3.77,0,0,0,2.26.22,4.78,4.78,0,0,0,1.71-.65,3.84,3.84,0,0,0,1.12-.93l0-.05v-.06a9.61,9.61,0,0,0,.09-1.31c0-.43,0-.79,0-1.09v-.95a3.16,3.16,0,0,0-.13-.93.81.81,0,0,0-.57-.58,2.69,2.69,0,0,0-1-.11l-.78,0Z" style="fill: #eed000"/>
    <path d="M221.8,436.27h0a5.37,5.37,0,0,0-2.24-1.48,5.63,5.63,0,0,0-2.75-.22,6.72,6.72,0,0,0-2.71,1.05,8.49,8.49,0,0,0-2.26,2.18,11,11,0,0,0-1.55,3.11,12.47,12.47,0,0,0-.56,3.83,11.19,11.19,0,0,0,.53,3.51,7.3,7.3,0,0,0,1.47,2.61,5.46,5.46,0,0,0,2.23,1.52,5.86,5.86,0,0,0,2.85.23,6.9,6.9,0,0,0,2.71-1.05,8.33,8.33,0,0,0,2.24-2.12,10,10,0,0,0,1.56-3.07,12.57,12.57,0,0,0,.56-3.81,11,11,0,0,0-.55-3.63A7.41,7.41,0,0,0,221.8,436.27Zm-.7,9.81a9.81,9.81,0,0,1-.84,2.62h0a5.66,5.66,0,0,1-1.45,1.92,4.15,4.15,0,0,1-2,.91,3.24,3.24,0,0,1-2-.28,3.86,3.86,0,0,1-1.41-1.45,7.62,7.62,0,0,1-.85-2.37,16,16,0,0,1-.27-3.11,17.94,17.94,0,0,1,.25-3.05,10.74,10.74,0,0,1,.78-2.62,6.18,6.18,0,0,1,1.42-2,3.91,3.91,0,0,1,2.12-1,3.09,3.09,0,0,1,2,.28,3.59,3.59,0,0,1,1.43,1.39,7.85,7.85,0,0,1,.86,2.39,15.78,15.78,0,0,1,.3,3.21A17.16,17.16,0,0,1,221.1,446.08Z" style="fill: #eed000;fill-rule: evenodd"/>
    <path d="M220.33,437.2a3.68,3.68,0,0,0-1.48-1.43,3.23,3.23,0,0,0-2-.3,4,4,0,0,0-2.2,1,6.4,6.4,0,0,0-1.47,2.08,11.63,11.63,0,0,0-.8,2.67,19.43,19.43,0,0,0-.25,3.09,15.76,15.76,0,0,0,.28,3.15,7.87,7.87,0,0,0,.86,2.41,3.93,3.93,0,0,0,1.47,1.5,3.3,3.3,0,0,0,2.11.29,4.22,4.22,0,0,0,2.07-.95,5.64,5.64,0,0,0,1.51-2,10.45,10.45,0,0,0,.86-2.67,17.61,17.61,0,0,0,.27-3.2,15.46,15.46,0,0,0-.31-3.25A7.73,7.73,0,0,0,220.33,437.2Zm.62,8.86a9.44,9.44,0,0,1-.82,2.57h0a5.49,5.49,0,0,1-1.4,1.85,3.91,3.91,0,0,1-1.92.87,3.06,3.06,0,0,1-2-.26,3.7,3.7,0,0,1-1.36-1.41,7.15,7.15,0,0,1-.83-2.31,15.65,15.65,0,0,1-.27-3.07,17.39,17.39,0,0,1,.25-3,10.64,10.64,0,0,1,.76-2.57,6,6,0,0,1,1.37-2,3.76,3.76,0,0,1,2-.95,3,3,0,0,1,1.89.27,3.41,3.41,0,0,1,1.38,1.34,7.5,7.5,0,0,1,.84,2.35,15.28,15.28,0,0,1,.3,3.16A16.71,16.71,0,0,1,221,446.06Z" style="fill: #eed000"/>
    <path d="M221.91,436.14a5.59,5.59,0,0,0-2.29-1.52,6.45,6.45,0,0,0-5.58.85,8.71,8.71,0,0,0-2.31,2.23,11.27,11.27,0,0,0-1.58,3.16,12.72,12.72,0,0,0-.57,3.9,11.39,11.39,0,0,0,.54,3.58,7.67,7.67,0,0,0,1.5,2.66,5.62,5.62,0,0,0,2.28,1.55,6,6,0,0,0,2.91.23,7.18,7.18,0,0,0,2.77-1.06,8.72,8.72,0,0,0,2.29-2.17,10.66,10.66,0,0,0,1.59-3.14,12.7,12.7,0,0,0,.57-3.87,11.35,11.35,0,0,0-.56-3.69A7.46,7.46,0,0,0,221.91,436.14Zm1.27,10.18a10,10,0,0,1-1.52,3,8.33,8.33,0,0,1-2.2,2.08,6.74,6.74,0,0,1-2.65,1,5.63,5.63,0,0,1-2.79-.22,5.23,5.23,0,0,1-2.18-1.49,7.21,7.21,0,0,1-1.44-2.55,11.21,11.21,0,0,1-.52-3.46,12.37,12.37,0,0,1,.55-3.76,10.73,10.73,0,0,1,1.51-3.05,8.45,8.45,0,0,1,2.22-2.13,6.78,6.78,0,0,1,2.65-1,5.56,5.56,0,0,1,2.7.22,5.33,5.33,0,0,1,2.19,1.45h0a7.22,7.22,0,0,1,1.49,2.6,10.93,10.93,0,0,1,.54,3.57A12.12,12.12,0,0,1,223.18,446.32Z" style="fill: #eed000"/>
    <path d="M239.45,436.55a6.11,6.11,0,0,0-4.28-3.61,6.94,6.94,0,0,0-2.61-.16c-2.14.27-4.29.55-6.43.84v.87a3.6,3.6,0,0,1,.64,0,2.32,2.32,0,0,1,.7.17.77.77,0,0,1,.46.46,1.81,1.81,0,0,1,.13.72v12.43a1.89,1.89,0,0,1-.15.77,1.22,1.22,0,0,1-.44.52,2.65,2.65,0,0,1-.65.24,5.87,5.87,0,0,1-.77.17v.86q3-.42,6.1-.8a9.5,9.5,0,0,0,2.93-.88,8.77,8.77,0,0,0,4.4-4.7,10,10,0,0,0,.7-3.89h0A9.94,9.94,0,0,0,239.45,436.55Zm-1.81,4.31h0a14.88,14.88,0,0,1-.3,3.14,8.21,8.21,0,0,1-.93,2.47,5.21,5.21,0,0,1-1.6,1.7,5.13,5.13,0,0,1-2.3.84,2.64,2.64,0,0,1-1.69-.21,1.63,1.63,0,0,1-.55-1.46V434.1l.79-.12c.36-.07.68-.11,1-.15a4.41,4.41,0,0,1,2.31.28,4.51,4.51,0,0,1,1.77,1.35,6.73,6.73,0,0,1,1.15,2.32,11.08,11.08,0,0,1,.39,3.08Z" style="fill: #eed000;fill-rule: evenodd"/>
    <polygon points="237.64 440.86 237.64 440.86 237.64 440.86 237.64 440.86" style="fill: #eed000;fill-rule: evenodd"/>
    <path d="M237.5,433.81a6.27,6.27,0,0,0-2.28-1,7,7,0,0,0-2.66-.16c-2.19.27-4.39.56-6.58.86v1.2h.14a4.6,4.6,0,0,1,.62,0,2,2,0,0,1,.66.17.63.63,0,0,1,.4.38,1.8,1.8,0,0,1,.11.65V448.3a1.6,1.6,0,0,1-.13.69.94.94,0,0,1-.38.44,2.44,2.44,0,0,1-.59.22c-.31.08-.56.14-.76.17l-.15,0V451c2.08-.28,4.16-.56,6.25-.82a9.67,9.67,0,0,0,3-.89,9,9,0,0,0,4.49-4.8,10.26,10.26,0,0,0,.72-4,10.14,10.14,0,0,0-.75-4.1A6.33,6.33,0,0,0,237.5,433.81Zm1.85,10.6A8.65,8.65,0,0,1,235,449a9.15,9.15,0,0,1-2.89.86q-3,.38-6,.79v-.52a5.67,5.67,0,0,0,.64-.15,2.77,2.77,0,0,0,.69-.26,1.32,1.32,0,0,0,.51-.61,2.11,2.11,0,0,0,.17-.85V435.84a2.14,2.14,0,0,0-.14-.79.91.91,0,0,0-.54-.53,2.45,2.45,0,0,0-.73-.19l-.52,0v-.53c2.09-.29,4.19-.56,6.28-.83a7,7,0,0,1,2.57.16,6.34,6.34,0,0,1,2.2,1,6,6,0,0,1,2,2.53,9.76,9.76,0,0,1,.72,4A10,10,0,0,1,239.35,444.41Z" style="fill: #eed000"/>
    <path d="M236.21,435.34A4.55,4.55,0,0,0,234.4,434a4.47,4.47,0,0,0-2.38-.29c-.29,0-.61.08-1,.14l-.79.13-.14,0v13.41a1.76,1.76,0,0,0,.62,1.59,2.61,2.61,0,0,0,1.77.23,5.32,5.32,0,0,0,4-2.63,8.35,8.35,0,0,0,1-2.52,15.44,15.44,0,0,0,.3-3.19,11.06,11.06,0,0,0-.4-3.13A6.84,6.84,0,0,0,236.21,435.34Zm1,8.64a8.3,8.3,0,0,1-.91,2.4,5,5,0,0,1-1.54,1.64,5.15,5.15,0,0,1-2.24.81,2.48,2.48,0,0,1-1.61-.19c-.33-.21-.48-.64-.48-1.32V434.25l.64-.1,1-.15a4.3,4.3,0,0,1,2.25.28,4.14,4.14,0,0,1,1.71,1.31,6.48,6.48,0,0,1,1.13,2.26,11.16,11.16,0,0,1,.38,3A15.27,15.27,0,0,1,237.2,444Z" style="fill: #eed000"/>
    <path d="M263,430.6a3.73,3.73,0,0,1,1.55.26.73.73,0,0,1,.49.65,5.21,5.21,0,0,1-.06.72c0,.28-.15.8-.31,1.57-.24,1.08-.53,2.39-.89,3.92s-.79,3.31-1.29,5.35q-1.85-6.39-3.7-12.76l-1,.08q-1.83,6.54-3.67,13.1-1.2-4.8-1.81-7.19t-.84-3.45c0-.08,0-.19-.05-.31a2.48,2.48,0,0,1,0-.33c0-.21.18-.38.55-.5a8.51,8.51,0,0,1,1.35-.31v-.86l-6,.58V432a3,3,0,0,1,.63.07,1.56,1.56,0,0,1,.61.24,1.9,1.9,0,0,1,.49.49,2.34,2.34,0,0,1,.28.64c.24,1,.74,3,1.47,6s1.44,5.85,2.12,8.61l.92-.08,3.87-13.58q1.84,6.47,3.71,12.94l.95-.07q1.14-4.32,2.11-8.13c.65-2.54,1.22-4.77,1.71-6.67a4,4,0,0,1,.38-1,2.85,2.85,0,0,1,.6-.66,2.82,2.82,0,0,1,.63-.37,2.19,2.19,0,0,1,.6-.18v-.86c-1.78.12-3.56.24-5.34.38Z" style="fill: #eed000;fill-rule: evenodd"/>
    <path d="M262.8,430.77h.14a3.73,3.73,0,0,1,1.5.25c.4.2.4.43.4.5a4.82,4.82,0,0,1-.06.69c0,.28-.14.8-.31,1.55-.24,1.11-.54,2.43-.89,3.92s-.71,3-1.15,4.8q-1.8-6.18-3.59-12.35l-1.23.1q-1.77,6.33-3.55,12.67-1.09-4.41-1.67-6.66c-.41-1.63-.68-2.76-.84-3.44l-.05-.31a1.89,1.89,0,0,1,0-.29c0-.11.16-.23.43-.32a8.31,8.31,0,0,1,1.33-.3l.14,0v-1.2l-6.31.6v1.2h.14a2.65,2.65,0,0,1,.6.06,1.46,1.46,0,0,1,.57.23,1.61,1.61,0,0,1,.45.45,1.7,1.7,0,0,1,.25.58l1.47,6q1.11,4.45,2.13,8.6l0,.13,1.13-.11q1.89-6.6,3.76-13.19,1.82,6.28,3.61,12.58l1.17-.09,0-.13q1.13-4.32,2.1-8.13c.65-2.54,1.22-4.77,1.71-6.67a3.92,3.92,0,0,1,.36-.93,2.62,2.62,0,0,1,.55-.61,3,3,0,0,1,.6-.35,2,2,0,0,1,.57-.18l.14,0v-1.2l-5.64.4Zm.3-.87q2.52-.19,5-.36v.53a2.46,2.46,0,0,0-.5.17,2.94,2.94,0,0,0-.66.39,3.05,3.05,0,0,0-.64.71,3.89,3.89,0,0,0-.4,1c-.49,1.9-1.06,4.13-1.71,6.67s-1.34,5.17-2.08,8l-.73.06q-1.92-6.66-3.82-13.31-2,7-4,14l-.69.06q-1-4.09-2.1-8.49l-1.47-6a2.29,2.29,0,0,0-.3-.69,1.91,1.91,0,0,0-.53-.53,1.62,1.62,0,0,0-.65-.26,3.56,3.56,0,0,0-.52-.07v-.53c1.9-.19,3.81-.38,5.71-.55v.52a9,9,0,0,0-1.23.29c-.44.15-.67.38-.67.69a1.77,1.77,0,0,0,0,.35l0,.32c.16.7.43,1.83.84,3.46s1,4,1.81,7.19l.13.52q1.89-6.75,3.79-13.51l.8-.07c1.27,4.39,2.55,8.77,3.82,13.17l.13-.55q.75-3.08,1.29-5.35c.35-1.5.65-2.82.89-3.93.17-.76.27-1.29.32-1.58a5.6,5.6,0,0,0,.06-.75.88.88,0,0,0-.57-.8,3.33,3.33,0,0,0-1.47-.27Z" style="fill: #eed000"/>
    <path d="M281.16,442.52a8.3,8.3,0,0,1-1,1.8,1.15,1.15,0,0,1-.6.38,4,4,0,0,1-.81.21,7,7,0,0,1-.94.1l-.9.05a12,12,0,0,1-1.33,0,1.41,1.41,0,0,1-.74-.26,1.06,1.06,0,0,1-.36-.66,6.46,6.46,0,0,1-.09-1.22v-5.17l1.66-.09a2.9,2.9,0,0,1,1.08.09,1.37,1.37,0,0,1,.73.58,3.08,3.08,0,0,1,.38.92,5.62,5.62,0,0,1,.22,1.22l.78,0V433.7l-.78,0a6.34,6.34,0,0,1-.21,1.13,3.81,3.81,0,0,1-.39,1,1.74,1.74,0,0,1-.65.62,2.93,2.93,0,0,1-1.16.24l-1.66.09v-6.84l2.31-.13,1,0c.29,0,.55,0,.76,0,.42.05.85.4,1.31,1.08a5.57,5.57,0,0,1,.9,1.91l.78,0v-4.15q-5.7.27-11.39.63v.86a5.58,5.58,0,0,1,.75.1,3.14,3.14,0,0,1,.76.23.88.88,0,0,1,.47.48,1.86,1.86,0,0,1,.12.7V444a1.82,1.82,0,0,1-.14.75,1,1,0,0,1-.45.5,2.6,2.6,0,0,1-.68.21l-.83.15v.86q6.1-.39,12.22-.66c.09-1.7.19-3.39.28-5.08h0l-.75,0A13.13,13.13,0,0,1,281.16,442.52Z" style="fill: #eed000;fill-rule: evenodd"/>
    <path d="M281.69,440.69a13.12,13.12,0,0,1-.66,1.75,8.51,8.51,0,0,1-1,1.77,1.15,1.15,0,0,1-.53.33,5.09,5.09,0,0,1-.79.2,6.44,6.44,0,0,1-.93.1l-.9.05a11.66,11.66,0,0,1-1.31,0,1.24,1.24,0,0,1-.67-.24,1,1,0,0,1-.31-.56,7.08,7.08,0,0,1-.08-1.18v-5l1.51-.09a3.4,3.4,0,0,1,1,.08,1.32,1.32,0,0,1,.66.53,2.86,2.86,0,0,1,.35.88,5.11,5.11,0,0,1,.22,1.17l0,.16,1.06-.06v-7.08l-1.06.06v.15a7.13,7.13,0,0,1-.22,1.1,3.28,3.28,0,0,1-.36.89,1.56,1.56,0,0,1-.59.58,3.07,3.07,0,0,1-1.1.21l-1.51.09v-6.5l2.16-.12,1,0a5.47,5.47,0,0,1,.75,0c.38,0,.78.38,1.21,1a5.34,5.34,0,0,1,.88,1.85l0,.13,1-.05v-4.5q-5.85.27-11.69.64v1.2h.14a5.57,5.57,0,0,1,.73.1,2.81,2.81,0,0,1,.72.22.73.73,0,0,1,.41.4,1.93,1.93,0,0,1,.1.63V444a1.64,1.64,0,0,1-.12.67,1,1,0,0,1-.39.42,2.3,2.3,0,0,1-.63.19l-.82.15-.14,0v1.2q6.26-.4,12.51-.68l.3-5.44-1,.05Zm.73.2c-.09,1.57-.17,3.15-.26,4.73q-6,.27-11.93.65v-.53l.7-.13a2.82,2.82,0,0,0,.72-.22,1.22,1.22,0,0,0,.52-.59,2,2,0,0,0,.16-.83V431.6a2.26,2.26,0,0,0-.13-.77,1,1,0,0,0-.55-.56,3,3,0,0,0-.79-.24c-.25,0-.46-.08-.63-.1v-.53c3.7-.23,7.4-.44,11.09-.61v3.8l-.51,0a6,6,0,0,0-.9-1.84c-.49-.72-1-1.09-1.41-1.14l-.78,0-1,0-2.46.14V437l1.81-.1a3.11,3.11,0,0,0,1.22-.25,2,2,0,0,0,.71-.69,3.63,3.63,0,0,0,.41-1,8.56,8.56,0,0,0,.2-1l.5,0v6.38l-.49,0a6.69,6.69,0,0,0-.22-1.1,3.67,3.67,0,0,0-.4-1,1.55,1.55,0,0,0-.81-.63,3.34,3.34,0,0,0-1.12-.1l-1.81.11v5.34a6,6,0,0,0,.1,1.26,1.23,1.23,0,0,0,.42.75,1.42,1.42,0,0,0,.8.29,10.25,10.25,0,0,0,1.35,0l.9,0c.39,0,.71-.06,1-.1a5.38,5.38,0,0,0,.83-.22,1.42,1.42,0,0,0,.67-.43,8.61,8.61,0,0,0,1-1.85,13.34,13.34,0,0,0,.65-1.68Z" style="fill: #eed000"/>
    <path d="M291.41,432.9l.72,0a10,10,0,0,1,.34-1,8.51,8.51,0,0,1,.55-1.18,6.12,6.12,0,0,1,.67-1,1.31,1.31,0,0,1,.72-.51,8.44,8.44,0,0,1,.91-.1l.8,0h.6V442.9a1.71,1.71,0,0,1-.17.81,1,1,0,0,1-.49.46,3.1,3.1,0,0,1-.83.2l-.89.12v.86l7-.15v-.86a5.52,5.52,0,0,1-.93-.14,5,5,0,0,1-.78-.22,1,1,0,0,1-.51-.5,1.94,1.94,0,0,1-.14-.73V429l.6,0h.9a7.55,7.55,0,0,1,.81.06,1.29,1.29,0,0,1,.71.47,5.11,5.11,0,0,1,.68,1,9.22,9.22,0,0,1,.54,1.14,5.27,5.27,0,0,1,.34,1h.72v-4.67q-6.42.09-12.82.29Z" style="fill: #eed000;fill-rule: evenodd"/>
    <path d="M291.26,433.07l1,0,0-.12a8.43,8.43,0,0,1,.32-1,10.12,10.12,0,0,1,.54-1.15,5.79,5.79,0,0,1,.66-1,1.19,1.19,0,0,1,.62-.46,8.31,8.31,0,0,1,.9-.09l.8-.05h.45v13.71a1.6,1.6,0,0,1-.14.71,1,1,0,0,1-.43.39,2.81,2.81,0,0,1-.79.19l-.88.12-.14,0v1.19c2.42-.06,4.84-.12,7.25-.16v-1.2h-.14a6.39,6.39,0,0,1-.91-.14,5.08,5.08,0,0,1-.75-.21.84.84,0,0,1-.43-.42,1.59,1.59,0,0,1-.13-.66V429.15h.45c.27,0,.57,0,.9,0a7.88,7.88,0,0,1,.79.05,1.17,1.17,0,0,1,.62.43,4.83,4.83,0,0,1,.67.93,11.39,11.39,0,0,1,.53,1.11,5.77,5.77,0,0,1,.33,1l0,.13,1,0v-5q-6.57.08-13.12.29Zm.3-4.68q6.26-.19,12.52-.27v4.32h-.45a6.89,6.89,0,0,0-.32-.93,9.4,9.4,0,0,0-.55-1.15,5.6,5.6,0,0,0-.71-1,1.35,1.35,0,0,0-.79-.52,8,8,0,0,0-.82-.06h-.91l-.75,0v13.94a2,2,0,0,0,.16.82,1.19,1.19,0,0,0,.59.58,6,6,0,0,0,.8.22,7.71,7.71,0,0,0,.81.14V445l-6.65.15v-.53l.75-.1a3.64,3.64,0,0,0,.87-.22,1.18,1.18,0,0,0,.57-.53,2,2,0,0,0,.19-.9v-14l-.75,0c-.22,0-.49,0-.8,0a8.55,8.55,0,0,0-.93.1,1.39,1.39,0,0,0-.8.56,6.43,6.43,0,0,0-.7,1,9.54,9.54,0,0,0-.56,1.21,9,9,0,0,0-.31.91l-.46,0Z" style="fill: #eed000"/>
    <path d="M319.61,443.92a5,5,0,0,1-.74-.56,6.47,6.47,0,0,1-.82-1.09c-.7-1.1-1.29-2-1.77-2.81s-1.08-1.72-1.81-2.84a8.36,8.36,0,0,0,1.45-.64,4.8,4.8,0,0,0,1.12-.91,3.75,3.75,0,0,0,.76-1.32,5.2,5.2,0,0,0,.26-1.75,4.33,4.33,0,0,0-.38-1.89,3.62,3.62,0,0,0-1-1.28,4.34,4.34,0,0,0-1.48-.72,6.61,6.61,0,0,0-1.75-.23c-2.27,0-4.53,0-6.8,0v.87a4.6,4.6,0,0,1,.71.11,3.45,3.45,0,0,1,.67.19.79.79,0,0,1,.49.49,2.48,2.48,0,0,1,.1.75v12.45a1.91,1.91,0,0,1-.14.78.92.92,0,0,1-.45.46,2.15,2.15,0,0,1-.66.17l-.72.09v.86c2.08,0,4.15,0,6.23,0v-.86a7.08,7.08,0,0,1-.79-.09,3.69,3.69,0,0,1-.66-.15.85.85,0,0,1-.48-.49,2.19,2.19,0,0,1-.12-.75V437.3h1.51c.83,1.24,1.59,2.45,2.3,3.62s1.51,2.57,2.38,4.18l4,0h0v-.86a4.29,4.29,0,0,1-.68-.1A2.18,2.18,0,0,1,319.61,443.92Zm-7.45-7.67H310.8v-7.39h1.77a2.64,2.64,0,0,1,2.16.93,3.71,3.71,0,0,1,.77,2.47h0a4.3,4.3,0,0,1-.95,2.93A3.07,3.07,0,0,1,312.16,436.25Z" style="fill: #eed000;fill-rule: evenodd"/>
    <path d="M320.31,444a2.39,2.39,0,0,1-.63-.23,3.88,3.88,0,0,1-.71-.55,6,6,0,0,1-.8-1.05c-.7-1.1-1.29-2-1.77-2.81s-1-1.62-1.68-2.65a7.3,7.3,0,0,0,1.26-.58,4.89,4.89,0,0,0,1.16-.93,3.94,3.94,0,0,0,.8-1.38,5.66,5.66,0,0,0,.27-1.82,4.38,4.38,0,0,0-.4-2,3.68,3.68,0,0,0-1.08-1.34,4.46,4.46,0,0,0-1.53-.75,6.78,6.78,0,0,0-1.78-.23c-2.32,0-4.63,0-6.95,0v1.2h.14a4.39,4.39,0,0,1,.69.11,3.84,3.84,0,0,1,.65.18.67.67,0,0,1,.4.39,2.43,2.43,0,0,1,.09.7v12.44a1.73,1.73,0,0,1-.12.7.78.78,0,0,1-.38.38,1.64,1.64,0,0,1-.62.15c-.31.05-.55.08-.71.09l-.14,0v1.19l6.52,0v-1.2h-.14a6.5,6.5,0,0,1-.77-.08,2.9,2.9,0,0,1-.62-.15.7.7,0,0,1-.41-.38,2.39,2.39,0,0,1-.1-.69v-5.29h1.28c.81,1.22,1.57,2.42,2.26,3.55s1.51,2.57,2.38,4.18l0,.08,4.2,0v-1.2H321A4,4,0,0,1,320.31,444Zm.5,1-3.73,0c-.86-1.57-1.65-2.95-2.35-4.11s-1.48-2.38-2.31-3.63l0-.07h-1.73v5.63a2.56,2.56,0,0,0,.13.82,1,1,0,0,0,.57.58,3.07,3.07,0,0,0,.69.16,6.5,6.5,0,0,0,.66.08v.52l-5.93,0v-.52l.58-.08a2.22,2.22,0,0,0,.71-.18,1.09,1.09,0,0,0,.52-.54,2,2,0,0,0,.16-.86V430.32a2.88,2.88,0,0,0-.11-.81,1,1,0,0,0-.58-.6,3.7,3.7,0,0,0-.69-.19,5.6,5.6,0,0,0-.59-.1v-.53c2.22,0,4.43,0,6.65,0a6.44,6.44,0,0,1,1.72.22,4.33,4.33,0,0,1,1.43.7,3.29,3.29,0,0,1,1,1.22,4.07,4.07,0,0,1,.36,1.8,5.18,5.18,0,0,1-.25,1.69,3.45,3.45,0,0,1-.73,1.26,4.68,4.68,0,0,1-1.08.87,7.71,7.71,0,0,1-1.42.63l-.2.07.13.2c.71,1.11,1.32,2.07,1.8,2.84s1.07,1.71,1.77,2.81a5.94,5.94,0,0,0,.85,1.12,5.41,5.41,0,0,0,.76.59,2.41,2.41,0,0,0,.72.26,5,5,0,0,0,.55.1Z" style="fill: #eed000"/>
    <path d="M315.65,432.26a3.88,3.88,0,0,0-.81-2.59,2.8,2.8,0,0,0-2.27-1h-1.92v7.73h1.51a3.22,3.22,0,0,0,2.49-1.12A4.46,4.46,0,0,0,315.65,432.26Zm-3.49,3.82H311v-7h1.62a2.54,2.54,0,0,1,2.06.87,3.55,3.55,0,0,1,.72,2.35h0a4.05,4.05,0,0,1-.91,2.8A3,3,0,0,1,312.16,436.08Z" style="fill: #eed000"/>
    <path d="M336.35,428.23l-6-.16v.86a7.32,7.32,0,0,1,1,.22,2.55,2.55,0,0,1,1,.5,2,2,0,0,1,.49,1.14,11.9,11.9,0,0,1,.17,2.2v7.06a5.8,5.8,0,0,1-.18,1.44,4.56,4.56,0,0,1-.6,1.36,3.24,3.24,0,0,1-1.23,1.08,3.8,3.8,0,0,1-1.9.38,3.66,3.66,0,0,1-1.91-.46,3.24,3.24,0,0,1-1.1-1.11,4.21,4.21,0,0,1-.52-1.41,9.63,9.63,0,0,1-.13-1.46v-9.51a2.17,2.17,0,0,1,.12-.74.76.76,0,0,1,.48-.48,4.51,4.51,0,0,1,.64-.17,5.09,5.09,0,0,1,.74-.1V428l-6.13-.09v.86a5.32,5.32,0,0,1,.66.14,2,2,0,0,1,.66.28,1.21,1.21,0,0,1,.48.54,1.79,1.79,0,0,1,.12.7v10.18a5.07,5.07,0,0,0,.36,1.88,4.71,4.71,0,0,0,1,1.59,5.21,5.21,0,0,0,1.75,1.12,6.44,6.44,0,0,0,2.36.45,5.33,5.33,0,0,0,1.73-.25,5.14,5.14,0,0,0,1.74-.89,4.8,4.8,0,0,0,1.33-1.7,5.6,5.6,0,0,0,.51-2.48v-7.48a14.12,14.12,0,0,1,.14-2.13,1.73,1.73,0,0,1,.49-1.14,2.31,2.31,0,0,1,.91-.38,6.73,6.73,0,0,1,.85-.12h0Z" style="fill: #eed000;fill-rule: evenodd"/>
    <path d="M330.18,429.09l.14,0a5.31,5.31,0,0,1,.93.21,2.56,2.56,0,0,1,.95.47,1.89,1.89,0,0,1,.42,1,11.62,11.62,0,0,1,.17,2.17v7.06a6,6,0,0,1-.17,1.39,4.43,4.43,0,0,1-.58,1.3,3.09,3.09,0,0,1-1.17,1,3.69,3.69,0,0,1-1.84.37,3.59,3.59,0,0,1-1.84-.44,3.13,3.13,0,0,1-1.05-1.06,4,4,0,0,1-.49-1.35,7.89,7.89,0,0,1-.13-1.42v-9.51a2,2,0,0,1,.11-.67.6.6,0,0,1,.38-.38,3.8,3.8,0,0,1,.63-.17,3.69,3.69,0,0,1,.71-.09h.14v-1.2l-6.42-.09v1.19l.13,0a3.68,3.68,0,0,1,.65.13,2.1,2.1,0,0,1,.62.26,1.08,1.08,0,0,1,.42.47,1.56,1.56,0,0,1,.11.62v10.18a5.39,5.39,0,0,0,.36,1.95,4.84,4.84,0,0,0,1.09,1.65,5.21,5.21,0,0,0,1.79,1.15,6.71,6.71,0,0,0,2.41.47,5.89,5.89,0,0,0,1.77-.26,5.22,5.22,0,0,0,1.78-.92,4.91,4.91,0,0,0,1.38-1.75,5.82,5.82,0,0,0,.53-2.56v-7.49a15.39,15.39,0,0,1,.13-2.1,1.62,1.62,0,0,1,.43-1,2.07,2.07,0,0,1,.86-.35,4.2,4.2,0,0,1,.82-.12h.15v-1.21c-2.11-.06-4.21-.12-6.32-.16Zm.3-.84c1.91,0,3.81.1,5.72.15v.53a5.43,5.43,0,0,0-.73.11,2.7,2.7,0,0,0-1,.4,1.92,1.92,0,0,0-.55,1.25,14.7,14.7,0,0,0-.14,2.17v7.48a5.37,5.37,0,0,1-.49,2.39,4.6,4.6,0,0,1-1.29,1.64,4.78,4.78,0,0,1-1.69.87,5.37,5.37,0,0,1-1.69.25,6.47,6.47,0,0,1-2.32-.45,5,5,0,0,1-1.69-1.08,4.73,4.73,0,0,1-1-1.54,5,5,0,0,1-.34-1.8V430.45a2,2,0,0,0-.13-.78,1.36,1.36,0,0,0-.54-.62,2.2,2.2,0,0,0-.71-.29,3.86,3.86,0,0,0-.55-.13v-.53l5.84.08v.53a4.21,4.21,0,0,0-.62.09,3.61,3.61,0,0,0-.66.18.92.92,0,0,0-.57.57,2.63,2.63,0,0,0-.12.8v9.51a10.07,10.07,0,0,0,.12,1.5,4.64,4.64,0,0,0,.55,1.48,3.45,3.45,0,0,0,1.15,1.16,3.83,3.83,0,0,0,2,.49,4.1,4.1,0,0,0,2-.4,3.3,3.3,0,0,0,1.28-1.14,4.53,4.53,0,0,0,.62-1.41,6.14,6.14,0,0,0,.18-1.49V433a11.66,11.66,0,0,0-.17-2.24,2.14,2.14,0,0,0-.54-1.24,2.87,2.87,0,0,0-1.05-.53,6.45,6.45,0,0,0-.84-.2Z" style="fill: #eed000"/>
    <path d="M347.26,438h0a4.89,4.89,0,0,0-1-1,10.65,10.65,0,0,0-1.2-.77c-.45-.25-.93-.49-1.42-.71a16.81,16.81,0,0,1-1.48-.8,3.56,3.56,0,0,1-1.3-1.25,3.67,3.67,0,0,1-.44-1.87,2.47,2.47,0,0,1,.69-1.78,2.16,2.16,0,0,1,1.68-.68,2.93,2.93,0,0,1,1.58.49,3.8,3.8,0,0,1,1.09,1.16,7.6,7.6,0,0,1,.74,1.66c.19.6.36,1.24.51,1.9l.84,0c0-1.91-.05-3.82-.08-5.72l-.83,0-.42.81a8.75,8.75,0,0,0-1.48-.91,4.35,4.35,0,0,0-1.81-.44,4.12,4.12,0,0,0-1.71.3,4.17,4.17,0,0,0-1.42.93,4.49,4.49,0,0,0-1,1.49,4.72,4.72,0,0,0-.34,1.82,5.25,5.25,0,0,0,.68,2.8,5.48,5.48,0,0,0,1.94,1.78c.42.24.93.5,1.51.78s1.09.53,1.54.75a3.47,3.47,0,0,1,1.49,1.42,4,4,0,0,1,.49,1.94,4.24,4.24,0,0,1-.16,1.24,2.54,2.54,0,0,1-.49.92,2,2,0,0,1-.87.58,3.21,3.21,0,0,1-1.25.17,3.47,3.47,0,0,1-1.68-.49,4.69,4.69,0,0,1-1.25-1.19,7.37,7.37,0,0,1-.92-1.67,16.24,16.24,0,0,1-.61-2l-.84,0,.15,5.9.83,0c.15-.29.3-.58.44-.87a8.09,8.09,0,0,0,1.71.93,6,6,0,0,0,2,.43,4.62,4.62,0,0,0,3.57-1.34,4.9,4.9,0,0,0,1.45-3.69,5.76,5.76,0,0,0-.23-1.69A4.48,4.48,0,0,0,347.26,438Z" style="fill: #eed000;fill-rule: evenodd"/>
    <path d="M347.37,437.85h0a5,5,0,0,0-1-1,10.78,10.78,0,0,0-1.21-.77c-.45-.25-.93-.5-1.42-.72a16.62,16.62,0,0,1-1.48-.79,3.15,3.15,0,0,1-1.65-3,2.29,2.29,0,0,1,.64-1.66,2,2,0,0,1,1.58-.63,2.7,2.7,0,0,1,1.51.46,3.58,3.58,0,0,1,1,1.11,7.63,7.63,0,0,1,.72,1.61q.29.9.51,1.89l0,.13,1.11.05-.09-6.07-1.06,0-.39.74a8.91,8.91,0,0,0-1.37-.83,4.68,4.68,0,0,0-1.87-.45,4.2,4.2,0,0,0-1.76.31,4.08,4.08,0,0,0-1.47,1,4.53,4.53,0,0,0-1,1.54,4.93,4.93,0,0,0-.36,1.89,5.36,5.36,0,0,0,.72,2.91,5.43,5.43,0,0,0,2,1.83c.42.24.93.51,1.52.79l1.54.75a3.23,3.23,0,0,1,1.41,1.35,3.76,3.76,0,0,1,.47,1.84,4.25,4.25,0,0,1-.15,1.19,2.26,2.26,0,0,1-.46.85,1.81,1.81,0,0,1-.81.54,3,3,0,0,1-1.2.16,3.26,3.26,0,0,1-1.61-.46,4.54,4.54,0,0,1-1.21-1.15,7.35,7.35,0,0,1-.9-1.62,16.17,16.17,0,0,1-.59-2l0-.12-1.11,0,.15,6.25,1.06,0,.42-.8a7.77,7.77,0,0,0,1.6.85,6.12,6.12,0,0,0,2,.44,4.74,4.74,0,0,0,3.67-1.37,5.15,5.15,0,0,0,1.5-3.83,6.1,6.1,0,0,0-.24-1.74A4.33,4.33,0,0,0,347.37,437.85Zm-.73,6.72a4.51,4.51,0,0,1-3.48,1.29,5.81,5.81,0,0,1-1.93-.41,8,8,0,0,1-1.67-.92l-.13-.1-.48.94-.6,0c0-1.85-.09-3.7-.13-5.55l.57,0a15.15,15.15,0,0,0,.58,1.89,7.54,7.54,0,0,0,.95,1.71,4.59,4.59,0,0,0,1.3,1.23,3.38,3.38,0,0,0,1.74.51,3.48,3.48,0,0,0,1.3-.17,2.2,2.2,0,0,0,.93-.63,2.67,2.67,0,0,0,.52-1,4.66,4.66,0,0,0,.17-1.3,4.16,4.16,0,0,0-.52-2,3.6,3.6,0,0,0-1.55-1.49c-.45-.22-1-.48-1.55-.75s-1.08-.54-1.5-.78a5.31,5.31,0,0,1-1.88-1.72,5.07,5.07,0,0,1-.65-2.7,4.53,4.53,0,0,1,.33-1.74,4.14,4.14,0,0,1,.94-1.43,4.1,4.1,0,0,1,3-1.19,4.15,4.15,0,0,1,1.76.42,9.06,9.06,0,0,1,1.45.89l.13.1c.15-.29.3-.58.46-.87l.6,0c0,1.79.05,3.58.07,5.37l-.57,0c-.15-.62-.31-1.22-.49-1.79a7.71,7.71,0,0,0-.76-1.7,3.9,3.9,0,0,0-1.14-1.21,3,3,0,0,0-1.65-.51,2.24,2.24,0,0,0-1.78.72,2.66,2.66,0,0,0-.74,1.91,3.88,3.88,0,0,0,.47,2,3.81,3.81,0,0,0,1.36,1.31c.51.3,1,.57,1.49.8s1,.46,1.42.71a9.75,9.75,0,0,1,1.17.76,4.81,4.81,0,0,1,1,.94,4.15,4.15,0,0,1,.66,1.31A5.57,5.57,0,0,1,348,441,4.82,4.82,0,0,1,346.64,444.57Z" style="fill: #eed000"/>
    <path d="M350.37,433.45l.73,0a6.68,6.68,0,0,1,.33-1,7.52,7.52,0,0,1,.55-1.14,6.12,6.12,0,0,1,.68-.94,1.14,1.14,0,0,1,.71-.44,6.81,6.81,0,0,1,.91,0l.8,0,.6,0v13.88a1.6,1.6,0,0,1-.16.79,1,1,0,0,1-.5.42,2.8,2.8,0,0,1-.83.14c-.39,0-.69,0-.88,0v.86c2.32.12,4.63.25,6.95.39v-.86a5.37,5.37,0,0,1-.94-.21,5.85,5.85,0,0,1-.77-.28,1.11,1.11,0,0,1-.51-.54,1.86,1.86,0,0,1-.15-.75V430.12l.61,0c.27,0,.57,0,.9.07s.59.08.81.13a1.41,1.41,0,0,1,.7.52,6,6,0,0,1,.69,1,9.83,9.83,0,0,1,.54,1.18,6.92,6.92,0,0,1,.34,1.05l.71.05V429.5q-6.4-.4-12.82-.72Z" style="fill: #eed000;fill-rule: evenodd"/>
    <path d="M350.23,433.62l1,.05,0-.13a6.49,6.49,0,0,1,.33-1,6.82,6.82,0,0,1,.54-1.12,5.89,5.89,0,0,1,.65-.91,1.05,1.05,0,0,1,.63-.4q.42,0,.9,0l.79,0,.46,0v13.7a1.37,1.37,0,0,1-.15.7.78.78,0,0,1-.43.36,3,3,0,0,1-.79.13l-.87.05h-.14v1.2c2.42.12,4.83.26,7.25.4v-1.2h-.15a5.69,5.69,0,0,1-.9-.21,5.13,5.13,0,0,1-.75-.27.87.87,0,0,1-.44-.45,1.82,1.82,0,0,1-.13-.67V430.31l.45,0c.28,0,.58,0,.9.08a5.57,5.57,0,0,1,.79.12,1.2,1.2,0,0,1,.63.47,5.59,5.59,0,0,1,.66,1,9.49,9.49,0,0,1,.53,1.16,6.14,6.14,0,0,1,.33,1l0,.14,1,.06v-5q-6.55-.42-13.11-.73Zm.29-4.66q6.27.3,12.52.7V434l-.45,0a7.07,7.07,0,0,0-.32-.95,10,10,0,0,0-.55-1.19,5.55,5.55,0,0,0-.7-1,1.62,1.62,0,0,0-.79-.59l-.83-.12c-.32,0-.63-.06-.9-.08l-.76,0v13.94a2.05,2.05,0,0,0,.17.83,1.3,1.3,0,0,0,.58.63,5.38,5.38,0,0,0,.8.28,5.6,5.6,0,0,0,.82.2v.53c-2.22-.13-4.44-.26-6.65-.37v-.53l.75-.05a2.73,2.73,0,0,0,.86-.14,1.11,1.11,0,0,0,.57-.49,1.74,1.74,0,0,0,.19-.88V429.84l-.75,0h-.8c-.33,0-.64,0-.93,0a1.3,1.3,0,0,0-.8.5,5.49,5.49,0,0,0-.69,1,7.31,7.31,0,0,0-.56,1.16,8.06,8.06,0,0,0-.31.89l-.47,0Z" style="fill: #eed000"/>
    <path d="M263.13,228.9l0,0h0Z" style="fill: #eed000"/>
    <path d="M263.07,228.88l0,0h0l0,0Z" style="fill: #eed000"/>
    <path d="M263.08,228.89l0,0h0Z" style="fill: #eed000"/>
    <path d="M277.12,228.23a3,3,0,0,0-2.17.17c-1.88.53-3.95,3.67-4.29,5,0,0-.45,1.22-1.7,4.79s-3.24,1.86-3.24,1.86a2.87,2.87,0,0,1-1.07-3.52c.31-1.29,2.22-.82,2.22-.82q.47-3.54-1.95-2.84c0-3.05-1.53-3.83-1.8-3.94H263c-.27.14-1.79,1.16-1.8,4.2-1.61-.22-2.26.82-1.95,3.14,0,0,1.91-.76,2.22.49a3.2,3.2,0,0,1-1.07,3.68s-2,2-3.24-1.38-1.7-4.53-1.7-4.53c-.34-1.25-2.41-4.08-4.29-4.33a3,3,0,0,0-2.17.16,2.56,2.56,0,0,0-1.69,2.19c0,1.61.51,2.25,1.44,2.62s2.29-.81,2.29-.81c.44-.14.58,0,.86.22a4.62,4.62,0,0,1,.94,1.44,33.26,33.26,0,0,1,1.35,3.85c.34,1.33,1.1,5.36,4.66,5.68,2.79-.23,5.59-.44,8.38-.63,3.56-.86,4.32-5,4.66-6.38a37.64,37.64,0,0,1,1.35-4.05,5.76,5.76,0,0,1,.94-1.58c.28-.24.42-.42.86-.35,0,0,1.26,1,2.29.47a2.72,2.72,0,0,0,1.44-2.85A2.11,2.11,0,0,0,277.12,228.23Z" style="fill: #eed000"/>
    <path d="M255.55,248.91q-1.19,46.39-2.39,92.79,10.16-.93,20.31-1.52l-2.31-92.43Q263.36,248.23,255.55,248.91Z" style="fill: #eed000;fill-rule: evenodd"/>
    <path d="M254.8,248.07q-1.22,47.31-2.44,94.6,11-1,21.9-1.63l-2.34-94.24Q263.35,247.33,254.8,248.07ZM254,340.72l2.34-91q7.06-.6,14.11-1.05,1.13,45.32,2.26,90.62Q263.31,339.89,254,340.72Z" style="fill: #002d56"/>
    <path d="M251.81,393.3q10.79-1,21.57-1.64v-42q-10.78.63-21.57,1.64Z" style="fill: #eed000;fill-rule: evenodd"/>
    <path d="M251,394.27q11.55-1.09,23.11-1.75V348.67q-11.55.66-23.11,1.76Zm21.57-43.7V390.8q-10,.6-20,1.52V352.09Q262.59,351.18,272.61,350.57Z" style="fill: #002d56"/>
    <path d="M273.32,344.83q-10.94.65-21.86,1.67a2.93,2.93,0,0,0-2.76,2.69,2.34,2.34,0,0,0,2.76,2.15q10.93-1,21.86-1.66a2.8,2.8,0,0,0,2.76-2.58A2.44,2.44,0,0,0,273.32,344.83Z" style="fill: #eed000"/>
    <path d="M273.32,343.93q-10.94.65-21.86,1.66a3.87,3.87,0,0,0-3.53,3.67,3.07,3.07,0,0,0,3.53,3q10.93-1,21.86-1.67a3.68,3.68,0,0,0,3.53-3.52A3.2,3.2,0,0,0,273.32,343.93Zm0,4.84q-10.94.64-21.86,1.67c-1.08.1-2-.51-2-1.33a2,2,0,0,1,2-1.71q10.93-1,21.86-1.66a1.69,1.69,0,0,1,2,1.4A2,2,0,0,1,273.32,348.77Z" style="fill: #002d56"/>
    <path d="M272.16,340.36q-9.54.57-19.08,1.44a2.66,2.66,0,0,0-2.45,2.51,2.13,2.13,0,0,0,2.45,2q9.54-.87,19.08-1.45a2.54,2.54,0,0,0,2.46-2.41A2.21,2.21,0,0,0,272.16,340.36Z" style="fill: #eed000;fill-rule: evenodd"/>
    <path d="M272.16,339.45q-9.54.58-19.08,1.45a3.6,3.6,0,0,0-3.23,3.48,2.87,2.87,0,0,0,3.23,2.87q9.54-.87,19.08-1.44a3.45,3.45,0,0,0,3.23-3.37A3,3,0,0,0,272.16,339.45Zm0,4.55q-9.54.57-19.08,1.44a1.4,1.4,0,0,1-1.68-1.21,1.75,1.75,0,0,1,1.68-1.52q9.54-.87,19.08-1.45a1.47,1.47,0,0,1,1.69,1.27A1.7,1.7,0,0,1,272.16,344Z" style="fill: #002d56"/>
    <path d="M255.91,387.38q6.53-.56,13.07-1V356.87q-6.54.42-13.07,1Zm1.54-27.84c3.33-.28,6.65-.54,10-.76v25.91c-3.33.22-6.65.47-10,.75Z" style="fill: #002d56"/>
    <path d="M269.68,244.61q-6.63.44-13.24,1a2,2,0,0,0-2,1.84,1.66,1.66,0,0,0,2,1.5q6.62-.57,13.24-1a2,2,0,0,0,2-1.8A1.71,1.71,0,0,0,269.68,244.61Z" style="fill: #eed000"/>
    <path d="M269.67,244.09q-6.62.43-13.23,1a2.54,2.54,0,0,0-2.42,2.4,2.07,2.07,0,0,0,2.42,2q6.62-.57,13.23-1a2.48,2.48,0,0,0,2.42-2.35A2.12,2.12,0,0,0,269.67,244.09Zm0,3.35q-6.62.42-13.23,1c-.83.07-1.52-.4-1.52-1a1.55,1.55,0,0,1,1.52-1.28q6.62-.57,13.23-1c.83,0,1.53.43,1.53,1.06S270.5,247.38,269.67,247.44Z" style="fill: #002d56"/>
    <path d="M154.53,424.52c73.27-20.08,146.53-23.49,219.8-17.94v-8.66c-73.27-5.55-146.53-2.14-219.8,17.94Z" style="fill: #eed000;fill-rule: evenodd"/>
    <path d="M153.62,425.83c73.87-20.38,147.75-23.79,221.62-18.11V396.93c-73.87-5.68-147.75-2.27-221.62,18.12Zm1.82-9.15c72.66-19.78,145.32-23.19,218-17.76v6.53c-72.66-5.44-145.32-2-218,17.76Z" style="fill: #002d56"/>
    <path d="M145.15,436.28c79.57-23.37,159.14-26.69,238.71-19.83v-9.17c-79.57-6.86-159.14-3.54-238.71,19.83Z" style="fill: #eed000"/>
    <path d="M144.61,437.08c79.93-23.57,159.86-26.88,239.79-19.95V406.69c-79.93-6.94-159.86-3.63-239.79,19.94Zm1.09-9.49c79.2-23.17,158.41-26.5,237.61-19.72v7.89c-79.2-6.78-158.41-3.45-237.61,19.72Z" style="fill: #002d56"/>
    <path d="M161,231.42c68.41-17.84,136.82-21.34,205.22-16.78v-5.3c-68.4-4.56-136.81-1.06-205.22,16.77Z" style="fill: #eed000;fill-rule: evenodd"/>
    <path d="M160.16,232.66c69-18.11,138-21.61,207-16.94v-7.34c-69-4.67-138-1.17-207,16.94Zm1.74-5.76c67.83-17.56,135.66-21.06,203.48-16.6v3.27c-67.82-4.46-135.65-1-203.48,16.6Z" style="fill: #002d56"/>
    <path d="M263.54,129.9c-42.07,2.95-77.74,44.25-89.54,92.84q12.75-3,25.51-5.35c10.64-31.74,35.31-56.7,64-58.77S317,177.54,327.6,207.5q12.76.23,25.52.88C341.34,162,305.65,126.75,263.54,129.9Z" style="fill: #eed000;fill-rule: evenodd"/>
    <path d="M320,150.17c-16.41-14.92-35.92-22.32-56.44-20.79s-40,11.84-56.4,29.45c-15.84,17-27.76,40-33.57,63.86a.54.54,0,0,0,.07.44.34.34,0,0,0,.36.13q12.75-3,25.51-5.35a.57.57,0,0,0,.41-.4c10.93-32.58,35.9-56.39,63.62-58.37s52.74,17.82,63.64,48.55a.46.46,0,0,0,.42.33q12.76.24,25.52.89a.41.41,0,0,0,.36-.2.54.54,0,0,0,.07-.45C347.75,185.43,335.83,164.57,320,150.17ZM327.89,207c-11.1-30.95-36.33-51-64.35-48.88s-53.2,26-64.33,58.82q-12.3,2.29-24.61,5.16c5.82-23.4,17.55-45.88,33.09-62.52,16.25-17.42,35.56-27.65,55.85-29.14s39.64,5.81,55.89,20.57c15.55,14.12,27.28,34.5,33.09,56.84Q340.21,207.21,327.89,207Z" style="fill: #002d56"/>
    <path d="M173.05,238.36c60.85-14.4,121.71-17.74,182.57-14.44,0,0,3-8.1,7.14-9.45-65.41-4.09-130.81-.72-196.21,15.61C166.55,230.08,170.09,231.67,173.05,238.36Z" style="fill: #eed000;fill-rule: evenodd"/>
    <path d="M164.59,229.93l1.67.76s3.46,1.64,6.29,8.05l.15.34c61.09-14.5,122.19-17.84,183.28-14.51,0-.12.09-.25.14-.38s2.95-7.84,6.81-9.11l3.19-1c-66.53-4.42-133-1.21-199.57,15.4Zm196-15c-2.82,2.31-4.81,6.92-5.36,8.29-60.62-3.26-121.24.08-181.87,14.38a19.55,19.55,0,0,0-5.25-7.32C232.3,214.51,296.46,211.12,360.62,215Z" style="fill: #002d56"/>
    <path d="M314.45,225.83c0,.15-17.33,31.29-51.3,34.12-34.4,3.19-51.31-27.23-51.31-27.4q-4.23,10.78-8.47,21.63a7.64,7.64,0,0,0,2.36,8.23c14.55,14.72,33.69,21.33,57.42,21.07,16.06-1.05,34.25-6.51,57.21-30,6.5-6.61,3.15-11.95,3.15-11.95Q319,233.68,314.45,225.83Z" style="fill: #eed000;fill-rule: evenodd"/>
    <path d="M314.82,225.53a.45.45,0,0,0-.38-.23.46.46,0,0,0-.37.25c-.17.46-17.6,31.09-50.93,33.88l-.69.06c-33.27,2.66-50.06-26.81-50.22-27.26a.36.36,0,0,0-.41-.19.53.53,0,0,0-.38.35q-4.24,10.81-8.49,21.7c-.95,3.5,0,6.77,2.47,8.74,14.56,14.72,34,21.43,57.72,21.17l.72-.05c13.82-1,32.66-5.41,56.79-30,6.73-6.84,3.26-12.6,3.23-12.64Q319.35,233.39,314.82,225.53Zm5.24,27.61C295.73,278,276.86,282,263.17,283c-23.5.25-42.72-6.4-57.15-21a7.1,7.1,0,0,1-2.25-7.62q4.06-10.4,8.12-20.72c2.85,4.77,19.73,29.35,50.56,26.91l.7,0c31.11-2.64,48.57-29.06,51.3-33.72q4.35,7.53,8.7,15.12C323.28,242.09,326.15,246.94,320.06,253.14Z" style="fill: #002d56"/>
    <path d="M210.7,254c-3.44-1.35-5.8-1.29-7.18.14a4.9,4.9,0,0,0-1.07,3.8l1.15-.44a3.18,3.18,0,0,1,.62-2.39c.61-.63,2.3-1.41,6.76.52l.82.35.72-23.44-1.16.14Z" style="fill: #002d56"/>
    <path d="M321.43,240.16c-2-.23-4.05,2-5.19,3.46q-.63-8.87-1.25-17.73l-1.15.11q.75,10.65,1.49,21.31l.93-1.55c.75-1.25,3.11-4.47,5.07-4.25.89.1,1.67,1,2.29,2.55l1.06-.56C323.86,241.43,322.77,240.31,321.43,240.16Z" style="fill: #002d56"/>
    <path d="M355.62,224.32C294.43,221,233.25,224.4,172.06,239a1.79,1.79,0,0,0-1.18,1.72v.48c0,.8.53,1.31,1.18,1.16,61.19-14.59,122.37-18,183.56-14.67a1.24,1.24,0,0,0,1.18-1.37v-.48A1.43,1.43,0,0,0,355.62,224.32Z" style="fill: #eed000"/>
    <path d="M355.62,223.79c-61.19-3.32-122.37.08-183.56,14.67a2.45,2.45,0,0,0-1.64,2.36v.48c0,1.09.74,1.8,1.64,1.58,61.19-14.59,122.37-18,183.56-14.66a1.72,1.72,0,0,0,1.63-1.89v-.48A2,2,0,0,0,355.62,223.79Zm.72,2.49a.78.78,0,0,1-.72.87c-61.19-3.32-122.37.08-183.56,14.67-.4.09-.73-.24-.73-.74v-.48a1.12,1.12,0,0,1,.73-1.08c61.19-14.59,122.37-18,183.56-14.66a.88.88,0,0,1,.72.94Z" style="fill: #002d56"/>
    <path d="M188.33,239l-.05,0h0l0,0Z" style="fill: #eed000"/>
    <path d="M188.39,239h0Z" style="fill: #eed000"/>
    <path d="M188.34,239l0,0,.08,0Z" style="fill: #eed000"/>
    <path d="M202.38,236.52a3.09,3.09,0,0,0-2.17.45c-1.88.76-4,4.17-4.3,5.52,0,0-.45,1.27-1.7,5s-3.23,2.29-3.23,2.29c-1.19-.68-1.54-1.81-1.08-3.38.32-1.33,2.23-1.11,2.23-1.11.31-2.4-.34-3.27-1.95-2.59,0-3-1.54-3.63-1.8-3.7l-.08,0c-.27.18-1.79,1.39-1.8,4.44q-2.42,0-1.95,3.39s1.91-1,2.22.2a3.5,3.5,0,0,1-1.07,3.82s-2,2.26-3.24-1-1.7-4.3-1.7-4.3c-.35-1.21-2.42-3.76-4.3-3.75a3.11,3.11,0,0,0-2.16.45,3.07,3.07,0,0,0-1.69,2.42c-.05,1.62.51,2.18,1.44,2.43s2.29-1.12,2.29-1.12c.44-.2.58-.05.85.11a3.63,3.63,0,0,1,.95,1.3,31.28,31.28,0,0,1,1.35,3.67c.34,1.29,1.1,5.21,4.65,5.06q4.2-.9,8.39-1.74c3.56-1.31,4.31-5.55,4.66-7a42.16,42.16,0,0,1,1.35-4.23,6.66,6.66,0,0,1,.94-1.7c.27-.27.41-.48.86-.46a2.22,2.22,0,0,0,2.29.17,3.09,3.09,0,0,0,1.44-3A1.8,1.8,0,0,0,202.38,236.52Z" style="fill: #eed000"/>
    <path d="M180.88,260.27l-2.7,93.17q10.15-2.29,20.31-4.2-1.31-46-2.6-92.07Q188.39,258.61,180.88,260.27Z" style="fill: #eed000;fill-rule: evenodd"/>
    <path d="M180.14,259.53l-2.76,95q11-2.5,21.91-4.53-1.32-47-2.66-93.88Q188.4,257.7,180.14,259.53ZM179,352.36q1.34-45.69,2.65-91.35,6.75-1.49,13.51-2.79l2.55,90.27Q188.35,350.26,179,352.36Z" style="fill: #002d56"/>
    <path d="M177.55,405.06q10.78-2.46,21.57-4.46v-42q-10.78,2-21.57,4.46Z" style="fill: #eed000;fill-rule: evenodd"/>
    <path d="M176.78,406.14q11.57-2.64,23.11-4.78V357.51q-11.55,2.14-23.11,4.79Zm1.55-42.39q10-2.26,20-4.14v40.23q-10,1.89-20,4.14Z" style="fill: #002d56"/>
    <path d="M199.27,353.75q-10.94,2-21.86,4.51a3.48,3.48,0,0,0-2.76,3.06c0,1.34,1.23,2.13,2.76,1.79q10.92-2.49,21.86-4.52a3.28,3.28,0,0,0,2.76-2.93A2.11,2.11,0,0,0,199.27,353.75Z" style="fill: #eed000;fill-rule: evenodd"/>
    <path d="M199.27,352.84q-10.94,2-21.86,4.52a4.72,4.72,0,0,0-2.42,1.45,4.11,4.11,0,0,0-1.11,2.69c0,1.84,1.58,2.95,3.53,2.51q10.92-2.49,21.86-4.52a4.31,4.31,0,0,0,3.53-4A2.79,2.79,0,0,0,199.27,352.84Zm0,4.85q-10.94,2-21.86,4.51c-1.08.25-2-.24-2-1.06a1.77,1.77,0,0,1,.5-1.1,2.9,2.9,0,0,1,1.49-.87q10.92-2.49,21.86-4.52c1.07-.2,2,.33,2,1.15A2.3,2.3,0,0,1,199.27,357.69Z" style="fill: #002d56"/>
    <path d="M197.88,349.46q-9.54,1.8-19.08,3.94a3.16,3.16,0,0,0-2.46,2.84A1.84,1.84,0,0,0,178.8,358q9.54-2.15,19.08-3.94a3,3,0,0,0,2.45-2.73A1.91,1.91,0,0,0,197.88,349.46Z" style="fill: #eed000;fill-rule: evenodd"/>
    <path d="M197.88,348.56q-9.54,1.8-19.08,3.94a4.26,4.26,0,0,0-3.23,3.91,2.48,2.48,0,0,0,3.23,2.44q9.54-2.14,19.08-3.94a4,4,0,0,0,3.23-3.78A2.58,2.58,0,0,0,197.88,348.56Zm0,4.54q-9.54,1.8-19.08,3.94c-.92.21-1.69-.24-1.69-1a2.09,2.09,0,0,1,1.69-1.75q9.54-2.15,19.08-3.94c.91-.18,1.68.31,1.68,1.05A2,2,0,0,1,197.88,353.1Z" style="fill: #002d56"/>
    <path d="M181.8,398.57q6.54-1.44,13.07-2.7V366.34q-6.52,1.28-13.07,2.7Zm1.55-28.06q5-1.06,10-2.06v25.91q-5,1-10,2.06Z" style="fill: #002d56"/>
    <path d="M195,254.47q-6.63,1.29-13.24,2.74a2.42,2.42,0,0,0-2,2.11c0,.92.88,1.47,2,1.23,4.41-1,8.82-1.88,13.24-2.73a2.34,2.34,0,0,0,2-2C196.92,254.84,196,254.26,195,254.47Z" style="fill: #eed000"/>
    <path d="M195,254q-6.63,1.29-13.24,2.74a3,3,0,0,0-2.42,2.73,1.79,1.79,0,0,0,2.42,1.65q6.61-1.44,13.24-2.73a2.91,2.91,0,0,0,2.41-2.66A1.84,1.84,0,0,0,195,254Zm0,3.35q-6.63,1.27-13.24,2.73c-.83.18-1.52-.19-1.52-.81a1.83,1.83,0,0,1,1.52-1.49q6.61-1.46,13.24-2.73c.82-.16,1.52.23,1.52.85A1.78,1.78,0,0,1,195,257.3Z" style="fill: #002d56"/>
    <path d="M173,411.07q15.36-3.63,30.72-6.35v-4.84q-15.36,2.73-30.72,6.35Z" style="fill: #eed000;fill-rule: evenodd"/>
    <path d="M172.6,411.6q15.74-3.74,31.47-6.51v-5.71q-15.73,2.78-31.47,6.5Zm.75-5q15-3.54,30-6.2v4q-15,2.67-30,6.2Z" style="fill: #002d56"/>
    <path d="M339,227.49l-.05,0H339Z" style="fill: #eed000"/>
    <path d="M338.93,227.47l-.05,0h.05Z" style="fill: #eed000"/>
    <path d="M338.93,227.48h0Z" style="fill: #eed000"/>
    <path d="M353,228.31a2.94,2.94,0,0,0-2.16-.05c-1.88.33-3.95,3.25-4.3,4.52,0,0-.45,1.16-1.7,4.6s-3.24,1.52-3.24,1.52a3.11,3.11,0,0,1-1.07-3.64c.31-1.26,2.22-.58,2.22-.58q.46-3.5-2-3.05c0-3-1.53-4-1.8-4.14h-.08c-.27.12-1.78,1-1.8,4-1.61-.4-2.26.58-1.95,2.92,0,0,1.91-.54,2.23.74a3,3,0,0,1-1.08,3.56s-2,1.78-3.23-1.74-1.7-4.71-1.7-4.71c-.35-1.29-2.42-4.35-4.3-4.81a3,3,0,0,0-2.17-.09,2.22,2.22,0,0,0-1.69,2,2.6,2.6,0,0,0,1.44,2.79c1,.53,2.29-.56,2.29-.56.45-.08.59.1.86.32a5.48,5.48,0,0,1,.94,1.54,36.4,36.4,0,0,1,1.35,4c.35,1.36,1.1,5.48,4.66,6.19q4.18.12,8.39.28c3.55-.47,4.31-4.54,4.65-5.88a37,37,0,0,1,1.35-3.91,4.76,4.76,0,0,1,.95-1.48c.27-.21.41-.38.85-.26,0,0,1.27,1.17,2.29.7s1.49-1.08,1.44-2.69A2.41,2.41,0,0,0,353,228.31Z" style="fill: #eed000"/>
    <path d="M331.86,246.69l-2.7,92.51q10.15.21,20.31.69-1.31-46.35-2.6-92.69Q339.37,246.87,331.86,246.69Z" style="fill: #eed000;fill-rule: evenodd"/>
    <path d="M331.12,245.76l-2.76,94.32q11,.23,21.91.75-1.32-47.25-2.66-94.5Q339.38,246,331.12,245.76ZM330,338.31q1.34-45.36,2.65-90.7,6.75.16,13.51.46L348.67,339Q339.33,338.52,330,338.31Z" style="fill: #002d56"/>
    <path d="M328.8,348.63q.12,21,.23,42,10.79.22,21.56.75V349.37Q339.7,348.85,328.8,348.63Z" style="fill: #eed000;fill-rule: evenodd"/>
    <path d="M328.26,391.56q11.55.22,23.11.8V348.51q-11.69-.57-23.35-.8Zm21.56-41.32v40.24q-10-.48-20-.7-.12-20.11-.22-40.23Q339.71,349.76,349.82,350.24Z" style="fill: #002d56"/>
    <path d="M350.69,344.59q-10.94-.52-21.86-.76a2.56,2.56,0,0,0-2.76,2.37,2.67,2.67,0,0,0,2.76,2.48q10.94.22,21.86.75a2.45,2.45,0,0,0,2.76-2.28A2.77,2.77,0,0,0,350.69,344.59Z" style="fill: #eed000"/>
    <path d="M350.69,343.69q-10.94-.53-21.86-.76a3.36,3.36,0,0,0-3.53,3.26,3.52,3.52,0,0,0,3.53,3.39q10.92.23,21.86.76a3.24,3.24,0,0,0,3.53-3.15A3.65,3.65,0,0,0,350.69,343.69Zm0,4.84q-10.94-.52-21.86-.76a1.87,1.87,0,0,1-2-1.55c0-.83.91-1.5,2-1.48q10.92.22,21.86.75a2,2,0,0,1,2,1.62C352.67,347.93,351.76,348.58,350.69,348.53Z" style="fill: #002d56"/>
    <path d="M349,340q-9.54-.45-19.08-.66a2.32,2.32,0,0,0-2.46,2.23,2.43,2.43,0,0,0,2.46,2.32q9.54.21,19.08.65a2.24,2.24,0,0,0,2.46-2.15A2.51,2.51,0,0,0,349,340Z" style="fill: #eed000;fill-rule: evenodd"/>
    <path d="M349,339.06q-9.54-.44-19.08-.65a3.13,3.13,0,0,0-3.23,3.11,3.29,3.29,0,0,0,3.23,3.24q9.54.21,19.08.66a3,3,0,0,0,3.23-3A3.41,3.41,0,0,0,349,339.06Zm0,4.55q-9.54-.45-19.08-.66a1.61,1.61,0,0,1-1.68-1.4,1.53,1.53,0,0,1,1.68-1.33q9.54.21,19.08.65a1.66,1.66,0,0,1,1.68,1.45A1.49,1.49,0,0,1,349,343.61Z" style="fill: #002d56"/>
    <path d="M333.08,385.22q6.53.16,13.07.45V356.15q-6.54-.28-13.07-.45Zm1.54-27.67c3.33.09,6.65.21,10,.34V383.8c-3.33-.14-6.65-.25-10-.35Z" style="fill: #002d56"/>
    <path d="M345.83,243.93q-6.61-.28-13.23-.45a1.78,1.78,0,0,0-2,1.62,1.9,1.9,0,0,0,2,1.72q6.61.17,13.23.45a1.74,1.74,0,0,0,2-1.59A1.93,1.93,0,0,0,345.83,243.93Z" style="fill: #eed000"/>
    <path d="M345.83,243.4q-6.61-.27-13.23-.45a2.23,2.23,0,0,0-2.42,2.14,2.35,2.35,0,0,0,2.42,2.25c4.41.11,8.82.27,13.23.45a2.17,2.17,0,0,0,2.42-2.09A2.41,2.41,0,0,0,345.83,243.4Zm0,3.35q-6.61-.28-13.23-.45a1.44,1.44,0,0,1-1.52-1.19c0-.62.69-1.13,1.52-1.11q6.61.17,13.23.45c.83,0,1.53.59,1.53,1.21S346.66,246.78,345.83,246.75Z" style="fill: #002d56"/>
    <path d="M246.73,398.74q15.36-1.56,30.73-2.36v-4.84q-15.36.81-30.73,2.36Z" style="fill: #eed000;fill-rule: evenodd"/>
    <path d="M246.36,399.21q15.74-1.6,31.47-2.41v-5.71q-15.74.81-31.47,2.41Zm.74-4.91q15-1.51,30-2.31v4q-15,.79-30,2.3Z" style="fill: #002d56"/>
    <path d="M138.87,356.19l0,0C138.76,356.12,138.76,356.12,138.87,356.19Z" style="fill: #eed000;fill-rule: evenodd"/>
    <path d="M199.24,295.5c-1.73,12.48-5.12,14.57-7.29,15.93s-9.44,3.56-18.71,9.38c-9,5.71-13,10.55-23.24,21s-13.69,4.43-17.72,3.74c-6.36-1-10.34,6.56-10.34,6.55s5.51-3.05,10.73-.33h0c4.82,2.51,6,4.14,6.18,4.36.73.33,7.43,3.77,10.27-.35-3,4.39-2.37,13-2.76,15.1-2.12,11.12-9.75,21.26-9.75,21.27S145,388,153.1,371.93c3.44-6.84,9.11-13.12,12.07-16.63,8.72-10.44,24.42-16.78,33.48-23.25s10.44-15.21,10.44-15.23S199.63,292.63,199.24,295.5Z" style="fill: #eed000;fill-rule: evenodd"/>
    <path d="M199.27,294.5a1.14,1.14,0,0,0-.7,1c-1.67,12-4.79,13.95-6.85,15.25a37.92,37.92,0,0,1-3.85,1.77,100,100,0,0,0-14.84,7.6c-7.34,4.63-11.36,8.73-18,15.61l-5.37,5.55c-7.6,7.82-11.16,6.09-14.31,4.55a10.14,10.14,0,0,0-2.79-1.05c-6.77-1.12-11.1,7-11.15,7.07l-1,2,1.68-.93c.06,0,5.32-2.86,10.22-.31,4,2.09,5.47,3.56,5.88,4a.73.73,0,0,0,.3.34l2.88,1.83c-.17-.29-.34-.58-.52-.87,2.05.7,4.47,1.12,6.47.26-1.18,3.39-1.33,7.55-1.42,10.28a24.46,24.46,0,0,1-.16,2.48c-2,10.72-9.46,20.69-9.54,20.81l-1.76,2.35,2.31-1.15c.36-.18,8.81-4.52,16.95-20.71,2.93-5.82,7.56-11.3,10.63-14.88.47-.55.91-1.06,1.3-1.53,5.5-6.54,14-11.65,21.6-15.95,4.35-2.49,8.46-4.78,11.74-7.14,9.27-6.66,10.76-15.47,10.82-15.86l0-.25-.08-.2C200.94,293.92,199.85,294.33,199.27,294.5Zm-.9,36.88c-3.21,2.32-7.28,4.59-11.58,7.05-7.66,4.37-16.35,9.57-22,16.36l-1.28,1.52c-3.14,3.66-7.87,9.27-10.92,15.33-5.11,10.17-10.38,15.49-13.43,18,2.47-3.89,6.44-11,7.91-18.71a23.94,23.94,0,0,0,.19-2.78c.12-3.32.32-8.88,2.38-11.89l-1-.84c-1.48,2.15-4.95,2.14-9.3.05-.4-.52-1.84-2.1-6.27-4.41a12,12,0,0,0-9.38-.43h0c1.53-2,4.44-4.85,8.35-4.21a10.1,10.1,0,0,1,2.55,1c3.31,1.63,7.44,3.62,15.79-5,2-2.06,3.78-3.89,5.39-5.56,6.57-6.78,10.53-10.81,17.71-15.33a100.33,100.33,0,0,1,14.66-7.5,36.47,36.47,0,0,0,4.06-1.88c2.14-1.34,5.66-3.52,7.52-15.26,1.62,2.81,5.41,11.79,8.68,20.14A25.18,25.18,0,0,1,198.37,331.38Z" style="fill: #002d56"/>
    <path d="M388.8,323.38c-7.94,2.37-15.36-4.4-18.21-6.22s-5.62-8.81-23.24-15-19.21-16.37-19.21-16.41h0s-6.4,13-5,23.1,11.52,16.46,14.77,18.09,18.81,8.5,21.86,10.46,11.33,9.25,16.35,17.61,16.45,12.83,16.45,12.84-8.57-8.4-9.06-15.92a28.18,28.18,0,0,0-3.65-12.42c3.37.05,3.74-.26,8.47-2.61,2.17-1.07,4.39-2.12,10.24-9.62.34-.44,3.11-5.57,2.84-6.12C400.68,320.49,391.93,322.43,388.8,323.38Z" style="fill: #eed000;fill-rule: evenodd"/>
    <path d="M401.9,320.71l-.1-.1c-1.32-1.32-13.09,1.94-13.21,2-6.51,1.94-12.78-2.62-16.16-5.05-.6-.44-1.12-.81-1.55-1.09a13.1,13.1,0,0,1-2.11-2c-2.89-3.07-7.73-8.32-21.26-13-8.86-3.06-13.48-7.15-15.79-10.1a14,14,0,0,1-2.91-5.69l-.33-2.17-.93,1.9c-.26.53-6.5,13.4-5.1,23.61,1.32,9.6,10.52,16.38,15.19,18.71,1.18.58,3.95,1.83,7.16,3.3,5.68,2.59,12.74,5.92,14.66,7.13,3.07,1.91,11.21,9.21,16.09,17.34,5.11,8.46,16.35,13,16.83,13.16l3.25,1.31L393,367.3c-.08-.09-8.33-8.26-8.79-15.34a30.16,30.16,0,0,0-3.1-11.62c2.33-.06,3.25-.52,6.68-2.23l.95-.47c2.22-1.1,4.51-2.23,10.38-9.76,0-.05,3.54-5.72,2.9-7Zm-3.87,6c-5.68,7.31-7.85,8.38-9.94,9.42l-.95.47c-3.92,1.95-4.33,2.16-7.34,2.12h-1.3l.81,1.25a27.5,27.5,0,0,1,3.5,12c.34,5.13,4.11,10.49,6.76,13.68-3.7-1.95-9.71-5.69-12.93-11-5-8.37-13.42-15.91-16.59-17.88-2-1.25-9.09-4.61-14.79-7.21-3.2-1.47-6-2.71-7.12-3.29-.13-.09-12.82-6.38-14.35-17.48-1.05-7.65,2.62-17.26,4.22-21,1.31,3.41,5.59,10.53,19.17,15.18,13.22,4.59,17.91,9.67,20.71,12.65a13.59,13.59,0,0,0,2.4,2.24c.41.26.9.62,1.49,1,3.55,2.56,10.17,7.37,17.24,5.26a65.77,65.77,0,0,1,11.52-2.32A40.68,40.68,0,0,1,398,326.75Z" style="fill: #002d56"/>
    <path d="M174.13,279.46c-14.58,10-18.44,19-21.38,25.89,0,0-3.7,4.67,8.27,6.95l1.06.23c6.28,1.64,11.88,2.36,16.9-.73-7.68,3.13-8.08.85-7.09-3.2.63-2.57,3.91-5.39,14.55-12.27s12.95.11,12.95.09,5.58-11.81,8.81-18.52C213.52,266.89,193.63,266.05,174.13,279.46Z" style="fill: #eed000"/>
    <path d="M173.88,278.78C159,289.05,155,298.36,152.21,305a3.94,3.94,0,0,0-.64,2.7c.38,2.5,3.47,4.26,9.2,5.38l1,.22c4.29,1.12,8.76,2,13,1a14.5,14.5,0,0,0,4.39-1.8c-.1-.49-.21-1-.31-1.46-3.55,1.44-5.7,1.8-6.4,1-.42-.46-.4-1.51.06-3.39.53-2.16,3.7-4.91,14.13-11.65,9.82-6.29,12-.43,12.08-.21.17.48.33,1,.49,1.45.24-.52.48-1,.73-1.54,0,0,5.58-11.8,8.81-18.5,1.68-3.5.88-5.66-.09-6.85C204.31,265.92,188,269,173.88,278.78Zm33.74-1.19c-2.59,5.39-6.71,14.07-8.22,17.28a5.59,5.59,0,0,0-2.17-1.79c-2.71-1.25-6.42-.41-11,2.56-11.31,7.33-14.25,10-15,12.89-.41,1.66-.71,3.49,0,4.59a34.44,34.44,0,0,1-8.95-1.39l-1.06-.23h0c-6.85-1.33-8.17-3.29-8.36-4.38a1.83,1.83,0,0,1,.28-1.29l.09-.11.06-.14c2.73-6.43,6.48-15.43,21-25.44a58,58,0,0,1,20.94-9.27c6-1.16,10.56-.51,12.34,1.69C208.65,273.78,208.64,275.48,207.62,277.59Z" style="fill: #002d56"/>
    <path d="M346.75,259.08c-21.86-6-30.52,5-28.65,8.62s9.85,15.11,10.14,19.85c2.24-4.9,7.29-6.21,15.12-3.58a29.88,29.88,0,0,1,8.21,5c10.84,9.67,8.84,17.52,5.84,17.55-3.35,0,21.25.76,24.2-.72s3.94-3.58,2.17-8.12S368.62,265.14,346.75,259.08Z" style="fill: #eed000"/>
    <path d="M346.87,258.42c-17.36-4.76-26.19,1.18-28.67,5.25-1,1.61-1.2,3.21-.6,4.38.49,1,1.45,2.53,2.57,4.34,2.9,4.74,7.29,11.94,7.49,15.2a.69.69,0,0,0,.46.63.55.55,0,0,0,.63-.34c2.12-4.62,7-5.77,14.46-3.26a29.31,29.31,0,0,1,8,4.92c6.91,6.14,8.53,11.68,7.82,14.51-.28,1.11-.92,1.81-1.68,1.82-.39,0-.7,0-.83.45a.8.8,0,0,0,.18.74,1.16,1.16,0,0,0,.47.12v.05h.37c2.42.21,9.26.17,10.83.18,7.72,0,12.26-.28,13.5-.95,3.48-1.88,4.18-4.47,2.42-9C384.18,297.2,370.78,265.07,346.87,258.42Zm34.47,46.79c-2.08,1.09-16.1.83-21.81.76a4.8,4.8,0,0,0,.63-1.47c.86-3.41-.86-9.45-8.25-16a30.25,30.25,0,0,0-8.41-5.15h0a23.61,23.61,0,0,0-6.7-1.34c-3.76-.12-6.54,1.18-8.3,3.85-1.08-3.88-4.67-9.77-7.39-14.21-1.1-1.79-2.05-3.34-2.51-4.25a3.2,3.2,0,0,1,.55-2.9c2.31-3.81,10.72-9.31,27.49-4.72,23.36,6.49,36.49,37.95,36.62,38.21C384.94,302.27,383.89,303.83,381.34,305.21Z" style="fill: #002d56"/>
    <path d="M336.2,264.33q-1.38,5.25-2.75,10.5L328,265.74l-1.82.32q1,6.72,1.91,13.44l1.7-.29c-.37-2.58-.73-5.15-1.1-7.72l4.22,7.18,1.27-.22c.74-2.76,1.49-5.52,2.23-8.28.37,2.58.74,5.15,1.1,7.73l2.24-.37q-.95-6.73-1.91-13.47Z" style="fill: #002d56;fill-rule: evenodd"/>
    <path d="M347.19,265.73a3.43,3.43,0,0,0-3.66.87,8.11,8.11,0,0,0-2,4.38l-.14.75a8.57,8.57,0,0,0,.4,5.08,4.44,4.44,0,0,0,2.91,2.52,3.58,3.58,0,0,0,3.51-.73,7.41,7.41,0,0,0,2.05-4.43l.12-.7a9.52,9.52,0,0,0-.29-5A4.18,4.18,0,0,0,347.19,265.73Zm.75,7.21-.06.36h0a9.36,9.36,0,0,1-1.11,3.5,1.44,1.44,0,0,1-1.7.67,1.79,1.79,0,0,1-1.45-1.47,13.83,13.83,0,0,1,.31-3.84l.06-.33a11.87,11.87,0,0,1,1-3.65,1.42,1.42,0,0,1,1.77-.61,1.82,1.82,0,0,1,1.44,1.65A14.36,14.36,0,0,1,347.94,272.94Z" style="fill: #002d56;fill-rule: evenodd"/>
    <path d="M358.45,271.68l-3.19-2.21q-2.76,5.83-5.54,11.67l3.55,2.43a3.32,3.32,0,0,0,3.42.53q1.59-.72,2.94-3.55c.07-.15.15-.31.22-.47a8.79,8.79,0,0,0,1-4.73A5.08,5.08,0,0,0,358.45,271.68Zm-.83,7-.15.31h0a6.67,6.67,0,0,1-2,2.79,1.59,1.59,0,0,1-1.79-.16l-1-.68q1.95-4.09,3.89-8.18l.81.56a2.5,2.5,0,0,1,1,2.05A7.29,7.29,0,0,1,357.62,278.64Z" style="fill: #002d56;fill-rule: evenodd"/>
    <path d="M357.25,287.19q2.5,3,5,6.05c.41-.46.81-.92,1.22-1.37L360.24,288c.77-.87,1.53-1.74,2.3-2.6l2.34,2.84,1.23-1.38L363.77,284l2.18-2.46,3,3.67,1.22-1.36L365.39,278Q361.33,282.57,357.25,287.19Z" style="fill: #002d56;fill-rule: evenodd"/>
    <path d="M373.28,289q-5,3.08-10,6.21l1.26,2.59L369,295l.3.61a2.09,2.09,0,0,1-.27,2.23,11.65,11.65,0,0,1-3.2,2.68c.42.85.84,1.71,1.25,2.56h0a10.31,10.31,0,0,0,3.42-3,4.06,4.06,0,0,0,.58-3,3.05,3.05,0,0,0,1.49,1.43,1.86,1.86,0,0,0,1.66-.24l.55-.33a2.65,2.65,0,0,0,1.19-1.64,4.05,4.05,0,0,0-.52-2.73C374.75,292,374,290.52,373.28,289Zm.54,5.68a1.42,1.42,0,0,1-.73,1l-.28.17a1.1,1.1,0,0,1-1.06.14,2.3,2.3,0,0,1-.94-1.14c-.11-.24-.22-.47-.34-.71l2.65-1.63c.13.28.27.57.41.85A2.35,2.35,0,0,1,373.82,294.68Z" style="fill: #002d56;fill-rule: evenodd"/>
    <path d="M327.74,311.35l1.64,1.42,2.31-2,2.94,2.58c-.32,1.06-.65,2.12-1,3.17l2.06,1.81,3.73-13.51-1.87-1.65Q332.65,307.23,327.74,311.35Zm7.45.06-2.13-1.87,3.54-3.07Z" style="fill: #002d56;fill-rule: evenodd"/>
    <path d="M342,309.12l2.2,1.35q-2.16,5.11-4.33,10.23l2.24,1.36q2.16-5.12,4.33-10.22l2.15,1.32.76-1.78-6.6-4.05Z" style="fill: #002d56;fill-rule: evenodd"/>
    <path d="M347.14,324.74l2.28,1.24q2.28-6.15,4.54-12.29l-2.29-1.25Q349.41,318.57,347.14,324.74Z" style="fill: #002d56;fill-rule: evenodd"/>
    <path d="M361.26,317.63a3.45,3.45,0,0,0-3.77-.14,7.2,7.2,0,0,0-2.74,3.7l-.27.69a8.32,8.32,0,0,0-.55,5,5.05,5.05,0,0,0,2.4,3.22,3.6,3.6,0,0,0,3.59.23,6.6,6.6,0,0,0,2.84-3.72c.08-.22.16-.43.25-.65a9.23,9.23,0,0,0,.63-4.88A4.71,4.71,0,0,0,361.26,317.63Zm-.6,7.17-.13.33h0a8.58,8.58,0,0,1-1.73,3.08,1.41,1.41,0,0,1-1.8.19,2,2,0,0,1-1.15-1.81,12.63,12.63,0,0,1,1-3.63c0-.1.07-.2.11-.3a10.74,10.74,0,0,1,1.7-3.24,1.39,1.39,0,0,1,1.86-.11,2,2,0,0,1,1.11,2A13.3,13.3,0,0,1,360.66,324.8Z" style="fill: #002d56;fill-rule: evenodd"/>
    <path d="M370.51,332.87q-.56-5.07-1.12-10.12c-.38-.29-.76-.58-1.15-.86q-2.89,5.69-5.8,11.39l1.53,1.13,3.65-7.15q.56,5.34,1.13,10.7l.92.69q2.91-5.68,5.81-11.34l-1.54-1.16Q372.23,329.51,370.51,332.87Z" style="fill: #002d56;fill-rule: evenodd"/>
    <path d="M172.72,285.23c.75,2.64,1.49,5.29,2.24,7.93l-5.67-4.7-1.51,1.43,1.92,8.23c-1.81-1.63-3.62-3.26-5.43-4.87l-2.16,2.06q4.3,3.81,8.59,7.67l1.54-1.45L170.38,293q2.94,2.39,5.88,4.8l1.54-1.43q-1.68-6.37-3.36-12.72C173.86,284.15,173.29,284.68,172.72,285.23Z" style="fill: #002d56;fill-rule: evenodd"/>
    <path d="M178.46,281.69q1.69,6.12,3.4,12.25l2.37-1.37-3.39-12.26Z" style="fill: #002d56;fill-rule: evenodd"/>
    <path d="M194.19,284.47a3.61,3.61,0,0,0-.92-2.13,3.44,3.44,0,0,0-2.3-.87,5.72,5.72,0,0,1-2-.35,1.22,1.22,0,0,1-.46-.93,1.51,1.51,0,0,1,.32-1.08,2.91,2.91,0,0,1,1.38-.88,6.48,6.48,0,0,1,1.32-.35c.43-.05.85-.09,1.28-.12l-.25-2a5.26,5.26,0,0,0-1.07.07,6.69,6.69,0,0,0-1.67.42,5.59,5.59,0,0,0-2.85,2.15,4.29,4.29,0,0,0-.75,3,3.42,3.42,0,0,0,1,2.25,3.81,3.81,0,0,0,2.07.81,4.28,4.28,0,0,1,2,.49,1.36,1.36,0,0,1,.46.9,2,2,0,0,1-.3,1.44,3.59,3.59,0,0,1-1.61,1,6.69,6.69,0,0,1-1.76.39,4.16,4.16,0,0,1-1.37-.08c.09.75.19,1.5.28,2.26a5.94,5.94,0,0,0,1.39-.09,12.13,12.13,0,0,0,2-.56,6.55,6.55,0,0,0,3.1-2.17,4.77,4.77,0,0,0,.78-3.51Z" style="fill: #002d56;fill-rule: evenodd"/>
    <path d="M228,268.12a1.39,1.39,0,0,1-.7.84,1,1,0,0,1-.81,0,3.56,3.56,0,0,1-.8-.5,4.83,4.83,0,0,1-.56-.58l-.81,2a2.59,2.59,0,0,0,.63.72,5.44,5.44,0,0,0,1.22.72,2.46,2.46,0,0,0,2.37,0,3.77,3.77,0,0,0,1.57-1.89l4-9.82-2.22-1Q230,263.33,228,268.12Z" style="fill: #002d56;fill-rule: evenodd"/>
    <path d="M241.06,272.54a2.74,2.74,0,0,1-1,1.58,1.69,1.69,0,0,1-1.44.05,1.61,1.61,0,0,1-1.14-1,2.93,2.93,0,0,1,.13-1.74l2.91-9.22-2.32-.78c-.93,3-1.86,5.91-2.8,8.87a5.72,5.72,0,0,0-.17,3.64,4.51,4.51,0,0,0,5.64,2,4.53,4.53,0,0,0,1.81-2.61q1.49-4.68,3-9.34L244,263.4Q242.51,268,241.06,272.54Z" style="fill: #002d56;fill-rule: evenodd"/>
    <path d="M252.75,265.12a4.19,4.19,0,0,0-3.09.94,3.88,3.88,0,0,0-1.35,2.6,4.38,4.38,0,0,0,.4,2.64,4.64,4.64,0,0,0,1.72,1.65,5,5,0,0,1,1.73,1.31,1.69,1.69,0,0,1,.22,1.07,1.76,1.76,0,0,1-.59,1.3,2.68,2.68,0,0,1-1.7.31,6.11,6.11,0,0,1-1.71-.34,3.88,3.88,0,0,1-1.24-.65l-.24,2.35a5.34,5.34,0,0,0,1.29.5,10.73,10.73,0,0,0,2,.26,4.87,4.87,0,0,0,3.33-.87,4.29,4.29,0,0,0,1.5-3.14h0a4.41,4.41,0,0,0-.38-2.47,4.27,4.27,0,0,0-1.93-1.81,6.31,6.31,0,0,1-1.8-1.19,1.55,1.55,0,0,1-.21-1.11,1.31,1.31,0,0,1,.53-.92,2.26,2.26,0,0,1,1.46-.31,5.79,5.79,0,0,1,1.3.21c.4.12.8.26,1.21.41l.21-2.08a5.59,5.59,0,0,0-1-.38A6.51,6.51,0,0,0,252.75,265.12Z" style="fill: #002d56;fill-rule: evenodd"/>
    <path d="M259.11,267.8l2.45-.14c-.06,3.86-.11,7.72-.17,11.58l2.48-.14q.09-5.79.17-11.58l2.4-.12,0-2c-2.44.12-4.89.26-7.33.4Z" style="fill: #002d56;fill-rule: evenodd"/>
    <path d="M270.75,264.69q.71,6.69,1.42,13.4l2.46-.5-1.41-13.41Z" style="fill: #002d56;fill-rule: evenodd"/>
    <path d="M285.8,271.69a5.28,5.28,0,0,1-1.3.73,2,2,0,0,1-2.14-.36,6.29,6.29,0,0,1-1.57-3.13l0-.18a7.12,7.12,0,0,1-.17-3.65,2.82,2.82,0,0,1,1.69-2,4.5,4.5,0,0,1,1.24-.33,3,3,0,0,1,.91,0l-.54-2a2.74,2.74,0,0,0-1,0,8.09,8.09,0,0,0-1.51.47,5.27,5.27,0,0,0-3,3.15,8.25,8.25,0,0,0-.13,5.2l.13.52c.55,2.07,1.41,3.45,2.59,4.16a4.21,4.21,0,0,0,3.9.21,6.46,6.46,0,0,0,1.44-.78,3.41,3.41,0,0,0,.79-.73l-.52-2C286.4,271.17,286.13,271.41,285.8,271.69Z" style="fill: #002d56;fill-rule: evenodd"/>
    <path d="M294.25,266.82c-.5-1.12-1-2.25-1.49-3.37l2.92-1.83-.79-1.81L292,261.64c-.48-1.07-1-2.14-1.42-3.21l3.76-2.35-.78-1.79-6,3.76L292.82,270c2.08-1.3,4.16-2.6,6.24-3.88l-.78-1.79Z" style="fill: #002d56;fill-rule: evenodd"/>
    <path d="M168,339.14A5.33,5.33,0,0,0,165,336.3c-1.11-.34-2.38.15-3.83,1.46l-3.17,2.9q2.82,5.19,5.63,10.42l3.53-3.19a5.93,5.93,0,0,0,2.09-3.69,7.76,7.76,0,0,0-1.1-4.63Zm-2,7.52-1,.9q-2-3.68-4-7.34l.81-.73a1.8,1.8,0,0,1,2-.45,4.34,4.34,0,0,1,2,2.13l.15.29h0a6.62,6.62,0,0,1,1,3.22A2.85,2.85,0,0,1,166,346.66Z" style="fill: #002d56;fill-rule: evenodd"/>
    <path d="M178.41,331.37a5.87,5.87,0,0,0-2.64-3.29q-1.68-.84-3.7.64a6.16,6.16,0,0,0-2.52,3.89,8.53,8.53,0,0,0,.54,4.84l.26.65q1.05,2.67,2.77,3.25a3.83,3.83,0,0,0,3.57-.78,6.29,6.29,0,0,0,2.46-3.61,8,8,0,0,0-.5-5ZM176.05,339c-.8.58-1.43.66-1.88.24a9.44,9.44,0,0,1-1.61-3l-.11-.28a10.73,10.73,0,0,1-.93-3.52,2.46,2.46,0,0,1,1.13-2c.82-.59,1.46-.63,1.95-.1a9.69,9.69,0,0,1,1.57,2.91l.12.31h0a8.75,8.75,0,0,1,.8,3.47A2.46,2.46,0,0,1,176.05,339Z" style="fill: #002d56;fill-rule: evenodd"/>
    <path d="M188.82,318.33q-.54,5.61-1.07,11.21-3.39-3.12-6.78-6.19l-1.73,1.12q2,6,4,11.9l1.61-1q-1.14-3.42-2.27-6.84l5.25,4.95,1.2-.77c.31-3,.61-5.91.91-8.87.76,2.29,1.51,4.58,2.27,6.87l2.14-1.33q-2-6-4-12Z" style="fill: #002d56;fill-rule: evenodd"/>
    <path d="M201.14,196.25a8.89,8.89,0,0,1-.79,1.85,3.33,3.33,0,0,1-2.2,1.83,4.49,4.49,0,0,1-3.27-.87l-.14-.1a5,5,0,0,1-2.27-2.66,4.1,4.1,0,0,1,.41-3.26,10.58,10.58,0,0,1,1-1.5,6.75,6.75,0,0,1,.87-.89l-1.69-1a5.33,5.33,0,0,0-.91,1,16.57,16.57,0,0,0-1.15,1.88,8.21,8.21,0,0,0-1,5.4,5.94,5.94,0,0,0,2.87,4.15l.42.27a5.16,5.16,0,0,0,4.83.67,7.69,7.69,0,0,0,3.76-3.69,11.34,11.34,0,0,0,.89-2,5.32,5.32,0,0,0,.32-1.35l-1.63-1A13.34,13.34,0,0,1,201.14,196.25Z" style="fill: #002d56;fill-rule: evenodd"/>
    <path d="M209.4,176.71l-.5-.48a5.83,5.83,0,0,0-4.2-1.86c-1.47,0-2.8.87-4,2.53A7,7,0,0,0,199.2,182a7.29,7.29,0,0,0,2.35,4.43l.53.5a5.24,5.24,0,0,0,4.34,1.75,5.71,5.71,0,0,0,3.81-2.56,7.25,7.25,0,0,0,1.51-4.77A6.88,6.88,0,0,0,209.4,176.71Zm-.49,8.13c-.7,1-1.39,1.37-2.06,1.18a8.76,8.76,0,0,1-2.92-2.1l-.23-.22a9.29,9.29,0,0,1-2.32-2.95,2.73,2.73,0,0,1,.58-2.54c.72-1,1.45-1.36,2.2-1.1a9,9,0,0,1,2.83,2l.25.24h0a7.51,7.51,0,0,1,2.16,3A2.7,2.7,0,0,1,208.91,184.84Z" style="fill: #002d56;fill-rule: evenodd"/>
    <path d="M216.42,159.08l4.49,6.55c-3.16-.54-6.31-1-9.47-1.53l-1.26,1.27q3.8,5.48,7.59,11l1.68-1.67-4.77-6.94q5,.84,10,1.75l1-1q-3.8-5.58-7.59-11.11Z" style="fill: #002d56;fill-rule: evenodd"/>
    <path d="M235.34,154a4.4,4.4,0,0,0-2.93-.12,7.86,7.86,0,0,1-2.48.34,1.2,1.2,0,0,1-.79-.8,1.48,1.48,0,0,1,.09-1.22,3.78,3.78,0,0,1,1.37-1.39,8.47,8.47,0,0,1,1.46-.8c.48-.21,1-.4,1.46-.57-.28-.66-.56-1.32-.83-2a7.37,7.37,0,0,0-1.24.43,10.13,10.13,0,0,0-1.85,1,7.1,7.1,0,0,0-2.75,3.19,4.25,4.25,0,0,0-.09,3.31,3.34,3.34,0,0,0,1.76,2,4.79,4.79,0,0,0,2.64.12,6.06,6.06,0,0,1,2.48-.17,1.37,1.37,0,0,1,.77.78,1.9,1.9,0,0,1,0,1.58,4.42,4.42,0,0,1-1.61,1.56,9.39,9.39,0,0,1-2,1,5,5,0,0,1-1.62.37c.31.75.62,1.49.94,2.24a8,8,0,0,0,1.61-.56A15.91,15.91,0,0,0,234,163a8.33,8.33,0,0,0,3-3.28,4.68,4.68,0,0,0,0-3.89A3.4,3.4,0,0,0,235.34,154Z" style="fill: #002d56;fill-rule: evenodd"/>
    <path d="M248.17,142.15c-.17-.71-.34-1.42-.5-2.12-2.77,1.14-5.53,2.3-8.3,3.48.17.71.33,1.41.5,2.12l2.78-1.18q1.41,6,2.84,12.1l2.81-1.17q-1.43-6.06-2.84-12.11Z" style="fill: #002d56;fill-rule: evenodd"/>
    <path d="M255.71,138.09l.9,15,2.9-.48-.9-15Z" style="fill: #002d56;fill-rule: evenodd"/>
    <path d="M265.6,139.25l2.86,0q-.37,6.44-.76,12.86l2.9,0q.38-6.44.77-12.86l2.8.06c0-.75.09-1.5.13-2.25-2.86-.07-5.71-.12-8.57-.15C265.68,137.75,265.64,138.5,265.6,139.25Z" style="fill: #002d56;fill-rule: evenodd"/>
    <path d="M286.29,150.78a2.73,2.73,0,0,1-1,1.74,2.08,2.08,0,0,1-1.68,0,2.1,2.1,0,0,1-1.42-1.09,3.07,3.07,0,0,1,0-1.93l2.64-10.21-2.78-.87q-1.28,4.91-2.54,9.82a5.94,5.94,0,0,0,.1,4,4.72,4.72,0,0,0,3.14,2.32,4.38,4.38,0,0,0,3.63-.11,4.46,4.46,0,0,0,1.9-2.88q1.35-5.17,2.69-10.35l-2.06-.67Q287.6,145.71,286.29,150.78Z" style="fill: #002d56;fill-rule: evenodd"/>
    <path d="M296.86,145.9l2.56,1.47-5,11.55L297,160.4l5-11.53,2.5,1.45.88-2q-3.83-2.25-7.66-4.43Z" style="fill: #002d56;fill-rule: evenodd"/>
    <path d="M304.06,165.22l2.35,2q3.79-6.13,7.59-12.24l-2.35-2Q307.86,159.07,304.06,165.22Z" style="fill: #002d56;fill-rule: evenodd"/>
    <path d="M320.18,163.08a6.93,6.93,0,0,0-4.2,2.63l-.52.6a8.23,8.23,0,0,0-2.23,5,6.28,6.28,0,0,0,1.57,4.48,4.64,4.64,0,0,0,3.85,1.87q2.16-.1,4.32-2.61l.49-.56a9.07,9.07,0,0,0,2.28-4.83,5.84,5.84,0,0,0-1.48-4.72A4.43,4.43,0,0,0,320.18,163.08Zm3.31,5.89a12.8,12.8,0,0,1-2.22,3.24l-.24.29a8.32,8.32,0,0,1-2.91,2.44,1.73,1.73,0,0,1-2-.62,2.42,2.42,0,0,1-.67-2.43,12.5,12.5,0,0,1,2.28-3.35l.23-.26a10,10,0,0,1,2.92-2.63c.71-.3,1.4-.05,2.07.74A2.4,2.4,0,0,1,323.49,169Z" style="fill: #002d56;fill-rule: evenodd"/>
    <path d="M331,188.36q1.27-5.49,2.56-11l-.91-1.5q-5.24,4.31-10.45,8.67c.41.66.81,1.32,1.22,2l6.56-5.45-2.76,11.62c.24.4.48.8.73,1.2q5.22-4.33,10.45-8.6l-1.22-2Q334.08,185.81,331,188.36Z" style="fill: #002d56;fill-rule: evenodd"/>
    <path d="M304.75,305.06l-.36-.93,0-.06Z" style="fill: #eed000;fill-rule: evenodd"/>
    <path d="M310.63,308.37c-1.42-.73-5.31-2-5.72-3.22-.18-.34-.35-.68-.52-1l.36.93-.39-1,0,.06-.15-.39c0-.28-.07-.56-.11-.83s.13-.58.2-.87l.12-1c.29,0,.42.1.69-.1s.14-.45.42-.87.26-.58.46-.83a1.81,1.81,0,0,0-.09-1.48c-.23-.67-.94.25-.94.26l.38-.52c.12-.52.23-1,.35-1.54v-.49c.46.28.56.46.14.4s5.45,1.45,6.53.72c.23-.16,1,.15.28-1.16a23,23,0,0,0-2.27-3.76c-.57-.64-2.49-1.93-3-3a4.07,4.07,0,0,0-2.34-2.23,16.45,16.45,0,0,0-3.84-.7,8.86,8.86,0,0,1-2.36-.09,35.81,35.81,0,0,0-3.8-.23s-3.28.7-2.93,2.15a9.32,9.32,0,0,0,.89,2.6l0,.35a1.08,1.08,0,0,1-.33.44c-.23.16-1.64,1.11-2.84,2.12a1.43,1.43,0,0,0,0,2.18,9.31,9.31,0,0,1,1,.24,6.93,6.93,0,0,0,1.07.21l1.52.09,1.26.13a6.15,6.15,0,0,0,0,1.88c.2.65.54,2.33.6,2.59a24.6,24.6,0,0,0,.5,2.43c.16.38.53,2,1.63,2.39-.18.35-.61,1.22-.7,1.43-.23.55-1.95.81-1.95.81s-4,.83-4.71,2.54c-.59,1.36-.58,4.54-.68,6-.12,1.57-.16,3.18-.16,4.54s.3,7.06.46,8.05a7.87,7.87,0,0,1,.06,2.1l-.53,1.44a18.11,18.11,0,0,0-1.85,1.33l-.84-1.09s.18-.07.84-.43.24-1.31.24-1.31l-.71,0H285.5l-1.68.07c-3.77.15-4.44,1.89-4,5.82.43,3.56,2.23,5.95,4,5.68a2.87,2.87,0,0,0,2-.8l2.31-2.2,2.39-.95.24,1.12a17.31,17.31,0,0,1,1.32,6.12c.07,2.61,0,5.69.78,8.2.43,1.41.47,2.32.68,2.94a3.5,3.5,0,0,1,.25,1,48.41,48.41,0,0,0,1.16,8.56,35.36,35.36,0,0,1,1.54,7.82,51.8,51.8,0,0,0,1.09,8.11c.46,1.89.69,5,.15,6.42s-.62,2.63-1.55,2.84a2.7,2.7,0,0,0-1.78,1.4c-.45,1-1,2.47-.69,2.46q6.8-.19,13.61-.25a17.23,17.23,0,0,0-.16-2.35,7.58,7.58,0,0,1-.36-3.33c.31-1.26,1.91-9.52,1.91-9.52a41.74,41.74,0,0,0,.62-10.13c-.47-4.51-.26-4.82.05-6.45s.37-8.43.37-8.43a2.16,2.16,0,0,0,1.72-2.19c0-.54.3-1.37.4-2.43a7.49,7.49,0,0,1,.13-2.49c.17-.39.7.18.74-.26.19-2.18.39-4.34.46-5.24.16-1.81,1.7-10.57,1.7-12.2a113.35,113.35,0,0,0-1.54-12C313.11,317.21,313.57,309.9,310.63,308.37Z" style="fill: #eed000;fill-rule: evenodd"/>
    <path d="M313.42,316.48c-.14-2.46-.4-7.05-2.73-8.26-.38-.2-.91-.42-1.53-.68-1.62-.68-3.84-1.6-4.13-2.48l-.51-1-.13-.36-.11-.78.19-.85.1-.88h0a.72.72,0,0,0,.61-.15.78.78,0,0,0,.28-.47,1.24,1.24,0,0,1,.18-.43,3.56,3.56,0,0,0,.28-.52,1,1,0,0,1,.17-.3c.31-.4.1-1.22-.06-1.67a.4.4,0,0,0-.52-.33l.3-1.3c.85.31,5.67,1.33,6.61.68a.53.53,0,0,1,.16,0,.53.53,0,0,0,.45-.27c.09-.23,0-.55-.27-1.09l-.14-.27a20,20,0,0,0-2.16-3.52,10.23,10.23,0,0,0-.95-.86,8.28,8.28,0,0,1-2-2.06,4.16,4.16,0,0,0-2.44-2.32l-.6-.16a13.15,13.15,0,0,0-3.24-.55h-.44a6.8,6.8,0,0,1-1.92-.09l0,.09v-.09l-.54-.05a23.19,23.19,0,0,0-3.3-.18c-.09,0-2.36.52-2.94,1.58a1.15,1.15,0,0,0-.11.79,10,10,0,0,0,.89,2.61l0,.26a.8.8,0,0,1-.25.32l-.2.14c-.49.34-1.64,1.14-2.65,2a1.46,1.46,0,0,0-.59,1.09,1.93,1.93,0,0,0,.59,1.36l.06,0a8.05,8.05,0,0,1,.94.24,6.57,6.57,0,0,0,1.11.21l1.52.1,1.1.11a5.68,5.68,0,0,0,.06,1.77c.17.59.47,2,.57,2.45l0,.14s0,.15.06.31a14.41,14.41,0,0,0,.46,2.15l.08.24a3.75,3.75,0,0,0,1.46,2.16c-.2.41-.54,1.08-.61,1.26s-1.16.61-1.84.72c-.17,0-4.06.87-4.82,2.63a16.92,16.92,0,0,0-.64,4.85c0,.46,0,.86-.06,1.18-.1,1.35-.16,2.88-.16,4.55,0,1.32.3,7,.46,8.08a5.85,5.85,0,0,1,.08,1.62c0,.12,0,.26,0,.41l-.49,1.36a20.88,20.88,0,0,0-1.72,1.22c-.2-.26-.4-.53-.61-.79.14-.07.35-.17.65-.34a.85.85,0,0,0,.41-.52,1.69,1.69,0,0,0-.1-1l0-.09-.79,0H285.5l-1.68.07c-1.79.06-2.94.51-3.58,1.39s-.81,2.29-.53,4.63c.42,3.55,2.26,6.12,4.19,5.82a3,3,0,0,0,2.08-.84l2.28-2.18,2.21-.88.2.95,0,.06a16.9,16.9,0,0,1,1.29,6c0,.4,0,.82,0,1.25a26.29,26.29,0,0,0,.76,7,16.28,16.28,0,0,1,.45,1.95,8.73,8.73,0,0,0,.23,1,3.55,3.55,0,0,1,.24.95,48.42,48.42,0,0,0,1.17,8.62,35.69,35.69,0,0,1,1.54,7.77,53,53,0,0,0,1.08,8.15c.49,2,.66,5,.17,6.3-.14.37-.25.72-.34,1-.29.95-.49,1.57-1.1,1.71a2.82,2.82,0,0,0-1.89,1.49c-1,2.19-.84,2.46-.77,2.58a.22.22,0,0,0,.21.13q6.87-.19,13.75-.25V395a18.28,18.28,0,0,0-.15-2.38c0-.24-.11-.5-.18-.76a5.15,5.15,0,0,1-.19-2.49c.31-1.26,1.85-9.19,1.91-9.53a42,42,0,0,0,.63-10.19c-.42-4-.29-4.68,0-5.95q0-.21.09-.45c.29-1.51.36-7.3.37-8.32a2.35,2.35,0,0,0,1.72-2.31,7,7,0,0,1,.14-.82,12.62,12.62,0,0,0,.25-1.66,7.57,7.57,0,0,1,.13-2.38c0-.06.06-.07.25,0a.4.4,0,0,0,.38,0,.38.38,0,0,0,.12-.27c.06-.74.13-1.48.2-2.22.11-1.31.21-2.43.26-3,.06-.74.37-2.72.7-4.82.47-3,1-6.43,1-7.4a115.4,115.4,0,0,0-1.56-12.1A8.91,8.91,0,0,1,313.42,316.48Zm.4,20.82c-.35,2.19-.64,4.09-.71,4.84-.05.59-.14,1.71-.26,3-.06.74-.12,1.49-.19,2.23a.47.47,0,0,1-.15,0c-.17,0-.44-.11-.58.2a7.44,7.44,0,0,0-.15,2.55,13.31,13.31,0,0,1-.25,1.57,8,8,0,0,0-.15.87,2,2,0,0,1-1.59,2l-.13,0v.15c0,.07-.06,6.81-.36,8.4,0,.16-.06.3-.09.44-.26,1.31-.39,2,0,6.08a41.39,41.39,0,0,1-.62,10.07c0,.08-1.6,8.26-1.9,9.51a5.38,5.38,0,0,0,.19,2.68c.06.26.13.5.17.73a19,19,0,0,1,.15,2.14q-6.72.06-13.42.24a7.49,7.49,0,0,1,.79-2.2,2.49,2.49,0,0,1,1.67-1.31c.78-.17,1-1,1.33-1.94.09-.32.2-.65.33-1,.54-1.46.34-4.53-.15-6.54A53,53,0,0,1,296.7,374a36,36,0,0,0-1.55-7.89,47.47,47.47,0,0,1-1.15-8.49,3.53,3.53,0,0,0-.26-1.08,7.83,7.83,0,0,1-.22-.94,15.16,15.16,0,0,0-.46-2,25.9,25.9,0,0,1-.74-6.9c0-.43,0-.85,0-1.25a17.73,17.73,0,0,0-1.34-6.19l-.27-1.27-2.53,1-2.37,2.24a2.75,2.75,0,0,1-1.9.76c-1.78.25-3.48-2.17-3.88-5.54-.26-2.23-.12-3.53.47-4.35s1.62-1.19,3.31-1.26h0l1.67-.06H287l.61,0a1.24,1.24,0,0,1,.05.68.49.49,0,0,1-.25.3,7.65,7.65,0,0,1-.82.42l-.23.08c.52.69,1.05,1.38,1.58,2.06-.09-.27-.19-.55-.29-.82.19-.15.72-.55,1.75-1.24l0,0,.54-1.5,0-.06c0-.17,0-.31,0-.44a6.46,6.46,0,0,0-.08-1.7c-.15-.94-.46-6.63-.46-8,0-1.66.05-3.18.15-4.52,0-.32.05-.73.07-1.19a16.92,16.92,0,0,1,.6-4.71c.69-1.6,4.56-2.43,4.59-2.44.31,0,1.82-.31,2.07-.91.09-.2.52-1.07.7-1.41l.1-.18-.18-.07c-.87-.34-1.26-1.49-1.45-2.05l-.09-.26a16.68,16.68,0,0,1-.44-2.07c0-.17-.05-.29-.06-.32l0-.14c-.1-.51-.39-1.88-.57-2.47a5.87,5.87,0,0,1,0-1.8l0-.18-1.42-.14-1.51-.09a7,7,0,0,1-1-.2,7,7,0,0,0-.95-.24,1.69,1.69,0,0,1-.46-1.06,1.16,1.16,0,0,1,.47-.82c1-.84,2.14-1.64,2.62-2l.21-.15a1.26,1.26,0,0,0,.39-.52v0l0-.39,0-.08a9.24,9.24,0,0,1-.87-2.55.71.71,0,0,1,.07-.51c.51-.93,2.72-1.41,2.73-1.41a19.92,19.92,0,0,1,3.23.18l.55,0a6.69,6.69,0,0,0,2,.1h.41a13.56,13.56,0,0,1,3.2.54l.61.16a3.89,3.89,0,0,1,2.24,2.15,8.25,8.25,0,0,0,2.08,2.17,11.19,11.19,0,0,1,.92.83,20.16,20.16,0,0,1,2.1,3.45l.14.27c.31.58.27.73.26.76s-.14.06-.22.07a.66.66,0,0,0-.27.09c-.78.53-4.74-.29-6-.61,0-.16-.13-.3-.49-.52l-.22-.13v.76c-.11.49-.22,1-.34,1.48l-.35.48.22.23c.15-.19.44-.47.59-.44s.07,0,.11.13a1.78,1.78,0,0,1,.11,1.31,1.68,1.68,0,0,0-.22.38,3,3,0,0,1-.24.46,1.69,1.69,0,0,0-.24.54c0,.14,0,.21-.15.28a.45.45,0,0,1-.41.09l-.2,0h-.13c-.05.39-.09.78-.14,1.17s-.13.61-.2.91l.12.87.13.37h0l.39,1,.08,0,.07.12c.32,1,2.52,1.91,4.29,2.66.61.25,1.14.47,1.51.66,2.16,1.13,2.42,5.59,2.55,8a6.54,6.54,0,0,0,.16,1.5A115.58,115.58,0,0,1,314.82,330C314.82,330.9,314.29,334.3,313.82,337.3Z" style="fill: #eed000"/>
    <path d="M299.8,306.92h-.22a2,2,0,0,1-2-1.06l-.57.59a2.61,2.61,0,0,0,2.21,1.33,2.12,2.12,0,0,1-.06.61,65.53,65.53,0,0,0-.93,9.23l.74,0a64.52,64.52,0,0,1,.92-9.07,2.4,2.4,0,0,0,0-1.42Z" style="fill: #002d56"/>
    <path d="M298.7,323.26l-.89,0a14,14,0,0,0,.07,2.73c0,.88-.05,6-.3,7.5a45.19,45.19,0,0,1-1.7,5.09,48.91,48.91,0,0,0-2.08,6.4,52.14,52.14,0,0,0-.39,9.11,5.37,5.37,0,0,1-.2,2.3c-.08.57-.16,1.14-.23,1.72l.88.11c.06-.48.11-1,.17-1.45a6.37,6.37,0,0,0,.27-2.81,51.61,51.61,0,0,1,.38-8.81,48.68,48.68,0,0,1,2-6.17,43.44,43.44,0,0,0,1.76-5.31c.29-1.78.32-7.64.31-7.7a2.13,2.13,0,0,0,0-.22A12.86,12.86,0,0,1,298.7,323.26Z" style="fill: #002d56"/>
    <path d="M296.46,306.15c-1.38.38-6,1.85-6.78,3.6s-.89,10.68-.89,10.76c0,1.33.3,7.1.46,8.16a5.48,5.48,0,0,1,.08,1.52l0,.44,1,0,0-.43a7.25,7.25,0,0,0-.08-1.8c-.15-.93-.45-6.57-.45-7.95,0-1.81.28-9.09.78-10.23s4-2.39,6.32-3a.54.54,0,0,0,.33-.28c.23-.48.47-.95.7-1.42l-.85-.57Z" style="fill: #002d56"/>
    <path d="M310.46,353.9c-.66-.18-.74-.89-.79-2.73a15,15,0,0,0-.73-4.86,2.3,2.3,0,0,0-1.17-1.15,2.32,2.32,0,0,1-.6-.43c-.37-.48-1.74-3.41-2.74-5.54-.72-1.54-1.34-2.87-1.62-3.38-1.31-2.35-1.41-5.89-1.45-7.4,0-.32,0-.55,0-.67l-.89.14c0,.11,0,.31,0,.58.05,1.6.16,5.34,1.59,7.93.27.47.91,1.85,1.6,3.31a56.8,56.8,0,0,0,2.86,5.73,2.7,2.7,0,0,0,.86.67c.33.19.66.39.75.63a13.83,13.83,0,0,1,.66,4.48c0,1.6.09,3.11,1.21,3.61.16.62.31,1.24.47,1.86l.86-.29c-.21-.81-.41-1.62-.61-2.42Z" style="fill: #002d56"/>
    <path d="M301.35,306.68c-.65,0-.66.83-.67,1.49a8.79,8.79,0,0,1-.09,1.3,92.71,92.71,0,0,0-.07,10.38,1.66,1.66,0,0,1,0,.48c0,.27-.06.66-.07,1.33h.75c0-.63,0-1,.06-1.24a2.63,2.63,0,0,0,0-.74,94.5,94.5,0,0,1,.08-10.06,9.92,9.92,0,0,0,.09-1.45c0-.21,0-.48,0-.62a7.37,7.37,0,0,0,4-2.27l-.61-.51A6.68,6.68,0,0,1,301.35,306.68Z" style="fill: #002d56"/>
    <path d="M308.52,345.77c.21-1.91.41-3.83.61-5.74l.39-2c.11-.75.22-1.5.32-2.24l.08-3.11c0-1.22-.06-2.44-.08-3.66l-.39-4.1q-.56-3.36-1.09-6.72c-.27-1.2-.53-2.41-.79-3.62a.45.45,0,0,0-.55-.37.54.54,0,0,0-.32.64l.78,3.59,1.08,6.64.39,4,.07,3.59c0,1,0,2-.07,3l-.3,2.14c-.13.68-.26,1.36-.4,2.05l-.69,6.51a.55.55,0,0,0,.14.45.4.4,0,0,0,.41.12,4.19,4.19,0,0,1,4.41.87.39.39,0,0,0,.28.12.43.43,0,0,0,.35-.2.59.59,0,0,0-.07-.73A4.83,4.83,0,0,0,308.52,345.77Z" style="fill: #002d56"/>
    <path d="M293,309c0-.09-.05-.19-.09-.29s-.09-.34-.13-.52l-.86.32.15.61h0s0,.11.05.21c1.45,5.65,6,19.48,16.43,26.8l.62.45c.15-.3.31-.59.47-.89l-.62-.45C298.51,327.87,294.08,313.31,293,309Z" style="fill: #002d56"/>
    <path d="M309.59,330.7c-8.57-6-12.66-17.22-14.34-23.41l-.85.34c1.7,6.28,5.85,17.63,14.54,23.83l.09.67.88-.16c-.05-.38-.1-.77-.14-1.15Z" style="fill: #002d56"/>
    <path d="M296.85,336.51l-.18,1a12.91,12.91,0,0,0,3.08.37,10.24,10.24,0,0,0,3.13-.59l-.24-1A9.62,9.62,0,0,1,296.85,336.51Z" style="fill: #002d56"/>
    <path d="M302.72,367.52c0-.26-.32-6.39-.63-7.69-.08-.32-.34-1.88-1.2-8.88l-.89.17c.67,5.38,1.08,8.41,1.23,9,.24,1,.51,5.72.6,7.45q.15,7,.31,13.9v8.78a6.61,6.61,0,0,0-2,4.93l.89,0a5.45,5.45,0,0,1,1.81-4.27l.19-.16v-9.32l-.15-7.78Q302.79,370.61,302.72,367.52Z" style="fill: #002d56"/>
    <path d="M287.26,339.76l-1.68,1.36c-2.28-.4-2.45-4-2.34-6.18.09-1.88,1.05-2,2.6-1.92.92,0,1.79.05,2.22-.72l-.69-.51c-.17.3-.87.28-1.48.27-1.33,0-3.33-.08-3.47,2.86-.22,4.38.92,6.93,3.2,7.18h.06a.31.31,0,0,0,.22-.09l1.84-1.49a.23.23,0,0,0,.07-.07l.49-.59-.58-.66Z" style="fill: #002d56"/>
    <path d="M283.19,330.63l2.2-.11c-1.07-19.57-.57-36.79,2.22-49.92C280.11,293.63,283.19,330.64,283.19,330.63Z" style="fill: #eed000;fill-rule: evenodd"/>
    <path d="M288.88,331.7a6.46,6.46,0,0,1-1.5.83l-.42.64.49-.07h0c0,.18.05.37.08.56a7,7,0,0,0,2-1.07.58.58,0,0,0,.23-.32l.54-1.73-.93-.37C289.19,330.68,289,331.19,288.88,331.7Z" style="fill: #002d56"/>
    <path d="M286.88,332.86s1.31,4.09.26,7.1l.76.33c1.17-3.36-.19-7.62-.25-7.8Z" style="fill: #002d56"/>
    <path d="M287.66,330.22l-2.22,0c0,.25,0,.5,0,.75l2,0a.82.82,0,0,1,0,.41.28.28,0,0,1-.16.18,2.45,2.45,0,0,1-1,.34v.75h0a3.23,3.23,0,0,0,1.23-.42,1,1,0,0,0,.5-.63,1.85,1.85,0,0,0-.11-1.19A.29.29,0,0,0,287.66,330.22Z" style="fill: #002d56"/>
    <path d="M283.86,341.81c-1.69.25-3.3-2.11-3.69-5.38-.28-2.32-.18-3.57.34-4.32A3.4,3.4,0,0,1,283.2,331l0-.74a3.86,3.86,0,0,0-3.15,1.39c-.76,1.09-.75,2.76-.49,4.92.42,3.52,2.22,6.08,4.16,6l.22,0a3.15,3.15,0,0,0,2.18-.91l-.43-.53A2.58,2.58,0,0,1,283.86,341.81Z" style="fill: #002d56"/>
    <path d="M284,332a2.42,2.42,0,0,0-1.58,2c-.15,3.19.06,5.09.69,6,.23.28.47.55.71.83l.46-.54-.69-.8c-.49-.71-.67-2.56-.53-5.48a1.66,1.66,0,0,1,1.07-1.31l2.36-.1v-.74l-2.41.1Z" style="fill: #002d56"/>
    <path d="M294.36,294.26c.06.43.13.87.19,1.31l-.12.25-2.58-.06a6.87,6.87,0,0,1-1-.13,6.61,6.61,0,0,0-.87-.19c-.2-.36-.64-1.35.06-2a21.73,21.73,0,0,1,2.26-1.77l.3-.22c.07-.06.11-.06.11-.07s0,0-.1,0c.08-.28.16-.55.25-.83a.73.73,0,0,0-.67.19l-.26.2a20.38,20.38,0,0,0-2.34,1.84c-1.15,1.06-.59,2.65-.13,3.35l.09.13.15,0a6.4,6.4,0,0,1,.9.18,7.26,7.26,0,0,0,1.19.17h1.51l1.54.08.47-1c-.07-.53-.15-1.07-.23-1.61Z" style="fill: #002d56"/>
    <path d="M294.57,294.5v1.65h.29v-1.65Z" style="fill: #002d56"/>
    <path d="M297.7,304.93c-.89-.26-1.29-1.42-1.48-2a2.68,2.68,0,0,0-.1-.28,17.46,17.46,0,0,1-.42-2c0-.17-.05-.29-.06-.33l0-.14c-.11-.51-.4-1.88-.58-2.48a5.43,5.43,0,0,1,.17-1.88l-.57-.18a5.72,5.72,0,0,0-.16,2.29c.17.58.46,2,.56,2.43l0,.14s0,.15.05.3a16.79,16.79,0,0,0,.47,2.2,2.23,2.23,0,0,1,.09.23c.22.66.69,2,1.87,2.39a4.76,4.76,0,0,0,1.25.16,4,4,0,0,0,2.34-.77c-.12-.19-.23-.38-.34-.57A3.62,3.62,0,0,1,297.7,304.93Z" style="fill: #002d56"/>
    <path d="M299.85,301.62a2.65,2.65,0,0,0-1,.08,3.81,3.81,0,0,1-.68-.14,1.5,1.5,0,0,0-1,.16l.15.49A1.77,1.77,0,0,1,298,302a3.87,3.87,0,0,0,.84.18h.06a2.74,2.74,0,0,1,.86-.09,2.2,2.2,0,0,0,.81.06l-.05-.52A1.86,1.86,0,0,1,299.85,301.62Z" style="fill: #002d56"/>
    <path d="M297.83,302.59l-.09.52a6.84,6.84,0,0,0,1.31.13,2,2,0,0,0,.82-.16c-.05-.16-.11-.32-.17-.48A3.94,3.94,0,0,1,297.83,302.59Z" style="fill: #002d56"/>
    <path d="M299.66,295.51l.16.48a2,2,0,0,1,2.17.28l.27-.43A2.43,2.43,0,0,0,299.66,295.51Z" style="fill: #002d56"/>
    <path d="M299.19,297.94l-.19.36s.33.25.48.39a1.39,1.39,0,0,1,.18.71.26.26,0,0,1-.07.14.36.36,0,0,1-.28.09,1.26,1.26,0,0,0-.84.11l-.16.07c-.2.09-.35.16-.56,0l-.07,0-.18-.1a.57.57,0,0,0,0-.12,3.43,3.43,0,0,1,.22-.93,3.75,3.75,0,0,0,.13-.55,4.1,4.1,0,0,1,.18-.73,3.53,3.53,0,0,0,.27-1.75l-.33.15a3.44,3.44,0,0,1-.25,1.41,3.7,3.7,0,0,0-.22.84,2.53,2.53,0,0,1-.11.47,4,4,0,0,0-.24,1.11c0,.34.08.4.37.58l.07,0a.79.79,0,0,0,.41.12,1.19,1.19,0,0,0,.44-.13l.17-.07a.94.94,0,0,1,.61-.1.62.62,0,0,0,.59-.17.63.63,0,0,0,.22-.47,1.75,1.75,0,0,0-.31-1C299.55,298.21,299.21,298,299.19,297.94Z" style="fill: #002d56"/>
    <path d="M295.85,295.61l-.14.06,0,.25,0-.25,0,.25,0,.26a1,1,0,0,0,.23-.09,1.91,1.91,0,0,1,2,0l.25-.44A2.25,2.25,0,0,0,295.85,295.61Z" style="fill: #002d56"/>
    <path d="M296.81,296.62c-.46,0-.83.11-.84.25s.37.24.83.24.84-.11.84-.25S297.27,296.62,296.81,296.62Z" style="fill: #002d56"/>
    <path d="M296.81,296.45a1.37,1.37,0,0,0-.91.24.24.24,0,0,0-.07.18c0,.24.26.31.35.34a2.3,2.3,0,0,0,.62.07h.06a1.32,1.32,0,0,0,.86-.24.24.24,0,0,0,.07-.18.31.31,0,0,0-.06-.18A1.43,1.43,0,0,0,296.81,296.45Zm0,.48a2.36,2.36,0,0,1-.56-.06,1.86,1.86,0,0,1,.56-.07,2.36,2.36,0,0,1,.56.06A1.86,1.86,0,0,1,296.81,296.93Z" style="fill: #002d56"/>
    <path d="M297.7,304.93l-.11,0-.21.65.16.06a4.76,4.76,0,0,0,1.25.16,4,4,0,0,0,2.34-.77l-.34-.57A3.62,3.62,0,0,1,297.7,304.93Z" style="fill: #002d56"/>
    <path d="M310.31,290.92c-.18-.18-.44-.42-.75-.69a10,10,0,0,1-2-2.15,4.53,4.53,0,0,0-2.88-2.16l-.61-.12a12.91,12.91,0,0,0-3.32-.39,5.8,5.8,0,0,1-2-.09l-.28-.06,0,.24v-.23l-.36,0a20.37,20.37,0,0,0-3.64-.13h0c-.24.09-2.35.91-2.89,2.12a1.42,1.42,0,0,0-.08.95,9.59,9.59,0,0,0,1,2.64,18.31,18.31,0,0,1,.86,2.29c.07.2.12.38.16.49a3.54,3.54,0,0,1,.09.38c.06.35.12.75.42.91a.68.68,0,0,0,.71-.09c3.16-1.91,9.3.11,10.85.95l-.08.22.17.16a22.64,22.64,0,0,0,5.84.94,2.71,2.71,0,0,0,1.44-.27,1.12,1.12,0,0,0,.45-.71,2.39,2.39,0,0,0-.43-1.56A25,25,0,0,0,310.31,290.92Zm2.49,5a.41.41,0,0,1-.2.27c-.68.52-4.74-.22-6.18-.55a.66.66,0,0,0-.11-.2c-.72-.81-8.13-3.55-11.86-1.29a.62.62,0,0,1-.18.08,1.55,1.55,0,0,1-.11-.43,2.54,2.54,0,0,0-.12-.51c0-.11-.09-.28-.16-.48a15.93,15.93,0,0,0-.93-2.44A8.86,8.86,0,0,1,292,288a.54.54,0,0,1,0-.41c.35-.79,1.91-1.53,2.51-1.75a21.69,21.69,0,0,1,3.48.14l.36,0,.24.05a6.86,6.86,0,0,0,2.12.11,12.47,12.47,0,0,1,3.18.37l.62.13a3.94,3.94,0,0,1,2.47,1.83,10.21,10.21,0,0,0,2.17,2.34c.29.26.55.49.71.66a23.85,23.85,0,0,1,2.54,3.48A1.68,1.68,0,0,1,312.8,296Z" style="fill: #002d56"/>
    <path d="M311.06,361.6v0l-.26.17-.87.54h0l-.69.44a6.26,6.26,0,0,1-6.84.17c-.16.3-.32.6-.47.9a6.8,6.8,0,0,0,3.79,1.07,7.43,7.43,0,0,0,4-1.23c.57-.36,1-.63,1.31-.84l.5-.31v0c.38-.31.33-.42.21-.69S311.49,361.38,311.06,361.6Z" style="fill: #002d56"/>
    <path d="M294.44,363.59c-.12.32-.25.64-.38,1a8.24,8.24,0,0,0,7.9-.44l-.42-.92A7.61,7.61,0,0,1,294.44,363.59Z" style="fill: #002d56"/>
    <path d="M300.88,296.66c-.48-.05-.88,0-.9.16s.37.29.85.34.89,0,.9-.16S301.36,296.71,300.88,296.66Z" style="fill: #002d56"/>
    <path d="M300.89,296.48c-.23,0-1-.07-1.05.32s.74.51,1,.54a3.55,3.55,0,0,0,.36,0c.31,0,.67-.07.7-.33S301.13,296.51,300.89,296.48Zm0,.51a1.91,1.91,0,0,1-.61-.15,2.38,2.38,0,0,1,.62,0,2.2,2.2,0,0,1,.61.14A1.91,1.91,0,0,1,300.85,297Z" style="fill: #002d56"/>
    <path d="M296.16,339l-.32,1a9.56,9.56,0,0,0,3.7.58,13.85,13.85,0,0,0,4.46-.81l-.27-1C301.68,339.58,298.33,339.93,296.16,339Z" style="fill: #002d56"/>
    <path d="M324.45,395.54q15.36.22,30.72,1.06v-4.84q-15.36-.83-30.72-1.07Z" style="fill: #eed000;fill-rule: evenodd"/>
    <path d="M324.39,395.61q15.42.22,30.84,1.07v-5q-15.42-.82-30.84-1.07Zm.12-4.84q15.3.23,30.6,1.06v4.69q-15.3-.81-30.6-1Z" style="fill: #002d56"/>
    <path d="M0,1010.08C420,738.76,840,1193.28,1260,922V615.3C840,886.62,420,432.09,0,703.41Z" style="fill: #b50027"/>
  </g>
</svg>
