<svg xmlns="http://www.w3.org/2000/svg" xmlns:xlink="http://www.w3.org/1999/xlink" viewBox="0 0 1260 1012.04">
  <defs>
    <clipPath id="a" transform="translate(0 0)">
      <path d="M0,90.08v230c192.5-124.36,385-96.23,577.5-55.4v230q-13.12-2.79-26.25-5.48C367.5,298.27,183.75,124.71,0,90.08ZM551.25,29.2C459.38,10.4,367.5-4,275.62,1V499.36c-91.87,5.08-183.74,29.7-275.62,89V550.08C183.75,278,367.5,144.94,551.25,29.2Z" style="fill: none"/>
    </clipPath>
  </defs>
  <g>
    <path d="M0,90.08v920C420,738.76,840,1193.28,1260,922V2C840,273.28,420-181.24,0,90.08Z" transform="translate(0 0)" style="fill: #00247d"/>
    <path d="M0,90.08C183.75,124.71,367.5,298.27,551.25,489.2m0-460C367.5,144.94,183.75,278,0,550.08" transform="translate(0 0)"/>
    <path d="M275.62,284c86.67,67.52,173.34,152.44,260,242q15.63-36.84,31.26-73.49C491,373.24,415,296.37,339.12,230.44,415,169.66,491,119.83,566.88,72.38q-7.82-21.61-15.63-43.18c-21.16-4.33-42.33-8.43-63.49-12.11-70.71,46.7-141.42,98-212.14,161C204.91,123,134.2,79.43,63.49,54.4A579.84,579.84,0,0,0,0,90.08v53c70.71,13.32,141.42,47.23,212.13,94.77C141.42,308.3,70.71,392.41,0,497.09v53Q7.82,565,15.63,580.25C102.29,455.62,189,361.12,275.62,284Z" transform="translate(0 0)" style="fill: #fff"/>
    <g style="clip-path: url(#a)">
      <path d="M0,90.08C183.75,124.71,367.5,298.27,551.25,489.2m0-460C367.5,144.94,183.75,278,0,550.08" transform="translate(0 0)"/>
      <path d="M275.62,266.35C364,335.23,452.43,422.19,540.83,513.71q10.42-24.53,20.84-49C480.43,380,399.19,298.3,318,230c81.24-67.29,162.48-121.14,243.72-172q-5.2-14.4-10.42-28.78-21.16-4.34-42.33-8.3c-77.76,50.42-155.53,105.61-233.3,174.81C197.86,135.11,120.09,88.52,42.33,65.13Q21.17,76.44,0,90.08V125.4c77.77,14.65,155.53,54.19,233.3,109.4C155.53,309.38,77.77,399.63,0,514.75v35.32q5.21,10,10.42,20C98.82,441.75,187.22,345,275.62,266.35Z" transform="translate(0 0)" style="fill: #cf142b"/>
    </g>
    <path d="M275.62,1V576M0,320.08C210,184.42,420,230.22,630,276" transform="translate(0 0)"/>
    <path d="M223.12,581.16a652.39,652.39,0,0,1,105-6V306.81c100.63,2,201.26,23.93,301.88,45.88V199.36c-100.62-22-201.25-43.9-301.88-45.88V.15a652.39,652.39,0,0,0-105,6V159.5C148.75,170.08,74.38,195.36,0,243.41V396.74c74.38-48,148.75-73.33,223.12-83.91Z" transform="translate(0 0)" style="fill: #fff"/>
    <path d="M275.62,1V576M0,320.08C210,184.42,420,230.22,630,276" transform="translate(0 0)"/>
    <path d="M307.12,0c-21,.18-42,1.3-63,3.53h0c21-2.23,42-3.35,63-3.53Z" transform="translate(0 0)" style="fill: #cf142b"/>
    <path d="M244.12,578.56c21-2.23,42-3.35,63-3.53V276c107.63-1,215.26,22.52,322.88,46V230c-107.62-23.47-215.25-47-322.88-46V0c-21,.18-42,1.3-63,3.53v184C162.75,196.19,81.38,221.51,0,274.07v92c81.38-52.56,162.75-77.88,244.12-86.51Z" transform="translate(0 0)" style="fill: #cf142b"/>
    <path d="M551.25,29.2v115C577.5,187.9,603.75,232,630,276c-26.25,32.61-52.5,65.22-78.75,98.18v115C367.5,528.27,183.75,584.71,0,780.07v230C420,738.76,840,1193.28,1260,922V2C1023.75,154.58,787.5,77.54,551.25,29.2Z" transform="translate(0 0)" style="fill: #fff"/>
    <path d="M551.25,374.2C787.5,422.54,1023.75,499.58,1260,347V117c-236.25,191-472.5,152.23-708.75,142.23Z" transform="translate(0 0)" style="fill: #00247d"/>
    <path d="M0,780.07C420,508.76,840,963.28,1260,692V462C840,771.62,420,355.43,0,665.07Z" transform="translate(0 0)" style="fill: #00247d"/>
    <path d="M551.25,201.7C787.5,250,1023.75,327.08,1260,174.47M0,607.57c420-271.31,840,183.21,1260-88.1M0,952.57c420-271.31,840,183.21,1260-88.1" transform="translate(0 0)"/>
    <path d="M0,1010.07C420,738.76,840,1193.28,1260,922h0C840,1193.28,420,738.76,0,1010.07Z" transform="translate(0 0)" style="fill: #cf142b"/>
    <path d="M0,1010.07C420,738.76,840,1193.28,1260,922V807C840,1078.28,420,623.76,0,895.07Z" transform="translate(0 0)" style="fill: #cf142b"/>
    <path d="M551.25,259.2C787.5,307.54,1023.75,384.58,1260,232V117c-236.25,152.61-472.5,75.57-708.75,27.23Z" transform="translate(0 0)" style="fill: #cf142b"/>
    <path d="M0,665.08C420,393.76,840,848.28,1260,577V462C840,733.28,420,278.76,0,550.08Z" transform="translate(0 0)" style="fill: #cf142b"/>
  </g>
</svg>
