<svg xmlns="http://www.w3.org/2000/svg" viewBox="0 0 1260 1012.04">
  <g>
    <path d="M0,90.08v920C420,738.76,840,1193.28,1260,922V2C840,273.28,420-181.24,0,90.08Z" style="fill: #fff"/>
    <path d="M945,92v920c105,.23,210-22.23,315-90.07V2C1155,69.81,1050,92.27,945,92Z" style="fill: #d90026"/>
    <path d="M312.79,0C208.52.1,104.26,22.72,0,90.08H0C104.26,22.72,208.52.1,312.79,0Z" style="fill: #0a1f62"/>
    <path d="M312.79,0C208.52.1,104.26,22.72,0,90.08v920c104.26-67.36,208.52-90,312.79-90.08Z" style="fill: #0a1f62"/>
    <path d="M534,710.25l.57-.53c-.23-4,2.7-6.34,4.64-8.73-10.69-2-17.87-4.94-27.71-6.42-1,.9-.12,1.06.19,2,3.16,1.59,5.67,6.25,6.89,9.78.54,13,0,28.57.62,44.16-1.27.84-.23,3-.91,4.25-1.67,1.85-2.47,4.43-5.47,3.8-.13.58-1.1,1.48.18,1.84,8,.25,17.43,4.14,26,5.36l1.55-.63c-.91-2.44-4.08-4.68-4.72-8C533.41,741.42,534.92,725.42,534,710.25Z" style="fill: #d90026"/>
    <path d="M578.94,707.36c-2.84-.23-6.14-1.91-8.4-.83-5.27-.69-8.46,2.84-12.25,5.47a22.3,22.3,0,0,0-3.7,6.3c-.14.14-.28.42-.42.24a1.94,1.94,0,0,1-1.09,2.07c-3.33,11.1-3.8,22.87,1.28,35.16,4.12,7,9.95,14,17.55,17.22s18.57,4.43,24.27-1.9c3.57-6.16,7.13-12.31,7.24-20.49,1-7.25-1.61-16.54-3.9-24C595.09,718.48,587.1,710.25,578.94,707.36Z" style="fill: #d90026"/>
    <path d="M672.27,728.18l-.41.66c2.2,2.72,5.93,4.95,6.29,8.95-1.85,6.5-4.86,12.44-6.7,18.93-.7.79-.52,2.78-2.09,2.32-4.46-9.81-7.23-19.62-11.27-29.79-1.76-2.62-2.26-5.91-3.58-8.29-1.31-1.46-1.83,1-3,.93-3.38,8-7.88,17.16-11.83,25.66-.82,1.67-1.48,4.25-3.46,4.48-1-2.94-2.39-5.77-3-8.78-1.22-3.73-1.73-7.15-3.48-10.54-.21-2.79-2.1-4.83-1.45-8.18.23-2.54,2.77-3,4.18-4,.12-.59-.75-1.37-1.31-1.3-2.85-.57-6.57-1.6-8.7-1.57-3-1.34-6.44-2-9.29-2.85-1.85.1-5.57-.78-7.84-1.23-1-.5-2.59-1.1-3.43-.67,0,1.71,2.17,1.48,2.61,2.64a31.13,31.13,0,0,1,7.86,9.27c5.74,16.29,11.64,33.85,17,50.84.78,3.36,1.56,7.12,3.18,9.89l.57-.35c5.31-11.12,11.18-22.3,16.49-33.56,1.27-.35.22-3,2.22-2.29,4.65,11.83,9,24.83,13,36.68,1.64,3.64,1.81,5.35,3.58,8.41.85-.42,1.25-1.73,2.23-2.29,1.59-5.79,3.34-10.31,5.06-16.07,5.57-12.3,7.82-27.51,15.27-38.12,1.82-1.48,4.08-2,6-3.28l-.72-.88C687.26,731.61,680.24,729.39,672.27,728.18Z" style="fill: #d90026"/>
    <path d="M737.24,797.68c-7.68-20.58-17.19-41.08-24.88-62h0l-.71-.46c-4.41,6.83-5.4,14.23-8.78,22C696,770,696,791.43,678.76,794c.15.48-.13,1,.32,1.41,7.42,1.72,15.41,3.21,23.41,5.43,4.37-1.32-1.78-3.36-1.69-6.08-.33-2.18-.81-5.29,1.16-6q9.42,1.72,18.83,3.39l1.75,2.72-.27.25c.6,1.63,1.19,3.12.65,4.37-.67,2-2.81,2.11-4.48,3.16-.28.56.3.81.45,1.45q8.49,1.57,17,3.1c3-.39,5.55,1,8.7,1.48,1.27-.11,1.55-.51.95-2C741.93,804.54,739.73,801.3,737.24,797.68Z" style="fill: #d90026"/>
    <path d="M583.65,722.21c-1.33-2.82-3.2-4.1-5.23-6-3.45-1.38-6.56-1.39-8.92,1.67-3.12,6.72-1,15.91-1.37,23.29.26,5.38-1.74,12.28.94,17.93,1.92,3.25,4.71,8.18,8.54,7.84,3.13.14,5.92-2.52,7-5.2.84-7.29.16-12.73.15-20.18C584.06,735.19,585.77,728.69,583.65,722.21Z" style="fill: #fff"/>
    <path d="M704.72,782.06q6.51,1.61,13,3.17l-7.5-21.09Q707.47,773.11,704.72,782.06Z" style="fill: #fff"/>
    <path d="M877.6,424.37c-2.53-3.47-6.66-5.16-10.14-7.5-4.45-.83-7.8-4.07-12.23-4.79-27.78-5.3-56.92-6-83.26-6.5-7,.87-16.85,0-24.39-.72-2.47-.92-4.57.12-6.89-1.14l.34.4c-10.14-.48-21.78-1.8-31.53-7.07-1.5-1.33-3.62-1.36-4.79-2.8a8.79,8.79,0,0,1-6-3.88l-.33.28a23.37,23.37,0,0,0-3.66-3.27c-2.5-2.76-4.22-2.22-5-6v0l-8.6-10.54c4.4,16.52,5.86,31.54,20.29,42,3.18,3.56,8,5.49,11.62,8.75,2.13,0,4.46,2.22,6.61,3.28v.36a6.65,6.65,0,0,1,3,1.21c1.32.59,3.29.95,4.79,2.06,2.6-.59,4.14,2.81,6.24,1.6,18.17,9.08,39.42,8.76,59.6,11.16v.36c17.16.09,35.08,3.61,52.62,4.89,0,.11,0,.22,0,.32l4.43.43c1.33,1,3.28.81,4.45,2,.83.06,2.13-.18,3,.42l-.32.32c1.3-.44,2.64.9,4.13,1.37l-.33.16,1.15.09c1.16.76,3.14,1.61,4.3,2.23,4.47,2.09,9.46,5.53,12.17,10.25,4.88-2.33,7.37-8.52,7.73-14.26.85-6.58-1.73-12.48-4-19.43C881,428.06,880.26,425.56,877.6,424.37Z" style="fill: #0a1f62"/>
    <path d="M935.84,291.17a271.12,271.12,0,0,1-33.18-26.77c-10.48-7.53-20-16.59-29.83-24.21-.34-.55-.69-2,.27-2.42-.66-.74-1.68-2-3-2.11-16.62-11.14-31.13-24-48.21-34.68-.77-5.53-6.61-3.22-9.45-6-5.93-1.63-12.39-6.13-19-7.89-1.82-.78-4-2.64-6.28-2.81-.82-.43-1.65-1.44-2.64-1.21-1.5-1.81-4.28-1.51-5.45-3.42a107.87,107.87,0,0,1-12.75-7.16c-9.22-3.87-19-10.7-27.93-14.63l-.32.25c-3.49-3.18-7.6-3.72-11.58-6.35-1.81-.45-3.29-1.6-4.78-2.38-7.73-2.08-14.15-4.1-21-3.28-4.94-1.59-8.93,2.72-14.34,1.89-8.13,2.48-17.15,0-24.93,3.28-7,2.5-11.21,10.95-10.23,18.8,3.84,12.45,4.46,26.38-1.88,35.78-3,4.83-7.73-2.17-11.82-2.8-3.62-1.25-7.13-4.54-11.38-4.84-3.48-2.59-7.07-2.43-10.88-4.56a40.16,40.16,0,0,1-8.41-3.53c-3.1.09-5.93-2.56-9-1.76-4.95-2-9.2-1.41-13.92-1.45-3.4,1.29-8-.8-10.58,2.36-1.29.46-1.16-1.08-1.83-1.9-.57-3.94-.62-6.38-1-10.87-.87-2.4-1.89-4.35-2.75-6.43-6.35-6.61-5.56-15.86-4.08-23.11,1.14-8.85-4.76-16.79-12.22-22.32-3.31-2.33-7.77-4.18-11.56-6.08-1.83-.86-4.28-.75-5.95-2.46a343.34,343.34,0,0,0-39.56-8.62l-1,.36c-4.95-2.67-10.47-.37-14.92-2.38-7.35.84-15.73-1.38-23.54,1.13-1,.93-2.16-1.3-2.78.18-9.48.37-18.07,4.62-27.2,7-7,3.68-16.25,5.76-22.52,11.2-2,0-3.24,1.84-5.2,2.39A109.32,109.32,0,0,1,379.15,138c-1.28,1.85,1.37,2.52,1.86,3.59a27.4,27.4,0,0,1-7.7,7.09A286.17,286.17,0,0,1,339.59,175c-6.46,5.17-11.32,8.17-17.45,13.46a10.24,10.24,0,0,0-4.36,3.2c.51.34.19,1,.36,1.56,3,1.89,5.92.26,9.71,1.12,8.38.49,16-3.94,23.5-5.69,0,2-2.41,2.57-1.71,4.69,5.45,1.87,12,1.42,17.21.07,3.59-.55,6.67-2.14,10.27-3,.83.94.54,2.83,2,3.28a66.38,66.38,0,0,0,24.2-2.69c.49.42,1,1.15.52,1.64,4.83,4.05,11.48,1.16,16.88.49,2.63.44,4.52-2.87,7-.84.08,3.66,4,1.81,5.62,3.2,3.24-1.38,7.69.18,10.94-1,2.78-.37,5.19-2.15,8-1.82,0,1.06-1.43,1.06-.94,2.33.35.76,1.51,1.25,2.18,1.84,7,1.25,13.06-1.07,19.1-1.78,1.15.31.68,1.65.86,2.55,3.48,2.25,7.58,2,11,2.29,2.62.39,5-2,7.69-.08L490.12,202c.38,2.66,3.61.72,4.8,3,2.11-.71,3.76,0,6.21-.23,2.77-1,4.87-1.86,7.82-1.39-.14,1.19-1.12,1.4-1.76,2-.62,1.49-2.88,3.21-.06,4.73,2.95.59,5.91,1.19,8.86,1.8,1.49.42,2.91-1.61,4.42,0-.78,1.61-2.74,1.81-2.37,4a3.27,3.27,0,0,0,3,1.74c4.78,2.35,9.66.76,13.56-.13-1.11,2.25-1.89,3.69-4,4.37-1,1.58.39,2.51,1.55,3.77a21.5,21.5,0,0,0,10.79-.05c1.13-.14,2.25-1.48,3.26-.09-.76,2.63-4,3.82-4.28,6.75,2.66,1.85,6.06.19,8.82,0,1.31-.27,2.25-2.38,3.91-.86-.74,3.54-2.64,6.15-4.06,9-.39,4.82-1.4,11.44,1.34,17,2.8,1.22,1.08-2.94,3.21-2.56,1.13,7.19-1.23,12,2.68,19.37,2.61-.4,1.06-4.36,2.18-5.91,1.29-.62,1.07-3.46,2.89-2.08-1,6.46,1.23,12.45,1.84,18.69,1,1.05,1.24,4.25,3,3.7.77-2.46,2-4.69,2.31-7.42,1.11-1.73,2.21-3.43,4.33-3.72,4.41,24.22,21.9,47.79,42.42,60,1,1.76,3.45,1.53,4.79,2.86.84,1,2.27.08,3,1.81a83.28,83.28,0,0,1,8.56,3.21c4.11,1,8.27,4,12.67,4,2,1.95,4.09.43,5.94,2.73,7.89,2.23,12.12,9.51,18.93,14.46,0,0,.7.82,3.16,1.35a9.46,9.46,0,0,0,4.46-.13c-.3-.79-.52-1.52-.12-2.05,1.29-.3,1.5,1.51,2.48,1.69h.07q4.18,5.52,8.39,11a9.36,9.36,0,0,0,5.73-7.14c.72-4.58-2-10.49-5-14.73-11.12-7.86-9.59-21.52-20.54-29.37,5-1.31,8.76,4.8,13.61,2.39,3,3.19,6.12,3.43,9.43,5.79.8-1.06,2.45.12,3.6,0,1.46-.63,4.59.65,4.7-1.95-7.87-9.3-12.52-20.82-18.62-31.05-1.56-4.5-5.73-8.58-5.5-13.08.47-.8-.38-2.52.43-3.25,3.81,2.63,5.06,7.93,7.26,11.68l1.32.25a2.41,2.41,0,0,0,.76-2.31c3.17-4.82.07-13.09-1.19-18.55,3.67,3.48,5.91,9.66,9.25,13.08,1.13-1,1.41-3.08,2-4.71-.74-3.77-1.33-8.44-2.06-12.59-.52-1.16-1.37-2.88-.56-3.61,2.18,2.52,5.71,7.18,6.91,10.7,2.78.17.91-3.48,1.36-5.32,2.38-3.74-1-8.39-.92-12.73a86.91,86.91,0,0,1,12.62,9.44c1,1.07,3.61.65,2.59-1.1-1.89-4.36-4.76-9.06-5.82-13.26,2.82,2.26,5.14,3.89,8.13,6.17,3,1.4,5.84,5.75,9.08,4.38-1.25-4.77-4.78-9.74-7.32-14.22.15-.31.65-.05,1,0A80.83,80.83,0,0,0,741.84,266c1.47.25,1.43-1.68,1.4-2.91-3.65-2.5-4.88-6.74-8.21-9.91-.51-.46-.53-1.67.29-1.9,3,2.77,6.31,4.57,9.62,6.7,2,.31,4,1.85,5.93,2,.69,1.71,2.6.59,3.45,2.16,1.83.09,4.13,1,5.06-.78-1.2-2.63-4.33-4-4.89-6.88.63-1.48,1.33.55,2.14.34a65.09,65.09,0,0,0,9.45,6c2,.13,4.45,2.44,6.89,1.56a16.62,16.62,0,0,1-1-2.59c-.87-2.56-4.68-4.91-3.6-7.51,1.16.15,2,1.71,2.68,2.31,3.15,2,7.76,4.14,11.27,7.08,1.64.59,3,2.18,4.43.63.46-1.33-1-1.52-1.52-2.47-1.24-4.38-4.14-9.5-6.66-13.55l.46-.63c3.84,3,5.73,7.5,10.2,10.37,3,2.71,6,5.18,9.61,6.57,8.83,6.92,17.32,14.44,27.22,18.16,2.33,2,4.62,2.07,6.77,3.51,2,.39,4,1.1,5.92,1,.9-3.77-4-4.27-5.38-7.18,1.46-.74,3.47,1.39,5.28,1.75a25.45,25.45,0,0,0,11.06,4.89c3.62.86,6.14,3.86,9.36.79,4.16,3.49,8.3,5.55,12.94,8.14,3.3,1.6,7.08,2.55,10.39,4.11,1,.94,2.3.13,3-.18l.49.71c4.56-1.84-3.36-4.52-1.78-7.23,2.16,1.33,5.27,1.84,7.61,3.67,1.33.78,3.45.35,4.3,1.76,4.27.54,9.86,1.23,14.95,1.52l1-1c-1.38-3.36-5.7-5.73-7.08-9.25,3.27-.27,6.13,2.42,9.26,3.37,1,1.75,2.45-.66,3.63,1.09,1.62-.87,3.31,1.6,4.93.57,2.16,1.07,4.77.9,6.58,1.26,2.61-.88,5.76.32,8,.29C938.67,292.54,935.55,292.9,935.84,291.17Z"/>
    <path d="M678.87,370.26l-8.53-1.63a74,74,0,0,0-21,26.88c-.3,1.31-1.76,2.07-1.9,3.29a.67.67,0,0,1-.64.22c-.61,2.17-2.06,3.61-3.17,5.31l.34.41c-1.58,3-3.14,6-4.55,9.24h-.17l.17.2-.79.88.34.39c0,.91-1.46.25-1,1.58-.15.16-.15.48-.47.25v1.07a.42.42,0,0,1-.63,0c-1.1,2.39-2,5.9-3.6,7.85-10,24.08-21.69,49.39-32,73.95-5.54,8.71-10.57,18.77-16.62,26.33-.45,1.85-2.38,3.39-3.33,4.44-4.28,7.21-11,12.41-16.15,17.76-1.76,1.59-4.51,2.84-6.13,4.1-3.25.27-6,3.28-9.56,2.95-4.73.91-8.16.65-13.6-1.35-.32,8,5.07,16.41,9.81,23.39a43.49,43.49,0,0,0,14.93,11.28c3.27-.11,5.45,2.39,8,.77,3.27.09,6-1.49,8.78-2.18,13.74-7,25-17.95,33.83-30.91,9.7-13.66,16.28-27.38,23.81-42.16,1.2-5.17,4.06-9.32,4.93-14.76,7.64-17.71,11.48-37.76,16.16-56.24,1.36-5.5,2-11.66,4.08-16.16,1-5.55,2.06-10.95,4.4-16.25,1-4.69,3.26-8.13,5.63-12,1.66-7.37,6.94-12.81,10.25-18.5,1.08-3.1-1.62-7.08-1.68-10.44Z" style="fill: #0a1f62"/>
    <path d="M678.89,370.23c.3.8.06-.76,0,0Z" style="fill: #0a1f62"/>
    <path d="M795.5,189.77c-1.14.35-2-1.13-2.64-.88-7.1-3.61-15.35-6.88-22.33-11.8-12.22-6.23-24.15-13.37-36.53-19.36a67.27,67.27,0,0,0-8.9-3.81h0c-6.59-2.36-14.66-5.54-21.67-4.74-2.66-1.91-4.71,1.56-7.84.13a43.67,43.67,0,0,1-16.13,2.57c-1.46.41-3.73,1.2-5.38,0-5.53,1.39-11.8-1.38-15.45,4.19-3.35,3.91-6.83,9.34-4.4,15.75,4,12,3.92,24-1.45,33.08-2.08,2.39-3.62,5.92-6.21,7-7.17-6.46-13.91-8.83-22.33-12.55-.66-.85-2.28-.1-2.48-1.36-1.78.35-3.8-2.16-5.59-1.79-6.27-2.79-13.33-4.49-19.73-5.9-2.61,0-5.58-1.09-7.67.09-5.07-.44-12.26.63-15.59,4.92-1.67-1.37-2.87-4.05-3.56-6.09.33-8.17-3.61-16.39-7.35-23.73-8.37-9.4,3.08-17.26-2.19-26.77-3.81-10.49-13.54-14.53-22.27-17.81-.86-2.39-2.61.08-3.78-1.89-18.6-6.2-35.49-8.27-53.85-10.6-22.33-3.57-42,3.75-62.46,10.86a196.11,196.11,0,0,0-33.5,19.31c1,2.33,4.47,2.21,6.6,2.36,3.63,1.11,5.93,1.65,9.36,1.24a61.1,61.1,0,0,0,17.92-4.88c5.2-1.59,9.57-3.93,14.27-5.86,9-2.15,16.18-9.32,24.8-11.53,4.45,1.28,8.59,3.92,13,3.66,5.24-.13,10.28-1.33,14.14-4.25,2.66,1.62,5.95,3,8.29,5.11,6.23.93,13.95,2.71,18.8.17,5.14-4.55,9.6,4.94,15.15,5,1.82,1.19,4.09.37,5.59,1.86,7.78-3.37,5.25,8.59,10.85,11.15,1.5,2,4.76,1,6.29,3.58a25.73,25.73,0,0,0-.46,9.33c0,1.77,2.7,4.34.43,5.15-4.78,6,3.69,12.54,6.91,18.53.6,4.84,3.46,9.21,4.7,14,1.23,3.89,6.31,4.48,6.39,8.51-4.65,4.39-9.67,6.41-11.51,12.55l2.62.5c1.64.29,3.08-1.91,4.74-.37,1,2.46-2.09,1.89-2.89,2.95-4.94-2.3-5.51,2.16-8.56,4.37-1.73,3-4.47,5.48-5.38,8.82,5.38-.61,9.56-3.87,13.76-6.58,1.46-.41,2,1.78,3.28.6.17.57.84,1,.52,1.67a27.78,27.78,0,0,0-11.24,25.18l1.14.21c2.84-4.53,6.87-7.46,11.07-10.52l.83,1.18c-4.94,5.91-8.69,14.12-7.7,22.7l.51.77c2.38-2.86,5.76-5.92,8.48-8.73.64-.23,2.26-1.17,2.62.65-1.77,1.26-2,3.48-3.15,5.19-1.36,5.87-.56,12.64-.28,18.83.34.22.51.77,1,.69a40.1,40.1,0,0,1,4.72-8.19c5-1,2.62-7.9,4-11.83.14-1.19,1.6-1.81,1.08-3.46a4.22,4.22,0,0,1,3.67-3.5c1.93,6.29,5.18,12.86,9.19,17.47l1,.18c1.08-3.11-.14-6.48.61-9.84,1.1-2.23,1-5.74,3.61-6.29,1.71,2.94,1.92,5.61,3.45,8.52,2.21,3.58,3.28,7.79,7.06,9.57.06-4.87.13-9.6,2.84-12.71a2,2,0,0,1,1.5,1c-.1,3.14,2.25,6.55,4.09,8.65,1.83-6.65,4.16-12.82,9.31-16.71l1.47.3.21,10.33c2.34,2.73,3.44,8,8.17,7.55,3-2.2-1.16-8.26-2.37-12-1.32-.42-1,1.39-1.44,2.15-4.57-.18,0-6.08-2-8.57,5-.23,4.77-6.06,6-10.19,3.27.48,4.88-1.31,7.64-2.18.92-2.26,2.51-4.57,2.14-7.09-.53-9.38,10.51-5.13,12.14-13.17-1.41-5,3-6.08,4.54-9.1-2.28-7.77,6.77-5,8.63-9.68.58-3.74,2.45-7.92-.89-11.53.14-1,1.13-.85,1.77-1.23,3.38-2.84,3.59-8.38,2-13.41,2.12-.29,5.24.29,6.81-2.55,1.41-2.71.19-6.95-.52-9.18,1.76-2.12,4,1.44,5.91.77,5,4.25,10,.48,13.86-1.43l4.11,1.11c2.47,1.16,5.26,2.19,7.88,2,1.62-.58,3.6,0,4.37-2,1.82,1.18,2.27-1,3.91-.53.43,4.79,6,4,8.61,5.37,3.5,2.88,7.77,3.77,11.58,6,1.16.9,2.64,1.67,3.65,2.52,5,2.23,10.2,3.63,14.84,6.81.66,1,2.28,0,2.63,1.29,1.8-.42,3.31,1.73,4.13,2s2.3-.32,2.48.93c2.8,1,5.29,2.72,8.25,3.51,1.33.9,3.14,1.52,4.15,2.53,9.87,3.54,17.46,6.35,27.74,4.7,2.61,0,4.89-.94,7.33-1.35.28-1.36,3.12.89,2.09-1.32C809.19,195.4,801.94,193.26,795.5,189.77Z" style="fill: #a54a00"/>
    <path d="M489.16,125.51v0s0,0,0,0Z" style="fill: #a54a00"/>
    <path d="M476.07,125.66c-2.27.9-5.41-.44-7.34.87a43.84,43.84,0,0,0,3.68,4,15.73,15.73,0,0,0,12.42-.64c1.1-2.1,3.86-2.23,4.32-4.4C484.42,118.33,480.51,126.63,476.07,125.66Z" style="fill: #a54a00"/>
    <path d="M534.63,134.17c-2.43,1.48-4.78-2.06-7.38-.91-3-2.27-6.61-3.08-9.25-5.09-.21.73-.41,1.46-.61,2.18,2.65,2.34,1.47,8.27,6.38,8.59,4.08-.54,8.16-.71,11.72-2.36C536.45,135.72,535,134.75,534.63,134.17Z" style="fill: #a54a00"/>
    <path d="M517.86,137.24c0-1.59-1.56-3.93-2.42-6h0c-1-1.22.76-2.51-1-3.31l-1.45,1c-1.71,4.25-8.78,2.58-7.34,8.92.2,1.77,2.17,1.91,3.17,2.94,3.6.07,7.9,2.73,10.28.13C520.68,140.17,518.85,138.11,517.86,137.24Z" style="fill: #a54a00"/>
    <path d="M753.11,172.28l.31-.31a1.68,1.68,0,0,1-.38.23Z"/>
    <path d="M749.52,172.91c1-.76,2.43-.21,3.52-.71l-.27-.35C752,172.44,750,171.42,749.52,172.91Z"/>
    <path d="M492.29,126.32c-.3,1.17-1.61,1.87-1.09,3.5,1.05,2.43,2.06,4.31,4.53,4.89a19.3,19.3,0,0,0,8-2.24c1.61-1.14,4.7-2.21,5.8-4.48l-1-.15C503.78,129,497.42,129.38,492.29,126.32Z" style="fill: #a54a00"/>
    <path d="M425.11,138.18c-4.73.76-7.79,3.06-12.52,3.85-2.25,2.26-6,4.52-7.57,6.32,2.64.56,5.59,1.19,8.2.38,14.55-.6,29.84-5.3,41.62-13.37,4.36-3,8.58-5,11.26-9.19a45.64,45.64,0,0,0-10.37-3.3A273.25,273.25,0,0,1,425.11,138.18Z" style="fill: #a54a00"/>
    <path d="M718.27,171.22c-3.5-3.38-6.37.28-10-.38l1,1.92c2.83,3,.92,6.12.65,8.69,2.29.23,4.6,1.35,6.88.53,3.57-1.12,3.81-5.43,3.9-8.73C720.41,172.3,719.09,171,718.27,171.22Z" style="fill: #a54a00"/>
    <path d="M690.63,170.92,691,172c2.18,2.51,6.6,2.44,9.53,2.28,1.46-.61,1.91-2.45,1.88-4.34C698.2,165.16,694.55,170.61,690.63,170.92Z" style="fill: #a54a00"/>
    <path d="M749.69,197.05c-2.84-2.73-3.89-6.59-6.58-9.83h0c-2.93-7.46-9.32-8-15.29-12.05-1.63-.44-3.46-1.31-4.77-1.69,1.72,3.81-1.51,5.49-1.61,8.8,12.74,15.35,25.55,34.28,42.64,37.84-4.39-6.63-9.32-15.79-14.53-22.76Z" style="fill: #a54a00"/>
    <path d="M705,170.42c-.27,2.76-1.21,5.21-3.63,6.31-1.76,1.42-3.94-1.22-5.54.56a34.84,34.84,0,0,0,.57,4.13c2.67,2.42,6.58,1.74,8.84.74,2.93-.51,2.53-4.24,3.14-6.58h0Z" style="fill: #a54a00"/>
    <path d="M493.81,136.87a15.54,15.54,0,0,1-4.35-4.7l.32-.3-1.14-.17c-10.12,9.47-21.43,16.43-31.05,25.83q5.34.53,10.66,1.08c.46-1.31,2,.3,2.44-.88,13.07-.61,20.23-10.16,30.56-16.57.13-1.71,3.23-2.28,1.54-4.82C499.86,136.56,497.43,138.29,493.81,136.87Z" style="fill: #a54a00"/>
    <path d="M534.75,139.6c-1.16-.36-1.78,1.43-3.26.66-2.4,2.72-8.88-1.87-8.76,3.74-.9,3.86.3,6.34,3.47,9.49,2.94.14,7.4,2.16,9.3-.65C533.77,148.15,534,144.2,534.75,139.6Z" style="fill: #a54a00"/>
    <path d="M546.34,147.6l-4.14-2.66v0c-1.65-1-2.52-3.57-4.5-4.25-1.09,2.23-1.34,6-.79,9.28,1.35,2.34,3.7,4.67,6,5.41.49-.78,1.32-.09,2.13-.14C547.79,154.66,545.9,149.61,546.34,147.6Z" style="fill: #a54a00"/>
    <path d="M468.64,130.38c-3.85,3.13-8.88,5.43-13.42,7.64-7.25,5.53-16.81,9.79-24.21,15.66,3,1.17,6.72.54,10.15.79,15.72-.25,28-9.05,39.53-19.59C477.05,133.48,471.35,134.4,468.64,130.38Z" style="fill: #a54a00"/>
    <path d="M681.44,169.19c-.75,2.63,2.24,5.3,0,7,1.18,2.5,3.61,1,5.58,1.07a6.84,6.84,0,0,0,1.35-5.69C685.9,171.24,684.06,169.15,681.44,169.19Z" style="fill: #a54a00"/>
    <path d="M777.78,211.2c-4.34-4.47-6.78-11.68-11.27-15.86-.36-.92-.54-2-1.84-1.84-4.17-3.61-10.08-4.37-14.22-7.34-2.48-.92-5-2.37-7.09-2.72,6.1,10.42,13.32,19.3,20.87,28.51,1.82,1.49,3.33,3.3,5.65,4.7,2.67,2.66,6.15,4.76,9.29,6.78,2.64.75,5.79,2.6,8.24,2.43C785.34,220.32,779.85,216.56,777.78,211.2Z" style="fill: #a54a00"/>
    <path d="M692.19,175.38c-.5-.77-1.64-.63-1.79,0-.41,3.92-3.81,5.37-7.24,5.43a11.4,11.4,0,0,1,1.1,5.62c2.32,1.85,6.1,2.53,8.18,1.18a8.71,8.71,0,0,0,1.67-6.31C693.59,179.31,694,176.78,692.19,175.38Z" style="fill: #a54a00"/>
    <path d="M505,141.41c-8.86,6.43-18,13.42-24.58,21l.66.79c15.29,3.67,23.75-6.12,34.41-12.56,1.43-1.71,6-2.68,4.27-6.8C514.91,145,510.14,144,505,141.41Z" style="fill: #a54a00"/>
    <path d="M739.15,209.26l.33-.28-1.84-1.55h0Q728.81,195.72,720,184c-3.1.32-6.16,2.38-9.3.76l-.21,5.38c9.07,11.94,19.65,25.7,34,26.54C743.82,213.54,741,211.32,739.15,209.26Z" style="fill: #a54a00"/>
    <path d="M674.65,180.47c1.07,4.4,0,5.76-.95,9.26l3.78,1c2.76-.87,3.86-2.94,4.61-5.76-.69-2-.9-4.17-2.08-6.32C677.7,177.91,676.27,179.54,674.65,180.47Z" style="fill: #a54a00"/>
    <path d="M708.08,184.61v0Z" style="fill: #a54a00"/>
    <path d="M699.27,185.43c-1.15.16-2.18-2.3-3-.89a20.1,20.1,0,0,1-2,5.72c.66.85,2,1.1,2.31,2l1.32.24c1.84,1.9,3.78.87,6.09,1.61,4.21-1.12,3.64-5.75,4.05-9.54C705.13,184.94,702.72,186.6,699.27,185.43Z" style="fill: #a54a00"/>
    <path d="M854.88,227.79c-10.65-8-22.78-16.75-33.74-24.67-4-4.3-6.69,1.47-11,.25-.46,1.53-3-.72-2.92,1.21a82,82,0,0,0,8.81,7c2.68,3.09,5.15,3.57,7.52,7.14,12.47,9.63,26.86,16.82,41.61,17.2-.44-.55-.89-1.09-1.34-1.64A45.62,45.62,0,0,1,854.88,227.79Z" style="fill: #a54a00"/>
    <path d="M810.49,227.32c-3.31-2.14-5.19-5.54-8.16-7.67-5.65-4.4-8.68-15.27-16.54-16.4-1.51-1.76-4.6-1.33-5.61-2.72-2,.23-3.3-1.51-5.11-2.3-1-.86-2,.06-2.65-1.28-.5-.41-1.33-.72-1.81-.26,1.51,1.46,2,4.14,4,5.65,6.94,10.46,15.15,20.22,25.7,24.56,0,.13,0,.26,0,.39,4.11,1.23,7.4,2.34,11.65,2.15C811.82,228.2,811,228.27,810.49,227.32Z" style="fill: #a54a00"/>
    <path d="M521.75,151.69c-2.33-1.62-2.75,1.8-4.7,1.83-5.12,5.26-12.08,8.67-17.38,13.76,7.72,2.1,14.56.44,20.87-2.53a84.49,84.49,0,0,0,10.15-7.34c-1.5-1.3-3.78-1-5.43-2A11.57,11.57,0,0,1,521.75,151.69Z" style="fill: #a54a00"/>
    <path d="M535.42,156.66c-1.93,1.76-.39,5.15.64,7.29,1,1,2.48,1.29,3.31,2.49,2.48.77,4.29,1.62,6.22.22a28.37,28.37,0,0,1,1.63-8.6c-1.15-.05-3.13-.74-4.43-.44C540.35,158.21,536.79,151.65,535.42,156.66Z" style="fill: #a54a00"/>
    <path d="M823.84,222.64c-5.15-3.2-8.68-8.17-14.34-12.37-2.49-1.68-4.68-4.62-7.15-5.63-3.09.49-6.39-.14-8.83.41,3.4,6,8.92,11.52,13.24,15.52,9.57,11,24.24,16.74,37.19,16.74C838.72,230.17,829.05,229.85,823.84,222.64Z" style="fill: #a54a00"/>
    <path d="M713.62,199.75c-1.67-1.7-2.39-4.63-4.55-6.24-1.37,4.49-6.46,3.19-9.9,2.92a21.15,21.15,0,0,0,4.87,6.64c4.9,7.54,9.74,12.43,16.67,15.58,2.29.58,5.76,2.25,7.19-.15C723.5,211.46,717.67,206.23,713.62,199.75Z" style="fill: #a54a00"/>
    <path d="M683.33,189.1c-.26,3.62-7.13,3.19-2.45,8.09a42.09,42.09,0,0,0,9.18,1.4c1.78-.75,2.39-2.53,2.19-4.67C691.63,188,686.5,192.14,683.33,189.1Z" style="fill: #a54a00"/>
    <path d="M532.24,161.15l.32-.26-1-.19-8.36,7c-2.39,2.73-6.81,2.87-7.87,6.89,5,2.92,9.36,2.09,13.24.15,3.24-2.09,7.15-2.77,8.7-6.71C534.81,166.86,533.26,163.28,532.24,161.15Z" style="fill: #a54a00"/>
    <path d="M392.82,144.6c-2.5-2.11-5.1-.7-7.74-2.1C370.78,156.25,353.34,169.29,336,180c-3.85,3.8-10.2,6.47-13.39,11,4.3,1.34,9.85-.08,14.27,0,6.19-2.6,13-4.19,18-8.22,3.93-.39,6.65-3.61,10.06-5.23,13.74-9.34,22.86-19.78,35.27-30,.95-1.15,2.95.06,2.91-2C399.53,144.07,396.92,144.91,392.82,144.6Z" style="fill: #a54a00"/>
    <path d="M420.63,151c-1,.8-3-.64-3.74.52-5.92-.73-11.62.67-17.68.37-13,11.56-26.41,22.64-39.95,33.33-1.92,2.19-4.86,3-5.77,6.11,3.92-.23,7.39.92,10.8-.68,9.16-.83,16.45-5,23.72-9.36,1.29-.95,2.4-2.82,4-2.86,10-7.85,20.14-15.89,30.81-22.81l.33.36c2.55-3.58,6-4.25,9.52-6.84,0-.24,0-.48,0-.72C428.62,149.38,424.71,150.2,420.63,151Z" style="fill: #a54a00"/>
    <path d="M711.74,219.86h0Z" style="fill: #a54a00"/>
    <path d="M693,200c-1,.88-3.1.31-2.9,2.26,2.52,2.92,3.59,7.66,6.92,10.55,4.33,3.94,9.64,7.87,14.68,7-5.23-8.64-11.12-16.68-16.67-24.52C695.1,197.42,693.65,198.55,693,200Z" style="fill: #a54a00"/>
    <path d="M672.27,191.72a1.45,1.45,0,0,0-1.11,2c1.88,3.33-.34,6.75.55,10.43,2.3.95,3.57-1.42,5.52-1.38.94-2.27.58-4.28,1-6.8C677.66,192,674.43,193.7,672.27,191.72Z" style="fill: #a54a00"/>
    <path d="M453.53,158.59c-.53-1.65,1.09-2.13,1.06-3.36a9.12,9.12,0,0,0-5.2,1.77c-13.18,10.74-29,20.76-41.7,33.3,2.66,2.17,6.26,1.27,9.19.85,1.63-.19,2.62-.26,4.08-.49,1.27-1.76,2.62.28,3.72-1.89,7.82-2,13.78-6.87,19.55-12.29,6.13-4.87,12.08-9.52,18.18-15C459.76,159,456,161.16,453.53,158.59Z" style="fill: #a54a00"/>
    <path d="M479,165.2h0c-4.44-1.5-.41-4.62.21-6.08-3.92.11-8.3,2.14-12.08,1.45-2.38,3.49-6.27,5.42-9.47,8.15-8.2,6.79-16.27,12.45-23.49,19.54,0,2.08-2.41,2.16-2.37,4.09,7.73,1.54,13.38-1.47,20.4-2.84,11-5.25,19.47-15.93,29-22.78C480.52,166.3,480.32,164.85,479,165.2Z" style="fill: #a54a00"/>
    <path d="M543.33,175.89c1.7,2.74,3.37,4.78,6.31,5,1-1.05,3.62,1,3.57-1.26-1.53-3.25-4.19-5.83-6.4-9.55C544.69,170.52,542.29,173.07,543.33,175.89Z" style="fill: #a54a00"/>
    <path d="M541.74,170l-1.14-.21c-2.41,2.2-4.17,4-6.58,6a20.91,20.91,0,0,0-8.35,7.82c6.43,2.15,13.62,2.36,18.11-1.9.13-1.71-1.37-3.21-2.06-4.56C540.86,174.54,540.48,172.05,541.74,170Z" style="fill: #a54a00"/>
    <path d="M426.64,156.36c-6.62,4.54-14.55,9.37-21.15,14.91-8.24,5.22-16.12,12-23.53,18.73a.87.87,0,0,1,.34.69c7.08,1.31,13.89-1.51,20.59-2.85,14.72-9.11,27.59-19.27,41.29-29.89,0-.29,0-.58,0-.87C438.26,156.73,433.21,157.55,426.64,156.36Z" style="fill: #a54a00"/>
    <path d="M680.93,199.63c1.91,5.45-8.4,4.37-1.76,10,5.84,5.86,10.27,14.34,18.46,15.51-3.6-8-8.33-15.68-11.11-23.7C684.37,200.47,683.07,200.93,680.93,199.63Z" style="fill: #a54a00"/>
    <path d="M497.43,169.71c-1.48-.21-2.34-2.44-2.54-4.06-3.41.73-7.17,1.52-10.78.83l.19,1.09c-9,9-19.15,15.56-28.6,25.18l0,.87c17.59,4,29.4-10.1,40.47-20.26.8-.91,3.07-2.12,1.73-3.73C497.76,169.77,497.6,169.94,497.43,169.71Z" style="fill: #a54a00"/>
    <path d="M514.78,170.42c-4.11-.5-8.33.74-12.43-.09-4,6.51-11.08,10.13-15.86,16.06-3.38,3-6.9,6.49-8.94,10.19,7.07,2.26,13.07-.49,18.58-2.43,6-5,14.18-10.14,19.13-16.14a27.08,27.08,0,0,0-3.66-2.88C511.05,172.08,514.34,173,514.78,170.42Z" style="fill: #a54a00"/>
    <path d="M791.46,248.44c-2.21-4-5.39-7.57-7.58-11.57l0-.87c-2.68-3.54-5.22-7.92-7.6-11.42h0a59,59,0,0,1-11.13-8.31c-.1,2.42,2.88,4.48,4.24,6.57,1,1.22-.29,2.07-1.11,2.3,4.59,8.2,9.33,16.27,16.17,22.81l-.31.31c4,4.08,9.19,9.33,14.28,10.86-2.19-3.24-4.88-7.27-7.24-10.41Z" style="fill: #a54a00"/>
    <path d="M750.08,216.32c-1.47-.41-2.33-2.47-4.13-2.59l3,3.47c.86,1.89-1.6,1.64-1.4,3.09,3.37,5.27,7.43,11.67,11,16.6a78.07,78.07,0,0,0,15.89,17.29c3,.8,5.63,3.61,8.42,4-5.8-11.48-12.27-23.8-18.71-34.92A79.12,79.12,0,0,1,750.08,216.32Z" style="fill: #a54a00"/>
    <path d="M744.1,219.53c-3.42-.06-6.1-2.25-8.87-2.54l0-.36c-3.77-.82-6.6-3.59-10.25-6.14,1,1.23,2,2.45,3,3.67.72,2.58,5.15,3.68,3.74,6.93,2.21,4.23,5.72,8,8.26,12,7.77,11.78,16.63,21.63,28.15,25-.9-3.46-3.58-6.83-5.6-9.94C756.93,238.75,751,228,744.1,219.53Z" style="fill: #a54a00"/>
    <path d="M804,230.88c-4.93-.64-10.4-4.52-14.9-7.93,13.3,17.57,26.93,35.89,42.93,50.18,6.47,3.82,14.09,8.07,21.31,9-16.08-17.46-29.18-33.74-44.24-49.91C807,231.8,805.53,232,804,230.88Z" style="fill: #a54a00"/>
    <path d="M551,189.84c-.09,3.12,2.73,5,4.07,7,1.8,0,4.14,2.35,5.56.15-3-3.33-2.77-7.67-5-11.05C552.85,177.43,552.26,188.5,551,189.84Z" style="fill: #a54a00"/>
    <path d="M549.2,183.22c-1.47-.27-1.64-.31-3-.52-2.86,3.83-7.56,5.79-10.41,10.18,3.14,1.79,5.75,1.55,9.66,1C552.73,195.72,547.48,186.42,549.2,183.22Z" style="fill: #a54a00"/>
    <path d="M674.38,207c-.82.05-2-1.07-2.45.08-2.66-2.08-4.54,1.92-7,2.13,5.74,8.28,12.5,19.51,21.7,21.77.13-1.37-1.18-2.14-1.21-3.36C681.69,220.73,678.26,212.78,674.38,207Z" style="fill: #a54a00"/>
    <path d="M522.05,182.65c1.12-1.39,1.92-2.48,2.87-3.7l-.82-.16c-4-1.52-6.84,1.13-9.4,3.83-6.41,6.62-13.51,10.92-19.9,18,2.83,2.5,6.23,1,9.18,1.09a24.44,24.44,0,0,0,6-1.81c6.13-4.25,12-6.76,17.27-11.08,1.14-.32.13-1.56-.38-2.51C524.58,186.22,523.41,184.8,522.05,182.65Z" style="fill: #a54a00"/>
    <path d="M818.82,265c-6.57-9-13-17.44-20.84-26.37-3.17-2.68-5.62-10.86-10.49-9.1-2-2-4.11-.56-6.27-2.47,5.83,12.74,16.4,25.9,23.81,36.25a68.84,68.84,0,0,0,18.29,13.59c2.95.67,5.29,2.49,8.23,3.15C827.55,275.79,823.13,269,818.82,265Z" style="fill: #a54a00"/>
    <path d="M878.61,290.31c.11-.12.21-.24.32-.35-.33,0-.82,0-.84-.41l.16-.33a54.46,54.46,0,0,1-8.71-9.63l.32-.35c-.83.3-1-.57-1.5-1-9.52-8.53-20.4-21-29.43-30.12-4.5-3.4-7.85-7.09-11.86-11.35a8.7,8.7,0,0,1-4.47-2.43v0c-2.1.63-3.8-1.66-5.93-2.61a11.28,11.28,0,0,0-3.74.94c15.74,18,29.7,35.52,47,50,3.31,2.18,6.15,4.31,9.78,5.78,1.35,1.84,4,1.66,5.64,3.16,2.45-.55,4.33,3.41,5.9,1.26A8.07,8.07,0,0,0,878.61,290.31Z" style="fill: #a54a00"/>
    <path d="M919.76,282.38c-17.65-12.61-34.24-30.46-53-43.16-3.6.27-7.88-1.66-11.31-.89-1.17-1.15-3.13-.8-4.13-1.93-1.15-.1-3-.62-3.27.06,5.47,4,9.82,8.56,14.68,13.46,8,6.54,16.35,14.08,24,20.93a65.48,65.48,0,0,0,41.73,19.45C926.08,286.81,922.63,285.89,919.76,282.38Z" style="fill: #a54a00"/>
    <path d="M719.61,220.88l-1.49-1.1c-1.63.4-3-2.48-4.79-1.91l2.51,2.36c10.08,13.51,15.28,28.06,30.48,35.46v.37c2.62.07,5.28,2.61,8.23,3.07v-.51c-8.42-11.84-17.52-25.07-25.12-36.87C726.52,223.16,722.9,222,719.61,220.88Z" style="fill: #a54a00"/>
    <path d="M714.92,223.22c-3.95-1.23-7.52-.15-11.49-2.43v0c-2-1.92-4.64-3.09-6.48-4.83l1.2,2.66a38.07,38.07,0,0,0,5.06,7.58c9.11,13.87,19.88,29.26,34.88,34.78-3.06-5.06-5.91-8.51-9.1-13.6C725.22,239.19,719.67,231.23,714.92,223.22Z" style="fill: #a54a00"/>
    <path d="M668.79,221.27c-1.06-3.87-4.55-6.78-5.78-10.52-.64.73-.6,2.5-.9,3.82-.75,3.19-4,2.37-4.62,5.39,3.36,4.68,6.75,10.39,11.22,13.17,1.68,2.26,5,3.74,6.65,5.46,1.46-.43,3.29,1.49,4.92,1.1-2.59-6.94-8.08-11.32-11.49-18.44Z" style="fill: #a54a00"/>
    <path d="M893.84,281.67c-3.51-3-7-7-10.53-10.33A338.73,338.73,0,0,1,850.59,242c-2.37-3.36-5.43-1-8.72-1.7-3.42.38-5.93-2-9.37-1.65,8.38,9.11,20.2,18.92,27.62,28.75,6.66,5.41,11.87,11.91,18,16.27,5.79,3.18,11.32,8,17.89,9.14,3.44-.06,6.76,1.63,9.85.68C902.35,289,897.84,285.52,893.84,281.67Z" style="fill: #a54a00"/>
    <path d="M536.06,187.85c-1-1-1.8-.13-2.79-.11-7.88,5.95-16,10.34-23.17,17.72L509,207.72c12,4.58,20.17-4.84,28.38-10.55-1.65-1.34-3.3-1.64-4.79-3.28C532.7,191.28,535.79,190.43,536.06,187.85Z" style="fill: #a54a00"/>
    <path d="M563.27,199.74c-2.45.08-4.9.34-7.35.43-1.65-1.19-3.67-3.85-5.64-4.36l-6.58,6c-.47,1.16.52,1.48,1.2,2.49l.32-.28,1.16,1.07a22.93,22.93,0,0,0,17.57-4C564.11,200.59,563.61,200.17,563.27,199.74Z" style="fill: #a54a00"/>
    <path d="M688.78,223.85c-.27,2.75,2.68,3.31,3.39,5.86,1.82,1.39,3.19,4.09,4.53,5.91,6,6.88,8.47,14.66,16.58,19.44a48.53,48.53,0,0,0,10.49,9c-5.8-11.85-14.22-23.66-21.65-35.32A20.46,20.46,0,0,1,688.78,223.85Z" style="fill: #a54a00"/>
    <path d="M541.29,203.61c-2.39-4.4,2.88-3.32,2.81-6.48-2.9,1.94-6.46,4.1-9.18,6.23-5.35,2.92-10,7.19-14,11.41l1,1.22c9.22,2.24,16.28-3.66,23-8.39C544.6,205.44,541.82,206,541.29,203.61Z" style="fill: #a54a00"/>
    <path d="M675.6,226.94h0l-.48-.07,9.11,13.93-1.45,1.65c-2.91.84-5.41-.86-8.35-1.95,8,8.19,15.25,18.44,21.49,28,2,2,1.9,4.73,4.21,5.83,1-4.53-.69-9.73-2.26-14.2C692.05,247.84,683.53,238.38,675.6,226.94Z" style="fill: #a54a00"/>
    <path d="M689.56,230.28l-.64.41,1,1.21c-.15.68.19,1.61-.29,2a11.11,11.11,0,0,1-6.56-1.25c5.88,7.78,10.82,17.43,17.66,24.42a63.87,63.87,0,0,0,11.33,10.29c.47-1.34-.86-2.06-.72-3.28C705.68,251.59,697.47,241.34,689.56,230.28Z" style="fill: #a54a00"/>
    <path d="M670.31,239.38c-4.31-2.74-6.2-7.33-9.88-11.5v0c-1.16-.74-1.7-3.61-3.35-3.6.07,2.81-2.69,3.83-4.3,5.27.85,1.75,2.86,3.52,4.19,4.83,2.69,3.85,7.15,5.92,10.79,8.38.66.28,1.64,0,2,1.07,1-.52,2.47.28,3.27-.43C673.11,241.46,670.65,240.67,670.31,239.38Z" style="fill: #a54a00"/>
    <path d="M551.19,208.19c-2.13-.73-3.59.25-5,1.9-4.16,4.66-8.33,8.29-12.16,12.67,5.25,1.29,9.32.08,13.54-1.42,4.06-1.2,4.77-6.12,6.34-9.51,0-1.57,2.24-2.19,1.39-3.94C553.46,207,552.67,208.63,551.19,208.19Z" style="fill: #a54a00"/>
    <path d="M651.34,230.83l-1-.19c1.42,5.68,5.16,13.05,3.15,18.44,2.19,3.37,5.82,4.59,9.43,5,1.77,0,1.42-2.38,1.39-3.41C665.44,241.06,654.11,238.34,651.34,230.83Z" style="fill: #a54a00"/>
    <path d="M648.1,232.3c-.83-1-2,0-2.28.77a17.58,17.58,0,0,1-4,12.17c2.67,2.6,6.09,3.09,9.22,3.68.12-2.25,1.54-4.24.51-6.88C651,238.8,650.29,235.35,648.1,232.3Z" style="fill: #a54a00"/>
    <path d="M675.67,245.84c-2.4,2.67-6.71-.44-10-1.23.88,2.43.77,5.2,1.64,7.83,9.93,6.25,14.24,16.85,21.46,26.07,1.51,2.35,2.88,5.07,4.88,7.17,1.24-3.26-1.33-8.78-1.39-12.29C689.91,263.18,682.35,252.84,675.67,245.84Z" style="fill: #a54a00"/>
    <path d="M640.25,247.19c-.66.4,0,1.4.19,2.13,1.72,4-2,8,1.55,11.66,2.32,1.67,4.65,3.89,7.43,3.7,2.24-2,2.48-7,1.75-10.67C648.94,249.06,643.58,251,640.25,247.19Z" style="fill: #a54a00"/>
    <path d="M634.85,247.72c.9,4-2.15,6.38-3.88,9.21,2.13.92,2.65,2.41,5.27,2.38,2.58-1.57,2.32-6,2.27-8.79C638.15,249.07,637.12,246.23,634.85,247.72Z" style="fill: #a54a00"/>
    <path d="M669.19,256.44c-.68-1.17-1.46.77-2.15-.92l-1.12,1c-4.09-.26-8.81.4-12.33-3.93l0,1.57c11.22,13,23,24,30.72,39.59,1.43-1.32.88-4.39,1.35-5.87C683,277.24,676.88,264.72,669.19,256.44Z" style="fill: #a54a00"/>
    <path d="M673.83,283.55c-3.48-10.12-13.25-17.05-19.3-24.86a12.42,12.42,0,0,0-1,6.09c4.16,3.62,7.39,9.81,12,13.68,2.85,2.8,5.54,7.35,8.7,9.51C674.53,286,673.54,285.57,673.83,283.55Z" style="fill: #a54a00"/>
    <path d="M641.43,265.58c-.47-7.07-5.28-2.79-8.59-4.48,1.87,3,2.77,6.82,3.63,9.45.67,1,2.46.14,2.16,1.81l2.11-.63C642.51,270.33,641,267.59,641.43,265.58Z" style="fill: #a54a00"/>
    <path d="M652.9,267.28a16.82,16.82,0,0,1-8.2-1.41v-.18l-1.14-.22,0,1.57c6,6.08,10.41,13.37,16.75,20.18a13.54,13.54,0,0,0,2.5,2.61C662.19,281.48,658.44,273.76,652.9,267.28Z" style="fill: #a54a00"/>
    <path d="M673.77,335.91l.32-.09-.65-.14c-3.23-6-9.5-9-14-13.68-1.66-.66-2.69-3.48-4-3.93-.78,1.78-1.73,3.34-4,3.24-6-7.1-13.76-10.33-18.8-17.45-2.83-2.29-4.34-4.52-6.69-7.22l.31-.28c-3.33-3.47-5.76-10.4-7.66-15.65l-3-3.21c-.6-.73-1.24-1.89-2.13-2.15l.31-.3c-3.16-2.34-2.39-4.64-5.37-6.81-.59,3.21-.2,6.25-.13,9.43.18,1.06,1.22,3.9-.91,3.29-4.5-4.19-7.71-9.51-10.76-15l.15-.13c-1.15-1.08-1-3.18-2.35-3.59-1.73,3-1.29,8.82-1.22,12s2.06,5.13,1.94,7.89l-1-.21c-6.32-5.2-10.41-13.49-14.18-21.88-1.12,1.36-1.55,4.06-1.66,6-2.43,9.83.78,22.5,5.72,32,6.07,10.2,13.67,22.16,23.81,29.68,5,7.12,13.39,8.2,19.36,12.86,10.85,2.64,19.61,7.48,30,9.83,1.37,1.19,4.37.7,6.16,1.73a21.24,21.24,0,0,0,8.94-.65l0,0a24,24,0,0,0,7.41-3.92C678.17,343.22,676.93,338.61,673.77,335.91Z" style="fill: #fff"/>
    <path d="M680.87,349s-1.84,2.24-7.07,3.67v0a28.42,28.42,0,0,1-9.31,1c-.63,1.27-2.12.46-2.77.35a.82.82,0,0,0-.47,1.47,136.75,136.75,0,0,1,12,9.64c1.17,1.1,2,0,2.93-.51-1.34-2.16-4.14-3.21-6.32-5.55-1-1.41.44-2.56,1.41-2.86a40.58,40.58,0,0,1,6.66,5.43c5.29,3.09,8.32,8,11.39,13.67,2.11-.47,2.55-3,3.49-4.92C693.05,361.69,686.62,355.36,680.87,349Z" style="fill: #ffb30f"/>
    <path d="M621.91,261.78c-1.81-.7-1.28,1.66-2.57,2.11-1.82,3.72-3.49,7.45-2,12.62l3.2,4c.74,1,.61,2.9,1.35,3.95,3,5.46,5.79,11.77,10.77,15.54-5.44-10.86-8.29-22.4-9.67-34.21Z" style="fill: #a54a00"/>
    <path d="M643.84,271.48c-.78,1.59-1.55,4.21-4,3.58,3.28,8.51,9.11,13.81,16.54,17.35C653.76,285.09,649.84,277,643.84,271.48Z" style="fill: #a54a00"/>
    <path d="M651.17,309.9c-.69-9.73-10.21-11.42-14.27-18.48l.32-.3c-1-1.58-3.32-2.74-3.53-5.06-3.19-4.27-4.77-9.3-7.17-14.49l-.49-.1a7.16,7.16,0,0,0,.91,4.22c1.28,6.53,3.69,12.57,6.27,18.82,4.57,8.07,9.85,18.54,18.75,22.18.65.14.8-1.07,1.44-1.64C652.39,313.46,652.67,311.39,651.17,309.9Z" style="fill: #a54a00"/>
    <path d="M630.54,275.71c3.78,9.11,9.86,19.18,18.27,22.74l.3-1.53c-4.55-6.64-8.16-15.18-12.21-21.56C635.47,277.52,632.48,275.19,630.54,275.71Z" style="fill: #a54a00"/>
    <path d="M664.46,280.69l-.66-.11c2.09,6.33.92,12.73,5.63,19.06,5.29,11.13,8.51,24.68,19.75,31.31,1.83.87,4.29,1.5,5.91.95C685.76,315,677.66,295.1,664.46,280.69Z" style="fill: #a54a00"/>
    <path d="M657.23,286.63c-.29,2.05,1.4,4.65,2.11,7.05,1.18,2.33-.6,3-1.06,4.5,4.26,8.86,7.57,18.4,13.44,25.81,2.49,1.7,5.8,3.89,8.08,3.1-4.44-9-7.35-15.35-12.26-24C666.25,295.86,660.77,292.38,657.23,286.63Z" style="fill: #a54a00"/>
    <path d="M661.83,311.44c-3.21-4.81-5-10.2-6.86-15.46-1.07-3.9-5.47-3.84-7.49-6.54a9.5,9.5,0,0,0,4.55,6.49c.69,2.05-.75,3.53-1.7,5.08,2.92,6.67,5.2,14.45,10.7,19.35,2.3.64,4.15,3.42,6.6,2.84l0-.69C665.58,319.32,662.88,315,661.83,311.44Z" style="fill: #a54a00"/>
    <path d="M661.33,335.11a32.15,32.15,0,0,1-9.06-3.51c-.82,0-1,.87-.3,1.69,4.77,1.29,5.7,6.52,10.47,8.31,1.64.14,2.59-1.06,3.22-2.53C664.8,337.15,662.66,336.06,661.33,335.11Z"/>
    <path d="M449.07,299.65h0c-.68-1.3-2.83-1.39-3.8-2-12.18-2.18-21.59.86-31.11,7.5-2.9,2.7-7.08,6.7-7.8,11.49,2.45-.45,3,1.34,5.13,1.69,1.79.85,3.76,0,6.19-.31-2.52-3.2,1.87-4.51.33-7.62-2.29-7.92,6.78-5.11,9.36-6.93,5.91.8,10.17.93,14.18,5.07.26,1.84.51,3.67.77,5.51-2.63,7-10.05,4.94-14.92,6.7-4.09.28-8.49,1.58-13.24,1l-.51-.74c-2.59,1.14-6.62-3.56-7.35.91,1,3.07-1,7.24,1.84,9.41,4.05-1.93,8.62-2.37,12.68-4.23,2,1.06,2.75-1.29,4.73-.73,7.48-2.74,15.28-5.16,22.75-8.08,2.23-2.51,5.67-2.79,7.91-4.78,1.57-3.43.52-6.39-1.17-9.22C453.55,302.84,451.53,300.32,449.07,299.65Z" style="fill: #0a1f62"/>
    <path d="M426,306.48c-.78,1.47-2.44.61-3.74.64-1.41,2.67-.87,5.34-1.3,8.61.09,4.37,2.81,1.32,5.29,2.46,1.45-1.58,2.94-.22,4.73-1.07,2.76-.91,6.83-1.84,7.23-5.82C436.9,304.51,431.08,308.4,426,306.48Z" style="fill: #0a1f62"/>
    <path d="M461,329.47c.39-4.31-1.29-6.43-1.22-11.13h0c-.66-1.13.3-1.91-.54-2.88a90.14,90.14,0,0,1-17,8.54c-5.7,1.59-11.35,4.12-17.22,5.94-1.63-.18-3.71,2.25-5.21,1l.17.38c-5.06.39-9.58,3.79-14.81,4.41-1.11,2-3.92.53-5.69,1.62a13.85,13.85,0,0,0-5.85,2.17,38.36,38.36,0,0,0-11.67,6.39c-8,9.66-7.21,24.39-7.09,38,2.39,4.33-1.17,6.39,2.19,10.44,1.64.07,1.28-1.72,2.07-2.36,10.77-10.56,23.84-20.09,39.39-20.84,17.93-3.72,38.39-10.84,42.38-31.95C460,336,462.19,332.79,461,329.47Z" style="fill: #0a1f62"/>
    <path d="M560.43,419.29c-.13-5.8.42-11.29-3.27-16.68l-.32.31a25.85,25.85,0,0,0-11.2-4c-4.79-2.6-11.66-2.78-16.92-4v0c-1,.2-1.78.58-2.94-.49-7.21-.72-10.47.13-17.69-1.55-3.27.31-6.19,1.27-9.66-.33-1.93,2-6.71-.34-9.46,1-1.65-.61-3.43.51-4.9.29-4.06,1.32-9.66-.36-13.23,1.22-2.79-.53-4.73.6-7,.26-1.62,1-4.08.71-5.37,1.76-3.3-1.13-6.18,1.64-9.31,1.07l.17.37c-.47.47-1.3,0-1.95-.07-3.56,1.84-7,1.08-10.57,2.95-11.91,1.79-21.43,8.9-32.14,13.75-5,4.81-12.65,5.64-17.48,10.38-3.18,4.65-12.85,4.13-12.38,11.48.13,14-.6,26.36.5,39.66-.28,2.25.11,5.62,2.11,6.95C395,469.79,413.23,458.19,433.7,451a246.9,246.9,0,0,0,27.48-9.22c.95-.73,3.12.94,3.57-.75,9.77-2,19-6.06,29-6.79,1.3-.69,3.45.89,4.74-.32,7.35-.24,14.06.17,21.75.42,5.56-.28,12.45,1.07,20,2.93,1.3-.11,3,1.74,4.43,1.14,2.5,2.19,7.72,1.57,11,3.74a32.49,32.49,0,0,1,5.93,2.64c1.3-.43,4.13,2.7,3.73-.85C564,436,561.24,426.93,560.43,419.29Z" style="fill: #0a1f62"/>
    <path d="M854.27,452c-2.87,3.59-8.07,6.09-12.28,8-1.44,1.25-5.37,1.56-4.82,4.22,1,.62,2,2.12,3.48,2.27a3.54,3.54,0,0,1-.16.34c3,1.5,6.13,3,9.75,4.58,3,1.83,6.18,5.58,9.27,4.28,6.66-2.8,13.85-3.17,18.65-9-3.52-3.71-6.87-7.26-11.16-8.95A33.75,33.75,0,0,0,854.27,452Z" style="fill: #0a1f62"/>
    <path d="M409.54,399.19a103.34,103.34,0,0,1-7.68-7.11c-2-2.95-2.91-6.18-1.66-9-.56-3.7-3.43.1-4.75,0-5.81,4.08-12.11,8.91-17,15.27-1.73,4.27.32,8.21,3.19,12.06,2.68,2.78,4.85,5,8,6.44,7.49-1.58,14.27-6.81,21.57-9.63,2.11-1,4.87-1.64,6.83-2.48.3-1.39-.87-2.19-1.21-3.28C414.35,401.9,411.86,400.27,409.54,399.19Z" style="fill: #0a1f62"/>
    <path d="M801.28,453.74Z" style="fill: #0a1f62"/>
    <path d="M871.3,491.56a115.94,115.94,0,0,0-27-20.72c-7.65-5.8-15.39-8.18-23.81-11.94-1.49-.51-3.46-.77-4.46-1.74-5.26-1.17-9.38-2.72-14.79-3.42h0c-5.76-1.62-12.81-2.42-18.56-3.42-9.19-1.83-20.31-1.48-28.31-1.2-1,.56-2.6.83-3.27,0-2.76.93-5.23.19-8,1.48-3.13-1.05-5.55-.09-8.82-.13-5.84,2.17-12.06,2.48-17.53,5.68-.47,1.66-.27,2.38.09,4.73,7.72,10,10.54,20.21,17.8,31.07,5.39-.33,9.74-3.42,15.12-3.78a126.44,126.44,0,0,1,36.81,0c.66.28,1.34,1.42,1.79.24,5.27,1.46,11.34,2.45,16.61,3.81,4,1.39,8.22,1.74,11.87,3.91l-.32.31a6.41,6.41,0,0,1,3.6.77c.83-.26,2.31.79,3,.86,3.15,2.46,7.75,3.31,10.92,5.74l.31-.31c6.3,3.62,11.77,6.57,17.58,11.11l.33-.31c1.34,2,3.66,2.91,5.48,4.27l-.32.18a76.31,76.31,0,0,1,10.52,9.7c2.82,2.13,2.59,6.29,6.36,6.38.95-1.52.22-5.41.33-7.5,1-1.68.89-4.48.85-6.24,1.55-4.44,1.28-9.69,2-14.69.28-2.28.37-5.23.66-7.13A28.33,28.33,0,0,0,871.3,491.56Z" style="fill: #0a1f62"/>
    <path d="M558.06,446.45c-.66-.65-1.81-.5-2-1.22-3.12-.94-5.1-1.64-8.06-2.52-10-2.17-20-5.49-30.35-5.29-3.26-.19-5.89-.43-8.32.2-5.26-.52-8.82.32-13.73.41v-.31c-1.6,1.65-5.58-.87-5.85,1.89-.3,1.51,1.65,1.12,2,1.51,1,1.2,1.81.8,2.66,2,2-.58,2.82,2.53,4.44,1.4.86,1.88,3,.64,3.64,2.14,10.36,2.88,20.73,6.18,30.73,7.24,10.28-.5,24.29,5,30.47-4.14C564.09,445.82,559.55,447.41,558.06,446.45Z" style="fill: #0a1f62"/>
    <path d="M767.94,495.8l-3.36-4.56c-1.83-.62-4.59-.17-5.88,0-6.37.38-13.22,1.88-19.9,2.66-.64.77-2.44.64-2.07,2.28a19.14,19.14,0,0,0,9.59,5.24c8.29,5.42,18,10.44,23.63,19.83l2.46.37c2.42-8.87.3-17.22-4.46-25.79Z" style="fill: #0a1f62"/>
    <path d="M866.23,531.54c-5.88-7.07-12.37-12.15-18.73-18.32-1.77,1.08-1.69-2.77-3.8-2.09-1,5.82,2.23,12.81,6.27,17.86,1.72,4,5.18,5.7,8.18,7.86,0-.17.16-.33.48-.3.34.38.84.6.68,1.1,1.31-.6,1.51,1.5,2.63.38.51.74,2.3.17,2.65,1.23,2.44-.84,6.23.11,7.3-2.61A17.23,17.23,0,0,0,866.23,531.54Z" style="fill: #0a1f62"/>
    <path d="M564,466.41c-6.44-2.4-13.11-1.87-19.16-1.24-5.24-.72-10.61.59-15.16,2.09-3.75,0-7.81.9-11.74,1.29l.34.42A64.47,64.47,0,0,0,506,473.91c-10.4,2.71-20.72,10-30.61,14.56-6,3.7-12.46,6.31-17.44,10.72-5.69,1.71-9.67,7.51-15.18,9.81-.47.64-1.31-.51-1.45.69-6,1.92-11.69,4.79-17.53,7.17-2.28.28-3.71,2.77-6.34,2l.33.36c-1.77,1.41-4.39,1.16-6.17,2.23-2.13.32-6.1-1.93-6.53,1,5.74,8.85,13.09,15.67,17.07,25.68,1.37,3.29,1.95,7.69,5.72,7.94,2.41-2.22,5.41,0,7.65-2,7-3.06,14.31-4.63,20.78-8.85,4.21-1.9,8.6-2.9,12.45-5.68,5.7-2,11.54-4.5,16.36-7.94,6.48-3.57,13.78-6.3,19.58-10.43,8.75-3.81,17.29-9.89,26.71-12.64,6.68-2,14-5.4,20.52-4.22,4.71-.88,10.14.46,14.7-.62,1-12,3.48-21.53.44-34C566.83,468.33,565.33,467.19,564,466.41Z" style="fill: #0a1f62"/>
    <path d="M752.34,508.19c-.82-.47-2,.2-2.31-1.08l-.64.59c-3-.82-5.2,1.94-8,.76-2.42,1.55-6,0-8.81,1.14-2.3-.94-5.9-1.37-8.85-1.89-.49-.25-1-1.22-1.47-.26-2.5-2-5.93-1.91-8.58-3.81,0,.54.34,1.13-.29,1.38a93.72,93.72,0,0,0,9.61,6.92,1.1,1.1,0,0,1,.33.77c1.17.21,2.32,1.46,3.31,1.79,0,.16.34.39.18.75l1.3.2c1,2.09,4,2.46,5,4.17,5,2.78,9.43,5.45,13.75,8.43,3.94,1.53,7.09,3.09,11.18,3.4,3.73-2,9.28-2,10.82-7.21a103.57,103.57,0,0,0-16.53-16.08Z" style="fill: #0a1f62"/>
    <path d="M912.36,591.9c-.86-10-1.39-19.23-6-28.44l.33-.33-1.19-1.63c-14.19,3.28-32.07,2.64-48.13,2.35-.5,0-1.29,1.11-1.64-.12l-.31.28c-8.7-1-20.35-1.32-29.21-3.54-4.81-2.61-10-1-13.66-3.5-1.78.67-4.43-.74-6.57-1.17-7.4-2-12.33-2.65-19.26-5.72-3.3-1.34-7.09-2.77-9.74-4.2a102.55,102.55,0,0,1-19.65-9c-1.64-.28-4.13-2.07-5.26-2.79-2.15-.86-4.3-1.91-6.29-2.94-2.65-2.21-4.81-3.42-7.46-5.26-1.65-.65-3.65-2.72-5.46-3.36-6.14-4-12.28-8.44-18.42-13.39h0c-3.14-1.26-4.66-4.15-7.48-5.72-5.69,9.09-9.22,20-12.27,30.76.6,4.47,6.36,6.42,8.7,9.8a19,19,0,0,1,4.8,3l-.33.26c1.18,1.11,3,1.26,3.51,3.1,6.61,3.62,12.11,9,18.9,12.78v.32l.82.16c1.66,1.49,3.8,2,5.14,3.5,4.42.74,7.11,3.64,10.9,5.49,1.15-.16,2.8,1.15,3.62,1.27,1.34,1.45,3.31,2,4.47,2.83,1.79-.24,3.3,1.39,4.45,2.11a72.9,72.9,0,0,0,7.09,2.66v.2a24.7,24.7,0,0,1,7.42,3c2.29.18,4.62,2.28,7.4,2.15,1.82,1,4,1.43,5.62,2.53,2.78.4,5.94,2.41,8.06,2.18,2.65,1.41,6.4,1.37,8.23,2.65,2.47,1,5.09.82,7.74,2.2,9.06,2.88,22,3.25,30.69,4.25,3.44.34,6.74.8,9.83.39,4.77,1,9.16-.26,14.08.08.8-1.17,2.79.38,3.59-1,1,.94,2,0,2.94-.13,1.8-.09,3.46.54,4.92-.22,3.28.73,6.2-.68,9.49-.52,1.48.62,4.6.58,5.89-.23.17.17.34.35.33.53l.49,0c0-.18.15-.33.32-.51,1,.23,2.45-.41,2.64.64,5.72-.81,10.51,1.07,15.76,1.52,1.27-2.59-.11-5.78.64-8.88C912.69,592.26,912.52,592.08,912.36,591.9Z" style="fill: #0a1f62"/>
    <path d="M427.38,462l0,0c-2.16-.76-4.15-2.18-6.3-3.29,0,1.25-1.11,1.63-1.59,2.47-6.18,1.84-11.19,4.72-16.69,8.1-8.75,4.71-14.5,12-23.24,17,.49.23.51.91.85,1.29.65-.14,1.31.25,1.79-.25.34.73,1.63-.09,1.49.95,1.32.26,2.79,0,4,.6v.38c2.14.65,3.94.25,5.61,2l.32-.33c.65-.31.84.76,1.5,1.16,6.57.66,8.24,10.22,15.72,7.56,3.07-1.27,5.82-3.28,9.39-4.16,1.75-2.45,5.69-1.88,7.45-4.3,4.08-.63,7.27-4.29,10.17-6.39,3-3.16,3-6.47,1.89-11.14C437.16,468,430.73,465.88,427.38,462Z" style="fill: #0a1f62"/>
    <path d="M446.18,484.64c-1.67-1.26-.56-3.23-2.22-4.47l-.48.63c.1,5.26-4.58,8.37-7.47,11-4.07,1.28-7.43,4.77-11.68,5l.33.38c-.64.46-1.63.17-2.1,1-3.94-.4-6.14,4.3-9.92,3.41-3.39,2.31-7.62,3.52-10.52,5.74-2.39,2.75-2.16,6.09-1,9,.85,1.65,4.12,1.41,5,2.69,7.62-3.17,15-2.82,21.79-7,5.86-1.49,10-5.71,15.71-7.67,3.52-4.13,3.9-9.66,3.8-14.9C447.06,487.87,445.72,486.14,446.18,484.64Z" style="fill: #0a1f62"/>
    <path d="M551.15,507.73a39.54,39.54,0,0,0-5.38.59l-.18-.39c-1.44,1.33-3.58.42-5,1-1,.74-3.26.14-2.57,2.36,7.1,3,4.62,10.25,5.21,15.05.35,1,.69,1.36,1.5,1.33,8.08-4.68,18.44-9.57,19-21.14h0C559.62,507,554.87,506.3,551.15,507.73Z" style="fill: #0a1f62"/>
    <path d="M715.05,555.6c-1.95-.53-3-2.3-4.45-2.72-1.35-1.83-3.33-2.72-5.15-4.09h0a38.81,38.81,0,0,0-5.32-4.48c-1.84-1.91-3.87-5.61-6.32-5.52-2.18,5.53,1.1,14.35,5.78,19.56,6.34,5.72,14.86,6.55,20.82,3.06C721.15,558.23,715.93,558.35,715.05,555.6Z" style="fill: #0a1f62"/>
    <path d="M552.07,528.67c-5,1.55-7.9,4.86-13.11,6.38,0,.23,0,.46,0,.69-2.61.78-4.51,3.22-6.27,5.2-.27,2.93-.71,4.77.47,7.25s2.35,2.85,4.5,3.91l6.4,1c3.78,1.19,5.65-2.83,9.46-.57,1.43-1.84-.42-4.8-.46-6.69-.81-7,2.35-12.85,3.68-19.42A12.24,12.24,0,0,0,552.07,528.67Z" style="fill: #0a1f62"/>
    <path d="M905.38,602.39l-.15.34-.67-.7c-2.77.93-6.88.43-9.51,0-3.27.21-5.4.63-8.84.81-3,4.21-4.87,9.7-7.91,13.69-.12,1.75-2.88,3.34-.55,5.06,2.75-2.1,5.5-4.4,8.74-5.81l1,.39c6.17-2.1,15-2.11,21.71-4.24a6.47,6.47,0,0,0,3.67-5C911.81,604,908,603.5,905.38,602.39Z" style="fill: #0a1f62"/>
    <path d="M895.3,637.85c-2.49-1.87-4-4.39-5.54-6.56-.09-4.17.47-8.72,4.21-10.46,1.13-.83-.54-1.77-.88-2.28-5.52,2-11.9,2.89-15.73,7.71-.44,2.77-1.72,4.24.46,6.65l-.31.35c2.49,1.54,4.35,4.79,8.31,5.71.67.91,2.28-.24,2.48,1.16.82.06,2.12-.24,3,.32v.34a17.62,17.62,0,0,0,6.71-.58C898.92,638.15,896.46,638.38,895.3,637.85Z" style="fill: #0a1f62"/>
    <path d="M718.34,539.5l2.16-17.15-3.22-2.24Q709.15,529,701,537.79l4.57,3.21,9.53-10.9.06,0q-1.24,8.08-2.5,16.18l1.58,1.09q6.45-4.47,12.91-9l.06,0q-2.81,6.85-5.6,13.69l4.58,3.15q4.41-11.44,8.84-22.91l-3.29-2.27Q725.06,534.83,718.34,539.5Z" style="fill: #fff"/>
    <path d="M731.73,558.62l5.06,2.77,3.94-3.5v0l8.55,4.65,0,5.6,5.12,2.77q0-13.73,0-27.45l-3.73-2Q741.2,550.09,731.73,558.62Zm17.66-.28-5.85-3.16q3-3.23,6-6.47l.07,0Z" style="fill: #fff"/>
    <path d="M760.26,573.49l4.93,2.2q3.52-11.48,7-23l-4.93-2.18Q763.79,562,760.26,573.49Z" style="fill: #fff"/>
    <path d="M792.56,577.31l-.07,0q-5.31-10.59-10.62-21.23l-3.63-1.18-4.41,24.65,5,1.68q1.47-8.16,2.92-16.33l.07,0q5.31,10.62,10.62,21.21l3.62,1.17,4.38-24.58-5-1.58Z" style="fill: #fff"/>
    <path d="M804.37,567.59l5.27,1q-.37,10.37-.76,20.72l5.12.91.75-20.72,5.28.95c.05-1.42.11-2.85.16-4.27q-7.85-1.35-15.68-2.79Z" style="fill: #fff"/>
    <path d="M833.14,567.35q-5,12.25-10.08,24.46l5.38.7c.71-1.67,1.41-3.34,2.12-5q4.56.59,9.11,1.13l2,5.53,5.46.62q-5-13.46-10-26.95ZM832,583.7c1-2.93,1.89-5.86,2.84-8.8h.06q1.67,4.77,3.32,9.55Z" style="fill: #fff"/>
    <path d="M851.62,569.87q.63,12.6,1.27,25.21l5.11.31q-.64-12.61-1.27-25.22Z" style="fill: #fff"/>
    <path d="M880.48,570.3q1,8.46,2,16.93l-.07,0q-7.9-8.58-15.81-17.3L863,570q1.56,12.93,3.1,25.87c1.7,0,3.39,0,5.09-.09q-1-8.55-2.06-17.09l.06,0q7.92,8.69,15.84,17.25l3.63-.13q-1.53-12.81-3.07-25.63Z" style="fill: #fff"/>
    <path d="M754.63,474.22h-.06q-5-8.65-10-17.35l-2.9.24q-.12,9-.22,18.11h-.07q-4.9-8.54-9.81-17.1l-5.18.35q7.56,12.78,15.12,25.53l3.61-.25q.12-8.52.25-17l0,0q4.77,8.16,9.55,16.3l3.63-.29Q759.3,469.38,760,456l-5.16.42Q754.76,465.33,754.63,474.22Z" style="fill: #fff"/>
    <path d="M772.11,477.68c-.36-2.3-.71-4.6-1.07-6.9l8,.19c-.22-1.45-.45-2.9-.67-4.34l-8-.2-.87-5.59h0c2.78.07,5.56.14,8.34.19-.23-1.44-.45-2.89-.68-4.34q-6.69-.13-13.38-.33,2,12.75,4,25.51,6.71.19,13.42.34c-.24-1.45-.47-2.9-.7-4.35Z" style="fill: #fff"/>
    <path d="M815.6,483.63l-.06,0q-.84-9.19-1.66-18.39l-3-1q-4.38,7.41-8.77,14.8l-.06,0h0q-.8-9-1.58-18l-5.25-1.85q1.4,13.56,2.8,27.12l3.69,1.31q4.13-6.93,8.26-13.9l.06,0q.84,8.66,1.67,17.3l3.69,1.27q7-10.68,14.05-21.45L824.24,469Q819.92,476.36,815.6,483.63Z" style="fill: #fff"/>
    <path d="M825,495.6l4.9,2q3.66-11.56,7.32-23.17-2.46-1-4.91-2Q828.6,484.05,825,495.6Z" style="fill: #fff"/>
    <path d="M841.38,476.18q-4.14,11.42-8.29,22.79,5.86,2.63,11.72,5.19c.47-1.29.94-2.58,1.4-3.87l-6.86-3q3.43-9.48,6.88-19Z" style="fill: #fff"/>
    <path d="M859.72,487,855,484.68q-4.68,10.27-9.35,20.52,5.7,2.93,11.39,5.79l1.71-3.74-6.67-3.37v0Z" style="fill: #fff"/>
    <path d="M757.71,418.33c0-5.08-3.36-7.8-8.25-8.72l-6.52-1.26q.06,10.56.11,21.12l4.82.91q-.07-3.42-.14-6.82h.06l4.94,7.83,5.84,1.07L752.64,424C756,424.12,757.71,421.4,757.71,418.33Zm-9.36,2.07-.62-.12q0-3.6,0-7.2l.65.12c2.56.48,4.5,1.43,4.49,4.39S751,420.93,748.35,420.4Z" style="fill: #fff"/>
    <path d="M765.29,409.58l.06,23.93,4.38.77-.06-23.93Z" style="fill: #fff"/>
    <path d="M784.24,422.46c0,1.27,0,2.53,0,3.8l4.77.73a4.49,4.49,0,0,1-5,4.66c-4.24-.65-6.42-5.41-6.46-9.37s2-8.24,6.22-7.59a7.17,7.17,0,0,1,5.18,4.56l3.84-1.65a11.89,11.89,0,0,0-8.95-7c-6.7-1-10.9,4.15-10.82,11,.08,6.61,4.29,13.2,10.86,14.19,7,1.07,10.15-4.46,10.07-11.24v-.6C790.7,423.44,787.47,423,784.24,422.46Z" style="fill: #fff"/>
    <path d="M808.59,413.08c.1,3.16.21,6.32.31,9.48l-8.1-.94-.33-9.44-4.38-.53.81,24.05,4.38.51c-.12-3.58-.25-7.16-.37-10.74l8.12.92c.12,3.59.24,7.17.35,10.76l4.4.45-.81-24Z" style="fill: #fff"/>
    <path d="M832.78,415.44q-6.71-.44-13.41-.94c.08,1.36.15,2.73.23,4.09l4.52.34,1.14,19.95,4.36.31q-.55-10-1.13-20l4.52.3C832.93,418.15,832.86,416.8,832.78,415.44Z" style="fill: #fff"/>
    <path d="M844.43,423.46a2.41,2.41,0,0,1,2.59-2.55,4.54,4.54,0,0,1,3.47,2.16l1.89-3.15a10.08,10.08,0,0,0-6.27-3c-3.78-.19-6.37,2.84-6.16,6.82.19,3.74,2.38,5.41,5.33,6.86,1.79.81,4,1.63,4.1,4.11.11,1.86-.91,3.42-2.7,3.33s-3.54-1.86-4.23-3.73l-2.67,2.76c1.69,2.89,4.05,4.93,7.15,5.11,4.58.25,7.2-3,7-7.81C853.45,426.3,844.65,427.51,844.43,423.46Z" style="fill: #fff"/>
    <path d="M559.48,557.93l1.62,26.53,4.19-1.19c-.09-1.82-.19-3.63-.28-5.44l7.1-2,3.53,4.56,4.26-1.15q-8.65-11.12-17.33-22.2Zm4.09,6.56,5.95,7.92-4.86,1.34-1.14-9.24Z" style="fill: #fff"/>
    <path d="M578.68,545.62l10.72,13.62,0,0q-9.75-3.5-19.49-7l-2.21,1.9q8.19,10.37,16.38,20.76l3.06-2.68q-5.4-6.87-10.82-13.71l0-.05,19.48,7,2.22-1.9q-8.14-10.33-16.28-20.63Z" style="fill: #fff"/>
    <path d="M604.28,533.33c-5.18-5.1-11.68-5.77-15.46-1L585.17,537q9.11,8.92,18.22,17.9c1.21-1.54,2.41-3.08,3.62-4.61C610.75,545.54,609.4,538.34,604.28,533.33Zm-1,14.73-.42.51q-6-5.91-12-11.81l.42-.53c2.91-3.65,6.42-3.49,10.39.39C605.23,540.18,606.43,544.08,603.27,548.06Z" style="fill: #fff"/>
    <path d="M622.85,496.31c-5.69-4.11-12.62-3.78-15.45,1.92s.2,13.26,5.88,17.36c5.83,4.22,12.69,3.82,15.51-1.87S628.67,500.53,622.85,496.31Zm2,14.59c-1.6,3.22-6.74,2.85-9.8.65-3.3-2.37-5.42-7.17-3.77-10.49s6.14-3.32,9.44-.92C623.81,502.34,626.48,507.67,624.88,510.9Z" style="fill: #fff"/>
    <path d="M634,477.65l-12.36-8.34c-.57,1.3-1.15,2.6-1.73,3.9L631.46,481c2.54,1.72,6,4.35,4.58,7.65s-5.16,1.12-7.71-.6l-11.56-7.78L615,484.18h0l12.35,8.32c5,3.4,9.76,3.92,12.15-1.46S639,481,634,477.65Z" style="fill: #fff"/>
    <path d="M633.36,454.61c-4.49-2.77-7.41-1.07-9,3l-2.07,5.44L643.39,476c.5-1.34,1-2.68,1.52-4l-8.48-5.22v0l10.4.17c.62-1.63,1.23-3.26,1.85-4.88l-11.09.4C638.17,459.35,636,456.25,633.36,454.61Zm.38,9.86-.19.53-6.34-3.86.21-.56c.81-2.15,1.93-3.46,4.52-1.85S634.59,462.29,633.74,464.47Z" style="fill: #fff"/>
    <path d="M441.6,516.42q2,9,4,18l-.05,0q-6.74-7.41-13.49-14.74l-2.65,1.07L433.53,539l0,0q-6.59-7.2-13.19-14.31l-4.7,1.87q10.05,10.54,20.11,21.28l3.31-1.28q-1.93-8.61-3.86-17.22l.06,0q6.39,6.9,12.78,13.86l3.29-1.22q-2.47-13.65-5-27.29Z" style="fill: #fff"/>
    <path d="M463.17,530.4l-3.49-6.48,7.1-2.69-2.18-4.07-7.1,2.71-2.84-5.25,7.38-2.84-2.18-4.06Q453.94,510,448,512.3q6.45,11.9,12.88,23.86,5.91-2.26,11.83-4.47l-2.19-4.06Z" style="fill: #fff"/>
    <path d="M486.77,502.43c-3.35-5.27-7.54-5.79-12.08-3.56L469,501.69q7.41,11.54,14.81,23.16l4.23-2v0l-5.55-8.71,2.09-1C489,511,489.93,507.36,486.77,502.43ZM480.91,510l-.86.43-4.47-7,.74-.36c2.35-1.16,4.24-1.51,6.14,1.47S483.41,508.76,480.91,510Z" style="fill: #fff"/>
    <path d="M502.27,495.47c-3-5.07-7.25-5.86-11.63-4L484.8,494q7,11.79,14,23.65l4.31-1.81q-2.82-4.8-5.65-9.58l.06,0q5.52,3.63,11,7.29l5.22-2.18q-6.09-3.72-12.17-7.41C504.29,502.18,504.05,498.47,502.27,495.47Zm-6.14,7.33-.56.24-4.22-7.12.58-.25c2.3-1,4.37-1.17,6.09,1.76S498.51,501.8,496.13,502.8Z" style="fill: #fff"/>
    <path d="M500.42,484.76q6.66,12,13.33,24.1l4.41-1.64q-6.67-12.11-13.34-24.15Z" style="fill: #fff"/>
    <path d="M524.67,500.41q-.1-11.81-.22-23.63-7.86,2.55-15.72,5.17,1.06,2.07,2.11,4.14l8.59-2.83.21,23.64q8.36-2.73,16.72-5.4l-2.11-4.16Z" style="fill: #fff"/>
    <path d="M543.14,494.43l-3-6.77,7.36-1.77c-.61-1.41-1.23-2.83-1.85-4.24l-7.37,1.8-2.43-5.53h0l7.68-1.85c-.63-1.41-1.25-2.83-1.87-4.24q-6.15,1.47-12.31,3,5.49,12.48,11,25,6.15-1.5,12.31-3-.95-2.12-1.87-4.25Z" style="fill: #fff"/>
    <path d="M391.13,456.62l-3.21-20.38-5,.59q2.5,13.92,5,27.85,5.66-2.69,11.32-5.3-.94-3.72-1.87-7.44Z" style="fill: #fff"/>
    <path d="M398.5,426.94q2.25,14,4.48,28l5-.41q-2.25-14-4.48-27.94Z" style="fill: #fff"/>
    <path d="M424.28,431.61c1.43-1.19,2.39-4.76,2.07-6.78-.87-5.58-5.05-5-9.85-4.77l-6.27.41,4.35,28c2.68-.55,5.36-1.1,8.05-1.63,4.26-1.55,8.3-3.67,7.45-9.2A6.92,6.92,0,0,0,424.28,431.61Zm-7.19.2v0L416,424.56l.65-.06c2.13-.11,3.76.54,4.2,3.41s-.64,3.73-3.1,3.86Zm3.05,10.31-1.24.28-1.17-6.4.83-.06c2.53-.15,5.15-1.79,5.72,1.84S422.34,440.34,420.14,442.12Z" style="fill: #fff"/>
    <path d="M440.57,434.32c-.49-2.52-1-5.05-1.48-7.57q4-1.22,8-2.39l-.93-4.8L438.16,422c-.4-2.06-.81-4.12-1.21-6.19h0c2.75-.78,5.5-1.54,8.26-2.3-.31-1.59-.63-3.18-.94-4.77q-6.63,1.35-13.27,2.78,2.76,14,5.53,28.05,6.63-1.81,13.25-3.56c-.31-1.59-.62-3.18-.94-4.77Z" style="fill: #fff"/>
    <path d="M468.11,413.34c-.91-6-4.82-8.47-9.94-8.34-2.28.05-4.56.12-6.83.19q2.15,14.08,4.3,28.2l5-.13q-.87-5.68-1.73-11.38H459q4,5.61,8,11.26c2,0,4.07-.07,6.11-.09q-4.56-5.91-9.12-11.79C467.39,420.56,468.67,416.93,468.11,413.34ZM459,418l-.65,0c-.43-2.85-.87-5.69-1.3-8.53h.69c2.68-.05,4.81.59,5.34,4.06S461.79,418,459,418Z" style="fill: #fff"/>
    <path d="M485.3,401.69q-7.69.29-15.38.65c.28,1.59.57,3.18.85,4.77l5.19-.23q2.09,11.72,4.19,23.43l5-.2L481,406.67l5.18-.2C485.86,404.88,485.58,403.29,485.3,401.69Z" style="fill: #fff"/>
    <path d="M493.2,400.47q1.56,14.13,3.14,28.27l5.08.26q-1.57-14.13-3.14-28.27Z" style="fill: #fff"/>
    <path d="M513.37,423.88c-.12-2.53-.23-5.06-.35-7.59,2.71.36,5.42.74,8.13,1.11-.07-1.59-.15-3.19-.22-4.78l-8.13-1.12c-.1-2.06-.19-4.13-.29-6.2h0l8.44,1.18c-.07-1.6-.14-3.19-.2-4.78-4.52-.64-9-1.25-13.56-1.86q.66,14.07,1.3,28.15,6.78.88,13.55,1.83l-.21-4.76Z" style="fill: #fff"/>
    <path d="M537,406.92a6.17,6.17,0,0,1,3.65,3.49l2.79-2.91a13.72,13.72,0,0,0-6.78-5.31c-4.39-1.43-8,1.21-8.49,5.72-.46,4.18,1.8,6.74,5,9.23,1.94,1.51,4.34,3.09,4,5.9-.23,2.07-1.71,3.48-3.78,2.82s-3.8-3.12-4.27-5.45l-3.63,2.3c1.43,3.69,3.83,6.68,7.41,7.85,5.32,1.7,9-1.11,9.6-6.53,1-9.1-9.53-10.49-9-15.08A2.56,2.56,0,0,1,537,406.92Z" style="fill: #fff"/>
    <path d="M393.93,346.86c-5.85.41-9.23,6.63-8.42,13.34s5.6,12.29,11.47,11.88,9.24-6.42,8.4-13.32C404.58,352.07,399.79,346.43,393.93,346.86Zm2.49,20.62c-3.33.23-6.44-4.2-6.88-7.82-.47-3.85,1.51-8,4.95-8.22s6.36,3.51,6.83,7.4C401.75,362.46,399.75,367.24,396.42,367.48Z" style="fill: #fff"/>
    <path d="M421.6,339.89l-4.36.1q.87,6.74,1.72,13.47c.39,3,.68,7.16-3,7.28s-4.47-4.06-4.85-7q-.86-6.73-1.72-13.47l-4.35.15v0q.93,7.18,1.85,14.38c.74,5.88,3.62,10.22,9.59,10s7.71-4.62,7-10.49Z" style="fill: #fff"/>
    <path d="M439.62,341c-.83-5.15-4.2-7.1-8.56-6.87q-2.93.15-5.84.33,1.92,12,3.86,24l4.32-.22-1.56-9.71h.05l6.93,9.41,5.23-.22h0l-7.88-9.86C439.05,347.23,440.1,344.09,439.62,341Zm-7.75,4.26-.57,0c-.38-2.42-.77-4.84-1.15-7.26l.58,0c2.3-.11,4.12.36,4.59,3.35S434.25,345.16,431.87,345.27Z" style="fill: #fff"/>
  </g>
</svg>
