<svg xmlns="http://www.w3.org/2000/svg" viewBox="0 0 1260 1012.04">
  <g>
    <path d="M0,90.08v920C420,738.76,840,1193.28,1260,922V2C840,273.28,420-181.24,0,90.08Z" style="fill: #000f5d"/>
    <path d="M799.73,207.31q-4.1-15-8.18-30.07l-8.83,27.23q-13.41-2.24-26.81-4.69,10.46,11.15,20.92,22.16l-7.47,26.31q11-6.33,21.92-12.8,11.06,10,22.11,19.76l-7.59-28.36q10.47-7.74,20.93-15.64Q813.23,209.41,799.73,207.31Z" style="fill: #d59f0f"/>
    <path d="M917.51,334.51q-4.1-14.53-8.19-29.12-4.41,14.13-8.83,28.2-13.4-.76-26.8-2,10.45,10.15,20.91,20.06l-7.46,27.08q11-7.42,21.91-15.15,11.06,8.73,22.11,17.14-3.79-13.69-7.58-27.43,10.45-9,20.92-18.27Q931,335,917.51,334.51Z" style="fill: #d59f0f"/>
    <path d="M980,500.12q-4.1-14.17-8.19-28.42-4.41,14.51-8.83,28.94-13.39.33-26.8.14,10.45,9.38,20.91,18.44-3.74,13.86-7.46,27.68,11-8.29,21.91-16.94,11.05,7.78,22.11,15.2-3.79-13.35-7.58-26.75,10.46-9.91,20.92-20.18Q993.52,499.48,980,500.12Z" style="fill: #d59f0f"/>
    <path d="M852.56,538.45l-8.19-29.7q-4.41,13.82-8.83,27.6-13.41-1.68-26.8-3.67,10.46,10.79,20.91,21.37l-7.47,26.61q11-6.75,21.92-13.69,11.05,9.48,22.11,18.74-3.8-14-7.58-28,10.46-8.22,20.92-16.67Q866.05,539.94,852.56,538.45Z" style="fill: #d59f0f"/>
    <path d="M955.75,684.38q-4.1-14.34-8.19-28.71-4.41,14.34-8.83,28.64-13.4-.13-26.8-.74,10.46,9.7,20.91,19.11-3.74,13.74-7.46,27.43,10.95-7.93,21.91-16.19,11.06,8.16,22.11,16-3.79-13.5-7.58-27,10.45-9.52,20.92-19.39Q969.24,684.21,955.75,684.38Z" style="fill: #d59f0f"/>
    <path d="M861.32,821.77q-4.1-14.79-8.18-29.63l-8.83,27.67q-13.41-1.57-26.81-3.46Q828,827,838.42,837.56q-3.74,13.35-7.47,26.66,11-6.83,21.92-13.86,11.05,9.4,22.11,18.55Q871.19,855,867.39,841q10.47-8.31,20.93-16.85Q874.82,823.14,861.32,821.77Z" style="fill: #d59f0f"/>
    <path d="M789.2,694.08,781,664q-4.41,13.6-8.83,27.17-13.39-2.32-26.8-4.85,10.46,11.19,20.91,22.27-3.74,13.14-7.46,26.27,10.95-6.25,21.91-12.65,11.06,10,22.11,19.92-3.79-14.19-7.58-28.41,10.46-7.67,20.92-15.47Q802.69,696.28,789.2,694.08Z" style="fill: #d59f0f"/>
    <path d="M720.74,887.66q-4.1-15.21-8.18-30.42-4.42,13.44-8.84,26.87-13.4-2.76-26.8-5.61,10.46,11.44,20.91,22.85-3.72,13-7.46,26,11-6,21.92-12,11.06,10.44,22.11,20.77l-7.59-28.72q10.47-7.25,20.93-14.59Q734.24,890.37,720.74,887.66Z" style="fill: #d59f0f"/>
    <path d="M551.2,851.58,543,821.15q-4.41,13.44-8.83,26.91-13.39-2.64-26.8-5.13,10.46,11.16,20.91,22.43-3.74,13.08-7.46,26.16,10.95-6.15,21.91-12.18,11.06,10.41,22.11,20.91-3.79-14.41-7.58-28.81,10.46-7.16,20.92-14.24Q564.69,854.33,551.2,851.58Z" style="fill: #d59f0f"/>
    <path d="M490.72,633.87q-4.1-15.11-8.18-30.19-4.43,13.59-8.84,27.2-13.4-2.21-26.8-4.14,10.46,10.72,20.91,21.64-3.72,13.2-7.46,26.42,11-6.54,21.92-12.92,11.06,10.08,22.11,20.29l-7.59-28.61q10.47-7.44,20.93-14.75Q504.22,636.25,490.72,633.87Z" style="fill: #d59f0f"/>
    <path d="M410.33,740.08q-4.09-14.83-8.19-29.65-4.41,13.88-8.83,27.78-13.4-1.28-26.8-2.17Q377,746,387.42,756.13q-3.74,13.47-7.46,27,10.95-7.35,21.91-14.45Q412.93,778,424,787.57q-3.78-14.1-7.58-28.17,10.46-8.07,20.92-15.94Q423.84,741.62,410.33,740.08Z" style="fill: #d59f0f"/>
    <path d="M317.68,592.4q-4.1-14.4-8.18-28.76-4.42,14.36-8.83,28.78-13.41.26-26.81,1,10.45,8.61,20.91,17.56-3.72,13.9-7.46,27.85,11-8.67,21.92-17,11.06,8.11,22.11,16.57-3.79-13.71-7.59-27.38,10.47-9.17,20.93-18.05Q331.18,592.49,317.68,592.4Z" style="fill: #d59f0f"/>
    <path d="M296.8,409.07q-4.1-14.28-8.19-28.52l-8.83,29.05q-13.39.67-26.8,1.9,10.46,8.26,20.91,16.88-3.74,14-7.46,28.08,10.95-9,21.91-17.65,11.06,7.79,22.11,15.93-3.79-13.61-7.58-27.17,10.45-9.46,20.92-18.63Q310.31,408.76,296.8,409.07Z" style="fill: #d59f0f"/>
    <path d="M426.69,459.67q-4.1-14.91-8.19-29.79l-8.83,27.65q-13.4-1.5-26.8-2.63,10.45,10.11,20.91,20.45-3.73,13.39-7.46,26.83,10.95-7.15,21.91-14.08,11.06,9.51,22.11,19.25-3.78-14.16-7.58-28.28,10.47-7.9,20.92-15.64Q440.2,461.39,426.69,459.67Z" style="fill: #d59f0f"/>
    <path d="M360.69,244.49l-8.18-29.22q-4.42,14.11-8.84,28.28-13.4-.53-26.8-.58,10.45,9.27,20.91,18.83-3.72,13.68-7.46,27.4,11-8,21.92-15.7,11.06,8.75,22.1,17.77-3.78-13.9-7.58-27.78,10.47-8.61,20.93-17Q374.19,245.31,360.69,244.49Z" style="fill: #d59f0f"/>
    <path d="M479.19,143.43q-4.1-15.08-8.19-30.12-4.41,13.62-8.83,27.26-13.41-2.08-26.8-3.9,10.45,10.64,20.91,21.45-3.73,13.24-7.46,26.49,10.95-6.63,21.91-13.1,11.06,10,22.11,20.13-3.79-14.28-7.58-28.56,10.46-7.5,20.92-14.88Q492.68,145.71,479.19,143.43Z" style="fill: #d59f0f"/>
    <path d="M639.75,127.83l-8.19-30.55q-4.41,13.36-8.83,26.75-13.4-2.91-26.8-5.8,10.46,11.47,20.91,23-3.74,13-7.46,26l21.91-11.73q11.06,10.6,22.11,21.18-3.79-14.43-7.58-28.88,10.45-7,20.92-14.09Q653.24,130.78,639.75,127.83Z" style="fill: #d59f0f"/>
    <path d="M686.1,359.43l4.91,4.85c26.4-35.65,52.81-71.58,79.21-108.16l-4.89-4.64C738.92,288,712.51,323.82,686.1,359.43Z" style="fill: #d59f0f"/>
    <path d="M697.34,399.92l2.16,6.61c61.36-13.11,122.72-27.92,184.07-49l-2.19-6.33C820,372.13,758.69,386.86,697.34,399.92Z" style="fill: #d59f0f"/>
    <path d="M702,448.9c74.61,25.22,149.22,47.83,223.83,59.68q.36-3.27.74-6.52c-74.62-11.79-149.25-34.37-223.87-59.59C702.44,444.61,702.21,446.76,702,448.9Z" style="fill: #d59f0f"/>
    <path d="M640.14,732.78,632,702.23q-4.41,13.38-8.83,26.76-13.41-2.91-26.8-5.8l20.91,23q-3.74,13-7.46,26,11-5.88,21.91-11.73l22.11,21.18q-3.79-14.43-7.58-28.88l20.92-14.09Q653.63,735.74,640.14,732.78Z" style="fill: #d59f0f"/>
    <path d="M643.65,260.06q-5.76-21.48-11.53-43l-12.45,37.74q-18.9-4.17-37.8-8.26,14.75,16.14,29.48,32.35-5.25,18.33-10.51,36.67,15.46-8.28,30.92-16.5,15.56,14.9,31.1,29.76l-10.68-40.68q14.75-9.9,29.48-19.86Q662.66,264.23,643.65,260.06Z" style="fill: #d59f0f"/>
    <path d="M584.81,354.27c-.63,31-31.62,40.67-1.15,91.21a1.29,1.29,0,0,0,.19.32q13.35,2.86,26.7,5.79C575.42,406,605,399.6,584.81,354.27Z" style="fill: #d59f0f"/>
    <path d="M624.41,378.37c1.65-10.44-3.69-17.26-9.36-33.18,1.51,13.37-9.39,28-12.58,44.5s4.3,44.54,15,63.41l35,7.66c41.26-40.7-21.14-84.72,26.66-114.23C652.54,342.29,632.94,352.36,624.41,378.37Z" style="fill: #d59f0f"/>
    <path d="M688.08,422.78c2.33-5,3.32-11.19,2.5-19.22-4.75-19.15,6-16.87,4.42-32.05-44,13.15,4.28,49.14-33.68,91.19l-.65-.14q7.76,1.68,15.52,3.33c31.58-20.22,17.52-42.11,30.61-61C701.27,408.19,692.56,417.72,688.08,422.78Z" style="fill: #d59f0f"/>
    <path d="M609,559.48q22.95,5,45.89,10.08c1.69-46.68,10.88-59,28.3-75-33.8-7.25-71.58-15.68-102.32-22.23C598.23,495.77,607.41,512.11,609,559.48Z" style="fill: #d59f0f"/>
    <path d="M618.33,722.33l13.47-43q6.69,24.43,13.37,48.86,3.71-67.35,7.39-134.71-20.65-4.56-41.32-9.09Q614.8,653.37,618.33,722.33Z" style="fill: #d59f0f"/>
    <path d="M620.53,777.7q1.79,40.23,3.56,80.46s1.58,19.81,7.49,27.16h0c5.9-4.7,7.58-23.86,7.58-23.86Q641,822,642.85,782.59l-11.15-11Z" style="fill: #d59f0f"/>
    <path d="M572.54,462.13c39.62,8.4,79.24,17.4,118.86,25.76l0-12.36c-39.62-8.36-79.25-17.35-118.88-25.75Q572.54,455.95,572.54,462.13Z" style="fill: #d59f0f"/>
    <path d="M599.76,577.84c20.9,4.54,41.8,9.17,62.7,13.7l0-15.33c-20.9-4.55-41.8-9.19-62.7-13.74Z" style="fill: #d59f0f"/>
    <path d="M336.23,410.63l.75,6.56c74.61-7.46,149.22-4.27,223.83,1.43q-.36-3.36-.7-6.72C485.48,406.22,410.86,403.08,336.23,410.63Z" style="fill: #d59f0f"/>
    <path d="M379.5,270.86c61.36,30.84,122.72,67.84,184.08,106.48l2.16-5.7C504.39,333,443,295.87,381.7,264.89Q380.61,267.88,379.5,270.86Z" style="fill: #d59f0f"/>
    <path d="M493.49,199.61q39.6,68.83,79.21,139.17l4.91-2.78Q538,265.81,498.38,196.71Z" style="fill: #d59f0f"/>
    <path d="M628.08,353.18l6,1.32q0-22.5,0-45l-6-1.29Q628.1,330.7,628.08,353.18Z" style="fill: #d59f0f"/>
    <path d="M539.93,223.89q13,9.92,26,19.94c.6-1.16,1.2-2.33,1.81-3.49q-13-10-26-20C541.13,221.55,540.53,222.72,539.93,223.89Z" style="fill: #d59f0f"/>
    <path d="M562.79,195.18l17,21.62a12.71,12.71,0,0,0-1.2-.71c-.45-.23-1-.46-1.49-.68q-12.37-5.34-24.76-10.58l-3,2.8q10.51,13.27,21,26.61l2.62-2.42q-8.52-10.81-17-21.59c.4.26.78.5,1.16.71s.77.39,1.16.55q12.59,5.31,25.17,10.71l3-2.76q-10.52-13.37-21-26.69Z" style="fill: #d59f0f"/>
    <path d="M601.68,184.57a11.68,11.68,0,0,0-10-2.17l-10.37,2.21,10.62,32.1,10.22-2.16q5.63-1.19,7.31-6.18t-.88-12.85Q606,187.95,601.68,184.57Zm4.11,21.67a6.21,6.21,0,0,1-5.14,4.42L594.29,212l-8.1-24.47,6.36-1.36a8,8,0,0,1,7.17,1.82q3.16,2.67,5.1,8.54Q606.84,202.67,605.79,206.24Z" style="fill: #d59f0f"/>
    <path d="M642.84,187.72,626.67,213.4l4,1.73,4.71-7.73,11.3,4.84c.47,3.45.93,6.89,1.4,10.33l4.22,1.81-5.19-34.81Zm-5.58,16.67L644.19,193l2,15.25Z" style="fill: #d59f0f"/>
    <path d="M676.8,248,679,252.3l9-.29,6.13,12q-2.88,3.38-5.74,6.76l2.29,4.47q9.46-11.59,18.93-23.23l-2.33-4.54Q692.07,247.79,676.8,248Zm19.63,13.33q-2.41-4.73-4.85-9.45l13.36-.5Q700.68,256.39,696.43,261.36Z" style="fill: #d59f0f"/>
    <path d="M617.07,181.18l2.31,32.41,4,.52L621,181.7Z" style="fill: #d59f0f"/>
    <path d="M687.7,219.23q-6.69,9.28-13.39,18.56a9.07,9.07,0,0,0,.21-1.33q.08-.75.09-1.65.36-13.74.74-27.48l-3.59-3.46q-8.26,11.43-16.52,22.85l3.11,3,13.39-18.53c-.09.44-.17.87-.23,1.28s-.08.86-.09,1.28l-.66,28,3.55,3.43q8.27-11.44,16.52-22.91Z" style="fill: #d59f0f"/>
  </g>
</svg>
