<svg xmlns="http://www.w3.org/2000/svg" xmlns:xlink="http://www.w3.org/1999/xlink" viewBox="0 0 1260 1012.04">
  <defs>
    <clipPath id="a">
      <path d="M0,90.08C183.63-28.55,367.26-8.42,550.89,29.13V632.49C367.26,594.94,183.63,574.81,0,693.44Z" style="fill: none"/>
    </clipPath>
  </defs>
  <g>
    <path d="M0,90.08v920C420,738.76,840,1193.28,1260,922V2C840,273.28,420-181.24,0,90.08Z" style="fill: #bf0a30"/>
    <g style="clip-path: url(#a)">
      <path d="M0,90.08c182.11,81.81,364.23,300.09,546.34,536.49M0,688.45C182.11,371.35,364.23,190.71,546.34,28.2"/>
      <path d="M273.17,385c78.18,81,156.36,176.25,234.54,276.38,25.75-23.43,51.51-46.33,77.26-69C506.79,490,428.61,389.46,350.44,300.09,428.61,218.21,506.79,147.5,585,78.58Q565.67,53.29,546.34,28.2C520.59,23,494.83,18.11,469.08,14c-65.3,61-130.61,126.4-195.91,201.78C207.87,148.07,142.57,90.35,77.26,48A573.08,573.08,0,0,0,0,90.08H0V174.7C65.3,204,130.6,250.92,195.91,309.89,130.6,394,65.3,490.12,0,603.83v84.62q19.32,8.67,38.63,19.36C116.81,579.71,195,475.22,273.17,385Z" style="fill: #fff"/>
      <path d="M0,90.08c182.11,81.81,364.23,300.09,546.34,536.49M0,688.45C182.11,371.35,364.23,190.71,546.34,28.2"/>
      <path d="M273.17,363.82c81.4,84.34,162.8,184.12,244.2,288.78q29-26.22,58-51.75c-81.4-106.37-162.8-210.38-244.2-301.45,81.4-87.23,162.8-161.53,244.2-233.45Q560.83,47,546.34,28.2c-19.31-3.92-38.63-7.63-58-11C416.65,83.26,344.91,154.07,273.17,236.89,201.43,162.55,129.69,100.22,58,57.11A580.18,580.18,0,0,0,0,90.08v63.46c71.74,32.23,143.48,85.64,215.22,153C143.48,396.33,71.74,500.06,0,625v63.47Q14.49,695,29,702.6C110.37,567.19,191.77,457.78,273.17,363.82Z" style="fill: #002868"/>
      <path d="M38.58,151.2q8-10.75,16.05-21.18-5-1.46-9.92-2.78Q41.65,139.2,38.58,151.2Z" style="fill: #fff"/>
      <path d="M70.69,135.05q-3.06-8.91-6.13-17.79-5,6.33-9.93,12.76Q62.67,132.38,70.69,135.05Z" style="fill: #fff"/>
      <path d="M28.65,123.27q8,1.82,16.06,4,1.89-7.39,3.79-14.76Q38.59,117.63,28.65,123.27Z" style="fill: #fff"/>
      <path d="M48.5,112.48q-1.89,7.36-3.79,14.76,5,1.33,9.92,2.78,5-6.44,9.93-12.76-1.91-5.48-3.79-11Q54.64,109.31,48.5,112.48Z" style="fill: #fff"/>
      <path d="M60.77,106.31q1.89,5.47,3.79,11,8-10.23,16-20.13Q70.69,101.48,60.77,106.31Z" style="fill: #fff"/>
      <path d="M54.63,88.68l-6.13,23.8q6.14-3.18,12.27-6.17Q57.69,97.48,54.63,88.68Z" style="fill: #fff"/>
      <path d="M111.42,198q8-9.34,16.06-18.39c-3.31-1.54-6.62-3-9.92-4.5Q114.49,186.49,111.42,198Z" style="fill: #fff"/>
      <path d="M143.54,187.29q-3.07-9.42-6.14-18.81-5,5.49-9.92,11.08Q135.51,183.28,143.54,187.29Z" style="fill: #fff"/>
      <path d="M101.5,168.25q8,3.27,16.06,6.81,1.89-7,3.79-14.1Q111.42,164.4,101.5,168.25Z" style="fill: #fff"/>
      <path d="M133.61,156.89q1.9,5.79,3.79,11.59,8-8.88,16.06-17.48Q143.53,153.73,133.61,156.89Z" style="fill: #fff"/>
      <path d="M121.35,161q-1.91,7-3.79,14.1,4.95,2.2,9.92,4.5,5-5.59,9.92-11.08-1.89-5.8-3.79-11.59Q127.48,158.84,121.35,161Z" style="fill: #fff"/>
      <path d="M127.48,138.21q-3.06,11.35-6.13,22.75,6.14-2.11,12.26-4.07Q130.55,147.53,127.48,138.21Z" style="fill: #fff"/>
      <path d="M184.27,256.68q8-8.12,16.06-16-5-3-9.93-6Q187.34,245.68,184.27,256.68Z" style="fill: #fff"/>
      <path d="M174.35,225.45q8,4.52,16.05,9.28,1.9-6.78,3.79-13.53Q184.28,223.14,174.35,225.45Z" style="fill: #fff"/>
      <path d="M216.38,250.77q-3.06-9.86-6.13-19.69-5,4.77-9.92,9.63Q208.36,245.61,216.38,250.77Z" style="fill: #fff"/>
      <path d="M200.33,199.36q-3.08,10.9-6.14,21.84,6.13-1.2,12.27-2.26Z" style="fill: #fff"/>
      <path d="M194.19,221.2q-1.89,6.75-3.79,13.53,5,2.94,9.93,6,4.95-4.86,9.92-9.63-1.89-6.08-3.79-12.14Q200.33,220,194.19,221.2Z" style="fill: #fff"/>
      <path d="M206.46,218.94q1.89,6.06,3.79,12.14,8-7.72,16.06-15.2Q216.38,217.23,206.46,218.94Z" style="fill: #fff"/>
      <path d="M362.07,404.72q-3.06-10.53-6.13-21-5,3.68-9.92,7.41Q354,397.83,362.07,404.72Z" style="fill: #fff"/>
      <path d="M320,369.75q8,6.47,16,13.1c1.27-4.23,2.53-8.44,3.79-12.66Q330,369.85,320,369.75Z" style="fill: #fff"/>
      <path d="M330,403.36q8-6.21,16.06-12.26-5-4.16-9.93-8.25Q333,393.1,330,403.36Z" style="fill: #fff"/>
      <path d="M346,349.76q-3.07,10.2-6.14,20.43,6.14.21,12.27.52Q349.09,360.23,346,349.76Z" style="fill: #fff"/>
      <path d="M352.15,370.71q1.89,6.5,3.79,13,8-6,16.06-11.75Q362.07,371.21,352.15,370.71Z" style="fill: #fff"/>
      <path d="M339.88,370.19c-1.26,4.22-2.52,8.43-3.79,12.66q5,4.09,9.93,8.25,5-3.74,9.92-7.41-1.89-6.49-3.79-13Q346,370.41,339.88,370.19Z" style="fill: #fff"/>
      <path d="M402.81,487.94q8-5.54,16.05-11-5-4.55-9.92-9.05Q405.87,477.92,402.81,487.94Z" style="fill: #fff"/>
      <path d="M434.92,491.82q-3.07-10.76-6.13-21.49-5,3.32-9.93,6.65Q426.89,484.35,434.92,491.82Z" style="fill: #fff"/>
      <path d="M392.88,453.49q8,7.15,16.06,14.44,1.89-6.18,3.79-12.34Q402.8,454.44,392.88,453.49Z" style="fill: #fff"/>
      <path d="M418.86,435.64q-3.06,10-6.13,19.95,6.13.71,12.26,1.48Q421.93,446.35,418.86,435.64Z" style="fill: #fff"/>
      <path d="M425,457.07q1.9,6.63,3.8,13.26,8-5.34,16-10.58Q434.93,458.33,425,457.07Z" style="fill: #fff"/>
      <path d="M412.73,455.59q-1.89,6.17-3.79,12.34,5,4.5,9.92,9.05,5-3.35,9.93-6.65-1.91-6.63-3.8-13.26Q418.87,456.29,412.73,455.59Z" style="fill: #fff"/>
      <path d="M475.65,577.77q8-5.06,16.06-10-5-4.82-9.93-9.61Q478.72,567.94,475.65,577.77Z" style="fill: #fff"/>
      <path d="M465.73,542.7q8,7.66,16,15.43,1.91-6.07,3.79-12.13Q475.66,544.29,465.73,542.7Z" style="fill: #fff"/>
      <path d="M507.76,583.43q-3.06-10.9-6.13-21.8l-9.92,6.11Q499.74,575.56,507.76,583.43Z" style="fill: #fff"/>
      <path d="M497.84,548.16q1.89,6.74,3.79,13.47,8-4.93,16.06-9.78Q507.76,549.95,497.84,548.16Z" style="fill: #fff"/>
      <path d="M485.57,546q-1.89,6.06-3.79,12.13,5,4.79,9.93,9.61l9.92-6.11q-1.89-6.74-3.79-13.47Z" style="fill: #fff"/>
      <path d="M491.71,526.4q-3.07,9.79-6.14,19.6l12.27,2.16Q494.78,537.27,491.71,526.4Z" style="fill: #fff"/>
      <path d="M475.65,99.07q8-5.05,16.06-10-5-4.82-9.93-9.61Q478.72,89.24,475.65,99.07Z" style="fill: #fff"/>
      <path d="M507.76,104.73q-3.06-10.91-6.13-21.8L491.71,89Q499.74,96.85,507.76,104.73Z" style="fill: #fff"/>
      <path d="M465.73,64q8,7.66,16,15.43,1.91-6.08,3.79-12.13Q475.66,65.59,465.73,64Z" style="fill: #fff"/>
      <path d="M497.84,69.46q1.89,6.74,3.79,13.47,8-4.94,16.06-9.78Q507.76,71.24,497.84,69.46Z" style="fill: #fff"/>
      <path d="M491.71,47.7q-3.07,9.79-6.14,19.6l12.27,2.16Z" style="fill: #fff"/>
      <path d="M485.57,67.3q-1.89,6.06-3.79,12.13,5,4.78,9.93,9.61l9.92-6.11q-1.89-6.74-3.79-13.47Z" style="fill: #fff"/>
      <path d="M402.81,168.81q8-5.55,16.05-11-5-4.54-9.92-9Q405.87,158.79,402.81,168.81Z" style="fill: #fff"/>
      <path d="M392.88,134.36q8,7.15,16.06,14.44,1.89-6.18,3.79-12.35Q402.8,135.31,392.88,134.36Z" style="fill: #fff"/>
      <path d="M434.92,172.69q-3.07-10.75-6.13-21.49-5,3.3-9.93,6.65Q426.89,165.21,434.92,172.69Z" style="fill: #fff"/>
      <path d="M418.86,116.5q-3.06,10-6.13,19.95,6.13.7,12.26,1.49Q421.93,127.21,418.86,116.5Z" style="fill: #fff"/>
      <path d="M412.73,136.45q-1.89,6.18-3.79,12.35,5,4.5,9.92,9,5-3.34,9.93-6.65-1.91-6.63-3.8-13.26Q418.87,137.16,412.73,136.45Z" style="fill: #fff"/>
      <path d="M425,137.94q1.9,6.63,3.8,13.26,8-5.34,16-10.58Q434.93,139.2,425,137.94Z" style="fill: #fff"/>
      <path d="M320,210.19q8,6.45,16,13.09,1.91-6.33,3.79-12.65Q330,210.27,320,210.19Z" style="fill: #fff"/>
      <path d="M330,243.79q8-6.21,16.06-12.25-5-4.17-9.93-8.26Q333,233.53,330,243.79Z" style="fill: #fff"/>
      <path d="M362.07,245.15q-3.06-10.53-6.13-21-5,3.67-9.92,7.42Q354,238.26,362.07,245.15Z" style="fill: #fff"/>
      <path d="M352.15,211.15q1.89,6.48,3.79,13,8-6,16.06-11.75Q362.07,211.65,352.15,211.15Z" style="fill: #fff"/>
      <path d="M346,190.19q-3.07,10.2-6.14,20.44,6.14.21,12.27.52Q349.09,200.65,346,190.19Z" style="fill: #fff"/>
      <path d="M339.88,210.63q-1.89,6.31-3.79,12.65,5,4.09,9.93,8.26,5-3.75,9.92-7.42-1.89-6.5-3.79-13Q346,210.83,339.88,210.63Z" style="fill: #fff"/>
      <path d="M184.27,416.25q8-8.12,16.06-16-5-3-9.93-6Q187.34,405.26,184.27,416.25Z" style="fill: #fff"/>
      <path d="M216.38,410.34q-3.06-9.87-6.13-19.7-5,4.77-9.92,9.63Q208.36,405.19,216.38,410.34Z" style="fill: #fff"/>
      <path d="M174.35,385q8,4.51,16.05,9.27,1.9-6.77,3.79-13.53Q184.28,382.71,174.35,385Z" style="fill: #fff"/>
      <path d="M206.46,378.51q1.89,6.06,3.79,12.13,8-7.71,16.06-15.2Q216.38,376.81,206.46,378.51Z" style="fill: #fff"/>
      <path d="M194.19,380.76q-1.89,6.76-3.79,13.53,5,3,9.93,6,4.95-4.86,9.92-9.63-1.89-6.08-3.79-12.13Q200.33,379.56,194.19,380.76Z" style="fill: #fff"/>
      <path d="M200.33,358.93q-3.08,10.89-6.14,21.83,6.13-1.2,12.27-2.25Z" style="fill: #fff"/>
      <path d="M133.61,476q1.9,5.78,3.79,11.58,8-8.88,16.06-17.48Q143.53,472.88,133.61,476Z" style="fill: #fff"/>
      <path d="M143.54,506.42q-3.07-9.42-6.14-18.81-5,5.49-9.92,11.08Q135.51,502.43,143.54,506.42Z" style="fill: #fff"/>
      <path d="M101.5,487.39q8,3.25,16.06,6.81,1.89-7.06,3.79-14.11Q111.42,483.53,101.5,487.39Z" style="fill: #fff"/>
      <path d="M111.42,517.08q8-9.33,16.06-18.39-5-2.29-9.92-4.49Q114.49,505.62,111.42,517.08Z" style="fill: #fff"/>
      <path d="M127.48,457.35q-3.06,11.36-6.13,22.74,6.14-2.11,12.26-4.06Q130.55,466.67,127.48,457.35Z" style="fill: #fff"/>
      <path d="M121.35,480.09q-1.91,7.05-3.79,14.11,4.95,2.19,9.92,4.49,5-5.6,9.92-11.08-1.89-5.81-3.79-11.58Q127.48,478,121.35,480.09Z" style="fill: #fff"/>
      <path d="M70.69,613.75q-3.06-8.93-6.13-17.79-5,6.31-9.93,12.76Q62.67,611.07,70.69,613.75Z" style="fill: #fff"/>
      <path d="M28.65,602q8,1.81,16.06,4,1.89-7.4,3.79-14.76Q38.59,596.33,28.65,602Z" style="fill: #fff"/>
      <path d="M38.58,629.9q8-10.75,16.05-21.18-5-1.46-9.92-2.78Q41.65,617.9,38.58,629.9Z" style="fill: #fff"/>
      <path d="M60.77,585q1.89,5.47,3.79,11,8-10.23,16-20.14Q70.69,580.18,60.77,585Z" style="fill: #fff"/>
      <path d="M54.63,567.38q-3.06,11.86-6.13,23.8Q54.64,588,60.77,585,57.69,576.17,54.63,567.38Z" style="fill: #fff"/>
      <path d="M48.5,591.18q-1.89,7.37-3.79,14.76,5,1.32,9.92,2.78,5-6.44,9.93-12.76-1.91-5.48-3.79-11Q54.64,588,48.5,591.18Z" style="fill: #fff"/>
      <path d="M257.11,325.71q8-7.06,16.06-13.93c-3.31-2.43-6.62-4.85-9.92-7.23Q260.17,315.11,257.11,325.71Z" style="fill: #fff"/>
      <path d="M247.19,293.18q8,5.58,16.06,11.37Q265.14,298,267,291.5,257.11,292.19,247.19,293.18Z" style="fill: #fff"/>
      <path d="M289.23,323.81q-3.08-10.23-6.14-20.43-4.95,4.15-9.92,8.4Q281.19,317.71,289.23,323.81Z" style="fill: #fff"/>
      <path d="M273.17,270.44Q270.11,281,267,291.5q6.13-.42,12.26-.72Q276.24,280.6,273.17,270.44Z" style="fill: #fff"/>
      <path d="M279.3,290.78q1.9,6.29,3.79,12.6,8-6.75,16.06-13.29Q289.24,290.29,279.3,290.78Z" style="fill: #fff"/>
      <path d="M267,291.5q-1.91,6.53-3.79,13.05c3.3,2.38,6.61,4.8,9.92,7.23q5-4.25,9.92-8.4-1.89-6.31-3.79-12.6Q273.18,291.08,267,291.5Z" style="fill: #fff"/>
    </g>
    <path d="M546.34,28.2V626.57C364.23,589.63,182.11,570.81,0,688.45v15C420,432.09,840,886.62,1260,615.3V2C1022.11,155.64,784.23,76.46,546.34,28.2Z" style="fill: #fff"/>
    <path d="M560,31V337.67c233.33,48.4,466.67,121.7,700-29V2C1026.67,152.7,793.33,79.41,560,31Z" style="fill: #002868"/>
  </g>
</svg>
