<svg xmlns="http://www.w3.org/2000/svg" viewBox="0 0 1260 1012.04">
  <g>
    <path d="M630,46C420,.22,210-45.58,0,90.08v460C210,414.42,420,460.22,630,506Z"/>
    <path d="M420,390.27V236.94c-35-29.83-70-58-105-83.61V306.67C350,332.3,385,360.45,420,390.27Z" style="fill: #eaab00"/>
    <path d="M630,506V429.36c-35-33.19-70-66.38-105-98.73V484C560,490.75,595,498.39,630,506Z" style="fill: #eaab00"/>
    <path d="M105,189.86C70,177.67,35,169.69,0,166.74V550.08a563.74,563.74,0,0,1,105-53.55Z" style="fill: #eaab00"/>
    <path d="M210,238.18V84.85C175,65.1,140,48.72,105,36.53V189.86C140,202.05,175,218.44,210,238.18Z" style="fill: #eaab00"/>
    <path d="M525,330.63V24c-35-6.79-70-12.75-105-17v230C455,266.77,490,298.28,525,330.63Z" style="fill: #eaab00"/>
    <path d="M315,153.33V0A632.86,632.86,0,0,0,210,8.18V84.85C245,104.6,280,127.71,315,153.33Z" style="fill: #eaab00"/>
    <path d="M210,238.18v230A632.86,632.86,0,0,1,315,460V306.67C280,281,245,257.93,210,238.18Z" style="fill: #eaab00"/>
    <path d="M420,466.94c35,4.27,70,10.23,105,17-35-32.35-70-63.86-105-93.69Z" style="fill: #eaab00"/>
    <path d="M630,46V506c210,45.8,420,91.61,630-44V2C1050,137.63,840,91.82,630,46Z" style="fill: #fff"/>
    <path d="M630,506c105,22.9,210,45.8,315,46V322c-105-.22-210-23.12-315-46Z" style="fill: #981e32"/>
    <path d="M945,92V322c105,.22,210-22.24,315-90.07V2C1155,69.8,1050,92.26,945,92Z" style="fill: #981e32"/>
    <path d="M945,519.84c14.85,0,26.88-13.64,26.88-29.89V475.23q13-.48,26-1.47c14.85-1.12,26.88-15.84,26.88-32.09s-12-27.91-26.88-26.79q-13,1-26,1.47V351c55.72-2,111.44-11,167.16-30.27v28.52c0,16.25,12,25.38,26.88,19.33s26.88-25,26.88-41.25V298.84q11.76-5.54,23.52-11.77c14.85-7.86,26.88-28.39,26.88-44.63-99.4,59.69-198.8,79.81-298.2,79.6Z" style="fill: #981e32"/>
    <path d="M673.68,314.93q11.76,2.52,23.52,5v28.52c0,16.25,12,32,26.88,34.92s26.88-8,26.88-24.26V330.56c55.72,10.38,111.44,18.3,167.16,20.38v65.32q-13-.48-26-1.38c-14.85-1-26.88,10.93-26.88,27.2s12,30.66,26.88,31.68q13,.89,26,1.38v14.72c0,16.25,12,30,26.88,30V322c-99.4-.2-198.8-20.74-298.2-42.36C646.8,295.94,658.83,311.75,673.68,314.93Z" style="fill: #fff"/>
    <path d="M1216.32,228.19q-11.76,6.24-23.52,11.77V211.44c0-16.27-12-23.66-26.88-17.63S1139,217.09,1139,233.36v28.52c-55.72,19.28-111.44,28.24-167.16,30.27V226.83q13-.48,26-1.47c14.85-1.12,26.88-15.84,26.88-32.09s-12-27.91-26.88-26.79q-13,1-26,1.47V153.23c0-16.27-12-28.95-26.88-29V322c99.4.21,198.8-19.91,298.2-79.6C1243.2,226.16,1231.16,220.33,1216.32,228.19Z" style="fill: #fff"/>
    <path d="M918.12,153.14v14.72q-13-.48-26-1.38c-14.85-1-26.88,10.93-26.88,27.2s12,30.66,26.88,31.68q13,.88,26,1.38v65.32C862.4,290,806.68,282.06,751,271.68V243.16c0-16.26-12-31.67-26.88-34.62s-26.88,7.7-26.88,24V261q-11.76-2.44-23.52-5c-14.85-3.18-26.88,7.37-26.88,23.63C746.2,301.3,845.6,321.84,945,322V124.24C930.15,124.22,918.12,136.88,918.12,153.14Z" style="fill: #981e32"/>
    <path d="M0,550.08v460C210,874.42,420,920.22,630,966V506C420,460.22,210,414.42,0,550.08Z" style="fill: #fff"/>
    <path d="M0,780.08v230c105-67.83,210-90.3,315-90.08V690C210,689.78,105,712.25,0,780.08Z" style="fill: #981e32"/>
    <path d="M630,506c-105-22.9-210-45.8-315-46V690c105,.22,210,23.12,315,46Z" style="fill: #981e32"/>
    <path d="M315,887.8c14.85,0,26.88-12.63,26.88-28.9V844.18q13,.48,26,1.38c14.85,1,26.88-10.93,26.88-27.19s-12-30.67-26.88-31.69q-13-.88-26-1.38V720c55.72,2.08,111.44,10,167.16,20.38v28.52c0,16.26,12,31.67,26.88,34.63s26.88-7.7,26.88-24V751q11.76,2.44,23.52,5c14.85,3.17,26.88-7.38,26.88-23.64C513.8,710.74,414.4,690.21,315,690Z" style="fill: #981e32"/>
    <path d="M43.68,783.86q11.76-6.24,23.52-11.78V800.6c0,16.27,12,23.66,26.88,17.64S121,795,121,778.68V750.16c55.72-19.28,111.44-28.24,167.16-30.26v65.32q-13,.46-26,1.46c-14.85,1.12-26.88,15.84-26.88,32.09s12,27.91,26.88,26.79q13-1,26-1.46v14.72c0,16.26,12,28.94,26.88,29V690c-99.4-.21-198.8,19.92-298.2,79.61C16.8,785.88,28.83,791.71,43.68,783.86Z" style="fill: #fff"/>
    <path d="M586.32,697.12q-11.76-2.52-23.52-5V663.63c0-16.26-12-32-26.88-34.92S509,636.71,509,653v28.52c-55.72-10.37-111.44-18.3-167.16-20.38V595.78q13,.48,26,1.38c14.85,1,26.88-10.93,26.88-27.19s-12-30.67-26.88-31.69q-13-.88-26-1.38V522.18c0-16.25-12-29.95-26.88-30V690c99.4.21,198.8,20.74,298.2,42.36C613.2,716.1,601.17,700.29,586.32,697.12Z" style="fill: #fff"/>
    <path d="M288.12,522.1v14.72q-13,.46-26,1.46c-14.85,1.12-26.88,15.84-26.88,32.09s12,27.91,26.88,26.79q13-1,26-1.46V661C232.4,663,176.68,672,121,691.28V662.76c0-16.24-12-25.38-26.88-19.32s-26.88,25-26.88,41.24V713.2Q55.44,718.75,43.68,725c-14.85,7.85-26.88,28.38-26.88,44.63C116.2,709.92,215.6,689.79,315,690V492.2C300.15,492.16,288.12,505.84,288.12,522.1Z" style="fill: #981e32"/>
    <path d="M630,966c210,45.8,420,91.61,630-44V462c-210,135.66-420,89.85-630,44Z"/>
    <path d="M1050,927.19V773.86c-35-19.75-70-42.86-105-68.48V858.71C980,884.34,1015,907.45,1050,927.19Z" style="fill: #eaab00"/>
    <path d="M1155,515.52a542.17,542.17,0,0,1-105,28.34v230c35,19.75,70,36.13,105,48.32Z" style="fill: #eaab00"/>
    <path d="M945,552a879.43,879.43,0,0,1-105-6.94v76.67c35,29.83,70,58,105,83.61Z" style="fill: #eaab00"/>
    <path d="M630,582.69V966c35,7.64,70,15.27,105,22.06V681.42C700,649.07,665,615.88,630,582.69Z" style="fill: #eaab00"/>
    <path d="M1050,1003.86a542.17,542.17,0,0,0,105-28.34c-35-12.19-70-28.58-105-48.33Z" style="fill: #eaab00"/>
    <path d="M1155,975.52A563.74,563.74,0,0,0,1260,922V845.3c-35-2.94-70-10.93-105-23.12Z" style="fill: #eaab00"/>
    <path d="M840,775.1v230A879.43,879.43,0,0,0,945,1012V858.71C910,833.08,875,804.93,840,775.1Z" style="fill: #eaab00"/>
    <path d="M840,621.77c-35-29.83-70-61.34-105-93.69V681.42c35,32.35,70,63.85,105,93.68Z" style="fill: #eaab00"/>
  </g>
</svg>
