<svg xmlns="http://www.w3.org/2000/svg" viewBox="0 0 1260 1012.04">
  <g>
    <path d="M0,90.08v920C420,738.76,840,1193.28,1260,922V2C840,273.28,420-181.24,0,90.08Z" style="fill: gold"/>
    <path d="M795.21,582.81c-110.14-17.48-220.28-48-330.42-65.53m366.15,41.34C697,541.18,563,500.19,429.06,482.75M830.94,529.3C697,511.86,563,470.86,429.06,453.42m366.15,41.34c-110.14-17.48-220.28-48.05-330.42-65.52"/>
    <path d="M795.21,573c-110.14-17.48-220.28-48-330.42-65.52-4.93-.78-8.93,3-8.93,8.39s4,10.38,8.93,11.16c110.14,17.48,220.28,48,330.42,65.52,4.93.78,8.93-3,8.93-8.39S800.14,573.81,795.21,573Z" style="fill: #bf0a30"/>
    <path d="M464.79,439c110.14,17.48,220.28,48.05,330.42,65.52,4.93.79,8.93-3,8.93-8.38s-4-10.38-8.93-11.17c-110.14-17.47-220.28-48-330.42-65.52-4.93-.78-8.93,3-8.93,8.39S459.86,438.23,464.79,439Z" style="fill: #bf0a30"/>
    <path d="M830.94,548.85C697,531.41,563,490.41,429.06,473c-4.93-.64-8.93,3.25-8.93,8.65s4,10.26,8.93,10.9C563,510,697,551,830.94,568.4c4.93.64,8.93-3.25,8.93-8.65S835.87,549.49,830.94,548.85Z" style="fill: #bf0a30"/>
    <path d="M830.94,519.52C697,502.08,563,461.09,429.06,443.65c-4.93-.65-8.93,3.25-8.93,8.64s4,10.26,8.93,10.91C563,480.64,697,521.63,830.94,539.07c4.93.65,8.93-3.25,8.93-8.65S835.87,520.17,830.94,519.52Z" style="fill: #bf0a30"/>
    <path d="M589.8,678.25V316.36m26.81,406.82V283m26.78,446V288.86M670.2,695.69V333.8"/>
    <path d="M616.61,273.25c-4.93-1.08-8.92,2.43-8.92,7.83V721.25c0,5.39,4,10.64,8.92,11.71s8.93-2.43,8.93-7.83V285C625.54,279.57,621.54,274.32,616.61,273.25Z" style="fill: #bf0a30"/>
    <path d="M589.8,306.58c-4.92-1.06-8.92,2.47-8.92,7.87V676.34c0,5.4,4,10.62,8.92,11.68s8.93-2.45,8.93-7.85V318.28C598.73,312.88,594.73,307.64,589.8,306.58Z" style="fill: #bf0a30"/>
    <path d="M643.39,279.08c-4.93-1.07-8.93,2.43-8.93,7.83V727.08c0,5.4,4,10.64,8.93,11.72s8.92-2.44,8.92-7.84V290.8C652.31,285.4,648.32,280.16,643.39,279.08Z" style="fill: #bf0a30"/>
    <path d="M670.2,324c-4.93-1.06-8.93,2.46-8.93,7.85v361.9c0,5.39,4,10.63,8.93,11.69s8.92-2.47,8.92-7.87V335.7C679.12,330.3,675.12,325.08,670.2,324Z" style="fill: #bf0a30"/>
    <path d="M630,432.06c-37.29-8.18-67.53,18.59-67.53,59.46S592.71,571.79,630,580s67.53-18.58,67.53-59.45S667.29,440.25,630,432.06Z" style="fill: gold"/>
    <path d="M630,426c-40.31-8.86-73.11,20.23-73.11,64.41s32.8,86.87,73.11,95.73,73.11-20.22,73.11-64.41S670.31,434.81,630,426Zm0,147.92c-34.16-7.49-62-43.79-62-81.19s27.79-62,62-54.51,62,43.8,62,81.19S664.16,581.36,630,573.87Z" style="fill: #bf0a30"/>
  </g>
</svg>
