<svg xmlns="http://www.w3.org/2000/svg" viewBox="0 0 1260 1012.03">
  <g>
    <path d="M0,550.27C420,279,840,733.46,1260,462.16V2C840,273.34,420-181.15,0,90.15Z" style="fill: #bf0a30;fill-rule: evenodd"/>
    <path d="M0,1010.07C420,738.77,840,1193.25,1260,922V462.27C840,733.57,420,279.09,0,550.38Z" style="fill: #fff;fill-rule: evenodd"/>
    <path d="M0,90.07v920C140,919.63,280,909.85,420.05,927V7C280-10.15,140-.37,0,90.07Z" style="fill: #002868;fill-rule: evenodd"/>
    <path d="M84.83,301.1q-11-15.56-22-30.53c-26.26,29.06-31,38.92-45.41,59.59q16-9.2,31.92-17.05c-.38,3.44-7.35,47.63-8,50.86,24-30,35.43-43.72,68.21-66.47,13-8.72-1-18.11-2.38-21.42A139.08,139.08,0,0,0,84.83,301.1Z" style="fill: #ffca00;fill-rule: evenodd"/>
    <path d="M107.94,275.45l-.32-.79-.81.71a139.82,139.82,0,0,0-22.54,25.28l1.12.9a137,137,0,0,1,21.38-24.12,25.28,25.28,0,0,0,2,2.41c2.55,2.86,6.4,7.23,5.2,11.44-.53,1.88-2.1,3.69-4.66,5.42-31.54,21.88-43.1,35.2-66.73,64.59,1.7-10.11,7.26-45.51,7.59-48.49l.12-1.08Q35,319.2,19.77,327.89c2.6-3.81,4.9-7.23,7.13-10.54,8.76-12.85,16.31-24.16,36.33-46.17L62.41,270c-20.15,22.21-27.76,33.62-36.58,46.59-2.73,4.06-5.56,8.28-8.94,13.19L15,332.46q16.67-9.7,33.32-17.94c-1.07,7.6-7.21,46.56-7.85,49.66-.17.87-.35,1.73-.53,2.6.6-.77,1.21-1.53,1.81-2.29,24.65-30.72,35.93-44,68-66.19,3.12-2.1,5.06-4.44,5.79-7,1.48-5.22-2.51-9.79-5.43-13.07A13.92,13.92,0,0,1,107.94,275.45Z" style="fill: #002868"/>
    <path d="M56.6,258.74c.26.93.53,1.87.79,2.81q13.94,19,27.87,39c24.47-35.8,77.21-65.8,129.46-73.23,52.26-8.58,104,5.41,126.59,30.75,1.46-.68,30.64-53,29.19-52.34-44.29-37.12-106.11-52-165.19-40C146.23,176.74,89.9,214.69,56.6,258.74Z" style="fill: #ffca00;fill-rule: evenodd"/>
    <path d="M370.62,204.74C326.71,168.13,265.16,152.83,206,164.59,146.93,175.29,90.25,213,56.1,258.25l-.46.6c.31,1.11.62,2.23.94,3.34q14.24,19.47,28.48,39.92l.77-1.09c22.47-32.39,71.83-64.56,128.89-72.82,57-8.61,105.26,7.12,126,30.53l.37.42.5-.18c.33-.09,1.33-.54,15.42-25.76,1.43-2.59,14-25,14.36-27.12,0-.21.05-.41.08-.62l-.78-.75Zm-29.34,52c-21.37-23.38-69.71-39-126.55-30.41l-2.23.34c-55.85,8.66-104.23,40.26-127,72.36Q71.81,279.49,58.17,260.8l-.61-2.17c32.92-42.95,88.1-80.95,147.77-92,64.1-12.51,123.9,5.91,164.23,39.49C367.39,211.38,345.12,251.22,341.28,256.77Z" style="fill: #002868"/>
    <path d="M99.27,232.61c-.65-.94-2-.93-3.18,0a4.41,4.41,0,0,0-1.66,3.88q2,11.26,4,22.56-8.61-4.9-17.24-9.45c-1-.5-2.37.09-3.36,1.39s-1.29,3-.68,3.92c5.38,8.55,13.56,21.85,14.13,22.94a1.75,1.75,0,0,0,2.41.74,3.94,3.94,0,0,0,.94-.57c1.35-1.11,2-3.05,1.52-4.32-.06-.14-.22-.58-7.49-12.43q6,3.27,12,6.69a2.63,2.63,0,0,0,3-.83,4.25,4.25,0,0,0,1.29-3.51q-1.36-7.78-2.74-15.58,3.78,5.5,7.57,11.08c.74,1.09,2.35.95,3.6-.32s1.65-3.17.91-4.27Q106.76,243.47,99.27,232.61Z" style="fill: #002868"/>
    <path d="M191.79,214.66q-5.35,1.29-10.7,2.69a33.63,33.63,0,0,1,3-5.62q3-3.45,6-6.87a2.88,2.88,0,0,0,.3-.39,14.94,14.94,0,0,0,2.32-9.79c-.34-3.35-1.68-6.07-3.58-7.27a2,2,0,0,0-.8-.29,12.34,12.34,0,0,0-10.48,3.44c-1.71,1.74-3.75,4.94-3.81,10.22a2.12,2.12,0,0,0,2.59,2.31,3.64,3.64,0,0,0,2.66-3.44c0-2.32.58-4,1.64-5.12a6.83,6.83,0,0,1,5.3-1.65,6.35,6.35,0,0,1,1.26,3.48,8.25,8.25,0,0,1-1,5q-3,3.43-6,6.92a2.73,2.73,0,0,0-.35.47c-2.17,3.45-5.14,8.2-4.94,13a2.11,2.11,0,0,0,2.62,2.14l.1,0q7-1.87,14-3.57a3.53,3.53,0,0,0,2.52-3.48A2.19,2.19,0,0,0,191.79,214.66Z" style="fill: #002868"/>
    <path d="M213.87,188.82c-.69-2.52-1.66-5.08-4.18-6.71a2.14,2.14,0,0,0-.53-.25,9.76,9.76,0,0,0-8.19,1.48c-3.69,2.67-4.77,6.27-5.39,9.75a2.17,2.17,0,0,0,0,.25c-.41,4-.23,13.09.54,16.94.61,2.56,1.37,5,3.88,6.95a2.3,2.3,0,0,0,.43.25,7.7,7.7,0,0,0,4.49.52,8.17,8.17,0,0,0,3.92-1.82,14.76,14.76,0,0,0,4.81-8.47c1.19-4.28,1-14.78.3-18.69C213.9,189,213.88,188.89,213.87,188.82Zm-11.69-3.14h0Zm6.39,21.3a8.36,8.36,0,0,1-2.48,4.74,3.14,3.14,0,0,1-2.88.38c-1.1-.93-1.51-1.94-2-4.06a76.31,76.31,0,0,1-.45-14.9c.52-2.89,1.11-4,2.57-5.08l.07-.05a4.81,4.81,0,0,1,3.41-.59c.89.67,1.44,1.7,2,3.7C209.41,194.52,209.42,203.88,208.57,207Z" style="fill: #002868"/>
    <path d="M277.09,177.28a2.55,2.55,0,0,0-3.07.93,16,16,0,0,1-5.94,5.15,3.16,3.16,0,0,0-1.41,3.86,2.43,2.43,0,0,0,3.44,1.32,25.1,25.1,0,0,0,2.35-1.39q-1.48,11.58-3,23.17a2.65,2.65,0,0,0,2.23,3.11,1.54,1.54,0,0,0,.37,0,2.93,2.93,0,0,0,2.6-2.62l3.93-30.59A2.77,2.77,0,0,0,277.09,177.28Z" style="fill: #002868"/>
    <path d="M303.65,184.55c-5-1.53-12.55-3.73-13.2-3.92a2.66,2.66,0,0,0-3.32,1.82,2.88,2.88,0,0,0,1.53,3.65c.12.05.36.09,9.77,2.87a126,126,0,0,0-13.67,23.81,2.91,2.91,0,0,0,1.25,3.78,2.48,2.48,0,0,0,1.12.23,2.75,2.75,0,0,0,2.38-1.73c4-9.29,8.66-16.59,15.45-26a3.12,3.12,0,0,0,.46-2.67A2.73,2.73,0,0,0,303.65,184.55Z" style="fill: #002868"/>
    <path d="M328.32,195.07q-6.44-3.6-12.89-7.11a2.52,2.52,0,0,0-3.51,1.31,3,3,0,0,0,1.19,3.85q4.54,2.44,9.09,5a89.75,89.75,0,0,0-16.71,20.17,3,3,0,0,0,.66,4,2.5,2.5,0,0,0,1.5.5,2.6,2.6,0,0,0,2.16-1.26c5.76-9.16,11.94-16.2,18.88-21.49a2.94,2.94,0,0,0,1.09-2.55A3,3,0,0,0,328.32,195.07Z" style="fill: #002868"/>
    <path d="M348.28,207.13q-4.23-2.91-8.45-5.76a2.44,2.44,0,0,0-3.44.66l-7.46,10.88a3.08,3.08,0,0,0-.11,3.24,2.62,2.62,0,0,0,2.73,1.35c5.09-1,6.61,1.3,7.43,4,.29,2.86-.23,5.21-1.51,6.83a5,5,0,0,1-3.85,2c-3-.15-4.94-1.33-5.55-6.83a2.74,2.74,0,0,0-2.93-2.55,2.79,2.79,0,0,0-2.29,3.17c.86,7.66,4.44,11.64,10.78,12a10.09,10.09,0,0,0,7.83-3.85c2.29-2.85,3.24-6.94,2.69-11.52a2.66,2.66,0,0,0-.1-.49c-1.3-4.57-4-7.42-7.75-8.32l2.91-4.23q3.21,2.17,6.41,4.36a2.44,2.44,0,0,0,3.59-.87A3.09,3.09,0,0,0,348.28,207.13Z" style="fill: #002868"/>
    <path d="M119.72,214.36a4.28,4.28,0,0,0-1.27,1.24,2.74,2.74,0,0,0-.43.78,4,4,0,0,0-.33,1.23h0c-.43,2.84-.62,10.26-1.19,33.59a1.88,1.88,0,0,0,2.55,2.05l.08,0a4.29,4.29,0,0,0,2.62-3.71c.18-7.52.47-18.15.72-25.28,3.52,4.46,8.69,11.39,12.57,16.78.79,1.08,2.42,1,3.63-.27s1.57-3.12.79-4.22C122.28,212.63,122,213.06,119.72,214.36Z" style="fill: #002868"/>
    <path d="M130.45,228.34Q124.72,232,119,235.9a4.13,4.13,0,0,0-1.78,4.2,1.83,1.83,0,0,0,2.52,1.18,3.47,3.47,0,0,0,.74-.38q5.73-3.84,11.46-7.53a4,4,0,0,0,1.78-4.14C133.3,227.84,131.84,227.43,130.45,228.34Z" style="fill: #002868"/>
    <path d="M101.81,525.86q-15-30.94-30-60.83-9.37,4.43-18.73,9.3-.13,57.75-.26,115.52,8.37-4.12,16.74-7.9-.25-39.62-.52-79.22,16,32.44,32.1,66.13,8.72-3.4,17.42-6.47V445.51q-8.5,3.12-17,6.55Q101.69,489,101.81,525.86Z" style="fill: #ffca00;fill-rule: evenodd"/>
    <path d="M359,487.48a56.18,56.18,0,0,1-1.64,12.45c-2.11,5.45-5.36,9-13.45,8.64-5.41-.22-9.08-2.77-12.11-7.23-4.09-4.42-5.17-14.12-5.44-16.86-1.23-12.39-1.27-24.64,2-37.48,1.24-5.19,3.7-10,6.92-12.22a16.69,16.69,0,0,1,13.69-1.15,14.63,14.63,0,0,1,8.87,9.45,43,43,0,0,1,1.09,9.31q8.93.53,17.84,1.22c-.07-3.43-.15-6.87-.22-10.31-.5-6.69-2.8-15.32-8.79-22A30.33,30.33,0,0,0,352.89,411c-5.2-2.53-17.93-2.35-24.39,1.51-7.64,4.52-14.1,12.84-18.4,26.3-5.66,22.65-3.1,50.95.48,64.26,4.26,14.11,10.95,21.65,19.86,26.6,5.54,2.16,15.21,4,24.25,1.84C364.55,528,369.05,521.23,373,514c2.37-4.94,5.1-14.53,4.62-25.44Q368.29,487.9,359,487.48Z" style="fill: #ffca00;fill-rule: evenodd"/>
    <path d="M229,453.19q-7.33-25.92-14.66-51.64Q206.69,430,199,458.72c-16.68,2.68-33.36,6.13-50,10.46Q169.8,480,190.6,492.59q-8.13,28.12-16.26,56.51,20.52-21.71,41-41.8,20,13.89,40,29.18-8.11-26.51-16.24-52.79,20.49-18.3,41-35.24Q254.55,449.77,229,453.19Z" style="fill: #fff;fill-rule: evenodd"/>
    <path d="M85.27,340.36"/>
    <path d="M107,290.3c-1.61.81-3.42,1.66-5.29,2.54-2.12,1-4.31,2.05-6.41,3.18-4.35,2.65-7.79,4.68-9.29,3.63l-1.2,1.8c2.08,1.44,6-.79,10.74-3.72,2-1.07,4.18-2.12,6.28-3.11,1.9-.89,3.73-1.74,5.2-2.5,5.57-1.59,6.44-.68,6.57-.38s-.26,1.12-.52,1.55l1.27.74c.91-1.48,1.18-2.67.81-3.54C114.5,289,112,288.86,107,290.3Z" style="fill: #002868"/>
    <path d="M364,219.24q-11,19.57-22,39.44c-5.39-6.87-12.94-12.32-21.85-16.81-1.35,3.82-15.87,18.57-2.85,22.55C350,275,361.44,283.94,385.47,303.33c-.66-2.92-7.63-44-8-47.31q16,.9,31.92,2.33C395,244.53,390.22,237.14,364,219.24Z" style="fill: #ffca00;fill-rule: evenodd"/>
    <path d="M409.89,257.69c-3.37-3.27-6.2-6.14-8.94-8.91-8.81-8.86-16.42-16.62-36.58-30.31l-.82,1.55c20,13.58,27.58,21.28,36.33,30.07,2.24,2.25,4.53,4.58,7.14,7.13q-15.25-1.32-30.51-2.18l.12,1c.33,2.85,5.89,35.8,7.59,45.14-23.63-19-35.19-27.53-66.74-37.67-2.51-.78-4-2-4.56-3.65-1.18-3.81,2.82-9.69,5.46-13.55.89-1.3,1.64-2.39,2.11-3.26,9.24,4.74,16.06,10.11,20.84,16.18l1.25-1.17c-5.06-6.45-12.3-12.1-22.13-17l-.81-.41c-.11.3-.21.6-.32.91a24.42,24.42,0,0,1-2.28,3.69c-3,4.43-7.18,10.54-5.71,15.25.71,2.26,2.63,3.88,5.7,4.83,32.05,10.3,43.33,18.86,68,38.75l1.82,1.48-.54-2.36c-.63-2.81-6.77-39-7.84-46.19q16.65,1,33.31,2.5Z" style="fill: #002868"/>
    <path d="M341.51,324.18"/>
    <path d="M333.06,257.83l-1.6-.21-.4-.07a81.14,81.14,0,0,0-11.1-1.48c-4.42,0-7.51,1.32-8.28,3.5a3,3,0,0,0,.83,3.21l1.14-1.35c-.61-.61-.45-1.05-.4-1.2.39-1.11,2.66-2.33,6.68-2.32a82.63,82.63,0,0,1,10.88,1.45l.46.08,1.62.21c3.1.43,5.77.81,8.48-.47-.24-.56-.47-1.13-.71-1.69C338.37,258.57,335.91,258.22,333.06,257.83Z" style="fill: #002868"/>
    <path d="M227.43,191.26c-.05,0-5,.44-10.05,1.12a2.46,2.46,0,0,0-1.92,2.33,1.67,1.67,0,0,0,1.85,1.82c5-.67,9.91-1.11,10-1.12h.08a2.32,2.32,0,0,0,1.89-2.23A1.71,1.71,0,0,0,227.43,191.26Z" style="fill: #002868"/>
    <path d="M233,182.93a2.29,2.29,0,0,0-1.94,2.27q-.3,13.31-.59,26.61a1.72,1.72,0,0,0,1.84,1.89h.05a2.32,2.32,0,0,0,1.89-2.25q.28-13.31.59-26.61A1.73,1.73,0,0,0,233,182.93Z" style="fill: #002868"/>
    <path d="M234.24,190.84a2.31,2.31,0,0,0-1.88,2.31,1.71,1.71,0,0,0,1.89,1.82h0c3.67-.46,5.46-.48,6.38.5,1.43,1.54,1.71,6.2,1,16.09a1.79,1.79,0,0,0,1.73,2.05h.16a2.26,2.26,0,0,0,1.88-2.1c.87-11.78.37-16.62-2-19.14S237.66,190.4,234.24,190.84Z" style="fill: #002868"/>
    <path d="M225.4,210.41c-1.41.19-1.92,0-2.11-.16s-.49-.77-.46-2.75q.18-11.06.37-22.11a1.68,1.68,0,0,0-1.85-1.84,2.33,2.33,0,0,0-1.93,2.31q-.18,11.07-.37,22.13c0,1.87.13,4.19,1.55,5.55s3.27,1.22,4.8,1a2.35,2.35,0,0,0,1.89-2.33A1.7,1.7,0,0,0,225.4,210.41Z" style="fill: #002868"/>
    <path d="M150.45,216.91a2.13,2.13,0,0,0-.72-1.34q-6.22-5.16-12.45-10.14c-1-.82-2.68-.3-3.71,1.14s-1,3.27,0,4.07q5.93,4.71,11.86,9.56,1.07,6.75,2.12,13.51a2,2,0,0,0,2.59,1.66,3.52,3.52,0,0,0,.42-.15,3.93,3.93,0,0,0,2.17-3.91Z" style="fill: #002868"/>
    <path d="M155.93,194.6c-1.36-.22-2.88.94-3.4,2.57q-3.41,10.58-6.82,21.2c-.53,1.63.14,3.1,1.49,3.28a2.35,2.35,0,0,0,1-.08A3.85,3.85,0,0,0,150.6,219l6.82-21.13C158,196.29,157.28,194.8,155.93,194.6Z" style="fill: #002868"/>
    <path d="M110.59,701.54c-32.78,2.67-44.18.54-68.21-4.15.66,2.42,7.62,38.41,8,41.42q-15.94,8.55-31.91,18.4c14.39,3.73,19.15,7.14,45.41,9.91q11-25.1,22-49.62a59.29,59.29,0,0,0,22.32,6.75C109.57,719.94,123.62,700.69,110.59,701.54Z" style="fill: #ffca00;fill-rule: evenodd"/>
    <path d="M110.81,700.57c-32,2.59-43.33.63-68-4.2L41,696.05l.54,2c.64,2.33,6.76,33.94,7.84,40.36q-16.66,9-33.35,19.39l1.91.45c3.37.81,6.2,1.67,8.94,2.52,8.81,2.87,16.42,5.12,36.58,7.35.27-.66.54-1.33.8-2-20-2.25-27.58-4.52-36.33-7.38-2.22-.7-4.5-1.4-7.08-2.08q15.24-9.33,30.47-17.44l-.12-1c-.33-2.6-5.88-31.44-7.59-39.55,23.63,4.63,35.2,6.36,66.74,3.8,2.57-.18,4.14.48,4.66,2,1.16,3.26-2.67,10.24-5.21,14.9-.83,1.53-1.54,2.83-2,3.83a58.26,58.26,0,0,1-21.39-6.62l-1.1,1.86a59.78,59.78,0,0,0,22.53,6.78l.8.09.32-1a38.2,38.2,0,0,1,2.18-4.33c2.91-5.34,6.9-12.58,5.45-16.67C115.91,701.28,114,700.35,110.81,700.57Z" style="fill: #002868"/>
    <path d="M342.37,672.66c-22.56,23.55-74.33,34.51-126.59,43.66-52.25,8-105,14.16-129.46,1.33Q72.39,749,58.45,781.19c-.27,1.17-.53,2.34-.79,3.52,33.3,9.08,89.63,3.54,148.71-5.11,59.08-9.71,120.9-22.54,165.19-52.58C373,727.55,343.82,673.11,342.37,672.66Z" style="fill: #ffca00;fill-rule: evenodd"/>
    <path d="M342.65,671.8l-.5-.21-.37.39c-20.74,21.53-69,34.12-126,43.35-57,8.83-106.42,13.66-128.9,1.4l-.76-.43q-14.19,31.91-28.39,64.77c-.35,1.49-.69,3-1,4.49l.48.14c35.16,9.69,94.18,3.16,155.17-6.08,57.5-9.55,116.74-23,159.35-51.58l.43.17c.09-.28.18-.56.28-.85s.43-1.38-14-28.32C344,672.29,343,672,342.65,671.8ZM206.38,778.61c-59.66,8.72-114.83,14.28-147.76,5.25.2-.9.4-1.79.61-2.69Q72.86,749.63,86.52,719c22.81,11.7,71.18,7.09,127-1.46l2.23-.36C272.64,708,321,695.4,342.34,674c3.81,5.47,26,46.84,28.27,52.58C330.28,753.68,270.49,768.71,206.38,778.61Z" style="fill: #002868"/>
    <path d="M85.27,758.08"/>
    <path d="M114.13,703.12c.26.22.67.66.53,1.09s-.84,1.78-6.42,4.36c-1.63.41-3.46,1-5.34,1.54-2.11.64-4.29,1.32-6.25,1.86-4.84,1-8.71,2-10.79,5.19l1.19.8c1.5-2.28,5-3.2,9.35-4.07,2-.56,4.25-1.25,6.37-1.9,1.86-.57,3.68-1.11,5.44-1.57,4.83-2.23,7.37-4.12,8-6.08a2.54,2.54,0,0,0-.82-2.9Z" style="fill: #002868"/>
    <path d="M386.53,634c-24,15.16-35.43,22-68.22,31.45-13,3.84,1.5,18.29,2.85,22.1,8.91-4.21,16.46-9.09,21.85-15.39q11,20.25,22,40.8c26.26-13.83,31-19.69,45.41-30.21q-15.94-2.16-31.91-3.82C378.9,675.75,385.86,636.71,386.53,634Z" style="fill: #ffca00;fill-rule: evenodd"/>
    <path d="M387.34,634.28l.54-2.24-1.81,1.13c-24.65,15.56-35.93,22.16-68,31.38-3.1.9-5,2.51-5.71,4.75-1.44,4.64,2.7,10.56,5.72,14.92a24.07,24.07,0,0,1,2.28,3.64l.32.89.8-.38c9.83-4.64,17.07-9.67,22.13-15.59l-1.24-1.28c-4.78,5.59-11.6,10.39-20.85,14.84-.47-.86-1.22-2-2.1-3.22-2.64-3.81-6.62-9.52-5.47-13.23.5-1.63,2-2.83,4.56-3.57,31.54-9.06,43.11-15.56,66.74-30.46-1.71,8.87-7.26,40.13-7.58,42.87-.05.33-.09.67-.13,1q15.24,1.56,30.47,3.6c-2.58,1.91-4.86,3.69-7.08,5.43-8.75,6.89-16.31,12.74-36.33,23.35l.8,1.67c20.16-10.67,27.77-16.55,36.59-23.48,2.73-2.14,5.56-4.34,8.93-6.78l1.91-1.38q-16.68-2.29-33.35-4C380.58,671.21,386.71,636.9,387.34,634.28Z" style="fill: #002868"/>
    <path d="M341.51,738.47"/>
    <path d="M334,670.58l-1.67.13-.41,0A106.7,106.7,0,0,1,321,671.83c-4.09-.07-6.35-1.26-6.73-2.35-.05-.13-.19-.54.4-1.12L313.58,667a3,3,0,0,0-.85,3.14c.75,2.16,3.84,3.46,8.32,3.54a105.58,105.58,0,0,0,11.05-1.08l.37-.05,1.64-.12c2.86-.23,5.32-.41,7.62.81l.69-1.65C339.71,670.13,337,670.34,334,670.58Z" style="fill: #002868"/>
    <path d="M228.28,760.87q-5.64.87-11.28,1.86a12.67,12.67,0,0,1,3.16-4.28.86.86,0,0,0,.14-.13q3-3,6-5.88a3.23,3.23,0,0,0,.38-.45,15.71,15.71,0,0,0,2.78-10.75c-.38-3.21-1.8-5.8-3.91-7.09a2.15,2.15,0,0,0-.89-.31c-3.72-.44-11.45-1.21-14.31,10a2.48,2.48,0,0,0,1.78,3.27,3.12,3.12,0,0,0,3.26-2.47c1.28-5,3.22-5.57,7.52-5.14a5,5,0,0,1,1.34,3.11,9.1,9.1,0,0,1-1.36,5.87l-5.74,5.63c-3,2.71-6.21,7.42-6.08,12.53a2.27,2.27,0,0,0,2.62,2.37h.06q7.31-1.32,14.6-2.45a3.26,3.26,0,0,0,2.57-3.27A2.38,2.38,0,0,0,228.28,760.87Z" style="fill: #002868"/>
    <path d="M204.29,736.51a3,3,0,0,0-3,1.63c-1.84,3.28-2.2,3.62-4.39,5.35a3.4,3.4,0,0,0-1.06,4.1,2.29,2.29,0,0,0,3.56.48l1.14-.91-.84,21.44a2.26,2.26,0,0,0,2.51,2.54l.12,0a3.43,3.43,0,0,0,2.62-3.21q.56-14.43,1.13-28.86A2.34,2.34,0,0,0,204.29,736.51Z" style="fill: #002868"/>
    <path d="M175.81,768.34q-5.75.45-11.49,1c1.16-8,4.23-29.24,4.24-29.7a2.09,2.09,0,0,0-2.56-2.32,3.67,3.67,0,0,0-2.67,3.21c-.17,1.24-4.34,30.29-4.63,32.22l-.45,3q8.42-.94,16.83-1.59l.37-.06a3.65,3.65,0,0,0,2.59-3.07C178.24,769.46,177.25,768.23,175.81,768.34Z" style="fill: #002868"/>
    <path d="M154.06,737.6a3.77,3.77,0,0,0-3,3.26q-2.18,16.85-4.36,33.71c-.21,1.63.78,2.8,2.22,2.62a1.61,1.61,0,0,0,.38-.08,3.93,3.93,0,0,0,2.6-3.18l4.35-33.67C156.48,738.63,155.49,737.44,154.06,737.6Z" style="fill: #002868"/>
    <path d="M122.6,739.7l-.3-.19c-2.8-1.78-5.8-1.93-8.45-2a25.45,25.45,0,0,1-3.11-.25l-2.57-.46q-5.92,18.69-11.85,37.55c-.53,1.69.14,3.09,1.48,3.14a2.4,2.4,0,0,0,1-.19,4.51,4.51,0,0,0,2.44-2.78l4.32-13.68.39.05a23.58,23.58,0,0,0,8.86.09l.32-.07.32-.15a15.64,15.64,0,0,0,7.67-8.55c1.71-4.38,1.6-9.38-.28-12.16Zm-4.22,11.56a7.07,7.07,0,0,1-3.24,3.8,20.82,20.82,0,0,1-7-.25l-.72-.11q1.79-5.61,3.56-11.21l1,0c2.2.08,4.47.18,6.45,1.29A8.64,8.64,0,0,1,118.38,751.26Z" style="fill: #002868"/>
    <path d="M282.72,721.2a2.55,2.55,0,0,0-2.34-2.19,2.73,2.73,0,0,0-2.65,2,18.87,18.87,0,0,1-4.17,7.45,3,3,0,0,0-.05,4,2.44,2.44,0,0,0,3.66-.14c.66-.74,1.25-1.47,1.79-2.21q2.1,12,4.19,24a2.52,2.52,0,0,0,2.54,2.2,2.89,2.89,0,0,0,.49-.07,3,3,0,0,0,2.06-3.39Z" style="fill: #002868"/>
    <path d="M304.58,715a3,3,0,0,0-1-2.45,2.43,2.43,0,0,0-2.45-.39c-5.28,2.1-13.32,5.45-14,5.73a3,3,0,0,0-1.8,3.55,2.52,2.52,0,0,0,3.21,1.93c.12,0,.39-.17,10.63-4.32a171.4,171.4,0,0,0,.72,29.16,2.66,2.66,0,0,0,2.6,2.42,2.31,2.31,0,0,0,.37,0,2.88,2.88,0,0,0,2.23-3.28C303.66,736.62,304,725,304.58,715Z" style="fill: #002868"/>
    <path d="M325.94,706.51v-.22a3.05,3.05,0,0,0-1.08-2.51,2.43,2.43,0,0,0-2.5-.38q-7.06,2.94-14.13,6a3,3,0,0,0-1.49,3.74,2.54,2.54,0,0,0,3.4,1.6q5.18-2.24,10.33-4.4c-.52,10.65-.81,21.27,1,29.37a2.6,2.6,0,0,0,3.17,2.15,2.86,2.86,0,0,0,1.93-3.45C324.72,730.09,325.34,718.1,325.94,706.51Z" style="fill: #002868"/>
    <path d="M351.64,718c-.65-4.9-2.9-8.68-6.51-10.88a1.55,1.55,0,0,0-.22-.12c-3-1.48-4.77-1.89-7.81-.57a2.85,2.85,0,0,0-.3.16,9.53,9.53,0,0,0-2.77,2.56q-.16-1.32-.21-2.64c.18-2.86.53-4.47,2.67-6.62a3.35,3.35,0,0,1,4.05,2,2.56,2.56,0,0,0,3.6,1.11,3,3,0,0,0,.89-3.91c-2.24-4.16-6-5.83-10.47-4.66a2.43,2.43,0,0,0-1.06.59c-3.79,3.55-4.66,6.66-4.93,11.14a2.62,2.62,0,0,0,0,.28A37.58,37.58,0,0,0,332,721c1.5,4.25,4.74,7.89,8,9a9.71,9.71,0,0,0,3.34.82,7.44,7.44,0,0,0,5.39-2.16,2.37,2.37,0,0,0,.34-.37c2-2.7,2.76-6.95,2.6-10A2.11,2.11,0,0,0,351.64,718Zm-6.55,6.27c-1.08.91-1.88,1-3.41.29a1.39,1.39,0,0,0-.26-.1c-1.08-.34-3-2-4.21-4.7a2.65,2.65,0,0,0,0-.56c-.65-5.41,1.29-6.94,2.13-7.48,1.17-.49,1.51-.49,3.49.46,2,1.29,3.19,3.29,3.62,6.28A11,11,0,0,1,345.09,724.31Z" style="fill: #002868"/>
    <path d="M241.8,740.49s-4.94.67-10,1.58a2.36,2.36,0,0,0-1.81,2.4,1.7,1.7,0,0,0,1.89,1.73h.09c5-.91,9.95-1.57,10-1.57a2.27,2.27,0,0,0,1.84-2.32A1.77,1.77,0,0,0,241.8,740.49Z" style="fill: #002868"/>
    <path d="M240.88,759.58c-1.39.25-1.93.1-2.13-.07s-.53-.74-.62-2.7l-.93-21.93a1.7,1.7,0,0,0-2-1.74,2.33,2.33,0,0,0-1.8,2.38q.47,11,.92,21.94c.09,1.85.38,4.15,1.89,5.44a5,5,0,0,0,4,.92l.93-.14a2.29,2.29,0,0,0,1.76-2.39A1.71,1.71,0,0,0,240.88,759.58Z" style="fill: #002868"/>
    <path d="M245,731.83a2.3,2.3,0,0,0-1.66,2.47l2.79,26.07A1.73,1.73,0,0,0,248,762l.22,0a2.28,2.28,0,0,0,1.66-2.46L247,733.43A1.7,1.7,0,0,0,245,731.83Z" style="fill: #002868"/>
    <path d="M256.6,739.66c-2.51-2-6-1.16-9.41-.28a2.3,2.3,0,0,0-1.59,2.51,1.72,1.72,0,0,0,2.14,1.54c3.63-.94,5.42-1.2,6.48-.35,1.63,1.31,2.51,5.84,3,15.62a1.78,1.78,0,0,0,1.89,1.79h.11a2.22,2.22,0,0,0,1.78-2.33C260.4,746.5,259.28,741.82,256.6,739.66Z" style="fill: #002868"/>
    <path d="M96.66,734.65a2.33,2.33,0,0,0-1.43.24,2.1,2.1,0,0,0-.65.39,4.86,4.86,0,0,0-1,1l0,0c-2,2.61-6.81,9.88-22,34.32-1,1.61-1,3.41.09,4s2.71-.19,3.71-1.79c5-8,12.06-19.13,16.73-26.31-.82,7-2.24,17.75-3.63,27.67-.23,1.67.74,2.73,2.17,2.39a2.16,2.16,0,0,0,.43-.14A4.65,4.65,0,0,0,93.69,773C99,735.1,98.73,735.07,96.66,734.65Z" style="fill: #002868"/>
    <path d="M93.78,757.63q-5.61-.66-11.22-1.17c-1.31-.13-2.88,1.17-3.51,2.88s-.07,3.18,1.24,3.29q5.61.48,11.22,1.11a2.28,2.28,0,0,0,1.13-.18A4.54,4.54,0,0,0,95,761C95.64,759.28,95.08,757.78,93.78,757.63Z" style="fill: #002868"/>
    <path d="M141.18,738.14a40.68,40.68,0,0,0-7.06.21c-1.12.1-2.23.2-3.32.27l-2.49.15-.66,2.93c-8,35.11-8,35.16-8,35.74a1.88,1.88,0,0,0,2.63,1.89l.07,0a4.25,4.25,0,0,0,2.5-3.17c.3-1.42,4.22-18.74,7.18-31.73l1-.09a37.11,37.11,0,0,1,6.43-.22s3.68.33,2.61,4.63a14.16,14.16,0,0,1-2.86,6.5c-1.15,1.33-1.36,3.2-.48,4.18s2.53.72,3.68-.59a21.7,21.7,0,0,0,4.74-10.14C148.78,742.21,145.26,738.38,141.18,738.14Z" style="fill: #002868"/>
    <path d="M143.64,759.56a5.85,5.85,0,0,0-5.27-4.57h-.24c-3.59.09-7.18.24-10.77.42a3.92,3.92,0,0,0-3.19,3.14c-.36,1.66.49,2.94,1.89,2.86,3.54-.19,7.09-.34,10.63-.45a2.18,2.18,0,0,1,1.83,1.37v0c.24,1.25-.48,7.79-1.3,13.12-.25,1.64.7,2.84,2.13,2.68a2.36,2.36,0,0,0,.46-.1,4,4,0,0,0,2.58-3.15c.58-3.73,1.85-12.67,1.25-15.36Zm-5.18,2.28a2,2,0,0,0,0,.44A2,2,0,0,1,138.46,761.84Z" style="fill: #002868"/>
  </g>
</svg>
