<svg xmlns="http://www.w3.org/2000/svg" viewBox="0 0 1260 1012.04">
  <g>
    <path d="M0,90.08v920C420,738.76,840,1193.28,1260,922V2C840,273.28,420-181.24,0,90.08Z" style="fill: #002a86"/>
    <path d="M637.45,311.7c-3.69-.59-9.71-2.11-11.66-7.27-3.5,3.49-8.92,5.83-14.17,2.08-3.31-3.78-6.81-6.18-9.93-9.94-3.3,2.13-6.77,5.36-11.44,2.26-11.87-6.58-20.63-23.54-33.65-25.76-.23,0-.46-.1-.69-.14-9.61-1.33-21.48,1.27-29.45,7.57,1,3,2.73,3.08,4.67,2.77l.58-.78c1.36.27,3.11-1.05,4.67-1.7a1.56,1.56,0,0,1,.37-.43l.16-.1c1.26-.67,3.6.18,4.72-.91a2.19,2.19,0,0,0,.58-1.16c8-4.33,15.72-1.06,25.83,2v2.37c-6.8-3.09-19.26-6.83-25.09-.89,5.83,7.31,13.25,12.1,21.42,12.64l5.82-1.84c2.92,14.54,15.37,23.33,24.89,29.9a19.58,19.58,0,0,0,2.15-8c-2.33-3.82-6.45-4.75-8.19-8.92a16,16,0,0,1,9.56,8,10.7,10.7,0,0,1-1.79,9.33,2.51,2.51,0,0,0,3,1.22l.11,0,13.65-10.33.16-.09c1-.48,2.37.72,2.73,2.12l.42-.35c4.46,7.84,11.66,11.29,16.32,18.44l-.57.84.1.21c-1-.31-2.28-2.13-3.41-3-4.67-6-10.3-9.84-15-15.85-4.09,5.27-9.77,6.17-14.44,10.6-9.13-2.46-17.87-11.19-25.46-19.88-1.75-3.44-4.06-7.24-4.83-11.18-2-.65-3.73,1.35-5.67,1.18-7.39-2-16.9-4.7-22.74-14.37-5.44.08-11.28,8.64-16.53-.65l-.95-.18c-18.28,18.41-43.39,27.68-58.17,50.93,3.12,5.7,7.81-.62,11.5-1.44,5.06-4.36,13-5.82,17.9-12.75.12-.68.25-1.36.37-2l-.05-.08-.06-.07a.39.39,0,0,0-.1-.08l-.11-.08c-.76-.55-2-.31-2.73-.87a.35.35,0,0,0,0-.08s0-.06-.05-.07a1,1,0,0,1-.11-.15.3.3,0,0,0-.05-.07.3.3,0,0,1,0-.07.78.78,0,0,1-.05-.14s0-.05,0-.06l-.06-.14c0-.05,0-.14,0-.19s-.05-.27-.05-.39v-.2c1-1.59,2.9-.81,3.62-1.65l.06-.06.05-.05,0-.12.05-.12c0-.06,0-.17.06-.24a.57.57,0,0,1,0-.13c6.21-3.39,13.81-6.07,18.48-11.81l8.34-6.9s.09.06.11.08l0,.08.11.08.1.09c.3.21.69.38,1,.56l.1.09s0,.06,0,.07l.06.07.05.08s0,.1,0,.14v.25a1.89,1.89,0,0,1,0,.38c-9.53,6.93-16.15,16-27,18.84v2.81c2.53,1.16,4.68-1.69,7.4-1.92,5.25-3,10.12-7.13,15.75-9.11a4.76,4.76,0,0,1,.58,2.73c-1.95,1.06-3.11,2-5.25,2.51-.19.2-.38.4-.58.59l.32.51c-.09,0-.18,0-.26-.05a3.83,3.83,0,0,0-.42-.08,4.35,4.35,0,0,0-1.79.62v.77c-.12-.19-.24-.39-.37-.58-1.55,3-4.84,3.61-7.56,5-1.94.36-3.56,1.93-5.3,2.1a2,2,0,0,0-.63-.88c-.29-.23-.63-.42-.89-.61l-.11-.08-.1-.08-.05-.08a1.66,1.66,0,0,1-.27-.43c0-.05,0-.14,0-.2-3,11.2-13.66,11.2-20.63,17.12,0,0,0,.08-.05.12a4.09,4.09,0,0,0,1.78,3.94l3.15.53A216.38,216.38,0,0,0,505.41,321c.93-.57,2.52-1.2,3.41-.77a1.23,1.23,0,0,1,.42.4l.05.07s0,.06,0,.07a.48.48,0,0,1,0,.12.57.57,0,0,1,0,.13.61.61,0,0,1-.05.12v.06c-.51,1.39-2.7,1.3-3.41,2.25-6.61,6.82-13.42,11.3-21,15.92a1.34,1.34,0,0,0,0,.2,1.61,1.61,0,0,0,0,.38c0,.05,0,.15.05.2l.05.14s0,.1.06.13,0,.06.05.08l0,.07a7.11,7.11,0,0,0,1.47,1.15c8.56.07,13.83-8.87,20.63-12.34,6.62-5.38,12.07-10,17.91-15.76.37.51,1.09.92,1.31,1.4,0,0,0,.06,0,.06a3.4,3.4,0,0,1,.26.76V316l0,.05v.07l0,.11a.87.87,0,0,1-.16.17,8.6,8.6,0,0,0-.84.47s-.05,0-.05.06a.5.5,0,0,0-.11.17v.06s0,0,0,0v.26a3.65,3.65,0,0,0,.1.47c-5.62,2.7-9.74,8.5-14.8,12.06-4.08,3.26-9.3,6.58-13.18,10.36,3.31,4.38,7.36-.56,11.45.43.58-2.71,3.89-5.93,6-6.21.2.35.39.71.58,1.07-1.36,1.87-3.12,3.67-4.09,5.87a4.26,4.26,0,0,0,5.82-1.78c8.17-5.52,9.35-18.31,17.91-23,1.55,4.81-3.91,4-4.1,8.2a29.48,29.48,0,0,0-5.25,9.65l-.37-.59-2.94,4.16a6.78,6.78,0,0,0,4.31,3.46c4.28-4.12,6-9.67,10.5-14.22a3.26,3.26,0,0,1,.79.66s0,.11,0,.14l.05.08,0,.07s0,.05,0,.06l.06.14a.16.16,0,0,0,0,.07s0,.05,0,.06,0,.06,0,.07a4,4,0,0,1,0,.95c-1.76,1.79-3.94,3.95-4.52,6.9,5.05,3.82,6.41-4.64,9.14-7.18,1.56-4.64,3.71-9.64,6.24-12.67l.06.08a2.34,2.34,0,0,0,.31.32,7.17,7.17,0,0,1,.68.52,1.34,1.34,0,0,1,.16.23s.05.06.05.07,0,.05.06.08,0,.05,0,.06,0,.05,0,.07a2.09,2.09,0,0,1,.05.21s0,.1,0,.12a1.21,1.21,0,0,1,0,.14v.13l0,.05v.07h-.05l0,.05h-.06a1.13,1.13,0,0,0-.31.06l0,.06-.06.05,0,.05v.13c-2.34,4-4.5,7.86-5.67,12.58h.11l.05.08c.65.58,1.17,2.14,1.84,2.74h.05s0,.06,0,.07h.11s.07.08.1.09l.11,0h0l.1,0h.06l.1-.05.05,0a1.85,1.85,0,0,0,.37-.25l.11-.11.26-.33c1.34-1.84,2.54-4.35,3.88-6,0,0,.09.06.11.09l0,.07a2.32,2.32,0,0,1,.21.37l0,.14.06.07a6.57,6.57,0,0,1,.1,1.94V331a1.67,1.67,0,0,1,0,.18c-.21,1.11-1.39,2-1.79,2.89l-.05.12,0,.11a.57.57,0,0,0,0,.13,1.11,1.11,0,0,0-.05.25.78.78,0,0,0,.05.14.48.48,0,0,0,0,.12l0,.14.05.14a3.45,3.45,0,0,0,.84,1.13,6.51,6.51,0,0,0,5.67-5,2.41,2.41,0,0,1,.58.76.22.22,0,0,1,.05.08c0,.05,0,.14.06.2.53,2-1.76,5-1.74,6.48,0,.07,0,.19,0,.25l.06.08,0,.07s0,.06,0,.07l.05.07h0s0,.06.06.08h.05s0,.07,0,.07h.05a4.57,4.57,0,0,0,2.79,0s0,0,0,0a.92.92,0,0,0,.37-.31s.08-.12.1-.17c.16-.33.26-.78.42-1.06l.05-.05a.57.57,0,0,1,.42-.24,1.29,1.29,0,0,1,.53.11,2.29,2.29,0,0,1,.52.62,2.09,2.09,0,0,1,.16.29,2.53,2.53,0,0,1,.11.6,2.6,2.6,0,0,1-.37,1.33,2.57,2.57,0,0,1-.42.49c2.14,3.74,5.63,3.54,7.77,7.3l1.73-3.15,1,.21v.07c.07.31,0,.75.05,1.1,0,0,0,.1,0,.12s0,.06,0,.08,0,.05,0,.06l.06.08s0,.07,0,.07l.1.09s0,.1,0,.12a1.28,1.28,0,0,0-.26.2c-.42.47-.54,1.23-.89,1.66a1.35,1.35,0,0,1-.27.2l-.15.1-.06,0c.39,1.39.87,2,1.37,2.21a1.25,1.25,0,0,0,.47,0c.65,0,1.36-.46,1.89-.49,0,0,.08,0,.11,0l.15,0a.86.86,0,0,1,.16.1l.11.08a1.68,1.68,0,0,1,.26.38,5.85,5.85,0,0,1,.31,1.79,6.94,6.94,0,0,0,1.74,1.9,2.43,2.43,0,0,0,1.2.38c1-.86,1.65-3.15,3-3.12l.1,0,.16,0,.16,0c.19,2.42-.59,5.08.58,7.22a1.51,1.51,0,0,0,1,.34,1.2,1.2,0,0,0,.27-.08,4.59,4.59,0,0,1,1.15-.45,1.23,1.23,0,0,1,.53.11,4.36,4.36,0,0,0-.06.76l.06.13a.56.56,0,0,0,0,.13,1474423189127.62,1474423189127.62,0,0,1,.1.28.22.22,0,0,1,.05.08,2.12,2.12,0,0,0,.11.21l0,.07a7.8,7.8,0,0,0,1,.86l0,.07,2.42,2c1.13-3.63,2.78-7.73,2.88-12.1a6.25,6.25,0,0,0,1.68-2.7,4.53,4.53,0,0,0,.06-.5c0-.07,0-.18,0-.24s0-.2,0-.27a1.21,1.21,0,0,1,0-.19,1.66,1.66,0,0,0-.06-.21s0-.1,0-.14c-1-2.88-6.5-4.6-7.82-7.68,0,0,0-.06,0-.07-8-6.91-14.78-18.77-21-28.34a2,2,0,0,1-.21-.3c-.87-1.38-.64-3.07-1.53-4.34-4.66,8-13.59,3.13-20.79,1.68-6.23-3.63-14.61-10.71-16.74-21.07l.42-3a2.59,2.59,0,0,1,.42.09l.21.1.15.1a1.16,1.16,0,0,1,.21.16l.06.08,0,.07,0,.08s0,.15.05.2l.06.07s0,.05,0,.07c.23.91-.1,2.28.1,3.28a.5.5,0,0,1,0,.13l.06.14s0,.05,0,.07l0,.07.05.14,0,.07a.83.83,0,0,0,.11.15c1.29,1.38,1.2,4,2.52,4.71l.21.1c1.17-1.9,2.3-2.68,3.46-4.1,2.93,4.39-5.82,5.51-.57,9.4l3.72-5.2,1.53,2a12.65,12.65,0,0,0-2.89,5.37c1.17,1.16,2.49,1.89,3.46,3.25.59-4.14,2.73-7,4.68-10.18,2.13,3-1.77,5.35-2.16,8.57-.3.49-.94.82-1.2,1.36l-.06,0s0,.1,0,.13-.05,0-.05.05a.57.57,0,0,0,0,.13v.13c5.63,1.37,12.41,6.81,15.33-2.06a2.3,2.3,0,0,1,.58.69s.08.16.1.22a3.23,3.23,0,0,1,.06.33c0,.11,0,.28,0,.39a7.75,7.75,0,0,1-.42,2l-1.73,1.3c5,3.63,6-3.72,9.34-5.86,1.36,1.93,1.17,4.95,2.15,7.29,8.75,13,16.12,27.32,28,35.07,1.74-2.92,3.68-6.29,4.46-10.15,2.72-1.3,5.08-.76,8.19.37a26.85,26.85,0,0,1,6.19,9.58,54.57,54.57,0,0,1-.57,16c2.72,2.24,7,2.22,10.13,1.24-.4-6.21-4.51-17.52,2.1-19.85,3.5-.42,7,.56,10.71,1.82,1.17-6.38-1.38-14.49-3.52-20.64-.26-1.42-.06-2.21.37-2.66a1.8,1.8,0,0,1,.47-.35c1.25-.52,3.45.24,4.62-.33a1.59,1.59,0,0,0,.21-.15c11.09-.64,24.32-3,28.4-16.51l.74.15C665.26,318,651.65,320,642.7,322c-3.31.46-7-.31-9.87,1.43,0,2.83,1.32,5.51,2.1,8.06,5.25.9,11.89-3.1,17-5.58,1.36.3,2.69-1.08,3.47-1.86,6.61-.47,10.88-9.92,17.69-8.46,2.14.72,4.3,5.42,6.83,4.78,4.66,2.42,10.48,2.17,13.59-2.37a1.18,1.18,0,0,1,.27-.45c.65-.68,2.1-.2,3.25,0,4.08,5.35,8.94,8.89,13.6,12.45.78-.16,1.24.17,1.73.16,0,0,.08,0,.11,0s.08,0,.1,0a.36.36,0,0,1,.11,0,2.62,2.62,0,0,0,.47-.29C701.83,316.73,690.56,304,676,300.42,660.23,292.3,653.39,319.41,637.45,311.7ZM586,304.5a1.69,1.69,0,0,1-.32,0,1.51,1.51,0,0,1-.26-.12,1.51,1.51,0,0,1-.26-.12c-1.33-.81-2.45-3.09-3.73-4.24a4.84,4.84,0,0,1-.53-1.84V298l.06-.05s0-.06,0-.07,0,0,0,0,0-.06,0-.06h0c2.14,1.39,4.84,3.85,5.62,6.63A1.78,1.78,0,0,1,586,304.5Z" style="fill: #ffea0f"/>
    <path d="M655.45,391.45s0,0,.06-.06,0-.05,0-.06c7.38-1.47,13-8.08,21.78-6a18.68,18.68,0,0,0,10.92-3.56,8.41,8.41,0,0,0-6-1.79c-3.11,1.71-7.21,6.06-10.5,2,1-3.57,5.22-3.42,7-6.11a1.94,1.94,0,0,1,0-.2l-.06-.14s0-.06,0-.08a1.25,1.25,0,0,0-.16-.22l-.05-.08,0-.07-.11-.09L678,375l-.21-.11-.21,0h-.06l-.15,0h-.16a2,2,0,0,0-.84.27c-7.57,6.91-17.5,10.89-26.25,13.51a69.43,69.43,0,0,1-22.58.25l0,.06a1.21,1.21,0,0,0-.05.18c0,.08-.08.21-.11.29s0,.18,0,.25c0,.38,0,.83,0,1.21a2.13,2.13,0,0,1-.1.49,1.56,1.56,0,0,1-.58.64l.37.53c-2.34,3.51-6.81.92-9.93,0-3.39-2.6-10.16-.56-12.75-4.88a7.26,7.26,0,0,1-.84-2.36l-1.37-2.4c-5-2.64-10.48-4.35-15-8.41l-4.26-2.44c-2.66-1.78-6.24-3.63-5.61-8.22l-.11,0H577l-.21,0-.11,0h-.05l-.1,0-.11,0-.1,0c-.73.21-1.15,1.21-1.74,1.42l-.05.06h-.1l-.06,0h0l-.1,0h-.06l-.1-.08-.11,0-.1-.09-.11-.09-.1-.08a3.07,3.07,0,0,1-.26-.25l-.11-.15c-1.23-2-1.23-4.83-2.94-6.43a4.21,4.21,0,0,0-.58-.44c-.39,1.36-.38,3-1.36,4-2.91-2.5-6.21-5.09-8.35-8.83a2.9,2.9,0,0,0-.52,1.29,10.1,10.1,0,0,1-.27,2.82c-3.49-2.17-3.26-7.36-7.56-8-.56,1.07-.42,3.24-.42,4.2l0,.05a1.73,1.73,0,0,1-.31.19,2.69,2.69,0,0,1-.32.13h-.31l-.16,0-.11,0-.1,0c-1.53-.63-3.18-3.71-5-4.6a3,3,0,0,0-.58-.18c-.12-.17-.24-.35-.37-.52-1.36,1.59.19,3.56-1.36,4.9-2.53-2-5.26-5.54-8-3.7.19,3.58.79,6.28-1.52,8.64a3.22,3.22,0,0,0,1,1h.06a.71.71,0,0,0,.21,0l0,0,.16,0h.05l.16,0c1.22-.26,2.11-2.68,3.36-3.1,1.66.17,3-1.89,4.56-2.15a2.29,2.29,0,0,1,2,.85,4.12,4.12,0,0,1,.05,2.38c-.5,1.42-1.92,2.22-2.41,3.54a2.51,2.51,0,0,0-.11.23v.06s0,.14-.05.18c1.46,1.27,2.51,1.62,3.25,1.43l.16,0,.11-.05.15-.09.06-.06c1.51-1.16,1.66-5.28,3-6.8l.1-.1a2.78,2.78,0,0,1,.27-.21l.15-.09.11,0a1.33,1.33,0,0,1,.21-.09c.83-.16,2,.38,3.73,2a.78.78,0,0,0,0,.14,2.31,2.31,0,0,1,.1.28,3.33,3.33,0,0,1,.11.53c.25,1.91-1.24,3.3-1.37,4.51v.38a1.66,1.66,0,0,0,.06.21l.05.07a1.39,1.39,0,0,0,.1.21l.06.08a2.38,2.38,0,0,0,.26.31,4.76,4.76,0,0,0,1.15.75c1.55-1.82,2.57-4.44,5.1-4.64.77,1.36,1.36,3.36.57,4.4-.2.32-.49.51-.63.77l0,.11v.07l0,.05v.32s0,.11,0,.14v.06l0,.14.06.08c3.68,3.58,5.41-5.52,10.08-.52.19,2.65-.6,4.16.57,6.06,2.52-.19,4.86-3,7.77-.47.07.07.19.16.27.25l.05.08c1,1.53,1.47,5.63,2.78,6.91l.11.09c.59.44,1.4.38,2.46-.69,3.7.79,6.8,5.72,10.5,3.66,2.53-.62,4.72.71,8.14,8.78q26.21,6.63,52.4,13.32c8.26-7.2,18.59-7.55,27.93-5.57l.05-.05c.17-.15.38-.29.52-.4a1.21,1.21,0,0,0,.16-.16l.05-.05v-.32c-10.11-6.17-16.33.05-26.25-1.86-.25-.84-.89-1.71-1.15-2.42a1.21,1.21,0,0,1,0-.14s0-.05,0-.07,0-.19-.06-.26v-.13C655.46,391.59,655.44,391.5,655.45,391.45ZM634.87,395l0,.05a1.57,1.57,0,0,1-.21.28c-.84.66-2.61-.36-3.78-.38l-.37-.59h.16l.16,0c.69-.14,1.68-.87,2.52-1l.21,0,0-.05.11,0,.1,0,.11,0,.15.1.16.09.11.09.05.08,0,.07.16.23s.08.12.1.15a5.24,5.24,0,0,1,.27.69A1.34,1.34,0,0,1,634.87,395Zm6.78,1.54s0-.06-.06-.07a4,4,0,0,1-.26-.32l-.05-.07a.78.78,0,0,1,0-.14,2.64,2.64,0,0,1-.27-.89,9.53,9.53,0,0,0,2.68.39,3.73,3.73,0,0,1,1.37.43l.15.09a3,3,0,0,1,.37.34,2.12,2.12,0,0,1,.26.38,3.34,3.34,0,0,1,.42,1.11A5.71,5.71,0,0,1,641.65,396.56Z" style="fill: #ffea0f"/>
    <path d="M631.41,278.37c-2.14-1.4-4.84-1.5-6.2-.14-.51.56-1,.79-1.31.74l-.16,0-.1-.09-.16-.1-.1-.09-.06-.07s-.12-.11-.15-.16l-.06-.08c-.69-1-1.15-3.08-1.83-3.79a1.57,1.57,0,0,1-.42,0c-.7,0-1.27-.53-2.05-1.08l.37-.37a17.77,17.77,0,0,0-2.26-.56,11.5,11.5,0,0,0-5.15.1c-5.83.86-6.39,9.24-7,16-.39,2.7-2.07,4.94-2.31,7.23l.37-.31s0,0,0,0l.11,0a2,2,0,0,1,1.26.59,2.77,2.77,0,0,1,.31.45.22.22,0,0,1,0,.08s0,.11.06.14a.3.3,0,0,0,0,.07c0,.07,0,.19,0,.27,1.26,1.12,2.76,2.53,4,2.65a1.81,1.81,0,0,0,.47,0,1.44,1.44,0,0,0,.32-.13l.21-.14a3.34,3.34,0,0,0,1.05-1.75,1.58,1.58,0,0,1,1.42.56,3.14,3.14,0,0,1,.31.51c-.35,1.25-.08,3-.79,3.86l-.15.16a2.34,2.34,0,0,0,.1.4s.09.12.11.15.11.18.15.23l.11.09.16.16.15.1c.28.16.62.29.9.45l.15.09.16.1a2.41,2.41,0,0,1,.21.24l.11.15c4.86,3,7.35-1,10.86-3.06.78-4.81-4.48-11.63-2.15-17,2.15-3.08,4.88-.38,8.19-.83a8.93,8.93,0,0,0,.89,2c.07.11.19.28.27.38a1.84,1.84,0,0,0,1.57.85A9.69,9.69,0,0,0,631.41,278.37Zm-13.23,4a4.66,4.66,0,0,1-1.73-4.66,1.31,1.31,0,0,1,.26-.33l0,0,0-.05.11,0,.05-.06,0,0,.06-.06.15,0c.91-.08,2,1.52,2.73,2.58C620.36,281.44,618.76,281.79,618.18,282.39Z" style="fill: #ffea0f"/>
    <path d="M745.16,362.91c-9.91-7.76-20.22-20-29.74-29.24-6,.44-10.7-6-15.76-9.63v0c-2.33-.75-2.52-5.26-5.25-3.94-.78,2.2.79,4.66,1.76,7,6,5.28,10.88,13.85,17.11,18.19,3.88,4.35,8.55,3.16,13,5.94,11.28,12.63,23.34,19.2,34.62,31.18C757.22,374.41,749.83,370.43,745.16,362.91Z" style="fill: #ffea0f"/>
    <path d="M671.28,317.36a11.32,11.32,0,0,0-5.25,4.28c-9.72,4.31-19.06,11.52-29.93,12.7a77.18,77.18,0,0,0,4.07,21.71c2.91,1.08,4.66-1.37,7-1.34,9.91-8.95,27-16.63,28-34.41A5,5,0,0,0,671.28,317.36Z" style="fill: #ffea0f"/>
    <path d="M753,378.57c-4.86-4.92-9.53-8.42-14-13.06-5.83-3.26-10.11-12.6-16.53-12.94a1,1,0,0,0,.4-.87c-5.25,2.75-12.45-7.46-17.9-11.67-.57-1.53-1.16-.47-1.73-.84l.77,1.12c-.59,2.49,2.13,7.08,4.08,10.31,1.74,2.72,6.41,6,5.05,9.55-4.67-4.73-8.94-10.6-10.89-17.16-1.17-.69-1.93.08-2.9.13-2.34-1-4.67.43-5.84-2.88-1.55.16-2.91,2.46-5.25,1-3.1-6.81-4.86,3.22-7.77-.71-1.56-2.7-7.59,1.22-6.23-4.39l4.08.39c3.89,4.15,4.48-2.36,8.55.16,2.53,4.32,4.48-.47,6.61-.75,0,1.18,1.36,1.46,1,2.82,3.31,1.17,6,2.46,8.37-.4h0c-3.5-5.69-9.73-8.88-10.7-15.49a15.91,15.91,0,0,1-14.37-.9c-2.34,8.49-4.48,16.31-11.87,20.88-7.58,6.18-14,16.15-24.3,16-1.17,3.05.78,7.74,1.16,11.82-.19,1.64,2.14,2.63,1.75,4.65,2.14,1.66,1.75-2.21,3.12-2.87,1.36-1.12,2.33,1.22,3.5,1.72.37-1.35.37-2.78,1.35-3.52,1.17-1.13,3.3-.22,4.67.56q.09-2.94.19-5.87c2.53-1.36,1.94,3.26,3.49,4.08,2.34-.93-.19-6.23,2.93-5.76-.2,3,2.13,2.35,3.5,4.05,1.93-1.47,1-5.23,2.71-6.51,1.17.95,1.17,2.13,1.17,3.57l.58.12-.39-.56c1.55-5.35,8.56-.55,10.88-5.26,2.93-.09,3.9,4.86,5.65,6.64,1.36-3-1-8.72-.79-12.46l1.17.25a43.85,43.85,0,0,1,2.34,12.78c3.5,3.11,5.44,8.47,9.13,9.23-.19-.24-.38-.55-.57-.59-.2-5.45-4.48-11.09-5.06-17.13.58-.35.77-1,1.55-.63,1,6.14,4.86,11,5.84,17.55,5.06,2.7,8.35,10,13.4,13.41,0-.73-.39-1.52.19-1.88-5.44-8.65-11.47-15.59-14-25.79a1.3,1.3,0,0,1,1.76-.36c2.91,8.89,7.39,15.49,13,23,.2.76,1.17,1,1.36.27l6.42,8.86c1.17,1.19,1.76-1.07,2.72-1.81-3.49-6.12-10.11-13.61-11.47-19.81.39-.4.78-1,1.36-.68,3.69,8.31,10.7,16.35,15.36,23.66,2.33.94,5.84,4,7.77,1,3.12.12,6,3.27,8.76,5.92.77-.33.58-1.54.58-2.51C736.42,389,727.29,372,717.17,358.84v-1.41c.39-.64,1.17-.49,1.76-.82,3.89,10.25,12.05,15.89,17.49,25.44,5.45,6.05,11.48,13.56,17.9,16.16,2.13,2.52,3.1-.6,3.89-2.11-6.81-8.81-15.76-16.9-23.53-25.25-.39-1.05-2.15-3-.58-3.66,8.94,8.35,17.5,18,26.24,27.64l1.36.49c1.36-.23,1.36-2.61,1.36-4.27C760.72,384.47,757.61,382,753,378.57Z" style="fill: #ffea0f"/>
    <path d="M611.19,346.42v0Z" style="fill: #ffea0f"/>
    <path d="M603,336.85c.4,1.49-1.16,2.11-1.94,1a4.46,4.46,0,0,0-3.5,3.5c-.77,2-1.94,4.07-1.75,6l-1.16.45.38.56c-3.89,7.69-2.13,17.77-5.63,25.77l1.74.37c0-3.79,2.53-7,4.67-9.42,2.15,4.25-2.52,6.79-2.91,10.49,1.36.78,2.91,1.8,4.27,1.89-.79-1.14,0-2.14.38-3,2.72.82.19,2.88,1.95,4.67,6.61,5.46,2.33-6.34,5.63-6.35,1.17,1.91.78,4.92.4,7l2.13.46c1.17-10.89,3.31-21.76,3.5-33.79C609.45,342.26,606.92,337.92,603,336.85Z" style="fill: #ffea0f"/>
    <path d="M641.59,376.49l-.05-.14v-.58a.54.54,0,0,0,.05-.11s0-.06,0-.07l.06,0a.75.75,0,0,1,.1-.17l.11-.1,0,0,.05-.06a2.56,2.56,0,0,1,.37-.17c-4.87-9.12-1.77-18.89-7.4-27.68a36,36,0,0,0-6.72-2c-1.06-.22-2.27-.43-3.78-.76-1.95.51-2.18,3.07-2.37,4.92,2.33,12.1.82,23.62,3.73,35.37a5,5,0,0,0,.37.66c.09.13.22.28.31.39l.11.08.1.09a2.11,2.11,0,0,0,.27.18c1.18.68,2.59-.13,3.88.15-.12-.58-.24-1.16-.37-1.74.15-2.16-1.67-5.77-.89-7.48a1.63,1.63,0,0,1,.37-.5,2.17,2.17,0,0,1,1.1-.39c1.55,3.65,1.34,7.37,1.73,11l10.92-1.13c-1.17-2.63-.61-6-1.78-8.89A4.23,4.23,0,0,1,641.59,376.49Zm-2.41,9.18,0,.06-.06,0-.05.05a.58.58,0,0,1-.26.13,1.14,1.14,0,0,1-.32,0l-.63-.14c-.29-1.49-1.33-3.43-1.1-4.84a2,2,0,0,1,0-.24s0-.14.06-.18a1.73,1.73,0,0,1,.21-.34,1.86,1.86,0,0,1,.42-.42c1.56,1.3,1.33,3.83,1.73,5.81C639.17,385.62,639.18,385.66,639.18,385.67Z" style="fill: #ffea0f"/>
    <path d="M621.3,366.36c-2.32-1.93-6.8-.05-9.71-2.81-1,5.7-1,12.08-1.55,16.7,2.72,2.23.78,5.6,1.75,7.94l2.9.64v-2.62a2.77,2.77,0,0,1,2.15-2.36c1,1.38.19,3.6,0,5,2.53-1.1,4.46,4.28,7,3.42.39-.87,1.95-1.47,1.36-3.25C621.69,382.06,621.5,373.72,621.3,366.36Z" style="fill: #ffea0f"/>
    <path d="M606.33,383.22v4.27l3.11.67-.39-5.54C608.09,382.67,607.5,383.93,606.33,383.22Z" style="fill: #ffea0f"/>
    <path d="M763.14,417.6c-16.24-16.3-26.46-16.21-34.32-13.92-6.27,1.82-11.72,7.51-13.85,10-66.56-14.18-133.13-30.82-199.69-44.14-2.2-4.79-8.07-16-15.93-18.51-8.42-2.74-13.92-3.45-20.62.18-5.3,2.86-17.7,9.67-24.36,38.67s-6.8,44.46-4.93,61.61c.32,3,8.23,72.88,38.45,128.5,25.1,46.25,49.78,80.53,73.36,101.53,14.87,13.17,56,40.42,57.79,41.59l.83.55.86-.07c2.24-.23,55.27-4.58,96.71-49.63,40.53-44.17,47.78-64.51,58.75-94.85.33-.9.65-1.79,1-2.69,9.76-27.06,13.22-53.42,10.57-80.46C786.36,481.94,780.56,435.07,763.14,417.6Zm8.63,155.15c-.32.89-.65,1.78-1,2.68-11.11,30.68-17.81,49.47-57.6,92.76-37.44,40.66-86.07,47.26-93,48.09-6.08-4.07-42.77-28.59-56.09-40.39-22.52-20.08-47.24-54.53-71.49-99.29-29.34-54.07-37.31-124.45-37.39-125.22-1.77-16.26-1.55-31.11,4.79-58.82,6-26.24,16.59-32,21.66-34.75a14.53,14.53,0,0,1,10.49-1.61,48.6,48.6,0,0,1,6.5,1.73c5.51,1.78,10.78,12.14,12.35,16l.82,2c68.61,13.61,137.23,30.85,205.84,45.4l.89-1.15c.06-.07,5.92-7.59,12.43-9.48,6.76-2,14.93-1.83,28.88,12.19,12.22,12.29,19.41,45.7,22.06,72.93C784.46,521.61,781.14,546.81,771.77,572.75Z" style="fill: #ffea0f"/>
    <path d="M774.1,503.52l-1.26-10,3.21-2.26s-2.56-5.53-3.21-7.58-1.31-6.17-1.31-6.17l6.51-1.63s-7.48-9.16-12-13.14c-4.36-3.79-12-9-13.76-11a2.17,2.17,0,0,1-.15-.22c-1.29-1.82-5.2-7.68-5.2-7.68s-3.48-1.91-5.09-1.29l-.27.14-.1.05-.05.05-.06.06c-1.89,1.83-23.29,18.77-24.25,20.4-.65,1.45-2.59,9.4-3.57,11.16s-4.22,6.58-5.83,9a18.84,18.84,0,0,0-2.26,4.64,7.86,7.86,0,0,0,1.84,1.59l.05,0,.21.1h.06l.1,0,.11,0,.15,0,.06,0c1-.19,5.2-1.31,6.82-.21a9.26,9.26,0,0,1,2.57,2.88l-4.2-.85c-2.59-.52-7.76,1.56-9.71,3.12a27.51,27.51,0,0,1-6.14,3.08l-1.31-1,9.08-6c-.21-.25-1.9-2.18-2.84-1.8l-.1,0c-1,.56-6.8,2.5-9.4,3.54a16.48,16.48,0,0,0-4.83,3.33v1.08c-.49-1.12-8.49-19-20.42-22s-19.94,12.32-20.42,13.28l-24.63-10.1.63,3.33-14.22-4.31,7.08-1.2.69,1.74,4.2-.68-22.68-12q-1.14,3.31-2.26,6.61l-6.2-2.1q-2.57-29-5.14-57.9s.94-2.79.26-4.67l-.05-.14-.16-.29-.16-.22a2.41,2.41,0,0,0-.21-.24,2.73,2.73,0,0,0-.89-.57,2.61,2.61,0,0,0-.42-.16l-.1,0h-.06l-.1,0h-.05l-.06,0h-.26v.06l-.21.09-.21.08a1.13,1.13,0,0,0-.52.78c-.29,1.77,1.57,5.45,1.57,5.45q1.44,28.71,2.89,57.41l-4.52-1.35-1-18.35-7.09-.74v14.63l-7.14-1.5-4.88,4.48q-.48-8.59-1-17.19l10,1.33c-.32-1.77-.63-3.54-.95-5.31l-9.81-.84q-1.11-14.64-2.21-29.27l-3.57-.73q.35,26.1.68,52.21-4.38-1.71-8.76-3.39l-6.15-36.31-2.62-.15-1.26,1.29-7.14-2.18v11.82l8.4,3.26q2.13,12,4.25,24.1a5.67,5.67,0,0,0-2,.62.75.75,0,0,0-.15.09l-.06.06,0,.05-.05.05a1.6,1.6,0,0,0-.16.23l0,.05v.06l-.05.06a1,1,0,0,0-.06.18v.57l.06.14s0,.05,0,.07c.65,2.11,3.88,7.1,3.88,7.1q9.24.9,18.48,1.87l2.63-3q1.59,1.9,3.2,3.8l6.19,1.75c.76-1.16,1.51-2.32,2.26-3.48l4.52,4.09s11.67-1.86,16.53-.8,89.09,22.15,89.1,22q-1.46,2.48-2.89,4.95c0,.4.52,3.69,3.25,4.65,2.93,1.12,52.5,11.12,52.5,11l-2.94,9.71,1.32,7q-2.93,4.38-5.83,8.77l5.51,1.45q-4.07,6.27-8.14,12.53l5.2,1.85-5.2,5.31,7.46,1v22.1l3.88.37v-7.92l5.2,1c-.1,2.75-.21,5.5-.31,8.24l5.19,1v-12.2l2.89.92V594.7l3.57.66q.81-17.22,1.63-34.46l4.51,4.4-.63-9.57,2,0s-4.57-9.93-4.57-13.86-.32-8.75-.32-8.75l3.57,2.63q1.14,2.56,2.26,5.13c-.52,1.61-1,3.22-1.57,4.83l3.88-1.29q-.35,17.7-.68,35.41l-4.52,6.66,4.2-1.61c.34,1,.67,2,1,3l4.83-10.65V545.63q.66-4.82,1.31-9.61l5.2.12c.11-1,.21-2,.32-3.07l-4.89-4.42,5.2-2.62-3.88-5.46-.69-10,4.89-4.28C777.36,505.4,775.73,504.47,774.1,503.52Zm-33,73.2-1.31-1c-.11-2.15-.21-4.3-.32-6.45l1.95-1.55,4.2,2.4.36,1.6Zm1-32.9,1.57,3.49L742.39,553l-1.94-.76v-6.7Zm-.37-4.42v-6.71q1-2.37,1.94-4.74l2,5.1c-.53,1.6-1.05,3.21-1.58,4.81Zm1.63,17.31c.44,1.25.87,2.51,1.31,3.76l-1,1.79-3.2-1Zm1.31-43.52a7.73,7.73,0,0,0,.63,6.38c-.31,1.39-.63,2.78-.94,4.17l-1.63-.31v-2.37a7.89,7.89,0,0,0-1-4.53l-.05-.07,0-.08-.21-.29-.06-.08c-1.13-1.3-2.63-.64-3.57-.62l-.1,0h0l-.11,0c-1-.19-3.88-3.12-3.88-3.12a6.56,6.56,0,0,0-2.26.71l0,.06-.11,0h-.05l-.11,0h0c-1-.12-2.66-2.54-3.52-4.78a67.78,67.78,0,0,1-1.94-9.07l-1.63.51-1.62-2.31,6.82-5.35c.11,1.06.21,2.12.32,3.19l-1.95,2.36a50.22,50.22,0,0,0,.63,6.45,7.62,7.62,0,0,0,3.89,5.88l2.94-2.18,2.26,4.4,4.51,1.63,1.63-4.8s-7.46-5.41-9.08-8.07a4.37,4.37,0,0,1-.42-.91c-.81-2.46.58-5.15,1.73-6.31a9,9,0,0,1,2.41-2.15l.27-.08s0,0,0-.06h0l.1,0h.16l.26.05h.06l.26.11h.1l.06.08h.05l0,.07h.05l.06.07a.78.78,0,0,0,.1.15l0,.08a2.58,2.58,0,0,1,.21.48,8.35,8.35,0,0,1,.27,2.74l-2.31,5.49c.43.6.87,1.2,1.31,1.79l4.51,3.67q.83-4.19,1.63-8.38l1.94-.78a43,43,0,0,1,.69,5.24C747.91,503.93,745.94,509.89,744.65,513.19Zm5.83,63-1.63-.76v-13l3.26,1.37Q751.28,570,750.48,576.2ZM752.11,556c-.76-1.74-1.51-3.47-2.26-5.21l1.26-11.14,2.94,1.31s.31,4.83.31,6.39S752.11,556,752.11,556Zm-2.26-36.33,3.88-1.25-.31,5.82q-1,3-1.94,6l-.69-1.66C750.48,525.58,750.16,522.62,749.85,519.66ZM756,492.82c-2.59,7.4-3,10.88-2.62,14.08a53.92,53.92,0,0,1,0,7.48l-1.58-.68q-.49-3.63-1-7.28c-.31-1-.63-1.94-.94-2.92,0,0,.94-6.56.94-9.73s-1.94-9.37-1.94-9.37-10.34.36-12.28,1.18-6.51,1.92-6.51,1.92l-.63-2.55s14.05-3.48,15.22-4.15c1-.6,3.57-.09,3.57-.09q1-4.54,1.94-9.09s-2.25-3.19-2.25-4.39c0,0,0-.06,0-.06V467A.12.12,0,0,1,748,467c.59-1.18,4.51-3.2,5-3.47-.51,1-1,1.9-1.52,2.85l2.88,4.43s-1.11,6.54-.42,9.06v.06l.06.14a1.12,1.12,0,0,0,0,.13C755,482.34,758.58,485.41,756,492.82Zm7.46,38.79-4.89-12.7,3.89-1.66q-2.58-6.4-5.15-12.82l5.15-2.2a58.39,58.39,0,0,0-3.2-6.9c-1.94-3.49.31-9.78.31-9.78a8.07,8.07,0,0,0,.32-5.82c-.89-3.38.38-5.1.63-5.38v-.07a20.66,20.66,0,0,1-.32-5.55,3.85,3.85,0,0,0,0-.5V468c-.25-2.05-2.31-4.93-2.83-5.63.33.24,2.28,1.58,3.46,2.48,1.3,1.06,1.26,3.42,1.26,6.94a23.63,23.63,0,0,1-.63,5.76l2.26,5.2L766,478l1.63.29q-1.95,4.41-3.89,8.83s0,.06,0,.07l.06.07a.92.92,0,0,0,0,.08,2.09,2.09,0,0,0,.21.23l.1.08a3.43,3.43,0,0,0,1.47.58l.11,0,.1,0,.21.1c1.17.66,1.49,3,1.53,3.34,0,0-.32,5.5-.32,9.84a5.38,5.38,0,0,1-.52,2.53,3.15,3.15,0,0,1-.42.56l-.06.06a2.9,2.9,0,0,1-.57.41,2.77,2.77,0,0,1-1.16.24l-.1,0a25.32,25.32,0,0,0,2.2,2.82c1.29,1.39,1.58,5,1.58,13.63C768.28,530.2,763.73,531.54,763.45,531.61Z" style="fill: #ffea0f"/>
    <path d="M729.11,584.3l.63,6.83,3.57-.51L733,573.24l-1-1-3.89,4.41,1.32,1.41-1.95,1.21-2.25-5.17q-2.29,4.65-4.57,9.31l2.31.46c-.33,1.92-.67,3.83-1,5.74l-6.46-1.29s.3-7.85.63-15.27,10.35-30.64,13.92-34.29A12.6,12.6,0,0,0,733,527.5l-.06-.14a2,2,0,0,0-.1-.21l-.05-.08-.21-.29c-1.71-2-7.45-4.79-10.61-5.42-3.56-.71-7.15,1-10.39-1.27s-9.83-2.11-11.5-1l-.05.05-.11,0,0,.06a3,3,0,0,1-.32.19c-1.85.93-7.41.28-11.6-3.52-4.54-4.09-9.1-3.11-12.34-3s-6.16-.93-9.39-4.76a8.28,8.28,0,0,0-9.72-2.1l-.1,0-.11,0c-1.58.65-6.06-.44-8.82-3.25-2.92-3-4.87-2.65-11.34-3.3s-6.19-2.52-10.08-5.33-13.29-.89-18.48-1.6-5.51-2-11-8.32a9.37,9.37,0,0,0-5.3-3.45h-.06l-.21,0h-.05l-.1,0h-.06l-.1,0h0a.94.94,0,0,1-.16,0c-3-.14-5.53,1.94-7.51,3.45a1.39,1.39,0,0,0-.21.21l-.1.1c-2.63,3.09.7,14.69,2.25,23.36,1.63,9,14.28,34.24,14.28,34.24l6.15,15.52a11.08,11.08,0,0,0-2.58,3c-1,1.75-3.59,8.67-2.94,17.89s7.48,14.2,10.4,16.82,9.71,2.88,9.71,2.88l2.26,2.85q-19.92-5.52-39.85-11,1.44-6.6,2.89-13.19l2.31-5.76s1.25,9.67,1.57,11.32c0,0,0,0,0,.07l.11.27a2.32,2.32,0,0,0,.16.36l0,.07.1.15s.08.12.11.15a2.87,2.87,0,0,0,.37.4,2.69,2.69,0,0,0,1.78.77l.16,0,.1,0,.11,0,.16-.16.05-.05c.64-1,.94-6.12.94-12.83s.33-24.79,0-29.59a7.27,7.27,0,0,0-3.88-6.32q-5-1.47-10-2.91a19.72,19.72,0,0,0-.31-3.65v-.06L579,529a2,2,0,0,0-.1-.21c-.75-1.28-3.61-3.3-5.67-4.46-2.27-1.25-15.22-5.11-19.11-5.9s-14.92-.73-23.68-2.85-23.31-.89-23.31-.87q-2.91-3.48-5.83-7l-3.25,2.54-4.25-.38c.43,2.31.87,4.63,1.31,6.94,0,0-2.56,14.94-3.2,17.2,0,.06,0,.18-.06.24a4.13,4.13,0,0,0-.05.63V535c.19,2.38,2.62,5.94,4.31,7.28a14.94,14.94,0,0,0,5.51,2.14l3.15-3.19a6.17,6.17,0,0,0-.26,1.8,14.66,14.66,0,0,0,1,4.09s4.41,2.73,6.09,2.73h.06c1.62-.11,5.82-.12,5.82-.12s2.91,8.83,4.2,12.63-.31,14.57-.31,14.57-4.88.05-6.46,1.13l0,.05-.21.22,0,0-.06.06a.58.58,0,0,1,0,.11,1.33,1.33,0,0,0,0,.19v.32l0,.07a1.53,1.53,0,0,0,.11.27.58.58,0,0,0,0,.14l.05.14,0,.07.06.08a12,12,0,0,0,6.56,3.81c3.57.68,13.64,3.41,21.73,5s24,4.1,31.08,5.21,15.26,1.71,23.37,3.46,27.52,7.51,32.39,8.58,21.08,6.19,25.62,7.17,23.65,5.55,28.19,6.88,29.81,10.12,32.08,10.16a3,3,0,0,0,1-.17,1.71,1.71,0,0,0,.52-.28l.11-.1.1-.11.06-.05c0-.06.12-.17.15-.23a1.81,1.81,0,0,0,.16-.35l.11-.23v-.39l-7.46-4.64s-14.34-2.19-15.54-2.57H695V621h.05c.22,0,.78,0,1.63.15,7.77.81,14.54-6.48,16.17-10.86s.63-14.88.63-14.88a41.13,41.13,0,0,0,5.2,1.81c1.6.33,6.18.85,9.08,1.81s4.88-.21,6.82-1.79a23,23,0,0,1,3.57-2.44l-10.71-3.3C728,589.07,728.57,586.69,729.11,584.3ZM502.26,529.18c0,.08,0,.19-.05.25a2,2,0,0,1-.16.29l-.11.11a1.64,1.64,0,0,1-.47.3,3.49,3.49,0,0,1-1.15.23,2.61,2.61,0,0,1-.63-.56,1.94,1.94,0,0,1-.21-.29,2.16,2.16,0,0,1-.27-.62,1.85,1.85,0,0,1,.11-1.07c.52-1.19,2.15-1.39,2.73-1.42a.37.37,0,0,1,.21,0Zm12,6.89a1.81,1.81,0,0,1-.53.41.87.87,0,0,1-.26.08l-.1.05h-.06l-.1,0h-.11a1,1,0,0,1-.26-.18l-.1-.08a.65.65,0,0,1-.11-.09s-.62-2.89.68-3.45a2.25,2.25,0,0,1,.79-.17,3,3,0,0,1,.32.06,2.62,2.62,0,0,1,1,.45l.16.09A6.49,6.49,0,0,1,514.23,536.07Zm12,38.4c-.29-2.07-2.58-18.36-3.52-20.11,0,0,0-.05,0-.06-1-1.37-2.94-7.28-2.94-7.28l6.46-1.5c.54,1.56,1.08,3.11,1.63,4.67Q527,562.32,526.2,574.47ZM541.11,580q-4.7-1.56-9.4-3.09.81-9.9,1.63-19.8l7.77,9ZM557,583.66l-7.14-1.08a35.39,35.39,0,0,1-1.63-5.44c-.32-2,0-13,0-13q7.46,1.33,14.91,2.69Q560.09,575.22,557,583.66Zm18.48,3.48-11.34-2,6.45-25.48c.34,1.9.67,3.81,1,5.71l6.77,6.22Zm31.44-18.48,5.83,3.63-.68,1L606,570Zm-2,5.06,6.51,3-6.51-.26Zm2.62,12L606,582.24l6.45-1,.69,2.12Zm6.46,6.14-3.2-2.3,3.2-3.2c.44.61.88,1.21,1.31,1.82C614.91,589.41,614.47,590.63,614,591.86Zm-.63-23-3.88-3.6c.31-.71.63-1.43.94-2.15l6.51,2.95Zm8.77,21.2-2.31-6.76,4.88,1.06c.11.81.21,1.62.32,2.43Zm1.26-9.18-3.2-1.08q1-2.73,1.94-5.46,1.44,1.89,2.89,3.76Zm1-8.86c.64-1,1.29-2.06,1.94-3.09l2.89,1-.63,7.33Zm5.51,25.68-4.2-1.3c.65-1.57,1.29-3.13,1.94-4.69l2.57,2.92C630.15,595.64,630,596.67,629.94,597.69Zm1-12.11v.32c0,.05,0,.14,0,.18l-.06.18a1.73,1.73,0,0,1-.1.24l-.11.17-.1.1a1.64,1.64,0,0,1-.26.2l-.21.08a.75.75,0,0,1-.21,0l-.06,0-.1,0-.11,0-.1,0h-.11l-.1-.09a2,2,0,0,1-.79-.74c0-.1-.11-.24-.16-.36l-.05-.14,0-.14s0,0,0-.06v-.19s0-.1,0-.14,0-.06,0-.06a.57.57,0,0,1,0-.13l0-.12v-.19l0-.12.05-.11.06-.12a.61.61,0,0,1,.05-.12l.16-.22a1.28,1.28,0,0,1,.26-.2l.1,0s.11-.08.16-.09.08,0,.11,0h0l.1,0h.11l.1,0,.11,0,.1,0h.06a1.43,1.43,0,0,1,.26.19,3,3,0,0,1,.26.24,2.62,2.62,0,0,1,.37.6s0,.1.05.14l0,.13.06.14v.07l0,.14Zm1.52,12.28-.31-5.56,1.62.36c.32,1.51.63,3,.95,4.55Zm.32-18.07c-.11-.68-.21-1.37-.32-2q.66-3.21,1.31-6.42c1,1.27,1.93,2.55,2.89,3.82l-1.94,5.07Zm4.88.3,1.94.42.32,6-3.89-.47-.63-2C636.2,582.65,637,581.37,637.71,580.09Zm1.63,13.7-4.2-2.06.63-3,4.51,2.14ZM671.1,579c.1-.89.21-1.78.31-2.68l2.26,1.25c-.44,2-.87,4-1.31,6Zm3.2,20-1.63,1.18v-4.73l2,.43C674.55,597,674.42,598,674.3,599.06Zm8.77,5q-.66-2.49-1.31-5l4.88-.18.63,2.49Zm3.57-11.89c.1,1,.21,1.92.31,2.88l-4.51,1c-.11-2.77-.21-5.54-.32-8.31Zm-3.89-6.7,2.58-4.18,2.25,6-.63,1.46Zm5.2,26.33-2.31-1.7c.88-1,1.75-2,2.63-3Zm5.51,2.7-2.94-.62,1.32-4.39,1.62,1.11Zm-4.88-33.36,3.89-.33,1,7.68-2.94.15Q689.56,584.88,688.58,581.13Zm6.51,19.13a1.74,1.74,0,0,1-.84-.43l-.16-.16-.1-.15-.21-.3a2,2,0,0,0-.11-.21,4.32,4.32,0,0,1-.36-1.17,4.17,4.17,0,0,1-.06-.71,3.59,3.59,0,0,1,.42-1.77l.06-.05a1.64,1.64,0,0,1,.68-.56,1,1,0,0,1,.21-.08s0,0,0,0,0,0,.05-.06l.11,0h.1l.16,0a2.09,2.09,0,0,1,.21,0l.16.09h0l.21.17a3.07,3.07,0,0,1,.68.85c0,.06.12.21.16.29a4.59,4.59,0,0,1,.32,1.73,3.85,3.85,0,0,1-.06.69,3.16,3.16,0,0,1-.36,1l-.11.17-.21.21-.1.1-.16.1A1.25,1.25,0,0,1,695.09,600.26Zm.32-11,.63-8.11,1.62,2.26c-.43,2.14-.87,4.29-1.31,6.43Zm1.26,23.14-.63-8,2.25-.3,2,7.11ZM699,590.46l2.25-5.47c.55.9,1.09,1.8,1.63,2.7l-2.62,3.8Zm5.14,12.89-2.89-1.05v-2l3.21,1.11C704.33,602.07,704.23,602.71,704.12,603.35Zm1.31-6.44-4.51.6c-.12-1.32-.25-2.65-.37-4l5.2.62C705.64,595.08,705.54,596,705.43,596.91Zm0-15.78c-2.6-1.71-5.81-2.79-13.59-4.42-7.53-1.58-12.36,7.36-12.66,7.93l-1.62-1.12c.64-3.27,1.29-6.53,1.94-9.8q-21.53-3.79-43-7.71a46.47,46.47,0,0,1,7.09,6.66c3.23,3.84,6.45,12.84,6.45,12.84l-.94,1.39q8.26,2,16.54,4s-1.3,7.18,0,10.61,3.88,8.37,3.88,8.37q-13.94-3-27.88-6s5.18-6,5.83-8.63,1.63-8.27,1.63-8.27a21.9,21.9,0,0,1-1.94-4.77c-.66-2.51-2.92-5.78-5.83-9.57l0-.08c-3.09-3.78-18.43-8.68-18.43-8.68l-3.26-3.07c30,5.62,60.06,11.31,90.09,16.53l.69,10.75S708,582.83,705.43,581.13Zm-42.47.09c.12.82.25,1.63.37,2.45l-8.45-1.83c-.11-.94-.21-1.88-.32-2.82Zm-6.77-3.82v-4.35l.94-2.16,1.32,2.65v3.9Z" style="fill: #ffea0f"/>
    <path d="M637.36,544.21l-1.54-.46c-2.71-.8-4.3.14-5.12,1.42a13.07,13.07,0,0,0-1.83-1.56,15.71,15.71,0,0,1-1.36-1.08c-1.72-1.66-6.88-3.91-7.46-4.16a.81.81,0,0,0-1.13.71,1.51,1.51,0,0,0,.79,1.55c2.06.89,5.73,2.68,6.8,3.71a17.46,17.46,0,0,0,1.59,1.28c1.13.84,1.82,1.39,1.82,2v5.89a1.44,1.44,0,0,0,1,1.4c.53.11,1-.32,1-1V548.1c0-.38.46-3,3.81-2l1.56.46c3.89,1.13,5.12,1.64,5.33,4.68.31,4.68.32,6.29.32,6.3a1.41,1.41,0,0,0,1,1.39h0c.54.11,1-.32,1-1,0-.06,0-1.68-.32-6.5C644.15,546.19,641,545.28,637.36,544.21Z" style="fill: #002a86"/>
    <path d="M610.41,536.74l-5.83,1.89a1.11,1.11,0,0,0-.5,1.46,1.31,1.31,0,0,0,.89.9.78.78,0,0,0,.4,0l5.83-1.9a1.09,1.09,0,0,0,.5-1.45A1.13,1.13,0,0,0,610.41,536.74Z" style="fill: #002a86"/>
    <path d="M608.14,498.25l-1.81.48s4.86,16.06,6.81,22.37a80,80,0,0,1,2.53,14,1.4,1.4,0,0,0,1,1.28l.1,0c.54,0,.92-.45.87-1.11A81.7,81.7,0,0,0,615,520.61C613,514.3,608.14,498.25,608.14,498.25Z" style="fill: #002a86"/>
    <path d="M701.23,558.1a1.08,1.08,0,0,0,.32.13.79.79,0,0,0,.92-.61q2.6-8.75,5.18-17.47a1.52,1.52,0,0,0-.61-1.63.78.78,0,0,0-1.23.49q-2.59,8.73-5.18,17.46A1.52,1.52,0,0,0,701.23,558.1Z" style="fill: #002a86"/>
    <path d="M593.1,494c-2.58.94-3.24,6.21-3,8.83.34,4.22,4.79,14.9,5,15.35a1.27,1.27,0,0,0,.85.79.76.76,0,0,0,.47,0,1.18,1.18,0,0,0,.38-1.54c-1.24-3-4.49-11.29-4.74-14.38-.22-2.62.62-6.22,1.92-6.69.81-.3,1.85.88,2.57,1.93,4.72,6.75,5.46,10,5.24,11.52a59.49,59.49,0,0,0-.33,6.42,1.42,1.42,0,0,0,1,1.4c.54.11,1-.32,1-1a59.9,59.9,0,0,1,.31-6c.43-3-1.46-7.52-5.78-13.7C595.76,493.79,594.11,493.59,593.1,494Z" style="fill: #002a86"/>
    <path d="M623.45,535.93h.1c.53,0,.92-.44.87-1.11l-1.95-23.27a1.37,1.37,0,0,0-1.07-1.29c-.53,0-.92.44-.86,1.11q1,11.64,1.94,23.27A1.42,1.42,0,0,0,623.45,535.93Z" style="fill: #002a86"/>
    <path d="M679.9,556.06a3.52,3.52,0,0,0-3.57.72C674,558.9,674,564,674,564.26a1.43,1.43,0,0,0,1,1.39h0c.53.11,1-.32,1-1,0-1.2.32-4.6,1.71-5.88a2,2,0,0,1,2.11-.39.85.85,0,0,0,1-.88A1.46,1.46,0,0,0,679.9,556.06Z" style="fill: #002a86"/>
    <path d="M645.22,523.72c-.5-.17-1,.24-1,.89l-1,20.29a1.47,1.47,0,0,0,.92,1.45h0c.52.11.94-.28,1-.9q.5-10.15,1-20.29A1.46,1.46,0,0,0,645.22,523.72Z" style="fill: #002a86"/>
    <path d="M709.44,560.27c-.12,0-3,.2-5.24.52-2.65.37-4.27,6.18-4.56,7.34a1.51,1.51,0,0,0,.65,1.6,1.24,1.24,0,0,0,.28.11.79.79,0,0,0,.93-.66c.6-2.32,2-5.83,3.23-6,2.21-.32,5.1-.51,5.13-.51.53,0,.86-.6.74-1.26A1.28,1.28,0,0,0,709.44,560.27Z" style="fill: #002a86"/>
    <path d="M684.49,528.63c-.53-.2-1,.18-1.08.81l-1.95,19.71a1.48,1.48,0,0,0,.85,1.49l.12,0c.48.11.9-.25,1-.84l2-19.7A1.48,1.48,0,0,0,684.49,528.63Z" style="fill: #002a86"/>
    <path d="M695.88,557.08c-2.62-.05-7,.94-6.65,5s1,5.62,1.13,5.89a1.26,1.26,0,0,0,.8.7.72.72,0,0,0,.52-.07,1.21,1.21,0,0,0,.32-1.55,18,18,0,0,1-.83-4.8c-.19-2.36,3.65-2.81,5-2.79.53,0,.9-.52.81-1.19A1.3,1.3,0,0,0,695.88,557.08Z" style="fill: #002a86"/>
    <path d="M666,527.05c-.53-.18-1,.2-1.06.84q-.49,6.2-1,12.41a1.47,1.47,0,0,0,.88,1.48l.09,0c.49.11.92-.26,1-.86l1-12.42A1.45,1.45,0,0,0,666,527.05Z" style="fill: #002a86"/>
    <path d="M651.64,549.58a3.21,3.21,0,0,0-3.42,1.07c-1.88,2.35-1.13,7.43-1.1,7.64a1.38,1.38,0,0,0,1,1.17l.18,0c.53,0,.88-.55.78-1.21-.17-1.16-.39-4.45.69-5.79a1.77,1.77,0,0,1,1.92-.54c7.3,1.59,9,3.11,9.08,4.12.32,2.82.65,5.65.65,5.65l1.93.07s-.33-2.82-.65-5.64C662.24,552.58,658,551,651.64,549.58Z" style="fill: #002a86"/>
    <path d="M719.05,604l3.56.71c.54.11,1-.34,1-1a1.41,1.41,0,0,0-1-1.38l-3.56-.71c-.54-.11-1,.33-1,1A1.41,1.41,0,0,0,719.05,604Z" style="fill: #ffea0f"/>
    <path d="M719,610a1.39,1.39,0,0,0,1,1.3l.07,0,4.87.56c.53.06.94-.42.9-1.08a1.45,1.45,0,0,0-1-1.31c-1.63-.19-3.25-.37-4.87-.57C719.41,608.86,719,609.35,719,610Z" style="fill: #ffea0f"/>
    <path d="M744.77,601.55q-9.24.62-18.48,1.16c-.52,0-.86.59-.75,1.25a1.35,1.35,0,0,0,1,1.13.74.74,0,0,0,.21,0q9.22-.54,18.47-1.16c.53,0,.86-.6.75-1.26A1.24,1.24,0,0,0,744.77,601.55Z" style="fill: #ffea0f"/>
    <path d="M724.86,614a1.27,1.27,0,0,0-1.14-1.16l-10,.35c-.53,0-.87.57-.77,1.23a1.36,1.36,0,0,0,1,1.15l.19,0,10-.35C724.62,615.22,725,614.66,724.86,614Z" style="fill: #ffea0f"/>
    <path d="M734.43,621.79c-.85.36-5.84-1.59-10-3.66a.8.8,0,0,0-1.18.63,1.49,1.49,0,0,0,.71,1.57c2.16,1.08,6.58,3.18,9.37,3.73a3.43,3.43,0,0,0,2.06,0,1.17,1.17,0,0,0,.33-1.5A1.07,1.07,0,0,0,734.43,621.79Z" style="fill: #ffea0f"/>
    <path d="M607,545.32l5.83-1.89a1.09,1.09,0,0,0,.49-1.45,1.12,1.12,0,0,0-1.28-.88L606.2,543a1.1,1.1,0,0,0-.5,1.45,1.33,1.33,0,0,0,.89.9A.77.77,0,0,0,607,545.32Z" style="fill: #002a86"/>
    <path d="M614.21,545.67a1.15,1.15,0,0,0-1.29-.88l-5.83,1.9a1.09,1.09,0,0,0-.5,1.45,1.31,1.31,0,0,0,.89.9.78.78,0,0,0,.4,0l5.83-1.89A1.12,1.12,0,0,0,614.21,545.67Z" style="fill: #002a86"/>
    <path d="M615.84,552.49,610,554.36a1.1,1.1,0,0,0-.49,1.46,1.3,1.3,0,0,0,.89.89.74.74,0,0,0,.39,0l5.82-1.87a1.09,1.09,0,0,0,.5-1.46A1.13,1.13,0,0,0,615.84,552.49Z" style="fill: #002a86"/>
    <path d="M615.66,551.1a1.11,1.11,0,0,0,.49-1.46,1.12,1.12,0,0,0-1.28-.88L609,550.65a1.11,1.11,0,0,0-.49,1.46,1.3,1.3,0,0,0,.89.9.74.74,0,0,0,.39,0Z" style="fill: #002a86"/>
    <path d="M532.88,544.46a16.8,16.8,0,0,1-3.3-2.1c-.08-.06-.17-.15-.17-.2-.11-.62.93-2,1.32-2.57.21-.28.39-.53.5-.71.82-1.3.25-4-.86-7.57-.16-.5,1-1.31,2-1.61a1.09,1.09,0,0,0,.55-1.43,1.14,1.14,0,0,0-1.27-.91c-1.9.54-3.87,2-3.13,4.47,1.34,4.33,1.15,5.22,1.06,5.4s-.25.37-.42.6c-.85,1.15-2,2.72-1.69,4.48a3.18,3.18,0,0,0,1.2,2,18.32,18.32,0,0,0,3.8,2.41l.19.06a.82.82,0,0,0,.95-.77A1.48,1.48,0,0,0,532.88,544.46Z" style="fill: #002a86"/>
    <path d="M578,532.05l-4.22-.52c-.53-.06-.94.42-.9,1.08a1.4,1.4,0,0,0,1,1.3h.08l4.21.52c.54.06.94-.42.9-1.08A1.39,1.39,0,0,0,578,532.05Z" style="fill: #002a86"/>
    <path d="M540.94,533.05a11.58,11.58,0,0,0-4.94-.55c-3.06.47-2.09,6.61-2,7.31a1.34,1.34,0,0,0,.94,1.12.74.74,0,0,0,.21,0c.53,0,.86-.6.75-1.26-.27-1.59-.37-4.64.6-4.79a9.9,9.9,0,0,1,4.14.45.83.83,0,0,0,1.1-.79A1.47,1.47,0,0,0,540.94,533.05Z" style="fill: #002a86"/>
    <path d="M558.08,527.07c-1.81-.63-17.75-6-20.44-5.7s-6.22.79-7.12,1a9.22,9.22,0,0,1-1.68-1,14.59,14.59,0,0,0-4.89-2.34c-3-.59-13.73.82-14.18.89a1,1,0,0,0-.69,1.32,1.31,1.31,0,0,0,.94,1.06h.25c3-.41,11.39-1.35,13.68-.9a13.25,13.25,0,0,1,4.22,2.06c1.24.8,2.14,1.38,2.89,1.24.93-.19,4.44-.68,7.05-1,1.76-.17,13,3.33,19.75,5.62.54.2,1-.19,1.08-.82A1.48,1.48,0,0,0,558.08,527.07Z" style="fill: #002a86"/>
    <path d="M546.59,544.43a1.16,1.16,0,0,0-1.24-1,1,1,0,0,0-.6,1.39q1.95,7.1,3.88,14.2a1.33,1.33,0,0,0,.92,1,.91.91,0,0,0,.33,0,1.06,1.06,0,0,0,.59-1.39Q548.53,551.53,546.59,544.43Z" style="fill: #002a86"/>
    <path d="M519.43,441.29q-.51,2.68-1,5.37l2.57,1.26c-.75,1.3-1.5,2.61-2.26,3.91l-3.57.47q.51-11.15,1-22.3l4.52-.67-.32-3.64-10-2.66.63,28.86-8.4-1.93-.36-13.49,5.19,1.73V418.52l-4.83-1.72v-5.11l3.89,1.16q-.16-6-.32-11.94l-3.25-1q-.34-2.81-.68-5.61l-3.52-.64q-.35,4.08-.68,8.18l-3.89,4.42-.63,3.4,4.83,1.69v4.35c-3-.82-6-1.64-9-2.44v11.44l-2.94-.51q.16-9.85.32-19.69l5.19-3.76-7.45-3.34c-.44-3.35-.88-6.71-1.31-10.06l-2.26.06c-.11.62-.21,1.24-.32,1.86L475,391.48l5.51,1.37V396l-4.2,3.64c-1.08,2.71-2.17,5.43-3.25,8.15-.11,3-.21,6-.32,9q-7,6.7-14,13.49,7.95,12.47,15.91,25,23.18,4.45,46.35,9.55l1.26-5.7,3.26-4.48c.1-3.54.21-7.07.31-10.61l1.63.77c.11-.67.21-1.33.32-2-2.8-.54-5.6-1.09-8.4-1.62ZM465.93,435,464,432.31l2.31-.85C466.17,432.63,466.05,433.81,465.93,435Zm7.77,9.12c-1.17-1.5-2.35-3-3.52-4.48q1.29-5.31,2.57-10.63l.95-.23Zm3.94,2.25q.15-10.43.31-20.84h2.26q.66,10.94,1.31,21.88ZM498,450.66q-6.81-1.23-13.6-2.39v-7.42l1.94.66c-.1.64-.21,1.28-.31,1.93l7.45.92.63-12.09,3.89,1.08Z" style="fill: #ffea0f"/>
    <path d="M540.9,441.06q17.16,9.75,34.34,19.7c.37-1.44.75-2.87,1.12-4.3q-17.18-9.94-34.34-19.71C541.64,438.19,541.27,439.63,540.9,441.06Z" style="fill: #ffea0f"/>
    <path d="M472.5,360.89c-.48,1.39-1,2.77-1.45,4.16C522.36,398.59,573.68,434.87,625,471.23c-53.56-33.73-107.12-67.37-160.69-97.91-.41,1.43-.83,2.86-1.24,4.29,36.62,20.84,73.23,43.15,109.85,65.95-37.64-21-75.27-41.43-112.91-60.31-.36,1.46-.71,2.93-1.07,4.39,53.91,27,107.81,57.24,161.72,87.66.13-.52.25-1,.38-1.57L637.4,484c.42-1.4.83-2.81,1.25-4.21l-.07,0c.38-1.08.77-2.15,1.15-3.22C584,437.08,528.24,397.39,472.5,360.89Z" style="fill: #ffea0f"/>
    <path d="M611.87,397.62l39.21,69.28,3.06-2.26q-19.6-34.62-39.21-69.28Z" style="fill: #ffea0f"/>
    <path d="M599.63,394.71q19.86,31.21,39.73,62.48-25.29-34.08-50.56-68.13l-2.65,2.9Q604.09,416.08,622,440.3q-26.79-28-53.56-55.78L566.29,388q32.31,33.47,64.62,67.31c-27.55-25.27-55.1-50.55-82.66-75.43-.64,1.24-1.29,2.48-1.94,3.72,28.74,25.92,57.47,52.29,86.21,78.64-49.22-36.84-98.43-73.72-147.65-108.3L483.31,358c53.05,37.22,106.09,77.14,159.13,116.82.33-.85.66-1.71,1-2.57l.42.39.89-1.7.7.94,1.91-2.09.57.89,2.89-2.53q-24.15-38-48.29-76Z" style="fill: #ffea0f"/>
    <path d="M453.25,451.16q10.53,2,21.05,4.12c0-1.57.08-3.14.13-4.71q-10.53-2.13-21.06-4.12Z" style="fill: #ffea0f"/>
    <path d="M456.4,402.65q8.6,3.89,17.18,7.86l.93-4.45q-8.6-4-17.18-7.86Z" style="fill: #ffea0f"/>
    <path d="M519.94,463.46q9.88,2.69,19.77,5.46c.08-1.55.17-3.11.25-4.67q-9.88-2.78-19.76-5.46C520.11,460.35,520,461.9,519.94,463.46Z" style="fill: #ffea0f"/>
    <path d="M758.06,419.5Q730,440.1,702,459.93q23.47-23,46.95-46.41l-2.72-3.9Q722.08,433.7,698,457.26q15.39-22.31,30.77-44.75l-3.14-3.43q-22.37,32.63-44.72,64.9l2.92,3.72,1.23-1.19.53,1c25-17.6,49.9-35.42,74.86-53.77Z" style="fill: #ffea0f"/>
    <path d="M709.63,416.62q-16.51,27.58-33,55l3.26,3.27q16.53-27.45,33.06-55.05Z" style="fill: #ffea0f"/>
    <path d="M691.63,412.93l-14,40.82q4-20.75,8-41.49l-3.79-1.85q-5.51,28.6-11,57.19l3.8,1.86.09-.48,1.77,1.21,18.8-54.78Z" style="fill: #ffea0f"/>
    <path d="M712.62,469.68l-4,1.77c20.88-10.59,41.76-21.41,62.64-32.62l-2-4.44c-27.87,14.95-55.74,29.18-83.61,43.13l1.45,3.33-.74.32,1.83,4.57.81-.36c.43,1.36.86,2.71,1.28,4.06q9.88-2.85,19.77-5.77c-.49-1.56-1-3.12-1.48-4.69l-14.84,4.35q10.34-4.51,20.67-9.08,29.64-12.13,59.3-25.07c-.59-1.51-1.17-3-1.75-4.54C752.18,453.3,732.4,461.59,712.62,469.68Z" style="fill: #ffea0f"/>
    <path d="M647.15,404.82q5.42,27.87,10.82,55.74-9.22-29.43-18.47-58.87l-3.6,1q5.26,16.8,10.54,33.6L629,398.63l-3.3,1.8q14.75,31.8,29.5,63.61l3.21-1.32c0,.19.08.37.11.56l3.78-.32q-5.67-29.22-11.35-58.45Z" style="fill: #ffea0f"/>
    <path d="M660.72,406.87l1.62,58,3.89.67q-.81-29-1.63-57.95Z" style="fill: #ffea0f"/>
    <path d="M671.09,408.81q-2.1,28.35-4.21,56.7l3.88,1.26q2.1-28.36,4.21-56.71Z" style="fill: #ffea0f"/>
    <path d="M460.43,457.4a21.26,21.26,0,0,0,4.86,2.73c2.27.74,5.84-.26,5.84-.26s-3.24-3.67-4.86-3.53S460.43,457.4,460.43,457.4Z" style="fill: #ffea0f"/>
    <path d="M466.1,455.31c-1.64.14-5.74,1-5.91,1.08l-2,.44,1.89,1.43a21.56,21.56,0,0,0,5.12,2.86,6.13,6.13,0,0,0,.87.21,14.6,14.6,0,0,0,5.37-.46l1.4-.39-1.17-1.33C471.06,458.48,468,455.15,466.1,455.31Zm-.69,3.83a14,14,0,0,1-2.47-1.19c1.25-.25,2.7-.52,3.49-.59.57,0,1.75.84,2.82,1.83A9.17,9.17,0,0,1,465.41,459.14Z" style="fill: #ffea0f"/>
    <path d="M460.64,465.65a20.17,20.17,0,0,0,4.85,2.73c2.27.74,5.84-.24,5.84-.24s-3.23-3.69-4.86-3.54S460.64,465.65,460.64,465.65Z" style="fill: #ffea0f"/>
    <path d="M466.31,463.57c-1.65.13-5.75,1-5.92,1.07l-2,.44,1.87,1.43a20.84,20.84,0,0,0,5.12,2.86,5.13,5.13,0,0,0,.88.21,14.74,14.74,0,0,0,5.35-.43l1.42-.38-1.17-1.34C471.27,466.76,468.2,463.38,466.31,463.57Zm-.7,3.82a13.19,13.19,0,0,1-2.49-1.19c1.26-.24,2.72-.51,3.52-.57.58-.05,1.74.83,2.81,1.83A9.2,9.2,0,0,1,465.61,467.39Z" style="fill: #ffea0f"/>
    <path d="M470.16,467.22A20.87,20.87,0,0,0,475,470c2.27.78,5.84-.2,5.84-.2s-3.25-3.72-4.87-3.58S470.16,467.22,470.16,467.22Z" style="fill: #ffea0f"/>
    <path d="M475.82,465.17c-1.64.12-5.73,1-5.91,1l-2,.43,1.88,1.44a21.56,21.56,0,0,0,5.11,2.9,5.38,5.38,0,0,0,.92.23,14.72,14.72,0,0,0,5.32-.41l1.41-.38-1.17-1.34C480.79,468.39,477.74,465,475.82,465.17Zm-.68,3.82a13.53,13.53,0,0,1-2.48-1.21c1.24-.24,2.7-.49,3.5-.55.58,0,1.75.85,2.82,1.86A8.88,8.88,0,0,1,475.14,469Z" style="fill: #ffea0f"/>
    <path d="M468.86,472.13c-1.62.14-5.84,1-5.84,1a21,21,0,0,0,4.87,2.76c2.27.74,5.83-.26,5.83-.26S470.48,472,468.86,472.13Z" style="fill: #ffea0f"/>
    <path d="M468.69,471.11c-1.64.14-5.74,1-5.91,1l-2,.43,1.88,1.44a21.78,21.78,0,0,0,5.13,2.9,6.13,6.13,0,0,0,.87.21,14.66,14.66,0,0,0,5.36-.45l1.4-.39L474.25,475C473.65,474.29,470.6,470.92,468.69,471.11Zm-.68,3.83a14.3,14.3,0,0,1-2.49-1.21c1.25-.24,2.72-.5,3.51-.57.57,0,1.75.84,2.82,1.84A9,9,0,0,1,468,474.94Z" style="fill: #ffea0f"/>
    <path d="M470.2,463.26a21.27,21.27,0,0,0,4.86,2.79c2.27.76,5.84-.19,5.84-.19s-3.25-3.71-4.87-3.6S470.2,463.26,470.2,463.26Z" style="fill: #ffea0f"/>
    <path d="M475.86,461.23c-1.63.13-5.73,1-5.9,1l-2,.42,1.87,1.45a21.76,21.76,0,0,0,5.12,2.93,5.49,5.49,0,0,0,.91.22,14.73,14.73,0,0,0,5.33-.39l1.41-.38-1.17-1.34C480.83,464.47,477.78,461.1,475.86,461.23Zm-.68,3.83a14.26,14.26,0,0,1-2.48-1.22c1.25-.24,2.7-.49,3.49-.55.57-.06,1.75.86,2.82,1.87A9,9,0,0,1,475.18,465.06Z" style="fill: #ffea0f"/>
    <path d="M481.5,464a21.29,21.29,0,0,0,4.86,2.82c2.27.77,5.84-.18,5.84-.18s-3.25-3.74-4.87-3.62S481.5,464,481.5,464Z" style="fill: #ffea0f"/>
    <path d="M487.16,462c-1.63.11-5.73.95-5.91,1l-2,.41,1.86,1.46a22.49,22.49,0,0,0,5.13,3,5.83,5.83,0,0,0,.87.22,14.79,14.79,0,0,0,5.36-.38l1.41-.38-1.17-1.34C492.13,465.23,489.08,461.82,487.16,462Zm-.68,3.84a15,15,0,0,1-2.5-1.25c1.26-.23,2.72-.47,3.52-.53.56,0,1.75.87,2.82,1.89A9.15,9.15,0,0,1,486.48,465.81Z" style="fill: #ffea0f"/>
    <path d="M481.5,470.67a20.64,20.64,0,0,0,4.86,2.81c2.27.8,5.84-.15,5.84-.15s-3.25-3.74-4.87-3.64S481.5,470.67,481.5,470.67Z" style="fill: #ffea0f"/>
    <path d="M487.15,468.66c-1.63.14-5.72,1-5.89,1l-2,.41,1.87,1.46a21.78,21.78,0,0,0,5.12,3,5.4,5.4,0,0,0,.92.24,14.61,14.61,0,0,0,5.32-.37l1.41-.38-1.17-1.34C492.13,471.94,489.08,468.56,487.15,468.66Zm-.67,3.83a13.71,13.71,0,0,1-2.49-1.23c1.25-.23,2.71-.47,3.5-.54.57-.05,1.76.88,2.83,1.9A8.74,8.74,0,0,1,486.48,472.49Z" style="fill: #ffea0f"/>
    <path d="M493.16,465.76a22,22,0,0,0,4.86,2.83c2.28.81,5.84-.11,5.84-.11s-3.24-3.75-4.86-3.64S493.16,465.76,493.16,465.76Z" style="fill: #ffea0f"/>
    <path d="M498.84,463.81c-1.65.08-5.75.89-5.92.93l-2,.4,1.89,1.47a22.7,22.7,0,0,0,5.11,3,7,7,0,0,0,.93.24,14.6,14.6,0,0,0,5.32-.32l1.4-.36-1.16-1.36C503.79,467.09,500.74,463.67,498.84,463.81Zm-.7,3.79a14.63,14.63,0,0,1-2.47-1.24c1.25-.22,2.7-.45,3.5-.49.58,0,1.75.88,2.81,1.9A8.9,8.9,0,0,1,498.14,467.6Z" style="fill: #ffea0f"/>
    <path d="M480.28,475.29a21.2,21.2,0,0,0,4.87,2.82c2.26.76,5.83-.19,5.83-.19s-3.24-3.7-4.86-3.6S480.28,475.29,480.28,475.29Z" style="fill: #ffea0f"/>
    <path d="M486,473.29c-1.64.13-5.74.94-5.91,1l-2,.4,1.87,1.47a22.41,22.41,0,0,0,5.14,3,6.9,6.9,0,0,0,.87.22,14.66,14.66,0,0,0,5.35-.39l1.41-.38-1.17-1.34C490.91,476.54,487.87,473.18,486,473.29Zm-.68,3.83a14.45,14.45,0,0,1-2.49-1.24c1.25-.22,2.71-.46,3.5-.52.57-.05,1.75.86,2.81,1.86A9.06,9.06,0,0,1,485.27,477.12Z" style="fill: #ffea0f"/>
    <path d="M493.28,479.15a21.82,21.82,0,0,0,4.86,2.83c2.27.79,5.84-.14,5.84-.14s-3.24-3.72-4.86-3.63S493.29,479.15,493.28,479.15Z" style="fill: #ffea0f"/>
    <path d="M499,477.18c-1.64.11-5.74.91-5.91.95l-2,.4,1.89,1.47a22.61,22.61,0,0,0,5.12,3,6.17,6.17,0,0,0,.87.23,14.65,14.65,0,0,0,5.37-.35l1.41-.36-1.18-1.35C503.91,480.46,500.87,477.08,499,477.18Zm-.68,3.81a13.68,13.68,0,0,1-2.48-1.24c1.24-.22,2.7-.46,3.49-.51.57,0,1.75.88,2.81,1.89A9,9,0,0,1,498.27,481Z" style="fill: #ffea0f"/>
    <path d="M489,485.35a21.3,21.3,0,0,0,4.86,2.85c2.28.79,5.84-.12,5.84-.12s-3.24-3.75-4.86-3.63S489,485.35,489,485.35Z" style="fill: #ffea0f"/>
    <path d="M494.63,483.41c-1.65.09-5.75.89-5.92.92l-2,.4,1.88,1.47a22,22,0,0,0,5.12,3,5.38,5.38,0,0,0,.92.23,14.51,14.51,0,0,0,5.32-.33l1.41-.36-1.17-1.35C499.58,486.69,496.54,483.28,494.63,483.41Zm-.7,3.8a13.73,13.73,0,0,1-2.48-1.25c1.25-.21,2.71-.44,3.51-.48.57-.06,1.74.87,2.8,1.88A8.85,8.85,0,0,1,493.93,487.21Z" style="fill: #ffea0f"/>
    <path d="M504.22,470c-1.61.08-5.82.9-5.82.9a20.73,20.73,0,0,0,4.85,2.84c2.27.8,5.84-.12,5.84-.12S505.84,469.92,504.22,470Z" style="fill: #ffea0f"/>
    <path d="M504.06,469c-1.64.09-5.74.88-5.91.92l-2,.39,1.87,1.47a21.27,21.27,0,0,0,5.12,3,5.06,5.06,0,0,0,.87.23,14.6,14.6,0,0,0,5.37-.33l1.41-.36L509.61,473C509,472.27,506,468.86,504.06,469Zm-.69,3.79a13.68,13.68,0,0,1-2.48-1.24c1.25-.21,2.71-.44,3.51-.48.56-.05,1.74.86,2.8,1.87A8.84,8.84,0,0,1,503.37,472.79Z" style="fill: #ffea0f"/>
    <path d="M505.8,475a21.57,21.57,0,0,0,4.86,2.88c2.27.82,5.84-.08,5.84-.08s-3.24-3.78-4.86-3.7S505.8,475,505.8,475Z" style="fill: #ffea0f"/>
    <path d="M511.47,473.05c-1.64.12-5.74.88-5.91.92l-2,.37,1.88,1.49a21.75,21.75,0,0,0,5.11,3,5.52,5.52,0,0,0,.93.25,14.37,14.37,0,0,0,5.32-.3l1.4-.35L517,477.09C516.43,476.4,513.4,473,511.47,473.05Zm-.69,3.83a14.26,14.26,0,0,1-2.49-1.27c1.26-.21,2.72-.43,3.51-.49.57,0,1.76.91,2.83,1.94A8.79,8.79,0,0,1,510.78,476.88Z" style="fill: #ffea0f"/>
    <path d="M511.32,471.68a20.93,20.93,0,0,0,4.86,2.88c2.26.81,5.82-.06,5.82-.06s-3.23-3.78-4.86-3.68S511.32,471.68,511.32,471.68Z" style="fill: #ffea0f"/>
    <path d="M517,469.79c-1.63.07-5.74.84-5.91.87l-2,.38c.63.49,1.25,1,1.87,1.49a22,22,0,0,0,5.12,3,6.11,6.11,0,0,0,.89.24,14.75,14.75,0,0,0,5.34-.27l1.41-.35-1.17-1.37C521.94,473.11,518.89,469.66,517,469.79Zm-.69,3.78a13.16,13.16,0,0,1-2.48-1.26c1.25-.2,2.71-.42,3.5-.45.58-.05,1.75.88,2.81,1.9A9.16,9.16,0,0,1,516.29,473.57Z" style="fill: #ffea0f"/>
    <path d="M531.41,469.63c-1.63.09-5.84.82-5.84.83a21.88,21.88,0,0,0,4.86,2.93c2.27.83,5.84-.05,5.84-.05S533,469.54,531.41,469.63Z" style="fill: #ffea0f"/>
    <path d="M531.24,468.6c-1.64.09-5.74.8-5.91.83l-2,.35,1.88,1.52a23.17,23.17,0,0,0,5.12,3.08,6.33,6.33,0,0,0,.88.24,14.47,14.47,0,0,0,5.36-.26L538,474c-.38-.46-.77-.91-1.16-1.37C536.2,472,533.14,468.48,531.24,468.6Zm-.69,3.81a14.68,14.68,0,0,1-2.48-1.3c1.25-.19,2.71-.4,3.51-.44.57,0,1.75.9,2.81,1.93A9.13,9.13,0,0,1,530.55,472.41Z" style="fill: #ffea0f"/>
    <path d="M524,476.85a21.91,21.91,0,0,0,4.87,2.91c2.27.85,5.82,0,5.82,0s-3.23-3.8-4.86-3.72S524,476.85,524,476.85Z" style="fill: #ffea0f"/>
    <path d="M529.62,475c-1.65.07-5.75.81-5.92.85l-2,.36,1.89,1.5a22.35,22.35,0,0,0,5.12,3.06,6.54,6.54,0,0,0,.92.26,14.38,14.38,0,0,0,5.31-.26l1.4-.34c-.39-.46-.77-.92-1.16-1.37C534.58,478.34,531.53,474.86,529.62,475Zm-.68,3.79a13.34,13.34,0,0,1-2.49-1.28c1.25-.2,2.71-.41,3.5-.44.58,0,1.75.9,2.82,1.94A8.71,8.71,0,0,1,528.94,478.77Z" style="fill: #ffea0f"/>
    <path d="M535.62,479.55a22.29,22.29,0,0,0,4.86,2.93c2.27.83,5.84,0,5.84,0s-3.25-3.79-4.86-3.72S535.62,479.54,535.62,479.55Z" style="fill: #ffea0f"/>
    <path d="M541.29,477.69c-1.64.08-5.74.8-5.92.83l-2,.36,1.89,1.51a23,23,0,0,0,5.11,3.08,6.33,6.33,0,0,0,.88.24,14.42,14.42,0,0,0,5.36-.24l1.41-.34-1.17-1.37C546.24,481.06,543.18,477.6,541.29,477.69Zm-.69,3.8a15,15,0,0,1-2.48-1.29c1.25-.2,2.71-.4,3.5-.44.57,0,1.74.91,2.81,1.95A9.07,9.07,0,0,1,540.6,481.49Z" style="fill: #ffea0f"/>
    <path d="M516.18,485.2a21.73,21.73,0,0,0,4.86,2.91c2.26.83,5.83,0,5.83,0s-3.24-3.8-4.87-3.71S516.18,485.2,516.18,485.2Z" style="fill: #ffea0f"/>
    <path d="M521.84,483.34c-1.63.07-5.73.8-5.91.83l-2,.37,1.88,1.5a22.35,22.35,0,0,0,5.12,3.06,5.3,5.3,0,0,0,.91.25,14.54,14.54,0,0,0,5.33-.26l1.41-.34-1.17-1.37C526.8,486.69,523.75,483.24,521.84,483.34Zm-.68,3.78a13.26,13.26,0,0,1-2.48-1.28c1.24-.19,2.7-.4,3.49-.43.58,0,1.75.89,2.82,1.92A8.75,8.75,0,0,1,521.16,487.12Z" style="fill: #ffea0f"/>
    <path d="M526.22,491.09a22.44,22.44,0,0,0,4.86,2.94c2.27.83,5.83,0,5.83,0s-3.23-3.81-4.86-3.72S526.22,491.09,526.22,491.09Z" style="fill: #ffea0f"/>
    <path d="M531.89,489.22c-1.65.08-5.75.81-5.92.85l-2,.36,1.88,1.5A23,23,0,0,0,531,495a6.2,6.2,0,0,0,.87.24,14.7,14.7,0,0,0,5.36-.26l1.4-.34c-.39-.46-.78-.91-1.16-1.37C536.84,492.59,533.8,489.12,531.89,489.22Zm-.68,3.83a15.31,15.31,0,0,1-2.5-1.31c1.25-.2,2.71-.41,3.51-.45.57-.05,1.75.91,2.82,1.95A9.25,9.25,0,0,1,531.21,493.05Z" style="fill: #ffea0f"/>
    <path d="M542.26,492.92a22.17,22.17,0,0,0,4.86,3c2.27.85,5.84,0,5.84,0s-3.25-3.83-4.86-3.76S542.26,492.92,542.26,492.92Z" style="fill: #ffea0f"/>
    <path d="M547.94,491.13c-1.65.05-5.75.73-5.92.76l-2,.34,1.88,1.53a22.93,22.93,0,0,0,5.11,3.12,6.8,6.8,0,0,0,.91.26,14.84,14.84,0,0,0,5.33-.2l1.42-.33-1.18-1.38C552.89,494.53,549.82,491,547.94,491.13Zm-.7,3.77a14.34,14.34,0,0,1-2.48-1.3,34.94,34.94,0,0,1,3.51-.4c.54,0,1.68.85,2.81,1.95A8.91,8.91,0,0,1,547.24,494.9Z" style="fill: #ffea0f"/>
    <path d="M497.7,552.79l-4.54,3.13L500,552q9.88,1.4,19.76,2.89-20.4-3.51-40.82-6.58Q488.3,550.51,497.7,552.79Z" style="fill: #ffea0f"/>
    <path d="M499.38,549.56l-1.55.89q-9.4-2.3-18.82-4.47c-.07,1.56-.13,3.13-.2,4.69q6.62,1.53,13.22,3.12h0l2.16,4.32,6.36-3.65q9.63,1.37,19.25,2.82c0-1.59-.09-3.17-.13-4.76Q509.53,551,499.38,549.56Z" style="fill: #ffea0f"/>
    <path d="M508.68,560.32c-1.62.1-5.83.89-5.83.89a21.72,21.72,0,0,0,4.86,2.88c2.27.8,5.84-.11,5.84-.11S510.3,560.2,508.68,560.32Z" style="fill: #ffea0f"/>
    <path d="M508.51,559.29c-1.63.1-5.73.86-5.9.89l-2,.38,1.88,1.49a22.22,22.22,0,0,0,5.13,3,4.83,4.83,0,0,0,.87.23,14.71,14.71,0,0,0,5.36-.31l1.41-.36-1.17-1.36C513.48,562.59,510.42,559.14,508.51,559.29Zm-.68,3.81a13.83,13.83,0,0,1-2.48-1.27c1.25-.2,2.71-.43,3.5-.48.57-.05,1.75.88,2.82,1.91A9,9,0,0,1,507.83,563.1Z" style="fill: #ffea0f"/>
    <path d="M504.84,567.1A21.05,21.05,0,0,0,509.7,570c2.26.8,5.83-.08,5.83-.08s-3.24-3.77-4.87-3.67S504.84,567.1,504.84,567.1Z" style="fill: #ffea0f"/>
    <path d="M510.5,565.19c-1.64.08-5.74.86-5.91.89l-2,.38,1.87,1.49a21.78,21.78,0,0,0,5.12,3,6.1,6.1,0,0,0,.89.23,14.62,14.62,0,0,0,5.35-.29l1.41-.35-1.17-1.36C515.46,568.5,512.39,565.07,510.5,565.19Zm-.69,3.79a14.41,14.41,0,0,1-2.48-1.25,35.13,35.13,0,0,1,3.5-.47c.57,0,1.75.87,2.81,1.89A9.25,9.25,0,0,1,509.81,569Z" style="fill: #ffea0f"/>
    <path d="M493.16,571.3a22,22,0,0,0,4.86,2.86c2.28.78,5.84-.15,5.84-.15s-3.24-3.75-4.86-3.64S493.16,571.3,493.16,571.3Z" style="fill: #ffea0f"/>
    <path d="M498.84,569.34c-1.65.1-5.75.9-5.92.94l-2,.4,1.88,1.47a23.06,23.06,0,0,0,5.12,3,6.15,6.15,0,0,0,.87.22,14.74,14.74,0,0,0,5.37-.34l1.4-.37-1.16-1.35C503.79,572.63,500.74,569.21,498.84,569.34Zm-.69,3.83a14.35,14.35,0,0,1-2.5-1.27c1.26-.22,2.72-.45,3.52-.5.57-.06,1.75.88,2.82,1.9A9,9,0,0,1,498.15,573.17Z" style="fill: #ffea0f"/>
    <path d="M508.07,591a21.32,21.32,0,0,0,4.86,2.88c2.27.83,5.84-.07,5.84-.07s-3.24-3.78-4.86-3.68S508.07,591,508.07,591Z" style="fill: #ffea0f"/>
    <path d="M513.75,589.06c-1.65.07-5.75.84-5.93.88l-2,.38,1.86,1.48a22,22,0,0,0,5.12,3,5.52,5.52,0,0,0,.93.25,14.6,14.6,0,0,0,5.31-.29l1.4-.35c-.38-.46-.77-.91-1.16-1.36C518.7,592.39,515.65,589,513.75,589.06Zm-.7,3.79a13.86,13.86,0,0,1-2.49-1.26c1.25-.21,2.72-.43,3.52-.47.57,0,1.75.89,2.81,1.92A8.75,8.75,0,0,1,513.05,592.85Z" style="fill: #ffea0f"/>
    <path d="M558.93,614.17c-4-3.28-5.66-4.62-10.1-5.07a72.93,72.93,0,0,0-7.92-.22c0-3.17-.36-5.7-1.64-7.54-1.55-2.21-3.72-2.57-6.46-3-.7-.12-1.46-.24-2.3-.4-6.89-1.37-17,3.41-17.46,3.62l-3.2,1.54q5.37,4.38,10.74,8.8c-.4,2.76-.79,5.53-1.18,8.29q8.45.36,16.89.8a11.19,11.19,0,0,0,1.65,6.48,6.94,6.94,0,0,0,4.55,2.86,10.42,10.42,0,0,0,1.14.17c9.44.91,18.11.86,17.65-6a7.57,7.57,0,0,1,.38-2.93C562.41,619,562.21,616.83,558.93,614.17ZM537,609.72a2.55,2.55,0,0,0-.28,1.72,2.66,2.66,0,0,0,.17.63c-.08,1.12-.17,2.21-.26,3.27,0,.3,0,.59-.08.88q-6.21-.32-12.43-.6l.78-5.51-6.6-5.44c3.36-1.24,8.52-2.74,12.22-2,.88.17,1.68.3,2.42.42,1.57.26,3.21.53,3.57,1C536.69,604.4,537.13,605.5,537,609.72Zm21,9.55a12.71,12.71,0,0,0-.57,4.78c0,.13,0,3-14.11,1.66a3.62,3.62,0,0,1-2.58-1c-.82-1.18-.52-4.69-.23-8.1.08-.9.16-1.88.23-2.89a75.93,75.93,0,0,1,8.43.18c3.36.33,4.26,1.07,8,4.16a8.83,8.83,0,0,1,.9.82C558.06,619,558,619.15,558,619.27Z" style="fill: #ffea0f"/>
    <path d="M700.94,634.94c-4.21-1.66-8.53-3.08-11-.62-1.49,1.49-2,4-1.58,7.75,1,8.54,2.19,14.07,2.24,14.3.18.76.35,1.51.52,2.26l1.8-.11a28.14,28.14,0,0,1,6.12.84,14.45,14.45,0,0,1,6.69,3.35l2.73,2.77q.4-5.55.82-11.1,6.16-.24,12.35-.52L718.4,650C718,649.54,707.86,637.63,700.94,634.94Zm4.72,14.76q-.28,3.69-.55,7.38a18.6,18.6,0,0,0-6.07-2.46,45.29,45.29,0,0,0-5.1-.82c-.44-2.3-1.13-6.39-1.73-11.59-.16-1.42-.21-3.27.47-4,1.28-1.28,5.76.49,7.68,1.24,3.48,1.35,8.55,6.14,12.15,9.92Z" style="fill: #ffea0f"/>
    <path d="M667.37,614c-20-5.5-102.29-23.47-105.34-23.91-1-.3-6.66-1.82-9.93,1.45-1.54,1.54-2.29,3.93-2.16,6.93-.26,1.63-1.05,8.17,2.28,13.76a15.44,15.44,0,0,0,10.66,7.26l1.1.2c15,2.2,112.68,24,113.66,24.1l.27,0c3.08.16,8.81-1.61,8.48-9.34,0-1,0-1.91,0-2.84C686.69,622.92,684.1,618.57,667.37,614Zm15.15,16.64c0,1-.06,2.09,0,3.27.21,4.9-4.11,5.12-5,5.11-4.41-.85-98.86-21.93-113.69-24.1-4.07-.65-6.95-2.34-8.58-5.06-2.5-4.19-1.46-9.78-1.44-9.89s.05-.23.07-.35,0-.25,0-.37c-.11-1.76.21-3,1-3.78,1.78-1.8,5.61-1.13,6.94-.71l.17.05c.85,0,85.09,18.32,105.23,23.88C682.77,622.94,682.68,625.83,682.52,630.65Z" style="fill: #ffea0f"/>
    <path d="M684.05,642.5a1.6,1.6,0,0,0,.44,0l5.51-.41c1-.08,1.69-1.22,1.45-2.54a2.53,2.53,0,0,0-2.34-2.26l-5.51.41c-1,.08-1.69,1.21-1.44,2.54A2.73,2.73,0,0,0,684.05,642.5Z" style="fill: #ffea0f"/>
    <path d="M694.31,655.65c-.15.15-3.9,3.76-12.73-2.84-3.75-2.77-4-10.46-4-10.57a2.82,2.82,0,0,0-2-2.71h0c-1.08-.2-1.92.71-1.89,2,0,.44.31,10.82,6.34,15.28a23.38,23.38,0,0,0,9,4.47c5.39,1.13,8-1.63,8.15-1.8a2.73,2.73,0,0,0-.08-3.31A1.78,1.78,0,0,0,694.31,655.65Z" style="fill: #ffea0f"/>
    <path d="M657.29,662.54l3.57-6.32,12.29,1c.1-1,.21-2,.31-3.06l-14.91-3.66-17.17,21.57-4.2-1.75.63-13.27,5.2,2.72-2.26-4.45,4.2-.62-2.25-2.85c.64-1.31,1.29-2.62,1.94-3.92l-9.71-4.48,4.51-5.34-3.88-3.6-6.46,5.3c.52-2.12,1-4.24,1.57-6.36l-12-2.61-.63,5.8q-1-3.37-1.94-6.75l-5.51-1.2c-.11,1.81-.21,3.62-.32,5.43l-1.62-5.46-5.83-1.65,4.2,9.53-7.46-5.51-1.94,3.1,4.83,7-8.08-3.34-3.21,7.62L607.05,652q-.81,6.72-1.63,13.45l-14.59-4.75-5.15-18.8-4.88-.27q1.62,9,3.25,18.07-9.24-2.21-18.48-4.36,2.61,11.22,5.2,22.43l3.57.76-2.94-15.64,14.6,4.31,1.62,7.83-8.76-4.24.63,6.85,15.59,9.28q1.29,5,2.57,10a57.25,57.25,0,0,0,13.28,6.77c8.11,3,30.14,5.42,30.14,5.42-.33-3-.67-5.94-1-8.91a29.21,29.21,0,0,1,6.83-2.86c4.53-1.38,9.39-15.27,9.39-15.27l4.89-1.31-5.52-3.94q4.05-6.24,8.09-12.5,7,1.32,14,2.61v-4l-14.91-3.58Zm-60.95,16.33q-1.64-5.26-3.26-10.54l8.46,1.44.63,4.1Z" style="fill: #ffea0f"/>
    <path d="M603.81,683.5,600.25,689a2.94,2.94,0,0,0,.51,3.4,2.17,2.17,0,0,0,1.1.66,1.49,1.49,0,0,0,1.6-.68l3.56-5.54a2.94,2.94,0,0,0-.5-3.4A1.65,1.65,0,0,0,603.81,683.5Z" style="fill: #002a86"/>
    <path d="M628.43,670.06a2.86,2.86,0,0,0-1.95-2.79l-14.58-3.18c-1.08-.23-1.95.64-1.95,1.95a2.84,2.84,0,0,0,1.95,2.79L626.48,672C627.56,672.24,628.43,671.37,628.43,670.06Z" style="fill: #002a86"/>
    <path d="M626.35,695.35a1.57,1.57,0,0,0-2.39,1.13c-.33,1.37-.65,2.74-1,4.12a3,3,0,0,0,1.36,3.2,2,2,0,0,0,.52.2,1.58,1.58,0,0,0,1.88-1.33c.32-1.37.65-2.75,1-4.12A3,3,0,0,0,626.35,695.35Z" style="fill: #002a86"/>
    <path d="M638.14,691.12l-7-1.54,5.76-9.25a2.93,2.93,0,0,0-.54-3.4,1.64,1.64,0,0,0-2.7.07l-9.8,15.73,14.33,3.13c1.08.23,2-.64,2-2A2.86,2.86,0,0,0,638.14,691.12Z" style="fill: #002a86"/>
    <path d="M618.34,692.22a1.6,1.6,0,0,0-2.64.37c-.65,1.3-1.29,2.6-1.94,3.91a3,3,0,0,0,.77,3.38,2.16,2.16,0,0,0,.93.49,1.5,1.5,0,0,0,1.71-.86l2-3.91A3,3,0,0,0,618.34,692.22Z" style="fill: #002a86"/>
    <path d="M565.61,601.65l3.77.79v11l3.42.72v-11l3.87.82v-2.66L565.61,599Z" style="fill: #ffea0f"/>
    <path d="M564.77,602.5l3.77.79v11l5.1,1.07v-11l3.87.82v-4.71l-12.74-2.68Zm1.68-2.31,9.38,2v.62L572,602v11l-1.74-.36v-11l-3.77-.79Z" style="fill: #ffea0f"/>
    <path d="M585.6,608.63l-4.19-.89v-5.41L578,601.6v13.65l3.41.72v-5.6l4.21.9v5.6l3.4.73V604l-3.4-.73Z" style="fill: #ffea0f"/>
    <path d="M591.33,618.08l9.41,2v-2.62l-6-1.29v-2.91l5.5,1.19v-2.64l-5.5-1.19v-2.8l6,1.3v-2.66l-9.41-2Z" style="fill: #ffea0f"/>
    <path d="M616.87,610v8.46c0,1.71-.87,2.63-2.47,2.28a3.18,3.18,0,0,1-2.48-3.36V608.9l-3.42-.74v8.65c0,3.82,2.78,5.87,5.9,6.55s5.85-.21,5.88-4v-8.65h0Z" style="fill: #ffea0f"/>
    <path d="M631.58,623.32h0q-2.07-5.52-4.13-11.06l-4.79-1v13.65l3.09.68V615.09h0l4.17,11.37,4.74,1V613.85l-3.07-.67Z" style="fill: #ffea0f"/>
    <path d="M636.82,628l3.52.76v-13.6l-3.52-.77Z" style="fill: #ffea0f"/>
    <path d="M648.59,616.61c-4.09-.89-6.39,1.22-6.39,5.72s2.29,7.62,6.39,8.51,6.39-1.23,6.39-5.73S652.67,617.49,648.59,616.61Zm0,11.56c-2.33-.5-2.8-3-2.8-5s.47-4.43,2.8-3.93,2.8,3,2.8,5.15S650.91,628.68,648.59,628.17Z" style="fill: #ffea0f"/>
    <path d="M665.77,630.74l0,0q-2.06-5.53-4.13-11l-4.79-1v13.66l3.09.66V622.53h0q2.09,5.69,4.18,11.36l4.74,1V621.27l-3.08-.66Z" style="fill: #ffea0f"/>
    <path d="M437.9,444.57q-1.65-3.36-3.29-6.74l-2.2,6-5.26.11,3.57,6.05c-.43,2-.87,4.05-1.3,6.08l5.73-1.59,5.29,3.84-.84-7.16,3.44-5.07Z" style="fill: #ffea0f"/>
    <path d="M437.8,417q-1.64-3.37-3.29-6.75l-2.19,6-5.26.11,3.56,6-1.29,6.08,5.73-1.59,5.28,3.84-.84-7.15q1.71-2.55,3.44-5.08Z" style="fill: #ffea0f"/>
    <path d="M444,387.55l-2.64-7.13v0l-2.8,5.57c-1.77-.26-3.53-.51-5.3-.75l3,6.46c-.64,1.92-1.27,3.84-1.91,5.77l5.92-.64,4.93,4.59c0-2.39-.08-4.77-.13-7.16l4-4.43Z" style="fill: #ffea0f"/>
    <path d="M452.12,360.37c-.88-2.38-1.76-4.77-2.63-7.15-.94,1.85-1.88,3.69-2.81,5.54l-5.31-.78,3,6.48q-1,2.88-1.93,5.76c2-.21,3.95-.41,5.93-.6l4.93,4.6-.12-7.13,4-4.43Z" style="fill: #ffea0f"/>
    <path d="M439.55,471.26l-3.37-6.74c-.7,2-1.41,4.05-2.11,6.08l-5.27.17,3.64,6-1.23,6.12,5.71-1.69,5.32,3.78-.93-7.17,3.38-5.15Z" style="fill: #ffea0f"/>
    <path d="M442.33,500q-1.68-3.37-3.37-6.73l-2.11,6.09-5.25.15,3.62,6L434,511.66l5.72-1.66,5.3,3.79q-.45-3.58-.92-7.17l3.38-5.12Z" style="fill: #ffea0f"/>
    <path d="M450.29,527.06l-3.6-6.59q-.94,3.12-1.87,6.23l-5.22.41,3.84,5.84c-.33,2.07-.65,4.14-1,6.21l5.62-1.95,5.42,3.51-1.2-7.13,3.15-5.34Z" style="fill: #ffea0f"/>
    <path d="M457.85,552l-3.6-6.61c-.63,2.06-1.25,4.12-1.88,6.18l-5.21.41,3.84,5.85c-.33,2.07-.65,4.14-1,6.21l5.62-1.92,5.42,3.55-1.2-7.13,3.15-5.36Z" style="fill: #ffea0f"/>
    <path d="M469.52,578.68,465.91,572c-.62,2.05-1.25,4.11-1.87,6.17l-5.21.36,3.84,5.9q-.48,3.09-1,6.19l5.61-1.86,5.43,3.58-1.2-7.17,3.15-5.28Z" style="fill: #ffea0f"/>
    <path d="M482.16,604.46l-3.61-6.68-1.87,6.16-5.21.31,3.84,5.92c-.32,2.06-.65,4.11-1,6.17l5.61-1.8,5.43,3.64-1.2-7.17,3.15-5.29Z" style="fill: #ffea0f"/>
    <path d="M496.42,628.25l-3.61-6.71c-.62,2.05-1.25,4.09-1.87,6.14l-5.22.26c1.29,2,2.57,4,3.85,5.95-.33,2.06-.66,4.13-1,6.19l5.6-1.78,5.44,3.7-1.2-7.19,3.15-5.24C499.86,629.13,498.14,628.68,496.42,628.25Z" style="fill: #ffea0f"/>
    <path d="M514.24,651.63c-1.2-2.24-2.4-4.49-3.61-6.73L508.77,651l-5.22.21q1.92,3,3.85,6l-1,6.16,5.61-1.71,5.43,3.74q-.6-3.6-1.19-7.2l3.14-5.2Z" style="fill: #ffea0f"/>
    <path d="M533.92,671.11l-3.18-7-2.31,5.8-5.27-.38,3.46,6.32-1.41,6,5.78-1,5.23,4.29-.72-7.21,3.54-4.76Z" style="fill: #ffea0f"/>
    <path d="M551.89,690.66l-3.18-7c-.76,1.93-1.53,3.85-2.3,5.78l-5.28-.42q1.74,3.18,3.46,6.36l-1.41,5.94,5.78-1,5.23,4.33-.72-7.21,3.54-4.74Z" style="fill: #ffea0f"/>
    <path d="M572.31,709.12l-3.18-7.07h0c-.77,1.93-1.54,3.85-2.3,5.78l-5.27-.49,3.46,6.4-1.41,5.91,5.78-.95,5.22,4.37-.72-7.22,3.54-4.73Z" style="fill: #ffea0f"/>
    <path d="M596.62,723q-1.61-3.54-3.19-7.08h0l-2.29,5.76-5.28-.52,3.47,6.43-1.41,5.92,5.77-.94,5.22,4.39-.71-7.22,3.54-4.72Z" style="fill: #ffea0f"/>
    <path d="M621.56,733.94c-1.06-2.38-2.11-4.75-3.17-7.12h0c-.77,1.93-1.53,3.86-2.3,5.78l-5.27-.52q1.73,3.21,3.47,6.41c-.48,2-.95,3.94-1.43,5.91l5.79-.91,5.22,4.39-.71-7.22,3.53-4.69Z" style="fill: #ffea0f"/>
    <path d="M491.16,855.62q10.57,1.86,21.17,3.85V768.69q-10.59-2-21.17-3.86Z" style="fill: #ffea0f"/>
    <path d="M580.89,828.77v-.68c8.12.32,10.47-7.13,10.47-18.32,0-18.6-10.15-25.85-23.51-28.66-12.3-2.58-24.45.16-24.45,18.63,0,11.84,3.17,19.51,12.26,22.94v.39c-10.69-.51-17.45,6.4-17.45,20.58,0,18.76,14.67,28.26,27.6,31,14.11,2.94,31.38,5.07,31.38-16.28C597.19,844.31,591.37,832.29,580.89,828.77Zm-13-33.35c5.87,1.23,9.94,6.25,9.94,13.28s-4.07,10.32-9.94,9.09-10-6.24-10-13.26S562,794.18,567.85,795.42Zm0,62.72c-6.31-1.33-11.44-6.15-11.44-14.75s5.13-11.31,11.44-10,11.44,6.2,11.44,14.78S574.16,859.46,567.85,858.14Z" style="fill: #ffea0f"/>
    <path d="M645.81,830.28c-7.81-1.7-8.43-3.42-9.08-1.18q1.31-6.83,2.59-13.64,13,3.1,26,6.19v-16.9q-20.65-4.5-41.32-9.08-3.66,22.43-7.34,44.83l11.68,8c.53-4.58,9.88-4.25,13.61-3.81,3.24.37,6.47,7,6.47,15.28,0,7.67-2.33,9.75-9.71,8.14-5.35-1.17-11.67-7.27-13.62-9.26l-6.48,17.51c3.24,2.28,7.72,9.56,23.33,13,16.9,3.68,27.23-5.49,27.23-26.46C669.14,846.16,660.24,833.42,645.81,830.28Z" style="fill: #ffea0f"/>
    <path d="M719.35,813.37c-16.25-2.77-26.23,4.52-26.23,26.26,0,17.57,9.07,30.29,18.8,33.85,6.67,2.44,12.68,4.21,16.84-1.33-.42,11.48-6.48,14.48-11,14.35-2.22-.07-4.18,2.2-6,.54s-9.45-1.48-9.56-4.5q-2.91,8.48-5.83,16.94s8,6.28,21.06,7.44c6.81.61,14.77.12,22.37-7.39,4.28-4.25,8.75-17.41,9.07-29.85C749.61,842.48,741.07,817,719.35,813.37Zm-.32,43.9c-6.64-1.34-11.56-6.52-11.56-15.87,0-8.22,4.39-12.62,11.56-11.18,6.94,1.39,11.54,7.1,11.54,15.82C730.57,852.27,726.73,858.81,719,857.27Z" style="fill: #ffea0f"/>
    <path d="M208.79,150.9c5.83-1.59,12.15,5.18,12.15,5.18q5.35-6.11,10.7-12.1s-3.41-5.47-5.84-8.68-7.36-5-21.87-4.26c-9.72.5-22.84,23.45-17,35.22,3.68,7.38,18.48,23,19.93,32.88s-6.32,11.18-6.32,11.2q-8-2.68-16-5.11-4.36,9.51-8.75,19.1s15.07,8.31,30.14,5.15c9.77-2.09,19-13,19.45-26.67.38-10.82-1.95-24.11-15.56-32.54C196.67,162.28,203,152.51,208.79,150.9Z" style="fill: #ffea0f"/>
    <path d="M291.92,122.75q-25,3.14-50.07,8.21v21.87q8.75-1.85,17.5-3.43l.48,69.15q9-1.89,18-3.54l-.48-68.59q7.79-2.21,15.55-4.21Z" style="fill: #ffea0f"/>
    <path d="M320.61,117.72q-8.26,47.25-16.54,94.71,9-.45,18-.65,2.18-7.36,4.36-14.7,9.94-1,19.89-1.76,2,5.1,3.94,10.21,8-1.69,16-3.24Q355.11,159,343.92,115.93,332.27,116.65,320.61,117.72Zm6.77,62.19q3.18-18.56,6.35-37.1,4.86,17.28,9.72,34.63Q335.41,178.6,327.38,179.91Z" style="fill: #ffea0f"/>
    <path d="M368.72,130.89q10-.78,19.93-1.34.5,36.12,1,72.24,10.69-1.08,21.38-1.93-.24-35.52-.47-71.05,7.05-1.86,14.09-3.62V104.48c-18.63,1.59-37.27,3.64-55.9,6.28Z" style="fill: #ffea0f"/>
    <path d="M488.79,99.43q-24.06,1.42-48.12,3.65,1,45.68,1.94,91.36c15.56-.56,31.11-.82,46.66-.87l-1-19.09q-13.62-.6-27.23-1l.48-15.28q6.07-.54,12.15-1-.24-8.61-.47-17.23c-3.57-.38-7.13-.76-10.7-1.12q-.48-9.26-1-18.51,14.35-1,28.69-1.72Q489.52,109,488.79,99.43Z" style="fill: #ffea0f"/>
    <path d="M568,110.11c-16.06-2.57-32.61,5.75-30.66,36.33,2.81,44.27,17,59,33.55,62.48s29.68-20.84,28.72-44.73S591.38,113.85,568,110.11Zm-.47,75.61C554,182.31,554.43,164.67,553,152c-1.41-12.29,7.12-25.09,15.6-24a8.32,8.32,0,0,1,.94.2c13.61,3.47,13.6,21.83,13.6,32.46S581.18,189.18,567.57,185.72Z" style="fill: #ffea0f"/>
    <path d="M651.16,147q-.25-8.34-.5-16.66l-39.37-9.78-.48,93.38,19,4.13V178.45l8.76,1.91q-.25-8.93-.5-17.86L629.27,160V141.67Z" style="fill: #ffea0f"/>
    <path d="M727.59,152.5c-.25-.05-.49-.11-.74-.15-15.83-2.74-32.2,4.82-31.23,34.79,1.41,44.08,15.25,59.54,31.76,63.58s30.45-20,30.24-43.7S750.94,157,727.59,152.5Zm13.54,50.67c-.34,10.56-2.89,28.33-16.48,24.39s-12.49-21.47-13.55-34.16c-1-12.22,7.88-24.46,16.33-23.17a8.1,8.1,0,0,1,1.05.27C742.06,174.41,741.48,192.59,741.13,203.17Z" style="fill: #ffea0f"/>
    <path d="M819.83,221.42c-.49-14.28-3.41-31.77-20.42-42.63-12.23-7.87-21.69-10.29-26-11a17.06,17.06,0,0,0-2.63-.27q-1,49.51-1.94,99,7.77,3.15,15.54,6.24.49-11.16,1-22.32,13.36,17.28,26.72,34.32,1.44-10.14,2.89-20.28-6.8-9.54-13.6-19.15S820.31,235.71,819.83,221.42Zm-18.48,3.22c-2,6.82-17,5.54-17,5.51q.49-17.07,1-34.14a19,19,0,0,1,4.93,0,19.31,19.31,0,0,1,8.67,3.36C805.26,203.94,803.3,217.81,801.35,224.64Z" style="fill: #ffea0f"/>
    <path d="M837.82,196.58,833,287.66q20.17,7.92,40.35,15.08.48-10,1-20-10.69-5.08-21.39-10.39l.48-14.76q5.6.62,11.18,1.17.26-9.74.5-19.46-5.12-1.7-10.22-3.43v-16q9.74,2.52,19.45,4.86.48-8.83,1-17.67-18.72-4.87-37.43-10.47Z" style="fill: #ffea0f"/>
    <path d="M940.88,241.65v0h0Z" style="fill: #ffea0f"/>
    <path d="M924.35,224.19c-5.84-3.12-17-1.81-26.25,3.52s-13.89,24.5-15.06,36.22c-1.87,18.57,1.93,36.25,12.14,49.37,11.91,15.33,31.11,9.84,39.38,2.22,6.75-6.21,5.83-40.76,5.83-40.75q-13.12-1-26.25-2.45.24,9.76.49,19.54c2.92.52,5.83,1,8.75,1.49,0,0,3.4,10.81-10.7,7.89C904.5,299.48,902,288.85,900,278.09S898.1,252,910.25,244.32s19,7.77,19,7.78q5.84-5.19,11.67-10.46C940.75,241.49,930.15,227.32,924.35,224.19Z" style="fill: #ffea0f"/>
    <path d="M982.79,232.42c-16.06,1.69-32.55,13.38-30.61,43.53,2.81,43.71,17,55.47,33.55,54.51s29.63-29.6,28.67-53.16S1006.13,229.89,982.79,232.42Zm-.47,75.73c-13.61.07-13.14-17.78-14.6-30.13-1.41-12,7.2-26.85,15.7-27.87.27,0,.57,0,.84-.05,13.61-.2,13.6,18,13.6,28.69S995.93,308,982.32,308.15Z" style="fill: #ffea0f"/>
    <path d="M1064.82,221.94l2,48.11q-14.1-19.68-28.2-40.12-6.08,1.19-12.14,2.24h0l1,91.57q8.26-1.35,16.54-2.92l.48-39.1q10.69,16.08,21.38,31.73,9.23-1.81,18.47-3.94l-2.43-92.9Q1073.32,219.41,1064.82,221.94Z" style="fill: #ffea0f"/>
    <path d="M803.21,517.72,801,511.07v0l-3.3,5.81-5.13,0,3.44,6.1-.84,6.91,5.28-2.28,5.74,3.2c-.43-2.15-.87-4.3-1.3-6.45l3.57-5Z" style="fill: #ffea0f"/>
    <path d="M803.31,490.15l-2.19-6.64v0l-3.3,5.82-5.13,0,3.44,6.1c-.28,2.3-.57,4.61-.85,6.91l5.28-2.28,5.74,3.2L805,496.75l3.56-5Z" style="fill: #ffea0f"/>
    <path d="M797.1,458.07l-2.82-6.42q-1.31,3.18-2.63,6.36l-5,.72,4,5.65-.13,7.12q2.47-1.54,4.93-3.11l5.93,2.39-1.92-6.31,3-5.6Z" style="fill: #ffea0f"/>
    <path d="M789,428.39c-.94-2.13-1.87-4.26-2.81-6.4-.88,2.11-1.75,4.21-2.63,6.31l-5,.69c1.32,1.91,2.65,3.81,4,5.71l-.12,7.07,4.92-3.07,5.94,2.45c-.65-2.12-1.29-4.23-1.93-6.35l3-5.58Z" style="fill: #ffea0f"/>
    <path d="M801.56,544c-.7-2.24-1.41-4.47-2.12-6.71L796.08,543l-5.14-.12,3.37,6.17c-.3,2.3-.61,4.59-.92,6.89l5.32-2.2,5.7,3.3-1.23-6.45,3.63-5Z" style="fill: #ffea0f"/>
    <path d="M798.78,572c-.71-2.24-1.41-4.47-2.12-6.7L793.3,571l-5.14-.14,3.37,6.18-.93,6.89q2.67-1.08,5.32-2.19c1.9,1.12,3.81,2.23,5.71,3.33l-1.23-6.45,3.63-5Z" style="fill: #ffea0f"/>
    <path d="M790.82,596.88c-.63-2.25-1.25-4.51-1.88-6.76q-1.8,2.73-3.61,5.46l-5.16-.48,3.16,6.36-1.2,6.76,5.42-1.81,5.61,3.67c-.32-2.17-.65-4.34-1-6.51L796,598.9Z" style="fill: #ffea0f"/>
    <path d="M783.26,619.43c-.63-2.26-1.25-4.52-1.88-6.78l-3.61,5.45-5.16-.51,3.16,6.37-1.2,6.76,5.42-1.8,5.61,3.72c-.32-2.17-.65-4.34-1-6.51l3.84-4.67Z" style="fill: #ffea0f"/>
    <path d="M771.58,642.29l-1.86-6.81-3.61,5.44L761,640.4c1,2.12,2.1,4.23,3.14,6.35l-1.2,6.77,5.44-1.77,5.6,3.74q-.48-3.25-1-6.5l3.84-4.63Z" style="fill: #ffea0f"/>
    <path d="M758.94,663.71l-1.86-6.82-3.61,5.4-5.16-.57c1.05,2.13,2.1,4.27,3.14,6.4q-.59,3.38-1.19,6.76l5.43-1.73,5.6,3.76q-.48-3.25-1-6.51l3.84-4.59Z" style="fill: #ffea0f"/>
    <path d="M744.69,682.33c-.62-2.27-1.25-4.53-1.87-6.8l-3.61,5.37-5.16-.61,3.15,6.43-1.2,6.71,5.43-1.66,5.61,3.82c-.33-2.18-.65-4.36-1-6.54l3.84-4.54Z" style="fill: #ffea0f"/>
    <path d="M726.86,699q-.93-3.43-1.87-6.85l-3.6,5.34-5.17-.62q1.59,3.21,3.16,6.43l-1.2,6.73q2.72-.81,5.42-1.65l5.62,3.89-1-6.54,3.84-4.54Z" style="fill: #ffea0f"/>
    <path d="M707.19,710.15l-2.31-6.73q-1.57,2.88-3.17,5.75l-5.12-.13,3.54,6.19-.72,6.92,5.22-2.17,5.79,3.36q-.72-3.26-1.42-6.51l3.46-5Z" style="fill: #ffea0f"/>
    <path d="M689.22,722.35l-2.31-6.74v0q-1.59,2.86-3.17,5.74l-5.12-.17,3.53,6.24-.71,6.91,5.23-2.14,5.78,3.38c-.47-2.17-1-4.35-1.42-6.52l3.46-4.95Z" style="fill: #ffea0f"/>
    <path d="M668.81,732.21l-2.31-6.75v0l-3.18,5.74-5.12-.2,3.54,6.22q-.36,3.48-.71,6.94l5.22-2.15L672,745.4l-1.41-6.49c1.16-1.65,2.31-3.3,3.47-4.94Z" style="fill: #ffea0f"/>
    <path d="M644.49,735.6c-.76-2.25-1.53-4.51-2.3-6.76L639,734.58l-5.11-.21,3.54,6.25-.72,6.91,5.22-2.13,5.78,3.44-1.41-6.54,3.47-4.9Z" style="fill: #ffea0f"/>
  </g>
</svg>
