<svg xmlns="http://www.w3.org/2000/svg" viewBox="0 0 1260 1012.04">
  <g>
    <path d="M0,90.08v920C420,738.76,840,1193.28,1260,922V2C840,273.28,420-181.24,0,90.08Z" style="fill: #0073cf"/>
    <path d="M698.85,539.86l.6.12-.6-.12" style="fill: #9a3b26"/>
    <path d="M814.66,441q-2-5.29-4.1-10.59c-.84-2.06.46-3.18,1.29-4.47.23-1.17,1.4-2.94-.27-4.1a2.73,2.73,0,0,0-4.25.84c-3.19,2.75-3.55-1.54-4.64-4.64l-2.54-3.74a14.56,14.56,0,0,0-3.25-8.9c2.3-13.57-2.3-26.64-3-39.74,0-4.95-2.42-9.49-2.22-14.15.24,0,.48,0,.6.36,1.06-.22,1.17-1.39,1.05-2.44a24,24,0,0,0-6.46-9.22c-.12-.58-.25-1.16-.37-1.74.36-1-.84-1.7-.73-2.71.83-.51,2.26.88,2.85-.46.8-4.81-4.2-8.71-7.53-11.46,0-2.61-1.69-4.72-1.94-7.08-5-10.85-9.63-21.9-16.45-32.32,7.55-6.36,14.51-13.92,22.9-20.53,2.12-2.41,5-4.44,5.3-8.29a24.78,24.78,0,0,0-3.81-8.5l1.66-1.43a12.27,12.27,0,0,0,3.37-3c-1.08-2.49-3.71-4.72-5.15-6.89a10.11,10.11,0,0,0-5,4.55c-1.19-1.38-2.4-3.92-4.3-4.88-2.14-.87-4.39-.85-5.94.46-6.09,6-13.11,9.74-18.27,16.55l-1.92.51c-3.7-3-4.15,2.24-6.63,2.82-1.31-3.62-5.81-1.84-7-6.22l.23-.22c1.4-.79.92-2.55,0-3.91a13.3,13.3,0,0,0-7.23-1.73c-.39-.78-.79-1.55-1.18-2.32-.74-1.63-2.83-3-3.63-4.61-9.67-9-18.74-17.79-29.22-24.72a198,198,0,0,0-37-20.5l.12-.22a3.41,3.41,0,0,0,.46-2.92c-1.08-2.3-3-.62-4.51-.93-2.49,1.81-6.77,0-10-.41,1.06-1.22,2.72-2.67,2.1-5a22.82,22.82,0,0,0-10.89,2.11c-5.95-1.9-11-2.89-16.76-4.18-14.13-.64-29.1-2-42.49.49a72.42,72.42,0,0,0-7.62.9c-.34-1.9-2-1.66-3.3-2.85-4.5.9-4.46,7.29-9.33,7.48a88.48,88.48,0,0,0-5.17-11.56c-2.28-4.24-5.75-9.61-10.14-9.53a2.4,2.4,0,0,0-.35,2.54,78.39,78.39,0,0,1,5.06,22.37l-2.1,1.27c-.66.56-1.22,1.45-2.19.6.26-17-6.47-32.38-14.16-47.34a11.07,11.07,0,0,0-4.9-4.69c3.52,11.58.95,20.85,2.69,32.12.12.4.84,1.19,0,1.41a86.63,86.63,0,0,1-4.09-10.63,26.56,26.56,0,0,0-7.54-9.06c-4.74-3.2-8-8.35-12.39-12.38-1.75-.72-3.18-3.37-4.74-4l-2.4-.36c-.13.79-.25,1.57-.38,2.35a25.69,25.69,0,0,1,.39,3.08c5.88,10.65,14.84,19.25,18.35,31-2-.63-3.7-3.26-6.2-3.47-.59-.08-.7.67-.58,1.21,1.57,4.83,4.56,9.53,5.78,14.19-10.37-7.73-7.26-22.55-17-30.87-1.44-.91-2.52-4.33-4.3-3.59,1.33,3.35,1.93,6.69,2.91,10.12,1,2.79.86,4.71,1.46,7.55l-.35-.59c-3.58-1.53-6.09-5.47-9.66-6.72l-.7.53c6.45,7.85,9.94,16.91,14.27,25.6,3,9.24,6.17,18.63,13.21,26.54-1,1.31-2.41,2.3-3.37,3.49l-2.63,2.43a60,60,0,0,0-6-4.79c-1.31-.74-1.3,1-1.29,1.86l4.28,7.63-1.83,1.1-.18.22-1.12,1c-7.81,10.3-14.23,20-18.22,32.83-1.31-.49-3.34-2-4-.66-2.26,2.67-.63,6,1.06,9.16l-1.47,2.6a8.34,8.34,0,0,0-2.27-3.1c-5,2-.55,8.12-.4,11.9-4.21,11-6.63,23.7-8.11,35.85-2.24,2.51-5.31,4.9-6.6,8.49l.24.29a9.57,9.57,0,0,0-1.27,3.87c-1.41,1.74-4.62.33-7.24.49-1.77.27-.81,2.36-1.05,3.61,1.32,2.81,3.81,1.34,5.95,2.55l1.55.47c-.21,4.41-4.85,2.95-7.45,3.77-2.73.65-6.3-.37-8.31,1.46.95.49,1.32,1.73,1.91,2.59.73,2.84-2.35,3.31-3.4,5.38.14,5.25-.07,9.51.32,14.9,1.07,1.05.24,2-.22,2.95-.21,5.16-1.13,10.13-.74,15.39-.24,1.4,1.19.94,1.67,1.79l.09,14.59c.48,1.23,1.53.72,2.13,1.45-1.49,6.56,1.27,14.37.37,21.66.48.95,1.43.85,1.9,1.55-.56,2.53-2.11,4.8-2.2,7.25-.43,7.1-1.57,14.89-1.42,22.05l.48.59c.36.45.72,0,1.08.28-.12.36.12.82-.24,1-1.84,7.95,1.76,16.14.37,24.66.73,1.54,2.75,1.28,4.05,1.47-.69,1.46-1.16,3.21-2.59,4.06-3.53,4.71-.29,10.12-1.33,15.95l1.68,1.13c0,.91-.83,1.2-.83,2.11.74,3.75.88,9.08,4.11,12.41,1.79.5,1.66-1.84,2.6-2.9.11-2,1-3.87,1.62-5.86,4.73-3.36,4.22-8.77,4.42-14.71-.72-4.14,2.22-7.11,2.44-11.36-.51-4.63,2.55-7.68,3.12-12-1.32-4.76,2.45-7.2,2.07-11.39-3.72-6.95,2.54-12-.47-18.84,2.85-1.63,1.64-4.94,2.45-7.83,2.23-4.45-2.77-7.94,1-11.78,2.95-3.72-.91-12.52,5.25-14.15.72,1,1.44,2,2.17,3l.23-.24.84,1c3,11.17,7.61,22.33,12.42,33.28,4.57,10.93,11.51,21.36,17.28,32-4.25,4.08-8.62,8.77-13.22,12.4-3.24-5.86-4.59-12.73-8.77-18.51l-.24.21-.48-.58a7,7,0,0,0-8.55,1.21c-2.95,1.47-4.24,4.14-5.65,7.32-2.69,7,6.25,11.5,9,16,1.31,1.4,3.92,2,3.93,3.91-5.27,9.39-15.22,14.72-22.17,22.53-4.59,6.22-14.07,11-15,20.13.25,1.47,1.68,2.57,2.75,1.93,16.44-9.64,29.53-23.58,44.89-36.6.71-.4.84,1.33,1.43.5a4.86,4.86,0,0,0,3.68,1.57,13.1,13.1,0,0,0-.86-5.5c4.95-4.87,12-9.2,17.83-13.88-.43,4.5-2.43,8.43-3.7,12.6-1.41,2.35-4,2.14-6,3.23-2,.28-3.7-2-5.35-1.46-1.77,1.77-.33,5,.28,7.34-1.07,1.36-2.74-.74-4-.05-3.21,1.14-1.88,5.52-2.81,8.22a6.64,6.64,0,0,0,3.11,2.89,32.69,32.69,0,0,1-1.51,5.84c-.82,1.82-3.2,2.57-3.17,5,1.44,4.55-.79,8.23-.53,12.56l.84,1.57a13.71,13.71,0,0,0,3.8.12c.49,3.09-2.23,3.65-4,4.53-2.47,4.64-.88,11.55-1.56,16.76-.34,2.81-.44,7,.88,8.88-.23,2-2.24,4-.79,6.37.26,4,1.71,9.8.91,13.83,0,2.32-1.27,6.81,1.12,8.5-.09,5.33,1.13,9.57.68,14.69,2.74,2.81-.68,5.37.51,8a5.05,5.05,0,0,0,1.92,2.67c-.92,4-1.13,8.66,1.13,12.71-.2,3.85,1.83,7.73,3,11.45,1.78-.47,1.77-3.08,2.35-4.65a18.07,18.07,0,0,0,3.57-17.46c4.26-2.76,2.44-9.2,2.17-14,2-3.38,1.63-7.65,1.48-12.08,2-3.16,1.63-6,1-10,2.82-4,1.36-9.75,3.58-14.31,1.06-1.89-1.44-4.42.33-6,2.36-.23,2.35-3.34,1.86-5.25-1.22-6.09.65-11.46-.1-17.84a41.37,41.37,0,0,0,3.14-9.71c1.06-2.91-1.1-6.44-.64-9.49,1-.88,1-4,3.42-2.36,1.67.44,1.3-2,1.06-3.06-1.57-3.95,1.87-5.5,1-9-1.7-5.52-6.23-10.41-7.57-16.09,1.05-3.47,2.1-6.91,3.14-10.49a8.76,8.76,0,0,1,1.15,1.56c.32.73.64,1.46.95,2.19a6.6,6.6,0,0,0-.76,1.71c2.06,7,9.15,3,11.92,9.51-.58.4-.58,1.46-.58,2,.49,3.21,3.59,4.83,5.86,6,2,1.59,4.14-.75,5.35,2.47,6.91,5.39,13.48,12.81,20.51,18.26v.53c-.1.36-.57,0-1.06,0-.22,1.51-1.88,2.36-2.94,3.17-2.5-1.26-4.77-3.44-7.74-3.75-.11.9.48,1.41.26,2.26a8.33,8.33,0,0,0,3.21,3.65c2.14,1,4.87,1.22,6.41.63a46.38,46.38,0,0,1-2.11,5.17c-3.29,4-8,7-13.61,6.14a17.92,17.92,0,0,1-.43,4.34c.24,1.73,1.43,2.38,2.61,3.12.6,1.28-.09,2.57-.21,3.46-.33,3.07-1.5,6.62,1.95,9.12.36,2.13-1.28,3-1,5.14.13,1.43,1.44,2.08,2.15,3,.24.56-.23.73-.34,1.11.85,4.72-1.14,9.14,2.56,13.39-3,1.88.52,6.46-1.13,8.87-.11,1.41,1.78,1.14,1.43,2.63-1.28,1.31-.91,3.73-1,5.92,3,3.7-.9,7.09-.76,11a27.62,27.62,0,0,1,1.41,18.37c-.11,1.53,1.67,1.26,2.15,1.87.12.4-.23.33-.48.53,0,5-2.55,9.25-1,14.78,2.43,9.73.12,21.11,6.35,30.17a3.29,3.29,0,0,0,2.6-1.57c2.81-5.94,3.84-12,5-18.51,3.3-2.45,3.39-7.23,3.95-11.18,0-6.35,1.72-12.11,1.68-18.75,2.57-6.8,5-15.64,1.75-24a4.41,4.41,0,0,1-1.55-2.66c1.64-3.7,3.27-9.49,1-14.63-.6-1.44.59-.66,1.3-.92a2.2,2.2,0,0,0,1.53-2c.23-1.39.59-2.49-.5-3.87-2.41-7.13,2.54-12,1.43-18.58-4.66-6,.65-11.07-1.4-17.74-1.32-2.86-4-1.47-6-3-4.89-3.59-.77-8.85-1.15-12.83l1.91.75c6.56,6.8,15.12,8.82,22.86,12.78,1,.86,2.74,1.22,2.86,2.95a5.73,5.73,0,0,0,3.82,2.89c2.6.92,4.36-2.75,6.63-.55,1.78,0,1.91,2.08,3,3.47,2.38,2.2,5.58,1.17,8,.25.32,1.16.65,2.32,1,3.48-.49,3.41-.28,7-.55,10.41l-.36.43c-2.62-1.2-4.64-4.34-6.45-6.94-2.37.27-2.47,2.6-3.88,4.11-.1,1.81,1.8,4.16,3.11,5.73a2.55,2.55,0,0,1-1.53.22c-2.26,1.22-6-.89-7.72,1.11.14,4.82-.54,8.61.79,13.3,1.08,1.41,2.26.34,3.33.31a19.38,19.38,0,0,1,.75,6.4c-6.64,1.07-1.61,8.63-3.37,13.09-1.28,3.63,3,3.47,4.3,4-1.29,2.44.4,7.89-3.75,8.31-1.07.68-.7,2.31-.7,3.9.14,2.09,2.51,2.33,3.48,3.19-1.4,4.12-1.62,9.55-2.3,13.45,0,1.43,1.31,1.82,1.92,2.73a19,19,0,0,0-.32,7.87c-2.71,2.69-2.21,8.15-1.48,11.42.13.79.6.63,1.08,1.12-.34.3-.1,1.15-.21,1.66-1.06,3.55-2.69,6.83.76,10.67a84.23,84.23,0,0,0-1.82,12.91c.85,5.26,3.74,10.83,1.76,15.86-1.14,7.82,3,16,3.09,24.35,3.22.78,3.43-3.45,4.72-5.79,1.4-4.51,3.27-8.53,3.48-13.84-.16-6.27,3-10.93,5.49-15.75,1.76-2.65,1.26-6.63,1-10.06,1.76-2.5,1.86-6.38,2.32-9.54,0-1.17-1.09-2.18-.5-3.23,3-5.22,2.89-13.19,3.32-20.11,2.35-4.07,1.71-10.46,2-15.47,2.33-6.53,2-14.26,2.84-21.4-.26-2.37-3.35-5.89.2-6.59.69-4.13,2.32-9.12.15-13.77l2.13-2.38c.58-1.58-.86-3.18-1.34-4.72a50.32,50.32,0,0,1-6.24-11.33c-1.19-2.08-3.45-1-4.51-2.67.31-5,.18-7.88.15-13.21l-.48-1.16c5,.8,10.57,2,14.85,2.23,14.25,3.55,29.45,4.36,43.56,1.67,1.08,2,3.33,1.33,4.64,1.85a48.32,48.32,0,0,1-1,8.26c-.23.33-.83.48-.59,1.18-3.07,1.72-3.35-4.07-5.85-5.36-1.53.73-2.11,2.54-2.7,4.12s-2.47,3.78-.55,5.75c-1.3.9-3,.42-4.26.82-1.91.35-1.54,2.13-1.29,3.89.24,1.47,1.91,2.2,2.51,3.11-.94,1-2.61-.14-3.55.83-.81,5,.17,9.15,1.14,14.29.25,1.73,2,4.46-.44,4.58-1.77,1.84-1.15,5.36-.31,7.73,1.19.65,2.14-.06,3.21,1.08a25.08,25.08,0,0,0-2.35,4.07c-.66,8.44,2,17.71,2,26.31l2.73.83c-1,2.9-3,5.07-2.91,8.76a34.3,34.3,0,0,1,1.44,21.12,62.22,62.22,0,0,1,.87,8c.25,1.48,1.19.5,1.89,1.3.1,3,.2,5.93.29,8.9.37,2.43,0,5.5,1.94,7l-.58.8a163.91,163.91,0,0,0-.48,18.89c-.1,1.15.72,2.89,1.91,2.49,1.89-.65,4-2.31,4-4.78a18.35,18.35,0,0,1,1.28-6.1l-.25-.32c3.79-3.28,4.35-9,4.79-13.22.55-7,2.42-12.92,3.8-19.67-.88-8.91,3.11-16.14,1.28-25,2.72-2.46,1.61-6.57,3.86-9.38.68-3.62-1-8,.76-11.3.45-3.42-1.7-6.58-1.95-9.5,1.5-5-3.61-9.7-3.52-14.49,2.25-1.11,5.82,1.3,7.23-1.43.34-1.74-.61-3.62-.86-5.49a4.68,4.68,0,0,1,2.36-.57c3-.06,0-3.41,1.28-4.43l-.47.43L702.14,597c-.84-1.61.81-2.45.21-3.86a52.5,52.5,0,0,1-7.1-16.67c-3.7-2.69-2.78-7.72-2.68-10.7,5,3.24,11.19,4.62,16.3,6.14,6.65.54,10.5,9.23,17.38,8.05,1.78.6,4.26-.47,6.4-.2,1.68,3.82,3.37,7.65,5.17,11.49a2.09,2.09,0,0,1-.83.37c0,2.61-.08,6.89-.89,8.95a4.57,4.57,0,0,0,2,5.31C736,608,736.52,612,735.59,615c.12,1.58,1.55.42,2.38,1.36-4.25,2.58-2.08,9.88-5,13.51-.82,1.8.37,3.59,1.08,5.14-2.34,4.5-.4,10.08,1.75,14.91a8.9,8.9,0,0,0-1.61,7.61c2.75,4-1.5,5.72-1,9.46,1.33,5.18,1.37,10.67-1.69,14.38-2.12,2.84,1.34,6.11.76,9.11-1.63,4.38,2.19,8.74.91,13.18-.1,2.46,2,4.17,3.81,3.6,2-.92,2.6-3.55,2.58-5.64-2.41-6.57,6.6-8,5.26-14.66,0-6.62,4.44-10.26,5.24-16.48a6.85,6.85,0,0,0,2.92-7.17c-2.64-7,2.67-11,2.63-16.81-.78-5.8,1.94-9.17,2.45-14.28.08-.72.17-1.44.26-2.17a144.82,144.82,0,0,1,8.19,14.29c2.52,5.13,6.47,9.82,8.29,15.06.59.37.58-.43.82-.65,3.6,6.33,9.2,9.84,14.21,13.59,2.24-1.87-.75-5.85-1.36-8.66-.24-1.47-1.68-2.86-1.56-4-.73-1.94-2.75-4.22-3-5.82-.73-1.53-1.68-3.24-3.24-3.89-3.36-6.8-5.42-13.91-9.14-20.64-2.77-6.33-7-12.51-8.42-19l2.37-1c0-4.05-.17-7.57-2-11.42-.48-1.36-1.68-3.13-1.8-4.47,1.07.84,2.15,2.33,3.21,2.64,2-.69,2.6-3.06,3.18-5,.7-2.87-2.28-5.35-3.84-7.94,1.06-.22,2.25.25,3.44.31,2.37-.74,2.35-3.74,3.17-6-.12-1.58-1.43-2.57-1.93-4.07,5.08-5.91-4.68-10.69-5.91-17.41.94-.89,1.54-.67,3-.41,3,.5,1.63-4.14,2.57-6.06-.13-2.9-3.22-4-4.31-6.47-5.86-7,.52-13.18-1-21,5.15-2.37,4.73-8.48,3.69-14.57l1.29-.64c.2,1.33.44,2.68.65,4.09a2.5,2.5,0,0,0,2.62,1.73c2-1.62,1.93-5.13,1.43-8.5l1.27-.9a56.45,56.45,0,0,0,4.67-8.77c1.37-3.49,2.76-7,4.12-10.46.15.45.29.91.43,1.37-.38,4,1.08,8.75.81,12.83,0,1.67,1.9,1.85,3,2.28-.71.88-1.42,1.76-2.12,2.65-3.07,4.21-.07,9.5-2.53,13.67,1.69,5-3.75,9.4.31,14-.7.79-1.89,1.26-2.13,2.39-.81,2.33,1.35,4.5,2.42,6.49-.11,1-1.05,2.18-1.64,3.25-2,3.18.16,6.93-.17,10.52a7.06,7.06,0,0,0-1.86,7.25c3.71,4.25.17,8.61,1.73,13.29-4.24,5.43,1.51,12.6,1.77,19l.72.12c2.36-2.75,5.43-5.54,6.12-9.58,2.59-2.85,3.4-6.89,5.75-10.06,3.82,2.79-1.43-1.91,1.18-2.68-1.22-5.52,3.52-7.94,2.06-13,.44-6.81,3.73-11.78,6.19-17.42.43-7.1,3.83-14,4.27-21.12,4.25-4.74,4.09-11.93,5.1-18.57-1-6.75,1.59-12.51,1-19.77,5.68-5.09-.54-13.85,2.62-20.47-1-5.61,1.71-11.62.73-16.28l.83-.82C818.82,440.94,816.44,441.51,814.66,441Z"/>
    <path d="M784.28,545.37l-2.66.57a9.47,9.47,0,0,0,.16,2.68c3.09,1.42,6.9,2,8.78-.94a14.86,14.86,0,0,0,.45-3.83A68.37,68.37,0,0,0,784.28,545.37Z" style="fill: #9a3b26"/>
    <path d="M797.66,545.24c-.23-.3-.59-.36-.95-.53a15,15,0,0,0,1.44,5.89h0l1,1.14a8.39,8.39,0,0,0,.42-1.79c.22-2.43,3.66-4.15,1.39-7C799.91,543.76,799.81,546.87,797.66,545.24Z" style="fill: #9a3b26"/>
    <path d="M817.49,442.66c-1.31-.44-2.5-.86-3.33.06a44.28,44.28,0,0,0-2.89-7.67c-.62-2.42-2.27-4.61-1.94-7.29.83-1.72,2.82-3.51,1.5-5.65-2.37-.21-3.77,3.75-6.27,2-.08,6.25.45,14.9.61,21.18.23.69.94.38,1.53.59.6,1.79,2.27,3.72,1.46,5.42-1.2-1.48-1.45-3.72-2.76-5.32-.22,3.46.76,7.51-.76,10.15-.67-11.7-.86-23.8-1.28-33.91-.21-1.24-1.57-2.38-1.49-3.62l-1.74-2-1.07.62c1.67,1.44,1.1,3.82,1.22,5.77-1.3-.58-.85-3-1.21-4.33l-1.32-2.15c-1.29,3,.82,5.86,1.8,8.81.27,1.2.53,2.4.79,3.61,1.41,5.77,2.76,13.91-1.35,17.82l-.7-.11c.33-2,1.87-3.88,2.09-6.31a20,20,0,0,0-.88-9.5c-.94,1.4-3.09,0-2.48,2.74-1.77,17.94-7.25,33.51-13.23,48.85.11.94.23,1.89.34,2.83a13.86,13.86,0,0,0,.39,3c.14,3.29.41,7.89.65,10.39.73,1.42,2.14.86,3.22,1.3-1.29,2.41-3.42,4.4-3.75,7.33-.46,3.45,1.1,7.75-1.25,10.6,1.45,4.8-3.64,8.52.91,13.05,4.63.07,10.33.17,12.79-5.05,2.71-.39.91-4.7,1.61-6.4l.71.11c0,2.08-.45,3.95,1.93,4.06.59.59,1.31,1.11,1.91,1.7,1.23-1.29,1.38-4.34,2.9-4.68h0l2,.27c.36-1.36.75-2.72,1.24-4.06,0-1.71-1.79-2.88-2.15-4.49-1.21-3.56-3-7.07-3.26-10.6,1.17-.23.95,1.32,1.31,1.88,2.15,2.91,4.66,5.22,6.69,8,1.17-4.38.42-9,1.82-13.41-1.93-6.11,1.82-11.72.72-17.87.7-2.22,3.42-3.56,2.34-6.45-2.55-8.64,1.93-13.64.58-21.49C817.88,449.22,818.21,445.35,817.49,442.66Z" style="fill: #efe8c7"/>
    <path d="M802.66,525.82,800,523.35c-.93,3.24-3.66,4.66-5.9,7.06-3.08,1.47-6.75,1.15-10.31,1.24-1.05.49-2.13,1.07-2.23,2.51s.84,2.41,1.64,3.5l2.21-.52a15.3,15.3,0,0,0,8.72-3.23c1.78.4.85,3,2.39,3.75,1.77-2.21,1.63-6,1.62-8.72,3.43.22,3.58,5.2,5.38,7.8l.48.6c2-5.11,2.61-10.25,3.8-15.3l-1.4-.68C805.47,523.4,805.26,526.89,802.66,525.82Z" style="fill: #9a3b26"/>
    <path d="M807.83,522v0h0Z" style="fill: #9a3b26"/>
    <path d="M799.46,530.29c-1.17,1.51.37,2.93-.43,4.63-.82,1.31-.81,3.63-2.71,3.62-1.07,0-1.44-1.4-1.79-2.23.12-.24-.24-.44-.36-.7-3,1-5.49,2.67-8.74,2.18l-2,.22h0c.66,1,1.1,2,.41,3a8.51,8.51,0,0,0-2.15,4.19l2.55-.83c2.3-1.15,5.07-.83,7.57-1.46a12.78,12.78,0,0,1-.8,6.77c-2.84.74-5.2,1.79-8.31,0-.47.95,0,2.09-.21,3.35-.71,2.12-3.07,3.53-2.11,6.43l3.2-3c3.1,3.61,6,1.35,9.62,1.75.84.26,1.2,2,2.15,1.25,1.29-2.29,3.42-3,3.17-5.89.09-.3.19-.6.3-.89l-1.36-1.62a10.22,10.22,0,0,1-1.86-7.68c1.55-.56,2,1.47,3.22,1.37.7-1.33,1.29-3.56,2-4.12,1.44.45.62,3.88,2.28,2.66,0-.52-.13-1.18.47-1.36a15.5,15.5,0,0,0,.43-3.69C801.54,536.57,800.92,533,799.46,530.29Z" style="fill: #efe8c7"/>
    <path d="M755.8,633l-1.07.1c.48.7.72,1.69,1.56,2.23a20.69,20.69,0,0,0,.77-3.75l.3-2.72h0a40.66,40.66,0,0,0-4-4.61A19.19,19.19,0,0,0,755.8,633Z" style="fill: #9a3b26"/>
    <path d="M625.52,642.61a.22.22,0,0,1,0,.08l0-.05Z" style="fill: #efe8c7"/>
    <path d="M630.77,582.55c-.73-2.35-2.87-2.16-4.52-3a33.87,33.87,0,0,0-1,6.81c-.7,3.37.27,6,.87,9.31a29.72,29.72,0,0,1,3.73,7.78l-.83.35c-1.34-4.7-5.26-8.91-5.07-13.95-1.22-6.23,3.14-10.14,1.68-16.81.22-2.3-.5-6-.28-8.66.11-.36.7-.09.58-.64-1.33-.48-2.73-.81-4-1.34,0,.78,0,1.56-.05,2.33-.38,3.81.24,8.74-.44,11.7-3.46.19-5.72-3.67-7.75-6.57a9.59,9.59,0,0,0-2.6,3.5c0,2.33,2.52,4.29,3.49,6.32a84.06,84.06,0,0,1-9.38.62c-1,2.27-.54,6.78-.42,9.31.84,1.06,0,2.44,1,3.68,1.44,1,1.9-.89,3.21-.48a56.35,56.35,0,0,1,.86,7.6,40.6,40.6,0,0,0-3.89,3q.39,6.2.77,12.39c3.11,1.3,5.82-.6,7.82-2.63a3.42,3.42,0,0,1-2.47,3.24c-2.48-.27-1.29,2.6-1.87,3.76,1.22,5.59-5.55,4.17-3.87,9.72.84,1.49,2.26,1.65,3.46,2.18a84.22,84.22,0,0,0-2.28,14.74,2.76,2.76,0,0,0,2.14,1.22c-1.4,2.43-.8,5.71-.78,9,2.63,3.77,6.89.78,9,4.62a51.07,51.07,0,0,1-7.89,7.32c-1.67-.75-1.44,1.25-1.65,2.26,2.4,5.57,6.41.69,9.73,1.51,1,2.18-.57,3.4-1,5a16.1,16.1,0,0,1-7.22,3.14c-1.77,2.78-1.51,6.08-2.08,9.6a7.38,7.38,0,0,1,3.94,3.68c.38,4,2.18,8.81,1.49,12.68a1.66,1.66,0,0,1-2.49.14l-.72-.55c-.94,1.24-.68,3.64-1,4.85L611,709.8c2,3.18.53,7.54,2.21,11,2.46-4.17,4.21-11,2.51-16.38-.84-2.27-1.34-5.36.32-7,2,1.47,2.39,4.4,4.53,5.66,2-2.71,4.48-5.31,4.69-9.31-.39-5.8-6.11-9.73-7-15.5,1.07-.57,1.9.89,2.86,1.36,0,.4.36.72.59,1s.6-.14.83-.34q.11-3.36.2-6.72c.47-.42,1.07.24,1.55.57,1.41-2.18-.75-6.65-1.84-9.73-.24-1.11-.74-3.28.7-3.38,1.06-.18,1.31,1,2.13,1.89,1.07-.42-.49-3.1,1.18-2.36a17.37,17.37,0,0,1,1.42,2.27v0l1.67-.21c-.12-3.35,1.64-6.57-1.35-9.65-.73-3.3-2.06-6.43-3-9.61l.33-.78a.22.22,0,0,0,0-.08,8.28,8.28,0,0,1-2.49-6.1l.59.13c.36,2.05,1.76,4.08,1.9,6l0,0,0,.05a1.49,1.49,0,0,1,0,.21A7.78,7.78,0,0,0,627.7,644l.47-.3c-.61-4.55-1.6-10.08-.91-13.84,1.32,1.06,2,3,2.76,4.61.72,2,1.08,4.14,2.16,6,.7-1.29.21-2.56,1.28-3.77-.15-5.62.76-11.29,1.57-16.72-.14-2.23-2.29-4.26-1.47-6.43,3.08-1.94,2.92-7.82,2.43-11.83-.25-1.23-1.45-2.9-.38-3.87.58-1,3.19-1,1.65-3.16C635.8,590.53,631.27,587.1,630.77,582.55Z" style="fill: #efe8c7"/>
    <path d="M627.15,663.33h0a1.51,1.51,0,0,0-.42-.32c-.24.48-.23,1.39-1.06,1.23-1.18,0-1.07-1.4-1.91-2.08-1,2.08,1.1,4.76,1.58,7.09.49,1.78.86,4.07.39,5.53l-.83.49c-.12-.42-.59-.25-.83-.45-.22,2-.33,4.36-.43,6.54-.59,1.46-1.91.14-2.74-.45a3.21,3.21,0,0,0-1.31-1.43l-.23.2a48.13,48.13,0,0,0,5.38,8.94c1.76-3.26,2.93-8,1.47-12.18,2.91-2.25,2.32-7.11,3.09-11Z" style="fill: #9a3b26"/>
    <path d="M451.73,329.57c-.36.6-.11,1.69-.23,2.31,1.68,2.31,4.05.59,6.07,1.91l1,.08c.1-1.43,0-2.79.06-4.21C456.23,328.91,454.1,329.65,451.73,329.57Z" style="fill: #efe8c7"/>
    <path d="M798.92,425.62a15,15,0,0,1-1.13-2.57,29.39,29.39,0,0,0-4.57-9.4c-1.08-.17-2-2.79-3.47-3.14-.71,0-1.66-.51-2.13.45.61,3.09,3,5.8,4.32,8.87,2,3.55,2.78,7.84,6.13,11,1.06-.12.58-1.75.33-2.56s-.95-1.33-.84-2.22c.9.14,1.05,1.49,1.73,2-.13-.8-.25-1.61-.37-2.41Z" style="fill: #9a3b26"/>
    <path d="M479.78,269.34l-1.65,2.46c.85,2.13,1.51,4.4,3.21,5.94.82-2.21,1.4-3.67-.39-5.91A19.2,19.2,0,0,0,479.78,269.34Z" style="fill: #9a3b26"/>
    <path d="M520.64,482.94a9.51,9.51,0,0,1-3.07,2.29c1.61,2.2,3.34,4.49,4.8,6.74l1.31,1.16a17.45,17.45,0,0,0,5.69.42A133,133,0,0,1,520.64,482.94Z" style="fill: #9a3b26"/>
    <path d="M793.28,424.85a62.85,62.85,0,0,0-1.5,7.31c-4.25,23.81-9.59,46.68-19.67,67.12.21,1.1.51,2.48.76,3.91l.88-.66c4.83-7.68,6.68-17.57,11-25.78.24-1.92,2.12-4.72,2.58-7.14,3.75-8.78,5.35-18.83,7.55-29C794.76,435,798.64,430,793.28,424.85Z" style="fill: #9a3b26"/>
    <path d="M784,333.72a27.39,27.39,0,0,0-4.89-3.79,5,5,0,0,0,.77,3.15l1.17,2.5v0a51.42,51.42,0,0,1,4.62,3.49l-.15-1.81.32.1C785.42,336,785.92,334.22,784,333.72Z" style="fill: #9a3b26"/>
    <path d="M789.06,252.79l-.24.23c-1.22-6.18-6.82-10.32-10.05-15.93a4.8,4.8,0,0,0-4.76-1c-6.55,5.25-14.46,10.34-20,17.48l-1.52,1h0c5.74,11,4.32,23.55,4.71,33.68,10-9.93,20.55-19,30.82-28.54,1.41-1.88,2.59-3.52,1.49-6.42Z" style="fill: #efe8c7"/>
    <path d="M786.6,236.92a10.92,10.92,0,0,0-3.78,4.33c1.13,1.48,2.41,3.11,3.62,4.84l1.54-1.2c.91-1,2.48-1.38,2.92-2.89C789.82,240,788,238.59,786.6,236.92Z" style="fill: #efe8c7"/>
    <path d="M731.64,256c.22-.86.1-1.8,1.05-2.14-1.1-5.28-6.19-3.39-9.64-5.21,0-.83,0-1.66,0-2.49.23,0,.23-.08.34-.18,0,.25.13.42.25.44a5.91,5.91,0,0,1,.69-.46h0c-.16-.49-.31-1-.46-1.49-14.15-14.23-30.6-23.7-46.14-35.08-7.14-3.29-13.35-8.74-20.84-11.35-1.07-1.14-2.62-1.21-3.81-2.23-2.12.44-3.77,3.1-6.39,1.76-1.79-1.27.69-3.2-1.56-3.64-2.07-1.75-2.15-.9-3-1.58-4.28-2-6.14,4.41-9.94,2.19a5.12,5.12,0,0,1,.3-3.77L631,190.2c-12.24-2.5-25.85-2.81-39.11-3.91A115.34,115.34,0,0,0,567.62,189c-2.83,1.5-2.81,6.46-6.6,6.34-1.08-1.12-.48-1.93-1.32-3.24-1.31.25-.12,2-.11,2.95a30.77,30.77,0,0,1,1.11,8c3.58.46,7.15,2.74,10.49,5.12.24,3.43-.68,7.13,0,10.55,3,1.51,6.78,2.41,9.87,4.61q-.2,6.39-.4,12.8c-1.06,2.12-5.82-1.45-4.48,2.6,3.87,13.42-.1,23.93-3,35.18a3.47,3.47,0,0,0-1.64,2.52c.85,3,2.76,5.64,3.85,8.46,1.54-1.37,3.78-3.51,6.16-2.64,1.31,1.35,2.61,2.71,3.92,4.07a42,42,0,0,0-6-25.57,33,33,0,0,1,.62-15.61c3.33,1.19,5.49,5.68,8.59,7.87,10.17,13.19,9.18,28.22,9.38,42.06a28.44,28.44,0,0,1-5,14.43c-.57,4.71.41,10.5,4.71,14.52.6.39.94-.2,1.3-.39,4-12.05.44-26.19.25-38.59-4.24-13.79,3.41-24.54-1.53-37.81.24-.58-.24-2.12.82-2.42,4.05,1.23,5.38,6.45,7.18,10,6.52,19.61,9.62,43.29,5.7,61.34-2.11,4.62-4.1,9.4-6.56,13.83,2.4,5.33,6.35,10.46,8.4,15.58.83.94,1.56,2.53,2.38,3.34,1.17-2.09.44-4.58.31-7.22-1.09-6.2-2.93-13.11-3.43-19.46,1.94-12.6,2.08-27.14,1.18-40.23.12-1-1-2.27-.24-2.9,1.17-.65,2.6.54,3.67,1.54,5.66,11,10.34,23.15,9.59,35.23.14,4.19-.08,8.56.32,13.19,2.31-8.09,4.63-18.41.31-27.77a2.91,2.91,0,0,1,.81-2.7c1.54.59,2,1.75,3,3.22,9.81,14.58,10.5,31.52,11.43,47.46,1.17-1.33,0-3.38.31-5.16.44-5.89.41-11.75,3.11-16.37,1.76-3.41,2.45-7.28,5.05-10,1.89-.14.95,2,2,3,.51,5.17.67,12.64,1.53,18.28l.72.16c17.46-16.91,36.83-32.42,54.78-48.93-1.8-1.9-.51-5.43-.89-8.12-1.42-1.32-4.62-.9-5.82-2.17-.83.47-2.5-.52-3.22-1.32.1-3.35-.28-8,1-11l9.39,1.86a39.1,39.1,0,0,0,1.5-6.59c0-1.3.69-2.85,1-4.49,4,.8,8.21,1.88,11.18,3.61,1.43,3.52-.09,6.21.4,9.7,0,.66-.94,1.27,0,1.81,2.74,2,4.75-.26,6.41-1.52,3.54-2.82,7.08-6.59,11.1-8.7l.23-1.13-4.53-4.36C735.67,257.11,733,259.47,731.64,256Z" style="fill: #b3995d"/>
    <path d="M729.78,243h0Z" style="fill: #9a3b26"/>
    <path d="M653.9,195.56c4.41,3.52,9.88,4.15,14.17,7.9,16.54,8.38,31.68,20.19,46.95,31.76,3,2.38,7.37,6.83,10.31,9.71l4.44-1.89a198.08,198.08,0,0,0-70.91-50.74Z" style="fill: #9a3b26"/>
    <path d="M729.55,568.69l-4.71-14.15c-3.33.16-6.46,2.45-9.73,3.82l-1.46,1c4.73,4.82,9.26,10,15.56,11.33.23-.08.83-.22.83-.75C729.2,569.42,730.15,569.34,729.55,568.69Z" style="fill: #1691ff"/>
    <path d="M712.71,554.76l-2.21,1.59c.55.47,1.09,1,1.62,1.51l2.33-.23c2.9-1.65,6.41-2.85,9.55-4.67a24.36,24.36,0,0,0-1.32-2.88C719.35,551.6,716.19,553.58,712.71,554.76Z" style="fill: #9a3b26"/>
    <path d="M684,563.48c-12.05,3-24-.63-37.31-1.68-7.49-1.29-14.25-1.42-21.62-3.9l-4.48,3.34c5.47,2.2,12.71,2.7,18.16,3.84,9,.61,19.73,3.89,28.87,3.19,5.92-.46,11.26-.53,16.95-1.84a6.85,6.85,0,0,1,.7-1.86c0-.41.09-.82.14-1.22h0Z" style="fill: #9a3b26"/>
    <path d="M789.32,399.27l1.19.17c-.35-18.41-1.41-36.76-6.85-54.29-2.88-5.53-9.29-6.2-9.33-12.46a1.37,1.37,0,0,1,1.9.07,14,14,0,0,0,3.44,2.28l-.48-2a17.63,17.63,0,0,1-1.21-4,11.2,11.2,0,0,1-5.61-5.89c.47-.29-.24-1.47.58-1.71.36.06.72,0,1,.4l.36-.44c-2.18-5.84-4.59-12-7.95-17.23.13,1.2.86,2.89,1.23,4.39.75,9.88-.5,18.39-3.66,26,1.12,8.39,3.2,18.11-1.51,24.86.88,8.61,2,18.42-4.13,24.39.6,2.6-2,3-1,5.67-.46,2.27-.67,5.48-2.1,7.31-.21,4.13.66,8.7-1.92,12.54l.23.3c-2.72,1.6-1.51,4.41-1,7.24a23,23,0,0,1,.87,5.09c.49,5-1.63,7.14-2.08,11.88l-1.18,1a28.42,28.42,0,0,1-1.24,12.39,7,7,0,0,1-1.52,3.51l-.83.1q-.07,5.31-.17,10.63c-.27.3-.55.6-.83.89l-.48-.61c.14,3,.28,6.69-1.13,9.18,0,2.47-.06,6.22-.88,8.55,1,1.59-1.18,2.12-.81,3.75-.36.73-1.42,2-2.14.79a26.27,26.27,0,0,1-.28-8,7.55,7.55,0,0,1-1.45-5.6,4.16,4.16,0,0,1,1.64-2.3c-1-2.53-1.58-5.76.19-7.51.59-1.71-1.08-4-1.09-6.06a5.88,5.88,0,0,1,2.1-5.23c0-2.59-1.81-5.52-.88-8.34,2.94-3.23-1.47-7.44-1.62-11.35-.27-5.78,2.56-10.21,5.27-14.4-1.83-7.23-3.19-16.72.34-22.18-1.71-7.86-3.66-16.68.7-22.39-.75-7,0-14.32,2.5-20a35.11,35.11,0,0,1,.68-24.2c-.63-3.89-3.25-7.63-3.27-11.4a100.76,100.76,0,0,1,3.1-15.32c-6.36,5.11-12.51,10.08-18.52,15.58q-17.83,15.24-35.68,30.22c-8.37,7.93-15.1,14.87-24.43,21.14,1.36,10.7,4.27,21.31,5.05,31.49.4,9.45-2.29,16.46-7.35,22.43a15.66,15.66,0,0,0,3,9.08c.93-4.76,3.39-10.75,8.37-10.51.72-.22.84.83,1.43,1.08.16-.44.32-.89.47-1.33-4.6-13.57.81-24.3,9.19-30.65,3.42-3,6.37-5.61,8.24-9.92,3.71,4.39,3.26,9.76,4.12,14.76.19,11.6-4.86,21-6.57,32.09-2.1,6.22-4.08,13.39-7.13,19l-5.29,8.45.12,1.17c2.63,3.27,5.15,6.79,7.43,10.24.8-3.88.06-8.29,1.82-11.86,6.68-15.31-.11-39.18,15.27-48.19.23-.63,1.18-.82,1.06-1.64,1.3-.14,1.08,1.37,1.55,2.14,1.58,5.76.78,11.6-.37,17.1-.88,13.49,2.07,29.56-5.47,39.67-2.23,3.44-4.47,7-7.89,9.33.38,3.34,2.76,6,3.85,9,6.25-6.3,7.85-16,12.32-23.71,2.94-3.73,6.83-9.2,12.77-7.8a3,3,0,0,0,1.55-.2v0l2.83.05a19.91,19.91,0,0,1,5.81-3.81c1.2,3.2,1.22,6.88,1.13,10.88-2.17,14.58-2.77,35.28-2.21,49.84.13.32.25.64.37,1,1.76-4.09,4.11-7.68,5.75-11.8,4-5.64,7.87-12.24,7.59-19.69,1.2.6,1.09,2.52,1.69,3.81,1.32,3.77,2.05,6.61,3.26,10.6,4.36,13-6.64,20.27-4.9,33.61,2-3.42,4.7-8.25,4.2-12.9.92-5.05,4.69-8.93,8.24-11.83,2.24.13,0,2.08,1.31,2.82.94-.63,1.77-2.29,3.2-.6l.84,1.45c0,.24.07.51.12.76l1.62-.7a18.85,18.85,0,0,1,.83-6.68,3,3,0,0,1,1.67,1.09l1.32,2c10.91-22.49,16.45-48.87,20.69-75.39-1.23-4.22-5.51-7.75-4.94-12.24.94-1.4,2.48-.5,3.79.22,0,.12.13.27.24.41,1.66.65.36-1.75,1.05-2.44C790.66,405.6,787.44,402.23,789.32,399.27Z" style="fill: #b3995d"/>
    <path d="M643.61,404.49c-4.52-1.48-12.26-5.33-16.5-1.67a13.46,13.46,0,0,1-3.82,1.87c-.19.45-.37.9-.56,1.36-1.05,1.62-3,2.37-3.88,4.15,3.68,1,7,2.76,10.46,4.14,3,1.68,6.19,2,8.56,3.11-.13-3.55-3.25-8.11.9-9.84a11,11,0,0,1,6.94-.65c-.11-.37-.23-.74-.35-1.11A5.62,5.62,0,0,0,643.61,404.49Z" style="fill: #b3995d"/>
    <polygon points="645.71 406.96 645.71 406.96 645.71 406.96 645.71 406.96" style="fill: #b3995d"/>
    <path d="M690,539c-.12,1-.23,1.91-.34,2.87,0,.41.07.82.1,1.23,4.16,1.37,8.09,2.67,12.12,3,.22-2.81.81-4.91,0-7.67C697.7,538,693.83,538.53,690,539Z" style="fill: #9a3b26"/>
    <path d="M606.39,349.91c.22-1.39-1.33-3.14-2-4.32-1.2-2-2.76-4.24-4.66-5-2.49-.66-4.27.51-6.15,1.3-3.66,1.71-7.45,4.05-11.36,5.33-3.56.44-8.18,1-12.11-1.06-7.5-3.59-15.24-7.6-20.62-15-2.88-4.72-4.69-9.76-7.56-14.37-.36-1.1.58-1.44.81-1.78,2.85-.48,5,2.94,7.51,3.15,7.14,4.91,14.42,12.5,23,11.36,5.44-1.6,11.87,1.16,17.2-.86l-4.43-6.76c-4.63.47-7.82,2.93-12.68,2.71-10.68,1.61-17.28-12.09-28.44-11-2.37-1.51-5.7-2-8.1-4.17-3.09-1.12-4.76-3.25-7.73-4.47-2-1.55-4.17-4-4.78-6.63-1.31-.88-1.08-2.66-2.39-3.94l.23-.08a70,70,0,0,0-5.62-7.43c.82-1.93,3.2-.32,4.75-.28A81.94,81.94,0,0,1,534,293.89c4.27,2.25,8.42,1.49,13.07,4.61,4.52,1.81,8.81,5.26,12.63,9.27,1.56,1.21,3.57,1.63,5.37,2.51.11-1.14-1.09-2.43-1.34-3.78a12.86,12.86,0,0,1,.67-7.13,22.76,22.76,0,0,1,10.27,2.34c-.05-.9-.11-1.8-.17-2.7h0a88.3,88.3,0,0,0-11.17-22.39c-3.91,1-7.57,4.46-11.48,5.77-15.18,1.45-27.61-12.54-43-12.43-1.07-.83-2.13,0-2.74-1.41,1.06-2.27,4-4.09,6.13-5.65,1.55-1.16,3.68-.36,5.34-1.1-4.67-7.37-4.85-17-12.13-22.64-.22-1.2-1.18-2.67-.59-3.62a2.21,2.21,0,0,1,2.94-.12c11.54,3.64,15.9,18.24,25.44,25.27,4.52,2,9.39,2.18,13.68,4.33,4.76,1.58,8.81,6.17,13.92,5.75-1.82-5.55-5.42-12.91-11.25-14.58a84.29,84.29,0,0,0-21.64-7.7c-.23-.7-1.78-1-2.73-1.56-6.43-3.79-12.21-10.38-16.87-17.26l-2,1.62c-1.17,2-3,3.73-4.08,5.86-6.82,9.61-14.25,19.31-17.74,31.21.38,3.83,2.9,7.76,2,11.12-.73-1.15-2.39-1.68-3-3.33-.63,1-1.25,2-1.88,2.93a17.34,17.34,0,0,1,2.18,8.42c-.47.44-.94,1-1.66.66-.71-.69-1.43-1.37-2.15-2.05l-.94,1c-2.2,8.1-5.79,26-5.79,26-1.89,20.91-1.88,42,3,62.54a120.54,120.54,0,0,1,2,14.63c1.91,2.53,5.6,3.91,5.73,7.31-1.18,1.38-2.84.71-4.39.59,0,1.56.74,3.1.15,4.57,2.86,2.94,6.43,4.44,8.6,7.93.71,1.56-.94,2.05-1.9,2.54l-1.3-.22c.5,3,2.54,6.29,3.26,9.14,6.86,15.87,14.55,32,24,46.63,2.55-2.5,5.1-5,7.66-7.47q19.11-17.94,38.23-35.57c.54-.39,0-.8.6-1.31,1.42.15,2.26,1.61,3.45,2.13-.37-2.67-1.35-6.77.42-9,7.69-5.76,15.12-12.16,22.56-18.58-1.56-1.62-3.23-2.86-4.3-4.64,1.3-1,3.08-1.32,4.27-2.11-3.45-.6-7.72.1-11.18-1.92-3-1.91-4.87-2.16-7.74-4.32-.83.23-1.42-.92-1.9-1.4v-.91c2.12-.23,3.66-1.87,5.8-2.33-4.54-2.9-10.61-6.84-10.41-13.32-.48-1.24.71-1.29,1.3-1.43,4.52.65,11,6.5,16,4.18,7.25-.33,17.11,3.28,24-1.28-9.14-1.26-18.27,1.41-26.95-.64-5.83-3.16-12.37-5.76-17.39-11.59a25.37,25.37,0,0,1-8-7.83c7.68-5.64,15.82,4.72,24.6,4.68,5.81,0,10.3-4,16-2,6.28,0,14.16,6.83,19.23,1.42C607.71,352.4,607.45,350.66,606.39,349.91Z" style="fill: #b3995d"/>
    <path d="M686.2,565.22c-.25.86-1.13,1.5-.21,2.68a4.21,4.21,0,0,0,4.73-2.55c-1.28-.8-2.63-1.53-4-2.25C686.55,563.81,686.37,564.51,686.2,565.22Z" style="fill: #9a3b26"/>
    <polygon points="686.73 563.1 686.73 563.1 686.73 563.1 686.73 563.1" style="fill: #9a3b26"/>
    <path d="M766.47,503.87l-.15-.37c.14.77.28,1.53.42,2.33l1.43.11c-.15-1-.28-2-.38-3Z" style="fill: #9a3b26"/>
    <path d="M509.1,218.15,507,220.22c1.11,1,3.1,2.67,4.19,3.57,1.29-2.64,3.76-4.52,5.53-6.53a49.25,49.25,0,0,0-3.93-3.07A18.41,18.41,0,0,1,509.1,218.15Z" style="fill: #9a3b26"/>
    <path d="M615.83,180.52c-14.59-.88-28.37-1.53-41.64,1.08-1.19-.11-4.43.62-4.43,1,0,0-.53,4.11-1.71,5.3,3.56-.19,7.24-1.38,11-1.53,12.45-1.85,24,.27,37.15.73,4.68,1.24,10,1,15.08,2.23l1.7.34h0c.4-.69.87-1.36,1.27-2,.7-1,1.77-1.73,2.23-2.78C630.45,182.93,623.43,180.87,615.83,180.52Z" style="fill: #9a3b26"/>
    <path d="M545.75,190.75a1.19,1.19,0,0,0-.77.37Z"/>
    <path d="M547.11,198.93c-.47,0-.91.65-1.36,1.08l-2.78.72c-.3,3.53-.86,7.06-1.13,10.6.61,1.53.85,3.14,1.93,4.54C543.38,209.26,547.86,205.48,547.11,198.93Z" style="fill: #b3995d"/>
    <path d="M639.6,184.33c-3.32,2.18-6.5,5.41-6.6,9.82,2.37-.42,3.55-2.65,5.92-3.19,2.36-2.75,6.38-4.39,7.9-7.7h0C644.33,183.52,641.72,183.36,639.6,184.33Z" style="fill: #9a3b26"/>
    <path d="M648.79,193.69c-.59.92-1.42,2.06-1.29,3.12,2.6-1.16,5.45-2.37,8.17-3.76,1.05-1.46,4.38-1.67,3.76-4.8C655.16,188.64,651.61,190,648.79,193.69Z" style="fill: #9a3b26"/>
    <polygon points="659.43 188.25 659.43 188.25 659.43 188.25 659.43 188.25" style="fill: #9a3b26"/>
    <path d="M641.3,191.22a13.57,13.57,0,0,0,3,1.37l2.91.8,3.93-4c-2.14-1-4.38-1.14-6.06-1.8Z" style="fill: #9a3b26"/>
    <path d="M561.68,194.16c.83-.36,1.19-1.34,1.64-2,1.17-4.34,7.8-6.76,4.2-12.3C563,182.34,560.33,188,561.68,194.16Z" style="fill: #9a3b26"/>
    <path d="M514.32,174.52c-2.25-.81-4.05-2.83-6.19-3.73,1.46,4.69,4.09,9.06,5.78,13.67,2.63,3.72,6.79,3.46,9.65,6.47a14.12,14.12,0,0,0,4.78,3.87c0-4.3-3.85-8-6.13-11.42S516.25,178.26,514.32,174.52Z" style="fill: #395839"/>
    <path d="M558.19,187.73c.25,1.08.37,2.16.62,3.25,1.07-.95.58-3.28,1.52-4.38C559.38,186.41,559,187.62,558.19,187.73Z" style="fill: #9a3b26"/>
    <polygon points="570.08 208.73 570.08 208.73 570.08 208.73 570.08 208.73" style="fill: #9a3b26"/>
    <path d="M570.08,208.73a25.4,25.4,0,0,0-9.29-4.71c-.83,1.12-.81,2.82-1.15,4.17,7.66,13.63,6.71,30.88,1.43,42.2a20.6,20.6,0,0,0,4.51,1.41c-.74-4.45.19-8.68.76-13.23,1.37-6.38-2.34-13.77-.13-19.67.72-.52,1.31.51,2,.66,3,5.15,6,10.2,7.68,15.87,1.07-.43,2.74.83,3.69,0,.13-3.71.27-7.41.4-11.11-2.74-2.49-6.43-3.4-9.88-4.6C569.16,215.7,570.1,212.91,570.08,208.73Z" style="fill: #9a3b26"/>
    <path d="M516.37,199.63l5.14,5.87,1.54-1.52h0a30.08,30.08,0,0,1-6.44-4.45Z" style="fill: #1691ff"/>
    <path d="M728.6,244.86c-1.53,1-4,1.19-4.49,3.06l.36.07c4.75,1.55,9,2.47,13.53.21h0c0-.39,0-.79,0-1.18C735,244.91,731.56,243.86,728.6,244.86Z" style="fill: #9a3b26"/>
    <path d="M522.34,206.19l3.95,3.45c.82.43,1.42-.63,1.89-1.19C526.39,207.45,524,202.73,522.34,206.19Z" style="fill: #9a3b26"/>
    <path d="M737.78,249.83c-1.55,1.16-3.81.19-5.35,1.36,1.57,3.66,3.69.05,5.83.56C737.78,251.15,737.29,249.88,737.78,249.83Z" style="fill: #9a3b26"/>
    <path d="M649.34,247q0-6-.08-12h0c-4.28-2.46-8.32-3.17-12.61-5.38-1,2.26-.67,5.58-1,8,.64,7.83-7.23.18-10.3,2.91-.22,4.12-1.15,8.62-.76,12.34,2,2.63,5.82,2,8.56,3.61-.57,4.85.29,10-.51,14.22.37,1.78-2.1,5.67,1.23,7,3.68,1.3,7.62,3.82,10.7,2,1.86-5.61,1.7-12.53,2.49-18.87,2.14-.06,3.69,1.56,5.83,1.87,3.79,2,2.35-3.28,3.53-4.84,0-2.36,1.16-5.1-.28-7.35C654.08,248.93,651.47,247.1,649.34,247Z"/>
    <path d="M715.33,287.72c-20.43,18-40.16,34.23-60.1,52.55-.08.38-.16.75-.23,1.13,2.09,12.43,4.06,24.29,0,35.14l2.37-1.07c-.27-4.61,2.07-8.68,1.22-13.41-.28-7.09,3-12.9,1.18-19.78.24-.48.6-.4,1.07-.3,6,6.32,6,15.31,8.21,23.31a103,103,0,0,0,10.39-8.39c20.3-19.37,44-38.6,66.36-57.58,1.07-.83,2.25-1.4,2.48-2.79a1.24,1.24,0,0,0,.59-.66h0L750,292.3c-2.9-8.93-7.56-17.91-7.61-27.82C733,271.88,724.18,280.46,715.33,287.72Z" style="fill: #efe8c7"/>
    <path d="M750.72,279.05c.34.83.67,1.67,1,2.5.37-7.3-.28-15.06-3-22C747.45,266.12,748.34,272.52,750.72,279.05Z" style="fill: #efe8c7"/>
    <path d="M750.66,299c2.16,7.42,3.87,15.15,6.54,22.5,1.79,3.69,4.3,7.14,6.1,10.81,2.33-6.74,4.07-14.39,3.19-22.61-1.34-6.86-5.67-15.53-12.44-18.29.23-.36.71-.14,1.06-.07.07-.68.14-1.37.22-2.05.77-10.65,1.06-21.93-2.56-32.6-.83-1.18-1.55-3.93-3.21-3.29-1.41,2.46-4.38,2.57-5.31,5.54-1,7.22.79,15.36,3.57,22.37.24.82,2.4,5.9,2.77,8.58l.23,0c.47-.81,0-2.46.46-3,.11-1,.22-2.05.3-3.09q-1.11-2-2.24-4h0c-2.09-6.27-3.43-12.77-2.5-19.5.36-1.22,1-2.54,2.48-1.62,1.8,1.75,1.81,3.81,2.65,5.82,1.12,9.31,2.25,19.27-.31,28.05-.35,1.52-.7,3-1.06,4.58-.27.48-.75.94-1,1.39-1.86,7.49-6.43,16.69-.92,25.37l.83.4c.25.42-.24.6-.1.89a116.12,116.12,0,0,1,5.16,12.24,142.28,142.28,0,0,0,7.36,20c3.75-7.8,1.8-16.47-.13-25.12-7.18-9.86-9.39-21.17-11.94-32.32C750.06,299.72,750,298.93,750.66,299Z" style="fill: #773141"/>
    <path d="M652.07,249.05c-1.18-.91-2.84-.34-3.81-1.58-.72-3.55.43-8.38-.3-11.91h0l-10.7-4.21c-.81,3.47,0,8-1.48,11-3.44.45-5.47-1.55-8.91-1-.92,3.46-.9,7.37-.76,11.82l2.14.84c2.14.71,3.92.45,6,1.78a162.72,162.72,0,0,1-.72,20.13,9.25,9.25,0,0,0,3.82,2.26c1.89,0,4.28,1.81,6.17,1a110.14,110.14,0,0,0,2-18.94c2.13-1.9,5.82,1.61,8.54,1.28a27.66,27.66,0,0,0,1.24-10.42Z" style="fill: #9a3b26"/>
    <path d="M528.43,210.84a33.83,33.83,0,0,0,6,2.95C532.47,212.5,530.07,207.89,528.43,210.84Z" style="fill: #b3995d"/>
    <path d="M742.66,254.53a10.29,10.29,0,0,0-6.77-.87c-.83.11-.94,1.52-2.12.76-.49.44-1.07.85-1.07,1.49,1.67,1.24,3.44,0,5.34.49,1.91.08,3.92.61,5.58-.13A3.44,3.44,0,0,0,742.66,254.53Z" style="fill: #9a3b26"/>
    <path d="M740,258.44c.83.66,1.55,1.85,2.62,2a3.83,3.83,0,0,1,.35-2.39C742.1,258.59,741,258.39,740,258.44Z" style="fill: #9a3b26"/>
    <path d="M552.72,226.43,551,226a16.06,16.06,0,0,0-.44,7.12c1.8,3,2.17,6.41,4.09,9,.32-5,1.26-8.35,1-13.6A6.85,6.85,0,0,0,552.72,226.43Z" style="fill: #b3995d"/>
    <path d="M551.4,224.6l1.35.56c.85.35,1.78,1.18,2.71,1.19a61.77,61.77,0,0,0-1.81-6.46A29.18,29.18,0,0,0,551.4,224.6Z" style="fill: #9a3b26"/>
    <path d="M539.79,227.06c-7.48-1.07-15.09-4.95-22.24-8.47-1.65,1.77-4.26,3.24-5.31,5.66,6.92,5.66,15.24,8.39,23,11.56,5.47,2.09,8.36,9.43,14,11.55-2.54-7-7-13.32-9.39-20.3Z" style="fill: #b3995d"/>
    <path d="M723.55,273.83c.21-4.25.55-6.8.4-11l-.82-1.08h0c-3.11.2-5.48-1.7-8.81-2.08-1,3.44-1.14,7.46-2.3,11-3,.47-7.37-1.7-10-1.69a31.2,31.2,0,0,0-.42,9.4c3.22,1.81,5.94.91,8.79,2.91l.06,8.47c5.55-4.38,11.58-9.06,16.3-14.41A3.88,3.88,0,0,1,723.55,273.83Z" style="fill: #9a3b26"/>
    <path d="M496.5,233.17c-6.59,8-10.33,17.5-14.43,27.11.73,2,1.21,4.23,2.17,6.22,4.55-14.07,13.3-24.65,23.15-38L503.63,225C500.23,228.64,497.77,230.68,496.5,233.17Z" style="fill: #9a3b26"/>
    <path d="M757.69,289a3.4,3.4,0,0,0-1,3.15,15.39,15.39,0,0,1,5.4,4.42l-3.69-5.42C758.14,290.44,757.91,289.72,757.69,289Z" style="fill: #d1b881"/>
    <path d="M762.05,296.58l1.05,1.53A10.76,10.76,0,0,0,762.05,296.58Z" style="fill: #d1b881"/>
    <path d="M762.31,285.37l-.35-.07c-.75,1.51-2.32,2.2-3.58,3.11l.77,2.22c4.34,5.61,7.63,12,11,18.05,3.58,4.77,2.8,14.13,9.92,14.53l-1.8-5.63C773.47,306.77,768.54,295.92,762.31,285.37Z" style="fill: #9a3b26"/>
    <path d="M560.47,251.7c-2.1,6,4.22,11.13,6.27,16.23,3.3-3.62-.65-9.11-.91-13.73C564.28,252.71,562.15,253,560.47,251.7Z" style="fill: #b3995d"/>
    <path d="M481.72,261.54a3.21,3.21,0,0,0-2.62-2.24,4,4,0,0,0-1.29,4.45c2.52,4.71,4.57,10.12,8.28,14-1.69-5.23-2.68-10.85-4.37-16.2Z" style="fill: #9a3b26"/>
    <path d="M788,333.43c-2.89-6.43-8.73-9.71-14.79-10.82a6.82,6.82,0,0,0,1.81,3.16c4.52,2.55,8.09,6.12,12.63,9.19C788.35,334.82,787.88,333.94,788,333.43Z" style="fill: #9a3b26"/>
    <path d="M474.64,268.86c-2.24,2.5.63,5.7,1,8.61,0,0,1.07.3.59.6.85,3.29,3.84,7.53,6.7,8.78.1-4.54-3.37-8.5-5.05-12.78C476.79,272.33,476.89,269.61,474.64,268.86Z" style="fill: #9a3b26"/>
    <path d="M760.35,357.24h0c-5.15-9.63-6.64-20-11.44-29.76a53.18,53.18,0,0,0-2.31,11.58c.07,11.05,7.25,20.81,9.44,31.61,1.21,3.45,1.72,7.71,2.32,10.81,4.25-5,3.61-13.28,3-20.56C759.9,359.63,761.19,358.54,760.35,357.24Z" style="fill: #773141"/>
    <path d="M775.42,334.15c-.35,1.26,1.32,2.32,1.91,3.45,6,2.65,8.74,11.94,15.28,12.94C790.07,342.5,782.19,337.09,775.42,334.15Z" style="fill: #9a3b26"/>
    <path d="M478.42,284.94h0c-.84-1.82-2.17-3.07-2.77-4.58a123.37,123.37,0,0,0-5.44,20.35c-3.5,10.77-1.89,24-2.77,34.31-.1,2.72.17,9.13.17,9.13l-.11-.27c-.08.77-.15,1.53-.23,2.3,1.38,12.44.84,22.9,3.76,35.72-1,4.28,4.43,4.45,6.34,7.39-1.14-11.64-4.87-21.75-5.42-32.77-1.59-9.59-1.28-17.61-1-26.81C470.63,314.55,474.46,299,478.42,284.94Z" style="fill: #9a3b26"/>
    <path d="M791.32,354.8c1-4.67-4.77-4.78-6.21-8,1,4.31,2.65,8.25,2.92,12.7,2.92,12.82,3.36,26.95,4,40.19.49,2.29,3.1,2.41,4.3,4.43.92-4.68-.05-10.42-.09-15.5C793.72,378.19,794.23,365.4,791.32,354.8Z" style="fill: #9a3b26"/>
    <polygon points="572.79 308.32 572.79 308.32 572.79 308.32 572.79 308.32"/>
    <path d="M575.77,309.2a17.9,17.9,0,0,0-3-.88h0c-.72-.79-3.44-.58-4.52-1.43-.23.22-.23,1-.82.63,0,.38-.24.83.24,1.2,2.49-.93,6.17.75,8.92,2.09,1.54.3,2,2,3.45,2.53C579.45,311.25,577.31,310.15,575.77,309.2Z"/>
    <path d="M747.74,351.87c-2.21,5.6-1.93,13.05-1.54,19.24,1.59,8,7.32,14.36,9,22.19.95-2.7.92-6.21.9-9.21l.59-.55C756.05,372.63,752.31,361.93,747.74,351.87Z" style="fill: #773141"/>
    <path d="M625.54,338.59c-1.39,5.32-3.26,10.52-3.34,16.87a72,72,0,0,0,4.55,6.81c1.55-.33,1.77-1.84,3.19-2.71-1.59-8.12-3.43-16.46-3.58-24.57C626.09,336.19,625.81,337.39,625.54,338.59Z" style="fill: #b3995d"/>
    <path d="M462.46,337.25a25.91,25.91,0,0,1,3.46,2.88c.26-4.78.57-9.28.67-14.11l-1.34.44C463.57,329.73,463.14,333.29,462.46,337.25Z" style="fill: #1691ff"/>
    <path d="M468.92,388.33c-.72-1.4-.62-4,1-4.26-3-11.27-2.26-21.16-3.39-32.15-2-3.94,1.82-10.51-3.4-12.62-.84-.89-.95.12-1.54.43,0-4.93.31-10.76,3.16-14.4l1.64-1.51h0c.06-2.51.1-5.07.17-7.67-2.36,2.35-5.08,5.06-5.65,8.91-2.69,6.62-1,16.5-2.23,23.34-1.4,4.48.29,10.32-1.22,15-.94,1.83-2.48,3.94-4.73,4-1.09-2,1.66-1.71,2.35-2.92a18.9,18.9,0,0,0,1.25-12.05L454.25,355c-.58.69-.95-.5-1.55-.74a19,19,0,0,0,4.25-5.64c0-4,1.72-8.45,1.23-11.14-3.54,3.39-9.13,1.8-13.63,3a6.63,6.63,0,0,1,1.1,4.19c-6.88,2.82-2,11-3.35,17.1.25,2.24,2.74,1.67,3.94,3.13,0,2.23-2.61.17-3.67.82a43.17,43.17,0,0,0-.51,16.2c.47.17.6-.45,1.07-.65.12.29.48.46.35.82l5-.07c.12.26.6.59.37,1-1.66.54-3.69,0-5.34.44.12,1.19-1.17,4,1.09,4.18,1.31,1,3.09,2.63,2.63,4.52,1.08,1.57,2.14-.24,3.45.35.84,1.44-.22,2.31,0,3.63-2.14,1.39-3.06,4.78-5.8,3,.28,7.59,1.15,14.09,1.19,21.79,1.07.79,2.61,0,3.45,1.39-.59,1.09-1.31.18-1.9.63-1.17,3.74-2.69,7.32-2.3,11.93l2.13-.24c2,2,.39,5.63,1.48,8.15a10.21,10.21,0,0,0,5.19-4.6c2.36-.84,1.07,2.49,2.27,3.58,1.67.38,1.53-2.12,2.83-2.18.36.41.13,1.05.25,1.45,1.43.35,1.68,2.35,3,3.33.83-.14.94-1.18,1.41-1.75.48-.07.72.5,1.08.68,0-.65,0-2.21,0-2.86-2.52-4,3.89-4.22,1.73-8.33,1.65-3.9-.52-7.77.17-12-1.57-3.87-3.73-9.15-2.21-12.95,1.89,0,1.79,3.52,2.27,3.86-.26-4.86,2.82-7,4.09-10.81.36-.59.95.26,1.2.55-.11,1.42-.22,2.83-.34,4.25l.24,0c1.42-1.08,1.53-2.74,1-4.52.24-.23.47-.57.83-.39.09-.38.17-.75.26-1.13-.17-.23-.34-.46-.51-.74C475.25,393.86,469.41,392.55,468.92,388.33Z" style="fill: #efe8c7"/>
    <path d="M475.29,400.4l.39,1.6c0,.64-.44,1.34-.37,1.92,2.17,3.86,5.37,5,8.59,7.52,1.07.3,2.74,1.23,3.57.06.23-.49-.25-.8-.37-1.24C483.41,406.32,478.69,404.19,475.29,400.4Z" style="fill: #9a3b26"/>
    <path d="M639.61,368.5c-.93,3.85,1,8.67-.89,11.9l3.12,3.8c2.78-9.55,2.47-22.77.86-33.78C642.26,356.84,640.28,362.27,639.61,368.5Z" style="fill: #efe8c7"/>
    <path d="M754.06,396.87c.3-8.66-7.09-15.71-8.69-24.07a2.87,2.87,0,0,0-.93,2.43c-3.62,10.91,3.45,22.49,7.91,33,1.88-3.06,1.73-7.49,1.71-11.4Z" style="fill: #773141"/>
    <path d="M630.3,360.82c-.71.37-1.65,1.34-2.36,1.82-.23,2.31,2.75,4.22,3.72,6.52-.26-2.93-1.23-5.47-1.36-8.37Z" style="fill: #efe8c7"/>
    <path d="M796.39,406.82h0c-1-3.38-4.43-4.43-6.69-6.33l-.24.6c1.69,5.48,7.07,10.84,9.59,15.52-.36-.58.35-1.38.34-2C799,411.79,798.76,408.64,796.39,406.82Z" style="fill: #9a3b26"/>
    <path d="M617.52,367.5c.14,1.44-.82,2.67-.81,3.58.47-.93,1.66-1.35,2.12-2.26C618.36,368.3,618.24,367.51,617.52,367.5Z" style="fill: #b3995d"/>
    <path d="M652.51,383.83c-.57,3.67-4.23,5.89-4.93,9.76,1.09,2.32,2.88,4.65,3.72,6.78-.13-2,.82-3.34,1.64-4.72,2-1.67,4.37-2.86,7.11-1.62.18.27.5.63.76,1l.65,0c-.18-6.83-2.85-11.39-3.89-17.94C654.73,378.07,653.69,381.36,652.51,383.83Z" style="fill: #b3995d"/>
    <path d="M657.92,395a4.71,4.71,0,0,0-4.74,3c-.7.9-.22,2.3-.8,2.85,1.21,3.75,4.07,7,6.22,10.4,1.43-1.25.82-3.35,1.51-5.28a19.55,19.55,0,0,0,1.45-8.34l-2.12-1.87C659,395.26,658.48,394.77,657.92,395Z" style="fill: #1d5c42"/>
    <path d="M751.05,408.69c-2-4.78-4.45-9.4-6.5-14.32-4.09,11.34,1.93,24.95,5.79,36.71l.24.05c.46-3.06,1.63-4.8,1.5-8.2C752.4,418.06,749.41,413.09,751.05,408.69Z" style="fill: #773141"/>
    <path d="M463.8,344.22h0c-.23,0-.59.06-.59-.21l-.47.3c-.56,5.41-2.09,9.72-2.65,15.36l.36.06c.71-.28.82-1.43,1.05-2.19.84,1.16,1,2.88,2.17,3.83a7.68,7.68,0,0,0-.85-3.88c-2-2-.15-4.85.19-7,.95.78,1.32,2.28,1.92,3.29.36.29.6,0,.83-.28-.12-.93-1.09-1.73-1.09-2.75C462.76,349.28,463.58,346.27,463.8,344.22Z"/>
    <path d="M793.19,409.86c-1.16,3.08,2.88,4.5,3.25,7.25C798,414.74,794.51,412.28,793.19,409.86Z" style="fill: #9a3b26"/>
    <path d="M560.92,368.27a10.08,10.08,0,0,0,3.48,7.2c1.68,2.55,5.83,3.26,6,5.51,5.57-2.9,9.81-6.71,15.38-8.57-4.16-.45-8.31-.93-12,0C569,372.39,565.43,368.28,560.92,368.27Z" style="fill: #1d5c42"/>
    <polygon points="633.08 389.5 633.08 389.5 633.08 389.5 633.08 389.5" style="fill: #efe8c7"/>
    <path d="M616.22,388.56c-4.59,0-14.32-2-14.32-2a31.24,31.24,0,0,0-5.61,2.25,10,10,0,0,1-3.54,3.55,33.22,33.22,0,0,0,13.18,1.84c9.5-.88,16.7-6.9,27.15-4.7-1.08-1.61-2.15-3.22-3.23-4.82C625.47,386.48,620.6,386.88,616.22,388.56Z" style="fill: #efe8c7"/>
    <path d="M743.85,416.49c-1.87,3.82-4.35,7.16-4.2,12.11,1.46,6.92,4.82,13.39,7.35,20,2.36-4.79,2.08-11,1.45-17.2l.47-.29C747.23,426.24,745.66,421.13,743.85,416.49Z" style="fill: #773141"/>
    <path d="M657.25,401.61c-1.56-.7-1.66,1.49-1.3,2.62,1,1.48.86,3.68,2,4.59C658.81,406.76,655.59,403.6,657.25,401.61Z"/>
    <path d="M594.86,389.54a13.15,13.15,0,0,1-6.63,2.52C591.09,393,592.74,390.92,594.86,389.54Z" style="fill: #b3995d"/>
    <path d="M456.23,368.76c.25,2.1-.45,3.95-.2,5.81,1.42-.95.93-3.51,1.27-5.27,0,0,0,0,0,0C457.29,368.77,456.59,368.29,456.23,368.76Z"/>
    <path d="M805.35,437a72.75,72.75,0,0,0,3.61,9.65c.7-2.63-1.58-4.91-1.71-7.54C806.78,438.43,806.52,436.68,805.35,437Z"/>
    <path d="M612.66,407.72l2.61.8c3.46,3.47,4.37-2.67,7-3.41h0A45.75,45.75,0,0,0,612.66,407.72Z" style="fill: #efe8c7"/>
    <path d="M460.19,376.34h0c-2.82,5.07.08,13.68-4.4,18.1.35.32,1.07.81,1.3.2,1.89-2.46,2-5.18,2.69-8.33,1.08,1.46,1.45,3.34,2.63,4.55.72-.67,0-1.67-.24-2.5C457.63,384.56,460.81,380.33,460.19,376.34Z"/>
    <path d="M650.56,415.45a26.88,26.88,0,0,0,4.28,1.43c-1.2-1.44-2.86-1.39-4.29-2.08Z"/>
    <path d="M456,387.19c.47.19.6-.18,1.07-.36l.09-4.69C455.48,382.44,456,385.63,456,387.19Z"/>
    <path d="M470.7,385.62l-.84.4a4.92,4.92,0,0,0,.13,1.85c1.11,6.16,7.06,8.12,11.46,9.75.58-.43,1.89.07,1.65-1.3C479.17,392.68,475.34,388.42,470.7,385.62Z" style="fill: #9a3b26"/>
    <path d="M745.38,454.52c0-1.39,0-2.78,0-4.17.23-.23.47-.71.82-.64-1.8-3-3.13-6.94-4.57-10.18C739.74,444.25,743.22,450.09,745.38,454.52Z" style="fill: #773141"/>
    <path d="M675.59,434.6a11.05,11.05,0,0,1-1.4,3.34l.36.86c1.88-2,1.87-5.61,2.92-7.59C675.21,430.22,675.58,433.27,675.59,434.6Z"/>
    <path d="M445.91,391.34c-.48-1.48-1.55-2-2.63-2.94.26,3.16-.31,6.72.54,9.19,1.06.77,2,.12,3,.26,1.17-1.12,2.83-1.7,2.82-3.64l-2.61-.1A2.54,2.54,0,0,1,445.91,391.34Z" style="fill: #9a3b26"/>
    <path d="M798.22,458.91c1.44-.18,2.49-1.72,3.32-2.77C799.87,456.18,798.69,457.81,798.22,458.91Z"/>
    <path d="M814,458.18c.25.94,1.44,1.64,1.92,2.63.59.19.23-.5.58-1A2.29,2.29,0,0,0,814,458.18Z"/>
    <path d="M738.65,541.65l-.24-.29c-.35.81-1.58,1.4-2.46,2.23l-2.89,2.19a2.77,2.77,0,0,0-.44.61c.09.37.21.79.32,1.19h0l1.53-1.76c3.89-2.81,11-3,9.24-10.26A25.83,25.83,0,0,1,738.65,541.65Z" style="fill: #9a3b26"/>
    <path d="M735.31,547.42l-1.84,1.92c1.06,3.18,2.49,6.32,3.5,8.8,2.34-4.92,5.76-9.49,6.19-15.25-2.26,1.61-5.43,2.7-7.85,4.5Z" style="fill: #1691ff"/>
    <path d="M724.92,528.28a52.25,52.25,0,0,1,2.27,5.76v0l2.26,3.59c.61-.76,1.62-1.41,1.68-2.61,1.87-4.72,2.21-8.7,2.41-14.51C732.14,524.83,728.36,526.85,724.92,528.28Z" style="fill: #b3995d"/>
    <path d="M741.54,569.51c4.94-8.06,11.9-13.83,15.53-23,6.58-13.56,5-30.86,3.3-46.91-2.49,2.69-5.67,5.25-6.6,9.12.41,10.09-7.5,16.21-8.4,25.16a40.21,40.21,0,0,1-7.09,25c-.83.62,0,2.84-1.66,2.29-1.8-5-4.44-9.83-5.18-15a2.78,2.78,0,0,1,.93-1.45l2.84-2.12,5.32-4.63c7.07-7.8,5.21-21.68,9.18-31.38,5.54-7.45,2.38-19.08-.75-28.36-1.24,11-9.52,17.51-12.43,27.38-2.09,6-1.46,12.73-1.66,19.36-.44,5.22-1.6,11.66-5.61,14.66v0c-1.08-1.68-2.16-3.37-3.25-5-1-2.53-2.26-5-2.64-7.55a9.91,9.91,0,0,1,3.43-1.41c4.61-2.51,7.31-8,6.92-14.18C732.6,501.25,733,490,733.17,480c-.42-11.41,3.07-22.85,1.7-33.93l-3,2.44c-13.82,9.47-4.31,33.16-9.33,47.43,1.56,3.95-.44,7.72,1.49,11.75,1.21,4.5-1.75,6.55-4,8.86-.35.16-.59-.39-.83-.56.46-2.52,2.82-3.51,3.53-5.69.32-4.1-1.48-9-1.5-13.45-2.85.77-5.95-1.79-8.3.1-.61.65-2.61,1.55-1.52,3a9,9,0,0,0-.79,9.2c1.32,1.83,3.59,4.24,4.07,6.65-.24.1-.58.56-.82.11a76.15,76.15,0,0,1-4.55-7c-2.62-.51-3-4-5.83-3-1.19.4-1.67-.85-2.26-1.5-.83,1-2.61,1.69-2.12,3.61,2.38,3.23,4.79,8.11,9.18,8,.6.4,1.44,1.45.84,2a4.62,4.62,0,0,1-4-1.45l-.24.18c-1.9-.89-3.1-3.46-5.12-4.76l-6.89.16c-5.8,1.42-10.93-3.52-17.11-3.63-5.94-1.11-11.9-5.84-17.48-4.41-4-.85-5.06,3.09-7.66,5.13,2.14,2.55,5.34,1.41,8,1.57,10.92-.21,20.7,6.92,30.11,12.71,7,.66,16.63,4.41,23.14,1.39,1.32,2.6,3.23,5.07,4.31,7.86.25,1.35,2.16,3.83,0,4.18-4.05-2.23-7.75-5.17-11.56-7.59-3.57-2.16-7.71-.79-11.41-2.57-10.44.5-22.79-.51-34-5.56.13,2.11,1.68,4,2.41,6.1,3.84,9,11.81,9.34,18.82,10.64,7.95,1.12,14.81-1.26,22.17-1.33,2.51,1.25,5.12,1.11,7.73,2.42,4.65,2.33,10.23,3,12.88,9.54.6,1.42,2.52,4.89,2.4,5.15a179.46,179.46,0,0,1,5.92,17.12l-.47.82c-9.15-1.87-16.44-9.28-23.6-16.8l-6.9-2.94c-5.84-4.54-12-2-18.17-3.28-6.66-.22-11.32-6.25-17.72-6.41-1.44-.16-1.54,1.64-1.05,2.77,3.34,6,8.24,9.39,13.12,12.35,6.53,1.87,12,6.12,18.21,8.92,6.67,3.82,13.43,3.34,20.1,7.25a17.85,17.85,0,0,0,19.49,4.65l.83.81c-.22,1.5-1.06-.07-1.65.84,12.48,24.85,24.74,49.6,39.24,73.61.82-2.73,4-3.35,6.15-3.54-7.83-20.39-19.22-39.76-28.72-60C747.44,583.09,743.48,576.11,741.54,569.51Z" style="fill: #1d5c42"/>
    <path d="M804.64,458c0,2.64,0,5.29,0,7.93,2.13-1.64.33-5,.54-7.84Z"/>
    <path d="M475,395.94l0,2.36a9.24,9.24,0,0,0,4.05,3.88c-.17-1.41-.34-2.81-.5-4.22C477.3,397.62,476.46,395.92,475,395.94Z" style="fill: #9a3b26"/>
    <path d="M743.89,464.53c-.12-1.18-.37-3.06,0-3.93.71-.24.84,1.22,1,.86a19.47,19.47,0,0,0-3.27-11.4C738.37,454,741.73,460.37,743.89,464.53Z" style="fill: #773141"/>
    <path d="M456.88,397.84a25.25,25.25,0,0,1-2.82,5.46c1.67.62,1.89-1.67,2.6-2.73.85,3.36,1.7,6.87,3.49,9.74.2-.24.4-.47.59-.71a37,37,0,0,1-3-8.87C457.13,399.84,458.42,398.34,456.88,397.84Z"/>
    <path d="M800.52,465.63c-1.3.08-2.6,1.69-3.79,2.15C798.4,468.31,799.93,467,800.52,465.63Z"/>
    <path d="M706.92,539c-1.06.31-2.73-1.59-3.56-.31,0,3.13,0,6.37-.79,8.55-4.5-.12-9.5-2.17-13.9-3.72a12,12,0,0,1,0-2.16l-.26-2.32a29.12,29.12,0,0,1-10.44-.56c-5.58-.76-10.57-1.28-14.88-7-2.16-3.84-4.9-7.94-5.17-11.9l.48-.4A63.27,63.27,0,0,0,680,525.15c3.44.29,6.06.84,9.37.08-6.19-4.5-11.07-6.82-17.63-10.49a27.73,27.73,0,0,0-15-2.37c-2.5-.38-6.28-.14-7.49-3.51.82-2.18,3.07-2.62,3.88-4.78-2.13-.46-3.67.39-5.81.47a3.55,3.55,0,0,1-.23-.31,5.74,5.74,0,0,1-5.36-1.76l-.84-2.15a105.57,105.57,0,0,0,9.34-5.06c-4-.44-8.31-.44-12.59-2.38l-.47.55c-.23,2.14.74,6.52-.78,8l-9.13,0c-.45,5-.19,10.75-1.45,15.8A40.44,40.44,0,0,1,613,513.43c0-6,.28-11.78.72-18-1.07-.73-1.9-.53-3.33-1-1.06-1-2.25.07-3.2-1.17-.62-3.13-1.12-7.41-.07-10.58-.36-1.48.46-2.75.57-4.29,3.08-.9,6.06,1.39,9,.45.22-2.29,1-5.23.08-7.25,3.09-.39,5.81-1.64,9,.73,1.07-.44,2.25.62,3.21,1.18,1.09,3.5.65,8.48.54,12.11,1.91,1.17,3.44-.33,5.35-.07,7.48.94,14.25-1.18,18.49-7.56l.57-2.79a13.81,13.81,0,0,0-5.23,2l-.24-.16c-4.26,1.56-11.5,1.09-16-3.41-3.12-3.65-6.22-7.29-6.49-12.17,5.1-1.64,10,3.28,15.21,3.49,7.48,1.05,12.44-3.64,19.57-3.71,1.42-.74,3.44.07,5-.5,2.13-.37,5.58.62,7.83.45,1.9.38,3.63,0,5,1l-3.21-4.18c-2.79,2-6.92,2-11,.23a11.82,11.82,0,0,0-4.28-1.55l-12.48-2.36c-6.39.35-12.3,4.19-19-2.17-6-5.7-12.63-9.44-18.48-15.61a7.76,7.76,0,0,1-.63-5.09c5.69-.6,12.71,1.91,19,3.64,1.9,1.16,3.93,2,5.6,3.5,6.66,3.62,13.57,7.94,20.35,9.89l3.94,0,1.55-.8a25.76,25.76,0,0,1-6.41-12c-.25-1.23.22-3.07,1.65-2.78,2.39,1,5.22.05,7.49,2.07,2-.36-.25-2-.38-3.05-1.67-2.19-3.47-5.93-6.08-5.84-7.22,4.88-15.6,10.38-25.1,7.59-7.39-4.42-13.83-11.38-21.45-14.78a22.05,22.05,0,0,0-2.15-1.65c-10.27,9-19.23,19.94-31.54,25.1-2.48,0-4-2.88-5.15-5.14v-.05l-1.11-2.32a8.78,8.78,0,0,1-.79.7c.25,1.73,3.23,3.77,1.58,5.25-4.48,5.47-11.58,9.5-16.65,14.23-1.27,6.23,5.48,1.87,7.51,5.39q-.06,7.86-.14,15.74c-2.86.19-6.67-2.91-8.92-1.15-.79,5.32-.65,10-1.79,15.16-3.09.27-7.6-1.27-10.69-1.21l-1-1.34c0-7.18.38-13.08.1-20.27-5.17,5.48-11.67,10.12-17.34,15.19l1.44,2.59.24-.22c2.27,2.92,4.9,5.75,6.92,8.86,3.21,1,7,1.21,10.47,3.31a7.1,7.1,0,0,1,.26,4.35c-.59.79-1.43.62-2,1.41,1.31,1.19,2.63,4.68,4.53,3.48,2.14.29,4.62-1.69,6.43,2.2.48,2.41-1.89,3.78.73,5.73,16.7,14.07,33.51,28,52.68,35.88.23.3,1,1.24,1.31.79,2.83-1.61,4.24-4.71,7.67-5.43.47-1.33,1.55-1.22,2.61-.86.24.43.94.18,1.18.63,2.76,4.63-3.16,5.45-4.57,8a43.8,43.8,0,0,1,5.35,2.68c3.43-1.37,5.06-5.71,8.25-7.62,1.31-.37,1.67,1.51,2.63,2.25,0,2.74-1.52,4.48-2.57,6.48l.83.83c13.9,2.53,29,3.52,43.23,5.57a71.69,71.69,0,0,0,14-1.25l1.32-.14c-8.61-4.26-17.93-7.92-22.28-18a2.5,2.5,0,0,1,1.53-2.81c7.11-.45,13.09,7.54,20.68,6.63,4.63.17,10.8-.14,15.45,2.74a19.13,19.13,0,0,1,9,4.49l1.32.11c4.1-1.64,7.62-3.92,11.62-5.86C719.63,541.14,712.28,542.29,706.92,539Z" style="fill: #b3995d"/>
    <path d="M710.46,555.33a2.07,2.07,0,0,0,.58-.15l-.72-.06-.1,0Z" style="fill: #b3995d"/>
    <path d="M596.4,407.42c.11-.61.7-.89,1.06-1.2-4.05-2.79-7.38-3.25-11.08-7-7.68,6.34-15.12,12.76-23,19,2.85,1.48,6.43,3.49,8.23,7.26,1.69,4.76,5.4,9,5.18,14.34-.23.21-.47.67-.82.61,1-4.61-3.38-9-4.59-13.56-2.16-3.83-5.14-6.52-8.59-7.6a10.77,10.77,0,0,0,1.36,8.62c1.55,1.48,2.72-1.16,4.38-.95a17.39,17.39,0,0,1,3.25,6.27,6.88,6.88,0,0,0-1.31,1h0c.41,1,.82,2,1.24,3.05a12.78,12.78,0,0,0,3,3.57c3.45,1,5.69-1.31,8.52-2.94A241.42,241.42,0,0,0,606.78,417c-2.63-2.22-5.72-3.27-8.81-4.42A4.74,4.74,0,0,1,596.4,407.42Z" style="fill: #efe8c7"/>
    <path d="M655.52,475.34c-.32.64-.65,1.27-1,1.9-2.88,7.18-10.94,9.53-18.17,8.88-1.43.34-3-.12-4.28.65,1.34,3.3,4.3,4,6.21,5.6,7.38,2.47,15.8,3.46,20.75-2.28,4.74-2.52,10.31-5.27,11.93-11.3C666.06,478.41,660.69,476.57,655.52,475.34Z" style="fill: #1d5c42"/>
    <path d="M727.15,449.05c-14.86-1.42-16.53,16.3-22,26.18-1.65,2.26-2.46,5.73-5.79,5.6a34.49,34.49,0,0,0-3.23-7.17c-.24-1.48-1.44-2.88-.62-4.15,2.72-1,4.12-4.12,5.89-6.49,11.08-12.12,4.91-32.49,8.26-49a25.65,25.65,0,0,0-.65-9.5c-11.47,7-11.63,21.77-12.61,35.22-1.73,8.25-5.13,15.89-5.19,25-.7,1.06-1.31-.51-2.14-.42l-7.3-10.72c.57-4.58,4.36-7.32,5.87-11.43,6.46-12.49,8.73-27.78,12.58-42a36.11,36.11,0,0,0-2-19.8c-6.94,10.45-23.63,17.83-17.36,35.53,1.11,7.1-1.94,12.71-.48,19.41,1.1,4.77-2.45,6.51-3.85,10-1.21-4.28,5.06-5.06,2.3-10.05A50.92,50.92,0,0,1,680,421.21a3.87,3.87,0,0,0-3.2-.93c-4.27,1.47-4.11,6.31-5.76,9.87-.22,2.42,2.17,4.48,2.18,6.42-1.19-.49-1.92-2.47-2.75-3.55-1-2.92-3.36-5.78-3.73-8.45-.6-1.3-.73-2.77-1.21-4,10.74-9.36,7.92-25.3,5.22-40.71-2.44-10.25-3.68-20.92-6.94-31.08a31.52,31.52,0,0,0-2.41-4.31c.06,8.23-2.51,16.67-1.75,24.52-3.51,8,3,17.41,2.88,26.09.51,5.72-1.37,10.77-2.4,16.42-.7.51-1.06,1.09-2.12.86-2.62-3.94-5.75-7.71-7.18-12l-.24.21c-1.45-2.11-3.36-4.61-4.32-7.15,3.63-7.31,7.64-14.41,8.65-23.06,3.59-14.45-3.16-33.17-2.78-49.77l-.48-1c-3.3,4.51-5.4,10.18-7.15,16,.15,4.82-1.49,8.28.08,12.62l.23.05c-1.53,1.78-.91,5.41-.42,7.86,1.72,10.9,1,21.42-2.44,30.45-.12.11-.35.59-.83.23.12-.38-.13-.94.23-1.13-1.68-2-2.27-3.2-3.83-5,2.12-3.71-.17-9.39,1.11-13.56,3.84-12.59,3.52-28.27.82-42.25-1.47-9-5.91-17.38-10.94-25.34.14,4.21,2.3,8.44,2.21,12.95.06,10.43-5.35,17.38-3,28.4.66,10.54,4.15,20.14,5.05,30.86l-.59.27q-5.64-8.22-11.26-16.45c0-5.32,2-11,3.35-16.32,2.79-10.35,1.3-21.74,1.47-32.51-3-8.94-4.14-18.29-10-26.43-.47,0-.71-.68-1.18-.49,1.7,6.86.44,16.87,1.21,24.85-.19,6.7-3.35,14.76-1.18,22.37.05,7.57,4.6,15.28,2,22.71-3-.12-3.71-3.92-5.14-5.91-2-4.85-6-9.2-7.56-14.07,3.41-6.84,7.4-13.42,7.7-22.46,1.09-17.73-1.06-39.94-9.47-57.95a11.08,11.08,0,0,0-3-3.76c-.22,5.18,2.31,10.52,1.14,16-2.78,11.41.74,24.13.57,35.54,2.08,9.42.35,18.67-1.5,26.75-1.43.22.48,1.78-1.06,1.71-4.76-3.07-6.7-9.59-6.72-15.18,2.8-5.4,6.21-10.54,5.7-17.82-.44-13.09.3-28.95-10.69-40.48L581,246.25c-.94,1.77-.8,4.3-1,6.45-2.45,7,5.18,12.91,5.45,19.85,2.32,8.69,1.54,18.54-1.62,25.7.24.69-.23,1.64-.34,2.39l-.47-.08c-.88-6.29,6.81-12-1.77-17.41-1.77.53-4.27.8-5,3-.59,2.49.26,6.84.29,9.82,2.85,1.51,1.56,5,3.71,6.64l.36-.33c-1.92-4.42-.65-8.6-1.15-13.38l.72.8c.38,4.1-.89,10,1.39,13.95-1.07.42-2.61-.53-3.22-1.83,1.29-3.13-2.4-3.62-2.64-6.26l-.3-9.58-1.07-.73c-1.09-3.46-4.2-7-3.5-10.35,3.66-3.42,2.78-9.71,4.65-14.27,1.73-9.27,1.54-22.2-3.38-31.79-1.92-2.87-2.65-6.38-4.93-8.8-1.5,6.58,2.11,13.42.25,20-1.62,8-.74,15.58,1.92,23.43a9.1,9.1,0,0,1-1.87,5.71l-1.55-.29c-2.52-5.86-8.85-11.17-6.74-17.62,5.51-11,7.19-28.51-.25-42.23-1,3.57-4,6.1-4.46,9.64,4.57,10,1.91,20.32.06,28.91-.48-.74,0-1.83-.49-2.94-1.57-6.06-6.95-11.65-4.62-18.26,3.05-8.1,8-14.28,10.18-23.07.23-4.25-1.34-8.48-2.07-12.27-2-9.1-5.57-18-12.5-25-.83-.54-2.37-.85-2.36.46,4.8,10.82,6.19,23.72,5.54,34.8-.92,6.45-5.74,11.48-2.62,19.38-1.18.16-1.32-2.33-1.91-3.36-6.12-9.64.6-18.64-1.95-29a97.51,97.51,0,0,0-16.06-46.66,1.09,1.09,0,0,0,0,1.43c2.81,15.13-1.61,29,6.66,43.16,3,6.45,3.27,12.49,3.08,19.21a13.75,13.75,0,0,1,1.08,2.53c-1.3.42-1.79-2.15-2.15-3.25-.87-4.19,1.73-7.87-.91-12.14-2.43-9.85-9-18.78-11.44-28.58-2.65-6.87-9.08-10.28-13.85-15A113.68,113.68,0,0,0,497.47,138l-1.84,1.34c1.08,6.84,7.75,12.39,11.37,18.38,4.67,6.44,6.14,14.38,11.15,20,4.54,4.75,11.45,10.86,11.5,17.9-2.85.5-5.48-2.47-7.51-4.67C517.37,188,512,187,508.21,182c-5.74-7.15-4.6-16.3-10.23-23.14-1.06.59,0-.51-.59-1-1.2-2-2.88-3.51-4.31-5.19,4,14.5,6.47,31,18.77,42.49q6.14,4.09,12.27,8.23c.35-.07.83.66.83.66,3.95,4,9.66,6.66,12.3,12.37-.82,1.92-1.78-1-2.86-1.2-7.13-2.54-13.33-7.71-18.59-14.55-.73-2.34-2.64-3.45-4.3-4.67-7.52-6.94-12.33-16.38-14.75-25.64-2.4-3.67-6.44-4.23-8.95-7.11l-.23.22c6.95,11.33,13.19,22.8,16.82,35.16,4,9.55,11.27,18.54,20.07,22,4.88,2.86,10.71,3.83,16.06,5.78,2.77,6.92,6.61,13.4,9.73,20.25a2.14,2.14,0,0,1-.94,2.15l-2.14-.67c-6-5.21-11.11-12.32-18.59-13.59-4.65-2.7-9.76-4.05-14.17-6.94-4.88-3.49-9.43-7.93-14.19-11.88-.71.79.49,2,.73,3a28.36,28.36,0,0,0,5.49,6.29c3,4.3,6.1,8.52,9.09,12.18,7.06,8.58,16.22,12.24,26.2,14,4.28,1.37,8.1,4.21,12.38,6,3.7,3.58,6.1,8.5,7.79,13.25.25,1-.22,2.42-1.53,1.92-5.36-1.48-10.24-5.05-15.59-7.14-5-1.62-10.45-2.15-14.63-5.79C521.79,251.91,517,238,505.91,236c-.81,1.94,1.57,3.91,2.77,5.42,5.72,5.72,5.3,13.86,10.44,20.14,3.44-1.07,7.83-2.06,11.76.1a19.19,19.19,0,0,0-10.69.61c.24.42,1,1.09.37,1.63-2.51-2.55-5.23-.19-7.84-.28a32.68,32.68,0,0,0-5.55,4.59c7.38,3.15,14.13,1.28,20.81,6.18,10.47,4.7,24.16,11.53,32.17,2.11,1.43,0,2.37-1.86,3.91-.91,4.6,7.64,9.29,15.67,11.38,24.21l.6,2.74a14.12,14.12,0,0,1,4.59,5.31c.59,1.69,2.26,2.81,2.63,4.44-.59.53-.48-.22-1.08-.35-2.27-3.07-3.48-7.76-7.29-9.57-3.31-.53-8.19-4-10.31-.92.13,2.63-.57,5.1,1.1,7.51,3,4.24,6.91,5.16,10.71,5.69.48.48.13,1.19-.35,1.11-2.61-1.05-4.86-.73-7.14-2.63-1.42,0-2.27-2.94-3.81-1.68C557,309.32,552.46,300,544.26,298c-4.87-1.2-10.35-2.13-14.51-5.64-3.81-2.05-7.4-5.57-11.79-5.21.25,1.1,1.67,1.75,2.15,2.76,4.32,6,6.62,14.73,13.76,17.15,6.31,3.93,12.74,5.76,19.27,7.07,6.2,3.16,13,11.24,20.1,9.82,5,.38,8.52-3.85,13.51-2.68l4.32,6.36c-.59,2.75-4,2.15-6.4,2.2-8.2-1.18-14.7,4.25-24.59-3.46-5.37-4.08-10.61-8.37-16.55-10.7l-.83.25c2.4,4.74,4.69,9.5,7.32,14.18,5,6.06,10.39,11.42,17.17,13.44,11.57,8.47,20.16-1.06,29.52-3.94,1.54-.72,3.44.46,5.11,1.2,3.35,3.69,6.58,8.92,7.79,13.33l-.7.9.23.18c-6.26,4-15.8-2.52-23.74-2.73-6.17.53-11,5.27-18.16,1.36-5.24-2.23-12.15-7.26-17.11-3.83,5.25,5.72,10.74,10.73,16.82,14.31,3.46,1.09,5.59,3.21,9.16,3.95a95,95,0,0,0,20.88-.51l-.11.1c.59,1.16,1.54.31,2.25.46,1.55.34,3.09-.11,4.51.83-4.71,5-12.67,2.83-18.71,5-6.27,3.25-12.66,7.39-18.57,10.75,9.06,7.69,21.53,7.79,29.57,2.7,8.88-3.22,19.4-10.36,21-21.47l.58-.66a63.9,63.9,0,0,1,6.7,9c.24,1.46-1.06,1.58-1.88,1.93-1.85.47-3.23-.73-5-1.16l0,0-2.51-.65a18.1,18.1,0,0,0-1.06,2.11,69.42,69.42,0,0,1-6.37,6.21l-4,2.64c.84,1.36,1.67.11,2.74.57,5.59.79,10,2.77,14.95-.22,3.45.2,5.91-3.31,9.6-1.88,1.57,2.43,3.36,4.61,4.32,7-2.14.21-4.76-.49-7-.57-9,1.37-17.06,5.77-26.67,5.2-6.54-1-13.19-3.67-18.87-.68,4.65,5,10.48,7.9,16.32,10.67,4-.69,8.07.52,12.35,1.42,6.51-2,13.26-3.43,19.42-6.45,4.51-1.24,8.08,1.71,12.84,2.73a7.33,7.33,0,0,1,2.85,2.13l1.44,2.39c.73,2,3,2.85,4.52,4.37.61.89,1.44,1.34,1.68,2.42-.11.24-.46.28-.34.58a24,24,0,0,0-6.91-6.42c.23-.31-.25-.68-.37-1a6.91,6.91,0,0,0-8.54,2c-.57,2.49.75,5,1.7,7.4,2.15,2.39,6.53,1.61,9.39,2.47,1.54-.46,3.2-.73,4.74-1.2.13,2.12-2.6,1.4-3.9,2.06-7.72.17-17.24-3.67-25.45-7.47-8.91-2.13-17.37-8.59-25.9-6a2.64,2.64,0,0,0-1,3.8c1.9,1.72,4.27,2.08,6.43,3.2,8.45,5,17,9.94,24.65,16.88,10.48,6,19.71-.25,27.38-5.68,1.42-.49,2.73.57,4,1.38,1.67,2.42,3.46,4.47,4.91,6.85,1.55.33,1.56,2.42,2,3.7-.36-.08-.72-.68-.95-.21,2.74,2.8,3.71,6.63,5.27,10-1.06-.09-.35,1.1-.7,1.54-.24-.19-.35,0-.35.17a35.46,35.46,0,0,0-7.4-6.75,10.77,10.77,0,0,1,5.6,3.25c1.29-1.28-.62-3.63-1.34-5.35-1.68-2.68-3.47-4.74-6.19-5.58-2.14-.46-4.4-.92-6.18-.38.87,6.55,5.31,13.86,11,17.15,2.73.95,5.22-.75,7.48.76,0,.17,0,.34,0,.51-2.15.74-4.29-.07-6.42-.15a3.08,3.08,0,0,0-.47.81,37.27,37.27,0,0,1-4.95-4.16l-2.65.17c-3.79.92-8.73-1.73-12.73-3.24-9.4-3.82-17.15-12-27.84-12.67-2,0-5.95-2.3-7.84-.47-.22,2.29,1.69,4.51,3.36,6.05,5.84,4.74,11.92,9,17.65,14.26,6.32,4.59,12.1-.31,18.63.66,5.83,2.4,11.76,1,16.41,4.36,3.61,1.22,6.74.13,9.85-.76l4,5.87c-4-1.6-7.15-.23-11-1.52a37.93,37.93,0,0,0-15.65,2.44c-6.39,3.09-15,3-22.44-1.49-1.29,0-2.48-.1-3.79-.13-.68,4.41,4.2,8.3,7.06,11.37a20.27,20.27,0,0,0,15.21,2.3c5.67-3.87,13.31,2.53,19.47,1.75,6.88.52,14,2,19.82-.48,0-.22,0-.44,0-.65l.84.17c.72,2.22,2.4,4.13,2.88,6.44-2.49,1.06-5.82-.27-8.78-.37-16.14.07-27.7,12.48-41.31,18.34-.12.62.72,1.45,1.31,1.7,5.94,1.27,11.39-.59,17.2-.68,10.44-.42,19.08-6.19,28-10.37,3.08-.29,7.11-2.08,9.85,2.26a32.17,32.17,0,0,1,5.88,10.27c1.66.34,2.86,1.5,4.28,2.55-1.32-3.76,2.22-6.46.54-10.31-2-2.21-3.47-5.77-4.92-8.65-.12-1.06.23-2.3-.49-3.07,7.95-.25,14.68-5.58,18.92-12.58-1.12-8.87.61-16.95,5.1-22.49Z" style="fill: #1d5c42"/>
    <path d="M619.44,369.56a13,13,0,0,0-4.16,4.22l1.9.16c1.62.38,3.45,2,5.13,1.19l.83-.61A21,21,0,0,0,619.44,369.56Z" style="fill: #efe8c7"/>
    <path d="M470.1,404.91c-2.24,2-.44,6.71-3.16,8-.72-.38-1-1.33-1.44-2.06.25,2,.87,5.49,2.18,7.61,2.12-2.27,1.63-6.11,1.61-9.63C469.51,407.57,470.58,406.42,470.1,404.91Z" style="fill: #9a3b26"/>
    <path d="M812.56,472.17c-.61-.35-.72.42-.6.94.49,1.9.62,4.53,2.18,5.4.1-2.07-1.1-4.21-1.58-6.34Z"/>
    <path d="M503.75,456.72l-.23.22c-7.08-14.26-14.65-28.82-19.6-43.95-1.56-.91-3.11-2.59-4.78-3.25a257,257,0,0,0,29.21,62.76c.83-1.14,3.08-1.77,2.6-3.42Q507.35,462.89,503.75,456.72Z" style="fill: #9a3b26"/>
    <path d="M740.55,461.58c-.93,3.08.4,6.33,2.31,8.61h0c1.65-2.56-1-5.89-2-8.69Z" style="fill: #773141"/>
    <path d="M570.55,432.55l-2.4-4.26-1.3.91h0c-2.47,2.23-4.19-1.32-6.67-2.74l-.81.31c-16.63,16.45-35.06,31.65-50.75,48.64-5.21,3-8.73,8.34-13.58,11.67.25,3.82,1.82,7.34,2.8,11,8.86-6.4,18-13.72,26.82-20,14.64-13.52,28.93-25.42,44.17-37.3,2-1.14-.25-3.3-.86-4.86C567.36,434.11,569.61,433.13,570.55,432.55Z" style="fill: #773141"/>
    <path d="M804.73,473.67c.13,1.88.25,3.76.38,5.64,1.31-1,.93-3.38.68-5A1.59,1.59,0,0,0,804.73,473.67Z"/>
    <path d="M801.64,474.4c-1.18,1-2.84,1.14-3.78,2.55,1.07.55,1.66-.39,2.6-.65C800.94,476,802.6,475.05,801.64,474.4Z"/>
    <path d="M456,426.21l.36.06-.15-5.34c.59-.85.7-2.39,1.89-2.59a100.24,100.24,0,0,1,2.79,10c.15-.12.31-.23.47-.34,0-4.35-2.78-8.17-3.22-12.18C457,419.33,454.12,421.87,456,426.21Z"/>
    <path d="M458.39,412.38a8.48,8.48,0,0,0-.28,3.48A7.63,7.63,0,0,0,458.39,412.38Z"/>
    <path d="M740.12,468.78a5.9,5.9,0,0,0-.44,5.14c.72,1.05,1.79,3.05,2.87,3.12C743.23,473.78,742.39,471.3,740.12,468.78Z" style="fill: #773141"/>
    <path d="M803.77,491.87l.35.44c1.54-1.84.08-5.6.79-8.08h0C803.25,485.54,803.75,489.4,803.77,491.87Z"/>
    <path d="M740.64,477.6A27.47,27.47,0,0,0,741,483a8.32,8.32,0,0,1,.82-2.84h0C741.49,479.33,741.83,477.83,740.64,477.6Z" style="fill: #773141"/>
    <path d="M798.18,490.53l2.14.31h0c.83-.4,2.36-.95,1.64-2.36C801,489.89,799.24,489.79,798.18,490.53Z"/>
    <path d="M715.63,482c-2.72,2.44-6.63,3.51-10.07,3.85-.23,1.13,1.92,2.19.5,2.95,1.2,2,1.92,4,3,5.94,1,.32,1,1.9,1.56,2.4,2.11-2.85,5.67-2.26,9.59-1.65,3.65-5.78,2.55-12.64,2.38-20.37C720.71,477.75,718.23,480.53,715.63,482Z" style="fill: #b3995d"/>
    <path d="M458.93,424.32l-.82,2.22c.74,4.26-1.86,7-3.38,10.06,1.19-.5,1.88-2.33,2.71-3.53,1.07.82.6,2.45,1.57,3.51.23,0,.34-.1.47-.22C457.32,432.4,458.83,427.68,458.93,424.32Z"/>
    <path d="M802.74,499.15l.59.09c.7-1.1.46-2.54.46-3.72C802.72,496.15,803.08,498,802.74,499.15Z"/>
    <path d="M678,479.6c-1.89.12-4.39-1.18-5.94-.58,0,2-1.63,3.44-2.57,5.06,3.79-.26,7.22-2.94,10.9-2.18,3-1.48,7.13.55,10.44.32l-1.44-3.42C685.71,479.48,682.16,480.46,678,479.6Z" style="fill: #b3995d"/>
    <path d="M770.45,499.65a5.88,5.88,0,0,0-1.56-3.5c0,4.93-.06,10.65,1.87,15.27a.67.67,0,0,0,1.06-.48,15.9,15.9,0,0,0-1.61-11.06Z" style="fill: #9a3b26"/>
    <path d="M447.76,443.79l-.51-7.47v0c-.61-1.12-1.31-.17-1.91-.25a59.88,59.88,0,0,0-.74,15.78c1.91-.53,2.84-2.88,4.86-2.59,1.54-1.08,3.56-1.19,4.85-2.82,1.65-1.86.69-4.47,0-6.79C452.75,441.78,450.38,444.42,447.76,443.79Z" style="fill: #9a3b26"/>
    <path d="M554.22,459.21c-2-.66-.62-2.36-1.33-3.54l-12.76,10.78.25.31c-.09,6.36-.52,14.22-.36,20.76,3.09.59,6.29,1.09,9.62,1.49.57-4.58,1.6-10.5,1.45-14.68,2-3.23,6.19,1.1,9.14.63q.09-7.14.16-14.27C558.84,459.49,556.59,460.05,554.22,459.21Z" style="fill: #9a3b26"/>
    <path d="M806,505.46c1,3.4,2.06,7.07,4.33,9.73v-.12C813.14,511.94,807.43,508.67,806,505.46Z" style="fill: #9a3b26"/>
    <path d="M636.05,492l-2.14-1.09c-1.91-1.07-2.17-4.62-4.29-3.76-.47-.1-1.07-.12-1.31-.67-.26-4.34.31-7.74-.32-12.55-3.44-.49-6.41-2.8-9.37-1.47-.27,2.46-.53,4.92-.8,7.38l-.47.3c-2.73.31-5.34-.88-8.31-1.23-1.52,3.69-1.49,9.18-.75,13.89l6.53,1.64.48.49c-.56,5.85-1.34,12.84-.72,18.31,3.69,1.28,7.14,2.54,10.7,2.76.56-5.19.53-10.39.74-15.57a24.55,24.55,0,0,1,9.38.15C636.55,498.12,635.83,495.23,636.05,492Z" style="fill: #9a3b26"/>
    <polygon points="627.99 473.95 627.99 473.95 627.99 473.95 627.99 473.95" style="fill: #9a3b26"/>
    <path d="M761.93,504.06c1.34,5.3,1,11.1,1.52,16.27,6-3.52,1.94-13.48.95-19.76C762.85,499.79,761.21,502.23,761.93,504.06Z" style="fill: #9a3b26"/>
    <path d="M797.55,505.67a13.22,13.22,0,0,0-2.93,4.76C796.39,509.65,797,507.53,797.55,505.67Z"/>
    <path d="M446.3,492.65c.59-.7.11-1.95,1.05-2.19,1.07.15,1.32,1.48,1.79,2.32,2.14.05,2.36-2.64,4.38-3.16,1.43,4.65-1.15,8.31-3.74,10.68a42.91,42.91,0,0,0,1.71,10.39c.84-.4,0-1.7.94-1.94-.49-3.87,4.72-5,4.23-8.38.69-3.94.06-8.06.76-11.86-2-.81-2.28-3.46-3-5.25a20.61,20.61,0,0,0-2,3.22,4,4,0,0,1-3.32.71c-.77-.47-2.36.84-2.76-.62A10,10,0,0,0,446.3,492.65Z" style="fill: #efe8c7"/>
    <path d="M456.45,445.29c.5,2.94,1.82,5.86,2.08,8.51-.13.63-1,1-1.31.58a28.12,28.12,0,0,0-1.94-7.31c-1.41,1.87-3.91,2.58-6,3.58l-.36-.58-3.05,2.84c-2.13,1.78-.34,5.8-.55,8,.7-.83,1.05-2.07,2.36-1.64,1.8,3.9,2.54,8,3.28,12.17,2,1.33.61,3.59.39,5.91-2,2.19-1.51,7-4.58,8.1q-.11.27-.21.57c.38-.29.9-.27,1.28-.44,4.05,2.12,4.24-2.64,5.9-4.62.33-1.65-.63-4.65,1.26-5.82l1.56,1.79c.82-1.84.68-4.18,1.62-6a46.57,46.57,0,0,0-2.17-5.49c-1.17,1.11-.56,4.57-2.59,4,.23-2.58,2.36-4.36,2-7,1.53-1.58.45-4.86,1.62-6.77l.6.85c.38,4.36-1.85,8.33,1.36,12.32-.93,2.18,1.92,2.36,2.16,4.07a.61.61,0,0,1,.48-.19l-.24-.16c.11-.63.94-1,.58-1.61,2.36-2.5-.28-7.71,2.08-10.47h0c-3.48-6-3.75-11.64-5.45-17.86C458.1,443.58,457.88,445.25,456.45,445.29Z" style="fill: #efe8c7"/>
    <path d="M446.34,486.57l.18-.56a1,1,0,0,0-.26.27A2,2,0,0,0,446.34,486.57Z" style="fill: #efe8c7"/>
    <path d="M464.39,444.91l-.23-.29-.83.8c-1.19,1.22-2.14-1-3-1.88,1.1,5.23,2,10.56,4.37,15.5a5.05,5.05,0,0,0,0-2.62c-1.81-4.58-.41-8.79.27-12.59Z" style="fill: #9a3b26"/>
    <path d="M456.67,443.91c.23-.11.36-.47.47-.86l-.47-.05Z" style="fill: #efe8c7"/>
    <path d="M795.71,515.4a17.13,17.13,0,0,0,2.83-4.64C797.35,511.74,795.34,513.4,795.71,515.4Z"/>
    <path d="M696.23,493.08c-3.21-1.56-5.1-.37-7.82.75-2.14.07-3.68,2-5.34,2.42a87.57,87.57,0,0,1-13.73,5.63c-1.17,1.18-3.08.8-4.26,1.45,5.46.89,9.76,4.38,15.45,4.64,0-.87,0-1.74,0-2.61,3.19-1.42,6.88-.41,10.44.06.22-3.1.44-6.69.78-8.94a3.38,3.38,0,0,1,2.13-.11c2-.75,3.69.22,5.34.44h0C698.39,495.32,697.19,494.56,696.23,493.08Z" style="fill: #b3995d"/>
    <path d="M702.34,502.11c-.52-6.21-6.43-3.64-9.29-4.21-.57,3.54.4,5.93-1.25,9.13-2.38-1.15-5.34-1-8.08-1.53-1.66-.33-2.25,1.21-1.88,2.73,5.6,3.87,11.75,1.24,17.11,2.3,0-.77-.84-1.47-1.09-2.16C696.54,504.6,700.57,503.56,702.34,502.11Z" style="fill: #9a3b26"/>
    <path d="M714.75,513.15l.47.09c.58-2,.56-5.34.78-7.53C715,507.33,714.49,510.89,714.75,513.15Z"/>
    <path d="M789.34,522.23c-.23,0-.83-.37-.83.13,1.67,1.56,3.68.07,5.34-.34-1.67-.39-3.09.83-4.51.48Z"/>
    <path d="M449.6,472.06c-.5-3.87-2-7.2-2.68-10.94a3.49,3.49,0,0,0-1.89,2.21c1.33,4.74,1.13,9.92,1.15,15,1.2,1.07,2.61-.17,3.69-.65C450,475.86,451.62,473.36,449.6,472.06Z" style="fill: #9a3b26"/>
    <path d="M482.21,467.38c-4.62.29-8.88,3.89-10.63,8.57-2.1,6.95,7.2,12.05,10.78,17.21.25,0,.6.1.72-.15-.72-.77.23-1.13.22-1.77,2.48-2.72,5.79-4.25,8.87-6.07L487,471.94C485.67,470,484.46,467.48,482.21,467.38Z" style="fill: #773141"/>
    <path d="M712.38,515.31v0h0Z"/>
    <path d="M707.75,513.48c1.65,0,3.43,2.06,4.61,1.8-1.08-1.5-3.09-1.79-4.62-2.71C707.74,512.87,707.74,513.17,707.75,513.48Z"/>
    <path d="M459,472.34c-.27,1.49-.53,3-.8,4.45-.35,1.24-1.65,2.22-3,1.13a18.48,18.48,0,0,0,2.18,9.29l.36.06a59.54,59.54,0,0,0,3-13C460.05,473.69,459.8,472.59,459,472.34Z" style="fill: #9a3b26"/>
    <path d="M516.25,502c-.73-2.07,1.52-3.61,1-5.91-.12-1.2.82-2.19.81-3.51a13.27,13.27,0,0,0,1-2.92v0a7.37,7.37,0,0,0-2.15-3c-1.63,5.44-2.19,11.71-6.8,15.05-2.73.29-5.69,2.36-8.67-.24-1,2-.09,4.68.88,6.79-.94,1.39-3.08,1.28-4.75.6-2.25.91-2,4.34-2.33,7a3.72,3.72,0,0,0,2.38,2.09,4.52,4.52,0,0,1,2.64,3.19c-1.07,1.24-1.31-1.39-2.15-1.54-.58,3.69-1.15,7.22-4.22,9.17,1.81,4.87-1.48,9.12-.39,14.51,1.43.76,2.72-.44,4-.49.49,1.14,0,2.87-.1,4.14-.57,2.4-3.42,1.12-4.24,3.33-1.28,4.46-.66,8.86-.64,13.16a30.71,30.71,0,0,0-.17,9.33l2-1.23c1-.84,1-3.31,2.7-2.66.6,1.44-1.06,1.9-1.29,3-2.72.72-2.45,3.76-3.51,5.81l.82.38c.73,1.83,1.57,3.54,1.46,5.6,1.3-.44,1.64-2.08,3.19-1.8,3,2.34-.8,5.46-.78,7.67,2.13.23,4-3.85,5.81-.68.14,3.41.15,7.17-2.32,9.21-2.12.67-3.29,3.87-5.78,4.33.6,2.34,2.39,4.22,2.64,6.58.82-.76,1.17-2.13,2.36-2.18,1.17-2.4,2.22-4.3,3.52-6.43.6.26.84,1.06,1,1.61-1.07,1.89-2.12,4.31-3.89,5.43.84,1.71.26,3.31.5,5-.7,2.6-1.74,6.2-4.95,6.16,1.91,1.5.85,3.14,1.81,5,.71.39.95-.35,1.67,0,3.22,3-1.75,5.94,1.12,9.58.47-.44,1.18-.84,1.78-.23-.13-1.43-.85-3.92-.27-5.1s.34-1.52,1.66-1.4c1.42.38,1.43,2.85,2.62,2.54l-.24-.31,1.3-1.08c1.05-1.89.57-4.18.31-6.3l-1.06.33c-1.57-3.8-3.95-7.35-3.63-11.7.71-1,1.67.66,2.38.41a28.52,28.52,0,0,0-.27-5.38c2.61-1.1,2.39,3.29,3.83,4.84.22-1.92-.15-4.19,0-6.37,4.48-2.83-1.72-9.29,2.52-12.18-1.08-6.18,3.62-10.4,1.57-16.36.11-1.94,2.25-1.8,3-3.11,0-4.82-2-9.35-.09-13.4-3-8.24,3.73-12.21,3.09-20.29-1-4.06-2.18-7.94,1.24-10.3,1-.07,1.91,1.25,2.86,0-.85-1.87-.51-4.64-.52-6.2C525.94,515.15,517.59,508.77,516.25,502Z" style="fill: #efe8c7"/>
    <path d="M703.31,527.3c1.67.58,3.22,1.67,4.89,2.39,2,2.47,4.64,3.63,7.14,5.17a39.8,39.8,0,0,0-4-8.3C709,526,705.81,527.64,703.31,527.3Z" style="fill: #b3995d"/>
    <path d="M695.6,526a7.46,7.46,0,0,0,3.79.51C698.08,526.5,696.66,525.44,695.6,526Z" style="fill: #9a3b26"/>
    <path d="M690.84,525.3c.95-.33,2,.81,2.62,0C692.62,525.4,691.43,524.52,690.84,525.3Z" style="fill: #9a3b26"/>
    <path d="M768,566.26c-2.16-3.76-6.21-6.27-6-10.8.94-1.51,3.56-1,4.75-1.14l-.25-.28v0c4.12-6.08-4.56-8.85-5.42-14.74-.82,2.74-1.62,6.37-2.56,8l.7.1a43.78,43.78,0,0,1-4.16,17.11,1.37,1.37,0,0,1-1.08-.73c2-4.58,3.85-10.09,3.94-15.16-3.5,8.24-10.23,13.93-14.83,21.42.21.9.41,1.8.62,2.7,5.88,12.28,12.24,24.48,18.13,36.57.71-.55,1.55-.4,2.38-.66.45-3.81-1.12-8.77-3.05-12.88-.72-1.29-2-3.34-.85-4.31a12.32,12.32,0,0,1,4.05,3.18c1.78-.09,1.65-2.7,2.59-4,1-2.66-2.64-4.08-3.48-6.44-1.94-5.54,4.28.48,5.08-3.28.59-2.26,1.76-4.66-.87-6.79a3.87,3.87,0,0,1,1.41-3.4C770,569.2,768.47,567.52,768,566.26Z" style="fill: #efe8c7"/>
    <path d="M496.77,500.67a27.68,27.68,0,0,0-1.71-7.72c-.6-2.19-.74-4.81-2.17-6.5-3.07,2.22-7.7,3.14-8.74,7.4a33.4,33.4,0,0,0,10.5,8.4c.35,1.62,2,1.65,3.21,2.11C497.61,503.14,497.6,501.32,496.77,500.67Z" style="fill: #773141"/>
    <path d="M540,497.92c-4.88-2.89-11.41-2.85-16.52-3.66a2.49,2.49,0,0,0-.58,2.23c3.47,5.32,10.48,5.73,15.34,5.52,1.3-.42,2.85-.63,2.12-2.87Z" style="fill: #9a3b26"/>
    <path d="M538.21,503.83h0c.13-.24-.12-.79.24-.86l-5.34.39c.84,1.2,2.26,1.48,2.74,2.87a8.4,8.4,0,0,0,4.28,0C539.88,505.19,538.82,504.85,538.21,503.83Z" style="fill: #9a3b26"/>
    <path d="M548.09,507.71c-4.88-1.61-8.53,1.84-13.89-.34a4.94,4.94,0,0,0,1.92,3.35A13.16,13.16,0,0,0,546.58,513a3.92,3.92,0,0,0,2.34-4Z" style="fill: #9a3b26"/>
    <path d="M479.22,503.6c-10,9.69-20.08,18.45-29.74,29.07l-2.12,3.59c0,1.18-.1,2.6.73,3.22,16.56-9.9,29.53-24.22,44.18-36.45-2.62-2.42-5.48-4.32-8.11-6.84A23.46,23.46,0,0,1,479.22,503.6Z" style="fill: #773141"/>
    <path d="M447.34,492.8c-.71.69-.23,2.32-1.29,2.57-.11,1-.81,3.91.74,4.51h0c3.08-.48,5.08-4.08,5.3-7.19L450,494.48C448.78,494.84,447.71,493.65,447.34,492.8Z" style="fill: #9a3b26"/>
    <path d="M795.38,560.92c-1.18.07-1.9-.81-2.61-1.57-3.09.29-5.82,1.8-8.81-1.39-1.06.48-1.4,2.38-2.71,2.56-.11,1,.61,2.31.85,3.38,2.73-1,5.45-2.38,8.29-2.85,2.38,0,4.17,1.82,5.38,4.36,1.89-1,1.75-4.57,1.73-6.51A7.84,7.84,0,0,1,795.38,560.92Z" style="fill: #9a3b26"/>
    <path d="M565.89,528c-5.72-5.06-12-8.91-17.29-15.15-1.19,1.2-2.61,1.44-4.15,1.8,7.51,5.76,14.33,14,21.71,19.27,2.51,2.33,5.49,3.71,8.22,5.42l-.24.25c6.22,6.72,15.25,8.72,23.11,12.69.71,0,1.19,1.28,1.07,1.68,1.06-1.75,3.2-1.57,4.5-3.12A159.77,159.77,0,0,1,565.89,528Z" style="fill: #9a3b26"/>
    <path d="M452.71,498.24c.29.87.57,1.73.85,2.59a.77.77,0,0,0,1.07-.24C454,499.74,453.9,497.51,452.71,498.24Z"/>
    <path d="M795.66,566.8c-1.55-.75-1.92-2.77-3.22-3.63-3.82-.82-6.64.93-9.84,2.25a5.84,5.84,0,0,1,.24,1.86c1,.16,1.43-.7,2.49-.26a4.16,4.16,0,0,1,1.08,2.26c3.92-.82,1.8,4.06,1.92,4.34l.24-.24a3.34,3.34,0,0,1,2.63,2.1c.82-2.07,2.47-3,4.24-3.89.35-1.38.93-3.24.22-4.79Z" style="fill: #efe8c7"/>
    <path d="M447.05,503.31c.85,3.76.63,8,3.39,11l.46-1.9a34.36,34.36,0,0,1-2.68-11.3C447.27,501.25,447.16,502.41,447.05,503.31Z" style="fill: #9a3b26"/>
    <path d="M754.84,571.27l.6.11A48.84,48.84,0,0,0,758,561.8l-.7-.13C755.88,564.43,756,568.22,754.84,571.27Z"/>
    <path d="M506.24,516c-.6.3-1.91-.47-2.13.54.72,1.82,1.19.47,2.14,1,.13,2.91-.2,6.22-2.92,7.56.35.19.35.72.59,1l1.54-.9a23.56,23.56,0,0,1-.44,4.88c-.23,1.89-2.6,2-3.2,2.93a3.6,3.6,0,0,0,2,.49c1.07-.33,1.54-1.53,2.24-2.34.44-5.38,1.61-8.83,1.46-14.29.58-1.07,2.25-1.29,1.52-3Z"/>
    <path d="M785,568.79c-.94.9-3.21-1-3.08,1.21a10.17,10.17,0,0,1,0,6.52l.71-.28-.24-.31c1.3-2.28,5-1.54,5.08-5C786.43,571.64,785,570.1,785,568.79Z" style="fill: #9a3b26"/>
    <path d="M512.32,520.07c-.14-1.46,1-3.05-.27-4.21-.81,3.22-1.86,6.42-2.07,10.15l.36,1c1.42-.12.57-3.42,1.76-4.08l.6,1.53c1.18-1.22-.26-2.9-.38-4.37Z"/>
    <path d="M787.27,574.36l-3,1.88c2.27,2.29,1,4.84,2,7.59C793,582.68,785.62,577.62,787.27,574.36Z" style="fill: #efe8c7"/>
    <path d="M789.05,574.89c-1.17,2.16,1.21,3.84,1.47,5.82a9.17,9.17,0,0,0,1.75-3.89L791,577C790,576.6,790,575.32,789.05,574.89Z" style="fill: #9a3b26"/>
    <path d="M759.36,570.63c-.91,7.41.09,15.37-1.66,21.71l.83.14c2-6.29.74-15.23,1.66-22.09C759.83,570.07,759.59,570.41,759.36,570.63Z"/>
    <path d="M786.15,585.24c-2.75-1.48-1-5.24-2.42-7.39-.72-.12-1.54.78-2.14-.36-1.76,4.66,2.07,9.69,2.58,14.47,1.41-2.91,4.13-5,4.7-8.26l-.59-.07A3.6,3.6,0,0,1,786.15,585.24Z" style="fill: #9a3b26"/>
    <path d="M612.64,546.19a81.48,81.48,0,0,1-12.77,8.75l1.08,1.41c2.26,1.52,3.92,0,5.7-.37,3.05-3.38,6.48-6.18,9.19-9.38h0a6.13,6.13,0,0,0-2.14-1.38C614.3,546.15,613,546,612.64,546.19Z" style="fill: #9a3b26"/>
    <path d="M576.44,566.1c.45-3.54,1.62-7.21.53-11.19-2.61-.83-5.47-1.26-7-4,.21,1.29.41,2.59.62,3.88.25,1.5,1.44,3.42.74,4.6-.72-.15-.48-.9-1.08-1.4-.5-3.61-1.71-7.76-1.61-12,1.53-1.64.45-4.23,1.62-6.18h0c.11-1.8-3-2.3-4.29-4.13-.6.13-.34,1.24-1.17.95,1.32,4.15-1.27,6.9-2.32,10.06a13.29,13.29,0,0,1-13.84,6.61l-.45,4.34c.59,1.41,2.14,1.59,2.86,3.17,0,3.38-1,5.4-.65,9,3.68,2.29,1.33,5.6,1.1,8.15.73,1.6,1.67,1.77,2.64,3.4-.83-.29-.12.88-.83,1,.86,4.6-1.37,9.07,2.81,12.9-.51,1.08-1,2.15-1.52,3.22l.48.63c2.84,0,5.23,1.17,7.7.1,1.44,1.19.74,3.54.63,5.07-.71,1.67-2.6,1.57-3.79,1.85-2.73.1-3.56.46-4,3.1,3.58,1.47,6.66,0,9.74-.67l.48.9c-1.65,3.81-5.79,5.71-9.34,6.71-.93,3.06-1.75,4.59-1.74,7.83a15.19,15.19,0,0,1,5.4,9.29c1.18-2.25,3.67-1.88,5.32-3.36l.72.92a26.63,26.63,0,0,1-8.11,14c-.58,1-.22,3.07-1.17,3.78-1.63,4-.64,11.32.7,15.77l.81-.76c.6-.38,1.32.27,1.8.89,1.44,4.71,1.6,9.82,2.33,14,1.53-1.49,1.4-4.13,2.57-6,.6-1.31.22-3.36,1-4.48a4.73,4.73,0,0,1,1.68,3.06c0-.65,0-1.3,0-2.09,3.08-3.28,3.76-8.22,4.2-13.21,2.33-8-5.2-17.16-3.94-25.39,0-.64.7-1.54,1.54-1.11,1.08,1.26,1.55,4,1.92,6.11.1-3.75.19-7.5.29-11.25a3.79,3.79,0,0,1,.7-2.85c2.39,2.57,2.77,6.8,3.5,10.35.34-3.33,1.27-7.3.53-12.13.56-5.08-5.48-3.07-6.22-8.05-.84-.68-2.37.18-3-1.36-.75-6.79,1.12-10.83.73-16.91-.25-2.66,1.4-4.26,1.27-6.51-1.7-5.42-.66-12.36-.81-17.08L569,569l.36.45c.39,6.34-.53,12.26,1.06,18.85,3,3.45,2.3,8.12,4.93,11.53-.25-1.47-1.44-2.9-.62-4.16l2.14.17c2.48-1.56-.26-4.85-.28-7.34-.62-4.69,2.33-7.85,1.83-12.51C579.56,572.61,576.22,569.31,576.44,566.1Z" style="fill: #efe8c7"/>
    <path d="M626.07,549.67c-2.13.7-3.07,3.11-4.48,4.76-2.24,3.07-5.44,4.22-8.64,5.63,0,.76,1.08,1.12,1.67,1.25a13.25,13.25,0,0,0,11.93-11h0Z" style="fill: #9a3b26"/>
    <path d="M554.42,535.62a4.07,4.07,0,0,0,.73,2.76,7,7,0,0,0,4.88,2.29c1.07-1.23,4.87.46,3.43-3C561,541.37,557.75,535.64,554.42,535.62Z" style="fill: #efe8c7"/>
    <path d="M753.38,583.64c-.35,1.5-1.06,3.3-.33,4.87,0-.11.11-.23.35-.19a48.5,48.5,0,0,0,1.71-11.14l-.47-.09Z"/>
    <path d="M755.11,577.16v0h0Z"/>
    <path d="M680,675.59c-1.81-6.09,4.71-8.25,4.91-13.82-1.31-.53-1.91.13-2.85.58-.59.66-1.9.29-2.49-.75a22.44,22.44,0,0,0-1.77-2.48l-1.42-1.4a12.4,12.4,0,0,0-.26,2c4.44,9.76.46,17.78,2.29,27.27,3.65-3.29,7.55-6.78,7.41-12.81l-3,2.92C681.76,677.65,680.57,676.37,680,675.59Z" style="fill: #9a3b26"/>
    <path d="M701.33,593.68c0-1.17-1.07-1.89-1.32-3-4.43-4.4-3.51-10.45-6.86-15.3.26,3.7,1,7.88.9,11.9-4.13,3.71,3.84,7.68,1.74,11.68-.13.5-.83,1-1.31.36.81-3.35-2.65-6.25-3-9.71,2.58-7-.32-14.52-.36-21.8l-.83.73c0,2.88-.68,6-1,8.91-1.76,3,.76,7.33.3,11.26-.23,1.25.85,3-.21,3.74-.36-.22-.6-.27-.84-.58-.37-4,0-8.09-1.14-11.82l-.82.62c-2.85-.19-3.35-4.07-5.15-5.73q-1.27,2.85-2.57,5.7c-1.29,1.69,1.21,2.22,1.92,3.26,0,.41-.35.6-.59.78-2.37-.48-4.13,1-6.39.77,0,.26,0,.53,0,.79-.71,2.58,1.78,3.36,3.21,4.57A4.58,4.58,0,0,1,672.5,593a41.71,41.71,0,0,0,1.37,12.91c.24,1.74,2.39,3.75.63,5.07-1.55.46-2.13,2.28-2.12,4.24-.93,4,3,2,4.3,4.14-4.37,3.66-2.31,11.24-1.57,17.24.83-1.11,1.54-2.54,2.71-3.2,1.31,0,3.08-1.58,4,.45a44.16,44.16,0,0,1-2.1,4.89c1.07,1,2.84,1,3.68,1.91,2.07,7.85-5.17,8.33-6.31,14.47l.23.18a5.47,5.47,0,0,0-.6,1.15h0l2,1.72A14.89,14.89,0,0,0,681,661.5c1.3-.63,2.83-2,4.74-.71,1.7,5.29-3.52,6.44-4.21,10.57-.1,1.31-.81,3.5.62,4.43l4.25-4.33c1,.06.84,1.09,1.06,1.64-.56,2.9-.66,6.64-2.66,8.59-.34,2.64-2.35,3.41-4,5.55l.36.46c.23.7-.36.83-.12,1.41l.12-.23c2.25-.73,2.15,2.62,3.22,4,1.66-1.74,4.5-.77,5.79-2.85,2-4.42-1-10.11-.55-15.33.47-.3.71-.78,1.3-.4,1.8,2.71,1.57,5.78,3.72,8.45a28.51,28.51,0,0,0,.21-4.13c-.35.05-.47.55-.94.2a77.77,77.77,0,0,1-3.87-11.6c-.25-2.14-.51-4.78.2-6.72.47,0,.72.41,1.08.73,1,3.73,3.12,7.27,3.86,11.07l.23,0c1.53-2.68.55-7.7.77-10.65-.49-2.19-.26-3.29,1-4.48-.26-4.84,4-8,2-12.85-.35.08-.59.53-1.07-.07-2.39-4.15-4.78-8.26-5.64-12.85l.47-.57c1.43.17,1.9,1.68,2.62,2.6.23-.6-.36-.84.11-1.38.83-.36,1.67.85,2,1.57.35-.19.11-.89.11-1.27a.74.74,0,0,1,1.07-.57c-1.2-2.33-.62-3.77,0-5.88-1.69-4-3.49-8-4.34-12.31.7-1.29,2.25.06,3.08-.55a7.69,7.69,0,0,0,3.79.09c2.13-1.38-.5-4.25-.27-6.4.57-2.11,3,.06,3.9-1.58C704.34,601.19,699.1,597.54,701.33,593.68Z" style="fill: #efe8c7"/>
    <path d="M509.18,532l-.7.77c-.11,2.21-.69,5.1.51,7.41a1.06,1.06,0,0,0,1.07-.33h0C508.5,537.2,510.38,534.43,509.18,532Z"/>
    <path d="M608.66,556.54c2.87,2.83,5.47.49,7.83-.43-1.9-.42-3.56-1.54-5.35-2.32Z" style="fill: #9a3b26"/>
    <path d="M565.43,549.82h0c-.95.7-2.61,2.09-2.36,3.43.59-.66.7-1.29,1.53-1.52.26,2.54.39,4.78.64,7.55-.94.84-3.19,1.19-2.71,3,.83-.87,2.24-2.14,3.55-1.63A30,30,0,0,1,565.43,549.82Z"/>
    <polygon points="506.02 539.63 506.02 539.63 506.02 539.63 506.02 539.63"/>
    <path d="M505.07,539c0,2.34-2.46,5.41-.09,6.74q.52-3,1-6.06C505.67,539.29,505.54,538.89,505.07,539Z"/>
    <path d="M755.54,589.22c-.35,1.25-1,2.95-.2,4.39a.56.56,0,0,0,.47-.17C755.8,592.41,756.86,590.11,755.54,589.22Z"/>
    <path d="M742.37,670.66c-.83.62-1.65,2.55-3.43,1.71a16.4,16.4,0,0,1-3-2.93l-1-.6h0c1.82,4.82,0,9.81-2,13.46-.82,1,.49,1.39,1.09,2,4.27.53,4-5.1,7.19-6.6,1.67.06,2.51,1.78,3.71,2.77,2.46-3.08-1.95-6.48-2-10C742.73,670.58,742.61,670.84,742.37,670.66Z" style="fill: #9a3b26"/>
    <path d="M751.15,629.71c1.43.39,2.51,2.28,3.58,3.1-1.55-3-3.12-6.54-2.79-9.59.59-2.23,2.5,1,2.74.48-5.76-10.52-10.81-21.2-16.57-31.75.62,3.35-.31,6.7-.89,9.83-1.17,2.51,2.63,2.31,2.4,4.76-2.36,1.78-1.87,5.49-2.44,8.4l1.07.18a1.61,1.61,0,0,1,1.07,1.87c-3.66,1.68-2.69,5.51-3.15,8.94,2.38-.86,4.38-2.85,7-3.53,2.26-.5,4.37-5.44,6.64-2.17.6,1.29-.22,2.17-.22,3.33a27.12,27.12,0,0,1-15.37,9.3c.73,3.9,3.08,0,5.23,1.49,1.08,1.24,1.09,2.8,1.68,4.2,1.1,3.85,2.85-.64,4.89,1.67-1.65,4-3.87,9.19-8.85,9.18-.24.61,0,1.68-.71,2.22l2.4,2.78c1.06.86,1.41-.93,2.13-1.32a1.89,1.89,0,0,1,2.14.68c.59,1-.12,2.06-.23,2.92-2.83,3.28-3.26,10.09-8.49,9.78a1.12,1.12,0,0,1,.31.84v0l1.85.86a16.94,16.94,0,0,0,2.86,2.83c1.66-.06,1.88-2.49,3.77-2.27,1.81,2.4,1.71,5.53,3.5,7.91a20.25,20.25,0,0,0,1.86-7.22c-3.94-4.47-6-10.59-4.13-15.46l1.07-.32c-.08-.31-.16-.62-.25-.93.24-.23.47-.56.83-.37,1.93,4,2.9,8.21,5.65,11.81-.49-3.35-1-7,.4-9.68-1.78-2.56-2.63-5.69-3.47-8.69-.38-2.81-1.11-6.32-.29-8.67,3.21,2,3.95,6.45,5.87,9.66.81-1,.22-2.95.32-4.64-1.66-.93-2-3.09-3.35-4.51C750.82,635,748,631,751.15,629.71Z" style="fill: #efe8c7"/>
    <path d="M507.12,546.35c-.47-.24-.58.16-.94.09l.06,10.81c.12.67.6,1,1.07.59.46-3.2-.15-7.72-.19-11.52Z"/>
    <path d="M568.72,565.69l.24-.18c-.73-2-.38-4.25-1.1-5.81A11.65,11.65,0,0,0,568.72,565.69Z"/>
    <polygon points="699.8 595.69 699.8 595.69 699.8 595.69 699.8 595.69"/>
    <path d="M696.45,590.35c.6,2.18,1,4.75,3,6.18l.35-.84c-1.67-1.88-1.68-4.37-3-6.2Z"/>
    <path d="M621.4,582.24l.58-.64c-.36-.07-.24-.84-.83-1.1l-1.89,2c-.24.83.24.94.6,1.54l1.07-1.2.24,1.22c-1.87,5.32-.76,12.32-1.57,17.75l.84.18c1.28-5.07-.3-10.75,1.34-15.21C621.3,585.36,622.83,583.73,621.4,582.24Z"/>
    <path d="M565.07,571.23c1.21,4-.19,7.89-.28,11.9-.23,1.12-1.53,1.38-1.29,2.75l.47.08c1.89-3.26,2.33-8.24,2.06-12.47C565.68,572.77,565.68,571.71,565.07,571.23Z"/>
    <path d="M688.32,600.14l-.36-.08c-2,5.19.08,12.76.11,18.65l1.06.2C688.85,612.36,687.63,606.1,688.32,600.14Z"/>
    <path d="M504.1,576.26l.36,0c1.42.12,1.06-1.36.81-2.2,1.53-3.24.91-7.23,2-10.45l-.48-.09C504.88,567.16,505.26,572.31,504.1,576.26Z"/>
    <path d="M691.33,607.65c0-.65,1-.83.46-1.61-.6-.12-1.19.05-1.3.66-1,5,.18,10.7.81,15.92l.35.46c.12,0,.24-.22.47-.05C692.34,617.75,690.52,612.94,691.33,607.65Z"/>
    <path d="M748.25,619.94l-3.55,2.85c-3.9,2.16-10,2.74-10.63,8.57,5.81-.58,10.9-4.2,14.42-8.78C748.38,622.05,749.2,620.77,748.25,619.94Z" style="fill: #9a3b26"/>
    <path d="M503,572.31c-.95-.18-1.06,1-1.06,1.74-.23,1.54-1.52,3.12-1.28,4.19,1.3-1.19,2.95-3.24,2.34-5.93Z"/>
    <path d="M563.76,590.6a11.43,11.43,0,0,0,1.65-3.82l-.6-.12C564.7,588.19,563.17,589,563.76,590.6Z"/>
    <path d="M565.65,588.65l-.23,0c-.22,2.16-.57,4.43-.56,6.26.94-1.36.81-4.27.79-6.24Z"/>
    <path d="M570.17,589.82l-.47-.1c-.08,7.14-1.36,12.62-1.19,19.91,3.19-.76,3.46,4.23,5.6,4.15l-.36-.45c-.48-.89-.26-2,.58-2,.93-3.32,1.86-6.14,1.25-10.15C571.65,598.58,572,593.72,570.17,589.82Z" style="fill: #9a3b26"/>
    <path d="M626.15,603.16l-.36-.58c-1.3,1.8-1.28,5.18-.79,8,.61,1.43,1.09,3.23,2.28,4,.23-.2.71-.49.23-.85C625.11,610.37,625.69,606.58,626.15,603.16Z"/>
    <path d="M609.77,603a17.66,17.66,0,0,0,3.54-2.14,3.36,3.36,0,0,0-2.49.28C610.35,601.78,609.17,601.82,609.77,603Z"/>
    <path d="M496.47,591.08c-1.91-2.43.68-4.84,1-7.27a4,4,0,0,1-3.2,1.53h0c-1.67-1.58-1.21-4.11-2.17-6,1.94,7.88,1.15,14.38,1.43,22.24,3.2-.51,4.26-4.07,7-5.43a26.07,26.07,0,0,0,.55-6.67A6.85,6.85,0,0,1,496.47,591.08Z" style="fill: #9a3b26"/>
    <path d="M755.47,637.62c-.13-2.11-2.4-4.73-4.19-6.35-.57,3.41,1.82,6.71,3.5,9.6a4.89,4.89,0,0,1,.69-3.25Z" style="fill: #9a3b26"/>
    <path d="M631.17,610.08a7.39,7.39,0,0,0,2.39,2.34l.35-.6a16.62,16.62,0,0,0-2.51-2.46Z"/>
    <path d="M687.88,626.86c.11-1.8.22-3.59.32-5.39-1.43,1.39-.8,4.11-1.87,6.25-.22,1.11-1.28,1.94-1,3,1.78.5,1.76-2.24,2.59-3.5-.2,5.69.07,12-2.76,16.62l.49.1c4.24-3.29,2.3-11.11,3.33-16.75l-1.06-.35Z"/>
    <path d="M740.28,639.57l-1.8-4.5a11.54,11.54,0,0,1-3.2.56,5.62,5.62,0,0,1-.57,3.14c-1.88,2.92.62,6.38,2,9.37,3.67-.51,6-3.71,7.42-7.11C742.9,641.1,740.9,641.62,740.28,639.57Z" style="fill: #9a3b26"/>
    <path d="M690.25,627.06c-.07.39-.15.77-.23,1.16.37,1.89-.09,4,1.45,5.23,0-.35,0-.7,0-1.05A15.15,15.15,0,0,0,690.25,627.06Z"/>
    <path d="M554.8,600.39c.84,1.61-.69,3.5.5,4.51,1.19-.51,2.61.16,3.8-.39,1.66-.44,4.74-.73,3.18-3.79C559.92,601.66,557.18,600.74,554.8,600.39Z" style="fill: #9a3b26"/>
    <path d="M621.81,613.19a40.3,40.3,0,0,1-1.23,12c-.47,1.33-1.77,2.1-1.76,3.78l.72.16a14.09,14.09,0,0,0,2.91-7.58C621.84,618.92,623.6,615.78,621.81,613.19Z"/>
    <path d="M752.72,652.88c.34-1.51.69-3,1-4.51-1.92-2.67-2.89-5.7-4.33-8.7C749.69,644.27,750.32,648.81,752.72,652.88Z" style="fill: #9a3b26"/>
    <polygon points="700.04 637.52 700.04 637.52 700.04 637.52 700.04 637.52" style="fill: #9a3b26"/>
    <path d="M700,637.52c-.95-.46-.6-1.56-1.08-2.43-.6-.12-1.06.81-1.66-.07.12.43-.24.58-.47.83-.6.38-1.19-.92-1.91-1.3.62,3.35,3,6.2,4.56,9.35C698.77,641.69,700.88,639.78,700,637.52Z" style="fill: #9a3b26"/>
    <path d="M781.57,654.92a10.35,10.35,0,0,1-1.45-3h0c-1.42-1-2.47,0-3.66,0a2.57,2.57,0,0,0-1.88,3.46c3.36,6.55,9.69,11.24,15.29,15.62a51.69,51.69,0,0,0-5.3-13.47C783.25,657,783.35,653.63,781.57,654.92Z" style="fill: #1d5c42"/>
    <path d="M678.93,640.39c-2.26-2,.57-3.81.81-5.7-2.27-.46-2.24,3.31-4.38,2.61-.1,4,1.11,7.78.66,11.86.36,1.23,1.07.2,1.54.3,2.6-1.53,5.56-3.8,4.58-8.15Z" style="fill: #9a3b26"/>
    <path d="M555.1,610.74c0,.6,0,1.21,0,1.81.49,1,1.44,1.21,2.14,1.86,1.9-1,4.39-1.73,5.92-3.76C560.93,611.77,557.6,611.36,555.1,610.74Z" style="fill: #9a3b26"/>
    <path d="M689,640c-.22,2.54-.45,4.19.28,6.55,1.65-1,.2-4.39.32-6.45Z"/>
    <path d="M746.85,664.45c.71,1.56,1.91,3.45,3.46,4.13a4.15,4.15,0,0,0,1.06-2.39c-2-3.9-5-7.67-5.65-12C745.5,658.36,745.16,660.5,746.85,664.45Z" style="fill: #9a3b26"/>
    <path d="M565.59,617.77l-.6-.13a30.89,30.89,0,0,1-1.86,7.59c1.09.21.83-1.14,1.43-1.67a25.07,25.07,0,0,1,.5,5.05l.35.08C566.1,624.92,564.89,621.55,565.59,617.77Z"/>
    <path d="M740.15,655.93h0c-1.89.83-2.62-2.31-4-3.09-2.59,3.93,2.54,9.19-1.24,12.27l.6.12c2.83-2.47,3.87-6.44,6.24-9.4,0-.48,0-1,0-1.44Z" style="fill: #9a3b26"/>
    <path d="M498,610.59h0c-3.07,1.83-1.81-3.44-3.35-4.86.14,3.93,1.35,8.43.66,11.69.47-.19,1.06-.87,1.54-.52,2.37-1.15,2.47-4.77,2.21-7.3Z" style="fill: #9a3b26"/>
    <path d="M631.59,641.53c-1.56-2.81-2.29-5.81-3.5-8.67-.21,3.74,1.24,7.67,1.38,11.49-.83,1.11-1.42.72-2.84.17.85,3.44,2.64,6.55,3.49,10.11,1.41-3.6,1.61-8.37,1.47-13.1Z" style="fill: #9a3b26"/>
    <path d="M506.2,612.28c-.47.44-.94-.3-1.54-.26a29.8,29.8,0,0,0,3,8.73c.59-2.36-1.21-4.9.67-6.78a7,7,0,0,0-1.33-4.65C507,610.23,507,611.64,506.2,612.28Z" style="fill: #9a3b26"/>
    <path d="M620.38,632.4c-.23,1.12-1.17,2.77-.22,3.86a5.77,5.77,0,0,0,.81-3.74Z"/>
    <path d="M573.15,632.85c-.46,1.6.38,4-1.64,4.61-2.36-1.38-.85-4.2-2.17-6-.92,4.51,2.2,10.07,3.54,15.17l.11,0,.43-8.38h0c3.06-3.27.66-9.22-.55-13.64Z" style="fill: #9a3b26"/>
    <path d="M501.94,612.43c-.94,1.67-1.17,4.63-1.27,6.81l.59.11c.12-.51.83-.76.24-1.39,1.3-1.06.84,2.38,2.14,2.2.59-1.2-.73-3.5-1.1-5.28C502.42,613.69,502.89,613.13,501.94,612.43Z"/>
    <path d="M688.38,653.13l-.59-.12c-.45,4,0,7.7-.4,11.63.36.33.48.73,1,.72C689.27,661.62,688.06,657.61,688.38,653.13Z"/>
    <path d="M559.27,634.47h0c0-3.26-2.17-6.15-4.08-8.75a35.62,35.62,0,0,1,.69,16.53l1.78.64v.23a23.47,23.47,0,0,0,6.7-10.87c-1.55.35-3,1.87-4.38,2.9Z" style="fill: #9a3b26"/>
    <path d="M620.2,641a4.32,4.32,0,0,0,.26,3.43c.23.05.47.1.59-.13C620.57,643.24,621.38,641.73,620.2,641Z"/>
    <path d="M500,642c-.14-2.64-.27-5,1-7.11a2.08,2.08,0,0,0-1.07.06,11.33,11.33,0,0,1-.88-9.76l-2-.37h0a4.11,4.11,0,0,1-1.07-2.25c-.95,1.26,0,2.21,0,3.77,3.56,3.22.39,7.23,1.36,10.51,2.88,4.41.89,9.65,4,13.84C500.48,647.71,503.9,643.5,500,642Z" style="fill: #9a3b26"/>
    <path d="M694.82,677.59c-.27-4.1-2.07-8.36-3.51-12.42C691.81,669.56,693.6,673.46,694.82,677.59Z" style="fill: #9a3b26"/>
    <path d="M504,634.52c.84,2.39,1.1,5.41,1.59,7.33,1.4-3.92,1-9.84-2.1-13.53C502.75,630.43,504,632.71,504,634.52Z" style="fill: #9a3b26"/>
    <path d="M619.91,653.4c.25,2.8.51,6.75-.18,9.57-.82,1.4-2.48,2.37-3,4.08l.84.31c1.18-2.1,4.12-4.74,3.51-8.77C620.76,656.83,621.23,654.46,619.91,653.4Z"/>
    <path d="M737.35,685.21c-1.78-.45-3.3,1.74-5-.42l1,3.19c.86,3.66-.9,7.91,1.14,11.29l3.8,1.07c-1.33-5.31,4.71-6.28,5-11,.34-2.58.69-5.16,1-7.74C740,674.92,740.68,684.66,737.35,685.21Z" style="fill: #efe8c7"/>
    <path d="M564.12,650.94c-.24,1.26-2,1.54-1,3,1.88-1.69,2.46-4.71,1.86-7.56A17.32,17.32,0,0,0,564.12,650.94Z"/>
    <path d="M501.61,638.15a6.14,6.14,0,0,0,0,3.53l.24-.23c2.37.82.85,3,1.33,4.39l1.29-1.85c-1.43-3.11-.63-6.22-1.83-9.18C502.32,636.2,501.72,636.62,501.61,638.15Z" style="fill: #efe8c7"/>
    <path d="M608.79,657.82l-1.3,1.8c0,2.62-.92,5,0,7.55,3.92-.2,5.91-3.81,8.75-6.07C613.53,659.47,611.17,660.53,608.79,657.82Z" style="fill: #9a3b26"/>
    <path d="M691.62,679.53c.27,4.26,1.23,7.57.07,11.35-3.68.69-.2,5.42-.66,7.83,1.51-5.18,2.19-10,3.35-15.34l-.48-.09C692.59,683.12,692.22,680.84,691.62,679.53Z" style="fill: #9a3b26"/>
    <path d="M610.54,675.11c-1.18-.78-1.67-2.06-2.51-2.75-.1,2.59-1.74,5.23.05,7.56,1.66-.28,3.2-1.15,5.1-1.26a5.49,5.49,0,0,0,3.41-4.89l-.23.33C614.34,674.21,612.56,675.38,610.54,675.11Z" style="fill: #9a3b26"/>
    <path d="M737.45,701.12c-1,.34-1.79-.35-3-.7-.07.82-.15,1.63-.22,2.45.84,1.2-.22,4,2.16,3.52a4.6,4.6,0,0,0,1.87-4.61l-1.08-.44Z" style="fill: #9a3b26"/>
    <path d="M564.28,678.8c-.47.56-.93,1.77-1.89,1.07-3-4.9-1.48-9.67-3.18-15.22h0c-1-.17-.83,1.14-1.65,1.09,1.12,7.78.09,15.25,4.4,22.23,1.54-.34,1.89-2.35,2.6-3.65.56-4.43,2.9-8.25,2-13A57.94,57.94,0,0,1,564.28,678.8Z" style="fill: #9a3b26"/>
    <path d="M683.76,694l.23-.22c-.23.22-.83-.29-1.07-.76h0c-.24-.55-.72-1.94-1.08-2.54l-1.31.5a104.45,104.45,0,0,0,.67,13.42l1.08.23c2.82-3.21,5.66-6.66,5.27-11.56C686.12,692.73,685.43,695.46,683.76,694Z" style="fill: #9a3b26"/>
    <path d="M690.68,700.42c-1.31-1.54-1.09-3.84-2-5.33a12.28,12.28,0,0,1-3.16,8.31c-1.65,1.91-3.54,2.94-3.76,5.74,2.14,1,1.08,3.35,1.69,5,1.9.4,3.08-1.84,5-.53a25.71,25.71,0,0,0,2.3-13.22Z" style="fill: #efe8c7"/>
    <path d="M607.68,691.54c-.93,4,.87,7.75,1.84,11.46.13,1.72.26,3.43,2.28,3.46.93-3.7-.89-8.51-1.5-12.67C609.46,693.08,609,691.19,607.68,691.54Z" style="fill: #9a3b26"/>
    <path d="M684.71,715.25a1.43,1.43,0,0,0,.24.16h0Z" style="fill: #9a3b26"/>
    <path d="M685,715.41c-.48.28-1.07.05-1.54.73h0c-2.73-1.09-.85-3.83-1.69-5.56-.68,5.08-.4,11.25-.15,16.38,5.47-.58,2.57-9,5.75-12.24C686.33,714.4,686,716.07,685,715.41Z" style="fill: #9a3b26"/>
    <path d="M620.57,704.17c-2.5-.27-2.87-3.74-4.55-5.27,0,.78,0,1.57,0,2.35,2.88,6.59.55,13.27-1.08,18.49a3.58,3.58,0,0,1-2.37,2.13,16.15,16.15,0,0,1-1.34-7.84c-.25-1.08-.26-2.52-.85-3.42a4.4,4.4,0,0,1-1.3,1.42c-.79,5.17,1.49,10.46,2.23,15.17.6,2.07.61,4.81,1.11,6.62,1.27-3.52,3.28-6.62,4-10.5,2.94-6,1-14.61,4.87-19.8l-.7.63Z" style="fill: #9a3b26"/>
    <path d="M546,191.81c-.8.7-2.11.93-3,1.91a36,36,0,0,1,.06,5.09l1.7.3c.6-.74,1.74-1,2.53-1.82,0-1.9,0-3.78-.1-5.67Z" style="fill: #9a3b26"/>
    <path d="M384.84,729.44a26.55,26.55,0,0,0-7.43-2.71,77.64,77.64,0,0,0-11.69-1.49c-9-.55-15.33-.1-19,1.17-7.54,2.58-12.2,7.4-14,14.29q-1.9,7.45-1.91,27.47a101.76,101.76,0,0,0,.8,15.31c1.27,7.37,4.63,12.93,10.09,16.78a24.31,24.31,0,0,0,8.34,3.72,81.68,81.68,0,0,0,13.22,1.67,100.88,100.88,0,0,0,13.54.14,30.5,30.5,0,0,0,9-2c6.44-2.77,10.37-8.55,11.79-17.44q.75-4.7.74-17.67,0-15.48-.95-20.69C395.82,739.52,391.64,733.3,384.84,729.44ZM377,782.65a6.73,6.73,0,0,1-3.66,4.26c-1.6.66-4.39.84-8.39.58-4.36-.29-7.42-.78-9.19-1.54a6.67,6.67,0,0,1-3.67-4.09q-1.27-3.78-1.27-16,0-12.74.9-16.65a6.75,6.75,0,0,1,4.2-5.19c1.59-.65,4.67-.85,9.24-.55h0c4,.3,6.8.86,8.39,1.63a6.89,6.89,0,0,1,3.56,4.06,18.13,18.13,0,0,1,1.06,5.26q.27,3,.27,11.19Q378.42,778.81,377,782.65Z" style="fill: #fff"/>
    <path d="M501.79,743.64q-9.75-1.78-19.49-3.45v79.4q25,4.26,50,9.24V810.57q-15.24-3-30.49-5.8Z" style="fill: #fff"/>
    <path d="M474.92,739q-11.69-1.94-23.37-3.68-9.35,13.65-18.7,27.43l-5.84-.76V731.87q-9.74-1.26-19.49-2.33v79.4q9.75,1.06,19.49,2.33V780l6,.79q10.1,17,20.19,34.16,11.91,1.79,23.84,3.78-13.83-22.51-27.67-44.78Q462.15,756.31,474.92,739Z" style="fill: #fff"/>
    <path d="M655.49,805.51q-12.59-2.71-25.17-5.47v-29.9l-19.49-4.25v79.4l19.49,4.25V818.3l25.17,5.48V855L675,859.21v-79.4c-6.49-1.38-13-2.79-19.49-4.19Z" style="fill: #fff"/>
    <path d="M813.18,828.42q-2.71,9.32-5.26,19.53l-1.65,6.5-.74-.11q-4.41-17.83-7.38-28.3-3.4-11.91-6.8-23.83Q776.19,799.77,761,797v79.4q9.57,1.73,19.12,3.35V856q0-7.92-1.11-28l-.48-9.33.64.11q5.14,18.68,10.78,37.92l7.65,25.94q8.39,1.32,16.78,2.53,3.74-11.8,7.49-23.61,2.73-8.67,5.47-17.35l2.55-8.68,2.55-8.74.63.08c-.16,3.06-.31,6.13-.47,9.19q-.92,18.9-1,27.68V887.5q9.55,1.25,19.12,2.31v-79.4h0q-15.51-1.74-31-3.91Q816.48,817.46,813.18,828.42Z" style="fill: #fff"/>
    <path d="M877.71,813.06q-10.89,38.79-21.78,77.32,10.1,1.08,20.18,2L879.62,879q13,1.08,26.08,1.77,1.84,6.93,3.71,13.86,9.89.48,19.76.71-11-40-22-80.22Q892.42,814.32,877.71,813.06Zm6.1,50.82q4.44-16.9,8.87-33.85,4.58,17.55,9.14,35.06Q892.82,864.58,883.81,863.88Z" style="fill: #fff"/>
    <path d="M738.35,794.93a30.91,30.91,0,0,0-7.44-3.54,95,95,0,0,0-11.68-3c-9-1.77-15.34-2.34-19-1.67q-11.31,2-14,11.85-1.9,7.1-1.91,27.11a105.3,105.3,0,0,0,.8,15.47,30.68,30.68,0,0,0,10.09,18.58,29,29,0,0,0,8.34,5.1,79.08,79.08,0,0,0,13.22,3.63,88.78,88.78,0,0,0,13.55,1.88,27.54,27.54,0,0,0,9-1c6.45-2.09,10.38-7.55,11.79-16.32q.75-4.64.75-17.61,0-15.47-1-20.76Q748.54,801.76,738.35,794.93Zm-7.87,52.33c-.81,2.09-2,3.37-3.66,3.82s-4.39.29-8.39-.51q-6.54-1.32-9.19-2.85a8.21,8.21,0,0,1-3.66-4.65q-1.27-4-1.28-16.2,0-12.74.9-16.51c.61-2.51,2-4,4.2-4.55q2.39-.62,9.24.77h0c4,.84,6.8,1.74,8.39,2.72a8.11,8.11,0,0,1,3.56,4.48,19.44,19.44,0,0,1,1.06,5.39q.27,3,.27,11.22Q731.92,843.59,730.48,847.26Z" style="fill: #fff"/>
    <path d="M554.16,753.84q-10.89,37.47-21.78,75,10.1,2,20.19,4.07,1.74-6.48,3.5-12.95,13,2.68,26.08,5.47l3.72,14.46q9.87,2.11,19.75,4.26-11-42.09-22-84.14Q568.87,756.87,554.16,753.84Zm6.11,51.58q4.43-16.32,8.87-32.64,4.56,18.21,9.13,36.42Q569.27,807.29,560.27,805.42Z" style="fill: #fff"/>
  </g>
</svg>
