<svg xmlns="http://www.w3.org/2000/svg" xmlns:xlink="http://www.w3.org/1999/xlink" viewBox="0 0 1260 1008.12">
  <defs>
    <clipPath id="a" transform="translate(0 36.71)">
      <path d="M0,971.41v-920C420-155.45,840,342.66,1260,135.8,1163.08,292.64,1066.15,411.93,969.23,511,1066.15,603.6,1163.08,676,1260,710.8,840,1032.66,420,649.55,0,971.41Z" style="fill: none"/>
    </clipPath>
  </defs>
  <g>
    <g style="clip-path: url(#a)">
      <path d="M0,971.41c420-321.86,840,61.25,1260-260.61v-575C840,342.66,420-155.45,0,51.41Z" transform="translate(0 36.71)" style="fill: #fff"/>
      <path d="M1248.89,603.39c-384,283-768-12.88-1152,189.85V131.3c384-97.59,768,303.43,1152,125.57q5.55-60.45,11.11-121.07V20c-138.14,68-276.28,59.81-414.42,25.48C563.72,14.08,281.86-126,0,51.41v920C281.86,794,563.72,934.08,845.58,965.52c138.14-3.5,276.28-33.1,414.42-139V710.8Q1254.45,657.18,1248.89,603.39Z" transform="translate(0 36.71)" style="fill: #c1133d"/>
      <path d="M0,511.41C420,247.05,840,687.66,1260,423.3" transform="translate(0 36.71)" style="fill: #fff"/>
      <path d="M0,568.9c420-264.36,840,176.26,1260-88.1v-115C840,630.16,420,189.55,0,453.91Z" transform="translate(0 36.71)" style="fill: #c1133d"/>
    </g>
    <path d="M0,51.41v920c258.46-316,516.92-365.06,775.38-475.72C516.92,299.68,258.46,42.06,0,51.41Z" transform="translate(0 36.71)" style="fill: #001c5a"/>
    <path d="M239.61,254.88C159.31,263.1,94.22,368.12,94.22,463.34S159.31,608.1,239.61,599.88C319.9,591.06,385,522.13,385,426.31,385,331.59,319.9,246.06,239.61,254.88Z" transform="translate(0 36.71)" style="fill: #fff"/>
    <path d="M239.61,312.38c-53.53,5.73-96.93,70.84-96.93,134.29s43.4,101.44,96.93,95.71c53.53-6,96.92-55.07,96.92-118.79C336.53,360.28,293.14,306.38,239.61,312.38Z" transform="translate(0 36.71)" style="fill: #c1133d"/>
    <path d="M621.4,471.53q16.74.53,33.49,1l-28.81-17.13Z" transform="translate(0 36.71)" style="fill: #fff"/>
    <path d="M626.08,477.64l28.81-5.08q-16.74-6.48-33.49-13Z" transform="translate(0 36.71)" style="fill: #fff"/>
    <path d="M634,502.36V466.42l-15.15-3.17Z" transform="translate(0 36.71)" style="fill: #fff"/>
    <path d="M616.16,469.55q8.9,16.41,17.8,32.81l-5.55-40.8Z" transform="translate(0 36.71)" style="fill: #fff"/>
    <path d="M628.41,472.48,634,434l-17.8,25.34Z" transform="translate(0 36.71)" style="fill: #fff"/>
    <path d="M634,469.94V434l-15.15,32.77Z" transform="translate(0 36.71)" style="fill: #fff"/>
    <path d="M600.09,482.22q14.42-2.57,28.81-5.08l-4.68-18.07Z" transform="translate(0 36.71)" style="fill: #fff"/>
    <path d="M600.09,482.22q15-6.14,30.06-12.22L617.9,456.86Z" transform="translate(0 36.71)" style="fill: #fff"/>
    <path d="M617.9,472.77l12.25-8L600.09,440Z" transform="translate(0 36.71)" style="fill: #fff"/>
    <path d="M624.22,473.21l4.68-16.11q-14.4-8.57-28.81-17.13Q612.17,456.58,624.22,473.21Z" transform="translate(0 36.71)" style="fill: #fff"/>
    <path d="M427.56,436.71q16.74-.93,33.48-1.41-14.4-7.71-28.81-15.1Q429.89,428.45,427.56,436.71Z" transform="translate(0 36.71)" style="fill: #fff"/>
    <path d="M432.23,442.41q14.41-3.72,28.81-7.11-16.74-5.49-33.48-10.56Q429.9,433.58,432.23,442.41Z" transform="translate(0 36.71)" style="fill: #fff"/>
    <path d="M440.11,466.51V430.58q-7.58-1-15.14-1.93Q432.54,447.54,440.11,466.51Z" transform="translate(0 36.71)" style="fill: #fff"/>
    <path d="M422.31,435.19q8.9,15.6,17.8,31.32l-5.55-40.36Q428.44,430.64,422.31,435.19Z" transform="translate(0 36.71)" style="fill: #fff"/>
    <path d="M434.56,437.06l5.55-38.9q-8.89,13.35-17.8,26.82Q428.43,431,434.56,437.06Z" transform="translate(0 36.71)" style="fill: #fff"/>
    <path d="M440.11,434.09V398.16q-7.58,16.95-15.14,34Q432.54,433.08,440.11,434.09Z" transform="translate(0 36.71)" style="fill: #fff"/>
    <path d="M406.25,449.42q14.4-4.05,28.8-7.73L430.37,424Q418.31,436.59,406.25,449.42Z" transform="translate(0 36.71)" style="fill: #fff"/>
    <path d="M406.25,449.42q15-7.69,30.05-15-6.12-6.07-12.25-12.09Q415.16,435.8,406.25,449.42Z" transform="translate(0 36.71)" style="fill: #fff"/>
    <path d="M424.05,438.25q6.13-4.54,12.25-9-15-11.22-30.05-22Q415.15,422.63,424.05,438.25Z" transform="translate(0 36.71)" style="fill: #fff"/>
    <path d="M430.37,438.14l4.68-16.49q-14.4-7.41-28.8-14.47Q418.31,422.53,430.37,438.14Z" transform="translate(0 36.71)" style="fill: #fff"/>
    <path d="M521.29,394.69q16.08-3.31,32.17-6.4-15-5.57-30-11Q522.4,386,521.29,394.69Z" transform="translate(0 36.71)" style="fill: #fff"/>
    <path d="M526.63,399.8Q540,394,553.46,388.29q-16.94-3-33.86-5.71Q523.11,391.18,526.63,399.8Z" transform="translate(0 36.71)" style="fill: #fff"/>
    <path d="M517.65,386.9q10,18,20,36.17-2.55-18.21-5.08-36.4Q525.11,386.76,517.65,386.9Z" transform="translate(0 36.71)" style="fill: #fff"/>
    <path d="M516,393.89q10.83,14.53,21.66,29.18Q532.11,403,526.58,383,521.28,388.43,516,393.89Z" transform="translate(0 36.71)" style="fill: #fff"/>
    <path d="M514.55,383.56q6.8,5.22,13.57,10.49l-.12-40.2Z" transform="translate(0 36.71)" style="fill: #fff"/>
    <path d="M518.15,390.46q7.46-.13,14.93-.23Q530.53,372,528,353.85,523.07,372.14,518.15,390.46Z" transform="translate(0 36.71)" style="fill: #fff"/>
    <path d="M502.43,410.45q13.41-6,26.83-11.79l-7-17.23Q512.33,395.89,502.43,410.45Z" transform="translate(0 36.71)" style="fill: #fff"/>
    <path d="M502.43,410.45q13.5-9.75,27-19.31-6.78-5.26-13.57-10.49Q509.15,395.53,502.43,410.45Z" transform="translate(0 36.71)" style="fill: #fff"/>
    <path d="M518.12,396.74q5.29-5.46,10.58-10.88-16.12-9.18-32.24-18.1Q507.29,382.19,518.12,396.74Z" transform="translate(0 36.71)" style="fill: #fff"/>
    <path d="M524.23,395.74q1.1-8.69,2.2-17.37-15-5.4-30-10.61Q510.34,381.65,524.23,395.74Z" transform="translate(0 36.71)" style="fill: #fff"/>
    <path d="M519.6,507.7q16.93,3.49,33.86,7.23-13.41-11-26.83-21.85Q523.12,500.39,519.6,507.7Z" transform="translate(0 36.71)" style="fill: #fff"/>
    <path d="M523.49,514.4q15,.17,30,.53-16.08-9.45-32.17-18.72Q522.4,505.3,523.49,514.4Z" transform="translate(0 36.71)" style="fill: #fff"/>
    <path d="M528,539.55q2.54-17.24,5.08-34.47-7.47-2.93-14.93-5.8Q523.07,519.41,528,539.55Z" transform="translate(0 36.71)" style="fill: #fff"/>
    <path d="M528,539.55l.12-40.15q-6.78,2.7-13.57,5.46Q521.29,522.18,528,539.55Z" transform="translate(0 36.71)" style="fill: #fff"/>
    <path d="M526.58,509.87q5.53-18,11.08-35.88Q526.83,484.48,516,495.06,521.29,502.46,526.58,509.87Z" transform="translate(0 36.71)" style="fill: #fff"/>
    <path d="M532.58,508.45q2.53-17.22,5.08-34.46-10,14.29-20,28.67Q525.11,505.53,532.58,508.45Z" transform="translate(0 36.71)" style="fill: #fff"/>
    <path d="M496.46,514.26q15,0,30,.17-1.11-9.09-2.2-18.19Q510.34,505.17,496.46,514.26Z" transform="translate(0 36.71)" style="fill: #fff"/>
    <path d="M496.46,514.26q16.13-3.36,32.24-6.45-5.3-7.43-10.58-14.82Q507.29,503.57,496.46,514.26Z" transform="translate(0 36.71)" style="fill: #fff"/>
    <path d="M515.87,508.25q6.78-2.75,13.57-5.45-13.5-14.67-27-29.15Q509.15,490.93,515.87,508.25Z" transform="translate(0 36.71)" style="fill: #fff"/>
    <path d="M522.23,509.81q3.51-7.31,7-14.6-13.43-10.86-26.83-21.56Q512.33,491.68,522.23,509.81Z" transform="translate(0 36.71)" style="fill: #fff"/>
    <path d="M319.15,625.43q9.74,16.49,19.49,33.22-2.26-17.83-4.52-35.66Q326.64,624.13,319.15,625.43Z" transform="translate(0 36.71)" style="fill: #fff"/>
    <path d="M317.38,632.68q10.64,12.84,21.26,26-5.24-19.27-10.47-38.46Q322.77,626.4,317.38,632.68Z" transform="translate(0 36.71)" style="fill: #fff"/>
    <path d="M303.51,651.45q13.55-8.25,27.09-16-3.39-8.12-6.77-16.18Q313.68,635.21,303.51,651.45Z" transform="translate(0 36.71)" style="fill: #fff"/>
    <path d="M303.51,651.45q13.69-12,27.4-23.54-6.72-4.27-13.44-8.44Q310.48,635.39,303.51,651.45Z" transform="translate(0 36.71)" style="fill: #fff"/>
    <path d="M322.68,632.66q16.19-5.74,32.36-10.85-14.94-3.69-29.88-6.84Q323.91,623.81,322.68,632.66Z" transform="translate(0 36.71)" style="fill: #fff"/>
    <path d="M328,637q13.55-7.8,27.09-15.16-16.94-.84-33.86-1Z" transform="translate(0 36.71)" style="fill: #fff"/>
    <path d="M319.46,635.2q5.4-6.27,10.79-12.47-16-6.81-32-13Q308.83,622.34,319.46,635.2Z" transform="translate(0 36.71)" style="fill: #fff"/>
    <path d="M325.6,633.27l2.49-17.68q-14.94-3.21-29.88-5.82Q311.9,621.28,325.6,633.27Z" transform="translate(0 36.71)" style="fill: #fff"/>
    <path d="M329.54,631q.25-20.09.52-40.16-7,15.81-14,31.75Q322.82,626.73,329.54,631Z" transform="translate(0 36.71)" style="fill: #fff"/>
    <path d="M319.59,628.92q7.49-1.3,15-2.44-2.26-17.84-4.51-35.64Q324.83,609.85,319.59,628.92Z" transform="translate(0 36.71)" style="fill: #fff"/>
    <path d="M229.65,691q5.32-17.5,10.65-34.92-7.1-2.37-14.18-4.57Q227.89,671.29,229.65,691Z" transform="translate(0 36.71)" style="fill: #fff"/>
    <path d="M229.65,691q3.28-20.13,6.55-40.23-7.3,3.26-14.6,6.69Q225.62,674.24,229.65,691Z" transform="translate(0 36.71)" style="fill: #fff"/>
    <path d="M232.08,666q.33-9,.68-18-15.48,10.1-30.94,21Q216.94,667.08,232.08,666Z" transform="translate(0 36.71)" style="fill: #fff"/>
    <path d="M201.82,669q16.8-5.4,33.62-9.79-4.17-7-8.34-13.94Q214.46,656.82,201.82,669Z" transform="translate(0 36.71)" style="fill: #fff"/>
    <path d="M226.25,659.86q16.56,1.95,33.12,4.81-11.84-10.26-23.68-20Q231,652.19,226.25,659.86Z" transform="translate(0 36.71)" style="fill: #fff"/>
    <path d="M229.11,666.23q15.13-1.15,30.26-1.56-14.79-8.59-29.58-16.48Q229.46,657.21,229.11,666.23Z" transform="translate(0 36.71)" style="fill: #fff"/>
    <path d="M222.39,660.78q7.29-3.43,14.6-6.67-11.34-13.61-22.66-26.78Q218.37,644,222.39,660.78Z" transform="translate(0 36.71)" style="fill: #fff"/>
    <path d="M228.57,661.75q4.71-7.65,9.44-15.21-11.83-9.84-23.68-19.21Q221.46,644.44,228.57,661.75Z" transform="translate(0 36.71)" style="fill: #fff"/>
    <path d="M233,661.42q8.47-18.43,16.94-36.64-12.63,11.1-25.28,22.73Q228.79,654.44,233,661.42Z" transform="translate(0 36.71)" style="fill: #fff"/>
    <path d="M239.26,659.53q5.33-17.41,10.64-34.75Q237.5,639.63,225.08,655,232.16,657.17,239.26,659.53Z" transform="translate(0 36.71)" style="fill: #fff"/>
    <g>
      <path d="M123.19,676.26q11.55-15.46,23.11-30.37-4.91-5.46-9.79-10.82Q129.85,655.58,123.19,676.26Z" transform="translate(0 36.71)" style="fill: #fff"/>
      <path d="M123.19,676.26q11-19,21.9-37.44-7.36,0-14.72.19Q126.79,657.61,123.19,676.26Z" transform="translate(0 36.71)" style="fill: #fff"/>
    </g>
    <g>
      <path d="M135.46,652.13q4-8.86,8-17.66-16.86,3.09-33.73,7.39Q122.58,646.65,135.46,652.13Z" transform="translate(0 36.71)" style="fill: #fff"/>
      <path d="M109.69,641.86q15.68,1.93,31.34,4.93-.57-8.79-1.13-17.58Q124.8,635.06,109.69,641.86Z" transform="translate(0 36.71)" style="fill: #fff"/>
    </g>
    <path d="M133.2,643.43q12.75,9.26,25.5,19.16-5.74-15.14-11.49-30.14Q140.2,637.85,133.2,643.43Z" transform="translate(0 36.71)" style="fill: #fff"/>
    <path d="M132.93,651.06q12.88,5.43,25.77,11.53-8.91-14.77-17.8-29.23Q136.91,642.18,132.93,651.06Z" transform="translate(0 36.71)" style="fill: #fff"/>
    <g>
      <path d="M129.67,642.65q7.37-.23,14.71-.21-3.76-18.51-7.53-36.94Q133.27,624,129.67,642.65Z" transform="translate(0 36.71)" style="fill: #fff"/>
      <path d="M134.33,646.34q7-5.58,14-11-5.75-15-11.49-29.89Z" transform="translate(0 36.71)" style="fill: #fff"/>
    </g>
    <g>
      <path d="M138.07,647.94q14.53-14.69,29.07-28.52-15.1,5-30.2,10.94Q137.51,639.15,138.07,647.94Z" transform="translate(0 36.71)" style="fill: #fff"/>
      <path d="M144,648.81q11.55-15,23.1-29.39-16.44,8.77-32.9,18.62Q139.14,643.37,144,648.81Z" transform="translate(0 36.71)" style="fill: #fff"/>
    </g>
    <g>
      <path d="M120,803.9q9.75-17.07,19.5-33.73-5.79-4-11.59-8Q124,783,120,803.9Z" transform="translate(0 36.71)" style="fill: #fff"/>
      <path d="M120,803.9q8.63-20.22,17.26-40.12-7.56,1.65-15.11,3.55Q121.07,785.62,120,803.9Z" transform="translate(0 36.71)" style="fill: #fff"/>
    </g>
    <g>
      <path d="M129.24,778.5q2.85-9.24,5.69-18.44-16.87,6.78-33.76,14.78Q115.21,776.23,129.24,778.5Z" transform="translate(0 36.71)" style="fill: #fff"/>
      <path d="M101.17,774.84q16.52-1.9,33-2.62-1.82-8.16-3.64-16.3Q115.87,764.92,101.17,774.84Z" transform="translate(0 36.71)" style="fill: #fff"/>
    </g>
    <path d="M125.69,770.83q14.43,5.77,28.87,12.4-8-13.1-16-25.94Q132.12,764,125.69,770.83Z" transform="translate(0 36.71)" style="fill: #fff"/>
    <path d="M126.49,778.07q14,2.16,28.07,5.16-11.19-12.08-22.38-23.64Q129.33,768.82,126.49,778.07Z" transform="translate(0 36.71)" style="fill: #fff"/>
    <g>
      <path d="M121.94,770.91q7.56-1.9,15.11-3.56-6.48-16.59-13-33Q123,752.63,121.94,770.91Z" transform="translate(0 36.71)" style="fill: #fff"/>
      <path d="M127.26,773.31q6.42-6.84,12.85-13.5-8-12.87-16-25.47Q125.67,753.83,127.26,773.31Z" transform="translate(0 36.71)" style="fill: #fff"/>
    </g>
    <g>
      <path d="M131.34,774q12.87-17.12,25.75-33.54-14.7,8.19-29.4,17.27Q129.51,765.82,131.34,774Z" transform="translate(0 36.71)" style="fill: #fff"/>
      <path d="M137.59,773.44q9.75-16.71,19.5-33-15.56,12.06-31.09,25.1Q131.79,769.41,137.59,773.44Z" transform="translate(0 36.71)" style="fill: #fff"/>
    </g>
    <g>
      <path d="M29.21,777.62q13-16.36,26.06-31.88-3.85-5.85-7.72-11.62Q38.39,755.66,29.21,777.62Z" transform="translate(0 36.71)" style="fill: #fff"/>
      <path d="M29.21,777.62q13-20.1,25.91-39.36-6.94-.16-13.9-.09Q35.22,757.81,29.21,777.62Z" transform="translate(0 36.71)" style="fill: #fff"/>
    </g>
    <g>
      <path d="M44.15,752.16q5-9.33,10-18.52-16.36,2.91-32.74,7.15Q32.79,746.15,44.15,752.16Z" transform="translate(0 36.71)" style="fill: #fff"/>
      <path d="M50.16,746.61q.71-9.3,1.42-18.6-15.07,5.82-30.16,12.78Q35.79,743.18,50.16,746.61Z" transform="translate(0 36.71)" style="fill: #fff"/>
    </g>
    <path d="M43.26,742.91q10.7,10,21.4,20.61-3.31-16-6.63-31.93Q50.65,737.13,43.26,742.91Z" transform="translate(0 36.71)" style="fill: #fff"/>
    <path d="M41.93,751q11.35,6,22.73,12.53-6.36-15.64-12.72-31.11Q46.93,741.64,41.93,751Z" transform="translate(0 36.71)" style="fill: #fff"/>
    <g>
      <path d="M40.05,742q6.95-.09,13.9.06l-1.89-39.19Q46,722.37,40.05,742Z" transform="translate(0 36.71)" style="fill: #fff"/>
      <path d="M43.91,746q7.38-5.79,14.77-11.3-3.3-15.93-6.62-31.83Q48,724.41,43.91,746Z" transform="translate(0 36.71)" style="fill: #fff"/>
    </g>
    <g>
      <path d="M47.21,747.77Q63,732.47,78.78,718.4q-15.07,4.83-30.15,10.76Q47.91,738.46,47.21,747.77Z" transform="translate(0 36.71)" style="fill: #fff"/>
      <path d="M52.72,748.79q13-15.62,26.06-30.39Q61.89,727.13,45,737.22,48.86,743,52.72,748.79Z" transform="translate(0 36.71)" style="fill: #fff"/>
    </g>
    <path d="M46.2,613Q61.07,602,75.92,592q-1.47-8.18-2.93-16.34Q59.6,593.92,46.2,613Z" transform="translate(0 36.71)" style="fill: #fff"/>
    <path d="M46.2,613q15.86-15.15,31.71-29.1-5.56-3.69-11.11-7.25Q56.51,594.62,46.2,613Z" transform="translate(0 36.71)" style="fill: #fff"/>
    <path d="M65.2,593.22q6.61-7.46,13.23-14.69-14-5.25-28-9.58Q57.83,581,65.2,593.22Z" transform="translate(0 36.71)" style="fill: #fff"/>
    <path d="M71.57,590.33q3.18-9.58,6.37-19.12Q64.2,569.64,50.45,569,61,579.38,71.57,590.33Z" transform="translate(0 36.71)" style="fill: #fff"/>
    <path d="M78.51,615.56q1.8-18.62,3.62-37.23-7.53,2.11-15,4.51Q72.81,599.12,78.51,615.56Z" transform="translate(0 36.71)" style="fill: #fff"/>
    <path d="M63.76,590.82q7.38,12.24,14.75,24.74-.77-19.74-1.52-39.47Q70.38,583.35,63.76,590.82Z" transform="translate(0 36.71)" style="fill: #fff"/>
    <path d="M75.89,587.4q4.76-21.36,9.5-42.63-10.31,17.47-20.6,35.43Q70.34,583.74,75.89,587.4Z" transform="translate(0 36.71)" style="fill: #fff"/>
    <path d="M81.77,582q1.82-18.6,3.62-37.2-9.33,20.65-18.65,41.72Q74.26,584.11,81.77,582Z" transform="translate(0 36.71)" style="fill: #fff"/>
    <path d="M68.88,590.07q16.92-8.31,33.85-15.3Q89,572.42,75.25,570.91,72.06,580.46,68.88,590.07Z" transform="translate(0 36.71)" style="fill: #fff"/>
    <path d="M73,594q14.86-10.11,29.72-19.19-16.32.84-32.65,2.87Q71.55,585.8,73,594Z" transform="translate(0 36.71)" style="fill: #fff"/>
    <path d="M47,495.81l4.68-19.45q-16.74,11.33-33.49,24Q32.59,497.58,47,495.81Z" transform="translate(0 36.71)" style="fill: #fff"/>
    <path d="M18.17,500.4q16.75-6.73,33.49-12.07L47,473.6Q32.58,486.49,18.17,500.4Z" transform="translate(0 36.71)" style="fill: #fff"/>
    <path d="M39.1,490.55q7.57-4,15.15-7.72-7.57-14.25-15.15-28.22Z" transform="translate(0 36.71)" style="fill: #fff"/>
    <path d="M44.65,491.35q6.14-8.43,12.26-16.68Q48,464.44,39.1,454.61,41.88,473,44.65,491.35Z" transform="translate(0 36.71)" style="fill: #fff"/>
    <path d="M39.1,523Q48,503.73,56.91,484.88q-6.13-2.31-12.26-4.44Q41.88,501.68,39.1,523Z" transform="translate(0 36.71)" style="fill: #fff"/>
    <path d="M39.1,523q7.57-22,15.15-43.66Q46.68,483,39.1,487Z" transform="translate(0 36.71)" style="fill: #fff"/>
    <path d="M48.84,490.83Q60.9,470.66,73,451.17q-14.41,12-28.81,25Z" transform="translate(0 36.71)" style="fill: #fff"/>
    <path d="M55.16,488.57q8.91-18.88,17.81-37.4-15,16-30.06,33Q49,486.28,55.16,488.57Z" transform="translate(0 36.71)" style="fill: #fff"/>
    <path d="M42.91,489.41q15,1.45,30.06,4-8.91-10.56-17.81-20.75Q49,481,42.91,489.41Z" transform="translate(0 36.71)" style="fill: #fff"/>
    <path d="M44.16,496.17q14.4-1.89,28.81-2.75-12.07-8.71-24.13-16.73Q46.5,486.41,44.16,496.17Z" transform="translate(0 36.71)" style="fill: #fff"/>
    <path d="M334.12,224.07q2.26-17.72,4.52-35.41-9.75,16.13-19.49,32.5Q326.64,222.54,334.12,224.07Z" transform="translate(0 36.71)" style="fill: #fff"/>
    <path d="M328.17,226.62q5.24-19,10.47-38Q328,201.14,317.38,213.9,322.78,220.22,328.17,226.62Z" transform="translate(0 36.71)" style="fill: #fff"/>
    <path d="M323.83,227.41q3.39-8,6.77-16-13.55-8.31-27.09-16.14Q313.66,211.22,323.83,227.41Z" transform="translate(0 36.71)" style="fill: #fff"/>
    <path d="M317.47,227.12q6.72-4.12,13.44-8.12-13.71-12.09-27.4-23.69Q310.49,211.15,317.47,227.12Z" transform="translate(0 36.71)" style="fill: #fff"/>
    <path d="M325.16,231.75Q340.1,229,355,226.81q-16.19-6.72-32.36-12.82Q323.92,222.87,325.16,231.75Z" transform="translate(0 36.71)" style="fill: #fff"/>
    <path d="M321.18,225.81q16.92.15,33.86,1-13.55-8.72-27.09-17Q324.56,217.81,321.18,225.81Z" transform="translate(0 36.71)" style="fill: #fff"/>
    <path d="M298.21,237.19q16-6.87,32-13-5.4-6.41-10.79-12.75Q308.84,224.15,298.21,237.19Z" transform="translate(0 36.71)" style="fill: #fff"/>
    <path d="M298.21,237.19q14.94-3.3,29.88-6l-2.49-17.77Q311.91,225.08,298.21,237.19Z" transform="translate(0 36.71)" style="fill: #fff"/>
    <path d="M316.1,224q7,16,14,32.05-.27-20.1-.52-40.19Q322.82,219.87,316.1,224Z" transform="translate(0 36.71)" style="fill: #fff"/>
    <path d="M330.06,256q2.25-17.73,4.51-35.44-7.5-1.53-15-2.91Q324.83,236.83,330.06,256Z" transform="translate(0 36.71)" style="fill: #fff"/>
    <path d="M226.12,206.54q7.09-4.12,14.18-8.06-5.33-16.23-10.65-32.37Q227.9,186.32,226.12,206.54Z" transform="translate(0 36.71)" style="fill: #fff"/>
    <path d="M221.6,201.85q7.29,1.35,14.6,2.87-3.27-19.32-6.55-38.61Q225.63,183.95,221.6,201.85Z" transform="translate(0 36.71)" style="fill: #fff"/>
    <path d="M201.82,196.72q15.47,5.42,30.94,11.68-.34-8.94-.68-17.87Q216.95,193.23,201.82,196.72Z" transform="translate(0 36.71)" style="fill: #fff"/>
    <path d="M227.1,212.58q4.17-8.06,8.34-16.05-16.81-.39-33.62.19Q214.45,204.37,227.1,212.58Z" transform="translate(0 36.71)" style="fill: #fff"/>
    <path d="M235.69,211q11.85-12.61,23.68-24.77-16.56,5.52-33.12,11.92Q231,204.58,235.69,211Z" transform="translate(0 36.71)" style="fill: #fff"/>
    <path d="M229.79,208.93q14.79-11.69,29.58-22.66-15.12,2-30.26,4.8Q229.46,200,229.79,208.93Z" transform="translate(0 36.71)" style="fill: #fff"/>
    <path d="M214.33,234.18q11.32-16.69,22.66-32.94-7.31-1.55-14.6-2.9Q218.36,216.24,214.33,234.18Z" transform="translate(0 36.71)" style="fill: #fff"/>
    <path d="M214.33,234.18q11.83-13,23.68-25.6-4.72-6.48-9.44-12.89Q221.45,214.85,214.33,234.18Z" transform="translate(0 36.71)" style="fill: #fff"/>
    <path d="M224.62,211q12.65,8.16,25.28,16.85Q241.44,211.26,233,194.9,228.79,202.91,224.62,211Z" transform="translate(0 36.71)" style="fill: #fff"/>
    <path d="M225.08,203.38q12.4,12,24.82,24.45-5.33-16.31-10.64-32.53Q232.17,199.26,225.08,203.38Z" transform="translate(0 36.71)" style="fill: #fff"/>
    <g>
      <path d="M136.51,262q4.89-8.34,9.79-16.59-11.55-8.33-23.11-16.1Q129.85,245.53,136.51,262Z" transform="translate(0 36.71)" style="fill: #fff"/>
      <path d="M130.37,261.84q7.37-4.47,14.72-8.71-11-12.18-21.9-23.86Q126.79,245.53,130.37,261.84Z" transform="translate(0 36.71)" style="fill: #fff"/>
    </g>
    <g>
      <path d="M109.69,273.06q16.86-7.92,33.73-14.61-4-6.49-8-12.91Q122.58,259,109.69,273.06Z" transform="translate(0 36.71)" style="fill: #fff"/>
      <path d="M139.9,265.78q.56-9.13,1.13-18.26-15.67,12.25-31.34,25.54Q124.8,268.92,139.9,265.78Z" transform="translate(0 36.71)" style="fill: #fff"/>
    </g>
    <path d="M147.21,258.28Q153,240,158.7,221.91,146,238.44,133.2,255.64,140.21,256.86,147.21,258.28Z" transform="translate(0 36.71)" style="fill: #fff"/>
    <path d="M140.9,261q8.9-19.73,17.8-39.13-12.88,12.79-25.77,26.26Q136.92,254.58,140.9,261Z" transform="translate(0 36.71)" style="fill: #fff"/>
    <g>
      <path d="M136.85,291.32q3.77-20.73,7.53-41.4-7.35,4.25-14.71,8.73Q133.27,275,136.85,291.32Z" transform="translate(0 36.71)" style="fill: #fff"/>
      <path d="M136.85,291.32q5.75-18.37,11.49-36.61-7-1.44-14-2.68Z" transform="translate(0 36.71)" style="fill: #fff"/>
    </g>
    <g>
      <path d="M136.94,266.4q15.1-3.25,30.2-5.57-14.53-6.76-29.07-12.69Q137.5,257.27,136.94,266.4Z" transform="translate(0 36.71)" style="fill: #fff"/>
      <path d="M134.24,260.39q16.45-.34,32.9.44Q155.59,252,144,243.74,139.14,252,134.24,260.39Z" transform="translate(0 36.71)" style="fill: #fff"/>
    </g>
    <g>
      <path d="M127.91,140.22q5.79-7.65,11.59-15.17-9.75-10.83-19.5-21.27Q124,122,127.91,140.22Z" transform="translate(0 36.71)" style="fill: #fff"/>
      <path d="M122.15,138.9q7.56-3.18,15.11-6.1-8.64-14.67-17.26-29Q121.08,121.33,122.15,138.9Z" transform="translate(0 36.71)" style="fill: #fff"/>
    </g>
    <g>
      <path d="M101.17,146.42q16.88-4.86,33.76-8.48-2.85-7.44-5.69-14.86Q115.2,134.33,101.17,146.42Z" transform="translate(0 36.71)" style="fill: #fff"/>
      <path d="M130.57,144.81q1.81-9.3,3.64-18.58-16.52,9.51-33,20.19Q115.87,145.14,130.57,144.81Z" transform="translate(0 36.71)" style="fill: #fff"/>
    </g>
    <path d="M138.54,138.51q8-17.65,16-35.06-14.43,14.37-28.87,29.6Q132.11,135.69,138.54,138.51Z" transform="translate(0 36.71)" style="fill: #fff"/>
    <path d="M132.18,140.12q11.19-18.6,22.38-36.67-14,10.51-28.07,21.84Q129.34,132.69,132.18,140.12Z" transform="translate(0 36.71)" style="fill: #fff"/>
    <g>
      <path d="M124.09,170.59q6.48-20.7,13-41.24-7.56,2.94-15.11,6.11Q123,153,124.09,170.59Z" transform="translate(0 36.71)" style="fill: #fff"/>
      <path d="M124.09,170.59q8-17.91,16-35.54-6.44-2.84-12.85-5.5Q125.67,150.07,124.09,170.59Z" transform="translate(0 36.71)" style="fill: #fff"/>
    </g>
    <g>
      <path d="M127.69,144.89q14.7-.44,29.4,0-12.89-9.66-25.75-18.64Q129.51,135.58,127.69,144.89Z" transform="translate(0 36.71)" style="fill: #fff"/>
      <path d="M126,138.15q15.54,2.88,31.09,6.77-9.75-11.17-19.5-22Q131.8,130.47,126,138.15Z" transform="translate(0 36.71)" style="fill: #fff"/>
    </g>
    <g>
      <path d="M47.55,234.7q3.87-9.69,7.72-19.3-13-2.79-26.06-4.74Q38.38,222.47,47.55,234.7Z" transform="translate(0 36.71)" style="fill: #fff"/>
      <path d="M41.22,237.18q7-7.2,13.9-14.16-12.94-6.6-25.91-12.36Q35.21,223.83,41.22,237.18Z" transform="translate(0 36.71)" style="fill: #fff"/>
    </g>
    <g>
      <path d="M21.42,256.27q16.36-14.52,32.74-27.68-5-4.29-10-8.45Q32.8,237.89,21.42,256.27Z" transform="translate(0 36.71)" style="fill: #fff"/>
      <path d="M21.42,256.27Q36.49,246,51.58,236.77q-.72-8.6-1.42-17.18Q35.79,237.41,21.42,256.27Z" transform="translate(0 36.71)" style="fill: #fff"/>
    </g>
    <path d="M58,226.86q3.31-19.12,6.63-38.21Q54,209.22,43.26,230.32,50.64,228.46,58,226.86Z" transform="translate(0 36.71)" style="fill: #fff"/>
    <path d="M51.94,232q6.36-21.78,12.72-43.36-11.37,17.17-22.73,35Q46.93,227.76,51.94,232Z" transform="translate(0 36.71)" style="fill: #fff"/>
    <g>
      <path d="M52.06,261.42,54,220.37q-7,7-13.9,14.2Q46.05,247.91,52.06,261.42Z" transform="translate(0 36.71)" style="fill: #fff"/>
      <path d="M52.06,261.42q3.31-19.19,6.62-38.31-7.38,1.59-14.77,3.44Q48,244,52.06,261.42Z" transform="translate(0 36.71)" style="fill: #fff"/>
    </g>
    <g>
      <path d="M48.63,238.58q15.07-9.3,30.15-17.49-15.78-.43-31.57.32Q47.92,230,48.63,238.58Z" transform="translate(0 36.71)" style="fill: #fff"/>
      <path d="M45,234.21Q61.89,227,78.78,221.09q-13-3.53-26.06-6.23Q48.86,224.51,45,234.21Z" transform="translate(0 36.71)" style="fill: #fff"/>
    </g>
    <path d="M73,368.92q1.47-9.46,2.93-18.93Q61.06,353,46.2,357.16,59.6,362.61,73,368.92Z" transform="translate(0 36.71)" style="fill: #fff"/>
    <path d="M66.8,373.49q5.55-8.65,11.11-17.19-15.85-.17-31.71.86Q56.51,365.07,66.8,373.49Z" transform="translate(0 36.71)" style="fill: #fff"/>
    <path d="M50.45,397q14-18.31,28-35.69-6.62-1.51-13.23-2.81Q57.83,377.58,50.45,397Z" transform="translate(0 36.71)" style="fill: #fff"/>
    <path d="M50.45,397Q64.19,382.52,77.94,369l-6.37-13.48Q61,376,50.45,397Z" transform="translate(0 36.71)" style="fill: #fff"/>
    <path d="M67.09,367.09q7.51-4.54,15-8.8-1.81-17.07-3.62-34.13Q72.8,345.55,67.09,367.09Z" transform="translate(0 36.71)" style="fill: #fff"/>
    <path d="M77,365q.75-20.4,1.52-40.8-7.38,18.88-14.75,38Q70.38,363.48,77,365Z" transform="translate(0 36.71)" style="fill: #fff"/>
    <path d="M64.79,371.85q10.29,8.37,20.6,17.25-4.76-17.3-9.5-34.5Q70.34,363.15,64.79,371.85Z" transform="translate(0 36.71)" style="fill: #fff"/>
    <path d="M66.74,363.76q9.32,12.47,18.65,25.34Q83.58,372,81.77,355,74.26,359.21,66.74,363.76Z" transform="translate(0 36.71)" style="fill: #fff"/>
    <path d="M75.25,371.66Q89,358.05,102.73,345.31q-16.92,5.79-33.85,12.9Z" transform="translate(0 36.71)" style="fill: #fff"/>
    <path d="M70.08,369.55q16.33-12.75,32.65-24.24Q87.86,347.46,73,350.6,71.56,360.07,70.08,369.55Z" transform="translate(0 36.71)" style="fill: #fff"/>
  </g>
</svg>
