<svg xmlns="http://www.w3.org/2000/svg" viewBox="0 0 1260 1012.04">
  <g>
    <path d="M0,90.08v920C420,738.76,840,1193.28,1260,922V2C840,273.28,420-181.24,0,90.08Z" style="fill: #fec500"/>
    <path d="M1214,65.35C809.34,277.58,404.67-134.83,0,126.58v847c404.67-261.42,809.34,151,1214-61.23Z" style="fill: #fff"/>
    <path d="M707.9,531.75q15.51,6.32,31,12.46c0,.14-50.45,21.36-67.91,23.74-17.46,2.54-54.33-2.39-54.33-18.07S618.64,351,618.64,351q-9.69-2.12-19.4-4.21h0S597.3,519,597.3,531.54s0,29.81-17.46,22.94S541,543.11,510,520s-31.05-25.87-31.05-25.93q14.55-1.47,29.11-2.69s-29.11-10.09-48.51-24-34.92-25.33-34.92-25.33-1.95,23.28,7.76,41.81,29.1,37.15,29.1,37.18v-20.4c0-.07,27.16,24.79,36.87,31.33,9.7,6.34,48.5,26.46,64,37.65s46.57,39.75,46.57,39.76,27.17-19.19,46.57-21.25,44.62-6.16,56.27-10.09,42.68-21.45,42.68-21.51v26.68s21.35-16.54,27.17-29.74,7.76-38,7.76-38-15.53,6.89-29.11,9.11S707.9,531.82,707.9,531.75Z" style="fill: #fec500"/>
    <path d="M759.73,523.55c-13.41,2.33-52,7.11-52.36,7.08l-3.87.46q16.18,6.61,32.37,13c-9.93,4.29-50.37,20.61-65.41,22.71-12.62,1.84-36.71-.41-47.29-8.14-3.42-2.5-5.09-5.28-5.09-8.51,0-15.52,1.92-197.07,1.94-198.9v-1.1q-11.07-2.42-22.16-4.81c0,.36,0,.72,0,1.08,0,1.72-1.94,172.38-1.94,184.79,0,8.62,0,20.42-6.37,23.1-2.35,1-5.43.7-9.41-.86-3.31-1.3-6.74-2.51-10.36-3.78-15.17-5.3-34-11.87-59-30.44-21.64-16.06-28-22.09-29.78-24.23q16.15-1.62,32.32-2.91l-5-1.75c-.29-.13-29-10.16-48-23.74-19.16-13.84-34.73-25.21-34.89-25.33l-2-1.5c-.06.68-.12,1.35-.17,2-.08,1-1.85,23.76,7.88,42.34s29.18,37.3,29.38,37.52l2.36,2.28V503.41c6.83,6.09,26.62,23.93,34.77,29.39,4.16,2.77,13.39,7.82,24.07,13.77,14.55,8.1,31,17.49,39.93,23.84C576.88,581.26,607.71,609.72,608,610l1.05,1,.92-.65c.27-.2,27.17-19.05,46-21.07s44.44-6.06,56.52-10.15c9.87-3.27,33.05-16,40.53-20.28V586l2.44-1.88c.88-.65,21.58-16.84,27.42-30.08s7.74-37.2,7.82-38.22c.07-.79.13-1.58.19-2.36l-2.4,1.06C788.39,514.61,773,521.38,759.73,523.55Zm20.58,29.38c-4.51,10.2-18.72,22.72-24.47,27.44V554.24l-2.33,1.34c-.31.24-31.1,17.67-42.51,21.42-11.92,4-37.39,8-56,10-17.71,1.89-41.19,17.37-46.18,20.8-5.55-5.11-31.86-29.1-45.69-39-9-6.46-25.63-15.91-40.27-24.07-10.6-5.91-19.76-10.93-23.79-13.61-9.46-6.39-36.36-31-36.63-31.18l-2.33-2.11v20.17c-5.44-5.62-19-20.15-26.46-34.47-7.8-14.91-7.95-33.16-7.75-39.23,4.9,3.56,17.76,12.92,32.85,23.79,14.93,10.73,35.18,19,44.29,22.5q-12.73,1.11-25.47,2.4v.79c0,2.37,11.53,12,31.64,26.9,25.46,18.93,44.66,25.62,60.1,31,3.59,1.26,7,2.45,10.23,3.72,4.79,1.88,8.74,2.2,11.74.94,7.41-3.11,7.41-15,7.41-24.58,0-11.89,1.76-169,1.93-183.69l16.64,3.61c-.16,15.3-1.93,182.93-1.93,197.82,0,4,2.14,7.55,6.36,10.63,11.8,8.62,37,10.74,49.92,8.86,17.41-2.39,66.12-22.81,68.19-23.84l2.21-1q-14.87-5.84-29.71-11.87c10.18-1.19,37.64-4.78,48.54-6.66,10.55-1.73,22-6.13,27-8.17C787.15,524,785,542.4,780.31,552.93Z" style="fill: #fec500"/>
    <path d="M601.18,336.19l13.58,2.95V292.05l-13.58-2.95Z" style="fill: #fec500"/>
    <path d="M599.8,337q8.18,1.75,16.34,3.54V291.25l-16.34-3.54Zm2.76-46.49,10.82,2.35v44.89l-10.82-2.35Z" style="fill: #fec500"/>
    <path d="M504.17,316.46h0q-1,7.67-1.94,15.34c0-.21,58.21,20.42,98.95,29.5s110.6,16.08,110.6,15.86V359.9c0,.12-52.39-20.32-102.84-31.45S504.17,316.3,504.17,316.46Z" style="fill: #fec500"/>
    <path d="M608.94,327.36c-50-11.11-104.52-12.18-105.07-12h-1l-2.16,17.07,1.22.42c.58,0,58.81,20.57,99.23,29.58s110.09,16,110.79,15.89l1.19.1V359.3l-1.08-.41C711.56,358.82,659,338.39,608.94,327.36ZM710.4,375.93c-9.38-.72-71.93-7.55-109.22-15.72-36.9-8.17-88.87-26.28-97.46-29q.87-6.79,1.72-13.59c7.57,0,57.47,1.76,103.5,11.95,45.76,10.06,93.73,28.16,101.46,30.95Z" style="fill: #fff"/>
    <path d="M608,311c-11.25-2.45-20.37,4-20.37,14.44s9.12,20.78,20.37,23.23,20.37-4,20.37-14.4S619.22,313.42,608,311Z" style="fill: #fec500;fill-rule: evenodd"/>
    <path d="M607,302.92c-17.14-3.72-31,4.93-31,19.23s13.9,28.84,31,32.57,31-4.83,31-19.14S624.15,306.64,607,302.92Zm1,45.73c-11.25-2.45-20.37-12.83-20.37-23.23S596.72,308.54,608,311s20.37,12.87,20.37,23.27S619.22,351.09,608,348.65Z" style="fill: #fec500;fill-rule: evenodd"/>
    <path d="M608,309.88c-12-2.6-21.75,4.25-21.75,15.24s9.76,22,21.75,24.62,21.75-4.2,21.75-15.19S620,312.49,608,309.88Zm0,37.67c-10.47-2.27-19-12.06-19-21.84s8.52-15.91,19-13.64,19,12.1,19,21.88S618.44,349.83,608,347.55Z" style="fill: #fff"/>
    <path d="M607,301.83c-17.88-3.89-32.42,5.15-32.42,20s14.54,30.06,32.42,33.95,32.43-5,32.43-19.93S624.88,305.71,607,301.83Zm0,51.79c-16.36-3.55-29.66-17.5-29.66-31.17s13.3-22,29.66-18.43,29.67,17.59,29.67,31.26S623.36,357.17,607,353.62Z" style="fill: #fff"/>
    <path d="M786.58,666.44s-25.77,14.43-51,12.16-64.92-1.27-64.92-1.28-1,28.57.19,31.33,2,3.59,5.64,4.46c11.75,2.83,40.38,9,71.51,9.1,40.72.3,80.65-13.81,80.65-13.88-9.31-4.21-31.83-10.21-46.36-15.56Q784.43,679.6,786.58,666.44Z" style="fill: #003271"/>
    <path d="M829,707.7c-5.94-2.71-17.23-6.08-28.14-9.52-6.07-1.9-12.34-3.92-17.56-5.8q2.1-12.84,4.18-25.7a.84.84,0,0,0-.48-.82,1.1,1.1,0,0,0-1-.07c-.25.17-25.84,14.29-50.49,12.06-25-2.13-64.67-1.28-65.06-1.29s-.65.23-.66.54c-.11,2.94-1,28.8.25,31.64,1.35,3,2.42,4.11,6.47,5.1,2.22.53,5.18,1.22,8.75,2,14.15,3,37.82,7.08,63,7.15,40.39.3,80.52-13.73,80.92-14a.59.59,0,0,0,.43-.62A.89.89,0,0,0,829,707.7ZM747.8,721.46c-31.3-.1-60.28-6.42-71.27-9.07-3.21-.78-3.71-1.33-4.81-3.82-.84-1.87-.54-19.48-.15-30.51,5.21-.07,41-.68,64.14,1.29,21.36,1.91,43.29-8.08,49.66-11.31l-4,24.49a.93.93,0,0,0,.7.91c5.41,2,12,4.11,18.43,6.12,9.81,3.09,19.93,6.13,26,8.63C818.64,710.9,783.31,721.7,747.8,721.46Z" style="fill: #fff"/>
    <path d="M670.86,708.65q12.42-3.58,24.84-7.23C684.19,702.53,670.56,703.53,670.86,708.65Z" style="fill: #003271"/>
    <path d="M695.7,701.42c9-.86,16.63-1.78,15.41-4.58Q703.42,699.15,695.7,701.42Z" style="fill: #003271"/>
    <path d="M710.25,696.92c1,2.2-8.6,3.16-16.28,3.88-12,1.14-24.35,2.24-24,7.69l1.84.33c-.26-4.39,12.56-5.54,22.85-6.52,10.58-1,18.94-1.86,17.34-5.54Z" style="fill: #fff"/>
    <path d="M478.42,625.89c-25.22-7-51-29-51-29l4.29,27.61c-14.54.86-37.06,1.14-46.36,3.43,0-.08,39.93,22.9,80.65,37.13a481.34,481.34,0,0,0,71.51,18.36c3.62.62,4.4.13,5.63-2.12s.2-31.26.2-31.26S503.64,632.68,478.42,625.89Z" style="fill: #003271"/>
    <path d="M543.61,649.42c-.4-.22-40.07-17.5-65.07-24.23-24.63-6.83-50.23-28.54-50.49-28.73a1.17,1.17,0,0,0-1-.24.61.61,0,0,0-.49.68q2.09,13.46,4.18,26.94c-5.22.32-11.48.53-17.56.8-10.91.47-22.2,1.19-28.13,2.61a.7.7,0,0,0-.57.57.77.77,0,0,0,.44.72c.4.14,40.52,23.11,80.92,37.23a487.75,487.75,0,0,0,63,16.8c3.56.7,6.52,1.23,8.75,1.61,4.05.7,5.11,0,6.46-2.41s.36-28.55.26-31.54A1,1,0,0,0,543.61,649.42Zm-1.31,31.47c-1.11,2-1.61,2.37-4.82,1.82a480.49,480.49,0,0,1-71.27-18.29c-35.5-12.39-70.84-31.83-78.74-36.13,6.11-1.14,16.22-1.76,26-2.18,6.4-.28,13-.5,18.43-.84.45,0,.75-.34.69-.71q-2-12.84-4-25.68c6.36,5.06,28.29,21.82,49.65,27.72,23.12,6.23,58.94,21.53,64.15,23.84C542.84,661.63,543.14,679.36,542.3,680.89Z" style="fill: #fff"/>
    <path d="M518.32,664q-7.71-5.36-15.42-10.65C501.69,655.64,509.36,659.5,518.32,664Z" style="fill: #003271"/>
    <path d="M518.32,664q12.42,8.61,24.84,17.38C543.45,676.32,529.82,669.64,518.32,664Z" style="fill: #003271"/>
    <path d="M520,664c-7.68-3.82-17.23-8.47-16.28-10.3l-1.72-.83c-1.6,3.08,6.76,7.12,17.34,12.37,10.3,5.09,23.11,11.56,22.86,15.85l1.83.44C544.39,676.22,532,670,520,664Z" style="fill: #fff"/>
    <path d="M703.64,645.12c-16.74,2.42-59.88,4.81-96.63-3.23s-79.9-28.58-96.64-37.39c-4.75-2.54-7.47-1.08-7.47-1.08V653.3s2.61-1.84,7.1.1c17.83,7.6,64.49,28.09,97,35.26s79.18,6.33,97,5.51a9.58,9.58,0,0,1,7.1,2.67V647A9.5,9.5,0,0,0,703.64,645.12Z" style="fill: #003271"/>
    <path d="M703.27,644.37c-17.47,2.52-60.08,4.69-96.26-3.21s-78.79-28-96.27-37.27c-5.23-2.79-8.33-1.19-8.46-1.13a.55.55,0,0,0-.3.49v49.89a1,1,0,0,0,.59.79,1.08,1.08,0,0,0,1,0s2.25-1.55,6.14.13C533,664,576.52,682.7,607,689.39s74,6.55,97.28,5.54a8.23,8.23,0,0,1,6.14,2.26,1.27,1.27,0,0,0,1,.4.59.59,0,0,0,.6-.56V647.14a.84.84,0,0,0-.31-.6A10.68,10.68,0,0,0,703.27,644.37Zm6.93,50.82a10.94,10.94,0,0,0-6.46-1.77c-23.14,1-66.48,1.1-96.73-5.49s-73.59-25.23-96.74-35.17a12.45,12.45,0,0,0-2.67-.84,8.67,8.67,0,0,0-3.78.09V604c.76-.24,2.89-.62,6.19,1.13,17.59,9.27,60.52,29.52,97,37.53s79.4,5.78,97,3.24a8.64,8.64,0,0,1,6.19,1.28Z" style="fill: #fff"/>
    <path d="M542.19,640.4q-7.82-2.07-15.61-4.08V625.49l-10.86-4.06q-.35,13.47-.68,26.94l10.86,5V642.58q8.15,1.83,16.29,3.72-.35,6.33-.68,12.66l10.86,3.68q.33-14.21.68-28.4l-9.51-2.43Z" style="fill: #fec500"/>
    <path d="M678.62,682.87c.22-2.42.45-4.83.67-7.24q8.84.39,17.65.76c.23-2.41.45-4.82.68-7.24q-9.17.55-18.33,1.06v-6.39q9.51-.2,19-.43V656.5q-14.59.16-29.19.22.35,15.57.68,31.15h0q14.6-.55,29.19-1.21c-.23-1.69-.45-3.38-.68-5.06Q688.46,682.26,678.62,682.87Z" style="fill: #fec500"/>
    <path d="M587,643.34c-8.14-1.75-18.32,3.49-18.32,12.35s5.41,18.12,19,20.77c12.2,2.38,18.33-2,18.33-13.28C606,652.35,595.13,645.08,587,643.34Zm10.18,19.41c-.67,3.3-2,8.91-8.82,8s-9.5-5.48-10.18-13c0,0-.68-10.49,8.82-8.46S597.84,659.45,597.16,662.75Z" style="fill: #fec500"/>
    <path d="M638.57,656l-16.29-2.56q.68,15.4,1.36,30.81l9.5,1.58q.35-6.33.68-12.65L644,674.41c10.77,1.3,11.54-2.91,12.22-7.68S646,657.18,638.57,656Zm-5.43,11.12v-7.38c2,.94,14.25,1.14,14.25,6.06S633.14,667.13,633.14,667.12Z" style="fill: #fec500"/>
    <path d="M626.47,184.62q-9.74-20.7-19.46-41.38-9.74,16.45-19.46,32.95-25.26-3.81-50.52-7.28,19.25,16.92,38.49,34.1l-11.76,36.67q21.63-6,43.25-11.74,21.62,15.17,43.24,30.39-5.87-20.85-11.75-41.7,19.25-8.9,38.48-17.85Q651.72,191.78,626.47,184.62Z" style="fill: #fec500"/>
    <path d="M816.44,225.19q-19.49,10.08-39,19.58-23.31-11.86-46.61-24.37,9.38,20.52,18.76,41-16.67,12-33.32,23.82,25.29,3.8,50.57,7,13,19.57,26,38.93,6.24-18.5,12.49-37.05c16.47-.5,32.94-1.31,49.4-2.53q-21.42-13.05-42.84-26.95Q814.18,244.9,816.44,225.19Z" style="fill: #fec500"/>
    <path d="M928.33,357q-16-16-32-32.6Q893.66,344.2,891,364q-23.62,5.63-47.25,10.06,23.16,10.92,46.31,20.76,1.41,20.19,2.83,40.37,16.94-13.82,33.89-28.31,24.5,5.79,49,9.93Q963.13,400,950.44,382.61q13.72-17,27.45-34.51C961.37,351.65,944.85,354.57,928.33,357Z" style="fill: #fec500"/>
    <path d="M1005.58,495.5q-5.05-19.26-10.11-38.6-14,17.76-28.08,34.91c-16.79-1-33.57-2.65-50.36-4.82q15.72,16.39,31.44,32.14-10.5,18.33-21,36.36,23.76-6.37,47.52-14.31,18.67,12.83,37.36,24.56l-2.07-40q22.07-12,44.11-25.75Q1030,498.8,1005.58,495.5Z" style="fill: #fec500"/>
    <path d="M1005.66,610.1q-22.24,11.63-44.48,21.69-21-10.86-41.92-22.95,4.68,19.93,9.37,39.82-20,11.87-40,22.71,25.13,4.41,50.26,7.28,8.6,19,17.18,37.83,10.85-18.32,21.7-37,25.32-1.77,50.65-5.59-18.42-11.46-36.85-24.07Q998.6,630,1005.66,610.1Z" style="fill: #fec500"/>
    <path d="M873.84,750.1Q861.9,731.31,850,712.21q-7.43,18.39-14.86,36.69c-16.63.25-33.26.13-49.89-.27Q806,763.63,826.7,778q-3.47,19.46-6.94,38.9,20.25-9.27,40.49-19.26,22.8,11.13,45.6,21.13-8.24-19.46-16.46-39.07,17.57-13.24,35.12-27.21C907.62,752.2,890.73,751.38,873.84,750.1Z" style="fill: #fec500"/>
    <path d="M725,762.68Q707.16,773.44,689.33,784,665.17,772.81,641,761.42l23.22,40.8q-14.75,13.18-29.48,26.32,25,2.22,50,4.32,15,19.36,30.1,38.61,3.84-19.11,7.69-38.22,24-1.56,48.08-3.68Q748,816.57,725.37,803,725.19,782.83,725,762.68Z" style="fill: #fec500"/>
    <path d="M483.16,169.42q-23.3,3.9-46.61,8.58-19.49-15.52-39-30.36,2.25,20.27,4.51,40.54-21.42,8.49-42.85,17.95,24.7,5.94,49.4,13.22,6.25,20.19,12.5,40.46,13-15.66,26-31,25.27,5,50.57,10.89-16.67-18.16-33.32-36Q473.79,186.5,483.16,169.42Z" style="fill: #fec500"/>
    <path d="M317.72,234q-16,15.5-32,31.71c-16.52-2.13-33.05-3.65-49.57-4.47q13.73,15.27,27.46,31.16-12.69,18.36-25.37,37.24,24.51-8,49-14,16.94,14.31,33.89,29.46L323.92,305q23.16-7.84,46.31-14.33-23.62-9-47.25-16.58Q320.36,254,317.72,234Z" style="fill: #fec500"/>
    <path d="M246.63,403.37q-14-15.3-28.09-29.95-5.06,20.47-10.11,41Q184,424,159.64,435.83q22.05,4.1,44.1,10.12l-2.07,40.57q18.69-17,37.37-32.69,23.76,4.28,47.51,10.38-10.5-17.9-21-35.46,15.72-16.9,31.44-33Q271.81,398.59,246.63,403.37Z" style="fill: #fec500"/>
    <path d="M294.75,517.54q-21,11.87-41.92,25.06Q230.6,535,208.36,529.07q7.06,18.13,14.12,36.43Q204.06,582,185.64,599.65q25.32-4.73,50.65-7.07,10.85,16.89,21.7,34.17,8.58-19.65,17.17-39,25.14-4,50.26-6.1-20-12.66-40-24.2Q290.07,537.44,294.75,517.54Z" style="fill: #fec500"/>
    <path d="M378.91,667.15q-7.43-19.83-14.85-39.54-11.94,17-23.89,34.29c-16.89-.82-33.78-1.1-50.67-.74q17.56,13.89,35.13,28.67-8.24,18.92-16.46,38,22.79-9,45.59-16.51,20.25,13.16,40.5,27.23-3.48-20.26-6.95-40.5,20.74-9.69,41.49-18.52C412.17,675,395.54,670.85,378.91,667.15Z" style="fill: #fec500"/>
    <path d="M573,746.72q-24.15,1-48.31,2.32Q506.85,731.3,489,713.87q-.19,20.08-.38,40.17-22.63,5.1-45.26,10.89,24,9.78,48.08,20.42,3.85,20.56,7.7,41.14,15-13.46,30.09-26.69,25,8.15,50,16.74-14.74-19.5-29.48-38.88Q561.4,762.15,573,746.72Z" style="fill: #fec500"/>
  </g>
</svg>
