<svg xmlns="http://www.w3.org/2000/svg" viewBox="0 0 1260 1012.04">
  <g>
    <path d="M0,90.08v920C420,738.76,840,1193.28,1260,922V2C840,273.28,420-181.24,0,90.08Z" style="fill: #036"/>
    <path d="M144.29,110.22c43.16-21,77.6-1.79,94,29.86,16.39,32,14.75,76.44-14.27,114.07-28,34.88-67.61,49.26-99.67,45.6-32.07-4.16-56.62-26.36-54.6-76.55C52,297.79,78.82,339.84,122.26,356.28c43.44,15.61,103.48,5.6,152.13-42.94,51-59.81,48.07-129.35,17.57-176.4C261.46,90.43,203.42,66.4,144.29,110.22Z" style="fill: #fff;fill-rule: evenodd"/>
    <path d="M713.67,834.67c-6.18-4.07-12.71-7.65-19.47-8.92-7.3-2.25-14.77-3.51-22-6.22-3.08-3.11-2.57-.81-2,0-4.3,5.84-12,2.87-18.5,2.73-9.1-1-18.28-2-26.9-.37-6-.45-11.22-7.35-15.53-12.29-1.9-3.29-2.79-7.26-4.24-10.82-12.48-2.33-25-5.46-37.47-7.6-5.38,2.63-11.61,3.81-15.82,8.39-3.19,4.25,5.35,10.2,9.74,10,2.22,2.07,10.12.58,8.78,4.85-2.07,6.13-8.82,5.87-13.27,8.92-2.74,5.68,3.77,14.78,8.67,9.85,2.9-2.41,5.41-2.23,7.46,1.93,3.4,3.63-2.38,10.27,5.07,11.42,4.86-1.65,9.2-5.41,13.76-8,3-3.59,7.94-7.25,9.86,1.18,4.45,5.13,10,5.31,15.35,6.08,6.53,1.18,13.72,1.79,17.48-4.13,6.1-1.87,11.92,5.92,15,11.83,4.12,3.86,11,5.74,8.89-2.23-1.61-5.26-.21-10.16,5.18-5.83,5.91,2.51,10.49,8.4,16.16,11.32-.34-4.8-.4-13.7,5.58-6.39,5,5.07,10.31,10.05,16.41,13.09.22-2.75-.45-5.94.37-8.38,3.92-3.6,11.76,10.94,10,.73.82-3.22-3.42-11.57.9-10.18a98.35,98.35,0,0,0,18.6,9.61C727.58,846.81,720.06,841.11,713.67,834.67Z" style="fill: #fff;fill-rule: evenodd"/>
    <path d="M790.46,391.14c-.92.81-.27.73,0,0Z" style="fill: #fff;fill-rule: evenodd"/>
    <path d="M623.82,618.51c3.54-.91,6.2-3.38.49-4.57-1.27-.51-2.55-1-3.82-1.48C620.4,616.42,619,622.44,623.82,618.51Z" style="fill: #fff;fill-rule: evenodd"/>
    <path d="M625,566.5c4.14-1.87-.43-2.75-2.7-4.87C622,565.8,621.27,571,625,566.5Z" style="fill: #fff;fill-rule: evenodd"/>
    <path d="M653,505.75c-.88,2.69-9.34,9.5-3.08,5.39,3.23-1.44,3.69.05,3.11-4.82l0-.41A.86.86,0,0,0,653,505.75Z" style="fill: #fff;fill-rule: evenodd"/>
    <path d="M852.18,407.54a111.82,111.82,0,0,1-20.76-8.6c-14.11-2.21-28.27-4.17-42.33-7.38-4.56-1.07-10,2.54-15.23,1.32-8.09-.51-16.35-2.74-24.2-1.47-3,2-7.23-2.5-2.38-2.24a62.5,62.5,0,0,1,18.48.53c6.4.92,12.83,1.5,18.76-.39,3.63-2.09,4.44,2.62,5.15-2.27,3.33-.83,14,1.81,11.47-2.43-13.14-1.54-26.29-3.58-39.43-5.69-4.73-1.36-10.76.72-15.43,2.3-5.49,1.39-1-3.83,2.43-3.36,5.82-2.69,13-.43,18.71-3.54,8.83-2.94,17.13-7.24,25.74-10.82,2.23-1.8,8.45-4.21,1.87-5.94-5.16-2.13-10.69.22-16-.62-7.06.16,0-5.36,2.66-6.22a236.29,236.29,0,0,0,24.19-11.23c2.5-1.71,9.88-2.06,7.51-5.9-6.69,1.48-13.3,4-20.14,4.92-2.31.24-12.81-.08-7.63-3.7,10.08-5.62,20-11.64,30-17.63,3.33-4.42.92-4.88-3.07-3.47-4.63.87-8.07,4.49-12.38,6.24-1.48,2.61-9.77,3.7-5.37-.52,4.46-3.54,8.82-7.26,13.48-10.56,2.35-3.24,4.77-11.43-1.63-8.35-4.12,1.76-9.42,1.29-12.29,5.22-5.07,5-10.24,9.85-15.26,14.8-3.66-4.38,5.82-6.93,7-10.73,4.11-4.49,8.45-8.81,12.15-13.76.78-4.41,1-7.56-3.24-5.07l-6.12,1.9c.62,4.78-8.44,8.16-11.31,12.29-4.86,3.72-11.47,4.46-15.75,9.1-3.42-4.61,6-5.95,8.4-7.88,6.84-2.45,11.47-8.53,17-13.15-6,.35-13-1.12-16.49,4.84-9.12,7.89-18,16.1-27.32,23.54-11.38,6.48-22.94,12.65-34.62,18.33-5.34,1.27-12.93-2.25-15.46,4.27-4.46,5.94-9.75,11-14.72,16.34,5.34-.15,10.42,2.26,15.25,5.86,4.64,2.75,8.58,7.08,13,10.19-1,4.63-7.08,7.05-11.88,5.15-3-.72-5.73-3.52-8.62-5.08.29-3.75,3.23-.06,5.2.89,3.86,3.11,9.1,3.3,12,.14-1.48-3.65-9.37-8.66-13.94-11.49-4.15-3.61-8.91-2.73-13.41-3.64-5.33.19,1.48-3.52,2.27-5.37A184.26,184.26,0,0,0,695,338.05c-.37-5.94,5.56-8.85,7.54-13.85,5.81-8.18,8.81-18.63,13.27-27.92,1.9-3.87.92-9,1.41-13.54-.14-2.53.67-5.09-.13-7.59-4.14,7.5-8.39,15-12.37,22.54-4.89-.7-.5-8.29.91-10.21,3.76-7.55,8-14.88,11.53-22.56l.3-10.48c-3.17-3.66-4.77,6.32-7.28,8.21-5.51,8.93-10.6,18.25-16.34,26.91-.56,3.22-6.65,4.36-4.21.15,8.21-14.81,16.63-29.54,25.05-44.19,3.38-5.89,2.3-13.78,2.78-20.89-3.24-6.27-5.51,1.91-8.1,3.61-3.33,3.84-4.55,9.52-7.1,14.07-4.15,9-8.44,17.9-12.65,26.82-4.71-3.11,2.71-9.25,2.78-13.57q6-15.87,12.07-31.79c-2-5-6.53,6.17-8.67,8.51-3.83,8.58-8.28,16.71-12.52,25-4.54-3.13,2.76-9.21,2.56-13.41,2.2-6.48,5.09-12.75,7.21-19.15-.32-2.65,3-8.67.06-9.42-4.53,1.35-7.88,7.35-9.79,12.24-4.53,13.82-9.19,27.57-13.75,41.35-2.38,6.12-4.67,12.38-7.07,18.44-4.39-1.6,1.74-8.5,1.4-12.09,1.45-6.91,4.68-13.28,5-20.59-1.11-5.76.11-12.66-2.39-17.69-3.74,8.63-8.47,16.65-11.68,25.61-2.42,11.05-5.66,21.72-7,33.25A95.41,95.41,0,0,1,644.16,313c-4.47-1.43-3.29-9.81-5.92-13.94-2.38-8.83-7.19-17.08-10.67-25.64-1.77-2.32-5.85-16.8-5.78-9.21-.4,5.39-.74,10.79-1.2,16.16q-14.91-33.78-29.86-67.49c.81,6.78,0,13.73,2.17,20.44,4.82,12.43,9.24,25,13.85,37.49-2.43,2-2.92-2.27-4.13-4.22Q588.82,237,575,207.37c-3.71,2.07-1.12,7.88-1.6,11.9,1.51,6.1,5,12,7.39,18,4.35,9.84,8.82,19.68,13.29,29.46-3.2,3.18-4.94-8.14-7.24-11.1-8.31-17.58-16.54-35.18-25.1-52.6-3.75.64-4.91,3.41-4.28,7.52-.62,3.87.89,7.57,3,11.21q9.66,20.3,19.42,40.6c-2.2,2.33-2.87-1.9-4.15-3.8q-15.66-30.45-31.32-60.76c-2.54-1.77-6.13-5.83-5.32-.12-1.2,6.69,5.68,12.93,7.93,19.39,9.29,17.62,18.85,35.43,28.1,53-1.94,2.45-2.82-1.39-4.07-3.22q-8.8-15.51-17.6-31c-2.19-1.08-5-3.21-4.18.85-.14,2.44-.74,4.93,1.17,7.18,9.38,17.34,18.95,34.69,28.22,52.13,3,7.38,5.75,14.91,8.92,22.2l16.08,21.59c-3.85,2.56-7.74-9.05-11.57-11.82-4.06-5.88-9.52-11-11.81-17.93-2.78-5.36-4.38-11.39-8.67-15.78-4.76-4.91-8.42-12.79-13.93-15.7-1.78,3.94-.33,13.92,5,18.36.53,1.71,8,8.81,3.91,6.81-8.06-2.65-15.64-7.3-23.19-11.88-4.57,3.87,10.9,10.85,2.22,11-6.28-1.17-11.12-8.37-16.86-11.81-14.31-11.37-29-22-43.59-32.37l-9.11-4.55c-.84,5.65,7.44,8.68,10.19,13.27,11.09,8.48,22.46,16.79,33.58,25.51-.36,3.59-3.38.25-5.39-.49-20.81-11.27-41.62-22.21-62.42-32.66-3.5-1.43-2.89.67-1.47,3.46.34,3,3.05,3.59,5.17,4.78,16.33,8.48,32.65,17.32,49,26.29.64,2.94,1.18,5.89,1.74,8.84-3.71-4-7.37-8.54-12.45-9.81-10.64-4.77-21.6-4.17-32.39-5.73-5.75-2.4-6.5,2.58-.77,4.55,4.61,4.63,10.55,3.39,15.9,4.59q13.07,1.75,26.12,3.65c1.54,5.71-8.5.25-8.88,4.61-1,5.05,8,6.67,11.28,6.21,5,1,8.43-6.42,12.66-4.24-1.1,5-9.42,4.56-10.36,9.76-.62,5.25,9.39,5.54,12.27,3.81,3.34-2.4,9.1-5.87,9.4,2.34,1,7.54,9.86,6.45,14.7,9.92,8.61,3.18,17.43,5.6,26,8.94q12.26,8.67,24.51,17.39c-1.67,4.7-8.86-4.52-12.58-5-6.16-3.2-11.84-8.23-18.39-9.67a55.26,55.26,0,0,0-17-3.79c-17.21-1.92-34.47-4-51.66-5.28-16,.11-32.05.31-48.05.89-4.07.78-12.9,2.17-4.44,5.15,18.17,1.63,36.3,2.93,54.44,4.68,1.31,3.71-2.59,1.82-4.54,2-15.08-1-30.17-1.77-45.25-2.28-4.64,3.08-10.84,4.3-13.37,10.11.73,8.85,10.74,2.22,15.7,3.54,13.05-.48,26.05-.64,38.63-2.86,3.75,1,13.12-4.68,13.69.7-14.23,2.22-28.49,4.66-42.84,6.8-3.06.31-6.11.63-9.17,1-.89,7.9,10.22,4.87,14.75,6.88,10-1,19.45-3.77,29.29-5.08,5.24.46,13.2-4.82,17-1.34-3.38,3.14-11.23,3.69-16.13,5.95-10.13,3.05-20.4,5.77-30.27,9.72-6.5,6.18,6.91,7.63,10.2,4.46,10.54-3.55,21-7.31,31.34-11.1,2.55,2.78-1.19,3.19-2.52,4.53-5.88,4-11.62,8.16-18.19,11-2.54,1.79-6.69,1.87-7.19,5.89,5.76,4.56,11.27,1.16,16.44-.75q20.25-10.75,40.9-20.34c6-1.74,12-3,18.08-4.46,2.33,3-1.48,3-2.93,4.22-6.63,3.51-13.29,7-19.9,10.58-7.24,6.78-13.79,14.53-22.33,19.59-4,2.91-8.05,5.46-11.2,8.92-6.25,5.75-12.71,11.27-18.9,17.17-1.93,6.69-6.05,12.61-5.59,20.21.08,8.11-.77,16.16-.07,24.32.76,3.47,2.52,11.39,3.12,3.86.33-3.42,2.53-15.08,4.89-6.24,1.29,3.37,2.57,13.09,4.1,11.71,2.25-4.49,2.67-11.27,6.28-14.33,3.23,2.63,5.78,8.16,8.85,2.87,3.89-4.26,3.32-11.84,5.26-17.53q2.51-11.32,5-22.62c3-.4,2.33,3.52,3.09,5.74q1.47,7.53,2.93,15.07c6.67-1.89,4-12.28,6.1-18.11.42-4.6,1.78-16.67,6.37-6.36,2.7,7.6,10.17.92,9.94-4.27,1.53-7.85,3-15.74,4.55-23.57,2,4.31,4.08,8.58,6.13,12.87,7,1.07,9.35-6.08,13.87-9.67,4.06-3.77,7.68-8.36,12.18-11.42,5.14-1.81,10-4.66,15.23-6,5.15,6.33-2.63,11.69-5.55,15.54-6.54,7.45-14.6,13-21.43,20.15-2.7,2.85-6.93,4.84-5.79,10.16,3.43,2.38,7,4.65,10.46,7.07-5.22,1.77-10.83,3.07-15.64,5.55-4.67,3.47-9.7,6.37-14.59,9.5-1.32,3.62-2.17,7.84,3.08,7.27,3.74.05,13.84,3.86,5.91,6.29-7.46,3.82-16.09,5.44-23.47,9.29-2,2.6-7.53,6.24-.85,7.31,4.47.15,11.15-6,14.47-1.55-4.7,4.75-10.78,9-15.91,13.72-2.62,1.71-8.42,6.78-5,9.16,8.13-2.71,13.85-9.6,20.78-14.32,2.43-3.76,9-6.21,6.89,1.64-8,9.35-15.82,19.1-24.1,28.19.83,10.89,7.13-1.7,10.24-4,4.84-5.31,9.33-11.12,15.66-14.41,2.2-.08,8-7.93,8.29-4.17-.14,3,.72,6.64-1.66,8.55-5,6.36-8.35,14.13-12.45,21.3-.67,3.31-1.37,13.08,3.17,9.32,5.42-10,12-19,16.29-29.79,4.37-9.14,7.32-19.31,11-28.84,3.08-4.39,4.59-2.36,4.16,2.81.49,5,.31,15.45,3.39,16.85,5.62-12.86,12.67-24.64,18.65-37.19,2.07-6.3,4.53-12.4,7.09-18.42,3.23.33,1.75,3.84,2.06,6.14-.21,4.42.44,9.18-.31,13.39-3.48,10.19-6.09,20.9-10.94,30.21-2.94,6-7.1,11.14-9.94,17.23-2.85,3.46-1.79,3.71,1.42,2,5.68-1.64,9.49-6.15,13.43-10.38,6.19-4.1,1.59,7.27.17,9.59-3.37,9.73-5.55,20.23-9.36,29.74,0,3.12-1,10.11,2.6,5.38,6.83-4.38,9.32-13.22,13.41-20.33,2.48,4.51,7.14,7.81,9.4,3.41-.38-6.26-3-13.23-.44-18.66a246.07,246.07,0,0,0,6-28.82c.68-6,1.06-12.18,1.76-18.17,3.14-1.09,1.81,4.07,2.06,6.2v14.1c3.07,1,8.71-3.69,10.31.57-3.1,2.23-7.83,3-10.64,5.55q-.18,5.86-.35,11.74l11.46-5.14c2.72,2.68-.88,3.34-2.11,4.8l-9.41,7.56c0,2.77-.1,5.53-.16,8.3,2.66-.33,5.34-.6,8-1,2.18,3.19-1.58,3-3.14,4.06-1.76,1.41-5.72.86-5.15,4.36q-.3,12.64-.8,25.26c1.4-2.73,6.33-9,5.61-9.52-1.61,3.11-7.5,2.06-3.49-.67,1.66-1.86,10.74-6.95,7.53-.58-3.12,4.25-5.83,10.23-9.11,13.57-.94-.31-2.06,6.7.77,5.89,2.35,2.26,9.59,4.63,4.59,6.59-2.14,1.88-4.82,3.39-6.64,5.51.15,7.13-1.48,18.6-.21,23,1.91-2.52,8.2-6.46,6.88-8.14-2.65.81-10.74-1.62-5.08-2.64,3.45-.68,13.08,1,6.92,5.62-3.28,5.69-11.08,6-9.61,13.32,0,5.18-1.9,7.91,3.87,8.22,6.61.81,7.07,8,1.11,8.59-4.09,1.73-7.67.78-5.2,7.26,1.28,4.19,10.09,8.75,7.88,12.31-.33-4.63-1.27,1.49-3.55-3.59-2.8-3.06-6.42-9.67-5.23-1.69q-.78,22-1.58,43.89c2.78-.32,7.7,5,7.75,7-2.86,2.28-9.7-11.91-7.92-1.46.09,4.55-1,12.69-.15,15,1.38-1,3.56,3.14,5.26,4.13l5.79,5.65c-1.07,3.36-3.33-.83-5.14-2.18l-6.38-6.23c.5,6.1-1.91,16.61.29,20.19,2.52,2.57,9.08,9.83,8.92,13.06-3.25.24-7.94-11.4-10-11.24-.31,8.88-.6,17.77-.92,26.65,3.42,2,10.32,8.36,12.12,11.82-3.08,2.18-9.58-9.85-12.25-9.08-.48,7.12-.09,14.59-1,21.53-1.25,4.92,11.81,6.49,9,11.18-4.82-2.79-11.51-11.8-11.55-2-1,7.56-7.49,14.1-2.46,22.56,1.94,6.4,8.14,10.3,12.79,14.36,5.49.25,10.76-1.57,16.47-.56,8.43.4,17,1.75,25.39,2.08,3.55-2.07,7.94-3.8,2.6-8.58-4.26-6.64-3.25-14.58-5.72-21.62,0-5.29-1-7.8-5.25-4.9-3.33,0-8.5,6.65-10.39,1.39,5-1.55,9.49-4,14.53-5.47-.59-7.05-1.82-14.2-1.69-21.14-4,1.95-9.86,6.52-13.69,4.88,1.56-3.56,9.18-3.62,12.42-7,2.36.47.82-3.52,1.22-5.6q-.07-9.06-.16-18.14c-3.69,3.77-8.11,6.06-13.69,5.83-4.15-4.88,6.34-1.16,7.7-4.26,2.51-2.56,7.15-3.49,5.9-8.62l-.12-16c-3.25,1.66-9.2,8.83-12.33,4.64,3.39-2.57,10.73-4.14,12.26-8.76q-.09-10.41-.2-20.83a19,19,0,0,1-13.92,7.22c-2.78,2.76-8.43-1.46-2.79-1.92,5.5-.8,11.05-1.77,14.48-6.51,3.11-1.15,2.06-4.62,2.17-8l-.15-14.84c-6.57,5-12.51,10.74-19,15.78-3.44-4.72,6.37-6,7.76-9.66,3.25-3.55,8.75-6.47,11.25-9.59L657.11,643c-2.5,2-6.56,4.33-1.42,2.41,2.29,3.34-1.74,2.75-3.43,3.61-2.33.69-4.66,1.36-7,2.06-2.42-5.52,7.87-5.73,9.92-9.69,2.78,1.35,1.75-1.74,1.87-4.67,0-3.76-.07-7.53-.1-11.29-3.44,6.1-10.28.65-15.74-1.79-4-1.24-.24-1.76,1.44-2.48l13-4.82c2.44,3.23-1.58,2.87-3.21,3.83L644.75,623c4.79,4,10.67,3.38,12.14-1.4,0-9-.22-17.94-.62-27.07-3.79,3.35-6,7.44-10.68,8.28,2.21-.64,11.29,2.78,5.18,3.21-3.5,0-15.2-2.05-7-5.16,4.19-.89,6.9-3.64,9.56-6.91,3.16-1.31,3.13-2.67,2.7-6.84q-.32-8.39-.64-16.79c-1.92,2.17-10.09,7.46-8,7.91,2.45-1.16,12,.43,6.34,2.23-3.66-1-11.56,2.81-12.86-2.36,5.09-2.1,8.84-6.28,13.09-9.77,2.49.89.85-3.48,1.16-5.89L653.26,512c-2.4,1.81-12.42,8.5-8.76.49,2.46-2.55,5-7.4,7.69-7.85,1.79-.62.16-4.61.57-6.58.42-5-2.43-10-3.81-15-.1-1.93-3.38-6-.59-5.95,3,3.48,4.46,11.45,6.92,16.52,3.74,10.28,8,20.46,11.29,30.83,1.82,8.43,3.76,16.85,4,25.23,1.87-.34,5.35,1.63,5.22-1.58.44-3,2.5-5.83.69-9.22-8.19-26.14-17.5-52.06-26.15-78.14,2-1.89,2.73,1.44,3.54,3.51,5,12.08,8.32,24.62,12.51,36.92,4.26,13.28,8.74,26.53,13.86,39.58,7.89-3.35,1.37-13.73.25-21.28-3.68-14.15-8.66-28.12-12.93-42.19-1.27-2.62-4-4.31-5.89-6.57-2.71-2.78-5.49-5.6-8.17-8.36,2.22-4.12,7.16,5,10.57,6.18,5.87,8,7.32-2.07,12.53-2.15,1.46,6.18-8.44,8.81-3.17,16.72,3.8,15,7.21,30.07,12.24,44.88.83,2.66,1.67,5.31,2.5,8-1.7,2.32.72,14.3,4.19,12.08,1.19-5.95,4.81-11.32,1.74-18.22-4.51-19.8-10.7-39.43-15.9-59.18.07-6.78,3.94,3.74,4.37,6.75,6,19.07,12.47,38.07,17.76,57.24-1.13,5.07-1.09,16.3,5.23,11.27.28-7,.79-14.18-1.9-21.41-5.48-17.08-9.83-34.41-14.7-51.63-2.78,2.73-8-1.55-8.82-5.39.93-7.84-5.13-8.91-10.61-9.57-2.4-.77,4.18-3.12,5-4.32,3-1.15,9.27-5.26,3.19-8-2-1.39-3.88-2.8-5.83-4.18a71.77,71.77,0,0,1,9.75-13.52c2.37-4.23.57-13.1-4-17-3.34-2.72-3-7.26-4.28-11-1.74-2.39,0-5.91,1.39-2.69q1.31,5.17,2.6,10.34A18.58,18.58,0,0,1,684.54,423c2.29,6.18-3.75,8.36-6,12.2-1.33,1.83-2.45,3.87-3.7,5.77,2.8,2,5.65,4,8.41,6.07.57,5.88-8.49,7.76-7.83,9.86,8.8-.71,3.46,11.58,10.1,14.09,2.26.45,4.22-1.59,6.36-2.17,3.81,1.59-1.6,2.4-.71,4.45,7.11,22.64,14.4,45.32,21.14,67.92-.64,7.55,6,9.91,10.2,13.92.58,4.21,2.37,12.35,6.32,11.46.17-10.93.79-21.82.82-32.74.57-3.62-5.23-13.83-.48-13.35,2.67,9.1,6.21,18.14,8,27.31,1.29,6-1.28,14.79,6.22,17.08,3.31,2.1.75-11.55,4.3-7.3q2.93,3.1,5.86,6.19c7.94,1.66,2-8.95,2.17-13.79-2.5-7.25-4.87-14.57-7.35-21.85,3.7-1-2,.22-.91-3.92-.86-6.88-4.83-12.69-8.39-18.63-1.51-3.85-1.41-8-4.23-3.54-3.36,2.39-1.88,7.7.48,11.37,3.82,7.23,3.44,15.73,8.23,22.51,2.1,4.18,4.92,8.52,4.19,13.08.19,2.19.34,6.51-2.12,4-.32-3.73.9-7.46-1.17-10.76-2.53-5.93-6.17-10-7.18-16.37s-4.23-12.25-6.6-18.3c.53-1.25-7.9-.81-7.25-3.57,2.33.1,1.92-1.1,5.87.64,3-2.19,3-7.41.95-11.28-4-10.52-10.08-20.27-14.53-30.62-1.12-6.39,1.11-13.53-4.28-18.92-5.58-7.08-8.4-15.69-11.52-24-3.59-6.21-9.42-10.65-13.59-16.5-2.26.31-10.81-1.22-6.57-3.12,5.85-1.32,9.88,3.18,13.6,8.3,4.25,4.5,8.76,9.17,10.18,15.4a73.78,73.78,0,0,0,11,20.92c4.32,5.31,2.09,12,3.24,17.9,5.32,11.64,12.44,22.69,16,34.89-.78,4.89,1.26-1.36,3.45-.35-.21-5.74,1.6-13.09-1.76-19.06-3.52-7.83-7.61-15.53-10.79-23.47-2.21-5.66-4.91-12.72-7.38-18.91-2.58-7.1-6.34-13.77-9.9-20.47,3.55-3.34,5.39,8.73,8.14,11.32,6.19,13.24,10.09,27.27,16.85,40.24,2,5.51,6.16,10.8,7,16.42.68,3.38-1.18,13.58,1.23,13.16,1.2-2.31,2.43-4.6,3.62-6.93,1.93-.63,5.75.72,6.21-1.51.67-7-5.87-13.38-6.52-20.49a122.37,122.37,0,0,0-9.66-28.84C729.76,426.68,723,415.42,719.29,403c-1-7,4.05,2.69,4.16,5.88,3.57,9.61,8.78,18.63,12.47,28.21,3.51,7.89,6.87,15.81,8.8,24.12a82.24,82.24,0,0,0,7.69,22.36c.61,3.1-.08,5.3,2.24,6,1.07,2.94-4.14.59-2.08,5.17.59,2.75-.62,12.46-2.42,6.47.15-4.64,2.16-11.85-3.92-9.42-1.62,1.24-2.24,4.05-3.49,5.87-1,2.61-4.85,1.68-2.25,6.16,3.42,6.22,8,12,8.85,19.12.72,6.32,5.41,11.37,8.24,17.23,3.08,4,6.68,15.26,9.77,13.9,1.37-6.33-3.9-11.65-5.83-17.72-4.13-10.41-7.87-21-11.81-31.46,3.2,3.13,7.28,5.36,9.11,9.84,7.33,12,14.54,24.1,22.07,35.89,7.9,5.47,3.05-6.12.64-9.91-6-14.31-14.27-27.66-21.38-41.57-1.54-2-6.49-11.31-1.87-7.88q12.18,18.69,24.36,37.19c2.74,2.52,7.7,5,6.05-.35-7-15.06-15.83-29.21-23.58-44-8.11-14.08-15-28.86-22.27-43.47,3.83-2.67,8.85,6.79,13.12,8.69a117.15,117.15,0,0,1,18.49,18.49c9.42,10.59,18.47,21.56,28.25,31.53,4.88,3.67,8.68,9.34,13.92,12,.09-1.92-5.36-9.95-3.07-9.57A106.62,106.62,0,0,1,829.32,511c3.4,2.3,14,8,8.71-.26-1.7-4-9.78-7.11-8.46-11.06,1.5-.69,3.93,2.4,5.79,3.16a38,38,0,0,0,14,6.52c7.16.44,2.66-8.22-2.18-8.83C836.05,492.72,825,484.6,814,476.43c2.29-4.75,9.79,4.38,14.11,4.68,2.53-.53,11.8,2.73,8.56-2.48-1.38-2-4.22-2.44-6.18-3.82q-22.72-12-45.45-24.76c-6.46-5.83-13-11.58-19.51-17.42,1-4.18,7.5,2.58,10.73,2.68,5.67,2.6,11.37,4.88,17.25,5.74,3.78.73,11.71,3,13.09,2.51-2.51-1.84-13.55-7.07-7.25-8,3.16.28,13.11,1.55,4.63-.07-6-1.6-12.29-2.36-18.1-5.07.74-2.23,3.75-.85,7.67.24,4.28,2.3,13,.87,14.63,5,4.25,2.13,11.72,1.29,17.19,2.38,7.57.3,15.89,2.48,23,1.24,2.47-3.92,9.86-4.5,9.73-10-.5-5.13-.55-10.37-1.31-15.44C855.18,411.87,854.85,408,852.18,407.54ZM619.59,656.79v-1.11c3.19,2.83,11.33,5.14,11.13,9.07C628.43,663.86,620,659.89,619.59,656.79Zm28.64-101.26c-5.47,3.69,6.52-3.42,5.55,1.19-2.29,1.27-10.62,5.19-13.49,1.39,3.6-3.7,8.76-5.51,12.12-9.78C657.43,549.59,649.66,553.46,648.23,555.53Zm3.44-29.41.11-.09c6.11,2.46-7.61,5.93-4.66,6.73,1.79-1,5.63,0,3.64,2l-8.92,1.07C639.62,530.17,649.36,529.69,651.67,526.12Zm8.14-104.81c-1.71,2.79-2.51,10.23-7.4,6.1,3.55,4.76-.48,12.25-4.86,9.88-1-3.75-1-7.92-1.57-2-.15,5-3.38,8.32-5,12.52-4,1.53-11.17,2.59-8.54-5,.48-8.6,1.06-17.2.08-26.11-.09-2.88,1.33-11.55,0-10.07-1.84,3.67-3.59,7.42-5.43,11.1-2.27-4.22-1.36-12.82-6.74-13.1-3-1.3-4-5.43-4.78-.3-1.32,1.28-3,9.67-5.34,5.21-.58-4.94-.21-12.33-5.23-7.56-.92-4.11-1.79-8.22-2.69-12.34,3-1.32,2.43,3,3.21,5.19-.17,6.61,6.33,1.55,7.09-1.73l1.38-2.77c5.15,3.44-4.19,7-2.67,11,.23,3.9.65,6.73,2.3,1.77.75-2.33,1.45-4.69,2.27-7,2.08,4.22,4.82,6.92,8.77,7.82,1.69,3.54,2.5,10.92,4.28,4.66,1.63-3.08,2.89-6.77,5.24-9.07,3.81,3.22-.53,10.76.58,15.35-.32,6.79,1,13.93.13,20.61.55,4.21-3.14,13.82,3.5,10.3,2.29-.69,2.59-4.17,4-6.1,2.54-4.83,1.6-11.6,3.25-16.94,4.93-.31.46,15.09,5.21,10.93,1.39-5.24-2.36-10.72-2.77-16.94V405.92c3.29-.38,1.79,3.45,2.11,5.69a30.8,30.8,0,0,0,1.9,13.13c5.43,4.38,4.56-6.86,8.88-8.15,4.71-1,2.06-12.36,6.82-10.17C667.35,413,664,417.7,659.81,421.31Zm37.05,16.28c5.63,13.68,11.6,27.27,17.65,40.79,3.27,9.39,7.21,18.71,8.59,28.37-1.29,4.21,8.31,12.16,3.62,12.4-5.18-5.46-5.71-12.61-7.13-19.37a237.62,237.62,0,0,0-13.67-35.93c-3.91-8.4-7.22-17-10.86-25.48Zm-9.72,19.13c3.47,1.35,2.58,6.53,5.72,8.1,7.91,2.14-.86,12.64,7.28,12.52,3.9,4.18-.2,12,5.91,15.52,5.09,3.73,3.65,10,6,15.09.56,3.62,2.39,3.47,4.61,2.18,1.64-.86,4.93-2.06,4.31,1.11l-8.6,3c-2.29-5.31-4.32-10.72-4.81-16.32-4.48-4.61-8.54-9.56-7.84-16.15,1.07-5-7.93-1.56-5.55-7.57,3.11-6-3.86-6.57-5.3-11.31-.4-4.54-6.49-5.1-6.84-9.09,1-1.72,2.27-3.2,3.28-4.92C690.72,450.65,680.44,454.61,687.14,456.72Zm11.25-45.52c1.09-4.56,5-9.67,1.69-15.83-.43-6.12-6.15-9-10-12.71l-8.74-5.24c.25-.66.49-1.33.74-2,4.91,3.07,10.13,5.45,14.29,10,5.36,3.19,5.61,10,7.17,15.36C703.67,404.12,701.09,414,698.39,411.2Zm26.12-37.4c-4,.31-2.29-9.06-7.07-10.92-2.2-4.62-5-4.12-8-2.43-2.36.91-4.76,1.71-7.08,2.69-3.95-6.71.43-10.57,6.1-10.11,5.62.19,8.9-4.46,13.14-7.16l.11-.08h.41c1.05,4.78-5.23,5.6-7.82,8.62-3.25.67-14.86,1.4-9.86,5.29,3.31-1.24,6.62-2.46,9.92-3.72C718.63,361.24,725,367.2,724.51,373.8ZM742,369.66c-3.61,1.22-7.26,6.39-10.49,5.71-3.56-1.46,4.28-3.69,5.53-5.57,4.51-3.09,9.12-5.86,15.08-5.49C752.48,369.54,744.2,365.74,742,369.66ZM856,418.12c-1,4.69-10.13-.94-14,0-11.55-1.54-23.13-3.11-34.56-6.91-2.22-.26-2.9-.75-2.54-3a171.27,171.27,0,0,0,31,6.78C842.48,416.18,850.15,416.35,856,418.12Zm-68.91-19c5.83,1.67,11.77,2.69,17.22.78,5.15-.25,10.61,1.24,15.87,1.36,10,1.84,20,3.59,29.91,5.75,1.1,1.4-2,1.13-1.53,1.85-12.83-2.1-25.66-5.51-38.51-6.24-6-1.73-11.26,2.49-17.35.09C789.49,402.88,782,399.74,787.13,399.11Zm63.17,34.31c-7,.83-14.21-2.19-21.31-2.15-5.67,1.45-10.32-4.44-14.39-6.19-3.05,1.53-6.39,1.47-9.83.67q-7.42-1.12-14.84-2.33c-1-3.78,2.8-1.51,4.77-1.55,4.95.75,9.91,1.62,14.84,2.22,2.14-.6,4.23-1.51,6.5-1.66,4.24,5.44,10.3,7.14,16.39,6.84,7.18.42,14.52,3.42,21.48,1.26C860,430.56,853.47,434.21,850.3,433.42Z" style="fill: #fff;fill-rule: evenodd"/>
  </g>
</svg>
