<svg xmlns="http://www.w3.org/2000/svg" viewBox="0 0 1260 1012.04">
  <g>
    <path d="M0,90.08v920C420,738.76,840,1193.28,1260,922V2C840,273.28,420-181.24,0,90.08Z" style="fill: #fff"/>
    <path d="M0,1010.08C420,738.76,840,1193.28,1260,922V462C840,733.28,420,278.76,0,550.08Z" style="fill: #bf0a30"/>
    <path d="M0,90.08v920c140-90.44,280-100.23,420-83.14V6.94C280-10.15,140-.36,0,90.08Z" style="fill: #002868"/>
    <path d="M161.33,470.07a556.13,556.13,0,0,1,74.9,12.59q-13.12-93.8-26.23-187Q185.67,381.75,161.33,470.07Z" style="fill: #fff"/>
    <path d="M183.77,491.39a787.62,787.62,0,0,1,74.9-37.64q-24.33-80-48.67-158.07Q196.89,393.21,183.77,491.39Z" style="fill: #fff"/>
    <path d="M202.29,502.46a1043.38,1043.38,0,0,1,157.5-94.36c-52.5-3.11-105-1.35-157.5,8.11Z" style="fill: #fff"/>
    <path d="M232.37,513A1495,1495,0,0,1,359.79,408.1c-57.9,7.11-115.8,20.14-173.71,42.9Q209.22,481,232.37,513Z" style="fill: #fff"/>
    <path d="M179,476.38c41.19,36.54,82.38,78.09,123.57,123.26Q278.24,518,253.91,438.1A784,784,0,0,0,179,476.38Z" style="fill: #fff"/>
    <path d="M175.16,513.27c42.47,23.93,84.94,53.22,127.42,86.37q-40.57-85-81.14-164.85Q198.3,473,175.16,513.27Z" style="fill: #fff"/>
    <path d="M117.42,631.51A1491.94,1491.94,0,0,1,244.84,501.64q-23.15-32.46-46.28-63.05Q158,531.77,117.42,631.51Z" style="fill: #fff"/>
    <path d="M117.42,631.51C158.61,571.14,199.8,516.44,241,466.05a563.44,563.44,0,0,0-74.9-13.26Q141.76,540.92,117.42,631.51Z" style="fill: #fff"/>
    <path d="M187.63,520.45q23.15-39.71,46.29-77.41c-57.91-3.39-115.81,1.89-173.71,19.65C102.68,475.73,145.16,495.48,187.63,520.45Z" style="fill: #fff"/>
    <path d="M217.71,499.9V413.65a540.19,540.19,0,0,0-157.5,49C112.71,465.78,165.21,479.13,217.71,499.9Z" style="fill: #fff"/>
  </g>
</svg>
