<svg xmlns="http://www.w3.org/2000/svg" viewBox="0 0 1260 1012.04">
  <g>
    <path d="M1165.5,51.38C777,209.19,388.5-160.89,0,90.08v920c388.5-251,777,119.11,1165.5-38.7Z" style="fill: #c00"/>
    <path d="M1181.25,964.69v-920q-7.87,3.5-15.75,6.69v920Q1173.38,968.19,1181.25,964.69Z" style="fill: #fff"/>
    <path d="M1181.25,44.69v920A572.77,572.77,0,0,0,1260,922V2A572.77,572.77,0,0,1,1181.25,44.69Z" style="fill: #002d65"/>
    <path d="M582.75,246.63C469.67,221,378,324.43,378,462.67c0,137,91.67,256.64,204.75,282.29s204.75-69,204.75-207.42C787.5,400.71,695.83,272.14,582.75,246.63Z" style="fill: #fff"/>
    <path d="M582.75,265.79c-104.38-23.47-189,70.75-189,198.27,0,126.54,84.62,238.26,189,261.73s189-63.27,189-190.92C771.75,408.47,687.13,289.14,582.75,265.79Z" style="fill: #002d65"/>
    <path d="M564,620.73q8.17-58.18,16.36-116.34-26.24,38.36-52.46,77.11Q545.91,601,564,620.73Z" style="fill: #fff"/>
    <path d="M580.32,613V504.39q-22.32,49.56-44.63,99.4C550.57,606.74,565.44,609.84,580.32,613Z" style="fill: #fff"/>
    <path d="M543.31,618.08c32.9.61,65.79,1.83,98.68,3-28.3-17.35-56.59-34.76-84.89-51.79Q550.21,593.66,543.31,618.08Z" style="fill: #fff"/>
    <path d="M557.1,636.38C585.4,631,613.69,626.07,642,621c-32.89-13.19-65.78-26.46-98.68-39.13Q550.21,609.14,557.1,636.38Z" style="fill: #fff"/>
    <path d="M580.32,711V602.37q-22.32-4.75-44.63-9.21Q558,651.9,580.32,711Z" style="fill: #fff"/>
    <path d="M527.86,612.35q26.22,49.06,52.46,98.63Q572.13,649.35,564,587.74,545.9,599.93,527.86,612.35Z" style="fill: #fff"/>
    <path d="M480.53,652.1c28.3-6.4,56.59-12,84.88-17.28q-6.88-27.27-13.79-54.5C527.93,603.87,504.23,627.71,480.53,652.1Z" style="fill: #fff"/>
    <path d="M480.53,652.1c29.52-13.65,59-26.45,88.56-38.9q-18-19.74-36.1-39.29Q506.77,612.66,480.53,652.1Z" style="fill: #fff"/>
    <path d="M533,622q18.06-12.39,36.1-24.54c-29.52-24.85-59-49.35-88.56-73Q506.77,572.79,533,622Z" style="fill: #fff"/>
    <path d="M551.62,623.06q6.9-24.42,13.79-48.8c-28.29-17.1-56.58-33.86-84.88-49.84Q516.08,573,551.62,623.06Z" style="fill: #fff"/>
    <path d="M500.41,395.08c25.69,30.38,51.38,61.31,77.07,92.47q-18.15-53.46-36.3-106.73Q520.8,387.77,500.41,395.08Z" style="fill: #fff"/>
    <path d="M500.19,417.87C526,440.65,551.72,464,577.48,487.55Q550,431,522.5,375,511.34,396.38,500.19,417.87Z" style="fill: #fff"/>
    <path d="M473.14,480.83q33.15-30.87,66.32-60.47-14.93-23.16-29.86-46.14Q491.38,427.34,473.14,480.83Z" style="fill: #fff"/>
    <path d="M473.14,480.83q31.1-42.34,62.2-83.56-21.83-10-43.65-19.51Q482.42,429.24,473.14,480.83Z" style="fill: #fff"/>
    <path d="M507.75,424.57q11.16-21.43,22.32-42.76c-33.21-8.95-66.41-17.17-99.61-24C456.23,379.34,482,401.69,507.75,424.57Z" style="fill: #fff"/>
    <path d="M430.46,357.85c31.14,18.31,62.28,37.89,93.43,58.13q-2.34-27.45-4.67-54.9C489.64,359.2,460.05,358,430.46,357.85Z" style="fill: #fff"/>
    <path d="M489.88,387.84q21.83,9.48,43.65,19.47Q521,346.07,508.43,285,499.16,336.35,489.88,387.84Z" style="fill: #fff"/>
    <path d="M504,405.44q20.37-7.31,40.76-14.2Q526.58,338,508.43,285,506.2,345.2,504,405.44Z" style="fill: #fff"/>
    <path d="M515.2,415.43c28-16.48,56.06-32.37,84.09-48.1-29.58-2.6-59.17-5-88.76-6.79Q512.87,388,515.2,415.43Z" style="fill: #fff"/>
    <path d="M533,426.19c22.11-19.86,44.22-39.41,66.32-58.86-32.06,3.85-64.12,7.9-96.18,12.81Q518,403,533,426.19Z" style="fill: #fff"/>
    <path d="M679.21,526q2.34-26.5,4.67-53c-31.14,7.63-62.29,14.91-93.43,22.44C620,505.59,649.63,516,679.21,526Z" style="fill: #fff"/>
    <path d="M590.45,495.45c33.2,4.7,66.41,9.69,99.61,14.25q-11.16-25.86-22.31-51.78C642,470.48,616.22,482.88,590.45,495.45Z" style="fill: #fff"/>
    <path d="M651.68,498.35c14.55-.61,29.1-1.24,43.65-2q-31.1-54-62.2-108.31Q642.4,443.21,651.68,498.35Z" style="fill: #fff"/>
    <path d="M669.59,509q14.94-17,29.86-34-33.16-43.23-66.32-86.9Q651.36,448.56,669.59,509Z" style="fill: #fff"/>
    <path d="M682.49,513.41q27.5-44.83,55-90.14c-25.76,13.13-51.53,25.8-77.29,38.33Q671.34,487.54,682.49,513.41Z" style="fill: #fff"/>
    <path d="M701.17,515.22q18.15-45.86,36.3-92c-25.69,20.76-51.38,41.05-77.07,61.21Q680.79,499.93,701.17,515.22Z" style="fill: #fff"/>
    <path d="M663.1,500.5c32.06,17.69,64.12,35.15,96.19,51.75Q726.13,509.89,693,466.5,678,483.56,663.1,500.5Z" style="fill: #fff"/>
    <path d="M670.53,523.06c29.58,10.13,59.17,20,88.76,29.19-28-26.88-56.07-54.42-84.1-82.2Q672.87,496.56,670.53,523.06Z" style="fill: #fff"/>
    <path d="M668.42,597.8q18.15-45.7,36.3-91.56Q684.35,491,664,475.53,666.2,536.67,668.42,597.8Z" style="fill: #fff"/>
    <path d="M668.42,597.8q12.55-56.07,25.1-112.2-21.82,1.08-43.65,1.95Q659.14,542.69,668.42,597.8Z" style="fill: #fff"/>
  </g>
</svg>
