<svg xmlns="http://www.w3.org/2000/svg" viewBox="0 0 1260 1012.04">
  <g>
    <path d="M0,90.08v920C420,738.76,840,1193.28,1260,922V2C840,273.28,420-181.24,0,90.08Z" style="fill: #bf0a30;fill-rule: evenodd"/>
    <path d="M63,908.93c378-182.13,756,164.88,1134-17.24V103.12C819,285.24,441-61.77,63,120.36Z" style="fill: #fff;fill-rule: evenodd"/>
    <path d="M94.5,862.09c357-145,714,155.73,1071,10.72V150c-357,145-714-155.73-1071-10.71Z" style="fill: #002868;fill-rule: evenodd"/>
    <path d="M878.28,433.73c-11.83-19-116.14-53.71-134.22-63.5-18.08-8.51-33.38-31.22-45.9-38.18s-29.21-6.17-38.25-8.13S621,300.14,581.32,291.65,502,309.8,497.18,311.19s-8.35-3.67-16-2.08-19.47,12.74-29.21,12-25.73-9.52-43.11-10.73C391.47,309,361.57,333,362.26,352s11.13,28.3,13.91,38.69-.7,26.06,0,38.45,13.21,35.19,16,43.46-2.78,12.07-2.78,12.07,7.65,2.89,11.82,4.79,17.39,21.51,21.56,43.81h0c4.87-3.75,11.83-8.63,17.39-10s8.35.47,11.82-.47,13.22-13.23,22.26-13.9,37.55,2.91,49.37,20.5,9.74,53.42,9.74,53.41a28.24,28.24,0,0,1,15.3-1.28c8.34,1.7,14.6,19.69,16.69,31s13.21,34,13.91,47.91S568.81,696,568.81,696q13.91,3.28,27.81,6.66s-1.39-17.71.7-20.16,6.95,0,10.43-4.27.7-7.83,3.48-10.86,13.91-2,13.91-6.4V642.79c0-5.8,7-7.19,8.34-15.59s-1.39-64.87-1.39-64.87,36.16,10.8,50.77,17.5,42.42,28.35,42.42,28.32,12.52-9.87,17.39-15.48,27.81-23.87,32-25.38,16,5.6,19.47,10.49,3.48,13.61,7,25,20.17,46.51,18.78,62.25-25.73,74.55-25.73,74.49q6.25.63,12.52,1.21s2.08.31,3.47-3.83,4.18-3.75,5.57-7.17,1.39-13.59,4.86-21.08,15.3-27,15.3-27-1.39,28.12-.69,34.73-3.48,9.72-6.26,14.43-3.48,11.86-3.48,11.86q8,1.81,16,3.5s-.7-5.88.69-10.07,6.26,1.46,5.57-2.25,2.08-32.4,3.47-44.58,18.78-41.56,18.78-41.6-6.26-33.24-6.26-55.73,10.43-60.66,13.91-74.16,7.65-34.93,7.65-34.93,6.26,19.32,7,34.59-5.57,41-4.87,50.44,3.47,25.64,3.47,25.63,4.18-3.34,5.57-12.68-2.09-19-2.09-26.25,3.48-44,3.48-57.81S890.1,454.3,878.28,433.73Z" style="fill: #fff;fill-rule: evenodd"/>
    <path d="M558.87,326.43c-4.74,1.29-9.68-1.37-9.68,4.61h0c.2,1.14.39,2.28.59,3.42q9.09,1.85,18.18,3.76-.11-7.75-.2-15.5A41.28,41.28,0,0,1,558.87,326.43Z" style="fill: #fff;fill-rule: evenodd"/>
    <path d="M567.25,321.92a41.33,41.33,0,0,1-8.73,3.64,16.13,16.13,0,0,1-4.17.41c-3,0-6,.08-6,4.9.24,1.44.49,2.88.73,4.32q9.43,1.92,18.88,3.9l.84-.71q-.1-7.74-.2-15.49Zm-16.77,11.8-.45-2.59c0-3.32,1.68-3.34,4.66-3.37a17.78,17.78,0,0,0,4.53-.46,41.24,41.24,0,0,0,7.72-3.06q.07,6.47.16,12.92Q558.79,335.42,550.48,333.72Z" style="fill: #002868"/>
    <path d="M618.33,357.69c3.16,3.78,4.35,6.92,9.28,4.91l3.36-8.13-25.28-9.83S615.17,353.91,618.33,357.69Z" style="fill: #fff;fill-rule: evenodd"/>
    <path d="M605.82,343.8l-.63,1.44c.09.09,9.48,9.27,12.57,13,.49.6.94,1.18,1.36,1.72,1.47,1.9,2.81,3.64,4.87,4.08a6.83,6.83,0,0,0,4.06-.56l.24-.1q1.74-4.18,3.46-8.38c-.21-.44-.43-.88-.64-1.33Zm21.12,18.05c-3.38,1.3-4.41,0-6.61-2.88-.44-.57-.91-1.18-1.43-1.8-2.1-2.51-6.85-7.31-9.92-10.37l20.83,8.1Z" style="fill: #002868"/>
    <polygon points="549.22 330.13 549.22 330.13 549.22 330.13 549.22 330.13" style="fill: #fff;fill-rule: evenodd"/>
    <path d="M606.67,331c-15.21-5.57-35.51,2.86-50.18,1.08-5.26-.56-7.28-.16-7.27-2-.61,5.8-.22,10.18,2.73,13.63s5.33,2.95,7.51,3,28.64-5.53,36.74-3.75,19.17,4.56,25.29,11.87c2.76,3.3,5.53,5.95,5.14,7.51s9.88-3.61,9.68-8.4S621.89,336.61,606.67,331Z" style="fill: #fff;fill-rule: evenodd"/>
    <path d="M606.79,330.2c-9-3.3-19.68-1.81-30-.32-7.38,1.07-14.36,2.09-20.41,1.36-1.21-.13-2.25-.21-3.14-.28a12,12,0,0,1-3.19-.44.75.75,0,0,1,0-.21l-1.68-.44c-.53,5.05-.53,10.29,3,14.41,2.91,3.44,5.42,3.4,7.43,3.37h.8c.62,0,2.48-.3,6.28-.94,8.58-1.46,24.53-4.08,30.31-2.83,6,1.29,18.42,4,24.72,11.52.57.69,1.15,1.34,1.69,2,1.59,1.82,3.39,3.88,3.2,4.63a1.25,1.25,0,0,0,.33,1.17,1.24,1.24,0,0,0,.65.37,2.51,2.51,0,0,0,1.23-.14c2.59-.81,9.31-4.88,9.13-9.26C636.92,348.58,621.87,335.72,606.79,330.2Zm20.64,31.42c-.35-1.49-1.87-3.23-3.7-5.33-.54-.61-1.1-1.26-1.66-1.93-6-7.12-16-10.1-25.87-12.24-6.08-1.31-21.6,1.23-30.88,2.81-3,.5-5.5.94-6,.93h-.85a6.34,6.34,0,0,1-5.94-2.63c-2.17-2.53-3-5.8-2.62-11a13.87,13.87,0,0,0,3.58.52c.87.07,1.9.15,3.08.27,6.25.76,13.32-.28,20.8-1.36,10.11-1.46,20.55-2.93,29.2.24,15.56,5.69,28.75,18.06,28.91,21.95C635.6,357.11,629.68,360.84,627.43,361.62Z" style="fill: #002868"/>
    <path d="M629.28,351.21a1.19,1.19,0,0,0-1.39,1.51,7.91,7.91,0,0,0,1,1.82c.35.54.73,1.14.3,1.6s-1.23,0-1.7-.53c-.68-.72-.88-1.49-.36-2.13h0l-.54-.57c-.82.85-.45,2.1.47,3.08s2,1.5,2.77.67c.55-.6.33-1.36-.16-2.12a10.83,10.83,0,0,1-1.07-1.77.64.64,0,0,1,.73-.87,2.29,2.29,0,0,1,1.53,1.83,1.22,1.22,0,0,1-.23.65l.54.57a1.39,1.39,0,0,0,.36-1.39A3.42,3.42,0,0,0,629.28,351.21Z" style="fill: #002868;fill-rule: evenodd"/>
    <path d="M623.79,346.27l1.5,1.44-2.78,3.49.61.58,2.79-3.48,1.49,1.43c.13-.15.26-.31.38-.47l-3.61-3.46C624,346,623.91,346.11,623.79,346.27Z" style="fill: #002868;fill-rule: evenodd"/>
    <path d="M620,345.61l-2.59-1.8.94-1.93-.68-.47q-1.14,2.34-2.27,4.68l.68.47,1.06-2.19,2.58,1.8-1.06,2.19.68.47,2.27-4.68-.68-.48Z" style="fill: #002868;fill-rule: evenodd"/>
    <path d="M610.52,339.31a1.53,1.53,0,0,1,1.38.05,2.44,2.44,0,0,1,1,.76,1.68,1.68,0,0,1,.33,1.09l.71.34a2.47,2.47,0,0,0-.6-1.9,3.69,3.69,0,0,0-1.22-.9,2.21,2.21,0,0,0-2-.12,2.48,2.48,0,0,0-1.26,1.74,3.42,3.42,0,0,0,.21,2.43,3.25,3.25,0,0,0,1.46,1.38,2.61,2.61,0,0,0,1.27.32,2.11,2.11,0,0,0,.78-.24V345l.46.22.72-2.8-2.32-1.12-.15.59,1.66.8a1.43,1.43,0,0,1-.83,1.1,1.74,1.74,0,0,1-1.29-.17,2.18,2.18,0,0,1-1.2-1.23,3,3,0,0,1,0-1.72A1.91,1.91,0,0,1,610.52,339.31Z" style="fill: #002868;fill-rule: evenodd"/>
    <path d="M605.52,342l.75.24c.18-1.85.37-3.7.55-5.54l-.74-.25C605.89,338.31,605.71,340.16,605.52,342Z" style="fill: #002868;fill-rule: evenodd"/>
    <polygon points="601.88 337.84 601.88 337.84 601.88 337.84 601.88 337.84" style="fill: #002868;fill-rule: evenodd"/>
    <path d="M603.56,338.06a1.28,1.28,0,0,0,.25-.77,1.72,1.72,0,0,0-.7-1.54,3,3,0,0,0-1-.47l-2.52-.69h0l-.3,5.63.74.2c0-.8.08-1.61.13-2.41l1.68.46a1.88,1.88,0,0,1,.66.28,1,1,0,0,1,.36.85c0,.32,0,.63,0,.95s0,.37,0,.45,0,.15,0,.21l.91.24v-.12a.61.61,0,0,1-.22-.41,3,3,0,0,1,0-.49c0-.26,0-.51,0-.77a1.41,1.41,0,0,0-.14-.75,1.51,1.51,0,0,0-.46-.49A1,1,0,0,0,603.56,338.06Zm-.85-.21a1.3,1.3,0,0,1-.83,0h0l-1.71-.47c0-.64.07-1.28.1-1.92l1.8.49a1.52,1.52,0,0,1,.6.28,1.05,1.05,0,0,1,.38.94C603,337.53,602.92,337.76,602.71,337.85Z" style="fill: #002868;fill-rule: evenodd"/>
    <path d="M580.19,339q-.51-2.55-1-5.12h-.73l1.14,5.81,3.43,0c0-.23-.09-.46-.14-.69Z" style="fill: #002868;fill-rule: evenodd"/>
    <path d="M573.2,334.59h0c-.18,2-.37,4-.55,5.94l.73,0c0-.59.09-1.18.14-1.78l2.09-.14,1,1.7.78-.06L574,334.54Zm2,3.34-1.65.12c.07-.87.15-1.75.22-2.62l1.43,2.5Z" style="fill: #002868;fill-rule: evenodd"/>
    <path d="M569.87,335.81h-.74l.69,3.59a2.28,2.28,0,0,1,0,1c-.13.45-.51.68-1.12.69a1.4,1.4,0,0,1-1.21-.63,2.57,2.57,0,0,1-.42-1.05l-.69-3.59h-.73c.2,1.09.41,2.17.62,3.26a4.84,4.84,0,0,0,.58,1.65,2.28,2.28,0,0,0,2,1,1.49,1.49,0,0,0,1.64-1.07,3.9,3.9,0,0,0,0-1.65C570.28,338,570.07,336.9,569.87,335.81Z" style="fill: #002868;fill-rule: evenodd"/>
    <path d="M555.37,342.53c-.19-.65-.38-1.3-.58-1.95l2.87-.38-.19-.67-2.87.38-.51-1.75,3.1-.41c-.07-.23-.13-.47-.2-.71l-3.79.5,1.68,5.77,3.84-.51c-.07-.22-.13-.45-.2-.68Z" style="fill: #002868;fill-rule: evenodd"/>
    <path d="M564.57,339a4.11,4.11,0,0,0-1-1.94,2.84,2.84,0,0,0-2.31-.85,1.86,1.86,0,0,0-1.77,1.21,3.44,3.44,0,0,0,0,2.05,4.36,4.36,0,0,0,1.13,2.11,2.79,2.79,0,0,0,2.14.76,2.31,2.31,0,0,0,1.29-.48l1,.63.25-.5-.87-.58A3.23,3.23,0,0,0,564.57,339Zm-.84,2-.83-.54-.24.5.69.46a.62.62,0,0,1-.3.16h0a2.14,2.14,0,0,1-2-.47,3.09,3.09,0,0,1-.87-1.63,2.6,2.6,0,0,1,.06-1.87,1.35,1.35,0,0,1,1.21-.69,1.92,1.92,0,0,1,1.48.53,3.19,3.19,0,0,1,.88,1.62A2.81,2.81,0,0,1,563.73,341Z" style="fill: #002868;fill-rule: evenodd"/>
    <polygon points="620.24 487.94 620.24 487.94 620.24 487.94 620.24 487.94" style="fill: #fff;fill-rule: evenodd"/>
    <path d="M618.2,465.28,610,472.33s3.2,6.47,4.37,8.55,5.83,7.05,5.83,7.05,4.09-10.36,4.09-11.88S618.2,465.28,618.2,465.28Z" style="fill: #fff;fill-rule: evenodd"/>
    <path d="M617.6,464.54,609,472c.11.21.21.43.32.64s3.23,6.53,4.4,8.61,5.81,7.07,6,7.28l1.32-.08c.69-1.76,4.14-10.59,4.14-12.19s-4.42-8.49-6.31-11.36Zm2.27,21.85a48,48,0,0,1-4.76-5.84c-.92-1.65-3.19-6.18-4-7.86l7.06-6.09c2.6,4,5.24,8.42,5.35,9.27S621.71,481.67,619.87,486.39Z" style="fill: #002868"/>
    <path d="M614.12,421.81l-5,.14s.29,7.67,1.17,10,11.08,13.37,11.08,13.37q1.89-7.95,3.79-15.91a22.05,22.05,0,0,1-6.41-3.22A43.14,43.14,0,0,1,614.12,421.81Z" style="fill: #fff;fill-rule: evenodd"/>
    <path d="M619.19,425.49a42.65,42.65,0,0,1-4.52-4.23l-.33-.36-6,.17c0,.24,0,.49,0,.73,0,.8.33,7.9,1.24,10.31s9.59,11.87,11.32,13.75l1.35-.18q1.89-7.95,3.79-15.91l-.75-1.24A21,21,0,0,1,619.19,425.49Zm1.72,18.12c-3.89-4.27-9.28-10.45-9.81-11.85-.6-1.6-1-6.46-1.07-8.94l3.88-.11a44.08,44.08,0,0,0,4.47,4.14,21.74,21.74,0,0,0,5.79,3.08Q622.54,436.77,620.91,443.61Z" style="fill: #002868"/>
    <path d="M626.07,361.26s-2.54,2-2.68,3-.2,5.75-.2,5.75l5.29.53s-.13-3.52-.2-5.14S626.07,361.26,626.07,361.26Z" style="fill: #fff;fill-rule: evenodd"/>
    <path d="M626.63,360.73l-1.15-.23c-.82.66-2.76,2.31-2.92,3.43-.14,1-.2,5.36-.21,5.86.31.36.63.72.94,1.09l5.29.52c.24-.25.49-.5.74-.74,0,0-.13-3.53-.2-5.15C629,363.58,626.88,361,626.63,360.73Zm-2.58,8.46c0-1.62.09-4.06.17-4.64a7.66,7.66,0,0,1,1.85-2.05,6.72,6.72,0,0,1,1.37,2.72c0,1.13.13,3.18.17,4.32Z" style="fill: #002868"/>
    <path d="M620.06,389.59q-.72,51.26-1.45,102.5l13.82,2.26-1.82-102.84Z" style="fill: #fff;fill-rule: evenodd"/>
    <path d="M630.58,390.63,620,388.71l-.81.68q-.72,51.26-1.45,102.51l.88,1.08,13.82,2.25.8-.72q-.91-51.42-1.82-102.83ZM619.46,491.36q.72-50.37,1.43-100.74l8.9,1.62q.88,50.53,1.78,101.09Z" style="fill: #002868"/>
    <path d="M621.31,492.9l1.68.38.93-106.54-1.68-.38Z" style="fill: #002868"/>
    <path d="M619.44,492.5l1.68.37q.09-53.36.19-106.71l-1.68-.37Q619.54,439.15,619.44,492.5Z" style="fill: #002868"/>
    <path d="M626.9,494.7l1.68.38q.36-53.77.74-107.55l-1.68-.38Q627.27,440.93,626.9,494.7Z" style="fill: #002868"/>
    <path d="M624.85,386.34c-.22,25-.92,106.72-.73,107.74l1.66.09c-.14-1.82.43-71.08.75-107.44Z" style="fill: #002868"/>
    <ellipse cx="631" cy="441.74" rx="76.41" ry="1.19" transform="translate(188.21 1072.01) rotate(-89.9)" style="fill: #002868"/>
    <path d="M619.7,491.19l-3.27,1.19.72,7,17.46,3V496c-.6-.64-1.21-1.27-1.82-1.91Z" style="fill: #fff;fill-rule: evenodd"/>
    <path d="M619.48,490.27l-4,1.43c.26,2.53.52,5.05.79,7.58l.87,1,17.46,3,.8-.7v-6.87l-2.36-2.48Zm14.29,11.12-15.87-2.77c-.19-1.86-.39-3.71-.58-5.56l2.6-.94,12.58,2.74,1.27,1.34Z" style="fill: #002868"/>
    <path d="M618.24,366.67l3.41,4.58-1.53,2.81L632,376.73l-1.94-3.64,3.88-2.71Z" style="fill: #fff;fill-rule: evenodd"/>
    <path d="M634,369.51l-15.73-3.71-.63,1.33,3,4.05-1.27,2.32c.25.48.49,1,.74,1.43L632,377.6l.72-1.19-1.56-2.91,3.34-2.34Zm-5,3.18,1.5,2.82-9-2c.39-.72.78-1.44,1.18-2.16L620.2,368l11.58,2.73Z" style="fill: #002868"/>
    <path d="M636.51,376.8,615.9,372c-1.47-.25-1.94.56-1.87,1.34a2.55,2.55,0,0,0,1.94,1.89c.87.12,1.13-1.29,2.07-1s5,6.94,5,7.36l-3.34,2.62,11.07,2.34h0l-2.91-3.77s6.36-4.9,7.23-4.71,1.4,1.77,2.34,1.91,1.47-.17,1.47-1.22S637.92,377,636.51,376.8Z" style="fill: #fff;fill-rule: evenodd"/>
    <path d="M636.52,375.92l-20.66-4.78a2.29,2.29,0,0,0-2.13.48,2,2,0,0,0-.54,1.64,3.64,3.64,0,0,0,2.84,2.88,1.76,1.76,0,0,0,1.55-.71,2.07,2.07,0,0,1,.36-.32,41.59,41.59,0,0,1,4,6.08l-2.9,2.27c.19.54.39,1.09.58,1.64l11.08,2.34.6-1.35-2.32-3a41.93,41.93,0,0,1,6.08-4.09,5,5,0,0,1,.48.52,3.19,3.19,0,0,0,1.87,1.36,1.74,1.74,0,0,0,2.25-1.91,2.63,2.63,0,0,0-.62-1.71A4.17,4.17,0,0,0,636.52,375.92ZM616.29,374c-.12.12-.31.32-.39.33a1.5,1.5,0,0,1-1-.9A.53.53,0,0,1,615,373a1.08,1.08,0,0,1,.9-.14l1.75.4A1.87,1.87,0,0,0,616.29,374Zm10.94,8c0,.41,0,.82,0,1.23l1.54,2-7-1.48,2.08-1.64v-.37c0-.9-4-7.47-5.56-8.33l16.3,3.77C633.85,377.4,632.1,378.28,627.23,382Zm10.09-2.93a4.15,4.15,0,0,1-.59-.6,5,5,0,0,0-1-1l.86.2a2.24,2.24,0,0,1,1.36.58.51.51,0,0,1,.1.33C638,379,638,379.2,637.32,379.1Z" style="fill: #002868"/>
    <path d="M634.24,395.47c0,3-8.16,7-14.87,9.84s-12.54,9.44-12.54,16.74,4.48,11.42,5.33,12.61c-1-1.61-1.85-2.34-1.85-6.67s9.52-6,14.92-9.9,12.51-10.6,12.51-16.08c.15-5.17-1.75-7.68-4.62-11.63A10.57,10.57,0,0,1,634.24,395.47Z" style="fill: #fff;fill-rule: evenodd"/>
    <path d="M633.75,389.93l-1.34.76a9.54,9.54,0,0,1,1,4.6c0,.73-1,3.57-14.47,9.17-6.23,2.6-12.94,9.16-12.94,17.41a18.93,18.93,0,0,0,5.06,12.64l.48.59,1.3-.83-.33-.5c-.82-1.23-1.35-2-1.35-5.6,0-2.33,3.66-3.93,7.54-5.62a39.39,39.39,0,0,0,7.11-3.69c2.13-1.53,12.78-9.57,12.78-16.64.16-5.4-1.85-8.18-4.64-12Zm1.33,4.67a12.3,12.3,0,0,1,1.82,7.23c0,4.93-6.59,11.42-12.23,15.49a38,38,0,0,1-6.88,3.55c-4.46,1.95-8.32,3.64-8.32,6.93,0,.72,0,1.36.07,1.92a15.61,15.61,0,0,1-1.87-7.49c0-7.23,6.11-13.56,12.14-16.08,13.69-5.71,15.27-8.72,15.27-10.44A6.86,6.86,0,0,0,635.08,394.6Z" style="fill: #002868"/>
    <polygon points="631.71 435.97 631.71 435.97 631.71 435.97 631.71 435.97" style="fill: #fff;fill-rule: evenodd"/>
    <path d="M631.71,436c.1,3,0,5.49.2,8,.26,2.93-8.46,7-12,9.86s-12.24,4.94-12.83,10.29,4.6,11.57,5.81,13.92c-1.33-3.19,1.68-5.9,5.14-8.07,3-1.92,9.63-4.28,13-7.33s7-8.21,7-14S634.33,437.46,631.71,436Z" style="fill: #fff;fill-rule: evenodd"/>
    <path d="M632,435.2l-1.1.62c0,1.17,0,2.26.06,3.3,0,1.63,0,3.17.15,4.72s-4.27,4.29-7.17,6.12a51,51,0,0,0-4.55,3.09,25.72,25.72,0,0,1-4.41,2.58c-3.86,1.95-8.22,4.16-8.66,8.19-.5,4.53,2.77,9.55,4.72,12.55.52.79,1,1.48,1.2,1.94l1.47-.52c-.88-2.11.73-4.43,4.92-7.06,1.06-.66,2.61-1.41,4.25-2.2,3.09-1.49,6.59-3.17,8.8-5.19,1.7-1.55,7.23-7.17,7.23-14.54C638.88,442.56,634.8,436.8,632,435.2Zm-1.55,26.68c-2.08,1.9-5.49,3.54-8.5,5-1.68.81-3.26,1.57-4.38,2.27-2.22,1.4-4.87,3.36-5.59,5.85-1.88-2.92-4.38-7-4-10.62.35-3.25,4.38-5.29,7.94-7.09a26.45,26.45,0,0,0,4.65-2.73,48,48,0,0,1,4.42-3c4.83-3,8-5.21,7.78-7.5-.12-1.48-.13-3-.15-4.57,0-.61,0-1.23,0-1.87a16,16,0,0,1,4.62,10.83C637.2,455.17,632,460.43,630.42,461.88Z" style="fill: #002868"/>
    <path d="M619.92,384.21,616.37,386l3.55,3.84,10.67,2,3.68-2-3.55-3.18Z" style="fill: #fff;fill-rule: evenodd"/>
    <path d="M631,385.74l-11.31-2.47-3.76,1.85c0,.46,0,.92-.07,1.39l3.79,4.1,11.26,2.09,3.89-2.14c0-.48,0-1,0-1.45Zm-.67,5.1L620.21,389l-2.45-2.65,2.41-1.18,10.3,2.24,2.32,2.09Z" style="fill: #002868"/>
    <path d="M582.75,351.27c-7.53-.35-9.34,9.34-9.34,9.33s3.31,1.33,3.31,4.48.31,7,.31,7l6.63-6.14q-.45-7.32-.91-14.65Z" style="fill: #fff;fill-rule: evenodd"/>
    <path d="M582.62,350.37c-8-.37-10,9.48-10,9.9l.68,1.16c.1.05,2.63,1.11,2.62,3.47,0,3.15.3,6.9.31,7.06l1.46.82,6.87-6.36-.93-15Zm-4.89,19.74c-.08-1.37-.17-3.21-.17-4.85a6.07,6.07,0,0,0-3.15-5.06c.56-2,2.54-7.64,7.57-8q.4,6.63.82,13.25Z" style="fill: #002868"/>
    <path d="M574,360.42a14.71,14.71,0,0,0-3.92,5.46s-3.62-9.25-2.71-10.95,3.31-3.39,3-5.34-1.81-2.58-3.61-2.64S565,357.57,565,360.4s.6,8,2.11,10.19,2.71,5.29,4.22,5.92,5.72-5.08,5.72-5.08.61-6.16-.3-7.92A10.18,10.18,0,0,0,574,360.42Z" style="fill: #fff;fill-rule: evenodd"/>
    <path d="M574.39,359.71l-.55-.39-.42.35a14.62,14.62,0,0,0-3.3,4.05c-1.34-3.75-2.36-7.54-2-8.24a10.17,10.17,0,0,1,1.2-1.62c1.06-1.27,2.15-2.57,1.89-4.24a3.9,3.9,0,0,0-1.75-2.8,5.43,5.43,0,0,0-2.83-.77c-1.22,0-2.51,1-2.51,14.18,0,2.06.41,8,2.3,10.79.46.66.9,1.44,1.33,2.2,1,1.82,2,3.54,3.37,4.11a1,1,0,0,0,.23.08c1.72.36,4.39-2.67,6.36-5.34l.12-.16,0-.21c.11-1.08.58-6.55-.42-8.49A11.54,11.54,0,0,0,574.39,359.71ZM576.21,371c-1.91,2.56-4.14,4.74-4.75,4.73-.68-.28-1.55-1.8-2.31-3.15-.45-.79-.92-1.62-1.43-2.36-1.31-1.91-1.91-6.85-1.91-9.59,0-11.37,1-12.63,1.1-12.74a5.76,5.76,0,0,1,1,.11,3.06,3.06,0,0,1,.93.35,1.64,1.64,0,0,1,.73,1.26c.14.91-.77,2-1.58,3a11.46,11.46,0,0,0-1.35,1.85c-1,1.89,1.81,9.43,2.69,11.69l1.56.28a14.42,14.42,0,0,1,3.28-4.8A8.54,8.54,0,0,1,576,363.8C576.51,364.8,576.43,368.5,576.21,371Z" style="fill: #002868"/>
    <path d="M610.49,381.77a19.4,19.4,0,0,1,0-4.72c.3-2.76,1.5-10.68-8.45-18.81l-7.23,4.42s13.26,25.5,16.28,29.93,10.55,11.73,10.55,11.73l1.81-1.49s-5.13-9.29-6.93-12.52A89.59,89.59,0,0,0,610.49,381.77Z" style="fill: #fff;fill-rule: evenodd"/>
    <path d="M617.21,390a82.23,82.23,0,0,0-5.93-8.44,20.82,20.82,0,0,1,0-4.21l0-.24c.34-3.07,1.26-11.22-8.89-19.52l-.49-.4-7.68,4.69c-.07.36-.13.73-.2,1.1.55,1,13.33,25.62,16.35,30.05s10.4,11.62,10.71,11.92l.58.56,2.79-2.31-.37-.68S619,393.21,617.21,390Zm4.34,13.17c-1.8-1.78-7.38-7.4-9.82-11-2.65-3.9-13.6-24.84-15.81-29.07l6.19-3.78c8.68,7.36,7.9,14.24,7.57,17.21l0,.25a20.14,20.14,0,0,0,0,5l0,.29.19.24a89.08,89.08,0,0,1,5.93,8.39c1.51,2.69,5.34,9.63,6.55,11.83Z" style="fill: #002868"/>
    <path d="M568.65,344.81q3.76,56.18,7.54,112.35l1.67.23L570.33,345Z" style="fill: #002868"/>
    <path d="M603.21,381.26c.2-3.39-2.47-10.61-2.47-13.07s1.75-9.16,1.23-10.45-6.77-4.67-8.83-6-11.19-3.58-12.22-2.62-.31,5-.31,10-3.55,95.54-3.55,96.29q13.05,2.79,26.1,5.63h0c3-.76-1.84-37.58-.6-39,1-1.17,3.32,3.72,3.32.82C605.88,420.56,603,384.64,603.21,381.26Z" style="fill: #fff;fill-rule: evenodd"/>
    <path d="M604,381.49c.13-2.06-.7-5.31-1.44-8.17a29,29,0,0,1-1-4.95,35.27,35.27,0,0,1,.65-4.65c.63-3.6.87-5.27.51-6.17-.46-1.16-2.63-2.59-7.32-5.35-.8-.47-1.49-.88-2-1.18-1.89-1.2-11.69-4-13.15-2.59-.93.87-.83,2.94-.67,6.07.07,1.34.14,2.86.14,4.48,0,3.61-1.87,52.34-2.87,78.52-.46,11.85-.68,17.56-.68,17.78l.84,1.05q13.05,2.78,26.1,5.62l.18,0,.17,0c2-.5,1.85-7.18.43-25.73-.44-5.71-.93-12.16-.74-13.33a8.19,8.19,0,0,1,.75.7c.61.63,1.3,1.34,2,1.12s.74-1.23.74-1.61c0-.93-.41-6.58-.93-13.73C605,398.47,603.92,383.53,604,381.49Zm.94,40.94a3.85,3.85,0,0,0-2.09-1.41,1.17,1.17,0,0,0-1,.4c-.61.69-.48,3.55.36,14.58.65,8.43,1.72,22.39.57,24.13q-12.45-2.72-24.9-5.37c.09-2.25.33-8.61.65-16.83,1-26.19,2.87-74.95,2.87-78.6,0-1.66-.07-3.2-.14-4.56-.11-2.2-.22-4.47.2-4.87,1-.56,9.36,1.37,11.32,2.61.49.31,1.2.73,2,1.22,1.76,1,5.87,3.46,6.34,4.19a25.47,25.47,0,0,1-.63,5.14,35.69,35.69,0,0,0-.67,4.95,28.27,28.27,0,0,0,1.09,5.44c.69,2.72,1.48,5.8,1.38,7.57-.13,2.15.91,16.55,1.75,28.12.46,6.37.86,11.92.92,13.35Z" style="fill: #002868"/>
    <path d="M594.37,340.68l-6.26,1.87h0s-.31,6.68-.31,8.5,2.88,5.54,4.73,6.26,3.79-1,3.59-4-1.13-2.82-1.13-6.35A30.9,30.9,0,0,0,594.37,340.68Z" style="fill: #fff;fill-rule: evenodd"/>
    <path d="M595.83,347.1a32.6,32.6,0,0,0-.64-6.46l-1.19-.83-6.71,2c0,.17,0,.34,0,.52s-.31,6.72-.31,8.54c0,2.4,3.28,6.44,5.43,7.28a4.13,4.13,0,0,0,.5.15,3,3,0,0,0,2.41-.52,4.91,4.91,0,0,0,1.66-4.4,10.51,10.51,0,0,0-.63-3A8.3,8.3,0,0,1,595.83,347.1Zm-1.66,9.14a1.55,1.55,0,0,1-1.51.24c-1.46-.57-4-3.91-4-5.25,0-1.49.21-6.35.29-8l4.83-1.44a32,32,0,0,1,.39,4.9,10.27,10.27,0,0,0,.61,3.89,8.07,8.07,0,0,1,.52,2.52A3.46,3.46,0,0,1,594.17,356.24Z" style="fill: #002868"/>
    <path d="M586.77,334.23a33.79,33.79,0,0,0-.1,9.08c.31,1.24.31,4.46,2.16,5.17s4.93-2.79,5.85-4.41a14.73,14.73,0,0,0,1.34-3.79q-2.47-4.27-4.93-8.56Z" style="fill: #fff;fill-rule: evenodd"/>
    <path d="M590.58,330.92,586,333.57l0,.33a34.2,34.2,0,0,0-.09,9.47c.06.24.1.55.16.91.23,1.59.62,4.24,2.67,5a2.07,2.07,0,0,0,.33.1c2.66.57,5.9-3.89,6.4-4.78a14.79,14.79,0,0,0,1.42-4l.07-.34-5.13-8.9Zm3.36,12.58c-1.07,1.87-3.88,4.6-5,4.15-.86-.33-1.12-2.11-1.29-3.28-.07-.44-.13-.83-.2-1.12a33.33,33.33,0,0,1,.07-8.37l3.34-1.94,4.23,7.33A13.3,13.3,0,0,1,593.94,343.5Z" style="fill: #002868"/>
    <path d="M587,345l2.77.38M587,345Z" style="fill: #fff;fill-rule: evenodd"/>
    <path d="M586.92,344.1l.12,1.77,2.77.38-.12-1.77Z" style="fill: #002868"/>
    <path d="M589.85,339.06l2.16.47m-2.16-.47Z" style="fill: #fff;fill-rule: evenodd"/>
    <path d="M589.85,339.94l2.16.46v-1.75l-2.16-.46Z" style="fill: #002868"/>
    <path d="M590.06,329.15c-3.49-.86-4.72,2.84-3.8,5.07,1.75.48,1.54-1.06,3.9-.45s5.24,9.7,5.86,9.83,1.33-2.17,1.33-4.85S593.55,330,590.06,329.15Z" style="fill: #fff;fill-rule: evenodd"/>
    <path d="M590.09,328.28a3.64,3.64,0,0,0-4.09,1.31,5.26,5.26,0,0,0-.5,4.85l.21.51.5.14a2.57,2.57,0,0,0,2.17-.27,1.92,1.92,0,0,1,1.75-.18c1.06.28,3.07,4.89,3.83,6.63,1,2.34,1.33,3.05,2.06,3.21,1.78.38,2.17-3.88,2.17-5.55C598.19,335.83,594.11,329.26,590.09,328.28ZM596,342.09c-.18-.4-.38-.87-.56-1.28-1.76-4-3.36-7.41-5.26-7.9l-.27-.07a3.22,3.22,0,0,0-2.54.35,1.58,1.58,0,0,1-.54.22,3.49,3.49,0,0,1,.56-2.56A2.29,2.29,0,0,1,590,330c2.91.71,6.47,6.25,6.47,8.55A11.69,11.69,0,0,1,596,342.09Z" style="fill: #002868"/>
    <path d="M581.84,379.34a30.12,30.12,0,0,1-4.21-1.11l1,22.45,15,3.62-.72-37.15C587.7,376.73,583.69,379.63,581.84,379.34Z" style="fill: #fff;fill-rule: evenodd"/>
    <path d="M578.52,379.4a26,26,0,0,0,3.37.83c2.86.44,7.27-4.24,11.79-12.52l-1.49-1.12c-5.37,9.83-9.15,12.06-10.39,11.87a31.23,31.23,0,0,1-4.06-1.07l-1,.71,1.05,22.45.81,1,15,3.62c0-.58,0-1.16,0-1.74L579.48,400Z" style="fill: #002868"/>
    <path d="M576.5,396.31q1,16.72,2,33.44,7.78-6.4,15.56-12.77,1.71-24.27,3.43-48.54A44.3,44.3,0,0,1,576.5,396.31Z" style="fill: #fff;fill-rule: evenodd"/>
    <path d="M598.27,368.83l-1.63-.78A44,44,0,0,1,576,395.48l-.39.2,2,33.94c.48.29,1,.58,1.43.88q7.79-6.4,15.56-12.77l-1.18-1.5q-7.12,5.83-14.24,11.69-.91-15.5-1.82-31A45.69,45.69,0,0,0,598.27,368.83Z" style="fill: #002868"/>
    <path d="M599.64,401.12q-2.39-8.64-4.75-17.27c-4.21,33.37-18.69,24.81-18.69,24.82q.39,15.29.8,30.55c12.08-.45,13-10.31,13-10.31s4.22,2.16,7.23-.33.31-13.46,1.21-18A82.71,82.71,0,0,0,599.64,401.12Z" style="fill: #fff;fill-rule: evenodd"/>
    <path d="M600.47,401.35l-1.67-.47a83.1,83.1,0,0,1-1.19,9.37,31.87,31.87,0,0,0,0,7.4c.28,4.15.6,8.86-1,10.18-2.62,2.17-6.26.36-6.41.29l-1.07.53c0,.37-1,8.72-11.34,9.62q-.37-14.16-.74-28.32a9.37,9.37,0,0,0,6.88-.13c6-2.53,9.94-11.17,11.77-25.68l-1.67-.58c-2.18,17.35-7.15,22.92-10.93,24.55a7.76,7.76,0,0,1-6.64-.2l-1.12.61q.39,15.27.8,30.55l1,1.05c10.31-.39,12.88-7.47,13.47-10,1.53.55,4.68,1.3,7.16-.75,2.13-1.77,1.8-6.69,1.47-11.45a32.06,32.06,0,0,1,0-6.93A79.07,79.07,0,0,0,600.47,401.35Z" style="fill: #002868"/>
    <path d="M595.18,402.89l1.67.55c0-.11,1.22-11.07,2.4-16l-1.64-.76C596.41,391.72,595.23,402.43,595.18,402.89Z" style="fill: #002868"/>
    <path d="M581.19,399.82l.71,1.74c5.37-1.49,11.62-16.78,11.88-17.43l-1.56-1C590.49,387.42,585.14,398.72,581.19,399.82Z" style="fill: #002868"/>
    <path d="M595.34,416.38l-1.66-.67a29.24,29.24,0,0,0,.31,8.57h1.65A27.57,27.57,0,0,1,595.34,416.38Z" style="fill: #002868"/>
    <path d="M594,430l-.44.17c0,.06.7,1.52.44,8.35l1.68.44c.2-5.28-.1-8.7-.85-9.65Z" style="fill: #002868"/>
    <path d="M596.2,363.76l1.44,1.22c1.9-2.89,2.22-8.49,2.23-8.73l-1.68-.46S597.88,361.2,596.2,363.76Z" style="fill: #002868"/>
    <path d="M598,418.78a56.14,56.14,0,0,0,5.25,4l.69-1.44a54.45,54.45,0,0,1-5-3.85Z" style="fill: #002868"/>
    <path d="M557.09,462.38c0,1.52,4.08,13.62,4.08,13.62h0s4.67-3,5.83-4.56,4.38-6.69,4.38-6.69l-8.17-10.53S557.09,460.86,557.09,462.38Z" style="fill: #fff;fill-rule: evenodd"/>
    <path d="M562.56,453.53c-1.9,2.06-6.31,7-6.31,8.67s3.44,11.9,4.14,13.95l1.31.64c.19-.12,4.78-3.06,6-4.72s4.27-6.52,4.41-6.73l.31-.5-8.6-11.1Zm3.74,17.28a26.24,26.24,0,0,1-4.76,3.81c-1.83-5.51-3.6-11.25-3.61-12s2.75-4.15,5.34-7l7.06,9.1C569.49,466,567.23,469.55,566.3,470.81Z" style="fill: #002868"/>
    <path d="M562.63,414.86a16.41,16.41,0,0,1-6.42.49q1.9,8.76,3.79,17.52s10.21-6.7,11.09-8.64,1.16-9.49,1.16-9.49l-5-2.26A24.16,24.16,0,0,1,562.63,414.86Z" style="fill: #fff;fill-rule: evenodd"/>
    <path d="M566.75,411.7a23.56,23.56,0,0,1-4.53,2.31,15.52,15.52,0,0,1-6.07.45l-.76.92q1.9,8.76,3.8,17.52l1.35.75c1.73-1.14,10.41-6.89,11.32-8.91s1.2-9,1.23-9.79l0-.71-6-2.76Zm4.63,3.55c-.12,2.42-.47,7.14-1.07,8.47-.53,1.18-5.91,5.06-9.8,7.67q-1.63-7.53-3.26-15.07a15.44,15.44,0,0,0,5.79-.61,25.24,25.24,0,0,0,4.47-2.23Z" style="fill: #002868"/>
    <path d="M555.34,346.85s-2.14,1.58-2.21,3.17-.2,5.06-.2,5.06l5.29,1.71s-.07-4.83-.2-5.83S555.34,346.85,555.34,346.85Z" style="fill: #fff;fill-rule: evenodd"/>
    <path d="M555.93,346.34l-1.15-.26c-.25.18-2.4,1.83-2.48,3.73-.07,1.6-.2,5.06-.2,5.06l.74,1.06,5.29,1.72.93-.69c0-.5-.07-4.92-.21-5.95S556.76,347.35,555.93,346.34Zm-2.12,8.14c0-1.12.12-3.14.16-4.25a4,4,0,0,1,1.37-2.14,14,14,0,0,1,1.85,2.82c.08.63.14,3.09.17,4.72Z" style="fill: #002868"/>
    <path d="M550.8,375.18q-.9,51-1.81,102.07l13.82,3.6q-.73-51.56-1.45-103.12C557.84,376.88,554.32,376,550.8,375.18Z" style="fill: #fff;fill-rule: evenodd"/>
    <path d="M561.38,376.86c-3.51-.85-7-1.71-10.55-2.55L550,375q-.9,51-1.81,102.07l.79,1.05q6.91,1.78,13.82,3.61l.89-.7q-.74-51.57-1.46-103.13Zm-11.54,99.73q.9-50.18,1.79-100.34l8.9,2.16q.71,50.67,1.43,101.34Z" style="fill: #002868"/>
    <path d="M557.5,373.24l.93,106.94,1.68.33-.93-106.93Z" style="fill: #002868"/>
    <path d="M560.11,373.78q.09,53.39.19,106.78l1.68.35q-.11-53.4-.19-106.79Z" style="fill: #002868"/>
    <path d="M552.09,371.74l.75,107.87,1.68.33-.75-107.87Z" style="fill: #002868"/>
    <path d="M554.89,372.12c.32,36.5.88,106,.75,107.76l.83.27-.82-.34.82.34.83.35c.19-.95-.51-82.94-.73-108Z" style="fill: #002868"/>
    <path d="M549.48,371q.1,54.06.19,108.14l1.68.34q-.09-54.08-.19-108.14Z" style="fill: #002868"/>
    <path d="M548.62,476.8l-1.81,1.14v6.45q8.73,2.16,17.46,4.36l.72-6.68-3.27-2.58Q555.17,478.13,548.62,476.8Z" style="fill: #fff;fill-rule: evenodd"/>
    <path d="M548.33,475.86,546,477.35v6.87c.26.35.53.69.8,1q8.73,2.14,17.46,4.35l.87-.59c.26-2.42.53-4.83.79-7.24l-4-3.12Q555.14,477.25,548.33,475.86Zm15.19,11.82q-7.93-2-15.87-4v-5.19l1.27-.8,12.58,2.59,2.6,2.05C563.9,484.14,563.71,485.91,563.52,487.68Z" style="fill: #002868"/>
    <path d="M547.45,352.63l3.88,4.35-1.94,2.82q6,1.17,11.91,2.38c-.51-1.15-1-2.31-1.54-3.46l3.41-3.13Q555.31,354.09,547.45,352.63Z" style="fill: #fff;fill-rule: evenodd"/>
    <path d="M563.16,354.71q-7.86-1.5-15.73-3l-.54,1.42,3.35,3.75-1.56,2.26.71,1.49q6,1.18,11.92,2.39c.24-.38.49-.75.74-1.12-.42-1-.85-1.91-1.27-2.86l3-2.77Zm-4.41,3.65,1.18,2.67-9-1.81,1.5-2.18-2.79-3.13,11.59,2.18Z" style="fill: #002868"/>
    <path d="M565.52,361.94q-10.31-2-20.61-4c-1.41-.36-2.34-.06-2.34,1A1.73,1.73,0,0,0,544,360.8c.93.26,1.47-1.09,2.34-.92s7.23,7.76,7.23,7.76L550.73,370h0l11,2.56-3.34-4.05c0-.42,4-5.38,5-5.25s1.2,1.65,2.07,1.9a1.52,1.52,0,0,0,1.94-1.06C567.46,363.33,567,362.32,565.52,361.94Z" style="fill: #fff;fill-rule: evenodd"/>
    <path d="M565.51,361.06q-10.29-2-20.56-3.95a3,3,0,0,0-2.6.25,1.75,1.75,0,0,0-.63,1.44,2.84,2.84,0,0,0,2.26,2.87,2,2,0,0,0,1.87-.58,3.58,3.58,0,0,1,.47-.32,76.27,76.27,0,0,1,6.07,6.63l-2.25,1.84.57,1.61,11,2.56.6-1.38-2.9-3.51a21.9,21.9,0,0,1,4-4.36,5.23,5.23,0,0,1,.35.47,3,3,0,0,0,1.55,1.37,2.17,2.17,0,0,0,2.84-1.67,2.77,2.77,0,0,0-.54-1.87A3.66,3.66,0,0,0,565.51,361.06Zm-20.82-1.47c-.17.14-.47.38-.59.35h0c-.67-.18-.7-.38-.7-.8a.32.32,0,0,1,.11-.28c.07-.06.36-.22,1.17-.06l.24.06.81.15A2.7,2.7,0,0,0,544.69,359.59Zm12.9,8.73v.37l2,2.47-6.89-1.59,1.45-1.18v-1.27c-4.86-5.79-6.62-7.42-7.34-7.9q8.14,1.54,16.3,3.13C561.59,362.54,557.59,367.42,557.59,368.32Zm7.93-4a3.12,3.12,0,0,1-.39-.5,3.31,3.31,0,0,0-1.36-1.31l1.71.34a1.64,1.64,0,0,1,.95.54.72.72,0,0,1,.13.47A.91.91,0,0,1,565.52,364.28Z" style="fill: #002868"/>
    <path d="M562,393.74c-6.7-5.65-14.87-13.1-14.87-16.14a7.45,7.45,0,0,1,1.32-4.43h0c-2.86,3.07-4.88,4.35-4.82,9.51,0,5.47,7.17,15.24,12.51,21.35s14.93,11.8,14.93,16.26-.83,4.72-1.86,5.89c.85-.84,5.34-3,5.33-10.34S568.75,399.4,562,393.74Z" style="fill: #fff;fill-rule: evenodd"/>
    <path d="M562.48,393.09C549.05,381.78,548,378.52,548,377.75a6.7,6.7,0,0,1,1.17-3.94l-1.34-1.32-1.09,1.13c-2.31,2.38-4,4.1-3.92,8.89,0,7.09,10.65,19.61,12.79,22.06a71.27,71.27,0,0,0,7.11,6.71c3.87,3.34,7.54,6.51,7.54,8.84,0,3.56-.54,4.14-1.35,5l-.33.36,1.3,1.39a4.09,4.09,0,0,1,.48-.39c1.51-1.14,5-3.81,5-10.48C575.42,407.78,568.72,398.34,562.48,393.09Zm9.4,29.26c0-.54.07-1.16.07-1.88,0-3.3-3.86-6.64-8.33-10.49a70.32,70.32,0,0,1-6.88-6.48c-5.64-6.46-12.23-15.73-12.23-20.67a8.33,8.33,0,0,1,1.82-6v.57c0,1.78,1.58,5.44,15.28,17,6,5.08,12.13,14,12.13,21.27A11.22,11.22,0,0,1,571.88,422.35Z" style="fill: #002868"/>
    <polygon points="549.71 419.18 549.71 419.18 549.71 419.18 549.71 419.18" style="fill: #fff;fill-rule: evenodd"/>
    <path d="M561.46,442c-3.5-4.38-12.21-12.11-12-14.93.2-2.4.1-4.91.2-7.88-2.63.37-6.33,4.2-6.33,10s3.69,12.51,7,16.94,9.92,9.61,13,12.83c3.47,3.64,6.48,7.64,5.15,10.26,1.21-1.82,6.39-5.83,5.81-11.43S565,446.37,561.46,442Z" style="fill: #fff;fill-rule: evenodd"/>
    <path d="M566.47,446a46.7,46.7,0,0,1-4.41-4.45c-1.15-1.44-2.8-3.19-4.55-5-2.91-3.07-7.3-7.7-7.17-9.17s.14-3,.15-4.63c0-1,0-2.13.06-3.29l-1.11-1.09c-2.82.41-6.9,4.46-6.9,10.7,0,7.36,5.53,15.31,7.22,17.57a71.76,71.76,0,0,0,8.81,8.93c1.64,1.48,3.19,2.89,4.25,4,4.19,4.42,5.8,7.42,4.91,9.16l1.48,1.14a15.6,15.6,0,0,1,1.19-1.42c2-2.17,5.22-5.79,4.73-10.54C574.69,453.63,570.33,449.55,566.47,446Zm3,20.64c-.72-2.79-3.37-5.89-5.6-8.23-1.11-1.18-2.7-2.62-4.37-4.13a71.42,71.42,0,0,1-8.5-8.6c-1.59-2.13-6.78-9.57-6.78-16.3,0-4.44,2.41-7.77,4.61-8.89,0,.65,0,1.27,0,1.88,0,1.58,0,3.07-.14,4.49-.2,2.21,3,5.7,7.78,10.8,1.71,1.81,3.33,3.52,4.42,4.88a48.4,48.4,0,0,0,4.65,4.7c3.55,3.32,7.59,7.09,7.94,10.49C573.85,461.44,571.35,464.48,569.47,466.59Z" style="fill: #002868"/>
    <path d="M550.7,370.18l-3.55,1.69,3.68,3.58L561.5,378l3.55-2.34-3.55-3.25Z" style="fill: #fff;fill-rule: evenodd"/>
    <path d="M561.76,371.59l-11.31-2.33L546.69,371c0,.48,0,1,0,1.43l3.89,3.78,11.25,2.69,3.79-2.49-.06-1.41Zm-.55,5.46-10.1-2.41-2.49-2.43,2.32-1.1q5.16,1,10.3,2.13l2.41,2.2Z" style="fill: #002868"/>
    <path d="M555.53,392.31l-3.23,1.29c.49-1.1,1-2.19,1.45-3.29h0l-.46-.52-1.62,3.95.45.5,3.88-1.39Z" style="fill: #002868;fill-rule: evenodd"/>
    <path d="M552.4,388.79h0l-2.75,2.67.43.48,2.75-2.67Z" style="fill: #002868;fill-rule: evenodd"/>
    <path d="M550.34,386.45l-.42-.47h0l-2.75,2.68,2,2.25.33-.32c-.53-.59-1-1.19-1.57-1.78Z" style="fill: #002868;fill-rule: evenodd"/>
    <path d="M559.45,397.56a1.33,1.33,0,0,1,.67.47,1.42,1.42,0,0,1,.44,1,.85.85,0,0,1-.21.48l.4.45a1,1,0,0,0,.32-1,2.39,2.39,0,0,0-.62-1.14,1.91,1.91,0,0,0-1.05-.7,1,1,0,0,0-.9.26.82.82,0,0,0-.22.84,3.46,3.46,0,0,0,.4.83l.34.56a3.16,3.16,0,0,1,.34.73.5.5,0,0,1-.16.49c-.2.19-.47.18-.8,0a2.61,2.61,0,0,1-.49-.42,1.46,1.46,0,0,1-.46-1.1.94.94,0,0,1,.25-.51l-.39-.45a1.17,1.17,0,0,0-.38,1.05,2.31,2.31,0,0,0,.64,1.28,2.88,2.88,0,0,0,1.07.79.88.88,0,0,0,1-.21.92.92,0,0,0,.26-.88,2.19,2.19,0,0,0-.31-.71l-.35-.58a4.61,4.61,0,0,1-.41-.79.45.45,0,0,1,.1-.5A.55.55,0,0,1,559.45,397.56Z" style="fill: #002868;fill-rule: evenodd"/>
    <path d="M555.37,395.27l1.71,1.93.32-.31L555.69,395l.83-.81,1.86,2.09.33-.33c-.75-.85-1.51-1.7-2.26-2.56L553.7,396l2.3,2.59.32-.32-1.88-2.13Z" style="fill: #002868;fill-rule: evenodd"/>
    <path d="M568.59,410.75a1.38,1.38,0,0,1-.63.21,1.26,1.26,0,0,1-1-.5,1.53,1.53,0,0,1-.46-1.15,1.57,1.57,0,0,1,.53-1.05,1.56,1.56,0,0,1,1.15-.53,1.53,1.53,0,0,1,1,.57,1.61,1.61,0,0,1,.43.81,1.12,1.12,0,0,1-.14.72c.13.16.27.31.41.47a1.38,1.38,0,0,0,.26-1,2.3,2.3,0,0,0-.64-1.3h0a2.12,2.12,0,0,0-1.51-.82,1.81,1.81,0,0,0-1.36.55,2,2,0,0,0-.7,1.7,2.34,2.34,0,0,0,.62,1.31,2.09,2.09,0,0,0,1.35.79,1.56,1.56,0,0,0,1.09-.29C568.87,411.06,568.73,410.91,568.59,410.75Z" style="fill: #002868;fill-rule: evenodd"/>
    <path d="M564.05,402.64l.33-.32-2.52-2.85-.33.32c.35.39.7.78,1,1.18l-2.42,2.35.43.48,2.42-2.35Z" style="fill: #002868;fill-rule: evenodd"/>
    <path d="M570.29,411.84l1.34-1.3-.41-.46h0l-2.75,2.66.41.46,1-.92.92.15c-.1.86-.2,1.71-.29,2.57l.54.62c.11-1,.21-2.06.32-3.1l2.4.4-.59-.66Z" style="fill: #002868;fill-rule: evenodd"/>
    <path d="M566.93,406a2.54,2.54,0,0,0-.75-1.83,2.17,2.17,0,0,0-1.7-.85,1.9,1.9,0,0,0-1.27.57,2,2,0,0,0-.65,1.41,2.49,2.49,0,0,0,.7,1.68,2.23,2.23,0,0,0,1.66.87,1.92,1.92,0,0,0,1.38-.59A2,2,0,0,0,566.93,406Zm-2.13,1.28a1.36,1.36,0,0,1-1.15-.57,1.74,1.74,0,0,1-.54-1.26,1.64,1.64,0,0,1,.51-1,1.45,1.45,0,0,1,1.17-.49,1.65,1.65,0,0,1,1.08.6,1.77,1.77,0,0,1,.49,1.17,1.52,1.52,0,0,1-.5,1.09A1.73,1.73,0,0,1,564.8,407.31Z" style="fill: #002868;fill-rule: evenodd"/>
    <path d="M562.9,453l.66-3.94-.5-.56h0l-2.75,2.67.4.45,2.23-2.16c-.21,1.32-.42,2.64-.64,4l.48.53,2.74-2.66-.39-.45Z" style="fill: #002868;fill-rule: evenodd"/>
    <path d="M552.61,439.35l-.31.3,1,1.1a1.07,1.07,0,0,1-1,.36,1.65,1.65,0,0,1-.91-.57,1.57,1.57,0,0,1-.49-1.2,1.76,1.76,0,0,1,.56-1,1.47,1.47,0,0,1,1.15-.5,1.53,1.53,0,0,1,1,.55,1.87,1.87,0,0,1,.46.81,1,1,0,0,1-.12.78l.42.47a1.46,1.46,0,0,0,.18-1.37,2.86,2.86,0,0,0-.6-1h0a2.18,2.18,0,0,0-1.43-.8,1.87,1.87,0,0,0-1.52.6,2,2,0,0,0-.66,1.54,2.5,2.5,0,0,0,.63,1.38,2.43,2.43,0,0,0,.85.66,2.31,2.31,0,0,0,.66.15l-.25.46.27.3,1.47-1.43C553.52,440.38,553.06,439.87,552.61,439.35Z" style="fill: #002868;fill-rule: evenodd"/>
    <path d="M559.85,444.85l-3.91,1.35.43.49,1.16-.42,1.22,1.39c-.17.38-.33.77-.5,1.15.15.18.3.35.46.52l1.62-3.94Zm-.93,2.36-1-1.1,1.72-.61Z" style="fill: #002868;fill-rule: evenodd"/>
    <path d="M562,447.23l-2.74,2.67.42.48,2.75-2.67Z" style="fill: #002868;fill-rule: evenodd"/>
    <path d="M556.05,445.35l.35-.38a.77.77,0,0,0,.24-.45,1,1,0,0,0-.1-.47,1.09,1.09,0,0,0,.57.11.83.83,0,0,0,.53-.26,1,1,0,0,0,.21-1.12,2.57,2.57,0,0,0-.5-.75l-1.43-1.63h0l-2.75,2.67.42.48,1.18-1.15,1,1.08a1.78,1.78,0,0,1,.33.48.56.56,0,0,1-.13.61l-.44.47a1.69,1.69,0,0,0-.19.24.45.45,0,0,0-.06.12l.52.59.06-.06a.37.37,0,0,1,0-.32A1.24,1.24,0,0,1,556.05,445.35Zm0-2.15h0l-1-1.1.94-.91,1,1.16a1.38,1.38,0,0,1,.29.44.57.57,0,0,1-.16.66.5.5,0,0,1-.55.17A1.43,1.43,0,0,1,556.05,443.2Z" style="fill: #002868;fill-rule: evenodd"/>
    <path d="M619.26,409.76l2.19,3.47-4-2.44-.57.33h0q1.36,2.14,2.71,4.29c.15-.09.3-.18.46-.26l-2.19-3.47,4,2.41.54-.31-2.7-4.28Z" style="fill: #002868;fill-rule: evenodd"/>
    <path d="M614.1,412.75c.42,1.4.85,2.8,1.27,4.21l-3.3-3-.69.4h0l2.7,4.28c.16-.08.31-.17.46-.26L613,415.81l-.31-.47-.31-.48-.08-.13,3.3,3,.48-.28c-.43-1.4-.85-2.8-1.28-4.2.15.23.29.45.41.66s.21.35.27.43c.53.85,1.06,1.69,1.6,2.53l.45-.26-2.7-4.29C614.55,412.48,614.32,412.61,614.1,412.75Z" style="fill: #002868;fill-rule: evenodd"/>
    <path d="M615.64,411.85q1.35,2.14,2.71,4.29l.48-.28-2.7-4.29Z" style="fill: #002868;fill-rule: evenodd"/>
    <path d="M627.49,408a1.71,1.71,0,0,0-.73.05l-.58.15a3.25,3.25,0,0,1-.8.14.66.66,0,0,1-.5-.34.88.88,0,0,1-.14-.61.91.91,0,0,1,.48-.57,1,1,0,0,1,1-.09,1.46,1.46,0,0,1,.48.44l.46-.26a1.6,1.6,0,0,0-1-.82,1.74,1.74,0,0,0-1.15.22,1.29,1.29,0,0,0-.7.92,1.58,1.58,0,0,0,.26,1.14,1.22,1.22,0,0,0,.85.6,2.17,2.17,0,0,0,.84-.1l.56-.15a2.08,2.08,0,0,1,.74-.07.78.78,0,0,1,.5.39.74.74,0,0,1,0,.9,1.34,1.34,0,0,1-.43.38,1.07,1.07,0,0,1-1.11.06,1.91,1.91,0,0,1-.52-.51h0l-.45.26a1.89,1.89,0,0,0,1.06.88,1.6,1.6,0,0,0,1.3-.18,1.91,1.91,0,0,0,.8-.89,1.35,1.35,0,0,0-.22-1.26A1.37,1.37,0,0,0,627.49,408Z" style="fill: #002868;fill-rule: evenodd"/>
    <path d="M623.34,412.55c-.3-.48-.61-1-.91-1.45l2-1.13-.31-.5c-.65.38-1.3.76-2,1.13l-.82-1.3,2.12-1.22-.33-.53-2.59,1.5,2.71,4.29,2.62-1.52c-.11-.17-.22-.34-.32-.51Z" style="fill: #002868;fill-rule: evenodd"/>
    <path d="M614.54,461.75a1.81,1.81,0,0,0-1.85.07,1.63,1.63,0,0,0-.85,1.58,3.94,3.94,0,0,0,2,3,1.77,1.77,0,0,0,1.7-.09,1.63,1.63,0,0,0,.88-1.52,3.47,3.47,0,0,0-.6-1.83A3.37,3.37,0,0,0,614.54,461.75Zm.73,4.05a1.24,1.24,0,0,1-1.27.07,2.74,2.74,0,0,1-1.06-1,2.59,2.59,0,0,1-.5-1.54,1.18,1.18,0,0,1,.61-1,1.24,1.24,0,0,1,1.18-.06,2.55,2.55,0,0,1,1.1,1,3.18,3.18,0,0,1,.51,1.43A1,1,0,0,1,615.27,465.8Z" style="fill: #002868;fill-rule: evenodd"/>
    <path d="M615.19,460.54l2.7,4.28.49-.28q-1.35-2.15-2.71-4.28Z" style="fill: #002868;fill-rule: evenodd"/>
    <path d="M619.31,463.31q-1.18-1.89-2.38-3.78l-.48.28,2.71,4.28,2.27-1.31-.32-.51Z" style="fill: #002868;fill-rule: evenodd"/>
    <path d="M516.78,503.31c0-.27,67.94,38.88,70.9,40.23,3,1.1,70.41-9.94,70.41-10l17.79-23.49c-55.59-12-111.17-24.84-166.76-35.28Q512.95,489.06,516.78,503.31Z" style="fill: #fff;fill-rule: evenodd"/>
    <path d="M509.12,473.93l-.81,1q3.9,14.46,7.78,28.94l.41.23c2.77,1.3,68,38.95,71,40.3l.14,0c4.26.86,59.54-8.11,70.7-10l.25,0,17.94-23.69-.69-1.52C620.29,497.26,564.71,484.38,509.12,473.93Zm148.43,58.8c-26.58,4.38-66.82,10.56-69.7,10h0c-2.36-1-51.19-29.32-70.36-39.94q-3.6-13.44-7.22-26.87c54.69,10.3,109.37,22.94,164,34.72Q665.92,521.69,657.55,532.73Z" style="fill: #002868"/>
    <path d="M572.12,498l3.7-.25v-38.4l-3.7-.27Z" style="fill: #fff;fill-rule: evenodd"/>
    <path d="M571.28,458.12V497.8l1.05,1.07,4.33-.29V459.51c-.31-.36-.63-.71-.95-1.07Zm3.7,38.76-2,.13V460l2,.15Z" style="fill: #002868"/>
    <path d="M605.72,465.75q.36,19.78.73,39.58l3.71.81q-.24-19.77-.49-39.54Z" style="fill: #fff;fill-rule: evenodd"/>
    <path d="M609.67,465.73l-3.95-.86-.84.71q.36,19.8.74,39.59c.28.35.56.69.83,1l3.71.81.84-.71q-.24-19.77-.49-39.53Zm-2.39,38.91q-.36-18.92-.71-37.83l2.27.49q.24,18.88.47,37.78Z" style="fill: #002868"/>
    <path d="M568.66,496.48q.12,3.38.25,6.75,21.86,4.59,43.72,9.37l-.24-6.75Q590.52,501.1,568.66,496.48Z" style="fill: #fff;fill-rule: evenodd"/>
    <path d="M612.39,505q-21.87-4.74-43.73-9.37l-.84.74c.08,2.25.17,4.5.25,6.75l.84,1q21.86,4.59,43.72,9.37l.84-.73q-.12-3.37-.25-6.75Zm-42.67-2.45c-.07-1.66-.13-3.32-.19-5q21,4.41,42.05,9l.18,5Q590.75,507,569.72,502.52Z" style="fill: #002868"/>
    <path d="M566.43,499.87v6.19q24,5.15,47.93,10.53l-.24-6.5Q590.27,504.9,566.43,499.87Z" style="fill: #fff;fill-rule: evenodd"/>
    <path d="M614.12,509.21c-15.9-3.45-31.79-6.89-47.69-10.21l-.84.7v6.19l.84,1.05q24,5.15,47.93,10.52l.84-.72-.24-6.5Zm-46.85-3.84v-4.44q23,4.81,46,9.86l.18,4.73Q590.38,510.36,567.27,505.37Z" style="fill: #002868"/>
    <path d="M617.84,538.19l8.07,2.51V529.58l-8-4.65Q617.89,531.56,617.84,538.19Z" style="fill: #fff;fill-rule: evenodd"/>
    <path d="M617.11,524.74q-.06,6.63-.11,13.26l.77,1,8.07,2.52.91-.68V529.14q-4.26-2.49-8.53-5Zm1.67,1.6,6.29,3.68v9.54l-6.38-2Z" style="fill: #002868"/>
    <path d="M555.14,520.28l7.14,5.36q.15-5.85.31-11.7l-6.63-.72C555.69,515.57,555.41,517.92,555.14,520.28Z" style="fill: #fff;fill-rule: evenodd"/>
    <path d="M555.21,512.26c-.33,2.77-.65,5.55-1,8.33l7.66,5.75,1.22-.5.32-11.7-.92-1.09Zm6.26,11.79L556,520q.33-2.9.68-5.79l5,.55C561.64,517.83,561.55,520.94,561.47,524.05Z" style="fill: #002868"/>
    <path d="M621.78,523c-3.32-1-61.37-13.25-63-13.48s-3.73,2.14-3.31,7.95h0c.41-1,1.44-1.19,5.38,0s3.31,2,29.28,7.79,21.81,3,28.64,4.92,7.16,5.32,7.16,5.32v-6.15C625.91,527.43,625.09,523.9,621.78,523Z" style="fill: #fff;fill-rule: evenodd"/>
    <path d="M621.83,522.1c-1.93-.51-22-5-59.75-12.82l-3.32-.68a2.51,2.51,0,0,0-2.22.69c-1.49,1.38-2.2,4.3-1.93,8l1.62.6c.17-.43.69-.8,4.53.32.83.24,1.47.48,2.21.75,2.72,1,6.83,2.54,27.13,7,16.41,3.67,20.92,3.94,23.61,4.08a19.05,19.05,0,0,1,5,.83c5.9,1.66,6.38,4.37,6.38,4.37l1.67.28v-6.16C626.75,527.23,625.72,523.2,621.83,522.1Zm3.24,10.44a13.88,13.88,0,0,0-6.27-3.31c-.71-.2-1.31-.35-1.83-.47a18.84,18.84,0,0,0-3.51-.42c-2.65-.15-7.07-.42-23.34-4.05-20.18-4.48-24.22-6-26.89-7-.77-.29-1.44-.54-2.34-.81a12.56,12.56,0,0,0-4.65-.76c.07-3.38,1.16-4.67,1.53-5a1.14,1.14,0,0,1,1-.38l3.32.68c37.69,7.78,57.75,12.29,59.64,12.78,3.26.93,3.35,4.82,3.35,5.26Z" style="fill: #002868"/>
    <path d="M618.11,523.47h0a1.2,1.2,0,0,0-1.51.87,4.3,4.3,0,0,0-.22,1.49,4.37,4.37,0,0,0,.37,1.93,1.93,1.93,0,0,0,1.35,1.12,1.18,1.18,0,0,0,1.45-.69,3.93,3.93,0,0,0,.31-1.71,4.35,4.35,0,0,0-.34-1.86A2,2,0,0,0,618.11,523.47Zm.78,4.52a.73.73,0,0,1-.79.29h0a1.23,1.23,0,0,1-.87-.94,4.52,4.52,0,0,1-.16-1.33,3.59,3.59,0,0,1,.25-1.56.67.67,0,0,1,.82-.37,1.07,1.07,0,0,1,.83.76,4.76,4.76,0,0,1,.21,1.52A3.09,3.09,0,0,1,618.89,528Z" style="fill: #002868;fill-rule: evenodd"/>
    <path d="M614.05,522.58a1.21,1.21,0,0,0-1.24.28,1.64,1.64,0,0,0-.42,1.16,2.17,2.17,0,0,0,.43,1.32,1.85,1.85,0,0,0,1.15.72,1.52,1.52,0,0,0,.67,0,.9.9,0,0,0,.53-.38,2.75,2.75,0,0,1-.46,1.51.78.78,0,0,1-.77.22,1,1,0,0,1-.44-.2,1.11,1.11,0,0,1-.41-.85l-.64-.14a1.7,1.7,0,0,0,.39,1.1A1.85,1.85,0,0,0,614,528a1.27,1.27,0,0,0,1.57-.9,4.54,4.54,0,0,0,.28-1.66,4,4,0,0,0-.24-1.47A2,2,0,0,0,614.05,522.58Zm.69,2.81a.85.85,0,0,1-.68.11,1.19,1.19,0,0,1-.77-.47,1.53,1.53,0,0,1-.24-.87,1.1,1.1,0,0,1,.27-.81.76.76,0,0,1,.74-.16,1.24,1.24,0,0,1,.72.44,1.46,1.46,0,0,1,.28.92A.92.92,0,0,1,614.74,525.39Z" style="fill: #002868;fill-rule: evenodd"/>
    <polygon points="610.12 526.55 610.12 526.55 610.12 526.55 610.12 526.55" style="fill: #002868;fill-rule: evenodd"/>
    <path d="M611,524.37a1,1,0,0,0,.42-.24,1.06,1.06,0,0,0,.24-.75,1.61,1.61,0,0,0-.41-1,2,2,0,0,0-1.14-.65,1.33,1.33,0,0,0-1.16.17,1.15,1.15,0,0,0-.41.93,1.26,1.26,0,0,0,.28.82,1.67,1.67,0,0,0,.41.37,1,1,0,0,0-.65.38,1.25,1.25,0,0,0-.22.76,1.82,1.82,0,0,0,.51,1.32,2.46,2.46,0,0,0,1.25.69,1.43,1.43,0,0,0,1.26-.21,1.35,1.35,0,0,0,.45-1.08,1.65,1.65,0,0,0-.33-1A2.26,2.26,0,0,0,611,524.37ZM609.2,523a.61.61,0,0,1,.86-.64,1.13,1.13,0,0,1,.69.4,1,1,0,0,1,.23.59.65.65,0,0,1-.24.53.75.75,0,0,1-.66.1h0a1.27,1.27,0,0,1-.62-.34A.88.88,0,0,1,609.2,523Zm1.65,3.51a1,1,0,0,1-.73.09h0a1.3,1.3,0,0,1-.81-.48,1.23,1.23,0,0,1-.26-.77.77.77,0,0,1,.28-.68.89.89,0,0,1,.75-.11,1.32,1.32,0,0,1,.76.43,1.2,1.2,0,0,1,.3.84A.74.74,0,0,1,610.85,526.46Z" style="fill: #002868;fill-rule: evenodd"/>
    <path d="M605.75,521.59a2.55,2.55,0,0,1-1,0v.51h0l1.19.25v3.73l.68.15V521l-.5-.11C606.07,521.29,605.93,521.51,605.75,521.59Z" style="fill: #002868;fill-rule: evenodd"/>
    <path d="M575.69,514.2a1.21,1.21,0,0,0-1.24.28,1.65,1.65,0,0,0-.42,1.17,2.14,2.14,0,0,0,.42,1.31,1.87,1.87,0,0,0,1.16.72,1.51,1.51,0,0,0,.67,0,.88.88,0,0,0,.52-.38,2.77,2.77,0,0,1-.45,1.51.8.8,0,0,1-.78.23,1.13,1.13,0,0,1-.43-.2,1.11,1.11,0,0,1-.41-.85l-.64-.13a1.69,1.69,0,0,0,.39,1.09,1.85,1.85,0,0,0,1.12.65,1.27,1.27,0,0,0,1.56-.92,4.28,4.28,0,0,0,.28-1.65,4.15,4.15,0,0,0-.23-1.48A2,2,0,0,0,575.69,514.2Zm.69,2.8a.91.91,0,0,1-.69.12h0a1.19,1.19,0,0,1-.76-.47,1.49,1.49,0,0,1-.24-.87A1.1,1.1,0,0,1,575,515a.78.78,0,0,1,.74-.17,1.19,1.19,0,0,1,.71.44,1.39,1.39,0,0,1,.29.92A.92.92,0,0,1,576.38,517Z" style="fill: #002868;fill-rule: evenodd"/>
    <polygon points="571.82 518.2 571.82 518.2 571.82 518.2 571.82 518.2" style="fill: #002868;fill-rule: evenodd"/>
    <path d="M571.91,515.29a1.41,1.41,0,0,0-.68,0,1,1,0,0,0-.55.38,2.68,2.68,0,0,1,.35-1.39.77.77,0,0,1,.85-.34,1,1,0,0,1,.69.48,1.43,1.43,0,0,1,.18.53l.63.13a1.85,1.85,0,0,0-.34-1,1.73,1.73,0,0,0-1.17-.71h0a1.29,1.29,0,0,0-1.61,1A4.64,4.64,0,0,0,570,516a3.3,3.3,0,0,0,.51,2,2.1,2.1,0,0,0,1.23.81,1.29,1.29,0,0,0,1.27-.28,1.62,1.62,0,0,0,.45-1.18A2,2,0,0,0,573,516,2.07,2.07,0,0,0,571.91,515.29Zm.66,2.71a.69.69,0,0,1-.75.19h0a1.22,1.22,0,0,1-.78-.5,1.55,1.55,0,0,1-.28-.9.93.93,0,0,1,.31-.79.94.94,0,0,1,.72-.13,1.11,1.11,0,0,1,.81.54,1.68,1.68,0,0,1,.22.82A1.15,1.15,0,0,1,572.57,518Z" style="fill: #002868;fill-rule: evenodd"/>
    <path d="M568.61,515.16a1,1,0,0,0,.42-.25,1.06,1.06,0,0,0,.24-.75,1.52,1.52,0,0,0-.42-1,1.9,1.9,0,0,0-1.14-.64,1.27,1.27,0,0,0-1.15.18,1.1,1.1,0,0,0-.41.92,1.28,1.28,0,0,0,.28.83,1.67,1.67,0,0,0,.41.36h0a1,1,0,0,0-.65.38,1.22,1.22,0,0,0-.22.76,1.82,1.82,0,0,0,.51,1.32,2.37,2.37,0,0,0,1.25.68,1.41,1.41,0,0,0,1.26-.22,1.35,1.35,0,0,0,.45-1.08,1.6,1.6,0,0,0-.34-1A2.42,2.42,0,0,0,568.61,515.16Zm-1.8-1.41a.73.73,0,0,1,.21-.54.69.69,0,0,1,.66-.1,1.08,1.08,0,0,1,.69.39.94.94,0,0,1,.22.58.68.68,0,0,1-.23.54.75.75,0,0,1-.66.1h0a1.16,1.16,0,0,1-.62-.34A.83.83,0,0,1,566.81,513.75Zm1.66,3.5a1,1,0,0,1-.73.09h0a1.26,1.26,0,0,1-.81-.47,1.23,1.23,0,0,1-.26-.77.78.78,0,0,1,.28-.68.91.91,0,0,1,.74-.12,1.4,1.4,0,0,1,.77.43,1.17,1.17,0,0,1,.3.84A.77.77,0,0,1,568.47,517.25Z" style="fill: #002868;fill-rule: evenodd"/>
    <polygon points="567.7 514.73 567.7 514.73 567.7 514.73 567.7 514.73" style="fill: #002868;fill-rule: evenodd"/>
    <path d="M563.37,512.41a2.3,2.3,0,0,1-1,0V513h0l1.19.25v3.73l.68.14v-5.25l-.5-.1C563.69,512.11,563.55,512.34,563.37,512.41Z" style="fill: #002868;fill-rule: evenodd"/>
    <path d="M528.64,502.77c42.74,8.28,85.48,17.77,128.21,26.93q1.13-2.46,2.23-4.93c-45.54-10.1-91.08-20.6-136.62-29.65Z" style="fill: #fff;fill-rule: evenodd"/>
    <path d="M522.46,494.25c-.2.46-.4.92-.59,1.38l6.42,7.95c43,8.33,86.08,17.89,129.12,27.12l2.44-5.41-.77-1.39C613.54,513.79,568,503.29,522.46,494.25ZM656.3,528.71C613.86,519.6,571.42,510.19,529,502l-4.48-5.56c44.43,8.87,88.87,19.1,133.31,29C657.3,526.48,656.8,527.6,656.3,528.71Z" style="fill: #002868"/>
    <path d="M569.89,459.89l8.65,1.82c.08-1,.16-2,.25-3L569.65,457Z" style="fill: #fff;fill-rule: evenodd"/>
    <path d="M569.62,456.12l-.81.78c.08,1,.16,1.93.25,2.89l.83,1,8.65,1.83.83-.63c.09-1,.17-2,.25-3l-.86-1.13Zm8.14,4.55-7.1-1.5-.1-1.13,7.31,1.34C577.83,459.81,577.8,460.24,577.76,460.67Z" style="fill: #002868"/>
    <path d="M604,467.18l7.41,1.6c.08-1,.16-2,.25-3L603.74,464C603.82,465.08,603.9,466.13,604,467.18Z" style="fill: #fff;fill-rule: evenodd"/>
    <path d="M603.74,463.15l-.84.77c.08,1.05.17,2.1.25,3.15l.84,1,7.41,1.61.84-.62.24-3-.83-1.13Zm6.89,4.59-5.87-1.27-.11-1.37,6.08,1.32Z" style="fill: #002868"/>
    <path d="M571.87,457.21q18.52,3.9,37.06,8v-3.87q-18.4-4.12-36.81-8.15C572,454.49,572,455.85,571.87,457.21Z" style="fill: #fff;fill-rule: evenodd"/>
    <path d="M572.12,452.26l-.84.65c-.09,1.35-.17,2.71-.25,4.07l.84,1.1Q590.4,462,608.93,466l.84-.69v-3.87l-.84-1.05Q590.53,456.3,572.12,452.26Zm36,11.84q-17.67-3.84-35.33-7.58c0-.78.1-1.56.14-2.33Q590.5,458,608.09,462Z" style="fill: #002868"/>
    <path d="M589.16,462.18c-4.2-1.16-5.43,2.19-5.43,2.19s5.93,2,5.43,4.51-3,8.38-4.2,8.89,7.91,1.18,10.13,1.4h0C594.6,476.23,593.36,463.34,589.16,462.18Z" style="fill: #fff;fill-rule: evenodd"/>
    <path d="M589.21,461.31c-3.81-1-5.77,1.24-6.27,2.59l.69,1.31c1.2.42,3.9,1.64,4.59,2.79a.67.67,0,0,1,.12.53c-.53,2.68-3,8-3.81,8.4a.83.83,0,0,0-.47,1.07c.14.47.23.75,1.48,1s3.5.5,8,.89l1.65.15.73-.87c-.06-.36-.13-.87-.22-1.49C594.6,469.82,593,462.37,589.21,461.31Zm4.13,16.82c-1.63-.14-4.86-.43-6.76-.69a29.81,29.81,0,0,0,3.41-8.21,2.72,2.72,0,0,0-.4-2c-.92-1.52-3.13-2.67-4.54-3.28a3.67,3.67,0,0,1,4.07-.95c3,.83,4.44,11.17,4.92,14.57,0,.21.06.41.08.59Z" style="fill: #002868"/>
    <path d="M586.69,476.08l-1,17.31,11.86,2.8q-.24-8.55-.49-17.11Z" style="fill: #fff;fill-rule: evenodd"/>
    <path d="M597.13,478.22l-10.38-3c-.3.21-.6.42-.89.64q-.51,8.65-1,17.31c.28.36.55.73.82,1.1l11.87,2.81.85-.72q-.24-8.57-.49-17.12Zm-10.54,14.5q.45-7.77.89-15.54l8.77,2.54.45,15.39Z" style="fill: #002868"/>
    <polygon points="575.82 487.08 575.82 487.08 575.82 487.08 575.82 487.08" style="fill: #fff;fill-rule: evenodd"/>
    <path d="M600.53,472.35c-3-.9-10.87,4.88-10.87,4.88s-5.19-6.79-8.15-7.67-4.7.8-5.19,3.79c-.71,2.87-.5,13.73-.5,13.73s4.39-2.44,6.18-3.76c1.48-1.49,5.93-2.86,5.93-2.86a21.61,21.61,0,0,1,1.23,5.16c.25,2.63.5,9.39.5,9.39l2.74.69.47-13.92s3.46,1.26,5.19,2.15c2,1.21,8.18,9.81,8.18,9.81s-.17-11.52-.26-13.78A9.71,9.71,0,0,0,600.53,472.35Z" style="fill: #fff;fill-rule: evenodd"/>
    <path d="M600.76,471.56l-.16-.06c-2.87-.85-8.72,3-10.9,4.53-1.51-1.89-5.44-6.53-8.12-7.33-3.2-1-5.48.66-6.08,4.27-.73,2.94-.52,13.51-.52,14,.45.32.9.64,1.34,1,.18-.11,4.45-2.49,6.32-3.87.92-.93,3.35-1.91,4.85-2.43a19.94,19.94,0,0,1,.84,3.93c.24,2.57.49,9.26.49,9.33l.81,1,2.74.69.87-.66q.21-6.46.44-12.94c1.13.43,3,1.17,4.09,1.72,1.33.79,5.51,6.25,7.84,9.5l1.47-.28c0-.47-.18-11.56-.26-13.87A10.86,10.86,0,0,0,600.76,471.56Zm-2.47,11.58c-1.77-.91-5.16-2.15-5.3-2.2l-1,.63q-.22,6.53-.44,13.05l-1.12-.29c-.08-1.88-.27-6.51-.47-8.61a23.28,23.28,0,0,0-1.3-5.45l-1.15-.67c-.18.06-4.61,1.43-6.12,2.95-1.13.84-3.36,2.15-4.79,3,0-3.15,0-9.74.51-11.85.26-1.61,1.17-4.2,4.29-3.25,2.16.64,6.23,5.47,7.61,7.28l1.17.3c2.9-2.12,8.15-5.25,10.13-4.82h0a8.49,8.49,0,0,1,4.75,6.62c.06,1.6.17,7.94.22,11.43C603.31,488.48,599.91,484.11,598.29,483.14Z" style="fill: #002868"/>
    <path d="M575.82,500.56c0,13.14,14.92,31,14.92,31s14.75-12.8,15-24.09V494.61q-14.84-3.27-29.66-6.47S575.58,487.37,575.82,500.56Z" style="fill: #fff;fill-rule: evenodd"/>
    <path d="M576.47,487.35l-.12-.19-.58.09c-.68.1-1,.15-.79,13.13,0,13.36,14.56,31,15.18,31.72l1.19.22c.61-.54,15-13.22,15.21-24.65V494.79l-.84-1.06Q591.1,490.51,576.47,487.35Zm28.41,19.94c-.2,9.63-11.42,20.51-14.17,23-2.76-3.49-14.06-18.46-14.05-29.6-.14-7.79,0-10.57.06-11.56q14.09,3,28.16,6.14Z" style="fill: #002868"/>
    <path d="M580.23,504v11.6c.71,1.29,1.41,2.58,2.11,3.87q0-7.51,0-15Z" style="fill: #002868;fill-rule: evenodd"/>
    <path d="M584.85,504.94q0,9.3,0,18.61l2.06,3V505.39Z" style="fill: #002868;fill-rule: evenodd"/>
    <path d="M589.47,530l1.26,1.57,1.25-1.17V506.47l-2.51-.54Z" style="fill: #002868;fill-rule: evenodd"/>
    <path d="M594.5,507q0,10.44,0,20.88l2.09-2.29q0-9.08,0-18.14Z" style="fill: #002868;fill-rule: evenodd"/>
    <path d="M599.15,522.48l2.06-2.91c0-3.7,0-7.41,0-11.11l-2.1-.45Z" style="fill: #002868;fill-rule: evenodd"/>
    <path d="M578.13,510.44v-6.93l-2.1-.44Z" style="fill: #002868;fill-rule: evenodd"/>
    <path d="M603.34,515.89l2.25-6.48-2.26-.49C603.34,511.24,603.34,513.57,603.34,515.89Z" style="fill: #002868;fill-rule: evenodd"/>
    <path d="M575.82,500.56q15,3.12,29.9,6.31V494.61q-15-3.41-29.9-6.75Z" style="fill: #fff;fill-rule: evenodd"/>
    <path d="M575.83,487l-.85.69v12.71l.85,1.05q14.94,3.12,29.89,6.31l.84-.69V494.79l-.84-1.06Q590.78,490.32,575.83,487Zm29,18.83q-14.11-3-28.22-6V488.92q14.12,3.15,28.22,6.37Z" style="fill: #002868"/>
    <path d="M592,496.72c-.41-1.42-.82-2.83-1.24-4.25h0c-.41,1.24-.82,2.48-1.24,3.71l-4-.86,3.25,3.16c-.41,1.23-.83,2.47-1.24,3.71l3.24-1.76,3.25,3.15-1.24-4.24,3.24-1.76Z" style="fill: #002868;fill-rule: evenodd"/>
    <path d="M665.69,500.9l3.47,1.11.35-42.27-2.78-.6Q666.22,480,665.69,500.9Z" style="fill: #fff;fill-rule: evenodd"/>
    <path d="M666.73,458.27l-.84.67q-.51,20.88-1,41.76c.25.35.51.7.76,1.06l3.47,1.11.92-.67q.18-21.13.35-42.27l-.84-1.07Zm1.6,42.6-1.78-.57q.51-20.06,1-40.1l1.11.23Z" style="fill: #002868"/>
    <path d="M675.75,432.48c-1.39-.65-6.24,4.1-6.24,4.1.11.74.23,1.49.34,2.24h0V450.4c0,3.26-4.85,6.92-4.51,9.53s3.47,2.92,4.51,2.42,6.6-9.09,6.6-14.88S677.14,433.14,675.75,432.48Z" style="fill: #fff;fill-rule: evenodd"/>
    <path d="M676,431.68c-1.59-.75-4.71,1.87-7.09,4.18l-.26.26.4,2.59v11.51c0,1.4-1.22,3.11-2.29,4.63-1.25,1.75-2.42,3.4-2.21,5a3.91,3.91,0,0,0,1.69,2.75,4.64,4.64,0,0,0,1.66.7,4.09,4.09,0,0,0,2.46-.15c1.43-.69,7-9.7,7-15.53,0-1.43,0-3,.08-4.65C677.58,435.37,677.51,432.41,676,431.68Zm-.27,10.91c0,1.63-.08,3.25-.08,4.7,0,5.56-5.33,13.68-6.22,14.23a3.08,3.08,0,0,1-2.5-.34,1.58,1.58,0,0,1-.72-1.19c-.12-1,1-2.52,2-3.89,1.26-1.77,2.56-3.61,2.56-5.52V439l-.29-2c2.09-2,4.3-3.61,5-3.74C675.91,434.53,675.78,439.35,675.69,442.59Z" style="fill: #002868"/>
    <path d="M656,492.65c-1.73-1.82-7.28-3-8.67-3,0,0-.7,13.61-.69,17.22s-.35,7.53-2.78,9.17-4.51.47-5.21,1.76a2.58,2.58,0,0,0,.35,2.61l15.62,3s-.7-13.18-.35-17.81S657.71,494.47,656,492.65Z" style="fill: #fff;fill-rule: evenodd"/>
    <path d="M647.1,488.79l-.61,0,0,.64c0,.56-.7,13.67-.7,17.27,0,3.41-.29,7.09-2.48,8.57a5.68,5.68,0,0,1-3,.91c-.92.07-1.87.15-2.37,1.08a3.46,3.46,0,0,0,.51,3.65l.25.32,16,3.11.83-.75c0-.13-.69-13.17-.35-17.69a34.74,34.74,0,0,1,1.17-5.69c1-3.68,1.74-6.58.25-8.15C654.48,490,648.6,488.72,647.1,488.79Zm7.53,10.64a34.7,34.7,0,0,0-1.23,6c-.3,4,.15,13.92.3,17l-14.31-2.78a1.38,1.38,0,0,1,0-1.26c.15-.29.48-.34,1.32-.41a7,7,0,0,0,3.68-1.12c2.7-1.83,3.07-6,3.07-9.77,0-3.09.51-13.67.65-16.48,1.9.2,6.13,1.33,7.35,2.61C656.09,493.9,655.21,497.23,654.63,499.43Z" style="fill: #002868"/>
    <polygon points="630.99 482.15 630.99 482.15 630.99 482.15 630.99 482.15" style="fill: #fff;fill-rule: evenodd"/>
    <path d="M631,482.15s8.33,8.69,8,11.15-4.16,4.52-2.77,6.27,2.42,1.62,2.42,1.62l11.46-8.37q-6.6-7-13.19-14.09Z" style="fill: #fff;fill-rule: evenodd"/>
    <path d="M636.91,477.62l-6.43,3.72c0,.46,0,.92,0,1.38,3.84,4,7.84,9.09,7.67,10.27a6.42,6.42,0,0,1-1.55,2.63c-1.07,1.32-2.28,2.81-1,4.44a4.94,4.94,0,0,0,2.7,2,2.2,2.2,0,0,0,.59.05l.17,0,11.58-8.46,0-1.33Zm1.35,22.65a3,3,0,0,1-1.47-1.19c-.28-.36.59-1.43,1.16-2.14a7.23,7.23,0,0,0,1.85-3.34c.34-2.42-4.85-8.35-7.45-11.14q2.26-1.31,4.52-2.62l11.92,12.74Z" style="fill: #002868"/>
    <path d="M666,500.26c-4.51-1-8-6.79-8-6.79h0c0,3.61.34,9.12,8.32,11.2s10.07-15.21,10.07-15.21S670.55,501.23,666,500.26Z" style="fill: #fff;fill-rule: evenodd"/>
    <path d="M666,499.38c-4-.86-7.27-6.22-7.3-6.28l-1.52.18c0,3,0,9.88,9.13,12.26l.28.07c8.42,1.81,10.56-15.14,10.65-15.87l-1.59-.82C673.49,493.3,668.93,500,666,499.38Zm.38,4.43c-5.51-1.44-7-4.5-7.4-7.68,1.54,1.9,4.05,4.36,7,5s6.24-3.15,8.47-6.51C673.15,499.51,670.6,504.84,666.42,503.81Z" style="fill: #002868"/>
    <polygon points="656.67 449.37 656.67 449.37 656.67 449.37 656.67 449.37" style="fill: #fff;fill-rule: evenodd"/>
    <path d="M662.92,417.78c-1.74-1.45-19.78-7.54-21.17-7.84s-6.94,2.1-7.63,5.21A139.08,139.08,0,0,0,632,431.71c0,2.89.3,7.36.3,7.36l5.26-2.53c.57,1.81,1.15,3.63,1.73,5.44l17.35,7.39c2.08-1.36,2.78-11.7,2.78-11.7l3.12-5.48s5.2,7.27,7.63,7.43,5.9.9,5.9-1.27,1-5.21-.69-7.39S664.65,419.25,662.92,417.78Z" style="fill: #fff;fill-rule: evenodd"/>
    <path d="M663.35,417.13c-2.05-1.72-20.63-7.85-21.6-8.07-1.76-.38-7.66,2.17-8.45,5.72a138.51,138.51,0,0,0-2.11,16.74c0,2.9.29,7.24.3,7.43l1.31.95,4.36-2.1,1.53,4.81,18.21,7.75.31-.2c2.17-1.42,2.91-9.92,3.06-12.07l2.49-4.35c1.71,2.26,5.3,6.62,7.56,6.77l1.19.11c2.42.23,5.43.52,5.43-2.09a16.63,16.63,0,0,1,.14-1.74c.22-1.94.49-4.35-1.08-6.32C674.18,428.19,665.08,418.58,663.35,417.13Zm12.06,19.1a17,17,0,0,0-.15,1.94c0,1-1.78.87-3.94.67-.43,0-.84-.09-1.24-.11-1.22-.06-4.52-3.69-6.88-7l-1.37-.12-3.21,5.62v.18c-.26,3.87-1.11,9.54-2.23,10.93l-16.43-7c-.52-1.65-1.05-3.3-1.57-4.95l-1.26-.7-4,1.94c-.09-1.55-.21-4-.21-5.76a138.25,138.25,0,0,1,2.07-16.37c.62-2.79,5.9-4.9,6.81-4.71,1.71.38,19.3,6.44,20.73,7.63,1.63,1.37,10.61,10.86,12.33,13C675.81,432.71,675.61,434.5,675.41,436.23Z" style="fill: #002868"/>
    <path d="M647,409.62a12,12,0,0,0-8.67,1h0c3.81,5.17,4.86,16.62,4.86,16.62s1-5.93,3.81-7.5,9.37-.49,9.37-3.75S649,410.07,647,409.62Z" style="fill: #fff;fill-rule: evenodd"/>
    <path d="M647,408.74c-3.58-.77-6.67-.41-9.19,1.08l-.1,1.26c3.58,4.86,4.63,16,4.64,16.07l1.66.43c.28-1.56,1.44-5.85,3.5-7a12.66,12.66,0,0,1,4-.94c2.82-.38,5.73-.78,5.73-3.44C657.16,411.87,648.63,409.11,647,408.74Zm3.94,9.1a13.21,13.21,0,0,0-4.44,1.1,8.22,8.22,0,0,0-3.05,4.2c-.62-3.58-1.8-8.67-3.91-12.08a11.35,11.35,0,0,1,7.46-.56c2.61.56,8.53,3.16,8.53,5.31C655.48,417.22,653.15,417.54,650.89,417.84Z" style="fill: #002868"/>
    <path d="M643.14,409.88c0,3.61,1.39,5.37,3.12,6.1s5.9-.52,5.55-2.41S643.14,409.88,643.14,409.88Z" style="fill: #fff;fill-rule: evenodd"/>
    <path d="M643.14,409l-.84.69c0,4.55,2.06,6.38,3.8,7.12a2.62,2.62,0,0,0,.58.18,6.76,6.76,0,0,0,5-1.21,2.24,2.24,0,0,0,.92-2.2C652.24,411.41,647.25,409.9,643.14,409Zm7.4,5.29a5.22,5.22,0,0,1-4.11.87c-.56-.24-2.17-.92-2.42-4.21,3.43.83,6.59,2,7,2.61C651,413.7,650.91,414,650.54,414.29Z" style="fill: #002868"/>
    <path d="M644.53,409.82s0,4.34,2.08,4.43,3.82-3.88,3.82-3.88l-5.9-.55Z" style="fill: #fff;fill-rule: evenodd"/>
    <path d="M644.43,408.92l-.74.71c0,.53.06,3.25,1.35,4.67a2.55,2.55,0,0,0,1.33.8,2.33,2.33,0,0,0,.38,0c2.47.11,4.25-3.81,4.45-4.26l-.87-1.4Zm2,4.44a.44.44,0,0,1-.34-.16,5.06,5.06,0,0,1-.72-2.42l3.58.34C648.27,412.29,647.29,413.39,646.47,413.36Z" style="fill: #002868"/>
    <path d="M643.3,392.36c-.13,2.52-.39,5.42-.77,5.87a9.47,9.47,0,0,0-1.8,3.37c-.13,1,1.15,1.19,1.15,1.19s-.25,4.92-.38,5.83,2.06.58,3,2.39.9,4.1,1.42,3.8a31.89,31.89,0,0,0,3.47-2.87c1-1,2.58.29,3-1.23s.77-13.54.77-13.54l-9.79-4.81Z" style="fill: #fff;fill-rule: evenodd"/>
    <path d="M642.46,392.13a24.08,24.08,0,0,1-.6,5.43,10.41,10.41,0,0,0-2,3.75,2,2,0,0,0,.41,1.47,2.23,2.23,0,0,0,.7.59c-.09,1.65-.25,4.34-.33,4.95-.18,1.23,1.06,1.71,1.59,1.92.71.28,1.2.5,1.47,1.06a10,10,0,0,1,.74,2.33c.22.93.38,1.61,1,2a1.15,1.15,0,0,0,.32.12.88.88,0,0,0,.62-.08,32.51,32.51,0,0,0,3.6-3,1.4,1.4,0,0,1,1.07-.24c.69,0,1.74,0,2.08-1.32.4-1.57.76-12.48.8-13.72,0-.23,0-.46,0-.69l-10.43-5.13Zm9.77,5.52c-.16,4.79-.47,11.66-.73,12.67-.07.29-.1.32-.76.31a2.6,2.6,0,0,0-2,.59c-.74.71-1.88,1.67-2.64,2.27a12.76,12.76,0,0,0-.9-2.76,4.45,4.45,0,0,0-2.66-2.16l-.15-.06c.13-1.48.33-5.3.34-5.49l-.91-1.11a1.09,1.09,0,0,1-.24-.07,9.53,9.53,0,0,1,1.63-2.94c.17-.19.59-.69.88-5.25Z" style="fill: #002868"/>
    <path d="M655.63,447.34c-2.08-2.26-14.92-6.14-17-6.23s-2.78,8.08-4.86,10.52-13.88,13.26-13.88,17.24,11.45,13.36,11.45,13.36l5.55-3.86s-2.77-3.14-2.77-6.4,9-8.16,9-8.16a23.12,23.12,0,0,1,1.73,6.16c.7,4.14.7,15.72,1,17.6s1.74,2.92,5.56,3.38h0c3.47.75,4.16,1.27,5.2-.32s.35-11.14.35-13.31,1.73,0,2.08-2.45,0-4,.35-5.71,2.08-.64,2.43-5.63S657.71,449.6,655.63,447.34Z" style="fill: #fff;fill-rule: evenodd"/>
    <path d="M656.17,446.78c-2.43-2.63-15.59-6.47-17.68-6.57-1.68-.07-2.4,2.41-3.32,5.56-.58,2-1.24,4.21-2.07,5.19-.45.53-1.39,1.48-2.58,2.69-5.81,5.88-11.47,11.89-11.47,15,0,4.27,9.89,12.58,11.87,14.2l.52.43,6-4.17v-1.32S635,475,635,472.16c0-1.8,4.35-5.05,7.86-7.08a28.71,28.71,0,0,1,1.23,4.87c.39,2.35.56,7.31.7,11.3.11,3.38.19,5.5.34,6.32.46,2.48,2.35,3.48,4.62,4,.58.13,1.18.22,1.79.3s1,.22,1.42.32c2.3.54,3.35.79,4.47-.92.87-1.33.75-6.17.54-11.45,0-1-.07-1.82-.07-2.29,0-.26,0-.36,0-.38l.23,0c.55,0,1.57-.11,1.82-1.92a22.16,22.16,0,0,0,.18-3.26,11.77,11.77,0,0,1,.16-2.41,1.27,1.27,0,0,1,.55-.79c.7-.6,1.65-1.42,1.89-5C663.08,458.55,658.57,449.38,656.17,446.78Zm4.87,16.5c-.2,2.91-.85,3.46-1.42,4a2.55,2.55,0,0,0-1,1.57,13.45,13.45,0,0,0-.19,2.75,20.75,20.75,0,0,1-.16,3c-.1.71-.23.72-.6.74s-1.49.1-1.49,1.82c0,.49,0,1.33.07,2.37.12,2.84.38,9.49-.3,10.53s-.8.91-3,.38l-1.48-.33-.08,0c-4.29-.52-4.51-1.7-4.65-2.48s-.22-3.29-.31-6c-.14-4-.31-9.08-.73-11.55a23.94,23.94,0,0,0-1.84-6.49l-1.22-.52c-1.56.85-9.36,5.28-9.36,8.8a11.58,11.58,0,0,0,2.39,6.27l-4.43,3.07c-4.27-3.57-10.51-9.65-10.51-12.08,0-2.77,7.48-10.35,11.07-14,1.21-1.23,2.16-2.19,2.64-2.76,1-1.2,1.69-3.48,2.34-5.7.47-1.62,1.36-4.63,2-4.6,2.29.1,14.59,4,16.32,5.89C657,450,661.37,458.57,661,463.28Z" style="fill: #002868"/>
    <path d="M648,391.39c-2.08-.82-2.08-1.18-3.12-2.49-2.43,1.64-3.82,2.06-3.12,3.66s6.25,3.17,6.94,5.13a9.83,9.83,0,0,1,0,4.71l2.77-.12v8.32s6.95-4.28,6.25-10.23S650.08,392.2,648,391.39Z" style="fill: #fff;fill-rule: evenodd"/>
    <path d="M648.59,390.73l-.46-.18a3.58,3.58,0,0,1-2.22-1.57c-.13-.17-.27-.36-.44-.57l-1.14-.29-1.22.78c-1.66,1.06-3,1.89-2.11,3.89.49,1.12,2,1.91,3.67,2.83,1.13.6,3,1.61,3.24,2.23a8.66,8.66,0,0,1,0,4.16l1,1.28,1.73-.07v7.2l1.37,1c.3-.19,7.3-4.59,6.55-11C657.82,394.22,651.11,391.68,648.59,390.73Zm3.71,18.07v-6.34l-1-1.08-1.52.07a9,9,0,0,0-.27-3.91c-.52-1.47-2.36-2.45-4.31-3.49a10.51,10.51,0,0,1-2.66-1.72c-.22-.5-.1-.71,1.68-1.84l.63-.4a5.6,5.6,0,0,0,3.05,2.13l.47.18c2.39.91,8,3,8.55,7.9C657.32,404.1,654.19,407.26,652.3,408.8Z" style="fill: #002868"/>
    <path d="M632,439.59h0c.12,1.91.51,11.94-.13,13.28s-1.81,3.5-.26,5.72,3.35,3.41,4.12,2.1-.26-8.38.64-12.08,1-10.66.39-11.74S632.22,435.35,632,439.59Z" style="fill: #fff;fill-rule: evenodd"/>
    <path d="M634.49,435.26c-2,.15-3.22,1.69-3.36,4.1v.11c.22,3.24.4,11.91-.06,12.87l-.07.16c-.67,1.36-1.89,3.89-.06,6.52,1.2,1.72,2.5,2.82,3.6,3.06l.24,0a1.63,1.63,0,0,0,1.66-.85c.45-.76.44-2.39.38-5.2a31.62,31.62,0,0,1,.34-7.08c.8-3.28,1.24-10.83.25-12.48A3.07,3.07,0,0,0,634.49,435.26Zm1,13a32.74,32.74,0,0,0-.39,7.51c0,1.75.08,3.93-.18,4.37-.13.22-.25.24-.36.23-.48,0-1.38-.75-2.38-2.18s-.46-3,.3-4.6l.08-.17c.81-1.66.26-12.64.21-13.61.13-1.94,1.14-2.5,1.73-2.67a2.35,2.35,0,0,1,1.49.09C636.45,438.15,636.44,444.5,635.53,448.23Z" style="fill: #002868"/>
    <path d="M642.21,455l-1.68-.47a22.53,22.53,0,0,0,1.89,9.46l1.5-.46A20.61,20.61,0,0,1,642.21,455Z" style="fill: #002868"/>
    <path d="M636.92,437l1.68.38q.07-7.17.13-14.35l-1.68-.38Q637,429.86,636.92,437Z" style="fill: #002868"/>
    <path d="M657.47,434.37c-.61-.89-1.36-2.22-1.36-2.24l-1.4.67c0,.06.8,1.44,1.47,2.41a33.47,33.47,0,0,0,2.85,3.18l1-1.19A31.85,31.85,0,0,1,657.47,434.37Z" style="fill: #002868"/>
    <path d="M666.67,437.87l1.68.33c-.11-6,7.22-5.71,7.54-5.7l-.26-1.78C672.48,430.55,666.56,431.82,666.67,437.87Z" style="fill: #002868"/>
    <path d="M641.57,406l2.06.58c0-.57.07-1.15.11-1.72l-2.06-.59C641.64,404.87,641.61,405.44,641.57,406Z" style="fill: #002868"/>
    <path d="M642.23,397.62l3,3.33,1.1-1.08-3-3.33Z" style="fill: #002868"/>
    <path d="M534.22,366.25c-1.77-.5-7.88,2.84-8.83,3.51s.13,5.13.14,5.13h0q6.91-1.14,13.85-2.23S536,366.74,534.22,366.25Z" style="fill: #fff;fill-rule: evenodd"/>
    <path d="M534.29,365.39c-2.29-.66-8.93,3.23-9.45,3.6-1.17.82-.58,4.09-.13,6l1.09.82q6.93-1.14,13.86-2.23l.42-1.23C539.23,370.83,536.3,366,534.29,365.39Zm-8.16,8.47a7.69,7.69,0,0,1-.19-3.33c1.33-.94,6.82-3.7,8.17-3.44l0,0c.7.19,2.44,2.49,3.89,4.83Q532.1,372.89,526.13,373.86Z" style="fill: #002868"/>
    <path d="M538,388.62l-9,.31h0s-22.47,12.87-22.72,17.29,10,19,10,19.06l4.24-3.36a44.92,44.92,0,0,0-1.49-6.28,36.22,36.22,0,0,0-3.25-6.61s.5.36,3-.21a17.58,17.58,0,0,0,4.24-1.53s-.75,5.07.5,8.18,5.24,10.91,5.24,10.91q7.38.93,14.74,1.89s.5-20.21.25-24.95S538,388.62,538,388.62Z" style="fill: #fff;fill-rule: evenodd"/>
    <path d="M538.69,388.29l-.32-.58c-3.24.1-6.49.21-9.73.33l-.14.08c-3.81,2.14-22.81,13.3-23.07,17.89s9.12,18.16,10.18,19.71l1.23.3,4.57-3.61c0-.16,0-.32-.08-.47a46.23,46.23,0,0,0-1.53-6.45,33,33,0,0,0-2.55-5.49,13.52,13.52,0,0,0,1.82-.3,20.55,20.55,0,0,0,2.92-.91,17.16,17.16,0,0,0,.75,6.89c1.25,3.12,5.12,10.69,5.28,11l.27.51q7.62,1,15.24,2l.79-.7c0-.82.49-20.3.25-25C544.31,398.52,538.92,388.7,538.69,388.29Zm4,39q-6.74-.89-13.46-1.73c-.9-1.79-3.9-7.74-4.93-10.31-1.13-2.81-.44-7.62-.44-7.67l-1.32-1.09a16.85,16.85,0,0,1-4.07,1.46,6.06,6.06,0,0,1-2.49.27l-.09.39-.77.82a36.1,36.1,0,0,1,3.13,6.36,45.49,45.49,0,0,1,1.38,5.65L516.34,424c-3.09-4.53-9.41-14.48-9.23-17.59.16-2.89,13.67-11.74,22.24-16.61l8.24-.28c1.15,2.16,5.1,9.84,5.3,13.67C543.11,407.32,542.74,423.5,542.66,427.29Z" style="fill: #002868"/>
    <path d="M540.73,475.39c-2.24-2.54-8.24-8.16-8.24-8.16h0c-.41,1.31-.83,2.62-1.25,3.93q3.25,4.54,6.5,9.11l6.23,1.28-.24-2.42A33.28,33.28,0,0,0,540.73,475.39Z" style="fill: #fff;fill-rule: evenodd"/>
    <path d="M544.41,478.75a34.36,34.36,0,0,0-3.12-3.91c-2.25-2.54-8.07-8-8.31-8.23l-1.29.2c-.46,1.46-.92,2.91-1.39,4.37l7.05,9.89,6.62,1.35.84-.8-.27-2.65Zm-6.29.73q-3-4.19-5.93-8.34c.25-.8.5-1.6.76-2.4,1.77,1.68,5.57,5.32,7.23,7.19a36.16,36.16,0,0,1,2.74,3.39l.12,1.16Z" style="fill: #002868"/>
    <path d="M538.69,389.35c-1-.46-10.05-2.39-9.08-.73h0c-.27,1.08,6.13,6.32,7.87,8.76a60.79,60.79,0,0,0,5.5,6.05,18.35,18.35,0,0,0-2-8.22C538.73,390.33,539.68,389.81,538.69,389.35Z" style="fill: #fff;fill-rule: evenodd"/>
    <path d="M540.15,390.42a2.22,2.22,0,0,0-1.26-1.87c-.59-.28-8.87-2.42-10-.94a1.1,1.1,0,0,0-.14,1c.06,1,1.33,2.33,4.36,5.27a39.54,39.54,0,0,1,3.73,3.93,60.94,60.94,0,0,0,5.63,6.2l1.33-.37c0-.14.25-3.64-2.09-8.71A18.53,18.53,0,0,1,540.15,390.42Zm-2,6.51a40.68,40.68,0,0,0-4-4.24,36.21,36.21,0,0,1-3.63-3.82c1.46-.2,6.72.8,8,1.28,0,.09,0,.21.07.33a20.69,20.69,0,0,0,1.73,5,21,21,0,0,1,1.78,5.9A46.41,46.41,0,0,1,538.12,396.93Z" style="fill: #002868"/>
    <polygon points="527.5 429.01 527.5 429.01 527.5 429.01 527.5 429.01" style="fill: #fff;fill-rule: evenodd"/>
    <path d="M543.48,428.27q-8,.35-16,.74s-4,16.41-4.5,30.12,2.75,28.14,2.75,28.14l9.49.56V471.42S553,456,553,453.12s-9.74-18.65-9.24-20.37A10.51,10.51,0,0,0,543.48,428.27Z" style="fill: #fff;fill-rule: evenodd"/>
    <path d="M544.54,433.16a11.25,11.25,0,0,0-.26-5l-1-.8q-8.25.36-16.49.76l-.12.5c0,.16-4,16.65-4.52,30.29s2.74,28.24,2.78,28.39l.92.84c3.41.19,6.81.4,10.22.61V472c4.47-3.93,17.73-15.73,17.73-18.65,0-1.59-1.91-5.35-5.06-11.34C547,438.58,544.56,434,544.54,433.16Zm-9.9,37.53-.24.21v16l-8-.48c-.66-3.2-3-15.48-2.56-27.1.45-12.13,3.69-26.6,4.36-29.45q7.32-.36,14.66-.67a7.79,7.79,0,0,1,.06,3.15c-.31,1.09,1,3.67,4.4,10.23,2,3.86,4.81,9.16,4.81,10.36C552,454.65,543.12,463.28,534.64,470.69Z" style="fill: #002868"/>
    <path d="M535.93,458.67c-.15.43-.3.87-.44,1.34C535.49,460,535.66,459.48,535.93,458.67Z" style="fill: #fff;fill-rule: evenodd"/>
    <path d="M539.78,446a22.77,22.77,0,0,1-1,4c-.56,1.62-2.11,6.32-2.87,8.65,3.11-9,6.31-6.49,6.55-7.94S539.78,446,539.78,446Z" style="fill: #fff;fill-rule: evenodd"/>
    <path d="M540.32,445.48l-1.38.28a21.73,21.73,0,0,1-.94,3.82c-.54,1.59-2,6.12-2.82,8.5-.17.48-.33,1-.5,1.52l1.61.84.5-1.52c2.06-5.84,4-6.38,5.15-6.68.54-.14,1.22-.33,1.37-1.2C543.61,449.2,541.09,446.32,540.32,445.48Zm.92,5a5.63,5.63,0,0,0-2,.87c.13-.37.23-.68.32-.93a25.12,25.12,0,0,0,.72-2.56,6.26,6.26,0,0,1,1.37,2.47A2.55,2.55,0,0,1,541.24,450.51Z" style="fill: #002868"/>
    <path d="M528,423.26a12.62,12.62,0,0,0-6.11,4.06c-3,3.4-3.94,6.62-3.94,11.58s2,11.87,2.58,14.24a96.78,96.78,0,0,1,.81,10.22h0a41.66,41.66,0,0,0,1.36-6.68c.14-2.39-1.49-11.35-1.77-17.35s6-11,6-11a48.74,48.74,0,0,0,7.61,2.34,40.78,40.78,0,0,0,9.38.18c0-1.65.09-3.29.13-4.93,0,0-4.07-.55-8.56-1.29S528,423.26,528,423.26Z" style="fill: #002868;fill-rule: evenodd"/>
    <path d="M535.42,423.71C531,423,528,422.39,528,422.39h-.31a13.16,13.16,0,0,0-6.46,4.26c-3,3.41-4.12,6.69-4.12,12.09,0,4.19,1.37,9.58,2.19,12.8.17.67.32,1.24.41,1.66a94.41,94.41,0,0,1,.79,10l1.65.52a42.51,42.51,0,0,0,1.39-6.86,55.86,55.86,0,0,0-.7-7.18c-.43-3.38-.93-7.2-1.07-10.26-.21-4.8,4.21-9.08,5.42-10.15a47.93,47.93,0,0,0,7.33,2.22,41.38,41.38,0,0,0,9.61.19l.59-.06.15-5.57L544,425S539.83,424.45,535.42,423.71Zm7.63,6.27a37.92,37.92,0,0,1-8.56-.21,48.18,48.18,0,0,1-7.44-2.3l-.43-.18-.32.26c-.26.21-6.52,5.32-6.23,11.66.14,3.14.64,7,1.08,10.42a60,60,0,0,1,.68,6.83c0,.16,0,.33,0,.51a31.92,31.92,0,0,0-.48-3.89c-.1-.43-.24-1-.42-1.7-.8-3.13-2.13-8.37-2.13-12.32,0-5,1-8,3.76-11.07a12.47,12.47,0,0,1,5.63-3.82c.7.14,3.48.67,7.32,1.31,3.19.53,6.21,1,7.67,1.17Z" style="fill: #002868"/>
    <path d="M528.75,380.28c-.5,2.51-.12,8.74-.12,8.74h0a19.66,19.66,0,0,0,4.61,1,16.13,16.13,0,0,0,5.74-.68c-.24-1.44-.49-2.88-.74-4.32l1.74.61q.13-6.09.25-12.19c-2.91-.49-5.82-1-8.74-1.47A79,79,0,0,0,528.75,380.28Z" style="fill: #fff;fill-rule: evenodd"/>
    <path d="M530.91,371c-.07.17-.14.34-.2.51a75.86,75.86,0,0,0-2.79,8.45c-.51,2.59-.14,8.7-.13,9s0,.46.05.69l.64.25a18.56,18.56,0,0,0,2.76.75c.62.12,1.31.23,2.08.31a16.85,16.85,0,0,0,6-.71l.57-.18c-.22-1.25-.44-2.5-.65-3.75l.59.21,1-.66q.13-6.09.25-12.19c-.28-.36-.57-.71-.86-1.07Zm8.25,13.47-.81-.28-.94.84.63,3.62a14.93,14.93,0,0,1-4.87.5,21.39,21.39,0,0,1-3.74-.74,45.27,45.27,0,0,1,.14-7.78,71.49,71.49,0,0,1,2.51-7.68l7.29,1.23Z" style="fill: #002868"/>
    <path d="M530.24,371.2c-8,1.82-11.73,6.58-10,8.74s4.59.17,10.09-.05h0a15.71,15.71,0,0,1,3.15-2.32c1.5-.75,5.24.26,7.24.4s6-1.92,5.49-3.58S538.23,369.38,530.24,371.2Z" style="fill: #fff;fill-rule: evenodd"/>
    <path d="M545.5,372.53c-2.53-1.73-8.77-3.75-15.57-2.2s-10.35,5-10.87,7.53a3.06,3.06,0,0,0,.6,2.58,3.43,3.43,0,0,0,2.1,1.3,10.83,10.83,0,0,0,3.85-.31,31.24,31.24,0,0,1,4.91-.65h.26l.18-.17a15.12,15.12,0,0,1,3-2.21c.85-.43,3-.09,4.65.17.82.13,1.59.26,2.22.3a7.93,7.93,0,0,0,5.84-2.72,2.1,2.1,0,0,0,.35-1.86A3.54,3.54,0,0,0,545.5,372.53Zm-.35,2.53a7,7,0,0,1-4.52,2c-.56,0-1.3-.16-2.08-.28-2-.32-4.28-.67-5.53-.05A15.8,15.8,0,0,0,529.9,379a34.43,34.43,0,0,0-4.88.66c-2.32.45-3.47.62-4.17-.24a1,1,0,0,1-.14-.9c.43-2.14,4-5.13,9.85-6.46a21.47,21.47,0,0,1,8.92-.07c3.32.66,5.63,1.92,5.95,2.5A1,1,0,0,1,545.15,375.06Z" style="fill: #002868"/>
    <path d="M533.74,374.23c-3.24.4-6,4-7.49,6.09a3.53,3.53,0,0,0,2.27,5.7h0c.85.12,1-.66,1.48-1.33,1.49-1.52,1.74-5.38,3.49-7.12,2-1.63,6.6,3,6.6,3a5.54,5.54,0,0,0-.11-3.31C539.74,375.43,537,373.83,533.74,374.23Z" style="fill: #fff;fill-rule: evenodd"/>
    <path d="M539.39,374.9a7.67,7.67,0,0,0-5.9-1.55c-3.63.44-6.54,4.43-7.94,6.34a4.71,4.71,0,0,0-.4,4.8,4.36,4.36,0,0,0,3.16,2.37l.25,0a1.74,1.74,0,0,0,1.86-1.13l.21-.38a9.47,9.47,0,0,0,1.76-3.57,9.58,9.58,0,0,1,1.69-3.51c1.1-.9,4.17,1.55,5.49,2.88l1.3-.12a6.29,6.29,0,0,0-.07-3.81A4,4,0,0,0,539.39,374.9Zm-6.53,2a10.49,10.49,0,0,0-2.07,4.08,8.56,8.56,0,0,1-1.49,3.12,4.57,4.57,0,0,0-.36.58c-.3.51-.34.5-.46.48h0a2.34,2.34,0,0,1-1.87-1.22,3,3,0,0,1,.34-3c1.19-1.63,4-5.44,7-5.82a7.26,7.26,0,0,1,2.26.07,4.92,4.92,0,0,1,2.24,1,1.79,1.79,0,0,1,.66,1.06l0,.15a6.18,6.18,0,0,1,.25,1.53C537.75,377.5,534.69,375.36,532.86,376.87Z" style="fill: #002868"/>
    <path d="M530.49,418.91c-1.08-.21-4.74.12-5,4.5.17,1.51.33,3,.5,4.52l2,.39s-.5,9,1.25,9.1,3.74-6.29,3.74-9.68S531.44,419.1,530.49,418.91Z" style="fill: #fff;fill-rule: evenodd"/>
    <path d="M530.49,418c-1.78-.35-5.56.45-5.83,5.15v.08c.17,1.53.34,3.07.5,4.6l.84.94,1.12.21c-.11,2.68-.09,7.29,1.13,8.7a1.7,1.7,0,0,0,.92.57l.19,0c2.58.12,4.47-7.24,4.47-10.4C533.83,425.17,532.54,418.44,530.49,418Zm-1.2,18.44c-.43-1-.64-4.51-.45-7.94l-.84-1.09-1.25-.25c-.14-1.22-.27-2.43-.41-3.65a3.68,3.68,0,0,1,4-3.78,19.23,19.23,0,0,1,1.82,7.8C532.15,431,530.27,435.9,529.29,436.48Z" style="fill: #002868"/>
    <path d="M536.74,491.51a16.09,16.09,0,0,1-1.25-3.11L526,487.06h0c-.08,3.11-.17,6.21-.25,9.32q9.74,1.64,19.48,3.35a3.34,3.34,0,0,0-.75-3C543.23,495.16,537.74,493.53,536.74,491.51Z" style="fill: #fff;fill-rule: evenodd"/>
    <path d="M541.37,493.81c-1.48-.75-3.51-1.79-3.9-2.59a16.36,16.36,0,0,1-1.17-2.87c0-.24-.11-.49-.16-.73L526,486.17l-.8.7c-.08,3.11-.17,6.22-.25,9.33l.86,1.06q10,1.69,20.07,3.45l.18-.54a4.32,4.32,0,0,0-.95-4A12,12,0,0,0,541.37,493.81Zm-14.76,1.84.21-7.6,8.08,1.14A20.27,20.27,0,0,0,536,491.8c.73,1.48,2.84,2.55,4.88,3.6a12.49,12.49,0,0,1,3,1.81,2.51,2.51,0,0,1,.6,1.51Q535.55,497.16,526.61,495.65Z" style="fill: #002868"/>
    <path d="M534.92,389.3l-.86,1.34c3.52,2.86,7.68,10.34,7.91,11.24a10,10,0,0,1,.24,1.39l1.68.34a9.18,9.18,0,0,0-.29-1.83C543.25,400.25,538.7,392.38,534.92,389.3Z" style="fill: #002868"/>
    <path d="M520.09,420.61a4.69,4.69,0,0,0-5.17,2.84c1.23,3.21,5.3,7.81,6.53,6.77s-1.09-4.18-.82-5,3.94,1.32,4.08.07S520.09,420.6,520.09,420.61Z" style="fill: #fff;fill-rule: evenodd"/>
    <path d="M520.47,419.9l-.16-.12-.19,0a5.32,5.32,0,0,0-6,3.2l-.16.32.15.39c1,2.65,4.07,6.6,6.19,7.44a2.69,2.69,0,0,0,.47.14A1.43,1.43,0,0,0,522,431c1.18-1,.36-3-.19-4.28l-.27-.66.78.21c1.2.35,3,.87,3.18-.65S522.88,421.65,520.47,419.9Zm2,4.62c-1.16-.34-2.35-.68-2.69.3a3.63,3.63,0,0,0,.51,2.32c.34.82.86,2.06.53,2.34-.69.13-3.75-3-5-5.84a4,4,0,0,1,4-2.19,24.3,24.3,0,0,1,3.82,3.37C523.36,424.76,522.84,424.61,522.52,424.52Z" style="fill: #002868"/>
    <path d="M537,387.5l1.54.52c.07-.56.15-1.13.22-1.69l-1.54-.52C537.11,386.37,537,386.94,537,387.5Z" style="fill: #002868"/>
    <path d="M534.76,459a35.2,35.2,0,0,0-.35,8.21c0,1.36.09,2.76.06,4.09l1.68.37c0-1.37,0-2.8-.06-4.19a34.17,34.17,0,0,1,.31-7.79Z" style="fill: #002868"/>
    <path d="M536.94,379.68a1.08,1.08,0,0,0-1.36,1.08,1.74,1.74,0,0,0,1.36,1.62,1.09,1.09,0,0,0,1.36-1.08A1.74,1.74,0,0,0,536.94,379.68Z" style="fill: #002868;fill-rule: evenodd"/>
    <path d="M539.23,435.37a47.23,47.23,0,0,1-.27,10.34l1.66.61a47.72,47.72,0,0,0,.28-10.8Z" style="fill: #002868"/>
    <path d="M590.67,322.37c-55.39-12.08-100.35,27.05-100.35,85.11s45,112.94,100.35,125S691,507.21,691,449.11C691,391.22,646.07,334.43,590.67,322.37Z" style="fill: #fff;fill-rule: evenodd"/>
    <path d="M590.67,297.38c-69.14-15.2-125.25,34.18-125.25,106.34,0,71.88,56.11,139.39,125.25,154.6s125.26-31.45,125.26-103.66C715.93,382.83,659.81,312.54,590.67,297.38Zm0,235.12c-55.39-12.08-100.35-67.09-100.35-125s45-97.19,100.35-85.11S691,391.22,691,449.11C691,507.21,646.07,544.55,590.67,532.5Z" style="fill: #fff;fill-rule: evenodd"/>
    <path d="M590.67,296.51C521.15,281.21,464.58,331,464.58,403.59c0,72.28,56.57,140.3,126.09,155.6s126.1-31.75,126.1-104.36C716.77,382.6,660.2,311.76,590.67,296.51Zm0,260.93c-68.6-15.09-124.41-82.27-124.41-153.58,0-71.6,55.81-120.69,124.41-105.6s124.42,85,124.42,156.23C715.09,526.13,659.28,572.48,590.67,557.44Z" style="fill: #002868"/>
    <path d="M590.67,321.5c-55.79-12.18-101.19,27.35-101.19,85.84s45.4,113.86,101.19,126,101.19-25.57,101.2-84.09C691.87,391,646.47,333.64,590.67,321.5Zm0,210.12c-54.87-12-99.51-66.61-99.51-124s44.64-96.35,99.51-84.38,99.51,68.33,99.51,125.69C690.18,506.48,645.54,543.56,590.67,531.62Z" style="fill: #002868"/>
    <path d="M622.8,312.84h0a6.37,6.37,0,0,0-5.4-.9,6.45,6.45,0,0,0-3.95,4.23,8.81,8.81,0,0,0-.09,6.5,9.11,9.11,0,0,0,3.68,4.11,7.58,7.58,0,0,0,3.43,1.23,6.53,6.53,0,0,0,2.24-.39l-.21,2,1.22.73c.91-2.39,1.83-4.79,2.74-7.19l-6.13-3.69-.57,1.51,4.37,2.63c-.62,1.56-1.48,2.45-2.58,2.66a5,5,0,0,1-3.53-.83,5.94,5.94,0,0,1-3-3.64,7.68,7.68,0,0,1,.39-4.57c.71-1.85,1.68-3,2.92-3.38a4.45,4.45,0,0,1,3.8.57,7,7,0,0,1,2.45,2.3,4.39,4.39,0,0,1,.6,3l1.88,1.12a6.47,6.47,0,0,0-1.15-5.22A10.47,10.47,0,0,0,622.8,312.84Z" style="fill: #002868;fill-rule: evenodd"/>
    <path d="M533.25,306.34,539,318.53q-6.18-4.89-12.36-9.74l-2.09.78q3.56,7.5,7.1,15l1.69-.63q-2.86-6.07-5.75-12.16,6.23,4.83,12.45,9.7l2-.73-7.11-15Z" style="fill: #002868;fill-rule: evenodd"/>
    <path d="M513.43,316.47q5,6.69,10,13.4l1.51-1.14-10-13.41Z" style="fill: #002868;fill-rule: evenodd"/>
    <path d="M500.17,325.94l7.32,12.89q-6.28-3.43-12.55-6.82l-1.78,2.06h0q5.88,5.81,11.74,11.65l1.19-1.36-6.93-6.9-1.32-1.26-1.33-1.29-.36-.36q6.27,3.38,12.53,6.81l1.23-1.41-7.3-12.88c.64.63,1.22,1.22,1.77,1.78l1.18,1.21,6.93,6.91,1.17-1.35q-5.86-5.88-11.74-11.71Z" style="fill: #002868;fill-rule: evenodd"/>
    <path d="M493.48,346.34a8.74,8.74,0,0,0-5.22-1.64q-3.08.19-4.67,3.69h0a7.14,7.14,0,0,0,.21,6.63,11.55,11.55,0,0,0,4.12,4.32,9.17,9.17,0,0,0,5.76,1.68,5.37,5.37,0,0,0,4.26-3.43,7.28,7.28,0,0,0-.08-6.51A11.48,11.48,0,0,0,493.48,346.34Zm2.91,10c-.75,1.65-1.82,2.51-3.19,2.59a7.38,7.38,0,0,1-4.32-1.34,8.73,8.73,0,0,1-3.68-4,5.24,5.24,0,0,1,.08-4.25,3.73,3.73,0,0,1,3-2.38,6.57,6.57,0,0,1,4.42,1.24,10.64,10.64,0,0,1,3.53,3.63,4.63,4.63,0,0,1,.18,4.51Z" style="fill: #002868;fill-rule: evenodd"/>
    <path d="M478.05,362.19c-.18.77-.37,1.53-.55,2.3l6,7.07-7.94,1.28-.54,2.29c3.31-.64,6.63-1.27,9.94-1.88,1.94.81,3.89,1.63,5.83,2.46l.47-2-5.84-2.46Q481.73,366.72,478.05,362.19Z" style="fill: #002868;fill-rule: evenodd"/>
    <path d="M471.46,385.19q6,2.74,12,5.53-6.12.4-12.25.85c0,.75-.07,1.5-.1,2.26q6,3,11.92,6.1-6.11.12-12.22.27c0,.76-.07,1.51-.11,2.27,5-.29,10-.54,15.05-.78,0-.73.07-1.46.1-2.19q-6.07-3.15-12.15-6.27,6.24-.45,12.48-.84c0-.73.07-1.46.11-2.19q-7.33-3.69-14.67-7.29C471.53,383.67,471.49,384.43,471.46,385.19Z" style="fill: #002868;fill-rule: evenodd"/>
    <path d="M483.53,439.46q-1-3.82-2.08-7.66l-1.69.24,2.07,7.66-4.33.6q-1.17-4.35-2.36-8.69l-1.75.25,2.94,10.8q7.13-1,14.26-2l-.57-2.12Z" style="fill: #002868;fill-rule: evenodd"/>
    <path d="M490,450a7.53,7.53,0,0,0-5.43,1.17,6.82,6.82,0,0,0-3.11,3.9c-.57,2-.05,4.25,1.54,6.7h0a7.94,7.94,0,0,0,5.65,3.94,7.47,7.47,0,0,0,5-1.15A7.07,7.07,0,0,0,497,460.2,9.54,9.54,0,0,0,490,450Zm5,9.31a5.6,5.6,0,0,1-2.55,3.23,5.74,5.74,0,0,1-4.59.95,6.06,6.06,0,0,1-3.56-2.73,5.63,5.63,0,0,1-1-4.29,5.2,5.2,0,0,1,2.52-3.39,6.8,6.8,0,0,1,4.21-1.06,5.06,5.06,0,0,1,3.85,2.66h0Q495.61,457.32,495,459.32Z" style="fill: #002868;fill-rule: evenodd"/>
    <path d="M509.6,483.05l5.93,8.23L511.72,494q-2.69-3.74-5.39-7.46l-1.3.94,5.4,7.46L507,497.41l-5.83-8.06-1.38,1q3.57,4.9,7.12,9.84,5.61-4.06,11.22-8.08l-7.21-10Z" style="fill: #002868;fill-rule: evenodd"/>
    <path d="M525.75,500.46l-7.37,9.88-4.14-3.72c-.34.44-.67.89-1,1.34q5,4.47,10,9l1-1.33q-2.07-1.87-4.15-3.74l7.37-9.88Z" style="fill: #002868;fill-rule: evenodd"/>
    <path d="M540.25,518.6l-5.16-4,.81-4.68L534,508.46l-2.4,15.85,2,1.53h0l12.05-8.4L543.8,516Zm-6.55,4.72,1.17-6.91,4.09,3.14Z" style="fill: #002868;fill-rule: evenodd"/>
    <path d="M556.53,524.47l-1.94-1.08q-2.12,6-4.22,12.07l-4.75-2.65-.57,1.64,11.43,6.39.57-1.63q-2.37-1.34-4.75-2.66Z" style="fill: #002868;fill-rule: evenodd"/>
    <path d="M568.93,530.34a7.68,7.68,0,0,0-4.29-.49q-1.95.39-2.34,2.85a4.41,4.41,0,0,0,.92,3.55,8.66,8.66,0,0,0,2.15,1.8l2,1.25a17.64,17.64,0,0,1,2.54,1.81,2.19,2.19,0,0,1,.65,1.94,1.86,1.86,0,0,1-1,1.44,3.35,3.35,0,0,1-2.64-.2A4.93,4.93,0,0,1,564,542a4.45,4.45,0,0,1-.35-2.07l-1.87-.7a5,5,0,0,0,1,4.2,8.65,8.65,0,0,0,3.74,2.6,5.14,5.14,0,0,0,4.08.18,3.44,3.44,0,0,0,1.89-2.76,3.91,3.91,0,0,0-1-3.31,12.12,12.12,0,0,0-2.6-2l-1.92-1.2a10.44,10.44,0,0,1-2.24-1.77,2.38,2.38,0,0,1-.48-2c.17-1.08.88-1.6,2.14-1.57a6.32,6.32,0,0,1,2.09.44,5.29,5.29,0,0,1,3.26,2.79A4.75,4.75,0,0,1,572,537h0l1.87.71a5.82,5.82,0,0,0-.92-4.38A8.14,8.14,0,0,0,568.93,530.34Z" style="fill: #002868;fill-rule: evenodd"/>
    <path d="M601.15,539.52c.1.63.21,1.25.31,1.88l8.89.27q.45,2.69.89,5.37l-8.08-.24.3,1.83,8.09.24c.26,1.61.53,3.21.79,4.82l-8.74-.27c.11.65.21,1.3.32,1.94l10.68.33q-1.32-7.92-2.63-15.85Z" style="fill: #002868;fill-rule: evenodd"/>
    <path d="M631.84,537.88c.73,2.46,1.46,4.91,2.18,7.37l-7.34.93-2.19-7.37-1.93.25q2.34,7.88,4.67,15.75l1.93-.25-1.92-6.51,7.34-.93c.64,2.17,1.29,4.34,1.93,6.51l1.93-.24q-2.33-7.87-4.67-15.75Z" style="fill: #002868;fill-rule: evenodd"/>
    <path d="M654,545.68l-7-13.09-1.73.76,7,13.09L648,548.3l1,1.77,10.22-4.48c-.32-.59-.63-1.18-.94-1.77Z" style="fill: #002868;fill-rule: evenodd"/>
    <path d="M672.08,515.67l5.06,5.76-4.84,4.66c.44.51.89,1,1.33,1.51l4.84-4.66,3.38,3.84-5.51,5.31,1.37,1.55,6.84-6.6-11.13-12.66Z" style="fill: #002868;fill-rule: evenodd"/>
    <path d="M693.17,505.75a10.83,10.83,0,0,0-5.3-3.57,5.44,5.44,0,0,0-5.27,1.53,6.13,6.13,0,0,0-1.82,5.83,12.15,12.15,0,0,0,3,5.79,10.46,10.46,0,0,0,4.76,3.35,5.58,5.58,0,0,0,5.77-1.6,6,6,0,0,0,1.71-6A12,12,0,0,0,693.17,505.75Zm-.26,9.89a3.79,3.79,0,0,1-3.68,1.05,7.88,7.88,0,0,1-4.07-2.71,11.06,11.06,0,0,1-2.5-4.5,3.9,3.9,0,0,1,1.12-4.08,3.85,3.85,0,0,1,4-1.17,8.78,8.78,0,0,1,4,2.75,9,9,0,0,1,2.53,4.89A4.38,4.38,0,0,1,692.91,515.64Z" style="fill: #002868;fill-rule: evenodd"/>
    <path d="M691.78,480.78l1.71.85,2-7.15q6.32,3.15,12.63,6.26l.54-1.91q-7.17-3.54-14.34-7.12Z" style="fill: #002868;fill-rule: evenodd"/>
    <path d="M696.81,454.31l4.22,3.11q-.35,3-.71,5.94l-4.6,0-.27,2.23q7.71-.24,15.42-.52l.28-2.31h0q-7-5.26-14.09-10.58C697,452.92,696.89,453.61,696.81,454.31Zm5.22,8.94c.19-1.57.38-3.14.56-4.71l6.24,4.6-6.8.11Z" style="fill: #002868;fill-rule: evenodd"/>
    <path d="M694.93,435q.41,5.81.82,11.61l1.77.23c-.23-3.18-.45-6.36-.68-9.54l5,.65q.32,4.33.61,8.67l1.72.22q-.3-4.33-.61-8.67l4.5.58.66,9.37,1.82.23q-.41-5.71-.8-11.45Q702.35,436,694.93,435Z" style="fill: #002868;fill-rule: evenodd"/>
    <path d="M704.23,413.73a4.53,4.53,0,0,0-3.56-.93,2.42,2.42,0,0,0-2.14,1.94,9.87,9.87,0,0,0,0,3.09c.08.73.17,1.46.25,2.19a8,8,0,0,1,0,2.68,1.48,1.48,0,0,1-1.37,1.07c-1,.17-1.92-.34-2.72-1.54a8.32,8.32,0,0,1-1-2.12c-.57-1.77-.51-3.09.19-3.95a3.12,3.12,0,0,1,1.73-1h0c-.22-.66-.43-1.32-.65-2a3.66,3.66,0,0,0-3.06,2.23,6.79,6.79,0,0,0,.14,4.79,11,11,0,0,0,2.42,4.22,4.16,4.16,0,0,0,3.94,1.34,2.72,2.72,0,0,0,2.36-2,6.84,6.84,0,0,0,.1-2.6l-.27-2.27a14.73,14.73,0,0,1-.15-3,1.32,1.32,0,0,1,1.19-1.21,2.45,2.45,0,0,1,1.9.54,4.87,4.87,0,0,1,1.58,2.57c.5,1.55.49,2.7,0,3.48a2.85,2.85,0,0,1-1.5,1c.21.67.43,1.33.64,2a3.13,3.13,0,0,0,2.83-2.3,8.92,8.92,0,0,0-2.83-8.28Z" style="fill: #002868;fill-rule: evenodd"/>
    <path d="M686.91,376.33l2.6,5-11.21,4.7,1.05,2.05,11.21-4.7,2.6,5,1.52-.64q-3.13-6-6.25-12.09Z" style="fill: #002868;fill-rule: evenodd"/>
    <path d="M663.42,364.23l1.31,1.95,4.47-.67,3.71,5.56-2.5,3.62,1.39,2.08,8.14-12.42-1.44-2.15Q671,363.24,663.42,364.23Zm10.36,5.42-2.94-4.4,6.61-1Z" style="fill: #002868;fill-rule: evenodd"/>
    <path d="M649.06,349.21l8.74,8.87,1.07-1.23-7.17-7.28,3.07-3.52q3.26,3.31,6.52,6.62l1.05-1.19-6.53-6.63c.92-1,1.83-2.09,2.75-3.14l7.05,7.15,1.11-1.27-8.61-8.73Z" style="fill: #002868;fill-rule: evenodd"/>
    <path d="M554.29,308.14c.14.59.27,1.18.41,1.77l4.52-.25c.4,1.85.27,3.22-.4,4.1a3.73,3.73,0,0,1-3,1.41,4.82,4.82,0,0,1-4.08-1.55,9.91,9.91,0,0,1-2.19-4.53q-.74-3.25.24-5a3.52,3.52,0,0,1,3-1.84,5.33,5.33,0,0,1,3,.64,4.93,4.93,0,0,1,2,2.44l1.93-.11a7.17,7.17,0,0,0-3.62-4.19,7.63,7.63,0,0,0-3.72-.66h0a5,5,0,0,0-4.32,2.51q-1.42,2.46-.51,6.43a11,11,0,0,0,3.44,6.14A7.14,7.14,0,0,0,555.9,317a5.42,5.42,0,0,0,3.09-1,6,6,0,0,0,1.38-1.75c.31.66.62,1.33.94,2l1.25-.06c-.64-2.82-1.29-5.64-1.93-8.46Z" style="fill: #002868;fill-rule: evenodd"/>
    <path d="M644.59,327.9l-6.11-4.66h0l-6.89,12.25,1.78,1.36q1.49-2.62,3-5.25l4.07,3.1a6.15,6.15,0,0,1,1.48,1.46,2.3,2.3,0,0,1,0,2.34l-1,2.12a7.79,7.79,0,0,0-.46,1,1.74,1.74,0,0,0-.08.52l2.19,1.67.15-.28a1.48,1.48,0,0,1-.15-1.19,5.54,5.54,0,0,1,.46-1.13l.86-1.69a3.15,3.15,0,0,0,.43-1.88,4,4,0,0,0-.72-1.65,3.48,3.48,0,0,0,2-.09,2.89,2.89,0,0,0,1.51-1.42,3.9,3.9,0,0,0-.23-4.31A9.68,9.68,0,0,0,644.59,327.9Zm.58,5.39a1.78,1.78,0,0,1-1.69,1.13,4.6,4.6,0,0,1-2.24-1.05l-4.13-3.15,2.36-4.19,4.36,3.33a5.22,5.22,0,0,1,1.32,1.37A2.39,2.39,0,0,1,645.17,333.29Z" style="fill: #002868;fill-rule: evenodd"/>
  </g>
</svg>
