<svg xmlns="http://www.w3.org/2000/svg" viewBox="0 0 1260 1011.56">
  <g>
    <path d="M1260,3.54V839.86h0Z" style="fill: #b22234"/>
    <path d="M306.36.07q7.2-.08,14.4,0Q313.56-.06,306.36.07Z" style="fill: #b22234"/>
    <path d="M950.92,1011.53q-4.27,0-8.55,0Q946.65,1011.58,950.92,1011.53Z" style="fill: #b22234"/>
    <path d="M320.76.07q-7.2-.08-14.4,0C204.24,2,102.12,46,0,171.71V1008c314.12-386.74,628.25.17,942.37,3.49q4.27,0,8.55,0C1054,1010.31,1157,966.7,1260,839.86V3.54C946.92,389,633.84,5.9,320.76.07Z" style="fill: #b22234"/>
    <path d="M0,782.87c210-148.57,420-116.34,630-84.1C420,611.55,210,524.33,0,782.87Z"/>
    <path d="M0,654.21c210-148.58,420-116.34,630-84.1C420,482.89,210,395.66,0,654.21Z"/>
    <path d="M0,911.53C210,763,420,795.19,630,827.43,420,740.21,210,653,0,911.53Z"/>
    <path d="M0,268.21c210-148.57,420-116.34,630-84.1C420,96.89,210,9.66,0,268.21Z"/>
    <path d="M1260,357.34c-210,148.57-420,116.34-630,84.1C840,528.66,1050,615.88,1260,357.34Z"/>
    <path d="M0,396.88c210-148.57,420-116.34,630-84.11C420,225.55,210,138.34,0,396.88Z"/>
    <path d="M0,525.54C210,377,420,409.21,630,441.44,420,354.22,210,267,0,525.54Z"/>
    <path d="M1260,486c-210,148.57-420,116.34-630,84.1C840,657.33,1050,744.54,1260,486Z"/>
    <path d="M1260,743.33c-210,148.58-420,116.34-630,84.1C840,914.65,1050,1001.88,1260,743.33Z"/>
    <path d="M1260,228.67C1050,377.25,840,345,630,312.77,840,400,1050,487.24,1260,228.67Z"/>
    <path d="M1260,100c-210,148.57-420,116.33-630,84.1C840,271.33,1050,358.55,1260,100Z"/>
    <path d="M1260,614.67C1050,763.25,840,731,630,698.77,840,786,1050,873.21,1260,614.67Z"/>
    <path d="M0,236v64.33C420-216.71,840,649.26,1260,132.18V67.84C840,584.93,420-281,0,236Z" style="fill: #fff"/>
    <path d="M0,879.37v64.34C420,426.62,840,1292.58,1260,775.5V711.17C840,1228.26,420,362.28,0,879.37Z" style="fill: #fff"/>
    <path d="M0,622v64.33c420-517.09,840,348.89,1260-168.2V453.83C840,970.93,420,105,0,622Z" style="fill: #fff"/>
    <path d="M0,750.71V815C420,298,840,1164,1260,646.83V582.5C840,1099.59,420,233.61,0,750.71Z" style="fill: #fff"/>
    <path d="M0,364.71V429C420-88,840,777.93,1260,260.8V196.51C840,713.59,420-152.38,0,364.71Z" style="fill: #fff"/>
    <path d="M0,493.37v64.34C420,40.62,840,906.59,1260,389.5V325.17C840,842.26,420-23.71,0,493.37Z" style="fill: #fff"/>
    <path d="M306.51.07q6.62-.08,13.23,0Q313.13,0,306.51.07Z" style="fill: #3c3b6e"/>
    <path d="M504,488.37V38.05C442.58,16.58,381.16,1,319.74.06q-6.62-.06-13.23,0C204.34,2,102.17,45.93,0,171.71V622C168,415.2,336,429.66,504,488.37Z" style="fill: #3c3b6e"/>
    <path d="M34.59,180.3q1.41-7,2.83-14Q30,174,22.59,182.33,28.59,181.15,34.59,180.3Z" style="fill: #fff"/>
    <path d="M30,202.94q6-12,12-23.57c-2.47.25-4.94.56-7.41.89Z" style="fill: #fff"/>
    <path d="M42,179.37q6-.62,12-.88-2.28-6.7-4.58-13.33Q45.72,172.2,42,179.37Z" style="fill: #fff"/>
    <path d="M37.42,166.28q4.57-4.78,9.16-9.34-2.3-6.57-4.58-13.13Q39.71,155,37.42,166.28Z" style="fill: #fff"/>
    <path d="M37.42,166.31q-1.41,7-2.83,13.95c2.47-.33,4.94-.64,7.41-.89q3.7-7.17,7.41-14.21Q48,161.08,46.58,157,42,161.54,37.42,166.31Z" style="fill: #fff"/>
    <path d="M49.41,165.16q6-11.39,12-22.44Q54,149.59,46.58,157,48,161.08,49.41,165.16Z" style="fill: #fff"/>
    <path d="M34.59,270.3q1.41-7,2.83-14-7.43,7.76-14.83,16Q28.59,271.12,34.59,270.3Z" style="fill: #fff"/>
    <path d="M42,269.44q6-.62,12-.89-2.28-6.69-4.58-13.33Q45.72,262.24,42,269.44Z" style="fill: #fff"/>
    <path d="M30,293q6-12,12-23.56-3.7.38-7.41.89Q32.3,281.64,30,293Z" style="fill: #fff"/>
    <path d="M49.41,255.22q6-11.39,12-22.43Q54,239.65,46.58,247C47.52,249.77,48.46,252.49,49.41,255.22Z" style="fill: #fff"/>
    <path d="M37.42,256.37q-1.43,7-2.83,14,3.7-.49,7.41-.89,3.7-7.17,7.41-14.22Q48,251.13,46.58,247C43.53,250.08,40.47,253.21,37.42,256.37Z" style="fill: #fff"/>
    <path d="M37.42,256.34c3-3.14,6.11-6.29,9.16-9.32-1.53-4.39-3-8.78-4.58-13.14Q39.71,245.1,37.42,256.34Z" style="fill: #fff"/>
    <path d="M34.59,360.4q1.41-7,2.83-14-7.43,7.72-14.83,16Q28.59,361.23,34.59,360.4Z" style="fill: #fff"/>
    <path d="M42,359.49q6-.6,12-.88-2.28-6.69-4.58-13.32Q45.72,352.34,42,359.49Z" style="fill: #fff"/>
    <path d="M30,383.07q6-12,12-23.57c-2.47.26-4.94.55-7.41.9Q32.3,371.7,30,383.07Z" style="fill: #fff"/>
    <path d="M37.42,346.4q4.57-4.75,9.16-9.33-2.3-6.57-4.58-13.13Q39.71,335.16,37.42,346.4Z" style="fill: #fff"/>
    <path d="M49.41,345.29q6-11.39,12-22.43Q54,329.76,46.58,337.1,48,341.19,49.41,345.29Z" style="fill: #fff"/>
    <path d="M37.42,346.44q-1.41,7-2.83,14c2.47-.35,4.94-.64,7.41-.9q3.7-7.17,7.41-14.21-1.41-4.1-2.83-8.19Q42,341.67,37.42,346.44Z" style="fill: #fff"/>
    <path d="M42,449.56q6-.62,12-.88-2.28-6.69-4.58-13.32Q45.72,442.38,42,449.56Z" style="fill: #fff"/>
    <path d="M34.59,450.46q1.41-7,2.83-13.95-7.43,7.73-14.83,16Q28.59,451.3,34.59,450.46Z" style="fill: #fff"/>
    <path d="M30,473.14q6-12,12-23.57-3.7.38-7.41.89Q32.3,461.77,30,473.14Z" style="fill: #fff"/>
    <path d="M37.42,436.47q4.57-4.77,9.16-9.33Q44.29,420.57,42,414,39.71,425.23,37.42,436.47Z" style="fill: #fff"/>
    <path d="M49.41,435.36q6-11.39,12-22.44Q54,419.75,46.58,427.17C47.52,429.9,48.47,432.62,49.41,435.36Z" style="fill: #fff"/>
    <path d="M37.42,436.51q-1.41,7-2.83,13.95,3.7-.51,7.41-.89,3.7-7.17,7.41-14.21c-.94-2.74-1.89-5.46-2.83-8.19Q42,431.75,37.42,436.51Z" style="fill: #fff"/>
    <path d="M30,563.2q6-12,12-23.56-3.7.36-7.41.89Q32.3,551.84,30,563.2Z" style="fill: #fff"/>
    <path d="M34.59,540.53q1.41-7,2.83-14-7.43,7.73-14.83,16Q28.59,541.36,34.59,540.53Z" style="fill: #fff"/>
    <path d="M42,539.66q6-.64,12-.91-2.28-6.69-4.58-13.33Q45.72,532.47,42,539.66Z" style="fill: #fff"/>
    <path d="M37.42,526.57q-1.41,7-2.83,14,3.7-.53,7.41-.87,3.7-7.17,7.41-14.21-1.41-4.14-2.83-8.2C43.53,520.28,40.47,523.4,37.42,526.57Z" style="fill: #fff"/>
    <path d="M37.42,526.54c3-3.14,6.11-6.29,9.16-9.33q-2.3-6.58-4.58-13.14Q39.71,515.31,37.42,526.54Z" style="fill: #fff"/>
    <path d="M49.41,525.43q6-11.4,12-22.44Q54,509.85,46.58,517.25Z" style="fill: #fff"/>
    <path d="M72,207q6-10.75,12-21.17-3.7-.36-7.41-.58Q74.3,196.08,72,207Z" style="fill: #fff"/>
    <path d="M76.59,185.23q1.41-6.71,2.83-13.39-7.42,6.24-14.83,13Q70.59,184.86,76.59,185.23Z" style="fill: #fff"/>
    <path d="M84,185.86q6,.52,12,1.37-2.28-7.12-4.58-14.22Q87.72,179.37,84,185.86Z" style="fill: #fff"/>
    <path d="M91.41,173.05q6-10.22,12-20.12Q96,158.38,88.58,164.31,90,168.68,91.41,173.05Z" style="fill: #fff"/>
    <path d="M79.42,171.84q-1.41,6.69-2.83,13.39,3.7.22,7.41.63,3.7-6.45,7.41-12.76c-.94-2.92-1.88-5.84-2.83-8.74Q84,168,79.42,171.84Z" style="fill: #fff"/>
    <path d="M79.42,171.84Q84,168,88.58,164.31q-2.3-7-4.58-14.06Q81.71,161,79.42,171.84Z" style="fill: #fff"/>
    <path d="M84,275.85q6,.58,12,1.49-2.28-7.15-4.58-14.22Q87.72,269.43,84,275.85Z" style="fill: #fff"/>
    <path d="M76.59,275.3q1.41-6.71,2.83-13.39-7.42,6.24-14.83,13Q70.59,274.93,76.59,275.3Z" style="fill: #fff"/>
    <path d="M72,297.05q6-10.76,12-21.17-3.7-.37-7.41-.58Q74.3,286.15,72,297.05Z" style="fill: #fff"/>
    <path d="M79.42,261.91q4.58-3.84,9.16-7.53-2.3-7-4.58-14.06Q81.71,251.09,79.42,261.91Z" style="fill: #fff"/>
    <path d="M91.41,263.12q6-10.23,12-20.12Q96,248.45,88.58,254.38Z" style="fill: #fff"/>
    <path d="M79.42,261.91Q78,268.59,76.59,275.3q3.7.22,7.41.55,3.7-6.45,7.41-12.75l-2.83-8.72Q84,258,79.42,261.91Z" style="fill: #fff"/>
    <path d="M76.59,365.36Q78,358.67,79.42,352,72,358.23,64.59,365,70.59,365,76.59,365.36Z" style="fill: #fff"/>
    <path d="M72,387.11q6-10.74,12-21.17c-2.47-.23-4.94-.43-7.41-.58Z" style="fill: #fff"/>
    <path d="M84,365.93q6,.58,12,1.47-2.28-7.14-4.58-14.22Q87.72,359.5,84,365.93Z" style="fill: #fff"/>
    <path d="M91.41,353.18q6-10.21,12-20.12Q96,338.51,88.58,344.44,90,348.82,91.41,353.18Z" style="fill: #fff"/>
    <path d="M79.42,352q-1.41,6.69-2.83,13.39c2.47.15,4.94.35,7.41.58q3.7-6.44,7.41-12.76c-.94-2.94-1.88-5.86-2.83-8.74C85.53,346.9,82.47,349.4,79.42,352Z" style="fill: #fff"/>
    <path d="M79.42,352q4.58-3.84,9.16-7.58-2.3-7-4.58-14Q81.71,341.17,79.42,352Z" style="fill: #fff"/>
    <path d="M76.59,455.43Q78,448.73,79.42,442,72,448.28,64.59,455,70.59,455.06,76.59,455.43Z" style="fill: #fff"/>
    <path d="M72,477.18Q78,466.42,84,456c-2.47-.27-4.94-.45-7.41-.56Q74.3,466.27,72,477.18Z" style="fill: #fff"/>
    <path d="M84,456q6,.58,12,1.46-2.28-7.12-4.58-14.21Q87.72,449.55,84,456Z" style="fill: #fff"/>
    <path d="M91.41,443.25q6-10.22,12-20.12Q96,428.58,88.58,434.51C89.52,437.41,90.46,440.33,91.41,443.25Z" style="fill: #fff"/>
    <path d="M79.42,442q4.58-3.84,9.16-7.53-2.3-7.06-4.58-14.07Q81.71,431.23,79.42,442Z" style="fill: #fff"/>
    <path d="M79.42,442c-1,4.45-1.89,8.93-2.83,13.41,2.47.11,4.94.29,7.41.56q3.7-6.43,7.41-12.76-1.41-4.38-2.83-8.74Q84,438.17,79.42,442Z" style="fill: #fff"/>
    <path d="M126,110.17q6,1.68,12,3.63-2.28-7.55-4.58-15Q129.71,104.42,126,110.17Z" style="fill: #fff"/>
    <path d="M118.59,108.23q1.41-6.44,2.83-12.87-7.42,4.89-14.83,10.22Q112.59,106.75,118.59,108.23Z" style="fill: #fff"/>
    <path d="M114,129.12q6-9.62,12-18.94-3.7-1.05-7.41-2Q116.3,118.64,114,129.12Z" style="fill: #fff"/>
    <path d="M121.42,95.36c3-2,6.11-4,9.16-5.85Q128.29,82,126,74.61,123.71,85,121.42,95.36Z" style="fill: #fff"/>
    <path d="M133.41,98.76q6-9.18,12-18-7.41,4.16-14.83,8.74Q132,94.13,133.41,98.76Z" style="fill: #fff"/>
    <path d="M121.42,95.36q-1.41,6.42-2.83,12.87,3.7.92,7.41,2,3.7-5.79,7.41-11.42-1.41-4.64-2.83-9.25Q126,92.36,121.42,95.36Z" style="fill: #fff"/>
    <path d="M114,219.19q6-9.63,12-18.95-3.7-1-7.41-2Q116.3,208.72,114,219.19Z" style="fill: #fff"/>
    <path d="M126,200.23q6,1.68,12,3.64-2.28-7.55-4.58-15Q129.71,194.47,126,200.23Z" style="fill: #fff"/>
    <path d="M118.59,198.29q1.41-6.43,2.83-12.86-7.42,4.88-14.83,10.21Q112.59,196.83,118.59,198.29Z" style="fill: #fff"/>
    <path d="M133.41,188.83q6-9.18,12-18Q138,175,130.58,179.58,132,184.19,133.41,188.83Z" style="fill: #fff"/>
    <path d="M121.42,185.43q-1.42,6.45-2.83,12.86,3.7.92,7.41,2,3.7-5.79,7.41-11.41-1.41-4.64-2.83-9.25Q126,182.4,121.42,185.43Z" style="fill: #fff"/>
    <path d="M121.42,185.43q4.58-3,9.16-5.85-2.29-7.47-4.58-14.91Q123.71,175,121.42,185.43Z" style="fill: #fff"/>
    <path d="M118.59,288.36c.94-4.3,1.88-8.58,2.83-12.87q-7.42,4.88-14.83,10.22Q112.59,286.87,118.59,288.36Z" style="fill: #fff"/>
    <path d="M126,290.3q6,1.67,12,3.63-2.28-7.55-4.58-15Q129.71,284.52,126,290.3Z" style="fill: #fff"/>
    <path d="M114,309.25q6-9.62,12-18.95-3.7-1-7.41-1.94Q116.3,298.78,114,309.25Z" style="fill: #fff"/>
    <path d="M121.42,275.49q4.58-3,9.16-5.85-2.29-7.47-4.58-14.9Q123.71,265.1,121.42,275.49Z" style="fill: #fff"/>
    <path d="M133.41,278.9q6-9.18,12-18Q138,265,130.58,269.64,132,274.26,133.41,278.9Z" style="fill: #fff"/>
    <path d="M121.42,275.49q-1.42,6.39-2.83,12.87,3.7.92,7.41,1.94,3.7-5.78,7.41-11.4-1.41-4.65-2.83-9.26Q126,272.49,121.42,275.49Z" style="fill: #fff"/>
    <path d="M114,399.32q6-9.63,12-18.95-3.7-1-7.41-1.94Q116.3,388.84,114,399.32Z" style="fill: #fff"/>
    <path d="M126,380.37c4,1.11,8,2.33,12,3.63q-2.28-7.54-4.58-15.05Q129.71,374.61,126,380.37Z" style="fill: #fff"/>
    <path d="M118.59,378.43q1.41-6.45,2.83-12.88-7.42,4.89-14.83,10.22Q112.59,376.94,118.59,378.43Z" style="fill: #fff"/>
    <path d="M121.42,365.55Q120,372,118.59,378.43q3.7.9,7.41,1.94,3.7-5.78,7.41-11.41-1.41-4.65-2.83-9.26Q126,362.55,121.42,365.55Z" style="fill: #fff"/>
    <path d="M121.42,365.55q4.58-3,9.16-5.85-2.29-7.47-4.58-14.89Q123.71,355.16,121.42,365.55Z" style="fill: #fff"/>
    <path d="M133.41,369q6-9.13,12-18-7.41,4.15-14.83,8.73Q132,364.34,133.41,369Z" style="fill: #fff"/>
    <path d="M118.59,468.48c.94-4.31,1.89-8.59,2.83-12.88q-7.42,4.92-14.83,10.22Q112.59,467,118.59,468.48Z" style="fill: #fff"/>
    <path d="M126,470.43q6,1.67,12,3.63-2.28-7.55-4.58-15Q129.71,464.68,126,470.43Z" style="fill: #fff"/>
    <path d="M114,489.39q6-9.64,12-19-3.7-1-7.41-1.94Q116.3,478.92,114,489.39Z" style="fill: #fff"/>
    <path d="M121.42,455.62q4.58-3,9.16-5.85-2.29-7.47-4.58-14.9Q123.71,445.22,121.42,455.62Z" style="fill: #fff"/>
    <path d="M133.41,459q6-9.13,12-18-7.41,4.14-14.83,8.73Z" style="fill: #fff"/>
    <path d="M121.42,455.62c-.94,4.29-1.89,8.57-2.83,12.87q3.7.92,7.41,1.94,3.7-5.78,7.41-11.4-1.41-4.63-2.83-9.26Q126,452.61,121.42,455.62Z" style="fill: #fff"/>
    <path d="M156,148.88q6-8.59,12-16.9-3.7-1.65-7.41-3.21Q158.3,138.81,156,148.88Z" style="fill: #fff"/>
    <path d="M160.59,128.77q1.41-6.2,2.83-12.38Q156,120,148.59,124.05,154.59,126.27,160.59,128.77Z" style="fill: #fff"/>
    <path d="M168,132q6,2.65,12,5.62-2.28-7.92-4.58-15.78Q171.71,126.86,168,132Z" style="fill: #fff"/>
    <path d="M163.42,116.39q4.58-2.23,9.16-4.31-2.29-7.86-4.58-15.66Q165.71,106.39,163.42,116.39Z" style="fill: #fff"/>
    <path d="M163.42,116.39q-1.41,6.18-2.83,12.38,3.71,1.56,7.41,3.21,3.7-5.14,7.41-10.17-1.41-4.87-2.83-9.73Q168,114.17,163.42,116.39Z" style="fill: #fff"/>
    <path d="M175.41,121.77q6-8.14,12-16-7.41,3-14.83,6.3C173.52,115.29,174.47,118.52,175.41,121.77Z" style="fill: #fff"/>
    <path d="M160.59,218.84q1.41-6.19,2.83-12.38-7.42,3.61-14.83,7.66Q154.59,216.34,160.59,218.84Z" style="fill: #fff"/>
    <path d="M156,239q6-8.58,12-16.91-3.7-1.65-7.41-3.2Q158.3,228.88,156,239Z" style="fill: #fff"/>
    <path d="M168,222q6,2.67,12,5.62-2.28-7.92-4.58-15.79Q171.71,216.91,168,222Z" style="fill: #fff"/>
    <path d="M163.42,206.46q4.58-2.24,9.16-4.31-2.29-7.86-4.58-15.67Q165.71,196.46,163.42,206.46Z" style="fill: #fff"/>
    <path d="M175.41,211.87q6-8.13,12-16-7.41,2.94-14.83,6.3Q174,207,175.41,211.87Z" style="fill: #fff"/>
    <path d="M163.42,206.46q-1.41,6.18-2.83,12.38,3.71,1.54,7.41,3.21,3.7-5.15,7.41-10.18-1.41-4.87-2.83-9.72Q168,204.22,163.42,206.46Z" style="fill: #fff"/>
    <path d="M168,312.1q6,2.7,12,5.63-2.28-7.92-4.58-15.79Q171.71,307,168,312.1Z" style="fill: #fff"/>
    <path d="M160.59,308.91q1.41-6.21,2.83-12.39-7.42,3.63-14.83,7.66Q154.59,306.4,160.59,308.91Z" style="fill: #fff"/>
    <path d="M156,329q6-8.61,12-16.91c-2.47-1.11-4.94-2.17-7.41-3.2Q158.3,318.93,156,329Z" style="fill: #fff"/>
    <path d="M175.41,301.94q6-8.16,12-16-7.41,3-14.83,6.3Q174,297.07,175.41,301.94Z" style="fill: #fff"/>
    <path d="M163.42,296.52q-1.41,6.19-2.83,12.39c2.47,1,4.94,2.09,7.41,3.2q3.7-5.14,7.41-10.17-1.41-4.87-2.83-9.73Q168,294.3,163.42,296.52Z" style="fill: #fff"/>
    <path d="M163.42,296.52q4.58-2.24,9.16-4.31-2.29-7.81-4.58-15.67Q165.71,286.52,163.42,296.52Z" style="fill: #fff"/>
    <path d="M160.59,399q1.41-6.2,2.83-12.38-7.42,3.62-14.83,7.66Q154.59,396.47,160.59,399Z" style="fill: #fff"/>
    <path d="M156,419.08q6-8.59,12-16.91-3.7-1.65-7.41-3.2Q158.3,409,156,419.08Z" style="fill: #fff"/>
    <path d="M168,402.17q6,2.67,12,5.63-2.28-7.92-4.58-15.8Q171.71,397,168,402.17Z" style="fill: #fff"/>
    <path d="M163.42,386.59q4.58-2.23,9.16-4.31-2.29-7.89-4.58-15.67Q165.71,376.59,163.42,386.59Z" style="fill: #fff"/>
    <path d="M175.41,392q6-8.16,12-16-7.41,3-14.83,6.3Q174,387.16,175.41,392Z" style="fill: #fff"/>
    <path d="M163.42,386.59Q162,392.77,160.59,399q3.71,1.54,7.41,3.2,3.7-5.13,7.41-10.16-1.41-4.86-2.83-9.73Q168,384.35,163.42,386.59Z" style="fill: #fff"/>
    <path d="M202.59,66.12q1.41-6,2.83-11.94Q198,56.66,190.59,59.5,196.59,62.7,202.59,66.12Z" style="fill: #fff"/>
    <path d="M198,85.52q6-7.67,12-15-3.7-2.22-7.41-4.35Q200.3,75.81,198,85.52Z" style="fill: #fff"/>
    <path d="M210,70.47q6,3.61,12,7.45-2.28-8.26-4.58-16.49Q213.71,65.92,210,70.47Z" style="fill: #fff"/>
    <path d="M205.42,54.18c3.05-1,6.11-2,9.16-2.9q-2.29-8.2-4.58-16.37Q207.71,44.54,205.42,54.18Z" style="fill: #fff"/>
    <path d="M205.42,54.18q-1.41,6-2.83,11.94,3.71,2.13,7.41,4.35,3.7-4.56,7.41-9-1.41-5.07-2.83-10.15Q210,52.68,205.42,54.18Z" style="fill: #fff"/>
    <path d="M217.41,61.43q6-7.27,12-14.23-7.41,1.86-14.83,4.08Q216,56.35,217.41,61.43Z" style="fill: #fff"/>
    <path d="M202.59,156.19c.94-4,1.88-8,2.83-11.94q-7.42,2.46-14.83,5.32Q196.59,152.75,202.59,156.19Z" style="fill: #fff"/>
    <path d="M198,175.58q6-7.65,12-15-3.7-2.22-7.41-4.35Z" style="fill: #fff"/>
    <path d="M210,160.54q6,3.6,12,7.44-2.28-8.25-4.58-16.48Q213.71,156,210,160.54Z" style="fill: #fff"/>
    <path d="M205.42,144.25c3.05-1,6.11-1.95,9.16-2.9Q212.29,133.14,210,125,207.71,134.61,205.42,144.25Z" style="fill: #fff"/>
    <path d="M217.41,151.5q6-7.27,12-14.23-7.41,1.84-14.83,4.08Q216,146.42,217.41,151.5Z" style="fill: #fff"/>
    <path d="M205.42,144.25q-1.41,6-2.83,11.94,3.71,2.15,7.41,4.35,3.7-4.56,7.41-9-1.41-5.08-2.83-10.15C211.53,142.26,208.47,143.24,205.42,144.25Z" style="fill: #fff"/>
    <path d="M210,250.61q6,3.58,12,7.44-2.28-8.27-4.58-16.48Q213.71,246,210,250.61Z" style="fill: #fff"/>
    <path d="M202.59,246.26q1.41-6,2.83-11.94-7.42,2.46-14.83,5.32Q196.59,242.82,202.59,246.26Z" style="fill: #fff"/>
    <path d="M198,265.65q6-7.65,12-15-3.7-2.22-7.41-4.35Q200.3,255.94,198,265.65Z" style="fill: #fff"/>
    <path d="M205.42,234.32c3.05-1,6.11-1.95,9.16-2.9q-2.29-8.17-4.58-16.37Q207.71,224.67,205.42,234.32Z" style="fill: #fff"/>
    <path d="M217.41,241.57q6-7.27,12-14.23-7.41,1.86-14.83,4.08Q216,236.49,217.41,241.57Z" style="fill: #fff"/>
    <path d="M205.42,234.32q-1.41,6-2.83,11.94,3.71,2.12,7.41,4.35,3.7-4.56,7.41-9-1.41-5.1-2.83-10.15Q210,232.79,205.42,234.32Z" style="fill: #fff"/>
    <path d="M198,355.73q6-7.64,12-15-3.7-2.24-7.41-4.36Q200.3,346,198,355.73Z" style="fill: #fff"/>
    <path d="M210,340.69q6,3.57,12,7.43-2.28-8.25-4.58-16.48Q213.71,336.11,210,340.69Z" style="fill: #fff"/>
    <path d="M202.59,336.32q1.41-6,2.83-11.94-7.42,2.47-14.83,5.33Q196.59,332.89,202.59,336.32Z" style="fill: #fff"/>
    <path d="M205.42,324.39q-1.41,6-2.83,11.94,3.71,2.13,7.41,4.36,3.7-4.57,7.41-9.05-1.41-5.08-2.83-10.15C211.53,322.45,208.47,323.36,205.42,324.39Z" style="fill: #fff"/>
    <path d="M217.41,331.63q6-7.23,12-14.24-7.41,1.88-14.83,4.09Q216,326.57,217.41,331.63Z" style="fill: #fff"/>
    <path d="M205.42,324.38c3.05-1,6.11-1.94,9.16-2.9q-2.29-8.19-4.58-16.36Q207.71,314.73,205.42,324.38Z" style="fill: #fff"/>
    <path d="M198,445.78q6-7.65,12-15-3.7-2.22-7.41-4.35Q200.3,436.06,198,445.78Z" style="fill: #fff"/>
    <path d="M217.41,421.7q6-7.27,12-14.24-7.41,1.86-14.83,4.09Q216,416.61,217.41,421.7Z" style="fill: #fff"/>
    <path d="M202.59,426.39q1.41-6,2.83-11.95-7.42,2.47-14.83,5.33Q196.59,423,202.59,426.39Z" style="fill: #fff"/>
    <path d="M210,430.74q6,3.6,12,7.44-2.28-8.26-4.58-16.48Q213.71,426.17,210,430.74Z" style="fill: #fff"/>
    <path d="M205.42,414.44c3.05-1,6.11-1.94,9.16-2.89q-2.29-8.21-4.58-16.37Q207.71,404.79,205.42,414.44Z" style="fill: #fff"/>
    <path d="M205.42,414.44q-1.41,6-2.83,11.95,3.71,2.13,7.41,4.35,3.7-4.58,7.41-9-1.41-5.08-2.83-10.15C211.53,412.44,208.47,413.43,205.42,414.44Z" style="fill: #fff"/>
    <path d="M244.59,99.8Q246,94,247.42,88.26q-7.42,1.41-14.83,3.19Q238.59,95.51,244.59,99.8Z" style="fill: #fff"/>
    <path d="M240,118.55q6-6.78,12-13.35-3.7-2.74-7.41-5.39Q242.3,109.2,240,118.55Z" style="fill: #fff"/>
    <path d="M252,105.19q6,4.43,12,9.08-2.28-8.55-4.58-17.1Q255.71,101.12,252,105.19Z" style="fill: #fff"/>
    <path d="M247.42,88.25c3.05-.59,6.11-1.13,9.16-1.63q-2.29-8.52-4.58-17Q249.71,78.93,247.42,88.25Z" style="fill: #fff"/>
    <path d="M259.41,97.17q6-6.42,12-12.67-7.41.93-14.83,2.13Q258,91.9,259.41,97.17Z" style="fill: #fff"/>
    <path d="M247.42,88.26Q246,94,244.59,99.8q3.71,2.65,7.41,5.39,3.7-4.05,7.41-8-1.41-5.28-2.83-10.54C253.53,87.17,250.47,87.67,247.42,88.26Z" style="fill: #fff"/>
    <path d="M240,208.6q6-6.79,12-13.34-3.7-2.74-7.41-5.4Q242.3,199.19,240,208.6Z" style="fill: #fff"/>
    <path d="M252,195.26q6,4.43,12,9.08-2.28-8.58-4.58-17.11Q255.71,191.18,252,195.26Z" style="fill: #fff"/>
    <path d="M244.59,189.86q1.41-5.78,2.83-11.54-7.42,1.43-14.83,3.2Q238.59,185.58,244.59,189.86Z" style="fill: #fff"/>
    <path d="M247.42,178.32c3.05-.58,6.11-1.13,9.16-1.63q-2.29-8.5-4.58-17Q249.71,169,247.42,178.32Z" style="fill: #fff"/>
    <path d="M259.41,187.23q6-6.4,12-12.62-7.41.88-14.83,2.08Q258,182,259.41,187.23Z" style="fill: #fff"/>
    <path d="M247.42,178.32q-1.42,5.77-2.83,11.54,3.71,2.65,7.41,5.4,3.7-4,7.41-8Q258,182,256.58,176.69C253.53,177.16,250.47,177.74,247.42,178.32Z" style="fill: #fff"/>
    <path d="M240,298.67q6-6.8,12-13.34-3.7-2.74-7.41-5.4Q242.3,289.29,240,298.67Z" style="fill: #fff"/>
    <path d="M252,285.32q6,4.44,12,9.09-2.28-8.58-4.58-17.11Q255.71,281.23,252,285.32Z" style="fill: #fff"/>
    <path d="M244.59,279.93q1.41-5.78,2.83-11.54-7.42,1.42-14.83,3.2Q238.59,275.64,244.59,279.93Z" style="fill: #fff"/>
    <path d="M247.42,268.39c3.05-.59,6.11-1.13,9.16-1.63q-2.29-8.5-4.58-17Q249.71,259.08,247.42,268.39Z" style="fill: #fff"/>
    <path d="M259.41,277.3q6-6.41,12-12.62-7.41.87-14.83,2.08Q258,272,259.41,277.3Z" style="fill: #fff"/>
    <path d="M247.42,268.39q-1.41,5.76-2.83,11.54,3.71,2.65,7.41,5.4,3.7-4.06,7.41-8Q258,272,256.58,266.76C253.53,267.26,250.47,267.8,247.42,268.39Z" style="fill: #fff"/>
    <path d="M240,388.74q6-6.8,12-13.36-3.7-2.73-7.41-5.38Q242.3,379.35,240,388.74Z" style="fill: #fff"/>
    <path d="M244.59,370q1.41-5.79,2.83-11.54-7.42,1.41-14.83,3.19Q238.59,365.72,244.59,370Z" style="fill: #fff"/>
    <path d="M252,375.4q6,4.43,12,9.09-2.28-8.57-4.58-17.1Q255.71,371.32,252,375.4Z" style="fill: #fff"/>
    <path d="M247.42,358.46Q246,364.25,244.59,370q3.71,2.64,7.41,5.38,3.7-4,7.41-8-1.41-5.28-2.83-10.54C253.53,357.33,250.47,357.87,247.42,358.46Z" style="fill: #fff"/>
    <path d="M259.41,367.37q6-6.42,12-12.63-7.41.88-14.83,2.09Q258,362.08,259.41,367.37Z" style="fill: #fff"/>
    <path d="M247.42,358.45c3.05-.59,6.11-1.13,9.16-1.63l-4.58-17Q249.71,349.14,247.42,358.45Z" style="fill: #fff"/>
    <path d="M294,55.37q6,5.19,12,10.55-2.28-8.85-4.58-17.66Q297.71,51.79,294,55.37Z" style="fill: #fff"/>
    <path d="M286.59,49.05q1.41-5.59,2.83-11.19-7.43.49-14.83,1.3Q280.59,44,286.59,49.05Z" style="fill: #fff"/>
    <path d="M282,67.2q6-6,12-11.83-3.71-3.19-7.41-6.32Q284.3,58.11,282,67.2Z" style="fill: #fff"/>
    <path d="M289.42,37.86c3.05-.2,6.11-.36,9.16-.48q-2.29-8.79-4.58-17.57Q291.71,28.83,289.42,37.86Z" style="fill: #fff"/>
    <path d="M301.41,48.28q6-5.7,12-11.19-7.41,0-14.83.34Q300,42.85,301.41,48.28Z" style="fill: #fff"/>
    <path d="M289.42,37.86c-.94,3.73-1.88,7.45-2.83,11.19q3.71,3.14,7.41,6.32,3.71-3.59,7.41-7.11-1.41-5.43-2.83-10.85C295.53,37.49,292.47,37.67,289.42,37.86Z" style="fill: #fff"/>
    <path d="M282,157.26q6-6,12-11.83-3.71-3.19-7.41-6.31Z" style="fill: #fff"/>
    <path d="M286.59,139.16q1.41-5.59,2.83-11.18-7.43.44-14.83,1.28Q280.59,134.12,286.59,139.16Z" style="fill: #fff"/>
    <path d="M294,145.43q6,5.17,12,10.56-2.28-8.85-4.58-17.66Q297.71,141.86,294,145.43Z" style="fill: #fff"/>
    <path d="M301.41,138.28q6-5.7,12-11.19-7.41.06-14.83.33Q300,132.85,301.41,138.28Z" style="fill: #fff"/>
    <path d="M289.42,127.93c3.05-.21,6.11-.36,9.16-.49L294,109.87Q291.71,118.9,289.42,127.93Z" style="fill: #fff"/>
    <path d="M289.42,127.93q-1.41,5.58-2.83,11.19,3.71,3.12,7.41,6.31,3.71-3.59,7.41-7.1-1.41-5.43-2.83-10.85C295.53,127.57,292.47,127.73,289.42,127.93Z" style="fill: #fff"/>
    <path d="M282,247.33q6-6,12-11.83-3.71-3.19-7.41-6.32Q284.3,238.24,282,247.33Z" style="fill: #fff"/>
    <path d="M286.59,229.16q1.41-5.61,2.83-11.2-7.43.53-14.83,1.3Q280.59,224.11,286.59,229.16Z" style="fill: #fff"/>
    <path d="M294,235.5q6,5.17,12,10.55-2.28-8.84-4.58-17.65Q297.71,231.91,294,235.5Z" style="fill: #fff"/>
    <path d="M289.42,218c3.05-.2,6.11-.36,9.16-.48q-2.29-8.81-4.58-17.57Q291.71,209,289.42,218Z" style="fill: #fff"/>
    <path d="M301.41,228.36q6-5.69,12-11.19-7.41.09-14.83.34Q300,222.93,301.41,228.36Z" style="fill: #fff"/>
    <path d="M289.42,218q-1.41,5.59-2.83,11.19,3.71,3.12,7.41,6.32,3.71-3.6,7.41-7.1Q300,223,298.58,217.54C295.53,217.63,292.47,217.79,289.42,218Z" style="fill: #fff"/>
    <path d="M294,325.57q6,5.18,12,10.55-2.28-8.83-4.58-17.66Q297.71,322,294,325.57Z" style="fill: #fff"/>
    <path d="M286.59,319.24q1.41-5.58,2.83-11.18-7.43.49-14.83,1.29Q280.59,314.19,286.59,319.24Z" style="fill: #fff"/>
    <path d="M282,337.4q6-6,12-11.83-3.71-3.19-7.41-6.33Q284.3,328.3,282,337.4Z" style="fill: #fff"/>
    <path d="M289.42,308.06c3.05-.2,6.11-.36,9.16-.48Q296.29,298.77,294,290,291.71,299,289.42,308.06Z" style="fill: #fff"/>
    <path d="M301.41,318.43q6-5.7,12-11.19-7.41,0-14.83.34Q300,313,301.41,318.43Z" style="fill: #fff"/>
    <path d="M289.42,308.06q-1.41,5.58-2.83,11.18,3.71,3.13,7.41,6.33,3.71-3.6,7.41-7.11Q300,313,298.58,307.6C295.53,307.7,292.47,307.86,289.42,308.06Z" style="fill: #fff"/>
    <path d="M282,427.46q6-6,12-11.82c-2.47-2.14-4.94-4.24-7.41-6.33Q284.3,418.37,282,427.46Z" style="fill: #fff"/>
    <path d="M294,415.64q6,5.16,12,10.55-2.28-8.87-4.58-17.66Q297.71,412,294,415.64Z" style="fill: #fff"/>
    <path d="M286.59,409.31q1.41-5.6,2.83-11.18-7.43.5-14.83,1.28Q280.59,404.27,286.59,409.31Z" style="fill: #fff"/>
    <path d="M289.42,398.13q-1.41,5.58-2.83,11.18c2.47,2.09,4.94,4.19,7.41,6.33q3.71-3.6,7.41-7.11-1.41-5.43-2.83-10.86C295.53,397.76,292.47,397.92,289.42,398.13Z" style="fill: #fff"/>
    <path d="M289.42,398.13c3.05-.21,6.11-.37,9.16-.49q-2.29-8.79-4.58-17.56Q291.71,389.08,289.42,398.13Z" style="fill: #fff"/>
    <path d="M301.41,408.49q6-5.7,12-11.19-7.41,0-14.83.34Q300,403.06,301.41,408.49Z" style="fill: #fff"/>
    <path d="M328.59,93.39Q330,88,331.42,82.54q-7.43-.36-14.83-.41Q322.59,87.65,328.59,93.39Z" style="fill: #fff"/>
    <path d="M324,111q6-5.37,12-10.49-3.71-3.6-7.41-7.14Z" style="fill: #fff"/>
    <path d="M343.41,94.23q6-5.06,12-9.92Q348,83.54,340.58,83,342,88.62,343.41,94.23Z" style="fill: #fff"/>
    <path d="M336,100.53q6,5.84,12,11.85-2.28-9.09-4.58-18.15Q339.72,97.35,336,100.53Z" style="fill: #fff"/>
    <path d="M331.42,82.52Q330,88,328.59,93.37q3.71,3.54,7.41,7.15,3.71-3.19,7.41-6.3Q342,88.61,340.58,83C337.53,82.83,334.47,82.66,331.42,82.52Z" style="fill: #fff"/>
    <path d="M331.42,82.52c3.05.14,6.11.31,9.16.52Q338.29,74,336,65,333.71,73.73,331.42,82.52Z" style="fill: #fff"/>
    <path d="M324,201.09q6-5.37,12-10.49c-2.47-2.4-4.94-4.79-7.41-7.14Q326.3,192.27,324,201.09Z" style="fill: #fff"/>
    <path d="M328.59,183.46q1.41-5.43,2.83-10.85-7.41-.36-14.83-.43Q322.59,177.74,328.59,183.46Z" style="fill: #fff"/>
    <path d="M336,190.6q6,5.85,12,11.85-2.28-9.09-4.58-18.16Q339.72,187.43,336,190.6Z" style="fill: #fff"/>
    <path d="M343.41,184.29q6-5,12-9.92c-5-.5-9.89-.93-14.83-1.26Q342,178.69,343.41,184.29Z" style="fill: #fff"/>
    <path d="M331.42,172.58Q330,178,328.59,183.43q3.71,3.54,7.41,7.15,3.71-3.2,7.41-6.31-1.41-5.57-2.83-11.16C337.53,172.9,334.47,172.73,331.42,172.58Z" style="fill: #fff"/>
    <path d="M331.42,172.58c3.05.15,6.11.32,9.16.53Q338.29,164,336,155,333.71,163.79,331.42,172.58Z" style="fill: #fff"/>
    <path d="M324,291.15q6-5.37,12-10.49-3.71-3.6-7.41-7.14Z" style="fill: #fff"/>
    <path d="M328.59,273.52q1.41-5.41,2.83-10.84-7.43-.37-14.83-.43Q322.59,267.8,328.59,273.52Z" style="fill: #fff"/>
    <path d="M336,280.66q6,5.83,12,11.85-2.28-9.09-4.58-18.15Q339.72,277.48,336,280.66Z" style="fill: #fff"/>
    <path d="M343.41,274.39q6-5.06,12-9.93-7.41-.78-14.83-1.27Q342,268.8,343.41,274.39Z" style="fill: #fff"/>
    <path d="M331.42,262.65c3.05.14,6.11.32,9.16.52q-2.29-9-4.58-18.07Q333.71,253.88,331.42,262.65Z" style="fill: #fff"/>
    <path d="M331.42,262.65q-1.41,5.42-2.83,10.85,3.71,3.54,7.41,7.13l7.41-6.3q-1.41-5.59-2.83-11.19C337.53,263,334.47,262.79,331.42,262.65Z" style="fill: #fff"/>
    <path d="M324,381.21q6-5.37,12-10.48-3.71-3.6-7.41-7.15Z" style="fill: #fff"/>
    <path d="M336,370.73q6,5.83,12,11.85-2.28-9.09-4.58-18.15Q339.72,367.54,336,370.73Z" style="fill: #fff"/>
    <path d="M328.59,363.58q1.41-5.41,2.83-10.84-7.43-.36-14.83-.42Q322.59,357.86,328.59,363.58Z" style="fill: #fff"/>
    <path d="M331.42,352.72q-1.41,5.41-2.83,10.85c2.47,2.35,4.94,4.74,7.41,7.14q3.71-3.18,7.41-6.3-1.41-5.61-2.83-11.19C337.53,353,334.47,352.85,331.42,352.72Z" style="fill: #fff"/>
    <path d="M343.41,364.43q6-5.06,12-9.93-7.41-.76-14.83-1.27Q342,358.82,343.41,364.43Z" style="fill: #fff"/>
    <path d="M331.42,352.72c3.05.13,6.11.31,9.16.51q-2.29-9-4.58-18.06Q333.71,343.93,331.42,352.72Z" style="fill: #fff"/>
    <path d="M366,69.26q6-4.74,12-9.33-3.71-3.93-7.41-7.83Q368.3,60.65,366,69.26Z" style="fill: #fff"/>
    <path d="M378,59.91q6,6.44,12,13-2.28-9.3-4.58-18.6Q381.72,57.09,378,59.91Z" style="fill: #fff"/>
    <path d="M370.59,52.07q1.41-5.3,2.83-10.59-7.43-1-14.83-1.87Q364.59,45.76,370.59,52.07Z" style="fill: #fff"/>
    <path d="M385.41,54.32q6-4.49,12-8.87-7.41-1.38-14.83-2.58Q384,48.59,385.41,54.32Z" style="fill: #fff"/>
    <path d="M373.42,41.48c3.05.44,6.11.9,9.16,1.39q-2.29-9.27-4.58-18.5Q375.71,32.92,373.42,41.48Z" style="fill: #fff"/>
    <path d="M373.42,41.48q-1.43,5.3-2.83,10.6Q374.3,56,378,59.91q3.71-2.82,7.41-5.61-1.41-5.71-2.83-11.43C379.53,42.38,376.47,41.92,373.42,41.48Z" style="fill: #fff"/>
    <path d="M370.59,142.14q1.41-5.29,2.83-10.59-7.43-1.05-14.83-1.88Q364.59,135.82,370.59,142.14Z" style="fill: #fff"/>
    <path d="M366,159.32q6-4.74,12-9.32l-7.41-7.83Q368.3,150.72,366,159.32Z" style="fill: #fff"/>
    <path d="M378,150q6,6.44,12,13-2.28-9.3-4.58-18.59Q381.72,147.14,378,150Z" style="fill: #fff"/>
    <path d="M373.42,131.55q-1.41,5.3-2.83,10.59L378,150q3.71-2.82,7.41-5.61-1.41-5.73-2.83-11.45C379.53,132.45,376.47,132,373.42,131.55Z" style="fill: #fff"/>
    <path d="M373.42,131.57c3.05.43,6.11.89,9.16,1.39q-2.29-9.29-4.58-18.5Q375.71,123,373.42,131.57Z" style="fill: #fff"/>
    <path d="M385.41,144.39q6-4.5,12-8.88-7.41-1.37-14.83-2.57Q384,138.67,385.41,144.39Z" style="fill: #fff"/>
    <path d="M385.41,234.46q6-4.5,12-8.88Q390,224.2,382.58,223C383.52,226.81,384.47,230.64,385.41,234.46Z" style="fill: #fff"/>
    <path d="M370.59,232.21q1.41-5.36,2.83-10.6-7.43-1.05-14.83-1.87Q364.59,225.89,370.59,232.21Z" style="fill: #fff"/>
    <path d="M378,240q6,6.44,12,13-2.28-9.3-4.58-18.59Q381.72,237.21,378,240Z" style="fill: #fff"/>
    <path d="M366,249.39q6-4.74,12-9.32-3.71-3.93-7.41-7.83Q368.3,240.79,366,249.39Z" style="fill: #fff"/>
    <path d="M373.42,221.61q-1.41,5.29-2.83,10.6,3.71,3.9,7.41,7.83,3.71-2.83,7.41-5.61Q384,228.7,382.58,223C379.53,222.51,376.47,222,373.42,221.61Z" style="fill: #fff"/>
    <path d="M373.42,221.61c3.05.43,6.11.9,9.16,1.4q-2.29-9.28-4.58-18.5Q375.71,213,373.42,221.61Z" style="fill: #fff"/>
    <path d="M370.59,322.27q1.41-5.29,2.83-10.59-7.43-1.05-14.83-1.87Q364.59,316,370.59,322.27Z" style="fill: #fff"/>
    <path d="M366,339.46q6-4.75,12-9.33-3.71-3.93-7.41-7.83Q368.3,330.85,366,339.46Z" style="fill: #fff"/>
    <path d="M378,330.1q6,6.43,12,13-2.28-9.3-4.58-18.59Q381.72,327.28,378,330.1Z" style="fill: #fff"/>
    <path d="M385.41,324.53q6-4.5,12-8.88c-4.94-.92-9.88-1.79-14.83-2.58C383.52,316.88,384.46,320.71,385.41,324.53Z" style="fill: #fff"/>
    <path d="M373.42,311.68Q372,317,370.59,322.27L378,330.1q3.71-2.84,7.41-5.6Q384,318.76,382.58,313C379.53,312.57,376.47,312.11,373.42,311.68Z" style="fill: #fff"/>
    <path d="M373.42,311.68c3.05.43,6.11.89,9.16,1.39q-2.29-9.26-4.58-18.5Q375.71,303.11,373.42,311.68Z" style="fill: #fff"/>
    <path d="M366,429.51q6-4.72,12-9.31l-7.41-7.83Q368.3,420.92,366,429.51Z" style="fill: #fff"/>
    <path d="M378,420.2q6,6.41,12,13-2.28-9.3-4.58-18.59Q381.72,417.38,378,420.2Z" style="fill: #fff"/>
    <path d="M370.59,412.34c.94-3.53,1.88-7.07,2.83-10.59q-7.43-1.06-14.83-1.88Q364.59,406,370.59,412.34Z" style="fill: #fff"/>
    <path d="M373.42,401.75c3.05.43,6.11.89,9.16,1.39q-2.29-9.27-4.58-18.51Q375.71,393.18,373.42,401.75Z" style="fill: #fff"/>
    <path d="M373.42,401.75Q372,407,370.59,412.34l7.41,7.83,7.41-5.61q-1.41-5.73-2.83-11.45C379.53,402.64,376.47,402.18,373.42,401.75Z" style="fill: #fff"/>
    <path d="M385.41,414.59q6-4.5,12-8.88-7.41-1.36-14.83-2.57Q384,408.86,385.41,414.59Z" style="fill: #fff"/>
    <path d="M412.59,104.62q1.41-5.18,2.83-10.36c-4.95-1.1-9.89-2.15-14.83-3.12Q406.59,97.82,412.59,104.62Z" style="fill: #fff"/>
    <path d="M408,121.42q6-4.23,12-8.33-3.71-4.25-7.41-8.47Z" style="fill: #fff"/>
    <path d="M420,113.09q6,6.89,12,13.9-2.28-9.46-4.58-18.92Q423.72,110.55,420,113.09Z" style="fill: #fff"/>
    <path d="M427.41,108.07q6-4,12-7.93-7.41-2-14.83-3.75Q426,102.23,427.41,108.07Z" style="fill: #fff"/>
    <path d="M415.42,94.25c3.05.69,6.11,1.4,9.16,2.13Q422.29,87,420,77.53,417.71,85.89,415.42,94.25Z" style="fill: #fff"/>
    <path d="M415.42,94.26q-1.41,5.19-2.83,10.36,3.71,4.2,7.41,8.47,3.71-2.53,7.41-5-1.41-5.85-2.83-11.68C421.53,95.65,418.47,95,415.42,94.26Z" style="fill: #fff"/>
    <path d="M420,203.16q6,6.89,12,13.89-2.28-9.47-4.58-18.91Q423.72,200.62,420,203.16Z" style="fill: #fff"/>
    <path d="M412.59,194.69q1.41-5.17,2.83-10.36-7.43-1.67-14.83-3.12Q406.59,187.87,412.59,194.69Z" style="fill: #fff"/>
    <path d="M408,211.49q6-4.25,12-8.33-3.71-4.26-7.41-8.47Q410.3,203.08,408,211.49Z" style="fill: #fff"/>
    <path d="M415.42,184.32c3.05.69,6.11,1.39,9.16,2.13Q422.29,177,420,167.6,417.71,176,415.42,184.32Z" style="fill: #fff"/>
    <path d="M427.41,198.14q6-4,12-7.94-7.41-1.95-14.83-3.74Q426,192.28,427.41,198.14Z" style="fill: #fff"/>
    <path d="M415.42,184.33q-1.41,5.17-2.83,10.36,3.71,4.22,7.41,8.47,3.71-2.53,7.41-5-1.41-5.87-2.83-11.68C421.53,185.72,418.47,185,415.42,184.33Z" style="fill: #fff"/>
    <path d="M408,301.55q6-4.23,12-8.33l-7.41-8.47Z" style="fill: #fff"/>
    <path d="M420,293.24q6,6.87,12,13.88-2.28-9.47-4.58-18.92Q423.72,290.71,420,293.24Z" style="fill: #fff"/>
    <path d="M412.59,284.75q1.41-5.17,2.83-10.36-7.43-1.67-14.83-3.12Q406.59,277.95,412.59,284.75Z" style="fill: #fff"/>
    <path d="M415.42,274.38c3.05.68,6.11,1.4,9.16,2.13q-2.29-9.43-4.58-18.85Q417.71,266,415.42,274.38Z" style="fill: #fff"/>
    <path d="M415.42,274.39q-1.41,5.17-2.83,10.36,3.71,4.23,7.41,8.49,3.71-2.53,7.41-5-1.41-5.85-2.83-11.68C421.53,275.79,418.47,275.07,415.42,274.39Z" style="fill: #fff"/>
    <path d="M427.41,288.21q6-4,12-7.93-7.41-2-14.83-3.75Q426,282.37,427.41,288.21Z" style="fill: #fff"/>
    <path d="M408,391.61q6-4.22,12-8.32-3.71-4.25-7.41-8.47Z" style="fill: #fff"/>
    <path d="M420,383.29q6,6.88,12,13.9-2.28-9.46-4.58-18.92Q423.72,380.76,420,383.29Z" style="fill: #fff"/>
    <path d="M412.59,374.82q1.41-5.18,2.83-10.36-7.43-1.66-14.83-3.13Q406.59,368,412.59,374.82Z" style="fill: #fff"/>
    <path d="M427.41,378.26q6-4,12-7.92-7.41-2-14.83-3.75C425.53,370.48,426.48,374.38,427.41,378.26Z" style="fill: #fff"/>
    <path d="M415.42,364.5q-1.41,5.19-2.83,10.37l7.41,8.46,7.41-5q-1.41-5.83-2.83-11.68C421.53,365.85,418.47,365.14,415.42,364.5Z" style="fill: #fff"/>
    <path d="M415.42,364.45c3.05.68,6.11,1.39,9.16,2.13q-2.29-9.43-4.58-18.86Q417.71,356.08,415.42,364.45Z" style="fill: #fff"/>
    <path d="M450,86.77q6-3.81,12-7.52-3.71-4.5-7.41-9Z" style="fill: #fff"/>
    <path d="M454.59,70.29q1.41-5.1,2.83-10.17Q450,58,442.59,56,448.59,63.07,454.59,70.29Z" style="fill: #fff"/>
    <path d="M462,79.25q6,7.29,12,14.67-2.29-9.65-4.59-19.21C466.94,76.21,464.47,77.73,462,79.25Z" style="fill: #fff"/>
    <path d="M457.42,60.12c3.05.89,6.11,1.85,9.16,2.73q-2.29-9.59-4.58-19.16Q459.71,51.9,457.42,60.12Z" style="fill: #fff"/>
    <path d="M469.41,74.71q6-3.64,12-7.2-7.41-2.4-14.83-4.66Q468,68.77,469.41,74.71Z" style="fill: #fff"/>
    <path d="M457.42,60.12q-1.41,5.09-2.83,10.17,3.71,4.45,7.41,9c2.47-1.52,4.94-3,7.41-4.54q-1.41-5.94-2.83-11.86C463.53,61.92,460.47,61,457.42,60.12Z" style="fill: #fff"/>
    <path d="M450,176.83q6-3.81,12-7.51-3.71-4.51-7.41-9Z" style="fill: #fff"/>
    <path d="M462,169.32q6,7.29,12,14.66-2.28-9.6-4.58-19.2C467,166.28,464.47,167.8,462,169.32Z" style="fill: #fff"/>
    <path d="M454.59,160.36q1.41-5.1,2.83-10.17Q450,148,442.59,146,448.59,153.13,454.59,160.36Z" style="fill: #fff"/>
    <path d="M457.42,150.19c3.05.89,6.11,1.8,9.16,2.72q-2.29-9.58-4.58-19.15Q459.71,142,457.42,150.19Z" style="fill: #fff"/>
    <path d="M469.41,164.81q6-3.65,12-7.2-7.41-2.43-14.83-4.7Q468,158.87,469.41,164.81Z" style="fill: #fff"/>
    <path d="M457.42,150.2q-1.41,5.09-2.83,10.17c2.47,3,4.94,6,7.41,9,2.47-1.53,4.94-3,7.41-4.55q-1.41-5.92-2.83-11.86C463.53,152,460.47,151.1,457.42,150.2Z" style="fill: #fff"/>
    <path d="M454.59,250.42q1.41-5.08,2.83-10.17-7.43-2.16-14.83-4.16Q448.59,243.19,454.59,250.42Z" style="fill: #fff"/>
    <path d="M450,266.9q6-3.81,12-7.51l-7.41-9Z" style="fill: #fff"/>
    <path d="M462,259.39q6,7.28,12,14.66-2.28-9.62-4.58-19.21Q465.72,257.09,462,259.39Z" style="fill: #fff"/>
    <path d="M469.41,254.84q6-3.66,12-7.2-7.41-2.4-14.83-4.66Q468,248.91,469.41,254.84Z" style="fill: #fff"/>
    <path d="M457.42,240.25c3.05.89,6.11,1.8,9.16,2.73q-2.29-9.58-4.58-19.16Q459.71,232,457.42,240.25Z" style="fill: #fff"/>
    <path d="M457.42,240.25c-.94,3.39-1.88,6.77-2.83,10.17l7.41,9q3.71-2.29,7.41-4.55Q468,248.9,466.58,243C463.53,242.05,460.47,241.14,457.42,240.25Z" style="fill: #fff"/>
    <path d="M450,357q6-3.81,12-7.52-3.71-4.5-7.41-9Z" style="fill: #fff"/>
    <path d="M462,349.45q6,7.29,12,14.66-2.28-9.62-4.58-19.21Z" style="fill: #fff"/>
    <path d="M454.59,340.53q1.41-5.1,2.83-10.17-7.43-2.21-14.83-4.16Q448.59,333.31,454.59,340.53Z" style="fill: #fff"/>
    <path d="M469.41,344.9q6-3.64,12-7.19-7.41-2.4-14.83-4.66Q468,339,469.41,344.9Z" style="fill: #fff"/>
    <path d="M457.42,330.31c3.05.9,6.11,1.81,9.16,2.74q-2.29-9.58-4.58-19.17Q459.71,322.09,457.42,330.31Z" style="fill: #fff"/>
    <path d="M457.42,330.31q-1.43,5.13-2.83,10.17,3.71,4.47,7.41,9c2.47-1.53,4.94-3,7.41-4.55Q468,339,466.58,333.05C463.53,332.12,460.47,331.2,457.42,330.31Z" style="fill: #fff"/>
    <path d="M450,447q6-3.81,12-7.51l-7.41-9Z" style="fill: #fff"/>
    <path d="M462,439.51q6,7.29,12,14.67-2.28-9.6-4.58-19.21Z" style="fill: #fff"/>
    <path d="M454.59,430.53q1.41-5.08,2.83-10.17-7.43-2.14-14.83-4.16Q448.59,423.31,454.59,430.53Z" style="fill: #fff"/>
    <path d="M469.41,435q6-3.64,12-7.2-7.41-2.4-14.83-4.65Q468,429,469.41,435Z" style="fill: #fff"/>
    <path d="M457.42,420.38q-1.43,5.06-2.83,10.17l7.41,9,7.41-4.54Q468,429,466.58,423.12C463.53,422.19,460.47,421.27,457.42,420.38Z" style="fill: #fff"/>
    <path d="M457.42,420.38c3.05.89,6.11,1.85,9.16,2.74q-2.29-9.6-4.58-19.17Q459.71,412.16,457.42,420.38Z" style="fill: #fff"/>
  </g>
</svg>
