<svg xmlns="http://www.w3.org/2000/svg" viewBox="0 0 1260 1012.04">
  <g>
    <path d="M0,90.08v920C420,738.76,840,1193.28,1260,922V2C840,273.28,420-181.24,0,90.08Z" style="fill: #fff"/>
    <path d="M466.67,218C731.11,260.32,995.56,377.24,1260,206.41V104.19C995.56,275,731.11,158.1,466.67,115.78Z" style="fill: #0038a8"/>
    <path d="M466.67,422.45C731.11,464.77,995.56,581.68,1260,410.86V308.63c-264.44,170.83-528.89,53.91-793.33,11.6Z" style="fill: #0038a8"/>
    <path d="M0,703.41C420,432.09,840,886.62,1260,615.3V513.08C840,784.39,420,329.87,0,601.19Z" style="fill: #0038a8"/>
    <path d="M0,907.85c420-271.31,840,183.21,1260-88.1V717.52C840,988.84,420,534.32,0,805.63Z" style="fill: #0038a8"/>
    <g>
      <path d="M187.67,344.56c-23.57,67.54,8.82,62.73-19.16,99.1,45-25.47,6.23-48.85,69.71-108.65q-7.72-11.73-15.45-23.27Q205.22,327.6,187.67,344.56Z" style="fill: #fcd116"/>
      <path d="M220.63,311.59q7.74,11.52,15.48,23.26c-32.87,30.72-38,53.86-41.8,70-3,13.12-5.28,22.8-20.13,33.28,9.66-14.61,8.55-22.45,7.09-32.94-1.6-11.39-3.8-27.13,7.83-60.31.19-.56.39-1.12.59-1.68l-2.85-.7-.59,1.68c-11.95,34.18-9.68,50.43-8,62.19s2.64,18.72-10.79,36.32c-1.58,2.08-3.16,4.16-4.74,6.26q3.15-1.94,6.3-3.83c22-13.1,24.8-24.71,28.3-40,3.91-16.73,8.77-38.58,41.83-68.9l1.2-1.09q-8.56-13.05-17.13-25.84Z" style="fill: #7b3f00"/>
    </g>
    <g>
      <path d="M212.6,321l.45.22c-17.37,34.24-20.32,59.17-22.86,78.27-1.26,9.58-2.41,17.81-5.31,25.27a43.49,43.49,0,0,1-8.35,13.51c32.16-23,2.51-47.81,61.69-103.29q-7.72-11.73-15.45-23.26Q217.69,316.34,212.6,321Z" style="fill: #7b3f00"/>
      <path d="M211.31,321.29l.78.38c-16.72,33.22-19.87,57.33-22.41,76.52l-.18,1.36c-1.19,9-2.31,17.48-5.26,25.05a42.12,42.12,0,0,1-8.15,13.2L171.38,443c1.82-1.38,3.63-2.75,5.45-4.11,14.25-10.62,16.62-20.76,19.63-33.83,4-16.88,8.87-38.93,42.17-69.5l.55-.5q-8.12-12.33-16.22-24.44Q217.13,315.9,211.31,321.29ZM195.11,405c-2.65,11.48-4.66,20.11-14.24,28.87a43.8,43.8,0,0,0,4.64-8.85c3-7.79,4.17-16.38,5.38-25.49l.18-1.36c2.53-19.17,5.69-43.31,22.58-76.57l.36-.72-.12-.06q4.35-4,8.7-7.93,7.33,10.95,14.68,22.09C204.05,365.68,199.1,387.92,195.11,405Z" style="fill: #7b3f00"/>
    </g>
    <path d="M187.32,398.34c-2.58,19.61-4.28,32.36-19.48,44,.45.91.89,1.81,1.33,2.72,16.67-12.68,18.57-26.85,21.19-46.81,2.55-19.28,5.73-43.54,22.68-76.95l-2.63-1.33C193.13,354.07,189.77,379.78,187.32,398.34Z" style="fill: #7b3f00"/>
    <path d="M202.53,265q15.41,90,30.8,180.86V260.36Q217.94,262.27,202.53,265Z" style="fill: #fcd116"/>
    <path d="M233.33,445.89q15.4-94.68,30.8-188.57-15.39,1.13-30.8,3Z" style="fill: #fcd116"/>
    <path d="M233.33,455.32Q249.65,355,266,255.5a591.42,591.42,0,0,0-65.29,8.18Q217,359,233.33,455.32Zm1.54-193.47q13.71-1.67,27.42-2.7Q248.58,342.76,234.87,427Zm-3.08,165.53q-13.71-80.83-27.41-161,13.71-2.42,27.41-4.15Z" style="fill: #7b3f00"/>
    <path d="M264.13,257.32q-15.39,1.13-30.8,3V445.89q15.4-94.68,30.8-188.57-15.39,1.13-30.8,3Q248.74,258.44,264.13,257.32Z" style="fill: #7b3f00"/>
    <g>
      <path d="M76.83,374.77c21.1,2.35,29.6-7.39,42.5-20.24,12.9-12.51,30.19-28.13,68.88-29.75q2.68-15.46,5.39-30.91-21,0-42,1.68C94.65,339.33,115.92,359.41,76.83,374.77Z" style="fill: #fcd116"/>
      <path d="M187,323.12c-40.33,2-57.77,19.9-70.54,32.32-10.19,10.18-17.87,17.91-32.94,17.86,14.83-7.61,19.31-15.8,25.24-26.83,6.47-11.82,15.34-28.74,43.4-49.53l1.42-1c-.39-.93-.78-1.86-1.18-2.79l-1.42,1c-28.85,21.45-38,39-44.7,51.24C99.62,357.85,95.66,365,76.85,373.07c-2.21,1-4.41,1.94-6.62,2.93,2,.18,3.93.38,5.9.59,8.34.88,14.83,0,20.39-2.25,8.23-3.3,14.41-9.53,21.48-16.54,13.22-12.8,29.67-29.67,70-31.3l1.46-.05q3-17.15,6-34.26l-3-.07Q189.68,307.62,187,323.12Z" style="fill: #7b3f00"/>
    </g>
    <g>
      <path d="M181.54,294.53c-32.53,16-50.18,37-64,53-6.92,8.06-12.89,15.08-19.37,20.24a40.63,40.63,0,0,1-13.43,7.32c33.57.38,31.35-45.67,103.48-50.27q2.7-15.48,5.39-30.92-6.09,0-12.19.13Z" style="fill: #7b3f00"/>
      <path d="M180.69,294.16c-31.47,15.69-48.72,35.69-62.6,51.73l-1,1.14c-6.49,7.57-12.62,14.84-19.19,20.08a39.42,39.42,0,0,1-13.11,7.16q-3,.92-6,1.89c1.89-.11,3.78-.2,5.68-.27a35.73,35.73,0,0,0,12-2.47c8-3.2,14-9.28,21.06-16.27,13.34-12.92,30-29.94,70.53-31.58l.67,0q2.82-16.24,5.65-32.46-7,0-13.95.15Zm1.66.6q5.22-.11,10.42-.11-2.55,14.69-5.11,29.38c-40.6,1.82-57.34,19-70.8,32-8.94,8.91-15.72,15.77-26.8,17.65a45.46,45.46,0,0,0,8.34-5.36c6.76-5.38,13-12.74,19.54-20.39l1-1.14c13.88-16,31.16-36,62.78-51.59l.69-.33Z" style="fill: #7b3f00"/>
    </g>
    <path d="M116.64,344.33c-14.11,16.55-23.43,27.76-39.3,28.62-.34,1.21-.68,2.43-1,3.64a35.29,35.29,0,0,0,11.75-2.71c11-4.62,19.58-14.86,30.41-27.49,13.95-16.1,31.31-36.21,63.06-51.86-.24-1-.49-2.08-.73-3.12C148.45,307.39,130.06,328.78,116.64,344.33Z" style="fill: #7b3f00"/>
    <path d="M211.55,239.63c-32.66,57-65.33,116.94-98,180.46,39.93-58.2,79.86-111,119.78-159.73Q222.44,249.79,211.55,239.63Z" style="fill: #fcd116"/>
    <path d="M113.55,420.09A1406.76,1406.76,0,0,1,255.11,281.9q-10.89-11-21.78-21.54C193.41,309.06,153.48,361.89,113.55,420.09Z" style="fill: #fcd116"/>
    <path d="M107.46,429A1408.59,1408.59,0,0,1,257.51,281.93Q234.43,258.59,211.34,237C176.71,297.48,142.09,361.2,107.46,429ZM252.72,281.88a1399.54,1399.54,0,0,0-126,121.6c35.53-50.77,71.07-97.39,106.61-140.74Q243,272.15,252.72,281.88Zm-21.56-21.25c-35.54,43.48-71.08,90.25-106.62,141.19C153.61,346,182.69,293,211.77,242.22Q221.46,251.25,231.16,260.63Z" style="fill: #7b3f00"/>
    <path d="M255.11,281.9q-10.89-11-21.78-21.54c-39.93,48.7-79.85,101.53-119.78,159.73A1407.84,1407.84,0,0,1,255.11,281.9q-10.89-11-21.78-21.54Q244.22,270.92,255.11,281.9Z" style="fill: #7b3f00"/>
    <g>
      <path d="M76.83,232.77c14.7,42.89,41.87-11.87,87.81,45.79q11.54-11.37,23.06-22.23-12.18-16.68-24.35-32.79C106.43,213.75,104.13,252.27,76.83,232.77Z" style="fill: #fcd116"/>
      <path d="M165,276.17c-24.16-29.9-43.67-28.86-58-27.61-11.4,1-20,2.18-26.44-11.25,11.31,5.64,18.75,1.46,28.6-3.84,10.76-5.65,25.48-13.6,53.55-8.22l1.42.28c.39-1.14.78-2.28,1.18-3.42l-1.43-.28c-28.85-5.6-44.06,2.63-55.17,8.47S91,240,77.93,231.1c-1.54-1-3.08-2.08-4.62-3.11.68,2,1.37,4,2,6,7.21,20.89,17.67,19.36,30.91,18.17,14.79-1.3,33.2-2.31,57.12,27.75l.87,1.1q12.8-12.64,25.58-24.62l-1.71-2.45Q176.57,264.77,165,276.17Z" style="fill: #7b3f00"/>
    </g>
    <g>
      <path d="M180.37,247.26c-28.63-12.63-50.65-8.7-67.67-5.29-8.52,1.71-15.82,3.36-22.07,2.77A17.5,17.5,0,0,1,80,240.15c15.31,28.65,41.81-15.37,84.64,38.42q11.53-11.38,23.07-22.23-3.52-4.84-7.06-9.63Z" style="fill: #7b3f00"/>
      <path d="M180.13,246.26c-27.78-12.09-49-8.7-66.13-5.33l-1.2.24c-8,1.6-15.53,3.35-21.87,2.75a17,17,0,0,1-10.4-4.49q-1.87-1.76-3.77-3.49l2.6,4.81c6.78,12.62,15.76,11.4,27.12,10.39,14.92-1.29,33.49-2.29,57.59,28l.39.5q12.1-12,24.22-23.32-4-5.55-8.09-11C180.44,245.62,180.28,245.94,180.13,246.26Zm.55,1.85q3,4.09,6,8.23-11,10.34-21.92,21.14c-24.2-30.22-42.91-29.25-58-28-10,.89-17.58,1.86-23.67-6a19,19,0,0,0,7.17,2c6.52.61,14.16-1.17,22.25-2.8l1.21-.24c17.09-3.38,38.37-6.78,66.2,5.48l.6.26Z" style="fill: #7b3f00"/>
    </g>
    <path d="M78.22,231.42l-2.78,2.7c8,14.68,20.73,11.15,38.42,7.61,17.18-3.39,38.56-6.81,66.51,5.52L182,244c-28.47-12.68-51.11-9.06-67.65-5.79C96.94,241.7,85.47,244.86,78.22,231.42Z" style="fill: #7b3f00"/>
    <path d="M233.33,294.09V260.36a542.3,542.3,0,0,0-169.4,49.39C120.4,293.92,176.87,289.87,233.33,294.09Z" style="fill: #fcd116"/>
    <path d="M233.33,260.36V226.62a662.14,662.14,0,0,0-169.4,83.13A542.3,542.3,0,0,1,233.33,260.36Z" style="fill: #fcd116"/>
    <path d="M234.87,295.92V224.41C175,243.62,115.17,272.07,55.32,314,115.17,295.91,175,291.29,234.87,295.92Zm-3.08-3.66c-50.26-3.62-100.52-.67-150.78,11.34a543.21,543.21,0,0,1,150.78-41.36Zm0-63.42v30A543.23,543.23,0,0,0,81,300.23,658.77,658.77,0,0,1,231.79,228.84Z" style="fill: #7b3f00"/>
    <path d="M233.33,260.36a542.3,542.3,0,0,0-169.4,49.39c56.47-15.83,112.94-19.88,169.4-15.66Z" style="fill: #7b3f00"/>
    <g>
      <path d="M168.51,100.84c-21.41,51.38,25.2,31.23,12.79,119q13.62,0,27.24.61,3.79-23.65,7.59-47.27C192.56,114.36,168,143.73,168.51,100.84Z" style="fill: #fcd116"/>
      <path d="M184.22,129.48c-9-5.35-14.4-8.38-14.17-29q0-3.63.08-7.26-1.5,3.59-3,7.2c-10.49,25.32-5,34.14,1.84,45.39,7.7,12.59,17.27,28.57,10.81,74.11-.07.55-.15,1.1-.23,1.66q15.1-.11,30.2.66l.6-3.41q-13.65-.69-27.3-.7c6.16-45.49-4-62.47-11.42-74.66-5.93-9.73-10.39-17-4.46-35,1.17,16,7.21,19.35,15.21,24.09,8.74,5.17,20.7,12.56,32.33,41.48.19.49.39,1,.59,1.47l2.84-1.73c-.19-.49-.39-1-.59-1.47C205.6,142.53,193.24,134.85,184.22,129.48Z" style="fill: #7b3f00"/>
    </g>
    <g>
      <path d="M178.53,143.05c-5.12-6.42-9.47-11.89-11.84-18.39a31.79,31.79,0,0,1-1.62-14.31c-11.92,39.55,27.79,27.72,16.23,109.5q13.62,0,27.23.62,1.11-6.87,2.2-13.72l-.51.22C202.26,172.63,188.78,155.85,178.53,143.05Z" style="fill: #7b3f00"/>
      <path d="M179.82,143.38c-.24-.3-.48-.61-.73-.91-4.8-6-9.34-11.64-11.74-18.24a31.08,31.08,0,0,1-1.58-14l.66-6.73c-.67,2.25-1.35,4.49-2,6.73-5.28,17.66-.61,25.21,5.3,34.91,7.75,12.71,17.4,28.85,10.9,74.71l-.11.76q14.3-.07,28.6.63,1.26-7.85,2.51-15.7l-.88.39C202.91,172.76,190.12,156.26,179.82,143.38ZM208,219.66q-12.93-.61-25.88-.59c6.38-45.83-3.35-62.13-11.17-75-5.2-8.54-9.14-14.93-6.67-27.71a30.67,30.67,0,0,0,1.78,8.69c2.47,6.79,7.07,12.46,11.94,18.56l.73.91c10.29,12.85,23.1,29.35,30.84,62.72l.17.72.14-.06Q208.91,213.8,208,219.66Z" style="fill: #7b3f00"/>
    </g>
    <path d="M170,101.05l-2.91-.41c-6.16,20.65,1.54,30,12.19,43.29,10.34,12.92,23.22,29.52,31,63,1-.44,2-.87,3-1.29-7.92-34.21-21.55-51.83-31.51-64.31C171.25,128.23,164.34,119.83,170,101.05Z" style="fill: #7b3f00"/>
    <path d="M211.55,287.34q10.89-13.71,21.78-27c-39.92-38.77-79.85-73.4-119.78-102.65C146.22,197.55,178.89,241,211.55,287.34Z" style="fill: #fcd116"/>
    <path d="M233.33,260.36q10.89-13.29,21.78-26.17c-47.19-31.63-94.37-57.81-141.56-76.48C153.48,187,193.41,221.59,233.33,260.36Z" style="fill: #fcd116"/>
    <path d="M211.34,290q23.08-29.06,46.17-56.24c-50-33.72-100-61.36-150-80.46C142.09,195,176.71,240.88,211.34,290Zm.43-5.31c-29.08-41.27-58.16-80.23-87.23-116.4,35.54,26.91,71.08,58,106.62,92.35Q221.46,272.5,211.77,284.68Zm40.95-50Q243,246.15,233.33,258c-35.54-34.5-71.08-65.73-106.61-92.81C168.72,183,210.72,206.65,252.72,234.65Z" style="fill: #7b3f00"/>
    <path d="M113.55,157.71c32.67,39.84,65.34,83.27,98,129.63q10.89-13.71,21.78-27-10.89,13.27-21.78,27,10.89-13.71,21.78-27C193.41,221.59,153.48,187,113.55,157.71Z" style="fill: #7b3f00"/>
    <g>
      <path d="M228.45,185.74q7.73,11.61,15.45,23.42Q261.45,194,279,179.75c23.58-63.27-8.81-64.63,19.17-95.44C253.18,102.75,291.93,129,228.45,185.74Z" style="fill: #fcd116"/>
      <path d="M269.38,117.79c-3.91,16.66-8.77,36.4-41.83,66.71l-1.21,1.12q8.58,12.82,17.14,25.93c.85-.72,1.7-1.44,2.56-2.15q-7.75-11.86-15.49-23.52c32.88-30.38,38-51.33,41.81-67.42,3-12.62,5.28-22.29,20.13-29.87-9.66,12.72-8.55,20.87-7.09,31.58,1.6,11.74,3.79,27.72-7.83,59l-.59,1.59,2.85,1.14c.19-.53.39-1,.58-1.58,11.95-32.12,9.69-48.64,8-60.77s-2.64-19.39,10.78-34.07L304,80.35c-2.1.78-4.19,1.57-6.29,2.37C275.64,91.23,272.88,103.14,269.38,117.79Z" style="fill: #7b3f00"/>
    </g>
    <g>
      <path d="M228.45,185.74q7.73,11.61,15.44,23.42,5.1-4.41,10.18-8.73l-.45-.26c17.37-32.84,20.32-56.92,22.85-75.76,1.27-9.39,2.41-17.45,5.32-24.43a33.07,33.07,0,0,1,8.35-12C258,106.78,287.63,132.6,228.45,185.74Z" style="fill: #7b3f00"/>
      <path d="M270.2,118c-3.95,16.8-8.87,36.71-42.16,67.2l-.55.51q8.12,12.18,16.22,24.57,5.82-5.06,11.65-10l-.78-.44c16.72-31.83,19.87-55.1,22.41-74,.06-.45.11-.89.17-1.34,1.19-8.8,2.31-17.13,5.26-24.21a32.38,32.38,0,0,1,8.16-11.7l4.71-4.26c-1.82,1-3.63,2-5.45,3C275.59,95.27,273.21,105.37,270.2,118Zm11-18.29c-3,7.3-4.18,15.73-5.38,24.65l-.18,1.34c-2.54,18.91-5.69,42.21-22.58,74.16l-.37.69.13.07q-4.35,3.71-8.7,7.47-7.34-11.22-14.68-22.26c33.21-30.52,38.17-50.58,42.16-67.52,2.64-11.1,4.65-19.57,14.23-26.65A35.35,35.35,0,0,0,281.16,99.68Z" style="fill: #7b3f00"/>
    </g>
    <path d="M276.3,125.69c-2.55,19-5.72,42.42-22.67,74.48l2.63,1.52c17.28-32.6,20.64-57.38,23.09-75.66,2.58-19.11,4.28-31.89,19.47-40.21l-1.32-3C280.82,92,278.93,106.23,276.3,125.69Z" style="fill: #7b3f00"/>
    <path d="M202.53,265q15.41-2.77,30.8-4.67V74.82Q217.94,169.52,202.53,265Z" style="fill: #fcd116"/>
    <path d="M233.33,260.36q15.4-1.92,30.8-3-15.39-91.63-30.8-182.5Z" style="fill: #fcd116"/>
    <path d="M200.69,267.05A593.79,593.79,0,0,1,266,258.88Q249.66,161.7,233.33,65.39,217,165.76,200.69,267.05Zm31.1-8.19q-13.71,1.75-27.41,4.15,13.71-85,27.41-169.29Zm3.08-165.52q13.71,80.9,27.42,162.43-13.71,1.05-27.42,2.71Z" style="fill: #7b3f00"/>
    <path d="M233.33,260.36q-15.39,1.9-30.8,4.67,15.41-2.77,30.8-4.67V74.82Q217.94,169.5,202.53,265,217.94,262.26,233.33,260.36Z" style="fill: #7b3f00"/>
    <g>
      <path d="M278.46,199.45q-2.7,15-5.39,30.12,21,2.91,42,7.15c56.91-24.48,35.64-51.78,74.73-48.47C347.63,162.22,355.83,211.24,278.46,199.45Z" style="fill: #fcd116"/>
      <path d="M348.67,185.89c-13.22,8-29.68,17.23-70,11.88l-1.46-.18q-3,16.69-6,33.42l3,.48,5.4-30.19c40.33,5.07,57.77-4.68,70.54-12.43,10.19-6,17.87-10.43,32.93-2.68-14.83.05-19.31,6.46-25.23,14.86-6.48,9.3-15.34,21.57-43.4,34.11l-1.42.64,1.17,3.12,1.43-.64c28.85-12.84,38-25.48,44.69-35.08,6.66-9.39,10.67-15.2,29.43-13.27l6.62.73-5.9-3.85C369.86,173.45,360.51,178.93,348.67,185.89Z" style="fill: #7b3f00"/>
    </g>
    <g>
      <path d="M278.46,199.44q-2.7,15.06-5.39,30.13,6.09.84,12.19,1.8c-.05-.19-.09-.37-.13-.55,32.52-9.9,50.18-23.74,64-34.44,6.92-5.29,12.89-9.71,19.36-11.85a25.43,25.43,0,0,1,13.43-.74C348.36,169,350.59,210.18,278.46,199.44Z" style="fill: #7b3f00"/>
      <path d="M349.1,186.71c-13.34,8.1-30,17.35-70.53,12l-.67-.08q-2.83,15.79-5.66,31.63,7,1,14,2.07c-.07-.32-.15-.64-.22-1,31.46-9.67,48.71-22.83,62.6-33.57.32-.26.65-.51,1-.76,6.48-4.95,12.61-9.57,19.18-11.74a24.83,24.83,0,0,1,13.12-.73l6,1.25-5.68-2.71C367.3,176.07,359.27,180.73,349.1,186.71Zm19.16-2.92c-6.76,2.25-13,6.92-19.54,12l-1,.76c-13.88,10.76-31.15,23.94-62.78,33.58l-.68.21,0,.15c-3.48-.54-6.95-1.05-10.43-1.54q2.57-14.31,5.12-28.61c40.6,5.26,57.33-4.07,70.79-12.22,8.95-5.26,15.73-9.17,26.81-5.62A25.91,25.91,0,0,0,368.26,183.79Z" style="fill: #7b3f00"/>
    </g>
    <path d="M348.2,197.11c-13.95,10.8-31.32,24-63.06,33.71.24,1.08.48,2.17.73,3.25,32.35-9.82,50.74-23.8,64.16-34.17,14.1-10.75,23.42-17.68,39.29-10.11.35-1,.69-2,1-3.08C372.93,178.38,362.56,186.13,348.2,197.11Z" style="fill: #7b3f00"/>
    <path d="M255.11,281.9c32.67-54.55,65.34-106.49,98-156.5-39.93,41.69-79.86,86.26-119.79,135Q244.22,270.92,255.11,281.9Z" style="fill: #fcd116"/>
    <path d="M233.33,260.36c39.93-48.7,79.86-93.27,119.79-135A1401,1401,0,0,0,211.55,239.63Q222.44,249.79,233.33,260.36Z" style="fill: #fcd116"/>
    <path d="M255.33,284.5C290,226.7,324.58,171.82,359.2,119.07a1405.68,1405.68,0,0,0-150,120.72Q232.25,261.21,255.33,284.5Zm-.43-5.2q-9.71-9.76-19.39-19.21c35.54-43.21,71.08-83.17,106.62-120.76C313.05,184.24,284,230.73,254.9,279.3ZM233.33,258q-9.69-9.41-19.38-18.49A1396.58,1396.58,0,0,1,340,136.87C304.41,174.55,268.87,214.62,233.33,258Z" style="fill: #7b3f00"/>
    <path d="M233.33,260.36q-10.89-10.58-21.77-20.73,10.88,10.16,21.77,20.73c39.93-48.7,79.86-93.27,119.79-135A1401,1401,0,0,0,211.55,239.63Q222.44,249.79,233.33,260.36Z" style="fill: #7b3f00"/>
    <g>
      <path d="M302,250.3Q290.5,258.94,279,268q12.18,18.6,24.36,37.65c56.91,26,59.21-7.93,86.52,24.62C375.13,279.81,348,319.32,302,250.3Z" style="fill: #fcd116"/>
      <path d="M360.4,296.48c-14.79-5.15-33.2-11.3-57.12-47.19l-.87-1.3q-12.8,9.57-25.58,19.64l1.71,2.71q11.56-9.06,23.12-17.73c24.16,35.62,43.67,42.12,57.95,47.08,11.4,4,20,7.17,26.45,24-11.31-11.56-18.76-10.87-28.6-9.84-10.76,1.23-25.49,2.68-53.55-9.78l-1.42-.63c-.39,1.05-.79,2.09-1.18,3.14l1.42.62c28.85,12.77,44.07,11.28,55.18,10s17.72-1.76,30.83,14.12l4.62,5.62c-.69-2.36-1.37-4.73-2.06-7.09C384.1,305.05,373.64,301.1,360.4,296.48Z" style="fill: #7b3f00"/>
    </g>
    <g>
      <path d="M302,250.29Q290.51,258.95,279,268q3.52,5.4,7.06,10.83l.27-.5c28.63,17.94,50.64,22,67.67,25.58,8.52,1.84,15.82,3.6,22.07,7.27a33.08,33.08,0,0,1,10.64,10C371.37,284.73,344.86,314.61,302,250.29Z" style="fill: #7b3f00"/>
      <path d="M360.18,297.36c-14.91-5.19-33.48-11.39-57.58-47.53l-.39-.59q-12.12,9.07-24.22,18.58,4,6.17,8.08,12.39l.47-.87c27.78,17.28,49,21.43,66.12,25l1.21.26c8,1.71,15.53,3.46,21.87,7.18a32.19,32.19,0,0,1,10.39,9.79l3.77,5.49-2.59-6.19C380.53,304.69,371.55,301.34,360.18,297.36Zm16.15,13.11c-6.52-3.83-14.16-5.6-22.26-7.34l-1.2-.26c-17.1-3.61-38.37-7.78-66.21-25.24l-.6-.38-.07.14-6-9.26q10.95-8.58,21.91-16.79c24.2,36,42.92,42.25,58,47.48,10,3.5,17.58,6.31,23.67,17.32A33.13,33.13,0,0,0,376.33,310.47Z" style="fill: #7b3f00"/>
    </g>
    <path d="M352.81,303.64c-17.18-3.63-38.56-7.81-66.51-25.34-.53,1-1.06,2-1.6,2.95,28.48,17.77,51.12,22.21,67.65,25.7,17.37,3.72,28.85,6.61,36.1,23.9l2.78-1.2C383.27,310.66,370.49,307.43,352.81,303.64Z" style="fill: #7b3f00"/>
    <path d="M233.33,260.36c56.47-7,112.94-5.8,169.4.17-56.46-17.21-112.93-29.69-169.4-33.91Z" style="fill: #fcd116"/>
    <path d="M233.33,294.09c56.47-18.27,112.94-28.28,169.4-33.56-56.46-6-112.93-7.2-169.4-.17Z" style="fill: #fcd116"/>
    <path d="M231.79,296.3c59.85-19.52,119.7-29.73,179.55-34.83-59.85-18.74-119.7-32.36-179.55-36.67Zm3.08-67.85c50.26,3.89,100.52,14.3,150.78,28.74-50.26-4.43-100.52-4.83-150.78,1.29Zm0,33.4c50.26-6.12,100.52-5.72,150.78-1.29-50.26,5.58-100.52,15.19-150.78,31.32Z" style="fill: #7b3f00"/>
    <path d="M233.33,260.36v0c56.47-7,112.94-5.8,169.4.17-56.46-17.21-112.93-29.69-169.4-33.91Z" style="fill: #7b3f00"/>
    <g>
      <path d="M285.36,305.54q-13.62-2.4-27.23-4.23-3.8,23.34-7.59,46.72c23.57,60,48.1,36.26,47.62,79.1C319.57,380.37,273,390.55,285.36,305.54Z" style="fill: #fcd116"/>
      <path d="M286.88,305.75l.24-1.62q-15.11-2.7-30.2-4.7l-.6,3.36Q270,304.58,283.61,307c-6.16,44.45,4,63.05,11.42,76.86,5.93,11,10.4,19.37,4.47,36-1.17-16.21-7.22-21-15.22-27.17-8.73-6.73-20.7-15.72-32.32-45.36l-.59-1.5-2.85,1.56c.2.5.4,1,.59,1.5,11.95,30.42,24.31,39.66,33.34,46.59s14.4,11.2,14.17,31.75c0,2.41-.05,4.83-.08,7.24,1-2.17,2-4.35,3-6.53,10.49-22.8,5.05-33-1.84-45.81C290,367.73,280.42,350.14,286.88,305.75Z" style="fill: #7b3f00"/>
    </g>
    <g>
      <path d="M285.37,305.54q-13.62-2.4-27.24-4.23-1.1,6.76-2.2,13.54l.51-.19c8,34.91,21.45,53.38,31.69,68.19,5.13,7.38,9.48,13.83,11.85,20.88a34.62,34.62,0,0,1,1.62,14.68C313.51,381.27,273.81,384.83,285.37,305.54Z" style="fill: #7b3f00"/>
      <path d="M286.06,305.63l.11-.73q-14.31-2.55-28.6-4.45L255.05,316l.88-.31c7.83,33.76,20.62,51.8,30.92,66.64l.72,1c4.81,6.93,9.35,13.53,11.75,20.68a33.69,33.69,0,0,1,1.58,14.33l-.66,6.58c.67-2.09,1.34-4.17,2-6.26,5.28-16.35.61-25.11-5.3-36.11C289.21,368.09,279.55,350.36,286.06,305.63Zm16.36,106.93a34.86,34.86,0,0,0-1.79-9.11c-2.47-7.36-7.06-14.06-11.93-21.08l-.73-1.05c-10.29-14.85-23.11-32.94-30.85-66.9l-.16-.73-.15.05,1.89-11.57q12.93,1.74,25.87,4c-6.37,44.74,3.36,62.6,11.18,77.16C301,393,304.89,400.39,302.42,412.56Z" style="fill: #7b3f00"/>
    </g>
    <path d="M256.44,314.67l-3,1.07C261.37,350.42,275,369.62,285,384c10.45,15,17.36,25.16,11.75,42.65l2.9,1.06c6.16-19.16-1.53-30.48-12.18-45.82C277.08,366.92,264.21,348.75,256.44,314.67Z" style="fill: #7b3f00"/>
    <path d="M211.55,287.34c47.19,28.08,94.38,62.25,141.57,100.44C313.19,342,273.26,299.12,233.33,260.36Q222.44,273.64,211.55,287.34Z" style="fill: #fcd116"/>
    <path d="M233.33,260.36c39.93,38.76,79.86,81.65,119.79,127.42-32.67-53.35-65.34-104.77-98-153.59Q244.22,247.08,233.33,260.36Z" style="fill: #fcd116"/>
    <path d="M209.16,288c50,29.55,100,66,150,106.82C324.58,338,290,283.3,255.33,231.55Q232.25,258.87,209.16,288Zm4.79-1.26q9.69-12.15,19.38-24C268.87,297.24,304.41,335,340,375.18,298,341.87,256,311.89,214,286.71Zm21.56-26.62q9.69-11.79,19.39-23.25c29.07,43.43,58.15,88.94,87.23,136C306.59,332.61,271.05,294.72,235.51,260.09Z" style="fill: #7b3f00"/>
    <path d="M233.33,260.36q10.89-13.29,21.78-26.16-10.89,12.87-21.78,26.16c39.93,38.76,79.86,81.65,119.79,127.43-32.67-53.36-65.34-104.78-98-153.59Q244.22,247.07,233.33,260.36Z" style="fill: #7b3f00"/>
    <path d="M233.33,198.51c-31.18,3.81-56.46,37.63-56.46,71.76S202.15,326,233.33,322.2s56.47-32,56.47-66.25S264.52,194.62,233.33,198.51Z" style="fill: #fcd116"/>
    <path d="M233.33,196.83c-32,3.89-58,38.79-58,73.79s26,57.16,58,53.27,58-32.89,58-68S265.32,192.83,233.33,196.83Zm0,123.68c-30.28,3.7-54.92-17.39-54.92-50.59s24.64-66,54.92-69.72,54.93,22.69,54.93,55.81S263.62,316.73,233.33,320.51Z" style="fill: #7b3f00"/>
    <path d="M254.38,224.38c-4.11.88-16.94,12.4-14.89,13.88s4.11-7.29,16.94-8.44,14.89,6.8,18.48,2.06C270.29,227.05,258.49,223.42,254.38,224.38Z" style="fill: #7b3f00"/>
    <path d="M249.76,238.3c-3.08,4.8,3.59,10.89,7.19,10.59s6.67-7.84,3.08-10.93C256.6,238,253.18,238.16,249.76,238.3Z" style="fill: #7b3f00"/>
    <path d="M267.21,243.05c-3.59,3.06-6.67,5-12.32,5.46s-8.21-6-10.26-2.38c-1.54,2.41,6.16,5,11.8,4.49S270.81,240,267.21,243.05Z" style="fill: #7b3f00"/>
    <path d="M243.09,244.61v.56c5.64-6.21,5.64-6.23,13.86-7s11.29,4.77,14.88,4.54c-3.08-1.49-6.67-8-14.88-7.35S243.6,237.81,243.09,244.61Z" style="fill: #7b3f00"/>
    <path d="M260.32,284.91l.73-.37a7.38,7.38,0,0,1-.78.3Z" style="fill: #7b3f00"/>
    <path d="M241.55,282.44c-4.11.46-5.14,1.71-8.22,2.09l-2.56,4.82,2.56-.32a104.48,104.48,0,0,1,16.87-.83,54.81,54.81,0,0,1,8-3C252.56,285.72,245,282.05,241.55,282.44Z" style="fill: #7b3f00"/>
    <path d="M250.2,288.2c-4.87,2.2-8.88,4.35-16.87,5.33l-2.56.32c.85,1.39,1.71,2.78,2.56,4.18,12.65-1.47,10.85-4.08,27-13.09l0,0C254.83,287.67,253.12,288.18,250.2,288.2Z" style="fill: #7b3f00"/>
    <path d="M254.38,276.1c.51.52-1.54-4.37-5.65-4.53s-2.56-7.62-7.18-8.24c0,2.25,1.54,1.52,2,4.83,0,2.81-4.62,3.32-5.65.64,1,4.37-2,4.73-4.62,5.05v3.37c3.6-.44,4.62-3.37,8.73-3.83S251.81,274.08,254.38,276.1Z" style="fill: #7b3f00"/>
    <path d="M257.46,280.9c1.3,1.85,2.14,3,2.74,3.84l.85-.2-.71.4a31.47,31.47,0,0,1,2.77,4.5C262.59,285.55,261.57,283.93,257.46,280.9Z" style="fill: #7b3f00"/>
    <path d="M262.08,237.24c1,1,5.13,6.36,0,10.68C268.75,243.49,264.65,238.17,262.08,237.24Z" style="fill: #7b3f00"/>
    <path d="M260.27,284.84a.61.61,0,0,1-.07-.1c-.69.16-1.35.33-2,.5A9.08,9.08,0,0,0,260.27,284.84Z" style="fill: #7b3f00"/>
    <path d="M206.64,244.63c-3.59,4-.51,10.76,3.08,10.16s10.27-8.37,7.19-12.39Q211.77,243.47,206.64,244.63Z" style="fill: #7b3f00"/>
    <path d="M212.29,229.63c-4.11.06-15.92,6.68-20.54,12.71,3.6,3.81,5.65-4.57,18.48-6.75s14.89,6.2,16.94,4.2S216.39,229.48,212.29,229.63Z" style="fill: #7b3f00"/>
    <path d="M211.77,253.89c-5.64.93-8.72-.2-12.32-2.35s5.14,5.77,10.78,4.85S223.58,251,222,248.94C220,245.87,217.42,253,211.77,253.89Z" style="fill: #7b3f00"/>
    <path d="M209.72,241.3c-8.21,1.38-11.81,8.84-14.89,11.11,3.6-.68,6.68-6.92,14.89-8.3s8.21-1.31,13.86,3.49V247C223.07,240.37,217.93,239.94,209.72,241.3Z" style="fill: #7b3f00"/>
    <path d="M212.29,281.36c2.56-2.68,8.21-5.23,12.32-5.8s5.13,2.12,8.72,1.66v-3.37c-2.56.32-5.64.73-4.62-3.9-1,2.94-5.64,3.58-5.64.77.51-3.45,2.05-3.1,2.05-5.35-4.62,1.78-3.08,8.87-7.19,10S211.77,282,212.29,281.36Z" style="fill: #7b3f00"/>
    <path d="M208.45,291.46h-2l-.07.11A8.51,8.51,0,0,0,208.45,291.46Z" style="fill: #7b3f00"/>
    <path d="M204.59,244.42c-2.57,1.58-6.68,8,0,10.69C199.45,252.09,203.56,245.73,204.59,244.42Z" style="fill: #7b3f00"/>
    <path d="M206.35,291.66l0,0c16.15,4.95,14.36,8,27,6.34l2.57-4.82-2.57.32c-8,1-12-.14-16.86-1.12C213.55,293.11,211.83,293,206.35,291.66Z" style="fill: #7b3f00"/>
    <path d="M206.35,291.66l.05-.09a5,5,0,0,1-.79-.1Z" style="fill: #7b3f00"/>
    <path d="M235.9,288.72c-.86-1.4-1.71-2.8-2.57-4.19-3.08.39-4.1-.61-8.21,0-3.48.47-11,6-16.67,7a44.8,44.8,0,0,1,8,1A109.9,109.9,0,0,1,233.33,289Z" style="fill: #7b3f00"/>
    <path d="M206.47,291.46l2.74-4.54c-4.11,4.07-5.14,5.95-5.65,10a43.29,43.29,0,0,1,2.77-5.2l-.72-.22Z" style="fill: #7b3f00"/>
    <path d="M233.33,303.09c-2.56.32-9.24,2.87,0,1.68S235.9,302.77,233.33,303.09Z" style="fill: #7b3f00"/>
  </g>
</svg>
