<svg xmlns="http://www.w3.org/2000/svg" viewBox="0 0 1260 1012.04">
  <g>
    <path d="M0,90.08v920C420,738.76,840,1193.28,1260,922V2C840,273.28,420-181.24,0,90.08Z" style="fill: #1eb53a"/>
    <path d="M0,90.08v460C420,278.76,840,733.28,1260,462V2C840,273.28,420-181.24,0,90.08Z" style="fill: #0099b5"/>
    <path d="M0,715.68c420-271.32,840,183.2,1260-88.11V296.37C840,567.68,420,113.16,0,384.48Z" style="fill: #ce1126"/>
    <path d="M0,697.28C420,426,840,880.48,1260,609.17V314.77C840,586.08,420,131.56,0,402.88Z" style="fill: #fff"/>
    <path d="M176.4,51.62c-41.75,9.43-75.6,72.82-75.6,133.73s33.85,96.5,75.6,87.07C218.15,262.8,252,211.08,252,150,252,89.13,218.15,42,176.4,51.62Z" style="fill: #fff"/>
    <path d="M201.6,46.44C159.85,53.86,126,115.29,126,176.2s33.85,98.46,75.6,91c41.75-7.59,75.6-58,75.6-119.1C277.2,87.3,243.35,38.85,201.6,46.44Z" style="fill: #0099b5"/>
    <path d="M338.05,234.84l7.19,3.68L342.72,214Q340.38,224.42,338.05,234.84Z" style="fill: #fff"/>
    <path d="M340.2,238.33c2.4-1.05,4.8-2.1,7.19-3.13Q345,224.6,342.72,214Z" style="fill: #fff"/>
    <path d="M342,240.28Q349.54,235,357.1,230q-7.56-.42-15.12-.71Z" style="fill: #fff"/>
    <path d="M344.87,242.33Q351,236.09,357.1,230q-8.34,1.56-16.68,3.28Q342.66,237.77,344.87,242.33Z" style="fill: #fff"/>
    <path d="M340.57,242.17q2.22-4.39,4.45-8.76-8.34-2.37-16.68-4.56Q334.46,235.45,340.57,242.17Z" style="fill: #fff"/>
    <path d="M343.46,240.34v-11q-7.56-.3-15.12-.45Q335.9,234.52,343.46,240.34Z" style="fill: #fff"/>
    <path d="M339.75,236.26q5.92,9,11.86,18.08l-4.68-21.21C344.54,234.16,342.14,235.2,339.75,236.26Z" style="fill: #fff"/>
    <path d="M339.37,240.85q6.12,6.71,12.24,13.49l-7.79-22.25Q341.6,236.47,339.37,240.85Z" style="fill: #fff"/>
    <path d="M333.83,253.66q6.12-6.32,12.24-12.55-2.24-4.56-4.45-9.11Z" style="fill: #fff"/>
    <path d="M333.83,253.66q5.94-8.62,11.87-17.17l-7.19-3.69Z" style="fill: #fff"/>
    <path d="M338.05,146.52l7.19,3.68-2.52-24.51Q340.38,136.1,338.05,146.52Z" style="fill: #fff"/>
    <path d="M340.2,150c2.4-1,4.8-2.1,7.19-3.13q-2.34-10.6-4.67-21.19Z" style="fill: #fff"/>
    <path d="M342,152q7.56-5.24,15.12-10.33-7.56-.42-15.12-.71Z" style="fill: #fff"/>
    <path d="M344.87,154q6.12-6.24,12.23-12.38-8.34,1.56-16.68,3.28Q342.66,149.45,344.87,154Z" style="fill: #fff"/>
    <path d="M340.57,153.85q2.22-4.4,4.45-8.76-8.34-2.37-16.68-4.56Q334.46,147.13,340.57,153.85Z" style="fill: #fff"/>
    <path d="M343.46,152V141q-7.56-.3-15.12-.45Q335.9,146.2,343.46,152Z" style="fill: #fff"/>
    <path d="M339.75,147.94q5.92,9,11.86,18.08l-4.68-21.21C344.54,145.84,342.14,146.88,339.75,147.94Z" style="fill: #fff"/>
    <path d="M339.37,152.53q6.12,6.71,12.24,13.49l-7.79-22.25Q341.6,148.15,339.37,152.53Z" style="fill: #fff"/>
    <path d="M333.83,165.34Q340,159,346.07,152.79q-2.24-4.56-4.45-9.11Z" style="fill: #fff"/>
    <path d="M333.83,165.34q5.94-8.62,11.87-17.17l-7.19-3.69Z" style="fill: #fff"/>
    <path d="M338.05,58.2l7.19,3.68-2.52-24.51Q340.38,47.78,338.05,58.2Z" style="fill: #fff"/>
    <path d="M340.2,61.69c2.4-1,4.8-2.1,7.19-3.13Q345,48,342.72,37.37Z" style="fill: #fff"/>
    <path d="M342,63.64q7.56-5.23,15.12-10.33-7.56-.42-15.12-.71Z" style="fill: #fff"/>
    <path d="M344.87,65.69Q351,59.45,357.1,53.31q-8.34,1.56-16.68,3.28Q342.66,61.13,344.87,65.69Z" style="fill: #fff"/>
    <path d="M340.57,65.53q2.22-4.39,4.45-8.76-8.34-2.37-16.68-4.56Q334.46,58.81,340.57,65.53Z" style="fill: #fff"/>
    <path d="M343.46,63.7v-11q-7.56-.3-15.12-.45Q335.9,57.88,343.46,63.7Z" style="fill: #fff"/>
    <path d="M339.75,59.62q5.92,9,11.86,18.08l-4.68-21.21C344.54,57.52,342.14,58.56,339.75,59.62Z" style="fill: #fff"/>
    <path d="M339.37,64.21q6.12,6.71,12.24,13.49l-7.79-22.25Q341.6,59.83,339.37,64.21Z" style="fill: #fff"/>
    <path d="M333.83,77q6.12-6.31,12.24-12.55-2.24-4.56-4.45-9.11Z" style="fill: #fff"/>
    <path d="M333.83,77q5.94-8.62,11.87-17.17l-7.19-3.69Z" style="fill: #fff"/>
    <path d="M398.53,239l7.19,4.16-2.52-24.68Q400.86,228.72,398.53,239Z" style="fill: #fff"/>
    <path d="M400.68,242.61l7.19-2.64q-2.34-10.75-4.67-21.51Z" style="fill: #fff"/>
    <path d="M402.46,244.68q7.56-4.73,15.12-9.34-7.56-.9-15.12-1.7Z" style="fill: #fff"/>
    <path d="M405.35,246.93q6.12-5.84,12.23-11.59-8.34,1-16.68,2.18Q403.14,242.23,405.35,246.93Z" style="fill: #fff"/>
    <path d="M401.05,246.47q2.22-4.23,4.45-8.46-8.34-2.92-16.68-5.71Q394.94,239.35,401.05,246.47Z" style="fill: #fff"/>
    <path d="M403.94,244.84v-11q-7.56-.81-15.12-1.5Q396.38,238.51,403.94,244.84Z" style="fill: #fff"/>
    <path d="M400.23,240.51q5.92,9.41,11.86,18.88l-4.68-21.53C405,238.73,402.62,239.62,400.23,240.51Z" style="fill: #fff"/>
    <path d="M399.86,245.08q6.11,7.11,12.23,14.31l-7.79-22.78Z" style="fill: #fff"/>
    <path d="M394.31,257.5q6.12-5.9,12.24-11.71-2.24-4.71-4.45-9.41Z" style="fill: #fff"/>
    <path d="M394.31,257.5q5.94-8.22,11.86-16.36c-2.39-1.4-4.79-2.79-7.18-4.17Z" style="fill: #fff"/>
    <path d="M398.53,150.66l7.19,4.16-2.52-24.68Q400.86,140.4,398.53,150.66Z" style="fill: #fff"/>
    <path d="M400.68,154.29l7.19-2.64q-2.34-10.76-4.67-21.51Z" style="fill: #fff"/>
    <path d="M402.46,156.36q7.56-4.73,15.12-9.34-7.56-.9-15.12-1.7Z" style="fill: #fff"/>
    <path d="M405.35,158.61q6.12-5.84,12.23-11.59-8.34,1-16.68,2.18Q403.14,153.91,405.35,158.61Z" style="fill: #fff"/>
    <path d="M401.05,158.15q2.22-4.23,4.45-8.46-8.34-2.92-16.68-5.71Q394.94,151,401.05,158.15Z" style="fill: #fff"/>
    <path d="M403.94,156.52v-11q-7.56-.81-15.12-1.5Q396.38,150.19,403.94,156.52Z" style="fill: #fff"/>
    <path d="M400.23,152.19q5.92,9.41,11.86,18.88l-4.68-21.53C405,150.41,402.62,151.3,400.23,152.19Z" style="fill: #fff"/>
    <path d="M399.86,156.76q6.11,7.11,12.23,14.31l-7.79-22.78Z" style="fill: #fff"/>
    <path d="M394.31,169.18q6.12-5.9,12.24-11.71-2.24-4.71-4.45-9.41Z" style="fill: #fff"/>
    <path d="M394.31,169.18q5.94-8.22,11.86-16.36c-2.39-1.4-4.79-2.79-7.18-4.17Z" style="fill: #fff"/>
    <path d="M398.53,62.34l7.19,4.16L403.2,41.82Q400.86,52.08,398.53,62.34Z" style="fill: #fff"/>
    <path d="M400.68,66l7.19-2.64q-2.34-10.76-4.67-21.51Z" style="fill: #fff"/>
    <path d="M402.46,68q7.56-4.73,15.12-9.34Q410,57.8,402.46,57Z" style="fill: #fff"/>
    <path d="M405.35,70.29q6.12-5.83,12.23-11.59-8.34,1-16.68,2.18Q403.14,65.59,405.35,70.29Z" style="fill: #fff"/>
    <path d="M401.05,69.83q2.22-4.23,4.45-8.46-8.34-2.92-16.68-5.71Q394.94,62.71,401.05,69.83Z" style="fill: #fff"/>
    <path d="M403.94,68.2v-11q-7.56-.81-15.12-1.5Q396.38,61.87,403.94,68.2Z" style="fill: #fff"/>
    <path d="M400.23,63.87q5.92,9.41,11.86,18.88l-4.68-21.53C405,62.09,402.62,63,400.23,63.87Z" style="fill: #fff"/>
    <path d="M399.86,68.44q6.11,7.11,12.23,14.31L404.3,60Z" style="fill: #fff"/>
    <path d="M394.31,80.86q6.12-5.89,12.24-11.71-2.24-4.71-4.45-9.41Z" style="fill: #fff"/>
    <path d="M394.31,80.86q5.94-8.22,11.86-16.36c-2.39-1.4-4.79-2.79-7.18-4.17Z" style="fill: #fff"/>
    <path d="M459,246.8l7.19,4.54-2.52-24.81Q461.34,236.66,459,246.8Z" style="fill: #fff"/>
    <path d="M461.16,250.54l7.19-2.27q-2.34-10.87-4.67-21.74Z" style="fill: #fff"/>
    <path d="M462.94,252.71q7.56-4.34,15.12-8.58-7.56-1.27-15.12-2.46Z" style="fill: #fff"/>
    <path d="M465.83,255.1q6.12-5.5,12.23-11-8.34.62-16.68,1.34Q463.62,250.29,465.83,255.1Z" style="fill: #fff"/>
    <path d="M461.53,254.42q2.22-4.11,4.45-8.23-8.34-3.34-16.68-6.6Q455.42,247,461.53,254.42Z" style="fill: #fff"/>
    <path d="M464.42,252.94v-11q-7.56-1.2-15.12-2.31Q456.86,246.22,464.42,252.94Z" style="fill: #fff"/>
    <path d="M460.71,248.41q5.93,9.72,11.86,19.49l-4.68-21.76Z" style="fill: #fff"/>
    <path d="M460.33,253q6.12,7.44,12.24,14.93-3.9-11.59-7.79-23.17Z" style="fill: #fff"/>
    <path d="M454.79,265.09,467,254q-2.23-4.82-4.45-9.63Z" style="fill: #fff"/>
    <path d="M454.79,265.09q5.94-7.89,11.86-15.74l-7.18-4.54Z" style="fill: #fff"/>
    <path d="M459,158.48,466.2,163l-2.52-24.81Q461.34,148.34,459,158.48Z" style="fill: #fff"/>
    <path d="M461.16,162.22l7.19-2.27q-2.34-10.87-4.67-21.74Z" style="fill: #fff"/>
    <path d="M462.94,164.39q7.56-4.33,15.12-8.58-7.56-1.27-15.12-2.46Z" style="fill: #fff"/>
    <path d="M465.83,166.78q6.12-5.5,12.23-11-8.34.62-16.68,1.34Q463.62,162,465.83,166.78Z" style="fill: #fff"/>
    <path d="M461.53,166.1q2.22-4.11,4.45-8.23-8.34-3.35-16.68-6.6Q455.42,158.65,461.53,166.1Z" style="fill: #fff"/>
    <path d="M464.42,164.62v-11q-7.56-1.2-15.12-2.31Q456.86,157.9,464.42,164.62Z" style="fill: #fff"/>
    <path d="M460.71,160.09q5.93,9.72,11.86,19.49l-4.68-21.76Z" style="fill: #fff"/>
    <path d="M460.33,164.65q6.12,7.44,12.24,14.93-3.9-11.6-7.79-23.17Z" style="fill: #fff"/>
    <path d="M454.79,176.77q6.12-5.55,12.24-11.07-2.23-4.81-4.45-9.63Z" style="fill: #fff"/>
    <path d="M454.79,176.77q5.94-7.89,11.86-15.74l-7.18-4.54Z" style="fill: #fff"/>
    <path d="M459,70.16l7.19,4.54-2.52-24.81Q461.34,60,459,70.16Z" style="fill: #fff"/>
    <path d="M461.16,73.9l7.19-2.27Q466,60.76,463.68,49.89Z" style="fill: #fff"/>
    <path d="M462.94,76.07q7.56-4.33,15.12-8.58Q470.5,66.22,462.94,65Z" style="fill: #fff"/>
    <path d="M465.83,78.46q6.12-5.5,12.23-11-8.34.62-16.68,1.34Q463.62,73.65,465.83,78.46Z" style="fill: #fff"/>
    <path d="M461.53,77.78q2.22-4.11,4.45-8.23Q457.64,66.2,449.3,63,455.42,70.33,461.53,77.78Z" style="fill: #fff"/>
    <path d="M464.42,76.3v-11q-7.56-1.2-15.12-2.31Q456.86,69.58,464.42,76.3Z" style="fill: #fff"/>
    <path d="M460.71,71.77q5.93,9.72,11.86,19.49L467.89,69.5Z" style="fill: #fff"/>
    <path d="M460.33,76.33q6.12,7.44,12.24,14.93-3.9-11.6-7.79-23.17Z" style="fill: #fff"/>
    <path d="M454.79,88.45Q460.91,82.9,467,77.38q-2.23-4.81-4.45-9.63Z" style="fill: #fff"/>
    <path d="M454.79,88.45q5.94-7.89,11.86-15.74l-7.18-4.54Z" style="fill: #fff"/>
    <path d="M217.09,241.49q3.58,1.15,7.19,2.36l-2.52-24Q219.42,230.63,217.09,241.49Z" style="fill: #fff"/>
    <path d="M219.24,244.58q3.6-2.25,7.19-4.44-2.34-10.19-4.67-20.34Z" style="fill: #fff"/>
    <path d="M221,246.2q7.56-6.62,15.12-13-7.56.9-15.12,2Z" style="fill: #fff"/>
    <path d="M223.91,247.73q6.12-7.35,12.23-14.57-8.34,3-16.68,6.28Q221.7,243.58,223.91,247.73Z" style="fill: #fff"/>
    <path d="M219.61,248.35q2.22-4.8,4.45-9.58-8.34-.84-16.68-1.45Q213.5,242.77,219.61,248.35Z" style="fill: #fff"/>
    <path d="M222.5,246V235q-7.56,1.08-15.12,2.37Q214.94,241.55,222.5,246Z" style="fill: #fff"/>
    <path d="M218.79,242.59q5.93,7.91,11.86,15.93L226,238.15C223.58,239.61,221.18,241.09,218.79,242.59Z" style="fill: #fff"/>
    <path d="M218.41,247.26q6.12,5.56,12.24,11.26l-7.79-20.85Q220.64,242.46,218.41,247.26Z" style="fill: #fff"/>
    <path d="M212.87,261.1q6.12-7.47,12.24-14.81l-4.45-8.3Z" style="fill: #fff"/>
    <path d="M212.87,261.1q5.94-9.75,11.86-19.37c-2.39-.8-4.79-1.59-7.18-2.36Q215.21,250.21,212.87,261.1Z" style="fill: #fff"/>
    <path d="M277.57,235.36q3.58,1.51,7.19,3.08l-2.52-24.31Q279.9,224.75,277.57,235.36Z" style="fill: #fff"/>
    <path d="M279.72,238.66l7.19-3.72q-2.34-10.41-4.67-20.81Z" style="fill: #fff"/>
    <path d="M281.5,240.47q7.56-5.88,15.12-11.57-7.56.18-15.12.53Z" style="fill: #fff"/>
    <path d="M284.39,242.28q6.12-6.75,12.23-13.38-8.34,2.22-16.68,4.65Q282.18,237.9,284.39,242.28Z" style="fill: #fff"/>
    <path d="M280.09,242.47q2.22-4.58,4.45-9.13-8.34-1.68-16.68-3.14Q274,236.28,280.09,242.47Z" style="fill: #fff"/>
    <path d="M283,240.4v-11q-7.56.33-15.12.84Q275.42,235.21,283,240.4Z" style="fill: #fff"/>
    <path d="M279.27,236.63q5.93,8.51,11.86,17.11l-4.68-20.84C284.06,234.13,281.66,235.37,279.27,236.63Z" style="fill: #fff"/>
    <path d="M278.89,241.26q6.12,6.18,12.24,12.48l-7.79-21.62Q281.12,236.68,278.89,241.26Z" style="fill: #fff"/>
    <path d="M273.35,254.54q6.12-6.85,12.24-13.58l-4.45-8.74Q277.26,243.35,273.35,254.54Z" style="fill: #fff"/>
    <path d="M273.35,254.54q5.94-9.15,11.86-18.18c-2.39-1-4.79-2.06-7.18-3.08Z" style="fill: #fff"/>
    <path d="M277.57,147q3.58,1.52,7.19,3.08l-2.52-24.31Q279.9,136.43,277.57,147Z" style="fill: #fff"/>
    <path d="M279.72,150.34l7.19-3.72q-2.34-10.41-4.67-20.81Z" style="fill: #fff"/>
    <path d="M281.5,152.15q7.56-5.88,15.12-11.57-7.56.18-15.12.53Z" style="fill: #fff"/>
    <path d="M284.39,154q6.12-6.75,12.23-13.38-8.34,2.22-16.68,4.65Q282.18,149.58,284.39,154Z" style="fill: #fff"/>
    <path d="M280.09,154.15q2.22-4.58,4.45-9.13-8.34-1.68-16.68-3.14Q274,148,280.09,154.15Z" style="fill: #fff"/>
    <path d="M283,152.08V141q-7.56.33-15.12.84Q275.42,146.89,283,152.08Z" style="fill: #fff"/>
    <path d="M279.27,148.31q5.93,8.5,11.86,17.11l-4.68-20.84C284.06,145.81,281.66,147.05,279.27,148.31Z" style="fill: #fff"/>
    <path d="M278.89,152.94q6.12,6.18,12.24,12.48l-7.79-21.62Q281.12,148.36,278.89,152.94Z" style="fill: #fff"/>
    <path d="M273.35,166.22q6.12-6.85,12.24-13.58l-4.45-8.74Q277.26,155,273.35,166.22Z" style="fill: #fff"/>
    <path d="M273.35,166.22q5.94-9.15,11.86-18.18c-2.39-1-4.79-2.06-7.18-3.08Z" style="fill: #fff"/>
  </g>
</svg>
