<svg xmlns="http://www.w3.org/2000/svg" viewBox="0 0 1260 1012.04">
  <g>
    <path d="M0,90.08v920C420,738.76,840,1193.28,1260,922V2C840,273.28,420-181.24,0,90.08Z" style="fill: #009e60"/>
    <path d="M0,90.08v920c315-203.49,630,1.31,945,2V92C630,91.39,315-113.41,0,90.08Z" style="fill: #fcd116"/>
    <path d="M0,90.08v920c105-67.83,210-90.3,315-90.08V0C210-.22,105,22.25,0,90.08Z" style="fill: #0072c6"/>
    <path d="M560,682.67Q595,766.6,630,851q35-69,70-138.31-35-83.93-70-168.35Q595,613.39,560,682.67Z" style="fill: #009e60"/>
    <path d="M472.5,474.51q35,82.41,70,166.25,35-69.62,70-138.55-35-84.29-70-168.12Q507.5,403.71,472.5,474.51Z" style="fill: #009e60"/>
    <path d="M647.5,509.83q35,84.29,70,168.12,35-69.62,70-140.41-35-82.41-70-166.25Q682.5,440.91,647.5,509.83Z" style="fill: #009e60"/>
  </g>
</svg>
