<svg xmlns="http://www.w3.org/2000/svg" viewBox="0 0 1260 1012.04">
  <g>
    <path d="M0,90.08v920C420,738.76,840,1193.28,1260,922V2C840,273.28,420-181.24,0,90.08Z" style="fill: #cf142b"/>
    <path d="M0,90.08V703.41C420,432.09,840,886.62,1260,615.3V2C840,273.28,420-181.24,0,90.08Z" style="fill: #00247d"/>
    <path d="M0,90.08V396.74C420,125.43,840,580,1260,308.63V2C840,273.28,420-181.24,0,90.08Z" style="fill: #fc0"/>
    <g>
      <path d="M663.41,421.57q9.27,7.4,18.54,14.77-1.07-22.54-2.11-45.1Z" style="fill: #fff"/>
      <path d="M663.91,429q10.4.64,20.8,1.25-2.44-19.5-4.87-39Q671.88,410.14,663.91,429Z" style="fill: #fff"/>
    </g>
    <g>
      <path d="M670.3,437.62q19.07-3.92,38.12-8-17.24-6.86-34.47-13.88Q672.12,426.69,670.3,437.62Z" style="fill: #fff"/>
      <path d="M677,439.85q15.74-5,31.46-10.22-20.34-6.09-40.66-12.42Q672.35,428.54,677,439.85Z" style="fill: #fff"/>
    </g>
    <path d="M667.17,435.86l15.11-12.75q-19.71-10-39.42-20.09Q655,419.46,667.17,435.86Z" style="fill: #fff"/>
    <path d="M673.68,439q1.82-10.94,3.64-21.87-17.24-7-34.46-14.1Q658.27,421,673.68,439Z" style="fill: #fff"/>
    <g>
      <path d="M663.44,425.17q12.82,20.16,25.66,40.24-2.43-19.5-4.87-39Q673.83,425.82,663.44,425.17Z" style="fill: #fff"/>
      <path d="M664.79,432.65q12.15,16.41,24.31,32.76-4.61-22.74-9.2-45.5Z" style="fill: #fff"/>
    </g>
    <g>
      <path d="M648.58,448.89q15.74-5,31.46-10l-9.21-22.64Q659.71,432.59,648.58,448.89Z" style="fill: #fff"/>
      <path d="M648.58,448.89q17.49-7.72,35-15.53Q674.29,426,665,418.6,656.81,433.75,648.58,448.89Z" style="fill: #fff"/>
    </g>
    <g>
      <path d="M761.54,487.58q6-20.29,12-40.63-13,10.57-26,20.95Q754.51,477.77,761.54,487.58Z" style="fill: #fff"/>
      <path d="M766.22,483.17q3.64-18.09,7.28-36.22-13.9,13.95-27.82,27.67Q756,479,766.22,483.17Z" style="fill: #fff"/>
    </g>
    <g>
      <path d="M749.42,484.53q20.42,3.45,40.82,6.4-15.16-12-30.32-24.38Q754.67,475.55,749.42,484.53Z" style="fill: #fff"/>
      <path d="M755.43,488.9q17.4,1.2,34.81,2-18.51-12.44-37-25.31Q754.33,477.26,755.43,488.9Z" style="fill: #fff"/>
    </g>
    <path d="M746.82,481.85Q756.41,479,766,476q-16.71-15.79-33.42-31.91Q739.71,463,746.82,481.85Z" style="fill: #fff"/>
    <path d="M752.39,487q5.25-9,10.5-18-15.15-12.3-30.31-24.86Q742.48,465.58,752.39,487Z" style="fill: #fff"/>
    <g>
      <path d="M759.66,515.82q3.63-18.09,7.28-36.19-10.28-4.22-20.55-8.54Q753,493.47,759.66,515.82Z" style="fill: #fff"/>
      <path d="M759.66,515.82l5-43.48q-9.6,3-19.19,5.82Q752.55,497,759.66,515.82Z" style="fill: #fff"/>
    </g>
    <g>
      <path d="M724,486.49q17.4,1.47,34.8,2.64l-2.19-23.27Q740.34,476.3,724,486.49Z" style="fill: #fff"/>
      <path d="M724,486.49q20-.28,40.06-1-7-9.81-14.05-19.66Q737,476.27,724,486.49Z" style="fill: #fff"/>
    </g>
    <g>
      <path d="M825.27,560.84q12.29-16.17,24.58-32.63-16.22,5.35-32.45,10.22Z" style="fill: #fff"/>
      <path d="M831.31,558.47q9.27-15.06,18.54-30.26-18.17,8.12-36.35,15.62Q822.4,551.21,831.31,558.47Z" style="fill: #fff"/>
    </g>
    <g>
      <path d="M814.14,554q19.29,10.07,38.58,19.51-11.24-15.93-22.49-32.08Q822.18,547.74,814.14,554Z" style="fill: #fff"/>
      <path d="M818.76,559.94q17,7,34,13.55-14.43-17.38-28.88-35.16Q821.31,549.15,818.76,559.94Z" style="fill: #fff"/>
    </g>
    <path d="M812.37,550.68q10.49.74,21,1.27-11.69-19.82-23.39-39.86Q811.16,531.38,812.37,550.68Z" style="fill: #fff"/>
    <path d="M816.34,557.17q8-6.25,16.09-12.6-11.25-16.14-22.5-32.48Q813.14,534.64,816.34,557.17Z" style="fill: #fff"/>
    <g>
      <path d="M814.58,585.5q9.27-14.93,18.54-30-8.89-7.24-17.81-14.61Q815,563.2,814.58,585.5Z" style="fill: #fff"/>
      <path d="M814.58,585.5q9.25-18.59,18.5-37.32-10.47-.54-21-1.27Q813.36,566.2,814.58,585.5Z" style="fill: #fff"/>
    </g>
    <g>
      <path d="M822.09,561.31q2.53-10.8,5.08-21.63-19.51,3.92-39,7.23Q805.11,554.32,822.09,561.31Z" style="fill: #fff"/>
      <path d="M788.13,546.91q20.16,6.78,40.32,13-3.94-11.18-7.87-22.39Q804.35,542.39,788.13,546.91Z" style="fill: #fff"/>
    </g>
    <g>
      <path d="M865.45,648.72q17.12-10.5,34.24-21.62-17.49-.37-35-1.44Q865.09,637.2,865.45,648.72Z" style="fill: #fff"/>
      <path d="M872.11,648.62q13.78-10.54,27.58-21.52-20.25,1.53-40.51,2.14Q865.65,639,872.11,648.62Z" style="fill: #fff"/>
    </g>
    <g>
      <path d="M856.65,638.66q15.84,15.76,31.7,31-6-18.43-12-37Q866.51,635.78,856.65,638.66Z" style="fill: #fff"/>
      <path d="M859.33,645.66q14.52,12.23,29,24-8.64-20.88-17.27-41.92Q865.2,636.74,859.33,645.66Z" style="fill: #fff"/>
    </g>
    <path d="M855.93,635.07q10.1,4.24,20.19,8.29-5.26-22.05-10.54-44.15Q860.77,617.17,855.93,635.07Z" style="fill: #fff"/>
    <path d="M857.82,642.31q9.87-2.89,19.73-6-6-18.52-12-37.11Q861.7,620.78,857.82,642.31Z" style="fill: #fff"/>
    <g>
      <path d="M847.23,667.34q13.78-10.2,27.58-20.79-6.46-9.63-12.93-19.34Q854.56,647.33,847.23,667.34Z" style="fill: #fff"/>
      <path d="M847.23,667.34q14.92-13.53,29.83-27.5-10.08-4-20.18-8.28Q852.05,649.49,847.23,667.34Z" style="fill: #fff"/>
    </g>
    <g>
      <path d="M862.17,648.05q5.88-8.94,11.75-18-20.38-3-40.76-6.81Q847.67,635.87,862.17,648.05Z" style="fill: #fff"/>
      <path d="M833.16,623.28q17.85,13.13,35.71,25.63-.36-11.52-.73-23Q850.65,624.87,833.16,623.28Z" style="fill: #fff"/>
    </g>
    <g>
      <path d="M387.89,563.61q6.47-8.48,12.93-16.87-20.26-4.85-40.51-8.81Q374.1,550.55,387.89,563.61Z" style="fill: #fff"/>
      <path d="M394.55,565q.38-11.46.74-22.92-17.49-2.38-35-4.11Q377.43,551.12,394.55,565Z" style="fill: #fff"/>
    </g>
    <g>
      <path d="M382.45,550.35q9.87,4.77,19.73,9.75-3.89-22.36-7.76-44.68Q388.44,532.85,382.45,550.35Z" style="fill: #fff"/>
      <path d="M383.88,557.64q10.1-2.29,20.19-4.38-4.83-18.94-9.65-37.84Q389.16,536.51,383.88,557.64Z" style="fill: #fff"/>
    </g>
    <path d="M371.65,582q14.5-9.66,29-18.87-5.88-10.14-11.75-20.21Q380.28,562.38,371.65,582Z" style="fill: #fff"/>
    <path d="M371.65,582q15.86-12.93,31.7-25.31-9.86-5-19.73-9.76Q377.64,564.42,371.65,582Z" style="fill: #fff"/>
    <g>
      <path d="M391.13,564.5q17.85-9.15,35.71-17.67-17.49-2.91-35-5.25Q391.5,553,391.13,564.5Z" style="fill: #fff"/>
      <path d="M397.83,564.94q14.51-9.26,29-18.11-20.37-1.43-40.76-2.07Q392,554.81,397.83,564.94Z" style="fill: #fff"/>
    </g>
    <g>
      <path d="M382.94,554q14.91,16.53,29.83,33.51-4.83-19-9.65-37.91Q393,551.65,382.94,554Z" style="fill: #fff"/>
      <path d="M385.19,561.06q13.79,13,27.58,26.4-7.32-21.71-14.65-43.31Q391.66,552.57,385.19,561.06Z" style="fill: #fff"/>
    </g>
    <g>
      <path d="M428.69,482.5q8.91-5,17.81-9.75-18.18-12.78-36.35-25Q419.42,465,428.69,482.5Z" style="fill: #fff"/>
      <path d="M434.73,486.47q3.93-10.12,7.87-20.23-16.23-9.48-32.45-18.51Q422.43,467,434.73,486.47Z" style="fill: #fff"/>
    </g>
    <g>
      <path d="M443.66,485.27q3.19-21.61,6.41-43.22-11.25,13-22.5,26.25Q435.61,476.73,443.66,485.27Z" style="fill: #fff"/>
      <path d="M447.63,479.94q1.22-18.94,2.44-37.89-11.7,16.59-23.39,33.41Q437.15,477.61,447.63,479.94Z" style="fill: #fff"/>
    </g>
    <path d="M407.28,492.37q17-2.78,34-5-2.55-11.5-5.08-23Q421.71,478.17,407.28,492.37Z" style="fill: #fff"/>
    <path d="M407.28,492.37q19.29-5.17,38.58-9.66-8-8.55-16.09-17Q418.52,478.92,407.28,492.37Z" style="fill: #fff"/>
    <g>
      <path d="M431.55,484.64q20.16-.81,40.32-1-16.23-9.84-32.45-19.29Q435.49,474.51,431.55,484.64Z" style="fill: #fff"/>
      <path d="M437.91,487.81q17-2.3,34-4.14-19.51-9.72-39-18.87Q435.37,476.31,437.91,487.81Z" style="fill: #fff"/>
    </g>
    <g>
      <path d="M445.42,514.11q1.23-18.94,2.45-37.88-10.49-2.34-20.95-4.48Q436.17,492.86,445.42,514.11Z" style="fill: #fff"/>
      <path d="M426.88,479.08q9.27,17.44,18.54,35-.36-22.39-.73-44.8Q435.78,474.13,426.88,479.08Z" style="fill: #fff"/>
    </g>
    <g>
      <path d="M493.78,427.42q10.26-.57,20.54-1-13.91-19-27.82-37.76Q490.15,408,493.78,427.42Z" style="fill: #fff"/>
      <path d="M498.46,433.51q7-7.29,14.05-14.51-13-15.27-26-30.35Q492.49,411.06,498.46,433.51Z" style="fill: #fff"/>
    </g>
    <g>
      <path d="M507.61,436.23q9.9-17.7,19.81-35.31-15.15,6.63-30.31,13.48Q502.36,425.31,507.61,436.23Z" style="fill: #fff"/>
      <path d="M513.18,433.21q7.13-16.17,14.24-32.29-16.71,9.57-33.42,19.42Q503.59,426.72,513.18,433.21Z" style="fill: #fff"/>
    </g>
    <path d="M504.57,437.05q1.1-11.24,2.2-22.47-18.51,6-37,12.43Q487.18,431.83,504.57,437.05Z" style="fill: #fff"/>
    <path d="M469.76,427q20.42,3.67,40.82,7.9-5.25-10.94-10.5-21.85Q484.92,419.89,469.76,427Z" style="fill: #fff"/>
    <g>
      <path d="M495.91,430.54q20,7.86,40.06,16.15Q523,431.27,510,416,502.94,423.25,495.91,430.54Z" style="fill: #fff"/>
      <path d="M501.17,436q17.4,5.16,34.8,10.65Q519.67,430,503.36,413.56Z" style="fill: #fff"/>
    </g>
    <g>
      <path d="M500.34,462.42q7.13-16.21,14.24-32.38-9.6-6.48-19.19-12.88Z" style="fill: #fff"/>
      <path d="M500.34,462.42q6.63-19.94,13.27-39.82-10.28.47-20.55,1Q496.71,443,500.34,462.42Z" style="fill: #fff"/>
    </g>
    <g>
      <path d="M575.29,406.61q10.4,3.79,20.8,7.65-8-22.31-15.93-44.58Q577.73,388.15,575.29,406.61Z" style="fill: #fff"/>
      <path d="M578.05,413.88q9.27-3.44,18.54-6.83-8.21-18.69-16.43-37.37Q579.11,391.79,578.05,413.88Z" style="fill: #fff"/>
    </g>
    <g>
      <path d="M586.32,420.06q15.42-11.35,30.82-22.64-17.24-.44-34.46-.79Q584.5,408.35,586.32,420.06Z" style="fill: #fff"/>
      <path d="M592.83,419.72q12.17-11.16,24.31-22.3-19.71,1.5-39.42,3.1Q585.28,410.11,592.83,419.72Z" style="fill: #fff"/>
    </g>
    <path d="M583,419.52q4.61-9.36,9.2-18.7-20.32-2.44-40.66-4.69Q567.32,407.74,583,419.52Z" style="fill: #fff"/>
    <path d="M551.58,396.13q19.06,11.89,38.12,24-1.83-11.72-3.65-23.43Q568.81,396.34,551.58,396.13Z" style="fill: #fff"/>
    <g>
      <path d="M576.44,410.23q17.49,15.22,35,30.57L595,403.39Q585.72,406.8,576.44,410.23Z" style="fill: #fff"/>
      <path d="M580,417.22Q595.7,429,611.42,440.8l-22.25-42.29Z" style="fill: #fff"/>
    </g>
    <g>
      <path d="M570.9,439.93q12.15-11.24,24.31-22.39-7.55-9.62-15.11-19.22Q575.51,419.13,570.9,439.93Z" style="fill: #fff"/>
      <path d="M570.9,439.93q12.83-14.69,25.66-29.29-10.39-3.84-20.79-7.64Q573.34,421.47,570.9,439.93Z" style="fill: #fff"/>
    </g>
  </g>
</svg>
