<svg xmlns="http://www.w3.org/2000/svg" xmlns:xlink="http://www.w3.org/1999/xlink" viewBox="0 0 1260 1012.04">
  <defs>
    <clipPath id="a">
      <path d="M0,90.08v230c245-158.27,490-69.55,735-22v230c-35-6.79-70-14.42-105-22.06C420,306.89,210,107.75,0,90.08ZM630,46C525,23.12,420,.22,315,0V536.67c-105-.22-210,22.24-315,90.07V550.08C210,261.09,420,153.55,630,46Z" style="fill: none"/>
    </clipPath>
    <linearGradient id="b" x1="846.15" y1="364.73" x2="829.32" y2="370.35" gradientTransform="matrix(1, -0.07, 0, 1, 0, 44.05)" gradientUnits="userSpaceOnUse">
      <stop offset="0" stop-color="red"/>
      <stop offset="1" stop-color="#ff0"/>
    </linearGradient>
    <linearGradient id="c" x1="845.34" y1="427.92" x2="828.51" y2="433.53" xlink:href="#b"/>
    <linearGradient id="d" x1="845.01" y1="490.28" x2="828.18" y2="495.89" xlink:href="#b"/>
    <linearGradient id="e" x1="873.05" y1="562.66" x2="856.15" y2="568.3" xlink:href="#b"/>
    <linearGradient id="f" x1="841.35" y1="612.49" x2="824.53" y2="618.1" xlink:href="#b"/>
    <linearGradient id="g" x1="842.18" y1="677.98" x2="825.36" y2="683.59" xlink:href="#b"/>
    <linearGradient id="h" x1="999.65" y1="380.07" x2="982.37" y2="385.83" xlink:href="#b"/>
    <linearGradient id="i" x1="998.24" y1="442.25" x2="980.96" y2="448.02" xlink:href="#b"/>
    <linearGradient id="j" x1="996.36" y1="505.82" x2="979.09" y2="511.58" xlink:href="#b"/>
    <linearGradient id="k" x1="998.48" y1="568.31" x2="981.2" y2="574.07" xlink:href="#b"/>
    <linearGradient id="l" x1="998.01" y1="630.83" x2="980.73" y2="636.59" xlink:href="#b"/>
    <linearGradient id="m" x1="998.24" y1="693.69" x2="980.96" y2="699.45" xlink:href="#b"/>
  </defs>
  <g>
    <path d="M0,90.08v920C420,738.76,840,1193.28,1260,922V2C840,273.28,420-181.24,0,90.08Z" style="fill: #00247d"/>
    <path d="M0,90.08C210,107.75,420,306.89,630,506m0-460C420,153.55,210,261.09,0,550.08"/>
    <path d="M315,281.43C415.3,354.88,515.61,449,615.91,544.09L644.09,468C557.87,386.23,471.65,303.83,385.44,233.3c86.21-55.38,172.43-98.88,258.65-143.06Q637,68.13,630,46c-23.48-5.12-47-10.24-70.44-15.11C478,73.54,396.52,119.22,315,178.57,233.48,118.88,152,72.86,70.44,51.13A575.74,575.74,0,0,0,0,90.08v51.43c81.52,6.86,163,41.06,244.56,92C163,301.62,81.52,386.46,0,498.65v51.43q7.05,16,14.09,32.31C114.39,448.19,214.7,354.46,315,281.43Z" style="fill: #fff"/>
    <g style="clip-path: url(#a)">
      <path d="M0,90.08C210,107.75,420,306.89,630,506m0-460C420,153.55,210,261.09,0,550.08"/>
      <path d="M315,264.29C416.87,338.88,518.74,434.82,620.61,531.4l18.78-50.76C546.91,393,454.44,304.76,362,231.54c92.48-61.82,185-108.67,277.43-156L630,46c-15.65-3.41-31.31-6.83-47-10.16C493.69,82,404.35,130.66,315,195.71c-89.35-65.42-178.69-114.42-268-133Q23.49,74.94,0,90.08v34.28c89.35,7.52,178.7,47.89,268,107.13C178.7,302.73,89.35,392.83,0,515.79v34.29q4.7,10.68,9.39,21.48C111.26,434,213.13,338.46,315,264.29Z" style="fill: #cf142b"/>
    </g>
    <path d="M315,0V536.67M0,320.08c245-158.27,490-69.55,735-22"/>
    <path d="M367.5,1.9a728.67,728.67,0,0,0-105,0h0a728.67,728.67,0,0,1,105,0Z" style="fill: #fff"/>
    <path d="M262.5,538.55a731.56,731.56,0,0,1,105,0v-230C490,316.9,612.5,351,735,374.75V221.42c-122.5-23.78-245-57.85-367.5-66.19V1.9a728.67,728.67,0,0,0-105,0V155.22C175,161.86,87.5,186.88,0,243.41V396.74c87.5-56.52,175-81.54,262.5-88.19Z" style="fill: #fff"/>
    <path d="M315,0V536.67M0,320.08c245-158.27,490-69.55,735-22"/>
    <path d="M346.5.72c-21-.9-42-1-63-.08h0c21-.91,42-.82,63,.09Z" style="fill: #cf142b"/>
    <path d="M283.5,537.31c21-.91,42-.82,63,.08V276.72C476,282.31,605.5,319,735,344.08v-92C605.5,227,476,190.31,346.5,184.72V.73c-21-.91-42-1-63-.09v184C189,188.73,94.5,213,0,274.08v92C94.5,305,189,280.73,283.5,276.64Z" style="fill: #cf142b"/>
    <path d="M630,46V506c-210-45.8-420-91.6-630,44.06v460C420,738.76,840,1193.28,1260,922V2C1050,137.63,840,91.82,630,46Z" style="fill: #00247d"/>
    <polygon points="815.07 302.69 815.08 302.69 815.08 302.69 815.07 302.69" style="fill: #fff"/>
    <path d="M1110.19,711.58c-6.83-5.89-15.61-13.53-24.88-31.32S1057,701.83,1057,701.75c0,.22-46.83,75.33-89.76,82.46,59.76-42,87.32-80.94,99.94-106.17,12.62-25.75,10.31-37.81,10.31-38l.48-342c-87.63,19.66-175.27,16.84-262.91,4.73q-.26,169.5-.49,339c-.49,9.89,3.41,61.72,110.24,142.51-47.32-9.83-91.22-83.72-91.22-83.65s-4.88-15.54-17.56-18.76c-10.73-1.55-12.68,12.38-19,22.08-3.9,7.24-17.56,16.38-17.56,16.36s-12.19,15.73,3.91,46.25c16.58,24.13,28.29-1.27,28.29-1.27,0-.86,47.8,90.91,135.12,94.1,85.85-4.22,127.8-91.21,134.63-96.95,4.39,18.31,20.49,12.25,30.73-6.46S1117,717.46,1110.19,711.58Z" style="fill: #fff"/>
    <path d="M821.41,312.85q-.48,163-1,326.11c.49,45.68,46.34,91.3,125.85,152,77.07-55.53,126.34-111.86,125.85-154.06V307.76c-83.58,18.05-167.15,15.93-250.73,5.08Z" style="fill: #006129"/>
    <path d="M820.43,311.27q-.49,163.78-1,327.57c.49,46.09,46,91.94,126.39,153.37l.44.34.45-.33c78.4-56.62,126.89-113.29,126.4-155.57V306.09c-83.91,18.29-167.81,16.2-251.72,5.31Zm2,3.15c82.92,10.69,165.83,12.75,248.75-5V637.08c.47,40.72-47.41,96.31-124.85,152.23C866.86,728.66,821.9,683.44,821.43,639.1Q821.91,476.77,822.4,314.42Z"/>
    <path d="M854.71,364.79l1.64,1.8q7-14.25,14-28.59,7,15.67,14.06,31.25l1.63-1.51q-7.85-17.37-15.69-34.88Q862.53,348.88,854.71,364.79Z" style="fill: #f7c600"/>
    <path d="M870.37,351c-1.63-.15-2.94,1.65-2.94,4s1.31,4.42,2.94,4.57,2.94-1.66,2.93-4S872,351.16,870.37,351Z" style="fill: #f7c600"/>
    <path d="M870.37,350.29c-1.9-.17-3.44,1.93-3.44,4.69s1.54,5.17,3.44,5.34a2.68,2.68,0,0,0,2.42-1.24,5.9,5.9,0,0,0,1-3.46h0a6.79,6.79,0,0,0-1-3.64A3.32,3.32,0,0,0,870.37,350.29Zm2.44,5.24a4.14,4.14,0,0,1-.72,2.46,1.91,1.91,0,0,1-1.72.89c-1.35-.13-2.45-1.83-2.45-3.8s1.1-3.47,2.45-3.34a2.36,2.36,0,0,1,1.72,1.2,4.78,4.78,0,0,1,.72,2.59Z"/>
    <polygon points="858.32 389.43 858.32 389.43 858.32 389.43 858.32 389.43" style="fill: #f7c600"/>
    <path d="M885.66,368.65q-4.73-.39-9.43-.84c-.59-1.6-3.19-8-5.88-8.3-3.18-.12-5.42,7.34-5.42,7.34q-6.84-.68-13.67-1.44c-2.56-.28-5.11-.57-7.67-.88,0,0-.73,7.94,10.09,10.68,2.43,4.91,4.32,6.41,6.44,7.83-1.41,1.57-1.81,3.6-1.8,6.39q11.46,1.24,22.94,2.23s.36-4.32-2.4-7.19c12-1.46,8.9-17.18,19-17.39,2,.56-5.25,6.24-5.25,6.24s-6.07,5.82-3.31,9.2c2.2,2.68,3.16-1.32,3.46-4.37s9.76-4.42,8.41-13.29C898.88,357.53,885.66,368.68,885.66,368.65Z" style="fill: #f7c600"/>
    <path d="M899.62,362c-4.18-2.07-12.91,4.92-14.1,5.89-3-.26-6-.52-9-.8-.76-2-3.31-8-6.17-8.33-3-.12-5.18,5.65-5.73,7.3q-10.73-1.05-21.45-2.33l-.06.62a9.86,9.86,0,0,0,1.12,4.92c1.62,3.18,4.72,5.4,9.2,6.57,2.16,4.28,3.89,6,5.8,7.33a11,11,0,0,0-1.4,6.18v.72q11.94,1.31,23.88,2.32c0-.22,0-.43,0-.64A11.57,11.57,0,0,0,880,385c5.58-1.16,7.72-5.66,9.63-9.65s3.46-7.26,7.77-7.54a31.3,31.3,0,0,1-5.16,4.89c-.43.41-4.17,4.1-4.23,7.6a4.11,4.11,0,0,0,.91,2.75c.78,1,1.53,1.28,2.2.93,1.36-.7,1.87-3.87,2.05-5.7.07-.71,1.39-1.63,2.56-2.45,2.87-2,6.8-4.81,5.81-11.25A4,4,0,0,0,899.62,362Zm-4.31,12.5c-1.64,1.15-2.94,2.06-3.08,3.49-.25,2.51-.8,4.27-1.43,4.6-.33.17-.74-.05-1.23-.65a2.27,2.27,0,0,1-.53-1.55c0-2.35,2.77-5.48,3.78-6.46,6.06-4.77,5.88-6.19,5.82-6.65a1.09,1.09,0,0,0-.85-1c-5.12.13-7,4-8.94,8.14s-4.08,8.55-10.05,9.26l-1.31.15,1.1,1.15a8.83,8.83,0,0,1,2.19,5.84q-11-.93-22-2.13c.07-2.46.54-3.94,1.62-5.13l.64-.72-.78-.53c-2.1-1.41-3.89-2.86-6.23-7.57l-.13-.26-.21-.06c-5.35-1.34-7.69-4-8.71-5.95a8.42,8.42,0,0,1-.93-3.23q10.59,1.26,21.16,2.29l.13-.42c0-.08,2.16-7.05,5-6.94,2.08.21,4.4,5.06,5.44,7.89l.14.38q4.94.47,9.87.88l.12-.11c.09-.06,9.43-7.86,13.41-5.88a2.62,2.62,0,0,1,1.32,1.59C901.44,370.2,898,372.61,895.31,374.53Z"/>
    <path d="M860,382.8q9.56.94,19.11,1.69" style="fill: #f7c600"/>
    <path d="M860,382.08v1.44q9.56.94,19.11,1.69v-1.45Q869.53,383,860,382.08Z"/>
    <path d="M859.8,382.47q-4.29-8.5-8.58-17.06S852.74,378.65,859.8,382.47Z" style="fill: #f7c600"/>
    <path d="M851.7,365.34l-1,.14c.06.55,1.66,13.73,8.93,17.67.09-.45.19-.9.28-1.35C853.27,378.18,851.72,365.46,851.7,365.34Z"/>
    <path d="M851.1,343.58c1.88-4.08.94-8.3-2.59-12,.71,5.75-4.59,10.47-4.59,15.1s2.71,3.92,2.36,10.92c.23,4.15-.71,3-.95,6.93l4.71.54c.7-4.9,2-5.61,3.41-11.81C853.68,347.13,850,347.42,851.1,343.58Z" style="fill: url(#b)"/>
    <path d="M851.52,344a10.55,10.55,0,0,0,.91-6.07,12.76,12.76,0,0,0-3.65-6.92l-1-1c.07.55.13,1.1.2,1.65.36,2.88-1,5.6-2.35,8.22-1.15,2.29-2.24,4.44-2.24,6.74a8.68,8.68,0,0,0,1.18,4.57c.66,1.3,1.36,2.64,1.17,6.42a7.29,7.29,0,0,1-.32,3.41,11.1,11.1,0,0,0-.62,3.39c0,.26,0,.52-.05.78,1.89.23,3.77.44,5.65.65,0-.19.06-.37.08-.56a22.71,22.71,0,0,1,1.49-5.49,41.74,41.74,0,0,0,1.91-6.26l0-.18a9.8,9.8,0,0,0-1.72-6.44C851.52,345.85,851.17,345.3,851.52,344Zm-.38,15a24.09,24.09,0,0,0-1.5,5.29l-3.75-.43a8.14,8.14,0,0,1,.47-2.14,9,9,0,0,0,.41-4c.21-4.22-.64-5.87-1.39-7.33a6.72,6.72,0,0,1-1-3.64c0-1.84,1-3.83,2.07-5.93,1.16-2.31,2.46-4.88,2.57-7.73a10.36,10.36,0,0,1,2.4,5.05,8.88,8.88,0,0,1-.82,5.11,5,5,0,0,0,.88,4.62A7.79,7.79,0,0,1,853,353.1,41.67,41.67,0,0,1,851.14,359.05Z"/>
    <path d="M870.37,332.29c-1.5-.13-2.71,1.52-2.71,3.7s1.21,4.06,2.71,4.2,2.7-1.52,2.7-3.7S871.86,332.43,870.37,332.29Z" style="fill: #f7c600"/>
    <path d="M870.37,331.57a2.51,2.51,0,0,0-2.27,1.16,5.46,5.46,0,0,0-.93,3.21,6.3,6.3,0,0,0,.93,3.4,3.15,3.15,0,0,0,2.27,1.58c1.76.16,3.2-1.81,3.2-4.39S872.13,331.73,870.37,331.57Zm0,7.9a2.16,2.16,0,0,1-1.57-1.09,4.43,4.43,0,0,1-.64-2.34,3.81,3.81,0,0,1,.64-2.22,1.74,1.74,0,0,1,1.57-.8c1.21.11,2.2,1.65,2.2,3.42S871.58,339.58,870.37,339.47Z"/>
    <path d="M853.9,428l1.64,1.81q7-14.25,14-28.58,7,15.67,14.06,31.25l1.63-1.5q-7.85-17.38-15.69-34.89Q861.72,412.14,853.9,428Z" style="fill: #f7c600"/>
    <path d="M869.55,414.27c-1.62-.15-2.94,1.64-2.93,4s1.31,4.42,2.93,4.57,2.94-1.66,2.94-4S871.18,414.42,869.55,414.27Z" style="fill: #f7c600"/>
    <path d="M869.55,413.55a2.67,2.67,0,0,0-2.42,1.24,5.85,5.85,0,0,0-1,3.45,6.79,6.79,0,0,0,1,3.64,3.34,3.34,0,0,0,2.42,1.7c1.9.18,3.44-1.94,3.44-4.7S871.45,413.72,869.55,413.55Zm0,8.58a2.39,2.39,0,0,1-1.72-1.2,4.79,4.79,0,0,1-.72-2.6,4.18,4.18,0,0,1,.72-2.45,1.91,1.91,0,0,1,1.72-.89c1.35.13,2.45,1.83,2.45,3.8S870.9,422.26,869.55,422.13Z"/>
    <polygon points="857.5 452.68 857.5 452.68 857.5 452.68 857.5 452.68" style="fill: #f7c600"/>
    <path d="M884.85,431.92c-3.15-.26-6.29-.55-9.44-.85-.58-1.59-3.18-8-5.87-8.3-3.18-.13-5.43,7.33-5.43,7.33q-6.83-.68-13.66-1.44l-7.67-.89s-.73,7.93,10.09,10.68c2.43,4.92,4.32,6.41,6.44,7.84-1.41,1.57-1.81,3.6-1.8,6.39q11.46,1.26,22.94,2.24s.36-4.31-2.4-7.19c12-1.45,8.9-17.17,19-17.37,2,.57-5.25,6.24-5.25,6.23s-6.07,5.82-3.31,9.2c2.19,2.69,3.16-1.31,3.46-4.36s9.76-4.42,8.41-13.28C898.07,420.81,884.84,432,884.85,431.92Z" style="fill: #f7c600"/>
    <path d="M898.81,425.31c-4.19-2.08-12.91,4.91-14.1,5.88q-4.51-.39-9-.81c-.76-2-3.31-8-6.18-8.33-3-.12-5.17,5.64-5.72,7.29q-10.72-1.05-21.45-2.35l-.06.62a9.72,9.72,0,0,0,1.12,4.92c1.62,3.18,4.72,5.41,9.2,6.58,2.16,4.29,3.89,6,5.8,7.34a11,11,0,0,0-1.4,6.18v.72q11.94,1.31,23.88,2.33l.05-.63a11.57,11.57,0,0,0-1.71-6.77c5.58-1.16,7.72-5.66,9.63-9.65s3.46-7.25,7.77-7.52a31.35,31.35,0,0,1-5.16,4.87c-.43.42-4.17,4.1-4.24,7.6a4.25,4.25,0,0,0,.91,2.76c.79,1,1.54,1.27,2.21.93,1.36-.7,1.87-3.88,2-5.7.07-.71,1.39-1.63,2.56-2.45,2.87-2,6.8-4.8,5.81-11.25A4,4,0,0,0,898.81,425.31Zm-4.31,12.5c-1.64,1.15-2.94,2.05-3.08,3.48-.25,2.52-.8,4.28-1.43,4.61-.33.16-.74-.06-1.23-.65a2.19,2.19,0,0,1-.53-1.55c0-2.36,2.76-5.49,3.77-6.46,6.07-4.77,5.89-6.19,5.83-6.65a1.1,1.1,0,0,0-.85-1c-5.12.12-7,4-9,8.13S884,446.31,878,447l-1.31.15,1.1,1.16a8.83,8.83,0,0,1,2.19,5.84q-11-.95-22-2.15c.07-2.46.54-3.94,1.61-5.14.22-.24.44-.47.65-.71l-.78-.53c-2.1-1.41-3.89-2.87-6.23-7.57l-.13-.27-.21-.05c-5.35-1.35-7.69-4-8.71-6a8.38,8.38,0,0,1-.93-3.22q10.58,1.26,21.16,2.31c0-.15.09-.29.13-.43s2.16-7.05,5-6.94c2.08.22,4.4,5.07,5.44,7.9l.14.38q4.93.47,9.87.89l.12-.1c.09-.07,9.44-7.85,13.41-5.88a2.64,2.64,0,0,1,1.32,1.6C900.63,433.49,897.23,435.89,894.5,437.81Z"/>
    <path d="M859.16,446.05q9.55.94,19.11,1.7" style="fill: #f7c600"/>
    <path d="M859.16,445.33v1.44q9.55.94,19.11,1.71V447Q868.71,446.28,859.16,445.33Z"/>
    <path d="M859,445.72l-8.59-17.07S851.93,441.89,859,445.72Z" style="fill: #f7c600"/>
    <path d="M850.89,428.58l-1,.14c.06.55,1.66,13.73,8.93,17.68l.28-1.36C852.46,441.42,850.91,428.71,850.89,428.58Z"/>
    <path d="M850.29,406.83c1.88-4.09.94-8.31-2.59-12,.7,5.76-4.59,10.46-4.59,15.09s2.71,3.93,2.35,10.93c.24,4.15-.7,3-.94,6.93l4.71.55c.7-4.9,2-5.62,3.41-11.82C852.87,410.38,849.23,410.66,850.29,406.83Z" style="fill: url(#c)"/>
    <path d="M850.7,407.26a10.55,10.55,0,0,0,.92-6.07,12.79,12.79,0,0,0-3.65-6.92l-1-1c.07.55.14,1.1.2,1.65.36,2.88-1,5.6-2.35,8.22-1.15,2.29-2.24,4.44-2.24,6.74a8.71,8.71,0,0,0,1.18,4.57c.66,1.3,1.36,2.64,1.17,6.41a7.25,7.25,0,0,1-.32,3.41,11.19,11.19,0,0,0-.62,3.4c0,.26,0,.52,0,.78l5.65.65c0-.18.06-.37.08-.56a22.84,22.84,0,0,1,1.49-5.49,41.54,41.54,0,0,0,1.91-6.25l0-.18a9.81,9.81,0,0,0-1.72-6.45C850.71,409.09,850.36,408.55,850.7,407.26Zm-.37,15a24.09,24.09,0,0,0-1.5,5.29l-3.75-.44a8.25,8.25,0,0,1,.47-2.14,8.93,8.93,0,0,0,.41-4c.21-4.22-.64-5.87-1.39-7.33a6.76,6.76,0,0,1-1-3.65c0-1.84,1-3.82,2.07-5.92,1.16-2.31,2.46-4.88,2.57-7.73a10.36,10.36,0,0,1,2.4,5,9,9,0,0,1-.82,5.11,5,5,0,0,0,.88,4.62,7.8,7.8,0,0,1,1.44,5.22A41.45,41.45,0,0,1,850.33,422.29Z"/>
    <path d="M869.55,395.55c-1.49-.14-2.7,1.51-2.7,3.69s1.21,4.07,2.7,4.21,2.71-1.52,2.71-3.7S871.05,395.69,869.55,395.55Z" style="fill: #f7c600"/>
    <path d="M869.55,394.83c-1.76-.17-3.19,1.79-3.19,4.37s1.43,4.81,3.19,5a2.51,2.51,0,0,0,2.27-1.16,5.52,5.52,0,0,0,.93-3.22h0a6.35,6.35,0,0,0-.93-3.39A3.16,3.16,0,0,0,869.55,394.83Zm2.21,4.87a3.86,3.86,0,0,1-.64,2.23,1.75,1.75,0,0,1-1.57.8c-1.21-.12-2.2-1.66-2.2-3.44s1-3.13,2.2-3a2.2,2.2,0,0,1,1.57,1.09,4.43,4.43,0,0,1,.64,2.34Z"/>
    <path d="M853.57,490.42l1.64,1.8q7-14.24,14-28.58,7,15.69,14,31.27l1.64-1.51Q877,476,869.19,458.51,861.38,474.52,853.57,490.42Z" style="fill: #f7c600"/>
    <path d="M869.22,476.66c-1.62-.15-2.94,1.64-2.94,4s1.32,4.43,2.94,4.58,2.94-1.66,2.94-4S870.85,476.81,869.22,476.66Z" style="fill: #f7c600"/>
    <path d="M869.22,475.94a2.67,2.67,0,0,0-2.43,1.24,5.84,5.84,0,0,0-1,3.45c0,2.76,1.54,5.16,3.43,5.34s3.44-1.94,3.44-4.7S871.11,476.11,869.22,475.94Zm0,8.58c-1.34-.12-2.44-1.83-2.44-3.8a4.17,4.17,0,0,1,.71-2.45,1.93,1.93,0,0,1,1.73-.89c1.35.13,2.45,1.83,2.45,3.8S870.57,484.65,869.22,484.52Z"/>
    <path d="M884.51,494.32c-3.14-.27-6.28-.55-9.43-.86-.59-1.59-3.19-8-5.87-8.3-3.18-.13-5.43,7.33-5.43,7.33q-6.82-.67-13.67-1.45l-7.66-.89s-.73,7.93,10.09,10.69c2.43,4.91,4.32,6.41,6.44,7.83-1.42,1.57-1.81,3.61-1.81,6.39q11.48,1.26,23,2.26s.36-4.32-2.4-7.19c12-1.45,8.9-17.18,19-17.37,2,.57-5.26,6.24-5.26,6.23s-6.07,5.82-3.3,9.2c2.19,2.68,3.15-1.31,3.45-4.36s9.77-4.41,8.42-13.28C897.73,483.21,884.51,494.34,884.51,494.32Z" style="fill: #f7c600"/>
    <path d="M898.48,487.71c-4.19-2.08-12.91,4.91-14.11,5.87-3-.25-6-.53-9-.81-.76-2-3.32-8-6.18-8.33-3-.13-5.18,5.64-5.73,7.29q-10.73-1.07-21.44-2.36L842,490a9.72,9.72,0,0,0,1.12,4.92c1.62,3.19,4.71,5.41,9.19,6.59,2.16,4.28,3.9,6,5.81,7.33a10.93,10.93,0,0,0-1.4,6.18v.72q11.94,1.32,23.88,2.35c0-.21,0-.43.05-.64a11.65,11.65,0,0,0-1.71-6.77c5.57-1.15,7.72-5.65,9.62-9.64s3.47-7.26,7.78-7.52a31.35,31.35,0,0,1-5.16,4.87c-.43.41-4.17,4.1-4.24,7.6a4.17,4.17,0,0,0,.91,2.75c.79,1,1.53,1.28,2.21.93,1.36-.7,1.86-3.87,2-5.7.07-.7,1.4-1.62,2.57-2.44,2.87-2,6.8-4.8,5.81-11.24A4,4,0,0,0,898.48,487.71Zm-4.31,12.49c-1.65,1.16-2.95,2.06-3.09,3.49-.24,2.51-.79,4.28-1.43,4.6-.32.17-.74-.05-1.23-.65a2.27,2.27,0,0,1-.53-1.55c0-2.35,2.77-5.48,3.78-6.46,6.07-4.76,5.89-6.18,5.83-6.64a1.1,1.1,0,0,0-.85-1c-5.12.12-7,4-8.95,8.13s-4.08,8.54-10.05,9.24l-1.31.15,1.11,1.16a8.88,8.88,0,0,1,2.19,5.84q-11-.94-22-2.15c.06-2.47.54-3.94,1.61-5.14l.65-.72-.79-.52c-2.1-1.41-3.89-2.87-6.22-7.58,0-.09-.09-.17-.13-.26l-.22-.06c-5.34-1.35-7.68-4-8.7-6a8.28,8.28,0,0,1-.93-3.23q10.57,1.26,21.16,2.31l.13-.42c0-.07,2.16-7.05,5-6.94,2.08.22,4.4,5.07,5.44,7.9l.14.38c3.29.32,6.58.61,9.86.89l.13-.1c.09-.07,9.43-7.86,13.41-5.87a2.57,2.57,0,0,1,1.31,1.6C900.3,495.89,896.9,498.29,894.17,500.2Z"/>
    <path d="M858.82,508.44q9.55.94,19.11,1.7" style="fill: #f7c600"/>
    <path d="M858.82,507.71c0,.49,0,1,0,1.45q9.55.94,19.11,1.71v-1.45Q868.38,508.67,858.82,507.71Z"/>
    <path d="M858.66,508.11q-4.3-8.52-8.59-17.08S851.6,504.27,858.66,508.11Z" style="fill: #f7c600"/>
    <path d="M850.56,491l-1,.13c.07.55,1.67,13.74,8.93,17.69.1-.45.19-.91.29-1.36C852.12,503.81,850.58,491.09,850.56,491Z"/>
    <path d="M850,469.21c1.89-4.08.94-8.31-2.58-12,.7,5.75-4.59,10.45-4.59,15.09s2.71,3.92,2.35,10.92c.24,4.15-.7,3-.94,6.93l4.71.55c.7-4.9,2-5.61,3.41-11.81C852.54,472.76,848.9,473,850,469.21Z" style="fill: url(#d)"/>
    <path d="M850.37,469.65a10.65,10.65,0,0,0,.92-6.07,12.68,12.68,0,0,0-3.66-6.92l-1-1c.06.55.13,1.1.2,1.65.35,2.88-1,5.6-2.35,8.22-1.15,2.29-2.25,4.44-2.25,6.74a8.71,8.71,0,0,0,1.18,4.57c.67,1.3,1.36,2.64,1.18,6.41a7.39,7.39,0,0,1-.32,3.41,11.19,11.19,0,0,0-.62,3.4c0,.26,0,.52-.05.78,1.88.23,3.77.44,5.65.66,0-.19.05-.38.08-.57a22.61,22.61,0,0,1,1.49-5.48,43,43,0,0,0,1.91-6.26l0-.18a9.73,9.73,0,0,0-1.73-6.44C850.38,471.48,850,470.93,850.37,469.65Zm-.38,15A24.7,24.7,0,0,0,848.5,490l-3.75-.44a8.68,8.68,0,0,1,.46-2.13,8.79,8.79,0,0,0,.42-4c.21-4.22-.64-5.87-1.39-7.33a6.76,6.76,0,0,1-1-3.65c0-1.84,1-3.82,2.06-5.92,1.17-2.31,2.47-4.88,2.58-7.73a10.49,10.49,0,0,1,2.4,5,9,9,0,0,1-.83,5.11,5.07,5.07,0,0,0,.88,4.62,7.76,7.76,0,0,1,1.44,5.22A40.19,40.19,0,0,1,850,484.67Z"/>
    <path d="M869.22,457.94c-1.49-.14-2.7,1.51-2.7,3.69s1.21,4.07,2.7,4.21,2.71-1.52,2.71-3.7S870.72,458.08,869.22,457.94Z" style="fill: #f7c600"/>
    <path d="M869.22,457.22a2.51,2.51,0,0,0-2.26,1.15,5.51,5.51,0,0,0-.94,3.21A6.39,6.39,0,0,0,867,465a3.13,3.13,0,0,0,2.26,1.58c1.77.17,3.2-1.8,3.2-4.38S871,457.38,869.22,457.22Zm0,7.9a2.19,2.19,0,0,1-1.56-1.1,4.32,4.32,0,0,1-.65-2.34,3.76,3.76,0,0,1,.65-2.22,1.74,1.74,0,0,1,1.56-.8c1.22.12,2.21,1.66,2.21,3.43S870.44,465.23,869.22,465.12Z"/>
    <path d="M881.62,560.68l1.64,1.76q7-14.45,14-29,7,15.46,14.06,30.82l1.63-1.56q-7.84-17.13-15.69-34.4Q889.43,544.56,881.62,560.68Z" style="fill: #f7c600"/>
    <path d="M897.27,546.46c-1.62-.11-2.94,1.73-2.94,4.1s1.32,4.38,2.94,4.48,2.94-1.74,2.94-4.11S898.9,546.56,897.27,546.46Z" style="fill: #f7c600"/>
    <path d="M897.27,545.73c-1.89-.12-3.43,2-3.43,4.8s1.54,5.12,3.43,5.24a2.8,2.8,0,0,0,2.43-1.32,6,6,0,0,0,1-3.49,6.63,6.63,0,0,0-1-3.61A3.24,3.24,0,0,0,897.27,545.73Zm1.73,7.65a2,2,0,0,1-1.73.94c-1.34-.08-2.44-1.76-2.44-3.73s1.1-3.49,2.44-3.41a2.29,2.29,0,0,1,1.73,1.15,4.74,4.74,0,0,1,.72,2.57A4.32,4.32,0,0,1,899,553.38Z"/>
    <path d="M912.56,563.63q-4.71-.25-9.43-.55c-.58-1.58-3.18-7.93-5.87-8.12-3.18,0-5.43,7.49-5.43,7.49Q885,562,878.16,561.4c-2.55-.21-5.1-.44-7.66-.67,0,0-.73,8,10.09,10.4,2.43,4.84,4.32,6.29,6.44,7.65-1.41,1.61-1.81,3.66-1.81,6.44q11.47.93,22.95,1.55s.36-4.33-2.4-7.12c12-1.83,8.9-17.45,19-18,1.95.5-5.26,6.42-5.26,6.41s-6.06,6-3.3,9.31c2.19,2.61,3.15-1.42,3.45-4.48s9.77-4.74,8.42-13.57C925.78,552.08,912.56,563.66,912.56,563.63Z" style="fill: #f7c600"/>
    <path d="M926.53,556.55c-4.19-1.93-12.91,5.34-14.1,6.35q-4.51-.24-9-.53c-.76-2-3.32-7.93-6.18-8.14-3,0-5.17,5.81-5.72,7.48Q880.8,561,870.07,560l-.06.62a9.6,9.6,0,0,0,1.12,4.89c1.62,3.13,4.71,5.27,9.2,6.32,2.15,4.2,3.94,5.88,5.8,7.16a11.15,11.15,0,0,0-1.4,6.23v.72q11.94,1,23.88,1.6c0-.21,0-.42,0-.63a11.36,11.36,0,0,0-1.71-6.72c5.57-1.33,7.72-5.9,9.62-9.95s3.47-7.38,7.78-7.79a33.1,33.1,0,0,1-5.16,5.05c-.43.43-4.17,4.24-4.24,7.74a4.1,4.1,0,0,0,.91,2.73c.79.93,1.53,1.23,2.21.85,1.36-.75,1.87-3.93,2-5.77.07-.71,1.4-1.67,2.57-2.54,2.87-2.1,6.8-5,5.81-11.43A3.82,3.82,0,0,0,926.53,556.55Zm-4.31,12.64c-1.65,1.21-2.94,2.15-3.09,3.59-.24,2.52-.79,4.3-1.43,4.65-.32.18-.74,0-1.22-.61a2.16,2.16,0,0,1-.54-1.53c0-2.36,2.77-5.57,3.78-6.59,6.07-5,5.89-6.38,5.83-6.84a1,1,0,0,0-.85-.92c-5.12.29-7,4.24-9,8.42s-4.07,8.68-10,9.57l-1.3.2,1.1,1.12a8.63,8.63,0,0,1,2.19,5.77q-11-.6-22-1.48c.07-2.47.54-4,1.61-5.18l.65-.74-.78-.5c-2.1-1.35-3.9-2.76-6.23-7.4l-.13-.26-.21,0c-5.35-1.2-7.69-3.79-8.71-5.73a8.18,8.18,0,0,1-.93-3.19q10.57,1,21.16,1.7l.13-.43c0-.08,2.15-7.11,5-7.09,2.08.15,4.4,4.93,5.44,7.73l.14.37c3.29.21,6.58.41,9.87.58l.12-.11c.09-.07,9.44-8.16,13.41-6.32a2.45,2.45,0,0,1,1.31,1.55C928.35,564.67,925,567.19,922.22,569.19Z"/>
    <path d="M886.88,578.55q9.55.66,19.11,1.12" style="fill: #f7c600"/>
    <path d="M886.87,577.82c0,.49,0,1,0,1.45q9.55.66,19.11,1.12v-1.45Q896.43,578.49,886.87,577.82Z"/>
    <path d="M886.71,578.22q-4.29-8.38-8.59-16.82S879.65,574.6,886.71,578.22Z" style="fill: #f7c600"/>
    <path d="M878.61,561.32l-1,.16c.07.55,1.67,13.69,8.94,17.43.09-.46.19-.91.28-1.37C880.18,574.11,878.63,561.44,878.61,561.32Z"/>
    <path d="M878,539.58c1.88-4.14.94-8.33-2.59-11.9.7,5.73-4.59,10.58-4.59,15.22s2.71,3.85,2.35,10.86c.24,4.14-.7,3-.94,7l4.71.42c.7-4.92,2-5.67,3.41-11.91C880.59,543.06,877,543.44,878,539.58Z" style="fill: url(#e)"/>
    <path d="M878.42,540a10.65,10.65,0,0,0,.92-6.09,12.29,12.29,0,0,0-3.66-6.82l-.95-1,.2,1.65c.35,2.87-1,5.62-2.35,8.29-1.15,2.31-2.24,4.49-2.24,6.79a8.63,8.63,0,0,0,1.17,4.54c.67,1.28,1.36,2.61,1.18,6.38a7.49,7.49,0,0,1-.32,3.42,11.36,11.36,0,0,0-.62,3.42c0,.26,0,.52,0,.78l5.65.5c0-.19,0-.38.08-.57a23.21,23.21,0,0,1,1.49-5.53,42.78,42.78,0,0,0,1.91-6.31l0-.18a9.61,9.61,0,0,0-1.72-6.4C878.43,541.83,878.08,541.3,878.42,540ZM878,555a25.31,25.31,0,0,0-1.49,5.33L872.8,560a8.78,8.78,0,0,1,.46-2.15,8.86,8.86,0,0,0,.42-4c.21-4.22-.64-5.85-1.39-7.29a6.59,6.59,0,0,1-1-3.62c0-1.84,1-3.85,2.07-6,1.16-2.34,2.46-5,2.57-7.8a10.15,10.15,0,0,1,2.4,5,9,9,0,0,1-.83,5.14,5,5,0,0,0,.89,4.59,7.64,7.64,0,0,1,1.44,5.18A41,41,0,0,1,878,555Z"/>
    <path d="M897.27,527.74c-1.49-.1-2.7,1.59-2.7,3.77s1.21,4,2.7,4.13S900,534,900,531.85,898.77,527.83,897.27,527.74Z" style="fill: #f7c600"/>
    <path d="M897.27,527a2.59,2.59,0,0,0-2.26,1.23,5.53,5.53,0,0,0-.93,3.24,6.17,6.17,0,0,0,.93,3.37,3,3,0,0,0,2.26,1.51c1.77.11,3.2-1.9,3.2-4.48S899,527.12,897.27,527Zm0,7.9a2.08,2.08,0,0,1-1.56-1,4.26,4.26,0,0,1-.64-2.33,3.94,3.94,0,0,1,.64-2.24,1.78,1.78,0,0,1,1.56-.84c1.22.08,2.21,1.58,2.21,3.36S898.49,535,897.27,534.91Z"/>
    <path d="M849.91,612.91l1.64,1.81q7-14.22,14-28.53,7,15.72,14.05,31.32l1.64-1.5q-7.85-17.41-15.69-35Q857.72,597,849.91,612.91Z" style="fill: #f7c600"/>
    <path d="M865.56,599.21c-1.62-.16-2.94,1.63-2.94,4s1.32,4.43,2.94,4.58,2.94-1.64,2.94-4S867.19,599.37,865.56,599.21Z" style="fill: #f7c600"/>
    <path d="M865.56,598.48c-1.89-.18-3.43,1.91-3.43,4.68s1.54,5.17,3.43,5.36a2.67,2.67,0,0,0,2.43-1.24,5.85,5.85,0,0,0,1-3.45,6.79,6.79,0,0,0-1-3.64A3.39,3.39,0,0,0,865.56,598.48Zm1.73,7.71a1.89,1.89,0,0,1-1.73.88c-1.34-.13-2.44-1.84-2.44-3.81s1.1-3.46,2.44-3.33a2.38,2.38,0,0,1,1.73,1.21,4.87,4.87,0,0,1,.72,2.6A4.18,4.18,0,0,1,867.29,606.19Z"/>
    <polygon points="853.51 637.57 853.51 637.57 853.51 637.57 853.51 637.57" style="fill: #f7c600"/>
    <path d="M880.85,616.92c-3.14-.28-6.28-.57-9.43-.89-.59-1.59-3.19-8-5.87-8.32-3.18-.14-5.43,7.3-5.43,7.3q-6.82-.69-13.67-1.49c-2.55-.3-5.1-.6-7.66-.92,0,0-.73,7.93,10.09,10.72,2.43,4.93,4.32,6.43,6.44,7.86-1.42,1.57-1.81,3.6-1.81,6.39q11.47,1.29,23,2.34s.36-4.32-2.4-7.2c12-1.4,8.9-17.14,19-17.29,2,.57-5.26,6.21-5.26,6.21s-6.06,5.79-3.3,9.18c2.19,2.69,3.15-1.3,3.45-4.35s9.77-4.37,8.42-13.24C894.07,605.87,880.85,617,880.85,616.92Z" style="fill: #f7c600"/>
    <path d="M894.82,610.38c-4.19-2.09-12.91,4.85-14.11,5.81q-4.5-.41-9-.85c-.76-2-3.32-8.05-6.18-8.36-3-.13-5.17,5.63-5.73,7.28q-10.71-1.11-21.44-2.44l-.06.62a9.76,9.76,0,0,0,1.12,4.93c1.62,3.18,4.71,5.42,9.19,6.61,2.16,4.28,3.95,6,5.81,7.36a10.88,10.88,0,0,0-1.4,6.17v.72q11.94,1.37,23.88,2.44L877,640a11.69,11.69,0,0,0-1.71-6.78c5.57-1.12,7.72-5.62,9.62-9.6s3.47-7.24,7.78-7.49a31,31,0,0,1-5.16,4.85c-.43.42-4.17,4.09-4.24,7.59a4.17,4.17,0,0,0,.91,2.75c.79,1,1.53,1.29,2.21.94,1.36-.69,1.86-3.86,2-5.69.07-.7,1.4-1.62,2.57-2.44,2.87-2,6.8-4.76,5.81-11.21A4,4,0,0,0,894.82,610.38Zm-4.31,12.47c-1.65,1.14-3,2-3.09,3.48-.24,2.51-.79,4.27-1.43,4.59-.32.17-.73,0-1.22-.66a2.23,2.23,0,0,1-.54-1.55c0-2.35,2.77-5.47,3.78-6.44,6.07-4.73,5.89-6.16,5.83-6.62a1.1,1.1,0,0,0-.85-1c-5.12.1-7,4-9,8.09s-4.08,8.53-10,9.2l-1.31.15,1.11,1.16a8.92,8.92,0,0,1,2.19,5.85q-11-1-22-2.24c.07-2.46.54-3.94,1.61-5.13l.65-.72-.78-.52c-2.1-1.42-3.9-2.88-6.23-7.6l-.13-.27-.22,0c-5.34-1.37-7.68-4-8.7-6a8.42,8.42,0,0,1-.93-3.23q10.58,1.3,21.16,2.39c0-.14.09-.28.13-.42s2.15-7,5-6.92c2.08.23,4.4,5.08,5.44,7.92,0,.12.09.25.14.38q4.93.49,9.86.93l.13-.1c.09-.07,9.43-7.82,13.41-5.82a2.61,2.61,0,0,1,1.31,1.61C896.64,618.56,893.24,621,890.51,622.85Z"/>
    <path d="M855.16,631q9.57,1,19.12,1.78" style="fill: #f7c600"/>
    <path d="M855.16,630.22c0,.48,0,1,0,1.45q9.55,1,19.11,1.78V632Q864.71,631.21,855.16,630.22Z"/>
    <path d="M855,630.62q-4.29-8.54-8.59-17.11S847.94,626.76,855,630.62Z" style="fill: #f7c600"/>
    <path d="M846.9,613.44l-1,.14c.07.55,1.67,13.74,8.93,17.72.1-.46.19-.91.29-1.36C848.47,626.29,846.92,613.57,846.9,613.44Z"/>
    <path d="M846.29,591.69c1.89-4.08,1-8.31-2.58-12,.7,5.76-4.59,10.45-4.59,15.08s2.71,3.94,2.35,10.93c.24,4.15-.7,3-.94,6.93l4.71.56h0c.7-4.9,2-5.6,3.41-11.8C848.88,595.25,845.24,595.51,846.29,591.69Z" style="fill: url(#f)"/>
    <path d="M846.71,592.12a10.59,10.59,0,0,0,.92-6.06,12.79,12.79,0,0,0-3.66-6.94l-1-1c.06.55.13,1.1.2,1.65.35,2.88-1,5.59-2.35,8.21-1.15,2.28-2.25,4.43-2.25,6.73a8.77,8.77,0,0,0,1.18,4.57c.67,1.31,1.36,2.65,1.18,6.42a7.39,7.39,0,0,1-.32,3.41,11.12,11.12,0,0,0-.62,3.4c0,.26,0,.52,0,.78l5.65.67.08-.56a22.61,22.61,0,0,1,1.49-5.48,43.16,43.16,0,0,0,1.91-6.25l0-.18a9.77,9.77,0,0,0-1.73-6.45C846.72,594,846.37,593.41,846.71,592.12Zm-.38,15a24.77,24.77,0,0,0-1.49,5.28l-3.75-.44a8.67,8.67,0,0,1,.46-2.14,8.79,8.79,0,0,0,.42-4c.21-4.21-.64-5.87-1.39-7.33a6.78,6.78,0,0,1-1-3.65c0-1.84,1-3.82,2.06-5.92,1.17-2.3,2.47-4.87,2.58-7.72a10.52,10.52,0,0,1,2.4,5.06,8.89,8.89,0,0,1-.83,5.11,5,5,0,0,0,.89,4.62,7.82,7.82,0,0,1,1.44,5.22A41.22,41.22,0,0,1,846.33,607.15Z"/>
    <path d="M865.56,580.49c-1.49-.15-2.7,1.5-2.7,3.68s1.21,4.07,2.7,4.22,2.71-1.51,2.71-3.69S867.06,580.63,865.56,580.49Z" style="fill: #f7c600"/>
    <path d="M865.56,579.76a2.52,2.52,0,0,0-2.26,1.15,5.47,5.47,0,0,0-.94,3.21,6.39,6.39,0,0,0,.94,3.4,3.15,3.15,0,0,0,2.26,1.59c1.77.17,3.2-1.79,3.2-4.37S867.33,579.94,865.56,579.76Zm0,7.9a2.15,2.15,0,0,1-1.56-1.09,4.41,4.41,0,0,1-.65-2.35A3.76,3.76,0,0,1,864,582a1.71,1.71,0,0,1,1.56-.79c1.22.12,2.21,1.66,2.21,3.44S866.78,587.78,865.56,587.66Z"/>
    <path d="M850.74,678.34c.55.6,1.1,1.2,1.64,1.81q7-14.22,14-28.54,7,15.71,14.06,31.3l1.63-1.5q-7.84-17.4-15.69-34.94Q858.55,662.46,850.74,678.34Z" style="fill: #f7c600"/>
    <path d="M866.39,664.62c-1.62-.15-2.94,1.64-2.93,4s1.31,4.42,2.93,4.58,2.94-1.64,2.94-4S868,664.78,866.39,664.62Z" style="fill: #f7c600"/>
    <path d="M866.39,663.9c-1.89-.18-3.43,1.91-3.43,4.68s1.54,5.17,3.43,5.35a2.68,2.68,0,0,0,2.43-1.23,5.9,5.9,0,0,0,1-3.46,6.79,6.79,0,0,0-1-3.64A3.38,3.38,0,0,0,866.39,663.9Zm1.73,7.71a1.91,1.91,0,0,1-1.73.88c-1.34-.13-2.44-1.84-2.44-3.81s1.1-3.46,2.44-3.33a2.38,2.38,0,0,1,1.73,1.21,4.86,4.86,0,0,1,.72,2.59A4.21,4.21,0,0,1,868.12,671.61Z"/>
    <polygon points="854.35 702.99 854.35 702.99 854.35 702.99 854.35 702.99" style="fill: #f7c600"/>
    <path d="M881.69,682.33c-3.15-.28-6.29-.57-9.44-.88-.58-1.6-3.18-8-5.87-8.33-3.18-.13-5.43,7.31-5.43,7.32q-6.83-.71-13.67-1.49l-7.66-.91s-.73,7.93,10.09,10.71c2.43,4.92,4.32,6.43,6.44,7.86-1.41,1.56-1.81,3.6-1.81,6.38q11.48,1.29,22.95,2.32s.36-4.31-2.4-7.2c12-1.4,8.9-17.14,19-17.3,2,.57-5.26,6.22-5.25,6.21s-6.07,5.8-3.31,9.19c2.19,2.69,3.16-1.3,3.46-4.35s9.76-4.38,8.41-13.25C894.9,671.26,881.69,682.35,881.69,682.33Z" style="fill: #f7c600"/>
    <path d="M895.65,675.77c-4.18-2.09-12.91,4.86-14.1,5.82-3-.26-6-.55-9-.84-.76-2-3.31-8-6.18-8.35-3-.13-5.17,5.63-5.72,7.28q-10.73-1.09-21.45-2.42l-.06.62a9.76,9.76,0,0,0,1.12,4.93c1.62,3.18,4.72,5.41,9.2,6.6,2.15,4.29,3.89,6,5.8,7.35a10.91,10.91,0,0,0-1.4,6.18v.72q11.94,1.35,23.88,2.41c0-.21,0-.42,0-.63a11.6,11.6,0,0,0-1.71-6.78c5.58-1.13,7.72-5.63,9.63-9.61s3.46-7.24,7.77-7.5a31.38,31.38,0,0,1-5.16,4.86c-.43.41-4.17,4.09-4.24,7.59a4.22,4.22,0,0,0,.91,2.75c.79,1,1.54,1.28,2.21.94,1.36-.69,1.87-3.86,2-5.69.06-.71,1.39-1.63,2.56-2.44,2.87-2,6.8-4.78,5.81-11.22A4,4,0,0,0,895.65,675.77Zm-4.31,12.48c-1.65,1.14-2.94,2-3.09,3.47-.24,2.51-.79,4.28-1.42,4.6q-.5.25-1.23-.66a2.23,2.23,0,0,1-.54-1.55c.05-2.35,2.77-5.47,3.78-6.45,6.07-4.73,5.89-6.16,5.83-6.62a1.1,1.1,0,0,0-.85-1c-5.12.1-7,4-9,8.1s-4.07,8.53-10,9.21l-1.3.15,1.1,1.16a8.84,8.84,0,0,1,2.19,5.85q-11-1-22-2.22c.07-2.47.54-3.94,1.61-5.14.22-.23.44-.47.65-.71l-.78-.53c-2.1-1.42-3.9-2.88-6.23-7.59l-.13-.27-.21-.05c-5.35-1.37-7.69-4-8.71-6a8.42,8.42,0,0,1-.93-3.23q10.57,1.29,21.16,2.37l.13-.42c0-.08,2.15-7,5-6.92,2.08.22,4.4,5.08,5.44,7.91l.14.38c3.29.33,6.58.63,9.87.92l.12-.1c.09-.07,9.44-7.82,13.41-5.83a2.61,2.61,0,0,1,1.31,1.61C897.47,684,894.07,686.34,891.34,688.25Z"/>
    <path d="M856,696.37q9.56,1,19.11,1.76" style="fill: #f7c600"/>
    <path d="M856,695.65c0,.48,0,1,0,1.44q9.56,1,19.11,1.77v-1.45Q865.54,696.63,856,695.65Z"/>
    <path d="M855.83,696l-8.59-17.1S848.77,692.19,855.83,696Z" style="fill: #f7c600"/>
    <path d="M847.73,678.88l-1,.13c.06.55,1.66,13.74,8.93,17.71.09-.45.19-.9.28-1.36C849.3,691.72,847.75,679,847.73,678.88Z"/>
    <path d="M847.13,657.12c1.88-4.08.94-8.31-2.59-12,.7,5.75-4.59,10.44-4.59,15.08s2.71,3.93,2.35,10.93c.24,4.15-.7,3-.94,6.93l4.71.56c.7-4.9,2-5.61,3.41-11.81C849.71,660.68,846.07,661,847.13,657.12Z" style="fill: url(#g)"/>
    <path d="M847.54,657.56a10.55,10.55,0,0,0,.92-6.07,12.74,12.74,0,0,0-3.66-6.93l-.95-1c.07.55.13,1.1.2,1.65.35,2.88-1,5.6-2.35,8.22-1.15,2.28-2.24,4.43-2.24,6.73a8.81,8.81,0,0,0,1.17,4.57c.67,1.3,1.36,2.65,1.18,6.42a7.44,7.44,0,0,1-.32,3.41,11.1,11.1,0,0,0-.62,3.39c0,.26,0,.52,0,.78,1.89.23,3.77.46,5.65.67l.08-.56a22.61,22.61,0,0,1,1.49-5.48,41.92,41.92,0,0,0,1.91-6.25,1.1,1.1,0,0,0,0-.18,9.83,9.83,0,0,0-1.72-6.45C847.55,659.39,847.2,658.84,847.54,657.56Zm-.38,15a24.77,24.77,0,0,0-1.49,5.28l-3.75-.44a8.25,8.25,0,0,1,.47-2.14,8.93,8.93,0,0,0,.41-4c.21-4.22-.64-5.88-1.39-7.34a6.72,6.72,0,0,1-1-3.64c0-1.85,1-3.83,2.07-5.93,1.16-2.3,2.46-4.86,2.57-7.71a10.45,10.45,0,0,1,2.4,5.05,9,9,0,0,1-.82,5.11,5,5,0,0,0,.88,4.63,7.77,7.77,0,0,1,1.44,5.21A40.81,40.81,0,0,1,847.16,672.58Z"/>
    <path d="M866.39,645.9c-1.49-.14-2.7,1.51-2.7,3.69s1.21,4.07,2.7,4.21,2.71-1.51,2.71-3.69S867.89,646.05,866.39,645.9Z" style="fill: #f7c600"/>
    <path d="M866.39,645.18a2.5,2.5,0,0,0-2.26,1.15,5.39,5.39,0,0,0-.93,3.21,6.33,6.33,0,0,0,.93,3.4,3.19,3.19,0,0,0,2.26,1.59c1.77.17,3.2-1.8,3.2-4.37S868.16,645.35,866.39,645.18Zm0,7.9a2.19,2.19,0,0,1-1.56-1.1,4.43,4.43,0,0,1-.64-2.34,3.83,3.83,0,0,1,.64-2.22,1.71,1.71,0,0,1,1.56-.79c1.22.11,2.21,1.65,2.21,3.43S867.61,653.2,866.39,653.08Z"/>
    <path d="M1008.31,368.26l1.64,1.48q7-15.67,14-31.5,7,14.19,14.05,28.2l1.64-1.87q-7.84-15.63-15.69-31.47Q1016.12,350.79,1008.31,368.26Z" style="fill: #f7c600"/>
    <path d="M1024,351.25c-1.62.19-2.94,2.27-2.94,4.64s1.32,4.14,2.94,3.95,2.94-2.29,2.94-4.66S1025.58,351.05,1024,351.25Z" style="fill: #f7c600"/>
    <path d="M1024,350.53a3.48,3.48,0,0,0-2.43,1.75,6.79,6.79,0,0,0-1,3.66,5.74,5.74,0,0,0,1,3.44,2.62,2.62,0,0,0,2.43,1.18c1.89-.23,3.44-2.67,3.43-5.44S1025.85,350.3,1024,350.53Zm0,8.58a1.86,1.86,0,0,1-1.73-.84,4.12,4.12,0,0,1-.71-2.44,5,5,0,0,1,.71-2.61A2.49,2.49,0,0,1,1024,352c1.35-.16,2.44,1.31,2.44,3.27S1025.31,359,1024,359.11Z"/>
    <path d="M1039.25,365.57c-3.14.43-6.29.84-9.43,1.22-.59-1.47-3.19-7.33-5.87-7-3.19.55-5.43,8.48-5.43,8.48q-6.84.75-13.67,1.35c-2.55.23-5.11.43-7.66.63,0,0-.73,8.1,10.08,8.68,2.44,4.42,4.33,5.53,6.44,6.52-1.41,1.86-1.81,4-1.8,6.76q11.48-1.1,22.94-2.63s.36-4.39-2.39-6.66c12-4.11,8.89-19.14,19-21.64,1.95.11-5.26,7.45-5.26,7.44s-6.07,7.19-3.3,9.95c2.19,2.18,3.15-2,3.45-5.15s9.76-6.67,8.41-15.22C1052.47,351.46,1039.25,365.61,1039.25,365.57Z" style="fill: #f7c600"/>
    <path d="M1053.21,355.77c-4.18-1.09-12.91,7.87-14.1,9.09q-4.5.63-9,1.17c-.77-1.81-3.32-7.31-6.18-7-3,.52-5.18,6.74-5.73,8.51q-10.73,1.17-21.45,2c0,.21,0,.42,0,.63a8.78,8.78,0,0,0,1.11,4.7c1.63,2.86,4.72,4.48,9.2,4.75,2.15,3.84,3.94,5.2,5.81,6.15a12.52,12.52,0,0,0-1.41,6.47c0,.24,0,.48,0,.72q11.93-1.12,23.87-2.73l.06-.65c0-.18.28-3.86-1.72-6.4,5.58-2.38,7.72-7.37,9.63-11.78s3.46-8,7.78-9.31a42.52,42.52,0,0,1-5.17,6.06c-.42.51-4.17,5.05-4.23,8.56a3.37,3.37,0,0,0,.91,2.55c.79.79,1.53.94,2.21.43,1.35-1,1.86-4.3,2-6.17.07-.71,1.4-1.94,2.57-3,2.87-2.67,6.8-6.38,5.8-12.59A2.88,2.88,0,0,0,1053.21,355.77Zm-4.3,13.49c-1.65,1.53-3,2.73-3.09,4.2-.25,2.56-.79,4.45-1.43,4.92-.33.25-.74.12-1.23-.37a1.86,1.86,0,0,1-.53-1.43c0-2.36,2.77-6.11,3.78-7.32,6.07-6.15,5.89-7.54,5.83-8a.82.82,0,0,0-.85-.76c-5.13,1.3-7,5.6-9,10.17s-4.08,9.47-10,11.48l-1.31.44,1.11.91c1.88,1.55,2.16,4.15,2.18,5.36q-11,1.47-22,2.52a8.77,8.77,0,0,1,1.62-5.47l.65-.85-.79-.36c-2.1-1-3.89-2.07-6.22-6.3,0-.08-.09-.16-.13-.24h-.22c-5.35-.28-7.68-2.47-8.7-4.24a6.91,6.91,0,0,1-.93-3q10.57-.81,21.16-2l.12-.45c0-.08,2.16-7.5,5-8,2.08-.23,4.4,4.12,5.45,6.72,0,.12.09.23.14.35,3.28-.4,6.57-.82,9.86-1.28l.12-.13c.1-.08,9.44-10,13.42-8.93a1.91,1.91,0,0,1,1.31,1.29C1055,363.52,1051.64,366.72,1048.91,369.26Z"/>
    <path d="M1013.56,385.21q9.56-1,19.11-2.36" style="fill: #f7c600"/>
    <path d="M1013.56,384.48v1.45q9.56-1,19.11-2.36v-1.44Q1023.11,383.47,1013.56,384.48Z"/>
    <path d="M1013.39,384.91q-4.29-7.64-8.58-15.33S1006.34,382.53,1013.39,384.91Z" style="fill: #f7c600"/>
    <path d="M1005.3,369.42l-1,.33c.07.53,1.67,13.41,8.93,15.87.1-.47.19-.94.29-1.41C1006.86,382,1005.31,369.53,1005.3,369.42Z"/>
    <path d="M1004.69,347.78c1.88-4.46.94-8.49-2.59-11.46.71,5.62-4.58,11.37-4.58,16s2.7,3.4,2.35,10.46c.23,4.11-.71,3.15-.94,7.12,1.57-.12,3.13-.25,4.7-.39.71-5,2-6,3.41-12.49C1007.28,350.82,1003.63,351.83,1004.69,347.78Z" style="fill: url(#h)"/>
    <path d="M1005.11,348.14a11.49,11.49,0,0,0,.91-6.26,10,10,0,0,0-3.65-6.19l-1-.8.21,1.61c.35,2.81-1,5.8-2.35,8.68-1.16,2.51-2.25,4.88-2.25,7.18a7.49,7.49,0,0,0,1.18,4.34c.67,1.17,1.36,2.38,1.18,6.18a7.92,7.92,0,0,1-.33,3.48,12.74,12.74,0,0,0-.61,3.51c0,.27,0,.53-.05.79q2.82-.21,5.65-.46l.08-.58a25.29,25.29,0,0,1,1.49-5.78,52.87,52.87,0,0,0,1.91-6.64l0-.19c.13-3.56-.94-5-1.73-6.09A2.66,2.66,0,0,1,1005.11,348.14Zm-.38,15.1a28.13,28.13,0,0,0-1.5,5.58l-3.75.31a10.52,10.52,0,0,1,.47-2.23,9.58,9.58,0,0,0,.41-4.1c.22-4.27-.64-5.75-1.39-7.06a5.9,5.9,0,0,1-1-3.46c0-1.84,1-4,2.07-6.33,1.17-2.54,2.47-5.37,2.58-8.24a8.22,8.22,0,0,1,2.39,4.57,9.7,9.7,0,0,1-.82,5.28,4.48,4.48,0,0,0,.88,4.44,6.64,6.64,0,0,1,1.44,4.93A49.06,49.06,0,0,1,1004.73,363.24Z"/>
    <path d="M1024,332.53c-1.49.18-2.71,2.08-2.7,4.27s1.21,3.81,2.7,3.63,2.7-2.1,2.7-4.28S1025.45,332.35,1024,332.53Z" style="fill: #f7c600"/>
    <path d="M1024,331.81c-1.76.21-3.2,2.47-3.2,5s1.44,4.51,3.2,4.3a3.25,3.25,0,0,0,2.26-1.64,6.45,6.45,0,0,0,.94-3.42h0a5.31,5.31,0,0,0-.94-3.19A2.41,2.41,0,0,0,1024,331.81Zm2.21,4.4a4.44,4.44,0,0,1-.65,2.36,2.28,2.28,0,0,1-1.56,1.14c-1.22.14-2.21-1.19-2.21-3s1-3.34,2.21-3.49a1.68,1.68,0,0,1,1.56.76,3.68,3.68,0,0,1,.65,2.2Z"/>
    <path d="M1006.9,430.56c.54.5,1.09,1,1.64,1.48q7-15.65,14-31.46,7,14.21,14,28.23l1.64-1.86q-7.85-15.65-15.69-31.51Q1014.71,413.11,1006.9,430.56Z" style="fill: #f7c600"/>
    <path d="M1022.55,413.59c-1.63.19-2.94,2.26-2.94,4.63s1.32,4.14,2.94,3.95,2.94-2.27,2.94-4.64S1024.17,413.4,1022.55,413.59Z" style="fill: #f7c600"/>
    <path d="M1022.55,412.86a3.48,3.48,0,0,0-2.43,1.75,6.88,6.88,0,0,0-1,3.66,5.81,5.81,0,0,0,1,3.44,2.65,2.65,0,0,0,2.43,1.19c1.89-.23,3.43-2.67,3.43-5.43S1024.44,412.64,1022.55,412.86Zm0,8.59a1.85,1.85,0,0,1-1.73-.85,4.1,4.1,0,0,1-.72-2.44,4.9,4.9,0,0,1,.72-2.6,2.49,2.49,0,0,1,1.73-1.25c1.35-.16,2.44,1.31,2.44,3.28S1023.89,421.29,1022.55,421.45Z"/>
    <polygon points="1010.5 454.48 1010.5 454.48 1010.5 454.48 1010.5 454.48" style="fill: #f7c600"/>
    <path d="M1037.84,427.94c-3.14.43-6.29.83-9.43,1.2-.59-1.47-3.19-7.34-5.87-7.05-3.19.54-5.43,8.46-5.43,8.46q-6.84.74-13.67,1.32-3.84.33-7.66.61s-.73,8.1,10.08,8.71c2.44,4.43,4.32,5.54,6.44,6.53-1.41,1.86-1.81,4-1.8,6.76q11.47-1.07,22.94-2.57s.36-4.4-2.39-6.67c12-4.08,8.89-19.12,19-21.6,2,.13-5.26,7.44-5.26,7.43s-6.07,7.18-3.31,9.94c2.2,2.19,3.16-2,3.46-5.14s9.76-6.64,8.41-15.2C1051.06,413.87,1037.84,428,1037.84,427.94Z" style="fill: #f7c600"/>
    <path d="M1051.8,418.18c-4.18-1.1-12.91,7.83-14.1,9.06-3,.4-6,.79-9,1.15-.77-1.82-3.32-7.33-6.18-7-3,.52-5.18,6.73-5.73,8.49q-10.72,1.15-21.45,1.93c0,.21,0,.42-.05.63a8.8,8.8,0,0,0,1.11,4.71c1.63,2.86,4.72,4.49,9.2,4.77,2.16,3.86,3.89,5.19,5.8,6.17a12.55,12.55,0,0,0-1.4,6.46v.72q11.94-1.1,23.88-2.68l.06-.64c0-.18.28-3.86-1.72-6.4,5.58-2.37,7.72-7.36,9.63-11.77s3.46-8,7.78-9.28a43.15,43.15,0,0,1-5.17,6c-.42.51-4.17,5-4.23,8.55a3.37,3.37,0,0,0,.91,2.55c.79.79,1.53.94,2.21.44,1.36-1,1.86-4.29,2-6.16.07-.72,1.4-1.95,2.56-3,2.88-2.66,6.81-6.36,5.81-12.58A2.92,2.92,0,0,0,1051.8,418.18Zm-4.31,13.48c-1.64,1.53-2.94,2.72-3.08,4.19-.25,2.57-.8,4.45-1.43,4.92-.33.24-.74.11-1.23-.37a1.87,1.87,0,0,1-.53-1.43c0-2.37,2.77-6.11,3.78-7.31,6.07-6.14,5.88-7.53,5.83-8a.84.84,0,0,0-.85-.77c-5.13,1.3-7,5.59-9,10.16s-4.08,9.45-10,11.45l-1.31.43,1.1.92c1.89,1.55,2.17,4.16,2.19,5.37q-11,1.44-22,2.46a8.66,8.66,0,0,1,1.62-5.46c.21-.29.43-.57.64-.85l-.78-.37c-2.1-1-3.89-2.08-6.22-6.31l-.14-.24h-.21c-5.35-.29-7.69-2.49-8.71-4.26a7.23,7.23,0,0,1-.93-3q10.59-.78,21.17-1.93l.12-.45c0-.08,2.16-7.5,5-8,2.09-.22,4.4,4.14,5.44,6.74l.15.35q4.92-.58,9.86-1.25l.12-.13c.1-.08,9.45-9.95,13.42-8.9a1.91,1.91,0,0,1,1.31,1.29C1053.62,425.94,1050.23,429.13,1047.49,431.66Z"/>
    <path d="M1012.15,447.52q9.55-1,19.11-2.31" style="fill: #f7c600"/>
    <path d="M1012.15,446.8v1.44q9.55-1,19.11-2.31v-1.44Q1021.71,445.8,1012.15,446.8Z"/>
    <path d="M1012,447.23q-4.29-7.65-8.58-15.35S1004.93,444.82,1012,447.23Z" style="fill: #f7c600"/>
    <path d="M1003.89,431.71l-1,.33c.06.54,1.66,13.42,8.93,15.89.1-.47.19-.94.29-1.41C1005.45,444.25,1003.9,431.83,1003.89,431.71Z"/>
    <path d="M1003.28,410.07c1.88-4.45.94-8.49-2.59-11.46.71,5.62-4.58,11.35-4.58,16s2.7,3.41,2.35,10.48c.23,4.1-.71,3.14-.94,7.11l4.7-.38c.71-5,2-6,3.41-12.48C1005.87,413.11,1002.22,414.12,1003.28,410.07Z" style="fill: url(#i)"/>
    <path d="M1003.7,410.43a11.46,11.46,0,0,0,.91-6.25A10,10,0,0,0,1001,398l-1-.81.21,1.61c.35,2.81-1,5.8-2.35,8.68-1.16,2.51-2.25,4.87-2.25,7.17a7.55,7.55,0,0,0,1.18,4.35c.67,1.17,1.36,2.38,1.17,6.18a7.81,7.81,0,0,1-.32,3.48,13,13,0,0,0-.62,3.51c0,.27,0,.53,0,.79l5.64-.45.09-.58a26.41,26.41,0,0,1,1.48-5.78,49,49,0,0,0,1.91-6.63l0-.19c.13-3.56-.94-5-1.73-6.1A2.66,2.66,0,0,1,1003.7,410.43Zm-.38,15.1a28.13,28.13,0,0,0-1.5,5.58l-3.75.3a9.92,9.92,0,0,1,.47-2.23,9.56,9.56,0,0,0,.41-4.1c.22-4.26-.64-5.75-1.39-7.07a5.86,5.86,0,0,1-1-3.45c0-1.84,1-4,2.07-6.33,1.17-2.53,2.46-5.36,2.57-8.23a8.2,8.2,0,0,1,2.4,4.58,9.67,9.67,0,0,1-.82,5.27,4.49,4.49,0,0,0,.88,4.45,6.64,6.64,0,0,1,1.44,4.93A48.82,48.82,0,0,1,1003.32,425.53Z"/>
    <path d="M1022.55,394.87c-1.5.17-2.71,2.08-2.71,4.26s1.21,3.81,2.71,3.64,2.7-2.1,2.7-4.28S1024,394.69,1022.55,394.87Z" style="fill: #f7c600"/>
    <path d="M1022.55,394.14c-1.77.21-3.2,2.47-3.2,5s1.43,4.52,3.2,4.31a3.22,3.22,0,0,0,2.26-1.64,6.43,6.43,0,0,0,.94-3.42h0a5.31,5.31,0,0,0-.94-3.19A2.44,2.44,0,0,0,1022.55,394.14Zm2.21,4.41a4.44,4.44,0,0,1-.65,2.36,2.24,2.24,0,0,1-1.56,1.13c-1.22.15-2.21-1.19-2.21-3s1-3.34,2.21-3.48a1.68,1.68,0,0,1,1.56.76,3.68,3.68,0,0,1,.65,2.2Z"/>
    <path d="M1005,494.28l1.63,1.48q7-15.63,14-31.42,7,14.22,14.05,28.28l1.63-1.86q-7.85-15.67-15.69-31.56Q1012.83,476.84,1005,494.28Z" style="fill: #f7c600"/>
    <path d="M1020.67,477.35c-1.63.19-2.94,2.25-2.94,4.62s1.31,4.15,2.94,4,2.94-2.27,2.94-4.64S1022.29,477.17,1020.67,477.35Z" style="fill: #f7c600"/>
    <path d="M1020.67,476.63a3.44,3.44,0,0,0-2.43,1.74,6.87,6.87,0,0,0-1,3.65,5.79,5.79,0,0,0,1,3.44,2.61,2.61,0,0,0,2.43,1.2c1.89-.22,3.43-2.65,3.43-5.42S1022.56,476.41,1020.67,476.63Zm0,8.58a1.84,1.84,0,0,1-1.73-.85,4.12,4.12,0,0,1-.72-2.44,4.93,4.93,0,0,1,.72-2.61,2.48,2.48,0,0,1,1.73-1.24c1.34-.15,2.44,1.32,2.44,3.29S1022,485.06,1020.67,485.21Z"/>
    <path d="M1036,491.75q-4.73.63-9.43,1.18c-.59-1.48-3.19-7.35-5.88-7.08-3.18.54-5.42,8.45-5.42,8.45q-6.84.72-13.67,1.28-3.84.32-7.66.58s-.74,8.1,10.08,8.74c2.43,4.43,4.32,5.56,6.44,6.56-1.41,1.85-1.81,4-1.8,6.75q11.48-1,22.94-2.51s.36-4.39-2.4-6.67c12-4,8.9-19.09,19-21.53,2,.13-5.25,7.42-5.25,7.41s-6.07,7.16-3.31,9.93c2.2,2.2,3.16-2,3.46-5.13s9.76-6.61,8.41-15.17C1049.18,477.73,1036,491.8,1036,491.75Z" style="fill: #f7c600"/>
    <path d="M1049.92,482.05c-4.19-1.13-12.91,7.78-14.1,9q-4.5.6-9,1.12c-.76-1.82-3.31-7.33-6.17-7-3,.51-5.18,6.71-5.73,8.48q-10.73,1.11-21.45,1.86l-.06.63a9,9,0,0,0,1.12,4.71c1.63,2.87,4.72,4.51,9.2,4.8,2.16,3.86,3.89,5.2,5.8,6.19a12.41,12.41,0,0,0-1.4,6.46V519q11.94-1.07,23.88-2.61c0-.21,0-.43,0-.64a10.14,10.14,0,0,0-1.71-6.41c5.58-2.35,7.72-7.32,9.63-11.73s3.46-8,7.78-9.26a44,44,0,0,1-5.17,6c-.43.51-4.17,5-4.23,8.54a3.4,3.4,0,0,0,.91,2.55c.78.79,1.52.94,2.21.44,1.35-1,1.86-4.28,2-6.15.07-.72,1.39-1.94,2.56-3,2.87-2.66,6.81-6.34,5.81-12.56A2.92,2.92,0,0,0,1049.92,482.05Zm-4.31,13.46c-1.64,1.52-2.94,2.71-3.08,4.17-.25,2.57-.8,4.46-1.43,4.92-.33.24-.74.11-1.23-.38a1.86,1.86,0,0,1-.53-1.43c0-2.36,2.77-6.09,3.78-7.29,6.07-6.12,5.88-7.51,5.82-7.95a.82.82,0,0,0-.84-.77c-5.13,1.27-7,5.56-8.95,10.12s-4.08,9.44-10.05,11.42l-1.31.43,1.1.92c1.88,1.56,2.17,4.17,2.19,5.37q-11,1.41-22,2.4a8.66,8.66,0,0,1,1.62-5.46l.64-.85-.78-.37c-2.1-1-3.89-2.09-6.23-6.33,0-.08-.08-.16-.13-.24H1004c-5.35-.3-7.69-2.51-8.71-4.28a7.3,7.3,0,0,1-.93-3q10.59-.75,21.16-1.86l.13-.46c0-.07,2.16-7.48,5-7.95,2.08-.22,4.4,4.14,5.44,6.75l.14.35c3.29-.38,6.58-.78,9.87-1.22l.12-.13c.09-.08,9.44-9.91,13.41-8.85a1.92,1.92,0,0,1,1.32,1.3C1051.74,489.81,1048.34,493,1045.61,495.51Z"/>
    <path d="M1010.27,511.25q9.56-1,19.11-2.25" style="fill: #f7c600"/>
    <path d="M1010.27,510.53V512q9.56-1,19.11-2.25v-1.44Q1019.83,509.56,1010.27,510.53Z"/>
    <path d="M1010.1,511q-4.29-7.66-8.58-15.38S1003.05,508.53,1010.1,511Z" style="fill: #f7c600"/>
    <path d="M1002,495.42l-1,.32c.06.54,1.66,13.42,8.93,15.92.09-.47.19-.94.28-1.41C1003.57,508,1002,495.53,1002,495.42Z"/>
    <path d="M1001.4,473.78c1.88-4.45.94-8.49-2.59-11.47.71,5.61-4.59,11.34-4.59,16s2.71,3.41,2.36,10.47c.23,4.11-.71,3.15-.94,7.11l4.7-.36c.71-5,2-6,3.41-12.47C1004,476.83,1000.34,477.82,1001.4,473.78Z" style="fill: url(#j)"/>
    <path d="M1001.82,474.13a11.41,11.41,0,0,0,.91-6.24,10.05,10.05,0,0,0-3.65-6.21l-1-.81c.07.53.14,1.07.2,1.6.36,2.82-1,5.8-2.34,8.68-1.16,2.5-2.25,4.86-2.25,7.16a7.55,7.55,0,0,0,1.18,4.35c.67,1.17,1.36,2.38,1.17,6.19a7.73,7.73,0,0,1-.32,3.47,13.21,13.21,0,0,0-.62,3.52c0,.26,0,.52,0,.79l5.64-.43.09-.59a25.76,25.76,0,0,1,1.48-5.77,49,49,0,0,0,1.91-6.63l0-.19c.14-3.56-.94-5-1.72-6.1A2.68,2.68,0,0,1,1001.82,474.13Zm-.38,15.1a28.13,28.13,0,0,0-1.5,5.58l-3.75.29a9.27,9.27,0,0,1,.47-2.23,9.56,9.56,0,0,0,.41-4.1c.21-4.26-.64-5.75-1.39-7.07a5.9,5.9,0,0,1-1-3.46c0-1.84,1-4,2.07-6.32,1.17-2.53,2.46-5.35,2.57-8.22a8.26,8.26,0,0,1,2.4,4.58,9.67,9.67,0,0,1-.82,5.27,4.49,4.49,0,0,0,.88,4.45,6.67,6.67,0,0,1,1.44,4.94A48.57,48.57,0,0,1,1001.44,489.23Z"/>
    <path d="M1020.67,458.63c-1.5.17-2.71,2.07-2.71,4.25s1.21,3.82,2.71,3.65,2.7-2.08,2.7-4.27S1022.16,458.46,1020.67,458.63Z" style="fill: #f7c600"/>
    <path d="M1020.67,457.91c-1.77.2-3.2,2.45-3.2,5s1.43,4.51,3.2,4.31a3.18,3.18,0,0,0,2.26-1.63,6.48,6.48,0,0,0,.94-3.41h0a5.41,5.41,0,0,0-.94-3.2A2.44,2.44,0,0,0,1020.67,457.91Zm2.21,4.41a4.51,4.51,0,0,1-.65,2.36,2.24,2.24,0,0,1-1.56,1.13c-1.22.14-2.21-1.2-2.21-3s1-3.34,2.21-3.48a1.71,1.71,0,0,1,1.56.77,3.68,3.68,0,0,1,.65,2.2Z"/>
    <path d="M1007.13,556.6l1.64,1.48q7-15.66,14-31.47,7,14.21,14,28.23c.55-.62,1.1-1.24,1.64-1.87q-7.85-15.65-15.69-31.5Q1014.94,539.14,1007.13,556.6Z" style="fill: #f7c600"/>
    <path d="M1022.78,539.62c-1.62.19-2.94,2.26-2.94,4.63s1.32,4.15,2.94,4,2.94-2.28,2.94-4.65S1024.41,539.43,1022.78,539.62Z" style="fill: #f7c600"/>
    <path d="M1022.78,538.9a3.48,3.48,0,0,0-2.43,1.75,6.87,6.87,0,0,0-1,3.66c0,2.76,1.54,4.84,3.43,4.62s3.44-2.67,3.44-5.43S1024.68,538.67,1022.78,538.9Zm0,8.58c-1.34.16-2.44-1.32-2.44-3.29a4.83,4.83,0,0,1,.72-2.6,2.47,2.47,0,0,1,1.72-1.25c1.35-.16,2.45,1.31,2.45,3.28S1024.13,547.32,1022.78,547.48Z"/>
    <polygon points="1010.73 580.52 1010.73 580.52 1010.73 580.52 1010.73 580.52" style="fill: #f7c600"/>
    <path d="M1038.07,554q-4.71.64-9.43,1.2c-.59-1.47-3.18-7.33-5.87-7-3.18.55-5.43,8.46-5.43,8.47q-6.83.74-13.67,1.32c-2.55.22-5.1.43-7.66.61,0,0-.73,8.1,10.09,8.71,2.43,4.42,4.32,5.54,6.44,6.53-1.42,1.86-1.81,4-1.81,6.76q11.47-1.07,23-2.59s.36-4.39-2.4-6.67c12-4.08,8.9-19.12,19-21.6,2,.13-5.26,7.45-5.26,7.43s-6.06,7.18-3.3,9.95c2.19,2.19,3.15-2,3.45-5.14s9.77-6.65,8.42-15.21C1051.29,539.89,1038.07,554,1038.07,554Z" style="fill: #f7c600"/>
    <path d="M1052,544.2c-4.18-1.1-12.91,7.84-14.1,9.06-3,.41-6,.79-9,1.16-.76-1.82-3.32-7.32-6.18-7-3,.52-5.17,6.73-5.73,8.5q-10.71,1.15-21.44,1.93l-.06.63a8.76,8.76,0,0,0,1.12,4.71c1.62,2.86,4.71,4.49,9.2,4.77,2.15,3.84,3.94,5.21,5.8,6.16a12.37,12.37,0,0,0-1.4,6.47v.72q11.94-1.11,23.88-2.69c0-.22,0-.43.05-.65s.29-3.85-1.71-6.4c5.57-2.36,7.72-7.35,9.62-11.76s3.47-8,7.78-9.29a43.6,43.6,0,0,1-5.16,6c-.43.51-4.17,5-4.24,8.55a3.43,3.43,0,0,0,.91,2.55c.79.79,1.53.93,2.21.43,1.36-1,1.86-4.29,2-6.16.07-.72,1.4-1.94,2.57-3,2.87-2.66,6.8-6.36,5.81-12.58A2.92,2.92,0,0,0,1052,544.2Zm-4.31,13.48c-1.65,1.53-3,2.73-3.09,4.19-.24,2.57-.79,4.46-1.43,4.92-.32.25-.73.12-1.22-.37a1.83,1.83,0,0,1-.54-1.43c0-2.37,2.77-6.1,3.78-7.31,6.07-6.14,5.89-7.53,5.83-8a.82.82,0,0,0-.85-.76c-5.12,1.29-7,5.59-9,10.15s-4.07,9.46-10,11.46l-1.3.43,1.1.92c1.88,1.55,2.16,4.16,2.19,5.36q-11,1.46-22,2.48a8.77,8.77,0,0,1,1.61-5.47l.65-.85-.78-.36c-2.1-1-3.9-2.08-6.23-6.32l-.13-.23-.21,0c-5.35-.28-7.69-2.48-8.71-4.25a7.23,7.23,0,0,1-.93-3q10.57-.78,21.16-1.94c0-.15.09-.3.13-.45s2.16-7.49,5-8c2.08-.23,4.4,4.13,5.44,6.73l.14.35q4.94-.58,9.87-1.26l.12-.13c.09-.08,9.43-9.94,13.41-8.9a1.87,1.87,0,0,1,1.31,1.29C1053.86,552,1050.46,555.15,1047.73,557.68Z"/>
    <path d="M1012.39,573.56q9.55-1,19.11-2.32" style="fill: #f7c600"/>
    <path d="M1012.38,572.83c0,.48,0,1,0,1.45q9.55-1,19.11-2.32v-1.45Q1021.93,571.83,1012.38,572.83Z"/>
    <path d="M1012.22,573.26q-4.29-7.63-8.59-15.34S1005.16,570.86,1012.22,573.26Z" style="fill: #f7c600"/>
    <path d="M1004.12,557.75l-1,.33c.07.53,1.67,13.42,8.94,15.89l.28-1.42C1005.69,570.29,1004.14,557.87,1004.12,557.75Z"/>
    <path d="M1003.52,536.11c1.88-4.45.94-8.49-2.59-11.46.7,5.62-4.59,11.36-4.59,16s2.71,3.4,2.35,10.47c.24,4.1-.7,3.14-.94,7.11,1.57-.12,3.14-.24,4.71-.38h0c.7-5,2-6,3.41-12.49C1006.1,539.15,1002.46,540.16,1003.52,536.11Z" style="fill: url(#k)"/>
    <path d="M1003.93,536.47a11.56,11.56,0,0,0,.92-6.25,10,10,0,0,0-3.66-6.2l-1-.81c.07.54.13,1.08.2,1.61.35,2.82-1,5.8-2.35,8.68-1.15,2.51-2.24,4.88-2.24,7.17A7.56,7.56,0,0,0,997,545c.67,1.17,1.36,2.38,1.18,6.19a7.94,7.94,0,0,1-.32,3.47,12.27,12.27,0,0,0-.62,3.52l0,.78c1.88-.14,3.77-.29,5.65-.45,0-.19,0-.39.08-.58a26.37,26.37,0,0,1,1.49-5.78,50.48,50.48,0,0,0,1.91-6.63l0-.19c.14-3.56-.94-5-1.72-6.1A2.68,2.68,0,0,1,1003.93,536.47Zm-.38,15.1a28.88,28.88,0,0,0-1.49,5.58l-3.75.3a10,10,0,0,1,.46-2.23,9.35,9.35,0,0,0,.42-4.1c.21-4.26-.64-5.75-1.39-7.06a5.83,5.83,0,0,1-1-3.46c0-1.84,1-4,2.07-6.33,1.16-2.53,2.46-5.36,2.57-8.23a8.29,8.29,0,0,1,2.4,4.58,9.68,9.68,0,0,1-.83,5.27,4.51,4.51,0,0,0,.89,4.45,6.61,6.61,0,0,1,1.44,4.93A48.52,48.52,0,0,1,1003.55,551.57Z"/>
    <path d="M1022.78,520.9c-1.49.17-2.7,2.08-2.7,4.26s1.21,3.81,2.7,3.64,2.71-2.1,2.71-4.28S1024.28,520.72,1022.78,520.9Z" style="fill: #f7c600"/>
    <path d="M1022.78,520.18a3.23,3.23,0,0,0-2.26,1.63,6.46,6.46,0,0,0-.94,3.41,5.4,5.4,0,0,0,.94,3.19,2.44,2.44,0,0,0,2.26,1.11c1.77-.21,3.2-2.48,3.2-5.06S1024.55,520,1022.78,520.18Zm0,7.89a1.68,1.68,0,0,1-1.56-.76,3.68,3.68,0,0,1-.64-2.21,4.49,4.49,0,0,1,.64-2.35,2.24,2.24,0,0,1,1.56-1.13c1.22-.14,2.21,1.19,2.21,3S1024,527.93,1022.78,528.07Z"/>
    <path d="M1006.66,619.16l1.64,1.48q7-15.66,14-31.46,7,14.21,14,28.24c.55-.62,1.1-1.24,1.64-1.87q-7.85-15.64-15.69-31.51Q1014.47,601.71,1006.66,619.16Z" style="fill: #f7c600"/>
    <path d="M1022.31,602.19c-1.62.19-2.94,2.26-2.94,4.63s1.32,4.15,2.94,3.95,2.94-2.27,2.94-4.64S1023.94,602,1022.31,602.19Z" style="fill: #f7c600"/>
    <path d="M1022.31,601.46c-1.89.23-3.43,2.65-3.43,5.41s1.54,4.85,3.43,4.63a3.47,3.47,0,0,0,2.43-1.76,6.94,6.94,0,0,0,1-3.67,5.76,5.76,0,0,0-1-3.43A2.64,2.64,0,0,0,1022.31,601.46Zm1.73,7.34a2.44,2.44,0,0,1-1.73,1.25c-1.34.16-2.44-1.32-2.44-3.29s1.1-3.69,2.44-3.85a1.85,1.85,0,0,1,1.73.84,4.12,4.12,0,0,1,.72,2.44A5,5,0,0,1,1024,608.8Z"/>
    <path d="M1037.6,616.55q-4.71.63-9.43,1.2c-.59-1.47-3.19-7.34-5.87-7.06-3.18.54-5.43,8.46-5.43,8.46q-6.82.74-13.67,1.32-3.83.33-7.66.6s-.73,8.1,10.09,8.71c2.43,4.43,4.32,5.55,6.44,6.54-1.42,1.86-1.81,4-1.81,6.76q11.47-1.07,23-2.57s.36-4.39-2.4-6.67c12-4.07,8.9-19.11,19-21.58,2,.12-5.26,7.43-5.26,7.42s-6.06,7.18-3.3,9.94c2.19,2.19,3.15-2,3.45-5.14s9.77-6.63,8.42-15.19C1050.82,602.49,1037.6,616.59,1037.6,616.55Z" style="fill: #f7c600"/>
    <path d="M1051.57,606.8c-4.19-1.1-12.91,7.82-14.11,9q-4.5.61-9,1.15c-.76-1.82-3.31-7.32-6.18-7-3,.52-5.17,6.72-5.73,8.49q-10.71,1.15-21.44,1.92l-.06.63a8.76,8.76,0,0,0,1.12,4.71c1.62,2.86,4.72,4.49,9.19,4.78,2.16,3.84,3.95,5.21,5.81,6.16a12.37,12.37,0,0,0-1.4,6.47v.72q11.94-1.1,23.88-2.67c0-.22,0-.43,0-.65s.29-3.85-1.71-6.4c5.57-2.36,7.72-7.35,9.62-11.76s3.47-8,7.78-9.28a43.06,43.06,0,0,1-5.16,6c-.43.52-4.17,5-4.24,8.55a3.41,3.41,0,0,0,.91,2.55c.79.79,1.53.94,2.21.44,1.36-1,1.86-4.29,2-6.16.07-.72,1.4-1.94,2.57-3,2.87-2.66,6.8-6.36,5.81-12.57A2.92,2.92,0,0,0,1051.57,606.8Zm-4.31,13.47c-1.65,1.53-3,2.73-3.09,4.19-.24,2.57-.79,4.45-1.43,4.92-.32.24-.73.12-1.22-.38a1.81,1.81,0,0,1-.54-1.43c0-2.36,2.77-6.1,3.78-7.3,6.07-6.13,5.89-7.53,5.83-8a.82.82,0,0,0-.85-.76c-5.12,1.29-7,5.58-9,10.14s-4.07,9.46-10,11.45l-1.31.44,1.11.91c1.88,1.56,2.16,4.16,2.19,5.37q-11,1.44-22,2.46a8.77,8.77,0,0,1,1.61-5.47l.65-.85-.78-.36c-2.1-1-3.9-2.08-6.23-6.32l-.13-.24h-.22c-5.34-.29-7.68-2.49-8.7-4.26a7.23,7.23,0,0,1-.93-3q10.58-.78,21.16-1.92l.13-.45c0-.08,2.15-7.49,5-8,2.08-.22,4.4,4.14,5.44,6.74l.14.36q4.93-.59,9.86-1.26l.13-.13c.09-.08,9.44-10,13.41-8.89a1.88,1.88,0,0,1,1.31,1.3C1053.39,614.55,1050,617.74,1047.26,620.27Z"/>
    <path d="M1011.92,636.12q9.55-1,19.11-2.31" style="fill: #f7c600"/>
    <path d="M1011.91,635.39c0,.49,0,1,0,1.45q9.55-1,19.11-2.3c0-.49,0-1,0-1.45Q1021.47,634.4,1011.91,635.39Z"/>
    <path d="M1011.75,635.82q-4.29-7.64-8.59-15.35S1004.69,633.42,1011.75,635.82Z" style="fill: #f7c600"/>
    <path d="M1003.65,620.3l-1,.33c.07.54,1.67,13.42,8.94,15.9.09-.47.19-.94.28-1.41C1005.22,632.84,1003.67,620.42,1003.65,620.3Z"/>
    <path d="M1003,598.67c1.89-4.46,1-8.49-2.58-11.47.7,5.62-4.59,11.36-4.59,16s2.71,3.4,2.35,10.47c.24,4.1-.7,3.14-.94,7.11l4.71-.37c.7-5,2-6,3.41-12.49C1005.63,601.71,1002,602.71,1003,598.67Z" style="fill: url(#l)"/>
    <path d="M1003.46,599a11.43,11.43,0,0,0,.92-6.24,10,10,0,0,0-3.66-6.21l-1-.8c.06.53.13,1.07.2,1.6.35,2.82-1,5.8-2.35,8.69-1.15,2.5-2.25,4.87-2.24,7.16a7.56,7.56,0,0,0,1.17,4.35c.67,1.17,1.36,2.38,1.18,6.18a7.94,7.94,0,0,1-.32,3.48,12.34,12.34,0,0,0-.62,3.52c0,.26,0,.52,0,.78,1.88-.14,3.77-.28,5.65-.44,0-.2.05-.39.08-.59a26.27,26.27,0,0,1,1.49-5.77,51.2,51.2,0,0,0,1.91-6.64l0-.18c.14-3.56-.94-5-1.72-6.1A2.71,2.71,0,0,1,1003.46,599Zm-.38,15.11a28.68,28.68,0,0,0-1.49,5.58l-3.75.3a9.77,9.77,0,0,1,.46-2.23,9.43,9.43,0,0,0,.42-4.11c.21-4.26-.64-5.75-1.39-7.06a5.83,5.83,0,0,1-1-3.46c0-1.84,1-4,2.06-6.33,1.17-2.53,2.47-5.36,2.58-8.23a8.36,8.36,0,0,1,2.4,4.58,9.68,9.68,0,0,1-.83,5.27,4.5,4.5,0,0,0,.89,4.45,6.64,6.64,0,0,1,1.44,4.93A49.26,49.26,0,0,1,1003.08,614.13Z"/>
    <path d="M1022.31,583.47c-1.49.17-2.7,2.08-2.7,4.26s1.21,3.81,2.7,3.64,2.71-2.09,2.71-4.28S1023.81,583.29,1022.31,583.47Z" style="fill: #f7c600"/>
    <path d="M1022.31,582.74a3.24,3.24,0,0,0-2.26,1.63,6.48,6.48,0,0,0-.94,3.41,5.41,5.41,0,0,0,.94,3.2,2.43,2.43,0,0,0,2.26,1.11c1.77-.21,3.2-2.48,3.2-5.06S1024.08,582.54,1022.31,582.74Zm0,7.9a1.68,1.68,0,0,1-1.56-.76,3.71,3.71,0,0,1-.65-2.21,4.38,4.38,0,0,1,.65-2.35,2.24,2.24,0,0,1,1.56-1.13c1.22-.14,2.21,1.19,2.21,3S1023.53,590.5,1022.31,590.64Z"/>
    <path d="M1006.9,682c.54.5,1.09,1,1.64,1.48q7-15.65,14-31.46,7,14.21,14,28.24c.54-.63,1.09-1.25,1.64-1.87q-7.85-15.64-15.69-31.51Q1014.71,664.54,1006.9,682Z" style="fill: #f7c600"/>
    <path d="M1022.55,665c-1.63.19-2.94,2.26-2.94,4.63s1.32,4.15,2.94,4,2.94-2.27,2.94-4.64S1024.17,664.83,1022.55,665Z" style="fill: #f7c600"/>
    <path d="M1022.55,664.29a3.48,3.48,0,0,0-2.43,1.75,6.92,6.92,0,0,0-1,3.67,5.78,5.78,0,0,0,1,3.43,2.62,2.62,0,0,0,2.43,1.19c1.89-.22,3.43-2.67,3.43-5.43S1024.44,664.07,1022.55,664.29Zm0,8.59a1.86,1.86,0,0,1-1.73-.84,4.16,4.16,0,0,1-.72-2.45,4.9,4.9,0,0,1,.72-2.6,2.49,2.49,0,0,1,1.73-1.25c1.35-.16,2.44,1.31,2.44,3.28S1023.89,672.72,1022.55,672.88Z"/>
    <polygon points="1010.5 705.91 1010.5 705.91 1010.5 705.91 1010.5 705.91" style="fill: #f7c600"/>
    <path d="M1037.84,679.37c-3.14.43-6.29.83-9.43,1.21-.59-1.47-3.19-7.34-5.87-7.06-3.19.54-5.43,8.46-5.43,8.46q-6.84.75-13.67,1.33c-2.56.21-5.11.42-7.66.6,0,0-.73,8.1,10.08,8.71,2.44,4.43,4.32,5.54,6.44,6.54-1.41,1.85-1.81,4-1.8,6.75q11.47-1.06,22.94-2.57s.36-4.4-2.39-6.67c12-4.08,8.89-19.12,19-21.6,2,.13-5.26,7.45-5.26,7.43s-6.07,7.18-3.31,9.94c2.2,2.2,3.16-2,3.46-5.14s9.76-6.64,8.41-15.2C1051.06,665.3,1037.84,679.42,1037.84,679.37Z" style="fill: #f7c600"/>
    <path d="M1051.8,669.62c-4.18-1.11-12.91,7.83-14.1,9-3,.4-6,.79-9,1.15-.77-1.82-3.32-7.33-6.18-7-3,.52-5.18,6.73-5.73,8.49q-10.72,1.15-21.45,1.93c0,.21,0,.42-.05.63a8.8,8.8,0,0,0,1.11,4.71c1.63,2.86,4.72,4.49,9.2,4.77,2.16,3.86,3.89,5.19,5.8,6.17A12.55,12.55,0,0,0,1010,706v.72q11.94-1.09,23.88-2.68l.06-.64c0-.18.28-3.86-1.72-6.4,5.58-2.37,7.72-7.35,9.63-11.77s3.46-8,7.78-9.28a43.11,43.11,0,0,1-5.17,6.05c-.42.51-4.17,5-4.23,8.55a3.4,3.4,0,0,0,.91,2.55c.79.79,1.53.93,2.21.43,1.36-1,1.86-4.29,2-6.16.07-.72,1.4-1.94,2.56-3,2.88-2.66,6.81-6.36,5.81-12.58A2.87,2.87,0,0,0,1051.8,669.62Zm-4.31,13.47c-1.64,1.53-2.94,2.73-3.08,4.19-.25,2.57-.8,4.45-1.43,4.92-.33.24-.74.12-1.23-.37a1.87,1.87,0,0,1-.53-1.43c0-2.37,2.77-6.1,3.78-7.31,6.07-6.14,5.88-7.53,5.83-8a.82.82,0,0,0-.85-.76c-5.13,1.29-7,5.58-9,10.15S1037,694,1031,696l-1.31.43,1.1.92c1.89,1.55,2.17,4.16,2.19,5.37q-11,1.44-22,2.46a8.7,8.7,0,0,1,1.62-5.46l.64-.85-.78-.37c-2.1-1-3.89-2.08-6.22-6.31l-.14-.24h-.21c-5.35-.29-7.69-2.49-8.71-4.26a7.23,7.23,0,0,1-.93-3q10.59-.78,21.17-1.93l.12-.45c0-.08,2.16-7.49,5-8,2.09-.22,4.4,4.14,5.44,6.74l.15.35q4.92-.58,9.86-1.25l.12-.13c.09-.08,9.44-10,13.42-8.9a1.93,1.93,0,0,1,1.31,1.29C1053.62,677.37,1050.23,680.56,1047.49,683.09Z"/>
    <path d="M1012.15,699q9.55-1,19.11-2.31" style="fill: #f7c600"/>
    <path d="M1012.15,698.23v1.44q9.55-1,19.11-2.31v-1.44Q1021.71,697.22,1012.15,698.23Z"/>
    <path d="M1012,698.66q-4.29-7.65-8.58-15.35S1004.93,696.26,1012,698.66Z" style="fill: #f7c600"/>
    <path d="M1003.89,683.14l-1,.33c.06.54,1.66,13.42,8.93,15.9.1-.48.19-1,.29-1.42C1005.45,695.68,1003.9,683.26,1003.89,683.14Z"/>
    <path d="M1003.28,661.51c1.88-4.46.94-8.49-2.59-11.47.71,5.62-4.58,11.36-4.58,16s2.7,3.4,2.35,10.47c.23,4.1-.71,3.14-.94,7.11l4.7-.37c.71-5,2-6,3.41-12.49C1005.87,664.55,1002.22,665.55,1003.28,661.51Z" style="fill: url(#m)"/>
    <path d="M1003.7,661.86a11.45,11.45,0,0,0,.91-6.25,10,10,0,0,0-3.65-6.2l-1-.81.21,1.61c.35,2.82-1,5.8-2.35,8.68-1.16,2.51-2.25,4.88-2.25,7.17a7.55,7.55,0,0,0,1.18,4.35c.67,1.17,1.36,2.38,1.17,6.18a7.81,7.81,0,0,1-.32,3.48,13,13,0,0,0-.62,3.52c0,.26,0,.52,0,.78l5.64-.44.09-.59a26.57,26.57,0,0,1,1.48-5.78,49,49,0,0,0,1.91-6.63l0-.19c.13-3.56-.94-5-1.73-6.1A2.66,2.66,0,0,1,1003.7,661.86Zm-.38,15.1a28.05,28.05,0,0,0-1.5,5.59l-3.75.3a9.9,9.9,0,0,1,.47-2.24,9.56,9.56,0,0,0,.41-4.1c.22-4.26-.64-5.75-1.39-7.06a5.9,5.9,0,0,1-1-3.46c0-1.84,1-4,2.07-6.33,1.17-2.53,2.46-5.36,2.57-8.23a8.2,8.2,0,0,1,2.4,4.58,9.67,9.67,0,0,1-.82,5.27,4.48,4.48,0,0,0,.88,4.45,6.64,6.64,0,0,1,1.44,4.93A48.82,48.82,0,0,1,1003.32,677Z"/>
    <path d="M1022.55,646.3c-1.5.17-2.71,2.08-2.71,4.26s1.21,3.81,2.71,3.64,2.7-2.1,2.7-4.28S1024,646.12,1022.55,646.3Z" style="fill: #f7c600"/>
    <path d="M1022.55,645.57c-1.77.21-3.2,2.47-3.2,5s1.43,4.52,3.2,4.31a3.22,3.22,0,0,0,2.26-1.64,6.4,6.4,0,0,0,.94-3.42,5.31,5.31,0,0,0-.94-3.19A2.44,2.44,0,0,0,1022.55,645.57Zm1.56,6.77a2.24,2.24,0,0,1-1.56,1.13c-1.22.15-2.21-1.19-2.21-3s1-3.34,2.21-3.48a1.68,1.68,0,0,1,1.56.76,3.68,3.68,0,0,1,.65,2.2A4.42,4.42,0,0,1,1024.11,652.34Z"/>
    <path d="M963.46,692.76q-2.24,7-4.49,13.93l2.67,8.21h0s6,20,12.8,7.38,4.33-17.93,4.33-17.92Q971.12,698.65,963.46,692.76Z" style="fill: #f7c600"/>
    <path d="M979.11,703.79q-7.93-5.92-15.87-12-2.4,7.49-4.81,14.94l2.75,8.51c.18.58,3.42,11.19,8,11.95a4.44,4.44,0,0,0,.63,0c1.74-.06,3.42-1.56,5-4.48,7-13,4.46-18.56,4.35-18.79A.61.61,0,0,1,979.11,703.79Zm-5.05,18.05c-1.53,2.83-3.11,4.13-4.71,3.88-4.09-.67-7.23-11-7.26-11.12-.86-2.64-1.71-5.27-2.57-7.92l4.17-12.93q7.35,5.65,14.71,11.16C978.68,705.77,979.93,710.93,974.06,721.84Z"/>
    <path d="M973.61,704.34l-1.33,3.93,2.49,3.55s1,.2,1.83-2S974.77,706.72,973.61,704.34Z" style="fill: #ffc6b5"/>
    <path d="M975.61,706a8.28,8.28,0,0,1-1.59-2.06l-.48-1-1.86,5.51,2.86,4.07.15,0h.16c.39,0,1.39-.28,2.19-2.42C977.76,708.19,976.62,707,975.61,706Zm.56,3.5c-.47,1.26-1,1.55-1.19,1.61l-2.1-3,.84-2.47a13.38,13.38,0,0,0,1.3,1.51C976.15,708.32,976.44,708.76,976.17,709.47Z"/>
    <path d="M936.19,700.9s-9.48,12.47-13,12.58-4.15,1.8-3.65,3.76,7.15.23,7.15.23q6.74-5.18,13.47-10.45h0Z" style="fill: #ffc6b5"/>
    <path d="M935.85,700.36c-2.6,3.44-9.94,12.3-12.66,12.4-2.12.08-3.42.71-4,1.93a4.17,4.17,0,0,0-.12,2.79c.26,1,1.35,1.4,2.71,1.44a18.93,18.93,0,0,0,5-.74q7.1-5.41,14.19-11-2.4-3.66-4.78-7.32Zm-9.31,16.41c-3.12.82-6.21.92-6.52.24a2.25,2.25,0,0,1,0-1.49c.2-.46.9-1.23,3.2-1.32,3.27-.11,11.12-10,12.92-12.29l3.21,4.92Q933,711.85,926.54,716.77Z"/>
    <path d="M960.14,390.68c.66-7.05-.33-38.85-.33-38.85q-9.15-1.65-18.3-3.54-.59,4.62-1.16,9.22s.33,4.62.5,7.05-2.67,7.51-2.83,7.26-1.5.22-1.33,1.68,2.16,2,2.16,2-.83,5.09,0,5.35-2.16,6.53,0,8.25,5.82,3.93,7.48,3.44,0,9.48,0,9.48q-2.33,7.27-4.65,14.55,12.8-1.86,25.61-4.17-2.65-6.12-5.32-12.25S959.47,397.74,960.14,390.68Z" style="fill: #ffc6b5"/>
    <path d="M962.25,399.51c-.09-.09-2.23-2.27-1.62-8.74.66-7-.29-37.68-.33-39,0-.2,0-.4,0-.61q-9.59-1.71-19.17-3.7l-1.26,10v.1s.34,4.62.5,7.05c.12,1.71-1.78,5.53-2.41,6.41a1.39,1.39,0,0,0-.89.3,2.42,2.42,0,0,0-.85,2.28,3.07,3.07,0,0,0,2.06,2.39c-.2,1.42-.48,4,0,5a1.2,1.2,0,0,0,.27.4c0,.34-.19,1-.3,1.43-.52,2.2-1.31,5.53.42,6.91s5.86,4.09,7.79,3.49c.39.52.13,4.55-.52,8.48q-2.5,7.86-5,15.71,13.64-2,27.27-4.45-2.86-6.58-5.74-13.22ZM937.73,372.4l-.06-.07Zm4.76,43.3c1.45-4.51,2.88-9,4.32-13.54.33-2,1.32-8.44.31-10a.83.83,0,0,0-.67-.42.76.76,0,0,0-.21,0c-1.38.41-4.72-1.42-7.16-3.36-.91-.73-.5-2.86,0-5.16a5,5,0,0,0,.27-2.7.8.8,0,0,0-.35-.44,16.48,16.48,0,0,1,.29-4.49l.12-.76-.52-.13c-.69-.18-1.68-.75-1.75-1.37a.7.7,0,0,1,.1-.52.9.9,0,0,1,.52-.38l.16.2.32-.22c.57-.38,3.24-5.31,3.06-8-.15-2.21-.44-6.25-.49-6.94.35-2.82.71-5.63,1.06-8.45q8.72,1.8,17.42,3.37c.13,4.42.92,31.75.32,38.12-.63,6.72,1.46,9.49,2,10,1.61,3.72,3.23,7.45,4.85,11.16Q954.47,414,942.49,415.7ZM939,380.11Z"/>
    <path d="M927.71,433.32c-2.17,14.52-3.33,29.06-3.33,29.06s-9.81,15.95-12.81,21.62-7.48,17.36-9.15,20.42-8.15,13.11-8,17-1.5,21,5,23.38c1.66,1.08,7-19.52,7-19.52s.33-9-1.5-10.77,4-7.32,4-7.32,11.14-11.4,13.64-14.27,9.31-13.84,9.31-13.84q1.92-33.12,3.83-66.24h0S927.37,418.27,927.71,433.32Z" style="fill: #ffc6b5"/>
    <path d="M927.21,433.24c-2,13.38-3.15,26.92-3.31,28.81-1,1.74-9.92,16.18-12.72,21.5-1.7,3.22-3.83,8.25-5.72,12.69-1.46,3.44-2.71,6.4-3.43,7.71-.31.58-.8,1.41-1.38,2.4-3.46,5.9-6.84,11.9-6.7,15.08,0,.61,0,1.62,0,2.8-.13,6.21-.42,19.17,5.33,21.24a.67.67,0,0,0,.3.1.63.63,0,0,0,.39-.11c2-1.18,6.14-16.78,6.94-19.9l0-.22c0-1,.29-9.44-1.72-11.42a.35.35,0,0,1-.13-.29c0-1.28,2.46-4.23,4.14-5.84.12-.1,11.18-11.45,13.66-14.29S932,480,932.23,479.56l.11-.17q2-33.86,3.91-67.72l-.77.51C935.39,412.25,926.9,418,927.21,433.24Zm4.17,45.52c-.88,1.44-6.88,11-9.14,13.59-2.46,2.82-13.51,14.15-13.61,14.23-.77.73-4.59,4.49-4.56,7a2.12,2.12,0,0,0,.58,1.51c1.14,1.12,1.39,6.68,1.28,10-2.31,8.91-5.4,18.68-6.4,19-5-1.81-4.75-13.49-4.62-19.76,0-1.26.05-2.26,0-2.93-.13-2.87,4.17-10.16,6.48-14.1.59-1,1.08-1.84,1.4-2.43.75-1.38,2-4.37,3.49-7.84,1.87-4.41,4-9.42,5.66-12.59,2.95-5.59,12.68-21.41,12.78-21.58l.1-.17c0-.08,0-.15,0-.23s1.19-14.66,3.32-29v-.18c-.26-11.84,4.9-17.45,6.92-19.21Q933.25,446.44,931.38,478.76Z"/>
    <path d="M989.41,680.46c.5-.27,1.33-7.86,1.5-11.27s-5.49-27.83-5.66-31-5.82-14-4.65-13.84,1.66-2,1.66-2S971.12,552.17,971,549.72a5.86,5.86,0,0,0-1.83-3.82q.25-21.39.5-42.77s-.17-9.22-.5-12.37,1.66-7.82,1.66-11-1.49-6-1.49-7.72,1.83-2.74,2.16-5.91-2.16-11.34-3-17.63,2.17-14.88,4-18.35,6.81-2.23,7.15-7.35-11.15-20.9-11.81-21.88-5.16-.59-5.16-.59S957,407,952.15,408.52s-7-7-7-7c-6,1.44-9.65,10.6-9.65,10.61l-3.32,13.54c-.84,3.4-8,9-7.32,19.25.15,6.48,7,10.87,7,10.86s.67,7.06.67,12.16-1.33,24.26-1.33,24.26-7.65,38.43-7.49,40.13,2.66.07,2.66.07-2.16,15.49-3,19.83-6.32,71.68-6.15,74.84,3.66,3.29,3.66,3.29l.16,44.7s-3.82,9.82-3.82,12.73,1.33,4.91,1.49,6.86-1.49,8.2-1.49,9.66,1,4.17,3.32,5,7.82-2.44,7.82-2.45A29.13,29.13,0,0,1,936,704.3c4.66-.91,7.82,8.08,9.15,8.09s4.82-3.65,5-6.08-4-3.88-2.83-4.85,5,2.16,5.49,3.37-2.16-.22-.5,5.59,10.15,3,10.65,1.78-1.5-5.31-1-6.05,2.66,3.58,4.32,3.78,4.49-6.21,4.49-6.22,9.82.59,11.15.25,1.16-3.46,1.16-3.46l1.83.39s6.82-.17,7.48-2.65S988.91,680.74,989.41,680.46Z" style="fill: #fff"/>
    <path d="M989.87,680.71c1-2.16,1.53-11.4,1.53-11.5.1-1.94-1.32-9-3.34-18.87-1.16-5.63-2.25-11-2.31-12.22-.1-1.76-1.55-5.23-3-8.59-.66-1.6-1.46-3.51-1.75-4.48.92-.26,1.48-1.63,1.68-2.51l0-.19,0-.2c-3.85-24.21-11.17-70.63-11.3-72.52a6.68,6.68,0,0,0-1.82-4.13q.24-21.19.49-42.4c0-.38-.17-9.31-.5-12.46a19.44,19.44,0,0,1,.81-5.68,24.15,24.15,0,0,0,.86-5.2,18.9,18.9,0,0,0-1-5.28,10.85,10.85,0,0,1-.54-2.44,3.66,3.66,0,0,1,.68-1.65,9.53,9.53,0,0,0,1.48-4.14c.21-2-.55-5.52-1.43-9.58-.6-2.81-1.23-5.71-1.57-8.3-.75-5.67,1.88-13.95,3.9-17.77a6,6,0,0,1,3.15-2.44c1.82-.86,3.88-1.84,4.1-5.29.3-4.54-7.26-15.83-11.8-22.24l-.15-.21c-.74-1.06-4.11-.9-5.53-.8l-.16,0-.12.15c-.06.07-5.63,6.59-10.28,8-4.35,1.34-6.33-6.24-6.42-6.56s-.09-.37-.14-.56l-.4.1c-6.15,1.48-9.84,10.56-10,11.07l-3.33,13.54a14.23,14.23,0,0,1-2,3.52c-2.31,3.41-5.8,8.54-5.35,16,.15,6.18,5.73,10.43,7,11.33.14,1.55.62,7.35.62,11.66,0,5-1.31,24-1.31,24.06-1.8,9.06-7.66,38.7-7.5,40.42a1.66,1.66,0,0,0,.54,1.16,1.9,1.9,0,0,0,2,0c-.54,3.82-2.13,15-2.81,18.49-.81,4.27-6.35,71.62-6.17,75.08a4.06,4.06,0,0,0,3.66,3.92q.09,21.91.17,43.82c-.62,1.59-3.83,10-3.83,12.92a14.28,14.28,0,0,0,.92,4.68,10.53,10.53,0,0,1,.58,2.27,32,32,0,0,1-.86,5.66,28,28,0,0,0-.64,3.91c0,1.82,1.16,4.81,3.72,5.7s7.88-2.33,8.1-2.47a29.28,29.28,0,0,1,7.54-2.49c2.84-.55,5.12,3,6.78,5.56,1,1.53,1.64,2.54,2.3,2.54,1.54,0,5.29-3.91,5.48-6.73.12-1.74-1.15-2.88-2.18-3.8-.2-.18-.45-.41-.63-.6,1-.11,3.64,1.83,4.4,3-.84.65-1.48,1.9-.38,5.76a5.27,5.27,0,0,0,4.93,4q.42,0,.87,0c2.45,0,5.29-1.06,5.73-2.14s0-2.45-.52-4c-.12-.4-.27-.92-.38-1.35.22.24.47.56.69.83.89,1.13,2,2.52,3.06,2.65,1.7.18,4-4.54,4.8-6.19,1.66.12,9.7.53,11,.22s1.53-1.95,1.6-3.34l1.32.27c1.68,0,7.22-.39,8-3.14.43-1.59-.52-6.18-1.92-12.49C990.46,683.83,989.92,681.4,989.87,680.71ZM991.94,698c-.33,1.23-3.89,2.09-6.93,2.17l-2.46-.52.05.93s.1,2.47-.74,2.67c-1.05.25-8.33-.07-11-.26l-.29,0c-.06.12-.11.24-.16.36-1.11,2.51-3.08,6-4,5.88-.74-.09-1.76-1.37-2.51-2.31-.93-1.16-1.66-2.08-2.21-1.25s-.13,1.86.34,3.47a11.94,11.94,0,0,1,.61,2.67c-.38.55-4,2-6.86,1.22a4,4,0,0,1-2.93-2.87c-.95-3.31-.38-3.72,0-4a1.17,1.17,0,0,0,.57-.79,1.54,1.54,0,0,0-.11-.91c-.47-1.16-3.55-3.89-5.36-3.89a1.18,1.18,0,0,0-.79.26,1.27,1.27,0,0,0-.46,1c0,.8.55,1.3,1.32,2s1.77,1.59,1.72,2.43c-.14,2-3.42,5.43-4.5,5.42-.26,0-1-1.22-1.58-2.08-1.7-2.64-4.29-6.66-7.64-6a29.21,29.21,0,0,0-7.77,2.57c-1.49.89-5.74,3-7.52,2.41a4.9,4.9,0,0,1-2.94-4.25,32.7,32.7,0,0,1,.6-3.51,29.76,29.76,0,0,0,.9-6.24,11.74,11.74,0,0,0-.68-2.73,12.55,12.55,0,0,1-.82-4c0-2.23,2.72-9.69,3.76-12.39a1.11,1.11,0,0,0,.07-.16q-.09-22.8-.17-45.61h-.49s-3-.15-3.17-2.61c-.16-3.11,5.4-70.73,6.14-74.59.82-4.32,2.91-19.25,3-19.88l.2-1.4-.89.58c-.87.57-1.81.78-2,.54,0-1.65,4.45-24.73,7.48-40,.06-.78,1.33-19.25,1.33-24.33s-.66-12.19-.67-12.26l0-.41-.26-.16c-.07,0-6.54-4.27-6.69-10.24-.41-6.84,2.76-11.5,5.07-14.92a14.33,14.33,0,0,0,2.22-4q1.65-6.7,3.29-13.42c0-.09,3.46-8.5,8.92-10.16.62,2,3,8.28,7.38,6.91s9.66-7.13,10.56-8.17c2-.14,4.28,0,4.63.4l.16.23c7.28,10.27,11.69,18.28,11.5,21.09-.16,2.47-1.65,3.19-3.39,4a6.9,6.9,0,0,0-3.65,3c-1.72,3.26-5,12.17-4.09,18.94.35,2.67,1,5.61,1.6,8.45.8,3.73,1.56,7.25,1.39,8.93a7.84,7.84,0,0,1-1.25,3.4,5.07,5.07,0,0,0-.92,2.61,11.22,11.22,0,0,0,.62,3,17.26,17.26,0,0,1,.88,4.73,22.55,22.55,0,0,1-.81,4.72,20.85,20.85,0,0,0-.85,6.37c.32,3.06.49,12.19.49,12.25q-.24,21.58-.5,43.18l.24.21a5,5,0,0,1,1.6,3.28c.16,2.42,10.48,67.46,11.28,72.5-.12.41-.48,1.41-1.07,1.34a.59.59,0,0,0-.62.4c-.34.75,0,1.79,1.9,6.26,1.22,2.92,2.73,6.55,2.81,8s1.13,6.56,2.35,12.52c1.51,7.37,3.39,16.54,3.3,18.36a74.16,74.16,0,0,1-1.28,10.7c-.51.41-.27,1.49.86,6.61C990.85,690.33,992.27,696.77,991.94,698Zm-2.12-17.18a.6.6,0,0,1-.25.32A.8.8,0,0,0,989.82,680.82Z"/>
    <path d="M934.86,711.81c-1.5.46-3.66-5.9-3.83-5.9s-7.48,3.7-7.65,3.93,5.32,6.71,5.32,6.7a30.21,30.21,0,0,0-6,1.3c-2.33.89-.84,6,1.49,5.14s18.46-13,18.46-13c.34.49-2-3.41-2-3.41S936.35,711.35,934.86,711.81Z" style="fill: #f7c600"/>
    <path d="M943,709.45v0h0l0,0-.09-.13c-.3-.59-.88-1.56-1.89-3.25-.1-.17-.2-.34-.31-.51l-.36.41c-1.18,1.32-4.49,4.79-5.63,5.14-.51.17-1.5-1.4-2.87-4.66-.44-1-.53-1.25-.85-1.25,0,0-7.64,3.63-8,4.13l-.16.24c0,.11,0,.22,0,.33,0,.36,0,.72,4.57,6.1a25,25,0,0,0-4.87,1.15c-1.39.53-1.72,2.26-1.43,3.74s1.26,2.9,2.48,2.93a1.72,1.72,0,0,0,.72-.13c2.19-.81,15.88-11,18.23-12.84l.12.16.34-.48c.2-.27.29-.39,0-1Zm-18.95,12.83c-1.05.42-1.79-.79-2-1.76-.09-.48-.2-1.62.75-2a29,29,0,0,1,5.9-1.27l1.24-.14L929,716c-1.89-2.21-3.93-4.7-4.79-5.85,1.54-.85,5.64-2.93,6.62-3.41l.19.47c1.19,2.8,2.57,5.75,3.93,5.33s4.52-3.76,5.65-5l1.3,2.19C939.09,711.89,926.09,721.54,924.08,722.28Z"/>
    <path d="M969.23,713l-3.83,3.5h0c1.53,2.83,2.12,7.8,5.62,4.77S969.23,713,969.23,713Z" style="fill: #ffc6b5"/>
    <path d="M969.51,712.41l-.26-.26-4.58,4.18.34.63a18,18,0,0,1,.9,2.06c.73,1.83,1.59,4,3.23,3.93a3.55,3.55,0,0,0,2.12-1.06,4,4,0,0,0,1.44-3C972.8,715.76,969.85,712.75,969.51,712.41Zm1.26,8.25c-2.16,1.88-2.86.48-4-2.39-.21-.52-.42-1.06-.65-1.57,1-.93,2-1.87,3.08-2.82.91,1,2.57,3.17,2.52,4.94A2.53,2.53,0,0,1,970.77,720.66Z"/>
    <path d="M972,708.77c-.72,1.24-1.44,2.48-2.17,3.72l2,3.33a1.87,1.87,0,0,0,3.16-.36C976.44,713.21,972,708.78,972,708.77Z" style="fill: #ffc6b5"/>
    <path d="M972.23,708.17l-.36-.36q-1.38,2.34-2.74,4.7l2.27,3.79.07.1a2.23,2.23,0,0,0,3.82-.45,2.85,2.85,0,0,0,.44-1.81C975.58,711.55,972.57,708.51,972.23,708.17Zm2.36,6.79a1.45,1.45,0,0,1-2.47.32l-1.68-2.81,1.58-2.72c1.14,1.22,2.65,3.25,2.73,4.56A1.07,1.07,0,0,1,974.59,715Z"/>
    <path d="M978.93,424h0c-10.76,5.1-12.81,18.67-7.58,41,2.35,3,4.59,11.34,4.42,15s-6.82,25-7.32,26.74-8.31,28.89-9.81,31.57-1.83,13.15-1.66,16.3,3.32,6.51,5.32,7.19,6.49-6.26,6.82-7.72c.22-1.29-2.16-5-1.5-5.78s2.17-16.34,2.17-16.34,6-16,7-20.19,9.48-20.86,10.31-24.33-1.33-27.61-2-33.64S979.1,424,978.93,424Z" style="fill: #ffc6b5"/>
    <path d="M982.3,436.37c-2.82-13.15-2.94-13.15-3.37-13.13l-.14,0a17.28,17.28,0,0,0-9,10.33c-2.53,7.22-2.16,17.57,1.13,31.62l0,.18.1.12c2.2,2.82,4.42,11,4.26,14.41-.09,2-2.36,10.35-6.75,24.75l-.53,1.75c-.06.22-.12.43-.19.65-5.21,18-8.69,29.19-9.55,30.74-1.67,3-1.93,13.91-1.78,16.81.19,3.59,3.56,7.1,5.7,7.83a1,1,0,0,0,.41.06c2.42,0,6.62-6.61,7-8.32a7.26,7.26,0,0,0-.87-3.4,11.23,11.23,0,0,1-.73-2.09c.55-1.05,1.31-6.62,2.26-16.57.59-1.58,6-16.14,7-20.18.5-2.11,3.17-7.91,5.52-13.06s4.37-9.56,4.79-11.28c1-4-1.6-30.57-2-34S983.35,441.31,982.3,436.37Zm4.32,50.83a114.51,114.51,0,0,1-4.68,10.94c-2.5,5.47-5.09,11.1-5.64,13.38-1,4.08-6.89,19.92-6.95,20.07l-.06.26c-.68,7.17-1.63,15.09-2,15.85-.71.8-.13,2.22.54,3.88a11.26,11.26,0,0,1,.78,2.26c-.29,1.27-4.58,7.82-6.23,7.22-1.85-.63-4.81-3.82-4.95-6.54-.18-3.42.25-13.43,1.56-15.79,1.19-2.15,5.93-18.07,9.69-31.1.07-.22.13-.43.19-.65l.52-1.73c2.87-9.42,6.7-22.32,6.84-25.25.17-3.79-2-12.17-4.49-15.44-3.17-13.57-3.54-23.49-1.15-30.32a15.92,15.92,0,0,1,8-9.38c.92,3.58,5.35,23.67,6,29.05C985.41,461.26,987.36,484.11,986.62,487.2Z"/>
    <polygon points="939.85 356.05 939.85 356.05 939.85 356.05 939.85 356.05" style="fill: #9c5100"/>
    <path d="M972.28,371.89c0-34-15.3-29.92-15.3-30s-1.83-6-4.83-5.29-3.16,5.85-5.32,5.37-2.66-2.68-2.83-2.44-2,5.09-2,6.31-5.82-1.76-5.32,4.56,3.32,6.11,3.16,5.62h0s3.66.76,5.65-.94,4.33-2.43,6,1,2.83,3.13,2.83,3.13-2.5,9,0,10,3.66.92,3.82,2.13-2.16,3.92-1.5,5.12,1.84,2.65,2,3.61-1.5,5.13-1,6.09,2,4.83,3,4.81S961,397,964,395.46s2.83-5.42,2.83-5.42,3.16-.82,4-5,2.83-5.2,2.83-5.2S977.6,376.54,972.28,371.89Z" style="fill: #9c5100"/>
    <path d="M972.77,371.47c0-12.45-2.13-21.24-6.2-26.18-3.78-4.58-8-4.35-9.3-4.16-.54-1.51-2.37-5.93-5.2-5.21-1.71.43-2.61,2.13-3.32,3.49s-1.09,2-1.84,1.87a3.44,3.44,0,0,1-2.27-1.89c-.17-.29-.32-.55-.58-.57h-.25l-.16.23a34.5,34.5,0,0,0-2.1,6.42,7.28,7.28,0,0,1-.81,0c-1.18,0-3-.1-3.92,1.44a5.87,5.87,0,0,0-.63,3.6c.38,4.78,2,6,2.72,6.34a1.08,1.08,0,0,0,1.14,0c.92.15,3.89.46,5.7-1.08,2.36-2,4.1-1.77,5.34.75,1,2.15,2,3,2.55,3.26-.46,1.9-1.41,6.38-.62,8.7a2.16,2.16,0,0,0,1.17,1.41c.64.24,1.19.42,1.66.57,1.18.38,1.75.58,1.81,1a7.15,7.15,0,0,1-.67,1.64c-.63,1.26-1.34,2.69-.73,3.8.23.42.51.86.8,1.3a8.65,8.65,0,0,1,1.1,2,14.19,14.19,0,0,1-.46,2.09c-.56,2.12-.87,3.47-.45,4.28l.39.84c1,2.2,2,4.17,2.92,4.25a7.47,7.47,0,0,1,.27,1.16c.23,1.19.51,2.68,1.37,3.33a1.51,1.51,0,0,0,.92.3,2.44,2.44,0,0,0,1-.29c2.33-1.19,3.06-3.86,3.16-5.53a6.92,6.92,0,0,0,4-5.37c.74-3.7,2.44-4.67,2.59-4.76a5.28,5.28,0,0,0,1.69-3.7C975.58,375,974.65,373.18,972.77,371.47Zm.68,7.7c-.13.07-2.26,1.27-3.14,5.7a5.49,5.49,0,0,1-3.6,4.46l-.44.12,0,.65s.11,3.34-2.49,4.68c-.49.24-.87.27-1.15.06a4.63,4.63,0,0,1-.87-2.44c-.21-1.09-.42-2.22-1.15-2.21-.53,0-1.77-2.71-2.17-3.61-.18-.38-.33-.71-.42-.87a12.67,12.67,0,0,1,.57-2.94,8,8,0,0,0,.5-2.93,8,8,0,0,0-1.34-2.67c-.26-.42-.53-.83-.75-1.21s.51-1.56.76-2a5.25,5.25,0,0,0,.84-2.77c-.19-1.36-1.08-1.65-2.56-2.13-.46-.14-1-.32-1.63-.55a1,1,0,0,1-.53-.66c-.66-1.9.4-6.66.87-8.34.08-.35.17-.7.26-1l-.77.06s-1,0-2.38-2.84c-1.07-2.19-3.1-4.17-6.64-1.16-1.82,1.56-5.3.86-5.34.86l-.93-.2.09.26a1.64,1.64,0,0,1-.39-.31c-.56-.56-1.27-1.84-1.5-4.74a4,4,0,0,1,.37-2.45c.67-1.07,2.12-1,3.17-1,.81,0,1.3,0,1.59-.38a1.13,1.13,0,0,0,.19-.67,30.57,30.57,0,0,1,1.6-5.18,4.27,4.27,0,0,0,2.66,2c1.35.3,2.07-1.08,2.78-2.42s1.36-2.61,2.7-3c2.57-.64,4.27,4.82,4.28,4.88s.11.34.16.51l.38-.1c.05,0,4.83-1.13,8.88,3.79,3.88,4.72,5.84,13.28,5.84,25.48v.4l.24.21c1.68,1.47,2.56,2.94,2.53,4.26A3.76,3.76,0,0,1,973.45,379.17Z"/>
    <path d="M951.83,429.73l1-.16c-.22-3.2,8.62-12.84,14.25-18.29l-.54-1.2C964,412.54,951.48,424.72,951.83,429.73Z"/>
    <path d="M966.38,417.85l.24.61v.72c.27,0,.39,0,3.86-5.7l-.73-1C968.29,414.94,966.62,417.58,966.38,417.85Z"/>
    <path d="M968,433.45l.95-.45c-.88-4.17,4-11.35,6-13.78l-.63-1.1C974,418.52,966.73,427.51,968,433.45Z"/>
    <path d="M940,421.78c-.56-1.56-1-2.91-1.2-3.55-.32-1.39.84-5.76,1.64-8.18l-.89-.64c-.38,1.14-2.23,6.92-1.69,9.27.17.76.66,2.09,1.27,3.77,1.28,3.52,3,8.34,3.37,11.69a40.24,40.24,0,0,1,0,8.5l1,.29a42.48,42.48,0,0,0,0-9C943.15,430.34,941.34,425.39,940,421.78Z"/>
    <path d="M936.68,421.75l-1,.16c.11,1.34.74,8.11,1.8,9.68a41.09,41.09,0,0,1,3.86,10.34l1-.25a42,42,0,0,0-4.13-11.11C937.6,429.68,937,424.88,936.68,421.75Z"/>
    <path d="M935.08,453.47c-.15.43-.3.86-.44,1.29a2.88,2.88,0,0,0,1.55.47,3.52,3.52,0,0,0,1.6-.39c2.19-1.06,4.15-4.2,5.83-9.31l-.89-.63C939,456.13,935.23,453.58,935.08,453.47Z"/>
    <path d="M963.3,454.78c-1.84,1-5.74,2-11.24-2.44a8.14,8.14,0,0,1-2.61-5,25.75,25.75,0,0,1,.6-10.22l-.39-.42V436c-.28,0-.52,0-1,2.66s-1.61,11.26,2.92,15c3.38,2.76,6.21,3.53,8.39,3.49a7.92,7.92,0,0,0,3.66-.95,29.58,29.58,0,0,0,4.91-3.6l-.51-1.22A29.58,29.58,0,0,1,963.3,454.78Z"/>
    <path d="M947.83,451.27l-1,0c0,.63.52,16.7,16.68,32.2.19-.41.37-.81.55-1.22C948.38,467.25,947.83,451.38,947.83,451.27Z"/>
    <path d="M948.49,466.36l-1,0c0,.58-.1,14.56,6.37,21l.56-1.2C948.41,480.15,948.49,466.49,948.49,466.36Z"/>
    <path d="M935.84,472.16l.36,1.35c3.93-2.19,8.44-21.27,8.94-23.45l-.94-.46C942.88,455.32,938.8,470.51,935.84,472.16Z"/>
    <path d="M941.21,485.27l.93.5c1.35-5.39,1.52-20,1.53-20.63l-1,0C942.68,465.26,942.5,480.11,941.21,485.27Z"/>
    <path d="M957.16,489.25a14.32,14.32,0,0,0-2-1.06c-1.51-.57-2.63.94-3.83,2.54s-2.32,3.09-4,3.32c-3.32.44-6.52-5.29-6.56-5.34l-.77.89c.14.25,3.27,5.92,6.95,5.92l.47,0c2-.27,3.36-2.09,4.56-3.69s2-2.57,2.91-2.21a12.49,12.49,0,0,1,1.94,1,12,12,0,0,0,8.88,2l-.09-1.44A11.4,11.4,0,0,1,957.16,489.25Z"/>
    <path d="M959.05,511.27c-.74-.59-1.24-7.17-1.24-12.95l-1,0c0,3,.12,12.91,1.75,14.2.73.58.88,6.63.58,11.93l1,.1C960.3,521.78,960.7,512.58,959.05,511.27Z"/>
    <path d="M935.39,508c-.12.48-.24,1-.38,1.53-1,4.16-2.61,10.44-2.31,16l1-.1c-.29-5.22,1.24-11.32,2.25-15.36.14-.55.27-1.07.38-1.54,1-4.18,1.19-15.52,1.2-16l-1,0C936.52,492.61,936.35,504.08,935.39,508Z"/>
    <path d="M926.69,531.48c.12.45.25.9.37,1.35.88-.49,3.51-3.79,3.8-4.17l-.66-1.1A28.73,28.73,0,0,1,926.69,531.48Z"/>
    <path d="M931.55,530.64c-.07.46-7.15,45-5.17,71.53l1-.13c-2-26.33,5.07-70.6,5.14-71Z"/>
    <path d="M933.21,532.91c-.16,1.37-3.67,33.71-2,40.17l.92-.5c-1.6-6.1,2-39.09,2-39.43Z"/>
    <path d="M931.85,532.75c.29,0,9.25,1.12,13.95,1.6l.07-1.44c-4.16-.42-13.84-1.59-14-1.61C931.86,531.78,931.85,532.27,931.85,532.75Z"/>
    <path d="M948.06,530.31l-.46,1.29a14.18,14.18,0,0,0,8.16,2.5c.41,0,.83,0,1.25-.07l-.06-1.44A13.57,13.57,0,0,1,948.06,530.31Z"/>
    <path d="M944,617.09l1,.17c1-12.52,1.66-69.45,1.66-70l-1,0C945.66,547.79,945,604.64,944,617.09Z"/>
    <path d="M966.13,560.16c.18,2.06,4.37,50.41,6.93,55,.25-.31.51-.61.77-.92-2-3.58-5.52-40.41-6.71-54.3Z"/>
    <path d="M957.82,566.63c.27,4.56,2.71,44.67,4.21,48.55l.87-.73c-1.19-3.05-3.36-35.65-4.1-48Z"/>
    <path d="M975.52,617.64c-.13-.3-.27-.59-.41-.89l-.41.92c-.17.36-4.18,9-12.3,1.4l-.43-.41-.26.66c-1.3,3.26-3.1,5.31-5.34,6.08-5.57,1.91-12.19-4.62-12.25-4.69l-.31-.31c-.1.11-.19.23-.29.35s-3.94,4.71-7.92,4c-1.88-.35-3.51-1.87-4.84-4.5l-.35-.7-.41.62c-4.5,7-9.55,9.23-9.6,9.25.1.46.2.93.31,1.39.21-.09,5-2.26,9.62-9,1.43,2.55,3.16,4,5.16,4.4,3.78.71,7.35-2.82,8.37-4,1.42,1.33,7.38,6.44,12.72,4.62,2.37-.81,4.29-2.87,5.71-6.13,7.13,6.28,11.45.78,12.78-1.42,1,1.92,3.47,6.36,5.63,5.56l-.21-1.4C979,623.94,976.67,620.16,975.52,617.64Z"/>
    <path d="M967.28,629.35l-1,.33c.26,1.81,6.63,44.67,16.28,56.81.22-.37.44-.74.67-1.11C973.84,673.55,967.34,629.79,967.28,629.35Z"/>
    <path d="M932.87,625.09c0,.37.84,37.5,2.33,63.47l1-.11c-1.48-25.93-2.32-63-2.32-63.39Z"/>
    <path d="M930,692.55l.75,1c1-1.73,1.75-20.63,2-26.38l-1-.09C931.36,676.86,930.61,691.29,930,692.55Z"/>
    <path d="M945.7,707.34c-1.08-.2-1.85-4.18-2.1-5.49-.05-.27-.09-.49-.12-.63s-.06-.43-.11-.8c-.23-2.12-.72-6.52-3-7.92-1.79-1.09-4.24,0-7.28,3.15-3.19,3.33-5.87,4.53-7.75,3.49s-2.45-4-2.46-4.07l-1,.33c0,.15.68,3.76,3.07,5.09s5.16,0,8.68-3.66c2.75-2.87,4.87-3.88,6.32-3,1.79,1.1,2.22,5,2.43,6.82a8.83,8.83,0,0,0,.14,1c0,.12.06.31.11.56.39,2,1.19,6.21,2.92,6.53a.75.75,0,0,0,.21,0c1,0,2-1.25,3-3.81l-.86-.73C947.06,706.35,946.27,707.43,945.7,707.34Z"/>
    <path d="M979,688.33c-2.93-1.63-7,.72-12,6.93-4,4.87-7,6.7-8.76,5.34-2.62-2-2.09-10.22-2.08-10.31l-1-.13c0,.38-.6,9.27,2.6,11.73a2.77,2.77,0,0,0,1.81.59c2.07,0,4.76-2.08,8-6.12,4.75-5.84,8.45-8.11,11-6.68,2.92,1.62,3.64,7.67,3.81,10.2l1-.2C983.23,696.89,982.41,690.22,979,688.33Z"/>
    <path d="M963,357.53c0-.33.11-.66.17-1l-.7.1c-2.22.32-3.86-.33-4.9-1.93-1.65-2.56-1.22-6.8-1.22-6.84l-1-.21c0,.2-.51,5,1.47,8a5.18,5.18,0,0,0,5.06,2.45c-.62,5.64,2.38,7.58,2.41,7.6.14-.44.27-.89.4-1.33C964.56,364.35,962.06,362.73,963,357.53Z"/>
    <path d="M970.28,370.75v.89c0,.17-.1.34-.16.52a3.61,3.61,0,0,1,1.2,2.39,4.66,4.66,0,0,1-1.49,3.39c.19.39.39.77.58,1.15a6,6,0,0,0,1.79-5.5C971.82,371.92,970.66,370.73,970.28,370.75Z"/>
    <path d="M969.79,384.81a4.5,4.5,0,0,1-2.27-.54c-.55-.59-3.28-3.39-5.18-2.59-1.5.63-3-1.86-3-1.89-.25.31-.5.63-.76.94.08.13,1.9,3.23,4,2.34,1.31-.54,3.61,1.57,4.39,2.43l.14.12a5.79,5.79,0,0,0,2.43.67.94.94,0,0,0,1-.58l-.82-.78A.38.38,0,0,1,969.79,384.81Z"/>
    <path d="M949,388.92c0,.22-.11.45-.17.68l.18-.68Z"/>
    <path d="M949,388.92l-.18.68-.18.67a3.68,3.68,0,0,0,1.67.35c2.09,0,5.71-1.55,8.28-10.81l-.92-.53C954.27,391.58,949.23,389,949,388.92Z"/>
    <path d="M938.33,376.43c1.1.1,2.21.19,3.32.27,0-.48,0-1,.05-1.44l-3.33-.27C938.36,375.47,938.34,376,938.33,376.43Z"/>
    <path d="M901,527.59c.09,3.55.18,7.11.26,10.66h1l-.26-10.66Z"/>
    <path d="M894.19,526.73c0,.12,4.58,11.57,4.21,17.32l1,.2c.4-6.22-4.16-17.72-4.35-18.21Z"/>
    <path d="M941.84,379.87l-3,0v1.45h.62l-.49.31.4,1.33,2.66-1.68a.81.81,0,0,0,.29-.81C942.28,380.12,942.08,379.88,941.84,379.87Z"/>
    <path d="M961,556.5a8.45,8.45,0,0,0-1.41-4.08,2.57,2.57,0,0,0-2.35-1.23l.1,1.44a1.77,1.77,0,0,1,1.6.89c.85,1.14,1.27,3.32,1.24,6.31a.66.66,0,0,0,.41.71h.08c.22,0,.41-.21.48-.52,2.08-9.94,6.14-10.46,6.31-10.48,0-.48,0-1,0-1.45C967.2,548.12,963.41,548.54,961,556.5Z"/>
    <path d="M943.56,365.54a3.67,3.67,0,0,1-.56.16c-.36,0-.68.32-.82.8a1.74,1.74,0,0,0,.2,1.42,2.3,2.3,0,0,0,2,.94,2.42,2.42,0,0,0,1.84-.71,2,2,0,0,0,.24-2.1C945.84,364.8,944.63,365.19,943.56,365.54Z"/>
    <path d="M1077.51,686.29c-7.81-1.12-17.56,20.64-17.08,21.25.49.26-44.87,84.92-115.12,87.66h0c-62.92,5.64-119.5-98-119.51-97.81,0,0-9.26-13.37-14.14-7-2.44,12.52-23.9,33.38-23.9,33.33A21.64,21.64,0,0,0,780,742.39c1,12.29,13.66,26.49,16.59,27.65s8.78-7.19,8.78-7.19l5.36-7.75c0-.41,61.47,96.93,136.1,96.37,72.19,4.33,134.63-99.68,134.63-99.8s3.9-3,5.85,7.91,15.12-.19,18-3.9,11.71-20.41,4.88-34.12C1096.53,718.31,1085.31,687.44,1077.51,686.29Z" style="fill: #f7c600"/>
    <path d="M1110.84,720.17l-.32-.07c-7.32-1.74-14-11.8-19.89-20.78-4.88-7.44-9.09-13.93-12.88-14.48-7.43-1.08-16.11,16.06-17.9,21a6.55,6.55,0,0,0-.41,1.51c-1.26,2.67-12.38,22.74-32,43.38-17.89,18.86-46.67,41.67-82.19,43h0c-61.7,5.52-118.14-96.37-118.7-97.21l-.09-.14c-.4-.57-10-14.29-15.5-7.11l-.19.24-.07.36c-2.27,11.68-22.48,31.62-23.51,32.58A22.87,22.87,0,0,0,779,742.4c1,13.06,14.14,27.75,17.4,29s8.64-6,9.68-7.51l4.69-6.77c7.22,10.45,65.73,95.62,135.09,95.76h.91c1.42.07,2.81.1,4.22.09,68,.26,127-93.68,130.94-100.14a1.47,1.47,0,0,1,1.36.11c.9.52,2.15,2.18,3,7.17.52,2.89,1.8,4.76,3.72,5.37,5.3,1.74,13.89-6.33,15.84-8.78,3.81-4.74,12.1-22.28,5.16-36.2Zm-6.08,34.46c-2.2,2.76-9.86,9.37-14,8-1.32-.43-2.14-1.62-2.51-3.65-.87-4.87-2.24-7.84-4.09-8.83a2.89,2.89,0,0,0-3.07.22l-.19.16-.15.24c-.62,1.19-63,103.49-134,99.24h-.9c-73-.2-133.89-95.3-134.5-95.88l-.73-1.13q-3,4.38-6,8.73c-2.28,3.27-6.27,7.53-7.89,6.89-2.77-1.1-14.87-14.94-15.76-26.25a20.37,20.37,0,0,1,7.34-17.32l.08-.08c.88-.8,21.34-20.81,24.17-33.66,4.07-4.74,11.93,6.1,12.57,7a334.47,334.47,0,0,0,36.29,51.13c20.21,23.16,51.19,50.14,84,47.19,36.25-1.38,65.56-24.82,83.78-44.21,20.14-21.47,31.74-42.72,32.21-44.46.08-.33.16-.67.25-1l0,0a61.93,61.93,0,0,1,5.52-10.61c2.71-4.19,6.68-9.09,10.18-8.58,3.16.46,7.37,7,11.84,13.78,6,9.11,12.72,19.32,20.42,21.4C1115.84,736.23,1106.82,752.08,1104.76,754.63Z"/>
    <path d="M795,727.12c-2.46-4.48-8.27-3.31-8.93-3.16l.51,2.88c1.36-.3,5.54-.59,6.94,1.95,2.12,3.9,16.18,26.18,16.78,27.1l1.39-1.86C811.51,753.82,797.05,730.93,795,727.12Z"/>
    <path d="M796,742.57l4.17-3.91c-.4-.83-.8-1.67-1.19-2.5l-7.58,7.1,2.17,1c.08,0,7.74,3.55,10.24,10.28a12.8,12.8,0,0,1,.34,7.7l1.87,1.23a17,17,0,0,0-.5-10.12C803.42,747.74,798.71,744.22,796,742.57Z"/>
    <path d="M1096.92,722.86c-4.58,6.19-15.74,27-16.21,27.82.49.54,1,1.07,1.48,1.6.11-.18,11.5-21.41,15.91-27.4,3.92-5.28,6.31-4.31,6.4-4.26.16-.47.31-.94.46-1.41l-.47,1.4.47-1.4c.15-.47.31-.94.46-1.41C1105.28,717.73,1101.91,716.15,1096.92,722.86Z"/>
    <path d="M1091.29,733.93l4.49,3.92a18.79,18.79,0,0,0-7.36,8.33c-1.88,4.14-2.37,9-1.46,14.53l1.93-1.12a20.85,20.85,0,0,1,1.11-12.05,16,16,0,0,1,8.25-8l2.61-.95q-4.18-3.58-8.36-7.25C1092.1,732.2,1091.69,733.06,1091.29,733.93Z"/>
    <path d="M854.26,752.32a4.08,4.08,0,0,1-1.08,5.79c-4.33,3.41-8.76,6.58-13.13,9.84q1.74-11.41,3.49-22.83c0-2.43,1.6-4,3-1.93.56.61,1.13,1.63,1.44.31L838.07,732c-.37-1.11-1.26,0-.69.6,1.36,1.66.92,4.17.64,6.19-1.67,11.56-3.45,23.06-5.17,34.59-.16.75-.31,1.5.34,1.89q9.66-7,19.33-14.14c1.88-1.22,3.71-3.12,5.9-3,.84-.24,1.85,1.52,2.23,0q-3.51-4-7-8C852.64,750.18,853.65,751.72,854.26,752.32Z"/>
    <path d="M867.72,765c-.54.69.08,1,.51,1.37a4.46,4.46,0,0,1,1.36,5.11c-1.88,5.12-3.9,10.1-5.84,15.16-1.42,3.56-2.72,7.24-4.26,10.69-.76,1.75-2.48,1.17-3.53,0-.48-.68-.79-.52-1,.34q5.82,5.26,11.63,10.47c.48.68.79.52,1-.34l-.78-.7a4.46,4.46,0,0,1-1.38-5.13c1.88-5.11,3.9-10.1,5.84-15.16,1.43-3.57,2.72-7.27,4.26-10.75.78-1.74,2.5-1.2,3.55-.07.48.67.79.5,1-.36q-5.58-4.9-11.15-9.88C868.53,765.62,868,764.58,867.72,765Z"/>
    <path d="M907.84,795.36a18.52,18.52,0,0,0-5.69-5.53c-3.95-2.56-8.58-2.87-12.39-.19-4.13,2.59-6.93,8.51-7.6,15-.86,7.58,2.11,15.64,6.5,20a20.81,20.81,0,0,0,15.07,5.85l1.41-5.72c.54-1.78.66-4.28,2.09-5,.89-.78,2.5,1.54,2.64-.53q-5.79-3.3-11.59-6.66c-.49-.71-1,0-.78.67a4.06,4.06,0,0,1,2.5,4.11c-.64,3.29-1.54,6.43-2.3,9.65a8.76,8.76,0,0,1-6.16-2.76c-2.28-2.17-3.48-6.18-3.32-10a43.91,43.91,0,0,1,4.6-18.44c1.8-3.52,5-5.61,8.1-4.22,4,1.48,7,7.07,7.41,12.92.41,1.29-.45,3.67.84,3.93q1.58-6.39,3.16-12.8h0l-.69-.39C910.81,797.5,908.85,797.41,907.84,795.36Z"/>
    <polygon points="931.18 840.46 931.18 840.46 931.18 840.46 931.18 840.46"/>
    <path d="M921.16,800.69a5.72,5.72,0,0,1,2.05.75c1.14.66,1.52,2.49,1.24,4.09-.73,7.43-1.54,14.84-2.3,22.26-.32,2.66-.43,5.39-1,8-.56,1.8-2.1,1.77-3.25,1.39-.57-.41-.62.22-.64.91,4.42,1.14,8.84,2.26,13.27,3.33.56.4.61-.23.64-.92a6,6,0,0,1-2.07-.72c-1.14-.63-1.52-2.5-1.24-4.09.72-7.44,1.53-14.85,2.29-22.28.33-2.66.44-5.4,1-8,.58-1.78,2.11-1.8,3.27-1.43.56.39.61-.24.64-.92q-6.65-1.57-13.27-3.26C921.23,799.38,921.18,800,921.16,800.69Z"/>
    <polygon points="967 827.62 967 827.62 967 827.62 967 827.62"/>
    <path d="M965.6,830.9c-.73,3.58-2.16,7.42-4.79,8.5-1.88.74-3.84.65-5.76.82-1.32.37-2.34-1.26-2.24-3.12-.32-7.08-.51-14.18-.78-21.27,0-3-.33-5.93-.14-8.89a2.87,2.87,0,0,1,3.13-2.45c.63.17.78-.28.64-1.12q-6.58.57-13.17,1c-.36.17-1.22-.31-1,.59-.11,1.11,1,.18,1.44.49,1.31-.06,2.56,1.45,2.43,3.47.31,6.81.49,13.62.75,20.43.08,3.42.34,6.83.23,10.25a2.72,2.72,0,0,1-2.87,2.68c-.63-.18-.78.27-.64,1.11q11.84-.82,23.68-2,.25-6.87.52-13.75l-.28,0C965.68,827.54,966.07,829.93,965.6,830.9Z"/>
    <path d="M1004,823.14c-2.23-2.25-3.83-5.52-5.67-8.39q-6.42-10.53-12.84-21.19h0c-.63.05-.35,1.2-.51,1.83-1.05,11.52-2,23.05-3.13,34.56-.26,2.55-.69,5.54-2.41,6.9-.63.36-.08,1.79.5.95,2.64-1.28,5.27-2.58,7.91-3.89-.1-1.94-1.62-.08-2.47-.38-1.81.1-2.08-3.1-1.83-5.12l.33-4.1q4.53-2.23,9.06-4.53c1.15,2.05,2.42,4,3.47,6.12.79,2.1-1.12,3.23-2.23,3.73-.52.12-.07,1.67.41.9q5.94-3,11.9-6.17C1006.42,822.4,1004.7,824.39,1004,823.14ZM984.11,822q.64-7.32,1.28-14.64l6.43,10.82Q988,820.07,984.11,822Z"/>
    <path d="M1033.05,800.68c-1.29,1.52-3.29,1.33-3.83-1-3.47-8.83-6.87-17.77-10.31-26.69.72-.64,1.43-1.29,2.15-1.92a3.71,3.71,0,0,1,5.73,0c1,.35,1.52,3.38,2.59,1.9q-1.71-4.43-3.43-8.86h0q-10.56,9.6-21.12,18.81l2.93,7.68c.27.61.42,1.79,1,.86,0-1.84-.79-4.41-.25-6.62.47-3.48,2.88-5.09,4.77-6.8,3.38,8.88,6.8,17.7,10.17,26.54,1.08,1.89.46,4.84-1.16,5.9-.6.39-1,.85-.43,1.6q3.42-3.09,6.84-6.2c1.81-1.69,3.72-3.35,5.46-5.06C1034,799.72,1033.55,800.08,1033.05,800.68Z"/>
    <path d="M1062.84,752c0,1.72.87,3.83.7,5.9a18.23,18.23,0,0,1-4.58,11.91c-1,1.3-2.39,3.26-3.54,1.83-1.87-2.83-3.5-6-5.25-9a1.53,1.53,0,0,1,.32-2.6c1.56-1.91,3.6-1.51,5.06-.26,1,.18,1.74,3.36,2.71,1.56q-3.73-6.55-7.47-13.17c-.4-.35-.68-1.92-1.15-1.41-.73,1.63,1.38,3.72,1.2,5.89a8.78,8.78,0,0,1-2.33,7.06q-3.27-5.81-6.54-11.64h0c1.11-1.38,2.2-2.79,3.33-4.14,1.88-2.49,4.6-4.32,6.88-3,1.25,0,2.23,3.44,3.33,1.62l-4.75-8.39q-8.68,11-17.37,21.77c-.81.24-.14,1.92.28,1,1-1.55,2.91-2.88,3.94-1,4,6.94,7.85,14,11.78,20.92,1.27,1.53,1.82,4.6.1,6.44-.51.65-1.3,1.27-.5,2q9.21-11.65,18.43-23.63l-3.54-8.63C1063.56,752.47,1063.4,750.81,1062.84,752Z"/>
  </g>
</svg>
