<svg xmlns="http://www.w3.org/2000/svg" viewBox="0 0 1260 1012.04">
  <g>
    <path d="M1260,2C840,273.28,420-181.24,0,90.08v.42C420-180.81,840,273.71,1260,2.39Z" style="fill: #fff"/>
    <path d="M0,90.5v919.58C420,738.76,840,1193.28,1260,922V2.39C840,273.71,420-180.81,0,90.5Z" style="fill: #fff"/>
    <path d="M401.34,591.8s-13.55,6.38-14.17,21.12a51.69,51.69,0,0,1-1.13,9.5c-.56,2.26-6.56-19.07,4.81-33.5,11.72-14.83,15-27.39,5.68-53.57,0,0-.88,15.18-10.06,23.09s-10.34,8.55-10.19,29.39c0,0,.14,7.24-3.36,9.33,0,0-7.13-11.94-9-19.62s-2.77-10.95,5.39-19.13c0-.07,26.14-16.42,7.29-58.44,0,0-.59,13.87-9.62,21.48s-8.3,13.27-8.74,27.52-1.31,13.2-2.33,15.16c0,0-16.61-34.25-3.79-51.45s20-20.31,5.83-54.31c0,0,.63,17-10.69,24.84s-8.69,27.74-8.69,27.73.73,7.41-1.6,12.72c0,0-16-34.61-.73-52.63,13-15.18,13.84-26,6.85-48.49,0,0-.88,10.19-8,15.52s-12.82,10.84-11.51,32.19c0,0,.58,15-1.17,19.14,0,0-6.7-13.67-8.6-22.57s-2.62-14.12,2.34-23,24.62-34.13,1.16-71.24a60.25,60.25,0,0,1-6.7,22.68c-6,10.79-3.21,23.55-1.89,33.28s-3.06,19.18-3.06,19.19-10.2-20.34-8-43.9-6.55-42.91-26.37-55.69c0,0-14.42,37.54,5.25,55,0-.06,16.75,17.37,21,39.37,0,0-12.68-1.08-24.19-24.9-11.51-24-35.4-17.7-37-17.56,0,.25,3.93,36.84,40.64,45.25,0-.12,23.46,3.38,27.83,22.29,0,0,3.94,12.89,5.54,19.78,0,0-7.43-3.16-14.28-14.08s-6-12.49-29.14-13.59c0,0-9.32-.51-14.28-7.26,0,.09,9.77,39,34.82,37.59,0-.08,22.88-3.41,35.7,29.83,0,0-2.48-1.72-5.83-4.26s-11.8-7.35-28.56-4.61-21.41.29-25.64-.95c0,0,16.9,32.49,40.8,22.09s35.43,27.13,35.69,27.78a105,105,0,0,1-7.43-7.45c-4.22-4.61-13-10.5-29.57-4.52,0,0-11.95,5.2-24,1.8,0,.1,11.65,23.79,38.9,19.64,27.24-3.9,34.09,23.07,34.09,23a68.49,68.49,0,0,1-6.12-4.82c-2.48-2.24-11.66-8.5-31.32-2.19s-26.81-.46-26.81-.52,10.92,21.26,31.9,23.9c0,0,11.66,0,16.61-1.87s18.07-4.55,27.1,10.33c0,0-2.48.35-6.26-1.71,0,0-14-6.31-24.63,3.21,0,0-9.47,10.29-22.87,8.35,0,.06,17.34,18.14,44.87,3.93,0,0,9.33-6.9,16.17-.68s22.73-3.68,22.73-3.65-1-7.71,12.1-11.87,14.13-24.58,11.51-38.69C416.49,576,409.64,588.3,401.34,591.8Z" style="fill: #369443"/>
    <path d="M417.14,571.58l-1.94,3.48c-.07.12-6.71,11.91-14.55,15.23-.58.24-14.31,6.93-15,22.47,0,0,0,.86-.1,2.11C385,608.2,385.76,598,392,590c11.44-14.45,15.77-27.44,5.9-55.16-.81-2.29-1.63-4.57-2.44-6.85q-.21,3.54-.41,7.08c0,.15-.94,14.59-9.55,22l-.55.47c-9.29,8-10.3,9.66-10.16,30.15,0,1.44-.25,5-1.59,6.94-2-3.51-6.48-11.8-7.88-17.48l0-.17c-1.82-7.36-2.43-9.88,4.94-17.3a34.12,34.12,0,0,0,11.11-14c4-8.82,6.57-24.06-3.44-46.39l-2.54-5.63-.26,6.08c0,.14-.68,13.27-9.09,20.36-8.74,7.4-8.88,13.34-9.18,25.08,0,1.14-.05,2.34-.09,3.61-.21,6.82-.52,10-.86,11.62-3.57-8.56-12.56-33.37-2.62-46.71,1.3-1.73,2.53-3.31,3.69-4.8,10.58-13.54,15.42-19.66,2.32-51.18l-3.1-7.44q.13,4,.28,8c0,.18.44,16.18-10,23.48-11.94,8.4-9.44,28.47-9.33,29.23a34.17,34.17,0,0,1-.36,8.08c-3.52-9.31-10.91-33.42.6-47,12.94-15.14,14.55-26.29,7.15-50.1-.75-2.39-1.49-4.79-2.24-7.18-.21,2.48-.42,5-.64,7.45,0,.1-.88,9.52-7.39,14.38-7.69,5.76-13.46,12-12.13,33.59a125.71,125.71,0,0,1-.25,14.32c-2.11-4.69-5.38-12.48-6.59-18.17-1.81-8.52-2.54-13.38,2.15-21.8.42-.75.95-1.62,1.54-2.61,6.46-10.67,21.59-35.55-.42-70.41q-1.22-1.89-2.41-3.78c-.1,1.53-.19,3.06-.29,4.59a58.69,58.69,0,0,1-6.49,22c-5.61,10.16-3.91,21.81-2.55,31.16.16,1.1.32,2.17.46,3.21a35.3,35.3,0,0,1-1.69,14.94c-2.67-6.57-8.06-22.35-6.44-39.77,2.27-24.45-6.83-44.16-27.05-57.23l-1.47-.95-.69,1.8c-.6,1.6-14.62,38.9,5.57,56.75.15.12,15.17,15.87,20,35.93-3.95-1.51-12.7-6.58-20.85-23.49-5-10.24-15.5-22.2-37.42-18.5-.38.07-.64.12-.76.13l-1.82,0c.07.65.14,1.31.2,2s4.48,38,41.74,46.48l.14,0c.22-.07,22.56,3.47,26.64,21.1l0,.11c0,.1,2.77,9.09,4.58,16a40.78,40.78,0,0,1-10.69-11.74l-1.37-2.22C290,460.58,288.38,459,267,458c-.08,0-8.76-.58-13.26-6.71l-4.58-6.25c.65,2.63,1.31,5.25,2,7.88a83.46,83.46,0,0,0,8.18,19.75c7.58,13,17.27,19.45,28.09,18.91h.14c.84-.19,19.6-2.5,32,23.7-.45-.34-.93-.69-1.42-1.07-3.88-2.92-12.88-7.63-29.57-4.89-14.43,2.44-19.63.84-23.43-.42-.54-.18-1.06-.35-1.58-.49l-3.55-1c.6,1.15,1.2,2.3,1.79,3.45.15.32,13.49,25.39,33.27,24.86a24.68,24.68,0,0,0,9.36-2.15c5.28-2.29,10.33-2.24,15,.13,7.88,4,13.29,13.6,16.24,20.23-.78-.8-1.62-1.69-2.5-2.66-5-5.47-14.44-10.95-31.15-4.9-.11.05-11.63,5-23.07,1.74l-3.36-1c.53,1.11,1.07,2.22,1.61,3.33.12.35,12.47,24.7,40.42,20.44,18.86-2.75,27.4,9.91,30.7,17-.69-.55-1.39-1.14-2-1.71-2.41-2.18-11.9-9.2-32.68-2.52-18.42,6-25.31-.08-25.36-.18q-3.42-3.42-6.85-6.81L286,585.6c.46,1,11.54,22,33,24.69h.18c.49,0,12-.06,17.11-2C339.74,607,351,604,359.61,615a14.06,14.06,0,0,1-2.4-1l-.1-.05c-.6-.29-14.91-6.56-26.08,3.44l-.1.11c-.09.1-9.14,9.71-21.62,7.9l-4.46-.63c1.07,1.14,2.15,2.27,3.23,3.41a34,34,0,0,0,12.7,7.69,37.2,37.2,0,0,0,11.51,2.1c6.29.16,13.86-1.18,22.37-5.56l.19-.11c.09-.07,8.53-6.15,14.41-.82,3.28,3,8.45,3.21,15.38.8a51.91,51.91,0,0,0,9.05-4.23l.76-.5-.1-1s-.5-6.55,11.16-10.24c6.33-2,10.68-7.71,12.57-16.63a63.71,63.71,0,0,0-.14-23.79C417.67,574.43,417.41,573,417.14,571.58Zm-12.7,41.56c-11.21,3.56-12.85,9.86-13,12.41-4.66,2.67-15.66,7.69-20.36,3.45-7.32-6.66-16.72-.33-17.84.48-19.28,9.91-33.17,3.65-39.41-.66,10.95-.55,18.4-8.12,19.19-9,9.55-8.48,22.25-3.32,23.07-3,4.06,2.19,6.79,1.89,7.08,1.85l2.25-.32-1.3-2.14c-10-16.48-24.6-12.66-28.83-11-4.44,1.66-14.95,1.76-16,1.79-13.8-1.8-23.17-12.09-27.65-18.34,4.4,1.28,11.74,1.76,22.91-1.86,19.89-6.37,28.45.51,30,1.86a71.14,71.14,0,0,0,6.29,4.95c1.07.74,2.14,1.48,3.2,2.23l-1-4c-2.49-9.6-13.16-27.48-35.72-24.19-20.16,3-31.34-9.45-35.49-15.66A42.46,42.46,0,0,0,303,549.44c15.23-5.49,23.68-.7,28.09,4.12a105.15,105.15,0,0,0,7.57,7.57l4.16,3.62-1.88-5.43,0-.11c-1.69-5.09-8.15-22.3-20.24-28.44-5.45-2.75-11.28-2.83-17.33-.19-9.32,4.06-18.66,1.77-27.77-6.82a60.63,60.63,0,0,1-9-11c4,1.1,10,1.83,22.33-.24,15.72-2.57,24,1.7,27.54,4.35,3.34,2.53,5.86,4.27,5.89,4.29l4,2.76-1.84-4.75C317.65,501.58,308,494,301,490.9a26.49,26.49,0,0,0-13.7-2.53c-9.84.5-18.35-5.37-25.43-17.5a79.29,79.29,0,0,1-6.06-13.22,24.45,24.45,0,0,0,10.88,3.63c20.78,1,21.45,2.3,26.67,10.68.43.7.88,1.44,1.38,2.23,7,11.19,14.65,14.51,15,14.65l2.69,1.15-.72-3.06c-1.56-6.72-5.23-18.82-5.55-19.86-4.51-19.31-27.21-23.29-28.93-23.41-30.76-7.2-37.89-34.85-39.22-42.3,19.89-3.09,29.43,7.73,33.95,17,11.74,24.29,24.8,25.64,25.35,25.7l2,.16c-.14-.71-.27-1.43-.41-2.15-4.27-22.22-20.69-39.55-21.46-40.27-7.75-6.94-10.95-17.84-9.5-32.59a89.6,89.6,0,0,1,4-18.71c18.14,12.37,26.27,30.61,24.18,53.15-2.21,23.79,7.76,43.95,8.19,44.82l1.34,2.69,1.28-2.76c.18-.41,4.57-10,3.2-20.15-.14-1-.3-2.14-.46-3.25-1.36-9.3-2.89-19.84,2.16-28.95a60.23,60.23,0,0,0,6.37-19c17.7,31.07,4.63,52.58-1.77,63.19-.62,1-1.17,1.93-1.6,2.71-5.28,9.51-4.45,15.13-2.51,24.24s8.46,22.38,8.74,23l1.41,2.89c.41-1,.83-2,1.24-3,1.84-4.4,1.36-18.3,1.29-19.92-1.23-20,3.52-25.24,10.89-30.75a22,22,0,0,0,7.37-10.9c5.11,18.86,3,28.33-8.16,41.4-6.57,7.75-8.55,19.71-5.71,34.49a95.79,95.79,0,0,0,6.22,20l1.37,3,1.29-2.92c2.48-5.65,1.77-13.26,1.73-13.65,0-.17-2.35-18.88,8.05-26.16,7.39-5.15,10-13.74,10.88-19.7,9.32,24.47,5.06,29.87-4.29,41.87-1.18,1.5-2.42,3.11-3.72,4.85-5.55,7.44-6.65,19.07-3.19,33.58a105.75,105.75,0,0,0,6.84,19.64l1.29,2.67,1.3-2.51c.13-.24.25-.42.37-.6,1.13-1.71,1.78-3.26,2.15-15.28,0-1.28.07-2.49.1-3.63.28-11.44.4-16.21,8.11-22.72,5.87-5,8.36-12.26,9.4-17.23,14,36.44-7.85,50.77-8.82,51.46l-.23.19c-8.39,8.42-7.89,12.18-5.83,20.54l0,.16c1.94,7.85,8.94,19.6,9.24,20.1l.8,1.34,1.2-.72c4.1-2.45,4.07-9.85,4.06-10.66-.14-19.67.74-20.47,9.13-27.72l.56-.47c5.84-5,8.48-12.72,9.65-18.07,6.79,22.29,2.72,33.29-7.41,46.11-10.25,13-7.1,31.56-5.37,35.1.58,1.2,1.37,1.34,1.79,1.32a1.49,1.49,0,0,0,1.36-1.24,53.84,53.84,0,0,0,1.18-9.84c.57-13.6,13.24-19.78,13.33-19.8,5.9-2.48,11-9,13.7-13C417.45,594.64,414.79,609.89,404.44,613.14Z" style="fill: #010002"/>
    <path d="M565.77,165.12c-22.82-1.73-19.62,30.25-19.62,30.23,1.79-1.06,6.07-9.83,14.08-6.78s10.93,1.48,16,2.67c19.88,4.73,17.35,28,17.35,27.95l14.77-4.2L612,200.33q-5.34-12.65-10.69-25.28S589.57,167,565.77,165.12Z" style="fill: #f4c53d"/>
    <path d="M601.9,173.68c-.49-.32-12.39-8.34-36.3-10.21s-21,31.45-20.92,31.77c.1.94.19,1.89.29,2.83l2.06-1.23a9.23,9.23,0,0,0,1.89-1.92c2.29-2.72,5.74-6.82,11.08-4.8a30.91,30.91,0,0,0,11.26,2.21,22.93,22.93,0,0,1,4.9.53,19,19,0,0,1,11.75,7.78c5.21,7.65,4.18,18,4.17,18.05l-.3,2.79,17.79-5.06q2-8,4-15.93Q608,187.25,602.4,174Zm5.16,39.88L595.14,217c0-4-.65-11.56-5-17.94a22.47,22.47,0,0,0-13.93-9.38l-.44-.1a28.07,28.07,0,0,0-5-.51,28.08,28.08,0,0,1-10.32-2c-6.27-2.39-10.45,1.48-13,4.37a45.75,45.75,0,0,1,1.37-11.15c2.56-9.6,8.31-14.15,17.09-13.48,20.43,1.6,31.91,7.92,34.31,9.36q5.09,12,10.17,24.06Q608.75,206.87,607.06,213.56Z" style="fill: #010002"/>
    <path d="M576.09,263.46l.08,0Z" style="fill: #f4c53d"/>
    <path d="M689.71,310s13.6,1.17,17-3c-21.66-15.89-34-42.56-34-42.54,6.12,3.33,15.64,3.1,15.64,3.09-23.8-41.57-12.72-48.3-21.47-74.37s-23.7-34.14-27.39-37.19-28.45-10.69-37.78-7.55-9.91,10.52-11,10.29-8.64-3.2-11.55,4.81.87,12,9.42,19.38,12.92,6.26,17,13-.59,15.23-.59,15.23c-10.2,11.23-9,1.07-14.57,8.62S584,233.17,584,233.17c-5.24,26.1-19.81,25.05-19.81,25.06,7.76,6.25,11.33,5.41,11.87,5.23a.19.19,0,0,1,.08,0l-.08,0c-7.58,2.48-18.28,15.28-18.28,15.28C550.52,289.33,545,286.2,545,286.2c7.43,9.57,14.86,8.09,14.86,8.09a35.7,35.7,0,0,1-12.24,13.95c0-.49,168.13,53,162.11,34.47C703.69,324.69,689.71,310,689.71,310Z" style="fill: #f4c53d"/>
    <path d="M693.18,311.81c4.47.09,12-.3,14.7-3.55l1.12-1.35-1.65-1.21c-16.6-12.17-27.54-30.65-31.6-38.28a43.28,43.28,0,0,0,12.91,1.82l2.21-.06c-.44-.76-.88-1.52-1.31-2.28-14.93-26.07-15.93-38.34-16.9-50.19-.56-6.93-1.15-14.1-4.4-23.8-7.9-23.56-20.82-32.89-26.34-36.87-.7-.51-1.31-.95-1.71-1.28-4.29-3.54-29.55-11.13-39.17-7.89a17.11,17.11,0,0,0-10.65,9.56c-.09.17-.18.37-.27.54-7.7-2.06-11,2-12.33,5.75-3.35,9.21,1.63,14.14,10.05,21.46a48.14,48.14,0,0,0,9.55,6.47c3,1.64,5.05,2.73,7,6,3.21,5.27-.14,12.31-.65,13.32-5.15,5.64-6.94,5.37-8.39,5.15-2-.29-3.47-.21-6.15,3.45-5.67,7.73-6.62,13.78-6.65,14-4.93,24.55-18,24.07-18.55,24l-4.55-.32,4,3.24a32.75,32.75,0,0,0,7.38,4.68c-6.82,4.48-13.88,12.88-14.25,13.32l-.07.09c-6.42,9.35-11.11,7.17-11.11,7.16l-6-3.39q2.25,2.88,4.49,5.78c5,6.41,10,8.27,13.13,8.74a34.28,34.28,0,0,1-10.32,10.87l-3.23,1.89,4,1.19c.38.06,38.69,11.77,77.6,22.47,18.72,5.11,33.28,8.68,44.63,11.12,36.82,7.86,39.78,4,40.94,2.59a3.74,3.74,0,0,0,.45-3.61C706.51,328.69,697.59,317,693.18,311.81Zm15.09,31.77c-1.54,1.89-12.74,4.72-83-14.49-32-8.77-63.59-18.31-74-21.38a38.89,38.89,0,0,0,9.89-12.42c.56-1.09,1.11-2.18,1.66-3.28l-3.49.65c-.23,0-5.08.85-10.67-4.46,2.62-.44,6.27-2.35,10.34-8.26.67-.8,10.64-12.46,17.6-14.85a1.73,1.73,0,0,0,.33-.12c-.47-1-1-2.09-1.42-3.14l-.15.05c-.39.09-2.6.41-7.16-2.54,5-1.46,13.49-6.72,17.29-25.6,0-.05.92-5.65,6.16-12.8,2.07-2.82,2.8-2.71,3.9-2.54,2.49.37,5,.18,10.59-6l.17-.23c.21-.39,5.06-9.43.45-17-2.57-4.23-5.33-5.73-8.53-7.46a43.77,43.77,0,0,1-8.88-6c-8.66-7.53-11.25-10.52-8.79-17.29,2.28-6.28,7.84-4.7,9.67-4.18l.49.13c1.23.27,1.74-.77,2.33-2a14.75,14.75,0,0,1,9.32-8.36c8.92-3,33.13,4.53,36.4,7.22.49.41,1.12.86,1.9,1.43,5.2,3.76,17.36,12.54,24.83,34.81,3.09,9.22,3.63,15.84,4.2,22.85,1,11.92,2,24.25,16.08,49.52-3.08-.14-8.69-.71-12.65-2.87l-3.54-1.92c.61,1.3,1.22,2.61,1.82,3.91.5,1.07,12.16,25.82,32.68,41.87-3.68,1.88-11.45,1.74-14.56,1.47L685.9,308l2.91,3.06c.13.15,13.72,14.56,19.53,31.93C708.43,343.31,708.4,343.42,708.27,343.58Z" style="fill: #010002"/>
    <path d="M592.32,173.67c-3.23-6.19-.24-13.93-.21-14l-2.75-1.8c-.15.37-3.6,9.23.46,17,2.35,4.52,6.66,7.65,12.79,9.29,0-1.07.1-2.14.14-3.21C597.64,179.59,594.12,177.14,592.32,173.67Z" style="fill: #010002"/>
    <path d="M630,185.32c-4.07-6.78-13.13-11.6-18-7.11,0,0-5,5-9.33,4.36a33,33,0,0,1,8.38,6.94c3.42,4.19,7,7.49,12.09,7.84s5.9-2.41,8.31-3.65a10,10,0,0,1,4.88-1A26.94,26.94,0,0,1,630,185.32Z" style="fill: #f4c53d"/>
    <path d="M631.2,184.6a21.34,21.34,0,0,0-11.61-9.32c-3.42-1-6.49-.41-8.69,1.6-1.27,1.27-5.24,4.48-8.32,4.05l-7.85-1.09,7.51,4.18a31.37,31.37,0,0,1,7.82,6.47c3,3.69,6.46,7.18,11.29,8.23a14.16,14.16,0,0,0,2,.29,8.66,8.66,0,0,0,7.28-2.54,8.58,8.58,0,0,1,1.65-1.24,8.84,8.84,0,0,1,4.24-.91l5,.41L637,191.34A25.48,25.48,0,0,1,631.2,184.6Zm-.57,7.58a10.36,10.36,0,0,0-2.1,1.54,6.38,6.38,0,0,1-5.58,2c-4.43-.31-7.55-3.09-10.89-7.16a31.13,31.13,0,0,0-5.17-4.9,19.49,19.49,0,0,0,6.18-4.08,6.49,6.49,0,0,1,6.34-1.08,17.35,17.35,0,0,1,9.42,7.56,31.17,31.17,0,0,0,4,5.31A10.2,10.2,0,0,0,630.63,192.18Z" style="fill: #010002"/>
    <path d="M1095.21,197c0-.14-22,13.5-49.3,26.22-27.36,13-60.11,25.16-81.73,29.52-40.95,67.79-81.9,131.93-122.85,193.76-23.9,7.19-47.79,13.6-71.69,19.48q-3.63,27.38-7.28,54.72s18.07,19.4,33.22,5.64a21.64,21.64,0,0,0,18.35,8.49c12.24-.6,14.28-7.44,15.45-11.31,0,0,10.59,8.16,19.52,3.82s8.94-12.44,8.94-12.43,15.54,4.94,23.5-6,3.11-22.72-1.16-24.41c0,0,16.8,6.11,21.37-9.48,3.88-13.22-4.86-20.67-4.86-20.69,0,.19,35.4,1.73,49.92-10.7,0,0,12-8.36,4.86-17,0,.2,31.86-6.24,39.82-20.93A13.43,13.43,0,0,0,993.62,395s-.19-3.79-3.69-3.78c0,.28,36.33-9.05,46.82-24.06,0,0,5-6.78,2.52-14.48a13,13,0,0,0-1.41-3.35c0,.22,33.08-12.78,49.39-33.15,0,0,9.42-11.49,4.57-22.62,0,.92,55.26-32.55,42.44-55.55,0,.2,25.84-18.42,17.68-41,0,.14,21.37-20.28,12-35.38C1155.06,147.22,1127.66,179.06,1095.21,197Z" style="fill: #f4c53d"/>
    <path d="M1122.26,177.3c-8.31,6.13-17.74,12.85-27.49,18.26-.44.14-22.49,13.76-49.76,26.38-27.27,12.95-59.76,24.91-81.08,29.2l-.63.13c-41,67.8-82,131.94-122.94,193.78-24,7.21-48,13.63-72.06,19.53l-7.53,56.52.65.69c.13.14,8.58,9.06,18.9,10.81a18.47,18.47,0,0,0,15.22-4,23.2,23.2,0,0,0,18.65,7.89c11.41-.57,14.61-6.39,16-10.54,3.46,2.21,11.85,6.57,19.37,2.91a16.5,16.5,0,0,0,9.51-12c4.32,1,16.42,2.68,23.4-6.9a21.9,21.9,0,0,0,3.73-19.32,16.79,16.79,0,0,0-1.46-3.5,22.85,22.85,0,0,0,4.57.09c6.85-.62,11.55-4.69,13.6-11.66a22.21,22.21,0,0,0-2.85-19.51c9.34.29,35.12-.79,47.35-11.12.73-.5,6.91-5.08,7.7-11.26a10,10,0,0,0-1.1-6c7.63-1.55,31.29-8.34,38.41-21.12a15.43,15.43,0,0,0,2.63-11.92,6.53,6.53,0,0,0-1-2.91c9.85-2.55,35-11.35,43.71-23.68.23-.3,5.61-7.69,2.86-16.06a15.67,15.67,0,0,0-.64-1.91c7.34-2.81,33.82-15.12,48.18-33,.1-.1,9.3-11.56,5.53-23,7.16-3.85,35.94-22.69,42.54-41.88,1.83-5.25,1.82-10,0-14.05,3.59-2.81,12.33-10.64,16.49-21.44a29.12,29.12,0,0,0,1-19.69c3-3,10.79-11.83,13.31-21.74,1.46-5.75.87-10.8-1.75-15C1158.43,149.24,1142.47,162.41,1122.26,177.3Zm42-1.8c-2.68,10.55-12.85,20.22-13,20.28l-1.16,1.08c.15.39.29.78.43,1.18a25.3,25.3,0,0,1-.41,18.25c-4.63,12-16.21,20.26-16.33,20.31l-1.67,1.15.82,1.43c2.12,3.7,2.33,7.85.64,12.69-6.82,20-41.81,40.37-42.16,40.2l-1.65.9.68,1.55c4.36,10-3.84,20.25-4.2,20.67-15.83,19.73-48.37,32.67-48.7,32.57l-2.15.8,1.22,1.83a11.59,11.59,0,0,1,1.24,3c2.2,6.7-2,12.57-2.24,12.84-10,14.31-45.57,23.57-45.93,23.38,0,1.07.1,2.14.14,3.21a2.3,2.3,0,0,1,2.3,2.36l0,.21a11.63,11.63,0,0,1-1.92,9.2l-.21.3c-7.52,13.84-38.49,20.24-38.81,20.11l-2.68.48c.6.74,1.21,1.47,1.82,2.21a7.1,7.1,0,0,1,1.85,5.59c-.62,4.92-6.34,9-6.4,9l-.11.08c-14,11.93-48.68,10.57-49,10.37-1.49-.08-3-.17-4.46-.27l3.59,3.15c.33.29,7.82,7,4.32,18.85-4.08,13.93-19,8.79-19.58,8.52l-.78,3.07c1.12.44,2.75,2.34,3.67,5.44.76,2.53,1.94,9.21-3.28,16.36-7.3,10-21.89,5.58-22,5.51l-1.74-.55c0,.65,0,1.3,0,1.94,0,.29-.18,7.22-8.17,11.09s-18-3.53-18.07-3.61l-1.6-1.23-.55,1.85c-1.1,3.64-2.94,9.8-14.29,10.36a19.87,19.87,0,0,1-17-7.72l-1-1.51-1.15,1c-12.62,11.45-27.3-1.5-30.59-4.73q3.52-26.44,7-52.89c23.77-5.87,47.54-12.27,71.3-19.45C883.21,386.13,924.13,322,965.05,254.19c21.54-4.43,54-16.47,81.12-29.42,27.15-12.63,49-26.19,49.44-26.31,9.85-5.48,19.35-12.27,27.73-18.48,19.58-14.49,33.73-26.18,39.34-17.08C1164.91,166.5,1165.43,170.74,1164.22,175.5Z" style="fill: #010002"/>
    <path d="M980.61,250.34c-5.54-1.21-15.92,2.26-15.92,2.24C902.72,270.82,863.28,280,839.34,287c-24,6.6-32.4,11-32.4,10.85-23.31,11.85-17.63,50-2.33,64.85,6.25,6,5.83,14.76,1.28,18.86-5.44,4.9-12.35-1.42-12.35-1.42-20.54-14.46-32-7.17-32-7.15s-19.38,99.5,6,116.35c25.35,16.7,32.49.15,32.49.2,9.32,5,15.59,2.32,15.59,2.32,12.53-3.61,9.61-19.34,9.61-19.33s7.14,7.7,15.74,4.54C851.94,473,848,458.25,848,458.26c15.05,2.15,21.07-6.45,21.07-6.43,8.16-12-5.73-20.92-5.73-20.94,5.54,1.91,13.46,2.15,13.46,2.14,14.62.16,29.47-6,35.79-18s-6.22-13.05-6.22-13.07c16.51-2.77,21.76-12.42,21.76-12.38,11.94-17.33-5-19.71-5-19.75,22.64-1.86,29-16.08,29-16,7.18-13.27-7.77-17.87-7.77-17.91A86.17,86.17,0,0,0,955.94,332c17.48-6.8,23.11-17.32,19.23-27-4.07-10.13-13.6-7.62-13.6-7.64a120.82,120.82,0,0,0,17.1-7.52C997.31,279,991.76,261.93,991.76,262A15.12,15.12,0,0,0,980.61,250.34Z" style="fill: #f4c53d"/>
    <path d="M981,248.75c-5.85-1.28-16.24,2.15-16.65,2.26-64.09,19-103.62,27.77-125.5,34.4-23.8,6.75-32.28,10.72-32.65,10.95-9.95,5.1-15.75,15.24-16.33,28.71-.62,14.31,5.09,30.32,13.89,38.81a13,13,0,0,1,4.08,8.52,9.84,9.84,0,0,1-2.94,7.84c-4.48,4-10.25-1.08-10.49-1.3l-.18-.14c-21.12-14.85-33.1-7.6-33.6-7.26l-.45.29c0,.19-.08.39-.11.58-.81,4.1-19.32,100.93,6.82,118.32,6.84,4.52,12.41,6.64,16.87,7.38a18.33,18.33,0,0,0,10.17-.87,14.67,14.67,0,0,0,6.75-5.63c8.72,4.21,14.71,2.14,15.49,1.84,9.61-2.81,10.85-12.26,10.76-17.48,3.08,2.23,8.47,4.92,14.59,2.67,8.56-3.17,9.36-12.56,8.41-18.53,14.26,1.28,20.15-6.87,20.42-7.23a14.38,14.38,0,0,0,2.5-11.54,17.85,17.85,0,0,0-4-7.49,66.08,66.08,0,0,0,8.07.81c20,.16,32.24-9.8,37-18.83,2.16-4.13,2.55-7.65,1.14-10.44a8.18,8.18,0,0,0-2.88-3.13c12.19-3.64,16.69-10.91,17.22-11.79,4.17-6.07,5.46-11.24,3.85-15.31a10,10,0,0,0-3.81-4.59c17.88-3.6,23.62-15,24.11-16,2.22-4.13,2.72-8,1.48-11.37a14.05,14.05,0,0,0-6.06-6.92c4.47-1.41,7.35-2.68,7.45-2.72C967,329.45,974,323.6,976.62,317a16.76,16.76,0,0,0-.09-12.64,13.43,13.43,0,0,0-7.69-8c5.75-2.43,10.2-4.87,10.47-5,18.72-10.94,14.38-28.18,13.89-29.81A16.58,16.58,0,0,0,981,248.75Zm-2.92,39.67a118.2,118.2,0,0,1-16.89,7.42l.72,3.13c.34-.07,8.38-2.08,11.93,6.76a13.11,13.11,0,0,1,.1,10c-2.3,5.76-8.68,10.95-18.51,14.73a85.61,85.61,0,0,1-11.27,3.8l-5.4,1.4,5.34,1.73c.06,0,6.44,2.11,8.2,7,.88,2.45.45,5.33-1.34,8.64a23.11,23.11,0,0,1-5.78,6.85c-3.88,3.25-10.86,7.39-22.09,8.27l0,3.23c.06,0,5.89,1,7.49,5,1.14,2.9-.09,7.1-3.56,12.13l-.08.13s-5.21,9-20.78,11.65l.24,3.22c1.29.12,4.91,1,6.12,3.35.86,1.72.48,4.16-1.15,7.25-5.56,10.61-18.82,17.43-34.57,17.28-.08,0-7.78-.26-13-2.07l-1,2.94c.06,0,5.94,3.9,7.23,9.6a11.07,11.07,0,0,1-2,8.88c-.23.3-5.85,7.89-19.84,5.89l-2.05-.3c.2.74.39,1.48.59,2.22.14.53,3.42,13.36-6.33,17-7.6,2.79-13.9-3.81-14.16-4.09l-3.31-3.56c.3,1.6.6,3.2.89,4.8.11.57,2.53,14.37-8.7,17.61l-.13,0c-.06,0-5.89,2.32-14.44-2.24l-1.27-.67c-.19.41-.37.83-.56,1.25s-7,14.84-30.54-.7c-9.74-6.44-13.76-28.17-11.62-62.71a458.68,458.68,0,0,1,6.38-51c2.24-1.14,12.61-5,30,7.21,2.79,2.5,9.19,5.91,14.13,1.46a12.8,12.8,0,0,0,3.84-10.26,16.76,16.76,0,0,0-5.27-11.09c-8-7.76-13.27-22.54-12.69-35.84.53-12.37,5.83-21.67,14.9-26.33.08-.09,8.73-4.13,32.36-10.85,21.8-6.62,61.18-15.38,125-34.39.1,0,10.08-3.31,15.17-2.2a13.77,13.77,0,0,1,10.06,10.46l.06.22C990.57,263.2,995.2,278.45,978.05,288.42Z" style="fill: #010002"/>
    <path d="M696.65,392.9" style="fill: #f6e200"/>
    <path d="M696.65,392.9" style="fill: none;stroke: #010002;stroke-width: 3px"/>
    <path d="M987.83,280l.54,3.16c61.43-16.42,102.4-39.86,128.08-56.81,25.67-17.34,36-28.2,36.23-28.28l-1.48-2.25c-.2.08-10.49,10.8-36,28C1089.67,240.56,1048.93,263.75,987.83,280Z" style="fill: #010002"/>
    <path d="M467.55,597.43q-4.37-7.75-8.74-15.49-9,7.23-18.07,14.59S426,622.18,408.11,620.65c0-.13-30.74-7.25-39.44,1.13-6.06,5.71-12.24,10.43-14.76,26s4.85,19.3,6.6,20.09c0,0,1.36,11.24,11.46,9,0,0,.59,11.59,18.46,7.59s25.25-1.12,28.75-20.21,6.72-18.35,9.91-20.27c4.27-2.59,12.3-4.45,18.26-7.34,5.35-2.65,25.83-10.84,32.83-10.5s5.43-25.73,5.43-25.74Q476.58,598.88,467.55,597.43Z" style="fill: #f4c53d"/>
    <path d="M487,599.06q-9.33-1.62-18.67-3.13l-9.24-16.38q-9.66,7.74-19.32,15.62l-.19.15-.12.21c-.14.26-14.5,24.83-31.28,23.5-2.36-.69-31.6-7.09-40.51,1.49l-1.4,1.3c-5.61,5.22-11.4,10.69-13.82,25.59-2.35,14.46,3.4,19.71,6.77,21.55.38,1.77,1.49,5.5,4.43,7.84a9.53,9.53,0,0,0,7.19,2,10.71,10.71,0,0,0,3.32,5.21,13.14,13.14,0,0,0,7.69,2.92,30.22,30.22,0,0,0,9-.79c3-.66,5.74-1.13,8.16-1.53,12-2,18.55-2.95,21.63-19.79,2.95-16.06,5.54-17.37,8.05-18.63.41-.21.82-.42,1.23-.66a50.58,50.58,0,0,1,8.8-3.63,91.39,91.39,0,0,0,9.38-3.65c5.26-2.6,25.6-10.71,32.26-10.38,8,.34,7-22.62,6.74-27.23Zm-7,25.47c-7.6-.36-28.69,8.3-33.39,10.64a90,90,0,0,1-9.11,3.55,52.13,52.13,0,0,0-9.24,3.85c-.35.21-.71.39-1.06.57-3.08,1.55-6.27,3.17-9.47,20.66-2.73,14.86-7.62,15.55-19.44,17.53-2.44.42-5.21.89-8.27,1.57-6.41,1.41-11.29,1-14.09-1.41a7.12,7.12,0,0,1-2.48-4.56c0-.66-.06-1.33-.1-2l-1.75.37a7.24,7.24,0,0,1-6.29-1.08c-2.75-2.19-3.32-6.46-3.33-6.5l-.12-1-.86-.39c-2.41-1.07-7.79-5-5.63-18.22,2.24-13.81,7.42-18.69,12.9-23.77l1.41-1.32c6.71-6.42,29.89-2.93,38.25-.8l.1,0h.11c7.83.67,15.93-3.32,24.07-11.87a76.26,76.26,0,0,0,9.69-12.67q8.31-6.76,16.62-13.42,4.13,7.29,8.24,14.61,8.73,1.4,17.45,2.89C484.62,611.6,483.62,624.68,480,624.53Z" style="fill: #010002"/>
    <path d="M976.16,308.08c.09,1.07.17,2.15.26,3.22,24.89-3.12,64.2-17.93,97.42-35.35,33.21-16.88,60.34-36.38,60.88-36.58-.3-.92-.61-1.85-.92-2.77-.53.19-27.58,19.57-60.68,36.35C1040,290.27,1000.89,305,976.16,308.08Z" style="fill: #010002"/>
    <path d="M954.3,344.13c.16,1.07.33,2.13.49,3.2,73.3-13.59,136.84-51.83,137.47-52.35-.29-1-.59-1.92-.89-2.88C1090.74,292.62,1027.39,330.63,954.3,344.13Z" style="fill: #010002"/>
    <path d="M932.2,375.77l.24,3.24c33.83-1,105-26.82,105.77-28.17l-.69-3.06C1036.81,349.13,965.8,374.79,932.2,375.77Z" style="fill: #010002"/>
    <path d="M914.05,405.7c.1,1.08.19,2.16.29,3.24,15.22-.18,73.42-14.72,75.89-16.18l-.6-3.13C989,390.56,929.11,405.58,914.05,405.7Z" style="fill: #010002"/>
    <path d="M876.5,581.16q9.57.63,19.13,1.05-13.71,63-27.43,125.49,5.81,5.12,11.63,10.17Q893.92,652.41,908,586.48q8.46,5.81,16.93,11.43-1.52-52.56-3-105.11Q899.21,537.6,876.5,581.16Z" style="fill: #0081c6"/>
    <path d="M874,582.61q9.88.67,19.77,1.14-13.61,62.44-27.22,124.47,7.11,6.28,14.24,12.47Q894.89,655.1,909,589q8.76,6,17.51,11.78-1.65-57-3.29-114Q898.6,535.46,874,582.61Zm33,1.32Q893,649.72,878.88,715.06q-4.5-3.93-9-7.89,13.82-63,27.64-126.5-9.24-.39-18.49-1,20.81-40,41.59-80.93Q922,546.88,923.38,595,915.19,589.55,907,583.93Z" style="fill: #010002"/>
    <path d="M889.85,429.85l-.06,3.25,1.47.11c18.28,1.65,58.67-4.42,60.43-5-.15-1.07-.3-2.14-.44-3.21C950.81,425.4,907.1,431.91,889.85,429.85Z" style="fill: #010002"/>
    <path d="M870.05,451.39c8.55,2.4,25.84,4.53,26.57,4.57,0-1.08.09-2.16.14-3.23-.18,0-17.84-2.14-26.23-4.5Z" style="fill: #010002"/>
    <path d="M855.29,472.76c9,7.35,23.87,13.08,24.5,13.29.26-1,.51-2.05.77-3.07-.15,0-15-5.75-23.67-12.78C856.35,471.05,855.82,471.91,855.29,472.76Z" style="fill: #010002"/>
    <path d="M841.89,494.06l-2.69,1a43.47,43.47,0,0,0,18.1,21.28c.36-1,.72-1.94,1.07-2.92A40.38,40.38,0,0,1,841.89,494.06Z" style="fill: #010002"/>
    <path d="M821.24,503.61l-3-.21c.62,10.5,9.72,20.78,10.11,21.2l2-2.16C830.28,522.36,821.78,512.76,821.24,503.61Z" style="fill: #010002"/>
    <path d="M971.3,605.32c-28.09,37-56.18,72.3-84.28,106.24l9.16,11.86c28.2-34.69,56.4-70.76,84.6-108.66q5.28,9.06,10.57,18,20-48.51,40.07-98.32c-25.72,22-51.45,42.31-77.17,61.2Q962.77,600.61,971.3,605.32Z" style="fill: #0081c6"/>
    <path d="M969,605.87c-28,36.78-56,71.82-83.92,105.57q5.58,7.26,11.15,14.46c28.13-34.61,56.26-70.59,84.38-108.38q5.48,9.39,10.95,18.69,21.72-52.59,43.43-106.71c-27.87,24-55.74,46-83.61,66.36Q960.18,601,969,605.87Zm22.18,23.54Q986.06,620.76,981,612c-28.28,38-56.55,74.17-84.82,109L889,711.68c28.21-34.15,56.42-69.65,84.63-106.93q-8.24-4.51-16.48-9.24c23.58-17.41,47.15-36,70.73-56Q1009.51,585,991.16,629.41Z" style="fill: #010002"/>
    <path d="M795.19,509.48c2.06,12.72-.6,15.49-.63,15.52l1,1.34,1,1.38c.42-.32,4-3.6,1.56-18.36Z" style="fill: #010002"/>
    <path d="M949.13,550.39Q911,630.1,872.91,706.08q5.83,4.26,11.67,8.43,37.84-76.8,75.71-157.11,7,7.59,13.94,15Q984.55,520.86,994.87,469q-32.14,39.51-64.3,75.94Q939.86,547.75,949.13,550.39Z" style="fill: #0081c6"/>
    <path d="M947,551.45q-38,79.37-76,155.07,7.11,5.21,14.23,10.3,37.76-76.61,75.5-156.7,7.2,7.85,14.42,15.54,11.19-55.95,22.38-112.28-34.85,43-69.7,82.32Q937.37,548.7,947,551.45Zm26.41,17.76q-6.72-7.2-13.46-14.53-38,80.67-75.93,157.53-4.54-3.27-9.1-6.57,38.22-76.44,76.43-156.31-9-2.52-17.95-5.26,29.46-33.57,58.91-69.57Q982.82,522,973.37,569.21Z" style="fill: #010002"/>
    <path d="M799.64,479.41c.53,5.77-1,9.2-1,9.23l2.67,1.82c.08-.17,1.93-4.17,1.31-10.92Z" style="fill: #010002"/>
    <path d="M418.67,368c-40.95-71.72-81.9-141.13-122.85-206.88-21.62-3.7-54.38-10.75-81.73-14.86-27.35-4.44-49.3-5.93-49.3-6.07C132.34,138.47,104.94,128,96,149.66c-9.32,22.54,12,25.88,12,26-8.16,28.49,17.67,28.24,17.67,28.45-12.82,30.32,42.45,30,42.45,30.92-4.85,13.52,4.56,20.39,4.56,20.41,16.32,11.9,49.39,14.19,49.39,14.41a17.71,17.71,0,0,0-1.4,3.76,14.46,14.46,0,0,0,2.52,13.76c10.49,11.23,46.82,14.2,46.82,14.48-3.5.45-3.69,4.28-3.69,4.28-1.17,6.8,2.33,10.37,2.33,10.37,8,13.1,39.82,17.87,39.82,18.07-7.19,8.79,4.86,17,4.86,17,14.52,11.84,49.92,13.76,49.92,13.94,0,0-8.74,6.43-4.86,20.1,4.57,16,21.37,12.43,21.37,12.47-4.27,1-9.13,12.06-1.16,24.21s23.5,10.34,23.5,10.37,0,8,8.94,14.39,19.52,1,19.52,1c1.17,4.2,3.21,11.48,15.44,15.58s18.36-2.92,18.36-2.93c15.15,18.51,33.22,5.63,33.22,5.63L490.35,409C466.46,394.74,442.57,381,418.67,368Z" style="fill: #f4c53d"/>
    <path d="M419.64,366.8c-41-71.81-82-141.32-122.94-207.17l-.63-.11c-21.32-3.65-53.81-10.68-81.09-14.81-27.27-4.46-49.34-6-49.8-6.17-9.7-.5-19.13-1.86-27.44-2.84-20.21-2.41-36.17-2.91-43,13.72-2.63,6.37-3.22,11.91-1.75,16.46,2.51,7.79,10.36,10.44,13.31,11.24-2,7.8-1.67,14.17,1,19,4.16,7.6,12.9,9.2,16.48,9.62-1.83,5.34-1.84,10.06,0,14.06,6.6,14.12,35.38,16,42.53,16.84-3.76,13.32,5.44,20.2,5.53,20.29,14.36,10.54,40.85,13.42,48.19,14.41-.4,1.11-.62,2-.62,2-2.77,9.29,2.61,15.08,2.82,15.3,8.72,9.5,33.88,12.88,43.73,14.39a7.39,7.39,0,0,0-1,3.05c-1.13,6.82,1.94,10.75,2.63,11.55,7.12,11.53,30.78,16.48,38.41,18.15a10.13,10.13,0,0,0-1.1,6c.79,6.14,7,10.64,7.7,11.16,12.23,10,38,12.88,47.35,13.93-2.5,3.31-5.55,9.68-2.85,19.19,3.29,11.56,12.43,13.73,18.19,13.95a14.45,14.45,0,0,0-1.49,3.32c-.9,2.9-2.34,10.62,3.74,19.89,7,10.64,19.08,11.28,23.4,11.19.53,3,2.46,9,9.51,14,7.52,5.34,15.91,3.12,19.37,1.82,1.44,4.55,4.64,11.13,16.05,14.95,10.07,3.4,16.27-.28,18.65-2.23,5,5.65,10.34,8.17,15.22,9,10.32,1.74,18.77-4.11,18.9-4.2l.64-.46q-3.75-29.61-7.52-59.21C467.68,393.71,443.66,379.86,419.64,366.8Zm45.81,92.9-1.14-1.39-1,1.17c-.23.27-5.79,6.37-17,2.59C435,458.26,433.13,451.71,432,447.75c-.18-.67-.37-1.34-.56-2l-1.6.81c-.09.05-9.95,4.95-18.06-.81s-8.16-12.6-8.17-12.89v-2l-1.76.19c-.15,0-14.74,1.5-22-9.63-5.23-8-4-14.46-3.28-16.88.92-3,2.55-4.6,3.67-4.86l-.78-3.19a21.88,21.88,0,0,1-8.38-.24c-5.73-1.34-9.5-5-11.2-11-3.5-12.31,4-18.09,4.31-18.32l3.67-2.67-4.53-.32c-.35-.2-35.07-2.2-49-13.61l-.11-.09c-.06,0-5.79-4-6.4-8.94a7.17,7.17,0,0,1,1.85-5.61l1.82-2.23-2.68-.46c-.32-.24-31.29-5-38.81-17.4l-.2-.27c-.12-.13-2.92-3.16-1.93-9l0-.2a2.69,2.69,0,0,1,2.29-2.67c.05-1.07.1-2.15.14-3.23-.35-.31-35.91-3.34-46-14.11a13,13,0,0,1-2.19-12.28,15.81,15.81,0,0,1,1.22-3.26l1.22-2.17-2.15-.19c-.33-.25-32.86-2.64-48.71-14.22-.35-.28-8.55-6.53-4.19-18.66l.68-1.88-1.65-.09c-.35-.38-35.34-1.32-42.16-15.83-1.69-3.7-1.49-8,.64-13.11l.81-2-1.67,0c-.11,0-11.69-.3-16.33-8.79-2.4-4.43-2.54-10.47-.4-17.95l.42-1.5-1.15-.21c-.1,0-10.26-1.89-12.94-10.22-1.22-3.78-.71-8.45,1.53-13.85,5.6-13.55,19.75-13.12,39.34-10.85,8.38,1,17.88,2.32,27.68,2.8.44.17,22.32,1.66,49.48,6,27.16,4.06,59.59,11,81.12,14.73,40.84,65.51,81.67,134.67,122.5,206.14.09.15.18.3.26.46C441.47,382.11,465.24,395.77,489,410q3.53,27.68,7,55.38C492.77,467.38,478.11,475.17,465.45,459.7Z" style="fill: #010002"/>
    <path d="M864.22,300.4l-1.11-3.12c-.85.34-20.93,7.09-27.91,18.78s-2.82,24.26-.37,31.78c.08.26.17.52.25.78s.3.84.57,1.54c8.78,23.19,8.22,40.86-1.67,52.48.75.79,1.51,1.58,2.26,2.38,13.31-15.67,8.5-39,2.12-55.81-.23-.63-.41-1.09-.5-1.37s-.17-.52-.26-.78c-2.26-6.94-6.05-18.56.14-29C844.2,307.22,864,300.52,864.22,300.4Z" style="fill: #010002"/>
    <path d="M466.46,315.16s-6.91,4.11-12.35-2.42c-4.55-5.45-5-14.32,1.28-18.46,15.3-10,21-46.48-2.33-65.56,0-.14-8.45-6.73-32.39-19.73-23.95-12.63-63.38-31.68-125.36-48,0,0-10.38-2.86-15.92-1-6.09,2-10.29,8-11.15,12.94,0,0-5.55,17.52,13.1,26.4a151.24,151.24,0,0,0,17.09,6.37s-9.53-2-13.6,8.49c-3.88,10.08,1.75,19.71,19.23,25.92a108.49,108.49,0,0,0,11.46,3.75s-14.95,4.77-7.76,17.94c0,.07,6.41,13.63,29,16.7,0,0-16.9,1.61-5,19.47,0,0,5.25,9.66,21.76,14.05,0,0-12.53-.13-6.22,12.48s21.17,20.33,35.79,22.72c0,0,7.92,1.13,13.46.35,0,0-13.89,6.31-5.73,19.84,0,0,6,9.57,21.08,10.82,0,0-3.91,13.8,7.13,20.51a14,14,0,0,0,15.74-.5s-2.92,14.86,9.61,22a20.64,20.64,0,0,0,15.59,2.33s7.14,18.45,32.49,10.62,6-114.21,6-114.22S487,307.32,466.46,315.16Z" style="fill: #f4c53d"/>
    <path d="M499.85,318.26l-.45-.45c-.5-.48-12.48-12.28-33.6-4.21l-.18.09c-.06,0-6,3.46-10.49-2a12.89,12.89,0,0,1-2.94-8.72,9.14,9.14,0,0,1,4.08-7.29c8.8-5.81,14.51-19.92,13.89-34.43-.58-13.66-6.38-25.73-16.35-33.84-.35-.23-8.83-7.15-32.63-19.9-21.88-11.3-61.41-31.4-125.47-48.11-.44-.15-10.83-3-16.68-1-6.76,2.19-11.26,8.82-12.23,14.2-.49,1.81-4.83,19.29,13.92,28.2.25.12,4.7,2.12,10.44,4.18a14.75,14.75,0,0,0-7.69,8.59,16.76,16.76,0,0,0-.09,12.64c2.65,6.42,9.64,11.63,20.15,15.39.15.06,3,1.24,7.51,2.61a14.29,14.29,0,0,0-6.06,7c-1.24,3.45-.74,7.27,1.48,11.35.49,1.07,6.23,12,24.11,16.36a9.34,9.34,0,0,0-3.81,4.42c-1.61,4-.32,9.22,3.86,15.47.52.94,5,8.28,17.21,13a7.06,7.06,0,0,0-2.88,2.88c-1.41,2.68-1,6.22,1.14,10.53,4.74,9.48,16.94,20.38,37,23.61a77,77,0,0,0,8,.63,14,14,0,0,0-3.95,6.76c-.89,3.75-.05,7.78,2.51,12,.25.42,6.14,9.51,20.41,11.4-1,5.77-.16,15.29,8.4,20.5a15.06,15.06,0,0,0,14.59,1c-.09,5.21,1.15,14.93,10.76,20.45a22,22,0,0,0,15.5,2.77,23.27,23.27,0,0,0,6.75,7.76,23.6,23.6,0,0,0,10.17,4.19c4.45.74,10,.52,16.86-1.58,26.14-7.92,7.63-111.45,6.83-115.87Zm-7.91,113.31c-23.59,7.3-30.26-8.76-30.53-9.48l-.56-1.44-1.28.28a19.42,19.42,0,0,1-14.43-2.06l-.13-.09c-11.19-6.38-8.82-19.48-8.71-20,.29-1.5.59-3,.88-4.51l-3.29,2.62a12.53,12.53,0,0,1-14.17.46c-9.7-5.9-6.47-17.95-6.33-18.47.2-.69.4-1.38.59-2.08l-2-.17c-14-1.17-19.62-9.67-19.83-10-2-3.36-2.71-6.48-2.05-9.28,1.27-5.45,7.17-8.2,7.23-8.22-.33-1-.65-2.09-1-3.13-5.27.74-13-.35-13-.35-15.78-2.57-29-10.74-34.6-21.85-1.62-3.24-2-5.71-1.15-7.35,1.21-2.3,4.83-2.78,6.12-2.76l.24-3.2c-15.57-4.16-20.73-13.16-20.77-13.28L333,297c-3.47-5.2-4.7-9.43-3.56-12.29,1.61-4,7.43-4.62,7.49-4.62,0-1.08,0-2.15,0-3.23-11.23-1.56-18.21-5.73-22.09-9a23.24,23.24,0,0,1-5.77-6.82l-.05-.1c-1.75-3.19-2.18-6.06-1.3-8.53,1.76-4.92,8.14-7,8.2-7q2.69-.84,5.38-1.65c-1.81-.51-3.63-1-5.44-1.49a105.36,105.36,0,0,1-11.33-3.72c-9.77-3.5-16.15-8.16-18.45-13.75a13.16,13.16,0,0,1,.1-10c3.52-9.09,11.59-7.57,11.93-7.49l.72-3.16A153,153,0,0,1,282,197.81c-17.17-8.21-12.55-23.76-12.35-24.46l.06-.24c.74-4.26,4.52-9.81,10.06-11.6,5.09-1.66,15.07,1,15.2,1.07,63.81,16.58,103.19,36.54,125,47.76C443.58,223,452.22,230,452.29,230c9.08,7.38,14.38,18.42,14.91,30.95.58,13.49-4.64,26.56-12.69,31.89a11.88,11.88,0,0,0-5.27,9.51,16.78,16.78,0,0,0,3.84,11.41,11,11,0,0,0,14.13,2.92c17.36-6.58,27.73,1.09,30,3A522.09,522.09,0,0,1,503.56,373C505.7,408.38,501.68,428.58,491.94,431.57Z" style="fill: #010002"/>
    <path d="M856.53,426.06c-.29,1-.59,2-.88,3,6.25,2.8,7.06,3.21,7.13,3.25.2-.48.4-.95.59-1.43l-1.07,1,1.07-1,1.08-1C864.11,429.46,864.09,429.45,856.53,426.06Z" style="fill: #010002"/>
    <path d="M882.3,401.5l0,3.25a117.3,117.3,0,0,0,24.36-1.23c-.19-1.07-.39-2.14-.58-3.21A116.08,116.08,0,0,1,882.3,401.5Z" style="fill: #010002"/>
    <path d="M895.55,368.18c0,1.08,0,2.16,0,3.24l2.68.19a200,200,0,0,0,25.17-.21c-.1-1.08-.19-2.16-.29-3.24A193.77,193.77,0,0,1,895.55,368.18Z" style="fill: #010002"/>
    <path d="M912.78,338.19l.06,3.25c11.08.36,31.08-3.74,31.92-4l-.57-3.19C944,334.38,923.6,338.55,912.78,338.19Z" style="fill: #010002"/>
    <path d="M917.08,306.12c.13,1.08.27,2.15.4,3.23,18.78-1.93,44.24-10.24,44.5-10.41-.27-1-.55-2.06-.82-3.1C960.91,296,935.65,304.22,917.08,306.12Z" style="fill: #010002"/>
    <path d="M876.33,320.33l-2,2.2c.07.09,7.17,8.07,6.62,17.32-.35,5.95-3.77,11.27-10.17,15.71l-1.12.79.74,1.36c.34.6,8.14,15.51-8.82,29.06l1.88,2.7c15.93-12.75,11.89-27.36,10.08-31.86,6.5-4.85,10-10.71,10.37-17.34C884.52,329.48,876.66,320.71,876.33,320.33Z" style="fill: #010002"/>
    <path d="M466.8,521.77c0-.06-22.76,18.48-22.17,43.94.59,25.87-4.08,28.07-13,35.62,0,0,18.46,4.08,27.39-7.94,0,0-.39,22.35-3.11,24,0,0,5.79,1.27,14.18-7.4,0,0,5.05-5,9.72-6.46,0,0-5.44,14.55-1.17,29.6,0,0,1.36-5.38,8.55-6.6,0,0,13-.63,18.06-20.29,0,0,3.31-13.13,23.7-21.26,0,0,23.12-4.94,22.54-17.51-.58-12.76-51.45-89.56-51.45-89.37S496.3,499.08,466.8,521.77Z" style="fill: #f4c53d"/>
    <path d="M499.14,474.2c-.19,1.1-.39,2.19-.58,3.29,0,.27-4,20.74-32.74,42.91A69.68,69.68,0,0,0,454.29,533c-5.26,7.31-11.46,18.93-11.14,32.5.54,23.61-3.32,26.77-11,33.18L430.63,600l-2.6,2.2,3.47.75c.71.13,16.09,3.39,25.89-5.32-.35,8.66-1.24,17.19-2.33,18.25L451.47,618l4.33,1c.27.06,6.59,1.33,15.35-7.71a36.3,36.3,0,0,1,6.1-4.72c-1.38,5.45-3.13,15.94,0,26.84.5,1.76,1,3.52,1.51,5.28l1.33-4.87c.05-.19,1.31-4.57,7.5-5.64,1.27-.11,14-1.5,19.12-21.25,0-.1,3.47-12.58,22.88-20.34,1.9-.46,24-5.58,23.4-18.89-.59-12.9-46.55-82.74-51.79-90.42Zm29.27,109.11-.18.05c-20.72,8.28-24.29,21.61-24.43,22.14-4.73,18.42-16.44,19.3-16.93,19.34h-.14a12.24,12.24,0,0,0-7.59,4.07,52.69,52.69,0,0,1,2-24.62l1.27-3.42-3.25,1c-4.88,1.52-10,6.54-10.21,6.77-4.53,4.69-8.22,6.31-10.5,6.85,1.47-5.25,1.89-15.3,2-21.86l.09-5.13c-.92,1.24-1.84,2.49-2.77,3.73-5.94,8-16.58,8.38-22.26,8,7.2-6.07,11.11-10.73,10.57-34.34-.56-24.39,21.45-42.61,21.65-42.72,23.43-18,30.8-34.82,32.93-41.56,15.15,22.75,48.86,76.06,49.3,85.6C550.42,576.53,534.56,582,528.41,583.31Z" style="fill: #010002"/>
    <path d="M865.88,396.34c0,.11.88,11.1-5.83,18.51-5,5.48-12.84,7.69-23.39,6.37l-1.92-.24c.16.7.33,1.4.49,2.1,0,.09,2.14,9.47-2.79,15.66-3.91,4.9-11.17,6.55-21.58,4.73l-1.25-.22-.24,1.32c-.14.75-3.67,19.25-25.3,11.75-.16,1-.33,2.08-.49,3.12a35.43,35.43,0,0,0,6.13,1.59c16,2.59,21-10,22.25-14.13,10.78,1.65,18.44-.37,22.8-5.85s4.13-12.86,3.68-16.39c10.55,1,18.56-1.6,23.83-7.44,7.59-8.42,6.61-20.42,6.56-20.91Z" style="fill: #010002"/>
    <path d="M891.36,709.87c-8.69-9.23-39.43-8.15-39.43-8.28-17.87-2.43-32.64-32.35-32.64-32.34q-9-9.9-18.07-19.92-4.37,6.39-8.74,12.74-9-1.44-18.06-3s-1.56,25.51,5.44,27.59,27.47,16.76,32.83,20.87c5.95,4.63,14,8.69,18.26,12.37,3.18,2.75,6.41,2.84,9.9,22.76s10.88,19.09,28.75,26.4,18.46-4.56,18.46-4.52c10.1,3.63,11.46-7.54,11.46-7.53,1.75-.55,9.13-3.52,6.6-19.34S897.42,716.44,891.36,709.87Z" style="fill: #f4c53d"/>
    <path d="M893.76,710.24l-1.39-1.49c-8.91-9.47-38.15-8.71-40.51-8.79-16.79-2.39-31.14-31.07-31.29-31.35l-.12-.25q-9.75-10.67-19.51-21.5-4.62,6.75-9.24,13.46-9.35-1.5-18.67-3.12l-.09,1.5c-.28,4.51-1.24,27.15,6.74,29.54,6.67,2,27,16.54,32.27,20.57a112.2,112.2,0,0,0,9.38,6.33,77.89,77.89,0,0,1,8.79,6c.41.36.82.67,1.23,1,2.51,1.91,5.1,3.88,8,20.67,3.08,17.57,9.67,20.18,21.63,24.64,2.42.9,5.16,1.92,8.17,3.14a31.17,31.17,0,0,0,9,2.38,11.32,11.32,0,0,0,7.69-1.69,8.81,8.81,0,0,0,3.32-4.72,8.69,8.69,0,0,0,7.2-1c2.94-2,4.05-5.58,4.43-7.3,3.36-1.43,9.11-6.12,6.76-20.81C905.17,722.31,899.37,716.21,893.76,710.24Zm5.27,45.2-.86.28-.12,1s-.59,4.24-3.31,6.06c-1.61,1.08-3.73,1.16-6.3.23l-1.73-.61c0,.65-.09,1.29-.13,1.94a5.93,5.93,0,0,1-2.47,4.2c-2.81,1.92-7.69,1.61-14.1-1-3-1.24-5.83-2.26-8.27-3.17C849.92,760,845,758,842.31,742.51c-3.21-18.26-6.39-20.67-9.47-23-.36-.27-.72-.54-1.07-.85a79.55,79.55,0,0,0-9.24-6.31c-3.12-2-6.35-4-9.11-6.12-4.7-3.6-25.79-18.83-33.39-21.15-3.62-1.08-4.62-14.51-4.21-24.15q8.71,1.5,17.45,2.9,4.13-6,8.24-12,8.31,9.21,16.63,18.33a107.49,107.49,0,0,0,9.68,15.33c8.15,10.7,16.25,16.67,24.07,17.74h.22c8.36-.09,31.53.59,38.25,7.77l1.41,1.52c5.48,5.84,10.65,11.3,12.9,25.35C906.82,751.35,901.44,754.67,899,755.44Z" style="fill: #010002"/>
    <path d="M815.41,637.33c.58-25.18-22.18-50.62-22.18-50.67C763.74,554.29,760,531.5,760,531.57S709.15,588.78,708.57,601c-.59,12.39,22.53,26.57,22.53,26.54,20.4,16.06,23.7,30.26,23.7,30.28,5.05,21.56,18.07,26.77,18.07,26.76,7.18,3.71,8.54,9.52,8.54,9.53,4.28-13.63-1.16-30-1.16-30,4.66,3,9.71,9.68,9.71,9.68,8.39,11.4,14.18,11.86,14.18,11.86-2.72-2.43-3.11-24.9-3.11-24.9,8.94,14.88,27.39,15.85,27.39,15.81C819.49,666.62,814.81,663,815.41,637.33Z" style="fill: #f4c53d"/>
    <path d="M827.89,673.79c-7.69-8.46-11.54-12.76-11-36.21.31-13.48-5.89-26.86-11.14-35.76a114.46,114.46,0,0,0-11.56-16.25c-15-16.38-23.08-30.29-27.24-39-4.49-9.42-5.47-15-5.48-15.05-.19-1.16-.38-2.33-.58-3.49l-2,2.28c-5.24,6.11-51.2,57.86-51.79,70.27-.62,13.11,21.5,27.15,23.39,28.29,19.41,15.32,22.86,28.92,22.89,29.07,5.07,21.66,17.84,27.59,19.11,28.11,6.19,3.23,7.45,8,7.5,8.2l1.29,5.52c.52-1.65,1-3.3,1.55-4.95,3.1-9.87,1.34-20.94,0-26.85a61.78,61.78,0,0,1,6.09,6.7c8.76,11.92,15.1,12.55,15.36,12.59l4.38.39-3.59-3.2c-1.13-1.43-2-10.24-2.38-19,9.81,11.79,25.18,12.72,25.9,12.73l3.46.16-2.59-2.88ZM802.23,660l-2.77-4.59.09,5.16c.11,6.59.54,16.77,2,22.47-2.28-1.24-6-4-10.52-10.18-.21-.28-5.31-7-10.19-10.12l-3.25-2.11c.43,1.29.85,2.57,1.27,3.85,0,.14,4.3,13.23,2,25.31a19.9,19.9,0,0,0-7.59-6.66l-.14-.07c-.5-.19-12.21-5.19-16.94-25.37-.14-.64-3.7-15.1-24.42-31.42l-.19-.12c-6.14-3.73-22-15.57-21.57-24.75s34.15-49.05,49.29-66.48c2.13,7.43,9.5,27.16,32.91,52.84.22.3,22.23,25.24,21.68,49.36-.55,23.44,3.36,29.26,10.57,37.29C818.82,673.27,808.17,669.83,802.23,660Z" style="fill: #010002"/>
    <path d="M835.49,698.05c-.11.52-.21,1-.32,1.55l.32-1.54-.32,1.54c-.11.51-.21,1-.32,1.54a36,36,0,0,0,7.63,1.56,79.74,79.74,0,0,0,9.6.52l-.3-3.26C840.76,700,835.54,698.06,835.49,698.05Z" style="fill: #010002"/>
    <path d="M892.7,722.75c-4.26-4.39-8.57-4.07-8.75-4,.15,1.08.29,2.16.43,3.24.13,0,3.23-.17,6.45,3.2,3.51,3.69,7.61,12.16,7.21,31.74l3,.25C901.34,740.31,898.55,728.77,892.7,722.75Z" style="fill: #010002"/>
    <path d="M874.28,726.63c.11,1.09.23,2.17.35,3.25.11,0,2.63,0,5.33,3,3.3,3.64,7.13,12,6.62,31.55l3,.31c.44-16.78-2.15-28.26-7.69-34.2C878.13,726.49,874.43,726.62,874.28,726.63Z" style="fill: #010002"/>
    <path d="M754.51,618.26c-1.85-12.18-7.87-17-8.13-17.23L745,603.61s5,4,6.63,14.66a41,41,0,0,0,5,14.74c-2.89-.73-7.15-2.43-9.81-6.23a32.2,32.2,0,0,0-12.66-10.56l-.6,3.06a28.93,28.93,0,0,1,11,9.22c3.93,5.64,10.28,7.49,13.49,8.08,1.12.2,1.86.25,2,.26l3.47.2c-.89-1-1.79-1.95-2.69-2.93C760.74,634.06,756.13,628.94,754.51,618.26Z" style="fill: #010002"/>
    <path d="M783,595c-1.84-12.15-7.87-16.89-8.13-17.09l-1.43,2.59c.21.17,5,4.11,6.64,14.56a40.22,40.22,0,0,0,5,14.65c-2.89-.68-7.15-2.3-9.8-6.06a31.69,31.69,0,0,0-12.67-10.37l-.6,3.07a28.26,28.26,0,0,1,11,9.06c3.93,5.58,10.28,7.32,13.49,7.85a16.86,16.86,0,0,0,2,.22l3.48.14-2.7-2.88C789.27,610.66,784.66,605.62,783,595Z" style="fill: #010002"/>
    <path d="M785.41,639.26c-1.63-10.71-7-14.9-7.19-15.08-.48.87-1,1.73-1.43,2.6.17.14,4.33,3.53,5.7,12.54a35.81,35.81,0,0,0,4.17,12.48,14,14,0,0,1-8-5.09,27.77,27.77,0,0,0-11.16-9.11l-.6,3.07a24.44,24.44,0,0,1,9.53,7.8c3.48,4.94,9.11,6.47,11.93,6.93,1,.16,1.64.19,1.73.2l3.46.13-2.68-2.87C790.79,652.81,786.81,648.46,785.41,639.26Z" style="fill: #010002"/>
    <path d="M715.42,635.16C689.78,646.7,664.14,657.88,638.5,669L652.87,791.8s5.29,26.76,23.7,28.63c0,0,13,1.42,12-22.54,0,0,19.23,15.22,22.34-11.95,0,0,17.49,8,17.29-18,0,0,16.32,6.31,14.38-17.16,0,0,17.67,8.47,17.67-13.29C760.29,737.16,801.67,737.92,715.42,635.16Z" style="fill: #f4c53d"/>
    <path d="M716.42,634.16l-.81-1c-26.24,11.82-52.47,23.25-78.71,34.65q7.25,61.93,14.5,123.86l0,.15c.06.27,5.37,26.1,23.05,29.89a20.12,20.12,0,0,0,2.24.34,10.25,10.25,0,0,0,7.27-2.54c4.1-3.45,6.17-9.79,6.17-18.84,2.94,1.78,8.33,4.28,13.21,2.5C708,801.5,711,796.4,712.22,788c2.39.73,7,1.57,11-1.12s6.29-8.49,6.49-17c2.34.52,6.56.93,9.91-1.81s4.9-7.82,4.6-15.12c2.77.91,7.9,2,12-.69,3.49-2.3,5.37-6.79,5.58-13.34a11.1,11.1,0,0,0,9.3-8.3C775.52,714.88,757.14,683,716.42,634.16Zm51.81,95.06a8.76,8.76,0,0,1-8.18,6.58h-1.24v1.38c0,6.17-1.49,10.3-4.43,12.24-4.56,3-11.32-.14-11.38-.17l-2-1c.06.78.13,1.57.19,2.35.61,7.36-.57,12.32-3.51,14.74-3.68,3-9.08,1-9.13,1l-1.75-.68c0,.65,0,1.3,0,2,.06,8.4-1.74,13.91-5.37,16.38-4.36,3-10,.46-10.1.43l-1.61-.74c-.06.58-.13,1.17-.2,1.75-.94,8.2-3.45,13.11-7.47,14.58-5.64,2.07-12.63-3.37-12.7-3.42-.77-.6-1.53-1.21-2.29-1.82,0,1,.07,1.91.11,2.87.89,22-10.24,21.18-10.71,21.13-16.57-1.68-21.72-25.18-22.09-27q-7.12-60.8-14.24-121.6c25-10.89,50.1-21.82,75.14-33.09C737.68,664.3,773.49,710.47,768.23,729.22Z" style="fill: #010002"/>
    <path d="M638.49,649.08q2.93,13,5.83,26s12.82,15.25,21.95-1.38c0,0,12.43,2,14.38-7.9,0,0,10.1,1,12-9.11,0,0,13.79,1.3,13.41-11.56,0,0,25.07,3,0-33.21S638.49,649.08,638.49,649.08Z" style="fill: #f4c53d"/>
    <path d="M691.12,600.31c-10.42-1-22.69,6.79-36.45,23.1A197.09,197.09,0,0,0,637.2,648c-.09.17-.19.34-.29.51L643,675.68c.11.14.23.27.34.4s4.7,5.52,10.48,6.78a11.31,11.31,0,0,0,2.19.26c4.38.1,8.14-2.49,11.18-7.68,2.9.27,12.3.46,14.66-8,2.73-.06,9.92-1,12-9.07,5.14.13,13.19-2.14,13.66-11.56,2.64,0,8.36-.56,10.43-5.74,2.43-6.1-1.19-16.18-10.78-30C702.67,604.51,697.25,600.89,691.12,600.31Zm24.12,39c-2,5-9.19,4.18-9.26,4.17l-1.41-.17c0,.52,0,1,0,1.56C705,656,693,655.09,692.54,655l-1.09-.1-.21,1.12c-1.7,8.85-10.38,8.13-10.74,8.09l-1.08-.11c-.08.37-.15.75-.22,1.12-1.69,8.58-12.89,6.92-13,6.9l-.84-.13-.39.72c-2.65,4.82-5.83,7.24-9.46,7.16-4.57-.09-8.7-4.11-9.88-5.36l-5.55-24.79c3.08-5.15,29.53-48.11,51.35-46.06,5.2.49,9.64,3.49,13.56,9.17C715.92,628.56,716.6,635.91,715.24,639.32Z" style="fill: #010002"/>
    <path d="M652.3,679.7l-2.54,1.13c35,70.95,37.35,116.35,37.37,116.82l3,.47c0-.47-.55-11.78-5.48-32.1C680.08,747.33,670.79,717.2,652.3,679.7Z" style="fill: #010002"/>
    <path d="M668.42,663.28c-.75-6-3.69-15-13.43-23.54-.51.81-1,1.63-1.52,2.45,16.58,14.5,11.62,30,11.4,30.68-.08.24-.16.49-.25.74l.45.78c25.55,44.61,36.28,72.31,40.77,87.77,4.87,16.75,3.68,23.07,3.67,23.13l1.44.65-1.44-.66,1.44.66,1.45.66c.23-1.11,5.08-26.22-44.5-112.85A28.94,28.94,0,0,0,668.42,663.28Z" style="fill: #010002"/>
    <path d="M682,655.81c-1.1-5.82-4.42-14.66-14-23.86l-1.66,2.33c16.64,15.92,13,30.17,12.87,30.77l-.21.78.5.77c48,72.76,47.26,100.56,47.25,100.92l1.48.38-1.48-.39,1.48.39,1.48.39c.06-1.25,1-28.89-47.47-102.58A27.36,27.36,0,0,0,682,655.81Z" style="fill: #010002"/>
    <path d="M693.16,646.48c-1.5-5.68-5.24-14.06-14.57-21.75l-1.44,2.53c16.06,13.23,14.16,28.24,14.08,28.87,0,.26-.08.51-.11.77l.5.68c47,64,49.5,92.62,49.52,93l3,.33c-.07-1.29-2.42-29.69-49.86-94.47A31.51,31.51,0,0,0,693.16,646.48Z" style="fill: #010002"/>
    <path d="M707.63,644.76c.09-3.29-.78-15-15.83-29.7l-1.71,2.3c8.31,8.14,11.82,15.12,13.3,19.55a19.4,19.4,0,0,1,1.24,7.68l-.12.84.6.71c49.55,58.22,53.68,90.79,53.71,91.24l1.47.07-1.47-.08,1.47.08,1.47.08C761.62,736,757.65,703.7,707.63,644.76Z" style="fill: #010002"/>
    <path d="M499.74,683.83c0,21.71,17.68,19.84,17.68,19.87-1.95,22.69,14.37,22.71,14.37,22.73-.19,25.93,17.29,25,17.29,25,3.11,28.39,22.34,21.19,22.34,21.21-1,23.54,12.05,27.64,12,27.65,18.41,6,23.7-18.42,23.7-18.42q7.19-58.27,14.38-116.53c-25.64-22.32-51.29-44.6-76.93-66.51C458.36,668.33,499.74,684.12,499.74,683.83Z" style="fill: #f4c53d"/>
    <path d="M543.61,597.41C502.9,629.89,484.51,656,489,673.23a18.07,18.07,0,0,0,9.31,11.61c.21,6.63,2.08,11.79,5.58,15.38a17.94,17.94,0,0,0,11.95,5.14c-.29,7.19,1.26,12.86,4.61,16.88a16.48,16.48,0,0,0,9.9,5.66c.21,8.56,2.39,15.13,6.5,19.54a17.5,17.5,0,0,0,11,5.55c1.22,8.85,4.19,15.16,8.85,18.78a16.51,16.51,0,0,0,13.22,3c0,9,2.06,16.25,6.16,21.44a16.76,16.76,0,0,0,7.26,5.63c.77.25,1.51.45,2.24.61,17.69,3.79,23-19.69,23.06-19.94l14.52-117.7c-26.23-22.83-52.47-45.64-78.7-68.06Zm76.33,68.41q-7.11,57.7-14.24,115.42a35.76,35.76,0,0,1-4.77,11c-4.48,6.58-10.31,8.74-17.32,6.47-.47-.16-11.6-4.1-10.71-25.69,0-.93.08-1.86.11-2.8l-2.28.84c-.07,0-7.06,2.51-12.71-1.88-4-3.13-6.53-9.07-7.47-17.65-.07-.61-.13-1.22-.2-1.83l-1.6.08a14.16,14.16,0,0,1-10.11-4.51c-3.62-3.92-5.43-10.14-5.37-18.52,0-.64,0-1.29,0-1.93l-1.74,0a13.16,13.16,0,0,1-9.14-4.56c-2.94-3.55-4.12-9-3.51-16.09.07-.76.13-1.51.19-2.27l-2,.2c-.07,0-6.82.6-11.39-4.1-2.94-3-4.43-7.68-4.43-13.86v-1.37l-1.23-.45a14.17,14.17,0,0,1-8.19-9.51c-5.26-20.73,30.56-54.07,53-71.92C569.85,622.26,594.89,644,619.94,665.82Z" style="fill: #010002"/>
    <path d="M553.93,579.37c-25.07,26,0,33.2,0,33.21-.39,12.69,13.4,17.12,13.4,17.13,1.94,10.93,12,14.19,12,14.19,1.94,10.72,14.37,14.05,14.37,14.05,9.13,20.57,22,10.9,22,10.9q2.91-11.73,5.83-23.47S579,553.39,553.93,579.37Z" style="fill: #f4c53d"/>
    <path d="M605.36,612.68c-13.76-22.29-26-35.3-36.45-38.69-6.13-2-11.55-.62-16.09,4.08-9.58,9.92-13.21,18.58-10.77,25.65,2.07,6,7.78,8.92,10.42,10,.48,9.6,8.52,15.19,13.67,17.21,2.12,9,9.32,12.94,12,14.15,2.37,9.43,11.76,13.26,14.67,14.24,3,6.5,6.79,10.71,11.18,12.51a12.11,12.11,0,0,0,2.18.68,13.76,13.76,0,0,0,10.49-2.21L617,670l6.09-24.52c-.09-.21-.19-.42-.29-.63A342,342,0,0,0,605.36,612.68Zm9,55c-1.18.74-5.31,3-9.88,1.08-3.62-1.5-6.81-5.29-9.45-11.25l-.4-.89-.83-.23c-.12,0-11.32-3.18-13-12.47-.08-.4-.15-.8-.23-1.21l-1.07-.35c-.37-.13-9-3.08-10.75-12.63l-.21-1.21-1.08-.35c-.51-.17-12.42-4.13-12.08-15.19,0-.51,0-1,0-1.54l-1.41-.41c-.07,0-7.29-2.2-9.26-8-1.35-3.95-.68-11.06,10.25-22.37,3.49-3.6,7.38-4.92,11.84-4a16.26,16.26,0,0,1,1.72.46c21.83,7.09,48.27,61.64,51.35,68.12Z" style="fill: #010002"/>
    <path d="M569.94,772.23l3,.78c0-.42,2.37-45,37.37-100.79L607.73,670C572.31,726.47,570,771.8,569.94,772.23Z" style="fill: #010002"/>
    <path d="M591.61,646.61a31.38,31.38,0,0,0,.52,10.7c-49.58,65.51-44.72,93.11-44.49,94.17l2.89-.13c0-.07-1.21-6.88,3.66-21.63,4.5-13.6,15.22-37,40.78-70.56.14-.2.29-.39.44-.59-.08-.28-.17-.56-.25-.85a27,27,0,0,1-.61-10c1-7.33,5-12.62,12-15.71L605,628.86A21.75,21.75,0,0,0,591.61,646.61Z" style="fill: #010002"/>
    <path d="M630,664.26c-12.43-2.71-26.51,79.26-22.86,131.29,1.33,18.89,10.43,36.06,22.86,38.77s21.53-10.5,22.85-28.82C656.53,755.06,642.44,667,630,664.26Z" style="fill: #f4c53d"/>
    <path d="M625.41,664.29c-11.9,11.5-23,85-19.73,131.06,1.46,20.77,11.7,37.84,24.34,40.6s22.87-9.87,24.33-30c3.24-44.66-7.83-123-19.73-139.65C631.64,662.12,628.39,661.41,625.41,664.29Zm26,140.76c-1.34,18.43-10.33,30.06-21.38,27.65s-20-18-21.38-37c-3.44-49,8.36-118.54,19-128.77a3,3,0,0,1,2.43-1.09,5.31,5.31,0,0,1,2.43,2.15C643,682.88,654.84,757.6,651.4,805.05Z" style="fill: #010002"/>
    <path d="M578,633.32a27.33,27.33,0,0,0-.21,9.81c-48.48,53.35-47.53,82-47.47,83.1l3,.4c0-.2-.72-28.88,47.25-81.45l.5-.55-.21-.87c-.16-.66-3.77-16.48,12.87-25.26-.55-1-1.1-2-1.66-3C582.42,620.52,579.09,628,578,633.32Z" style="fill: #010002"/>
    <path d="M566.88,619.3a27.77,27.77,0,0,0-1.08,9.51C518.36,674,516,702.23,515.94,703.3l3,.8c0-.18,2.54-28.5,49.52-73.05l.5-.48c0-.27-.08-.54-.11-.81s-2.07-16.47,14.08-22.91c-.48-1.05-1-2.09-1.45-3.14A23.61,23.61,0,0,0,566.88,619.3Z" style="fill: #010002"/>
    <path d="M630,635.69c-9.5-2.07-17.2,8.74-17.2,24.15s7.7,29.57,17.2,31.64,17.19-8.74,17.19-24.15S639.51,637.76,630,635.69Z" style="fill: #f4c53d"/>
    <path d="M630,634.07c-10.3-2.25-18.68,9.17-18.68,25.45s8.38,31.34,18.68,33.59,18.68-9.18,18.68-25.45S640.32,636.32,630,634.07Zm0,55.79c-8.67-1.89-15.72-15.21-15.72-29.7s7.05-24.74,15.72-22.85,15.71,15.22,15.71,29.7S638.68,691.75,630,689.86Z" style="fill: #010002"/>
    <path d="M552.41,611.59c-50,38.75-54,70.59-54.14,71.78l2.94.92c0-.07,1-8,8.05-20.6,6.53-11.64,19.76-29.83,45.66-49.69l.6-.46-.12-.9c0-.11-1.43-12.23,14.54-21.17l-1.7-3C553.18,596.89,552.31,608.27,552.41,611.59Z" style="fill: #010002"/>
    <path d="M630,657.49c0,.65,145.85-39.87,146.22-204.93-97.48-16.72-195-42.52-292.44-59.24C484.16,555.79,630,656.84,630,657.49Z" style="fill: #fff"/>
    <path d="M482.32,393.07c.08,37.63,7.87,74.74,23.16,110.58C517.7,532.31,534.7,560.27,556,587c36.28,45.42,73,71.67,73.4,71.89l.6.42.6-.16c.36-.14,37.12-10,73.39-40.46a201.16,201.16,0,0,0,50.55-63.48c15.28-30.22,23.07-64.76,23.16-102.35V451.2c-98.47-16.8-196.94-43-295.41-59.76C482.31,392,482.31,392.53,482.32,393.07Zm292.43,60.86c-.3,36.42-8,69.89-22.81,99.23A198.4,198.4,0,0,1,702,615.82c-33.38,28-67.14,38.43-72,39.89-4.89-3.53-38.65-28.93-72-70.77-21-26.39-37.84-54-49.9-82.33a278.57,278.57,0,0,1-22.8-107.41C581.77,411.84,678.26,437.29,774.75,453.93Z" style="fill: #010002"/>
    <path d="M551.28,407.75q11.25,2.29,22.5,4.68v-3.25q-11.25-2.37-22.5-4.68Z" style="fill: #010002"/>
    <path d="M506.29,399q11.25,2.08,22.5,4.29V400q-11.25-2.21-22.5-4.28Z" style="fill: #010002"/>
    <path d="M596.27,417.23l22.5,4.88v-3.24q-11.25-2.46-22.5-4.88Z" style="fill: #010002"/>
    <path d="M506.29,502s11.17,26.32,22.5,43.77V401.62q-11.25-2.21-22.5-4.29Z" style="fill: #a60032"/>
    <path d="M504.81,502.08l.16.37c.11.27,11.37,26.69,22.67,44.09l2.63,4.05V400.28q-12.74-2.49-25.46-4.84Zm3-102.85q9.78,1.81,19.54,3.72V540.73c-9.44-15.66-18.25-35.9-19.54-38.88Z" style="fill: #010002"/>
    <path d="M551.28,578.61s14.07,18,22.5,27.07V410.8q-11.25-2.37-22.5-4.68Z" style="fill: #a60032"/>
    <path d="M549.8,579l.45.57c.14.17,14.22,18.17,22.61,27.2l2.4,2.58V409.5q-12.74-2.7-25.46-5.3Zm3-170.94q9.78,2,19.54,4.07V602c-7.39-8.34-17.33-20.92-19.54-23.72Z" style="fill: #010002"/>
    <path d="M596.27,628.82s16.05,14.82,22.5,19.95V420.49l-22.5-4.88Z" style="fill: #a60032"/>
    <path d="M594.79,629.38l.68.63c.66.6,16.18,14.93,22.61,20l2.17,1.73V419.19q-12.72-2.78-25.46-5.52Zm3-211.83,19.53,4.24V645.7c-6.24-5.25-16.77-14.91-19.53-17.45Z" style="fill: #010002"/>
    <path d="M506.29,399q11.25,2.08,22.5,4.29V400q-11.25-2.21-22.5-4.28Z" style="fill: #010002"/>
    <path d="M551.28,407.75q11.25,2.29,22.5,4.68v-3.25q-11.25-2.37-22.5-4.68Z" style="fill: #010002"/>
    <path d="M596.27,417.23l22.5,4.88v-3.24q-11.25-2.46-22.5-4.88Z" style="fill: #010002"/>
    <path d="M731.25,588.39c11.32-13,22.49-35.2,22.49-35.2V448.55q-11.25-2.07-22.49-4.28Z" style="fill: #a60032"/>
    <path d="M729.76,592.66l2.64-3c11.29-13,22.55-35.25,22.66-35.48l.16-.31V447.2q-12.72-2.34-25.46-4.85Zm3-146.48q9.76,1.9,19.53,3.72V552.52C751,555,742.16,572,732.73,584Z" style="fill: #010002"/>
    <path d="M686.25,630c8.43-5.49,22.5-17.7,22.5-17.71V439.76q-11.25-2.31-22.5-4.68Z" style="fill: #a60032"/>
    <path d="M684.77,633l2.4-1.57c8.4-5.47,22.48-17.68,22.62-17.8l.44-.39V438.44q-12.72-2.6-25.46-5.3Zm3-196q9.76,2.07,19.53,4.07V611.26c-2.21,1.9-12.15,10.38-19.53,15.59Z" style="fill: #010002"/>
    <path d="M641.26,653.68c6.45-2.32,22.5-10.2,22.5-10.2V430.27q-11.25-2.41-22.5-4.88Z" style="fill: #a60032"/>
    <path d="M639.78,656.05l2.18-.79c6.43-2.31,21.95-9.92,22.6-10.24l.68-.34V429q-12.74-2.75-25.46-5.52Zm3-228.71,19.53,4.24V642.27c-2.76,1.35-13.3,6.45-19.53,9Z" style="fill: #010002"/>
    <path d="M865.82,761.5c-6.8-6.45-13-4.5-13-4.5q-2.64,12.39-5.29,24.76-10.17,1.93-20.34,3.68-11,49.3-22,98.39,14.46-5.21,28.93-10.74,9.75,15.6,19.51,31,11-49.56,21.95-99.37-7.77-9.13-15.53-18.41Z" style="fill: #0081c6"/>
    <path d="M867.49,761l-.76-.72c-7.38-7-14.12-5-14.4-4.88l-.73.23Q849,768,846.34,780.31,836.17,782.23,826,784q-11.43,51.31-22.85,102.43,15.3-5.49,30.6-11.34Q844.1,891.61,854.44,908q11.44-51.66,22.87-103.58-7.75-9.12-15.52-18.38Q864.64,773.52,867.49,761Zm6.56,44.08q-10.51,47.7-21,95.16-9.16-14.49-18.34-29.15-13.62,5.24-27.24,10.15,10.51-47.09,21-94.36,10.17-1.75,20.35-3.7,2.64-12.39,5.29-24.78c1.58-.23,5.55-.28,10,3.57l-5.64,24.67Q866.28,795.94,874.05,805.11Z" style="fill: #010002"/>
    <path d="M871,745.24a16.32,16.32,0,0,0-11.81-8.07q-5.38,10.91-10.79,21.74-10.51-1.24-21-2.68-22,42.82-44,84.88,15.63-.23,31.25-.78,6.21,17.67,12.41,35.28,22-42.81,44-86.53-5.6-11-11.19-22.09Q865.43,756.16,871,745.24Z" style="fill: #0081c6"/>
    <path d="M872.73,745.34l-.45-.84a17.76,17.76,0,0,0-13.07-9l-.9-.09q-5.4,10.89-10.79,21.72-10.51-1.24-21-2.7Q803.59,799,780.7,842.78q16.51-.19,33-.77,6.57,18.75,13.16,37.43,22.92-44.64,45.85-90.24-5.6-11-11.2-22.07Q867.14,756.27,872.73,745.34ZM869.35,789q-21.06,41.84-42.11,82.82-5.84-16.54-11.66-33.14-14.73.55-29.48.77Q807.19,799,828.27,758q10.53,1.44,21.05,2.67,5.38-10.82,10.77-21.69a14.66,14.66,0,0,1,9.2,6.23q-5.56,10.88-11.14,21.67Q863.75,777.94,869.35,789Z" style="fill: #010002"/>
    <path d="M864.92,739.13q-15.76,20.4-31.53,40.33-10.25-4.07-20.5-8.33-30.35,34.47-60.69,67.63Q768,843,783.75,846.94l5.55,36.83q30.35-33.93,60.69-69.31l-6.81-24.15Q858,771.4,872.91,752.06C873.38,744.53,864.92,739.14,864.92,739.13Z" style="fill: #0081c6"/>
    <path d="M866.27,738.22l-.42-2.93q-16.51,21.4-33,42.27-10.21-4.06-20.45-8.32-31.59,35.87-63.19,70.33,16.67,4.5,33.31,8.68,2.94,19.53,5.89,39.06,31.36-35.05,62.75-71.66l.54-.63q-3.42-12.09-6.83-24.19,14.76-18.81,29.53-38l0-.5C874.84,745.08,868.5,739.85,866.27,738.22Zm-24.74,51.56q3.4,12.08,6.8,24.13-29.05,33.89-58.1,66.32-2.61-17.29-5.21-34.6-14.89-3.71-29.8-7.69Q784.32,806,813.43,773q10.26,4.26,20.53,8.34,15.67-19.82,31.33-40.09c2,1.57,6.16,5.36,6.16,10.07Q856.48,770.78,841.53,789.78Z" style="fill: #010002"/>
    <path d="M407.75,624" style="fill: none;stroke: #010002;stroke-miterlimit: 10;stroke-width: 3px"/>
    <path d="M107.32,177.36c.2.17,10.56,2.16,36.24,3.85,25.67,2.08,66.65,3.86,128.07,12.46l.54-3.23c-61.1-8.6-101.84-10.44-127.36-12.55-25.52-1.73-35.81-3.73-36-3.9C108.31,175.12,107.81,176.24,107.32,177.36Z" style="fill: #010002"/>
    <path d="M125.28,205.83c.54.19,27.67,0,60.88,3.5,33.22,3,72.53,9.62,97.42,11.2.09-1.08.17-2.17.26-3.25-24.73-1.57-63.87-8.24-97-11.25-33.1-3.54-60.15-3.41-60.68-3.6C125.89,203.56,125.58,204.69,125.28,205.83Z" style="fill: #010002"/>
    <path d="M167.74,236.71c.63-.08,64.17,5.1,137.47,18.67l.49-3.21c-73.08-13.58-136.44-18.86-137.07-18.78Z" style="fill: #010002"/>
    <path d="M221.79,271.5c.71-1,71.94,10.54,105.77,15.73l.24-3.23c-33.6-5.16-104.61-16.73-105.32-15.76Z" style="fill: #010002"/>
    <path d="M269.77,303.48c2.47-.33,60.67,11.68,75.89,14.8.09-1.08.19-2.15.29-3.22-15.06-3.15-75-15.45-75.58-14.8Z" style="fill: #010002"/>
    <path d="M308.75,333c-.14,1.07-.29,2.14-.44,3.21,1.76,0,42.16,7.29,60.43,8.94l1.47.09-.06-3.25C352.92,340.68,309.19,332.72,308.75,333Z" style="fill: #010002"/>
    <path d="M363.24,363.92c.05,1.08.1,2.16.14,3.25.73,0,18,.28,26.57-.42l-.48-3.25C381.08,364.19,363.42,363.88,363.24,363.92Z" style="fill: #010002"/>
    <path d="M379.44,396.51c.25,1.07.51,2.13.77,3.2.63-.16,15.48-3.3,24.5-8.62-.53-1-1.06-1.94-1.6-2.91C394.48,393.29,379.59,396.45,379.44,396.51Z" style="fill: #010002"/>
    <path d="M401.63,431.12c.35,1.05.71,2.1,1.07,3.14a32,32,0,0,0,18.1-17.14l-2.69-1.68A30,30,0,0,1,401.63,431.12Z" style="fill: #010002"/>
    <path d="M429.63,446.72l2,2.68c.39-.34,9.49-8.13,10.11-18.44l-3-.62C438.22,439.32,429.72,446.63,429.63,446.72Z" style="fill: #010002"/>
    <path d="M464.81,444l-2.91-1c-2.4,14,1.14,18.39,1.56,18.85l2-2.1S462.75,456,464.81,444Z" style="fill: #010002"/>
    <path d="M460.36,412.5l-2.95-.78A25.57,25.57,0,0,0,458.72,423l2.67-1A22.31,22.31,0,0,1,460.36,412.5Z" style="fill: #010002"/>
    <path d="M424.92,271.68l.25-.71c2.46-6.9,6.56-18.43-.37-31.88S397.74,214.38,396.89,214l-1.11,2.9c.2.05,20,11,26.48,23.57,6.19,12,2.4,22.66.14,29-.09.25-.17.49-.26.73s-.27.67-.5,1.23c-6.38,15.27-11.19,37.43,2.12,56.34L426,326c-9.89-14.1-10.45-31.88-1.66-52.9C424.62,272.44,424.82,272,424.92,271.68Z" style="fill: #010002"/>
    <path d="M395.55,346.32l1.15,1.31c.17.48.35,1,.52,1.46.07,0,.88-.3,7.13-1.78l-.88-3.19C395.91,345.92,395.88,346,395.55,346.32Z" style="fill: #010002"/>
    <path d="M353.31,313.57A168.31,168.31,0,0,0,377.67,318l0-3.24a165.2,165.2,0,0,1-23.81-4.34C353.7,311.47,353.5,312.52,353.31,313.57Z" style="fill: #010002"/>
    <path d="M336.94,276.86c-.09,1.07-.19,2.15-.29,3.22.13,0,12.66,1.75,25.17,2.54l2.68.15c0-1.08,0-2.17-.05-3.25C351.3,278.87,337.09,276.87,336.94,276.86Z" style="fill: #010002"/>
    <path d="M389.86,672.7c0-.17,33.73,70.31,35.51,66.58a3.39,3.39,0,0,1,3.39-2.24c21,3.3,22.73-.82,22.73-.86q-23.16-38.74-46.33-76.56C389.43,659,389.86,672.73,389.86,672.7Z" style="fill: #369443"/>
    <path d="M405.07,658c-17-.69-16.69,14.51-16.69,14.63l0,.39.17.36c.08.16,8.05,16.66,16.34,33.12C421.47,739.38,423.67,740.9,425,741l.16,0a1.48,1.48,0,0,0,1.52-.92,2.16,2.16,0,0,1,2-1.48c20.39,3.19,23.62-.38,24.12-1.65l.33-.79q-23.65-39.57-47.29-78.2Zm23.7,77.43h0a4.46,4.46,0,0,0-3.94,1.72c-4.33-5.74-19.94-36.72-33.46-64.72,0-2,1-11.3,13.09-11.2Q427,698,449.5,735.64C447.87,736.43,442.86,737.61,428.77,735.42Z" style="fill: #010002"/>
    <path d="M315.24,245.42c.84.12,20.84,4.68,31.92,5.48l.06-3.24c-10.82-.79-31.2-5.44-31.41-5.43Z" style="fill: #010002"/>
    <path d="M298,207.24c.26,0,25.72,7.53,44.5,11.19.13-1.06.27-2.13.4-3.2-18.57-3.63-43.83-11.14-44.08-11.13C298.57,205.14,298.3,206.19,298,207.24Z" style="fill: #010002"/>
    <path d="M385.69,237.13l-1-1.28,1,1.28Z" style="fill: #010002"/>
    <path d="M389.62,273l.75-1.23-1.14-1c-6.39-5.61-9.81-11.45-10.16-17.46-.55-9.35,6.53-16.13,6.62-16.2l-1-1.28-1-1.28c-.33.31-8.19,7.8-7.56,18.71.39,6.69,3.87,13.07,10.37,19.07-1.81,4.23-5.85,18,10.08,33.76l1.88-2.33C381.48,287,389.28,273.6,389.62,273Z" style="fill: #010002"/>
    <path d="M394.12,312.5l-1.48-.3,1.48.3Z" style="fill: #010002"/>
    <path d="M450.63,374.71l-.24-1.39-1.25-.15c-10.39-1.24-17.65-4.77-21.56-10.67-4.93-7.41-2.83-16.31-2.81-16.4.16-.66.33-1.32.49-2l-1.92-.25c-10.55-1.31-18.42-5.2-23.39-11.71-6.7-8.75-5.84-19.51-5.83-19.67l-1.48-.3-1.47-.3c0,.5-1,12.27,6.56,22.19C403,341,411,345.24,421.56,346.88c-.45,3.43-.69,10.71,3.68,17.31s12.07,10.59,22.8,12.08c1.21,4.52,6.21,18.43,22.25,21a34,34,0,0,0,6.13.42c-.16-1.09-.33-2.18-.49-3.28C454.38,394.83,450.77,375.57,450.63,374.71Z" style="fill: #010002"/>
    <path d="M408.21,619.05l-.3,3.19a95.66,95.66,0,0,0,9.6,1.69,35.7,35.7,0,0,0,7.62.33c-.21-1.08-.42-2.17-.64-3.25C424.44,621,419.31,621.54,408.21,619.05Z" style="fill: #010002"/>
    <path d="M367.28,634.47c-5.84,5.24-8.64,16.48-8.3,33.33l3,.11c-.4-19.63,3.7-27.6,7.21-30.79a7.64,7.64,0,0,1,6.44-2.25c.15-1.06.29-2.12.43-3.17C375.85,631.65,371.55,630.65,367.28,634.47Z" style="fill: #010002"/>
    <path d="M378.13,643.81c-5.54,5.07-8.12,16.21-7.68,33l3,.13c-.51-19.59,3.32-27.42,6.62-30.51,2.7-2.53,5.22-2.06,5.33-2,.11-1.06.23-2.13.35-3.19C385.55,641.2,381.86,640.41,378.13,643.81Z" style="fill: #010002"/>
    <path d="M525.92,572.44a19.74,19.74,0,0,0-12.67,5.71c-2.64,2.8-6.9,2.91-9.8,2.58,1.72-2.27,3.94-6.32,5-12.89,1.59-9.89,6.44-12.08,6.63-12.17l-1.41-3.11c-.26.1-6.29,2.69-8.14,14.19-1.62,10.08-6.23,13.53-6.27,13.56l-2.76,2,3.53,1.06a18.93,18.93,0,0,0,2,.45c3.2.58,9.56,1.09,13.49-3,4.44-4.7,10.94-5,11-5l-.3-1.65C526.12,573.54,526,573,525.92,572.44Z" style="fill: #010002"/>
    <path d="M526.21,574.09l.3,1.65h0Z" style="fill: #010002"/>
    <path d="M497.38,538.78a20,20,0,0,0-12.66,5.91c-2.64,2.84-6.91,3-9.8,2.75,1.72-2.31,3.94-6.39,5-13,1.59-9.92,6.44-12.19,6.63-12.28-.47-1-.94-2.06-1.42-3.09-.25.1-6.28,2.79-8.13,14.33-1.62,10.1-6.23,13.63-6.27,13.66l-2.76,2,3.53,1a17.51,17.51,0,0,0,2,.42c3.2.53,9.56.93,13.48-3.28a17.86,17.86,0,0,1,11-5.15l-.3-1.64Z" style="fill: #010002"/>
    <path d="M497.68,540.43l.3,1.64h0Z" style="fill: #010002"/>
    <path d="M481.41,586.65c-2.14,2.31-5.56,2.57-8,2.39A26,26,0,0,0,477.54,578c1.37-8.55,5.53-10.53,5.7-10.6-.48-1-.95-2.06-1.42-3.1-.23.1-5.57,2.49-7.2,12.66-1.4,8.74-5.37,11.8-5.41,11.83l-2.76,2,3.53,1c.1,0,.74.2,1.73.36,2.83.46,8.45.8,11.93-2.93a15.5,15.5,0,0,1,9.53-4.47c-.2-1.1-.4-2.19-.59-3.29A17.78,17.78,0,0,0,481.41,586.65Z" style="fill: #010002"/>
    <path d="M630,300.6C555.37,328.12,483.8,274,483.8,274.34v119c97.48,16.72,195,42.52,292.44,59.24v-119C776.24,333.93,704.67,361.82,630,300.6Z" style="fill: #162667"/>
    <path d="M730.89,338.57c-24.61-.51-62-8.16-100.17-39.24l-.7-.57-.71.26c-38.16,14.31-75.47,6.08-100.06-2.92-26.7-9.83-44.59-22.93-44.77-23.08l-2.16-1.61V394.69c98.46,16.8,196.93,42.95,295.4,59.75V331.16l-2.17.87C775.37,332.09,757.56,339.19,730.89,338.57Zm43.86,112.12C678.26,434,581.77,408.6,485.28,392V277.18a209.94,209.94,0,0,0,43.4,22c24.92,9.13,62.66,17.5,101.34,3.27,38.68,31.19,76.42,38.9,101.33,39.42,21.77.5,37.8-4.09,43.4-6Z" style="fill: #010002"/>
    <path d="M182.11,367.06q-2.9.63-5.8,1.3c6.13,1.64,12.37,3.19,12.44,11,0,2.91-.77,7.18-2.31,12.81q-18.21,66.32-36.42,134-18.24-57.33-36.46-113.24a40.1,40.1,0,0,1-2.31-11.48c-.06-7.61,5.93-12.53,12.5-18.16-2,.67-3.91,1.34-5.87,2q-24.37,8.6-48.75,19.94-2.94,1.37-5.86,2.77c5.66-.14,9.85-.22,12,3.3,1,1.63,3.12,6.29,5.94,14.52Q105,495.09,128.79,567c2,6.1,3,10.15,3,12.12,0,8.28-5.09,12.95-12.17,18.59a536.77,536.77,0,0,1,59-16.86c-14.36-.95-12.17-11.41-12.17-11.46a102.13,102.13,0,0,1,3-14Q193.23,469.89,217,386.64a163,163,0,0,1,5.94-18c2.24-5,6.61-7.47,12-10.48l-5.83.74C213.44,360.93,197.78,363.63,182.11,367.06Z" style="fill: #0081c6"/>
    <path d="M176.34,370.15c5.83,1.56,10.87,3,10.93,9.55,0,2.67-.71,6.69-2.24,12.29q-17.5,63.81-35,128.83Q132.5,465.71,115,411.92a39,39,0,0,1-2.24-11c0-5.9,4-9.83,10.72-15.55q3.45-3,6.91-5.87A541,541,0,0,0,55.86,410c2.41-.1,4.83-.19,7.25-.25,5.23-.13,9-.13,10.84,2.89,1,1.62,3.11,6.33,5.84,14.29q23.79,69.16,47.59,140.94c2.43,7.37,2.94,10.4,2.94,11.64,0,6.78-3.61,10.73-11.24,16.81q-3.49,2.77-7,5.62A539.13,539.13,0,0,1,189.68,580q-5.35-.49-10.7-.89c-12.7-.86-11.19-9.4-11.12-9.79l0-.15a103.08,103.08,0,0,1,3-13.71q23.81-85.38,47.59-168.57a167.68,167.68,0,0,1,5.84-17.77c1.95-4.34,5.9-6.62,10.91-9.43,2.48-1.38,5-2.76,7.43-4.11a565.24,565.24,0,0,0-73.11,12.73Q172.92,369.22,176.34,370.15Zm51.56-9.51a18.25,18.25,0,0,0-6.25,7.39,163.89,163.89,0,0,0-6,18.32Q191.82,469.71,168,555.18A105.31,105.31,0,0,0,165,569.46c-.16,1.08-1,8.23,6.29,11.43q-22.52,5.4-45,12.9c4.19-4.1,7.08-8.65,7.06-15.2,0-2.18-1-6.31-3.09-12.61q-23.8-71.9-47.59-141.25c-2.78-8.13-4.94-12.94-6-14.74-1.43-2.35-3.63-3.27-6.39-3.61q23.6-11,47.2-19.27c-4.34,4.19-7.67,8.74-7.62,14.89a41.25,41.25,0,0,0,2.38,11.93q18.93,58,37.87,117.56,18.91-70.28,37.83-139.11c1.63-5.94,2.41-10.3,2.38-13.32,0-6.09-3.43-8.86-7.5-10.51Q205.32,363.63,227.9,360.64Z" style="fill: #010002"/>
    <path d="M1165.14,414A43.31,43.31,0,0,1,1176,400.5c-1.94.84-3.89,1.66-5.83,2.48q-21.42,8.92-42.84,15.76c-1.94.62-3.88,1.24-5.83,1.83,5.83.8,9.92,4.23,10.86,5.58s1.41,3.59,1.41,6.71V613.22a18.32,18.32,0,0,1-1.41,7.8c-.94,2-5,7.81-10.86,12.52q2.93-.9,5.83-1.84,21.42-6.86,42.84-15.76c1.94-.81,3.89-1.64,5.83-2.48-5.83-.55-9.84-3.13-10.81-4.45s-1.46-3.59-1.46-6.82V421.84A19.14,19.14,0,0,1,1165.14,414Z" style="fill: #0081c6"/>
    <path d="M1166.41,414.33a40.72,40.72,0,0,1,10.06-12.49q4.37-3.46,8.72-7a536.89,536.89,0,0,1-71.28,26.41c2.34.36,4.69.7,7,1,5.52.76,9.38,4,10.16,5.17s1.19,3.13,1.19,5.93V613.71a16.3,16.3,0,0,1-1.19,6.87,44.05,44.05,0,0,1-10.21,11.67q-3.12,2.5-6.22,5a535.52,535.52,0,0,0,67.84-25c-2-.16-3.91-.32-5.87-.51-5.49-.51-9.34-2.93-10.19-4.07s-1.24-3.15-1.24-6.06V421.24A17.17,17.17,0,0,1,1166.41,414.33Zm-2.48,196.05c.83,1.13,3.18,2.74,6.52,3.82q-21.66,9-43.33,15.95a40.85,40.85,0,0,0,6.5-8.7,20.16,20.16,0,0,0,1.63-8.73V432.36c0-3.45-.53-5.9-1.63-7.48a15.92,15.92,0,0,0-6.29-4.51q21.27-6.83,42.54-15.65a43.69,43.69,0,0,0-6,9,21.05,21.05,0,0,0-1.62,8.74V602.78C1162.25,606.35,1162.8,608.84,1163.93,610.38Z" style="fill: #010002"/>
  </g>
</svg>
