<svg xmlns="http://www.w3.org/2000/svg" viewBox="0 0 1260 1012.04">
  <g>
    <path d="M0,90.08v920C420,738.76,840,1193.28,1260,922V2C840,273.28,420-181.24,0,90.08Z" style="fill: #da251d"/>
    <path d="M686.71,433.16Q704.19,495.68,721.66,558c49.39-29.36,98.77-60.17,148.16-94.8C808.78,457.55,747.75,446,686.71,433.16Z" style="fill: #ff0"/>
    <path d="M778.26,759.09Q750,659,721.66,558c-30.55,18.16-61.11,35.76-91.66,53.36C679.42,661.41,728.84,711.43,778.26,759.09Z" style="fill: #ff0"/>
    <path d="M390.18,378.63c49.39,43.8,98.77,91.43,148.16,140.52q17.48-55.33,34.95-110.46C512.25,395.8,451.22,384.3,390.18,378.63Z" style="fill: #ff0"/>
    <path d="M481.74,699.15c49.42-30.83,98.84-59.3,148.26-87.77-30.55-30.93-61.11-61.86-91.66-92.23Q510,608.78,481.74,699.15Z" style="fill: #ff0"/>
    <path d="M573.29,408.69q-17.47,55.14-34.95,110.46c30.55,30.37,61.11,61.3,91.66,92.23,30.55-17.6,61.11-35.2,91.66-53.36q-17.48-62.32-34.95-124.86C648.9,425.18,611.1,416.67,573.29,408.69Z" style="fill: #ff0"/>
    <path d="M630,230q-28.35,89.26-56.71,178.67c37.81,8,75.61,16.49,113.42,24.47Q658.36,331.71,630,230Z" style="fill: #ff0"/>
  </g>
</svg>
