<svg xmlns="http://www.w3.org/2000/svg" viewBox="0 0 1260 1012.04">
  <g>
    <path d="M0,90.08v460C420,278.76,840,733.28,1260,462V2C840,273.28,420-181.24,0,90.08Z" style="fill: #d21034"/>
    <path d="M0,1010.08C420,738.76,840,1193.28,1260,922V462C840,733.28,420,278.76,0,550.08Z" style="fill: #009543"/>
    <path d="M0,90.08v920C244.4,698.86,488.8,633.43,733.2,527.73,488.8,326.76,244.4,85.53,0,90.08Z"/>
    <path d="M0,632.39C420,361.08,840,815.6,1260,544.28V379.65C840,651,420,196.44,0,467.76Z"/>
    <path d="M0,155.45V944.7c209.67-267,419.34-353.08,629-438.9C419.34,328.53,209.67,151.55,0,155.45Z" style="fill: #fdce12"/>
    <path d="M0,574.29C420,303,840,757.49,1260,486.18V437.76C840,709.07,420,254.55,0,525.87Z" style="fill: #fdce12"/>
    <path d="M0,209.93v680.3C180.72,660.1,361.45,564.36,542.17,487.36,361.45,337.59,180.72,206.56,0,209.93Z"/>
    <path d="M162.27,337.85c-23.46,3.93-96,53.58-96,147.29,0,90.36,71.09,70.69,85.09,68.71,14-4.88,66.54-30.22,60.59-97.71,0,19.87-18.21,63-56.38,73.11-38.18,10.47-62-13.34-62-47.62,0-33.85,23.11-90.07,63.39-101.06,40.27-10.76,69.68,29.65,69.68,73.37,0,44.19-28.36,102.5-73.54,114.77v52.41c37.48-12.11,111-54.83,111-166.39C264.18,340.85,185.73,329.76,162.27,337.85Z" style="fill: #fdce12"/>
    <path d="M120.33,510.7l2.24,1c0,.45,17.72-56.71,65.4-102.1C181.92,414.73,150,441,120.33,510.7Z" style="fill: #fdce12"/>
    <path d="M186.91,409.59c-31.76,27.4-54,70.27-67.14,100.89-.11.26-.23.52-.34.79l3.43,1.51.31-1c.18-.13,18.21-57,65.14-101.6l-.66-1.26Zm-64.62,101-1.05-.46c4.09-9.51,9.06-20.15,14.91-31.12A252.76,252.76,0,0,0,122.29,510.6Z" style="fill: #fdce12"/>
    <path d="M182.45,415.08l3.28-2.94s9.85-7.61,7.88-11S186,411.28,186,411.28l-3.29,3.1s7.49-12.29,3.94-10.75-7.88,14.5-7.88,14.5L176.15,421s8-15.7,4.07-13.39-7,16.3-7,16.3l-2.76,3.21s6.83-15.36,2.63-12.77-5.65,16.23-5.65,16.23L164.72,434s5.52-16.56,1.71-14.18-4.73,18.15-4.73,18.15l-3,4s5.25-16.4.79-12.68-3.81,16.85-3.81,16.84l-2.76,4s3.29-16.57-.26-12.55-2.76,17.07-2.76,17.07l-2.62,4.11s3.15-17.53-.53-13.27-2.36,18.11-2.36,18.11q-1.45,2.34-2.89,4.7s3.81-19.52-.53-14.55-2.36,19.9-2.36,19.9L136,478.05s2.23-19.08-1.31-14.93-1.18,19.72-1.18,19.72l-2.24,4.23s1.84-20.26-1.83-15.54S129,492,129,492l-2.1,4.37s2.23-23-2.63-15.26.66,19.59.66,19.6c.09,1.19.17,2.39.26,3.59,0-.08,15.24-9.27,15.1-13.47s-13,8.71-13,8.77l1.71-3.76c0-.06,13.26-7.9,14.45-13.31s-12.74,8.85-12.74,8.92l2.1-4.2c0-.05,12.61-8.87,13.79-13.8S136,480.25,136,480.29l2.63-4.65c0-.05,12.87-7.52,14.71-13.4s-11.3,7.35-11.3,7.41l3.81-6.72s9.59-4,13.53-10-9.33,3-9.33,3l3.15-4.72c0-.06,14.06-5.83,15.11-10s-11.3,4-11.3,4c1.1-1.52,2.19-3,3.29-4.55,0-.05,13.26-3.2,15-7.85s-10,1.73-10,1.77q1.44-1.8,2.89-3.59s11.68-2.47,13.26-6.13S171,427.41,171,427.45l2.76-3.06s11.82-1.88,13.27-5.82-10.51,2.59-10.51,2.63l2.89-3.05c0-.1,17.86-6,16.42-9.17S182.45,415,182.45,415.08Z" style="fill: #fdce12"/>
    <path d="M128.36,425.52c47.67,19.92,65.4,67.61,65.4,67.12l2.23-2.19C166.31,436.74,134.4,427.36,128.36,425.52Z" style="fill: #fdce12"/>
    <path d="M129.42,425l-.74-.24-.66,1.62c46.92,19.55,65,66.77,65.13,66.76l.32.8,3.42-3.36-.33-.61C183.46,466.41,161.18,435.35,129.42,425ZM194,491.41a135.74,135.74,0,0,0-13.87-24.14,209.24,209.24,0,0,1,14.92,23.11Z" style="fill: #fdce12"/>
    <path d="M189.43,479.61c-.7-1.08-1.4-2.16-2.11-3.24,0,0,3.29-17.46-.39-20.22s-1.84,16.53-1.84,16.53l-2.23-3s2.36-16.82-1.18-19.08-1.32,15.63-1.32,15.63l-2.62-3.09s2-15.95-2.37-18.63-.52,14.82-.52,14.82L172,456.15s1.31-14.54-2.36-16.85-.53,13.55-.53,13.55l-2.63-2.7s.79-13.47-2.75-15.61-.27,12.69-.27,12.69l-2.75-2.48s.65-13.45-3.81-14.81.79,12.25.79,12.25l-3-2.38s-.92-15.25-4.73-15.62,1.7,13.26,1.7,13.27l-2.75-1.94s-1.45-12.86-5.65-13.22,2.63,11.36,2.63,11.37l-2.76-1.74s-3-12.37-7-12.57,4.07,11.19,4.07,11.21l-2.63-1.44s-4.33-10.64-7.88-10.27,3.94,8.62,3.94,8.63l-3.28-1.34s-5.65-10.61-7.62-6.08,7.88,6.77,7.88,6.8l3.29,1.18c0-.05-11.95-3-13.4,1.1s16.42.25,16.42.35l2.89,1.51c0-.05-11.95-.24-10.51,3s13.26-1.32,13.26-1.28l2.76,1.58c0-.05-12,.1-10.37,3s13.26-1,13.26-1l2.89,2s-11.69-.28-10,3.55,15-.18,15-.13l3.28,2.8c0-.05-12.34-1.74-11.29,2s15.1,1.91,15.1,2l3.15,3c0-.05-13.26-2-9.32,1.94s13.53,2.75,13.53,2.78l3.8,4.68s-13.13-6.38-11.29-1.38,14.71,5.51,14.71,5.55c.87,1.08,1.75,2.16,2.62,3.25,0,0-11.81-5.59-10.63-1.2s13.79,6.37,13.79,6.42l2.1,3.07c0-.06-13.92-7-12.74-2.1s14.44,5.52,14.44,5.57l1.71,2.85c0-.05-12.87-6.2-13-1.81s15.1,5.31,15.1,5.37l.27-3.72s5.51-14.84.65-19.95S189.43,479.61,189.43,479.61Z" style="fill: #fdce12"/>
  </g>
</svg>
