<svg xmlns="http://www.w3.org/2000/svg" viewBox="0 0 1260 1012.04">
  <g>
    <path d="M0,90.08v920C420,738.76,840,1193.28,1260,922V2C840,273.28,420-181.24,0,90.08Z" style="fill: #ed2939"/>
    <path d="M336,.34C224-3,112,17.73,0,90.08v368C112,385.72,224,365,336,368.34Z" style="fill: #fff"/>
    <path d="M168,16.82C112,30.63,56,53.9,0,90.08v368c56-36.18,112-59.45,168-73.26Z" style="fill: #002395"/>
    <path d="M508.2,20.77c-2.8-.52-5.6-1-8.4-1.54h0c2.8.5,5.6,1,8.4,1.54Z" style="fill: #fff"/>
    <path d="M508.2,20.77c-2.8-.52-5.6-1-8.4-1.54v363.4C333.2,352.44,166.6,345.85,0,453.48v9.2c169.4-109.44,338.8-100.79,508.2-69.31Z" style="fill: #fff"/>
    <path d="M747.6,420.09v220.8c33.6-30.48,67.2-61.83,100.8-94.79C814.8,505.46,781.2,463.21,747.6,420.09Z" style="fill: #fff"/>
    <path d="M982.8,403.9c-67.2,3.55-134.4-3.3-201.6-14.61,33.6,42.46,67.2,83.8,100.8,123.28C915.6,478.45,949.2,442.48,982.8,403.9Z" style="fill: #fff"/>
    <path d="M1016.4,658.83V438C982.8,478.42,949.2,516,915.6,551.41,949.2,589.57,982.8,625.62,1016.4,658.83Z" style="fill: #fff"/>
    <path d="M781.2,683.69C848.4,695,915.6,701.85,982.8,698.3c-33.6-35-67.2-72.65-100.8-112.13C848.4,620.29,814.8,652.55,781.2,683.69Z" style="fill: #fff"/>
  </g>
</svg>
