<svg xmlns="http://www.w3.org/2000/svg" viewBox="0 0 1260 1012.04">
  <g>
    <path d="M0,90.08v920C420,738.76,840,1193.28,1260,922V2C840,273.28,420-181.24,0,90.08Z" style="fill: #ce1126"/>
    <path d="M630,46C420,.22,210-45.58,0,90.08v460C210,414.42,420,460.22,630,506Z" style="fill: #002b7f"/>
    <path d="M293.37,116.67Q304.18,104.88,315,93.44q-6.69-7.11-13.37-14.09Q297.51,98,293.37,116.67Z" style="fill: #fff"/>
    <path d="M336.63,116.75Q332.51,98,328.37,79.4q-6.69,7-13.37,14Q325.81,104.93,336.63,116.75Z" style="fill: #fff"/>
    <path d="M280,57.1q10.81,11,21.63,22.25,2.55-11.52,5.11-23Q293.38,56.47,280,57.1Z" style="fill: #fff"/>
    <path d="M315,19.17q-4.12,18.55-8.26,37.16,8.26-.07,16.52,0Q319.14,37.74,315,19.17Z" style="fill: #fff"/>
    <path d="M306.74,56.33q-2.55,11.51-5.11,23,6.69,7,13.37,14.09,6.69-7.08,13.37-14-2.55-11.52-5.11-23Q315,56.25,306.74,56.33Z" style="fill: #fff"/>
    <path d="M323.26,56.37q2.55,11.51,5.11,23Q339.18,68.15,350,57.18,336.64,56.55,323.26,56.37Z" style="fill: #fff"/>
    <path d="M197.12,241.86q10.81-13.53,21.63-26.62-6.69-6.09-13.37-12Q201.26,222.51,197.12,241.86Z" style="fill: #fff"/>
    <path d="M240.38,235.35q-4.12-18.1-8.26-36.15-6.69,8-13.37,16Q229.57,225.08,240.38,235.35Z" style="fill: #fff"/>
    <path d="M183.75,184.48q10.81,9.15,21.63,18.74,2.55-11.92,5.11-23.82Q197.13,181.62,183.75,184.48Z" style="fill: #fff"/>
    <path d="M227,176.92q2.55,11.13,5.11,22.28,10.81-12.84,21.63-25.29Q240.39,175.13,227,176.92Z" style="fill: #fff"/>
    <path d="M210.49,179.4q-2.55,11.91-5.11,23.82,6.69,5.92,13.37,12,6.69-8.1,13.37-16-2.55-11.14-5.11-22.28Q218.75,178,210.49,179.4Z" style="fill: #fff"/>
    <path d="M218.75,141q-4.12,19.18-8.26,38.43,8.26-1.35,16.52-2.48Q222.89,158.92,218.75,141Z" style="fill: #fff"/>
    <path d="M393.16,210.15q10.14-9.78,20.28-19.36-6.27-7.38-12.54-14.68Q397,193.12,393.16,210.15Z" style="fill: #fff"/>
    <path d="M380.63,152.7q10.13,11.6,20.27,23.41,2.4-10.52,4.79-21Q393.17,153.75,380.63,152.7Z" style="fill: #fff"/>
    <path d="M433.72,214.84Q429.84,196.91,426,179q-6.27,5.85-12.53,11.77Q423.58,202.72,433.72,214.84Z" style="fill: #fff"/>
    <path d="M421.18,156.9Q423.58,168,426,179q10.14-9.47,20.28-18.76Q433.71,158.45,421.18,156.9Z" style="fill: #fff"/>
    <path d="M413.44,121.16q-3.87,17-7.75,33.94,7.76.84,15.49,1.8Q417.31,139,413.44,121.16Z" style="fill: #fff"/>
    <path d="M405.69,155.1q-2.38,10.5-4.79,21,6.27,7.3,12.54,14.68Q419.71,184.87,426,179q-2.4-11.07-4.79-22.12Q413.44,155.94,405.69,155.1Z" style="fill: #fff"/>
    <path d="M349.61,294.75q6.75-6.86,13.52-13.6l-8.36-9.35Z" style="fill: #fff"/>
    <path d="M341.25,256.85q6.76,7.42,13.52,14.95,1.59-7.08,3.19-14.16Q349.61,257.16,341.25,256.85Z" style="fill: #fff"/>
    <path d="M376.64,296.45l-5.16-23.59q-4.17,4.13-8.35,8.29Q369.88,288.76,376.64,296.45Z" style="fill: #fff"/>
    <path d="M363.13,234.74q-2.6,11.43-5.17,22.9c3.44.19,6.89.41,10.33.65Q365.71,246.5,363.13,234.74Z" style="fill: #fff"/>
    <path d="M368.29,258.29q1.59,7.27,3.19,14.57,6.76-6.69,13.52-13.27Q376.65,258.87,368.29,258.29Z" style="fill: #fff"/>
    <path d="M358,257.64q-1.59,7.08-3.19,14.16l8.36,9.35q4.17-4.17,8.35-8.29-1.59-7.29-3.19-14.57C364.85,258.05,361.4,257.83,358,257.64Z" style="fill: #fff"/>
    <path d="M288,441.29q13.52-14.84,27-29.14-8.36-8.88-16.71-17.57Q293.13,417.89,288,441.29Z" style="fill: #fff"/>
    <path d="M342,441.38q-5.16-23.4-10.33-46.74-8.35,8.66-16.71,17.51Q328.52,426.52,342,441.38Z" style="fill: #fff"/>
    <path d="M271.25,367q13.51,13.5,27,27.57,3.19-14.41,6.38-28.8Q288,366,271.25,367Z" style="fill: #fff"/>
    <path d="M325.33,365.82q3.19,14.4,6.38,28.82,13.52-14,27-27.57Q342,366.11,325.33,365.82Z" style="fill: #fff"/>
    <path d="M315,319.31q-5.16,23.2-10.33,46.47,10.33-.12,20.66,0Q320.17,342.54,315,319.31Z" style="fill: #fff"/>
    <path d="M304.67,365.78q-3.19,14.39-6.38,28.8,8.35,8.69,16.71,17.57,8.36-8.85,16.71-17.51-3.19-14.42-6.38-28.82Q315,365.66,304.67,365.78Z" style="fill: #fff"/>
  </g>
</svg>
