<svg xmlns="http://www.w3.org/2000/svg" viewBox="0 0 1260 1012.04">
  <g>
    <path d="M0,90.08v920C420,738.76,840,1193.28,1260,922V2C840,273.28,420-181.24,0,90.08Z" style="fill: #244aa5"/>
    <path d="M890,592.26c-2.51-.83-2.51-1.26-2.74-2.13a16.17,16.17,0,0,1-.46-3.47c0-1.08-.45-2-2.05-2.09s-2.28-2.11-1.59-2.91.68-2.1-.46-3.26-1.14-1.59-3-.24a5.45,5.45,0,0,1-4.34.92,10.37,10.37,0,0,0-3.64.11,2.62,2.62,0,0,1-3-.49c-.91-.94-4.56.64-5.47,1.19a10.42,10.42,0,0,1-3.19.75v3.43c0,1.07-.46,1.67-2,2.79s-1.37.29-3.42-1.22-1.83-1.7-1.83-2.77a18.72,18.72,0,0,0-1.14-4,8.24,8.24,0,0,1-.68-3.73c.23-1.69-1.37-1.87-3-.76s-2.73.75-4.1.38-4.33-1.17-5.24-2.35a7.18,7.18,0,0,0-3.2-2.33c-1.36-.61.46-2.09,2.06-3.18s-.69-3.09-1.37-4.25-2.28-1.36-3.42-1.72a4.45,4.45,0,0,1-3.19-2.35c-1.14-1.87-3.2-.85-3.65.59s-2.28,1.41-3.19,0-1.83-.46-2.51.3a2.56,2.56,0,0,1-2.51.51c-.91-.13-1.14,0-1.82-1.12s-.92-2.28-2.51-2.29-3-.22-3-1.3-.45-1.78-1.82-2-1.37.22-2.51-1.67-2.51-.59-3.19.81-.91,2.43-1.82,1-1.14-.82-2.28-1.85-1.6-.9-1.6-2.83-2.51-1.25-3.42-.75-2.51.24-3.65,0-5-1-5-1,0,1.71-1.14,1.52-1.6.17-3.2-2.25-.91-4,.46-4,1.82.09,1.82-1.2,2.28-1.55,3.42-2.22,1.37-1.28-.45-2.22a1.81,1.81,0,0,1-.23-3.26c.91-.28,1.37-.85-.23-2.18s.23-2.76.46-3.79,1.59-.6,3.19-.34,1.37-.85,1.37-.85.23-1.89.23-2.75.45-2.29-.92-2.73-1.14-1.47-.22-2,.91-.28.91-1.78.91-1.78.91-3.5.91-1.57,1.82-1.21,1.83.29,1.37-1.72,0-1.71.46-2.93-.46-3.51-.46-3.51-1.82-1.14-3.19-1.79-5-.39-5-.39-2.73.4-3.42,1.15-1.14,1.09-2.28.26-2-1-2.5-1.93-1.14-.84-2.28-.39-1.37-.45-1.37-1.52-1.37-1.31-2.74-1.55-1.37-2-.23-2.62-.91-3-1.59-4.78-1.83-1.83-1.83-1.83-4.33-1-5.24-1.15a5.77,5.77,0,0,1-3-1.17c-.92-.81-2.74-.29-3.65,0s-2.28.23-2.74,1.86-1.37,0-2.73-.29-1.14-.86-1.14-.86-.23-2.83-.23-3.9a5.3,5.3,0,0,0-2.51-3.69c-1.14-.43-2.51-2-2.51-3.05s-1.82-2.93-1.82-4,.23-1.67-1.6-3.52-1.59-2.67-2.28-4.09a2.08,2.08,0,0,1,.91-3.05c1.14-.64.69-1.15.69-2s-.23-2.62.45-3.56.92-1.12-.45-2.24-1.37-3.48-1.37-3.48-.46-4.17-.46-5.88-2.28-1.95-2.28-3a2.29,2.29,0,0,0-1.59-2.46c-1.14-.22-1.37.38-3-1.86s-3-.58-3-.58-.46,2.05-1.37,2.52-.68,1.58.23,2.83.23,1.77-.68,1.8-1.14.42-2.28,1.05-3-1.23-3.2-2.14a4.49,4.49,0,0,0-2.28-2.39c-1.14-.65-.45-2.66.69-3.08s.45-1.2.45-2.91-.45-1.81-2.5-2-1.6-1.61-1.37-2.42-.46-4.82-.46-4.82a38.9,38.9,0,0,1-1.37-5c0-.85-.68-1.64-1.82-2.73s-.68-2.71-.68-4.21.45-1.63,1.82-2.21,1.14-3.63-.46-4.81-1.14-1.31-.91-3.84-2-2.56-3-1.68-3.88.07-5-.6-3-4-3-4.9-1.14-2.17-2.05-3-2.28-2.41-2.51-1.17-1.6,1-1.6,2.24,1.37,2.22,1.37,3.08-.91.67-2.28.38-3,.46-4.1,1.08a3.21,3.21,0,0,1-3.65-1.2,12.47,12.47,0,0,1-.69-2.94,6.36,6.36,0,0,1-3.87-3c-1.37-2.44-.91-2.56-.91-2.56s-4.11-2.59-5.7-3.57-3.65-1-4.34.14-3.19-.25-4.33-.5-1.82,0-1.82,1.33-1.6,1.58-1.6,1.58a16.46,16.46,0,0,0-3.19-.69c-1.14,0-1.82-.6-1.82-1.46a7,7,0,0,0-.46-2l-4.33-2.44c-.08-.74-.15-1.47-.23-2.2,0,0-1.14-2-1.82-3s-2.51-1-3.65-.58-1.83-.18-2.05-1.31-.92-1.7-2.06-2.59-2.28-1.35-2.5-3.12-1.6-2.71-2.74-2.31a4.35,4.35,0,0,1-3,0,3.16,3.16,0,0,1-3-2.57c-.68-2.09-1.59-1.64-2.73-.82s-2.28.37-3-.86-1.37-1.15-1.37-2.44.46-2.48,2.06-2.13,2.28,1.14,3.19.27,1.59-.3,1.59-1.8-.68-2.08-2.5-2.91a1.38,1.38,0,0,1,.45-2.69,12.69,12.69,0,0,0,2.74.17,3.12,3.12,0,0,1,1.82-.47c1.14,0,1.83.83,5,3s.68-1.35.68-1.35a22.31,22.31,0,0,1-1.82-3.19,6.08,6.08,0,0,1-.23-2.84,3.28,3.28,0,0,0-2-2.81c-1.37-.73-1.83-1.47-1.83-2.55a1.85,1.85,0,0,0-1.82-2.11c-1.37-.08-1.37-.94-.91-1.92s-.91-1.91-2-2.81a4.39,4.39,0,0,1-2.06-3.23c0-1.29-2.28-3.08-3.64-3.38s-2.51-.76-4.34-1.15-1.82-.62-3.64.27-.69,2,.22,2.84.46,2.25.46,3.11a12.7,12.7,0,0,1-.46,2.48,9.74,9.74,0,0,1-3.87-1.92,4.88,4.88,0,0,0-4.33-1.16,9.14,9.14,0,0,1-3.42-.74,12.55,12.55,0,0,1-3.65-2.51c-1.6-1.68-3.88-1.26-4.11-.67s-1.14,2.12-1.14,3-.45,2-1.59,1.8-2.51,1.61-3.65,2a3.5,3.5,0,0,0-2.28,2.51c0,.86-1.82,2-2.74,2.21a7.78,7.78,0,0,1-4.78-1,4.81,4.81,0,0,0-5-.2c-1.37,1-2.51-.1-3.42-1.15s-1.6-.56-3.42-.08a6.2,6.2,0,0,1-5.47-1.79c-1.37-1.36-1.6-.33-2.74.93s-.45,2.06,2,3.22a6.07,6.07,0,0,1,3.65,4,3,3,0,0,1-1.59,4.18c-1.83.69,0,2.79,1.59,3.12a66,66,0,0,1,7.53,3.2l3.36,2.8s2.22,1,2.22,4.39-1.14,1.64-1.14,2.92,1.43,1.86,3.08,2.75a6.68,6.68,0,0,1,3.08,3.29,31.94,31.94,0,0,0,3.08,4.57c1.14,1.54,1.14,4.27.85,5.5s-1.14,1.31-1.14,3.67-2.73,2.26-3.59,2.89-3.65,0-5.3-.06-1.14,1.1-.86,2.72,2.23,1.49,3.59,2,.8,3.07-.57,4.33,1.09,3.93,2.23,5.47-1.14,2.22-2.51,1.39-1.37,0-2.51.54.29,2.16-1.65,1.75-2.22.6-2.22.6-.29,2-.57,3.53-1.14,2.12-2.34,1.06-1.65.14-2.51.76-2.45-.51-3.59-1.29-1.65-.88-2.22-2.55-1.43-.84-3.08-.91-2.22.83-2.22,1.9-.86,2.72-2.23,2.44-1.94.67-2.22,1.9-1.08,1.87-2.22,3.2-1.31,4.29-1.77,5a2.07,2.07,0,0,1-3,0,13.81,13.81,0,0,1-1.94-3.18c-.8-1.78-2.51-1.53-3-.82s-5.58,3.93-5.58,3.93l-1.71,1.7a30,30,0,0,0,.23,3.86c.22,1.22-.46,2.11-1.71,1.86s-1.49.73-1.49,1.91.46,1.27,1.71,1.52,1.49.93,1.49,2.11,1.25,1.43,1.71,2.33a11.14,11.14,0,0,1,1.25,2.88c.17,1.27-1.08,2.2,1.25,2.88s2.11.42,2.34,2.08,0,.8,3.42,2.51,1.48,1.91,1.48,3.09-1,1-3.19.38-1.94.41-2.17,1.38-.62,2.13-4,1-2.17-.21-3.42-.25-3.65.52-3.88,1.87-2.56,1.91-2.56,1.91a5.5,5.5,0,0,0-2.57,1.11,3.89,3.89,0,0,0-1.25,2.55c0,.81-.17,1.79-1.26,1.59a2.45,2.45,0,0,0-2.56.9c-.46.72-2.79-.53-2.79-.53s-3.42-2.42-4.05-3.56a8,8,0,0,0-3.88-2.92,8.17,8.17,0,0,0-3,.47s-3,.41-3.88.47a15,15,0,0,0-3.19,1.25l-.11-.13c-.63-.06-.86,1-1.37.77s-1.6-.12-2.22-.29-.63-1-1.14-1.33a8.41,8.41,0,0,0-2.74-.59,18.79,18.79,0,0,0-3.13,1.92c-.23.39.28,1.12.22,1.22a3.83,3.83,0,0,1-3,1.3c-.34.05-.51.61-.85.61a11.49,11.49,0,0,1-3.08-2.24l-.74-1.36a8.82,8.82,0,0,0-1.2-.1c-3.65-.18-5.07,2.8-9.12,2.52-1,.37-1.14,1.64-1.88,2.27-.51.46-1.6.71-1.88,1s.34,1.56.23,2c-.06.1-2,2.63-2.11,2.72-.91.88-2.62.93-3.88,1.17-.51.08-1.59-.62-1.65-.42a41.35,41.35,0,0,0,1.37,5.15c.05.12,1,1.81.11,1.47-.51-.19-2.22-2.17-2.85-2.11-1.08.16-2.16,6.54-2.28,6.53-2.28-.13-2.34-.84-4.05-1.36-.39-.11-.85,1-1.42.86s-1.14-.7-1.6-.93a31.45,31.45,0,0,0-5.13,0,4.27,4.27,0,0,1-1.82-.1c-2.34-1.35-4.39-3.72-6.9-4.6s-1,1.75-3.53,0c-.86-.6-1-1.91-2-2.57-.74-.53-5.24-2.07-6.55-2.76-1.83-.93-3.19-2.65-4.16-3.19-.91.21-2.91.19-3.59.59-2.57,1.58-1.54,3.36-6,3.83l-.85-.31a2.72,2.72,0,0,0-1.66.62c-.45.11-1.08-.33-1.54-.48l-.45,0a13.26,13.26,0,0,1-1.14,2.19c-2.4,4.36-5.13.12-6.9,4.93-.11.47-.74.74-.8,1.21.92.79,1.26,1.68,2.28,2.37l.12.34a8.36,8.36,0,0,0-.91,3.34c0,.49.57,1,.39,1.44-.51,0-4.21.23-4.33.86-.05.27,1.77,2.48,1.26,3.24l-.29.18a.38.38,0,0,0,.17.45c.57.11,1.83.12,2.17.59.8,1.9-.34,4.58,2.68,5.63.68.23,1.37,0,1.94.2-.06.47-.75,1.69-.29,2.11,3.65,1.56,2.45.1,4.05.75,1.19.51,1.19,1.42,2.68,1.47,2.28.14,3.82-.43,6.21.38,1.77.63,3.82,3.83,5.64,5.12,1,.71,2.4.93,3.42,1.49a16.85,16.85,0,0,0,2.74,1.31l.34.36c0,.38.4.75.63,1.05a17.41,17.41,0,0,1,2.11,1.24,5.89,5.89,0,0,1,2.39.68,2.83,2.83,0,0,1-.57,2.24c-.4.48-2.68,1.42-3.48,2-1.08.72-1.59,3.34-2.45,4.42-.28.33-1.71,1-2.22,1.38-.06.1-.57.58-.46.64-.85.92-.45,1.61-.68,2.71-1,5.36.85,5,2.39,9.42a30.78,30.78,0,0,1,.86,4.72c.17.88-.8,1.46-1.08,2.17-.18.47-1.2,3.88-1.2,4.15s.28,1,.17,1.25c1.54,1.27,2.79,1.69,2.68,3.72a17.25,17.25,0,0,1,1.71,2.09c.4.75.8,3,1.37,3.24.34-.07,5.18,2.77,5.87,3.18s.51,1.25,1.48,1.76c3.59,1.93,6.9,3.52,9.63,6.44.29.3,1.14.32,1.54.75.17.67.51,1.69-.11,2.08l-.06.42a10.61,10.61,0,0,1,1,2c.63,1,2.62,2.42,2.85,3.09.46,1.36-.11,3.74,1.08,5.1.69.85,4.05,3.5,3.59,4.78-3.36,3.63-1,2.68,2,5.24,1,.85.63,3.79,3.48,4.5.45.45.51,1.1,1,1.56.29,1.65,1.31,3.1,1.54,4.64.46,3.45-2.45,2.19-3.76,3.81-.4.43-.29,1.14-.46,1.65s-.74.37-.8.79c-.11,1.32,2.68,2.61,3.54,3.39a8.43,8.43,0,0,1,.68,1.07,27.68,27.68,0,0,0,3.48,3.45,5.12,5.12,0,0,1,1.48,1c.4.86.06,1.78.34,2.57s.92,1.44,1.09,2.11-.4,2.35-.4,3.26c0,.59.34,1.56.05,2.1-1,.64-2.16,1-3.24,1.74,4.67,2.94,3,8,3.42,8.6.91,1.11,1.71.49,2.79,1.25,1.54,3.36,8,0,10.32,1.66.39,1.36.85,1.06,1.65,1.89a8.61,8.61,0,0,0,1.08,1.21c1.37,1,1.65-.69,2.62-1,.57-.23,1.49-.18,1.94-.53,1.83-1.4,2.11-1.83,5-1.11,1,.82.4.87,2.05,1.54.69.82,1.31,2.06,2.28,3.2a6.12,6.12,0,0,1-.34,2.52c0,.48,1.65.51,2.17.92,1.76,1.4,6.1,2.4,7.35,4.3a1.58,1.58,0,0,1,.8.31c1.94-.29,2.16,4.43,3.25,5.59,1.36,1.44,4,1.77,5.58,2.4.23.1.57,1.5.91,1.78a25.07,25.07,0,0,0,3.94,1.08c1,1,2.68,1.53,3.82,2.24a4.32,4.32,0,0,1,.79.9,44.1,44.1,0,0,0,4.62,4.55c1.26,5,3.08,4.15,4,5.62.29.43.23,1,.63,1.41s1.08.54,1.48,1.21c.8,1.39.91,3.88,1.37,4.73.57,1,3.59,2.54,3.65,2.6.34.61.51,2,.91,2.76s1.2,1.53,1.65,2.32c-.06.58,2.68,11.22,3.08,12.22.46,1.16,1.6,2.31,1.94,3.4s-.57.42.45,1.7-.45,2-.05,2.67c.51,1,3.7,4.57,4.1,5.4.34.66-1,1.08-.85,2,.39,1.86,3.41,6.07,3.53,7.76.06,1.25-1.94,3.36-2.34,4.4s1.54,3.33,1.6,4c.11,2-3,3.73-2.91,4.88.06.65.91,1.31,1.08,1.94a17.11,17.11,0,0,0,1.26,3.58c.68,1.27,1.31,2.74,1.94,3.89.28.54,5.47,4.35,7,9a60.55,60.55,0,0,0,.23,6.43c.05.28,1,1,1.31,1.51s1.76,5.84,2,6.75c.29,1.13-.34,2.13,0,3.17,1.14,3.78,2.62,4,4,6.43,1.59,2.7-.23,11.54-1.77,13.63-.23.33-1,.39-1.37.52-1.08.36-1,1.24-1.59,1.92-4.62-2.68-3.88,1.82-6.44,3.06l-2.28-.53c1.54,5,5.18,10.74,5.18,15.52.29,1.45,3.25,5,4.28,6.47.57.82,2.79,3.86,3.7,4.16.29.11,1-.55,1.2-.71,1.2-.82,2.62-1.49,3.88-2.3.74-.48.79-1.44,1.36-2,2.28-2,5.87-.85,8.21,1.69a6.52,6.52,0,0,1,1.14,2.34,5.53,5.53,0,0,0,1,2.47c.85.61,10-2.36,11-3,.4-.24.63-1.37,1-1.44.91-.23,1.65,1.21,2.56.44.63-.5.11-2.92.63-3.83,1.42-2.43,2.39-.93,3.47-1.88,1.77-1.49,3.31-4.54,5.13-6,.69-.55,4.56-.35,4.45-1-.06-.38-4.73-4.89-5.53-5.87a25.32,25.32,0,0,1-1.65-2.4c-3.65-5.24,2.68-2.31,2.11-6.89a77.06,77.06,0,0,0-3.54-7.85,12.67,12.67,0,0,1-1.31-1.47,20,20,0,0,1-.51-3.38c-.11-2.49.74-5.53,1-8,.05-.9-1.2-3.85-.86-4.59.86-1.74,3.59-3.13,4.28-5.08.22-.59-2.23-2.63-1.6-4.1.23-.44,2.85-.89,3.36-1.15a2.11,2.11,0,0,0,.69-.76c.62-1,2.56-2.24,3.42-3.07,0,0-.4-.73-.4-.89v-1c0-.53,1.65-1.89,2.16-1.94,1.37-.08,2.74,1.19,3,1.24,2.28.28,4.33.3,6.55.51,3.82.41,3.37-4.2,4.9-4.19a40.38,40.38,0,0,1,8.1,1.93,26.7,26.7,0,0,0,3.13,1.54,2.35,2.35,0,0,0,1.94-.49c.68-.55.91-1.2,1.48-1.72.34-.35,4.73-3.16,4.73-3.21a42.61,42.61,0,0,1,1.43-4.2c.68.42,1.14.79,1.77.71,1-.12,3.64-2.59,4.61-2.76,1.6-.3,4.9,1.65,7,1.82.91.09,1.48-.65,2.45-.6.51.06,1.37.62,1.65.46.46-.22.8-.63,1.26-.85a2.85,2.85,0,0,1,1-.27c3.88,0,3.82-1.22,5-1.35.51-.05,1.71.36,2.34.39l2.45-.13c.28-.15.23-.7.45-.92,1.14-1.1,2.74-1.62,3.88-2.83.23-.22,1.14.57,1.71.09,1.37-1.1,2.28-3.86,3.65-4.81,2.16-1.48,4.56-.92,6.72-2.14s2.68-3.09,4.91-4.19c.45-.23,1.31.33,1.82.38a13.16,13.16,0,0,1,2.17.07c.22,0,.68,1.26,1,1.59a3.59,3.59,0,0,0,2.28,1.22c1.71.51,8.66,2.77,9.74,3.63s.74,3.53,1,4.43c.29,1.14,1.37,1.67,1.94,2.59s-.17,1.47.06,1.94a16.38,16.38,0,0,0,3.47,5c1.31,1.17,1.94,4.83,2.63,6.31.91,1.95,4.27,4.49,4.61,6.75a14.92,14.92,0,0,1-.91,6.21,19.1,19.1,0,0,0,1.43,3.66c1.71,1.3.45,2.4,1.19,3,.4.35,1.6-.44,2.23-.11a31.67,31.67,0,0,1,4,2c.46.36.74.79,1.31.9.86.16,1.94-.55,2.85-.54s2.23.8,2.8.69c.91-.1,2.39-2.72,4.67-2.3a7.82,7.82,0,0,0,1.94.36c.4-.3.51-3.88,2-3.6,3.53.65-.51,4.53,1.65,4.87.8.14,4.39-.87,4.28-1.7,0,0-1.83-2.8-1.88-3.08-.34-1,.57-.75.28-1.61s-1.08-.46-1.25-.81c-1.31-2.55.23-1.47-2.34-4.56-.17-.19.57-.86.06-1.55s-1.94-1.42-1.83-2.15,1.49-.16,1.89-.52.62-1.33.79-1.79,2.4-2.25,2.91-3c.74-.94-1.14-2.57-.46-3.84,1.54-3,6.56-3.93,4.17-9.07a1.41,1.41,0,0,1,.05-1.5,5.13,5.13,0,0,1,.46-.72c1.14-1.78,1.76,1.33,2.68.74,1.82-1.18,1.94-3.47,3.36-4.78s2.34-.51,3.59-1.26c1.48-.87,1.14-2.16,2.17-3.38a18,18,0,0,1,2.11-1.63c.28-.76-.92-1.93.45-2.18.91-.11,1.6.86,2.45,1s1.14-.83,2-.74c3.7.34,4.16,4,6.55,6.33,4.28,4.12,7.13,1.5,5.42-3.17-.63-1.76-2.74-2.68-3-4.71-.17-1.47,2.63-2.91,3.2-4,.68-1.4-2.11-2.37-1-3.06,2.85-1.86,2.85,3.18,6.67,2.37,2-.45-1.37-4.23,3.36-3.19,2.34.56,1.66,2.29,3.19,3.59,1,.84,4-1.07,5.59,1.51a32.07,32.07,0,0,1,2.11,4c.4,1.35,1.25,6.94,2.62,7.61,2.62,1.28,2.79-.84,4.62-1.45,2-.7,1.71,1.89,3.36,1.36.8-.27.8-1.08,1.37-1.43.74-.44,1.59-.06,2.39-.28,1.43-.41,2-3.28,4.22-3.49,0,0-1.54-5.66-2.45-6.42s-1.82-2.6-3-4-1.14-2.94-1.37-6-3.42-2.6-3.65-1.13-1.6,1.5-3.19,1.28-1.6-1.51-1.6-2.79a6.45,6.45,0,0,0-2.28-4.83c-1.59-1.08-1.37-3.41-1.14-4.46s.23-1.68,1.14-2.41,1.37-.67,1.6-3.21-1.6-2.59-1.14-5.1,3.65-.78,4.79,1.31,4.78.64,6.38,1.06,2.05-1.23,1.14-2.42,1.14-2.22,1.14-2.22a7.32,7.32,0,0,1,2.74-1.15c1.14-.07,3.19.18,3.42,1.5s.45,1.34,1.59,1.91a3.73,3.73,0,0,0,4.33-.55c1.37-1.34,1.83-.86,1.83-2.15s0-2.15,1.14-2.66.68-.56.68-2.28.69-1.64,2.05-2.13,1.37-.71,2.06-2.13-.46-2-2.28-2.19-.46-1.34-.23-3-.69-2-1.83-2.78-1.82-4.29-2.73-5.47a2.18,2.18,0,0,1,0-3,5,5,0,0,1,4.33-2.29c2.28,0,1.82-1.73,2.05-2.78s3-1.17,3-1.17.22-2.34,1.36-2.43,1.37-.93,1.37-1.79,1.14-2.24,1.83-3a2.9,2.9,0,0,1,3-1c1.6.16,1.82-2.4,2-4.09s2-1.73,3-.14,1.82,1.89,1.82-.26a4.67,4.67,0,0,0-1.37-3.35,12.54,12.54,0,0,1-2-2.77c-.46-1.12-1.14-4,.46-3.61s1.82-.25,2.73-1.88,4.33-.46,5.7-.13,2,.82,2.28-.87,1.83-.92,3.19-.81,2.06-2.2.69-2.74,0-2.57.45-3.61a5,5,0,0,1,1.14-1.62c-.68-1.13-1.36-2.26-2-3.39a5.6,5.6,0,0,0-2.28-2.76c-1.82-1.23-2-4.26-1.14-4.61s2.05-1.11,3-.39,1.36-2.47,2.28-3,.91-1.43,0-3,.45-3.19,1.14-4a2.7,2.7,0,0,1,2.05-.7l2,.58s2.05-.28,2.28-1.34a1.69,1.69,0,0,1,2.05-1.57c1.37.09,1.37-.76.91-1.87S892.52,593.08,890,592.26Z" style="fill: #d0a650"/>
    <path d="M661,284.22q15.87-8.36,31.74-16.81-9.81-9.33-19.61-18.72Q667.07,266.47,661,284.22Z" style="fill: #fff"/>
    <path d="M724.49,297.48,712.37,256.9q-9.81,5.28-19.62,10.51Q708.62,282.53,724.49,297.48Z" style="fill: #fff"/>
    <path d="M641.4,218.25q15.87,15.24,31.74,30.44,3.74-11,7.49-22Q661,222.54,641.4,218.25Z" style="fill: #fff"/>
    <path d="M680.63,226.71q-3.75,11-7.49,22,9.79,9.38,19.61,18.72,9.81-5.22,19.62-10.51-3.75-12.55-7.49-25.11Q692.74,229.3,680.63,226.71Z" style="fill: #fff"/>
    <path d="M692.75,191.13q-6.06,17.81-12.12,35.58,12.12,2.58,24.25,5.08Q698.82,211.47,692.75,191.13Z" style="fill: #fff"/>
    <path d="M704.88,231.79q3.74,12.56,7.49,25.11,15.87-8.56,31.74-17.33Q724.49,235.85,704.88,231.79Z" style="fill: #fff"/>
    <path d="M784.61,330.8q15.87-9.15,31.74-18.67-9.81-8.69-19.62-17.51Q790.67,312.74,784.61,330.8Z" style="fill: #fff"/>
    <path d="M765,265.7q15.87,14.63,31.74,28.92l7.5-22.42Q784.61,269.23,765,265.7Z" style="fill: #fff"/>
    <path d="M848.09,339.8Q842,320,836,300.2q-9.81,6-19.62,11.93Q832.22,326.19,848.09,339.8Z" style="fill: #fff"/>
    <path d="M828.47,275.66,836,300.2q15.87-9.79,31.74-20.06Q848.09,278.28,828.47,275.66Z" style="fill: #fff"/>
    <path d="M816.35,235.85q-6.06,18.21-12.12,36.35,12.12,1.85,24.24,3.46Q822.41,255.79,816.35,235.85Z" style="fill: #fff"/>
    <path d="M804.23,272.2l-7.5,22.42q9.81,8.82,19.62,17.51,9.81-5.88,19.62-11.93l-7.5-24.54Q816.35,274.05,804.23,272.2Z" style="fill: #fff"/>
    <path d="M902.55,388.39Q918.42,377.5,934.29,366q-9.81-7.44-19.62-15.14Q908.61,369.67,902.55,388.39Z" style="fill: #fff"/>
    <path d="M966,389.39q-6.07-18.9-12.13-37.91-9.81,7.38-19.61,14.5Q950.16,378,966,389.39Z" style="fill: #fff"/>
    <path d="M882.93,325.34q15.87,13.05,31.74,25.5,3.75-11.62,7.49-23.3Q902.54,326.91,882.93,325.34Z" style="fill: #fff"/>
    <path d="M946.41,327.94q3.75,11.79,7.49,23.54,15.87-12,31.74-24.64Q966,328,946.41,327.94Z" style="fill: #fff"/>
    <path d="M934.29,289.7q-6.07,19-12.13,37.84,12.12.4,24.25.4Q940.35,308.88,934.29,289.7Z" style="fill: #fff"/>
    <path d="M922.16,327.54q-3.75,11.67-7.49,23.3,9.81,7.7,19.62,15.14,9.8-7.11,19.61-14.5-3.75-11.75-7.49-23.54Q934.29,327.94,922.16,327.54Z" style="fill: #fff"/>
    <path d="M535.51,257.48q15.87-8.63,31.74-17.08-9.81-9.35-19.62-18.62Q541.57,239.61,535.51,257.48Z" style="fill: #fff"/>
    <path d="M515.89,192q15.87,14.81,31.74,29.83,3.75-11,7.49-22Q535.51,195.71,515.89,192Z" style="fill: #fff"/>
    <path d="M599,270.74q-6.06-20.39-12.13-40.75-9.79,5.17-19.61,10.41Q583.12,255.51,599,270.74Z" style="fill: #fff"/>
    <path d="M579.37,204.82q3.75,12.57,7.49,25.17,15.87-8.4,31.74-16.71Q599,209,579.37,204.82Z" style="fill: #fff"/>
    <path d="M567.25,164.11q-6.06,17.8-12.13,35.63,12.14,2.49,24.25,5.08Q573.31,184.45,567.25,164.11Z" style="fill: #fff"/>
    <path d="M555.12,199.74q-3.74,11-7.49,22,9.81,9.27,19.62,18.62,9.81-5.24,19.61-10.41-3.74-12.59-7.49-25.17Q567.25,202.24,555.12,199.74Z" style="fill: #fff"/>
    <path d="M411.91,259.72q15.87-10,31.74-19.48Q433.84,231.55,424,223,418,241.34,411.91,259.72Z" style="fill: #fff"/>
    <path d="M475.39,268.72q-6.06-20.09-12.12-40.1-9.81,5.73-19.62,11.62Q459.52,254.28,475.39,268.72Z" style="fill: #fff"/>
    <path d="M392.29,196Q408.16,209.24,424,223q3.75-11.32,7.5-22.61Q411.91,197.83,392.29,196Z" style="fill: #fff"/>
    <path d="M455.77,203.88q3.75,12.36,7.5,24.74,15.87-9.3,31.74-18.23Q475.39,206.88,455.77,203.88Z" style="fill: #fff"/>
    <path d="M443.65,164q-6.06,18.21-12.12,36.48,12.12,1.6,24.24,3.45Q449.71,183.89,443.65,164Z" style="fill: #fff"/>
    <path d="M431.53,200.43q-3.75,11.3-7.5,22.61,9.81,8.51,19.62,17.2,9.81-5.9,19.62-11.62-3.75-12.39-7.5-24.74Q443.65,202,431.53,200.43Z" style="fill: #fff"/>
    <path d="M274.36,237q15.87,10.88,31.74,22.51,3.75-11.82,7.49-23.61Q294,235.9,274.36,237Z" style="fill: #fff"/>
    <path d="M357.45,298.89q-6.06-19.42-12.12-38.74-9.81,6.87-19.62,14Q341.58,286.2,357.45,298.89Z" style="fill: #fff"/>
    <path d="M294,297.88q15.87-12.22,31.74-23.74-9.79-7.44-19.61-14.63Q300,278.65,294,297.88Z" style="fill: #fff"/>
    <path d="M325.71,197.86q-6.06,19-12.12,38,12.12,0,24.25.4Q331.78,217,325.71,197.86Z" style="fill: #fff"/>
    <path d="M337.84,236.3q3.75,11.91,7.49,23.85Q361.2,249,377.07,238.5,357.45,237,337.84,236.3Z" style="fill: #fff"/>
    <path d="M313.59,235.9q-3.75,11.79-7.49,23.61,9.81,7.19,19.61,14.63,9.81-7.12,19.62-14-3.75-11.94-7.49-23.85Q325.72,235.91,313.59,235.9Z" style="fill: #fff"/>
  </g>
</svg>
