<svg xmlns="http://www.w3.org/2000/svg" viewBox="0 0 1260 1012.04">
  <g>
    <path d="M0,90.08v920C420,738.76,840,1193.28,1260,922V2C840,273.28,420-181.24,0,90.08Z" style="fill: #fff"/>
    <path d="M452.93,104.54Q435.49,152,418.05,200q10.62,1.29,21.23,2.76,3.23-9.86,6.46-19.69,19,2.74,38,6l6.66,21.76q10.57,1.86,21.16,3.85-17.67-53.4-35.34-106.44Q464.57,106.29,452.93,104.54ZM451.06,167q6.79-20.31,13.58-40.55h0q6.83,22.41,13.65,44.87Q464.67,169,451.06,167Z" style="fill: #d42e12"/>
    <path d="M358.47,170.67Q348.72,132,339,93.55,324,93,309.14,93.13V193.29q9.45,0,18.91.13V112.64q10.08,40.59,20.17,81.44,10.32.46,20.63,1.19,10-39.71,19.91-79.18v80.79q9.45.85,18.9,1.91V98.62q-15-1.65-30-2.86Q368.08,133.11,358.47,170.67Z" style="fill: #d42e12"/>
    <polygon points="309.14 193.29 309.14 193.29 309.14 193.29 309.14 193.29" style="fill: #d42e12"/>
    <path d="M555.38,166.34q-10.49-23.75-21-47.42-12.36-2.44-24.7-4.76,17.81,34.74,35.61,69.78v37.34q10.09,2,20.17,4.15V188.1q16.15-28,32.29-56-11.52-2.48-23-4.92Q565.06,146.76,555.38,166.34Z" style="fill: #d42e12"/>
    <path d="M650.17,140.94q-22-4.77-34.95,6.67T602.31,183.3q0,24.21,12.91,41.29t34.95,21.89q22,4.78,35-6.77t13-35.75q0-24.21-13-41.23T650.17,140.94Zm20.3,82.86q-7.26,7.56-20.3,4.73A31.32,31.32,0,0,1,630.07,215q-7.2-10.75-7.19-27.27h0q0-16.59,7.19-24.14t20.1-4.73a31.7,31.7,0,0,1,20.3,13.56q7.26,10.68,7.26,27.19T670.47,223.8Z" style="fill: #d42e12"/>
    <polygon points="622.88 187.77 622.88 187.77 622.88 187.77 622.88 187.77" style="fill: #d42e12"/>
    <path d="M705.35,173.14q14.55,3,29.09,5.83v82.29q10.09,2,20.17,3.82V182.79q14.45,2.67,28.89,5.09V170c-26-4.34-52.1-9.37-78.15-14.73Z" style="fill: #d42e12"/>
    <path d="M786.3,188.34q14.55,2.4,29.09,4.49v82.28q10.08,1.45,20.17,2.72V195.55q14.45,1.81,28.89,3.25V180.92c-26.05-2.57-52.1-6.17-78.15-10.47Z" style="fill: #d42e12"/>
    <path d="M895.94,239.39q23.43,1.5,46.86,1.66V223.91q-23.43-.12-46.86-1.66V200.9c17.08,1.09,34.17,1.68,51.25,1.67V185.16c-23.72,0-47.44-1.12-71.16-3.17V282.16h0c24.52,2.11,49,3.26,73.56,3.16v-18.5c-17.88.08-35.77-.51-53.65-1.66Z" style="fill: #d42e12"/>
    <path d="M452,613.71c2.7-1.38,4.14-4.11,4.14-8.06,0-8-3-20.64-5.22-21.89-.9-.53-1.08-2.33-.24-2.21,1.38.2,3.24-5.7,3.54-11.24.36-7-.9-12.57-3.54-15.85l-1.74-2.23,1.86-3.94c1.62-3.37,1.86-4.39,1.56-7.46-.66-7.07-7.69-21-13-25.54-1.92-1.65-2.46-2.51-2.46-4,0-4.41-3.3-11.38-8.83-18.6-5.76-7.45-7.62-10.69-8.82-15.58a17.87,17.87,0,0,0-4.27-7.87c-2.94-3.57-9.18-8.35-12.91-9.79a1.93,1.93,0,0,1-1.2-2c-.06-4.22-4.8-11.75-9-14.25-2.1-1.25-2.4-1.67-2.4-3.57,0-2.7-2-5.59-6.85-9.62-4.56-3.73-11.77-6.38-22.87-8.09-23.36-3.41-33.75-7.7-44.73-19.75-6.67-7.24-9.25-12.06-11.65-21.63-2-7.93-2.1-15.36-.3-21.17,1.26-4.1,5.28-12.43,6-12.43.24,0-.12,2.17-.78,4.74-1.56,6.26-1.74,16.52-.3,21.51,2,6.95,5.89,12.12,11.35,15.26,3.72,2.14,5.52,2.61,11.89,3.41,6.6.82,11,2.44,13.21,4.7,3.24,3.41,10.5,4.14,17.47,1.95a28.84,28.84,0,0,1,7.5-1.22l4.33-.15,5.58,4.72c5.76,4.69,30.68,22.6,35.06,25.12,8,4.41,17,3.16,20.78-3,3.06-4.9.3-10.34-12.73-24.87-10.57-11.69-13.09-15.48-14.47-21.69a97.59,97.59,0,0,0-4.38-12.84c-4.39-10.79-4.45-12.57-.3-16.87a21.71,21.71,0,0,0,3.9-5.49c1-2.33,1.38-7.81.72-8.67-.36-.37-4.38.11-6.49.75-.66.19-.78-.81-.6-5.33a27.24,27.24,0,0,0-.54-7.68l-.78-2-2.16,2.08c-2.22,2.15-3.84,2.58-4.56,1.26a26.44,26.44,0,0,1-.9-4.29c-.6-4.2-3-10.87-3.6-10.13a13,13,0,0,0-1.21,2.85c-.36,1.35-.9,2.42-1.2,2.39s-.66-1.64-.9-3.56c-.66-5.72-1.38-8.15-3-9.93-1.32-1.49-1.68-1.59-2.1-.83a6.06,6.06,0,0,0-.6,2.58c0,2.89-1.68,8.61-3.9,13.37-4.33,9.14-8.41,7.91-16.81-4.75-4.81-7.24-5.53-9.44-4.21-12.53,3.18-7.21,16.51-16.38,29.06-19.55,2.34-.59,4.27-1.27,4.27-1.53,0-1.25-3-4.48-5.65-6.08-3-1.77-6.48-2.38-11.47-2-8.52.71-14.95,2.9-23.53,8.17-2.76,1.72-5.35,2.94-5.83,2.72s-1-1.81-1.26-3.72a14.35,14.35,0,0,0-1.2-4.45c-1.2-1.88-2.34-.41-4.56,5.71a47.36,47.36,0,0,1-2.46,6.12c-1.08,1.42-2.52.86-4.27-1.54s-4.38-3.23-5-1.46a16.11,16.11,0,0,0,.3,4.74c1.08,6.2-.66,7.08-5.58,2.91-4.27-3.63-5.89-4.34-7.51-3.42s-1.62,2.38.54,7.83c1.86,4.72,2,8.14.18,5.39a17.38,17.38,0,0,0-5-3.51c-2.28-1.23-5.82-3.21-7.93-4.47a55.23,55.23,0,0,0-6.42-3.18c-2.64-1-16.93-2.58-18.13-2-.36.15,1.62,1.8,4.32,3.77,5.94,4.12,17.35,15.2,17.35,16.67,0,.86-.66,1-4.8.74-5.46-.34-5.34-.52-4.14,5.67.42,2.16.48,3.6.12,4s-2.23.35-5-.18c-2.46-.41-4.62-.75-4.86-.73-.9.05-.48,5.22.78,9.56,1.2,4.07,1.2,4.47.24,5.24-1.2,1.07-2.58.63-11.71-3.34-5.4-2.37-6.78-2.7-9.72-2.32a13.78,13.78,0,0,0-5,1.51l-1.68,1.08,3.9,4.23c4.63,5.1,9.31,12.1,10,15,1.32,4.88-3.12,5.9-18.07,5.31-8.17-.32-13.69.61-16.39,2.55C226.16,354.64,219,363,219,364c0,.33,3.48.26,7.75-.12,8.94-.81,15.43.19,20.77,2.87,5,2.54,4.92,3.2-.54,3.74-4.56.47-7.2,1.56-9.61,4-1.14,1.12-1.14,1.18,0,2.43,1.74,1.9,5.11,3.15,9.25,3.46a16.16,16.16,0,0,1,4,.59c.12.12-1.74.75-4.14,1.39-6.24,1.74-15,5.64-19.27,8.6-3.85,2.63-4,2.93-4.81,9.15l-.36,2.55,1.92-.73c3-1.22,18.5-3.5,21-3.11,3.84.54,2.76,1.55-3.18,3-7.45,1.81-11.65,3.3-13.63,4.68l-1.56,1.13,3.24,1.28a42,42,0,0,0,9.24,2c14.05,1.63,15.8,3.31,4,3.82-9.67.54-13.51,1.5-13.21,3.09.3,1.8,6.24,4.18,12.43,5.22,3.78.65,2.34,1.57-3.85,2.53-5.58.85-9.78,3-11.52,5.79-1.38,2.1-.54,10.66,1.08,11.56.36.15,1.08-.21,1.62-.81a38.52,38.52,0,0,1,5.46-4c4.63-3,4.69-3,11.29-2.58,2.82.18,5.28,2.51,7.38,7.05a48.35,48.35,0,0,0,4.69,7.49c1.56,2,3.36,4.27,4,5.08,1.14,1.43,1.14,1.49-.12,4.35-.66,1.63-1.38,3.46-1.56,4.07-1.08,4.12-19.45,4.27-33.92,1.06-5.77-1.34-14.29-4.62-18.14-7l-2.94-1.86v2.56c0,6.32,4.51,16.25,9,19.95l2.88,2.38-2.94,6.64c-3.66,8.28-3.9,11.28-1.08,13.91,1,1,1.74,2.23,1.5,2.79a13.87,13.87,0,0,1-3.48,3.45c-5.41,4.25-5.17,3.9-2.95,4.76,1.09.48,4,.65,6.43.47,2.64-.15,4.74,0,5.1.47,1.5,1.76-1.62,6.54-7,11-.9.74-.24.88,3.66.94,2.64,0,6.48-.18,8.53-.39l3.72-.37-1.26,2.66a28.38,28.38,0,0,1-6.67,8.69l-1.68,1.44,1.86,0A18.14,18.14,0,0,0,226,536c4.5-1.42,10-1.95,11.16-1.16,1.86,1.3.3,4.88-4.38,10.39l-4.08,4.87,2.64.12c5,.14,11.29-1.42,14.65-3.67a14.51,14.51,0,0,1,3.36-1.85c.84.91-2.4,10.76-4.5,13.61-.48.64-.72,1.39-.48,1.7s3.48.09,7.14-.26c5.23-.48,7.21-.89,8.77-1.94a24.87,24.87,0,0,1,2.28-1.29,16.25,16.25,0,0,1,.18,3.07,8.68,8.68,0,0,1-1.56,5.38l-1.5,2.29,1.68-.13c3.9-.39,13.15-4.27,16.45-7,2.16-1.75,2.34-1.69,2.34.74a17.81,17.81,0,0,1-2.76,8.62c-1.26,1.65-1,1.62,4.92-.3,5.29-1.69,10-3.87,12.37-5.77,2.22-1.84,2.46-1.64,2,1.13-.54,3.3-1.68,5.24-4,6.62-1,.55-1.74,1.23-1.56,1.36.48.54,13.15-1.92,16-3a12.94,12.94,0,0,0,3.72-2.13c1-1,1.08-1,1.08.59a14.42,14.42,0,0,1-1.5,4.74,25.05,25.05,0,0,0-1.5,3.43c0,.52,3.3-.62,7.15-2.44a17.54,17.54,0,0,1,5.46-1.87c2,0,4.44,2.1,6.3,5.36,1,1.79,2.59,3.14,5.59,4.86l4.2,2.43.24-2.69c.3-2.44,10.21-30.6,11.17-31.65.42-.45,12.49,9.19,24.14,19.55,7,6.19,23.17,25.24,27.91,32.88,13,20.84,17.3,34.84,17.36,56.53a113.25,113.25,0,0,1-3.25,29.47c-5.52,23.94-18.37,45.88-33,56.49-9.6,7.06-20.95,8.71-42.09,7.18-25.57-1.71-41.55-7.09-53.37-19.37-8.77-9.13-14.53-21.12-16.93-35.43a112.09,112.09,0,0,1-.66-12.78c0-16,3.3-27.4,10.5-36.24,6.25-7.61,12.91-11.87,21.44-13.47a26.64,26.64,0,0,1,23.05,7.28c4,4.07,4.15,6,1,12.77-2.76,6.07-3,7.65-1.26,9.58s5,1.79,8.83-.15c5.58-2.68,8.34-9.47,7.86-19.09-.48-8.63-4.14-14.38-12.42-19.16-8.05-4.53-12.13-5.47-24.68-5.27-10.39.17-11.47.39-16.51,2.26-10.09,3.75-16.21,8.63-21,16.19-10.8,17.48-16.75,46.79-13.27,65,2.71,13.9,9.91,28.56,19.94,40.58,16.93,20.47,39.38,29.42,71.63,30.69,23.89,1,40.82-2.46,57.63-12.7,18.74-11.29,30.87-26.85,41.13-53.22,2.76-7.24,3.85-11.81,4.33-18.32.18-3.2.66-5.76,1.2-6.34,2.4-2.67,3.24-11.16,1.74-17l-.9-3.29,1.86-1.5c3.3-2.72,2.94-9.75-.78-15l-1.74-2.43,2-1.88c2.58-2.51,3.72-7.79,3.24-15.1-.3-5-2.34-12.32-3.48-12.49S450.23,614.56,452,613.71Z" style="fill: #dfdfdf"/>
    <path d="M315.17,494.34c-1.26-.11-.37.39,0,0Z"/>
    <path d="M310.69,298.44c-.71,1.08-.19.73,0,0Z"/>
    <path d="M456.23,606.06c-1-11.3-1.91-19.64-6.37-23.66,6.06-2.51,6.4-26-1.2-30.23,7.25-8.74,2.34-17.65-.62-24.65-3.48-5.64-5.53-10.67-11.26-14.7.64-4.6-2.79-13.59-8-19.53s-9.24-12.49-9.24-14.52-2.18-12.95-18.64-20.1c-.1-6.26-4.7-14.36-11.41-16.94,1.79-6.28-7-12.22-11.16-15.21-6.47-1.94-12.2-4.47-19-5.07-36.22-2.4-52.63-23.89-56.16-41.35-2.93-12.39-2.45-18.94,5.71-33.13-2.07,7.69-2.91,12-2.68,18.82.57,15.68,10.25,26.22,25,26.56,5.54.13,11.46,2.38,12.93,4.87s7.4,3.53,14.79,2.75c4.83-2.35,9.11-2.64,14.72-2.14,3.5,2.67,7.27,6.72,13,10.67,8.5,6,19.22,13.62,24,17,10.35,7.23,21.81,5.92,25.5-3.29,1.48-4.24-2.21-10.86-12.56-21.88-8.5-8.76-15.16-17.58-15.16-20,0-2.84-2.21-10-5.17-16.35-4.44-9.78-4.44-12.21,0-15.79,3-2.11,3.37-4.8,4.72-7.82a18.94,18.94,0,0,0-.09-7.6c-1.85,0-5.67,1-7.53,1.47.95-4.54,1.29-10.61-1.09-15.75-2.76,2.38-4.33,5-5.62,4.84-2.22-.21-1.58-6.06-2.32-8.35a71.67,71.67,0,0,0-3.59-8.8c-.84,4.17-1.67,6.75-2.56,7.26,0-2.1-.94-10.24-2-12.16a12.26,12.26,0,0,0-3.8-3.76c-1,2-.33,5.89-2.36,11.8-4.81,15-9.24,15.48-18.11,1.59-7-10.1-7-10.91-.74-18.25,3.69-3.85,11.46-9.42,17.37-11.38a60,60,0,0,1,12.49-3.77c-1.15-4-5.13-7.52-9.34-8.69s-9.21-.19-13.48.18c-8.56.72-19,7.38-23.76,10.86-2.22,1.65-.88-11-4.17-9.75s-4.64,12.36-6.72,13.85-4.29-7.23-8.16-4.76c-2.71,1.74,2.38,10.52-1,10.88-1.78,2.23-10-11.81-13.66-4.11-.7,3.35,4.42,9.75,3.31,11.93-.15.21-.27.38-.37.54-.19.73-.71,1.08,0,0a1.61,1.61,0,0,0-1.19-2c-1.3-1.49-3.36-1.86-5.54-3.07-4.34-2.43-12.53-8.39-17.7-8.17q-8.38-.82-16.77-1.43,5.65,3.81,11.3,7.71,4,3.73,8,7.52c3.11,2.94,6.16,6.08,4.89,6.42s-7.08-.24-9.67-.12c.58,5.56,1.6,7.15,1.6,9.58,0,2-7.8-.88-10.75-.7.57,4.9-.5,4.93,1,9.3,1.84,5.17,2.17,7.8-3.75,5.32-3.69-1.4-9.81-5-14.62-5.83-1.68.19-3.36.38-5,.59L247.81,326c2.43,2.69,4.85,5.38,7.28,8.1,11.46,14.89,10.35,17.26-7.76,16.52-11.46-.87-19.1.1-22.43,5-2,2.71-5.38,5.47-7.18,9.64,3.92-.43,12.05-1.54,17.41-1.16,6.1.48,11.53,2.47,14.38,4.44s1.6,1.24-2.65,1.66a20.1,20.1,0,0,0-5.87,1.16c-2.7,1-3.58,3-5.83,4.74,5.56,5.74,9.52,4.56,15.11,5a70.15,70.15,0,0,1-9.19,2.36c-3.49,1.61-6.19,2.71-9.25,4.29a27.76,27.76,0,0,0-9.14,6.28c-.82,5.62-1.48,9-.66,9.25s3.24-1.32,5.89-2.54c3.91-.67,22.41-3.05,18.59-.29-3.07.65-6.14,1.33-9.22,2-4,2.12-6.64,1-11.58,5.13,6.69,4.51,13.3,3.29,16.26,4.13,4.52.12,10.66,2.34,8.53,2.44-2.59.05-20.92.23-21.46,3.24-.43,2.36,2.78,3,6.1,4.42,3.72,1.59,5.68,1.3,9.26,2.05-3,1.73-4.87.86-8.33,1.4s-9.57,4.5-10.09,6.22c-1.2,4,0,11.86,2.41,12.79,2.53-4.35,8-6.47,10.83-8.43,5.3-.54,9.3-.63,12.47,3.27,1.7,5.21,4.62,10.37,10.07,16,2.9,3-1.12,3-1.12,7s-8.71,4.93-18.76,4.37-21.4-3.32-26.7-5.94c-3.12-1.21-5.06-2.27-10.07-5.63-.51,5.72,1,12,4.53,18.28,1.66,2.95,5.07,7.24,7.4,7.07-1.7,3.12-1.82,4.6-3.28,7.58-1.77,3.73-6.17,11.69,1.41,15.26-2.43,3.72-6.47,5.81-9.12,7.86,3.19,3.32,7.47,2.07,8.76,1.87,3-.47,6.14-1.15,5,2.65-.74,1.94-2.89,5-8.79,9.51a70.9,70.9,0,0,0,17.32-.39c1.46-3.08,2.37-5.51,3.21-5.72,2.32-.59,2.29.69,1.56,2.6a10.6,10.6,0,0,0,.74-1.27c2.54-6.59-.59-5.14-4.28-3-3.51,1.88-5.3,2.89-9.23,3.24,3.43-3.53,5-8.1,7.38-12.31,2.88-4.84,2.37-6.1-4.29-.76-5.24,2.21-7.39,2.37-10.13,2.06,1.75-1.52,4.26-2.88,5.92-4.55,4.06-3.43,4.06-4.65-.74-6-5.18-1.23-5.18-3.25-1.48-10.3,1.66-3.29,3.15-7.83,5.2-10.42-2.18-1.16-4.64-1.41-7-3.87-4.25-3.78-5.53-10.1-5.44-12.25,2.34.61,2.76,2,5.81,3.29,6.1,2.69,16,4.65,27.72,5.67,16.63.3,22.92,2.85,28.46,10.56,4.07,5,7.39,11.73,7.39,14.56,0,6,15.53,21.58,21.44,21.54,2.59,0,4.44,1.56,4.44,3.58,0,2.43,8.87,8.77,19.58,14.61,10.35,6.22,19.59,11.87,20.33,12.31.37.82-1.85,8-5.17,16.8-3,7.59-4.29,9.93-4.73,13.46-1.79-.27-3.74-.68-6.14-5.39-3-6.13-5.39-10.49-6.87-7.26-2.22,3.82-2.49,3-8.87,6,2.62-5.07.92-6.07,1.84-10.93,1.48-7.68,1.11-8.1-2.58-2-3,5.26-7.1,7.7-12.75,9.12,1.16-5,.34-5.85.55-11,1.48-7.71,1.11-8.12-2.59-2-3.14,5.54-8.91,8.84-15.13,10.31,1.87-5,1.65-6.23,2.57-11.93,2.21-8.58,2.21-8.61-4.81-1.81-4.09,5.59-8.06,8.35-14.52,10.82,1.19-4,1.54-7,2.93-11.22.48-3.73,1.89-4,.57-8.27-3.27,1.2-5.64,6.22-7.3,8.25-1.12,3.09-5,5.58-11.4,4.57,1.53-4.54,2.51-6.09,3.26-11.71.43-3.25.83-4.25,0-9-5.87,5.16-5.9,6.17-8.68,8.87s-6.21,2.66-10.41,3.15c4.95-3.44,5.36-7.88,7.45-11.49,1.86-2.79,2.23-3,4.4-6.68a33.85,33.85,0,0,0-9.14,1.39c-11.7,3.87-6-4.21-4.28-8.73-1.39,1.89-.63-2.73-2.63,2.59a16.31,16.31,0,0,1-2.14.53c-1.94,4.11-4.84,9.38-9.8,12.28,6,1.62,8.81-1.61,12.88-2.13,5.91-.75,7.09.36,5.34,4.27-1.51,3.15-4.45,6.15-9.31,11.51,6.2.28,15.69.46,21.48-6a28,28,0,0,1-6,15.81c7.15.6,15.14.44,19.46-3.6.08,6.07,0,6-3.84,11.22,4.4-.09,16.26-3.8,21.13-9.25-.49,5.18.36,6.87-4.59,12.8,9.6-2.43,17.9-5.23,21.23-9.43-.65,4.61,1,5.59-7.69,11.33,11.11-1.69,19.68-2.23,22.67-6.42.22,4.9-1.72,5.05-3.64,10,5.57-.88,11.18-4.45,12.1-4.74,4.07-1.18,6.79,3,8.27,6.63,3.31,3.49,5.05,2.94,9.85,6.3-.75-5.52,2-10.27,5.16-18.85L349,550q8.13,6.65,16.26,13.45c25.87,20.73,45.83,50.71,50.64,73.52,8.87,41.64-9.24,92.89-38.07,110.37-14.79,8.63-56.55,6-77.25-4.57-24.76-12.82-37-44.38-29.2-77.37,6.29-25.62,32.9-39.25,50.64-24.71,5.91,5.35,6.28,7.39,2.58,14.21-5.17,8.85-1.47,13.7,7.77,10.27,7-2.65,10.71-15,7.76-25.67-5.92-21.14-46.94-27.25-68-8.55-13.3,11.73-23.65,47.23-20.33,70.38,3.7,26,21.81,51.38,44,63.4,25.13,13.19,69.11,15.4,95,4.37A91.89,91.89,0,0,0,421,748.06c8.35-8.91,15-19.85,20.07-33.1,2.53-6.63,7.31-15.31,6.4-28.66,4.18-1.91,5.21-14.63,1.93-21.67,5.85-.45,6-13.26-.77-19.11,2-.14,3.41-1.85,4.35-4.41a29.07,29.07,0,0,0,1.37-9.45,41,41,0,0,0-1.22-10.11c-.78-3-1.94-5.37-3.39-6.38C455.16,613,456.27,609.82,456.23,606.06Zm-8.84,6.38c-3.6.38-7.14,1-3.3,2.77,5.09,2.35,7.67,9.82,7.49,16.5s-3.1,12.58-9,11.89c6.61,3.9,12.43,19.8,1.44,18.15,5.51,3.84,4.4,20.46,1.44,20-2.21-.32-9.43-1.32-2.21,3.06,4.43,7.92-9.61,45-22.18,58.45-20.33,22.29-42.13,29.07-77.25,28-24-.84-32.89-2.69-47.67-10.12-33.27-16.82-48.42-56-37.33-98.83,7-25.59,17-35.11,41.76-38.49,14.05-1.43,19.59-.1,27.72,7.32,10.72,9.56,12.94,19.8,5.54,27.65-7,7.51-10.71,5.46-5.91-3.78,4.07-7.19,3.7-9.25-4.06-16.26-5-4.52-9.68-7.17-15-7.8S289.58,631,290,635.4c-.88-2.3-5.35-.81-9.27,3-1.42,1.35-8,6.62-4.39,9.44-3.77-.68-7.05,1.47-8.47,6.9-1.78,6.76-3.43,11.75-.73,12.88-3,.9-3.46,3.74-4.23,9-.55,3.75-2.11,8,1.54,9-3.56,1.16-2.68,6.2-2.25,9.45s-.23,8,3.3,7.68c-3.07,2-.6,6.54.78,10,1.58,3.89,2.94,8,5.7,7.25-1,4.57,1.34,7.24,3.42,10.32,3.15,4.68,3.83,6.5,7.83,6.78-1.52,3.08,1.39,4.34,4.42,7.23,3.72,3.55,6.84,3.79,8.18,2.41a4.54,4.54,0,0,0,1.81,4.31c1.89,2.15,4.29,3.36,10.81,5.67a163,163,0,0,0,24.19,6,159.68,159.68,0,0,0,23.22,2.81c6.56.15,11.94-.61,16.14-2.6,2.89-1.26,3.36-1.35,4.17-2.62a12.24,12.24,0,0,0,2.68-.4c8.5.51,40-34.35,47.41-52.28,3.33-8.07,5.55-26,5.92-46.18,0-30.35-2.22-42-14.79-74.73-6.65-17.61-42.87-62.79-51-63.1-3.33-.22-5.91-2-5.91-4.42,0-2-4.07-5.11-9.24-7-4.81-1.46-10.72-5.32-13.31-8.64-2.22-3.29-9.22-6.8-21.95-9-.32-.06-.57-.09-.77-.11-.37.39-1.26-.11,0,0,.44-.45.14-2.2-5.49-7.73-11.29-7.06-14.78-12.47-19.47-19.2-4.23-6.07-13.67-11.19-19.59-12.82-5.54-2.09-11.46-7.69-13.3-12.79-2.79-5.76-5-7.16-8.21-8.35a17.61,17.61,0,0,0-11.36-.68,34.87,34.87,0,0,0-8.8,6c-.88-2.8-.54-6.25,2.26-8.15,3.86-2.69,10.24-2.86,15.44-3.64,5.71.15,4.57-2.13,4.76-3.43.59-4.06-16.56-3.2-16.38-5.77q8.73,0,17.46.17s4.8-2.11,4-5.82c-4.56-3.95-18.32-5.26-18.32-5.22-5-.88,12.86-1.92,14.35-5.41h0c.9-2.11-1.18-5.65-5.81-6.42-9.9-.07-7.61-.25-12,.21-3.76.86-7.12,2.24-8,2s1.27-3.42,4.69-4.87a61.93,61.93,0,0,0,9.28-4.46c12.21-3.19,15.06-2.87,18.63-9.64-5-2.59-3.75,2.19-17.46-2.42a32.45,32.45,0,0,0,12.57-3.42c1-3.25,1.94-4.45.3-5.74a40.73,40.73,0,0,0-8.85-5.34c-3.24-1.24-15.4-2.47-20.48-.68,5.14-9.39,22.3-5.82,22.3-5.76,21.07.48,24-2.7,13.3-18.59-3.32-5-5.12-5.92-4.82-8.26.22-1.79,7.78.91,13.69,5.2,7.4,5.21,8.51,5.18,10.72-1.82,1.67-4.73-3.35-8.76-.53-12.09.71-.84,7,1.59,8.85.31s-.76-8.87.59-9.92c2.71-2.09,4.07-.33,9.56.54,5.92-1.08,3.83-2.13-3.56-10.47-4.63-4.5-7.94-8.1-12.2-11,4.59-.63,22.43,11.22,26.46,13.5,4.93,2.12,4.72-.44,6.94-2.36,1.81-1.28-4.88-9.95-4.2-11.2.92-1.64,8.7,8.86,10.95,7.49,3.43-2.1.1-11.38,1.94-11.55,1.85,0,2.52,8,6.67,5.66,2.76-1.54,1.47-12.35,4.74-13.74s.09,8.85,2.9,8.42c5.17-5.51,16.53-10.27,21.44-11.67,5.49-2.54,14-1.94,16.1-1.33,4,1.14,5.36,2.66,6.28,3-3.38.7-4.12,1.25-9.62,3-13,4.43-23.95,18.35-23.95,22,.3,3.53,3.46,8.83,8.64,16,5.17,7,7,8.78,10.72,8.89,4.42-1.15,5.37-2.4,9.3-8.15.59-2.43,2.57-9.09,2.68-12.93.63,1.39,1.8,15.83.32,20.17,1.74-1.31,5.56-7,6.32-8.46a88.37,88.37,0,0,1,1.7,10.51c0,2.83,2.22,4.25,4.07,3.21,1.11-.5,3.76-4.24,4.63-5.91.35,1.73-.93,8.5-.93,10.33,0,3.64,1.84,5.44,3.69,4.42a10.49,10.49,0,0,1,4.1-1.27c.34,2.45-2.8,8.69-5.95,11.2-3.32,2.9-4.43,6.44-2.21,9.49,1.47,2.58,5.17,11.86,7.39,20.2a48.76,48.76,0,0,0,17.37,25.49c14,11.49,15.15,14.93,7,21.13-4.8,3.84-7.76,2.22-17.74-8.64-6.65-7.63-8.87-8.66-4.8-3.37,4.06,5.7,5.91,10,4.8,9.84-2.22-.29-23.65-17.2-39.55-30.83A113.48,113.48,0,0,0,355.63,380c-5.17-2.3-6.65-6-5.17-13.62,1.11-6.43.37-8.89-1.85-6.57-6.28,6.63-1.48,18.5,10,25.21q5.12,4.09,10.23,8.25l-2.45.41q-3.54.9-7.06,1.83c-4.35,1.15-8.85,1.61-14-1.84-3.69-3-10.72-5.25-15.52-5.35-20.33-.34-27.35-27.21-12.94-50q3.89-6.46,7.76-12.88-6.65,6.78-13.3,13.68C295.39,355.85,293.17,374.2,305,395c9.61,17.34,21.06,24.91,42.87,28.67,29.2,5.12,35.94,10,37.44,15.55,0,3.22-11.41,8.49-17.48,11.89-6.12,2.82-18.49,4.67-17.26,7.28,1,2,17.6-2.55,24.25-6.24,13.07-9,21.6-6.71,21.6,3.39,0,2.84-3.83,7.71-10.11,10.79-5.92,3.09-17.39,7.86-17.39,8.69,0,1.2,12.58-2.69,20.71-6q5.56-2.71,11.12-5.36,5,2.76,9.95,5.56c6.65,8.87,6.65,11.24-.37,16.1-3.69,2.77-20.5,5.62-24.2,9.52,9.51-.91,18.29-2.5,23.83-4.3,8.13-3.12,10.72-2.39,17,4.48,5.23,7.85,9.09,14.66,4,18s-21,4.85-25.73,8.65c10.24,1.45,23.62-6.06,29.86-4.92,4.71,2.55,4.06,4.16,8.13,11.62,8.13,13.72,3.57,18.14-1.37,22.76-4,2.63-13.14,2.29-16.07,5.44.79,3.42,15.85-2.69,21.83,2.35s3.74,19.4-2.92,21.47a42.05,42.05,0,0,0-10.75,1c3.25.75,9.08,2.07,12.82,4.36s5.4,11.68,6,17.27C453.34,611.55,451.69,612,447.39,612.44Z"/>
    <path d="M233.14,521.54c.73-1.91.76-3.19-1.56-2.6-.84.21-1.75,2.64-3.21,5.72a16.31,16.31,0,0,0,2.14-.53C232.51,518.81,231.75,523.43,233.14,521.54Z"/>
    <path d="M375.48,356.45c-1.55-.12-2.8,1.7-2.8,4.07s1.25,4.37,2.8,4.49,2.8-1.69,2.8-4.06v-.15C378.23,358.49,377,356.56,375.48,356.45Z"/>
    <path d="M379.19,350.42a9.6,9.6,0,0,0-13.45,5.41,11.66,11.66,0,0,0,.17,8.4,11.85,11.85,0,0,0,5.87,6.36,10.31,10.31,0,0,0,3.69,1,9.53,9.53,0,0,0,9.77-6.31l-2.66-1.38a7,7,0,0,1-9.81,3.83,8.56,8.56,0,0,1-4.26-4.59,8.37,8.37,0,0,1-.12-6,7,7,0,0,1,9.82-3.88,8.68,8.68,0,0,1,4.25,4.64,8.34,8.34,0,0,1,.13,6l2.66,1.37a11.69,11.69,0,0,0-.19-8.39A12,12,0,0,0,379.19,350.42Z"/>
    <path d="M350.64,345l1.33,2.83c10.81-5.75,26.24,5.27,26.4,5.4l1.45-2.57C379.14,350.15,362.87,338.49,350.64,345Z"/>
    <path d="M282.74,464.55c-4.36-4.05-11.24-6.74-15.2-7-3.21,2.47-4.12,3.63-3.7,5.76-1.23,2.53-2.59,2.87-3.34,5.94,3.46,2.57,10.27,5,12.57,8.76,4.93,6.68,7.1,9.58,8.88,15.55a71.2,71.2,0,0,0,7.47-5.26c3.24-3.56,4.35-4.39,6.06-8.14C291.3,474.12,290.17,471.44,282.74,464.55Z" style="fill: #dfdfdf"/>
    <path d="M305.65,487.38c-5-2.64-4.24-3.07-7.36-4.48-2.36,1.61-3.26,5-6.66,7.54-2.08,2.26-4.93,3.53-8.43,6.23,1.33,6,4.54,6.06,7.27,9.59,3.86,4.74,7.09,6.72,12.06,8,2.66-3.53,2.7-5.66,5.56-8.51a57.12,57.12,0,0,0,5.21-9.37C309.11,490.27,311.08,491.1,305.65,487.38Z" style="fill: #dfdfdf"/>
    <path d="M327.29,501a50.48,50.48,0,0,0-11.18-2.87c-2.15,2.71-2.62,5.42-5.18,9.22-2.07,2.21-1.95,3.61-4.18,8,2,6.09,6.23,9,10.66,11.94a88.69,88.69,0,0,0,12.91,7.6A49,49,0,0,0,334,523.49c1.33-6.67,1.59-11.41,3.3-15.06C334.15,504.72,333.35,502.51,327.29,501Z" style="fill: #dfdfdf"/>
    <path d="M348.29,514.86c-4.42-1.74-3.82-3.06-7.57-3.74-2.36,4-2.2,9.53-3.27,14.69h0c-1,3.09-2,5.62-3.55,10.92,2.82,3.16,3.26,1.92,7.69,5s4.76,4.57,9.73,7.15c1.81-4.11-.06-10.74.89-15.38,1.34-6.63,2.23-6,6.28-9.94C356,517.94,352.87,517.21,348.29,514.86Z" style="fill: #dfdfdf"/>
    <path d="M371.62,531.81c-4.2-4.41-6.15-3.33-10.53-5.53-2.37,2.11-3.27,3.14-5.4,7.75-.59,4,1,11.55-.58,16.57a69,69,0,0,1,9.18,8.31c3.44,2.54,5.18,4,8.88,6.87,2-5.43,1-6.86,4.5-11.58s6.26-5.6,9.24-7A161.33,161.33,0,0,0,371.62,531.81Z" style="fill: #dfdfdf"/>
    <path d="M387.6,550.36c-2.36,2-5.38,2.62-7.51,7.18a65.64,65.64,0,0,0-3.55,10.5c4.72,5.09,5.17,5,8.75,9a86.58,86.58,0,0,1,5.7,7.24c2.44-2.8,3.45-2.78,7-5.91s4.57-3.09,8.4-4.75c-2.49-4.11-3.29-5.22-8.51-12.07C393.72,557,392,552.69,387.6,550.36Z" style="fill: #dfdfdf"/>
    <path d="M407.54,577.45c-2.15,1.32-4.54,2.61-7.09,4.51h0c-2.5,1.25-3,1.66-6.73,4.78a71.58,71.58,0,0,1,5.14,7.35c3.45,4.07,1.59,2.69,4.22,6.23,3.29-2,4.5-3.47,7.26-4.63s2.44-.72,6.27-2.35c-1.64-4-1.8-4.61-3.84-7.68C411.54,582.57,409.59,580.3,407.54,577.45Z" style="fill: #dfdfdf"/>
    <path d="M417.51,596.6c-2.57.91-3.9,1.6-7,2.84-2,1.16-2.91,2-6,4.2,2.07,3.54,2.84,4.35,4,6.93s1.15,1.72,3.26,6.28a60.7,60.7,0,0,1,6.2-3,57.19,57.19,0,0,1,5.63-1.69c-1.32-4.24-1.91-5.56-2.67-8.14C419.71,601,419.25,600.37,417.51,596.6Z" style="fill: #dfdfdf"/>
    <path d="M423.81,615.37c-2.57.88-2.55.5-5.63,1.72-2,1.15-3.06,1-5.69,2.31,2.08,3.55,4,10.08,4.88,13a63.17,63.17,0,0,1,2.77,13.28,15.5,15.5,0,0,1,5-1.14c2.38-.22,1.26,0,4-.23a127.33,127.33,0,0,0-1.47-14.74C426.76,625.58,425.55,619.14,423.81,615.37Z" style="fill: #dfdfdf"/>
    <path d="M424.85,647.89h0c-1.59.28-2.4.63-4.27,1.06a139,139,0,0,1,.31,17.12c-.51,8.89-.57,11.46-2.29,18.77a24.37,24.37,0,0,1,4.7.59,11.61,11.61,0,0,1,4,1.5c1.15-7.88,1.24-14.29,1.75-22.13a169.53,169.53,0,0,0-.2-17A21.9,21.9,0,0,0,424.85,647.89Z" style="fill: #dfdfdf"/>
    <path d="M421.55,688.88h0c-1.59.29-1.79.22-3.67-.83-2.34,10-2.92,12.55-6.44,21.59-4.26,9-5.51,11.88-12.64,21.46.85.93,1.44,1.22,2.15,2a21.79,21.79,0,0,0,2,2.35,163.45,163.45,0,0,0,15.85-20.55c4.1-7.7,5.88-12.45,8.05-25.5C424.88,689.36,422.51,688.75,421.55,688.88Z" style="fill: #dfdfdf"/>
    <path d="M399.2,735.15a11.84,11.84,0,0,0-1.72-1.54c-3.54,4.54-4.88,6.66-10.19,11.18a29.86,29.86,0,0,1-12.53,7.2,9.7,9.7,0,0,0,1.19,2.53,16,16,0,0,0,1.53,2.3c8.42-3,9.65-5.78,13.76-8.71,5.44-5.39,7.53-7.35,10.45-10.85-1.86-1.49-1.27-1.13-2.49-2.11Z" style="fill: #dfdfdf"/>
    <path d="M372.63,755.63c-.21-1.16-.12-.73-.94-2.42a82.52,82.52,0,0,1-15.25,2.29,98.6,98.6,0,0,1-18.28-.5c-.1,1.5.06,1,0,2.46a28,28,0,0,1-.27,3.2c5.4,1,10.25,1.44,21.75,1.67,9.37-1.43,10.22-1.54,14-3.76-.63-1.42-.38-1.73-1.05-2.94Z" style="fill: #dfdfdf"/>
    <path d="M316.09,750.92c-3.43-1.28-9.83-2.41-15.81-6.23-1.21.83-.81.48-1.34,1.56-.4.81-.51.58-.14,2.52,5,2.84,7.71,4.71,15.84,7.24,10.79,2.49,11,2.3,19.89,4.22.34-1.77.3-1.37.53-2.61h0c.08-1.14.1-1.53.18-3.24A193.75,193.75,0,0,1,316.09,750.92Z" style="fill: #dfdfdf"/>
    <path d="M295.27,741.73c-2.61-1.9-7-4.58-8-6.37-1.18-2-2.08,1.2-2.62,2.29-.4.83,1.63,3,2.94,4.13,2.67,2.29,3,3.14,5.8,3.48,1.7.21,1.8-.31,3.16-1.46C297,743.35,297.34,743.23,295.27,741.73Z" style="fill: #dfdfdf"/>
    <path d="M275.68,720.54c-1-2.12-2.38-.31-2.09,2.3.1.91,2.29,4.85,3.38,6.2,1.92,2.36,2.66,4,3.71,5,1.3,1.17.9.84,2.48.23h0c.63-.25,1.89-1.07,0-2.85A37.79,37.79,0,0,1,275.68,720.54Z" style="fill: #dfdfdf"/>
    <path d="M269.3,704.25c-.59-2.31-2.86-.85-3.51,1.11-.58,1.76,1,4.24,1.74,5.93,1.22,2.87,2.27,5.4,3.32,6.33,1.3,1.15,1.13.82,2.71.18.63-.26-.31-2.64-1-4.51C270.72,708.43,270.37,708.4,269.3,704.25Z" style="fill: #dfdfdf"/>
    <path d="M267.65,687.93c-.23-2.41-3.66-1.44-4,.58a19.22,19.22,0,0,0,0,5.64c.23,3.22-.33,5.84,1.16,6.46,1.85.78,3,.86,3.6-.48h0c.49-1,0-1.59-.49-6.42C267.58,690.72,267.82,689.68,267.65,687.93Z" style="fill: #dfdfdf"/>
    <path d="M265.94,670.68a17.24,17.24,0,0,0-1.34,5.74c-.08,2.75-1.31,5.26-.27,6.57.87,1.09,2.35,1.35,2.7.23.58-1.8.46-3.58.79-6.43.29-2.6.6-4.16.58-5.34C268.37,669,266.47,669.31,265.94,670.68Z" style="fill: #dfdfdf"/>
    <path d="M272,650.65c-1.64,1.59-2.56,4.31-3.06,6.58-.6,2.7-2,5.22-1.55,7.39.3,1.44,1.9,2.38,2.26,1.26h0c.57-1.8.93-3.38,1.68-6.16.82-3,3.23-6.69,3.59-8.55C275.39,648.77,273.22,649.49,272,650.65Z" style="fill: #dfdfdf"/>
    <path d="M285.36,637.16a35.07,35.07,0,0,0-4.19,3.53c-2.19,2-3.33,2.7-3.64,4-.35,1.47.89,1.08,2,1h0c.73-.06,3.14-3.27,5.29-5s3.15-2,3.51-3C289.13,635.47,286.64,636.42,285.36,637.16Z" style="fill: #dfdfdf"/>
    <path d="M1033.18,545.26c-14.47,7.31-32.84,10.22-33.92,6.19-.18-.58-.9-2.3-1.56-3.82-1.26-2.67-1.26-2.74-.12-4.33.6-.9,2.4-3.48,4-5.71a59.41,59.41,0,0,0,4.69-8.3c2.1-4.92,4.56-7.72,7.38-8.46,6.6-1.82,6.66-1.84,11.29,0a29.68,29.68,0,0,1,5.46,2.66,1.51,1.51,0,0,0,1.62.38c1.62-1.33,2.46-10.13,1.08-11.85-1.74-2.33-5.94-3.34-11.52-2.89-6.19.44-7.63-.22-3.85-1.67,6.19-2.38,12.13-6.32,12.43-8.2.3-1.7-3.54-1.53-13.21.06-11.77,1.83-10-.05,4-4.72a46.07,46.07,0,0,0,9.24-4.23l3.24-2.14-1.56-.71c-2-.86-6.18-1.2-13.63-1.36-5.94-.15-7-1-3.18-2.29,2.52-.79,18-2.28,21-2.05l1.92.18-.36-2.44c-.78-6-1-6.24-4.81-7.82-4.26-1.77-13-3.53-19.27-4-2.4-.14-4.26-.43-4.14-.57a19.69,19.69,0,0,1,4-1.39c4.14-1.14,7.51-3.17,9.25-5.48,1.14-1.52,1.14-1.58,0-2.44-2.4-1.82-5-2.3-9.61-1.84-5.46.54-5.58-.11-.54-3.63,5.34-3.76,11.83-6.17,20.77-7.78,4.27-.77,7.75-1.76,7.75-2.09,0-1-7.21-7.3-9.31-8.22-2.7-1.22-8.22-.68-16.39,1.36-15,3.63-19.39,2.94-18.07-2.05.72-3,5.4-10.73,10-16.68l3.9-5-1.68-.76a13,13,0,0,0-5-.59c-2.94.12-4.32.7-9.72,3.86-9.13,5.24-10.51,5.72-11.71,4.81-1-.67-1-1.07.24-5.27,1.26-4.48,1.68-9.7.78-9.65-.24,0-2.4.6-4.86,1.24-2.82.79-4.69,1-5,.61s-.3-1.83.12-4c1.21-6.3,1.32-6.09-4.14-5.37-4.14.53-4.8.4-4.8-.45,0-1.43,11.41-13.23,17.35-18.05,2.7-2.25,4.68-4.14,4.32-4.25-1.2-.34-15.49,2.63-18.13,3.65a70.58,70.58,0,0,0-6.42,3.53c-2.11,1.37-5.65,3.47-7.93,4.74a18.22,18.22,0,0,0-5,3.59c-1.8,2.77-1.68-.65.18-5.39,2.16-5.47,2.22-6.86.54-7.83s-3.24-.18-7.51,3.42c-4.92,4.11-6.66,3.15-5.58-3a16,16,0,0,0,.3-4.73c-.6-1.78-3.24-1.1-5,1.3s-3.19,2.83-4.27,1.36a49.91,49.91,0,0,1-2.46-6.25c-2.22-6.24-3.36-7.79-4.56-6a13.65,13.65,0,0,0-1.2,4.36c-.24,1.9-.78,3.46-1.26,3.64s-3.07-1.23-5.83-3.19c-8.58-6-15-9-23.53-10.9-5-1.08-8.47-1-11.47.23-2.64,1.16-5.65,3.84-5.65,5.09,0,.27,1.93,1.3,4.27,2.28,12.55,5.38,25.88,16.08,29.06,23.59,1.32,3.23.6,5.37-4.21,12.07-8.4,11.67-12.48,12.28-16.81,2.48-2.22-5.1-3.9-11.09-3.9-14a6.72,6.72,0,0,0-.6-2.68c-.42-.83-.78-.79-2.1.48-1.62,1.51-2.34,3.81-3,9.41-.24,1.88-.66,3.43-.9,3.4s-.84-1.19-1.2-2.6a15.52,15.52,0,0,0-1.21-3.07c-.6-.84-3,5.38-3.6,9.46a23.59,23.59,0,0,1-.9,4.13c-.72,1.18-2.34.43-4.56-2.16L860.51,402l-.78,1.89a26,26,0,0,0-.54,7.58c.18,4.55.06,5.53-.6,5.19-2.11-1.07-6.13-2.43-6.49-2.14-.66.72-.24,6.29.72,8.82a28.82,28.82,0,0,0,3.9,6.35c4.15,5.16,4.09,6.93-.3,16.8A80.55,80.55,0,0,0,852,458.37c-1.38,5.89-3.9,9.2-14.47,18.29-13,11.25-15.79,15.8-12.73,21.56a17.71,17.71,0,0,0,20.78,8.22c4.38-1.3,29.3-14.17,35.06-18.15l5.58-3.84,4.33.78a33.84,33.84,0,0,1,7.5,2.2c7,3.07,14.23,3,17.47-.15,2.17-2.09,6.61-3.35,13.21-3.85,6.37-.52,8.17-1,11.89-3,5.46-3,9.37-8.26,11.35-15.25,1.44-5,1.26-15.27-.3-21.5-.66-2.56-1-4.73-.78-4.73.72,0,4.74,8.25,6,12.3,1.8,5.76,1.68,13.19-.3,21.18-2.4,9.63-5,14.54-11.65,21.77C934,506,923.61,510.3,900.25,511.1c-11.1.39-18.31,1.82-22.87,4.8-4.81,3.2-6.85,5.7-6.85,8.4,0,1.91-.3,2.28-2.4,3.13-4.2,1.71-8.94,8.25-9,12.46,0,1.05-.42,1.66-1.2,1.78-3.73.66-10,4-12.91,6.91a13.26,13.26,0,0,0-4.27,6.86c-1.2,4.58-3.06,7.39-8.82,13.36-5.53,5.79-8.83,11.84-8.83,16.25,0,1.51-.54,2.23-2.46,3.34-5.28,3.09-12.31,14.94-13,21.8-.3,3-.06,4.07,1.56,7.93l1.86,4.48-1.74,1.72c-2.64,2.5-3.9,7.7-3.54,14.79.3,5.64,2.16,12.1,3.54,12.3.84.13.66,1.88-.24,2.14-2.22.59-5.22,12.36-5.22,20.32a11.41,11.41,0,0,0,4.14,9.3c1.74,1.38,2.52,3.27,1.32,3.09s-3.18,6.5-3.48,11.45c-.48,7.16.66,12.79,3.24,16.07l2,2.46-1.74,1.92c-3.72,4.11-4.08,11-.78,14.74l1.86,2.05-.9,3c-1.5,5.36-.66,14.1,1.74,17.48.54.74,1,3.44,1.2,6.69.48,6.64,1.57,11.54,4.33,19.56,10.26,29.25,22.39,48.16,41.13,63.43,16.81,13.7,33.74,20.22,57.63,21.23,32.25,1.27,54.7-9.38,71.63-31.78,10-13.23,17.23-29.21,19.94-43.59,3.48-18.89-2.47-46.92-13.27-62.85-4.75-6.91-10.87-11-21-13.93-5-1.54-6.12-1.59-16.51-1.41-12.55.07-16.63.83-24.68,5.11-8.28,4.43-11.94,9.85-12.42,18.46-.48,9.58,2.28,16.6,7.86,19.58,3.84,2.13,7.21,2.26,8.83.5s1.5-3.46-1.26-9.62c-3.13-6.89-2.94-8.79,1-12.74a28.2,28.2,0,0,1,23-7.32c8.53,1.29,15.19,5.05,21.44,12.05,7.2,8.12,10.5,19,10.5,35a111.77,111.77,0,0,1-.66,12.86c-2.4,14.62-8.16,27.36-16.93,37.17-11.83,13.1-27.8,19.42-53.37,19.42-21.14-.08-32.49-3.68-42.09-12.28-14.59-13.06-27.44-37.94-33-63.19a122.17,122.17,0,0,1-3.25-30.24c.06-21.71,4.33-34.54,17.36-52.63,4.74-6.56,20.89-22.63,27.91-27.87,11.65-8.58,23.72-17.1,24.14-16.62,1,1.18,10.87,30.1,11.17,32.53l.24,2.7,4.2-2.18c3-1.56,4.56-2.85,5.59-4.6,1.86-3.19,4.26-5.19,6.3-5.17a18.56,18.56,0,0,1,5.46,2c3.84,1.86,7.15,2.95,7.15,2.42a26,26,0,0,0-1.5-3.41A14.31,14.31,0,0,1,948,660c0-1.58.06-1.58,1.08-.59a12.52,12.52,0,0,0,3.72,2.08c2.88,1.13,15.55,3,16,2.37.18-.14-.54-.77-1.56-1.27-2.28-1.24-3.42-3.13-4-6.4-.48-2.75-.24-3,2-1.23,2.4,1.77,7.08,3.67,12.37,4.88,5.88,1.37,6.18,1.33,4.92-.17s-2.7-5.59-2.76-8.35c0-2.43.18-2.5,2.34-1,3.3,2.48,12.55,5.18,16.45,4.92l1.68-.13-1.5-2a7.71,7.71,0,0,1-1.56-5.14,17.1,17.1,0,0,1,.18-3.11,21.6,21.6,0,0,1,2.28.94c1.56.79,3.54.91,8.77.43,3.66-.34,6.9-.89,7.14-1.18s0-1-.48-1.59c-2.1-2.41-5.34-11.63-4.5-12.7a12.36,12.36,0,0,1,3.36,1.18c3.36,1.57,9.67,1.72,14.65.28l2.64-.8-4.08-3.81c-4.68-4.35-6.24-7.61-4.38-9.33,1.2-1.06,6.66-1.85,11.16-1.69a16.37,16.37,0,0,0,4.69-.47l1.86-.53-1.68-.94a18.48,18.48,0,0,1-6.67-6.83l-1.26-2.33,3.72-.63a86.69,86.69,0,0,0,8.53-2.1c3.9-1.26,4.56-1.64,3.66-2.09-5.4-2.69-8.52-6.59-7-8.78.36-.58,2.46-1.35,5.1-2a21.44,21.44,0,0,0,6.43-2.55c2.22-1.63,2.46-1.33-3-3.79-1.74-.77-3.3-1.84-3.48-2.34s.48-1.91,1.5-3.26c2.82-3.54,2.58-6.46-1.08-13.57l-2.94-5.73,2.88-3.27c4.51-5.11,9-16.61,9-22.93v-2.56l-2.94,2.87A89.53,89.53,0,0,1,1033.18,545.26Z" style="fill: #dfdfdf"/>
    <path d="M1028.42,600.94c-2.32,0-2.29,1.26-1.56,3,1.39,1.54.63-2.88,2.63,1.92a13,13,0,0,0,2.14,0C1030.17,603.13,1029.25,600.94,1028.42,600.94Z"/>
    <path d="M949.31,390.47c.19.73.71,1.07,0,0Z"/>
    <path d="M944.83,586.38c.37.39,1.26-.1,0,0Z"/>
    <path d="M1050.36,548.8c3.51-7.47,5-14.28,4.53-19.82-5,5.1-7,6.77-10.07,9-5.3,4.31-16.66,10.3-26.7,13s-18.76,3.21-18.76-.83-4-3.41-1.12-6.87a49.75,49.75,0,0,0,10.07-17.72c3.17-4.49,7.17-5.2,12.47-5.86,2.81,1.33,8.3,2.08,10.83,5.75,2.38-1.57,3.61-9.78,2.41-13.44-.52-1.56-6.64-3.9-10.09-3.63s-5.29,1.56-8.33.47c3.58-1.51,5.54-1.66,9.26-4.15,3.32-2.21,6.53-3.71,6.1-6-.54-2.69-18.87,1.38-21.46,1.63-2.13.31,4-3.05,8.53-4.18,3-1.49,9.57-1.8,16.26-8.16-4.93-2.8-7.53-1-11.58-2.17q-4.62,0-9.22,0c-3.82-1.88,14.68-3.52,18.59-4.1,2.65.52,5.08,1.44,5.89.91s.16-3.68-.66-9.06a21,21,0,0,0-9.14-3.82c-3.06-.8-5.76-1.25-9.25-2.08a52.78,52.78,0,0,1-9.19-.46c5.59-1.51,9.55-1.2,15.11-8.27-2.25-1.21-3.13-3-5.83-3.38a19.94,19.94,0,0,0-5.87.09c-4.25.42-5.49,1.38-2.65-1.13s8.28-5.63,14.38-7.58c5.36-1.65,13.49-2.81,17.41-3.6-1.8-3.61-5.15-5.4-7.18-7.55-3.33-4-11-2.83-22.43.36-18.11,4.11-19.22,1.62-7.76-15.06q3.65-4.71,7.28-9.46l-4.62-1.57-5,.3c-4.81,1.62-10.93,6.11-14.62,7.95-5.92,3.18-5.59.47-3.75-4.88,1.48-4.54.41-4.46,1-9.42-2.95.19-10.75,3.77-10.75,1.74,0-2.43,1-4.1,1.6-9.71-2.59.12-8.39,1.08-9.67.8s1.78-3.56,4.89-6.73l8-8.18q5.64-4.44,11.3-9-8.38,1.69-16.77,3.17c-5.17.22-13.36,6.57-17.7,9.1-2.17,1.27-4.24,1.67-5.54,3.17a1.63,1.63,0,0,0-1.19,2c.71,1.07.19.73,0,0l-.37-.54c-1.11-2.16,4-8.61,3.31-12-3.66-7.61-11.88,6.37-13.66,4.07-3.42-.44,1.67-9.1-1-10.9-3.87-2.57-6.07,6-8.16,4.46s-3.43-12.72-6.72-14.21-1.95,11.27-4.17,9.47c-4.8-3.81-15.2-11.44-23.76-13.31-4.27-.93-9.26-2.64-13.47-2.15s-8.2,3.31-9.35,7.09a80.42,80.42,0,0,1,12.49,5.86c5.91,2.9,13.68,9.47,17.37,13.72,6.28,8,6.28,8.85-.74,18.18-8.87,12.83-13.3,11.67-18.11-4.08-2-6.23-1.4-10-2.36-12.19a9.73,9.73,0,0,0-3.8,3.13c-1.06,1.74-2,9.71-2,11.82-.89-.68-1.72-3.4-2.56-7.72a59.73,59.73,0,0,0-3.59,8.13c-.74,2.16-.1,8.13-2.32,7.92-1.29-.13-2.86-3-5.62-6-2.38,4.65-2,10.79-1.09,15.52a52.35,52.35,0,0,0-7.53-3.08,18.81,18.81,0,0,0-.09,7.58c1.35,3.32,1.76,6.1,4.72,8.85,4.44,4.51,4.44,6.94,0,15.78-3,5.76-5.17,12.39-5.17,15.23,0,2.43-6.66,9.8-15.16,16.42-10.35,8.4-14,13.93-12.56,18.59,3.69,10.23,15.15,14.58,25.5,9.67,4.8-2.28,15.52-7.61,24-12.13,5.73-2.93,9.5-6.39,13-8.53,5.61.33,9.89,1.18,14.72,4.1,7.39,1.65,13.31,1.07,14.79-1.29s7.39-4.17,12.93-4c14.79.34,24.47-10.54,25-26.21.23-6.82-.61-11.11-2.68-18.77,8.16,14,8.64,20.5,5.71,33-3.53,17.3-19.94,40.32-56.16,38.73-6.83-.2-12.56,1.52-19,2.43-4.13,2.36-12.95,6.69-11.16,13.28-6.71,1.34-11.31,8.46-11.41,14.71C842.61,544.78,840.43,555,840.43,557s-4.07,7.6-9.24,12.19-8.61,12.62-8,17.4c-5.73,2.45-7.78,6.88-11.26,11.52-3,6.14-7.87,13.57-.62,24.47-7.6,2-7.26,25.56-1.2,29.87-4.46,2.7-5.42,10.74-6.37,21.76,0,3.74,1.07,7.28,6.51,11-1.45.59-2.61,2.62-3.39,5.38a36.33,36.33,0,0,0-1.21,9.75,32.74,32.74,0,0,0,1.36,9.86c.93,2.83,2.36,5,4.35,5.69-6.78,3.85-6.62,16.7-.77,18.89-3.28,6.06-2.25,19.09,1.93,22.23-.91,13.08,3.87,23.15,6.4,30.49A135.6,135.6,0,0,0,839,826a114.74,114.74,0,0,0,30.24,27.65c25.87,16.49,69.85,17.9,95,2.75,22.18-13.08,40.29-41.9,44-68.56,3.32-23.81-7-57.13-20.33-67.25-21.07-15.31-62.09-10.09-68,10.06-2.95,10.42.74,23.13,7.76,26.15,9.24,3.85,12.94-1,7.77-10-3.7-6.94-3.33-8.95,2.58-14.13,17.74-13.79,44.35-2.33,50.64,22.25,7.76,31.78-4.44,65.8-29.2,79.69-20.7,12.09-62.46,11.09-77.25-.52-28.83-22.19-46.94-78.61-38.07-117.94,4.81-21.72,24.77-46.79,50.64-64.11q8.13-5.74,16.26-11.64,3,8.43,5.92,16.85c3.14,8.82,5.91,13.74,5.16,19.21,4.8-3.05,6.54-2.44,9.85-5.78,1.48-3.62,4.2-7.65,8.27-6.4.92.31,6.53,4,12.1,4.75-1.92-4.9-3.86-5-3.64-9.94,3,4.16,11.56,4.66,22.67,5.55-8.69-5.17-7-6.31-7.69-10.87,3.33,4.05,11.63,6.39,21.23,7.74-4.95-5.4-4.1-7.2-4.59-12.33,4.87,5,16.73,7.19,21.13,6.49-3.85-4.6-3.92-4.54-3.84-10.61,4.32,3.39,12.31,2.18,19.46,0a22.93,22.93,0,0,1-6-14.58c5.79,5.35,15.28,3,21.48,1-4.86-4.06-7.8-6.38-9.31-9.15-1.75-3.52-.57-4.85,5.34-5.6,4.07-.52,6.88,2,12.88-1.45-5-1.4-7.86-5.91-9.8-9.5a13,13,0,0,1-2.14,0c-2-4.8-1.24-.38-2.63-1.92,1.74,4.06,7.42,10.77-4.28,9.77a37.14,37.14,0,0,0-9.14.62,61,61,0,0,0,4.4,5.75c2.09,3.14,2.5,7.51,7.45,9.76-4.2.54-7.63,1.33-10.41-.79s-2.81-3.1-8.68-7.19a21.72,21.72,0,0,0,0,9c.75,5.49,1.73,6.86,3.26,11.1-6.37,2.23-10.28.31-11.4-2.61-1.66-1.77-4-6.44-7.3-7.2-1.32,4.45.09,4.53.57,8.19,1.39,4.06,1.74,7,2.93,10.82-6.47-1.57-10.43-3.91-14.52-9.1-7-6.15-7-6.18-4.81,2.24.92,5.63.7,6.91,2.57,11.72-6.22-.91-12-3.9-15.13-9.3-3.7-6-4.07-5.59-2.59,2.08.21,5.17-.61,6,.55,11-5.65-1.2-9.79-3.61-12.75-8.86-3.69-6.07-4.06-5.68-2.58,2,.92,4.86-.78,5.86,1.84,10.93-6.38-3-6.65-2.26-8.87-6.12-1.48-3.25-3.91,1-6.87,7.05-2.4,4.6-4.35,4.91-6.14,5.08-.44-3.56-1.77-6-4.73-13.76-3.32-9-5.54-16.4-5.17-17.19.74-.38,10-5.24,20.33-11.17,10.71-5.5,19.58-12.11,19.58-14.54,0-2,1.85-3.66,4.44-3.71,5.91,0,21.44-16.87,21.44-23,0-2.83,3.32-9.87,7.39-15.39,5.54-8.48,11.83-11.59,28.46-15.34,11.76-3.54,21.62-8.36,27.72-13,3-2.22,3.47-3.77,5.81-5.16.09,2.11-1.19,8.89-5.44,14-2.4,3.21-4.87,4.19-7,6,2,2,3.54,6.09,5.2,8.87,3.69,5.9,3.7,7.93-1.48,10.75-4.8,2.73-4.8,3.94-.74,6.18,1.66,1.17,4.17,1.76,5.92,2.72-2.74,1.18-4.89,1.71-10.13,1-6.66-3.48-7.17-2.14-4.29,1.95,2.36,3.58,4,7.71,7.38,10.23-3.93.8-5.72.28-9.23-.68-3.69-1.13-6.82-1.85-4.28,4.13a6.83,6.83,0,0,0,.74,1.08c-.73-1.73-.76-3,1.56-3,.83,0,1.75,2.19,3.21,4.88,4.49-.34,11.77-2.36,17.32-4.75-5.9-2.58-8-5.05-8.79-6.76-1.11-3.48,2.07-3.72,5-4.19a11.45,11.45,0,0,0,8.76-4.77c-2.65-1.11-6.69-1.88-9.12-4.85,7.58-6,3.18-12.54,1.41-15.7-1.46-2.52-1.58-4-3.28-6.55C1045.29,557.71,1048.7,552.32,1050.36,548.8Zm-61-4.82c-5.92,2.42-15.36,8.39-19.59,14.71-4.69,7-8.18,12.72-19.47,19.94-5.63,5.57-5.93,7.28-5.49,7.75,1.26-.1.37.39,0,0l-.77.1c-12.73,2.08-19.73,5-21.95,8.22-2.59,3.16-8.5,6.58-13.31,7.55-5.17,1.37-9.24,4-9.24,6,0,2.42-2.58,3.89-5.91,3.67-8.13-.3-44.35,37.9-51,53.49-12.57,29.64-14.79,40.62-14.79,71,.37,20.29,2.59,38.81,5.92,47.73,7.39,20.13,38.91,61.72,47.41,62.23a12.67,12.67,0,0,0,2.68.83c.82,1.4,1.28,1.56,4.17,3.25,4.2,2.61,9.58,4.1,16.14,4.66a111.91,111.91,0,0,0,23.22-.94,115,115,0,0,0,24.19-5.54c6.52-2.42,8.92-3.77,10.81-6a4.76,4.76,0,0,0,1.81-4.39c1.34,1.3,4.46.9,8.18-2.92,3-3.11,5.94-4.65,4.42-7.59,4-.64,4.68-2.54,7.83-7.56,2.08-3.3,4.43-6.27,3.42-10.72,2.76.43,4.12-3.89,5.7-8,1.38-3.6,3.85-8.55.78-10.06,3.53-.16,2.87-4.84,3.3-8.16s1.31-8.48-2.25-9.11c3.65-1.54,2.09-5.54,1.54-9.2-.77-5.13-1.21-7.9-4.23-8.38,2.7-1.51,1.05-6.26-.73-12.78-1.43-5.23-4.7-7-8.47-5.87,3.61-3.21-3-7.75-4.39-9-3.92-3.4-8.39-4.57-9.27-2.21.38-4.35-13.55-4.37-18.88-3.72s-10,3.3-15,7.68c-7.76,6.75-8.13,8.74-4.06,16.13,4.8,9.38,1.11,11.37-5.91,3.5-7.4-8.33-5.18-18.33,5.54-27.4,8.13-7.15,13.68-8.25,27.72-7.25,24.76,2.28,34.74,9.77,41.76,34.37,11.09,40.54-4.06,84-37.33,102.76-14.78,8-23.65,10.16-47.67,9.32-35.12-1.94-56.92-13.78-77.25-40.87-12.57-16.5-26.61-57.69-22.18-64.34,7.22-2.34,0-3.37-2.21-3.69-3-.43-4.07-17.36,1.44-19.61-11-1.56-5.17-15.73,1.44-17.75-5.92-1-8.85-7.78-9-14.51s2.4-13.42,7.49-14.31c3.84-.68.3-2.3-3.3-3.72-4.3-1.7-6-2.65-5.42-11,.64-5.4,2.4-14.32,6-15.48s9.57-.89,12.82-.78a53,53,0,0,0-10.75-4c-6.66-4-8.9-19.08-2.92-22.32s21,6.89,21.83,3.62c-2.93-3.88-12-6-16.07-9.76-4.94-6-9.5-11.77-1.37-23.15,4.07-6.3,3.42-8.1,8.13-9.36,6.24.59,19.62,11.49,29.86,12.22-4.69-4.75-20.64-10.09-25.73-14.84s-1.22-10.48,4-17c6.28-5.28,8.87-5.36,17-.38a116,116,0,0,0,23.83,9.1c-3.7-4.45-20.51-10.7-24.2-14.41-7-6.47-7-8.85-.37-16.18q5-1.67,10-3.4,5.57,3.81,11.12,7.54c8.13,4.83,20.71,10.56,20.71,9.32,0-.79-11.47-7.25-17.39-11.44-6.28-4.21-10.11-9.86-10.11-12.69,0-10.14,8.53-10.57,21.6.41,6.65,4.81,23.26,11.31,24.25,9.26,1.23-2.46-11.14-5.57-17.26-9.29-6.07-4.19-17.48-11.37-17.48-14.63,1.5-5.47,8.24-8.38,37.44-10.55,21.81-1.91,33.26-9.72,42.87-27.2,11.83-21.28,9.61-39.35-6.28-55.81q-6.65-6.87-13.3-13.84,3.87,6.53,7.76,13c14.41,22.59,7.39,50-12.94,49.62-4.8-.09-11.83,1.7-15.52,4.37-5.18,3-9.68,2.09-14,.43-2.35-.9-4.7-1.8-7.06-2.72l-2.45-.74q5.12-3.45,10.23-6.94c11.46-5.44,16.26-17,10-24.18-2.22-2.53-3-.14-1.85,6.39,1.48,7.76,0,11.34-5.17,13.09a111.49,111.49,0,0,0-15.89,9.52c-15.9,11.46-37.33,23.7-39.55,23.41-1.11-.13.74-4,4.8-8.77,4.07-4.43,1.85-3.84-4.8,2.29-10,8.57-12.94,9.38-17.74,4.32-8.13-8.38-7-11.42,7-19.35,8.5-4.21,14.42-12.08,17.37-21.47,2.22-7.86,5.92-16.38,7.39-18.67,2.22-2.61,1.11-6.36-2.21-9.94-3.15-3.15-6.29-10.07-6-12.45a13.17,13.17,0,0,1,4.1,2.14c1.85,1.41,3.69,0,3.69-3.67,0-1.82-1.28-8.85-.93-10.51.87,1.85,3.52,6.12,4.63,6.83,1.85,1.39,4.07.38,4.07-2.45a80.32,80.32,0,0,1,1.7-10.19c.76,1.58,4.59,8,6.32,9.56-1.48-4.59-.31-18.83.32-20.11.11,3.85,2.09,10.84,2.68,13.36,3.93,6.37,4.88,7.77,9.3,9.55,3.74.41,5.55-1.15,10.72-7.52,5.18-6.59,8.34-11.6,8.64-15.09,0-3.65-11-18.54-23.95-24.95-5.5-2.61-6.24-3.3-9.62-4.57.92-.15,2.27-1.44,6.28-1.94,2.1-.25,10.61.41,16.1,3.59,4.91,2.05,16.27,7.91,21.44,13.73,2.81.61-.38-9.84,2.9-8.24s2,12.32,4.74,14c4.15,2.52,4.82-5.42,6.67-5.39,1.84.23-1.49,9.41,1.94,11.61,2.24,1.46,10-9,11-7.36.68,1.27-6,9.9-4.2,11.19,2.22,1.93,2,4.51,6.94,2.36,4-2.18,21.87-14.86,26.46-14.79-4.26,3.25-7.57,7.09-12.2,11.83-7.39,8.67-9.48,9.74-3.56,10.63,5.49-1.1,6.85-3,9.56-1.06,1.35,1-1.24,8.71.59,9.88s8.14-1.8,8.85-1.05c2.82,3.06-2.2,7.57-.53,12.15,2.22,6.76,3.32,6.74,10.72.61,5.91-5,13.47-9,13.69-7.25.3,2.28-1.5,3.52-4.82,9.05-10.72,17.3-7.77,20.59,13.3,16.22,0,.06,17.16-7.34,22.29.45-5.07-.29-17.23,3.78-20.47,5.62a58.58,58.58,0,0,0-8.85,7c-1.64,1.58-.69,2.62.3,5.69a26.9,26.9,0,0,0,12.57.92c-13.71,7.48-12.49,2.27-17.46,5.75,3.57,6.14,6.42,5.51,18.63,6a42.8,42.8,0,0,0,9.28,2.24c3.42.57,5.53,3.18,4.69,3.63s-4.2,0-8,0c-4.42.58-2.13.32-12,2.48-4.63,1.71-6.71,5.6-5.81,7.55h0c1.49,3.38,19.31.48,14.35,2.43,0,0-13.76,4.29-18.32,8.9-.8,3.87,4,5.13,4,5.12q8.73-1.83,17.46-3.9c.18,2.67-17,5.49-16.38,9.3.19,1.25-1,3.78,4.76,2.5,5.2-.27,11.58-1.6,15.44.09,2.8,1.17,3.14,4.52,2.26,7.56a27.17,27.17,0,0,0-8.8-3.85,20.76,20.76,0,0,0-11.36,3.11c-3.2,1.81-5.42,3.62-8.21,9.85C1000.84,534.66,994.92,541.21,989.38,544Z"/>
    <path d="M884.52,443.54c-1.51-.11-2.75,1.61-2.8,3.91v.15c0,2.37,1.25,4.39,2.8,4.51s2.8-1.71,2.8-4.07S886.07,443.66,884.52,443.54Z"/>
    <path d="M880.81,436.93a9.45,9.45,0,0,0-5.87,5.45,11.59,11.59,0,0,0-.19,8.35l2.66-.91a8.26,8.26,0,0,1,.13-5.94,6.9,6.9,0,0,1,4.25-3.94c3.93-1.26,8.33,1.12,9.82,5.35a8.29,8.29,0,0,1-.12,5.95,7,7,0,0,1-4.26,4c-3.92,1.29-8.32-1.14-9.81-5.4l-2.66.92a11.62,11.62,0,0,0,9.77,7.93,9.53,9.53,0,0,0,3.69-.44,9.63,9.63,0,0,0,5.87-5.55,11.55,11.55,0,0,0,.17-8.37C892.21,438.5,886.18,435.21,880.81,436.93Z"/>
    <path d="M880.18,437.07l1.45,2.81c.16-.06,15.57-8.71,26.4-2l1.33-2.7C897.12,427.61,880.86,436.7,880.18,437.07Z"/>
    <path d="M992.46,546.54c-4,.82-10.84,4.29-15.2,8.71-7.43,7.52-8.56,10.21-12.74,16.5,1.71,3.66,2.82,4.43,6.06,7.78a58.24,58.24,0,0,0,7.47,4.66c1.78-6.14,4-9.23,8.88-16.48,2.3-4,9.12-7.36,12.57-10.5-.75-3-2.11-3.09-3.34-5.43C996.58,549.58,995.67,548.57,992.46,546.54Z" style="fill: #dfdfdf"/>
    <path d="M961.71,574.62c-3.12,1.53-2.31,1.94-7.36,4.72-5.43,3.81-3.46,3-7.65,9.13a55,55,0,0,0,5.21,9.34c2.86,2.79,2.9,4.92,5.56,8.38,5-1.49,8.2-3.64,12.06-8.64,2.73-3.7,5.94-4,7.27-10.14-3.5-2.4-6.35-3.46-8.43-5.6C965,579.51,964.07,576.13,961.71,574.62Z" style="fill: #dfdfdf"/>
    <path d="M943.89,590.11a57.61,57.61,0,0,0-11.18,2.62c-6.06,1.32-6.86,3.46-10,7,1.7,3.76,2,8.52,3.3,15.26a51,51,0,0,0,3.65,11.56,73.54,73.54,0,0,0,12.91-7.24c4.43-2.89,8.7-5.85,10.66-12-2.23-4.38-2.11-5.78-4.18-8C946.51,595.55,946,592.84,943.89,590.11Z" style="fill: #dfdfdf"/>
    <path d="M922.55,617.08c-1.07-5.23-.91-10.72-3.27-14.91-3.75.4-3.15,1.77-7.57,3.13-4.58,1.92-7.71,2.31-10.2,7.63,4,4.4,4.94,3.85,6.28,10.62,1,4.73-.92,11.18.89,15.46,5-2.1,5.44-3.45,9.73-6.3s4.87-1.5,7.69-4.5c-1.59-5.38-2.53-8-3.55-11.13Z" style="fill: #dfdfdf"/>
    <path d="M904.31,623.72c-2.13-4.84-3-6-5.4-8.37-4.38,1.66-6.33.33-10.53,4.13a143.46,143.46,0,0,0-15.29,13c3,1.88,5.76,3.23,9.24,8.51s2.48,6.54,4.5,12.28c3.69-2.3,5.44-3.55,8.88-5.64a62.32,62.32,0,0,1,9.18-7.23C903.3,635.17,904.9,627.81,904.31,623.72Z" style="fill: #dfdfdf"/>
    <path d="M872.4,635.42c-4.39,1.53-6.12,5.5-10.32,9.19-5.22,5.78-6,6.71-8.51,10.29,3.83,2.49,4.92,2.79,8.4,6.51s4.6,4,7,7.28a70.93,70.93,0,0,1,5.7-6.21c3.58-3.3,4-3.17,8.75-7.51a76.21,76.21,0,0,0-3.55-11.07C877.78,639,874.76,637.89,872.4,635.42Z" style="fill: #dfdfdf"/>
    <path d="M859.55,664.54c-2.55-2.44-4.94-4.24-7.09-6-2.05,2.4-4,4.23-5.23,7-2,2.59-2.2,3.13-3.84,6.78,3.83,2.53,3.43,2,6.27,3.81s4,3.54,7.26,6.22c2.63-3,.77-2,4.22-5.36,1.66-2,2.53-3.73,5.14-6.33-3.71-3.84-4.23-4.36-6.73-6.12Z" style="fill: #dfdfdf"/>
    <path d="M842.49,675.37c-1.74,3.35-2.2,3.83-3.43,6.62-.76,2.39-1.35,3.57-2.67,7.48,2.87,1.51,3.75,1.92,5.63,3.07s4,2.76,6.2,4.42c2.11-4.08,2-3.13,3.26-5.54s1.91-3,4-6.06c-3.08-2.88-4-3.92-6-5.53C846.39,677.89,845.06,676.88,842.49,675.37Z" style="fill: #dfdfdf"/>
    <path d="M836.19,692.58c-1.74,3.34-3,9.47-3.88,13.2a117.9,117.9,0,0,0-1.47,14.36c2.72.93,1.6.43,4,1.25a19.9,19.9,0,0,1,5,2.4,54.36,54.36,0,0,1,2.77-12.61c.92-2.68,2.8-8.76,4.88-11.84-2.63-1.87-3.72-2-5.69-3.65C838.74,693.73,838.76,694.11,836.19,692.58Z" style="fill: #dfdfdf"/>
    <path d="M839.42,727c-1.87-.89-2.68-1.44-4.27-2.12h0a25.58,25.58,0,0,0-4-1.12,168,168,0,0,0-.2,16.95c.51,8,.6,14.41,1.75,22.58a9.78,9.78,0,0,1,4-.48,25.94,25.94,0,0,1,4.7.56c-1.73-7.72-1.78-10.31-2.29-19.33A137.19,137.19,0,0,1,839.42,727Z" style="fill: #dfdfdf"/>
    <path d="M842.12,766.73c-1.88.59-2.08.61-3.67-.07h0c-1-.36-3.33-.35-5.34-.79,2.17,13.61,3.95,18.82,8,27.52A210.74,210.74,0,0,0,857,817.54a15.9,15.9,0,0,0,2-1.93c.71-.67,1.3-.84,2.15-1.59-7.13-11-8.38-14.27-12.64-24.2C845,780,844.46,777.32,842.12,766.73Z" style="fill: #dfdfdf"/>
    <path d="M862.52,816.79A8.68,8.68,0,0,0,860.8,818h0c-1.22.73-.63.49-2.49,1.6,2.92,4.11,5,6.51,10.45,12.92,4.11,3.68,5.34,6.7,13.76,11.1a12.45,12.45,0,0,0,1.53-2.06,8.14,8.14,0,0,0,1.19-2.35,35.86,35.86,0,0,1-12.53-9.28C867.4,824.43,866.06,822,862.52,816.79Z" style="fill: #dfdfdf"/>
    <path d="M921.84,846.22c-10.76.41-14-.59-18.28-1.11a75.61,75.61,0,0,1-15.25-4.24c-.82,1.57-.73,1.15-.94,2.28h0c-.67,1.11-.42,1.47-1,2.79,3.82,2.76,4.67,3.07,14,5.64,11.5,1.08,16.35.93,21.75.32a28.34,28.34,0,0,1-.27-3.22C921.78,847.27,921.94,847.74,921.84,846.22Z" style="fill: #dfdfdf"/>
    <path d="M959.72,836.49c-6,4-12.38,5.22-15.81,6.46a125.78,125.78,0,0,1-19.15,2.83c.08,1.72.1,2.11.18,3.26h0c.23,1.25.18.85.53,2.63,8.92-1.48,9.1-1.25,19.89-3.62,8.13-2.54,10.81-4.51,15.84-7.54.37-2,.26-1.71-.14-2.52C960.53,836.94,960.93,837.27,959.72,836.49Z" style="fill: #dfdfdf"/>
    <path d="M972.77,826.43c-1,1.87-5.43,4.85-8,6.87-2.07,1.62-1.76,1.71-1.24,2.14,1.35,1.08,1.46,1.6,3.16,1.3,2.78-.51,3.13-1.38,5.8-3.86,1.31-1.22,3.34-3.57,2.94-4.37C974.85,827.47,974,824.3,972.77,826.43Z" style="fill: #dfdfdf"/>
    <path d="M984.32,810.53a42.37,42.37,0,0,1-7.51,11.59c-1.86,1.94-.6,2.65,0,2.84h0c1.58.48,1.18.84,2.48-.45,1-1,1.79-2.77,3.71-5.34,1.09-1.46,3.28-5.65,3.38-6.57C986.7,810,985.36,808.3,984.32,810.53Z" style="fill: #dfdfdf"/>
    <path d="M990.7,793.48c-1.07,4.29-1.42,4.37-3.24,9.44-.71,2-1.65,4.45-1,4.63,1.58.45,1.41.81,2.71-.51,1.05-1.06,2.1-3.72,3.32-6.76.72-1.78,2.32-4.5,1.74-6.17C993.56,792.25,991.29,791.1,990.7,793.48Z" style="fill: #dfdfdf"/>
    <path d="M992.35,776.94c-.17,1.77.07,2.78-.24,5.81-.51,4.9-1,5.5-.49,6.49h0c.61,1.26,1.75,1,3.6,0,1.49-.84.93-3.38,1.16-6.63a19.26,19.26,0,0,0,0-5.64C996,775,992.58,774.51,992.35,776.94Z" style="fill: #dfdfdf"/>
    <path d="M994.06,759.46c-.53-1.3-2.43-1.33-2.46,1.1,0,1.19.29,2.71.58,5.26.33,2.81.21,4.61.79,6.32.36,1.08,1.83.61,2.7-.61,1-1.46-.19-3.79-.27-6.53A15.63,15.63,0,0,0,994.06,759.46Z" style="fill: #dfdfdf"/>
    <path d="M988,740.22c-1.21-1-3.38-1.49-2.92.86.36,1.83,2.77,5.2,3.59,8.13.75,2.69,1.11,4.22,1.68,5.94h0c.36,1.08,2-.07,2.26-1.56.44-2.23-1-4.56-1.55-7.18C990.55,744.21,989.63,741.61,988,740.22Z" style="fill: #dfdfdf"/>
    <path d="M978.83,731.24a34.35,34.35,0,0,0-4.19-3.16c-1.27-.63-3.77-1.41-2.92.8.36.93,1.49,1.28,3.51,2.71s4.56,4.49,5.29,4.49h0c1.06,0,2.3.25,2-1.18C982.16,733.62,981,733,978.83,731.24Z" style="fill: #dfdfdf"/>
    <path d="M830.68,861.79c-42.87-29.82-85.74-49.18-89.81-38.19-.74,2.08-1.36,3.27-2.38,6-4.3-1.91-15.54-7-26.82-11.33-34.74-13.76-130.1-35.18-164.84-35.14-11.27-.26-18.89,1.63-25.26,2.33-3.61-8.59-2.85-5.3-3.59-7.67-3-8.63-22.52-11.21-49.5-5.06h0c-21.81,4.45-53.23,17-65.79,25.12-4.07,2.82-3.7,6.49,2.58,20.92,4.44,9.38,8.88,17.59,9.61,17.68,1.11.13,13.31-4.52,27-10.27C455.54,820.76,473,814,481,813.63c6.14-.27,11.75-.53,15.22-1.48,1.4,4,.54,1.74,3.09,8,3.66,9.06,1.38,8.44,7.71,11.91,6.68,3.63,23.14-3,23.14-3,19.22-3.43,29.94-2.29,99,12.79s79.84,17.86,99.06,29.41c0,0,15.46,8.78,17.45,9.83s3,1.81,5.1,1.65c1.91-.14,3.89-3,4.77-4.73,0,0,4.25-10.41,5.34-14.14a163.35,163.35,0,0,0,16.86,9.66c7.76,4.18,25.13,15.51,38.81,24.71,13.67,9.65,25.87,17.16,27,17.29.74.09,5.17-7.08,9.61-15.5C862.1,881.94,862.84,884,830.68,861.79Z"/>
    <path d="M503.58,772.94c-15.87-2.38-45.64,3.54-75.76,16.47-25.87,11-26.6,11.93-19.58,27.6,3,7.21,6.3,13.71,6.67,14.56,0,0,0,.06,0,.06,1.38.56,12.9-3.69,26.14-9.27,14-5.75,31.83-11.32,39.59-12.41,5.73-1.26,9.89-.73,15-1-.93-6.13.23-.78-3.41-12.8,4.2-10.77,12.29-19.26,20.16-19.95a19.15,19.15,0,0,0-8.87-3.25Z" style="fill: #dfdfdf"/>
    <path d="M754,844.37c-10.69-7.24-12.73-8-19.79-12.67-8.38-5.5-16.22-7.07-28.51-12.09-14.41-5.36-46.45-13.16-77.75-20.73l-2.94-.64h0c-30.64-6.39-60.76-11.15-74.55-11.58-23.47-.53-36.12,5.27-44.83,8.62-3.19,2-6,2.14-9.45,3.8,2.75,7.31,2.64,11.4,5,17.8,2.47,6.74,1.24,10.49,8,11.94s21.42-3.67,21.42-3.66c18.85-3.5,30-2.29,98.7,12.71,69.12,15.1,83,20.1,99,29.41,11.58,6.64,16.36,11,21,10.94,2.39,0,3.63-3.57,5.3-7.81A99.64,99.64,0,0,0,761,846.62C757.35,845.38,759,847.71,754,844.37Z" style="fill: #dfdfdf"/>
    <path d="M851.76,881c-8.13-8.06-41-28.89-64.68-41.83-15.14-8-26.28-12.88-33.65-14.18h0a18,18,0,0,0-5.36-.25c3.23,2.83,7,7.23,9.09,8.82,7.76,5.86,7.73,10,7,17.47a46,46,0,0,1-1.89,9.38c2.89,2,10,6.47,16,9.7,7.39,3.71,25.12,15.05,39.16,24.7,13,9.19,24.42,16.06,26.1,16.06,0,0,.08,0,.1-.05h0c.37-.76,3.71-6.48,6.67-13C855.1,888.17,855.46,884.6,851.76,881Z" style="fill: #dfdfdf"/>
    <path d="M759.1,840.47l-.11-.19c-.59-.95-2.39-2.64-5.93-5.46a94.29,94.29,0,0,1-8.92-8.34h0a5.69,5.69,0,0,0-.69.85c-1.12,1.28-1.28,2.85-1.62,4.63,2.45,1.42,10.71,8.61,15,9.18a5.63,5.63,0,0,0,2.05.15l.1,0,0,0a1.06,1.06,0,0,0,.11-.09l0-.05.05,0s0,0,0-.06v-.17a1.21,1.21,0,0,0-.05-.18Z" style="fill: #dfdfdf"/>
    <path d="M514.66,778.74c-2.43,1.56-6.55,3.58-9.19,5.06-4.75,2.67-5.46,5.28-7.51,9.85a1.55,1.55,0,0,0-.1.27V794h.1a36,36,0,0,1,12.87-4.71c7.37-1.62,3.45-.89,8-2.1-3-5.68-3.41-6.1-3.78-7.39A6.39,6.39,0,0,0,514.66,778.74Z" style="fill: #dfdfdf"/>
    <polygon points="514.66 778.74 514.66 778.74 514.66 778.74 514.66 778.74" style="fill: #dfdfdf"/>
    <polygon points="593.45 823.85 593.45 823.85 593.45 823.85 593.45 823.85"/>
    <polygon points="563.57 819.59 563.57 819.59 563.57 819.59 563.57 819.59"/>
    <polygon points="543.52 793.99 543.52 793.99 543.52 793.99 543.52 793.99"/>
    <path d="M561.77,817.85a8.66,8.66,0,0,1-.49-1.94l-.66-4a8.9,8.9,0,0,0-1-3.23,3.81,3.81,0,0,0-1.93-1.47,4.06,4.06,0,0,0,2-2,6.39,6.39,0,0,0,.4-3.28,9.21,9.21,0,0,0-1.08-3.58,7.09,7.09,0,0,0-2.31-2.49,6.67,6.67,0,0,0-1.8-.8,17.83,17.83,0,0,0-3-.43l-8.38-.64q1.25,12.07,2.5,24.17l2.9.22q-.52-5.18-1.07-10.35l4.76.36c2.07.17,3.39.51,4,1a5.81,5.81,0,0,1,1.25,3.23l.5,3.16a.38.38,0,0,0,0,.1,10.39,10.39,0,0,0,.91,3.28l3.38.28c0-.23,0-.45-.07-.68A2.12,2.12,0,0,1,561.77,817.85Zm-5.49-12.91c-.68.6-1.92.82-3.73.68l-5-.39q-.43-4.1-.85-8.18h0l5,.38a7.18,7.18,0,0,1,4,1.2,4.52,4.52,0,0,1,1.37,3.12C557.23,803.28,557,804.34,556.28,804.94Z"/>
    <path d="M570,796.53q-3.24,11.54-6.46,23.06l3,.39q.93-3.45,1.84-6.9L577,814.2q1.39,3.75,2.77,7.5l3.2.42q-4.85-12.58-9.68-25.16Zm-.85,13.86,2.7-10.19q2,5.53,4.06,11.07Z"/>
    <polygon points="612.88 827.46 612.88 827.46 612.88 827.46 612.88 827.46"/>
    <path d="M678,843.2l3,.85,1.5-23.45-3-.85Z"/>
    <path d="M700.88,827.09a7.27,7.27,0,0,0-1.67-1.18,19.71,19.71,0,0,0-3-1.13l-8.39-2.66h0l-2.1,23.27,2.91.92.9-10,4.76,1.5c2.08.66,3.35,1.3,3.83,1.92a5.4,5.4,0,0,1,.65,3.33l-.09,3.09a.22.22,0,0,0,0,.09,9.57,9.57,0,0,0,.29,3.29l3.39,1.07.06-.65a2.13,2.13,0,0,1-.61-1.07,8,8,0,0,1-.13-1.94c0-1.3.07-2.61.1-3.92a8.1,8.1,0,0,0-.4-3.26A4.12,4.12,0,0,0,699.7,838a3.88,3.88,0,0,0,2.42-1.38,5.55,5.55,0,0,0,1-3,8.58,8.58,0,0,0-.42-3.61A7.15,7.15,0,0,0,700.88,827.09Zm-.76,5.61c-.14,1.47-.61,2.41-1.42,2.8s-2.11.31-3.92-.26l-5-1.59.72-7.88h0l5,1.59a8.2,8.2,0,0,1,3.83,2.08A4.32,4.32,0,0,1,700.12,832.7Z"/>
    <path d="M607,802.52q.13,4.92.26,9.84L596,810.28c-.09-3.28-.18-6.55-.26-9.83l-3-.54q.33,12,.64,23.94l2.95.55-.29-11.22,11.27,2.07.3,11.22,3,.55q-.33-12-.64-23.95Z"/>
    <path d="M705.76,851.89l2.92,1q1.43-11.52,2.84-23l-2.93-1Q707.18,840.37,705.76,851.89Z"/>
    <path d="M620.84,805.33q-4,11.07-8,22.13l3.06.65,2.28-6.63,8.56,1.82,2.34,7.61,3.21.68L624.11,806Zm-1.72,13.56h0l3.36-9.8,3.42,11.24Z"/>
    <path d="M649.92,826.89a5.76,5.76,0,0,1-1.91,4.37,4.88,4.88,0,0,1-4.4.77,7.82,7.82,0,0,1-5-3.82,13.69,13.69,0,0,1-1.78-7.42c0-3.08.69-5.31,1.93-6.71s3-1.84,5.18-1.32a7.88,7.88,0,0,1,4,2.23,7.4,7.4,0,0,1,1.9,4.07l2.9.69a10.61,10.61,0,0,0-2.65-6.32,11.2,11.2,0,0,0-6-3.51q-4.64-1.09-7.42,1.55c-1.86,1.75-2.81,4.48-2.87,8.2a17.91,17.91,0,0,0,2.45,10.07,11.22,11.22,0,0,0,7.15,5.12c2.66.63,4.83.29,6.53-1s2.66-3.42,2.83-6.28l-2.86-.67Z"/>
    <path d="M670.93,827.14l-11.27-3,.41-9.68-3-.79-1,23.58h0l3,.79c.15-3.68.31-7.37.46-11l11.27,3c-.15,3.68-.31,7.36-.46,11l3,.79,1-23.59-3-.78C671.2,820.68,671.07,823.91,670.93,827.14Z"/>
    <path d="M759.82,489.91l5.76-6.47c12.61-14.3,12.33-29.51-.69-47.71-5.89-8.11-6-9.49-1.37-12,7.54-4.21,12.2-22.18,8.77-34.18-5.07-18-26.86-33.32-40.16-28.46A69.7,69.7,0,0,0,721,367.2c-3.7,2.57-7.13,4.42-7.81,4.28S709.38,368,706,364c-13.3-15.18-28.92-17.6-42.22-6.36l-5.07,4.31L652,353.73c-13.57-16.91-30.57-20-44.41-8.32l-5.07,4.3L597,343.13c-8.08-9.85-13.43-13.4-22.75-15.53a24.89,24.89,0,0,0-23.84,6.75l-3.29,3.09L540,329.39c-13.16-14.94-23.71-19.08-36.46-14.07h0c-10,3.88-15.21,11.4-16,22.66-.83,12.17,1.64,21.29,8.08,29,2.88,3.67,5.35,7.12,5.35,7.87s-2.2,3.21-4.94,5.57A29.13,29.13,0,0,0,485.84,403c0,9.31,2.6,16.2,9.59,25.86l5.76,7.94-6.3,6.52c-12.61,13.09-12.2,30.72,1,47.6l5.62,7.47c43,7.84,86.07,17.24,129.1,26.62s86,18.75,129,26.55l6.31-6.22c12.2-12.12,12.2-27.58.14-46.06Z" style="fill: #171796"/>
    <path d="M762,490.32c1.62-1.82,3.24-3.65,4.87-5.47,13-14.82,12.81-31.21-.74-50.14-1.52-2.1-4.36-6-4.22-7.2.09-.74,1.86-1.67,2.55-2,8.11-4.53,13-23.5,9.43-36.16-2.71-9.62-10.3-19.28-19.81-25.32-8.22-5.22-16.5-6.93-22.7-4.64A71.38,71.38,0,0,0,720,365.56a40.3,40.3,0,0,1-6.69,3.95,86.61,86.61,0,0,1-6.23-6.69c-14-15.95-30.59-18.5-44.48-6.76l-3.93,3.34-5.54-6.76c-14.23-17.74-32.14-21.14-46.72-8.8l-4,3.34c-1.43-1.72-2.87-3.44-4.3-5.17-8.26-10.05-14-14-23.86-16.24a26.41,26.41,0,0,0-25.09,7.06L547,334.89l-5.92-6.68c-13.81-15.68-24.91-19.94-38.33-14.66-10.51,4.08-16.05,12-16.93,24-.86,12.8,1.87,22.5,8.57,30.56a66.32,66.32,0,0,1,4.66,6.44,29.17,29.17,0,0,1-4.21,4.36,30.6,30.6,0,0,0-10.67,23.79c0,9.73,2.72,17.07,10,27.16l4.73,6.52-5.28,5.47c-13.18,13.7-12.8,32.44,1,50.12l6.12,8.12c86.5,15.72,173,37.76,259.52,53.44l6.81-6.72c12.82-12.75,12.89-29.06.21-48.47Zm2.62,53.53c-1.93,1.92-3.87,3.83-5.8,5.73-85.55-15.57-171.09-37.29-256.64-52.9q-2.56-3.44-5.14-6.85c-12.6-16.17-12.93-32.59-.91-45.07l7.33-7.56-6.78-9.37c-6.76-9.34-9.16-15.75-9.16-24.55A27.35,27.35,0,0,1,497.14,382c.91-.79,5.46-4.79,5.46-6.8,0-.76,0-1.82-5.88-9.31-6-7.26-8.35-15.72-7.56-27.48.78-10.66,5.73-17.67,15.14-21.31h0c12.14-4.78,21.84-1,34.58,13.48q4.17,4.69,8.33,9.4l4.41-4.13a23.39,23.39,0,0,1,22.59-6.41c9.06,2.06,13.91,5.39,21.65,14.81l6.65,8,6.2-5.26c13.16-11.13,29.29-8.1,42.1,7.86l7.88,9.64,6.21-5.28c12.69-10.73,27.26-8.54,39.94,5.95,4.44,5.2,7.26,8,8.37,8.17,1.53.31,5.67-2.26,8.84-4.46a67.71,67.71,0,0,1,10.84-5.93c5.34-2,12.6-.42,19.9,4.22,8.62,5.49,15.48,14.17,17.9,22.75,3.17,11.12-1.15,28.3-8.09,32.17-2,1-3.77,2.15-4,4.36-.29,2.45,1.33,5.17,5.06,10.3,12.57,17.59,12.77,31.56.65,45.29l-6.65,7.48q3.51,5.36,7,10.69C776.3,518,776.28,532.28,764.62,543.85Z"/>
    <path d="M766.19,624.3l-5.49-8.19,5.76-6.62c12.88-14.41,12.75-29.89-.27-47.34q-3.5-4.59-7-9.21c-42.77-7.72-85.53-17-128.29-26.26s-85.52-18.57-128.29-26.33l-5.75,6h0c-13.44,14-13.3,30.67.27,49.59l5.07,7.07q-2.88,2.93-5.75,5.86a44.5,44.5,0,0,0-7.68,10.5c-4.39,10.8-1.1,26.82,7.54,37.21,5.21,6.5,5.34,8.77.41,14.49a46.76,46.76,0,0,0-5.76,8c-10.28,19.55,5.07,48.81,27.83,53.15,9,1.73,15.89-.06,22.06-6,4.94-4.71,7.54-4.33,11.93,1.67,6.44,9.13,14.94,15.7,22.06,17.21,8.36,1.77,13.57,0,22.07-7l6.44-5.51,5.89,8.33C622,718.67,634.88,722,652,711.41l7-4.19,6,7.3c7.53,8.83,13.15,12.88,20.56,14.45s12.88-.44,21.51-8l7.13-6.06,5.48,6.51c10.56,12.47,16.31,16.89,24,18.35,7.95,1.51,13.57-.31,21.52-6.69,7.4-6,11.37-13.93,10.41-21.14-1-7.82-7.26-22.87-11.92-28.52-1.33-1.63-2.65-3.27-4-4.92,2.06-2.17,4.12-4.36,6.17-6.54C779.34,657.08,779.48,643.74,766.19,624.3Z" style="fill: #d42e12"/>
    <path d="M767.48,623.35l-4.6-6.85,4.86-5.59c13.32-14.92,13.21-31.67-.34-49.82q-3.75-4.92-7.49-9.86c-85.76-15.45-171.53-37.15-257.29-52.72l-.75-.14c-2.08,2.18-4.17,4.35-6.25,6.54-14.08,14.67-14,32.18.27,52.05l4.05,5.64-4.72,4.82c-3.16,3.19-6.73,8.1-8,11-4.64,11.42-1.22,28.29,7.92,39.29,4.59,5.72,4.62,6.95.29,12a47.26,47.26,0,0,0-5.95,8.28c-5,9.47-4.54,21.95,1.21,33.39,6.05,12.06,16.55,20.51,28.1,22.72,9.63,1.85,16.81-.1,23.28-6.36,2.31-2.2,3.91-3.07,5.18-2.81h0c1.13.23,2.46,1.46,4.28,4,6.73,9.53,15.66,16.45,23.31,18.07,8.71,1.85,14.35.09,23.24-7.26l5.2-4.45,4.73,6.69c6.9,9.61,13.92,15.19,21.54,16.86,7.17,1.56,14.86-.35,23.46-5.64l5.88-3.53,5,6.1c7.92,9.27,14,13.52,21.67,15.14,7.85,1.66,13.79-.5,22.68-8.25l6-5.1,4.32,5.14c10.9,12.88,17,17.5,25.11,19,8.35,1.58,14.27-.24,22.64-7,7.89-6.44,12-14.95,11-22.67-1-8.21-7.52-23.72-12.42-29.66l-2.82-3.49,5.12-5.44C781.13,657.92,781.21,643.42,767.48,623.35Zm-10.06,54.86c1.72,2.13,3.43,4.26,5.15,6.38,4.42,5.35,10.5,19.9,11.41,27.36.86,6.5-2.83,13.85-9.88,19.59-7.75,6.22-12.9,7.84-20.39,6.42-7.23-1.38-12.57-5.49-22.86-17.65l-6.65-7.89q-4.12,3.52-8.27,7c-8.27,7.22-13.4,9.15-20.33,7.69S673.47,722,666.17,713.4l-7.06-8.54L651,709.72c-16.29,10-28.41,7.07-40.51-9.8l-7.06-10-7.67,6.56c-8.24,6.81-13.12,8.38-20.91,6.73-6.73-1.42-14.71-7.69-20.84-16.38-1.81-2.47-4-5.08-6.74-5.64h0c-2.33-.47-4.54.53-7.62,3.48-5.79,5.6-12.22,7.34-20.84,5.69-10.36-2-19.79-9.59-25.22-20.43-5.13-10.23-5.55-21.35-1.1-29.79a44.59,44.59,0,0,1,5.55-7.67c5.45-6.32,5.35-9.65-.56-17-8.2-9.88-11.27-24.94-7.16-35.06a43.27,43.27,0,0,1,7.39-10l6.78-6.91-6.09-8.5c-13.1-18.27-13.19-33.69-.27-47.12q2.63-2.76,5.26-5.49c85,15.47,170.07,36.93,255.1,52.32L765,563.2c12.53,16.78,12.59,31,.2,44.89q-3.31,3.82-6.64,7.63l6.39,9.55c12.75,18.65,12.67,30.93-.26,45.27Z"/>
    <path d="M790,546.14V349.41c-53.59-8.7-107.19-20.4-160.78-32.09s-107.18-23.36-160.77-32V482h0s.08,140.47.34,194.14c-.43,7.87,3.81,10.47,10,16.8,10.06,10.39,20.78,20.63,78.33,27.46,52.85,11.49,63.94,18.6,69.49,42.81q1.47,6.79,3,13.6,1.29-6.2,2.59-12.39c4.06-21.44,16.61-23.75,67.61-13.43,65.66,14.45,71.12,10.1,80.53,3.12,0,0,6.87-4.65,8.64-9.93A24.86,24.86,0,0,0,790,733Zm-3.7,195.73a61,61,0,0,1-6.43,8.61c-10,9.14-18.42,10.27-63.94.56-29.4-5.89-45.28-8.48-68.44-9.49-3.64,2.79-13.62.29-18.27,20.09-6-22.13-10.32-22.16-10.32-22.16-24.61-16.61-35.62-16.9-75.06-25.4-25.5-1.16-52.85-11.34-63.2-24.38,0,0-1.54.19-8.5-10,.07-39.47,0-195.47,0-195.47V290c52.36,8.58,104.72,20,157.08,31.41S734,344.22,786.33,352.85V547.16h0L787,709.32C787,731.13,788.46,738.06,786.33,741.87Z"/>
    <path d="M675.91,410q-1.15,4.56-2.33,9.11c-3.29,13-6.57,19.23-13.15,25.16-12.33,11-29.33,10.43-46.87-1.86-13.56-9.6-19-20-24.11-46.63-.41-2.21-.83-4.41-1.24-6.62l-3.42,7c-9.73,20-10.14,29.78-2.06,49.17,6.31,14.91,13.71,25.12,23.85,32.83,26.44,20.31,60.29,17,73.58-7.37,8.22-14.94,7.26-43-1.78-57Q677.15,411.84,675.91,410Z" style="fill: #fff"/>
    <path d="M676.22,404.05c-.68,2.91-1.69,8.09-3.72,16.56-7.4,29.6-31.79,38.87-57.29,21.56-14.42-9.61-21.07-21.56-24.77-44.22l-2.58-14.72-6.29,13.64h0c-8.13,18.51-7.39,28.78,2.59,52.36C610,510.64,686.91,506.4,686.54,443c-.37-10.2-.08-16.73-5.17-29C679,408.83,677.93,407.23,676.22,404.05Zm2.56,56.35c-12.94,34.54-54.33,36.8-80.2,4.48-12.57-15.27-22.55-42-17.09-56.79,1.93-5.23,2.38-8.35,4.91-13.77a93.07,93.07,0,0,0,3.31,18.86c3.32,12.45,9.24,22.22,17,29.17,17.74,16.4,44.72,18.26,58.39,4.6,5.55-5.69,8.95-15.7,10.35-20.85a77.59,77.59,0,0,0,2.49-11A58.31,58.31,0,0,1,682.27,432,57.65,57.65,0,0,1,678.78,460.4Z"/>
    <path d="M611.86,593.65c-3.12-6.51-9.42-4.7-19-.09a66.79,66.79,0,0,0-13.17,8.9,139.52,139.52,0,0,0,1.48-18.8c-.1-8.72-1.83-20.34-7.24-21.52s-6.81,8.32-7.08,17.84h0a77.67,77.67,0,0,0,1.4,19.54,89.11,89.11,0,0,0-13.65-13.6c-7.1-6-16.07-12.09-19.11-7.19-2.94,4.72,5.47,13.65,12,19.06,7.2,5.91,11.35,7.38,16,10.37-4,1.47-9.37,1.89-15.36,4.88s-14.68,9.73-11.34,15.86,13.2,2,18.73-.95a75.39,75.39,0,0,0,13.07-8.71c-.47,3.82-1.88,11.32-1.78,18.81.13,9.09,1.28,19.47,7.44,20.75s7.63-10.34,7.53-18.44a114.57,114.57,0,0,0-1.74-18.93,185.8,185.8,0,0,0,12.26,14.71c4.47,4.82,15.43,12.92,18.71,8.15s-1.86-11.53-11.42-20.24c-6.69-6.11-11.44-8.72-15.8-11.63,4.41-1,9.24-.51,16.29-3.68C610.63,604,615.07,600.35,611.86,593.65Z" style="fill: #e9d315"/>
    <path d="M600.88,610.17c9.15-4.11,16.37-8.22,12.16-17a9.09,9.09,0,0,0-4.15-4.48c-4-1.91-9.16-.19-16.75,3.47a60.12,60.12,0,0,0-10.57,6.76,127,127,0,0,0,1-15c0-5-.83-21.59-8.6-23.28h0c-7-1.48-8.16,10.14-8.41,19a82.4,82.4,0,0,0,.66,15.38,104.49,104.49,0,0,0-10.87-10.26c-11.2-9.43-18.06-11.71-21-7a6.17,6.17,0,0,0-.59,4.76c1.49,6.5,10.44,14.24,13.14,16.46a71.67,71.67,0,0,0,12,8.06l1,.58-1.83.45a47.91,47.91,0,0,0-10.66,3.59c-5.15,2.57-11.52,7.44-12.55,12.65a7.55,7.55,0,0,0,.81,5.22c1.29,2.37,4.1,5,10.16,3.85a38.09,38.09,0,0,0,10.47-4,92.67,92.67,0,0,0,10.39-6.52,96.39,96.39,0,0,0-1.22,15c.12,8.9,1.17,20.9,8.78,22.5h0a5,5,0,0,0,4.57-1.19c4.06-3.66,4.38-14.14,4.32-18.47a118.27,118.27,0,0,0-1-14.4c3,3.83,6.12,7.42,9.33,10.89,3.79,4.08,11.43,9.94,16.53,10.13a4.51,4.51,0,0,0,4.17-1.9,7.18,7.18,0,0,0,1.09-5.6c-.81-4.27-4.67-9.31-12.91-16.82a87.53,87.53,0,0,0-12.62-9.58l.87-.11A37.7,37.7,0,0,0,600.88,610.17Zm-17.52.76-3.06.72,3.06,2c.87.58,1.76,1.15,2.67,1.74A87.77,87.77,0,0,1,599,625.15c5,4.58,10.9,10.39,11.71,14.66a4.31,4.31,0,0,1-.7,3.41,2.46,2.46,0,0,1-2.33,1c-4.06-.14-11-5.37-14.4-9.06a183.42,183.42,0,0,1-12.13-14.56l-3.21-4.27.9,5.11a113,113,0,0,1,1.71,18.66c.1,8.25-1.22,14.42-3.53,16.51a2.86,2.86,0,0,1-2.63.71h0c-3.91-.82-5.89-7-6.06-19a99.33,99.33,0,0,1,1.36-15.65c.16-1.13.31-2.12.41-2.94l.54-4.43L567.69,618c-2.3,2.17-8.3,6.16-12.84,8.55a36,36,0,0,1-9.86,3.8c-3.54.64-5.88,0-7-2.06a4.13,4.13,0,0,1-.41-2.86c.8-4,6.45-8.54,11.35-11A46.36,46.36,0,0,1,559.18,611a44.89,44.89,0,0,0,5-1.41l2.63-1-2.77-1.77c-1.47-.94-2.85-1.71-4.32-2.53a68.53,68.53,0,0,1-11.53-7.72c-4.86-4-10.88-10.13-11.84-14.37a3.18,3.18,0,0,1,.27-2.51c2.42-3.9,10.72,1.82,17.27,7.33a88.4,88.4,0,0,1,13.39,13.33l3.21,4.07-.93-5a75.47,75.47,0,0,1-1.37-19.18c.33-11.63,2.29-17.39,5.68-16.68h0c3.91.85,5.79,10.83,5.88,19.75A138.45,138.45,0,0,1,578.35,602c-.2,1.4-.4,2.8-.61,4.21l2.9-2.42a64.53,64.53,0,0,1,13-8.76c6.61-3.18,11.63-5,14.64-3.54a5.26,5.26,0,0,1,2.44,2.71c2.43,5.06-.3,8.25-11.22,13.16a36,36,0,0,1-11.58,2.91A40.23,40.23,0,0,0,583.36,610.93Z"/>
    <path d="M574,601.18c-4.65-1-8.42,2.36-8.42,7.45s3.77,10,8.42,11,8.42-2.34,8.42-7.43h0C582.39,607.09,578.62,602.16,574,601.18Z" style="fill: #fff"/>
    <path d="M574,602.9c3.78.8,6.85,4.81,6.85,8.94l3.14.67c0-6-4.49-11.89-10-13s-10,2.81-10,8.84,4.49,11.88,10,13,10-2.79,10-8.82l-3.14-.67c0,4.14-3.07,6.85-6.85,6s-6.85-4.8-6.85-8.94S570.2,602.1,574,602.9Z"/>
    <path d="M722.12,617.12c-3.12-6.45-9.42-4.52-19,.17a68.27,68.27,0,0,0-13.18,9,138.13,138.13,0,0,0,1.49-18.8c-.1-8.72-1.84-20.33-7.25-21.51s-6.8,8.29-7.07,17.81h0a77.83,77.83,0,0,0,1.4,19.56,92.36,92.36,0,0,0-13.65-13.7c-7.1-6-16.07-12.3-19.12-7.46-2.93,4.67,5.48,13.76,12.06,19.25,7.2,6,11.35,7.51,16,10.52-4,1.45-9.37,1.83-15.37,4.74s-14.67,9.5-11.34,15.69,13.21,2.17,18.74-.69c4.61-2.38,10.7-6.41,13.07-8.64-.47,3.82-1.88,11.32-1.78,18.81.13,9.09,1.27,19.48,7.44,20.77s7.63-10.36,7.53-18.45a116,116,0,0,0-1.74-18.94,177.56,177.56,0,0,0,12.25,14.65c4.48,4.8,15.44,12.74,18.72,7.91s-1.86-11.48-11.42-20.08c-6.69-6-11.44-8.6-15.8-11.49,4.41-1.06,9.23-.57,16.29-3.82C720.89,627.55,725.33,623.76,722.12,617.12Z" style="fill: #e9d315"/>
    <path d="M711.14,633.81c9.14-4.22,16.37-8.49,12.16-17.21a8.87,8.87,0,0,0-4.16-4.4c-4-1.85-9.15,0-16.74,3.68a60.76,60.76,0,0,0-10.57,6.82,127,127,0,0,0,1-15c0-5-.83-21.57-8.6-23.26h0c-7-1.49-8.15,10.11-8.4,19a82.33,82.33,0,0,0,.66,15.37,108.07,108.07,0,0,0-10.87-10.32c-11.21-9.55-18.06-12-21-7.34a6.1,6.1,0,0,0-.59,4.74c1.49,6.55,10.44,14.43,13.14,16.69a72.35,72.35,0,0,0,12.05,8.19l1,.59-1.82.43a47.6,47.6,0,0,0-10.66,3.48c-5.15,2.49-11.52,7.25-12.55,12.45a7.61,7.61,0,0,0,.81,5.23c1.29,2.39,4.1,5,10.15,4a37.28,37.28,0,0,0,10.48-3.89A88,88,0,0,0,677,646.62a96.14,96.14,0,0,0-1.22,15c.12,8.9,1.17,20.92,8.78,22.53h0a5,5,0,0,0,4.57-1.19c4.06-3.67,4.37-14.15,4.32-18.49a118.24,118.24,0,0,0-1-14.39c3,3.82,6.12,7.4,9.33,10.84,3.79,4.06,11.42,9.82,16.53,9.93a4.59,4.59,0,0,0,4.17-2,7.21,7.21,0,0,0,1.08-5.62c-.8-4.26-4.66-9.21-12.91-16.62a88.61,88.61,0,0,0-12.61-9.47l.87-.11A37.58,37.58,0,0,0,711.14,633.81Zm-17.52.9-3.07.74,3.07,2c.87.58,1.75,1.14,2.67,1.72a88.58,88.58,0,0,1,12.92,9.61c5,4.53,10.9,10.24,11.71,14.49a4.36,4.36,0,0,1-.7,3.43,2.5,2.5,0,0,1-2.33,1c-4-.07-11-5.22-14.4-8.89a176.91,176.91,0,0,1-12.13-14.49l-3.21-4.26.9,5.12a112.83,112.83,0,0,1,1.71,18.65c.1,8.25-1.22,14.42-3.54,16.51a2.82,2.82,0,0,1-2.63.71h0c-3.9-.83-5.89-7.05-6.05-19a100.51,100.51,0,0,1,1.35-15.64c.17-1.13.31-2.13.41-3,.19-1.48.37-3,.55-4.43l-2.89,2.7c-2.3,2.17-8.3,6.13-12.84,8.47a35.19,35.19,0,0,1-9.86,3.68c-3.54.59-5.88-.14-7-2.17a4.11,4.11,0,0,1-.41-2.87c.8-4,6.44-8.42,11.35-10.81a46.46,46.46,0,0,1,10.23-3.32,45,45,0,0,0,5-1.38l2.63-1-2.77-1.79c-1.47-.94-2.86-1.72-4.32-2.55a68.32,68.32,0,0,1-11.54-7.83c-4.85-4.06-10.87-10.31-11.84-14.56a3.21,3.21,0,0,1,.28-2.51c2.41-3.84,10.72,2,17.26,7.58a90.31,90.31,0,0,1,13.39,13.42l3.22,4.08-.93-5a75.52,75.52,0,0,1-1.37-19.19c.32-11.62,2.29-17.38,5.68-16.66h0c3.9.85,5.79,10.83,5.88,19.74a136.56,136.56,0,0,1-1.47,18.57L688,630l2.9-2.42a65.75,65.75,0,0,1,13-8.84c6.61-3.24,11.63-5.12,14.64-3.73a5.2,5.2,0,0,1,2.44,2.67c2.42,5-.3,8.28-11.22,13.33a35.5,35.5,0,0,1-11.58,3A42.21,42.21,0,0,0,693.62,634.71Z"/>
    <path d="M684.23,625c-4.65-1-8.42,2.34-8.42,7.43s3.77,10,8.42,11,8.42-2.36,8.42-7.45h0C692.64,630.88,688.88,626,684.23,625Z" style="fill: #fff"/>
    <path d="M684.23,626.7c3.77.8,6.85,4.81,6.85,8.94l3.14.65c0-6-4.49-11.86-10-13s-10,2.79-10,8.82,4.48,11.9,10,13.07,10-2.81,10-8.84l-3.14-.66c0,4.14-3.07,6.86-6.85,6.06s-6.85-4.82-6.85-9S680.45,625.9,684.23,626.7Z"/>
  </g>
</svg>
