<svg xmlns="http://www.w3.org/2000/svg" xmlns:xlink="http://www.w3.org/1999/xlink" viewBox="0 0 1260 1012.04">
  <defs>
    <clipPath id="a" transform="translate(0 0)">
      <path d="M0,90.08C420-181.24,840,273.28,1260,2V922C840,1193.28,420,738.76,0,1010.08Z" style="fill: none"/>
    </clipPath>
    <clipPath id="f" transform="translate(0 0)">
      <path d="M0,90.08C210,107.75,420,306.89,630,506,420,613.55,210,721.08,0,1010.08" style="fill: none"/>
    </clipPath>
  </defs>
  <g style="clip-path: url(#a)">
    <path d="M0,90.08v920C420,738.76,840,1193.28,1260,922V2C840,273.28,420-181.24,0,90.08Z" transform="translate(0 0)" style="fill: #002395"/>
    <path d="M0,90.08v460C420,278.76,840,733.28,1260,462V2C840,273.28,420-181.24,0,90.08Z" transform="translate(0 0)" style="fill: #de3831"/>
    <path d="M0,90.08v920C210,721.08,420,613.55,630,506,420,306.89,210,107.75,0,90.08Z" transform="translate(0 0)"/>
    <path d="M252.4,2.74C168.27,10.5,84.13,35.73,0,90.08V274.35C125.87,285,251.74,360.73,377.61,462.64,251.74,544.55,125.87,652.58,0,825.8v184.28c84.13-54.35,168.25-79.57,252.38-87.34,140-115.15,280-182,420-254.2,195.87,42,391.75,73.29,587.62-53.24V308.64c-195.87,126.52-391.73,95.19-587.6,53.24C532.4,229.67,392.4,92,252.4,2.74Z" transform="translate(0 0)" style="fill: #fff"/>
    <g style="clip-path: url(#f)">
      <path d="M0,90.08v920C210,721.08,420,613.55,630,506,420,306.89,210,107.75,0,90.08Z" transform="translate(0 0)"/>
      <path d="M882.39,549.4C824.15,502.25,765.9,449.5,707.66,395,555.9,253.12,404.15,99.53,252.4,2.74,168.27,10.5,84.13,35.73,0,90.08V274.35C125.87,285,251.74,360.73,377.61,462.64,251.74,544.55,125.87,652.58,0,825.8v184.28c84.13-54.35,168.25-79.57,252.38-87.34C404.14,797.92,555.9,729.9,707.66,650.19,765.9,619.61,824.15,587.3,882.39,549.4Z" transform="translate(0 0)" style="fill: #ffb612"/>
    </g>
    <path d="M151.44,21.18C101,35.34,50.48,57.47,0,90.08H0V200.65c159.52,13.43,319,131.56,478.56,274.86C319,565.16,159.52,680,0,899.5v110.58c50.48-32.61,101-54.74,151.44-68.9,168-169.79,336-251.36,504-337.62C857,647.23,1058.48,684.15,1260,554V370c-201.52,130.18-403,93.26-604.56,49.59C487.44,260.49,319.44,96.73,151.44,21.18Z" transform="translate(0 0)" style="fill: #007a4d"/>
  </g>
</svg>
