<svg xmlns="http://www.w3.org/2000/svg" viewBox="0 0 1260 1012.04">
  <g>
    <path d="M0,90.08v920C420,738.76,840,1193.28,1260,922V2C840,273.28,420-181.24,0,90.08Z" style="fill: #198a00"/>
    <path d="M1110,990.46c50-14.18,100-36.19,150-68.49V330.54c-50,32.3-100,54.31-150,68.49Z" style="fill: #ef7d00"/>
    <path d="M960,420.49v591.43c50-.95,100-7.29,150-21.46V399C1060,413.2,1010,419.54,960,420.49Z"/>
    <path d="M810,409.62v591.43c50,7.38,100,11.82,150,10.87V420.49C910,421.44,860,417,810,409.62Z" style="fill: #de2010"/>
    <path d="M1112.58,252.25a87.58,87.58,0,0,1-17.28-.78A38.66,38.66,0,0,0,1112.58,252.25Z" style="fill: #ef7d00"/>
    <path d="M1173.34,161.14a199.92,199.92,0,0,1-32.12,24.2A175.92,175.92,0,0,0,1173.34,161.14Z" style="fill: #ef7d00"/>
    <path d="M1193.18,156.93a352.24,352.24,0,0,1-47.44,38.64A301.43,301.43,0,0,0,1193.18,156.93Z" style="fill: #ef7d00"/>
    <path d="M1152.07,222.09c-3.85,1.44-10.93,4.58-23.58,10A193.48,193.48,0,0,0,1152.07,222.09Z" style="fill: #ef7d00"/>
    <path d="M1209,153c-9.19,9.34-20,20.1-28.67,27.56A242,242,0,0,0,1209,153Z" style="fill: #ef7d00"/>
    <path d="M1233.05,114.4c.28-2.41-13.87,17.39-39.87,42.53a301.43,301.43,0,0,1-47.44,38.64q-6.59,4.44-13.62,8.63,7.19-4.32,13.62-8.63a352.24,352.24,0,0,0,47.44-38.64c31.73-32.65,31.53-47.86,30.1-47.1-5.08,2.11-24.41,28.21-49.94,51.31a175.92,175.92,0,0,1-32.12,24.2,199.92,199.92,0,0,0,32.12-24.2c23.26-22.07,34.76-43.47,33.12-44.5-5,8.14-56.6,52.33-56.61,51.43l-4.31,0a715.79,715.79,0,0,1-117.75,60.5c0,1.26,69.1,31.17,76.6,31,7.5,1.4,15.91-6,16.14-6.72-.11-1-3.21-.8-8-.62a38.81,38.81,0,0,1-17.28-.78,87.58,87.58,0,0,0,17.28.78c9.38-1.6,16.63-5.91,17.5-7.65-.32-1.2-1.57-1.23-9.62-1a38.79,38.79,0,0,1-13.79.25c6,0,10.48-.14,13.79-.25,19.77-3.81,34.4-21.08,34.4-21s4.63-3.34-2.79-.5a193.48,193.48,0,0,1-23.58,10c12.65-5.43,19.73-8.57,23.58-10,56.33-29.74,66.08-64.7,65.07-63.5-2.33.94-10.39,11.62-23.31,24.21a166.62,166.62,0,0,1-23.26,19.44c-16.46,11.5-36.78,20.9-60.27,21.45,23.35-1.22,43.52-10,60.27-21.45a187.46,187.46,0,0,0,23.26-19.44c23.2-23.22,35.18-46.84,34.45-47.42.2-2.4-8.38,6.57-19.3,17.65a242.79,242.79,0,0,1-28.67,27.56,98.49,98.49,0,0,1-9.77,7.65c3.44-2.57,6.69-5.13,9.77-7.65,8.64-7.46,19.48-18.22,28.67-27.56C1230.13,128.66,1233.37,114.56,1233.05,114.4Z" style="fill: #ef7d00"/>
    <path d="M1120.46,243.64c-3.31.11-7.77.25-13.79.25A38.79,38.79,0,0,0,1120.46,243.64Z" style="fill: #ef7d00"/>
    <path d="M1193.83,182.8a187.46,187.46,0,0,1-23.26,19.44A166.62,166.62,0,0,0,1193.83,182.8Z" style="fill: #ef7d00"/>
    <path d="M1233.37,113.39c-.74-.15-1.76,1-8.54,8.93-4,4.63-9.49,11-16.43,18.36l.54-.69c14.9-19.19,15.51-28,15.49-29.44,0-1.66-.72-1.61-1.07-1.49-2.83,1.17-9,8.38-18.41,18.85-4.23,4.72-9,10-14.36,15.56,9.49-11.61,15.56-21.92,16.54-25.74.25-1,.19-1.58-.17-1.84s-.66,0-.94.4c-4.69,7.54-52.44,48.84-56.18,51l-4.09,0a.73.73,0,0,0-.38.12,714.72,714.72,0,0,1-117.75,60.46.85.85,0,0,0-.5.68.66.66,0,0,0,.34.71c2.82,2.61,69.22,31.12,76.67,31.1a13.44,13.44,0,0,0,6.09-.41,26.61,26.61,0,0,0,8.53-4.5,7.57,7.57,0,0,0,2.42-2.5,1.06,1.06,0,0,0,0-.35c-.09-.75-.76-1.08-2.12-1.2,6.24-2,10.73-4.9,11.56-6.56a.89.89,0,0,0,.09-.63c-.29-1.08-.9-1.45-4.21-1.45,15.93-5.44,27.49-18.31,28.64-19.59,2-1.47,1.83-2.21,1.78-2.46a.61.61,0,0,0-.15-.36c15.34-8.3,31.27-19.89,44-34.28s17-25.33,17.13-27.56c0-.67-.31-.79-.67-.67-.89.36-2.24,1.65-4.26,3.82,8.74-11.65,13.82-20.95,15.31-24.29.6-1.34.82-2.1.7-2.5a.65.65,0,0,0-.47-.68c-1.08-.24-4.38,2.76-11.16,9.59,12.81-16.83,15.75-26.71,16.18-28.35a3.77,3.77,0,0,0,.22-1.49C1233.72,113.62,1233.59,113.43,1233.37,113.39Zm-5.64,22.73h0Zm-6-.4a171.42,171.42,0,0,1-13.17,16.9l-4.47,4.52c-8,8-16.65,16.46-23.81,22.66-3.48,2.87-6.84,5.48-10,7.81a1.12,1.12,0,0,0-.46,1.08c.09.35.43.44.79.21a97.56,97.56,0,0,0,9.79-7.66,242.55,242.55,0,0,0,29.1-28c8.14-8.24,16.43-16.85,18-17.4,0,0,0,.06,0,.08-.37,1.68-6.39,13.46-18.19,28.47a198.32,198.32,0,0,1-16.1,18.07,186.28,186.28,0,0,1-23.91,19.75c-16.14,10.87-35.92,19.5-59,20.72a1,1,0,0,0-.8.79c-.08.41.15.74.51.73,22.79-.52,42.72-9.46,59-20.53a166.14,166.14,0,0,0,24.47-20.1l1.45-1.45c5.7-5.61,10.38-10.76,13.94-14.72,3.26-3.63,6-6.67,7.33-7.82-.82,2.69-4.78,12.18-16.08,25-13.87,15.79-31.77,28.17-48.47,36.57-3.92,1.47-10.91,4.58-23.39,9.94a1.06,1.06,0,0,0-.61,1,.49.49,0,0,0,.68.48h0a194,194,0,0,0,23.42-10c1.34-.51,2.23-.81,2.81-1l-.08.05a1.57,1.57,0,0,0-.19.18c-.17.18-14.66,17-34,20.74l-3.89.12c-2.68.06-5.89.13-9.74.13a.94.94,0,0,0-.81.71.59.59,0,0,0,.39.81,39,39,0,0,0,13.82-.24c6.23-.2,8.42-.25,9,.32-1.51,1.67-8.28,5.34-16.84,6.76a86.28,86.28,0,0,1-16.88-.77.85.85,0,0,0-.86.61.65.65,0,0,0,.32.88,39.31,39.31,0,0,0,17.38.8l.49,0c2.85-.1,5.78-.24,6.72.06-1.77,1.74-8.75,6.94-14.94,5.78-6.77-.18-65-24.28-75.06-30.25a715.31,715.31,0,0,0,115.92-59.75l4.13,0a.81.81,0,0,0,.46-.18c2-.92,46.46-38.79,55.57-50.17-.08.25-.19.54-.34.9-2.17,5.14-9,15.89-19.34,27.75-3.46,4-7.81,8.61-13,13.53a199.19,199.19,0,0,1-31.89,24,1.08,1.08,0,0,0-.51,1.06c.07.37.43.5.8.29a176.91,176.91,0,0,0,32.31-24.37,440.63,440.63,0,0,0,31.94-32.78c8.32-9.29,15-17,17.38-18.17.12.3.23,1.41-.48,3.92-1.37,4.65-7,18.63-29.56,41.71a351.73,351.73,0,0,1-47.82,38.89q-6.24,4.14-13.17,8.31a1.05,1.05,0,0,0-.49,1.06.5.5,0,0,0,.81.27q6.59-3.92,12.8-8.07a302.12,302.12,0,0,0,49-39.88c14.28-13.81,24.92-26.07,31.46-33.66,3-3.46,5.62-6.58,6.8-7.76C1231.78,117.57,1229.28,124.6,1221.75,135.72Z"/>
    <path d="M1021.31,304.47c0-.08.05-.16.07-.24C1021.41,303.84,1021.36,303.84,1021.31,304.47Z" style="fill: #ef7d00"/>
    <path d="M1031.19,295.32q-1.29-6.93-2.57-13.88-3.61,11.42-7.24,22.79c-.12,1.59-1.64,10-10,10.84-10.36,1-10.64,10.19-10.64,10.21s-.86.74-.29,5.18a27.91,27.91,0,0,1,2.57-4.22c1.14.09,5.89,1.13,13.39-5.58-6.84,7.87-2.75,10.11-2.75,10.11s-1.62,5.81,3.61,6.4a4.31,4.31,0,0,1-.67-4.22s7.32-1.58,6.84-10.51c.29,8.08,4.66,9.55,4.66,9.54a4.22,4.22,0,0,0,4.75,4.25c-2.57-2-2-5.56-2-5.56s6.18-5.32.95-12.24c3.14-2.24,5.7-7.67,5.7-7.66a31.84,31.84,0,0,1-6.27-2.48C1030.33,306.41,1031.19,295.33,1031.19,295.32Z" style="fill: #ef7d00"/>
    <path d="M1037.8,310a33.13,33.13,0,0,1-6-2.31c-.55-1.57-.27-8.37,0-12.43a1.48,1.48,0,0,0,0-.21q-1.29-6.93-2.57-13.88a.58.58,0,0,0-.61-.51.77.77,0,0,0-.68.57l-7,22.16a1.74,1.74,0,0,0-.31,1,.63.63,0,0,0,0,.24,13.19,13.19,0,0,1-2.66,6.19,9.34,9.34,0,0,1-6.56,3.43c-8.5.82-11.09,7.19-11.31,10.72-.35.63-.73,2.11-.29,5.56a.65.65,0,0,0,.54.58.69.69,0,0,0,.71-.39,37.92,37.92,0,0,1,2.25-3.79c1.37.15,4.77.42,9.8-2.89a8.09,8.09,0,0,0-1.28,4.68,3.64,3.64,0,0,0,1.1,2.33,7.09,7.09,0,0,0,.54,4.58,4.57,4.57,0,0,0,3.69,2.2.73.73,0,0,0,.71-.41.79.79,0,0,0,0-.84,3.59,3.59,0,0,1-.7-3.11,10,10,0,0,0,6.41-6.3c1.1,3.52,3.11,4.86,4,5.28a4.74,4.74,0,0,0,5.34,4.44h.05a.82.82,0,0,0,.62-.55.72.72,0,0,0-.2-.82,5.32,5.32,0,0,1-1.78-4.61,10.59,10.59,0,0,0,3-5.68,9.34,9.34,0,0,0-1.69-6.79c3-2.53,5.21-7.27,5.31-7.48a.84.84,0,0,0,0-.62A.59.59,0,0,0,1037.8,310Zm-37,15.24Zm.39.57Zm0,0Zm0,0Zm30.36-8a.9.9,0,0,0-.35.54.75.75,0,0,0,.12.59,8.26,8.26,0,0,1,1.89,6.28,8.92,8.92,0,0,1-2.67,4.88.88.88,0,0,0-.29.53,7.75,7.75,0,0,0,.81,4.61,3.68,3.68,0,0,1-2.23-3.34.63.63,0,0,0-.41-.63c-.16,0-3.87-1.44-4.23-8.61,0-.11,0-.23,0-.34a.61.61,0,0,0-.71-.61.81.81,0,0,0-.64.84c0,.11,0,.22,0,.33.25,7.81-6,9.29-6.24,9.34a.81.81,0,0,0-.54.45,5.1,5.1,0,0,0-.13,3.34,2.86,2.86,0,0,1-1.26-1.17,5.94,5.94,0,0,1-.31-3.91.71.71,0,0,0-.3-.83,2.11,2.11,0,0,1-.86-1.6c-.13-1.25.41-3.52,3.74-7.36a.8.8,0,0,0,.05-1,.62.62,0,0,0-.91,0c-6.8,6.08-11.18,5.58-12.62,5.43l-.28,0a.69.69,0,0,0-.58.26,18.45,18.45,0,0,0-1.6,2.45,5.39,5.39,0,0,1,.26-2.43.78.78,0,0,0,.21-.53c0-.37.38-8.53,10-9.44,8.25-.83,10.41-8.91,10.62-11.51q3.2-10,6.38-20.08,1,5.61,2.08,11.24c-.16,2.11-.8,11.33.17,13.25a.64.64,0,0,0,.22.24,27.71,27.71,0,0,0,5.67,2.32C1035.75,312.81,1033.77,316.22,1031.54,317.81Z"/>
    <path d="M1086.89,250.56q-9.09-2.53-18.19-5.39-12.39,12.65-24.77,24.73,9.32,3.12,18.64,5.92c.22.19,7.73,7.23,15,5.17,2.73-2.87-5.69-6.08-5.68-7.24,2.95,2.17,15.45,10.15,23.41,4.21,3.18-5.39-5.68-2.37-15.46-12.54,6.82,3.14,23.87,8.9,31.83,2.64C1115.08,263.52,1093.93,258,1086.89,250.56Z" style="fill: #ef7d00"/>
    <path d="M1101.08,258.43c-5-2.49-10.71-5.42-13.68-8.48a.5.5,0,0,0-.22-.13q-9.11-2.52-18.19-5.38a.71.71,0,0,0-.69.22q-12.39,12.65-24.78,24.71a.86.86,0,0,0-.26.71.58.58,0,0,0,.39.53q9.27,3.12,18.53,5.91c2,1.73,8.69,7.09,15.43,5.2a.92.92,0,0,0,.37-.23,2.73,2.73,0,0,0,.81-1.84,2.53,2.53,0,0,0-.29-1.17c3.86,1.73,8.64,3.07,13,2a11.52,11.52,0,0,0,4.11-1.93.84.84,0,0,0,.27-.29,4,4,0,0,0,.75-2.75c-.26-1.39-1.75-1.95-4-2.83a32.68,32.68,0,0,1-8.9-4.85c7.32,2.78,21.11,6.41,28.25.81a1,1,0,0,0,.2-.2,2.66,2.66,0,0,0,.56-1.81C1112.51,264.1,1108.16,262,1101.08,258.43Zm10.18,9.13c-3.24,2.42-8.67,3.16-15.69,2a68.58,68.58,0,0,1-15.38-4.81.72.72,0,0,0-.86.35.78.78,0,0,0,0,1,32.29,32.29,0,0,0,12.58,8.11c1.8.71,3.22,1.25,3.36,2a2.25,2.25,0,0,1-.4,1.33c-8,5.71-21.07-3.27-22.55-4.37a.54.54,0,0,0-.43-.09.69.69,0,0,0-.29.13.94.94,0,0,0-.39.75c0,.7.67,1.18,2.31,2.27,1.47,1,3.93,2.58,3.92,3.77a.65.65,0,0,1-.14.39c-6.29,1.59-12.92-3.92-14.19-5.06l-.09-.07a.51.51,0,0,0-.18-.09q-8.79-2.64-17.59-5.57Q1057,258,1068.78,246q8.85,2.78,17.69,5.25c3.1,3.14,8.8,6.09,13.83,8.59,5.36,2.68,10.9,5.32,11.06,7.3A.68.68,0,0,1,1111.26,267.56Z"/>
    <path d="M1060.05,220.89c-.63-.13-1.37-.25-2.26-.36A11.37,11.37,0,0,0,1060.05,220.89Z" style="fill: #ef7d00"/>
    <path d="M1072.7,215a40.29,40.29,0,0,0-4.45-1A9,9,0,0,0,1072.7,215Z" style="fill: #ef7d00"/>
    <path d="M1155.08,154c-8.41,10-39.55,27.07-49.32,31.23-6.14,3.87-25.46,15.59-29.1,15.81-33.64,4.41-42.05,9.7-42.05,9.94.45,0,9.09,13.1,14.77,14.2s12.5-1.29,12.5-1.29,3.45-1.92-1.83-3a11.37,11.37,0,0,1-2.26-.36c.89.11,1.63.23,2.26.36,5.92.41,15-2.37,15-2.38s3.34-1.83-2.37-3.54a9,9,0,0,1-4.45-1,40.29,40.29,0,0,1,4.45,1c6.78.25,17.37-2.83,17.37-2.85s3.64-1.76-6.14-4.94c19.41-.05,26.53-11.12,16.74-9.51a13.12,13.12,0,0,1-1.73.34c.63-.15,1.2-.26,1.73-.34,11.43-2.53,37.77-20.16,45.32-26.59C1153.49,165.64,1161,151,1155.08,154Z" style="fill: #ef7d00"/>
    <path d="M1100.67,197.67c-.53.08-1.1.19-1.73.34A15,15,0,0,0,1100.67,197.67Z" style="fill: #ef7d00"/>
    <path d="M1155,153.29a1,1,0,0,0-.31.25c-8.24,9.74-39,26.67-49.06,31l-.08,0-4.29,2.64c-7.57,4.71-21.67,12.86-24.56,13.08-33.46,4.4-42.08,9.6-42.43,10.08a.88.88,0,0,0-.33.88.66.66,0,0,0,.32.42c.21.2.85,1,1.46,1.82,2.91,3.77,9,11.55,13.44,12.43a23,23,0,0,0,8.21-.14,32.83,32.83,0,0,0,4.61-1.18l.11,0c.16-.09,1.6-.93,1.57-2.18a1.49,1.49,0,0,0-.26-.79,61.59,61.59,0,0,0,11.72-2.35l.14-.06a2.74,2.74,0,0,0,1.45-2.08,1.82,1.82,0,0,0-.75-1.47,80.8,80.8,0,0,0,14.13-2.77l.12,0a2.19,2.19,0,0,0,1.18-1.6c.09-.86-.31-2-3.61-3.42,9.09-.76,15.5-4.12,17.4-7.25a2.67,2.67,0,0,0,.35-2.53,2,2,0,0,0-.91-.86c12.8-4.7,34.71-19.65,41.57-25.43,5.15-3.73,12.41-14.23,11.63-17.85C1157.72,153.32,1157.21,152.2,1155,153.29Zm-120.4,58.43Zm111.12-41.23c-7.3,6.22-33.24,23.57-44.66,26.35l-.22.06c-.58.08-1.22.21-1.9.37h0a1,1,0,0,0-.68.87.54.54,0,0,0,.59.63,15.92,15.92,0,0,0,1.91-.37c2.23-.32,3.31.06,3.56.57,0,.08.16.34-.19.93-1.59,2.62-8.87,6.55-20.06,6.52a.87.87,0,0,0-.77.66.62.62,0,0,0,.33.83c6.43,2.11,6.43,3.37,6.44,3.4a.55.55,0,0,1-.11.1c-1,.31-10.71,3-17,2.83a39.94,39.94,0,0,0-4.51-1,.81.81,0,0,0-.81.51.72.72,0,0,0,.17.9,9.38,9.38,0,0,0,4.63,1.08c2.87.86,2.91,1.6,2.91,1.64s-.21.3-.44.45c-.91.29-9.22,2.69-14.66,2.33-.66-.13-1.43-.25-2.3-.35a.83.83,0,0,0-.82.62.65.65,0,0,0,.38.85,10.92,10.92,0,0,0,2.34.37c2.26.48,2.44,1,2.45,1a1.73,1.73,0,0,1-.6.56c-.7.24-7,2.27-12.13,1.24-4.08-.79-10-8.34-12.79-12-.45-.58-.79-1-1-1.34a42.33,42.33,0,0,1,7.57-2.89c5.71-1.74,16.12-4,33.26-6.42,2.91-.25,14-6.44,25.1-13.28l4.23-2.6c10.17-4.36,40.78-21.27,49.41-31.28,1.07-.5,1.16-.09,1.19.05C1156.94,156.7,1151.59,166.24,1145.73,170.49Z"/>
    <path d="M1065.86,301.78c-6.08,1-6.46-.22-6.46-.5s-1-16-1.52-20.52q-4.89,1.22-9.78,2.34l1.23,22.13a18.83,18.83,0,0,1-1.23,2c-.57.83-15.77,0-13.68,11.31,0,4.77.09,6,3.32,8.22a14.65,14.65,0,0,1-.57-5.26s4.28,2,8.46-5.76c-2.85,7.41-.86,9.58-.19,9.67.66,1.13-1.14,7.06,4.56,6-2.19-1.74-1.14-5-1.14-5s6-2,3.89-12.48c2.19-2.57,3-.63,3-.63s.67,6.39,5.89,4.08c2.38.89-.38,4.94-.38,4.94s3.8-.62,4.94-4.09,2.47-9.54-3.8-10.72c-.76-2.15,2.47-2.95,2.47-3s4,.56,5.13,2.32S1070.8,301.56,1065.86,301.78Z" style="fill: #ef7d00"/>
    <path d="M1066,301h-.08c-4.68.76-5.66.14-5.81,0-.07-1.5-1.06-16.19-1.52-20.49a.55.55,0,0,0-.71-.52q-4.89,1.22-9.79,2.34a.87.87,0,0,0-.63.88q.61,11,1.22,21.89a16.67,16.67,0,0,1-.92,1.52c-.26.07-.85.15-1.37.23-3.07.45-8.77,1.2-11.43,5.05a8.82,8.82,0,0,0-1.18,6.78c0,4.83.17,6.35,3.6,8.7a.63.63,0,0,0,.79-.1.86.86,0,0,0,.26-.85,15.62,15.62,0,0,1-.59-4,5.17,5.17,0,0,0,2.12-.19,8.47,8.47,0,0,0,3.85-2.66c-.57,2.74-.28,4.38.17,5.34a2.33,2.33,0,0,0,1,1.11,8.71,8.71,0,0,1,0,1.08c0,2.05.12,5.89,4.9,5.1l.16,0a.89.89,0,0,0,.62-.59.7.7,0,0,0-.19-.78,3.8,3.8,0,0,1-1-3.81,7.41,7.41,0,0,0,3.06-3c1.43-2.49,1.77-5.81,1-9.87a1.89,1.89,0,0,1,1.18-.73.61.61,0,0,1,.47.3c.09.67.59,3.36,2.49,4.49a4.28,4.28,0,0,0,3.93,0,.72.72,0,0,1,.39.54c.18,1-.8,2.68-1.16,3.21a.83.83,0,0,0-.1.8.53.53,0,0,0,.6.32,7.36,7.36,0,0,0,5.58-4.69c1.2-3.64,1.33-6.39.4-8.39a5.75,5.75,0,0,0-4.27-3.14.71.71,0,0,1,.08-.42,3.27,3.27,0,0,1,1.75-1.1c1.13.18,3.84.83,4.64,2.06.44.69.92.56,1.16.42.48-.28.68-.85.6-1.72C1071.06,304.08,1069.47,300.88,1066,301Zm-5.88.13v0Zm5,2.73a.59.59,0,0,0-.23,0,5,5,0,0,0-2.92,2,2.46,2.46,0,0,0-.15,2.07.55.55,0,0,0,.41.37,4.86,4.86,0,0,1,3.83,2.6c.76,1.65.62,4-.44,7.23a5.17,5.17,0,0,1-2.92,3,5.27,5.27,0,0,0,.59-2.93,2,2,0,0,0-1.29-1.53.62.62,0,0,0-.46,0,3.33,3.33,0,0,1-3.12.11c-1.63-1-1.94-3.67-2-3.7a.54.54,0,0,0,0-.21,1.79,1.79,0,0,0-1.46-1,3.58,3.58,0,0,0-2.65,1.61.88.88,0,0,0-.21.73c.75,3.78.5,6.91-.72,9.06a5.32,5.32,0,0,1-2.61,2.45.89.89,0,0,0-.54.56,6.47,6.47,0,0,0,.26,4.47c-2.11-.22-2.14-2.18-2.18-3.94A4.14,4.14,0,0,0,1046,325a.55.55,0,0,0-.39-.27c-.08,0-.35-.23-.56-.8-.34-.93-.65-3.19,1.17-7.92a.62.62,0,0,0-.61-.95.83.83,0,0,0-.57.43c-3.76,6.94-7.41,5.44-7.56,5.37a.63.63,0,0,0-.63.08.91.91,0,0,0-.37.61,13.75,13.75,0,0,0,.13,3.44c-1.48-1.41-1.54-2.78-1.54-6.48a.66.66,0,0,0,0-.14,7.22,7.22,0,0,1,.87-5.57c2.26-3.27,7.74-4,10.38-4.38,1.5-.21,1.94-.28,2.26-.7a20.47,20.47,0,0,0,1.31-2.14.92.92,0,0,0,.11-.46l-1.2-21.39c2.82-.66,5.65-1.34,8.47-2,.49,5.15,1.43,19.27,1.45,19.76,0,1.49,2.31,1.89,7.07,1.12a3.6,3.6,0,0,1,3.2,1.64,5.15,5.15,0,0,1,.65,1.31A11.92,11.92,0,0,0,1065.11,303.89Z"/>
    <path d="M870.59,211.91c5.31,2.8,11.12,5.66,16.69,8C887.8,220.16,880,216.53,870.59,211.91Z" style="fill: #ef7d00"/>
    <path d="M1040,190q-1.51-.34-3-.72A7,7,0,0,0,1040,190Z" style="fill: #ef7d00"/>
    <path d="M866,201.81c1.26.67,2.84,1.48,4.62,2.37Z" style="fill: #ef7d00"/>
    <path d="M1021.3,281.37a43.42,43.42,0,0,1-.17,5.59A31.77,31.77,0,0,0,1021.3,281.37Z" style="fill: #ef7d00"/>
    <path d="M1047.66,252.6a28,28,0,0,0,6.53,6.37A41.37,41.37,0,0,0,1047.66,252.6Z" style="fill: #ef7d00"/>
    <path d="M883.24,225.85a40.75,40.75,0,0,0,4.41-.49C886,225.58,884.39,225.75,883.24,225.85Z" style="fill: #ef7d00"/>
    <path d="M1079.38,248.39c-8-3.47-29.43-18.16-29.86-22.5-7.8-10.15-12.67-12.94-14.94-13.94a5.38,5.38,0,0,1-1.27-2.48c-4.84-10.82,1.57-15.38,5.33-16.49,3.09-.79,4-.47,6.21-1.9L1040,190a7,7,0,0,1-3-.72q1.52.38,3,.72c3.88.28,8.73-.54,7.27,5.3,3.84-2.16,12-13.1-9.27-12-6.92-6.75-35.4-8.28-42.53,26.85a24,24,0,0,0,2.68,2.05c-9-3.53-33.25-5.86-42-7.3-23.62-6.45-48.14-24.23-50.5-22.35-3.16,1.28,14.27,18.37,13.36,18.65-15.11-9.4-28.91-16.59-41.75-23.39-9-4.15-18.08-13-19.08-11.6-3.32,6.6,14.48,25.79,17.8,28.06s29.37,16.27,29,16.29c-39.24-20.32-45.82-25-47.79-27-3.46-1.13-11.89-13.52-14.23-13.08-1.29,1.08,1.29,19.59,20,29.63a22.14,22.14,0,0,0,3.07,1.83l4.62,2.37c11.73,5.92,32.35,14.87,32.08,15.58-.06.21-19-8.86-32.08-15.58-1.78-.89-3.36-1.7-4.62-2.37L858.59,198c-8.18-4.05-18.2-16.55-20.08-15.52s4.62,14,12.88,18.71c2.72,1.51,10.26,6,19.2,10.75,9.41,4.63,17.21,8.25,16.69,8-5.57-2.37-11.38-5.23-16.69-8-8.1-4-17.39-8.71-23.58-12-6.07-4.09-8.93-8.67-9.85-7.87-1.37.51,2.21,19.79,45.22,33.78a2.52,2.52,0,0,0,.86.07c1.15-.1,2.73-.28,4.41-.49,4.32-.63,9.62-1.67,9.18-1.38-.1.07-5,.84-9.18,1.38a40.75,40.75,0,0,1-4.41.49,9.54,9.54,0,0,1-1.65.06c-1.19-.27-8.72.17-8.86.54-.45,1.11,2.73,8.09,24.94,8.23,2.84,0,18.25-4.66,17-3.58-.65.64-21,6.16-22.54,6.11-1.34.11-8.49.33-8.75,1.06-.32,1,5.29,6.11,17.22,7.56,10.56,1.28,30.63-5.2,30.22-4.81s-19.34,6.4-19.84,6.71c-.69.36-7.62.38-7.87.9-.56,1.16,10,12.22,41.28,1.9-3.14,4.3-18.3,6.94-18.28,7.66-.07.56,3.34,4,8.64,5.24a26.74,26.74,0,0,0,9.59,0c6-1.19,12.22-3.59,20.19-11.19,1,2.39-19.91,13.24-18.93,14.17,4.53,4.27,19.55-.74,20.53-1.37,1-.4,28.93-17.64,28.84-19.64.43,2.61-36,24.13-35.64,24.65,2.34,3.75,14.8-.59,15.39-1s15.9-9.43,16.32-9.76-18,11.82-16.35,13.37c-.67,6.22,20.56-2.73,28.37-6.94a13.53,13.53,0,0,1,2.69-1.53,29.36,29.36,0,0,1-2.69,1.53c-4.14,2.57-11.51,7.46-11.54,9.93,4.94,8.13,20.76,4.07,23.2,1.91,1.22-1.05-1.43,6.38-.58,5.64a31.68,31.68,0,0,0,4.65-7.07c-.38,2.39-2.12,6.28-3.13,10.62s-1.3,9.16-2.69,14.38c-.27,1.92,6.82-3.21,8.2-14.22a43.42,43.42,0,0,0,.17-5.59c0-.4,0-.8-.09-1.21,0,.38.07.79.09,1.21a31.77,31.77,0,0,1-.17,5.59c-.69,8-2.84,17.25-2,17.77,2.12,1.37,8-8.57,8.55-14.9,1.74,2.94,5.38,9,8.52,10.11-.34-4.72.06-4.56-1.35-9.05.81-6.33.93-15,1.12-24.72,8.52,15.18,11.92,21.5,9.54,34.45,2.53.67,6.58-9.84,6.25-14.84,3.26,13.57,17.3,13,17.52,12.5.08-1-10.37-13.13-7.72-15.48,2.65.06,7,5.64,10.51,2.82-1.06-2.28-4.21-.23-7.78-5.95-2.8-5.17-3.73-12.91-10.06-20.7a28.2,28.2,0,0,1-6.53-6.37,41.37,41.37,0,0,1,6.53,6.37c8.79,6.31,20.1,7.81,20.7,4.8.78-3.75-16.17-14.25-15.3-17.82,3.37,6.29,20.39,18.23,32.92,13.78C1093.37,256.6,1082.25,253.34,1079.38,248.39Z" style="fill: #ef7d00"/>
    <path d="M1003,265.77a29.36,29.36,0,0,0,2.69-1.53A13.53,13.53,0,0,0,1003,265.77Z" style="fill: #ef7d00"/>
    <path d="M1087.41,253.85c-2.88-1.72-6.13-3.71-7.44-6a.66.66,0,0,0-.23-.21c-9-3.94-29.2-18.37-29.55-22a.73.73,0,0,0-.13-.34c-5.67-7.36-10.73-12.11-15.06-14.06a4.44,4.44,0,0,1-1-2l0-.13,0-.09c-1.9-4.25-2.2-7.84-.87-10.67a9.22,9.22,0,0,1,5.65-4.7c1-.26,1.75-.39,2.41-.52a9.28,9.28,0,0,0,4-1.47.84.84,0,0,0,.34-.43,2.08,2.08,0,0,1,1,.81,3.94,3.94,0,0,1,.1,3.05.69.69,0,0,0,.19.71.58.58,0,0,0,.68,0c2.08-1.12,5.61-4.9,5.22-8.35-.43-3.85-5.28-5.45-14.4-5.09-2-1.9-5.33-3.21-9.22-3.67a27.67,27.67,0,0,0-13.62,1.91c-7.32,3-16.84,10.34-20.66,29.25a.88.88,0,0,0,0,.28c-9.3-2.48-25.52-4.3-34.78-5.62-1.43-.19-2.69-.37-3.73-.53-13.1-3.61-26.46-10.62-36.22-15.92-9.39-5.1-13.37-7.29-14.76-6.37a1.26,1.26,0,0,0-.69.94c-.36,1.93,2.91,6.07,9.9,13.92l1.67,1.88c-13.65-8.32-26.1-14.82-38.71-21.49a78,78,0,0,1-12.63-7.94c-4.37-3.19-6.37-4.66-7.22-3.47a.35.35,0,0,1-.05.08c-3.14,6.23,10.22,21.75,16,27.26-11.39-6.39-14.73-8.67-15.92-10a.79.79,0,0,0-.33-.23c-1.49-.49-4.38-3.72-6.93-6.59-3.75-4.22-6.13-6.8-7.63-6.51a.57.57,0,0,0-.27.13c-.69.6-.54,2.56-.29,4.1.87,5.42,4,12.68,10.12,19-2.2-1.82-4.36-3.82-6.28-5.61-4.56-4.25-6.63-6.12-7.84-5.45-.32.17-.69.57-.63,1.56.19,3.13,4.65,11.38,10.55,16.33l-.81-.43a46.78,46.78,0,0,1-6.8-5.74c-1.78-1.75-2.87-2.82-3.73-2.13-.33.21-.63.74-.43,2.08,1,6.46,11,20.81,41.83,31.69-.68,0-1.24.06-1.47.07-4.33.25-4.43.51-4.57.91a2.57,2.57,0,0,0,.46,2.17c1.25,2,6.12,6.89,24.3,7.14a48.73,48.73,0,0,1-4.86,1.05l-1,.06c-7.16.38-8.06.72-8.32,1.45a1.46,1.46,0,0,0,.22,1.19c1.07,1.8,6.77,6.08,17.6,7.4,4.18.47,9.78-.18,15.05-1.18-3.47,1.11-4.56,1.47-4.92,1.65h0a24.28,24.28,0,0,1-3.21.3c-4.1.25-4.7.35-5,.94a1.7,1.7,0,0,0,.45,1.69c1.33,1.73,5.13,4.16,11.47,5.18,7.18,1.14,15.89.33,25.92-2.58a66.41,66.41,0,0,1-10.54,3.6c-3.8,1-4.39,1.19-4.36,2h0c.08,1.46,4.34,4.8,9.18,5.95a26.78,26.78,0,0,0,9.84,0,38.43,38.43,0,0,0,4-1c-2.9,1.86-3.5,2.44-3.57,3.06a.93.93,0,0,0,.27.76c3.39,3.18,11.68,1.72,16.86.23-3.7,2.37-3.6,2.58-3.29,3.2a.3.3,0,0,0,0,.08c2.81,4.51,16.14-.67,16.26-.78l2.33-1.38c-2.2,1.85-3.36,3.18-3.45,4a1.33,1.33,0,0,0,.08.6,2.27,2.27,0,0,0,1,2c2,1.36,7.64.38,16.62-3.19,1.24-.49,2.47-1,3.66-1.52-2.47,1.95-4.42,4-4.43,5.47a.72.72,0,0,0,.1.41c1.67,2.71,4.56,4.4,8.61,5a27.35,27.35,0,0,0,14.69-2.36c-.12.59-.31,1.34-.44,1.88-.55,2.2-.74,2.95-.19,3.32a.74.74,0,0,0,.91-.12h0a20.58,20.58,0,0,0,2.11-2.66c-.56,1.68-1.16,3.55-1.62,5.52s-.75,3.89-1.07,6a78.22,78.22,0,0,1-1.62,8.37.44.44,0,0,0,0,.1,1,1,0,0,0,.39,1.05c.47.3,1.17.1,2.08-.59a17.8,17.8,0,0,0,4.66-6.26c-.11.71-.21,1.39-.32,2-1,6.17-1.1,7.53-.36,8a1.73,1.73,0,0,0,1.95-.18c2.45-1.51,6.15-8,7.33-13.37,2,3.22,5,7.85,7.9,8.83a.67.67,0,0,0,.66-.17.89.89,0,0,0,.28-.7c-.08-1.15-.12-2-.15-2.72a19.24,19.24,0,0,0-1.18-6.34c.72-5.77.88-13.28,1-22,7.86,14.1,10.42,20.05,8.26,31.8a.63.63,0,0,0,.42.77,2.23,2.23,0,0,0,2.12-.82c2-1.92,4-7,4.77-11.28,4.36,10.22,15.43,10,15.94,10a5.28,5.28,0,0,0,.92-.09,1,1,0,0,0,.84-.58.82.82,0,0,0,.09-.34c0-.53-.33-1.11-2.28-3.84-2.16-3-6.17-8.71-5.85-10.75a11,11,0,0,1,2.78,1.45c2.3,1.45,5.18,3.24,7.79,1.14a.87.87,0,0,0,.29-1,3.34,3.34,0,0,0-2.46-1.71c-1.47-.45-3.3-1-5.33-4.27a43,43,0,0,1-2.47-6,53.24,53.24,0,0,0-5.28-11.52c6.71,3.77,14,5.1,16.87,3.87a2.48,2.48,0,0,0,1.58-1.76c.37-1.85-1.72-4.13-5.41-7.44,6.3,3.7,14.13,6.21,20.91,4.54.51-.12,1-.28,1.52-.45a1,1,0,0,0,.59-.65C1093.75,257.62,1091.09,256.07,1087.41,253.85Zm-73.69,28.83Zm55.53,15.6h0ZM837.51,192.67Zm222.68,52.82a.56.56,0,0,0-.67-.26.88.88,0,0,0-.58.64c-.51,2.06,2.57,4.95,7.64,9.41,3.17,2.8,8,7,7.65,8.46,0,.2-.38.36-.52.42-1.7.72-6.2.39-11.53-1.73a36.91,36.91,0,0,1-7.48-4,41.76,41.76,0,0,0-6.6-6.42.65.65,0,0,0-.89.15.81.81,0,0,0-.1,1,28.11,28.11,0,0,0,6.53,6.39c4.13,5.08,5.94,10.14,7.48,14.46a43.46,43.46,0,0,0,2.56,6.2c2.26,3.64,4.38,4.29,5.93,4.77a4.43,4.43,0,0,1,1.34.55c-1.73.66-3.75-.62-5.58-1.76-1.4-.88-2.61-1.64-3.72-1.67a.75.75,0,0,0-.49.2,2.19,2.19,0,0,0-.7,1.27c-.45,2.44,2.48,6.86,6.06,11.9.57.8,1.18,1.67,1.6,2.3a17.2,17.2,0,0,1-6.68-1.32,15,15,0,0,1-9.06-10.91.57.57,0,0,0-.66-.45l-.1,0a.9.9,0,0,0-.57.88c.25,3.76-2.28,11.36-4.5,13.52l-.25.21c2.13-12.87-1.68-19.53-9.78-34a.59.59,0,0,0-.75-.24.86.86,0,0,0-.51.77c0,.73,0,1.47,0,2.2-.17,8.92-.32,16.62-1.07,22.43a.72.72,0,0,0,0,.33,18.09,18.09,0,0,1,1.16,6.12c0,.4,0,.85.07,1.37-2.74-1.84-5.79-7-7.18-9.32a.57.57,0,0,0-.72-.25.83.83,0,0,0-.53.71c-.46,4.92-4.49,12.61-6.87,14.08a1,1,0,0,1-.51.19,51.29,51.29,0,0,1,.81-6.64c.5-3.15,1.1-7,1.41-10.6a31.6,31.6,0,0,0,.16-5.69c0-.41-.05-.81-.09-1.19a.6.6,0,0,0-.74-.56.83.83,0,0,0-.6.88c0,.37.06.73.09,1.1a42.76,42.76,0,0,1-.17,5.54,23.5,23.5,0,0,1-4.41,11.34,9.84,9.84,0,0,1-2.29,2.29c.68-2.72,1.08-5.31,1.47-7.81.31-2.06.61-4,1-5.85.51-2.18,1.2-4.24,1.82-6.07a33.19,33.19,0,0,0,1.33-4.61.66.66,0,0,0-.46-.78.72.72,0,0,0-.81.47,30,30,0,0,1-3.12,5.13c0-.06,0-.12,0-.18.66-2.65.86-3.59.25-4a.8.8,0,0,0-1,.16c-1.35,1.17-8.41,3.45-14.51,2.59-3.57-.5-6.13-1.91-7.61-4.16.44-2,6.73-6.33,10.73-8.85a30.45,30.45,0,0,0,3.14-1.78.83.83,0,0,0,.35-1,.61.61,0,0,0-.76-.41s-1.13.62-2.71,1.58C996.27,268.63,979,276,975.7,273.7a.87.87,0,0,1-.38-.93.71.71,0,0,0-.06-.41c.54-1.21,5.66-5.37,16-12.32l.07,0,0,0h0a.8.8,0,0,0,.28-1,.63.63,0,0,0-.92-.23c-.19.12-3.83,2.34-7.35,4.44-4.25,2.54-8.64,5.11-9,5.3-1,.55-11.32,3.91-14.11,1.67,1.52-1.12,6.45-4.14,11.24-7.15,18.12-11.43,23.08-15.31,24-17a.9.9,0,0,0,.14-.55,1.09,1.09,0,0,0,0-.18.64.64,0,0,0-.75-.53.76.76,0,0,0-.57.62c-1.23,2-19.1,13.66-28.48,19.1-1.17.71-14.67,5.06-19.3,1.85,1.06-.89,4.14-2.78,6.69-4.37,9.7-6,12.61-8.3,11.93-9.94a.69.69,0,0,0-.47-.41.65.65,0,0,0-.59.17c-8.21,7.83-14.41,9.92-19.85,11a26,26,0,0,1-9.36,0,16.47,16.47,0,0,1-7.78-4.22c.68-.24,1.88-.56,3.05-.89,5-1.36,12.51-3.54,14.76-6.61a.8.8,0,0,0,0-.88.66.66,0,0,0-.76-.29c-23.73,7.89-34.64,3.12-38.23.91a8,8,0,0,1-1.95-1.62c.84-.12,2.46-.22,3.61-.29a14.51,14.51,0,0,0,3.67-.42l0,0c.49-.23,4.77-1.57,8.54-2.79,10.6-3.45,11.18-3.77,11.44-4a.84.84,0,0,0,.1-.91c-.29-.54-.29-.54-3.43.31-5.79,1.6-19.35,5.07-27.35,4.14-10.6-1.29-15.36-5.23-16.39-6.44a50.54,50.54,0,0,1,7-.64l1-.06c1.17.06,21.93-5.32,22.92-6.26a.86.86,0,0,0,.24-1c-.35-.75-.38-.78-8.11,1.21-3.87,1-8.25,2.07-9.56,2.07-17.22-.08-22.28-4.3-23.66-6a3.31,3.31,0,0,1-.56-.94,47.61,47.61,0,0,1,8.13-.35,11.38,11.38,0,0,0,1.45-.06,35.54,35.54,0,0,0,5-.53,87.24,87.24,0,0,0,9.22-1.44.8.8,0,0,0,.27-.92c-.26-.69-.26-.67-5.31.18-1.34.22-3.17.53-4.88.78s-3.27.39-4.32.48l-.34,0-.1-.05c-13.65-4.31-24.62-9.79-32.61-16-7.44-5.77-10.35-10.69-11.43-13.08a7.68,7.68,0,0,1-.88-3.28,16.06,16.06,0,0,1,2,1.84,47.89,47.89,0,0,0,7.05,5.95l.07,0c6.18,3.31,15.48,8.06,23.58,12,5.32,2.81,11.13,5.68,16.72,8.06a.65.65,0,0,0,.88-.39c.15-.47.06-.68-.46-1v0l-.14-.06-.84-.41-2.85-1.35c-3.06-1.45-7.7-3.67-12.83-6.19-6-3.18-11.41-6.27-15.11-8.4l-4.06-2.33c-5.9-3.39-11-11.32-12.46-15.71a4,4,0,0,1-.3-1.67c.84,0,3.85,2.89,6.3,5.18,3.91,3.64,8.77,8.15,13.16,10.34.4.19,3.41,1.77,7.48,3.86,1.27.68,2.82,1.48,4.58,2.35C902.5,221,902.59,220.49,903,220.45a.65.65,0,0,0,.35-.39.88.88,0,0,0,0-.62c-.32-.83-2.7-1.91-19.94-9.93-4.3-2-8.89-4.2-12.61-6.06l-2.24-1.14-2.31-1.19a24.09,24.09,0,0,1-2.91-1.71.38.38,0,0,0-.13-.09,38.51,38.51,0,0,1-18.84-22.09,16.31,16.31,0,0,1-1-6.11c1.14.41,4.21,3.87,6.1,6,2.84,3.19,5.52,6.19,7.37,6.95,2.28,2.28,9.95,7.46,47.86,27.08a.65.65,0,0,0,.49,0,.7.7,0,0,0,.45-.66c0-.21,0-.35-.43-.69v0l-.21-.11c-1.11-.76-4.14-2.35-12.41-6.87-6.86-3.75-14.63-8.13-16.29-9.25-3.41-2.35-20.11-20.77-17.62-26.85.77.15,3.27,2,5.49,3.59A79.5,79.5,0,0,0,877,178.4c13.5,7.14,26.85,14.12,41.68,23.36a.67.67,0,0,0,.55.06.8.8,0,0,0,.46-.56c.14-.66-.22-1.12-4.23-5.61-2.9-3.24-9.65-10.87-9.53-12.5a.27.27,0,0,0,.1-.06c1-.45,7.34,3.09,13.47,6.41,9.81,5.33,23.24,12.39,36.47,16H956l3.78.54c10.56,1.54,30.22,3.61,38,6.73a.7.7,0,0,0,.87-.38.76.76,0,0,0-.21-1,19.92,19.92,0,0,1-2.19-1.64l-.12-.1c3.73-17.86,12.71-24.8,19.61-27.64,8.74-3.55,18.06-1.95,21.68,1.7a.63.63,0,0,0,.43.17c11.22-.5,13.23,2.23,13.43,4,.22,1.95-1.51,4.41-3.18,5.82a4.12,4.12,0,0,0-.53-2.66c-1.09-1.72-3.57-1.78-6-1.85-.52,0-1,0-1.54-.07-1-.23-2-.46-3-.71a.75.75,0,0,0-.83.48.72.72,0,0,0,.23.92,7.33,7.33,0,0,0,3.2.79l.91.21,2,.46a12.45,12.45,0,0,1-1.61.36c-.69.13-1.47.27-2.53.54a10.87,10.87,0,0,0-6.67,5.6c-1.54,3.28-1.27,7.3.8,12l0,.08a5.67,5.67,0,0,0,1.39,2.62.46.46,0,0,0,.18.13c4.14,1.84,9.06,6.45,14.61,13.65,1.1,5.2,22.78,19.56,30,22.73,1.5,2.42,4.79,4.44,7.7,6.19,2.07,1.25,4.8,2.87,5.25,4C1079.69,263,1063.45,251.57,1060.19,245.49Z"/>
    <path d="M961.11,249.13c-.78,1.55,14.17,7.74,33.24-13.54q-5.13-2-10.27-4.16A171.12,171.12,0,0,1,961.11,249.13Z" style="fill: #ef7d00"/>
    <path d="M914.33,209.37c1.8,7.37,16.75,2.25,16.75,2.21s-7.21,7.87-12.37,9c3.09,2.74,16.11,2.14,18.3.84a9.68,9.68,0,0,0,1.43-1.1c2.59-2.84,4.63-5.19,4.63-5.19a49.2,49.2,0,0,1-4.63,5.19c-4.07,4.46-9.53,10.1-10.71,10-.26,1.85,14,1.45,17-1.31s10.44-6.77,10.44-6.78S935.59,236,934.69,235.85c7.34,2.1,22-2.2,31.44-8.33-13.92,9.65-15.2,11.26-22.29,14.38,6.31,1.37,9.53,5.88,30.92-4.19A47.55,47.55,0,0,0,984,231.4q-28.32-11.7-56.66-25.73A21.34,21.34,0,0,1,914.33,209.37Z" style="fill: #ef7d00"/>
    <path d="M943.07,215.1s-2,2.35-4.63,5.19A49.2,49.2,0,0,0,943.07,215.1Z" style="fill: #ef7d00"/>
    <path d="M984,231.4l.08,0c.44-.42.88-.84,1.31-1.27C985,230.57,984.48,231,984,231.4Z" style="fill: #ef7d00"/>
    <path d="M994,220.21a74.21,74.21,0,0,1-8.57,9.95A54.07,54.07,0,0,0,994,220.21Z" style="fill: #ef7d00"/>
    <path d="M993.88,235.09c-13.43,15-24.21,15.65-28.23,15.26a8.86,8.86,0,0,1-3.59-1c8.3-5.54,16.64-11.65,23.59-18.48a54.71,54.71,0,0,0,8.86-10.28.77.77,0,0,0-.14-1,.66.66,0,0,0-.93.19,73.4,73.4,0,0,1-8.2,9.57A48.5,48.5,0,0,1,974.51,237c-17.64,8.32-22.66,6.55-27.51,5l-1-.33c3.74-1.77,6-3.33,10.83-6.77,2.43-1.72,5.46-3.88,9.67-6.82a.78.78,0,0,0,.23-1,.63.63,0,0,0-.91-.24c-8.93,5.8-21.73,9.47-29,8.62,3.07-1.85,9.33-6,18.73-12.72a.78.78,0,0,0,.23-1,.64.64,0,0,0-.89-.29c-.31.17-7.58,4.15-10.57,6.87-2.39,2.2-12.14,2.65-15.17,2,2.31-1.58,6.41-5.82,9.91-9.68a48.41,48.41,0,0,0,4.53-5.11.78.78,0,0,0-.07-1,.62.62,0,0,0-.93,0c-1.5,1.73-3.05,3.47-4.56,5.12a8.46,8.46,0,0,1-1.33,1c-.87.49-4.36,1-8.5,1a24.67,24.67,0,0,1-7.66-1c5-2.08,10.76-8.32,11-8.62a.78.78,0,0,0,.09-.91.65.65,0,0,0-.79-.32c-.09.05-9.86,3.38-14.15.7a3.87,3.87,0,0,1-1.37-1.42,22.14,22.14,0,0,0,12.39-3.87.78.78,0,0,0,.17-1,.65.65,0,0,0-.94-.21,21,21,0,0,1-12.61,3.58.64.64,0,0,0-.55.26.78.78,0,0,0-.12.65,5.26,5.26,0,0,0,2.4,3.32c3.31,2.06,9.09,1.1,12.5.23-2.47,2.37-6.73,6-10,6.73a.69.69,0,0,0-.51.55.81.81,0,0,0,.25.75c2.81,2.47,12.46,2.41,17,1.54-3.69,3.89-6.74,6.77-7.5,6.88a.68.68,0,0,0-.7.6,1.18,1.18,0,0,0,.61,1.21c1.55,1,8.11,1.07,12.89,0a64.08,64.08,0,0,1-6,3.74.69.69,0,0,0-.57.64.75.75,0,0,0,.51.81c5.5,1.55,14.58-.27,22.64-3.61l-1.08.77c-5.55,3.91-7.62,5.35-12.5,7.48a.74.74,0,0,0-.42.75.7.7,0,0,0,.53.66c1,.23,1.94.54,2.91.86,5,1.59,10.27,3.43,28.16-5-4.51,3.53-9.27,6.85-14,10a.79.79,0,0,0-.25.29,1.3,1.3,0,0,0,.52,1.61c.75.61,3.2,1.59,7,1.48,6.11-.19,15.66-3.31,26.84-15.79a.79.79,0,0,0,0-1.05A.63.63,0,0,0,993.88,235.09Zm-59.19,0Z"/>
    <path d="M1037.39,253.66l0,0q-3.24-4.92-6.49-9.89A18.67,18.67,0,0,0,1037.39,253.66Z" style="fill: #ef7d00"/>
    <path d="M1037.43,253.69q2.74,4.19,5.5,8.34S1042.54,257.6,1037.43,253.69Z" style="fill: #ef7d00"/>
    <path d="M1037.82,253a18.14,18.14,0,0,1-6.22-9.48.59.59,0,0,0-.81-.45.86.86,0,0,0-.5,1,19.16,19.16,0,0,0,6.67,10.23c4.84,3.68,5.29,7.87,5.3,7.91a.58.58,0,0,0,.67.57h.06a.88.88,0,0,0,.61-.9C1043.58,261.66,1043.13,257.05,1037.82,253Z"/>
    <path d="M1035.45,212.51a14.89,14.89,0,0,1-4.92-4.2q11.29,19.73,22.58,39c.26-1.85-2.86-18.26-3.48-20.51C1049,225,1040.87,215.27,1035.45,212.51Z" style="fill: #ef7d00"/>
    <path d="M1030.53,208.31l-2.16-3.78A15,15,0,0,0,1030.53,208.31Z" style="fill: #ef7d00"/>
    <path d="M1035.8,211.83a15.25,15.25,0,0,1-6.8-7.64.59.59,0,0,0-.86-.33.87.87,0,0,0-.41,1,16.3,16.3,0,0,0,7.38,8.34c5.22,2.66,13.27,12.21,13.87,13.9.67,2.42,3.69,18.59,3.46,20.2a.61.61,0,0,0,.57.75h.1a.87.87,0,0,0,.67-.74c.29-2.12-3-18.9-3.52-20.87S1041.36,214.66,1035.8,211.83Z"/>
    <path d="M1015.31,277s4.82-8.62-8.2-25.12Q1011.21,264.5,1015.31,277Z" style="fill: #ef7d00"/>
    <path d="M998.86,240.82c-9.92,12.91-9.92,14.4-9.92,14.41s5.54,2.81,15.46-6.59c1,1.13,1.88,2.21,2.71,3.27q-5.8-17.79-11.6-35.69C995.9,218.25,987.91,229.33,998.86,240.82Z" style="fill: #ef7d00"/>
    <path d="M1004,248.1c-4.93,4.67-8.69,6.16-11,6.6a8,8,0,0,1-3.15,0c.63-1.21,2.7-4.61,9.5-13.47a.78.78,0,0,0,0-1c-2.9-3-8.3-8.72-3.84-21.35a6.51,6.51,0,0,0,.67-2.89.61.61,0,0,0-.77-.5.81.81,0,0,0-.55.89,9.77,9.77,0,0,1-.6,2c-1.53,4.32-4.68,13.26,3.69,22.46-6.16,8-9.68,13.22-9.68,14.37a.7.7,0,0,0,.37.63c.24.11,5.85,2.8,15.68-6.25,15.23,17.64,10.48,26.9,10.43,27a.74.74,0,0,0,.21,1,.58.58,0,0,0,.36.08.74.74,0,0,0,.57-.4c.23-.46,5.54-10.44-11-29.26A.63.63,0,0,0,1004,248.1Zm-14.38,7.23Z"/>
    <path d="M1021.48,256.56c-1.18-1-3.87-1.37-6.29-4-2.69,8.38-1.18,10.39-1.18,10.39q10.89,1.75,21.79,3.1C1035,257.87,1022.66,257.66,1021.48,256.56Z" style="fill: #ef7d00"/>
    <path d="M1024.11,256.58a11.45,11.45,0,0,1-2.17-.61,7.83,7.83,0,0,0-2-1.11,11.72,11.72,0,0,1-4.29-2.89.57.57,0,0,0-.63-.16.8.8,0,0,0-.51.52c-2.73,8.52-1.26,10.85-1.08,11.08a.61.61,0,0,0,.92,0,.83.83,0,0,0,.17-1s-1.08-1.85.91-8.58a13.92,13.92,0,0,0,3.89,2.4,7.08,7.08,0,0,1,1.66.91,7.12,7.12,0,0,0,2.68.87c3.8.89,10.87,2.39,11.43,8.15a.59.59,0,0,0,.67.57h.07a.86.86,0,0,0,.6-.9C1035.83,259.13,1028.2,257.52,1024.11,256.58Z"/>
    <path d="M1016.76,187.32c5-.22,9.89,2,11.77-2.11C1028.53,184.58,1026.05,179.6,1016.76,187.32Z" style="fill: #ef7d00"/>
    <path d="M1027.26,182.7c-1.77-.82-5.08-.76-10.87,4a.87.87,0,0,0-.28.84.6.6,0,0,0,.62.48,29.67,29.67,0,0,1,4.23.22,19.1,19.1,0,0,0,4.1.13,4.74,4.74,0,0,0,4.07-2.94.85.85,0,0,0,.08-.35A3.25,3.25,0,0,0,1027.26,182.7Zm-6,4.1c-.79-.08-1.6-.16-2.42-.2,3.89-2.85,6.19-3.06,7.47-2.65a2.51,2.51,0,0,1,1.53,1.26C1026.72,187.21,1024.57,187.13,1021.22,186.8Zm7.32-1.59h0Z"/>
    <path d="M1103.17,217.64l1.74-3.28c-4.72.38-9,.31-11.39-.31A50.39,50.39,0,0,0,1103.17,217.64Z" style="fill: #ef7d00"/>
    <path d="M1090.31,241.77l1.23-2.29a152.32,152.32,0,0,1-26.7-10C1053.43,224,1074,235.3,1090.31,241.77Z" style="fill: #ef7d00"/>
    <path d="M1096.23,230.7l3.08-5.77c-6.49,1.33-15.22.72-27-5.16A68.46,68.46,0,0,0,1096.23,230.7Z" style="fill: #ef7d00"/>
    <path d="M1128.49,233c-2.69-2.32-15.47,1.66-32.26-2.32l-4.69,8.78C1106.91,243.47,1122.72,243.47,1128.49,233Z" style="fill: #ef7d00"/>
    <path d="M1107.12,246.5c-1.66.69-8.72-1.48-16.81-4.73-1.6,3-3.19,5.93-4.79,8.88C1086.66,252.31,1104.62,251.19,1107.12,246.5Z" style="fill: #ef7d00"/>
    <path d="M1110.76,219.68c-2.38-.84-4.77-1.29-7.59-2q-1.92,3.66-3.86,7.29A29,29,0,0,0,1110.76,219.68Z" style="fill: #ef7d00"/>
    <path d="M1128.26,198.61c-2,0-4.71.09-9.09.1A35.45,35.45,0,0,0,1128.26,198.61Z" style="fill: #ef7d00"/>
    <path d="M1117.12,191.11q-4,7.66-8,15.26c2.46.08,4.58.12,6.41.15,9-.92,19.9-4.5,19.09-6.35a10.65,10.65,0,0,0-6.36-1.56,35.45,35.45,0,0,1-9.09.1c4.38,0,7.14-.12,9.09-.1A34,34,0,0,0,1154,181.84C1144.85,188.55,1117.58,191.41,1117.12,191.11Z" style="fill: #ef7d00"/>
    <path d="M1093.52,214.05c-.6-.3-1.22-.61-1.86-1A3.49,3.49,0,0,0,1093.52,214.05Z" style="fill: #ef7d00"/>
    <path d="M1109,206.7a37.43,37.43,0,0,0,6.58-.18c-1.83,0-4-.07-6.41-.15C1109.07,206.48,1109,206.59,1109,206.7Z" style="fill: #ef7d00"/>
    <path d="M1104.91,214.36c10.58-.79,23.46-4.05,22.9-6s-1-1.74-12.28-1.83a37.43,37.43,0,0,1-6.58.18Q1106.94,210.54,1104.91,214.36Z" style="fill: #ef7d00"/>
    <path d="M1106.44,206.28a13.64,13.64,0,0,0,2.51.42c.06-.11.12-.22.17-.33Z" style="fill: #ef7d00"/>
    <path d="M1153.75,181.2c-8.62,6.37-35.12,9.38-36.39,9.14a.92.92,0,0,0-.85.64c-.16.42,0,.81.33.88.78.31,24.46-2.07,35.19-8.1a33.36,33.36,0,0,1-23.83,14.08c-1.19,0-2.64,0-4.53.06-1.24,0-2.66,0-4.32,0a1,1,0,0,0-.82.72c-.12.41,0,.76.38.81a36.79,36.79,0,0,0,8.89-.09c3,0,4.07.27,6,1.3-1.65,1.48-10.36,4.23-17.93,5.07-2.5,0-5.55-.09-9.26-.24a.92.92,0,0,0-.81.67.61.61,0,0,0,.32.84,26.52,26.52,0,0,0,9.32.26h1c9.87.08,10.31,0,10.69,1.29-.74.67-4.16,2.14-11.28,3.54-9.33,1.83-18.24,2.13-21.94,1.21-.59-.28-1.2-.6-1.83-.93a.71.71,0,0,0-.86.29.82.82,0,0,0-.08,1,3.62,3.62,0,0,0,1.83,1,53.85,53.85,0,0,0,12.32,4.33c1.35.32,2.64.63,3.9,1-13.2,8.7-27.06,3.8-36.45-.93a.82.82,0,0,0-.8,1.35c19.15,13.57,36.85,13.25,47.43,12.75,3.91-.17,6.86-.35,8.21.24-9.84,16.11-46.77,3.27-62.36-4.62-3.65-1.74-3.65-1.75-4.1-1.23a.86.86,0,0,0-.16.9c.34.84,15.74,8.38,21.53,10.85,11.77,5.19,19.47,7.69,23,8a13.47,13.47,0,0,1-3.33,1.52c-6.47,2.14-15.31,2-16.05,1.24a.62.62,0,0,0-.94,0,.87.87,0,0,0-.17,1.07c1,1.43,9.84,1.09,15.42-.36l.27-.07c3.76-1,6.12-2.36,7-4a.81.81,0,0,0,0-.82.52.52,0,0,0-.66-.17c-1.94.81-13.7-3.36-24.73-8.27,12.6,4.33,26.34,6.82,36.09,3.86,4.63-1.4,8.36-4,10.63-8.1a.76.76,0,0,0,0-.93c-1.33-1.14-4.51-.93-9.33-.71-8.82.41-22.64.73-38.08-7.2,8.81,2.77,19.31,3.28,29.44-4.15a1,1,0,0,0,.42-.75.56.56,0,0,0-.33-.6,54.11,54.11,0,0,0-5.26-1.45,58.68,58.68,0,0,1-7.41-2.18c9.84.33,26.17-2.89,29.26-5.59a1.72,1.72,0,0,0,.76-1.79c-.46-1.55-.8-2-4.72-2.09,3.28-.77,9.74-2.62,11.21-4.62a1.59,1.59,0,0,0,.31-1.55.43.43,0,0,0-.2-.22,16,16,0,0,0-2.19-1,34.31,34.31,0,0,0,21.61-16.32.82.82,0,0,0,0-.89C1154.34,181,1154,181,1153.75,181.2Z"/>
    <path d="M1124.17,215.21q-7.05,2.32-14.09,4.43A95.76,95.76,0,0,0,1124.17,215.21Z" style="fill: #ef7d00"/>
    <path d="M1124.08,214.5a95.33,95.33,0,0,1-13.9,4.38,1,1,0,0,0-.77.84c-.06.42.19.73.56.68a47.78,47.78,0,0,0,5.08-1.31,82.17,82.17,0,0,0,9.21-3.18,1.06,1.06,0,0,0,.58-1A.5.5,0,0,0,1124.08,214.5Z"/>
    <path d="M943.06,215.1a25.77,25.77,0,0,0,12.07,2.69q-4.46-1.95-8.91-3.95A16.13,16.13,0,0,1,943.06,215.1Z" style="fill: #ef7d00"/>
    <path d="M955.44,221.78a20,20,0,0,0,10,.43c-2.37-1-4.75-2-7.12-3C956.76,220.62,955.44,221.79,955.44,221.78Z" style="fill: #ef7d00"/>
    <path d="M967.93,225.66c2.07.07,4.13.12,6.19.17l-5-2C968.37,225,967.93,225.66,967.93,225.66Z" style="fill: #ef7d00"/>
    <path d="M965.41,222.21l3.76,1.58c.72-1,1.74-2.46,3-4.1A22.86,22.86,0,0,1,965.41,222.21Z" style="fill: #ef7d00"/>
    <path d="M955.13,217.79l3.16,1.38c.72-.68,1.48-1.42,2.17-2.13A25.64,25.64,0,0,1,955.13,217.79Z" style="fill: #ef7d00"/>
    <path d="M935.7,209q5.26,2.43,10.52,4.8a11.65,11.65,0,0,0,2.64-1.84C945.58,212.3,940.62,210.93,935.7,209Z" style="fill: #ef7d00"/>
    <path d="M935.7,209q-8.18-3.79-16.34-7.76A138.24,138.24,0,0,0,935.7,209Z" style="fill: #ef7d00"/>
    <path d="M974.16,225.09l-4.95-.13c.7-1.05,1.89-2.76,3.48-4.8a.8.8,0,0,0,0-.94.63.63,0,0,0-.83-.19,21.45,21.45,0,0,1-15,2.39c1-.94,2.66-2.45,4-3.84a.81.81,0,0,0,.14-.89.65.65,0,0,0-.74-.37,23.4,23.4,0,0,1-15.24-1.14,14.1,14.1,0,0,0,4.23-2.62.8.8,0,0,0,.18-.85.67.67,0,0,0-.68-.45c-8.49.87-28.95-10.45-29.16-10.63a.63.63,0,0,0-.9.31.8.8,0,0,0,.31,1c.79.49,18.06,10.1,27.66,10.79a16.26,16.26,0,0,1-3.81,1.65.73.73,0,0,0-.52.67.74.74,0,0,0,.44.74l.64.28a25.11,25.11,0,0,0,14.78,2.17c-1.67,1.59-3.21,2.95-3.23,3a.78.78,0,0,0-.25.71.72.72,0,0,0,.45.57,21.41,21.41,0,0,0,14.65-.87c-1.57,2.15-2.44,3.56-2.49,3.64a.78.78,0,0,0,0,.74.64.64,0,0,0,.57.4l6.18.17h0a.73.73,0,0,0,.67-.72A.69.69,0,0,0,974.16,225.09Z"/>
  </g>
</svg>
